<svg width="160" height="80" viewBox="0 0 160 80" fill="none" xmlns="http://www.w3.org/2000/svg">
<path d="M72.7427 44.1295H80.0993L82.2492 57.3618L84.6355 44.1295H89.7584L92.3288 57.3618L94.6693 44.1295H101.549L95.9524 64.1454H89.4722L87.4083 53.6835L84.9651 64.1454H78.7069L72.7427 44.1295ZM118.89 44.1772H126.724L129.877 56.3111L133.412 44.0341H140.864L133.405 64.1457H126.375L118.89 44.1772ZM142.679 44.1773V64.1451H156V59.0341H149.606V56.6455H155.387V51.4858H149.606V49.2408H155.912V44.1773H142.679ZM108.977 56.9082L110.911 49.8859L112.381 56.9082H108.977ZM114.972 44.1295H106.863L99.5756 64.1454H107.266L107.95 61.375H113.599L114.193 64.1454H122.083L114.972 44.1295ZM61.5165 57.8875L57.6951 64.0976H41.0707L50.2904 49.8143H41.7725L45.3219 44.1297H61.5165L52.8697 57.8875H61.5165ZM52.0171 35.3399C41.4109 35.3399 32.8128 43.9374 32.8128 54.5435C32.8128 65.1497 41.4109 73.7478 52.0171 73.7478C62.6226 73.7478 71.2207 65.1497 71.2207 54.5435C71.2207 43.9374 62.6226 35.3399 52.0171 35.3399ZM51.5802 12.571V6.25226C25.283 6.36863 4 27.7175 4 54.042C4 54.162 4.00831 54.2801 4.0095 54.4001H10.3098C10.3864 31.5157 28.7689 12.9545 51.5802 12.571ZM51.5802 25.7503V19.4358C51.5321 19.4352 51.4852 19.4316 51.4371 19.4316C32.2037 19.4316 16.6119 35.0235 16.6119 54.2569C16.6119 54.305 16.6154 54.3525 16.6154 54.4H22.93C23.196 38.6935 35.8731 26.0163 51.5802 25.7503Z" fill="#00396F"/>
</svg>
