<svg width="160" height="76" viewBox="0 0 160 76" fill="none" xmlns="http://www.w3.org/2000/svg">
<path fill-rule="evenodd" clip-rule="evenodd" d="M156 6.91834V53.9205C156 55.1767 154.979 56.1948 153.72 56.1948H101.28V69.0825C101.28 70.3387 100.259 71.3568 99 71.3568H6.28C5.02068 71.3568 4 70.3387 4 69.0825V22.0803C4 20.8249 5.02068 19.806 6.28 19.806H96.72V6.91834C96.72 5.66217 97.7414 4.64404 99 4.64404H153.72C154.979 4.64404 156 5.66217 156 6.91834ZM140.979 20.4125C140.979 20.0782 140.706 19.806 140.372 19.806H137.332C136.998 19.806 136.724 20.0782 136.724 20.4125V31.8121C136.724 31.994 136.511 32.0547 136.451 31.8727L132.286 20.3519C132.195 20.0782 131.982 19.806 131.526 19.806H127.91C127.576 19.806 127.302 20.0782 127.302 20.4125V40.4226C127.302 40.7561 127.576 41.0291 127.91 41.0291H130.949C131.284 41.0291 131.557 40.7561 131.557 40.4226V29.932C131.557 29.75 131.77 29.6902 131.83 29.8713L135.965 40.5135C136.055 40.7561 136.268 41.0291 136.785 41.0291H140.372C140.706 41.0291 140.979 40.7561 140.979 40.4226V20.4125ZM123.926 37.5418C123.926 37.209 123.653 36.9361 123.318 36.9361H120.734C120.552 36.9361 120.43 36.8155 120.43 36.6328V24.2023C120.43 24.0203 120.552 23.8983 120.734 23.8983H123.014C123.348 23.8983 123.622 23.6261 123.622 23.2925V20.4125C123.622 20.0782 123.348 19.806 123.014 19.806H113.592C113.258 19.806 112.983 20.0782 112.983 20.4125V23.2925C112.983 23.6261 113.258 23.8983 113.592 23.8983H115.871C116.054 23.8983 116.175 24.0203 116.175 24.2023V36.6328C116.175 36.8155 116.054 36.9361 115.871 36.9361H113.288C112.954 36.9361 112.68 37.209 112.68 37.5418V40.4226C112.68 40.7561 112.954 41.0291 113.288 41.0291H123.318C123.653 41.0291 123.926 40.7561 123.926 40.4226V37.5418ZM96.72 24.3546H8.94C8.73024 24.3546 8.56 24.5252 8.56 24.7337V66.4292C8.56 66.6384 8.73024 66.8082 8.94 66.8082H96.34C96.5498 66.8082 96.72 66.6384 96.72 66.4292V24.3546ZM83.249 51.9464C83.5834 51.9464 83.857 52.2194 83.857 52.5529V55.5846C83.857 55.9181 83.5834 56.1911 83.249 56.1911H72.0945C71.7601 56.1911 71.4865 55.9181 71.4865 55.5846V35.5745C71.4865 35.2402 71.7601 34.968 72.0945 34.968H83.1274C83.4618 34.968 83.7354 35.2402 83.7354 35.5745V38.6062C83.7354 38.9397 83.4618 39.2126 83.1274 39.2126H76.0457C75.8633 39.2126 75.741 39.3339 75.741 39.5159V43.154C75.741 43.336 75.8633 43.4572 76.0457 43.4572H82.8842C83.2186 43.4572 83.4922 43.7302 83.4922 44.0637V47.0954C83.4922 47.4297 83.2186 47.7018 82.8842 47.7018H76.0457C75.8633 47.7018 75.741 47.8231 75.741 48.0051V51.6432C75.741 51.8252 75.8633 51.9464 76.0457 51.9464H83.249ZM67.5026 34.968C67.8362 34.968 68.1098 35.2402 68.1098 35.5745V55.5846C68.1098 55.9181 67.8362 56.1911 67.5026 56.1911H63.9154C63.3986 56.1911 63.1858 55.9181 63.0953 55.6755L58.9609 45.0333C58.9001 44.8521 58.6873 44.912 58.6873 45.094V55.5846C58.6873 55.9181 58.4145 56.1911 58.0793 56.1911H55.0401C54.7064 56.1911 54.4321 55.9181 54.4321 55.5846V35.5745C54.4321 35.2402 54.7064 34.968 55.0401 34.968H58.6569C59.1137 34.968 59.3257 35.2402 59.4169 35.5139L63.581 47.0347C63.6425 47.2167 63.8546 47.156 63.8546 46.9741V35.5745C63.8546 35.2402 64.1282 34.968 64.4626 34.968H67.5026ZM50.357 34.968C50.6921 34.968 50.965 35.2402 50.965 35.5745V49.8245C50.965 53.493 47.9257 56.5246 43.7305 56.5246C39.5976 56.5246 36.5576 53.493 36.5576 49.8245V35.5745C36.5576 35.2402 36.8312 34.968 37.1664 34.968H40.236C40.5697 34.968 40.844 35.2402 40.844 35.5745V49.8245C40.844 51.158 41.9377 52.2497 43.7305 52.2497C45.5857 52.2497 46.6793 51.158 46.6793 49.8245V35.5745C46.6793 35.2402 46.9529 34.968 47.2873 34.968H50.357ZM33.6377 35.5745V38.6062C33.6377 38.9397 33.3641 39.2126 33.0297 39.2126H29.2305C29.0481 39.2126 28.9265 39.3339 28.9265 39.5159V55.5846C28.9265 55.9181 28.6521 56.1911 28.3185 56.1911H25.2792C24.9448 56.1911 24.6712 55.9181 24.6712 55.5846V39.5159C24.6712 39.3339 24.5496 39.2126 24.3672 39.2126H20.568C20.2328 39.2126 19.96 38.9397 19.96 38.6062V35.5745C19.96 35.2402 20.2328 34.968 20.568 34.968H33.0297C33.3641 34.968 33.6377 35.2402 33.6377 35.5745Z" fill="#14D8CC"/>
</svg>
