<svg width="160" height="56" viewBox="0 0 160 56" fill="none" xmlns="http://www.w3.org/2000/svg">
<path d="M61.8829 48.6819C61.8829 50.1473 61.0836 51.0798 59.6848 51.0798C58.286 51.0798 57.5533 50.1473 57.5533 48.6819V6.8519C57.5533 5.31991 58.3526 4.38739 59.7514 4.38739C61.1502 4.38739 61.8829 5.2533 61.8829 6.8519V16.3769H69.4096C70.7418 16.3769 71.5411 17.1096 71.5411 18.3085C71.5411 19.5075 70.7418 20.2402 69.4096 20.2402H61.8829V48.6819Z" fill="#005463"/>
<path d="M4 33.5618C4 22.9045 11.1271 15.4444 21.3182 15.4444C28.1788 15.4444 33.7739 18.908 36.0386 24.2366C36.305 24.7029 36.3716 25.2358 36.3716 25.7686C36.3716 26.901 35.4391 27.7669 34.3734 27.7669H34.2402C33.241 27.7669 32.3751 27.1008 32.1087 26.1683C30.3769 21.8387 26.3804 19.3742 21.3848 19.3742C13.7914 19.3742 8.39615 25.1692 8.39615 33.5618C8.39615 41.8878 13.6582 47.6828 21.3182 47.6828C26.3138 47.6828 30.1105 45.2849 32.1087 40.2226C32.3751 39.2901 33.241 38.624 34.1736 38.624C35.3725 38.624 36.305 39.5566 36.305 40.7555V40.8221C36.305 41.2884 36.2384 41.7546 36.0386 42.2209C33.9737 47.9492 28.4452 51.6127 21.3182 51.6127C11.0605 51.6127 4 44.2191 4 33.5618Z" fill="#005463"/>
<path d="M93.6545 20.773C94.7869 20.773 95.6528 19.8405 95.6528 18.7082C95.6528 17.9089 95.2531 17.1762 94.5204 16.7765C92.7886 15.844 90.857 15.3777 88.8587 15.4444C85.6615 15.3777 82.5975 16.7765 80.6659 19.3076V18.4417C80.6659 16.8431 79.9332 15.9772 78.5344 15.9772C77.1357 15.9772 76.3363 16.9097 76.3363 18.4417V48.6819C76.3363 50.2139 77.1357 51.0798 78.5344 51.0798C79.9332 51.0798 80.6659 50.2139 80.6659 48.6819V28.766C80.6659 23.6372 83.6633 19.5741 88.3258 19.5741C89.5914 19.5075 90.7904 19.7739 91.8561 20.3068C92.3223 20.5732 92.8552 20.773 93.4547 20.773H93.6545Z" fill="#005463"/>
<path d="M100.116 18.4418C100.116 16.9098 100.915 15.9773 102.314 15.9773C103.713 15.9773 104.445 16.8432 104.445 18.4418V48.6819C104.445 50.1473 103.646 51.0798 102.247 51.0798C100.848 51.0798 100.116 50.1473 100.116 48.6819V18.4418Z" fill="#005463"/>
<path d="M46.2964 15.9773C44.8976 15.9773 44.0983 16.9098 44.0983 18.4418V48.6819C44.0983 50.1473 44.831 51.0798 46.2298 51.0798C47.6286 51.0798 48.4279 50.1473 48.4279 48.6819V18.4418C48.4279 16.8432 47.6952 15.9773 46.2964 15.9773Z" fill="#005463"/>
<path d="M46.2961 11.3147C48.2091 11.3147 49.7598 9.76393 49.7598 7.85102C49.7598 5.93811 48.2091 4.38739 46.2961 4.38739C44.3832 4.38739 42.8325 5.93811 42.8325 7.85102C42.8325 9.76393 44.3832 11.3147 46.2961 11.3147Z" fill="#005463"/>
<path d="M115.369 50.2139L127.292 36.2261L139.281 50.2139C139.681 50.7467 140.347 51.0798 141.013 51.0798C142.146 51.1464 143.078 50.2139 143.078 49.0815C143.078 48.5487 142.878 47.9492 142.479 47.5495L130.023 33.4286L142.012 19.6407C142.479 19.241 142.745 18.6415 142.745 18.0421V17.9755C142.745 16.8431 141.746 15.9772 140.614 16.0438C139.948 16.0438 139.348 16.3769 138.948 16.9097L127.359 30.5644L115.769 16.9097C115.369 16.3769 114.77 16.0438 114.104 16.0438H114.037C112.838 15.9772 111.905 16.9097 111.905 18.0421C111.905 18.6415 112.172 19.241 112.638 19.6407L124.628 33.4286L112.172 47.5495C111.772 47.9492 111.572 48.4821 111.572 49.0815C111.572 50.2139 112.505 51.0798 113.637 51.0798C114.303 51.0798 114.969 50.7467 115.369 50.2139Z" fill="#005463"/>
<path d="M151.471 47.4164H150.205V50.7468H149.672V47.4164H148.407V47.0167H151.471V47.4164Z" fill="#005463"/>
<path d="M156 47.0167V50.7468H155.534V48.3489L155.6 47.6162L155.534 47.8826L154.335 50.6802H153.935L152.736 47.8826L152.603 47.6162L152.67 48.3489V50.7468H152.203V47.0167H152.803L153.935 49.681L154.135 50.1473L154.268 49.681L155.401 47.0167H156Z" fill="#005463"/>
<path d="M130.756 7.85102C130.756 9.76393 129.205 11.3147 127.292 11.3147C125.379 11.3147 123.829 9.76393 123.829 7.85102C123.829 5.93811 125.379 4.38739 127.292 4.38739C129.205 4.38739 130.756 5.93811 130.756 7.85102Z" fill="#005463"/>
</svg>
