<svg width="288" height="48" viewBox="0 0 288 48" fill="none" xmlns="http://www.w3.org/2000/svg">
<path d="M15.1005 25.2594L30.804 9.57258C31.8649 8.51733 33.3004 7.92497 34.7967 7.92497C36.2931 7.92497 37.7286 8.51733 38.7895 9.57258L40.0099 10.793L42.4563 8.34661L41.2359 7.12065C39.5246 5.41306 37.2059 4.45406 34.7884 4.45406C32.3709 4.45406 30.0522 5.41306 28.3409 7.12065L12.6485 22.813L15.1005 25.2594Z" fill="black"/>
<path d="M36.0645 14.7384L33.6181 12.292L17.909 28.0011C16.8479 29.0615 15.4089 29.657 13.9087 29.6565C12.4085 29.6559 10.97 29.0595 9.90959 27.9983C8.84917 26.9372 8.25372 25.4982 8.25425 23.998C8.25477 22.4978 8.85122 21.0593 9.91238 19.9989L23.4649 6.44636L21.0185 4L7.46601 17.5525C6.60326 18.3953 5.91629 19.4008 5.44491 20.511C4.97352 21.6211 4.72709 22.8137 4.71989 24.0197C4.71269 25.2258 4.94485 26.4213 5.40294 27.5369C5.86103 28.6526 6.53594 29.6663 7.38857 30.5193C8.2412 31.3723 9.2546 32.0477 10.3701 32.5062C11.4856 32.9648 12.6809 33.1975 13.887 33.1908C15.093 33.1841 16.2858 32.9382 17.3961 32.4673C18.5064 31.9964 19.5123 31.3099 20.3554 30.4475L36.0645 14.7384ZM51.7012 17.5525C49.9892 15.8463 47.6707 14.8882 45.2537 14.8882C42.8367 14.8882 40.5182 15.8463 38.8062 17.5525L23.0971 33.2616L25.5435 35.708L41.2526 19.9989C42.0439 19.2091 43.0515 18.6716 44.1482 18.4542C45.2449 18.2368 46.3814 18.3492 47.4141 18.7774C48.4469 19.2055 49.3297 19.9301 49.9509 20.8597C50.572 21.7892 50.9038 22.882 50.9043 24C50.9072 24.7448 50.7607 25.4826 50.4736 26.1698C50.1864 26.8571 49.7644 27.4798 49.2325 28.0011L35.6967 41.5536L38.1487 44L51.7012 30.4475C53.4088 28.7362 54.3678 26.4175 54.3678 24C54.3678 21.5825 53.4088 19.2638 51.7012 17.5525Z" fill="black"/>
<path d="M44.0667 22.7406L28.3576 38.4441C27.2953 39.5031 25.8565 40.0978 24.3565 40.0978C22.8565 40.0978 21.4177 39.5031 20.3554 38.4441L19.135 37.2182L16.6886 39.6645L17.909 40.8905C19.621 42.5967 21.9395 43.5548 24.3565 43.5548C26.7735 43.5548 29.092 42.5967 30.804 40.8905L46.5131 25.1758L44.0667 22.7406Z" fill="black"/>
<path d="M68.7143 28.224C68.875 29.1558 69.3827 29.9921 70.1353 30.5645C70.9986 31.1617 72.0347 31.4575 73.0832 31.406C74.0812 31.4696 75.0691 31.1752 75.8695 30.5756C76.1885 30.3102 76.4427 29.9755 76.6126 29.5969C76.7826 29.2183 76.8639 28.806 76.8502 28.3912C76.8615 28.0032 76.7712 27.619 76.5883 27.2767C76.4052 26.966 76.1536 26.7011 75.8527 26.5021C75.4939 26.2638 75.1038 26.0763 74.6936 25.9448L73.1445 25.4767L71.6677 25.0755C70.8491 24.8586 70.0524 24.5657 69.2882 24.2006C68.6322 23.8904 68.0256 23.4848 67.4883 22.9969C67.0091 22.552 66.6293 22.0107 66.3738 21.4087C66.1012 20.7465 65.9684 20.035 65.9837 19.319C65.9758 18.5257 66.1472 17.7409 66.4852 17.0231C66.8111 16.3246 67.2935 15.7106 67.8951 15.2288C68.5569 14.6991 69.3133 14.3001 70.1241 14.0529C71.0716 13.7527 72.0615 13.6078 73.0553 13.6238C75.1023 13.6238 76.7239 14.1068 77.9202 15.0727C78.5131 15.5502 79.0047 16.1411 79.3664 16.8109C79.7281 17.4807 79.9526 18.2159 80.0266 18.9735L76.6831 19.2466C76.5176 18.4794 76.0876 17.7949 75.4682 17.3129C74.7174 16.811 73.8231 16.5683 72.9216 16.6219C72.0709 16.5719 71.2294 16.8202 70.5421 17.324C70.2676 17.538 70.047 17.8132 69.898 18.1277C69.7489 18.4422 69.6756 18.7872 69.6839 19.1351C69.6702 19.506 69.7568 19.8737 69.9347 20.1995C70.1139 20.5002 70.3599 20.7557 70.6535 20.9462C71.0115 21.1791 71.3971 21.3663 71.8015 21.5035C72.2529 21.6707 72.7655 21.849 73.3339 22.0329L74.7494 22.4731C75.6298 22.7517 76.4267 23.0415 77.14 23.3424C77.796 23.6214 78.4064 23.9971 78.9511 24.457C79.442 24.8725 79.8341 25.3922 80.0991 25.9783C80.3858 26.6699 80.5225 27.4144 80.5003 28.1627C80.5096 29.0375 80.319 29.9028 79.943 30.6927C79.5804 31.4514 79.0508 32.1182 78.3939 32.6431C77.6879 33.2013 76.885 33.6244 76.0255 33.8913C75.0462 34.1959 74.0251 34.3445 72.9996 34.3316C71.186 34.3991 69.3968 33.8963 67.884 32.8938C67.1777 32.3827 66.5863 31.7295 66.1477 30.9761C65.7091 30.2227 65.433 29.3859 65.3373 28.5194L68.7143 28.224ZM94.5989 13.6796C96.0007 13.6614 97.3923 13.9189 98.6948 14.4374C99.8843 14.9139 100.958 15.6398 101.843 16.5662C102.732 17.5108 103.42 18.6254 103.866 19.8429C104.356 21.1811 104.6 22.5972 104.585 24.0223C104.605 25.4736 104.346 26.9152 103.822 28.2686C103.333 29.4987 102.595 30.6143 101.654 31.5453L104.306 34.6492V35.6133H100.963L99.1071 33.3452C98.4349 33.6669 97.7307 33.9172 97.0063 34.0919C96.2243 34.2591 95.4265 34.3414 94.6268 34.3371C93.209 34.3457 91.8036 34.0729 90.4919 33.5347C89.3091 33.0552 88.243 32.3274 87.3657 31.4004C86.4881 30.4601 85.8112 29.3509 85.3763 28.1404C84.8957 26.8154 84.656 25.415 84.6686 24.0056C84.6546 22.5869 84.8943 21.1772 85.3763 19.8429C85.814 18.6283 86.4968 17.5167 87.3824 16.5773C88.2655 15.6507 89.3347 14.9214 90.5198 14.4374C91.8146 13.9128 93.202 13.655 94.5989 13.6796ZM94.5711 16.6665C93.651 16.6523 92.7393 16.8426 91.9018 17.2237C91.1323 17.5792 90.4524 18.1029 89.9124 18.7562C89.3507 19.4412 88.9269 20.2284 88.6641 21.0744C88.3734 22.0163 88.2306 22.9976 88.2406 23.9833C88.2309 24.9775 88.3795 25.967 88.6808 26.9145C88.9508 27.7681 89.3779 28.5638 89.9402 29.2605C90.4794 29.9218 91.159 30.4547 91.9296 30.8208C92.7663 31.2047 93.6786 31.3951 94.5989 31.3781C95.5184 31.387 96.429 31.1969 97.2682 30.8208C98.0362 30.473 98.7161 29.9568 99.2576 29.3107C99.8265 28.6246 100.254 27.833 100.517 26.9813C100.822 26.0115 100.972 24.9998 100.963 23.9833C100.971 22.9814 100.821 21.9845 100.517 21.0298C100.251 20.1831 99.823 19.3959 99.2576 18.7116C98.7103 18.0654 98.0273 17.5478 97.257 17.1959C96.4111 16.8254 95.4943 16.6447 94.5711 16.6665ZM117.72 31.5174C118.339 31.5555 118.959 31.4576 119.537 31.2304C120.115 31.0032 120.636 30.6523 121.063 30.2023C121.854 29.3292 122.25 27.9881 122.25 26.1789V14.0641H125.722V26.2903C125.749 27.5429 125.561 28.7908 125.165 29.9794C124.844 30.9314 124.304 31.7944 123.587 32.4982C122.877 33.1712 122.015 33.6642 121.074 33.9359C118.886 34.541 116.575 34.541 114.387 33.9359C113.45 33.664 112.592 33.1709 111.885 32.4982C111.17 31.793 110.63 30.9304 110.308 29.9794C109.912 28.7908 109.724 27.5429 109.751 26.2903V14.0641H113.234V26.1789C113.234 27.9844 113.631 29.3255 114.426 30.2023C114.848 30.6462 115.36 30.9936 115.929 31.2206C116.497 31.4477 117.108 31.5489 117.72 31.5174ZM129.199 32.9774L136.248 14.0864H141.475L148.447 32.9774V33.9248H145.02L143.025 28.2519H134.426L132.409 33.9248H129.177L129.199 32.9774ZM135.474 25.2873H142.033L140.952 22.1332C140.528 20.9016 140.188 19.9042 139.926 19.1184C139.664 18.3327 139.441 17.664 139.235 17.0733H138.383L138.048 18.015C137.937 18.3271 137.814 18.6782 137.675 19.0627C137.536 19.4472 137.385 19.893 137.218 20.3945C137.051 20.8961 136.85 21.47 136.611 22.1332L135.474 25.2873ZM167.917 33.9248H164.574L158.516 26.1232H156.287V33.9248H152.855V14.0641H159.302C160.268 14.0624 161.233 14.1313 162.189 14.2703C163.077 14.3991 163.925 14.7267 164.669 15.2288C166.236 16.2615 167.02 17.8181 167.02 19.8986C167.036 20.7049 166.898 21.5067 166.613 22.2614C166.373 22.8967 166.011 23.4795 165.549 23.9777C165.108 24.4459 164.59 24.8343 164.017 25.1257C163.442 25.4194 162.834 25.6421 162.205 25.7888L167.917 32.9774V33.9248ZM156.276 23.1362H159.291C160.384 23.1944 161.471 22.9434 162.428 22.4118C162.814 22.1542 163.123 21.7984 163.325 21.381C163.527 20.9637 163.614 20.5 163.576 20.0379C163.622 19.5793 163.537 19.1171 163.331 18.7049C163.125 18.2927 162.806 17.9473 162.412 17.7086C161.444 17.2276 160.37 17.0013 159.291 17.051H156.276V23.1362ZM172.342 14.0641H185.204V17.1067H175.73V22.3059H184.524V25.2928H175.747V30.8654H185.399V33.9248H172.342V14.0641ZM193.089 28.224C193.249 29.1558 193.757 29.9921 194.51 30.5645C195.373 31.1609 196.409 31.4566 197.458 31.406C198.456 31.4696 199.444 31.1752 200.244 30.5756C200.563 30.3102 200.817 29.9755 200.987 29.5969C201.157 29.2183 201.238 28.806 201.225 28.3912C201.236 28.0032 201.146 27.619 200.963 27.2767C200.78 26.966 200.528 26.7011 200.227 26.5021C199.868 26.2638 199.478 26.0763 199.068 25.9448L197.519 25.4767L196.025 25.0644C195.207 24.8474 194.41 24.5545 193.646 24.1895C192.99 23.8792 192.383 23.4736 191.846 22.9858C191.367 22.5408 190.987 21.9996 190.732 21.3976C190.456 20.6962 190.324 19.9468 190.343 19.1935C190.362 18.4403 190.532 17.6985 190.843 17.012C191.171 16.3146 191.653 15.701 192.253 15.2176C192.915 14.6879 193.671 14.2889 194.482 14.0418C195.429 13.7416 196.419 13.5967 197.413 13.6127C199.46 13.6127 201.084 14.0957 202.284 15.0616C202.876 15.5393 203.366 16.1304 203.727 16.8002C204.088 17.47 204.311 18.2051 204.384 18.9624L201.041 19.2354C200.878 18.4699 200.452 17.7856 199.837 17.3018C199.087 16.7991 198.192 16.5564 197.29 16.6108C196.44 16.5607 195.598 16.8091 194.911 17.3129C194.638 17.5274 194.418 17.8029 194.27 18.1174C194.122 18.4318 194.049 18.7765 194.058 19.124C194.043 19.4944 194.128 19.8621 194.304 20.1884C194.483 20.489 194.729 20.7445 195.022 20.9351C195.38 21.1679 195.766 21.3551 196.17 21.4923C196.622 21.6595 197.134 21.8378 197.708 22.0217L199.118 22.462C200.002 22.7406 200.799 23.0304 201.509 23.3313C202.165 23.6103 202.775 23.986 203.32 24.4458C203.811 24.8614 204.203 25.3811 204.468 25.9671C204.755 26.6587 204.891 27.4032 204.869 28.1516C204.878 29.0263 204.688 29.8916 204.312 30.6815C203.951 31.4414 203.421 32.1085 202.763 32.6319C202.056 33.1856 201.253 33.6049 200.394 33.869C199.413 34.1736 198.39 34.3221 197.363 34.3093C195.549 34.3761 193.76 33.8733 192.247 32.8716C191.546 32.3618 190.958 31.7116 190.521 30.9623C190.085 30.213 189.809 29.3811 189.712 28.5194L193.089 28.224ZM209.818 14.0641H217.062C218.21 14.0344 219.354 14.1945 220.45 14.5378C221.283 14.7944 222.045 15.2386 222.679 15.8362C223.236 16.3782 223.653 17.0475 223.894 17.7866C224.149 18.567 224.276 19.3839 224.267 20.2051C224.29 21.1303 224.115 22.0498 223.755 22.9022C223.429 23.6475 222.921 24.299 222.278 24.7969C221.574 25.3179 220.775 25.6965 219.926 25.9114C218.905 26.1733 217.854 26.2989 216.8 26.2848H213.289V33.9248H209.829L209.818 14.0641ZM213.278 23.3034H216.594C217.155 23.3076 217.715 23.2572 218.266 23.153C218.735 23.0652 219.184 22.8934 219.592 22.6459C219.967 22.411 220.273 22.0801 220.478 21.6874C220.702 21.2263 220.811 20.7176 220.796 20.2051C220.812 19.6799 220.703 19.1584 220.478 18.6838C220.279 18.286 219.977 17.9491 219.603 17.7086C219.202 17.4593 218.758 17.2873 218.294 17.2014C217.743 17.0964 217.183 17.046 216.622 17.051H213.25L213.278 23.3034ZM225.226 32.9774L232.281 14.0864H237.508L244.474 32.9774V33.9248H241.074L239.085 28.2519H230.453L228.464 33.9248H225.226V32.9774ZM231.506 25.2873H238.059L236.978 22.1332C236.555 20.9016 236.215 19.9042 235.959 19.1184L235.268 17.0733H234.387L234.053 18.015C233.941 18.3271 233.819 18.6782 233.679 19.0627C233.54 19.4472 233.39 19.893 233.222 20.3945C233.055 20.8961 232.855 21.47 232.615 22.1332L231.506 25.2873ZM265.549 28.6698C265.234 29.4468 264.822 30.1808 264.323 30.8543C263.805 31.5447 263.183 32.1501 262.479 32.6486C261.715 33.185 260.87 33.5952 259.976 33.8635C258.95 34.1709 257.883 34.3212 256.811 34.3093C255.427 34.3303 254.054 34.0666 252.777 33.5347C251.607 33.0466 250.553 32.3174 249.684 31.3948C248.811 30.4511 248.138 29.3402 247.706 28.1293C247.233 26.8121 246.997 25.4217 247.009 24.0223C246.997 22.6229 247.232 21.2323 247.706 19.9153C248.139 18.6989 248.816 17.5839 249.695 16.6386C250.569 15.7062 251.628 14.966 252.805 14.4653C254.086 13.9264 255.466 13.6588 256.856 13.6796C258.79 13.6108 260.697 14.1422 262.317 15.2009C263.757 16.1817 264.847 17.5945 265.432 19.2354L261.916 19.9264C261.478 18.9613 260.784 18.1345 259.91 17.5358C258.985 16.9373 257.901 16.6341 256.8 16.6665C255.897 16.6467 255.003 16.8375 254.187 17.2237C253.435 17.5925 252.774 18.1235 252.253 18.7785C251.705 19.4762 251.296 20.2727 251.049 21.1245C250.765 22.062 250.624 23.0371 250.631 24.0167C250.623 25.0027 250.768 25.984 251.06 26.9256C251.322 27.769 251.744 28.5542 252.303 29.2382C252.848 29.8806 253.527 30.396 254.292 30.7484C255.126 31.1306 256.034 31.321 256.951 31.3057C258.089 31.3514 259.212 31.0204 260.144 30.3639C260.965 29.7623 261.633 28.9757 262.094 28.068L265.549 28.6698ZM270.224 14.0641H283.086V17.1067H273.613V22.3059H282.423V25.2928H273.629V30.8654H283.281V33.9248H270.224V14.0641Z" fill="black"/>
</svg>
