<svg width="176" height="48" viewBox="0 0 176 48" fill="none" xmlns="http://www.w3.org/2000/svg">
<path d="M54.4574 38.0605V40.1616H55.5236V38.0605H56.5434V43.3064H55.5236V41.1112H54.4566V43.3056H53.4375V38.0605H54.4574Z" fill="#CE0024"/>
<path d="M75.8187 38.0605H78.1005V38.9444H76.8393V40.2893H78.0221V41.1411H76.8393V43.3079H75.8194L75.8187 38.0605Z" fill="#CE0024"/>
<path d="M60.2407 41.0023H59.0497V42.4219H60.3946V43.3103H58.0283V38.0608H60.3101V38.9447H59.0482V40.1551H60.2392L60.2407 41.0023Z" fill="#262A32"/>
<path d="M62.5128 42.1081L62.2789 43.3036H61.2897L62.4254 38.0578H63.65L64.6683 43.3036H63.6821L63.4527 42.1081H62.5128ZM63.3608 41.3154L63.1897 40.2163C63.1344 39.8995 63.0649 39.3683 63.0186 39.0261H62.9954C62.9409 39.378 62.8632 39.9145 62.8087 40.2163L62.6129 41.3154H63.3608Z" fill="#262A32"/>
<path d="M65.8287 38.137C66.1954 38.0699 66.5676 38.0369 66.9404 38.0384C67.4391 37.9925 67.9373 38.1304 68.3414 38.4261C68.489 38.5641 68.6034 38.7338 68.6761 38.9223C68.7489 39.1108 68.778 39.3134 68.7613 39.5148C68.7698 39.7881 68.6977 40.0579 68.5537 40.2905C68.4098 40.523 68.2006 40.708 67.9521 40.8223V40.8387C68.3107 40.9882 68.4908 41.3147 68.5909 41.8803C68.661 42.3643 68.773 42.8412 68.9257 43.3058H67.8595C67.7286 42.896 67.6397 42.4739 67.5942 42.0461C67.5001 41.3983 67.3372 41.2115 67.0017 41.2115H66.8471V43.3036H65.8279L65.8287 38.137ZM66.8478 40.4255H67.0338C67.4821 40.4255 67.7265 40.0684 67.7265 39.6104C67.7265 39.1524 67.5479 38.8468 67.0959 38.8304C67.0121 38.8267 66.9282 38.8371 66.8478 38.861V40.4255Z" fill="#262A32"/>
<path d="M70.6157 39.0007H69.69V38.0608H72.5696V39.0007H71.6363V43.3058H70.6157V39.0007Z" fill="#262A32"/>
<path d="M80.0158 42.1081L79.7804 43.3036H78.7927L79.9283 38.0578H81.1499L82.1706 43.3036H81.1821L80.9579 42.1081H80.0158ZM80.863 41.3154L80.6912 40.2163C80.6374 39.8995 80.5672 39.3683 80.5201 39.0261H80.4977C80.4439 39.378 80.3647 39.9145 80.3124 40.2163L80.1151 41.3154H80.863Z" fill="#262A32"/>
<path d="M84.3493 38.0608V43.3066H83.3272V38.0608H84.3493Z" fill="#262A32"/>
<path d="M85.8414 38.0608H86.8605V42.4421H88.2016V43.3058H85.8414V38.0608Z" fill="#262A32"/>
<path d="M90.2175 38.0608V41.4701C90.2175 42.2389 90.4416 42.4743 90.7143 42.4743C91.0132 42.4743 91.2202 42.2621 91.2202 41.4701V38.0608H92.24V41.2907C92.24 42.6356 91.7268 43.3708 90.7226 43.3708C89.625 43.3708 89.1976 42.6125 89.1976 41.2982V38.0608H90.2175Z" fill="#262A32"/>
<path d="M93.7045 38.137C94.0715 38.07 94.4439 38.037 94.817 38.0384C95.3161 37.9927 95.8147 38.1306 96.2194 38.4261C96.3665 38.5645 96.4806 38.7342 96.5532 38.9226C96.6257 39.1111 96.6549 39.3135 96.6386 39.5147C96.6475 39.7882 96.5754 40.0581 96.4314 40.2907C96.2875 40.5233 96.078 40.7082 95.8294 40.8223V40.8387C96.1865 40.9882 96.3681 41.3147 96.469 41.8803C96.5384 42.3643 96.6502 42.8413 96.803 43.3058H95.7368C95.6052 42.8962 95.5163 42.4741 95.4715 42.0461C95.3774 41.3983 95.2145 41.2115 94.879 41.2115H94.7244V43.3036H93.7045V38.137ZM94.7244 40.4255H94.9097C95.0107 40.423 95.1101 40.3992 95.2013 40.3557C95.2925 40.3122 95.3736 40.2499 95.4392 40.173C95.5048 40.0962 95.5535 40.0063 95.5821 39.9094C95.6107 39.8125 95.6186 39.7106 95.6053 39.6104C95.6053 39.1569 95.4259 38.8468 94.9739 38.8304C94.8899 38.8267 94.8058 38.8371 94.7251 38.861L94.7244 40.4255Z" fill="#262A32"/>
<path d="M100.155 41.0023H98.9645V42.4219H100.309V43.3103H97.9431V38.0608H100.225V38.9447H98.9637V40.1551H100.154L100.155 41.0023Z" fill="#262A32"/>
<path d="M103.609 42.2636C103.878 42.3951 104.174 42.4648 104.473 42.4675C104.949 42.4675 105.188 42.2187 105.188 41.8765C105.188 41.494 104.956 41.3072 104.516 41.0195C104.237 40.8837 103.999 40.6771 103.826 40.4203C103.652 40.1636 103.549 39.8657 103.527 39.5566C103.52 39.3428 103.559 39.13 103.641 38.9325C103.723 38.7349 103.846 38.5571 104.002 38.411C104.159 38.2649 104.344 38.1538 104.547 38.0852C104.749 38.0165 104.964 37.9919 105.177 38.013C105.463 38.0067 105.745 38.0717 105.999 38.202L105.837 39.0821C105.637 38.9615 105.408 38.8994 105.175 38.9028C104.74 38.9028 104.527 39.1658 104.527 39.4475C104.527 39.7591 104.684 39.9249 105.245 40.2694C105.525 40.4072 105.762 40.6198 105.929 40.8836C106.096 41.1474 106.186 41.4523 106.191 41.7645C106.194 41.9859 106.15 42.2054 106.062 42.4088C105.975 42.6121 105.845 42.7947 105.682 42.9446C105.519 43.0945 105.326 43.2085 105.116 43.2789C104.906 43.3494 104.684 43.3749 104.464 43.3537C104.117 43.3594 103.775 43.2872 103.46 43.1422L103.609 42.2636Z" fill="#262A32"/>
<path d="M110.472 40.5899C110.472 42.5684 109.774 43.3701 108.777 43.3701C107.586 43.3701 107.12 42.1074 107.12 40.6661C107.12 39.2249 107.687 37.9965 108.855 37.9965C110.115 37.9965 110.472 39.39 110.472 40.5899ZM108.177 40.6833C108.177 41.875 108.401 42.481 108.817 42.481C109.251 42.481 109.414 41.7024 109.414 40.637C109.414 39.718 109.276 38.8849 108.808 38.8849C108.403 38.8849 108.177 39.5551 108.177 40.6833Z" fill="#262A32"/>
<path d="M114.217 43.2289C113.965 43.3203 113.699 43.3624 113.431 43.3529C112.086 43.3529 111.447 42.2561 111.447 40.761C111.447 38.784 112.544 38.0115 113.563 38.0115C113.807 37.9956 114.052 38.044 114.272 38.1519L114.098 39.0089C113.95 38.9381 113.788 38.9038 113.624 38.9088C113.047 38.9088 112.528 39.4064 112.528 40.7057C112.528 41.9587 113.001 42.4496 113.624 42.4496C113.79 42.448 113.956 42.4229 114.115 42.3749L114.217 43.2289Z" fill="#262A32"/>
<path d="M116.379 38.0608V43.3066H115.359V38.0608H116.379Z" fill="#262A32"/>
<path d="M120.085 41.0023H118.894V42.4219H120.239V43.3103H117.874V38.0608H120.155V38.9447H118.894V40.1551H120.085V41.0023Z" fill="#262A32"/>
<path d="M122.091 39.0007H121.165V38.0608H124.046V39.0007H123.112V43.3058H122.091V39.0007Z" fill="#262A32"/>
<path d="M126.015 43.3066V41.2975L124.861 38.0608H125.951L126.3 39.313C126.402 39.6485 126.503 40.0378 126.582 40.4255H126.597C126.659 40.0445 126.747 39.6634 126.84 39.2899L127.15 38.0608H128.208L127.035 41.2586V43.3066H126.015Z" fill="#262A32"/>
<path d="M134.372 40.5899C134.372 42.5684 133.672 43.3701 132.675 43.3701C131.484 43.3701 131.017 42.1074 131.017 40.6661C131.017 39.2249 131.586 37.9965 132.755 37.9965C134.014 37.9965 134.372 39.39 134.372 40.5899ZM132.075 40.6833C132.075 41.875 132.299 42.481 132.714 42.481C133.149 42.481 133.312 41.7024 133.312 40.637C133.312 39.718 133.171 38.8849 132.703 38.8849C132.301 38.8849 132.076 39.5551 132.076 40.6833H132.075Z" fill="#262A32"/>
<path d="M135.601 38.0608H137.882V38.9447H136.621V40.2896H137.804V41.1413H136.621V43.3081H135.601L135.601 38.0608Z" fill="#262A32"/>
<path d="M142.199 42.1081L141.967 43.3036H140.977L142.114 38.0578H143.336L144.355 43.3036H143.367L143.143 42.1081H142.199ZM143.048 41.3154L142.877 40.2163C142.822 39.8995 142.753 39.3683 142.706 39.0261H142.683C142.629 39.378 142.551 39.9145 142.496 40.2163L142.302 41.3154H143.048Z" fill="#262A32"/>
<path d="M148.722 41.4701C148.691 40.971 148.66 40.2933 148.666 39.7344H148.654C148.558 40.2933 148.418 40.9403 148.317 41.3445L147.858 43.2222H147.143L146.707 41.3782C146.605 40.9568 146.465 40.3015 146.379 39.7344H146.366C146.348 40.3015 146.309 40.965 146.285 41.4835L146.191 43.3066H145.32L145.693 38.0608H146.776L147.197 39.9601C147.337 40.6213 147.469 41.2041 147.564 41.7966H147.587C147.661 41.2123 147.782 40.6213 147.913 39.9601L148.334 38.0608H149.411L149.729 43.3066H148.814L148.722 41.4701Z" fill="#262A32"/>
<path d="M153.266 41.0023H152.074V42.4219H153.419V43.3103H151.053V38.0608H153.334V38.9447H152.07V40.1551H153.262L153.266 41.0023Z" fill="#262A32"/>
<path d="M154.705 38.137C155.073 38.07 155.446 38.037 155.82 38.0384C156.319 37.9925 156.817 38.1304 157.221 38.4261C157.369 38.5641 157.483 38.7338 157.556 38.9223C157.629 39.1108 157.658 39.3134 157.641 39.5148C157.65 39.788 157.577 40.0577 157.433 40.2902C157.289 40.5227 157.08 40.7078 156.832 40.8223V40.8387C157.191 40.9882 157.369 41.3147 157.471 41.8803C157.54 42.3644 157.651 42.8415 157.805 43.3058H156.737C156.609 42.8954 156.521 42.4735 156.473 42.0461C156.38 41.3983 156.217 41.2115 155.881 41.2115H155.727V43.3036H154.706L154.705 38.137ZM155.726 40.4255H155.913C156.356 40.4255 156.604 40.0684 156.604 39.6104C156.604 39.1524 156.426 38.8468 155.974 38.8304C155.89 38.8266 155.807 38.8369 155.726 38.861V40.4255Z" fill="#262A32"/>
<path d="M159.966 38.0608V43.3066H158.947V38.0608H159.966Z" fill="#262A32"/>
<path d="M163.976 43.2289C163.724 43.3205 163.457 43.3626 163.189 43.3529C161.844 43.3529 161.204 42.2561 161.204 40.761C161.204 38.784 162.301 38.0115 163.32 38.0115C163.565 37.9954 163.809 38.0439 164.029 38.1519L163.858 39.0089C163.709 38.9383 163.546 38.904 163.382 38.9088C162.808 38.9088 162.286 39.4064 162.286 40.7057C162.286 41.9587 162.76 42.4496 163.382 42.4496C163.549 42.4482 163.715 42.423 163.875 42.3749L163.976 43.2289Z" fill="#262A32"/>
<path d="M166.08 42.1081L165.847 43.3036H164.854L165.991 38.0578H167.212L168.231 43.3036H167.245L167.017 42.1081H166.08ZM166.926 41.3154L166.752 40.2148C166.696 39.898 166.627 39.3668 166.58 39.0246H166.557C166.501 39.3765 166.424 39.913 166.371 40.2148L166.176 41.3139L166.926 41.3154Z" fill="#262A32"/>
<path d="M57.2853 7.86475V16.6289H66.5344V7.86475H70.5273V29.7438H66.5344V20.1055H57.2853V29.7438H53.291V7.86475H57.2853Z" fill="#CE0024"/>
<path d="M74.4573 7.86475H87.1157V11.1418H78.4486V17.1818H86.5015V20.4282H78.4494V29.7438H74.4573V7.86475Z" fill="#CE0024"/>
<path d="M89.1216 25.6039C90.7907 26.537 92.6689 27.0321 94.5811 27.0429C97.1962 27.0429 98.6666 25.8056 98.6666 23.9624C98.6666 22.2536 97.5302 21.2494 94.682 20.2116C90.9312 18.8705 88.5553 16.8942 88.5553 13.6486C88.5553 9.92993 91.6373 7.14826 96.5603 7.14826C98.4228 7.09561 100.271 7.48586 101.953 8.28693L100.982 11.6013C99.5816 10.8887 98.0308 10.5219 96.4595 10.5314C93.8444 10.5314 92.7431 11.9062 92.7431 13.2458C92.7431 14.9852 94.0499 15.7907 97.0639 16.963C100.981 18.4371 102.858 20.4118 102.858 23.6605C102.858 27.3119 100.111 30.4597 94.3181 30.4597C92.1886 30.4876 90.0849 29.9925 88.1914 29.0176L89.1216 25.6039Z" fill="#002650"/>
<path d="M110.424 23.6934L108.481 30.0913H104.226L111.462 7.52034H116.722L124.055 30.0943H119.602L117.559 23.6964L110.424 23.6934ZM116.889 20.5785L115.113 15.0196C114.679 13.6478 114.309 12.1057 113.976 10.7996H113.907C113.573 12.1072 113.205 13.6799 112.836 15.0196L111.094 20.5785H116.889Z" fill="#002650"/>
<path d="M15.3609 33.4058H6.86719V34.7768H16.7588C16.6654 34.6879 16.5676 34.5967 16.4757 34.5078C16.0901 34.135 15.721 33.7689 15.3609 33.4058Z" fill="#CE0024"/>
<path d="M169.133 33.4058H42.2131C41.8537 33.7689 41.4846 34.135 41.0983 34.5086C41.0072 34.5967 40.9093 34.6879 40.8152 34.7768H169.133V33.4058Z" fill="#CE0024"/>
<path d="M46.2426 21.3701C45.8195 23.0437 45.0512 24.6104 43.9869 25.9696C42.3867 28.1271 40.5969 30.1373 38.6388 31.9761C38.1389 32.4595 37.6271 32.9377 37.1123 33.4084H37.7848C38.1785 33.0437 38.5693 32.6761 38.9541 32.3048C43.5663 27.8458 46.1694 24.1944 46.6894 21.456L46.2411 21.3709L46.2426 21.3701Z" fill="white"/>
<path d="M24.5293 7.83367C24.0243 7.73697 23.5133 7.67407 22.9999 7.64539C21.2328 7.54691 19.4665 7.85176 17.8347 8.53686C16.2029 9.22195 14.7483 10.2693 13.5812 11.5997C12.414 12.9301 11.5648 14.5086 11.0979 16.2157C10.631 17.9227 10.5586 19.7137 10.8862 21.4529C11.404 24.192 14.0063 27.8434 18.6223 32.3017C19.0056 32.6753 19.3963 33.0406 19.7908 33.4052H20.4633C19.9485 32.9338 19.4374 32.4556 18.9383 31.9729C16.9791 30.1346 15.1884 28.1244 13.5879 25.9665C12.5238 24.6074 11.756 23.0406 11.3337 21.367C10.9215 19.2014 11.158 16.9624 12.0136 14.9308C12.8692 12.8992 14.3058 11.1655 16.143 9.94733C17.9803 8.72914 20.1364 8.0807 22.3408 8.08337C24.5453 8.08604 26.6998 8.7397 28.5341 9.96233L28.7881 10.1312L29.0422 9.96233C30.8715 8.73761 33.0234 8.08385 35.2249 8.08397C36.8737 8.08109 38.5028 8.44245 39.9957 9.14222C41.4886 9.84199 42.8085 10.8629 43.8611 12.132C44.9137 13.4011 45.673 14.887 46.0846 16.4836C46.4963 18.0801 46.5502 19.7479 46.2425 21.3677L46.6908 21.4529C47.121 19.1987 46.8755 16.8676 45.9853 14.7524C45.0951 12.6372 43.5998 10.8321 41.6872 9.56391C39.7745 8.29569 37.5298 7.62081 35.2349 7.62403C32.94 7.62726 30.6972 8.30843 28.7881 9.58203C27.4996 8.72054 26.0515 8.12605 24.5293 7.83367Z" fill="white"/>
<path d="M35.5762 34.7768H36.2703C36.7779 34.3285 37.2834 33.8715 37.787 33.4058H37.1146C36.599 33.872 36.0887 34.33 35.5762 34.7768Z" fill="white"/>
<path d="M20.4674 33.4058H19.7949C20.296 33.8705 20.8008 34.3275 21.3094 34.7768H22.0013C21.4857 34.33 20.9732 33.8712 20.4674 33.4058Z" fill="white"/>
<path d="M8.28872 21.9077C7.90346 19.8635 7.96764 17.7599 8.47679 15.743C8.98594 13.726 9.92788 11.844 11.2372 10.2275C12.5466 8.61108 14.192 7.2989 16.0593 6.38205C17.9266 5.4652 19.971 4.96565 22.0507 4.91806C22.3436 4.91108 22.6359 4.91333 22.9278 4.92478C24.9669 5.00204 26.9655 5.51729 28.7878 6.43554C31.1754 5.23941 33.8497 4.73429 36.509 4.97718C39.1683 5.22007 41.7069 6.2013 43.8382 7.81017C45.9696 9.41903 47.6089 11.5915 48.5713 14.0825C49.5336 16.5735 49.7807 19.2838 49.2847 21.9077C48.6869 25.0697 46.1556 28.8391 41.5672 33.4058H42.212C43.9953 31.6517 45.6237 29.7468 47.079 27.7124C48.3501 26.0102 49.2538 24.0626 49.733 21.9929C50.0954 20.0856 50.0784 18.1255 49.6829 16.2248C49.2873 14.324 48.521 12.5199 47.4278 10.9155C46.3345 9.31112 44.9357 7.93795 43.3114 6.87451C41.6871 5.81106 39.8692 5.0782 37.9614 4.71782C37.0476 4.54449 36.1196 4.45719 35.1895 4.45706C32.9717 4.45804 30.7829 4.9618 28.7878 5.93046C26.7929 4.96191 24.6045 4.45815 22.3869 4.45706C20.2101 4.45283 18.0592 4.92954 16.0881 5.85312C14.1169 6.7767 12.3741 8.12434 10.9843 9.7997C9.59447 11.4751 8.59192 13.4368 8.04831 15.5446C7.5047 17.6524 7.43346 19.8543 7.83968 21.9929C8.31904 24.0626 9.22301 26.0103 10.4943 27.7124C11.9507 29.7467 13.5798 31.6516 15.3636 33.4058H16.0084C11.4193 28.8399 8.88869 25.0697 8.28872 21.9077Z" fill="white"/>
<path d="M42.2135 33.4058H41.5687C41.3117 33.662 41.0509 33.9191 40.782 34.1798C40.578 34.3763 40.3665 34.5766 40.1514 34.7775H40.8156C40.9097 34.6886 41.0076 34.5975 41.0988 34.5093C41.4851 34.135 41.8541 33.7689 42.2135 33.4058Z" fill="white"/>
<path d="M16.7939 34.1798C16.5234 33.9191 16.2634 33.662 16.0071 33.4058H15.3623C15.7217 33.7689 16.0908 34.135 16.4763 34.5086C16.5682 34.5975 16.6661 34.6879 16.7595 34.7775H17.4245C17.2093 34.5766 16.9971 34.3763 16.7939 34.1798Z" fill="white"/>
<path d="M28.7881 9.5826C30.0766 8.72085 31.5247 8.1261 33.0469 7.8335C31.5248 8.12605 30.0767 8.72052 28.7881 9.58185C27.4995 8.72052 26.0514 8.12605 24.5293 7.8335C26.0515 8.1261 27.4996 8.72085 28.7881 9.5826Z" fill="white"/>
<path d="M19.6982 5.16726C20.4741 5.02015 21.2608 4.93694 22.0503 4.91846C21.2608 4.93694 20.4741 5.02015 19.6982 5.16726Z" fill="white"/>
<path d="M46.2422 21.3701L46.6905 21.4553L46.2422 21.3701Z" fill="white"/>
<path d="M12.6318 21.1223C12.245 19.1082 12.4965 17.0235 13.3514 15.1592C14.2062 13.295 15.6218 11.744 17.4004 10.7229C19.1791 9.7018 21.2321 9.2614 23.2731 9.46318C25.3141 9.66497 27.2412 10.4989 28.7855 11.8485V11.8373C30.3314 10.4893 32.2595 9.65721 34.3008 9.45703C36.3422 9.25685 38.3951 9.69855 40.1735 10.7206C41.9519 11.7426 43.3671 13.294 44.2219 15.1585C45.0767 17.0231 45.3284 19.1078 44.942 21.1223C44.3256 24.3724 39.7582 29.2999 35.1318 33.4063H35.82C36.8847 32.45 37.9412 31.454 38.9431 30.4461C40.4788 28.9332 41.8987 27.307 43.1907 25.5813C44.2224 24.2932 44.973 22.8032 45.3941 21.2074C45.6474 19.8742 45.6354 18.5042 45.3589 17.1756C45.0823 15.847 44.5466 14.586 43.7823 13.4646C43.018 12.3432 42.0401 11.3835 40.9047 10.6403C39.7692 9.8971 38.4984 9.38502 37.1649 9.13333C36.5473 9.01671 35.9202 8.95817 35.2917 8.9585C32.9237 8.97037 30.6293 9.78299 28.7817 11.2642C26.9348 9.785 24.6424 8.97279 22.2762 8.95924C21.6512 8.95887 21.0276 9.01716 20.4135 9.13333C19.0799 9.38484 17.8089 9.8968 16.6733 10.6399C15.5377 11.3831 14.5598 12.3428 13.7954 13.4642C13.031 14.5856 12.4952 15.8467 12.2186 17.1754C11.9421 18.504 11.9301 19.8742 12.1836 21.2074C12.6046 22.8032 13.3551 24.2932 14.3869 25.5813C16.5791 28.4269 19.0481 31.0481 21.7577 33.4063H22.4428C17.8179 29.2999 13.249 24.3717 12.6318 21.1223Z" fill="white"/>
<path d="M33.5508 34.7768H34.2546C34.7741 34.3315 35.2954 33.8745 35.8184 33.4058H35.1303C34.6043 33.875 34.0738 34.3337 33.5508 34.7768Z" fill="white"/>
<path d="M22.4445 33.4058H21.7578C22.2788 33.874 22.7996 34.331 23.3201 34.7768H24.0232C23.5009 34.3337 22.9727 33.875 22.4445 33.4058Z" fill="white"/>
<path d="M28.7875 15.3544L28.7822 15.3604L28.7875 15.3664V15.3544Z" fill="#07294F"/>
<path d="M32.3966 12.5947C30.9933 13.2203 29.7568 14.1673 28.7871 15.3592V15.3712C29.7564 14.176 30.9928 13.225 32.3966 12.5947Z" fill="#07294F"/>
<path d="M24.5293 7.37615C24.0243 7.27945 23.5133 7.21655 22.9999 7.18787C21.2328 7.08939 19.4665 7.39424 17.8347 8.07934C16.2029 8.76443 14.7483 9.81181 13.5812 11.1422C12.414 12.4726 11.5648 14.051 11.0979 15.7581C10.631 17.4652 10.5586 19.2562 10.8862 20.9954C11.404 23.7345 14.0063 27.3859 18.6223 31.8442C21.7929 34.8994 25.1914 37.7091 28.7881 40.249V40.2303C32.3871 37.6989 35.7867 34.8953 38.957 31.8442C43.5692 27.3851 46.1723 23.7337 46.6923 20.9954L46.244 20.9102C45.8209 22.5838 45.0526 24.1505 43.9884 25.5097C42.3881 27.6672 40.5983 29.6774 38.6402 31.5162C35.5778 34.46 32.3031 37.1748 28.8427 39.6385L28.7762 39.6841C28.6322 39.5845 28.4828 39.4799 28.3279 39.3703C25.0215 36.9708 21.8845 34.3463 18.9391 31.5154C16.9798 29.677 15.1892 27.6669 13.5886 25.509C12.5246 24.1499 11.7567 22.5831 11.3345 20.9095C10.9224 18.744 11.159 16.5051 12.0146 14.4737C12.8701 12.4422 14.3066 10.7086 16.1437 9.4905C17.9808 8.27236 20.1368 7.62387 22.3411 7.62642C24.5454 7.62897 26.6998 8.28243 28.5341 9.50481L28.7881 9.67367L29.0422 9.50481C30.8715 8.28009 33.0234 7.62632 35.2249 7.62645C36.8737 7.62357 38.5028 7.98493 39.9957 8.6847C41.4886 9.38447 42.8085 10.4054 43.8611 11.6745C44.9137 12.9435 45.673 14.4295 46.0846 16.026C46.4963 17.6226 46.5502 19.2904 46.2425 20.9102L46.6908 20.9954C47.121 18.7412 46.8755 16.4101 45.9853 14.2949C45.0951 12.1797 43.5998 10.3746 41.6872 9.1064C39.7745 7.83817 37.5298 7.16329 35.2349 7.16652C32.94 7.16974 30.6972 7.85091 28.7881 9.12451C27.4996 8.26302 26.0515 7.66853 24.5293 7.37615Z" fill="white"/>
<path d="M37.9614 4.26079C37.0476 4.08746 36.1196 4.00016 35.1895 4.00003C32.9717 4.00101 30.7829 4.50477 28.7878 5.47343C26.7929 4.50488 24.6045 4.00112 22.3869 4.00003C20.2101 3.9958 18.0592 4.47251 16.0881 5.39609C14.1169 6.31967 12.3741 7.66731 10.9843 9.34267C9.59447 11.018 8.59192 12.9797 8.04831 15.0876C7.5047 17.1954 7.43346 19.3973 7.83968 21.5359C8.31904 23.6056 9.22301 25.5532 10.4943 27.2554C12.2636 29.7086 14.2653 31.9856 16.4716 34.0545C20.2609 37.5853 24.29 40.8494 28.53 43.8237L28.7878 44L29.0448 43.8237C33.2833 40.8481 37.3109 37.5829 41.0988 34.0516C43.3068 31.9829 45.31 29.7059 47.0805 27.2524C48.3507 25.551 49.2539 23.6044 49.733 21.5359C50.0954 19.6286 50.0784 17.6685 49.6829 15.7678C49.2873 13.867 48.521 12.0629 47.4278 10.4585C46.3345 8.85409 44.9357 7.48092 43.3114 6.41748C41.6871 5.35403 39.8692 4.62117 37.9614 4.26079ZM49.2847 21.4507C48.6518 24.7905 45.8694 28.805 40.7797 33.7228C37.0109 37.2358 33.0041 40.4845 28.7878 43.4456C24.5705 40.4849 20.5629 37.2362 16.7936 33.7228C11.7025 28.8057 8.92232 24.7905 8.28872 21.4507C7.90346 19.4065 7.96764 17.3029 8.47679 15.2859C8.98594 13.269 9.92788 11.387 11.2372 9.7705C12.5466 8.15405 14.192 6.84187 16.0593 5.92502C17.9266 5.00817 19.971 4.50862 22.0507 4.46103C22.3436 4.45405 22.6359 4.45629 22.9278 4.46775C24.9669 4.545 26.9655 5.06026 28.7878 5.97851C31.1754 4.78237 33.8497 4.27726 36.509 4.52015C39.1683 4.76304 41.7069 5.74427 43.8382 7.35313C45.9696 8.962 47.6089 11.1345 48.5713 13.6254C49.5336 16.1164 49.7807 18.8268 49.2847 21.4507Z" fill="white"/>
<path d="M28.7881 9.12557C30.0766 8.26382 31.5247 7.66907 33.0469 7.37646C31.5248 7.66901 30.0767 8.26349 28.7881 9.12482C27.4995 8.26349 26.0514 7.66901 24.5293 7.37646C26.0515 7.66907 27.4996 8.26382 28.7881 9.12557Z" fill="white"/>
<path d="M19.6992 4.70974C20.4751 4.56263 21.2618 4.47942 22.0513 4.46094C21.2618 4.47942 20.4751 4.56263 19.6992 4.70974Z" fill="white"/>
<path d="M46.2432 20.9136L46.6915 20.9988L46.2432 20.9136Z" fill="white"/>
<path d="M22.0623 28.2726C20.3418 26.6539 18.7619 24.892 17.3395 23.0059C16.9148 22.4331 16.5318 21.8306 16.1934 21.203C15.9886 20.8389 15.8352 20.4481 15.7376 20.0419C15.5726 19.1715 15.5807 18.2771 15.7614 17.4098C15.9422 16.5425 16.292 15.7193 16.7909 14.9872C17.2899 14.2551 17.9281 13.6285 18.6693 13.1432C19.4105 12.6579 20.24 12.3233 21.1105 12.1586C21.5456 12.0748 21.9876 12.0323 22.4307 12.0316C23.4255 12.0319 24.4073 12.2572 25.3028 12.6906C26.5141 13.2994 27.5834 14.1568 28.4408 15.207L28.7711 15.5926V14.9164L28.7823 14.9037C26.0133 11.6715 23.1793 11.2979 21.0253 11.7096C19.1493 12.067 17.4918 13.154 16.4163 14.7321C15.3408 16.3101 14.9353 18.2504 15.2886 20.1271C15.5404 21.4495 17.3679 24.3717 21.7448 28.6014C23.978 30.7406 26.3224 32.7607 28.7681 34.6534V34.0721C26.436 32.2538 24.1979 30.3182 22.0623 28.2726Z" fill="white"/>
<path d="M36.5342 11.7172C38.4098 12.0745 40.0671 13.1611 41.1426 14.7387C42.218 16.3163 42.6238 18.2561 42.2709 20.1325C42.0191 21.4565 40.1931 24.3786 35.817 28.6075C33.5806 30.7487 31.2327 32.7704 28.7832 34.664H28.7884C31.2421 32.7674 33.594 30.7425 35.8342 28.5978C40.2095 24.3689 42.0356 21.4467 42.2881 20.1235C42.6412 18.2468 42.2356 16.3067 41.1601 14.7287C40.0847 13.1507 38.4273 12.0636 36.5514 11.706C35.1557 11.4282 33.7087 11.576 32.398 12.1304C33.7048 11.5838 35.1451 11.4399 36.5342 11.7172Z" fill="white"/>
<path d="M37.1649 8.67581C36.5473 8.55919 35.9202 8.50065 35.2917 8.50098C32.9237 8.51285 30.6293 9.32547 28.7817 10.8067C26.9348 9.32748 24.6424 8.51527 22.2762 8.50172C21.6512 8.50135 21.0276 8.55964 20.4135 8.67581C19.0799 8.92732 17.8089 9.43928 16.6733 10.1824C15.5377 10.9255 14.5598 11.8853 13.7954 13.0067C13.031 14.1281 12.4952 15.3892 12.2186 16.7178C11.9421 18.0465 11.9301 19.4167 12.1836 20.7499C12.6046 22.3457 13.3551 23.8357 14.3869 25.1238C17.8089 29.8309 24.2935 35.389 28.5195 38.4419L28.7869 38.6347L29.0544 38.4419C32.5602 35.8792 35.8657 33.0533 38.9423 29.9886C40.4783 28.4757 41.8984 26.8495 43.1907 25.1238C44.2224 23.8356 44.973 22.3457 45.3941 20.7499C45.6474 19.4167 45.6354 18.0466 45.3589 16.7181C45.0823 15.3895 44.5466 14.1284 43.7823 13.0071C43.018 11.8857 42.0401 10.926 40.9047 10.1828C39.7692 9.43958 38.4984 8.9275 37.1649 8.67581ZM44.9428 20.664C44.0275 25.4944 34.3794 34.0382 28.7877 38.0728C23.1982 34.0382 13.5456 25.4966 12.6341 20.664C12.2472 18.6499 12.4988 16.5652 13.3536 14.701C14.2085 12.8367 15.624 11.2858 17.4027 10.2647C19.1813 9.24353 21.2344 8.80313 23.2754 9.00492C25.3163 9.2067 27.2434 10.0406 28.7877 11.3902V11.3798C30.3338 10.0327 32.2615 9.20135 34.3024 9.00165C36.3433 8.80195 38.3957 9.24381 40.1736 10.2657C41.9514 11.2875 43.3663 12.8385 44.2211 14.7025C45.0758 16.5665 45.3278 18.6507 44.942 20.6647L44.9428 20.664Z" fill="white"/>
<path d="M28.78 34.663L28.7681 34.672V34.6541C26.3224 32.7614 23.978 30.7413 21.7448 28.6021C17.3679 24.3732 15.5433 21.451 15.2886 20.1278C14.935 18.2508 15.3406 16.3103 16.4163 14.7321C17.4919 13.1538 19.1498 12.0668 21.026 11.7095C23.1763 11.3001 26.0155 11.6744 28.78 14.8999L28.7853 14.8939V11.3883C27.2408 10.0392 25.3137 9.2059 23.2729 9.0046C21.2321 8.80331 19.1793 9.24406 17.401 10.2654C15.6227 11.2867 14.2076 12.8376 13.353 14.7018C12.4984 16.5659 12.247 18.6504 12.6339 20.6642C13.5492 25.4946 23.198 34.0384 28.7875 38.0731V34.6668L28.78 34.663Z" fill="#CE0024"/>
<path d="M18.6225 31.8453C14.0066 27.3862 11.4042 23.7348 10.8864 20.9965C10.4557 18.7422 10.7007 16.4109 11.5907 14.2954C12.4807 12.1799 13.976 10.3746 15.8887 9.10621C17.8015 7.83784 20.0464 7.163 22.3415 7.16645C24.6366 7.1699 26.8794 7.85149 28.7884 9.1256V5.97856C26.9661 5.06031 24.9675 4.54506 22.9284 4.46781C22.637 4.45635 22.3446 4.45411 22.0512 4.46108C19.9716 4.50878 17.9273 5.00841 16.0601 5.9253C14.1929 6.8422 12.5476 8.1544 11.2383 9.77084C9.92904 11.3873 8.98716 13.2693 8.47805 15.2862C7.96894 17.3031 7.90478 19.4066 8.29004 21.4508C8.92288 24.7906 11.7061 28.8051 16.795 33.7229C20.564 37.2365 24.5713 40.4854 28.7884 43.4464V40.2463C25.1917 37.7077 21.7933 34.8992 18.6225 31.8453Z" fill="#CE0024"/>
<path d="M37.8773 4.71022C34.7904 4.11992 31.5949 4.56647 28.7881 5.9804V9.12669C30.6979 7.85768 32.9396 7.18016 35.2325 7.17894C37.5255 7.17772 39.7679 7.85285 41.6791 9.11983C43.5902 10.3868 45.0852 12.1893 45.9769 14.3018C46.8687 16.4143 47.1175 18.7429 46.6923 20.9961C46.1693 23.7352 43.5692 27.3865 38.9569 31.8448C35.7871 34.8962 32.388 37.7 28.7896 40.2317V43.4445C33.0061 40.4836 37.0132 37.2352 40.7822 33.7225C45.8712 28.8054 48.6543 24.7902 49.2872 21.4504C49.9884 17.7181 49.1811 13.86 47.0423 10.722C44.9034 7.58395 41.6076 5.42205 37.8773 4.71022Z" fill="#74787D"/>
<path d="M37.0796 9.12467C35.6165 8.85826 34.1122 8.92264 32.6772 9.31307C31.2421 9.70351 29.9126 10.4101 28.7861 11.3811V14.9002C29.7558 13.7083 30.9923 12.7613 32.3957 12.1357C33.7064 11.5813 35.1534 11.4335 36.5491 11.7113C38.425 12.069 40.0824 13.156 41.1578 14.734C42.2333 16.312 42.6389 18.2522 42.2858 20.1288C42.034 21.4513 40.2072 24.3735 35.8319 28.6031C33.5917 30.7478 31.2398 32.7727 28.7861 34.6693V38.0734C34.3779 34.0387 44.0282 25.4972 44.9412 20.6646C45.4255 18.0922 44.8698 15.4327 43.396 13.2694C41.9223 11.1061 39.6508 9.61559 37.0796 9.12467Z" fill="#74787D"/>
<path d="M28.7887 34.0867C31.1273 32.2639 33.3717 30.3232 35.5131 28.2723C38.7715 25.1245 40.5938 22.7089 41.3798 21.2026C41.5845 20.8385 41.7379 20.4477 41.8356 20.0416C42.0006 19.1713 41.9926 18.277 41.812 17.4099C41.6314 16.5427 41.2818 15.7196 40.7831 14.9875C40.2844 14.2555 39.6464 13.6289 38.9054 13.1434C38.1645 12.658 37.3353 12.3232 36.465 12.1583C36.0301 12.0745 35.5884 12.0319 35.1455 12.0312C34.1507 12.0317 33.1689 12.257 32.2734 12.6902C31.0622 13.2992 29.9929 14.1567 29.1354 15.2067L28.7887 15.6116L28.7715 15.5922V34.0732L28.7887 34.0867Z" fill="#002650"/>
<path d="M28.7879 14.9091L28.7827 14.9031L28.7715 14.9158V15.592L28.7887 15.6114L29.1354 15.2065C29.9929 14.1565 31.0622 13.299 32.2734 12.6901C33.1689 12.2568 34.1507 12.0315 35.1455 12.0311C35.5884 12.0317 36.0301 12.0743 36.465 12.1581C37.3355 12.3227 38.1651 12.6572 38.9064 13.1425C39.6476 13.6278 40.286 14.2544 40.785 14.9865C41.284 15.7185 41.6339 16.5418 41.8147 17.4091C41.9954 18.2764 42.0036 19.1709 41.8386 20.0414C41.7409 20.4475 41.5875 20.8383 41.3828 21.2024C40.5975 22.708 38.7745 25.1243 35.5161 28.2721C33.3747 30.323 31.1303 32.2637 28.7917 34.0865L28.7745 34.073V34.6543L28.7864 34.6633C31.236 32.7696 33.5838 30.748 35.8202 28.6068C40.1956 24.3786 42.0216 21.4565 42.2742 20.1318C42.627 18.2554 42.2212 16.3156 41.1458 14.738C40.0703 13.1604 38.413 12.0738 36.5375 11.7165C35.148 11.4403 33.7076 11.5855 32.4012 12.1334C30.996 12.763 29.7584 13.7137 28.7879 14.9091Z" fill="#002650"/>
<path d="M28.7875 14.9094V14.8975L28.7822 14.9034L28.7875 14.9094Z" fill="#07294F"/>
<path d="M28.7715 34.6722L28.7834 34.6633L28.7715 34.6543V34.6722Z" fill="#07294F"/>
</svg>
