<svg width="312" height="48" viewBox="0 0 312 48" fill="none" xmlns="http://www.w3.org/2000/svg">
<path d="M34.8218 12.723C33.8242 8.23651 33.5754 7.48897 32.9529 4C32.2041 4.125 31.4566 4.25 30.709 4.25C30.0865 4.25 29.7115 4.25 28.8402 4C26.4725 8.61151 25.975 9.10784 21.7384 16.4595L16.8794 25.06C13.6392 30.6666 10.2752 36.0232 6.91003 41.5061C7.90636 41.3811 9.0289 41.2585 9.65145 41.2585C10.6465 41.2585 11.3953 41.3823 12.0179 41.5061C13.888 37.6458 15.8806 33.7818 17.9983 30.1654C20.3671 30.1654 22.6098 30.1654 24.9762 30.1654C26.9701 30.1654 28.9639 30.1654 30.9578 30.1654C31.9541 33.9056 32.3279 37.7683 32.5779 41.5061C34.073 41.3811 35.9419 41.2585 37.0632 41.2585C38.5583 41.2585 40.0534 41.3823 41.5497 41.5061C40.6771 38.7659 40.4284 37.7683 39.6808 34.5281L38.1845 28.174L34.8218 12.723ZM27.5938 14.0943L29.0902 20.6985L30.3365 26.9277C28.3438 26.9277 26.4737 26.9277 24.6049 26.9277C22.7348 26.9277 21.9884 26.9277 19.8696 26.9277L27.5938 14.0943Z" fill="#005DAA"/>
<path d="M52.5166 17.5821L52.6404 15.0907C53.1404 15.0907 53.3879 15.0907 53.7617 15.0907C55.383 15.0907 57.3757 15.2157 60.3671 15.7132C60.2433 14.9669 60.2433 14.7169 60.2433 14.0943C60.2433 13.4694 60.2433 12.8468 60.3671 11.9755C56.3793 12.1005 52.5178 12.348 48.4051 12.348C44.9161 12.348 41.5521 12.223 38.0632 11.9755C38.3132 12.7218 38.3132 12.9706 38.3132 13.8431C38.3132 14.4644 38.3132 14.8394 38.0632 15.837C40.6796 15.462 43.2972 15.3382 45.9137 15.3382C46.0387 17.2083 46.0387 18.9522 46.0387 20.8223V27.6764C46.0387 32.2855 45.7887 36.8958 45.5399 41.5061C46.91 41.3811 47.4075 41.2585 48.6551 41.2585C50.1502 41.2585 50.8977 41.2585 52.519 41.5061C52.269 36.8958 52.269 29.7953 52.269 27.799L52.5166 17.5821Z" fill="#005DAA"/>
<path d="M74.9455 17.7071C75.4443 15.5894 75.6918 14.8407 76.3156 13.4693C74.0729 11.9755 72.2028 11.4755 69.2126 11.4755C63.3548 11.4755 59.4945 14.9669 59.4945 20.3235C59.4945 29.7953 72.2028 28.6715 72.2028 34.9019C72.2028 37.3933 70.0852 39.2634 67.095 39.2634C63.8548 39.2634 61.6122 37.5183 61.1146 34.5281H60.2433C59.9933 36.1495 59.4957 38.1433 58.9957 39.8872C61.4884 41.2585 63.3573 41.7549 66.0987 41.7549C73.0766 41.7549 77.4369 38.0159 77.4369 32.1593C77.4369 22.6899 64.6036 23.9387 64.6036 17.7071C64.6036 15.4632 66.5962 13.8443 69.2139 13.8443C71.5815 13.8443 73.4504 15.2157 74.1979 17.5821H74.9455V17.7071Z" fill="#005DAA"/>
<path d="M79.057 41.2585C80.6759 41.1323 81.3009 41.0073 83.0447 41.0073C85.7862 41.0073 88.5276 41.2585 91.269 41.2585C100.365 41.2585 107.219 35.0269 107.219 25.8076C107.219 21.1961 105.35 16.8345 102.111 14.4669C99.4945 12.6005 96.6293 11.8517 91.1452 11.8517C88.28 11.8517 85.4136 12.1017 82.5472 12.1017C81.3021 12.1017 80.8033 12.1017 79.182 11.8517C79.432 17.2108 79.557 19.2046 79.557 25.5576C79.4308 26.0551 79.4308 33.6556 79.057 41.2585ZM98.7445 33.158C96.9994 37.0208 94.0104 38.8884 88.9013 38.8884C87.6538 38.8884 87.1562 38.8884 85.7862 38.7647C85.7862 35.0257 85.6624 31.288 85.6624 27.4264C85.6624 23.1899 85.6624 18.951 85.9111 14.5907C87.655 14.4644 88.5288 14.3407 89.5239 14.3407C92.0165 14.3407 93.8854 14.7144 95.2567 15.462C98.3719 17.0833 100.117 20.9448 100.117 26.1789C100.116 29.1715 99.492 31.413 98.7445 33.158Z" fill="#005DAA"/>
<path d="M108.838 35.5269C108.838 37.5183 108.714 38.5159 108.463 41.2585C109.958 41.1323 110.458 41.1323 111.828 41.1323C113.324 41.1323 113.947 41.1323 115.442 41.3811C115.317 38.8884 115.193 38.0159 115.193 36.772L115.069 32.4093C115.069 31.0367 115.069 29.7941 115.069 28.4215C115.069 28.0465 115.193 27.9228 115.318 27.9228C115.443 27.9228 115.443 27.9228 115.817 28.5478C118.309 32.783 120.801 37.1433 123.167 41.5049C124.664 41.3799 125.286 41.3799 126.656 41.3799C128.028 41.3799 128.775 41.3799 131.018 41.5049L129.149 38.3897L125.287 32.4093C123.418 29.4191 123.043 28.7953 121.798 26.9252C125.66 25.9301 128.651 23.6862 128.651 19.326C128.651 13.7181 124.165 11.9743 119.431 11.9743C117.188 11.9743 114.82 12.223 112.578 12.223C111.705 12.223 111.081 12.223 108.716 11.9743C108.965 16.4583 108.965 18.826 108.965 23.3125C108.838 32.2855 108.838 35.0269 108.838 35.5269ZM114.943 25.9326C115.068 22.0674 114.943 18.2046 115.068 14.3419C115.816 14.3419 116.063 14.3419 116.437 14.3419C120.052 14.3419 121.796 16.087 121.796 19.701C121.797 24.3112 119.304 25.9326 114.943 25.9326Z" fill="#005DAA"/>
<path d="M137.497 18.7048H138.493L142.48 27.9242H141.484L140.114 24.809H135.877L134.507 27.9242H133.511L137.497 18.7048ZM137.995 19.7012L136.251 23.9389H139.866L137.995 19.7012Z" fill="black"/>
<path d="M143.229 24.434C143.229 23.6889 143.355 23.0651 143.728 22.5651C144.101 22.0676 144.475 21.57 144.973 21.32C145.471 21.0725 145.97 20.8225 146.593 20.8225C146.966 20.8225 147.464 20.8225 147.839 20.9463C148.213 21.0737 148.587 21.1963 148.835 21.445C149.084 21.695 149.333 21.9426 149.459 22.1926V20.8225H150.33V27.0529C150.33 27.5492 150.205 28.048 150.08 28.423C149.955 28.7967 149.707 29.1705 149.333 29.4193C148.959 29.6681 148.712 29.9168 148.212 30.0431C147.838 30.1656 147.34 30.2918 146.966 30.2918C146.593 30.2918 146.219 30.2918 145.844 30.1644C145.471 30.0418 145.098 29.9168 144.848 29.6681C144.599 29.4193 144.225 29.1705 143.975 28.9205C143.726 28.6705 143.601 28.298 143.478 27.9242H144.35C144.599 28.423 144.973 28.7967 145.346 29.1717C145.844 29.4205 146.343 29.5443 146.841 29.5443C147.34 29.5443 147.714 29.4205 148.088 29.2955C148.462 29.1717 148.835 28.798 148.959 28.4242C149.208 28.0492 149.333 27.6779 149.333 27.1779V26.4303C148.835 27.4279 147.963 27.9254 146.716 27.9254C146.343 27.9254 145.844 27.8004 145.471 27.6779C145.098 27.5504 144.724 27.3029 144.35 26.9291C143.975 26.6815 143.728 26.1828 143.478 25.809C143.229 25.4328 143.229 25.0602 143.229 24.434ZM144.101 24.3114C144.101 24.9352 144.226 25.4328 144.475 25.8078C144.724 26.1815 144.973 26.5553 145.471 26.8041C145.844 27.0529 146.343 27.1779 146.716 27.1779C147.09 27.1779 147.464 27.0529 147.964 26.9279C148.338 26.6803 148.712 26.4303 148.96 26.0553C149.209 25.6815 149.334 25.0602 149.334 24.4352C149.334 24.0614 149.209 23.8139 149.085 23.4401C148.96 23.1926 148.713 22.8176 148.463 22.5664C148.213 22.32 147.965 22.1938 147.59 21.9438C147.216 21.8188 146.843 21.6963 146.469 21.6963C145.845 21.6963 145.348 21.9438 144.974 22.1938C144.6 22.5664 144.351 22.8176 144.228 23.3151C144.101 23.8127 144.101 24.0614 144.101 24.3114Z" fill="black"/>
<path d="M151.578 24.434C151.578 23.9389 151.702 23.4389 151.952 22.9389C152.201 22.5639 152.451 22.1926 152.699 21.8176C153.073 21.57 153.446 21.32 153.821 21.0725C154.196 20.945 154.693 20.8225 155.067 20.8225C155.691 20.8225 156.188 20.9463 156.811 21.1963C157.31 21.445 157.807 21.9426 158.181 22.4426C158.556 22.9401 158.681 23.6901 158.681 24.4352V24.5627H152.574C152.574 25.0614 152.823 25.5578 153.073 25.809C153.323 26.1828 153.696 26.4315 154.069 26.5565C154.443 26.6815 154.817 26.8053 155.191 26.8053C155.565 26.8053 155.815 26.6803 156.187 26.5565C156.562 26.4303 156.81 26.1815 157.058 26.0565C157.308 25.809 157.558 25.5578 157.558 25.3102H158.553C158.306 25.809 158.055 26.309 157.681 26.6815C157.307 27.0553 156.935 27.3041 156.436 27.4291C155.936 27.5516 155.562 27.6779 155.065 27.6779C154.441 27.6779 153.942 27.5504 153.321 27.1791C152.821 26.9291 152.324 26.4315 152.074 25.934C151.702 25.8065 151.578 25.1828 151.578 24.434ZM157.807 23.9389C157.682 23.5639 157.56 23.1914 157.31 22.8164C157.06 22.4414 156.811 22.1926 156.438 22.0676C156.063 21.8188 155.691 21.8188 155.191 21.8188C154.567 21.8188 154.069 21.9438 153.694 22.1938C153.322 22.4426 153.072 22.8176 152.822 23.0664C152.573 23.3151 152.573 23.6901 152.449 23.9401L157.807 23.9389Z" fill="black"/>
<path d="M159.925 27.9242V21.0725H160.797V22.0676C161.047 21.695 161.296 21.445 161.669 21.1963C162.044 20.9463 162.417 20.9463 162.916 20.9463C163.29 20.9463 163.664 21.0737 164.038 21.1963C164.413 21.3213 164.661 21.5713 165.035 21.8188C165.284 22.0676 165.531 22.4426 165.658 22.8164C165.783 23.1914 165.906 23.6889 165.906 24.1864V28.048H165.035V24.1864C165.035 23.6889 164.909 23.3139 164.784 22.9389C164.536 22.5639 164.288 22.3176 164.038 22.1926C163.664 22.0664 163.415 21.9426 163.042 21.9426C162.667 21.9426 162.295 22.0676 162.045 22.1926C161.67 22.3188 161.421 22.5651 161.299 22.9389C161.172 23.3139 161.05 23.6877 161.05 24.0602V28.048H159.927V27.9242H159.925Z" fill="black"/>
<path d="M167.276 24.434C167.276 23.9389 167.402 23.4389 167.527 22.9389C167.65 22.4414 168.024 22.0664 168.273 21.8176C168.648 21.57 169.02 21.32 169.394 21.0725C169.769 20.8225 170.267 20.8225 170.642 20.8225C171.389 20.8225 172.137 20.9463 172.761 21.32C173.383 21.695 173.882 22.1926 174.132 22.9389H173.136C172.886 22.5639 172.511 22.1926 172.138 21.9426C171.763 21.695 171.265 21.57 170.643 21.57C170.145 21.57 169.647 21.695 169.273 21.9426C168.898 22.1926 168.525 22.5651 168.399 22.9389C168.15 23.3139 168.025 23.8127 168.025 24.1864C168.025 24.6852 168.15 25.0602 168.399 25.5553C168.649 25.9328 168.898 26.3065 169.395 26.5541C169.77 26.8029 170.268 26.9266 170.767 26.9266C171.264 26.9266 171.762 26.8029 172.263 26.5541C172.761 26.3065 173.009 26.0541 173.258 25.6803H174.254C173.507 27.0516 172.387 27.7992 170.889 27.7992C170.392 27.7992 170.018 27.6754 169.52 27.5492C169.022 27.4266 168.648 27.1766 168.398 26.8041C168.149 26.4291 167.775 26.0553 167.527 25.6815C167.277 25.3078 167.276 25.0602 167.276 24.434C167.276 24.5614 167.276 24.5614 167.276 24.434Z" fill="black"/>
<path d="M177.495 27.6766L174.879 21.0725H175.875L178.117 26.5553L180.484 21.0725H181.481L177.493 30.2918H176.372L177.495 27.6766Z" fill="black"/>
<path d="M186.216 21.9426H185.096V21.0725H186.091C186.091 19.4512 186.965 18.7036 188.709 18.7036V19.5737C188.21 19.5737 187.714 19.7012 187.462 19.9487C187.088 20.1999 186.965 20.5737 186.965 21.0725V21.1963H188.709V22.0676H186.965V28.0492H186.216V21.9426Z" fill="black"/>
<path d="M189.332 24.434C189.332 23.9389 189.458 23.5639 189.582 23.1901C189.707 22.8151 190.078 22.4414 190.328 22.0664C190.703 21.6938 191.074 21.4438 191.449 21.32C191.947 21.195 192.447 21.0725 192.947 21.0725C193.443 21.0725 193.942 21.1963 194.441 21.445C194.938 21.695 195.437 22.0676 195.812 22.5651C196.186 23.0651 196.31 23.5639 196.435 24.1864V24.4352C196.435 24.9352 196.31 25.4328 196.186 25.8078C195.936 26.3078 195.687 26.6803 195.438 26.9279C195.064 27.3029 194.693 27.5504 194.318 27.6766C193.943 27.8004 193.444 27.9242 192.948 27.9242C192.323 27.9242 191.824 27.7992 191.203 27.5492C190.704 27.3016 190.205 26.8041 189.832 26.3065C189.458 25.8065 189.332 25.1828 189.332 24.434ZM190.204 24.434C190.204 24.934 190.329 25.4315 190.578 25.8065C190.828 26.1803 191.203 26.5541 191.574 26.8029C191.948 27.0516 192.448 27.1766 192.947 27.1766C193.319 27.1766 193.693 27.0516 194.191 26.8029C194.692 26.5541 194.938 26.3065 195.188 25.8065C195.437 25.3078 195.563 24.934 195.563 24.3102C195.563 23.9377 195.437 23.6877 195.313 23.3139C195.189 22.9401 194.938 22.6901 194.692 22.4414C194.441 22.1926 194.191 21.9426 193.818 21.8176C193.443 21.6938 193.194 21.57 192.821 21.57C192.323 21.57 191.948 21.695 191.574 21.9426C191.202 22.1926 190.828 22.4414 190.578 22.8164C190.329 23.4389 190.204 23.9389 190.204 24.434Z" fill="black"/>
<path d="M197.806 21.0725H198.68V22.0676C199.053 21.3213 199.675 20.9463 200.674 20.9463V21.8188C200.424 21.8188 200.175 21.8188 200.05 21.9438C199.925 22.0688 199.551 22.1938 199.426 22.32C199.177 22.4438 199.052 22.6926 198.928 22.9414C198.803 23.1926 198.803 23.4401 198.803 23.6901V27.9254H197.806V21.0725Z" fill="black"/>
<path d="M206.403 27.9242V19.5749H204.285V18.7048H209.394V19.5749H207.275V27.9242H206.403Z" fill="black"/>
<path d="M209.395 24.434C209.395 23.9389 209.519 23.5639 209.644 23.1901C209.769 22.8151 210.142 22.4414 210.39 22.0664C210.764 21.6938 211.138 21.4438 211.512 21.32C212.011 21.195 212.508 21.0725 213.008 21.0725C213.506 21.0725 214.004 21.1963 214.504 21.445C215.002 21.695 215.499 22.0676 215.873 22.5651C216.247 23.0651 216.372 23.5639 216.497 24.1864V24.4352C216.497 24.9352 216.372 25.4328 216.247 25.8078C215.999 26.3078 215.751 26.6803 215.501 26.9279C215.126 27.3029 214.753 27.5504 214.378 27.6766C214.006 27.8004 213.508 27.9242 213.009 27.9242C212.387 27.9242 211.888 27.7992 211.264 27.5492C210.765 27.3016 210.269 26.8041 209.894 26.3065C209.518 25.8065 209.395 25.1828 209.395 24.434ZM210.267 24.434C210.267 24.934 210.39 25.4315 210.64 25.8065C210.888 26.1803 211.263 26.5541 211.636 26.8029C212.011 27.0516 212.508 27.1766 213.007 27.1766C213.381 27.1766 213.754 27.0516 214.253 26.8029C214.752 26.5541 215.001 26.3065 215.249 25.8065C215.498 25.3078 215.624 24.934 215.624 24.3102C215.624 23.9377 215.498 23.6877 215.376 23.3139C215.249 22.9389 215.001 22.6901 214.751 22.4414C214.503 22.1926 214.253 21.9426 213.879 21.8176C213.506 21.6938 213.256 21.57 212.883 21.57C212.386 21.57 212.011 21.695 211.636 21.9426C211.262 22.1926 210.888 22.4414 210.64 22.8164C210.39 23.4389 210.267 23.9389 210.267 24.434Z" fill="black"/>
<path d="M217.12 27.9242L219.487 24.434L217.12 21.0725H218.241L219.985 23.6889L221.854 21.0725H222.975L220.607 24.434L222.975 27.9242H221.854L219.985 25.1828L218.241 27.9242H217.12Z" fill="black"/>
<path d="M223.725 20.3237V18.7048H224.596V20.3237H223.725ZM223.725 27.9242V21.0725H224.596V27.9242H223.725Z" fill="black"/>
<path d="M225.968 24.434C225.968 23.9389 226.091 23.4389 226.215 22.9389C226.341 22.4414 226.714 22.0664 226.963 21.8176C227.336 21.57 227.71 21.32 228.084 21.0725C228.459 20.8225 228.957 20.8225 229.333 20.8225C230.079 20.8225 230.827 20.9463 231.449 21.32C232.073 21.695 232.572 22.1926 232.819 22.9389H231.823C231.575 22.5639 231.202 22.1926 230.828 21.9426C230.454 21.695 229.955 21.57 229.334 21.57C228.834 21.57 228.335 21.695 227.961 21.9426C227.586 22.1926 227.214 22.5651 227.089 22.9389C226.84 23.3139 226.715 23.8127 226.715 24.1864C226.715 24.6852 226.84 25.0602 227.089 25.5553C227.338 25.9328 227.586 26.3065 228.085 26.5541C228.46 26.8029 228.958 26.9266 229.457 26.9266C229.954 26.9266 230.453 26.8029 230.952 26.5541C231.449 26.3065 231.698 26.0541 231.948 25.6803H232.946C232.197 27.0516 231.075 27.7992 229.58 27.7992C229.082 27.7992 228.708 27.6754 228.209 27.5492C227.711 27.4266 227.336 27.1766 227.088 26.8041C226.839 26.4291 226.464 26.0553 226.215 25.6815C225.968 25.3078 225.968 25.0602 225.968 24.434C225.968 24.5614 225.968 24.5614 225.968 24.434Z" fill="black"/>
<path d="M238.301 25.3078C238.301 25.6815 238.427 26.0541 238.551 26.3065C238.676 26.5541 238.926 26.8029 239.297 26.9266C239.672 27.0529 239.922 27.1766 240.17 27.1766C240.419 27.1766 240.794 27.0516 241.044 26.9266C241.292 26.8029 241.541 26.5541 241.666 26.3065C241.791 26.0541 241.914 25.6803 241.914 25.4315C241.914 25.059 241.79 24.6852 241.666 24.434C241.541 24.1864 241.167 23.9389 240.67 23.6889C240.171 23.5639 239.673 23.3139 239.175 23.1914C238.676 23.0651 238.301 22.8164 237.927 22.4426C237.678 22.0676 237.431 21.6963 237.431 21.0737V20.8225C237.431 20.3237 237.555 19.9487 237.803 19.7012C238.053 19.3274 238.301 19.0786 238.801 18.9524C239.175 18.8274 239.548 18.7036 240.047 18.7036C240.546 18.7036 241.044 18.8274 241.416 19.0774C241.791 19.3274 242.165 19.5737 242.291 19.9475C242.54 20.3225 242.664 20.6963 242.664 21.0688V21.195H241.791C241.666 20.6975 241.542 20.3225 241.294 20.0737C241.045 19.8237 240.67 19.6999 240.171 19.5737C239.923 19.5737 239.673 19.7012 239.423 19.8237C239.176 19.9487 238.927 20.0737 238.802 20.3225C238.676 20.5725 238.552 20.8213 238.552 21.0713C238.552 21.6938 238.677 22.0664 239.051 22.3176C239.298 22.5639 239.796 22.6901 240.546 22.9389C241.169 23.1901 241.792 23.3139 242.166 23.6877C242.541 24.0602 242.911 24.4328 243.039 25.059C243.039 25.3065 243.039 25.5541 243.039 25.6803C243.039 26.0541 243.039 26.3065 242.911 26.6779C242.787 27.0516 242.664 27.3004 242.415 27.548C242.166 27.798 241.915 28.0467 241.542 28.173C241.167 28.298 240.795 28.4217 240.295 28.4217C239.922 28.4217 239.422 28.2967 239.05 28.173C238.675 28.0467 238.426 27.798 238.177 27.548C237.928 27.3004 237.678 27.0516 237.553 26.6779C237.43 26.3053 237.306 26.0529 237.306 25.6803H238.301V25.3078Z" fill="black"/>
<path d="M243.91 25.1828V21.0725H244.783V25.0602C244.783 25.6815 245.031 26.3078 245.405 26.6791C245.78 27.0529 246.278 27.3016 246.903 27.3016C247.275 27.3016 247.649 27.1766 247.898 27.0529C248.146 26.9266 248.521 26.5553 248.644 26.1803C248.893 25.8065 248.893 25.4328 248.893 24.934V21.195H249.767V28.048H248.893V26.9266C248.644 27.3016 248.395 27.6754 248.023 27.7992C247.648 28.048 247.149 28.1742 246.651 28.1742C246.154 28.1742 245.655 28.048 245.28 27.7992C244.783 27.5492 244.41 27.3016 244.159 26.8041C244.159 26.3078 243.91 25.8065 243.91 25.1828Z" fill="black"/>
<path d="M251.512 18.7048H252.507V22.4426C252.758 22.0676 253.132 21.6963 253.504 21.4463C254.004 21.1975 254.502 21.0737 254.999 20.9475C255.748 20.9475 256.371 21.0749 256.87 21.4463C257.366 21.82 257.866 22.1938 258.116 22.6926C258.488 23.1926 258.613 23.6901 258.613 24.3127C258.613 24.9364 258.487 25.5578 258.238 26.1815C257.992 26.8053 257.617 27.1779 256.991 27.5504C256.496 27.9254 255.871 28.0492 255.124 28.1754C254.749 28.1754 254.252 28.1754 253.877 28.0492C253.503 27.9242 253.131 27.8004 252.881 27.5504C252.633 27.3029 252.383 27.0541 252.134 26.8053V28.0504H251.512V18.7048ZM252.383 24.3114C252.383 24.6864 252.383 25.0602 252.507 25.4328C252.634 25.8078 252.758 26.0553 253.007 26.3078C253.256 26.5553 253.504 26.8041 253.878 26.9279C254.253 27.0541 254.627 27.1779 255.126 27.1779C255.624 27.1779 255.997 27.0529 256.372 26.8041C256.746 26.5553 257.12 26.1803 257.367 25.8078C257.618 25.4328 257.742 24.9352 257.742 24.3114C257.742 23.9389 257.618 23.6889 257.495 23.3151C257.367 22.9401 257.12 22.6914 256.871 22.4426C256.622 22.1938 256.372 22.0676 255.997 21.9438C255.623 21.8188 255.376 21.6963 255.001 21.6963C254.628 21.6963 254.254 21.82 253.879 21.9438C253.506 22.0688 253.133 22.4426 252.759 22.8176C252.506 23.3139 252.383 23.8127 252.383 24.3114Z" fill="black"/>
<path d="M259.736 23.0651C259.736 22.9389 259.736 22.9389 259.736 22.8164C259.736 22.4414 259.86 22.0676 259.982 21.8188C260.233 21.5713 260.481 21.3213 260.731 21.1963C260.98 21.0725 261.356 20.9463 261.605 20.9463C261.852 20.9463 262.1 20.9463 262.226 21.0737C262.477 21.1975 262.601 21.3213 262.85 21.4463C263.097 21.5725 263.225 21.82 263.347 22.0688C263.472 22.32 263.472 22.5664 263.599 22.8176H262.726C262.726 22.4426 262.6 22.1938 262.351 22.0688C262.1 21.9438 261.976 21.82 261.605 21.82C261.356 21.82 261.106 21.945 260.98 22.0688C260.731 22.195 260.607 22.4438 260.607 22.8176C260.607 22.8176 260.607 22.8176 260.607 22.9414C260.607 23.0676 260.607 23.0676 260.607 23.0676C260.607 23.3164 260.855 23.4414 261.23 23.6914C261.605 23.9414 261.976 23.9414 262.351 24.0639C262.726 24.1901 262.975 24.4377 263.346 24.6889C263.597 24.9377 263.721 25.3114 263.721 25.8102C263.721 25.9364 263.721 26.0578 263.721 26.184C263.721 26.559 263.471 26.9303 263.346 27.1803C263.096 27.4303 262.849 27.6791 262.6 27.8029C262.351 27.9279 261.976 27.9279 261.727 27.9279C261.355 27.9279 260.98 27.8029 260.607 27.6803C260.232 27.4315 259.981 27.1815 259.858 26.9315C259.735 26.559 259.61 26.1852 259.61 25.8114H260.481C260.481 26.1852 260.608 26.559 260.856 26.8078C261.106 27.0565 261.356 27.1815 261.729 27.1815C262.101 27.1815 262.352 27.0565 262.601 26.8078C262.85 26.559 262.976 26.3114 262.976 26.059C262.976 25.8114 262.85 25.5602 262.727 25.3127C262.601 25.0651 262.227 24.9389 261.854 24.8139C261.357 24.6901 260.857 24.4389 260.482 24.1914C259.982 23.9389 259.736 23.5639 259.736 23.0651Z" fill="black"/>
<path d="M265.716 27.9242V21.9426H264.221V21.0725H265.716V18.7036H266.586V21.0725H268.209V21.9426H266.586V27.9242H265.716Z" fill="black"/>
<path d="M268.83 24.5614C268.83 24.0614 268.957 23.5651 269.205 23.0651C269.454 22.5651 269.704 22.1926 270.077 21.9426C270.452 21.695 270.825 21.445 271.2 21.1963C271.573 21.0725 272.073 20.9463 272.57 20.9463C273.817 20.9463 274.689 21.445 275.311 22.4426V21.0737H276.183V27.9254H275.311V26.6803C275.061 27.1779 274.688 27.5504 274.191 27.8004C273.691 28.0492 273.193 28.1754 272.57 28.1754C272.073 28.1754 271.698 28.0492 271.2 27.9254C270.825 27.8004 270.327 27.5504 270.077 27.1791C269.704 26.9291 269.454 26.5565 269.332 26.0565C268.955 25.5553 268.83 25.0602 268.83 24.5614ZM269.828 24.3114C269.828 24.809 269.954 25.3078 270.203 25.8078C270.45 26.1815 270.825 26.5553 271.199 26.8041C271.572 27.0529 272.072 27.1779 272.444 27.1779C272.943 27.1779 273.443 27.0529 273.816 26.8041C274.191 26.5553 274.563 26.1803 274.812 25.8078C275.059 25.4328 275.184 24.9352 275.184 24.5614C275.184 24.0614 275.059 23.6889 274.812 23.1914C274.563 22.6914 274.313 22.4426 273.816 22.1938C273.443 21.9438 272.943 21.8188 272.444 21.8188C271.947 21.8188 271.448 21.9438 271.075 22.1938C270.7 22.4426 270.327 22.8176 270.077 23.1914C269.828 23.5639 269.828 23.9389 269.828 24.3114Z" fill="black"/>
<path d="M277.678 27.9242V21.0725H278.55V22.0676C278.798 21.695 279.047 21.445 279.422 21.1963C279.796 20.9463 280.167 20.9463 280.669 20.9463C281.042 20.9463 281.416 21.0737 281.79 21.1963C282.165 21.3213 282.412 21.5713 282.786 21.8188C283.037 22.0676 283.284 22.4426 283.41 22.8164C283.534 23.1914 283.657 23.6889 283.657 24.1864V28.048H282.786V24.1864C282.786 23.6889 282.662 23.3139 282.537 22.9389C282.289 22.5639 282.041 22.3176 281.79 22.1926C281.416 22.0664 281.165 21.9426 280.795 21.9426C280.42 21.9426 280.046 22.0676 279.797 22.1926C279.423 22.3188 279.175 22.5651 279.05 22.9389C278.925 23.3139 278.801 23.6877 278.801 24.0602V28.048H277.681V27.9242H277.678Z" fill="black"/>
<path d="M284.905 24.434C284.905 23.9389 285.03 23.4389 285.156 22.9389C285.28 22.4414 285.654 22.0664 285.901 21.8176C286.276 21.57 286.65 21.32 287.023 21.0725C287.398 20.8225 287.895 20.8225 288.268 20.8225C289.018 20.8225 289.765 20.9463 290.388 21.32C291.01 21.695 291.508 22.1926 291.759 22.9389H291.01C290.762 22.5639 290.388 22.1926 290.014 21.9426C289.639 21.695 289.143 21.57 288.518 21.57C288.02 21.57 287.521 21.695 287.146 21.9426C286.774 22.1926 286.4 22.5651 286.276 22.9389C286.026 23.3139 285.901 23.8127 285.901 24.1864C285.901 24.6852 286.026 25.0602 286.276 25.5553C286.526 25.9328 286.774 26.3065 287.271 26.5541C287.646 26.8029 288.143 26.9266 288.644 26.9266C289.142 26.9266 289.639 26.8029 290.139 26.5541C290.635 26.3065 290.885 26.0541 291.135 25.6803H292.131C291.385 27.0516 290.263 27.7992 288.768 27.7992C288.268 27.7992 287.895 27.6754 287.398 27.5492C286.899 27.4266 286.526 27.1766 286.276 26.8041C286.026 26.4291 285.654 26.0553 285.403 25.6815C285.156 25.3078 284.905 25.0602 284.905 24.434C284.905 24.5614 284.905 24.5614 284.905 24.434Z" fill="black"/>
<path d="M293.003 24.434C293.003 23.9389 293.129 23.4389 293.378 22.9389C293.628 22.5639 293.876 22.1926 294.124 21.8176C294.499 21.57 294.873 21.32 295.248 21.0725C295.619 20.945 296.121 20.8225 296.493 20.8225C297.116 20.8225 297.615 20.9463 298.238 21.1963C298.736 21.445 299.233 21.9426 299.61 22.4426C299.982 22.9401 300.106 23.6901 300.106 24.4352V24.5627H294.002C294.002 25.0614 294.249 25.5578 294.499 25.809C294.749 26.1828 295.123 26.4315 295.496 26.5565C295.871 26.6815 296.244 26.8053 296.617 26.8053C296.991 26.8053 297.241 26.6803 297.613 26.5565C297.988 26.4303 298.237 26.1815 298.486 26.0565C298.735 25.809 298.983 25.5578 298.983 25.3102H299.98C299.732 25.809 299.482 26.309 299.107 26.6815C298.733 27.0553 298.362 27.3041 297.862 27.4291C297.363 27.5516 296.988 27.6779 296.491 27.6779C295.868 27.6779 295.369 27.5504 294.747 27.1791C294.122 26.8053 293.751 26.4315 293.499 25.934C293.129 25.8065 293.003 25.1828 293.003 24.434ZM299.233 23.9389C299.108 23.5639 298.985 23.1914 298.736 22.8164C298.487 22.4414 298.238 22.1926 297.865 22.0676C297.49 21.8188 297.116 21.8188 296.617 21.8188C295.993 21.8188 295.496 21.9438 295.122 22.1938C294.748 22.4426 294.498 22.8176 294.248 23.0664C294.001 23.3151 294.001 23.6901 293.874 23.9401L299.233 23.9389Z" fill="black"/>
<path d="M301.104 23.0651C301.104 22.9389 301.104 22.9389 301.104 22.8164C301.104 22.4414 301.23 22.0676 301.355 21.8188C301.602 21.5713 301.852 21.3213 302.101 21.1963C302.35 21.0725 302.724 20.9463 302.972 20.9463C303.224 20.9463 303.471 20.9463 303.596 21.0737C303.844 21.1975 303.971 21.3213 304.219 21.4463C304.469 21.5725 304.594 21.82 304.719 22.0688C304.842 22.32 304.842 22.5664 304.967 22.8176H304.094C304.094 22.4426 303.97 22.1938 303.719 22.0688C303.471 21.9438 303.346 21.82 302.972 21.82C302.724 21.82 302.475 21.945 302.35 22.0688C302.101 22.195 301.975 22.4438 301.975 22.8176C301.975 22.8176 301.975 22.8176 301.975 22.9414C301.975 23.0676 301.975 23.0676 301.975 23.0676C301.975 23.3164 302.225 23.4414 302.597 23.6914C302.972 23.9414 303.346 23.9414 303.719 24.0639C304.094 24.1901 304.344 24.4377 304.717 24.6889C304.966 24.9377 305.09 25.3114 305.09 25.8102C305.09 25.9364 305.09 26.0578 305.09 26.184C305.09 26.559 304.841 26.9303 304.717 27.1803C304.467 27.4303 304.217 27.6791 303.97 27.8029C303.719 27.9279 303.346 27.9279 303.096 27.9279C302.722 27.9279 302.35 27.8029 301.975 27.6803C301.601 27.4315 301.354 27.1815 301.229 26.9315C301.102 26.559 300.98 26.1852 300.98 25.8114H301.852C301.852 26.1852 301.976 26.559 302.226 26.8078C302.475 27.0565 302.724 27.1815 303.097 27.1815C303.472 27.1815 303.72 27.0565 303.971 26.8078C304.219 26.559 304.345 26.3114 304.345 26.059C304.345 25.8114 304.219 25.5602 304.095 25.3127C303.971 25.0651 303.597 24.9389 303.225 24.8139C302.725 24.6901 302.227 24.4389 301.854 24.1914C301.355 23.9389 301.104 23.5639 301.104 23.0651Z" fill="black"/>
<path d="M133.883 38.2649C133.883 37.7685 134.008 37.2698 134.257 36.7722C134.507 36.2722 134.756 35.8984 135.129 35.6484C135.503 35.2759 135.877 35.1521 136.251 34.9021C136.626 34.7759 137.123 34.6546 137.622 34.6546C138.868 34.6546 139.741 35.1521 140.364 36.1497V34.7771H141.235V41.6337H140.239V40.3862C139.99 40.8837 139.615 41.2587 139.117 41.5063C138.617 41.7551 138.121 41.8813 137.497 41.8813C136.998 41.8813 136.625 41.7551 136.126 41.6337C135.752 41.5063 135.253 41.2587 135.003 40.885C134.631 40.6337 134.381 40.2612 134.256 39.7612C134.008 39.2636 133.883 38.7661 133.883 38.2649ZM134.881 38.0161C134.881 38.5161 135.004 39.0149 135.253 39.5124C135.502 39.8874 135.876 40.26 136.25 40.5112C136.625 40.7587 137.122 40.8837 137.497 40.8837C137.995 40.8837 138.493 40.7587 138.867 40.5112C139.242 40.26 139.615 39.8862 139.865 39.5124C140.114 39.1374 140.239 38.6399 140.239 38.2649C140.239 37.7685 140.114 37.3935 139.865 36.896C139.615 36.521 139.365 36.1497 138.867 35.8997C138.493 35.6497 137.995 35.5271 137.497 35.5271C136.998 35.5271 136.501 35.6497 136.126 35.8997C135.752 36.1497 135.378 36.5222 135.129 36.896C135.004 37.271 134.881 37.646 134.881 38.0161Z" fill="black"/>
<path d="M142.731 41.6325V34.7759H143.603V35.7734C143.853 35.3984 144.101 35.1509 144.475 34.9009C144.849 34.6533 145.223 34.6533 145.72 34.6533C146.095 34.6533 146.468 34.7759 146.843 34.9009C147.216 35.0259 147.465 35.2759 147.839 35.5259C148.213 35.7734 148.338 36.1484 148.462 36.521C148.587 36.896 148.712 37.3935 148.712 37.8923V41.7538H147.839V37.8923C147.839 37.3935 147.715 37.021 147.589 36.646C147.34 36.271 147.09 36.0222 146.841 35.8984C146.468 35.7734 146.219 35.6484 145.844 35.6484C145.471 35.6484 145.098 35.7747 144.848 35.8984C144.599 36.0234 144.225 36.2722 144.1 36.646C143.851 37.021 143.851 37.3923 143.851 37.7673V41.7538H142.73L142.731 41.6325Z" fill="black"/>
<path d="M150.082 37.8935C150.082 37.271 150.332 36.6472 150.704 36.1497C151.078 35.6497 151.452 35.2771 151.951 35.0271C152.449 34.7771 152.948 34.6546 153.571 34.6546C154.193 34.6546 154.692 34.7771 155.19 35.0271C155.688 35.2771 156.062 35.6497 156.437 36.0234V32.4107H157.308V41.6325H156.437V40.385C156.062 40.8825 155.69 41.2575 155.315 41.5051C154.817 41.7538 154.317 41.8801 153.694 41.8801C153.197 41.8801 152.573 41.6325 152.074 41.3813C151.577 41.1325 151.078 40.6325 150.704 40.1362C150.33 39.6374 150.207 39.0149 150.207 38.2649C150.082 38.0161 150.082 37.8935 150.082 37.8935ZM150.954 37.7685C150.954 37.8935 150.954 38.0161 150.954 38.1435C150.954 38.6399 151.078 39.0161 151.328 39.3911C151.578 39.7612 151.826 40.1374 152.324 40.3862C152.698 40.6325 153.196 40.76 153.694 40.76C154.194 40.76 154.567 40.6325 155.066 40.3862C155.44 40.1374 155.813 39.8874 156.062 39.3911C156.31 38.8899 156.437 38.5173 156.437 37.8935C156.437 37.646 156.31 37.271 156.187 36.8972C155.937 36.5222 155.69 36.1509 155.315 35.9009C154.941 35.6509 154.442 35.4021 153.819 35.4021C153.444 35.4021 153.072 35.5296 152.698 35.6509C152.324 35.7771 151.951 36.0259 151.702 36.3997C151.328 36.896 151.078 37.271 150.954 37.7685Z" fill="black"/>
<path d="M162.419 41.6325V32.4107H164.91C165.783 32.4107 166.529 32.5345 167.154 32.7845C167.777 33.0333 168.399 33.4082 168.773 33.782C169.145 34.1558 169.52 34.6546 169.769 35.2771C170.018 35.8997 170.144 36.3984 170.144 37.1435C170.144 37.8923 170.018 38.5161 169.769 39.0149C169.52 39.6374 169.144 40.01 168.648 40.5112C168.149 40.8837 167.65 41.2575 167.153 41.3813C166.528 41.6325 166.031 41.6325 165.408 41.6325H162.419ZM163.415 33.1582V40.7587H164.784C166.033 40.7587 167.154 40.5112 167.902 39.8862C168.648 39.2624 169.145 38.3899 169.272 37.1435C169.272 36.6472 169.144 36.1484 169.022 35.6484C168.897 35.1521 168.524 34.7759 168.274 34.4021C167.902 34.0271 167.401 33.7808 166.904 33.532C166.406 33.282 165.658 33.157 165.036 33.157L163.415 33.1582Z" fill="black"/>
<path d="M171.638 34.0283V32.4107H172.511V34.0283H171.638ZM171.638 41.6325V34.7759H172.511V41.6325H171.638Z" fill="black"/>
<path d="M173.756 36.7734C173.756 36.6472 173.756 36.6472 173.756 36.5222C173.756 36.1497 173.882 35.7759 174.006 35.5271C174.132 35.2771 174.503 35.0271 174.752 34.9021C175.002 34.7759 175.376 34.6546 175.626 34.6546C175.875 34.6546 176.122 34.6546 176.248 34.7771C176.497 34.9033 176.622 35.0271 176.871 35.1533C177.122 35.2783 177.245 35.5283 177.37 35.7759C177.495 36.0247 177.495 36.2734 177.618 36.5222H176.747C176.747 36.1497 176.621 35.8997 176.372 35.7759C176.122 35.6497 175.998 35.5283 175.626 35.5283C175.376 35.5283 175.127 35.6509 175.002 35.7759C174.752 35.9009 174.628 36.1509 174.628 36.5222C174.628 36.5222 174.628 36.5222 174.628 36.6484C174.628 36.7747 174.628 36.7747 174.628 36.7747C174.628 37.0234 174.878 37.146 175.251 37.396C175.626 37.6472 175.998 37.6472 176.372 37.771C176.747 37.896 176.995 38.146 177.368 38.3935C177.617 38.6423 177.743 39.0185 177.743 39.5149C177.743 39.6411 177.743 39.7624 177.743 39.8899C177.743 40.2636 177.493 40.635 177.368 40.8862C177.12 41.135 176.87 41.3837 176.621 41.5087C176.372 41.6362 175.998 41.6362 175.748 41.6362C175.375 41.6362 175.002 41.5087 174.628 41.385C174.253 41.1362 174.004 40.8874 173.881 40.6362C173.754 40.2636 173.632 39.8911 173.632 39.5161H174.503C174.503 39.8911 174.629 40.2636 174.879 40.5149C175.127 40.7624 175.376 40.8874 175.75 40.8874C176.123 40.8874 176.373 40.7624 176.622 40.5149C176.871 40.2636 176.996 40.0149 176.996 39.7636C176.996 39.5161 176.871 39.2673 176.748 39.0198C176.622 38.7698 176.25 38.6435 175.876 38.521C175.377 38.3948 174.881 38.1472 174.504 37.8972C174.007 37.646 173.882 37.271 173.756 36.7734Z" fill="black"/>
<path d="M178.616 38.1435C178.616 37.646 178.741 37.1448 178.991 36.6472C179.24 36.2722 179.488 35.8997 179.738 35.5271C180.111 35.2771 180.484 35.0271 180.859 34.7771C181.234 34.5283 181.731 34.5283 182.105 34.5283C182.729 34.5283 183.226 34.6558 183.85 34.9033C184.349 35.1533 184.846 35.6497 185.221 36.1509C185.595 36.6484 185.718 37.396 185.718 38.1448V38.2673H179.613C179.613 38.7673 179.863 39.2649 180.111 39.5149C180.361 39.8899 180.735 40.1399 181.109 40.2624C181.482 40.3886 181.855 40.5136 182.229 40.5136C182.604 40.5136 182.854 40.3874 183.225 40.2624C183.599 40.1386 183.849 39.8886 184.099 39.7624C184.348 39.5149 184.596 39.2661 184.596 39.0185H185.593C185.343 39.5149 185.095 40.0136 184.72 40.3886C184.346 40.7624 183.973 41.01 183.474 41.135C182.975 41.2612 182.601 41.3837 182.102 41.3837C181.48 41.3837 180.981 41.26 180.359 40.8862C179.736 40.5136 179.362 40.1399 179.112 39.6399C178.866 39.5124 178.616 38.8886 178.616 38.1435ZM184.846 37.646C184.721 37.271 184.598 36.8972 184.349 36.5222C184.1 36.1497 183.85 35.8997 183.476 35.7759C183.101 35.5283 182.729 35.5283 182.229 35.5283C181.607 35.5283 181.109 35.6509 180.734 35.9009C180.36 36.1509 180.11 36.5234 179.862 36.7747C179.612 37.0234 179.612 37.396 179.487 37.6472L184.846 37.646Z" fill="black"/>
<path d="M186.716 38.2649C186.716 37.7685 186.841 37.2698 187.09 36.7722C187.34 36.2722 187.589 35.8984 187.963 35.6484C188.337 35.3997 188.71 35.1521 189.084 34.9021C189.459 34.7759 189.957 34.6546 190.455 34.6546C191.702 34.6546 192.574 35.1521 193.196 36.1497V34.7771H194.068V41.6337H193.196V40.3862C192.948 40.8837 192.573 41.2587 192.075 41.5063C191.575 41.7551 191.077 41.8813 190.455 41.8813C189.957 41.8813 189.583 41.7551 189.084 41.6337C188.71 41.5063 188.212 41.2587 187.963 40.885C187.589 40.6337 187.34 40.2612 187.215 39.7612C186.84 39.2636 186.716 38.7661 186.716 38.2649ZM187.714 38.0161C187.714 38.5161 187.838 39.0149 188.088 39.5124C188.335 39.8874 188.71 40.26 189.083 40.5112C189.458 40.7587 189.955 40.8837 190.329 40.8837C190.828 40.8837 191.325 40.7587 191.7 40.5112C192.075 40.26 192.448 39.8862 192.696 39.5124C192.947 39.1374 193.071 38.6399 193.071 38.2649C193.071 37.7685 192.947 37.3935 192.696 36.896C192.448 36.521 192.199 36.1497 191.7 35.8997C191.325 35.6497 190.828 35.5271 190.329 35.5271C189.832 35.5271 189.333 35.6497 188.959 35.8997C188.585 36.1497 188.212 36.5222 187.963 36.896C187.838 37.271 187.714 37.646 187.714 38.0161Z" fill="black"/>
<path d="M195.189 36.7734C195.189 36.6472 195.189 36.6472 195.189 36.5222C195.189 36.1497 195.314 35.7759 195.438 35.5271C195.564 35.2771 195.936 35.0271 196.186 34.9021C196.435 34.7759 196.808 34.6546 197.057 34.6546C197.308 34.6546 197.556 34.6546 197.681 34.7771C197.93 34.9033 198.055 35.0271 198.305 35.1533C198.552 35.2783 198.68 35.5283 198.803 35.7759C198.928 36.0247 198.928 36.2734 199.052 36.5222H198.18C198.18 36.1497 198.053 35.8997 197.805 35.7759C197.556 35.6497 197.431 35.5283 197.057 35.5283C196.808 35.5283 196.561 35.6509 196.435 35.7759C196.186 35.9009 196.061 36.1509 196.061 36.5222C196.061 36.5222 196.061 36.5222 196.061 36.6484C196.061 36.7747 196.061 36.7747 196.061 36.7747C196.061 37.0234 196.31 37.146 196.683 37.396C197.057 37.6472 197.431 37.6472 197.805 37.771C198.18 37.896 198.428 38.146 198.801 38.3935C199.051 38.6423 199.176 39.0185 199.176 39.5149C199.176 39.6411 199.176 39.7624 199.176 39.8899C199.176 40.2636 198.927 40.635 198.801 40.8862C198.551 41.135 198.303 41.3837 198.053 41.5087C197.805 41.6362 197.431 41.6362 197.182 41.6362C196.807 41.6362 196.435 41.5087 196.061 41.385C195.686 41.1362 195.437 40.8874 195.313 40.6362C195.188 40.2636 195.064 39.8911 195.064 39.5161H195.936C195.936 39.8911 196.062 40.2636 196.311 40.5149C196.561 40.7624 196.808 40.8874 197.183 40.8874C197.557 40.8874 197.806 40.7624 198.055 40.5149C198.305 40.2636 198.43 40.0149 198.43 39.7636C198.43 39.5161 198.305 39.2673 198.181 39.0198C198.055 38.7698 197.682 38.6435 197.31 38.521C196.81 38.3948 196.312 38.1472 195.937 37.8972C195.563 37.646 195.313 37.271 195.189 36.7734Z" fill="black"/>
<path d="M200.174 38.1435C200.174 37.646 200.297 37.1448 200.547 36.6472C200.797 36.2722 201.045 35.8997 201.295 35.5271C201.669 35.2771 202.041 35.0271 202.416 34.7771C202.79 34.5283 203.289 34.5283 203.662 34.5283C204.286 34.5283 204.784 34.6558 205.408 34.9033C205.905 35.1533 206.403 35.6497 206.778 36.1509C207.151 36.6484 207.275 37.396 207.275 38.1448V38.2673H201.17C201.17 38.7673 201.42 39.2649 201.669 39.5149C201.917 39.8899 202.292 40.1399 202.665 40.2624C203.039 40.3886 203.411 40.5136 203.786 40.5136C204.16 40.5136 204.41 40.3874 204.783 40.2624C205.156 40.1386 205.406 39.8886 205.655 39.7624C205.904 39.5149 206.154 39.2661 206.154 39.0185H207.149C206.9 39.5149 206.65 40.0136 206.276 40.3886C205.903 40.7624 205.529 41.01 205.03 41.135C204.531 41.2612 204.158 41.3837 203.66 41.3837C203.036 41.3837 202.539 41.26 201.915 40.8862C201.292 40.5136 200.92 40.1399 200.67 39.6399C200.297 39.5124 200.174 38.8886 200.174 38.1435ZM206.279 37.646C206.155 37.271 206.03 36.8972 205.783 36.5222C205.531 36.1497 205.284 35.8997 204.909 35.7759C204.534 35.5283 204.161 35.5283 203.662 35.5283C203.039 35.5283 202.541 35.6509 202.167 35.9009C201.794 36.1509 201.544 36.5234 201.295 36.7747C201.045 37.0234 201.045 37.396 200.921 37.6472L206.279 37.646Z" fill="black"/>
<path d="M212.136 41.6325V32.4107H214.628C215.376 32.4107 215.998 32.5345 216.496 32.6595C216.995 32.7845 217.368 33.0333 217.617 33.407C217.866 33.6546 218.116 34.0283 218.116 34.2796C218.116 34.5271 218.241 34.9021 218.366 35.2759C218.366 35.7734 218.24 36.271 217.991 36.7722C217.741 37.2698 217.493 37.5173 216.993 37.8923C216.496 38.2649 216.122 38.2649 215.624 38.2649L218.241 41.7551H217.12L214.004 37.5185H214.751C215.249 37.5185 215.748 37.3935 216.246 37.271C216.621 37.1435 216.995 36.896 217.243 36.5222C217.493 36.1497 217.617 35.8997 217.617 35.4009C217.617 34.9033 217.493 34.5283 217.243 34.2808C216.995 33.9058 216.746 33.6558 216.246 33.5345C215.749 33.4083 215.499 33.2845 215.001 33.2845H213.133V41.6337L212.136 41.6325Z" fill="black"/>
<path d="M219.237 38.1435C219.237 37.646 219.363 37.1448 219.612 36.6472C219.862 36.2722 220.11 35.8997 220.36 35.5271C220.734 35.2771 221.107 35.0271 221.481 34.7771C221.855 34.5283 222.355 34.5283 222.727 34.5283C223.351 34.5283 223.849 34.6558 224.473 34.9033C224.971 35.1533 225.469 35.6497 225.844 36.1509C226.216 36.6484 226.341 37.396 226.341 38.1448V38.2673H220.236C220.236 38.7673 220.484 39.2649 220.734 39.5149C220.982 39.8899 221.356 40.1399 221.73 40.2624C222.104 40.3886 222.477 40.5136 222.851 40.5136C223.225 40.5136 223.475 40.3874 223.848 40.2624C224.223 40.1386 224.471 39.8886 224.72 39.7624C224.97 39.5149 225.219 39.2661 225.219 39.0185H226.214C225.966 39.5149 225.715 40.0136 225.341 40.3886C224.969 40.7624 224.595 41.01 224.096 41.135C223.596 41.2612 223.223 41.3837 222.725 41.3837C222.101 41.3837 221.605 41.26 220.98 40.8862C220.357 40.5136 219.984 40.1399 219.734 39.6399C219.362 39.5124 219.237 38.8886 219.237 38.1435ZM225.469 37.646C225.343 37.271 225.22 36.8972 224.971 36.5222C224.721 36.1497 224.473 35.8997 224.099 35.7759C223.725 35.5283 223.351 35.5283 222.851 35.5283C222.227 35.5283 221.73 35.6509 221.355 35.9009C220.981 36.1509 220.732 36.5234 220.484 36.7747C220.235 37.0234 220.235 37.396 220.109 37.6472L225.469 37.646Z" fill="black"/>
<path d="M227.336 38.1435C227.336 37.3948 227.461 36.7734 227.835 36.2734C228.209 35.7759 228.583 35.2783 229.082 35.0271C229.58 34.7771 230.079 34.5283 230.702 34.5283C231.075 34.5283 231.574 34.5283 231.948 34.6558C232.322 34.7783 232.696 34.9033 232.946 35.1533C233.192 35.4009 233.443 35.6497 233.567 35.8997V34.5283H234.438V40.76C234.438 41.2587 234.314 41.7551 234.191 42.1301C234.066 42.5038 233.818 42.8788 233.444 43.1276C233.071 43.3764 232.819 43.6239 232.322 43.7501C231.948 43.8751 231.449 44.0001 231.075 44.0001C230.702 44.0001 230.329 44.0001 229.954 43.8739C229.58 43.7489 229.207 43.6239 228.958 43.3764C228.709 43.1276 228.334 42.8788 228.085 42.6276C227.836 42.3788 227.711 42.0038 227.586 41.6325H228.46C228.709 42.1288 229.083 42.5026 229.457 42.8788C229.954 43.1276 230.453 43.2501 230.952 43.2501C231.45 43.2501 231.823 43.1276 232.198 43.0026C232.573 42.8788 232.947 42.5038 233.071 42.1301C233.319 41.7551 233.446 41.3825 233.446 40.8837V40.1374C232.948 41.1325 232.074 41.6337 230.828 41.6337C230.454 41.6337 229.955 41.5063 229.582 41.3825C229.207 41.2587 228.834 41.0075 228.46 40.6337C228.085 40.3874 227.836 39.8886 227.586 39.5136C227.336 39.1374 227.336 38.7661 227.336 38.1435ZM228.209 38.0161C228.209 38.6399 228.334 39.1374 228.584 39.5124C228.833 39.8874 229.082 40.26 229.58 40.5112C229.954 40.7587 230.453 40.8837 230.95 40.8837C231.324 40.8837 231.697 40.7587 232.197 40.6325C232.572 40.3862 232.946 40.1374 233.192 39.76C233.443 39.3899 233.567 38.7649 233.567 38.1435C233.567 37.7685 233.443 37.5185 233.318 37.1448C233.192 36.7734 232.946 36.5222 232.696 36.2734C232.446 36.0247 232.197 35.8997 231.822 35.6497C231.448 35.5271 231.075 35.4009 230.702 35.4009C230.079 35.4009 229.58 35.6497 229.205 35.8997C228.832 36.2734 228.583 36.5222 228.459 37.0222C228.334 37.5185 228.209 37.7685 228.209 38.0161Z" fill="black"/>
<path d="M235.937 34.0283V32.4107H236.806V34.0283H235.937ZM235.937 41.6325V34.7759H236.806V41.6325H235.937Z" fill="black"/>
<path d="M238.178 36.7734C238.178 36.6472 238.178 36.6472 238.178 36.5222C238.178 36.1497 238.302 35.7759 238.427 35.5271C238.552 35.2771 238.926 35.0271 239.175 34.9021C239.422 34.7759 239.796 34.6546 240.047 34.6546C240.295 34.6546 240.545 34.6546 240.67 34.7771C240.92 34.9033 241.045 35.0271 241.294 35.1533C241.542 35.2783 241.667 35.5283 241.791 35.7759C241.915 36.0247 241.915 36.2734 242.04 36.5222H241.167C241.167 36.1497 241.044 35.8997 240.794 35.7759C240.545 35.6497 240.419 35.5283 240.047 35.5283C239.796 35.5283 239.55 35.6509 239.422 35.7759C239.175 35.9009 239.05 36.1509 239.05 36.5222C239.05 36.5222 239.05 36.5222 239.05 36.6484C239.05 36.7747 239.05 36.7747 239.05 36.7747C239.05 37.0234 239.297 37.146 239.672 37.396C240.047 37.6472 240.419 37.6472 240.794 37.771C241.167 37.896 241.416 38.146 241.79 38.3935C242.039 38.6423 242.165 39.0185 242.165 39.5149C242.165 39.6411 242.165 39.7624 242.165 39.8899C242.165 40.2636 241.914 40.635 241.79 40.8862C241.541 41.135 241.292 41.3837 241.044 41.5087C240.794 41.6362 240.419 41.6362 240.17 41.6362C239.795 41.6362 239.422 41.5087 239.05 41.385C238.675 41.1362 238.426 40.8874 238.301 40.6362C238.177 40.2636 238.053 39.8911 238.053 39.5161H238.926C238.926 39.8911 239.051 40.2636 239.298 40.5149C239.55 40.7624 239.796 40.8874 240.171 40.8874C240.546 40.8874 240.795 40.7624 241.045 40.5149C241.294 40.2636 241.417 40.0149 241.417 39.7636C241.417 39.5161 241.294 39.2673 241.169 39.0198C241.045 38.7698 240.671 38.6435 240.296 38.521C239.797 38.3948 239.3 38.1472 238.927 37.8972C238.427 37.646 238.178 37.271 238.178 36.7734Z" fill="black"/>
<path d="M244.159 41.6325V35.6484H242.664V34.7759H244.159V32.4095H245.031V34.7759H246.651V35.6484H245.031V41.6325H244.159Z" fill="black"/>
<path d="M247.524 41.6325V34.7759H248.395V35.7734C248.77 35.0259 249.393 34.6533 250.39 34.6533V35.5259C250.14 35.5259 249.893 35.5259 249.767 35.6484C249.642 35.7747 249.268 35.8984 249.144 36.0234C249.017 36.1497 248.769 36.3984 248.644 36.6472C248.52 36.896 248.52 37.1435 248.52 37.3935V41.6325H247.524Z" fill="black"/>
<path d="M253.256 41.3813L250.639 34.7759H251.634L253.877 40.26L256.246 34.7759H257.242L253.254 43.9989H252.258L253.256 41.3813Z" fill="black"/>
</svg>
