<svg width="160" height="112" viewBox="0 0 160 112" fill="none" xmlns="http://www.w3.org/2000/svg">
<path d="M109.003 43.0911C104.125 43.0856 100.175 39.1282 100.179 34.2508C100.182 29.3733 104.138 25.4218 109.016 25.4236C113.893 25.4255 117.846 29.3799 117.846 34.2574C117.841 39.1377 113.883 43.0911 109.003 43.0911Z" fill="#CA3C32"/>
<path d="M130.234 43.0911C125.357 43.0856 121.407 39.1282 121.41 34.2508C121.414 29.3733 125.37 25.4218 130.247 25.4236C135.125 25.4255 139.078 29.3799 139.078 34.2574C139.072 39.1377 135.114 43.0911 130.234 43.0911Z" fill="#9259A3"/>
<path d="M119.623 24.699C114.744 24.699 110.789 20.744 110.789 15.8653C110.789 10.9865 114.744 7.03156 119.623 7.03156C124.502 7.03156 128.457 10.9865 128.457 15.8653C128.459 18.2089 127.529 20.4574 125.872 22.1146C124.215 23.7718 121.966 24.7016 119.623 24.699Z" fill="#399746"/>
<path d="M26.0056 43.0911C21.1269 43.0911 17.1719 39.1361 17.1719 34.2574C17.1719 29.3786 21.1269 25.4236 26.0056 25.4236C30.8843 25.4236 34.8393 29.3786 34.8393 34.2574C34.8339 39.1338 30.8821 43.0856 26.0056 43.0911Z" fill="#4D64AE"/>
<path d="M32.9234 87.2597C33.0281 90.3465 32.588 93.4275 31.6232 96.3615C30.9359 98.4419 29.6936 100.295 28.0301 101.721C26.4149 103.045 24.4878 103.933 22.4321 104.302C20.0387 104.767 17.6046 104.989 15.1666 104.967C13.5631 104.983 11.9625 104.827 10.3925 104.5C9.16634 104.253 7.98275 103.828 6.87883 103.24C6.03348 102.803 5.30513 102.17 4.75476 101.394C4.27185 100.771 4.00681 100.008 4.00042 99.22C3.98202 97.9184 4.56417 96.6809 5.57858 95.8652C6.80255 94.9146 8.329 94.4387 9.87634 94.5252C10.5096 94.5117 11.1397 94.6195 11.7324 94.8429C12.2391 95.0383 12.7166 95.3021 13.1518 95.627C13.5584 95.9553 13.9431 96.3101 14.3031 96.689C14.6108 97.086 14.8887 97.4533 15.1269 97.8007C15.5504 98.3825 16.0551 98.9006 16.6257 99.3391C16.9636 99.5716 17.3579 99.7087 17.7671 99.7361C18.1177 99.7402 18.4622 99.6437 18.7597 99.4582C19.0927 99.2093 19.3392 98.8622 19.4644 98.4657C19.6824 97.8548 19.816 97.2169 19.8614 96.5699C19.9815 95.5621 20.0345 94.5475 20.0202 93.5327V47.2102L32.9234 43.6569V87.2597ZM51.7819 44.6891V74.5253C51.7775 75.3392 51.9361 76.1458 52.2484 76.8975C52.5939 77.5877 53.0613 78.2098 53.6281 78.7337C54.2133 79.2636 54.8847 79.6899 55.6132 79.9943C56.367 80.3118 57.1773 80.4739 57.9953 80.4707C58.5491 80.4459 59.0923 80.3109 59.5933 80.0737C60.2333 79.7799 60.8336 79.4063 61.3799 78.962C62.0284 78.4695 62.6298 77.9179 63.1764 77.3144C63.7796 76.673 64.3151 75.9712 64.7744 75.2201V44.6891H77.6776V87.3689H64.7744V83.3987C63.1566 84.8208 61.3412 86.0009 59.3849 86.9024C57.6465 87.7149 55.7552 88.148 53.8365 88.1729C51.8403 88.2013 49.8558 87.8649 47.9804 87.1803C46.2462 86.5155 44.6458 85.5438 43.2559 84.3119C41.9366 83.1177 40.8672 81.6739 40.1095 80.0637C39.3473 78.4189 38.9575 76.626 38.9679 74.8131V44.6891H51.7819ZM103.395 47.3293L116.298 43.776V87.3689H103.395V47.3293ZM96.4468 87.3689H83.5436V28.0043L96.4468 24.451V87.3689ZM156 87.3689H143.097V83.9744C142.392 84.5799 141.687 85.1357 141.003 85.632C140.285 86.1492 139.521 86.5979 138.72 86.9719C137.821 87.3641 136.883 87.657 135.921 87.8454C134.683 88.068 133.426 88.1711 132.169 88.153C130.371 88.1798 128.583 87.9013 126.878 87.3292C125.421 86.8241 124.074 86.0459 122.908 85.0364C121.837 84.0597 120.988 82.8651 120.417 81.5327C119.836 80.1609 119.542 78.6848 119.553 77.1953C119.526 75.684 119.834 74.1855 120.457 72.8082C121.095 71.4933 121.951 70.2953 122.988 69.2648C124.114 68.1691 125.371 67.2157 126.73 66.4261C128.217 65.5633 129.759 64.7974 131.345 64.1333C133.003 63.4484 134.72 62.8231 136.476 62.2375L141.687 60.5402L143.107 60.2325V56.0042C143.13 54.8476 142.982 53.6939 142.67 52.5799C142.466 51.7399 142.076 50.9564 141.529 50.2871C141.071 49.6949 140.455 49.2442 139.752 48.9869C139.008 48.7153 138.221 48.5808 137.429 48.5899C136.556 48.5678 135.685 48.7023 134.859 48.9869C134.228 49.2207 133.661 49.5979 133.201 50.0886C132.78 50.5364 132.471 51.0771 132.298 51.6668C132.103 52.31 132.009 52.9798 132.02 53.6519C132.025 54.4379 131.931 55.2215 131.742 55.9844C131.597 56.7065 131.288 57.3856 130.839 57.9695C130.362 58.5344 129.751 58.9712 129.062 59.24C128.152 59.6191 127.169 59.7952 126.184 59.7561C125.337 59.7663 124.494 59.632 123.692 59.3591C122.996 59.0971 122.354 58.7103 121.797 58.2176C121.275 57.7198 120.848 57.1312 120.536 56.4807C120.247 55.796 120.099 55.0601 120.099 54.3169C120.108 52.8269 120.638 51.387 121.598 50.2474C122.709 48.8969 124.079 47.7831 125.628 46.972C127.482 46.0031 129.459 45.2887 131.504 44.848C133.821 44.3116 136.192 44.0452 138.571 44.0539C141.199 44.0096 143.823 44.2897 146.382 44.8877C148.326 45.3214 150.173 46.1087 151.831 47.2102C153.178 48.1295 154.266 49.3807 154.988 50.843C155.677 52.3382 156.017 53.971 155.98 55.6172L156 87.3689ZM143.097 65.364C141.816 65.9124 140.567 66.5321 139.355 67.2201C138.14 67.8704 136.99 68.6349 135.921 69.503C134.953 70.2591 134.1 71.1518 133.39 72.1531C132.765 72.9996 132.418 74.0192 132.397 75.0712C132.395 75.8564 132.502 76.6381 132.715 77.3938C132.906 78.0655 133.197 78.7046 133.578 79.2895C133.909 79.777 134.322 80.2034 134.799 80.5501C135.239 80.8569 135.762 81.023 136.298 81.0265C137.42 80.9851 138.51 80.6422 139.454 80.034C140.694 79.2809 141.894 78.4626 143.047 77.5824L143.097 65.364Z" fill="#1A1A1A"/>
</svg>
