<svg width="224" height="48" viewBox="0 0 224 48" fill="none" xmlns="http://www.w3.org/2000/svg">
<path d="M211.546 41.076H212.489V37.1963L215.498 41.076H216.299V35.6213H215.357V39.3926L212.435 35.6213H211.547L211.546 41.076ZM207.307 40.2821C207.057 40.2812 206.81 40.2301 206.58 40.1318C206.35 40.0334 206.143 39.8899 205.97 39.7096C205.796 39.5294 205.661 39.3162 205.572 39.0827C205.483 38.8492 205.442 38.6002 205.451 38.3504V38.3344C205.44 38.0858 205.48 37.8375 205.567 37.6046C205.654 37.3716 205.788 37.1588 205.96 36.9789C206.132 36.799 206.339 36.6558 206.567 36.5579C206.796 36.46 207.042 36.4094 207.291 36.4091C207.542 36.4109 207.789 36.4629 208.019 36.5621C208.249 36.6614 208.457 36.8058 208.63 36.9869C208.803 37.168 208.938 37.382 209.027 37.6162C209.116 37.8505 209.156 38.1001 209.147 38.3504V38.3649C209.158 38.6131 209.118 38.861 209.031 39.0935C208.943 39.326 208.809 39.5383 208.637 39.7176C208.465 39.8969 208.259 40.0395 208.03 40.1367C207.801 40.2338 207.555 40.2837 207.307 40.2831V40.2821ZM207.291 41.171C207.666 41.1799 208.038 41.1133 208.387 40.9751C208.735 40.837 209.052 40.6303 209.319 40.3671C209.586 40.1039 209.797 39.7898 209.94 39.4433C210.083 39.0969 210.155 38.7252 210.151 38.3504V38.3344C210.141 37.5831 209.835 36.866 209.3 36.3389C208.764 35.8119 208.042 35.5174 207.291 35.5195C206.54 35.5217 205.819 35.8202 205.287 36.3503C204.754 36.8803 204.453 37.5991 204.447 38.3504V38.3649C204.442 38.7381 204.512 39.1084 204.654 39.4537C204.795 39.799 205.005 40.1121 205.271 40.3742C205.537 40.6363 205.852 40.842 206.2 40.9789C206.547 41.1158 206.918 41.1812 207.291 41.171ZM202.039 41.077H202.997V35.6213H202.039V41.077ZM198.041 41.077H199.007V36.5096H200.738V35.6213H196.311V36.5096H198.041V41.077ZM192.437 38.911L193.371 36.7292L194.314 38.911H192.437ZM190.543 41.076H191.526L192.086 39.7589H194.665L195.218 41.076H196.231L193.832 35.5824H192.944L190.543 41.076ZM188.362 41.076H189.32V35.6213H188.362L188.362 41.076ZM184.852 41.17C185.27 41.1835 185.685 41.1038 186.068 40.9367C186.451 40.7697 186.792 40.5194 187.066 40.2042L186.45 39.5812C186.252 39.8002 186.01 39.9757 185.741 40.0964C185.471 40.2171 185.18 40.2804 184.884 40.2824C184.638 40.2777 184.395 40.2236 184.17 40.1232C183.945 40.0228 183.743 39.8782 183.575 39.698C183.407 39.5179 183.277 39.3057 183.192 39.0743C183.108 38.8429 183.071 38.5968 183.083 38.3508V38.3347C183.071 38.0891 183.109 37.8437 183.194 37.613C183.279 37.3822 183.409 37.1708 183.577 36.9913C183.745 36.8118 183.947 36.6678 184.171 36.5678C184.396 36.4679 184.638 36.414 184.884 36.4095C185.171 36.4158 185.454 36.4791 185.716 36.5954C185.978 36.7118 186.214 36.8791 186.411 37.0875L187.027 36.3792C186.749 36.0971 186.416 35.876 186.048 35.7301C185.681 35.5841 185.287 35.5165 184.891 35.5315C184.519 35.5243 184.15 35.5923 183.805 35.7316C183.46 35.8709 183.146 36.0786 182.884 36.3421C182.621 36.6057 182.414 36.9196 182.276 37.2651C182.138 37.6105 182.071 37.9804 182.079 38.3524V38.3669C182.071 38.7349 182.137 39.1009 182.272 39.4431C182.408 39.7852 182.612 40.0965 182.87 40.3583C183.129 40.6202 183.438 40.8273 183.779 40.9672C184.119 41.1072 184.484 41.1771 184.852 41.1729V41.17ZM178.081 40.285C177.831 40.2841 177.584 40.233 177.354 40.1347C177.124 40.0363 176.917 39.8928 176.744 39.7126C176.57 39.5323 176.435 39.3191 176.346 39.0856C176.257 38.8521 176.216 38.6031 176.225 38.3533V38.3372C176.214 38.0887 176.253 37.8404 176.341 37.6075C176.428 37.3745 176.562 37.1617 176.734 36.9818C176.906 36.8019 177.112 36.6587 177.341 36.5608C177.57 36.4629 177.816 36.4123 178.065 36.412C178.315 36.4138 178.563 36.4658 178.793 36.565C179.023 36.6643 179.231 36.8087 179.404 36.9898C179.577 37.1709 179.712 37.3849 179.801 37.6191C179.89 37.8533 179.93 38.103 179.921 38.3533V38.3678C179.932 38.616 179.892 38.8639 179.805 39.0964C179.717 39.3289 179.583 39.5412 179.411 39.7205C179.239 39.8998 179.033 40.0424 178.804 40.1396C178.575 40.2367 178.329 40.2866 178.081 40.286V40.285ZM178.065 41.1739C178.44 41.1828 178.812 41.1162 179.161 40.9781C179.509 40.84 179.826 40.6333 180.093 40.3701C180.36 40.1069 180.571 39.7927 180.714 39.4463C180.857 39.0998 180.928 38.7281 180.925 38.3533V38.3372C180.911 37.5882 180.604 36.8745 180.069 36.3502C179.534 35.8259 178.814 35.5332 178.065 35.5353C177.316 35.5374 176.598 35.8342 176.066 36.3615C175.533 36.8888 175.23 37.6043 175.221 38.3533V38.3678C175.216 38.741 175.286 39.1113 175.428 39.4565C175.569 39.8018 175.779 40.1149 176.045 40.377C176.311 40.6391 176.626 40.8448 176.974 40.9817C177.321 41.1187 177.692 41.184 178.065 41.1739ZM172.15 41.1581C173.296 41.1581 174.098 40.5509 174.098 39.5297V39.5136C174.098 38.6096 173.507 38.1969 172.353 37.9158C171.301 37.6666 171.052 37.4796 171.052 37.0582V37.0437C171.052 36.6844 171.379 36.3959 171.94 36.3959C172.481 36.4159 173.001 36.6129 173.421 36.9568L173.936 36.2324C173.379 35.7755 172.677 35.5324 171.957 35.547C170.873 35.547 170.095 36.1931 170.095 37.129V37.1451C170.095 38.1505 170.748 38.4924 171.91 38.7735C172.923 39.0082 173.142 39.2181 173.142 39.608V39.6237C173.142 40.0281 172.768 40.3091 172.176 40.3091C171.532 40.3012 170.916 40.0472 170.454 39.5993L169.877 40.286C170.499 40.8508 171.311 41.1619 172.151 41.1581H172.15ZM167.008 41.1581C168.154 41.1581 168.956 40.5509 168.956 39.5297V39.5136C168.956 38.6096 168.364 38.1969 167.211 37.9158C166.158 37.6666 165.909 37.4796 165.909 37.0582V37.0437C165.909 36.6844 166.236 36.3959 166.798 36.3959C167.34 36.4164 167.86 36.6134 168.279 36.9568L168.794 36.2324C168.237 35.7756 167.534 35.5326 166.814 35.547C165.732 35.547 164.952 36.1931 164.952 37.129V37.1451C164.952 38.1505 165.607 38.4924 166.767 38.7735C167.781 39.0082 167.999 39.2181 167.999 39.608V39.6237C167.999 40.0281 167.625 40.3091 167.033 40.3091C166.389 40.3013 165.773 40.0473 165.31 39.5993L164.735 40.286C165.357 40.8512 166.169 41.1624 167.01 41.1581H167.008ZM160.23 38.9138L161.163 36.732L162.107 38.9138H160.23ZM158.336 41.0799H159.315L159.876 39.7628H162.455L163.008 41.0799H164.02L161.621 35.5863H160.733L158.336 41.0799Z" fill="#9C78B4"/>
<path d="M151.266 38.91L152.199 36.7282L153.142 38.91H151.266ZM149.372 41.076H150.355L150.915 39.7589H153.494L154.047 41.076H155.06L152.66 35.5824H151.77L149.372 41.076ZM147.19 41.076H148.148V35.6213H147.19V41.076ZM143.192 41.076H144.158V36.5096H145.889V35.6213H141.461V36.5096H143.191L143.192 41.076ZM135.461 41.076H136.403V37.1963L139.412 41.076H140.215V35.6213H139.272V39.3926L136.347 35.6213H135.46L135.461 41.076ZM130.006 41.076H134.087V40.2196H130.962V38.7535H133.698V37.8975H130.962V36.4777H134.048V35.6213H130.004L130.006 41.076ZM123.007 41.076H123.95V37.1789L125.656 39.7345H125.688L127.411 37.1631V41.0747H128.368V35.6213H127.349L125.688 38.2001L124.028 35.6213H123.007V41.076ZM117.552 41.076H121.635V40.2196H118.51V38.7535H121.246V37.8975H118.51V36.4777H121.595V35.6213H117.551L117.552 41.076ZM113.256 36.4935C113.506 36.4788 113.756 36.5164 113.989 36.604C114.223 36.6916 114.437 36.8271 114.615 37.0019C114.793 37.1767 114.933 37.3868 115.026 37.6189C115.118 37.851 115.161 38.0999 115.151 38.3495V38.364C115.16 38.6127 115.117 38.8606 115.024 39.0916C114.932 39.3226 114.791 39.5315 114.613 39.7049C114.434 39.8783 114.221 40.0124 113.988 40.0983C113.754 40.1842 113.505 40.2202 113.256 40.2039H112.182V36.4935H113.256ZM111.224 41.076H113.256C114.972 41.076 116.154 39.8848 116.154 38.3495V38.3334C116.154 36.7977 114.97 35.6213 113.256 35.6213H111.224V41.076ZM104.444 41.076H105.41V38.9013L107.577 35.6213H106.477L104.935 38.0292L103.416 35.6213H102.278L104.445 38.9261L104.444 41.076ZM99.0502 36.4935C99.2995 36.4788 99.5491 36.5165 99.7829 36.6041C100.017 36.6917 100.23 36.8272 100.408 37.002C100.586 37.1768 100.726 37.387 100.819 37.6191C100.911 37.8511 100.953 38.0999 100.944 38.3495V38.364C100.953 38.6127 100.91 38.8605 100.817 39.0915C100.724 39.3224 100.584 39.5314 100.406 39.7048C100.227 39.8782 100.015 40.0122 99.781 40.0982C99.5475 40.1842 99.2985 40.2202 99.0502 40.2039H97.9739V36.4935H99.0502ZM97.0161 41.076H99.0502C100.765 41.076 101.948 39.8848 101.948 38.3495V38.3334C101.948 36.7977 100.764 35.6213 99.0502 35.6213H97.0161V41.076ZM92.7771 40.2821C92.5272 40.2812 92.28 40.2301 92.0503 40.1318C91.8206 40.0334 91.6129 39.8899 91.4398 39.7096C91.2667 39.5294 91.1316 39.3162 91.0425 39.0827C90.9535 38.8492 90.9123 38.6002 90.9215 38.3504V38.3344C90.9104 38.0858 90.9498 37.8375 91.0373 37.6046C91.1247 37.3716 91.2585 37.1588 91.4304 36.9789C91.6023 36.799 91.8088 36.6558 92.0376 36.5579C92.2663 36.46 92.5125 36.4094 92.7614 36.4091C93.0118 36.4109 93.2593 36.463 93.4892 36.5622C93.7191 36.6615 93.9267 36.806 94.0997 36.9871C94.2726 37.1682 94.4075 37.3822 94.4961 37.6164C94.5848 37.8506 94.6254 38.1002 94.6157 38.3504V38.3649C94.6267 38.613 94.5872 38.8608 94.4998 39.0932C94.4123 39.3257 94.2785 39.538 94.1067 39.7172C93.9348 39.8965 93.7284 40.0391 93.4999 40.1364C93.2714 40.2336 93.0255 40.2835 92.7771 40.2831V40.2821ZM92.7614 41.171C93.136 41.1799 93.5086 41.1133 93.857 40.9751C94.2054 40.837 94.5225 40.6303 94.7893 40.3671C95.0561 40.1039 95.2673 39.7898 95.4102 39.4433C95.5531 39.0969 95.6249 38.7252 95.6212 38.3504V38.3344C95.6113 37.5831 95.3055 36.866 94.77 36.3389C94.2345 35.8119 93.5126 35.5174 92.7613 35.5195C92.0099 35.5217 91.2897 35.8202 90.7572 36.3503C90.2247 36.8803 89.9229 37.5991 89.9173 38.3504V38.3649C89.9121 38.7381 89.9825 39.1084 90.124 39.4537C90.2656 39.799 90.4755 40.1121 90.7412 40.3742C91.0068 40.6363 91.3227 40.842 91.6699 40.9789C92.0171 41.1158 92.3883 41.1812 92.7614 41.171ZM87.8833 39.4647V39.4808C87.8833 39.9717 87.485 40.2283 86.8302 40.2283H85.2395V38.7316H86.7607C87.5169 38.7316 87.8833 39.004 87.8833 39.4647ZM87.5791 37.1815C87.5791 37.6798 87.1663 37.9219 86.5488 37.9219H85.2392V36.4732H86.6197C87.2355 36.4732 87.5787 36.7385 87.5787 37.1673L87.5791 37.1815ZM84.2978 41.077H86.8228C88.0385 41.077 88.8411 40.5554 88.8411 39.5819V39.5658C88.8411 38.8253 88.3961 38.4589 87.7587 38.2403C87.9941 38.1374 88.1936 37.9669 88.3321 37.7505C88.4706 37.5342 88.5419 37.2816 88.5368 37.0247V37.0089C88.5412 36.8411 88.5109 36.6742 88.4478 36.5187C88.3847 36.3631 88.2902 36.2222 88.1701 36.1049C87.9759 35.9347 87.75 35.8045 87.5054 35.7216C87.2608 35.6387 87.0023 35.6049 86.7446 35.622H84.2978V41.077ZM77.5177 41.077H78.4835V38.9013L80.6496 35.6213H79.5514L78.0084 38.0292L76.4888 35.6213H75.3517L77.5177 38.9261V41.077ZM68.618 41.1159H69.4437L70.784 37.1973L72.1239 41.1159H72.9584L74.852 35.6223H73.8466L72.5456 39.6672L71.2041 35.6065H70.3938L69.0539 39.6672L67.7529 35.6223H66.7156L68.618 41.1159ZM61.6814 41.077H65.7639V40.2206H62.6392V38.7545H65.3757V37.8984H62.6392V36.4787H65.725V35.6223H61.6814V41.077ZM56.624 41.077H60.45V40.2052H57.5805V35.6213H56.623L56.624 41.077Z" fill="#624C67"/>
<path d="M126.022 21.9787L128.805 15.1857L131.588 21.9787H126.022ZM117.763 30.7477H122.461L124.376 26.0496H133.234L135.15 30.7477H139.967L130.99 9.6499H126.74L117.763 30.7477ZM105.522 13.9585C109.293 13.9585 111.837 16.5633 111.837 20.2733V20.3329C111.837 24.0446 109.294 26.5886 105.522 26.5886H101.961V13.9585H105.522ZM97.3529 30.7477H105.522C112.105 30.7477 116.654 26.1684 116.654 20.2733V20.2141C116.654 14.3177 112.105 9.79896 105.522 9.79896H97.3529V30.7477ZM88.6733 24.3733V24.4328C88.6733 25.9901 87.4464 26.7074 85.4124 26.7074H79.9362V22.0988H85.2617C87.6261 22.0988 88.6743 22.968 88.6743 24.3733H88.6733ZM87.5082 16.0533C87.5082 17.6106 86.2205 18.2683 84.1861 18.2683H79.9365V13.8397H84.4839C86.4297 13.8397 87.5076 14.6175 87.5076 15.9938L87.5082 16.0533ZM75.4463 30.7477H85.4124C90.1411 30.7477 93.253 28.8325 93.253 25.002V24.9428C93.253 22.1293 91.7563 20.7225 89.3327 19.7953C90.8291 18.9582 92.0853 17.6382 92.0853 15.2752V15.216C92.1038 14.5556 91.9858 13.8984 91.7388 13.2857C91.4917 12.673 91.1208 12.1178 90.6494 11.655C89.4531 10.4577 87.5665 9.79896 85.1712 9.79896H75.4463V30.7477ZM56.623 30.7477H71.6754V26.558H61.2313V9.79896H56.623V30.7477Z" fill="#624C67"/>
<path d="M17.7247 29.0052C16.9094 27.081 16.5711 24.9884 16.7383 22.9054C16.9056 20.8223 17.5735 18.8105 18.6853 17.0411C19.7971 15.2717 21.3198 13.797 23.124 12.7425C24.9282 11.688 26.9604 11.0849 29.0477 10.9845C29.4199 10.7932 29.7978 10.6107 30.1861 10.4468C33.8651 8.89892 37.9667 8.67321 41.7934 9.8081C39.2858 7.31818 36.1634 5.5371 32.7438 4.64613C29.3242 3.75517 25.7296 3.78614 22.3258 4.73589C18.9221 5.68565 15.8308 7.52027 13.3665 10.053C10.9023 12.5858 9.15307 15.7262 8.29697 19.1547C7.44086 22.5832 7.50843 26.1773 8.49279 29.5712C9.47715 32.9651 11.3432 36.0375 13.9009 38.4759C16.4586 40.9142 19.6167 42.6314 23.0537 43.4525C26.4907 44.2737 30.0839 44.1695 33.4676 43.1507C30.1538 42.48 27.1118 40.8456 24.7234 38.4526C23.4341 37.1644 22.3583 35.6791 21.5361 34.0526C21.1773 33.7638 20.834 33.4562 20.5075 33.1312C19.3218 31.9488 18.3767 30.5476 17.7247 29.0052Z" fill="#A188A8"/>
<path d="M36.8795 10.4575C35.256 10.4564 33.642 10.705 32.0941 11.1948C33.884 11.5327 35.5828 12.2434 37.08 13.2808C38.5772 14.3181 39.8394 15.6589 40.7845 17.216C41.7296 18.7731 42.3365 20.5117 42.5658 22.3187C42.795 24.1257 42.6415 25.9607 42.1151 27.7045C41.5887 29.4483 40.7014 31.0618 39.5106 32.4402C38.3199 33.8185 36.8524 34.9309 35.2036 35.7051C33.5548 36.4792 31.7616 36.8977 29.9404 36.9335C28.1193 36.9692 26.311 36.6214 24.6331 35.9125C24.4651 35.8417 24.2999 35.7663 24.1348 35.6871C25.7395 37.8646 27.8753 39.5947 30.3385 40.7124C32.8016 41.8301 35.5101 42.2983 38.2055 42.0722C40.901 41.8461 43.4935 40.9333 45.7361 39.4209C47.9786 37.9084 49.7964 35.8467 51.016 33.4324C52.2356 31.018 52.8164 28.3315 52.7031 25.629C52.5897 22.9264 51.786 20.298 50.3685 17.9943C48.951 15.6905 46.967 13.7883 44.6056 12.4689C42.2443 11.1496 39.5844 10.4571 36.8795 10.4575Z" fill="#87678B"/>
<path d="M29.7004 35.5327C32.771 35.5166 35.7102 34.2855 37.8757 32.1085C40.0412 29.9316 41.2568 26.9859 41.2568 23.9153C41.2568 20.8447 40.0412 17.899 37.8757 15.7221C35.7102 13.5451 32.771 12.314 29.7004 12.2979C29.5613 12.2979 29.4251 12.3036 29.2874 12.3094C29.483 12.8382 29.71 13.3549 29.967 13.8567C30.71 15.2433 30.9289 17.7467 31.5925 19.1404C32.24 20.4335 32.8141 21.7622 33.312 23.1199C33.4022 23.3828 33.4477 23.659 33.4465 23.937C33.4465 24.4544 32.0979 24.2979 32.0487 24.7992C32.0313 24.973 32.0124 25.1469 31.992 25.3207C31.9688 25.5351 32.5164 25.7959 32.3181 26.3986C32.2537 26.5918 31.4083 26.8374 31.0983 26.9881C31.3516 27.2286 32.1658 27.7414 32.1427 27.9487C32.0544 28.7629 31.2676 28.6152 31.1533 29.0672C30.606 31.2403 31.1388 31.8922 29.5407 32.1456C25.9582 32.7122 27.7057 34.5968 27.6445 35.3473C28.3234 35.4695 29.0118 35.5315 29.7017 35.5327" fill="#634C67"/>
<path d="M28.6925 16.2772C28.6464 16.2792 28.6019 16.2948 28.5647 16.3221C28.5275 16.3494 28.4992 16.3871 28.4834 16.4305C28.4676 16.4739 28.465 16.521 28.476 16.5658C28.487 16.6107 28.511 16.6512 28.545 16.6824C28.579 16.7136 28.6215 16.734 28.6671 16.741C28.7128 16.7481 28.7594 16.7414 28.8013 16.7219C28.8431 16.7024 28.8782 16.671 28.9022 16.6315C28.9262 16.5921 28.9379 16.5464 28.9359 16.5003C28.9347 16.4696 28.9274 16.4395 28.9145 16.4116C28.9016 16.3838 28.8833 16.3588 28.8607 16.338C28.8381 16.3173 28.8116 16.3012 28.7827 16.2908C28.7538 16.2803 28.7232 16.2757 28.6925 16.2772ZM28.3062 14.9286C28.2596 14.9299 28.2145 14.9451 28.1766 14.9722C28.1387 14.9993 28.1096 15.037 28.0932 15.0806C28.0768 15.1242 28.0737 15.1717 28.0843 15.2171C28.0949 15.2624 28.1188 15.3036 28.1529 15.3354C28.187 15.3672 28.2297 15.3881 28.2757 15.3955C28.3217 15.4029 28.3689 15.3965 28.4112 15.377C28.4536 15.3576 28.4892 15.326 28.5135 15.2863C28.5379 15.2465 28.5499 15.2005 28.548 15.1539C28.5469 15.1232 28.5398 15.0931 28.5271 15.0651C28.5144 15.0372 28.4963 15.012 28.4738 14.9911C28.4514 14.9701 28.425 14.9538 28.3962 14.9431C28.3675 14.9324 28.3369 14.9274 28.3062 14.9286ZM27.5686 13.3768C27.4804 13.3802 27.3951 13.4098 27.3237 13.4617C27.2522 13.5136 27.1977 13.5855 27.1671 13.6683C27.1365 13.7512 27.1312 13.8412 27.1518 13.9271C27.1724 14.013 27.218 14.0908 27.2828 14.1508C27.3476 14.2108 27.4288 14.2502 27.516 14.264C27.6032 14.2779 27.6926 14.2655 27.7728 14.2286C27.853 14.1916 27.9205 14.1317 27.9667 14.0564C28.0128 13.9812 28.0356 13.8939 28.0322 13.8056C28.0299 13.747 28.0161 13.6895 27.9916 13.6362C27.9671 13.5829 27.9323 13.535 27.8892 13.4952C27.8462 13.4554 27.7957 13.4244 27.7407 13.4041C27.6857 13.3838 27.6272 13.3745 27.5686 13.3768ZM22.8731 22.7009C22.9236 22.7005 22.9728 22.6852 23.0146 22.6568C23.0564 22.6285 23.0889 22.5884 23.1079 22.5416C23.127 22.4948 23.1317 22.4435 23.1216 22.394C23.1115 22.3445 23.0869 22.2991 23.051 22.2636C23.0151 22.2281 22.9695 22.204 22.9199 22.1943C22.8704 22.1847 22.819 22.19 22.7724 22.2095C22.7259 22.229 22.6861 22.2618 22.6582 22.3039C22.6302 22.346 22.6154 22.3954 22.6155 22.4459C22.6156 22.4796 22.6223 22.5129 22.6353 22.544C22.6483 22.5751 22.6673 22.6033 22.6912 22.627C22.7152 22.6507 22.7436 22.6695 22.7748 22.6821C22.806 22.6948 22.8394 22.7012 22.8731 22.7009ZM26.0645 22.5721C26.1572 22.5723 26.2479 22.545 26.3251 22.4936C26.4023 22.4423 26.4625 22.3692 26.4982 22.2836C26.5338 22.198 26.5433 22.1037 26.5254 22.0127C26.5074 21.9218 26.4629 21.8382 26.3975 21.7725C26.332 21.7068 26.2486 21.662 26.1577 21.6438C26.0668 21.6255 25.9725 21.6347 25.8868 21.67C25.801 21.7054 25.7277 21.7654 25.6761 21.8424C25.6245 21.9194 25.5968 22.01 25.5967 22.1027C25.5964 22.1643 25.6082 22.2254 25.6315 22.2824C25.6548 22.3394 25.6892 22.3913 25.7326 22.435C25.776 22.4788 25.8276 22.5135 25.8844 22.5372C25.9413 22.561 26.0022 22.5733 26.0639 22.5734L26.0645 22.5721ZM20.9128 21.5506C20.8116 21.5505 20.7127 21.5805 20.6285 21.6366C20.5443 21.6928 20.4787 21.7727 20.4399 21.8662C20.4012 21.9596 20.391 22.0625 20.4107 22.1618C20.4304 22.261 20.4791 22.3522 20.5506 22.4238C20.6221 22.4953 20.7133 22.5441 20.8125 22.5639C20.9118 22.5836 21.0147 22.5735 21.1082 22.5348C21.2017 22.4961 21.2816 22.4305 21.3378 22.3464C21.394 22.2623 21.424 22.1633 21.424 22.0622C21.4242 21.9949 21.4112 21.9284 21.3856 21.8662C21.3599 21.8041 21.3223 21.7476 21.2748 21.7001C21.2273 21.6525 21.1708 21.6148 21.1087 21.5892C21.0466 21.5635 20.98 21.5504 20.9128 21.5506ZM20.4463 18.8282C20.5388 18.828 20.6292 18.8003 20.706 18.7487C20.7829 18.6971 20.8427 18.6239 20.8779 18.5383C20.9131 18.4527 20.9222 18.3586 20.9039 18.2679C20.8857 18.1772 20.841 18.0939 20.7754 18.0286C20.7099 17.9633 20.6264 17.9188 20.5357 17.9009C20.4449 17.883 20.3508 17.8924 20.2654 17.9279C20.1799 17.9634 20.1069 18.0235 20.0555 18.1004C20.0042 18.1774 19.9768 18.2679 19.9769 18.3605C19.9772 18.4847 20.0267 18.6038 20.1148 18.6915C20.2028 18.7792 20.322 18.8284 20.4463 18.8282ZM21.2969 17.7214C21.3558 17.7215 21.4134 17.7042 21.4624 17.6716C21.5115 17.639 21.5497 17.5925 21.5724 17.5382C21.595 17.4838 21.6011 17.4239 21.5897 17.3661C21.5783 17.3084 21.5501 17.2552 21.5085 17.2135C21.467 17.1718 21.414 17.1433 21.3562 17.1317C21.2985 17.1201 21.2386 17.1258 21.1841 17.1482C21.1297 17.1707 21.0831 17.2087 21.0503 17.2576C21.0174 17.3065 20.9998 17.3641 20.9997 17.423C20.9996 17.5019 21.0309 17.5777 21.0866 17.6336C21.1423 17.6896 21.2179 17.7212 21.2969 17.7214ZM26.0226 14.7396C26.073 14.7391 26.122 14.7237 26.1636 14.6954C26.2052 14.667 26.2375 14.627 26.2564 14.5804C26.2753 14.5338 26.28 14.4826 26.2698 14.4333C26.2597 14.384 26.2352 14.3388 26.1995 14.3034C26.1637 14.268 26.1183 14.244 26.0689 14.2344C26.0195 14.2247 25.9684 14.2299 25.9219 14.2493C25.8755 14.2687 25.8358 14.3013 25.8079 14.3432C25.78 14.3851 25.7651 14.4343 25.7651 14.4846C25.7652 14.5183 25.7719 14.5516 25.7849 14.5827C25.7979 14.6137 25.8169 14.6419 25.8409 14.6656C25.8648 14.6893 25.8932 14.7081 25.9244 14.7207C25.9556 14.7334 25.989 14.7398 26.0226 14.7396ZM24.3624 15.2515C24.4213 15.2513 24.4789 15.2337 24.5278 15.2009C24.5767 15.1681 24.6147 15.1214 24.6372 15.067C24.6596 15.0125 24.6653 14.9526 24.6537 14.8948C24.642 14.8371 24.6135 14.7841 24.5718 14.7425C24.53 14.701 24.4768 14.6728 24.419 14.6614C24.3612 14.6501 24.3013 14.6562 24.247 14.6789C24.1926 14.7016 24.1462 14.7399 24.1136 14.789C24.081 14.8381 24.0638 14.8957 24.064 14.9546C24.0645 15.0335 24.0961 15.1089 24.152 15.1645C24.2079 15.2201 24.2835 15.2514 24.3624 15.2515ZM22.7875 16.102C22.7032 16.102 22.6209 16.127 22.5508 16.1738C22.4808 16.2206 22.4262 16.2871 22.3939 16.365C22.3617 16.4428 22.3533 16.5284 22.3697 16.6111C22.3861 16.6937 22.4267 16.7696 22.4863 16.8291C22.5458 16.8887 22.6217 16.9293 22.7044 16.9457C22.787 16.9622 22.8726 16.9537 22.9505 16.9215C23.0283 16.8892 23.0948 16.8346 23.1416 16.7646C23.1884 16.6946 23.2134 16.6122 23.2134 16.528C23.2132 16.4151 23.1683 16.3068 23.0884 16.227C23.0086 16.1471 22.9004 16.1022 22.7875 16.102ZM19.3816 20.4438C19.449 20.4438 19.5149 20.4238 19.5709 20.3863C19.6269 20.3489 19.6706 20.2957 19.6963 20.2334C19.7221 20.1712 19.7288 20.1026 19.7157 20.0366C19.7025 19.9705 19.67 19.9098 19.6224 19.8622C19.5747 19.8145 19.514 19.7821 19.4479 19.769C19.3818 19.7559 19.3133 19.7627 19.2511 19.7885C19.1888 19.8144 19.1357 19.8581 19.0983 19.9141C19.0609 19.9702 19.041 20.0361 19.041 20.1035C19.0413 20.1937 19.0772 20.2801 19.1411 20.3439C19.2049 20.4077 19.2914 20.4436 19.3816 20.4438ZM19.5104 21.7215C19.5862 21.7214 19.6602 21.6988 19.7232 21.6566C19.7861 21.6144 19.8351 21.5544 19.864 21.4844C19.8929 21.4143 19.9003 21.3372 19.8854 21.2629C19.8704 21.1886 19.8338 21.1204 19.7801 21.067C19.7264 21.0135 19.658 20.9771 19.5837 20.9625C19.5093 20.9479 19.4323 20.9557 19.3623 20.9848C19.2924 21.014 19.2327 21.0632 19.1907 21.1264C19.1488 21.1895 19.1265 21.2636 19.1267 21.3394C19.1266 21.3898 19.1364 21.4398 19.1557 21.4864C19.1749 21.5329 19.2032 21.5753 19.2389 21.6109C19.2745 21.6466 19.3169 21.6749 19.3635 21.6941C19.41 21.7134 19.46 21.7232 19.5104 21.7231V21.7215ZM29.13 19.1692C29.2059 19.1691 29.28 19.1466 29.3431 19.1043C29.4061 19.0621 29.4552 19.0022 29.4841 18.932C29.5131 18.8619 29.5206 18.7848 29.5057 18.7104C29.4908 18.636 29.4541 18.5677 29.4004 18.5142C29.3466 18.4606 29.2782 18.4242 29.2038 18.4095C29.1294 18.3949 29.0523 18.4026 28.9822 18.4318C28.9122 18.461 28.8524 18.5103 28.8104 18.5735C28.7684 18.6366 28.7461 18.7109 28.7463 18.7867C28.7464 18.837 28.7564 18.8868 28.7757 18.9333C28.795 18.9797 28.8233 19.0219 28.8589 19.0574C28.8946 19.0929 28.9369 19.1211 28.9834 19.1403C29.0299 19.1594 29.0797 19.1693 29.13 19.1692ZM28.5766 17.978C28.6441 17.9782 28.7102 17.9584 28.7664 17.921C28.8226 17.8836 28.8665 17.8305 28.8925 17.7682C28.9185 17.7059 28.9255 17.6372 28.9124 17.571C28.8994 17.5048 28.8671 17.4439 28.8195 17.396C28.7718 17.3482 28.7111 17.3155 28.6449 17.3022C28.5787 17.2889 28.5101 17.2955 28.4477 17.3212C28.3852 17.3469 28.3318 17.3905 28.2942 17.4466C28.2566 17.5026 28.2364 17.5686 28.2363 17.6361C28.2362 17.7265 28.272 17.8133 28.3358 17.8774C28.3996 17.9415 28.4862 17.9777 28.5766 17.978ZM27.086 15.4224C27.145 15.4226 27.2026 15.4052 27.2517 15.3725C27.3008 15.3398 27.3391 15.2933 27.3617 15.2389C27.3843 15.1844 27.3902 15.1245 27.3788 15.0667C27.3673 15.0089 27.3389 14.9557 27.2972 14.9141C27.2556 14.8724 27.2024 14.844 27.1446 14.8325C27.0868 14.8211 27.0268 14.827 26.9724 14.8496C26.918 14.8722 26.8715 14.9105 26.8388 14.9596C26.8061 15.0087 26.7887 15.0663 26.7889 15.1253C26.789 15.204 26.8204 15.2795 26.8761 15.3352C26.9318 15.3909 27.0073 15.4223 27.086 15.4224ZM23.3837 21.8085C23.451 21.8085 23.5168 21.7885 23.5728 21.7511C23.6288 21.7138 23.6724 21.6607 23.6983 21.5985C23.7241 21.5363 23.7309 21.4679 23.7179 21.4019C23.7048 21.3358 23.6725 21.2751 23.625 21.2275C23.5775 21.1798 23.5169 21.1472 23.4509 21.1339C23.3849 21.1206 23.3165 21.1272 23.2542 21.1528C23.192 21.1784 23.1387 21.2218 23.1011 21.2777C23.0635 21.3335 23.0433 21.3992 23.0431 21.4666C23.043 21.5114 23.0517 21.5558 23.0688 21.5972C23.0859 21.6386 23.1109 21.6763 23.1426 21.7081C23.1742 21.7398 23.2118 21.765 23.2531 21.7822C23.2945 21.7995 23.3389 21.8084 23.3837 21.8085ZM22.1072 21.8925C22.1576 21.8925 22.2069 21.8775 22.2488 21.8495C22.2908 21.8215 22.3235 21.7817 22.3428 21.7351C22.3621 21.6885 22.3671 21.6372 22.3573 21.5878C22.3474 21.5383 22.3231 21.4929 22.2875 21.4572C22.2518 21.4216 22.2064 21.3973 22.1569 21.3874C22.1075 21.3776 22.0562 21.3826 22.0096 21.4019C21.963 21.4212 21.9232 21.4539 21.8952 21.4959C21.8672 21.5378 21.8522 21.5871 21.8522 21.6375C21.8521 21.671 21.8587 21.7042 21.8714 21.7352C21.8842 21.7662 21.903 21.7943 21.9267 21.818C21.9504 21.8417 21.9785 21.8605 22.0095 21.8733C22.0405 21.886 22.0737 21.8926 22.1072 21.8925ZM20.5744 21.1276C20.6419 21.1277 20.708 21.1079 20.7642 21.0706C20.8204 21.0332 20.8643 20.98 20.8903 20.9177C20.9163 20.8554 20.9233 20.7868 20.9103 20.7206C20.8972 20.6543 20.8649 20.5934 20.8173 20.5456C20.7696 20.4977 20.7089 20.4651 20.6427 20.4517C20.5765 20.4384 20.5079 20.445 20.4455 20.4707C20.383 20.4964 20.3296 20.5401 20.292 20.5961C20.2544 20.6522 20.2343 20.7181 20.2341 20.7857C20.234 20.8761 20.2698 20.9628 20.3336 21.0269C20.3974 21.091 20.484 21.1272 20.5744 21.1276ZM22.1494 20.7857C22.2587 20.7855 22.3655 20.753 22.4564 20.6921C22.5472 20.6313 22.6179 20.5449 22.6597 20.4438C22.7014 20.3428 22.7122 20.2316 22.6907 20.1244C22.6693 20.0172 22.6165 19.9188 22.5391 19.8416C22.4617 19.7643 22.3632 19.7118 22.2559 19.6906C22.1487 19.6694 22.0375 19.6805 21.9366 19.7224C21.8356 19.7644 21.7494 19.8353 21.6887 19.9263C21.6281 20.0173 21.5958 20.1242 21.5959 20.2335C21.5963 20.3801 21.6547 20.5205 21.7585 20.624C21.8622 20.7275 22.0028 20.7857 22.1494 20.7857ZM20.531 19.8498C20.5899 19.85 20.6475 19.8327 20.6966 19.8001C20.7457 19.7675 20.784 19.7211 20.8067 19.6668C20.8294 19.6124 20.8355 19.5525 20.8242 19.4947C20.8128 19.4369 20.7846 19.3837 20.7431 19.342C20.7015 19.3002 20.6485 19.2717 20.5908 19.2601C20.533 19.2484 20.4731 19.2542 20.4186 19.2766C20.3642 19.299 20.3175 19.337 20.2847 19.386C20.2519 19.4349 20.2343 19.4924 20.2341 19.5513C20.234 19.6302 20.2652 19.7059 20.3209 19.7619C20.3765 19.8178 20.4521 19.8494 20.531 19.8498ZM21.5103 18.9979C21.5888 18.9857 21.6594 18.9436 21.7075 18.8804C21.7555 18.8171 21.7771 18.7378 21.7679 18.6589C21.7679 18.469 21.6533 18.317 21.5103 18.317C21.3674 18.317 21.2553 18.469 21.2553 18.6589C21.2553 18.8489 21.3699 18.9979 21.5103 18.9979ZM22.3203 17.6361C22.3623 17.636 22.4033 17.6234 22.4381 17.6C22.473 17.5766 22.5001 17.5434 22.5161 17.5046C22.5321 17.4658 22.5363 17.4232 22.528 17.382C22.5198 17.3408 22.4996 17.303 22.4699 17.2734C22.4402 17.2437 22.4024 17.2235 22.3613 17.2152C22.3201 17.207 22.2775 17.2112 22.2387 17.2272C22.1999 17.2432 22.1667 17.2703 22.1433 17.3052C22.1199 17.34 22.1073 17.381 22.1072 17.423C22.1071 17.451 22.1126 17.4787 22.1232 17.5046C22.1339 17.5305 22.1496 17.5541 22.1694 17.5739C22.1892 17.5937 22.2128 17.6094 22.2387 17.62C22.2646 17.6307 22.2923 17.6362 22.3203 17.6361ZM24.0224 16.8696C24.0982 16.8694 24.1722 16.8468 24.2352 16.8046C24.2981 16.7624 24.3471 16.7025 24.376 16.6325C24.4049 16.5624 24.4123 16.4854 24.3974 16.4111C24.3825 16.3368 24.3459 16.2686 24.2922 16.2151C24.2386 16.1616 24.1702 16.1252 24.0959 16.1106C24.0215 16.0959 23.9445 16.1036 23.8746 16.1327C23.8046 16.1619 23.7449 16.2111 23.7029 16.2741C23.6609 16.3372 23.6385 16.4113 23.6387 16.4871C23.6386 16.5374 23.6485 16.5873 23.6678 16.6338C23.6871 16.6803 23.7154 16.7225 23.7511 16.7581C23.7867 16.7936 23.829 16.8218 23.8756 16.8409C23.9222 16.86 23.9721 16.8698 24.0224 16.8696ZM27.0026 21.6375C27.0785 21.6374 27.1526 21.6148 27.2156 21.5725C27.2786 21.5303 27.3276 21.4703 27.3565 21.4001C27.3854 21.33 27.3929 21.2529 27.3779 21.1785C27.363 21.1042 27.3263 21.0359 27.2726 20.9824C27.2188 20.9289 27.1504 20.8925 27.076 20.8779C27.0015 20.8632 26.9245 20.871 26.8544 20.9002C26.7844 20.9294 26.7247 20.9787 26.6827 21.0418C26.6407 21.105 26.6184 21.1792 26.6186 21.255C26.6186 21.3054 26.6287 21.3552 26.648 21.4017C26.6674 21.4482 26.6957 21.4904 26.7313 21.5259C26.767 21.5614 26.8093 21.5895 26.8559 21.6087C26.9024 21.6278 26.9523 21.6376 27.0026 21.6375ZM26.3214 19.3369C26.3634 19.3367 26.4043 19.3241 26.4391 19.3006C26.4739 19.2772 26.5009 19.2439 26.5168 19.2051C26.5327 19.1663 26.5367 19.1236 26.5284 19.0825C26.52 19.0414 26.4997 19.0037 26.4699 18.9742C26.4401 18.9446 26.4023 18.9246 26.3611 18.9165C26.3199 18.9085 26.2773 18.9128 26.2386 18.929C26.1999 18.9452 26.1669 18.9725 26.1437 19.0075C26.1205 19.0424 26.1082 19.0835 26.1083 19.1254C26.1082 19.1533 26.1137 19.181 26.1244 19.2068C26.1351 19.2326 26.1508 19.256 26.1706 19.2757C26.1904 19.2954 26.214 19.311 26.2399 19.3215C26.2658 19.332 26.2935 19.3372 26.3214 19.3369ZM28.406 20.9553C28.4734 20.9554 28.5393 20.9355 28.5953 20.8981C28.6514 20.8607 28.6951 20.8075 28.7209 20.7453C28.7467 20.683 28.7535 20.6145 28.7404 20.5484C28.7273 20.4824 28.6949 20.4216 28.6473 20.374C28.5996 20.3263 28.539 20.2938 28.4729 20.2807C28.4068 20.2675 28.3383 20.2742 28.276 20.3C28.2138 20.3258 28.1606 20.3694 28.1231 20.4254C28.0857 20.4815 28.0657 20.5473 28.0657 20.6147C28.0656 20.6594 28.0744 20.7037 28.0915 20.745C28.1086 20.7863 28.1336 20.8239 28.1652 20.8555C28.1969 20.8872 28.2344 20.9123 28.2757 20.9294C28.317 20.9465 28.3613 20.9553 28.406 20.9553ZM28.8741 19.8485C28.9163 19.8488 28.9577 19.8366 28.9929 19.8133C29.0282 19.7901 29.0558 19.757 29.0721 19.718C29.0885 19.6791 29.093 19.6362 29.0849 19.5948C29.0769 19.5533 29.0567 19.5152 29.027 19.4852C28.9972 19.4553 28.9593 19.4348 28.9179 19.4265C28.8765 19.4181 28.8336 19.4222 28.7945 19.4383C28.7555 19.4544 28.7221 19.4817 28.6986 19.5168C28.6751 19.5519 28.6626 19.5931 28.6626 19.6354C28.6627 19.6916 28.6849 19.7455 28.7245 19.7854C28.7641 19.8253 28.8179 19.848 28.8741 19.8485ZM24.6608 22.0622C24.7451 22.0622 24.8274 22.0372 24.8975 21.9904C24.9675 21.9436 25.0221 21.877 25.0543 21.7992C25.0866 21.7214 25.095 21.6358 25.0786 21.5531C25.0621 21.4705 25.0216 21.3946 24.962 21.335C24.9024 21.2755 24.8266 21.2349 24.7439 21.2185C24.6613 21.202 24.5757 21.2105 24.4978 21.2427C24.42 21.275 24.3535 21.3295 24.3067 21.3996C24.2599 21.4696 24.2349 21.552 24.2349 21.6362C24.2347 21.6922 24.2456 21.7477 24.2669 21.7995C24.2882 21.8512 24.3196 21.8983 24.3592 21.9379C24.3988 21.9775 24.4458 22.0088 24.4976 22.0302C24.5494 22.0515 24.6048 22.0624 24.6608 22.0622ZM24.1927 19.5079C24.2348 19.5076 24.2759 19.4949 24.3108 19.4713C24.3457 19.4477 24.3728 19.4143 24.3887 19.3753C24.4047 19.3364 24.4087 19.2935 24.4003 19.2523C24.3919 19.211 24.3715 19.1731 24.3416 19.1435C24.3117 19.1138 24.2737 19.0937 24.2324 19.0856C24.191 19.0775 24.1482 19.0818 24.1094 19.0981C24.0705 19.1143 24.0373 19.1416 24.014 19.1767C23.9907 19.2118 23.9783 19.253 23.9783 19.2951C23.9782 19.3232 23.9837 19.351 23.9944 19.377C24.0052 19.403 24.021 19.4266 24.0409 19.4464C24.0609 19.4662 24.0846 19.4818 24.1106 19.4924C24.1367 19.5029 24.1646 19.5082 24.1927 19.5079ZM22.4472 19.3369C22.5143 19.3367 22.5798 19.3167 22.6355 19.2792C22.6912 19.2418 22.7346 19.1888 22.7602 19.1267C22.7858 19.0647 22.7924 18.9965 22.7792 18.9306C22.7661 18.8648 22.7337 18.8044 22.6862 18.757C22.6388 18.7096 22.5783 18.6773 22.5125 18.6642C22.4467 18.6511 22.3785 18.6577 22.3164 18.6834C22.2544 18.709 22.2014 18.7525 22.164 18.8082C22.1267 18.8639 22.1067 18.9295 22.1065 18.9966C22.1067 19.0869 22.1427 19.1734 22.2065 19.2372C22.2704 19.301 22.3569 19.3368 22.4472 19.3369ZM27.8104 17.9767C27.7429 17.9766 27.677 17.9966 27.6209 18.0341C27.5648 18.0715 27.5211 18.1248 27.4953 18.1871C27.4695 18.2495 27.4628 18.318 27.4761 18.3842C27.4893 18.4503 27.5219 18.511 27.5697 18.5586C27.6175 18.6062 27.6783 18.6386 27.7445 18.6516C27.8107 18.6646 27.8792 18.6576 27.9415 18.6316C28.0037 18.6056 28.0568 18.5617 28.094 18.5054C28.1313 18.4492 28.151 18.3832 28.1507 18.3157C28.1506 18.2711 28.1417 18.227 28.1246 18.1858C28.1074 18.1446 28.0823 18.1072 28.0507 18.0757C28.0191 18.0443 27.9817 18.0193 27.9404 18.0023C27.8992 17.9853 27.855 17.9766 27.8104 17.9767ZM27.4698 15.9308C27.3687 15.9306 27.2699 15.9604 27.1857 16.0164C27.1016 16.0724 27.036 16.152 26.9971 16.2454C26.9583 16.3387 26.948 16.4414 26.9675 16.5405C26.9871 16.6397 27.0356 16.7308 27.107 16.8024C27.1783 16.874 27.2693 16.9228 27.3684 16.9426C27.4675 16.9625 27.5702 16.9525 27.6637 16.914C27.7571 16.8755 27.837 16.8101 27.8932 16.7261C27.9495 16.6422 27.9796 16.5434 27.9797 16.4423C27.9798 16.3069 27.9262 16.177 27.8306 16.0811C27.735 15.9852 27.6052 15.9311 27.4698 15.9308ZM27.3838 20.0194C27.4679 20.0193 27.5501 19.9942 27.62 19.9474C27.6899 19.9005 27.7443 19.834 27.7764 19.7562C27.8084 19.6784 27.8167 19.5929 27.8001 19.5104C27.7836 19.4279 27.7429 19.3522 27.6833 19.2929C27.6237 19.2335 27.5479 19.1931 27.4653 19.1769C27.3828 19.1606 27.2973 19.1692 27.2196 19.2016C27.142 19.2339 27.0756 19.2886 27.029 19.3586C26.9825 19.4287 26.9577 19.511 26.9579 19.5951C26.9581 19.7078 27.0032 19.8159 27.083 19.8954C27.1629 19.975 27.2711 20.0196 27.3838 20.0194ZM23.4684 20.6987C23.5525 20.6986 23.6347 20.6735 23.7046 20.6267C23.7744 20.5798 23.8288 20.5133 23.8609 20.4355C23.893 20.3577 23.9012 20.2722 23.8847 20.1897C23.8681 20.1072 23.8275 20.0315 23.7679 19.9722C23.7083 19.9128 23.6324 19.8724 23.5499 19.8562C23.4673 19.8399 23.3818 19.8485 23.3041 19.8809C23.2265 19.9132 23.1602 19.9679 23.1136 20.0379C23.067 20.108 23.0422 20.1903 23.0424 20.2744C23.0427 20.3871 23.0877 20.4952 23.1676 20.5747C23.2474 20.6543 23.3556 20.6989 23.4684 20.6987ZM25.5967 15.2515C25.4957 15.2515 25.397 15.2815 25.313 15.3377C25.2291 15.3938 25.1636 15.4736 25.125 15.5669C25.0863 15.6603 25.0762 15.763 25.0959 15.862C25.1156 15.9611 25.1642 16.0521 25.2357 16.1236C25.3071 16.195 25.398 16.2437 25.4971 16.2634C25.5961 16.2832 25.6988 16.2732 25.7922 16.2346C25.8855 16.196 25.9654 16.1306 26.0216 16.0467C26.0778 15.9628 26.1078 15.864 26.108 15.763C26.1077 15.6275 26.0538 15.4976 25.958 15.4017C25.8621 15.3058 25.7323 15.2518 25.5967 15.2515ZM25.4271 20.8697C25.5616 20.8692 25.6931 20.8289 25.8047 20.7538C25.9164 20.6787 26.0033 20.5722 26.0545 20.4478C26.1057 20.3233 26.1189 20.1865 26.0924 20.0546C26.0658 19.9226 26.0008 19.8015 25.9055 19.7065C25.8102 19.6115 25.6888 19.5469 25.5568 19.5208C25.4248 19.4947 25.288 19.5083 25.1637 19.5599C25.0394 19.6115 24.9332 19.6988 24.8585 19.8107C24.7838 19.9226 24.7439 20.0542 24.7439 20.1888C24.7439 20.2783 24.7615 20.3669 24.7958 20.4496C24.8301 20.5323 24.8804 20.6075 24.9438 20.6707C25.0071 20.7339 25.0824 20.7841 25.1651 20.8182C25.2479 20.8524 25.3366 20.8699 25.4261 20.8697H25.4271ZM23.638 18.6576C23.7559 18.6577 23.8713 18.6229 23.9694 18.5575C24.0675 18.4921 24.144 18.399 24.1893 18.2901C24.2345 18.1812 24.2465 18.0614 24.2236 17.9457C24.2007 17.83 24.144 17.7237 24.0607 17.6402C23.9774 17.5568 23.8713 17.4999 23.7556 17.4767C23.64 17.4536 23.5201 17.4653 23.4111 17.5103C23.3021 17.5553 23.2089 17.6316 23.1433 17.7296C23.0777 17.8276 23.0426 17.9428 23.0424 18.0607C23.0425 18.2188 23.1053 18.3704 23.2169 18.4822C23.3285 18.5941 23.48 18.6572 23.638 18.6576ZM26.0226 18.4867C25.871 18.4867 25.7228 18.4418 25.5967 18.3576C25.4706 18.2734 25.3723 18.1538 25.3142 18.0137C25.2562 17.8736 25.2409 17.7195 25.2705 17.5708C25.3 17.4221 25.373 17.2854 25.4802 17.1782C25.5874 17.071 25.724 16.9979 25.8727 16.9683C26.0214 16.9387 26.1755 16.9539 26.3156 17.0119C26.4557 17.0699 26.5754 17.1682 26.6597 17.2942C26.7439 17.4203 26.7889 17.5685 26.7889 17.7201C26.7888 17.9233 26.708 18.1182 26.5644 18.2619C26.4207 18.4057 26.2259 18.4865 26.0226 18.4867Z" fill="#634C67"/>
</svg>
