<svg width="160" height="128" viewBox="0 0 160 128" fill="none" xmlns="http://www.w3.org/2000/svg">
<path d="M134.884 72.5336C129.581 72.5613 124.972 73.8384 121.113 75.7264C119.697 72.9223 118.281 70.4235 118.032 68.5912C117.754 66.4534 117.421 65.1485 117.754 62.5943C118.087 60.04 119.586 56.403 119.559 56.1254C119.531 55.8478 119.225 54.5429 116.171 54.5151C113.117 54.4874 110.48 55.0982 110.174 55.9033C109.869 56.7084 109.286 58.5408 108.897 60.4287C108.37 63.2051 102.789 73.1166 99.5966 78.3084C98.5694 76.2816 97.681 74.5048 97.4866 73.0888C97.209 70.9511 96.8758 69.6462 97.209 67.0919C97.5422 64.5377 99.0414 60.9007 99.0136 60.6231C98.9858 60.3454 98.6805 59.0406 95.6265 59.0128C92.5725 58.985 89.935 59.5958 89.6296 60.401C89.3242 61.2061 88.991 63.094 88.3525 64.9264C87.7139 66.7588 80.3011 83.3058 78.3576 87.5813C77.3582 89.7746 76.4975 91.5237 75.8867 92.7176C75.8867 92.7176 75.8589 92.8008 75.7756 92.9397C75.2481 93.9669 74.9427 94.5222 74.9427 94.5222C74.9427 94.5222 74.9427 94.5222 74.9427 94.5499C74.5263 95.2995 74.0821 95.9936 73.86 95.9936C73.6934 95.9936 73.388 93.9947 73.9155 91.2739C75.026 85.5268 77.6636 76.587 77.6358 76.2816C77.6358 76.115 78.1355 74.5603 75.9145 73.7552C73.7489 72.95 72.9715 74.2827 72.7772 74.2827C72.5829 74.2827 72.444 74.7546 72.444 74.7546C72.444 74.7546 74.8595 64.7043 67.8353 64.7043C63.4487 64.7043 57.3963 69.5074 54.3978 73.8384C52.5099 74.8657 48.4842 77.059 44.1809 79.4189C42.5429 80.3351 40.8493 81.2513 39.2668 82.1119C39.1557 82.0009 39.0447 81.8621 38.9336 81.751C30.438 72.6724 14.7239 66.259 15.3903 54.0709C15.6401 49.6288 17.1671 37.9681 45.5691 23.8088C68.9459 12.287 87.5473 15.4798 90.7679 22.5595C95.3766 32.6653 80.8008 51.4334 56.6467 54.1542C47.4292 55.1814 42.5984 51.6277 41.3768 50.2951C40.0997 48.9069 39.9053 48.8236 39.4334 49.1013C38.656 49.5177 39.1557 50.7671 39.4334 51.4889C40.1552 53.3768 43.1259 56.7084 48.1511 58.3465C52.5932 59.7902 63.3932 60.5953 76.4697 55.5424C91.101 49.8786 102.54 34.1368 99.1802 20.9492C95.8208 7.56723 73.6101 3.15285 52.5932 10.6212C40.0997 15.0633 26.5512 22.0597 16.8062 31.1661C5.22887 41.9938 3.39648 51.4056 4.1461 55.348C6.83915 69.3408 26.1347 78.4472 33.8529 85.1937C33.4642 85.4158 33.1033 85.6101 32.7979 85.7767C28.9388 87.6924 14.2242 95.3828 10.5594 103.518C6.39493 112.735 11.2258 119.343 14.4186 120.231C24.3301 122.98 34.5192 118.038 39.9886 109.875C45.458 101.713 44.7917 91.1073 42.2652 86.2487C42.2375 86.1932 42.2097 86.1376 42.1542 86.0821C43.1537 85.4991 44.1809 84.8883 45.1804 84.3052C47.1516 83.1392 49.095 82.0564 50.7608 81.168C49.8169 83.75 49.1228 86.8317 48.7896 91.2739C48.3732 96.4934 50.511 103.268 53.3151 105.933C54.5644 107.099 56.0359 107.127 56.9798 107.127C60.2559 107.127 61.7274 104.406 63.3654 101.185C65.3644 97.243 67.169 92.662 67.169 92.662C67.169 92.662 64.9202 105.044 71.0281 105.044C73.2492 105.044 75.498 102.157 76.4975 100.686V100.713C76.4975 100.713 76.553 100.63 76.6641 100.436C76.8862 100.075 77.025 99.8527 77.025 99.8527V99.7972C77.9134 98.2425 79.9124 94.7165 82.8831 88.8584C86.7144 81.3068 90.407 71.8672 90.407 71.8672C90.407 71.8672 90.7401 74.1716 91.8784 78.003C92.5447 80.2518 93.9329 82.7227 95.0434 85.1104C94.155 86.3597 93.5997 87.0538 93.5997 87.0538C93.5997 87.0538 93.5997 87.0538 93.6275 87.0816C92.9057 88.0255 92.1283 89.0528 91.2676 90.0523C88.2414 93.6615 84.6322 97.7982 84.1324 98.9921C83.5494 100.408 83.6882 101.435 84.7988 102.268C85.6039 102.879 87.0476 102.962 88.519 102.879C91.2399 102.685 93.1555 102.018 94.0995 101.602C95.5709 101.074 97.2923 100.269 98.9026 99.0754C101.873 96.8821 103.678 93.7448 103.511 89.608C103.428 87.3314 102.678 85.0549 101.762 82.9171C102.04 82.5284 102.29 82.1397 102.567 81.751C107.259 74.8935 110.896 67.3696 110.896 67.3696C110.896 67.3696 111.229 69.6739 112.368 73.5053C112.923 75.4487 114.061 77.5587 115.061 79.6132C110.646 83.1947 107.926 87.3592 106.954 90.08C105.205 95.133 106.565 97.4096 109.147 97.9371C110.313 98.1869 111.979 97.6317 113.201 97.1042C114.755 96.6044 116.588 95.7438 118.337 94.4666C121.308 92.2733 124.167 89.2194 124.001 85.0826C123.917 83.1947 123.418 81.3346 122.724 79.5299C126.472 77.9752 131.302 77.1145 137.466 77.8364C150.681 79.3911 153.291 87.6368 152.791 91.1073C152.292 94.5777 149.515 96.4656 148.599 97.0486C147.683 97.6317 147.377 97.826 147.461 98.2425C147.572 98.8533 148.016 98.8255 148.793 98.7144C149.876 98.5201 155.734 95.9103 155.984 89.5248C156.401 81.3623 148.627 72.4503 134.884 72.5336ZM32.9367 106.905C28.5501 111.68 22.4422 113.485 19.8046 111.958C16.9728 110.32 18.0833 103.268 23.4694 98.2147C26.7455 95.133 30.9655 92.2733 33.7696 90.5242C34.4082 90.1356 35.3521 89.5803 36.4904 88.8862C36.6848 88.7751 36.7958 88.7196 36.7958 88.7196C37.018 88.5808 37.2401 88.442 37.4622 88.3032C39.4334 95.5217 37.5455 101.879 32.9367 106.905ZM64.8646 85.1937C63.3376 88.914 60.1449 98.4368 58.2014 97.9093C56.5356 97.4651 55.5084 90.2466 57.8683 83.1114C59.0621 79.5299 61.5886 75.2544 63.06 73.5886C65.4477 70.9233 68.0852 70.0349 68.7237 71.1176C69.5289 72.5336 65.8086 82.8615 64.8646 85.1937ZM91.2121 97.7982C90.5735 98.1314 89.9627 98.3535 89.6851 98.1869C89.4908 98.0759 89.9627 97.6317 89.9627 97.6317C89.9627 97.6317 93.2666 94.078 94.5715 92.4677C95.3211 91.5237 96.2095 90.4132 97.1535 89.1638V89.5248C97.1535 93.7726 93.0445 96.6322 91.2121 97.7982ZM111.535 93.1618C111.063 92.8286 111.146 91.7181 112.729 88.2476C113.34 86.8872 114.783 84.6106 117.254 82.4173C117.532 83.3058 117.726 84.1664 117.698 84.9716C117.671 90.3299 113.839 92.3289 111.535 93.1618Z" fill="#CD6799"/>
</svg>
