<svg width="160" height="56" viewBox="0 0 160 56" fill="none" xmlns="http://www.w3.org/2000/svg">
<path d="M30.1898 13.6067L31.731 13.6079C38.4021 13.6278 43.491 13.8389 46.7301 14.0355L47.0911 14.0578C50.5169 14.2703 53.3584 16.6604 54.1551 20.0065L54.2749 20.5176C54.9137 23.2599 55.7488 27.1258 56.323 30.9932L56.4357 31.7576C56.8258 34.4622 57.1456 37.6297 57.395 41.1722C57.5278 43.2702 56.8374 45.2885 55.4299 46.8553C54.0223 48.4222 52.0837 49.3251 49.9857 49.4313L48.6476 49.4911C44.1212 49.6876 37.7645 49.903 31.0041 49.9092L29.8117 49.9081C23.2743 49.8903 17.1568 49.6818 12.7635 49.4911L11.4254 49.4313C9.3009 49.3517 7.38882 48.4222 5.98131 46.8553C4.57381 45.2885 3.88334 43.2702 4.01612 41.1722L4.06655 40.4704C4.30491 37.2202 4.58648 34.3169 4.94683 31.7784L5.02527 31.24C5.63608 27.044 6.56556 22.8215 7.22948 20.0065C8.01761 16.6964 10.8069 14.2958 14.209 14.0646L15.3183 13.9981C18.6586 13.808 23.6952 13.6164 30.1898 13.6067ZM31.2406 17.245H30.2219C23.1214 17.2557 17.8015 17.4886 14.5591 17.6961C12.7267 17.8289 11.2395 19.077 10.8146 20.8563L10.651 21.5386C10.0083 24.2499 9.20105 28.033 8.66354 31.7711L8.58511 32.2899C8.19911 34.9131 7.90501 37.9754 7.68094 41.4112C7.60127 42.5266 7.97306 43.5889 8.71665 44.4121C9.46024 45.2354 10.4694 45.7134 11.5848 45.7665L13.3398 45.8447C17.8004 46.0359 23.9037 46.2383 30.4052 46.2444L31.6049 46.2433C38.7781 46.2234 45.4159 45.9705 49.8264 45.7665C50.9418 45.7134 51.9509 45.2354 52.6945 44.4121C53.4115 43.5889 53.7833 42.5266 53.7833 41.4112L53.7329 40.729C53.4776 37.3434 53.1742 34.3355 52.8007 31.7711C52.1899 27.708 51.287 23.5917 50.6497 20.8563C50.2247 19.077 48.711 17.8023 46.9052 17.6961L45.9219 17.6363C42.6289 17.4462 37.6435 17.2547 31.2406 17.245ZM36.6277 35.436C36.6277 38.7024 33.9721 41.3581 30.7056 41.3581C27.4455 41.3581 24.8101 38.7292 24.7577 35.533L24.7569 35.436H36.6277ZM17.4272 28.0798C19.4441 28.0798 21.0476 29.6815 21.0912 31.6618L21.0921 31.7446H13.7624C13.7624 29.7263 15.4089 28.0798 17.4272 28.0798ZM43.9839 28.0798C46.0008 28.0798 47.6043 29.6815 47.6478 31.6618L47.6487 31.7446H40.3191C40.3191 29.7263 41.9656 28.0798 43.9839 28.0798ZM30.7056 6.09082C31.9803 6.09082 32.9895 7.12653 32.9895 8.37469C32.9895 9.62286 31.9537 10.632 30.7056 10.632C29.4574 10.632 28.4217 9.5963 28.4217 8.37469C28.4217 7.09997 29.4574 6.09082 30.7056 6.09082Z" fill="#683D87"/>
<path d="M100.762 21.9983V26.7785H103.843V30.4699H100.789V36.4717C100.789 37.3746 101.559 38.1447 102.621 38.1978C103.353 38.1978 103.888 38 104.082 37.9161L104.161 37.8792V41.4112L104.048 41.4498C103.711 41.5591 102.662 41.8627 101.399 41.8627C98.352 41.8627 96.656 40.1994 96.6199 36.7443L96.6193 36.631V30.4699H94.0167V26.7519H95.3711C96.2812 26.7519 97.0386 26.0135 97.0697 24.8359L97.0707 24.7602V21.9983H100.762ZM72.0278 20.0065V28.3188L72.0879 28.2409C72.3979 27.8552 73.9019 26.1677 76.4893 26.1677C80.3135 26.1677 83.7127 29.5404 83.7127 34.0019C83.7127 38.4634 80.34 41.8361 76.4893 41.8361C73.6933 41.8361 72.1623 39.8654 72.0363 39.6965L72.0278 39.685V41.544H67.8849V20.0065H72.0278ZM132.763 26.1411C135.859 26.1411 137.547 27.9163 137.917 28.3546L137.995 28.4515L135.843 30.9213L135.816 30.8871C135.651 30.6892 134.76 29.6997 133.374 29.6997C132.152 29.6997 131.541 30.3105 131.541 30.9213C131.541 33.0724 138.473 32.0101 138.473 37.0559C138.473 39.685 136.322 41.8361 132.471 41.8361C128.552 41.8361 126.679 39.5727 126.36 39.1439L126.31 39.0742L128.62 36.7638L128.658 36.8129C128.882 37.0919 130.071 38.4634 131.86 38.4634C133.241 38.4634 133.852 37.8526 133.852 37.0825C133.852 34.772 126.92 35.914 126.92 30.9213C126.92 28.6109 129.39 26.1411 132.763 26.1411ZM148.458 26.1411C152.76 26.1411 156 29.381 156 33.6832L155.999 33.8652C155.983 34.8103 155.848 35.3495 155.817 35.3813L155.814 35.3828H144.899C145.218 36.9231 146.599 38.3041 148.909 38.3041C151.377 38.3041 152.745 36.6669 152.904 36.4654L152.919 36.4451L155.071 39.207L154.987 39.2944C154.541 39.7476 152.305 41.8096 148.617 41.8096C144.156 41.8096 140.624 38.2775 140.624 33.9753C140.624 29.6732 144.156 26.1411 148.458 26.1411ZM116.046 26.3526L116.165 26.3536H116.776V30.4964L116.728 30.4817C116.59 30.4423 116.15 30.3371 115.395 30.3371C113.272 30.3371 111.9 31.7073 111.864 34.2437L111.863 34.3471V41.5705H107.72V26.4864H111.863V28.3188L111.899 28.2744C112.136 27.988 113.553 26.4102 115.928 26.3541L116.046 26.3526ZM91.0689 26.4598V41.544H86.9261V26.4598H91.0689ZM123.388 26.4598V41.544H119.246V26.4598H123.388ZM75.7192 29.859C73.7274 29.859 72.0278 31.5321 72.0278 34.0019C72.0278 36.4451 73.7274 38.1447 75.7192 38.1447C77.7109 38.1447 79.4105 36.4717 79.4105 34.0019C79.4105 31.5321 77.7109 29.859 75.7192 29.859ZM148.458 29.6997C146.658 29.6997 145.421 30.8788 144.95 32.3808L144.926 32.4616H151.831C151.538 30.9213 150.29 29.6997 148.458 29.6997ZM88.9444 19.8472C90.4847 19.8472 91.4141 20.7767 91.4141 22.1576C91.4141 23.5386 90.4847 24.468 88.9444 24.468C87.5634 24.468 86.634 23.5386 86.634 22.1576C86.634 20.7767 87.5634 19.8472 88.9444 19.8472ZM121.237 19.8472C122.778 19.8472 123.707 20.7767 123.707 22.1576C123.707 23.5386 122.778 24.468 121.237 24.468C119.856 24.468 118.927 23.5386 118.927 22.1576C118.927 20.7767 119.856 19.8472 121.237 19.8472Z" fill="#683D87"/>
</svg>
