<svg width="160" height="56" viewBox="0 0 160 56" fill="none" xmlns="http://www.w3.org/2000/svg">
<path d="M52.3242 10.3097C52.2731 11.5767 51.6372 12.7924 50.4147 13.957C49.0405 15.273 47.4119 15.9313 45.5293 15.9313C42.6292 15.9313 41.2281 14.6664 41.3308 12.1344C41.3798 10.8185 42.1563 9.5511 43.6577 8.33544C45.1591 7.12185 46.8253 6.51282 48.6593 6.51282C49.7277 6.51282 50.6177 6.93228 51.3315 7.76673C52.0432 8.60291 52.3734 9.4508 52.3242 10.3097Z" fill="#1AB7EB"/>
<path fill-rule="evenodd" clip-rule="evenodd" d="M53.9668 43.9753C53.6814 44.2466 53.3882 44.5141 53.0872 44.7779C49.6764 47.7269 46.2679 49.2018 42.8591 49.2018C41.2795 49.2018 40.0707 48.693 39.2318 47.6756C38.3929 46.6584 37.9982 45.338 38.0496 43.7091C38.0985 42.0319 38.6207 39.4372 39.613 35.9281C40.606 32.419 41.1034 30.5364 41.1034 30.2821C41.1034 28.9613 40.6439 28.2988 39.7292 28.2988C39.4414 28.2988 38.6561 28.7744 37.3741 29.7214C36.4061 32.6125 34.2979 36.1488 31.0493 40.3296C26.4269 46.3393 22.5163 49.3445 19.3174 49.3445C17.3366 49.3445 15.6587 47.5149 14.2893 43.8542C13.3746 40.4992 12.4598 37.1438 11.5454 33.7891C10.5279 30.1304 9.43737 28.2988 8.27031 28.2988C8.01629 28.2988 7.126 28.8344 5.60255 29.9009L4.00293 27.8394C5.68045 26.3649 7.33556 24.89 8.96448 23.4134C11.2017 21.4791 12.8817 20.462 14.0015 20.3593C16.6472 20.1053 18.2758 21.9145 18.8869 25.7869C19.5473 29.9653 20.0043 32.5641 20.2611 33.5813C21.0238 37.048 21.8628 38.7793 22.7796 38.7793C23.4914 38.7793 24.5598 37.6549 25.9854 35.4063C27.4085 33.1577 28.1716 31.4467 28.274 30.271C28.477 28.3302 27.7143 27.3575 25.9854 27.3575C25.1709 27.3575 24.332 27.545 23.469 27.9152C25.1399 22.4408 28.3319 19.7816 33.0436 19.9333C36.1894 20.0258 37.8375 21.8731 37.9875 25.4751C38.7458 24.7882 39.504 24.101 40.2624 23.4134C42.4507 21.4791 44.0793 20.462 45.1502 20.3593C46.8277 20.2077 48.0612 20.7009 48.8509 21.8431C49.6385 22.985 49.9307 24.4664 49.7298 26.2911C49.0673 29.3852 48.3535 33.3138 47.5904 38.0785C47.5394 40.2603 48.3291 41.3488 49.9576 41.3488C50.669 41.3488 51.9405 40.5974 53.7742 39.0895L53.8417 39.0339C53.9588 37.971 54.1466 36.708 54.4063 35.2453C54.8258 32.8854 55.0602 31.0472 55.1091 29.7268C55.2094 28.8141 54.9799 28.3567 54.4222 28.3567C54.1165 28.3567 53.251 28.872 51.8254 29.9009L49.9942 27.8394C50.2482 27.6388 51.8499 26.1619 54.8037 23.4134C56.9407 21.4302 58.3907 20.4131 59.1535 20.3617C60.4767 20.259 61.5452 20.8057 62.3593 22.0013C63.1734 23.197 63.5818 24.5846 63.5818 26.1619C63.5818 26.6702 63.5305 27.1545 63.4302 27.6119C64.1929 26.4428 65.0832 25.4232 66.1024 24.5578C68.4427 22.5235 71.064 21.3768 73.964 21.1224C76.4581 20.9194 78.2383 21.504 79.3092 22.8782C80.1726 23.998 80.5786 25.6018 80.5293 27.6877C80.8864 27.3844 81.268 27.0518 81.6761 26.6951C82.8452 25.3209 83.9895 24.2279 85.1093 23.4134C86.9919 22.0392 88.9531 21.2765 90.9874 21.1224C93.4301 20.9194 95.1858 21.5016 96.2543 22.8713C97.169 23.9866 97.5771 25.5842 97.4768 27.6608C97.4255 29.0819 97.0822 31.1479 96.4463 33.8604C95.8079 36.573 95.4915 38.1299 95.4915 38.5359C95.4402 39.6023 95.5429 40.3365 95.7969 40.7425C96.0516 41.1482 96.6603 41.3488 97.6288 41.3488C98.0634 41.3488 98.707 41.0684 99.5601 40.5064C99.4797 39.8653 99.4464 39.1989 99.46 38.507C99.5093 34.3868 101.343 30.4696 104.957 26.753C108.925 22.6841 113.608 20.6471 119.002 20.6471C123.99 20.6471 126.636 22.6793 126.941 26.7395C127.144 29.327 125.719 31.993 122.667 34.7349C119.408 37.7308 115.31 39.6337 110.375 40.4454C111.29 41.7148 112.664 42.3487 114.498 42.3487C118.161 42.3487 122.156 41.4181 126.484 39.553C126.676 39.4718 126.866 39.3903 127.054 39.3087C127.02 38.9984 126.994 38.6821 126.978 38.3598C126.721 33.9897 128.298 29.9739 131.711 26.3156C135.374 22.2512 139.979 20.219 145.526 20.219C149.087 20.219 151.784 21.4147 153.618 23.8015C155.349 25.9878 156.136 28.8076 155.984 32.2608C155.78 36.9366 154.051 40.9765 150.794 44.3805C147.537 47.7848 143.49 49.4872 138.656 49.4872C134.636 49.4872 131.582 48.1909 129.496 45.5986C129.026 45.0044 128.621 44.3642 128.281 43.6782C127.735 44.0172 127.161 44.3562 126.56 44.6952C121.166 47.7959 115.694 49.3445 110.148 49.3445C106.025 49.3445 103.072 47.9699 101.292 45.2239C101.161 45.031 101.038 44.8344 100.921 44.634C100.867 44.6821 100.813 44.7301 100.758 44.7779C97.3476 47.7269 93.9388 49.2018 90.5303 49.2018C87.2197 49.2018 85.6181 47.3723 85.7204 43.7091C85.7694 42.0805 86.0885 40.1245 86.6731 37.8355C87.2577 35.5466 87.5768 33.7663 87.6278 32.4952C87.6792 30.563 87.0922 29.5951 85.8655 29.5951C84.5382 29.5951 82.9565 31.1744 81.1184 34.3285C79.1775 37.637 78.129 40.8428 77.9774 43.9455C77.875 46.1363 78.0891 47.8162 78.6199 48.9853C75.0687 49.0877 72.5809 48.5011 71.1622 47.2296C69.8907 46.1097 69.3082 44.2537 69.4109 41.6569C69.4599 40.0283 69.7097 38.4001 70.1602 36.7715C70.609 35.143 70.8585 33.6929 70.9099 32.419C71.0126 30.5364 70.3233 29.5951 68.8463 29.5951C67.5704 29.5951 66.1941 31.0472 64.7172 33.9473C63.2406 36.8474 62.4241 39.8767 62.2724 43.0311C62.1697 45.8822 62.3527 47.8655 62.8191 48.9853C59.3255 49.0877 56.8449 48.3515 55.3769 46.7763C54.7062 46.0505 54.2364 45.117 53.9668 43.9753ZM117.933 29.4076C117.982 28.0424 117.425 27.3575 116.256 27.3575C114.73 27.3575 113.182 28.4081 111.607 30.5095C110.032 32.611 109.218 34.6232 109.168 36.5461C109.139 36.5461 109.139 36.8763 109.168 37.5343C111.658 36.624 113.817 35.2322 115.647 33.3583C117.119 31.739 117.882 30.4203 117.933 29.4076ZM146.785 28.1872C147.218 29.3339 147.409 30.5967 147.358 31.973C147.256 34.4202 146.519 36.765 145.145 39.0088C143.517 41.7128 141.556 43.0621 139.267 43.0621C138.247 43.0621 137.458 42.5024 136.9 41.3801C136.392 40.4123 136.162 39.2901 136.213 38.0141C136.313 35.4153 137.076 32.9681 138.504 30.6726C140.182 27.8683 142.319 26.4652 144.915 26.4652C145.728 26.4652 146.352 27.0408 146.785 28.1872Z" fill="#1AB7EB"/>
</svg>
