<svg width="160" height="48" viewBox="0 0 160 48" fill="none" xmlns="http://www.w3.org/2000/svg">
<path d="M21.0544 4.33635C20.3347 4.95724 19.8126 5.69103 19.8126 7.87827C19.8126 13.8191 27.3057 31.6698 32.4139 31.6698C32.9873 31.6763 33.5583 31.5955 34.1073 31.4299L34.0794 31.4377L33.9587 31.6312C29.5561 38.6466 24.2491 43.8132 21.0391 43.9168L20.9415 43.9184C13.8859 43.9184 4.00801 22.8785 4.00801 13.5933C3.94687 12.4295 4.23694 11.2741 4.84057 10.2772C7.29593 7.35616 14.7326 5.12658 21.0544 4.33635ZM30.777 3.71545C37.24 3.71545 43.7029 4.75969 43.7029 8.40039C43.7029 15.7947 39.018 24.7694 36.6473 24.7694C32.4139 24.7694 27.0658 12.8878 27.0658 6.94693C27.0658 4.27061 28.0847 3.72851 30.7074 3.71569L30.777 3.71545Z" fill="#F49700"/>
<path d="M127.792 13.1984C134.974 13.1984 136.893 18.1655 136.893 28.3962C136.893 39.0643 134.974 44.2854 127.792 44.2854C120.609 44.2854 118.69 39.0643 118.69 28.3962C118.69 18.1655 120.609 13.1984 127.792 13.1984ZM148.422 13.1984C152.896 13.1984 155.478 15.1175 155.478 21.6651C155.478 24.6144 154.575 27.3096 152.176 27.9728C154.998 28.368 156 31.1479 156 35.4236C155.944 41.816 153.432 44.2854 148.592 44.2854C146.693 44.1976 144.805 43.9522 142.947 43.5517V40.2779C144.804 40.6786 146.693 40.9148 148.592 40.9834C150.807 40.9834 152.247 39.149 152.247 35.7905C152.247 31.7547 151.597 29.7509 148.507 29.7509H144.937V26.5617H148.07C151.597 26.5617 151.767 22.9492 151.767 21.2136C151.767 17.7704 150.68 16.3734 148.507 16.3734C146.699 16.4449 144.903 16.6954 143.145 17.1213V13.9463C144.874 13.5172 146.642 13.2665 148.422 13.1984ZM72.0805 13.5088V16.8108H65.3636V43.9891H61.5817V16.8108H54.8789V13.5088H72.0805ZM105.157 13.1984C111.775 13.1984 113.624 17.2906 113.624 22.6529C113.68 29.2711 111.423 32.4884 105.242 32.4884H101.587V43.9891H97.7912V13.5088C97.7912 13.5088 101.13 13.2326 104.541 13.2013L104.787 13.1994C104.911 13.1987 105.034 13.1984 105.157 13.1984ZM77.852 13.5088L83.6094 26.2089L89.3527 13.5088H93.2333L85.3028 29.8355V43.9468H81.3798V29.8355L73.6186 13.5088H77.852ZM127.792 16.3734C123.869 16.3734 122.556 19.0404 122.556 28.6078C122.556 38.1753 123.869 41.1104 127.792 41.1104C131.715 41.1104 133.013 37.9777 133.013 28.6078C133.013 19.238 131.701 16.4157 127.792 16.4157V16.3734ZM105.679 16.3311C104.311 16.3236 102.943 16.4132 101.587 16.5992V29.2993H105.679C108.121 29.2993 109.814 27.6906 109.814 22.9351C109.814 18.603 108.77 16.3311 105.679 16.3311Z" fill="black"/>
</svg>
