<svg width="160" height="72" viewBox="0 0 160 72" fill="none" xmlns="http://www.w3.org/2000/svg">
<path d="M18.0003 13.5494L4.85473 13.4284L4.85471 22.1496H26.6406L4 51.1704V58.5507H18.0003V67.0509H26.4006V58.5506H40.681C40.801 58.2106 40.8431 57.2937 40.0831 56.4537C38.823 55.0536 37.8209 53.5904 36.9009 51.7504C36.4808 50.9304 36.1619 49.9482 36.0419 49.8682C33.2297 49.7394 17.0516 49.7727 17.0603 49.6704L39.7209 20.4717V13.5494H26.4006V4.94916H18.0003V13.5494Z" fill="#6C1CD3"/>
<path d="M78.662 9.48928C78.462 9.56928 78.402 13.9894 78.402 30.7299C78.402 53.3505 78.382 52.9705 79.382 54.9105C80.2821 56.6506 82.4821 58.2106 84.9422 58.8506C86.3022 59.2107 90.3023 59.2506 91.8424 58.9306C93.8224 58.5106 94.2024 57.9106 93.4224 56.3706C92.9224 55.4105 92.2624 53.3105 92.1024 52.1505C91.8824 50.7704 91.6024 50.5504 89.9223 50.5904C89.1223 50.6104 88.3623 50.5504 88.2223 50.4704C87.4023 49.9504 87.4023 49.8104 87.4023 29.5498C87.4023 16.5295 87.3423 9.9893 87.2023 9.72929C87.0022 9.36928 86.7422 9.34928 82.9421 9.36928C80.7221 9.36928 78.782 9.42928 78.662 9.48928Z" fill="#6C1CD3"/>
<path d="M97.0025 9.54929C96.7425 9.70929 96.7025 12.2694 96.7025 30.5899C96.7025 50.3304 96.7225 51.5304 97.0825 52.9105C97.7625 55.6306 99.3026 57.2906 102.223 58.5106C103.343 58.9706 103.843 59.0506 106.103 59.1107C109.123 59.1907 110.663 58.9706 112.203 58.1906C113.723 57.4506 113.763 56.9306 112.463 55.0305C111.943 54.2705 111.143 52.9705 110.703 52.1505L109.903 50.6504L108.443 50.6304C106.623 50.5904 106.443 50.5104 106.103 49.6504C105.843 49.0704 105.803 46.0903 105.803 29.5498C105.803 16.5295 105.743 9.9893 105.603 9.72929C105.403 9.36928 105.143 9.34928 101.343 9.34928C99.1226 9.34928 97.1625 9.44929 97.0025 9.54929Z" fill="#6C1CD3"/>
<path d="M150.204 13.8494C148.584 14.5894 147.744 15.8695 147.724 17.6495C147.704 19.1695 148.324 20.3296 149.584 21.1496C151.144 22.2096 153.644 21.9096 154.944 20.5096C156.604 18.7295 156.264 15.6495 154.224 14.2694C153.164 13.5494 151.304 13.3694 150.204 13.8494ZM153.404 14.5894C155.664 15.7295 156.004 18.6495 154.084 20.3496C153.264 21.0696 152.684 21.2296 151.424 21.1096C147.944 20.7696 147.264 15.8895 150.504 14.4294C151.384 14.0294 152.404 14.0894 153.404 14.5894Z" fill="#6C1CD3"/>
<path d="M150.344 15.4894C150.204 15.7295 150.184 19.4496 150.324 19.8296C150.384 20.0096 150.564 20.1496 150.724 20.1496C150.924 20.1496 151.004 19.8696 151.004 19.1495C151.004 18.2495 151.044 18.1495 151.464 18.1495C151.784 18.1495 152.064 18.4295 152.504 19.1495C152.864 19.7496 153.224 20.1496 153.444 20.1496C153.924 20.1496 153.904 20.0696 153.164 18.9895C152.724 18.3495 152.604 18.0495 152.784 17.9895C153.304 17.8095 153.804 17.1495 153.804 16.6495C153.804 15.7495 153.164 15.3494 151.724 15.3494C151.004 15.3494 150.384 15.4094 150.344 15.4894ZM152.764 16.1295C152.924 16.2095 153.004 16.5095 152.964 16.7695C152.904 17.1895 152.784 17.2495 151.964 17.3095L151.004 17.3695V16.6695C151.004 15.9695 151.024 15.9495 151.764 15.9495C152.164 15.9495 152.624 16.0295 152.764 16.1295Z" fill="#6C1CD3"/>
<path d="M53.5013 22.0496C53.4013 22.0896 52.6213 22.2696 51.8013 22.4496C46.6611 23.6297 42.121 27.5698 40.201 32.5699C39.1409 35.33 38.7609 37.4701 38.7409 40.6501C38.7209 45.1103 39.6209 48.3904 41.681 51.5104C44.0011 55.0105 47.4011 57.3906 51.8013 58.5906C53.3013 58.9906 53.9613 59.0506 57.4014 59.0506C60.8015 59.0506 61.5015 58.9906 62.9216 58.6106C66.4417 57.6306 69.4418 56.0106 71.8618 53.7105C73.4019 52.2705 73.3819 51.8704 71.8218 50.6704C71.1818 50.1704 70.0218 49.0904 69.2617 48.2503C68.3017 47.2303 67.7217 46.7503 67.4217 46.7503C67.1417 46.7503 66.5017 47.1503 65.8817 47.7503C63.7416 49.6904 61.0415 50.6104 57.5014 50.5904C54.2613 50.5704 51.9013 49.7304 50.4012 48.0103C49.6412 47.1503 48.6812 45.1903 48.4812 44.0902L48.3612 43.3502H60.8215C67.6817 43.3502 73.4219 43.2702 73.5619 43.1702C74.2219 42.7502 74.3819 39.8501 73.9019 36.69C72.7618 29.1298 68.2417 24.0497 61.1415 22.3496C59.8815 22.0496 58.8415 21.9496 56.6014 21.9696C55.0014 21.9696 53.6213 22.0096 53.5013 22.0496ZM58.8415 29.7698C60.3015 30.0698 62.1016 31.0699 62.9416 32.0299C63.7216 32.9099 64.5216 34.49 64.7216 35.51L64.8616 36.15H48.5612L48.7012 35.51C49.3012 32.8099 51.6213 30.5499 54.5013 29.8298C55.7814 29.5098 57.5014 29.4898 58.8415 29.7698Z" fill="#6C1CD3"/>
<path d="M126.203 22.2296C119.103 23.8097 114.303 28.8098 112.803 36.19C111.903 40.5501 112.403 45.6303 114.103 49.2704C116.423 54.3105 120.643 57.5706 126.403 58.7506C128.223 59.1306 128.943 59.1707 131.803 59.0906C134.224 59.0106 135.524 58.8706 136.644 58.5706C140.064 57.6706 143.064 56.0306 145.364 53.8305C147.124 52.1305 147.124 52.0505 145.224 50.4704C144.344 49.7504 143.164 48.6104 142.604 47.9503C141.304 46.4503 140.964 46.4303 139.504 47.7503C137.324 49.7304 134.724 50.6104 131.103 50.5904C126.023 50.5704 123.063 48.3904 122.103 43.9902L121.963 43.4712H147.304C148.164 42.8512 147.844 36.29 146.804 33.2499C146.604 32.6499 146.064 31.4499 145.624 30.6099C143.284 26.1297 139.544 23.3497 134.344 22.2496C132.684 21.8896 127.783 21.8896 126.203 22.2296ZM132.443 29.7698C133.804 30.0698 135.204 30.7699 136.204 31.6699C137.044 32.4499 138.404 34.91 138.404 35.67V36.15H122.163L122.303 35.59C123.343 31.3099 127.743 28.7698 132.443 29.7698Z" fill="#6C1CD3"/>
</svg>
