<svg width="80" height="80" viewBox="0 0 80 80" fill="none" xmlns="http://www.w3.org/2000/svg">
<path d="M40 4C20.118 4 4 20.118 4 40C4 59.882 20.118 76 40 76C59.882 76 76 59.882 76 40C76 20.118 59.882 4 40 4ZM40 73.12C21.708 73.12 6.88 58.292 6.88 40C6.88 21.708 21.708 6.88 40 6.88C58.292 6.88 73.12 21.708 73.12 40C73.12 58.292 58.292 73.12 40 73.12Z" fill="black"/>
<path d="M41.08 43.96H47.56V56.92H50.44V43.96H56.92V41.08H41.08V43.96Z" fill="black"/>
<path d="M37.243 40.72L31 46.963L24.756 40.72L22.72 42.757L28.963 49L22.72 55.243L24.756 57.28L31 51.037L37.243 57.28L39.28 55.243L33.037 49L39.28 42.757L37.243 40.72Z" fill="black"/>
<path d="M48.82 38.92C49.8837 38.92 50.937 38.7105 51.9197 38.3034C52.9025 37.8964 53.7954 37.2997 54.5476 36.5476C55.2997 35.7954 55.8964 34.9025 56.3034 33.9197C56.7105 32.937 56.92 31.8837 56.92 30.82H54.04C54.0398 31.7058 53.8143 32.577 53.3846 33.3516C52.9549 34.1263 52.3352 34.7788 51.5837 35.2479C50.8323 35.717 49.9739 35.9871 49.0893 36.033C48.2046 36.0788 47.3229 35.8989 46.527 35.51L55.618 26.418C54.8551 25.2388 53.7986 24.2782 52.5524 23.6306C51.3061 22.9829 49.9129 22.6705 48.5094 22.7239C47.1059 22.7772 45.7405 23.1946 44.547 23.9351C43.3535 24.6755 42.3731 25.7135 41.702 26.9473C41.0308 28.181 40.692 29.5681 40.7187 30.9723C40.7455 32.3766 41.1369 33.7497 41.8546 34.957C42.5723 36.1643 43.5915 37.1642 44.8123 37.8586C46.0331 38.5531 47.4135 38.9181 48.818 38.918L48.82 38.92ZM48.82 25.6C49.7944 25.5987 50.7495 25.8718 51.576 26.388L44.387 33.576C43.8956 32.7856 43.6245 31.8781 43.6017 30.9477C43.5789 30.0172 43.8054 29.0976 44.2575 28.2841C44.7097 27.4706 45.3711 26.7928 46.1733 26.3208C46.9755 25.8489 47.8893 25.6 48.82 25.6Z" fill="black"/>
<path d="M31 29.958L24.926 22.72L22.72 24.571L29.56 32.723V38.92H32.44V32.723L39.28 24.571L37.074 22.72L31 29.958Z" fill="black"/>
<path d="M68.8 67.36C67.9456 67.36 67.1104 67.6134 66.3999 68.0881C65.6895 68.5627 65.1358 69.2374 64.8088 70.0268C64.4819 70.8162 64.3963 71.6848 64.563 72.5228C64.7297 73.3608 65.1411 74.1305 65.7453 74.7347C66.3495 75.3389 67.1192 75.7503 67.9572 75.917C68.7952 76.0837 69.6638 75.9981 70.4532 75.6712C71.2426 75.3442 71.9173 74.7905 72.392 74.0801C72.8666 73.3696 73.12 72.5344 73.12 71.68C73.12 70.5343 72.6649 69.4355 71.8547 68.6253C71.0445 67.8151 69.9457 67.36 68.8 67.36ZM68.8 75.654C68.014 75.654 67.2457 75.4209 66.5922 74.9843C65.9386 74.5476 65.4293 73.9269 65.1285 73.2008C64.8277 72.4746 64.749 71.6756 64.9024 70.9047C65.0557 70.1338 65.4342 69.4257 65.99 68.87C66.5457 68.3142 67.2538 67.9357 68.0247 67.7824C68.7956 67.629 69.5946 67.7077 70.3208 68.0085C71.0469 68.3093 71.6676 68.8186 72.1043 69.4722C72.5409 70.1257 72.774 70.894 72.774 71.68C72.774 72.734 72.3553 73.7448 71.61 74.49C70.8648 75.2353 69.854 75.654 68.8 75.654Z" fill="black"/>
<path d="M70.493 73.84H70.093L69.063 72.081H67.72V73.84H67.376V69.52H69.076C69.3863 69.5181 69.6867 69.6293 69.921 69.8328C70.1553 70.0362 70.3075 70.318 70.3492 70.6256C70.3909 70.9331 70.3191 71.2452 70.1474 71.5037C69.9756 71.7622 69.7156 71.9493 69.416 72.03L70.493 73.84ZM67.72 71.751H69.081C69.3199 71.732 69.5429 71.6237 69.7055 71.4476C69.8681 71.2715 69.9584 71.0407 69.9584 70.801C69.9584 70.5613 69.8681 70.3305 69.7055 70.1544C69.5429 69.9783 69.3199 69.87 69.081 69.851H67.72V71.751Z" fill="black"/>
</svg>
