<svg width="168" height="48" viewBox="0 0 168 48" fill="none" xmlns="http://www.w3.org/2000/svg">
<path fill-rule="evenodd" clip-rule="evenodd" d="M39.821 10.1934H17.248V21.5113H28.355C28.7507 21.5113 29.0717 21.8323 29.0717 22.228V33.1817H40.5378V10.9114C40.5381 10.7211 40.4627 10.5384 40.3283 10.4037C40.1938 10.269 40.0114 10.1934 39.821 10.1934Z" fill="#8E75FF"/>
<path opacity="0.405" fill-rule="evenodd" clip-rule="evenodd" d="M17.2467 10.1934V21.5113H6.65721C6.5117 21.511 6.38073 21.423 6.3256 21.2883C6.27047 21.1536 6.30208 20.999 6.40564 20.8968L17.2467 10.1934ZM29.6822 43.8969C29.5791 43.9982 29.4254 44.0278 29.2921 43.972C29.1588 43.9162 29.0719 43.7859 29.0717 43.6414V33.1817H40.5377L29.6822 43.8956V43.8969Z" fill="#8E75FF"/>
<path opacity="0.405" fill-rule="evenodd" clip-rule="evenodd" d="M17.2461 21.5117H28.7134C28.9099 21.5117 29.0711 21.6716 29.0711 21.8694V33.1821H17.9641C17.5683 33.1821 17.2474 32.8612 17.2474 32.4654V21.5117H17.2461Z" fill="#8E75FF"/>
<path fill-rule="evenodd" clip-rule="evenodd" d="M156.159 9.47976C156.8 10.1139 157.556 10.4297 158.429 10.4297C159.329 10.4297 160.099 10.1139 160.74 9.47976C161.381 8.8456 161.7 8.09875 161.7 7.2353C161.7 6.37315 161.381 5.61845 160.74 4.97119C160.138 4.34024 159.301 3.98845 158.429 4.00029C157.556 4.00029 156.8 4.32392 156.159 4.96988C155.519 5.61845 155.199 6.37184 155.199 7.23661C155.199 8.09875 155.519 8.8456 156.159 9.47976ZM86.6374 17.7501C86.6374 17.8156 86.5823 17.8706 86.5155 17.8706H82.0148V26.2824C82.0148 26.9834 82.193 27.4957 82.5468 27.8193C82.9005 28.143 83.4194 28.3238 84.1007 28.3644C84.7244 28.4024 85.4844 28.3998 86.3819 28.3578L86.509 28.3513C86.5421 28.3495 86.5744 28.3614 86.5985 28.3842C86.6225 28.407 86.6361 28.4387 86.6361 28.4718V32.9673C86.6364 33.0291 86.59 33.0811 86.5286 33.0878L86.4461 33.097C82.9215 33.4678 80.4281 33.1232 78.9685 32.0645C77.4827 30.9862 76.7411 29.0588 76.7411 26.2824V17.8706H73.303C73.2364 17.8706 73.1824 17.8166 73.1824 17.7501V12.9768C73.1824 12.9113 73.2361 12.8563 73.303 12.8563H76.7397V9.51906C76.7397 9.42211 76.7974 9.33563 76.8852 9.29632L81.8458 7.13834C81.8831 7.1214 81.9266 7.12461 81.961 7.14687C81.9955 7.16913 82.0162 7.20738 82.0161 7.2484V12.8563H86.5155C86.581 12.8563 86.6361 12.91 86.6361 12.9768V17.7501H86.6374ZM96.2022 16.335C96.6922 15.0405 97.5033 14.0696 98.634 13.4223C99.7496 12.7872 101.011 12.453 102.295 12.4527C102.362 12.4527 102.417 12.5064 102.417 12.5746V18.058C102.417 18.1135 102.393 18.1663 102.352 18.2035C102.311 18.2407 102.256 18.2587 102.201 18.2532C100.679 18.1169 99.3127 18.4484 98.1021 19.2464C96.8351 20.081 96.2022 21.4699 96.2022 23.4116V32.9555C96.2022 32.9877 96.1893 33.0186 96.1664 33.0412C96.1435 33.0639 96.1125 33.0764 96.0804 33.0761H91.0464C90.9798 33.0761 90.9258 33.0221 90.9258 32.9555V12.9755C90.9258 12.91 90.9796 12.855 91.0464 12.855H96.0804C96.1459 12.855 96.2009 12.9087 96.2009 12.9755V16.3324L96.2022 16.335ZM121.144 12.8563C121.112 12.8559 121.081 12.8685 121.058 12.8911C121.035 12.9138 121.022 12.9446 121.022 12.9768V15.2435C119.442 13.2742 117.22 12.2902 114.357 12.2902C111.632 12.2902 109.293 13.3214 107.345 15.3837C105.395 17.4461 104.42 19.9736 104.42 22.9662C104.42 25.9588 105.395 28.4862 107.345 30.5486C109.293 32.6109 111.632 33.6421 114.357 33.6421C117.22 33.6421 119.441 32.6581 121.022 30.6901V32.9555C121.022 33.021 121.077 33.0761 121.144 33.0761H126.177C126.244 33.0761 126.299 33.0223 126.299 32.9555V12.9755C126.299 12.9433 126.286 12.9124 126.263 12.8898C126.24 12.8672 126.209 12.8546 126.177 12.855H121.144V12.8563ZM111.291 27.0908C112.354 28.143 113.702 28.6684 115.34 28.6684C116.975 28.6684 118.331 28.1351 119.408 27.0699C120.485 26.0059 121.022 24.638 121.022 22.9662C121.022 21.2943 120.485 19.9264 119.408 18.8611C118.331 17.7972 116.975 17.264 115.338 17.264C113.703 17.264 112.354 17.7972 111.29 18.8625C110.228 19.9264 109.695 21.2943 109.695 22.9662C109.695 24.638 110.227 26.0125 111.291 27.0908ZM149.747 15.3837C147.797 13.3214 145.445 12.2902 142.693 12.2902C139.83 12.2902 137.622 13.2742 136.068 15.2422V12.9768C136.068 12.9102 136.014 12.8563 135.947 12.8563H130.913C130.847 12.8563 130.793 12.9102 130.793 12.9768V41.0424C130.793 41.1092 130.847 41.1642 130.913 41.1642H135.947C136.013 41.1642 136.068 41.1092 136.068 41.0424V30.6901C137.622 32.6581 139.83 33.6421 142.693 33.6421C145.445 33.6421 147.797 32.6109 149.747 30.5486C151.695 28.4862 152.67 25.9588 152.67 22.9662C152.67 19.9736 151.695 17.4461 149.747 15.3837ZM137.662 27.0908C138.726 28.143 140.075 28.6684 141.711 28.6684C143.346 28.6684 144.702 28.1351 145.779 27.0699C146.856 26.0059 147.395 24.638 147.395 22.9662C147.395 21.2943 146.856 19.9264 145.779 18.8611C144.702 17.7972 143.346 17.264 141.711 17.264C140.075 17.264 138.726 17.7972 137.662 18.8625C136.6 19.9264 136.068 21.2943 136.068 22.9662C136.068 24.638 136.6 26.0125 137.662 27.0908ZM155.933 33.0761C155.866 33.0761 155.812 33.0221 155.812 32.9555V12.9755C155.812 12.91 155.866 12.855 155.933 12.855H160.967C161.033 12.855 161.087 12.9087 161.087 12.9755V32.9568C161.087 33.0234 161.033 33.0774 160.967 33.0774H155.933V33.0761ZM61.8763 19.9133C61.153 19.5765 60.7927 19.1376 60.7927 18.5991C60.7927 18.0868 61.0167 17.6819 61.4675 17.3858C61.9169 17.0897 62.4829 16.9403 63.1642 16.9403C64.4706 16.9403 65.4572 17.4448 66.1254 18.4524C66.1714 18.5229 66.2613 18.5505 66.339 18.5179L70.7912 16.5695C70.8223 16.5556 70.8461 16.5291 70.8566 16.4966C70.8671 16.4641 70.8633 16.4287 70.8462 16.3992C70.795 16.3138 70.7425 16.229 70.689 16.145C69.9278 14.9592 68.9411 14.0748 67.7029 13.4026C66.3403 12.661 64.8269 12.2902 63.1642 12.2902C60.9552 12.2902 59.109 12.8628 57.6219 14.0093C56.1374 15.1545 55.3945 16.7254 55.3945 18.7196C55.3945 20.0417 55.7561 21.1397 56.478 22.0162C57.1758 22.8744 58.0847 23.5363 59.1156 23.9371C60.1507 24.3406 61.1871 24.6787 62.2235 24.9473C63.2586 25.2172 64.1391 25.5212 64.861 25.8579C65.583 26.1946 65.9446 26.6322 65.9446 27.1721C65.9446 28.3316 65.0038 28.9108 63.1236 28.9108C61.3325 28.9108 60.0917 28.2556 59.4012 26.948C59.3437 26.8336 59.2071 26.7837 59.0894 26.834L54.6502 28.7797C54.6203 28.7929 54.597 28.8176 54.5857 28.8482C54.5743 28.8788 54.5758 28.9128 54.59 28.9422L54.6397 29.0431C56.1911 32.1091 59.0186 33.6421 63.1236 33.6421C65.4677 33.6421 67.4239 33.0826 68.9909 31.965C70.5593 30.8447 71.3428 29.2475 71.3428 27.1721C71.3428 25.7963 70.9812 24.6511 70.2592 23.734C69.5786 22.8489 68.6655 22.1703 67.6217 21.7738C66.6058 21.3891 65.568 21.0649 64.5138 20.8029C63.4774 20.5461 62.5982 20.25 61.8763 19.912V19.9133Z" fill="#2F2E8B"/>
</svg>
