<svg width="304" height="48" viewBox="0 0 304 48" fill="none" xmlns="http://www.w3.org/2000/svg">
<path d="M29.6108 43.9998L14.7534 12.2115C13.797 10.1923 12.8885 8.78743 12.0293 7.99946C11.17 7.21149 10.1734 6.81621 9.03938 6.81621H8.93311V5.30119H30.3819L30.356 6.81751C29.3814 6.8525 28.6414 7.06893 28.136 7.4681C27.6305 7.86597 27.3791 8.42973 27.3791 9.15549C27.3791 9.49246 27.427 9.86441 27.5242 10.2714C27.6227 10.6796 27.777 11.1228 27.9908 11.601L33.7049 25.8739L41.3059 4L49.6522 25.8739L54.8077 12.1052C54.9502 11.7164 55.0604 11.2861 55.1395 10.817C55.2198 10.3478 55.2587 9.86441 55.2587 9.36804C55.2587 8.58914 54.993 7.99039 54.4616 7.57437C53.9303 7.15836 53.1242 6.90564 52.0433 6.81621V5.30119H63.0204V6.81751C61.6208 6.95877 60.5088 7.39682 59.6845 8.13295C58.8603 8.86778 58.0671 10.2104 57.3051 12.1583L44.9736 43.9998L36.9462 23.1082L29.6108 43.9998ZM85.2093 38.4451C83.7033 40.2518 81.9758 41.6294 80.0253 42.5781C78.0802 43.525 75.9432 44.0115 73.7798 43.9998C71.7607 43.9998 69.8685 43.5916 68.1059 42.7764C66.3437 41.9619 64.7863 40.7631 63.5479 39.2681C62.5134 38.0467 61.7118 36.6458 61.1827 35.1351C60.6513 33.6214 60.3844 31.9859 60.3844 30.2324C60.3844 28.4244 60.6423 26.7409 61.1555 25.1819C61.6857 23.592 62.4762 22.1012 63.4948 20.7703C64.6288 19.228 66.1568 17.98 68.0787 17.0222C70.002 16.0658 71.9551 15.5876 73.9392 15.5876C77.3944 15.5876 80.1549 16.6412 82.2194 18.7498C84.2826 20.8584 85.3156 23.685 85.3156 27.2282H69.9268C70.0331 30.3827 71.0608 33.0045 73.01 35.095C74.9592 37.1867 77.3063 38.2313 80.0525 38.2313C81.0984 38.2313 82.0457 38.0421 82.8972 37.6611C83.779 37.2569 84.5665 36.6729 85.2093 35.9464V38.4451ZM69.8737 25.3426H72.318C74.7285 25.3426 76.2073 25.1339 76.7568 24.7166C77.3063 24.3019 77.581 23.5074 77.581 22.3384C77.581 20.7612 77.2972 19.5779 76.7308 18.79C76.1645 18.002 75.3052 17.608 74.1518 17.608C72.6821 17.608 71.6013 18.2236 70.9105 19.4548C70.2197 20.686 69.8737 22.6482 69.8737 25.3413V25.3426ZM95.6239 7.74545C93.5866 8.10055 91.837 8.94165 90.3751 10.2701C88.9133 11.5998 87.6859 13.4595 86.6945 15.8519L85.497 15.4268L87.625 4.31882C88.1214 4.63763 88.7681 4.88128 89.5651 5.04976C90.3622 5.21824 91.3109 5.30119 92.4086 5.30119H110.774C111.855 5.30119 112.791 5.21824 113.579 5.04976C114.367 4.88128 115.01 4.63763 115.506 4.31882L117.684 15.4281L116.49 15.8532C115.462 13.4258 114.222 11.5518 112.767 10.2325C111.316 8.91185 109.579 8.0837 107.558 7.74674V36.6644C107.558 38.4011 107.85 39.5882 108.436 40.2258C109.019 40.8635 110.137 41.2354 111.785 41.3417V42.8567H91.3186V41.3417C93.0008 41.2354 94.14 40.8583 94.7336 40.2116C95.3272 39.5649 95.6239 38.3829 95.6239 36.6644V7.74545ZM130.146 20.051C131.031 18.5632 131.992 17.446 133.029 16.7021C134.066 15.9582 135.177 15.5863 136.364 15.5863C137.675 15.5863 138.73 15.9751 139.526 16.7552C140.324 17.5354 140.724 18.5632 140.724 19.8397C140.724 20.9543 140.39 21.8498 139.726 22.5225C139.062 23.1964 138.181 23.5333 137.082 23.5333C136.09 23.5333 135.138 23.1342 134.225 22.3371C133.312 21.5401 132.732 21.1409 132.484 21.1409C131.9 21.1409 131.483 21.5297 131.234 22.3099C130.985 23.0901 130.862 24.4807 130.862 26.483V37.4602C130.862 38.8417 131.142 39.8344 131.699 40.4371C132.258 41.0397 133.174 41.3404 134.451 41.3404H134.61V42.8567H117.2V41.3417H117.359C118.529 41.3417 119.367 41.0449 119.871 40.4513C120.375 39.8578 120.629 38.8611 120.629 37.4615V27.4408C120.629 26.5906 120.523 25.962 120.31 25.5538C120.098 25.1456 119.698 24.7477 119.114 24.3589L115.791 22.0196C117.528 21.417 119.53 20.5888 121.798 19.5339C124.066 18.4802 126.849 17.0935 130.144 15.3737L130.146 20.051ZM155.258 27.1738C153.664 27.8127 152.45 28.8171 151.616 30.1909C150.783 31.5647 150.367 33.243 150.367 35.2272C150.367 36.3612 150.593 37.2658 151.045 37.9384C151.497 38.6123 152.086 38.9493 152.813 38.9493C153.751 38.9493 154.394 38.576 154.74 37.8321C155.085 37.0882 155.258 35.2272 155.258 32.2502V27.1738ZM155.764 39.4262C154.416 40.9684 153.003 42.1154 151.523 42.8684C150.043 43.6214 148.48 43.9985 146.832 43.9985C144.653 43.9985 142.885 43.3829 141.531 42.1517C140.174 40.9205 139.496 39.3394 139.496 37.407C139.496 35.1209 140.529 33.1328 142.594 31.4402C144.657 29.7477 148.879 27.6702 155.258 25.2065V23.3208C155.258 21.3366 155.005 19.9136 154.5 19.0544C153.995 18.1951 153.166 17.7661 152.016 17.7661C151.076 17.7661 150.296 18.0448 149.676 18.6033C149.057 19.1619 148.746 19.8566 148.746 20.6899C148.746 21.1318 148.764 21.6502 148.799 22.2451C148.834 22.8374 148.852 23.2145 148.852 23.3726C148.852 24.6673 148.493 25.708 147.776 26.496C147.058 27.2853 146.106 27.6792 144.919 27.6792C143.838 27.6792 142.969 27.3384 142.314 26.6554C141.658 25.9724 141.33 25.0743 141.33 23.9584C141.33 21.5479 142.473 19.552 144.759 17.9644C147.045 16.3794 149.986 15.5863 153.584 15.5863C155.603 15.5863 157.433 15.8429 159.071 16.3574C160.71 16.8706 162.052 17.6145 163.098 18.5891C163.949 19.3874 164.55 20.3167 164.906 21.3807C165.261 22.4447 165.437 24.0466 165.437 26.1914V33.7653C165.437 35.8739 165.602 37.372 165.929 38.2572C166.256 39.1437 166.785 39.5869 167.511 39.5869C167.676 39.5857 167.839 39.5494 167.989 39.4806C168.148 39.4094 168.317 39.3031 168.494 39.1605V40.8881C167.785 41.7927 166.868 42.4925 165.743 42.9876C164.618 43.484 163.372 43.7328 162.009 43.7328C160.449 43.7328 159.142 43.3699 158.089 42.6429C157.035 41.9158 156.259 40.844 155.762 39.4262H155.764ZM182.604 37.4602C182.604 38.8249 182.846 39.8033 183.333 40.3969C183.821 40.9905 184.632 41.3041 185.766 41.3404V42.8567H168.941V41.3417H169.101C170.271 41.3417 171.108 41.0449 171.612 40.4513C172.118 39.8578 172.371 38.8611 172.371 37.4615V27.4408C172.371 26.5906 172.264 25.962 172.052 25.5538C171.838 25.1469 171.44 24.7477 170.856 24.3589L167.533 22.0196C169.846 21.1739 172.121 20.2251 174.35 19.1762C176.839 18.0043 179.281 16.7362 181.672 15.375V19.8929C182.735 18.475 183.976 17.4123 185.393 16.7047C186.811 15.9945 188.406 15.6407 190.178 15.6407C193.083 15.6407 195.249 16.3794 196.676 17.8594C198.101 19.3395 198.814 21.5945 198.814 24.6246V37.4615C198.814 38.8611 199.068 39.8578 199.572 40.4513C200.078 41.0449 200.915 41.3417 202.084 41.3417H202.243V42.8567H188.584V24.8903C188.584 22.9761 188.348 21.6477 187.879 20.9037C187.409 20.1585 186.616 19.7866 185.5 19.7866C184.454 19.7866 183.711 20.1728 183.267 20.9426C182.824 21.7138 182.602 23.0292 182.602 24.8903L182.604 37.4602ZM203.144 41.7655V33.0486H204.526C205.323 35.9361 206.546 38.1639 208.193 39.7321C209.841 41.3002 211.773 42.0843 213.988 42.0843C215.175 42.0843 216.096 41.8096 216.752 41.2613C217.408 40.7118 217.736 39.9407 217.736 38.948C217.736 36.9988 215.822 35.2453 211.995 33.6862L211.648 33.5527C208.283 32.1893 206.05 30.8998 204.951 29.6855C203.853 28.4724 203.304 26.9081 203.304 24.9939C203.304 22.1427 204.375 19.8695 206.519 18.177C208.662 16.4844 211.569 15.6407 215.237 15.6407C216.619 15.6407 218.036 15.7599 219.489 15.9997C220.942 16.2381 222.431 16.5881 223.954 17.0494V24.3058H222.626C221.42 21.8602 220.215 20.1236 219.01 19.0958C217.804 18.0681 216.424 17.5536 214.865 17.5536C213.695 17.5536 212.747 17.8426 212.02 18.418C211.293 18.9934 210.932 19.7335 210.932 20.6368C210.932 22.144 212.889 23.685 216.805 25.2622C217.124 25.3866 217.363 25.4825 217.522 25.5538C221.085 27.0079 223.388 28.3272 224.434 29.5144C225.478 30.7015 226.002 32.2788 226.002 34.2448C226.002 37.1336 224.89 39.4806 222.666 41.2886C220.442 43.0965 217.549 43.9998 213.988 43.9998C212.251 43.9998 210.479 43.8132 208.672 43.4425C206.784 43.0456 204.934 42.4849 203.144 41.7668V41.7655ZM240.934 37.4602C240.934 38.878 241.191 39.8785 241.705 40.463C242.219 41.0475 243.087 41.3404 244.31 41.3404H244.682V42.8567H227.273V41.3417H227.432C228.601 41.3417 229.439 41.0449 229.944 40.4513C230.45 39.8578 230.701 38.8611 230.701 37.4615V18.8029H228.096V17.3151C228.929 16.6593 229.975 15.3037 231.232 13.2483C231.906 12.1674 232.438 11.3522 232.828 10.804C234.156 8.90796 235.739 7.43311 237.571 6.37816C239.404 5.32322 241.324 4.79704 243.325 4.79704C245.47 4.79704 247.22 5.31544 248.574 6.35224C249.931 7.38904 250.609 8.70319 250.609 10.2986C250.609 11.3613 250.272 12.2167 249.598 12.8634C248.925 13.5101 248.03 13.8328 246.915 13.8328C246.047 13.8328 245.32 13.6345 244.735 13.2353C244.15 12.8361 243.539 12.043 242.902 10.8571C242.246 9.7037 241.687 8.95202 241.227 8.59692C240.766 8.24311 240.216 8.06556 239.579 8.06556C238.835 8.06556 238.25 8.28329 237.825 8.71745C237.399 9.15161 237.186 9.73092 237.186 10.458C237.186 11.2382 237.71 12.2516 238.754 13.501C239.8 14.7503 240.473 15.8442 240.775 16.7838H245.771V18.8029H240.934V37.4602ZM270.379 38.4438C268.873 40.2505 267.146 41.6281 265.195 42.5768C263.25 43.5237 261.113 44.0102 258.95 43.9985C256.931 43.9985 255.039 43.5903 253.276 42.7751C251.514 41.9606 249.956 40.7619 248.718 39.2668C247.684 38.0454 246.882 36.6445 246.353 35.1338C245.821 33.6201 245.554 31.9846 245.554 30.2311C245.554 28.4232 245.812 26.7396 246.326 25.1806C246.856 23.5907 247.646 22.0999 248.665 20.769C249.799 19.2267 251.327 17.9787 253.249 17.0209C255.172 16.0645 257.125 15.5863 259.109 15.5863C262.564 15.5863 265.325 16.6399 267.389 18.7485C269.453 20.8571 270.486 23.6837 270.486 27.2269H255.097C255.203 30.3814 256.231 33.0032 258.18 35.0937C260.129 37.1854 262.476 38.23 265.223 38.23C266.268 38.23 267.216 38.0408 268.066 37.6598C268.948 37.2558 269.736 36.6717 270.379 35.9451V38.4438ZM255.044 25.3413H257.488C259.899 25.3413 261.377 25.1326 261.927 24.7153C262.476 24.3006 262.751 23.5061 262.751 22.3371C262.751 20.7599 262.467 19.5766 261.901 18.7887C261.333 18.0007 260.475 17.6067 259.322 17.6067C257.852 17.6067 256.771 18.2223 256.079 19.4535C255.387 20.6847 255.042 22.6469 255.042 25.34L255.044 25.3413ZM284.489 20.051C285.374 18.5632 286.336 17.446 287.371 16.7021C288.408 15.9582 289.52 15.5863 290.707 15.5863C292.019 15.5863 293.072 15.9751 293.869 16.7552C294.668 17.5354 295.067 18.5632 295.067 19.8397C295.067 20.9543 294.734 21.8498 294.069 22.5225C293.405 23.1964 292.524 23.5333 291.425 23.5333C290.432 23.5333 289.481 23.1342 288.567 22.3371C287.655 21.5401 287.074 21.1409 286.827 21.1409C286.242 21.1409 285.826 21.5297 285.578 22.3099C285.329 23.0901 285.206 24.4807 285.206 26.483V37.4602C285.206 38.8417 285.484 39.8344 286.043 40.4371C286.6 41.0397 287.518 41.3404 288.794 41.3404H288.954V42.8567H271.544V41.3417H271.704C272.873 41.3417 273.71 41.0449 274.216 40.4513C274.721 39.8578 274.974 38.8611 274.974 37.4615V27.4408C274.974 26.5906 274.867 25.962 274.655 25.5538C274.442 25.1456 274.043 24.7477 273.459 24.3589L270.136 22.0196C271.872 21.417 273.875 20.5888 276.143 19.5339C278.411 18.4802 281.192 17.0935 284.489 15.3737V20.051Z" fill="#409FFF"/>
</svg>
