<svg width="152" height="160" viewBox="0 0 152 160" fill="none" xmlns="http://www.w3.org/2000/svg">
<path d="M4.88281 138.851V138.756C4.88281 129.277 12.0268 121.513 22.2678 121.513C28.5568 121.513 32.3188 123.611 35.4139 126.656L30.7456 132.039C28.173 129.706 25.5529 128.277 22.2184 128.277C16.5982 128.277 12.5493 132.945 12.5493 138.663V138.758C12.5493 144.475 16.5032 149.238 22.2184 149.238C26.0298 149.238 28.363 147.712 30.9831 145.332L35.6514 150.047C32.2238 153.712 28.4143 156 21.9828 156C12.1712 156 4.88281 148.427 4.88281 138.851Z" fill="#435363"/>
<path d="M45.2559 122.085H52.5899V135.279H66.1179V122.085H73.4557V155.428H66.1179V142.043H52.5899V155.428H45.2559V122.085Z" fill="#435363"/>
<path d="M85.2566 122.095H110.81V128.724H92.6609V135.594H108.63V142.225H92.6609V149.339H111.051V155.968H85.2566V122.095Z" fill="#435363"/>
<path d="M121.733 122.085H147.119V128.754H129.065V135.851H144.976V142.52H129.065V155.428H121.733V122.085Z" fill="#435363"/>
<path d="M55.9678 52.9977C55.9678 56.0092 56.61 58.8744 57.7538 61.4679L65.8022 57.9282C65.1372 56.4196 64.7648 54.7533 64.7648 52.9977C64.7648 46.2318 70.2501 40.7484 77.0141 40.7484V31.9495C65.4089 31.9495 55.9678 41.3925 55.9678 52.9977Z" fill="#F38B00"/>
<path d="M81.4582 64.4091L84.6483 72.6114C90.62 70.2801 95.2712 65.2983 97.1541 59.1214H87.6237C86.2367 61.5173 84.0631 63.3945 81.4582 64.4091Z" fill="#F38B00"/>
<path d="M77.016 93.6881C65.7984 93.6881 55.6296 89.1205 48.2633 81.7523L42.3752 87.6404C51.2425 96.5077 63.4861 101.999 77.016 101.999C102.003 101.999 122.618 83.2951 125.633 59.1252H117.245C114.281 78.6629 97.3707 93.6881 77.016 93.6881Z" fill="#F38B00"/>
<path d="M77.016 12.3111C86.1303 12.3111 94.5492 15.3226 101.34 20.4051L106.32 13.7304C98.1459 7.61999 88.0037 4.00049 77.016 4.00049C56.2243 4.00049 38.4593 16.9509 31.3457 35.227L39.0996 38.2442C45.0181 23.0803 59.783 12.3111 77.016 12.3111Z" fill="#F38B00"/>
<path d="M107.794 46.874H116.211C114.015 32.7608 104.349 21.091 91.3971 16.0351L88.3913 23.7643C98.2409 27.6099 105.691 36.2872 107.794 46.874Z" fill="#F38B00"/>
<path d="M45.6375 52.9977H37.3497C37.3497 69.6664 47.6876 83.9601 62.2872 89.8197L65.3652 82.1266C53.8151 77.4906 45.6375 66.1837 45.6375 52.9977Z" fill="#F38B00"/>
<path d="M77.0167 75.0663C64.8491 75.0663 54.9482 65.1673 54.9482 52.9997C54.9482 40.8302 64.8491 30.9293 77.0167 30.9293C87.062 30.9293 95.5531 37.6762 98.215 46.8741H106.754C103.911 33.0592 91.66 22.6396 77.0167 22.6396C60.2777 22.6396 46.6584 36.2588 46.6584 52.9997C46.6584 69.7388 60.2777 83.3579 77.0167 83.3579C91.66 83.3579 103.911 72.9402 106.754 59.1253H98.215C95.5531 68.3213 87.062 75.0663 77.0167 75.0663Z" fill="#435363"/>
<path d="M62.1396 67.8749C65.951 71.6863 71.2141 74.048 77.0167 74.048V65.2491C73.6347 65.2491 70.5719 63.8753 68.3546 61.66L62.1396 67.8749Z" fill="#435363"/>
<path d="M84.647 33.3841L81.4551 41.5864C84.0619 42.6029 86.2374 44.4782 87.6205 46.8722H97.151C95.27 40.6953 90.6187 35.7154 84.647 33.3841Z" fill="#435363"/>
<path d="M38.0761 64.7722C37.9374 64.3124 37.8044 63.8488 37.6809 63.3814C37.6733 63.3529 37.6657 63.3243 37.6581 63.2958C37.5441 62.8626 37.4396 62.4295 37.3389 61.9925C37.318 61.9031 37.299 61.8138 37.28 61.7245C37.1964 61.3502 37.1204 60.9721 37.0463 60.5941C37.014 60.4249 36.9855 60.2558 36.957 60.0868C36.9038 59.7846 36.8506 59.4844 36.8031 59.1785C36.7632 58.9182 36.729 58.6599 36.6948 58.3996C36.4554 56.625 36.3262 54.8218 36.3281 52.9959H28.0156C28.0137 54.9872 28.1391 56.9536 28.3728 58.8955C28.3766 58.9372 28.3842 58.979 28.3899 59.0208C28.4545 59.549 28.5267 60.0772 28.6084 60.5998C28.6312 60.7441 28.6559 60.8885 28.6806 61.0349C28.7528 61.4642 28.8269 61.8937 28.9105 62.3212C28.9523 62.5492 29.0017 62.7733 29.0492 62.9995C29.1195 63.3396 29.1917 63.6796 29.2696 64.0178C29.338 64.3143 29.4121 64.6106 29.4881 64.9071C29.5546 65.1712 29.6192 65.4352 29.6895 65.6993C29.7845 66.049 29.8852 66.3948 29.9859 66.7425C30.0277 66.8869 30.0657 67.035 30.1094 67.1776H30.1132C30.687 69.0757 31.3672 70.9282 32.1576 72.7218L39.7747 69.3721C39.1192 67.8862 38.553 66.3473 38.0761 64.7722Z" fill="#435363"/>
<path d="M117.245 46.8741H125.634C124.735 39.6636 122.269 32.9395 118.587 27.0533L111.523 31.4613C114.407 36.065 116.396 41.2843 117.245 46.8741Z" fill="#435363"/>
<path d="M77.0167 21.6193L77.0186 13.3315H77.0167C60.215 13.3315 45.8224 23.8309 40.0502 38.6148L47.7737 41.6206C52.3413 29.9261 63.7262 21.6193 77.0167 21.6193Z" fill="#435363"/>
<path d="M77.0166 84.3764V92.666C96.8071 92.666 113.257 78.0969 116.212 59.1216H107.793C104.937 73.5046 92.2243 84.3764 77.0166 84.3764Z" fill="#435363"/>
</svg>
