<svg width="296" height="48" viewBox="0 0 296 48" fill="none" xmlns="http://www.w3.org/2000/svg">
<path d="M67.0945 27.1557C61.2664 27.1557 57.0986 23.221 57.0986 17.3588C57.0986 11.3545 61.4825 7.12415 67.43 7.12415C69.5109 7.08194 71.5522 7.69672 73.2638 8.8811L73.8323 7.57333H74.8672C74.924 8.26702 74.924 8.93796 74.9525 9.63164C75.0036 11.2294 75.0889 12.793 75.2595 14.3567V14.6068H73.8096C72.9738 11.5307 70.9666 8.8811 67.5551 8.8811C63.0063 8.8811 61.528 13.4298 61.528 17.2281C61.528 21.0263 63.0063 25.2737 67.5892 25.2737C69.0347 25.2493 70.4449 24.8231 71.662 24.0429C72.879 23.2626 73.855 22.159 74.4805 20.8557L75.8736 21.8905C74.1678 25.3817 70.9382 27.1386 67.1116 27.1386" fill="#592C82"/>
<path d="M87.8368 26.8259C87.482 26.3285 87.2948 25.7311 87.3023 25.1201C86.8731 25.7164 86.3008 26.195 85.638 26.512C84.9752 26.829 84.2434 26.9741 83.5098 26.934C79.8765 26.934 78.0911 23.7271 78.0911 20.4292C78.0911 17.1314 80.0698 13.6687 83.7316 13.6687C84.3548 13.6557 84.9737 13.7764 85.5464 14.0226C86.1192 14.2687 86.6326 14.6347 87.0521 15.0958V10.4334C87.0521 9.26206 86.2163 9.29617 85.2952 9.29617V7.92586C87.0894 7.72313 88.8703 7.41557 90.6286 7.00474V22.8856C90.6286 24.7278 90.4296 24.8415 92.4652 24.8415V26.2346C90.9132 26.3397 89.3681 26.5296 87.8368 26.8032V26.8259ZM87.0521 16.7504C86.4718 16.1539 85.6782 15.8124 84.846 15.8009C82.6114 15.8009 81.9746 18.5131 81.9746 20.2643C81.9746 22.0156 82.6683 24.6539 84.8744 24.6539C85.3001 24.643 85.7176 24.5348 86.0951 24.3377C86.4726 24.1406 86.7999 23.8598 87.0521 23.5167V16.7504Z" fill="#592C82"/>
<path d="M110.734 26.4563H94.478V25.0405C95.1205 25.0405 96.2918 25.0974 96.7524 24.6255C97.1163 24.2616 97.0594 23.4485 97.0594 23.005V11.2749C97.0594 10.7973 97.1163 10.0467 96.7524 9.68282C96.2236 9.14834 95.166 9.23363 94.478 9.23363V7.84057H103.74V9.23363C103.047 9.23363 101.961 9.14834 101.426 9.68282C101.062 10.0467 101.119 10.82 101.119 11.2749V23.4428C101.119 24.6994 101.597 24.9552 102.797 24.978C103.496 24.978 104.19 24.978 104.889 24.978C107.988 24.978 109.187 23.5849 109.551 20.5941H110.979L110.734 26.4563Z" fill="#592C82"/>
<path d="M119.792 27.1557C117.563 27.1557 116.477 26.5416 114.765 25.177L114.237 26.5416H112.929L113.151 20.3439H114.237L114.322 20.6226C114.714 21.936 114.936 22.6638 115.914 23.6418C116.379 24.1557 116.948 24.5653 117.583 24.8436C118.218 25.1219 118.905 25.2627 119.598 25.2566C121.39 25.2566 123.01 24.2218 123.01 22.2999C123.01 17.9161 113.236 18.8429 113.236 12.4462C113.236 9.09717 116.005 7.1412 119.155 7.1412C120.795 7.13126 122.394 7.66068 123.704 8.64798L124.181 7.55628H125.318V12.975H124.181L124.039 12.5315C123.653 11.2976 123.374 10.5186 122.282 9.79085C121.392 9.19342 120.341 8.88197 119.269 8.89816C117.898 8.89816 116.477 9.54067 116.477 11.1043C116.477 12.975 119.411 14.1747 120.804 14.8172C123.596 16.1307 126.245 17.501 126.245 21.0433C126.245 24.8415 123.459 27.1557 119.769 27.1557" fill="#592C82"/>
<path d="M145.708 14.1292C145.708 14.9821 145.742 15.0731 146.584 15.0731H148.995C150.655 15.0731 150.996 14.8513 151.315 13.3161L151.468 12.5713C151.64 12.4376 151.853 12.3674 152.07 12.3726C152.288 12.3778 152.497 12.458 152.662 12.5997C152.594 13.6004 152.566 14.7604 152.566 15.9487C152.566 17.1371 152.594 18.2629 152.662 19.2068C152.493 19.3434 152.282 19.4179 152.065 19.4179C151.848 19.4179 151.637 19.3434 151.468 19.2068L151.315 18.4562C150.996 16.9551 150.655 16.7049 148.995 16.7049H146.584C145.742 16.7049 145.708 16.7959 145.708 17.6431V21.8735C145.708 24.7847 145.896 25.0348 147.306 25.2225L148.443 25.3817C148.552 25.543 148.61 25.7331 148.61 25.9275C148.61 26.122 148.552 26.312 148.443 26.4734C146.504 26.4108 144.969 26.3824 143.462 26.3824C141.956 26.3824 140.46 26.4108 138.578 26.4734C138.456 26.3175 138.39 26.1253 138.39 25.9275C138.39 25.7297 138.456 25.5376 138.578 25.3817L139.613 25.2225C141.023 25.0007 141.211 24.7847 141.211 21.8735V10.2571C141.211 7.3459 141.023 7.0616 139.613 6.84554L138.987 6.75456C138.709 6.56692 138.709 5.78226 139.05 5.65717C140.398 5.71972 141.967 5.74815 143.462 5.74815H150.041C152.048 5.74815 153.833 5.71972 154.271 5.65717C154.271 6.18597 154.271 8.44328 154.334 10.5414C154.209 10.8825 153.521 10.9167 153.145 10.6665C152.98 9.80662 152.673 8.98032 152.236 8.22153C151.701 7.56765 150.763 7.19238 149.165 7.19238H146.726C145.691 7.19238 145.691 7.25492 145.691 8.4774L145.708 14.1292Z" fill="#592C82"/>
<path d="M155.653 20.3951C155.619 15.9203 159.156 13.4412 162.851 13.4412C166.547 13.4412 169.868 15.6985 169.868 20.1165C169.868 24.6653 166.519 26.8487 162.664 26.8487C158.934 26.8487 155.681 24.7164 155.653 20.3951ZM160.162 19.7071C160.162 22.9936 161.191 25.3931 163.005 25.3931C164.819 25.3931 165.382 23.3518 165.353 20.5373C165.319 17.501 164.443 14.8513 162.658 14.8513C161.282 14.8513 160.156 16.2671 160.156 19.6787" fill="#592C82"/>
<path d="M185.419 22.2772C185.419 24.1194 185.516 24.9382 186.266 24.9382C186.693 24.9187 187.115 24.8343 187.517 24.688C187.801 24.7505 187.83 25.8764 187.42 26.0356C185.45 26.1606 183.504 26.5429 181.632 27.1728C181.536 27.1641 181.447 27.1225 181.378 27.0551C181.31 26.9877 181.267 26.8987 181.257 26.8032C181.315 26.4268 181.347 26.0468 181.353 25.666C181.352 25.6224 181.342 25.5796 181.323 25.54C181.305 25.5005 181.279 25.465 181.246 25.4358C181.214 25.4066 181.176 25.3843 181.135 25.3701C181.094 25.3559 181.05 25.3502 181.007 25.3533C179.784 26.1379 178.687 26.86 176.742 26.86C174.149 26.86 173.086 25.5125 173.086 22.8799V17.518C173.086 15.8521 172.893 15.6985 172.142 15.4768L171.738 15.3574C171.619 15.1881 171.565 14.981 171.587 14.7748C171.609 14.5686 171.705 14.3775 171.858 14.2373C172.877 14.2076 173.893 14.1127 174.9 13.953C175.838 13.7937 176.742 13.4185 176.873 13.4185C177.004 13.4185 177.214 13.6402 177.248 13.7937C177.186 14.5784 177.151 15.4256 177.151 16.5514V21.7427C177.151 23.2438 177.373 24.5572 179.38 24.5572C179.973 24.5657 180.549 24.3643 181.007 23.9886C181.239 23.7326 181.364 23.3963 181.353 23.0505V17.1086C181.353 15.8521 181.126 15.5734 180.006 15.4029L179.568 15.346C179.312 15.1186 179.346 14.3737 179.722 14.2486C180.859 14.1861 181.996 14.0553 182.98 13.9302C184.077 13.7767 185.015 13.4299 185.203 13.4299C185.39 13.4299 185.481 13.5891 185.516 13.8051C185.481 14.3737 185.419 15.4029 185.419 16.5628V22.2772Z" fill="#592C82"/>
<path d="M190.184 18.0468C190.184 16.7959 190.184 16.4207 189.615 16.0397L189.177 15.7611C189.07 15.6284 189.011 15.4628 189.011 15.292C189.011 15.1212 189.07 14.9556 189.177 14.8229C190.781 14.3837 192.332 13.7738 193.806 13.0034C193.917 12.9956 194.028 13.0173 194.127 13.0662C194.227 13.1152 194.312 13.1896 194.374 13.282C194.374 13.7255 194.283 14.4761 194.283 14.6978C194.283 14.9196 194.346 14.948 194.442 14.948C194.64 14.885 194.831 14.8011 195.011 14.6978C195.699 14.2884 197.172 13.4412 198.616 13.4412C201.214 13.4412 202.528 15.2266 202.528 17.3929V22.7662C202.528 24.9609 202.653 25.2111 203.779 25.3362L204.279 25.4044C204.406 25.5596 204.473 25.7552 204.468 25.9556C204.463 26.156 204.386 26.3478 204.251 26.4961C203.278 26.4393 201.976 26.4052 200.458 26.4052C199.213 26.4052 197.99 26.4393 197.081 26.4961C196.947 26.3474 196.87 26.1563 196.864 25.9565C196.858 25.7567 196.923 25.5612 197.047 25.4044L197.615 25.3078C198.332 25.1827 198.457 24.9609 198.457 23.2381V17.9502C198.457 16.7334 197.831 15.727 196.268 15.727C195.937 15.7128 195.608 15.7729 195.304 15.9028C195 16.0326 194.729 16.229 194.511 16.4775C194.305 16.8191 194.217 17.2185 194.26 17.6147V23.221C194.26 24.9268 194.386 25.2282 195.17 25.3191L195.671 25.3874C195.794 25.5439 195.859 25.7389 195.854 25.9384C195.849 26.1378 195.774 26.3292 195.642 26.4791C194.67 26.4222 193.669 26.3881 192.162 26.3881C190.843 26.3881 189.564 26.4222 188.466 26.4791C188.335 26.3293 188.26 26.1385 188.253 25.9394C188.247 25.7402 188.311 25.545 188.432 25.3874L188.938 25.3191C190.076 25.1941 190.189 24.9439 190.189 22.7491L190.184 18.0468Z" fill="#592C82"/>
<path d="M219.216 21.2764C219.216 24.2161 219.341 24.9382 219.932 24.9382C220.394 24.9499 220.853 24.8647 221.28 24.688C221.443 24.8724 221.537 25.1083 221.544 25.3546C221.551 25.6008 221.472 25.8419 221.32 26.0356C219.398 26.178 217.501 26.5601 215.674 27.1728C215.55 27.1674 215.431 27.1217 215.336 27.0427C215.24 26.9636 215.173 26.8556 215.145 26.7349L215.242 25.7683C215.207 25.5182 215.082 25.4272 214.957 25.5182C213.86 26.2062 212.734 26.8657 211.574 26.8657C208.003 26.8657 205.593 24.0739 205.593 20.6965C205.593 16.2785 208.913 13.4583 213.047 13.4583C213.646 13.4469 214.245 13.5003 214.832 13.6175C214.937 13.5593 215.022 13.4718 215.078 13.3657C215.133 13.2596 215.157 13.1396 215.145 13.0205V9.04031C215.145 7.7894 215.145 7.44256 214.519 7.07297L213.985 6.75456C213.872 6.62432 213.81 6.45778 213.81 6.28547C213.81 6.11316 213.872 5.94662 213.985 5.81638C215.628 5.35103 217.228 4.74415 218.767 4.00257C218.866 3.99353 218.966 4.00844 219.058 4.04604C219.15 4.08365 219.231 4.14284 219.296 4.21863C219.239 5.50365 219.205 6.81711 219.205 8.79581L219.216 21.2764ZM215.145 17.1086C215.161 16.7401 215.087 16.3732 214.929 16.0397C214.75 15.7149 214.492 15.4404 214.179 15.2417C213.866 15.0429 213.508 14.9263 213.138 14.9025C211.546 14.9025 209.976 16.5685 209.976 19.855C209.976 21.9246 210.92 24.7733 213.485 24.7733C213.94 24.7703 214.386 24.6382 214.77 24.3923C215.116 24.1763 215.145 23.7726 215.145 23.204V17.1086Z" fill="#592C82"/>
<path d="M232.902 22.118C232.783 24.2445 233.687 24.8131 234.312 24.8131C234.736 24.8011 235.147 24.6711 235.501 24.4378C235.573 24.4592 235.64 24.4949 235.699 24.5427C235.757 24.5905 235.806 24.6494 235.841 24.7161C235.877 24.7828 235.899 24.8559 235.906 24.9311C235.912 25.0064 235.904 25.0822 235.882 25.1542C235.422 25.6688 234.863 26.0851 234.239 26.3782C233.615 26.6714 232.938 26.8352 232.248 26.86C231.759 26.8606 231.274 26.7639 230.822 26.5755C230.37 26.3871 229.96 26.1108 229.616 25.7626C229.553 25.6898 229.477 25.6301 229.391 25.5871C229.305 25.5442 229.211 25.5188 229.115 25.5125C228.871 25.5677 228.646 25.6852 228.461 25.8536C227.7 26.4609 226.767 26.8131 225.795 26.86C223.981 26.86 222.286 25.7626 222.286 23.5679C222.286 21.9701 223.259 21.0035 225.544 20.3155C226.739 19.9402 227.608 19.6901 228.49 19.4342C229.058 19.2807 229.212 19.0589 229.24 18.8087C229.279 18.4556 229.3 18.1007 229.303 17.7455C229.303 16.5571 228.831 15.0503 227.489 15.0503C226.739 15.0503 226.079 15.4882 225.863 16.8357C225.849 17.0307 225.794 17.2206 225.702 17.393C225.61 17.5654 225.483 17.7165 225.328 17.8365C224.635 18.2471 223.857 18.4941 223.054 18.5586C222.52 18.5586 222.338 18.2174 222.338 17.7739C222.338 16.9608 223.088 15.9601 223.839 15.3688C225.338 14.1776 227.184 13.5053 229.098 13.4526C231.731 13.4526 233.266 14.7717 233.107 18.0013L232.902 22.118ZM229.144 21.3049C229.178 20.8045 229.144 20.7363 228.928 20.7363C227.518 20.9239 226.301 21.4527 226.301 22.931C226.273 23.3887 226.424 23.8392 226.72 24.1887C227.017 24.5383 227.437 24.7599 227.893 24.8074C228.865 24.8074 229.03 24.2388 229.087 23.2722L229.144 21.3049Z" fill="#592C82"/>
<path d="M241.926 15.5734C241.516 15.5734 241.488 15.6076 241.488 16.2956V20.9921C241.488 22.7434 241.488 24.688 243.677 24.688C244.152 24.6544 244.608 24.4912 244.996 24.2161C245.158 24.2755 245.292 24.3924 245.373 24.5446C245.453 24.6967 245.475 24.8733 245.434 25.0405C244.229 26.2169 242.609 26.8707 240.925 26.86C238.321 26.86 237.417 25.3533 237.417 23.2893V16.2956C237.417 15.636 237.383 15.5734 236.848 15.5734H235.876C235.794 15.5273 235.722 15.4639 235.667 15.3874C235.612 15.311 235.574 15.2234 235.556 15.1309C235.538 15.0383 235.541 14.9429 235.564 14.8514C235.587 14.76 235.629 14.6745 235.688 14.6012C236.609 14.2398 237.482 13.7662 238.287 13.191C239.197 12.5193 239.98 11.6915 240.601 10.7461C240.823 10.6267 241.385 10.6551 241.539 10.9053V13.2536C241.539 13.8222 241.573 13.879 242.136 13.879H244.922C245.008 13.9517 245.077 14.0435 245.121 14.1472C245.165 14.2508 245.185 14.3635 245.178 14.4761C245.178 14.8229 245.081 15.3858 244.769 15.5734H241.926Z" fill="#592C82"/>
<path d="M251.666 22.7662C251.666 24.9609 251.791 25.2452 252.803 25.3362L253.4 25.4044C253.522 25.5621 253.585 25.7572 253.579 25.9564C253.573 26.1556 253.497 26.3464 253.366 26.4961C252.268 26.4393 251.046 26.4052 249.607 26.4052C248.169 26.4052 246.884 26.4393 245.855 26.4961C245.721 26.3474 245.644 26.1563 245.638 25.9565C245.632 25.7567 245.697 25.5612 245.821 25.4044L246.418 25.3362C247.447 25.2452 247.555 24.9609 247.555 22.7662V18.0468C247.555 16.7959 247.555 16.4207 246.958 16.0397L246.52 15.7611C246.415 15.6271 246.358 15.462 246.358 15.292C246.358 15.122 246.415 14.9569 246.52 14.8229C248.125 14.3785 249.68 13.7688 251.16 13.0034C251.27 12.9968 251.381 13.019 251.481 13.0678C251.58 13.1166 251.666 13.1904 251.728 13.282C251.666 14.2259 251.632 15.6076 251.632 17.012L251.666 22.7662ZM251.916 8.61386C251.923 8.92019 251.866 9.2246 251.75 9.50808C251.633 9.79156 251.46 10.048 251.24 10.2615C251.02 10.4749 250.759 10.6407 250.472 10.7485C250.185 10.8564 249.879 10.9039 249.573 10.8882C249.278 10.906 248.982 10.8604 248.705 10.7546C248.429 10.6488 248.178 10.4853 247.97 10.2749C247.761 10.0644 247.6 9.81197 247.497 9.53436C247.395 9.25676 247.352 8.96038 247.373 8.66504C247.373 8.35954 247.434 8.05714 247.553 7.77588C247.672 7.49462 247.847 7.24027 248.067 7.028C248.287 6.81573 248.547 6.64989 248.832 6.54039C249.117 6.43089 249.421 6.37997 249.727 6.39066C250.02 6.38174 250.311 6.4334 250.583 6.54242C250.855 6.65144 251.101 6.81546 251.307 7.02419C251.512 7.23293 251.673 7.48188 251.777 7.75543C251.882 8.02898 251.929 8.32123 251.916 8.61386Z" fill="#592C82"/>
<path d="M254.736 20.3951C254.708 15.9203 258.244 13.4412 261.94 13.4412C265.636 13.4412 268.957 15.7156 268.957 20.1165C268.957 24.6653 265.602 26.8487 261.753 26.8487C258.023 26.8487 254.77 24.7164 254.736 20.3951ZM259.245 19.7071C259.245 22.9936 260.28 25.3931 262.088 25.3931C263.896 25.3931 264.465 23.3518 264.431 20.5373C264.402 17.501 263.527 14.8513 261.741 14.8513C260.365 14.8513 259.234 16.2671 259.234 19.6787" fill="#592C82"/>
<path d="M272.402 18.0468C272.402 16.7959 272.402 16.4207 271.805 16.0397L271.367 15.7611C271.26 15.6284 271.201 15.4628 271.201 15.292C271.201 15.1212 271.26 14.9556 271.367 14.8229C272.973 14.3847 274.527 13.7747 276.001 13.0034C276.112 12.9968 276.223 13.019 276.322 13.0678C276.422 13.1166 276.507 13.1904 276.57 13.282C276.57 13.7255 276.473 14.4761 276.473 14.6978C276.473 14.9196 276.536 14.948 276.627 14.948C276.835 14.8876 277.035 14.8037 277.224 14.6978C277.912 14.2884 279.385 13.4412 280.823 13.4412C283.422 13.4412 284.741 15.2266 284.741 17.3929V22.7662C284.741 24.9609 284.866 25.2111 285.992 25.3362L286.498 25.4044C286.622 25.5612 286.686 25.7567 286.68 25.9565C286.674 26.1563 286.597 26.3474 286.464 26.4961C285.491 26.4393 284.189 26.4052 282.677 26.4052C281.42 26.4052 280.198 26.4393 279.265 26.4961C279.134 26.3462 279.059 26.1549 279.053 25.9554C279.048 25.756 279.113 25.561 279.237 25.4044L279.805 25.3078C280.527 25.1827 280.653 24.9609 280.653 23.2381V17.9502C280.653 16.7334 280.027 15.727 278.463 15.727C278.133 15.7128 277.804 15.7729 277.5 15.9028C277.196 16.0326 276.925 16.229 276.707 16.4775C276.501 16.8191 276.413 17.2185 276.456 17.6147V23.221C276.456 24.9268 276.581 25.2282 277.366 25.3191L277.866 25.3874C277.99 25.5441 278.055 25.7397 278.049 25.9395C278.043 26.1392 277.966 26.3304 277.832 26.4791C276.866 26.4222 275.859 26.3881 274.358 26.3881C273.045 26.3881 271.754 26.4222 270.668 26.4791C270.535 26.3304 270.458 26.1392 270.452 25.9395C270.445 25.7397 270.51 25.5441 270.634 25.3874L271.129 25.3191C272.266 25.1941 272.385 24.9439 272.385 22.7491L272.402 18.0468Z" fill="#592C82"/>
<path d="M64.3304 32.5346V34.7464H64.1086C63.9823 34.1561 63.6669 33.6231 63.2102 33.2283C62.729 32.8804 62.143 32.7078 61.5499 32.7393C61.1506 32.7203 60.7522 32.7924 60.3848 32.95C60.0174 33.1076 59.6906 33.3466 59.4291 33.6491C58.875 34.3353 58.5936 35.2018 58.6387 36.0826C58.5922 37.0469 58.8861 37.9968 59.4689 38.7664C59.7263 39.0939 60.0568 39.3565 60.434 39.5333C60.8112 39.71 61.2245 39.796 61.6409 39.7842C62.2075 39.8073 62.7687 39.6654 63.2562 39.3757C63.7437 39.086 64.1366 38.661 64.3872 38.1523L64.5919 38.3343C64.327 38.926 63.8784 39.4165 63.3126 39.733C62.7031 40.0849 62.0091 40.2638 61.3055 40.2504C60.6174 40.2555 59.9384 40.0935 59.3267 39.7785C58.7477 39.4815 58.2633 39.0285 57.928 38.4707C57.5907 37.8873 57.4196 37.2226 57.4333 36.5489C57.4135 36.0082 57.5042 35.4692 57.6997 34.9648C57.8952 34.4603 58.1915 34.001 58.5705 33.6149C58.9524 33.2366 59.4077 32.9405 59.9084 32.7449C60.4091 32.5493 60.9445 32.4584 61.4817 32.4778C61.9859 32.4899 62.4873 32.5567 62.9771 32.6768C63.2083 32.7346 63.4443 32.7707 63.6822 32.7848C63.7675 32.7915 63.853 32.7736 63.9286 32.7333C64.0041 32.693 64.0666 32.632 64.1086 32.5574L64.3304 32.5346Z" fill="#592C82"/>
<path d="M70.9772 37.7884C70.9805 38.1108 70.9141 38.4301 70.7826 38.7245C70.6511 39.0189 70.4576 39.2814 70.2153 39.4942C69.6826 39.9418 69.0091 40.1871 68.3134 40.1871C67.6176 40.1871 66.9441 39.9418 66.4114 39.4942C66.1719 39.2795 65.9807 39.0165 65.8503 38.7224C65.72 38.4284 65.6535 38.1101 65.6552 37.7884C65.6469 37.4592 65.7103 37.132 65.8408 36.8297C65.9714 36.5273 66.1661 36.2569 66.4114 36.0371C66.9465 35.5923 67.6204 35.3487 68.3162 35.3487C69.0121 35.3487 69.6859 35.5923 70.221 36.0371C70.4663 36.2569 70.661 36.5273 70.7916 36.8297C70.9222 37.132 70.9855 37.4592 70.9772 37.7884ZM69.9708 37.7884C69.9956 37.2269 69.838 36.6723 69.5216 36.2077C69.3865 36.0138 69.2047 35.857 68.9931 35.7517C68.7814 35.6463 68.5467 35.5959 68.3105 35.605C68.0785 35.5946 67.8474 35.6409 67.6374 35.74C67.4273 35.8391 67.2446 35.9879 67.1051 36.1736C66.7895 36.6445 66.6358 37.2054 66.6673 37.7714C66.6367 38.3319 66.7904 38.8871 67.1051 39.3521C67.2436 39.5389 67.4261 39.6885 67.6364 39.7877C67.8467 39.887 68.0783 39.9326 68.3105 39.9206C68.5444 39.9325 68.7775 39.8869 68.9897 39.7877C69.2018 39.6886 69.3864 39.539 69.5273 39.3521C69.8391 38.8856 69.9945 38.332 69.9708 37.7714" fill="#592C82"/>
<path d="M73.6326 35.3492V36.3442C73.9625 36.0619 74.3121 35.8035 74.6788 35.5709C74.8625 35.4442 75.0761 35.3677 75.2985 35.3492C75.6304 35.3583 75.9476 35.4876 76.1912 35.7131L75.8216 36.5261C75.4746 36.3144 75.0874 36.1769 74.6845 36.1224C74.2838 36.1856 73.9177 36.3867 73.6496 36.691V39.2156C73.638 39.3091 73.6473 39.404 73.6768 39.4935C73.7063 39.5829 73.7553 39.6647 73.8202 39.733C74.0154 39.8428 74.2401 39.8886 74.4627 39.8638V40.0799H71.8927V39.8638C72.1248 39.8915 72.3594 39.8393 72.5579 39.716C72.6951 39.4976 72.7514 39.2381 72.7171 38.9825V36.4636C72.7326 36.3541 72.7255 36.2426 72.6962 36.136C72.6668 36.0294 72.6159 35.9299 72.5465 35.8438C72.2873 35.7174 71.9972 35.6681 71.7107 35.7017V35.4913L73.4165 35.3492H73.6326Z" fill="#592C82"/>
<path d="M78.3519 35.3492V36.2646C78.5644 35.9976 78.8306 35.7782 79.1332 35.6205C79.4359 35.4628 79.7682 35.3703 80.1088 35.3492C80.5452 35.3372 80.9684 35.4987 81.2858 35.7983C81.4376 35.9543 81.5557 36.1397 81.6329 36.3431C81.7102 36.5466 81.7449 36.7637 81.735 36.981V39.0564C81.7205 39.1676 81.7282 39.2806 81.7574 39.3889C81.7867 39.4972 81.8371 39.5987 81.9056 39.6875C82.1034 39.8076 82.3351 39.8596 82.5652 39.8354V40.0514H79.9667V39.8354C80.1933 39.8552 80.421 39.8139 80.6263 39.716C80.693 39.6621 80.7449 39.592 80.7767 39.5123C80.8086 39.4326 80.8194 39.3461 80.8082 39.2611V36.8787C80.8154 36.7361 80.7917 36.5938 80.7387 36.4613C80.6857 36.3288 80.6047 36.2093 80.5012 36.1111C80.3956 36.0143 80.2719 35.9393 80.1372 35.8905C80.0026 35.8417 79.8596 35.8201 79.7165 35.8268C79.4329 35.8611 79.1609 35.9599 78.9214 36.1156C78.6819 36.2713 78.4813 36.4798 78.3348 36.7252V38.9995C78.3014 39.2533 78.3577 39.5107 78.494 39.7273C78.6868 39.8545 78.9186 39.909 79.1479 39.8808V40.0969H76.6177V39.8808C76.993 39.8808 77.2204 39.824 77.3 39.716C77.4127 39.4951 77.4582 39.246 77.4308 38.9995V36.3783C77.4469 36.2781 77.4416 36.1755 77.4151 36.0775C77.3887 35.9795 77.3417 35.8882 77.2773 35.8097C77.0756 35.7006 76.8457 35.655 76.6177 35.6789V35.4686L78.1358 35.3264L78.3519 35.3492Z" fill="#592C82"/>
<path d="M88.0294 38.8915V39.2554C87.7831 39.5668 87.4753 39.8242 87.1253 40.0116C86.7789 40.1747 86.3992 40.2545 86.0165 40.2447C85.3273 40.2692 84.6552 40.0269 84.1402 39.5681C83.8986 39.3557 83.7067 39.0929 83.578 38.7981C83.4492 38.5033 83.3869 38.1839 83.3953 37.8623C83.3886 37.5366 83.4482 37.2129 83.5703 36.9109C83.6925 36.6089 83.8748 36.3348 84.1061 36.1054C84.3299 35.8726 84.5996 35.6888 84.8981 35.5655C85.1966 35.4422 85.5174 35.3821 85.8403 35.389C86.3844 35.3909 86.9087 35.5933 87.3129 35.9575C87.5088 36.1085 87.6674 36.3023 87.7768 36.524C87.8862 36.7458 87.9434 36.9896 87.9441 37.2369V37.3335H84.3676V37.4018C84.3589 37.8559 84.4441 38.3069 84.6178 38.7266C84.7645 39.0798 85.0117 39.3823 85.3285 39.5965C85.6178 39.7643 85.9499 39.8434 86.2838 39.824C86.5681 39.8307 86.8495 39.7662 87.1025 39.6363C87.4372 39.4224 87.7413 39.1642 88.0066 38.8687L88.0294 38.8915ZM84.3449 37.0265H86.9945V36.981C87.0028 36.8014 86.9743 36.622 86.9107 36.4538C86.8472 36.2857 86.7499 36.1323 86.6249 36.003C86.5011 35.8844 86.3548 35.7916 86.1947 35.7301C86.0346 35.6686 85.8639 35.6396 85.6924 35.6448C85.5167 35.6374 85.3414 35.667 85.1778 35.7317C85.0143 35.7963 84.8661 35.8946 84.7429 36.0201C84.4897 36.3125 84.3487 36.6853 84.3449 37.072" fill="#592C82"/>
<path d="M91.5205 39.8524H91.6456V40.0685H88.9277V39.8524H89.1779C89.2707 39.8662 89.3655 39.8568 89.4538 39.825C89.5421 39.7933 89.6212 39.7402 89.684 39.6705C89.795 39.4592 89.8424 39.2202 89.8204 38.9825V32.9269C89.8345 32.8403 89.8306 32.7517 89.8091 32.6667C89.7876 32.5816 89.7489 32.5018 89.6953 32.4323C89.5472 32.3256 89.3651 32.2771 89.1836 32.2958H88.8709V32.0797L90.5767 31.9205H90.8041V39.2042C90.794 39.2959 90.803 39.3886 90.8304 39.4767C90.8578 39.5647 90.903 39.6462 90.9633 39.716C91.1462 39.8254 91.3595 39.8733 91.5717 39.8524" fill="#592C82"/>
<path d="M93.8631 35.3492H94.0963V39.2213C94.0851 39.3135 94.0951 39.407 94.1257 39.4948C94.1562 39.5825 94.2065 39.662 94.2725 39.7273C94.4681 39.83 94.6894 39.8735 94.9093 39.8524V40.0685H92.2426V39.8524C92.5014 39.8799 92.7627 39.8366 92.9989 39.7273C93.0627 39.6597 93.1106 39.5786 93.1391 39.4901C93.1676 39.4016 93.176 39.3078 93.1638 39.2156V36.4124C93.1792 36.3122 93.1735 36.2098 93.1471 36.1119C93.1206 36.014 93.074 35.9227 93.0102 35.8438C92.7736 35.723 92.5064 35.6755 92.2426 35.7074V35.497L93.8631 35.3492ZM93.6755 33.0009C93.7532 32.9981 93.8306 33.0113 93.903 33.0397C93.9753 33.0681 94.0411 33.111 94.0963 33.1658C94.2004 33.272 94.2588 33.4149 94.2588 33.5638C94.2588 33.7126 94.2004 33.8555 94.0963 33.9618C94.0423 34.0169 93.9776 34.0604 93.9063 34.0898C93.8349 34.1191 93.7583 34.1336 93.6812 34.1324C93.6023 34.1335 93.5241 34.119 93.4509 34.0897C93.3777 34.0604 93.311 34.017 93.2547 33.9618C93.1988 33.9117 93.1541 33.8503 93.1234 33.7817C93.0928 33.7131 93.077 33.6389 93.077 33.5638C93.077 33.4887 93.0928 33.4144 93.1234 33.3458C93.1541 33.2772 93.1988 33.2159 93.2547 33.1658C93.3698 33.0607 93.5197 33.002 93.6755 33.0009Z" fill="#592C82"/>
<path d="M97.1325 40.2163C96.7736 40.2211 96.4255 40.0936 96.1546 39.8581C96.0269 39.7518 95.9241 39.6188 95.8534 39.4685C95.7827 39.3182 95.7457 39.1543 95.7452 38.9882C95.7418 38.8385 95.7717 38.6901 95.8327 38.5534C95.8937 38.4167 95.9842 38.2953 96.0977 38.1978C96.529 37.9077 97.0177 37.7137 97.5305 37.6292C97.8435 37.5582 98.1483 37.4553 98.4403 37.3222V36.981C98.4476 36.8335 98.4252 36.686 98.3744 36.5473C98.3236 36.4086 98.2455 36.2815 98.1446 36.1736C98.0418 36.0698 97.9183 35.9888 97.7822 35.9359C97.646 35.883 97.5002 35.8594 97.3543 35.8666C97.067 35.8615 96.7865 35.9537 96.5583 36.1281C96.3205 36.3123 96.1473 36.5671 96.0636 36.8559L95.8191 36.7934C95.9028 36.3844 96.1309 36.0191 96.4616 35.7642C96.8154 35.5035 97.2458 35.3676 97.6852 35.3779C98.1247 35.3882 98.5482 35.5441 98.8895 35.8211C99.0541 35.9811 99.1824 36.1745 99.2658 36.3884C99.3491 36.6022 99.3856 36.8315 99.3728 37.0606V39.0336C99.3651 39.2249 99.3842 39.4163 99.4296 39.6022C99.4456 39.6476 99.4758 39.6865 99.5158 39.7132C99.5558 39.7398 99.6034 39.7528 99.6514 39.7501C99.6861 39.7511 99.7205 39.7433 99.7513 39.7274C99.7821 39.7114 99.8084 39.688 99.8277 39.6591C99.8941 39.5488 99.9457 39.4303 99.9812 39.3066H100.214C100.205 39.5608 100.104 39.803 99.93 39.9889C99.8435 40.0745 99.7403 40.1414 99.6268 40.1854C99.5134 40.2294 99.3921 40.2496 99.2704 40.2447C99.0785 40.2459 98.8918 40.1819 98.7409 40.0631C98.5901 39.9443 98.4841 39.7778 98.4403 39.5909C98.2583 39.7983 98.0407 39.9716 97.7978 40.1026C97.5907 40.2027 97.3625 40.2515 97.1325 40.2447V40.2163ZM98.4403 39.1644V37.578C98.2438 37.6587 98.0425 37.7271 97.8376 37.7827C97.4938 37.8641 97.1742 38.0259 96.9051 38.2547C96.7587 38.4289 96.6853 38.653 96.7004 38.8801C96.7011 39.0896 96.7779 39.2916 96.9165 39.4487C96.9807 39.5254 97.0606 39.5874 97.1509 39.6306C97.2411 39.6737 97.3396 39.697 97.4396 39.6989C97.6405 39.6913 97.8362 39.6326 98.0082 39.5283C98.1891 39.4364 98.3378 39.2916 98.4346 39.1132" fill="#592C82"/>
<path d="M108.755 31.9205H108.982V39.1815C108.972 39.2771 108.982 39.3738 109.013 39.465C109.043 39.5563 109.093 39.6399 109.158 39.7103C109.351 39.8222 109.573 39.8718 109.795 39.8524V40.0685H106.952C106.202 40.1088 105.464 39.8675 104.882 39.3919C104.638 39.1806 104.444 38.9183 104.312 38.6236C104.18 38.3289 104.115 38.0088 104.121 37.6861C104.115 37.3793 104.172 37.0745 104.287 36.7902C104.402 36.5058 104.574 36.2477 104.791 36.0315C105 35.8136 105.25 35.6411 105.528 35.5247C105.806 35.4083 106.105 35.3504 106.406 35.3548C106.993 35.3867 107.559 35.5838 108.038 35.9234V33.0805C108.06 32.8641 108.017 32.6462 107.913 32.455C107.844 32.3917 107.762 32.3442 107.672 32.3158C107.583 32.2873 107.489 32.2785 107.396 32.2901H107.123V32.0741L108.755 31.9205ZM108.05 39.1644V36.4124C107.872 36.1787 107.647 35.985 107.39 35.8438C107.159 35.713 106.899 35.6426 106.634 35.6391C106.426 35.634 106.221 35.6782 106.034 35.7682C105.847 35.8582 105.684 35.9913 105.559 36.1566C105.276 36.5452 105.134 37.0183 105.155 37.4984C105.13 38.1175 105.332 38.7244 105.724 39.2042C105.919 39.4256 106.161 39.6 106.433 39.7143C106.705 39.8285 106.999 39.8796 107.293 39.8638C107.496 39.8733 107.696 39.8153 107.862 39.6989C107.926 39.6267 107.975 39.542 108.006 39.45C108.036 39.358 108.047 39.2608 108.038 39.1644" fill="#592C82"/>
<path d="M115.282 38.8915V39.2554C115.038 39.5672 114.732 39.8248 114.384 40.0116C114.037 40.1735 113.657 40.2533 113.275 40.2447C112.584 40.2683 111.911 40.0262 111.393 39.5681C111.153 39.3547 110.963 39.0915 110.835 38.7969C110.707 38.5023 110.645 38.1833 110.654 37.8623C110.646 37.537 110.704 37.2134 110.826 36.9114C110.947 36.6093 111.128 36.3351 111.359 36.1054C111.583 35.8732 111.853 35.6897 112.151 35.5664C112.45 35.4432 112.77 35.3827 113.093 35.389C113.639 35.39 114.165 35.5925 114.571 35.9575C114.767 36.1085 114.926 36.3023 115.035 36.524C115.145 36.7458 115.202 36.9896 115.202 37.2369V37.3335H111.626V37.4018C111.621 37.8421 111.704 38.2791 111.87 38.6868C112.019 39.0404 112.268 39.3428 112.587 39.5567C112.846 39.7393 113.151 39.8478 113.467 39.8709C113.784 39.8939 114.1 39.8305 114.384 39.6875C114.717 39.463 115.019 39.1954 115.282 38.8915ZM111.626 37.0492H114.276V36.981C114.284 36.8009 114.255 36.621 114.191 36.4526C114.126 36.2843 114.027 36.1312 113.9 36.003C113.778 35.8845 113.632 35.7918 113.473 35.7303C113.314 35.6688 113.144 35.6397 112.974 35.6448C112.798 35.6367 112.622 35.666 112.459 35.7307C112.295 35.7953 112.147 35.894 112.024 36.0201C111.771 36.3125 111.63 36.6853 111.626 37.072" fill="#592C82"/>
<path d="M125.642 38.448H125.875L125.392 40.0685H119.706V39.8524C119.834 39.8639 119.964 39.8446 120.083 39.7962C120.203 39.7478 120.309 39.6715 120.394 39.5738C120.557 39.2811 120.63 38.9469 120.604 38.6129V33.9277C120.63 33.6356 120.562 33.343 120.411 33.0918C120.318 33.0023 120.207 32.9345 120.085 32.8932C119.963 32.8519 119.834 32.8382 119.706 32.853V32.637H122.549V32.853C122.423 32.8413 122.297 32.8599 122.18 32.9074C122.063 32.9549 121.959 33.0299 121.878 33.126C121.715 33.3958 121.643 33.7107 121.673 34.0243V38.9938C121.66 39.0957 121.669 39.1992 121.699 39.2973C121.73 39.3954 121.781 39.4858 121.849 39.5624C122.066 39.6878 122.317 39.7415 122.566 39.716H124.124C124.478 39.7506 124.834 39.6666 125.136 39.4771C125.413 39.1926 125.609 38.8393 125.704 38.4537" fill="#592C82"/>
<path d="M127.905 40.2163C127.546 40.2211 127.198 40.0936 126.927 39.8581C126.799 39.7518 126.696 39.6188 126.626 39.4685C126.555 39.3182 126.518 39.1543 126.517 38.9882C126.514 38.8385 126.544 38.6901 126.605 38.5534C126.666 38.4167 126.756 38.2953 126.87 38.1978C127.301 37.9077 127.79 37.7137 128.303 37.6292C128.616 37.5582 128.921 37.4553 129.213 37.3222V36.981C129.22 36.8335 129.197 36.686 129.147 36.5473C129.096 36.4086 129.018 36.2815 128.917 36.1736C128.814 36.0695 128.691 35.9884 128.555 35.9354C128.418 35.8825 128.273 35.859 128.127 35.8666C127.839 35.8606 127.558 35.9529 127.331 36.1281C127.093 36.3109 126.921 36.5665 126.842 36.8559L126.591 36.7934C126.666 36.3757 126.89 35.9996 127.223 35.7358C127.576 35.475 128.007 35.3392 128.446 35.3495C128.886 35.3597 129.309 35.5156 129.65 35.7927C129.815 35.9526 129.943 36.1461 130.027 36.3599C130.11 36.5738 130.147 36.803 130.134 37.0322V39.0052C130.126 39.1965 130.145 39.3879 130.191 39.5738C130.207 39.6192 130.237 39.6581 130.277 39.6848C130.317 39.7114 130.364 39.7244 130.412 39.7216C130.447 39.7227 130.481 39.7148 130.512 39.6989C130.543 39.683 130.569 39.6595 130.589 39.6307C130.655 39.5204 130.707 39.4019 130.742 39.2781H130.975C130.968 39.5329 130.867 39.7761 130.691 39.9604C130.604 40.0455 130.501 40.1121 130.387 40.156C130.274 40.2 130.153 40.2205 130.031 40.2163C129.839 40.2175 129.653 40.1535 129.502 40.0347C129.351 39.9159 129.245 39.7494 129.201 39.5624C129.018 39.7686 128.801 39.9417 128.559 40.0742C128.352 40.1743 128.123 40.223 127.893 40.2163H127.905ZM129.201 39.136V37.578C129.005 37.6587 128.803 37.7271 128.599 37.7827C128.255 37.8641 127.935 38.0259 127.666 38.2547C127.522 38.4303 127.449 38.6534 127.461 38.8801C127.465 39.0891 127.541 39.2903 127.677 39.4487C127.74 39.5253 127.819 39.5872 127.909 39.6304C127.998 39.6736 128.096 39.697 128.195 39.6989C128.396 39.6906 128.591 39.6319 128.763 39.5283C128.944 39.4364 129.093 39.2916 129.19 39.1132" fill="#592C82"/>
<path d="M133.153 35.3492V36.2646C133.365 35.9973 133.631 35.7777 133.934 35.62C134.237 35.4623 134.569 35.37 134.91 35.3492C135.344 35.3381 135.766 35.4996 136.081 35.7983C136.239 35.9546 136.362 36.1419 136.444 36.3485C136.525 36.5551 136.562 36.7763 136.553 36.9981V39.0734C136.526 39.2971 136.585 39.5228 136.718 39.7046C136.916 39.8247 137.147 39.8766 137.378 39.8524V40.0685H134.779V39.8524C135.008 39.8721 135.237 39.8309 135.444 39.733C135.511 39.6789 135.562 39.6085 135.592 39.5288C135.623 39.4491 135.633 39.3627 135.621 39.2781V36.8787C135.628 36.7361 135.604 36.5938 135.551 36.4613C135.498 36.3288 135.417 36.2093 135.314 36.1111C135.209 36.0147 135.086 35.94 134.952 35.8912C134.819 35.8424 134.677 35.8205 134.535 35.8268C134.251 35.8594 133.978 35.9575 133.738 36.1134C133.498 36.2693 133.298 36.4787 133.153 36.7252V38.9995C133.121 39.2525 133.175 39.5088 133.306 39.7273C133.501 39.8549 133.735 39.9093 133.966 39.8808V40.0969H131.396V39.8808C131.771 39.8808 131.999 39.824 132.078 39.716C132.191 39.4951 132.236 39.246 132.209 38.9995V36.3783C132.225 36.2781 132.22 36.1755 132.193 36.0775C132.167 35.9795 132.12 35.8882 132.056 35.8097C131.854 35.7006 131.624 35.655 131.396 35.6789V35.4686L132.914 35.3264L133.153 35.3492Z" fill="#592C82"/>
<path d="M141.693 35.4003H143.257V35.9177H141.972C142.321 36.2766 142.524 36.7532 142.54 37.2539C142.539 37.4855 142.49 37.7143 142.397 37.9264C142.304 38.1386 142.169 38.3296 142 38.4878C141.667 38.8374 141.209 39.0417 140.727 39.0564C140.354 39.0797 139.991 39.1908 139.669 39.3805C139.316 39.5814 139.14 39.7577 139.14 39.9093C139.142 39.9936 139.17 40.0752 139.22 40.1432C139.27 40.2113 139.339 40.2625 139.419 40.2902C139.844 40.4322 140.282 40.5312 140.727 40.5859C141.263 40.6657 141.793 40.7836 142.313 40.9384C142.582 41.0269 142.823 41.1836 143.012 41.3933C143.174 41.5795 143.263 41.8178 143.263 42.0642C143.252 42.3484 143.165 42.6246 143.012 42.8644C142.859 43.1042 142.646 43.299 142.393 43.4289C141.757 43.8221 141.019 44.0199 140.272 43.9975C139.678 44.0208 139.09 43.8853 138.566 43.6051C138.37 43.5158 138.204 43.3728 138.086 43.1926C137.968 43.0125 137.904 42.8026 137.901 42.5874C137.905 42.4386 137.941 42.2924 138.006 42.1589C138.072 42.0254 138.166 41.9077 138.282 41.8141C138.642 41.529 139.048 41.306 139.481 41.1545C139.2 41.1026 138.934 40.988 138.702 40.819C138.619 40.762 138.55 40.6859 138.501 40.5969C138.453 40.5079 138.426 40.4086 138.424 40.3073C138.424 39.8031 138.924 39.3824 139.925 39.045C139.489 38.9559 139.091 38.7334 138.788 38.4082C138.521 38.1039 138.378 37.7099 138.39 37.3051C138.381 37.0493 138.427 36.7945 138.525 36.5581C138.623 36.3217 138.771 36.1091 138.958 35.9348C139.358 35.5589 139.888 35.3547 140.437 35.3662H141.079C141.398 35.3662 141.602 35.3662 141.71 35.3662L141.693 35.4003ZM142.756 42.4452C142.756 42.1495 142.563 41.9107 142.188 41.7458C141.449 41.4976 140.687 41.3224 139.914 41.2227C138.97 41.4691 138.498 41.833 138.498 42.3144C138.498 42.6442 138.731 42.9171 139.191 43.1446C139.744 43.3818 140.342 43.4944 140.943 43.4744C141.398 43.4956 141.851 43.3976 142.256 43.1901C142.403 43.1269 142.529 43.0234 142.62 42.8916C142.71 42.7597 142.762 42.605 142.768 42.4452H142.756ZM139.26 37.1345C139.239 37.5619 139.357 37.9845 139.595 38.34C139.688 38.4837 139.816 38.601 139.968 38.6807C140.119 38.7604 140.288 38.7997 140.459 38.7948C140.633 38.8021 140.805 38.7653 140.96 38.6877C141.115 38.6101 141.248 38.4944 141.346 38.3513C141.58 37.9902 141.694 37.5642 141.67 37.1345C141.69 36.7294 141.574 36.3294 141.341 35.9973C141.242 35.8608 141.112 35.7501 140.962 35.6749C140.811 35.5996 140.645 35.562 140.476 35.5652C140.306 35.5611 140.136 35.5983 139.983 35.6735C139.83 35.7487 139.696 35.8598 139.595 35.9973C139.359 36.3279 139.24 36.7285 139.26 37.1345Z" fill="#592C82"/>
<path d="M148.693 38.8915V39.2554C148.447 39.5679 148.139 39.8255 147.789 40.0116C147.444 40.174 147.066 40.2538 146.685 40.2447C145.994 40.2695 145.32 40.0272 144.803 39.5681C144.562 39.3557 144.37 39.0929 144.241 38.7981C144.113 38.5033 144.05 38.1839 144.059 37.8623C144.052 37.5366 144.111 37.2129 144.234 36.9109C144.356 36.6089 144.538 36.3348 144.769 36.1054C144.99 35.8767 145.255 35.6953 145.549 35.5721C145.842 35.4489 146.157 35.3866 146.475 35.389C147.021 35.39 147.547 35.5925 147.953 35.9575C148.148 36.1094 148.306 36.3033 148.416 36.5249C148.525 36.7464 148.583 36.9898 148.585 37.2369V37.3335H145.002V37.4018C144.994 37.8559 145.079 38.3069 145.253 38.7266C145.416 39.0578 145.671 39.3357 145.986 39.5283C146.272 39.7325 146.613 39.8437 146.964 39.8467C147.248 39.8534 147.53 39.7889 147.783 39.6591C148.117 39.4452 148.422 39.187 148.687 38.8915H148.693ZM145.025 37.0493H147.692V36.981C147.7 36.8009 147.672 36.621 147.607 36.4526C147.542 36.2843 147.443 36.1312 147.317 36.003C147.193 35.8841 147.047 35.7911 146.887 35.7296C146.726 35.6681 146.556 35.6393 146.384 35.6448C146.209 35.6368 146.035 35.6661 145.872 35.7308C145.709 35.7955 145.562 35.8941 145.44 36.0201C145.183 36.3103 145.039 36.6841 145.037 37.072" fill="#592C82"/>
<path d="M157.176 32.5346H157.398V34.2404H157.165C157.133 33.8011 156.928 33.3922 156.596 33.1032C156.265 32.8191 155.838 32.6726 155.402 32.6938C155.035 32.6772 154.673 32.7833 154.373 32.9952C154.249 33.0908 154.149 33.2142 154.082 33.3555C154.015 33.4968 153.982 33.6519 153.986 33.8083C153.987 34.1225 154.102 34.4258 154.31 34.6612C154.721 35.0651 155.193 35.401 155.709 35.6562C156.331 35.9697 156.896 36.3848 157.381 36.8844C157.664 37.2218 157.817 37.6493 157.813 38.0898C157.815 38.371 157.758 38.6495 157.645 38.9072C157.533 39.1648 157.367 39.3958 157.159 39.5852C156.948 39.7879 156.7 39.9471 156.428 40.0534C156.155 40.1598 155.865 40.2113 155.573 40.2049C155.106 40.1843 154.645 40.0903 154.208 39.9263C154.067 39.8733 153.92 39.837 153.77 39.8183C153.645 39.8183 153.543 39.9093 153.469 40.0969H153.236V38.1182H153.469C153.46 38.3681 153.507 38.6168 153.605 38.8467C153.703 39.0767 153.851 39.2822 154.037 39.4487C154.398 39.7757 154.869 39.9544 155.357 39.9491C155.767 39.9687 156.171 39.8395 156.494 39.5852C156.636 39.4699 156.749 39.3229 156.824 39.156C156.899 38.9892 156.934 38.807 156.926 38.6243C156.919 38.3052 156.796 37.9997 156.579 37.7657C156.137 37.3424 155.638 36.9844 155.095 36.7024C154.652 36.4698 154.237 36.1854 153.861 35.8552C153.666 35.6602 153.511 35.4282 153.406 35.1729C153.307 34.9135 153.256 34.6377 153.258 34.3598C153.246 34.1011 153.291 33.8428 153.389 33.6031C153.487 33.3634 153.637 33.1481 153.827 32.9724C154.258 32.6033 154.813 32.4121 155.379 32.438C155.767 32.4428 156.151 32.51 156.516 32.637C156.647 32.6813 156.783 32.7099 156.92 32.7223C156.943 32.7257 156.966 32.7239 156.987 32.717C157.009 32.7101 157.029 32.6983 157.045 32.6825C157.084 32.6351 157.11 32.5782 157.119 32.5176" fill="#592C82"/>
<path d="M160.934 35.4913V35.7017C160.656 35.7415 160.519 35.8779 160.519 36.1111C160.523 36.2137 160.548 36.3145 160.593 36.4067L161.765 39.0052L162.612 36.5773C162.669 36.4242 162.701 36.263 162.708 36.0997C162.708 35.8552 162.549 35.7244 162.225 35.7017V35.4913H163.931V35.7017C163.813 35.6987 163.695 35.7193 163.585 35.7622C163.474 35.8052 163.374 35.8696 163.288 35.9519C163.078 36.1931 162.921 36.476 162.828 36.782L160.883 42.2007C160.745 42.6504 160.513 43.0653 160.201 43.4175C160.09 43.5496 159.953 43.6576 159.798 43.7348C159.644 43.8121 159.475 43.8569 159.303 43.8667C159.086 43.8559 158.877 43.7893 158.694 43.6734L159.013 42.883C159.162 42.9487 159.322 42.9854 159.485 42.9911C159.75 42.9991 160.008 42.9056 160.207 42.7295C160.445 42.4843 160.622 42.1862 160.724 41.8596L161.349 40.1936L159.587 36.4124C159.506 36.1945 159.373 35.9995 159.2 35.8438C159.015 35.7453 158.807 35.6963 158.598 35.7017V35.4913H160.934Z" fill="#592C82"/>
<path d="M166.131 35.3492V36.2646C166.344 35.9973 166.61 35.7777 166.912 35.62C167.215 35.4623 167.548 35.37 167.888 35.3492C168.323 35.3381 168.744 35.4996 169.06 35.7983C169.218 35.9537 169.343 36.1409 169.424 36.3477C169.505 36.5545 169.542 36.7761 169.532 36.9981V39.0734C169.517 39.1847 169.525 39.2977 169.554 39.406C169.583 39.5143 169.634 39.6158 169.702 39.7046C169.898 39.825 170.128 39.8771 170.356 39.8524V40.0685H167.758V39.8524C167.986 39.873 168.216 39.8317 168.423 39.733C168.488 39.6778 168.538 39.6074 168.569 39.5279C168.599 39.4485 168.61 39.3626 168.599 39.2781V36.8787C168.606 36.7361 168.583 36.5938 168.53 36.4613C168.477 36.3288 168.396 36.2093 168.292 36.1111C168.188 36.0142 168.065 35.9391 167.931 35.8903C167.797 35.8415 167.655 35.8199 167.513 35.8268C167.229 35.8611 166.957 35.9599 166.718 36.1156C166.478 36.2713 166.278 36.4798 166.131 36.7252V38.9995C166.1 39.2525 166.154 39.5088 166.285 39.7273C166.48 39.854 166.713 39.9084 166.944 39.8808V40.0969H164.374V39.8808C164.75 39.8808 164.977 39.824 165.062 39.716C165.172 39.4941 165.218 39.2459 165.193 38.9995V36.3783C165.209 36.2781 165.204 36.1755 165.178 36.0775C165.151 35.9795 165.104 35.8882 165.04 35.8097C164.836 35.6995 164.604 35.6539 164.374 35.6789V35.4686L165.893 35.3264L166.131 35.3492Z" fill="#592C82"/>
<path d="M175.712 31.9205H175.934V39.1815C175.924 39.2771 175.934 39.3738 175.965 39.465C175.995 39.5563 176.045 39.6399 176.11 39.7103C176.302 39.8229 176.525 39.8726 176.747 39.8524V40.0685H173.904C173.154 40.1099 172.415 39.8685 171.834 39.3919C171.59 39.1806 171.396 38.9183 171.264 38.6236C171.132 38.3289 171.067 38.0088 171.072 37.6861C171.066 37.3797 171.122 37.0752 171.236 36.7908C171.35 36.5065 171.521 36.2482 171.738 36.0315C171.946 35.8142 172.197 35.642 172.475 35.5256C172.753 35.4092 173.051 35.3511 173.353 35.3548C173.943 35.3864 174.512 35.5835 174.996 35.9234V33.0805C175.017 32.8635 174.971 32.6454 174.865 32.455C174.796 32.3911 174.714 32.3432 174.625 32.3146C174.535 32.2861 174.441 32.2778 174.348 32.2901H174.075V32.0741L175.712 31.9205ZM174.984 39.1644V36.4124C174.805 36.1786 174.578 35.9849 174.319 35.8438C174.088 35.713 173.828 35.6426 173.563 35.6391C173.356 35.6345 173.15 35.6789 172.963 35.7688C172.777 35.8588 172.614 35.9916 172.488 36.1566C172.201 36.5432 172.056 37.0173 172.079 37.4984C172.054 38.1174 172.256 38.7242 172.647 39.2042C172.842 39.4256 173.085 39.6 173.356 39.7143C173.628 39.8285 173.922 39.8796 174.217 39.8638C174.419 39.8742 174.62 39.8161 174.785 39.6989C174.851 39.6271 174.901 39.5426 174.932 39.4507C174.963 39.3587 174.975 39.2612 174.967 39.1644" fill="#592C82"/>
<path d="M179.141 35.3492V36.3442C179.47 36.0636 179.818 35.8053 180.181 35.5709C180.366 35.4451 180.579 35.3688 180.801 35.3492C181.133 35.3562 181.451 35.4858 181.694 35.7131L181.33 36.5261C180.983 36.3148 180.595 36.1774 180.193 36.1224C179.794 36.1873 179.431 36.3882 179.164 36.691V39.2156C179.152 39.3086 179.161 39.403 179.19 39.4922C179.218 39.5815 179.265 39.6636 179.328 39.733C179.526 39.8419 179.752 39.8875 179.977 39.8638V40.0799H177.407V39.8638C177.64 39.8901 177.876 39.8381 178.078 39.716C178.21 39.4958 178.264 39.2373 178.231 38.9825V36.4636C178.247 36.3541 178.239 36.2426 178.21 36.136C178.181 36.0294 178.13 35.9299 178.06 35.8438C177.801 35.7174 177.511 35.6681 177.225 35.7017V35.4913L178.93 35.3492H179.141Z" fill="#592C82"/>
<path d="M187.783 37.7884C187.785 38.1101 187.719 38.4284 187.588 38.7224C187.458 39.0165 187.267 39.2795 187.027 39.4942C186.494 39.9422 185.819 40.1878 185.122 40.1878C184.426 40.1878 183.751 39.9422 183.218 39.4942C182.978 39.2795 182.787 39.0165 182.657 38.7224C182.526 38.4284 182.46 38.1101 182.461 37.7884C182.453 37.4592 182.516 37.132 182.647 36.8297C182.778 36.5273 182.972 36.2569 183.218 36.0371C183.753 35.5923 184.427 35.3487 185.122 35.3487C185.818 35.3487 186.492 35.5923 187.027 36.0371C187.273 36.2569 187.467 36.5273 187.598 36.8297C187.728 37.132 187.792 37.4592 187.783 37.7884ZM186.771 37.7884C186.797 37.2284 186.644 36.6747 186.334 36.2077C186.191 36.0225 186.007 35.8725 185.797 35.7693C185.587 35.666 185.356 35.6124 185.122 35.6124C184.888 35.6124 184.658 35.666 184.448 35.7693C184.238 35.8725 184.054 36.0225 183.911 36.2077C183.598 36.6798 183.445 37.2398 183.473 37.8055C183.443 38.366 183.597 38.9212 183.911 39.3862C184.055 39.5704 184.239 39.7195 184.448 39.8221C184.658 39.9246 184.889 39.9779 185.122 39.9779C185.356 39.9779 185.587 39.9246 185.796 39.8221C186.006 39.7195 186.19 39.5704 186.334 39.3862C186.644 38.9192 186.797 38.3655 186.771 37.8055" fill="#592C82"/>
<path d="M190.427 35.3491V36.3044C190.63 36.0159 190.896 35.7785 191.206 35.6107C191.496 35.4416 191.826 35.3514 192.162 35.3491C192.496 35.3456 192.824 35.4405 193.105 35.6221C193.373 35.8068 193.573 36.0745 193.674 36.384C193.867 36.0777 194.133 35.8233 194.447 35.643C194.761 35.4626 195.114 35.3618 195.477 35.3491C195.907 35.3339 196.328 35.4822 196.653 35.7642C196.812 35.9068 196.936 36.0828 197.018 36.2795C197.099 36.4763 197.136 36.6887 197.125 36.9014V39.1758C197.11 39.2677 197.118 39.3618 197.148 39.4501C197.177 39.5383 197.228 39.6179 197.296 39.6818C197.493 39.7876 197.716 39.833 197.938 39.8126V40.04H195.397V39.824C195.634 39.8545 195.875 39.7979 196.074 39.6648C196.202 39.4472 196.254 39.1931 196.221 38.9427V36.7877C196.228 36.6579 196.207 36.5282 196.159 36.4074C196.111 36.2867 196.037 36.1778 195.943 36.0883C195.724 35.9146 195.449 35.8275 195.169 35.8438C194.884 35.8644 194.609 35.9565 194.368 36.1115C194.128 36.2665 193.93 36.4795 193.793 36.7308V39.1928C193.783 39.2868 193.793 39.3819 193.823 39.4714C193.854 39.5609 193.904 39.6425 193.97 39.7103C194.163 39.8198 194.385 39.8675 194.607 39.8467V40.0742H192.042V39.824C192.412 39.824 192.639 39.7671 192.725 39.6591C192.839 39.4386 192.884 39.1892 192.855 38.9427V36.8389C192.862 36.7044 192.84 36.57 192.791 36.4446C192.742 36.3191 192.667 36.2055 192.571 36.1111C192.368 35.9269 192.1 35.829 191.826 35.8381C191.548 35.8404 191.277 35.9255 191.047 36.0826C190.791 36.2448 190.577 36.4649 190.422 36.7251V39.2213C190.41 39.3123 190.42 39.4048 190.452 39.491C190.484 39.5771 190.536 39.6543 190.604 39.7159C190.798 39.8277 191.023 39.8755 191.246 39.8524V40.0685H188.665V39.824C188.904 39.8538 189.146 39.7974 189.347 39.6648C189.455 39.4959 189.505 39.2962 189.489 39.0962V36.3783C189.504 36.1918 189.447 36.0067 189.33 35.8609C189.258 35.8016 189.176 35.757 189.087 35.7296C188.998 35.7023 188.905 35.6928 188.813 35.7017H188.511V35.4913L190.183 35.3491H190.427Z" fill="#592C82"/>
<path d="M203.556 38.8915V39.2554C203.311 39.5679 203.003 39.8255 202.652 40.0116C202.308 40.1746 201.93 40.2545 201.549 40.2447C200.858 40.2695 200.184 40.0272 199.667 39.5681C199.426 39.355 199.235 39.092 199.106 38.7974C198.978 38.5028 198.915 38.1837 198.922 37.8623C198.915 37.5366 198.975 37.2129 199.097 36.9109C199.219 36.6089 199.402 36.3348 199.633 36.1054C199.854 35.8767 200.119 35.6953 200.412 35.5721C200.705 35.4489 201.021 35.3866 201.339 35.389C201.885 35.39 202.411 35.5925 202.817 35.9575C203.012 36.1088 203.17 36.3028 203.278 36.5245C203.387 36.7463 203.443 36.99 203.442 37.2369V37.3335H199.872V37.4018C199.861 37.8555 199.944 38.3065 200.116 38.7266C200.263 39.0798 200.51 39.3823 200.827 39.5965C201.114 39.8019 201.458 39.9131 201.811 39.915C202.093 39.9237 202.373 39.859 202.624 39.7273C202.958 39.5134 203.262 39.2552 203.528 38.9597L203.556 38.8915ZM199.872 37.1175H202.516V36.981C202.528 36.8058 202.503 36.63 202.443 36.4651C202.382 36.3002 202.288 36.1498 202.166 36.0237C202.043 35.8977 201.896 35.7988 201.733 35.7335C201.57 35.6682 201.395 35.638 201.219 35.6448C201.044 35.6367 200.868 35.666 200.704 35.7307C200.541 35.7953 200.393 35.894 200.27 36.0201C200.014 36.3112 199.873 36.6848 199.872 37.072" fill="#592C82"/>
<path d="M211.869 36.475H209.788V38.6868C209.756 39.0071 209.826 39.3293 209.987 39.6079C210.075 39.7028 210.184 39.7755 210.306 39.82C210.427 39.8644 210.558 39.8795 210.686 39.8638V40.0799H207.843V39.8638C207.971 39.8762 208.1 39.8585 208.219 39.8121C208.339 39.7657 208.446 39.6918 208.531 39.5965C208.688 39.3163 208.755 38.995 208.725 38.6754V34.0357C208.756 33.7149 208.691 33.3921 208.537 33.1089C208.447 33.0146 208.337 32.9425 208.215 32.8981C208.092 32.8537 207.961 32.8382 207.832 32.853V32.637H213.234V33.9561H213.08C213.049 33.6703 212.932 33.4007 212.745 33.1828C212.456 33.0274 212.127 32.9639 211.801 33.0009H209.794V36.1111H211.852C212.074 36.1248 212.294 36.0537 212.466 35.9121C212.626 35.7196 212.718 35.4798 212.728 35.2297H212.944V37.3165H212.728C212.738 37.2023 212.724 37.0871 212.684 36.9794C212.645 36.8716 212.583 36.7739 212.501 36.6933C212.419 36.6128 212.321 36.5514 212.212 36.5136C212.104 36.4759 211.989 36.4627 211.875 36.475" fill="#592C82"/>
<path d="M219.613 37.7884C219.615 38.1101 219.549 38.4284 219.418 38.7224C219.288 39.0165 219.097 39.2795 218.857 39.4942C218.323 39.9422 217.649 40.1878 216.952 40.1878C216.256 40.1878 215.581 39.9422 215.047 39.4942C214.807 39.28 214.615 39.0172 214.483 38.7231C214.352 38.4291 214.285 38.1105 214.286 37.7884C214.278 37.4587 214.342 37.1313 214.474 36.8289C214.605 36.5265 214.801 36.2564 215.047 36.0371C215.583 35.5923 216.256 35.3487 216.952 35.3487C217.648 35.3487 218.322 35.5923 218.857 36.0371C219.102 36.2569 219.297 36.5273 219.428 36.8297C219.558 37.132 219.622 37.4592 219.613 37.7884ZM218.601 37.7884C218.628 37.2275 218.472 36.673 218.158 36.2077C218.023 36.0143 217.843 35.8577 217.632 35.7523C217.421 35.647 217.188 35.5964 216.952 35.605C216.719 35.5946 216.488 35.6409 216.277 35.74C216.066 35.839 215.882 35.9878 215.741 36.1736C215.426 36.6445 215.272 37.2054 215.303 37.7714C215.273 38.3319 215.426 38.8871 215.741 39.3521C215.885 39.5363 216.068 39.6854 216.278 39.788C216.488 39.8905 216.719 39.9438 216.952 39.9438C217.186 39.9438 217.416 39.8905 217.626 39.788C217.836 39.6854 218.02 39.5363 218.163 39.3521C218.474 38.8851 218.627 38.3314 218.601 37.7714" fill="#592C82"/>
<path d="M225.299 35.3492H225.521V39.2042C225.51 39.2981 225.52 39.3933 225.551 39.4828C225.581 39.5723 225.631 39.6539 225.697 39.7216C225.901 39.8319 226.133 39.8775 226.362 39.8524V40.0685L224.588 40.1595V39.3179H224.56C224.365 39.5902 224.11 39.8131 223.814 39.9691C223.517 40.1251 223.189 40.2097 222.854 40.2163C222.645 40.2237 222.435 40.1882 222.24 40.112C222.044 40.0357 221.866 39.9203 221.717 39.7728C221.572 39.6323 221.457 39.4634 221.379 39.2766C221.302 39.0897 221.264 38.889 221.268 38.6868V36.3101C221.276 36.2213 221.264 36.1319 221.231 36.0489C221.198 35.9659 221.147 35.8918 221.08 35.8325C220.871 35.7278 220.637 35.6826 220.404 35.7017V35.4913L221.967 35.3492H222.178V38.6299C222.171 38.7711 222.194 38.912 222.246 39.0434C222.298 39.1747 222.378 39.2935 222.479 39.3919C222.699 39.5833 222.984 39.6831 223.275 39.6705C223.534 39.6538 223.786 39.5767 224.01 39.4454C224.234 39.3141 224.424 39.1322 224.566 38.9142V36.4124C224.566 36.094 224.515 35.895 224.412 35.8154C224.165 35.702 223.893 35.6549 223.622 35.6789V35.4686L225.299 35.3492Z" fill="#592C82"/>
<path d="M228.552 35.3492V36.2646C228.765 35.9969 229.032 35.7771 229.336 35.6193C229.639 35.4616 229.973 35.3696 230.314 35.3492C230.529 35.3432 230.742 35.3798 230.942 35.4569C231.142 35.534 231.325 35.6501 231.48 35.7983C231.639 35.9537 231.763 36.1409 231.844 36.3477C231.926 36.5545 231.962 36.7761 231.952 36.9981V39.0734C231.937 39.1847 231.945 39.2977 231.974 39.406C232.003 39.5143 232.054 39.6158 232.122 39.7046C232.318 39.825 232.548 39.8771 232.776 39.8524V40.0685H230.183V39.8524C230.41 39.8722 230.638 39.831 230.843 39.733C230.91 39.6791 230.962 39.609 230.993 39.5294C231.025 39.4497 231.036 39.3632 231.025 39.2781V36.8787C231.031 36.7363 231.006 36.5944 230.953 36.4621C230.9 36.3298 230.82 36.2102 230.718 36.1111C230.504 35.9161 230.222 35.8139 229.933 35.8268C229.65 35.8611 229.378 35.9599 229.138 36.1156C228.899 36.2713 228.698 36.4798 228.552 36.7252V38.9995C228.523 39.2523 228.577 39.5077 228.705 39.7273C228.9 39.854 229.134 39.9084 229.365 39.8808V40.0969H226.8V39.8808C227.17 39.8808 227.403 39.824 227.488 39.716C227.593 39.4924 227.636 39.2452 227.613 38.9995V36.3783C227.63 36.2781 227.624 36.1755 227.598 36.0775C227.571 35.9795 227.524 35.8882 227.46 35.8097C227.258 35.7006 227.028 35.655 226.8 35.6789V35.4686L228.318 35.3264L228.552 35.3492Z" fill="#592C82"/>
<path d="M238.132 31.9205H238.36V39.1815C238.348 39.2772 238.358 39.3743 238.388 39.4658C238.419 39.5573 238.469 39.6408 238.536 39.7103C238.728 39.8236 238.951 39.8733 239.173 39.8524V40.0685H236.33C235.58 40.1099 234.841 39.8685 234.26 39.3919C234.016 39.1806 233.821 38.9183 233.69 38.6236C233.558 38.3289 233.493 38.0088 233.498 37.6861C233.492 37.3797 233.548 37.0752 233.662 36.7908C233.776 36.5065 233.947 36.2482 234.164 36.0315C234.372 35.8136 234.623 35.6411 234.9 35.5247C235.178 35.4083 235.477 35.3504 235.778 35.3548C236.367 35.3857 236.935 35.5828 237.416 35.9234V33.0805C237.437 32.8635 237.391 32.6454 237.285 32.455C237.217 32.3901 237.135 32.3414 237.046 32.3129C236.956 32.2843 236.861 32.2765 236.768 32.2901H236.495V32.0741L238.132 31.9205ZM237.427 39.1644V36.4124C237.248 36.1786 237.021 35.9849 236.762 35.8438C236.533 35.7132 236.275 35.6428 236.012 35.6391C235.804 35.6335 235.598 35.6776 235.411 35.7676C235.225 35.8576 235.062 35.9909 234.937 36.1566C234.65 36.5432 234.505 37.0173 234.527 37.4984C234.502 38.1174 234.705 38.7242 235.096 39.2042C235.29 39.4252 235.531 39.5993 235.802 39.7136C236.073 39.8278 236.366 39.8792 236.66 39.8638C236.862 39.8733 237.062 39.8153 237.228 39.6989C237.294 39.6271 237.344 39.5426 237.375 39.4507C237.406 39.3587 237.418 39.2612 237.41 39.1644" fill="#592C82"/>
<path d="M241.328 40.2163C240.969 40.22 240.621 40.0926 240.35 39.8581C240.222 39.7518 240.119 39.6188 240.049 39.4685C239.978 39.3182 239.941 39.1543 239.941 38.9882C239.937 38.8385 239.967 38.6901 240.028 38.5534C240.089 38.4167 240.18 38.2953 240.293 38.1978C240.723 37.9086 241.209 37.7147 241.72 37.6292C242.035 37.5589 242.342 37.456 242.636 37.3222V36.981C242.648 36.6843 242.544 36.3946 242.346 36.1736C242.241 36.0702 242.117 35.9896 241.98 35.9368C241.843 35.8839 241.696 35.86 241.55 35.8666C241.262 35.8606 240.981 35.9529 240.754 36.1281C240.516 36.3109 240.344 36.5665 240.265 36.8559L240.014 36.7934C240.101 36.3853 240.328 36.0208 240.657 35.7642C241.011 35.5035 241.441 35.3676 241.881 35.3779C242.32 35.3882 242.744 35.5441 243.085 35.8211C243.249 35.9811 243.378 36.1745 243.461 36.3884C243.544 36.6022 243.581 36.8315 243.568 37.0606V39.0336C243.558 39.2253 243.58 39.4173 243.631 39.6022C243.645 39.6477 243.674 39.687 243.713 39.7139C243.752 39.7407 243.799 39.7535 243.847 39.7501C243.881 39.7507 243.914 39.7426 243.944 39.7267C243.974 39.7108 243.999 39.6875 244.017 39.6591C244.086 39.5494 244.14 39.4308 244.177 39.3066H244.41C244.401 39.562 244.297 39.8051 244.12 39.9889C244.034 40.0751 243.93 40.1423 243.817 40.1864C243.703 40.2304 243.582 40.2503 243.46 40.2447C243.267 40.2417 243.08 40.1722 242.932 40.048C242.784 39.9237 242.684 39.7522 242.647 39.5624C242.464 39.7686 242.246 39.9417 242.005 40.0742C241.797 40.1743 241.569 40.223 241.339 40.2163H241.328ZM242.647 39.136V37.578C242.451 37.6587 242.249 37.7271 242.044 37.7827C241.701 37.8687 241.38 38.0299 241.106 38.2547C240.973 38.4297 240.901 38.6434 240.901 38.8631C240.901 39.0828 240.973 39.2964 241.106 39.4715C241.171 39.5479 241.251 39.6097 241.341 39.6528C241.431 39.6959 241.529 39.7194 241.629 39.7216C241.83 39.714 242.026 39.6553 242.198 39.5511C242.379 39.4591 242.527 39.3144 242.624 39.136" fill="#592C82"/>
<path d="M246.525 33.9163H246.764V35.4629H248.469V35.7983H246.764V38.7607C246.748 39.0167 246.827 39.2695 246.985 39.4715C247.071 39.5568 247.173 39.6231 247.286 39.6662C247.398 39.7093 247.519 39.7282 247.639 39.7216C247.813 39.7165 247.983 39.6743 248.139 39.5978C248.295 39.5213 248.433 39.4123 248.543 39.2781L248.697 39.4487C248.527 39.6797 248.306 39.8689 248.052 40.0019C247.798 40.1349 247.517 40.2083 247.23 40.2163C247.045 40.2242 246.86 40.1951 246.686 40.1307C246.512 40.0663 246.353 39.9678 246.218 39.841C246.09 39.7169 245.989 39.5672 245.922 39.4017C245.856 39.2361 245.825 39.0584 245.831 38.8801V35.7983H244.921V35.5766C245.633 35.2227 246.202 34.6371 246.536 33.9163" fill="#592C82"/>
<path d="M250.647 35.3492H250.886V39.2213C250.874 39.313 250.883 39.4063 250.913 39.494C250.942 39.5817 250.991 39.6615 251.057 39.7273C251.254 39.8311 251.477 39.8746 251.699 39.8524V40.0685H249.032V39.8524C249.289 39.88 249.549 39.8367 249.783 39.7273C249.849 39.6609 249.898 39.5801 249.928 39.4914C249.958 39.4026 249.966 39.3083 249.953 39.2156V36.4124C249.969 36.3122 249.963 36.2098 249.937 36.1119C249.91 36.014 249.864 35.9227 249.8 35.8438C249.563 35.724 249.296 35.6766 249.032 35.7074V35.497L250.647 35.3492ZM250.431 33.0009C250.509 32.9981 250.586 33.0113 250.659 33.0397C250.731 33.0681 250.797 33.111 250.852 33.1658C250.906 33.2154 250.95 33.2761 250.979 33.3437C251.008 33.4113 251.023 33.4844 251.022 33.5581C251.024 33.6336 251.01 33.7086 250.98 33.7782C250.951 33.8478 250.907 33.9104 250.852 33.9618C250.797 34.0176 250.732 34.0615 250.659 34.0909C250.587 34.1202 250.509 34.1344 250.431 34.1324C250.272 34.1334 250.119 34.0722 250.005 33.9618C249.947 33.9116 249.901 33.8496 249.869 33.7799C249.838 33.7102 249.822 33.6345 249.823 33.5581C249.821 33.4838 249.837 33.4101 249.867 33.3423C249.898 33.2745 249.943 33.2142 249.999 33.1658C250.117 33.0581 250.271 32.9992 250.431 33.0009Z" fill="#592C82"/>
<path d="M257.931 37.7884C257.934 38.1108 257.868 38.4301 257.736 38.7245C257.605 39.0189 257.411 39.2814 257.169 39.4942C256.636 39.9418 255.963 40.1871 255.267 40.1871C254.571 40.1871 253.898 39.9418 253.365 39.4942C253.126 39.2795 252.934 39.0165 252.804 38.7224C252.674 38.4284 252.607 38.1101 252.609 37.7884C252.6 37.4596 252.662 37.1327 252.792 36.8304C252.921 36.5281 253.115 36.2574 253.359 36.0371C253.896 35.5929 254.57 35.3498 255.267 35.3498C255.963 35.3498 256.638 35.5929 257.175 36.0371C257.42 36.2569 257.615 36.5273 257.745 36.8297C257.876 37.132 257.939 37.4592 257.931 37.7884ZM256.919 37.7884C256.945 37.2275 256.79 36.673 256.475 36.2077C256.34 36.015 256.159 35.859 255.949 35.7537C255.738 35.6485 255.505 35.5974 255.27 35.605C255.037 35.5941 254.805 35.6402 254.594 35.7393C254.383 35.8384 254.199 35.9875 254.059 36.1736C253.741 36.6438 253.585 37.2047 253.615 37.7714C253.586 38.3326 253.742 38.8878 254.059 39.3521C254.198 39.5397 254.381 39.6899 254.593 39.7891C254.804 39.8884 255.037 39.9336 255.27 39.9206C255.503 39.9316 255.735 39.8855 255.946 39.7864C256.157 39.6873 256.341 39.5382 256.481 39.3521C256.791 38.8851 256.944 38.3314 256.919 37.7714" fill="#592C82"/>
<path d="M260.438 35.3492V36.2646C260.651 35.9969 260.919 35.7771 261.222 35.6193C261.526 35.4616 261.859 35.3696 262.201 35.3492C262.635 35.3381 263.057 35.4996 263.372 35.7983C263.529 35.9548 263.652 36.1424 263.732 36.349C263.812 36.5556 263.849 36.7767 263.839 36.9981V39.0734C263.824 39.1847 263.832 39.2977 263.861 39.406C263.89 39.5143 263.941 39.6158 264.009 39.7046C264.205 39.8242 264.435 39.8762 264.663 39.8524V40.0685H262.07V39.8524C262.297 39.8717 262.524 39.8305 262.73 39.733C262.796 39.6789 262.847 39.6085 262.878 39.5288C262.909 39.4491 262.918 39.3627 262.906 39.2781V36.8787C262.914 36.736 262.891 36.5933 262.838 36.4606C262.785 36.3279 262.703 36.2086 262.599 36.1111C262.495 36.0142 262.372 35.9391 262.238 35.8903C262.104 35.8415 261.962 35.8199 261.82 35.8268C261.536 35.8611 261.264 35.9599 261.025 36.1156C260.785 36.2713 260.585 36.4798 260.438 36.7252V38.9995C260.405 39.2533 260.461 39.5107 260.598 39.7273C260.788 39.8546 261.018 39.9091 261.246 39.8808V40.0969H258.687V39.8808C259.057 39.8808 259.29 39.824 259.369 39.716C259.482 39.4951 259.528 39.246 259.5 38.9995V36.3783C259.516 36.2781 259.511 36.1755 259.485 36.0775C259.458 35.9795 259.411 35.8882 259.347 35.8097C259.145 35.7006 258.915 35.655 258.687 35.6789V35.4686L260.205 35.3264L260.438 35.3492Z" fill="#592C82"/>
<path d="M266.192 42.2974V42.0984C266.489 41.9792 266.748 41.7828 266.943 41.5298C267.101 41.2681 267.176 40.9649 267.159 40.6598C267.166 40.5921 267.15 40.5241 267.114 40.4665C267.052 40.431 266.98 40.417 266.909 40.4267C266.723 40.4312 266.543 40.3663 266.403 40.2447C266.337 40.1912 266.284 40.1236 266.247 40.0469C266.211 39.9701 266.192 39.8862 266.192 39.8012C266.193 39.7205 266.21 39.6407 266.243 39.5672C266.277 39.4937 266.325 39.4281 266.386 39.3748C266.514 39.2564 266.683 39.1931 266.858 39.1985C266.999 39.1952 267.138 39.2248 267.266 39.2851C267.393 39.3453 267.504 39.4344 267.591 39.5454C267.783 39.8024 267.882 40.1174 267.87 40.4381C267.872 40.8843 267.706 41.3149 267.404 41.6435C267.084 41.9963 266.659 42.2374 266.192 42.3315" fill="#592C82"/>
<path d="M274.124 32.2503V32.4721C273.995 32.4566 273.863 32.474 273.742 32.5227C273.621 32.5714 273.514 32.6498 273.431 32.7507C273.274 33.0495 273.207 33.387 273.237 33.723V38.5958C273.207 38.9318 273.274 39.2693 273.431 39.5681C273.516 39.6661 273.623 39.7418 273.744 39.7884C273.865 39.835 273.996 39.8511 274.124 39.8354V40.0628H271.31V39.824C271.439 39.8404 271.57 39.8252 271.692 39.7796C271.814 39.734 271.923 39.6595 272.009 39.5624C272.161 39.2601 272.226 38.9215 272.197 38.5845V33.723C272.226 33.3847 272.163 33.0447 272.015 32.7393C271.928 32.6408 271.818 32.5649 271.695 32.5183C271.573 32.4718 271.44 32.4559 271.31 32.4721V32.2503H274.124Z" fill="#592C82"/>
<path d="M276.359 35.099V36.0656C276.564 35.7874 276.826 35.557 277.128 35.3901C277.431 35.2232 277.766 35.1239 278.11 35.099C278.327 35.0934 278.543 35.133 278.743 35.2152C278.944 35.2974 279.125 35.4205 279.276 35.5766C279.433 35.7448 279.555 35.9425 279.635 36.1582C279.715 36.3739 279.751 36.6033 279.742 36.8332V39.0166C279.71 39.2495 279.769 39.4856 279.907 39.6761C280.099 39.8063 280.331 39.8628 280.561 39.8354V40.0628H277.979V39.824C278.206 39.8438 278.434 39.8026 278.639 39.7046C278.703 39.6441 278.753 39.5695 278.784 39.4866C278.814 39.4037 278.825 39.3148 278.815 39.227V36.7081C278.823 36.5596 278.8 36.411 278.747 36.272C278.694 36.133 278.613 36.0065 278.508 35.9007C278.406 35.8006 278.285 35.7223 278.153 35.6705C278.02 35.6187 277.878 35.5945 277.735 35.5993C277.28 35.5993 276.825 35.9177 276.359 36.5432V38.9085C276.327 39.1749 276.383 39.4445 276.518 39.6761C276.707 39.8084 276.938 39.8652 277.166 39.8354V40.0628H274.625V39.824C274.989 39.824 275.193 39.7671 275.301 39.6477C275.409 39.4132 275.453 39.154 275.426 38.8972V36.1679C275.44 36.0677 275.433 35.9658 275.407 35.8682C275.38 35.7706 275.335 35.6792 275.273 35.5993C275.078 35.4841 274.85 35.4361 274.625 35.4629V35.2752L276.126 35.1274L276.359 35.099Z" fill="#592C82"/>
<path d="M285.638 35.099V36.8048H285.405C285.329 36.4037 285.13 36.0362 284.837 35.7529C284.553 35.4986 284.183 35.3606 283.802 35.3662C283.576 35.3618 283.351 35.411 283.148 35.5098C282.944 35.6086 282.767 35.7543 282.631 35.9348C282.313 36.3497 282.152 36.863 282.176 37.3847C282.159 37.9969 282.348 38.597 282.71 39.0905C282.846 39.3056 283.031 39.4846 283.251 39.6123C283.471 39.7401 283.718 39.8127 283.972 39.824C284.314 39.8199 284.649 39.7278 284.945 39.5567C285.272 39.3737 285.555 39.1214 285.775 38.8176V39.1701C285.536 39.5103 285.215 39.7856 284.843 39.9712C284.471 40.1568 284.058 40.2469 283.643 40.2334C283.319 40.2482 282.995 40.1949 282.693 40.0769C282.391 39.959 282.117 39.779 281.889 39.5486C281.66 39.3182 281.483 39.0426 281.368 38.7394C281.253 38.4362 281.203 38.1122 281.22 37.7884C281.207 37.0866 281.468 36.4073 281.948 35.895C282.17 35.6473 282.442 35.4497 282.745 35.3154C283.049 35.181 283.379 35.1131 283.711 35.116C284.054 35.1165 284.396 35.1702 284.723 35.2752C284.831 35.3158 284.944 35.3425 285.058 35.3548C285.201 35.3548 285.309 35.2639 285.388 35.0876L285.638 35.099Z" fill="#592C82"/>
<path d="M287.85 39.1132C287.934 39.1125 288.017 39.1284 288.095 39.1602C288.172 39.1919 288.243 39.2388 288.302 39.2981C288.361 39.3574 288.408 39.4279 288.44 39.5055C288.472 39.5831 288.488 39.6662 288.487 39.7501C288.488 39.8355 288.472 39.9202 288.44 39.9992C288.407 40.0783 288.36 40.1502 288.299 40.2106C288.242 40.2725 288.173 40.3216 288.095 40.3549C288.018 40.3882 287.934 40.4049 287.85 40.4039C287.677 40.4025 287.512 40.3331 287.389 40.2108C287.267 40.0885 287.198 39.923 287.196 39.7501C287.195 39.6658 287.212 39.5824 287.245 39.505C287.279 39.4276 287.328 39.3581 287.39 39.3009C287.45 39.2406 287.522 39.1929 287.601 39.1607C287.68 39.1285 287.765 39.1123 287.85 39.1132Z" fill="#592C82"/>
<path d="M16.5805 20.0313C14.4141 17.9729 11.014 18.3255 8.56331 18.8258C8.51783 18.8258 7.42613 19.0988 7.5171 19.167L9.97911 21.629C11.1788 22.8287 12.9017 23.9034 14.7724 23.9034C17.2799 23.9034 18.2294 21.629 16.5805 20.0483" fill="#00837B"/>
<path d="M16.7738 23.9034C15.1021 24.199 14.1014 25.8707 13.5158 27.1671C13.5158 27.1671 13.2599 27.7755 13.3224 27.7357L15.2784 27.44C16.3127 27.3242 17.2622 26.8128 17.9281 26.0129C18.7753 24.8757 18.0475 23.6589 16.7909 23.8806" fill="#00837B"/>
<path d="M20.1171 19.9232C20.1786 18.8522 19.8195 17.7995 19.1164 16.9893L17.8484 15.4029C17.8143 15.3517 17.5926 15.9715 17.5869 15.9715C17.1206 17.3589 16.7113 19.3091 17.7688 20.7022C18.5706 21.7598 19.9579 21.3561 20.1171 19.9062" fill="#00837B"/>
<path d="M34.9745 18.1776C35.0029 18.1037 34.1785 18.2914 34.15 18.297C32.3078 18.7633 29.8856 19.6901 29.1066 21.8166C28.538 23.4314 29.9311 24.6596 31.6312 23.8238C32.8406 23.1403 33.736 22.0124 34.1273 20.6795C34.1273 20.6795 34.9688 18.1776 34.9745 18.1776Z" fill="#00837B"/>
<path d="M30.1699 24.7165C29.2374 25.0121 29.1748 26.0754 30.1699 26.5473C30.8958 26.8506 31.711 26.8607 32.4442 26.5758L33.86 26.0811C33.9055 26.0811 33.5359 25.7684 33.5189 25.757C32.6717 25.0917 31.4094 24.3241 30.1812 24.7165" fill="#00837B"/>
<path d="M28.6745 23.386C28.5664 22.0668 27.344 21.1741 26.4001 20.6226C26.4001 20.6226 25.9452 20.3838 25.9509 20.4293C25.9566 20.4748 26.0419 21.9588 26.0419 21.9645C26.06 22.7763 26.3899 23.5499 26.963 24.1251C27.7931 24.8643 28.7825 24.3867 28.6688 23.386" fill="#00837B"/>
<path d="M46.1702 11.889C45.8605 10.6808 45.3135 9.54619 44.5611 8.55136C43.0335 6.58553 40.8535 5.23039 38.4146 4.73041C37.2072 4.47923 35.9637 4.45417 34.7472 4.65649C34.4363 4.7111 34.1288 4.78324 33.8261 4.87256C33.5304 4.95787 33.2399 5.06039 32.9561 5.1796C32.3882 5.41229 31.8453 5.70185 31.3356 6.04386C29.9374 7.0016 28.7716 8.26063 27.9241 9.72835C27.0338 8.47411 25.8959 7.41561 24.5807 6.61814C23.6133 6.02556 22.5394 5.62767 21.4194 5.44684C20.3012 5.28307 19.1627 5.32352 18.059 5.56624C15.8865 6.04725 13.9348 7.23504 12.5095 8.94369C11.8849 9.70728 11.3929 10.5703 11.0539 11.4967C10.6976 12.3343 10.475 13.2226 10.3943 14.1293C10.336 14.6964 10.336 15.2679 10.3943 15.835C10.3943 16.0085 10.4632 16.1748 10.5859 16.2974C10.7085 16.42 10.8748 16.4889 11.0482 16.4889C11.2216 16.4889 11.388 16.42 11.5106 16.2974C11.6332 16.1748 11.7021 16.0085 11.7021 15.835C11.6425 15.1549 11.6597 14.4701 11.7533 13.7938C11.8633 13.0278 12.1016 12.2858 12.4583 11.599C12.5607 11.4114 12.6915 11.1726 12.8222 10.9622C13.0556 10.5964 13.316 10.2486 13.6012 9.92167C14.8517 8.52306 16.5284 7.57578 18.3717 7.22653C19.2683 7.06183 20.1873 7.06183 21.0839 7.22653C21.9746 7.39888 22.8227 7.74471 23.58 8.24432C25.1228 9.25569 26.3332 10.6994 27.0598 12.3951C27.1095 12.5243 27.1858 12.6418 27.2837 12.7397C27.3817 12.8377 27.4991 12.914 27.6284 12.9636C27.8849 13.0601 28.169 13.0515 28.4192 12.9397C28.6694 12.828 28.8654 12.622 28.9646 12.3666C29.6799 10.5762 30.9362 9.05361 32.5581 8.01119C32.9492 7.76823 33.3623 7.56263 33.792 7.39711C34.0251 7.31751 34.1786 7.26065 34.4515 7.19242C34.6665 7.1092 34.8868 7.04081 35.1111 6.98773C36.0276 6.86243 36.9596 6.9126 37.8574 7.13556C39.656 7.56171 41.2467 8.60871 42.3493 10.0922C43.3906 11.5804 43.7995 13.4205 43.4865 15.2096C43.1417 17.1015 42.4058 18.9006 41.3258 20.4918C40.762 21.3432 40.1547 22.165 39.5063 22.9538L39.2789 23.2438C38.7103 23.9773 38.1417 24.6767 37.5219 25.3647C34.5602 28.6225 31.4306 31.7237 28.1458 34.6555C27.7017 33.0498 27.5099 31.3848 27.5772 29.7201C27.7129 28.1566 28.1472 26.6337 28.8566 25.2339C28.8907 25.1657 28.9987 24.9155 28.9248 24.8643C28.6803 24.6824 28.1686 25.3931 28.0833 25.5068C27.2796 26.6765 26.7011 27.9858 26.3775 29.3676C26.3434 29.504 26.3093 29.6405 26.2808 29.777C25.4609 28.0781 24.3463 26.538 22.9887 25.2282C22.9887 25.2282 22.7783 25.0292 22.6646 24.9382C21.5694 24.0312 20.3165 23.3334 18.9687 22.8799C18.8323 22.8401 18.0021 22.5786 17.9111 22.8799C17.9111 22.9652 18.1215 23.1017 18.1898 23.1358C19.5772 23.8673 20.8307 24.8285 21.897 25.9788C22.3437 26.4498 22.7348 26.9706 23.0626 27.531C24.3523 29.6776 25.1739 32.0725 25.4734 34.5588C25.5417 35.0251 25.5872 35.4913 25.6383 35.9519C25.7634 37.0436 25.6383 38.2263 26.2467 38.8915C26.4135 39.0786 26.6175 39.2288 26.8456 39.3325C27.0737 39.4363 27.321 39.4914 27.5715 39.4942C28.0488 39.4956 28.5085 39.3146 28.8566 38.9882C30.4145 37.5951 31.9668 36.1452 33.6043 34.5247C35.2419 32.9042 37.4821 30.4024 37.4821 30.4024C38.4431 29.3733 39.2675 28.4408 40.0465 27.514C40.8255 26.5871 41.4623 25.7343 42.0764 24.9041C42.6905 24.074 43.3784 23.1358 43.9812 22.1351C45.2467 20.1454 46.0726 17.9082 46.4034 15.5735C46.5604 14.3423 46.4852 13.0925 46.1816 11.889" fill="#592C82"/>
</svg>
