<svg width="368" height="48" viewBox="0 0 368 48" fill="none" xmlns="http://www.w3.org/2000/svg">
<path d="M107.088 12.2109C110.93 12.2109 113.793 13.4162 116.354 15.7514C116.73 16.0527 116.73 16.5047 116.429 16.806L113.416 19.8945C113.115 20.1959 112.738 20.1959 112.437 19.8945C111.005 18.6139 109.122 17.936 107.239 17.936C102.87 17.936 99.706 21.5518 99.706 25.8456C99.706 30.1394 102.945 33.6045 107.239 33.6045C109.047 33.6045 111.005 32.9266 112.361 31.7966C112.663 31.5706 113.115 31.5706 113.341 31.8719L116.354 35.0358C116.655 35.3371 116.58 35.7891 116.279 36.0904C113.642 38.6516 110.403 39.7815 106.938 39.7815C99.254 39.7815 93.077 33.6798 93.077 25.9962C93.077 18.3126 99.4047 12.2109 107.088 12.2109Z" fill="#0B2734"/>
<path d="M132.7 12.2109C140.384 12.2109 146.486 18.3879 146.486 26.0716C146.486 33.7552 140.384 39.8569 132.7 39.8569C125.017 39.8569 118.915 33.7552 118.915 26.0716C118.915 18.3879 125.092 12.2109 132.7 12.2109ZM132.7 33.7552C136.919 33.7552 140.384 30.29 140.384 26.1469C140.384 21.9284 136.919 18.4633 132.7 18.4633C128.482 18.4633 125.092 21.9284 125.092 26.1469C125.092 30.29 128.557 33.7552 132.7 33.7552Z" fill="#0B2734"/>
<path d="M151.156 13.3409C151.156 12.9642 151.457 12.5876 151.834 12.5876H161.175C168.557 12.5876 174.659 18.6139 174.659 25.9962C174.659 33.4539 168.633 39.4802 161.175 39.4802H151.834C151.457 39.4802 151.156 39.1036 151.156 38.7269V13.3409ZM160.874 33.8305C165.243 33.8305 168.331 30.4407 168.331 26.0716C168.331 21.7024 165.167 18.3126 160.874 18.3126H157.182V33.8305H160.874Z" fill="#0B2734"/>
<path d="M179.405 13.3409C179.405 12.9642 179.706 12.5876 180.158 12.5876H196.053C196.504 12.5876 196.806 12.9642 196.806 13.3409V17.5593C196.806 17.936 196.504 18.3126 196.053 18.3126H185.431V23.0584H194.169C194.546 23.0584 194.923 23.435 194.923 23.8117V28.0301C194.923 28.4821 194.546 28.7834 194.169 28.7834H185.431V33.9812H196.053C196.504 33.9812 196.806 34.3578 196.806 34.7345V38.9529C196.806 39.3296 196.504 39.7062 196.053 39.7062H180.158C179.706 39.7062 179.405 39.3296 179.405 38.9529V13.3409Z" fill="#0B2734"/>
<path d="M222.267 12.2109C226.109 12.2109 228.972 13.4162 231.533 15.7514C231.909 16.0527 231.909 16.5047 231.608 16.806L228.595 19.8945C228.294 20.1959 227.917 20.1959 227.616 19.8945C226.184 18.6139 224.301 17.936 222.418 17.936C218.049 17.936 214.885 21.5518 214.885 25.8456C214.885 30.1394 218.124 33.6045 222.418 33.6045C224.226 33.6045 226.184 32.9266 227.54 31.7966C227.842 31.5706 228.294 31.5706 228.52 31.8719L231.533 35.0358C231.834 35.3371 231.759 35.7891 231.457 36.0904C228.821 38.6516 225.582 39.7815 222.117 39.7815C214.433 39.7815 208.256 33.6798 208.256 25.9962C208.256 18.3126 214.584 12.2109 222.267 12.2109Z" fill="#0B2734"/>
<path d="M236.128 13.3409C236.128 12.9642 236.429 12.5876 236.881 12.5876H241.476C241.853 12.5876 242.23 12.9642 242.23 13.3409V33.8305H251.344C251.796 33.8305 252.098 34.2072 252.098 34.5838V38.8023C252.098 39.1789 251.796 39.5556 251.344 39.5556H236.956C236.505 39.5556 236.203 39.1789 236.203 38.8023V13.3409H236.128Z" fill="#0B2734"/>
<path d="M255.789 13.3409C255.789 12.9642 256.165 12.5876 256.542 12.5876H261.137C261.514 12.5876 261.891 12.9642 261.891 13.3409V38.7269C261.891 39.1036 261.514 39.4802 261.137 39.4802H256.542C256.165 39.4802 255.789 39.1036 255.789 38.7269V13.3409Z" fill="#0B2734"/>
<path d="M271.081 12.8889C271.156 12.5122 271.457 12.2863 271.759 12.2863H272.361C272.587 12.2863 272.889 12.4369 273.039 12.6629L281.928 29.2354H282.004L290.892 12.6629C291.043 12.4369 291.344 12.2863 291.57 12.2863H292.173C292.474 12.2863 292.851 12.5876 292.851 12.8889L297.22 38.6516C297.295 39.1789 296.919 39.4802 296.467 39.4802H291.947C291.57 39.4802 291.269 39.1789 291.194 38.8776L289.461 27.0508H289.386L282.983 39.4049C282.832 39.6309 282.531 39.8569 282.305 39.8569H281.627C281.401 39.8569 281.1 39.6309 280.949 39.4049L274.471 26.9755H274.395L272.738 38.8023C272.663 39.1036 272.361 39.4049 271.985 39.4049H267.465C267.013 39.4049 266.636 39.0282 266.712 38.5763L271.081 12.8889Z" fill="#0B2734"/>
<path d="M298.651 38.5009L310.629 12.6629C310.779 12.4369 311.005 12.2109 311.307 12.2109H311.683C311.985 12.2109 312.211 12.4369 312.361 12.6629L324.339 38.5009C324.565 39.0282 324.263 39.4802 323.661 39.4802H319.367C318.689 39.4802 318.388 39.2542 318.011 38.5009L316.655 35.4878H306.26L304.904 38.5763C304.678 39.0282 304.301 39.4802 303.548 39.4802H299.329C298.727 39.4802 298.425 38.9529 298.651 38.5009ZM314.395 30.29L311.457 23.9623H311.382L308.52 30.29H314.395Z" fill="#0B2734"/>
<path d="M329.612 18.2373H324.113C323.661 18.2373 323.359 17.8606 323.359 17.484V13.2655C323.359 12.8889 323.661 12.5122 324.113 12.5122H341.137C341.589 12.5122 341.891 12.8889 341.891 13.2655V17.5593C341.891 17.936 341.589 18.3126 341.137 18.3126H335.638V38.8023C335.638 39.1789 335.262 39.5556 334.885 39.5556H330.29C329.913 39.5556 329.536 39.1789 329.536 38.8023V18.2373H329.612Z" fill="#0B2734"/>
<path d="M345.657 13.3409C345.657 12.9642 345.958 12.5876 346.41 12.5876H362.305C362.757 12.5876 363.058 12.9642 363.058 13.3409V17.5593C363.058 17.936 362.757 18.3126 362.305 18.3126H351.683V23.0584H360.422C360.798 23.0584 361.175 23.435 361.175 23.8117V28.0301C361.175 28.4821 360.798 28.7834 360.422 28.7834H351.683V33.9812H362.305C362.757 33.9812 363.058 34.3578 363.058 34.7345V38.9529C363.058 39.3296 362.757 39.7062 362.305 39.7062H346.41C345.958 39.7062 345.657 39.3296 345.657 38.9529V13.3409Z" fill="#0B2734"/>
<path d="M53.0017 4L39.2917 17.6347L47.4273 25.7702L53.0017 20.1959L68.6702 35.9397L76.7305 27.8041L53.0017 4Z" fill="#0B2734"/>
<path d="M28.7456 12.0603L4.94141 35.8644L13.077 44L16.2408 40.7608L26.7117 30.3653L28.7456 28.3314L44.4141 44L52.5497 35.8644L28.7456 12.0603Z" fill="#0B2734"/>
</svg>
