<svg width="232" height="48" viewBox="0 0 232 48" fill="none" xmlns="http://www.w3.org/2000/svg">
<path d="M202.617 27.5835H223.26C223.199 24.827 222.341 22.3767 220.503 20.1103C218.727 17.8438 216.215 16.7412 212.908 16.7412C209.784 16.7412 207.333 17.8438 205.496 20.049C203.719 22.3155 202.739 24.827 202.617 27.5835ZM199.37 28.9923C199.37 24.827 200.656 21.3354 203.229 18.4564C205.802 15.5773 209.048 14.1072 212.969 14.1072C217.134 14.1072 220.381 15.5161 222.77 18.3951C225.159 21.2741 226.384 24.827 226.384 29.1761V29.9724H202.617C202.739 33.219 203.842 35.853 205.863 37.9969C207.885 40.1409 210.519 41.2435 213.765 41.2435C217.563 41.2435 220.626 39.9571 223.076 37.3231L224.669 39.3446C221.728 42.4073 217.992 43.9387 213.581 43.9387C209.416 43.9387 206.047 42.5299 203.413 39.7733C200.779 37.0168 199.37 33.4028 199.37 28.9923ZM60.3808 28.9923C60.3808 31.075 60.9934 32.7289 62.1572 34.0153C63.3211 35.3017 64.8525 35.9142 66.6289 35.9142C67.609 35.9142 68.5891 35.6692 69.6304 35.1792C70.6718 34.6891 71.4681 34.0766 72.0806 33.3415V24.6432C71.4681 23.9081 70.6718 23.2956 69.6304 22.8055C68.5891 22.3155 67.609 22.1317 66.6289 22.1317C64.7912 22.1317 63.3211 22.7443 62.1572 24.0306C60.9321 25.2557 60.3808 26.9096 60.3808 28.9923ZM174.5 39.4058L176.338 37.1394C177.318 38.3645 178.604 39.3446 180.197 40.1409C181.79 40.9372 183.566 41.3047 185.526 41.3047C187.854 41.3047 189.692 40.7534 191.039 39.7121C192.387 38.6095 193.122 37.2619 193.122 35.5467C193.122 34.1378 192.509 33.0352 191.284 32.1776C190.059 31.3813 188.589 30.7075 186.813 30.34C185.097 29.9112 183.321 29.4824 181.545 28.9923C179.768 28.5023 178.298 27.706 177.012 26.5421C175.787 25.3783 175.174 23.8469 175.174 22.0092C175.174 19.7427 176.093 17.9051 177.931 16.3737C179.768 14.8423 182.218 14.1072 185.343 14.1072C189.63 14.1072 192.999 15.5161 195.511 18.2726L193.796 20.4165C191.958 17.9051 189.14 16.6799 185.343 16.6799C183.199 16.6799 181.483 17.17 180.197 18.1501C178.911 19.1302 178.298 20.3553 178.298 21.8867C178.298 23.173 178.911 24.2144 180.136 24.9495C181.361 25.6845 182.831 26.2358 184.607 26.6646C186.323 27.0934 188.099 27.5222 189.814 28.0123C191.529 28.5023 193.061 29.4211 194.286 30.6462C195.511 31.8714 196.124 33.5253 196.124 35.5467C196.124 37.9969 195.205 39.9571 193.367 41.5498C191.529 43.1424 188.895 43.8775 185.526 43.8775C180.81 43.9387 177.195 42.4073 174.5 39.4058ZM93.8877 25.807H105.588C105.465 24.6432 104.914 23.6018 103.934 22.7443C103.015 21.8254 101.606 21.3966 99.707 21.3966C97.9306 21.3966 96.5217 21.8254 95.6028 22.683C94.6227 23.6018 94.0715 24.6432 93.8877 25.807ZM151.101 34.5054C151.101 36.5268 151.836 38.242 153.244 39.5283C154.653 40.8147 156.552 41.4885 158.88 41.4885C162.617 41.4885 165.496 40.2021 167.456 37.5681V31.3813C165.496 28.7473 162.617 27.4609 158.88 27.4609C156.552 27.4609 154.715 28.1348 153.244 29.4824C151.836 30.7688 151.101 32.4839 151.101 34.5054ZM9.96732 18.2726C12.9076 15.5161 16.5829 14.1072 21.0546 14.1072C23.8724 14.1072 26.2613 14.5972 28.2215 15.6386C30.1817 16.6799 31.6519 17.9051 32.6319 19.3752L26.8739 24.827C25.6488 23.0505 23.8724 22.1317 21.4834 22.1317C19.5845 22.1317 17.9918 22.7443 16.7055 23.9694C15.4803 25.1945 14.8065 26.8484 14.8065 28.9923C14.8065 31.1363 15.4191 32.7902 16.7055 34.0153C17.9306 35.2404 19.5232 35.9142 21.4834 35.9142C23.7499 35.9142 25.5263 34.9954 26.8739 33.1577L32.7545 38.6707C31.7744 40.1409 30.3042 41.366 28.344 42.4073C26.3839 43.4487 23.9949 43.9387 21.1771 43.9387C16.7055 43.9387 13.0301 42.5299 10.0898 39.7733C7.0883 36.9556 5.61816 33.4028 5.61816 28.9923C5.61816 24.5819 7.0883 21.0291 9.96732 18.2726ZM147.915 34.4441C147.915 31.5038 148.895 29.1761 150.856 27.5222C152.816 25.8683 155.143 25.0107 157.839 25.0107C161.82 25.0107 165.067 26.3583 167.517 29.0536V23.2956C167.517 21.2741 166.782 19.6815 165.373 18.5176C163.964 17.3538 162.127 16.7412 159.921 16.7412C156.369 16.7412 153.428 18.1501 150.978 20.9066L149.263 18.7626C152.203 15.5773 155.879 13.9847 160.228 13.9847C163.29 13.9847 165.802 14.7198 167.701 16.3124C169.6 17.8438 170.58 20.1103 170.58 23.173V43.2037H167.517V39.8346C165.067 42.5299 161.82 43.8775 157.839 43.9387C155.205 43.9387 152.877 43.0812 150.917 41.366C148.895 39.6508 147.915 37.3844 147.915 34.4441ZM88.2522 18.3951C91.0699 15.5161 94.684 14.1072 99.0332 14.1072C103.321 14.1072 106.813 15.5773 109.508 18.4564C112.203 21.3354 113.551 25.1945 113.551 29.9724V32.0551H93.3364C93.7039 33.464 94.439 34.5666 95.6641 35.4242C96.8892 36.2818 98.4819 36.7106 100.442 36.7106C101.545 36.7106 102.77 36.4655 104.117 36.0368C105.465 35.608 106.568 34.9954 107.364 34.3216L111.346 40.2634C109.998 41.4885 108.222 42.4073 106.078 43.0199C103.934 43.6937 101.728 44 99.462 44C94.9903 44 91.3149 42.6524 88.3747 39.8959C85.4344 37.1394 83.9643 33.5253 83.9643 29.0536C84.0255 24.7657 85.4344 21.2741 88.2522 18.3951ZM121.943 36.098C122.8 37.5069 124.087 38.732 125.863 39.7121C127.578 40.6922 129.416 41.1822 131.315 41.1822C134.439 41.1822 136.828 40.0184 138.604 37.7519C140.381 35.4855 141.238 32.6064 141.238 29.0536C141.238 25.5008 140.381 22.5605 138.604 20.294C136.828 18.0276 134.439 16.8637 131.315 16.8637C129.416 16.8637 127.64 17.3538 125.863 18.3951C124.087 19.4364 122.8 20.6616 121.943 22.0704V36.098ZM54.6228 18.1501C56.9505 15.4548 59.952 14.1072 63.6273 14.1072C67.0577 14.1072 69.8754 15.4548 72.0194 18.2113V4H81.024V43.2037H72.0194V39.8959C69.6917 42.5299 66.8739 43.8775 63.6273 43.9387C60.0133 43.9387 57.0117 42.5911 54.6228 39.9571C53.3976 38.5482 52.4788 36.8943 51.8662 34.9341L57.9306 28.8698V28.3798L52.1113 22.4992C52.7238 20.8453 53.5202 19.3752 54.6228 18.1501ZM118.941 43.2037V4H122.004V19.4364C124.516 15.8836 127.823 14.1685 131.866 14.1072C135.664 14.1072 138.727 15.4548 141.055 18.2113C143.382 20.9678 144.546 24.5819 144.546 29.0536C144.546 33.5253 143.382 37.1394 141.055 39.8959C138.727 42.5911 135.664 43.9387 131.866 43.9387C129.845 43.9387 127.946 43.4487 126.231 42.4686C124.516 41.4885 123.107 40.2021 122.004 38.6707V43.2037H118.941Z" fill="#1B6DB2"/>
<path d="M41.1465 38.6095L38.635 41.2435L26.5064 28.8698V28.3798L38.6963 15.9449L41.2077 18.5789L43.903 15.9449L56.1541 28.3798V28.8698L43.903 41.2435L41.1465 38.6095ZM41.3303 22.8055L35.4497 28.6248L41.3915 34.3828L47.027 28.6248L41.3303 22.8055Z" fill="#1B6DB2"/>
</svg>
