<svg width="160" height="64" viewBox="0 0 160 64" fill="none" xmlns="http://www.w3.org/2000/svg">
<path fill-rule="evenodd" clip-rule="evenodd" d="M52.6083 32.2475C52.5618 18.2288 41.7687 7.80186 28.2972 7.6958C14.3803 7.82392 4.26637 18.8609 4.00592 31.2572C3.71076 45.2925 14.4896 56.0418 27.6861 56.299C42.1537 56.5809 52.6507 45.0979 52.6083 32.2475ZM23.9192 35.6759C23.6722 35.6757 23.4252 35.6755 23.1783 35.6755C22.9081 35.675 22.6382 35.6757 22.3681 35.6762C21.8819 35.677 21.3958 35.6778 20.9098 35.6726C19.8608 35.6613 19.5099 35.0726 20.0444 34.1222C20.558 33.2086 21.1015 32.3121 21.645 31.4156C21.8563 31.067 22.0676 30.7185 22.2772 30.3689C24.7574 26.2295 27.2396 22.0913 29.7236 17.9543C30.1754 17.3215 30.9776 17.043 31.7242 17.2599C32.0175 17.3668 31.9728 17.571 31.9313 17.7608C31.9233 17.7972 31.9154 17.8331 31.9101 17.8677C31.6887 19.3066 31.4571 20.7437 31.2153 22.179L31.1862 22.3519C30.8868 24.1278 30.5875 25.9036 30.2608 27.6745C30.1476 28.2891 30.4667 28.3511 30.9364 28.3485C32.4489 28.3377 33.9615 28.3377 35.4741 28.3485C36.7886 28.3582 37.1402 28.9644 36.4701 30.0857C33.2441 35.4764 30.0165 40.8661 26.7873 46.2549C26.5327 46.6801 25.3008 46.9869 24.8503 46.7459C24.6296 46.6278 24.6676 46.4555 24.7056 46.2825C24.7132 46.248 24.7208 46.2135 24.7264 46.1793C25.0747 44.0237 25.4243 41.8683 25.775 39.7131C25.8214 39.4281 25.867 39.1431 25.9126 38.858C26.05 37.999 26.1875 37.1399 26.3465 36.2847C26.4428 35.7667 26.184 35.6733 25.7708 35.6746C25.1537 35.6767 24.5364 35.6763 23.9192 35.6759Z" fill="#1D60E6"/>
<path d="M116.482 33.3704C116.046 34.5084 115.606 35.6551 115.161 36.8141C115.099 36.6843 115.043 36.5745 114.994 36.4764C114.905 36.2981 114.835 36.1596 114.779 36.0159C112.536 30.2787 110.305 24.5372 108.084 18.7912C107.972 18.3355 107.539 18.0338 107.073 18.0864C104.804 18.1104 102.534 18.1069 100.264 18.0893C99.6869 18.0851 99.4479 18.2749 99.4488 18.8856C99.4629 27.583 99.4627 36.2802 99.4482 44.9773C99.4472 45.5372 99.6655 45.6435 100.167 45.6364C101.95 45.6111 103.734 45.5952 105.516 45.6422C106.197 45.6604 106.378 45.4519 106.374 44.7814C106.348 40.8484 106.348 36.9151 106.349 32.9819C106.349 32.1884 106.349 31.3949 106.349 30.6015C106.349 30.5536 106.346 30.5047 106.343 30.4552C106.329 30.2395 106.315 30.012 106.548 29.8036C106.632 30.0412 106.715 30.2761 106.798 30.5093C106.995 31.0644 107.189 31.6095 107.378 32.1561C107.654 32.952 107.93 33.7478 108.206 34.5436C109.384 37.9391 110.561 41.3347 111.723 44.7354C111.938 45.3672 112.205 45.6928 112.964 45.6494C114.364 45.5689 115.774 45.5913 117.177 45.6422C117.809 45.665 118.122 45.4937 118.333 44.869C119.29 42.0234 120.274 39.187 121.259 36.3507C121.518 35.6043 121.777 34.8578 122.035 34.1113C122.375 33.1313 122.718 32.1527 123.061 31.1741C123.219 30.7253 123.376 30.2765 123.533 29.8276C123.657 30.0504 123.716 30.3034 123.703 30.558C123.703 31.5905 123.704 32.6229 123.704 33.6554C123.706 37.3497 123.707 41.0439 123.682 44.738C123.677 45.458 123.888 45.6627 124.6 45.6426C126.355 45.5929 128.112 45.6033 129.868 45.639C130.465 45.651 130.658 45.4849 130.657 44.8693C130.639 36.226 130.639 27.5828 130.656 18.9395C130.657 18.3154 130.485 18.0773 129.839 18.0851C127.569 18.1137 125.299 18.1078 123.03 18.0884C122.591 18.0262 122.175 18.3007 122.06 18.7283C121.258 20.8982 120.433 23.0603 119.606 25.2218C118.574 27.9218 117.538 30.6209 116.482 33.3704Z" fill="#1D60E6"/>
<path fill-rule="evenodd" clip-rule="evenodd" d="M84.0546 18.1018C83.7441 18.0991 83.4336 18.0965 83.1233 18.0965C82.81 18.0965 82.4967 18.0981 82.1833 18.0996C81.4162 18.1035 80.649 18.1074 79.8824 18.088C79.4449 18.0158 79.0261 18.2945 78.924 18.726C77.5964 22.3784 76.2521 26.0248 74.9078 29.6713C74.5501 30.6417 74.1923 31.6121 73.8349 32.5826C73.5205 33.4361 73.2064 34.2896 72.8923 35.1431C71.6929 38.4021 70.4936 41.6609 69.2804 44.9147C69.088 45.4298 69.1039 45.6435 69.7345 45.6358C71.7333 45.6077 73.7319 45.6087 75.7301 45.639C76.2176 45.6461 76.3781 45.4197 76.5079 45.025C76.6874 44.4783 76.8741 43.9338 77.0607 43.3894C77.3016 42.6868 77.5425 41.9844 77.768 41.2771C77.8414 40.8398 78.2478 40.539 78.6875 40.5967C81.5775 40.6207 84.4673 40.621 87.3571 40.5976C87.8231 40.5254 88.2608 40.8407 88.3398 41.3057C88.5274 41.916 88.7383 42.5191 88.9492 43.1222C89.1556 43.7124 89.3619 44.3026 89.5464 44.8995C89.7141 45.4415 89.9545 45.6578 90.5581 45.6432C91.9011 45.6102 93.2453 45.616 94.5894 45.6217C95.1361 45.624 95.6828 45.6263 96.2293 45.626C97.155 45.6257 97.1657 45.6205 96.8469 44.7577C96.1904 42.9801 95.5315 41.2035 94.8727 39.4269C94.0451 37.1954 93.2176 34.964 92.3949 32.7308C90.6862 28.0896 88.9839 23.446 87.288 18.8C87.1901 18.3362 86.7528 18.025 86.2825 18.0845C85.541 18.1144 84.7978 18.1081 84.0546 18.1018ZM83.8316 35.3331C83.5764 35.3347 83.3213 35.3363 83.0662 35.3363C82.8109 35.3362 82.5556 35.335 82.3002 35.3338C81.6648 35.3307 81.0294 35.3276 80.3942 35.3422C79.9421 35.3526 79.812 35.217 79.9667 34.7713C80.9164 32.0293 81.8603 29.2854 82.7983 26.5396C82.8058 26.5178 82.813 26.4952 82.8202 26.4724C82.8652 26.3299 82.9123 26.1812 83.0611 26.1712C83.2654 26.1575 83.2833 26.3032 83.3008 26.4451C83.307 26.4955 83.3132 26.5455 83.3277 26.5876C83.6342 27.4807 83.9398 28.3741 84.2453 29.2675C84.8696 31.0928 85.4939 32.918 86.1265 34.7405C86.2994 35.2377 86.1375 35.3577 85.6578 35.3435C85.0494 35.3254 84.4404 35.3293 83.8316 35.3331Z" fill="#1D60E6"/>
<path fill-rule="evenodd" clip-rule="evenodd" d="M134.99 28.6061C134.989 29.6786 134.988 30.7511 134.988 31.8236C134.988 32.8606 134.989 33.8976 134.989 34.9346C134.991 38.2441 134.993 41.5535 134.976 44.8628C134.973 45.4496 135.107 45.6578 135.735 45.6422C137.518 45.5971 139.3 45.5968 141.081 45.6416C141.733 45.6581 141.908 45.4502 141.901 44.821C141.888 43.6251 141.889 42.4291 141.891 41.233C141.893 39.7563 141.895 38.2796 141.869 36.8034C141.858 36.1242 142.083 36.0055 142.688 36.0217C144.064 36.0583 145.446 36.0911 146.818 36.0055C148.997 35.8692 151.093 35.3769 152.842 33.9718C155.454 31.8726 156.242 29.0981 155.939 25.8345C155.485 20.9537 151.887 18.2911 147.456 18.0478C145.069 17.9167 142.679 17.9321 140.289 17.9475C138.818 17.957 137.346 17.9665 135.875 17.9418C135.15 17.9294 134.968 18.1643 134.973 18.8652C134.996 22.1121 134.993 25.3591 134.99 28.6061ZM141.892 27.8517C141.89 27.5698 141.888 27.2879 141.888 27.0061C141.888 26.6914 141.888 26.3767 141.889 26.062C141.889 25.4049 141.889 24.7479 141.886 24.0908C141.886 24.0702 141.886 24.0496 141.885 24.0291C141.882 23.7725 141.878 23.529 142.267 23.5485C142.774 23.5739 143.283 23.562 143.792 23.5501C144.764 23.5274 145.736 23.5047 146.699 23.7421C147.925 24.0077 148.834 25.0427 148.939 26.2928C149.196 29.0504 148.082 30.3329 145.234 30.4996C144.73 30.5291 144.224 30.5239 143.718 30.5188C143.305 30.5146 142.893 30.5104 142.481 30.5249C142.016 30.5415 141.867 30.378 141.88 29.921C141.899 29.2315 141.895 28.5416 141.892 27.8517Z" fill="#1D60E6"/>
</svg>
