<svg width="160" height="72" viewBox="0 0 160 72" fill="none" xmlns="http://www.w3.org/2000/svg">
<path d="M56.0988 17.0686L35.8969 5.07451C33.4958 3.64248 30.5028 3.64248 28.1017 5.07451L7.89578 17.0686C5.46527 18.5349 3.98548 21.1718 4.00011 24.0103V47.9945C3.98691 50.8315 5.46652 53.4665 7.89578 54.9321L28.0977 66.9221C30.499 68.3533 33.4915 68.3533 35.8929 66.9221L56.0948 54.9321C58.5268 53.4668 60.0083 50.8297 59.9945 47.9904V24.0103C60.0091 21.1718 58.5293 18.5349 56.0988 17.0686Z" fill="white"/>
<path d="M56.0988 17.0686L35.8969 5.07451C33.4958 3.64248 30.5028 3.64248 28.1017 5.07451L7.89578 17.0686C5.46527 18.5349 3.98548 21.1718 4.00011 24.0103V47.9945C3.98691 50.8315 5.46652 53.4665 7.89578 54.9321L28.0977 66.9221C30.499 68.3533 33.4915 68.3533 35.8929 66.9221L56.0948 54.9321C58.5268 53.4668 60.0083 50.8297 59.9945 47.9904V24.0103C60.0091 21.1718 58.5293 18.5349 56.0988 17.0686ZM28.8056 65.6964L8.6037 53.7064C6.60732 52.4966 5.39136 50.3288 5.39982 47.9945V24.0103C5.39055 21.6758 6.60672 19.5075 8.6037 18.2984L28.8056 6.30427C30.7718 5.13129 33.2229 5.13129 35.189 6.30427L55.3747 18.2984C57.0388 19.3063 58.1739 20.9964 58.4774 22.9181C57.8059 21.4901 56.297 21.0977 54.5374 22.109L35.4398 33.9373C33.0572 35.3248 31.3015 36.8903 31.2975 39.7624V63.3138C31.2975 65.033 31.9892 66.1455 33.0572 66.4731C32.7074 66.5372 32.3528 66.571 31.9973 66.5743C30.8739 66.5734 29.7714 66.2702 28.8056 65.6964Z" fill="#2F3A3E"/>
<path d="M50.8037 50.3122L45.7715 53.3218C45.6367 53.376 45.5464 53.5044 45.5409 53.6495V54.9723C45.5409 55.1341 45.6501 55.1988 45.7836 55.122L50.8927 52.0152C51.0179 51.9214 51.0777 51.7639 51.0465 51.6107V50.4497C51.0424 50.3001 50.9251 50.2353 50.8037 50.3122Z" fill="#3AB14A"/>
<path d="M40.092 39.2322C40.2538 39.1513 40.3873 39.2322 40.3913 39.4628L40.4075 41.2184C41.0126 40.9435 41.6878 40.8616 42.3411 40.9838C42.4665 41.0161 42.5191 41.186 42.4706 41.3883L42.0863 42.9295C42.0571 43.0459 41.997 43.1521 41.9123 43.237C41.8826 43.2663 41.8484 43.2909 41.8112 43.3098C41.7655 43.3345 41.7127 43.3431 41.6615 43.3341C41.0244 43.193 40.3576 43.3 39.7967 43.6334C38.9765 44.0029 38.4404 44.8094 38.4172 45.7086C38.4172 46.5177 38.8218 46.7402 40.2335 46.7644C42.0984 46.7968 42.9074 47.6099 42.9277 49.4909C42.8833 51.4544 41.978 53.299 40.452 54.5353L40.4843 56.2586C40.4815 56.4726 40.3703 56.6706 40.189 56.7845L39.1696 57.371C39.0078 57.4519 38.8743 57.371 38.8703 57.1445V55.4495C37.9965 55.8136 37.1106 55.8986 36.5443 55.672C36.4391 55.6316 36.3906 55.4738 36.4351 55.2918L36.8032 53.7344C36.8312 53.6111 36.8944 53.4987 36.9852 53.4107C37.014 53.3832 37.0467 53.36 37.0823 53.342C37.135 53.3183 37.1954 53.3183 37.2482 53.342C37.9693 53.5375 38.7385 53.4401 39.3881 53.0709C40.3255 52.6188 40.9347 51.684 40.9698 50.6438C40.9698 49.77 40.4884 49.406 39.3517 49.3979C37.8833 49.3979 36.52 49.1147 36.4917 46.9707C36.5255 45.0977 37.395 43.3379 38.8622 42.1731L38.7894 40.4094C38.7887 40.1922 38.9004 39.9902 39.0847 39.8754L40.092 39.2322Z" fill="white"/>
<path d="M120.05 22.2259C122.423 21.5093 124.959 21.5446 127.311 22.327C128.483 22.7165 129.578 23.3065 130.547 24.0705C131.491 24.8221 132.271 25.7598 132.837 26.8253C133.425 27.9495 133.739 29.1972 133.751 30.466C133.756 30.7297 133.65 30.9833 133.46 31.1659C133.264 31.3535 133.003 31.458 132.732 31.4571H129.184C128.681 31.4674 128.247 31.1047 128.169 30.6076C128.093 29.9991 127.926 29.4057 127.671 28.8479C127.45 28.3693 127.138 27.938 126.753 27.5777C126.361 27.2226 125.903 26.9477 125.406 26.7687C124.278 26.3953 123.065 26.3699 121.923 26.6959C121.437 26.8277 120.978 27.044 120.568 27.335C120.199 27.5976 119.894 27.9389 119.674 28.3342C119.45 28.7502 119.34 29.2174 119.354 29.6893C119.343 30.1636 119.485 30.6289 119.759 31.0162C120.081 31.4389 120.482 31.7948 120.94 32.0639C121.484 32.3936 122.062 32.6648 122.663 32.8729C123.331 33.0995 123.97 33.3058 124.568 33.4797C125.272 33.6901 125.98 33.9288 126.676 34.1876C127.394 34.4557 128.096 34.7678 128.776 35.1221C129.447 35.4728 130.088 35.8788 130.693 36.3357C131.299 36.7944 131.843 37.3302 132.311 37.9295C132.789 38.5284 133.17 39.1987 133.44 39.9157C133.715 40.695 133.852 41.5164 133.844 42.3428C133.869 43.5882 133.538 44.8147 132.89 45.8784C132.276 46.8573 131.461 47.6944 130.499 48.3338C129.506 48.9873 128.413 49.4725 127.263 49.7699C126.112 50.0797 124.926 50.2374 123.735 50.2391C122.426 50.2395 121.124 50.0445 119.872 49.6607C118.646 49.2918 117.491 48.7203 116.454 47.9698C115.443 47.235 114.592 46.3018 113.954 45.2271C113.289 44.089 112.928 42.799 112.906 41.4812C112.899 41.2168 113.003 40.9615 113.193 40.7773C113.389 40.5872 113.652 40.4812 113.925 40.482H117.457C117.959 40.4715 118.392 40.8321 118.472 41.3275C118.551 41.961 118.747 42.5743 119.051 43.1357C119.328 43.6339 119.7 44.0724 120.147 44.4261C120.611 44.7906 121.139 45.065 121.704 45.2352C122.932 45.5864 124.23 45.6115 125.471 45.308C125.975 45.1904 126.455 44.9865 126.89 44.7053C127.277 44.4522 127.604 44.1182 127.849 43.7263C128.088 43.3218 128.206 42.857 128.189 42.3873C128.211 41.8676 128.069 41.3542 127.784 40.9189C127.469 40.4675 127.063 40.0871 126.591 39.8024C126.037 39.4604 125.447 39.181 124.831 38.9691C124.13 38.7237 123.456 38.5026 122.809 38.3057C121.81 38.0144 120.806 37.6342 119.787 37.2054C118.749 36.7749 117.767 36.2208 116.862 35.5549C115.966 34.8959 115.201 34.0739 114.609 33.1318C113.985 32.1084 113.667 30.9281 113.691 29.7298C113.675 28.5162 113.988 27.3209 114.597 26.2711C115.18 25.2824 115.963 24.4256 116.895 23.755C117.852 23.0705 118.919 22.5534 120.05 22.2259ZM101.943 22.0963C102.38 22.0887 102.772 22.3607 102.918 22.772L111.523 48.6251C111.621 48.9218 111.565 49.2482 111.373 49.4948C111.179 49.7461 110.881 49.895 110.564 49.8995H107.129C106.688 49.9071 106.293 49.6292 106.15 49.2117L104.225 43.2045H96.6604L94.6984 49.2157C94.5541 49.6294 94.1616 49.9047 93.7235 49.8995H90.2689C89.9516 49.895 89.6537 49.7461 89.4598 49.4948C89.2683 49.2478 89.2136 48.9211 89.3142 48.6251L98.0924 22.7679C98.2403 22.3604 98.6298 22.0911 99.0632 22.0963H101.943ZM140.602 22.0966C141.128 22.1119 141.556 22.5353 141.571 23.0673V33.2127H150.676V23.0673C150.692 22.517 151.15 22.0828 151.7 22.0964L155.023 22.0966C155.549 22.1119 155.977 22.5353 155.992 23.0673V48.9244C155.976 49.4748 155.519 49.9089 154.968 49.8953L151.645 49.8952C151.119 49.8798 150.691 49.4564 150.676 48.9244V37.9457H141.571V48.9244C141.555 49.4748 141.097 49.9089 140.547 49.8953L137.256 49.8952C136.731 49.8798 136.302 49.4564 136.288 48.9244V23.0673C136.303 22.517 136.761 22.0828 137.311 22.0964L140.602 22.0966ZM77.0976 22.0924C78.2936 22.1035 79.4842 22.2542 80.6453 22.5414C81.7779 22.8148 82.8549 23.2814 83.8289 23.9208C84.7791 24.5505 85.5699 25.3925 86.1387 26.3803C86.7409 27.4763 87.0358 28.7147 86.9922 29.9644C86.9869 31.415 86.4649 32.8162 85.5198 33.9166C85.093 34.4129 84.6003 34.8484 84.0554 35.2111L84.3143 35.3648C84.9969 35.785 85.6063 36.3138 86.1185 36.9303C86.6312 37.5448 87.0348 38.2426 87.3118 38.9934C87.5904 39.7858 87.7273 40.6211 87.7163 41.461C87.7507 42.7264 87.4611 43.9797 86.8749 45.1017C86.3188 46.1375 85.5412 47.038 84.5975 47.7392C83.6293 48.4501 82.5454 48.988 81.3936 49.329C80.2023 49.6904 78.9654 49.8797 77.7206 49.8913L68.9524 49.8911C68.4267 49.8758 67.9986 49.4524 67.9837 48.9204V23.0632C67.9991 22.5129 68.4568 22.0788 69.0071 22.0924H77.0976ZM77.9633 37.8041H73.5135V45.1664H77.8096C78.3915 45.1578 78.9687 45.0596 79.5207 44.8752C80.0303 44.7075 80.5077 44.4544 80.9325 44.1268C81.3168 43.8266 81.6303 43.4454 81.8507 43.0103C82.0818 42.5415 82.197 42.024 82.1865 41.5014C82.2088 40.9665 82.1078 40.4336 81.8912 39.944C81.6921 39.5149 81.4006 39.135 81.0377 38.8316C80.6451 38.5076 80.195 38.2605 79.7108 38.1034C79.146 37.9191 78.5573 37.8182 77.9633 37.8041ZM100.503 31.4531L98.2542 38.3866H102.704L100.503 31.4531ZM77.1866 26.8455H73.5014V33.1278H77.2958C77.844 33.1177 78.3884 33.0333 78.9139 32.877C79.3962 32.7387 79.8516 32.5199 80.261 32.2298C80.6283 31.9685 80.9358 31.632 81.1631 31.2427C81.3824 30.8432 81.4886 30.3915 81.4705 29.9361C81.4872 29.4567 81.3785 28.9812 81.155 28.5567C80.9448 28.1865 80.6494 27.8717 80.2933 27.6384C79.8747 27.3685 79.4119 27.174 78.926 27.064C78.3558 26.9284 77.7726 26.8551 77.1866 26.8455Z" fill="#2F3A3E"/>
<path d="M90.8921 54.3297C91.0173 54.4943 91.1106 54.6809 91.1671 54.8798C91.229 55.0914 91.2603 55.3107 91.2602 55.5311L91.2561 56.0206C91.2564 56.241 91.2251 56.4603 91.1631 56.6718C91.1072 56.8703 91.0154 57.0568 90.8921 57.222C90.7714 57.381 90.6166 57.511 90.439 57.6023C90.2405 57.7004 90.0212 57.7489 89.7999 57.7438C89.3774 57.7566 88.9754 57.5617 88.7238 57.222C88.6021 57.0564 88.5117 56.8699 88.4568 56.6718C88.3964 56.4601 88.3664 56.2408 88.3678 56.0206V55.5311C88.3677 55.3832 88.3812 55.2356 88.4083 55.0902C88.4332 54.9516 88.4725 54.816 88.5256 54.6856C88.5776 54.5609 88.6441 54.4428 88.7238 54.3337C88.8002 54.2267 88.8931 54.1325 88.9989 54.0546C89.1086 53.9753 89.2301 53.9139 89.3589 53.8725C89.5016 53.828 89.6504 53.8061 89.7999 53.8078C90.2268 53.7952 90.6336 53.9896 90.8921 54.3297ZM138.5 53.8118C138.685 53.8107 138.868 53.8394 139.043 53.8968C139.202 53.9496 139.352 54.0304 139.483 54.1355C139.608 54.236 139.71 54.3614 139.783 54.5036C139.857 54.6503 139.896 54.8124 139.896 54.9769H139.233C139.225 54.8864 139.203 54.7977 139.168 54.714C139.134 54.6357 139.085 54.5654 139.022 54.5076C138.957 54.4478 138.88 54.4024 138.796 54.3742C138.697 54.3405 138.593 54.3241 138.488 54.3256C138.395 54.3249 138.303 54.3371 138.213 54.362C138.134 54.3844 138.06 54.4215 137.995 54.4712C137.934 54.5165 137.885 54.5745 137.849 54.6411C137.813 54.7112 137.795 54.789 137.797 54.8677C137.797 54.9502 137.822 55.0306 137.869 55.0982C137.92 55.1676 137.983 55.2267 138.055 55.2722C138.139 55.3254 138.229 55.3688 138.322 55.4016C138.422 55.4367 138.527 55.4691 138.638 55.4987C138.803 55.5447 138.963 55.6029 139.119 55.6727C139.265 55.7374 139.401 55.8218 139.524 55.9235C139.636 56.0167 139.73 56.1307 139.799 56.2592C139.869 56.3955 139.904 56.5471 139.9 56.7002C139.903 56.8573 139.864 57.0123 139.787 57.1492C139.711 57.2797 139.608 57.3916 139.483 57.4768C139.349 57.5676 139.2 57.6346 139.043 57.6751C138.871 57.721 138.694 57.7441 138.517 57.7439C138.393 57.7445 138.27 57.7337 138.149 57.7115C138.029 57.69 137.913 57.6561 137.801 57.6103C137.691 57.5659 137.586 57.5088 137.489 57.4404C137.395 57.3743 137.311 57.2953 137.238 57.2058C137.089 57.0187 137.007 56.7861 137.008 56.5464H137.675C137.682 56.6519 137.71 56.755 137.756 56.8498C137.799 56.9338 137.859 57.007 137.934 57.0642C138.011 57.1233 138.099 57.1672 138.193 57.1937C138.3 57.224 138.41 57.239 138.521 57.2382C138.615 57.2392 138.709 57.2283 138.8 57.2058C138.881 57.1856 138.957 57.1514 139.026 57.1047C139.09 57.0618 139.142 57.0051 139.18 56.9388C139.217 56.8665 139.234 56.7854 139.229 56.7042C139.23 56.6207 139.209 56.5383 139.168 56.4655C139.125 56.3935 139.067 56.3314 138.998 56.2835C138.918 56.227 138.831 56.1808 138.739 56.146C138.639 56.1055 138.53 56.0691 138.411 56.0367C138.252 55.993 138.095 55.9389 137.942 55.8749C137.798 55.813 137.662 55.7328 137.538 55.6363C137.419 55.5466 137.319 55.4355 137.242 55.3086C137.165 55.1762 137.126 55.025 137.129 54.8717C137.127 54.716 137.166 54.5624 137.242 54.4267C137.317 54.2961 137.419 54.183 137.542 54.095C137.674 54.0005 137.822 53.9293 137.979 53.8847C138.148 53.8355 138.324 53.811 138.5 53.8118ZM118.181 53.8038C118.37 53.801 118.559 53.8283 118.739 53.8847C118.888 53.9359 119.026 54.0156 119.144 54.1193C119.263 54.2236 119.358 54.3518 119.423 54.4955C119.494 54.6515 119.538 54.8184 119.553 54.989H118.901C118.887 54.8932 118.861 54.7995 118.824 54.7099C118.792 54.6311 118.744 54.5596 118.683 54.4996C118.622 54.4402 118.549 54.3947 118.468 54.3661C118.372 54.3337 118.271 54.3186 118.169 54.3216C118.042 54.3177 117.917 54.3514 117.809 54.4186C117.706 54.4873 117.62 54.5786 117.558 54.6856C117.487 54.8113 117.438 54.9481 117.413 55.0902C117.381 55.2419 117.365 55.3964 117.364 55.5513V56.0287C117.366 56.1824 117.383 56.3356 117.417 56.4858C117.443 56.6287 117.495 56.7657 117.57 56.8903C117.637 56.9991 117.729 57.0906 117.837 57.1573C117.96 57.228 118.1 57.263 118.242 57.2584H118.436C118.5 57.2514 118.564 57.2392 118.626 57.222C118.684 57.2049 118.739 57.1819 118.792 57.1532C118.839 57.1278 118.88 57.0935 118.913 57.0521V56.2875H118.185V55.7981H119.565L119.585 57.2099C119.514 57.2903 119.434 57.3623 119.346 57.4243C119.249 57.4923 119.145 57.5493 119.035 57.5942C118.915 57.6428 118.79 57.6794 118.663 57.7034C118.521 57.7308 118.378 57.7443 118.234 57.7438C118.012 57.7486 117.792 57.703 117.591 57.6103C117.408 57.5242 117.246 57.3984 117.117 57.2422C116.985 57.0795 116.884 56.8927 116.822 56.6921C116.753 56.4722 116.717 56.243 116.717 56.0125V55.5392C116.715 55.3088 116.75 55.0796 116.818 54.8596C116.879 54.6599 116.976 54.4734 117.105 54.3094C117.228 54.1544 117.385 54.0287 117.562 53.9413C117.755 53.8475 117.967 53.8003 118.181 53.8038ZM93.1857 53.8442V56.4089C93.1869 56.5185 93.2032 56.6274 93.2343 56.7325C93.2597 56.8246 93.3022 56.9111 93.3597 56.9874C93.4146 57.058 93.4852 57.1148 93.566 57.1532C93.6559 57.1949 93.7541 57.2157 93.8532 57.2139C93.9549 57.2156 94.0557 57.1949 94.1485 57.1532C94.2319 57.1154 94.3053 57.0586 94.3629 56.9874C94.4223 56.9117 94.4662 56.8251 94.4923 56.7325C94.523 56.6273 94.5394 56.5185 94.5409 56.4089V53.8442L95.1962 53.8604V56.4251C95.1964 56.6092 95.1621 56.7917 95.0951 56.9631C95.033 57.1149 94.9408 57.2525 94.824 57.3676C94.709 57.4834 94.5712 57.5743 94.4195 57.6346C94.242 57.6993 94.0542 57.7309 93.8653 57.7277C93.6804 57.7307 93.4966 57.6991 93.3232 57.6346C93.0064 57.5161 92.7559 57.2671 92.6356 56.951C92.5682 56.7782 92.5339 56.5943 92.5344 56.4089V53.8442H93.1857ZM147.865 53.8685V54.3903H145.944V55.4704H147.606V55.972H145.948V57.1856H147.885V57.6993H145.28V53.8685H147.865ZM78.995 53.8685V54.3903H77.0735V55.4704H78.7321V55.972H77.0735V57.1856H79.0112V57.6993H76.4101V53.8685H78.995ZM107.352 53.8685V54.3903H105.431V55.4704H107.089V55.972H105.431V57.1856H107.368V57.6993H104.767V53.8685H107.352ZM85.7587 53.8564C85.9412 53.8575 86.123 53.8792 86.3007 53.9211C86.4576 53.9565 86.6069 54.0195 86.7417 54.1072C86.8666 54.1888 86.9694 54.2999 87.041 54.4308C87.1161 54.574 87.1523 54.7344 87.1462 54.896C87.1491 55.0722 87.0905 55.2439 86.9803 55.3814C86.863 55.5218 86.711 55.6292 86.5394 55.6929C86.6452 55.7206 86.7461 55.7642 86.8387 55.8223C86.9227 55.875 86.9967 55.9421 87.0572 56.0206C87.1167 56.0974 87.1632 56.1835 87.1947 56.2754C87.2269 56.3719 87.2433 56.473 87.2433 56.5748C87.247 56.7413 87.2109 56.9063 87.1381 57.0561C87.0695 57.1932 86.9697 57.3124 86.8468 57.404C86.7139 57.5004 86.5645 57.5717 86.4059 57.6144C86.2268 57.6647 86.0418 57.6906 85.8558 57.6912L84.4723 57.6872V53.8564H85.7587ZM122.554 53.8604L123.836 57.6912H123.153L122.886 56.8013H121.628L121.353 57.6912H120.665L121.972 53.8604H122.554ZM127.469 53.8604V54.3822H126.599V57.1694H127.469V57.6912H125.074V57.1694H125.928V54.3822H125.074V53.8604H127.469ZM114.435 53.8604L115.718 57.6912H115.034L114.783 56.8013H113.525L113.25 57.6912H112.562L113.869 53.8604H114.435ZM154.079 53.8564V57.1735H156V57.6872H153.415V53.8564H154.079ZM150.033 53.8564V57.1735H151.955V57.6872H149.37V53.8564H150.033ZM97.9106 53.8483C98.1032 53.8488 98.295 53.8746 98.4809 53.9251C98.6442 53.9673 98.7979 54.04 98.934 54.1395C99.0601 54.2339 99.1614 54.3575 99.2293 54.4996C99.3026 54.6578 99.3385 54.8308 99.3345 55.0052C99.3362 55.1246 99.3185 55.2435 99.2819 55.3571C99.2476 55.4602 99.1971 55.5572 99.1322 55.6444C99.0672 55.731 98.9894 55.8074 98.9016 55.8709C98.8086 55.9376 98.7081 55.9932 98.6023 56.0367L99.4558 57.6548V57.6872H98.7479L97.9793 56.1864H97.3038V57.6791H96.6363V53.8483H97.9106ZM129.67 53.8564L130.976 56.4858V53.8564H131.648L131.644 57.6872H130.976L129.666 55.0538V57.6872H128.998V53.8564H129.67ZM101.305 53.8564L102.611 56.4858V53.8564H103.283V57.6872H102.615L101.305 55.0538V57.6872H100.633V53.8564H101.305ZM141.777 53.8564V55.4745H143.157V53.8564H143.804L143.8 57.6872H143.157V55.9761H141.781V57.6872H141.134V53.8564H141.777ZM71.1392 53.8564L71.123 54.3782H69.8852V57.6872H69.2258V54.3782H68.0122V53.8564H71.1392ZM72.911 53.8564V55.4745H74.2823V53.8564H74.9296V57.6872H74.2823V55.9761H72.911V57.6872H72.2678V53.8564H72.911ZM89.7999 54.3418C89.6679 54.3373 89.5378 54.3741 89.4277 54.447C89.3287 54.517 89.2482 54.61 89.1931 54.718C89.1325 54.8374 89.0915 54.9658 89.0717 55.0982C89.0488 55.2401 89.0366 55.3834 89.0353 55.527V56.0206C89.0376 56.1643 89.0512 56.3077 89.0758 56.4494C89.0964 56.5816 89.1374 56.7098 89.1971 56.8296C89.2519 56.9389 89.3324 57.0333 89.4317 57.1047C89.5417 57.1778 89.6719 57.2146 89.8039 57.2099C89.9371 57.2144 90.0685 57.1777 90.1801 57.1047C90.281 57.0328 90.364 56.9387 90.4228 56.8296C90.4862 56.7107 90.53 56.5823 90.5523 56.4494C90.5773 56.3078 90.5908 56.1644 90.5927 56.0206L90.5887 55.527C90.5873 55.3832 90.5737 55.2398 90.5482 55.0982C90.5258 54.9654 90.4821 54.837 90.4188 54.718C90.3603 54.6098 90.2772 54.5169 90.1761 54.447C90.0644 54.3742 89.9331 54.3375 89.7999 54.3418ZM85.8962 55.9477L85.1397 55.9518V57.1654H85.8638C85.9613 57.1652 86.0581 57.1502 86.151 57.1209C86.2319 57.0942 86.3073 57.0531 86.3735 56.9995C86.4365 56.9493 86.4877 56.8857 86.5232 56.8134C86.5595 56.7363 86.5775 56.6519 86.5758 56.5667C86.5769 56.478 86.5604 56.39 86.5273 56.3078C86.4981 56.2337 86.4525 56.1673 86.3938 56.1136C86.3311 56.0592 86.2582 56.0179 86.1794 55.9922C86.0878 55.9629 85.9923 55.9479 85.8962 55.9477ZM111.272 55.7576V56.2633H109.055V55.7576H111.272ZM114.16 54.7625L113.695 56.2633H114.617L114.16 54.7625ZM122.263 54.7625L121.798 56.2633H122.72L122.263 54.7625ZM97.9146 54.362H97.3078L97.3038 55.6767H97.9146C98.0174 55.6776 98.1198 55.6626 98.218 55.6322C98.3049 55.6043 98.3859 55.5604 98.4567 55.5028C98.5239 55.4482 98.5779 55.379 98.6144 55.3005C98.6531 55.214 98.6724 55.1202 98.6711 55.0254C98.6728 54.9285 98.6549 54.8322 98.6185 54.7423C98.5852 54.6629 98.5339 54.5923 98.4688 54.536C98.399 54.4768 98.3178 54.4327 98.2301 54.4065C98.1276 54.3769 98.0213 54.362 97.9146 54.362ZM85.7708 54.3822H85.1397V55.4704H85.7748C85.8691 55.4703 85.9629 55.4581 86.054 55.434C86.134 55.4131 86.2095 55.3775 86.2765 55.3288C86.3384 55.284 86.3895 55.226 86.4261 55.1589C86.464 55.088 86.4834 55.0087 86.4828 54.9283C86.4849 54.8431 86.4669 54.7586 86.4302 54.6816C86.3953 54.6133 86.3438 54.5549 86.2805 54.5117C86.2117 54.4655 86.1348 54.4326 86.054 54.4146C85.961 54.394 85.8661 54.3831 85.7708 54.3822Z" fill="#2F3A3E"/>
</svg>
