<svg width="160" height="48" viewBox="0 0 160 48" fill="none" xmlns="http://www.w3.org/2000/svg">
<path fill-rule="evenodd" clip-rule="evenodd" d="M84.5306 43.5877H79.4506V21.8271H84.4873V30.8773H93.2584V21.838H98.3091V43.5575H93.3202V34.4416H84.5306C84.5309 37.4562 84.5309 40.4854 84.5309 43.5877H84.5306ZM111.712 21.8107C111.884 21.8005 112.035 21.783 112.185 21.783C114.769 21.7815 117.353 21.7757 119.938 21.7858C121.173 21.7907 122.381 21.9936 123.545 22.4119C126.537 23.4875 128.183 25.8842 128.074 29.0606C128.048 29.796 127.964 30.5464 127.778 31.2556C127.053 34.0069 125.085 35.4624 122.438 36.0452C121.277 36.3007 120.058 36.3038 118.862 36.3814C118.18 36.4255 117.492 36.3894 116.733 36.3894V43.675H111.712C111.713 36.3888 111.713 29.111 111.713 21.8107H111.712ZM76.6468 23.9421C76.179 24.81 75.7769 25.6345 75.3015 26.4145C74.8764 27.1122 74.3148 27.1886 73.5007 26.8239C72.6201 26.4294 71.7464 25.9725 70.8204 25.7425C70.1826 25.5842 69.4407 25.6749 68.7809 25.8179C67.9473 25.9983 67.4202 26.5755 67.2832 27.4659C67.1446 28.3706 67.4884 29.0427 68.2837 29.4285C69.0384 29.7943 69.8368 30.0718 70.6211 30.3758C71.6907 30.7908 72.8004 31.1208 73.8301 31.6177C76.0814 32.7042 77.1206 34.7891 76.915 37.2873C76.5861 41.2809 73.5888 43.7684 69.6814 43.9093C66.9806 44.0071 64.5312 43.2551 62.3415 41.6701C62.1171 41.5076 61.9176 41.3112 61.6602 41.0907C62.1965 40.2364 62.6843 39.401 63.2324 38.607C63.6252 38.0384 64.28 37.917 64.9482 38.2489C65.4274 38.4875 65.8731 38.793 66.3385 39.0599C67.6014 39.7844 68.9325 40.1278 70.3867 39.7746C71.3688 39.5359 71.9448 38.9458 72.0949 38.0338C72.2637 37.0099 72.0725 36.108 71.0754 35.6156C70.3254 35.2452 69.5166 34.9913 68.7301 34.697C67.6318 34.2862 66.4837 33.9788 65.4395 33.461C63.6188 32.5579 62.7377 30.9808 62.5436 28.973C62.1369 24.7638 65.2158 22.0071 68.9546 21.6632C71.303 21.4474 73.5449 21.8649 75.5694 23.1524C75.9306 23.3819 76.2619 23.6577 76.6472 23.9424L76.6468 23.9421ZM156.001 21.8251V25.7468H149.99V43.5585H144.891V25.8042H138.817V21.8251H156.001ZM107.488 43.5795H102.445V21.819H107.488V43.5795ZM136.074 43.58H131.031V21.819H136.074V43.58ZM116.766 25.5706C118.052 25.6347 119.287 25.6059 120.494 25.779C122.014 25.9972 122.859 27.0057 122.979 28.5509C123.018 29.0556 123.004 29.5822 122.905 30.0768C122.607 31.5732 121.597 32.3982 119.884 32.5077C118.866 32.5728 117.84 32.5195 116.766 32.5195V25.5706H116.766Z" fill="#464462"/>
<path fill-rule="evenodd" clip-rule="evenodd" d="M4.01002 28.5752C7.23075 32.1103 11.3646 33.8068 15.755 34.9773C20.6175 36.2741 25.5761 36.6345 30.5938 36.278C38.8774 35.6893 46.505 33.1862 53.3999 28.5201C53.4809 28.4653 53.5689 28.4207 53.7334 28.325C53.7534 28.5693 53.7856 28.7545 53.781 28.9386C53.6857 32.6126 52.7252 35.9989 50.4418 38.9434C49.0889 40.6881 47.4103 42.0541 45.5119 43.157C45.2583 43.3041 44.9406 43.3929 44.6466 43.4113C41.9643 43.5812 39.2825 43.7991 36.5971 43.8687C32.1697 43.9829 27.7395 44.0524 23.3109 44.0362C19.4201 44.0213 15.5329 43.8057 11.6695 43.3024C11.3397 43.2596 10.9768 43.117 10.7212 42.9085C7.15975 39.9991 5.09077 36.2229 4.30541 31.7195C4.17831 30.9895 4.09747 30.2507 4.01525 29.5137C3.9842 29.2371 4.01018 28.9534 4.01018 28.5747L4.01002 28.5752Z" fill="#464563"/>
<path fill-rule="evenodd" clip-rule="evenodd" d="M45.1283 31.1997C39.8818 33.4513 31.6571 35.1585 28.1778 34.7653C28.2765 33.3972 28.3816 32.0276 28.472 30.6572C28.6063 28.6157 28.811 26.5747 28.8415 24.5311C28.9026 20.4392 28.9438 16.344 28.8422 12.2537C28.7771 9.62746 28.5001 6.99905 27.6751 4.46992C27.6459 4.38078 27.6567 4.27889 27.6309 3.96167C28.0724 4.29979 28.4316 4.48821 28.6733 4.77531C29.4633 5.71312 30.2625 6.65063 30.9658 7.653C34.3911 12.5347 37.3877 17.6844 40.3911 22.8288C41.7828 25.2126 43.1308 27.622 44.4953 30.0212C44.7083 30.3953 44.9032 30.7792 45.1285 31.2L45.1283 31.1997ZM32.3115 12.8725C32.2611 12.8894 32.2105 12.9067 32.16 12.9236C32.16 13.0846 32.1258 13.2541 32.1656 13.4047C32.3412 14.066 32.5187 14.728 32.7301 15.3787C33.6338 18.1585 34.5895 20.9223 35.4486 23.7159C36.0517 25.677 36.5487 27.6719 37.0538 29.6619C37.2377 30.3876 37.3076 31.1419 37.4404 31.9479C39.1602 31.8938 40.7797 31.5134 42.3739 30.9944C42.771 30.865 42.7793 30.5774 42.6493 30.2573C42.4864 29.8569 42.3327 29.4489 42.1274 29.0697C40.9878 26.9645 39.8953 24.8303 38.67 22.7758C36.8988 19.806 35.0336 16.8922 33.1924 13.9643C32.9453 13.5708 32.6072 13.2349 32.3113 12.8723L32.3115 12.8725Z" fill="#E88826"/>
<path fill-rule="evenodd" clip-rule="evenodd" d="M11.4785 31.3803C13.6031 27.8108 15.6281 24.285 17.777 20.8365C19.6163 17.8854 21.5713 15.0048 23.5327 12.132C24.1045 11.2941 24.8326 10.549 25.563 9.83739C26.2495 9.16837 26.688 9.29793 26.8946 10.2222C27.1056 11.1662 27.2603 12.1341 27.318 13.0993C27.5716 17.3473 27.4471 21.5961 27.2381 25.8428C27.1289 28.0673 27.0121 30.2911 26.8873 32.5145C26.8474 33.2279 26.771 33.9392 26.6992 34.7922C26.0513 34.7968 25.4225 34.8449 24.8008 34.7977C21.3751 34.5395 18 33.9755 14.7091 32.9765C13.9306 32.7404 13.1799 32.4002 12.4391 32.059C12.1056 31.9057 11.8271 31.6322 11.4785 31.3804V31.3803ZM21.348 18.7831C21.1787 19.013 21.1011 19.1058 21.0376 19.2068C19.6559 21.4035 18.2469 23.5839 16.9068 25.8056C16.1307 27.092 15.4511 28.4379 14.7583 29.7727C14.4109 30.4418 14.5692 30.8726 15.2281 31.1891C16.4834 31.7919 17.8224 32.062 19.1552 32.3722C19.5228 32.4583 19.7681 32.323 19.8376 31.8722C20.0082 30.7729 20.2525 29.6852 20.432 28.5863C20.6726 27.1125 20.9174 25.6378 21.0914 24.1555C21.2743 22.595 21.3811 21.0251 21.5048 19.4582C21.5186 19.2846 21.4256 19.1026 21.348 18.7832V18.7831Z" fill="#E88826"/>
<path fill-rule="evenodd" clip-rule="evenodd" d="M32.3108 12.8728C32.6068 13.2352 32.9448 13.5716 33.1919 13.9646C35.0328 16.8924 36.898 19.8064 38.6694 22.7761C39.8946 24.8307 40.9871 26.9648 42.1267 29.0697C42.3319 29.4489 42.4859 29.8566 42.6486 30.2575C42.7785 30.5776 42.77 30.8651 42.3729 30.9946C40.7788 31.5137 39.1595 31.8944 37.4394 31.9482C37.307 31.1424 37.237 30.3879 37.0529 29.6622C36.548 27.6727 36.0509 25.6776 35.4479 23.7164C34.5888 20.9228 33.6333 18.159 32.7295 15.3792C32.5178 14.7286 32.3403 14.0667 32.1648 13.405C32.1248 13.2547 32.159 13.0854 32.159 12.9243C32.2097 12.9074 32.2604 12.8905 32.3106 12.8733L32.3108 12.8728ZM21.3469 18.783C21.4246 19.1022 21.5175 19.2843 21.5036 19.4577C21.3799 21.0245 21.2731 22.5945 21.0902 24.1549C20.9165 25.6374 20.6715 27.1119 20.4309 28.5858C20.2517 29.6842 20.007 30.7723 19.8367 31.8717C19.7671 32.3226 19.5219 32.4577 19.1543 32.3718C17.8218 32.0613 16.4826 31.7914 15.2271 31.1887C14.5684 30.8721 14.4099 30.4414 14.7572 29.7723C15.4504 28.4375 16.13 27.0919 16.9058 25.8052C18.246 23.5835 19.6549 21.4031 21.0364 19.2062C21.1 19.1052 21.1778 19.0126 21.3469 18.7828V18.783Z" fill="#F7A81F"/>
</svg>
