<svg width="224" height="48" viewBox="0 0 224 48" fill="none" xmlns="http://www.w3.org/2000/svg">
<path d="M78.2999 15.4645H83.5615V36.85H78.2999V34.238C76.9076 36.3057 74.6852 37.3396 71.6326 37.3396C68.6605 37.3396 66.3042 36.2786 64.5638 34.1562C62.8232 32.034 61.953 29.3679 61.9531 26.1579C61.9531 22.9474 62.8233 20.2811 64.5638 18.1588C66.3041 16.0366 68.6604 14.9752 71.6326 14.9749C74.6852 14.9749 76.9076 16.0088 78.2999 18.0766V15.4645ZM76.5729 30.5243C77.5369 29.3814 78.019 27.9257 78.019 26.1569C78.019 24.3883 77.5436 22.9329 76.5928 21.7906C75.6423 20.6477 74.3906 20.0763 72.8377 20.0763C71.2847 20.0763 70.0329 20.6477 69.0822 21.7906C68.1316 22.9334 67.6564 24.3892 67.6564 26.1579C67.6564 27.9267 68.1316 29.3824 69.0822 30.5252C70.0327 31.6679 71.2845 32.2393 72.8373 32.2395C74.3903 32.2395 75.6356 31.6678 76.5729 30.5243ZM94.1246 11.71C93.4819 12.363 92.6518 12.6895 91.6344 12.6895C90.6169 12.6895 89.7868 12.363 89.1441 11.71C88.825 11.3838 88.5748 10.9946 88.4089 10.5665C88.2431 10.1384 88.1654 9.68029 88.1802 9.22046C88.1665 8.75771 88.2448 8.29691 88.4104 7.86562C88.5761 7.43434 88.8256 7.04147 89.1441 6.71051C89.4686 6.37795 89.8575 6.11739 90.2861 5.94527C90.7148 5.77316 91.1738 5.69324 91.6344 5.71058C92.0949 5.69322 92.5539 5.77313 92.9826 5.94524C93.4112 6.11735 93.7999 6.37794 94.1244 6.71051C94.4431 7.04147 94.6926 7.43434 94.8583 7.86562C95.0239 8.29691 95.1022 8.75771 95.0884 9.22046C95.1033 9.68026 95.0256 10.1383 94.8598 10.5664C94.694 10.9945 94.4439 11.3836 94.1246 11.7098V11.71ZM88.7827 36.85V15.4645H94.4862V36.85H88.7827ZM111.596 15.3014V20.7293C111.226 20.651 110.849 20.61 110.471 20.6068C108.785 20.6068 107.519 21.0558 106.676 21.9536C105.832 22.8515 105.411 24.2663 105.411 26.198V36.8498H99.7074V15.4645H104.968V18.2397C106.173 16.2536 108.155 15.2605 110.912 15.2605L111.596 15.3014ZM122.802 15.4647H126.055V20.0352H122.802V36.8498H117.099V20.0354H114.085V15.4645H117.099V13.7505C117.099 11.2474 117.735 9.37001 119.007 8.11843C120.279 6.86686 122.026 6.24107 124.249 6.24107L125.936 6.32275V11.3018C125.642 11.2673 125.347 11.2536 125.052 11.2608C123.552 11.2608 122.803 12.0498 122.803 13.6278L122.802 15.4647ZM146.659 34.1156C144.624 36.2651 141.96 37.3398 138.666 37.3398C135.373 37.3398 132.709 36.2585 130.674 34.0955C128.639 31.9321 127.621 29.2863 127.621 26.1579C127.621 23.0295 128.638 20.3833 130.673 18.2193C132.709 16.0563 135.373 14.9749 138.666 14.9749C141.96 14.9749 144.624 16.0563 146.659 18.2193C148.694 20.3824 149.711 23.0286 149.711 26.1579C149.711 29.2872 148.694 31.9398 146.659 34.1156ZM134.811 21.7087C133.82 22.7972 133.325 24.2799 133.325 26.1574C133.325 28.0347 133.827 29.5176 134.832 30.6058C135.837 31.6941 137.115 32.2383 138.668 32.2383C140.22 32.2383 141.498 31.6941 142.503 30.6058C143.507 29.5174 144.01 28.0345 144.01 26.1572C144.011 24.2798 143.509 22.7971 142.503 21.7087C141.499 20.6204 140.221 20.0763 138.668 20.0763C137.115 20.0763 135.829 20.6204 134.811 21.7087ZM155.254 34.1562C153.273 32.0069 152.283 29.3408 152.283 26.1579C152.283 22.975 153.28 20.3156 155.275 18.1796C157.27 16.0439 159.794 14.9759 162.846 14.9758C165.845 14.9758 168.208 15.8329 169.935 17.547C171.662 19.2612 172.646 21.1793 172.887 23.3015H167.022C166.813 22.383 166.285 21.5717 165.536 21.0155C164.75 20.4138 163.789 20.0976 162.805 20.1177C161.306 20.1177 160.127 20.6686 159.27 21.7707C158.413 22.8726 157.984 24.3351 157.985 26.1579C157.985 27.9808 158.414 29.4433 159.271 30.5453C160.127 31.6473 161.306 32.1982 162.806 32.1982C163.789 32.2183 164.751 31.902 165.537 31.3003C166.286 30.7443 166.813 29.9331 167.023 29.015H172.887C172.646 31.1372 171.662 33.0554 169.935 34.7694C168.208 36.4834 165.845 37.3404 162.846 37.3406C159.793 37.3399 157.262 36.2786 155.254 34.1562ZM192.968 35.0541C191.363 36.5778 188.979 37.3394 185.819 37.3394C182.661 37.3394 180.276 36.5778 178.67 35.0541C177.063 33.5306 176.261 31.0819 176.261 27.7082V15.4645H181.963V27.7896C181.963 30.7011 183.248 32.1569 185.819 32.1569C188.389 32.1569 189.675 30.7011 189.675 27.7896V15.4645H195.378V27.7082C195.378 31.0819 194.574 33.5306 192.968 35.0543V35.0541ZM207.87 37.3394C202.139 37.3394 199.099 34.8636 198.753 29.9117H204.537C204.557 30.2888 204.65 30.658 204.812 30.998C204.975 31.3378 205.201 31.6415 205.481 31.8912C206.055 32.4216 206.906 32.687 208.03 32.687C209.102 32.687 209.918 32.51 210.48 32.1564C211.043 31.8028 211.324 31.3266 211.324 30.7281C211.324 30.075 210.922 29.5922 210.119 29.2794C209.175 28.9294 208.2 28.6765 207.207 28.5242C206.05 28.3294 204.903 28.0707 203.773 27.749C202.627 27.4262 201.605 26.7573 200.841 25.8309C200.037 24.8783 199.635 23.6132 199.635 22.035C199.635 20.049 200.411 18.3757 201.965 17.0152C203.518 15.6547 205.552 14.9745 208.07 14.9747C210.935 14.9747 213.064 15.7093 214.456 17.1785C215.848 18.6478 216.597 20.3211 216.705 22.1985H211.203C211.181 21.8462 211.091 21.502 210.935 21.1863C210.78 20.8708 210.564 20.5903 210.299 20.3619C209.75 19.872 208.994 19.6271 208.03 19.6272C207.119 19.6272 206.41 19.8245 205.9 20.219C205.664 20.3858 205.471 20.6086 205.338 20.8681C205.204 21.1275 205.136 21.416 205.138 21.7086C205.138 22.3617 205.539 22.8377 206.343 23.137C207.287 23.4717 208.263 23.7111 209.255 23.8514C210.407 24.0314 211.546 24.2836 212.668 24.6066C213.815 24.9384 214.832 25.6227 215.58 26.5653C216.384 27.5447 216.785 28.8508 216.785 30.4832C216.785 32.4694 215.989 34.1086 214.396 35.401C212.803 36.6935 210.627 37.3396 207.868 37.3396L207.87 37.3394Z" fill="#3C4453"/>
<path d="M45.0717 23.8552C43.8631 21.9365 42.1847 20.3582 40.1954 19.2697C38.2061 18.1813 35.9718 17.6187 33.7043 17.6354C31.4368 17.6521 29.211 18.2474 27.238 19.365C25.2649 20.4826 23.6098 22.0855 22.4296 24.0217V24.1549C21.7699 25.3078 21.4146 26.6097 21.3972 27.9379C21.3797 29.266 21.7006 30.5768 22.3297 31.7467C22.9589 32.8973 23.8688 33.8701 24.975 34.5745C26.0811 35.2789 27.3474 35.6921 28.6562 35.7756C26.4018 35.7086 24.2021 35.0659 22.2662 33.9086C20.3304 32.7514 18.7229 31.1181 17.5965 29.1641C16.4702 27.2101 15.8625 25.0004 15.8313 22.7453C15.8002 20.4901 16.3465 18.2645 17.4184 16.2801L22.1799 7.9558C22.8759 6.75287 23.8761 5.75414 25.08 5.05982C26.2839 4.3655 27.6493 4 29.0391 4C30.4289 4 31.7942 4.3655 32.9982 5.05982C34.2021 5.75414 35.2023 6.75287 35.8983 7.9558L45.0717 23.8552Z" fill="#51D7FF"/>
<path d="M30.9369 42.2352C29.0373 43.3389 26.89 43.9458 24.6937 44H15.1207C13.7319 43.9998 12.3675 43.6338 11.165 42.9388C9.96253 42.2439 8.96426 41.2445 8.27064 40.0412C7.57703 38.838 7.21255 37.4732 7.21387 36.0844C7.21519 34.6955 7.58227 33.3315 8.27816 32.1295L17.4183 16.28C16.3464 18.2644 15.8001 20.49 15.8312 22.7452C15.8624 25.0003 16.4701 27.21 17.5964 29.164C18.7228 31.118 20.3303 32.7513 22.2661 33.9085C24.202 35.0658 26.4017 35.7085 28.6561 35.7756H29.0556C30.3987 35.7764 31.7187 35.4263 32.8848 34.76C34.059 34.1018 35.0361 33.1419 35.7151 31.9797C36.4092 30.8271 36.7881 29.5123 36.8139 28.1671C36.8319 26.8271 36.5112 25.5043 35.8816 24.3213C37.5711 27.3616 37.9942 30.9453 37.0593 34.2955C36.1243 37.6457 33.9067 40.4924 30.887 42.2186L30.9369 42.2352Z" fill="#318EFF"/>
<path d="M42.9907 43.9999H24.6772C26.9503 43.9332 29.1684 43.2855 31.1203 42.1186C33.0627 40.9401 34.6714 39.2842 35.7933 37.3085C36.9152 35.3327 37.5131 33.1029 37.53 30.8309C37.5376 28.56 36.9645 26.3249 35.8651 24.3379C35.2103 23.1394 34.2514 22.1345 33.0848 21.4244C31.9281 20.7078 30.5994 20.3166 29.239 20.2923C27.8767 20.2627 26.5306 20.5917 25.3355 21.2462C24.1405 21.9007 23.1384 22.8578 22.4297 24.0216C23.5945 22.0658 25.2441 20.4436 27.2191 19.3115C29.194 18.1795 31.4275 17.5759 33.7038 17.5592C35.9802 17.5425 38.2223 18.1131 40.2137 19.216C42.205 20.3189 43.8783 21.9167 45.0718 23.8551L49.85 32.1794C50.5342 33.3813 50.8912 34.7416 50.8855 36.1245C50.8798 37.5075 50.5115 38.8648 49.8174 40.0609C49.1233 41.2571 48.1276 42.2503 46.9297 42.9415C45.7319 43.6327 44.3737 43.9976 42.9907 43.9999Z" fill="#FFD400"/>
</svg>
