<svg width="224" height="48" viewBox="0 0 224 48" fill="none" xmlns="http://www.w3.org/2000/svg">
<path fill-rule="evenodd" clip-rule="evenodd" d="M52.4039 7.34999C49.059 5.785 45.4824 4.64763 41.7433 4C41.2841 4.83024 40.7476 5.94692 40.3777 6.83525C36.4029 6.23748 32.4646 6.23748 28.5629 6.83525C28.1931 5.94692 27.6444 4.83024 27.1811 4C23.4379 4.64763 19.8573 5.78918 16.5124 7.35828C9.76572 17.5534 7.93681 27.4953 8.85127 37.296C13.326 40.6376 17.6626 42.6676 21.926 43.9959C22.9786 42.5471 23.9175 41.0071 24.7262 39.384C23.1859 38.7987 21.7106 38.0764 20.3166 37.2379C20.6864 36.9639 21.0481 36.6775 21.3976 36.3827C29.9 40.3595 39.1381 40.3595 47.539 36.3827C47.8925 36.6775 48.2542 36.9639 48.62 37.2379C47.2219 38.0805 45.7425 38.8028 44.2022 39.3882C45.011 41.0071 45.9458 42.5513 47.0025 44C51.27 42.6717 55.6105 40.6418 60.0853 37.296C61.1583 25.9345 58.2523 16.0839 52.4039 7.34999ZM25.8846 31.2686C23.3322 31.2686 21.2391 28.8859 21.2391 25.9843C21.2391 23.0826 23.2875 20.6958 25.8846 20.6958C28.4817 20.6958 30.5747 23.0785 30.53 25.9843C30.5341 28.8859 28.4817 31.2686 25.8846 31.2686ZM43.052 31.2686C40.4997 31.2686 38.4066 28.8859 38.4066 25.9843C38.4066 23.0826 40.4549 20.6958 43.052 20.6958C45.649 20.6958 47.7422 23.0785 47.6975 25.9843C47.6975 28.8859 45.649 31.2686 43.052 31.2686Z" fill="#5865F2"/>
<path fill-rule="evenodd" clip-rule="evenodd" d="M78.0692 14.2042H89.1644C91.839 14.2042 94.0986 14.6318 95.9523 15.4828C97.8011 16.3337 99.1873 17.5209 100.106 19.0403C101.024 20.5596 101.487 22.2989 101.487 24.2582C101.487 26.176 101.008 27.9153 100.049 29.4719C99.0895 31.0328 97.6304 32.2657 95.6676 33.1748C93.7048 34.0838 91.2738 34.5404 88.3682 34.5404H78.0692V14.2042ZM88.2541 29.3724C90.0547 29.3724 91.4409 28.9116 92.4078 27.9942C93.3754 27.0726 93.8592 25.819 93.8592 24.2291C93.8592 22.7555 93.4278 21.5807 92.5665 20.7007C91.7051 19.8206 90.4004 19.3765 88.6565 19.3765H85.1856V29.3724H88.2541Z" fill="#5865F2"/>
<path d="M113.944 32.7431C115.176 33.5194 116.562 34.1089 118.098 34.5156C119.635 34.9224 121.219 35.1259 122.849 35.13C125.621 35.13 127.758 34.6111 129.266 33.5734C130.774 32.5356 131.526 31.1366 131.526 29.3724C131.526 27.7618 131.071 26.5456 130.16 25.7236C129.25 24.9017 127.865 24.3247 126.007 23.9968L123.162 23.4737C122.426 23.316 121.918 23.1665 121.642 23.0212C121.366 22.876 121.228 22.6601 121.228 22.3695C121.228 21.751 122.117 21.4397 123.902 21.4397C125.138 21.4397 126.336 21.5974 127.503 21.917C128.673 22.2409 129.697 22.6684 130.592 23.2122V18.6501C129.718 18.1063 128.62 17.6622 127.292 17.3135C125.962 16.9648 124.503 16.7905 122.91 16.7905C121.126 16.7905 119.574 17.0188 118.244 17.4753C116.915 17.9278 115.891 18.5713 115.172 19.4056C114.448 20.24 114.09 21.2155 114.09 22.3405C114.09 23.6771 114.501 24.7564 115.326 25.5783C116.151 26.4044 117.537 27.0478 119.492 27.5127L122.906 28.2973C123.455 28.4343 123.824 28.5962 124.016 28.7913C124.207 28.9864 124.3 29.2272 124.3 29.5177C124.3 29.771 124.125 29.991 123.775 30.1736C123.426 30.3562 122.91 30.4476 122.227 30.4476C120.764 30.4476 119.252 30.211 117.687 29.7377C116.123 29.2604 114.875 28.6543 113.944 27.9196V32.7431Z" fill="#5865F2"/>
<path d="M138.241 33.9053C136.612 33.0916 135.38 31.9875 134.559 30.5927C133.738 29.1979 133.324 27.6288 133.324 25.8853C133.324 24.1419 133.751 22.5811 134.604 21.2071C135.458 19.8331 136.709 18.7538 138.36 17.9692C140.009 17.1847 141.981 16.7944 144.277 16.7944C147.122 16.7944 149.483 17.4047 151.361 18.6251V23.9427C150.699 23.4777 149.926 23.1 149.044 22.8094C148.162 22.5188 147.219 22.3735 146.212 22.3735C144.448 22.3735 143.07 22.7014 142.074 23.3615C141.078 24.0215 140.579 24.8808 140.579 25.9476C140.579 26.9937 141.062 27.8488 142.03 28.5213C142.997 29.1896 144.399 29.5259 146.24 29.5259C147.187 29.5259 148.122 29.3847 149.044 29.1066C149.963 28.8244 150.755 28.4798 151.418 28.073V33.2162C149.333 34.4947 146.915 35.134 144.163 35.134C141.847 35.1257 139.871 34.7189 138.241 33.9053Z" fill="#5865F2"/>
<path fill-rule="evenodd" clip-rule="evenodd" d="M154.702 30.5638C155.564 31.9793 156.815 33.0919 158.457 33.9054C160.095 34.719 162.034 35.1217 164.273 35.1217C166.512 35.1217 168.451 34.7149 170.093 33.9013C171.735 33.0877 172.983 31.9752 173.837 30.5596C174.69 29.1442 175.116 27.5667 175.116 25.8233C175.116 24.059 174.69 22.5024 173.837 21.145C172.983 19.7876 171.739 18.7249 170.109 17.9486C168.479 17.1723 166.533 16.7863 164.277 16.7863C162.021 16.7863 160.074 17.1723 158.445 17.9486C156.811 18.7249 155.567 19.7959 154.702 21.1616C153.836 22.5273 153.405 24.084 153.405 25.8274C153.405 27.5709 153.84 29.1483 154.702 30.5638ZM168.142 25.9478C168.142 27.1101 167.793 28.0441 167.102 28.7498C166.411 29.4555 165.468 29.8083 164.273 29.8125C163.058 29.8125 162.103 29.4555 161.412 28.7498C160.721 28.0441 160.375 27.1101 160.375 25.9478C160.375 24.7855 160.721 23.864 161.412 23.1748C162.106 22.4858 163.058 22.1412 164.273 22.1412C165.468 22.1412 166.411 22.4858 167.102 23.1748C167.797 23.8598 168.142 24.7855 168.142 25.9478Z" fill="#5865F2"/>
<path d="M192.211 17.8655V24.142C191.487 23.6563 190.552 23.4155 189.394 23.4155C187.878 23.4155 186.708 23.8846 185.894 24.8228C185.078 25.7609 184.671 27.2221 184.671 29.198V34.5446H177.701V17.5459H184.529V22.9506C184.907 20.9747 185.521 19.5177 186.366 18.5753C187.208 17.6372 188.296 17.1681 189.622 17.1681C190.625 17.1681 191.487 17.4006 192.211 17.8655Z" fill="#5865F2"/>
<path fill-rule="evenodd" clip-rule="evenodd" d="M215.369 34.5447V13.6232H208.398V21.2072C207.26 18.2641 205.033 16.7905 201.713 16.7905C200.099 16.7905 198.661 17.189 197.4 17.9819C196.14 18.7748 195.161 19.8789 194.47 21.2944C193.775 22.71 193.438 24.3082 193.458 26.089C193.458 27.8159 193.779 29.36 194.413 30.7258C195.052 32.0915 195.958 33.1666 197.132 33.9512C198.307 34.7357 199.681 35.1259 201.257 35.1259C203.021 35.1259 204.509 34.7523 205.712 34.0092C206.915 33.2621 207.809 32.1703 208.398 30.7382V34.5447H215.369ZM208.423 25.8898C208.423 27.0105 208.069 27.9279 207.358 28.6336C206.646 29.3393 205.704 29.6922 204.529 29.6963C203.371 29.6963 202.444 29.3476 201.741 28.6502C201.038 27.9528 200.689 27.0521 200.689 25.9478C200.689 24.8436 201.038 23.9512 201.741 23.262C202.444 22.573 203.383 22.2285 204.557 22.2285C205.748 22.2285 206.695 22.5689 207.387 23.2455C208.077 23.9221 208.423 24.8063 208.423 25.8898Z" fill="#5865F2"/>
<path d="M107.361 19.3556C109.28 19.3556 110.836 17.9282 110.836 16.1675C110.836 14.4068 109.28 12.9795 107.361 12.9795C105.441 12.9795 103.886 14.4068 103.886 16.1675C103.886 17.9282 105.441 19.3556 107.361 19.3556Z" fill="#5865F2"/>
<path d="M110.832 21.5517C108.654 22.5313 106.012 22.4898 103.883 21.5517V34.6359H110.832V21.5517Z" fill="#5865F2"/>
</svg>
