<svg width="160" height="80" viewBox="0 0 160 80" fill="none" xmlns="http://www.w3.org/2000/svg">
<path d="M4 68.2683L4.26481 65.6202H4.52962C4.66202 65.8188 4.79443 65.9512 4.99303 65.9512C5.19164 66.0174 5.39024 65.9512 5.58885 65.9512H10.6202C11.0174 65.9512 11.4808 66.0174 11.6794 65.554H11.9443L12.2091 68.2021L11.878 68.2683C11.4146 66.6132 10.554 66.4146 8.89895 66.4146V71.3136C8.89895 73.432 9.03136 73.3658 10.6864 73.6307V73.9617H5.52265V73.6307C7.1115 73.3658 7.3101 73.4982 7.3101 71.3136V66.4146C5.65505 66.4146 4.79443 66.6132 4.33101 68.2683H4Z" fill="#211D51"/>
<path d="M15.0557 71.9756C15.0557 73.2334 14.9895 73.6307 16.2474 73.7631V74.0279H12.6063V73.7631C13.6655 73.5644 13.7979 73.6307 13.7979 71.9756V69.7909C13.7979 68.1359 13.6655 68.2021 12.6063 68.0035V67.7387H16.2474V68.0035C14.9895 68.1359 15.0557 68.5331 15.0557 69.7909V70.453H18.3659V69.7909C18.3659 68.5331 18.4321 68.1359 17.1742 68.0035V67.7387H20.8153V68.0035C19.7561 68.2021 19.6237 68.1359 19.6237 69.7909V71.9756C19.6237 73.6307 19.7561 73.5644 20.8153 73.7631V74.0279H17.1742V73.7631C18.4321 73.6307 18.3659 73.2334 18.3659 71.9756V70.9826H15.0557V71.9756Z" fill="#211D51"/>
<path d="M23.662 72.2404C23.662 73.1672 23.662 73.6307 24.9199 73.6307C26.1115 73.6307 26.6411 72.9686 26.9059 71.9094H27.1707C27.1707 72.6376 27.0383 73.2996 26.8397 74.0279H21.2125V73.7631C22.2718 73.5644 22.4042 73.6307 22.4042 71.9756V69.7909C22.4042 68.1359 22.2718 68.2021 21.2125 68.0035V67.7387H26.6411L26.4425 69.3275H26.1777C26.1115 68.1359 25.3171 68.1359 24.324 68.1359H23.662V70.453H24.4564C25.2509 70.453 25.6481 70.3868 25.9129 69.5261H26.1777C26.1115 70.3205 26.1115 71.0488 26.1115 71.8432H25.8467C25.6481 70.9164 25.2509 70.9826 24.4564 70.9826H23.662V72.2404Z" fill="#211D51"/>
<path d="M39.1533 67.4739L36.3728 74.0941H36.0418L33.3275 67.7387L33.0627 72.3728C32.9965 73.432 33.5261 73.432 34.453 73.6969V74.0279H30.878V73.6969C31.7387 73.432 32.0035 73.432 32.1359 72.439L32.4669 69.9233L32.7979 67.3415C32.8641 66.4808 32.2683 66.4808 31.5401 66.2822V65.9512H34.6516V66.216C34.3206 66.6132 34.8502 67.5401 34.9826 67.9373L36.6376 71.777L38.5575 67.3415C38.6899 67.0104 38.9547 66.547 38.6237 66.216V65.9512H42V66.2822C40.8084 66.547 40.6098 66.7456 40.676 67.8711L40.8746 71.7108C40.9408 73.0348 40.9408 73.432 42.3972 73.6969V74.0279H37.8293V73.6969C39.4181 73.4982 39.3519 73.101 39.2857 71.6446L39.1533 67.4739Z" fill="#211D51"/>
<path d="M46.3031 71.9756C46.3031 73.2334 46.2369 73.6307 47.6272 73.7631V74.0279H43.7875V73.7631C44.9791 73.5644 45.1115 73.6307 45.1115 71.9756V71.5784L44.1185 69.5261C43.7213 68.6655 43.5888 68.2683 42.5958 68.0697V67.8049H45.7073V68.0697C45.0453 68.2021 44.7805 68.1359 45.3101 69.2613L46.1045 70.9164L46.5679 69.9233C47.3624 68.3345 47.1638 68.2683 46.3693 68.0697V67.8049H49.0174V68.0697C48.223 68.2021 47.892 68.4007 47.4948 69.1289L46.4355 71.0488L46.3031 71.3798V71.9756Z" fill="#211D51"/>
<path d="M56.3658 70.8502C56.3658 72.9024 54.8432 74.1603 52.7909 74.1603C50.8049 74.1603 49.2822 72.9024 49.2822 70.9164C49.2822 68.9303 50.8049 67.6063 52.7909 67.6063C54.7108 67.6063 56.3658 68.7317 56.3658 70.8502ZM50.8049 70.784C50.8049 72.0418 51.4007 73.7631 52.9233 73.7631C54.3798 73.7631 54.8432 72.3066 54.8432 71.115C54.8432 69.7909 54.2474 68.0697 52.6585 68.0697C51.2683 68.0697 50.8049 69.5923 50.8049 70.784Z" fill="#211D51"/>
<path d="M61.331 69.6585H61.0662C60.8676 68.9303 60.669 68.0697 59.7422 68.0697C59.2125 68.0697 58.8153 68.4669 58.8153 68.9965C58.8153 70.453 61.7944 70.3867 61.7944 72.3066C61.7944 73.6307 60.5366 74.1603 59.3449 74.1603C58.6829 74.1603 58.0871 73.9617 57.4913 73.6969L57.1603 71.9094L57.4251 71.8432C57.7561 72.77 58.4181 73.7631 59.4774 73.7631C60.0732 73.7631 60.5366 73.3658 60.5366 72.77C60.5366 71.2474 57.5575 71.3798 57.5575 69.5261C57.5575 68.3345 58.7491 67.6063 59.8084 67.6063C60.338 67.6063 60.8676 67.7387 61.331 68.0035V69.6585Z" fill="#211D51"/>
<path d="M64.7735 71.9756C64.7735 73.6307 64.9059 73.5644 65.9652 73.7631V74.0279H62.324V73.7631C63.3833 73.5644 63.5157 73.6307 63.5157 71.9756V69.7909C63.5157 68.1359 63.3833 68.2021 62.324 68.0035V67.7387H65.9652V68.0035C64.9059 68.2021 64.7735 68.1359 64.7735 69.7909V71.9756Z" fill="#211D51"/>
<path d="M66.3624 69.5261L66.561 67.4739H66.7596C66.8258 67.6725 66.9582 67.7387 67.0906 67.7387C67.223 67.7387 67.4216 67.7387 67.554 67.7387H71.3937C71.7247 67.7387 72.0557 67.8049 72.1881 67.4739H72.3868L72.5854 69.5261L72.3205 69.5923C71.9233 68.2683 71.2613 68.1359 70.0035 68.1359V71.9094C70.0035 73.5645 70.1359 73.4982 71.3937 73.6969V73.9617H67.4216V73.6969C68.6794 73.4982 68.8118 73.5645 68.8118 71.9094V68.1359C67.554 68.1359 66.892 68.2683 66.4948 69.5923L66.3624 69.5261Z" fill="#211D51"/>
<path d="M75.4983 71.9756C75.4983 73.6307 75.6307 73.5644 76.6899 73.7631V74.0279H73.0488V73.7631C74.108 73.5644 74.2404 73.6307 74.2404 71.9756V69.7909C74.2404 68.1359 74.108 68.2021 73.0488 68.0035V67.7387H76.6899V68.0035C75.6307 68.2021 75.4983 68.1359 75.4983 69.7909V71.9756Z" fill="#211D51"/>
<path d="M81.4564 69.6585H81.1916C80.993 68.9303 80.7944 68.0697 79.8676 68.0697C79.338 68.0697 78.9408 68.4669 78.9408 68.9965C78.9408 70.453 81.9199 70.3867 81.9199 72.3066C81.9199 73.6307 80.662 74.1603 79.4704 74.1603C78.8084 74.1603 78.2125 73.9617 77.6167 73.6969L77.2857 71.9094L77.5505 71.8432C77.8815 72.77 78.5435 73.7631 79.6028 73.7631C80.1986 73.7631 80.662 73.3658 80.662 72.77C80.662 71.2474 77.6829 71.3798 77.6829 69.5261C77.6829 68.3345 78.8746 67.6063 79.9338 67.6063C80.4634 67.6063 80.993 67.7387 81.4564 68.0035V69.6585Z" fill="#211D51"/>
<path d="M87.7456 70.8502L87.547 71.446C86.8188 73.4982 87.3484 73.4982 88.6063 73.6969V74.0279H84.8989V73.6969C85.561 73.4982 85.8258 73.4983 86.0906 72.8362L86.885 71.0488L88.7387 66.7456L88.6063 66.4146C89.0697 66.216 89.4669 65.885 89.7317 65.4878H89.9303L92.115 71.2474C92.9094 73.1672 92.777 73.2996 94.0348 73.6969V74.0279H89.9965V73.6969C91.1219 73.4982 91.1881 73.2996 90.5923 71.5784L90.3275 70.8502H87.7456ZM90.0627 70.1219L89.0035 67.4077L88.0104 70.1219H90.0627Z" fill="#211D51"/>
<path d="M98.4042 69.6585H98.1394C97.9408 68.9303 97.7421 68.0697 96.8153 68.0697C96.2857 68.0697 95.8885 68.4669 95.8885 68.9965C95.8885 70.453 98.8676 70.3867 98.8676 72.3066C98.8676 73.6307 97.6098 74.1603 96.4181 74.1603C95.7561 74.1603 95.1603 73.9617 94.5645 73.6969L94.2334 71.9094L94.4983 71.8432C94.8293 72.77 95.4913 73.7631 96.5505 73.7631C97.1463 73.7631 97.6097 73.3658 97.6097 72.77C97.6097 71.2474 94.6307 71.3798 94.6307 69.5261C94.6307 68.3345 95.8223 67.6063 96.8815 67.6063C97.4111 67.6063 97.9408 67.7387 98.4042 68.0035V69.6585Z" fill="#211D51"/>
<path d="M103.767 69.6585H103.502C103.303 68.9303 103.105 68.0697 102.178 68.0697C101.648 68.0697 101.251 68.4669 101.251 68.9965C101.251 70.453 104.23 70.3867 104.23 72.3066C104.23 73.6307 102.972 74.1603 101.78 74.1603C101.118 74.1603 100.523 73.9617 99.9268 73.6969L99.5958 71.9094L99.8606 71.8432C100.192 72.77 100.854 73.7631 101.913 73.7631C102.509 73.7631 102.972 73.3658 102.972 72.77C102.972 71.2474 99.993 71.3798 99.993 69.5261C99.993 68.3345 101.185 67.6063 102.244 67.6063C102.774 67.6063 103.303 67.7387 103.767 68.0035V69.6585Z" fill="#211D51"/>
<path d="M112.042 70.8502C112.042 72.9024 110.519 74.1603 108.467 74.1603C106.481 74.1603 104.958 72.9024 104.958 70.9164C104.958 68.9303 106.481 67.6063 108.467 67.6063C110.387 67.6063 112.042 68.7317 112.042 70.8502ZM106.481 70.784C106.481 72.0418 107.077 73.7631 108.599 73.7631C110.056 73.7631 110.519 72.3066 110.519 71.115C110.519 69.7909 109.923 68.0697 108.334 68.0697C106.944 68.0697 106.481 69.5923 106.481 70.784Z" fill="#211D51"/>
<path d="M118.927 69.8571H118.662C118.463 68.7979 117.801 68.0697 116.676 68.0697C115.153 68.0697 114.359 69.4599 114.359 70.8502C114.359 72.1742 115.22 73.7631 116.742 73.7631C118 73.7631 118.596 72.77 119.059 71.777L119.324 71.8432L118.728 73.7631C118.066 74.0279 117.404 74.1603 116.676 74.1603C114.69 74.1603 112.902 73.101 112.902 70.9826C112.902 68.7979 114.756 67.6063 116.742 67.6063C117.47 67.6063 118.265 67.7387 118.927 68.0697V69.8571Z" fill="#211D51"/>
<path d="M122.105 71.9756C122.105 73.6307 122.237 73.5644 123.296 73.7631V74.0279H119.655V73.7631C120.714 73.5644 120.847 73.6307 120.847 71.9756V69.7909C120.847 68.1359 120.714 68.2021 119.655 68.0035V67.7387H123.296V68.0035C122.237 68.2021 122.105 68.1359 122.105 69.7909V71.9756Z" fill="#211D51"/>
<path d="M125.613 71.5784L125.481 72.0418C124.951 73.6307 125.282 73.6307 126.275 73.7631V74.0279H123.429V73.7631C123.892 73.6307 124.157 73.5644 124.355 73.101L124.951 71.7108L126.408 68.4007L126.341 68.1359C126.672 68.0035 127.003 67.7387 127.202 67.4077H127.401L129.122 71.8432C129.718 73.3658 129.652 73.432 130.578 73.7631V74.0279H127.467V73.7631C128.328 73.6307 128.394 73.432 127.93 72.1742L127.732 71.5784H125.613ZM127.401 70.9826L126.54 68.8641L125.746 70.9826H127.401Z" fill="#211D51"/>
<path d="M129.916 69.5261L130.115 67.4739H130.314C130.38 67.6725 130.512 67.7387 130.645 67.7387C130.777 67.7387 130.976 67.7387 131.108 67.7387H134.948C135.279 67.7387 135.61 67.8049 135.742 67.4739H135.941L136.139 69.5261L135.875 69.5923C135.477 68.2683 134.815 68.1359 133.557 68.1359V71.9094C133.557 73.5645 133.69 73.4982 134.948 73.6969V73.9617H130.976V73.6969C132.233 73.4982 132.366 73.5645 132.366 71.9094V68.1359C131.108 68.1359 130.446 68.2683 130.049 69.5923L129.916 69.5261Z" fill="#211D51"/>
<path d="M139.052 71.9756C139.052 73.6307 139.185 73.5644 140.244 73.7631V74.0279H136.603V73.7631C137.662 73.5644 137.794 73.6307 137.794 71.9756V69.7909C137.794 68.1359 137.662 68.2021 136.603 68.0035V67.7387H140.244V68.0035C139.185 68.2021 139.052 68.1359 139.052 69.7909V71.9756Z" fill="#211D51"/>
<path d="M147.923 70.8502C147.923 72.9024 146.401 74.1603 144.348 74.1603C142.362 74.1603 140.84 72.9024 140.84 70.9164C140.84 68.9303 142.362 67.6063 144.348 67.6063C146.334 67.6063 147.923 68.7317 147.923 70.8502ZM142.362 70.784C142.362 72.0418 142.958 73.7631 144.481 73.7631C145.937 73.7631 146.401 72.3066 146.401 71.115C146.401 69.7909 145.805 68.0697 144.216 68.0697C142.892 68.0697 142.362 69.5923 142.362 70.784Z" fill="#211D51"/>
<path d="M149.711 69.8571C149.711 68.9303 149.711 68.2683 148.519 68.0697V67.8049H150.638C151.763 69.3275 153.352 70.8502 154.676 72.3728L154.61 69.4599C154.61 68.4007 154.345 68.2683 153.219 68.0697V67.8049H156V68.0697C155.206 68.1359 155.139 68.5331 155.139 69.9895V74.0279L154.742 74.2265C153.815 73.101 151.697 70.9164 150.174 69.3275C150.174 70.3205 150.174 71.3136 150.24 72.3066C150.307 73.432 150.505 73.4982 151.564 73.7631V74.0279H148.585V73.7631C149.247 73.6307 149.711 73.6969 149.711 72.439V69.8571Z" fill="#211D51"/>
<path d="M4 68.2683L4.26481 65.6202H4.52962C4.66202 65.8188 4.79443 65.9512 4.99303 65.9512C5.19164 66.0174 5.39024 65.9512 5.58885 65.9512H10.6202C11.0174 65.9512 11.4808 66.0174 11.6794 65.554H11.9443L12.2091 68.2021L11.878 68.2683C11.4146 66.6132 10.554 66.4146 8.89895 66.4146V71.3136C8.89895 73.432 9.03136 73.3658 10.6864 73.6307V73.9617H5.52265V73.6307C7.1115 73.3658 7.3101 73.4982 7.3101 71.3136V66.4146C5.65505 66.4146 4.79443 66.6132 4.33101 68.2683H4Z" fill="#211D51"/>
<path d="M15.0557 71.9756C15.0557 73.2334 14.9895 73.6307 16.2474 73.7631V74.0279H12.6063V73.7631C13.6655 73.5644 13.7979 73.6307 13.7979 71.9756V69.7909C13.7979 68.1359 13.6655 68.2021 12.6063 68.0035V67.7387H16.2474V68.0035C14.9895 68.1359 15.0557 68.5331 15.0557 69.7909V70.453H18.3659V69.7909C18.3659 68.5331 18.4321 68.1359 17.1742 68.0035V67.7387H20.8153V68.0035C19.7561 68.2021 19.6237 68.1359 19.6237 69.7909V71.9756C19.6237 73.6307 19.7561 73.5644 20.8153 73.7631V74.0279H17.1742V73.7631C18.4321 73.6307 18.3659 73.2334 18.3659 71.9756V70.9826H15.0557V71.9756Z" fill="#211D51"/>
<path d="M23.662 72.2404C23.662 73.1672 23.662 73.6307 24.9199 73.6307C26.1115 73.6307 26.6411 72.9686 26.9059 71.9094H27.1707C27.1707 72.6376 27.0383 73.2996 26.8397 74.0279H21.2125V73.7631C22.2718 73.5644 22.4042 73.6307 22.4042 71.9756V69.7909C22.4042 68.1359 22.2718 68.2021 21.2125 68.0035V67.7387H26.6411L26.4425 69.3275H26.1777C26.1115 68.1359 25.3171 68.1359 24.324 68.1359H23.662V70.453H24.4564C25.2509 70.453 25.6481 70.3868 25.9129 69.5261H26.1777C26.1115 70.3205 26.1115 71.0488 26.1115 71.8432H25.8467C25.6481 70.9164 25.2509 70.9826 24.4564 70.9826H23.662V72.2404Z" fill="#211D51"/>
<path d="M39.1533 67.4739L36.3728 74.0941H36.0418L33.3275 67.7387L33.0627 72.3728C32.9965 73.432 33.5261 73.432 34.453 73.6969V74.0279H30.878V73.6969C31.7387 73.432 32.0035 73.432 32.1359 72.439L32.4669 69.9233L32.7979 67.3415C32.8641 66.4808 32.2683 66.4808 31.5401 66.2822V65.9512H34.6516V66.216C34.3206 66.6132 34.8502 67.5401 34.9826 67.9373L36.6376 71.777L38.5575 67.3415C38.6899 67.0104 38.9547 66.547 38.6237 66.216V65.9512H42V66.2822C40.8084 66.547 40.6098 66.7456 40.676 67.8711L40.8746 71.7108C40.9408 73.0348 40.9408 73.432 42.3972 73.6969V74.0279H37.8293V73.6969C39.4181 73.4982 39.3519 73.101 39.2857 71.6446L39.1533 67.4739Z" fill="#211D51"/>
<path d="M46.3031 71.9756C46.3031 73.2334 46.2369 73.6307 47.6272 73.7631V74.0279H43.7875V73.7631C44.9791 73.5644 45.1115 73.6307 45.1115 71.9756V71.5784L44.1185 69.5261C43.7213 68.6655 43.5888 68.2683 42.5958 68.0697V67.8049H45.7073V68.0697C45.0453 68.2021 44.7805 68.1359 45.3101 69.2613L46.1045 70.9164L46.5679 69.9233C47.3624 68.3345 47.1638 68.2683 46.3693 68.0697V67.8049H49.0174V68.0697C48.223 68.2021 47.892 68.4007 47.4948 69.1289L46.4355 71.0488L46.3031 71.3798V71.9756Z" fill="#211D51"/>
<path d="M56.3658 70.8502C56.3658 72.9024 54.8432 74.1603 52.7909 74.1603C50.8049 74.1603 49.2822 72.9024 49.2822 70.9164C49.2822 68.9303 50.8049 67.6063 52.7909 67.6063C54.7108 67.6063 56.3658 68.7317 56.3658 70.8502ZM50.8049 70.784C50.8049 72.0418 51.4007 73.7631 52.9233 73.7631C54.3798 73.7631 54.8432 72.3066 54.8432 71.115C54.8432 69.7909 54.2474 68.0697 52.6585 68.0697C51.2683 68.0697 50.8049 69.5923 50.8049 70.784Z" fill="#211D51"/>
<path d="M61.331 69.6585H61.0662C60.8676 68.9303 60.669 68.0697 59.7422 68.0697C59.2125 68.0697 58.8153 68.4669 58.8153 68.9965C58.8153 70.453 61.7944 70.3867 61.7944 72.3066C61.7944 73.6307 60.5366 74.1603 59.3449 74.1603C58.6829 74.1603 58.0871 73.9617 57.4913 73.6969L57.1603 71.9094L57.4251 71.8432C57.7561 72.77 58.4181 73.7631 59.4774 73.7631C60.0732 73.7631 60.5366 73.3658 60.5366 72.77C60.5366 71.2474 57.5575 71.3798 57.5575 69.5261C57.5575 68.3345 58.7491 67.6063 59.8084 67.6063C60.338 67.6063 60.8676 67.7387 61.331 68.0035V69.6585Z" fill="#211D51"/>
<path d="M64.7735 71.9756C64.7735 73.6307 64.9059 73.5644 65.9652 73.7631V74.0279H62.324V73.7631C63.3833 73.5644 63.5157 73.6307 63.5157 71.9756V69.7909C63.5157 68.1359 63.3833 68.2021 62.324 68.0035V67.7387H65.9652V68.0035C64.9059 68.2021 64.7735 68.1359 64.7735 69.7909V71.9756Z" fill="#211D51"/>
<path d="M66.3624 69.5261L66.561 67.4739H66.7596C66.8258 67.6725 66.9582 67.7387 67.0906 67.7387C67.223 67.7387 67.4216 67.7387 67.554 67.7387H71.3937C71.7247 67.7387 72.0557 67.8049 72.1881 67.4739H72.3868L72.5854 69.5261L72.3205 69.5923C71.9233 68.2683 71.2613 68.1359 70.0035 68.1359V71.9094C70.0035 73.5645 70.1359 73.4982 71.3937 73.6969V73.9617H67.4216V73.6969C68.6794 73.4982 68.8118 73.5645 68.8118 71.9094V68.1359C67.554 68.1359 66.892 68.2683 66.4948 69.5923L66.3624 69.5261Z" fill="#211D51"/>
<path d="M75.4983 71.9756C75.4983 73.6307 75.6307 73.5644 76.6899 73.7631V74.0279H73.0488V73.7631C74.108 73.5644 74.2404 73.6307 74.2404 71.9756V69.7909C74.2404 68.1359 74.108 68.2021 73.0488 68.0035V67.7387H76.6899V68.0035C75.6307 68.2021 75.4983 68.1359 75.4983 69.7909V71.9756Z" fill="#211D51"/>
<path d="M81.4564 69.6585H81.1916C80.993 68.9303 80.7944 68.0697 79.8676 68.0697C79.338 68.0697 78.9408 68.4669 78.9408 68.9965C78.9408 70.453 81.9199 70.3867 81.9199 72.3066C81.9199 73.6307 80.662 74.1603 79.4704 74.1603C78.8084 74.1603 78.2125 73.9617 77.6167 73.6969L77.2857 71.9094L77.5505 71.8432C77.8815 72.77 78.5435 73.7631 79.6028 73.7631C80.1986 73.7631 80.662 73.3658 80.662 72.77C80.662 71.2474 77.6829 71.3798 77.6829 69.5261C77.6829 68.3345 78.8746 67.6063 79.9338 67.6063C80.4634 67.6063 80.993 67.7387 81.4564 68.0035V69.6585Z" fill="#211D51"/>
<path d="M87.7456 70.8502L87.547 71.446C86.8188 73.4982 87.3484 73.4982 88.6063 73.6969V74.0279H84.8989V73.6969C85.561 73.4982 85.8258 73.4983 86.0906 72.8362L86.885 71.0488L88.7387 66.7456L88.6063 66.4146C89.0697 66.216 89.4669 65.885 89.7317 65.4878H89.9303L92.115 71.2474C92.9094 73.1672 92.777 73.2996 94.0348 73.6969V74.0279H89.9965V73.6969C91.1219 73.4982 91.1881 73.2996 90.5923 71.5784L90.3275 70.8502H87.7456ZM90.0627 70.1219L89.0035 67.4077L88.0104 70.1219H90.0627Z" fill="#211D51"/>
<path d="M98.4042 69.6585H98.1394C97.9408 68.9303 97.7421 68.0697 96.8153 68.0697C96.2857 68.0697 95.8885 68.4669 95.8885 68.9965C95.8885 70.453 98.8676 70.3867 98.8676 72.3066C98.8676 73.6307 97.6098 74.1603 96.4181 74.1603C95.7561 74.1603 95.1603 73.9617 94.5645 73.6969L94.2334 71.9094L94.4983 71.8432C94.8293 72.77 95.4913 73.7631 96.5505 73.7631C97.1463 73.7631 97.6097 73.3658 97.6097 72.77C97.6097 71.2474 94.6307 71.3798 94.6307 69.5261C94.6307 68.3345 95.8223 67.6063 96.8815 67.6063C97.4111 67.6063 97.9408 67.7387 98.4042 68.0035V69.6585Z" fill="#211D51"/>
<path d="M103.767 69.6585H103.502C103.303 68.9303 103.105 68.0697 102.178 68.0697C101.648 68.0697 101.251 68.4669 101.251 68.9965C101.251 70.453 104.23 70.3867 104.23 72.3066C104.23 73.6307 102.972 74.1603 101.78 74.1603C101.118 74.1603 100.523 73.9617 99.9268 73.6969L99.5958 71.9094L99.8606 71.8432C100.192 72.77 100.854 73.7631 101.913 73.7631C102.509 73.7631 102.972 73.3658 102.972 72.77C102.972 71.2474 99.993 71.3798 99.993 69.5261C99.993 68.3345 101.185 67.6063 102.244 67.6063C102.774 67.6063 103.303 67.7387 103.767 68.0035V69.6585Z" fill="#211D51"/>
<path d="M112.042 70.8502C112.042 72.9024 110.519 74.1603 108.467 74.1603C106.481 74.1603 104.958 72.9024 104.958 70.9164C104.958 68.9303 106.481 67.6063 108.467 67.6063C110.387 67.6063 112.042 68.7317 112.042 70.8502ZM106.481 70.784C106.481 72.0418 107.077 73.7631 108.599 73.7631C110.056 73.7631 110.519 72.3066 110.519 71.115C110.519 69.7909 109.923 68.0697 108.334 68.0697C106.944 68.0697 106.481 69.5923 106.481 70.784Z" fill="#211D51"/>
<path d="M118.927 69.8571H118.662C118.463 68.7979 117.801 68.0697 116.676 68.0697C115.153 68.0697 114.359 69.4599 114.359 70.8502C114.359 72.1742 115.22 73.7631 116.742 73.7631C118 73.7631 118.596 72.77 119.059 71.777L119.324 71.8432L118.728 73.7631C118.066 74.0279 117.404 74.1603 116.676 74.1603C114.69 74.1603 112.902 73.101 112.902 70.9826C112.902 68.7979 114.756 67.6063 116.742 67.6063C117.47 67.6063 118.265 67.7387 118.927 68.0697V69.8571Z" fill="#211D51"/>
<path d="M122.105 71.9756C122.105 73.6307 122.237 73.5644 123.296 73.7631V74.0279H119.655V73.7631C120.714 73.5644 120.847 73.6307 120.847 71.9756V69.7909C120.847 68.1359 120.714 68.2021 119.655 68.0035V67.7387H123.296V68.0035C122.237 68.2021 122.105 68.1359 122.105 69.7909V71.9756Z" fill="#211D51"/>
<path d="M125.613 71.5784L125.481 72.0418C124.951 73.6307 125.282 73.6307 126.275 73.7631V74.0279H123.429V73.7631C123.892 73.6307 124.157 73.5644 124.355 73.101L124.951 71.7108L126.408 68.4007L126.341 68.1359C126.672 68.0035 127.003 67.7387 127.202 67.4077H127.401L129.122 71.8432C129.718 73.3658 129.652 73.432 130.578 73.7631V74.0279H127.467V73.7631C128.328 73.6307 128.394 73.432 127.93 72.1742L127.732 71.5784H125.613ZM127.401 70.9826L126.54 68.8641L125.746 70.9826H127.401Z" fill="#211D51"/>
<path d="M129.916 69.5261L130.115 67.4739H130.314C130.38 67.6725 130.512 67.7387 130.645 67.7387C130.777 67.7387 130.976 67.7387 131.108 67.7387H134.948C135.279 67.7387 135.61 67.8049 135.742 67.4739H135.941L136.139 69.5261L135.875 69.5923C135.477 68.2683 134.815 68.1359 133.557 68.1359V71.9094C133.557 73.5645 133.69 73.4982 134.948 73.6969V73.9617H130.976V73.6969C132.233 73.4982 132.366 73.5645 132.366 71.9094V68.1359C131.108 68.1359 130.446 68.2683 130.049 69.5923L129.916 69.5261Z" fill="#211D51"/>
<path d="M139.052 71.9756C139.052 73.6307 139.185 73.5644 140.244 73.7631V74.0279H136.603V73.7631C137.662 73.5644 137.794 73.6307 137.794 71.9756V69.7909C137.794 68.1359 137.662 68.2021 136.603 68.0035V67.7387H140.244V68.0035C139.185 68.2021 139.052 68.1359 139.052 69.7909V71.9756Z" fill="#211D51"/>
<path d="M147.923 70.8502C147.923 72.9024 146.401 74.1603 144.348 74.1603C142.362 74.1603 140.84 72.9024 140.84 70.9164C140.84 68.9303 142.362 67.6063 144.348 67.6063C146.334 67.6063 147.923 68.7317 147.923 70.8502ZM142.362 70.784C142.362 72.0418 142.958 73.7631 144.481 73.7631C145.937 73.7631 146.401 72.3066 146.401 71.115C146.401 69.7909 145.805 68.0697 144.216 68.0697C142.892 68.0697 142.362 69.5923 142.362 70.784Z" fill="#211D51"/>
<path d="M149.711 69.8571C149.711 68.9303 149.711 68.2683 148.519 68.0697V67.8049H150.638C151.763 69.3275 153.352 70.8502 154.676 72.3728L154.61 69.4599C154.61 68.4007 154.345 68.2683 153.219 68.0697V67.8049H156V68.0697C155.206 68.1359 155.139 68.5331 155.139 69.9895V74.0279L154.742 74.2265C153.815 73.101 151.697 70.9164 150.174 69.3275C150.174 70.3205 150.174 71.3136 150.24 72.3066C150.307 73.432 150.505 73.4982 151.564 73.7631V74.0279H148.585V73.7631C149.247 73.6307 149.711 73.6969 149.711 72.439V69.8571Z" fill="#211D51"/>
<path d="M60.6687 17.9547L59.4108 38.8746C58.7488 46.8851 58.7488 48.1429 52.6582 49.1359V49.9966H71.5258V49.1359C67.0903 48.4739 64.3098 47.9443 64.5746 42.8467L65.7 20.8676L60.6687 17.9547Z" fill="#211D51"/>
<path d="M99.4631 17.9547L100.721 38.8746C101.383 46.8851 101.383 48.1429 107.474 49.1359V49.9966H88.5397V49.1359C92.9753 48.4739 95.7558 47.9443 95.491 42.8467L94.3655 20.8676L99.4631 17.9547Z" fill="#211D51"/>
<path d="M80.0659 16.2335C82.9543 16.2335 85.2958 13.892 85.2958 11.0035C85.2958 8.11509 82.9543 5.77356 80.0659 5.77356C77.1774 5.77356 74.8359 8.11509 74.8359 11.0035C74.8359 13.892 77.1774 16.2335 80.0659 16.2335Z" fill="#211D51"/>
<path d="M106.68 8.68645L106.415 8.81885C100.523 11.6655 88.4078 17.8885 80.0663 25.0384C71.791 17.8885 59.6099 11.6655 53.7179 8.81885L53.4531 8.68645C52.791 8.35544 51.9966 8.62025 51.6656 9.28227C51.5994 9.48087 51.5332 9.67948 51.5332 9.87809C51.5332 10.3415 51.798 10.8049 52.2614 11.0697L52.5262 11.2021C57.028 13.3868 69.6064 19.7422 78.014 26.892C76.1604 28.6795 74.5715 30.5331 73.3799 32.3868C72.4531 33.9094 71.9234 35.6969 71.9234 37.4844C71.9234 42.1185 75.1011 45.9582 79.2057 46.4878L79.8677 46.554L80.5959 46.4878C84.7667 45.9582 87.9444 42.1185 87.9444 37.4844C87.9444 35.6307 87.4147 33.8432 86.4879 32.3868C85.3625 30.5331 83.7074 28.6795 81.8538 26.892C90.2614 19.7422 102.84 13.3868 107.342 11.2021L107.606 11.0697C108.07 10.8711 108.335 10.4077 108.335 9.87809C108.335 9.67948 108.268 9.48087 108.202 9.28227C108.07 8.62025 107.275 8.35544 106.68 8.68645ZM79.6691 43.8398C76.8224 43.5087 74.6377 40.7283 74.6377 37.4844C74.6377 36.1603 74.9687 34.8363 75.697 33.777C76.7562 32.0558 78.2788 30.3345 80.0663 28.6795C81.8538 30.4007 83.3764 32.122 84.4356 33.777C85.0977 34.9025 85.4949 36.1603 85.4949 37.4844C85.4949 40.7945 83.3102 43.5087 80.4635 43.8398L80.0663 43.906L79.6691 43.8398Z" fill="#939408"/>
</svg>
