<svg width="176" height="48" viewBox="0 0 176 48" fill="none" xmlns="http://www.w3.org/2000/svg">
<path fill-rule="evenodd" clip-rule="evenodd" d="M26.457 44C37.5028 44 46.457 35.0457 46.457 23.9999C46.457 12.9543 37.5028 4 26.457 4C15.4113 4 6.45703 12.9543 6.45703 23.9999C6.45703 35.0457 15.4113 44 26.457 44Z" fill="#FF5036"/>
<path fill-rule="evenodd" clip-rule="evenodd" d="M26.4489 22.637C26.4489 22.637 26.1914 22.2116 25.6291 21.4814C25.0668 20.751 24.1998 19.716 22.9805 18.4968C21.6276 17.1439 19.8552 16.4665 18.0822 16.4644C16.3091 16.4624 14.5353 17.1356 13.1799 18.4844C11.8578 19.7999 11.1906 21.5277 11.1685 23.2708C11.1464 25.0138 11.7692 26.7722 13.0272 28.1491C16.6317 32.0937 21.5402 34.066 26.4489 34.066C31.3577 34.066 36.2662 32.0937 39.8706 28.1491H39.8707C41.1287 26.7722 41.7515 25.0138 41.7294 23.2708C41.7073 21.5277 41.0401 19.8001 39.718 18.4844C38.3625 17.1356 36.5888 16.4624 34.8157 16.4644C33.0427 16.4665 31.2701 17.1439 29.9174 18.4968C28.6981 19.716 27.8309 20.751 27.2686 21.4814C26.7064 22.2116 26.4489 22.637 26.4489 22.637Z" fill="white"/>
<path fill-rule="evenodd" clip-rule="evenodd" d="M15.2363 23.4032C15.2363 24.9133 16.4605 26.1376 17.9706 26.1376C19.4807 26.1376 20.705 24.9133 20.705 23.4032C20.705 21.8931 19.4807 20.6689 17.9706 20.6689C16.4605 20.6689 15.2363 21.8931 15.2363 23.4032Z" fill="black"/>
<path fill-rule="evenodd" clip-rule="evenodd" d="M26.4484 22.637C24.3342 24.7512 24.3342 28.1789 26.4484 30.2931C28.5627 28.1789 28.5627 24.7512 26.4484 22.637Z" fill="black"/>
<path fill-rule="evenodd" clip-rule="evenodd" d="M37.671 23.4032C37.671 24.9133 36.4469 26.1376 34.9367 26.1376C33.4266 26.1376 32.2023 24.9133 32.2023 23.4032C32.2023 21.8931 33.4266 20.6689 34.9367 20.6689C36.4469 20.6689 37.671 21.8931 37.671 23.4032Z" fill="black"/>
<path fill-rule="evenodd" clip-rule="evenodd" d="M119.739 17.6377H109.564C109.385 17.6377 109.24 17.7828 109.24 17.9616V19.7203C109.24 19.8992 109.385 20.0442 109.564 20.0442H115.897L108.347 32.1823C108.213 32.398 108.368 32.6774 108.622 32.6774H119.696C119.875 32.6774 120.02 32.5324 120.02 32.3535V30.5862C120.02 30.4074 119.875 30.2623 119.696 30.2623H112.523L120.015 18.1318C120.148 17.9159 119.993 17.6377 119.739 17.6377Z" fill="#FF5036"/>
<path fill-rule="evenodd" clip-rule="evenodd" d="M74.04 23.1129C74.2021 21.2488 76.2285 19.7897 78.5519 19.7897C80.6902 19.7897 82.7794 20.7233 83.1095 23.1526C83.1359 23.346 82.9825 23.5183 82.7874 23.5183H80.7636C80.6214 23.5183 80.491 23.4269 80.4539 23.2898C80.2429 22.5069 79.4515 22.1672 78.6599 22.1672C77.9576 22.1672 77.1471 22.4376 76.8769 22.87C76.6607 23.2209 76.6337 23.6264 76.7689 24.0044C76.931 24.4911 77.6332 24.7881 78.3088 24.977L80.2541 25.4637C82.983 26.139 83.5505 27.8681 83.5505 29.1382C83.5505 31.5694 81.4159 32.9476 78.5249 32.9476C76.282 32.9476 73.9649 31.5942 73.7108 29.1696C73.6909 28.9795 73.8431 28.814 74.0343 28.814H75.9867C76.1386 28.814 76.2658 28.9205 76.3028 29.0679C76.5378 30.0073 77.3997 30.624 78.7411 30.624C80.0109 30.624 80.9837 30.0564 80.9837 29.111C80.9837 28.3004 80.1461 27.8412 79.2274 27.6251L77.5252 27.2196C74.8505 26.4901 73.8779 25.1395 74.04 23.1129Z" fill="#FF5036"/>
<path fill-rule="evenodd" clip-rule="evenodd" d="M95.0779 25.3284C94.8078 23.3559 93.3757 22.2214 91.4847 22.2214C89.5393 22.2214 88.0263 23.3832 87.7561 25.3284H95.0779ZM97.4748 27.3547H87.7561C88.0263 29.2999 89.5934 30.5159 91.6198 30.5159C92.928 30.5159 94.2127 29.9537 94.9069 28.9383C94.9963 28.8074 95.1646 28.7584 95.3092 28.8235C95.8468 29.0661 96.442 29.3197 96.9976 29.5629C97.1748 29.6405 97.2462 29.856 97.1484 30.0232C95.9819 32.0191 93.7453 32.9475 91.4847 32.9475C87.8912 32.9475 85.0004 30.327 85.0004 26.3283C85.0004 22.3296 87.8912 19.7896 91.4847 19.7896C95.0779 19.7896 97.8068 22.3296 97.8068 26.3283C97.8068 26.5283 97.8068 26.8018 97.7986 27.0415C97.7926 27.2162 97.6496 27.3547 97.4748 27.3547Z" fill="#FF5036"/>
<path fill-rule="evenodd" clip-rule="evenodd" d="M131.158 26.3245C131.158 23.8426 129.312 22.2557 127.061 22.2557C124.839 22.2557 122.992 23.8426 122.992 26.3245C122.992 28.8639 124.839 30.5086 127.061 30.5086C129.312 30.5086 131.158 28.8639 131.158 26.3245ZM120.496 26.3282C120.496 22.3295 123.495 19.7896 127.062 19.7896C130.655 19.7896 133.681 22.3295 133.681 26.3282C133.681 30.3269 130.655 32.9475 127.062 32.9475C123.495 32.9475 120.496 30.3269 120.496 26.3282Z" fill="#FF5036"/>
<path fill-rule="evenodd" clip-rule="evenodd" d="M145.637 26.3245C145.637 23.8426 143.79 22.2557 141.539 22.2557C139.317 22.2557 137.47 23.8426 137.47 26.3245C137.47 28.8639 139.317 30.5086 141.539 30.5086C143.79 30.5086 145.637 28.8639 145.637 26.3245ZM134.975 26.3282C134.975 22.3295 137.974 19.7896 141.54 19.7896C145.134 19.7896 148.16 22.3295 148.16 26.3282C148.16 30.3269 145.134 32.9475 141.54 32.9475C137.974 32.9475 134.975 30.3269 134.975 26.3282Z" fill="#FF5036"/>
<path fill-rule="evenodd" clip-rule="evenodd" d="M163.811 19.7901C162.137 19.8118 160.639 20.5611 159.617 21.7352C158.594 20.5611 157.097 19.8118 155.422 19.7901C152.269 19.7493 149.688 22.4008 149.688 25.5548V32.3535C149.688 32.5324 149.833 32.6774 150.011 32.6774H152.147C152.325 32.6774 152.47 32.5324 152.47 32.3535V25.5253C152.47 23.9125 153.79 22.5428 155.403 22.5729C156.966 22.6022 158.225 23.8792 158.225 25.4498V32.3535C158.225 32.5324 158.37 32.6774 158.549 32.6774H160.684C160.863 32.6774 161.008 32.5324 161.008 32.3535V25.5253C161.008 23.9125 162.328 22.5428 163.941 22.5729C165.504 22.6022 166.763 23.8792 166.763 25.4498V32.3535C166.763 32.5324 166.908 32.6774 167.087 32.6774H169.222C169.401 32.6774 169.546 32.5324 169.546 32.3535V25.5548C169.546 22.4008 166.965 19.7493 163.811 19.7901Z" fill="#FF5036"/>
<path fill-rule="evenodd" clip-rule="evenodd" d="M107.269 19.7963C105.685 19.7243 103.923 20.2117 102.889 22.1275V20.3839C102.889 20.2051 102.744 20.06 102.565 20.06H100.43C100.251 20.06 100.106 20.2051 100.106 20.3839V32.3534C100.106 32.5324 100.251 32.6773 100.43 32.6773H102.565C102.744 32.6773 102.889 32.5324 102.889 32.3534V27.7225C102.889 23.8503 105.004 22.2645 107.269 22.1727C107.442 22.1657 107.578 22.0234 107.578 21.8503V20.1207C107.578 19.9476 107.442 19.8043 107.269 19.7963Z" fill="#FF5036"/>
<path fill-rule="evenodd" clip-rule="evenodd" d="M69.2601 17.6377H71.42C71.5988 17.6377 71.7439 17.7828 71.7439 17.9616V26.7242C71.7439 30.3271 69.287 32.9475 65.4266 32.9475C61.5661 32.9475 59.1094 30.3271 59.1094 26.7242V17.9616C59.1094 17.7828 59.2545 17.6377 59.4333 17.6377H61.5931C61.772 17.6377 61.917 17.7828 61.917 17.9616V26.7148C61.917 28.6463 63.4537 30.2646 65.3848 30.2803C67.7285 30.2992 68.9363 28.7269 68.9363 26.3732V17.9616C68.9363 17.7828 69.0812 17.6377 69.2601 17.6377Z" fill="#FF5036"/>
</svg>
