<svg width="224" height="48" viewBox="0 0 224 48" fill="none" xmlns="http://www.w3.org/2000/svg">
<path d="M83.8652 17.1041C85.8379 17.1041 88.037 17.847 89.1044 19.6235H89.169V17.7178H94.5375V35.6446H89.169V33.7066H89.1044C88.1341 35.5477 85.8055 36.2583 83.8652 36.2583C78.3348 36.2583 74.8421 31.9947 74.8421 26.665C74.8421 21.4324 78.4643 17.1041 83.8652 17.1041ZM135.8 17.1041C139.39 17.1041 142.333 18.9452 142.688 22.7566H137.417C137.385 21.7553 136.672 21.4 135.735 21.4C135.023 21.4 134.215 21.7876 134.215 22.5952C134.215 25.4053 143.238 23.8226 143.238 30.1535C143.238 34.1911 139.583 36.2583 135.929 36.2583C132.178 36.2583 129.041 34.2557 128.62 30.315H133.956C134.118 31.4133 134.926 31.9623 135.994 31.9623C136.803 31.9623 137.87 31.5102 137.87 30.5734C137.87 29.2814 136.414 28.8938 135.444 28.5062C134.668 28.2477 133.892 27.9894 133.115 27.6987C130.981 26.9235 128.846 25.5346 128.846 23.0151C128.846 19.2683 132.339 17.1041 135.8 17.1041ZM164.97 17.1041C166.942 17.1041 169.142 17.847 170.209 19.6235H170.274V17.7178H175.643V35.6446H170.274V33.7066H170.209C169.239 35.5477 166.91 36.2583 164.97 36.2583C159.44 36.2583 155.947 31.9947 155.947 26.665C155.947 21.4324 159.569 17.1041 164.97 17.1041ZM188.161 17.1041C192.754 17.1041 196.732 20.0757 197.67 24.6301H192.236C191.461 22.9504 190.07 22.1107 188.226 22.1107C185.639 22.1107 184.087 24.2424 184.087 26.665C184.087 29.1845 185.736 31.2195 188.355 31.2195C190.134 31.2195 191.429 30.3796 192.236 28.8292H197.702C196.667 33.2221 192.818 36.2261 188.29 36.2261C182.923 36.2261 178.685 31.9947 178.685 26.6328C178.685 21.3355 182.826 17.1041 188.161 17.1041ZM72.1708 11.7422L72.1708 26.3489C72.1699 28.6011 72.1346 31.1359 70.6832 32.9636C69.0662 34.9663 66.4788 36.0968 63.924 36.0968C62.8244 36.0968 61.6924 35.903 60.6899 35.5153C57.2941 34.288 55.8711 31.4455 55.8711 27.957H62.3716C62.4363 29.1523 62.6627 30.735 64.2151 30.735C65.9614 30.735 66.0584 29.023 66.0584 27.6987V11.7422H72.1708ZM119.346 17.1041C121.125 17.1041 122.807 17.6209 124.068 18.9129C126.106 20.9801 126.009 23.112 126.009 25.8575V35.6446H120.64L120.64 26.0191C120.631 24.0804 120.34 22.143 117.891 22.143C115.498 22.143 114.916 23.8226 114.916 25.8575V35.6446H109.547V25.8898C109.547 24.0486 109.127 22.143 106.863 22.143C104.373 22.143 103.823 24.0164 103.823 26.116V35.6446H98.4541V17.7178H103.467V19.6235H103.532C104.567 17.7824 106.442 17.1041 108.48 17.1041C110.808 17.1041 112.555 18.267 113.654 20.3018C114.948 18.267 116.921 17.1041 119.346 17.1041ZM152.359 11.7422V17.7178H154.946V21.7876H152.359V35.6446H146.99V21.7876H144.338V17.7178H146.99V11.7422H152.359ZM205.745 11.7422V24.2102H205.809L210.79 17.7178H217.161L210.403 25.5991L216.968 35.6446H210.888L205.809 27.0204H205.745V35.6446H200.377V11.7422H205.745ZM84.6413 22.1107C82.0217 22.1107 80.2106 24.1779 80.2106 26.7297C80.2106 29.2168 82.1511 31.2517 84.6737 31.2517C87.2933 31.2517 89.169 29.2492 89.169 26.665C89.169 24.0486 87.2609 22.1107 84.6413 22.1107ZM165.746 22.1107C163.127 22.1107 161.315 24.1779 161.315 26.7297C161.315 29.2168 163.256 31.2517 165.778 31.2517C168.398 31.2517 170.274 29.2492 170.274 26.665C170.274 24.0486 168.365 22.1107 165.746 22.1107Z" fill="white"/>
<path d="M26.8389 4C15.7797 4 6.83887 12.9409 6.83887 24C6.83887 35.0591 15.7797 44 26.8389 44C37.898 44 46.8389 35.0591 46.8389 24V4H26.8389Z" fill="#F0047F"/>
<path d="M25.7514 25.0878V39.6678C17.9915 39.2245 11.7452 33.0514 11.1866 25.3225L11.1714 25.0878H25.7514ZM39.9642 25.0878C39.5578 32.8477 33.8992 39.094 26.8144 39.6526L26.5993 39.6678V25.0878H39.9642ZM39.9817 10.8574V24.2399H26.5993V10.8574H39.9817Z" fill="white"/>
</svg>
