<svg width="160" height="64" viewBox="0 0 160 64" fill="none" xmlns="http://www.w3.org/2000/svg">
<path fill-rule="evenodd" clip-rule="evenodd" d="M44.7532 26.4802H36.6274V18.3697H25.6463V26.4802H17.5208V37.4399H25.6463V45.5507H36.6274V39.4094L36.2015 38.984C35.2543 38.1781 34.1492 37.5448 33.2801 37.9141C32.9297 38.0404 32.5511 38.0672 32.1864 37.9914C31.8217 37.9156 31.4851 37.7403 31.214 37.4848L24.428 30.7114L25.2089 29.9328L30.1363 34.8508C30.2311 34.944 30.3589 34.9959 30.4919 34.9952C30.6248 34.9945 30.7521 34.9412 30.8459 34.847C30.8923 34.8008 30.9291 34.7459 30.9543 34.6854C30.9794 34.6249 30.9923 34.5601 30.9923 34.4946C30.9923 34.4291 30.9794 34.3643 30.9543 34.3038C30.9291 34.2433 30.8923 34.1884 30.8459 34.1422L25.912 29.231L26.6886 28.4551L31.6164 33.3744C31.7126 33.4668 31.8413 33.5177 31.9747 33.5163C32.1081 33.5149 32.2357 33.4613 32.33 33.3668C32.3759 33.3208 32.4122 33.2662 32.4367 33.206C32.4613 33.1459 32.4737 33.0814 32.4731 33.0164C32.4725 32.9514 32.459 32.8872 32.4334 32.8275C32.4078 32.7678 32.3705 32.7137 32.3238 32.6686L27.3955 27.7495L28.173 26.9744L33.0999 31.8928C33.196 31.9854 33.3247 32.0366 33.4581 32.0353C33.5916 32.034 33.7192 31.9803 33.8135 31.8858C33.8595 31.8398 33.8958 31.785 33.9204 31.7248C33.945 31.6646 33.9574 31.6001 33.9568 31.535C33.9562 31.4699 33.9427 31.4057 33.9171 31.3459C33.8914 31.2861 33.8541 31.232 33.8073 31.1868L28.8799 26.2687L29.6561 25.4939L36.4467 32.2616C36.7029 32.5315 36.8788 32.8675 36.9547 33.2318C37.0306 33.5961 37.0035 33.9744 36.8764 34.3242C36.5068 35.1921 37.1419 36.2942 37.9493 37.2396L38.15 37.4399H44.7534L44.7532 26.4802Z" fill="#0B4684"/>
<path fill-rule="evenodd" clip-rule="evenodd" d="M31.1369 8.45952C26.4908 8.46831 21.9516 9.85405 18.0929 12.4416C14.2341 15.0292 11.2289 18.7026 9.45699 22.9975C7.6851 27.2924 7.22603 32.0161 8.1378 36.5718C9.04956 41.1275 11.2912 45.3108 14.5796 48.5929C17.8679 51.8751 22.0553 54.1089 26.6128 55.0121C31.1702 55.9153 35.893 55.4474 40.1846 53.6675C44.4762 51.8875 48.1439 48.8754 50.7242 45.0118C53.3046 41.1482 54.6818 36.6064 54.6818 31.9603C54.6688 25.7239 52.1826 19.7472 47.7686 15.3415C43.3547 10.9358 37.3733 8.46081 31.1369 8.45952ZM31.1369 59.1483C25.7617 59.1381 20.5102 57.5349 16.0458 54.5412C11.5815 51.5475 8.10473 47.2976 6.05481 42.3287C4.0049 37.3598 3.47384 31.8947 4.52875 26.6241C5.58366 21.3534 8.17719 16.5138 11.9816 12.7166C15.7861 8.91938 20.6307 6.33509 25.9033 5.29023C31.176 4.24538 36.64 4.78685 41.605 6.84624C46.57 8.90563 50.8132 12.3905 53.7984 16.8605C56.7836 21.3306 58.3768 26.5852 58.3767 31.9603C58.3617 39.1754 55.4853 46.0899 50.3786 51.1868C45.2719 56.2838 38.3519 59.147 31.1369 59.1483Z" fill="#0B4684"/>
<path fill-rule="evenodd" clip-rule="evenodd" d="M31.1366 10.8235C26.2423 10.828 21.501 12.5293 17.7203 15.6374C13.9396 18.7456 11.3535 23.0684 10.4025 27.8694C9.45146 32.6704 10.1944 37.6527 12.5047 41.9674C14.815 46.2821 18.5497 49.6624 23.0727 51.5323C27.5957 53.4023 32.6271 53.6463 37.3098 52.2228C41.9925 50.7993 46.0368 47.7963 48.7538 43.7254C51.4708 39.6545 52.6923 34.7675 52.2104 29.897C51.7284 25.0265 49.5727 20.4737 46.1106 17.0143C44.1471 15.0447 41.813 13.4835 39.2429 12.4209C36.6728 11.3584 33.9177 10.8154 31.1366 10.8235ZM31.1366 54.0367C26.7745 54.0266 22.5132 52.7241 18.891 50.2935C15.2688 47.8629 12.4482 44.4134 10.7854 40.3806C9.12264 36.3478 8.69235 31.9127 9.54888 27.6355C10.4054 23.3583 12.5103 19.4308 15.5978 16.3493C18.6852 13.2677 22.6166 11.1703 26.8955 10.3219C31.1743 9.47359 35.6086 9.91234 39.6382 11.5828C43.6678 13.2532 47.112 16.0805 49.5356 19.7073C51.9593 23.3342 53.2537 27.5979 53.2554 31.9601C53.2497 37.8207 50.9162 43.439 46.7681 47.5792C42.6201 51.7193 36.9973 54.0421 31.1366 54.0367Z" fill="#0B4684"/>
<path fill-rule="evenodd" clip-rule="evenodd" d="M45.9492 57.3096V57.7059H46.1708C46.2512 57.7141 46.3321 57.6956 46.401 57.6533C46.4224 57.6343 46.4392 57.6107 46.4501 57.5843C46.4609 57.5578 46.4656 57.5292 46.4638 57.5007C46.4645 57.4587 46.4512 57.4176 46.4262 57.3839C46.406 57.3544 46.3766 57.3325 46.3427 57.3216C46.2833 57.3113 46.223 57.3073 46.1628 57.3097L45.9492 57.3096ZM45.9492 57.9922V58.6432H45.5244V57.011H46.2583C46.4301 56.9972 46.6012 57.0451 46.7408 57.1462C46.7919 57.1906 46.8324 57.2458 46.8593 57.3079C46.8862 57.3699 46.8989 57.4372 46.8963 57.5048C46.899 57.5961 46.8725 57.6859 46.8207 57.7612C46.7689 57.8365 46.6946 57.8934 46.6084 57.9237L46.9221 58.6431H46.4536L46.1907 57.9921L45.9492 57.9922ZM47.3373 57.8284C47.3395 57.6763 47.3113 57.5252 47.2542 57.3842C47.1972 57.2431 47.1124 57.1149 47.005 57.0072C46.9026 56.8972 46.7782 56.81 46.64 56.751C46.5018 56.692 46.3528 56.6626 46.2026 56.6648C46.0508 56.6625 45.9002 56.6915 45.7602 56.7501C45.6202 56.8087 45.4938 56.8956 45.3889 57.0053C45.1729 57.2241 45.0518 57.5192 45.052 57.8268C45.0523 58.1343 45.1737 58.4293 45.3901 58.6478C45.4946 58.7558 45.6197 58.8417 45.7581 58.9004C45.8964 58.9591 46.0452 58.9894 46.1954 58.9895C46.3457 58.9896 46.4945 58.9595 46.6329 58.901C46.7714 58.8425 46.8966 58.7568 47.0013 58.6489C47.1099 58.542 47.1957 58.4142 47.2534 58.2731C47.3112 58.1321 47.3396 57.9808 47.3373 57.8284ZM46.1967 59.2281C45.8251 59.2281 45.4688 59.0805 45.2061 58.8178C44.9433 58.555 44.7957 58.1987 44.7957 57.8271C44.7957 57.4555 44.9433 57.0992 45.2061 56.8364C45.4688 56.5737 45.8251 56.4261 46.1967 56.4261C46.3826 56.4225 46.5672 56.4577 46.7387 56.5297C46.9102 56.6016 47.0647 56.7086 47.1924 56.8438C47.4521 57.1046 47.598 57.4576 47.5982 57.8257C47.5984 58.1937 47.453 58.5469 47.1936 58.808C47.0661 58.944 46.9115 59.0517 46.7398 59.124C46.5681 59.1964 46.383 59.2319 46.1967 59.2281Z" fill="#0B4684"/>
<path fill-rule="evenodd" clip-rule="evenodd" d="M67.1373 45.6117V18.3879H82.3364V22.9882H72.9638V29.2473H80.3098V33.8476H72.9638V45.6117H67.1373Z" fill="#0B4684"/>
<path fill-rule="evenodd" clip-rule="evenodd" d="M92.3822 35.2805H97.6407L95.0687 24.2701H94.992L92.3822 35.2805ZM84.8203 45.6115L91.691 18.3879H98.4847L105.164 45.6115H100.097L98.7541 39.8807H91.4222L89.9256 45.6115H84.8203Z" fill="#0B4684"/>
<path fill-rule="evenodd" clip-rule="evenodd" d="M116.026 30.2279H119.024C121.599 30.2279 123.161 29.0965 123.161 26.4572C123.161 23.8179 121.599 22.6866 119.024 22.6866H116.026V30.2279ZM123.879 45.6117L118.813 34.526H116.026V45.6117H110.2V18.3881H118.644C125.652 18.3881 128.988 21.4045 128.988 26.5327C128.988 29.9262 127.637 32.3769 124.386 33.4706L130.127 45.6117H123.879Z" fill="#0B4684"/>
<path fill-rule="evenodd" clip-rule="evenodd" d="M135.786 45.6117V18.3879H151.746V22.9882H141.613V29.2473H149.339V33.8476H141.613V41.0118H152.168V45.6117H135.786Z" fill="#0B4684"/>
<path fill-rule="evenodd" clip-rule="evenodd" d="M154.383 43.5453V43.9338H154.6C154.679 43.9418 154.759 43.9237 154.826 43.8823C154.847 43.8637 154.864 43.8405 154.874 43.8146C154.885 43.7887 154.889 43.7607 154.888 43.7328C154.888 43.6916 154.875 43.6514 154.851 43.6183C154.831 43.5892 154.802 43.5676 154.768 43.5572C154.71 43.5469 154.651 43.5429 154.592 43.5453H154.383ZM154.383 44.2147V44.8527H153.967V43.2524H154.686C154.855 43.2389 155.023 43.286 155.159 43.3854C155.21 43.4288 155.249 43.4829 155.276 43.5437C155.302 43.6045 155.314 43.6704 155.312 43.7367C155.315 43.8262 155.289 43.9143 155.238 43.9881C155.187 44.062 155.114 44.1178 155.03 44.1475L155.337 44.8527H154.878L154.62 44.2147H154.383ZM155.744 44.0541C155.746 43.9049 155.719 43.7568 155.663 43.6185C155.607 43.4801 155.524 43.3544 155.419 43.2486C155.318 43.1409 155.196 43.0554 155.061 42.9976C154.925 42.9398 154.779 42.911 154.632 42.9131C154.483 42.9108 154.335 42.9393 154.198 42.9967C154.061 43.0541 153.937 43.1392 153.834 43.2467C153.622 43.4612 153.503 43.7507 153.503 44.0522C153.504 44.3538 153.623 44.6431 153.835 44.8573C153.937 44.9632 154.06 45.0474 154.196 45.1049C154.331 45.1625 154.477 45.1922 154.624 45.1924C154.772 45.1925 154.918 45.1631 155.053 45.1058C155.189 45.0485 155.312 44.9645 155.415 44.8588C155.521 44.7539 155.605 44.6285 155.662 44.4902C155.718 44.3519 155.746 44.2035 155.744 44.0541ZM154.626 45.4265C154.445 45.4274 154.265 45.3926 154.098 45.324C153.93 45.2553 153.778 45.1543 153.65 45.0266C153.521 44.8989 153.419 44.7472 153.35 44.58C153.28 44.4128 153.245 44.2336 153.245 44.0526C153.245 43.8715 153.28 43.6923 153.35 43.5251C153.419 43.358 153.521 43.2062 153.65 43.0785C153.778 42.9508 153.93 42.8498 154.098 42.7812C154.265 42.7126 154.445 42.6777 154.626 42.6787C154.808 42.6752 154.989 42.7098 155.158 42.7804C155.326 42.8511 155.477 42.9561 155.603 43.0887C155.857 43.3446 156 43.6908 156 44.0516C156 44.4125 155.858 44.7587 155.603 45.0149C155.478 45.1481 155.327 45.2535 155.158 45.3244C154.99 45.3953 154.808 45.4301 154.626 45.4265Z" fill="#0B4684"/>
</svg>
