<svg width="216" height="48" viewBox="0 0 216 48" fill="none" xmlns="http://www.w3.org/2000/svg">
<path fill-rule="evenodd" clip-rule="evenodd" d="M18.4048 18.9922L6.67969 11.5224L18.4877 4L30.2862 11.5167L42.0855 4L53.8929 11.5224L42.1678 18.9921L53.8931 26.4621L42.0853 33.9846L30.2863 26.4678L18.4875 33.9846L6.67969 26.4621L18.4048 18.9922ZM30.2862 11.5281L42.0026 18.9922L30.2863 26.4563L18.57 18.9921L30.2862 11.5281Z" fill="#0061FF"/>
<path d="M30.3712 44L18.5634 36.4774L30.3712 28.9557L42.1792 36.4774L30.3712 44Z" fill="#0061FF"/>
<path fill-rule="evenodd" clip-rule="evenodd" d="M156.832 37.2292C153.456 37.2292 151.252 35.5943 150.15 32.9644L149.724 36.6961H145.104V9.33051H150.328V19.8503C151.465 17.1848 153.74 15.7276 156.974 15.7276C161.843 15.7632 165.468 19.1395 165.468 25.9631V26.5673C165.468 33.3909 162.056 37.2292 156.832 37.2292ZM155.126 32.609C158.218 32.609 160.102 30.6188 160.102 26.5673V26.0697C160.102 22.3025 158.04 20.2412 155.197 20.2412C152.247 20.2412 150.221 22.6223 150.221 26.1408V26.5673C150.221 30.4055 152.176 32.609 155.126 32.609Z" fill="black"/>
<path fill-rule="evenodd" clip-rule="evenodd" d="M167.809 26.8871C167.809 33.6397 171.541 37.2292 178.151 37.2292C184.335 37.2292 188.529 33.6397 188.529 26.8871V26.3185C188.529 19.4949 184.264 15.7277 178.151 15.7277C172.181 15.7277 167.809 19.4238 167.809 26.3185V26.8871ZM183.127 26.816C183.127 30.5477 181.243 32.5735 178.151 32.5735C175.095 32.5735 173.211 30.5122 173.211 26.816V26.3185C173.211 22.338 175.202 20.2412 178.187 20.2412C181.208 20.2412 183.127 22.4802 183.127 26.3185V26.816Z" fill="black"/>
<path d="M187.712 36.6961L195.495 26.194L188.316 16.271H194.464L198.622 22.4623L202.816 16.271H208.929L201.643 26.1585L209.32 36.6961H203.278L198.551 30.0323L193.967 36.6961H187.712Z" fill="black"/>
<path fill-rule="evenodd" clip-rule="evenodd" d="M121.83 16.271V43.6406H127.055V33.3909C128.156 35.772 130.324 37.2292 133.594 37.2292C138.427 37.2292 142.23 33.7107 142.23 26.9582V26.3896C142.23 19.4949 138.818 15.7277 133.594 15.7277C130.218 15.7277 127.943 17.4691 126.841 20.099L126.308 16.271H121.83ZM136.828 26.8516C136.828 30.6188 134.873 32.6445 131.817 32.6445C128.867 32.6445 126.948 30.37 126.948 26.7449V26.354C126.948 22.5513 128.938 20.2767 131.924 20.2767C134.731 20.2767 136.828 22.3025 136.828 26.3896V26.8516Z" fill="black"/>
<path fill-rule="evenodd" clip-rule="evenodd" d="M108.707 37.2292C102.096 37.2292 98.3293 33.6397 98.3293 26.8871V26.3185C98.3293 19.4238 102.736 15.7277 108.707 15.7277C114.82 15.7277 119.049 19.4949 119.049 26.3185V26.8871C119.049 33.6397 114.891 37.2292 108.707 37.2292ZM108.671 32.5735C111.728 32.5735 113.647 30.5477 113.647 26.816V26.3185C113.647 22.4802 111.728 20.2412 108.707 20.2412C105.722 20.2412 103.731 22.338 103.731 26.3185V26.816C103.731 30.5122 105.615 32.5735 108.671 32.5735Z" fill="black"/>
<path d="M84.1844 36.6961H89.5154V27.3136C89.5154 22.9777 90.5816 21.4495 94.9885 21.4495H97.192V16.012H95.877C92.0742 16.012 89.9774 17.6823 89.16 20.952L88.4847 16.271H84.1844V36.6961Z" fill="black"/>
<path fill-rule="evenodd" clip-rule="evenodd" d="M60.5059 36.6961V11.376H70.0752C76.2591 11.376 81.3057 14.9458 81.3057 23.0844V24.8258C81.3057 33 76.5434 36.6961 70.2173 36.6961H60.5059ZM69.7908 15.9409H65.8164V32.0404H69.9685C73.4514 32.0404 75.8326 29.7303 75.8326 24.6481V23.3331C75.8326 18.251 73.3804 15.9409 69.7908 15.9409Z" fill="black"/>
</svg>
