<svg width="248" height="48" viewBox="0 0 248 48" fill="none" xmlns="http://www.w3.org/2000/svg">
<path fill-rule="evenodd" clip-rule="evenodd" d="M12.7181 4.20171H13.018L13.5196 4.29986L14.1194 4.40073L15.7183 4.80148L17.9183 5.1995L19.1192 5.50211L20.4196 5.80063L21.8195 6.00101L23.218 6.40175L24.7188 6.60076L26.2182 7.00151L31.0177 7.89979L32.5184 8.30054L34.1187 8.60042L35.5159 8.90031L37.018 9.20019L38.4165 9.50006L39.8178 9.70044L41.0173 10.0017L42.2182 10.2007L43.2174 10.4992L44.117 10.701L44.9158 10.7991L45.6164 10.9L46.118 11.0008L46.4165 11.1003H46.6156L47.9173 11.4002L49.1168 11.6006L50.1173 11.9005L50.9161 12.0995L51.7176 12.4007L52.3174 12.6011L53.1161 13.0005L53.416 13.2009L53.9163 13.6998V13.8006L54.0185 13.9001V13.9996H58.315L58.7171 14.1005H59.1165L59.4164 14.2H59.7162L60.0161 14.3009L60.8163 14.6989L60.9158 14.9006L61.6164 15.9993L61.8168 17.2983L61.6164 18.9L61.1175 20.3994L60.5164 21.8988L59.9153 23.0997L59.4164 23.8998L59.2174 24.1997L59.017 24.3019L58.5167 24.4982L57.8161 24.7994L56.8156 25.1988L55.7156 25.6009L54.317 26.1993L52.8163 26.7991L51.1165 27.4002L49.2163 28.199L47.2153 28.8996L45.2184 29.6984L40.8183 31.5004L38.5174 32.4L36.2165 33.2015L33.9183 34.1966L31.5193 35.099L29.2184 35.8978L27.017 36.8996L24.7188 37.7011L22.6183 38.4999L18.6176 40.0988L16.8183 40.7994L15.1185 41.3992L13.6191 41.9976L12.3201 42.4978L11.2187 42.9981L10.3204 43.2994L9.61982 43.6006L9.21907 43.6987L9.1182 43.7969H60.8163L69.2157 4.00134H12.7181V4.20171Z" fill="#284E80"/>
<path fill-rule="evenodd" clip-rule="evenodd" d="M51.4177 17.1007L51.1165 17.2015L49.1168 17.5996H48.6166L48.2158 17.6991H47.8178L47.2153 17.8013L46.9168 17.9008L46.7164 18.0003L46.6156 18.2021V18.3997L46.8173 18.6001H47.2153L47.6161 18.6996H48.6166L49.2163 18.6001H49.8161L51.2174 18.3997H51.918L52.7168 18.2988L53.416 18.2021L54.0185 18.0998L54.7164 18.0003H57.4167L57.7152 18.0998L57.917 18.2021L58.116 18.5006V18.9L58.0165 19.2993L57.917 19.7996L57.7152 20.3994L57.4167 21.1L57.2163 21.8006L57.1168 22.2L57.3158 22.4004L57.5162 22.2995L57.917 21.8988L58.116 21.6002L58.4159 21.1L58.7171 20.5002L59.017 19.7996L59.3155 19.2012L59.5159 18.6001L59.6154 18.0998V17.5001L59.4164 16.9998L59.1165 16.6999L58.7171 16.4001L58.2169 16.1997L57.6157 16.1002L56.9178 15.9993H52.7168L52.6173 16.1002H52.5164L52.3174 16.1997L52.1156 16.6004L51.918 16.6999L51.7176 16.9003L51.4177 17.1007Z" fill="#284E80"/>
<path fill-rule="evenodd" clip-rule="evenodd" d="M10.8193 13.2009L4.21924 43.7969L4.52048 43.6987L5.12024 43.2994L6.11939 42.9L7.42115 42.1993L8.91919 41.5001L10.6203 40.6004L12.62 39.6994L14.5201 38.6989L16.5198 37.7993L18.4186 36.7988L20.3187 35.8978L22.118 34.9981L23.6188 34.1966L24.9178 33.5982L25.9183 33.1007L26.619 32.7994L27.6181 32.2992L28.5191 31.7989L29.6178 31.2973L30.7178 30.6989L31.7183 30.1987L32.9178 29.6984L34.0178 29.0986L35.2174 28.6011L36.4182 27.9986L42.4172 25.5001L45.1175 24.5991L45.5169 24.4982L45.9163 24.3019L46.4165 24.1997L48.2158 23.5999L50.3177 23.0001L51.017 22.8993L53.1162 22.2995L54.317 22.1005L54.7164 21.9996L55.0163 21.8988H55.3175L55.6161 21.8006L55.8164 21.6002H55.9173V21.498L55.7156 21.1L55.4157 21.0005L55.0163 20.8996H54.6169L54.0185 20.8015H53.416L52.7168 20.8996L51.5172 21.0005L50.2169 21.1995L48.817 21.498L47.3162 21.8006L45.8181 22.2L44.2179 22.7003L42.7171 23.2005L41.1182 23.6994L39.6188 24.3019L38.1167 24.7994L36.7181 25.2997L35.4191 25.7999L34.2169 26.3997L33.2177 26.7991L32.3181 27.2012L31.6174 27.6006L27.8185 15.8003H52.0175L52.1156 15.3014L51.7176 14.7998L51.1165 14.4999L50.2169 14.2L49.2163 13.9001L46.6156 13.5007L42.4172 13.2009H10.8193Z" fill="#284E80"/>
<path fill-rule="evenodd" clip-rule="evenodd" d="M243.535 24.8281H74.1162L74.3588 22.2832H243.781L243.535 24.8281Z" fill="#CA4256"/>
<path fill-rule="evenodd" clip-rule="evenodd" d="M81.8148 19.2012L80.5144 19.1004L79.2153 18.8005L78.2148 18.5006L77.3152 17.9008L76.7168 17.2016L76.316 16.2992L76.2152 15.3014L76.316 14.1005L76.8163 11.9005L77.2157 9.90084L77.6164 8.1997L77.9163 6.80116L78.1167 5.60163L78.3157 4.70199L78.4166 4.2031L78.5147 4.00272H81.8148L81.7139 4.40075L81.5149 5.40126L81.1141 6.90066L80.8143 8.60181L80.4149 10.3029L79.916 12.8015L79.8151 13.1014L79.717 13.9015V15.3028L79.916 15.8017L80.3154 16.2011L80.8143 16.5009L81.5149 16.7L82.315 16.7995L83.2147 16.7L83.9153 16.6004L84.6146 16.2992L85.1148 15.8003L85.5156 15.3014L85.9163 14.6989L86.5161 13.1L86.6142 12.2999L86.9141 11.1004L87.2167 9.60096L87.5166 8.00068L87.9146 6.49855L88.1164 5.19952L88.3154 4.29852L88.4162 4H91.7163L91.1165 6.8993L90.8166 8.40143L90.6163 8.90033V9.09933L90.5154 9.70046L90.2155 11.1999L89.5176 14.1005L89.4168 14.6989L89.1169 15.3014L88.9151 15.8003L88.6152 16.2992L88.2172 16.7995L87.4171 17.5982L86.9155 17.8995L86.3171 18.2007L85.8168 18.5006L85.2184 18.6996L84.6173 18.8005L84.0162 18.9995L82.6176 19.2012H81.8148ZM235.605 6.40177H230.906L230.107 6.60078L229.509 7.00153L229.408 7.20054L229.307 7.50179V7.90118L229.408 8.30192L229.706 8.70267L230.008 9.20157L230.907 10.1012L231.506 10.5006L232.006 10.9013L232.607 11.4016L233.605 12.4021L234.007 12.9024L234.605 14.1019L234.704 14.7003L234.605 15.4009L234.406 16.1029L234.105 16.8022L233.605 17.4019L232.904 17.9022L232.105 18.3002L231.105 18.6001L229.806 18.8005L228.406 18.9H223.308L223.906 16.5009H229.306L229.806 16.4001L230.205 16.2992L230.507 16.1002L230.808 15.6994L231.005 15.3014L230.907 14.4999L230.309 13.6998L229.308 12.901L228.308 12.0014L227.211 11.0022L226.308 9.90084L225.71 8.79945L225.612 7.50043L225.809 6.80116L226.211 6.00239L226.611 5.40262L227.311 4.90236L228.211 4.50298L229.111 4.2031L230.312 4.00272H236.11L235.605 6.40177ZM224.005 6.40177H216.508L215.605 10.3016H222.208L221.708 12.4008H215.108L214.306 16.5009H221.806L221.306 18.9H210.507L213.708 4.00136H224.509L224.005 6.40177ZM211.005 6.40177H206.407L203.708 18.9H200.409L203.108 6.40177H198.407L199.008 4.00136H211.508L211.005 6.40177ZM188.008 18.9L189.31 16.5009H194.008L192.709 7.00153L186.109 18.9H182.808L191.408 4.00136H195.307L197.608 18.9H188.008ZM187.408 6.40177H182.808L180.109 18.9H176.807L179.506 6.40177H174.811L175.409 4.00136H187.906L187.408 6.40177ZM173.109 6.40177H168.509L168.009 6.49991L167.609 6.60078L167.308 6.80116L166.909 7.19918V7.89981L167.01 8.30056L167.209 8.70131L167.608 9.20021L168.508 10.0998L169.008 10.4992L169.609 10.9L171.106 12.4008L171.508 12.901L171.907 13.5008L172.106 14.1005L172.207 14.6989V15.3996L172.005 16.1015L171.707 16.8008L171.106 17.4006L170.507 17.9008L169.61 18.2989L168.61 18.5987L167.409 18.7991L165.91 18.8986H160.91L161.407 16.4996H166.907L167.408 16.4001L167.807 16.2992L168.108 16.1002L168.407 15.6994L168.508 15.3014L168.407 14.4999L167.808 13.6998L166.909 12.901L165.911 12.0014L164.808 11.0022L163.908 9.90084L163.31 8.79945L163.209 7.50043L163.411 6.80116L163.709 6.00239L164.21 5.40262L164.91 4.90236L165.712 4.50298L166.71 4.2031L167.911 4.00272H173.709L173.109 6.40177ZM142.911 11.4002L141.409 18.9H148.11L148.909 18.8005H149.71L151.108 18.3997L151.909 18.0998L152.61 17.6991L153.811 16.9003L155.009 15.6994L156.009 14.3009L156.409 13.5008L156.71 12.702L156.909 11.801L157.01 11.4016L157.108 10.8018L157.307 9.4033L157.209 8.10292L156.908 7.00289L156.407 6.00375L155.609 5.10274L154.611 4.50298L153.309 4.10359L151.81 4.00272H144.51L142.911 11.4002ZM153.811 11.4002L153.71 11.9005L153.409 12.5003L153.21 13.0005L153.012 13.6003L152.711 13.9983L152.311 14.4999L151.51 15.3014L150.509 15.8998L150.012 16.1002L149.413 16.2992L148.21 16.4996H145.212L146.21 11.3989L147.313 6.40041H151.612L152.411 6.70028L153.012 7.09968L153.509 7.69807L153.811 8.29784L154.01 9.09661V10.6969L153.811 11.2966V11.4002ZM141.612 6.40177H134.211L133.311 10.3016H139.813L139.411 12.4008H132.814L132.012 16.5009H139.411L139.012 18.9H128.213L131.414 4.00136H142.111L141.612 6.40177ZM128.713 6.40177H124.013L121.313 18.9H118.114L120.813 6.40177H116.114L116.613 4.00136H129.114L128.713 6.40177ZM111.214 18.9H108.013L111.113 4.00136H114.412L111.214 18.9ZM104.814 18.9H100.714L97.0146 7.80167H96.9151L94.6156 18.9H91.7163L94.9155 4.00136H99.1152L102.716 15.2019L105.017 4.00136H108.016L104.814 18.9ZM77.4161 38.0978H77.0167L76.8163 37.9997H76.2165L76.0175 37.9015H75.8185L75.6181 35.801H76.4183L76.5178 35.8991H77.1189L77.9177 35.801L79.1172 35.4016L79.518 34.9995L80.1164 34.198L80.3167 33.8013V33.3992L80.4162 32.899V32.4014L80.3167 31.9993L80.1164 31.7008L79.518 31.2987H79.1172L78.7192 31.2005H76.0189L73.3186 43.7001H70.0186L73.2205 28.7988H80.3195L81.4195 28.8996L82.2196 29.3018L82.9189 29.7993L83.3196 30.4999L83.5186 31.2005L83.6195 31.9993V32.8008L83.5186 33.5014L83.2188 34.502L82.7185 35.4016L82.1187 36.2004L81.32 36.901L80.5185 37.4013L78.5174 37.9997L77.4161 38.0978ZM242.004 31.1992H234.406L233.605 35.099H240.205L239.705 37.2977H233.107L232.306 41.3979H239.806L239.305 43.6988H228.507L231.707 28.7974H242.506L242.004 31.1992ZM228.706 31.3996L228.304 31.2987H228.005L227.206 31.101L226.704 31.0002H226.206L225.804 30.8993H225.205L224.105 31.0002L223.105 31.2987L222.107 31.7008L221.208 32.4014L220.507 33.1021L219.806 34.0017L219.407 35.1017L219.007 36.2999L218.806 37.5008L218.907 38.6008L219.205 39.5004L219.607 40.2011L220.206 40.8022L221.007 41.3024L221.907 41.601L222.905 41.6991H223.503L224.104 41.601H224.604L225.605 41.4019H226.002L226.505 41.3038L226.904 41.2029L226.102 43.7028L225.703 43.801H225.203L224.803 43.9019H224.303L223.904 44H221.603L220.003 43.801L219.302 43.6033L218.601 43.3021L218.003 43.0009L217.404 42.6015L216.904 42.2021L216.404 41.6991L216.103 41.1007L215.804 40.4001L215.503 39.8017L215.402 39.0029V38.2014L215.503 37.3018L215.601 36.3012L215.902 35.4043L216.204 34.4038L217.002 32.8035L217.503 32.1029L218.704 30.902L219.404 30.4018L220.801 29.603L222.402 29.0019L223.203 28.8029L224.002 28.7047L224.901 28.6066H227.002L227.401 28.7047H227.804L228.203 28.8029H228.602L229.002 28.9037L228.706 31.3996ZM212.208 43.6988H208.907L212.107 28.7974H215.406L212.208 43.6988ZM201.606 43.6988H197.706L195.508 28.7974H198.809L200.309 40.7995L206.909 28.7974H210.109L201.606 43.6988ZM189.507 37.299L191.909 43.6988H188.306L185.608 35.6006H187.51L188.109 35.4997L188.707 35.3007L189.208 34.9995L189.607 34.701L190.006 34.2989L190.205 33.8013L190.407 33.2029L190.505 32.8008V32.4014L190.306 31.8003L190.107 31.6013L189.708 31.4023L188.707 31.2033H185.707L183.008 43.7028H179.709L182.91 28.8015H189.809L190.806 28.9024L191.709 29.1014L192.409 29.4026L192.91 29.802L193.309 30.3023L193.61 31.0029L193.708 31.8017V32.6004L193.61 33.6009L193.309 34.5033L192.91 35.3021L192.409 35.9005L191.808 36.4989L191.01 36.901L190.309 37.2023L189.507 37.299ZM180.011 31.1992H172.508L171.709 35.099H178.209L177.809 37.2977H171.209L170.41 41.3979H177.91L177.41 43.6988H166.511L169.711 28.7974H180.51L180.011 31.1992ZM166.408 31.1992H162.21L161.21 31.3982L160.81 31.4991L160.611 31.6981L160.31 31.8971L160.111 32.2965V32.7967L160.212 33.1988L160.411 33.5955L160.81 33.9976L161.21 34.4979L161.71 34.8945L162.21 35.3975L162.808 35.7969L163.309 36.2944L163.907 36.6965L164.309 37.2949L164.709 37.7952L165.108 38.3936L165.31 38.8938L165.405 39.5945V40.1929L165.208 40.9944L164.906 41.5928L163.705 42.7937L162.907 43.193L161.804 43.4943L160.606 43.6933H154.106L154.607 41.3924H160.104L160.604 41.2943L161.004 41.0925L161.305 40.8935L161.603 40.595L161.803 40.1929L161.603 39.3941L161.005 38.5926L160.105 37.6957L159.108 36.7933L158.005 35.8937L157.105 34.7937L156.507 33.5928L156.406 32.3946L156.605 31.5931L156.906 30.8925L157.407 30.2941L158.107 29.7938L158.906 29.3944L159.906 29.0932L161.107 28.8942L162.504 28.7933H166.906L166.408 31.1992ZM148.612 43.6988H138.511L141.612 28.7974H145.012L142.31 41.3979H149.109L148.612 43.6988ZM127.211 43.6988L128.51 41.3979H133.209L131.812 31.7976L125.312 43.6974H122.012L130.513 28.796H134.512L136.813 43.6974H127.211V43.6988ZM126.613 31.1992H121.913L119.213 43.6988H115.913L118.614 31.1992H114.014L114.515 28.7974H127.014L126.613 31.1992ZM112.314 31.1992H108.113L107.114 31.3982L106.814 31.4991L106.514 31.6981L106.116 32.0975L106.015 32.2965V32.7967L106.116 33.1988L106.714 33.9976L107.112 34.4979L107.613 34.8945L108.112 35.3975L108.713 35.7969L109.312 36.2944L109.811 36.6965L110.212 37.2949L110.712 37.7952L111.012 38.3936L111.213 38.8938L111.412 39.5945L111.312 40.1929L111.112 40.9944L110.812 41.5928L110.313 42.1939L109.712 42.7923L108.812 43.1917L107.714 43.4929L106.513 43.6919H100.114L100.514 41.391H106.115L106.513 41.2929L107.313 40.8908L107.512 40.5923L107.712 40.1901L107.611 39.3914L107.012 38.5899L106.113 37.693L105.012 36.7906L104.011 35.8909L103.112 34.7909L102.512 33.59L102.312 32.3919L102.512 31.5904L102.91 30.8898L103.414 30.2995L104.013 29.7993L104.813 29.3999L105.912 29.0987L107.111 28.8996L108.41 28.7988H112.812L112.314 31.1992ZM84.5151 36.2972L84.3133 37.9001L84.6146 39.998L85.2157 41.1988L85.6137 41.7972L86.5147 42.6969L87.1131 43.0963L87.7129 43.3975L88.4135 43.6988L89.2123 43.8978L90.0124 43.9959H91.7136L93.3125 43.7969L94.1112 43.5993L94.9114 43.298L95.612 42.9968L96.2118 42.5974L96.9124 42.198L97.5122 41.695L98.0111 41.0966L98.6122 40.4982L99.0102 39.7976L99.8103 38.1973L100.11 37.2977L100.309 36.2972L100.51 35.4984V33.999L100.409 33.2002L100.309 32.4996L99.7095 31.296L98.9148 30.2995L98.4132 29.9002L97.8134 29.5008L97.2136 29.1995L96.4135 28.8983L95.7129 28.6993L94.9141 28.6011H93.213L91.6141 28.7988L90.8153 28.9978L90.0151 29.3018L89.3145 29.6003L88.7161 29.9997L88.0155 30.4999L87.4157 30.8993L86.816 31.5004L86.3157 32.201L85.8154 32.7995L85.4161 33.5982L85.1162 34.3997L84.8163 35.4002L84.5151 36.2972ZM97.0133 36.2972L96.7134 37.498L96.2145 38.5981L95.7129 39.4977L95.015 40.1983L94.2148 40.7995L93.3138 41.2997L92.4142 41.5982L91.3128 41.6964L90.2114 41.5982L89.4127 41.1988L88.712 40.6986L88.2131 39.998L87.9119 39.2973L87.7129 38.2995V37.299L87.9119 36.2985L88.2131 35.1004L88.712 34.0003L89.2123 33.1007L89.9129 32.4001L90.7117 31.6994L91.6127 31.2973L92.5123 30.9988L93.6124 30.8979L94.6129 31.0997L95.5125 31.2973L96.2131 31.8984L96.712 32.4996L97.0119 33.2983L97.2123 34.1953V35.1958L97.0133 36.2972Z" fill="black"/>
</svg>
