<svg width="160" height="104" viewBox="0 0 160 104" fill="none" xmlns="http://www.w3.org/2000/svg">
<path d="M89.6887 12.9403L87.2664 22.6296C90.698 15.7664 96.2491 10.619 102.608 6.07715C97.9649 11.4264 93.7259 16.7757 91.2027 22.2258C95.5426 16.0691 101.397 12.7385 107.957 10.4171C99.1761 18.1887 92.212 26.6667 86.9636 35.0439L82.7246 33.2271C83.4311 26.4649 85.9543 19.6017 89.6887 12.9403Z" fill="#68B044"/>
<path d="M78.4864 31.4106L86.4598 34.7413C86.4598 36.7599 86.258 43.0175 87.5701 44.8342C100.893 61.9922 98.6723 96.51 84.845 97.3175C63.8517 97.3175 55.7773 83.0864 55.7773 69.9656C55.7773 57.955 70.1093 50.0826 78.6883 43.0175C81.0097 41.0999 80.606 36.8608 78.4864 31.4106Z" fill="#F5F8DE"/>
<path d="M86.459 34.6401L89.3859 36.1541C89.0831 38.0717 89.4869 42.3108 91.4045 43.3201C99.8826 48.5684 107.755 54.2204 110.884 59.9734C121.986 80.0583 103.112 98.7302 86.6608 96.9135C95.5426 90.3531 98.1668 76.8286 94.8361 61.992C93.524 56.239 91.4045 50.9907 87.6701 45.0359C86.0553 42.3108 86.6608 38.6773 86.459 34.6401Z" fill="#7E4798"/>
<path d="M77.8796 29.4927L91.1014 34.9429C89.2846 40.7968 94.533 44.9349 96.2488 45.8432C100.084 47.9627 103.718 50.1832 106.644 52.8073C112.196 57.8538 115.324 64.9189 115.324 72.2867C115.324 79.6545 111.994 86.8205 106.241 91.5642C100.892 96.0051 93.4228 97.9227 86.2568 97.9227C81.8159 97.9227 77.7787 97.7209 73.4388 96.3079C63.4468 92.9772 56.0789 84.4991 55.4733 74.3053C54.8678 66.4328 56.6845 60.377 62.8412 54.0185C65.97 50.6878 72.4295 46.8525 76.8703 43.8246C79.0908 42.4116 81.4122 38.1726 76.9713 30.1992L77.8796 29.4927ZM78.8889 31.6122C79.3936 32.3187 80.6047 35.3466 80.9075 36.2549C81.5131 38.7782 81.2103 41.2005 80.7057 42.3107C77.9806 47.3572 73.136 48.7702 69.7044 51.5962C69.0271 52.1513 68.3438 52.693 67.6648 53.2359L67.295 53.5322C61.9402 57.8332 56.9782 62.3765 57.5928 74.4062C57.9966 81.1685 63.2449 89.5456 71.2183 93.3809C72.7366 94.1232 74.3226 94.7076 75.9573 95.168C74.0063 94.3088 72.3437 93.2411 71.0164 91.7663C71.0164 91.6653 70.5118 91.2616 70.5118 91.2616C67.6858 88.0319 64.1533 82.5817 62.9421 77.4343C62.4375 75.4157 62.0337 73.8009 62.6393 71.6814C64.7518 64.15 69.1209 60.7141 73.6931 57.5706L73.9948 57.3638C74.0451 57.3293 74.0955 57.2949 74.1458 57.2606L74.5995 56.9516C74.7508 56.8487 74.9022 56.7458 75.0536 56.6429C76.1638 55.9364 77.5769 55.2299 78.6871 54.3215C80.5197 53.1263 81.5975 49.9181 82.5164 46.7331L82.6078 46.4147C82.8199 45.6724 83.0244 44.9351 83.2289 44.2286C82.6233 47.3574 81.9168 53.0094 79.1917 55.1289C78.0815 55.9364 76.8703 56.7438 75.6592 57.5512L75.2144 57.8506C70.4253 61.074 65.8024 64.2499 63.6486 71.9841C63.144 73.6999 63.5477 75.5167 63.9514 77.2325C65.1625 82.178 68.5941 87.4263 71.3192 90.5551C71.3192 90.5967 71.4048 90.6896 71.5055 90.7915L71.5938 90.8802C71.7121 90.9987 71.8239 91.1132 71.8239 91.1607C73.7758 93.4675 74.5578 94.3704 80.4773 95.8577C79.0272 95.2667 77.6382 94.5646 76.6685 93.8858C71.8239 90.5551 69.4016 86.417 68.9979 80.2603C68.6951 75.4157 71.622 70.4702 77.375 67.4423C81.3112 65.3228 82.5224 62.194 83.7335 58.3587C82.8252 62.7996 81.8159 65.4237 77.7787 67.846C72.9341 70.5711 69.5025 76.1222 69.8053 79.8566C70.209 84.3984 73.3378 89.6468 76.9713 92.7756C78.4367 94.0782 80.7559 94.9868 83.0283 95.5543C82.4339 95.0854 81.782 94.4145 81.2103 93.583C80.5038 92.5737 79.9992 91.1607 79.4945 89.8486C78.9899 88.6375 78.4852 87.2245 78.4852 86.0133C78.4852 83.0864 78.788 79.4529 80.9075 77.0306C82.8252 74.8102 83.4307 74.5074 84.2382 71.8832C83.6326 74.8102 83.2289 75.012 81.4122 77.6362C79.0908 80.8659 78.9899 84.0956 79.2926 86.1142C79.4945 87.4263 79.9992 88.6375 80.4029 89.6468C80.9075 90.9588 81.5131 92.17 82.3205 93.2802C83.027 94.0877 83.4307 94.5923 84.44 95.0969C85.5503 92.9774 86.2568 88.7384 86.3577 86.417C86.4586 84.3984 86.5596 82.0771 86.2568 79.7557C85.8531 76.6269 84.9447 73.599 84.8438 71.1767C85.3484 73.3971 86.4586 76.526 87.0642 79.5538C87.5689 81.9761 87.6698 84.2975 87.4679 86.1142C87.2661 88.2337 87.1651 89.9495 86.8623 91.7663C86.5846 93.1549 85.8824 94.4586 84.7555 95.8331C87.3098 94.2046 88.7902 91.3143 89.4865 88.0319C90.3949 83.9947 90.4958 80.1594 90.4958 78.1408C90.4958 76.7043 89.991 74.5737 89.4304 72.4476L89.331 72.0725C89.2146 71.6354 89.0969 71.2002 88.9819 70.773C88.4772 68.7544 86.5596 66.7358 86.0549 65.2219C85.1465 62.6986 85.5503 60.8819 85.4493 57.3494C85.8531 60.5791 85.8531 63.4051 86.7614 64.9191C87.4679 66.2312 88.6791 68.0479 89.3856 69.8646C90.7986 73.1953 91.5051 76.8287 91.606 78.5445C91.707 81.4715 91.3032 86.0133 90.2939 89.6468C89.9186 90.8666 89.4366 91.9992 88.8961 92.9906C90.0406 91.2263 90.9153 89.1541 91.3032 87.3254C91.3688 87.0176 91.4337 86.7087 91.4976 86.3992L91.5927 85.9346C92.7565 80.2 93.564 74.3206 92.8172 70.773C92.6153 69.8646 92.3125 66.8367 91.1014 63.607C89.3856 58.8633 86.8623 55.028 86.5596 54.1197C85.5961 51.6148 85.3684 45.5234 85.2619 41.9024L85.2597 41.8185C85.2903 42.7101 85.3506 43.6841 85.4332 44.6771L85.46 44.9912C85.4783 45.2009 85.4976 45.4112 85.5178 45.6215L85.5487 45.9367C85.554 45.9892 85.5593 46.0417 85.5647 46.0942L85.5975 46.4085C85.9207 49.4421 86.412 52.3107 86.8623 53.2113C87.1651 54.1196 89.8902 58.4596 91.8079 63.0014C93.12 65.9284 93.5237 68.7544 93.6246 69.5618C94.6339 78.0399 93.8265 81.5724 91.606 89.1421C91.3378 90.0707 90.9725 90.9571 90.5481 91.7806C91.8249 90.1427 92.765 88.3859 93.12 86.9217C95.2395 77.5352 96.0469 65.4237 93.019 56.1382C91.4042 51.2936 87.5689 47.0546 86.8623 44.1277C86.2568 41.4026 86.2568 38.5765 86.4586 34.9431L87.4679 35.4477C86.9633 36.558 87.2661 42.21 88.0735 44.3295C89.0828 47.1555 92.0097 50.3853 93.8265 54.9271C94.2857 55.9868 94.7449 57.5659 95.1522 59.2055L95.2215 59.4871C95.2559 59.6281 95.2899 59.7694 95.3234 59.9106L95.39 60.1929C96.0271 62.9197 96.493 65.561 96.5516 66.0293C97.5608 74.5074 97.0562 82.4808 94.533 89.243C93.3403 92.3739 90.8263 95.2294 88.9834 96.5491C93.8878 95.8872 100.647 93.3809 104.727 90.0503C109.975 85.7103 112.801 79.049 112.801 72.2867C112.801 65.5244 110.177 59.065 105.03 54.5231C102.103 51.899 97.359 48.6692 94.3311 46.9534C91.3032 45.2376 87.5689 40.494 88.78 35.9521L78.8889 31.6122Z" fill="#010101"/>
<path d="M7.83531 14.9585H62.4381C64.4566 14.9585 66.2734 16.6743 66.2734 18.7938V34.9425C66.2734 37.062 64.4566 38.7778 62.4381 38.7778H51.2349C48.7117 38.7778 47.6015 40.1908 47.6015 41.8057V94.5917C47.6015 96.4084 46.1884 97.7205 44.4726 97.7205H25.9017C24.1859 97.7205 22.8738 96.4084 22.8738 94.5917V41.301C22.8738 39.6862 21.3598 38.6769 20.2496 38.6769H7.83531C5.7158 38.6769 4 36.9611 4 34.8416V18.6929C4 16.6743 5.7158 14.9585 7.83531 14.9585Z" fill="#7E4798"/>
<path d="M147.925 36.3555H152.77C154.586 36.3555 155.999 37.7685 155.999 39.4843V56.7432C155.999 58.9636 156.1 59.872 153.375 59.872C148.026 59.872 145.604 62.698 145.604 65.8268V94.9954C145.604 96.3075 144.292 97.5186 142.778 97.5186H125.418C123.904 97.5186 122.592 96.4084 122.592 94.9954V61.7897C122.592 61.1841 122.592 60.3766 122.693 59.872C123.601 47.5586 133.29 37.7685 145.503 36.4564C145.806 36.4564 147.219 36.3555 147.925 36.3555Z" fill="#7E4798"/>
</svg>
