<svg width="196" height="48" viewBox="0 0 196 48" fill="none" xmlns="http://www.w3.org/2000/svg">
<path fill-rule="evenodd" clip-rule="evenodd" d="M90.0587 26.2032C91.7453 21.9344 93.587 17.2727 92.998 12.9898C92.6288 10.31 90.8813 7.39761 88.9635 6.1773C88.9275 6.15536 88.8364 6.08652 88.7387 6.01266C88.6225 5.9248 88.4967 5.82971 88.4434 5.79828C87.0241 4.97628 84.7516 4.28355 83.1696 4.12044C75.0122 3.28389 70.1458 6.90826 67.3486 11.7912C66.248 13.709 65.5194 15.8041 64.9513 18.024C64.3232 20.4833 63.8724 23.4653 64.2321 26.1743C64.448 27.797 65.3397 30.1032 66.6294 31.4481C69.4719 34.4108 74.759 34.3744 80.6103 34.3341C81.2968 34.3294 81.9911 34.3246 82.69 34.3246C84.7303 34.3246 89.6227 34.284 91.0992 34.2454C91.5764 34.2312 92.9452 28.6603 92.8231 28.4802C92.7694 28.4168 92.3996 28.4229 91.8363 28.4322C91.1673 28.4432 90.2252 28.4587 89.2153 28.3675C89.483 27.6604 89.7686 26.9376 90.0587 26.2032ZM85.0172 20.474C84.8762 20.9402 84.736 21.4036 84.6078 21.8592C84.5606 22.0266 84.5134 22.194 84.4663 22.3616C83.91 24.337 83.3529 26.3155 82.69 28.0921C81.912 28.0874 81.1429 28.1006 80.3939 28.1135C76.479 28.1806 73.1141 28.2383 71.9029 25.6948C71.088 23.9807 71.4548 21.6602 71.9029 19.4623C72.5046 16.5019 73.0799 14.3516 74.7797 12.5103C76.0934 11.089 79.399 9.34617 82.93 10.5929C84.1022 11.0074 85.9191 12.9804 86.046 15.1472C86.1397 16.7624 85.5719 18.6397 85.0172 20.474Z" fill="#1A1918"/>
<path d="M178.617 6.95625L186.007 6.99686C186.007 6.99686 172.267 25.6155 171.145 27.1329C171.038 27.2768 170.915 27.4239 170.788 27.5766C170.48 27.9454 170.145 28.3466 169.946 28.8111C169.237 30.4626 168.508 34.0849 168.508 34.0849L161.746 34.1184C161.746 34.1184 162.798 30.3428 162.755 28.3316C162.729 27.129 162.3 25.9275 161.871 24.724C161.673 24.1692 161.475 23.6139 161.317 23.0578C160.808 21.2744 160.118 17.784 160.118 17.784H167.07L168.029 21.6196L178.617 6.95625Z" fill="#1A1918"/>
<path d="M164.623 10.883C165.986 11.7053 166.823 16.2407 166.823 16.2407C166.823 16.2407 159.687 16.3459 155.803 16.3459H152.447L148.372 34.0851H142.14C142.14 34.0851 146.018 14.8072 146.934 11.3121C147.191 10.3338 148.523 10.3465 150.775 10.3678C151.127 10.3711 151.502 10.3747 151.898 10.3747H156.58C157.284 10.3747 158.017 10.3537 158.745 10.3329C161.139 10.2644 163.483 10.1973 164.623 10.883Z" fill="#1A1918"/>
<path fill-rule="evenodd" clip-rule="evenodd" d="M140.761 24.5154C140.761 24.5154 142.274 17.7892 141.48 14.9269C141.435 14.7644 141.391 14.588 141.346 14.4068L141.346 14.4063L141.346 14.4059C141.195 13.8015 141.03 13.1438 140.761 12.7695C139.455 10.9475 136.779 10.3147 135.008 10.1326C130.302 9.65075 126.385 10.9093 124.221 12.5299L124.107 12.6151C123.503 13.0653 122.994 13.4445 122.543 13.9682C122.37 14.1692 122.183 14.3946 122.023 14.6271C121.959 14.7168 121.89 14.7936 121.821 14.8704C121.739 14.9618 121.657 15.0533 121.584 15.1665C121.462 15.352 121.335 15.6386 121.198 15.9492L121.198 15.9496L121.198 15.95C121.111 16.1451 121.021 16.3499 120.925 16.5448C120.734 16.9328 120.552 17.3863 120.405 17.7544L120.385 17.8034C119.086 21.0491 117.76 27.1066 118.947 30.2684C119.122 30.7361 119.513 31.328 119.647 31.508C119.706 31.5873 119.763 31.6711 119.82 31.7547C119.926 31.9086 120.031 32.062 120.146 32.1862C120.795 32.8863 121.757 33.3801 122.783 33.6244C127.977 34.864 138.364 34.3435 138.364 34.3435L139.637 28.7056C139.637 28.7056 132.287 29.0366 128.775 28.5906C128.711 28.5823 128.633 28.574 128.543 28.5645C127.902 28.4965 126.696 28.3686 126.038 27.7922C125.386 27.222 124.616 25.8721 125.18 24.9949C125.492 24.5066 126.542 24.5134 127.627 24.5204C127.933 24.5224 128.241 24.5244 128.536 24.5154C132.862 24.3834 140.761 24.5154 140.761 24.5154ZM134.948 17.065C135.801 18.3834 135.607 19.5222 135.607 19.5222L126.318 19.4623C126.318 19.4623 126.213 15.4494 131.628 15.6196C133.546 15.6795 134.219 15.9408 134.948 17.065Z" fill="#1A1918"/>
<path d="M112.894 10.3529L118.938 10.317C118.938 10.317 115.57 26.294 113.853 34.0849H106.901C106.263 34.0849 105.635 34.0953 105.019 34.1054C100.949 34.1726 97.4738 34.2299 95.8745 31.2081C94.3415 28.3088 95.3804 23.8053 96.2118 20.2014C96.3489 19.6071 96.4803 19.0373 96.5937 18.5031C97.1595 15.8327 98.351 10.3745 98.351 10.3745L104.612 10.317C104.612 10.317 102.843 18.8148 102.107 23.0578C102.048 23.3962 101.976 23.7303 101.905 24.0575C101.656 25.1997 101.426 26.2592 101.867 27.1329C102.407 28.2023 103.162 28.2788 105.463 28.3316C106.192 28.3485 108.579 28.3316 108.579 28.3316L112.894 10.3529Z" fill="#1A1918"/>
<path d="M63.0623 12.6537L63.062 12.6549C62.8175 13.8275 62.5699 15.0151 62.3144 16.1062H55.6024C55.8092 15.3075 55.9967 14.5107 56.1802 13.7306C56.4583 12.5489 56.7273 11.4056 57.0406 10.3529C58.0894 10.3529 59.1022 10.3597 60.1388 10.3668C61.225 10.3741 62.3372 10.3816 63.5442 10.3816C63.384 11.111 63.2238 11.8791 63.0623 12.6537Z" fill="#1A1918"/>
<path d="M61.8348 17.7841H55.3628C55.0345 18.863 53.2988 26.1215 52.7259 28.8112C52.5977 29.414 52.4839 30.0198 52.3719 30.6164C51.6189 34.6266 50.9443 38.2191 46.4934 37.6806C46.2672 38.5123 46.0127 39.4747 45.7503 40.4676C45.4453 41.6212 45.1295 42.8158 44.8345 43.8942C45.3977 43.9057 45.9488 43.9257 46.4867 43.9453C47.9522 43.9985 49.3199 44.0483 50.5685 43.9131C51.6182 43.7984 53.5144 43.3453 53.9245 42.9544C54.0095 42.8733 54.081 42.8533 54.1575 42.832C54.23 42.8118 54.3069 42.7904 54.4037 42.7145C56.5677 41.0241 57.1461 38.7052 57.9329 35.5506C57.955 35.4621 57.9772 35.3731 57.9996 35.2833C59.3134 30.0241 60.9888 22.4684 61.8348 17.7841Z" fill="#1A1918"/>
<path d="M36.6649 18.6447C37.7678 18.4099 40.2656 16.5307 40.6995 15.5358C37.1079 17.9799 34.8242 17.2946 33.6729 16.949C33.6238 16.9343 33.5769 16.9202 33.5319 16.907C33.2896 16.8376 32.7289 16.5859 32.2064 16.2718C32.1702 16.25 32.1345 16.2286 32.0994 16.2076C31.0099 15.5535 30.4449 15.2142 29.5695 13.9415C29.0731 13.2204 28.5769 12.0742 28.4142 11.4173C28.1455 10.3314 28.2199 8.66062 28.7306 7.22238C27.0355 8.73508 26.7742 11.6572 27.3424 13.5892C27.4145 13.8339 27.8172 14.795 28.0351 15.1473C29.5001 17.504 32.2974 19.575 36.6649 18.6447Z" fill="#21609B"/>
<path d="M33.5485 25.2153C36.339 25.2346 39.2537 23.9303 40.9796 22.0992C39.4696 25.9324 35.0974 28.3963 29.2337 27.6126C24.3244 26.9557 19.6476 22.0153 19.1657 17.065C18.8134 13.4623 20.0692 11.312 22.1383 8.70391C21.4192 10.068 21.1505 11.1202 21.0835 11.7912C20.2973 19.5845 27.3089 25.1747 33.5485 25.2153Z" fill="#21609B"/>
<path d="M40.2605 30.0099L40.1217 30.3693C37.7579 34.9717 33.5701 37.7957 27.5965 37.9202C24.8039 37.9778 22.143 37.2613 20.4049 36.482C16.6537 34.7967 13.4987 31.6711 11.7755 28.3317C9.30372 23.5446 8.85804 16.8853 13.9975 11.9114C14.0371 11.9114 13.8812 12.181 13.7254 12.4506C13.5696 12.7203 13.4137 12.9899 13.4533 12.9899L13.3119 13.4501C9.60829 25.0451 21.0185 34.9815 32.1102 33.8451C34.7759 33.572 38.1752 32.1121 40.2605 30.0099Z" fill="#21609B"/>
</svg>
