<svg width="192" height="48" viewBox="0 0 192 48" fill="none" xmlns="http://www.w3.org/2000/svg">
<path d="M114.849 27.7201C114.852 19.2241 121.387 12.1589 129.857 11.4958C129.434 11.4958 128.863 11.4958 128.439 11.4958C119.831 11.9979 113.108 19.125 113.108 27.7477C113.108 36.3704 119.831 43.4975 128.439 43.9996C128.863 43.9996 129.434 43.9996 129.857 43.9996C121.366 43.3348 114.823 36.2373 114.849 27.7201Z" fill="#25F4EE"/>
<path d="M133.559 11.4408C133.117 11.4408 132.546 11.4408 132.123 11.4408C140.565 12.1381 147.062 19.1937 147.062 27.6651C147.062 36.1365 140.565 43.192 132.123 43.8894C132.546 43.8894 133.117 43.8894 133.559 43.8894C142.55 43.8894 149.839 36.6008 149.839 27.6098C149.839 18.6189 142.55 11.3303 133.559 11.3303V11.4408Z" fill="#FE2C55"/>
<path d="M52.1798 4H61.6823V22.5815L71.1112 13.3736H82.4553L70.5403 24.9387L83.8917 43.999H73.4131L64.4999 30.7581L61.6823 33.4836V43.999H52.1798V4Z" fill="black"/>
<path d="M7.39258 4.11149H37.0788L34.3532 12.6932H26.6554V44H17.024V12.6932H7.41099L7.39258 4.11149Z" fill="black"/>
<path d="M85.6964 4.11149H116.064L113.338 12.6932H104.978V44H95.3646V12.6932H85.7148L85.6964 4.11149Z" fill="black"/>
<path d="M48.4046 16.7975H38.8837L38.9574 43.9976H48.4046V16.7975Z" fill="black"/>
<path d="M162.508 4H152.895L152.987 43.999H162.508V33.4836L165.234 30.7581L174.129 43.999H184.607L171.348 24.9387L183.263 13.3736H171.919L162.508 22.5815V4Z" fill="black"/>
<path d="M43.6533 13.6877C46.2977 13.6877 48.4414 11.544 48.4414 8.89958C48.4414 6.25519 46.2977 4.11149 43.6533 4.11149C41.0089 4.11149 38.8652 6.25519 38.8652 8.89958C38.8652 11.544 41.0089 13.6877 43.6533 13.6877Z" fill="black"/>
<path fill-rule="evenodd" clip-rule="evenodd" d="M114.701 27.7178C114.701 18.7268 121.99 11.4382 130.981 11.4382C135.298 11.4382 139.439 13.1534 142.492 16.2064C145.545 19.2594 147.26 23.4002 147.26 27.7178C147.26 36.7087 139.972 43.9973 130.981 43.9973C121.99 43.9973 114.701 36.7087 114.701 27.7178ZM123.062 27.7178C123.062 32.0912 126.607 35.6365 130.981 35.6365C135.35 35.6264 138.889 32.087 138.899 27.7178C138.899 23.3443 135.354 19.799 130.981 19.799C126.607 19.799 123.062 23.3443 123.062 27.7178Z" fill="black"/>
</svg>
