<svg width="192" height="48" viewBox="0 0 192 48" fill="none" xmlns="http://www.w3.org/2000/svg">
<path d="M45.5818 41.0466C43.3787 41.0466 41.6535 40.5423 40.2202 39.1623L41.4941 37.8881C42.5293 38.9761 43.9361 39.4011 45.5553 39.4011C47.705 39.4011 49.0323 38.6313 49.0323 37.0918C49.0323 35.9506 48.3685 35.3137 46.8557 35.1807L44.7058 34.9951C42.1578 34.7827 40.8042 33.6415 40.8042 31.4915C40.8042 29.1027 42.8212 27.6697 45.6083 27.6697C47.4661 27.6697 49.1383 28.1209 50.3062 29.076L49.0586 30.3234C48.1298 29.6072 46.9354 29.2884 45.5818 29.2884C43.6705 29.2884 42.662 30.1115 42.662 31.4383C42.662 32.5533 43.299 33.2169 44.9446 33.3494L47.0414 33.5351C49.3242 33.7477 50.89 34.6233 50.89 37.0655C50.89 39.5868 48.74 41.0466 45.5818 41.0466Z" fill="#0A0B09"/>
<path d="M56.7014 40.8874C54.4718 40.8874 53.3571 39.3212 53.3571 37.3839V29.3683H51.7116V27.9083H53.3571V23.8211H55.2681V27.9083H58.055V29.3683H55.2681V37.3307C55.2681 38.5251 55.8256 39.2417 57.0465 39.2417H58.055V40.8874H56.7014Z" fill="#0A0B09"/>
<path d="M67.9382 34.8624H64.2755C62.3112 34.8624 61.3557 35.6587 61.3557 37.1713C61.3557 38.6843 62.2847 39.4011 64.3549 39.4011C65.4699 39.4011 66.4517 39.3212 67.2745 38.5251C67.7258 38.1005 67.9382 37.3574 67.9382 36.2689V34.8624ZM67.9382 40.8874V39.6398C66.8764 40.7017 65.9209 41.0466 64.1693 41.0466C62.3644 41.0466 61.3027 40.7017 60.4796 39.8524C59.8429 39.215 59.4978 38.2332 59.4978 37.198C59.4978 34.9156 61.0903 33.4289 64.0099 33.4289H67.9382V32.1815C67.9382 30.2709 66.9826 29.3151 64.5938 29.3151C62.9219 29.3151 62.0723 29.7134 61.3027 30.8014L60.0021 29.6072C61.17 28.0942 62.4971 27.6697 64.6205 27.6697C68.1238 27.6697 69.849 29.1822 69.849 32.0221V40.8874H67.9382Z" fill="#0A0B09"/>
<path d="M77.3338 41.0466C74.0427 41.0466 71.5477 38.8169 71.5477 34.3581C71.5477 29.8991 74.0427 27.6697 77.3338 27.6697C79.1387 27.6697 80.2799 28.1472 81.6334 29.6072L80.3331 30.8279C79.351 29.7397 78.5812 29.3683 77.3338 29.3683C76.0597 29.3683 74.9982 29.8724 74.308 30.8546C73.6976 31.7039 73.4587 32.7127 73.4587 34.3581C73.4587 36.0036 73.6976 37.0123 74.308 37.8616C74.9982 38.8437 76.0597 39.3479 77.3338 39.3479C78.5812 39.3479 79.351 38.9499 80.3331 37.8616L81.6334 39.1093C80.2799 40.5686 79.1387 41.0466 77.3338 41.0466Z" fill="#0A0B09"/>
<path d="M92.0954 40.8874L87.9547 34.1987L85.4067 37.1183V40.8874H83.4957V21.9893H85.4067V34.6233L91.2991 27.8286H93.6879L89.2553 32.8184L94.4573 40.8874H92.0954Z" fill="#0A0B09"/>
<path d="M102.166 31.1609C101.788 30.7835 101.285 30.5823 100.631 30.5823C99.9769 30.5823 99.4991 30.7835 99.1218 31.1609C98.4423 31.8399 98.367 32.9718 98.367 34.3305C98.367 35.6887 98.4423 36.8459 99.1218 37.5247C99.4991 37.9021 99.9769 38.1035 100.631 38.1035C101.285 38.1035 101.788 37.9021 102.166 37.5247C102.844 36.8459 102.92 35.6887 102.92 34.3305C102.92 32.9718 102.844 31.8399 102.166 31.1609ZM104.706 39.4367C103.901 40.2921 102.568 41.0466 100.631 41.0466C98.6942 41.0466 97.3862 40.2921 96.5812 39.4367C95.3989 38.2042 95.097 36.7198 95.097 34.3305C95.097 31.9658 95.3989 30.4816 96.5812 29.2489C97.3862 28.3938 98.6942 27.639 100.631 27.639C102.568 27.639 103.901 28.3938 104.706 29.2489C105.888 30.4816 106.19 31.9658 106.19 34.3305C106.19 36.7198 105.888 38.2042 104.706 39.4367Z" fill="#0A0B09"/>
<path d="M113.54 40.8955H110.974L106.144 27.79H109.59L112.257 35.8899L114.898 27.79H118.344L113.54 40.8955Z" fill="#0A0B09"/>
<path d="M126.096 31.7142C125.744 30.9343 125.014 30.3559 123.907 30.3559C122.801 30.3559 122.071 30.9343 121.719 31.7142C121.518 32.1922 121.442 32.544 121.417 33.1228H126.398C126.372 32.544 126.297 32.1922 126.096 31.7142ZM121.417 35.3615C121.417 37.0469 122.448 38.2795 124.285 38.2795C125.719 38.2795 126.423 37.8772 127.253 37.0469L129.24 38.9838C127.907 40.3169 126.624 41.0466 124.26 41.0466C121.165 41.0466 118.197 39.6382 118.197 34.3305C118.197 30.0538 120.511 27.639 123.907 27.639C127.555 27.639 129.618 30.3055 129.618 33.9027V35.3615H121.417Z" fill="#0A0B09"/>
<path d="M138.365 31.3619C137.862 30.8588 137.435 30.5823 136.63 30.5823C135.624 30.5823 134.516 31.3368 134.516 32.9971V40.8955H131.246V27.79H134.441V29.0477C135.07 28.2929 136.328 27.639 137.736 27.639C139.019 27.639 139.925 27.9659 140.831 28.8717L138.365 31.3619Z" fill="#0A0B09"/>
<path d="M154.155 40.8955C151.464 40.8955 150.332 39.0091 150.332 37.1476V22.4275H153.602V36.9461C153.602 37.7262 153.929 38.1284 154.759 38.1284H156.017V40.8955H154.155ZM146.362 30.2858V40.8955H143.092V30.2858H141.734V27.7956H143.092V26.1602C143.092 24.2991 144.249 22.4124 146.915 22.4124H148.777V25.1793H147.519C146.739 25.1793 146.362 25.6069 146.362 26.3616V27.7956H148.777V30.2858H146.362Z" fill="#0A0B09"/>
<path d="M163.554 31.1609C163.177 30.7835 162.674 30.5823 162.02 30.5823C161.366 30.5823 160.888 30.7835 160.51 31.1609C159.831 31.8399 159.756 32.9718 159.756 34.3305C159.756 35.6887 159.831 36.8459 160.51 37.5247C160.888 37.9021 161.366 38.1035 162.02 38.1035C162.674 38.1035 163.177 37.9021 163.554 37.5247C164.233 36.8459 164.309 35.6887 164.309 34.3305C164.309 32.9718 164.233 31.8399 163.554 31.1609ZM166.095 39.4367C165.29 40.2921 163.957 41.0466 162.02 41.0466C160.083 41.0466 158.775 40.2921 157.97 39.4367C156.788 38.2042 156.486 36.7198 156.486 34.3305C156.486 31.9658 156.788 30.4816 157.97 29.2489C158.775 28.3938 160.083 27.639 162.02 27.639C163.957 27.639 165.29 28.3938 166.095 29.2489C167.277 30.4816 167.579 31.9658 167.579 34.3305C167.579 36.7198 167.277 38.2042 166.095 39.4367Z" fill="#0A0B09"/>
<path d="M182.254 40.8955H179.563L176.821 32.6702L174.079 40.8955H171.388L167.363 27.79H170.834L172.947 35.8899L175.614 27.79H178.003L180.695 35.8899L182.808 27.79H186.254L182.254 40.8955Z" fill="#0A0B09"/>
<path d="M28.0594 29.6041L12.7456 25.8899L13.4885 22.8271L28.8023 26.5412L28.0594 29.6041Z" fill="#B58F52"/>
<path d="M29.0881 25.9404L15.0562 18.7703L16.4901 15.9639L30.5221 23.134L29.0881 25.9404Z" fill="#C78431"/>
<path d="M31.249 22.145L19.3823 11.7775L21.4556 9.4043L33.3225 19.7715L31.249 22.145Z" fill="#E9812C"/>
<path d="M34.5127 18.8081L25.6636 5.76977L28.2713 4L37.1204 17.0383L34.5127 18.8081Z" fill="#E5712A"/>
<path d="M27.814 33.4349L12.0796 32.5758L12.2513 29.4287L27.9857 30.288L27.814 33.4349Z" fill="#9D8469"/>
<path d="M31.0773 40.8473V27.7911H34.226L34.2283 43.9995H5.74561L5.7463 27.7773H8.89778V40.8473H31.0773Z" fill="#797B7B"/>
<path d="M12.0366 34.5576H27.9013V37.7091H12.0366V34.5576Z" fill="#797B7B"/>
</svg>
