<svg width="256" height="48" viewBox="0 0 256 48" fill="none" xmlns="http://www.w3.org/2000/svg">
<path d="M26.5349 4.00248L26.7908 4.00775L24.0545 7.24101C18.9898 8.15676 14.6165 11.6152 12.8977 16.6927C10.3404 24.2471 14.6267 32.5237 22.4716 35.1796C30.3165 37.8351 38.7489 33.8638 41.3063 26.3099C42.9946 21.3226 41.6998 16.0208 38.3677 12.2291L38.2194 12.0628L38.009 7.81759C44.9082 12.8251 48.0725 21.9123 45.1953 30.4117C41.6542 40.8714 30.3046 46.4801 19.8449 42.9393C9.38518 39.3983 3.77622 28.0486 7.317 17.5889C10.1701 9.16105 18.0929 3.88299 26.5349 4.00248ZM96.8025 17.4655C99.4438 17.4655 101.507 18.1003 102.993 19.3705C104.478 20.6403 105.221 22.6715 105.221 25.465V36.8928C104.332 37.1721 103.253 37.4389 101.983 37.6929C100.714 37.9469 99.2787 38.0737 97.6788 38.0737C96.3837 38.0737 95.1962 37.9598 94.1168 37.7309C93.0377 37.5027 92.1103 37.1212 91.3367 36.5882C90.5617 36.0552 89.9651 35.3693 89.5456 34.5315C89.1271 33.6929 88.9174 32.6647 88.9174 31.4455C88.9174 30.2269 89.1777 29.2047 89.6983 28.3793C90.2186 27.5539 90.8921 26.8935 91.717 26.3985C92.5427 25.903 93.4631 25.5478 94.4791 25.3318C95.495 25.1159 96.5103 25.008 97.5264 25.008C98.2629 25.008 99.0754 25.0465 99.9646 25.1222V24.6652C99.9646 24.056 99.8629 23.5605 99.6595 23.1794C99.4567 22.7988 99.177 22.5001 98.8217 22.2848C98.4662 22.0684 98.0279 21.9223 97.5076 21.8463C96.9868 21.7701 96.409 21.7321 95.774 21.7321C94.4029 21.7321 92.9425 21.9987 91.3937 22.532C91.0377 21.8716 90.7713 21.2493 90.5936 20.6652C90.4161 20.0813 90.3267 19.383 90.3267 18.57C91.4443 18.1894 92.5617 17.9101 93.6788 17.7324C94.7962 17.5546 95.838 17.4655 96.8025 17.4655ZM82.3795 11.6625C83.4251 11.6625 84.4287 11.7394 85.392 11.8926L86.7949 37.8441C85.7499 37.9975 84.7594 38.0737 83.8242 38.0737C82.8882 38.0737 81.9671 37.9975 81.0594 37.8441L80.3165 19.0808L74.2912 32.0491C73.9057 32.1003 73.5071 32.1456 73.0942 32.1833C72.6815 32.2218 72.2692 32.2405 71.8563 32.2405C71.4984 32.2405 71.1412 32.2281 70.7837 32.2025C70.4261 32.1772 70.0545 32.1256 69.6691 32.0491L64.0572 18.812L63.4794 37.8441C62.5992 37.9975 61.7463 38.0737 60.9206 38.0737C60.0401 38.0737 59.1322 37.9975 58.1972 37.8441L59.3525 11.8926C60.4531 11.7394 61.5123 11.6625 62.53 11.6625C63.6031 11.6625 64.6625 11.7394 65.7078 11.8926L72.5169 26.025L79.5322 11.8926C80.3852 11.7394 81.3338 11.6625 82.3795 11.6625ZM144.599 17.4655C145.97 17.4655 147.189 17.7066 148.256 18.1894C149.322 18.6717 150.23 19.3323 150.979 20.1706C151.729 21.008 152.294 22.0051 152.675 23.1604C153.056 24.316 153.246 25.5544 153.246 26.8743C153.246 27.3571 153.227 27.8336 153.189 28.3033C153.151 28.7725 153.106 29.1475 153.056 29.427H140.409C140.511 30.9505 141.044 32.0552 142.009 32.7411C142.974 33.4268 144.243 33.7696 145.818 33.7696C146.682 33.7696 147.564 33.6868 148.465 33.5215C149.367 33.3567 150.224 33.1217 151.037 32.8173C151.316 33.3252 151.558 33.9342 151.761 34.6454C151.964 35.3562 152.078 36.1185 152.103 36.931C150.122 37.6929 147.888 38.0737 145.399 38.0737C143.57 38.0737 142.003 37.8198 140.694 37.3121C139.387 36.8042 138.32 36.099 137.495 35.1979C136.669 34.2965 136.06 33.2235 135.666 31.9788C135.272 30.7345 135.076 29.3761 135.076 27.9035C135.076 26.4558 135.279 25.0971 135.685 23.8273C136.091 22.5571 136.695 21.4526 137.495 20.5132C138.295 19.5731 139.285 18.8305 140.466 18.2846C141.647 17.7384 143.025 17.4655 144.599 17.4655ZM209.319 17.4655C210.919 17.4655 212.315 17.7324 213.509 18.2654C214.702 18.7993 215.693 19.5288 216.481 20.456C217.268 21.3827 217.852 22.4813 218.233 23.7509C218.613 25.0204 218.804 26.3793 218.804 27.8268C218.804 29.2746 218.613 30.6201 218.233 31.8646C217.852 33.109 217.268 34.1947 216.481 35.1212C215.693 36.0486 214.702 36.7725 213.509 37.2929C212.315 37.8134 210.919 38.0737 209.319 38.0737C207.719 38.0737 206.328 37.8134 205.148 37.2929C203.967 36.7725 202.989 36.0486 202.214 35.1212C201.44 34.1947 200.856 33.109 200.462 31.8646C200.069 30.6201 199.872 29.2746 199.872 27.8268C199.872 26.3793 200.069 25.0204 200.462 23.7509C200.856 22.4813 201.44 21.3827 202.214 20.456C202.989 19.5288 203.967 18.7993 205.148 18.2654C206.328 17.7324 207.719 17.4655 209.319 17.4655ZM228.949 17.4655C229.939 17.4655 230.916 17.5546 231.882 17.7324C232.847 17.9101 233.824 18.1765 234.815 18.5322C234.764 19.1923 234.637 19.878 234.433 20.5892C234.231 21.3002 233.99 21.9223 233.71 22.456C233.1 22.2018 232.428 21.9797 231.691 21.7891C230.955 21.5989 230.18 21.5035 229.368 21.5035C228.504 21.5035 227.831 21.6367 227.348 21.9035C226.866 22.1701 226.625 22.5955 226.625 23.1794C226.625 23.7382 226.796 24.1319 227.139 24.3606C227.482 24.5889 227.971 24.8052 228.605 25.008L230.777 25.6559C231.488 25.8587 232.129 26.1064 232.701 26.3985C233.272 26.6907 233.761 27.0525 234.167 27.484C234.574 27.9157 234.891 28.4492 235.119 29.084C235.348 29.719 235.463 30.4935 235.463 31.4073C235.463 32.3474 235.266 33.2235 234.872 34.0357C234.478 34.8487 233.907 35.5534 233.158 36.1499C232.408 36.7472 231.501 37.2169 230.434 37.5595C229.368 37.9026 228.161 38.0737 226.815 38.0737C226.205 38.0737 225.647 38.0547 225.139 38.0167C224.631 37.9783 224.142 37.915 223.673 37.8263C223.203 37.7372 222.74 37.6296 222.282 37.5027C221.825 37.3756 221.33 37.2108 220.797 37.0073C220.848 36.3214 220.968 35.6291 221.158 34.9313C221.349 34.2332 221.597 33.5534 221.901 32.8931C222.74 33.2235 223.533 33.4708 224.283 33.6359C225.032 33.8013 225.812 33.8838 226.625 33.8838C226.981 33.8838 227.368 33.8519 227.786 33.7884C228.206 33.7248 228.593 33.6106 228.949 33.4458C229.304 33.2804 229.603 33.0645 229.844 32.7981C230.085 32.5315 230.205 32.1821 230.205 31.7501C230.205 31.1412 230.021 30.7029 229.653 30.436C229.285 30.1699 228.77 29.9342 228.111 29.7316L225.749 29.046C224.326 28.6393 223.215 28.0365 222.416 27.2364C221.615 26.4368 221.216 25.2364 221.216 23.6364C221.216 21.7063 221.908 20.196 223.292 19.1037C224.676 18.0114 226.562 17.4655 228.949 17.4655ZM128.452 12.1704V17.9225H133.062C133.138 18.3036 133.189 18.6464 133.214 18.951C133.239 19.2561 133.252 19.5731 133.252 19.9035C133.252 20.259 133.239 20.6016 133.214 20.932C133.189 21.2624 133.138 21.6306 133.062 22.0367H128.452V29.7699C128.452 30.5566 128.516 31.1916 128.643 31.6744C128.77 32.1565 128.954 32.5376 129.195 32.8173C129.437 33.0964 129.735 33.2868 130.091 33.3883C130.446 33.4901 130.865 33.541 131.347 33.541C131.728 33.541 132.103 33.5088 132.471 33.4458C132.839 33.3822 133.163 33.3252 133.442 33.2744C133.621 33.7562 133.747 34.2583 133.823 34.7786C133.9 35.2994 133.938 35.763 133.938 36.1694C133.938 36.4487 133.932 36.6834 133.919 36.8743C133.906 37.0642 133.887 37.249 133.862 37.4263C132.693 37.7061 131.488 37.8451 130.243 37.8451C127.932 37.8451 126.167 37.3055 124.948 36.2266C123.729 35.1473 123.119 33.3883 123.119 30.9505V22.0367H120.643L120.453 21.2746L127.576 12.1704H128.452ZM114.16 12.1704V17.9225H118.77C118.845 18.3036 118.896 18.6464 118.922 18.951C118.947 19.2561 118.96 19.5731 118.96 19.9035C118.96 20.259 118.947 20.6016 118.922 20.932C118.896 21.2624 118.845 21.6306 118.77 22.0367H114.16V29.7699C114.16 30.5566 114.224 31.1916 114.351 31.6744C114.478 32.1565 114.662 32.5376 114.903 32.8173C115.145 33.0964 115.443 33.2868 115.798 33.3883C116.154 33.4901 116.573 33.541 117.055 33.541C117.437 33.541 117.811 33.5088 118.179 33.4458C118.547 33.3822 118.871 33.3252 119.15 33.2744C119.329 33.7562 119.455 34.2583 119.532 34.7786C119.608 35.2994 119.646 35.763 119.646 36.1694C119.646 36.4487 119.64 36.6834 119.627 36.8743C119.614 37.0642 119.595 37.249 119.569 37.4263C118.401 37.7061 117.195 37.8451 115.951 37.8451C113.64 37.8451 111.875 37.3055 110.656 36.2266C109.437 35.1473 108.828 33.3883 108.828 30.9505V22.0367H106.351L106.161 21.2746L113.284 12.1704H114.16ZM165.445 17.6939C165.699 17.6939 165.991 17.7066 166.321 17.7324C166.651 17.7577 166.892 17.7957 167.044 17.8468C167.095 18.1003 167.134 18.3925 167.159 18.7226C167.185 19.0525 167.197 19.3956 167.197 19.7514C167.197 20.1831 167.178 20.6527 167.14 21.1607C167.102 21.6686 167.032 22.1509 166.93 22.6079C166.651 22.557 166.34 22.532 165.997 22.532H165.369C164.937 22.532 164.454 22.5765 163.921 22.6652C163.388 22.7543 162.88 22.989 162.397 23.3703C161.914 23.7509 161.515 24.3223 161.197 25.0844C160.88 25.8461 160.721 26.9128 160.721 28.2843V37.6552C160.264 37.7309 159.807 37.7818 159.35 37.8071C158.893 37.8327 158.449 37.8451 158.016 37.8451C157.585 37.8451 157.147 37.8327 156.702 37.8071C156.258 37.7818 155.794 37.7309 155.312 37.6552V17.9225C155.693 17.8468 156.055 17.7893 156.398 17.7514C156.741 17.7129 157.115 17.6939 157.521 17.6939C157.903 17.6939 158.277 17.7197 158.645 17.7701C159.014 17.821 159.375 17.8845 159.73 17.9608C159.807 18.0881 159.877 18.2717 159.94 18.513C160.004 18.7545 160.061 19.0085 160.112 19.2751C160.163 19.542 160.206 19.8081 160.245 20.0752C160.283 20.3418 160.314 20.5634 160.34 20.7419C160.899 19.9544 161.585 19.2495 162.397 18.6277C163.21 18.0053 164.226 17.6939 165.445 17.6939ZM191.789 17.4655C194.023 17.4655 195.668 18.0818 196.721 19.3136C197.775 20.5446 198.302 22.4687 198.302 25.0844V37.6167C197.388 37.7691 196.486 37.8451 195.598 37.8451C194.709 37.8451 193.807 37.7691 192.894 37.6167V26.4935C192.894 25.1222 192.721 24.0684 192.379 23.3323C192.036 22.5955 191.344 22.2274 190.303 22.2274C189.871 22.2274 189.446 22.2909 189.027 22.4175C188.608 22.5444 188.227 22.7791 187.884 23.1222C187.541 23.465 187.262 23.9478 187.046 24.5702C186.83 25.1916 186.722 25.9987 186.722 26.9887V37.6167C185.808 37.7691 184.906 37.8451 184.017 37.8451C183.129 37.8451 182.227 37.7691 181.313 37.6167V26.4935C181.313 25.1222 181.141 24.0684 180.799 23.3323C180.455 22.5955 179.764 22.2274 178.722 22.2274C178.291 22.2274 177.859 22.2909 177.427 22.4175C176.996 22.5444 176.608 22.792 176.265 23.1604C175.922 23.5283 175.65 24.0428 175.447 24.7034C175.243 25.3632 175.142 26.2269 175.142 27.2934V37.6167C174.227 37.7691 173.326 37.8451 172.437 37.8451C171.548 37.8451 170.647 37.7691 169.733 37.6167V17.9225C170.088 17.8468 170.444 17.7893 170.799 17.7514C171.155 17.7129 171.548 17.6939 171.98 17.6939C172.412 17.6939 172.793 17.7129 173.123 17.7514C173.453 17.7893 173.796 17.8468 174.151 17.9225C174.227 18.0496 174.297 18.2339 174.361 18.4752C174.424 18.7163 174.482 18.9705 174.532 19.2369C174.583 19.5035 174.627 19.7638 174.666 20.0177C174.704 20.2717 174.735 20.4877 174.761 20.6652C174.964 20.2848 175.231 19.9035 175.561 19.5225C175.891 19.1419 176.285 18.7993 176.742 18.4942C177.199 18.1894 177.713 17.9415 178.284 17.7514C178.856 17.5607 179.497 17.4655 180.208 17.4655C183.281 17.4655 185.249 18.634 186.113 20.9702C186.62 20.0304 187.338 19.2118 188.265 18.513C189.192 17.8147 190.366 17.4655 191.789 17.4655ZM244.257 12.1704V17.9225H248.866C248.943 18.3036 248.993 18.6464 249.019 18.951C249.044 19.2561 249.057 19.5731 249.057 19.9035C249.057 20.259 249.044 20.6016 249.019 20.932C248.993 21.2624 248.943 21.6306 248.866 22.0367H244.257V29.7699C244.257 30.5566 244.321 31.1916 244.448 31.6744C244.575 32.1565 244.759 32.5376 245 32.8173C245.242 33.0964 245.54 33.2868 245.895 33.3883C246.25 33.4901 246.67 33.541 247.152 33.541C247.533 33.541 247.908 33.5088 248.276 33.4458C248.644 33.3822 248.968 33.3252 249.247 33.2744C249.425 33.7562 249.552 34.2583 249.628 34.7786C249.705 35.2994 249.743 35.763 249.743 36.1694C249.743 36.4487 249.736 36.6834 249.724 36.8743C249.711 37.0642 249.692 37.249 249.667 37.4263C248.499 37.7061 247.293 37.8451 246.048 37.8451C243.737 37.8451 241.972 37.3055 240.753 36.2266C239.534 35.1473 238.924 33.3883 238.924 30.9505V22.0367H236.448L236.257 21.2746L243.381 12.1704H244.257ZM209.319 21.6939C207.922 21.6939 206.913 22.2206 206.291 23.2748C205.668 24.3287 205.357 25.8461 205.357 27.8268C205.357 29.8076 205.668 31.3252 206.291 32.3791C206.913 33.4331 207.922 33.9598 209.319 33.9598C210.741 33.9598 211.763 33.4331 212.385 32.3791C213.007 31.3252 213.319 29.8076 213.319 27.8268C213.319 25.8461 213.007 24.3287 212.385 23.2748C211.763 22.2206 210.741 21.6939 209.319 21.6939ZM98.0216 28.3985C96.7772 28.3985 95.793 28.6204 95.0691 29.065C94.3455 29.5093 93.9836 30.2269 93.9836 31.2171C93.9836 31.8777 94.1236 32.3851 94.4029 32.7411C94.6822 33.0964 95.0187 33.3567 95.4122 33.5215C95.8059 33.6868 96.2244 33.7884 96.6691 33.8266C97.1139 33.8643 97.501 33.8838 97.8307 33.8838C98.212 33.8838 98.5931 33.8519 98.9737 33.7884C99.3547 33.7248 99.6849 33.6681 99.9646 33.6169V28.5889C99.6596 28.5378 99.3296 28.4935 98.9737 28.4555C98.6182 28.4175 98.3014 28.3985 98.0216 28.3985ZM32.4003 5.84827C32.4932 5.87972 32.5684 5.93822 32.6226 6.01124L32.6525 6.05669L32.6637 6.07495L32.6737 6.09589C32.7 6.14605 32.7224 6.20351 32.7329 6.27412C32.752 6.40308 32.7613 6.69347 32.7656 7.00204L32.7676 7.18821C32.7681 7.25024 32.7684 7.31184 32.7686 7.37188L32.7685 7.70416C32.7678 7.87907 32.7666 8.00522 32.7663 8.03109L32.7662 8.03599L32.8449 10.9944L32.961 14.4093L33.1059 20.3438C33.1059 20.3438 33.106 20.3472 33.106 20.354L33.1061 20.3842C33.1048 20.7292 33.0328 23.2054 31.2754 24.9271C29.3827 26.7813 27.0579 26.6116 25.5454 26.0998C24.0328 25.5875 22.0833 24.3102 21.7061 21.6876C21.336 19.1147 22.9721 17.0153 23.034 16.937L23.0358 16.9347L26.7558 12.3087L28.9225 9.66662L30.7821 7.36421C30.7821 7.36421 31.6355 6.22104 31.8787 5.98486C31.9109 5.9537 31.9435 5.92978 31.9761 5.9103L32.0248 5.88406L32.0604 5.86604L32.0664 5.86361C32.1687 5.81929 32.2866 5.8098 32.4003 5.84827ZM144.523 21.5792C143.253 21.5792 142.288 21.9349 141.628 22.6462C140.968 23.3571 140.574 24.3606 140.447 25.6559H148.142C148.091 24.4365 147.754 23.4526 147.132 22.7036C146.51 21.9544 145.64 21.5792 144.523 21.5792Z" fill="#0058CC"/>
</svg>
