<svg width="224" height="48" viewBox="0 0 224 48" fill="none" xmlns="http://www.w3.org/2000/svg">
<path fill-rule="evenodd" clip-rule="evenodd" d="M32.9928 18.4827L23.776 13.1633C21.0928 11.5936 18.7785 11.6338 16.8667 12.6602C19.2346 15.6117 21.1129 18.9255 21.019 21.9105C25.1228 21.206 29.1378 20.0566 32.9928 18.4827Z" fill="#FAA61A"/>
<path fill-rule="evenodd" clip-rule="evenodd" d="M16.8668 12.6601C18.7786 11.6337 21.0661 11.5935 23.7761 13.1632L20.4221 11.2447L7.91162 4C11.2031 6.552 14.206 9.45591 16.8668 12.6601Z" fill="#F58220"/>
<path fill-rule="evenodd" clip-rule="evenodd" d="M10.9302 20.8774C12.3054 17.3557 14.2373 14.0687 16.8668 12.6601C14.206 9.45591 11.2031 6.552 7.91162 4V14.6456C7.91162 17.7783 9.08553 19.737 10.9302 20.8774Z" fill="#008FD5"/>
<path fill-rule="evenodd" clip-rule="evenodd" d="M10.9302 20.8775C9.08553 19.7371 7.91162 17.7784 7.91162 14.6458V32.9654C8.47908 28.8434 9.49119 24.795 10.9302 20.8909V20.8775Z" fill="#00588A"/>
<path fill-rule="evenodd" clip-rule="evenodd" d="M10.9302 20.8774C9.49119 24.7815 8.47908 28.8299 7.91162 32.9519L17.1284 27.6324C19.8452 26.0627 20.952 24.0637 21.0191 21.897C17.276 22.4672 13.4726 22.4404 10.9571 20.864L10.9302 20.8774Z" fill="#66952E"/>
<path fill-rule="evenodd" clip-rule="evenodd" d="M21.0191 21.9102C20.952 24.0769 19.8452 26.0759 17.1284 27.6456L20.4824 25.7204L33.0197 18.4824C29.1647 20.0563 25.1498 21.2057 21.0459 21.9102H21.0191Z" fill="#DBDB45"/>
<path d="M123.86 4.09383H124.357L127.61 11.1238H127.04L126.148 9.1718H122.029L121.137 11.1238H120.6L123.86 4.09383ZM125.933 8.70223L124.095 4.67742L122.25 8.70223H125.933Z" fill="#122033"/>
<path d="M129.019 6.01232H129.502V6.91791C129.66 6.60656 129.902 6.34556 130.201 6.16425C130.499 5.98295 130.843 5.88852 131.192 5.89158C131.555 5.88222 131.913 5.98203 132.219 6.17814C132.526 6.37425 132.766 6.65764 132.909 6.9917C133.081 6.65387 133.345 6.37139 133.67 6.17677C133.995 5.98215 134.368 5.8833 134.747 5.89158C135.021 5.88408 135.293 5.93538 135.545 6.04204C135.797 6.14869 136.023 6.3082 136.208 6.5098C136.393 6.71139 136.533 6.95036 136.618 7.21056C136.702 7.47075 136.73 7.74612 136.699 8.01803V11.097H136.21V8.0784C136.21 6.97828 135.646 6.34102 134.707 6.34102C134.48 6.34464 134.257 6.39509 134.051 6.4892C133.845 6.58331 133.66 6.71905 133.509 6.88788C133.358 7.05671 133.243 7.255 133.172 7.47027C133.101 7.68553 133.076 7.91313 133.097 8.13877V11.097H132.614V8.04485C132.614 6.99169 132.031 6.34102 131.125 6.34102C130.898 6.35298 130.676 6.40981 130.471 6.50824C130.267 6.60667 130.083 6.74472 129.932 6.91442C129.781 7.08412 129.666 7.28208 129.592 7.49685C129.518 7.71162 129.487 7.93893 129.502 8.1656V11.097H129.012L129.019 6.01232Z" fill="#122033"/>
<path d="M138.222 8.59491C138.198 8.25885 138.243 7.92146 138.352 7.60289C138.462 7.28431 138.635 6.99108 138.86 6.74067C139.085 6.49026 139.359 6.2878 139.664 6.14537C139.969 6.00295 140.3 5.92349 140.637 5.9117C142.059 5.9117 142.971 7.07219 142.971 8.59491C142.978 8.66181 142.978 8.72925 142.971 8.79615H138.752C138.752 9.32987 138.964 9.84174 139.341 10.2191C139.719 10.5965 140.231 10.8086 140.764 10.8086C141.096 10.8092 141.423 10.7382 141.724 10.6005C142.025 10.4627 142.293 10.2613 142.508 10.0103L142.844 10.3122C142.587 10.617 142.265 10.8607 141.902 11.0254C141.538 11.1902 141.143 11.272 140.744 11.2647C140.4 11.2653 140.06 11.1955 139.744 11.0596C139.428 10.9237 139.143 10.7246 138.907 10.4746C138.67 10.2245 138.488 9.92875 138.37 9.6055C138.252 9.28225 138.202 8.93834 138.222 8.59491ZM142.441 8.34671C142.368 7.31367 141.771 6.36785 140.617 6.36785C140.112 6.40149 139.639 6.62374 139.291 6.9904C138.943 7.35705 138.746 7.84125 138.739 8.34671H142.441Z" fill="#122033"/>
<path d="M144.407 6.01232H144.93V7.46125C145.108 7.00861 145.418 6.62024 145.82 6.34726C146.222 6.07427 146.698 5.92945 147.184 5.93183V6.46846H147.137C145.956 6.46846 144.93 7.36063 144.93 9.01751V11.097H144.44L144.407 6.01232Z" fill="#122033"/>
<path d="M148.452 4.04688H149.056V4.71768H148.452V4.04688ZM148.512 6.05928H149.002V11.144H148.512V6.05928Z" fill="#122033"/>
<path d="M150.612 8.60162C150.611 7.90484 150.882 7.23524 151.367 6.73448C151.851 6.23371 152.511 5.94105 153.208 5.91841C153.591 5.92223 153.969 6.00801 154.316 6.17C154.663 6.33199 154.971 6.56642 155.22 6.85753L154.865 7.21977C154.659 6.96715 154.402 6.76156 154.111 6.6169C153.819 6.47224 153.5 6.39189 153.174 6.38126C152.895 6.38641 152.62 6.44721 152.364 6.5601C152.109 6.673 151.878 6.83572 151.687 7.03874C151.495 7.24176 151.346 7.48099 151.247 7.74244C151.149 8.00389 151.104 8.2823 151.115 8.56137C151.107 8.84439 151.155 9.12621 151.256 9.39058C151.358 9.65496 151.51 9.89667 151.705 10.1018C151.901 10.3069 152.134 10.4714 152.393 10.5858C152.652 10.7002 152.931 10.7622 153.215 10.7683C153.543 10.7589 153.866 10.6777 154.161 10.5306C154.455 10.3834 154.713 10.1738 154.918 9.9164L155.254 10.2183C154.921 10.6611 154.457 10.9868 153.927 11.1482C153.398 11.3096 152.831 11.2983 152.308 11.1161C151.785 10.9339 151.334 10.5901 151.019 10.1344C150.705 9.67881 150.543 9.13494 150.558 8.5815L150.612 8.60162Z" fill="#122033"/>
<path d="M156.28 9.64807C156.28 8.59491 157.192 7.9979 158.507 7.9979C159.076 7.99233 159.642 8.06454 160.191 8.21255V7.9979C160.191 6.96486 159.567 6.44163 158.514 6.44163C157.956 6.4448 157.408 6.58534 156.917 6.85082L156.743 6.42151C157.302 6.13522 157.92 5.9836 158.547 5.97878C158.838 5.96082 159.13 6.00079 159.405 6.09636C159.68 6.19194 159.934 6.34122 160.151 6.53554C160.331 6.72769 160.471 6.95471 160.561 7.20269C160.651 7.45068 160.689 7.71442 160.674 7.97777V11.144H160.191V10.2987C159.97 10.6066 159.678 10.8557 159.339 11.0241C158.999 11.1925 158.624 11.2751 158.246 11.2647C157.3 11.2446 156.28 10.7079 156.28 9.64807ZM160.204 9.22546V8.64186C159.639 8.49276 159.058 8.41613 158.474 8.41379C157.4 8.41379 156.803 8.89007 156.803 9.60112C156.803 10.339 157.474 10.7683 158.279 10.7683C158.739 10.8173 159.199 10.6826 159.56 10.3936C159.92 10.1046 160.152 9.68466 160.204 9.22546Z" fill="#122033"/>
<path d="M162.465 6.01232H162.955V6.95815C163.131 6.62658 163.396 6.35096 163.721 6.16248C164.046 5.97399 164.417 5.88016 164.793 5.89158C165.067 5.88014 165.342 5.92732 165.597 6.03C165.852 6.13267 166.082 6.28848 166.273 6.48708C166.463 6.68568 166.609 6.92251 166.701 7.18184C166.793 7.44118 166.828 7.71707 166.805 7.99118V11.097H166.315V8.07839C166.342 7.85416 166.319 7.62685 166.249 7.41223C166.179 7.1976 166.063 7.00081 165.909 6.83551C165.755 6.67021 165.567 6.54036 165.358 6.45497C165.149 6.36958 164.924 6.3307 164.699 6.34102C164.462 6.33807 164.226 6.38348 164.007 6.47449C163.789 6.5655 163.59 6.70018 163.425 6.87032C163.26 7.04046 163.132 7.24248 163.047 7.46403C162.963 7.68558 162.924 7.92201 162.934 8.15889V11.097H162.445L162.465 6.01232Z" fill="#122033"/>
<path d="M120.895 18.5697C120.879 18.1044 120.956 17.6406 121.122 17.2056C121.288 16.7705 121.54 16.3731 121.862 16.0368C122.184 15.7004 122.57 15.432 122.997 15.2472C123.424 15.0624 123.884 14.965 124.35 14.9608C125.285 14.9275 126.197 15.254 126.899 15.8731L126.564 16.2622C125.954 15.6982 125.147 15.3969 124.316 15.4237C123.92 15.4348 123.53 15.525 123.169 15.689C122.809 15.8531 122.484 16.0877 122.216 16.3789C121.947 16.6702 121.739 17.0123 121.604 17.3851C121.47 17.7579 121.411 18.1538 121.432 18.5496C121.432 20.3541 122.559 21.7024 124.424 21.7024C125.235 21.6962 126.02 21.4148 126.651 20.9041V18.8917H124.316V18.4155H127.154V21.0987C126.394 21.7647 125.421 22.136 124.41 22.1451C123.939 22.1616 123.47 22.0798 123.032 21.9052C122.594 21.7305 122.197 21.4667 121.866 21.1305C121.536 20.7943 121.279 20.393 121.112 19.9522C120.944 19.5114 120.871 19.0406 120.895 18.5697Z" fill="#122033"/>
<path d="M128.636 20.562C128.636 19.5089 129.542 18.9118 130.863 18.9118C131.432 18.9063 131.998 18.9785 132.547 19.1265V18.9118C132.564 18.6926 132.531 18.4725 132.45 18.2678C132.37 18.0631 132.245 17.8791 132.084 17.7296C131.922 17.58 131.73 17.4687 131.52 17.404C131.309 17.3392 131.087 17.3227 130.87 17.3556C130.313 17.3596 129.766 17.4977 129.274 17.7581L129.099 17.3355C129.658 17.0492 130.276 16.8976 130.904 16.8927C131.194 16.8748 131.486 16.9147 131.761 17.0103C132.036 17.1059 132.29 17.2552 132.507 17.4495C132.687 17.642 132.825 17.8692 132.914 18.1172C133.003 18.3652 133.04 18.6288 133.023 18.8917V22.0579H132.547V21.2127C132.327 21.5206 132.034 21.7696 131.695 21.9381C131.356 22.1065 130.98 22.1891 130.602 22.1787C129.656 22.1585 128.636 21.6219 128.636 20.562ZM132.561 20.1327V19.5558C131.996 19.4067 131.414 19.3301 130.83 19.3278C129.757 19.3278 129.153 19.804 129.153 20.5151C129.153 21.2529 129.857 21.6823 130.635 21.6823C131.096 21.7312 131.557 21.5956 131.918 21.3052C132.279 21.0147 132.51 20.5931 132.561 20.1327Z" fill="#122033"/>
<path d="M134.385 21.4005L134.674 21.0115C135.189 21.4333 135.832 21.6695 136.498 21.6823C137.169 21.6823 137.726 21.2999 137.726 20.7163C137.726 20.1126 137.088 19.8979 136.384 19.6967C135.559 19.4552 134.64 19.207 134.64 18.3014C134.65 18.0962 134.703 17.8953 134.795 17.7113C134.886 17.5273 135.014 17.3642 135.172 17.232C135.329 17.0998 135.512 17.0015 135.709 16.9431C135.906 16.8847 136.113 16.8676 136.317 16.8927C136.958 16.9085 137.583 17.1012 138.121 17.4495L137.86 17.8587C137.398 17.5449 136.855 17.3702 136.297 17.3556C135.626 17.3556 135.136 17.7312 135.136 18.241C135.136 18.8112 135.807 19.0192 136.552 19.2271C137.296 19.4351 138.229 19.7571 138.229 20.6559C138.217 20.8705 138.162 21.0804 138.067 21.2728C137.971 21.4653 137.837 21.6362 137.673 21.775C137.509 21.9138 137.319 22.0177 137.113 22.0802C136.908 22.1427 136.691 22.1625 136.478 22.1384C135.718 22.1303 134.982 21.8709 134.385 21.4005Z" fill="#122033"/>
<path d="M139.993 20.77V17.416H139.255V16.9665H139.993V15.3432H140.476V16.9665H142.247V17.416H140.456V20.6962C140.44 20.8325 140.456 20.9706 140.502 21.0999C140.548 21.2292 140.623 21.3461 140.722 21.4415C140.82 21.5369 140.94 21.6082 141.07 21.65C141.201 21.6918 141.34 21.7028 141.475 21.6823C141.736 21.6812 141.993 21.6216 142.227 21.5079V21.964C141.967 22.0875 141.682 22.1494 141.395 22.1451C141.209 22.1598 141.023 22.1346 140.848 22.0711C140.673 22.0075 140.514 21.9072 140.381 21.7769C140.248 21.6465 140.144 21.4892 140.078 21.3155C140.011 21.1418 139.982 20.9558 139.993 20.77Z" fill="#122033"/>
<path d="M143.749 16.9531H144.259V18.402C144.437 17.9494 144.747 17.561 145.149 17.2881C145.552 17.0151 146.027 16.8702 146.513 16.8726V17.4093H146.466C145.286 17.4093 144.259 18.3014 144.259 19.9583V22.0378H143.77L143.749 16.9531Z" fill="#122033"/>
<path d="M147.184 19.5156C147.177 19.1663 147.239 18.8192 147.368 18.4944C147.496 18.1695 147.688 17.8736 147.933 17.6238C148.177 17.374 148.468 17.1754 148.79 17.0395C149.112 16.9036 149.458 16.8332 149.807 16.8324C150.152 16.8323 150.494 16.901 150.812 17.0343C151.131 17.1676 151.419 17.3629 151.662 17.6089C151.904 17.8548 152.095 18.1465 152.223 18.4669C152.352 18.7874 152.415 19.1302 152.41 19.4753C152.417 19.8246 152.354 20.1717 152.226 20.4965C152.097 20.8213 151.905 21.1173 151.661 21.3671C151.417 21.6169 151.125 21.8155 150.803 21.9514C150.482 22.0873 150.136 22.1577 149.787 22.1585C149.441 22.1595 149.099 22.0915 148.78 21.9585C148.461 21.8255 148.172 21.6302 147.93 21.384C147.687 21.1379 147.497 20.8458 147.369 20.525C147.241 20.2042 147.178 19.861 147.184 19.5156ZM151.88 19.5156C151.889 19.233 151.843 18.9513 151.742 18.6869C151.642 18.4225 151.49 18.1808 151.295 17.976C151.1 17.7711 150.867 17.6071 150.607 17.4937C150.348 17.3803 150.069 17.3196 149.787 17.3153C149.506 17.3178 149.229 17.3767 148.971 17.4885C148.714 17.6003 148.482 17.7627 148.288 17.9661C148.095 18.1695 147.944 18.4097 147.846 18.6724C147.747 18.9351 147.702 19.215 147.714 19.4955C147.704 19.7784 147.751 20.0604 147.851 20.3252C147.951 20.5899 148.103 20.832 148.298 21.0374C148.493 21.2429 148.726 21.4074 148.986 21.5216C149.245 21.6358 149.524 21.6972 149.807 21.7024C150.088 21.699 150.365 21.6393 150.623 21.5268C150.88 21.4143 151.112 21.2512 151.306 21.0473C151.499 20.8434 151.649 20.6027 151.748 20.3396C151.847 20.0765 151.891 19.7963 151.88 19.5156Z" fill="#122033"/>
<path d="M153.61 19.5089C153.587 19.1728 153.631 18.8354 153.741 18.5168C153.85 18.1983 154.023 17.905 154.248 17.6546C154.473 17.4042 154.747 17.2018 155.052 17.0593C155.358 16.9169 155.688 16.8374 156.025 16.8257C157.447 16.8257 158.36 17.9861 158.36 19.5089C158.367 19.5758 158.367 19.6432 158.36 19.7101H154.14C154.14 20.2438 154.352 20.7557 154.73 21.1331C155.107 21.5105 155.619 21.7225 156.153 21.7225C156.485 21.7242 156.813 21.6536 157.116 21.5158C157.418 21.378 157.687 21.1761 157.903 20.9243L158.239 21.2261C157.981 21.5318 157.658 21.776 157.294 21.9409C156.929 22.1057 156.532 22.1869 156.132 22.1787C155.788 22.1793 155.448 22.1095 155.132 21.9736C154.816 21.8377 154.531 21.6386 154.295 21.3885C154.059 21.1385 153.876 20.8427 153.758 20.5195C153.64 20.1962 153.59 19.8523 153.61 19.5089ZM157.83 19.2607C157.756 18.2276 157.159 17.2818 156.005 17.2818C155.501 17.3155 155.027 17.5377 154.679 17.9044C154.331 18.271 154.134 18.7552 154.127 19.2607H157.83Z" fill="#122033"/>
<path d="M159.822 16.9531H160.312V17.8989C160.488 17.5674 160.754 17.2918 161.078 17.1033C161.403 16.9148 161.774 16.8209 162.15 16.8324C162.424 16.8199 162.698 16.8662 162.953 16.9681C163.209 17.07 163.439 17.2252 163.63 17.4233C163.82 17.6214 163.966 17.8578 164.058 18.1168C164.15 18.3758 164.185 18.6514 164.162 18.9253V22.0378H163.713V19.0192C163.739 18.7949 163.716 18.5676 163.646 18.353C163.576 18.1384 163.46 17.9416 163.306 17.7763C163.153 17.611 162.965 17.4811 162.756 17.3958C162.547 17.3104 162.321 17.2715 162.096 17.2818C161.859 17.2789 161.624 17.3243 161.405 17.4153C161.186 17.5063 160.988 17.641 160.823 17.8111C160.658 17.9812 160.529 18.1833 160.444 18.4048C160.36 18.6264 160.322 18.8628 160.332 19.0997V22.0378H159.842L159.822 16.9531Z" fill="#122033"/>
<path d="M166.248 20.77V17.416H165.51V16.9665H166.248V15.3432H166.738V16.9665H168.522V17.416H166.738V20.6962C166.722 20.8318 166.738 20.9693 166.783 21.098C166.829 21.2267 166.904 21.3431 167.002 21.4384C167.1 21.5337 167.218 21.6052 167.348 21.6475C167.478 21.6898 167.616 21.7017 167.751 21.6823C168.011 21.6818 168.268 21.6222 168.502 21.5079V21.964C168.245 22.0869 167.962 22.1489 167.677 22.1451C167.489 22.164 167.3 22.1418 167.122 22.0801C166.943 22.0184 166.781 21.9187 166.645 21.7879C166.509 21.6571 166.403 21.4983 166.334 21.3226C166.266 21.1468 166.237 20.9582 166.248 20.77Z" fill="#122033"/>
<path d="M169.508 19.5089C169.486 19.173 169.531 18.836 169.641 18.5178C169.75 18.1997 169.923 17.9068 170.148 17.6566C170.374 17.4064 170.647 17.2039 170.952 17.0612C171.256 16.9184 171.587 16.8384 171.923 16.8257C173.352 16.8257 174.258 17.9861 174.258 19.5089C174.261 19.5759 174.261 19.6431 174.258 19.7101H170.038C170.038 20.2438 170.25 20.7557 170.628 21.1331C171.005 21.5105 171.517 21.7225 172.051 21.7225C172.382 21.725 172.71 21.6548 173.011 21.5169C173.313 21.379 173.58 21.1767 173.795 20.9243L174.137 21.2261C173.879 21.5318 173.556 21.776 173.192 21.9409C172.827 22.1057 172.43 22.1869 172.031 22.1787C171.687 22.1783 171.347 22.1078 171.031 21.9716C170.716 21.8354 170.431 21.6363 170.195 21.3864C169.959 21.1366 169.776 20.8412 169.658 20.5184C169.54 20.1956 169.489 19.8521 169.508 19.5089ZM173.728 19.2607C173.661 18.2276 173.057 17.2818 171.903 17.2818C171.4 17.3171 170.928 17.54 170.582 17.9065C170.235 18.273 170.039 18.7563 170.032 19.2607H173.728Z" fill="#122033"/>
<path d="M175.727 16.9531H176.216V18.402C176.393 17.9489 176.703 17.56 177.105 17.2869C177.508 17.0138 177.984 16.8693 178.47 16.8726V17.4093H178.417C177.243 17.4093 176.216 18.3014 176.216 19.9583V22.0378H175.727V16.9531Z" fill="#122033"/>
<path d="M179.141 19.5156C179.135 19.166 179.198 18.8187 179.327 18.4939C179.457 18.169 179.649 17.8731 179.894 17.6234C180.139 17.3737 180.431 17.1752 180.753 17.0394C181.075 16.9036 181.421 16.8332 181.771 16.8324C182.116 16.8323 182.458 16.901 182.776 17.0343C183.094 17.1676 183.383 17.3629 183.625 17.6089C183.868 17.8548 184.058 18.1465 184.187 18.4669C184.315 18.7874 184.379 19.1302 184.373 19.4753C184.373 20.1692 184.098 20.8346 183.607 21.3252C183.116 21.8158 182.451 22.0915 181.757 22.0915C181.063 22.0915 180.398 21.8158 179.907 21.3252C179.417 20.8346 179.141 20.1692 179.141 19.4753V19.5156ZM183.837 19.5156C183.846 19.233 183.8 18.9513 183.7 18.6869C183.599 18.4225 183.447 18.1808 183.252 17.976C183.057 17.7711 182.824 17.6071 182.565 17.4937C182.306 17.3803 182.026 17.3196 181.744 17.3153C181.463 17.3178 181.185 17.3767 180.927 17.4884C180.67 17.6001 180.437 17.7624 180.243 17.9657C180.049 18.169 179.898 18.4091 179.799 18.6719C179.699 18.9347 179.653 19.2147 179.664 19.4955C179.654 19.7789 179.701 20.0615 179.802 20.3267C179.903 20.5919 180.055 20.8343 180.251 21.0398C180.446 21.2453 180.681 21.4097 180.941 21.5235C181.2 21.6373 181.48 21.6981 181.764 21.7024C182.045 21.699 182.322 21.6393 182.58 21.5268C182.837 21.4143 183.069 21.2512 183.263 21.0473C183.456 20.8434 183.606 20.6027 183.705 20.3396C183.804 20.0765 183.848 19.7963 183.837 19.5156Z" fill="#122033"/>
<path d="M186.003 14.7328H186.52V22.011H186.03L186.003 14.7328Z" fill="#122033"/>
<path d="M188.11 19.5156C188.092 19.1613 188.146 18.8071 188.269 18.4745C188.392 18.1419 188.582 17.8378 188.826 17.5807C189.071 17.3236 189.365 17.1189 189.691 16.979C190.017 16.8391 190.368 16.767 190.722 16.767C191.077 16.767 191.428 16.8391 191.754 16.979C192.08 17.1189 192.374 17.3236 192.619 17.5807C192.863 17.8378 193.052 18.1419 193.176 18.4745C193.299 18.8071 193.353 19.1613 193.335 19.5156C193.342 19.8648 193.28 20.212 193.151 20.5368C193.023 20.8616 192.831 21.1575 192.587 21.4073C192.342 21.6571 192.051 21.8558 191.729 21.9917C191.407 22.1276 191.062 22.198 190.712 22.1988C190.363 22.1999 190.018 22.1306 189.696 21.9951C189.375 21.8597 189.084 21.6608 188.841 21.4103C188.598 21.1598 188.408 20.8629 188.282 20.5374C188.157 20.2118 188.098 19.8643 188.11 19.5156ZM192.805 19.5156C192.815 19.233 192.769 18.9513 192.668 18.6869C192.568 18.4225 192.416 18.1808 192.221 17.976C192.026 17.7711 191.792 17.6071 191.533 17.4937C191.274 17.3803 190.995 17.3196 190.712 17.3153C190.431 17.3178 190.154 17.3767 189.896 17.4884C189.638 17.6001 189.406 17.7624 189.212 17.9657C189.018 18.169 188.867 18.4091 188.767 18.6719C188.668 18.9347 188.622 19.2147 188.633 19.4955C188.623 19.7789 188.67 20.0615 188.771 20.3267C188.871 20.5919 189.024 20.8343 189.219 21.0398C189.415 21.2453 189.649 21.4097 189.909 21.5235C190.169 21.6373 190.449 21.6981 190.732 21.7024C191.013 21.699 191.291 21.6393 191.548 21.5268C191.806 21.4143 192.038 21.2512 192.231 21.0473C192.425 20.8434 192.575 20.6027 192.674 20.3396C192.772 20.0765 192.817 19.7963 192.805 19.5156Z" fill="#122033"/>
<path d="M194.784 22.8763L195.073 22.4805C195.656 22.9452 196.379 23.1983 197.125 23.1983C197.393 23.227 197.664 23.1961 197.918 23.1077C198.173 23.0194 198.405 22.8758 198.597 22.6872C198.789 22.4987 198.938 22.2699 199.031 22.0173C199.125 21.7647 199.161 21.4945 199.138 21.2261V20.4815C198.913 20.8411 198.6 21.1379 198.23 21.3443C197.859 21.5507 197.442 21.66 197.018 21.6621C196.7 21.6666 196.384 21.608 196.088 21.4899C195.793 21.3718 195.523 21.1964 195.296 20.9739C195.068 20.7513 194.887 20.486 194.762 20.1931C194.638 19.9003 194.572 19.5856 194.569 19.2674C194.57 18.9477 194.635 18.6313 194.758 18.3365C194.882 18.0417 195.063 17.7743 195.291 17.5498C195.518 17.3253 195.788 17.1481 196.085 17.0284C196.381 16.9087 196.698 16.8489 197.018 16.8525C197.439 16.8496 197.853 16.9526 198.223 17.1518C198.594 17.3511 198.908 17.6403 199.138 17.9928V16.9732H199.627V21.2731C199.638 21.5909 199.584 21.9076 199.469 22.2039C199.354 22.5002 199.179 22.7701 198.957 22.997C198.455 23.456 197.791 23.6972 197.112 23.6678C196.27 23.669 195.451 23.3905 194.784 22.8763ZM199.151 19.2607C199.142 18.9946 199.079 18.733 198.968 18.4911C198.857 18.2492 198.699 18.0318 198.503 17.8515C198.307 17.6712 198.077 17.5315 197.827 17.4406C197.577 17.3498 197.311 17.3095 197.045 17.322C196.787 17.31 196.529 17.3512 196.288 17.4431C196.047 17.5351 195.827 17.6758 195.643 17.8564C195.458 18.0371 195.313 18.2539 195.216 18.4932C195.119 18.7325 195.073 18.9892 195.079 19.2472C195.077 19.5049 195.127 19.7604 195.226 19.9985C195.324 20.2367 195.469 20.4528 195.652 20.634C195.835 20.8153 196.053 20.9581 196.292 21.054C196.531 21.15 196.787 21.1971 197.045 21.1926C197.31 21.2052 197.575 21.1651 197.825 21.0746C198.075 20.9842 198.305 20.8451 198.5 20.6655C198.696 20.4859 198.855 20.2693 198.966 20.0282C199.078 19.787 199.141 19.5262 199.151 19.2607Z" fill="#122033"/>
<path d="M201.512 14.9608H202.123V15.6316H201.512V14.9608ZM201.573 16.9732H202.062V22.0579H201.573V16.9732Z" fill="#122033"/>
<path d="M203.679 19.5156C203.668 18.9731 203.826 18.4406 204.131 17.9919C204.436 17.5432 204.873 17.2004 205.381 17.011C205.89 16.8216 206.445 16.795 206.969 16.9349C207.493 17.0747 207.961 17.3741 208.308 17.7916L207.959 18.1471C207.751 17.8965 207.492 17.6929 207.199 17.5495C206.907 17.4061 206.587 17.3263 206.262 17.3153C205.983 17.3214 205.708 17.3828 205.454 17.4961C205.199 17.6094 204.969 17.7722 204.778 17.9752C204.587 18.1781 204.438 18.417 204.341 18.6781C204.243 18.9391 204.198 19.2169 204.209 19.4955C204.2 19.7781 204.247 20.0598 204.348 20.3241C204.448 20.5885 204.6 20.8303 204.795 21.0355C204.99 21.2407 205.223 21.4053 205.482 21.5198C205.74 21.6343 206.019 21.6963 206.302 21.7024C206.632 21.693 206.956 21.6119 207.251 21.4648C207.546 21.3177 207.806 21.1081 208.012 20.8505L208.348 21.1523C208.015 21.5952 207.551 21.9208 207.021 22.0822C206.492 22.2436 205.925 22.2324 205.402 22.0502C204.879 21.8679 204.428 21.5242 204.113 21.0685C203.799 20.6129 203.637 20.069 203.652 19.5156H203.679Z" fill="#122033"/>
<path d="M209.327 20.562C209.327 19.5089 210.233 18.9118 211.547 18.9118C212.118 18.9059 212.687 18.9781 213.238 19.1265V18.9118C213.255 18.6926 213.221 18.4725 213.141 18.2678C213.061 18.0631 212.936 17.8791 212.774 17.7296C212.613 17.58 212.421 17.4687 212.21 17.404C212 17.3392 211.778 17.3227 211.561 17.3556C211.004 17.3596 210.457 17.4977 209.964 17.7581L209.783 17.3355C210.343 17.0508 210.96 16.8993 211.588 16.8927C211.88 16.8739 212.172 16.9134 212.449 17.009C212.725 17.1046 212.98 17.2543 213.198 17.4495C213.376 17.6429 213.514 17.8702 213.603 18.118C213.692 18.3658 213.729 18.629 213.714 18.8917V22.0579H213.238V21.2127C213.017 21.5206 212.725 21.7696 212.386 21.9381C212.046 22.1065 211.671 22.1891 211.293 22.1787C210.367 22.1585 209.327 21.6219 209.327 20.562ZM213.245 20.1327V19.5558C212.682 19.4066 212.103 19.33 211.521 19.3277C210.441 19.3277 209.844 19.804 209.844 20.5151C209.844 21.2529 210.514 21.6823 211.319 21.6823C212.379 21.7024 213.265 21.0651 213.265 20.1327H213.245Z" fill="#122033"/>
<path d="M215.599 14.7328H216.089V22.011H215.599V14.7328Z" fill="#122033"/>
<path d="M123.86 25.9217H124.357L127.61 32.9585H127.04L126.148 30.9997H122.029L121.137 32.9585H120.6L123.86 25.9217ZM125.933 30.5301L124.095 26.5053L122.25 30.5301H125.933Z" fill="#122033"/>
<path d="M128.576 32.3145L128.864 31.9254C129.383 32.3464 130.028 32.5824 130.696 32.5962C131.366 32.5962 131.917 32.2139 131.917 31.6303C131.917 31.0333 131.279 30.8119 130.575 30.6106C129.743 30.3692 128.824 30.121 128.824 29.2154C128.835 29.0101 128.887 28.8093 128.979 28.6253C129.07 28.4413 129.199 28.2781 129.356 28.1459C129.513 28.0138 129.696 27.9154 129.893 27.8571C130.09 27.7987 130.297 27.7816 130.501 27.8067C131.143 27.8204 131.768 28.0132 132.306 28.3635L132.051 28.7726C131.587 28.4579 131.042 28.2833 130.481 28.2695C129.81 28.2695 129.327 28.6452 129.327 29.155C129.327 29.7252 129.998 29.9331 130.743 30.1411C131.487 30.349 132.42 30.671 132.42 31.5699C132.408 31.7851 132.353 31.9956 132.257 32.1886C132.161 32.3815 132.027 32.5527 131.862 32.6916C131.697 32.8306 131.506 32.9343 131.299 32.9963C131.093 33.0583 130.876 33.0774 130.662 33.0524C129.905 33.0403 129.172 32.7812 128.576 32.3145Z" fill="#122033"/>
<path d="M133.473 32.3145L133.768 31.9254C134.284 32.3472 134.926 32.5835 135.593 32.5962C136.263 32.5962 136.82 32.2139 136.82 31.6303C136.82 31.0332 136.149 30.8119 135.478 30.6106C134.647 30.3691 133.734 30.121 133.734 29.2154C133.745 29.0108 133.797 28.8105 133.888 28.627C133.98 28.4435 134.107 28.2807 134.264 28.1486C134.421 28.0166 134.603 27.9181 134.799 27.8592C134.995 27.8004 135.201 27.7825 135.405 27.8067C136.048 27.8213 136.675 28.014 137.216 28.3635L136.954 28.7726C136.49 28.4579 135.945 28.2833 135.385 28.2695C134.714 28.2695 134.231 28.6452 134.231 29.155C134.231 29.7252 134.902 29.9331 135.646 30.1411C136.391 30.349 137.323 30.671 137.323 31.5699C137.312 31.7851 137.256 31.9956 137.161 32.1885C137.065 32.3815 136.93 32.5527 136.765 32.6916C136.601 32.8306 136.409 32.9342 136.203 32.9963C135.997 33.0583 135.78 33.0774 135.566 33.0524C134.806 33.0418 134.071 32.7826 133.473 32.3145Z" fill="#122033"/>
<path d="M138.564 30.4295C138.557 30.0803 138.62 29.7331 138.748 29.4083C138.877 29.0835 139.069 28.7876 139.313 28.5378C139.557 28.288 139.848 28.0893 140.17 27.9534C140.492 27.8175 140.838 27.7471 141.187 27.7463C141.532 27.7463 141.874 27.8149 142.192 27.9482C142.511 28.0815 142.8 28.2768 143.042 28.5228C143.284 28.7688 143.475 29.0605 143.603 29.3809C143.732 29.7013 143.795 30.0441 143.79 30.3893C143.797 30.7385 143.734 31.0857 143.606 31.4105C143.477 31.7353 143.285 32.0312 143.041 32.281C142.797 32.5308 142.505 32.7295 142.184 32.8654C141.862 33.0013 141.516 33.0717 141.167 33.0725C140.821 33.0734 140.479 33.0054 140.16 32.8724C139.842 32.7394 139.552 32.5442 139.31 32.298C139.068 32.0519 138.877 31.7598 138.749 31.439C138.621 31.1181 138.558 30.7749 138.564 30.4295ZM143.26 30.4295C143.27 30.1469 143.223 29.8652 143.123 29.6009C143.022 29.3365 142.87 29.0948 142.675 28.8899C142.48 28.685 142.247 28.5211 141.988 28.4076C141.729 28.2942 141.45 28.2336 141.167 28.2293C140.886 28.2317 140.609 28.2906 140.352 28.4024C140.094 28.5142 139.862 28.6766 139.668 28.88C139.475 29.0834 139.325 29.3236 139.226 29.5864C139.127 29.8491 139.082 30.129 139.094 30.4094C139.084 30.6923 139.131 30.9744 139.231 31.2391C139.331 31.5038 139.483 31.746 139.678 31.9514C139.873 32.1568 140.107 32.3214 140.366 32.4356C140.625 32.5497 140.904 32.6112 141.187 32.6163C141.468 32.613 141.745 32.5533 142.003 32.4408C142.26 32.3282 142.493 32.1652 142.686 31.9613C142.879 31.7573 143.03 31.5167 143.128 31.2536C143.227 30.9905 143.271 30.7103 143.26 30.4295Z" fill="#122033"/>
<path d="M144.99 30.4295C144.98 29.7308 145.246 29.0563 145.731 28.5535C146.217 28.0506 146.881 27.7604 147.58 27.7463C147.963 27.7501 148.341 27.8359 148.688 27.9979C149.035 28.1599 149.343 28.3943 149.592 28.6854L149.243 29.0477C149.036 28.7955 148.778 28.5904 148.485 28.4458C148.192 28.3012 147.872 28.2206 147.546 28.2092C147.267 28.2143 146.992 28.2751 146.737 28.3881C146.482 28.5011 146.252 28.6639 146.061 28.867C145.87 29.0701 145.721 29.3094 145.624 29.5709C145.526 29.8323 145.482 30.1105 145.494 30.3893C145.485 30.672 145.532 30.9536 145.632 31.218C145.733 31.4823 145.885 31.7241 146.08 31.9293C146.274 32.1345 146.508 32.2991 146.766 32.4136C147.025 32.5281 147.304 32.5902 147.586 32.5962C147.915 32.5867 148.237 32.5062 148.531 32.3603C148.825 32.2144 149.084 32.0065 149.29 31.751L149.632 32.0462C149.3 32.489 148.836 32.8147 148.306 32.9761C147.776 33.1375 147.209 33.1262 146.686 32.944C146.164 32.7618 145.712 32.418 145.398 31.9623C145.083 31.5067 144.922 30.9628 144.937 30.4094L144.99 30.4295Z" fill="#122033"/>
<path d="M151.081 25.8748H151.692V26.5456H151.081V25.8748ZM151.142 27.8872H151.638V32.9786H151.148L151.142 27.8872Z" fill="#122033"/>
<path d="M153.181 31.5028C153.181 30.4496 154.087 29.8526 155.401 29.8526C155.972 29.8467 156.541 29.9189 157.092 30.0673V29.8526C157.108 29.6334 157.075 29.4133 156.995 29.2086C156.915 29.0039 156.789 28.8199 156.628 28.6704C156.467 28.5208 156.274 28.4095 156.064 28.3448C155.854 28.28 155.632 28.2635 155.415 28.2964C154.857 28.2995 154.309 28.4401 153.818 28.7056L153.637 28.2762C154.196 27.99 154.814 27.8383 155.442 27.8335C155.733 27.8147 156.026 27.8542 156.303 27.9498C156.579 28.0454 156.834 28.1951 157.052 28.3903C157.23 28.5836 157.368 28.811 157.457 29.0588C157.545 29.3066 157.583 29.5697 157.568 29.8325V33.0054H157.092V32.1065C156.871 32.4144 156.579 32.6635 156.239 32.8319C155.9 33.0003 155.525 33.0829 155.146 33.0725C154.194 33.0725 153.181 32.5358 153.181 31.5028ZM157.098 31.0735V30.4966C156.536 30.3474 155.957 30.2708 155.375 30.2685C154.295 30.2685 153.697 30.7448 153.697 31.4558C153.697 32.1937 154.368 32.623 155.173 32.623C156.213 32.6163 157.098 31.9791 157.098 31.0467V31.0735Z" fill="#122033"/>
<path d="M159.587 31.6504V28.2964H158.849V27.8469H159.587V26.2236H160.07V27.8469H161.861V28.2964H160.07V31.5766C160.054 31.7129 160.07 31.8511 160.116 31.9803C160.162 32.1096 160.237 32.2265 160.336 32.3219C160.435 32.4173 160.554 32.4887 160.685 32.5304C160.815 32.5722 160.954 32.5832 161.09 32.5627C161.35 32.5616 161.607 32.502 161.841 32.3883V32.8444C161.581 32.9679 161.297 33.0299 161.009 33.0255C160.822 33.0433 160.633 33.0204 160.456 32.9582C160.278 32.8961 160.117 32.7962 159.981 32.6655C159.846 32.5348 159.741 32.3764 159.673 32.2012C159.605 32.0259 159.576 31.838 159.587 31.6504Z" fill="#122033"/>
<path d="M163.357 25.8748H163.961V26.5456H163.357V25.8748ZM163.417 27.8872H163.907V32.9786H163.417V27.8872Z" fill="#122033"/>
<path d="M165.517 30.4295C165.517 29.7357 165.793 29.0703 166.283 28.5796C166.774 28.089 167.439 27.8134 168.133 27.8134C168.827 27.8134 169.492 28.089 169.983 28.5796C170.474 29.0703 170.749 29.7357 170.749 30.4295C170.749 31.1234 170.474 31.7888 169.983 32.2794C169.492 32.77 168.827 33.0457 168.133 33.0457C167.439 33.0457 166.774 32.77 166.283 32.2794C165.793 31.7888 165.517 31.1234 165.517 30.4295ZM170.213 30.4295C170.222 30.1469 170.176 29.8652 170.076 29.6009C169.975 29.3365 169.823 29.0948 169.628 28.8899C169.433 28.685 169.2 28.5211 168.941 28.4076C168.682 28.2942 168.402 28.2336 168.12 28.2293C167.839 28.2318 167.561 28.2906 167.303 28.4023C167.046 28.514 166.813 28.6764 166.619 28.8797C166.425 29.0829 166.274 29.3231 166.175 29.5858C166.075 29.8486 166.029 30.1287 166.04 30.4094C166.03 30.6923 166.077 30.9744 166.177 31.2391C166.278 31.5038 166.43 31.746 166.624 31.9514C166.819 32.1568 167.053 32.3214 167.312 32.4356C167.571 32.5497 167.85 32.6112 168.133 32.6163C168.415 32.6148 168.694 32.5564 168.953 32.4447C169.212 32.3329 169.446 32.1702 169.641 31.9661C169.835 31.7619 169.987 31.5207 170.086 31.2567C170.186 30.9927 170.231 30.7114 170.219 30.4295H170.213Z" fill="#122033"/>
<path d="M172.292 27.8671H172.782V28.8196C172.958 28.488 173.224 28.2124 173.549 28.0239C173.873 27.8354 174.244 27.7416 174.62 27.753C174.895 27.7416 175.169 27.7888 175.424 27.8914C175.679 27.9941 175.91 28.1499 176.1 28.3485C176.29 28.5471 176.436 28.784 176.528 29.0433C176.62 29.3026 176.655 29.5785 176.632 29.8526V32.9652H176.143V29.9398C176.169 29.7156 176.146 29.4883 176.076 29.2737C176.006 29.0591 175.89 28.8623 175.736 28.697C175.583 28.5317 175.395 28.4018 175.186 28.3164C174.977 28.231 174.751 28.1921 174.526 28.2025C174.289 28.1995 174.054 28.2449 173.835 28.3359C173.616 28.4269 173.418 28.5616 173.253 28.7318C173.088 28.9019 172.959 29.1039 172.874 29.3255C172.79 29.547 172.752 29.7835 172.762 30.0203V32.9652H172.272L172.292 27.8671Z" fill="#122033"/>
<path d="M56.9473 32.7707C56.7394 31.8248 56.5918 31.0131 56.5113 30.3289C56.4226 29.6371 56.3778 28.9403 56.3772 28.2427C55.3005 29.7496 53.8941 30.9908 52.2652 31.8718C50.4955 32.8453 48.5024 33.3401 46.4828 33.3073C43.7594 33.3073 41.6531 32.6052 40.1639 31.201C39.4053 30.4587 38.8137 29.5632 38.4285 28.5742C38.0433 27.5852 37.8734 26.5254 37.9301 25.4656C37.9047 24.247 38.1969 23.0428 38.7779 21.9714C39.3589 20.8999 40.2087 19.9981 41.2439 19.3546C43.4486 17.8475 46.4471 17.0918 50.2393 17.0873H56.3839V13.418C56.4317 12.5427 56.285 11.6677 55.9544 10.8558C55.6239 10.044 55.1177 9.31537 54.4721 8.72238C53.1976 7.59543 51.4065 7.02525 49.1057 7.02525C47.6725 7.01084 46.2461 7.22367 44.8796 7.65581C43.7148 8.01921 42.6291 8.59959 41.6799 9.36636L41.425 13.096H38.8759V7.7296C40.271 6.67628 41.8303 5.86036 43.4911 5.31472C45.3313 4.68988 47.2629 4.377 49.2063 4.389C52.2786 4.389 54.7404 5.16713 56.5851 6.72339C58.4298 8.27966 59.3824 10.5201 59.3824 13.4314V27.1091C59.3824 27.6726 59.3958 28.2159 59.4226 28.7391C59.4472 29.2519 59.5032 29.7627 59.5903 30.2686L62.3674 30.4497V32.7103L56.9473 32.7707ZM46.8182 30.5838C48.8865 30.6253 50.9256 30.0911 52.7079 29.041C54.3097 28.1173 55.592 26.7274 56.3839 25.0564V19.4821H50.1857C47.3951 19.4821 45.1591 20.0612 43.4776 21.2194C42.7171 21.6723 42.0858 22.313 41.6441 23.08C41.2024 23.847 40.9653 24.7147 40.9554 25.5998C40.9323 26.2789 41.0598 26.9547 41.3289 27.5787C41.598 28.2027 42.0019 28.7594 42.5117 29.2087C43.7242 30.1905 45.2611 30.6813 46.8182 30.5838Z" fill="#122033"/>
<path d="M63.7627 19.093C63.7627 14.6567 64.7085 11.106 66.6002 8.44064C67.465 7.15652 68.6421 6.11339 70.0209 5.40932C71.3997 4.70525 72.9349 4.36338 74.4821 4.41583C76.2767 4.37053 78.0493 4.81833 79.6071 5.71048C81.0902 6.61052 82.3223 7.87027 83.1891 9.37306L83.5514 4.92565H86.1474V32.3749C86.1474 35.9525 85.1792 38.7788 83.2428 40.8538C81.3064 42.9288 78.6143 43.9775 75.1663 43.9999C73.7264 43.9893 72.2917 43.8252 70.8866 43.5102C69.5118 43.2315 68.1776 42.7808 66.9155 42.1686L67.7406 39.5726C68.8638 40.1052 70.0396 40.5189 71.2489 40.8069C72.5178 41.1016 73.8167 41.2479 75.1194 41.2429C77.7579 41.2429 79.7434 40.4625 81.0761 38.9018C82.4088 37.341 83.0796 35.1744 83.0885 32.4017V28.8867C82.1955 30.2643 80.9677 31.3929 79.5199 32.1669C77.9504 32.9558 76.2114 33.3473 74.4553 33.3073C72.944 33.3715 71.4398 33.0659 70.0733 32.4172C68.7068 31.7684 67.5192 30.796 66.6136 29.5843C64.713 27.0979 63.7627 23.7819 63.7627 19.6363V19.093ZM66.8484 19.6363C66.8484 22.9769 67.5192 25.6445 68.8608 27.639C70.2024 29.6335 72.2372 30.633 74.9651 30.6375C76.7287 30.7096 78.4722 30.2416 79.9626 29.2959C81.3172 28.3551 82.3815 27.0538 83.0348 25.5394V12.6197C82.4055 11.0661 81.3895 9.69912 80.0833 8.64859C78.6203 7.5735 76.8323 7.03357 75.0188 7.11916C73.7881 7.06608 72.5664 7.35051 71.4857 7.94168C70.4051 8.53284 69.5067 9.40824 68.8876 10.4732C67.5058 12.7092 66.8171 15.5869 66.8216 19.1064L66.8484 19.6363Z" fill="#122033"/>
<path d="M109.223 32.7707C109.015 31.8248 108.867 31.0131 108.787 30.3289C108.698 29.6371 108.653 28.9403 108.653 28.2427C107.576 29.7496 106.17 30.9908 104.541 31.8718C102.771 32.8453 100.778 33.3401 98.7585 33.3073C96.035 33.3073 93.9287 32.6052 92.4395 31.201C91.6844 30.4617 91.0948 29.5706 90.7097 28.5865C90.3247 27.6025 90.1529 26.5478 90.2057 25.4924C90.1803 24.2739 90.4725 23.0697 91.0535 21.9982C91.6345 20.9267 92.4844 20.0249 93.5195 19.3814C95.7287 17.8744 98.7272 17.1186 102.515 17.1141H108.653V13.4448C108.701 12.5696 108.554 11.6946 108.223 10.8827C107.893 10.0708 107.387 9.34221 106.741 8.74922C105.466 7.62227 103.675 7.05209 101.375 7.05209C99.9414 7.03768 98.5151 7.25051 97.1485 7.68265C95.9837 8.04605 94.898 8.62642 93.9488 9.39318L93.6939 13.1229H91.1449V7.75644C92.5399 6.70312 94.0993 5.88719 95.76 5.34154C97.6002 4.71671 99.5319 4.40383 101.475 4.41583C104.547 4.41583 107.009 5.19397 108.854 6.75023C110.699 8.30649 111.651 10.547 111.651 13.4583V27.1359C111.651 27.6994 111.665 28.2427 111.692 28.766C111.716 29.2787 111.772 29.7895 111.859 30.2954L114.636 30.4765V32.7371L109.223 32.7707ZM99.0939 30.5838C101.162 30.6253 103.201 30.0911 104.984 29.041C106.583 28.1162 107.863 26.7264 108.653 25.0564V19.4821H102.461C99.6708 19.4821 97.4347 20.0612 95.7533 21.2194C95.0015 21.678 94.3795 22.3212 93.9462 23.0878C93.513 23.8545 93.283 24.7192 93.278 25.5998C93.2549 26.2789 93.3824 26.9547 93.6515 27.5787C93.9206 28.2027 94.3245 28.7594 94.8343 29.2087C96.0345 30.1793 97.5526 30.6694 99.0939 30.5838Z" fill="#122033"/>
<path d="M56.9473 32.7707C56.7394 31.8248 56.5918 31.0131 56.5113 30.3289C56.4226 29.6371 56.3778 28.9403 56.3772 28.2427C55.3005 29.7496 53.8941 30.9908 52.2652 31.8718C50.4955 32.8453 48.5024 33.3401 46.4828 33.3073C43.7594 33.3073 41.6531 32.6052 40.1639 31.201C39.4053 30.4587 38.8137 29.5632 38.4285 28.5742C38.0433 27.5852 37.8734 26.5254 37.9301 25.4656C37.9047 24.247 38.1969 23.0428 38.7779 21.9714C39.3589 20.8999 40.2087 19.9981 41.2439 19.3546C43.4486 17.8475 46.4471 17.0918 50.2393 17.0873H56.3839V13.418C56.4317 12.5427 56.285 11.6677 55.9544 10.8558C55.6239 10.044 55.1177 9.31537 54.4721 8.72238C53.1976 7.59543 51.4065 7.02525 49.1057 7.02525C47.6725 7.01084 46.2461 7.22367 44.8796 7.65581C43.7148 8.01921 42.6291 8.59959 41.6799 9.36636L41.425 13.096H38.8759V7.7296C40.271 6.67628 41.8303 5.86036 43.4911 5.31472C45.3313 4.68988 47.2629 4.377 49.2063 4.389C52.2786 4.389 54.7404 5.16713 56.5851 6.72339C58.4298 8.27966 59.3824 10.5201 59.3824 13.4314V27.1091C59.3824 27.6726 59.3958 28.2159 59.4226 28.7391C59.4472 29.2519 59.5032 29.7627 59.5903 30.2686L62.3674 30.4497V32.7103L56.9473 32.7707ZM46.8182 30.5838C48.8865 30.6253 50.9256 30.0911 52.7079 29.041C54.3097 28.1173 55.592 26.7274 56.3839 25.0564V19.4821H50.1857C47.3951 19.4821 45.1591 20.0612 43.4776 21.2194C42.7171 21.6723 42.0858 22.313 41.6441 23.08C41.2024 23.847 40.9653 24.7147 40.9554 25.5998C40.9323 26.2789 41.0598 26.9547 41.3289 27.5787C41.598 28.2027 42.0019 28.7594 42.5117 29.2087C43.7242 30.1905 45.2611 30.6813 46.8182 30.5838Z" stroke="#122033" stroke-width="0.74" stroke-miterlimit="10"/>
<path d="M63.7627 19.093C63.7627 14.6567 64.7085 11.106 66.6002 8.44064C67.465 7.15652 68.6421 6.11339 70.0209 5.40932C71.3997 4.70525 72.9349 4.36338 74.4821 4.41583C76.2767 4.37053 78.0493 4.81833 79.6071 5.71048C81.0902 6.61052 82.3223 7.87027 83.1891 9.37306L83.5514 4.92565H86.1474V32.3749C86.1474 35.9525 85.1792 38.7788 83.2428 40.8538C81.3064 42.9288 78.6143 43.9775 75.1663 43.9999C73.7264 43.9893 72.2917 43.8252 70.8866 43.5102C69.5118 43.2315 68.1776 42.7808 66.9155 42.1686L67.7406 39.5726C68.8638 40.1052 70.0396 40.5189 71.2489 40.8069C72.5178 41.1016 73.8167 41.2479 75.1194 41.2429C77.7579 41.2429 79.7434 40.4625 81.0761 38.9018C82.4088 37.341 83.0796 35.1744 83.0885 32.4017V28.8867C82.1955 30.2643 80.9677 31.3929 79.5199 32.1669C77.9504 32.9558 76.2114 33.3473 74.4553 33.3073C72.944 33.3715 71.4398 33.0659 70.0733 32.4172C68.7068 31.7684 67.5192 30.796 66.6136 29.5843C64.713 27.0979 63.7627 23.7819 63.7627 19.6363V19.093ZM66.8484 19.6363C66.8484 22.9769 67.5192 25.6445 68.8608 27.639C70.2024 29.6335 72.2372 30.633 74.9651 30.6375C76.7287 30.7096 78.4722 30.2416 79.9626 29.2959C81.3172 28.3551 82.3815 27.0538 83.0348 25.5394V12.6197C82.4055 11.0661 81.3895 9.69912 80.0833 8.64859C78.6203 7.5735 76.8323 7.03357 75.0188 7.11916C73.7881 7.06608 72.5664 7.35051 71.4857 7.94168C70.4051 8.53284 69.5067 9.40824 68.8876 10.4732C67.5058 12.7092 66.8171 15.5869 66.8216 19.1064L66.8484 19.6363Z" stroke="#122033" stroke-width="0.74" stroke-miterlimit="10"/>
<path d="M109.223 32.7707C109.015 31.8248 108.867 31.0131 108.787 30.3289C108.698 29.6371 108.653 28.9403 108.653 28.2427C107.576 29.7496 106.17 30.9908 104.541 31.8718C102.771 32.8453 100.778 33.3401 98.7585 33.3073C96.035 33.3073 93.9287 32.6052 92.4395 31.201C91.6844 30.4617 91.0948 29.5706 90.7097 28.5865C90.3247 27.6025 90.1529 26.5478 90.2057 25.4924C90.1803 24.2739 90.4725 23.0697 91.0535 21.9982C91.6345 20.9267 92.4844 20.0249 93.5195 19.3814C95.7287 17.8744 98.7272 17.1186 102.515 17.1141H108.653V13.4448C108.701 12.5696 108.554 11.6946 108.223 10.8827C107.893 10.0708 107.387 9.34221 106.741 8.74922C105.466 7.62227 103.675 7.05209 101.375 7.05209C99.9414 7.03768 98.5151 7.25051 97.1485 7.68265C95.9837 8.04605 94.898 8.62642 93.9488 9.39318L93.6939 13.1229H91.1449V7.75644C92.5399 6.70312 94.0993 5.88719 95.76 5.34154C97.6002 4.71671 99.5319 4.40383 101.475 4.41583C104.547 4.41583 107.009 5.19397 108.854 6.75023C110.699 8.30649 111.651 10.547 111.651 13.4583V27.1359C111.651 27.6994 111.665 28.2427 111.692 28.766C111.716 29.2787 111.772 29.7895 111.859 30.2954L114.636 30.4765V32.7371L109.223 32.7707ZM99.0939 30.5838C101.162 30.6253 103.201 30.0911 104.984 29.041C106.583 28.1162 107.863 26.7264 108.653 25.0564V19.4821H102.461C99.6708 19.4821 97.4347 20.0612 95.7533 21.2194C95.0015 21.678 94.3795 22.3212 93.9462 23.0878C93.513 23.8545 93.283 24.7192 93.278 25.5998C93.2549 26.2789 93.3824 26.9547 93.6515 27.5787C93.9206 28.2027 94.3245 28.7594 94.8343 29.2087C96.0345 30.1793 97.5526 30.6694 99.0939 30.5838Z" stroke="#122033" stroke-width="0.74" stroke-miterlimit="10"/>
</svg>
