<svg width="160" height="104" viewBox="0 0 160 104" fill="none" xmlns="http://www.w3.org/2000/svg">
<path d="M75.7475 98.2706C100.931 98.2706 121.344 77.5484 121.344 51.9851C121.344 26.4253 100.931 5.70094 75.7475 5.70094C50.5704 5.70094 30.1562 26.4249 30.1562 51.9851C30.1562 77.548 50.5704 98.2706 75.7475 98.2706Z" fill="#FDB827"/>
<path d="M96.5316 56.7208C92.2734 61.8875 89.8579 63.6569 85.5317 63.6569C84.0591 63.6569 83.292 63.3252 83.7064 62.6126L88.8373 52.2931H90.7936C92.9784 52.2931 92.6767 54.1341 92.0821 56.626C91.9774 56.9743 92.2408 56.9935 92.5001 56.6913L97.3784 48.1185C97.6167 47.5775 97.0002 47.4725 96.6997 47.8806C94.2566 51.1978 91.6837 50.9515 90.6005 50.9515H89.7153L95.1981 40.4925H97.4074C100.189 40.6646 101.485 43.0273 100.68 48.7233H101.838L105.866 40.7818C106.192 40.1112 105.505 39.496 104.746 39.496L77.401 39.5041C75.8185 39.5041 75.7469 40.7196 77.2665 40.7196C78.4954 40.7196 78.4306 42.4837 77.3255 43.3372L65.7176 52.5546L68.0628 63.437C68.2336 64.2582 68.7634 64.6494 69.67 64.6494H92.2805C93.2127 64.6494 93.598 64.2708 93.8989 63.8827L97.9922 56.8111C98.5586 55.7931 97.2447 55.8589 96.5316 56.7208ZM80.7817 51.7517L78.7905 51.7405C78.7576 51.7404 78.7251 51.7467 78.6946 51.7591C78.6642 51.7716 78.6366 51.79 78.6132 51.8131C78.5899 51.8363 78.5714 51.8639 78.5588 51.8942C78.5462 51.9246 78.5397 51.9571 78.5397 51.99C78.5397 52.1286 78.6533 52.2417 78.7905 52.2417L80.8081 52.2225C81.4921 52.2225 82.1175 52.3097 81.9436 52.6128L76.7148 62.597C76.0666 63.7866 74.6914 63.4821 74.4732 62.5312L71.8839 49.1507L80.9896 42.0899C81.8927 41.3133 83.6353 40.0468 84.5241 40.0606L86.5081 40.0495C87.7152 40.0414 88.147 40.607 87.8596 41.3388L87.5095 42.0139C87.282 42.3925 86.5694 42.4381 85.9613 42.4381L84.8169 42.4439C84.7834 42.4435 84.7502 42.4498 84.7192 42.4623C84.6882 42.4749 84.66 42.4936 84.6362 42.5172C84.6125 42.5408 84.5937 42.5689 84.581 42.5998C84.5683 42.6308 84.5618 42.6639 84.5621 42.6974C84.5621 42.8387 84.6752 42.9491 84.8169 42.9491H85.9457C86.4343 42.9491 87.0459 42.9616 86.8215 43.3278L82.5986 51.3802C82.4027 51.6949 81.5256 51.7517 80.7817 51.7517Z" fill="#552582"/>
<path d="M62.011 63.4343C61.7563 63.4279 61.5097 63.3432 61.3048 63.1917C61.1 63.0402 60.9468 62.8293 60.8661 62.5876C60.6716 62.0068 60.6895 60.9737 60.9228 60.5177L71.4735 41.8095C71.6447 41.4635 72.0725 40.7424 72.5965 40.7424C73.5286 40.7442 73.931 39.5179 72.3524 39.5179H63.9025C62.3235 39.5179 62.3078 40.7205 63.8207 40.7205C64.4376 40.7205 64.6835 41.3258 64.5078 41.6947L62.1751 45.9256C61.8831 46.3897 61.2362 46.4254 60.5554 46.4254L58.5427 46.4178C58.475 46.4178 58.4101 46.4447 58.3622 46.4926C58.3143 46.5405 58.2874 46.6054 58.2874 46.6731C58.2874 46.7408 58.3143 46.8057 58.3622 46.8536C58.4101 46.9015 58.475 46.9284 58.5427 46.9284H60.5379C61.0775 46.9284 61.508 47.0911 61.1969 47.7174L53.41 61.9018C52.8494 62.6824 51.7322 62.8567 51.7957 61.3608L54.5648 40.5859C54.6738 39.9373 54.5035 39.4974 53.8092 39.4974L49.635 39.5049C49.1352 39.5049 48.8281 39.7473 48.588 40.0705L47.0962 41.9468C46.8995 42.1413 46.481 42.1399 46.017 42.1399L42.5098 42.1341C42.4767 42.1341 42.444 42.1405 42.4134 42.1532C42.3828 42.1658 42.3551 42.1843 42.3317 42.2077C42.3083 42.2311 42.2897 42.2589 42.2771 42.2894C42.2645 42.32 42.258 42.3527 42.2581 42.3858C42.2581 42.528 42.3698 42.6415 42.5098 42.6415H45.3723C45.8802 42.6415 46.4734 42.7587 46.2584 42.9978L42.2415 48.0514C42.1208 48.19 41.7319 48.228 41.4918 48.228L40.3576 48.2262C40.2159 48.2262 40.1028 48.3393 40.1028 48.4779C40.1028 48.6165 40.2159 48.7296 40.3576 48.7296L41.3036 48.7332C41.5973 48.7332 41.5996 48.8762 41.4824 49.0095L37.7048 53.7537C37.5103 53.9365 37.1339 53.9745 36.7668 53.9745L33.4318 53.9709C33.3986 53.9709 33.3658 53.9775 33.3351 53.9902C33.3045 54.0028 33.2766 54.0215 33.2532 54.0449C33.2297 54.0684 33.2111 54.0962 33.1984 54.1269C33.1857 54.1575 33.1792 54.1903 33.1792 54.2235C33.1792 54.2567 33.1857 54.2895 33.1984 54.3202C33.2111 54.3508 33.2297 54.3787 33.2532 54.4021C33.2766 54.4256 33.3045 54.4442 33.3351 54.4569C33.3658 54.4696 33.3986 54.4761 33.4318 54.4761H36.293C36.7279 54.4761 37.0632 54.5539 36.8343 54.8463L31.4674 61.5794C30.4588 62.8643 25.6006 63.5179 24.6542 63.5179L42.8048 29.5565C42.9774 29.1662 43.6534 28.5703 44.3481 28.5703H48.2022C50.0217 28.5703 49.9681 27.3601 48.3891 27.3601H29.013C27.4358 27.3601 27.3723 28.5703 29.1874 28.5703H32.7764C33.7943 28.5703 34.122 29.1855 33.8614 29.6893L33.3459 30.6237C33.1774 30.9268 32.9351 31.0484 31.9511 31.0484L25.6109 31.0448C25.544 31.0448 25.4799 31.0713 25.4326 31.1186C25.3853 31.1659 25.3588 31.2301 25.3588 31.2969C25.3588 31.3638 25.3853 31.4279 25.4326 31.4752C25.4799 31.5225 25.544 31.5491 25.6109 31.5491L31.9355 31.5509C32.2784 31.5509 32.7925 31.6403 32.4692 32.2572L31.5796 33.9028C31.4298 34.1532 31.0422 34.2721 30.5961 34.2721L27.7233 34.2663C27.6563 34.2662 27.592 34.2926 27.5445 34.3398C27.497 34.387 27.4701 34.451 27.4698 34.518C27.4698 34.6611 27.5806 34.7728 27.7233 34.7728L30.5822 34.7764C30.9913 34.7764 31.0024 35.0433 30.7655 35.4224L28.7233 39.2179C28.549 39.5412 28.2173 39.5845 27.5686 39.5845L26.4245 39.5792C26.3911 39.579 26.358 39.5854 26.327 39.5981C26.2961 39.6108 26.268 39.6295 26.2443 39.6531C26.2206 39.6767 26.2018 39.7047 26.189 39.7356C26.1762 39.7665 26.1697 39.7997 26.1697 39.8331C26.1697 39.9717 26.2837 40.0843 26.4245 40.0843L27.5534 40.0866C27.9834 40.0866 28.097 40.3266 27.9039 40.7375L26.2278 43.8535C25.9779 44.2961 25.6225 44.4727 24.5075 44.4727L18.1678 44.4669C18.1023 44.4696 18.0405 44.4976 17.9952 44.5448C17.9498 44.5921 17.9245 44.6551 17.9245 44.7206C17.9245 44.7861 17.9498 44.8491 17.9952 44.8963C18.0405 44.9436 18.1023 44.9715 18.1678 44.9743L24.4906 44.9756C25.2045 44.9868 25.4678 45.2993 25.1889 45.8116L21.9142 51.9609C21.7206 52.2337 21.1868 52.2748 20.2761 52.2748L13.9368 52.2676C13.8698 52.2676 13.8056 52.2942 13.7582 52.3416C13.7108 52.389 13.6842 52.4532 13.6842 52.5202C13.6842 52.5872 13.7108 52.6515 13.7582 52.6988C13.8056 52.7462 13.8698 52.7728 13.9368 52.7728L20.2614 52.7746C21.0178 52.7746 21.4801 52.8068 21.2494 53.2051L19.3672 56.753C19.0194 57.2939 18.048 57.2939 17.6689 57.2939L15.6571 57.2877C15.6239 57.2878 15.5911 57.2946 15.5605 57.3074C15.53 57.3203 15.5022 57.339 15.4789 57.3626C15.4556 57.3862 15.4371 57.4141 15.4246 57.4448C15.412 57.4755 15.4057 57.5084 15.4058 57.5416C15.4058 57.6815 15.519 57.7933 15.6575 57.7933L17.651 57.7951C18.3573 57.7951 18.7284 57.9167 18.5438 58.2953L16.0241 63.0297C15.7975 63.4522 14.8126 63.4719 14.0544 63.4719L4.25393 63.4629C4.18657 63.4638 4.12225 63.4911 4.07478 63.539C4.02731 63.5868 4.00046 63.6513 4 63.7186C4 63.855 4.11713 63.9708 4.25393 63.9708L14.0401 63.973C14.6892 63.973 15.5082 64.0521 15.2029 64.5712L13.5997 67.5933C13.4477 67.8423 12.8992 67.8642 12.1079 67.8642L10.0992 67.8598C10.0324 67.8598 9.96824 67.8863 9.92095 67.9336C9.87367 67.9809 9.8471 68.045 9.8471 68.1119C9.8471 68.1788 9.87367 68.2429 9.92095 68.2902C9.96824 68.3375 10.0324 68.364 10.0992 68.364H12.0945C12.5786 68.364 13.1737 68.4204 12.9653 68.7901L11.9595 70.7196C11.6358 71.2002 11.3126 71.6267 10.5351 71.6267H5.61746C3.79793 71.6267 3.86186 72.8373 5.44088 72.8373L34.3205 72.8552C35.1655 72.8552 35.1918 72.7425 35.5897 72.1185L39.8735 64.6517L61.7633 64.6534C63.3446 64.6566 62.9378 63.4652 62.0114 63.4343H62.011ZM44.8399 61.2106C44.6257 62.4427 43.3865 63.2559 41.8267 63.6708L40.2199 64.07L41.541 61.6912C41.8884 61.0439 41.1261 60.663 40.295 61.6251C34.7068 68.1387 32.9217 71.2538 24.301 71.2771L21.9839 71.2816C21.2833 71.2816 20.514 71.0079 20.9896 70.3383L24.0386 64.6561L35.6246 64.6575C37.2054 64.6575 36.7995 63.4656 35.8705 63.4348C35.2576 63.4142 34.5874 63.0628 34.1135 62.3131C33.9794 62.1061 33.6915 61.2804 34.1426 60.6451L38.5792 54.7479H45.9548L44.8403 61.2106H44.8399ZM46.5087 53.755H39.3155L48.4159 41.7514L46.5087 53.755ZM155.98 57.4669C155.861 56.8741 155.649 57.2345 155.257 57.9824C155.138 58.2073 154.758 58.2149 154.378 58.2149L153.223 58.2189C153.19 58.2188 153.157 58.2253 153.126 58.2381C153.094 58.251 153.066 58.2698 153.043 58.2936C153.019 58.3174 153 58.3456 152.987 58.3767C152.975 58.4078 152.968 58.441 152.969 58.4746C152.969 58.6101 153.083 58.7227 153.223 58.7227H154.362C154.792 58.7227 154.801 59.0115 154.598 59.4456C153.801 61.1427 152.981 62.28 151.89 63.6435C151.719 63.8568 151.282 64.0437 150.935 64.0437L149.771 64.0508C149.738 64.0508 149.705 64.0574 149.674 64.0701C149.643 64.0829 149.615 64.1016 149.592 64.1252C149.569 64.1487 149.55 64.1767 149.538 64.2074C149.525 64.2382 149.519 64.2711 149.519 64.3043C149.519 64.442 149.631 64.556 149.771 64.556H150.91C151.483 64.556 150.902 64.9074 150.805 65.0366C148.785 67.7314 147.394 68.9349 145.911 70.1416C145.736 70.2815 144.9 70.231 144.313 70.2269L143.166 70.231C143.098 70.231 143.033 70.2579 142.985 70.3059C142.937 70.3538 142.91 70.4189 142.91 70.4867C142.91 70.5545 142.937 70.6195 142.985 70.6675C143.033 70.7155 143.098 70.7424 143.166 70.7424H144.299C145.163 70.7424 144.512 71.2386 144.384 71.3446C141.234 73.9679 136.549 74.8106 134.403 74.5433C127.442 73.6715 126.006 68.3864 125.491 66.274C125.386 65.8319 125.051 64.9257 124.94 64.3673C124.726 63.2631 127.866 62.9492 128.734 63.5304C130.047 64.4098 133.116 65.3133 135.531 65.3204C137.763 65.3294 142.333 63.7066 143.654 59.8726C145.008 55.9496 141.611 51.5944 140.103 50.0927C138.189 48.1748 136.376 45.1232 137.142 42.8834C137.716 41.1926 138.677 40.4268 140.739 40.4268C143.403 40.4268 145.338 42.1399 145.338 44.5688C145.338 44.7879 145.208 45.0436 145.032 45.0436L144.092 45.0472C144.024 45.0479 143.959 45.0751 143.912 45.123C143.864 45.171 143.837 45.2357 143.837 45.3033C143.837 45.3707 143.864 45.4351 143.912 45.4826C143.96 45.5301 144.024 45.5568 144.092 45.5568L144.974 45.5546C145.225 45.5546 145.381 45.7437 145.315 46.0486C145.145 46.8604 145.087 47.4318 144.91 48.2477C144.804 48.7193 145.498 49.0466 145.738 48.7028L149.925 41.2279C150.229 40.6642 149.554 40.5131 149.059 40.6883C147.911 41.0826 146.048 41.3611 145.386 40.8841C143.821 39.7611 142.393 39.0418 140.212 39.0418C136.488 39.0418 133.883 39.956 132.211 43.0193C132.081 43.2594 131.715 43.2558 131.402 43.2558H130.687C130.621 43.2558 130.557 43.2823 130.51 43.3295C130.462 43.3767 130.436 43.4407 130.436 43.5075C130.436 43.5742 130.462 43.6383 130.51 43.6855C130.557 43.7327 130.621 43.7592 130.687 43.7592L131.296 43.7534C131.556 43.7534 131.73 43.8271 131.6 44.1302C131.486 44.4061 131.381 44.694 131.285 44.9949C130.862 46.3222 131 48.1824 131.664 49.8396C131.706 49.9505 131.564 50.0019 131.308 50.0019H130.171C130.137 50.002 130.104 50.0086 130.073 50.0215C130.042 50.0344 130.014 50.0533 129.99 50.077C129.967 50.1008 129.948 50.129 129.935 50.16C129.923 50.1909 129.916 50.2241 129.916 50.2576C129.916 50.3971 130.029 50.5093 130.171 50.5093H131.308C131.823 50.5116 131.947 50.5652 132.161 50.8652C132.75 51.6923 133.35 52.3056 134.105 53.269C134.346 53.5686 133.329 53.6535 132.788 53.6504L128.279 53.6482C128.136 53.6482 128.026 53.7644 128.026 53.903C128.026 53.9362 128.032 53.9692 128.045 54C128.057 54.0308 128.076 54.0587 128.099 54.0822C128.123 54.1058 128.151 54.1244 128.182 54.1369C128.213 54.1495 128.245 54.1559 128.279 54.1556L132.845 54.1498C133.578 54.1498 134.838 54.1404 134.98 54.3004C136.083 55.5772 137.418 57.5403 137.648 59.1926C137.712 59.6709 137.534 59.8708 136.946 59.8708H136.333C136.3 59.8707 136.268 59.8771 136.237 59.8898C136.206 59.9024 136.179 59.921 136.155 59.9444C136.132 59.9679 136.113 59.9957 136.101 60.0264C136.088 60.057 136.082 60.0898 136.082 60.1229C136.082 60.2624 136.195 60.3746 136.334 60.3746H136.874C137.341 60.3746 137.594 60.452 137.485 60.8011C136.891 62.6922 136.004 64.0615 132.389 64.0423C128.599 64.0208 127.829 60.3049 128.937 56.428C129.155 55.659 128.927 55.3251 128.581 55.934L125.941 60.0773C125.877 60.1757 125.624 60.4126 125.221 60.4126L124.849 60.4104C124.782 60.4104 124.718 60.437 124.67 60.4844C124.623 60.5317 124.596 60.596 124.596 60.663C124.596 60.73 124.623 60.7942 124.67 60.8416C124.718 60.889 124.782 60.9156 124.849 60.9156C125.182 60.9156 125.313 61.0948 125.182 61.2808L124.219 62.7879C122.622 59.1421 119.951 54.6509 118.528 53.0169L118.552 52.9382C122.069 52.7236 127.252 49.4324 128.104 46.488C129.577 41.3826 124.617 39.4951 121.912 39.4951L110.03 39.4974C108.451 39.4974 108.335 40.6955 109.85 40.6955C110.669 40.6955 111.384 41.4112 111.024 42.1359L108.393 46.8792C108.175 47.2682 107.356 47.244 106.296 47.244H105.143C105.076 47.244 105.011 47.2708 104.963 47.3186C104.916 47.3663 104.889 47.4311 104.889 47.4986C104.889 47.5661 104.916 47.6309 104.963 47.6786C105.011 47.7264 105.076 47.7532 105.143 47.7532H106.277C107.035 47.7532 107.87 47.7966 107.587 48.3398L104.475 53.9566C104.326 54.2177 103.921 54.2392 102.863 54.2392L101.716 54.241C101.648 54.242 101.583 54.2698 101.535 54.3183C101.488 54.3668 101.461 54.4322 101.461 54.5002C101.461 54.6344 101.575 54.7524 101.716 54.7524H102.835C103.673 54.7524 103.982 54.8628 103.743 55.2933L99.586 62.8124C99.0897 63.3503 98.4996 63.4531 97.4843 63.4531C95.9688 63.4531 95.9845 64.6543 97.5657 64.6543H107.741C109.322 64.6543 108.921 63.4316 107.985 63.4316C107.441 63.4316 106.86 62.4248 107.226 61.8218L112.421 51.982H112.949C115.259 51.982 115.818 55.773 116.251 59.9097C116.283 60.2083 115.72 60.2195 114.567 60.2195L111.68 60.2293C111.647 60.2291 111.614 60.2355 111.583 60.2481C111.552 60.2607 111.524 60.2793 111.501 60.3027C111.477 60.3262 111.459 60.354 111.446 60.3847C111.433 60.4154 111.427 60.4483 111.427 60.4815C111.427 60.5485 111.454 60.6127 111.501 60.6602C111.549 60.7076 111.613 60.7345 111.68 60.735H114.534C115.296 60.735 116.355 60.7426 116.383 60.9826C116.581 62.8008 116.729 64.3982 117.08 65.8556C117.188 66.3089 116.377 66.2374 115.512 66.2374L111.832 66.2409C111.765 66.2412 111.701 66.2677 111.654 66.3148C111.606 66.3619 111.579 66.4258 111.578 66.4926C111.578 66.6357 111.691 66.7484 111.833 66.7484L115.508 66.7524C116.662 66.7524 117.259 66.7524 117.324 66.9884C118.906 72.7935 125.694 77.3634 132.293 77.1112C137.958 76.8966 142.744 73.8146 145.189 71.8511C148.451 69.2358 153.235 63.7607 155.186 59.7809C155.537 59.0518 156.114 58.1156 155.98 57.4669ZM117.909 49.7408C117.115 50.3891 115.866 51.1419 115.623 50.9032C115.284 50.5679 114.232 49.8414 113.668 49.5821L118.386 40.9619C118.58 40.6588 118.804 40.4938 119.323 40.4938C121.158 40.4938 121.759 42.4837 120.897 44.9631C120.292 46.7008 119.312 48.5843 117.909 49.7408Z" fill="#552582"/>
<path d="M60.6068 31.8374C59.6492 33.0718 58.3844 33.3874 56.9655 33.3874H56.5654L59.068 28.4313C59.1874 28.2033 59.4516 28.0244 59.7797 28.0244C60.0927 28.0244 60.0524 27.399 59.6434 27.399H55.6958C55.361 27.399 55.2438 28.0244 55.5568 28.0244C55.893 28.0244 55.9533 28.3973 55.7933 28.7129L53.5517 33.1294C53.3988 33.3677 53.1507 33.4307 52.8776 33.5045C52.544 33.5895 52.316 34.1849 52.6925 34.1849H58.9916C59.4788 34.1849 59.5928 34.0061 59.7216 33.8318L60.9895 31.8692C61.171 31.634 60.7883 31.6005 60.6063 31.8379L60.6068 31.8374ZM79.5818 27.5743C79.3896 27.682 78.9389 27.7352 78.7418 27.5702C78.2402 27.154 77.2522 26.8326 76.7349 26.8326C75.2507 26.8326 74.1755 27.1259 73.5286 28.5269C72.9787 29.7233 73.5429 30.7233 74.8519 31.3278C75.4192 31.5915 76.1707 31.9349 75.8828 32.6153C75.6727 33.1169 75.0915 33.1674 74.5676 33.1652C73.8652 33.1562 72.8062 32.6278 72.6439 31.6358C72.588 31.3117 72.2111 31.3877 72.1029 31.5598L71.2057 33.3467C71.0649 33.5836 71.4359 33.8465 71.5821 33.6918C71.8839 33.3677 72.542 33.2881 72.8661 33.5058C73.3149 33.8036 74.4656 34.3258 75.1452 34.3186C76.6518 34.307 77.6456 33.9221 78.4713 32.6292C79.2228 31.4521 78.7606 30.2839 77.3863 29.6348C76.6598 29.2963 76.0389 28.6906 76.3625 28.0244C76.5771 27.5921 77.2195 27.6847 77.5401 27.7383C78.1557 27.8438 78.9412 28.4214 79.0319 28.9288C79.0713 29.1448 79.3453 29.1881 79.4687 28.9946L79.9403 27.8917C80.049 27.6784 79.7012 27.5117 79.5818 27.5743ZM123.291 29.35L123.842 28.341C124.082 27.8961 123.69 27.3905 123.061 27.3905H115.706C115.178 27.3905 115.329 27.9417 115.545 27.9417C116.018 27.9417 116.158 28.5193 115.871 29.0075L113.661 33.074C113.332 33.4652 113.12 33.6324 112.648 33.6324C112.268 33.6324 112.132 34.1854 112.663 34.1854H120.118C120.419 34.1854 120.556 34.0781 120.662 33.9261L121.675 32.5804C121.922 32.2577 121.389 32.2577 121.226 32.4182C119.942 33.7043 118.564 33.6704 117.564 33.6704H116.696L117.713 31.389H117.934C118.587 31.389 119.343 31.3801 119.544 31.8808C119.597 31.9993 119.916 32.0954 120.048 31.8808L120.917 30.1386C121.059 29.8811 120.668 29.8359 120.56 30.0215C120.219 30.6348 118.705 30.4703 118.312 30.4703H118.091L119.363 27.9632H120.78C121.66 27.9632 122.416 28.5846 122.667 29.2641C122.727 29.426 123.197 29.5565 123.291 29.35ZM104.473 27.3905H101.856C101.326 27.3905 101.484 27.9417 101.697 27.9417C102.259 27.9417 102.767 28.5989 102.461 29.2065L101.376 31.1901L98.9851 27.6905C98.826 27.4759 98.4509 27.3708 98.125 27.3708H95.5499C95.0206 27.3708 95.1431 27.9212 95.3586 27.9212C95.9049 27.9212 95.7649 28.3302 95.6299 28.6217L93.5761 32.5728C93.4447 32.8885 92.8881 32.9323 92.712 32.5313L91.1271 27.3556C91.0614 27.1513 90.132 27.1625 89.895 27.3556L85.9162 30.6384H83.8508C83.444 30.6384 83.2808 30.8101 83.2808 31.026C83.2808 31.2437 83.4364 31.4427 83.8664 31.4427L84.9434 31.4391L83.866 32.3292C83.2692 32.7718 82.6571 33.3887 82.244 33.3887H81.9977C81.6065 33.3887 81.3852 33.4526 81.3852 33.7656C81.3852 34.0794 81.5516 34.1863 81.9199 34.1863H85.1298C85.7365 34.1863 85.6167 33.3972 85.314 33.3972C84.9805 33.3972 84.4306 32.9747 84.9421 32.3802L85.9225 31.4431H87.8538C88.9996 31.4431 89.8012 32.7704 89.1172 33.1835L88.5901 33.475C88.3406 33.6042 88.2324 34.1872 88.5901 34.1872H94.8614C95.3308 34.1872 95.2338 33.5742 95.0166 33.5742C94.3773 33.5742 94.6799 32.6479 94.8038 32.4021L96.4507 29.2789L98.7678 33.7665C98.9167 34.0481 99.0549 34.1872 99.3258 34.1872H100.214C100.493 34.1872 100.589 34.0244 100.717 33.8085L103.352 29.0455C103.778 28.1939 104.104 27.9502 104.638 27.9502C104.854 27.9475 105.006 27.3905 104.473 27.3905H104.473ZM86.9261 30.6375L89.38 28.636L89.3912 30.6375H86.9261ZM67.3118 27.0932C65.1051 27.0932 62.8336 28.18 62.3776 30.4953C61.9833 32.5111 63.3777 34.5994 65.8432 34.5994C68.1871 34.5994 70.3527 33.0642 70.7877 30.8418C71.2231 28.6083 69.561 27.0932 67.3118 27.0932ZM67.9386 31.3376C67.2358 32.7311 66.0658 33.564 65.3183 33.1889C64.574 32.8138 64.5382 31.3796 65.2388 29.9835C65.9353 28.5886 67.1075 27.7571 67.855 28.1326C68.5989 28.5073 68.6346 29.9419 67.9386 31.3381V31.3376ZM111.932 30.4712H109.1C108.571 30.4712 108.726 31.0251 108.939 31.0251C109.163 31.0251 109.373 31.1422 109.373 31.5008C109.373 32.6457 108.888 33.0865 107.9 33.0865C106.823 33.0865 106.432 31.7766 107.161 30.1717C107.623 29.1452 108.852 28.1854 110.306 28.1854C111.201 28.1854 111.953 28.3781 112.063 29.215C112.091 29.4211 112.402 29.4211 112.506 29.2266L113.182 28.0204C113.258 27.8917 113.139 27.7388 112.933 27.7254C112.761 27.7137 112.371 27.9373 112.12 27.7495C111.551 27.3275 110.318 26.9171 109.385 26.9171C107.861 26.9171 105.734 27.2613 104.3 29.755C103.005 32.0086 104.894 34.391 106.648 34.3928C107.621 34.3964 108.752 33.6753 109.4 33.4003L110.125 33.8948C110.228 34.0213 110.457 34.184 110.673 34.184H110.941C111.194 34.184 111.29 33.8456 111.388 33.6292L112.498 30.9353C112.641 30.6657 112.562 30.4708 111.932 30.4708V30.4712ZM150.767 27.5743C150.577 27.682 150.124 27.7352 149.93 27.5702C149.428 27.154 148.441 26.8326 147.923 26.8326C146.44 26.8326 145.361 27.1259 144.717 28.5269C144.162 29.7233 144.73 30.7233 146.04 31.3278C146.61 31.5915 147.363 31.9349 147.074 32.6153C146.861 33.1169 146.276 33.1674 145.753 33.1652C145.053 33.1562 143.994 32.6278 143.829 31.6358C143.776 31.3117 143.399 31.3877 143.293 31.5598L142.393 33.3467C142.252 33.5836 142.622 33.8465 142.769 33.6918C143.073 33.3677 143.731 33.2881 144.058 33.5058C144.503 33.8036 145.648 34.3258 146.338 34.3186C147.838 34.307 148.834 33.9221 149.655 32.6292C150.41 31.4521 149.946 30.2839 148.574 29.6348C147.845 29.2963 147.225 28.6906 147.551 28.0244C147.76 27.5921 148.41 27.6847 148.733 27.7383C149.341 27.8438 150.132 28.4214 150.22 28.9288C150.259 29.1448 150.533 29.1881 150.654 28.9946L151.127 27.8917C151.232 27.6784 150.886 27.5117 150.767 27.5743ZM131.056 31.8374C130.105 33.0718 128.835 33.3874 127.413 33.3874H127.014L129.521 28.4313C129.64 28.2033 129.901 28.0244 130.23 28.0244C130.543 28.0244 130.505 27.399 130.092 27.399H126.146C125.811 27.399 125.692 28.0244 126.005 28.0244C126.343 28.0244 126.406 28.3973 126.242 28.7129L124.001 33.1294C123.848 33.3677 123.603 33.4307 123.327 33.5045C122.993 33.5895 122.766 34.1849 123.144 34.1849H129.443C129.929 34.1849 130.046 34.0061 130.174 33.8318L131.438 31.8692C131.625 31.634 131.24 31.6005 131.056 31.8379V31.8374ZM140.557 27.9623C141.434 27.9623 142.196 28.5833 142.444 29.2632C142.501 29.426 142.971 29.5565 143.071 29.35L143.619 28.341C143.854 27.8961 143.463 27.3905 142.835 27.3905H135.481C134.951 27.3905 135.106 27.9417 135.322 27.9417C135.797 27.9417 135.939 28.5193 135.649 29.0075L133.44 33.074C133.111 33.4652 132.895 33.6324 132.424 33.6324C132.045 33.6324 131.911 34.1854 132.444 34.1854H139.895C140.196 34.1854 140.333 34.0781 140.439 33.9261L141.452 32.5804C141.701 32.2577 141.165 32.2577 141.003 32.4182C139.717 33.7043 138.337 33.6704 137.341 33.6704H136.471L137.492 31.389H137.709C138.364 31.389 139.12 31.3801 139.318 31.8808C139.371 31.9993 139.693 32.0954 139.825 31.8808L140.693 30.1386C140.836 29.8811 140.443 29.8359 140.339 30.0215C139.992 30.6348 138.484 30.4703 138.085 30.4703H137.87L139.143 27.9632H140.558V27.9623H140.557Z" fill="#552582"/>
<path d="M60.607 31.8374C59.6498 33.0717 58.3848 33.3872 56.9657 33.3872H56.5657L59.0686 28.4312C59.188 28.2029 59.4521 28.0244 59.78 28.0244C60.0929 28.0244 60.0529 27.3992 59.644 27.3992H55.6966C55.3615 27.3992 55.2442 28.0244 55.5571 28.0244C55.8933 28.0244 55.954 28.3974 55.7937 28.7129L53.5522 33.1293C53.3992 33.3675 53.1512 33.4308 52.8783 33.5045C52.5446 33.5896 52.3163 34.1847 52.693 34.1847H58.9924C59.4796 34.1847 59.5932 34.0062 59.7219 33.8319L60.9899 31.869C61.1715 31.634 60.7891 31.6003 60.607 31.8374Z" fill="#552582"/>
<path d="M79.5824 27.5745C79.3899 27.6819 78.9395 27.7354 78.7424 27.5704C78.2407 27.1537 77.2528 26.8326 76.7355 26.8326C75.2516 26.8326 74.176 27.1257 73.529 28.5266C72.9795 29.7231 73.5435 30.7234 74.8521 31.3279C75.4197 31.5915 76.1715 31.9349 75.8835 32.6152C75.6734 33.1169 75.0923 33.1672 74.5682 33.1651C73.8657 33.1563 72.8067 32.6276 72.6443 31.6356C72.5883 31.3118 72.2116 31.3876 72.1032 31.5598L71.2061 33.3467C71.0655 33.5833 71.4365 33.8464 71.5828 33.6918C71.8842 33.3675 72.5427 33.2881 72.8664 33.506C73.3152 33.8033 74.466 34.3258 75.1457 34.3185C76.6519 34.3071 77.6461 33.9221 78.4715 32.6292C79.2234 31.4519 78.7611 30.284 77.3866 29.6349C76.6602 29.2961 76.0392 28.6906 76.3629 28.0244C76.5772 27.5922 77.2201 27.6851 77.5407 27.7385C78.1561 27.8438 78.9416 28.4213 79.0324 28.9287C79.0719 29.1446 79.3458 29.1882 79.4693 28.9946L79.9409 27.8916C80.0494 27.6783 79.7017 27.5118 79.5824 27.5745Z" fill="#552582"/>
<path d="M123.291 29.35L123.842 28.3409C124.083 27.8962 123.69 27.3903 123.061 27.3903H115.707C115.178 27.3903 115.329 27.9419 115.546 27.9419C116.019 27.9419 116.158 28.5194 115.872 29.0076L113.661 33.0738C113.332 33.465 113.12 33.6321 112.648 33.6321C112.269 33.6321 112.133 34.1852 112.664 34.1852H120.119C120.42 34.1852 120.556 34.0783 120.663 33.9258L121.676 32.5804C121.922 32.2577 121.389 32.2577 121.227 32.418C119.942 33.7042 118.565 33.6705 117.565 33.6705H116.696L117.714 31.3891H117.935C118.587 31.3891 119.343 31.3803 119.545 31.881C119.597 31.9993 119.917 32.0953 120.048 31.881L120.918 30.1387C121.06 29.8808 120.669 29.8357 120.56 30.0214C120.22 30.6347 118.706 30.4702 118.312 30.4702H118.091L119.364 27.9632H120.78C121.66 27.9632 122.417 28.5842 122.668 29.2639C122.727 29.4258 123.198 29.5565 123.291 29.35Z" fill="#552582"/>
<path d="M104.474 27.3903H101.857C101.326 27.3903 101.485 27.9419 101.698 27.9419C102.26 27.9419 102.768 28.5987 102.462 29.2063L101.376 31.1899L98.9858 27.6902C98.8265 27.476 98.4514 27.3706 98.1255 27.3706H95.5505C95.0213 27.3706 95.1437 27.9211 95.359 27.9211C95.9054 27.9211 95.7653 28.33 95.6304 28.6216L93.5768 32.5726C93.445 32.8886 92.8888 32.9322 92.7124 32.5311L91.1278 27.3556C91.0619 27.1512 90.1327 27.1626 89.8955 27.3556L85.9165 30.6383H83.8515C83.4447 30.6383 83.2813 30.8101 83.2813 31.0259C83.2813 31.2438 83.4369 31.4426 83.8665 31.4426L84.9437 31.4389L83.8665 32.3293C83.2698 32.7718 82.6576 33.3888 82.2446 33.3888H81.9981C81.6069 33.3888 81.3854 33.4526 81.3854 33.7654C81.3854 34.0793 81.5519 34.1862 81.9203 34.1862H85.1304C85.737 34.1862 85.6171 33.3971 85.3146 33.3971C84.981 33.3971 84.431 32.9747 84.9426 32.3801L85.9227 31.4431H87.8544C89 31.4431 89.8016 32.7703 89.1178 33.1833L88.5906 33.4749C88.3411 33.6041 88.2326 34.1873 88.5906 34.1873H94.862C95.331 34.1873 95.2345 33.574 95.0171 33.574C94.3774 33.574 94.6804 32.6478 94.8044 32.4019L96.4512 29.279L98.7684 33.7665C98.9173 34.0482 99.0553 34.1873 99.3262 34.1873H100.214C100.493 34.1873 100.59 34.0244 100.718 33.8085L103.352 29.0455C103.778 28.194 104.104 27.9502 104.639 27.9502C104.854 27.9476 105.007 27.3903 104.474 27.3903ZM86.9267 30.6373L89.3803 28.6361L89.3918 30.6373H86.9267Z" fill="#552582"/>
<path d="M67.3121 27.093C65.1055 27.093 62.8339 28.18 62.3779 30.4951C61.9835 32.5109 63.3782 34.5992 65.8438 34.5992C68.1874 34.5992 70.3531 33.064 70.7879 30.8417C71.2237 28.6081 69.5613 27.093 67.3121 27.093ZM67.9389 31.3377C67.2364 32.7309 66.0664 33.5641 65.3187 33.189C64.5747 32.8139 64.5389 31.3798 65.2393 29.9836C65.9356 28.5889 67.1077 27.7572 67.8554 28.1323C68.5994 28.5074 68.6352 29.942 67.9389 31.3377Z" fill="#552582"/>
<path d="M111.933 30.4708H109.1C108.571 30.4708 108.727 31.0249 108.939 31.0249C109.164 31.0249 109.373 31.1421 109.373 31.5007C109.373 32.6458 108.889 33.0863 107.901 33.0863C106.824 33.0863 106.432 31.7767 107.161 30.1714C107.624 29.1451 108.852 28.1852 110.307 28.1852C111.202 28.1852 111.953 28.3782 112.064 29.2151C112.091 29.4211 112.403 29.4211 112.506 29.2266L113.182 28.0202C113.258 27.8916 113.139 27.7385 112.934 27.725C112.762 27.7136 112.372 27.9372 112.12 27.7494C111.551 27.3276 110.318 26.9172 109.385 26.9172C107.861 26.9172 105.735 27.2611 104.301 29.7547C103.005 32.0086 104.894 34.3907 106.649 34.3927C107.622 34.3964 108.753 33.6752 109.4 33.4007L110.125 33.8946C110.229 34.0212 110.458 34.1842 110.673 34.1842H110.942C111.194 34.1842 111.291 33.8453 111.388 33.629L112.498 30.9351C112.641 30.6658 112.563 30.4708 111.933 30.4708Z" fill="#552582"/>
<path d="M150.767 27.5745C150.578 27.6819 150.125 27.7354 149.931 27.5704C149.429 27.1537 148.441 26.8326 147.924 26.8326C146.44 26.8326 145.362 27.1257 144.717 28.5266C144.163 29.7231 144.73 30.7234 146.04 31.3279C146.61 31.5915 147.364 31.9349 147.075 32.6152C146.862 33.1169 146.277 33.1672 145.753 33.1651C145.054 33.1563 143.994 32.6276 143.83 31.6356C143.776 31.3118 143.399 31.3876 143.293 31.5598L142.394 33.3467C142.253 33.5833 142.623 33.8464 142.769 33.6918C143.073 33.3675 143.732 33.2881 144.058 33.506C144.503 33.8033 145.648 34.3258 146.338 34.3185C147.838 34.3071 148.834 33.9221 149.655 32.6292C150.411 31.4519 149.946 30.284 148.574 29.6349C147.846 29.2961 147.225 28.6906 147.552 28.0244C147.76 27.5922 148.411 27.6851 148.733 27.7385C149.342 27.8438 150.132 28.4213 150.221 28.9287C150.26 29.1446 150.533 29.1882 150.655 28.9946L151.127 27.8916C151.232 27.6783 150.887 27.5118 150.767 27.5745Z" fill="#552582"/>
<path d="M131.056 31.8374C130.105 33.0717 128.836 33.3872 127.414 33.3872H127.015L129.521 28.4312C129.641 28.2029 129.901 28.0244 130.23 28.0244C130.544 28.0244 130.505 27.3992 130.092 27.3992H126.147C125.811 27.3992 125.693 28.0244 126.006 28.0244C126.343 28.0244 126.406 28.3974 126.243 28.7129L124.001 33.1293C123.849 33.3675 123.604 33.4308 123.327 33.5045C122.993 33.5896 122.767 34.1847 123.144 34.1847H129.443C129.929 34.1847 130.047 34.0062 130.175 33.8319L131.438 31.869C131.626 31.634 131.241 31.6003 131.056 31.8374Z" fill="#552582"/>
<path d="M140.558 27.9621C141.435 27.9621 142.196 28.5832 142.445 29.2629C142.501 29.4258 142.972 29.5565 143.071 29.35L143.619 28.3409C143.855 27.8962 143.464 27.3903 142.836 27.3903H135.482C134.951 27.3903 135.106 27.9419 135.322 27.9419C135.797 27.9419 135.939 28.5194 135.65 29.0076L133.44 33.0738C133.111 33.465 132.895 33.6321 132.425 33.6321C132.046 33.6321 131.911 34.1852 132.444 34.1852H139.895C140.197 34.1852 140.333 34.0783 140.439 33.9258L141.453 32.5804C141.701 32.2577 141.166 32.2577 141.003 32.418C139.717 33.7042 138.337 33.6705 137.341 33.6705H136.472L137.493 31.3891H137.71C138.364 31.3891 139.12 31.3803 139.318 31.881C139.372 31.9993 139.694 32.0953 139.825 31.881L140.693 30.1387C140.837 29.8808 140.444 29.8357 140.339 30.0214C139.993 30.6347 138.485 30.4702 138.086 30.4702H137.87L139.143 27.9632H140.558V27.9621H140.558Z" fill="#552582"/>
<path d="M111.589 22.0106C111.023 21.3579 110.242 19.972 104.635 15.0843C96.3832 7.89466 85.4539 4.61414 75.1867 4.61414C67.6207 4.61414 60.9943 6.31386 53.6581 10.3513C44.3118 15.4969 40.4403 21.4106 39.484 22.615C38.775 23.4984 38.674 24.0157 39.1322 24.2821C39.4594 24.4676 40.0889 23.7801 40.6772 23.0044C43.4575 19.3323 47.1131 15.6896 50.9619 13.5468C52.1586 13.7212 53.8333 15.3892 54.4834 16.273C52.0245 17.6151 47.9411 20.7253 46.396 21.9221C45.062 22.9548 44.6006 23.536 44.9614 23.9562C45.2632 24.3049 46.2829 23.6191 47.1382 22.919C48.6152 21.7044 53.0081 18.5915 55.1817 17.4215C56.6623 19.1534 56.1844 22.3526 55.6623 23.0478C55.3806 23.4206 55.3386 23.8167 55.6623 24C55.9636 24.1721 56.2971 23.7331 56.728 23.1104C57.7339 21.6543 57.3307 18.1292 56.4656 16.8591C59.1167 15.2126 62.9234 14.1119 65.2302 13.592C65.4252 13.9608 68.2211 22.125 68.7531 23.6084C69.0423 24.4198 69.332 25.3917 69.9248 25.2098C70.3227 25.0908 70.0598 24.1985 69.7303 23.3071C69.3213 22.1997 67.2067 15.3409 66.5571 13.3099C67.318 12.8973 71.9089 11.9656 73.0574 12.0125C72.4941 14.998 74.6087 16.2207 76.9933 17.7899C78.2647 18.6232 86.3306 23.2592 88.0191 24.3004C88.9803 24.8973 89.7278 25.275 89.9317 24.9947C90.1704 24.6728 89.5172 23.9991 88.628 23.4787C87.9185 23.0643 80.4129 18.7099 77.2767 16.7281C75.0311 15.3101 73.8218 13.7896 74.3597 11.7944C75.1 11.5789 77.3617 11.5619 79.7123 11.5789C95.7144 11.7085 108.547 20.8813 109.981 22.3517C110.709 23.0983 111.721 23.738 112.112 23.4367C112.359 23.2463 111.932 22.4027 111.589 22.0106ZM55.791 15.6896C55.3609 14.9689 53.3264 13.1123 52.2261 12.7471C54.7932 10.8426 60.7507 8.12132 63.0124 7.64073C63.4013 8.28987 64.447 11.0607 64.7935 12.2294C62.7942 12.6612 57.4872 14.5639 55.791 15.6896ZM73.2724 10.5395C71.1878 10.6718 67.4025 11.4913 66.0546 11.8824C65.7059 10.9754 64.7519 8.15843 64.447 7.25224C68.285 6.16275 72.7502 5.78409 76.189 6.08318C75.2305 6.81725 73.6242 9.71778 73.2724 10.539V10.5395ZM83.6679 10.4103C80.196 10.1666 77.3617 10.0674 74.8814 10.3253C75.6011 8.51563 77.0335 6.82351 78.1471 6.08318C80.5094 6.17929 82.9508 6.52442 84.8866 6.90666C91.0761 8.12714 100.701 11.9021 104.851 17.4658C99.3213 13.7775 90.1387 10.8721 83.6679 10.4103ZM115.053 76.8023C115.647 75.7133 116.129 75.0936 115.619 74.8107C115.154 74.5549 114.705 75.5622 114.141 76.5408C112.271 79.79 110.23 82.4679 105.617 86.668C100.507 91.3233 94.6356 94.0266 92.5894 94.7178C90.8517 89.827 84.2196 69.0011 84.0434 68.4061C83.7841 67.5164 83.5615 67.2629 83.2611 67.3658C82.9235 67.4874 83.1314 67.9764 83.3058 68.753C83.4801 69.5295 91.3748 94.1809 91.6345 95.0451C90.0653 95.8212 83.7072 97.6022 79.2608 97.7453C75.3007 97.8772 70.6486 97.7453 68.2998 97.2043C65.5459 94.9825 59.2852 86.1405 56.9064 81.4307C54.1069 75.8863 52.2521 70.7849 51.7742 68.6171C51.5444 67.5808 51.2507 66.8333 50.7289 66.9361C50.1692 67.043 50.4911 67.8602 50.8184 68.9725C51.6593 71.8234 53.034 75.8653 55.9506 81.627C59.0416 87.7302 64.5601 94.889 66.1691 96.8387C61.1262 95.7773 54.9984 93.4218 49.1754 89.0737C44.1589 85.3385 39.8511 80.5746 37.681 77.105C37.3122 76.5086 36.8732 75.6672 36.3354 76.024C36.0935 76.1831 36.3917 76.8618 36.7686 77.5373C39.9168 83.1921 47.5928 91.1936 57.4286 95.5838C68.8912 100.703 81.3901 100.429 92.568 96.1023C102.345 92.3166 110.851 84.528 115.053 76.8027" fill="#231F20"/>
</svg>
