<svg width="160" height="144" viewBox="0 0 160 144" fill="none" xmlns="http://www.w3.org/2000/svg">
<path d="M127.126 111.132C128.925 111.132 130.383 109.674 130.383 107.876C130.383 106.077 128.925 104.619 127.126 104.619C125.328 104.619 123.87 106.077 123.87 107.876C123.87 109.674 125.328 111.132 127.126 111.132Z" fill="black"/>
<path fill-rule="evenodd" clip-rule="evenodd" d="M66.2691 115.383C61.0425 115.383 55.6683 119.572 55.6683 126.902C55.6683 133.604 60.3935 138.338 66.2691 138.338C71.119 138.338 73.2806 135.083 73.2806 135.083V136.502C73.2806 137.172 73.9147 137.921 74.6996 137.921H78.2054V104.866H73.2806V118.681C73.2806 118.681 71.1009 115.383 66.2691 115.383ZM67.1463 119.889C71.4489 119.889 73.7058 123.673 73.7058 126.901C73.7058 130.496 71.0261 133.91 67.1555 133.91C63.9198 133.91 60.6786 131.289 60.6786 126.853C60.6786 122.849 63.4679 119.889 67.1463 119.889Z" fill="black"/>
<path d="M31.963 136.501C31.963 137.378 32.6254 137.92 33.382 137.92L36.8878 137.92V126.234C36.8878 123.16 38.9453 119.894 42.4008 119.894C45.6031 119.894 46.9878 122.639 46.9878 124.899V136.418C46.9878 137.169 47.5929 137.92 48.4903 137.92H51.9126V123.814C51.9126 119.737 49 115.376 43.5304 115.376C40.184 115.376 38.0037 116.934 36.8878 118.611V115.884H31.963V136.501Z" fill="black"/>
<path fill-rule="evenodd" clip-rule="evenodd" d="M4 126.902C4 119.572 9.3743 115.383 14.6008 115.383C19.4327 115.383 21.6124 118.68 21.6124 118.68V115.884H26.5372V137.921H23.0314C22.2465 137.921 21.6124 137.172 21.6124 136.502V135.083C21.6124 135.083 19.4508 138.338 14.6008 138.338C8.72524 138.338 4 133.604 4 126.902ZM22.0376 126.901C22.0376 123.673 19.7807 119.889 15.4781 119.889C11.7997 119.889 9.0104 122.849 9.0104 126.853C9.0104 131.289 12.2516 133.91 15.4872 133.91C19.3579 133.91 22.0376 130.496 22.0376 126.901Z" fill="black"/>
<path d="M83.6312 136.501C83.6312 137.378 84.2936 137.92 85.0502 137.92H88.556V126.815C88.556 123.741 90.4427 120.475 93.8981 120.475C95.1777 120.475 96.2353 120.892 96.2353 120.892V115.801C96.2353 115.801 95.3883 115.634 94.4824 115.634C91.2328 115.634 89.4037 117.499 88.556 119.557V115.884H83.6312V136.501Z" fill="black"/>
<path d="M126.118 137.92C125.361 137.92 124.699 137.378 124.699 136.501V115.884H129.623V137.92L126.118 137.92Z" fill="black"/>
<path fill-rule="evenodd" clip-rule="evenodd" d="M133.463 126.902C133.463 119.572 138.837 115.383 144.064 115.383C148.896 115.383 151.075 118.681 151.075 118.681V104.866H156V137.921H152.494C151.709 137.921 151.075 137.172 151.075 136.502V135.083C151.075 135.083 148.914 138.338 144.064 138.338C138.188 138.338 133.463 133.604 133.463 126.902ZM151.5 126.901C151.5 123.673 149.243 119.889 144.941 119.889C141.262 119.889 138.473 122.849 138.473 126.853C138.473 131.289 141.714 133.91 144.95 133.91C148.821 133.91 151.5 130.496 151.5 126.901Z" fill="black"/>
<path fill-rule="evenodd" clip-rule="evenodd" d="M97.7363 126.863C97.7363 119.462 103.75 115.376 109.223 115.376C115.941 115.376 120.864 120.6 120.864 126.906C120.864 132.044 117.041 138.339 109.212 138.339C102.858 138.339 97.7363 133.608 97.7363 126.863ZM115.85 126.877C115.85 123.026 113.026 119.975 109.241 119.975C105.752 119.975 102.662 122.718 102.662 126.943C102.662 131.099 105.911 133.818 109.253 133.818C112.853 133.818 115.85 130.795 115.85 126.877Z" fill="black"/>
<path d="M117.095 31.326L129.695 9.49859C130.406 8.27493 129.976 6.72054 128.769 6.00949C127.562 5.29846 125.991 5.71184 125.296 6.9355L112.531 29.044C102.791 24.5959 91.8276 22.1154 80.0375 22.1154C68.2474 22.1154 57.284 24.5958 47.5443 29.044L34.7786 6.9355C34.0675 5.71184 32.5132 5.29846 31.2895 6.00949C30.0658 6.72054 29.6524 8.27493 30.3635 9.49859L42.9638 31.326C21.2356 43.0996 6.51862 65.0924 4.08789 90.8386H155.987C153.556 65.0922 138.839 43.0994 117.095 31.326H117.095ZM45.1632 69.5075C41.641 69.5075 38.7968 66.6467 38.7968 63.1411C38.7968 59.619 41.6575 56.7748 45.1632 56.7748C48.6853 56.7748 51.5295 59.6355 51.5295 63.1411C51.5461 66.6467 48.6853 69.5075 45.1632 69.5075ZM114.895 69.5075C111.373 69.5075 108.529 66.6467 108.529 63.1411C108.529 59.619 111.39 56.7748 114.895 56.7748C118.418 56.7748 121.262 59.6355 121.262 63.1411C121.278 66.6467 118.418 69.5075 114.895 69.5075Z" fill="#3DDC84"/>
</svg>
