<svg width="256" height="48" viewBox="0 0 256 48" fill="none" xmlns="http://www.w3.org/2000/svg">
<path d="M250.788 24.8518C250.788 25.5752 250.234 26.1284 249.511 26.1284C248.788 26.1284 248.234 25.5752 248.234 24.8518C248.234 24.1284 248.788 23.5752 249.554 23.5752C250.234 23.5752 250.788 24.1284 250.788 24.8518ZM248.532 24.8518C248.532 25.405 248.958 25.8731 249.511 25.8731C250.064 25.8731 250.49 25.4475 250.49 24.8943C250.49 24.3412 250.064 23.8731 249.511 23.8731C248.958 23.8305 248.532 24.2986 248.532 24.8518ZM249.298 25.4901H249V24.2135C249.128 24.2135 249.298 24.1709 249.468 24.1709C249.724 24.1709 249.809 24.2135 249.894 24.256C249.979 24.2986 250.022 24.3837 250.022 24.5114C250.022 24.6816 249.894 24.7667 249.766 24.8092C249.894 24.8518 249.937 24.9369 249.979 25.1071C250.022 25.3199 250.064 25.3624 250.064 25.405H249.766C249.724 25.3624 249.724 25.2348 249.681 25.1071C249.681 24.9794 249.596 24.8943 249.426 24.8943H249.298V25.4901ZM249.298 24.8092H249.426C249.596 24.8092 249.724 24.7667 249.724 24.639C249.724 24.5114 249.639 24.4263 249.468 24.4263H249.298V24.8092Z" fill="#87D3E9"/>
<path d="M55.2554 18.1281H53.8086L54.532 16.6813L55.2554 18.1281ZM55.1278 15.8303H53.9788L51.9789 19.7877H52.9576L53.3405 19.0218H55.7235L56.1065 19.7877H57.0852L55.1278 15.8303ZM60.3618 18.6813L59.2554 15.8728V15.8303H57.7661V19.8303H58.7023V16.809L59.9363 19.7877V19.8303H60.8299L62.064 16.809V19.8303H63.0001V15.8303H61.5108L60.3618 18.6813ZM64.915 18.2133H67.8086V17.4047H64.915V16.7664H68.1916V15.8303H63.9789V19.8303H68.3193V18.8941H64.915V18.2133ZM70.1491 16.7664H72.3193C72.3618 16.7664 72.4044 16.809 72.4469 16.809C72.4895 16.809 72.532 16.8941 72.532 16.9367C72.5746 16.9792 72.5746 17.0643 72.5746 17.1494C72.5746 17.2345 72.5746 17.3196 72.532 17.3622L72.4044 17.4899C72.3618 17.5324 72.3193 17.5324 72.2767 17.5324H70.1065L70.1491 16.7664ZM73.2554 17.9579C73.298 17.8728 73.3831 17.7452 73.4257 17.6175C73.4682 17.4899 73.4682 17.3196 73.4682 17.1494C73.4682 16.8941 73.4257 16.6813 73.3406 16.5111C73.2554 16.3409 73.1703 16.2133 73.0427 16.1281C72.915 16.043 72.7874 15.9579 72.6597 15.9154C72.532 15.8728 72.4044 15.8728 72.3193 15.8728H69.2129V19.8303H70.1491V18.4686H71.8937L72.4469 19.7877H73.4257L72.8299 18.3409C72.915 18.2984 73.0001 18.2558 73.0427 18.2133C73.1278 18.1281 73.2129 18.043 73.2554 17.9579ZM74.4044 19.8303H75.3406V15.8303H74.4044V19.8303ZM79.8937 18.2984C79.8512 18.3835 79.8086 18.4686 79.7235 18.5537C79.6384 18.6388 79.5533 18.7239 79.4257 18.7664C79.298 18.809 79.1703 18.8941 79.0427 18.9367C78.8725 18.9792 78.7448 18.9792 78.5746 18.9792C78.3193 18.9792 78.1065 18.9367 77.9363 18.8941C77.7661 18.8516 77.5959 18.7239 77.5108 18.6388C77.3831 18.5111 77.298 18.426 77.2554 18.2558C77.2129 18.1281 77.1703 17.9579 77.1703 17.8303C77.1703 17.7026 77.2129 17.5324 77.2554 17.3622C77.298 17.2345 77.4257 17.1069 77.5108 16.9792C77.6384 16.8516 77.7661 16.7664 77.9363 16.7239C78.1065 16.6813 78.3193 16.6388 78.5746 16.6388C78.7448 16.6388 78.915 16.6388 79.0427 16.6813C79.2129 16.7239 79.298 16.7664 79.4257 16.809C79.5533 16.8516 79.6384 16.9367 79.7235 17.0218C79.8086 17.1069 79.8512 17.192 79.8937 17.2771V17.3196L80.7448 16.8516V16.809C80.6597 16.6388 80.532 16.5111 80.4044 16.3835C80.2767 16.2558 80.1065 16.1281 79.9363 16.043C79.7661 15.9579 79.5533 15.8728 79.3406 15.8303C79.1278 15.7877 78.8725 15.7452 78.6171 15.7452C78.2342 15.7452 77.8937 15.7877 77.5959 15.9154C77.298 16.043 77.0427 16.1707 76.8299 16.3835C76.6171 16.5962 76.4469 16.809 76.3618 17.0643C76.2342 17.3196 76.1916 17.575 76.1916 17.8728C76.1916 18.1707 76.2342 18.426 76.3618 18.6813C76.4895 18.9367 76.6171 19.1494 76.8299 19.3622C77.0427 19.575 77.298 19.7026 77.5959 19.8303C77.8937 19.9579 78.2342 20.0005 78.6171 20.0005C78.8725 20.0005 79.1278 19.9579 79.3406 19.9154C79.5533 19.8728 79.7661 19.7877 79.9363 19.6601C80.1065 19.5324 80.2767 19.4473 80.4044 19.2771C80.532 19.1494 80.6597 18.9792 80.7448 18.809V18.7664L79.8937 18.2984ZM84.532 18.1281H83.0852L83.8086 16.6813L84.532 18.1281ZM84.3618 15.8303H83.2129L81.2129 19.7877H82.1916L82.5746 19.0218H84.9576L85.3406 19.7877H86.3193L84.3618 15.8303ZM86.8725 17.5324H87.4682L87.9789 15.8303H87.0852L86.8725 17.5324ZM92.3618 17.7026C92.2342 17.6175 92.1065 17.5324 91.9363 17.4899C91.7661 17.4473 91.5959 17.4047 91.3831 17.4047C91.0001 17.4047 90.6597 17.3622 90.3618 17.3622C90.1491 17.3622 89.9788 17.3622 89.8512 17.3196H89.7235C89.5959 17.3196 89.4682 17.2771 89.4257 17.2345C89.3831 17.192 89.3406 17.1069 89.3406 17.0218C89.3406 16.9792 89.3831 16.8941 89.4257 16.8516C89.5108 16.809 89.5959 16.7239 89.7235 16.7239C89.8512 16.6813 89.9789 16.6388 90.1491 16.6388C90.4469 16.5962 90.7448 16.5962 91.0852 16.6388C91.2129 16.6388 91.3831 16.6813 91.5108 16.7239L91.8937 16.8516C92.0214 16.8941 92.1491 16.9367 92.2342 16.9792H92.2767L92.5746 16.1281H92.532C92.3193 16.0005 92.1065 15.9154 91.8937 15.8728C91.681 15.8303 91.4682 15.7877 91.298 15.7452C91.0852 15.7026 90.8725 15.7026 90.7023 15.7026C90.3618 15.7026 90.064 15.7452 89.7661 15.7877C89.5108 15.8728 89.2554 15.9579 89.0852 16.0856C88.8725 16.2133 88.7448 16.3409 88.6171 16.5111C88.4895 16.6813 88.4469 16.8516 88.4469 17.0218C88.4469 17.192 88.4895 17.3622 88.532 17.4899C88.5746 17.6175 88.7023 17.7452 88.8299 17.8303C88.9576 17.9154 89.0852 18.0005 89.2554 18.043C89.4257 18.0856 89.5959 18.1281 89.7661 18.1281C89.9363 18.1281 90.1065 18.1281 90.3193 18.1707H91.3831C91.5533 18.1707 91.6384 18.2133 91.7235 18.2558C91.7661 18.2984 91.8086 18.3835 91.8086 18.4686C91.8086 18.6388 91.681 18.7239 91.4682 18.8516C91.2129 18.9367 90.8725 19.0218 90.3618 19.0218C90.1916 19.0218 90.0214 19.0218 89.8512 18.9792C89.681 18.9367 89.5533 18.8941 89.3831 18.8516C89.2129 18.809 89.0001 18.7239 88.8299 18.5962H88.7874L88.4469 19.4473H88.4895C88.7023 19.575 88.915 19.6601 89.1278 19.7026C89.3406 19.7452 89.5533 19.8303 89.7235 19.8303C89.9363 19.8728 90.1491 19.8728 90.3193 19.8728C90.7023 19.8728 91.0427 19.8303 91.3405 19.7452C91.6384 19.6601 91.8937 19.575 92.064 19.4473C92.2342 19.3196 92.4044 19.1494 92.4895 18.9792C92.5746 18.809 92.6171 18.5962 92.6171 18.426C92.6171 18.2558 92.5746 18.0856 92.532 17.9579C92.5746 17.9154 92.4895 17.8303 92.3618 17.7026ZM99.681 17.3622L99.5533 17.4899C99.5108 17.5324 99.4682 17.5324 99.4257 17.5324H97.2554V16.7664H99.4257C99.4682 16.7664 99.5108 16.809 99.5533 16.809C99.5959 16.8516 99.6384 16.8941 99.6384 16.9367C99.681 16.9792 99.681 17.0643 99.681 17.1494C99.7235 17.2345 99.7235 17.3196 99.681 17.3622ZM100.234 16.1281C100.107 16.043 99.9788 15.9579 99.8512 15.9154C99.7235 15.8728 99.5959 15.8728 99.5108 15.8728H96.4044V19.8303H97.3406V18.4686H99.5108C99.5959 18.4686 99.7235 18.4686 99.8512 18.426C99.9788 18.3835 100.107 18.2984 100.234 18.2133C100.362 18.1281 100.447 18.0005 100.575 17.7877C100.66 17.6175 100.702 17.4047 100.702 17.1494C100.702 16.8941 100.66 16.6813 100.575 16.5111C100.447 16.3409 100.319 16.2133 100.234 16.1281ZM102.404 18.2133H105.298V17.4047H102.404V16.7664H105.681V15.8303H101.468V19.8303H105.809V18.8941H102.404V18.2133ZM107.596 16.7239H109.043C109.255 16.7239 109.468 16.7664 109.596 16.809C109.766 16.8516 109.894 16.9367 109.979 17.0218C110.064 17.1069 110.149 17.2345 110.192 17.3622C110.234 17.4899 110.277 17.6601 110.277 17.7877C110.277 17.9579 110.234 18.0856 110.192 18.2133C110.149 18.3409 110.064 18.4686 109.979 18.5537C109.894 18.6388 109.766 18.7239 109.596 18.7664C109.426 18.809 109.255 18.8516 109.043 18.8516H107.596V16.7239ZM110.702 16.426C110.532 16.2558 110.277 16.0856 110.021 16.0005C109.766 15.9154 109.426 15.8303 109.085 15.8303H106.66V19.7877H109.085C109.426 19.7877 109.766 19.7452 110.021 19.6175C110.277 19.5324 110.532 19.3622 110.702 19.192C110.872 19.0218 111.043 18.809 111.128 18.5537C111.213 18.2984 111.298 18.043 111.298 17.7877C111.298 17.5324 111.255 17.2345 111.128 17.0218C111.043 16.809 110.915 16.5962 110.702 16.426ZM112.107 19.8303H113.043V15.8303H112.107V19.8303ZM117 18.1281H115.511L116.234 16.6813L117 18.1281ZM116.872 15.8303H115.724L113.724 19.7877H114.702L115.085 19.0218H117.468L117.851 19.7877H118.83L116.872 15.8303ZM119.383 16.7664H120.915V19.8303H121.851V16.7664H123.383V15.8303H119.383V16.7664ZM125.17 16.7664H127.341C127.383 16.7664 127.426 16.809 127.468 16.809C127.511 16.8516 127.553 16.8941 127.553 16.9367C127.596 16.9792 127.596 17.0643 127.596 17.1494C127.596 17.2345 127.596 17.3196 127.553 17.3622L127.426 17.4899C127.383 17.5324 127.341 17.5324 127.298 17.5324H125.128L125.17 16.7664ZM128.319 17.9579C128.362 17.8728 128.447 17.7452 128.489 17.6175C128.532 17.4899 128.532 17.3196 128.532 17.1494C128.532 16.8941 128.489 16.6813 128.404 16.5111C128.319 16.3409 128.192 16.2133 128.107 16.1281C127.979 16.043 127.851 15.9579 127.724 15.9154C127.596 15.8728 127.468 15.8728 127.383 15.8728H124.277V19.8303H125.213V18.4686H126.958L127.511 19.7877H128.489L127.894 18.3409C127.979 18.2984 128.064 18.2558 128.107 18.2133C128.149 18.1281 128.234 18.043 128.319 17.9579ZM129.426 19.8303H130.362V15.8303H129.426V19.8303ZM134.958 18.2984C134.915 18.3835 134.872 18.4686 134.787 18.5537C134.702 18.6388 134.617 18.7239 134.489 18.7664C134.362 18.809 134.234 18.8941 134.107 18.9367C133.979 18.9792 133.809 18.9792 133.638 18.9792C133.383 18.9792 133.17 18.9367 133 18.8941C132.83 18.8516 132.66 18.7239 132.575 18.6388C132.447 18.5111 132.362 18.426 132.319 18.2558C132.277 18.1281 132.234 17.9579 132.234 17.8303C132.234 17.6601 132.277 17.5324 132.319 17.3622C132.362 17.2345 132.489 17.1069 132.575 16.9792C132.702 16.8516 132.83 16.7664 133 16.7239C133.17 16.6813 133.383 16.6388 133.638 16.6388C133.809 16.6388 133.936 16.6388 134.107 16.6813C134.277 16.7239 134.362 16.7664 134.489 16.809C134.617 16.8516 134.702 16.9367 134.787 17.0218C134.872 17.1069 134.915 17.192 135 17.2771V17.3196L135.851 16.8516V16.809C135.766 16.6388 135.638 16.5111 135.511 16.3835C135.383 16.2558 135.213 16.1281 135.043 16.043C134.872 15.9579 134.66 15.8728 134.447 15.8303C134.234 15.7877 133.979 15.7452 133.724 15.7452C133.341 15.7452 133 15.7877 132.702 15.9154C132.404 16.043 132.149 16.1707 131.936 16.3835C131.724 16.5962 131.553 16.809 131.468 17.0643C131.341 17.3196 131.298 17.575 131.298 17.8728C131.298 18.1707 131.341 18.426 131.468 18.6813C131.596 18.9367 131.724 19.1494 131.936 19.3622C132.149 19.575 132.404 19.7026 132.702 19.8303C133 19.9579 133.341 20.0005 133.724 20.0005C133.979 20.0005 134.234 19.9579 134.447 19.9154C134.66 19.8728 134.872 19.7877 135.043 19.6601C135.213 19.5324 135.383 19.4473 135.511 19.2771C135.638 19.1069 135.766 18.9792 135.851 18.809V18.7664L134.958 18.2984ZM140.362 16.7239H141.809C142.021 16.7239 142.234 16.7664 142.362 16.809C142.532 16.8516 142.66 16.9367 142.745 17.0218C142.83 17.1069 142.915 17.2345 142.958 17.3622C143 17.4899 143.043 17.6601 143.043 17.7877C143.043 17.9579 143 18.0856 142.958 18.2133C142.915 18.3409 142.83 18.4686 142.745 18.5537C142.66 18.6388 142.532 18.7239 142.362 18.7664C142.192 18.809 142.021 18.8516 141.809 18.8516H140.362V16.7239ZM143.468 16.426C143.298 16.2558 143.043 16.0856 142.787 16.0005C142.532 15.9154 142.192 15.8303 141.851 15.8303H139.468V19.7877H141.851C142.192 19.7877 142.532 19.7452 142.787 19.6175C143.043 19.5324 143.298 19.3622 143.468 19.192C143.638 19.0218 143.809 18.809 143.894 18.5537C143.979 18.2984 144.064 18.043 144.064 17.7877C144.064 17.5324 144.021 17.2345 143.894 17.0218C143.766 16.809 143.638 16.5962 143.468 16.426ZM145.766 18.2133H148.66V17.4047H145.766V16.7664H149.043V15.8303H144.83V19.8303H149.17V18.8941H145.766V18.2133ZM153.383 18.5111L150.958 15.8728V15.8303H150.064V19.8303H151V17.1494L153.426 19.7877V19.8303H154.319V15.8303H153.383V18.5111ZM155.17 16.7664H156.745V19.8303H157.638V16.7664H159.213V15.8303H155.17V16.7664ZM160.064 19.8303H161V15.8303H160.064V19.8303ZM165.681 17.7026C165.553 17.6175 165.426 17.5324 165.255 17.4899C165.085 17.4473 164.915 17.4047 164.702 17.4047C164.319 17.4047 163.979 17.3622 163.681 17.3622C163.468 17.3622 163.298 17.3622 163.17 17.3196H163.043C162.915 17.3196 162.787 17.2771 162.745 17.2345C162.702 17.192 162.66 17.1069 162.66 17.0218C162.66 16.9792 162.702 16.8941 162.745 16.8516C162.787 16.809 162.915 16.7239 163.043 16.7239C163.17 16.6813 163.298 16.6388 163.468 16.6388C163.724 16.5962 164.064 16.5962 164.404 16.6388C164.532 16.6388 164.702 16.6813 164.83 16.7239L165.213 16.8516C165.341 16.8941 165.468 16.9367 165.553 16.9792H165.596L165.894 16.1281C165.681 16.0005 165.468 15.9154 165.255 15.8728C165.043 15.8303 164.83 15.7877 164.66 15.7452C164.447 15.7026 164.234 15.7026 164.021 15.7026C163.681 15.7026 163.383 15.7452 163.085 15.7877C162.83 15.8728 162.575 15.9579 162.362 16.0856C162.149 16.2133 162.021 16.3409 161.894 16.5111C161.766 16.6813 161.724 16.8516 161.724 17.0218C161.724 17.192 161.766 17.3622 161.809 17.4899C161.851 17.6175 161.979 17.7452 162.107 17.8303C162.234 17.9154 162.362 18.0005 162.532 18.043C162.702 18.0856 162.872 18.1281 163.085 18.1281C163.255 18.1281 163.426 18.1281 163.638 18.1707H164.702C164.872 18.1707 164.958 18.2133 165.043 18.2558C165.128 18.2984 165.128 18.3835 165.128 18.4686C165.128 18.6388 165 18.7239 164.787 18.8516C164.575 18.9367 164.192 19.0218 163.724 19.0218C163.553 19.0218 163.383 19.0218 163.213 18.9792C163.043 18.9367 162.915 18.8941 162.745 18.8516C162.575 18.809 162.404 18.7239 162.192 18.5962H162.149L161.809 19.4473C162.021 19.575 162.234 19.6601 162.447 19.7026C162.66 19.7452 162.872 19.8303 163.043 19.8303C163.255 19.8728 163.468 19.8728 163.681 19.8728C164.064 19.8728 164.404 19.8303 164.702 19.7452C165 19.6601 165.255 19.575 165.426 19.4473C165.596 19.3196 165.766 19.1494 165.851 18.9792C165.936 18.809 165.979 18.5962 165.979 18.426C165.979 18.2558 165.936 18.0856 165.894 17.9579C165.894 17.9154 165.809 17.8303 165.681 17.7026ZM166.702 16.7664H168.277V19.8303H169.17V16.7664H170.745V15.8303H166.702V16.7664ZM175.553 18.043C175.511 17.9154 175.383 17.7877 175.298 17.7026C175.17 17.6175 175.043 17.5324 174.872 17.4899C174.702 17.4473 174.532 17.4047 174.319 17.4047C173.936 17.4047 173.596 17.3622 173.298 17.3622C173.085 17.3622 172.915 17.3622 172.787 17.3196H172.66C172.532 17.3196 172.447 17.2771 172.362 17.2345C172.277 17.192 172.277 17.1069 172.277 17.0218C172.277 16.9367 172.319 16.8941 172.362 16.8516C172.404 16.809 172.532 16.7239 172.66 16.7239C172.787 16.6813 172.915 16.6388 173.085 16.6388C173.341 16.5962 173.681 16.5962 174.021 16.6388C174.149 16.6388 174.319 16.6813 174.447 16.7239L174.83 16.8516C174.958 16.8941 175.085 16.9367 175.17 16.9792H175.213L175.511 16.1281H175.468C175.255 16.0005 175.043 15.9154 174.83 15.8728C174.617 15.8303 174.404 15.7877 174.234 15.7452C174.021 15.7026 173.809 15.7026 173.638 15.7026C173.298 15.7026 173 15.7452 172.702 15.7877C172.447 15.8728 172.192 15.9579 171.979 16.0856C171.766 16.2133 171.638 16.3409 171.511 16.5111C171.383 16.6813 171.341 16.8516 171.341 17.0218C171.341 17.192 171.383 17.3622 171.426 17.4899C171.468 17.6175 171.596 17.7452 171.681 17.8303C171.809 17.9154 171.936 18.0005 172.107 18.043C172.277 18.0856 172.447 18.1281 172.66 18.1281C172.83 18.1281 173.043 18.1281 173.213 18.1707H174.277C174.447 18.1707 174.532 18.2133 174.617 18.2558C174.702 18.2984 174.702 18.3835 174.702 18.4686C174.702 18.6388 174.575 18.7239 174.362 18.8516C174.149 18.9367 173.766 19.0218 173.298 19.0218C173.128 19.0218 172.958 19.0218 172.787 18.9792C172.66 18.9367 172.49 18.8941 172.319 18.8516C172.149 18.809 171.936 18.7239 171.766 18.5962H171.724L171.426 19.4047V19.4473H171.468C171.681 19.575 171.894 19.6601 172.107 19.7026C172.319 19.7452 172.532 19.8303 172.702 19.8303C172.915 19.8728 173.128 19.8728 173.341 19.8728C173.724 19.8728 174.064 19.8303 174.362 19.7452C174.66 19.6601 174.872 19.575 175.085 19.4473C175.298 19.3196 175.426 19.1494 175.511 18.9792C175.596 18.809 175.638 18.5962 175.638 18.426C175.638 18.3409 175.638 18.2133 175.553 18.043ZM5.42566 24.0005C5.42566 18.7239 7.46821 13.7452 11.2129 10.0005C14.9576 6.29836 19.9363 4.21325 25.2129 4.21325C30.4895 4.21325 35.4682 6.25581 39.2129 10.0005C42.9576 13.7452 45.0001 18.7239 45.0001 24.0005C45.0001 34.8941 36.1065 43.7877 25.2129 43.7877C19.9363 43.7877 14.9576 41.7452 11.2129 38.0005C7.51076 34.2558 5.42566 29.3196 5.42566 24.0005ZM25.2129 44.0005C30.5746 44.0005 35.5959 41.9154 39.3831 38.1281C43.1703 34.3835 45.2129 29.3622 45.2129 24.0005C45.2129 18.6388 43.1278 13.6175 39.3405 9.83028C35.5959 6.08559 30.5746 4.00049 25.2129 4.00049C14.1916 4.00049 5.21289 12.9792 5.21289 24.0005C5.21289 29.3622 7.298 34.3835 11.0852 38.1707C14.8725 41.9579 19.8937 44.0005 25.2129 44.0005Z" fill="#1393C9"/>
<path d="M35.0427 9.19187L35.1278 8.51102L34.532 8.85145L35.0427 9.19187ZM34.9576 10.2132L35.0001 9.83017L34.064 9.19187L33.7235 9.40464L33.0427 8.97911L35.1703 7.91528L35.7661 8.29826L35.6384 10.6812L34.9576 10.2132ZM20.8725 6.72379L20.4044 6.2557L20.2767 6.894L20.8725 6.72379ZM21.5533 7.44719L21.2554 7.14932L20.1491 7.44719L20.1065 7.83017L19.3406 8.04294L19.9363 5.70251L20.6171 5.48975L22.3618 7.14932L21.5533 7.44719ZM9.21289 24.0004C9.21289 28.2557 10.8725 32.2983 13.8937 35.3195C16.915 38.3408 20.9576 40.0004 25.2129 40.0004C29.5108 40.0004 33.5108 38.3408 36.532 35.3195C39.5533 32.2983 41.2129 28.2557 41.2129 24.0004C41.2129 19.7025 39.5533 15.7025 36.532 12.6812C33.5108 9.65996 29.5108 8.00038 25.2129 8.00038C16.4044 8.00038 9.21289 15.1919 9.21289 24.0004ZM25.2129 8.21315C29.4257 8.21315 33.3831 9.87272 36.4044 12.8514C39.3831 15.8302 41.0427 19.7876 41.0427 24.0429C41.0427 32.7663 33.9363 39.8302 25.2554 39.8302C21.0427 39.8302 17.0852 38.1706 14.064 35.1919C11.0852 32.2132 9.42566 28.2557 9.42566 24.0004C9.42566 19.7876 11.0852 15.8302 14.064 12.8089C17.0427 9.87273 21.0001 8.21315 25.2129 8.21315Z" fill="#1393C9"/>
<path d="M26.6599 31.5325C27.7237 31.0645 28.362 30.0857 28.362 28.8091C28.362 26.6389 26.3195 25.4474 24.3195 25.4474C21.511 25.4474 18.9152 26.9368 15.8514 29.1496C19.6812 25.7879 23.8939 22.8942 27.7663 22.8942C30.7025 22.8942 33.6386 24.2134 33.6386 27.2772C33.6386 29.0219 32.8727 30.341 31.6386 31.4474L31.511 31.5751H38.4471L33.6386 23.4049L33.5535 23.2347C32.745 22.0006 31.2557 21.0219 29.2982 21.0219C25.7237 21.0219 21.0003 23.3198 13.128 30.8942C20.9578 21.3198 27.0854 17.873 31.5961 19.8304L30.8727 18.5964L30.7025 18.2559C25.2131 16.5538 19.9365 21.873 13.511 29.8304C17.6386 23.9581 23.8088 16.0857 29.8088 16.7666L25.2131 8.85169L12.1067 31.5751H26.5322L26.6599 31.5325ZM6.23438 24.0006C6.23438 23.7453 6.27693 23.3623 6.27693 23.1496C6.31948 22.7666 6.5748 22.6815 6.78757 22.6389C7.04289 22.5964 7.46842 22.5964 7.80884 22.6389C8.02161 22.6815 8.27693 22.7666 8.31948 23.1496C8.36203 23.3623 8.36203 23.7453 8.36203 24.0006C8.36203 24.2559 8.31948 24.5964 8.31948 24.8091C8.27693 25.1921 7.97906 25.2772 7.80884 25.3198C7.46842 25.3623 7.04289 25.3623 6.78757 25.3198C6.5748 25.2772 6.31948 25.1921 6.27693 24.8091C6.27693 24.5964 6.23438 24.2559 6.23438 24.0006ZM6.87267 24.4687C6.87267 24.5538 6.95778 24.6815 7.12799 24.6815H7.59608C7.76629 24.6815 7.8514 24.5113 7.8514 24.4687V23.49C7.8514 23.4049 7.76629 23.2772 7.59608 23.2772H7.08544C6.91523 23.2772 6.83012 23.4049 6.83012 23.49L6.87267 24.4687ZM42.8301 24.6815L42.1067 24.0006V23.1921L43.4259 24.3836L44.1493 24.4262L44.1067 25.0645L43.3833 25.0219L42.0216 26.1283L42.0642 25.3198L42.8301 24.6815ZM6.40459 26.2134L8.44714 25.8304L8.78757 28.0006L8.31948 28.0857L8.06416 26.5538L7.72374 26.6389L7.97906 28.0432L7.46842 28.1283L7.25565 26.724L6.48969 26.8517L6.40459 26.2134ZM9.97906 33.7879L9.76629 33.9581L10.6599 35.2772L10.1918 35.5751L8.91523 33.7028L10.6599 32.5538L11.8939 34.3836L11.4684 34.6389L10.6174 33.3623L10.362 33.5325L11.1705 34.724L10.7876 34.9793L9.97906 33.7879ZM13.0429 36.7666C13.128 36.6815 13.1705 36.5113 13.0429 36.4262L12.2344 35.5751L11.5535 36.2134L12.362 37.0645C12.4471 37.1496 12.6174 37.1496 12.7025 37.0645L13.0429 36.7666ZM13.128 37.6176C12.7876 37.9155 12.4046 37.9581 12.0216 37.5751L10.7025 36.2134L12.1918 34.7666L13.511 36.1283C13.8939 36.5113 13.8514 36.8942 13.511 37.2347L13.128 37.6176ZM26.1493 42.1708H25.511C25.511 42.2559 25.4259 42.3836 25.3408 42.3836H24.4471C24.362 42.3836 24.2344 42.2985 24.2344 42.1283V41.7028C24.2344 41.5325 24.362 41.4474 24.4471 41.4474H25.3408C25.4684 41.4474 25.511 41.5751 25.511 41.6602H26.1493V41.4049C26.1493 41.1921 26.0216 40.9368 25.6812 40.8942C25.4684 40.8517 25.128 40.8091 24.9152 40.8091C24.6599 40.8091 24.3195 40.8091 24.1493 40.8517C23.7663 40.8942 23.6812 41.1496 23.6386 41.3623C23.5961 41.7028 23.5961 42.1283 23.5961 42.3836C23.6386 42.5964 23.7237 42.8517 24.0642 42.8942C24.2769 42.9368 24.6174 42.9793 24.8301 42.9793C25.0854 42.9793 25.4259 42.9793 25.5961 42.9368C25.9791 42.8942 26.1067 42.6389 26.1067 42.4262L26.1493 42.1708ZM34.5748 38.8091L35.3833 39.9581L34.8301 40.341L33.6386 38.6389L34.4471 38.0857L36.2344 38.5964L35.4259 37.4049L35.8939 37.0645L37.0854 38.7666L36.2769 39.3198L34.5748 38.8091ZM19.2982 39.873L19.0854 40.341L18.3195 40.0006L17.6812 41.4049L17.128 41.1496L17.7237 39.7453L17.0003 39.4049L17.2131 38.8942L19.2982 39.873ZM10.5748 15.7453H8.91523L10.1493 16.4687L9.8514 16.9793L8.06416 15.9581L8.53225 15.1496H9.9365L9.25565 13.9155L9.68118 13.107L11.511 14.1708L11.2131 14.6815L9.97906 13.9581L10.7876 15.3623L10.5748 15.7453ZM15.8514 39.4049L15.9365 38.724L15.3833 39.0645L15.8514 39.4049ZM15.7237 40.4262L15.7663 40.0432L14.7876 39.4474L14.4471 39.6602L13.7663 39.2347L15.894 38.1283L16.4897 38.5113L16.4046 40.8942L15.7237 40.4262ZM14.8301 37.3198L13.5535 38.8942L13.0429 38.5113L14.362 36.8942L14.8301 37.3198ZM40.4046 32.6815L40.7025 32.1708L40.5748 32.0857C40.362 31.9581 40.1067 32.0432 39.9365 32.2985C39.8088 32.4687 39.3833 33.1496 39.2557 33.4049C39.0854 33.8304 39.128 34.0857 39.3833 34.2134L39.6386 34.3836C39.7663 34.4687 40.0216 34.4687 40.2344 34.1708C40.4471 33.873 40.7876 33.3623 40.8301 33.2347C40.9152 33.107 41.0003 33.0645 41.0854 33.107C41.1705 33.1496 41.2131 33.2347 41.128 33.4049L40.7025 34.0857C40.6599 34.1708 40.5322 34.2134 40.4046 34.1283L40.0642 34.6389L40.2769 34.7666C40.362 34.8091 40.7025 34.8942 40.9152 34.5538C41.128 34.2559 41.5535 33.6176 41.7237 33.2347C41.8514 32.9368 41.7237 32.6815 41.511 32.5538L41.2131 32.3836C41.128 32.341 40.8301 32.341 40.6599 32.5964C40.4471 32.8517 40.0642 33.49 39.9791 33.6176C39.8939 33.7453 39.8088 33.7028 39.7663 33.6602C39.7237 33.6176 39.6812 33.5325 39.7237 33.4474L40.1493 32.7666C40.2344 32.6389 40.3195 32.5964 40.4046 32.6815ZM8.27693 31.2772L7.80884 31.49L7.55352 30.8942L9.42586 30.0432L10.1493 31.5751C10.362 32.0432 10.1918 32.341 9.89395 32.4687L9.55352 32.6389C9.2982 32.7666 8.91523 32.724 8.70246 32.2559L8.27693 31.2772ZM9.51097 31.9155C9.59608 31.873 9.63863 31.7879 9.59608 31.7028L9.2131 30.8517L8.78757 31.0645L9.17055 31.9155C9.2131 32.0006 9.34076 32.0432 9.38331 32.0006L9.51097 31.9155ZM21.0429 41.873L20.0642 41.6176L19.9365 42.1283L19.2557 42.0006L19.7663 40.0006L21.6812 40.5113C21.9365 40.5964 22.1067 40.8091 22.0216 41.0219L21.8939 41.4474C21.8939 41.5325 21.8088 41.7028 21.5961 41.7453C21.6812 41.8304 21.7663 42.0006 21.7237 42.2134L21.5961 42.6389L20.9578 42.4687L21.0429 42.1708C21.128 42.0432 21.128 41.9581 21.0429 41.873ZM21.3833 41.107C21.3833 41.0219 21.3408 40.9368 21.2557 40.8942L20.2769 40.6389L20.1493 41.107L21.128 41.3623C21.2131 41.4049 21.3408 41.3198 21.3408 41.2347L21.3833 41.107ZM23.2982 40.7666L23.0003 42.8091L22.362 42.724L22.6599 40.6815L23.2982 40.7666ZM30.5748 40.8517C30.5322 40.724 30.4046 40.6389 30.2769 40.6815L29.1705 40.9793L29.4259 41.873L30.5322 41.5751C30.6599 41.5325 30.745 41.4049 30.7025 41.2772L30.5748 40.8517ZM31.2982 41.1921C31.4259 41.6176 31.2557 42.0006 30.745 42.1283L28.9152 42.6389L28.362 40.5964L30.1918 40.0857C30.7025 39.9581 31.0429 40.1708 31.1705 40.5964L31.2982 41.1921ZM32.4046 40.6389L32.5322 40.8942L33.9791 40.2134L34.1918 40.724L32.1493 41.6602L31.2982 39.7879L33.2982 38.8517L33.511 39.3198L32.1067 39.9581L32.1918 40.2134L33.511 39.6176L33.7237 40.0432L32.4046 40.6389ZM37.9365 35.1921L38.3195 35.5751L37.7237 36.1283L38.7876 37.2347L38.3195 37.7028L37.2557 36.5964L36.6599 37.1921L36.2769 36.8091L37.9365 35.1921ZM38.7025 34.1283L40.3195 35.4049L39.9365 35.9155L38.3195 34.6389L38.7025 34.1283ZM41.2982 29.3198L41.7663 29.5325L41.4684 30.2985L42.8727 30.8517L42.6599 31.4474L41.2131 30.8942L40.9152 31.6602L40.4046 31.4474L41.2982 29.3198ZM43.2131 27.6176L43.0003 28.6389L43.5535 28.7666L43.4259 29.4049L41.3833 28.8942L41.8088 26.9793C41.8514 26.724 42.0642 26.5538 42.3195 26.5964L42.745 26.6815C42.8301 26.6815 43.0003 26.7666 43.0854 26.9793C43.1705 26.8942 43.3408 26.7666 43.5535 26.8517L43.9791 26.9368L43.8514 27.5751L43.511 27.5325C43.3833 27.5325 43.2982 27.5325 43.2131 27.6176ZM42.4471 27.2772C42.362 27.2772 42.2769 27.3198 42.2344 27.4049L42.0216 28.3836L42.4897 28.5113L42.7025 27.5325C42.745 27.4474 42.6599 27.3623 42.5748 27.3198L42.4471 27.2772ZM8.48969 18.1708L7.80884 18.2559L8.27693 18.724L8.48969 18.1708ZM9.46842 18.0432L9.08544 18.0857L8.74501 19.1496L9.04289 19.4474L8.78757 20.2134L7.17055 18.4687L7.38331 17.7879L9.72374 17.2772L9.46842 18.0432ZM11.6386 12.6815L11.8514 12.8517L12.9152 11.6602L13.2982 12.0432L11.8088 13.7028L10.2769 12.341L11.7237 10.6815L12.1067 11.0219L11.0854 12.1708L11.2982 12.3836L12.2344 11.2772L12.5748 11.5751L11.6386 12.6815ZM14.6599 10.1708L13.8514 10.8091L14.1918 11.2347L13.6812 11.6602L12.4046 10.0432L13.9365 8.80913C14.1493 8.63892 14.4046 8.63892 14.5748 8.85169L14.8301 9.19211C14.8727 9.27722 15.0003 9.40488 14.9152 9.61764C15.0429 9.61764 15.2131 9.61764 15.3833 9.78786L15.6386 10.1283L15.128 10.5538L14.9578 10.341C14.8727 10.2134 14.7876 10.1708 14.6599 10.1708ZM14.2344 9.44743C14.1918 9.40488 14.0642 9.36233 13.9791 9.40488L13.2131 10.0432L13.511 10.4262L14.2769 9.78786C14.362 9.7453 14.362 9.61764 14.3195 9.53254L14.2344 9.44743ZM15.5535 7.7453L16.6174 9.48998L16.0642 9.83041L15.0003 8.08573L15.5535 7.7453ZM19.0003 7.40488L18.4046 7.70275C18.4471 7.78786 18.4471 7.91552 18.3195 7.95807L17.5535 8.2985C17.4684 8.34105 17.3408 8.2985 17.2557 8.17084L17.0854 7.78786C17.0003 7.61764 17.0854 7.48998 17.1705 7.48998L17.9791 7.10701C18.1067 7.06445 18.1918 7.14956 18.2344 7.23467L18.7876 6.97935L18.7025 6.76658C18.6174 6.55381 18.4046 6.3836 18.0642 6.51126C17.8514 6.55381 17.5535 6.68147 17.3408 6.76658C17.128 6.85169 16.8301 7.0219 16.6599 7.14956C16.362 7.36233 16.362 7.61764 16.4471 7.83041C16.5322 8.17084 16.745 8.51126 16.8727 8.76658C16.9578 8.93679 17.1705 9.10701 17.511 9.0219C17.7237 8.97935 18.0216 8.85169 18.2344 8.76658C18.4471 8.68147 18.745 8.51126 18.9152 8.3836C19.2131 8.17084 19.2131 7.91552 19.128 7.70275L19.0003 7.40488ZM23.0003 5.87296L23.0854 7.31977L22.4471 7.36233L22.2769 5.27722L23.2131 5.19211L24.5322 6.55381L24.4046 5.10701L25.0003 5.06445L25.1705 7.10701L24.2344 7.19211L23.0003 5.87296ZM29.4259 6.80913L29.2557 6.17084L28.8301 6.68147L29.4259 6.80913ZM29.6812 7.7453L29.5961 7.36233L28.4897 7.10701L28.1918 7.44743L27.3833 7.27722L29.0429 5.48999L29.7663 5.6602L30.4897 7.95807L29.6812 7.7453ZM33.3833 8.2985L32.7876 8.04318C32.745 8.12828 32.6599 8.21339 32.5322 8.17084L31.7237 7.83041C31.6386 7.78786 31.5535 7.6602 31.6386 7.53254L31.8088 7.14956C31.8514 6.93679 32.0216 6.93679 32.1067 6.97935L32.9152 7.31977C33.0429 7.36233 33.0429 7.48998 33.0003 7.57509L33.5961 7.83041L33.6812 7.61764C33.7663 7.44743 33.7663 7.14956 33.4259 6.93679C33.2557 6.80913 32.9578 6.68147 32.745 6.55381C32.5322 6.46871 32.1918 6.34105 31.9791 6.2985C31.6386 6.21339 31.4259 6.42616 31.3408 6.55381C31.1705 6.85169 31.0003 7.23467 30.9578 7.48998C30.9152 7.70275 30.8727 7.95807 31.2131 8.17084C31.3833 8.2985 31.6812 8.42616 31.8939 8.55381C32.1067 8.63892 32.4471 8.76658 32.6599 8.80913C33.0003 8.89424 33.2131 8.72403 33.2982 8.55381L33.3833 8.2985ZM38.0642 11.1921C38.1493 11.0645 38.1493 10.9368 38.0642 10.8517L37.2131 10.0857L36.5748 10.7666L37.4259 11.5325C37.5535 11.6176 37.6812 11.6176 37.7663 11.5325L38.0642 11.1921ZM38.1918 12.0006C37.8939 12.341 37.511 12.3836 37.0854 12.0006L35.6812 10.724L37.0854 9.19211L38.4897 10.4687C38.8727 10.8517 38.8727 11.2347 38.5748 11.5751L38.1918 12.0006ZM38.8727 12.724L38.6174 12.8942L39.5961 14.1708L39.1705 14.4687L37.8088 12.724L39.4259 11.4474L40.7876 13.1921L40.4046 13.49L39.4259 12.2559L39.2131 12.4262L40.1067 13.5751L39.7663 13.873L38.8727 12.724ZM40.1067 16.1708L41.0003 14.7666L39.7237 15.4474L39.4684 14.8942L41.2982 13.9581L41.7237 14.7666L40.9578 15.9581L42.362 16.0432L42.7876 16.8942L40.9578 17.8304L40.6599 17.2772L41.9365 16.6389L40.3195 16.5538L40.1067 16.1708ZM42.7876 19.3198L43.6812 19.7879L43.894 20.5538L42.2769 19.7879L41.5961 20.0006L41.4259 19.3623L42.1067 19.1496L43.128 17.7453L43.3408 18.5113L42.7876 19.3198Z" fill="#1393C9"/>
<path d="M54.3189 25.7453C54.3189 25.49 54.1913 25.4048 53.9785 25.4048H52.3189C52.1062 25.4048 51.9785 25.2772 51.9785 25.0644V23.7453C51.9785 23.49 52.1062 23.4048 52.3189 23.4048H58.404C58.6594 23.4048 58.7445 23.5325 58.7445 23.7453V25.0644C58.7445 25.2772 58.6168 25.4048 58.404 25.4048H56.7445C56.5317 25.4048 56.404 25.5325 56.404 25.7453V31.3197C56.404 31.5325 56.2764 31.6602 56.0636 31.6602H54.7445C54.5317 31.6602 54.404 31.5325 54.404 31.3197L54.3189 25.7453ZM61.17 23.3623C61.3828 23.3623 61.5104 23.49 61.5104 23.7027V26.6814C61.5104 26.8942 61.6381 27.0219 61.8509 27.0219H62.9998C63.2551 27.0219 63.3402 26.8942 63.3402 26.6814V23.7027C63.3402 23.49 63.4679 23.3623 63.6806 23.3623H64.9998C65.2551 23.3623 65.3402 23.49 65.3402 23.7027V31.3197C65.3402 31.5325 65.2126 31.6602 64.9998 31.6602H63.6806C63.4679 31.6602 63.3402 31.5325 63.3402 31.3197V29.4474C63.3402 29.1921 63.2126 29.107 62.9998 29.107H61.8509C61.6381 29.107 61.5104 29.2346 61.5104 29.4474V31.3197C61.5104 31.5325 61.3828 31.6602 61.17 31.6602H59.8509C59.6381 31.6602 59.5104 31.5325 59.5104 31.3197V23.7027C59.5104 23.4474 59.6381 23.3623 59.8509 23.3623H61.17ZM71.936 23.3623C72.1913 23.3623 72.2764 23.49 72.2764 23.7027V25.0219C72.2764 25.2346 72.1487 25.3623 71.936 25.3623H69.0423C68.8296 25.3623 68.7019 25.49 68.7019 25.7027V26.1283C68.7019 26.341 68.8296 26.4687 69.0423 26.4687H70.8721C71.1275 26.4687 71.2126 26.5963 71.2126 26.8091V28.1283C71.2126 28.341 71.0849 28.4687 70.8721 28.4687H69.0423C68.8296 28.4687 68.7019 28.5963 68.7019 28.8091V29.1921C68.7019 29.4048 68.8296 29.5325 69.0423 29.5325H71.936C72.1913 29.5325 72.2764 29.6602 72.2764 29.8729V31.1921C72.2764 31.4474 72.1487 31.5325 71.936 31.5325H66.9572C66.7445 31.5325 66.6168 31.4048 66.6168 31.1921V23.7027C66.6168 23.4474 66.7445 23.3623 66.9572 23.3623H71.936ZM79.8509 27.0219C80.404 27.0219 80.7019 26.9368 80.7019 26.2134C80.7019 25.49 80.404 25.4048 79.8509 25.4048H79.2126C78.9998 25.4048 78.8721 25.5325 78.8721 25.7453V26.6389C78.8721 26.8942 78.9998 26.9793 79.2126 26.9793H79.8509V27.0219ZM79.936 30.0006C80.4892 30.0006 80.787 29.958 80.787 29.3623C80.787 28.8091 80.5317 28.724 79.936 28.724H79.17C78.9572 28.724 78.8296 28.8517 78.8296 29.0644V29.6176C78.8296 29.8729 78.9572 29.958 79.17 29.958L79.936 30.0006ZM79.6381 23.3623C81.8934 23.3623 82.7445 24.2559 82.7445 26.2134C82.7445 26.6389 82.6168 27.4048 82.1487 27.9155C82.6168 28.1283 82.9998 28.724 82.9998 29.49C82.9998 30.9793 82.3615 31.6602 80.1062 31.6602H77.1275C76.9147 31.6602 76.787 31.5325 76.787 31.3197V23.7027C76.787 23.4474 76.9147 23.3623 77.1275 23.3197L79.6381 23.3623ZM85.4253 23.3623C85.6806 23.3623 85.7658 23.49 85.7658 23.7027V31.3197C85.7658 31.5325 85.6381 31.6602 85.4253 31.6602H84.1062C83.8934 31.6602 83.7658 31.5325 83.7658 31.3197V23.7027C83.7658 23.4474 83.8934 23.3623 84.1062 23.3623H85.4253ZM86.8296 26.0431C86.8296 25.2772 86.9998 23.1495 89.8083 23.1495C92.3189 23.1495 92.7019 24.8091 92.787 25.7027C92.787 25.9155 92.7019 26.0431 92.4892 26.0857L91.1274 26.3836C90.8721 26.4261 90.7445 26.341 90.7445 26.0857C90.7019 25.5325 90.4892 25.1921 89.8083 25.1921C88.9147 25.1921 88.8721 25.7453 88.8721 26.6814V28.3836C88.8721 29.2772 88.9147 29.8729 89.8083 29.8729C90.7019 29.8729 90.7445 29.3197 90.7445 28.724H90.0636C89.8509 28.724 89.7232 28.5963 89.7232 28.3836V27.4048C89.7232 27.1495 89.8509 27.0644 90.0636 27.0644H92.4466C92.7019 27.0644 92.787 27.1921 92.787 27.4048V29.0219C92.787 29.7878 92.6168 31.9155 89.8083 31.9155C86.9998 31.9155 86.8296 29.7878 86.8296 29.0219V26.0431ZM101.127 26.2134C101.127 25.6602 101.042 25.3623 100.276 25.3623C99.5104 25.3623 99.4253 25.6602 99.4253 26.2134V27.49C99.4253 27.7027 99.553 27.8304 99.7657 27.8304H100.787C101.042 27.8304 101.127 27.7027 101.127 27.4474V26.2134ZM103.17 31.2772C103.17 31.5325 103.042 31.7027 102.83 31.7027H101.51C101.298 31.7027 101.17 31.5751 101.17 31.3623V30.341C101.17 30.0857 101.042 30.0006 100.83 30.0006H99.8083C99.5955 30.0006 99.4679 30.1283 99.4679 30.341V31.3623C99.4679 31.6176 99.3402 31.7027 99.1274 31.7027H97.8083C97.5955 31.7027 97.4679 31.5751 97.4679 31.2772V26.2134C97.4679 24.724 97.7232 23.107 100.404 23.107C103.085 23.107 103.298 24.724 103.298 26.2134L103.17 31.2772ZM105.936 23.3623C106.149 23.3623 106.276 23.49 106.276 23.7027V28.3836C106.276 29.2772 106.319 29.8729 107.213 29.8729C108.106 29.8729 108.149 29.3197 108.149 28.3836V23.7027C108.149 23.4474 108.276 23.3623 108.489 23.3623H109.808C110.064 23.3623 110.149 23.49 110.149 23.7027V28.9793C110.149 29.7453 109.979 31.8729 107.17 31.8729C104.361 31.8729 104.191 29.7453 104.191 28.9793V23.7027C104.191 23.4474 104.319 23.3623 104.532 23.3623H105.936ZM113.255 25.7453C113.255 25.49 113.127 25.4048 112.915 25.4048H111.255C111.042 25.4048 110.915 25.2772 110.915 25.0644V23.7453C110.915 23.49 111.042 23.4048 111.255 23.4048H117.34C117.596 23.4048 117.681 23.5325 117.681 23.7453V25.0644C117.681 25.2772 117.553 25.4048 117.34 25.4048H115.681C115.468 25.4048 115.34 25.5325 115.34 25.7453V31.3197C115.34 31.5325 115.213 31.6602 115 31.6602H113.681C113.468 31.6602 113.34 31.5325 113.34 31.3197L113.255 25.7453ZM120.064 23.3623C120.276 23.3623 120.404 23.49 120.404 23.7027V26.6814C120.404 26.8942 120.532 27.0219 120.744 27.0219H121.893C122.149 27.0219 122.234 26.8942 122.234 26.6814V23.7027C122.234 23.49 122.361 23.3623 122.574 23.3623H123.893C124.149 23.3623 124.234 23.49 124.234 23.7027V31.3197C124.234 31.5325 124.106 31.6602 123.893 31.6602H122.574C122.361 31.6602 122.234 31.5325 122.234 31.3197V29.4474C122.234 29.1921 122.106 29.107 121.893 29.107H120.744C120.532 29.107 120.404 29.2346 120.404 29.4474V31.3197C120.404 31.5325 120.276 31.6602 120.064 31.6602H118.744C118.532 31.6602 118.404 31.5325 118.404 31.3197V23.7027C118.404 23.4474 118.532 23.3623 118.744 23.3623H120.064ZM129.298 26.6389C129.298 25.7453 129.255 25.1495 128.361 25.1495C127.468 25.1495 127.425 25.7027 127.425 26.6389V28.341C127.425 29.2346 127.468 29.8304 128.361 29.8304C129.255 29.8304 129.298 29.2772 129.298 28.341V26.6389ZM131.34 29.0219C131.34 29.7878 131.17 31.9155 128.361 31.9155C125.553 31.9155 125.383 29.7878 125.383 29.0219V26.0431C125.383 25.2772 125.553 23.1495 128.361 23.1495C131.17 23.1495 131.34 25.2772 131.34 26.0431V29.0219ZM134.872 25.4048C134.659 25.4048 134.489 25.5751 134.489 25.7878V26.6814C134.489 26.8942 134.659 27.0644 134.872 27.0644H135.468C136.021 27.0644 136.319 26.9793 136.319 26.2559C136.319 25.5325 136.021 25.4474 135.468 25.4474H134.872V25.4048ZM138.702 31.0219C138.872 31.3197 138.702 31.6602 138.319 31.6602H136.957C136.83 31.6602 136.744 31.6176 136.702 31.49L135.425 29.107C135.383 29.0644 135.383 29.0644 135.34 29.0644H134.872C134.659 29.0644 134.489 29.2346 134.489 29.4474V31.3197C134.489 31.5325 134.319 31.7027 134.106 31.7027H132.787C132.574 31.7027 132.404 31.5325 132.404 31.3197V23.7027C132.404 23.49 132.574 23.3197 132.787 23.3197H135.383C137.51 23.3197 138.361 24.2134 138.361 26.1708C138.361 27.2772 138.106 28.0431 137.468 28.5112C137.425 28.5538 137.425 28.5963 137.425 28.6814L138.702 31.0219ZM141.127 23.3623C141.383 23.3623 141.468 23.49 141.468 23.7027V31.3197C141.468 31.5325 141.34 31.6602 141.127 31.6602H139.808C139.596 31.6602 139.468 31.5325 139.468 31.3197V23.7027C139.468 23.4474 139.596 23.3623 139.808 23.3623H141.127ZM144.574 25.7453C144.574 25.49 144.447 25.4048 144.234 25.4048H142.574C142.361 25.4048 142.234 25.2772 142.234 25.0644V23.7453C142.234 23.49 142.361 23.4048 142.574 23.4048H148.659C148.915 23.4048 149 23.5325 149 23.7453V25.0644C149 25.2772 148.872 25.4048 148.659 25.4048H147C146.787 25.4048 146.659 25.5325 146.659 25.7453V31.3197C146.659 31.5325 146.532 31.6602 146.319 31.6602H145C144.787 31.6602 144.659 31.5325 144.659 31.3197L144.574 25.7453ZM151.34 23.3623C151.553 23.3623 151.681 23.4474 151.766 23.6176L152.659 25.8304C152.702 25.958 152.787 25.958 152.83 25.8304L153.723 23.6176C153.808 23.4048 153.936 23.3623 154.149 23.3623H155.851C156.106 23.3623 156.234 23.5325 156.106 23.7878L153.979 28.5538V31.3197C153.979 31.5325 153.851 31.6602 153.638 31.6602H151.979C151.766 31.6602 151.638 31.5325 151.638 31.3197V28.6814V28.5538L149.51 23.7878C149.383 23.5325 149.51 23.3623 149.766 23.3623H151.34ZM166.149 27.49C166.149 25.3197 165.255 24.341 163.638 24.341C162.064 24.341 161.127 25.3197 161.127 27.49C161.127 29.7027 162.021 30.6389 163.638 30.6389C165.213 30.6814 166.149 29.7027 166.149 27.49ZM167.255 27.49C167.255 30.341 165.851 31.6602 163.638 31.6602C161.425 31.6602 160.021 30.341 160.021 27.49C160.021 24.6389 161.425 23.3197 163.638 23.3197C165.893 23.3623 167.255 24.6814 167.255 27.49ZM175.596 26.4261V31.0644C175.596 31.3623 175.34 31.6176 175.042 31.6176C174.744 31.6176 174.489 31.3623 174.489 31.0644V26.6389C174.489 25.2772 174.106 24.341 172.404 24.341C170.702 24.341 170.106 25.3623 170.106 26.7666V31.0219C170.106 31.3197 169.851 31.5751 169.553 31.5751C169.255 31.5751 169 31.3197 169 31.0219V24.0006C169 23.7027 169.255 23.4474 169.553 23.4474C169.851 23.4474 170.106 23.7027 170.106 24.0006V24.5538C170.447 23.9155 171.298 23.3197 172.404 23.3197C175.085 23.3623 175.596 24.9368 175.596 26.4261ZM182.915 21.7453V29.5751C182.915 30.2559 183.127 30.5538 183.596 30.5538C183.851 30.5538 184.106 30.7665 184.106 31.0644C184.106 31.3623 183.851 31.5751 183.596 31.5751C182.447 31.5751 181.808 30.8942 181.808 29.5325V21.7453C181.808 21.4474 182.064 21.1921 182.361 21.1921C182.659 21.1921 182.915 21.4474 182.915 21.7453ZM186.659 31.0219C186.659 31.3197 186.404 31.5751 186.106 31.5751C185.808 31.5751 185.553 31.3197 185.553 31.0219V24.0006C185.553 23.7027 185.808 23.4474 186.106 23.4474C186.404 23.4474 186.659 23.7027 186.659 24.0006V31.0219ZM185.468 21.1921C185.468 20.6814 185.723 20.5112 186.106 20.5112C186.532 20.5112 186.744 20.724 186.744 21.1921C186.744 21.6176 186.489 21.8304 186.106 21.8304C185.681 21.8304 185.468 21.5751 185.468 21.1921ZM189.34 21.7453C189.34 21.4474 189.596 21.1921 189.893 21.1921C190.191 21.1921 190.447 21.4474 190.447 21.7453V23.6176H191.553C191.851 23.6176 192.064 23.8304 192.064 24.1283C192.064 24.4261 191.851 24.6389 191.553 24.6389H190.447V29.4048C190.447 30.1708 190.872 30.5538 191.468 30.5538C191.766 30.5538 192.021 30.7665 192.021 31.0644C192.021 31.3623 191.766 31.5751 191.468 31.5751C190.106 31.5751 189.34 30.6814 189.34 29.4048V24.6389H188.659C188.361 24.6389 188.149 24.4261 188.149 24.1283C188.149 23.8304 188.361 23.6176 188.659 23.6176H189.34V21.7453ZM194.191 21.7453C194.191 21.4474 194.447 21.1921 194.744 21.1921C195.042 21.1921 195.298 21.4474 195.298 21.7453V23.6176H196.404C196.702 23.6176 196.915 23.8304 196.915 24.1283C196.915 24.4261 196.702 24.6389 196.404 24.6389H195.298V29.4048C195.298 30.1708 195.723 30.5538 196.319 30.5538C196.617 30.5538 196.872 30.7665 196.872 31.0644C196.872 31.3623 196.617 31.5751 196.319 31.5751C194.957 31.5751 194.191 30.6814 194.191 29.4048V24.6389H193.51C193.213 24.6389 193 24.4261 193 24.1283C193 23.8304 193.213 23.6176 193.51 23.6176H194.191V21.7453ZM199.681 21.7453V29.5751C199.681 30.2559 199.893 30.5538 200.361 30.5538C200.617 30.5538 200.872 30.7665 200.872 31.0644C200.872 31.3623 200.617 31.5751 200.361 31.5751C199.213 31.5751 198.574 30.8942 198.574 29.5325V21.7453C198.574 21.4474 198.83 21.1921 199.127 21.1921C199.425 21.1921 199.681 21.4474 199.681 21.7453ZM205.425 24.341C203.936 24.341 203.085 25.3197 203 26.8517H207.638C207.638 25.6176 207.17 24.341 205.425 24.341ZM205.425 23.3623C208.191 23.3623 208.744 25.5751 208.744 26.724C208.744 27.2346 208.744 27.8304 208.064 27.8304H203C203 29.5325 203.979 30.6389 205.596 30.6389C206.617 30.6389 207.17 30.2559 207.681 29.8729C207.808 29.7878 207.851 29.7453 207.979 29.7453C208.234 29.7453 208.489 29.958 208.489 30.2559C208.489 30.4687 208.404 30.5538 208.319 30.6389C208.064 30.8942 207.17 31.6176 205.638 31.6176C203.34 31.6176 201.893 30.341 201.893 27.4474C201.851 24.8517 203.17 23.3623 205.425 23.3623ZM214.957 21.7453C214.957 21.4474 215.213 21.1921 215.51 21.1921C215.808 21.1921 216.064 21.4474 216.064 21.7453V23.6176H217.17C217.468 23.6176 217.681 23.8304 217.681 24.1283C217.681 24.4261 217.468 24.6389 217.17 24.6389H216.064V29.4048C216.064 30.1708 216.489 30.5538 217.085 30.5538C217.383 30.5538 217.638 30.7665 217.638 31.0644C217.638 31.3623 217.383 31.5751 217.085 31.5751C215.723 31.5751 214.957 30.6814 214.957 29.4048V24.6389H214.276C213.979 24.6389 213.766 24.4261 213.766 24.1283C213.766 23.8304 213.979 23.6176 214.276 23.6176H214.957V21.7453ZM222.404 24.341C220.915 24.341 220.064 25.3197 219.979 26.8517H224.617C224.617 25.6176 224.191 24.341 222.404 24.341ZM222.404 23.3623C225.17 23.3623 225.723 25.5751 225.723 26.724C225.723 27.2346 225.723 27.8304 225.042 27.8304H219.979C219.979 29.5325 220.957 30.6389 222.574 30.6389C223.553 30.6389 224.149 30.2559 224.659 29.8729C224.744 29.7878 224.83 29.7453 224.957 29.7453C225.255 29.7453 225.468 29.958 225.468 30.2559C225.468 30.4687 225.383 30.5538 225.255 30.6389C225 30.8942 224.106 31.6176 222.574 31.6176C220.276 31.6176 218.83 30.341 218.83 27.4474C218.83 24.8517 220.149 23.3623 222.404 23.3623ZM230.489 24.341C229 24.341 228.149 25.3197 228.064 26.8517H232.702C232.702 25.6176 232.276 24.341 230.489 24.341ZM230.489 23.3623C233.255 23.3623 233.808 25.5751 233.808 26.724C233.808 27.2346 233.808 27.8304 233.127 27.8304H228.064C228.064 29.5325 229.042 30.6389 230.659 30.6389C231.638 30.6389 232.234 30.2559 232.744 29.8729C232.83 29.7878 232.915 29.7453 233.042 29.7453C233.34 29.7453 233.553 29.958 233.553 30.2559C233.553 30.4687 233.468 30.5538 233.34 30.6389C233.085 30.8942 232.191 31.6176 230.659 31.6176C228.361 31.6176 226.915 30.341 226.915 27.4474C226.915 24.8517 228.234 23.3623 230.489 23.3623ZM235.936 21.7453C235.936 21.4474 236.191 21.1921 236.489 21.1921C236.787 21.1921 237.042 21.4474 237.042 21.7453V23.6176H238.191C238.489 23.6176 238.702 23.8304 238.702 24.1283C238.702 24.4261 238.489 24.6389 238.191 24.6389H237.042V29.4048C237.042 30.1708 237.468 30.5538 238.064 30.5538C238.362 30.5538 238.617 30.7665 238.617 31.0644C238.617 31.3623 238.362 31.5751 238.064 31.5751C236.702 31.5751 235.936 30.6814 235.936 29.4048V24.6389H235.255C234.957 24.6389 234.744 24.4261 234.744 24.1283C234.744 23.8304 234.957 23.6176 235.255 23.6176H235.936V21.7453ZM246.915 26.4261V31.0644C246.915 31.3623 246.659 31.6176 246.362 31.6176C246.064 31.6176 245.808 31.3623 245.808 31.0644V26.6389C245.808 25.2772 245.425 24.341 243.723 24.341C242.021 24.341 241.425 25.3623 241.425 26.7666V31.0219C241.425 31.3197 241.17 31.5751 240.872 31.5751C240.574 31.5751 240.319 31.3197 240.319 31.0219V21.7453C240.319 21.4474 240.574 21.1921 240.872 21.1921C241.17 21.1921 241.425 21.4474 241.425 21.7453V24.5538C241.766 23.9155 242.617 23.3197 243.723 23.3197C246.404 23.3623 246.915 24.9368 246.915 26.4261Z" fill="#87D3E9"/>
</svg>
