<svg width="176" height="48" viewBox="0 0 176 48" fill="none" xmlns="http://www.w3.org/2000/svg">
<path d="M28.1593 32.008L25.3426 16.056C25.1195 14.8289 24.0598 13.9365 22.8327 13.9365C22.6933 13.9365 22.5259 13.9365 22.3865 13.9644L22.0797 14.0202L22.2192 15.4983L22.6654 15.4146C22.7211 15.4146 22.7769 15.3867 22.8606 15.3867C23.3905 15.3867 23.8367 15.7771 23.9203 16.2791L26.737 32.2311C26.8486 32.8168 26.4582 33.3745 25.8725 33.4861L9.92051 36.3028C9.33486 36.4143 8.77709 35.996 8.66554 35.4383L5.84884 19.4863C5.73729 18.9006 6.12772 18.3429 6.71337 18.2313L19.3188 16.0003L19.1794 14.5222L6.46238 16.7532C5.06798 17.0042 4.14767 18.315 4.39866 19.7094L7.18747 35.6892C7.41058 36.9163 8.47033 37.8087 9.6974 37.8087C9.83684 37.8087 10.0042 37.8087 10.1436 37.7809L26.0956 34.9642C27.4621 34.7132 28.4103 33.3745 28.1593 32.008Z" fill="#EA613B"/>
<path d="M45.9791 26.3191L45.1146 16.2793C45.0309 15.2754 44.1106 14.4945 43.1066 14.5782L33.0669 15.4427C32.035 15.5264 31.2821 16.4467 31.3657 17.4785L31.7283 21.7454L33.2063 21.606L32.8438 17.3391C32.8159 17.116 32.9832 16.9208 33.2063 16.9208L43.2461 16.0562H43.2739C43.4692 16.0562 43.6365 16.2236 43.6644 16.4188L44.5289 26.4585C44.5568 26.6816 44.3895 26.8768 44.1664 26.8768L34.1266 27.7414C33.9035 27.7692 33.7083 27.6019 33.7083 27.3788L33.4573 24.5621L31.9793 24.7015L32.2303 27.5182C32.3139 28.4664 33.1227 29.2194 34.0988 29.2194C34.1545 29.2194 34.2103 29.2194 34.2661 29.2194L44.3058 28.3549C45.3098 28.2712 46.0628 27.3509 45.9791 26.3191Z" fill="#F7B515"/>
<path d="M23.0562 23.2792L24.367 23.1676L24.5901 24.5899L23.1678 24.7293H22.9726C21.7455 24.7293 20.7136 23.7811 20.6021 22.5541L19.3192 7.88492C19.2077 6.57418 20.1838 5.40288 21.4945 5.29132L36.1636 4.00847C37.4744 3.89692 38.6457 4.90089 38.7572 6.18375L39.4544 14.1597L37.9764 14.2992L37.2792 6.32319C37.2234 5.84909 36.833 5.48654 36.3589 5.48654H36.2752L21.6061 6.7694C21.1041 6.82518 20.7136 7.27139 20.7694 7.77337L22.0523 22.4425C22.108 22.9445 22.5543 23.3349 23.0562 23.2792Z" fill="#80CDF3"/>
<path d="M39.7054 17.088L40.04 20.8529C40.1516 22.1636 39.1755 23.3349 37.8647 23.4744L27.5461 24.3668L27.2952 22.9166L37.7253 21.9963C37.9484 21.9684 38.1715 21.8569 38.3388 21.6617C38.5062 21.4664 38.5898 21.2433 38.5619 20.9923L38.2273 17.2274L39.7054 17.088Z" fill="#80CDF3"/>
<path fill-rule="evenodd" clip-rule="evenodd" d="M68.8491 32.064L60.0085 4.87305C59.897 4.51051 59.5344 4.25952 59.144 4.25952C58.7536 4.25952 58.391 4.51051 58.2795 4.87305L49.4389 32.064C49.2995 32.5381 49.5505 33.04 49.9967 33.1795C50.4708 33.3189 50.9728 33.0679 51.1122 32.6217V32.566L53.3712 25.7055H64.9168L67.1758 32.566V32.6217C67.3152 33.0958 67.8172 33.3468 68.2913 33.1795C68.7375 33.04 69.0164 32.5381 68.8491 32.064ZM54.0405 23.6696L59.144 8.05231L64.2475 23.6696H54.0405Z" fill="#231815"/>
<path d="M129.784 15.5263C130.259 15.5263 130.649 15.9167 130.649 16.3908C130.649 16.8649 130.259 17.2554 129.784 17.2554H127.498V30.1397C127.498 31.0042 128.362 31.4225 128.808 31.4225C129.31 31.4225 129.701 31.813 129.701 32.315C129.701 32.8169 129.31 33.2074 128.808 33.2074C127.051 33.2074 125.713 31.8966 125.713 30.1397V17.2554H123.51C123.036 17.2554 122.645 16.8649 122.645 16.3908C122.645 15.9167 123.036 15.5263 123.51 15.5263H125.713V8.94471C125.741 8.47061 126.131 8.08018 126.605 8.08018C127.079 8.08018 127.47 8.47061 127.498 8.94471V15.5263H129.784Z" fill="#231815"/>
<path d="M154.884 29.4425C154.493 29.1078 153.936 29.1915 153.657 29.554C153.35 29.8887 153.406 30.3628 153.768 30.6974C155.191 31.8687 157.45 33.2074 160.294 33.2352C162.023 33.2352 163.473 32.7054 164.7 31.8129C165.9 30.9205 166.736 29.7213 166.736 28.2433C166.736 26.7373 165.9 25.3708 164.756 24.6178C163.501 23.9206 162.107 23.4186 160.406 23.1676C158.788 22.9166 157.561 22.4704 156.752 21.9406C156.083 21.4107 155.748 20.9087 155.748 20.1836C155.748 19.4585 156.139 18.7334 156.864 18.1478C157.617 17.5342 158.76 17.1438 160.21 17.1438C161.84 17.1438 163.073 17.9612 164.307 18.779C164.382 18.8289 164.458 18.8789 164.533 18.9286C164.951 19.1796 165.481 19.0681 165.732 18.6776C165.983 18.2872 165.872 17.7295 165.481 17.4506L165.383 17.3884C164.037 16.5361 162.443 15.5263 160.21 15.5263C158.426 15.5263 156.948 16.0004 155.888 16.7255C154.772 17.5342 153.964 18.7613 153.964 20.1836C153.964 21.5501 154.772 22.7214 155.888 23.3629C156.892 24.0879 158.342 24.4784 159.932 24.7573C161.661 25.0361 162.971 25.4823 163.724 26.068C164.617 26.821 164.951 27.4066 164.979 28.2433C164.979 29.052 164.505 29.8329 163.641 30.4185C162.86 31.06 161.661 31.5062 160.294 31.5062C158.063 31.5062 156.111 30.3349 154.884 29.4425Z" fill="#231815"/>
<path d="M113.61 15.5542C111.406 15.5542 109.426 16.5582 108.116 18.1199V16.4187C108.116 15.9446 107.753 15.5542 107.279 15.5542C106.777 15.5542 106.414 15.9446 106.414 16.4187V32.3707C106.414 32.8448 106.805 33.2074 107.251 33.2074C107.725 33.2074 108.088 32.8169 108.088 32.3707V22.7493C108.171 19.7374 110.57 17.2833 113.582 17.2833C116.621 17.2833 119.048 19.7374 119.048 22.7493V32.3707C119.048 32.8448 119.438 33.2353 119.912 33.2353C120.386 33.2353 120.777 32.8448 120.777 32.3707V22.7493C120.805 18.8171 117.57 15.5542 113.61 15.5542Z" fill="#231815"/>
<path d="M81.4267 16.2235C81.5661 15.7773 82.096 15.5821 82.5422 15.7494C82.9884 15.9167 83.1557 16.4187 82.9605 16.8371L76.351 32.5102C76.2116 32.9006 75.9606 33.2074 75.5423 33.2074C75.1518 33.2074 74.9009 32.9006 74.7335 32.5381L68.0961 16.8649C67.9288 16.4466 68.1519 15.9167 68.5424 15.7494C68.9607 15.5821 69.5184 15.7773 69.6579 16.2235L75.5423 30.1676L81.4267 16.2235Z" fill="#231815"/>
<path fill-rule="evenodd" clip-rule="evenodd" d="M149.167 30.1954C149.222 31.0321 150.059 31.4504 150.477 31.4504C150.952 31.4504 151.342 31.8408 151.342 32.2871C151.342 32.789 150.952 33.1795 150.45 33.1795C148.693 33.1795 147.354 31.8966 147.354 30.1118V29.7771C145.848 31.813 143.477 33.1795 140.8 33.1795C136.115 33.1795 132.406 29.1915 132.406 24.3389C132.406 19.5143 136.143 15.4984 140.8 15.4984C143.505 15.4984 145.932 16.8649 147.438 18.9565V16.3629C147.438 15.861 147.828 15.4984 148.302 15.4984C148.776 15.4984 149.167 15.861 149.167 16.3629V30.1954ZM134.135 24.3668C134.135 28.3269 137.147 31.4783 140.772 31.4783C144.426 31.4783 147.438 28.3548 147.41 24.3668C147.41 20.3788 144.426 17.1996 140.772 17.1996C137.175 17.1996 134.135 20.3788 134.135 24.3668Z" fill="#231815"/>
<path fill-rule="evenodd" clip-rule="evenodd" d="M102.873 31.4504C102.454 31.4504 101.618 31.0321 101.562 30.1954V16.3629C101.562 15.861 101.171 15.4984 100.697 15.4984C100.223 15.4984 99.8328 15.861 99.8328 16.3629V18.9565C98.3269 16.8649 95.9006 15.4984 93.1955 15.4984C88.5381 15.4984 84.8011 19.5143 84.8011 24.3389C84.8011 29.1915 88.5103 33.1795 93.1955 33.1795C95.8727 33.1795 98.2432 31.813 99.7492 29.7771V30.1118C99.7492 31.8966 101.088 33.1795 102.845 33.1795C103.347 33.1795 103.737 32.789 103.737 32.2871C103.737 31.8408 103.375 31.4504 102.873 31.4504ZM93.1955 31.4783C89.57 31.4783 86.5581 28.3269 86.5581 24.3668C86.5581 20.3788 89.5979 17.1996 93.1955 17.1996C96.8488 17.1996 99.8328 20.3788 99.8328 24.3668C99.8328 28.3548 96.8209 31.4783 93.1955 31.4783Z" fill="#231815"/>
<path d="M49.9129 39.6216H52.9527V42.1874C52.9527 42.2989 53.0364 42.3826 53.148 42.3826C53.2874 42.3826 53.3711 42.2989 53.3711 42.1874V36.6655C53.3711 36.5539 53.2595 36.4703 53.148 36.4703C53.0364 36.4703 52.9527 36.5539 52.9527 36.6655V39.2312H49.9129V36.6655C49.9129 36.5539 49.8014 36.4703 49.6898 36.4703C49.5783 36.4703 49.4946 36.5539 49.4946 36.6655V42.1874C49.4946 42.2989 49.5783 42.3826 49.6898 42.3826C49.8293 42.3826 49.9129 42.2989 49.9129 42.1874V39.6216Z" fill="#231815"/>
<path fill-rule="evenodd" clip-rule="evenodd" d="M54.9886 40.3188C54.9886 39.1754 55.8811 38.2272 56.9966 38.2272C58.0563 38.2272 58.9209 39.0639 59.0045 40.1515V40.1794C59.0045 40.2909 58.9209 40.3746 58.8093 40.3746H55.407C55.4627 41.2949 56.1599 41.9642 57.0245 41.9642C57.5822 41.9642 58.0842 41.6853 58.3631 41.2113C58.4189 41.0997 58.5583 41.0997 58.642 41.1555C58.7256 41.2112 58.7814 41.3507 58.6978 41.4344C58.3352 41.9921 57.7217 42.3825 57.0245 42.3825C55.8811 42.3825 54.9886 41.4622 54.9886 40.3188ZM55.407 39.9842H58.5583C58.4189 39.2033 57.7496 38.6455 56.9966 38.6455C56.2157 38.6455 55.5743 39.2033 55.407 39.9842Z" fill="#231815"/>
<path d="M65.893 36.4703C65.7814 36.4703 65.6978 36.5539 65.6978 36.6655V42.1874C65.6978 42.2989 65.7814 42.3826 65.893 42.3826C66.0324 42.3826 66.1161 42.2989 66.1161 42.1874V36.6655C66.1161 36.5539 66.0045 36.4703 65.893 36.4703Z" fill="#231815"/>
<path d="M69.1279 38.4224C69.1279 38.534 69.0164 38.6177 68.9327 38.6177H68.4028V41.6575C68.4028 41.8527 68.598 41.9642 68.7096 41.9642C68.8211 41.9642 68.9327 42.0758 68.9327 42.1873C68.9327 42.2989 68.8211 42.3826 68.7096 42.3826C68.2913 42.3826 67.9845 42.0758 67.9845 41.6575V38.6177H67.4546C67.2594 38.6177 67.2594 38.5061 67.2594 38.4224C67.2594 38.3109 67.2594 38.2272 67.4546 38.2272H67.9845V36.6934C67.9845 36.5818 68.096 36.4982 68.1797 36.4982C68.2913 36.4982 68.4028 36.6097 68.4028 36.6934V38.2272H68.9327C69.0164 38.2272 69.1279 38.3388 69.1279 38.4224Z" fill="#231815"/>
<path d="M72.3629 38.6455C73.088 38.6455 73.6737 39.1475 73.6737 39.8726H73.6458V42.2152C73.6458 42.3268 73.7294 42.4104 73.841 42.4104C73.9804 42.4104 74.0641 42.3268 74.0641 42.2152V39.9005C74.0641 38.9244 73.2832 38.2551 72.335 38.2551C71.8052 38.2551 71.3311 38.5061 71.0243 38.8687V36.6934C71.0243 36.5818 70.9127 36.4982 70.8012 36.4982C70.6896 36.4982 70.606 36.5818 70.606 36.6934V42.271C70.606 42.2829 70.606 42.2897 70.6081 42.2957C70.611 42.3039 70.6178 42.3107 70.6339 42.3268C70.6896 42.3547 70.7454 42.3826 70.8012 42.3826H70.8849C70.9685 42.3547 70.9964 42.3268 71.0243 42.271C71.0522 42.271 71.0522 42.271 71.0522 42.2431V39.8726C71.0522 39.1475 71.6378 38.6455 72.3629 38.6455Z" fill="#231815"/>
<path d="M75.4306 40.2909C75.4306 39.1475 76.3788 38.2272 77.5779 38.2272C78.0799 38.2272 78.5261 38.3946 78.8887 38.6734C78.9723 38.7292 79.0002 38.8686 78.9166 38.9523C78.8608 39.036 78.7214 39.0639 78.6377 38.9802C78.3309 38.7571 77.9684 38.6177 77.5779 38.6177C76.6019 38.6177 75.8489 39.3706 75.8489 40.2909C75.8489 41.2112 76.6019 41.9642 77.5779 41.9642C77.9684 41.9642 78.3588 41.8248 78.6377 41.6017C78.7214 41.5459 78.8608 41.5459 78.9166 41.6296C79.0002 41.7132 78.9723 41.8527 78.8887 41.9363C78.554 42.2152 78.0799 42.3825 77.5779 42.3825C76.3788 42.3825 75.4306 41.4622 75.4306 40.2909Z" fill="#231815"/>
<path d="M85.7214 38.2551C85.582 38.2551 85.4983 38.3388 85.4983 38.4503V42.1594C85.4983 42.271 85.6099 42.3547 85.7214 42.3547C85.833 42.3547 85.9167 42.271 85.9167 42.1594V40.3467C85.9167 40.3467 85.9167 40.3188 85.9445 40.2909C86.0003 40.1236 86.1677 39.6774 86.4465 39.3148C86.7254 38.9523 87.1159 38.6455 87.6457 38.6455C87.7573 38.6455 87.8409 38.5619 87.8409 38.4503C87.8409 38.3388 87.7573 38.2551 87.6457 38.2551C86.837 38.2551 86.2792 38.7571 85.9724 39.2591C85.9618 39.2803 85.9552 39.2975 85.9496 39.3122C85.9405 39.336 85.9339 39.3534 85.9167 39.3706V38.4503C85.9167 38.3388 85.833 38.2551 85.7214 38.2551Z" fill="#231815"/>
<path fill-rule="evenodd" clip-rule="evenodd" d="M88.538 40.3188C88.538 39.1754 89.4304 38.2272 90.5459 38.2272C91.6057 38.2272 92.4702 39.0639 92.5539 40.1515V40.1794C92.5539 40.2909 92.4702 40.3746 92.3586 40.3746H88.9563C89.0121 41.2949 89.7093 41.9642 90.5738 41.9642C91.1316 41.9642 91.6335 41.6853 91.9124 41.2113C91.9682 41.0997 92.1077 41.0997 92.1913 41.1555C92.275 41.2112 92.3308 41.3507 92.2471 41.4344C91.8845 41.9921 91.271 42.3825 90.5738 42.3825C89.4304 42.3825 88.538 41.4622 88.538 40.3188ZM88.9842 39.9842H92.1355C91.9961 39.2033 91.3268 38.6455 90.5738 38.6455C89.7651 38.6455 89.1236 39.2033 88.9842 39.9842Z" fill="#231815"/>
<path d="M98.6614 41.6575L96.5419 36.6097C96.4861 36.4981 96.3746 36.4424 96.263 36.4424C96.1515 36.4981 96.0957 36.6097 96.1515 36.7213L98.4383 42.1594C98.4383 42.2152 98.4662 42.2431 98.4941 42.271L98.522 42.2989C98.5369 42.3064 98.5499 42.3138 98.5619 42.3208C98.5947 42.3397 98.6206 42.3547 98.6614 42.3547C98.6893 42.3547 98.7451 42.3547 98.7729 42.3268H98.8008C98.8287 42.3268 98.8566 42.2989 98.8566 42.271C98.8706 42.271 98.8775 42.271 98.881 42.2675C98.8845 42.264 98.8845 42.2571 98.8845 42.2432L100.39 38.6455L101.896 42.2431V42.271C101.896 42.2989 101.924 42.3268 101.924 42.3268L101.952 42.3547C102.008 42.3825 102.036 42.3825 102.064 42.3825H102.12C102.175 42.3825 102.259 42.3268 102.287 42.2431L104.602 36.777C104.657 36.6655 104.602 36.5539 104.49 36.4982C104.378 36.4703 104.267 36.4981 104.211 36.6097L102.092 41.6575L100.586 38.0878C100.53 38.0041 100.446 37.9483 100.363 37.9483C100.279 37.9483 100.195 38.0041 100.167 38.0878L98.6614 41.6575Z" fill="#231815"/>
<path fill-rule="evenodd" clip-rule="evenodd" d="M107 38.2272C108.088 38.2272 108.98 39.1754 108.98 40.2909C108.98 41.4065 108.116 42.3547 107 42.3547C105.912 42.3547 105.02 41.4065 105.02 40.2909C105.048 39.1754 105.912 38.2272 107 38.2272ZM107 41.9642C107.837 41.9642 108.562 41.2112 108.562 40.2909C108.562 39.3706 107.837 38.6177 107 38.6177C106.163 38.6177 105.438 39.3706 105.438 40.2909C105.438 41.2391 106.163 41.9642 107 41.9642Z" fill="#231815"/>
<path d="M110.653 38.2551C110.514 38.2551 110.43 38.3388 110.43 38.4503V42.1594C110.43 42.271 110.542 42.3547 110.653 42.3547C110.765 42.3547 110.848 42.271 110.848 42.1594V40.3467C110.848 40.3467 110.848 40.3188 110.876 40.2909C110.932 40.1236 111.099 39.6774 111.378 39.3148C111.657 38.9523 112.048 38.6455 112.578 38.6455C112.689 38.6455 112.773 38.5619 112.773 38.4503C112.773 38.3388 112.689 38.2551 112.578 38.2551C111.769 38.2551 111.211 38.7571 110.904 39.2591C110.898 39.2723 110.893 39.2839 110.888 39.2943C110.886 39.3006 110.884 39.3065 110.881 39.312L110.881 39.3123C110.872 39.3362 110.866 39.3534 110.848 39.3706V38.4503C110.848 38.3388 110.765 38.2551 110.653 38.2551Z" fill="#231815"/>
<path d="M114 36.6655C114 36.5539 114.083 36.4703 114.195 36.4703C114.307 36.4703 114.418 36.5539 114.418 36.6655V40.6535L116.872 38.1993C116.956 38.1157 117.067 38.1157 117.151 38.1993C117.235 38.283 117.235 38.3946 117.151 38.4782L115.562 40.0679L117.179 42.02C117.263 42.1037 117.235 42.2431 117.151 42.3268C117.095 42.3547 117.067 42.3547 117.012 42.3547C116.956 42.3547 116.872 42.3268 116.844 42.271L115.255 40.3467L114.418 41.1834V42.1316C114.418 42.2431 114.334 42.3268 114.195 42.3268C114.083 42.3268 114 42.2431 114 42.1316V36.6655Z" fill="#231815"/>
<path d="M118.713 36.8886C118.601 36.8886 118.518 36.9723 118.518 37.0838V37.279C118.518 37.3906 118.601 37.5021 118.713 37.5021C118.852 37.5021 118.936 37.3906 118.936 37.279V37.0838C118.936 36.9723 118.824 36.8886 118.713 36.8886Z" fill="#231815"/>
<path d="M118.713 38.2272C118.601 38.2272 118.518 38.3109 118.518 38.4225V42.1595C118.518 42.271 118.601 42.3547 118.713 42.3547C118.852 42.3547 118.936 42.271 118.936 42.1595V38.4225C118.936 38.3109 118.824 38.2272 118.713 38.2272Z" fill="#231815"/>
<path d="M123.677 39.9284C123.677 39.2312 123.119 38.6455 122.394 38.6455C121.697 38.6455 121.111 39.2312 121.111 39.9284V42.2152C121.111 42.2292 121.104 42.2431 121.097 42.2571C121.09 42.271 121.083 42.2849 121.083 42.2989C121.056 42.3547 121 42.3825 120.944 42.3825H120.888C120.832 42.3547 120.777 42.3268 120.749 42.271V38.4503C120.749 38.3388 120.832 38.2551 120.944 38.2551C121.056 38.2551 121.139 38.3388 121.139 38.4503V38.8408C121.446 38.4782 121.92 38.2272 122.422 38.2272C123.342 38.2272 124.095 38.9802 124.095 39.9284V42.1873C124.095 42.2989 124.012 42.3825 123.9 42.3825C123.789 42.3825 123.705 42.2989 123.705 42.1873V39.9284H123.677Z" fill="#231815"/>
<path fill-rule="evenodd" clip-rule="evenodd" d="M127.442 44.0001C128.53 44.0001 129.394 43.1355 129.394 42.0479H129.422V38.4224C129.422 38.3109 129.338 38.2272 129.227 38.2272C129.087 38.2272 129.004 38.3109 129.004 38.4224V39.036C128.641 38.5619 128.083 38.2272 127.442 38.2272C126.354 38.2272 125.49 39.1754 125.49 40.2909C125.49 41.4344 126.354 42.3547 127.442 42.3547C128.083 42.3547 128.669 42.0479 129.004 41.5459V42.0479C129.004 42.8845 128.306 43.5817 127.442 43.5817C127.191 43.5817 126.996 43.5538 126.773 43.4423C126.661 43.3865 126.549 43.4144 126.494 43.526C126.438 43.6375 126.494 43.7491 126.577 43.8048C126.856 43.9164 127.135 44.0001 127.442 44.0001ZM127.414 38.6455C128.279 38.6455 128.976 39.3706 128.976 40.2909C128.976 41.2112 128.279 41.9642 127.414 41.9642C126.577 41.9642 125.88 41.2112 125.88 40.2909C125.88 39.3706 126.577 38.6455 127.414 38.6455Z" fill="#231815"/>
<path d="M133.577 41.267C133.633 41.1834 133.773 41.1834 133.828 41.2392C134.275 41.6017 135 42.02 135.781 41.9921C136.31 41.9921 136.757 41.8527 137.091 41.6017C137.426 41.3786 137.593 41.0439 137.593 40.7093C137.593 40.3746 137.426 40.1236 137.119 39.9005C136.785 39.6774 136.31 39.538 135.753 39.4264H135.725C135.167 39.3149 134.693 39.1754 134.33 38.9244C133.968 38.6734 133.717 38.3388 133.717 37.8926C133.717 37.4464 133.968 37.0559 134.33 36.7771C134.693 36.4982 135.195 36.3308 135.753 36.3308C136.517 36.3308 137.094 36.7046 137.562 37.008L137.593 37.028C137.677 37.0838 137.705 37.1954 137.649 37.279C137.593 37.3627 137.482 37.3906 137.398 37.3348L137.366 37.314C136.901 37.0131 136.407 36.6934 135.781 36.6934C135.306 36.6934 134.86 36.8328 134.581 37.0559C134.275 37.279 134.107 37.5579 134.107 37.8647C134.107 38.1715 134.247 38.3946 134.554 38.5898C134.86 38.785 135.279 38.9244 135.836 39.036H135.864C136.45 39.1475 136.98 39.3149 137.37 39.5659C137.761 39.8169 138.012 40.2073 138.012 40.6814C138.012 41.1555 137.733 41.5738 137.342 41.8806C136.952 42.1595 136.422 42.3547 135.808 42.3547C134.888 42.3547 134.107 41.8806 133.633 41.4902C133.522 41.4623 133.522 41.3507 133.577 41.267Z" fill="#231815"/>
<path d="M144.035 38.6455C144.733 38.6455 145.29 39.2312 145.318 39.9284H145.29V42.2152C145.29 42.3268 145.374 42.4104 145.486 42.4104C145.597 42.4104 145.681 42.3268 145.681 42.2152V39.9563C145.681 39.0081 144.928 38.2551 144.007 38.2551C143.366 38.2551 142.808 38.6176 142.502 39.1475C142.223 38.6176 141.665 38.2551 141.023 38.2551C140.494 38.2551 140.047 38.4782 139.741 38.8408V38.4503C139.741 38.3388 139.657 38.2551 139.545 38.2551C139.434 38.2551 139.35 38.3388 139.35 38.4503V42.2152C139.378 42.2989 139.434 42.3825 139.518 42.3825H139.601C139.629 42.3825 139.657 42.3547 139.657 42.3547C139.713 42.3268 139.741 42.2431 139.741 42.1873V39.9284C139.741 39.2312 140.298 38.6455 141.023 38.6455C141.749 38.6455 142.306 39.2312 142.306 39.9284V42.2989C142.334 42.2989 142.334 42.3268 142.334 42.3268L142.362 42.3547C142.362 42.3825 142.39 42.3825 142.39 42.3825C142.391 42.3825 142.392 42.3826 142.393 42.3827C142.395 42.3828 142.396 42.383 142.397 42.3833C142.399 42.3837 142.401 42.3844 142.403 42.3852C142.407 42.3871 142.411 42.3898 142.414 42.3928L142.416 42.3947L142.418 42.3965C142.425 42.4035 142.432 42.4104 142.446 42.4104H142.529C142.585 42.4104 142.613 42.4104 142.641 42.3825C142.697 42.3546 142.725 42.3268 142.753 42.271V39.9284C142.753 39.2312 143.338 38.6455 144.035 38.6455Z" fill="#231815"/>
<path d="M152.625 38.4503C152.625 38.3388 152.708 38.2551 152.848 38.2551C152.959 38.2551 153.043 38.3388 153.043 38.4503V39.3706C153.06 39.3534 153.067 39.3361 153.076 39.3123C153.078 39.306 153.081 39.2992 153.084 39.2918C153.088 39.282 153.093 39.2712 153.099 39.2591C153.406 38.7571 153.963 38.2551 154.772 38.2551C154.884 38.2551 154.967 38.3388 154.967 38.4503C154.967 38.5619 154.884 38.6455 154.772 38.6455C154.242 38.6455 153.852 38.9523 153.573 39.3148C153.294 39.6774 153.127 40.1236 153.071 40.2909C153.043 40.3188 153.043 40.3467 153.043 40.3467V42.1594C153.043 42.271 152.959 42.3547 152.848 42.3547C152.736 42.3547 152.625 42.271 152.625 42.1594V38.4503Z" fill="#231815"/>
<path d="M157.673 38.6177C157.756 38.6177 157.868 38.534 157.868 38.4224C157.868 38.3388 157.756 38.2272 157.673 38.2272H157.143V36.6934C157.143 36.6097 157.031 36.4982 156.92 36.4982C156.836 36.4982 156.725 36.5818 156.725 36.6934V38.2272H156.195C155.999 38.2272 155.999 38.3109 155.999 38.4224C155.999 38.5061 155.999 38.6177 156.195 38.6177H156.725V41.6575C156.725 42.0758 157.031 42.3826 157.45 42.3826C157.561 42.3826 157.673 42.2989 157.673 42.1873C157.673 42.0758 157.561 41.9642 157.45 41.9642C157.338 41.9642 157.143 41.8527 157.143 41.6575V38.6177H157.673Z" fill="#231815"/>
<path fill-rule="evenodd" clip-rule="evenodd" d="M159.011 40.3188C159.011 39.1754 159.904 38.2272 161.019 38.2272C162.079 38.2272 162.944 39.0639 163.027 40.1515V40.1794C163.027 40.2909 162.944 40.3746 162.832 40.3746H159.43C159.485 41.2949 160.183 41.9642 161.047 41.9642C161.605 41.9642 162.107 41.6853 162.386 41.2113C162.442 41.0997 162.581 41.0997 162.665 41.1555C162.748 41.2112 162.804 41.3507 162.72 41.4344C162.358 41.9921 161.744 42.3825 161.047 42.3825C159.904 42.3825 159.011 41.4622 159.011 40.3188ZM159.43 39.9842H162.581C162.442 39.2033 161.772 38.6455 161.019 38.6455C160.238 38.6455 159.597 39.2033 159.43 39.9842Z" fill="#231815"/>
<path d="M164.617 38.2551C164.477 38.2551 164.394 38.3388 164.394 38.4503V42.1594C164.394 42.271 164.505 42.3547 164.617 42.3547C164.728 42.3547 164.812 42.271 164.812 42.1594V40.3467C164.812 40.3467 164.812 40.3188 164.84 40.2909C164.896 40.1236 165.063 39.6774 165.342 39.3148C165.621 38.9523 166.011 38.6455 166.541 38.6455C166.653 38.6455 166.736 38.5619 166.736 38.4503C166.736 38.3388 166.653 38.2551 166.541 38.2551C165.732 38.2551 165.174 38.7571 164.868 39.2591C164.857 39.2804 164.851 39.2976 164.845 39.3123C164.836 39.3361 164.829 39.3534 164.812 39.3706V38.4503C164.812 38.3388 164.728 38.2551 164.617 38.2551Z" fill="#231815"/>
<path fill-rule="evenodd" clip-rule="evenodd" d="M151.258 41.9642C151.147 41.9642 150.952 41.8527 150.952 41.6853V38.4503C150.952 38.3388 150.868 38.2551 150.756 38.2551C150.645 38.2551 150.561 38.3388 150.561 38.4503V39.0639C150.199 38.5619 149.641 38.2551 148.999 38.2551C147.912 38.2551 147.047 39.2033 147.047 40.3188C147.047 41.4622 147.912 42.3825 148.999 42.3825C149.613 42.3825 150.171 42.0758 150.533 41.5738V41.6575C150.533 42.0758 150.84 42.3825 151.258 42.3825C151.37 42.3825 151.481 42.271 151.481 42.1873C151.454 42.0758 151.342 41.9642 151.258 41.9642ZM148.971 41.9642C148.135 41.9642 147.41 41.2391 147.41 40.2909C147.41 39.3706 148.135 38.6176 148.971 38.6176C149.836 38.6176 150.533 39.3706 150.533 40.2909C150.533 41.2391 149.836 41.9642 148.971 41.9642Z" fill="#231815"/>
<path fill-rule="evenodd" clip-rule="evenodd" d="M83.797 41.6853C83.797 41.8527 83.9922 41.9642 84.1038 41.9642C84.2153 41.9642 84.3269 42.0758 84.3269 42.1873C84.3269 42.271 84.2153 42.3825 84.1038 42.3825C83.6854 42.3825 83.3787 42.0758 83.3787 41.6575V41.5738C83.0161 42.0758 82.4584 42.3825 81.8448 42.3825C80.7572 42.3825 79.8927 41.4622 79.8927 40.3188C79.8927 39.2033 80.7572 38.2551 81.8448 38.2551C82.4863 38.2551 83.044 38.5619 83.4066 39.0639V38.4503C83.4066 38.3388 83.4902 38.2551 83.6018 38.2551C83.7133 38.2551 83.797 38.3388 83.797 38.4503V41.6853ZM80.2831 40.2909C80.2831 41.2391 81.0082 41.9642 81.8448 41.9642C82.7094 41.9642 83.4066 41.2391 83.4066 40.2909C83.4066 39.3706 82.7094 38.6176 81.8448 38.6176C81.0082 38.6176 80.2831 39.3706 80.2831 40.2909Z" fill="#231815"/>
<path fill-rule="evenodd" clip-rule="evenodd" d="M64.2754 41.9642C64.1639 41.9642 63.9965 41.8527 63.9687 41.6853V38.4503C63.9687 38.3388 63.885 38.2551 63.7734 38.2551C63.6619 38.2551 63.5782 38.3388 63.5782 38.4503V39.0639C63.2157 38.5619 62.6579 38.2551 62.0165 38.2551C60.9289 38.2551 60.0643 39.2033 60.0643 40.3188C60.0643 41.4622 60.9289 42.3825 62.0165 42.3825C62.63 42.3825 63.1878 42.0758 63.5503 41.5738V41.6575C63.5503 42.0758 63.8571 42.3825 64.2754 42.3825C64.387 42.3825 64.4985 42.271 64.4985 42.1873C64.4985 42.0758 64.387 41.9642 64.2754 41.9642ZM62.0165 41.9642C61.1798 41.9642 60.4548 41.2391 60.4548 40.2909C60.4548 39.3706 61.1798 38.6176 62.0165 38.6176C62.881 38.6176 63.5782 39.3706 63.5782 40.2909C63.5503 41.2391 62.8531 41.9642 62.0165 41.9642Z" fill="#231815"/>
<path fill-rule="evenodd" clip-rule="evenodd" d="M170.222 30.1675C170.083 30.1118 169.888 30.0839 169.609 30.0839V30.1118H168.828V32.3149H169.218V31.4504H169.553C169.776 31.4504 169.916 31.4504 169.999 31.5062C170.139 31.5898 170.195 31.7572 170.195 32.0082V32.3149H170.557V32.287C170.529 32.2592 170.529 32.2313 170.529 32.1755V31.8408C170.529 31.7293 170.501 31.6177 170.418 31.5062C170.334 31.3946 170.195 31.311 170.027 31.2831C170.139 31.2552 170.25 31.2273 170.334 31.1715C170.473 31.06 170.557 30.9205 170.557 30.7253C170.557 30.4464 170.446 30.2512 170.222 30.1675ZM169.553 30.3628C169.776 30.3628 169.916 30.3907 170.027 30.4464C170.111 30.5022 170.167 30.6138 170.167 30.7811C170.167 30.9484 170.083 31.06 169.944 31.1157C169.86 31.1436 169.748 31.1715 169.581 31.1715H169.218V30.3628H169.553Z" fill="#231815"/>
<path fill-rule="evenodd" clip-rule="evenodd" d="M169.637 33.2074C170.195 33.2074 170.669 33.0121 171.059 32.6217C171.449 32.2313 171.645 31.7572 171.645 31.1994C171.645 30.6416 171.449 30.1676 171.059 29.7771C170.669 29.3867 170.195 29.1915 169.637 29.1915C169.079 29.1915 168.605 29.3867 168.214 29.7771C167.824 30.1676 167.629 30.6416 167.629 31.1994C167.629 31.7572 167.824 32.2313 168.214 32.6217C168.605 33.0121 169.079 33.2074 169.637 33.2074ZM167.908 31.1994C167.908 30.7253 168.075 30.307 168.41 29.9723C168.744 29.6377 169.163 29.4703 169.637 29.4703C170.111 29.4703 170.529 29.6377 170.864 29.9723C171.199 30.307 171.366 30.7253 171.366 31.1994C171.366 31.6735 171.199 32.0918 170.864 32.4265C170.529 32.7611 170.111 32.9285 169.637 32.9285C169.163 32.9285 168.744 32.7611 168.41 32.4265C168.075 32.0918 167.908 31.6735 167.908 31.1994Z" fill="#231815"/>
</svg>
