<svg width="192" height="48" viewBox="0 0 192 48" fill="none" xmlns="http://www.w3.org/2000/svg">
<path d="M36.6418 30.1611C41.3891 27.5544 44.9881 25.5682 45.2983 25.4138C46.2907 24.886 47.3154 23.4893 45.2983 22.4044C44.647 22.0633 41.1406 20.1388 36.6418 17.6571L30.4053 23.9554L36.6418 30.1611Z" fill="#FFD900"/>
<path d="M30.4057 23.9553L10.5479 43.9691C11.0139 44.0308 11.5402 43.9073 12.1606 43.5663C13.4632 42.8533 27.2713 35.3126 36.6423 30.1626L30.4057 23.9553Z" fill="#F43249"/>
<path d="M30.4054 23.9554L36.6419 17.688C36.6419 17.688 13.5569 5.08984 12.1602 4.34596C11.634 4.03421 11.0444 3.94161 10.5166 4.03421L30.4054 23.9554Z" fill="#00EE76"/>
<path d="M30.4054 23.9553L10.5166 4.03418C9.70949 4.22092 9.02734 4.93393 9.02734 6.39237C9.02734 8.7197 9.02734 39.6864 9.02734 41.6109C9.02734 42.9459 9.55516 43.9074 10.5475 44L30.4054 23.9553Z" fill="#00D3FF"/>
<path d="M95.1633 19.9829C91.5951 19.9829 88.6474 22.7439 88.6474 26.5297C88.6474 30.2846 91.5642 33.0764 95.1633 33.0764C98.7623 33.0764 101.679 30.3154 101.679 26.5297C101.679 22.7439 98.7623 19.9829 95.1633 19.9829ZM95.1633 30.4713C93.2079 30.4713 91.5025 28.8261 91.5025 26.5004C91.5025 24.1422 93.2094 22.5294 95.1633 22.5294C97.1171 22.5294 98.824 24.1422 98.824 26.5004C98.824 28.8261 97.1171 30.4713 95.1633 30.4713ZM80.9832 19.9829C77.3842 19.9829 74.4674 22.7439 74.4674 26.5297C74.4674 30.2846 77.3842 33.0764 80.9832 33.0764C84.5823 33.0764 87.4991 30.3154 87.4991 26.5297C87.4991 22.7439 84.5823 19.9829 80.9832 19.9829ZM80.9832 30.4713C79.0279 30.4713 77.3225 28.8261 77.3225 26.5004C77.3225 24.1422 79.0294 22.5294 80.9832 22.5294C82.9386 22.5294 84.644 24.1422 84.644 26.5004C84.644 28.8261 82.968 30.4713 80.9832 30.4713ZM64.1348 22V24.761H70.7125C70.5257 26.3121 69.9994 27.4603 69.2232 28.2366C68.2617 29.1981 66.7724 30.2537 64.1348 30.2537C60.0697 30.2537 56.9368 26.9649 56.9368 22.8998C56.9368 18.8347 60.0713 15.4841 64.1348 15.4841C66.3372 15.4841 67.9206 16.353 69.0997 17.4704L71.0535 15.515C69.4084 13.9331 67.206 12.7231 64.1348 12.7231C58.5804 12.7231 53.9258 17.2837 53.9258 22.8381C53.9258 28.3925 58.5804 32.953 64.1348 32.953C67.1443 32.953 69.379 31.9606 71.1785 30.0978C73.0089 28.2675 73.5676 25.6917 73.5676 23.6128C73.5676 22.9615 73.5059 22.372 73.4117 21.875L64.1348 22ZM133.08 24.1406C132.552 22.6822 130.877 19.9829 127.525 19.9829C124.173 19.9829 121.412 22.6204 121.412 26.5297C121.412 30.1904 124.173 33.0764 127.835 33.0764C130.814 33.0764 132.521 31.2461 133.234 30.1904L131.032 28.7011C130.286 29.7876 129.294 30.5006 127.835 30.5006C126.377 30.5006 125.354 29.8494 124.701 28.5144L133.357 24.8845L133.08 24.1406ZM124.267 26.3445C124.205 23.8304 126.223 22.5279 127.649 22.5279C128.797 22.5279 129.727 23.0865 130.069 23.9246L124.267 26.3445ZM117.223 32.6428H120.079V13.467H117.223V32.6428ZM112.57 21.4414H112.478C111.826 20.6651 110.617 19.9829 109.064 19.9829C105.806 19.9829 102.858 22.8689 102.858 26.5297C102.858 30.1904 105.837 33.0456 109.064 33.0456C110.615 33.0456 111.825 32.3634 112.478 31.5563H112.57V32.4869C112.57 35.001 111.235 36.3344 109.095 36.3344C107.357 36.3344 106.271 35.0627 105.837 34.0071L103.355 35.0627C104.068 36.8005 105.962 38.941 109.095 38.941C112.445 38.941 115.27 36.9548 115.27 32.1458V20.3857H112.57V21.4414ZM109.312 30.4713C107.357 30.4713 105.713 28.8261 105.713 26.5312C105.713 24.2363 107.359 22.5603 109.312 22.5603C111.237 22.5603 112.788 24.2363 112.788 26.5312C112.786 28.7953 111.235 30.4713 109.312 30.4713ZM146.391 13.467H139.565V32.6428H142.42V25.3814H146.391C149.556 25.3814 152.658 23.085 152.658 19.4242C152.658 15.7635 149.556 13.467 146.391 13.467ZM146.483 22.7146H142.449V16.1354H146.483C148.593 16.1354 149.834 17.9041 149.834 19.4242C149.804 20.9135 148.595 22.7146 146.483 22.7146ZM164.046 19.9521C161.998 19.9521 159.858 20.8518 158.989 22.8998L161.503 23.9554C162.062 22.8998 163.054 22.5587 164.109 22.5587C165.599 22.5587 167.088 23.4585 167.119 25.0404V25.2271C166.591 24.9169 165.506 24.4817 164.14 24.4817C161.41 24.4817 158.648 26.0019 158.648 28.7953C158.648 31.3711 160.882 33.0147 163.364 33.0147C165.289 33.0147 166.343 32.1458 166.994 31.1226H167.087V32.6119H169.848V25.258C169.817 21.8766 167.304 19.9521 164.046 19.9521ZM163.705 30.4404C162.775 30.4404 161.47 29.9744 161.47 28.8277C161.47 27.3384 163.083 26.7797 164.48 26.7797C165.721 26.7797 166.31 27.059 167.087 27.431C166.869 29.1996 165.349 30.4404 163.705 30.4404ZM179.808 20.3873L176.55 28.6718H176.458L173.076 20.3873H170.005L175.093 31.9915L172.207 38.4765H175.186L182.973 20.3873H179.808ZM154.242 32.6428H157.097V13.467H154.242V32.6428Z" fill="#808285"/>
</svg>
