<svg width="160" height="160" viewBox="0 0 160 160" fill="none" xmlns="http://www.w3.org/2000/svg">
<path d="M131.5 83.8744C131.5 83.618 131.429 83.4347 131.285 83.3148C131.125 83.1859 130.848 83.1171 130.462 83.1171H129.907V84.6414H130.576C131.195 84.6414 131.5 84.385 131.5 83.8744ZM132.365 87.0525H131.602L131.116 85.98C130.87 85.4426 130.606 85.1739 130.318 85.1739H129.907V87.0525H129.279V82.582H130.537C131.097 82.582 131.517 82.7032 131.805 82.9559C132.05 83.1732 132.172 83.4518 132.172 83.7987C132.172 84.1065 132.072 84.3655 131.871 84.5802C131.676 84.7977 131.395 84.9443 131.036 85.0201V85.0395C131.285 85.0981 131.534 85.3717 131.776 85.8652L132.365 87.0549V87.0525ZM133.757 84.8612C133.757 83.9818 133.457 83.2393 132.858 82.6505C132.257 82.0619 131.524 81.7663 130.66 81.7663C129.768 81.7663 129.025 82.0619 128.437 82.6555C127.848 83.2516 127.555 83.9891 127.555 84.8612C127.555 85.7529 127.86 86.4979 128.466 87.0916C129.064 87.6851 129.797 87.9782 130.66 87.9782C131.517 87.9782 132.25 87.6827 132.853 87.0816C133.457 86.4904 133.757 85.748 133.757 84.8612ZM134.179 84.8419C134.179 85.829 133.84 86.6569 133.159 87.3237C132.477 87.9956 131.641 88.3301 130.642 88.3301C129.636 88.3301 128.801 88.0005 128.136 87.353C127.472 86.696 127.142 85.8704 127.142 84.8689C127.142 83.8892 127.479 83.0661 128.153 82.3895C128.827 81.7153 129.668 81.3783 130.672 81.3783C131.656 81.3783 132.482 81.7007 133.151 82.343C133.837 83.0026 134.179 83.8331 134.179 84.8419Z" fill="black"/>
<path d="M38.637 97.3072H36.4703V84.9077C36.4703 83.9283 36.5348 82.7362 36.6501 81.3292H36.6013C36.3984 82.1523 36.2128 82.7484 36.0492 83.1173L29.7518 97.3072H28.6965L22.3868 83.2199C22.2089 82.8265 22.0229 82.1938 21.8347 81.3292H21.7878C21.8543 82.0693 21.8914 83.2687 21.8914 84.9322V97.3072H19.8027V78.8425H22.6608L28.3256 91.7182C28.753 92.688 29.0291 93.4257 29.1634 93.9289H29.2533C29.622 92.92 29.9152 92.1627 30.1376 91.6644L35.9244 78.8425H38.6358V97.3072H38.637Z" fill="black"/>
<path d="M45.3018 97.3066H43.1963V84.1206H45.3018V97.3066ZM45.6659 79.3938C45.6659 79.7822 45.5291 80.107 45.2578 80.3734C44.9917 80.6396 44.662 80.774 44.2759 80.774C43.8997 80.774 43.5723 80.645 43.3038 80.3881C43.0351 80.1291 42.903 79.7993 42.903 79.3938C42.903 79.0127 43.0359 78.6879 43.3038 78.4241C43.5723 78.1603 43.8997 78.0333 44.2759 78.0333C44.6618 78.0333 44.9917 78.1603 45.2578 78.4241C45.5291 78.6879 45.6659 79.0127 45.6659 79.3938Z" fill="black"/>
<path d="M58.4606 96.6965C57.4493 97.3169 56.2426 97.6248 54.8477 97.6248C52.9572 97.6248 51.4353 96.997 50.2725 95.7438C49.144 94.5273 48.5749 92.9567 48.5749 91.0318C48.5749 88.8723 49.1928 87.1234 50.4386 85.7946C51.6772 84.4632 53.3432 83.7987 55.4391 83.7987C56.5846 83.7987 57.6008 84.0235 58.4899 84.4681V86.6349C57.5056 85.9435 56.465 85.6015 55.3486 85.6015C54.005 85.6015 52.9132 86.0705 52.0655 87.0062C51.1836 87.9637 50.7366 89.2437 50.7366 90.8413C50.7366 92.3753 51.1447 93.5893 51.9557 94.4859C52.769 95.3774 53.8513 95.8245 55.2167 95.8245C56.3696 95.8245 57.4493 95.4458 58.4606 94.6911V96.6965Z" fill="black"/>
<path d="M68.5322 86.2599C68.1609 85.9742 67.6261 85.8348 66.92 85.8348C66.0627 85.8348 65.342 86.2184 64.7583 86.9927C64.0962 87.8574 63.7665 89.0544 63.7665 90.5835V97.306H61.656V84.12H63.7665V86.8389H63.8173C64.1276 85.8764 64.6064 85.1362 65.2464 84.6111C65.8448 84.1323 66.5215 83.8904 67.2665 83.8904C67.8283 83.8904 68.2461 83.951 68.5318 84.0701V86.2589L68.5322 86.2599Z" fill="black"/>
<path d="M80.2952 90.7375C80.2952 89.0497 79.9141 87.7599 79.152 86.8756C78.4119 86.0256 77.3785 85.6005 76.0473 85.6005C74.7355 85.6005 73.6828 86.0304 72.896 86.8903C72.0631 87.8088 71.6478 89.1058 71.6478 90.7889C71.6478 92.367 72.0436 93.6053 72.8424 94.4896C73.6362 95.3788 74.7061 95.8234 76.0473 95.8234C77.4348 95.8234 78.4973 95.3715 79.2253 94.4726C79.9386 93.5932 80.2952 92.3497 80.2952 90.7375ZM82.4595 90.6633C82.4595 92.7641 81.866 94.4521 80.6837 95.7174C79.4965 96.9877 77.899 97.6228 75.891 97.6228C73.9124 97.6228 72.3367 96.9877 71.1814 95.7174C70.0503 94.4935 69.4812 92.8764 69.4812 90.8661C69.4812 88.5723 70.1235 86.8037 71.4133 85.5482C72.6054 84.383 74.2004 83.7968 76.1988 83.7968C78.1651 83.7968 79.7017 84.4098 80.8082 85.624C81.905 86.8453 82.4595 88.526 82.4595 90.6633Z" fill="black"/>
<path d="M92.9264 93.7789C92.9264 94.8586 92.5234 95.7526 91.7148 96.4659C90.8331 97.2378 89.6214 97.6238 88.0972 97.6238C86.8488 97.6238 85.7545 97.3625 84.8262 96.83V94.5605C85.8596 95.4009 87.0002 95.8236 88.2535 95.8236C89.9244 95.8236 90.7621 95.208 90.7621 93.9817C90.7621 93.4662 90.5784 93.0388 90.2077 92.7089C89.8364 92.3719 89.1157 91.9689 88.0434 91.4973C86.9393 91.0137 86.1527 90.5179 85.6886 90.0024C85.1316 89.3917 84.8507 88.5979 84.8507 87.6208C84.8507 86.5264 85.288 85.6152 86.1527 84.8898C87.0198 84.1618 88.1337 83.7978 89.5016 83.7978C90.5497 83.7978 91.4877 84.0029 92.3206 84.4158V86.5411C91.451 85.9132 90.4569 85.6005 89.3283 85.6005C88.6297 85.6005 88.0679 85.7744 87.6501 86.1135C87.2275 86.4603 87.0149 86.9026 87.0149 87.4423C87.0149 88.0263 87.1927 88.4806 87.5451 88.8054C87.8577 89.106 88.5222 89.4724 89.5237 89.8997C90.6498 90.3713 91.4633 90.8599 91.9591 91.3605C92.6016 91.9933 92.9264 92.7994 92.9264 93.7789Z" fill="black"/>
<path d="M105.825 90.7375C105.825 89.0497 105.444 87.7599 104.679 86.8756C103.942 86.0256 102.906 85.6005 101.577 85.6005C100.265 85.6005 99.2125 86.0304 98.421 86.8903C97.5905 87.8088 97.1776 89.1058 97.1776 90.7889C97.1776 92.367 97.5733 93.6053 98.3647 94.4896C99.1685 95.3788 100.238 95.8234 101.577 95.8234C102.967 95.8234 104.027 95.3715 104.755 94.4726C105.468 93.5932 105.825 92.3497 105.825 90.7375ZM107.994 90.6633C107.994 92.7641 107.396 94.4521 106.211 95.7174C105.029 96.9877 103.431 97.6228 101.423 97.6228C99.4421 97.6228 97.8664 96.9877 96.7111 95.7174C95.58 94.4935 95.0109 92.8764 95.0109 90.8661C95.0109 88.5723 95.6582 86.8037 96.9408 85.5482C98.1328 84.383 99.7304 83.7968 101.731 83.7968C103.697 83.7968 105.231 84.4098 106.336 85.624C107.435 86.8453 107.994 88.526 107.994 90.6633Z" fill="black"/>
<path d="M117.294 79.6402C116.879 79.4106 116.418 79.2933 115.892 79.2933C114.414 79.2933 113.681 80.2239 113.681 82.0878V84.1202H116.772V85.9083H113.681V97.3062H111.569V85.9083H109.326V84.1202H111.569V81.9829C111.569 80.5317 112.013 79.3934 112.917 78.5726C113.691 77.8593 114.639 77.5052 115.765 77.5052C116.418 77.5052 116.926 77.5834 117.294 77.7348V79.6402Z" fill="black"/>
<path d="M125.625 97.1737C125.126 97.4596 124.462 97.6013 123.641 97.6013C121.34 97.6013 120.19 96.3041 120.19 93.7099V85.9103H117.928V84.1196H120.19V80.9026C120.864 80.69 121.565 80.458 122.305 80.2186V84.1196H125.625V85.9103H122.305V93.3509C122.305 94.2352 122.45 94.8678 122.752 95.2342C123.057 95.6129 123.556 95.7985 124.259 95.7985C124.784 95.7985 125.239 95.6578 125.625 95.3735V97.1737Z" fill="black"/>
<path d="M11.5286 148.77C11.5286 149.804 11.1598 150.698 10.4147 151.453C9.67208 152.205 8.77061 152.584 7.71299 152.584C6.67961 152.584 5.80021 152.205 5.0797 151.453C4.35899 150.698 4 149.804 4 148.77C4 147.708 4.35899 146.811 5.0797 146.069C5.80021 145.324 6.67961 144.955 7.71299 144.955C8.77061 144.955 9.67208 145.329 10.4147 146.083C11.1598 146.838 11.5286 147.735 11.5286 148.77Z" fill="black"/>
<path d="M51.9017 151.807L26.9148 113.219C26.3309 112.291 25.8277 111.282 25.4003 110.18H25.1949C25.3728 111.213 25.4638 113.431 25.4638 116.829V151.807H19.7892V103.394H27.1542L51.3936 141.374C52.3586 142.881 53.018 143.961 53.3527 144.611H53.4875C53.2628 143.218 53.1458 140.844 53.1458 137.493V103.394H58.786V151.807H51.9017Z" fill="black"/>
<path d="M95.1641 151.807H69.5054V103.394H94.0502V108.524H75.1751V124.629H92.6653V129.761H75.1751V146.675H95.1641V151.807Z" fill="black"/>
<path d="M134.084 108.525H120.138V151.808H114.466V108.525H100.494V103.392H134.084V108.525Z" fill="black"/>
<path d="M56.8613 19.7736C62.3355 36.5137 64.4094 66.3765 80.4168 66.3765C81.6357 66.3765 82.8669 66.2573 84.103 66.0222C69.5514 62.6293 67.8269 33.0913 58.9474 17.7948C58.2512 18.4275 57.5599 19.0871 56.8613 19.7736Z" fill="url(#paint0_linear_3_7056)"/>
<path d="M58.9473 17.7947C67.8267 33.0913 69.5513 62.6293 84.1028 66.0222C85.246 65.8121 86.3916 65.4946 87.5397 65.0939C74.4783 58.6939 70.8679 30.011 60.7842 16.2021C60.1735 16.7103 59.5604 17.2429 58.9473 17.7947Z" fill="url(#paint1_linear_3_7056)"/>
<path d="M71.7403 8.69806C70.5238 8.69806 69.2901 8.81724 68.0518 9.05236C64.8126 9.66304 61.5224 11.0578 58.2051 13.1683C59.1113 14.0623 59.9735 15.0858 60.7845 16.2022C64.158 13.4028 67.5095 11.3339 70.8488 10.0904C72.1018 9.62631 73.3502 9.27708 74.6032 9.04748C73.6994 8.81763 72.7467 8.69806 71.7403 8.69806Z" fill="#14559A"/>
<path d="M97.7365 59.1947C99.0726 58.1322 100.411 56.9571 101.752 55.6748C96.1902 39.0127 94.1994 8.72247 78.0796 8.72247C76.9266 8.72247 75.7638 8.82995 74.6035 9.04489C89.2869 12.6969 91.1679 44.6433 97.7365 59.1947Z" fill="url(#paint2_linear_3_7056)"/>
<path d="M74.6031 9.04626C73.6993 8.81665 72.7467 8.69708 71.7402 8.69708L78.0792 8.72031C76.9262 8.72031 75.7635 8.82778 74.6031 9.04529" fill="#3092C4"/>
<path d="M97.4541 62.7344C96.8239 62.1335 96.2255 61.4739 95.6367 60.7704C92.9252 62.6904 90.2236 64.1463 87.5391 65.0941C88.4941 65.5607 89.4956 65.9076 90.5583 66.1226C91.3814 66.2906 92.234 66.3766 93.1304 66.3766C96.1424 66.3766 98.524 66.02 100.552 65.0477C99.4353 64.4443 98.4117 63.6626 97.4541 62.7344Z" fill="#1969BC"/>
<path d="M70.8477 10.0928C83.9995 16.9716 85.1427 48.1216 95.6368 60.7703C96.3403 60.2745 97.0365 59.7492 97.7327 59.1946C91.1641 44.6431 89.2856 12.6942 74.6046 9.04474C73.3515 9.27923 72.1008 9.62633 70.8477 10.0928Z" fill="url(#paint3_linear_3_7056)"/>
<path d="M60.7852 16.2018C70.8688 30.0108 74.4793 58.6937 87.5407 65.0937C90.2253 64.1459 92.927 62.69 95.6384 60.77C85.1443 48.1214 84.0011 16.9714 70.8493 10.0926C67.51 11.3335 64.1586 13.4024 60.7852 16.2018Z" fill="url(#paint4_linear_3_7056)"/>
<path d="M50.4086 19.3703C48.8282 22.9442 47.2135 27.6415 45.2617 33.7728C49.1433 28.3034 53.0126 23.5914 56.8599 19.7735C56.3299 18.1441 55.7607 16.6418 55.1476 15.303C53.5745 16.5074 51.9891 17.8632 50.4086 19.3703Z" fill="url(#paint5_linear_3_7056)"/>
<path d="M56.55 14.2728C56.0858 14.605 55.6194 14.9446 55.1504 15.3036C55.7634 16.6422 56.3301 18.1446 56.8603 19.7738C57.5588 19.0899 58.2525 18.4279 58.9462 17.7952C58.2013 16.5152 57.4098 15.3329 56.55 14.2728Z" fill="#2B74B1"/>
<path d="M58.205 13.1678C57.6529 13.5172 57.1034 13.8859 56.5488 14.2719C57.4087 15.332 58.2001 16.5143 58.9476 17.7969C59.5608 17.2423 60.1739 16.7074 60.7846 16.2017C59.9736 15.0855 59.1114 14.0618 58.205 13.1678Z" fill="#125A9E"/>
<path d="M147.913 7.42305C140.475 36.1083 124.939 59.1484 111.914 64.9572H111.89C111.653 65.0647 111.418 65.1625 111.186 65.2576C111.154 65.277 111.125 65.2794 111.1 65.291C111.032 65.3186 110.969 65.3399 110.9 65.3672C110.868 65.3866 110.839 65.3928 110.81 65.4045C110.7 65.4437 110.592 65.4768 110.485 65.5198C110.439 65.5391 110.395 65.5512 110.351 65.5667C110.302 65.5861 110.245 65.604 110.189 65.6195C110.14 65.6389 110.089 65.6529 110.033 65.6742C109.986 65.6935 109.938 65.7018 109.894 65.7211C109.798 65.7487 109.711 65.7719 109.615 65.8051C109.576 65.8051 109.54 65.8264 109.498 65.8366C109.439 65.8559 109.373 65.87 109.31 65.8874C109.266 65.9067 109.229 65.913 109.183 65.9227C109.117 65.9421 109.044 65.96 108.978 65.9755C108.89 65.9949 108.812 66.0128 108.729 66.0302C109.317 66.2477 109.93 66.3575 110.592 66.3575C122.943 66.3575 135.396 44.2238 156.001 7.41632H147.91L147.913 7.42305Z" fill="url(#paint6_linear_3_7056)"/>
<path d="M42.5805 9.86171C42.5882 9.86171 42.5979 9.84235 42.6028 9.84235C42.6124 9.84235 42.6274 9.84235 42.6323 9.82299H42.6478C42.7161 9.79977 42.7797 9.77219 42.848 9.74678C42.8655 9.74678 42.8747 9.74678 42.8872 9.72743C42.9047 9.72743 42.9216 9.70807 42.9386 9.70565C43.0119 9.68242 43.0852 9.65484 43.1536 9.62944H43.1652C43.329 9.58061 43.4803 9.52003 43.6391 9.46337C43.6614 9.46337 43.6831 9.44401 43.7099 9.44401C43.7759 9.42272 43.8443 9.39901 43.9126 9.38343C43.9445 9.36407 43.9761 9.36407 44.0054 9.35391C44.0762 9.33262 44.1448 9.30891 44.2106 9.29333C44.2402 9.29333 44.2669 9.27397 44.2888 9.27203C44.516 9.20952 44.7407 9.15087 44.9679 9.09614C44.9998 9.09614 45.0265 9.07678 45.0607 9.07485C45.1265 9.05549 45.1878 9.04533 45.2585 9.03565C45.2881 9.0163 45.3221 9.0163 45.3563 9.00614C45.4221 8.98678 45.4856 8.98484 45.5566 8.96888H45.603C45.7398 8.94129 45.8791 8.91807 46.0159 8.89266H46.0989C46.1648 8.87331 46.2234 8.87137 46.2895 8.85927C46.3258 8.85927 46.3627 8.83992 46.397 8.83992C46.4579 8.83992 46.5191 8.82056 46.5801 8.81234C46.612 8.81234 46.6435 8.81234 46.6803 8.79298C46.8243 8.77363 46.9734 8.76588 47.1249 8.75379C46.6974 8.71266 46.2577 8.68536 45.8107 8.68536C31.9016 8.68536 12.7382 34.493 4.10547 67.9148H5.76899C8.53175 62.9879 11.0136 58.3271 13.2829 53.952C19.3287 30.2793 31.6427 14.1351 42.5814 9.85788" fill="url(#paint7_linear_3_7056)"/>
<path d="M50.4102 19.3705C51.9907 17.8634 53.576 16.5076 55.1491 15.3034C54.7901 14.5168 54.4188 13.7889 54.0205 13.1219C52.7479 14.6657 51.5852 16.703 50.4102 19.3705Z" fill="#0D82CA"/>
<path d="M51.5528 10.0574C52.4615 10.8195 53.2749 11.8675 54.02 13.1231C54.2545 12.8349 54.4916 12.5686 54.7382 12.3194C53.705 11.3546 52.5886 10.5631 51.377 9.9671C51.4258 9.9942 51.4747 10.016 51.5255 10.0375C51.5255 10.0375 51.5448 10.0568 51.553 10.0568" fill="#0D82CA"/>
<path d="M13.2832 53.955C25.966 29.5151 31.9752 14.0475 42.5816 9.86066C31.6454 14.1405 19.329 30.2846 13.2832 53.955Z" fill="url(#paint8_linear_3_7056)"/>
<path d="M54.7377 12.3192C54.4911 12.5709 54.2566 12.8347 54.0195 13.1229C54.4178 13.7897 54.7889 14.5153 55.1506 15.3042C55.6196 14.9452 56.0861 14.6056 56.5502 14.2734C55.9763 13.565 55.3705 12.908 54.7377 12.3192Z" fill="#127BCA"/>
<path d="M19.0397 67.8081C18.9616 67.8275 18.8834 67.8275 18.8101 67.8357H18.7661C18.7001 67.8357 18.6317 67.855 18.5707 67.855H18.5389C18.3802 67.8744 18.2237 67.8744 18.0723 67.8865H18.0234C30.8601 67.5273 36.7276 61.1003 39.6394 51.7787C41.8525 44.7119 43.67 38.7589 45.2627 33.7635C39.8861 41.3312 34.4852 50.3522 29.0549 60.4579C26.4363 65.3288 22.4546 67.3635 19.0396 67.7985" fill="url(#paint9_linear_3_7056)"/>
<path d="M19.0391 67.8032C22.454 67.3682 26.4357 65.3358 29.0544 60.4626C34.4846 50.3594 39.888 41.3358 45.2596 33.7682C47.2138 27.6343 48.8261 22.9395 50.409 19.3656C39.7024 29.5568 28.9542 46.5023 19.0391 67.7983" fill="url(#paint10_linear_3_7056)"/>
<path d="M13.2815 53.9554C11.0123 58.3304 8.53044 62.9912 5.76758 67.9182H10.6068C11.2468 63.0252 12.1555 58.3596 13.2815 53.9577" fill="#05A1E6"/>
<path d="M46.6791 8.80539C46.6399 8.80539 46.6107 8.82475 46.5765 8.82475C46.5179 8.8441 46.4567 8.8441 46.3957 8.8504C46.3594 8.8504 46.325 8.8504 46.2883 8.86975C46.2222 8.88911 46.1612 8.89104 46.0977 8.90314C46.0682 8.90314 46.0391 8.90314 46.0147 8.9225C45.8753 8.94572 45.7386 8.97137 45.6018 8.99479H45.5554C45.4846 9.01414 45.4209 9.02431 45.3551 9.03398C45.3207 9.05334 45.2866 9.05334 45.2548 9.06108C45.1889 9.08044 45.1229 9.08866 45.0594 9.10028C45.0251 9.11963 44.9984 9.11963 44.9665 9.12157C44.7394 9.1763 44.5146 9.23494 44.2875 9.29746C44.2633 9.29746 44.2386 9.31682 44.2093 9.32069C44.1409 9.34005 44.0749 9.35989 44.0041 9.38127C43.9746 9.40063 43.9406 9.40063 43.9113 9.40837C43.8429 9.42773 43.7745 9.44757 43.7085 9.46895C43.6819 9.46895 43.6597 9.48831 43.6353 9.48831C43.4789 9.54691 43.325 9.60556 43.1638 9.65443C43.0954 9.67572 43.0221 9.70326 42.9489 9.72866C42.9193 9.74802 42.8926 9.75237 42.8586 9.76592C42.7901 9.78721 42.7218 9.81479 42.6582 9.8402C42.634 9.85955 42.6094 9.86149 42.5924 9.87165C31.9859 14.0585 25.9768 29.5261 13.294 53.966C12.1678 58.3679 11.2567 63.0335 10.6191 67.9263H11.2982C13.2109 67.9263 13.7508 67.9069 15.9517 67.9069H16.064H16.3914H16.5037H16.5356H16.6479H16.7115H16.7554H16.8434H17.117H17.3906H17.6202H17.6812H18.0842C18.2357 67.8876 18.392 67.8876 18.5508 67.8755H18.5801C18.6462 67.8755 18.712 67.8561 18.7755 67.8561H18.8218C18.8926 67.8561 18.9733 67.8368 19.0514 67.8285C28.9666 46.5326 39.7147 29.5871 50.4213 19.3959C51.5987 16.7284 52.7591 14.6911 54.0293 13.1498C53.2867 11.8943 52.4733 10.8439 51.5646 10.0816C51.5646 10.0816 51.5399 10.0816 51.538 10.0622C51.4866 10.0409 51.4379 10.0153 51.3865 9.98991C51.3351 9.96233 51.2912 9.94104 51.2376 9.9137C51.1911 9.89434 51.1374 9.8687 51.091 9.84334C51.0275 9.82399 50.9762 9.7964 50.9201 9.771C50.8736 9.75164 50.8321 9.7318 50.7856 9.7124C50.6902 9.67514 50.5951 9.63619 50.5047 9.59515C50.4631 9.5758 50.4242 9.56564 50.3849 9.55015C50.319 9.52644 50.2432 9.49542 50.1748 9.4661C50.1405 9.44674 50.1015 9.44287 50.0625 9.42884C49.9624 9.39545 49.8646 9.36047 49.7717 9.32916H49.7476C49.6351 9.2919 49.5252 9.2647 49.4104 9.2334C49.3838 9.21404 49.3616 9.21404 49.3348 9.21017C49.2345 9.18259 49.1466 9.15544 49.0514 9.13004C49.0272 9.13004 49.005 9.11068 48.9856 9.11068C48.756 9.0501 48.519 9.00127 48.2796 8.95632C48.2549 8.95632 48.2308 8.93696 48.2064 8.93696C48.1038 8.91761 48.0036 8.8997 47.901 8.88809C47.8763 8.86873 47.8618 8.86873 47.84 8.86873C47.7179 8.84938 47.5982 8.83535 47.4785 8.8218H47.415C47.3173 8.80244 47.227 8.80051 47.1365 8.79034C46.9825 8.8097 46.8361 8.81793 46.6919 8.83148" fill="url(#paint11_linear_3_7056)"/>
<path d="M118.859 23.3032C116.419 31.12 114.442 37.5689 112.723 42.8746C119.418 33.6605 126.014 22.0695 132.294 8.69318C124.968 10.994 121.06 16.2608 118.859 23.3032Z" fill="url(#paint12_linear_3_7056)"/>
<path d="M112.935 64.4688C112.593 64.6427 112.251 64.8083 111.914 64.9574C124.939 59.1485 140.475 36.1084 147.913 7.42316H146.406C129.316 37.9502 123.82 58.3863 112.935 64.4688Z" fill="url(#paint13_linear_3_7056)"/>
<path d="M104.43 61.9039C107.264 58.445 109.572 52.5654 112.723 42.8749C109.088 47.8679 105.429 52.1599 101.767 55.6603C101.767 55.6796 101.767 55.6796 101.748 55.6917C102.547 58.0856 103.424 60.1985 104.423 61.9035" fill="#079AE1"/>
<path d="M104.43 61.904C103.465 63.0814 102.444 63.978 101.308 64.6424C101.059 64.7871 100.807 64.9233 100.551 65.0479C101.75 65.6952 103.059 66.1276 104.525 66.301C104.74 66.3223 104.952 66.3421 105.175 66.3576H105.214C105.314 66.3576 105.419 66.3576 105.527 66.377H105.57H105.89H106.234H106.342H106.586C106.625 66.377 106.666 66.377 106.705 66.3576C106.782 66.3576 106.862 66.3576 106.94 66.3383H106.967H107.055C107.136 66.3383 107.223 66.3189 107.309 66.3107H107.329C107.354 66.3107 107.382 66.2913 107.407 66.2913C107.497 66.272 107.591 66.2638 107.678 66.2502H107.758C107.858 66.2309 107.961 66.2188 108.064 66.1994H108.083H108.112C108.318 66.1602 108.518 66.1213 108.721 66.0704C107.04 65.4548 105.633 64.0038 104.421 61.9373" fill="#1969BC"/>
<path d="M80.416 66.3771C81.635 66.3771 82.8662 66.2579 84.1022 66.0205C85.2455 65.8129 86.391 65.4952 87.5391 65.0945C88.4943 65.5612 89.4958 65.9081 90.556 66.1231C91.3791 66.2911 92.2341 66.3771 93.1307 66.3771H80.416Z" fill="#1E5CB3"/>
<path d="M93.1317 66.377C96.1411 66.377 98.5253 66.0204 100.55 65.0482C101.75 65.6954 103.059 66.1279 104.525 66.3014C104.74 66.3227 104.952 66.3425 105.174 66.3581H105.214C105.313 66.3581 105.419 66.3581 105.526 66.3774H105.571H105.891H93.123L93.1317 66.377Z" fill="#1E5CB3"/>
<path d="M105.898 66.377H106.245H106.353H106.595C106.636 66.377 106.675 66.377 106.714 66.3577C106.79 66.3577 106.87 66.3577 106.951 66.3383H106.977H107.067C107.147 66.3383 107.235 66.3189 107.318 66.3112H107.34C107.365 66.3112 107.39 66.2918 107.416 66.2918C107.506 66.2725 107.599 66.2647 107.687 66.2507C107.716 66.2507 107.74 66.2507 107.771 66.2314C107.87 66.212 107.974 66.2018 108.076 66.1825H108.096H108.125C108.33 66.1433 108.531 66.1043 108.733 66.0535C109.322 66.2708 109.935 66.3809 110.597 66.3809L105.902 66.4002L105.898 66.377Z" fill="#1D60B5"/>
<path d="M101.755 55.692V55.6727C100.414 56.955 99.0751 58.1301 97.7388 59.1926C97.0402 59.7472 96.3441 60.2723 95.6406 60.7683C96.2292 61.4718 96.8278 62.1313 97.458 62.7323C98.4156 63.6603 99.439 64.4422 100.555 65.0455C100.809 64.9204 101.064 64.784 101.31 64.64C102.448 63.9755 103.47 63.0791 104.435 61.9017C103.435 60.1967 102.558 58.0836 101.76 55.6897" fill="#175FAB"/>
<path d="M141.632 7.42316H135.295H134.665H134.069H134.046C133.635 7.44251 133.237 7.45655 132.844 7.4818C132.658 7.8801 132.468 8.27834 132.284 8.67895C126.004 22.0553 119.409 33.6463 112.713 42.8604C109.564 52.5507 107.254 58.4305 104.42 61.8895C105.632 63.956 107.041 65.4094 108.717 66.025C108.766 66.0056 108.805 66.0056 108.849 65.9954H108.876C108.905 65.9954 108.937 65.9761 108.969 65.9761C109.037 65.9567 109.11 65.9446 109.179 65.9233C109.223 65.904 109.259 65.9021 109.303 65.888C109.367 65.8687 109.433 65.8546 109.491 65.8391C109.531 65.8198 109.57 65.8135 109.609 65.8058C109.706 65.7743 109.794 65.751 109.887 65.7217C109.931 65.7024 109.978 65.6864 110.026 65.6748C110.08 65.6554 110.134 65.6414 110.183 65.6181C110.239 65.5988 110.295 65.5886 110.344 65.5673C110.388 65.5479 110.434 65.5359 110.476 65.5184C110.586 65.4792 110.693 65.4461 110.803 65.4031C110.833 65.4031 110.862 65.376 110.894 65.3697C110.96 65.3421 111.028 65.3209 111.094 65.2915C111.118 65.2722 111.148 65.2702 111.179 65.2601C111.409 65.1643 111.646 65.0666 111.883 64.9597H111.908C112.245 64.8112 112.587 64.6445 112.926 64.4712C123.814 58.3887 129.31 37.9526 146.399 7.42553H141.626L141.632 7.42316Z" fill="url(#paint14_linear_3_7056)"/>
<path d="M47.125 8.76467C47.1521 8.76467 47.1764 8.76467 47.2031 8.78402C47.269 8.78402 47.3351 8.78402 47.401 8.80531H47.4671C47.5867 8.82467 47.7064 8.83483 47.8286 8.85225C47.8508 8.85225 47.8702 8.85225 47.8896 8.87161C47.9896 8.89096 48.0923 8.90693 48.1949 8.92242C48.2171 8.92242 48.2463 8.94177 48.2707 8.94177C48.5053 8.98871 48.7446 9.03753 48.9742 9.09812C48.996 9.09812 49.0183 9.11747 49.0378 9.11747C49.1355 9.1407 49.2234 9.17022 49.3211 9.19756C49.3506 9.19756 49.3723 9.21691 49.3993 9.22127C49.5142 9.25079 49.6216 9.27992 49.734 9.31703C49.7388 9.31703 49.7456 9.31703 49.7586 9.33639C49.8538 9.36542 49.9515 9.40283 50.0517 9.43602C50.0909 9.45538 50.1274 9.4636 50.1641 9.47328C50.2325 9.5028 50.3083 9.53188 50.3742 9.55927C50.4134 9.55927 50.4523 9.58637 50.4938 9.6004C50.5841 9.64153 50.6794 9.67855 50.7722 9.71765C50.8211 9.737 50.8625 9.75878 50.909 9.77624C50.9628 9.80383 51.0189 9.82904 51.0775 9.84859C51.1264 9.87181 51.1801 9.89741 51.2264 9.9189C51.2778 9.94648 51.3265 9.96777 51.3755 9.99511C52.5871 10.5912 53.7035 11.3851 54.7368 12.3476C55.1178 11.947 55.516 11.5878 55.9288 11.2654C53.6693 9.66292 51.1093 8.74933 48.156 8.74933C47.814 8.74933 47.472 8.76868 47.1251 8.79433" fill="#7DCBEC"/>
<path d="M54.7363 12.3189C55.369 12.9075 55.9748 13.5647 56.5488 14.2731C57.1033 13.8872 57.653 13.5158 58.2051 13.169C57.482 12.4459 56.7199 11.7961 55.9259 11.2367C55.5131 11.5568 55.1174 11.9183 54.7363 12.3189Z" fill="#5EC5ED"/>
<path d="M47.1248 8.76401C47.4716 8.7347 47.8136 8.72249 48.1556 8.72249C51.1089 8.72249 53.6689 9.63608 55.9285 11.2361C58.3126 9.35516 61.195 8.69806 65.1987 8.69806H45.8105C46.2576 8.69806 46.6948 8.72493 47.1248 8.76401Z" fill="url(#paint15_linear_3_7056)"/>
<path d="M65.198 8.69806C61.1943 8.69806 58.3119 9.35516 55.9277 11.2361C56.7192 11.7955 57.4813 12.4452 58.2044 13.1683C61.5241 11.0578 64.812 9.6605 68.0536 9.04981C69.2896 8.81775 70.5232 8.69806 71.7397 8.69806H65.198Z" fill="url(#paint16_linear_3_7056)"/>
<path d="M112.723 42.8799C114.445 37.5693 116.416 31.123 118.861 23.3036C121.065 16.2587 124.966 10.9921 132.292 8.69355C132.485 8.30014 132.668 7.89464 132.856 7.4964C120.913 8.21222 115.332 14.2872 112.523 23.2841C107.61 38.991 104.635 49.1724 101.77 55.6604C105.429 52.1623 109.088 47.868 112.723 42.8799Z" fill="url(#paint17_linear_3_7056)"/>
<path d="M130.244 62.1926H128.891V66.3991H128.339V62.1926H126.98V61.692H130.244V62.1926Z" fill="black"/>
<path d="M135.236 66.3983V63.2374C135.236 62.9882 135.255 62.683 135.281 62.3238C135.224 62.5388 135.177 62.6878 135.134 62.783L133.532 66.3983H133.263L131.656 62.81C131.609 62.7103 131.562 62.5485 131.511 62.3238H131.492C131.511 62.5134 131.517 62.8198 131.517 63.2448V66.3983H130.99V61.6912H131.718L133.161 64.9766C133.271 65.2234 133.339 65.414 133.374 65.541H133.395C133.491 65.282 133.569 65.089 133.623 64.9619L135.095 61.6912H135.789V66.3983H135.236Z" fill="black"/>
<defs>
<linearGradient id="paint0_linear_3_7056" x1="70.4814" y1="8.31353" x2="70.4814" y2="80.7689" gradientUnits="userSpaceOnUse">
<stop stop-color="#0994DC"/>
<stop offset="0.350006" stop-color="#66CEF5"/>
<stop offset="0.846161" stop-color="#127BCA"/>
<stop offset="1" stop-color="#127BCA"/>
</linearGradient>
<linearGradient id="paint1_linear_3_7056" x1="73.2437" y1="6.47907" x2="73.2437" y2="80.781" gradientUnits="userSpaceOnUse">
<stop stop-color="#0E76BC"/>
<stop offset="0.360001" stop-color="#36AEE8"/>
<stop offset="0.846161" stop-color="#00ADEF"/>
<stop offset="1" stop-color="#00ADEF"/>
</linearGradient>
<linearGradient id="paint2_linear_3_7056" x1="88.1777" y1="64.7072" x2="88.1777" y2="5.58615" gradientUnits="userSpaceOnUse">
<stop stop-color="#1C63B7"/>
<stop offset="0.5" stop-color="#33BDF2"/>
<stop offset="1" stop-color="#33BDF2" stop-opacity="0.419608"/>
</linearGradient>
<linearGradient id="paint3_linear_3_7056" x1="84.2904" y1="-1.04949" x2="84.2904" y2="76.0951" gradientUnits="userSpaceOnUse">
<stop stop-color="#166AB8"/>
<stop offset="0.399994" stop-color="#36AEE8"/>
<stop offset="0.846161" stop-color="#0798DD"/>
<stop offset="1" stop-color="#0798DD"/>
</linearGradient>
<linearGradient id="paint4_linear_3_7056" x1="78.2113" y1="-0.644252" x2="78.2113" y2="81.3888" gradientUnits="userSpaceOnUse">
<stop stop-color="#124379"/>
<stop offset="0.389999" stop-color="#1487CB"/>
<stop offset="0.780228" stop-color="#165197"/>
<stop offset="1" stop-color="#165197"/>
</linearGradient>
<linearGradient id="paint5_linear_3_7056" x1="45.2618" y1="24.538" x2="56.86" y2="24.538" gradientUnits="userSpaceOnUse">
<stop stop-color="#33BDF2" stop-opacity="0.698039"/>
<stop offset="1" stop-color="#1DACD8"/>
</linearGradient>
<linearGradient id="paint6_linear_3_7056" x1="132.369" y1="63.2256" x2="132.369" y2="5.6336" gradientUnits="userSpaceOnUse">
<stop stop-color="#136AB4"/>
<stop offset="0.6" stop-color="#59CAF5" stop-opacity="0.54902"/>
<stop offset="1" stop-color="#59CAF5" stop-opacity="0.235294"/>
</linearGradient>
<linearGradient id="paint7_linear_3_7056" x1="4.10514" y1="38.2999" x2="47.1245" y2="38.2999" gradientUnits="userSpaceOnUse">
<stop stop-color="#05A1E6" stop-opacity="0.247059"/>
<stop offset="1" stop-color="#05A1E6"/>
</linearGradient>
<linearGradient id="paint8_linear_3_7056" x1="27.9319" y1="64.676" x2="27.9319" y2="5.70636" gradientUnits="userSpaceOnUse">
<stop stop-color="#318ED5"/>
<stop offset="1" stop-color="#38A7E4"/>
</linearGradient>
<linearGradient id="paint9_linear_3_7056" x1="31.6427" y1="64.8837" x2="31.6427" y2="7.562" gradientUnits="userSpaceOnUse">
<stop stop-color="#05A1E6"/>
<stop offset="1" stop-color="#05A1E6" stop-opacity="0.54902"/>
</linearGradient>
<linearGradient id="paint10_linear_3_7056" x1="34.724" y1="67.8083" x2="34.724" y2="19.3706" gradientUnits="userSpaceOnUse">
<stop stop-color="#1959A6"/>
<stop offset="0.5" stop-color="#05A1E6"/>
<stop offset="0.917587" stop-color="#7EC5EA"/>
<stop offset="1" stop-color="#7EC5EA"/>
</linearGradient>
<linearGradient id="paint11_linear_3_7056" x1="36.5802" y1="64.7139" x2="20.1611" y2="14.5361" gradientUnits="userSpaceOnUse">
<stop stop-color="#165096"/>
<stop offset="1" stop-color="#0D82CA"/>
</linearGradient>
<linearGradient id="paint12_linear_3_7056" x1="122.507" y1="35.0122" x2="122.507" y2="7.56555" gradientUnits="userSpaceOnUse">
<stop stop-color="#05A1E6"/>
<stop offset="0.873627" stop-color="#0495D6"/>
<stop offset="1" stop-color="#0495D6"/>
</linearGradient>
<linearGradient id="paint13_linear_3_7056" x1="135.408" y1="5.02891" x2="109.828" y2="61.8246" gradientUnits="userSpaceOnUse">
<stop stop-color="#38A7E4" stop-opacity="0.329412"/>
<stop offset="0.961533" stop-color="#0E88D3"/>
<stop offset="1" stop-color="#0E88D3"/>
</linearGradient>
<linearGradient id="paint14_linear_3_7056" x1="125.417" y1="7.24983" x2="125.417" y2="67.1278" gradientUnits="userSpaceOnUse">
<stop stop-color="#168CD4"/>
<stop offset="0.5" stop-color="#1C87CC"/>
<stop offset="1" stop-color="#154B8D"/>
</linearGradient>
<linearGradient id="paint15_linear_3_7056" x1="49.0433" y1="6.01879" x2="49.3027" y2="12.2987" gradientUnits="userSpaceOnUse">
<stop stop-color="#97D6EE"/>
<stop offset="0.703293" stop-color="#55C1EA"/>
<stop offset="1" stop-color="#55C1EA"/>
</linearGradient>
<linearGradient id="paint16_linear_3_7056" x1="57.0172" y1="12.8867" x2="58.19" y2="6.23456" gradientUnits="userSpaceOnUse">
<stop stop-color="#7ACCEC"/>
<stop offset="1" stop-color="#3FB7ED"/>
</linearGradient>
<linearGradient id="paint17_linear_3_7056" x1="117.312" y1="10.561" x2="117.312" y2="69.1277" gradientUnits="userSpaceOnUse">
<stop stop-color="#1DA7E7"/>
<stop offset="1" stop-color="#37ABE7" stop-opacity="0"/>
</linearGradient>
</defs>
</svg>
