<svg width="160" height="168" viewBox="0 0 160 168" fill="none" xmlns="http://www.w3.org/2000/svg">
<path d="M68.2443 155.63C74.8709 151.685 81.9707 146.479 90.175 139.537C102.008 129.597 112.737 118.237 122.203 105.931C123.465 109.559 124.885 113.031 126.463 116.344C131.512 127.23 137.034 134.488 143.503 139.221C146.027 140.957 148.867 142.377 151.707 143.323C151.707 143.323 152.812 143.639 153.916 143.639C154.389 143.639 154.863 143.639 155.178 143.323C155.494 143.165 155.809 142.85 155.967 142.377C156.125 141.588 155.809 140.483 152.969 139.537C145.554 137.328 140.347 129.281 136.087 121.708C132.459 115.239 129.461 107.824 126.937 99.4619C138.454 83.0534 146.658 65.067 151.549 45.9763C153.6 37.9298 155.494 29.41 155.494 21.2057C155.494 16.1569 154.389 7.47931 147.447 5.11269C147.289 5.11269 147.132 5.11269 147.132 5.11269C145.712 5.11269 143.503 7.00598 141.61 8.7415C141.294 9.05705 141.136 9.21483 140.978 9.3726C140.978 9.3726 135.614 14.4214 135.772 15.2103V15.5258L136.087 15.6836C146.816 19.3124 143.345 36.6676 141.452 45.9763L141.136 47.5541C138.139 62.5426 132.774 77.5312 124.885 91.731C124.728 91.0999 124.57 90.311 124.412 89.6799C121.73 77.689 120.783 67.4337 121.73 58.2827C122.677 48.8163 125.517 43.4519 130.25 41.8742C130.408 41.8742 130.565 41.7164 130.881 41.7164C131.67 41.5586 131.828 41.0853 131.985 40.7698C132.143 39.8231 130.881 38.8765 130.565 38.5609C129.303 37.9298 128.041 37.4565 126.779 37.6143C126.305 37.6143 125.99 37.6143 125.832 37.772C120.152 39.0342 116.523 44.2408 114.946 53.2339C113.052 63.9626 114.63 75.6379 116.05 83.3689C116.997 89.0488 118.417 94.5709 120.152 99.7775C112.421 112.084 103.27 123.444 92.8572 133.699C88.4395 137.959 83.5485 141.746 78.4997 145.059C75.8175 146.794 72.8198 148.53 68.8754 150.423C65.5622 152.159 62.88 153.263 59.5667 151.685C58.4623 151.212 56.4112 152.79 53.5713 155.314C53.2557 155.472 53.098 155.787 52.9402 155.787C52.9402 155.787 47.5759 160.678 47.7336 161.467V161.783L48.0492 161.941C49.4692 162.572 50.7314 162.887 52.1513 162.887C54.2024 162.887 56.0957 162.256 58.1468 161.152C61.9334 159.258 65.2466 157.523 68.2443 155.63Z" fill="#ED403F"/>
<path d="M56.5685 78.3207C64.9305 78.3207 72.1881 84.7895 72.1881 96.1492C72.1881 107.351 64.9305 113.82 56.5685 113.82C48.2064 113.82 41.1065 107.351 41.1065 96.1492C41.1065 84.7895 48.2064 78.3207 56.5685 78.3207ZM56.5685 110.98C63.5105 110.98 68.8749 104.985 68.8749 96.1492C68.8749 87.1561 63.6683 81.1606 56.5685 81.1606C49.6264 81.1606 44.4198 87.3139 44.4198 96.1492C44.4198 104.985 49.6264 110.98 56.5685 110.98Z" fill="#2C2C2C"/>
<path d="M73.4503 79.1096H76.7636L84.3368 99.4625C85.4412 102.618 86.5456 105.773 87.6501 108.771H87.9656C89.07 105.773 90.1744 102.618 91.4366 99.4625L99.0098 79.1096H102.165L89.8589 111.611C87.9656 115.713 86.2301 111.611 86.2301 111.611L73.4503 79.1096Z" fill="#2C2C2C"/>
<path d="M17.4403 103.407C18.8603 103.88 20.2803 104.038 21.7003 104.038C28.9579 104.038 34.6378 98.8314 34.6378 91.2582C34.6378 87.3139 32.9023 84.1584 30.5356 82.1073H39.2132V79.4251H26.4335C25.1713 79.1096 23.5936 78.6362 21.5425 78.6362C14.2849 78.6362 8.4472 83.8428 8.4472 91.416C8.4472 95.2026 10.1827 98.3581 12.2338 100.409C14.2849 100.725 16.0204 101.829 17.4403 103.407ZM11.9182 91.2582C11.9182 85.105 16.3359 81.1606 21.7003 81.1606C27.0646 81.1606 31.4823 85.105 31.4823 91.2582C31.4823 97.4114 27.0646 101.514 21.7003 101.514C16.3359 101.514 11.9182 97.4114 11.9182 91.2582Z" fill="#2C2C2C"/>
<path d="M28.169 112.242H20.1225C19.9647 112.242 19.807 112.242 19.807 112.242C19.4914 113.347 19.0181 114.609 18.387 115.556C19.1759 115.713 19.9647 115.713 20.2803 115.713H28.3268C34.0067 115.713 37.0044 117.133 37.0044 121.235C37.0044 125.811 31.4823 130.386 23.1202 130.386C15.0737 130.386 10.656 127.389 10.656 122.813C10.656 121.866 10.9716 120.762 11.4449 119.658C10.3405 119.815 9.23607 119.815 8.13165 119.5C7.65832 120.604 7.34277 121.709 7.34277 122.655C7.34277 128.809 13.3382 132.753 22.6469 132.753C33.3756 132.753 40.3177 126.758 40.3177 120.447C40.4754 114.767 36.5311 112.242 28.169 112.242Z" fill="#2C2C2C"/>
<path d="M44.7359 65.6971H34.9538V45.1864H16.8098V65.6971H7.02773V15.5248H16.8098V36.5088H35.1116V15.5248H44.8936L44.7359 65.6971Z" fill="#086B92"/>
<path d="M62.4066 65.6971H52.6246V15.5248H62.4066V65.6971Z" fill="#086B92"/>
<path d="M107.846 15.5248L92.226 62.5416C91.4372 64.7505 89.8594 65.6971 87.8083 65.6971C85.5995 65.6971 84.0218 64.5927 83.2329 62.5416L67.771 15.5248H77.8685L87.8083 48.0264L97.7481 15.5248H107.846Z" fill="#086B92"/>
<path d="M16.0751 108.217C17.007 111.486 15.1087 114.888 11.8399 115.82C8.57096 116.752 5.16895 114.854 4.23709 111.585C3.30523 108.316 5.20346 104.914 8.47235 103.982C11.7412 103.05 15.1433 104.949 16.0751 108.217Z" fill="#086B92"/>
</svg>
