<svg width="160" height="56" viewBox="0 0 160 56" fill="none" xmlns="http://www.w3.org/2000/svg">
<path d="M155.064 43.5882C155.064 41.2465 153.404 39.5318 151.116 39.5318C148.832 39.5318 147.17 41.2465 147.17 43.5882C147.17 45.9261 148.832 47.6379 151.116 47.6379C153.404 47.6379 155.064 45.9232 155.064 43.5882ZM150.079 43.7962V46.4457H149.223V40.6034H151.35C152.596 40.6034 153.168 41.1477 153.168 42.2088C153.168 42.8624 152.726 43.3801 152.157 43.4552V43.4799C152.651 43.5587 152.833 43.9995 152.934 44.8061C153.012 45.3285 153.116 46.2348 153.302 46.4476H152.289C152.054 45.8985 152.078 45.1214 151.896 44.4707C151.746 43.9758 151.482 43.7953 150.915 43.7953H150.084V43.7981L150.079 43.7962ZM151.14 43.041C151.971 43.041 152.209 42.5983 152.209 42.2079C152.209 41.7462 151.971 41.3814 151.14 41.3814H150.079V43.0429H151.14V43.041ZM146.229 43.5882C146.229 40.7031 148.519 38.7528 151.112 38.7528C153.713 38.7528 156.001 40.7031 156.001 43.5882C156.001 46.4676 153.714 48.4198 151.112 48.4198C148.519 48.4198 146.229 46.4676 146.229 43.5882Z" fill="#FF5A00"/>
<path d="M129.303 47.5771L123.672 41.2626L118.091 47.5771H106.347L117.825 34.6821L106.347 21.7834H118.458L124.145 28.0494L129.618 21.7834H141.305L129.884 34.628L141.463 47.5771H129.303ZM83.7969 47.5771V6.94379H106.347V16.0009H93.3489V21.7834H106.347V30.4984H93.3489V38.4972H106.347V47.5771H83.7969Z" fill="#FF5A00"/>
<path d="M74.2793 6.94379V23.5731H74.1738C72.0677 21.1526 69.4353 20.309 66.383 20.309C60.1284 20.309 55.4165 24.5639 53.7626 30.185C51.876 23.9902 47.0111 20.1931 39.7989 20.1931C33.9404 20.1931 29.3159 22.8217 26.9001 27.1061V21.7824H14.7927V16.0018H28.0068V6.94569H4V47.5771H14.7927V30.4984H25.5502C25.2188 31.8118 25.0532 33.1614 25.0572 34.5159C25.0572 42.9878 31.5313 48.9413 39.797 48.9413C46.7451 48.9413 51.3278 45.6762 53.7493 39.7322H44.4994C43.2492 41.521 42.2992 42.0492 39.798 42.0492C36.8986 42.0492 34.3964 39.5185 34.3964 36.5222H53.2306C54.0476 43.2528 59.2915 49.0562 66.4885 49.0562C69.593 49.0562 72.4353 47.5296 74.1728 44.9504H74.2773V47.5828H83.7933V6.94569H74.2793V6.94379ZM34.6966 30.62C35.2979 28.038 37.2995 26.3509 39.798 26.3509C42.5491 26.3509 44.449 27.9858 44.9478 30.62H34.6966ZM68.5043 41.3937C64.998 41.3937 62.8187 38.1268 62.8187 34.7144C62.8187 31.0665 64.7149 27.5621 68.5043 27.5621C72.4363 27.5621 74.0028 31.0684 74.0028 34.7144C74.0028 38.1705 72.3441 41.3937 68.5043 41.3937Z" fill="#29007C"/>
</svg>
