<svg width="240" height="48" viewBox="0 0 240 48" fill="none" xmlns="http://www.w3.org/2000/svg">
<path d="M56.1502 31.9121C57.0999 29.5135 57.5875 26.9569 57.5872 24.3771C57.5088 18.9458 55.2961 13.7636 51.4276 9.95057C47.5591 6.13754 42.3454 4 36.9136 4C31.4818 4 26.2681 6.13754 22.3996 9.95057C18.531 13.7636 16.3184 18.9458 16.2399 24.3771C16.2466 26.9583 16.7415 29.5149 17.6986 31.9121H5.6582V35.8953H68.2035V31.9121H56.1502ZM20.5253 24.3771C20.5253 20.0278 22.253 15.8566 25.3285 12.7812C28.4039 9.70577 32.5751 7.97801 36.9244 7.97801C41.2737 7.97801 45.4449 9.70577 48.5203 12.7812C51.5957 15.8566 53.3235 20.0278 53.3235 24.3771C53.3246 27.0015 52.6893 29.587 51.4721 31.9121H46.4445C47.8611 30.1242 48.7451 27.9733 48.9952 25.706C49.2453 23.4386 48.8512 21.1468 47.8583 19.0931C46.8653 17.0395 45.3137 15.3074 43.3813 14.0953C41.4489 12.8832 39.2141 12.2403 36.933 12.2403C34.6519 12.2403 32.4171 12.8832 30.4847 14.0953C28.5523 15.3074 27.0007 17.0395 26.0077 19.0931C25.0148 21.1468 24.6208 23.4386 24.8708 25.706C25.1209 27.9733 26.0049 30.1242 27.4215 31.9121H22.381C21.1624 29.5873 20.5257 27.0018 20.5253 24.3771Z" fill="#CF3427"/>
<path d="M68.2035 39.8181H5.6582V43.8057H68.2035V39.8181Z" fill="#CF3427"/>
<path d="M89.7632 22.6596C89.7632 24.8562 88.2485 26.0387 85.7627 26.0387H80.748V14.1148H85.3916C87.8773 14.1148 89.4094 15.2239 89.4094 17.3601C89.4386 17.8913 89.3035 18.4186 89.0224 18.8704C88.7414 19.3221 88.328 19.6762 87.8385 19.8847C88.4093 20.0878 88.902 20.4647 89.2473 20.9625C89.5925 21.4603 89.773 22.0539 89.7632 22.6596ZM85.1974 18.9914C86.3453 18.9914 86.9452 18.5598 86.9452 17.6104C86.9452 16.661 86.3453 16.2726 85.1974 16.2726H83.1993V18.9914H85.1974ZM85.5297 23.8852C86.656 23.8852 87.2559 23.3199 87.2559 22.4266C87.2559 21.5332 86.656 20.9722 85.5297 20.9722H83.1993V23.8852H85.5297Z" fill="#796E65"/>
<path d="M92.3698 26.0387V14.1148H97.3413C99.8659 14.1148 101.536 15.4742 101.536 17.9427C101.587 18.7502 101.346 19.5491 100.857 20.1939C100.369 20.8387 99.6646 21.2865 98.8734 21.4556L101.959 26.0387H99.0891L96.1977 21.6498H94.9031V26.0387H92.3698ZM97.1687 19.5653C98.39 19.5653 99.0115 18.9266 99.0115 17.9556C99.0115 16.9846 98.39 16.3028 97.1687 16.3028H94.916V19.5653H97.1687Z" fill="#796E65"/>
<path d="M112.407 26.0387L111.388 23.2422H106.93L105.903 26.0387H103.34L107.901 14.1148H110.465L115.009 26.0387H112.407ZM109.144 17.1832L107.729 21.0887H110.581L109.144 17.1832Z" fill="#796E65"/>
<path d="M117.05 14.1148H119.64V26.0387H117.05V14.1148Z" fill="#796E65"/>
<path d="M125.198 18.2146V26.0387H122.73V14.1148H125.138L130.316 21.5332V14.1148H132.781V26.0387H130.744L125.198 18.2146Z" fill="#796E65"/>
<path d="M147.104 26.0387L146.073 23.2422H141.628L140.596 26.0387H138.033L142.599 14.1148H145.162L149.706 26.0387H147.104ZM143.841 17.1832L142.422 21.0887H145.278L143.841 17.1832Z" fill="#796E65"/>
<path d="M154.233 18.2146V26.0387H151.769V14.1148H154.177L159.356 21.5332V14.1148H161.824V26.0387H159.783L154.233 18.2146Z" fill="#796E65"/>
<path d="M167.491 16.3503V18.8533H172.626V21.0499H167.491V23.786H173.122V26.0387H164.966V14.1148H173.122V16.3503H167.491Z" fill="#796E65"/>
<path d="M175.738 21.2225V14.1148H178.301V20.9679C178.301 22.966 179.164 23.9197 180.709 23.9197C182.254 23.9197 183.135 22.966 183.135 20.9679V14.1148H185.698V21.2441C185.698 24.5067 183.717 26.2329 180.709 26.2329C177.701 26.2329 175.738 24.5067 175.738 21.2225Z" fill="#796E65"/>
<path d="M188.719 26.0387V14.1148H193.69C196.215 14.1148 197.885 15.4742 197.885 17.9427C197.935 18.75 197.694 19.5485 197.205 20.1931C196.717 20.8377 196.013 21.2856 195.222 21.4556L198.312 26.0387H195.438L192.547 21.6498H191.252V26.0387H188.719ZM193.513 19.5653C194.739 19.5653 195.36 18.9266 195.36 17.9556C195.36 16.9846 194.739 16.3028 193.513 16.3028H191.261V19.5653H193.513Z" fill="#796E65"/>
<path d="M205.847 21.5548V26.0387H203.31V21.5548L199.02 14.1148H201.812L204.648 19.1079L207.483 14.1148H210.184L205.847 21.5548Z" fill="#796E65"/>
<path d="M211.509 22.72C212.606 23.549 213.937 24.0111 215.311 24.0406C216.498 24.0406 217.409 23.691 217.409 22.7761C217.409 22.0209 216.925 21.749 216.049 21.4383L214.301 20.8557C212.498 20.2731 211.354 19.3582 211.354 17.3774C211.354 15.1462 213.253 13.9249 215.605 13.9249C216.877 13.8952 218.133 14.2178 219.234 14.8571V17.3428C218.226 16.5484 216.983 16.1112 215.7 16.1C214.651 16.1 213.857 16.4495 213.857 17.2479C213.857 17.9643 214.323 18.2362 215.152 18.508L216.994 19.1295C219.014 19.8113 219.946 20.8989 219.946 22.6855C219.946 25.0547 217.926 26.2372 215.385 26.2372C214.025 26.2565 212.685 25.906 211.509 25.223V22.72Z" fill="#796E65"/>
<path d="M224.982 26.0387H222.475V14.1148H224.887L228.439 19.6732L231.991 14.1364H234.343V26.0387H231.818V18.4476L228.456 23.4752H228.379L224.982 18.4476V26.0387Z" fill="#796E65"/>
<path d="M87.8428 31.9035V33.0514H81.9996V37.3411H87.5105V38.4459H81.9996V43.8403H80.748V31.9035H87.8428Z" fill="#796E65"/>
<path d="M95.067 44C91.9987 44 89.746 41.4754 89.746 37.8633C89.746 34.2512 91.9987 31.7266 95.067 31.7266C98.1354 31.7266 100.41 34.2339 100.41 37.8633C100.41 41.4927 98.1742 44 95.067 44ZM95.067 32.8745C92.659 32.8745 91.0277 34.933 91.0277 37.8633C91.0277 40.7935 92.659 42.8348 95.067 42.8348C97.4751 42.8348 99.1452 40.7979 99.1452 37.8633C99.1452 34.9287 97.4967 32.8745 95.067 32.8745Z" fill="#796E65"/>
<path d="M102.986 39.0932V31.9035H104.251V38.9508C104.251 41.6135 105.61 42.8348 107.608 42.8348C109.606 42.8348 110.97 41.5919 110.97 38.9508V31.9035H112.252V39.0932C112.252 42.3774 110.271 43.9871 107.63 43.9871C104.988 43.9871 102.986 42.3903 102.986 39.0932Z" fill="#796E65"/>
<path d="M116.744 33.9146V43.8403H115.518V31.9035H116.722L123.403 41.3977V31.9035H124.607V43.8403H123.714L116.744 33.9146Z" fill="#796E65"/>
<path d="M131.766 31.9035C135.219 31.9035 137.549 34.2339 137.549 37.8633C137.549 41.4927 135.241 43.8403 131.766 43.8403H128.038V31.9035H131.766ZM131.766 42.6924C134.58 42.6924 136.289 40.7892 136.289 37.8762C136.289 34.9632 134.563 33.0428 131.766 33.0428H129.298V42.6794L131.766 42.6924Z" fill="#796E65"/>
<path d="M147.907 43.8403L146.448 40.0728H141.343L139.906 43.8403H138.611L143.324 31.9035H144.489L149.188 43.8403H147.907ZM143.885 33.483L141.77 38.9379H146.003L143.885 33.483Z" fill="#796E65"/>
<path d="M158.661 33.0514H154.41V43.8403H153.15V33.0514H148.895V31.9035H158.661V33.0514Z" fill="#796E65"/>
<path d="M161.017 31.9035H162.312V43.8403H161.017V31.9035Z" fill="#796E65"/>
<path d="M170.36 44C167.292 44 165.039 41.4754 165.039 37.8633C165.039 34.2512 167.292 31.7266 170.36 31.7266C173.429 31.7266 175.69 34.2339 175.69 37.8633C175.69 41.4927 173.468 44 170.36 44ZM170.36 32.8745C167.952 32.8745 166.321 34.933 166.321 37.8633C166.321 40.7935 167.952 42.8348 170.36 42.8348C172.769 42.8348 174.439 40.8194 174.439 37.8633C174.439 34.9071 172.786 32.8745 170.36 32.8745Z" fill="#796E65"/>
<path d="M179.678 33.9146V43.8403H178.456V31.9035H179.66L186.341 41.3977V31.9035H187.545V43.8403H186.652L179.678 33.9146Z" fill="#796E65"/>
</svg>
