<svg width="160" height="64" viewBox="0 0 160 64" fill="none" xmlns="http://www.w3.org/2000/svg">
<path d="M145.865 38.4914L135.185 19.995C135.097 19.842 134.934 19.7477 134.758 19.7478H127.764C127.695 19.7478 127.64 19.7736 127.58 19.7995C127.559 19.7962 127.539 19.7833 127.518 19.7833H123.663C123.664 19.7461 123.666 18.7766 123.669 18.741C123.947 13.7929 128.275 12.5389 129.75 12.2755C129.984 12.2336 130.154 12.0286 130.151 11.7907L130.143 6.63577C130.143 6.50056 130.087 6.37141 129.988 6.27876C129.89 6.1861 129.757 6.13812 129.622 6.14613C126.82 6.3255 117.118 8.51353 116.607 18.741L116.601 19.7817H113.634C113.52 19.7821 113.412 19.8277 113.332 19.9083C113.252 19.9889 113.207 20.098 113.207 20.2115V25.2081C113.207 25.4457 113.398 25.6396 113.634 25.6396H116.139C116.373 25.6396 116.565 25.8319 116.565 26.0662V47.7929C116.565 48.0596 116.78 48.2745 117.045 48.2745H123.138C123.274 48.2729 123.404 48.2122 123.493 48.1081C123.601 48.0181 123.664 47.8851 123.666 47.7445V26.084C123.666 25.9547 123.719 25.8367 123.803 25.7495C123.886 25.6801 123.99 25.6413 124.097 25.6396L129.978 25.5604C130.156 25.5586 130.321 25.6532 130.409 25.8077L137.733 38.493C137.819 38.6421 137.821 38.8249 137.739 38.9762L128.027 57.0444C127.945 57.1973 127.949 57.3821 128.038 57.5313C128.126 57.6805 128.287 57.7724 128.461 57.7732H135.467C135.648 57.7732 135.813 57.6735 135.899 57.5146L145.869 38.9762C145.952 38.8248 145.95 38.6412 145.865 38.4914ZM155.938 20.4297L148.29 34.6632C148.205 34.8187 148.044 34.9169 147.867 34.9203C147.689 34.9236 147.524 34.8316 147.434 34.6793L143.765 28.4126C143.678 28.2636 143.675 28.0796 143.757 27.9278L148.044 19.9902C148.127 19.8328 148.29 19.7336 148.468 19.7316C149.597 19.7187 153.755 19.6831 155.517 19.7025C155.689 19.7048 155.847 19.7974 155.934 19.9464C156.02 20.0955 156.022 20.279 155.938 20.4297ZM104.457 30.9174H90.7971C90.6294 30.9194 90.4729 30.8335 90.3846 30.691C90.2963 30.5484 90.2891 30.3701 90.3656 30.2209C91.0896 28.794 93.1774 25.6816 97.6342 25.6816C102.01 25.6816 104.137 28.7891 104.885 30.216C104.962 30.3653 104.955 30.5436 104.868 30.6868C104.78 30.8299 104.625 30.9173 104.457 30.9174ZM97.6617 18.6586C89.3944 18.6586 82.693 25.3972 82.693 33.7081C82.693 42.0207 89.3944 48.7577 97.6617 48.7577C102.125 48.7577 107.891 46.56 111.079 40.3401C111.153 40.19 111.145 40.0123 111.057 39.87C110.969 39.7277 110.813 39.6409 110.646 39.6404H103.318C103.197 39.6411 103.081 39.6886 102.994 39.7729C102.447 40.2955 101.822 40.73 101.141 41.0608C100.187 41.523 99.0321 41.8235 97.6326 41.8235C93.2259 41.8235 91.0992 38.931 90.5013 37.3958C90.4473 37.2485 90.4689 37.084 90.5592 36.9557C90.6494 36.8274 90.7969 36.7515 90.9538 36.7526L111.884 36.7559C112.125 36.7489 112.326 36.5696 112.361 36.3309C112.433 35.7443 112.532 35.1512 112.564 34.5468C112.82 30.4306 111.366 26.3912 108.544 23.3833C105.723 20.3753 101.784 18.6658 97.6601 18.6586H97.6617ZM66.774 41.8171C64.0008 42.4613 61.0916 41.6264 59.082 39.6097C57.0689 37.5893 56.2368 34.6754 56.8794 31.8966C57.5516 28.8266 59.9455 26.4265 63.0137 25.7462C65.7869 25.1017 68.6962 25.9367 70.7057 27.9537C72.719 29.9739 73.5512 32.8879 72.9083 35.6667C72.2357 38.7365 69.842 41.1365 66.774 41.8171ZM71.3682 20.0693C64.6571 17.1363 58.977 20.0516 57.1703 21.2183C56.2234 21.8324 56.2654 19.8286 55.3604 19.8286H50.0439C49.9163 19.8281 49.7938 19.8785 49.7035 19.9686C49.6131 20.0586 49.5623 20.1809 49.5623 20.3085V57.374C49.5623 57.6391 49.7772 57.8556 50.0423 57.8556H56.0795C56.2071 57.8556 56.3294 57.8048 56.4195 57.7145C56.5095 57.6241 56.5599 57.5016 56.5595 57.374V46.8137C56.5595 46.442 56.9618 46.2077 57.2802 46.3984C58.6118 47.2063 61.6724 48.7593 65.4344 48.7593C74.1768 48.7593 81.1901 41.1836 80.2916 32.236C79.7535 26.892 76.2759 22.217 71.3682 20.0693ZM21.2101 41.8171C18.4369 42.4613 15.5277 41.6264 13.5181 39.6097C11.5056 37.589 10.6741 34.6751 11.3171 31.8966C11.9893 28.8266 14.3831 26.4265 17.4513 25.7462C20.2246 25.1017 23.1339 25.9367 25.1434 27.9537C27.1561 29.9742 27.9877 32.8882 27.3443 35.6667C26.6722 38.7367 24.2783 41.1369 21.2101 41.8171ZM25.8059 20.0693C19.0948 17.1363 13.4163 20.0516 11.6064 21.2183C10.661 21.8324 10.7014 19.8286 9.79649 19.8286H4.47994C4.21488 19.8286 4 20.0434 4 20.3085V57.374C4 57.6391 4.21492 57.8556 4.47994 57.8556H10.5156C10.6432 57.8556 10.7655 57.8048 10.8555 57.7145C10.9456 57.6241 10.996 57.5016 10.9955 57.374V46.8137C10.9955 46.442 11.3979 46.2077 11.7163 46.3984C13.0494 47.2063 16.1101 48.7593 19.8705 48.7593C28.6161 48.7593 35.6262 41.1836 34.7277 32.236C34.1896 26.892 30.7136 22.217 25.8059 20.0693ZM44.737 19.8302H38.6884C38.5615 19.8293 38.4394 19.8792 38.3493 19.9687C38.2592 20.0581 38.2085 20.1799 38.2085 20.3069V47.9416C38.2085 48.2082 38.425 48.4232 38.6901 48.4232H44.7386C45.004 48.4223 45.2186 48.2069 45.2186 47.9416V20.3101C45.2177 20.0445 45.0026 19.8294 44.737 19.8286" fill="black"/>
</svg>
