<svg width="160" height="64" viewBox="0 0 160 64" fill="none" xmlns="http://www.w3.org/2000/svg">
<path d="M41.6785 57.9332C41.3817 55.9868 39.6991 54.469 37.6533 54.469C35.6077 54.469 33.925 55.9537 33.628 57.9332H41.6785Z" fill="black"/>
<path d="M32.6052 57.9332C32.3084 55.9868 30.6257 54.469 28.58 54.469C26.5342 54.469 24.8517 55.9537 24.5547 57.9332H32.6052Z" fill="black"/>
<path d="M27.3264 51.0336V56.7457H31.7145V42.3606H27.3264V48.2712C27.0563 48.6673 26.8975 49.1435 26.8975 49.6524C26.8975 50.1613 27.0563 50.6375 27.3264 51.0336ZM29.3719 48.1344C28.5471 48.1344 27.8544 48.7943 27.8544 49.6521C27.8544 50.51 28.5143 51.1696 29.3719 51.1696C30.2298 51.1696 30.8897 50.51 30.8897 49.6521C30.8897 48.7943 30.1968 48.1344 29.3719 48.1344Z" fill="#ED1C24"/>
<path d="M38.8079 48.2239V42.3606H34.4197V56.7457H38.8079V51.0809C39.098 50.6757 39.2698 50.1817 39.2698 49.6524C39.2698 49.1231 39.098 48.6291 38.8079 48.2239ZM36.7953 48.1344C35.9705 48.1344 35.2776 48.7943 35.2776 49.6521C35.2776 50.51 35.9375 51.1696 36.7953 51.1696C37.6532 51.1696 38.3129 50.51 38.3129 49.6521C38.3129 48.7943 37.6202 48.1344 36.7953 48.1344Z" fill="#ED1C24"/>
<path d="M46.4187 28.2045L47.2209 15.801H48.5077L49.1268 28.2436C49.5959 28.6364 49.8933 29.2269 49.8933 29.8891C49.8933 31.0431 48.9901 31.9793 47.8491 32.0314C46.3475 33.7731 43.7174 36.1872 39.7975 37.6426V31.5718C39.7975 31.5718 43.4261 32.0642 45.6065 29.9938C45.6049 29.9591 45.6041 29.9242 45.6041 29.8891C45.6041 29.2046 45.9219 28.5967 46.4187 28.2045ZM47.7487 28.7675C47.1218 28.7675 46.594 29.2952 46.594 29.9221C46.594 30.549 47.1218 31.0768 47.7487 31.0768C48.3756 31.0768 48.9033 30.549 48.9033 29.9221C48.9033 29.2952 48.4086 28.7675 47.7487 28.7675Z" fill="#ED1C24"/>
<path d="M19.7149 28.2045L18.9127 15.801H17.6259L17.039 28.2171C16.5514 28.6096 16.2402 29.2119 16.2402 29.8891C16.2402 31.0432 17.1439 31.9794 18.2847 32.0315C19.7863 33.7731 22.4164 36.1872 26.3363 37.6426V31.5718C26.3363 31.5718 22.7074 32.0643 20.527 29.9936C20.5287 29.959 20.5295 29.9241 20.5295 29.8891C20.5295 29.2046 20.2116 28.5967 19.7149 28.2045ZM18.3849 28.7675C17.758 28.7675 17.2302 29.2952 17.2302 29.9221C17.2302 30.549 17.758 31.0768 18.3849 31.0768C19.0118 31.0768 19.5395 30.549 19.5395 29.9221C19.5395 29.2952 19.0118 28.7675 18.3849 28.7675Z" fill="#ED1C24"/>
<path d="M19.8695 11.3469V14.9763H16.8672V11.3469C15.9433 11.8747 15.3164 12.8647 15.3164 13.9863C15.3164 15.669 16.6693 17.0216 18.3519 17.0216C20.0346 17.0216 21.3872 15.669 21.3872 13.9863C21.4202 12.8647 20.7934 11.8747 19.8695 11.3469Z" fill="black"/>
<path d="M46.4622 11.3469V14.9763H49.4645V11.3469C50.3884 11.8747 51.0153 12.8647 51.0153 13.9863C51.0153 15.669 49.6627 17.0216 47.98 17.0216C46.2973 17.0216 44.9445 15.669 44.9445 13.9863C44.9115 12.8647 45.5383 11.8747 46.4622 11.3469Z" fill="black"/>
<path d="M26.6345 30.6309L26.6995 23.7525C26.7325 22.0037 27.4252 20.3871 28.679 19.1664C29.9327 17.9457 31.5824 17.2858 33.3308 17.3188C35.0796 17.3518 36.6962 18.0445 37.9169 19.2983C39.1376 20.552 39.7976 22.2017 39.7645 23.9504L39.6802 30.5369C41.066 32.0794 41.9092 34.1193 41.9092 36.3561C41.9092 41.1666 38.0095 45.0663 33.199 45.0663C28.3885 45.0663 24.4888 41.1666 24.4888 36.3561C24.4888 34.1644 25.2982 32.1618 26.6345 30.6309ZM37.4591 28.757L37.521 23.9174C37.521 22.7627 37.0921 21.6739 36.3003 20.8491C35.5085 20.0243 34.4197 19.5623 33.2648 19.5623C32.1099 19.5623 31.0213 19.9912 30.1965 20.783C29.3716 21.5748 28.9097 22.6636 28.9097 23.8183L28.8389 28.814C30.1212 28.0711 31.6104 27.6459 33.199 27.6459C34.7464 27.6459 36.1996 28.0494 37.4591 28.757H37.4591ZM30.9885 26.3919C31.5169 26.3919 31.9452 25.9635 31.9452 25.4352C31.9452 24.9068 31.5169 24.4785 30.9885 24.4785C30.4601 24.4785 30.0318 24.9068 30.0318 25.4352C30.0318 25.9635 30.4601 26.3919 30.9885 26.3919ZM35.4755 26.3919C36.0039 26.3919 36.4322 25.9635 36.4322 25.4352C36.4322 24.9068 36.0039 24.4785 35.4755 24.4785C34.9471 24.4785 34.5188 24.9068 34.5188 25.4352C34.5188 25.9635 34.9471 26.3919 35.4755 26.3919Z" fill="black"/>
<path d="M32.407 34.9374L32.077 41.1728H34.5187L34.0237 34.9043C34.6175 34.6073 35.0134 34.0134 35.0134 33.2875C35.0134 32.2977 34.1886 31.4729 33.1988 31.4729C32.2091 31.4729 31.3843 32.2977 31.3843 33.2875C31.4173 34.0465 31.8132 34.6401 32.407 34.9374Z" fill="#ED1C24"/>
<path d="M12.2482 9.33418C11.3573 8.01461 10.1036 7.25561 8.78403 7.25561C7.43118 7.25561 6.21046 7.98133 5.28654 9.30115C4.46196 10.5221 4 12.1387 4 13.8214C4 15.5038 4.46196 17.1207 5.28678 18.3414C6.17767 19.661 7.43142 20.387 8.75099 20.387C10.0708 20.387 11.3246 19.6612 12.2485 18.3414C12.8423 17.4836 13.2382 16.4608 13.4031 15.3389C13.4362 15.141 13.6341 14.9761 13.8321 14.9761L66.1263 15.0091C66.3573 15.0091 66.5552 14.8112 66.5882 14.5802V13.1943C66.5882 12.9633 66.3903 12.7654 66.1593 12.7326H64.5757C64.3447 12.7326 64.1468 12.5346 64.1468 12.2706V6.39775C64.1468 6.16677 63.9488 5.96882 63.7179 5.93579H57.1193C56.8883 5.93579 56.6904 6.13374 56.6573 6.36472V12.2376C56.6573 12.4686 56.4594 12.6665 56.1954 12.6665H55.7995C55.5685 12.6665 55.3705 12.4686 55.3705 12.2048V7.71782C55.3705 7.48684 55.1726 7.28889 54.9416 7.25586H53.9188C53.6879 7.25586 53.4899 7.4538 53.4569 7.68478V12.1718C53.4569 12.4027 53.2589 12.6007 52.9952 12.6007H13.8651C13.6341 12.6007 13.4692 12.4358 13.4362 12.2378C13.2049 11.2148 12.8423 10.159 12.2482 9.33418ZM8.75099 18.5394C7.16741 18.5394 5.81456 16.3617 5.81456 13.8214C5.81456 11.2809 7.16741 9.1032 8.78403 9.1032C10.4006 9.1032 11.7205 11.2809 11.7205 13.8214C11.7205 16.3619 10.3346 18.5394 8.75099 18.5394Z" fill="#ED1C24"/>
<path d="M20.5626 15.8006C20.3317 15.4706 20.1007 15.3056 19.8697 14.9758H16.8672V11.3464C15.9433 11.8742 15.3164 12.8642 15.3164 13.9858C15.3164 15.6685 16.6693 17.0211 18.3519 17.0211C19.2756 17.0211 20.1007 16.5922 20.6615 15.9653C20.6615 15.8997 20.5954 15.8667 20.5626 15.8006Z" fill="black"/>
<path d="M45.8027 15.8006C46.0337 15.4706 46.0995 15.3056 46.3305 14.9758H46.4954H49.4977V11.3464C50.4216 11.8742 51.0485 12.8642 51.0485 13.9858C51.0485 15.6685 49.6958 17.0211 48.0132 17.0211C47.0892 17.0211 46.2644 16.5922 45.7036 15.9653C45.7039 15.8997 45.7366 15.8667 45.8027 15.8006Z" fill="black"/>
<path d="M53.3253 54.3702C54.1831 54.3702 54.8761 54.1064 55.3708 53.6112C55.8986 53.1164 56.1296 52.4565 56.1296 51.6317H60.4517L60.4847 51.7305C60.5177 53.5121 59.8578 55.0298 58.4719 56.2505C57.0863 57.4713 55.3376 58.0651 53.292 58.0651C50.6526 58.0651 48.6071 57.2405 47.1554 55.5576C45.7367 53.8752 45.0107 51.7305 45.0107 49.0909V48.5962C45.0107 45.9896 45.7367 43.8452 47.2212 42.1294C48.7059 40.447 50.7845 39.5889 53.523 39.5889C54.9417 39.5889 56.2284 39.7869 57.3831 40.2155C58.505 40.6447 59.4617 41.2383 60.2204 42.0303L60.2865 46.7813H56.3934L55.6016 44.0101C55.3706 43.8121 55.0738 43.6139 54.7109 43.482C54.3481 43.3502 53.9519 43.2841 53.5232 43.2841C52.1704 43.2841 51.2137 43.7791 50.6529 44.7688C50.0918 45.7586 49.828 47.0123 49.828 48.5631V49.0579C49.828 50.6417 50.0918 51.9285 50.5868 52.8852C51.1476 53.8754 52.0385 54.3702 53.3253 54.3702ZM70.8448 58.0323C68.2712 58.0323 66.2257 57.2077 64.7082 55.5579C63.1904 53.9082 62.3986 51.8296 62.3986 49.2891V48.6294C62.3986 45.9898 63.1246 43.8124 64.5763 42.0967C66.028 40.3812 67.9747 39.5561 70.4161 39.5561C72.8245 39.5561 74.6721 40.2819 75.9919 41.7338C77.3115 43.1855 77.9714 45.1322 77.9714 47.6067V50.213H67.3806L67.3475 50.3119C67.4466 51.4996 67.8425 52.4565 68.5355 53.2153C69.2284 53.9743 70.1851 54.3371 71.3728 54.3371C72.4284 54.3371 73.3193 54.2383 74.0122 54.0073C74.7051 53.8094 75.4639 53.4462 76.3218 52.9845L77.6085 55.9537C76.8826 56.5478 75.9259 57.0096 74.7712 57.4057C73.583 57.8344 72.2962 58.0323 70.8448 58.0323ZM70.4159 43.3174C69.525 43.3174 68.8323 43.6472 68.3042 44.3402C67.7762 45.0331 67.4794 45.9237 67.3473 47.0126L67.3803 47.0789H73.2862V46.6497C73.2862 45.6269 73.0552 44.8351 72.5605 44.2083C72.0985 43.6142 71.4056 43.3174 70.4159 43.3174ZM80.7757 54.8319L83.0853 54.3371V43.3174L80.5447 42.8226V39.9192H87.5394L87.7374 42.5256C88.1663 41.6019 88.6943 40.8759 89.354 40.3812C90.0139 39.8532 90.7729 39.6222 91.6305 39.6222C91.8946 39.6222 92.1586 39.6552 92.4223 39.6883C92.6861 39.7213 92.9173 39.7871 93.1153 39.8201V43.4493L91.6963 43.4823C90.4426 43.4823 89.321 43.9443 88.9251 44.2083C88.4962 44.5051 88.1003 45.198 87.8362 45.693V54.3371L90.1458 54.8319V57.7025H80.7429V54.8319H80.7757ZM102.749 35.5969V39.8201H105.884V43.4493H102.749V52.3574C102.749 53.0503 102.881 53.5451 103.178 53.8424C103.475 54.1392 103.838 54.2713 104.333 54.2713C104.663 54.2713 104.96 54.2713 105.191 54.2383C105.422 54.2053 105.719 54.1722 106.015 54.1064L106.412 57.5706C105.884 57.7355 105.356 57.8674 104.828 57.9335C104.3 57.9995 103.739 58.0654 103.112 58.0654C101.462 58.0654 100.176 57.6036 99.2849 56.7128C98.394 55.7888 97.9323 54.3702 97.9323 52.3907V43.4825H95.326V39.8534H97.9323V35.5972H102.749V35.5969Z" fill="black"/>
<path d="M125.019 49.3224C125.019 51.9618 124.425 54.0734 123.238 55.69C122.05 57.2738 120.334 58.0653 118.124 58.0653C117.068 58.0653 116.177 57.8344 115.418 57.4057C114.659 56.9765 113.999 56.3499 113.472 55.5251L113.142 57.7027H109.018V35.4653L106.477 34.9705V32.0671H113.801V41.8001C114.329 41.0741 114.923 40.5464 115.649 40.1502C116.375 39.7543 117.2 39.5894 118.123 39.5894C120.367 39.5894 122.083 40.4473 123.271 42.1299C124.458 43.8456 125.052 46.0891 125.052 48.9265V49.3226H125.019V49.3224ZM120.235 48.9593C120.235 47.2438 119.972 45.8579 119.476 44.8354C118.982 43.8126 118.091 43.3176 116.87 43.3176C116.111 43.3176 115.484 43.4825 114.989 43.7796C114.462 44.0764 114.065 44.5383 113.769 45.1322V52.6214C114.065 53.1825 114.462 53.5784 114.989 53.8754C115.517 54.1722 116.144 54.3043 116.903 54.3043C118.124 54.3043 119.015 53.8754 119.509 52.9848C120.004 52.1269 120.235 50.8732 120.235 49.2896V48.9593ZM127.032 48.6622C127.032 46.0228 127.758 43.8452 129.242 42.1625C130.727 40.48 132.773 39.6219 135.379 39.6219C138.019 39.6219 140.064 40.4798 141.549 42.1625C143.034 43.8452 143.759 46.0228 143.759 48.6952V49.0251C143.759 51.6977 143.033 53.8752 141.549 55.5578C140.064 57.2405 138.019 58.0653 135.412 58.0653C132.773 58.0653 130.727 57.2408 129.242 55.5578C127.758 53.8754 127.032 51.6977 127.032 49.0251V48.6622ZM131.816 48.992C131.816 50.6089 132.113 51.8954 132.674 52.8854C133.235 53.8752 134.158 54.3702 135.445 54.3702C136.666 54.3702 137.59 53.8754 138.151 52.8854C138.712 51.8957 139.009 50.6089 139.009 48.992V48.6622C139.009 47.0786 138.712 45.7916 138.151 44.8019C137.557 43.8124 136.666 43.3171 135.412 43.3171C134.158 43.3171 133.268 43.8121 132.674 44.8019C132.113 45.7916 131.816 47.0786 131.816 48.6622V48.992H131.816ZM152.338 35.5969V39.952H155.472V43.3174H152.338V52.3574C152.338 53.0503 152.47 53.5451 152.767 53.8424C153.064 54.1392 153.427 54.2713 153.921 54.2713C154.251 54.2713 154.548 54.2713 154.779 54.2383C155.01 54.2052 155.307 54.1722 155.604 54.1064L156 57.5706C155.472 57.7355 154.944 57.8674 154.416 57.9335C153.888 57.9995 153.328 58.0653 152.701 58.0653C151.051 58.0653 149.764 57.6036 148.874 56.7127C147.983 55.7888 147.521 54.3702 147.521 52.3907V43.3176H144.914V39.9523H147.521V35.5972H152.338V35.5969Z" fill="#ED1C24"/>
</svg>
