<svg width="160" height="136" viewBox="0 0 160 136" fill="none" xmlns="http://www.w3.org/2000/svg">
<path d="M57.2743 66.6009C57.2751 65.9038 57.4824 65.2226 57.8701 64.6432C58.2578 64.0639 58.8085 63.6124 59.4526 63.3458C60.0967 63.0792 60.8054 63.0095 61.4891 63.1454C62.1728 63.2813 62.801 63.6167 63.2942 64.1094C63.7874 64.602 64.1235 65.2298 64.2602 65.9134C64.3969 66.597 64.3279 67.3057 64.062 67.9501C63.7962 68.5945 63.3453 69.1457 62.7664 69.5341C62.1875 69.9224 61.5065 70.1305 60.8094 70.132C59.8725 70.132 58.9739 69.7601 58.3111 69.098C57.6482 68.4359 57.2753 67.5378 57.2743 66.6009ZM63.769 66.6009C63.7834 66.2089 63.7168 65.8181 63.5733 65.453C63.4298 65.0879 63.2126 64.7564 62.9352 64.479C62.6579 64.2016 62.3263 63.9844 61.9612 63.8409C61.5961 63.6975 61.2053 63.6308 60.8133 63.6452C59.0871 63.6452 57.8418 64.8826 57.8418 66.6009C57.8418 68.335 59.0832 69.5724 60.8133 69.5724C62.5276 69.5724 63.769 68.335 63.769 66.6009ZM60.0054 68.599H59.4891V64.5634H61.2232C62.2754 64.5634 62.6301 64.9575 62.6301 65.6787C62.6301 66.4551 62.0902 66.7467 61.3847 66.8059L62.5828 68.599H62.0035L60.8685 66.8059H60.0054V68.599ZM60.7187 66.3369C61.2823 66.3369 62.0665 66.4315 62.0665 65.6748C62.0665 65.1112 61.5976 65.0364 61.1089 65.0364H60.0054V66.3408H60.7187V66.3369ZM49.6642 69.8483V52.24H67.2726V24.0855H49.6642V6.48114H21.6083V24.0855H4V52.24H21.6083V69.8483H49.6642Z" fill="#00ACEC"/>
<path fill-rule="evenodd" clip-rule="evenodd" d="M35.6875 23.0338C37.7095 23.0706 38.3306 25.3721 37.4314 26.5644C36.6077 27.6285 36.4501 27.9438 36.4934 28.9409C36.5289 29.7842 37.3092 30.8168 39.0708 30.8522H51.4534C50.0523 27.8536 47.8249 25.3168 45.0327 23.5396C42.2405 21.7624 38.9993 20.8184 35.6895 20.8185L35.6894 20.8224C32.3795 20.8219 29.1381 21.7656 26.3459 23.5429C23.5536 25.3202 21.3263 27.8573 19.9255 30.8562H32.3042C34.0658 30.8207 34.8461 29.7842 34.8816 28.9409C34.9249 27.9438 34.7673 27.6285 33.9436 26.5644C33.0445 25.3721 33.6655 23.0706 35.6875 23.0338ZM39.8511 23.8215C40.7339 25.2954 40.0167 27.2068 39.1851 28.1093C39.0275 28.2748 39.1063 28.4364 39.2442 28.4798H47.071C45.1711 26.2551 42.6611 24.6357 39.8511 23.8215ZM31.5278 23.8215C30.641 25.2954 31.3583 27.2068 32.1938 28.1133C32.3475 28.2748 32.2726 28.4364 32.1307 28.4798H24.3079C26.2066 26.2537 28.717 24.634 31.5278 23.8215Z" fill="white"/>
<path d="M51.9688 32.0859L51.9697 32.0858L51.9658 32.0779L51.9688 32.0859Z" fill="white"/>
<path fill-rule="evenodd" clip-rule="evenodd" d="M51.9688 32.0859L40.2965 33.209C38.1092 33.5124 37.8491 35.6366 38.4363 36.9135L46.4287 51.9247L46.4168 51.9011C48.4945 50.2753 50.1743 48.1972 51.3283 45.8248C52.4824 43.4525 53.0805 40.8482 53.0771 38.2101C53.0771 36.0573 52.6841 33.9911 51.9688 32.0859ZM41.4039 35.4671L50.2396 34.6514C50.5155 35.7942 50.6613 36.9844 50.6613 38.2101C50.6613 41.9422 49.3016 45.3511 47.0513 47.9719L40.864 36.1529C40.7142 35.7864 40.7654 35.5144 41.4039 35.4671Z" fill="white"/>
<path fill-rule="evenodd" clip-rule="evenodd" d="M19.4053 32.0858L31.0785 33.209C33.2658 33.5124 33.5259 35.6366 32.9387 36.9135L24.9463 51.9286L24.9542 51.905C22.8772 50.2786 21.1979 48.2004 20.0439 45.8282C18.8899 43.456 18.2914 40.852 18.294 38.214C18.294 36.0583 18.6881 33.9893 19.4053 32.0818V32.0858ZM21.1393 34.6514L29.9711 35.4671C30.6095 35.5144 30.6568 35.7903 30.511 36.1529L24.3276 47.9719C21.9895 45.2577 20.7067 41.7925 20.7137 38.2101C20.7137 36.9844 20.8595 35.7942 21.1393 34.6514Z" fill="white"/>
<path d="M35.6893 55.6095C39.2244 55.6095 42.5072 54.5573 45.2541 52.7444V52.7563L36.7731 40.082C36.178 39.2662 35.2282 39.1993 34.6016 40.082L26.1206 52.7563V52.7444C28.8675 54.5573 32.1543 55.6095 35.6893 55.6095Z" fill="white"/>
<path d="M35.4412 42.9471C35.5792 42.7698 35.7683 42.7579 35.9339 42.9471L41.7823 51.8971C39.8634 52.7515 37.7861 53.192 35.6856 53.1897C33.585 53.1928 31.5075 52.7523 29.5889 51.8971L35.4412 42.9471C35.6028 42.7579 35.7959 42.7698 35.9339 42.9471H35.4412Z" fill="#00ACEC"/>
<path fill-rule="evenodd" clip-rule="evenodd" d="M119.575 64.6428C119.187 65.2223 118.979 65.9037 118.979 66.6009C118.98 67.5371 119.352 68.4347 120.014 69.0967C120.676 69.7587 121.573 70.131 122.51 70.1321C123.207 70.1313 123.888 69.9239 124.468 69.536C125.047 69.1481 125.499 68.5972 125.765 67.9529C126.032 67.3085 126.101 66.5996 125.965 65.9158C125.829 65.232 125.493 64.6038 125 64.1108C124.507 63.6177 123.879 63.2819 123.195 63.1457C122.511 63.0094 121.802 63.079 121.158 63.3454C120.513 63.6119 119.962 64.0634 119.575 64.6428ZM122.594 66.3387C123.133 66.3473 123.771 66.3574 123.771 65.6748C123.771 65.1112 123.302 65.0364 122.813 65.0364H121.706V66.3408H122.423V66.3369C122.478 66.3369 122.535 66.3378 122.594 66.3387ZM125.277 65.4521C125.421 65.8175 125.488 66.2086 125.473 66.6009C125.489 66.9943 125.423 67.3866 125.28 67.7533C125.137 68.12 124.919 68.4533 124.641 68.7322C124.364 69.0111 124.031 69.2297 123.665 69.3742C123.299 69.5188 122.907 69.5863 122.514 69.5724C120.787 69.5724 119.546 68.335 119.546 66.6009C119.532 66.208 119.6 65.8165 119.744 65.4509C119.888 65.0852 120.107 64.7533 120.385 64.4758C120.664 64.1984 120.996 63.9814 121.363 63.8385C121.729 63.6956 122.121 63.6298 122.514 63.6452C122.906 63.6303 123.297 63.6965 123.663 63.8397C124.028 63.9829 124.36 64.2001 124.638 64.4775C124.916 64.7549 125.134 65.0867 125.277 65.4521ZM121.706 68.599H121.193V64.5634H122.927C123.98 64.5634 124.334 64.9575 124.334 65.6787C124.334 66.4551 123.794 66.7468 123.089 66.8059L124.287 68.599H123.708L122.573 66.8059H121.706V68.599Z" fill="#00ACEC"/>
<path d="M102.332 70.534C114.497 63.8146 121.867 53.1149 125.666 41.3707C129.607 29.1891 128.886 14.6429 124.326 5.65748C117.378 9.16102 110.458 11.0448 102.332 11.0685C94.2092 11.0921 87.281 9.12555 80.337 5.62201C75.7733 14.6035 75.06 29.1891 79.001 41.3707C82.8001 53.1149 90.1737 63.8146 102.332 70.534Z" fill="#00ACEC"/>
<path d="M104.282 21.6579C104.514 21.8252 104.526 21.8788 104.597 22.2007L104.606 22.2372C104.689 22.64 104.65 23.1372 104.614 23.5967C104.58 24.0229 104.549 24.4168 104.621 24.6728C104.7 24.8462 104.874 24.8422 105.004 24.7674C105.5 24.501 105.922 24.1451 106.339 23.7935C106.822 23.3856 107.299 22.9836 107.877 22.7338C108.389 22.5171 109.839 23.2461 109.512 24.3023C109.391 24.6924 109.293 24.7736 109.095 24.9357C109.041 24.98 108.98 25.0302 108.909 25.0945C108.623 25.3558 108.297 25.6207 107.95 25.9033C107.474 26.2898 106.958 26.7095 106.446 27.1989C106.268 27.3693 106.093 27.5173 105.923 27.6604C105.555 27.9708 105.214 28.2581 104.937 28.7005C104.85 28.8502 104.637 29.2561 104.637 29.2561C103.843 29.0916 103.04 29.0085 102.287 28.9306C101.615 28.8612 100.984 28.7959 100.436 28.6808L100.377 27.4039C100.377 27.4039 101.878 27.3881 102.032 26.4817C102.04 26.4344 102.005 26.1625 101.831 26.0364C101.594 25.8876 101.34 25.7672 101.074 25.6777C102.209 25.8551 103.214 26.2768 104.381 26.7891C104.456 26.663 104.263 26.2255 104.176 26.1309C104.018 25.9457 103.829 25.8117 103.423 25.7171C102.714 25.5359 100.996 25.323 100.996 25.323L102.446 25.2639C102.808 25.2048 103.183 25.0629 103.266 24.9368C103.369 24.7042 103.089 24.3703 102.794 24.019C102.695 23.9003 102.594 23.7794 102.505 23.6599C102.453 23.5883 102.395 23.4965 102.332 23.3953C102.186 23.1625 102.009 22.8804 101.792 22.6826C101.413 22.2294 100.263 21.7998 100.263 21.7998C100.263 21.7998 100.168 21.0274 100.357 20.653C100.495 20.3732 101.11 20.3456 101.307 20.4402C102.166 20.9288 103.136 21.4569 104.282 21.6579Z" fill="white"/>
<path d="M103.569 52.7563C103.575 52.6385 103.546 52.6017 103.501 52.5431L103.501 52.5429C103.487 52.525 103.471 52.5052 103.455 52.4804C103.218 52.2402 102.952 52.031 102.663 51.8577C102.336 51.6685 101.63 51.4479 101.63 51.4479C101.63 51.4479 101.74 56.1337 101.827 58.6283C101.847 59.1919 102.075 59.385 102.623 59.3732C103.266 59.3574 103.4 59.0934 103.404 58.7466C103.41 58.4379 103.431 57.7311 103.457 56.8761L103.457 56.876L103.457 56.8758L103.457 56.8753L103.457 56.8745L103.457 56.8743L103.457 56.8733C103.497 55.5453 103.548 53.8609 103.569 52.7563Z" fill="white"/>
<path d="M103.853 39.5303L103.983 34.7459C103.983 34.7459 103.301 34.4583 102.304 34.3952C100.992 34.3124 100.448 34.2533 100.448 34.2533L100.468 34.6632C100.468 34.6632 99.7622 34.8366 99.6636 35.0061C99.6573 35.0187 99.6484 35.0322 99.6386 35.0469L99.6385 35.0471C99.5874 35.124 99.5118 35.2378 99.6439 35.479C99.7225 35.6224 99.7975 35.7572 99.8692 35.8861L99.8693 35.8864L99.8694 35.8866C100.434 36.9014 100.792 37.5461 101.082 39.081C102.083 39.2111 102.785 39.3254 103.853 39.5303Z" fill="white"/>
<path d="M100.073 42.6516C97.7798 42.2772 96.1561 40.953 96.2941 38.7618C96.3778 37.4641 97.5948 36.96 98.6249 36.5333L98.6249 36.5333L98.6254 36.5331C98.7588 36.4778 98.8891 36.4239 99.0133 36.3696C99.3166 36.9047 99.5877 37.4575 99.8252 38.0248C100.03 38.6239 100.144 39.0022 100.144 39.0022C100.144 39.0022 99.6518 39.0889 99.6951 39.4948C99.7345 39.8535 100.129 40.0072 100.373 40.0387C100.568 40.0659 100.77 40.0937 100.977 40.1222C102.48 40.3284 104.25 40.5712 105.244 40.9175C105.997 41.1737 106.738 41.5993 107.163 42.1826C107.802 43.0614 107.948 43.7787 107.739 44.6851C107.557 45.4615 107.053 46.0881 106.241 46.5768C105.382 47.0931 104.495 47.1325 104.495 47.1325L104.566 44.5038C104.566 44.5038 104.759 44.4605 104.901 44.2831C105.031 44.1255 105.071 44.0073 105.031 43.7787C105.01 43.6787 104.964 43.5853 104.899 43.5064C104.834 43.4276 104.751 43.3655 104.657 43.3255C104.225 43.2279 103.454 43.1219 102.289 42.9618L102.289 42.9618L102.289 42.9618C101.666 42.8762 100.93 42.7751 100.073 42.6516Z" fill="white"/>
<path d="M103.636 48.3502L103.719 44.0073C103.232 43.9467 102.896 43.911 102.518 43.871L102.518 43.8709C102.208 43.8381 101.87 43.8022 101.398 43.7472L101.626 47.3256L103.636 48.3502Z" fill="white"/>
<path d="M99.9237 50.0212C98.3237 49.3237 97.7483 47.9286 98.3946 46.3994C98.6335 45.8434 99.2652 45.4586 99.6097 45.2488L99.6163 45.2447C99.9947 45.0201 100.558 44.8506 100.558 44.8506L100.724 47.0221C100.724 47.0221 100.515 47.097 100.456 47.2901C100.338 47.6724 100.684 47.8852 100.771 47.9246C100.99 48.0213 101.229 48.1242 101.48 48.2323C102.437 48.6441 103.572 49.1326 104.452 49.6508C105.89 50.4941 106.355 51.105 106.363 52.1139C106.376 52.4853 106.299 52.8543 106.14 53.1902C105.981 53.5261 105.744 53.8192 105.449 54.045C104.878 54.51 104.196 54.6755 104.196 54.6755L104.271 52.8193C104.271 52.8193 104.48 52.642 104.42 52.4055C104.322 52.0311 103.006 51.1483 102.296 50.8764C101.99 50.7589 101.644 50.6415 101.295 50.5228C100.813 50.3589 100.324 50.1927 99.9237 50.0212Z" fill="white"/>
<path fill-rule="evenodd" clip-rule="evenodd" d="M109.228 33.6819C109.008 32.539 107.841 31.4631 106.817 30.935C105.285 30.1464 103.671 29.9767 102.057 29.8071C100.864 29.6818 99.6718 29.5564 98.5129 29.1813C97.7325 28.9251 96.7946 28.5586 96.5818 27.6679C96.4438 27.1004 96.4517 26.5408 96.8616 26.2965C97.2544 26.0652 97.5845 26.2136 98.026 26.412C98.2843 26.5281 98.5808 26.6614 98.9503 26.7457C99.5809 26.8955 100.263 26.8797 100.755 26.73C100.783 26.7217 100.811 26.7134 100.841 26.7049C101.048 26.6448 101.288 26.5754 101.319 26.4305C101.319 26.2991 101.101 26.208 100.944 26.1425C100.899 26.1235 100.859 26.1066 100.83 26.0915C100.653 26.0016 100.492 25.9642 100.324 25.9253C100.198 25.8961 100.068 25.8659 99.9237 25.8117C99.5325 25.6626 99.1233 25.423 98.7189 25.1862L98.7188 25.1862C98.5569 25.0914 98.3958 24.9971 98.237 24.9092C98.7572 24.7989 99.6321 24.7752 100.156 24.8383C100.574 24.8816 101.859 24.8698 102.245 24.7674C102.328 24.7437 102.521 24.6728 102.438 24.527C102.357 24.39 102.245 24.3007 102.132 24.2104C102.038 24.1344 101.942 24.0578 101.863 23.9516C101.818 23.8905 101.774 23.8292 101.729 23.768L101.729 23.7677C101.406 23.3196 101.092 22.8832 100.558 22.6786C98.8084 22.0087 96.8576 21.8392 95.1197 22.7417C93.9909 23.3497 93.1375 24.3666 92.7344 25.5837C92.3314 26.8009 92.4093 28.1261 92.9521 29.2877C93.894 31.2188 95.695 32.204 97.8192 32.7439C98.8557 33.008 99.7543 33.1577 100.881 33.2799C101.149 33.3085 101.411 33.3337 101.669 33.3585L101.669 33.3586C102.653 33.4534 103.576 33.5424 104.566 33.7922C104.834 33.8592 105.287 34.0523 105.414 34.3243C105.638 34.8129 105.504 35.3923 104.905 35.6366C104.889 36.7283 104.751 39.0022 104.751 39.0022C104.751 39.0022 110.131 38.4426 109.228 33.6819ZM100.732 23.4629C100.618 23.4211 100.497 23.4049 100.377 23.4156C100.33 23.4493 100.286 23.4828 100.244 23.515L100.244 23.5151L100.244 23.5152L100.244 23.5153L100.244 23.5154C100.084 23.6379 99.9467 23.7431 99.7503 23.7742C99.4447 23.8256 99.3575 23.6782 99.2535 23.5025C99.1898 23.395 99.1199 23.2768 98.9897 23.187C98.9091 23.1308 98.8303 23.1238 98.7535 23.117C98.6312 23.1061 98.5139 23.0957 98.4025 22.8875C98.4333 22.8884 98.4647 22.8892 98.4967 22.89C99.2114 22.9086 100.222 22.9348 100.732 23.4629Z" fill="white"/>
<path d="M100.393 54.3051L100.378 54.3194C100.093 54.6046 99.5079 55.1887 99.6203 56.3938C99.6909 57.0825 99.8312 57.3502 100.05 57.7671C100.075 57.8155 100.101 57.8658 100.129 57.919C100.322 58.2855 100.633 58.4431 100.751 57.9347C100.782 57.7999 100.748 57.671 100.706 57.5154C100.652 57.3116 100.586 57.062 100.637 56.6933C100.736 56.0352 101.074 55.9051 101.074 55.9051L100.98 53.8558C100.764 53.9778 100.567 54.1289 100.393 54.3051Z" fill="white"/>
<path fill-rule="evenodd" clip-rule="evenodd" d="M102.332 65.0842C112.334 58.8854 117.667 50.0054 121.079 39.9796C124.11 31.0729 124.85 20.6569 121.516 12.5227C116.515 14.241 113.583 14.773 110.864 15.1986C108.326 15.5927 106.06 15.8331 102.347 15.8844H102.32C99.4677 15.8737 96.6205 15.6444 93.8034 15.1986C91.0841 14.777 88.148 14.241 83.1469 12.5227C79.8129 20.653 80.5538 31.0729 83.5883 39.9796C87.0038 50.0054 92.3331 58.8854 102.332 65.0842ZM102.324 62.6284L102.332 62.6235L102.34 62.6284H102.324ZM102.332 62.6235C109.1 58.3607 116.773 48.7039 119.834 35.9952C121.469 29.2483 121.918 21.6697 119.798 15.6558C116.764 16.4637 113.938 17.1337 111.014 17.5278C108.089 17.9219 105.193 18.2056 102.344 18.2253H102.32C99.4194 18.1741 96.525 17.9411 93.6536 17.5278C90.7255 17.1337 87.8958 16.4637 84.8652 15.6558C82.745 21.6697 83.1982 29.2483 84.8298 35.9952C87.8947 48.7039 95.5669 58.3647 102.332 62.6235Z" fill="white"/>
<path d="M102.332 65.0842L102.343 65.0916H102.32L102.332 65.0842Z" fill="white"/>
<path d="M18.6958 87.6104H28.9345C29.967 87.634 31.106 87.6852 32.1661 88.1542C34.1327 89.1079 34.1799 91.0469 34.1799 91.4607C34.1885 91.9685 34.0944 92.4729 33.9035 92.9435C33.7125 93.4141 33.4285 93.8414 33.0686 94.1997C31.8548 95.4648 30.2508 95.65 29.0882 95.7761C30.3532 95.8273 32.3986 95.9337 33.975 97.5338C34.5938 98.1289 35.3425 99.189 35.3425 100.872C35.3425 102.058 34.9563 103.299 33.975 104.281C32.4971 105.751 30.637 105.806 29.033 105.857H18.6958V105.183H21.2023V88.2764H18.6958V87.6104ZM25.3127 88.3828L25.2615 95.4411H26.9679C28.1069 95.4411 29.0133 95.0785 29.3719 94.6135C29.8094 94.0972 30.0419 93.242 30.0419 91.9021C30.0419 88.9779 29.1394 88.438 27.1492 88.3828H25.3127ZM25.2615 96.186L25.3127 105.104H27.2793C28.1818 105.057 29.1394 104.978 29.967 104.178C31.0311 103.095 31.0311 101.23 31.0311 100.584C31.0311 98.5939 30.5936 97.5377 29.7897 96.9151C29.1946 96.45 28.1621 96.1663 26.5857 96.186H25.2615ZM39.5752 87.6104C40.789 87.5828 41.1516 87.5828 42.2866 87.5079V105.187H44.0679V105.861H36.5209V105.187H38.4599V88.2803H36.5209V87.6104H39.5752ZM46.6492 93.3445C47.9971 93.3209 48.4069 93.3209 49.6759 93.246L49.6247 101.439C49.6247 102.421 49.6759 103.169 49.8848 103.686C50.2198 104.49 50.9173 104.852 51.7725 104.852C52.5213 104.852 53.1676 104.568 53.6603 104.103C54.6652 103.095 54.6455 101.751 54.6455 100.612L54.5903 94.0184H52.6711V93.3445C52.6711 93.3445 56.3953 93.3209 58.3343 93.246V105.16H60.1944V105.861H58.2279C56.5766 105.861 55.9815 105.885 54.7401 105.964L54.6573 103.969C54.1174 104.643 52.8524 106.141 49.9281 106.141C48.0168 106.141 46.799 105.42 46.3064 104.434C45.9202 103.709 45.9477 102.779 45.9477 102.003L45.8926 94.0184H44.0048V93.3445H46.6492ZM73.2746 102.239C72.6046 103.504 71.2095 106.141 67.3 106.141C63.292 106.141 60.8368 103.067 60.8368 99.4767C60.8368 96.0362 63.1659 92.9898 67.3237 92.9898C69.909 92.9898 71.3317 94.1012 71.9504 94.7436C73.3731 96.2175 73.4243 97.7702 73.4519 98.8816H64.8172C64.8448 101.077 64.896 103.067 65.9798 104.21C66.5709 104.829 67.4261 105.089 68.2774 105.089C71.0676 105.089 72.1317 102.736 72.4942 101.908L73.2746 102.239ZM69.4991 98.1052C69.5227 96.0874 69.5464 93.7071 67.2212 93.7071C65.0221 93.7071 64.9197 95.9061 64.8448 98.1052H69.4991ZM91.8563 104.565C89.9449 105.262 87.5646 106.117 84.5891 106.117C79.2649 106.117 75.312 102.291 75.312 96.7062C75.312 90.6843 79.86 87.1926 85.0069 87.1926C86.5833 87.1926 89.0149 87.5552 91.7539 88.7454V93.8923H90.9499C90.8238 92.9071 90.6189 91.307 89.0425 89.7267C88.5462 89.2097 87.9518 88.797 87.294 88.5128C86.6363 88.2286 85.9283 88.0785 85.2118 88.0715C83.8443 88.0715 82.4728 88.6429 81.5664 89.5454C80.2738 90.838 79.7062 92.9071 79.7062 96.6825C79.7062 100.328 80.1437 102.578 81.4876 103.946C82.2364 104.722 83.4265 105.345 84.8492 105.345C86.2168 105.345 87.8444 104.797 89.1646 103.406C90.7174 101.802 90.8987 100.43 91.0011 99.4491H91.8563V104.565ZM98.9895 105.187H100.901V105.861H93.3263V105.187H95.214V94.0184H93.3263V93.3445C93.3263 93.3445 97.4092 93.3209 98.8831 93.246L98.9343 95.78C99.0913 95.1624 99.4143 94.5996 99.8684 94.1524C100.175 93.8294 100.543 93.5711 100.951 93.3931C101.36 93.2151 101.799 93.1208 102.245 93.1159C103.9 93.1159 104.598 94.4322 104.598 95.5988C104.598 97.1712 103.565 97.4353 102.997 97.4353C102.741 97.4353 101.394 97.3052 101.394 95.7288C101.394 95.5988 101.476 94.9524 101.476 94.8263C101.476 94.2785 101.086 94.2785 101.011 94.2785C100.672 94.2785 100.207 94.6923 99.8723 95.2086C99.0171 96.5801 98.9659 98.5939 98.9383 100.021L98.9895 105.187ZM118.497 99.6501C118.497 103.737 115.242 106.137 111.754 106.137C107.955 106.137 105.185 103.402 105.185 99.5476C105.185 95.4884 108.133 93.0608 111.699 93.0056C115.888 92.9307 118.497 95.9022 118.497 99.6501ZM109.114 99.0353C109.114 103.091 109.374 105.42 111.857 105.42C114.363 105.42 114.545 103.063 114.545 99.6501C114.545 96.5249 114.391 93.6558 111.833 93.6795C109.425 93.6834 109.114 96.1387 109.114 99.0353ZM121.205 101.104C121.307 101.849 121.386 102.476 121.8 103.248C122.21 104.076 123.274 105.368 125.106 105.368C126.636 105.368 127.644 104.513 127.644 103.481C127.644 102.314 126.506 101.849 124.85 101.258C122.549 100.403 120.614 99.7053 120.614 96.9663C120.614 93.7071 123.459 92.9583 125.24 92.9583C126.659 92.9583 127.826 93.3682 129.043 93.7859L129.095 97.1476H128.318C128.239 96.6699 128.108 96.2022 127.928 95.7525C127.597 95.0549 126.616 93.8174 124.957 93.8174C123.562 93.8174 122.939 94.7436 122.939 95.3938C122.939 96.1899 123.613 96.5288 123.897 96.6549C124.306 96.8402 126.352 97.585 126.817 97.7663C128.393 98.4126 130.025 99.2915 130.025 101.668C130.025 104.379 127.905 106.172 124.803 106.172C123.093 106.172 121.804 105.703 120.46 105.215L120.405 101.104H121.205ZM132.496 101.104C132.594 101.849 132.673 102.476 133.087 103.248C133.501 104.076 134.561 105.368 136.397 105.368C137.923 105.368 138.931 104.513 138.931 103.481C138.931 102.314 137.796 101.849 136.137 101.258C133.84 100.403 131.901 99.7053 131.901 96.9663C131.901 93.7071 134.746 92.9583 136.531 92.9583C137.95 92.9583 139.113 93.3682 140.327 93.7859L140.378 97.1476H139.601C139.523 96.6701 139.393 96.2024 139.215 95.7525C138.88 95.0549 137.899 93.8174 136.248 93.8174C134.853 93.8174 134.226 94.7436 134.226 95.3938C134.226 96.1899 134.9 96.5288 135.184 96.6549C135.601 96.8402 137.643 97.585 138.108 97.7663C139.684 98.4126 141.312 99.2915 141.312 101.668C141.312 104.379 139.192 106.172 136.09 106.172C134.38 106.172 133.091 105.703 131.743 105.215L131.692 101.104H132.496ZM18.7313 111.836H28.97C30.0025 111.863 31.1414 111.914 32.2016 112.376C34.1681 113.337 34.2194 115.276 34.2194 115.686C34.2279 116.194 34.1338 116.698 33.9429 117.169C33.7519 117.639 33.468 118.067 33.108 118.425C31.8902 119.694 30.2862 119.875 29.1237 120.001C30.3927 120.057 32.4301 120.155 34.0105 121.759C34.6292 122.354 35.378 123.414 35.378 125.097C35.378 126.287 34.9878 127.525 34.0105 128.51C32.5326 129.98 30.6764 130.031 29.0724 130.082H18.7313V129.408H21.2377V112.502H18.7313V111.836ZM25.3482 112.608L25.293 119.666H26.9995C28.1384 119.666 29.0409 119.304 29.4035 118.839C29.8409 118.319 30.0734 117.471 30.0734 116.127C30.0734 113.207 29.1709 112.659 27.1807 112.608H25.3482ZM25.297 120.419L25.3521 129.338H27.3187C28.2212 129.286 29.1788 129.211 30.0064 128.407C31.0705 127.324 31.0705 125.46 31.0705 124.817C31.0705 122.823 30.6331 121.767 29.8291 121.144C29.2379 120.679 28.2015 120.395 26.6251 120.419H25.297ZM39.6106 111.836C40.8245 111.812 41.187 111.812 42.326 111.733V129.412H44.1073V130.086H36.5564V129.412H38.4993V112.506H36.5564V111.836H39.6106ZM46.6886 117.574C48.0325 117.546 48.4424 117.546 49.7114 117.475L49.6602 125.665C49.6602 126.646 49.7114 127.399 49.9203 127.915C50.2552 128.715 50.9528 129.077 51.808 129.077C52.5104 129.081 53.187 128.813 53.6957 128.329C54.7046 127.32 54.677 125.976 54.677 124.841L54.6258 118.244H52.7105V117.574C52.7105 117.574 56.4347 117.546 58.3737 117.475V129.389H60.2338V130.086H58.2673C56.6121 130.086 56.017 130.114 54.7756 130.189L54.6967 128.195C54.1529 128.873 52.8878 130.37 49.9675 130.37C48.0562 130.37 46.8384 129.645 46.3497 128.664C45.9556 127.939 45.9872 127.004 45.9872 126.232L45.9359 118.244H44.0482V117.574H46.6886ZM73.0499 126.469C72.38 127.734 70.9809 130.37 67.0793 130.37C63.0713 130.37 60.6161 127.292 60.6161 123.702C60.6161 120.265 62.9413 117.215 67.103 117.215C69.6883 117.215 71.1149 118.322 71.7336 118.973C73.1524 120.443 73.2076 121.996 73.2312 123.107H64.6004C64.6241 125.306 64.6793 127.292 65.763 128.435C66.0677 128.729 66.4285 128.959 66.824 129.111C67.2194 129.262 67.6413 129.333 68.0646 129.318C70.8548 129.318 71.9189 126.961 72.2775 126.137L73.0499 126.469ZM69.2745 122.33C69.302 120.313 69.3296 117.936 67.0005 117.936C64.8054 117.936 64.7029 120.135 64.6201 122.33H69.2745ZM75.8401 123.856C75.9702 124.604 76.0963 125.278 76.5377 126.185C78.0904 129.389 80.9083 129.468 81.4797 129.468C83.5211 129.468 85.2512 128.25 85.2512 126.366C85.2512 124.482 83.8285 123.856 79.923 122.256C79.3043 121.995 78.7092 121.763 78.1417 121.456C77.4678 121.093 75.249 119.796 75.249 116.825C75.249 113.621 77.8027 111.477 81.4009 111.477C83.6512 111.477 85.4089 112.222 86.3389 112.612L86.599 116.959H85.7714C85.4089 115.615 85.2 114.862 84.3014 113.96C83.399 113.03 82.2048 112.379 80.9161 112.379C78.9496 112.379 77.9131 113.7 77.9131 115.048C77.9131 116.699 79.4146 117.4 80.0846 117.712C80.9634 118.122 81.8423 118.433 82.7211 118.795C84.9714 119.698 87.7892 121.042 87.7892 124.585C87.7892 127.923 85.1803 130.378 80.8097 130.378C78.587 130.378 76.8806 129.759 75.2017 129.164L75.048 123.86H75.8401V123.856ZM91.5489 111.836C92.8692 111.836 93.1766 111.812 94.3391 111.733L94.2879 119.461C94.7766 118.689 95.2692 117.96 96.7431 117.522C97.3619 117.318 97.9806 117.243 98.6309 117.243C100.546 117.243 101.476 117.991 101.89 118.378C102.848 119.335 102.923 120.47 102.978 121.456L103.029 129.416H104.814V130.09H97.2397V129.416H99.2299L99.2811 121.404C99.2811 120.395 99.2812 118.378 97.2634 118.378C96.5343 118.387 95.8386 118.685 95.3283 119.205C94.4455 120.084 94.3707 121.251 94.2918 122.744L94.3431 129.412H96.2821V130.086H88.7311V129.412H90.6189V112.506H88.7311V111.836H91.5489ZM110.986 117.475V129.412H112.771V130.086H105.22V129.412H107.159V118.244H105.22V117.574C105.22 117.574 109.201 117.546 110.986 117.475ZM106.927 113.751C106.927 112.64 107.857 111.706 108.996 111.706C110.107 111.706 111.013 112.608 111.013 113.751C111.013 114.894 110.111 115.796 108.996 115.796C108.456 115.78 107.943 115.56 107.559 115.18C107.175 114.801 106.949 114.29 106.927 113.751ZM126.048 126.469C125.378 127.734 123.983 130.37 120.078 130.37C116.066 130.37 113.615 127.292 113.615 123.702C113.615 120.265 115.94 117.215 120.101 117.215C122.687 117.215 124.109 118.322 124.732 118.973C126.151 120.443 126.202 121.996 126.23 123.107H117.599C117.623 125.306 117.678 127.292 118.761 128.435C119.066 128.73 119.427 128.96 119.822 129.111C120.218 129.263 120.64 129.333 121.063 129.318C123.853 129.318 124.917 126.961 125.272 126.137L126.048 126.469ZM122.277 122.33C122.3 120.313 122.324 117.936 120.003 117.936C117.804 117.936 117.701 120.135 117.623 122.33H122.277ZM130.056 111.836C131.27 111.812 131.633 111.812 132.768 111.733V129.412H134.557V130.086H127.006V129.412H128.945V112.506H127.006V111.836H130.056ZM145.091 111.836C146.593 111.836 147.062 111.812 148.22 111.733V129.389H150.057V130.086C150.057 130.086 146.179 130.114 144.496 130.189V128.478C143.905 129.227 142.975 130.366 140.571 130.366C136.693 130.366 135.14 126.847 135.14 124.005C135.14 119.95 137.568 117.341 140.906 117.341C142.506 117.341 143.361 117.857 143.956 118.449C144.215 118.676 144.402 118.973 144.496 119.304L144.445 112.502H142.534V111.832H145.091V111.836ZM140.078 119.048C139.329 119.824 139.195 121.349 139.195 123.777C139.195 126.752 139.274 129.231 141.655 129.231C142.025 129.237 142.393 129.166 142.736 129.024C143.078 128.881 143.387 128.67 143.645 128.404C144.342 127.682 144.547 126.776 144.547 123.521C144.547 121.192 144.547 118.35 141.808 118.374C141.489 118.362 141.171 118.415 140.873 118.531C140.576 118.647 140.305 118.823 140.078 119.048ZM140.705 91.6617C140.706 90.9642 140.915 90.2827 141.303 89.7033C141.691 89.1239 142.243 88.6725 142.887 88.4061C143.532 88.1397 144.241 88.0702 144.925 88.2064C145.61 88.3426 146.238 88.6784 146.731 89.1713C147.225 89.6643 147.561 90.2924 147.698 90.9764C147.835 91.6604 147.767 92.3696 147.501 93.0145C147.235 93.6595 146.785 94.2113 146.206 94.6004C145.627 94.9895 144.945 95.1984 144.248 95.2007C143.309 95.1997 142.409 94.8266 141.745 94.1633C141.081 93.4999 140.707 92.6004 140.705 91.6617ZM147.204 91.6617C147.219 91.2691 147.153 90.8774 147.01 90.5114C146.867 90.1454 146.65 89.8128 146.373 89.5346C146.095 89.2563 145.763 89.0384 145.398 88.8945C145.032 88.7505 144.641 88.6837 144.248 88.6981C143.854 88.6833 143.461 88.7497 143.094 88.8932C142.727 89.0367 142.393 89.2542 142.114 89.5322C141.834 89.8101 141.615 90.1427 141.47 90.509C141.324 90.8754 141.256 91.2677 141.268 91.6617C141.268 93.3957 142.518 94.6372 144.248 94.6372C145.97 94.6372 147.204 93.3957 147.204 91.6617ZM143.44 93.6598H142.924V89.6242H144.662C145.71 89.6242 146.069 90.0183 146.069 90.7435C146.069 91.5198 145.525 91.8115 144.819 91.8666L146.025 93.6598H145.442L144.303 91.8666H143.44V93.6598ZM144.153 91.4016C144.721 91.4016 145.509 91.4883 145.509 90.7316C145.509 90.1641 145.04 90.0932 144.551 90.0932H143.444V91.4016H144.153ZM148.93 114.862C148.931 114.164 149.14 113.481 149.529 112.901C149.918 112.321 150.47 111.869 151.116 111.603C151.761 111.336 152.471 111.267 153.156 111.403C153.841 111.54 154.471 111.877 154.964 112.371C155.458 112.864 155.795 113.494 155.932 114.179C156.068 114.864 155.999 115.574 155.732 116.219C155.466 116.865 155.014 117.417 154.434 117.806C153.854 118.195 153.171 118.404 152.473 118.405C151.533 118.404 150.633 118.031 149.969 117.366C149.304 116.702 148.931 115.802 148.93 114.862ZM155.428 114.862C155.443 114.47 155.376 114.08 155.233 113.714C155.089 113.349 154.872 113.018 154.595 112.74C154.317 112.463 153.986 112.246 153.621 112.102C153.255 111.959 152.865 111.892 152.473 111.907C150.747 111.907 149.493 113.144 149.493 114.862C149.493 116.6 150.743 117.842 152.473 117.842C154.191 117.842 155.428 116.6 155.428 114.862ZM151.665 116.864H151.148V112.829H152.883C153.935 112.829 154.289 113.227 154.289 113.944C154.289 114.724 153.742 115.016 153.04 115.071L154.246 116.864H153.667L152.528 115.071H151.665V116.864ZM152.378 114.598C152.946 114.598 153.73 114.693 153.73 113.932C153.73 113.365 153.261 113.294 152.776 113.294H151.669V114.598H152.378Z" fill="black"/>
</svg>
