<svg width="160" height="120" viewBox="0 0 160 120" fill="none" xmlns="http://www.w3.org/2000/svg">
<path d="M76.1594 5.36662C68.2841 5.35513 60.7266 8.47105 55.1479 14.0295C49.5691 19.588 46.4257 27.1341 46.4085 35.0093C46.3344 42.0778 48.8261 48.9334 53.4216 54.3047C58.017 59.676 64.4044 63.1986 71.3992 64.2193C73.7793 64.2193 75.2939 62.5965 75.2939 59.8919C75.2939 57.62 72.8056 56.8627 72.8056 56.8627C65.8818 55.6727 61.4462 49.2898 61.4462 42.1495C61.47 40.9324 61.6892 39.7271 62.0953 38.5794C63.2853 40.2022 65.449 42.1495 69.6683 43.9887C71.43 44.7258 72.9885 45.8761 74.212 47.3424C74.6448 47.8834 74.8611 48.4243 75.0775 48.6406C75.2939 48.857 75.2939 49.0734 75.2939 49.1816V49.2465L76.1594 51.6266L77.0248 49.2465C77.0248 49.1383 78.2149 46.0009 82.6505 43.9454C85.6316 42.8872 88.2555 41.0129 90.2234 38.5362C90.6119 39.6884 90.8306 40.891 90.8725 42.1063C90.8725 49.2465 86.4369 55.6294 79.5131 56.8194C79.5131 56.8194 77.0248 57.6849 77.0248 59.8486C77.0248 62.4451 78.5394 64.176 80.9195 64.176C87.9143 63.1553 94.3017 59.6327 98.8971 54.2614C103.493 48.8901 105.984 42.0346 105.91 34.9661C105.905 31.0678 105.13 27.209 103.631 23.6105C102.132 20.0121 99.9381 16.7446 97.1746 13.9952C94.4111 11.2457 91.1325 9.0684 87.5264 7.58779C83.9203 6.10719 80.0575 5.35239 76.1594 5.36662ZM72.3729 20.6207C73.9555 17.7215 75.2595 14.6787 76.2675 11.5332C77.2756 14.6787 78.5796 17.7215 80.1622 20.6207C81.6768 23.5417 83.2996 26.1382 84.1651 27.5446C84.0595 27.7844 83.9131 28.004 83.7323 28.1937C83.1914 29.0592 82.1095 29.9246 79.7295 31.1147C78.3496 31.7337 77.1559 32.7035 76.2675 33.9275C75.4056 32.6788 74.2043 31.7028 72.8056 31.1147C71.2185 30.4382 69.8109 29.401 68.6946 28.0855C68.6137 27.9227 68.5037 27.776 68.37 27.6527C69.2355 26.1382 70.7501 23.5417 72.3729 20.6207ZM88.7088 37.8221C86.8415 39.8954 84.5043 41.4906 81.8932 42.4741C79.5593 43.4159 77.5619 45.0364 76.1594 47.1261C74.7568 45.0364 72.7594 43.4159 70.4256 42.4741C66.3145 40.7431 64.3672 38.904 63.3935 37.4976C63.2068 37.2323 63.061 36.9406 62.9608 36.6321L63.2853 35.983C64.5167 33.5604 65.8894 31.2124 67.3964 28.951C68.5424 30.5673 70.1709 31.7792 72.0483 32.4129C73.1164 32.8458 74.0499 33.5553 74.753 34.4684C74.9693 34.793 75.1857 35.0093 75.1857 35.3339C75.1971 35.4159 75.2351 35.4919 75.2939 35.5503L76.1594 38.0385L77.0248 35.5503C77.3203 34.8015 77.7723 34.1246 78.3508 33.5648C78.9292 33.0051 79.6206 32.5754 80.3786 32.3047C82.1932 31.5559 83.7922 30.366 85.0305 28.8428C86.6001 31.0645 87.9755 33.4172 89.1416 35.8748L89.4661 36.5239C89.1739 36.9322 88.9203 37.3668 88.7088 37.8221Z" fill="#1A1C3A"/>
<path d="M17.0904 92.672L15.3594 89.1019H7.46192L5.69851 92.672H4L10.7075 78.7161H12.1896L18.8971 92.672H17.0904ZM11.4648 80.4471L8.11103 87.4791H14.8185L11.4648 80.4471ZM26.2861 80.2307V92.5205H24.6633V80.2307H19.7626V78.8243H31.2302V80.2307H26.2861ZM42.1893 92.672V78.7161H43.8121V92.4556H42.1893V92.672ZM59.1744 92.672L49.6541 81.3125V92.672H48.0313V78.7161H49.5459L58.7092 89.8592V78.7161H60.332V92.4556H59.0337L59.1744 92.672ZM70.1011 80.2307V92.5205H68.4458V80.2307H63.5775V78.8243H75.0451V80.2307H70.1011ZM88.8171 91.2656V92.672H78.1825V78.7161H88.7846V80.1225H79.9135V84.8827H87.811V86.2891H79.9135V91.1574L88.8171 91.2656ZM102.665 85.64C102.249 85.9532 101.816 86.2422 101.367 86.5054C100.862 86.7625 100.309 86.91 99.7438 86.9382L104.147 92.5205H102.2L97.9804 87.1113H93.8693V92.5205H92.2466V78.7161H98.5213C99.3621 78.7028 100.2 78.8122 101.01 79.0407C101.678 79.2285 102.279 79.604 102.741 80.1225C103.08 80.4797 103.371 80.8798 103.606 81.3125C103.867 81.7721 103.98 82.3009 103.931 82.8271C103.939 83.3501 103.828 83.868 103.606 84.3417C103.345 84.8104 103.029 85.2462 102.665 85.64ZM102.124 82.9353C102.148 82.5536 102.071 82.1723 101.9 81.8303C101.729 81.4882 101.47 81.1976 101.15 80.988C100.368 80.4198 99.4087 80.1511 98.4456 80.2307H93.9018V85.8563H98.4456C98.9573 85.8452 99.4658 85.7725 99.9602 85.64C100.384 85.5261 100.786 85.3433 101.15 85.099C101.491 84.8249 101.783 84.4958 102.016 84.1254C101.983 83.8657 102.124 83.3681 102.124 82.9353ZM118.46 92.672L108.94 81.3125V92.672H107.317V78.7161H108.831L118.027 89.8592V78.7161H119.65V92.4556H118.352L118.46 92.672ZM134.579 91.2656V92.672H123.977V78.7161H134.579V80.1225H125.708V84.8827H133.606V86.2891H125.708V91.1574L134.579 91.2656ZM143.342 80.2307V92.5205H141.72V80.2307H136.851V78.8243H148.211V80.2307H143.342Z" fill="#1A1C3A"/>
<path d="M154.161 81.6371C154.314 81.4566 154.391 81.2242 154.377 80.988C154.394 80.8598 154.372 80.7295 154.314 80.6139C154.256 80.4982 154.165 80.4025 154.053 80.3389C153.804 80.1551 153.493 80.0773 153.187 80.1225H151.748V83.2599H152.181V82.0699H152.938L153.804 83.2599H154.345L153.371 81.9617C153.836 81.9617 154.053 81.8535 154.161 81.6371ZM152.322 81.6371V80.5553H153.187C153.375 80.5271 153.566 80.5653 153.728 80.6635C153.795 80.7138 153.85 80.7792 153.887 80.8543C153.925 80.9294 153.944 81.0122 153.944 81.0962C153.944 81.1802 153.925 81.263 153.887 81.3381C153.85 81.4132 153.795 81.4785 153.728 81.5289C153.566 81.6271 153.375 81.6653 153.187 81.6371H152.322Z" fill="#1A1C3A"/>
<path d="M152.971 84.7745C152.167 84.7745 151.397 84.4553 150.829 83.8873C150.261 83.3192 149.942 82.5487 149.942 81.7453C149.942 80.9419 150.261 80.1714 150.829 79.6034C151.397 79.0353 152.167 78.7161 152.971 78.7161C153.774 78.7161 154.545 79.0353 155.113 79.6034C155.681 80.1714 156 80.9419 156 81.7453C156 82.5487 155.681 83.3192 155.113 83.8873C154.545 84.4553 153.774 84.7745 152.971 84.7745ZM152.971 78.9325C152.415 78.9325 151.871 79.0975 151.408 79.4065C150.946 79.7156 150.585 80.1549 150.372 80.6689C150.159 81.1829 150.104 81.7484 150.212 82.2941C150.321 82.8397 150.588 83.3409 150.982 83.7343C151.375 84.1276 151.876 84.3955 152.422 84.5041C152.968 84.6126 153.533 84.5569 154.047 84.344C154.561 84.1311 155.001 83.7706 155.31 83.308C155.619 82.8455 155.784 82.3016 155.784 81.7453C155.787 81.3751 155.716 81.0081 155.575 80.6655C155.435 80.3229 155.228 80.0117 154.966 79.7499C154.704 79.4882 154.393 79.2811 154.051 79.1407C153.708 79.0004 153.341 78.9296 152.971 78.9325Z" fill="#1A1C3A"/>
<path d="M78.1067 112.578C78.6925 112.637 79.2785 112.467 79.7422 112.104C80.2059 111.742 80.5114 111.214 80.595 110.631H80.1622C80.0717 111.103 79.8142 111.527 79.4367 111.825C79.0593 112.123 78.5871 112.275 78.1067 112.253C76.7003 112.253 75.8348 111.28 75.8348 109.657V109.549C75.8036 109.227 75.8385 108.903 75.9375 108.595C76.0364 108.287 76.1972 108.003 76.41 107.76C76.6228 107.517 76.8831 107.32 77.1749 107.181C77.4666 107.042 77.7838 106.964 78.1067 106.952C78.5628 106.911 79.0176 107.044 79.3791 107.326C79.7406 107.607 79.9819 108.015 80.054 108.467H80.4868C80.3869 107.921 80.0885 107.431 79.6492 107.091C79.2098 106.752 78.6604 106.587 78.1067 106.628C77.7286 106.644 77.3575 106.736 77.0155 106.898C76.6735 107.061 76.3674 107.29 76.1153 107.572C75.8632 107.854 75.6702 108.184 75.5477 108.542C75.4253 108.9 75.3757 109.279 75.4021 109.657V109.765C75.3779 110.132 75.4304 110.499 75.5563 110.844C75.6822 111.189 75.8787 111.504 76.1333 111.769C76.3878 112.034 76.6948 112.242 77.0346 112.382C77.3744 112.521 77.7396 112.588 78.1067 112.578Z" fill="#1A1C3A"/>
<path d="M86.3288 112.145C85.9976 112.145 85.6702 112.076 85.3671 111.943C85.0641 111.809 84.792 111.614 84.5683 111.37C84.3445 111.126 84.1739 110.838 84.0673 110.524C83.9606 110.211 83.9202 109.879 83.9487 109.549V109.441C83.9202 109.111 83.9606 108.779 84.0673 108.465C84.1739 108.152 84.3445 107.864 84.5683 107.62C84.792 107.375 85.0641 107.18 85.3671 107.047C85.6702 106.914 85.9976 106.845 86.3288 106.844C86.657 106.854 86.98 106.929 87.2787 107.066C87.5773 107.202 87.8455 107.397 88.0674 107.64C88.2894 107.882 88.4604 108.166 88.5706 108.475C88.6808 108.785 88.7278 109.113 88.7088 109.441V109.549C88.7373 109.879 88.6969 110.211 88.5903 110.524C88.4836 110.838 88.313 111.126 88.0893 111.37C87.8655 111.614 87.5935 111.809 87.2904 111.943C86.9874 112.076 86.6599 112.145 86.3288 112.145ZM86.3288 112.578C86.7157 112.574 87.0978 112.492 87.4517 112.336C87.8056 112.179 88.124 111.953 88.3873 111.669C88.6505 111.385 88.8532 111.051 88.9829 110.687C89.1126 110.322 89.1666 109.935 89.1416 109.549V109.441C89.152 109.054 89.0836 108.67 88.9405 108.311C88.7974 107.952 88.5826 107.625 88.3093 107.352C88.0359 107.079 87.7097 106.864 87.3506 106.721C86.9915 106.578 86.607 106.509 86.2206 106.52C85.8282 106.521 85.44 106.601 85.079 106.755C84.7181 106.909 84.3917 107.134 84.1193 107.416C83.8469 107.699 83.634 108.033 83.4932 108.4C83.3524 108.766 83.2866 109.157 83.2996 109.549V109.657C83.3222 110.443 83.652 111.19 84.2183 111.736C84.7845 112.282 85.5422 112.584 86.3288 112.578Z" fill="#1A1C3A"/>
<path d="M92.3871 112.47H92.8199V107.169L95.0918 112.47H95.2L97.4718 107.169V112.47H97.9046V106.52H97.2555L95.2 111.604L93.1444 106.52H92.4953V112.47H92.3871Z" fill="#1A1C3A"/>
<path d="M101.475 112.47H101.907V109.982H102.989C104.179 109.982 105.045 109.549 105.045 108.251C105.045 107.061 104.179 106.628 102.989 106.628H101.475V112.47ZM102.016 109.549V106.952H103.097C104.071 106.952 104.612 107.277 104.612 108.251C104.612 109.116 104.071 109.549 103.097 109.549H102.016Z" fill="#1A1C3A"/>
<path d="M107.317 112.47H107.749L108.399 110.631H111.103L111.752 112.47H112.185L110.021 106.52H109.372L107.317 112.47ZM109.697 106.952L110.887 110.306H108.474L109.697 106.952Z" fill="#1A1C3A"/>
<path d="M115.755 112.47V107.061L119.109 112.47H119.65V106.52H119.217V111.821L115.863 106.52H115.214V112.47H115.755Z" fill="#1A1C3A"/>
<path d="M124.702 112.47H125.135V109.83L127.082 106.585H126.649L125.027 109.506L123.296 106.585H122.755L124.81 109.83V112.427L124.702 112.47Z" fill="#1A1C3A"/>
<path d="M69.5276 109.549C69.5276 110.739 68.9867 111.496 67.9049 111.496C66.823 111.496 66.2821 110.739 66.2821 109.549V109.441C66.2821 108.251 66.9312 107.493 67.9049 107.493C68.3916 107.553 68.8352 107.802 69.1391 108.187C69.443 108.572 69.5826 109.062 69.5276 109.549ZM67.9049 106.52C67.5075 106.503 67.1112 106.571 66.7421 106.719C66.373 106.867 66.0394 107.091 65.7634 107.378C65.4873 107.664 65.2751 108.005 65.1408 108.38C65.0064 108.754 64.9529 109.152 64.9839 109.549V109.657C64.9636 110.046 65.0253 110.435 65.165 110.798C65.3046 111.162 65.5191 111.492 65.7944 111.767C66.0698 112.043 66.4 112.257 66.7635 112.397C67.1271 112.537 67.5159 112.598 67.9049 112.578C68.3022 112.595 68.6985 112.527 69.0676 112.379C69.4367 112.231 69.7703 112.006 70.0463 111.72C70.3224 111.434 70.5346 111.092 70.6689 110.718C70.8033 110.344 70.8568 109.945 70.8259 109.549V109.441C70.8461 109.052 70.7844 108.663 70.6447 108.299C70.5051 107.936 70.2906 107.606 70.0153 107.33C69.7399 107.055 69.4097 106.84 69.0462 106.701C68.6826 106.561 68.2938 106.499 67.9049 106.52Z" fill="#1A1C3A"/>
<path d="M61.1216 106.52C60.7243 106.503 60.328 106.571 59.9589 106.719C59.5898 106.867 59.2562 107.091 58.9802 107.378C58.7041 107.664 58.4919 108.005 58.3576 108.38C58.2232 108.754 58.1697 109.152 58.2007 109.549V112.578H59.4989V109.549C59.4989 108.359 60.148 107.602 61.1216 107.602C62.0953 107.602 62.7444 108.359 62.7444 109.549V112.578H64.1184V109.549C64.1198 109.151 64.0424 108.756 63.8907 108.388C63.739 108.02 63.5159 107.685 63.2343 107.404C62.9528 107.122 62.6183 106.899 62.2501 106.747C61.8819 106.596 61.4874 106.518 61.0892 106.52" fill="#1A1C3A"/>
<path d="M50.3031 106.52H48.8967V112.578H50.3031V106.52Z" fill="#1A1C3A"/>
<path d="M46.5167 109.549C46.5167 110.739 45.9757 111.496 44.8939 111.496H43.2711V107.602H44.8939C45.9757 107.602 46.5167 108.359 46.5167 109.549ZM45.0021 106.52H42.0811V114.634H43.3793V112.578H45.0021C45.3994 112.595 45.7957 112.527 46.1648 112.379C46.534 112.231 46.8675 112.006 47.1436 111.72C47.4196 111.434 47.6318 111.092 47.7662 110.718C47.9005 110.344 47.954 109.945 47.9231 109.549V109.441C47.9335 109.054 47.8651 108.67 47.722 108.311C47.5789 107.952 47.3641 107.625 47.0907 107.352C46.8174 107.079 46.4912 106.864 46.1321 106.721C45.773 106.578 45.3885 106.509 45.0021 106.52Z" fill="#1A1C3A"/>
<path d="M55.8206 110.739C55.7389 111.012 55.5645 111.248 55.3275 111.406C55.0905 111.564 54.8057 111.634 54.5224 111.604H54.306C53.3323 111.604 52.6832 110.847 52.6832 109.657V109.549C52.6832 108.359 53.3323 107.602 54.306 107.602C55.2797 107.602 55.9288 108.359 55.9288 109.549L55.8206 110.739ZM54.1978 106.52C53.8005 106.503 53.4042 106.571 53.0351 106.719C52.6659 106.867 52.3323 107.091 52.0563 107.378C51.7803 107.664 51.5681 108.005 51.4337 108.38C51.2994 108.754 51.2459 109.152 51.2768 109.549V109.657C51.2543 110.037 51.3108 110.418 51.4428 110.776C51.5748 111.133 51.7793 111.459 52.0436 111.734C52.3078 112.008 52.626 112.225 52.9782 112.37C53.3303 112.515 53.7087 112.586 54.0896 112.578H54.1978C54.5067 112.575 54.8113 112.506 55.0912 112.375C55.3711 112.245 55.6198 112.056 55.8206 111.821V112.578H57.227V109.549C57.2374 109.148 57.1662 108.75 57.0176 108.377C56.8691 108.005 56.6463 107.667 56.3629 107.384C56.0796 107.1 55.7415 106.878 55.3692 106.729C54.997 106.581 54.5984 106.509 54.1978 106.52Z" fill="#1A1C3A"/>
<path d="M49.5458 103.815C49.4318 103.814 49.3186 103.835 49.2129 103.878C49.1073 103.921 49.0113 103.985 48.9306 104.065C48.85 104.146 48.7863 104.242 48.7433 104.348C48.7003 104.453 48.6789 104.566 48.6804 104.681C48.6705 104.797 48.6861 104.914 48.7261 105.023C48.7661 105.133 48.8295 105.232 48.912 105.314C48.9944 105.397 49.0938 105.46 49.2033 105.5C49.3128 105.54 49.4297 105.556 49.5458 105.546C49.6599 105.547 49.7731 105.526 49.8788 105.483C49.9844 105.44 50.0804 105.376 50.1611 105.296C50.2417 105.215 50.3054 105.119 50.3484 105.013C50.3914 104.908 50.4128 104.795 50.4113 104.681C50.4212 104.564 50.4056 104.447 50.3656 104.338C50.3256 104.229 50.2621 104.129 50.1797 104.047C50.0973 103.964 49.9979 103.901 49.8884 103.861C49.7789 103.821 49.662 103.805 49.5458 103.815Z" fill="#1A1C3A"/>
<path d="M32.1281 112.47H32.5608L33.2099 110.631H35.9145L36.5636 112.47H36.9964L34.8327 106.52H34.2918L32.1281 112.47ZM34.5081 106.952L35.6982 110.306H33.3181L34.5081 106.952Z" fill="#1A1C3A"/>
</svg>
