<svg width="160" height="200" viewBox="0 0 160 200" fill="none" xmlns="http://www.w3.org/2000/svg">
<path d="M43.9916 193.147C43.6696 193.147 43.322 193.066 43.0806 192.739L32.7435 179.145V193.011H30.3862V175.936C30.3862 175.257 30.9487 174.713 31.592 174.713C31.9664 174.713 32.2882 174.822 32.5285 175.148L42.8394 188.716V174.903H45.1965V191.951C45.1965 192.658 44.634 193.147 43.9916 193.147Z" fill="#1A1918"/>
<path d="M63.4897 193.31C61.1333 193.31 58.669 192.821 56.3657 191.951L56.9284 189.993C59.0441 190.673 61.3472 191.162 63.4897 191.162C66.4627 191.162 68.0159 190.102 68.0159 188.607C68.0159 187.247 66.8103 186.567 62.6593 184.61C58.5082 182.652 56.875 181.402 56.875 178.954C56.875 175.882 59.2314 174.631 63.6768 174.631C65.525 174.631 68.3636 175.012 69.9979 175.502L69.6228 177.513C67.8279 177.079 65.5789 176.78 63.7306 176.78C60.5978 176.78 59.3121 177.377 59.3121 178.873C59.3121 180.341 60.249 180.966 64.6412 183.006C69.2746 185.154 70.453 186.241 70.453 188.47C70.453 191.706 67.3994 193.31 63.4897 193.31Z" fill="#1A1918"/>
<path d="M81.6215 174.903H84.0586V193.011H81.6215V174.903Z" fill="#1A1918"/>
<path d="M104.789 184.8H98.7354V190.945H104.789C106.851 190.945 108.109 189.64 108.109 187.818C108.109 186.105 106.797 184.8 104.789 184.8ZM103.61 176.97H98.7354V182.761H103.61C105.565 182.761 106.984 181.51 106.984 179.77C106.984 178.057 105.752 176.97 103.61 176.97ZM104.815 193.011H97.5309C96.8342 193.011 96.2985 192.467 96.2985 191.788V176.127C96.2985 175.474 96.8342 174.904 97.5309 174.904H103.557C107.252 174.904 109.448 176.725 109.448 179.58C109.448 181.13 108.538 182.571 107.145 183.414C109.208 184.039 110.6 185.752 110.6 187.818C110.6 190.7 108.217 193.011 104.815 193.011Z" fill="#1A1918"/>
<path d="M122.304 193.011C121.635 193.011 121.099 192.44 121.099 191.788V174.904H123.536V190.809H133.231V193.011H122.304Z" fill="#1A1918"/>
<path d="M149.844 193.31C144.862 193.31 141.863 191.462 141.863 187.737C141.863 185.969 142.854 184.284 144.783 183.495C143.229 182.516 142.426 181.13 142.426 179.607C142.426 176.236 145.024 174.631 149.898 174.631C151.532 174.631 153.835 174.822 155.763 175.257L155.495 177.269C153.46 176.942 151.558 176.753 149.71 176.753C146.55 176.753 144.862 177.622 144.862 179.716C144.862 181.375 146.416 182.68 148.479 182.68H152.656C153.245 182.68 153.701 183.142 153.701 183.713C153.701 184.311 153.245 184.773 152.656 184.773H148.158C145.8 184.773 144.301 185.942 144.301 187.737C144.301 190.374 146.738 191.162 149.791 191.162C151.452 191.162 153.701 190.945 155.522 190.51L155.871 192.495C154.129 192.984 151.853 193.31 149.844 193.31Z" fill="#1A1918"/>
<path d="M12.2502 178.299L16.5184 188.994L10.0721 183.839L12.2502 178.299ZM19.8328 191.458L13.268 175.417C13.0806 174.955 12.7055 174.71 12.2502 174.71C11.7949 174.71 11.3932 174.955 11.2058 175.417L4 193.011H6.46454L9.31739 185.758L17.8293 192.739C18.1716 193.02 18.4186 193.147 18.7404 193.147C19.3828 193.147 19.9452 192.658 19.9452 191.951C19.9452 191.836 19.9048 191.654 19.8328 191.458Z" fill="#1A1918"/>
<path d="M156 82.5463C156 124.442 122.04 158.402 80.1437 158.402C38.2509 158.402 4.28711 124.442 4.28711 82.5463C4.28711 40.6535 38.2509 6.6897 80.1437 6.6897C122.04 6.6897 156 40.6535 156 82.5463Z" fill="#1A1918"/>
<path d="M81.4207 53.029L101.051 101.478L71.3998 78.1221L81.4207 53.029ZM116.293 112.639L86.0981 39.9725C85.2361 37.8768 83.5125 36.7678 81.4207 36.7678C79.3249 36.7678 77.4759 37.8768 76.6139 39.9725L43.4727 119.679H54.8097L67.929 86.8157L107.08 118.445C108.654 119.718 109.79 120.294 111.267 120.294C114.225 120.294 116.81 118.077 116.81 114.876C116.81 114.355 116.626 113.528 116.293 112.639Z" fill="white"/>
</svg>
