<svg width="216" height="48" viewBox="0 0 216 48" fill="none" xmlns="http://www.w3.org/2000/svg">
<path d="M116.754 16.0864C124.432 16.0864 130.23 21.9154 130.23 30.0432C130.23 38.119 124.432 44 116.754 44C109.076 44 103.278 38.119 103.278 30.0432C103.278 21.9154 109.076 16.0864 116.754 16.0864ZM200.395 16.0864C207.303 16.0864 211.223 20.525 212.305 24.9636L206.169 27.102C205.551 24.9102 203.951 22.6647 200.549 22.6647C197.043 22.6647 194.105 25.2848 194.105 30.0432C194.105 34.803 197.095 37.4766 200.601 37.4766C204.107 37.4766 205.861 35.0706 206.427 33.038L212.459 35.1242C211.325 39.508 207.355 44 200.601 44C193.124 44 187.247 38.119 187.247 30.0432C187.247 21.9154 193.021 16.0864 200.395 16.0864ZM72.0768 16.0859C80.1754 16.0859 83.1856 20.8012 83.1856 26.105V39.0712C83.1856 40.4642 83.3414 42.3398 83.4974 43.2502H77.1642C77.0082 42.553 76.9044 41.1064 76.9044 40.0888C75.6064 42.179 73.1654 43.9996 69.376 43.9996C63.9248 43.9996 60.603 40.196 60.603 36.0706C60.603 31.3554 63.9768 28.7302 68.234 28.088L74.5166 27.1226C75.969 26.9082 76.4366 26.1588 76.4366 25.2484C76.4366 23.3727 75.0348 21.8188 72.1274 21.8188C69.1162 21.8188 67.4546 23.8017 67.248 26.105L61.1214 24.7658C61.537 20.6403 65.2226 16.0859 72.0768 16.0859ZM96.645 9.17994V16.9733H101.755V23.228H96.645V34.148C96.645 36.4284 97.677 37.1698 99.6392 37.1698C100.465 37.1698 101.393 37.0638 101.755 36.9576V42.789C101.135 43.0544 99.8962 43.4246 97.8836 43.4246C92.9272 43.4246 89.831 40.404 89.831 35.3684V23.228H85.2364V16.9733H86.5268C89.211 16.9733 90.4498 15.1706 90.4498 12.8385V9.17994H96.645ZM163.527 16.2239C168.302 16.2239 172.868 19.1642 172.868 26.2208V43.2742H166.098V27.6642C166.098 24.8308 164.733 22.6932 161.532 22.6932C158.54 22.6932 156.755 25.045 156.755 27.8782V43.2742H149.829V27.6642C149.829 24.8308 148.412 22.6932 145.262 22.6932C142.219 22.6932 140.434 24.9914 140.434 27.8782V43.2742H133.455V16.973H140.121V20.1796C141.538 17.6138 144.843 16.2239 147.677 16.2239C151.193 16.2239 154.028 17.7743 155.338 20.6076C157.386 17.4011 160.115 16.2239 163.527 16.2239ZM183.807 16.9496V43.1366H177.141V16.9496H183.807ZM76.542 31.3378L70.932 32.2738C69.213 32.5492 67.848 33.594 67.848 35.6838C67.848 37.2792 68.9094 38.8198 71.0838 38.8198C73.9136 38.8198 76.542 37.3344 76.542 32.5492V31.3378ZM116.754 22.4174C113.364 22.4174 110.234 24.929 110.234 29.8988C110.234 34.8162 113.364 37.3814 116.754 37.3814C120.146 37.3814 123.275 34.8698 123.275 29.8988C123.275 24.929 120.146 22.4174 116.754 22.4174ZM180.474 4C182.832 4 184.676 5.94716 184.676 8.3699C184.676 10.6859 182.832 12.6331 180.474 12.6331C178.167 12.6331 176.272 10.6859 176.272 8.3699C176.272 5.94716 178.167 4 180.474 4Z" fill="black"/>
<path d="M33.8412 43.3491H9.50408C6.21078 43.3491 3.54102 40.6793 3.54102 37.3861C3.54102 34.0923 6.21028 31.4217 9.50408 31.4199L23.2942 31.4131C25.5628 31.4119 27.659 32.6225 28.7918 34.5879L33.8412 43.3491Z" fill="#1E6EFA"/>
<path d="M8.05859 28.0592L20.2272 6.98252C21.8739 4.13044 25.5208 3.15324 28.3728 4.79989C31.2254 6.4468 32.2036 10.0938 30.5582 12.9471L23.669 24.8932C22.5358 26.8584 20.4392 28.0684 18.1707 28.0668L8.05859 28.0592Z" fill="#FF3C5A"/>
<path d="M34.229 13.376L46.3976 34.4526C48.0444 37.3048 47.0672 40.9516 44.215 42.5984C41.3626 44.2452 37.715 43.2688 36.0668 40.4172L29.1656 28.478C28.0304 26.514 28.0308 24.0932 29.1664 22.1295L34.229 13.376Z" fill="#FFC5CE"/>
</svg>
