<svg width="184" height="48" viewBox="0 0 184 48" fill="none" xmlns="http://www.w3.org/2000/svg">
<path d="M97.108 30.298H83.31L80.7459 36.6375H71.3297L85.7341 4.007H94.8242L109.275 36.6375H99.672L97.108 30.298ZM94.4049 23.4915L90.2091 13.0497L86.0142 23.4915H94.4049Z" fill="#191D1E"/>
<path d="M109.279 4.007H124.708C135.524 4.007 142.936 10.2999 142.936 20.3222C142.936 30.3444 135.524 36.6373 124.708 36.6373H109.279V4.007ZM124.336 29.2724C129.883 29.2724 133.613 25.9622 133.613 20.3222C133.613 14.6814 129.883 11.3719 124.336 11.3719H118.509V29.2722L124.336 29.2724Z" fill="#191D1E"/>
<path d="M171.259 29.505V36.6373H145.66V4.007H171.252V11.1387H154.797V16.6393H169.294V23.5381H154.797V29.505H171.259Z" fill="#191D1E"/>
<path d="M59.014 42.3976L59.1077 43.04L59.2448 42.4612L60.2083 39.0618H60.7503L61.6904 42.4612L61.8242 43.05L61.9279 42.3943L62.684 39.0618H63.3299L62.1488 43.9334H61.5632L60.5596 40.3836L60.4828 40.0123L60.4057 40.3836L59.3652 43.9334H58.7796L57.602 39.0618H58.2444L59.014 42.3976Z" fill="#191D1E"/>
<path d="M67.4131 41.6549C67.4131 42.1322 67.3328 42.5488 67.1723 42.9046C67.0117 43.2604 66.7841 43.5321 66.4897 43.7193C66.1953 43.9065 65.8519 44.0003 65.4592 44.0003C65.0754 44.0003 64.7354 43.9059 64.4386 43.7176C64.1418 43.5293 63.9116 43.2604 63.7476 42.9111C63.5838 42.562 63.4994 42.1579 63.495 41.6983V41.3469C63.495 40.8784 63.5764 40.4647 63.7391 40.1056C63.9018 39.7466 64.1322 39.4717 64.4301 39.281C64.728 39.0903 65.0686 38.9948 65.4522 38.9948C65.8425 38.9948 66.1866 39.0892 66.4843 39.2775C66.7822 39.466 67.0113 39.7392 67.1719 40.0972C67.3324 40.4552 67.4127 40.8717 67.4127 41.3469V41.6549H67.4131ZM66.7739 41.3403C66.7739 40.7626 66.6579 40.3193 66.4259 40.0104C66.1938 39.7014 65.8694 39.547 65.4522 39.547C65.0461 39.547 64.7267 39.7014 64.4937 40.0104C64.2607 40.3193 64.1407 40.748 64.134 41.297V41.6549C64.134 42.2149 64.2516 42.6547 64.487 42.9747C64.7222 43.2949 65.0463 43.4548 65.459 43.4548C65.8738 43.4548 66.1951 43.3036 66.4225 43.0014C66.6498 42.6992 66.767 42.2659 66.7737 41.7016L66.7739 41.3403Z" fill="#191D1E"/>
<path d="M69.7864 41.9628H68.6422V43.9334H67.9965V39.0618H69.6092C70.1579 39.0618 70.5801 39.1868 70.8756 39.4365C71.1711 39.6865 71.3188 40.0501 71.3188 40.5272C71.3188 40.8305 71.2368 41.095 71.073 41.3202C70.909 41.5456 70.681 41.7137 70.3887 41.8255L71.533 43.8931V43.9332H70.8437L69.7864 41.9628ZM68.6422 41.4373H69.6291C69.9481 41.4373 70.2019 41.3547 70.3904 41.1893C70.579 41.024 70.6732 40.8027 70.6732 40.5257C70.6732 40.2239 70.5833 39.9928 70.4039 39.8318C70.2245 39.6708 69.965 39.5893 69.6261 39.5871H68.6424L68.6422 41.4373Z" fill="#191D1E"/>
<path d="M73.491 41.6682L72.8955 42.2872V43.9332H72.2533V39.0618H72.8955V41.471L75.0603 39.0618H75.8366L73.9195 41.2132L75.9871 43.9334H75.2176L73.491 41.6682Z" fill="#191D1E"/>
<path d="M77.2258 42.0264V43.9334H76.5836V39.0618H78.3802C78.9133 39.0618 79.3309 39.1979 79.6332 39.4699C79.9354 39.742 80.0866 40.1024 80.0866 40.5506C80.0866 41.0236 79.9389 41.3876 79.6434 41.643C79.3479 41.8986 78.9246 42.0262 78.3735 42.0262L77.2258 42.0264ZM77.2258 41.5009H78.3802C78.7237 41.5009 78.9868 41.42 79.1697 41.2579C79.3526 41.0961 79.4442 40.8619 79.4442 40.5558C79.4442 40.2653 79.3526 40.0329 79.1697 39.8587C78.9868 39.6845 78.7358 39.594 78.4169 39.5873H77.2258V41.5009Z" fill="#191D1E"/>
<path d="M81.5862 43.408H83.8949V43.9332H80.9406V39.0618H81.5862V43.408Z" fill="#191D1E"/>
<path d="M87.5505 42.6586H85.5095L85.0511 43.9332H84.3885L86.2487 39.0616H86.8108L88.6745 43.9332H88.0154L87.5505 42.6586ZM85.7035 42.1333H87.3597L86.5299 39.8548L85.7035 42.1333Z" fill="#191D1E"/>
<path d="M92.5026 42.3876C92.4425 42.9029 92.2522 43.3006 91.9322 43.5805C91.6119 43.8605 91.1865 44.0005 90.6558 44.0005C90.0804 44.0005 89.6192 43.7942 89.2725 43.3815C88.9255 42.9688 88.7522 42.4169 88.7522 41.7252V41.2568C88.7522 40.804 88.8331 40.4059 88.9948 40.0622C89.1566 39.7188 89.3857 39.455 89.6823 39.271C89.9791 39.087 90.3225 38.995 90.7129 38.995C91.2303 38.995 91.6451 39.1395 91.9576 39.4283C92.2698 39.7173 92.4516 40.1171 92.5028 40.6278H91.8571C91.8013 40.2386 91.6803 39.9566 91.4941 39.7821C91.3078 39.6077 91.0474 39.5203 90.7129 39.5203C90.3024 39.5203 89.9806 39.6721 89.7476 39.9757C89.5146 40.2792 89.3981 40.7114 89.3981 41.2716V41.7437C89.3981 42.2726 89.5085 42.6935 89.7294 43.0062C89.9502 43.3186 90.259 43.475 90.656 43.475C91.0129 43.475 91.2867 43.3941 91.4774 43.2325C91.6681 43.0708 91.7946 42.7892 91.8571 42.3876H92.5026Z" fill="#191D1E"/>
<path d="M96.1672 41.6816H94.0562V43.408H96.5087V43.9332H93.4138V39.0618H96.4751V39.5871H94.0562V41.1561H96.1672V41.6816Z" fill="#191D1E"/>
<path d="M100.686 43.0801L102.078 39.0618H102.78L100.973 43.9334H100.405L98.6011 39.0618H99.3006L100.686 43.0801Z" fill="#191D1E"/>
<path d="M104.156 43.9334H103.514V39.0618H104.156V43.9334Z" fill="#191D1E"/>
<path d="M108.838 41.6549C108.838 42.1322 108.758 42.5488 108.597 42.9046C108.437 43.2604 108.209 43.5321 107.915 43.7193C107.62 43.9065 107.277 44.0003 106.884 44.0003C106.5 44.0003 106.16 43.9059 105.864 43.7176C105.567 43.529 105.336 43.2604 105.173 42.9111C105.009 42.562 104.924 42.1579 104.92 41.6983V41.3469C104.92 40.8784 105.001 40.4647 105.164 40.1056C105.327 39.7466 105.557 39.4717 105.855 39.281C106.153 39.0903 106.494 38.9948 106.877 38.9948C107.268 38.9948 107.612 39.0892 107.91 39.2775C108.207 39.466 108.437 39.7392 108.597 40.0972C108.758 40.4552 108.838 40.8717 108.838 41.3469V41.6549ZM108.199 41.3403C108.199 40.7626 108.083 40.3193 107.851 40.0104C107.619 39.7014 107.294 39.547 106.877 39.547C106.471 39.547 106.152 39.7014 105.919 40.0104C105.686 40.3193 105.566 40.748 105.559 41.297V41.6549C105.559 42.2149 105.677 42.6547 105.912 42.9747C106.147 43.2949 106.471 43.4548 106.884 43.4548C107.299 43.4548 107.62 43.3036 107.847 43.0014C108.075 42.6992 108.192 42.2659 108.199 41.7016V41.3403H108.199Z" fill="#191D1E"/>
<path d="M110.345 43.408H112.653V43.9332H109.699V39.0618H110.345V43.408H110.345Z" fill="#191D1E"/>
<path d="M116.174 41.6816H114.062V43.408H116.515V43.9332H113.42V39.0618H116.481V39.5871H114.062V41.1561H116.174V41.6816Z" fill="#191D1E"/>
<path d="M121.093 43.9334H120.447L117.994 40.1794V43.9334H117.349V39.0618H117.994L120.453 42.8326V39.0618H121.092V43.9334H121.093Z" fill="#191D1E"/>
<path d="M125.577 42.3876C125.517 42.9029 125.327 43.3006 125.007 43.5805C124.687 43.8605 124.261 44.0005 123.73 44.0005C123.155 44.0005 122.694 43.7942 122.347 43.3815C122 42.9688 121.827 42.4169 121.827 41.7252V41.2568C121.827 40.804 121.908 40.4059 122.069 40.0622C122.231 39.7188 122.46 39.455 122.757 39.271C123.053 39.087 123.397 38.995 123.787 38.995C124.305 38.995 124.72 39.1395 125.032 39.4283C125.344 39.7173 125.526 40.1171 125.577 40.6278H124.932C124.876 40.2386 124.755 39.9566 124.568 39.7821C124.382 39.6077 124.122 39.5203 123.787 39.5203C123.377 39.5203 123.055 39.6721 122.822 39.9757C122.589 40.2792 122.472 40.7114 122.472 41.2716V41.7437C122.472 42.2726 122.583 42.6935 122.803 43.0062C123.024 43.3186 123.333 43.475 123.73 43.475C124.087 43.475 124.361 43.3941 124.551 43.2325C124.742 43.0708 124.869 42.7892 124.931 42.3876H125.577Z" fill="#191D1E"/>
<path d="M129.105 41.6816H126.994V43.408H129.446V43.9332H126.351V39.0618H129.412V39.5871H126.994V41.1561H129.105V41.6816Z" fill="#191D1E"/>
<path d="M132.653 42.0264V43.9334H132.01V39.0618H133.807C134.34 39.0618 134.758 39.1979 135.06 39.4699C135.362 39.742 135.513 40.1024 135.513 40.5506C135.513 41.0236 135.365 41.3876 135.07 41.643C134.774 41.8986 134.351 42.0262 133.8 42.0262L132.653 42.0264ZM132.653 41.5009H133.807C134.15 41.5009 134.414 41.42 134.597 41.2579C134.78 41.0961 134.871 40.8619 134.871 40.5558C134.871 40.2653 134.78 40.0329 134.597 39.8587C134.414 39.6845 134.163 39.594 133.844 39.5873H132.653V41.5009Z" fill="#191D1E"/>
<path d="M138.017 41.9628H136.873V43.9334H136.227V39.0618H137.84C138.388 39.0618 138.81 39.1868 139.106 39.4365C139.401 39.6865 139.549 40.0501 139.549 40.5272C139.549 40.8305 139.467 41.095 139.303 41.3202C139.139 41.5454 138.911 41.7137 138.619 41.8255L139.764 43.8931V43.9332H139.074L138.017 41.9628ZM136.873 41.4373H137.86C138.179 41.4373 138.433 41.3547 138.621 41.1893C138.809 41.024 138.904 40.8027 138.904 40.5257C138.904 40.2239 138.814 39.9928 138.634 39.8318C138.455 39.6708 138.196 39.5893 137.856 39.5871H136.873L136.873 41.4373Z" fill="#191D1E"/>
<path d="M143.237 41.6816H141.126V43.408H143.579V43.9332H140.484V39.0618H143.545V39.5871H141.126V41.1561H143.237V41.6816Z" fill="#191D1E"/>
<path d="M146.025 43.0801L147.417 39.0618H148.12L146.313 43.9334H145.744L143.941 39.0618H144.64L146.025 43.0801Z" fill="#191D1E"/>
<path d="M151.56 41.6816H149.449V43.408H151.901V43.9332H148.806V39.0618H151.868V39.5871H149.449V41.1561H151.56V41.6816Z" fill="#191D1E"/>
<path d="M156.479 43.9334H155.833L153.381 40.1794V43.9334H152.735V39.0618H153.381L155.84 42.8326V39.0618H156.479L156.479 43.9334Z" fill="#191D1E"/>
<path d="M160.923 39.5873H159.357V43.9334H158.718V39.5873H157.156V39.062H160.923V39.5873Z" fill="#191D1E"/>
<path d="M162.369 43.9334H161.727V39.0618H162.369V43.9334Z" fill="#191D1E"/>
<path d="M166.914 41.6549C166.914 42.1322 166.834 42.5488 166.673 42.9046C166.513 43.2604 166.285 43.5321 165.991 43.7193C165.696 43.9065 165.353 44.0003 164.96 44.0003C164.576 44.0003 164.236 43.9059 163.94 43.7176C163.643 43.529 163.413 43.2604 163.249 42.9111C163.085 42.562 163 42.1579 162.996 41.6983V41.3469C162.996 40.8784 163.078 40.4647 163.24 40.1056C163.403 39.7466 163.634 39.4717 163.931 39.281C164.229 39.0903 164.57 38.9948 164.953 38.9948C165.344 38.9948 165.688 39.0892 165.986 39.2775C166.284 39.466 166.513 39.7392 166.673 40.0972C166.834 40.4552 166.914 40.8717 166.914 41.3469V41.6549ZM166.275 41.3403C166.275 40.7626 166.159 40.3193 165.927 40.0104C165.695 39.7014 165.371 39.547 164.953 39.547C164.548 39.547 164.228 39.7014 163.995 40.0104C163.762 40.3193 163.642 40.748 163.635 41.297V41.6549C163.635 42.2149 163.753 42.6547 163.988 42.9747C164.224 43.2949 164.548 43.4548 164.96 43.4548C165.375 43.4548 165.696 43.3036 165.924 43.0014C166.151 42.6992 166.268 42.2659 166.275 41.7016V41.3403H166.275Z" fill="#191D1E"/>
<path d="M171.245 43.9334H170.599L168.146 40.1794V43.9334H167.501V39.0618H168.147L170.606 42.8326V39.0618H171.245V43.9334Z" fill="#191D1E"/>
<path d="M174.605 4.00049C174.92 4.00049 175.223 4.07946 175.513 4.23719C175.803 4.39514 176.031 4.62143 176.197 4.91628C176.363 5.21112 176.445 5.51964 176.445 5.84183C176.445 6.16228 176.364 6.46797 176.202 6.7587C176.039 7.04942 175.812 7.27636 175.522 7.43887C175.231 7.60137 174.925 7.68273 174.605 7.68273C174.284 7.68273 173.978 7.60137 173.687 7.43887C173.397 7.27636 173.17 7.04942 173.007 6.7587C172.845 6.46797 172.764 6.16228 172.764 5.84183C172.764 5.51964 172.846 5.21112 173.012 4.91628C173.178 4.62164 173.406 4.39514 173.696 4.23719C173.986 4.07946 174.289 4.00049 174.605 4.00049ZM174.607 4.36108C174.353 4.36108 174.111 4.42443 173.879 4.55092C173.646 4.67762 173.463 4.85943 173.329 5.09657C173.196 5.33371 173.129 5.58212 173.129 5.84161C173.129 6.09936 173.194 6.34561 173.325 6.57949C173.455 6.81337 173.637 6.99627 173.871 7.12753C174.105 7.25901 174.351 7.32453 174.607 7.32453C174.865 7.32453 175.111 7.25879 175.344 7.12753C175.577 6.99605 175.759 6.81337 175.891 6.57949C176.022 6.34561 176.088 6.09957 176.088 5.84161C176.088 5.58191 176.021 5.33349 175.887 5.09657C175.753 4.85921 175.57 4.67762 175.337 4.55092C175.103 4.42443 174.86 4.36108 174.607 4.36108ZM173.773 4.8731H174.169C174.541 4.8731 174.749 4.87462 174.794 4.87787C174.926 4.88916 175.028 4.91519 175.101 4.9562C175.174 4.99698 175.234 5.05947 175.283 5.14365C175.332 5.22783 175.357 5.32112 175.357 5.42374C175.357 5.56477 175.31 5.6854 175.219 5.78542C175.126 5.88543 174.997 5.94748 174.831 5.97178C174.89 5.99413 174.935 6.01865 174.967 6.0449C175 6.07137 175.044 6.12149 175.1 6.19525C175.114 6.21456 175.162 6.29375 175.244 6.43304L175.474 6.82726H174.984L174.821 6.51006C174.71 6.29701 174.619 6.16271 174.547 6.1076C174.475 6.05228 174.383 6.02472 174.273 6.02472H174.169V6.82747H173.773V4.8731ZM174.169 5.71664H174.33C174.56 5.71664 174.702 5.70774 174.757 5.69017C174.813 5.67281 174.856 5.64179 174.888 5.59753C174.92 5.5537 174.936 5.50337 174.936 5.44739C174.936 5.39315 174.921 5.34455 174.89 5.30203C174.858 5.25951 174.814 5.22913 174.756 5.21069C174.698 5.19225 174.557 5.18314 174.331 5.18314H174.169L174.169 5.71664Z" fill="#191D1E"/>
<path d="M21.0629 26.6637C23.8925 25.5327 26.8356 24.4526 29.8819 23.4268L34.051 13.0497L37.29 21.1106C39.8887 20.3586 42.5628 19.6522 45.3006 18.9879L38.6662 4.00678H29.576L19.248 27.4026C19.8484 27.154 20.4528 26.9075 21.0629 26.6637Z" fill="#191D1E"/>
<path d="M76.4271 13.9151L80.6737 4.00678H71.5369L66.8722 14.9711C69.986 14.5575 73.1745 14.2069 76.4271 13.9151Z" fill="#191D1E"/>
<path d="M58.7208 16.2092L53.6364 4.00678H43.6606L49.6328 17.9883C52.5883 17.3416 55.6131 16.7436 58.7208 16.2092Z" fill="#191D1E"/>
<path d="M39.8119 27.4384L40.9499 30.2977L43.5139 36.6373H53.117L47.4383 23.8185C44.7699 24.9877 42.221 26.1976 39.8119 27.4384Z" fill="#191D1E"/>
<path d="M74.3866 14.715C74.3166 14.7326 74.246 14.7511 74.176 14.7686C73.5105 14.9359 72.8428 15.1088 72.1734 15.2854C71.9894 15.334 71.8057 15.3824 71.6215 15.4317C70.8812 15.6295 70.1396 15.8311 69.3953 16.0402C69.3868 16.0426 69.3783 16.045 69.3699 16.0474C68.233 16.367 67.1085 16.697 65.9933 17.0341L62.4931 25.2634L59.8848 19.0028C59.7872 19.0362 59.6889 19.0694 59.5913 19.1028C59.3531 19.1848 59.1157 19.2673 58.8788 19.35C58.605 19.4456 58.332 19.5417 58.06 19.6385C57.8393 19.7168 57.6185 19.7952 57.3987 19.8741C57.0756 19.9902 56.7545 20.1076 56.4341 20.225C56.2688 20.2855 56.1026 20.3454 55.9381 20.4063C54.3997 20.9759 52.8907 21.5601 51.4141 22.1576L57.5987 36.6373H66.6889L76.2809 14.2547C75.6509 14.405 75.0204 14.5564 74.3866 14.715Z" fill="#191D1E"/>
<path d="M69.3947 16.045C72.709 15.1136 75.986 14.2953 79.2056 13.5847C56.5429 16.4143 37.361 22.0915 21.6935 29.2381C20.5606 29.7549 19.446 30.2793 18.35 30.8109C15.0615 32.4055 11.9384 34.0646 8.98076 35.7741C8.49564 36.0544 8.02896 36.3401 7.55273 36.623H25.2428C35.0062 28.8858 50.803 21.2696 69.3947 16.045Z" fill="url(#paint0_linear_3_6992)"/>
<defs>
<linearGradient id="paint0_linear_3_6992" x1="12.017" y1="37.0377" x2="79.1284" y2="11.7791" gradientUnits="userSpaceOnUse">
<stop stop-color="#C62433"/>
<stop offset="1" stop-color="#B21F2D"/>
</linearGradient>
</defs>
</svg>
