<svg width="160" height="160" viewBox="0 0 160 160" fill="none" xmlns="http://www.w3.org/2000/svg">
<path d="M79.5885 4.21218C79.762 4.87656 78.9962 4.5964 78.7481 4.98062C79.0282 6.41078 79.4471 7.80357 80.0048 9.16702C80.2503 9.09498 80.2156 8.81215 80.3543 8.63872C80.7759 7.48873 81.0854 6.26669 81.5417 5.11937C81.611 4.4203 80.3917 4.98062 80.7759 4.1775C81.3656 3.9 82.1687 4.1775 82.8998 4.0761C83.2466 4.11079 83.6335 4.03875 83.839 4.28156C84.0151 5.22343 82.8304 4.52703 82.6917 5.29547C81.8192 7.28328 81.2268 9.40716 80.2849 11.3629C80.0421 11.5711 79.5885 11.499 79.2363 11.4643L79.0282 11.2536C78.3345 9.19904 77.7768 7.06715 76.939 5.08201C76.6962 4.63109 75.6823 4.98062 75.9945 4.21218C76.835 3.96938 77.8809 4.21218 78.7481 4.00139C79.0656 4.00139 79.4124 3.96938 79.5885 4.21218ZM87.7452 4.38828C87.924 4.45766 87.9533 4.69779 87.8493 4.87656C87.6065 5.32749 86.806 4.83921 86.7713 5.50359C86.702 7.28328 86.3844 8.95357 86.3844 10.7333C86.6299 11.0828 87.3983 11.0481 87.1529 11.6031C86.0723 11.8486 84.957 11.5337 83.839 11.499C83.7029 11.3629 83.7349 11.1175 83.839 10.9734C84.1565 10.7333 84.6795 10.9734 84.8529 10.5225C84.9916 8.70809 85.3065 6.93107 85.2371 5.08201C84.9916 4.80452 84.5407 5.01798 84.3993 4.5964C84.3646 4.3536 84.5727 4.21218 84.7862 4.1775C85.7574 4.24687 86.7313 4.38828 87.7452 4.38828ZM95.2428 5.63967C95.6271 6.23734 95.2082 7.00311 95.1014 7.62747C95.0487 7.69265 94.9758 7.73849 94.8942 7.75781C94.8126 7.77712 94.7269 7.76882 94.6505 7.7342C94.301 7.24592 94.5091 6.51217 93.9168 6.09593C93.3244 5.57296 92.2812 5.53828 91.5501 5.81577C90.256 6.68827 90.224 8.25717 90.2907 9.72467C90.5015 10.5945 91.1979 11.395 92.105 11.6031C92.9055 11.7071 93.5699 11.499 94.1275 11.0828C94.301 11.0481 94.4744 11.1175 94.4744 11.2909C94.301 11.8832 93.6366 12.2328 93.183 12.649C91.5501 12.9292 89.8398 12.4409 89.0019 10.9734C88.1641 9.51122 88.5137 7.38467 89.4555 6.09593C90.328 4.94327 91.6515 4.66311 93.0469 4.87656C93.8127 5.08201 94.5464 5.32749 95.2428 5.63967ZM67.3815 6.68827C67.4536 6.89639 67.2455 7.10451 67.0694 7.13919C66.4103 7.0378 66.3356 5.67702 65.3964 6.30405C65.223 6.44279 64.9081 6.3414 64.8041 6.65358C64.8041 7.31529 65.0122 7.87295 65.1162 8.46529C65.2577 8.74545 65.5378 8.50264 65.7459 8.53466C66.0581 8.25717 65.8847 7.42202 66.5464 7.69951L66.7572 7.94499C66.7572 8.67874 67.0027 9.40716 67.0027 10.1062C66.8612 10.245 66.6158 10.2076 66.477 10.1409C66.2689 9.79138 66.0581 9.19904 65.5031 9.4792C65.1883 9.68732 65.327 10.1062 65.3617 10.4211C65.5698 10.8373 65.4284 11.4297 65.7806 11.7792C66.3356 11.6378 67.0694 11.7792 67.4536 11.2536C67.5256 10.8373 67.5576 10.3837 67.9072 10.1409C68.1153 10.1409 68.3261 10.1756 68.3608 10.3517C68.222 11.0481 68.5716 11.99 68.0112 12.4409C66.5464 12.7931 65.0122 13.0012 63.6194 13.2467C63.5127 13.2787 63.4086 13.1373 63.4086 13.0706C63.4433 12.4409 64.6653 12.3715 64.1077 11.499C63.7555 9.96748 63.6194 8.36123 63.2699 6.8617C62.9924 6.44279 62.0505 6.82701 62.2586 6.09593L62.5708 5.91983C63.8649 5.60765 65.2923 5.53828 66.5811 5.18874C67.2775 5.29547 67.1067 6.1653 67.3815 6.68827ZM72.9261 7.80357C72.7974 7.91045 72.6468 7.98763 72.4849 8.0296C72.323 8.07157 72.1539 8.0773 71.9895 8.04638C71.672 7.59545 71.672 7.0378 71.6373 6.48015C71.7094 6.06124 71.4639 5.50359 71.8481 5.25811C72.3711 5.18874 72.8914 5.29547 73.1022 5.81577C73.1715 6.41078 73.3823 7.28328 72.9261 7.80357ZM76.835 11.3283C75.7517 10.3837 74.8792 9.61795 73.94 8.53466L73.9053 8.25717C74.2868 7.9103 74.6017 7.52608 74.7751 7.06715C74.9139 6.51217 74.9139 5.78375 74.6017 5.29547C73.3823 3.34235 71.013 4.98062 69.1639 4.69779L68.9531 4.87656C68.7103 5.60765 69.6522 5.32749 69.9644 5.63967C70.2098 7.38467 70.4873 9.12967 70.5567 10.944C70.4206 11.3283 69.9644 11.2536 69.7189 11.499C69.6522 11.6378 69.6175 11.9153 69.7909 12.0247C70.9409 12.1287 71.9895 11.7445 73.1368 11.7071C73.6598 10.8026 72.3337 11.2909 72.0936 10.7333L71.8801 9.06029C71.9522 8.88419 72.1256 8.81215 72.299 8.84951L74.7404 11.3283C75.3675 11.5337 75.9945 11.7445 76.6589 11.8139C76.867 11.7792 76.9043 11.499 76.835 11.3283ZM101.345 7.17655C101.463 7.81373 101.339 8.47188 100.998 9.02294C100.75 9.09498 100.577 8.92155 100.475 8.74545C100.368 8.36123 100.51 7.87295 100.054 7.7342C99.7041 7.66483 99.3225 7.34998 99.0103 7.59545C98.6955 8.18779 98.346 8.84951 98.4847 9.51122C98.6955 9.61795 98.941 9.68732 99.1464 9.61795C99.3572 9.37247 99.6347 8.95357 99.9842 9.19904C100.195 9.37247 99.9842 9.58059 99.9842 9.79138L99.4959 11.5337C99.3572 11.7071 99.1464 11.7445 98.941 11.6725C98.6608 11.3283 99.077 10.5225 98.3806 10.4878C97.7883 10.4504 97.9991 11.0828 97.7883 11.3629C97.8604 11.8832 97.0572 12.5129 97.823 12.8251C98.4527 12.8918 99.2531 13.3454 99.6721 12.5129C99.7414 12.3715 99.8802 12.1954 100.054 12.1581C100.264 12.1581 100.475 12.2675 100.51 12.5129C100.016 13.1026 99.9149 14.5007 98.8342 14.1859C97.5802 13.767 96.2541 13.4895 94.9627 13.1373C94.896 13.0012 94.7892 12.8251 94.896 12.7184C95.2082 12.3368 95.8699 12.7557 96.0113 12.1954C96.4996 10.4211 97.1239 8.67874 97.4041 6.89639C97.2307 6.61623 96.6383 6.68827 96.7797 6.1653C96.8838 5.88247 97.2307 6.02656 97.4041 6.06124C98.6955 6.48015 100.088 6.68827 101.345 7.17655ZM60.5163 8.22248C60.5856 8.43327 60.4095 8.6067 60.2708 8.67874C59.5744 8.74545 59.7452 7.80357 59.0861 7.69951C58.7366 7.56077 58.3897 7.7342 58.0749 7.83826C57.6933 8.11842 57.6586 8.56935 57.7627 8.98825C58.6325 10.4211 60.7964 9.5459 61.6663 11.1495C62.0825 11.8486 62.0505 12.8251 61.5622 13.4521C60.6897 14.5328 59.2249 14.8796 57.9681 14.5007C57.5592 13.9972 57.3385 13.367 57.3438 12.7184C57.4825 12.5503 57.7253 12.4729 57.9014 12.617C58.1442 13.1747 58.7366 13.8364 59.4357 13.8017C59.7825 13.6576 60.3055 13.5909 60.4095 13.1373C60.4095 12.617 60.5163 12.0593 59.9933 11.7445C58.7366 10.944 56.5033 11.3629 56.1911 9.37247C56.0897 8.56935 56.5033 7.83826 57.1677 7.38467C58.0055 6.89639 58.9821 6.61623 59.9933 6.68827C60.3749 7.10451 60.3428 7.69951 60.5163 8.22248ZM107.829 9.44185C107.794 10.1062 107.482 10.7679 107.098 11.3283C106.89 11.3629 106.681 11.2189 106.575 11.0481C106.575 10.6292 106.748 10.0315 106.436 9.68732C106.225 9.40716 105.876 9.33779 105.529 9.3031C105.145 9.26574 104.832 9.54591 104.691 9.86075C104.344 11.6725 107.098 12.5503 106.364 14.4634C106.193 15.2345 105.355 15.7868 104.656 15.9629C103.368 16.0296 102.111 15.5787 101.377 14.4287C101.695 13.8711 101.623 13.1026 102.079 12.7184C102.287 12.6864 102.428 12.7557 102.567 12.9292C102.53 13.4521 102.391 14.0125 102.703 14.4634C102.908 14.7499 103.203 14.9594 103.541 15.0584C103.922 15.1251 104.168 14.9543 104.448 14.7409C104.795 14.4287 104.832 13.9031 104.728 13.4521C104.133 12.1287 102.183 10.9734 103.226 9.3031C103.541 8.77746 104.133 8.46529 104.691 8.36123C105.948 8.22248 106.852 8.92155 107.829 9.44185ZM51.0682 9.93013C51.2043 10.5598 50.1583 10.4878 50.5079 11.1175L52.8452 16.6273C52.9146 17.0809 52.3916 17.0088 52.1808 17.2196L51.7646 17.1823C50.2122 16.1636 48.6179 15.2102 46.9859 14.3246V14.7089L48.4854 17.7399C48.6268 17.9827 49.0084 17.916 49.2191 17.8093C49.3232 17.7399 49.5313 17.6706 49.6727 17.7746C49.8115 17.916 49.8808 18.1268 49.8115 18.3003L47.2313 19.6237C47.0232 19.6584 46.9512 19.4823 46.8818 19.3462C46.7777 18.7859 47.893 18.7165 47.4048 18.0548C46.7777 16.5206 45.9773 15.021 45.2409 13.5562C44.9313 13.1373 43.7787 13.8711 44.0242 12.9639C44.6165 12.5503 45.3129 12.3048 45.9399 11.9526L46.2895 11.99L50.5452 14.6368H50.7507V14.29C50.2651 13.2787 49.9502 12.1581 49.2512 11.2909C48.9763 11.2909 48.7655 11.4643 48.4507 11.395C48.3119 11.2909 48.1705 11.1175 48.2452 10.944L48.5548 10.6959C49.3232 10.4211 50.0196 9.89544 50.8921 9.79138L51.0682 9.93013ZM117.314 13.9751C117.488 14.0792 117.525 14.29 117.456 14.4634C117.071 14.9543 116.687 14.2179 116.266 14.5995C115.43 15.9629 114.384 17.2196 114 18.7859C114 19.4476 114.312 20.0426 114.91 20.3574C115.43 20.6696 116.199 20.5309 116.652 20.1466C117.872 18.9967 118.672 17.6706 119.371 16.3124C119.337 15.8962 118.568 15.6507 119.091 15.2345L119.406 15.2638L121.431 16.6273C121.498 16.7981 121.498 17.0809 121.252 17.1476C120.94 17.1823 120.697 16.9048 120.38 17.0409C119.161 18.6471 118.048 21.1926 115.777 21.4034C114.454 21.366 113.165 20.5309 112.677 19.2768C112.33 17.1129 113.966 15.6134 114.91 13.871C115.084 13.4148 113.899 12.8918 114.803 12.617L117.314 13.9751ZM111.039 14.1139C111.096 14.2828 111.104 14.4647 111.061 14.6379C111.018 14.8111 110.926 14.9682 110.796 15.0904C110.55 15.3359 110.166 15.3359 109.819 15.2638C109.629 15.1396 109.485 14.9564 109.409 14.7423C109.334 14.5283 109.331 14.2952 109.4 14.0792C109.502 13.8364 109.747 13.695 109.958 13.6256C110.412 13.5562 110.862 13.695 111.039 14.1139ZM40.6729 19.5543H40.6062C40.5342 19.0313 40.222 18.5431 40.294 18.0201C40.7476 18.2255 41.1318 18.5804 41.5134 18.9246C41.444 19.3088 40.9531 19.4823 40.6729 19.5543ZM45.0701 19.6237C43.3176 18.3649 41.597 17.0624 39.9098 15.7174C39.4535 15.4399 38.9679 15.9629 38.7918 16.3471C39.1067 18.471 39.699 20.4615 40.0485 22.588C40.2567 23.111 39.5576 23.3885 39.4909 23.8768C39.5282 24.0502 39.7337 24.1569 39.8751 24.1569L42.2125 22.5534L42.2792 22.2065C42.071 21.6809 41.5828 22.1691 41.2706 22.1691C40.9531 21.889 41.0278 21.5101 40.8864 21.1579C40.7796 20.3201 41.8629 20.2507 42.3512 19.7651C42.8395 19.6584 43.117 20.2881 43.5359 20.4935C43.7787 20.9498 42.9756 21.0512 43.117 21.5101C43.1863 21.6809 43.3971 21.8196 43.6053 21.7155C44.5124 21.0885 45.5237 20.6696 46.3935 20.0426C46.4309 18.9967 45.5584 19.9038 45.0701 19.6237ZM126.309 20.1093C126.309 20.7043 125.684 21.1579 125.263 21.6462C125.055 21.7876 124.879 21.6088 124.74 21.4354C124.844 20.8457 125.367 20.0426 124.636 19.5543C124.356 19.3809 124.009 19.1381 123.624 19.3462C123.379 19.4476 123.206 19.7651 123.067 19.9732C122.891 21.6462 124.636 23.111 123.347 24.6772C122.891 25.1682 122.336 25.3443 121.706 25.4137C120.521 25.4137 119.406 24.5732 118.918 23.4926C118.392 22.7295 119.441 22.1691 119.79 21.5421C120.033 21.4727 120.174 21.6809 120.279 21.8196C120.033 22.3773 119.857 23.1484 120.137 23.738C120.38 24.0155 120.625 24.2557 120.972 24.3304C121.431 24.3651 121.847 24.0502 122.09 23.634C122.616 21.9263 120.556 20.6696 121.743 18.9967C122.128 18.4363 122.651 18.3003 123.171 18.1588C124.532 18.0895 125.508 19.2048 126.309 20.1093ZM34.4693 19.4823C34.6108 19.9732 33.7383 20.1466 34.0504 20.6002C35.2351 21.9263 36.5265 23.3538 37.922 24.5038C38.3729 24.6479 38.8986 23.8448 39.1787 24.5385L39.1414 24.856L36.5639 26.7718C36.3878 26.8091 36.2117 26.7371 36.145 26.5637C36.1076 26.1448 36.7 25.934 36.5265 25.5151C35.6887 24.5732 34.9229 23.7034 34.0158 22.9029C33.8423 23.111 34.0158 23.3538 34.0504 23.5299C34.4693 24.816 34.9229 26.038 35.4486 27.2601C35.4779 27.5029 35.4486 27.751 35.2031 27.8551C34.5387 27.7857 34.0878 27.2601 33.4928 27.0173C32.5509 26.5637 31.7158 25.9686 30.7045 25.6938V25.8993L32.8658 28.6182C33.25 28.7596 33.7703 28.0952 34.0158 28.6902L33.9811 28.8983L32.0626 30.606C31.8892 30.71 31.6464 30.6433 31.609 30.4352C31.4356 29.9443 32.2387 29.7388 31.9239 29.2799C30.878 27.8551 29.832 26.4222 28.682 25.0615C28.1591 24.9227 27.7402 25.8673 27.3559 25.1682L27.428 24.9227L29.2023 23.2844H29.6239C30.9153 23.9462 32.0973 24.7146 33.4234 25.2002C33.5622 25.1335 33.5301 24.9227 33.4928 24.784C33.0392 23.4552 32.5189 22.2065 32.1694 20.8084C32.7617 20.2507 33.4581 19.7651 34.1598 19.3088C34.2586 19.3809 34.4 19.3462 34.4693 19.4823ZM139.943 28.0952C140.746 31.5852 138.895 34.4082 136.805 36.9163L133.561 40.1261L101.588 67.0455C98.5194 70.0046 94.3703 72.1311 92.4172 76.0027C90.4294 80.9548 89.3488 86.2912 88.6551 91.7637C88.1641 95.7019 86.4912 99.4641 82.8651 101.807C80.0421 104.141 76.2746 104.141 72.4751 104.069L59.5744 104.176C58.6699 104.312 57.7253 104.667 57.205 105.572C56.8875 105.956 57.0636 106.999 56.2285 106.719C55.983 106.655 55.6361 106.583 55.6682 106.196C55.5641 103.269 55.8096 100.203 58.3177 98.2501C59.6785 97.2041 61.4928 97.1348 63.2352 96.9587C68.1873 97.0627 73.0328 96.8173 77.9476 96.8519C79.0656 96.7505 80.1115 96.2596 80.7012 95.251C81.5043 93.1245 81.4029 90.651 81.9232 88.4178C82.7263 83.2895 83.839 78.268 85.688 73.5613C86.5605 71.4721 88.1294 69.5536 90.0105 67.95L101.206 58.5713L109.331 51.6634L122.128 40.8225C127.493 36.1852 134.78 31.0622 135.69 23.8448C135.898 23.3165 136.424 23.738 136.736 23.8448C138.268 24.784 139.732 26.3182 139.943 28.0952Z" fill="#323A45"/>
<path d="M128.123 26.7718C127.811 26.633 127.392 26.3876 127.357 26.0033C127.773 25.7232 128.224 25.5151 128.715 25.3763C128.683 25.8673 128.403 26.3555 128.123 26.7718ZM130.949 24.0902C130.703 23.8074 130.423 23.3165 129.972 23.4259C127.915 24.4344 125.924 25.6191 123.801 26.4222C123.486 26.3182 123.243 26.1101 122.891 26.1448C122.755 26.2115 122.616 26.3182 122.685 26.529C123.206 27.2601 124.043 27.6096 124.636 28.2713C124.844 28.4074 125.159 28.4447 125.297 28.2019C125.404 27.8844 125.159 27.711 125.02 27.5029C124.948 27.0173 125.65 26.8758 126.029 26.6651C126.656 26.6651 127.112 27.4335 127.603 27.8551C127.493 28.306 127.424 28.7943 127.042 29.1411C126.656 29.2132 126.517 28.829 126.138 28.8983C125.962 29.0051 125.82 29.2505 125.924 29.4587L128.158 31.6199L128.438 31.6866C128.646 31.6519 128.854 31.4438 128.785 31.1983C127.915 30.155 129.134 29.0691 129.342 28.0285C129.831 26.6997 130.53 25.4484 130.949 24.0902ZM26.6569 26.3555C26.7983 26.7718 26.1713 26.9079 26.4514 27.2974C27.7748 28.5168 29.2744 29.8028 29.8694 31.4091C30.1122 32.5618 29.5519 33.5703 28.7167 34.3041C28.0203 34.8938 27.1158 35.2433 26.2059 35.0032C24.6744 34.3735 23.4524 33.0127 22.1289 31.8654C21.7447 31.8654 21.2191 32.4203 20.9736 31.8654L21.0483 31.6199L22.86 29.5254C22.9267 29.4586 23.0681 29.4933 23.1722 29.4933C23.3803 29.6294 23.3803 29.9096 23.311 30.1204C23.1722 30.2591 23.1375 30.4352 23.1375 30.6433C24.3942 31.7907 25.5789 33.2208 27.1158 33.7091C27.7055 33.7811 28.1591 33.6424 28.5433 33.2208C28.9275 32.8393 29.2023 32.2789 28.9622 31.756C28.3005 30.2911 26.8356 29.1038 25.5789 28.0952C25.1974 27.9218 24.3222 28.8636 24.3942 27.9218C24.9839 27.2974 25.6136 26.5637 26.31 26.1101C26.4514 26.1101 26.5902 26.2115 26.6569 26.3555ZM149.671 38.768C149.847 42.218 147.337 44.6247 144.965 46.9247L135.757 55.0466C131.934 58.2396 128.133 61.4593 124.356 64.7055L106.785 79.562C103.888 82.1395 103.541 85.8376 102.703 89.3223C102.46 90.7498 102.183 92.1826 102.041 93.6474C102.079 95.1096 103.784 95.9101 103.472 97.479C102.495 99.5388 101.03 101.388 100.195 103.48C100.296 103.968 100.542 104.526 101.03 104.694C102.041 105.153 103.472 104.734 104.101 105.889C104.24 106.69 103.541 107.8 104.376 108.429C104.763 109.094 106.089 108.152 105.841 109.235C105.494 109.513 105.425 109.929 105.529 110.35C105.982 110.905 106.994 111.359 106.681 112.263C106.26 113.173 106.575 114.251 107.028 114.982C109.227 117.704 113.13 116.38 116.164 116.311C118.606 116.38 121.29 116.311 122.651 118.608C123.379 119.83 123.206 121.679 122.651 122.931C120.1 127.397 114.803 128.094 111.804 132.211C110.55 133.985 110.967 136.707 111.876 138.521C113.2 140.578 115.361 141.486 117.837 141.099L120.209 140.437C120.484 140.544 120.625 140.816 120.764 141.035C120.871 141.515 120.279 141.798 119.998 142.04C116.826 144.346 113.549 146.504 109.363 146.296C106.852 145.875 104.275 143.681 103.613 141.136C102.879 138.833 103.226 136.01 104.795 134.161C107.517 131.197 110.967 129.633 113.581 126.562C114.419 125.372 114.665 123.598 113.934 122.307C111.666 118.366 106.644 119.902 102.845 120.007C101.308 119.902 99.6027 119.169 99.1144 117.568C98.6955 116.311 99.6347 114.881 98.7996 113.8C98.1725 113.483 97.3 113.101 97.1239 112.335C96.9158 111.743 98.0685 111.359 97.3721 110.977C96.9536 110.99 96.5447 110.851 96.2194 110.588C96.0113 110.276 95.7311 109.894 95.9072 109.44C96.1153 108.675 97.0199 108.152 96.7797 107.245C95.5577 105.71 93.4632 107.938 92.3852 105.991C91.6515 104.283 93.3938 103.13 93.9861 101.735C94.8266 100.27 96.6703 98.9465 95.9392 97.0974C95.4883 96.2596 94.7546 95.5659 94.8266 94.5546C94.7199 93.5754 94.9974 92.7749 95.0668 91.8704C95.4883 88.5245 96.3235 85.3493 96.9505 82.0701C97.7883 78.5855 100.614 75.6585 103.541 73.2864L127.915 52.68L139.908 42.1112C142.489 39.5658 145.312 37.055 145.141 33.3275C145.312 32.946 145.696 33.2208 145.939 33.3275C147.892 34.5469 149.426 36.5347 149.671 38.768ZM20.3466 33.4316C20.3466 33.7811 19.9677 34.0239 20.1758 34.4082L24.533 37.5433C25.0533 37.7888 25.4055 36.5347 25.8591 37.3352L25.787 37.7194L23.9753 40.0194C23.8019 40.1608 23.6231 39.9847 23.5217 39.8486C23.4177 39.4964 23.7645 39.1816 23.6978 38.8694C23.1235 38.3872 22.5173 37.9441 21.8835 37.5433C21.3231 37.6527 21.1871 38.277 20.8375 38.6613C20.5921 38.9761 20.3146 39.2883 20.2452 39.7072L22.1289 40.9612C22.6172 40.9959 22.9641 40.0567 23.3803 40.6838C22.9641 41.7297 22.1956 42.6342 21.5686 43.5441C21.3605 43.5787 21.1177 43.5067 21.083 43.2986C21.2538 42.845 21.5686 42.1112 20.8375 41.9058L16.8246 39.323C16.3043 39.2189 15.9574 40.3369 15.4985 39.6405C15.8854 38.6266 16.5844 37.7541 17.2461 36.8469C17.4196 36.7775 17.7344 36.7775 17.8038 37.023C17.8038 37.4072 17.2808 37.8581 17.8385 38.1383C18.3961 38.4184 18.8497 38.9761 19.4768 38.9761L20.8375 37.023C20.5574 36.3586 19.8263 36.1131 19.3033 35.7316C18.7777 35.4888 18.3614 36.6388 17.9425 35.9424C18.3614 34.9311 19.1966 34.0933 19.8957 33.2208C20.0691 33.1888 20.2772 33.2208 20.3466 33.4316ZM16.2002 51.007C15.5732 51.1431 14.8768 51.0764 14.4552 50.5854C14.3165 50.3746 14.143 50.2012 14.1777 49.9584C15.1108 49.3523 16.203 49.0375 17.3155 49.0539L17.4196 49.1553C17.3938 49.543 17.268 49.9175 17.0542 50.242C16.8405 50.5666 16.5463 50.8302 16.2002 51.007ZM13.3052 48.3895C12.8863 48.4562 12.4327 48.5976 12.0138 48.4269C11.7016 48.2854 11.5629 47.9359 11.6669 47.589C11.9124 47.0661 12.7476 47.0287 13.0624 47.4796C13.2012 47.7625 13.4786 48.04 13.3052 48.3895ZM19.338 46.439C18.9538 46.295 18.8844 46.7512 18.711 46.9247C18.4655 47.1675 18.1853 47.3436 17.8385 47.2715C17.4889 47.1354 17.4543 46.6792 17.2461 46.439C16.7579 45.5292 15.7786 45.2197 14.9088 45.3904C14.2844 45.5292 14.4899 46.2603 14.3858 46.7139C14.7354 47.2342 15.0155 46.295 15.5732 46.5404C16.0961 46.6125 16.7205 46.8553 16.8593 47.3809C16.339 47.517 15.816 47.6557 15.293 47.7625C14.8768 47.7625 14.5593 48.2854 14.143 48.0747C14.0363 47.3116 13.9669 46.4017 13.0944 46.0895C12.5368 45.9161 11.8777 45.9855 11.4588 46.4711C10.7251 47.2048 10.4129 48.3575 10.7971 49.334C11.0218 49.7094 11.3834 49.983 11.8057 50.0971C12.294 50.2359 12.9584 49.9958 13.4119 50.3053C13.444 51.1778 13.6547 52.0823 14.5273 52.5359C15.1516 52.816 15.9894 52.9574 16.5844 52.5359C17.1516 52.1681 17.599 51.6426 17.8716 51.024C18.1442 50.4054 18.23 49.7206 18.1186 49.0539C18.2227 48.8084 18.5002 48.8084 18.711 48.7364C19.6182 48.4562 19.2339 47.3436 19.5114 46.6498L19.338 46.439ZM8.60119 55.4656C8.60119 55.7804 8.49179 56.1646 8.87601 56.306C10.621 56.7916 12.294 57.3813 14.0737 57.7335C14.3858 57.4907 14.4205 56.861 14.9435 56.9678L15.1516 57.2826C14.8047 58.2912 14.5272 59.3718 14.1057 60.3484C14.0579 60.3658 14.0071 60.3733 13.9564 60.3704C13.9056 60.3675 13.856 60.3543 13.8106 60.3315C13.7651 60.3088 13.7248 60.2771 13.692 60.2382C13.6593 60.1993 13.6348 60.1542 13.6201 60.1055C13.516 59.724 13.8629 59.1637 13.2705 59.0916C12.5368 59.0569 12.0138 58.4993 11.248 58.638C10.8169 59.4059 10.5883 60.2709 10.5837 61.1515C11.2827 61.4637 12.0859 61.533 12.8543 61.7412C13.2358 61.4983 13.2012 60.6632 13.8255 60.978C14.0043 61.533 13.6868 62.0907 13.5507 62.6163C13.1318 63.1393 13.6868 64.6388 12.6061 64.3933C12.2246 64.0091 12.8863 63.278 12.1899 63.1686C10.4796 62.6857 8.77195 62.3362 7.02962 61.9519C6.71477 62.2294 6.71477 62.9312 6.1918 62.8244C5.84227 62.7177 6.01837 62.2668 6.08508 62.0213C6.26118 61.1168 6.47197 60.2443 6.78681 59.4091C6.89087 59.2677 7.16836 59.3024 7.27509 59.4091C7.55259 59.756 7.02962 60.3484 7.69133 60.4898C8.38773 60.4177 9.29759 61.3943 9.71382 60.4551L10.2021 58.3605C9.67914 57.9416 8.94805 57.979 8.32103 57.6988C7.72602 57.6642 7.72602 59.0223 7.13368 58.2218C7.44853 57.1732 7.58727 55.9885 8.17961 55.0867C8.42509 55.0093 8.60119 55.2227 8.60119 55.4656Z" fill="#323A45"/>
<path d="M143.884 55.9512C145.245 58.4326 145.245 62.0907 143.393 64.324C141.966 66.1357 140.293 67.5658 138.585 69.2041L119.337 85.24C116.444 87.4759 115.43 90.6831 115.641 94.2398C115.641 95.3204 116.615 96.0541 116.199 97.1695C115.745 98.1807 115.292 99.224 114.734 100.203C114.665 100.55 114.665 101.006 114.942 101.284C115.673 101.839 117.346 101.388 117.207 102.85C117.175 103.269 117.071 103.691 117.279 104.037C117.592 104.945 119.091 103.755 118.744 105.046C118.499 105.291 118.499 105.678 118.568 105.991C119.056 106.794 120.174 106.34 120.556 107.245C120.66 108.256 120.871 109.513 122.024 109.822C123.974 110.276 125.65 109.403 127.323 108.816C130.949 107.068 134.991 106.129 139.383 106.511C142.662 106.999 145.554 108.539 148.866 109.024C151.099 109.513 153.647 109.126 155.843 109.024C156.123 109.16 155.912 109.44 155.808 109.617C152.214 113.907 147.577 117.669 141.827 116.311C137.99 115.58 134.922 112.963 131.157 111.989C125.578 111.145 121.533 114.982 115.985 114.115C114.873 113.971 113.934 113.208 113.373 112.197C112.85 111.255 113.339 110.068 113.269 109.059C112.885 108.36 111.388 108.464 111.772 107.317C111.804 107.068 112.293 106.863 111.908 106.618C111.524 106.583 111.143 106.583 110.828 106.303C110.025 105.534 111.388 104.176 110.201 103.616C109.085 103.549 107.586 103.931 107.098 102.645C106.89 101.735 107.447 101.006 107.829 100.27C108.352 99.1573 109.502 98.2501 109.363 96.8519C109.085 96.0541 108.458 95.4565 108.421 94.5866C109.085 89.7065 109.016 84.4048 113.653 81.2697L132.413 65.474C135.618 62.6483 139.036 60.2096 142 56.9677C142.454 56.4101 142.699 55.711 143.185 55.1881C143.604 55.2227 143.708 55.6763 143.884 55.9512Z" fill="#323A45"/>
<path d="M7.79539 64.0812C7.89945 64.4627 7.48321 64.5668 7.23774 64.6708C6.92289 64.7429 6.47197 64.6708 6.36524 65.0897C6.43461 65.474 6.05306 65.9996 6.54134 66.2077C8.2143 66.5572 9.92461 66.9041 11.6323 67.0455C11.9444 66.728 11.8777 65.8555 12.5741 66.1357C12.8169 66.5572 12.4701 67.0455 12.4701 67.5311C12.3313 68.2275 12.294 69.0307 12.0138 69.6924C11.9565 69.7278 11.8904 69.7466 11.823 69.7466C11.7556 69.7466 11.6896 69.7278 11.6323 69.6924C11.2133 69.3829 11.8057 68.5424 11.1093 68.4703C9.36429 68.2969 7.7607 67.846 6.01837 67.6699C5.70619 68.0514 5.81025 68.6118 5.77557 69.0627C6.08508 69.4122 6.92289 69.4122 6.75213 70.0766C6.50665 70.3247 6.1918 70.0766 5.91431 70.1113C5.45805 69.9032 4.79901 70.0766 4.55353 69.5536C5.04181 67.7393 5.14587 65.7568 5.59947 63.9024L5.77557 63.801C6.43461 63.9397 7.30711 63.5902 7.79539 64.0812ZM11.771 71.3653C11.9444 72.8995 11.4215 74.3644 11.5629 76.0026C11.4588 76.1094 11.4215 76.3175 11.248 76.2802C11.0052 76.3869 10.8291 76.1441 10.7971 75.9706C10.7251 75.7252 10.8291 75.413 10.549 75.2369C8.66789 75.3036 7.02962 74.818 5.11119 74.9941C4.65759 75.1675 4.93775 76.1094 4.24135 75.8292C3.92384 74.9594 4.30806 74.0816 4.24135 73.1423C4.30806 72.8995 4.20667 72.55 4.51885 72.4139C4.83369 72.3099 4.93775 72.55 5.04181 72.7635C5.14587 72.9716 4.93775 73.3531 5.32197 73.4599C6.96025 73.7374 8.84399 73.5613 10.517 73.772L10.7251 73.5613C10.5837 72.9716 11.1787 72.0644 10.3755 71.7869C10.1327 71.6482 9.85257 71.5414 9.64445 71.3333C9.57774 71.0905 9.67914 70.845 9.92461 70.7757C10.549 70.9144 11.1787 71.1199 11.771 71.3653ZM8.07555 81.6165C7.54948 81.5719 7.03862 81.4174 6.57603 81.1629C6.92289 80.7787 7.5179 80.6773 8.00351 80.6026L8.17961 80.8134C8.14492 81.0909 8.24632 81.4084 8.07555 81.6165ZM11.4588 81.894C11.4215 81.6886 11.2133 81.5445 10.9679 81.6165C10.6904 81.6886 10.6904 82.0328 10.7251 82.2809C10.3408 82.6998 9.92461 82.2115 9.5057 82.2115C8.80664 81.8247 9.19086 80.8855 9.0868 80.2237C9.5057 79.9062 9.99398 79.7355 10.517 79.6287C10.7598 79.8369 10.6904 80.189 10.8291 80.4319C11.0372 80.5039 11.3521 80.5332 11.4215 80.2584L11.4588 77.0486L11.3174 76.8778C10.4796 76.6323 10.9679 77.6756 10.4129 77.8864C8.42508 78.6548 6.50665 79.594 4.44947 80.2237L4.06525 80.5706C4.00938 80.7448 4.00247 80.9311 4.0453 81.1089C4.08812 81.2868 4.17902 81.4495 4.30806 81.5792L10.2021 83.5697C10.7598 83.7084 10.9012 84.3007 11.1093 84.717C11.2133 84.757 11.4588 84.8264 11.5629 84.6503C11.7016 83.7084 11.4215 82.8359 11.4588 81.894Z" fill="#323A45"/>
<path d="M11.8057 85.8376C11.9124 87.3372 12.0858 88.834 12.294 90.2642C12.2246 90.4723 11.9124 90.507 11.771 90.3682C11.4935 88.7326 9.92461 90.0907 8.94805 89.8079L5.95167 90.0907C5.21791 90.1254 5.91431 91.3448 5.04181 91.0673C4.72963 90.4056 4.72963 89.6371 4.69228 88.9034C4.72963 88.0656 4.03057 86.9529 4.83369 86.3953C5.24993 86.1872 5.70619 86.1498 6.1918 86.0804C6.33055 86.2565 6.50665 86.4993 6.33055 86.6728C6.05306 86.9529 5.59947 86.9849 5.45805 87.3372C5.53009 87.7881 5.42603 88.2764 5.70619 88.6232L7.55258 88.4871C7.83275 88.311 7.69133 87.9642 7.65398 87.7214C7.41117 87.4412 6.68008 87.612 6.85352 87.0543C7.5179 86.7075 8.35571 86.7421 9.11882 86.6728C9.26023 86.7075 9.43633 86.7795 9.5057 86.9156C9.46835 87.5453 7.89945 87.5133 8.84399 88.3457C9.57775 88.2764 10.4129 88.3457 10.9679 87.9642C11.0052 87.3372 10.9679 86.7075 10.517 86.2912C10.1701 86.1498 9.67914 86.1151 9.5057 85.7682C9.43633 85.5921 9.57775 85.4507 9.71382 85.3814C10.4449 85.4507 11.3174 85.3173 11.8057 85.8376ZM12.7822 92.4948C12.7476 93.2632 13.2012 93.8556 13.0944 94.656C13.0251 94.8668 12.7476 94.7974 12.6061 94.7627C12.366 94.3092 12.0512 93.8209 11.4215 94.0663C10.9012 94.3785 9.99398 94.133 9.74851 94.7974C9.85257 95.5338 10.0634 96.1929 10.2021 96.892C10.549 97.3776 11.0372 96.8173 11.4588 96.892C11.8777 96.7159 12.4327 96.7826 12.7129 96.3316C12.7476 96.0195 12.6408 95.5952 12.9904 95.4565C13.7588 95.4965 13.516 96.4384 13.7241 96.924L14.143 98.733C14.0737 98.9091 13.8255 98.9091 13.6868 98.8798C13.3746 98.6343 13.2705 97.7618 12.6061 98.1087C10.9679 98.5649 9.3296 99.0158 7.69133 99.4641C7.41117 99.819 7.79539 100.793 7.06431 100.619C6.66949 99.5527 6.41216 98.44 6.29853 97.3082C6.36524 97.1348 6.57603 97.0974 6.75213 97.1695C6.96025 97.4123 6.99493 97.7244 7.23774 97.9379C7.93414 97.6924 8.84399 97.7618 9.3296 97.2041C9.19112 96.3965 8.98129 95.6027 8.70258 94.8321C7.97149 94.8321 7.13368 94.8988 6.57603 95.4245C6.54134 95.7393 6.6454 96.1555 6.33055 96.297C6.08508 96.3637 5.84227 96.1555 5.81025 95.9101C5.70619 95.0082 5.42603 94.133 5.24993 93.2312C5.24993 93.0924 5.24993 92.911 5.45805 92.8843C5.73821 92.7402 5.91431 93.1245 6.01837 93.3006C6.01837 93.4713 6.22649 93.6127 6.36524 93.7141C8.14492 93.3006 9.92461 92.9857 11.6669 92.5321C12.0858 92.2493 11.6323 91.206 12.4701 91.4515L12.7822 92.4948ZM16.339 104.488C16.6511 105.222 16.8593 105.991 17.2088 106.719C17.2808 106.93 17.1047 107.034 16.966 107.108C16.411 107.068 16.371 106.095 15.7786 106.476C14.2097 107.175 12.5741 107.733 11.0052 108.429C10.549 108.781 11.3174 109.721 10.4129 109.686C9.74851 108.395 9.26023 107.034 8.73993 105.678C8.87601 105.017 9.64445 104.91 10.098 104.526C10.3088 104.488 10.4796 104.63 10.549 104.803C10.5837 105.254 9.99398 105.465 9.85257 105.889C9.9593 106.265 10.0287 106.719 10.3408 106.964C11.0719 106.794 11.771 106.548 12.4007 106.129C12.3313 105.812 12.2246 105.465 11.9818 105.291C11.7016 105.222 11.2827 105.465 11.2133 105.083C11.0719 104.803 11.4215 104.63 11.5976 104.526C12.2246 104.387 12.7476 103.931 13.444 103.899C13.5256 103.963 13.5813 104.055 13.6009 104.158C13.6205 104.26 13.6027 104.366 13.5507 104.456C13.3746 104.694 12.8543 104.838 13.0944 105.254C13.2012 105.433 13.2705 105.678 13.4786 105.71C14.1777 105.497 14.9088 105.326 15.4985 104.873C15.4985 104.56 15.4318 104.107 15.7093 103.829C16.1655 103.723 16.1655 104.243 16.339 104.488ZM75.6823 113.101C83.6335 115.713 91.3713 118.923 98.8689 122.621C101.238 124.052 105.113 125.482 105.145 128.897C104.448 135.594 94.3703 136.571 95.4883 143.956C95.7685 146.542 97.2306 149.154 99.7414 150.304C100.542 150.757 101.553 150.792 102.46 150.934C103.613 151.385 105.075 149.781 105.566 151.489C105.667 152.222 104.763 152.332 104.344 152.745C100.577 155.048 95.1761 157.732 90.9551 154.522C88.583 152.817 87.5024 150.203 87.433 147.342C87.5024 142.702 92.001 139.877 95.1361 136.739C96.4996 135.383 97.5802 133.676 96.9878 131.688C95.7978 129.246 93.1163 128.478 91.0618 127.189C80.394 121.799 69.1844 117.556 57.6213 114.531C54.8303 113.87 52.1115 112.928 49.0083 113.208C48.1385 113.451 47.3727 114.115 46.8151 114.846C46.5696 114.846 46.3588 114.705 46.1507 114.569C45.6598 113.8 46.1507 112.858 46.2548 112.023C46.743 109.963 48.6268 107.938 50.7507 107.559C51.4124 107.383 52.1115 107.351 52.8105 107.245C60.9672 107.909 68.1873 110.833 75.6823 113.101ZM18.4308 111.845C17.6971 113.309 16.1655 114.08 14.7701 114.497C14.2097 114.531 13.6201 114.531 13.2358 114.115C12.7476 113.8 12.921 113.141 12.921 112.648C13.8255 110.905 15.7466 109.721 17.6971 109.929L18.0493 110.14C18.6043 110.524 18.4308 111.29 18.4308 111.845ZM18.9885 109.963C18.5359 109.3 17.8718 108.81 17.1047 108.573C15.0155 108.29 13.1318 109.44 12.0512 111.185C11.8729 111.597 11.7778 112.04 11.7714 112.489C11.765 112.938 11.8474 113.384 12.0138 113.8C12.5741 114.982 13.7962 115.924 15.1516 115.892C17.0007 115.753 18.9538 114.497 19.5461 112.648C19.8263 111.676 19.4421 110.764 18.9885 109.963ZM25.5789 120.562C25.6136 120.772 25.5095 120.983 25.3334 121.05C24.8825 121.05 24.7064 120.423 24.2208 120.492C22.7907 121.471 21.2911 122.48 19.9303 123.563C19.9677 124.02 20.3839 124.329 20.6267 124.713C21.1497 124.921 21.7447 124.124 22.1289 124.748L22.0916 125.031L20.5574 126.007L20.3466 125.97L16.966 121.258C17.0727 120.636 17.8038 120.356 18.2574 119.902C18.4308 119.83 18.711 119.83 18.7777 120.076C18.8124 120.599 18.1186 120.914 18.2574 121.434C18.5322 121.714 18.6416 122.413 19.1619 122.237C20.5574 121.157 22.0916 120.356 23.4524 119.238C23.4844 118.75 22.7213 118.262 23.3483 117.877L23.6605 117.915L25.5789 120.562ZM28.055 123.633L26.6569 129.108C26.7983 129.247 27.0064 129.036 27.1478 128.932L29.5892 126.594C29.728 126.109 28.7888 125.727 29.4478 125.343L29.7973 125.372L31.7158 127.397C31.8172 127.643 31.609 127.747 31.4356 127.814C31.0167 127.814 30.7739 127.291 30.355 127.467C29.0316 128.756 27.4947 129.836 26.31 131.197C26.382 131.619 26.9717 132.069 26.382 132.347C25.7177 132.069 25.1974 131.405 24.7411 130.847C24.6024 129.908 25.1627 129.001 25.3334 128.059C25.4375 127.155 25.9258 126.386 25.8591 125.447L25.6136 125.551L23.1722 127.71C22.892 128.201 23.906 128.585 23.1722 128.932L22.86 128.865L21.2538 127.048C21.1497 126.874 21.2191 126.629 21.4299 126.594C21.8835 126.49 22.0916 127.155 22.5105 126.837C24.1141 125.516 25.683 124.153 27.2866 122.864C27.6361 122.902 27.9136 123.318 28.055 123.633ZM36.3157 131.477C36.3878 131.688 36.2117 131.824 36.0729 131.896C35.6887 131.931 35.3739 131.512 34.9923 131.72C33.8076 133.081 32.4815 134.369 31.3315 135.765C31.2969 136.184 31.8172 136.427 31.5397 136.848C31.2622 137.054 30.9847 136.672 30.7739 136.493L27.983 133.985C27.8789 133.393 28.5086 133.043 28.7167 132.52C28.8928 132.315 29.1009 132.382 29.3091 132.491C29.5892 133.043 28.682 133.884 29.6239 134.231C29.832 134.404 30.1122 134.791 30.3897 134.444C30.8086 133.953 31.4009 133.641 31.5397 133.043C31.3315 132.838 31.1208 132.52 30.8086 132.699C30.6351 132.803 30.3897 132.942 30.1816 132.838C30.0874 132.719 30.0374 132.571 30.0401 132.419C30.6005 131.859 31.1208 131.16 31.7158 130.746C31.8892 130.781 32.0626 130.885 32.0973 131.058C32.0626 131.405 31.6464 131.619 31.8172 132.003C31.9933 132.174 32.2014 132.454 32.4815 132.278L33.7703 130.847C33.6662 130.362 33.0765 130.015 32.6897 129.732C32.1347 129.524 31.1208 130.639 31.0887 129.524C31.577 129.073 32.1694 128.828 32.6897 128.478L33.0072 128.585L36.3157 131.477ZM39.595 133.953C39.7337 134.127 39.5282 134.337 39.3868 134.404C39.0026 134.511 38.7918 134.092 38.4103 134.231C37.6765 135.277 37.0175 136.392 36.4918 137.51C37.6418 136.987 38.7225 136.114 39.8057 135.349C40.1179 135.066 40.3981 134.756 40.8517 134.791C41.372 135.309 40.7476 135.941 40.7103 136.493C40.4648 137.611 40.1873 138.695 40.0139 139.845H40.222L42.3512 137.054C42.4206 136.571 41.444 136.114 42.2124 135.8C43.0476 136.221 43.8854 136.739 44.6512 137.299C44.6859 137.51 44.5445 137.649 44.4084 137.715C44.0242 137.79 43.7787 137.406 43.4291 137.545C42.1751 138.937 41.0945 140.437 40.0139 141.904C39.9418 142.39 41.2332 142.812 40.326 143.19C39.5576 142.812 38.7225 142.358 38.0954 141.728C38.3062 140.266 38.6531 138.833 38.9332 137.368C38.6904 137.198 38.445 137.545 38.1995 137.649L35.1684 139.741L34.7522 139.634L33.0765 138.38C32.9351 138.169 33.0392 137.894 33.3194 137.894C33.5995 137.961 33.8743 138.244 34.1919 138.14C35.2351 136.603 36.1797 135.034 37.0468 133.393C37.1562 132.873 36.0729 132.419 36.8761 132.037C37.8179 132.592 38.6904 133.257 39.595 133.953ZM48.2079 139.151C48.6268 139.322 49.0777 139.495 49.4272 139.813C49.3926 139.986 49.3579 140.157 49.1844 140.231C48.7309 140.368 48.4854 139.986 48.1385 140.093C47.194 141.59 46.4309 143.158 45.5584 144.69C45.6277 145.178 46.2201 145.285 46.5696 145.458C47.2313 145.664 47.5115 144.271 48.1705 145.005C48.0345 145.635 47.5782 146.123 47.2313 146.68C47.1273 146.819 46.8818 146.785 46.743 146.68C45.1421 145.739 43.4665 145.042 41.8629 144.17C41.6868 143.468 42.2792 142.878 42.4206 142.251C42.5246 142.113 42.7327 142.15 42.8395 142.182C43.2557 142.636 42.5593 143.647 43.3971 143.858C43.6399 143.956 43.8854 144.239 44.1656 144.138C45.1421 142.673 45.8385 141.067 46.711 139.567C46.743 138.937 45.3796 138.767 46.1854 138.169C46.8818 138.412 47.5462 138.833 48.2079 139.151ZM52.3569 147.825C52.1115 147.969 51.7646 147.793 51.5218 147.692C51.2416 147.486 51.1723 147.241 51.1376 146.958C51.2763 146.224 51.5538 145.357 52.3569 145.074C52.7065 145.112 53.0186 145.178 53.2641 145.424C53.0907 146.264 52.6718 147.027 52.3569 147.825ZM56.8555 142.74C55.8443 142.39 54.8303 141.936 53.7844 141.659C53.579 141.696 53.5416 141.904 53.579 142.075C54.6222 142.459 54.1339 143.503 53.8538 144.17C53.7524 144.308 53.683 144.623 53.4029 144.589C52.8452 143.818 52.7411 142.844 52.533 141.936C52.461 140.995 51.4124 140.296 50.684 139.877C50.4732 139.917 50.4038 140.125 50.3691 140.266C50.9294 141.486 51.3457 142.772 51.6232 144.138C51.5218 144.517 51.0308 144.378 50.7507 144.589C49.9502 145.005 49.6007 145.811 49.6007 146.68C49.8808 148.77 52.2849 148.596 53.683 149.469C53.9632 149.501 54.238 149.818 54.4835 149.501C54.7636 148.98 54.0299 148.911 53.8218 148.564C54.206 146.926 55.0758 145.525 55.5321 143.924C55.5641 142.985 56.4366 143.54 56.9249 143.297C57.0289 143.158 57.0636 142.844 56.8555 142.74ZM76.1012 146.435C76.24 146.47 76.2746 146.68 76.2053 146.785C75.9598 147.203 75.3675 146.819 75.194 147.342C75.1593 149.223 74.8098 150.934 74.7057 152.783C74.8792 153.162 75.7197 153.028 75.5436 153.655L75.3675 153.794C73.9053 153.514 72.267 153.655 70.8369 153.338C70.6608 152.783 70.594 151.945 70.9409 151.489C71.3251 151.352 71.4639 151.771 71.5679 152.014C71.5333 152.292 71.7787 152.575 72.0189 152.607C72.4058 152.537 73.0675 152.988 73.2409 152.396C73.1022 151.731 73.4864 151.214 73.3476 150.621C73.1715 150.408 72.9261 150.445 72.6859 150.445C72.299 150.621 72.4404 151.353 71.8801 151.11C71.5333 150.304 71.8134 149.365 71.9895 148.564C72.0589 148.425 72.299 148.46 72.4404 148.527C72.8247 148.735 72.299 149.399 72.8914 149.501C73.1715 149.535 73.5211 149.501 73.5531 149.191L73.7292 147.409C73.2783 147.027 72.5819 147.131 72.0189 147.163C71.6373 147.518 71.5332 148.249 70.9409 148.215C70.4873 147.62 71.1837 146.886 71.2878 146.224C71.3972 146.053 71.5333 146.053 71.672 146.019C73.1021 146.264 74.6711 146.158 76.1012 146.435ZM60.0627 148.839C59.956 148.351 59.8172 147.764 59.9933 147.273C60.3428 147.342 60.7271 147.241 60.9672 147.518C60.7964 148.007 60.5163 148.564 60.0627 148.839ZM64.9428 145.005L62.9924 144.554C62.6428 144.485 62.1545 144.239 61.8744 144.589C61.6289 145.074 62.296 145.074 62.5041 145.322C62.4347 145.811 62.0825 146.19 61.7703 146.542C61.2153 146.435 60.655 146.435 60.1667 146.224C59.4677 146.053 59.9239 145.213 59.7825 144.69C59.9933 144.346 60.3055 144.69 60.5856 144.589C60.7271 144.485 60.8658 144.308 60.7964 144.063C59.7452 143.577 58.5978 143.401 57.5519 142.948L57.2371 143.19C57.0636 143.818 57.7947 143.647 58.0055 144.063C58.3177 146.296 58.3524 148.631 58.6325 150.864C58.878 151.144 59.3663 151.315 59.7452 151.174C61.2153 149.365 62.4347 147.409 63.9689 145.664C64.3158 145.565 64.7 145.704 64.9775 145.458C65.0122 145.322 65.0842 145.112 64.9428 145.005Z" fill="#323A45"/>
<path d="M81.7151 152.745C81.2935 153.028 80.6665 152.887 80.1809 152.849C78.8895 152.607 78.8575 151.246 78.6814 150.232C78.6814 149.122 78.7854 148.007 79.7967 147.377C80.3223 147.308 81.5417 146.926 81.6457 147.724C81.5417 149.437 81.8192 151.003 81.7151 152.745ZM83.4254 152.783C83.1452 151.003 83.3187 149.05 83.1452 147.203C83.4254 146.785 84.1912 147.097 84.1912 146.435C83.839 145.944 83.1079 146.264 82.5849 146.158C80.6665 146.504 78.1931 146.085 77.3206 148.351C76.7949 149.781 76.7282 151.875 77.9156 153.028C79.1003 153.719 80.5624 154.039 82.0299 153.687C82.7637 153.548 83.6682 153.861 84.3299 153.439C84.5407 152.783 83.7029 153.095 83.4254 152.783ZM66.3356 151.771C66.1969 152.014 65.8847 151.875 65.7459 151.806C65.4658 151.771 65.223 151.454 65.1162 151.246C65.0495 150.376 65.0842 149.437 65.9194 149.05C66.1675 149.012 66.6505 148.946 66.7572 149.261C66.7572 150.162 66.3756 150.899 66.3356 151.771ZM69.6175 145.811L67.4189 145.424C67.0347 145.458 66.6505 145.112 66.3356 145.424C66.0261 146.158 66.9653 145.909 67.2108 146.328C67.1734 146.995 67.1067 147.654 66.7892 148.18C65.7806 148.145 64.8041 148.145 64.073 148.77C63.4433 149.437 63.3392 150.376 63.4806 151.315C64.0356 152.783 65.7086 152.575 67.0027 152.817C67.5576 152.887 68.1873 153.234 68.7423 152.988C68.9531 152.361 68.0806 152.537 67.9072 152.086C68.15 150.304 68.4622 148.564 68.7423 146.785C68.8464 146.264 69.5108 146.504 69.7909 146.224C69.895 146.053 69.7909 145.84 69.6175 145.811Z" fill="#323A45"/>
</svg>
