<svg width="160" height="64" viewBox="0 0 160 64" fill="none" xmlns="http://www.w3.org/2000/svg">
<path d="M60.8167 3.59167H4V60.4084H60.8167V3.59167Z" fill="#DD4B39"/>
<path d="M79.7781 55.4107L78.2883 51.5619H68.8835L67.3626 55.4107H61.5273L70.87 33.6525H76.7053L85.8307 55.4107H79.7781ZM70.5907 47.2164H76.6122L73.6325 39.4567L70.5907 47.2164ZM103.737 40.3569C101.44 39.0532 98.5224 38.029 96.7222 38.029C95.3564 38.029 94.4563 38.5256 94.4563 39.5188C94.4563 43.1193 105.91 41.0707 105.91 48.8925C105.91 53.3311 101.999 55.5969 97.1567 55.5969C93.5252 55.5969 89.7384 54.2622 87.1312 52.1206L89.3349 47.682C91.5697 49.6064 94.9529 50.9721 97.2188 50.9721C98.8949 50.9721 99.9502 50.3513 99.9502 49.2029C99.9502 45.5093 88.4969 47.7441 88.4969 40.0465C88.4969 35.9804 91.9422 33.4042 97.1877 33.4042C100.385 33.4042 103.613 34.3974 105.879 35.8562L103.737 40.3569ZM120.215 33.4973C126.951 33.4973 131.979 38.2152 131.979 44.5161C131.979 50.879 126.951 55.659 120.215 55.659C113.48 55.659 108.452 50.879 108.452 44.5161C108.452 38.1841 113.48 33.4973 120.215 33.4973ZM120.277 38.3393C117.018 38.3393 114.287 41.0087 114.287 44.5471C114.287 48.0855 117.049 50.8169 120.277 50.8169C123.536 50.8169 126.144 48.0855 126.144 44.5471C126.144 41.0087 123.536 38.3393 120.277 38.3393ZM135.856 33.6525H140.853L150.723 46.7508V33.6525H156V55.4107H151.034L141.163 42.3744V55.4107H135.856V33.6525Z" fill="#333333"/>
<path d="M37.7033 55.4104H31.2783L28.1123 49.3889H23.891V55.4104H18.2109V33.6522H27.9881C33.7614 33.6522 37.0515 36.4457 37.0515 41.2878C37.0515 44.5779 35.6858 46.9989 33.1716 48.3025L37.7033 55.4104ZM23.891 38.1839V44.8572H28.0192C30.3161 44.8572 31.6507 43.6777 31.6507 41.474C31.6507 39.3323 30.3161 38.1839 28.0192 38.1839H23.891ZM40.683 33.6522H57.8474V38.1839H46.3631V42.25H56.73V46.7506L46.3631 46.7816V50.8787H58.1578V55.4104H40.683V33.6522Z" fill="white"/>
</svg>
