<svg width="160" height="64" viewBox="0 0 160 64" fill="none" xmlns="http://www.w3.org/2000/svg">
<path d="M67.6576 21.5718H68.7638C69.5994 21.6369 70.4296 21.3915 71.0954 20.8825C71.358 20.6264 71.5623 20.3168 71.6944 19.9747C71.8266 19.6325 71.8835 19.2659 71.8612 18.8998C71.8946 18.5499 71.8567 18.1969 71.75 17.862C71.6432 17.5271 71.4697 17.2173 71.24 16.9512C70.6728 16.4855 69.9462 16.2595 69.2148 16.3215H67.6831V21.5718H67.6576ZM75.2734 18.7637C75.3279 19.5635 75.2127 20.3658 74.9356 21.1181C74.6584 21.8704 74.2255 22.5556 73.6652 23.129C72.3977 24.2034 70.7623 24.7434 69.1042 24.6351H67.6576V30.9235H64.2539V13.2497H69.3595C70.9595 13.1344 72.5438 13.6301 73.7928 14.6367C74.3229 15.1779 74.7314 15.826 74.9912 16.5377C75.2509 17.2494 75.3558 18.0082 75.299 18.7637H75.2734Z" fill="#231F20"/>
<path d="M84.004 17.1554C84.3787 17.1458 84.7532 17.183 85.1187 17.2661L84.8549 20.7208C84.5358 20.6361 84.2065 20.596 83.8763 20.6017C83.4239 20.575 82.9707 20.6412 82.5449 20.7964C82.119 20.9515 81.7294 21.1922 81.4001 21.5037C81.0972 21.8522 80.866 22.2571 80.72 22.6952C80.574 23.1333 80.5159 23.5959 80.5492 24.0565V30.932H77.1965V17.4107H79.7493L80.2429 19.6827H80.4045C80.7536 18.954 81.2803 18.3249 81.9362 17.8532C82.5323 17.4038 83.2575 17.1591 84.004 17.1554Z" fill="#231F20"/>
<path d="M91.6623 19.7763C91.3475 19.7616 91.0338 19.8218 90.7468 19.952C90.4598 20.0821 90.2078 20.2786 90.0115 20.5251C89.5698 21.1407 89.3291 21.8778 89.3223 22.6354H93.9854C94.027 21.8815 93.8077 21.1362 93.3642 20.5251C93.1591 20.2756 92.8982 20.0778 92.6026 19.9477C92.3069 19.8176 91.9849 19.7589 91.6623 19.7763ZM92.1303 31.1702C91.2814 31.2142 90.4329 31.076 89.6418 30.7649C88.8507 30.4537 88.1353 29.9768 87.5438 29.3663C86.3433 27.9454 85.7341 26.1177 85.842 24.2607C85.7332 22.3813 86.2873 20.5233 87.4077 19.0105C87.9243 18.3923 88.5777 17.9029 89.3161 17.5809C90.0546 17.2589 90.8578 17.1133 91.6623 17.1554C92.4097 17.1134 93.1571 17.2382 93.8503 17.5208C94.5435 17.8034 95.1652 18.2367 95.6702 18.7892C96.6934 20.0616 97.206 21.6694 97.1083 23.2991V25.0861H89.2627C89.2475 25.9779 89.549 26.8463 90.1136 27.5368C90.3951 27.8305 90.7376 28.0589 91.1169 28.2059C91.4962 28.3529 91.9031 28.415 92.309 28.3877C93.0092 28.3915 93.7069 28.3057 94.3853 28.1324C95.0975 27.9422 95.7856 27.671 96.436 27.324V30.1746C95.8491 30.4961 95.2226 30.7393 94.5725 30.8979C93.7785 31.0682 92.9678 31.1481 92.1559 31.1362L92.1303 31.1702Z" fill="#231F20"/>
<path d="M102.129 30.9235L97.4912 17.4107H100.963L103.312 25.0691C103.562 25.9735 103.727 26.8994 103.805 27.8346H103.865C103.934 26.8983 104.1 25.9716 104.358 25.0691L106.698 17.4107H110.17L105.532 30.9235H102.129Z" fill="#231F20"/>
<path d="M116.271 19.7763C115.956 19.7616 115.643 19.8218 115.356 19.952C115.069 20.0821 114.817 20.2786 114.62 20.5251C114.179 21.1407 113.938 21.8778 113.931 22.6354H118.594C118.629 21.8784 118.4 21.1329 117.948 20.5251C117.743 20.2745 117.483 20.076 117.187 19.9458C116.891 19.8156 116.568 19.7575 116.246 19.7763H116.271ZM116.739 31.1702C115.89 31.2142 115.042 31.076 114.251 30.7649C113.46 30.4537 112.744 29.9768 112.153 29.3663C110.974 27.9361 110.383 26.1105 110.502 24.2607C110.381 22.3864 110.92 20.529 112.025 19.0105C112.542 18.3923 113.195 17.9029 113.933 17.5809C114.672 17.2589 115.475 17.1133 116.28 17.1554C117.028 17.1163 117.776 17.2424 118.47 17.5248C119.164 17.8071 119.788 18.2388 120.296 18.7892C121.313 20.0647 121.822 21.671 121.726 23.2991V25.0861H113.889C113.873 25.9779 114.175 26.8463 114.74 27.5368C115.021 27.8305 115.363 28.0589 115.743 28.2059C116.122 28.3529 116.529 28.415 116.935 28.3877C117.638 28.3914 118.338 28.3057 119.02 28.1324C119.729 27.9406 120.414 27.6694 121.062 27.324V30.1746C120.477 30.4993 119.85 30.7426 119.198 30.8979C118.404 31.0682 117.594 31.1481 116.782 31.1362L116.739 31.1702Z" fill="#231F20"/>
<path d="M134.958 30.9235H131.656V23.0268C131.707 22.2685 131.545 21.511 131.188 20.84C131.029 20.5948 130.807 20.3973 130.544 20.2685C130.282 20.1396 129.99 20.0842 129.699 20.1082C129.302 20.0771 128.904 20.157 128.549 20.3387C128.194 20.5205 127.897 20.7971 127.691 21.1378C127.2 22.202 126.987 23.3727 127.07 24.5415V30.8979H123.751V17.4107H126.304L126.746 19.1126H126.933C127.272 18.482 127.79 17.9665 128.422 17.632C129.109 17.2905 129.868 17.1184 130.635 17.1299C131.234 17.0882 131.834 17.1811 132.392 17.402C132.95 17.6229 133.452 17.9661 133.86 18.4063C134.657 19.4593 135.047 20.7647 134.958 22.0823V30.9235Z" fill="#231F20"/>
<path d="M142.829 28.226C143.542 28.2019 144.246 28.0611 144.913 27.8091V30.5491C143.962 30.987 142.923 31.1996 141.876 31.1702C141.338 31.219 140.797 31.143 140.293 30.9482C139.79 30.7533 139.339 30.4449 138.974 30.047C138.299 29.0652 137.978 27.8828 138.064 26.6943V20.1847H136.472V18.619L138.302 17.3852L139.263 14.5346H141.382V17.4107H144.786V20.1847H141.382V26.7029C141.367 26.9101 141.395 27.1182 141.464 27.3143C141.533 27.5104 141.641 27.6904 141.782 27.8431C141.923 27.9718 142.088 28.0712 142.268 28.1355C142.447 28.1998 142.638 28.2277 142.829 28.2175V28.226Z" fill="#231F20"/>
<path d="M66.3217 42.3089V48.9461H69.6318C70.6694 49.0165 71.6981 48.7148 72.5334 48.0952C72.8726 47.7667 73.1359 47.368 73.305 46.927C73.474 46.4861 73.5447 46.0135 73.512 45.5424C73.5494 45.0895 73.4786 44.6343 73.3055 44.2141C73.1325 43.7939 72.862 43.4209 72.5164 43.1258C71.624 42.5278 70.5592 42.2406 69.4871 42.3089H66.3217ZM66.3217 40.5645H69.3595C70.3502 40.6517 71.3423 40.4126 72.1846 39.8837C72.4934 39.5919 72.7308 39.2328 72.8783 38.8344C73.0259 38.4359 73.0797 38.0088 73.0355 37.5862C73.0641 37.1876 72.9927 36.7881 72.8278 36.424C72.6629 36.0599 72.4096 35.7428 72.091 35.5015C71.1619 34.9881 70.1031 34.7574 69.0446 34.8377H66.3217V40.607V40.5645ZM64.4326 33.0253H68.9255C71.0358 33.0253 72.5675 33.3827 73.5035 34.0804C73.9927 34.476 74.3779 34.9852 74.6255 35.5635C74.8732 36.1419 74.9758 36.772 74.9246 37.399C74.9628 38.3289 74.6838 39.2441 74.1332 39.9944C73.5546 40.7061 72.7333 41.1789 71.8272 41.3218V41.458C74.2722 41.9061 75.4947 43.3243 75.4947 45.7126C75.5274 46.3903 75.4153 47.0671 75.1659 47.6981C74.9165 48.329 74.5354 48.8995 74.0481 49.3716C72.923 50.3138 71.4795 50.7889 70.0147 50.6991H64.4326V33.0253Z" fill="#231F20"/>
<path d="M79.7663 50.6991H77.9624V32.7359H79.7663V50.6991Z" fill="#231F20"/>
<path d="M84.7358 50.6991H82.9318V37.4501H84.7358V50.6991ZM82.7786 33.8592C82.7471 33.4975 82.8569 33.1376 83.085 32.8551C83.182 32.7529 83.2988 32.6714 83.4282 32.6158C83.5577 32.5602 83.6971 32.5315 83.838 32.5315C83.979 32.5315 84.1184 32.5602 84.2479 32.6158C84.3773 32.6714 84.4941 32.7529 84.5911 32.8551C84.8261 33.1346 84.9422 33.4951 84.9145 33.8592C84.9417 34.2258 84.8258 34.5888 84.5911 34.8718C84.4955 34.9762 84.3791 35.0597 84.2494 35.1167C84.1198 35.1738 83.9797 35.2033 83.838 35.2033C83.6964 35.2033 83.5563 35.1738 83.4266 35.1167C83.297 35.0597 83.1806 34.9762 83.085 34.8718C82.8594 34.5846 82.7501 34.2232 82.7786 33.8592Z" fill="#231F20"/>
<path d="M96.0531 50.6991V42.1302C96.1189 41.2721 95.8843 40.4177 95.3894 39.7136C95.1261 39.4322 94.8026 39.214 94.443 39.0755C94.0834 38.937 93.6971 38.8817 93.3131 38.9137C92.8 38.8698 92.2839 38.9489 91.8074 39.1442C91.3309 39.3395 90.9078 39.6455 90.5731 40.0369C89.9044 41.1526 89.6065 42.4514 89.7222 43.747V50.6991H87.8927V37.4501H89.3648L89.6541 39.2626H89.7477C90.1089 38.6173 90.65 38.0911 91.3049 37.7479C91.9905 37.3818 92.7573 37.1945 93.5344 37.2033C94.1248 37.162 94.7173 37.2444 95.2741 37.4451C95.8309 37.6459 96.3397 37.9606 96.7679 38.3691C97.5804 39.4168 97.9665 40.733 97.8486 42.0536V50.6991H96.0531Z" fill="#231F20"/>
<path d="M105.405 49.261C105.908 49.3053 106.415 49.2271 106.882 49.033C107.349 48.8389 107.762 48.5346 108.085 48.1463C108.734 47.0599 109.031 45.7999 108.936 44.5383V44.1129C109.047 42.7199 108.752 41.3246 108.085 40.0965C107.771 39.6863 107.358 39.3621 106.885 39.1539C106.412 38.9456 105.894 38.8601 105.379 38.9052C104.889 38.8903 104.403 39.0102 103.976 39.2517C103.548 39.4932 103.195 39.8472 102.954 40.2752C102.325 41.468 102.031 42.8089 102.103 44.1554C102.021 45.4864 102.316 46.8137 102.954 47.9846C103.213 48.3986 103.577 48.7365 104.009 48.9637C104.441 49.191 104.926 49.2994 105.413 49.278L105.405 49.261ZM108.919 48.9206C108.538 49.5656 107.987 50.0942 107.328 50.4496C106.668 50.805 105.924 50.9736 105.175 50.9373C104.47 50.9667 103.769 50.8203 103.135 50.5113C102.501 50.2024 101.953 49.7405 101.542 49.1674C100.589 47.6605 100.133 45.8925 100.24 44.1129C100.129 42.3167 100.584 40.5311 101.542 39.0073C101.949 38.4279 102.495 37.9594 103.13 37.6444C103.764 37.3294 104.467 37.1778 105.175 37.2033C105.912 37.1737 106.644 37.3391 107.297 37.6827C107.95 38.0263 108.501 38.5361 108.894 39.1605H109.038L108.962 38.2074V32.7359H110.766V50.6991H109.302L109.055 48.9206H108.919Z" fill="#231F20"/>
<path d="M122.041 50.6991V42.1302C122.106 41.2721 121.872 40.4177 121.377 39.7136C121.114 39.4322 120.79 39.214 120.43 39.0755C120.071 38.937 119.685 38.8817 119.301 38.9137C118.787 38.8705 118.272 38.9499 117.795 39.1452C117.319 39.3404 116.896 39.6461 116.561 40.0369C115.892 41.1526 115.594 42.4514 115.71 43.747V50.6991H113.906V37.4501H115.369L115.667 39.2626H115.752C116.113 38.6173 116.654 38.0911 117.309 37.7479C117.996 37.3858 118.763 37.2015 119.539 37.2118C120.13 37.1682 120.724 37.2486 121.282 37.4479C121.84 37.6472 122.351 37.961 122.781 38.3691C123.596 39.4155 123.986 40.7319 123.87 42.0536V50.6991H122.041Z" fill="#231F20"/>
<path d="M131.435 38.9052C130.999 38.8898 130.566 38.9756 130.168 39.1557C129.771 39.3358 129.421 39.6054 129.146 39.9433C128.526 40.7775 128.176 41.7809 128.142 42.8195H134.379C134.445 41.7948 134.177 40.7763 133.613 39.9178C133.361 39.5832 133.03 39.3158 132.651 39.1392C132.271 38.9626 131.853 38.8823 131.435 38.9052ZM131.928 50.9543C131.143 50.9915 130.36 50.85 129.638 50.5405C128.916 50.2309 128.273 49.7614 127.759 49.1674C126.663 47.7513 126.118 45.9853 126.227 44.198C126.129 42.3864 126.628 40.5926 127.648 39.0924C128.08 38.4892 128.654 38.0015 129.318 37.6721C129.983 37.3427 130.719 37.1817 131.46 37.2033C132.139 37.1773 132.813 37.3117 133.43 37.5956C134.047 37.8795 134.587 38.3048 135.009 38.8371C135.922 40.088 136.381 41.6128 136.311 43.1598V44.4362H128.099C128.041 45.7027 128.417 46.9512 129.163 47.9761C129.509 48.383 129.946 48.7039 130.437 48.9135C130.929 49.1232 131.463 49.2159 131.996 49.1844C133.312 49.189 134.612 48.8982 135.8 48.3335V50.1204C135.223 50.4089 134.615 50.6315 133.988 50.7841C133.311 50.9279 132.62 50.9936 131.928 50.9799V50.9543Z" fill="#231F20"/>
<path d="M146.411 47.0826C146.447 47.6274 146.353 48.1729 146.137 48.6743C145.921 49.1757 145.589 49.6188 145.169 49.9673C144.157 50.6888 142.928 51.0403 141.688 50.9628C140.402 51.0303 139.123 50.7355 137.995 50.1119V48.2654C138.576 48.5902 139.193 48.8444 139.833 49.0227C140.45 49.2039 141.089 49.2984 141.731 49.3035C142.49 49.3476 143.246 49.1734 143.909 48.8015C144.161 48.6366 144.364 48.4081 144.499 48.139C144.634 47.8699 144.694 47.57 144.675 47.2698C144.678 47.019 144.625 46.7708 144.521 46.5427C144.416 46.3147 144.263 46.1126 144.071 45.9509C143.352 45.4065 142.558 44.968 141.714 44.649C140.872 44.3328 140.067 43.9248 139.314 43.4321C138.88 43.1259 138.522 42.7242 138.268 42.2578C138.028 41.7746 137.911 41.2398 137.927 40.7006C137.906 40.2116 138.003 39.7246 138.208 39.2804C138.414 38.8363 138.723 38.4479 139.11 38.1479C140.058 37.4737 141.208 37.1434 142.369 37.2118C143.671 37.2119 144.956 37.5026 146.13 38.0628L145.518 39.7561C144.508 39.2405 143.399 38.9502 142.267 38.9052C141.593 38.8604 140.92 39.0174 140.335 39.3562C140.127 39.4861 139.957 39.6686 139.842 39.8852C139.727 40.1018 139.671 40.3449 139.68 40.59C139.672 40.9084 139.758 41.222 139.927 41.492C140.134 41.7836 140.401 42.0274 140.71 42.2068C141.384 42.5733 142.084 42.8917 142.803 43.1598C143.872 43.5096 144.852 44.0907 145.671 44.8617C146.175 45.4767 146.438 46.2539 146.411 47.0486V47.0826Z" fill="#231F20"/>
<path d="M155.993 47.0826C156.028 47.6265 155.934 48.1711 155.72 48.6723C155.506 49.1734 155.176 49.617 154.759 49.9673C153.747 50.6875 152.518 51.0389 151.278 50.9628C149.989 51.0315 148.707 50.7366 147.577 50.1119V48.2654C148.16 48.5916 148.78 48.8459 149.423 49.0227C150.04 49.2044 150.678 49.299 151.321 49.3035C152.078 49.3489 152.831 49.1745 153.491 48.8015C153.742 48.6366 153.946 48.4081 154.08 48.139C154.215 47.8699 154.276 47.57 154.257 47.2698C154.259 47.019 154.207 46.7708 154.102 46.5427C153.998 46.3147 153.844 46.1126 153.653 45.9509C152.934 45.4046 152.14 44.966 151.295 44.649C150.467 44.3341 149.674 43.9319 148.93 43.4491C148.496 43.1429 148.138 42.7412 147.883 42.2749C147.648 41.79 147.531 41.2563 147.543 40.7177C147.524 40.2289 147.621 39.7426 147.827 39.2988C148.032 38.855 148.34 38.4663 148.726 38.1649C149.674 37.4907 150.823 37.1605 151.985 37.2288C153.286 37.228 154.571 37.5188 155.746 38.0798L155.108 39.7561C154.095 39.2414 152.983 38.9511 151.849 38.9052C151.174 38.8604 150.502 39.0174 149.917 39.3562C149.711 39.488 149.542 39.6709 149.427 39.887C149.312 40.1032 149.255 40.3453 149.262 40.59C149.266 40.8985 149.357 41.1996 149.526 41.458C149.732 41.7496 149.999 41.9934 150.308 42.1727C150.976 42.5501 151.67 42.88 152.385 43.1598C153.454 43.5096 154.433 44.0907 155.252 44.8617C155.756 45.4767 156.019 46.2539 155.993 47.0486V47.0826Z" fill="#231F20"/>
<path d="M23.1626 14.1602L21.5289 7.67615C16.3213 9.42096 11.8094 12.7877 8.6543 17.2831L14.7384 20.2614C16.9269 17.4863 19.8435 15.374 23.1626 14.1602Z" fill="#00ACA1"/>
<path d="M23.9125 17.1298C21.4475 18.0823 19.2575 19.632 17.5391 21.6397L26.142 25.8348L23.9125 17.1298Z" fill="#00ACA1"/>
<path d="M29.6387 6.35731C26.8821 6.35728 24.1437 6.80266 21.5293 7.67625L23.1631 14.1603C26.5535 12.9356 30.2221 12.6998 33.7415 13.4802C37.2608 14.2606 40.4859 16.0251 43.0408 18.5681L49.5078 15.7941C47.1056 12.8432 44.0757 10.465 40.6386 8.83252C37.2015 7.20008 33.4437 6.3545 29.6387 6.35731Z" fill="#4777AE"/>
<path d="M31.0684 23.7076C30.3095 22.6004 29.7819 21.3514 29.5173 20.0355C29.2526 18.7195 29.2564 17.3637 29.5282 16.0492C27.6075 16.0635 25.7051 16.4238 23.9121 17.1129L26.1415 25.8349L31.111 23.7076H31.0684Z" fill="#5E84B7"/>
<path d="M48.6146 31.9959C48.6131 33.0018 48.5334 34.0061 48.3763 34.9996L54.6647 37.5524C55.5148 33.7668 55.4923 29.8374 54.5989 26.0618C53.7055 22.2861 51.9646 18.7633 49.5081 15.7601L43.041 18.5342C44.8101 20.2938 46.2134 22.3863 47.17 24.6909C48.1266 26.9955 48.6176 29.4666 48.6146 31.9618V31.9959Z" fill="#005596"/>
<path d="M45.4737 33.7996C45.7701 31.3105 45.4787 28.7866 44.6228 26.4306C42.4562 27.8175 39.8354 28.308 37.3139 27.7983C34.7924 27.2886 32.5678 25.8187 31.1101 23.6991L26.1406 25.8349L45.4737 33.7996Z" fill="#005596"/>
<path d="M29.6387 50.9715C28.7847 50.9717 27.9316 50.912 27.0859 50.7928L27.3497 57.5321C28.1071 57.6002 28.8729 57.6428 29.6472 57.6428C35.4752 57.6383 41.128 55.6496 45.6751 52.0042C50.2222 48.3588 53.3926 43.2738 54.6646 37.5864L48.3762 35.0336C47.6624 39.486 45.3864 43.5387 41.956 46.4655C38.5256 49.3922 34.165 51.0017 29.6557 51.0055L29.6387 50.9715Z" fill="#A5D7E9"/>
<path d="M14.7393 20.2613L8.65515 17.2831C6.12845 20.8677 4.57189 25.0449 4.13672 29.4088L11.0378 28.2856C11.6195 25.3557 12.8881 22.6056 14.7393 20.2613Z" fill="#8DC63F"/>
<path d="M26.1412 25.8351L17.5384 21.64C16.0158 23.4153 14.9031 25.5042 14.2793 27.7582L26.1412 25.8351Z" fill="#009AC7"/>
<path d="M10.6713 31.9956C10.6716 30.7499 10.7942 29.5073 11.0372 28.2855L4.13615 29.4087C4.05106 30.2597 4 31.1106 4 31.9615C4.00391 33.6007 4.1606 35.2358 4.46801 36.8459L12.0498 39.0753C11.1378 36.8145 10.6698 34.3993 10.6713 31.9615V31.9956Z" fill="#AED477"/>
<path d="M26.1412 25.8348L14.2793 27.7579C13.6917 29.8512 13.5396 32.0427 13.8323 34.1971C14.125 36.3515 14.8564 38.423 15.9811 40.2836L26.6773 43.4235L26.1412 25.8348Z" fill="#41BFBA"/>
<path d="M12.0505 39.1097L4.46875 36.8802C5.70587 43.2511 9.3122 48.916 14.5608 52.7331L20.1684 48.4784C16.4956 46.3494 13.6386 43.0552 12.0505 39.1182V39.1097Z" fill="#EBE72A"/>
<path d="M16.0234 40.2841C17.6516 42.9422 20.0165 45.0706 22.8309 46.4107L26.7281 43.424L16.0234 40.2841Z" fill="#8DC63F"/>
<path d="M20.1857 48.4359L14.5781 52.6906C18.3201 55.4158 22.7315 57.0745 27.3421 57.4898L27.0783 50.8185C24.6486 50.4762 22.3081 49.6671 20.1857 48.4359Z" fill="#8DC63F"/>
<path d="M22.8223 46.4105C24.1165 47.0213 25.4877 47.4536 26.8982 47.6954L26.7195 43.4408L22.8223 46.4105Z" fill="#00ACA1"/>
<path d="M45.4737 33.7995L26.1406 25.8348L26.7618 43.4235L45.4822 33.8421L45.4737 33.7995Z" fill="#009AC7"/>
<path d="M29.6393 47.9336C33.5465 47.9346 37.3178 46.4996 40.236 43.9015C43.1542 41.3033 45.0157 37.7233 45.4665 33.8422L26.7461 43.4236L26.9248 47.6783C27.8297 47.835 28.7464 47.9148 29.6648 47.9165L29.6393 47.9336Z" fill="#46B9D9"/>
</svg>
