<svg width="176" height="48" viewBox="0 0 176 48" fill="none" xmlns="http://www.w3.org/2000/svg">
<path d="M156.984 36.0771C157.869 36.3511 158.984 36.5003 160.33 36.5259L160.965 32.7844C160.368 32.7098 159.875 32.6047 159.489 32.4666C159.102 32.3309 158.797 32.1304 158.572 31.8686C158.349 31.6069 158.192 31.2891 158.106 30.9151C158.018 30.5408 157.975 30.0798 157.975 29.5307V7.12231L153.451 7.87061V30.3903C153.451 31.3637 153.556 32.2306 153.769 32.9911C153.98 33.7516 154.348 34.3875 154.871 34.8985C155.395 35.4096 156.099 35.8033 156.984 36.0771Z" fill="black"/>
<path fill-rule="evenodd" clip-rule="evenodd" d="M68.5554 16.4974C67.5326 16.1231 66.2737 15.9361 64.7782 15.9361C63.5318 15.9361 62.3609 16.0363 61.2636 16.2356C60.1675 16.435 59.3327 16.6342 58.7598 16.8336L59.3205 20.5005C59.868 20.3011 60.5781 20.1262 61.4505 19.976C62.3231 19.8268 63.2835 19.7522 64.3296 19.7522C65.1018 19.7522 65.7446 19.8512 66.2556 20.0504C66.7663 20.2511 67.1769 20.5311 67.4896 20.8929C67.8 21.2548 68.0188 21.6731 68.1435 22.1463C68.268 22.6193 68.3304 23.1181 68.3304 23.6429V24.3899C67.7071 24.2407 67.1207 24.1355 66.5732 24.0719C66.0244 24.0109 65.5015 23.9791 65.0029 23.9791C63.9312 23.9791 62.9022 24.0853 61.9185 24.2969C60.9335 24.5098 60.0673 24.8582 59.3205 25.3447C58.5727 25.8303 57.9801 26.4612 57.5439 27.2339C57.1075 28.0068 56.89 28.9543 56.89 30.0766C56.89 31.2492 57.0831 32.2335 57.4693 33.032C57.8553 33.8303 58.3907 34.4784 59.0774 34.9772C59.7619 35.4761 60.5915 35.8382 61.5631 36.062C62.5357 36.2868 63.6061 36.3992 64.7782 36.3992C66.5476 36.3992 68.1373 36.293 69.545 36.0801C70.9528 35.8687 72.0061 35.6877 72.7051 35.5385V23.6794C72.7051 22.5325 72.5745 21.4786 72.3118 20.5189C72.0501 19.559 71.6139 18.7423 71.0042 18.0684C70.392 17.3949 69.5769 16.8714 68.5554 16.4974ZM68.3304 32.5831C67.6069 32.7323 66.5476 32.8069 65.152 32.8069C64.0058 32.8069 63.0966 32.6015 62.4233 32.1907C61.75 31.7786 61.4138 31.0365 61.4138 29.9642C61.4138 29.4164 61.5385 28.9603 61.7878 28.5984C62.036 28.2378 62.3671 27.9578 62.779 27.7573C63.1893 27.5579 63.6501 27.4209 64.1621 27.345C64.6716 27.2707 65.1764 27.2339 65.6762 27.2339C66.2494 27.2339 66.7723 27.2707 67.2465 27.345C67.7195 27.4209 68.0811 27.4955 68.3304 27.5701V32.5831Z" fill="black"/>
<path d="M116.774 29.9758C117.435 27.8933 118.051 25.7549 118.624 23.5602C119.196 25.7549 119.824 27.8933 120.51 29.9758C121.194 32.0593 121.86 34.0229 122.506 35.8679H126.185C126.709 34.721 127.245 33.4114 127.794 31.9394C128.344 30.4684 128.894 28.8973 129.442 27.2258C129.992 25.5557 130.542 23.7972 131.091 21.9522C131.64 20.106 132.177 18.2242 132.702 16.3033H128.027C127.801 17.35 127.537 18.4786 127.238 19.6892C126.937 20.8983 126.618 22.1333 126.28 23.3913C125.941 24.652 125.597 25.8797 125.246 27.0766C124.895 28.2738 124.557 29.3715 124.232 30.3682C123.859 29.2226 123.491 28.0378 123.132 26.815C122.772 25.5935 122.436 24.3707 122.124 23.1494C121.814 21.9266 121.521 20.7356 121.248 19.5765C120.975 18.4164 120.726 17.3257 120.502 16.3033H117.024C116.8 17.3257 116.544 18.4164 116.257 19.5765C115.97 20.7356 115.663 21.9266 115.338 23.1494C115.014 24.3707 114.67 25.5935 114.308 26.815C113.946 28.0378 113.577 29.2226 113.203 30.3682C112.853 29.3715 112.501 28.2738 112.151 27.0766C111.8 25.8797 111.462 24.652 111.136 23.3913C110.809 22.1333 110.497 20.8983 110.196 19.6892C109.897 18.4786 109.634 17.35 109.408 16.3033H104.62C105.144 18.2242 105.682 20.106 106.23 21.9522C106.779 23.7972 107.329 25.5557 107.879 27.2258C108.428 28.8973 108.978 30.4684 109.526 31.9394C110.076 33.4114 110.6 34.721 111.1 35.8679H114.814C115.461 34.0229 116.114 32.0593 116.774 29.9758Z" fill="black"/>
<path fill-rule="evenodd" clip-rule="evenodd" d="M132.891 26.2986C132.891 24.5769 133.145 23.0692 133.657 21.772C134.168 20.4748 134.847 19.3963 135.694 18.5356C136.541 17.6759 137.513 17.0266 138.611 16.5901C139.707 16.155 140.829 15.9361 141.975 15.9361C144.667 15.9361 146.766 16.7725 148.276 18.4426C149.782 20.1141 150.538 22.6071 150.538 25.9243C150.538 26.1738 150.53 26.4538 150.518 26.7656C150.506 27.0785 150.486 27.3585 150.462 27.6079H137.563C137.688 29.1791 138.242 30.3945 139.227 31.2554C140.212 32.1148 141.639 32.5453 143.508 32.5453C144.605 32.5453 145.608 32.4461 146.518 32.2456C147.427 32.0464 148.144 31.8348 148.668 31.61L149.265 35.3134C149.016 35.4393 148.674 35.5704 148.238 35.7071C147.801 35.8442 147.303 35.9688 146.742 36.0801C146.181 36.1925 145.576 36.2868 144.928 36.3614C144.281 36.436 143.62 36.4738 142.948 36.4738C141.227 36.4738 139.733 36.2171 138.46 35.7071C137.19 35.1961 136.142 34.4846 135.32 33.5749C134.497 32.6639 133.886 31.5916 133.488 30.3566C133.09 29.1229 132.891 27.7706 132.891 26.2986ZM146.014 24.2785C146.014 23.6551 145.926 23.0619 145.751 22.5009C145.576 21.9396 145.322 21.4542 144.985 21.0421C144.649 20.6313 144.237 20.3073 143.752 20.07C143.265 19.8328 142.686 19.7144 142.013 19.7144C141.315 19.7144 140.704 19.845 140.181 20.1066C139.657 20.3684 139.214 20.7119 138.854 21.1362C138.492 21.5604 138.211 22.0458 138.012 22.5949C137.813 23.1438 137.676 23.7051 137.601 24.2785H146.014Z" fill="black"/>
<path d="M169.508 36.5259C168.163 36.5003 167.047 36.3511 166.163 36.0771C165.278 35.8033 164.574 35.4096 164.05 34.8985C163.527 34.3875 163.159 33.7516 162.948 32.9911C162.735 32.2306 162.63 31.3637 162.63 30.3903V7.87061L167.154 7.12231V29.5307C167.154 30.0798 167.197 30.5408 167.285 30.9151C167.371 31.2891 167.528 31.6069 167.751 31.8686C167.976 32.1304 168.28 32.3309 168.668 32.4666C169.054 32.6047 169.546 32.7098 170.144 32.7844L169.508 36.5259Z" fill="black"/>
<path d="M101.312 18.4244C101.873 19.2093 102.259 20.1583 102.471 21.2672C102.683 22.3773 102.789 23.5926 102.789 24.9144V35.9128H98.2652V25.6249C98.2652 23.5805 98.0146 22.1035 97.5173 21.1926C97.0175 20.2816 96.0594 19.8268 94.6382 19.8268C93.9147 19.8268 93.2292 19.9454 92.5815 20.1827C92.2126 20.3177 91.9108 20.4498 91.6468 20.5806V35.9128H87.1241V20.5806C86.8601 20.4498 86.5584 20.3177 86.1893 20.1827C85.5416 19.9454 84.8561 19.8268 84.1326 19.8268C82.7116 19.8268 81.7536 20.2816 81.2537 21.1926C80.7562 22.1035 80.5058 23.5805 80.5058 25.6249V35.9128H75.9819V24.9144C75.9819 23.5926 76.0883 22.3773 76.2995 21.2672C76.5123 20.1583 76.8985 19.2093 77.4593 18.4244C78.0202 17.6381 78.7924 17.0281 79.7774 16.5916C80.7624 16.155 82.015 15.9361 83.5351 15.9361C84.1326 15.9361 84.7254 15.9985 85.3107 16.1233C85.896 16.2479 86.4508 16.4044 86.9739 16.5916C87.4981 16.7787 87.9711 16.9841 88.3949 17.2078C88.7935 17.419 89.119 17.6176 89.3854 17.8061C89.6518 17.6176 89.9776 17.419 90.376 17.2078C90.8 16.9841 91.2729 16.7787 91.7971 16.5916C92.3201 16.4044 92.8748 16.2479 93.4601 16.1233C94.0457 15.9985 94.6382 15.9361 95.2357 15.9361C96.756 15.9361 98.0085 16.155 98.9934 16.5916C99.9784 17.0281 100.751 17.6381 101.312 18.4244Z" fill="black"/>
<path fill-rule="evenodd" clip-rule="evenodd" d="M27.1221 44C26.6301 44 26.1382 43.8138 25.7605 43.4415L20.3077 38.0643C19.5449 37.3119 19.536 36.0829 20.2877 35.3199C21.04 34.556 22.2672 34.5487 23.0307 35.2998L27.127 39.3392L41.6597 25.1111C45.3553 21.1537 45.3463 14.7394 41.6336 10.7938C40.0956 9.15953 38.1496 8.17077 36.0053 7.93502C33.227 7.62809 30.482 8.65981 28.4854 10.763C28.1192 11.1488 27.6111 11.3674 27.0792 11.3674C26.5475 11.3674 26.0391 11.1488 25.6727 10.763C24.0494 9.05266 21.9071 8.03483 19.6417 7.89804C17.002 7.73539 14.4068 8.79425 12.5255 10.7933C10.0053 13.4713 9.10617 17.3919 10.1779 21.0254C10.4812 22.0537 9.89441 23.1329 8.86713 23.436C7.84007 23.7404 6.76152 23.153 6.45819 22.1247C4.99684 17.1722 6.23966 11.8112 9.7013 8.13315C12.373 5.29235 16.092 3.79084 19.8752 4.02445C22.5003 4.18262 25.0002 5.15556 27.0781 6.80242C29.7378 4.68897 33.0553 3.70449 36.4287 4.07746C39.4584 4.41025 42.3097 5.85042 44.4574 8.13315C49.5596 13.5553 49.5596 22.3771 44.4579 27.7997C44.4395 27.8187 44.4209 27.8377 44.4021 27.8567L28.4785 43.4464C28.1013 43.8153 27.6115 44 27.1221 44Z" fill="url(#paint0_linear_3_6985)"/>
<path fill-rule="evenodd" clip-rule="evenodd" d="M17.1965 33.9723C16.6462 33.9723 16.0966 33.7656 15.6723 33.3524L10.5543 28.361C9.69065 27.5184 9.6727 26.1351 10.5143 25.2712C11.3566 24.4071 12.7394 24.3897 13.6026 25.2312L17.1924 28.7325L29.6084 16.5605C30.4695 15.7154 31.8522 15.7303 32.696 16.5921C33.54 17.4535 33.5261 18.8372 32.6646 19.6815L18.7247 33.3477C18.3004 33.7641 17.7482 33.9723 17.1965 33.9723Z" fill="black"/>
<defs>
<linearGradient id="paint0_linear_3_6985" x1="27.0701" y1="43.459" x2="27.0701" y2="4" gradientUnits="userSpaceOnUse">
<stop stop-color="#EF9C23"/>
<stop offset="0.282808" stop-color="#F3AD30"/>
<stop offset="0.511493" stop-color="#F5B838"/>
<stop offset="1" stop-color="#FCD54E"/>
</linearGradient>
</defs>
</svg>
