<svg width="248" height="48" viewBox="0 0 248 48" fill="none" xmlns="http://www.w3.org/2000/svg">
<path d="M25.3282 33.9244C23.479 33.1682 21.9329 31.82 20.9318 30.0911C20.9843 31.8869 21.4002 33.6535 22.1546 35.2841C23.2378 34.8903 24.2978 34.4352 25.3293 33.9209" fill="#DEA46F"/>
<path d="M38.7001 16.1267C35.242 15.3342 31.8319 14.3451 28.4864 13.1644C27.7578 14.6402 26.6722 15.9108 25.3282 16.8608C28.0734 18.8401 31.6683 19.6037 34.8266 20.4404C37.1728 21.0624 40.6639 21.9287 44.5917 22.9508V17.6398C42.8332 17.1677 40.8764 16.6673 38.7012 16.1303L38.7001 16.1267ZM34.8266 9.43135C37.4939 10.1064 40.383 10.8217 44.587 11.8945V10.85C44.4809 9.4614 43.9145 8.14794 42.9774 7.11771C42.0404 6.08748 40.7864 5.3994 39.4141 5.1625C38.8069 5.07622 38.1945 5.03245 37.5812 5.03149H25.373C27.8515 7.69643 31.4075 8.56389 34.8266 9.42899V9.43135ZM28.4994 24.216C31.8464 25.3801 35.2511 26.3713 38.7001 27.1854C41.1502 27.8168 42.6644 28.2075 44.5917 28.7079V34.0259C40.6309 32.9933 37.1115 32.114 34.8266 31.4932C31.6069 30.6187 28.0438 29.8621 25.3282 27.9219C26.683 26.9756 27.7744 25.6998 28.4994 24.2148V24.216ZM22.1569 24.216C21.4023 22.5895 20.9851 20.827 20.9307 19.0348C21.943 20.7479 23.4871 22.0836 25.3282 22.8386C24.2976 23.3562 23.2389 23.8156 22.1569 24.2148" fill="#DEA46F"/>
<path d="M20.9318 7.97732C20.9868 9.77164 21.4085 11.5357 22.1711 13.1608C23.2486 12.7625 24.303 12.3042 25.3293 11.7883C23.4879 11.0303 21.9439 9.6923 20.9318 7.97732Z" fill="#DEA46F"/>
<path d="M38.1335 38.1378C35.1381 37.3341 31.6081 36.4348 28.5041 35.2864C27.7817 36.7629 26.6897 38.0273 25.3341 38.9569C28.0155 40.8346 31.5408 41.5853 34.8278 42.5507C38.5773 43.6518 39.8012 43.6931 40.9649 43.3768C41.802 43.1431 42.5636 42.695 43.1745 42.0767C43.7853 41.4584 44.2242 40.6914 44.4477 39.8515C41.7922 39.1044 40.337 38.7256 38.1288 38.1319" fill="#DEA46F"/>
<path d="M25.329 33.9245C26.3604 34.4389 27.4204 34.8941 28.5038 35.2876C29.2582 33.6559 29.6737 31.8881 29.7253 30.0911C28.7236 31.8192 27.1777 33.1668 25.329 33.9233V33.9245ZM15.8306 9.43135C13.1621 10.1064 10.2741 10.8217 6.06543 11.8945V10.85C6.17171 9.46178 6.73808 8.14872 7.67485 7.11875C8.61162 6.08878 9.86523 5.40077 11.2372 5.16368C11.8459 5.07683 12.4599 5.03266 13.0748 5.03149H25.2841C22.8057 7.69643 19.2485 8.56389 15.8306 9.42899V9.43135ZM22.1707 13.1644C18.8248 14.345 15.4143 15.3341 11.9559 16.1267C9.78076 16.6637 7.82514 17.1653 6.06543 17.6351V22.946C9.9932 21.9252 13.4831 21.0577 15.8306 20.4369C18.9888 19.5989 22.5826 18.8353 25.329 16.8573C23.9851 15.9086 22.8995 14.6392 22.1707 13.1644ZM22.1565 24.216C18.8095 25.3802 15.4048 26.3713 11.9559 27.1854C9.50695 27.8168 7.99155 28.2075 6.06543 28.7079V34.0259C10.0251 32.9933 13.5457 32.114 15.8306 31.4932C19.0478 30.6187 22.6121 29.8621 25.329 27.923C23.9742 26.9768 22.8828 25.701 22.1577 24.216H22.1565ZM28.5002 24.216C29.2547 22.5895 29.6715 20.8269 29.7253 19.0348C28.7132 20.7477 27.1695 22.0833 25.329 22.8386C26.3595 23.3563 27.4182 23.8158 28.5002 24.2148V24.216ZM25.329 38.9604C23.9711 38.0311 22.8773 36.7657 22.1542 35.2876C19.049 36.436 15.5202 37.3353 12.5248 38.139C10.3166 38.7291 8.86609 39.1115 6.2047 39.8586C6.42883 40.6984 6.86822 41.4653 7.47944 42.0833C8.09067 42.7014 8.85257 43.1493 9.68988 43.3827C10.8571 43.6943 12.0798 43.653 15.827 42.5566C19.2143 41.5617 22.7514 40.7933 25.3254 38.9652" fill="#15A2DC"/>
<path d="M25.329 33.9245C26.3604 34.4389 27.4204 34.8941 28.5038 35.2876C29.2582 33.6559 29.6737 31.8881 29.7253 30.0911C28.7236 31.8192 27.1777 33.1668 25.329 33.9233V33.9245ZM29.7253 7.97732C28.7133 9.69241 27.1693 11.0304 25.3278 11.7883C26.3533 12.304 27.4069 12.7618 28.4837 13.1597C29.1169 11.4922 29.5341 9.75065 29.7253 7.97732Z" fill="#15A2DC"/>
<path d="M25.3279 11.7908C26.3542 12.3068 27.4086 12.7651 28.4862 13.1634C27.7578 14.6391 26.6727 15.9096 25.3291 16.8598C23.9846 15.9102 22.8989 14.6396 22.1708 13.1634C23.2479 12.7649 24.3019 12.3067 25.3279 11.7908Z" fill="#55585B"/>
<path d="M25.3291 22.84C26.3596 23.3577 27.4183 23.8171 28.5003 24.2161C27.7753 25.7011 26.6839 26.9769 25.3291 27.9232C23.9743 26.9769 22.8829 25.7011 22.1578 24.2161C23.2398 23.817 24.2985 23.3575 25.3291 22.84Z" fill="#55585B"/>
<path d="M25.3291 33.9246C26.3605 34.4391 27.4205 34.8942 28.5039 35.2878C27.7805 36.7656 26.6867 38.031 25.3291 38.9606C23.9711 38.0313 22.8773 36.7659 22.1543 35.2878C23.2376 34.894 24.2976 34.4389 25.3291 33.9246Z" fill="#55585B"/>
<path d="M92.5405 32.4244C88.5372 39.9459 82.5594 43.9433 74.3356 43.9433C61.1526 43.9433 54.96 33.6495 54.96 24.1039C54.9635 13.4394 62.3824 4.05429 74.2861 4.05429C77.9322 4.06277 81.5285 4.9019 84.8018 6.50797L86.2429 5.17432H87.3051L89.5475 15.5201H88.1064C86.6722 13.2755 84.676 11.445 82.3158 10.21C79.9557 8.97511 77.3137 8.37874 74.6519 8.48011C67.4455 8.48011 61.149 13.332 61.149 23.0912C61.149 32.2096 66.591 38.9817 75.6126 38.9817C80.6876 38.9817 84.9541 36.7393 89.4377 30.3437L92.5405 32.4244ZM96.4931 5.12121H106.525V6.08073C105.563 6.34746 104.549 7.14292 104.549 9.22719V19.7311H126.181V9.38652C126.181 7.628 125.541 6.50797 124.045 6.08191V5.12121H134.077V6.08073C132.955 6.45368 132.1 6.93403 132.1 9.06786V38.1296C132.1 39.678 132.421 41.4342 134.235 41.9688V42.9295H124.203V41.9688C124.752 41.7914 125.235 41.4521 125.588 40.9954C125.94 40.5388 126.146 39.9861 126.179 39.4101V24.2656H104.552V38.5025C104.452 39.2381 104.61 39.9854 104.999 40.6174C105.389 41.2494 105.985 41.727 106.687 41.9688V42.9295H96.6548V41.9688C97.1984 41.8351 97.6842 41.5292 98.0398 41.0968C98.3955 40.6644 98.6018 40.1287 98.6281 39.5695V9.76065C98.6281 8.00094 98.254 6.72041 96.4942 6.08073L96.4931 5.12121ZM141.445 5.12121H168.62L170.914 12.0526H169.634C168.405 10.2918 166.591 9.59896 163.334 9.59896H149.407V19.678H165.312C167.019 19.678 168.301 19.1446 168.616 17.4934H169.577V26.0736H168.515C167.981 24.4213 166.862 24.1003 165.21 24.1003H149.403V38.4494H163.229C166.006 38.4494 168.727 37.9691 170.328 35.7349H171.449L169.262 42.9343H141.606V41.9736C142.128 41.9066 142.609 41.6548 142.961 41.2637C143.314 40.8727 143.515 40.3684 143.527 39.8421V9.55057C143.527 7.57843 142.994 6.45722 141.445 6.08427V5.12121ZM183.993 22.9319C182.027 22.1909 180.345 20.849 179.185 19.097C178.026 17.3449 177.448 15.2719 177.534 13.1727C177.534 8.80585 180.957 4 188.423 4C191.606 4.04792 194.739 4.79408 197.602 6.18577L198.992 4.59011H200.06L201.072 14.9359H199.846C198.76 12.9885 197.184 11.3588 195.273 10.2084C193.363 9.05797 191.186 8.4268 188.956 8.37743C184.794 8.37743 182.819 10.5113 182.819 13.2293C182.819 15.2569 184.154 16.855 187.304 18.296L195.093 21.9205C199.31 23.8419 202.566 27.2539 202.566 32.7478C202.566 38.9333 198.35 44 190.343 44C187.207 43.9903 184.112 43.298 181.271 41.9712L179.989 43.4654H178.974L176.36 32.6947H177.64C178.873 34.7493 180.607 36.4578 182.679 37.6605C184.752 38.8632 187.095 39.5208 189.491 39.5718C194.028 39.5718 196.908 36.9057 196.908 33.3344C196.908 30.2398 195.095 27.8935 190.663 25.9214L183.993 22.9319ZM206.388 5.12121H231.633L234.355 11.9995H233.18C231.42 10.0227 230.03 9.55057 225.87 9.55057H221.987V39.1965C221.962 39.8274 222.155 40.4476 222.534 40.9526C222.913 41.4576 223.455 41.8165 224.068 41.9688V42.9295H214.087V41.9688C214.633 41.8494 215.122 41.546 215.472 41.1093C215.822 40.6726 216.012 40.1291 216.009 39.5695V9.55057H211.94C209.86 9.55057 206.709 9.60368 204.788 12.1116H203.56L206.388 5.12121ZM238.841 4.61371C239.466 4.63043 240.072 4.83117 240.584 5.1908C241.096 5.55043 241.49 6.05299 241.717 6.63558C241.945 7.21817 241.995 7.85492 241.863 8.46614C241.73 9.07735 241.42 9.63589 240.972 10.0719C240.523 10.5078 239.956 10.8018 239.342 10.9171C238.727 11.0324 238.092 10.9638 237.516 10.72C236.94 10.4761 236.449 10.0679 236.104 9.54621C235.759 9.02457 235.575 8.41276 235.576 7.78732C235.573 7.36201 235.656 6.94048 235.82 6.54811C235.984 6.15574 236.226 5.80064 236.531 5.50416C236.836 5.20768 237.198 4.97596 237.595 4.82293C237.992 4.66991 238.415 4.59874 238.841 4.61371ZM238.841 10.2906C239.164 10.2887 239.484 10.222 239.781 10.0942C240.078 9.96645 240.347 9.78033 240.57 9.54687C240.794 9.31341 240.969 9.03737 241.084 8.73512C241.199 8.43288 241.253 8.11057 241.241 7.78732C241.255 7.46344 241.204 7.13999 241.09 6.8365C240.976 6.53301 240.802 6.25577 240.578 6.02149C240.353 5.78722 240.084 5.60076 239.786 5.47338C239.488 5.346 239.167 5.28033 238.843 5.28033C238.519 5.28033 238.198 5.346 237.9 5.47338C237.602 5.60076 237.332 5.78722 237.108 6.02149C236.884 6.25577 236.71 6.53301 236.596 6.8365C236.482 7.13999 236.43 7.46344 236.445 7.78732C236.432 8.1105 236.484 8.43299 236.598 8.73551C236.713 9.03803 236.887 9.31438 237.111 9.54804C237.334 9.78171 237.603 9.96789 237.9 10.0955C238.197 10.223 238.517 10.2894 238.841 10.2906ZM237.573 5.99811H238.917C239.809 5.99811 240.312 6.279 240.312 7.05205C240.322 7.17803 240.304 7.30454 240.26 7.42313C240.217 7.54171 240.148 7.64964 240.06 7.73969C239.971 7.82973 239.864 7.89983 239.747 7.94529C239.629 7.99076 239.502 8.01053 239.376 8.0033L240.329 9.55883H239.589L238.723 8.03753H238.28V9.55765H237.572L237.573 5.99811ZM238.281 7.48519H238.91C239.31 7.48519 239.608 7.42618 239.608 6.99304C239.608 6.61065 239.2 6.55045 238.876 6.55045H238.286L238.281 7.48519Z" fill="#55585B"/>
</svg>
