<svg width="160" height="56" viewBox="0 0 160 56" fill="none" xmlns="http://www.w3.org/2000/svg">
<path d="M10.8695 12.8719V38.5417L19.6047 30.7393H22.919C24.1068 30.7625 25.2874 30.5485 26.3915 30.1099C27.4957 29.6714 28.5013 29.017 29.3495 28.1852C30.1978 27.3533 30.8716 26.3606 31.3316 25.2652C31.7916 24.1698 32.0285 22.9937 32.0285 21.8056C32.0285 20.6176 31.7916 19.4414 31.3316 18.346C30.8716 17.2506 30.1978 16.258 29.3495 15.4261C28.5013 14.5942 27.4957 13.9399 26.3915 13.5013C25.2874 13.0628 24.1068 12.8488 22.919 12.8719H10.8695Z" fill="#00BDDA"/>
<path d="M23.5025 5.97534H4V49.811H23.5025V37.6291C27.6306 37.5245 31.5544 35.811 34.437 32.8543C37.3197 29.8976 38.9331 25.9316 38.9331 21.8022C38.9331 17.6728 37.3197 13.7069 34.437 10.7502C31.5544 7.79344 27.6306 6.08003 23.5025 5.97534ZM22.9122 33.7924H20.7649L7.81637 45.3806V9.83242H22.4916C22.6307 9.83242 22.7731 9.83242 22.9156 9.83242C26.0943 9.83242 29.1427 11.0951 31.3904 13.3428C33.638 15.5904 34.9007 18.6389 34.9007 21.8175C34.9007 24.9962 33.638 28.0446 31.3904 30.2922C29.1427 32.5399 26.0943 33.8026 22.9156 33.8026L22.9122 33.7924Z" fill="#00BDDA"/>
<path d="M49.2772 34.7626H58.2634V32.9002H47.3164V49.8109H49.2772V41.8797H57.0015V40.0173H49.2772V34.7626Z" fill="#00BDDA"/>
<path d="M63.4571 38.8808C60.2513 38.8808 57.8326 41.2555 57.8326 44.4375C57.8195 45.1772 57.9564 45.9119 58.2351 46.5972C58.5139 47.2825 58.9286 47.9042 59.4542 48.4248C59.9799 48.9454 60.6056 49.3541 61.2936 49.6261C61.9816 49.8982 62.7176 50.028 63.4571 50.0077C66.6696 50.0077 69.0918 47.6127 69.0918 44.4375C69.0918 41.2623 66.6696 38.8808 63.4571 38.8808ZM63.4571 48.2776C61.2758 48.2776 59.695 46.6628 59.695 44.4375C59.695 42.2121 61.2758 40.6075 63.4571 40.6075C64.4545 40.6372 65.401 41.0543 66.096 41.7702C66.791 42.4862 67.1797 43.4448 67.1797 44.4426C67.1797 45.4404 66.791 46.3989 66.096 47.1149C65.401 47.8309 64.4545 48.2479 63.4571 48.2776Z" fill="#00BDDA"/>
<path d="M78.5801 45.177C78.5801 47.1581 77.4776 48.2946 75.5507 48.2946C73.6239 48.2946 72.4976 47.1581 72.4976 45.177V39.1081H70.6692V45.3263C70.6692 47.4906 71.9447 50.0145 75.5372 50.0145C79.1296 50.0145 80.4052 47.4872 80.4052 45.3263V39.1081H78.5665L78.5801 45.177Z" fill="#00BDDA"/>
<path d="M87.8988 38.8808C87.0372 38.8808 85.4801 39.0878 84.4352 40.4176V39.0946H82.617V49.7974H84.4556V43.7862C84.4363 43.3689 84.5042 42.9523 84.6551 42.5628C84.8059 42.1734 85.0364 41.8197 85.3317 41.5244C85.627 41.229 85.9807 40.9986 86.3702 40.8477C86.7596 40.6969 87.1763 40.6289 87.5935 40.6483C89.4695 40.6483 90.5448 41.7779 90.5448 43.7421V49.8109H92.3733V43.1959C92.3767 40.6245 90.5788 38.8808 87.8988 38.8808Z" fill="#00BDDA"/>
<path d="M103.147 40.5227C102.681 39.9876 102.102 39.5627 101.451 39.2787C100.8 38.9948 100.095 38.8589 99.3852 38.8808C96.3321 38.8808 94.0389 41.2555 94.0389 44.4375C94.0389 47.6195 96.3389 50.0077 99.3852 50.0077C100.094 50.0334 100.799 49.9009 101.45 49.6199C102.1 49.3388 102.68 48.9162 103.147 48.3828V49.794H104.976V32.9002H103.147V40.5227ZM99.5854 48.2946C97.4855 48.2946 95.9013 46.6425 95.9013 44.4544C95.9013 42.2664 97.4516 40.6245 99.5854 40.6245C101.719 40.6245 103.249 42.2359 103.249 44.4544C103.249 46.673 101.699 48.2946 99.5854 48.2946Z" fill="#00BDDA"/>
<path d="M115.794 40.5227C115.328 39.9876 114.748 39.5627 114.098 39.2787C113.447 38.9948 112.741 38.8589 112.032 38.8808C108.979 38.8808 106.686 41.2555 106.686 44.4375C106.686 47.6195 108.982 50.0077 112.032 50.0077C112.74 50.0334 113.445 49.9009 114.096 49.6199C114.747 49.3388 115.327 48.9162 115.794 48.3828V49.794H117.622V39.1081H115.794V40.5227ZM112.215 48.2946C110.115 48.2946 108.531 46.6425 108.531 44.4544C108.531 42.2664 110.081 40.6245 112.215 40.6245C114.349 40.6245 115.879 42.2359 115.879 44.4544C115.879 46.673 114.352 48.2946 112.215 48.2946Z" fill="#00BDDA"/>
<path d="M127.07 47.5652C126.443 48.0279 125.688 48.2829 124.909 48.2946C123.617 48.2946 122.904 47.4838 122.904 46.0115V40.7806H127.453V39.1081H122.904V35.7599H121.076V39.1081H118.772V40.7806H121.076V46.0454C121.076 48.6474 122.355 50.0246 124.777 50.0246C125.925 50.0302 127.042 49.6556 127.955 48.9594L128.016 48.912L127.141 47.5109L127.07 47.5652Z" fill="#00BDDA"/>
<path d="M131.066 39.1081H129.228V49.8109H131.066V39.1081Z" fill="#00BDDA"/>
<path d="M130.147 34.3792C129.838 34.3792 129.542 34.5018 129.324 34.72C129.106 34.9382 128.983 35.2342 128.983 35.5428C128.983 35.8514 129.106 36.1474 129.324 36.3656C129.542 36.5838 129.838 36.7064 130.147 36.7064C130.455 36.7064 130.751 36.5838 130.97 36.3656C131.188 36.1474 131.31 35.8514 131.31 35.5428C131.31 35.2342 131.188 34.9382 130.97 34.72C130.751 34.5018 130.455 34.3792 130.147 34.3792Z" fill="#00BDDA"/>
<path d="M138.4 38.8808C135.195 38.8808 132.776 41.2555 132.776 44.4375C132.763 45.1772 132.9 45.9119 133.178 46.5972C133.457 47.2825 133.872 47.9042 134.398 48.4248C134.923 48.9454 135.549 49.3541 136.237 49.6261C136.925 49.8982 137.661 50.028 138.4 50.0077C141.613 50.0077 144.035 47.6127 144.035 44.4375C144.035 41.2623 141.613 38.8808 138.4 38.8808ZM138.4 48.2776C136.219 48.2776 134.638 46.6628 134.638 44.4375C134.638 42.2121 136.219 40.6075 138.4 40.6075C139.398 40.6372 140.344 41.0543 141.039 41.7702C141.734 42.4862 142.123 43.4448 142.123 44.4426C142.123 45.4404 141.734 46.3989 141.039 47.1149C140.344 47.8309 139.398 48.2479 138.4 48.2776Z" fill="#00BDDA"/>
<path d="M151.023 38.8808C150.162 38.8808 148.604 39.0878 147.56 40.4176V39.0946H145.741V49.7974H147.58V43.7862C147.561 43.3686 147.629 42.9517 147.78 42.562C147.931 42.1723 148.162 41.8184 148.457 41.5231C148.753 41.2277 149.107 40.9973 149.497 40.8467C149.887 40.696 150.304 40.6284 150.721 40.6483C152.597 40.6483 153.673 41.7779 153.673 43.7421V49.8109H155.501V43.1959C155.501 40.6245 153.7 38.8808 151.023 38.8808Z" fill="#00BDDA"/>
<path d="M50.9971 24.7213H53.7109C57.4934 24.7213 59.9867 21.8378 59.9867 18.7949C59.9867 15.6977 57.7682 12.8787 53.6804 12.8787H47.3164V29.6334H50.9971V24.7213ZM50.9971 16.2201H53.8161C55.5903 16.2201 56.4859 17.3294 56.4859 18.7949C56.4929 19.146 56.4285 19.4949 56.2964 19.8203C56.1644 20.1457 55.9675 20.4409 55.7177 20.6878C55.468 20.9347 55.1706 21.1282 54.8437 21.2565C54.5167 21.3848 54.1671 21.4452 53.8161 21.4341H50.9971V16.2201Z" fill="#00BDDA"/>
<path d="M64.7835 29.9183C65.4063 29.9436 66.0265 29.8255 66.5964 29.5732C67.1663 29.3209 67.6707 28.941 68.0707 28.463V29.63H71.4121V18.8186H68.0707V19.9856C67.7094 19.5117 67.2394 19.1317 66.7003 18.8778C66.1612 18.6239 65.5689 18.5035 64.9735 18.5269C62.073 18.5269 59.9359 21.0406 59.9359 24.2158C59.9359 27.391 61.8966 29.9183 64.7835 29.9183ZM65.8012 21.7394C67.1581 21.7394 68.1148 22.7876 68.1148 24.2192C68.1148 25.6508 67.1547 26.699 65.8012 26.699C64.4477 26.699 63.4978 25.6304 63.4978 24.2192C63.4978 22.808 64.4137 21.7394 65.791 21.7394H65.8012Z" fill="#00BDDA"/>
<path d="M76.4294 20.0636V18.8186H73.1218V29.6334H76.5718V23.7884C76.5718 22.4315 77.3215 21.7903 78.5462 21.7903C79.2468 21.7947 79.9392 21.9413 80.5816 22.2211V18.6863C80.1862 18.5758 79.7776 18.5199 79.3671 18.5201C78.0611 18.5269 77.0569 19.0154 76.4294 20.0636Z" fill="#00BDDA"/>
<path d="M92.5768 18.8186H88.3975L85.6192 22.4009H85.4156V12.8821H81.9656V29.6334H85.4156V25.454H85.6192L88.4653 29.6334H92.6311L88.3534 23.9207L92.5768 18.8186Z" fill="#00BDDA"/>
<path d="M97.2311 18.8186H93.7811V29.6334H97.2311V18.8186Z" fill="#00BDDA"/>
<path d="M95.4874 17.5397C95.8965 17.5397 96.2963 17.418 96.6361 17.1901C96.9758 16.9623 97.2402 16.6385 97.3954 16.2601C97.5507 15.8816 97.59 15.4655 97.5081 15.0647C97.4263 14.6639 97.2272 14.2965 96.936 14.0091C96.6448 13.7218 96.2748 13.5275 95.8729 13.451C95.4711 13.3745 95.0555 13.4193 94.6792 13.5796C94.3028 13.7398 93.9826 14.0084 93.7592 14.3511C93.5359 14.6939 93.4195 15.0953 93.4249 15.5043C93.4249 15.7739 93.4784 16.0408 93.5824 16.2896C93.6864 16.5383 93.8387 16.7639 94.0306 16.9532C94.2225 17.1426 94.4501 17.292 94.7002 17.3926C94.9503 17.4933 95.2179 17.5433 95.4874 17.5397Z" fill="#00BDDA"/>
<path d="M109.294 29.6334V22.5332C109.294 20.0297 107.618 18.5201 105.457 18.5201C104.012 18.5201 102.923 19.0391 102.238 20.1756V18.8186H98.9307V29.6334H102.377V23.8121C102.377 22.4111 103.171 21.7767 104.131 21.7767C105.2 21.7767 105.827 22.4925 105.827 23.7714V29.6334H109.294Z" fill="#00BDDA"/>
<path d="M115.177 27.1197C113.836 27.1381 112.517 26.786 111.364 26.102L110.163 28.7683C111.397 29.5723 113.287 29.9048 115.139 29.9048C118.291 29.9048 120.163 28.4834 120.163 26.1121C120.163 24.2938 118.939 23.1812 116.625 22.8284L115.831 22.7062C114.773 22.54 114.088 22.4315 114.088 21.9667C114.088 21.5698 114.427 21.3052 115.343 21.3052C116.571 21.3695 117.777 21.6533 118.905 22.1431L119.865 19.453C118.396 18.8207 116.81 18.5051 115.21 18.5269C112.266 18.5269 110.536 19.8397 110.536 22.1431C110.536 24.0835 111.747 25.1623 114.349 25.5354L114.976 25.6236C116.201 25.8102 116.673 25.9629 116.673 26.3937C116.673 26.8245 116.245 27.1197 115.177 27.1197Z" fill="#00BDDA"/>
<path d="M126.609 18.5269C123.237 18.5269 120.743 20.9524 120.743 24.226C120.743 27.4996 123.216 29.9251 126.588 29.9251C129.96 29.9251 132.481 27.4996 132.481 24.226C132.481 20.9524 129.991 18.5269 126.609 18.5269ZM126.609 26.7058C125.252 26.7058 124.271 25.6881 124.271 24.226C124.271 22.7639 125.262 21.7462 126.609 21.7462C127.955 21.7462 128.956 22.7639 128.956 24.226C128.956 25.6881 127.962 26.699 126.609 26.699V26.7058Z" fill="#00BDDA"/>
<path d="M136.83 23.8121C136.83 22.4111 137.624 21.7767 138.584 21.7767C139.652 21.7767 140.28 22.4925 140.28 23.7714V29.6334H143.73V22.5332C143.74 20.0297 142.067 18.5269 139.903 18.5269C138.458 18.5269 137.369 19.0459 136.684 20.1823V18.8254H133.376V29.6334H136.826L136.83 23.8121Z" fill="#00BDDA"/>
<path d="M146.379 22.1465C146.379 24.0869 147.594 25.1657 150.192 25.5388L150.82 25.627C152.044 25.8136 152.516 25.9663 152.516 26.3971C152.516 26.8279 152.075 27.1027 151.006 27.1027C149.666 27.1214 148.346 26.7692 147.193 26.085L146.003 28.7717C147.237 29.5757 149.127 29.9081 150.976 29.9081C154.127 29.9081 156 28.4868 156 26.1155C156 24.2972 154.775 23.1846 152.462 22.8317L151.668 22.7096C150.609 22.5434 149.924 22.4348 149.924 21.9701C149.924 21.5732 150.263 21.3086 151.179 21.3086C152.407 21.3729 153.613 21.6567 154.741 22.1465L155.701 19.4564C154.233 18.8234 152.649 18.5067 151.05 18.5269C148.109 18.5269 146.379 19.8431 146.379 22.1465Z" fill="#00BDDA"/>
<path d="M148.052 12.8821H144.764L144.011 18.1198H146.481L148.052 12.8821Z" fill="#00BDDA"/>
</svg>
