<svg width="200" height="48" viewBox="0 0 200 48" fill="none" xmlns="http://www.w3.org/2000/svg">
<path d="M25.4379 5.84906V7.70566H22.1172V8.91321H25.4379V12.6113H26.7361V8.91321H30.1398V7.70566H26.7361V4H25.4379V5.84906Z" fill="#7099A6"/>
<path d="M14.585 10.5586V13.2529H9.55859V14.9435H14.585V20.4152H16.4492V14.9435H21.551V13.2529H16.4492V7.86426H14.585V10.5586Z" fill="#EB912C"/>
<path d="M35.6495 10.5586V13.2529H30.623V15.0265H35.6495V20.4152H37.5891V15.0265H42.6155V13.2529H37.5891V7.86426H35.6495V10.5586Z" fill="#59879B"/>
<path d="M24.9557 19.7357V22.7545H19.3633V25.0036H24.9557V31.0413H27.2199V25.0036H32.8123V22.7545H27.2199V16.7168H24.9557V19.7357Z" fill="#E8762C"/>
<path d="M41.3999 21.2598V23.1542H37.9961V24.6863H41.3999V28.4674H43.098V24.6863H46.5018V23.1542H43.098V19.373H41.3999V21.2598Z" fill="#5B6591"/>
<path d="M8.99263 21.4266V23.2379H5.67188V24.5209H8.99263V28.1435H10.2907V24.5209L13.6945 24.4001V23.2379H10.2907V19.6152H8.99263V21.4266Z" fill="#7099A6"/>
<path d="M14.585 29.9551V32.6494H9.55859V34.423H14.585V39.8117H16.5246V34.423H21.551V32.6494H16.5246V27.2607H14.585V29.9551Z" fill="#C72035"/>
<path d="M35.6495 29.9551V32.6494H30.623V34.34H35.6495V39.8117H37.5891V34.34H42.6155V32.6494H37.5891V27.2607H35.6495V29.9551Z" fill="#1F447E"/>
<path d="M25.2788 36.8006V38.6874H21.875V40.2195H25.2788V44.0006H26.9769V40.2195H30.3807V38.6874H26.9769V34.9062H25.2788V36.8006Z" fill="#5B6591"/>
<path d="M129.944 12.0459V34.9893H127.355V12.0459H129.944ZM65.6192 15.2685V22.5893H72.5852V25.0044H65.6192V32.8912H63.0305V25.0044H56.0645V22.5893H63.0305V15.2685H65.6192ZM146.638 20.295C147.106 20.3176 147.702 20.3931 147.974 20.461C148.238 20.5289 148.676 20.6874 148.94 20.8157C149.212 20.9365 149.649 21.2006 149.914 21.4044C150.185 21.6082 150.563 21.9855 150.759 22.2421C150.955 22.4987 151.234 22.9667 151.385 23.2761C151.536 23.5855 151.732 24.1289 151.823 24.4836C151.914 24.8384 152.019 25.5553 152.102 27.0195H143.151L143.204 27.3214C143.227 27.4874 143.325 27.8421 143.4 28.1063C143.483 28.3704 143.695 28.7855 143.861 29.0195C144.027 29.2534 144.276 29.5327 144.404 29.6308C144.54 29.7289 144.812 29.895 145.015 30.0006C145.212 30.0987 145.559 30.227 145.785 30.2874C146.012 30.3478 146.615 30.4006 147.159 30.4006C147.695 30.4006 148.464 30.3478 148.864 30.2799C149.264 30.2119 149.83 30.0761 150.117 29.9855C150.404 29.895 150.781 29.7516 150.947 29.6685C151.114 29.5855 151.287 29.5101 151.332 29.5101C151.383 29.5101 151.413 29.9321 151.415 31.6836L151.415 31.9251L150.97 32.1289C150.721 32.2421 150.208 32.4233 149.815 32.5365C149.423 32.6421 148.706 32.778 148.215 32.8308C147.544 32.8987 147.091 32.8987 146.389 32.8308C145.876 32.778 145.129 32.6421 144.729 32.5289C144.329 32.4157 143.747 32.1893 143.446 32.0233C143.136 31.8572 142.615 31.4723 142.283 31.1629C141.944 30.8534 141.521 30.3478 141.325 30.0384C141.129 29.7289 140.887 29.2006 140.774 28.8685C140.661 28.5365 140.525 27.9553 140.472 27.5855C140.412 27.1704 140.397 26.5893 140.427 26.1365C140.449 25.7138 140.547 25.0799 140.638 24.7251C140.729 24.3704 140.947 23.7893 141.121 23.4346C141.295 23.0799 141.619 22.5742 141.83 22.3101C142.049 22.0459 142.48 21.6384 142.789 21.4044C143.098 21.1704 143.619 20.8761 143.944 20.7402C144.261 20.6044 144.812 20.4459 145.159 20.378C145.574 20.3025 146.072 20.2723 146.638 20.295ZM173.529 20.1742V24.2195C173.529 26.4459 173.506 29.1101 173.408 32.0157L172.759 32.2119C172.404 32.3176 171.687 32.4836 171.159 32.5667C170.487 32.6874 169.846 32.7327 168.978 32.7327C168.291 32.7327 167.498 32.695 167.212 32.6497C166.925 32.5968 166.359 32.4534 165.959 32.3251C165.529 32.1893 164.97 31.9251 164.623 31.6987C164.283 31.4799 163.815 31.095 163.574 30.8308C163.34 30.5742 163.008 30.1214 162.849 29.8346C162.691 29.5478 162.472 29.0195 162.366 28.6723C162.208 28.1667 162.163 27.7742 162.125 26.861C162.102 26.1289 162.125 25.4799 162.185 25.1251C162.238 24.8157 162.374 24.295 162.487 23.9629C162.593 23.6308 162.842 23.1025 163.038 22.7931C163.227 22.4836 163.634 21.9931 163.944 21.7063C164.291 21.3893 164.744 21.0648 165.114 20.8836C165.446 20.7251 165.929 20.5289 166.2 20.4534C166.464 20.3855 167.121 20.3025 167.657 20.2799C168.374 20.2497 168.789 20.2799 169.234 20.3704C169.574 20.4459 170.08 20.6119 170.374 20.7478C170.661 20.8761 170.91 20.9893 170.917 20.9817C170.931 20.9817 170.939 20.8295 170.94 20.6356L170.94 20.1742H173.529ZM93.4078 20.1742L93.4077 25.2067L93.4069 25.7321C93.4012 28.0944 93.3686 30.4127 93.2871 32.0157L92.638 32.2119C92.2833 32.3176 91.5362 32.4836 90.9777 32.5817C90.1248 32.7251 89.7399 32.7402 88.5097 32.7101C87.3701 32.6799 86.9097 32.6346 86.4041 32.5063C86.0418 32.4082 85.4229 32.1742 85.0229 31.978C84.6003 31.7667 84.0946 31.4346 83.8079 31.1855C83.5437 30.944 83.1663 30.5138 82.9852 30.2346C82.7965 29.9478 82.5475 29.495 82.4418 29.2308C82.3362 28.9667 82.1777 28.4384 82.1022 28.0685C81.9965 27.5251 81.9739 27.1251 82.0041 26.1742C82.0418 25.261 82.0946 24.8157 82.2229 24.3629C82.3211 24.0308 82.5475 23.4874 82.7211 23.1553C82.8946 22.8233 83.2418 22.3176 83.4984 22.0384C83.7626 21.7516 84.1928 21.3742 84.4569 21.1931C84.7211 21.0195 85.1588 20.7855 85.4305 20.6799C85.6946 20.5742 86.1777 20.4308 86.5022 20.3704C86.8267 20.3101 87.4305 20.2572 87.838 20.2572C88.2531 20.2572 88.8418 20.3176 89.1588 20.378C89.4682 20.4459 89.9588 20.6119 90.2531 20.7478C90.5399 20.8761 90.789 20.9893 90.7965 20.9817C90.8041 20.9817 90.8192 20.8006 90.8192 20.5817V20.1742H93.4078ZM108.555 14.461L108.555 18.2962C108.558 20.6615 108.58 20.8128 108.698 20.778C108.781 20.7478 109.174 20.6421 109.574 20.5289C110.049 20.4006 110.623 20.3176 111.234 20.2799C111.929 20.2497 112.336 20.2723 112.849 20.3704C113.287 20.4534 113.808 20.6346 114.268 20.861C114.668 21.0572 115.197 21.3893 115.446 21.6082C115.687 21.8195 116.072 22.2648 116.291 22.5968C116.517 22.9289 116.797 23.4572 116.917 23.7817C117.046 24.0987 117.204 24.695 117.28 25.11C117.37 25.6534 117.393 26.1214 117.363 26.861C117.34 27.4119 117.257 28.0987 117.181 28.3855C117.114 28.6723 116.932 29.1629 116.789 29.4723C116.646 29.7817 116.359 30.2572 116.155 30.5214C115.959 30.7855 115.559 31.178 115.272 31.3968C114.993 31.6157 114.48 31.9176 114.147 32.0685C113.815 32.227 113.264 32.4233 112.932 32.5138C112.412 32.6572 112.08 32.6799 110.585 32.6874C109.174 32.695 108.714 32.6648 108.155 32.544C107.778 32.461 107.151 32.3025 106.774 32.1968C106.397 32.0912 106.064 31.9704 106.034 31.9402C106.004 31.9101 105.966 27.9704 105.951 23.178L105.921 14.461H108.555ZM186.253 20.4987L186.246 24.544L186.246 24.8621C186.246 24.9137 186.246 24.9646 186.246 25.0148L186.246 25.5848C186.248 28.0965 186.264 28.5795 186.363 28.9659L186.374 29.007C186.383 29.0411 186.393 29.075 186.404 29.1101C186.502 29.4119 186.683 29.7667 186.834 29.9478C186.978 30.1138 187.28 30.3402 187.506 30.4459C187.725 30.5516 188.147 30.6723 188.434 30.7101C188.744 30.7553 189.181 30.7553 189.491 30.7101C189.778 30.6723 190.2 30.5516 190.419 30.4459C190.646 30.3402 190.947 30.1138 191.091 29.9478C191.242 29.7667 191.43 29.4119 191.521 29.1101C191.533 29.0708 191.544 29.033 191.555 28.9927L191.562 28.9619C191.656 28.564 191.675 27.8453 191.679 23.3735L191.679 23.0126C191.679 22.9512 191.679 22.889 191.679 22.8262L191.679 21.8326C191.679 21.7629 191.679 21.6924 191.679 21.6213L191.68 20.4987H194.329L194.314 24.8685C194.307 28.5146 194.3 29.14 194.195 29.5524L194.186 29.5888C194.181 29.6068 194.176 29.6245 194.17 29.6423L194.159 29.6778L194.147 29.7138C194.057 29.978 193.868 30.378 193.725 30.5968C193.581 30.8233 193.332 31.1327 193.159 31.2987C192.993 31.4648 192.63 31.7289 192.366 31.8874C192.102 32.0459 191.589 32.2648 191.234 32.378C190.827 32.5063 190.283 32.6044 189.778 32.6421C189.325 32.6648 188.6 32.6648 188.155 32.6346C187.649 32.6044 187.098 32.5063 186.698 32.378C186.336 32.2648 185.83 32.0459 185.559 31.8874C185.295 31.7289 184.94 31.4648 184.766 31.2987C184.6 31.1327 184.344 30.8233 184.2 30.5968C184.064 30.378 183.876 29.978 183.785 29.7138L183.779 29.696L183.767 29.6608C183.756 29.6256 183.745 29.5905 183.735 29.5536L183.725 29.516C183.624 29.0998 183.616 28.3864 183.597 24.8685L183.566 20.4987H186.253ZM168.344 22.6799C168.057 22.6799 167.619 22.7402 167.378 22.8006C167.129 22.8685 166.751 23.0195 166.532 23.1402C166.314 23.261 165.997 23.5101 165.823 23.6987C165.649 23.8874 165.423 24.2195 165.31 24.4459C165.197 24.6648 165.053 25.0723 164.985 25.3516C164.917 25.6233 164.864 26.1591 164.864 26.5365C164.864 26.9138 164.917 27.4497 164.985 27.7214C165.053 28.0006 165.181 28.378 165.28 28.5667C165.378 28.7553 165.627 29.0874 165.83 29.2987C166.034 29.5176 166.366 29.7742 166.563 29.8723C166.766 29.978 167.129 30.1214 167.378 30.1893C167.657 30.2723 168.117 30.3176 168.653 30.3176C169.106 30.3176 169.747 30.2799 170.064 30.2346C170.389 30.1893 170.698 30.1214 170.744 30.0912C170.812 30.0534 170.849 29.0799 170.872 26.7478L170.895 23.4497C170.08 23.0346 169.627 22.861 169.355 22.7931C169.091 22.7251 168.638 22.6723 168.344 22.6799ZM87.2494 22.8006C87.0078 22.8685 86.6305 23.0195 86.4116 23.1402C86.1928 23.261 85.8758 23.5101 85.7022 23.6987C85.5286 23.8874 85.2946 24.2195 85.189 24.4459C85.0758 24.6648 84.9324 25.0723 84.8645 25.3516C84.7965 25.6233 84.7437 26.1214 84.7437 26.4534C84.7437 26.7855 84.7814 27.2761 84.8267 27.5402C84.8795 27.8044 85.0154 28.2421 85.1437 28.5063C85.2946 28.8233 85.5362 29.1478 85.8456 29.4346C86.1475 29.7138 86.5022 29.9478 86.8116 30.0685C87.189 30.2195 87.4909 30.2648 88.2682 30.3025C88.8192 30.3251 89.5135 30.295 89.8833 30.2421C90.238 30.1893 90.5701 30.1214 90.6229 30.0912C90.6833 30.0534 90.7286 29.0044 90.7663 26.7553L90.8192 23.4799C90.155 23.1176 89.7852 22.9516 89.5588 22.8761C89.3399 22.7931 88.8267 22.7176 88.4267 22.7025C87.9286 22.6799 87.5588 22.7101 87.2494 22.8006ZM111.03 22.6799C110.721 22.6874 110.314 22.7251 110.14 22.7629C109.959 22.8006 109.544 22.9289 109.204 23.0497L108.6 23.261V29.9553C109.868 30.2874 110.14 30.3101 110.985 30.2874C111.815 30.2648 112.087 30.227 112.487 30.0761C112.751 29.9704 113.121 29.7742 113.295 29.6308C113.476 29.495 113.732 29.2384 113.868 29.0648C114.004 28.8912 114.2 28.5289 114.298 28.2648C114.404 28.0006 114.525 27.495 114.57 27.1402C114.638 26.6572 114.638 26.3251 114.563 25.8119C114.502 25.3516 114.374 24.9365 114.185 24.544C114.034 24.2195 113.77 23.8195 113.604 23.6534C113.438 23.4874 113.136 23.2534 112.932 23.1402C112.736 23.0195 112.351 22.8685 112.08 22.8006C111.815 22.7251 111.34 22.6723 111.03 22.6799ZM145.74 22.7931C145.498 22.861 145.106 23.0346 144.864 23.178C144.623 23.3214 144.283 23.6006 144.102 23.7968C143.929 24.0006 143.695 24.3327 143.589 24.544C143.483 24.7553 143.393 24.9591 143.393 25.0044C143.393 25.0547 144.317 25.0845 146.028 25.0872L149.189 25.0874C149.106 24.4912 149.03 24.1968 148.97 24.0384C148.902 23.8874 148.706 23.6006 148.532 23.4119C148.321 23.178 148.064 23.0119 147.77 22.8987C147.521 22.8157 147.068 22.7251 146.759 22.7025C146.397 22.6874 146.027 22.7176 145.74 22.7931Z" fill="#1F447E"/>
</svg>
