<svg width="256" height="48" viewBox="0 0 256 48" fill="none" xmlns="http://www.w3.org/2000/svg">
<path d="M119.957 14.2521L123.836 4.38716H124.891L128.675 14.2521H127.715L126.578 11.1544H122.082L120.917 14.2521H119.957ZM122.396 10.3593H126.261L124.329 5.17805L122.396 10.3593Z" fill="#1A1818"/>
<path d="M130.598 14.2521H129.776V7.15273H130.598V8.22354H130.626C130.823 7.82509 131.139 7.49738 131.53 7.2851C131.925 7.06985 132.369 6.95899 132.819 6.96302C133.101 6.95692 133.383 6.99388 133.654 7.07263C133.864 7.13634 134.061 7.2362 134.237 7.36773C134.394 7.48751 134.528 7.63358 134.635 7.79943C134.742 7.96802 134.832 8.14714 134.902 8.33399C135.109 7.90137 135.441 7.5409 135.855 7.29944C136.272 7.06986 136.743 6.95359 137.219 6.96217C137.619 6.94389 138.017 7.02652 138.377 7.20247C138.651 7.34919 138.88 7.5667 139.041 7.83231C139.2 8.10863 139.303 8.41343 139.345 8.72944C139.395 9.07421 139.42 9.42226 139.42 9.77074V14.2521H138.598V9.34494C138.622 8.91869 138.509 8.49588 138.276 8.13838C138.125 7.97574 137.937 7.8512 137.729 7.77499C137.52 7.69877 137.297 7.67305 137.077 7.69994C136.765 7.69942 136.457 7.77236 136.179 7.91284C135.901 8.05333 135.659 8.2574 135.475 8.50853C135.378 8.63671 135.302 8.77888 135.249 8.93011C135.188 9.09318 135.14 9.2606 135.104 9.43095C135.068 9.60255 135.043 9.77631 135.029 9.95117C135.015 10.1249 135.008 10.2884 135.008 10.4309V14.2521H134.186V9.34494C134.21 8.9187 134.097 8.49595 133.864 8.13838C133.713 7.97574 133.526 7.8512 133.317 7.77499C133.109 7.69877 132.886 7.67305 132.665 7.69994C132.353 7.69956 132.046 7.77256 131.768 7.91303C131.489 8.0535 131.248 8.2575 131.063 8.50853C130.967 8.63687 130.891 8.779 130.837 8.93011C130.777 9.09322 130.729 9.26064 130.693 9.43095C130.657 9.60253 130.632 9.77631 130.618 9.95117C130.605 10.1249 130.598 10.2884 130.598 10.4309V14.2521Z" fill="#1A1818"/>
<path d="M141.804 10.8947C141.802 11.2632 141.853 11.63 141.955 11.984C142.045 12.3069 142.196 12.6095 142.4 12.8753C142.601 13.13 142.856 13.3361 143.147 13.4781C143.472 13.6341 143.829 13.7115 144.19 13.7041C144.685 13.7186 145.171 13.5706 145.574 13.2825C145.966 12.9856 146.239 12.5573 146.341 12.0759H147.26C147.164 12.4034 147.031 12.7186 146.862 13.0152C146.701 13.2995 146.493 13.5544 146.246 13.769C145.988 13.99 145.691 14.1597 145.369 14.269C144.988 14.3943 144.589 14.4544 144.189 14.4469C143.685 14.4597 143.184 14.3616 142.722 14.1594C142.327 13.9795 141.981 13.7094 141.71 13.371C141.436 13.0208 141.236 12.6195 141.12 12.1906C140.989 11.715 140.924 11.2236 140.927 10.7303C140.924 10.2326 141 9.73754 141.153 9.264C141.293 8.82795 141.511 8.42125 141.798 8.06418C142.074 7.72307 142.423 7.44702 142.819 7.25559C143.247 7.05317 143.716 6.95219 144.19 6.96049C144.625 6.94025 145.06 7.02105 145.459 7.19657C145.859 7.37208 146.212 7.63756 146.492 7.97228C147.103 8.81988 147.395 9.85624 147.315 10.898L141.804 10.8947ZM146.437 10.2092C146.44 9.87716 146.391 9.54676 146.293 9.22943C146.207 8.93911 146.063 8.66886 145.872 8.43433C145.679 8.20624 145.438 8.02368 145.166 7.89977C144.86 7.76264 144.528 7.69469 144.193 7.70078C143.859 7.69386 143.529 7.76427 143.227 7.90651C142.954 8.03872 142.712 8.22523 142.514 8.45457C142.313 8.69093 142.153 8.95978 142.041 9.24967C141.921 9.55754 141.842 9.88029 141.808 10.2092H146.437Z" fill="#1A1818"/>
<path d="M149.781 14.2521H148.959V7.15273H149.781V8.48239H149.809C149.971 8.00276 150.281 7.58719 150.695 7.29606C151.132 7.05246 151.629 6.93565 152.129 6.9588V7.85002C151.733 7.82688 151.337 7.9022 150.978 8.06924C150.688 8.21443 150.44 8.43158 150.258 8.69993C150.072 8.98459 149.946 9.3042 149.888 9.63921C149.818 10.0121 149.784 10.3906 149.785 10.7699L149.781 14.2521Z" fill="#1A1818"/>
<path d="M153.565 5.60384V4.38379H154.469V5.60384H153.565ZM153.605 14.253V7.15104H154.427V14.2504L153.605 14.253Z" fill="#1A1818"/>
<path d="M161.556 9.38626C161.439 8.90476 161.176 8.47139 160.802 8.14597C160.418 7.83941 159.937 7.68111 159.446 7.69994C159.068 7.68954 158.694 7.77943 158.362 7.96047C158.065 8.13035 157.811 8.36741 157.622 8.65271C157.427 8.95061 157.284 9.2797 157.2 9.62572C157.11 9.98174 157.064 10.3477 157.064 10.7151C157.063 11.0843 157.107 11.4523 157.194 11.8112C157.275 12.1538 157.418 12.4788 157.615 12.7707C157.805 13.0507 158.059 13.2818 158.355 13.4452C158.693 13.6225 159.071 13.7097 159.452 13.6982C159.989 13.7248 160.517 13.5437 160.925 13.1923C161.312 12.8204 161.561 12.3272 161.63 11.7943H162.507C162.441 12.1672 162.323 12.5292 162.158 12.8702C162.005 13.1845 161.796 13.4681 161.541 13.7066C161.281 13.9449 160.976 14.129 160.644 14.2479C159.774 14.5333 158.831 14.4992 157.984 14.1518C157.59 13.972 157.243 13.7019 156.973 13.3634C156.698 13.012 156.497 12.6088 156.382 12.178C156.252 11.7 156.187 11.2064 156.19 10.7109C156.188 10.2301 156.26 9.75179 156.403 9.29267C156.535 8.85811 156.746 8.45166 157.026 8.09369C157.301 7.74552 157.65 7.46226 158.047 7.26402C158.484 7.05144 158.966 6.94567 159.452 6.95543C160.165 6.92203 160.867 7.12999 161.447 7.54564C161.992 8.00948 162.334 8.6688 162.399 9.38204L161.556 9.38626Z" fill="#1A1818"/>
<path d="M167.408 10.1131C167.564 10.0951 167.749 10.067 167.963 10.0287C168.145 10.0019 168.323 9.95112 168.491 9.87782C168.556 9.84902 168.614 9.80457 168.658 9.7484C168.702 9.69223 168.732 9.62606 168.744 9.55573C168.775 9.41726 168.791 9.27597 168.792 9.13415C168.799 8.94323 168.766 8.75299 168.697 8.57508C168.627 8.39718 168.522 8.23538 168.387 8.0996C168.003 7.79183 167.513 7.64658 167.023 7.69488C166.761 7.69283 166.499 7.71798 166.242 7.76992C166.018 7.81415 165.807 7.90275 165.618 8.03046C165.436 8.15853 165.286 8.32742 165.18 8.52371C165.055 8.76457 164.978 9.02748 164.954 9.29773H164.118C164.133 8.92218 164.231 8.55472 164.406 8.22185C164.562 7.93517 164.78 7.68687 165.043 7.49505C165.316 7.30217 165.623 7.16257 165.948 7.08359C166.305 6.99539 166.671 6.95177 167.038 6.95374C167.378 6.95177 167.716 6.99084 168.046 7.0701C168.341 7.139 168.621 7.26472 168.868 7.44024C169.106 7.61436 169.295 7.84662 169.417 8.11477C169.558 8.44355 169.626 8.79924 169.615 9.15692V13.0296C169.615 13.3494 169.671 13.5526 169.784 13.6392C169.896 13.7257 170.127 13.7052 170.475 13.5776V14.2218L170.194 14.3061C170.076 14.3419 169.954 14.3603 169.831 14.3609C169.706 14.3613 169.582 14.3474 169.461 14.3196C169.341 14.3083 169.227 14.2633 169.132 14.1897C169.05 14.1216 168.982 14.0376 168.934 13.9427C168.882 13.844 168.848 13.7374 168.831 13.6274C168.812 13.5072 168.802 13.3856 168.803 13.264C168.471 13.6363 168.065 13.935 167.611 14.1408C167.154 14.3439 166.658 14.4468 166.158 14.4427C165.854 14.4439 165.552 14.4025 165.26 14.3196C164.984 14.2431 164.726 14.1127 164.501 13.9359C164.283 13.7639 164.105 13.5464 163.98 13.2985C163.846 13.0187 163.78 12.7108 163.789 12.4006C163.789 11.1943 164.616 10.4815 166.269 10.2623L167.408 10.1131ZM168.793 10.5245C168.456 10.6682 168.101 10.7652 167.737 10.8129C167.382 10.8584 167.025 10.895 166.669 10.9225C166.15 10.9335 165.642 11.0788 165.195 11.3441C165.021 11.4633 164.881 11.6258 164.788 11.8156C164.696 12.0054 164.654 12.216 164.667 12.4267C164.662 12.6244 164.707 12.8202 164.798 12.9958C164.881 13.1519 164.998 13.2876 165.14 13.393C165.288 13.5014 165.456 13.5804 165.634 13.6257C165.819 13.6755 166.01 13.7008 166.202 13.7007C166.526 13.7016 166.848 13.6602 167.161 13.5776C167.458 13.502 167.739 13.3744 167.991 13.2007C168.232 13.0332 168.431 12.8128 168.574 12.5565C168.726 12.2716 168.801 11.952 168.793 11.6291V10.5245Z" fill="#1A1818"/>
<path d="M172.589 14.2521H171.767V7.15273H172.589V8.13922C172.892 7.81359 173.235 7.52798 173.61 7.28932C173.992 7.06229 174.43 6.94827 174.875 6.96049C175.292 6.95643 175.706 7.03316 176.095 7.18645C176.482 7.34783 176.812 7.62266 177.04 7.97481C177.205 8.20868 177.311 8.47924 177.349 8.76316C177.381 9.04302 177.397 9.32457 177.397 9.60632V14.2521H176.574V9.61897C176.613 9.10384 176.464 8.59194 176.152 8.1797C175.965 8.00378 175.742 7.86998 175.498 7.78724C175.255 7.70449 174.996 7.67473 174.741 7.69994C174.503 7.69681 174.266 7.73621 174.042 7.81629C173.838 7.89034 173.646 7.99404 173.473 8.12405C173.307 8.2478 173.162 8.39559 173.041 8.56249C172.925 8.72201 172.832 8.89753 172.767 9.08356C172.688 9.29539 172.638 9.51643 172.616 9.74123C172.597 9.95146 172.588 10.18 172.589 10.4267V14.2521Z" fill="#1A1818"/>
<path d="M120.438 24.521C120.433 23.872 120.527 23.2261 120.716 22.6053C120.887 22.0373 121.166 21.5076 121.538 21.0455C121.904 20.5983 122.365 20.2378 122.887 19.9898C123.468 19.7207 124.102 19.5878 124.742 19.6011C125.399 19.5872 126.051 19.7175 126.652 19.9831C127.183 20.2247 127.652 20.5833 128.024 21.032C128.401 21.4947 128.683 22.027 128.853 22.5986C129.042 23.2217 129.136 23.8698 129.132 24.521C129.136 25.1636 129.042 25.803 128.853 26.4172C128.681 26.9831 128.402 27.5106 128.031 27.9712C127.663 28.4204 127.198 28.7812 126.672 29.0268C126.075 29.283 125.432 29.4152 124.782 29.4152C124.132 29.4152 123.489 29.283 122.891 29.0268C122.365 28.7812 121.9 28.4204 121.532 27.9712C121.161 27.5114 120.884 26.9835 120.716 26.4172C120.529 25.8026 120.435 25.1634 120.438 24.521ZM124.788 28.6634C125.328 28.6782 125.864 28.5606 126.348 28.3211C126.772 28.103 127.139 27.7906 127.422 27.408C127.711 27.0111 127.922 26.5631 128.044 26.0876C128.179 25.5764 128.247 25.0497 128.245 24.521C128.253 23.9319 128.172 23.3449 128.005 22.7799C127.864 22.3005 127.628 21.854 127.313 21.4662C127.016 21.1077 126.639 20.8238 126.213 20.6374C125.754 20.4423 125.26 20.3452 124.762 20.3524C124.226 20.3387 123.694 20.4589 123.215 20.7023C122.791 20.9256 122.424 21.2428 122.141 21.6298C121.853 22.0297 121.642 22.4798 121.519 22.9569C121.253 23.9886 121.253 25.0711 121.519 26.1027C121.641 26.5782 121.852 27.0262 122.141 27.4231C122.423 27.8049 122.791 28.1153 123.215 28.3295C123.705 28.5649 124.244 28.6794 124.788 28.6634Z" fill="#1A1818"/>
<path d="M135.508 24.5733C135.398 24.1182 135.149 23.7087 134.796 23.4013C134.433 23.1119 133.978 22.9623 133.514 22.9797C133.158 22.9698 132.805 23.0547 132.492 23.2259C132.211 23.3862 131.971 23.61 131.793 23.8793C131.607 24.1608 131.471 24.4719 131.391 24.7992C131.305 25.1356 131.262 25.4815 131.261 25.8287C131.261 26.1775 131.302 26.5252 131.384 26.8641C131.461 27.1876 131.595 27.4947 131.78 27.7705C131.959 28.0363 132.199 28.2559 132.479 28.4113C132.798 28.5792 133.155 28.6617 133.515 28.6508C134.023 28.6755 134.522 28.504 134.907 28.1719C135.273 27.8205 135.509 27.3547 135.574 26.8515H136.403C136.34 27.2037 136.229 27.5455 136.073 27.8675C135.929 28.1644 135.732 28.4323 135.491 28.6575C135.245 28.8831 134.957 29.0571 134.642 29.1693C133.821 29.4388 132.931 29.4068 132.132 29.0791C131.758 28.9096 131.43 28.6545 131.173 28.3346C130.914 28.0026 130.725 27.6217 130.616 27.2149C130.493 26.7636 130.432 26.2975 130.435 25.8296C130.433 25.3753 130.501 24.9235 130.636 24.4898C130.761 24.0792 130.961 23.6952 131.226 23.3574C131.486 23.0285 131.815 22.761 132.191 22.5741C132.604 22.3735 133.058 22.2738 133.518 22.2832C134.19 22.2513 134.854 22.4474 135.401 22.8397C135.917 23.2778 136.24 23.9004 136.302 24.5741L135.508 24.5733Z" fill="#1A1818"/>
<path d="M142.705 24.5733C142.595 24.1182 142.346 23.7087 141.993 23.4013C141.63 23.1119 141.175 22.9623 140.712 22.9797C140.355 22.9697 140.002 23.0547 139.689 23.2259C139.408 23.3862 139.169 23.61 138.99 23.8793C138.804 24.1607 138.668 24.4719 138.588 24.7992C138.502 25.1356 138.459 25.4815 138.459 25.8287C138.458 26.1775 138.499 26.5252 138.582 26.8641C138.657 27.1876 138.791 27.4947 138.976 27.7705C139.155 28.0363 139.395 28.2559 139.675 28.4113C139.994 28.5792 140.351 28.6617 140.712 28.6508C141.22 28.6755 141.718 28.504 142.104 28.1719C142.47 27.8205 142.705 27.3547 142.771 26.8515H143.599C143.537 27.2037 143.426 27.5455 143.27 27.8675C143.126 28.1643 142.928 28.4321 142.687 28.6575C142.441 28.883 142.153 29.057 141.839 29.1693C141.017 29.439 140.127 29.407 139.327 29.0791C138.953 28.9096 138.625 28.6545 138.368 28.3346C138.109 28.0026 137.92 27.6218 137.812 27.2149C137.688 26.7636 137.627 26.2975 137.631 25.8296C137.629 25.3753 137.696 24.9235 137.831 24.4898C137.957 24.0792 138.157 23.6953 138.421 23.3574C138.681 23.0285 139.011 22.761 139.386 22.5741C139.799 22.3734 140.254 22.2737 140.713 22.2832C141.386 22.2513 142.05 22.4474 142.597 22.8397C143.112 23.2779 143.435 23.9005 143.496 24.5741L142.705 24.5733Z" fill="#1A1818"/>
<path d="M149.697 22.462H150.474V29.1685H149.697V28.2359C149.593 28.3568 149.476 28.4819 149.347 28.6111C149.211 28.7454 149.062 28.8647 148.9 28.967C148.716 29.0823 148.518 29.1736 148.31 29.2385C148.058 29.3157 147.796 29.3527 147.533 29.3481C147.149 29.3596 146.766 29.296 146.406 29.1609C146.123 29.0493 145.871 28.8691 145.674 28.6364C145.486 28.407 145.349 28.1399 145.273 27.8531C145.188 27.5344 145.147 27.2057 145.15 26.8759V22.462H145.926V26.8633C145.894 27.3398 146.037 27.8117 146.328 28.1904C146.502 28.3578 146.71 28.4855 146.938 28.5648C147.166 28.6441 147.408 28.6732 147.648 28.6499C147.946 28.6548 148.241 28.5905 148.509 28.4619C148.761 28.3396 148.98 28.16 149.15 27.9375C149.331 27.6963 149.467 27.4244 149.552 27.1348C149.65 26.8028 149.698 26.4581 149.695 26.112L149.697 22.462Z" fill="#1A1818"/>
<path d="M153.218 31.8101H152.441V22.4595H153.218V23.6399H153.244C153.357 23.4236 153.503 23.2269 153.678 23.0573C153.851 22.887 154.047 22.7424 154.26 22.6281C154.468 22.5175 154.687 22.4306 154.914 22.3692C155.129 22.3102 155.351 22.2799 155.574 22.279C156.05 22.2654 156.523 22.3582 156.959 22.5505C157.326 22.7217 157.647 22.9768 157.898 23.295C158.152 23.6274 158.335 24.0086 158.435 24.4147C158.55 24.8675 158.606 25.333 158.603 25.8001C158.605 26.2559 158.544 26.7099 158.422 27.1491C158.312 27.5581 158.125 27.9424 157.871 28.2815C157.623 28.607 157.305 28.8725 156.94 29.058C156.527 29.2605 156.072 29.3603 155.613 29.3489C155.139 29.3492 154.672 29.2407 154.247 29.0319C153.818 28.8276 153.46 28.5011 153.217 28.0935L153.218 31.8101ZM153.218 25.8414C153.216 26.2074 153.268 26.5717 153.373 26.9223C153.467 27.2446 153.618 27.5473 153.819 27.816C154.01 28.0677 154.253 28.2753 154.532 28.4248C154.825 28.5786 155.152 28.6563 155.483 28.6508C155.845 28.659 156.204 28.5767 156.526 28.4113C156.819 28.2557 157.07 28.0312 157.257 27.757C157.454 27.4642 157.595 27.1371 157.672 26.7925C157.759 26.4055 157.794 26.0084 157.775 25.612C157.782 25.2315 157.723 24.8527 157.601 24.4923C157.496 24.1884 157.331 23.9088 157.115 23.6702C156.913 23.4494 156.666 23.2749 156.39 23.1584C156.103 23.0395 155.795 22.9799 155.484 22.9831C155.147 22.9772 154.814 23.0527 154.513 23.2031C154.233 23.3464 153.989 23.5524 153.802 23.8051C153.603 24.078 153.456 24.3853 153.368 24.7115C153.266 25.0794 153.216 25.4596 153.218 25.8414Z" fill="#1A1818"/>
<path d="M163.341 25.2587C163.488 25.2419 163.662 25.2157 163.866 25.1812C164.037 25.1557 164.205 25.1078 164.364 25.0387C164.426 25.0114 164.48 24.9693 164.521 24.9163C164.563 24.8632 164.591 24.8007 164.603 24.7343C164.632 24.6044 164.647 24.4719 164.648 24.3389C164.654 24.1585 164.623 23.9789 164.558 23.8108C164.492 23.6428 164.393 23.4899 164.266 23.3616C163.903 23.0713 163.44 22.9342 162.978 22.9797C162.73 22.978 162.483 23.002 162.24 23.0513C162.029 23.0929 161.828 23.1767 161.65 23.2976C161.477 23.4187 161.336 23.5783 161.236 23.7638C161.118 23.9913 161.045 24.2396 161.022 24.4948H160.232C160.247 24.1402 160.34 23.7931 160.505 23.4788C160.651 23.2078 160.857 22.9733 161.107 22.7925C161.364 22.6101 161.654 22.4782 161.961 22.4038C162.298 22.3202 162.643 22.2789 162.99 22.2807C163.311 22.2788 163.631 22.3156 163.942 22.3903C164.221 22.4552 164.485 22.5737 164.719 22.7394C164.944 22.905 165.122 23.1257 165.237 23.3802C165.37 23.6905 165.434 24.0264 165.425 24.3641V28.015C165.425 28.3169 165.478 28.5088 165.586 28.5909C165.694 28.673 165.912 28.6536 166.241 28.5327V29.1406L165.975 29.2182C165.864 29.2517 165.749 29.269 165.633 29.2697C165.515 29.27 165.398 29.257 165.283 29.2309C165.17 29.2201 165.062 29.1774 164.972 29.1078C164.895 29.0434 164.831 28.9643 164.785 28.8751C164.736 28.7819 164.703 28.6813 164.688 28.5774C164.67 28.4639 164.661 28.3492 164.661 28.2343C164.348 28.5861 163.964 28.8684 163.535 29.0631C163.103 29.2545 162.635 29.3514 162.162 29.3472C161.876 29.3482 161.59 29.309 161.314 29.2309C161.053 29.1583 160.809 29.0351 160.596 28.8683C160.39 28.7058 160.222 28.5004 160.104 28.2663C159.977 28.002 159.915 27.7112 159.923 27.4181C159.923 26.2787 160.704 25.6042 162.266 25.3945L163.341 25.2587ZM164.649 25.6474C164.331 25.7831 163.995 25.8747 163.652 25.9198C163.315 25.9631 162.978 25.9976 162.64 26.0235C162.15 26.035 161.671 26.1732 161.249 26.4248C161.085 26.5374 160.952 26.6909 160.865 26.8702C160.777 27.0495 160.738 27.2485 160.751 27.4476C160.746 27.6341 160.788 27.8189 160.874 27.9847C160.953 28.1321 161.064 28.2602 161.198 28.3599C161.338 28.4622 161.496 28.5369 161.664 28.58C161.839 28.627 162.02 28.6508 162.201 28.6508C162.507 28.6513 162.812 28.6122 163.108 28.5344C163.388 28.463 163.653 28.3426 163.891 28.1786C164.118 28.0204 164.306 27.8125 164.441 27.5707C164.585 27.302 164.656 27.0007 164.648 26.6963L164.649 25.6474Z" fill="#1A1818"/>
<path d="M169.815 29.1938C169.72 29.2112 169.595 29.2416 169.44 29.2848C169.271 29.3294 169.097 29.3509 168.922 29.3489C168.6 29.3718 168.281 29.2674 168.035 29.058C167.918 28.9128 167.831 28.7461 167.779 28.5672C167.727 28.3884 167.71 28.2011 167.731 28.0159V23.1087H166.787V22.4611H167.732V20.5978H168.509V22.462H169.764V23.1095H168.507V27.7056C168.507 27.8697 168.511 28.0119 168.52 28.1322C168.524 28.2362 168.55 28.338 168.597 28.4307C168.641 28.5095 168.713 28.5695 168.798 28.5993C168.921 28.6385 169.051 28.656 169.18 28.6508C169.286 28.6506 169.392 28.6418 169.497 28.6246C169.605 28.6072 169.711 28.5856 169.814 28.5597L169.815 29.1938Z" fill="#1A1818"/>
<path d="M171.135 21.0025V19.8473H171.989V21.0025H171.135ZM171.174 29.1719V22.4628H171.951V29.1693L171.174 29.1719Z" fill="#1A1818"/>
<path d="M176.598 29.3498C176.184 29.3448 175.774 29.266 175.388 29.117C175.015 28.9723 174.679 28.7469 174.404 28.4569C174.109 28.1395 173.882 27.765 173.737 27.3565C173.564 26.8618 173.481 26.3401 173.491 25.8161C173.487 25.3495 173.553 24.885 173.685 24.4375C173.804 24.0299 174.002 23.6495 174.268 23.3178C174.53 22.9951 174.862 22.7358 175.238 22.5589C175.665 22.3655 176.129 22.2704 176.597 22.2807C177.07 22.2695 177.539 22.3646 177.97 22.5589C178.345 22.7344 178.676 22.9906 178.94 23.3094C179.207 23.6393 179.403 24.0204 179.516 24.4291C179.644 24.8796 179.707 25.346 179.704 25.8144C179.711 26.3066 179.637 26.7965 179.484 27.2646C179.35 27.6734 179.137 28.0516 178.856 28.3776C178.586 28.6873 178.249 28.9327 177.872 29.096C177.47 29.2682 177.036 29.3546 176.598 29.3498ZM178.875 25.8152C178.877 25.4403 178.833 25.0666 178.745 24.7023C178.669 24.3798 178.533 24.0746 178.343 23.8026C178.163 23.5483 177.923 23.3418 177.644 23.2006C177.317 23.0446 176.958 22.9691 176.596 22.9805C176.233 22.9702 175.875 23.0526 175.553 23.22C175.272 23.3729 175.03 23.5902 174.848 23.854C174.661 24.1298 174.525 24.4368 174.446 24.7604C174.359 25.1053 174.316 25.4596 174.317 25.8152C174.313 26.2022 174.363 26.5879 174.466 26.9611C174.553 27.2855 174.7 27.5907 174.899 27.8607C175.086 28.1093 175.331 28.3091 175.612 28.4434C175.919 28.5866 176.256 28.6575 176.595 28.6508C176.957 28.6611 177.316 28.5786 177.638 28.4113C177.921 28.2571 178.162 28.0374 178.343 27.7705C178.528 27.494 178.664 27.1873 178.744 26.8641C178.832 26.5217 178.876 26.1696 178.876 25.8161L178.875 25.8152Z" fill="#1A1818"/>
<path d="M181.906 29.1685H181.129V22.4595H181.906V23.392C182.192 23.0845 182.516 22.8148 182.87 22.5893C183.232 22.3744 183.647 22.2668 184.068 22.279C184.462 22.2753 184.853 22.3477 185.22 22.4923C185.586 22.6448 185.898 22.9043 186.114 23.2368C186.27 23.4578 186.37 23.7133 186.405 23.9814C186.436 24.2458 186.451 24.5119 186.45 24.7781V29.1626H185.674V24.7933C185.711 24.3064 185.568 23.823 185.272 23.4341C185.095 23.2679 184.885 23.1414 184.655 23.0631C184.425 22.9849 184.181 22.9567 183.939 22.9805C183.715 22.9777 183.491 23.0148 183.279 23.0901C183.087 23.1605 182.906 23.2588 182.742 23.3819C182.586 23.4987 182.449 23.6382 182.334 23.7959C182.224 23.9466 182.137 24.1124 182.075 24.2883C182.001 24.4884 181.953 24.6973 181.933 24.9097C181.916 25.1081 181.907 25.3239 181.907 25.5572L181.906 29.1685Z" fill="#1A1818"/>
<path d="M191.408 25.2587C191.555 25.2419 191.73 25.216 191.933 25.1812C192.104 25.1557 192.272 25.1078 192.431 25.0387C192.493 25.0114 192.547 24.9693 192.589 24.9163C192.63 24.8632 192.658 24.8007 192.67 24.7343C192.699 24.6044 192.715 24.4719 192.716 24.3389C192.722 24.1585 192.691 23.9789 192.626 23.8108C192.56 23.6428 192.461 23.4899 192.334 23.3616C191.971 23.0713 191.508 22.9342 191.046 22.9797C190.798 22.978 190.551 23.002 190.308 23.0513C190.097 23.0929 189.896 23.1767 189.718 23.2976C189.545 23.4187 189.404 23.5783 189.304 23.7638C189.186 23.9913 189.113 24.2396 189.09 24.4948H188.298C188.312 24.1402 188.405 23.7931 188.57 23.4788C188.717 23.2079 188.923 22.9734 189.172 22.7925C189.43 22.6101 189.72 22.4782 190.026 22.4038C190.363 22.3203 190.708 22.279 191.055 22.2807C191.375 22.2788 191.695 22.3156 192.007 22.3903C192.286 22.4552 192.55 22.5737 192.784 22.7394C193.009 22.905 193.187 23.1257 193.302 23.3802C193.436 23.6905 193.5 24.0264 193.49 24.3641V28.015C193.49 28.3169 193.544 28.5088 193.652 28.5909C193.76 28.673 193.978 28.6536 194.306 28.5327V29.1406L194.041 29.2182C193.929 29.2517 193.814 29.269 193.697 29.2697C193.58 29.27 193.462 29.257 193.347 29.2309C193.234 29.2201 193.126 29.1774 193.036 29.1078C192.959 29.0433 192.896 28.9642 192.849 28.8751C192.801 28.7818 192.768 28.6813 192.752 28.5774C192.734 28.4639 192.726 28.3492 192.726 28.2343C192.412 28.5859 192.029 28.8682 191.6 29.0631C191.168 29.2544 190.7 29.3513 190.228 29.3472C189.941 29.3481 189.656 29.3089 189.38 29.2309C189.119 29.1583 188.875 29.0351 188.661 28.8683C188.455 28.7059 188.288 28.5004 188.17 28.2663C188.043 28.002 187.98 27.7112 187.988 27.4181C187.988 26.2787 188.769 25.6042 190.331 25.3945L191.408 25.2587ZM192.716 25.6474C192.398 25.783 192.062 25.8746 191.719 25.9198C191.382 25.9631 191.045 25.9976 190.707 26.0235C190.217 26.035 189.738 26.1732 189.316 26.4248C189.152 26.5375 189.019 26.691 188.932 26.8703C188.844 27.0496 188.805 27.2485 188.818 27.4476C188.813 27.6341 188.855 27.8189 188.941 27.9847C189.02 28.1322 189.13 28.2604 189.265 28.3599C189.405 28.4622 189.563 28.5369 189.73 28.58C189.905 28.6269 190.086 28.6508 190.267 28.6508C190.573 28.6513 190.878 28.6122 191.174 28.5344C191.454 28.463 191.719 28.3426 191.957 28.1786C192.184 28.0204 192.373 27.8125 192.508 27.5707C192.651 27.3021 192.723 27.0008 192.715 26.6963L192.716 25.6474Z" fill="#1A1818"/>
<path d="M195.642 29.1685V19.8473H196.419V29.1685H195.642Z" fill="#1A1818"/>
<path d="M201.274 19.8473H208.058V20.5986H205.107V29.1685H204.227V20.5986H201.276L201.274 19.8473Z" fill="#1A1818"/>
<path d="M209.197 29.1685V19.8473H209.975V23.3945C210.261 23.087 210.585 22.8172 210.939 22.5918C211.301 22.3769 211.716 22.2693 212.136 22.2815C212.531 22.2778 212.922 22.3502 213.289 22.4949C213.655 22.6473 213.967 22.9068 214.183 23.2394C214.339 23.4602 214.439 23.7157 214.475 23.9839C214.505 24.2484 214.52 24.5144 214.52 24.7807V29.1651H213.743V24.7967C213.78 24.3098 213.637 23.8264 213.342 23.4375C213.165 23.2712 212.954 23.1446 212.724 23.0664C212.494 22.9882 212.25 22.96 212.008 22.9839C211.783 22.981 211.56 23.0182 211.348 23.0935C211.156 23.164 210.975 23.2623 210.811 23.3852C210.655 23.5021 210.517 23.6416 210.403 23.7992C210.293 23.9499 210.206 24.1158 210.144 24.2916C210.07 24.4917 210.022 24.7006 210.002 24.913C209.984 25.1115 209.975 25.3273 209.975 25.5606V29.1727L209.197 29.1685Z" fill="#1A1818"/>
<path d="M216.874 26.0007C216.872 26.3489 216.92 26.6956 217.017 27.0302C217.102 27.3356 217.245 27.6217 217.438 27.8734C217.628 28.1141 217.869 28.3089 218.144 28.4434C218.451 28.5906 218.788 28.6637 219.128 28.6567C219.596 28.6674 220.055 28.5244 220.434 28.2494C220.805 27.9692 221.062 27.5648 221.159 27.1103H222.026C221.935 27.4195 221.81 27.7171 221.651 27.9973C221.498 28.266 221.301 28.5069 221.068 28.7098C220.825 28.9184 220.544 29.0786 220.24 29.182C219.881 29.3004 219.504 29.3574 219.126 29.3506C218.65 29.3628 218.177 29.2701 217.741 29.0791C217.367 28.9098 217.039 28.6548 216.782 28.3346C216.524 28.0045 216.335 27.626 216.226 27.2216C216.102 26.7727 216.041 26.3087 216.044 25.8431C216.041 25.3728 216.113 24.9051 216.258 24.4577C216.389 24.0462 216.595 23.6624 216.866 23.3254C217.127 23.003 217.457 22.7422 217.83 22.5615C218.235 22.3706 218.677 22.2754 219.125 22.2832C219.536 22.2636 219.946 22.3392 220.324 22.5042C220.701 22.6691 221.035 22.919 221.3 23.2343C221.878 24.0355 222.154 25.0156 222.078 26.0007H216.874ZM221.25 25.3532C221.253 25.0389 221.207 24.7261 221.114 24.4257C221.032 24.1515 220.895 23.8964 220.713 23.6753C220.531 23.4594 220.303 23.2866 220.046 23.1694C219.757 23.0397 219.443 22.9755 219.126 22.9814C218.811 22.9749 218.499 23.0412 218.214 23.1753C217.956 23.3002 217.727 23.4764 217.539 23.693C217.349 23.916 217.198 24.1698 217.092 24.4434C216.979 24.7343 216.905 25.0391 216.872 25.3498L221.25 25.3532Z" fill="#1A1818"/>
<path d="M224.409 29.1685H223.632V22.4595H224.409V23.7149H224.435C224.587 23.2624 224.879 22.8701 225.269 22.5952C225.681 22.3665 226.148 22.2567 226.619 22.2782V23.1213C226.244 23.0996 225.871 23.1708 225.531 23.3288C225.257 23.466 225.023 23.6709 224.851 23.924C224.676 24.193 224.557 24.4947 224.501 24.811C224.436 25.1633 224.403 25.521 224.404 25.8793L224.409 29.1685Z" fill="#1A1818"/>
<path d="M230.986 25.2587C231.133 25.2419 231.308 25.216 231.511 25.1812C231.682 25.1557 231.85 25.1078 232.009 25.0387C232.071 25.0114 232.125 24.9694 232.167 24.9164C232.208 24.8633 232.236 24.8008 232.248 24.7343C232.277 24.6044 232.292 24.4719 232.294 24.3389C232.3 24.1585 232.27 23.9788 232.204 23.8108C232.138 23.6427 232.039 23.4899 231.912 23.3616C231.549 23.0712 231.086 22.9341 230.624 22.9797C230.376 22.978 230.129 23.002 229.886 23.0513C229.674 23.0929 229.474 23.1767 229.296 23.2976C229.123 23.4187 228.981 23.5784 228.881 23.7638C228.763 23.9913 228.69 24.2396 228.667 24.4948H227.877C227.892 24.1402 227.985 23.7931 228.15 23.4788C228.296 23.2079 228.502 22.9733 228.752 22.7925C229.009 22.6101 229.299 22.4783 229.606 22.4038C229.943 22.3203 230.288 22.2789 230.635 22.2807C230.956 22.2788 231.276 22.3156 231.587 22.3903C231.866 22.4552 232.13 22.5738 232.364 22.7394C232.589 22.9051 232.767 23.1257 232.882 23.3802C233.015 23.6905 233.079 24.0264 233.07 24.3641V28.015C233.07 28.3169 233.124 28.5088 233.231 28.5909C233.339 28.673 233.557 28.6536 233.886 28.5327V29.1407L233.62 29.2182C233.509 29.2517 233.394 29.269 233.278 29.2697C233.16 29.27 233.043 29.257 232.928 29.2309C232.815 29.2202 232.707 29.1775 232.617 29.1078C232.54 29.0432 232.476 28.9642 232.429 28.8751C232.381 28.7818 232.348 28.6812 232.332 28.5774C232.314 28.4639 232.306 28.3491 232.307 28.2343C231.993 28.5861 231.609 28.8684 231.18 29.0631C230.748 29.2545 230.28 29.3514 229.807 29.3472C229.521 29.3481 229.235 29.309 228.959 29.2309C228.698 29.1584 228.454 29.0352 228.241 28.8683C228.035 28.7057 227.867 28.5003 227.749 28.2663C227.622 28.0019 227.56 27.7112 227.568 27.4181C227.568 26.2787 228.349 25.6042 229.911 25.3945L230.986 25.2587ZM232.294 25.6474C231.976 25.783 231.64 25.8747 231.297 25.9198C230.96 25.9631 230.623 25.9976 230.285 26.0235C229.795 26.0349 229.315 26.1731 228.893 26.4248C228.729 26.5375 228.596 26.691 228.509 26.8703C228.422 27.0496 228.382 27.2485 228.395 27.4476C228.39 27.6341 228.433 27.8189 228.518 27.9847C228.597 28.1322 228.708 28.2603 228.842 28.3599C228.982 28.4623 229.14 28.537 229.308 28.58C229.483 28.627 229.664 28.6508 229.845 28.6508C230.151 28.6513 230.456 28.6122 230.752 28.5344C231.032 28.463 231.297 28.3426 231.535 28.1786C231.762 28.0205 231.951 27.8126 232.086 27.5707C232.229 27.302 232.3 27.0007 232.292 26.6963L232.294 25.6474Z" fill="#1A1818"/>
<path d="M235.969 31.8101H235.193V22.4595H235.969V23.6399H235.995C236.108 23.4237 236.255 23.227 236.43 23.0573C236.602 22.8876 236.799 22.7436 237.012 22.6298C237.22 22.5191 237.439 22.4323 237.666 22.3709C237.881 22.3119 238.103 22.2816 238.326 22.2807C238.802 22.2671 239.275 22.3598 239.711 22.5522C240.078 22.7234 240.399 22.9784 240.65 23.2967C240.903 23.6295 241.085 24.011 241.184 24.4173C241.299 24.87 241.356 25.3355 241.353 25.8026C241.354 26.2584 241.293 26.7124 241.171 27.1516C241.061 27.5605 240.874 27.9448 240.621 28.284C240.373 28.6095 240.054 28.875 239.689 29.0606C239.277 29.263 238.821 29.3628 238.362 29.3514C237.889 29.3516 237.421 29.2432 236.996 29.0344C236.568 28.83 236.21 28.5035 235.967 28.096L235.969 31.8101ZM235.969 25.8414C235.967 26.2074 236.02 26.5717 236.125 26.9223C236.219 27.2446 236.37 27.5474 236.571 27.816C236.762 28.0678 237.005 28.2755 237.284 28.4248C237.577 28.5787 237.904 28.6564 238.235 28.6508C238.597 28.659 238.955 28.5767 239.277 28.4113C239.57 28.2557 239.821 28.0312 240.008 27.757C240.205 27.4642 240.346 27.137 240.423 26.7925C240.511 26.4055 240.545 26.0084 240.526 25.612C240.533 25.2315 240.474 24.8526 240.351 24.4923C240.246 24.1884 240.081 23.9087 239.865 23.6702C239.663 23.4494 239.416 23.2748 239.14 23.1584C238.853 23.0395 238.545 22.9798 238.234 22.9831C237.897 22.9772 237.564 23.0527 237.263 23.2031C236.982 23.3466 236.739 23.5526 236.551 23.8051C236.352 24.0781 236.205 24.3854 236.118 24.7115C236.016 25.0794 235.966 25.4597 235.969 25.8414Z" fill="#1A1818"/>
<path d="M242.965 30.9813L243.282 31.0327C243.391 31.0501 243.501 31.0588 243.612 31.0588C243.71 31.0623 243.807 31.0458 243.898 31.0103C243.99 30.9748 244.073 30.921 244.143 30.8523C244.285 30.7075 244.402 30.5389 244.486 30.354C244.578 30.1579 244.653 29.9549 244.713 29.7469C244.763 29.5614 244.833 29.3817 244.92 29.2106L242.318 22.4654H243.185L245.334 28.2267L247.483 22.4654H248.327L245.828 29.0808C245.673 29.5035 245.524 29.8832 245.381 30.2199C245.258 30.5205 245.106 30.8088 244.929 31.0808C244.79 31.2962 244.61 31.4813 244.397 31.6246C244.19 31.7531 243.949 31.8181 243.705 31.8118C243.573 31.8121 243.441 31.8033 243.31 31.7856C243.194 31.77 243.08 31.7484 242.967 31.7207L242.965 30.9813Z" fill="#1A1818"/>
<path d="M119.945 43.815L123.609 34.4939H124.605L128.179 43.815H127.272L126.198 40.8892H121.952L120.852 43.815H119.945ZM122.25 40.138H125.901L124.075 35.2477L122.25 40.138Z" fill="#1A1818"/>
<path d="M129.768 41.7181C129.83 42.1916 130.063 42.6264 130.422 42.9415C130.821 43.2023 131.294 43.3271 131.771 43.2973C132.021 43.3026 132.27 43.2675 132.508 43.1936C132.696 43.1357 132.87 43.0411 133.02 42.9154C133.148 42.8064 133.252 42.672 133.325 42.5208C133.393 42.3749 133.428 42.2156 133.427 42.0545C133.438 41.9161 133.414 41.7773 133.359 41.65C133.304 41.5227 133.218 41.4106 133.11 41.3235C132.87 41.1504 132.601 41.0232 132.314 40.9483C131.973 40.8529 131.627 40.7752 131.278 40.7156C130.924 40.6555 130.577 40.5577 130.243 40.4238C129.937 40.3041 129.664 40.1134 129.446 39.8673C129.218 39.5769 129.106 39.2129 129.129 38.8446C129.122 38.5835 129.173 38.3241 129.28 38.0855C129.386 37.8469 129.545 37.6352 129.744 37.466C130.239 37.0795 130.858 36.8881 131.485 36.9281C132.111 36.8991 132.731 37.0691 133.255 37.4137C133.499 37.6111 133.699 37.8579 133.841 38.138C133.982 38.4181 134.063 38.725 134.078 39.0385H133.287C133.276 38.8235 133.218 38.6136 133.116 38.4241C133.014 38.2345 132.871 38.07 132.697 37.9424C132.329 37.7189 131.904 37.6087 131.474 37.6254C131.073 37.5979 130.675 37.7099 130.347 37.9424C130.222 38.0417 130.121 38.169 130.054 38.3141C129.986 38.4591 129.954 38.618 129.959 38.778C129.951 38.9105 129.976 39.0428 130.031 39.1634C130.087 39.2841 130.17 39.3894 130.276 39.4702C130.517 39.6447 130.786 39.7763 131.072 39.8589C131.391 39.9584 131.736 40.0469 132.108 40.1245C132.464 40.1975 132.811 40.3083 133.143 40.455C133.447 40.5866 133.719 40.7832 133.939 41.0309C134.166 41.3176 134.279 41.6779 134.256 42.0427C134.262 42.3383 134.191 42.6303 134.05 42.8901C133.911 43.137 133.715 43.3476 133.48 43.5047C133.217 43.6781 132.925 43.8032 132.619 43.874C132.26 43.9591 131.892 44.0005 131.523 43.9971C131.163 44.0036 130.805 43.9445 130.467 43.8226C130.176 43.7156 129.909 43.5503 129.684 43.3369C129.469 43.1312 129.297 42.8847 129.178 42.6118C129.056 42.3291 128.986 42.0266 128.971 41.7189L129.768 41.7181Z" fill="#1A1818"/>
<path d="M136.244 41.7181C136.307 42.1915 136.539 42.6262 136.898 42.9415C137.299 43.2031 137.773 43.3279 138.251 43.2973C138.501 43.3025 138.75 43.2675 138.989 43.1936C139.176 43.1357 139.35 43.0411 139.501 42.9154C139.629 42.8065 139.732 42.6721 139.805 42.5208C139.874 42.375 139.909 42.2157 139.909 42.0545C139.919 41.9161 139.895 41.7773 139.84 41.65C139.785 41.5227 139.7 41.4106 139.592 41.3235C139.352 41.1504 139.082 41.0232 138.796 40.9483C138.455 40.8529 138.109 40.7752 137.76 40.7156C137.405 40.6555 137.058 40.5577 136.724 40.4238C136.418 40.3041 136.145 40.1134 135.927 39.8673C135.7 39.5769 135.587 39.2129 135.61 38.8446C135.603 38.5835 135.655 38.3241 135.761 38.0855C135.868 37.8469 136.026 37.6352 136.225 37.466C136.72 37.0794 137.339 36.888 137.966 36.9281C138.593 36.8991 139.213 37.0691 139.737 37.4137C139.981 37.6111 140.18 37.8579 140.322 38.138C140.464 38.4181 140.544 38.725 140.559 39.0385H139.769C139.758 38.8235 139.699 38.6135 139.597 38.4239C139.495 38.2344 139.352 38.0699 139.179 37.9424C138.811 37.7189 138.385 37.6087 137.955 37.6254C137.554 37.5979 137.156 37.7099 136.829 37.9424C136.703 38.0417 136.603 38.169 136.535 38.3141C136.468 38.4591 136.435 38.618 136.44 38.778C136.433 38.9105 136.458 39.0429 136.513 39.1635C136.568 39.2842 136.653 39.3895 136.758 39.4702C136.999 39.6447 137.268 39.7762 137.554 39.8589C137.873 39.9584 138.219 40.0469 138.59 40.1245C138.946 40.1975 139.293 40.3083 139.626 40.455C139.93 40.5864 140.201 40.783 140.421 41.0309C140.648 41.3175 140.762 41.6778 140.739 42.0427C140.745 42.3383 140.674 42.6303 140.533 42.8901C140.394 43.137 140.198 43.3475 139.963 43.5047C139.7 43.6782 139.409 43.8033 139.102 43.874C138.743 43.9591 138.375 44.0005 138.006 43.9971C137.647 44.0035 137.289 43.9444 136.951 43.8226C136.66 43.7157 136.393 43.5504 136.168 43.3369C135.952 43.1314 135.78 42.8849 135.662 42.6118C135.54 42.3291 135.47 42.0266 135.455 41.7189L136.244 41.7181Z" fill="#1A1818"/>
<path d="M144.932 43.9963C144.517 43.9912 144.107 43.9124 143.721 43.7636C143.348 43.6188 143.012 43.3933 142.737 43.1034C142.442 42.7859 142.215 42.4115 142.07 42.0031C141.897 41.5083 141.813 40.9866 141.824 40.4626C141.82 39.996 141.885 39.5315 142.018 39.084C142.137 38.6764 142.335 38.2961 142.6 37.9643C142.863 37.6417 143.195 37.3824 143.572 37.2055C143.998 37.0119 144.462 36.9168 144.931 36.9272C145.403 36.916 145.872 37.0111 146.303 37.2055C146.679 37.3808 147.01 37.6371 147.275 37.9559C147.541 38.2859 147.737 38.667 147.851 39.0756C147.978 39.5262 148.041 39.9926 148.038 40.4609C148.044 40.9531 147.97 41.4431 147.818 41.9112C147.684 42.3199 147.47 42.6981 147.19 43.0241C146.919 43.3337 146.583 43.5791 146.206 43.7425C145.803 43.9148 145.369 44.0012 144.932 43.9963ZM147.208 40.4618C147.211 40.0869 147.167 39.7131 147.079 39.3488C147.003 39.0264 146.867 38.7211 146.678 38.4491C146.497 38.1949 146.257 37.9883 145.979 37.8471C145.652 37.6913 145.293 37.6158 144.931 37.6271C144.569 37.6166 144.21 37.6991 143.889 37.8665C143.607 38.0193 143.365 38.2365 143.183 38.5006C142.996 38.7763 142.86 39.0833 142.781 39.407C142.695 39.7518 142.651 40.1061 142.652 40.4618C142.648 40.8488 142.698 41.2344 142.801 41.6076C142.888 41.9319 143.035 42.2371 143.234 42.5073C143.422 42.7558 143.666 42.9557 143.947 43.0899C144.255 43.2332 144.591 43.3041 144.931 43.2973C145.293 43.3077 145.652 43.2253 145.973 43.0579C146.256 42.9039 146.498 42.6841 146.678 42.4171C146.863 42.1405 146.999 41.8338 147.079 41.5107C147.166 41.1682 147.21 40.8161 147.21 40.4626L147.208 40.4618Z" fill="#1A1818"/>
<path d="M154.217 39.2198C154.107 38.7648 153.859 38.3552 153.506 38.0478C153.143 37.7584 152.688 37.6088 152.224 37.6262C151.867 37.6164 151.514 37.7014 151.201 37.8724C150.92 38.033 150.681 38.2571 150.502 38.5267C150.317 38.8078 150.181 39.1187 150.101 39.4458C150.015 39.7819 149.971 40.1275 149.971 40.4744C149.97 40.8235 150.012 41.1714 150.094 41.5106C150.17 41.8341 150.304 42.1412 150.49 42.417C150.669 42.683 150.908 42.9026 151.189 43.0578C151.508 43.2259 151.865 43.3084 152.225 43.2973C152.733 43.3222 153.232 43.1507 153.617 42.8184C153.983 42.4669 154.218 42.0012 154.284 41.498H155.112C155.049 41.8502 154.938 42.192 154.782 42.514C154.638 42.8108 154.441 43.0786 154.2 43.3041C153.954 43.5296 153.665 43.7036 153.351 43.8158C152.53 44.0854 151.64 44.0534 150.84 43.7256C150.467 43.556 150.139 43.301 149.883 42.9811C149.624 42.6491 149.434 42.2683 149.326 41.8614C149.202 41.4101 149.141 40.944 149.145 40.4761C149.143 40.0219 149.211 39.5701 149.345 39.1363C149.471 38.7254 149.671 38.3412 149.936 38.0031C150.196 37.6741 150.525 37.4066 150.9 37.2198C151.313 37.0189 151.768 36.9189 152.227 36.9281C152.9 36.8964 153.564 37.0924 154.111 37.4846C154.627 37.923 154.95 38.5459 155.011 39.2198H154.217Z" fill="#1A1818"/>
<path d="M156.738 35.6465V34.4939H157.592V35.6465H156.738ZM156.777 43.815V37.1085H157.554V43.815H156.777Z" fill="#1A1818"/>
<path d="M162.616 39.9086C162.763 39.8912 162.938 39.8654 163.14 39.8311C163.312 39.8057 163.48 39.7578 163.639 39.6886C163.7 39.6613 163.755 39.6193 163.796 39.5662C163.838 39.5131 163.866 39.4506 163.878 39.3842C163.907 39.2546 163.922 39.1223 163.923 38.9896C163.929 38.8093 163.898 38.6296 163.833 38.4616C163.767 38.2935 163.668 38.1407 163.541 38.0124C163.178 37.7219 162.715 37.5848 162.253 37.6304C162.005 37.6285 161.758 37.6526 161.515 37.7021C161.304 37.7437 161.103 37.8274 160.925 37.9483C160.752 38.0695 160.61 38.2291 160.51 38.4146C160.392 38.6423 160.319 38.8909 160.296 39.1464H159.506C159.521 38.7915 159.614 38.4442 159.779 38.1296C159.926 37.8587 160.131 37.6241 160.381 37.4432C160.638 37.261 160.928 37.1291 161.235 37.0546C161.572 36.971 161.917 36.9296 162.264 36.9314C162.585 36.9295 162.905 36.9664 163.216 37.0411C163.495 37.1064 163.759 37.2252 163.993 37.391C164.218 37.5566 164.396 37.7773 164.511 38.0318C164.644 38.3421 164.708 38.678 164.699 39.0157V42.6666C164.699 42.9685 164.753 43.1604 164.86 43.2425C164.968 43.3246 165.186 43.3052 165.515 43.1843V43.7931L165.249 43.8707C165.138 43.9045 165.023 43.9221 164.907 43.9229C164.789 43.9235 164.672 43.9105 164.557 43.8841C164.444 43.8736 164.336 43.8309 164.246 43.761C164.169 43.6966 164.105 43.6175 164.059 43.5283C164.01 43.4348 163.977 43.334 163.962 43.2299C163.944 43.1166 163.935 43.0021 163.936 42.8875C163.622 43.2394 163.238 43.5217 162.809 43.7164C162.377 43.9078 161.909 44.0047 161.436 44.0005C161.15 44.0016 160.864 43.9624 160.588 43.8841C160.327 43.812 160.083 43.6888 159.87 43.5216C159.664 43.3591 159.496 43.1536 159.378 42.9196C159.251 42.6553 159.189 42.3645 159.197 42.0714C159.197 40.932 159.978 40.2574 161.54 40.0478L162.616 39.9086ZM163.924 40.2973C163.605 40.4331 163.27 40.5248 162.927 40.5697C162.59 40.613 162.253 40.6473 161.915 40.6726C161.424 40.6843 160.945 40.8225 160.523 41.0739C160.359 41.1865 160.226 41.34 160.139 41.5193C160.051 41.6986 160.012 41.8976 160.025 42.0966C160.02 42.2835 160.062 42.4685 160.148 42.6346C160.227 42.782 160.338 42.9101 160.472 43.0098C160.612 43.1122 160.77 43.1869 160.938 43.2299C161.113 43.2773 161.294 43.3014 161.475 43.3015C161.781 43.3023 162.086 43.2632 162.382 43.1852C162.662 43.1138 162.927 42.9934 163.165 42.8294C163.392 42.6712 163.58 42.4633 163.715 42.2214C163.859 41.9527 163.93 41.6515 163.922 41.3471L163.924 40.2973Z" fill="#1A1818"/>
<path d="M169.089 43.8403C168.994 43.8577 168.869 43.8881 168.714 43.9314C168.545 43.9759 168.371 43.9975 168.196 43.9954C167.874 44.0183 167.556 43.9138 167.31 43.7046C167.193 43.5594 167.106 43.3927 167.054 43.2138C167.002 43.035 166.985 42.8476 167.005 42.6624V37.7552H166.06V37.1077H167.005V35.2443H167.782V37.1085H169.037V37.7561H167.782V42.3521C167.782 42.5163 167.786 42.6585 167.795 42.7788C167.799 42.8827 167.825 42.9846 167.872 43.0772C167.916 43.1559 167.988 43.2158 168.073 43.2459C168.196 43.2849 168.326 43.3023 168.455 43.2973C168.561 43.2971 168.667 43.2883 168.772 43.2712C168.88 43.2537 168.985 43.2321 169.089 43.2062V43.8403Z" fill="#1A1818"/>
<path d="M170.41 35.6465V34.4939H171.264V35.6465H170.41ZM170.449 43.815V37.1085H171.225V43.815H170.449Z" fill="#1A1818"/>
<path d="M175.872 43.9963C175.458 43.9911 175.048 43.9123 174.662 43.7636C174.29 43.6187 173.954 43.3933 173.678 43.1034C173.383 42.786 173.156 42.4115 173.011 42.0031C172.838 41.5083 172.755 40.9866 172.765 40.4626C172.762 39.996 172.827 39.5314 172.96 39.084C173.079 38.6763 173.277 38.2959 173.542 37.9643C173.805 37.6417 174.137 37.3823 174.513 37.2055C174.939 37.012 175.404 36.9169 175.872 36.9272C176.345 36.916 176.814 37.0111 177.245 37.2055C177.62 37.3809 177.951 37.6372 178.215 37.9559C178.482 38.2859 178.678 38.6669 178.791 39.0756C178.919 39.5262 178.982 39.9926 178.979 40.4609C178.986 40.9531 178.912 41.4431 178.759 41.9112C178.625 42.32 178.412 42.6982 178.131 43.0241C177.86 43.3337 177.524 43.5791 177.147 43.7425C176.744 43.9149 176.31 44.0013 175.872 43.9963ZM178.149 40.4618C178.151 40.0869 178.107 39.7131 178.019 39.3488C177.943 39.0263 177.807 38.7211 177.617 38.4491C177.437 38.1948 177.197 37.9883 176.918 37.8471C176.591 37.6913 176.232 37.6159 175.87 37.6271C175.507 37.6166 175.149 37.699 174.827 37.8665C174.545 38.0192 174.304 38.2365 174.122 38.5006C173.935 38.7763 173.799 39.0833 173.72 39.407C173.633 39.7518 173.59 40.1061 173.591 40.4618C173.587 40.8488 173.637 41.2344 173.74 41.6076C173.827 41.932 173.974 42.2372 174.173 42.5073C174.361 42.7557 174.605 42.9555 174.886 43.0899C175.194 43.2332 175.53 43.3041 175.87 43.2973C176.232 43.3077 176.59 43.2252 176.912 43.0579C177.195 42.904 177.437 42.6842 177.617 42.417C177.803 42.1405 177.939 41.8338 178.019 41.5107C178.107 41.1682 178.151 40.8161 178.151 40.4626L178.149 40.4618Z" fill="#1A1818"/>
<path d="M181.181 43.8159H180.404V37.1094H181.181V38.041C181.467 37.7336 181.791 37.4639 182.145 37.2384C182.507 37.0233 182.922 36.9154 183.342 36.9272C183.737 36.9236 184.128 36.9963 184.495 37.1414C184.861 37.2938 185.173 37.5534 185.389 37.8859C185.544 38.107 185.644 38.3624 185.68 38.6304C185.711 38.8946 185.726 39.1604 185.725 39.4264V43.815H184.948V39.439C184.985 38.9521 184.842 38.4686 184.547 38.0798C184.37 37.9136 184.159 37.7871 183.929 37.7089C183.699 37.6307 183.455 37.6025 183.214 37.6262C182.989 37.6234 182.765 37.6605 182.553 37.7358C182.361 37.8061 182.18 37.9044 182.016 38.0276C181.86 38.1447 181.723 38.2845 181.609 38.4424C181.499 38.5928 181.412 38.7584 181.35 38.934C181.276 39.1341 181.228 39.343 181.208 39.5554C181.191 39.7538 181.182 39.9696 181.181 40.2029L181.181 43.8159Z" fill="#1A1818"/>
<path d="M37.9524 9.69988L35.6523 4.42676H22.6448L7.67285 43.9111H18.0901L20.7587 36.821H36.7045C36.7045 36.821 36.6261 36.7164 36.519 36.5638C36.3074 36.2704 35.9777 35.805 35.8217 35.5309C35.7045 35.326 34.2838 28.4568 34.2838 28.4568L33.7231 27.0782L37.6067 11.8457L37.9524 9.69988ZM24.3295 28.4568L29.1599 15.0227L33.3142 28.4568H24.3295Z" fill="#FCB233"/>
<path d="M59.6822 4.41991C57.419 4.07275 55.128 3.94063 52.8399 4.02531C47.0955 4.2108 41.6503 6.01264 37.959 9.69809L38.0863 10.0354L38.0796 10.0421L37.959 10.1888L45.8931 30.6312V30.638L46.512 32.2442L46.5904 32.4491C46.5904 32.4558 46.5972 32.4592 46.5972 32.4626C46.5983 32.4683 46.6006 32.4737 46.6039 32.4786L46.7801 32.9406L46.9302 33.3319L51.0937 43.895H51.1915C51.5533 43.9177 52.8408 43.9793 53.6485 43.9793C57.4481 44.1162 61.219 43.2742 64.5995 41.5341C67.5286 39.8984 69.881 38.1615 71.4291 35.2231C71.478 35.1286 71.5302 35.0308 71.5758 34.933C71.6702 34.7442 71.7613 34.5553 71.8498 34.3597L72.0184 14.6989L59.6822 4.41991ZM59.9132 33.3209C58.4697 35.1556 56.3458 36.035 53.6477 36.035C52.4664 36.0866 51.2893 35.8629 50.2093 35.3816C49.1293 34.9003 48.1759 34.1747 47.4243 33.2619C47.1027 32.8713 46.824 32.4473 46.5929 31.9971C46.5929 31.9971 46.3585 31.5089 46.1714 31.052L46.1225 30.9246L46.0314 30.6902C46.0082 30.6282 45.9876 30.5652 45.9698 30.5014C45.4532 28.7034 45.1737 26.8457 45.1385 24.9753C45.1385 20.2901 45.8771 17.0429 47.3543 15.2334C48.152 14.3717 49.1201 13.6852 50.1972 13.2174C51.2742 12.7496 52.4367 12.5108 53.611 12.516C54.7852 12.5212 55.9456 12.7704 57.0184 13.2478C58.0913 13.7252 59.0532 14.4203 59.8432 15.2891C60.1589 15.684 60.4372 16.1074 60.6746 16.5538C60.8735 16.9155 61.3002 18.053 61.3002 18.053C61.9061 20.1148 62.1863 22.2587 62.1307 24.407C61.8744 29.1051 61.3373 31.5132 59.9174 33.3217L59.9132 33.3209Z" fill="#E63524"/>
<path d="M88.0373 4.42591L83.6166 15.0118L71.5746 43.9263V15.0236L59.7029 15.1256L59.6709 4.41748L88.0373 4.42591Z" fill="#481A4F"/>
<path d="M71.5771 43.9229L83.3603 15.0093L83.3544 43.9229H71.5771Z" fill="#624768"/>
<path d="M94.2482 4.42578L94.2052 15.0226L83.3613 15.0125L88.0383 4.42662L94.2482 4.42578Z" fill="#624768"/>
<path d="M51.191 43.901L38.9711 43.9094L38.6827 43.1126L36.3008 36.6447L41.5242 34.7223L46.8732 32.9095L51.191 43.901Z" fill="#FCB233"/>
<path d="M116.051 43.9271H105.146L102.292 36.7493H86.2439L83.3535 43.9271L83.3603 15.6324V15.0126H83.6174L94.1645 15.0228L88.9319 28.4568H99.1889L94.1654 15.0211L94.2075 4.42508H94.2463L100.962 4.41833L116.051 43.9271Z" fill="#34AD87"/>
<path d="M51.191 43.9009H51.0409C47.154 43.9009 45.0292 43.5198 41.5756 41.7508C38.7569 40.304 36.5124 36.9541 36.5124 36.9541L36.418 36.8209L36.4079 36.8074L36.3236 36.6868L36.3042 36.6539L36.2452 36.5561L36.1372 36.4128L36.0529 36.2796L35.9458 36.1L35.8615 35.9499L35.7898 35.8133L35.6794 35.605L35.5386 35.3285L35.4635 35.1851L35.4079 35.0806L35.3329 34.9406L35.2578 34.8007L35.1828 34.6573L35.0656 34.4356L35.0099 34.315L34.9416 34.1616L34.8666 33.9929L34.8076 33.8563L34.7359 33.6961L34.6609 33.5334L34.6086 33.4095L34.547 33.2408L34.4686 33.0258L34.4231 32.9019L34.348 32.697L34.2798 32.5115L34.2182 32.3429L34.1592 32.1742L34.0934 31.9693L34.0344 31.7703L33.9855 31.6017L33.9197 31.396L33.8582 31.1911L33.8093 30.9828L33.7696 30.8142L33.7309 30.6574L33.6878 30.4753L33.6457 30.3066L33.5968 30.0916L33.5673 29.9778L33.5513 29.88L33.515 29.6785L33.4695 29.4146L33.4138 29.0984L33.3717 28.8707L33.316 28.4306L33.2764 28.1372L33.2435 27.9028L33.2106 27.6498L33.1777 27.3825L33.1583 27.138L33.1423 26.9492L33.1229 26.7443L33.1069 26.5453L33.0934 26.353L33.0833 26.1709L33.0664 25.8775L33.0504 25.6203L33.0437 25.3497L33.0369 25.0209L33.0302 24.7865L33.0234 24.5293V23.6659L33.0369 23.262L33.0437 23.0504L33.0504 22.8522L33.0572 22.6727L33.0673 22.4872L33.0808 22.3042L33.0943 22.0833L33.1078 21.9037L33.1204 21.7115L33.1432 21.4737L33.1592 21.2814L33.182 21.0732L33.2013 20.8582L33.2241 20.6533L33.257 20.4003L33.2958 20.117L33.3379 19.8169L33.3902 19.5007L33.4298 19.2823L33.4754 19.0083L33.5209 18.7553L33.5959 18.413L33.6482 18.1752L33.7005 17.9307L33.7789 17.6179L33.8733 17.2494L33.9256 17.0606L33.9813 16.8549L34.0656 16.5943L34.1499 16.3372L34.2216 16.1028L34.2932 15.881L34.3776 15.6399L34.4526 15.4383L34.5276 15.2427L34.606 15.0378L34.6845 14.8355L34.7755 14.6306L34.8438 14.4679L34.9155 14.3085L34.9813 14.1584L35.0656 13.983L35.144 13.8203L35.2283 13.6407L35.2907 13.5202L35.3691 13.3633L35.4602 13.1947L35.5934 12.9502L35.7072 12.7613L35.8084 12.5851L35.8927 12.4316L36.0268 12.2166L36.1541 12.0117L36.2586 11.8583L36.343 11.7343L36.4374 11.6011L36.5158 11.4805L36.6263 11.3279L36.7367 11.1745L36.8278 11.0607L36.9256 10.93L37.0268 10.8001L37.1406 10.6534L37.2612 10.5L37.3851 10.3406L37.4779 10.2318L37.5461 10.1568L37.6802 9.99996L37.8168 9.84735L37.95 9.69727L38.0807 10.0396L46.0309 30.6911L46.1219 30.9255L46.1708 31.0528L46.8681 32.9078L47.0241 33.3294L51.0873 43.6547L51.191 43.9009Z" fill="#EF5715"/>
</svg>
