<svg width="160" height="56" viewBox="0 0 160 56" fill="none" xmlns="http://www.w3.org/2000/svg">
<path d="M54.2359 33.7938C53.3041 33.7938 53.1177 33.1063 53.1177 31.9188V20.1055C53.1177 16.0676 50.84 13.6636 47.0216 13.6636C42.4661 13.6636 40.3954 17.1672 40.3592 20.6397V20.7826H43.4135V20.6387C43.3693 19.4724 43.7893 18.3361 44.5813 17.4788C44.8817 17.1701 45.2418 16.9256 45.6395 16.7602C46.0373 16.5949 46.4646 16.5121 46.8953 16.517C48.7196 16.517 49.8088 17.9406 49.8088 20.325V21.4328L46.1737 23.1577C42.052 25.0855 39.3508 26.653 39.3508 30.7209C39.3508 34.2918 41.5975 36.6907 44.9416 36.6907C45.9388 36.6593 46.9162 36.4053 47.8025 35.9472C48.6887 35.4891 49.4612 34.8386 50.0635 34.0433C50.2425 34.8216 50.6885 35.5125 51.3241 35.9962C51.9596 36.4798 52.7444 36.7255 53.5422 36.6907C54.1885 36.6835 54.8272 36.5517 55.4235 36.3024L55.5104 36.2662V33.3817L55.3034 33.4956C54.9845 33.6974 54.6133 33.8011 54.2359 33.7938ZM49.8098 24.3608V31.2499C49.3859 31.9959 48.7879 32.6283 48.0668 33.0932C47.3457 33.5581 46.5229 33.8418 45.6684 33.9201C45.2537 33.9428 44.839 33.8751 44.453 33.7218C44.067 33.5685 43.7188 33.3331 43.4327 33.0321C43.1466 32.731 42.9293 32.3713 42.7958 31.978C42.6624 31.5847 42.6159 31.167 42.6597 30.754C42.6597 28.031 45.041 26.5805 47.1117 25.6208L49.8098 24.3608ZM71.2311 7.07361H68.0132L67.8942 14.1046H64.9486V17.1071H67.8921V31.6309C67.8921 34.8912 69.4192 36.6865 72.1919 36.6865C73.3485 36.6677 74.48 36.3465 75.4739 35.7547L75.5464 35.7143V32.687L75.3155 32.8754C74.674 33.4339 73.8608 33.7561 73.0108 33.7886C71.5396 33.7886 71.2311 32.5638 71.2311 31.5357V17.1123H75.9719V14.1098H71.2311V7.07361ZM32.5217 31.0553C31.2627 32.8816 29.8142 33.8869 28.4424 33.8869C26.6419 33.8869 26.0011 32.1217 26.0011 30.4703V14.1036H22.6931V30.6267C22.6931 34.4802 24.4325 36.6907 27.4661 36.6907C28.4681 36.6841 29.4544 36.4408 30.3445 35.9806C31.2346 35.5203 32.0033 34.8561 32.5879 34.0423L32.6438 36.2817H35.8285V14.1036H32.5206L32.5217 31.0553ZM15.4261 16.1184C14.5709 14.5529 12.8977 13.6118 11.1159 13.6946C10.165 13.7122 9.23202 13.9562 8.39423 14.4063C7.55644 14.8565 6.838 15.4998 6.29846 16.283C4.7734 18.3257 4 21.3282 4 25.2077C4 33.6975 7.43113 36.7217 10.6428 36.7217C12.3532 36.7683 13.9849 36.0001 15.0378 34.651V52.2602H18.3809V14.1036H15.5161L15.4261 16.1184ZM15.0388 19.183V31.3152C14.1184 32.979 13.0023 33.7544 11.5259 33.7544C8.79261 33.7544 7.40732 30.8679 7.40732 25.1766C7.40732 19.7058 8.96654 16.5677 11.6833 16.5677C13.2508 16.6174 14.6071 17.6745 15.0388 19.183ZM58.194 3.73981H61.5009V36.2817H58.194V3.73981ZM91.7257 14.1046H95.0326V36.2817H91.7257V14.1046ZM91.7568 7.04359H95.0326V10.8837H91.7568V7.04359ZM82.5764 16.694L82.4097 14.1057H79.2685V36.3148H82.5764V20.3291C84.0756 17.2862 86.0137 16.8659 87.8732 16.8649L88.657 16.928V13.6967H87.7593C85.4039 13.6946 84.1066 14.4308 82.5764 16.694ZM122.09 23.109L122.005 23.225L122.072 23.0997C119.996 22.0281 118.526 21.1253 118.526 19.2565C118.503 18.5059 118.8 17.7811 119.345 17.2645C119.614 17.0089 119.934 16.8132 120.284 16.6902C120.635 16.5673 121.007 16.5199 121.377 16.5512C121.792 16.5358 122.205 16.6097 122.588 16.7678C122.972 16.9258 123.317 17.1644 123.601 17.4674C123.95 17.9025 124.206 18.4051 124.352 18.9437C124.498 19.4824 124.531 20.0453 124.449 20.5973L124.433 20.7526H127.497L127.504 20.618C127.671 18.7368 127.058 16.869 125.809 15.4527C125.237 14.8711 124.551 14.4145 123.794 14.1115C123.036 13.8086 122.224 13.6659 121.409 13.6926C117.838 13.6926 115.345 16.0563 115.345 19.4408C115.345 23.1287 118.302 24.7107 120.46 25.8661C122.617 27.0216 124.638 28.1346 124.638 30.4351C124.653 30.8794 124.577 31.322 124.413 31.7354C124.25 32.1488 124.003 32.5242 123.688 32.8382C123.373 33.1521 122.997 33.398 122.584 33.5604C122.17 33.7228 121.727 33.7984 121.283 33.7824C119.165 33.7824 117.642 32.0026 117.58 29.4546V29.3159H114.491V29.4609C114.594 33.9377 117.192 36.7186 121.28 36.7186C123.029 36.8325 124.744 36.1947 125.993 34.9637C127.241 33.7327 127.905 32.0275 127.816 30.2767C127.818 26.1405 124.775 24.5274 122.09 23.109ZM109.183 29.32C109.213 30.6421 108.777 31.9327 107.953 32.9665C107.7 33.2333 107.395 33.444 107.056 33.5851C106.717 33.7262 106.352 33.7944 105.986 33.7855C103.44 33.7855 102.095 30.8192 102.095 25.2087C102.095 19.6251 103.487 16.5491 106.017 16.5491C106.358 16.5413 106.698 16.605 107.013 16.7361C107.329 16.8671 107.613 17.0626 107.849 17.3101C108.622 18.267 109.035 19.4639 109.018 20.6936H112.149C112.241 18.7246 111.586 16.7935 110.313 15.288C109.769 14.742 109.118 14.3156 108.399 14.0358C107.681 13.7561 106.913 13.6293 106.143 13.6636C101.399 13.6636 98.7919 17.7522 98.7919 25.1776C98.7919 32.6031 101.326 36.6917 105.928 36.6917C109.633 36.6917 111.951 33.9553 112.243 29.32H109.183ZM132.505 34.503C132.576 34.3722 132.611 34.2252 132.608 34.0764C132.621 33.8725 132.545 33.6716 132.401 33.5267C132.228 33.3819 132.005 33.3103 131.78 33.3268H130.601V35.6936H131.186V34.8488H131.633L132.032 35.6936H132.691L132.186 34.7753C132.321 34.725 132.434 34.6285 132.505 34.503ZM131.92 34.3156C131.82 34.362 131.709 34.383 131.599 34.3767H131.185V33.7741H131.599C131.711 33.7671 131.822 33.7926 131.92 33.8476C131.958 33.875 131.988 33.9119 132.008 33.9545C132.027 33.9972 132.035 34.0442 132.031 34.0909C132.041 34.181 131.999 34.269 131.92 34.3156Z" fill="black"/>
<path d="M133.51 33.6478C133.407 33.3993 133.254 33.1736 133.062 32.9852C132.869 32.7967 132.641 32.6528 132.392 32.5545C131.855 32.3489 131.262 32.3489 130.725 32.5545C130.475 32.6526 130.247 32.799 130.053 32.9852C129.861 33.1736 129.709 33.3993 129.606 33.6478C129.39 34.2006 129.39 34.8146 129.606 35.3675C129.708 35.6192 129.861 35.8477 130.053 36.0394C130.245 36.2282 130.474 36.3761 130.725 36.4743C131.262 36.6799 131.855 36.6799 132.392 36.4743C132.643 36.3759 132.87 36.2279 133.062 36.0394C133.253 35.851 133.408 35.6191 133.51 35.3675C133.726 34.8146 133.726 34.2006 133.51 33.6478ZM133.102 35.2008C133.021 35.4027 132.9 35.5866 132.748 35.7423C132.599 35.8955 132.419 36.0146 132.22 36.0922C131.802 36.2554 131.337 36.2554 130.919 36.0922C130.72 36.0145 130.54 35.8952 130.391 35.7423C130.238 35.587 130.118 35.4027 130.037 35.2008C129.863 34.7565 129.863 34.2629 130.037 33.8186C130.118 33.6166 130.238 33.4326 130.391 33.2771C130.54 33.1249 130.72 33.0048 130.919 32.9272C131.337 32.764 131.802 32.764 132.22 32.9272C132.419 33.0059 132.599 33.1249 132.748 33.2771C132.897 33.4293 133.02 33.6167 133.102 33.8186C133.276 34.2629 133.276 34.7565 133.102 35.2008Z" fill="black"/>
<path d="M151.903 6.92803L149.043 17.0527H149.006L145.938 6.92803H139.15L136.826 11.0601L134.365 6.92803H130.914L134.927 13.4207L130.523 20.694H133.701L136.525 15.8806L139.449 20.694H144.657V11.1502H144.693C144.766 11.5498 144.835 11.8918 144.9 12.1762C144.966 12.4606 145.028 12.7239 145.087 12.9662L145.281 13.6567L145.495 14.3742L147.538 20.6898H150.217L152.278 14.3742C152.429 13.8655 152.57 13.3751 152.7 12.903C152.842 12.3765 152.956 11.8429 153.041 11.3044H153.077V20.694H156.001V6.92389L151.903 6.92803ZM138.351 13.4383L141.942 7.47676V19.2797L138.351 13.4383Z" fill="url(#paint0_linear_3_6836)"/>
<defs>
<linearGradient id="paint0_linear_3_6836" x1="133.912" y1="7.03405" x2="142.046" y2="27.1916" gradientUnits="userSpaceOnUse">
<stop offset="0.042" stop-color="#21DBAA"/>
<stop offset="0.358" stop-color="#00B4EF"/>
<stop offset="0.433" stop-color="#01A7EC"/>
<stop offset="0.568" stop-color="#0487E4"/>
<stop offset="0.68" stop-color="#0768DD"/>
<stop offset="0.965" stop-color="#5F1AE5"/>
</linearGradient>
</defs>
</svg>
