<svg width="168" height="48" viewBox="0 0 168 48" fill="none" xmlns="http://www.w3.org/2000/svg">
<path d="M7.2002 41.4207H13.2232V25.7506C13.2232 22.6601 15.255 20.4146 18.1576 20.4146C20.9634 20.4146 22.7051 22.1772 22.7051 25.0262V41.4201H28.5586V25.6054C28.5586 22.5391 30.542 20.4143 33.4446 20.4143C36.3956 20.4143 38.0404 22.201 38.0404 25.3399V41.4203H44.0633V23.8675C44.0633 18.7489 40.7495 15.3446 35.6939 15.3446C31.9931 15.3446 28.9457 17.3244 27.7116 20.4873H27.5664C26.6231 17.2037 24.035 15.3446 20.407 15.3446C16.9239 15.3446 14.2148 17.3003 13.1021 20.2701H12.9812V15.8275H7.2002V41.4207ZM57.2468 37.292C54.6345 37.292 52.893 35.964 52.893 33.8634C52.893 31.8353 54.5619 30.5315 57.4645 30.3383L63.3906 29.9761V31.9319C63.3906 35.0224 60.6574 37.292 57.2468 37.292ZM55.4327 41.8311C58.7223 41.8311 61.9394 40.1169 63.415 37.3403H63.536V41.4207H69.3412V23.795C69.3412 18.6522 65.205 15.2961 58.8435 15.2961C52.3126 15.2961 48.2252 18.7246 47.9589 23.5051H53.5464C53.9334 21.3804 55.7475 20.0041 58.6017 20.0041C61.5769 20.0041 63.391 21.5494 63.391 24.2294V26.0644L56.618 26.4507C50.3775 26.837 46.8703 29.5654 46.8703 34.1046C46.8703 38.7162 50.4743 41.8311 55.4328 41.8311H55.4327ZM95.7797 24.9539C95.3686 19.5697 91.184 15.2961 84.4115 15.2961C76.9617 15.2961 72.1237 20.4389 72.1237 28.6236C72.1237 36.9296 76.9614 41.9269 84.4598 41.9269C90.8941 41.9269 95.3203 38.1604 95.8039 32.4379H90.1197C89.5633 35.3352 87.5799 37.0736 84.5322 37.0736C80.7104 37.0736 78.2434 33.9831 78.2434 28.6229C78.2434 23.3595 80.6864 20.1723 84.4839 20.1723C87.7009 20.1723 89.6118 22.2246 90.0956 24.9529H95.7798L95.7797 24.9539ZM114.382 6.00049C104.199 6.00049 97.8126 12.93 97.8126 24.0125C97.8126 35.0951 104.198 42.0005 114.382 42.0005C124.541 42.0005 130.927 35.0951 130.927 24.0125C130.927 12.93 124.541 6.00049 114.382 6.00049ZM114.382 11.3123C120.598 11.3123 124.565 16.2378 124.565 24.0124C124.565 31.7628 120.598 36.6884 114.382 36.6884C108.141 36.6884 104.199 31.7629 104.199 24.0124C104.199 16.238 108.141 11.3123 114.382 11.3123ZM133.467 31.6181C133.733 38.0408 139.006 42.0004 147.037 42.0004C155.479 42.0004 160.8 37.8475 160.8 31.2318C160.8 26.0408 157.801 23.1193 150.714 21.5017L146.698 20.5842C142.417 19.5701 140.651 18.218 140.651 15.9002C140.651 13.0028 143.312 11.0713 147.255 11.0713C151.246 11.0713 153.979 13.027 154.269 16.2865H160.22C160.074 10.1537 154.995 6.00067 147.303 6.00067C139.708 6.00067 134.314 10.1777 134.314 16.3588C134.314 21.3326 137.362 24.4231 143.795 25.8961L148.319 26.9585C152.721 27.9967 154.511 29.4453 154.511 31.9564C154.511 34.8537 151.584 36.9302 147.376 36.9302C143.118 36.9302 139.902 34.8296 139.515 31.6183H133.468L133.467 31.6181Z" fill="black"/>
</svg>
