<svg width="160" height="144" viewBox="0 0 160 144" fill="none" xmlns="http://www.w3.org/2000/svg">
<path d="M156 5.20361H4V138.797H156V5.20361Z" fill="white"/>
<path d="M30.3257 100.002C19.1613 88.1712 12.629 71.8275 12.6456 52.3271C12.6301 35.0815 18.0487 20.2581 27.364 8.97848L27.3489 8.98412H7.76953V100.004H30.3118L30.3257 100.002Z" fill="#A90533"/>
<path d="M133.442 100.009C138.251 94.8581 142.561 88.7916 146.466 81.8538L124.794 71.0182C117.184 83.3915 106.053 94.7806 90.6622 94.8566C68.2621 94.7806 59.4612 75.6263 59.5097 50.9722H143.215C143.327 48.1888 143.327 46.8946 143.215 45.5548C143.761 30.8872 139.874 18.5582 132.803 8.95703L132.766 8.9845H151.613V100.004H133.401L133.442 100.009Z" fill="#A90533"/>
<path d="M60.8646 29.8427C61.7912 18.6805 70.5918 11.1738 80.9105 11.1512C91.2996 11.1738 98.8059 18.6805 99.0602 29.8427H60.8646Z" fill="#A90533"/>
<path d="M19.6913 115.443V111.651H8.04297V134.135H19.6913V130.342H12.3772V124.383H19.42V120.591H12.3772V115.443H19.6913Z" fill="black"/>
<path d="M39.4663 124.654C42.3701 124.223 43.9646 121.345 44.0715 118.423C43.9646 113.643 40.8659 111.665 36.4865 111.651H30.5269V134.135H34.8612V125.195L40.279 134.135H45.6968L39.4663 124.654ZM34.8608 115.173H35.4026C37.7672 115.262 39.542 115.801 39.466 118.694C39.542 121.345 37.8274 122.065 35.4026 121.945H34.8608V115.173Z" fill="black"/>
<path d="M59.241 111.651H54.9071V134.135H65.4715V130.342H59.241V111.651Z" fill="black"/>
<path d="M87.6846 129.53L89.5808 134.135H94.186L85.7883 111.109H82.2668L73.3273 134.135H77.9321L79.8287 129.53H87.6846ZM86.601 126.009H81.1832L83.6212 117.611L86.601 126.009Z" fill="black"/>
<path d="M102.313 134.135H106.918V118.965L118.837 134.677H122.088V111.651H117.483V126.821L105.563 111.109H102.313V134.135Z" fill="black"/>
<path d="M141.05 122.216V125.737H145.927C145.825 128.567 143.509 130.965 140.78 130.884C136.469 130.965 134.334 126.8 134.278 123.028C134.334 119.307 136.439 114.962 140.78 114.902C143.057 114.961 144.983 116.52 145.927 118.423L149.719 116.527C148.051 113.014 144.682 111.065 140.78 111.109C134.063 111.066 129.761 116.61 129.673 123.028C129.761 129.287 133.943 134.861 140.509 134.948C147.6 134.861 150.879 129.197 150.803 122.757V122.216H141.05Z" fill="black"/>
</svg>
