<svg width="80" height="80" viewBox="0 0 80 80" fill="none" xmlns="http://www.w3.org/2000/svg">
<path d="M39.999 75.0137C59.6089 75.0137 75.5059 59.3376 75.5059 40C75.5059 20.6625 59.6089 4.98633 39.999 4.98633C20.3891 4.98633 4.49219 20.6625 4.49219 40C4.49219 59.3376 20.3891 75.0137 39.999 75.0137Z" fill="white"/>
<path fill-rule="evenodd" clip-rule="evenodd" d="M40 5.47947C20.6559 5.47947 4.9863 20.9413 4.9863 40C4.9863 59.0587 20.6559 74.5206 40 74.5206C59.3441 74.5206 75.0137 59.0587 75.0137 40C75.0137 20.9413 59.3441 5.47947 40 5.47947ZM4 40C4 20.3836 20.1243 4.49316 40 4.49316C59.8757 4.49316 76 20.3836 76 40C76 59.6164 59.8757 75.5069 40 75.5069C20.1243 75.5069 4 59.6164 4 40Z" fill="white"/>
<path fill-rule="evenodd" clip-rule="evenodd" d="M14.1894 34.869C16.6867 20.8024 30.1143 11.4246 44.1799 13.9209C58.2465 16.4182 67.6263 29.8458 65.1289 43.9124C62.6297 57.98 49.2021 67.3578 35.1355 64.8614C21.0728 62.3612 11.6931 48.9356 14.1894 34.868" fill="white"/>
<path fill-rule="evenodd" clip-rule="evenodd" d="M15.305 16.8042L17.0212 18.5203C17.2224 18.7215 17.4285 18.8507 17.6386 18.9089C17.9532 18.9977 18.2442 18.9089 18.5115 18.6397C18.833 18.3191 18.9425 17.9907 18.8399 17.6573C18.7847 17.4768 18.6555 17.2865 18.4553 17.0853L16.7391 15.3691L17.1188 14.9894L18.6772 16.5487C19.0194 16.89 19.2364 17.1997 19.3282 17.4758C19.4929 17.9808 19.342 18.4681 18.8705 18.9385C18.401 19.408 17.9138 19.5599 17.4098 19.3922C17.1336 19.3005 16.8249 19.0845 16.4827 18.7432L14.9233 17.1849L15.305 16.8042ZM20.5255 15.6541C20.6705 15.8238 20.8214 15.9372 20.9753 15.9924C21.2672 16.096 21.5848 16.0181 21.9251 15.7557C22.0684 15.6492 22.1922 15.5188 22.291 15.3701C22.4666 15.0979 22.4685 14.8473 22.294 14.6205C22.1657 14.4509 22.0208 14.369 21.862 14.3739C21.7051 14.3838 21.4941 14.4469 21.2307 14.5653L20.7494 14.7823C20.4338 14.9243 20.1922 14.9992 20.0245 15.0091C19.7325 15.0269 19.4879 14.9055 19.2897 14.6471C19.1872 14.5217 19.1123 14.376 19.0699 14.2197C19.0276 14.0633 19.0188 13.8997 19.0441 13.7397C19.0964 13.4143 19.2946 13.1213 19.6408 12.858C19.9584 12.6134 20.2898 12.4861 20.633 12.4753C20.9763 12.4625 21.281 12.6301 21.5444 12.9763L21.1479 13.2791C20.9999 13.1272 20.8589 13.0326 20.7238 12.9951C20.4772 12.926 20.203 13.0049 19.9081 13.2308C19.6694 13.4143 19.5382 13.5977 19.5136 13.7821C19.5001 13.8667 19.5039 13.9531 19.5248 14.0362C19.5456 14.1193 19.5831 14.1972 19.6349 14.2654C19.7532 14.4193 19.8992 14.4824 20.0768 14.4617C20.1931 14.4449 20.42 14.3611 20.7573 14.2112L21.2564 13.9883C21.498 13.8788 21.7061 13.8246 21.8807 13.8236C22.1835 13.8226 22.4409 13.9607 22.653 14.2378C22.9173 14.583 22.9834 14.9233 22.8512 15.2596C22.72 15.595 22.4912 15.8869 22.1667 16.1355C21.788 16.4244 21.4171 16.5517 21.0522 16.5172C20.6873 16.4836 20.3796 16.2972 20.1251 15.9579L20.5255 15.6541ZM26.182 12.931C26.3132 12.8649 26.4331 12.7784 26.537 12.6745C26.6835 12.5126 26.7705 12.3056 26.7836 12.0877C26.7942 11.8699 26.7624 11.6522 26.6899 11.4466C26.6477 11.315 26.5942 11.1873 26.5301 11.0649C26.2983 10.6368 26.037 10.3488 25.7431 10.2019C25.4482 10.0539 25.1168 10.0815 24.7479 10.2808L23.9362 10.7187L25.3663 13.3718L26.182 12.931ZM23.2428 10.5688L24.6246 9.82412C25.0931 9.57162 25.5468 9.54302 25.9877 9.74225C26.3822 9.92275 26.7077 10.2492 26.9641 10.7246C27.1623 11.0915 27.2718 11.4594 27.2965 11.8293C27.3389 12.4802 27.0677 12.9665 26.4818 13.2811L25.1059 14.0238L23.2428 10.5688ZM29.5048 10.2334C29.4337 10.0736 29.3295 9.93077 29.1991 9.81425C28.9959 9.64362 28.7503 9.61403 28.4652 9.72154C28.3679 9.7568 28.2791 9.81243 28.205 9.88471C28.1308 9.957 28.073 10.0443 28.0352 10.1407C27.9524 10.3499 27.951 10.5825 28.0313 10.7927L29.5048 10.2334ZM28.9426 9.24516C29.1547 9.26686 29.3342 9.32998 29.4811 9.4365C29.6212 9.5371 29.7405 9.67321 29.8392 9.84088C29.9122 9.95431 30.0009 10.1447 30.1025 10.4149L28.1575 11.1556C28.269 11.4239 28.4159 11.6192 28.5964 11.7375C28.7789 11.8559 28.9929 11.8687 29.2434 11.774C29.3495 11.7388 29.4465 11.6806 29.5275 11.6035C29.6085 11.5264 29.6715 11.4324 29.7119 11.3282C29.7545 11.2082 29.77 11.0802 29.7573 10.9534L30.1992 10.7838C30.2238 10.8864 30.2278 11.0116 30.208 11.1566C30.1917 11.288 30.1551 11.4161 30.0996 11.5363C30.0116 11.7242 29.8734 11.884 29.7001 11.9979C29.5912 12.0708 29.474 12.1304 29.3509 12.1755C29.1938 12.2381 29.0251 12.2667 28.8561 12.2592C28.6871 12.2517 28.5216 12.2084 28.3706 12.1321C28.049 11.9782 27.8054 11.6813 27.6387 11.2464C27.475 10.8163 27.4582 10.4238 27.5884 10.0667C27.7166 9.71168 27.9691 9.46214 28.3439 9.31913C28.5333 9.24713 28.7335 9.22247 28.9436 9.24516H28.9426ZM32.7685 10.3557C32.8632 10.1348 32.8622 9.84384 32.7635 9.48286C32.7157 9.28791 32.6306 9.10405 32.513 8.94138C32.3099 8.67014 32.0475 8.57842 31.7269 8.66521C31.4034 8.75201 31.2269 8.97294 31.1953 9.32702C31.1776 9.51639 31.2052 9.74324 31.2772 10.0076C31.3354 10.2206 31.4163 10.3942 31.5208 10.5244C31.7191 10.7779 31.9794 10.8607 32.3 10.772C32.4059 10.7456 32.5039 10.694 32.5855 10.6215C32.6671 10.549 32.7299 10.4578 32.7685 10.3557ZM30.4339 8.66521L30.8886 8.54192L30.9882 8.90784C31.0474 8.75694 31.1223 8.63168 31.2141 8.53403C31.3508 8.3843 31.5284 8.27799 31.725 8.22828C32.0396 8.14247 32.3375 8.1908 32.6225 8.37129C32.9066 8.55179 33.1078 8.86444 33.2291 9.30927C33.3938 9.91091 33.3514 10.3843 33.1058 10.7266C32.9534 10.9427 32.7289 11.0973 32.4726 11.1625C32.2894 11.2184 32.094 11.2208 31.9094 11.1694C31.7836 11.1246 31.6657 11.06 31.5603 10.9781L31.9439 12.3885L31.4794 12.5147L30.4339 8.66521ZM34.5734 10.1447C34.6859 10.2088 34.8101 10.2315 34.9472 10.2117C35.1149 10.1871 35.2717 10.1259 35.4167 10.0243C35.5315 9.95445 35.6223 9.8512 35.677 9.72837C35.7316 9.60554 35.7475 9.46897 35.7225 9.33688L35.6662 8.9542C35.603 9.00614 35.5321 9.04805 35.4562 9.07847C35.371 9.11561 35.2833 9.14659 35.1938 9.17118L34.9117 9.25009C34.7778 9.28112 34.6507 9.33663 34.5369 9.41381C34.4028 9.51738 34.3485 9.66039 34.3732 9.84187C34.3949 9.97995 34.461 10.0806 34.5734 10.1447ZM35.3901 8.71453C35.4976 8.68494 35.5646 8.62872 35.5893 8.54488C35.6053 8.48365 35.6074 8.4196 35.5952 8.35749C35.5706 8.19376 35.4966 8.08428 35.3703 8.02806C35.2441 7.97086 35.0735 7.95902 34.8575 7.98861C34.6109 8.02412 34.4432 8.11683 34.3594 8.26576C34.3074 8.3744 34.2849 8.49483 34.2943 8.61491L33.8505 8.68001C33.809 8.32888 33.8879 8.06949 34.0842 7.90083C34.2916 7.72814 34.5443 7.6186 34.8121 7.58521C35.1455 7.53688 35.4236 7.56154 35.6505 7.6582C35.8753 7.75683 36.0055 7.93929 36.045 8.20658L36.2817 9.83891C36.2858 9.88118 36.3023 9.9213 36.329 9.95431C36.3547 9.97995 36.3981 9.98981 36.4642 9.97995C36.4881 9.97717 36.5118 9.97288 36.5352 9.96713C36.5618 9.96023 36.5894 9.95332 36.619 9.94247L36.6683 10.2946C36.6152 10.3199 36.5605 10.3416 36.5046 10.3597C36.4528 10.3736 36.4001 10.3839 36.3468 10.3903C36.1831 10.4139 36.0558 10.3715 35.9651 10.268C35.9082 10.1936 35.8672 10.1083 35.8448 10.0174C35.7659 10.1585 35.6426 10.2887 35.4749 10.409C35.3072 10.5283 35.1139 10.6043 34.8949 10.6358C34.778 10.6576 34.6578 10.6559 34.5415 10.6308C34.4252 10.6058 34.315 10.5579 34.2174 10.4899C34.125 10.425 34.0473 10.3415 33.9893 10.2446C33.9314 10.1477 33.8945 10.0397 33.881 9.92768C33.8435 9.66532 33.8958 9.45031 34.0388 9.28264C34.1819 9.11496 34.384 8.99464 34.6464 8.92264L35.3901 8.71453ZM36.8833 7.36033L37.339 7.32581L37.3775 7.81798C37.4071 7.71935 37.4899 7.59606 37.624 7.44713C37.7479 7.30413 37.9235 7.21616 38.1123 7.20253L38.1576 7.20055L38.2661 7.20351L38.3056 7.70949C38.2794 7.70652 38.253 7.70487 38.2267 7.70455C38.203 7.70455 38.1764 7.70653 38.1478 7.7085C37.9081 7.72823 37.7266 7.81699 37.6092 7.98368C37.4937 8.14315 37.4391 8.33875 37.4554 8.53502L37.5806 10.1772L37.1003 10.2137L36.8833 7.36033ZM39.2002 6.46576H39.6864V7.26466H40.144V7.65721H39.6864V9.52724C39.6864 9.62587 39.7209 9.69294 39.788 9.72746C39.8255 9.74718 39.8876 9.75606 39.9744 9.75606L40.0484 9.75507C40.0797 9.75334 40.111 9.75005 40.1421 9.74521V10.1289C40.0859 10.145 40.0285 10.1566 39.9705 10.1634C39.9113 10.1703 39.8472 10.1733 39.7771 10.1733C39.5523 10.1733 39.4014 10.1161 39.3205 10.0007C39.2346 9.86762 39.1925 9.71104 39.2002 9.55288V7.65721H38.8125V7.26466H39.2002V6.46576ZM40.9962 7.24296L41.4696 7.29228L41.4292 7.69568C41.5564 7.56746 41.6708 7.47672 41.7685 7.42247C41.9379 7.32986 42.132 7.29229 42.3238 7.31496C42.5506 7.33962 42.7272 7.4136 42.8534 7.53984C42.9345 7.62742 42.9967 7.73085 43.0359 7.84362C43.1582 7.70258 43.2953 7.60296 43.4462 7.54477C43.5991 7.48658 43.7638 7.46686 43.9413 7.48559C44.324 7.52603 44.5706 7.69272 44.68 7.9817C44.7392 8.13951 44.757 8.34269 44.7294 8.5942L44.5311 10.4889L44.034 10.4386L44.2411 8.46105C44.2609 8.27168 44.2263 8.13557 44.1405 8.05568C44.0475 7.97188 43.9291 7.92155 43.8042 7.91266C43.6243 7.89083 43.443 7.9404 43.2992 8.05075C43.1503 8.16121 43.0605 8.36439 43.0309 8.65831L42.8574 10.3153L42.3711 10.264L42.5654 8.40581C42.5851 8.2125 42.5772 8.06949 42.5398 7.97677C42.4806 7.83672 42.3524 7.75584 42.1541 7.73414C41.9681 7.71641 41.7826 7.77316 41.6383 7.89195C41.4755 8.0182 41.3759 8.2628 41.3375 8.63069L41.1797 10.1397L40.7003 10.0904L40.9962 7.24296ZM47.3223 9.42664C47.3502 9.25462 47.3424 9.07873 47.2997 8.90981C47.2208 8.65338 47.0334 8.49359 46.7355 8.42653C46.6349 8.40202 46.5302 8.39955 46.4286 8.4193C46.3269 8.43905 46.2308 8.48054 46.1467 8.54094C45.9628 8.67024 45.8335 8.8632 45.7837 9.08242L47.3223 9.42664ZM47.3983 8.29239C47.5514 8.41121 47.67 8.5689 47.7415 8.74905C47.8027 8.9108 47.8283 9.08833 47.8185 9.28165C47.8064 9.49303 47.774 9.70276 47.7218 9.90795L45.69 9.45327C45.6358 9.73929 45.6506 9.98192 45.7374 10.1821C45.8222 10.3814 45.9958 10.5106 46.2562 10.5688C46.4998 10.622 46.7118 10.5846 46.8923 10.4544C46.9951 10.378 47.0791 10.2791 47.1379 10.1654L47.6005 10.2689C47.5553 10.3859 47.488 10.4931 47.4022 10.5846C47.3036 10.696 47.205 10.7818 47.1034 10.843C46.9266 10.9515 46.723 11.0082 46.5155 11.0067C46.3841 11.0076 46.253 10.993 46.125 10.9633C45.9594 10.9289 45.803 10.8599 45.666 10.7608C45.529 10.6617 45.4145 10.5347 45.33 10.3883C45.1466 10.0815 45.1061 9.69984 45.2077 9.24417C45.3083 8.79639 45.5115 8.46006 45.8163 8.2342C46.12 8.00735 46.4672 7.93831 46.8578 8.0251C47.0551 8.0685 47.2346 8.15727 47.3983 8.29239ZM48.6105 8.5439L49.0444 8.68691L48.9172 9.07255C49.0987 8.95518 49.2723 8.88614 49.4399 8.86543C49.6066 8.84176 49.7782 8.85951 49.9528 8.9177C50.3394 9.04395 50.5554 9.26291 50.6038 9.57853C50.6304 9.75014 50.5988 9.97305 50.5091 10.2472L49.937 11.993L49.4715 11.8391L50.0337 10.1249C50.0846 9.98901 50.1048 9.84351 50.0929 9.69885C50.0672 9.50357 49.9469 9.37042 49.7339 9.30039C49.6445 9.26805 49.5507 9.24976 49.4557 9.24614C49.3126 9.24363 49.1719 9.28343 49.0513 9.36055C48.9548 9.41761 48.8727 9.49627 48.8117 9.59036C48.7574 9.67913 48.7022 9.81129 48.643 9.98981L48.1755 11.414L47.7179 11.2631L48.6105 8.5439ZM52.1246 8.85458L52.5744 9.04001L52.2686 9.77973L52.6898 9.95332L52.5399 10.3153L52.1168 10.1407L51.4046 11.8667C51.3652 11.9595 51.3721 12.0344 51.4214 12.0906C51.467 12.1356 51.5224 12.1693 51.5832 12.1893C51.6049 12.1991 51.6276 12.207 51.6522 12.2159C51.6779 12.2258 51.7084 12.2336 51.742 12.2435L51.596 12.5966C51.5373 12.59 51.4793 12.5788 51.4224 12.5631C51.3604 12.5448 51.2995 12.5231 51.2399 12.498C51.0328 12.4122 50.9135 12.3017 50.8839 12.1646C50.8554 12.0093 50.8761 11.849 50.9431 11.706L51.666 9.95431L51.308 9.80636L51.4579 9.4434L51.8169 9.59135L52.1246 8.85458ZM55.3311 13.933C55.557 13.789 55.7454 13.5898 55.9002 13.3383C56.0383 13.1115 56.1162 12.9024 56.132 12.7169C56.1537 12.423 56.0265 12.1893 55.7463 12.0186C55.4988 11.8667 55.2591 11.852 55.0283 11.9743C54.782 12.1142 54.5777 12.3175 54.4365 12.5631C54.2777 12.8235 54.2018 13.073 54.2097 13.3156C54.2166 13.5583 54.3419 13.7535 54.5865 13.9025C54.8587 14.0672 55.1052 14.077 55.3311 13.933ZM56.5788 12.4654C56.6656 12.8077 56.5857 13.1815 56.3371 13.5878C56.0955 13.9824 55.8035 14.2487 55.4554 14.3887C55.1082 14.5288 54.7354 14.4775 54.334 14.2319C54.0006 14.0277 53.8053 13.7526 53.7481 13.4064C53.6909 13.0592 53.7777 12.6943 54.0124 12.3116C54.2629 11.9013 54.5677 11.6389 54.9218 11.5225C55.2769 11.4052 55.629 11.4535 55.9771 11.6665C56.2908 11.8569 56.49 12.1242 56.5788 12.4654ZM58.2831 12.1814C58.4705 12.1163 58.6934 12.1794 58.9518 12.3698C58.9755 12.3875 59.0011 12.4063 59.0248 12.4289C59.0505 12.4487 59.0781 12.4713 59.1086 12.5L58.8483 12.8521L58.7644 12.781L58.7151 12.7416C58.5968 12.6548 58.5031 12.6331 58.434 12.6765C58.366 12.7209 58.2397 12.8669 58.0563 13.1154L58.4429 13.4014L58.217 13.7072L57.8304 13.4212L56.3638 15.4076L55.9811 15.1245L57.4448 13.1371L57.1242 12.9014L57.3511 12.5956L57.6716 12.8323L57.9379 12.4704C58.0622 12.3155 58.1766 12.2179 58.2831 12.1814ZM19.8124 17.1001L20.2484 16.7509L20.6133 17.2046L20.1774 17.5547L19.8124 17.1001ZM23.1442 14.5534L23.59 14.2181L23.9411 14.6836L23.4953 15.019L23.1442 14.5534ZM60.4431 17.3486C60.2094 17.5833 59.9924 17.7303 59.7922 17.7905C59.4292 17.899 59.0653 17.7727 58.7033 17.4117C58.5061 17.225 58.3776 16.9772 58.3383 16.7085C58.3048 16.4481 58.4311 16.1739 58.7191 15.8849L58.9163 15.6867L59.2714 16.0408L59.0722 16.239C58.9213 16.3899 58.8414 16.5379 58.8325 16.6809C58.8226 16.8249 58.8907 16.9669 59.0327 17.1099C59.2339 17.3101 59.4341 17.3733 59.6334 17.2983C59.7557 17.251 59.9332 17.1109 60.1689 16.8762L62.0182 15.0269L62.3911 15.3987L60.4431 17.3486ZM62.6919 17.0093L61.244 18.2402C61.1473 18.316 61.069 18.4128 61.0152 18.5233C60.9402 18.6969 60.9747 18.8715 61.1207 19.0441C61.3318 19.2926 61.5902 19.3656 61.895 19.261C62.0587 19.2058 62.248 19.0884 62.4611 18.906L63.5322 17.9966L63.8439 18.3615L61.6632 20.2158L61.3673 19.8706L61.6928 19.6013C61.5751 19.6253 61.4539 19.6266 61.3357 19.6053C61.1009 19.5625 60.8893 19.4364 60.74 19.2502C60.4816 18.9444 60.4086 18.6505 60.522 18.3645C60.5812 18.2097 60.7045 18.0538 60.8919 17.895L62.3743 16.6355L62.6919 17.0093ZM63.1258 20.5067C63.024 20.5912 62.9487 20.7031 62.9089 20.8293C62.8605 21.0206 62.9306 21.2396 63.117 21.4802C63.2164 21.6153 63.3493 21.722 63.5026 21.7899C63.5693 21.8205 63.6433 21.8317 63.7161 21.8221C63.7888 21.8125 63.8574 21.7825 63.9139 21.7357C63.9603 21.7015 63.9962 21.655 64.0177 21.6015C64.0391 21.5481 64.0452 21.4896 64.0352 21.4329C64.0012 21.2899 63.952 21.151 63.8883 21.0186L63.7275 20.6527C63.6249 20.42 63.5667 20.2345 63.5559 20.0955C63.5302 19.8489 63.6091 19.6556 63.7926 19.5165C64.0066 19.3518 64.2394 19.2966 64.4938 19.3518C64.7473 19.406 64.9771 19.5658 65.1793 19.8311C65.4456 20.1763 65.5364 20.5048 65.4535 20.8125C65.4081 20.9948 65.3012 21.1557 65.1507 21.2682L64.8726 20.9082C64.9532 20.8357 65.01 20.7404 65.0353 20.635C65.0659 20.4673 64.9959 20.276 64.8282 20.055C64.7128 19.9071 64.5994 19.8163 64.4869 19.7838C64.4357 19.7661 64.3808 19.7616 64.3274 19.7708C64.2739 19.7799 64.2237 19.8024 64.1812 19.8361C64.0835 19.912 64.0431 20.0215 64.0599 20.1675C64.0697 20.2513 64.1033 20.3608 64.1625 20.4929L64.2986 20.7967C64.4465 21.1281 64.5264 21.3638 64.5382 21.5069C64.554 21.7298 64.4593 21.9211 64.2492 22.0829C64.1507 22.1588 64.0371 22.2131 63.9161 22.242C63.7951 22.2709 63.6693 22.2738 63.547 22.2505C63.2807 22.2101 63.0243 22.0296 62.7806 21.713C62.5193 21.3698 62.4088 21.0699 62.4522 20.8095C62.4966 20.5492 62.6297 20.3263 62.8467 20.1438L63.1258 20.5067ZM66.9813 20.9585L67.2545 21.3609L66.5927 21.8096L66.8491 22.1884L66.5227 22.4073L66.2662 22.0286L64.7207 23.0751C64.6379 23.1313 64.6014 23.1974 64.6122 23.2723C64.6171 23.3147 64.6438 23.371 64.6931 23.4449C64.7049 23.4647 64.7207 23.4844 64.7355 23.5051C64.7541 23.53 64.7738 23.5541 64.7947 23.5771L64.4791 23.7921C64.4342 23.754 64.3923 23.7124 64.3538 23.6678C64.312 23.6184 64.2726 23.567 64.2354 23.514C64.1102 23.3286 64.0727 23.1688 64.123 23.0386C64.186 22.8935 64.2916 22.7711 64.4258 22.6875L65.994 21.6262L65.777 21.3056L66.1025 21.0857L66.3195 21.4063L66.9813 20.9585ZM68.1294 22.4241L68.3799 22.8453L67.9094 23.1224L67.6609 22.7023L68.1303 22.4241H68.1294ZM67.2042 22.9735L67.4528 23.3937L65.0008 24.8465L64.7513 24.4253L67.2042 22.9735ZM68.6117 26.0064C68.5623 26.2569 68.3769 26.4867 68.0534 26.6968L67.8423 26.2786C67.9776 26.1863 68.0831 26.0568 68.1461 25.9058C68.2053 25.7637 68.1826 25.5911 68.082 25.3909C67.9439 25.1177 67.7122 24.9895 67.3857 25.0063C67.141 25.0272 66.9033 25.0984 66.6874 25.2153C66.4309 25.3446 66.2435 25.5073 66.1242 25.7046C66.0039 25.9018 66.0019 26.1149 66.1203 26.3466C66.1552 26.4267 66.2067 26.4984 66.2713 26.5572C66.3359 26.616 66.4121 26.6605 66.4951 26.6879C66.6588 26.7372 66.8422 26.7343 67.0503 26.679L67.2614 27.0972C66.8994 27.2205 66.5907 27.2254 66.3372 27.115C66.0848 27.0035 65.8826 26.7993 65.7326 26.5005C65.563 26.1681 65.5502 25.8397 65.6952 25.5172C65.8382 25.1956 66.0936 24.9412 66.4586 24.7577C66.9063 24.5309 67.3117 24.4638 67.6707 24.5555C67.8431 24.5963 68.004 24.6753 68.1418 24.7866C68.2795 24.8979 68.3906 25.0387 68.4667 25.1986C68.6126 25.4846 68.661 25.7539 68.6117 26.0064ZM68.7527 29.1329C68.9401 29.0373 69.0762 28.9337 69.1669 28.8223C69.3346 28.6151 69.3593 28.3686 69.2458 28.0855C69.2096 27.9881 69.1526 27.8997 69.0789 27.8265C69.0052 27.7533 68.9164 27.697 68.8188 27.6614C68.6084 27.5833 68.3765 27.5857 68.1678 27.6683L68.7527 29.1329ZM69.7321 28.556C69.7196 28.7487 69.6567 28.9347 69.5496 29.0955C69.4436 29.2435 69.3079 29.3678 69.1512 29.4604C68.9705 29.5692 68.78 29.6607 68.5821 29.7336L67.8078 27.8004C67.5415 27.9168 67.3492 28.0667 67.2338 28.2502C67.1174 28.4336 67.1085 28.6496 67.2081 28.8972C67.2663 29.0645 67.3812 29.2061 67.5329 29.2975C67.6846 29.3888 67.8636 29.4241 68.0386 29.3973L68.2142 29.8362C68.092 29.8652 67.9655 29.8705 67.8414 29.852C67.7097 29.8376 67.581 29.8034 67.4597 29.7504C67.2702 29.6658 67.1082 29.5298 66.9921 29.3578C66.9167 29.2504 66.8548 29.1341 66.8077 29.0116C66.7427 28.8558 66.7114 28.6879 66.716 28.5191C66.7206 28.3502 66.7609 28.1843 66.8343 28.0322C66.9833 27.7067 67.2752 27.4572 67.7072 27.2846C68.1353 27.114 68.5268 27.0903 68.8868 27.2136C69.2449 27.3379 69.4983 27.5854 69.6463 27.9563C69.7212 28.1456 69.7498 28.3449 69.7321 28.556ZM14.804 60.4184C14.9214 60.5506 15.0308 60.6453 15.1344 60.7054C15.3218 60.81 15.5309 60.8445 15.7646 60.809C15.952 60.7794 16.1523 60.7005 16.3663 60.5683C16.4945 60.4894 16.606 60.4086 16.7006 60.3237C17.0646 60.0002 17.2826 59.6787 17.3585 59.3581C17.4325 59.0386 17.3319 58.721 17.0518 58.4073L16.4373 57.7199L14.1876 59.7241L14.804 60.4184ZM16.4215 57.0157L17.466 58.1874C17.8201 58.5859 17.9513 59.0208 17.8605 59.4952C17.7777 59.9213 17.5341 60.3139 17.1307 60.6729C16.8437 60.9355 16.5032 61.1327 16.1325 61.2509C15.5072 61.4422 14.9726 61.2913 14.5308 60.7952L13.4902 59.6264L16.4215 57.0157ZM18.0765 60.5042L18.405 60.8228L18.0598 61.1779C18.1535 61.1355 18.3014 61.1147 18.5016 61.1167C18.6905 61.1149 18.8725 61.1879 19.0076 61.3199L19.0382 61.3524C19.052 61.3692 19.0766 61.3968 19.1092 61.4373L18.7551 61.8012C18.7393 61.7775 18.7226 61.7578 18.7068 61.7381C18.6887 61.7188 18.6702 61.6997 18.6515 61.6809C18.478 61.5122 18.2906 61.4383 18.0894 61.4609C17.893 61.4793 17.7098 61.5679 17.5735 61.7105L16.4274 62.8911L16.0832 62.5557L18.0765 60.5042ZM19.8667 62.1425L18.6377 63.5923C18.555 63.6833 18.4933 63.7914 18.4572 63.9089C18.4109 64.0934 18.474 64.2591 18.6476 64.406C18.8962 64.6171 19.1625 64.6457 19.4465 64.4948C19.5994 64.4139 19.7651 64.266 19.9466 64.0529L20.854 62.9808L21.2228 63.2915L19.3715 65.4742L19.0244 65.1803L19.3005 64.8617C19.1881 64.9041 19.0686 64.9252 18.9484 64.9238C18.7101 64.9188 18.4814 64.8289 18.3034 64.6704C17.9976 64.4139 17.8783 64.1328 17.9434 63.83C17.9779 63.6673 18.0736 63.4927 18.2334 63.3083L19.4919 61.8229L19.8667 62.1425ZM22.7536 65.1231C22.7431 65.0173 22.7087 64.9153 22.6528 64.8248C22.5969 64.7344 22.521 64.658 22.4311 64.6013C22.1509 64.4159 21.8708 64.4208 21.5917 64.6171C21.4438 64.7216 21.2938 64.8883 21.142 65.1162C20.9644 65.3854 20.8835 65.6251 20.8983 65.8391C20.9043 65.9404 20.9345 66.0387 20.9863 66.1259C21.0381 66.2131 21.1101 66.2866 21.1962 66.3402C21.4822 66.5295 21.7712 66.5345 22.0602 66.351C22.2229 66.2494 22.3679 66.0985 22.4981 65.9032C22.6954 65.6054 22.7812 65.344 22.7536 65.1231ZM22.9893 64.6605C23.0288 64.7641 23.0583 64.8903 23.0702 65.0412L23.2694 64.7404L23.6393 64.985L22.2012 67.1558C22.001 67.4596 21.7969 67.6687 21.5927 67.7851C21.213 67.9991 20.7928 67.9528 20.3302 67.649C20.0758 67.4803 19.8982 67.2791 19.7996 67.0473C19.701 66.8175 19.7227 66.572 19.8647 66.3135L20.272 66.5828C20.2228 66.6834 20.2056 66.7966 20.2227 66.9073C20.2543 67.0552 20.3657 67.1953 20.56 67.3215C20.8658 67.5247 21.138 67.5484 21.3757 67.3945C21.5177 67.3028 21.6943 67.0917 21.9063 66.7613C21.7598 66.8282 21.5984 66.8561 21.4379 66.8422C21.286 66.8274 21.1173 66.7584 20.9329 66.6351C20.807 66.553 20.6985 66.4469 20.6138 66.3228C20.529 66.1988 20.4695 66.0592 20.4387 65.9121C20.3667 65.6004 20.4723 65.2316 20.7524 64.8094C21.0177 64.41 21.3205 64.1624 21.6637 64.0667C22.0069 63.9721 22.3166 64.0155 22.5908 64.1979C22.7802 64.3232 22.9114 64.478 22.9893 64.6615V64.6605ZM26.0705 65.0826L28.6428 66.3096L28.4357 66.7436L26.3319 65.7395L25.819 66.8146L27.763 67.7417L27.5677 68.153L25.6237 67.2259L25.0507 68.4272L27.1909 69.446L26.9888 69.8692L24.3829 68.6244L26.0705 65.0826ZM28.5668 67.429L28.9979 67.577L28.8677 67.9597C29.0491 67.8453 29.2247 67.7782 29.3904 67.7585C29.5581 67.7387 29.7297 67.7585 29.9052 67.8186C30.2889 67.9498 30.5029 68.1737 30.5463 68.4874C30.57 68.66 30.5355 68.8838 30.4418 69.1561L29.8471 70.8939L29.3835 70.7341L29.9694 69.0278C30.0218 68.8929 30.0433 68.748 30.0325 68.6037C30.0098 68.4065 29.8914 68.2714 29.6774 68.1994C29.5889 68.1658 29.4958 68.1462 29.4012 68.1412C29.2585 68.1357 29.1174 68.1739 28.9969 68.2506C28.8996 68.3057 28.8166 68.3827 28.7542 68.4755C28.682 68.6013 28.6238 68.7346 28.5806 68.873L28.0944 70.2903L27.6397 70.1355L28.5668 67.429ZM31.8404 67.5721C31.9932 67.4438 32.2231 67.4241 32.5328 67.5109L32.6215 67.5385C32.6521 67.5484 32.6866 67.5612 32.7251 67.577L32.6067 67.9991C32.5594 67.9794 32.5249 67.9695 32.5032 67.9626L32.444 67.9429C32.3 67.9035 32.2053 67.9163 32.158 67.9824C32.1086 68.0475 32.0426 68.2289 31.9587 68.5278L32.4223 68.658L32.3187 69.0229L31.8552 68.8927L31.1865 71.2697L30.7278 71.1415L31.3985 68.7645L31.0139 68.656L31.1154 68.2911L31.5001 68.3996L31.6204 67.9676C31.6816 67.7752 31.7546 67.6421 31.8404 67.5721ZM34.242 71.2076C34.41 70.9858 34.5257 70.7288 34.5803 70.456C34.6346 70.1956 34.6395 69.9737 34.5902 69.7912C34.5132 69.5072 34.315 69.3316 33.9945 69.2636C33.7104 69.2044 33.4796 69.2695 33.305 69.4608C33.1295 69.6532 33.0091 69.9047 32.944 70.2154C32.8809 70.5132 32.8947 70.7746 32.9815 71.0004C33.0703 71.2273 33.2537 71.3693 33.5348 71.4275C33.8406 71.4926 34.0773 71.4196 34.242 71.2076ZM34.9265 69.4076C35.1238 69.7005 35.1731 70.0783 35.0745 70.5458C34.9798 70.9965 34.7914 71.3466 34.5103 71.5952C34.2302 71.8447 33.8603 71.9207 33.4017 71.824C33.02 71.7431 32.7428 71.5488 32.5732 71.2421C32.4026 70.9344 32.3631 70.5615 32.4558 70.1217C32.5554 69.6522 32.7527 69.303 33.0486 69.0722C33.3445 68.8454 33.6926 68.7704 34.0941 68.8552C34.4511 68.9302 34.7292 69.1156 34.9265 69.4076ZM35.7422 69.2054L36.1959 69.2626L36.1337 69.7528C36.1831 69.661 36.2876 69.5555 36.4494 69.4372C36.5297 69.3754 36.6223 69.3316 36.721 69.3087C36.8196 69.2857 36.9221 69.2841 37.0214 69.304L37.1289 69.3277L37.0658 69.8317C37.0153 69.816 36.9635 69.805 36.9109 69.7991C36.6703 69.7695 36.476 69.8228 36.3271 69.9619C36.1813 70.0946 36.0887 70.2759 36.0667 70.4718L35.8625 72.1051L35.3851 72.0459L35.7422 69.2054Z" fill="black"/>
<path fill-rule="evenodd" clip-rule="evenodd" d="M39.4939 69.6008C39.6912 69.7655 39.8017 70.0387 39.8303 70.4234L39.3628 70.4066C39.3464 70.2437 39.2841 70.0888 39.1833 69.9598C39.0866 69.8385 38.9268 69.7754 38.701 69.7665C38.3952 69.7547 38.1713 69.8967 38.0283 70.1906C37.9279 70.415 37.8755 70.6579 37.8744 70.9037C37.8646 71.1907 37.9159 71.4324 38.0293 71.6346C38.1427 71.8338 38.3301 71.9383 38.5895 71.9482C38.6769 71.9559 38.7649 71.9451 38.8478 71.9165C38.9307 71.888 39.0067 71.8423 39.0708 71.7825C39.1921 71.6661 39.2779 71.5024 39.3312 71.2933L39.7987 71.3091C39.7316 71.6868 39.5876 71.96 39.3677 72.1277C39.1478 72.2954 38.8716 72.3743 38.5392 72.3615C38.1644 72.3467 37.8705 72.2007 37.6584 71.9196C37.4454 71.6375 37.3468 71.2923 37.3625 70.883C37.3793 70.38 37.5154 69.9934 37.7689 69.7231C38.0234 69.4529 38.339 69.3246 38.7158 69.3365C39.0383 69.3483 39.2967 69.4371 39.4939 69.6008Z" fill="black"/>
<path fill-rule="evenodd" clip-rule="evenodd" d="M42.307 70.4984C42.2819 70.3255 42.2214 70.1597 42.1295 70.0112C41.9815 69.7912 41.7547 69.6946 41.4489 69.7192C41.3456 69.7258 41.2448 69.7545 41.1536 69.8036C41.0623 69.8526 40.9828 69.9207 40.9203 70.0033C40.7836 70.1825 40.718 70.4059 40.7358 70.6306L42.307 70.4984ZM42.0407 69.3928C42.238 69.4717 42.3928 69.5831 42.5033 69.7261C42.6118 69.8623 42.6877 70.026 42.736 70.2134C42.7755 70.3416 42.8071 70.5507 42.8307 70.8387L40.7565 71.0123C40.7891 71.3003 40.8749 71.5281 41.0169 71.6928C41.1589 71.8585 41.3621 71.9295 41.6284 71.9078C41.7403 71.9034 41.8498 71.8745 41.9491 71.823C42.0485 71.7715 42.1353 71.6988 42.2034 71.61C42.2782 71.5058 42.3284 71.3861 42.3504 71.2598L42.8209 71.2204C42.8135 71.3457 42.7817 71.4683 42.7272 71.5814C42.668 71.7155 42.598 71.827 42.5191 71.9157C42.3824 72.072 42.2047 72.1868 42.0062 72.2471C41.8815 72.2878 41.7523 72.3129 41.6215 72.3221C41.4531 72.3387 41.2831 72.3194 41.1227 72.2653C40.9624 72.2112 40.8154 72.1237 40.6914 72.0084C40.4251 71.7698 40.2723 71.4196 40.2328 70.9531C40.1953 70.4945 40.288 70.1118 40.5109 69.807C40.7348 69.4993 41.0455 69.3306 41.444 69.2981C41.6476 69.282 41.8521 69.3145 42.0407 69.3928ZM43.1365 69.2764L43.604 69.1817L43.6829 69.5831C43.7677 69.4214 43.8486 69.3001 43.9265 69.2182C44.0614 69.0812 44.2354 68.9892 44.4246 68.9549C44.6475 68.9105 44.8388 68.9292 44.9966 69.0111C45.0874 69.0594 45.1742 69.1373 45.262 69.2478C45.3278 69.0889 45.4322 68.9489 45.5657 68.8404C45.693 68.7389 45.8449 68.6708 46.0214 68.6343C46.3992 68.5593 46.6822 68.6442 46.8736 68.8898C46.9762 69.0229 47.0531 69.2123 47.1024 69.4608L47.4752 71.3299L46.986 71.4285L46.5964 69.4786C46.557 69.2912 46.4869 69.1728 46.3785 69.1215C46.2653 69.0692 46.1378 69.0564 46.0165 69.085C45.9283 69.1006 45.844 69.1335 45.7685 69.1817C45.693 69.23 45.6278 69.2926 45.5766 69.3661C45.4671 69.5161 45.4425 69.738 45.5006 70.027L45.8261 71.6603L45.3458 71.7569L44.9799 69.9244C44.9404 69.734 44.8911 69.5989 44.828 69.522C44.7313 69.4056 44.5834 69.3661 44.3881 69.4056C44.2056 69.4442 44.0457 69.5534 43.9433 69.7094C43.8239 69.8751 43.8022 70.1414 43.8732 70.5014L44.1721 71.9907L43.6987 72.0854L43.1365 69.2764ZM49.5366 68.945C49.4723 68.7833 49.3749 68.6368 49.2506 68.515C49.0533 68.3335 48.8107 68.2921 48.5207 68.3887C48.4214 68.419 48.3298 68.4705 48.2523 68.5396C48.1748 68.6087 48.1133 68.6939 48.0719 68.7892C47.9808 68.9945 47.9685 69.2263 48.0374 69.4401L49.5366 68.945ZM49.0208 67.934C49.2279 67.9636 49.4054 68.0356 49.5465 68.1481C49.6881 68.2624 49.8038 68.4057 49.8857 68.5682C49.9548 68.6836 50.0337 68.8809 50.1225 69.1541L48.1469 69.805C48.2455 70.0792 48.3836 70.2804 48.5592 70.4067C48.7357 70.5339 48.9507 70.5546 49.2032 70.4728C49.3739 70.4248 49.5225 70.3187 49.6233 70.1728C49.7241 70.027 49.7709 69.8505 49.7555 69.6739L50.2043 69.5259C50.2257 69.6499 50.223 69.7768 50.1964 69.8997C50.1753 70.0305 50.1333 70.157 50.0722 70.2745C49.9753 70.4582 49.8296 70.6115 49.651 70.7174C49.5524 70.7805 49.432 70.8347 49.294 70.8801C49.1343 70.9356 48.9647 70.9566 48.7964 70.9416C48.6281 70.9266 48.4649 70.8761 48.3175 70.7933C48.0019 70.6237 47.7711 70.3189 47.6251 69.8751C47.4811 69.4381 47.4821 69.0456 47.6271 68.6955C47.7731 68.3463 48.0354 68.1086 48.4152 67.9824C48.6105 67.9183 48.8097 67.9025 49.0208 67.934ZM50.0603 67.6007L50.4785 67.4172L50.6412 67.7891C50.6975 67.5819 50.7803 67.4152 50.8908 67.288C51.0012 67.1598 51.1403 67.0582 51.3109 66.9842C51.6828 66.8215 51.9915 66.8412 52.2341 67.0444C52.3683 67.1549 52.4935 67.3413 52.6089 67.6066L53.3427 69.2882L52.8949 69.4855L52.173 67.8315C52.1201 67.6967 52.0379 67.5754 51.9323 67.4764C51.7824 67.3462 51.6049 67.3265 51.3997 67.4172C51.3117 67.4522 51.2295 67.5004 51.1561 67.5602C51.0479 67.654 50.9697 67.7775 50.9312 67.9153C50.8977 68.022 50.8886 68.135 50.9046 68.2457C50.9243 68.3483 50.9697 68.4844 51.0446 68.656L51.6443 70.0299L51.2044 70.2213L50.0603 67.6007ZM52.6346 65.489L53.0685 65.2681L53.4285 65.9821L53.8369 65.775L54.0144 66.1271L53.6061 66.3333L54.4503 68.0001C54.4957 68.0889 54.5559 68.1343 54.6318 68.1343C54.6958 68.1276 54.7577 68.1074 54.8133 68.0751C54.8635 68.0503 54.9116 68.0216 54.9573 67.9893L55.1299 68.3305C55.0885 68.37 55.0421 68.4065 54.9938 68.439C54.9394 68.474 54.8834 68.5066 54.8261 68.5367C54.6259 68.6373 54.4641 68.655 54.3409 68.5899C54.204 68.5092 54.0952 68.3883 54.0292 68.2437L53.176 66.5532L52.8289 66.7288L52.6533 66.3767L52.9985 66.2041L52.6346 65.489ZM58.2525 64.5816L56.779 63.4888L57.2386 65.2779L58.2525 64.5816ZM56.2208 63.1653L56.7169 62.825L60.1137 65.2562L59.6334 65.5866L58.6402 64.841L57.3599 65.7188L57.6746 66.929L57.2248 67.2367L56.2208 63.1653ZM60.4244 64.1526C60.6601 64.2137 60.883 64.1456 61.0901 63.9504C61.1688 63.8767 61.2282 63.7849 61.2629 63.6829C61.2977 63.5808 61.3068 63.4718 61.2894 63.3655C61.2617 63.1288 61.1246 62.8792 60.8791 62.6189C60.6295 62.3575 60.3928 62.2125 60.166 62.1878C60.0623 62.1728 59.9566 62.1816 59.8569 62.2138C59.7572 62.2459 59.6663 62.3005 59.5909 62.3733C59.5067 62.4483 59.4416 62.5422 59.4008 62.6473C59.3599 62.7524 59.3447 62.8657 59.3562 62.9779C59.3749 63.2156 59.5071 63.4661 59.7547 63.7275C59.9657 63.9494 60.1896 64.0904 60.4244 64.1526ZM59.731 61.8545C59.8286 61.8347 59.9648 61.8357 60.1354 61.8594L59.1422 60.808L59.4785 60.4924L62.1839 63.3546L61.8703 63.6535L61.5951 63.3645C61.6356 63.5687 61.6277 63.7531 61.5695 63.9149C61.5067 64.0856 61.4035 64.2386 61.2686 64.3607C61.0379 64.5796 60.7459 64.6694 60.3928 64.6339C60.0387 64.5993 59.7093 64.4198 59.4045 64.0963C59.1325 63.8228 58.9528 63.4711 58.8907 63.0903C58.8364 62.7234 58.9508 62.4038 59.2379 62.1336C59.3966 61.9807 59.5604 61.888 59.731 61.8545ZM60.596 60.7715L60.9215 60.4243L61.2174 60.7025C61.1935 60.5584 61.1895 60.4117 61.2055 60.2665C61.2344 60.0768 61.322 59.9009 61.456 59.7635C61.6119 59.5958 61.7776 59.5002 61.9561 59.4755C62.0751 59.4642 62.1952 59.4769 62.3092 59.513C62.2699 59.3456 62.273 59.171 62.3181 59.005C62.3624 58.8502 62.4463 58.7062 62.5696 58.574C62.8339 58.2939 63.114 58.1992 63.4109 58.286C63.5726 58.3354 63.7452 58.4448 63.9297 58.6174L65.3194 59.9213L64.9771 60.2863L63.5273 58.9261C63.3882 58.7959 63.259 58.7397 63.1426 58.7614C63.02 58.7854 62.9087 58.8492 62.826 58.9429C62.6993 59.0733 62.6291 59.2484 62.6307 59.4301C62.6297 59.6156 62.7363 59.8089 62.9523 60.0121L64.1654 61.1512L63.832 61.5063L62.469 60.229C62.3289 60.0959 62.2096 60.015 62.1119 59.9894C61.964 59.9509 61.8229 60.0042 61.6868 60.1501C61.5607 60.2881 61.4941 60.4703 61.5014 60.6571C61.5014 60.8613 61.6385 61.0911 61.9058 61.3426L63.0134 62.3802L62.684 62.7313L60.596 60.7715ZM63.4997 57.6045L63.8015 57.2189L66.0423 58.9794L65.7405 59.3631L63.4997 57.6045ZM62.6534 56.9387L62.9542 56.5541L63.3843 56.8914L63.0815 57.2761L62.6534 56.9387ZM64.1575 56.632L64.4159 56.2543L64.7513 56.4831C64.6913 56.3028 64.6725 56.1114 64.696 55.9229C64.7207 55.7562 64.7858 55.5974 64.8894 55.4455C65.1192 55.1101 65.3924 54.9632 65.705 55.0056C65.8776 55.0283 66.0828 55.121 66.3215 55.2837L67.8374 56.3194L67.5632 56.7237L66.0739 55.7059C65.9578 55.6184 65.8232 55.5586 65.6804 55.5313C65.4851 55.5017 65.3253 55.5806 65.1981 55.7641C65.1431 55.8414 65.0992 55.926 65.0679 56.0156C65.0264 56.1522 65.0264 56.2981 65.0679 56.4347C65.0944 56.544 65.1464 56.6454 65.2198 56.7306C65.2888 56.8066 65.4012 56.8983 65.5551 57.0019L66.7929 57.8471L66.5207 58.2456L64.1575 56.632ZM65.8332 54.2027L66.0808 53.7806L68.5347 55.2265L68.2862 55.6487L65.8332 54.2027ZM64.9061 53.6553L65.1537 53.2342L65.6232 53.5104L65.3746 53.9325L64.9051 53.6563L64.9061 53.6553ZM68.2438 53.7984C68.3917 53.8575 68.5219 53.8773 68.6284 53.8556C68.8237 53.8161 68.9894 53.6593 69.1275 53.3871C69.2064 53.2391 69.2458 53.0734 69.2419 52.9058C69.2412 52.8323 69.2195 52.7605 69.1793 52.699C69.1391 52.6375 69.0821 52.5887 69.0151 52.5586C68.9643 52.5311 68.9069 52.5184 68.8493 52.5221C68.7918 52.5258 68.7364 52.5456 68.6896 52.5793C68.5755 52.671 68.4716 52.7749 68.3799 52.889L68.1175 53.1928C67.9499 53.3861 67.8088 53.5182 67.6885 53.5903C67.5978 53.6526 67.4918 53.6889 67.3819 53.6954C67.272 53.7018 67.1625 53.6781 67.0651 53.6267C66.9518 53.5742 66.852 53.4963 66.7737 53.3989C66.6953 53.3016 66.6405 53.1875 66.6134 53.0655C66.5532 52.8121 66.5986 52.5389 66.7495 52.241C66.9488 51.8494 67.2032 51.6265 67.5169 51.5703C67.7014 51.5335 67.8929 51.5614 68.0593 51.6492L67.8522 52.0536C67.7517 52.0134 67.6418 52.0031 67.5356 52.024C67.3729 52.0684 67.2279 52.2153 67.1016 52.4639C67.0168 52.6286 66.9833 52.7706 67.003 52.888C67.0094 52.9417 67.0292 52.993 67.0606 53.0371C67.0919 53.0812 67.1339 53.1168 67.1825 53.1405C67.293 53.1977 67.4094 53.1859 67.5326 53.108C67.6066 53.0636 67.6885 52.9856 67.7832 52.8742L67.9992 52.6207C68.2339 52.3446 68.4124 52.171 68.5367 52.099C68.731 51.9875 68.946 51.9915 69.1808 52.1118C69.2921 52.1675 69.3903 52.2463 69.4689 52.3429C69.5474 52.4395 69.6045 52.5517 69.6364 52.672C69.7134 52.9314 69.6611 53.2381 69.4786 53.5952C69.2833 53.9798 69.0594 54.2077 68.806 54.2807C68.5495 54.3524 68.2756 54.3282 68.0357 54.2126L68.2438 53.7984ZM66.6884 50.3286L66.8748 49.8788L67.6125 50.1865L67.7881 49.7644L68.1501 49.9153L67.9755 50.3374L69.7005 51.0525C69.7913 51.092 69.8672 51.086 69.9234 51.0367C69.9682 50.9914 70.002 50.9364 70.0221 50.8759L70.0487 50.8049C70.0593 50.7758 70.0685 50.7462 70.0763 50.7162L70.4284 50.8621C70.422 50.9211 70.4108 50.9795 70.3949 51.0367C70.3781 51.0939 70.3554 51.1551 70.3298 51.2182C70.244 51.4253 70.1325 51.5437 69.9945 51.5752C69.839 51.6025 69.679 51.5815 69.5358 51.5151L67.7851 50.7882L67.6372 51.1442L67.2742 50.9953L67.4222 50.6363L66.6884 50.3286ZM68.0564 49.2614L68.2004 48.8294L68.6689 48.9862C68.59 48.9201 68.5071 48.7949 68.4223 48.6134C68.3384 48.4439 68.3253 48.2481 68.3858 48.0689L68.4026 48.0275C68.4124 48.0078 68.4262 47.9733 68.4469 47.9259L68.9283 48.0867C68.9148 48.1099 68.903 48.1339 68.8927 48.1587C68.8839 48.1814 68.873 48.205 68.8642 48.2327C68.7872 48.4625 68.803 48.6647 68.9095 48.8353C69.018 49.0099 69.1669 49.1282 69.3593 49.1913L70.9216 49.7111L70.7697 50.1678L68.0574 49.2624L68.0564 49.2614ZM70.9729 47.7385C71.0752 47.6571 71.1463 47.5428 71.1741 47.415C71.2135 47.2513 71.2135 47.0816 71.1741 46.91C71.1515 46.7772 71.089 46.6545 70.9949 46.5581C70.9008 46.4617 70.7796 46.3963 70.6474 46.3705L70.2726 46.2808C70.2967 46.3597 70.309 46.4418 70.3091 46.5244C70.3122 46.6166 70.3082 46.7089 70.2972 46.8006L70.2657 47.0925C70.2489 47.2671 70.2539 47.4022 70.2815 47.4998C70.3024 47.5783 70.3453 47.6492 70.405 47.7042C70.4647 47.7592 70.5389 47.7961 70.6188 47.8105C70.6795 47.827 70.7432 47.829 70.8048 47.8165C70.8665 47.804 70.9234 47.7773 70.9729 47.7385ZM69.9451 46.4504C69.958 46.339 69.9284 46.2571 69.8623 46.2029C69.8105 46.1656 69.7513 46.1401 69.6887 46.1279C69.5289 46.0904 69.3997 46.118 69.3001 46.2147C69.2015 46.3104 69.1265 46.4632 69.0752 46.6753C69.018 46.9189 69.0417 47.1083 69.1492 47.2424C69.2308 47.3309 69.3342 47.3966 69.449 47.4328L69.3445 47.8697C69.0022 47.779 68.7902 47.6093 68.7063 47.3627C68.6231 47.1067 68.6149 46.8323 68.6827 46.5717C68.7616 46.2443 68.8878 45.9938 69.0624 45.8192C69.234 45.6466 69.453 45.5914 69.7173 45.6555L71.321 46.0401C71.3684 46.05 71.4098 46.05 71.4443 46.0381C71.4788 46.0263 71.5035 45.9878 71.5193 45.9237C71.5242 45.903 71.5272 45.8793 71.5311 45.8537L71.541 45.7679L71.8862 45.8507C71.8904 45.9092 71.8904 45.9679 71.8862 46.0263C71.8787 46.0793 71.8688 46.132 71.8566 46.1841C71.8171 46.3459 71.7323 46.4475 71.6011 46.4928C71.5116 46.5192 71.4174 46.5259 71.325 46.5126C71.4266 46.6378 71.5005 46.8006 71.5518 47.0008C71.6011 47.202 71.5982 47.4091 71.5469 47.6241C71.4848 47.8806 71.3565 48.0749 71.1593 48.2011C71.0651 48.2631 70.9587 48.3044 70.8474 48.3222C70.736 48.3401 70.6221 48.3341 70.5132 48.3047C70.2568 48.2435 70.0753 48.1143 69.9718 47.92C69.8656 47.7044 69.8277 47.4614 69.8633 47.2237L69.9451 46.4504ZM68.4617 44.5626L68.5466 44.0843L69.3336 44.2243L69.4135 43.7746L69.8001 43.8436L69.7193 44.2924L71.5577 44.6198C71.6564 44.6366 71.7284 44.6159 71.7718 44.5547C71.8065 44.5011 71.8278 44.4398 71.8339 44.3762L71.8457 44.3013C71.8503 44.2706 71.8526 44.2396 71.8526 44.2086L72.2294 44.2746C72.2353 44.3318 72.2373 44.391 72.2334 44.4502C72.2294 44.5094 72.2235 44.5745 72.2097 44.6415C72.1702 44.8635 72.0874 45.0025 71.9592 45.0617C71.8125 45.1212 71.6512 45.1349 71.4966 45.1012L69.6325 44.7698L69.5634 45.1515L69.1788 45.0814L69.2458 44.7007L68.4617 44.5626ZM69.5457 43.1631L69.6049 42.6778L72.4326 43.023L72.3734 43.5083L69.5457 43.1631ZM68.4755 43.0329L68.5357 42.5486L69.0762 42.6137L69.018 43.1L68.4755 43.0329ZM71.9148 40.3689C71.6696 40.2373 71.3978 40.1631 71.1198 40.1519C70.8535 40.1401 70.6346 40.1706 70.4629 40.2476C70.1927 40.3679 70.0497 40.5928 70.0339 40.9202C70.0181 41.2102 70.1227 41.4272 70.3377 41.5702C70.5557 41.7122 70.822 41.7921 71.1386 41.8089C71.4423 41.8247 71.6988 41.7694 71.9089 41.6481C72.118 41.5258 72.2294 41.3226 72.2452 41.0366C72.26 40.72 72.1495 40.4981 71.9148 40.3689ZM70.0309 39.9744C70.2884 39.7357 70.6553 39.6272 71.1326 39.6509C71.5933 39.6735 71.968 39.8047 72.258 40.0424C72.547 40.2791 72.6782 40.6332 72.6565 41.1017C72.6368 41.4923 72.4888 41.7961 72.2107 42.0121C71.9345 42.2281 71.5696 42.3247 71.1218 42.302C70.6425 42.2784 70.2657 42.1383 69.9935 41.8819C69.7203 41.6254 69.594 41.293 69.6157 40.8857C69.6335 40.5188 69.7735 40.217 70.03 39.9753L70.0309 39.9744ZM69.8426 39.1903L69.8327 38.7336L70.24 38.7257C70.0871 38.6135 69.9611 38.4686 69.8712 38.3016C69.7934 38.1452 69.7522 37.9732 69.7508 37.7986C69.7439 37.3932 69.8791 37.117 70.1602 36.9691C70.314 36.8872 70.534 36.8448 70.8229 36.8379L72.6594 36.8014L72.6693 37.2896L70.8663 37.3261C70.7214 37.3239 70.5777 37.3532 70.4452 37.412C70.2696 37.5007 70.1838 37.6585 70.1888 37.8824C70.1917 37.9958 70.2045 38.0895 70.2282 38.1625C70.2733 38.2984 70.3582 38.4177 70.4718 38.5048C70.5565 38.578 70.6577 38.6294 70.7667 38.6547C70.8673 38.6764 71.0123 38.6863 71.1987 38.6823L72.6979 38.6527L72.7068 39.133L69.8426 39.1903ZM70.3337 32.6777L70.4452 33.2231L69.8751 33.3415L69.7627 32.7951L70.3337 32.6777Z" fill="black"/>
<path fill-rule="evenodd" clip-rule="evenodd" d="M51.8103 38.2896V38.5362C51.8478 38.8794 51.2018 39.1832 51.2018 39.1832L50.5735 38.5934L50.8596 38.7266C50.8596 38.7266 51.2393 38.7828 51.3764 38.6398L51.5638 38.1555L47.0761 36.9956C47.0761 36.9956 47.5683 29.8578 46.6964 24.7497C45.5128 17.8347 42.1377 13.6045 42.1377 13.6045L43.3508 13.7021C62.0846 16.9224 64.9508 33.799 64.9508 33.799C67.9374 46.9474 59.4345 56.0815 59.4345 56.0815C59.4345 56.0815 56.8296 53.0013 51.0677 50.5148C45.6657 48.1842 40.0014 48.3272 40.0014 48.3272C40.0014 48.3272 34.7187 47.9367 29.4302 50.286C27.5444 51.1224 23.1642 52.953 19.8463 56.0815C19.8463 56.0815 17.3865 53.3317 16.4238 50.7604C16.4238 50.7604 19.5149 47.0993 23.4207 44.7519C23.753 44.5517 29.3976 47.9347 40.533 45.893L42.5105 45.4374C42.5105 45.4374 49.0438 42.9992 53.7672 41.3304L54.4142 41.7101L55.936 39.8845L52.1684 38.7424" fill="#00A2E5"/>
<path fill-rule="evenodd" clip-rule="evenodd" d="M39.1653 12.0288C46.2735 21.8632 45.5141 29.4666 45.2576 36.8303L41.3134 35.9417C38.823 31.8978 36.2843 29.1293 32.3036 26.2463C26.3581 21.9411 19.0891 21.3099 19.0891 21.3099C21.8705 17.6132 28.9985 12.2813 39.1653 12.0288Z" fill="#744143"/>
<path fill-rule="evenodd" clip-rule="evenodd" d="M41.2996 40.17C40.0411 38.2072 34.2643 21.7883 11.8082 22.3731C11.8082 22.3731 4.61808 30.9096 6.92208 44.7346C6.92208 44.7346 21.9494 30.1501 41.2996 40.3228V40.17Z" fill="#744143"/>
<path fill-rule="evenodd" clip-rule="evenodd" d="M10.3258 55.2683C10.5546 54.4309 14.6517 48.089 23.0452 42.756C23.0452 42.756 28.7657 45.9714 39.2402 44.5028L39.47 44.3746C39.7166 44.2227 39.6002 44.8707 40.0224 44.5255C41.0678 43.6694 42.5562 42.0617 42.5562 42.0617C41.4101 41.7037 34.4912 37.9794 26.6205 38.1924C26.6205 38.1924 16.2732 38.1362 7.37775 46.7871C7.37775 46.7871 8.03857 51.1288 10.3258 55.2683Z" fill="#744143"/>
<path fill-rule="evenodd" clip-rule="evenodd" d="M58.4531 57.3353C57.089 56.1172 53.6715 53.2461 49.8131 51.7883C43.5372 49.4192 36.0118 49.1894 30.3425 51.7883C26.0521 53.754 22.1996 56.4506 21.0742 57.4862C24.3813 60.8593 29.1254 63.045 29.1254 63.045C37.8473 67.2821 47.0189 64.5096 50.5735 62.8941C53.8737 61.3909 57.0673 58.8058 58.4541 57.3353" fill="#5AAD41"/>
</svg>
