<svg width="336" height="48" viewBox="0 0 336 48" fill="none" xmlns="http://www.w3.org/2000/svg">
<path d="M18.5424 22.2454C18.425 22.0917 18.2698 21.9709 18.0921 21.8947C17.9143 21.8185 17.7199 21.7894 17.5276 21.8103C17.3353 21.8312 17.1516 21.9013 16.9944 22.0139C16.8371 22.1266 16.7116 22.2778 16.6299 22.4532L6.93867 41.8295C6.85039 42.0061 6.8087 42.2023 6.81758 42.3995C6.82645 42.5967 6.88559 42.7884 6.98938 42.9564C7.09317 43.1243 7.23817 43.263 7.4106 43.3591C7.58303 43.4553 7.77718 43.5057 7.97461 43.5058H21.4691C21.6852 43.5108 21.8981 43.4529 22.082 43.3393C22.2659 43.2256 22.4129 43.061 22.505 42.8654C25.4159 36.8503 23.6518 27.7044 18.5424 22.2454Z" fill="url(#paint0_linear_3_6939)"/>
<path d="M25.6496 4.62159C23.2349 8.33714 21.8277 12.6167 21.5661 17.0403C21.3045 21.4638 22.1975 25.8794 24.1575 29.8537L30.6633 42.8653C30.7595 43.0577 30.9074 43.2195 31.0904 43.3326C31.2733 43.4457 31.4842 43.5056 31.6993 43.5057H45.1913C45.3888 43.5056 45.5829 43.4552 45.7553 43.359C45.9278 43.2629 46.0728 43.1242 46.1766 42.9563C46.2804 42.7883 46.3395 42.5966 46.3484 42.3994C46.3572 42.2022 46.3156 42.006 46.2273 41.8294C46.2273 41.8294 28.0759 5.52244 27.6197 4.61432C27.5296 4.42948 27.3891 4.27379 27.2145 4.16514C27.0398 4.05648 26.8381 3.99925 26.6324 4.00001C26.4267 4.00077 26.2254 4.05949 26.0516 4.16943C25.8778 4.27937 25.7385 4.43609 25.6496 4.62159Z" fill="#2684FF"/>
<path d="M183.905 20.1577C183.905 24.9557 186.131 28.7651 194.837 30.4468C200.032 31.5373 201.12 32.3757 201.12 34.1071C201.12 35.7889 200.029 36.8775 196.371 36.8775C191.949 36.798 187.615 35.6254 183.757 33.4643V41.2793C186.379 42.5655 189.841 44 196.272 44C205.374 44 208.985 39.9411 208.985 33.909C208.985 28.2204 205.967 25.5488 197.459 23.7193C192.76 22.6803 191.622 21.6419 191.622 20.1577C191.622 18.2797 193.304 17.4867 196.42 17.4867C200.18 17.4867 203.89 18.6244 207.402 20.2074V12.7377C204.034 11.205 200.367 10.4445 196.667 10.5119C188.258 10.5119 183.905 14.1723 183.905 20.1577Z" fill="#0052CC"/>
<path d="M300.838 11.0063V43.5057H307.763V18.7231L310.682 25.3016L320.476 43.5057H329.182V11.0063H322.257V31.9801L319.635 25.8953L311.77 11.0063H300.838Z" fill="#0052CC"/>
<path d="M249.223 11.0063H256.792V43.5057H249.223V11.0063Z" fill="#0052CC"/>
<path d="M240.491 33.909C240.491 28.2204 237.473 25.5488 228.965 23.7193C224.266 22.6803 223.128 21.6419 223.128 20.1577C223.128 18.2797 224.81 17.4867 227.926 17.4867C231.686 17.4867 235.396 18.6244 238.908 20.2074V12.7377C235.54 11.205 231.872 10.4445 228.173 10.5119C219.764 10.5119 215.411 14.1723 215.411 20.1577C215.411 24.9557 217.637 28.7651 226.343 30.4468C231.537 31.5373 232.625 32.3757 232.625 34.1071C232.625 35.7889 231.535 36.8775 227.876 36.8775C223.455 36.798 219.121 35.6254 215.263 33.4643V41.2793C217.885 42.5655 221.347 44 227.778 44C236.879 44 240.491 39.9411 240.491 33.909Z" fill="#0052CC"/>
<path d="M125.112 43.5057V11.0063H132.729V36.4813H143.117L140.668 43.5057H125.112Z" fill="#0052CC"/>
<path d="M94.3775 11.0063V18.0301H102.787V43.5057H110.404V18.0301H119.407V11.0063H94.3775Z" fill="#0052CC"/>
<path fill-rule="evenodd" clip-rule="evenodd" d="M73.3486 11.0063H83.3317L94.661 43.5057H86.0046L84.398 38.0322C80.4411 39.194 76.2337 39.194 72.2769 38.0322L70.6703 43.5057H62.0156L73.3486 11.0063ZM74.1749 31.5724C75.5275 31.9697 76.9301 32.1715 78.3398 32.1715C79.7494 32.173 81.1519 31.9729 82.5048 31.5772L78.3398 17.3897L74.1749 31.5724Z" fill="#0052CC"/>
<path fill-rule="evenodd" clip-rule="evenodd" d="M167.485 11.0063H157.503L146.17 43.5057H154.826L156.433 38.0322C160.39 39.194 164.597 39.194 168.554 38.0322L170.161 43.5057H178.817L167.485 11.0063ZM162.494 32.1715C161.084 32.1715 159.682 31.9697 158.329 31.5724L162.494 17.3897L166.659 31.5772C165.306 31.9729 163.904 32.173 162.494 32.1715Z" fill="#0052CC"/>
<path fill-rule="evenodd" clip-rule="evenodd" d="M274.082 11.0063H284.064L295.396 43.5057H286.739L285.133 38.0322C281.176 39.194 276.969 39.194 273.012 38.0322L271.405 43.5057H262.749L274.082 11.0063ZM274.905 31.5724C276.258 31.9697 277.66 32.1715 279.07 32.1715C280.479 32.173 281.882 31.9729 283.235 31.5772L279.07 17.3897L274.905 31.5724Z" fill="#0052CC"/>
<defs>
<linearGradient id="paint0_linear_3_6939" x1="23.8536" y1="25.2357" x2="13.6262" y2="42.9502" gradientUnits="userSpaceOnUse">
<stop stop-color="#0052CC"/>
<stop offset="0.923" stop-color="#2684FF"/>
</linearGradient>
</defs>
</svg>
