<svg width="160" height="56" viewBox="0 0 160 56" fill="none" xmlns="http://www.w3.org/2000/svg">
<path fill-rule="evenodd" clip-rule="evenodd" d="M106.069 49.6156H102.055C101.239 49.6156 100.614 49.1737 100.552 48.3531L100.488 46.7704C97.6014 49.1135 94.1518 50.3761 90.514 50.3761C83.4901 50.3761 80.6065 45.8889 80.6065 39.0556V20.3503C80.6065 19.2744 81.2329 18.8941 82.2334 18.8941H86.6261C87.6304 18.8941 88.1957 19.2088 88.1957 20.3503V37.7267C88.1957 41.2066 89.073 43.6083 92.8377 43.6083C95.2173 43.6083 98.2302 42.2817 100.112 40.5742V20.3503C100.112 19.2744 100.677 18.8941 101.678 18.8941H106.131C107.136 18.8941 107.701 19.2088 107.701 20.3503V47.8463C107.701 49.1737 107.322 49.6156 106.069 49.6156Z" fill="#4E7AB0"/>
<path fill-rule="evenodd" clip-rule="evenodd" d="M4 20.1559C4 19.3993 4.37709 18.8926 5.1282 18.8926H10.4342C11.1868 18.8926 11.6251 19.3353 11.6251 20.1559V48.0353C11.6251 49.1737 11.1218 49.6156 10.0571 49.6156H5.6315C4.50559 49.6156 4 49.1737 4 48.0353V20.1559ZM115.549 20.1559C115.549 19.3993 115.929 18.8926 116.679 18.8926H121.984C122.738 18.8926 123.177 19.3353 123.177 20.1559V48.0353C123.177 49.1737 122.674 49.6156 121.607 49.6156H117.181C116.055 49.6156 115.549 49.1737 115.549 48.0353V20.1559ZM45.2456 49.6156H40.7305C39.6015 49.6156 39.226 49.0472 39.226 47.9713V30.7684C39.226 27.2924 38.2867 24.8251 34.4584 24.8251C32.0116 24.8251 29.0025 26.1555 27.0582 27.8608V48.0353C27.0582 49.1135 26.6191 49.6156 25.5552 49.6156H20.9743C20.0335 49.6156 19.4682 49.1135 19.4682 48.0985V20.4814C19.4682 19.4687 19.9103 18.9003 21.0378 18.9003H25.1131C25.9904 18.9003 26.5587 19.1525 26.6191 20.1012L26.6811 21.7887C29.5678 19.451 33.2063 18.1237 36.8441 18.1237C43.8688 18.1237 46.7524 22.5499 46.7524 29.4434V47.9713C46.7524 49.0472 46.3769 49.6156 45.2456 49.6156ZM67.5993 10.263C67.5993 7.70167 65.541 5.6239 62.9993 5.6239C60.4599 5.6239 58.3985 7.70167 58.3985 10.263C58.3985 12.8251 60.4599 14.8998 62.9993 14.8998C65.541 14.8998 67.5993 12.8251 67.5993 10.263ZM74.1444 18.8926C74.8971 18.8926 75.3361 19.1448 75.3361 19.9677V24.4217C75.3361 25.1799 74.8351 25.6234 74.0809 25.6234H66.8123V48.0353C66.8123 49.1737 66.3113 49.6156 65.1808 49.6156H60.8171C59.6874 49.6156 59.1871 49.1737 59.1871 48.0353V25.6234H51.9161C51.1643 25.6234 50.6625 25.1799 50.6625 24.4217V19.9677C50.6625 19.1448 51.1008 18.8926 51.8542 18.8926H74.1444ZM145.431 10.263C145.431 7.70167 143.371 5.6239 140.83 5.6239C138.29 5.6239 136.23 7.70167 136.23 10.263C136.23 12.8251 138.29 14.8998 140.83 14.8998C143.371 14.8998 145.431 12.8251 145.431 10.263ZM151.976 18.8926C152.727 18.8926 153.165 19.1448 153.165 19.9677V24.4217C153.165 25.1799 152.665 25.6234 151.911 25.6234H144.642V48.0353C144.642 49.1737 144.142 49.6156 143.012 49.6156H138.646C137.517 49.6156 137.017 49.1737 137.017 48.0353L137.016 25.6234H129.748C128.994 25.6234 128.492 25.1799 128.492 24.4217V19.9677C128.492 19.1448 128.933 18.8926 129.683 18.8926H151.976ZM153.539 47.6288H153.926C154.252 47.6288 154.55 47.6134 154.55 47.2355C154.55 46.917 154.28 46.8684 154.029 46.8684H153.539V47.6288ZM153.171 46.5668H154.087C154.653 46.5668 154.92 46.7913 154.92 47.2525C154.92 47.6828 154.65 47.8656 154.295 47.9034L154.975 48.9608H154.577L153.932 47.9296H153.539V48.9608H153.171V46.5668ZM153.964 49.5138C154.905 49.5138 155.631 48.7587 155.631 47.7553C155.631 46.7758 154.905 46.0185 153.964 46.0185C153.013 46.0185 152.285 46.7758 152.285 47.7553C152.285 48.7587 153.013 49.5138 153.964 49.5138ZM153.964 45.7177C155.072 45.7177 156 46.5992 156 47.7553C156 48.9315 155.072 49.8146 153.964 49.8146C152.85 49.8146 151.916 48.9315 151.916 47.7553C151.916 46.5992 152.85 45.7177 153.964 45.7177Z" fill="#4E7AB0"/>
</svg>
