<svg width="160" height="56" viewBox="0 0 160 56" fill="none" xmlns="http://www.w3.org/2000/svg">
<path d="M15.9228 4.24619L43.3757 51.7538H31.3918L23.6879 38.3636L15.9228 51.7538H4L17.6959 28.0306L4 4.24619H15.9228ZM43.3146 4.24619L31.2695 25.1569C27.6377 18.6801 27.6613 10.825 31.281 4.43924L31.3918 4.24619H43.3146Z" fill="black"/>
<path d="M58.539 15.2518C61.535 15.313 64.1641 16.169 66.4264 17.8198L64.3475 20.9381C62.5133 19.7152 60.4956 19.0426 58.3556 18.9815C57.1939 18.9815 56.2767 19.2872 55.543 19.8375C54.7482 20.4489 54.3202 21.3661 54.3202 22.5278C54.3202 23.2615 54.5648 23.934 55.115 24.4843C55.6653 25.0957 56.5213 25.5237 57.7442 25.7072C58.4167 25.8295 59.3339 25.9517 60.4956 26.074C62.7578 26.3797 64.4698 27.2357 65.5704 28.5809C66.671 29.926 67.1601 31.4546 67.1601 33.2888C66.9767 38.2414 64.1641 40.6259 58.6002 40.6871C54.9928 40.6871 51.9356 39.5253 49.3065 37.2631L51.7522 34.4505C53.7088 36.1014 55.971 36.8962 58.6613 36.9574C61.8407 36.8962 63.4304 35.7345 63.4916 33.4723C63.4916 31.5768 62.4521 30.4763 60.3121 30.1094C59.3339 29.9871 58.2333 29.8037 57.0716 29.6203C54.9928 29.2534 53.4031 28.4586 52.3025 27.2357C51.2019 25.9517 50.5905 24.4232 50.5905 22.5889C50.5905 20.3878 51.3242 18.6146 52.7305 17.2695C54.0756 15.9244 56.0322 15.2518 58.539 15.2518ZM90.4554 15.4352V18.7981H83.7908V40.5036H80.1223V18.7981H73.4578V15.4352H90.4554ZM104.702 15.4352L113.506 40.5036H109.776L107.881 34.8785H98.6484L96.753 40.5036H92.8399L101.644 15.4352H104.702ZM133.194 15.4352V18.7981H126.529V40.5036H122.861V18.7981H116.196V15.4352H133.194ZM156 15.4352V18.9815H144.138V26.1352H154.227V29.498H144.138V36.8962H156V40.4425H140.47V15.4352H156ZM103.356 20.5712H103.295L99.749 31.5157H106.842L103.356 20.5712Z" fill="black"/>
</svg>
