<svg width="160" height="64" viewBox="0 0 160 64" fill="none" xmlns="http://www.w3.org/2000/svg">
<path d="M66.2617 42.3528H69.4018V23.0707H66.2617V21.1572H82.3547V26.1617H80.3922V23.0707H73.1307V31.7059H78.773V28.9093H80.6865V36.9558H78.773V33.6194H73.1307V42.3528H76.3198V44.2663H66.2617V42.3528Z" fill="#045388"/>
<path d="M84.3663 42.3528H87.4574V23.0707H84.3663V21.1572H100.508V26.1617H98.5458V23.0707H91.1862V31.4116H96.8777V28.6149H98.7912V36.6614H96.8777V33.3741H91.1862V42.3528H98.8402V39.1146H100.754V44.2663H84.3663V42.3528Z" fill="#045388"/>
<path d="M102.52 42.3528H105.66V23.0707H102.52V21.1572H109.929V23.0707L117.337 38.5749L124.648 23.0707V21.1572H132.204V23.0707H129.064V42.3528H132.204V44.2663H122.097V42.3528H125.286V26.4561H125.237L116.896 44.2663H116.062L107.868 26.7995H107.77V42.3528H110.91V44.2663H102.52V42.3528Z" fill="#045388"/>
<path d="M134.215 44.2663H140.25V42.3528H138.14L140.25 36.1708H147.953L150.161 42.3528H147.953V44.2663H156V42.3528H153.988L145.844 20.5684H143.881L136.227 42.3528H134.215V44.2663ZM147.168 34.2573H140.986L143.979 25.7692H144.077L147.168 34.2573Z" fill="#045388"/>
<path d="M30.8871 5.11293C16.0207 5.11293 4 17.1827 4 32C4 46.8173 16.0207 58.8871 30.8871 58.8871C45.7535 58.8871 57.7742 46.8664 57.7742 32C57.7742 17.1336 45.7044 5.11293 30.8871 5.11293Z" fill="white"/>
<path d="M47.2271 22.3836C46.9327 22.4817 46.6383 22.5798 46.3439 22.6289C48.0121 25.3765 48.9443 28.5656 48.9443 32.0492C48.9443 42.0092 40.8488 50.1047 30.8888 50.1047C20.9288 50.1047 12.8332 42.0092 12.8332 32.0492C12.8332 28.4675 13.8636 25.1312 15.6789 22.2854C15.3845 22.1873 15.0902 22.0892 14.8448 21.942C13.0295 24.8368 11.9501 28.3203 11.9501 32.0492C11.8519 42.4998 20.34 50.9879 30.8397 50.9879C41.3394 50.9879 49.7784 42.4998 49.7784 32.0492C49.8765 28.4675 48.8953 25.1802 47.2271 22.3836Z" fill="#C42032"/>
<path d="M20.3891 17.33C23.382 15.1712 26.9636 13.9446 30.8888 13.9446C35.2555 13.9446 39.2787 15.4655 42.4188 18.0659C42.7623 17.9678 43.1057 17.8697 43.4492 17.7716C40.1128 14.7786 35.697 13.0123 30.8888 13.0123C26.5711 13.0123 22.597 14.4843 19.4078 16.8884C19.555 16.9375 19.7022 16.9865 19.8984 17.0847C20.0456 17.1828 20.1928 17.2318 20.3891 17.33Z" fill="#C42032"/>
<path d="M30.8871 57.2189C17.002 57.2189 5.66818 45.9342 5.66818 32C5.66818 18.0658 16.9529 6.78111 30.8871 6.78111C44.8213 6.78111 56.106 18.0658 56.106 32C56.106 45.9342 44.8213 57.2189 30.8871 57.2189ZM30.8871 5.11293C16.0207 5.11293 4 17.1827 4 32C4 46.8173 16.0207 58.8871 30.8871 58.8871C45.7535 58.8871 57.7742 46.8664 57.7742 32C57.7742 17.1336 45.7044 5.11293 30.8871 5.11293Z" fill="#C0C2C4"/>
<path d="M30.6925 36.318H25.5898C25.688 36.4652 25.7861 36.6124 25.8352 36.7596C26.2277 37.2993 26.7183 37.6427 27.3561 37.8881C28.2393 38.1334 28.8281 38.3787 29.2696 38.4768L29.7603 38.624C30.1528 38.7221 30.4472 38.9675 30.6434 39.1637V36.318H30.6925Z" fill="#5E9841"/>
<path d="M30.4442 34.355L30.1007 34.2078L29.9044 33.7171L29.4138 33.5209L28.8741 33.0303L28.5307 33.3737L28.04 33.4718L27.7947 33.8643L27.5003 34.3059L27.0097 34.5512L26.6662 35.14L26.47 35.3853L26.1265 35.6306L25.9303 35.4344L25.734 35.6306L25.4887 36.1213C25.3415 35.7778 25.2924 35.5325 25.2434 34.9437C25.1452 33.9134 25.0962 32.5887 24.998 31.2639C26.7153 30.8714 28.9232 30.6752 30.6404 30.6261V34.6984C30.5913 34.6003 30.5423 34.5512 30.4442 34.355Z" fill="#0778AE"/>
<path d="M36.0865 32.1471C36.2828 31.9999 36.479 31.8527 36.7243 31.8037C36.7243 31.6074 36.7734 31.4111 36.7734 31.2639C35.0562 30.8714 32.8483 30.6752 31.131 30.6261V32.1471C31.1801 32.1962 31.2292 32.1962 31.2782 32.2452C31.5236 32.3924 31.7198 32.4905 32.0142 32.4905C32.2105 32.4905 32.4067 32.3924 32.603 32.2452C32.8974 32.049 33.2408 31.8527 33.7314 31.8527C34.173 31.8527 34.4674 32.049 34.7127 32.1962C34.958 32.3434 35.1543 32.4415 35.4487 32.4415C35.694 32.4415 35.8412 32.2943 36.0865 32.1471Z" fill="#0778AE"/>
<path d="M31.082 35.0909V36.5629C31.131 36.6119 31.1801 36.6119 31.2292 36.661C31.4745 36.8082 31.6708 36.9063 31.9651 36.9063C32.1614 36.9063 32.3576 36.8082 32.5539 36.661C32.8483 36.4647 33.1917 36.2685 33.6824 36.2685C34.124 36.2685 34.4183 36.4647 34.6637 36.6119C34.909 36.7591 35.1052 36.8572 35.3996 36.8572C35.6449 36.8572 35.7921 36.7591 35.9393 36.661C36.2828 36.1703 36.479 35.5816 36.479 34.8947C36.479 34.8456 36.479 34.8456 36.479 34.7966L36.43 34.8456C36.1846 35.0419 35.8903 35.2872 35.3506 35.2872C34.8599 35.2872 34.5165 35.0909 34.2711 34.9437C34.0749 34.7966 33.8786 34.6984 33.6333 34.6984C33.388 34.6984 33.0936 34.8456 32.8974 34.9928C32.652 35.1891 32.3086 35.3363 31.9161 35.3363C31.5726 35.3363 31.3273 35.2381 31.082 35.0909Z" fill="#0778AE"/>
<path d="M24.4106 26.6033C24.0181 26.407 23.6747 26.2108 23.3312 25.8673C22.1537 24.837 21.9084 23.7085 22.2518 22.4328C22.4481 21.6969 22.7915 21.3044 22.6443 20.5194C22.5462 20.0778 22.2518 19.6853 21.9084 19.3909C21.1724 18.6549 20.2402 18.2133 18.8664 17.7227C18.0323 17.4283 15.5791 16.6924 14.4997 15.7111C14.2544 16.398 14.745 17.3793 15.3829 17.4774C14.8432 17.5264 14.3525 17.8208 14.1563 18.1152C14.5488 18.6059 15.3829 19.0965 16.0698 19.0965C15.7263 19.2928 15.3829 19.7343 15.2357 19.9796C15.8244 20.3231 16.7567 20.5684 17.4926 20.5194C17.1982 20.7647 16.9529 21.0591 16.7567 21.3534C17.2473 21.5988 18.1795 21.8931 19.1117 21.9422C18.7683 22.1385 18.2776 22.6782 18.0814 23.0216C18.572 23.2669 19.7005 23.3651 20.3383 23.4632C19.8477 23.7085 19.357 24.1992 19.0627 24.6898C19.5533 24.9351 20.4855 25.1804 21.2705 25.1804C20.878 25.5239 20.6818 25.9655 20.5346 26.407C21.1234 26.5052 21.7121 26.5052 22.399 26.4561C21.9574 26.9958 21.8102 27.7318 21.7121 28.2224C22.3009 28.1733 23.0368 28.0752 23.5766 27.7318C23.4784 28.1733 23.4784 28.7621 23.6747 29.1546C23.92 29.1056 24.1653 29.0074 24.4106 28.8602C24.4597 28.1243 24.4597 27.3392 24.4106 26.6033Z" fill="#045388"/>
<path d="M47.5689 17.0358C46.4894 18.0171 44.8213 18.2624 43.0059 18.8512C41.6812 19.2928 40.798 19.5381 39.5714 20.5194C39.228 20.7647 38.8845 21.2062 38.9336 21.8931C38.9827 22.6782 39.1298 23.0216 39.1298 24.101C39.1298 24.837 38.8845 25.5239 38.5411 25.8673C38.1976 26.2598 37.7561 26.6033 37.3635 26.7995C37.3145 27.4374 37.2654 28.1243 37.2164 28.9093C37.5107 29.0565 37.8542 29.2037 38.0995 29.2527C38.2958 28.8602 38.2958 28.2715 38.1976 27.8299C38.7373 28.1733 39.4733 28.2715 40.0621 28.3205C40.013 27.8299 39.8167 27.0939 39.3752 26.5542C40.0621 26.6524 40.6999 26.6524 41.2396 26.5052C41.0924 26.1126 40.8471 25.6711 40.5036 25.2786C41.2396 25.3276 42.1718 25.0332 42.7115 24.7879C42.4171 24.2973 41.9265 23.8066 41.4359 23.5613C42.1227 23.5123 43.2512 23.3651 43.7909 23.1197C43.5456 22.7763 43.055 22.1875 42.7115 22.0403C43.5947 21.9913 44.5269 21.6478 45.0666 21.4516C44.8703 21.1572 44.625 20.8628 44.3306 20.6175C45.1647 20.5684 45.9988 20.4212 46.5876 20.0778C46.4894 19.8325 46.0479 19.3909 45.7535 19.1946C47.5198 18.6549 47.5689 17.7718 47.5689 17.0358Z" fill="#045388"/>
<path d="M39.9639 18.9984C37.3635 17.183 34.2725 16.1527 30.8871 16.1527C27.8451 16.1527 24.9503 17.0358 22.4971 18.5077C23.135 18.9984 23.4784 19.5381 23.6256 20.0287C23.7237 20.5194 23.7728 21.0591 23.4784 21.8931C23.184 22.7763 23.0368 23.6594 23.6747 24.5917C24.3125 25.4748 25.1466 25.9164 25.8826 26.0145C26.7657 25.8673 27.7961 25.7201 28.7773 25.622C28.8755 25.1804 29.317 24.837 29.6605 24.4935C30.2002 24.052 30.1021 23.6594 30.0039 23.3651C29.9058 23.1197 29.6605 22.9726 29.4152 22.7763C29.1698 22.6291 28.2376 22.531 28.2376 23.1688C28.0904 22.9726 27.9923 22.6782 28.0414 22.2857C28.1395 21.746 29.0227 21.6478 29.2189 21.6478C29.0227 21.5006 29.1698 21.3044 29.5624 21.1572C30.0039 21.0591 30.4455 21.01 30.838 21.01C31.6721 21.0591 31.8193 21.2553 32.2609 21.5988C32.8006 22.0894 33.4384 22.1875 33.7328 21.9422C33.5365 22.3838 32.8987 22.6291 32.5553 22.531C32.7515 23.1197 32.8006 23.6594 32.8987 24.2973C32.9478 24.5917 32.9968 25.0823 33.095 25.4748C34.2234 25.5729 35.3519 25.7201 36.3823 25.9164C36.7748 25.8183 37.2163 25.5729 37.6089 25.0823C38.0014 24.6898 38.2958 24.101 38.1486 22.7763C38.0995 22.3838 37.9032 21.4516 37.9523 20.9609C37.9523 20.225 38.7373 19.489 39.9639 18.9984Z" fill="#045388"/>
<path d="M29.4152 21.795C29.5624 21.8931 29.6605 21.9422 29.7096 21.8931C29.7096 21.9422 29.7586 21.9422 29.7586 21.9913C29.8077 22.0403 29.8077 22.0403 29.8077 22.0894C29.8567 22.0403 30.053 21.9913 30.2493 21.8931C30.4455 21.8441 30.6418 21.746 30.6418 21.746C29.9058 21.6478 29.8077 21.8441 29.4152 21.795Z" fill="#045388"/>
<path d="M36.0878 34.3554C36.235 34.2572 36.3822 34.11 36.6275 34.0119C36.6765 33.5213 36.6765 33.0306 36.7256 32.4909C36.6765 32.54 36.6275 32.5891 36.5294 32.6381C36.284 32.8344 35.9897 33.0797 35.4499 33.0797C34.9593 33.0797 34.6159 32.8834 34.3705 32.7362C34.1743 32.5891 33.978 32.4909 33.7327 32.4909C33.4874 32.4909 33.193 32.6381 32.9967 32.7853C32.7514 32.9816 32.408 33.1288 32.0155 33.1288C31.623 33.1288 31.3286 33.0306 31.1323 32.8834V34.3063C31.1814 34.3554 31.2304 34.3554 31.2795 34.4044C31.5248 34.5516 31.7211 34.6497 32.0155 34.6497C32.2117 34.6497 32.408 34.5516 32.6042 34.4044C32.8986 34.2082 33.2421 34.0119 33.7327 34.0119C34.1743 34.0119 34.4687 34.2082 34.714 34.3554C34.9593 34.5025 35.1556 34.6007 35.4499 34.6007C35.6953 34.6497 35.8425 34.5025 36.0878 34.3554Z" fill="#045388"/>
<path d="M31.9664 37.5936C31.5739 37.5936 31.2795 37.4955 31.0833 37.3483V39.1146C31.2795 38.9183 31.5739 38.722 31.9664 38.5749L32.457 38.4277C32.8496 38.2805 33.4383 38.0842 34.3705 37.8389C34.6159 37.7408 34.8612 37.6426 35.1065 37.4955C34.7631 37.4464 34.5668 37.2992 34.3705 37.152C34.1743 37.0048 33.978 36.9067 33.7327 36.9067C33.4874 36.9067 33.193 37.0539 32.9967 37.2011C32.6533 37.3973 32.3589 37.5936 31.9664 37.5936Z" fill="#045388"/>
<path d="M24.9993 30.8227C24.9012 29.3508 24.8521 27.8298 24.8031 26.6523C26.6184 26.2598 29.0226 25.9654 30.887 25.9654C32.7514 25.9654 35.1556 26.2107 36.9709 26.6523C36.9219 27.8298 36.8728 29.3508 36.7747 30.8227C35.1065 30.4793 32.8005 30.1849 30.887 30.1849C28.9735 30.1849 26.7166 30.4793 24.9993 30.8227Z" fill="#045388"/>
<path d="M51.9354 24.886C52.8676 24.4935 53.3092 23.4141 52.9166 22.5309C52.5241 21.6478 51.4447 21.2553 50.5125 21.6478C49.5803 22.0403 49.1387 23.1197 49.5312 24.0028C49.9237 24.9351 51.0031 25.3276 51.9354 24.886ZM50.8069 22.3837C51.5428 22.0403 52.3769 22.1875 52.6223 22.7272C52.8185 23.2178 52.3769 23.9538 51.641 24.2482C50.905 24.5916 50.0219 24.4444 49.8256 23.9047C49.5803 23.4141 50.0709 22.6781 50.8069 22.3837Z" fill="#045388"/>
<path d="M50.6106 27.3392L50.2181 25.9654L50.4634 25.8673L50.5616 26.2598L53.5545 25.5238L53.4563 25.1313L53.6526 25.0823L54.2414 27.192H54.3886L54.4376 27.4373L53.6035 27.6826L53.5054 27.3883L53.8979 27.2901L53.6526 26.2107L52.426 26.5051L52.6223 27.3392L52.9657 27.2411L53.0638 27.5355L52.0335 27.7808L51.9354 27.5355L52.3279 27.4373L52.0826 26.6032L50.7088 26.9467L50.8069 27.2901L50.6106 27.3392Z" fill="#045388"/>
<path d="M8.80809 23.5613L8.70997 24.0028L10.6235 24.5916C11.2122 24.7879 11.5066 25.0823 11.6047 25.5729C11.6538 25.8182 11.6538 26.1126 11.5557 26.3579C11.3104 27.192 10.6725 27.5845 9.98563 27.3883L7.92494 26.7995L7.82681 27.192L7.63056 27.1429L8.07213 25.7201L8.26839 25.7692L8.17026 26.1617L10.0838 26.7504C10.6235 26.8976 10.8688 26.8976 11.065 26.6523C11.1632 26.5542 11.2613 26.407 11.3104 26.2598C11.5066 25.671 11.2122 25.1804 10.6235 24.9841L8.70997 24.3954L8.61184 24.8369L8.36652 24.7879L8.56277 23.5122L8.80809 23.5613Z" fill="#045388"/>
<path d="M12.1935 24.3954C12.0954 24.5916 11.8991 24.6407 11.7029 24.5916C11.5066 24.4935 11.4576 24.2972 11.5066 24.101C11.6047 23.9047 11.801 23.8557 11.9973 23.9047C12.1935 24.0028 12.2916 24.1991 12.1935 24.3954Z" fill="#045388"/>
<path d="M12.8804 22.8744L12.7332 23.1197L11.8991 22.6291L12.0463 22.3837L12.3898 22.58C12.6841 22.4819 12.8313 22.3347 12.9295 22.0894C13.1257 21.795 13.0276 21.5006 12.7823 21.3534C12.586 21.2553 12.3407 21.3043 11.801 21.5496C11.2613 21.844 11.2122 21.8931 10.9669 21.9422C10.7707 21.9912 10.5744 21.9422 10.3781 21.844C9.83844 21.5496 9.74031 21.0099 10.0347 20.4212C10.1328 20.2249 10.2309 20.0777 10.4272 19.9796L10.28 19.9305L10.4272 19.6852L11.2122 20.1268L11.065 20.3721L10.7216 20.1759C10.4763 20.274 10.3781 20.4212 10.28 20.5684C10.1328 20.8137 10.2309 21.1081 10.4272 21.2062C10.6235 21.3043 10.7707 21.2553 11.3104 20.9609C11.5557 20.8137 11.7029 20.7156 11.801 20.7156C11.9482 20.6665 12.0954 20.6174 12.2916 20.6174C12.4879 20.6174 12.6842 20.6665 12.8313 20.7646C13.371 21.059 13.5182 21.6478 13.2239 22.1875C13.0767 22.4328 12.8804 22.6291 12.6841 22.7762L12.8804 22.8744Z" fill="#045388"/>
<path d="M14.2542 20.4212C14.2542 20.6174 14.107 20.7646 13.9107 20.7646C13.7145 20.7646 13.5673 20.6174 13.5673 20.4212C13.5673 20.2249 13.7145 20.0777 13.9107 20.0777C14.107 20.0777 14.2542 20.2249 14.2542 20.4212Z" fill="#045388"/>
<path d="M22.546 13.5522L20.2891 14.7298L20.1909 14.5335L20.5344 14.3372L19.1115 11.5897L18.7681 11.7859L18.67 11.5897L20.6325 10.5593L20.5344 10.4121L20.8288 10.314L21.2213 11.05L20.976 11.1971L20.7797 10.8537L19.7984 11.3443L20.3381 12.4728L21.1232 12.0803L20.976 11.7368L21.2213 11.6387L21.7119 12.5709L21.4175 12.6691L21.2704 12.3747L20.4853 12.7181L21.1232 13.9447L22.1535 13.405L21.9572 13.0125L22.2026 12.9144L22.546 13.5522Z" fill="#045388"/>
<path d="M24.7048 12.7672L23.2329 13.2578L23.1838 13.0616L23.5764 12.9634L22.5951 10.0687L22.2026 10.1668L22.1535 9.97054L23.6745 9.43084C24.3123 9.23458 24.852 9.4799 25.0483 10.0196C25.2445 10.5593 24.9011 11.1971 24.3123 11.3934C24.2142 11.4425 24.1651 11.4425 24.0179 11.4425L23.9198 11.1971C23.9689 11.1971 24.0179 11.1481 24.067 11.1481C24.4104 11.05 24.5576 10.7065 24.3614 10.2649C24.2142 9.77429 23.9198 9.57803 23.5764 9.72522L23.282 9.82335L24.2142 12.6691L24.6558 12.5219L24.7048 12.7672Z" fill="#045388"/>
<path d="M29.0715 11.5897L28.8262 11.6387L26.9618 8.44956L26.6183 8.49862L25.8824 12.1294L25.5389 12.1784L25.588 12.4237L26.6674 12.2275L26.6183 11.9822L26.2258 12.0803L26.4221 11.1971L27.6977 10.9518L28.1884 11.7368L27.7959 11.7859L27.8449 12.0312L29.1206 11.7859L29.0715 11.5897ZM26.4711 10.8046L26.7655 9.38177L27.5015 10.6084L26.4711 10.8046Z" fill="#045388"/>
<path d="M32.7513 11.5897H32.506C32.4079 11.5897 32.3098 11.5406 32.2116 11.3443L31.4757 10.1668C31.9663 10.0196 32.2116 9.67616 32.2116 9.23458C32.2116 8.9402 32.1135 8.69488 31.9663 8.54769C31.77 8.35143 31.5247 8.30237 31.0832 8.30237H29.5131V8.54769H29.9056V11.6387H29.5131V11.884H30.985V11.6387H30.5925V10.2649H30.7397L31.5247 11.5406C31.721 11.835 31.77 11.884 32.0644 11.884H32.7513V11.5897ZM30.5925 8.54769H30.936C31.3285 8.54769 31.5247 8.79301 31.5247 9.23458C31.5247 9.67616 31.2794 9.97054 30.936 9.97054H30.5925V8.54769Z" fill="#045388"/>
<path d="M35.2045 12.2275L33.4873 11.9331L33.5364 11.7368L34.0761 11.7859L34.5667 8.84207L33.6345 8.69488L33.5364 9.13645L33.291 9.08739L33.4382 8.20424L33.6835 8.2533V8.40049L36.1858 8.79301L36.2349 8.64581L36.4802 8.69488L36.3821 9.62709L36.0877 9.57803L36.1367 9.13645L35.2045 8.98926L34.7139 11.9331L35.2536 12.0312L35.2045 12.2275Z" fill="#045388"/>
<path d="M40.2091 13.8957L38.7371 13.356L38.7862 13.1106L39.2278 13.3069L40.0619 11.1481L38.0012 13.1106L37.7068 10.314L36.9218 12.3747L37.3633 12.5709L37.2652 12.7672L36.0877 12.3256L36.1858 12.1294L36.6274 12.2766L37.7068 9.43084L37.3143 9.23458L37.3633 9.03833L38.2956 9.38177L38.5409 12.1784L40.5034 10.2159L41.4847 10.6084L41.3866 10.8046L40.9941 10.6574L39.8656 13.5522L40.3072 13.6994L40.2091 13.8957Z" fill="#045388"/>
<path d="M42.8095 15.6129L40.6506 14.2391L40.7978 14.0429L41.1413 14.2882L42.8095 11.6878L42.466 11.4425L42.5641 11.2953L44.4286 12.4237L44.5267 12.3256L44.772 12.4728L44.2814 13.2088L44.0361 13.0616L44.2814 12.7181L43.3492 12.1294L42.6623 13.2088L43.3492 13.6503L43.5454 13.356L43.8398 13.5032L43.251 14.3863L43.0057 14.2391L43.202 13.8957L42.466 13.4541L41.73 14.5826L42.7604 15.1713L42.9566 14.8769L43.202 15.0241L42.8095 15.6129Z" fill="#045388"/>
<path d="M18.3756 15.7601L18.0321 16.0054L16.2658 13.6503L16.6583 13.405C17.149 13.0125 17.9831 13.2578 18.4737 13.8957C18.9643 14.5335 18.9153 15.3676 18.3756 15.7601ZM19.0625 13.4541C18.4737 12.6691 17.3943 12.4728 16.5602 13.1106L15.2355 14.0919L15.3827 14.2882L15.7261 14.0429L17.5415 16.5451C17.6396 16.5942 17.7377 16.5942 17.7868 16.6432L18.67 15.9564C19.1115 15.6129 19.3078 15.3185 19.4059 14.8279C19.504 14.3372 19.3569 13.7975 19.0625 13.4541Z" fill="#045388"/>
<path d="M47.3724 14.8769L47.2252 15.0732L47.5687 15.3676L46.0477 17.0358L46.4402 14.0429L45.6061 13.3069L45.4589 13.5032L45.7533 13.7485L45.7042 14.0919L43.7907 16.1526L43.4473 15.8582L43.3001 16.0545L44.1832 16.8886L44.3304 16.6923L43.987 16.3979L45.557 14.6807L45.2136 17.4283C45.557 17.3301 45.9005 17.232 46.2439 17.1339C46.293 17.1339 46.293 17.0848 46.3421 17.0848L47.6668 15.6129L48.0102 15.9073L48.1574 15.711L47.3724 14.8769Z" fill="#045388"/>
<path d="M51.0031 18.753L50.905 18.8511L49.384 16.8395L49.4822 16.7414L49.2859 16.4961L48.5499 17.0848L48.7462 17.3301L49.0896 17.0848L49.6293 17.8208L47.2252 19.5871L47.1271 19.3908C47.078 19.4399 46.9799 19.4399 46.9308 19.489L47.814 20.6665L48.0102 20.5193L47.6668 20.1268L50.0709 18.3114L50.6106 19.0474L50.2672 19.2927L50.4634 19.538L51.1994 18.9983L51.0031 18.753Z" fill="#045388"/>
<path d="M35.3027 55.551L35.0083 55.6001L34.812 54.6679L35.1064 54.6188L35.2045 55.0113C35.4498 55.1585 35.6952 55.2076 35.9405 55.1094C36.2839 55.0604 36.4802 54.766 36.4311 54.5207C36.3821 54.2753 36.1858 54.1281 35.6461 53.9319C35.0573 53.7356 34.9592 53.6866 34.812 53.5394C34.6158 53.4412 34.5176 53.1959 34.4686 52.9997C34.3704 52.46 34.6648 51.9693 35.3027 51.8221C35.4989 51.7731 35.6952 51.7731 35.8914 51.8221L35.8424 51.6749L36.1367 51.6259L36.333 52.509L36.0386 52.5581L35.9405 52.2147C35.6952 52.1165 35.548 52.1165 35.3517 52.1165C35.1064 52.1656 34.9101 52.4109 34.9592 52.6562C35.0083 52.8525 35.1555 52.9997 35.6952 53.1959C35.9405 53.2941 36.1367 53.3922 36.2349 53.3922C36.3821 53.4413 36.4802 53.5394 36.6274 53.6375C36.7746 53.7847 36.8727 53.9319 36.8727 54.1282C36.9708 54.7169 36.6764 55.2566 36.0386 55.4038C35.7442 55.4529 35.4989 55.4529 35.2045 55.3547L35.3027 55.551Z" fill="#045388"/>
<path d="M40.7488 53.8338L38.3937 54.766L38.2956 54.5697L38.6881 54.3735L37.5596 51.5278L37.1671 51.6749L37.118 51.4787L39.1787 50.6446L39.0806 50.4974L39.375 50.4483L39.6694 51.2334L39.424 51.3315L39.2768 50.939L38.2465 51.3806L38.6881 52.5581L39.5222 52.2637L39.375 51.8712L39.6203 51.7731L40.0128 52.7544L39.7184 52.9016L39.6203 52.509L38.7862 52.8525L39.3259 54.0791L40.4053 53.6375L40.2581 53.2941L40.5034 53.1959L40.7488 53.8338Z" fill="#045388"/>
<path d="M44.3304 51.6749C44.0361 52.0675 43.7907 52.2637 43.4473 52.46C42.466 53.0487 41.3866 52.8034 40.8469 51.9203C40.3072 51.0371 40.6016 49.9577 41.4847 49.3689C41.7791 49.1727 42.0244 49.1236 42.3679 49.0255L42.2697 48.8292L42.5151 48.682L43.0057 49.5161L42.7604 49.6633L42.5641 49.3689C42.1716 49.3199 42.0244 49.3689 41.7791 49.5652C41.1413 49.9577 41.0431 50.7427 41.4847 51.5278C41.9263 52.2637 42.7604 52.5581 43.3982 52.1656C43.6435 52.0184 43.7417 51.8712 43.8889 51.6259L43.6926 51.2824L43.9379 51.1352L44.3304 51.6749Z" fill="#045388"/>
<path d="M45.9495 46.1307L45.6061 46.4251L46.9799 47.897C47.3724 48.3386 47.4705 48.7802 47.3233 49.2217C47.2252 49.4671 47.078 49.7124 46.8327 49.8596C46.1949 50.4483 45.4589 50.4483 44.9683 49.9086L43.4963 48.2895L43.202 48.5349L43.0548 48.3386L44.1832 47.3083L44.3304 47.5045L44.0361 47.7498L45.3608 49.2217C45.7533 49.6143 45.9496 49.7615 46.2439 49.6633C46.3911 49.6143 46.5383 49.5652 46.6364 49.418C47.1271 48.9764 47.1271 48.4367 46.6855 47.9461L45.3608 46.4742L45.1155 46.9157L44.9683 46.7195L45.8514 45.8854L45.9495 46.1307Z" fill="#045388"/>
<path d="M51.9354 43.0397L51.2485 44.3644L51.0522 44.2172L51.2485 43.8738L48.5499 42.4019L48.3537 42.7453L48.1574 42.6472L48.8443 41.3224L49.0406 41.4206L48.8443 41.8131L51.5919 43.285L51.7391 42.8925L51.9354 43.0397Z" fill="#045388"/>
<path d="M53.3092 39.8015L52.7204 41.4206L52.5241 41.3224L52.6713 40.8809L49.8747 39.8015L49.5803 40.6846L49.9728 40.8318L49.8747 41.1262L49.0406 40.7827L49.1387 40.4884L49.2859 40.5374L50.1691 38.1823L50.0219 38.1333L50.12 37.888L51.0031 38.1823L50.8559 38.4277L50.4634 38.3295L50.1691 39.1636L52.9657 40.194L53.1129 39.7524L53.3092 39.8015Z" fill="#045388"/>
<path d="M54.2904 35.8763L53.996 37.3483L53.7507 37.2992L53.8489 36.9067L52.3769 36.6123L50.6106 37.3483L50.5616 37.6917L50.3162 37.6426L50.6106 36.1707L50.8559 36.2198L50.7578 36.6123L52.0826 36.0726L51.0522 35.1404L50.9541 35.582H50.7088L50.9541 34.3554H51.1994L51.1503 34.7479L52.3769 35.9254L53.947 36.2198L54.0451 35.8273L54.2904 35.8763Z" fill="#045388"/>
<path d="M46.9799 44.9041L47.1761 44.6588C47.4215 44.3644 47.7159 44.3153 48.0593 44.5607C48.4028 44.806 48.5009 45.1985 48.2556 45.4929L48.0593 45.7382L46.9799 44.9041ZM50.6597 44.9532L50.5616 45.1494C50.5125 45.2476 50.4144 45.2476 50.1691 45.2476L48.7462 45.1494C48.9425 44.6588 48.8443 44.2663 48.4027 43.9719C48.1574 43.7756 47.9121 43.7266 47.7159 43.7756C47.4705 43.8247 47.2252 43.9719 46.9799 44.3644L46.0477 45.6401L46.2439 45.7873L46.4893 45.4438L48.9915 47.2592L48.7462 47.6026L48.9425 47.7498L49.8256 46.5723L49.6293 46.4251L49.384 46.7685L48.3046 45.9345L48.4027 45.8363L49.8747 45.9345C50.2181 45.9835 50.2672 45.9345 50.4634 45.6891L50.8559 45.1494L50.6597 44.9532Z" fill="#045388"/>
<path d="M8.21933 39.1636L7.87588 37.7408L8.1212 37.6426L8.21933 38.0842L9.54405 37.7408L9.15154 36.0235L7.77775 36.367L7.87588 36.7595L7.67962 36.8086L7.28711 35.3857L7.53243 35.2876L7.63056 35.7291L10.6235 34.9932L10.5253 34.5516L10.7216 34.5025L11.065 35.9745L10.8688 36.0235L10.7707 35.631L9.44593 35.9745L9.83844 37.6426L11.2122 37.2992L11.065 36.9557L11.3104 36.8576L11.6538 38.3295L11.4576 38.3786L11.3594 38.0352L8.36652 38.7221L8.46465 39.1146L8.21933 39.1636Z" fill="#045388"/>
<path d="M11.4576 42.549C12.3898 42.1075 12.7823 41.0771 12.3898 40.194C11.9973 39.3108 10.9178 38.9183 9.98563 39.3599C9.05341 39.8015 8.6609 40.8318 9.05341 41.715C9.44593 42.549 10.4763 42.9416 11.4576 42.549ZM10.28 39.9977C11.016 39.6543 11.8501 39.8015 12.0954 40.2921C12.3407 40.7827 11.8501 41.5187 11.1141 41.8131C10.3781 42.1565 9.49499 42.0093 9.29873 41.5187C9.05341 41.0771 9.54405 40.3412 10.28 39.9977Z" fill="#045388"/>
<path d="M12.7823 47.6026L11.8501 46.327L12.0463 46.2288L12.2916 46.5723L14.1561 45.1985L11.3594 45.7873L12.6842 43.2359L10.8688 44.5607L11.1141 44.9041L10.9178 45.0513L10.2309 44.07L10.3781 43.9228L10.6235 44.2663L13.1748 42.4509L12.8804 42.1075L13.0767 41.9603L13.6164 42.7453L12.3898 45.2476L15.0392 44.7079L15.6771 45.5419L15.4808 45.6891L15.1864 45.2966L12.7332 47.112L12.9785 47.5045L12.7823 47.6026Z" fill="#045388"/>
<path d="M15.5789 50.3502L13.7145 48.633L13.8617 48.4367L14.1561 48.7311L16.2658 46.4742L15.9714 46.2288L16.1186 46.0326L17.7377 47.5045L17.8359 47.4064L18.0321 47.6026L17.4924 48.2405L17.2471 48.0442L17.5415 47.7498L16.6583 47.0139L15.8242 47.9461L16.4621 48.4858L16.7074 48.2405L16.9527 48.4367L16.2168 49.2217L16.0205 49.0255L16.2658 48.7311L15.628 48.1423L14.7448 49.1727L15.5789 49.9577L15.8242 49.6633L16.0696 49.8105L15.5789 50.3502Z" fill="#045388"/>
<path d="M18.7681 52.509L16.6583 51.1352L16.8055 50.939L17.149 51.1843L18.8662 48.633L18.5228 48.3877L18.6209 48.1914L19.8966 49.0255L19.7494 49.2217L19.4059 49.0255L17.7377 51.4787L18.67 52.1165L18.9153 51.8221L19.1606 51.9693L18.7681 52.509Z" fill="#045388"/>
<path d="M22.6441 54.1772L22.4479 54.0791L22.6441 50.3993L22.3498 50.2521L19.6512 52.8034L19.3569 52.6562L19.2587 52.8525L20.2891 53.3431L20.3872 53.1469L19.9947 52.9506L20.6816 52.3128L21.8591 52.8525L21.8101 53.7847L21.4666 53.6375L21.3685 53.8338L22.546 54.3735L22.6441 54.1772ZM20.9269 52.1165L21.9572 51.1352L21.8591 52.5581L20.9269 52.1165Z" fill="#045388"/>
<path d="M26.3239 55.4529L25.9805 55.3547L24.7539 52.4109L24.2142 54.6679L24.6558 54.766L24.5576 54.9622L23.4292 54.6679V54.4716L23.8707 54.5697L24.5576 51.8221L24.4595 51.5278L24.067 51.4296L24.1161 51.2334L25.1464 51.4787L26.2749 54.2753L26.8146 52.1165L26.373 52.0184L26.4221 51.7731L27.5996 52.0675L27.5505 52.2637L27.109 52.1656L26.3239 55.4529Z" fill="#045388"/>
<path d="M30.7888 53.981C30.7397 54.815 30.2491 55.4529 29.5622 55.4038L29.1206 55.3547L29.2187 52.4109L29.7094 52.46C30.2981 52.509 30.8378 53.1959 30.7888 53.981ZM29.8075 52.1656L28.1393 52.1165V52.3618H28.5318L28.4337 55.4529H28.0412V55.6982L29.7094 55.7473C30.2491 55.7963 30.5925 55.6491 30.985 55.3547C31.3775 55.0113 31.5738 54.5697 31.5738 54.0791C31.5738 53.0487 30.8378 52.2147 29.8075 52.1656Z" fill="#045388"/>
<path d="M41.0545 39.7744C41.0374 39.8157 41.018 39.8463 40.9933 39.8705C40.9658 39.8887 40.9335 39.8996 40.8959 39.8996C40.8884 39.9014 40.8812 39.9031 40.8743 39.9046C40.8705 39.882 40.8606 39.8643 40.8468 39.8506L40.7487 39.7524C40.8468 39.8015 40.8959 39.8015 40.9449 39.8015C40.9896 39.8015 41.0252 39.7925 41.0545 39.7744Z" fill="#045388"/>
<path d="M40.8201 39.9484C40.7859 39.9473 40.7478 39.9422 40.6906 39.9181C40.6968 39.9253 40.7023 39.9342 40.7085 39.9442C40.7183 39.9602 40.7299 39.979 40.7487 39.9977C40.7638 40.0128 40.7789 40.0326 40.7868 40.0585C40.7905 40.0543 40.7941 40.0504 40.7977 40.0468C40.8157 40.0108 40.8222 39.9781 40.8201 39.9484Z" fill="#045388"/>
<path d="M40.5691 40.3657C40.4879 40.4141 40.4136 40.419 40.3562 40.3903L40.258 40.2921C40.3071 40.3412 40.3071 40.3903 40.3071 40.4393C40.3103 40.452 40.3126 40.4641 40.3142 40.4756C40.3784 40.504 40.4673 40.5114 40.5033 40.4393C40.5281 40.4145 40.5498 40.3897 40.5691 40.3657Z" fill="#045388"/>
<path d="M40.208 40.5053C40.2054 40.5014 40.2028 40.4972 40.2001 40.4928C40.1902 40.4768 40.1786 40.458 40.1599 40.4393C40.1599 40.4638 40.1722 40.4884 40.1844 40.5129C40.1881 40.5202 40.1917 40.5274 40.195 40.5347C40.1997 40.5254 40.2041 40.5155 40.208 40.5053Z" fill="#045388"/>
<path d="M40.1092 40.7177C40.0936 40.7231 40.0777 40.7284 40.0619 40.7337C40.0814 40.7336 40.097 40.7278 40.1092 40.7177Z" fill="#045388"/>
<path d="M40.0619 40.7337C39.7186 40.8317 39.5711 40.7828 39.5221 40.6847C39.437 40.5428 39.4339 40.3846 39.4654 40.2669C39.4241 40.401 39.4266 40.4938 39.473 40.5865C39.4841 40.6087 39.4927 40.6358 39.5016 40.6641C39.5321 40.7608 39.5665 40.8698 39.7183 40.8318C39.8164 40.8318 39.9638 40.7827 40.0619 40.7337Z" fill="#045388"/>
<path d="M19.0349 35.7522C18.9322 36.201 18.7536 36.9814 18.8459 37.7466L18.8394 37.7319C18.8123 37.6702 18.7955 37.6319 18.7189 37.5936C18.5717 36.9067 18.6699 35.9745 19.0624 35.631C19.0575 35.6531 19.0522 35.6763 19.0466 35.7008L19.0349 35.7522Z" fill="#045388"/>
<path d="M16.4129 35.631C16.3148 35.0913 16.6092 33.7175 17.0998 33.4722C16.8281 33.9768 16.7099 34.4507 16.551 35.0882C16.509 35.2565 16.4642 35.4363 16.4129 35.631Z" fill="#045388"/>
<path fill-rule="evenodd" clip-rule="evenodd" d="M46.6363 34.6007L47.9611 34.2082L46.8817 35.1404L46.9307 34.797L46.342 35.1895C46.2949 35.3543 46.2591 35.4964 46.2238 35.6377L45.2135 35.9745L45.5079 36.0726L42.7603 37.888C42.564 38.0842 42.4168 38.2314 42.2206 38.3786C42.4659 38.2314 42.7603 38.0842 43.1037 37.937L45.6551 36.2689L45.606 36.5632L46.1369 35.9764C46.1244 36.0232 46.111 36.0714 46.0966 36.1217L47.1761 35.9745L46.8817 35.8764L48.2064 35.4839L47.2251 36.4652L47.2742 36.1217L46.4892 36.5633C46.4501 36.7976 46.38 37.0008 46.3035 37.2223C46.2839 37.2792 46.2639 37.3373 46.2438 37.3974L46.7835 37.1521L46.4892 37.0049L47.8139 36.7105L46.7835 37.5936L46.8326 37.2502L46.0966 37.5936C43.8397 43.6776 38.0501 47.9952 31.1812 47.9952C26.3729 47.9952 22.0553 45.8364 19.1605 42.451L19.2096 42.4019C19.7963 41.6771 19.6061 41.0494 19.4246 40.4505C19.3481 40.198 19.2732 39.9507 19.2586 39.7034C19.2096 39.7034 19.2096 39.7524 19.2096 39.7524C19.2096 39.9289 19.2387 40.1118 19.2695 40.3054C19.3587 40.8653 19.4621 41.5142 18.9152 42.3528C18.8171 42.5 18.7189 42.6472 18.5717 42.7944C18.3671 42.5898 18.2496 42.2981 18.1984 41.9815C18.2073 42.0079 18.2172 42.0335 18.2283 42.0584C18.1792 41.6168 18.5717 40.194 18.9642 39.6543C18.8661 39.7033 18.5227 40.1449 18.4245 40.4884C18.3 40.7124 18.2008 40.9997 18.1589 41.2861C18.1365 41.2491 18.1088 41.2122 18.0811 41.1753C18.0443 41.1262 18.0075 41.0772 17.983 41.0281C17.7867 41.1753 17.5414 41.3225 17.247 41.3716C17.1489 40.8809 17.1979 40.4393 17.3942 40.0959C17.36 39.9933 17.3019 39.8906 17.2533 39.8046C17.2322 39.7673 17.2128 39.7331 17.1979 39.7034C17.0262 39.7524 16.8545 39.777 16.6828 39.8015C16.511 39.826 16.3393 39.8506 16.1676 39.8996C16.227 39.6028 16.3402 39.3598 16.4748 39.1707C16.9402 38.9401 17.5155 38.7551 17.8848 38.673C17.9339 38.8202 18.0811 38.9183 18.2283 38.8692C18.4736 38.8692 18.5717 38.7221 18.5227 38.5749C18.4736 38.4277 18.3264 38.3295 18.1792 38.3295C18.032 38.3786 17.9339 38.5258 17.9339 38.673H17.8848C17.5337 38.6379 17.0821 38.7033 16.6738 38.9411C16.7012 38.9153 16.7288 38.8914 16.7564 38.8693C16.7073 38.8693 16.7073 38.8202 16.7073 38.8202C16.2657 38.8693 15.7751 38.7712 15.2844 38.624C15.5298 38.3787 15.9223 38.1333 16.3639 38.0352C16.3393 37.9861 16.3271 37.9493 16.3148 37.9125C16.3025 37.8757 16.2903 37.8389 16.2657 37.7899C15.677 37.8389 15.0882 37.6427 14.4994 37.103C14.941 36.9067 15.4807 36.8086 15.9713 36.8577C15.1863 36.7105 14.6466 36.367 14.3032 35.8273C14.8429 35.6801 15.2844 35.6801 15.677 35.7783C15.6722 35.7687 15.6679 35.7587 15.664 35.7483C15.7111 35.7947 15.7676 35.8273 15.8242 35.8273C15.9713 35.7782 16.0695 35.631 16.0204 35.5329C15.9713 35.4348 15.9223 35.3366 15.8242 35.3366C15.4807 34.8951 14.9901 34.4044 14.205 34.3554C14.6466 34.5516 15.2844 34.9441 15.726 35.3857C15.6782 35.4096 15.6303 35.4452 15.5995 35.4868C15.5937 35.4685 15.5869 35.451 15.5788 35.4348C14.8429 35.3367 14.3522 35.2386 13.9597 34.012C14.5485 34.012 15.0391 34.1101 15.3826 34.3554C15.358 34.2573 15.3458 34.1469 15.3335 34.0365C15.3212 33.9261 15.309 33.8157 15.2844 33.7176C14.7938 33.4232 14.4994 32.9816 14.4504 32.2457C14.4504 31.9415 14.4209 31.7552 14.3848 31.527C14.3743 31.4606 14.3633 31.3908 14.3522 31.3134C14.4777 31.4389 14.6032 31.5131 14.7419 31.595C14.8742 31.6732 15.0186 31.7584 15.1863 31.9022C15.1863 30.2831 15.4316 28.8112 15.8732 27.3883C16.4291 27.428 16.9529 27.3392 17.3145 27.2778C17.3997 27.2634 17.4759 27.2505 17.5414 27.2411C16.9526 27.6336 16.5601 28.3205 16.3639 29.0565C17.0998 29.1546 17.983 28.9093 18.5717 28.4677C18.0811 29.0074 17.7867 29.7434 17.6886 30.3812C18.3755 30.3322 19.0133 30.0378 19.6021 29.5962C19.5607 29.6893 19.5084 29.7978 19.4511 29.9164C19.237 30.3602 18.9539 30.947 18.9152 31.4116C19.504 31.3625 20.3871 31.0191 20.7796 30.5284C20.3871 31.2644 20.2399 31.8531 20.289 32.54C20.9268 32.4419 21.4174 32.2457 21.9572 31.7059C21.7118 32.3438 21.6628 33.1288 21.7118 33.6685C22.4478 33.4232 22.8894 33.0797 23.2819 32.3928C23.0856 32.9816 22.9875 33.7666 23.1347 34.2573C23.7725 34.061 24.116 33.6685 24.4594 33.0307C24.2141 33.6194 24.116 34.4045 24.3122 34.846C24.7047 34.6989 24.9501 34.5517 25.0482 34.4535C25.0482 34.5026 25.0604 34.5639 25.0727 34.6253C25.085 34.6866 25.0972 34.7479 25.0972 34.797C25.0972 35.2386 25.1954 35.6801 25.3426 36.0726C25.2444 36.1217 25.1463 36.2689 25.1463 36.2689C24.8029 36.6123 24.5575 36.7595 24.0669 37.0049C24.1491 37.0049 24.2466 37.0508 24.3508 37.0998C24.4333 37.1386 24.5199 37.1795 24.6066 37.2011C24.4895 37.3182 24.3278 37.3906 24.1586 37.4662C23.9733 37.5491 23.7792 37.636 23.6253 37.7899C23.7004 37.8086 23.7611 37.8489 23.8211 37.8888C23.9181 37.9532 24.0135 38.0164 24.165 37.9861C23.6253 38.3787 22.8403 38.5258 22.7422 38.5258C22.7176 38.5258 22.6778 38.5289 22.628 38.5327C22.4785 38.5442 22.2393 38.5626 22.0553 38.5258C21.81 38.4768 21.4174 38.624 21.3193 38.7221C21.1721 38.8202 21.1231 38.9674 21.1231 39.0655C20.9268 39.0165 20.5834 39.0656 20.5343 39.1637C20.487 39.211 20.4739 39.2469 20.4785 39.2988C20.4083 39.3196 20.3552 39.3427 20.338 39.3599C20.2731 39.4249 20.2726 39.4898 20.294 39.5833C20.2907 39.5912 20.289 39.5987 20.289 39.6052C20.289 39.6358 20.3081 39.7621 20.3702 39.8645C20.4123 39.9881 20.4674 40.0572 20.5834 40.0958C20.5949 40.0958 20.6065 40.0986 20.6188 40.1015C20.6583 40.1108 20.7047 40.1217 20.7796 40.0468L20.6815 40.1449C20.6324 40.194 20.6324 40.2921 20.7796 40.4884C20.9268 40.6846 21.074 40.7337 21.1721 40.6846L21.2703 40.5865C21.2212 40.6355 21.2212 40.6846 21.2212 40.7337C21.1721 40.9299 21.3193 40.979 21.4665 41.0281C21.81 41.1262 21.9572 41.1262 22.0062 40.979C22.0363 40.9414 22.0595 40.9026 22.0766 40.8638C22.1274 40.8457 22.168 40.8173 22.2025 40.7828C22.3497 40.5375 22.2515 40.2431 22.1534 40.194C22.2025 40.2921 22.2025 40.3903 22.1534 40.4884C22.1454 40.5125 22.1387 40.5365 22.1322 40.5598C22.1258 40.5828 22.1196 40.6049 22.1126 40.6254C22.1001 40.5295 22.0555 40.4503 21.9976 40.4106C22.0062 40.3999 22.0062 40.3902 22.0062 40.3902C21.9899 40.3412 21.9735 40.2812 21.9572 40.2212C21.9245 40.1013 21.8917 39.9814 21.859 39.9487C21.8375 39.9917 21.8254 40.0347 21.8145 40.0736C21.8005 40.1234 21.7884 40.1664 21.7609 40.194L21.6137 40.3412C21.7118 40.3902 21.81 40.4393 21.9081 40.4393C21.9383 40.4393 21.9592 40.4346 21.9737 40.4282C22.0054 40.5137 21.9999 40.5991 21.9572 40.6846C21.9486 40.7017 21.9415 40.7203 21.9347 40.7394C21.9262 40.7379 21.9174 40.736 21.9081 40.7337C21.81 40.7337 21.6628 40.6847 21.5646 40.6356C21.4665 40.6356 21.4665 40.4884 21.5156 40.3903C21.5156 40.2921 21.5646 40.2431 21.6137 40.194C21.5646 40.2185 21.5278 40.2431 21.491 40.2676C21.4542 40.2921 21.4174 40.3167 21.3684 40.3412C21.3193 40.3903 21.1721 40.4393 21.1231 40.3412C21.0656 40.2837 21.0249 40.2262 20.9913 40.1786C20.9675 40.145 20.9471 40.1162 20.9268 40.0959C20.9006 40.0565 20.8989 40.0172 20.9124 39.9797C20.926 39.9729 20.939 39.9666 20.9508 39.9609C20.9599 39.9565 20.9683 39.9524 20.9759 39.9487C20.958 39.9487 20.9414 39.9495 20.9258 39.9509C20.9773 39.8607 21.1071 39.785 21.1721 39.7524C21.0595 39.7524 20.9986 39.7731 20.9467 39.7907C20.8855 39.8115 20.8367 39.828 20.7306 39.8015C20.6632 39.8015 20.6131 39.7668 20.5765 39.7173C20.6175 39.8283 20.6726 39.864 20.7796 39.8996C20.8215 39.8996 20.8634 39.8996 20.9359 39.8691C20.9297 39.8763 20.9241 39.8852 20.918 39.8952C20.9081 39.9112 20.8965 39.93 20.8777 39.9487C20.8777 39.9516 20.8774 39.9546 20.8768 39.9578C20.8415 39.9645 20.8111 39.9741 20.7819 39.9833C20.7108 40.0056 20.6467 40.0258 20.5343 39.9977C20.4606 39.9793 20.4076 39.9262 20.3702 39.8645C20.3589 39.8313 20.3484 39.794 20.338 39.7524C20.3305 39.7224 20.323 39.6947 20.3161 39.6689C20.3076 39.6377 20.3 39.6094 20.294 39.5833C20.3152 39.5317 20.4002 39.458 20.4852 39.458C20.4862 39.4576 20.4871 39.4571 20.488 39.4567C20.4954 39.4531 20.5028 39.4501 20.5102 39.4476C20.5722 39.4263 20.6325 39.4395 20.6787 39.4497C20.6991 39.4541 20.7168 39.458 20.7306 39.458L20.9268 39.2618L20.9268 39.3109C20.9268 39.3599 20.9759 39.4581 21.1231 39.5562C21.2212 39.5562 21.2703 39.5562 21.1721 39.5071C21.1231 39.4581 21.0249 39.0655 21.2212 38.9674C21.3684 38.8202 21.5156 38.7712 21.7609 38.7712C21.8427 38.7712 21.9299 38.7766 22.0171 38.7821C22.1916 38.793 22.366 38.8039 22.4969 38.7712C22.595 38.7712 22.8894 38.7712 22.9384 38.8202C22.9903 38.8548 23.0239 38.9382 23.0607 39.0295C23.1283 39.1972 23.2067 39.3917 23.4291 39.3599C23.5023 39.339 23.5911 39.3159 23.6903 39.29C24.0564 39.1946 24.564 39.0623 24.9501 38.8693C24.8999 38.9445 24.8882 39.0325 24.8757 39.1267C24.8636 39.217 24.8509 39.313 24.8029 39.409C25.0685 39.3559 25.2334 39.2452 25.4145 39.1238C25.5679 39.0209 25.7329 38.9102 25.9804 38.8202C25.9313 38.9184 25.9068 39.0042 25.8823 39.0901C25.8577 39.1759 25.8332 39.2618 25.7841 39.3599C26.0156 39.3085 26.247 39.1897 26.4996 39.06C26.729 38.9422 26.9759 38.8155 27.2561 38.7221C27.2561 38.7712 27.2561 38.7712 27.3051 38.7712C27.5014 38.8202 27.6976 38.8693 27.8448 38.9184C27.5014 39.2127 27.0598 39.9978 26.8636 40.7337C26.8636 40.7337 27.1579 40.7337 27.5995 40.5865C27.5014 40.979 27.4033 41.3716 27.4033 41.8622C27.4033 41.8622 27.7467 41.8131 28.2373 41.5187C28.1883 41.9603 28.1883 42.3528 28.2864 42.8435C28.2864 42.8435 28.6789 42.6963 29.1696 42.2056C29.2186 42.6472 29.3168 43.0888 29.513 43.5304C29.513 43.5304 29.8565 43.3341 30.1999 42.7944C30.4943 43.6776 30.8868 44.0701 30.8868 44.0701C31.1812 43.6285 31.4265 43.1869 31.5737 42.7453C31.9662 43.3341 32.3097 43.5794 32.3097 43.5794C32.4569 43.1379 32.604 42.6963 32.6531 42.2547C33.1437 42.6963 33.5363 42.8925 33.5363 42.8925C33.6344 42.451 33.6344 42.0094 33.5853 41.5678C34.076 41.8622 34.4194 41.9113 34.4194 41.9113C34.4194 41.4697 34.3213 41.0281 34.2232 40.6356C34.6647 40.7828 34.9591 40.7828 34.9591 40.7828C34.7629 40.0468 34.4194 39.4581 33.9778 38.9674C34.125 38.8693 34.3213 38.8202 34.5666 38.7712C34.5666 38.7466 34.5666 38.7344 34.5727 38.7282C34.5789 38.7221 34.5911 38.7221 34.6157 38.7221C34.9618 38.802 35.2356 38.9541 35.4843 39.0922C35.6939 39.2086 35.8856 39.3151 36.0876 39.3599C36.0028 39.2469 35.9831 39.1502 35.963 39.051C35.9481 38.9779 35.9329 38.9035 35.8913 38.8202C36.1047 38.9056 36.2531 39.0002 36.3971 39.092C36.5842 39.2113 36.7638 39.3258 37.0689 39.409C37.0198 39.3109 37.0075 39.225 36.9953 39.1391C36.983 39.0533 36.9707 38.9674 36.9217 38.8693C37.2371 38.9906 37.5164 39.0519 37.7658 39.1066C38.0207 39.1626 38.2442 39.2117 38.4427 39.3109C38.7669 39.4498 38.8287 39.1953 38.8759 39.0013C38.8787 38.9897 38.8815 38.9784 38.8842 38.9674C38.8931 38.9497 38.9019 38.9272 38.9117 38.9025C38.9558 38.7903 39.0178 38.6328 39.1786 38.673C39.2713 38.673 39.3968 38.6621 39.5292 38.6506C39.5616 38.6477 39.5944 38.6449 39.6272 38.6421C39.5617 38.6391 39.4992 38.6346 39.4469 38.6309C39.3933 38.627 39.3503 38.624 39.3258 38.624C39.2809 38.6165 39.2325 38.6101 39.1809 38.6034C38.8944 38.5658 38.5075 38.515 38.0501 38.1824C38.1854 38.1824 38.261 38.1376 38.3427 38.0893C38.4092 38.0499 38.4798 38.0082 38.5898 37.9861C38.4502 37.8698 38.2775 37.7865 38.1083 37.705C37.9207 37.6146 37.7375 37.5263 37.6086 37.3974C37.7318 37.3666 37.855 37.3164 37.966 37.2713C38.0319 37.2444 38.0935 37.2194 38.1483 37.2011C37.7558 37.103 37.3632 36.7595 37.0198 36.4161L36.8235 36.2198C36.9707 35.8273 37.0198 35.3857 37.0689 34.9442C37.0689 34.8951 37.0811 34.8338 37.0934 34.7724C37.1057 34.7111 37.1179 34.6498 37.1179 34.6007C37.3142 34.797 37.6576 34.9932 37.903 35.0423C37.9504 34.7099 38.0439 33.9639 37.7385 33.2936C38.0325 33.8889 38.4635 34.2152 39.0314 34.4045C39.1786 33.9629 39.0314 33.1288 38.8352 32.54C39.2277 33.2269 39.7183 33.5213 40.4543 33.7666C40.5033 33.2269 40.3562 32.54 40.1108 31.8531C40.6505 32.3928 41.1412 32.5891 41.779 32.6872C41.779 32.0003 41.6318 31.4116 41.2884 30.6756C41.6809 31.1662 42.4168 31.6078 43.0547 31.6569C43.1528 31.0191 42.7603 30.0868 42.4168 29.6943C42.9075 30.185 43.6434 30.5775 44.3794 30.5284C44.3303 29.7924 44.036 29.1056 43.4963 28.6149C44.036 29.0074 45.0172 29.3018 45.7532 29.1056C45.6551 28.4187 45.3116 27.8299 44.3794 27.2902C44.4735 27.3036 44.5935 27.3318 44.7332 27.3647C45.1031 27.4516 45.6115 27.5711 46.1457 27.5355C46.5873 28.9584 46.8326 30.5284 46.8326 32.0985V32.7363L47.3723 32.1475L47.0289 32.0985L48.2064 31.3625L47.5195 32.54L47.4704 32.1966L46.7835 32.9816C46.7581 33.1341 46.7459 33.2997 46.7332 33.4716C46.7213 33.6317 46.7091 33.7973 46.6854 33.9629L47.2742 33.4723L46.9307 33.3741L48.2064 32.7854L47.3723 33.9138L47.3232 33.5704L46.5873 34.1591C46.5382 34.4535 46.4892 34.7479 46.4401 34.9932L46.9307 34.6989L46.6363 34.6007ZM40.0066 38.6255C40.1944 38.6381 40.4123 38.7291 40.5033 38.8202C40.6996 38.9674 40.6505 39.2618 40.5524 39.3599C40.4543 39.4581 40.5033 39.4581 40.6015 39.409C40.6979 39.3768 40.7312 39.3236 40.7565 39.2631C40.8082 39.2663 40.8766 39.2766 40.9449 39.3108C41.0343 39.3555 41.1237 39.4002 41.1389 39.482C41.1342 39.4997 41.1289 39.5184 41.1233 39.5383C41.1136 39.5729 41.1029 39.6112 41.0921 39.6543C41.0864 39.677 41.0807 39.6978 41.0749 39.7168C41.0512 39.7326 41.0244 39.7449 40.994 39.7524C40.8816 39.7805 40.8175 39.7604 40.7464 39.738C40.6933 39.7213 40.6363 39.7034 40.5524 39.7034C40.56 39.7072 40.5684 39.7112 40.5774 39.7156C40.6556 39.7533 40.782 39.8143 40.8133 39.9129C40.759 39.9157 40.7224 39.9033 40.6797 39.8888C40.6278 39.8712 40.5669 39.8505 40.4543 39.8505C40.5424 39.8946 40.7493 40.0178 40.7194 40.1491C40.6885 40.1925 40.6513 40.2423 40.6015 40.2921C40.5524 40.3903 40.4543 40.3412 40.3562 40.2921C40.3071 40.2431 40.209 40.194 40.1108 40.145C40.1296 40.1824 40.1412 40.2128 40.1511 40.2387C40.1671 40.2806 40.1786 40.3109 40.209 40.3412C40.2267 40.359 40.2316 40.3895 40.2283 40.4237C40.1934 40.4044 40.1644 40.3851 40.1354 40.3657C40.1049 40.3454 40.0742 40.3249 40.0367 40.3046L40.0618 40.2921C40.0243 40.2546 39.994 40.2315 39.9681 40.2117C39.9262 40.1797 39.8958 40.1565 39.8655 40.0958C39.8165 39.9977 39.7674 39.8996 39.7674 39.8505C39.7183 39.8996 39.6693 40.1449 39.6693 40.3412C39.6693 40.3601 39.6693 40.3718 39.6749 40.3789C39.6839 40.3902 39.7072 40.3902 39.7674 40.3902C39.8546 40.3902 39.9417 40.3515 40.0289 40.3085C40.072 40.3526 40.1108 40.4011 40.1108 40.4884C40.1272 40.521 40.1381 40.5591 40.1417 40.5954C40.0443 40.6413 39.9087 40.6847 39.8165 40.6847C39.6616 40.6847 39.6289 40.5931 39.5979 40.5062C39.5897 40.483 39.5815 40.4601 39.5711 40.4393C39.5221 40.2921 39.5221 40.194 39.5711 40.0959C39.5336 40.1147 39.4961 40.1693 39.4723 40.2434C39.3744 40.2936 39.2771 40.5871 39.4239 40.8318C39.5221 40.9299 39.6693 40.979 39.9636 40.8809C40.1293 40.8395 40.225 40.7981 40.2214 40.6682C40.2663 40.641 40.3002 40.6056 40.3121 40.5537C40.4062 40.5655 40.5284 40.5041 40.6505 40.3412C40.7336 40.2581 40.7727 40.1927 40.7865 40.1411C40.8463 40.0524 40.872 39.9869 40.8757 39.9385C40.926 39.9199 40.9635 39.8998 40.9933 39.8705C41.036 39.8422 41.0674 39.7961 41.0899 39.7453C41.1129 39.7206 41.1314 39.6878 41.1477 39.6469C41.1368 39.6615 41.1246 39.6753 41.1113 39.6879C41.1333 39.6172 41.1412 39.5464 41.1412 39.5071C41.1412 39.4983 41.1404 39.49 41.1389 39.482C41.1634 39.3902 41.1733 39.326 41.1412 39.2618C41.0921 39.2127 40.994 39.1636 40.8959 39.1636L40.9456 39.1245C40.9856 39.1315 41.0227 39.1434 41.043 39.1637C41.1412 39.2127 41.2393 39.3109 41.2393 39.3599C41.2393 39.3753 41.2381 39.3943 41.2353 39.4155C41.3008 39.2777 41.3209 39.1962 41.2393 39.1146C41.2393 39.0861 41.1896 39.0742 41.1287 39.0595C41.1045 39.0537 41.0786 39.0475 41.0534 39.0396L45.5079 35.5329V35.7782L45.606 35.6455V35.7292L46.4401 34.6007L45.1644 35.1404L45.175 35.1435L45.0663 35.1894L45.4097 35.2876L40.7487 38.9674L40.7323 39.0165H40.6996C40.6996 38.939 40.669 38.8615 40.632 38.8082L43.533 33.0061L43.6434 33.2269L43.6499 33.1907L43.6925 33.2759L43.9378 31.9512L43.8537 32.0493L43.8888 31.8531L43.0056 32.8835L43.1573 32.8618L43.0547 32.9816L43.3018 32.9404L42.8735 33.9L40.5226 38.6829C40.3716 38.6258 40.1807 38.5904 40.0127 38.624C40.0107 38.6245 40.0086 38.625 40.0066 38.6255ZM15.3335 32.2947C15.5298 31.7059 15.9713 31.2643 16.3148 31.1171C16.6582 32.0493 16.462 33.0306 15.7751 33.6194C15.8242 33.325 15.726 33.0306 15.6279 32.7853C15.726 32.2947 15.9223 31.7059 16.1185 31.4115C15.8732 31.6078 15.6279 32.1475 15.5298 32.5891C15.4807 32.4909 15.4316 32.3928 15.3335 32.2947ZM45.9985 32.2456L46.0966 32.5891L46.6364 31.3134L45.5079 32.1475H45.8513L42.8584 35.9254C42.6131 36.2689 42.3678 36.6614 42.1715 37.0048C42.3187 36.7595 42.515 36.5632 42.7112 36.367L45.9985 32.2456ZM39.9146 39.5071C40.0127 39.6543 40.0127 39.8996 39.9636 40.0468C40.2224 40.0036 40.2916 39.7709 40.3379 39.6153C40.3443 39.5939 40.3502 39.5739 40.3562 39.5561C40.258 39.458 40.0127 39.458 39.9146 39.5071ZM39.5711 39.3108C39.6202 39.4089 39.6693 39.5071 39.8655 39.5071C39.7183 39.6052 39.5711 39.6052 39.5221 39.5561C39.473 39.5071 39.473 39.4089 39.473 39.3108C39.473 39.1636 39.5221 39.2127 39.5711 39.3108ZM43.7416 33.9138L43.3981 33.9628L44.4775 32.9816L44.036 34.3063L43.9378 34.0119L41.3865 37.8389L41.3375 37.8879C41.5337 37.4954 41.73 37.1029 41.9262 36.6614L43.7416 33.9138ZM43.1528 36.9067C42.8584 37.152 42.564 37.3973 42.3187 37.5936C42.4266 37.4588 42.5492 37.324 42.6867 37.1729L42.6873 37.1723C42.7997 37.0487 42.9224 36.9138 43.0547 36.7595L45.8023 34.2082L45.4588 34.1591L46.6854 33.5213L45.9495 34.6988L45.9004 34.3554L43.1528 36.9067ZM45.3607 37.0048L41.5337 38.9183C41.4846 38.9674 41.4356 39.0164 41.3865 39.0164L41.4356 39.0655C41.4356 39.0655 41.4356 39.1146 41.4846 39.1146L45.4588 37.1029L45.4098 37.4464L46.4401 36.5632L45.1154 36.8576L45.3607 37.0048ZM39.4485 41.0281C39.473 41.0403 39.4975 41.0526 39.5221 41.0771L38.7861 42.549L38.8842 42.7944L38.1483 44.3644L38.0011 43.9719L37.6086 44.07L38.4427 42.5L38.688 42.4019L39.3749 40.979C39.3994 41.0035 39.4239 41.0158 39.4485 41.0281ZM39.1786 40.4393C39.1786 40.5374 39.1786 40.5865 39.2277 40.6846L38.3936 41.6659L38.1973 41.715L37.167 43.0887L37.1179 42.7453L36.7745 42.7944H36.7254L38.0501 41.4696L38.2955 41.4206L39.1786 40.4393ZM40.8959 38.7221C40.9565 38.6614 41.0359 38.6008 41.1456 38.5169C41.2134 38.4652 41.2929 38.4044 41.3865 38.3295L45.9004 33.4231L45.9495 33.7666L46.5873 32.54L45.4098 33.2759L45.7532 33.325L41.043 38.4767C41.0185 38.5258 40.994 38.5626 40.9695 38.5994C40.9449 38.6362 40.9204 38.673 40.8959 38.7221ZM38.5408 40.8809L36.8726 42.0584H36.6764L35.5969 42.9906L35.5479 42.6962L35.1554 42.5981L36.4801 41.764L36.6273 41.6659L36.9217 41.715L39.0314 40.3412C38.9908 40.3818 38.9334 40.4476 38.8661 40.5248L38.8657 40.5252L38.8654 40.5256C38.7702 40.6346 38.6555 40.7661 38.5408 40.8809ZM35.4988 42.2056L36.1857 41.8131L36.7745 41.3715L36.9707 41.4206C36.9707 41.4206 38.4917 40.4884 38.8842 40.243C38.9333 40.243 38.9333 40.194 38.9333 40.194L36.9217 41.1753L36.6764 41.0771L35.0572 41.8131L35.4007 41.9112L35.4988 42.2056ZM16.9403 37.4409C16.8197 37.5106 16.7667 37.6349 16.8054 37.7898C16.8545 37.9861 17.0017 38.0842 17.1979 38.0352C17.3942 38.0352 17.4923 37.8389 17.4433 37.6426C17.3942 37.4464 17.247 37.3483 17.0508 37.3973C17.0101 37.4075 16.9737 37.4218 16.9419 37.44C16.457 37.1506 16.1139 37.0546 15.4807 37.152C16.064 37.2006 16.5028 37.2492 16.9403 37.4409ZM18.0811 39.458C17.6395 39.8015 17.2961 40.3412 17.247 40.8318C17.4433 40.4393 17.8848 39.7524 18.3264 39.3599C18.5717 39.1146 18.4245 39.2127 18.0811 39.458ZM16.462 35.7782C16.6092 35.7782 16.7564 35.8273 16.8054 36.0235C16.8054 36.1707 16.7073 36.3179 16.5601 36.367C16.4129 36.367 16.2657 36.3179 16.2167 36.1217C16.2167 35.9745 16.2657 35.8273 16.462 35.7782ZM19.4058 36.416C19.4058 36.2525 19.4004 36.0944 19.3949 35.9363C19.384 35.6201 19.3731 35.3039 19.4058 34.9441C18.5227 35.631 18.1792 36.7595 18.5717 37.5445H18.4736C18.2774 37.5936 18.1792 37.7408 18.2283 37.937C18.2774 38.1333 18.4245 38.2314 18.6208 38.1823C18.7887 38.1404 18.8848 38.0266 18.8783 37.8717C19.0188 37.6835 19.1142 37.5404 19.2096 37.3973C19.2341 37.4709 19.2464 37.5445 19.2586 37.6181C19.2709 37.6917 19.2832 37.7653 19.3077 37.8389C19.3568 37.152 19.553 36.4651 20.289 36.0235C19.7493 36.7104 19.4549 37.4464 19.4058 38.0352C19.4997 37.9179 19.6215 37.823 19.7533 37.7204C20.1729 37.3939 20.6932 36.9889 20.7306 35.5329C20.2399 35.631 19.7002 35.9254 19.4058 36.416ZM19.6021 38.1333C19.7983 38.0842 19.9455 38.1823 19.9946 38.3786C20.0437 38.5258 19.9455 38.7221 19.7493 38.7711C19.553 38.8202 19.4058 38.7221 19.3568 38.5258C19.3077 38.3295 19.4058 38.1823 19.6021 38.1333ZM19.8965 39.3599C19.8474 39.1636 19.7002 39.0655 19.504 39.1146C19.3077 39.1636 19.2096 39.3108 19.2586 39.5071C19.3077 39.7033 19.4549 39.8015 19.6511 39.7524C19.8474 39.7033 19.9455 39.5071 19.8965 39.3599ZM17.1979 36.367C17.1489 35.7782 17.2961 35.0423 17.983 34.5025C18.6872 35.9482 18.2714 36.4977 17.9413 36.9338C17.8344 37.075 17.7366 37.2043 17.6886 37.3483C17.5414 36.6614 17.6886 35.582 17.7867 34.9932C17.4923 35.4348 17.3942 35.9254 17.4433 36.4651V36.6123C17.4433 36.8576 17.4923 37.1029 17.5414 37.2992C17.4433 37.152 17.3451 37.0048 17.2961 36.8086C17.2715 36.8086 17.2593 36.8208 17.247 36.8331C17.2347 36.8454 17.2225 36.8576 17.1979 36.8576C17.0998 36.9067 16.9526 36.8086 16.9036 36.6614C16.8545 36.5632 16.9526 36.416 17.0998 36.367H17.1979ZM20.6815 38.8202C20.6324 38.673 20.4852 38.5749 20.3871 38.6239C20.2399 38.673 20.1418 38.8202 20.1908 38.9183C20.2399 39.0655 20.3871 39.1636 20.4852 39.1146C20.6324 39.1146 20.6815 38.9674 20.6815 38.8202ZM19.0133 38.5749C19.1114 38.5749 19.2096 38.673 19.2586 38.7711C19.2586 38.8692 19.2096 39.0164 19.0624 39.0164C18.9642 39.0164 18.8661 38.9183 18.8171 38.8202C18.8171 38.7221 18.9152 38.6239 19.0133 38.5749ZM15.677 33.8157C15.8242 33.7666 15.9713 33.8647 16.0204 34.0119C16.0695 34.1591 15.9713 34.3063 15.7751 34.3554C15.6279 34.4044 15.4316 34.3063 15.4316 34.1591C15.4316 34.0119 15.5298 33.8647 15.6279 33.8157H15.677ZM15.6095 33.7513L15.6279 33.8157C15.3826 33.2759 14.8919 32.54 14.4994 32.0003C15.2598 32.523 15.4218 33.0918 15.6095 33.7513ZM16.8545 36.8086C16.8054 36.7104 16.7073 36.6123 16.6092 36.6123C16.5601 36.6123 16.511 36.6614 16.462 36.7104C15.8407 36.1779 15.38 36.127 15.0072 36.0859C14.9678 36.0815 14.9294 36.0773 14.8919 36.0726C14.9386 36.0913 15.0048 36.1152 15.0848 36.1442L15.0853 36.1444L15.0858 36.1446C15.4265 36.268 16.0161 36.4817 16.4129 36.7595C16.3639 36.8086 16.3639 36.8576 16.3639 36.9067C16.4129 37.0048 16.511 37.1029 16.6092 37.1029C16.8054 37.0048 16.9036 36.9067 16.8545 36.8086ZM17.8848 38.2314C17.8358 38.1333 17.7376 38.0352 17.6395 38.0352C17.5414 38.0352 17.4923 38.0842 17.4433 38.1333C16.8545 38.0352 16.1676 38.1333 15.6279 38.4767C16.2657 38.3295 16.9036 38.1823 17.4433 38.1823V38.2805C17.4923 38.3786 17.5905 38.4767 17.6886 38.4767C17.8358 38.4277 17.9339 38.3295 17.8848 38.2314ZM17.3942 32.9816C16.3639 33.4231 15.9223 34.6988 16.4129 35.631C16.5246 35.4859 16.6565 35.3662 16.7892 35.2458C17.2394 34.8373 17.6974 34.4218 17.3942 32.9816ZM22.4969 39.9977C23.7725 40.979 24.5575 42.3528 24.7047 43.4322C24.5085 43.3341 24.2141 43.1869 24.0669 43.2359C23.8706 42.1075 23.3309 41.1753 22.3497 40.3902C22.3987 40.194 22.4478 40.0958 22.4969 39.9977ZM21.6628 39.6052C21.5646 39.5561 21.3684 39.5561 21.2703 39.6543C21.277 39.6744 21.2837 39.6974 21.2909 39.7221L21.2911 39.7227C21.3366 39.8781 21.4024 40.1026 21.6137 40.1449C21.5646 39.9977 21.5646 39.7524 21.6628 39.6052ZM21.7609 39.6543C21.9572 39.6543 22.0062 39.5561 22.0553 39.458C22.1043 39.3599 22.1534 39.3108 22.1534 39.458C22.1534 39.6052 22.1534 39.6543 22.1043 39.7033C22.0948 39.7033 22.0817 39.7052 22.0655 39.7074C21.9983 39.7168 21.8796 39.7334 21.7609 39.6543Z" fill="#045388"/>
<path d="M37.7067 33.2269C37.7178 33.2491 37.7284 33.2713 37.7385 33.2936C37.7277 33.2717 37.7171 33.2495 37.7067 33.2269Z" fill="#045388"/>
<path d="M20.862 40.0068C20.7621 40.0649 20.6616 40.1543 20.7306 40.2921C20.7509 40.3124 20.7712 40.3412 20.795 40.3748C20.8287 40.4224 20.8694 40.48 20.9268 40.5374C20.9759 40.6355 21.074 40.5865 21.1721 40.5374C21.1861 40.5234 21.2041 40.5094 21.2249 40.4954C21.1485 40.4717 21.0622 40.4072 20.9759 40.2921C20.838 40.1543 20.8454 40.0648 20.862 40.0068Z" fill="#045388"/>
<path d="M21.3757 40.488C21.3604 40.5278 21.3487 40.5572 21.3193 40.5865C21.3193 40.6355 21.3193 40.7827 21.3684 40.8318C21.4665 40.8809 21.6137 40.9299 21.7118 40.9299C21.7841 40.9299 21.8298 40.91 21.861 40.8799C21.8035 40.8724 21.7379 40.8569 21.6628 40.8319C21.4665 40.7828 21.3684 40.7337 21.4174 40.5375C21.4174 40.5129 21.4297 40.4884 21.442 40.4639C21.4542 40.4393 21.4665 40.4148 21.4665 40.3903C21.4478 40.409 21.4362 40.4278 21.4263 40.4438C21.4116 40.4675 21.4007 40.4852 21.3757 40.488Z" fill="#045388"/>
<path d="M20.9759 39.8506C20.9615 39.8577 20.9482 39.8639 20.9359 39.8691C20.9457 39.8576 20.9573 39.8506 20.9759 39.8506Z" fill="#045388"/>
<path d="M26.1774 27.6823L26.2264 27.3389L25.932 27.1917H26.2755L26.3246 26.8482L26.4717 27.1426L26.7661 27.0935L26.5208 27.2898L26.668 27.5842L26.3736 27.3879L26.1774 27.6823Z" fill="white"/>
<path d="M28.189 27.3879L27.8946 27.1917L27.6493 27.437L27.7474 27.1426L27.453 26.9954L27.7965 26.9463V26.652L27.9437 26.9463L28.2381 26.8973L28.0418 27.0935L28.189 27.3879Z" fill="white"/>
<path d="M29.6609 27.2898L29.4156 27.0935L29.1703 27.3389L29.2684 26.9954L28.974 26.7992H29.2684L29.3665 26.5048L29.4647 26.7992H29.759L29.5137 26.9463L29.6609 27.2898Z" fill="white"/>
<path d="M31.1328 27.2407L30.8875 27.0445L30.6422 27.2407L30.7403 26.9463L30.495 26.7501H30.7894L30.8875 26.4557L30.9856 26.7501H31.28L31.0347 26.9463L31.1328 27.2407Z" fill="white"/>
<path d="M35.3523 27.3879L35.107 27.5842L35.2542 27.2898L35.0089 27.0935L35.3523 27.1426L35.4505 26.8482L35.4995 27.1917H35.843L35.4995 27.3389L35.5977 27.6823L35.3523 27.3879Z" fill="white"/>
<path d="M33.7823 27.0935L33.4879 26.8973L33.8314 26.9463L33.9295 26.652L33.9785 26.9463L34.322 26.9954L34.0276 27.1426L34.1257 27.437L33.8804 27.1917L33.6351 27.3879L33.7823 27.0935Z" fill="white"/>
<path d="M32.2613 26.9463L31.9669 26.7992H32.3104L32.4085 26.5048L32.5066 26.7992H32.801L32.5557 26.9954L32.6048 27.3389L32.4085 27.0935L32.1141 27.2898L32.2613 26.9463Z" fill="white"/>
<path d="M26.3736 30.0374L26.4717 29.743L26.1774 29.5958L26.5208 29.5467V29.2524L26.668 29.5467L26.9624 29.4486L26.7171 29.6939L26.8643 29.9883L26.6189 29.8411L26.3736 30.0374Z" fill="white"/>
<path d="M28.3362 29.8411L28.0418 29.6449L27.7965 29.8902L27.8946 29.5467L27.6002 29.3995H27.9437L27.9927 29.0561L28.0909 29.3505H28.4343L28.189 29.5467L28.3362 29.8411Z" fill="white"/>
<path d="M29.759 29.6939L29.5137 29.5467L29.2684 29.743L29.3665 29.3995L29.0721 29.2524H29.4156L29.4647 28.958L29.5628 29.2524L29.9062 29.2033L29.6118 29.3995L29.759 29.6939Z" fill="white"/>
<path d="M31.1819 29.6939L30.9366 29.4486L30.6913 29.6939L30.7894 29.3995L30.5441 29.2033H30.8384L30.9366 28.9089L31.0347 29.2033H31.3291L31.0838 29.3995L31.1819 29.6939Z" fill="white"/>
<path d="M35.2542 29.8411L35.0089 29.9883L35.1561 29.6939L34.9108 29.4977L35.2051 29.5467L35.3523 29.2524V29.5958H35.6958L35.4014 29.743L35.4995 30.0864L35.2542 29.8411Z" fill="white"/>
<path d="M33.6842 29.5467L33.4388 29.3505L33.7823 29.3995L33.8804 29.0561L33.9295 29.3995H34.2729L33.9785 29.5467L34.0767 29.8902L33.8314 29.6449L33.537 29.8411L33.6842 29.5467Z" fill="white"/>
<path d="M32.2613 29.3995L31.9669 29.2033L32.3104 29.2524L32.4085 28.958L32.5066 29.2524H32.801L32.5066 29.4486L32.6048 29.743L32.3594 29.5467L32.1141 29.6939L32.2613 29.3995Z" fill="white"/>
<path d="M27.1096 28.6145L27.1586 28.3201L26.8643 28.1729H27.2077L27.2568 27.8295L27.404 28.1239L27.6983 28.0748L27.453 28.2711L27.6002 28.5655L27.3058 28.3692L27.1096 28.6145Z" fill="white"/>
<path d="M25.6867 28.8598L25.7358 28.5164L25.4414 28.4183L25.7849 28.3692V28.0258L25.932 28.3201L26.2755 28.2711L26.0302 28.5164L26.1774 28.7617L25.883 28.6145L25.6867 28.8598Z" fill="white"/>
<path d="M29.0231 28.4673L28.7778 28.2711L28.5324 28.4673L28.6306 28.1729L28.3362 28.0258L28.6796 27.9767L28.7287 27.6823L28.8268 27.9767L29.1703 27.9276L28.8759 28.1239L29.0231 28.4673Z" fill="white"/>
<path d="M30.495 28.3692L30.2006 28.1729L29.9553 28.3692L30.0534 28.0748L29.759 27.8786H30.1025L30.2006 27.5842L30.2497 27.8786H30.5931L30.3478 28.0748L30.495 28.3692Z" fill="white"/>
<path d="M31.8688 28.3692L31.6235 28.1729L31.3782 28.3692L31.5253 28.0748L31.231 27.8786H31.5253L31.6725 27.5842L31.7216 27.9276L32.065 27.8786L31.7707 28.0748L31.8688 28.3692Z" fill="white"/>
<path d="M35.9411 28.6145L35.6467 28.8108L35.843 28.5164L35.5486 28.2711L35.892 28.3692L36.0392 28.0748L36.0883 28.3692L36.3827 28.4183L36.0883 28.5655L36.1374 28.9089L35.9411 28.6145Z" fill="white"/>
<path d="M34.3711 28.3201L34.1257 28.0748L34.4692 28.1239L34.5673 27.8295L34.6164 28.1729H34.9598L34.6164 28.3201L34.7145 28.6636L34.5182 28.4183L34.2239 28.6145L34.3711 28.3201Z" fill="white"/>
<path d="M32.9482 28.1729L32.7029 27.9767H32.9973L33.1445 27.6823L33.1935 28.0258H33.4879L33.1935 28.1729L33.2916 28.4673L33.0463 28.2711L32.801 28.4673L32.9482 28.1729Z" fill="white"/>
</svg>
