<svg width="424" height="48" viewBox="0 0 424 48" fill="none" xmlns="http://www.w3.org/2000/svg">
<path d="M36.4414 43.1469L63.1552 16.4291C63.6938 15.8921 63.9966 15.1628 63.9966 14.4022C63.9966 13.6417 63.6938 12.9124 63.1552 12.3754L56.1382 5.35442C55.2738 4.48721 54.0995 4 52.875 4.00049H15.9865C14.761 4.00049 13.5857 4.48773 12.7192 5.35442L5.67799 12.3876C5.14037 12.9143 4.83406 13.6331 4.82631 14.3857C4.81885 15.1384 5.11059 15.8632 5.63746 16.4007L5.67799 16.4412L32.3918 43.1591C32.9287 43.6977 33.658 44.0005 34.4186 44.0005C35.1792 44.0005 35.9085 43.6977 36.4454 43.1591L36.4414 43.1469Z" fill="url(#paint0_linear_120_368)"/>
<path opacity="0.4" d="M12.5039 5.56926C13.4687 4.59972 14.8573 4.18207 16.1968 4.45856L62.5872 13.8672C63.3538 14.0257 63.8483 14.7738 63.6938 15.5413C63.6746 15.6376 63.6447 15.7314 63.6046 15.821C64.2577 14.7042 64.0726 13.2871 63.1547 12.3754L56.1378 5.35442C55.2733 4.48721 54.099 4 52.8745 4.00049H15.986C14.7605 4.00071 13.5852 4.48773 12.7188 5.35442L12.5039 5.56926Z" fill="url(#paint1_linear_120_368)"/>
<path opacity="0.4" d="M53.7779 6.05572L51.0781 11.5403L62.5865 13.8672C63.3532 14.0257 63.8477 14.7739 63.6932 15.5413C63.6739 15.6376 63.644 15.7314 63.604 15.821C64.257 14.7042 64.072 13.2871 63.154 12.3754L56.1371 5.35443C55.2727 4.48722 54.0984 4.00001 52.8739 4.00049H52.5172C53.0087 3.99918 53.4654 4.25377 53.7228 4.6725C53.9802 5.09124 54.001 5.61374 53.7779 6.05166V6.05572Z" fill="url(#paint2_linear_120_368)"/>
<path d="M63.6051 15.8374C63.9158 15.1188 63.5856 14.2843 62.8673 13.9727C62.7777 13.9327 62.6839 13.9028 62.5876 13.8836L51.0792 11.5405L35.5941 42.7904C35.1801 43.627 34.2199 44.0392 33.3281 43.7633C34.3951 44.2048 35.623 43.9618 36.4414 43.1471L63.1551 16.4293C63.333 16.2549 63.4846 16.0555 63.6051 15.8374Z" fill="url(#paint3_linear_120_368)"/>
<path d="M226.198 8.94161V24.301C226.198 26.8224 226.806 28.7385 228.022 30.0491C229.238 31.3598 230.919 32.0152 233.065 32.0152C235.184 32.0152 236.852 31.3855 238.071 30.1262C239.29 28.8668 239.898 26.9886 239.895 24.4915V8.94161H244.602L244.618 24.2605C244.658 26.051 244.384 27.8346 243.807 29.5303C243.316 30.953 242.519 32.2508 241.472 33.3326C240.448 34.3617 239.199 35.14 237.824 35.6067C236.277 36.1298 234.653 36.3848 233.02 36.3607C231.407 36.3828 229.801 36.1278 228.274 35.6067C226.903 35.1393 225.655 34.3673 224.625 33.3488C223.588 32.2948 222.797 31.0239 222.311 29.6276C221.742 27.9704 221.468 26.2268 221.5 24.4753V8.94161H226.198ZM211.029 9.40778C212.643 10.0037 214.149 10.858 215.488 11.9373L212.942 15.5248C211.818 14.6858 210.592 13.9925 209.294 13.4615C208.134 12.9948 206.896 12.7527 205.646 12.748C204.255 12.748 203.173 13.0602 202.403 13.6925C201.677 14.2318 201.249 15.0825 201.248 15.9869C201.22 16.4664 201.296 16.9462 201.471 17.3935C201.702 17.8323 202.042 18.2037 202.46 18.4718C203.069 18.873 203.732 19.1856 204.43 19.4001C205.269 19.6839 206.331 19.9798 207.624 20.2879C208.905 20.6048 210.164 21.0043 211.394 21.4837C212.389 21.8643 213.312 22.4128 214.122 23.1052C214.817 23.7101 215.37 24.4601 215.744 25.3023C216.138 26.235 216.33 27.2409 216.307 28.2534C216.331 29.4379 216.088 30.6126 215.598 31.6909C215.14 32.6764 214.467 33.5464 213.628 34.2366C212.73 34.9594 211.698 35.4967 210.591 35.8175C209.328 36.1907 208.017 36.3725 206.7 36.3567C204.658 36.3639 202.632 36.0055 200.717 35.2987C198.769 34.5636 196.981 33.4629 195.447 32.0557L198.305 28.6628C199.497 29.7167 200.835 30.5932 202.277 31.2652C203.713 31.8888 205.265 32.1984 206.83 32.1733C208.297 32.1733 209.462 31.8638 210.324 31.245C211.155 30.6857 211.642 29.7409 211.617 28.7398C211.625 28.2893 211.54 27.842 211.366 27.4264C211.155 26.9953 210.833 26.6285 210.433 26.3643C209.859 25.9797 209.234 25.6755 208.577 25.4604C207.568 25.1122 206.543 24.8159 205.504 24.5726C204.199 24.277 202.913 23.9034 201.653 23.4538C200.629 23.0987 199.67 22.5768 198.815 21.9093C198.067 21.3106 197.47 20.544 197.072 19.6717C196.646 18.6592 196.442 17.5673 196.472 16.4693C196.456 15.3503 196.691 14.2419 197.162 13.2264C197.613 12.2733 198.259 11.4255 199.059 10.7374C199.906 10.0076 200.892 9.45609 201.957 9.11592C203.153 8.73196 204.402 8.54307 205.658 8.55651C207.485 8.5218 209.303 8.80999 211.029 9.40778ZM108.414 8.94161V13.3399H99.8488V35.9513H95.0614V13.3399H86.5V8.94161H108.414ZM125.468 8.94161C126.886 8.92563 128.299 9.12798 129.656 9.54156C130.812 9.8912 131.887 10.4687 132.817 11.24C133.681 11.9729 134.361 12.8974 134.804 13.9398C135.651 16.0454 135.727 18.3829 135.019 20.5392C134.715 21.3939 134.265 22.1894 133.689 22.8903C133.113 23.5762 132.428 24.1623 131.662 24.6253C130.849 25.113 129.972 25.4841 129.056 25.7279L136.352 35.9513H130.754L124.098 26.5387H118.135V35.9513H113.429V8.94161H125.468ZM161.311 8.94161V13.2264H146.032V20.1703H159.576V24.4551H146.032V31.6706H161.505V35.9513H141.326V8.94161H161.311ZM181.141 8.75109L193.031 35.9513H188.012L185.276 29.4289H172.503L169.726 35.9513H164.862L176.743 8.75109H181.141ZM263.176 8.94161C264.594 8.92563 266.006 9.12798 267.363 9.54156C268.52 9.8912 269.595 10.4687 270.525 11.24C271.388 11.9739 272.07 12.8981 272.515 13.9398C273.362 16.0459 273.436 18.3834 272.726 20.5392C272.422 21.3939 271.972 22.1894 271.397 22.8903C270.821 23.5762 270.136 24.1623 269.37 24.6253C268.557 25.113 267.679 25.4841 266.763 25.7279L274.06 35.9513H268.462L261.806 26.5387H255.843V35.9513H251.136V8.94161H263.176ZM299.043 8.94161L299.022 13.2264H283.76V20.1703H297.304V24.4551H283.76V31.6706H299.233V35.9513H279.054V8.94161H299.043ZM358.753 8.75109L370.635 35.9513H365.616L362.88 29.4289H350.107L347.33 35.9513H342.466L354.351 8.75109H358.753ZM391.779 8.94161V13.3399H383.213V35.9513H378.426V13.3399H369.861V8.94161H391.779ZM407.288 8.75109L419.174 35.9513H414.155L411.419 29.4289H398.646L395.869 35.9513H391.005L402.89 8.75109H407.288ZM326.531 8.94161C328.514 8.91854 330.484 9.26496 332.34 9.96314C334.028 10.6026 335.574 11.5666 336.892 12.8007C338.164 14.0075 339.169 15.467 339.843 17.0855C340.545 18.7713 340.9 20.5817 340.885 22.4079C340.898 24.2419 340.543 26.0598 339.843 27.7548C339.172 29.3796 338.167 30.845 336.892 32.0557C335.572 33.2863 334.026 34.2499 332.34 34.8933C330.486 35.6021 328.515 35.9555 326.531 35.9351H316.461V8.94161H326.531ZM326.519 13.2264H321.18V31.6706H326.519C327.839 31.6868 329.151 31.4558 330.386 30.9896C331.495 30.574 332.504 29.9274 333.345 29.0925C334.169 28.2628 334.814 27.2738 335.242 26.186C336.146 23.8014 336.146 21.1685 335.242 18.784C334.812 17.6925 334.167 16.6986 333.345 15.8612C332.506 15.0143 331.498 14.354 330.386 13.9236C329.154 13.4441 327.841 13.2073 326.519 13.2264ZM178.867 14.4222L174.238 25.2171H183.537L178.867 14.4222ZM356.471 14.4222L351.862 25.2171H361.161L356.471 14.4222ZM405.014 14.4222L400.381 25.2171H409.68L405.014 14.4222ZM125.067 13.2264H118.135V22.3309H125.103C126.806 22.3309 128.157 21.9175 129.157 21.0905C130.155 20.2781 130.713 19.0442 130.665 17.7584C130.673 16.2612 130.187 15.1316 129.206 14.3695C128.225 13.6074 126.845 13.2264 125.067 13.2264ZM262.774 13.2264H255.843V22.3309H262.811C264.513 22.3309 265.865 21.9175 266.865 21.0905C267.862 20.2781 268.421 19.0442 268.373 17.7584C268.373 16.2612 267.886 15.1316 266.913 14.3695C265.932 13.6074 264.553 13.2264 262.774 13.2264Z" fill="#2E40AA"/>
<defs>
<linearGradient id="paint0_linear_120_368" x1="21.4102" y1="29.9104" x2="34.7042" y2="6.88075" gradientUnits="userSpaceOnUse">
<stop stop-color="#8855FF"/>
<stop offset="1" stop-color="#00B6FF"/>
</linearGradient>
<linearGradient id="paint1_linear_120_368" x1="37.8354" y1="10.0129" x2="38.2647" y2="8.23989" gradientUnits="userSpaceOnUse">
<stop offset="0.07" stop-color="white"/>
<stop offset="0.89" stop-color="#009FFF"/>
</linearGradient>
<linearGradient id="paint2_linear_120_368" x1="53.5792" y1="30.3089" x2="66.8407" y2="41.6484" gradientUnits="userSpaceOnUse">
<stop offset="0.07" stop-color="white"/>
<stop offset="0.89" stop-color="#009FFF"/>
</linearGradient>
<linearGradient id="paint3_linear_120_368" x1="36.6759" y1="24.3421" x2="56.5459" y2="31.2218" gradientUnits="userSpaceOnUse">
<stop stop-color="#4036C1"/>
<stop offset="0.98" stop-color="#539EFF"/>
</linearGradient>
</defs>
</svg>
