<svg width="160" height="56" viewBox="0 0 160 56" fill="none" xmlns="http://www.w3.org/2000/svg">
<path d="M20.67 21.3181C17.2285 21.3181 14.3241 24.1154 14.3241 27.6653C14.3087 29.353 14.9724 30.976 16.1658 32.1695C17.3593 33.3629 18.9823 34.0265 20.67 34.0112C24.1114 34.0112 27.0146 31.2139 27.0146 27.6653C27.0146 24.1154 24.1114 21.3181 20.67 21.3181ZM10.7755 27.5568C10.7755 22.1791 15.1851 17.7695 20.5628 17.7695C25.9393 17.7695 30.3489 22.1791 30.3489 27.5568C30.3489 27.8796 30.3489 28.3107 30.2418 28.6334C30.1333 29.6003 30.8872 30.3528 31.8553 30.3528C33.4689 30.3528 33.6832 28.3107 33.6832 27.5568C33.6832 20.3499 27.7671 14.4338 20.5628 14.4338C13.3559 14.4338 7.44249 20.3499 7.44249 27.5568C7.44249 34.7651 13.3559 40.6798 20.5628 40.6798C24.4341 40.6798 27.8756 39.0663 30.2418 36.3774L32.9293 38.6364C30.0262 42.0792 25.5094 44.2311 20.6687 44.2311C16.2424 44.2448 11.9936 42.4922 8.86439 39.3617C5.73518 36.2313 3.98419 31.9817 3.99961 27.5555C3.99961 18.4136 11.4196 10.8853 20.67 10.8853C29.8106 10.8853 37.2318 18.4149 37.2318 27.5582C37.2318 31.2152 35.5111 34.2281 31.9625 34.2281C30.456 34.2281 29.4892 33.4742 28.9509 32.7217C27.2302 35.519 24.1101 37.3468 20.5615 37.3468C17.9631 37.3557 15.4685 36.3273 13.6311 34.4899C11.7937 32.6525 10.7653 30.158 10.7742 27.5595L10.7755 27.5568ZM20.6687 24.6524C22.2822 24.6524 23.5731 25.9432 23.5731 27.5568C23.5731 29.1704 22.2822 30.4613 20.67 30.4613C19.8987 30.4645 19.1581 30.1595 18.6127 29.6141C18.0673 29.0687 17.7623 28.3281 17.7655 27.5568C17.7655 25.9432 19.0564 24.6524 20.67 24.6524H20.6687Z" fill="#C02428"/>
<path d="M110.799 21.0007C112.823 21.0007 114.749 21.7687 116.13 23.2156L116.368 23.478V21.4319H120.438V38.8746L120.431 39.722C120.379 42.6824 120.019 44.0798 118.94 45.6596C117.44 47.9213 114.761 49.105 111.763 49.105C106.628 49.105 103.339 45.9103 103.199 40.7318L103.194 40.3837H107.156L107.203 40.9799C107.301 42.0781 107.432 42.6446 107.799 43.2908C108.549 44.583 110.156 45.3369 111.763 45.3369C114.668 45.3369 116.166 43.619 116.257 40.0846L116.261 39.7369V37.261C114.654 39.0915 112.94 39.8454 110.692 39.8454C105.979 39.8454 102.444 35.9675 102.444 30.5844C102.444 24.9845 105.979 21.0007 110.799 21.0007ZM126.972 21.4319V31.661C126.972 34.6766 128.043 36.0759 130.4 36.0759C132.778 36.0759 133.859 34.7714 133.93 31.9672L133.934 31.661V21.4319H138.005V31.7695C138.005 34.5681 137.577 36.0759 136.184 37.5837C134.685 39.0915 132.757 39.8454 130.4 39.8454C128.15 39.8454 126.116 39.0915 124.723 37.5837C123.502 36.1513 122.958 34.7189 122.906 32.1798L122.902 31.7695V21.4319H126.972ZM75.3462 20.8936C77.4763 20.8936 78.9345 21.5702 80.6295 23.1979L80.9144 23.478V21.4319H84.9854V39.1986H80.9144V37.3694C78.9873 39.0915 77.5946 39.7369 75.452 39.7369C70.5252 39.7369 66.9899 35.7532 66.9899 30.1532C66.9899 24.8773 70.5252 20.8936 75.3462 20.8936ZM59.6004 20.8936C63.4587 20.8936 65.49 23.2409 65.5943 27.8379L65.5985 28.2156V39.5213H61.5275V29.6149C61.5275 26.1695 60.7775 24.8773 58.8492 24.8773C56.5709 24.8773 55.5931 26.3897 55.5324 29.9036L55.5294 30.2617V39.4142H51.4597V29.5078C51.4597 26.278 50.6027 24.7702 48.7814 24.7702C46.5018 24.7702 45.5253 26.2826 45.4647 29.7965L45.4616 30.1546V39.3071H41.3906V21.4319H45.4616V23.0468C46.9602 21.3234 47.9244 20.8936 49.6385 20.8936C51.5668 20.8936 53.2796 21.7546 54.3509 23.478C55.6365 21.8618 57.4578 20.8936 59.6004 20.8936ZM92.3762 21.4319V39.3071H88.3052V21.4319H92.3762ZM149.573 20.8936C153.854 20.8936 155.896 23.2473 155.996 27.9559L155.999 28.3227V39.3071H151.928V29.2922C151.928 25.8468 151.18 24.6617 148.609 24.6617C145.904 24.6617 144.917 26.1857 144.863 30.32L144.86 39.3071H140.789V21.4319H144.753V23.0468C146.359 21.4319 147.644 20.8936 149.573 20.8936ZM100.194 6.89502V39.1986H96.1245V6.89502H100.194ZM76.0948 24.5533C73.3107 24.5546 71.168 27.0305 71.168 30.2617C71.168 33.7071 73.2035 36.0759 76.0948 36.0759C79.0945 36.0759 81.1286 33.7071 81.1286 30.2617C81.1286 27.0246 79.2159 24.6978 76.3648 24.5598L76.0948 24.5546V24.5533ZM111.549 24.5533C108.549 24.5546 106.621 26.9234 106.621 30.3688C106.621 33.8142 108.549 36.0759 111.549 36.0759C114.44 36.0759 116.476 33.7071 116.476 30.2617C116.476 27.0246 114.662 24.6978 111.818 24.5598L111.549 24.5533ZM90.3394 11.417C91.0549 11.4117 91.7413 11.6939 92.2452 12.2003C92.749 12.7066 93.0279 13.3943 93.019 14.1086C93.0282 14.823 92.7495 15.5111 92.2456 16.0178C91.7418 16.5244 91.0552 16.8068 90.3407 16.8014C88.8408 16.8014 87.6624 15.6164 87.6624 14.1086C87.6535 13.3946 87.9322 12.707 88.4357 12.2007C88.8833 11.7507 89.4751 11.4775 90.1026 11.4259L90.3407 11.417H90.3394Z" fill="black"/>
</svg>
