<svg width="88" height="160" viewBox="0 0 88 160" fill="none" xmlns="http://www.w3.org/2000/svg">
<path d="M82.8542 42.8543L44.2909 83.5318L5.14551 42.8543L43.9998 4L82.8542 42.8543Z" fill="#86AD8A"/>
<path d="M37.3492 103.999C39.6568 97.1816 40.8795 76.1918 40.2293 65.7458C40.1516 64.4927 40.0265 63.0381 39.8079 61.877C39.7396 61.507 39.6592 61.1655 39.5697 60.8711V20.0443C39.5697 16.5616 42.763 14.9158 45.7627 22.5592C48.7626 30.2022 47.8915 57.3884 47.8915 59.3214C47.8915 59.7315 47.5193 60.2163 46.9353 60.692C46.7019 60.8425 46.4906 60.9961 46.2951 61.1512C44.4984 62.5928 44.2364 64.255 44.1426 65.7458C43.4927 76.1918 43.1962 97.1816 45.5037 103.999C48.2072 111.986 43.0644 112.99 41.4277 112.99C39.7882 112.989 34.6458 111.986 37.3492 103.999ZM28.4664 30.7614C28.1787 30.7914 27.8193 36.4799 27.7006 40.5882C27.5555 45.5798 27.3308 50.0195 25.9291 50.0195C24.8763 50.0195 24.2234 48.2813 24.3958 43.8705C24.6438 37.5184 24.6362 30.7614 24.2623 30.7614C23.7909 30.7614 21.6074 44.772 21.6074 49.7007C21.6074 53.2359 23.1224 56.5655 25.0208 58.2994L25.0409 58.3158L25.2102 58.466L25.2163 58.4712C26.5881 59.7218 26.9335 61.0802 27.0261 62.3211C27.8095 72.7641 26.3391 98.6362 23.5674 105.453C20.3204 113.438 26.4979 114.444 28.4664 114.444C30.4319 114.444 36.6097 113.438 33.3621 105.453C30.5904 98.6356 29.1224 72.7641 29.9034 62.3211C29.9966 61.0802 30.3411 59.7218 31.7132 58.4712L31.7193 58.466L31.8886 58.3158L31.9087 58.2994C33.8068 56.5661 35.4198 53.2347 35.3224 49.7007C34.9357 35.6795 33.3347 30.7614 32.8633 30.7614C32.4894 30.7614 32.49 38.2457 32.5965 43.5687C32.6836 47.9292 32.3097 49.8938 31.0797 49.8938C29.9083 49.8938 29.5543 45.6468 29.4056 40.532C29.2863 36.4129 28.9157 30.7614 28.4673 30.7614H28.4664ZM59.5681 111.281C58.0173 111.281 53.1526 110.329 55.7109 102.773C57.8949 96.3214 59.0512 71.8392 58.4365 61.9538C58.4052 61.4505 58.2804 60.94 58.1848 60.4002C57.915 58.8749 56.0266 57.6255 54.9332 56.5285C52.8096 54.3976 51.4454 50.8145 51.4454 46.7736C51.4454 40.213 55.0822 31.9097 59.5681 31.9097C64.0543 31.9097 67.6911 40.213 67.6911 46.7736C67.6911 50.8145 66.3263 54.3976 64.2033 56.5285C63.1099 57.6255 61.2215 58.8749 60.9517 60.4002C60.8561 60.94 60.7319 61.4505 60.7 61.9538C60.0847 71.8386 61.2416 96.3208 63.4256 102.773C65.9839 110.33 61.1192 111.281 59.5681 111.281Z" fill="white"/>
<path d="M82.6705 118.74L5.14551 42.8545L5.30548 118.841H82.6705" fill="#CECCAE"/>
<path d="M5.30566 118.74V156H82.6707V42.6562L5.30566 118.74Z" fill="#3F894A"/>
<path d="M82.1352 52.7024L81.9209 52.4859L82.3547 52.0576L82.569 52.274L82.1352 52.7024ZM6.84164 127.066L6.62733 126.85L7.50307 125.985L7.71738 126.201L6.84164 127.066ZM8.59251 125.337L8.37851 125.12L9.25425 124.255L9.46825 124.472L8.59251 125.337ZM10.3437 123.608L10.1297 123.391L11.0048 122.526L11.2191 122.742L10.3437 123.608ZM12.0949 121.878L11.8806 121.661L12.756 120.797L12.9703 121.013L12.0949 121.878ZM13.8457 120.149L13.6317 119.932L14.5072 119.067L14.7212 119.284L13.8457 120.149ZM15.5966 118.419L15.3826 118.203L16.2583 117.338L16.4723 117.554L15.5966 118.419ZM17.3478 116.69L17.1335 116.474L18.0089 115.608L18.2232 115.825L17.3478 116.69ZM19.0987 114.96L18.8847 114.744L19.7601 113.879L19.9741 114.096L19.0987 114.96ZM20.8498 113.231L20.6358 113.014L21.511 112.15L21.7253 112.366L20.8498 113.231ZM22.6007 111.501L22.3864 111.285L23.2621 110.42L23.4764 110.637L22.6007 111.501ZM24.3516 109.772L24.1376 109.555L25.0133 108.691L25.2273 108.908L24.3516 109.772ZM26.1028 108.042L25.8888 107.826L26.7642 106.961L26.9782 107.178L26.1028 108.042ZM27.8539 106.313L27.6396 106.097L28.5151 105.232L28.7294 105.449L27.8539 106.313ZM29.6048 104.584L29.3905 104.367L30.2662 103.503L30.4802 103.72L29.6048 104.584ZM31.3557 102.854L31.1417 102.638L32.0174 101.774L32.2314 101.99L31.3557 102.854ZM33.1069 101.125L32.8926 100.908L33.768 100.044L33.9823 100.26L33.1069 101.125ZM34.858 99.3958L34.6437 99.1791L35.5192 98.3143L35.7332 98.5307L34.858 99.3958ZM36.6089 97.6665L36.3949 97.4498L37.2703 96.585L37.4843 96.8014L36.6089 97.6665ZM38.3598 95.9369L38.1455 95.7205L39.0212 94.8557L39.2355 95.0721L38.3598 95.9369ZM40.111 94.2076L39.8966 93.9911L40.7721 93.126L40.9864 93.3428L40.111 94.2076ZM41.8618 92.4783L41.6478 92.2618L42.5233 91.3967L42.7373 91.6134L41.8618 92.4783ZM43.613 90.7489L43.3987 90.5325L44.2741 89.6674L44.4884 89.8841L43.613 90.7489ZM45.3642 89.0196L45.1499 88.8032L46.025 87.9381L46.239 88.1545L45.3642 89.0196ZM47.1147 87.2903L46.9007 87.0736L47.7765 86.2087L47.9905 86.4252L47.1147 87.2903ZM48.8656 85.5604L48.6516 85.3436L49.5271 84.4794L49.7414 84.6959L48.8656 85.5604ZM50.6171 83.831L50.4028 83.6143L51.2785 82.7501L51.4928 82.9665L50.6171 83.831ZM52.3677 82.1014L52.1537 81.885L53.0294 81.0205L53.2434 81.2372L52.3677 82.1014ZM54.1192 80.3724L53.9051 80.156L54.78 79.2912L54.9943 79.5079L54.1192 80.3724ZM55.87 78.6431L55.6557 78.4266L56.5315 77.5615L56.7458 77.7783L55.87 78.6431ZM57.6206 76.9135L57.4066 76.697L58.2823 75.8322L58.4963 76.0486L57.6206 76.9135ZM59.3721 75.1841L59.1578 74.9674L60.0329 74.1029L60.2472 74.3193L59.3721 75.1841ZM61.1229 73.4548L60.9086 73.2381L61.7844 72.3736L61.9987 72.59L61.1229 73.4548ZM62.8741 71.7255L62.6601 71.5088L63.5353 70.6442L63.7493 70.8607L62.8741 71.7255ZM64.625 69.9959L64.411 69.7794L65.2864 68.9146L65.5007 69.1314L64.625 69.9959ZM66.3759 68.2665L66.1616 68.0501L67.0373 67.1853L67.2516 67.402L66.3759 68.2665ZM68.1273 66.5372L67.913 66.3208L68.7882 65.456L69.0022 65.6727L68.1273 66.5372ZM69.8779 64.8079L69.6639 64.5915L70.5394 63.7267L70.7537 63.9431L69.8779 64.8079ZM71.6288 63.0786L71.4145 62.8618L72.2902 61.9973L72.5045 62.2138L71.6288 63.0786ZM73.38 61.349L73.166 61.1322L74.0411 60.2677L74.2551 60.4841L73.38 61.349ZM75.1308 59.6196L74.9168 59.4029L75.7926 58.5384L76.0066 58.7548L75.1308 59.6196ZM76.8823 57.89L76.668 57.6736L77.5432 56.8091L77.7575 57.0255L76.8823 57.89ZM78.6329 56.1607L78.4189 55.9443L79.2946 55.0794L79.5086 55.2962L78.6329 56.1607ZM80.3838 54.4314L80.1698 54.2149L81.0455 53.3501L81.2595 53.5669L80.3838 54.4314ZM5.53334 128.359L5.31934 128.142L5.7522 127.714L5.9665 127.931L5.53334 128.359Z" fill="white"/>
<path d="M17.7037 130.486H21.5585C22.0624 130.486 22.5727 130.527 23.0893 130.608C23.6059 130.691 24.0689 130.861 24.4783 131.119C24.8875 131.377 25.2214 131.737 25.4798 132.196C25.7381 132.656 25.8671 133.264 25.8671 134.02C25.8671 134.699 25.6655 135.292 25.2624 135.796C24.859 136.3 24.2607 136.634 23.4669 136.798V136.836C23.908 136.874 24.3108 136.977 24.6763 137.148C25.0417 137.318 25.3568 137.544 25.6212 137.828C25.8856 138.111 26.0902 138.449 26.235 138.839C26.3801 139.23 26.4526 139.658 26.4526 140.124C26.4526 140.892 26.3045 141.519 26.0085 142.004C25.7126 142.489 25.3401 142.87 24.8936 143.148C24.4465 143.425 23.9611 143.614 23.4384 143.715C22.9157 143.816 22.4273 143.866 21.9741 143.866H17.7031V130.486H17.7037ZM18.9507 136.268H21.5397C22.1823 136.268 22.705 136.189 23.1081 136.032C23.5115 135.874 23.8263 135.682 24.0531 135.455C24.2801 135.229 24.4313 134.986 24.5069 134.728C24.5825 134.47 24.6201 134.234 24.6201 134.02C24.6201 133.554 24.5415 133.166 24.3839 132.857C24.2261 132.549 24.0151 132.304 23.751 132.12C23.486 131.938 23.1776 131.808 22.8249 131.733C22.4722 131.657 22.1006 131.619 21.7097 131.619H18.9507V136.268ZM18.9507 142.731H21.8041C22.5344 142.731 23.1236 142.643 23.5707 142.466C24.0179 142.29 24.3612 142.07 24.6007 141.806C24.8402 141.541 25.0005 141.26 25.0824 140.964C25.1644 140.669 25.2057 140.4 25.2057 140.161C25.2057 139.67 25.1112 139.248 24.9224 138.895C24.7336 138.543 24.4881 138.256 24.1854 138.035C23.8831 137.815 23.5395 137.655 23.1558 137.553C22.7715 137.453 22.3839 137.402 21.9935 137.402H18.9507V142.731ZM28.8983 137.591C28.8983 137.427 28.8917 137.229 28.8795 136.996C28.8668 136.762 28.8577 136.526 28.8516 136.287C28.8449 136.048 28.8358 135.824 28.8231 135.616C28.81 135.408 28.8039 135.248 28.8039 135.134H29.9377C29.9504 135.461 29.9595 135.776 29.9656 136.079C29.9717 136.381 29.9878 136.576 30.0133 136.665C30.3032 136.148 30.6747 135.726 31.1279 135.399C31.5817 135.071 32.1357 134.907 32.791 134.907C32.9043 134.907 33.0148 134.917 33.1219 134.936L33.4528 135.002L33.3204 136.116C33.1693 136.066 33.0245 136.041 32.8861 136.041C32.3946 136.041 31.9699 136.12 31.6105 136.277C31.2517 136.435 30.9558 136.652 30.7224 136.929C30.4889 137.206 30.3159 137.53 30.2027 137.903C30.0895 138.275 30.0327 138.674 30.0327 139.102V143.865H28.8989V137.591H28.8983ZM42.4649 141.408C42.4649 141.573 42.4709 141.771 42.4837 142.004C42.4964 142.237 42.5055 142.474 42.5116 142.713C42.5177 142.952 42.5274 143.176 42.5401 143.384C42.5526 143.592 42.5593 143.752 42.5593 143.866H41.4255C41.4128 143.539 41.4037 143.223 41.3976 142.921C41.3909 142.618 41.3754 142.423 41.3499 142.335H41.2932C41.0661 142.814 40.6885 143.226 40.1597 143.573C39.6303 143.919 39.0132 144.092 38.3078 144.092C37.6272 144.092 37.0699 143.985 36.6349 143.771C36.1999 143.557 35.8599 143.277 35.6147 142.931C35.3691 142.584 35.2015 142.184 35.1138 141.73C35.0255 141.277 34.9818 140.811 34.9818 140.332V135.135H36.1152V140.275C36.1152 140.628 36.1465 140.972 36.2096 141.305C36.2731 141.639 36.3826 141.938 36.5405 142.203C36.6977 142.468 36.9187 142.678 37.2019 142.836C37.4854 142.994 37.854 143.073 38.3078 143.073C38.7233 143.073 39.1173 143 39.4883 142.856C39.8598 142.711 40.181 142.49 40.452 142.194C40.7231 141.898 40.9368 141.526 41.0946 141.079C41.2519 140.632 41.3311 140.106 41.3311 139.501V135.136H42.4649V141.408ZM45.2572 137.591C45.2572 137.427 45.2512 137.229 45.2396 136.996C45.2269 136.762 45.2168 136.526 45.2108 136.287C45.2035 136.048 45.1944 135.824 45.1822 135.616C45.1695 135.408 45.1634 135.248 45.1634 135.134H46.2972C46.3093 135.461 46.3184 135.776 46.3257 136.079C46.3318 136.381 46.347 136.576 46.3719 136.665H46.4292C46.6566 136.186 47.0336 135.773 47.563 135.427C48.0924 135.081 48.7101 134.907 49.4155 134.907C50.0946 134.907 50.6489 135.014 51.0778 135.228C51.5067 135.442 51.8442 135.723 52.0892 136.069C52.3351 136.415 52.5057 136.816 52.5995 137.27C52.6933 137.723 52.7409 138.189 52.7409 138.667V143.865H51.6072V138.724C51.6072 138.372 51.5762 138.028 51.5134 137.694C51.4499 137.361 51.3397 137.061 51.1825 136.797C51.0244 136.532 50.8043 136.321 50.5211 136.163C50.2379 136.006 49.8693 135.927 49.4161 135.927C48.9994 135.927 48.6057 135.999 48.2347 136.144C47.8638 136.289 47.5423 136.51 47.271 136.805C46.9999 137.101 46.7856 137.474 46.6284 137.921C46.4702 138.368 46.3916 138.894 46.3916 139.499V143.864H45.2578V137.591H45.2572ZM62.738 142.58C62.3097 143.097 61.8243 143.478 61.2828 143.724C60.7407 143.969 60.1545 144.092 59.5253 144.092C58.8568 144.092 58.24 143.978 57.6727 143.751C57.1057 143.525 56.6206 143.206 56.2175 142.797C55.8141 142.388 55.4993 141.903 55.2725 141.342C55.0461 140.781 54.9323 140.167 54.9323 139.5C54.9323 138.832 55.0461 138.218 55.2725 137.658C55.4993 137.097 55.8141 136.612 56.2175 136.202C56.6206 135.793 57.1057 135.475 57.6727 135.248C58.24 135.021 58.8568 134.908 59.5253 134.908C60.1679 134.908 60.7625 135.04 61.3107 135.304C61.8589 135.569 62.3471 135.941 62.7754 136.419L61.8681 137.1C61.5411 136.734 61.1817 136.448 60.7911 136.239C60.4001 136.032 59.9785 135.928 59.5253 135.928C58.9959 135.928 58.5172 136.022 58.0889 136.211C57.6606 136.4 57.2951 136.656 56.993 136.976C56.6907 137.298 56.4606 137.676 56.3028 138.11C56.1449 138.545 56.0663 139.008 56.0663 139.499C56.0663 139.99 56.1449 140.453 56.3028 140.888C56.4606 141.322 56.6907 141.701 56.993 142.022C57.2951 142.343 57.6606 142.598 58.0889 142.787C58.5172 142.976 58.9959 143.071 59.5253 143.071C60.0033 143.071 60.4414 142.96 60.8381 142.74C61.2345 142.52 61.5782 142.226 61.8674 141.861L62.738 142.58ZM64.3493 129.579H65.483V136.665H65.5207C65.7474 136.187 66.125 135.774 66.6544 135.427C67.1832 135.081 67.8009 134.908 68.5064 134.908C69.186 134.908 69.7406 135.015 70.1686 135.229C70.5969 135.443 70.9345 135.723 71.18 136.07C71.4253 136.416 71.5959 136.816 71.6897 137.27C71.7844 137.723 71.8318 138.19 71.8318 138.668V143.865H70.698V138.725C70.698 138.372 70.6664 138.029 70.6036 137.695C70.5405 137.362 70.43 137.062 70.273 136.797C70.1152 136.532 69.8951 136.322 69.6113 136.164C69.3281 136.007 68.9596 135.928 68.5064 135.928C68.0902 135.928 67.6968 136 67.3253 136.145C66.954 136.289 66.6326 136.51 66.3615 136.806C66.091 137.102 65.8764 137.474 65.7189 137.921C65.561 138.368 65.4824 138.895 65.4824 139.499V143.865H64.3487V129.579H64.3493Z" fill="white"/>
</svg>
