<svg width="200" height="48" viewBox="0 0 200 48" fill="none" xmlns="http://www.w3.org/2000/svg">
<path d="M171.816 31.6801L171.816 31.6843H171.788L171.816 31.6801Z" fill="#100F0D"/>
<path d="M171.816 31.6843H172.252C173.01 33.3606 174.846 35.3465 177.895 35.3465C181.023 35.3465 182.929 33.051 182.929 30.227C182.929 27.1389 180.459 26.1238 177.838 25.0465C174.875 23.8283 171.718 22.5307 171.718 18.0672C171.718 14.0901 174.772 11.3408 179.502 11.3408C181.712 11.3408 183.313 11.8725 184.765 12.9439C184.311 13.7842 184.082 14.6282 183.778 16.0028H183.399C182.865 14.6282 181.797 12.638 179.128 12.638C176.464 12.638 174.553 14.4713 174.553 17.0742C174.553 20.2589 177.123 21.287 179.803 22.3587C182.719 23.525 185.763 24.7428 185.763 28.8481C185.763 33.202 182.491 36.8738 177.003 36.8738C174.104 36.8738 172.423 35.8066 171.131 34.811C171.587 33.7407 171.666 33.0524 171.816 31.6843Z" fill="#100F0D"/>
<path fill-rule="evenodd" clip-rule="evenodd" d="M143.88 24.1199C143.88 32.2235 149.375 36.8893 157.228 36.8893C165.081 36.8893 170.574 32.2235 170.574 24.1199C170.574 16.0162 165.086 11.3504 157.234 11.3504C149.381 11.3504 143.888 16.0108 143.888 24.1145L143.88 24.1199ZM167.063 24.1172C167.062 31.9894 162.792 35.5814 157.23 35.5814C151.662 35.5814 147.391 31.9886 147.391 24.1145C147.391 16.1657 151.662 12.6477 157.224 12.6477C162.786 12.6477 167.062 16.1649 167.063 24.1172Z" fill="#100F0D"/>
<path d="M141.989 36.8834C141.913 35.2819 141.834 27.4078 141.834 23.735C141.834 20.9803 142.219 13.875 142.447 11.809C142.326 11.8287 142.216 11.8488 142.112 11.8676C141.823 11.9204 141.584 11.9638 141.305 11.9638C140.921 11.9638 140.461 11.8891 140.079 11.8143C140.386 17.3181 140.386 24.2791 140.386 30.6263V30.6268C136.549 26.7753 129.914 19.5893 124.426 13.6456L124.426 13.6453L124.423 13.6419C123.697 12.8562 122.992 12.0922 122.316 11.3606H121.782C121.857 12.9621 121.857 16.4053 121.857 20.9163C121.857 25.5767 121.397 34.7534 121.093 36.4403C121.123 36.4355 121.153 36.4306 121.182 36.4258L121.185 36.4253C121.614 36.3553 122.042 36.2855 122.467 36.2855C122.846 36.2855 123.311 36.3656 123.69 36.4457C123.535 34.9936 123.383 27.5007 123.383 24.4396C123.383 22.0266 123.415 20.2837 123.438 18.9989L123.438 18.9983L123.438 18.9976C123.452 18.2478 123.463 17.6541 123.463 17.1741C124.242 18.0055 125.028 18.8419 125.818 19.6818L125.821 19.6851C131.203 25.4127 136.739 31.3042 141.459 36.8994H141.992L141.989 36.8834Z" fill="#100F0D"/>
<path fill-rule="evenodd" clip-rule="evenodd" d="M92.575 24.1305C92.575 32.2342 98.0682 36.8983 105.921 36.8983C113.774 36.8983 119.262 32.2337 119.262 24.1305C119.262 16.0269 113.774 11.3632 105.921 11.3632C98.0682 11.3632 92.575 16.0253 92.575 24.1295V24.1305ZM115.834 24.1303C115.834 32.0042 111.489 35.5968 105.921 35.5968C100.353 35.5968 96.0823 32.0041 96.0823 24.13C96.0823 16.1769 100.353 12.6599 105.921 12.6599C111.489 12.6599 115.834 16.1778 115.834 24.1303Z" fill="#100F0D"/>
<path fill-rule="evenodd" clip-rule="evenodd" d="M188.76 14.8706H188.412V12.3135H189.395C189.971 12.3135 190.222 12.5628 190.222 13.0197C190.222 13.4724 189.928 13.6694 189.63 13.7335L190.345 14.8706H189.955L189.261 13.7335H188.77L188.76 14.8706ZM189.161 13.4425L189.198 13.4426C189.524 13.4432 189.874 13.4439 189.874 13.0139C189.874 12.6551 189.58 12.6028 189.314 12.6028H188.758V13.4431L189.161 13.4425Z" fill="#100F0D"/>
<path fill-rule="evenodd" clip-rule="evenodd" d="M191.363 13.5883C191.362 14.1584 191.135 14.7048 190.732 15.108C190.329 15.5111 189.782 15.7382 189.212 15.7397C188.022 15.7397 187.061 14.7713 187.061 13.5883C187.061 12.4053 188.022 11.4369 189.212 11.4369C189.782 11.4383 190.329 11.6654 190.732 12.0686C191.135 12.4717 191.362 13.0181 191.363 13.5883ZM191.015 13.5872C191.015 12.5505 190.244 11.7273 189.213 11.7273C188.181 11.7273 187.41 12.551 187.41 13.5883C187.41 14.6255 188.181 15.4492 189.213 15.4492C190.244 15.4492 191.015 14.6224 191.015 13.5872Z" fill="#100F0D"/>
<path fill-rule="evenodd" clip-rule="evenodd" d="M76.1226 36.419C76.2737 33.359 76.4269 30.2227 76.4269 27.1675H76.4397V21.0716C76.4397 17.938 76.2903 14.8791 76.1355 11.8202C77.5074 11.8949 78.8794 11.9697 80.1713 11.9697C80.8579 11.9697 81.5459 11.9309 82.2332 11.8922C82.9192 11.8535 83.6045 11.8149 84.2872 11.8149C88.2536 11.8149 91.6862 13.1868 91.6862 17.3935C91.6862 22.0539 87.0364 23.8903 84.3672 24.2693C84.932 24.9636 85.9369 26.2417 87.1078 27.7307C89.5562 30.8445 92.7301 34.8809 94.1205 36.4302C93.4372 36.3501 92.6738 36.27 91.9851 36.27C91.3436 36.27 90.7066 36.3395 90.0657 36.4095C90.0187 36.4146 89.9716 36.4197 89.9245 36.4248C88.4778 34.2041 83.748 27.7126 80.6944 24.5683H79.3235V27.1681C79.3235 30.227 79.4768 33.3606 79.6278 36.4195L79.5736 36.4125C78.9802 36.3364 78.3927 36.2609 77.8736 36.2609C77.3412 36.2609 76.8659 36.3227 76.3477 36.3899C76.2737 36.3996 76.1987 36.4093 76.1226 36.419ZM79.4576 15.8904C79.3906 17.6096 79.3235 19.3292 79.3235 21.0487V23.0356C80.009 23.1894 80.7751 23.2673 81.6852 23.2673C84.6614 23.2673 88.552 22.0443 88.552 17.7613C88.552 14.0164 85.4237 13.0982 82.9841 13.0982C81.381 13.0982 80.3138 13.173 79.5515 13.2504C79.5262 14.1303 79.4919 15.0103 79.4576 15.8904Z" fill="#100F0D"/>
<path d="M57.1468 21.1213V27.2423L57.158 27.2204C57.158 30.1992 57.0011 33.3382 56.8516 36.3223C56.8855 36.3179 56.9192 36.3135 56.9527 36.3091C57.5233 36.2342 58.0315 36.1675 58.6063 36.1675C59.1061 36.1675 59.6091 36.2335 60.1761 36.308C60.2124 36.3127 60.249 36.3175 60.2858 36.3223C60.131 33.3435 60.0562 30.2045 60.0562 27.2257V24.0921C60.0562 24.0174 60.131 23.9426 60.2057 23.9426C60.2858 23.9426 60.4353 24.0227 60.5901 24.1722C62.1169 25.7043 67.452 32.2011 70.8077 36.333C71.4163 36.2529 72.105 36.1782 72.7136 36.1782C73.4769 36.1782 74.1635 36.2529 74.8489 36.333C73.4368 34.7241 72.0342 33.1165 70.6412 31.52C68.1241 28.635 65.6383 25.7859 63.1845 23.0298C65.6989 20.0456 71.2668 14.8513 74.4699 12.022C73.9307 12.1021 73.3221 12.1768 72.7883 12.1768C72.2817 12.1768 71.8439 12.1047 71.4114 12.0335C71.3881 12.0297 71.3648 12.0258 71.3416 12.022C68.0585 15.7749 64.0227 20.2004 60.7395 23.0351C60.7021 23.0636 60.6681 23.0897 60.6369 23.1135C60.4154 23.2835 60.3405 23.341 60.2057 23.341C60.1256 23.341 60.0509 23.2662 60.0509 23.1114V21.1213C60.0509 18.0672 60.1256 15.0078 60.2804 12.0263C60.221 12.0338 60.1622 12.0414 60.1042 12.0488C59.5631 12.1182 59.081 12.18 58.5989 12.18C58.0432 12.18 57.5498 12.1168 57.0008 12.0465C56.9486 12.0398 56.8959 12.033 56.8425 12.0263L56.8466 12.1068C56.9948 15.0629 57.1468 18.0952 57.1468 21.1213Z" fill="#100F0D"/>
<path d="M24.8812 16.0028C28.429 16.0028 29.2708 15.073 30.1678 14.0822C30.2337 14.0094 30.2999 13.9363 30.3675 13.8632C30.4449 13.8632 36.3187 5.52731 36.3187 5.52731C36.3187 5.52731 36.7009 5.68106 37.1552 5.91168C37.1552 5.91168 33.7226 10.8032 29.3024 16.9221C28.6165 17.8403 27.3176 19.3692 24.8022 19.3692H9.17139C9.39791 18.4088 9.70584 17.5332 9.97395 16.7708C10.0692 16.5001 10.1593 16.2437 10.2391 16.0028H24.8812Z" fill="#F03B25"/>
<path d="M13.5179 10.8801H21.755C22.9288 10.8801 23.7018 9.97482 24.2369 9.34823C24.3618 9.20196 24.4737 9.07087 24.5748 8.97004C24.5748 9.04478 28.159 4 28.159 4C23.2028 4.07474 17.6354 6.06275 13.5179 10.8796V10.8801Z" fill="#F03B25"/>
<path d="M8.9429 20.2047H26.0236C26.043 20.2047 26.0731 20.2053 26.1131 20.2061C26.856 20.2211 30.999 20.3046 32.734 17.8398C34.6398 15.2362 40.0566 7.59273 40.0566 7.59273C40.2853 7.73037 40.3752 7.81379 40.4786 7.90972C40.5457 7.97192 40.6184 8.03939 40.7383 8.13031C40.7383 8.13031 31.6684 20.8197 31.6684 20.8944C30.0653 23.0297 27.4724 23.5689 25.4161 23.5689H8.63647C8.63647 22.6507 8.71388 21.3482 8.9429 20.2004V20.2047Z" fill="#F03B25"/>
<path d="M48.518 24.0299C48.5175 29.0739 46.7666 33.7336 43.486 37.1765L36.1665 27.0127C35.4779 26.0945 34.257 24.5645 32.2749 24.0312C34.2203 23.4297 35.4324 21.9468 36.1277 21.0961L36.1665 21.0487L43.4855 10.8032C46.7666 14.2461 48.5175 18.9058 48.518 24.0299Z" fill="#F03B25"/>
<path d="M23.9662 11.7983H12.7545V11.7988C11.8395 12.9413 10.9256 14.4734 10.6971 15.0873H23.2028C24.8032 15.0088 26.0983 14.3196 27.3176 12.4101C27.3956 12.3322 33.0372 4.45803 33.0372 4.45803L32.0485 4.30322L28.2316 9.58288C28.2316 9.58288 26.6322 11.873 23.9662 11.7983Z" fill="#F03B25"/>
<path d="M26.0236 27.7814H8.9429V27.7873C8.71388 26.6342 8.63647 25.3423 8.63647 24.4188H25.4161C27.4724 24.4188 30.0653 24.9526 31.6684 27.0933C31.6684 27.1681 40.7383 39.8574 40.7383 39.8574C40.6157 39.9491 40.5424 40.0169 40.4741 40.0801C40.3725 40.174 40.2819 40.2578 40.0566 40.395C40.0566 40.395 34.6398 32.7461 32.734 30.1517C30.9774 27.7259 26.7525 27.7734 26.087 27.7809C26.0598 27.7812 26.0385 27.7814 26.0236 27.7814Z" fill="#F03B25"/>
<path d="M10.2396 31.9774H24.8812C28.4236 31.9774 29.2682 32.909 30.1637 33.8966C30.2309 33.9708 30.2985 34.0453 30.3675 34.1197C30.4449 34.1197 36.3187 42.4572 36.3187 42.4572C36.3187 42.4572 36.7009 42.3077 37.1552 42.0782C37.1552 42.0782 33.7226 37.1829 29.3024 31.0704C28.6165 30.1522 27.3176 28.6201 24.8022 28.6201C24.8022 28.7002 9.17139 28.6201 9.17139 28.6201C9.39965 29.5944 9.71145 30.4769 9.98145 31.241C10.0739 31.5027 10.1614 31.7504 10.2391 31.9833L10.2396 31.9774Z" fill="#F03B25"/>
<path d="M13.5179 37.1135H21.755C22.9295 37.1135 23.7028 38.0199 24.2379 38.6471C24.3624 38.793 24.474 38.9239 24.5748 39.0246L28.159 44C23.2028 43.9199 17.6354 41.934 13.5179 37.1188V37.1135Z" fill="#F03B25"/>
<path d="M23.9662 36.1873H12.7545C11.8395 35.0417 11.1541 33.816 10.6971 32.8988H23.2028C24.8032 32.9768 26.0983 33.6622 27.3176 35.5755C27.3956 35.6529 33.0372 43.5254 33.0372 43.5254L32.0485 43.6802L28.2316 38.407C28.2316 38.407 26.6322 36.1873 23.9662 36.1873Z" fill="#F03B25"/>
</svg>
