<svg width="160" height="152" viewBox="0 0 160 152" fill="none" xmlns="http://www.w3.org/2000/svg">
<path d="M98.0189 40.817H85.2142V28.0111H67.9091V40.817H55.1045V58.1208H67.9091V70.9255H85.2142V61.2303L84.5429 60.5589C83.0503 59.2859 81.309 58.2858 79.9396 58.8696C78.8951 59.3126 77.4711 58.9775 76.6829 58.1919L65.9902 47.4966L67.22 46.2681L74.9847 54.0328C75.2932 54.3412 75.7957 54.3349 76.1029 54.0265C76.4113 53.7206 76.4113 53.2218 76.1029 52.9147L68.328 45.1601L69.5527 43.9353L77.3175 51.7014C77.6246 52.0072 78.1348 51.9971 78.442 51.69C78.7491 51.3815 78.739 50.8942 78.4318 50.587L70.6658 42.821L71.8905 41.5975L79.6553 49.3623C79.9637 49.6694 80.4726 49.6593 80.7798 49.3521C81.0882 49.045 81.0768 48.5551 80.7696 48.248L73.0048 40.4832L74.2283 39.2597L84.9287 49.9448C85.7156 50.733 86.0506 52.1583 85.6064 53.2015C85.0239 54.5722 86.024 56.3123 87.297 57.8048L87.613 58.1208H98.0189V40.817Z" fill="#0B4684"/>
<path d="M76.5618 12.3651C56.1028 12.3651 39.4589 29.0103 39.4589 49.4693C39.4589 69.9283 56.1028 86.5722 76.5618 86.5722C97.0208 86.5722 113.665 69.9283 113.665 49.4693C113.665 29.0103 97.0208 12.3651 76.5618 12.3651ZM76.5618 92.3951C52.8931 92.3951 33.6373 73.138 33.6373 49.4693C33.6373 25.7993 52.8931 6.54346 76.5618 6.54346C100.231 6.54346 119.488 25.7993 119.488 49.4693C119.488 73.138 100.231 92.3951 76.5618 92.3951Z" fill="#0B4684"/>
<path d="M76.5611 16.0978C67.6477 16.0978 59.2674 19.5689 52.9647 25.8716C46.662 32.1743 43.1908 40.5546 43.1908 49.468C43.1908 58.3827 46.662 66.763 52.9647 73.0644C59.2674 79.3684 67.6477 82.8395 76.5623 82.8395C85.4757 82.8395 93.8548 79.3684 100.157 73.0657C106.46 66.763 109.931 58.3827 109.931 49.468C109.931 40.5546 106.46 32.1743 100.157 25.8729C93.8548 19.5689 85.4744 16.0978 76.5611 16.0978ZM76.5623 84.3245C67.2517 84.3245 58.4983 80.6984 51.9138 74.114C45.3306 67.5321 41.7046 58.7786 41.7046 49.468C41.7046 40.1587 45.3306 31.4052 51.9151 24.822C58.497 18.2376 67.2504 14.6128 76.5611 14.6128C85.8717 14.6128 94.6251 18.2376 101.208 24.822C107.791 31.4052 111.418 40.1587 111.418 49.468C111.418 58.7786 107.791 67.5321 101.208 74.1153C94.6251 80.6984 85.8717 84.3245 76.5623 84.3245Z" fill="#0B4684"/>
<path d="M3.99976 145.457V102.475H27.9502V109.738H13.1809V119.62H24.757V126.884H13.1809V145.457H3.99976Z" fill="#0B4684"/>
<path d="M48.7707 129.145H57.0571L53.0047 111.763H52.8841L48.7707 129.145ZM36.8557 145.456L47.6818 102.475H58.3885L68.9124 145.456H60.9281L58.8111 136.407H47.2591L44.8997 145.456H36.8557Z" fill="#0B4684"/>
<path d="M89.0542 121.168H93.7781C97.8369 121.168 100.298 119.382 100.298 115.214C100.298 111.048 97.8369 109.262 93.7781 109.262H89.0542V121.168ZM101.43 145.456L93.4456 127.954H89.0542V145.456H79.8731V102.474H93.179C104.223 102.474 109.479 107.238 109.479 115.334C109.479 120.692 107.351 124.56 102.227 126.288L111.275 145.456H101.43Z" fill="#0B4684"/>
<path d="M123.52 145.457V102.475H148.668V109.738H132.701V119.62H144.876V126.884H132.701V138.194H149.335V145.457H123.52Z" fill="#0B4684"/>
<path d="M101.504 88.7356V89.4768H101.918C102.127 89.4768 102.271 89.4438 102.348 89.3778C102.427 89.3131 102.466 89.2179 102.466 89.0922C102.466 89.011 102.442 88.9387 102.395 88.8752C102.347 88.8118 102.295 88.7724 102.238 88.7584C102.181 88.7432 102.07 88.7356 101.903 88.7356H101.504ZM101.504 90.0136V91.232H100.711V88.1772H102.082C102.489 88.1772 102.79 88.2609 102.983 88.4297C103.177 88.5985 103.275 88.8232 103.275 89.0998C103.275 89.4654 103.094 89.7268 102.735 89.8867L103.323 91.232H102.446L101.956 90.0136H101.504ZM104.097 89.7052C104.097 89.11 103.89 88.5973 103.476 88.1695C103.064 87.7418 102.563 87.5286 101.978 87.5286C101.384 87.5286 100.877 87.7418 100.457 88.1657C100.038 88.5909 99.8276 89.1037 99.8276 89.7027C99.8276 90.3017 100.038 90.8145 100.46 91.2409C100.881 91.6674 101.382 91.8793 101.966 91.8793C102.55 91.8793 103.051 91.6674 103.469 91.2422C103.888 90.817 104.097 90.3055 104.097 89.7052ZM101.966 92.3273C101.236 92.3273 100.616 92.0684 100.106 91.5519C99.5953 91.0353 99.3402 90.4198 99.3402 89.704C99.3402 88.9894 99.5966 88.3726 100.107 87.8561C100.62 87.3395 101.239 87.0819 101.966 87.0819C102.702 87.0819 103.322 87.342 103.827 87.8637C104.332 88.3853 104.584 88.9996 104.584 89.704C104.584 90.4046 104.333 91.0163 103.829 91.5405C103.325 92.0646 102.704 92.3273 101.966 92.3273Z" fill="#0B4684"/>
<path d="M152.917 141.837V142.579H153.331C153.54 142.579 153.684 142.546 153.761 142.48C153.84 142.415 153.879 142.32 153.879 142.195C153.879 142.113 153.855 142.04 153.808 141.977C153.761 141.913 153.709 141.874 153.652 141.86C153.595 141.845 153.483 141.837 153.317 141.837H152.917ZM152.917 143.117V144.335H152.124V141.278H153.494C153.903 141.278 154.204 141.363 154.397 141.531C154.591 141.7 154.687 141.925 154.687 142.203C154.687 142.567 154.508 142.83 154.149 142.988L154.736 144.335H153.86L153.369 143.117H152.917ZM155.511 142.808C155.511 142.212 155.306 141.699 154.891 141.271C154.478 140.844 153.977 140.629 153.39 140.629C152.796 140.629 152.29 140.842 151.87 141.268C151.45 141.693 151.24 142.205 151.24 142.804C151.24 143.405 151.45 143.918 151.871 144.344C152.293 144.77 152.795 144.984 153.379 144.984C153.964 144.984 154.465 144.77 154.883 144.345C155.302 143.92 155.511 143.407 155.511 142.808ZM153.379 145.432C152.648 145.432 152.027 145.173 151.517 144.655C151.007 144.138 150.752 143.523 150.752 142.806C150.752 142.091 151.008 141.474 151.518 140.958C152.031 140.441 152.652 140.182 153.379 140.182C154.115 140.182 154.736 140.443 155.241 140.965C155.747 141.487 156 142.101 156 142.806C156 143.508 155.747 144.119 155.243 144.645C154.739 145.169 154.118 145.432 153.379 145.432Z" fill="#0B4684"/>
</svg>
