<svg width="80" height="80" viewBox="0 0 80 80" fill="none" xmlns="http://www.w3.org/2000/svg">
<path d="M67.5358 40.0055C67.5358 24.8021 55.1968 12.4632 39.9935 12.4632C24.7902 12.4632 12.4512 24.8021 12.4512 40.0055C12.4512 55.2088 24.7902 67.5478 39.9935 67.5478C55.1968 67.5478 67.5358 55.2088 67.5358 40.0055Z" fill="#00007D"/>
<path d="M75.6028 12.4631C75.6028 8.01016 71.9888 4.39612 67.5359 4.39612C63.0829 4.39612 59.4689 8.01016 59.4689 12.4631C59.4689 16.916 63.0829 20.5301 67.5359 20.5301C71.9888 20.5301 75.6028 16.916 75.6028 12.4631Z" fill="#00007D"/>
<path d="M59.4718 28.5942C59.4718 24.1413 55.8578 20.5272 51.4048 20.5272C46.9519 20.5272 43.3379 24.1413 43.3379 28.5942C43.3379 33.0471 46.9519 36.6612 51.4048 36.6612C55.8578 36.6612 59.4718 33.0471 59.4718 28.5942Z" fill="white"/>
<path d="M21.2141 35.9903H23.6227V51.6523H32.543V53.7704H21.2141V35.9903Z" fill="white"/>
<path d="M36.8882 40.8076V49.4132C36.8882 50.0749 36.9903 50.6156 37.1948 51.035C37.5719 51.8096 38.2752 52.197 39.3048 52.197C40.782 52.197 41.7879 51.5192 42.3223 50.1636C42.613 49.4374 42.7584 48.4409 42.7584 47.174V40.8076H44.937V53.7704H42.8794L42.9037 51.8581C42.6262 52.3503 42.2817 52.7658 41.87 53.1047C41.0545 53.7826 40.0648 54.1215 38.901 54.1215C37.0877 54.1215 35.8526 53.5041 35.1956 52.2696C34.8393 51.6081 34.6611 50.7245 34.6611 49.6189V40.8076H36.8882Z" fill="white"/>
<path d="M55.4431 45.9254C55.9433 45.8612 56.2783 45.6516 56.4477 45.2973C56.5443 45.1028 56.5928 44.8235 56.5928 44.4588C56.5928 43.7137 56.329 43.1731 55.8015 42.8368C55.274 42.5007 54.5191 42.3326 53.5368 42.3326C52.4013 42.3326 51.5959 42.6408 51.1208 43.257C50.8551 43.5978 50.6821 44.1046 50.6015 44.7775H48.5682C48.6084 43.1753 49.1263 42.0607 50.1216 41.4335C51.1169 40.8064 52.2714 40.4929 53.5851 40.4929C55.1082 40.4929 56.3454 40.7834 57.2965 41.3643C58.2395 41.9453 58.7109 42.8491 58.7109 44.0757V51.544C58.7109 51.7699 58.7572 51.9515 58.8501 52.0884C58.9428 52.2254 59.1385 52.2938 59.4371 52.2938C59.534 52.2938 59.6429 52.2878 59.7639 52.2757C59.885 52.2636 60.0139 52.2455 60.1512 52.2214V53.831C59.8123 53.9278 59.554 53.9884 59.3766 54.0125C59.1991 54.0367 58.9569 54.0488 58.6504 54.0488C57.9 54.0488 57.3553 53.7826 57.0164 53.2501C56.8388 52.9679 56.7138 52.5684 56.6412 52.0522C56.1974 52.6331 55.5598 53.1372 54.7289 53.5648C53.8977 53.9922 52.9817 54.2062 51.9813 54.2062C50.7789 54.2062 49.7967 53.8414 49.0342 53.1121C48.2716 52.3829 47.8904 51.4702 47.8904 50.3741C47.8904 49.1734 48.2656 48.2425 49.016 47.5817C49.7664 46.9209 50.7507 46.5138 51.9692 46.3606L55.4431 45.9254ZM50.8557 51.811C51.3157 52.1733 51.8603 52.3543 52.4897 52.3543C53.2562 52.3543 53.9985 52.1771 54.7168 51.8227C55.9271 51.2345 56.5322 50.2719 56.5322 48.9345V47.1823C56.2664 47.3524 55.9243 47.4939 55.5055 47.6073C55.0868 47.7207 54.6761 47.8015 54.2735 47.8497L52.9568 48.019C52.1676 48.1238 51.5742 48.2889 51.1765 48.5143C50.5026 48.8927 50.1659 49.4966 50.1659 50.3256C50.1659 50.9536 50.3958 51.4486 50.8557 51.811Z" fill="white"/>
<path d="M41.2743 75.9996L41.2455 75.1737C42.2667 75.1381 43.2963 75.0576 44.3054 74.9343L44.4056 75.7545C43.3729 75.8806 42.3193 75.9631 41.2743 75.9996ZM38.1333 75.9741C37.09 75.9207 36.0378 75.821 35.0062 75.6778L35.1198 74.8594C36.1278 74.9993 37.1559 75.0966 38.1754 75.1488L38.1333 75.9741ZM47.5043 75.2376L47.3328 74.4293C48.3304 74.2177 49.3301 73.9592 50.3041 73.661L50.546 74.4511C49.5488 74.7564 48.5255 75.0209 47.5043 75.2376ZM31.9164 75.1099C30.8999 74.8765 29.881 74.5951 28.8882 74.2731L29.143 73.4871C30.1129 73.8016 31.1083 74.0766 32.1012 74.3045L31.9164 75.1099ZM53.5069 73.4005L53.1966 72.6347C54.1402 72.2525 55.0791 71.8233 55.9873 71.359L56.3633 72.0948C55.4337 72.5699 54.4727 73.0093 53.5069 73.4005ZM25.9435 73.1728C24.9833 72.7652 24.029 72.3096 23.107 71.8188L23.4953 71.0894C24.396 71.5689 25.3284 72.014 26.2664 72.4122L25.9435 73.1728ZM59.0953 70.5442L58.6564 69.8441C59.5198 69.3028 60.3701 68.7168 61.1839 68.1023L61.6818 68.7617C60.849 69.3906 59.9788 69.9902 59.0953 70.5442ZM20.4 70.2225C19.5259 69.6542 18.6654 69.04 17.8424 68.3969L18.3512 67.7458C19.1554 68.3743 19.9962 68.9745 20.8503 69.5298L20.4 70.2225ZM64.1043 66.7613L63.5512 66.1477C64.3087 65.4647 65.0454 64.7406 65.7405 63.9952L66.3448 64.5587C65.6333 65.3214 64.8796 66.0625 64.1043 66.7613ZM15.453 66.3565C14.6897 65.6452 13.9482 64.8918 13.2493 64.1171L13.8627 63.5637C14.5457 64.3206 15.2703 65.0569 16.0163 65.752L15.453 66.3565ZM68.3862 62.1703L67.7355 61.6612C68.3642 60.8575 68.9648 60.0169 69.5206 59.1629L70.2131 59.6136C69.6443 60.4876 69.0297 61.3478 68.3862 62.1703ZM11.2478 61.6956C10.6181 60.8628 10.018 59.9927 9.46405 59.1097L10.1639 58.6706C10.7052 59.5333 11.2917 60.3835 11.9069 61.1973L11.2478 61.6956ZM71.8109 56.9074L71.0816 56.5188C71.5616 55.6183 72.0071 54.6862 72.4057 53.7483L73.1663 54.0716C72.758 55.0316 72.302 55.9857 71.8109 56.9074ZM7.91226 56.3789C7.43679 55.4498 6.99699 54.4891 6.60498 53.5231L7.37068 53.2124C7.75357 54.1562 8.18324 55.0948 8.64776 56.0023L7.91226 56.3789ZM74.2678 51.1274L73.482 50.8722C73.7968 49.9032 74.0723 48.908 74.301 47.9143L75.1062 48.0996C74.8721 49.1168 74.59 50.1356 74.2678 51.1274ZM5.55293 50.5624C5.24711 49.5651 4.98198 48.5419 4.76494 47.5212L5.57309 47.3492C5.78519 48.3464 6.04415 49.3459 6.3429 50.3203L5.55293 50.5624ZM75.6757 45.0101L74.8573 44.8961C74.9977 43.8884 75.0956 42.8604 75.1481 41.8407L75.9734 41.8833C75.9195 42.9267 75.8194 43.9788 75.6757 45.0101ZM4.24656 44.4228C4.1199 43.3896 4.0369 42.3362 4 41.2916L4.8258 41.2624C4.86178 42.2831 4.94288 43.3126 5.06665 44.3223L4.24656 44.4228ZM75.1742 38.7707C75.1387 37.7519 75.0577 36.7221 74.9333 35.7099L75.7534 35.6091C75.8806 36.6452 75.9636 37.6992 76 38.7419L75.1742 38.7707ZM4.84908 38.1924L4.02389 38.1506C4.07676 37.1071 4.17589 36.055 4.3186 35.0234L5.1371 35.1366C4.99765 36.1446 4.90073 37.1727 4.84908 38.1924ZM74.4265 32.6816C74.2144 31.6841 73.9558 30.684 73.6576 29.709L74.4478 29.4674C74.753 30.4653 75.0176 31.4889 75.2347 32.5098L74.4265 32.6816ZM5.69047 32.1178L4.88506 31.9334C5.11801 30.9162 5.39903 29.8973 5.72037 28.9047L6.50646 29.1592C6.19257 30.1288 5.91802 31.1242 5.69047 32.1178ZM72.6329 26.8146C72.2507 25.8689 71.8222 24.9289 71.3595 24.0207L72.0957 23.6455C72.5694 24.575 73.0078 25.5372 73.399 26.5051L72.6329 26.8146ZM7.57989 26.282L6.81913 25.9595C7.22636 24.999 7.68145 24.0445 8.17175 23.1224L8.90132 23.5102C8.42235 24.4112 7.97768 25.3437 7.57989 26.282ZM10.4597 20.8645L9.76675 20.4145C10.3348 19.5398 10.9487 18.679 11.5912 17.856L12.2425 18.3645C11.6146 19.1687 11.0148 20.0099 10.4597 20.8645ZM14.2352 16.0286L13.6304 15.4657C14.3413 14.702 15.0943 13.9601 15.8686 13.2609L16.4224 13.874C15.6658 14.5575 14.9298 15.2823 14.2352 16.0286ZM18.7878 11.9171L18.2892 11.2582C19.1216 10.6283 19.9913 10.0278 20.8741 9.47329L21.3136 10.173C20.451 10.7148 19.6012 11.3016 18.7878 11.9171ZM59.1698 10.4821L59.1245 10.4529L59.5741 9.75948L59.6177 9.78778L59.1698 10.4821ZM56.4771 8.89853C55.576 8.42116 54.643 7.97787 53.7041 7.58091L54.0258 6.81992C54.9868 7.22609 55.9417 7.6798 56.8639 8.16844L56.4771 8.89853ZM23.9812 8.65532L23.6044 7.91998C24.5334 7.44389 25.4941 7.00365 26.4595 6.6114L26.7705 7.37695C25.8274 7.76014 24.8888 8.19027 23.9812 8.65532ZM50.8266 6.50999C49.8563 6.19626 48.8605 5.92162 47.8668 5.69378L48.0515 4.88844C49.0686 5.12161 50.0878 5.40271 51.0809 5.72375L50.8266 6.50999ZM29.6622 6.34772L29.4196 5.55783C30.4165 5.25163 31.4396 4.98605 32.4605 4.76832L32.6328 5.57639C31.6355 5.7891 30.636 6.04859 29.6622 6.34772ZM44.847 5.13858C43.8368 4.99822 42.8084 4.90069 41.7901 4.84881L41.8322 4.02362C42.8743 4.07672 43.9269 4.17653 44.9608 4.32023L44.847 5.13858ZM35.6596 5.06866L35.5586 4.24849C36.5914 4.12137 37.6449 4.03792 38.6897 4.00049L38.7193 4.82621C37.6982 4.8628 36.6688 4.94436 35.6596 5.06866Z" fill="#929292"/>
</svg>
