<svg width="216" height="48" viewBox="0 0 216 48" fill="none" xmlns="http://www.w3.org/2000/svg">
<path d="M26.5199 24.2221L21.2557 29.4863V18.5238H12.2137C10.7603 18.5238 9.36642 19.101 8.33855 20.1285C7.31067 21.156 6.73295 22.5497 6.73242 24.003V24.008C6.73242 24.7279 6.8742 25.4406 7.14966 26.1056C7.42511 26.7706 7.82886 27.3749 8.33784 27.8839C9.36577 28.9118 10.7599 29.4893 12.2137 29.4893H21.2527L26.5169 24.2221H26.5199Z" fill="#FFD300"/>
<path d="M26.5195 24.2221L32.2188 18.5228V29.4853H41.2609C42.7146 29.4853 44.1088 28.9078 45.1367 27.8799C46.1646 26.852 46.7421 25.4578 46.7421 24.0041C46.7421 22.5504 46.1646 21.1562 45.1367 20.1282C44.1088 19.1003 42.7146 18.5228 41.2609 18.5228H32.2278L26.5265 24.2141L26.5195 24.2221Z" fill="#99BFBC"/>
<path d="M32.2184 38.5283V18.5217L26.5201 24.22L21.2549 29.4852V38.5193C21.2549 39.973 21.8324 41.3671 22.8603 42.3951C23.8882 43.423 25.2824 44.0005 26.7361 44.0005C28.1898 44.0005 29.584 43.423 30.6119 42.3951C31.6399 41.3671 32.2174 39.973 32.2174 38.5193L32.2184 38.5283Z" fill="#0F3C6C"/>
<path d="M26.52 24.2221L32.2193 18.5228V9.48173C32.2193 8.02801 31.6418 6.63384 30.6139 5.60591C29.586 4.57797 28.1918 4.00049 26.7381 4.00049C25.2844 4.00049 23.8902 4.57797 22.8623 5.60591C21.8343 6.63384 21.2568 8.02801 21.2568 9.48173V29.4883L26.528 24.2241L26.52 24.2221Z" fill="#EF4931"/>
<path d="M158.563 14.6109H155.499C155.428 14.6109 155.36 14.6392 155.309 14.6894C155.259 14.7397 155.231 14.8079 155.231 14.879V26.7717C155.231 31.0326 158.005 33.7853 162.296 33.7853C166.603 33.7853 169.387 31.0326 169.387 26.7737V14.878C169.387 14.8426 169.38 14.8076 169.367 14.7749C169.353 14.7423 169.333 14.7126 169.308 14.6877C169.283 14.6628 169.253 14.6431 169.22 14.6297C169.188 14.6164 169.152 14.6097 169.117 14.6099H166.028C165.957 14.6099 165.889 14.6382 165.839 14.6884C165.789 14.7387 165.76 14.8069 165.76 14.878V26.5906C165.76 28.9912 164.53 30.3135 162.296 30.3135C160.095 30.3135 158.831 28.9572 158.831 26.5926V14.878C158.831 14.8069 158.802 14.7387 158.752 14.6884C158.702 14.6382 158.634 14.6099 158.563 14.6099V14.6109ZM209 14.6109H197.726C197.69 14.6107 197.655 14.6174 197.622 14.6307C197.59 14.6441 197.56 14.6638 197.535 14.6887C197.51 14.7136 197.49 14.7433 197.476 14.7759C197.462 14.8086 197.455 14.8436 197.455 14.879V33.1331C197.455 33.2801 197.576 33.4002 197.726 33.4002H209C209.148 33.4002 209.268 33.2801 209.268 33.1321V30.2485C209.268 30.1774 209.24 30.1092 209.19 30.0589C209.139 30.0086 209.071 29.9804 209 29.9804H201.081V25.6754H208.228C208.376 25.6754 208.496 25.5554 208.496 25.4084V22.6027C208.496 22.5316 208.468 22.4635 208.417 22.4132C208.367 22.3629 208.299 22.3347 208.228 22.3347H201.081V18.0317H209C209.148 18.0317 209.268 17.9117 209.268 17.7636V14.88C209.268 14.7299 209.148 14.6099 209 14.6099V14.6109ZM140.953 30.4685C138.308 30.4685 137.197 28.6301 137.048 27.0557C137.044 27.0165 137.032 26.9786 137.012 26.9447C136.992 26.9108 136.964 26.8818 136.932 26.8597C136.899 26.8376 136.862 26.8229 136.823 26.8165C136.784 26.8101 136.745 26.8122 136.707 26.8227L133.823 27.6469C133.762 27.6646 133.709 27.7035 133.674 27.7566C133.638 27.8097 133.623 27.8736 133.63 27.9369C133.94 30.8476 136.323 33.7883 140.944 33.7883C145.362 33.7883 147.675 30.8676 147.675 27.9869C147.675 25.1823 145.745 23.1158 142.517 22.4757L139.896 21.9356C138.653 21.6655 137.969 20.9254 137.969 19.8551C137.969 18.5318 139.231 17.4966 140.842 17.4966C142.984 17.4966 143.965 18.8869 144.155 20.0772C144.162 20.1151 144.176 20.1512 144.197 20.1832C144.219 20.2151 144.247 20.2421 144.279 20.2624C144.312 20.2826 144.349 20.2957 144.387 20.3006C144.425 20.3056 144.464 20.3024 144.5 20.2912L147.281 19.417C147.411 19.377 147.491 19.241 147.461 19.1069C147.231 17.9617 146.069 14.2308 140.817 14.2308C137.249 14.2308 134.345 16.8574 134.345 20.0852C134.345 22.8378 136.158 24.8512 139.192 25.4694L141.766 26.0095C143.164 26.3096 143.999 27.1358 143.999 28.22C143.999 29.6103 142.831 30.4745 140.949 30.4745L140.953 30.4685ZM181.519 14.6109H178.428C178.357 14.6112 178.289 14.6395 178.239 14.6898C178.189 14.74 178.161 14.8081 178.161 14.879V33.1331C178.161 33.2801 178.281 33.4002 178.429 33.4002H189.886C190.034 33.4002 190.154 33.2801 190.154 33.1321V30.1964C190.154 30.1254 190.126 30.0572 190.075 30.0069C190.025 29.9566 189.957 29.9284 189.886 29.9284H181.787V14.879C181.787 14.8079 181.759 14.7397 181.708 14.6894C181.658 14.6392 181.59 14.6109 181.519 14.6109ZM75.3148 17.6696C77.9314 17.6696 79.7688 19.0499 80.356 21.4555C80.3651 21.4912 80.3815 21.5248 80.4041 21.554C80.4267 21.5832 80.455 21.6074 80.4874 21.6252C80.5197 21.643 80.5553 21.654 80.5921 21.6575C80.6288 21.661 80.6659 21.6569 80.701 21.6455L83.6117 20.6753C83.6755 20.6535 83.7288 20.6084 83.7608 20.5491C83.7929 20.4898 83.8015 20.4206 83.7847 20.3552C82.6195 15.8392 78.6436 14.2308 75.3128 14.2308C72.8353 14.2308 70.5057 15.158 68.7553 16.8394C66.8549 18.6638 65.8467 21.1484 65.8467 24.0271C65.8467 30.4385 70.6178 33.7953 75.3308 33.7953C80.392 33.7953 83.0846 30.4285 83.8528 27.5438C83.8699 27.4778 83.8612 27.4078 83.8285 27.348C83.7958 27.2881 83.7415 27.243 83.6767 27.2218L80.8461 26.2946C80.8119 26.2838 80.776 26.2799 80.7403 26.2831C80.7047 26.2864 80.67 26.2966 80.6383 26.3134C80.6067 26.3302 80.5787 26.353 80.556 26.3807C80.5333 26.4084 80.5163 26.4403 80.506 26.4746C80.2359 27.3708 79.0657 30.2985 75.3288 30.2985C72.5432 30.2985 69.5475 28.334 69.5475 24.0271C69.5475 19.6661 72.5322 17.6776 75.3048 17.6776L75.3148 17.6696ZM92.7318 33.3992C92.8448 33.3992 92.9458 33.3292 92.9838 33.2241L94.6182 28.8171H101.97L103.63 33.2281C103.648 33.2805 103.682 33.3259 103.726 33.3582C103.771 33.3905 103.825 33.408 103.88 33.4082H107.258C107.306 33.4083 107.354 33.3954 107.395 33.3709C107.437 33.3463 107.471 33.3111 107.494 33.2688C107.517 33.2265 107.528 33.1788 107.527 33.1306C107.525 33.0824 107.51 33.0356 107.484 32.9951L100.393 14.791C100.373 14.7404 100.339 14.6969 100.294 14.6661C100.25 14.6354 100.197 14.619 100.142 14.6189H96.5616C96.5077 14.6191 96.4551 14.6354 96.4106 14.6657C96.366 14.696 96.3315 14.7389 96.3116 14.789L89.21 33.0401C89.1943 33.0808 89.1887 33.1248 89.1937 33.1682C89.1988 33.2116 89.2142 33.2531 89.2388 33.2892C89.2634 33.3253 89.2964 33.3548 89.3349 33.3754C89.3734 33.396 89.4164 33.4069 89.46 33.4072H92.7308L92.7318 33.3992ZM98.293 18.9939L100.689 25.4234H95.9005L98.294 18.9939H98.293ZM117.795 33.3992C117.943 33.3992 118.064 33.2791 118.064 33.1311V26.2696H121.476C125.06 26.2696 127.563 23.872 127.563 20.4382C127.563 17.0075 125.06 14.6099 121.476 14.6099H114.705C114.634 14.6102 114.566 14.6385 114.516 14.6888C114.466 14.739 114.438 14.8071 114.438 14.878V33.1321C114.438 33.2791 114.558 33.3992 114.708 33.3992H117.798H117.795ZM118.064 17.8757H121.014C122.813 17.8757 123.885 18.8439 123.885 20.4662C123.885 22.0546 122.813 23.0028 121.014 23.0028H118.064V17.8757Z" fill="#0F3C6C"/>
</svg>
