<svg width="160" height="64" viewBox="0 0 160 64" fill="none" xmlns="http://www.w3.org/2000/svg">
<path fill-rule="evenodd" clip-rule="evenodd" d="M20.1361 23.9329H4V40.069H20.1361V56.2035H36.2714V40.069H52.4067V23.9329H36.2714V7.79761H20.1361V23.9329Z" fill="#CC2131"/>
<path fill-rule="evenodd" clip-rule="evenodd" d="M76.9564 20.45H74.3452L75.6679 16.1724L76.9564 20.45ZM68.8652 24.8478H72.9876L73.5206 23.1644H77.7461L78.2791 24.8478H82.4007L77.8664 12.7203H73.5035L68.8652 24.8478ZM86.9187 17.2375C87.195 16.7915 87.7945 15.7434 89.7371 15.7434C90.0467 15.7434 90.5431 15.7775 91.0939 15.9498C92.2443 16.3105 92.5888 16.9467 92.8285 17.4098C93.0869 16.8256 93.8944 15.7434 95.9215 15.7434C96.8834 15.7434 97.8113 16.0522 98.3954 16.6371C99.2014 17.4276 99.2209 18.3896 99.2363 19.2305V24.8478H95.6981V20.1924C95.6981 19.6253 95.6818 18.6642 94.4623 18.6642C93.1738 18.6642 93.1567 19.7114 93.1567 20.1063V24.8648H89.6185V20.0551C89.6185 19.8837 89.6014 19.7114 89.5681 19.54C89.413 18.8527 88.8125 18.6642 88.3811 18.6642C88.0212 18.6642 87.6605 18.7836 87.4192 19.0241C87.0926 19.3507 87.0926 19.7114 87.0763 20.021V24.8648H83.5381V15.9668H86.9212V17.2375H86.9187ZM104.252 19.1614C104.337 18.7666 104.526 17.8387 105.592 17.8387C106.071 17.8387 106.622 18.1133 106.776 18.7487C106.811 18.886 106.811 19.0233 106.828 19.1614H104.252ZM107.327 21.5492C106.965 22.2707 106.519 22.7005 105.712 22.7005C105.059 22.7005 104.733 22.3738 104.646 22.2877C104.252 21.8929 104.235 21.429 104.218 21.0341H110.435C110.402 19.6765 110.385 18.1995 109.078 16.9109C107.996 15.8629 106.587 15.5882 105.505 15.5882C102.62 15.5882 100.61 17.4609 100.61 20.3638C100.61 22.8378 102.225 25.2077 105.525 25.2077C107.654 25.2077 109.199 24.3668 110.247 22.7687L107.327 21.5492ZM115.125 16.7224C116.087 15.8637 116.739 15.7605 118.097 15.7605V18.7487C117.856 18.7316 117.615 18.7146 117.375 18.7146C115.296 18.7146 115.261 20.0714 115.244 20.6555V24.8469H111.723V15.8978H115.125V16.7224ZM119.231 12.7195H122.769V15.0732H119.231V12.7195ZM119.231 15.9498H122.769V24.8478H119.231V15.9498ZM133.471 22.4592C133.247 22.9401 133.058 23.3187 132.61 23.7648C132.112 24.2799 130.962 25.1906 128.901 25.1906C125.964 25.1906 124.161 23.1977 124.161 20.3297C124.161 18.8527 124.692 17.6494 125.43 16.8939C126.667 15.6053 128.437 15.5362 129.106 15.5362C129.707 15.5362 131.409 15.5533 132.765 16.928C133.108 17.2708 133.263 17.5113 133.47 17.855L130.772 19.384C130.549 18.5943 130.12 18.0272 129.278 18.0272C128.195 18.0272 127.664 19.0924 127.664 20.4313C127.664 21.1357 127.8 22.4754 129.192 22.4754C130.274 22.4754 130.619 21.4444 130.772 20.9813L133.471 22.4592ZM140.153 20.7075C140.153 21.017 140.153 21.3778 139.982 21.7556C139.672 22.4429 138.847 22.7695 138.349 22.7695C137.679 22.7695 137.473 22.3227 137.473 22.0822C137.473 21.979 137.508 21.5671 138.193 21.2917C138.503 21.1893 138.812 21.1202 139.104 21.052C139.466 20.948 139.809 20.8277 140.153 20.7075ZM137.816 18.5431C137.936 17.924 138.16 17.7185 138.968 17.7185C139.982 17.7185 140.153 18.1304 140.17 18.7316C139.637 18.886 139.259 18.9721 138.28 19.1102C136.717 19.3158 135.754 19.4531 134.946 20.2785C134.311 20.9139 134.19 21.6524 134.19 22.1854C134.19 23.6965 135.169 25.0533 137.402 25.0533C139.07 25.0533 139.893 24.47 140.341 24.1604V24.8478H143.827C143.57 24.487 143.517 24.3319 143.517 23.7477V18.9039C143.517 17.8387 143.517 15.6573 139.292 15.6573C138.363 15.6573 137.094 15.7426 136.097 16.2585C134.827 16.9288 134.637 17.8737 134.499 18.6284L137.816 18.5431ZM148.622 17.1352C148.912 16.7224 149.582 15.7264 151.542 15.7264C152.949 15.7264 153.654 16.2756 153.946 16.551C154.789 17.3748 154.84 18.561 154.84 19.2305V24.8478H151.301V19.986C151.301 19.5392 151.284 18.6463 150.1 18.6463C148.845 18.6463 148.811 19.6253 148.811 20.1063V24.8478H145.273V15.9498H148.623V17.1352H148.622ZM74.4053 30.5821C75.0756 30.5821 76.2772 30.6162 76.2772 32.0071C76.2772 33.3809 75.0577 33.4159 74.4224 33.4159H72.8251V30.5812H74.4053V30.5821ZM68.9773 40.1844H72.8251V35.9077H73.9585L76.3114 40.1844H80.5719L77.617 35.2894C78.1841 35.066 78.6992 34.8767 79.1801 34.3608C80.0568 33.4687 80.1079 32.3865 80.1079 31.9218C80.1079 30.7535 79.627 29.105 78.0126 28.4177C77.2733 28.1089 76.174 28.0399 75.0236 28.0399H68.9773V40.1844ZM84.1442 34.4989C84.2311 34.104 84.4188 33.177 85.4847 33.177C85.9641 33.177 86.5149 33.45 86.6685 34.0862C86.7034 34.2243 86.7034 34.3608 86.7205 34.4989H84.1442ZM87.2201 36.8875C86.8586 37.6081 86.4126 38.0379 85.6066 38.0379C84.9526 38.0379 84.626 37.7113 84.5407 37.6252C84.1458 37.2303 84.128 36.7664 84.1125 36.3716H90.3294C90.2945 35.0148 90.279 33.5377 88.9726 32.2492C87.8904 31.2011 86.4833 30.9265 85.4011 30.9265C82.5144 30.9265 80.5052 32.7984 80.5052 35.7005C80.5052 38.176 82.1196 40.5451 85.4165 40.5451C87.5459 40.5451 89.0928 39.7043 90.1401 38.1062L87.2201 36.8875ZM95.1034 37.4708C94.8637 37.2125 94.607 36.7315 94.607 35.7176C94.607 35.3065 94.6403 34.9799 94.7101 34.6703C95.0181 33.5532 95.8606 33.5532 95.9808 33.5532C96.3074 33.5532 96.9598 33.7433 97.2166 34.585C97.3368 34.9465 97.353 35.3227 97.353 35.7005C97.353 36.1482 97.353 36.9728 96.8899 37.4538C96.6503 37.6951 96.3237 37.8486 95.9979 37.8486C95.6534 37.8486 95.3284 37.7105 95.1034 37.4708ZM97.2694 31.9047C96.9078 31.5789 96.3407 31.0289 95.0018 31.0289C93.0592 31.0289 91.1191 32.4198 91.1191 35.5291C91.1191 38.328 92.5791 40.407 95.1212 40.407C95.4828 40.407 95.9638 40.3737 96.4618 40.1852C96.9598 39.9967 97.1312 39.8074 97.3725 39.5312V40.1852H100.807V28.0578H97.2694V31.9047ZM118.673 37.0589C118.363 37.6431 118.071 38.1923 117.487 38.7756C116.25 39.9959 114.515 40.5622 112.781 40.5622C108.452 40.5622 106.494 37.2994 106.494 34.1893C106.494 30.9257 108.675 27.6101 112.781 27.6101C114.618 27.6101 116.37 28.2633 117.641 29.5689C118.157 30.1011 118.396 30.5138 118.655 30.9948L115.443 32.5912C115.134 31.8706 114.549 30.5821 112.934 30.5821C112.093 30.5821 111.56 30.9769 111.301 31.2353C110.392 32.1111 110.392 33.4849 110.392 33.9659C110.392 35.7704 111.062 37.4708 112.951 37.4708C114.738 37.4708 115.271 35.8906 115.407 35.4779L118.673 37.0589ZM122.931 32.0599C123.895 31.2003 124.547 31.0971 125.903 31.0971V34.0862C125.662 34.0691 125.422 34.0512 125.183 34.0512C123.104 34.0512 123.069 35.408 123.052 35.9938V40.1844H119.531V31.2353H122.931V32.0599ZM131.692 33.3996C133.307 33.3493 133.341 35.1358 133.341 35.6672C133.341 37.0061 132.946 38.055 131.709 38.055C130.267 38.055 130.061 36.5601 130.061 35.7005C130.061 34.7036 130.352 33.4346 131.692 33.3996ZM131.795 30.9086C128.514 30.8916 126.54 32.8837 126.54 35.8053C126.54 38.1923 128.017 40.5273 131.606 40.5273C134.974 40.5273 136.914 38.553 136.914 35.7525C136.914 34.3437 136.365 33.004 135.522 32.1964C134.836 31.5448 133.6 30.9257 131.795 30.9086ZM139.474 36.9379C139.8 37.2645 140.126 37.5569 140.813 37.8486C141.449 38.1053 141.93 38.1403 142.222 38.1403C142.651 38.1403 143.15 37.9851 143.15 37.5911C143.15 37.1434 142.617 37.0581 142.256 37.0053C141.947 36.9533 141.209 36.8339 140.402 36.5942C139.576 36.3529 137.944 35.8719 137.944 33.9822C137.944 33.1916 138.305 32.4718 138.839 31.9559C139.887 30.9598 141.398 30.9249 141.981 30.9249C142.652 30.9249 143.322 31.011 143.992 31.1654C145.212 31.4579 145.726 31.8357 146.226 32.2134L144.317 33.948C143.717 33.5702 142.978 33.1071 142.033 33.1071C141.895 33.1071 141.277 33.1071 141.277 33.5702C141.277 33.8968 141.517 33.948 142.702 34.2397C144.283 34.6012 144.66 34.6874 145.09 34.9092C145.984 35.3918 146.482 36.2148 146.482 37.2287C146.482 38.9804 145.02 40.5265 142.256 40.5265C139.713 40.5265 138.253 39.3598 137.498 38.7415L139.474 36.9379ZM148.99 36.9379C149.366 37.335 149.823 37.6458 150.331 37.8486C150.965 38.1053 151.446 38.1403 151.738 38.1403C152.166 38.1403 152.666 37.9851 152.666 37.5911C152.666 37.1434 152.133 37.0581 151.773 37.0053C151.463 36.9533 150.725 36.8339 149.918 36.5942C149.092 36.3529 147.462 35.8719 147.462 33.9822C147.462 33.1916 147.822 32.4718 148.356 31.9559C149.403 30.9598 150.915 30.9249 151.497 30.9249C152.167 30.9249 152.838 31.011 153.508 31.1654C154.728 31.4579 155.244 31.8357 155.741 32.2134L153.835 33.948C153.233 33.5702 152.496 33.1071 151.55 33.1071C151.412 33.1071 150.795 33.1071 150.795 33.5702C150.795 33.8968 151.036 33.948 152.22 34.2397C153.8 34.6012 154.178 34.6874 154.607 34.9092C155.501 35.3918 155.999 36.2148 155.999 37.2287C155.999 38.9804 154.539 40.5265 151.774 40.5265C149.231 40.5265 147.771 39.3598 147.017 38.7415L148.99 36.9379Z" fill="black"/>
</svg>
