<svg width="208" height="48" viewBox="0 0 208 48" fill="none" xmlns="http://www.w3.org/2000/svg">
<path d="M25.9949 4C37.046 4 46.0061 12.9537 46.0053 24C46.0053 35.0447 37.0452 44 25.9949 44C14.9446 44 5.98535 35.0447 5.98535 24C5.98535 12.9537 14.9446 4 25.9949 4ZM25.9949 5.11363C15.558 5.11363 7.10058 13.5694 7.10058 24C7.10058 34.4274 15.558 42.8856 25.9949 42.8856C36.4279 42.8856 44.89 34.4274 44.89 24C44.89 13.5694 36.4279 5.11363 25.9949 5.11363ZM23.8409 16.246C25.3935 16.246 26.6545 17.5062 26.6545 19.0619C26.6545 19.191 26.6409 19.3216 26.625 19.4515L32.9484 21.1904C33.2933 20.6766 33.8796 20.3389 34.5415 20.3389C35.6066 20.3389 36.4645 21.196 36.4653 22.2563C36.4653 23.3149 35.6058 24.1745 34.5415 24.1745C33.8947 24.1745 33.3196 23.8494 32.9738 23.3556L25.2063 27.423C25.4246 27.9176 25.5472 28.4601 25.5472 29.0329C25.5472 31.2474 23.7493 33.0413 21.5372 33.0413C19.3219 33.0413 17.5287 31.2474 17.5287 29.0329C17.5287 26.8215 19.3219 25.0276 21.5372 25.0276C21.8327 25.0276 22.1163 25.0595 22.3919 25.1192L22.9344 21.721C21.824 21.3434 21.0258 20.2935 21.0258 19.0619C21.0258 17.5062 22.286 16.246 23.8409 16.246ZM26.4482 20.1095C26.0355 21.1418 25.0247 21.8715 23.8409 21.8715C23.7573 21.8715 23.6808 21.8683 23.602 21.8619L23.0483 25.3239C23.8003 25.6298 24.436 26.1564 24.8797 26.8247L32.6879 22.7358C32.6488 22.5805 32.6249 22.4204 32.6249 22.2547C32.6249 22.1041 32.6456 21.9599 32.6743 21.8213L26.4482 20.1095Z" fill="#232E44"/>
<path d="M74.8729 17.6105C75.9037 16.4332 78.0776 15.3331 81.1477 15.8429C83.8306 16.2882 85.1418 17.5819 86.0212 19.5925C87.0281 21.8922 87.2886 26.3643 85.7782 29.1571C84.5881 31.3581 82.6261 32.6836 79.6477 32.6836C76.3116 32.6836 74.8275 31.39 74.8275 31.39V38.5179H73.0957V23.2401C73.0957 21.1108 73.6948 18.9576 74.8729 17.6105ZM92.48 17.6105C93.5107 16.4332 95.6846 15.3331 98.7547 15.8429C101.438 16.2882 102.749 17.5819 103.628 19.5925C104.635 21.8922 104.895 26.3643 103.384 29.1571C102.194 31.3581 100.232 32.6836 97.2539 32.6836C93.9186 32.6836 92.4345 31.39 92.4345 31.39V38.5179H90.7028V23.2401C90.7028 21.1108 91.301 18.9576 92.48 17.6105ZM60.3017 15.7959C68.2039 14.7396 68.4874 19.79 68.6332 20.871C68.975 23.4121 69.1191 26.4591 68.6133 28.4107C68.2827 29.6908 67.6956 31.5166 65.1147 32.3307C61.5826 33.4444 54.9183 32.8199 55.8694 26.3531C56.6392 21.1219 66.7279 22.4097 67.1312 22.4633L67.1436 22.465C66.9699 18.8206 65.6046 17.6655 63.7262 17.3716C60.2626 16.8307 58.2417 18.5625 58.2417 18.5625L57.3559 17.0784C57.3559 17.0784 58.4942 16.0373 60.3017 15.7959ZM130.442 15.7959C138.344 14.7396 138.631 19.79 138.773 20.871C139.116 23.4121 139.259 26.4591 138.754 28.4107C138.424 29.6908 137.835 31.5166 135.254 32.3307C131.722 33.4444 125.058 32.8199 126.01 26.3531C126.764 21.2287 136.46 22.3598 137.234 22.4585L137.283 22.465C137.11 18.8206 135.745 17.6655 133.868 17.3716C130.403 16.8307 128.382 18.5625 128.382 18.5625L127.497 17.0784C127.497 17.0784 128.635 16.0373 130.442 15.7959ZM110.331 9.94177V17.1007C110.331 17.1007 111.863 15.8071 115.199 15.8071C118.177 15.8071 120.186 17.1318 121.379 19.3328C122.889 22.1248 122.629 26.5961 121.622 28.8982C120.742 30.9064 119.406 32.2017 116.723 32.6486C113.653 33.1576 111.455 32.0583 110.423 30.8794C109.245 29.5315 108.598 27.3791 108.598 25.2499V9.94177H110.331ZM176.72 29.5698V32.745H175.567V29.5698H176.72ZM182.493 15.7147V32.745H181.34V15.7147H182.493ZM152.282 17.3485L151.236 18.4844L151.224 18.4722C151.046 18.2962 148.942 16.2977 146.031 17.4536C144.644 18.0025 144.064 19.4467 144.345 20.5253C144.681 21.8245 145.973 22.6793 147.664 23.1238C151.504 24.133 152.528 25.5526 152.779 27.3568C153.147 30.0015 151.065 32.7139 148 32.7259C144.248 32.7426 142.083 30.1473 142.083 30.1473L143.454 28.9922C143.454 28.9922 148.219 33.3265 150.935 29.4256C151.704 28.3191 151.512 26.1062 148.793 25.0953C145.677 23.9371 143.19 23.3643 142.66 20.8638C141.707 16.3567 147.712 13.7909 152.282 17.3485ZM164.067 15.7051C168.156 15.7505 170.571 18.1674 170.819 21.8269C170.876 22.6665 170.964 24.3895 170.819 25.1941L158.226 25.1821L158.226 25.1991C158.229 25.4639 158.327 28.7625 160.968 30.3775C162.622 31.3884 166.165 31.9643 169.435 30.0214L170.199 31.3438C170.199 31.3438 168.549 32.741 164.86 32.7236C157.878 32.6868 155.855 27.9662 156.77 22.1025C157.252 19.0237 159.689 15.6557 164.067 15.7051ZM194.365 15.7131C198.589 15.7131 202.014 19.5024 202.014 24.1753C202.014 28.8488 198.589 32.6382 194.365 32.6382C190.14 32.6382 186.715 28.8488 186.715 24.1753C186.715 19.5017 190.14 15.7131 194.365 15.7131ZM194.365 17.0139C190.756 17.0139 187.833 20.2497 187.833 24.2422C187.833 28.2339 190.758 31.4704 194.365 31.4704C197.974 31.4704 200.899 28.2331 200.898 24.2422C200.898 20.2497 197.973 17.0139 194.365 17.0139ZM115.625 17.3891C111.734 17.1254 110.379 19.0341 110.379 19.0341C110.332 22.2093 110.285 25.3478 110.489 27.1625C110.578 27.9431 111.531 31.5947 115.697 31.3159C119.729 31.0474 120.741 28.2323 120.835 24.2159C120.945 19.606 118.834 17.605 115.625 17.3891ZM67.1516 24.18C67.1516 24.18 64.5666 23.3826 60.6458 24.18C56.7991 24.9615 56.8564 28.402 57.8163 29.5976C59.3251 31.48 62.8723 31.6783 65.3146 30.5774C67.5708 29.5606 67.2774 25.3705 67.1756 24.3872L67.1643 24.2839C67.1566 24.2164 67.1516 24.18 67.1516 24.18ZM137.292 24.18C137.292 24.18 134.708 23.3826 130.786 24.18C126.94 24.9615 126.997 28.402 127.958 29.5976C129.464 31.48 133.014 31.6783 135.454 30.5774C138.016 29.4232 137.292 24.18 137.292 24.18ZM80.097 17.174C75.9324 16.8952 74.9781 20.5476 74.8896 21.3274C74.7025 22.9988 74.7249 25.794 74.7682 28.7053L74.7797 29.4559C74.7797 29.4559 76.1355 31.3629 80.0261 31.1008C83.2355 30.8857 85.3473 28.8831 85.2366 24.274C85.1402 20.2568 84.1301 17.4433 80.097 17.174ZM97.7056 17.174C93.5418 16.8952 92.5867 20.5476 92.4991 21.3274C92.3105 22.9988 92.3341 25.794 92.377 28.7053L92.3884 29.4559C92.3884 29.4559 93.7441 31.3629 97.6339 31.1008C100.843 30.8857 102.955 28.8831 102.844 24.274C102.747 20.2568 101.737 17.4433 97.7056 17.174ZM164.036 17.1573C159.081 17.1103 158.245 22.931 158.244 23.7961H169.446C169.446 23.7961 169.999 17.2146 164.036 17.1573ZM182.493 9.6534V12.8286H181.34V9.6534H182.493Z" fill="#232E44"/>
</svg>
