<svg width="160" height="80" viewBox="0 0 160 80" fill="none" xmlns="http://www.w3.org/2000/svg">
<path d="M75.9192 30.2058C77.6668 30.2058 79.2894 30.4969 80.7864 31.0782C82.2811 31.6596 83.5625 32.5601 84.6316 33.78C85.6997 35.0018 86.5351 36.5521 87.1381 38.4306C87.74 40.3122 88.0409 42.5289 88.0409 45.0871C88.0409 50.2026 86.6519 54.2046 83.8746 57.091C81.0954 59.9786 77.1624 61.4224 72.0719 61.4224C71.2173 61.4224 70.3437 61.3642 69.4497 61.2477C68.5547 61.1313 67.7787 60.9756 67.1184 60.7829V74.4433C66.6522 74.5196 66.157 74.5779 65.6325 74.6171C65.1081 74.6551 64.6309 74.6753 64.2041 74.6753C63.7763 74.6753 63.3013 74.6551 62.7769 74.6171C62.2524 74.5779 61.7762 74.5196 61.3494 74.4433V30.9026C61.737 30.8263 62.1356 30.7681 62.5434 30.7289C62.9519 30.6906 63.3687 30.6706 63.7965 30.6706C64.1841 30.6706 64.5927 30.6906 65.0205 30.7289C65.4473 30.7681 65.856 30.8263 66.2446 30.9026C66.2829 30.9818 66.3323 31.2228 66.3895 31.6304C66.4479 32.037 66.5064 32.4728 66.5648 32.9377C66.6232 33.4026 66.6814 33.8494 66.7399 34.275C66.7983 34.7017 66.8265 34.9728 66.8265 35.0893C67.2151 34.4688 67.6811 33.8684 68.2257 33.2871C68.7692 32.7058 69.4214 32.1817 70.1784 31.7178C70.9356 31.252 71.7902 30.8845 72.7433 30.6134C73.6936 30.3422 74.7525 30.2058 75.9192 30.2058ZM43.1652 30.2058C47.0498 30.2058 50.0031 31.0884 52.0234 32.8505C54.0437 34.6144 55.0544 37.4338 55.0544 41.3082V59.9686C53.6945 60.279 52.0436 60.5982 50.1009 60.9276C48.1571 61.2558 46.175 61.4215 44.1556 61.4215C42.2512 61.4215 40.5328 61.2477 38.9977 60.8984C37.4626 60.549 36.161 59.9888 35.0931 59.2117C34.0241 58.4385 33.1987 57.4487 32.6158 56.2478C32.0329 55.0471 31.742 53.5942 31.742 51.8874C31.742 50.2228 32.0812 48.759 32.7617 47.4989C33.4412 46.2409 34.3642 45.1938 35.5299 44.3603C36.6956 43.528 38.0364 42.9065 39.5513 42.5008C41.0674 42.0932 42.6599 41.8895 44.3309 41.8895C45.5741 41.8895 46.5937 41.9197 47.3899 41.9768C48.1863 42.0362 48.8566 42.1034 49.4012 42.1807V41.0763C49.4012 38.7892 48.8183 37.2007 47.6528 36.3092C46.4871 35.4187 44.7969 34.9728 42.5823 34.9728C41.2213 34.9728 39.9501 35.0803 38.7652 35.2922C37.5795 35.5059 36.4228 35.7861 35.2974 36.1345C34.5585 34.8554 34.1901 33.3263 34.1901 31.5421C35.5097 31.1165 36.9664 30.7871 38.5609 30.5542C40.1534 30.3213 41.6875 30.2058 43.1652 30.2058ZM28.3038 30.9022L28.5948 31.6592L12.7425 56.1319H27.6043C27.72 56.9081 27.7794 57.7012 27.7794 58.5145C27.7794 59.2916 27.72 60.0265 27.6043 60.7252H4.29192L4 59.911L19.7365 35.4955H5.86528C5.7485 34.7978 5.69011 34.0237 5.69011 33.1702C5.69011 32.357 5.7485 31.6 5.86528 30.9022H28.3038ZM44.9138 46.3654C42.5039 46.3654 40.6677 46.8121 39.4064 47.7028C38.1421 48.5952 37.512 49.9516 37.512 51.7719C37.512 52.9345 37.7244 53.8462 38.1533 54.5038C38.5801 55.1635 39.1145 55.6665 39.7558 56.0158C40.3969 56.3642 41.1056 56.5772 41.8828 56.6554C42.6599 56.7338 43.3987 56.7718 44.0974 56.7718C44.9912 56.7718 45.9142 56.7238 46.8655 56.6254C47.8179 56.5289 48.6623 56.3844 49.4012 56.1905V46.7148C48.8183 46.6374 48.0806 46.5611 47.1866 46.4829C46.2928 46.4056 45.5349 46.3654 44.9138 46.3654ZM74.6368 35.2048C73.6654 35.2048 72.7322 35.3795 71.8394 35.7288C70.9446 36.0761 70.1494 36.5992 69.4497 37.297C68.7502 37.9948 68.1875 38.8774 67.7607 39.9426C67.3317 41.01 67.1184 42.277 67.1184 43.7507V55.8411C67.8552 56.1133 68.6141 56.307 69.3913 56.4225C70.1684 56.538 71.1781 56.5971 72.4222 56.5971C73.8214 56.5971 75.1029 56.3742 76.2686 55.9284C77.4343 55.4846 78.4348 54.7949 79.2694 53.8642C80.1047 52.9345 80.7651 51.7628 81.2513 50.3471C81.7365 48.9335 81.9802 47.2579 81.9802 45.32C81.9802 42.2197 81.4063 39.7589 80.2608 37.9365C79.1143 36.1163 77.2389 35.2048 74.6368 35.2048ZM121.262 30.2052C123.321 30.2052 125.128 30.5546 126.682 31.2523C128.236 31.9501 129.538 32.9089 130.587 34.1298C131.635 35.3506 132.432 36.8035 132.976 38.4892C133.52 40.175 133.793 42.0052 133.793 43.9821C133.793 44.5254 133.772 45.0965 133.733 45.6971C133.695 46.2993 133.656 46.8115 133.617 47.2371H113.277C113.355 50.4931 114.2 52.8767 115.812 54.3877C117.425 55.8988 119.805 56.6558 122.952 56.6558C125.711 56.6558 128.333 56.1707 130.82 55.202C131.131 55.7833 131.383 56.4901 131.578 57.3234C131.772 58.1578 131.888 58.9801 131.927 59.7943C130.645 60.3374 129.236 60.7431 127.702 61.0152C126.166 61.2852 124.467 61.4218 122.603 61.4218C119.882 61.4218 117.551 61.0442 115.609 60.2882C113.666 59.5322 112.063 58.467 110.8 57.0914C109.538 55.716 108.615 54.0876 108.032 52.2079C107.449 50.3284 107.157 48.2653 107.157 46.0163C107.157 43.8084 107.439 41.7452 108.003 39.8256C108.566 37.9079 109.431 36.2423 110.596 34.8266C111.762 33.413 113.228 32.2895 114.996 31.4551C116.764 30.6218 118.852 30.2052 121.262 30.2052ZM100.864 30.9022V60.7252C100.435 60.8015 99.9603 60.8588 99.4359 60.898C98.9114 60.936 98.4342 60.9562 98.0074 60.9562C97.6189 60.9562 97.1619 60.936 96.6384 60.898C96.113 60.8588 95.6368 60.8015 95.21 60.7252V35.4373H91.4211C91.3436 35.1271 91.2852 34.7687 91.247 34.3621C91.2076 33.9555 91.1885 33.5579 91.1885 33.1702C91.1885 32.7838 91.2076 32.3852 91.247 31.9786C91.2852 31.5719 91.3436 31.2135 91.4211 30.9022H100.864ZM128.081 42.9369C128.081 41.8517 127.935 40.8155 127.644 39.8256C127.352 38.8376 126.924 37.9761 126.362 37.2393C125.797 36.5033 125.079 35.912 124.205 35.4671C123.331 35.0214 122.291 34.7976 121.087 34.7976C118.716 34.7976 116.9 35.5153 115.637 36.9491C114.375 38.3828 113.608 40.3789 113.335 42.9369H128.081ZM142.596 30.6706C143.023 30.6706 143.45 30.6908 143.878 30.7289C144.305 30.7681 144.694 30.8263 145.044 30.9026C145.16 31.4839 145.277 32.2511 145.393 33.1989C145.509 34.1496 145.568 34.9528 145.568 35.6124C146.384 34.2952 147.463 33.1506 148.803 32.1817C150.144 31.2139 151.862 30.7289 153.961 30.7289C154.271 30.7289 154.592 30.7379 154.922 30.7581C155.251 30.7781 155.535 30.8073 155.767 30.8444C155.844 31.1937 155.903 31.5633 155.942 31.9497C155.981 32.3374 156 32.744 156 33.1706C156 33.6355 155.971 34.1205 155.914 34.6235C155.855 35.1275 155.787 35.6124 155.709 36.0763C155.397 36 155.077 35.9608 154.747 35.9608H153.961C152.912 35.9608 151.911 36.1065 150.959 36.3966C150.006 36.6878 149.152 37.2007 148.394 37.9367C147.637 38.6737 147.034 39.6817 146.588 40.9608C146.141 42.2389 145.918 43.8864 145.918 45.9006V60.7246C145.49 60.8009 145.014 60.8592 144.489 60.8984C143.966 60.9366 143.489 60.9566 143.063 60.9566C142.634 60.9566 142.159 60.9366 141.634 60.8984C141.109 60.8592 140.614 60.8009 140.148 60.7246V30.9026C140.575 30.8263 140.983 30.7681 141.372 30.7289C141.759 30.6908 142.168 30.6706 142.596 30.6706ZM96.83 5.32472C97.3765 5.32573 97.914 5.37191 98.4366 5.45926V11.0917L102.43 7.10885C102.871 7.42209 103.283 7.77048 103.665 8.151C104.046 8.53153 104.397 8.94418 104.711 9.38393L100.717 13.3668H106.365C106.452 13.8879 106.499 14.422 106.499 14.9682V14.9813C106.499 15.5274 106.452 16.0626 106.365 16.5837H100.716L104.711 20.5656C104.397 21.0053 104.046 21.418 103.666 21.7985C103.283 22.179 102.871 22.5284 102.431 22.8406L98.4366 18.8577V24.4902C97.915 24.5776 97.3775 24.6237 96.8309 24.6249H96.8169C96.2702 24.6237 95.7348 24.5776 95.2123 24.4902V18.8577L91.2191 22.8406C90.3372 22.2151 89.5662 21.4451 88.938 20.5656L92.9314 16.5837H87.2842C87.1956 16.0616 87.1493 15.5244 87.1493 14.9783V14.9712C87.1493 14.8173 87.1599 14.6231 87.1753 14.4234L87.1861 14.2898C87.2261 13.8221 87.2842 13.3668 87.2842 13.3668H92.9314L88.938 9.38393C89.251 8.94418 89.6004 8.53253 89.9819 8.15302C90.3645 7.77048 90.7781 7.42209 91.2191 7.10885L95.2123 11.0917V5.45926C95.7348 5.37191 96.2713 5.32573 96.8188 5.32472H96.83ZM96.829 12.5626H96.8198C96.1011 12.5626 95.4127 12.6941 94.7764 12.9331C94.5379 13.5666 94.4059 14.2534 94.405 14.9702V14.9793C94.4059 15.6961 94.5379 16.3829 94.7774 17.0164C95.4127 17.2554 96.1011 17.3869 96.8198 17.3869H96.829C97.5478 17.3869 98.2361 17.2554 98.8715 17.0164C99.1109 16.3819 99.2429 15.6961 99.2429 14.9793V14.9702C99.2429 14.2534 99.1109 13.5666 98.8715 12.9331C98.2361 12.6941 97.5478 12.5626 96.829 12.5626Z" fill="#FF4A00"/>
</svg>
