<svg width="248" height="48" viewBox="0 0 248 48" fill="none" xmlns="http://www.w3.org/2000/svg">
<path fill-rule="evenodd" clip-rule="evenodd" d="M10.1305 17.1032C6.53724 20.6965 6.53724 26.5216 10.1305 30.1145L20.539 40.5234C24.1323 44.1163 29.9574 44.1163 33.5503 40.5234L43.9592 30.1145C47.5521 26.5212 47.5521 20.6961 43.9592 17.1032L33.5503 6.69468C29.957 3.10177 24.1319 3.10177 20.539 6.69468L10.1305 17.1032ZM31.5984 28.1629C34.1137 25.6477 34.1137 21.57 31.5984 19.0551C29.0835 16.5398 25.0058 16.5398 22.4909 19.0551C19.9756 21.5704 19.9756 25.6477 22.4909 28.1629C25.0062 30.6779 29.0835 30.6779 31.5987 28.1629H31.5984Z" fill="#2962FF"/>
<path d="M62.1611 30.5633C62.1756 27.6653 63.9468 25.9673 66.4936 25.9673C69.0259 25.9673 70.5187 27.5921 70.5042 30.3585V43.561H76.7395V29.246C76.754 23.9768 73.651 20.7859 68.9672 20.7859C65.557 20.7859 63.2736 22.3961 62.2489 25.0453H61.9855V13.5849H55.9258V43.561H62.1611V30.5633ZM86.4087 43.9854C89.7311 43.9854 91.8826 42.5362 92.9806 40.4433H93.1562V43.561H99.0694V28.3972C99.0694 23.0402 94.5321 20.7859 89.5263 20.7859C84.1398 20.7859 80.5978 23.3622 79.7341 27.4605L85.5012 27.9287C85.9256 26.4358 87.2575 25.3382 89.4968 25.3382C91.6192 25.3382 92.8341 26.4066 92.8341 28.2507V28.3389C92.8341 29.7877 91.2972 29.9779 87.3894 30.3585C82.9395 30.7684 78.9439 32.2613 78.9439 37.2816C78.9439 41.7311 82.1198 43.9854 86.4087 43.9854ZM88.1941 39.682C86.2768 39.682 84.9009 38.7894 84.9009 37.0769C84.9009 35.3203 86.35 34.4565 88.5456 34.1494C89.9067 33.9592 92.1314 33.6372 92.8779 33.1392V35.5253C92.8779 37.8816 90.9314 39.682 88.1941 39.682ZM120.964 27.4897C120.408 23.3473 117.071 20.7859 111.392 20.7859C105.639 20.7859 101.848 23.45 101.863 27.7826C101.848 31.1487 103.971 33.3297 108.362 34.208L112.255 34.9836C114.216 35.3789 115.109 36.0962 115.138 37.223C115.109 38.5552 113.66 39.5064 111.479 39.5064C109.255 39.5064 107.776 38.5552 107.396 36.7253L101.263 37.0474C101.848 41.3508 105.507 44 111.465 44C117.29 44 121.461 41.0288 121.476 36.5938C121.461 33.3443 119.339 31.3975 114.978 30.505L110.908 29.6853C108.815 29.2314 108.04 28.5141 108.054 27.4311C108.04 26.0846 109.562 25.2063 111.494 25.2063C113.66 25.2063 114.948 26.3921 115.256 27.8409L120.964 27.4897ZM129.989 30.5633C130.004 27.6653 131.775 25.9673 134.322 25.9673C136.854 25.9673 138.347 27.5921 138.332 30.3585V43.561H144.567V29.246C144.582 23.9768 141.479 20.7859 136.795 20.7859C133.385 20.7859 131.101 22.3961 130.077 25.0453H129.813V13.5849H123.754V43.561H129.989V30.5633ZM154.061 30.5633C154.076 27.6653 155.803 25.9673 158.32 25.9673C160.823 25.9673 162.331 27.6067 162.316 30.3585V43.561H168.551V29.246C168.551 24.0063 165.478 20.7859 160.794 20.7859C157.457 20.7859 155.042 22.4253 154.032 25.0453H153.768V21.0788H147.826V43.561H154.061V30.5633ZM181.975 44C188.796 44 193.04 39.3308 193.04 32.4077C193.04 25.4405 188.796 20.7859 181.975 20.7859C175.154 20.7859 170.91 25.4405 170.91 32.4077C170.91 39.3308 175.154 44 181.975 44ZM182.004 39.1698C178.857 39.1698 177.247 36.2864 177.247 32.3636C177.247 28.4409 178.857 25.5432 182.004 25.5432C185.092 25.5432 186.702 28.4412 186.702 32.3636C186.702 36.2864 185.092 39.1698 182.004 39.1698ZM203.73 43.9267C207.36 43.9267 209.248 41.8339 210.112 39.9603H210.376V43.561H216.523V13.5845H210.302V24.8551H210.112C209.278 23.0256 207.477 20.7859 203.716 20.7859C198.783 20.7859 194.612 24.6209 194.612 32.3491C194.612 39.8725 198.608 43.9267 203.73 43.9267ZM205.706 38.965C202.647 38.965 200.979 36.2423 200.979 32.3199C200.979 28.4263 202.618 25.748 205.706 25.748C208.736 25.748 210.434 28.3094 210.434 32.3199C210.434 36.3301 208.707 38.965 205.706 38.965ZM230.247 44C235.809 44 239.555 41.2922 240.434 37.1206L234.667 36.7403C234.037 38.4525 232.428 39.3454 230.349 39.3454C227.231 39.3454 225.255 37.2816 225.255 33.9297V33.9152H240.566V32.2026C240.566 24.5622 235.94 20.7859 229.998 20.7859C223.382 20.7859 219.093 25.4843 219.093 32.4223C219.093 39.5505 223.323 44 230.247 44ZM225.255 30.0511C225.387 27.4897 227.334 25.4405 230.1 25.4405C232.808 25.4405 234.681 27.3728 234.696 30.0511H225.255Z" fill="#333333"/>
</svg>
