<svg width="200" height="48" viewBox="0 0 200 48" fill="none" xmlns="http://www.w3.org/2000/svg">
<path d="M48.2334 4.00099C47.5298 4.00285 46.6143 4.21606 45.4102 4.63205C40.3284 6.38702 35.7929 9.32468 31.6471 13.544L28.7578 16.9538L29.8717 18.5481C31.7809 21.2429 33.7782 25.8092 34.7131 29.652C35.2869 31.8579 35.512 33.2215 35.6061 35.4976C35.6221 35.8801 35.6411 36.2836 35.6504 36.7264C35.6607 37.1656 35.6683 37.6393 35.6728 38.1545C35.6934 40.8823 35.7267 44 35.4411 44H49.061L49.833 43.2138C50.3134 42.5254 50.3847 40.0944 50.3847 23.8504C50.3847 7.05771 50.3279 5.20582 49.8005 4.62033C49.4284 4.20917 48.9374 3.99931 48.2334 4.00099Z" fill="#A4CE4E"/>
<path d="M9.21543 4.001C8.5319 3.98946 8.0346 4.17458 7.616 4.55448C7.00652 5.10815 6.97656 6.17419 6.97656 23.7845C6.97656 40.084 7.04745 42.5254 7.52819 43.2142L8.07981 44.0002H21.6224C32.0774 44.0002 35.2289 43.8992 35.4406 43.5574C35.5913 43.3141 35.6932 40.8826 35.672 38.1547C35.6404 34.0325 35.4785 32.5969 34.7126 29.6524C33.0365 23.2096 29.8791 17.4017 25.3327 13.0728C21.3785 9.30757 16.8275 6.31652 11.9505 4.63188C10.7719 4.22555 9.89841 4.0129 9.21525 4.00137L9.21543 4.001Z" fill="#0192D5"/>
<path d="M28.759 16.953L27.8983 17.9947C26.3698 19.8648 23.5811 26.0655 22.6489 29.6634C21.8866 32.6048 21.7274 34.0374 21.7006 38.1769C21.6825 40.9131 21.6342 44.0005 21.9099 44.0005H35.4415C35.7269 44.0005 35.6942 40.8829 35.673 38.1549C35.6413 34.0327 35.4326 32.6093 34.7135 29.6527C33.7787 25.8095 31.7857 21.2464 29.8765 18.5515L28.759 16.953Z" fill="#0065A5"/>
<path d="M170.656 10.356C168.753 10.3591 166.897 11.0257 165.572 12.1935C163.994 13.5844 163.415 14.7297 163.112 17.0205L162.87 18.8471H160.135V23.4526H162.958V30.3056C162.958 34.0725 163.06 37.2609 163.19 37.391C163.319 37.521 164.59 37.6235 166.013 37.6235H168.605V23.4525H172.84V18.8471H168.605V17.6737C168.605 15.9485 169.909 14.8304 171.671 15.0387C172.411 15.1262 173.268 15.3098 173.578 15.4482C173.996 15.6346 174.427 15.2555 175.244 13.9978L176.357 12.2927L175.563 11.6947C174.636 10.988 172.301 10.3532 170.656 10.356H170.656ZM154.081 10.3889C151.322 10.5327 149.945 14.7046 152.67 16.1902C154.045 16.9405 155.004 16.8302 156.22 15.8024C157.092 15.0659 157.312 14.6121 157.312 13.4998C157.312 11.9361 156.474 10.8665 154.974 10.4884C154.662 10.4103 154.367 10.3744 154.081 10.3889ZM89.9081 11.0313L87.0407 11.1307L84.1844 11.2304L81.0196 17.0757C79.2793 20.2906 77.7418 23.0329 77.6118 23.165C77.4815 23.2967 75.8713 20.6277 74.0274 17.2309L70.6749 11.0535L67.8516 11.142L65.0284 11.2306L64.6204 20.2646C64.3981 25.2331 64.1144 31.1718 63.9919 33.4611L63.7715 37.6237H69.3296L69.561 33.1067C69.6875 30.6223 69.8131 27.2348 69.8367 25.5786C69.919 19.859 69.9508 19.8621 73.1342 25.5343L75.9465 30.5384H78.913L81.6813 25.3129L84.4385 20.0874L84.7031 26.287C84.8482 29.6969 85.0631 33.6429 85.1775 35.0554L85.376 37.6241H90.9674L90.9564 35.9413C90.9522 35.0159 90.7207 29.5557 90.4381 23.8074C90.1553 18.0596 89.9243 12.8356 89.9196 12.1943L89.9081 11.0311V11.0313ZM131.55 11.0536V24.1058C131.55 31.2827 131.652 37.2611 131.782 37.391C131.911 37.521 135.802 37.6235 140.428 37.6235H148.842V32.6636H137.549V11.0531H131.55V11.0536ZM116.729 13.8653V18.8142L115.229 18.9137L113.729 19.0246V23.2759L115.229 23.3868L116.729 23.4977L116.74 28.1696C116.76 34.3698 117.374 36.1063 120.015 37.4137C121.842 38.318 125.581 38.1601 127.679 37.0924L129.422 36.2068L128.363 34.4795L127.305 32.7525L125.772 33.3173C124.348 33.8314 124.158 33.8249 123.301 33.2621C122.38 32.6557 122.375 32.6299 122.375 28.0584V23.453H126.963V18.8475H122.408L122.297 16.4562L122.198 14.0648L119.463 13.9652L116.728 13.8653H116.729ZM102.943 18.4155C99.1039 18.4396 96.0733 20.382 94.5289 23.8071C93.4666 26.1628 93.5105 30.4647 94.628 32.874C95.5728 34.9104 97.5043 36.6658 99.6018 37.4135C102.743 38.5327 108.287 37.9043 110.807 36.14L111.766 35.4758L110.696 33.7378L109.638 32.0107L107.807 32.863C105.856 33.7746 103.341 33.9936 101.742 33.3836C100.552 32.9292 99.0838 31.3337 99.0838 30.4941C99.0838 29.8779 99.4907 29.8299 105.613 29.8299H112.141V28.1248C112.141 22.3219 108.403 18.3812 102.943 18.4156V18.4155ZM102.987 22.722C104.076 22.7044 105.096 23.0672 105.81 23.7849C106.378 24.3546 106.847 25.1516 106.847 25.5563C106.847 26.2567 106.66 26.287 102.965 26.287C100.49 26.287 99.0835 26.1589 99.0835 25.9218C99.0835 25.085 100.147 23.5726 101.014 23.1764C101.656 22.8822 102.334 22.7326 102.987 22.722H102.987ZM183.879 18.4376C178.376 18.4376 174.727 21.8298 174.34 27.3166C174.019 31.8619 175.672 35.0911 179.247 36.9039C181.384 37.9876 181.643 38.0313 184.849 37.9113C187.66 37.8062 188.546 37.6206 190.231 36.7932C191.341 36.2481 192.25 35.6848 192.25 35.5424C192.25 35.4001 191.778 34.5391 191.202 33.6273L190.154 31.9668L188.897 32.7196C187.216 33.7149 183.587 34.02 182.169 33.284C180.915 32.6325 180.068 31.6976 179.743 30.6269L179.501 29.8299H193.021L192.778 27.9694C191.948 21.4696 189.119 18.4378 183.879 18.4378L183.879 18.4376ZM183.604 22.7445C184.837 22.7445 185.406 22.9563 186.217 23.7187C186.787 24.2547 187.36 25.0515 187.485 25.4898C187.713 26.2839 187.694 26.287 183.604 26.287C179.513 26.287 179.495 26.2839 179.722 25.49C179.847 25.0517 180.42 24.2547 180.99 23.7187C181.801 22.9563 182.37 22.7444 183.604 22.7444V22.7445ZM156.959 18.8251L154.225 18.9247L151.489 19.0242L151.39 27.8809C151.338 32.7486 151.373 36.9333 151.468 37.1806C151.585 37.4885 152.481 37.6233 154.302 37.6233H156.959V18.8251Z" fill="black"/>
</svg>
