<svg width="184" height="48" viewBox="0 0 184 48" fill="none" xmlns="http://www.w3.org/2000/svg">
<path d="M44 30.0899C44 25.3348 41.5576 21.5496 35.541 19.5434C31.0925 18.0558 29.4261 15.4838 28.2621 11.6835C26.7906 6.92739 22.3421 4.00049 17.9267 4.00049C10.6648 4.00049 4 11.9267 4 22.4079C4 31.2539 10.3572 44.0005 25.5936 44.0005C37.0447 44.0005 44 36.6894 44 30.0899Z" fill="#F05F22"/>
<path d="M137.279 10.1543H135.807L130.743 15.1996V10.17H129.538V21.2312H130.743V16.0611L136.008 21.2312H137.538L131.81 15.5583L137.279 10.1543Z" fill="#F05F24"/>
<path d="M138.769 21.2312H140V10.1543H138.769V21.2312Z" fill="#F05F24"/>
<path d="M143.663 11.1865H145.396C148.223 11.1865 149.845 12.7935 149.845 15.5956V15.715C149.845 18.5643 148.229 20.1991 145.411 20.1991H143.663V11.1865ZM145.472 10.1543H142.461V21.2312H145.441C148.917 21.2312 151.077 19.1234 151.077 15.7307V15.5956C151.077 12.239 148.93 10.1543 145.472 10.1543Z" fill="#F05F24"/>
<path d="M160.355 19.3095L154.438 10.2348L154.386 10.1543H152.923V21.2312H154.121V11.8511L160.231 21.2312H161.538V10.1543H160.355V19.3095Z" fill="#F05F24"/>
<path d="M165.18 16.0658H169.495V15.0337H165.18V11.1865H170.499V10.1543H164V21.2312H170.769V20.1991H165.18V16.0658Z" fill="#F05F24"/>
<path d="M178.759 10.1543L175.813 15.2438L172.722 10.1543H171.384L175.21 16.3352V21.2312H176.395V16.3463L180 10.1543H178.759Z" fill="#F05F24"/>
<path d="M58.9976 19.5469L53.2906 10.1543H52V21.2312H53.0169V11.6105L58.8562 21.2312H60V10.1543H58.9976V19.5469Z" fill="#010202"/>
<path d="M69.0794 16.9967H65.0138L67.047 11.3086L69.0794 16.9967ZM66.4356 10.1543L62.4615 21.2312H63.509L64.6899 17.9087H69.4033L70.6001 21.2312H71.6923L67.7183 10.1543H66.4356Z" fill="#010202"/>
<path d="M71.0769 11.0821H74.5302V21.2312H75.6227V11.0821H79.0769V10.1543H71.0769V11.0821Z" fill="#010202"/>
<path d="M80.3077 21.2312H81.5385V10.1543H80.3077V21.2312Z" fill="#010202"/>
<path d="M89.5389 11.0622C92.0875 11.0622 93.9371 12.9695 93.9371 15.5962V15.7152C93.9371 18.4197 92.1413 20.3087 89.5697 20.3087C87.0355 20.3087 85.1245 18.3464 85.1245 15.7445V15.6264C85.1245 12.9393 86.9394 11.0622 89.5389 11.0622ZM89.5389 10.1543C86.3815 10.1543 84 12.5128 84 15.641V15.76C84 18.8791 86.394 21.2312 89.5697 21.2312C92.7098 21.2312 95.0769 18.8654 95.0769 15.7298V15.6108C95.0769 12.5 92.6964 10.1543 89.5389 10.1543Z" fill="#010202"/>
<path d="M103.921 19.5469L98.2137 10.1543H96.9231V21.2312H97.94V11.6105L103.779 21.2312H104.923V10.1543H103.921V19.5469Z" fill="#010202"/>
<path d="M113.387 16.9967H109.322L111.355 11.3086L113.387 16.9967ZM110.743 10.1543L106.769 21.2312H107.817L108.998 17.9087H113.711L114.908 21.2312H116L112.026 10.1543H110.743Z" fill="#010202"/>
<path d="M118.383 20.3034V10.1543H117.231V21.2312H124V20.3034H118.383Z" fill="#010202"/>
<path d="M52 39.6928H53.1409V34.5499H57.567V33.6231H53.1409V29.5445H58.7692V28.6158H52V39.6928Z" fill="#010202"/>
<path d="M64.3082 29.5237C66.8568 29.5237 68.7063 31.4301 68.7063 34.0568V34.1758C68.7063 36.8803 66.9106 38.7693 64.3389 38.7693C61.8047 38.7693 59.8937 36.8071 59.8937 34.206V34.0879C59.8937 31.4009 61.7087 29.5237 64.3082 29.5237ZM64.3082 28.6158C61.1507 28.6158 58.7692 30.9744 58.7692 34.1026V34.2216C58.7692 37.3406 61.1632 39.6928 64.3389 39.6928C67.479 39.6928 69.8462 37.3278 69.8462 34.1904V34.0724C69.8462 30.9615 67.4656 28.6158 64.3082 28.6158Z" fill="#010202"/>
<path d="M78.6267 35.3409C78.6267 37.7364 77.7376 38.7572 75.6544 38.7572C73.6683 38.7572 72.7431 37.7336 72.7431 35.5364V28.6158H71.6923V35.6262C71.6923 38.2097 73.1309 39.6928 75.6397 39.6928C78.2528 39.6928 79.6923 38.1893 79.6923 35.4613V28.6158H78.6267V35.3409Z" fill="#010202"/>
<path d="M89.7669 38.0092L84.0598 28.6158H82.7692V39.6928H83.7861V30.0721L89.6255 39.6928H90.7692V28.6158H89.7669V38.0092Z" fill="#010202"/>
<path d="M96.1471 29.5437C99.05 29.5437 100.715 31.1889 100.715 34.0556V34.1772C100.715 37.0917 99.0557 38.764 96.1623 38.764H94.3309V29.5437H96.1471ZM96.2243 28.6158H93.2308V39.6928H96.1928C99.6802 39.6928 101.846 37.5855 101.846 34.1922V34.0556C101.846 30.6997 99.6916 28.6158 96.2243 28.6158Z" fill="#010202"/>
<path d="M109.079 35.4567H105.014L107.047 29.77L109.079 35.4567ZM106.436 28.6158L102.517 39.5384L102.462 39.6928H103.509L104.69 36.3705H109.403L110.6 39.6928H111.692L107.718 28.6158H106.436Z" fill="#010202"/>
<path d="M111.692 29.5437H115.146V39.6928H116.238V29.5437H119.692V28.6158H111.692V29.5437Z" fill="#010202"/>
<path d="M120.923 39.6928H122.154V28.6158H120.923V39.6928Z" fill="#010202"/>
<path d="M128.924 29.5237C131.472 29.5237 133.322 31.4301 133.322 34.0568V34.1758C133.322 36.8803 131.526 38.7693 128.954 38.7693C126.42 38.7693 124.509 36.8071 124.509 34.206V34.0879C124.509 31.4009 126.324 29.5237 128.924 29.5237ZM128.924 28.6158C125.766 28.6158 123.385 30.9744 123.385 34.1026V34.2216C123.385 37.3406 125.779 39.6928 128.954 39.6928C132.094 39.6928 134.462 37.3278 134.462 34.1904V34.0724C134.462 30.9615 132.081 28.6158 128.924 28.6158Z" fill="#010202"/>
<path d="M143.921 28.6158V38.0084L138.214 28.6158H136.923V39.6928H137.94V30.072L143.779 39.6928H144.923V28.6158H143.921Z" fill="#010202"/>
<path d="M148.923 37.4621C149.145 37.4621 149.256 37.3711 149.256 37.1979V37.1899C149.256 36.9955 149.138 36.9186 148.923 36.9186H148.666V37.4621H148.923ZM148.41 36.7163H148.93C149.277 36.7171 149.506 36.8709 149.506 37.1837V37.1899C149.506 37.4347 149.367 37.5663 149.152 37.6149L149.602 38.3042H149.318L148.896 37.6574H148.666V38.3042H148.41V36.7163ZM150.247 37.5381C150.247 36.7587 149.685 36.1887 148.923 36.1887C148.168 36.1887 147.6 36.7666 147.6 37.546C147.6 38.3307 148.182 38.8812 148.923 38.8812C149.672 38.8812 150.247 38.3183 150.247 37.5381ZM147.385 37.546C147.385 36.6889 148.064 36.0005 148.923 36.0005C149.796 36.0005 150.462 36.6818 150.462 37.5381C150.462 38.4094 149.783 39.0774 148.923 39.0774C148.071 39.0774 147.385 38.4155 147.385 37.546Z" fill="#221E1F"/>
</svg>
