<svg width="160" height="64" viewBox="0 0 160 64" fill="none" xmlns="http://www.w3.org/2000/svg">
<path d="M15.4131 47.6746C14.2767 46.4642 13.3874 45.0067 12.7451 43.302C12.1027 41.5974 11.7817 39.7078 11.7817 37.6325V5.61646H4V38.0771C4 41.1405 4.50639 43.9196 5.51934 46.4147C6.53212 48.9099 7.91567 51.0465 9.66951 52.8252C11.4233 54.604 13.4986 55.9749 15.8948 56.9384C18.2911 57.9018 20.8726 58.3836 23.6395 58.3836C26.3569 58.3836 28.8889 57.8895 31.2359 56.9015C33.5827 55.9131 35.6209 54.505 37.3501 52.677V57.4943H45.0576V5.61646H37.276V37.6325C37.276 39.7078 36.9549 41.5851 36.3126 43.265C35.6702 44.9449 34.7685 46.3899 33.6075 47.6005C32.4464 48.8108 31.0878 49.7495 29.5314 50.4166C27.975 51.0837 26.3076 51.4172 24.5288 51.4172C22.7007 51.4172 21.0085 51.0962 19.4521 50.4538C17.8959 49.8115 16.5496 48.8851 15.4131 47.6746Z" fill="#010202"/>
<path fill-rule="evenodd" clip-rule="evenodd" d="M58.4711 24.5148V5.61646H50.9859V57.4941H58.397V52.7509C60.1262 54.4802 62.1396 55.8513 64.4371 56.8641C66.7345 57.877 69.2171 58.3834 71.8852 58.3834C74.652 58.3834 77.2457 57.8647 79.6668 56.8272C82.0878 55.7896 84.1875 54.3815 85.9662 52.6027C87.745 50.8243 89.1531 48.7367 90.1907 46.3404C91.2282 43.9442 91.7469 41.3873 91.7469 38.6701C91.7469 35.9527 91.2282 33.3835 90.1907 30.9624C89.1531 28.5415 87.745 26.4418 85.9662 24.663C84.1875 22.8842 82.0878 21.4761 79.6668 20.4385C77.2457 19.401 74.6521 18.8823 71.8852 18.8823C69.2173 18.8823 66.7468 19.3887 64.4741 20.4016C62.2014 21.4146 60.2003 22.7855 58.4711 24.5148ZM62.1026 47.934C60.9168 46.7482 59.9903 45.3648 59.3233 43.7837C58.6564 42.2027 58.3228 40.4982 58.323 38.6701C58.323 36.842 58.6689 35.125 59.3605 33.5193C60.0522 31.9135 60.9911 30.5178 62.1767 29.332C63.3626 28.1464 64.746 27.22 66.327 26.5529C67.908 25.8859 69.5879 25.5523 71.3665 25.5523C73.1451 25.5523 74.8248 25.886 76.406 26.5529C77.9871 27.2199 79.3581 28.1464 80.5192 29.332C81.6803 30.5178 82.6066 31.9135 83.2983 33.5193C83.99 35.125 84.3359 36.842 84.3359 38.6701C84.3359 40.4982 83.99 42.2027 83.2983 43.7837C82.6066 45.3648 81.6803 46.7484 80.5192 47.934C79.3579 49.12 77.987 50.0586 76.406 50.7503C74.825 51.442 73.1453 51.7879 71.3665 51.7879C69.5384 51.7879 67.8339 51.442 66.2527 50.7503C64.6717 50.0586 63.2883 49.1198 62.1026 47.934Z" fill="#010202"/>
<path fill-rule="evenodd" clip-rule="evenodd" d="M95.9706 31.0367C96.9586 28.6652 98.3175 26.5778 100.047 24.7744C101.776 22.9711 103.826 21.5506 106.198 20.5131C108.569 19.4755 111.139 18.9568 113.905 18.9568C116.623 18.9568 119.143 19.4509 121.465 20.4389C123.787 21.4271 125.788 22.7982 127.468 24.5522C129.148 26.3061 130.457 28.3813 131.396 30.7775C132.334 33.1738 132.804 35.78 132.804 38.5964V41.042H102.048C102.295 42.5737 102.789 43.9941 103.53 45.3032C104.271 46.6125 105.197 47.7489 106.309 48.7124C107.421 49.6759 108.681 50.4295 110.089 50.9727C111.497 51.5162 112.991 51.7881 114.573 51.7881C119.069 51.7881 122.7 49.9352 125.467 46.2296L130.877 50.2315C129 52.7513 126.678 54.7277 123.911 56.1605C121.144 57.5932 118.031 58.3097 114.573 58.3097C111.756 58.3097 109.126 57.8154 106.68 56.8274C104.234 55.8394 102.11 54.4558 100.306 52.6771C98.503 50.8983 97.0826 48.8109 96.045 46.4147C95.0075 44.0186 94.4886 41.4122 94.4886 38.596C94.4883 35.9281 94.9825 33.4083 95.9706 31.0367ZM106.383 28.1092C104.283 29.8633 102.888 32.1978 102.196 35.1128H125.245C124.602 32.1978 123.231 29.8633 121.131 28.1092C119.032 26.3554 116.574 25.4784 113.757 25.4784C110.941 25.4784 108.483 26.3554 106.383 28.1092Z" fill="#010202"/>
<path d="M146.81 28.9615C145.229 30.6908 144.439 33.0376 144.439 36.0021V57.4945H136.953V19.6978H144.364V24.3668C145.303 22.8351 146.526 21.6246 148.033 20.7353C149.54 19.8458 151.331 19.4011 153.406 19.4011H156V26.3676H152.887C150.417 26.3677 148.391 27.2323 146.81 28.9615Z" fill="#010202"/>
</svg>
