<svg width="200" height="48" viewBox="0 0 200 48" fill="none" xmlns="http://www.w3.org/2000/svg">
<path d="M67.5077 28.7536H60.3214V24.7536H67.1002V22.2048H60.3214V18.3823H67.5064V15.6461H57.0039V31.4998H67.5064V28.7536H67.5077ZM79.9077 31.4998L85.2339 15.6461H81.6189L77.9939 28.0836H77.9164L74.2914 15.6461H70.5789L75.9064 31.4998H79.9064H79.9077ZM99.0402 28.7536H91.8552V24.7536H98.6339V22.2048H91.8552V18.3823H99.0402V15.6461H88.5377V31.4998H99.0402V28.7536ZM106.44 18.2398V23.2936H109.298C110.968 23.2936 111.945 22.3373 111.945 20.7661C111.945 19.2286 110.913 18.2398 109.264 18.2398H106.441H106.44ZM106.44 25.6986V31.4998H103.123V15.6461H109.616C113.264 15.6461 115.351 17.5686 115.351 20.6998C115.351 22.7323 114.296 24.4911 112.473 25.2048L115.813 31.4998H112.055L109.1 25.6998H106.441L106.44 25.6986ZM133.386 24.8423V23.0498H126.706V25.4673H130.156L130.144 25.7198C130.079 27.6861 128.574 29.0161 126.41 29.0161C123.773 29.0161 122.103 26.9173 122.103 23.4786C122.103 20.1061 123.674 18.1161 126.289 18.1161C128.08 18.1161 129.431 19.1061 129.914 20.7661H133.243C132.77 17.5573 129.98 15.3711 126.278 15.3711C121.62 15.3711 118.719 18.4461 118.719 23.5223C118.719 28.6748 121.619 31.7723 126.355 31.7723C130.771 31.7723 133.386 29.1586 133.386 24.8411V24.8423ZM140.578 18.2398V23.2936H143.434C145.104 23.2936 146.081 22.3373 146.081 20.7661C146.081 19.2286 145.049 18.2398 143.401 18.2398H140.578ZM140.578 25.6986V31.4998H137.26V15.6461H143.753C147.4 15.6461 149.488 17.5686 149.488 20.6998C149.488 22.7323 148.433 24.4911 146.609 25.2048L149.949 31.4998H146.191L143.236 25.6998H140.578V25.6986ZM163.853 28.7536H156.668V24.7536H163.446V22.2048H156.668V18.3823H163.853V15.6461H153.35V31.4998H163.853V28.7536ZM178.439 28.7536H171.254V24.7536H178.033V22.2048H171.254V18.3823H178.439V15.6461H167.935V31.4998H178.439V28.7536ZM185.696 31.4998V21.1173H185.795L193.211 31.4998H195.958V15.6461H192.783V25.9736H192.695L185.29 15.6461H182.521V31.4998H185.696Z" fill="#1F4160"/>
<path d="M24.0449 44C35.0906 44 44.0449 35.0457 44.0449 24C44.0449 12.9543 35.0906 4 24.0449 4C12.9992 4 4.04492 12.9543 4.04492 24C4.04492 35.0457 12.9992 44 24.0449 44Z" fill="#38A065"/>
<path d="M25.2949 31.5V36.5H22.7949V31.5H25.2949ZM24.0449 12.75L32.7949 30.25H15.2949L24.0449 12.75Z" fill="white"/>
</svg>
