<svg width="160" height="72" viewBox="0 0 160 72" fill="none" xmlns="http://www.w3.org/2000/svg">
<path d="M111.064 58.7112L111.881 58.2666C112.772 57.7819 113.56 57.3052 114.249 56.8339C114.913 56.3781 115.472 55.9357 115.926 55.5024C116.356 55.0938 116.722 54.6541 117.026 54.1774C117.322 53.712 117.55 53.2256 117.709 52.7124L117.711 52.7055C117.751 52.5682 117.792 52.4116 117.834 52.2357C117.879 52.0443 117.916 51.8727 117.944 51.721C118.115 50.8003 118.2 49.7101 118.184 48.4645V21.3868H128.14V48.3578C128.143 48.5959 128.144 48.835 128.142 49.0747C128.139 49.3283 128.134 49.567 128.127 49.7916C128.087 51.0056 127.975 52.2084 127.8 53.3811V53.3822C127.763 53.6342 127.722 53.8723 127.677 54.0959C127.633 54.3174 127.58 54.5506 127.518 54.7946C127.216 55.9872 126.762 57.1261 126.165 58.2119L126.161 58.2157C125.72 59.0072 125.178 59.7557 124.534 60.4598C123.9 61.1531 123.149 61.8213 122.279 62.4642L122.272 62.4717L122.27 62.4706C122.013 62.6605 121.763 62.8347 121.521 62.9924C121.272 63.1554 120.999 63.3232 120.7 63.4964C119.257 64.334 117.527 65.089 115.502 65.7529L114.714 66.0108L111.064 58.7112ZM141.234 57.0226C140.286 57.0226 139.421 56.9931 138.632 56.9406C137.867 56.8891 137.108 56.8087 136.364 56.7062L136.345 56.7025C135.644 56.5936 134.979 56.4724 134.354 56.333C133.704 56.1882 133.106 56.0263 132.569 55.8435C132.032 55.6601 131.517 55.4547 131.022 55.2343C130.54 55.0193 130.083 54.7908 129.648 54.5549L128.901 54.149L131.811 46.7534L132.693 47.08V47.0816C132.832 47.1325 132.962 47.1786 133.081 47.2199C133.115 47.2322 133.245 47.2757 133.465 47.3481C134.141 47.5717 134.776 47.7534 135.356 47.895L135.376 47.8988C135.784 48.006 136.21 48.0998 136.655 48.1792C137.114 48.2607 137.559 48.3229 137.991 48.3653H138.013C138.455 48.4189 138.944 48.4575 139.477 48.4838C140.017 48.5101 140.571 48.5219 141.14 48.5219C142.074 48.5219 142.874 48.4521 143.546 48.3176C143.696 48.2875 143.799 48.2655 143.856 48.2516C144.339 48.1331 144.739 47.9797 145.06 47.7931C145.063 47.7915 145.066 47.7888 145.069 47.7867L145.071 47.7851L145.072 47.7856C145.154 47.7358 145.24 47.6757 145.329 47.6065L145.331 47.6087C145.405 47.5502 145.476 47.4869 145.542 47.4188C145.841 47.1127 145.993 46.726 145.997 46.2665C145.989 45.9753 145.922 45.7137 145.796 45.4783C145.659 45.2214 145.454 44.9839 145.181 44.7624C144.849 44.5039 144.467 44.2541 144.033 44.0117C143.585 43.7618 143.084 43.5221 142.527 43.2921L142.527 43.2937C141.891 43.0443 141.272 42.7966 140.667 42.5505C140.169 42.3472 139.514 42.0748 138.701 41.7327C137.993 41.4346 137.314 41.1107 136.664 40.759C136.003 40.4008 135.361 40.0098 134.738 39.5825L134.737 39.5846C134.082 39.1481 133.487 38.6425 132.949 38.0709C132.415 37.5051 131.945 36.8821 131.536 36.2043L131.532 36.1973C131.41 35.9951 131.298 35.7898 131.196 35.5801C131.102 35.386 131.008 35.1678 130.914 34.9248C130.475 33.7886 130.241 32.4893 130.223 31.0474V31.0249C130.236 30.1589 130.334 29.347 130.523 28.5824C130.715 27.8065 131.002 27.0885 131.388 26.423L131.392 26.415C131.769 25.7769 132.214 25.1956 132.721 24.6685C133.231 24.1392 133.794 23.6717 134.408 23.2625L134.42 23.2588C135.043 22.8518 135.696 22.5027 136.383 22.2083C137.069 21.9145 137.786 21.6748 138.536 21.4876C139.285 21.2887 140.041 21.1466 140.801 21.0538C141.568 20.9611 142.339 20.9176 143.112 20.9176H143.113C144.03 20.9176 144.857 20.9471 145.599 21.0029C145.768 21.0152 145.892 21.0254 145.968 21.0318C146.553 21.0838 147.141 21.1611 147.73 21.2613H147.735C147.925 21.294 148.1 21.3262 148.261 21.3579C148.437 21.3922 148.605 21.427 148.768 21.463C149.616 21.649 150.403 21.8775 151.127 22.1477C151.639 22.3268 152.108 22.5064 152.546 22.685C153 22.8705 153.443 23.062 153.875 23.2539L154.736 23.6363L151.746 30.8361L150.923 30.6013L150.922 30.6007L150.914 30.597C150.12 30.3632 149.326 30.1299 148.59 29.9514L148.564 29.9476C148.165 29.8388 147.787 29.7492 147.424 29.6741C147.022 29.5916 146.615 29.5192 146.199 29.4532C145.829 29.4034 145.391 29.361 144.873 29.3272C144.381 29.295 143.876 29.2773 143.357 29.2773C142.599 29.2881 141.968 29.3497 141.469 29.465C141.041 29.5637 140.726 29.694 140.526 29.857L140.514 29.8683L140.511 29.8715C140.44 29.9267 140.381 29.9776 140.335 30.0238C140.289 30.0693 140.244 30.1192 140.2 30.1739C140.019 30.4029 139.935 30.6662 139.944 30.9589L139.945 30.9632C139.947 31.0308 139.951 31.0833 139.958 31.1198C139.967 31.1681 139.98 31.2169 139.997 31.2657C140.097 31.552 140.341 31.8298 140.727 32.0995L140.754 32.122C141.088 32.373 141.487 32.6169 141.941 32.8588C142.389 33.0974 142.92 33.3446 143.516 33.6014L143.515 33.6041C143.959 33.7923 143.916 33.7736 144.029 33.8213C144.492 34.0192 144.456 34.0031 144.558 34.0465C145.371 34.3967 146.318 34.8144 147.4 35.2991C148.121 35.6225 148.81 35.9694 149.468 36.3405C150.131 36.7137 150.784 37.1228 151.428 37.569L151.446 37.5802C152.089 38.0462 152.684 38.5599 153.224 39.1288C153.765 39.6983 154.244 40.3166 154.652 40.9895C155.092 41.6818 155.424 42.4448 155.649 43.284C155.871 44.1066 155.988 44.9957 156 45.9539V45.9871C155.996 46.289 155.985 46.5566 155.967 46.7904C155.952 47.0049 155.922 47.2628 155.88 47.5631C155.693 48.886 155.287 50.0673 154.664 51.1059C154.231 51.8271 153.732 52.4706 153.162 53.0401C152.586 53.6165 151.939 54.1216 151.218 54.5592H151.21C150.488 54.9903 149.743 55.3608 148.967 55.6697C148.194 55.978 147.373 56.2322 146.495 56.4328C145.636 56.6296 144.772 56.7765 143.898 56.8741C143.014 56.9733 142.128 57.0226 141.234 57.0226Z" fill="#1A1918"/>
<path d="M36.2742 53.335C30.3752 54.9769 23.7121 56.0236 17.5284 54.8504C15.1679 54.4026 12.9914 53.4068 10.9291 51.9633C8.90805 50.396 7.25809 48.1685 5.97974 45.1989C4.66009 42.188 4 38.1459 4 33.0727C4 27.9995 4.78342 23.9575 6.30951 20.8645C7.71227 17.7711 9.52685 15.461 11.7538 13.9355C13.94 12.4088 16.2082 11.3777 18.6008 10.842C20.9516 10.347 23.0965 10.1406 25.035 10.1406C27.9268 10.1787 34.1813 10.9444 37.1772 12.9064V22.8057C34.0918 21.227 29.7977 20.4479 26.3546 20.3696C25.3235 20.3696 24.2923 20.4929 23.303 20.6994C22.3126 20.9879 21.4053 21.5654 20.5806 22.4314C19.8379 23.2979 19.2196 24.6176 18.7654 26.3088C18.1879 28.0408 17.9407 30.2683 17.9407 33.0727C17.9407 35.5474 18.1472 37.5684 18.6008 39.0945C18.9306 40.6619 19.3644 41.9472 20.0856 42.8068C22.7694 46.0059 28.7231 44.9136 32.778 43.8567C33.1368 47.11 33.9556 50.6394 36.2742 53.335Z" fill="#1A1918"/>
<path d="M59.0036 33.9806L56.5322 34.0626C53.8511 34.0626 51.9126 34.5162 50.7576 35.4648C49.5613 36.4139 48.9843 38.1459 49.0256 40.6619C49.0256 42.7655 49.3967 44.1677 50.1801 44.9517C50.9228 45.7351 51.9539 46.0601 53.1497 46.0241C54.6098 45.9796 55.6774 45.6364 56.7848 45.0659C56.7853 46.4869 56.7858 47.9073 56.7858 49.3278C56.7858 50.7472 57.047 51.8293 57.5033 52.654C55.9032 53.3779 54.8688 53.9281 53.1336 54.4187C50.9957 55.0236 48.8932 55.4686 47.4582 55.5105C37.5697 55.7957 35.0843 48.4205 35.0843 41.4046C35.0843 38.3937 35.6618 35.9603 36.8169 34.0626C37.8893 32.1654 39.209 30.7632 40.8589 29.7733C42.5909 28.7422 44.3647 28.0408 46.2206 27.6285C48.077 27.34 49.809 27.2161 51.4177 27.2161H59.0069V24.6588C59.0069 22.9676 58.5945 21.8131 57.6867 21.2769C56.8207 20.782 55.3772 20.5342 53.3974 20.5342C50.9833 20.5675 41.6965 21.5514 39.5387 22.8856V12.6979C44.3572 10.8345 52.7347 10.1685 55.6244 10.1406C60.5742 10.0993 64.657 10.9653 67.9157 12.7804C69.5243 13.8529 70.7614 15.3377 71.71 17.2348C72.5352 19.2146 72.9476 21.7305 72.9476 24.7414C72.9476 34.7205 72.983 44.6895 72.983 54.667L72.9444 54.6664V54.8316H68.964C64.3578 54.8316 59.0036 55.3131 59.0036 48.8843C59.0036 45.2579 58.9988 41.6319 59.0036 38.0049V33.9806Z" fill="#1A1918"/>
<path d="M75.3349 10.9653H87.2133L89.0284 15.4203C89.0697 15.2964 90.4387 14.3752 93.153 12.7804C94.441 12.0233 96.0089 11.4962 97.772 10.9653C99.4333 10.465 101.196 10.1545 103.093 10.1406C106.805 10.1133 109.846 10.9696 112.126 12.863C114.466 14.8063 115.673 18.266 115.673 23.174V48.7385C115.673 55.1667 110.319 54.6852 105.712 54.6852H101.732V24.824C101.732 23.3805 101.505 22.3702 100.989 21.8544C100.474 21.338 99.422 21.1359 97.9372 21.153C95.8336 21.1772 93.9391 21.6136 92.1632 22.4314C90.2687 23.3043 89.3169 23.7928 89.2756 23.8341V54.6852L75.4239 54.6697C75.4239 40.0056 75.3349 25.5881 75.3349 10.9653Z" fill="#1A1918"/>
<path d="M122.851 5.99023C126.436 5.99023 129.359 8.91426 129.359 12.4984C129.359 16.083 126.436 19.0065 122.851 19.0065C119.267 19.0065 116.343 16.083 116.343 12.4984C116.343 8.91426 119.267 5.99023 122.851 5.99023Z" fill="#1A1918"/>
</svg>
