<svg width="160" height="72" viewBox="0 0 160 72" fill="none" xmlns="http://www.w3.org/2000/svg">
<path d="M108.245 11.6563L108.211 11.3306L107.684 11.3757L107.717 11.7011L108.245 11.6563ZM111.793 20.1879L111.804 20.3675L112.174 20.3339C112.163 20.2217 112.208 20.0421 112.287 19.8177L112.253 19.492C112.096 19.5033 111.938 19.739 111.793 20.1879ZM97.9508 30.9312C97.9286 30.6281 96.9854 29.4495 95.1219 27.3726C95.0884 26.9911 95.7281 26.4184 97.0415 25.6664L100.791 22.3996C101.633 21.3329 102.127 19.6042 102.273 17.2019L102.228 16.6518C102.082 14.9905 100.881 13.6546 98.6022 12.633C97.255 11.7237 94.8301 11.2184 91.3275 11.1287C88.4312 11.3757 84.6482 12.4083 79.9893 14.2382C78.7095 15.1588 77.2503 16.0794 75.6113 16.9997L75.6335 17.2806C75.7348 17.2693 75.8918 17.2132 76.0714 17.0897C76.2623 17.0671 76.3745 17.1571 76.3858 17.3367L76.6664 17.1906L76.8012 17.1793L76.8124 17.3028C76.8237 17.4489 75.8132 18.246 73.7701 19.6716L73.9274 19.9634L73.7926 19.9747L73.4557 19.8512C73.4669 19.9522 73.3212 20.0196 73.0403 20.0421L73.0516 20.1656L73.3773 20.5697C73.2764 20.5809 73.119 20.5361 72.9059 20.4574C72.4341 20.5023 71.974 20.7493 71.5138 21.2207L71.7047 20.3901C72.3893 17.4376 72.8607 14.8219 73.1077 12.5543L73.0742 12.4083C72.6028 12.1052 72.1423 11.6786 71.7157 11.1397C71.727 10.7918 71.727 10.5899 71.7157 10.5448L71.6821 10.4213L71.5474 10.4551C70.0657 12.6778 67.2142 16.4722 62.9819 21.8382C59.7602 25.6551 58.0986 27.7769 57.9977 28.2035C56.6843 29.5617 56.0555 30.3814 56.1229 30.6619C55.775 30.8864 55.6289 31.1108 55.685 31.3578C55.5841 31.3804 55.5167 31.3468 55.4941 31.2456C54.933 32.1549 54.1021 32.7386 52.9909 32.9968L51.8233 33.2664C51.6662 33.3 51.5876 33.4122 51.5988 33.6031L51.6324 33.7491L52.0703 33.6479L52.1041 33.7714L51.1161 34.1532L49.3649 34.5572L48.4443 34.6133C48.3095 34.7481 49.174 34.6023 48.8373 34.6807L47.6923 34.9503C46.9961 35.1073 46.6146 35.0512 46.5472 34.7707L46.4124 34.8042C46.435 34.9277 46.446 35.0177 46.4237 35.0961L46.3563 34.8155L45.4357 35.0287C45.3683 34.6024 44.1223 33.053 41.7087 30.3814C41.6639 29.8648 42.5168 29.1125 44.2571 28.1361L49.174 23.8139C50.2742 22.3996 50.9252 20.1318 51.1387 17.011L51.0713 16.2813C50.8804 14.0812 49.2862 12.3073 46.2889 10.9378C44.5151 9.73669 41.327 9.09663 36.7245 8.99569C32.9076 9.32137 27.9231 10.6796 21.7938 13.0483C20.1099 14.2718 18.1903 15.4842 16.035 16.6854L16.0685 17.0671C16.2146 17.0558 16.4052 16.9775 16.6409 16.8427C16.8879 16.8201 17.0227 16.9323 17.0453 17.1571L17.4267 16.9436L17.6176 16.9324L17.6289 17.112C17.6402 17.2916 16.3043 18.3357 13.5988 20.244L13.812 20.5809L13.6214 20.5922L13.2058 20.4462C13.2171 20.5584 13.0262 20.6371 12.6334 20.6706L12.6557 20.8728L13.1048 21.3668C12.9591 21.3781 12.7569 21.3329 12.4986 21.2433C11.6231 21.3219 10.7699 21.9504 9.92798 23.1406L10.1411 23.4773C10.8709 22.8036 11.2975 22.467 11.421 22.4557L11.4658 23.0058C11.3423 23.0171 11.1514 23.0955 10.8934 23.2303L11.3536 23.9264C12.2403 22.972 13.2171 22.1526 14.2837 21.4677C14.8113 21.6025 15.0918 21.7708 15.1031 21.9504L15.5072 21.9169C18.4035 19.7726 21.2662 18.2235 24.1064 17.2693L24.14 17.6508C23.6124 18.4366 23.2532 18.841 23.0623 18.8632C23.0849 19.1328 23.1745 19.3685 23.3429 19.5707C23.388 20.0534 22.0969 23.3089 19.4811 29.326C13.5427 43.3136 8.5582 53.6638 4.50586 60.3548C4.51684 60.4893 4.59552 60.6689 4.74158 60.8936C5.74056 60.6579 6.36934 60.4109 6.63861 60.1749L6.85206 60.1526L6.88561 60.5344L7.25611 60.5005L7.63789 60.2874C7.64917 60.3996 7.77267 60.4557 8.03066 60.4331L8.0645 60.8149C8.09805 61.1854 7.88489 61.7465 7.43572 62.5214C7.03167 62.9815 6.59378 63.947 6.13362 65.4177L6.14461 65.5973L6.51511 65.5634C8.13189 63.7561 9.35531 61.9822 10.1972 60.2535C14.9122 58.8728 18.5047 57.5146 20.9967 56.1786C23.5002 55.9652 25.4085 55.3028 26.7109 54.2139L26.6884 54.012L25.7455 54.2926L25.532 54.3151L25.5095 54.113C27.3507 53.8324 28.6192 53.4281 29.3264 52.867C32.9076 50.1052 35.613 48.152 37.443 46.9957C41.2035 44.2342 43.6509 41.5397 44.7621 38.9243C44.9643 38.8794 45.1662 38.8343 45.3909 38.7782C45.9184 38.7559 46.2103 38.7446 46.2889 38.7221C46.2664 38.6211 46.3115 38.565 46.4124 38.5425C47.2544 38.4528 46.8503 38.5986 47.3892 38.4751L48.8035 38.1497C48.7138 38.172 48.68 38.2171 48.7025 38.3068L48.9157 38.172C48.8709 38.172 48.8373 38.161 48.8035 38.1497L49.0392 38.0936L48.927 38.161C49.0843 38.1833 49.2526 38.172 49.4435 38.1271L49.5445 38.5425L43.1121 48.7695L41.6862 50.5543L40.9903 52.8893L41.1251 52.8557L41.821 52.5639L41.5965 53.4732L41.6639 53.7425L41.8545 53.9782C41.7649 54.0008 41.7313 54.0569 41.7536 54.1578L41.7874 54.3039L42.0793 54.2365C42.5059 53.866 42.6855 53.5293 42.6181 53.2262C43.0782 53.3046 43.3813 53.3384 43.5387 53.2936L43.5722 53.4394C43.2917 53.5068 43.1456 53.7312 43.1231 54.113L43.1569 54.259L43.314 54.2252C45.6492 51.6768 51.3744 42.9543 55.9659 37.0382C55.8198 36.3984 58.2108 35.5114 63.1502 34.3663L63.3076 34.3328C63.4872 35.1073 63.1054 36.9821 62.1625 39.9571C61.5563 41.7532 61.2645 42.7412 61.3093 42.8982C60.5235 45.2893 60.153 46.5804 60.1978 46.7825L58.4466 52.5188C57.3128 55.4602 56.4486 58.5474 55.8424 61.8029C55.9433 61.7804 56.1004 61.7916 56.3251 61.8478L56.5718 61.6343C56.5944 61.7355 56.6618 61.7691 56.7627 61.7465L56.6618 61.3312L57.425 61.3089C57.6495 61.2528 57.8403 60.972 57.9977 60.4557C57.9638 59.6812 58.1212 59.2658 58.4691 59.1759C58.9406 57.335 59.2324 56.4144 59.3336 56.3805C59.7712 54.5509 60.0969 53.5068 60.31 53.2485C60.9727 50.8687 61.4551 49.645 61.7695 49.5663L61.8369 49.8585L61.3542 51.1044C60.5122 54.8427 59.659 57.7951 58.7948 59.9617L59.0418 61.0394L59.1988 61.0058C61.2868 56.5153 64.2953 47.6245 68.2132 34.3328C68.3257 33.1652 68.8868 32.2558 69.886 31.6161L69.6613 31.3804L69.6278 31.2569C70.0769 31.1559 70.391 30.9763 70.5706 30.7293C70.5484 30.6281 70.1553 30.4823 69.3921 30.2801L71.3455 21.9056C71.7718 21.5238 72.0188 21.3219 72.0975 21.3219L72.1313 21.7486C72.0301 21.7595 71.873 21.8156 71.6934 21.9391L72.0639 22.467C72.7372 21.7373 73.467 21.1085 74.2641 20.5809C74.6681 20.6932 74.8703 20.8279 74.8928 20.9627L75.1847 20.9402C77.4074 19.3124 79.5853 18.1448 81.7293 17.4376L81.7518 17.7182C81.3591 18.3131 81.0895 18.6162 80.9435 18.6275C80.966 18.8297 81.0221 19.0093 81.1231 19.1663C81.1569 19.5368 80.1915 22.0065 78.2158 26.5867C73.7027 37.1953 69.9196 45.0423 66.8437 50.139C66.855 50.2399 66.9223 50.3747 67.0458 50.5543C67.7978 50.3747 68.2805 50.1838 68.4714 50.0042L68.6062 49.9929L68.6288 50.2738L68.9429 50.2512L69.2237 50.1052C69.2347 50.1838 69.3359 50.2177 69.5268 50.2064L69.5491 50.5095C69.5717 50.7788 69.4146 51.2054 69.0664 51.789C68.741 52.1373 68.404 52.867 68.0448 53.9782L68.0561 54.1243L68.3479 54.1017C69.5717 52.7322 70.5033 51.385 71.1433 50.0603C74.7242 49.0052 77.4522 47.9837 79.3382 46.9731C81.2578 46.8048 82.706 46.3108 83.694 45.4801L83.6827 45.3344L82.953 45.5475L82.796 45.5588L82.7847 45.4128C84.1767 45.2109 85.1534 44.8965 85.681 44.4812C88.3977 42.3929 90.4521 40.9 91.8441 40.0245C96.1773 36.8699 98.1978 33.8388 97.9508 30.9312ZM97.2101 31.1221L97.3111 32.2558C97.1763 32.5367 97.0305 32.6825 96.8957 32.6937L96.7274 30.7629C97.0415 30.8751 97.1988 30.9873 97.2101 31.1221ZM12.2068 21.9843L12.0159 21.9953L11.9824 21.6473L12.7569 21.5799L12.7682 21.7595C12.6447 21.7708 12.4538 21.8382 12.2068 21.9843ZM8.42372 59.8269C7.97455 59.6251 7.5705 59.5464 7.22256 59.5799L7.17744 59.0298C7.15517 58.8167 7.27867 58.6706 7.54794 58.6145C7.79494 58.5922 7.941 58.7718 7.96327 59.1311C8.61461 58.3339 8.97383 57.9299 9.04122 57.9186L9.45655 58.0869C9.32177 59.2097 8.97383 59.7821 8.42372 59.8269ZM48.8486 17.5386C48.6577 17.5611 48.2759 16.9662 47.7258 15.7873L47.6923 15.4394C48.0515 15.4058 48.422 15.9895 48.8148 17.1906L48.8486 17.5386ZM48.3095 13.3514L48.1524 13.7219L42.6629 11.4318C46.3225 11.5553 48.2085 12.1951 48.3095 13.3514ZM25.128 33.2551L24.3534 33.3225L24.3196 32.9743L25.0941 32.9072L25.128 33.2551ZM24.4992 21.2994L24.6901 21.2881L24.7349 21.8382C24.5553 21.8495 24.3196 22.1188 24.0278 22.6353L23.9939 22.2535C24.3422 21.8382 24.5218 21.5238 24.4992 21.2994ZM22.8714 25.1386L22.9388 25.8683L22.7479 25.8796L22.6805 25.1498L22.8714 25.1386ZM22.0182 26.5083L22.3887 26.4745C22.3552 27.0807 22.1868 27.4064 21.8837 27.4287L21.6928 27.4399C21.9286 27.0359 22.0408 26.7215 22.0182 26.5083ZM21.3785 28.4167L21.5916 28.3941L21.6029 28.5737L21.255 29.1577L20.8845 29.1912L20.8732 29.0116C21.2437 28.9781 21.412 28.7872 21.3785 28.4167ZM20.7497 30.1344L20.6375 31.0547L20.4466 31.066L20.3682 30.1566L20.7497 30.1344ZM14.4521 48.0398C14.2051 49.2971 13.9355 49.9368 13.655 49.9594L13.6437 49.7798C13.5763 49.1623 13.8458 48.5786 14.4521 48.0398ZM13.2957 50.5431L13.307 50.7227C13.3293 50.9697 13.2171 51.1157 12.9701 51.1267L12.9591 50.9471C12.9365 50.7339 13.0487 50.5992 13.2957 50.5431ZM12.9591 55.7407L13.5427 55.6846L13.565 55.8868C13.4192 55.8978 13.2283 55.9765 12.9926 56.1112L12.6221 56.1448C12.5996 55.9542 12.7231 55.8081 12.9588 55.7407H12.9591ZM29.5734 50.6104C26.2953 52.2269 24.3644 53.3271 23.792 53.8995C20.2447 55.1345 18.4821 55.8978 18.5157 56.2009C15.3614 57.4472 13.2845 58.3678 12.2855 58.9402C12.0497 58.9627 11.7128 58.8728 11.2639 58.6706C11.2078 58.0308 11.4996 57.5146 12.1168 57.0992C12.667 57.0541 13.1945 57.1328 13.6998 57.3459C14.2837 57.0428 15.3053 56.7062 16.7534 56.347L16.7196 55.9652L15.5523 56.0664C15.698 55.8642 16.8205 55.3367 18.931 54.4835L19.515 54.4274L19.5263 54.607C18.527 54.6966 17.9769 54.9888 17.8534 55.5163C17.8759 55.752 18.0107 55.853 18.2577 55.8307C19.0097 55.359 19.3802 55.0784 19.3689 54.9997C20.7948 54.7305 24.7349 52.6648 31.1899 48.8144L31.2237 49.1623C31.235 49.3306 30.6849 49.8021 29.5734 50.6104ZM19.672 53.866C20.6152 53.7873 21.4233 53.4058 22.0969 52.7435C22.3662 52.7209 22.5122 52.8219 22.5235 53.0576C22.063 53.1027 21.1763 53.4842 19.8855 54.2252L19.6946 54.2365L19.672 53.866ZM35.6466 41.5958L30.6959 45.514C27.0137 47.9276 25.038 49.1397 24.7575 49.1623C18.8975 52.3843 15.2492 54.0569 13.8346 54.1804L13.6214 54.2026C13.801 53.5406 16.4052 48.2081 21.4571 38.172C23.6798 37.9811 27.1824 36.9486 31.9534 35.0625L33.1207 34.9613C35.5343 34.7481 37.3417 35.2196 38.5319 36.3423L38.599 37.0718C37.7009 39.654 36.7132 41.1582 35.6466 41.5958ZM25.9699 36.1514L26.767 36.0841L26.778 36.2637L25.9812 36.3311L25.9699 36.1514ZM37.1621 34.2541L37.7461 34.198C38.2849 34.4563 38.5654 34.6807 38.588 34.8829L38.599 35.0625C38.0827 35.1073 37.6 34.8381 37.1621 34.2541ZM38.745 25.2398C38.2288 25.857 36.8142 26.9124 34.5015 28.3941C33.7382 28.4615 30.898 29.5617 25.9812 31.717C25.7342 31.6048 25.4759 31.56 25.1954 31.5825L25.1615 31.2343C25.1054 30.5271 25.4198 29.6404 26.1157 28.5627C26.4975 26.5419 26.9128 25.3856 27.3732 25.105L31.4707 15.8885C31.4256 15.3159 32.3014 14.878 34.0975 14.5749L34.6811 14.5188L34.7262 15.0466C36.4885 14.777 37.5887 14.62 38.0153 14.5861C41.2709 14.3056 42.966 14.9679 43.1008 16.5509L43.4713 16.517L43.3926 15.5854L43.7967 15.5516C44.7508 16.0794 45.2674 16.7192 45.3348 17.4712C45.3796 17.9877 45.0991 18.6275 44.5038 19.3911C44.2571 19.4133 44.1111 19.2337 44.0885 18.8745L43.6845 18.9083L43.5948 20.0308C41.9445 22.5005 40.7433 23.7691 40.0023 23.8365C39.3287 24.7684 38.9134 25.2285 38.745 25.2398ZM41.2596 31.6948C40.9229 31.47 40.6534 31.3691 40.4515 31.3804L40.4064 30.8303L40.7769 30.7967L41.5965 31.2794C41.6301 31.5374 41.5179 31.6722 41.2596 31.6948ZM43.8641 34.7817C44.2233 34.9277 44.4367 35.0848 44.4816 35.2308L44.302 35.2757L44.3132 35.2869C44.2794 35.2869 44.2346 35.2982 44.2007 35.3095L43.9315 35.5227L43.8641 34.7817ZM44.1111 36.3311L44.0775 36.185L44.549 36.0728L44.5825 36.2188L44.1111 36.3311ZM45.2448 37.5996C45.7275 37.5209 45.9633 37.4874 46.8613 37.2852L46.8952 37.4313L45.1887 37.824C45.2113 37.7454 45.2335 37.667 45.2448 37.5996ZM46.9064 38.3068C46.188 38.3741 46.345 38.2842 45.2 38.5425L45.1662 38.3967L46.592 37.9363L47.2769 37.7792L47.344 38.0485C47.0409 38.1159 47.2657 38.1159 46.9064 38.3068ZM48.422 37.9475C48.2534 37.9924 48.1189 37.914 48.0402 37.7231L48.4781 37.6219C48.6687 37.577 48.7922 37.6557 48.8373 37.8466L48.422 37.9475ZM52.5304 33.5244L52.4969 33.3786L53.204 33.2103L53.2714 33.4796L52.5304 33.5244ZM56.92 60.4444C56.9649 60.2423 56.9761 60.0965 56.9536 59.9953L57.1109 59.9617C57.3015 59.9169 57.4137 59.9843 57.4589 60.1639L57.4924 60.3096L56.92 60.4444ZM59.996 34.6807L59.6816 34.6246C59.1763 34.8268 58.7497 34.9726 58.4017 35.0512L58.1099 35.1186C57.9416 35.1634 57.8068 35.0961 57.7394 34.9164L59.7938 34.445L60.4674 34.1306L60.6918 34.3889C60.3662 34.4563 60.1304 34.5572 59.996 34.6807ZM61.5786 34.1754L61.545 34.0297C61.646 34.0071 61.7808 33.9287 61.9268 33.7827L63.386 33.446L63.4198 33.5918C62.6453 33.7827 62.0278 33.9736 61.5786 34.1754ZM61.8033 31.223C61.7021 31.2456 61.5676 31.3355 61.399 31.47C61.3767 31.3691 61.1745 31.3691 60.7928 31.459C60.7257 31.1782 61.8033 30.7854 64.0373 30.2689L64.3514 30.2015L64.4188 30.471C62.8471 30.9312 61.9717 31.1895 61.8033 31.223ZM65.7325 26.9798C65.5751 28.7646 64.9466 29.7752 63.8351 30.0331L63.8016 29.8874L62.8136 30.2689L62.3757 30.3701C62.1513 30.4262 61.9491 30.4149 61.7695 30.3588L61.6798 29.9658C61.646 29.82 63.0719 27.844 65.9682 24.0496L66.3048 24.106C66.4283 24.6223 66.2375 25.5765 65.7325 26.9798ZM72.6811 21.0298L72.5466 21.0411L72.5241 20.7606L73.1077 20.7044L73.119 20.8502C73.0181 20.8728 72.872 20.9289 72.6811 21.0298ZM69.8187 49.7798C69.4817 49.6224 69.1786 49.5554 68.9206 49.5776L68.8868 49.151C68.8755 49.0052 68.9654 48.904 69.1563 48.8479C69.3472 48.8256 69.4594 48.9601 69.4817 49.2522C69.9644 48.6347 70.234 48.3204 70.2901 48.3204L70.5932 48.4439C70.481 49.2971 70.2227 49.7459 69.8187 49.7798ZM100.51 17.6733C100.364 17.6846 100.084 17.2355 99.646 16.3261L99.6237 16.0456C99.9043 16.023 100.196 16.4609 100.488 17.359L100.51 17.6733ZM100.106 14.4626L99.9717 14.7545L95.8181 13.0145C98.5909 13.1044 100.028 13.5872 100.106 14.4626ZM82.4928 29.5843L81.9089 29.6404L81.8866 29.3595L82.4703 29.3147L82.4928 29.5843ZM82.0101 20.5023L82.1672 20.491L82.2007 20.9176C82.055 20.9289 81.8754 21.1311 81.6619 21.5238L81.6396 21.2433C81.8979 20.9176 82.0211 20.6706 82.0101 20.5023ZM80.7864 23.4211L80.8312 23.9713L80.6742 23.9825L80.6291 23.4324L80.7864 23.4211ZM80.1241 24.4653L80.4159 24.4427C80.3824 24.9141 80.2589 25.1611 80.0454 25.1837L79.8884 25.1947C80.0567 24.8806 80.1354 24.6336 80.1241 24.4653ZM79.6526 25.9021L79.7874 25.8908L79.7984 26.0366L79.5404 26.4858L79.2483 26.5083L79.2373 26.3623C79.5404 26.3397 79.6749 26.1827 79.6526 25.9021ZM79.1812 27.2042L79.08 27.9227L78.9452 27.9339L78.8891 27.2268L79.1812 27.2042ZM74.3876 40.8213C74.1967 41.7645 73.9948 42.2472 73.7813 42.2694L73.7701 42.1459C73.7365 41.6745 73.9384 41.2256 74.3876 40.8213ZM73.5008 42.7186L73.5118 42.8421C73.5343 43.044 73.4447 43.1565 73.2425 43.1675L73.2312 43.0217C73.22 42.8757 73.3099 42.7747 73.5008 42.7186ZM73.2538 46.67L73.7027 46.6365L73.714 46.7822C73.613 46.7935 73.4557 46.8496 73.2761 46.9509L72.9842 46.9731C72.973 46.8161 73.0629 46.7151 73.2538 46.67ZM85.8606 42.7747C83.3909 43.9984 81.9202 44.8291 81.46 45.2557C78.7656 46.1986 77.4299 46.7825 77.4522 47.0183C75.0612 47.9724 73.4895 48.657 72.7485 49.0949C72.5689 49.1062 72.3106 49.0388 71.974 48.8817C71.9291 48.399 72.1536 48.006 72.625 47.7141C73.0516 47.6806 73.4557 47.7367 73.8262 47.8937C74.2753 47.6693 75.0499 47.4223 76.1501 47.1418L76.1275 46.8609L75.2069 46.9283C75.3195 46.7713 76.1837 46.3669 77.7892 45.7159L78.238 45.6823L78.2493 45.8058C77.486 45.8732 77.0594 46.0976 76.9695 46.5017C76.9808 46.6813 77.093 46.7713 77.2839 46.7487C77.8453 46.3782 78.1145 46.165 78.1145 46.0976C79.1922 45.9068 82.1785 44.3351 87.0843 41.394L87.1066 41.6745C87.1179 41.798 86.7025 42.1572 85.8606 42.7747ZM78.3393 45.2444C79.0687 45.177 79.6862 44.8965 80.2028 44.4025C80.3933 44.3799 80.5059 44.4699 80.5168 44.6495C80.1802 44.683 79.5179 44.9639 78.5186 45.5027L78.3615 45.514L78.3393 45.2444ZM90.4856 35.9157L86.7474 38.9243C83.952 40.7539 82.4367 41.6745 82.2007 41.6971C77.7553 44.1442 74.9938 45.4128 73.9048 45.5027L73.7478 45.514C73.8823 45.0087 75.8696 40.9561 79.7087 33.3448C81.3813 33.199 84.0307 32.4019 87.668 30.965L88.5773 30.8864C90.4069 30.7293 91.7767 31.0885 92.6748 31.9527L92.7196 32.5028C92.0347 34.4337 91.294 35.5675 90.4856 35.9157ZM83.1439 31.7844L83.7275 31.7283L83.7388 31.8744L83.1552 31.9305L83.1439 31.7844ZM91.6419 30.3363L92.0911 30.3027C92.5064 30.5046 92.7196 30.6845 92.7309 30.8303L92.7422 30.9538C92.3491 30.9873 91.9786 30.7854 91.6419 30.3363ZM92.8205 23.4998C92.4278 23.9713 91.3614 24.7793 89.6214 25.9021C89.0375 25.9582 86.8821 26.7889 83.1552 28.4054C82.9756 28.338 82.7734 28.3157 82.5599 28.327L82.5377 28.0462C82.4928 27.5073 82.7286 26.8337 83.2448 26.0143C83.5367 24.4653 83.8623 23.6008 84.199 23.3986L87.331 16.3935C87.2975 15.9782 87.9598 15.6415 89.307 15.3833L89.7559 15.3497L89.7897 15.7763C91.1144 15.5629 91.9451 15.4394 92.2817 15.4058C94.7514 15.1924 96.0425 15.6864 96.1435 16.8988L96.4353 16.8762L96.3792 16.2026L96.6713 16.1804C97.3897 16.5731 97.7712 17.0449 97.8163 17.606C97.8499 18.0103 97.6477 18.504 97.2211 19.0767C97.0305 19.0989 96.9183 18.9645 96.8957 18.6726L96.6039 18.6949L96.514 19.5368C95.268 21.4342 94.3586 22.4109 93.786 22.4557C93.281 23.1406 92.9666 23.4885 92.8205 23.4998ZM94.1342 28.1697L94.1004 27.7431L94.3922 27.7208L95.021 28.1023C95.0322 28.2819 94.9423 28.3831 94.7514 28.4054C94.4821 28.2371 94.28 28.1584 94.1342 28.1697ZM41.8771 55.4376L41.5852 55.505L41.3382 55.7182C41.3831 55.8978 41.4953 55.9652 41.6862 55.9203C41.8771 55.8755 41.9557 55.7633 41.9109 55.5837L41.8771 55.4376ZM40.7659 53.2262L40.7994 53.372C40.9903 53.3271 41.0687 53.2149 41.0239 53.0353L40.9903 52.8893C40.8107 52.9344 40.732 53.0466 40.7659 53.2262ZM48.6687 34.4224L49.0056 34.3441L48.9383 34.0522L48.6016 34.1306L48.6687 34.4224ZM150.534 42.9769C147.121 43.7402 146.694 43.6054 145.976 43.6615L145.998 43.9423L146.313 43.9198L146.481 43.9085L146.436 43.8749L146.806 43.7289C150.185 43.3584 150.578 43.4932 150.545 43.1114L150.534 42.9769ZM132.156 45.4128L132.179 45.6936H132.224L132.202 45.4128H132.156ZM130.046 38.0149L129.743 37.914C129.496 38.5763 129.372 38.9691 129.384 39.0813L129.395 39.2048C129.631 39.1935 129.844 38.7895 130.046 38.0149ZM151.229 42.9208L151.252 43.2013L151.746 43.291L151.723 43.0104L151.229 42.9208ZM128.003 45.7607L127.24 45.671L127.105 45.9629L127.116 46.1089L131.662 45.7271L131.64 45.4466L128.003 45.7607ZM125.937 35.8035L125.926 35.6574L125.769 35.6687L125.488 35.8483L125.645 36.1176C125.859 36.0953 125.96 35.9941 125.937 35.8035ZM153.385 40.8551L153.598 40.8326C153.722 40.8213 153.778 40.7203 153.767 40.5407L153.643 40.2712C152.869 40.3386 152.509 40.3724 151.881 40.7203L151.869 40.5746L150.938 40.6642C150.915 40.3837 150.837 40.2376 150.713 40.2489L150.231 40.2937C149.669 40.3386 149.4 40.3163 149.119 40.5295C149.108 40.4285 149.074 40.3837 149.018 40.3837L148.479 40.4285L148.165 40.6081C148.154 40.5072 148.12 40.4621 148.064 40.4621L147.873 40.6307L147.862 40.4846L147.109 40.4285L146.93 40.4398L146.952 40.7203L147.334 40.8213L147.693 40.799C147.817 40.8777 147.951 40.9 148.109 40.8887L148.423 40.7316L148.434 40.8551C146.672 41.293 146.683 41.2143 145.47 41.4165C145.336 41.3266 145.235 41.2817 145.167 41.293L145.145 41.3153C145.01 41.304 144.932 41.2143 144.921 41.0683L145.549 40.9899C145.594 40.9899 145.628 41.0347 145.976 41.1021C146.481 40.8551 146.503 40.7539 146.773 40.7316L146.75 40.4508C145.022 40.7877 145.717 40.5633 143.551 40.7539L143.45 40.7652L143.427 40.4846C146.211 40.148 145.28 40.3386 146.234 40.0693C146.245 40.1702 146.279 40.2151 146.335 40.2151C146.447 40.1028 146.571 40.0467 146.717 40.0245L146.908 40.0132C147.884 39.9345 148.21 40.1254 150.141 39.5866L150.152 39.7101L150.466 39.5527L150.758 39.5305C150.736 39.2496 151.162 39.2048 151.308 39.1935L151.286 38.8904C147.895 39.5753 147.009 39.3844 146.066 39.654L146.054 39.5305C145.168 39.6875 145.134 39.6201 144.909 39.6314C144.842 39.6427 144.741 39.6988 144.628 39.811C144.618 39.7101 144.584 39.665 144.516 39.665C144.483 39.665 144.471 39.6762 144.46 39.6762L141.586 40.1477C141.575 40.0693 141.542 40.0245 141.474 40.0355C139.981 40.3498 140.385 40.406 138.387 40.5856C138.297 40.5968 138.174 40.6417 138.016 40.7429C138.005 40.6642 137.96 40.6194 137.859 40.6304L136.636 40.7316L135.816 40.9335C135.805 40.8551 135.76 40.8103 135.659 40.8213C135.199 40.9448 134.795 41.0235 134.469 41.046H134.447C134.245 41.0683 134.548 40.9899 134.39 40.9225L134.143 41.0683C133.784 41.1021 133.975 41.046 132.74 41.057C130.574 41.3266 130.81 41.3601 130.574 41.3714L129.765 41.3153C129.777 41.394 129.732 41.4501 129.642 41.4501C128.721 41.3266 128.25 41.1805 128.239 41.0122C128.362 40.1367 128.576 39.6875 128.879 39.665L129.036 39.654L128.901 39.9458L129.058 39.9345C129.35 39.7775 129.485 39.6314 129.474 39.4966L129.451 39.1935L129.159 39.2161L129.137 38.9355C129.114 38.7221 129.148 38.5312 129.227 38.3741L129.889 37.3078L129.911 37.5883L130.226 37.5658L130.203 37.2852L130.024 37.0269C130.259 36.8251 130.439 36.7125 130.585 36.7016L130.574 36.5555L130.147 36.5893L130.113 36.1627C130.967 34.3889 131.371 33.3561 131.348 33.0642L131.651 33.1877C131.842 33.1765 131.932 33.0642 131.921 32.8621L131.629 32.8846L131.618 32.7611C131.595 32.5477 131.64 32.3458 131.73 32.1662C132.19 31.6835 132.403 31.2008 132.359 30.6955C132.449 30.6842 132.493 30.7293 132.505 30.8303C132.897 30.6058 133.201 30.0109 133.425 29.0229C134.121 27.7656 135.109 25.2511 136.4 21.4903C138.87 14.8444 138.769 14.1373 139.117 12.5656L138.825 12.5879C138.847 12.7901 138.802 12.9809 138.713 13.1606C138.51 13.0819 138.353 13.0371 138.241 13.0483L138.23 12.9248C138.185 12.3522 138.421 11.6676 138.96 10.8592L139.094 10.8479L139.341 11.8133L139.633 11.7911C139.622 11.7237 139.7 11.3419 139.858 10.6347C139.846 10.4887 139.734 10.399 139.509 10.3877L139.229 10.5673C139.207 10.3652 139.218 9.83763 139.251 8.99569L139.105 9.00697C138.858 8.75997 138.735 8.5578 138.724 8.38947L137.118 8.54652C137.107 8.4343 137.051 8.26597 136.939 8.05282C136.928 7.90676 137.287 7.76069 138.028 7.61493L138.353 7.73843L138.657 7.55882C138.668 7.65976 138.724 7.70458 138.836 7.6936L139.139 7.51399C139.15 7.61493 139.206 7.65976 139.319 7.64847L139.465 7.63749L139.442 7.31182C139.218 7.33438 138.623 7.33438 137.68 7.30054L137.377 7.50271L137.365 7.3231C129.833 7.9403 125.556 8.28854 124.534 8.38947C124.399 8.40076 123.872 8.38947 122.94 8.36691C122.951 8.49041 122.839 8.5578 122.615 8.58037L122.289 8.4343L121.189 8.71515C120.93 8.73741 120.493 8.72613 119.887 8.65904C119.718 8.79352 119.516 8.87219 119.269 8.89476C119.134 8.90574 120.874 8.8048 122.491 8.69258C122.322 8.82737 122.064 8.90574 121.705 8.93958C121.458 8.96215 121.245 8.9283 121.065 8.82737C120.818 8.93958 120.021 9.11919 118.685 9.38846L118.36 9.26526L113.106 10.0733C112.904 9.97241 112.668 9.93857 112.399 9.96113C112.118 9.98369 111.647 10.0846 110.996 10.2642L108.458 11.3193L108.649 11.6337C108.773 11.6224 108.952 11.5553 109.166 11.4318L110.064 11.5102L109.951 12.3522C109.121 12.7227 108.638 13.2728 108.503 13.9689C107.257 14.5188 106.64 14.9118 106.64 15.1475L106.651 15.2936L106.842 15.2823L107.179 15.1027L107.572 15.5741L107.628 16.2252C107.65 16.4274 105.551 20.8392 101.352 29.4608C97.7151 37.7679 95.8068 42.3146 95.6272 43.1339C94.3812 43.4819 93.6625 43.9872 93.4493 44.6608C93.4719 44.8739 93.8421 45.02 94.5605 45.0761L94.5944 45.4015L94.2687 45.9403L94.3248 46.5916C94.3586 46.9283 95.268 47.1866 97.0528 47.3662C97.0415 47.254 97.0979 47.1866 97.2211 47.1753C97.255 47.5793 97.1427 48.3652 96.8845 49.5328L97.0753 49.5215C97.8161 48.5112 98.1643 47.8151 98.1304 47.4336L98.2878 47.4223C98.4674 47.411 98.6583 47.6132 98.8827 48.0508C98.6583 48.1407 97.8725 49.9256 96.5252 53.4171L96.7161 53.7312L96.907 53.7202C98.557 49.5441 99.5899 47.2314 100.016 46.7935C102.183 46.6026 105.933 46.2211 111.254 45.6485L111.59 45.4466C111.602 45.5588 111.669 45.6149 111.793 45.6036L112.141 45.5701L112.478 45.3679C112.489 45.4801 112.556 45.5363 112.679 45.525L116.709 45.177C117.776 45.0874 118.281 44.7617 118.236 44.2116C118.225 44.0658 118.854 43.8972 120.122 43.7176C120.246 43.7063 120.425 43.7402 120.672 43.8188C120.661 43.7176 121.301 43.6167 122.581 43.5044C122.615 42.8308 122.828 42.4716 123.21 42.4381L123.176 42.1124C122.816 42.1459 122.412 42.2359 121.941 42.3929C121.099 42.3481 120.56 42.2807 120.335 42.2021C120.111 42.3256 119.943 42.3929 119.819 42.4042L117.013 42.4942L116.676 42.6738C116.665 42.5726 116.597 42.5277 116.474 42.539L116.317 42.5503L115.957 42.7299C115.946 42.6287 115.654 42.5503 115.07 42.4716L114.712 42.6848L114.015 42.7409L114.004 42.5613C117.619 42.1685 119.404 41.6745 119.359 41.0909C119.595 41.0683 119.718 41.1805 119.741 41.4165L120.796 41.147L120.762 40.8213L112.107 41.057C112.118 41.1695 112.062 41.2366 111.939 41.2479L110.883 41.1582C110.614 41.1805 110.389 41.2592 110.21 41.394L109.817 41.2479C108.728 41.3378 107.92 41.4726 107.381 41.641C106.64 41.5849 105.82 41.5958 104.911 41.6745L102.969 41.8428L102.071 41.7419C102.026 41.1695 103.137 38.3516 105.427 33.3C106.09 31.5935 106.696 30.5271 107.28 30.1231C107.403 30.1118 107.583 30.1566 107.83 30.2576L109.211 29.7861L109.918 29.8984C111.108 29.7974 112.489 29.4608 114.071 28.8768C114.465 28.8433 114.756 28.8658 114.969 28.9555L116.025 28.7085L119.168 28.4392C120.504 28.327 121.952 28.0349 123.524 27.5522L123.49 27.2268C122.906 27.2829 122.603 27.182 122.581 26.9459C122.547 26.5083 122.121 26.3287 121.301 26.3958L121.267 26.0705L122.132 25.8235L124.399 25.6326L124.366 25.3072C124.276 25.3182 123.816 25.3072 122.963 25.2733L122.929 24.9254L123.804 24.8467C124.04 24.8245 124.141 24.712 124.119 24.4875C122.94 24.5214 122.345 24.4653 122.334 24.3079C114.116 24.712 109.997 24.7906 109.974 24.5323C109.85 24.5436 109.682 24.6223 109.458 24.7571L109.244 24.4201C111.422 19.7951 112.702 17.4602 113.072 17.4263C113.083 17.606 112.994 17.8978 112.792 18.2908L112.803 18.4366L113.151 18.4031C114.015 16.3374 114.745 15.271 115.351 15.2262C117.933 15.0015 114.992 14.8331 120.515 13.9689C120.74 14.0699 120.897 14.1147 121.009 14.1034C123.176 13.6658 126.196 13.2054 130.069 12.7339L130.046 12.4083L127.98 12.5992L127.958 12.2738C128.205 12.2512 128.407 12.1726 128.576 12.0381L128.587 12.2177C128.699 12.2064 128.856 12.1277 129.058 11.9929C129.418 11.9594 129.687 11.9929 129.878 12.0942C130.596 11.9033 131.18 11.7911 131.606 11.7459L132.897 11.6224C133.212 11.4206 133.358 11.241 133.347 11.0726L133.335 10.9266C133.01 10.9601 132.639 10.9378 132.202 10.8592C132.19 10.6796 132.28 10.5561 132.493 10.5L134.896 10.2755L135.996 9.99468C136.007 10.1182 136.063 10.1633 136.153 10.1633C136.265 10.152 136.423 10.0733 136.624 9.93857C136.681 9.94985 136.748 9.94985 136.804 9.96113C136.658 10.2642 136.49 10.7021 136.321 11.2745L136.007 11.2971C135.985 11.0836 135.929 10.893 135.827 10.7244L135.67 10.7357C132.751 18.8632 131.449 22.6466 128.755 28.8881C128.261 30.4823 127.846 31.3691 127.487 31.56C127.498 31.7396 127.61 31.8292 127.801 31.807C127.868 32.5928 127.688 33.3673 127.251 34.1306C126.005 37.7231 125.174 39.6875 124.747 40.0467L125.028 41.7419C125.039 41.9215 124.95 42.0224 124.759 42.045L124.467 42.0676C124.422 41.5958 124.253 41.3714 123.95 41.4052L123.793 41.4165C123.411 42.0115 123.12 42.6961 122.929 43.4932L123.221 43.4706C123.614 43.2126 123.793 42.9095 123.759 42.5613L124.343 42.5052L124.68 42.6287C124.411 43.0553 124.287 43.3922 124.309 43.6502L124.467 43.9198L124.085 44.8178L124.096 44.9639C124.433 44.93 124.803 45.0423 125.197 45.278C125.466 45.2557 125.758 45.1322 126.083 44.9188C126.42 44.8852 127.677 44.8739 129.844 44.8739L130.933 44.5034C132.258 44.4921 132.471 44.526 133.616 44.4251L134.087 44.3799L134.334 44.2116L134.346 44.3577C135.547 44.2564 135.625 44.3351 136.568 44.4473L136.58 44.5934L135.917 44.6495L135.94 44.93C136.142 44.9078 136.321 44.8514 136.467 44.7282C136.636 44.7169 136.737 44.8065 136.748 45.0087C136.479 45.0313 136.176 45.0984 135.839 45.2109L135.547 45.1096C135.087 45.2331 135.188 45.267 134.873 45.2893L134.413 45.1996C134.424 45.278 134.379 45.3341 134.301 45.3341C134.312 45.514 134.413 45.6036 134.581 45.5924L135.053 45.5475L137.511 45.3341L138.443 45.1322C138.454 45.2109 138.488 45.2557 138.567 45.2444L139.015 45.0761L139.858 45.0087C140.509 44.9526 140.497 44.9078 141.912 44.683C141.901 44.5934 141.934 44.5595 142.002 44.5486L142.013 44.6718C144.314 44.279 144.46 44.2564 144.831 44.1329L144.864 44.2003C145.437 44.0658 145.111 44.0994 145.269 43.9872C145.28 44.0881 145.313 44.1329 145.369 44.1329L145.774 44.0994L145.751 43.7963L144.932 43.785L144.921 43.7627C144.887 43.7737 144.864 43.7737 144.831 43.785H144.718V43.8076C144.168 43.9198 144.157 43.8411 143.798 43.8749L141.743 43.9872L141.732 43.8411L142.877 43.6841L143.293 43.6502L143.529 43.4819L143.54 43.6279C145.156 43.4932 145.729 43.8972 153.205 42.3033C153.609 42.2694 153.576 41.9328 153.834 41.2366C153.699 41.2479 153.564 41.2143 153.441 41.147C152.824 41.3827 152.498 41.2705 151.308 41.4613C151.207 41.4726 151.129 41.3827 151.095 41.2031L151.083 41.0796L152.228 41.1131C152.442 41.0908 152.857 41.057 153.475 40.7091C153.475 40.8103 153.25 40.8664 153.385 40.8551ZM98.1082 41.7419L97.5803 41.7867C97.5581 41.5736 97.8386 40.7652 98.4223 39.3844L98.7705 39.3509C98.7818 39.6762 98.5683 40.4734 98.1082 41.7419ZM98.7479 39.1825L98.7367 39.0365C98.7254 38.8569 98.8379 38.7334 99.0849 38.6773L99.0959 38.823C99.1072 39.0365 98.9949 39.16 98.7479 39.1825ZM105.764 44.6047L105.776 44.7504L104.9 44.8291L104.889 44.683L105.764 44.6047ZM104.709 44.5147C104.72 44.6943 104.451 44.8965 103.867 45.0984L102.789 45.02L102.441 45.0535L102.408 44.7282L104.709 44.5147ZM111.804 11.8585L111.276 11.9033L111.265 11.7237C111.254 11.5441 111.355 11.4206 111.579 11.3645L111.77 11.3532L112.129 11.4989C112.141 11.7124 112.04 11.8359 111.804 11.8585ZM119.831 10.2868L119.999 10.2755L120.021 10.6009L119.538 10.646C119.527 10.4664 119.617 10.3429 119.831 10.2868ZM117.81 10.994L117.013 10.904L117.001 10.7582C118.045 10.6683 118.393 10.5561 119.033 10.3765C119.045 10.5 119.157 10.5448 119.359 10.5225L119.381 10.8479L119.067 10.8817C118.82 10.904 118.607 10.8705 118.427 10.7695C118.236 10.893 118.034 10.9714 117.81 10.994ZM118.809 13.9016L118.798 13.7555L120.089 13.632L120.1 13.7781L118.809 13.9016ZM120.19 12.7788L120.178 12.5992L120.807 12.5431L120.818 12.7227L120.19 12.7788ZM120.335 10.5786L120.167 10.5899L120.313 10.2417L121.75 10.1072L121.761 10.2868C121.391 10.3203 120.908 10.4213 120.335 10.5786ZM121.065 13.6768L121.043 13.3514L121.671 13.2953C121.885 13.2728 121.997 13.3737 122.008 13.5984L121.065 13.6768ZM124.871 8.49041L124.062 8.71515L123.917 8.72613C123.535 8.75997 123.041 8.74869 122.457 8.69258C123.501 8.62519 124.5 8.54652 124.871 8.49041ZM124.006 12.0829L124.018 12.2287L122.906 12.3299L122.895 12.1838L124.006 12.0829ZM125.825 12.9471C125.814 12.8126 125.601 12.7227 125.163 12.6778L124.051 12.9922L123.198 13.0258C123.007 12.891 122.906 12.8013 122.895 12.7339L123.883 12.7901L126.106 12.4308L127.24 12.4757L127.251 12.6553C126.69 12.7114 126.218 12.8126 125.825 12.9471ZM137.264 9.99468C137.399 10.006 137.489 10.006 137.522 10.006C137.916 9.62447 138.353 9.32137 138.858 9.10791C138.454 10.8817 137.826 12.1951 136.961 13.0483L136.333 12.6666C136.86 11.3306 137.175 10.4438 137.264 9.99468ZM135.334 13.3066L135.491 13.2953C135.277 13.6994 135.087 13.9125 134.929 13.9238L134.896 13.4972C134.997 13.4972 135.143 13.4298 135.334 13.3066ZM134.087 16.2813C134.39 15.0689 134.682 14.3843 134.952 14.2047L134.963 14.3504C134.806 15.4732 134.559 16.0681 134.233 16.113L134.29 16.8201C134.02 17.2019 133.896 17.4937 133.908 17.7182L133.751 17.7295L133.661 16.7527C133.84 16.7305 133.986 16.5731 134.087 16.2813ZM133.605 17.8978C133.616 18.0664 133.504 18.4592 133.279 19.0654L133.122 19.0767L133.088 18.6501C133.302 18.1561 133.481 17.9091 133.605 17.8978ZM124.545 44.189L124.534 44.0658L124.826 44.0433L124.86 44.4699C124.703 44.4812 124.59 44.3912 124.545 44.189ZM137.489 44.526C137.478 44.4251 137.433 44.3799 137.332 44.3912L136.602 44.4586L136.591 44.3125H136.658L138.387 44.1668L138.398 44.3125C137.893 44.3351 137.59 44.4138 137.489 44.526ZM136.624 44.1668C136.692 44.2003 136.658 44.2342 136.624 44.2564C136.591 44.2454 136.546 44.2116 136.624 44.1668ZM136.714 42.1459L135.749 42.2246L135.738 42.0786L136.613 42.0002L137.377 41.8093C137.388 41.8989 137.433 41.9328 137.534 41.9215C138.443 41.7645 138.353 41.7196 138.791 41.6858C138.937 41.6745 139.027 41.7645 139.038 41.9441L136.714 42.1459ZM140.093 41.8541C139.555 41.798 139.521 41.7532 139.139 41.7867L139.128 41.6632L139.992 41.5849L140.003 41.7084C139.914 41.7196 140.239 41.7419 140.093 41.8541ZM140.161 41.6971L140.15 41.5736L140.621 41.5287L140.632 41.6522L140.161 41.6971ZM141.205 41.6071L141.194 41.4836C141.272 41.4726 141.384 41.4165 141.53 41.304C141.766 41.2817 141.89 41.4388 141.912 41.6184L141.205 41.6071ZM142.541 41.4388L142.529 41.293L143.102 41.2479L143.113 41.394L142.541 41.4388ZM143.338 41.3714C143.326 41.2031 143.394 41.1021 143.54 41.0796L143.73 41.3266C143.719 41.2479 143.753 41.2031 143.82 41.1918L143.966 41.4613L143.338 41.3714ZM134.862 45.0313L134.84 44.7504L134.75 44.7617L134.772 45.0423L134.862 45.0313ZM154.586 39.9232C154.676 39.8671 154.721 39.811 154.508 39.7775C154.406 39.8897 154.62 39.9232 154.395 39.9345L154.406 40.0355C154.429 40.0132 154.485 39.9793 154.53 39.9458L154.406 40.0467V40.058L154.171 40.3611L154.642 40.1928H154.698L154.676 39.912L154.586 39.9232ZM155.406 40.5633L155.316 40.5746L155.338 40.8551L156.001 40.799C155.989 40.6194 155.551 40.5633 155.406 40.5633ZM154.384 40.0693L154.395 40.058V40.0467C154.395 40.0467 154.384 40.058 154.384 40.0693Z" fill="black"/>
<path d="M111.287 19.2899L111.298 19.4695L111.669 19.436C111.657 19.3238 111.702 19.1442 111.781 18.9194L111.747 18.5941C111.59 18.6053 111.433 18.8411 111.287 19.2899ZM107.739 10.7583L107.706 10.4327L107.178 10.4775L107.212 10.8032L107.739 10.7583ZM97.4453 30.0332C97.4227 29.7301 96.4798 28.5515 94.6163 26.4746C94.5825 26.0931 95.2226 25.5204 96.5359 24.7685L100.285 21.5017C101.127 20.435 101.621 18.7063 101.767 16.304L101.722 15.7539C101.576 14.0922 100.375 12.7566 98.0963 11.7351C96.7491 10.8257 94.3242 10.3204 90.822 10.2305C87.9257 10.4775 84.1423 11.5103 79.4837 13.3403C78.2039 14.2609 76.7445 15.1812 75.1054 16.1018L75.128 16.3826C75.2289 16.3714 75.386 16.3152 75.5659 16.1917C75.7565 16.1692 75.869 16.2591 75.88 16.4387L76.1608 16.2927L76.2953 16.2814L76.3066 16.4049C76.3179 16.551 75.3076 17.3478 73.2645 18.7737L73.4215 19.0655L73.2868 19.0768L72.9501 18.9533C72.9614 19.0542 72.8153 19.1216 72.5348 19.1442L72.5461 19.2677L72.8714 19.6717C72.7705 19.683 72.6134 19.6382 72.4 19.5595C71.9286 19.6043 71.4681 19.8513 71.0079 20.3228L71.1988 19.4921C71.8837 16.5397 72.3552 13.9239 72.6022 11.6564L72.5683 11.5103C72.0969 11.2072 71.6367 10.7806 71.2101 10.2418C71.2214 9.89384 71.2214 9.69167 71.2101 9.64684L71.1763 9.52334L71.0418 9.55718C69.5598 11.7799 66.7083 15.5742 62.4764 20.9403C59.2544 24.7572 57.5928 26.8786 57.4918 27.3053C56.1785 28.6638 55.5497 29.4831 55.6171 29.764C55.2691 29.9884 55.1231 30.2129 55.1795 30.4599C55.0782 30.4824 55.0108 30.4486 54.9886 30.3476C54.4272 31.257 53.5965 31.8406 52.485 32.0989L51.3174 32.3682C51.1604 32.402 51.0817 32.5142 51.093 32.7051L51.1268 32.8509L51.5644 32.7499L51.5983 32.8734L50.6103 33.2552L48.859 33.6593L47.9387 33.7154C47.8039 33.8502 48.6681 33.7041 48.3315 33.7828L47.1864 34.0523C46.4905 34.2094 46.1088 34.1533 46.0414 33.8727L45.9066 33.9063C45.9291 34.0298 45.9404 34.1194 45.9179 34.1981L45.8505 33.9176L44.9299 34.1307C44.8628 33.7041 43.6165 32.155 41.2029 29.4831C41.1581 28.9669 42.0113 28.2146 43.7513 27.2382L48.6681 22.916C49.7683 21.5017 50.4194 19.2338 50.6328 16.1131L50.5654 15.3834C50.3745 13.1832 48.7806 11.4094 45.7831 10.0399C44.0095 8.83874 40.8214 8.19868 36.2187 8.09774C32.4017 8.42312 27.4175 9.78162 21.2879 12.1504C19.604 13.3738 17.6845 14.5862 15.5291 15.7874L15.5627 16.1692C15.7088 16.1579 15.8996 16.0795 16.1354 15.9447C16.3824 15.9222 16.5171 16.0344 16.5394 16.2591L16.9212 16.0457L17.1121 16.0344L17.1231 16.214C17.1343 16.3936 15.7984 17.4377 13.093 19.346L13.3064 19.683L13.1155 19.6943L12.7002 19.5482C12.7115 19.6604 12.5206 19.7391 12.1275 19.7726L12.1501 19.9748L12.599 20.4688C12.4532 20.4801 12.251 20.435 11.9931 20.3453C11.1173 20.4237 10.2641 21.0525 9.42212 22.2424L9.63558 22.5793C10.3653 21.9057 10.7916 21.569 10.9151 21.5578L10.9602 22.1079C10.8367 22.1189 10.6458 22.1975 10.3876 22.3323L10.848 23.0282C11.7348 22.074 12.7115 21.2547 13.7779 20.5698C14.3054 20.7045 14.5863 20.8729 14.5972 21.0525L15.0016 21.0189C17.8979 18.8746 20.7604 17.3255 23.6006 16.3714L23.6344 16.7528C23.1066 17.5387 22.7474 17.943 22.5565 17.9653C22.579 18.2348 22.669 18.4706 22.8373 18.6727C22.8821 19.1554 21.591 22.411 18.9756 28.428C13.0369 42.4156 8.05264 52.7659 4 59.4565C4.01128 59.5913 4.08995 59.7709 4.23572 59.9954C5.235 59.7596 5.86348 59.5129 6.13305 59.2769L6.3462 59.2547L6.38005 59.6361L6.75025 59.6026L7.13203 59.3894C7.14331 59.5016 7.26681 59.5578 7.52509 59.5352L7.55864 59.917C7.59219 60.2875 7.37903 60.8486 6.92986 61.6231C6.52581 62.0836 6.08792 63.049 5.62777 64.5197L5.63905 64.699L6.00955 64.6655C7.62603 62.8581 8.84975 61.0843 9.69169 59.3556C14.4067 57.9748 17.9988 56.6163 20.4911 55.2807C22.9944 55.0672 24.9027 54.4049 26.2051 53.316L26.1825 53.1141L25.2396 53.3946L25.0262 53.4172L25.0039 53.215C26.8448 52.9345 28.1134 52.5301 28.8208 51.969C32.4017 49.2072 35.1072 47.2541 36.9371 46.0977C40.6979 43.3362 43.145 40.6418 44.2565 38.0263C44.4584 37.9812 44.6606 37.9364 44.885 37.8802C45.4126 37.858 45.7047 37.8467 45.7831 37.8241C45.7608 37.7232 45.8056 37.6671 45.9066 37.6445C46.7485 37.5549 46.3445 37.7006 46.8833 37.5771L48.2979 37.2518L48.5336 37.1954L48.4214 37.2627C48.5785 37.2853 48.7468 37.274 48.9377 37.2292L49.0386 37.6445L42.6062 47.8713L41.1806 49.6564L40.4845 51.9913L40.6192 51.9578L41.3151 51.6659L41.0907 52.5753L41.1581 52.8445L41.349 53.0802C41.259 53.1028 41.2255 53.1589 41.2477 53.2599L41.2816 53.4059L41.5734 53.3385C42 52.968 42.1796 52.6314 42.1122 52.3283C42.5724 52.4066 42.8755 52.4405 43.0328 52.3956L43.0664 52.5414C42.7858 52.6088 42.6398 52.8332 42.6175 53.215L42.651 53.3608L42.8084 53.3272C45.1433 50.7789 50.8685 42.0564 55.46 36.1403C55.314 35.5005 57.7053 34.6134 62.6447 33.4684L62.8017 33.4348C62.9813 34.2094 62.5999 36.0842 61.6567 39.0591C61.0505 40.8552 60.7586 41.8429 60.8035 42.0003C60.0176 44.3913 59.6471 45.6824 59.6923 45.8843L57.941 51.6208C56.8069 54.5622 55.9427 57.6492 55.3365 60.9047C55.4375 60.8824 55.5948 60.8937 55.8192 60.9498L56.0662 60.7364C56.0885 60.8376 56.1559 60.8711 56.2571 60.8486L56.1559 60.4332L56.9195 60.411C57.1439 60.3549 57.3348 60.074 57.4918 59.5578C57.4583 58.7832 57.6153 58.3679 57.9633 58.2779C58.4347 56.437 58.7268 55.5164 58.8278 55.4826C59.2657 53.6529 59.591 52.6088 59.8045 52.3505C60.4668 49.9708 60.9495 48.7471 61.2639 48.6684L61.3313 48.9602L60.8486 50.2065C60.0064 53.9447 59.1534 56.8972 58.2889 59.0638L58.5359 60.1414L58.693 60.1079C60.7812 55.6173 63.7897 46.7262 67.7076 33.4348C67.8198 32.2672 68.3812 31.3579 69.3802 30.7181L69.1557 30.4824L69.1219 30.3589C69.5711 30.2577 69.8855 30.0784 70.0651 29.8314C70.0425 29.7301 69.6497 29.5844 68.8862 29.3822L70.8396 21.0077C71.2662 20.6259 71.5132 20.424 71.5916 20.424L71.6255 20.8503C71.5245 20.8616 71.3672 20.9177 71.1876 21.0412L71.5581 21.569C72.2317 20.8393 72.9614 20.2105 73.7582 19.683C74.1626 19.7952 74.3644 19.93 74.387 20.0645L74.6788 20.0422C76.9015 18.4144 79.0794 17.2468 81.2237 16.5397L81.246 16.8202C80.8532 17.4152 80.5837 17.7183 80.4379 17.7296C80.4602 17.9317 80.5163 18.1113 80.6175 18.2684C80.651 18.6389 79.6856 21.1086 77.7099 25.6888C73.1971 36.2973 69.4137 44.1443 66.3378 49.2411C66.3491 49.342 66.4165 49.4768 66.54 49.6564C67.2923 49.4768 67.775 49.2859 67.9659 49.1063L68.1004 49.095L68.1229 49.3755L68.4373 49.3533L68.7179 49.2072C68.7291 49.2859 68.8301 49.3194 69.021 49.3084L69.0435 49.6116C69.0658 49.8808 68.9088 50.3074 68.5608 50.8911C68.2351 51.2393 67.8985 51.969 67.5393 53.0802L67.5502 53.2263L67.8424 53.2037C69.0658 51.8343 69.9977 50.487 70.6375 49.1624C74.2187 48.1073 76.9466 47.0854 78.8324 46.0752C80.7523 45.9069 82.2001 45.4129 83.1881 44.5822L83.1769 44.4361L82.4471 44.6496L82.2901 44.6609L82.2788 44.5148C83.6709 44.3126 84.6476 43.9985 85.1751 43.5832C87.8918 41.495 89.9462 40.002 91.3382 39.1262C95.6714 35.9719 97.6923 32.9408 97.4453 30.0332ZM96.7043 30.2241L96.8052 31.3579C96.6707 31.6387 96.5247 31.7845 96.3899 31.7958L96.2215 29.8649C96.5359 29.9771 96.693 30.0894 96.7043 30.2241ZM11.7009 21.0863L11.5103 21.0973L11.4765 20.7494L12.251 20.682L12.2623 20.8616C12.1388 20.8729 11.9479 20.9403 11.7009 21.0863ZM7.91786 58.929C7.46898 58.7268 7.06464 58.6484 6.7167 58.682L6.67188 58.1319C6.64931 57.9187 6.77281 57.7727 7.04238 57.7165C7.28908 57.6943 7.43514 57.8739 7.4577 58.2331C8.10875 57.436 8.46797 57.0319 8.53536 57.0207L8.95069 57.189C8.81591 58.3115 8.46797 58.8842 7.91786 58.929ZM48.3427 16.6406C48.1518 16.6632 47.7701 16.0682 47.2202 14.8894L47.1864 14.5414C47.5456 14.5079 47.9161 15.0915 48.3089 16.2927L48.3427 16.6406ZM47.8039 12.4535L47.6466 12.824L42.157 10.5336C45.8169 10.6571 47.703 11.2972 47.8039 12.4535ZM24.6221 32.3572L23.8476 32.4246L23.814 32.0763L24.5886 32.0089L24.6221 32.3572ZM23.9933 20.4014L24.1842 20.3902L24.2294 20.9403C24.0497 20.9515 23.814 21.2208 23.5219 21.7374L23.4884 21.3556C23.8363 20.9403 24.0159 20.6259 23.9933 20.4014ZM22.3656 24.2406L22.433 24.9703L22.2424 24.9816L22.175 24.2519L22.3656 24.2406ZM21.5127 25.6104L21.8832 25.5766C21.8493 26.1828 21.681 26.5084 21.3779 26.5307L21.187 26.542C21.4227 26.1379 21.5349 25.8236 21.5127 25.6104ZM20.8726 27.5187L21.086 27.4962L21.097 27.6758L20.7491 28.2597L20.3786 28.2933L20.3676 28.1137C20.7381 28.0801 20.9064 27.8892 20.8726 27.5187ZM20.2441 29.2364L20.1319 30.1567L19.941 30.168L19.8623 29.2587L20.2441 29.2364ZM13.9462 47.1419C13.6992 48.3991 13.4299 49.0389 13.1491 49.0614L13.1381 48.8818C13.0707 48.2643 13.34 47.6807 13.9462 47.1419ZM12.7899 49.6451L12.8012 49.8247C12.8237 50.0717 12.7115 50.2178 12.4645 50.2288L12.4532 50.0492C12.4307 49.836 12.5429 49.7012 12.7899 49.6451ZM12.4532 54.8428L13.0369 54.7867L13.0594 54.9889C12.9134 54.9998 12.7225 55.0785 12.4868 55.2133L12.1163 55.2468C12.094 55.0559 12.2175 54.9102 12.4532 54.8428ZM29.0675 49.7125C25.7897 51.329 23.8589 52.4292 23.2862 53.0016C19.7388 54.2366 17.9763 54.9998 18.0101 55.3029C14.8555 56.5492 12.7786 57.4695 11.7796 58.0422C11.5439 58.0645 11.2072 57.9748 10.7581 57.7726C10.702 57.1329 10.9938 56.6163 11.6113 56.201C12.1614 56.1562 12.6889 56.2348 13.1942 56.448C13.7779 56.1449 14.7994 55.8082 16.2476 55.449L16.214 55.0672L15.0464 55.1682C15.1922 54.9663 16.315 54.4387 18.4255 53.5855L19.0091 53.5294L19.0204 53.709C18.0214 53.7987 17.4713 54.0905 17.3478 54.6184C17.3701 54.8541 17.5048 54.955 17.7518 54.9324C18.5041 54.461 18.8743 54.1805 18.8633 54.1018C20.2889 53.8325 24.2294 51.7669 30.6843 47.9164L30.7179 48.2643C30.7291 48.4327 30.179 48.9041 29.0675 49.7125ZM19.1665 52.968C20.1093 52.8894 20.9177 52.5079 21.591 51.8455C21.8606 51.823 22.0067 51.9239 22.0176 52.1596C21.5575 52.2048 20.6707 52.5862 19.3796 53.3272L19.1887 53.3385L19.1665 52.968ZM35.141 40.6979L30.1903 44.627C26.5082 47.0406 24.5325 48.2531 24.2403 48.2756C18.3806 51.4973 14.732 53.1702 13.3177 53.2937L13.1043 53.316C13.2839 52.6536 15.8884 47.3215 20.94 37.2853C23.1627 37.0944 26.6652 36.0616 31.4363 34.1758L32.6039 34.0746C35.0175 33.8614 36.8249 34.3329 38.0147 35.4554L38.0821 36.1851C37.1954 38.756 36.2074 40.2603 35.141 40.6979ZM25.4641 35.2535L26.2612 35.1861L26.2725 35.3657L25.4753 35.4331L25.4641 35.2535ZM36.6565 33.3562L37.2402 33.3001C37.779 33.5583 38.0596 33.7828 38.0821 33.9849L38.0934 34.1646C37.5769 34.2094 37.0941 33.9398 36.6565 33.3562ZM38.2392 24.3419C37.7229 24.9591 36.3083 26.0144 33.996 27.4962C33.2324 27.5635 30.3922 28.6638 25.4753 30.8191C25.2283 30.7069 24.9701 30.662 24.6895 30.6843L24.656 30.3364C24.5999 29.6292 24.914 28.7424 25.6101 27.6648C25.9916 25.6439 26.4072 24.4876 26.8674 24.2071L30.9649 14.9906C30.92 14.4179 31.7955 13.98 33.5916 13.6769L34.1756 13.6208L34.2204 14.1487C35.9829 13.8791 37.0829 13.722 37.5095 13.6882C40.7653 13.4077 42.4602 14.07 42.5949 15.6529L42.9654 15.6191L42.8868 14.6875L43.2911 14.6536C44.2453 15.1812 44.7615 15.8212 44.8289 16.5732C44.8738 17.0898 44.5932 17.7296 43.9983 18.4931C43.7513 18.5154 43.6052 18.3358 43.5829 17.9766L43.1786 18.0104L43.0889 19.1329C41.4386 21.6026 40.2375 22.8711 39.4967 22.9385C38.8231 23.8701 38.4078 24.3306 38.2392 24.3419ZM40.754 30.7968C40.4171 30.5721 40.1478 30.4711 39.9456 30.4824L39.9008 29.9323L40.2713 29.8985L41.0907 30.3815C41.1245 30.6395 41.012 30.7742 40.754 30.7968ZM43.3585 33.8837C43.7177 34.0298 43.9309 34.1868 43.9757 34.3329L43.7961 34.3777L43.8074 34.389C43.7738 34.389 43.7287 34.4003 43.6952 34.4116L43.4256 34.6247L43.3585 33.8837ZM43.6052 35.4331L43.5717 35.287L44.0431 35.1748L44.0769 35.3209L43.6052 35.4331ZM44.7393 36.7016C45.222 36.623 45.4577 36.5894 46.3558 36.3873L46.3893 36.533L44.6832 36.9261C44.7054 36.8474 44.728 36.769 44.7393 36.7016ZM46.4006 37.4088C45.6821 37.4762 45.8392 37.3862 44.6941 37.6445L44.6606 37.4985L46.0975 37.0383L46.7824 36.8813L46.8498 37.1505C46.5354 37.2179 46.7598 37.2179 46.4006 37.4088ZM47.9161 37.0496C47.7478 37.0944 47.613 37.016 47.5343 36.8251L47.9722 36.7239C48.1631 36.6791 48.2866 36.7578 48.3315 36.9487L47.9161 37.0496ZM52.0249 32.6264L51.991 32.4807L52.6985 32.3121L52.7659 32.5816L52.0249 32.6264ZM56.4142 59.5465C56.459 59.3443 56.4703 59.1985 56.4477 59.0973L56.6051 59.0638C56.796 59.0189 56.9082 59.0863 56.953 59.2659L56.9868 59.4117L56.4142 59.5465ZM59.4901 33.7828L59.1757 33.7267C58.6707 33.9288 58.2441 34.0746 57.8959 34.1533L57.604 34.2207C57.4357 34.2655 57.3009 34.1981 57.2335 34.0185L59.2879 33.5471L59.9615 33.2327L60.1863 33.4909C59.8606 33.5583 59.6249 33.6593 59.4901 33.7828ZM61.073 33.2775L61.0392 33.1317C61.1404 33.1092 61.2749 33.0308 61.421 32.8847L62.8804 32.5478L62.914 32.6938C62.1394 32.8847 61.5219 33.0756 61.073 33.2775ZM61.2975 30.3251C61.1965 30.3476 61.0618 30.4373 60.8934 30.5721C60.8709 30.4711 60.669 30.4711 60.2872 30.5608C60.2198 30.2802 61.2975 29.8875 63.5315 29.3709L63.8458 29.3035L63.9132 29.5731C62.3416 30.0332 61.4658 30.2915 61.2975 30.3251ZM65.2266 26.0818C65.0696 27.8667 64.4408 28.8769 63.3293 29.1352L63.2957 28.9894L62.3077 29.3709L61.8701 29.4722C61.6454 29.5283 61.4435 29.517 61.2639 29.4609L61.174 29.0678C61.1404 28.922 62.566 26.946 65.4623 23.1517L65.799 23.2078C65.9225 23.7244 65.7319 24.6785 65.2266 26.0818ZM72.1756 20.1319L72.0408 20.1432L72.0182 19.8626L72.6022 19.8065L72.6132 19.9523C72.5122 19.9748 72.3665 20.0309 72.1756 20.1319ZM69.3128 48.8818C68.9761 48.7245 68.673 48.6571 68.4147 48.6797L68.3812 48.2531C68.3699 48.1073 68.4596 48.0061 68.6505 47.9499C68.8414 47.9277 68.9536 48.0622 68.9761 48.354C69.4589 47.7368 69.7281 47.4224 69.7842 47.4224L70.0873 47.5459C69.9751 48.3991 69.7171 48.848 69.3128 48.8818ZM100.005 16.7754C99.8589 16.7867 99.578 16.3375 99.1404 15.4282L99.1179 15.1476C99.3984 15.1251 99.6905 15.563 99.9824 16.461L100.005 16.7754ZM99.6006 13.5647L99.4658 13.8565L95.3122 12.1165C98.085 12.2065 99.5219 12.6892 99.6006 13.5647ZM81.987 28.6863L81.4033 28.7424L81.3808 28.4616L81.9644 28.4055L81.987 28.6863ZM81.5043 19.6043L81.6613 19.593L81.6952 20.0197C81.5491 20.0309 81.3695 20.2331 81.1563 20.6259L81.1338 20.3453C81.392 20.0197 81.5155 19.7727 81.5043 19.6043ZM80.2805 22.5232L80.3257 23.0733L80.1683 23.0846L80.1235 22.5345L80.2805 22.5232ZM79.6182 23.567L79.91 23.5447C79.8765 24.0162 79.753 24.2632 79.5398 24.2854L79.3825 24.2967C79.5508 23.9826 79.6295 23.7356 79.6182 23.567ZM79.1468 25.0042L79.2816 24.9929L79.2928 25.1387L79.0346 25.5878L78.7427 25.6104L78.7315 25.4643C79.0346 25.4418 79.1693 25.2847 79.1468 25.0042ZM78.6753 26.3063L78.5744 27.0247L78.4396 27.036L78.3835 26.3288L78.6753 26.3063ZM73.8817 39.9233C73.6911 40.8665 73.4889 41.3492 73.2755 41.3715L73.2645 41.248C73.2307 40.7766 73.4328 40.3274 73.8817 39.9233ZM72.9949 41.8207L73.0062 41.9442C73.0288 42.146 72.9388 42.2583 72.7367 42.2695L72.7257 42.1238C72.7144 41.9777 72.804 41.8768 72.9949 41.8207ZM72.7479 45.7721L73.1971 45.7385L73.2081 45.8843C73.1072 45.8956 72.9501 45.9517 72.7705 46.0529L72.4787 46.0752C72.4674 45.9181 72.557 45.8172 72.7479 45.7721ZM85.3547 41.8768C82.885 43.1005 81.4143 43.9311 80.9542 44.3578C78.26 45.3006 76.9241 45.8843 76.9466 46.12C74.5553 47.0745 72.9837 47.7591 72.243 48.1969C72.0633 48.2082 71.8051 48.1408 71.4681 47.9838C71.4233 47.5011 71.6477 47.108 72.1195 46.8162C72.5461 46.7826 72.9501 46.8387 73.3206 46.9958C73.7695 46.7714 74.544 46.5244 75.6442 46.2435L75.622 45.963L74.7127 46.0416C74.8249 45.8843 75.6891 45.4802 77.2946 44.8292L77.7435 44.7954L77.7547 44.9189C76.9915 44.9862 76.5649 45.211 76.4749 45.615C76.4862 45.7946 76.5984 45.8843 76.7893 45.862C77.3507 45.4915 77.62 45.2781 77.62 45.211C78.6979 45.0201 81.6839 43.4484 86.5897 40.5073L86.612 40.7878C86.612 40.9001 86.1967 41.2593 85.3547 41.8768ZM77.8334 44.3465C78.5631 44.2791 79.1806 43.9985 79.6969 43.5045C79.8878 43.4933 80 43.5719 80.0113 43.7515C79.6743 43.7851 79.012 44.0659 78.013 44.6048L77.856 44.6157L77.8334 44.3465ZM89.98 35.0178L86.2418 38.0263C83.4464 39.8559 81.9309 40.7766 81.6952 40.7991C77.2497 43.2463 74.4879 44.5148 73.399 44.6048L73.2419 44.6157C73.3767 44.1108 75.3637 40.0581 79.2029 32.4468C80.8755 32.3011 83.5251 31.504 87.1621 30.0671L88.0714 29.9884C89.9014 29.8314 91.2709 30.1906 92.1689 31.0548L92.214 31.6049C91.5291 33.5358 90.7881 34.6695 89.98 35.0178ZM82.638 30.8865L83.222 30.8304L83.233 30.9764L82.6493 31.0325L82.638 30.8865ZM91.1361 29.4383L91.5852 29.4048C92.0006 29.6066 92.214 29.7862 92.225 29.9323L92.2363 30.0558C91.8435 30.0894 91.473 29.8875 91.1361 29.4383ZM92.315 22.6016C91.9219 23.0733 90.8555 23.8814 89.1155 25.0042C88.5319 25.0603 86.3763 25.8909 82.6493 27.5074C82.4697 27.44 82.2675 27.4178 82.0544 27.4288L82.0318 27.1482C81.987 26.6094 82.2227 25.9358 82.7393 25.1164C83.0311 23.567 83.3565 22.7028 83.6934 22.5006L86.8255 15.4956C86.7916 15.0802 87.4539 14.7436 88.8012 14.4853L89.2503 14.4518L89.2839 14.8781C90.6085 14.6649 91.4392 14.5414 91.7761 14.5079C94.2458 14.2944 95.5367 14.7884 95.6379 16.0009L95.9297 15.9783L95.8736 15.3047L96.1654 15.2824C96.8839 15.6752 97.2657 16.1466 97.3105 16.708C97.344 17.1121 97.1422 17.6061 96.7155 18.1787C96.5247 18.201 96.4124 18.0665 96.3899 17.7744L96.098 17.7969L96.0084 18.6389C94.7621 20.5362 93.8528 21.5126 93.2804 21.5578C92.7751 22.2424 92.4607 22.5906 92.315 22.6016ZM93.6283 27.2717L93.5948 26.8451L93.8866 26.8228L94.5151 27.2043C94.5264 27.3839 94.4367 27.4852 94.2458 27.5074C93.9763 27.3391 93.7744 27.2604 93.6283 27.2717ZM41.3712 54.5397L41.0794 54.6071L40.8324 54.8202C40.8775 54.9998 40.9897 55.0672 41.1806 55.0224C41.3712 54.9776 41.4499 54.8654 41.4051 54.6857L41.3712 54.5397ZM40.26 52.3283L40.2936 52.474C40.4845 52.4292 40.5631 52.317 40.5183 52.1374L40.4845 51.9913C40.3048 52.0361 40.2262 52.1487 40.26 52.3283ZM48.208 37.3975L48.4214 37.2627C48.3763 37.2627 48.3427 37.2515 48.3089 37.2405C48.2305 37.2627 48.1967 37.3189 48.208 37.3975ZM48.1631 33.5245L48.4998 33.4461L48.4324 33.154L48.0957 33.2327L48.1631 33.5245ZM127.497 44.8627L126.734 44.7731L126.599 45.0649L126.61 45.211L131.157 44.8292L131.134 44.5487L127.497 44.8627ZM131.651 44.5148L131.673 44.7954H131.718L131.696 44.5148H131.651ZM150.724 42.0225L150.746 42.3034L151.24 42.393L151.218 42.1125L150.724 42.0225ZM150.028 42.0787C146.615 42.8422 146.189 42.7074 145.47 42.7635L145.492 43.0441L145.807 43.0218L145.975 43.0105L145.93 42.977L146.301 42.8309C149.68 42.4604 150.073 42.5952 150.039 42.2134L150.028 42.0787ZM129.54 37.117L129.237 37.016C128.99 37.6781 128.867 38.0711 128.878 38.1834L128.889 38.3069C129.125 38.2956 129.338 37.8915 129.54 37.117ZM125.432 34.9056L125.42 34.7595L125.263 34.7708L124.982 34.9504L125.14 35.2197C125.353 35.1974 125.454 35.0962 125.432 34.9056ZM134.356 44.133L134.334 43.8525L134.244 43.8638L134.266 44.1443L134.356 44.133ZM152.879 39.9572L153.092 39.9346C153.216 39.9233 153.272 39.8224 153.261 39.6428L153.137 39.3732C152.363 39.4406 152.003 39.4745 151.375 39.8224L151.364 39.6763L150.432 39.7663C150.41 39.4854 150.331 39.3397 150.207 39.351L149.725 39.3958C149.163 39.4406 148.894 39.4184 148.613 39.6315C148.602 39.5306 148.568 39.4854 148.512 39.4854L147.973 39.5306L147.659 39.7102C147.648 39.6089 147.614 39.5641 147.558 39.5641L147.367 39.7324L147.356 39.5867L146.604 39.5306L146.424 39.5419L146.447 39.8224L146.828 39.9233L147.188 39.9011C147.311 39.9794 147.446 40.002 147.603 39.9907L147.917 39.8337L147.929 39.9572C146.166 40.3948 146.177 40.3164 144.965 40.5183C144.83 40.4286 144.729 40.3838 144.662 40.3948L144.639 40.4173C144.505 40.4061 144.426 40.3164 144.415 40.1703L145.044 40.0917C145.088 40.0917 145.122 40.1368 145.47 40.2042C145.975 39.9572 145.998 39.8559 146.267 39.8337L146.245 39.5528C144.516 39.8898 145.212 39.6651 143.045 39.8559L142.944 39.8672L142.922 39.5867C145.706 39.2497 144.774 39.4406 145.728 39.1714C145.739 39.2723 145.773 39.3171 145.829 39.3171C145.942 39.2049 146.065 39.1488 146.211 39.1262L146.402 39.1152C147.378 39.0366 147.704 39.2275 149.635 38.6886L149.646 38.8121L149.96 38.6548L150.252 38.6325C150.23 38.3517 150.657 38.3069 150.802 38.2956L150.78 37.9925C147.39 38.6774 146.503 38.4865 145.56 38.756L145.549 38.6325C144.662 38.7896 144.628 38.7222 144.403 38.7335C144.336 38.7447 144.235 38.8009 144.123 38.9131C144.112 38.8121 144.078 38.767 144.011 38.767C143.977 38.767 143.966 38.7783 143.955 38.7783L141.081 39.2497C141.07 39.1714 141.036 39.1262 140.968 39.1375C139.475 39.4519 139.879 39.508 137.881 39.6876C137.791 39.6989 137.668 39.7437 137.511 39.8447C137.5 39.7663 137.455 39.7215 137.354 39.7324L136.13 39.8337L135.31 40.0356C135.299 39.9572 135.254 39.9121 135.153 39.9233C134.693 40.0468 134.289 40.1255 133.963 40.1478H133.941C133.739 40.1703 134.042 40.0917 133.885 40.0246L133.638 40.1703C133.279 40.2042 133.47 40.1478 132.235 40.1591C130.068 40.4286 130.304 40.4622 130.068 40.4734L129.26 40.4173C129.271 40.496 129.226 40.5521 129.136 40.5521C128.216 40.4286 127.744 40.2826 127.733 40.1142C127.857 39.2387 128.07 38.7896 128.373 38.767L128.53 38.756L128.395 39.0479L128.552 39.0366C128.844 38.8792 128.979 38.7335 128.968 38.5987L128.945 38.2956L128.653 38.3181L128.631 38.0373C128.609 37.8241 128.642 37.6332 128.721 37.4762L129.383 36.4095L129.406 36.6904L129.72 36.6678L129.697 36.3873L129.518 36.129C129.754 35.9268 129.933 35.8146 130.079 35.8033L130.068 35.6575L129.641 35.6911L129.608 35.2645C130.461 33.4909 130.865 32.4581 130.843 32.1663L131.146 32.2898C131.337 32.2785 131.426 32.1663 131.415 31.9641L131.123 31.9867L131.112 31.8632C131.09 31.6497 131.134 31.4479 131.224 31.2682C131.684 30.7855 131.898 30.3028 131.853 29.7975C131.943 29.7862 131.988 29.8314 131.999 29.9323C132.392 29.7079 132.695 29.1126 132.919 28.1249C133.615 26.8677 134.603 24.3528 135.894 20.5923C138.364 13.9465 138.263 13.2393 138.611 11.6677L138.319 11.6899C138.342 11.8921 138.297 12.083 138.207 12.2626C138.005 12.1839 137.848 12.1391 137.735 12.1504L137.724 12.0269C137.679 11.4542 137.915 10.7696 138.454 9.96123L138.589 9.94995L138.836 10.9154L139.127 10.8931C139.116 10.8257 139.195 10.4439 139.352 9.73679C139.341 9.59073 139.228 9.50107 139.004 9.48979L138.723 9.6694C138.701 9.46723 138.712 8.93968 138.746 8.09774L138.6 8.10903C138.353 7.86203 138.229 7.65985 138.218 7.49153L136.613 7.64857C136.602 7.53635 136.545 7.36803 136.433 7.15457C136.422 7.00881 136.781 6.86274 137.522 6.71698L137.848 6.84048L138.151 6.66087C138.162 6.76181 138.218 6.80663 138.33 6.79535L138.633 6.61574C138.645 6.71698 138.701 6.76181 138.813 6.75053L138.959 6.73924L138.937 6.41387C138.712 6.43613 138.117 6.43613 137.174 6.40259L136.871 6.60476L136.86 6.42515C129.327 7.04235 125.05 7.39059 124.028 7.49153C123.894 7.50281 123.366 7.49153 122.434 7.46896C122.445 7.59246 122.333 7.65985 122.109 7.68242L121.783 7.53635L120.683 7.8172C120.425 7.83946 119.987 7.82818 119.381 7.76079C119.212 7.89557 119.01 7.97424 118.763 7.99681C118.629 8.00779 120.369 7.90685 121.985 7.79463C121.817 7.92942 121.559 8.00779 121.199 8.04163C120.952 8.0639 120.739 8.03035 120.56 7.92942C120.313 8.04163 119.516 8.22124 118.18 8.49051L117.854 8.36701L112.6 9.1754C112.398 9.07446 112.163 9.04062 111.893 9.06318C111.612 9.08545 111.141 9.18668 110.49 9.36629L107.953 10.4214L108.143 10.7358C108.267 10.7245 108.447 10.6571 108.66 10.5336L109.558 10.6123L109.446 11.4542C108.615 11.8247 108.132 12.3748 107.998 13.0707C106.752 13.6208 106.134 14.0139 106.134 14.2496L106.145 14.3954L106.336 14.3844L106.673 14.2048L107.066 14.6762L107.122 15.3272C107.144 15.5294 105.045 19.941 100.847 28.5628C97.2095 36.87 95.3009 41.4166 95.1213 42.236C93.8753 42.5839 93.1569 43.0892 92.9435 43.7628C92.966 43.976 93.3365 44.122 94.0549 44.1782L94.0885 44.5035L93.7631 45.0424L93.8192 45.6937C93.8528 46.0304 94.7621 46.2886 96.5472 46.4682C96.5359 46.356 96.592 46.2886 96.7155 46.2774C96.7491 46.6814 96.6369 47.4672 96.3786 48.6348L96.5695 48.6236C97.3105 47.6133 97.6584 46.9171 97.6249 46.5356L97.7819 46.5244C97.9615 46.5131 98.1524 46.7152 98.3769 47.1528C98.1524 47.2428 97.3666 49.0276 96.0194 52.5189L96.2103 52.8332L96.4012 52.822C98.0515 48.6461 99.0843 46.3335 99.5106 45.8956C101.678 45.7047 105.427 45.3232 110.748 44.7505L111.085 44.5484C111.096 44.6609 111.163 44.717 111.287 44.7057L111.635 44.6719L111.972 44.47C111.983 44.5822 112.05 44.6383 112.174 44.627L116.204 44.2791C117.27 44.1891 117.776 43.8638 117.73 43.3137C117.719 43.1676 118.348 42.9993 119.616 42.8196C119.74 42.8084 119.92 42.8422 120.167 42.9206C120.155 42.8197 120.795 42.7187 122.075 42.6065C122.109 41.9329 122.322 41.5737 122.704 41.5398L122.67 41.2144C122.311 41.248 121.907 41.3379 121.435 41.495C120.593 41.4502 120.054 41.3828 119.83 41.3041C119.605 41.4276 119.437 41.495 119.313 41.5063L116.507 41.5959L116.17 41.7755C116.159 41.6746 116.092 41.6298 115.968 41.6411L115.811 41.652L115.452 41.8319C115.44 41.7307 115.149 41.652 114.565 41.5737L114.206 41.7868L113.51 41.8429L113.498 41.6633C117.113 41.2706 118.898 40.7766 118.853 40.1929C119.089 40.1703 119.212 40.2826 119.235 40.5183L120.29 40.249L120.257 39.9233L111.601 40.1591C111.612 40.2713 111.556 40.3387 111.433 40.3499L110.377 40.2603C110.108 40.2826 109.884 40.3612 109.704 40.496L109.311 40.3499C108.222 40.4399 107.414 40.5744 106.875 40.743C106.134 40.6869 105.315 40.6979 104.405 40.7766L102.463 40.9449L101.565 40.8439C101.52 40.2713 102.632 37.4536 104.922 32.402C105.584 30.6956 106.19 29.6292 106.774 29.2252C106.897 29.2139 107.077 29.2587 107.324 29.3596L108.705 28.8882L109.412 29.0004C110.602 28.8995 111.983 28.5628 113.566 27.9789C113.959 27.9453 114.25 27.9679 114.464 28.0575L115.519 27.8105L118.662 27.541C119.998 27.4288 121.446 27.1369 123.018 26.6542L122.984 26.3288C122.401 26.3849 122.097 26.2837 122.075 26.048C122.041 25.6104 121.615 25.4305 120.795 25.4979L120.762 25.1725L121.626 24.9255L123.894 24.7346L123.86 24.4092C123.77 24.4202 123.31 24.4092 122.457 24.3754L122.423 24.0275L123.299 23.9488C123.534 23.9265 123.636 23.814 123.613 23.5896C122.434 23.6231 121.839 23.567 121.828 23.41C113.611 23.814 109.491 23.8927 109.468 23.6344C109.345 23.6457 109.176 23.7244 108.952 23.8591L108.739 23.5222C110.916 18.8972 112.196 16.5619 112.567 16.5284C112.578 16.708 112.488 16.9998 112.297 17.3929L112.308 17.5387L112.657 17.5051C113.521 15.4395 114.25 14.3731 114.857 14.3283C117.439 14.1035 114.497 13.9352 120.021 13.0707C120.245 13.1719 120.402 13.2168 120.515 13.2055C122.681 12.7676 125.701 12.3074 129.574 11.836L129.551 11.5103L127.486 11.7012L127.463 11.3755C127.71 11.3533 127.913 11.2746 128.081 11.1398L128.092 11.3194C128.204 11.3084 128.362 11.2298 128.564 11.095C128.923 11.0614 129.192 11.095 129.383 11.1959C130.102 11.0053 130.685 10.8928 131.112 10.848L132.403 10.7245C132.717 10.5226 132.863 10.343 132.852 10.1744L132.841 10.0286C132.515 10.0622 132.145 10.0399 131.707 9.96123C131.696 9.78162 131.785 9.65812 131.999 9.60201L134.401 9.37757L135.501 9.09673C135.513 9.22023 135.569 9.26506 135.658 9.26506C135.771 9.25407 135.928 9.1754 136.13 9.04062C136.186 9.0519 136.253 9.0519 136.309 9.06318C136.164 9.36629 135.995 9.80418 135.827 10.3766L135.513 10.3991C135.49 10.1857 135.434 9.99478 135.333 9.82645L135.176 9.83773C132.257 17.9653 130.955 21.7487 128.261 27.9902C127.767 29.5844 127.351 30.4711 126.992 30.662C127.003 30.8416 127.116 30.9313 127.306 30.909C127.374 31.6949 127.194 32.4694 126.756 33.2327C125.51 36.8251 124.679 38.7896 124.253 39.1488L124.534 40.8439C124.545 41.0236 124.455 41.1245 124.264 41.1471L123.972 41.1696C123.927 40.6979 123.759 40.4734 123.456 40.5073L123.299 40.5183C122.917 41.1132 122.625 41.7981 122.434 42.5952L122.726 42.5727C123.119 42.3147 123.299 42.0116 123.265 41.6633L123.849 41.6072L124.185 41.7307C123.916 42.1573 123.793 42.4943 123.815 42.7523L123.972 43.0218L123.59 43.9199L123.602 44.0659C123.939 44.0321 124.309 44.1443 124.702 44.38C124.971 44.3578 125.263 44.2343 125.589 44.0208C125.926 43.9873 127.183 43.976 129.35 43.976L130.438 43.6055C131.763 43.5942 131.976 43.628 133.121 43.5268L133.593 43.482L133.84 43.3137L133.851 43.4597C135.052 43.3585 135.131 43.4371 136.074 43.5494L136.085 43.6954L135.423 43.7515L135.445 44.0321C135.647 44.0095 135.827 43.9534 135.973 43.8299C136.141 43.8189 136.242 43.9086 136.253 44.1108C135.984 44.133 135.681 44.2004 135.344 44.3126L135.052 44.2117C134.592 44.3352 134.693 44.3687 134.379 44.3913L133.918 44.3017C133.93 44.38 133.885 44.4361 133.806 44.4361C133.818 44.6157 133.918 44.7057 134.087 44.6944L134.558 44.6496L137.017 44.4361L137.949 44.2343C137.96 44.3126 137.993 44.3578 138.072 44.3465L138.521 44.1782L139.363 44.1108C140.014 44.0546 140.003 44.0095 141.417 43.7851C141.406 43.6954 141.44 43.6616 141.507 43.6503L141.518 43.7738C143.82 43.381 143.966 43.3585 144.336 43.235L144.37 43.3024C144.942 43.1676 144.617 43.2014 144.774 43.0892C144.785 43.1902 144.819 43.235 144.875 43.235L145.279 43.2014L145.257 42.8983L144.437 42.887L144.426 42.8645C144.392 42.8758 144.37 42.8758 144.336 42.887H144.224V42.9096C143.674 43.0218 143.662 42.9431 143.303 42.977L141.249 43.0892L141.238 42.9431L142.383 42.7861L142.798 42.7523L143.034 42.5839L143.045 42.73C144.662 42.5952 145.234 42.9993 152.711 41.4053C153.115 41.3715 153.081 41.0348 153.339 40.3387C153.205 40.3499 153.07 40.3164 152.947 40.249C152.329 40.4847 152.003 40.3725 150.814 40.5634C150.713 40.5747 150.634 40.4847 150.6 40.3051L150.589 40.1816L151.734 40.2152C151.947 40.1929 152.363 40.1591 152.98 39.8111C152.98 39.9121 152.744 39.9682 152.879 39.9572H152.879ZM97.6023 40.8439L97.0748 40.8888C97.0522 40.6756 97.3331 39.8672 97.9167 38.4865L98.2646 38.4529C98.2759 38.7783 98.0625 39.5754 97.6023 40.8439ZM98.2424 38.2843L98.2311 38.1385C98.2198 37.9589 98.332 37.8354 98.579 37.7793L98.5903 37.9251C98.6016 38.1385 98.4891 38.262 98.2424 38.2843ZM105.258 43.7064L105.27 43.8525L104.394 43.9312L104.383 43.7851L105.258 43.7064ZM104.203 43.6168C104.215 43.7964 103.945 43.9985 103.361 44.2004L102.283 44.122L101.936 44.1556L101.902 43.8299L104.203 43.6168ZM111.298 10.9602L110.771 11.0053L110.759 10.8257C110.748 10.6461 110.849 10.5226 111.074 10.4665L111.265 10.4552L111.624 10.601C111.635 10.8144 111.534 10.9379 111.298 10.9602ZM119.325 9.38856L119.493 9.37757L119.516 9.70295L119.033 9.74778C119.022 9.56817 119.111 9.44496 119.325 9.38856ZM117.304 10.096L116.507 10.0061L116.496 9.86029C117.54 9.77034 117.888 9.65812 118.528 9.47851C118.539 9.60201 118.651 9.64684 118.853 9.62457L118.875 9.94995L118.561 9.98379C118.314 10.0061 118.101 9.97251 117.921 9.87128C117.73 9.99478 117.529 10.0734 117.304 10.096ZM118.303 13.0036L118.292 12.8575L119.583 12.734L119.594 12.8801L118.303 13.0036ZM119.684 11.8808L119.673 11.7012L120.301 11.6451L120.313 11.8247L119.684 11.8808ZM119.83 9.68068L119.661 9.69167L119.807 9.34373L121.244 9.20895L121.256 9.38856C120.885 9.4224 120.402 9.52334 119.83 9.68068ZM120.56 12.7789L120.537 12.4535L121.166 12.3974C121.379 12.3748 121.491 12.4758 121.503 12.7005L120.56 12.7789ZM124.365 7.59246L123.557 7.8172L123.411 7.82818C123.029 7.86203 122.535 7.85074 121.951 7.79463C122.996 7.72724 123.995 7.64857 124.365 7.59246ZM123.501 11.1849L123.512 11.3307L122.401 11.4319L122.389 11.2859L123.501 11.1849ZM125.319 12.0492C125.308 11.9147 125.095 11.8247 124.657 11.7799L123.546 12.0943L122.692 12.1278C122.502 11.993 122.401 11.9034 122.389 11.836L123.377 11.8921L125.6 11.5329L126.734 11.5777L126.745 11.7573C126.184 11.8134 125.712 11.9147 125.319 12.0492ZM136.759 9.09673C136.893 9.10801 136.983 9.10801 137.017 9.10801C137.41 8.72623 137.848 8.42312 138.353 8.20996C137.949 9.98379 137.32 11.2972 136.456 12.1504L135.827 11.7686C136.355 10.4327 136.669 9.5459 136.759 9.09673ZM134.828 12.4084L134.985 12.3974C134.772 12.8014 134.581 13.0146 134.424 13.0259L134.39 12.5993C134.491 12.5993 134.637 12.5319 134.828 12.4084ZM133.582 15.3834C133.885 14.1709 134.177 13.4863 134.446 13.3067L134.457 13.4525C134.3 14.575 134.053 15.1702 133.728 15.215L133.784 15.9222C133.514 16.304 133.391 16.5958 133.402 16.8202L133.245 16.8315L133.155 15.8548C133.335 15.8325 133.481 15.6752 133.582 15.3834ZM133.099 16.9998C133.11 17.1682 132.998 17.5612 132.773 18.1674L132.616 18.1787L132.583 17.7521C132.796 17.2581 132.976 17.0111 133.099 16.9998H133.099ZM124.04 43.2911L124.028 43.1676L124.32 43.1453L124.354 43.5719C124.197 43.5832 124.084 43.4933 124.04 43.2911ZM136.983 43.628C136.972 43.5268 136.927 43.482 136.826 43.4933L136.096 43.5606L136.085 43.4146H136.152L137.881 43.2688L137.892 43.4146C137.387 43.4371 137.084 43.5158 136.983 43.628ZM136.119 43.2688C136.186 43.3024 136.152 43.3362 136.119 43.3585C136.085 43.3472 136.04 43.3137 136.119 43.2688ZM136.209 41.248L135.243 41.3267L135.232 41.1806L136.108 41.1022L136.871 40.9113C136.882 41.001 136.927 41.0348 137.028 41.0236C137.938 40.8665 137.848 40.8214 138.285 40.7878C138.431 40.7766 138.521 40.8665 138.532 41.0461L136.209 41.248ZM139.588 40.9562C139.049 40.9001 139.015 40.8552 138.633 40.8888L138.622 40.7653L139.487 40.6869L139.498 40.8104C139.408 40.8214 139.734 40.8439 139.588 40.9562ZM139.655 40.7991L139.644 40.6756L140.115 40.6305L140.126 40.754L139.655 40.7991ZM140.699 40.7092L140.688 40.5857C140.766 40.5747 140.879 40.5183 141.024 40.4061C141.26 40.3838 141.384 40.5408 141.406 40.7204L140.699 40.7092ZM142.035 40.5408L142.024 40.3948L142.596 40.3499L142.607 40.496L142.035 40.5408ZM142.832 40.4734C142.821 40.3051 142.888 40.2042 143.034 40.1816L143.225 40.4286C143.214 40.3499 143.247 40.3051 143.315 40.2938L143.461 40.5634L142.832 40.4734ZM153.878 39.1714L153.89 39.1601V39.1488C153.89 39.1488 153.878 39.1601 153.878 39.1714ZM154.08 39.0253C154.17 38.9692 154.215 38.9131 154.002 38.8795C153.901 38.9917 154.114 39.0253 153.89 39.0366L153.901 39.1375C153.923 39.1152 153.979 39.0814 154.024 39.0479L153.901 39.1488V39.1601L153.665 39.4632L154.137 39.2949H154.193L154.17 39.014L154.08 39.0253ZM154.9 39.6654L154.81 39.6763L154.832 39.9572L155.495 39.9011C155.484 39.7215 155.046 39.6654 154.9 39.6654Z" fill="#F9DC3E"/>
</svg>
