<svg width="160" height="48" viewBox="0 0 160 48" fill="none" xmlns="http://www.w3.org/2000/svg">
<path d="M13.3427 29.6923L13.3988 29.7107L17.6438 31.2704C17.9567 31.3813 18.158 31.5882 18.1806 31.8174L18.1828 31.8606V43.5493C18.1828 44.0453 17.3976 44.3647 16.7223 44.1581L16.6663 44.1396L12.4142 42.5788C12.1013 42.4679 11.9 42.2609 11.8774 42.0317L11.8753 41.9885V30.2998C11.8753 29.8049 12.666 29.4857 13.3427 29.6923ZM5.46748 4.28158L5.5235 4.30002L9.77436 5.86084C10.0873 5.97722 10.2896 6.17937 10.3123 6.40796L10.3145 6.45111V43.1119C10.3145 43.6068 9.52266 43.926 8.84699 43.7205L8.79097 43.7022L4.53894 42.1402C4.22603 42.0304 4.02473 41.8224 4.00213 41.5931L4 41.5499V4.89028C4 4.39542 4.79181 4.07504 5.46748 4.28158ZM21.2169 27.729L21.2729 27.7474L25.525 29.3083C25.8379 29.4191 26.0392 29.6261 26.0618 29.8553L26.0639 29.8985V40.6703C26.0639 41.1652 25.2721 41.4845 24.5964 41.2779L24.5404 41.2594L20.2884 39.6986C19.9766 39.5866 19.7743 39.3796 19.7516 39.1504L19.7494 39.1072V28.3377C19.7494 27.8428 20.5412 27.5225 21.2169 27.729ZM79.2977 17.9123C80.5124 17.9123 81.5825 18.132 82.508 18.5714C83.3883 18.9722 84.1359 19.6161 84.6626 20.4274C85.1387 21.1877 85.4014 22.062 85.4232 22.9588C85.4267 23.0292 85.4012 23.0979 85.3528 23.149C85.3043 23.2001 85.237 23.2292 85.1665 23.2294H81.8011C81.6649 23.229 81.5524 23.1228 81.5444 22.9868C81.5071 22.3219 81.31 21.8039 80.953 21.433C80.554 21.0177 79.9793 20.8104 79.2289 20.8112C78.6059 20.8112 78.116 20.9582 77.7555 21.2533C77.3962 21.5497 77.197 21.9977 77.2178 22.463C77.2128 22.9157 77.4048 23.3482 77.7439 23.6482C78.0946 23.9764 78.6852 24.3077 79.5158 24.6421L82.2945 25.7433C83.4432 26.1913 84.2932 26.806 84.8446 27.5876C85.396 28.3692 85.6712 29.3273 85.6705 30.462C85.6907 31.4277 85.424 32.3776 84.9041 33.1917C84.375 33.9893 83.6268 34.6172 82.7495 34.9998C81.8232 35.4221 80.7454 35.6336 79.5158 35.6344C77.4565 35.6344 75.844 35.1114 74.6782 34.0654C73.5692 33.0707 72.9859 31.695 72.9284 29.9382C72.9258 29.8682 72.9519 29.8002 73.0005 29.7498C73.0491 29.6994 73.1162 29.671 73.1862 29.671H76.5587C76.6951 29.6708 76.8078 29.7774 76.8153 29.9137C76.8549 30.7077 77.0964 31.3373 77.5397 31.8023C78.0265 32.3133 78.693 32.5687 79.5392 32.5687C80.257 32.5687 80.8119 32.4089 81.2038 32.0893C81.5958 31.7696 81.7902 31.3147 81.7871 30.7244C81.7871 30.2135 81.6397 29.8025 81.345 29.4914C81.0502 29.1803 80.5194 28.8731 79.7526 28.5698L76.7348 27.3963C75.6173 26.981 74.7711 26.3865 74.1964 25.6127C73.6217 24.8389 73.3343 23.9087 73.3343 22.8223C73.3161 21.9106 73.5704 21.0141 74.0646 20.2478C74.5777 19.4836 75.3014 18.8847 76.148 18.5236C77.0502 18.1161 78.1 17.9123 79.2977 17.9123ZM155.742 18.3918C155.884 18.3918 155.999 18.5065 156 18.6484V21.2475C156 21.3899 155.884 21.5053 155.742 21.5053H149.887C149.745 21.5053 149.63 21.62 149.629 21.7619V25.0551C149.629 25.1974 149.745 25.3129 149.887 25.3129H155.742C155.811 25.3125 155.878 25.3402 155.926 25.3897C155.975 25.4391 156.001 25.5061 156 25.5753V28.1032C156 28.1715 155.973 28.2369 155.924 28.2851C155.876 28.3333 155.81 28.3602 155.742 28.3599H149.887C149.745 28.3599 149.63 28.4746 149.629 28.6165V31.7906C149.629 31.8589 149.657 31.9244 149.705 31.9725C149.753 32.0207 149.819 32.0476 149.887 32.0473H155.742C155.884 32.0473 156 32.1627 156 32.3051V34.9041C155.999 35.0461 155.884 35.1608 155.742 35.1608H146.007C145.866 35.1608 145.751 35.0459 145.751 34.9041V18.6484C145.751 18.5067 145.866 18.3918 146.007 18.3918H155.742ZM134.383 18.3918C134.477 18.3922 134.564 18.4441 134.609 18.5271L139.871 28.3389C139.928 28.4421 140.047 28.4942 140.161 28.4653C140.275 28.4365 140.355 28.334 140.355 28.2164V18.6508C140.356 18.5093 140.471 18.3948 140.612 18.3941H143.81C143.878 18.3938 143.943 18.4207 143.992 18.4689C144.04 18.517 144.067 18.5825 144.067 18.6508V34.9006C144.067 34.9689 144.04 35.0344 143.992 35.0825C143.943 35.1307 143.878 35.1576 143.81 35.1574H140.252C140.155 35.1601 140.065 35.1088 140.018 35.0243L134.755 25.2125C134.7 25.1094 134.582 25.0566 134.468 25.084C134.355 25.1115 134.274 25.2123 134.272 25.3292V34.8948C134.271 35.0367 134.156 35.1514 134.014 35.1514H130.817C130.675 35.1514 130.56 35.0365 130.56 34.8948V18.6484C130.56 18.5067 130.675 18.3918 130.817 18.3918H134.383ZM66.9522 18.3918C67.023 18.3918 67.0869 18.4313 67.119 18.4926L67.1307 18.5201L72.7021 34.9076H72.6974C72.7169 34.9652 72.7074 35.0287 72.6722 35.0782C72.6427 35.1194 72.5982 35.1469 72.549 35.1549L72.5189 35.1573H68.8817C68.7784 35.1571 68.6863 35.0954 68.6459 35.0027L68.6344 34.9706L67.9344 32.4882H62.3561L61.6561 34.9706C61.6279 35.0701 61.5433 35.1419 61.4428 35.1551L61.4088 35.1573H57.7716C57.7107 35.1573 57.6537 35.1277 57.6183 35.0782C57.589 35.037 57.5774 34.986 57.5857 34.9368L57.5931 34.9076L63.1411 18.5201C63.1633 18.4527 63.2213 18.4046 63.2897 18.394L63.3196 18.3918H66.9522ZM123.317 18.3941C123.388 18.3937 123.452 18.4333 123.484 18.4948L123.495 18.5224L129.067 34.9076H129.062C129.082 34.9652 129.072 35.0287 129.037 35.0782C129.007 35.1194 128.963 35.1469 128.914 35.1549L128.884 35.1573H125.246C125.143 35.1571 125.051 35.0954 125.011 35.0027L124.999 34.9706L124.299 32.4882H118.722L118.022 34.9706C117.993 35.0703 117.908 35.142 117.808 35.1551L117.774 35.1573H114.138C114.076 35.1575 114.019 35.1282 113.983 35.0787C113.954 35.0374 113.942 34.9863 113.95 34.9369L113.958 34.9076L119.506 18.5224C119.528 18.4551 119.586 18.407 119.654 18.3963L119.684 18.3941H123.317ZM49.6968 18.3918C51.4357 18.3918 52.9522 18.7709 54.2463 19.5292C55.5002 20.2465 56.5289 21.2998 57.2163 22.5703C58.5896 25.2082 58.5896 28.3502 57.2163 30.9881C56.5332 32.2621 55.5035 33.3169 54.2463 34.0304C52.9538 34.7801 51.4373 35.1549 49.6968 35.1549H43.6308C43.5625 35.1553 43.4969 35.1283 43.4486 35.0802C43.4002 35.032 43.373 34.9666 43.373 34.8983V18.6484C43.373 18.5802 43.4002 18.5147 43.4486 18.4665C43.4969 18.4184 43.5625 18.3915 43.6308 18.3918H49.6968ZM106.305 18.1352C106.374 18.1348 106.439 18.1618 106.487 18.21C106.535 18.2582 106.562 18.3236 106.562 18.3918V31.45C106.563 31.5919 106.678 31.7067 106.82 31.7067H112.536C112.678 31.7067 112.793 31.8214 112.794 31.9633V34.8983C112.794 34.9666 112.766 35.032 112.718 35.0802C112.67 35.1283 112.604 35.1553 112.536 35.1549H102.942C102.874 35.1553 102.809 35.1283 102.76 35.0801C102.712 35.0319 102.685 34.9665 102.686 34.8983V18.3918C102.685 18.3236 102.712 18.2582 102.76 18.21C102.809 18.1618 102.874 18.1348 102.942 18.1352H106.305ZM90.9841 18.2635C91.1151 18.2635 91.2233 18.3612 91.2397 18.4879L91.2419 18.5201V24.9116C91.2415 24.9798 91.2685 25.0454 91.3166 25.0938C91.3568 25.1341 91.4089 25.1597 91.4647 25.1671L91.4985 25.1694H96.7794C96.9108 25.1694 97.0193 25.071 97.0352 24.9439L97.0372 24.9116V18.6484C97.0372 18.5176 97.1351 18.4096 97.2617 18.3938L97.2939 18.3918H100.659C100.79 18.3918 100.898 18.4897 100.914 18.6162L100.916 18.6484V34.8983C100.916 35.0291 100.818 35.1371 100.692 35.1529L100.659 35.1549H97.2939C97.163 35.1549 97.0551 35.057 97.0392 34.9305L97.0372 34.8983V28.7541C97.0366 28.6231 96.9384 28.5153 96.8117 28.4995L96.7794 28.4975H91.4985C91.3677 28.4975 91.2597 28.5954 91.2439 28.722L91.2419 28.7541V34.8983C91.2413 35.0293 91.143 35.1371 91.0163 35.1529L90.9841 35.1549H87.6186C87.488 35.1544 87.3804 35.0567 87.3641 34.9304L87.362 34.8983V18.5201C87.3625 18.3895 87.4602 18.2819 87.5865 18.2656L87.6186 18.2635H90.9841ZM29.0887 14.6043L29.1447 14.6227L33.3968 16.1835H33.4026C33.7155 16.2944 33.9178 16.5014 33.9406 16.7306L33.9427 16.7738V34.4655C33.9427 34.9604 33.1509 35.2797 32.4752 35.0731L32.4192 35.0546L28.1672 33.4938C27.8543 33.384 27.653 33.1771 27.6304 32.9479L27.6282 32.9047V15.213C27.6282 14.7181 28.4134 14.3977 29.0887 14.6043ZM49.3363 21.6511H47.5119C47.3704 21.6517 47.2559 21.7663 47.2552 21.9077V31.6413C47.2552 31.7831 47.3701 31.898 47.5119 31.898H49.3363C50.3901 31.898 51.2879 31.6623 52.0299 31.191C52.7563 30.739 53.3349 30.0846 53.6945 29.3083C54.4286 27.6956 54.4286 25.8441 53.6945 24.2315C53.3337 23.4565 52.7553 22.8032 52.0299 22.351C51.2879 21.8844 50.3901 21.6511 49.3363 21.6511ZM65.1476 23.1357C65.0723 23.1357 65.0051 23.1803 64.9751 23.2475L64.9656 23.2738L63.3091 29.1274C63.2879 29.2024 63.3031 29.2829 63.35 29.345C63.3903 29.3982 63.45 29.4326 63.5152 29.4414L63.5483 29.4436H66.7469C66.8249 29.4441 66.8987 29.4077 66.9457 29.3455C66.9861 29.2921 67.0028 29.2251 66.9931 29.1599L66.986 29.1274L65.3296 23.2738C65.3067 23.1921 65.2323 23.1357 65.1476 23.1357ZM121.512 23.1357C121.437 23.1357 121.37 23.1803 121.34 23.2475L121.33 23.2738L119.674 29.1274H119.68C119.659 29.2014 119.673 29.2809 119.719 29.3427C119.758 29.3957 119.816 29.4307 119.88 29.4407L119.913 29.4436H123.112C123.19 29.4435 123.263 29.407 123.31 29.345C123.351 29.2918 123.368 29.2251 123.359 29.1599L123.352 29.1274L121.694 23.2738C121.671 23.1921 121.597 23.1357 121.512 23.1357ZM21.2169 8.39829L21.2729 8.41673L25.525 9.97755C25.8379 10.0873 26.0392 10.2891 26.0618 10.5177L26.0639 10.5608V21.3326C26.0639 21.8275 25.2721 22.1479 24.5964 21.9413L24.5404 21.9229L20.2884 20.3621C19.9766 20.2512 19.7743 20.0442 19.7516 19.815L19.7494 19.7718V9C19.7494 8.51081 20.5412 8.19168 21.2169 8.39829ZM13.3427 3.84296L13.3988 3.8614L17.6438 5.42106C17.9567 5.53195 18.158 5.73894 18.1806 5.96811L18.1828 6.01133V17.7304C18.1828 18.2252 17.3976 18.5456 16.7223 18.3391L16.6663 18.3206L12.4142 16.7598C12.1013 16.65 11.9 16.4421 11.8774 16.2128L11.8753 16.1695V4.44467C11.8753 3.95548 12.666 3.63635 13.3427 3.84296Z" fill="#10363D"/>
</svg>
