<svg width="344" height="48" viewBox="0 0 344 48" fill="none" xmlns="http://www.w3.org/2000/svg">
<path d="M220.292 5.00229C222.332 5.78002 224.229 6.89188 225.905 8.29233C226.241 8.52557 226.51 8.84277 226.685 9.2123C226.827 9.57184 226.896 9.9562 226.888 10.3428C226.903 10.9717 226.637 11.5747 226.162 11.9878C225.709 12.4076 225.112 12.639 224.494 12.6349C223.854 12.632 223.235 12.4028 222.748 11.9878C221.566 10.9345 220.22 10.0813 218.764 9.46178C217.148 8.89234 215.44 8.62798 213.727 8.68215C211.196 8.66545 208.712 9.37428 206.57 10.7248C204.384 12.0963 202.594 14.0152 201.378 16.2913C200.098 18.6388 199.438 21.2738 199.46 23.9473C199.431 26.6317 200.091 29.2786 201.378 31.6345C202.599 33.8992 204.388 35.807 206.57 37.1699C208.712 38.5204 211.196 39.2292 213.727 39.2125C217.06 39.1743 220.287 38.0339 222.904 35.9692C223.376 35.6026 223.951 35.3927 224.549 35.3689C225.141 35.3567 225.709 35.6012 226.108 36.0394C226.537 36.5261 226.761 37.1607 226.732 37.8092C226.737 38.5061 226.455 39.1744 225.952 39.6569C222.514 42.4962 218.186 44.0337 213.727 43.9994C210.289 44.0261 206.911 43.1005 203.966 41.3253C201.039 39.5813 198.634 37.0824 197.004 34.0903C195.297 30.9877 194.421 27.4962 194.463 23.9551C194.423 20.439 195.299 16.9731 197.004 13.8979C198.644 10.9128 201.046 8.41617 203.966 6.6629C206.91 4.88707 210.29 3.96647 213.727 4.00436C215.957 3.95707 218.177 4.29466 220.292 5.00229ZM279.93 16.1315C281.336 16.1315 282.475 17.2712 282.475 18.677V30.9484C282.475 33.6407 283.198 35.6782 284.643 37.0607C286.212 38.4888 288.285 39.2348 290.404 39.1345C291.726 39.1515 293.034 38.8605 294.224 38.2847C295.317 37.7683 296.251 36.9688 296.93 35.9692C297.576 35.0123 297.916 33.881 297.904 32.726V18.6926C297.874 18.002 298.137 17.3308 298.629 16.8449C299.674 15.9171 301.248 15.9171 302.293 16.8449V16.8293C302.772 17.3223 303.026 17.9908 302.995 18.677V40.9277C303.016 41.6055 302.763 42.2632 302.293 42.752C301.562 43.503 300.447 43.732 299.48 43.3298C298.512 42.9275 297.887 41.9756 297.904 40.9277V40.382C296.824 41.4574 295.535 42.2988 294.115 42.8534C292.626 43.4395 291.038 43.7359 289.437 43.7266C287.273 43.7569 285.137 43.2336 283.231 42.2063C281.402 41.207 279.91 39.6877 278.943 37.8404C277.856 35.704 277.32 33.3294 277.384 30.9328V18.677C277.384 17.2712 278.524 16.1315 279.93 16.1315ZM337.213 6.71748V6.68629C337.638 7.22609 337.821 7.91708 337.72 8.59639L335.381 31.2057C335.159 33.6695 334.284 36.0297 332.847 38.0431C329.999 42.049 325.193 44.1831 320.311 43.6096C317.863 43.3871 315.518 42.5151 313.52 41.0836C311.575 39.7016 310.044 37.8146 309.092 35.6262C308.108 33.3608 307.74 30.8758 308.024 28.4224C308.241 25.9762 309.061 23.622 310.409 21.5695C311.661 19.6429 313.417 18.0953 315.485 17.0944C321.099 14.4128 327.832 16.2787 331.265 21.4681L332.637 8.06624C332.693 7.38791 333.029 6.76363 333.564 6.34325C334.7 5.52491 336.268 5.68574 337.213 6.71748ZM125.668 17.7025C127.528 18.8323 129.018 20.4795 129.956 22.4426C130.992 24.6339 131.504 27.036 131.453 29.4593C131.455 30.0296 131.224 30.576 130.814 30.9718C130.405 31.3594 129.869 31.5807 129.309 31.596L110.208 31.5955C110.508 33.8084 111.64 35.8239 113.373 37.2322C116.082 39.3282 119.665 39.9147 122.9 38.7915C123.843 38.4976 124.732 38.0555 125.535 37.4817C126.005 37.1162 126.586 36.9235 127.18 36.936C127.725 36.906 128.26 37.0844 128.677 37.4349C129.223 37.8324 129.554 38.4599 129.574 39.1345C129.577 39.7316 129.285 40.2917 128.794 40.6314C127.526 41.6028 126.099 42.3466 124.576 42.83C120.576 44.225 116.175 43.8916 112.43 41.91C110.315 40.7783 108.56 39.0768 107.362 36.9984C106.127 34.8265 105.497 32.363 105.538 29.8647C105.507 27.3724 106.108 24.9129 107.284 22.7155C108.385 20.6517 110.044 18.9389 112.071 17.7726C114.193 16.5728 116.596 15.9618 119.033 16.0029C121.36 15.943 123.657 16.5315 125.668 17.7025ZM182.074 17.0086C183.655 17.6105 185.056 18.6061 186.144 19.901C186.532 20.3315 186.76 20.8819 186.791 21.4603C186.767 22.0844 186.453 22.6614 185.941 23.0196C185.53 23.2967 185.041 23.4359 184.546 23.4172C183.673 23.4114 182.836 23.0709 182.207 22.466C181.449 21.7465 180.549 21.1941 179.564 20.8444C178.466 20.5038 177.321 20.3432 176.173 20.3688C174.873 20.3217 173.581 20.5892 172.407 21.1485C171.527 21.5123 170.948 22.3641 170.933 23.3158C170.913 23.9115 171.088 24.4975 171.432 24.9842C171.945 25.5575 172.598 25.9874 173.327 26.2316C174.634 26.7354 175.983 27.1241 177.358 27.3933C180.996 28.1262 183.566 29.1397 185.068 30.4339C186.555 31.6768 187.392 33.5327 187.337 35.4703C187.35 36.952 186.915 38.4032 186.089 39.6335C185.186 40.9507 183.922 41.9793 182.449 42.5961C180.606 43.3568 178.625 43.7233 176.632 43.672C174.452 43.6904 172.285 43.3371 170.224 42.6273C168.479 42.0741 166.88 41.1362 165.546 39.883C165.123 39.4757 164.889 38.9108 164.899 38.3237C164.888 37.5488 165.262 36.8189 165.897 36.3746C166.39 35.961 167.001 35.7152 167.643 35.673C168.371 35.7016 169.055 36.0254 169.538 36.5696C170.339 37.3811 171.311 38.0042 172.383 38.3939C173.666 38.9153 175.038 39.1801 176.422 39.1735C177.951 39.2562 179.475 38.9278 180.835 38.2224C181.788 37.733 182.39 36.7527 182.394 35.6808C182.371 34.6063 181.777 33.6256 180.835 33.108C179.208 32.2192 177.432 31.6353 175.596 31.385C169.218 30.1636 166.029 27.5336 166.029 23.4951C165.988 21.984 166.505 20.5105 167.48 19.3553C168.497 18.1898 169.804 17.3132 171.269 16.8137C172.869 16.2414 174.558 15.9538 176.258 15.9639C178.246 15.9304 180.222 16.2853 182.074 17.0086ZM264.941 17.7571C266.993 18.9115 268.685 20.6115 269.83 22.6687C271.036 24.8695 271.646 27.3475 271.599 29.8569C271.641 32.3455 271.04 34.8028 269.853 36.9906C268.722 39.0504 267.037 40.752 264.988 41.9022C260.534 44.2641 255.198 44.2641 250.744 41.9022C248.684 40.7595 246.989 39.0566 245.856 36.9906C244.668 34.8031 244.067 32.3456 244.11 29.8569C244.062 27.3504 244.664 24.8742 245.856 22.6687C246.991 20.6042 248.685 18.9018 250.744 17.7571C252.927 16.5549 255.386 15.9448 257.878 15.9873C260.347 15.9454 262.784 16.5559 264.941 17.7571ZM79.2487 4.49551C79.9406 4.49316 80.604 4.77126 81.0873 5.26635C81.5361 5.72607 81.7941 6.33645 81.8135 6.97507L81.8137 38.3081H99.8778C100.805 38.3081 101.662 38.803 102.126 39.6062C102.59 40.4095 102.59 41.3991 102.126 42.2024C101.662 43.0056 100.805 43.5007 99.8778 43.5007H79.2175C78.5288 43.5104 77.8683 43.227 77.401 42.7208C76.954 42.2634 76.6966 41.656 76.6764 41.0203L76.676 7.12289C76.6678 6.42541 76.9503 5.75601 77.4556 5.27516C77.9191 4.7775 78.5687 4.49506 79.2487 4.49551ZM236.025 4.83757C236.797 5.28322 237.272 6.10683 237.272 6.99814V34.2385C237.232 35.2963 237.474 36.3457 237.974 37.279C238.297 37.9856 238.991 38.45 239.767 38.4797H241.014C241.633 38.46 242.227 38.7173 242.636 39.1813C243.063 39.6789 243.286 40.3195 243.26 40.9745C243.265 41.6943 242.908 42.3683 242.309 42.7676C241.59 43.261 240.731 43.5072 239.861 43.4693H239.759C238.383 43.4842 237.036 43.076 235.9 42.2998C234.719 41.4766 233.794 40.336 233.234 39.0098C232.582 37.5074 232.258 35.8836 232.283 34.2463V6.99814C232.283 6.10683 232.758 5.28322 233.53 4.83757C234.302 4.39191 235.253 4.39191 236.025 4.83757ZM140.348 7.49711C141.726 7.49711 142.843 8.61408 142.843 9.99193V17.1801H147.084C147.707 17.1519 148.317 17.3672 148.784 17.7804C149.211 18.1849 149.446 18.7517 149.431 19.3397C149.444 19.9091 149.207 20.4556 148.784 20.8366C148.317 21.2498 147.707 21.4651 147.084 21.4369H142.843V33.7941C142.802 35.0039 143.192 36.189 143.943 37.1387C144.577 37.9902 145.578 38.4905 146.64 38.4874H148.34C148.919 38.4856 149.47 38.7395 149.844 39.1813C150.271 39.6789 150.494 40.3195 150.468 40.9745C150.484 41.6677 150.179 42.3296 149.642 42.7676C149.044 43.2514 148.29 43.5009 147.521 43.4693H146.624C145.048 43.4854 143.499 43.0469 142.165 42.2063C140.817 41.3557 139.723 40.1572 139 38.7369C138.219 37.2079 137.826 35.5106 137.854 33.7941V21.4681H135.561C134.939 21.4963 134.329 21.281 133.862 20.8678C133.438 20.4874 133.201 19.9404 133.215 19.3709C133.199 18.7827 133.434 18.2155 133.862 17.8116C134.329 17.3984 134.939 17.1831 135.561 17.2113H137.854V9.99193C137.854 8.61408 138.971 7.49711 140.348 7.49711ZM318.104 21.3044C316.681 21.9623 315.46 22.9876 314.565 24.2748C313.617 25.664 313.047 27.2762 312.912 28.9526C312.718 30.6132 312.952 32.2958 313.59 33.8408C314.186 35.2996 315.163 36.5708 316.42 37.5207C319.029 39.4255 322.461 39.7771 325.402 38.4407L325.409 38.4017C326.829 37.7319 328.037 36.6856 328.902 35.3767C329.829 33.9789 330.39 32.3702 330.532 30.6989C330.727 29.048 330.502 27.3745 329.877 25.834C328.94 23.652 327.162 21.9406 324.945 21.0878C322.729 20.2351 320.262 20.3131 318.104 21.3044ZM253.309 21.6786C251.964 22.4774 250.867 23.6356 250.144 25.0232C249.366 26.5168 248.972 28.1807 248.998 29.8647C248.968 31.5417 249.362 33.1991 250.144 34.6828C250.872 36.0609 251.968 37.2104 253.309 38.0041C256.143 39.6003 259.605 39.6003 262.439 38.0041C263.769 37.2107 264.849 36.06 265.557 34.6828C266.324 33.1942 266.709 31.5388 266.68 29.8647C266.707 28.1833 266.322 26.5209 265.557 25.0232C264.854 23.6365 263.773 22.477 262.439 21.6786C259.605 20.0823 256.143 20.0823 253.309 21.6786ZM113.124 22.2633C111.576 23.6559 110.561 25.5443 110.255 27.6038H126.869C126.672 25.5908 125.791 23.706 124.374 22.2633C122.936 20.9045 121.01 20.1847 119.033 20.2675C116.884 20.1728 114.776 20.8846 113.124 22.2633Z" fill="#47545F"/>
<path d="M17.6037 35.6804H59.5245C60.6142 35.6006 61.6572 36.1367 62.2264 37.0694C62.7957 38.0021 62.7957 39.1748 62.2264 40.1075C61.6572 41.0402 60.6142 41.5763 59.5245 41.4965H17.6037C16.5139 41.5763 15.471 41.0402 14.9017 40.1075C14.3325 39.1748 14.3325 38.0021 14.9017 37.0694C15.471 36.1367 16.5139 35.6006 17.6037 35.6804ZM64.1711 26.1923C65.7771 26.1923 67.0791 27.4943 67.0791 29.1003C67.0791 30.7064 65.7771 32.0083 64.1711 32.0083H25.1895C23.5835 32.0083 22.2815 30.7064 22.2815 29.1003C22.2815 27.4943 23.5835 26.1923 25.1895 26.1923H64.1711ZM14.9997 16.673C16.6273 16.673 17.9467 17.9924 17.9467 19.62C17.9467 21.2476 16.6273 22.567 14.9997 22.567C13.3722 22.567 12.0527 21.2476 12.0527 19.62C12.0527 17.9924 13.3722 16.673 14.9997 16.673ZM59.9065 16.6886C61.4667 16.7353 62.6945 18.0363 62.6508 19.5966C62.6945 21.1569 61.4667 22.458 59.9065 22.5046L23.1625 22.528C22.4104 22.5036 21.6989 22.1807 21.1854 21.6307C20.6719 21.0806 20.3986 20.3486 20.426 19.5966C20.3822 18.0393 21.6054 16.7395 23.1625 16.6886H59.9065ZM47.409 8.04248C49.0151 8.04248 50.317 9.34445 50.317 10.9505C50.317 12.5566 49.0151 13.8585 47.409 13.8585H28.1755C26.5695 13.8585 25.2675 12.5566 25.2675 10.9505C25.2675 9.34445 26.5695 8.04248 28.1755 8.04248H47.409Z" fill="#0DABE3"/>
<path d="M25.1892 32.0084H9.15998C7.55392 32.0084 6.25195 30.7065 6.25195 29.1004C6.25195 27.4943 7.55392 26.1924 9.15998 26.1924H25.1892C23.5831 26.1924 22.2812 27.4943 22.2812 29.1004C22.2812 30.7065 23.5831 32.0084 25.1892 32.0084Z" fill="#80D2EB"/>
<path d="M157.274 22.0215C158.902 22.0215 160.221 20.702 160.221 19.0744C160.221 17.4469 158.902 16.1274 157.274 16.1274C155.647 16.1274 154.327 17.4469 154.327 19.0744C154.327 20.702 155.647 22.0215 157.274 22.0215Z" fill="#00AFE6"/>
</svg>
