<svg width="184" height="48" viewBox="0 0 184 48" fill="none" xmlns="http://www.w3.org/2000/svg">
<path d="M147.869 12.5855V35.6694C146.88 35.9582 145.874 36.1827 144.856 36.3414C143.591 36.5156 142.314 36.5943 141.036 36.577C139.925 36.5807 138.819 36.4226 137.754 36.1077C136.746 35.812 135.811 35.3088 135.01 34.6305C134.219 33.9421 133.594 33.0851 133.18 32.1231L133.135 32.0158C132.675 30.9499 132.443 29.6271 132.443 28.0861C132.436 26.9059 132.637 25.7338 133.038 24.6237C133.411 23.5802 133.99 22.6227 134.741 21.8082C135.503 21.0038 136.422 20.3643 137.441 19.9293C138.508 19.4753 139.655 19.2401 140.814 19.2373L140.948 19.238C141.334 19.238 141.745 19.2534 142.16 19.2862C142.566 19.3176 142.969 19.3874 143.361 19.4948L143.512 19.5373V12.5855H147.869ZM117.225 19.8154C118.19 20.231 119.049 20.861 119.735 21.6576C120.419 22.4695 120.925 23.4163 121.22 24.4364C121.535 25.5045 121.698 26.6111 121.706 27.7241L121.707 27.8911C121.716 29.0489 121.552 30.2016 121.22 31.311C120.923 32.3188 120.42 33.2544 119.745 34.0589C119.062 34.8511 118.206 35.4761 117.244 35.8856C116.117 36.3473 114.907 36.5715 113.689 36.5441C112.481 36.5697 111.281 36.3456 110.165 35.8856C109.214 35.4745 108.372 34.8493 107.703 34.0589C107.034 33.249 106.532 32.3152 106.225 31.311C105.9 30.2537 105.731 29.1547 105.725 28.049L105.725 27.8911C105.717 26.7215 105.886 25.5575 106.225 24.4383C106.527 23.422 107.029 22.4765 107.703 21.6576C108.375 20.8632 109.221 20.233 110.174 19.8154C111.285 19.344 112.483 19.1136 113.689 19.1395C114.902 19.1136 116.107 19.3439 117.225 19.8154ZM92.7812 12.5526V35.6269C91.7925 35.9178 90.7855 36.1423 89.7668 36.2989C88.5889 36.4643 87.4009 36.5467 86.2117 36.5457L85.9568 36.5441C84.8454 36.5486 83.7393 36.3899 82.674 36.073C81.6652 35.7795 80.7296 35.2768 79.9281 34.5976C79.1385 33.9087 78.5141 33.0517 78.1001 32.0902L78.0549 31.983C77.5934 30.9074 77.3616 29.5846 77.3616 28.0533C77.3585 26.8722 77.5624 25.6996 77.9642 24.5889C78.3397 23.5474 78.9187 22.591 79.6674 21.7754C80.4235 20.9722 81.3364 20.3327 82.3496 19.8965C83.4167 19.4421 84.5638 19.2069 85.7226 19.2044L85.8564 19.2051C86.2156 19.2051 86.6134 19.2206 87.0691 19.2534C87.4751 19.2854 87.8772 19.3552 88.2702 19.462L88.4209 19.5045V12.5526H92.7812ZM157.968 19.1395C159.03 19.1196 160.083 19.3277 161.058 19.7497C161.931 20.137 162.712 20.705 163.35 21.4162C163.994 22.1454 164.481 23.0001 164.779 23.9266C165.101 24.945 165.259 26.0081 165.248 27.0761C165.248 27.4855 165.231 27.893 165.198 28.2889L165.174 28.5596C165.151 28.8059 165.129 28.984 165.103 29.1405H154.241V29.2679C154.332 30.6061 154.811 31.5852 155.662 32.1935C156.514 32.8017 157.622 33.0953 158.993 33.0953C159.766 33.1269 160.539 33.0542 161.291 32.879L163.373 32.2997L164.23 35.5999C162.496 36.2259 160.667 36.5456 158.824 36.5452L158.646 36.5441C157.101 36.5441 155.763 36.3259 154.662 35.8992C152.612 35.1674 151.038 33.4969 150.429 31.4075C149.757 29.1546 149.762 26.7538 150.445 24.504C150.763 23.4794 151.281 22.5282 151.97 21.7059C152.66 20.905 153.517 20.2645 154.481 19.8289C155.58 19.35 156.769 19.1148 157.968 19.1395ZM50.8186 18.7107H50.9911C53.6579 18.7107 55.923 19.3867 57.0527 20.5144C58.0858 21.5495 58.5454 23.2005 58.5454 25.8692V35.5632L58.3066 35.6349C57.6149 35.8372 56.797 36.0331 55.8709 36.2197C54.7381 36.4321 53.5884 36.5408 52.4362 36.5448L52.2057 36.5441C51.1934 36.5509 50.1831 36.4518 49.1914 36.2487C48.3551 36.0867 47.5598 35.7583 46.8528 35.2832C46.2158 34.8498 45.7016 34.2591 45.3601 33.5684C44.9867 32.7582 44.8062 31.8725 44.8329 30.9808C44.8024 30.0825 45.0288 29.1942 45.4856 28.4202C45.9079 27.7412 46.4858 27.1726 47.1715 26.7614C47.8937 26.3359 48.6812 26.0325 49.5023 25.8634C50.3508 25.681 51.2162 25.5884 52.0841 25.5873C52.7078 25.5873 53.4069 25.6201 54.1619 25.6858H54.2913V25.1837C54.2913 23.4245 52.9144 22.4551 50.4137 22.4551C48.9873 22.4584 47.5756 22.7439 46.26 23.2951V19.5025C47.7252 18.9866 49.266 18.7191 50.8186 18.7107ZM22.0778 12.5526L22.2337 12.5523C23.3635 12.5479 24.4913 12.6455 25.6034 12.8442C26.5698 13.0076 27.4999 13.3397 28.3513 13.8252C29.1111 14.2664 29.7427 14.898 30.1839 15.6578C30.6281 16.4167 30.854 17.3822 30.854 18.5312C30.8595 19.1777 30.757 19.8205 30.5508 20.4333C30.3656 20.9845 30.0916 21.5017 29.7398 21.9646C29.413 22.3839 29.0219 22.7489 28.5811 23.046C28.1974 23.3148 27.7576 23.4931 27.2951 23.5674V23.803C27.8556 23.8865 28.404 24.0369 28.9287 24.251C29.539 24.4971 30.1012 24.8487 30.5894 25.2899C31.1293 25.7883 31.5628 26.3906 31.8639 27.0607C32.2139 27.8497 32.3938 28.7032 32.3924 29.5654L32.3911 29.6831C32.3911 31.0677 32.1285 32.2166 31.6187 33.0953C31.1055 33.9664 30.3731 34.6881 29.4945 35.1885C28.5369 35.7255 27.4902 36.0853 26.4048 36.2506C25.1765 36.4499 23.9339 36.548 22.6895 36.5444C21.7239 36.5444 20.7198 36.5152 19.7292 36.4611C18.7965 36.4109 17.744 36.3124 16.5159 36.1637V12.8964C17.1488 12.8013 17.8617 12.7163 18.6376 12.6613L19.0314 12.635C19.867 12.5829 20.8896 12.5549 22.0778 12.5526ZM128.122 12.5526V29.5556C128.113 30.1076 128.151 30.6593 128.235 31.2048C128.291 31.5651 128.422 31.9094 128.622 32.2147C128.792 32.4581 129.037 32.6397 129.319 32.7322C129.647 32.831 129.99 32.8773 130.333 32.8693C130.509 32.8727 130.685 32.8644 130.86 32.8442C131.31 33.7518 132.044 34.6382 133.277 35.7601L131.901 36.0317C131.266 36.1553 130.683 36.2653 130.547 36.2803L130.535 36.2815C130.024 36.3259 129.585 36.3472 129.186 36.3472C127.552 36.3472 126.223 35.8914 125.238 34.9954C124.254 34.0994 123.761 32.6086 123.761 30.5656V12.5526H128.122ZM175.854 19.3384H176.095C176.258 19.3361 176.422 19.3471 176.583 19.3712L177.099 19.4523L177.008 23.2874C176.782 23.2559 176.553 23.2411 176.325 23.243H175.792C175.369 23.2466 174.947 23.2854 174.531 23.3589C174.034 23.4497 173.569 23.665 173.179 23.9845C172.701 24.3913 172.334 24.9129 172.113 25.5004C171.835 26.1705 171.694 27.107 171.694 28.285V36.1869L167.301 36.183V19.5315L171.688 19.5643V21.7754L171.904 21.4683C172.337 20.8562 172.584 20.6689 173.177 20.2151L173.316 20.1108C174.052 19.5775 174.945 19.3057 175.854 19.3384ZM42.9926 19.3326H43.236C43.3994 19.3303 43.5628 19.3413 43.7245 19.3654L44.242 19.4465L44.1494 23.2816C43.9229 23.25 43.6944 23.2352 43.4658 23.2372H42.9289C42.5068 23.2408 42.0856 23.2796 41.6699 23.3531C41.1733 23.443 40.708 23.6584 40.3181 23.9787C39.8401 24.3851 39.4739 24.9069 39.2541 25.4946C38.976 26.1628 38.8351 27.1013 38.8351 28.2792V36.1811L34.438 36.183V19.5315L38.8486 19.5643L38.8312 21.7657L39.0514 21.4568C39.4198 20.9369 39.651 20.7254 40.0731 20.3996L40.4591 20.105C41.1938 19.572 42.0856 19.3001 42.9926 19.3326ZM105.109 12.2495L106.445 12.5333L105.804 15.9552L105.175 15.8297C104.822 15.7673 104.465 15.7394 104.107 15.7466C103.419 15.7183 102.741 15.9156 102.176 16.3086C101.633 16.716 101.345 17.5444 101.345 18.7031V19.5392H106.839C106.336 19.8878 105.881 20.3021 105.488 20.7712C104.977 21.3899 104.563 22.0819 104.259 22.824H101.345V36.1579L96.9871 36.1502V22.8162H94.3125V19.5334H96.9871V18.5969C96.9721 17.6607 97.1298 16.7298 97.4524 15.8509C97.7374 15.0921 98.1903 14.4075 98.7771 13.8484C99.3704 13.2942 100.072 12.8688 100.838 12.599C101.645 12.3204 102.492 12.175 103.345 12.1682L103.862 12.1684C104.279 12.1543 104.697 12.1815 105.109 12.2495ZM70.0352 19.1395C71.9026 19.1395 73.3277 19.6532 74.2681 20.667C75.2085 21.6808 75.6894 23.3125 75.6894 25.5081V36.1502H71.2962V26.7498C71.2962 25.5622 71.1031 24.6256 70.742 23.9826C70.3809 23.3395 69.6934 22.9765 68.7627 22.9765C68.3668 22.9798 67.9732 23.0363 67.5924 23.1445C67.1696 23.2663 66.7856 23.4959 66.4782 23.8107C66.1136 24.2006 65.8423 24.668 65.6845 25.1779C65.4621 25.9084 65.3604 26.6702 65.3833 27.4334V36.1502H60.9921V19.5315H65.3736V21.7155L65.5919 21.3892C65.6465 21.2953 65.7121 21.2084 65.7871 21.13L65.8981 21.0187C65.9361 20.9799 65.9839 20.9304 66.0476 20.862C66.3566 20.5342 66.7042 20.2451 67.0826 20.0007C67.497 19.7374 67.9435 19.5284 68.4112 19.3789C68.9366 19.2142 69.4847 19.1334 70.0352 19.1395ZM113.689 22.5208C112.455 22.5208 111.547 22.9958 110.985 23.9324C110.423 24.8689 110.17 26.1801 110.17 27.8911C110.17 29.602 110.445 30.9325 110.985 31.8478C111.526 32.7631 112.447 33.2594 113.689 33.2594C114.93 33.2594 115.863 32.7844 116.415 31.8478C116.968 30.9112 117.232 29.5981 117.232 27.8911C117.232 26.184 116.972 24.8554 116.423 23.9324C115.875 23.0093 114.954 22.5208 113.689 22.5208ZM52.4993 28.2599C51.414 28.2599 50.5431 28.453 49.9097 28.8392C49.2763 29.2254 48.9229 29.8974 48.9229 30.7857C48.9229 31.3766 49.0523 31.8401 49.3092 32.1626C49.5463 32.473 49.8605 32.716 50.2206 32.8674C50.542 33.002 50.8809 33.0891 51.227 33.1262L51.331 33.1358C51.7172 33.1706 52.0513 33.186 52.3351 33.186C52.6696 33.1856 53.0035 33.1578 53.3335 33.103L53.6452 33.0504C53.8433 33.0163 54.0222 32.9846 54.1831 32.9562L54.2816 32.9369V28.4414L54.1812 28.426C53.9225 28.3815 53.6347 28.3429 53.3277 28.3101C53.0526 28.279 52.7761 28.2622 52.4993 28.2599ZM139.372 23.0074C138.836 23.3042 138.374 23.7181 138.02 24.2182C137.649 24.7531 137.383 25.3532 137.234 25.987C137.079 26.6251 136.996 27.2784 136.986 27.9346L136.985 28.0861C136.968 28.8679 137.081 29.6471 137.319 30.3918C137.506 30.9669 137.823 31.491 138.246 31.9231C138.641 32.3047 139.121 32.5878 139.646 32.7496C140.21 32.9186 140.796 33.0019 141.384 32.9968C141.749 32.9968 142.093 32.9813 142.406 32.9504C142.708 32.9132 143.008 32.8531 143.302 32.7708L143.514 32.7091V22.8413L143.423 22.8201C143.07 22.726 142.712 22.6538 142.35 22.6038C142.002 22.5671 141.653 22.5503 141.303 22.5536C140.631 22.5391 139.967 22.6953 139.372 23.0074ZM84.2845 22.9765C83.7442 23.27 83.2785 23.6836 82.9231 24.1854C82.5518 24.7198 82.2857 25.3201 82.1391 25.9542C81.9733 26.6415 81.8902 27.3462 81.8919 28.0533C81.8747 28.8343 81.9869 29.6127 82.2241 30.357C82.4092 30.9334 82.7266 31.4585 83.151 31.8903C83.5451 32.2735 84.0251 32.5569 84.551 32.7168C85.1145 32.8866 85.7004 32.9706 86.289 32.9659C86.6559 32.9659 86.9996 32.9485 87.3124 32.9176C87.6189 32.8822 87.922 32.8223 88.2187 32.7386L88.4305 32.6762V22.8104L88.3417 22.7873C87.988 22.6928 87.6288 22.6206 87.2661 22.571C86.9172 22.5336 86.5664 22.5168 86.2156 22.5208C85.5436 22.5056 84.8789 22.6625 84.2845 22.9765ZM23.2502 25.7841L20.9979 25.7843V32.7882L21.1002 32.8037C21.4092 32.8462 21.7703 32.879 22.17 32.9022C22.5697 32.9253 22.9212 32.9331 23.2707 32.9331C23.7583 32.9309 24.2448 32.887 24.7248 32.8017C25.2317 32.7133 25.7193 32.5368 26.1654 32.2804C26.6214 32.0173 27.0054 31.6459 27.2835 31.199C27.5993 30.6506 27.7526 30.0237 27.7257 29.3915C27.7454 28.7943 27.6306 28.2003 27.3897 27.6535C27.1729 27.2001 26.8397 26.8123 26.4241 26.5297C25.9749 26.2393 25.4719 26.0423 24.945 25.9503C24.386 25.8442 23.8188 25.7886 23.2502 25.7841ZM157.897 22.4223C156.779 22.4223 155.915 22.7428 155.332 23.3743C154.749 24.0058 154.399 24.8883 154.287 26.0199L154.276 26.1512H161.118V26.0276C161.073 24.9636 160.774 24.0965 160.225 23.4284C159.677 22.7602 158.887 22.4223 157.897 22.4223ZM21.1118 15.9359L21.0114 15.9513V22.4319H22.562C23.0806 22.4359 23.5983 22.3867 24.1069 22.2852C24.5626 22.1954 24.9943 22.0105 25.3736 21.7426C25.7458 21.4701 26.0406 21.1054 26.2291 20.6843C26.4487 20.1577 26.5528 19.5901 26.5342 19.0198C26.5542 18.4623 26.4305 17.909 26.175 17.4131C25.9521 17.0117 25.6329 16.6719 25.2462 16.4244C24.8652 16.1858 24.4405 16.0256 23.9968 15.9532C23.5542 15.8764 23.1059 15.8376 22.6566 15.8374C22.1399 15.8312 21.6235 15.8641 21.1118 15.9359Z" fill="#343333"/>
<path d="M11.2924 8.39123H34.7547V10.3377V10.386V12.348H32.3622L36.9542 16.94L41.5424 12.348H39.146V10.386V10.3377V4H6.90112V44H39.146V39.6088H11.2924V8.39123Z" fill="#39C5EB"/>
</svg>
