<svg width="160" height="64" viewBox="0 0 160 64" fill="none" xmlns="http://www.w3.org/2000/svg">
<path d="M141.253 27.1589C143.081 27.1589 144.564 25.6764 144.564 23.8476C144.564 22.0189 143.081 20.5364 141.253 20.5364C139.424 20.5364 137.941 22.0189 137.941 23.8476C137.941 25.6764 139.424 27.1589 141.253 27.1589Z" fill="#FF4500"/>
<path d="M113.39 18.4436C114.385 18.4436 115.206 19.2296 115.261 20.2119L115.264 20.3179V44.4008C115.264 45.432 114.421 46.2751 113.39 46.2751C112.484 46.2751 111.703 45.6195 111.547 44.7443C110.266 46.0253 108.642 46.6815 106.736 46.6815C101.801 46.6815 97.8029 42.2145 97.8029 36.7169C97.8029 31.2193 101.801 26.7523 106.736 26.7523C108.569 26.7523 110.112 27.3299 111.367 28.5131L111.516 28.658V20.3179C111.516 19.2867 112.359 18.4436 113.39 18.4436ZM132.944 18.4436C133.939 18.4436 134.76 19.2296 134.815 20.2119L134.818 20.3179V44.4008C134.818 45.432 133.975 46.2751 132.944 46.2751C132.038 46.2751 131.257 45.6195 131.101 44.7443C129.82 46.0253 128.196 46.6815 126.291 46.6815C121.355 46.6815 117.357 42.2145 117.357 36.7169C117.357 31.2193 121.355 26.7523 126.291 26.7523C128.123 26.7523 129.666 27.3299 130.92 28.5131L131.07 28.658V20.3179C131.07 19.2867 131.913 18.4436 132.944 18.4436ZM87.6508 26.7208C91.8057 26.7208 95.3039 29.9075 96.3036 34.2179L96.3374 34.3982C96.3877 34.685 96.4344 35.05 96.4596 35.5611C96.5201 36.7134 95.6393 37.8948 94.1022 37.9633L93.9606 37.9664V37.9035H82.5596C83.0283 40.746 85.1524 42.9015 87.6508 42.9015C89.7754 42.9015 91.0872 41.7149 91.7743 41.121C92.4928 40.5277 93.4611 40.3402 94.2418 40.8712C95.1793 41.5274 95.3353 42.8707 94.5545 43.7452C92.9615 45.5257 90.7437 46.65 87.6508 46.65C82.7157 46.65 78.7174 42.183 78.7174 36.6854C78.7174 31.1878 82.7157 26.7208 87.6508 26.7208ZM150.765 22.5947L150.874 22.5979C151.838 22.658 152.569 23.4734 152.62 24.4279L152.623 24.5345V27.1587H154.341C155.278 27.1587 156.059 27.9703 155.996 28.9386C155.936 29.8098 155.212 30.45 154.379 30.4979L154.279 30.5008H152.623V44.4322C152.623 45.4628 151.811 46.2751 150.718 46.3374C149.723 46.3374 148.902 45.5514 148.846 44.5696L148.843 44.4637V30.5322H147.25C146.313 30.5322 145.532 29.72 145.595 28.7517C145.655 27.8806 146.379 27.2404 147.212 27.1924L147.313 27.1896H148.875V24.4722C148.875 23.4152 149.721 22.5921 150.765 22.5947ZM77.3433 26.846C78.2178 27.0021 78.9048 27.752 78.9048 28.6888C78.9048 29.6225 78.2075 30.4111 77.3177 30.5227L77.2181 30.5322H76.8431C73.2755 30.1321 70.6771 32.9122 70.598 36.337L70.5962 36.498V44.4008C70.5962 45.4943 69.6902 46.3374 68.5967 46.2751C67.6327 46.215 66.9015 45.3997 66.8505 44.4451L66.8477 44.3385V29.0324C66.8477 28.0018 67.6908 27.1587 68.7219 27.1587C69.6264 27.1587 70.5315 27.8279 70.5929 28.9144L70.5962 29.0324V29.2827C72.064 27.4393 74.6253 26.4402 77.3433 26.846ZM141.253 28.814C142.248 28.814 143.068 29.6 143.124 30.5823L143.127 30.6883V44.4008C143.127 45.432 142.284 46.2751 141.253 46.2751C140.258 46.2751 139.437 45.4891 139.382 44.5068L139.379 44.4008V30.6883C139.379 29.6571 140.222 28.814 141.253 28.814ZM106.768 30.4694C103.894 30.4694 101.582 33.281 101.582 36.7169C101.582 40.1842 103.894 42.9638 106.768 42.9638C109.61 42.9638 111.953 40.1842 111.953 36.7169C111.953 33.2496 109.642 30.4694 106.768 30.4694ZM126.291 30.4694C123.417 30.4694 121.106 33.281 121.106 36.7169C121.106 40.1842 123.417 42.9638 126.291 42.9638C129.165 42.9638 131.476 40.1842 131.476 36.7169C131.476 33.2496 129.165 30.4694 126.291 30.4694ZM87.6199 30.5008C85.4218 30.5008 83.5223 32.1418 82.7665 34.4902L82.7157 34.6551H92.5242C91.8057 32.2499 89.8686 30.5008 87.6199 30.5008Z" fill="#222222"/>
<path d="M30.1761 58.1761C44.6328 58.1761 56.3523 46.4567 56.3523 32C56.3523 17.5433 44.6328 5.82385 30.1761 5.82385C15.7195 5.82385 4 17.5433 4 32C4 46.4567 15.7195 58.1761 30.1761 58.1761Z" fill="#FF4500"/>
<path d="M47.6371 32.0002C47.6371 29.8761 45.9195 28.1894 43.8263 28.1894C42.7957 28.1894 41.8583 28.5952 41.1713 29.2514C38.5476 27.3771 34.9552 26.1591 30.9569 26.003L32.7059 17.8189L38.391 19.037C38.4539 20.474 39.6405 21.6297 41.109 21.6297C42.6082 21.6297 43.8263 20.4117 43.8263 18.9118C43.8263 17.4125 42.6082 16.1945 41.109 16.1945C40.0469 16.1945 39.1095 16.8192 38.6722 17.7252L32.3316 16.3819C32.1441 16.3505 31.9566 16.3819 31.8314 16.4757C31.6754 16.5694 31.5816 16.7255 31.5508 16.913L29.6136 26.0339C25.553 26.1591 21.8983 27.3771 19.2432 29.2828C18.5562 28.6266 17.6187 28.2208 16.5882 28.2208C14.4641 28.2208 12.7773 29.9384 12.7773 32.0316C12.7773 33.5932 13.7142 34.905 15.0266 35.4989C14.9637 35.8733 14.9328 36.2482 14.9328 36.6547C14.9328 42.5266 21.7737 47.3063 30.2075 47.3063C38.6414 47.3063 45.4822 42.5581 45.4822 36.6547C45.4822 36.2797 45.4508 35.8733 45.3885 35.4989C46.7003 34.905 47.6371 33.5618 47.6371 32.0002ZM21.461 34.7175C21.461 33.2182 22.6791 32.0002 24.1789 32.0002C25.6782 32.0002 26.8963 33.2182 26.8963 34.7175C26.8963 36.2168 25.6782 37.4354 24.1789 37.4354C22.6791 37.4663 21.461 36.2168 21.461 34.7175ZM36.6734 41.9333C34.7991 43.8076 31.2381 43.9328 30.2075 43.9328C29.1455 43.9328 25.5845 43.7761 23.7411 41.9333C23.4604 41.6521 23.4604 41.2148 23.7411 40.9336C24.0223 40.653 24.4596 40.653 24.7408 40.9336C25.928 42.1208 28.427 42.5266 30.2075 42.5266C31.988 42.5266 34.5179 42.1208 35.6737 40.9336C35.9549 40.653 36.3922 40.653 36.6734 40.9336C36.9232 41.2148 36.9232 41.6521 36.6734 41.9333ZM36.1732 37.4663C34.6739 37.4663 33.4559 36.2482 33.4559 34.749C33.4559 33.2497 34.6739 32.0316 36.1732 32.0316C37.6731 32.0316 38.8912 33.2497 38.8912 34.749C38.8912 36.2168 37.6731 37.4663 36.1732 37.4663Z" fill="white"/>
</svg>
