<svg width="160" height="56" viewBox="0 0 160 56" fill="none" xmlns="http://www.w3.org/2000/svg">
<path d="M23.7951 20.4241C24.1368 19.9206 24.5107 19.8566 24.8141 19.8566C25.1175 19.8566 25.6229 19.9206 25.9646 20.4241C28.6575 24.1228 33.1024 31.4908 36.3812 36.9258C38.5194 40.4701 40.1617 43.1924 40.4987 43.5388C41.7635 44.8394 43.4982 44.0288 44.5062 42.5537C45.4986 41.1014 45.774 40.0816 45.774 38.9936C45.774 38.2526 31.3971 11.5142 29.9492 9.28858C28.5568 7.14789 28.1033 6.60718 25.7201 6.60718H23.9367C21.5607 6.60718 21.2173 7.14789 19.8248 9.28858C18.377 11.5142 4 38.2526 4 38.9936C4 40.0816 4.27549 41.1014 5.26787 42.5537C6.27587 44.0288 8.01055 44.8394 9.27536 43.5388C9.61233 43.1924 11.2546 40.4701 13.3929 36.9258C16.6717 31.4908 21.1023 24.1228 23.7951 20.4241Z" fill="#000020"/>
<path d="M119.141 18.3025C125.062 18.3025 129.771 23.6483 129.771 30.2603C129.771 36.8723 125.062 42.265 119.141 42.265C115.97 42.265 113.499 40.952 111.914 38.5604V49.3928H105.34V18.7714H111.914V22.0071C113.499 19.6155 115.97 18.3025 119.141 18.3025ZM144.111 18.3025C150.824 18.3025 156 23.4607 156 30.3072C156 37.1536 150.824 42.265 144.111 42.265C137.35 42.265 132.221 37.1536 132.221 30.3072C132.221 23.4607 137.35 18.3025 144.111 18.3025ZM75.7702 8.97068V15.6295H62.6687V21.5382H74.3249V28.1969H62.6687V35.1372H75.7702V41.7961H55.7683V8.97068H75.7702ZM86.4673 18.7714L90.2439 24.2111L94.0671 18.7714H101.9L94.1604 29.8851L102.46 41.7961H94.5333L90.1973 35.5593L85.8612 41.7961H78.0284L86.2808 29.932L78.5411 18.7714H86.4673ZM117.649 24.5862C114.431 24.5862 111.914 27.0716 111.914 30.2603C111.914 33.496 114.431 35.9345 117.649 35.9345C120.819 35.9345 123.383 33.449 123.383 30.2603C123.383 27.1185 120.819 24.5862 117.649 24.5862ZM144.111 24.633C140.986 24.633 138.656 27.0246 138.656 30.3072C138.656 33.496 140.986 35.9345 144.111 35.9345C147.188 35.9345 149.566 33.496 149.566 30.3072C149.566 27.0246 147.188 24.633 144.111 24.633Z" fill="#000020"/>
</svg>
