<svg width="160" height="56" viewBox="0 0 160 56" fill="none" xmlns="http://www.w3.org/2000/svg">
<path d="M13.8963 19.9203C13.1847 18.2946 11.5847 17.2384 9.81011 17.223V21.8089L6.67855 23.2029C4.40971 24.2064 3.38328 26.8693 4.38214 29.1479C5.09246 30.7682 6.68775 31.8206 8.45685 31.836V27.2799L11.6326 25.8669C13.8791 24.8463 14.8923 22.1932 13.8957 19.9209" fill="#003A70"/>
<path d="M13.8963 30.3409C13.1846 28.7152 11.5846 27.6591 9.81011 27.6435V32.2289L6.66247 33.6287C4.40569 34.6384 3.38558 37.2921 4.38214 39.5655C5.09159 41.1868 6.68721 42.2401 8.45685 42.2554V37.6999L11.6326 36.2881C13.8791 35.2651 14.8923 32.6131 13.8957 30.3409H13.8963ZM15.7792 10.8967C15.5022 11.0017 15.1915 10.8713 15.0726 10.6C14.9538 10.3287 15.0684 10.0118 15.3334 9.87942C15.4673 9.8204 15.6192 9.81702 15.7556 9.87003C15.892 9.92303 16.0017 10.0281 16.0606 10.162C16.1213 10.2967 16.1257 10.45 16.0728 10.5879C16.02 10.7259 15.9143 10.837 15.7792 10.8967ZM17.6534 7.99945L6.63145 12.8961C4.4011 13.9162 3.39764 16.5538 4.38789 18.8129C5.09687 20.4312 6.69007 21.4824 8.45685 21.4976V16.9519L15.3955 13.8668C17.6293 12.8737 18.639 10.2493 17.6534 7.99945ZM16.0905 43.8677H19.3226L17.716 39.3496H17.681L16.0905 43.8677ZM19.5793 48.6788L20.1652 48.6047C20.8401 48.5306 20.9125 48.329 20.7292 47.7603C20.6023 47.3192 20.0704 45.8878 19.5598 44.5656H15.8538C15.6683 45.0429 15.1967 46.4754 14.94 47.2463C14.5913 48.3123 14.7573 48.5501 15.5781 48.6225L16.1284 48.6788V49.101H12.2168V48.6788C13.4058 48.5501 13.5528 48.4393 14.1898 46.8051L17.9538 37.0549L18.3754 36.8883L19.6701 40.3777C20.5282 42.7097 21.3318 45.0429 22.0446 46.9154C22.6305 48.4571 22.866 48.5857 23.9998 48.6788V49.101H19.5793V48.6788ZM27.8689 43.8677H31.1027L29.495 39.3496H29.4605L27.8689 43.8677ZM31.3589 48.6788L31.9436 48.6047C32.6202 48.5306 32.6914 48.329 32.5105 47.7603C32.383 47.3192 31.8517 45.8878 31.3411 44.5656H27.6322C27.4513 45.0429 26.9763 46.4754 26.7207 47.2463C26.372 48.3123 26.5369 48.5501 27.3594 48.6225L27.9074 48.6788V49.101H23.9998V48.6788C25.1865 48.5501 25.333 48.4393 25.9728 46.8051L29.7328 37.0549L30.1538 36.8883L31.4513 40.3777C32.3078 42.7097 33.1113 45.0429 33.8253 46.9154C34.4089 48.4571 34.6461 48.5857 35.7782 48.6788V49.101H31.3583L31.3589 48.6788ZM39.5221 37.1646L43.9426 46.6213L48.2907 37.1646H51.3016V37.5868C49.7152 37.7154 49.606 37.7878 49.6589 39.828L49.8059 46.4381C49.8593 48.495 49.9168 48.5507 51.5216 48.6794V49.1004H46.7002V48.6794C48.235 48.5507 48.2901 48.4956 48.2694 46.4381L48.1959 39.0371H48.1247L43.6508 48.897H43.1924L38.9753 39.2944H38.9362L38.7564 44.4185C38.6817 46.144 38.6817 47.1538 38.7564 47.723C38.8489 48.4025 39.2866 48.5857 40.4744 48.6794V49.1004H36.182V48.6794C37.2021 48.5857 37.5881 48.4025 37.7139 47.723C37.8236 47.1538 37.9345 46.0527 38.0264 44.2342L38.2268 40.3777C38.3549 37.917 38.2268 37.7154 36.5094 37.5862V37.1646H39.5221ZM62.7549 40.175C62.2064 38.0641 61.0369 37.4949 59.2489 37.4949C55.9599 37.4949 54.4975 39.9923 54.4975 42.8752C54.4975 46.4209 56.3069 48.7707 59.2661 48.7707C61.3126 48.7707 62.261 47.7781 63.1564 45.8488L63.6114 45.9045C63.3724 46.6943 62.9715 48.1647 62.6808 48.8609C62.1685 48.9895 60.5269 49.3755 59.2489 49.3755C54.6262 49.3755 52.6922 46.2175 52.6922 43.2979C52.6922 39.5138 55.5958 36.8877 59.5964 36.8877C61.1472 36.8877 62.3707 37.2559 62.8819 37.3662C63.0289 38.3766 63.1019 39.1847 63.2093 40.1388L62.7549 40.175ZM73.6373 37.7447L72.7062 40.075H74.5678L73.6373 37.7447ZM73.3088 37.1112H74.0124L75.9883 41.8125H75.2577L74.7821 40.627H72.492L72.0152 41.8125H71.3122L73.3088 37.1112ZM76.577 41.1388C76.8252 41.3008 77.1801 41.3812 77.3611 41.3812C77.6488 41.3812 78.0038 41.26 78.0038 40.8895C78.0038 40.2634 76.5236 40.3174 76.5236 39.3542C76.5236 38.6402 77.0526 38.2961 77.7298 38.2961C78.0239 38.2961 78.2651 38.357 78.5133 38.4311L78.4599 38.9831C78.3186 38.8964 77.9441 38.8079 77.7964 38.8079C77.4748 38.8079 77.1933 38.9435 77.1933 39.2261C77.1933 39.9268 78.6741 39.7241 78.6741 40.8223C78.6741 41.5569 78.0911 41.893 77.4811 41.893C77.1606 41.893 76.832 41.8596 76.5437 41.7051L76.577 41.1388ZM79.2835 41.1388C79.5311 41.3008 79.8866 41.3812 80.067 41.3812C80.3548 41.3812 80.7103 41.26 80.7103 40.8895C80.7103 40.2634 79.2301 40.3174 79.2301 39.3542C79.2301 38.6402 79.7586 38.2961 80.4363 38.2961C80.7299 38.2961 80.9711 38.357 81.2198 38.4311L81.1658 38.9831C81.0245 38.8964 80.6506 38.8079 80.5024 38.8079C80.1813 38.8079 79.8993 38.9435 79.8993 39.2261C79.8993 39.9268 81.3806 39.7241 81.3806 40.8223C81.3806 41.5569 80.7971 41.893 80.1876 41.893C79.8665 41.893 79.538 41.8596 79.2502 41.7051L79.2835 41.1388ZM83.7253 41.3812C84.4622 41.3812 84.7902 40.7074 84.7902 40.0945C84.7902 39.4415 84.3956 38.8079 83.7259 38.8079C83.0492 38.8079 82.654 39.4415 82.654 40.0945C82.654 40.7074 82.9815 41.3812 83.7253 41.3812ZM83.7259 38.2967C84.7638 38.2967 85.4605 39.0509 85.4605 40.0945C85.4605 41.0785 84.7506 41.893 83.7259 41.893C82.6943 41.893 81.9837 41.0785 81.9837 40.0945C81.9837 39.0509 82.681 38.2967 83.7259 38.2967ZM88.5616 38.9567C88.3456 38.8634 88.1134 38.8131 87.8781 38.8085C87.1756 38.8085 86.7799 39.4415 86.7799 40.0951C86.7799 40.7074 87.1079 41.3818 87.9189 41.3818C88.1331 41.3818 88.4014 41.314 88.5955 41.1865L88.6421 41.7511C88.3813 41.8729 88.0797 41.893 87.8517 41.893C86.8207 41.893 86.1101 41.0785 86.1101 40.0951C86.1101 39.0509 86.8069 38.2967 87.8517 38.2967C88.1067 38.2967 88.4347 38.357 88.6156 38.4311L88.5616 38.9567Z" fill="#003A70"/>
<path d="M89.4083 41.812H90.0378V38.3771H89.4083V41.812ZM89.3681 37.6097H90.078V36.8964H89.3681V37.6097ZM93.1814 40.1755C93.0476 40.1755 92.9138 40.1629 92.7794 40.1629C92.4382 40.1629 91.5944 40.2157 91.5944 40.8229C91.5944 41.1859 91.9425 41.3818 92.2302 41.3818C92.8535 41.3818 93.1814 40.9906 93.1814 40.4788V40.1755ZM91.313 38.6201C91.6511 38.4108 92.0405 38.2989 92.4382 38.2967C93.4158 38.2967 93.811 38.7815 93.811 39.7178V41.1388C93.811 41.5294 93.8248 41.7115 93.8385 41.8125H93.2486V41.3674H93.2349C93.0878 41.5765 92.7524 41.8935 92.1768 41.8935C91.4405 41.8935 90.9241 41.5696 90.9241 40.8229C90.9241 39.9601 91.8621 39.6908 92.5117 39.6908C92.7598 39.6908 92.9339 39.6908 93.1814 39.704C93.1814 39.1118 92.9672 38.8085 92.3377 38.8085C91.9827 38.8085 91.6007 38.9435 91.3463 39.1589L91.313 38.6201ZM96.7134 38.8889H95.8093V40.7683C95.8093 41.1658 96.0505 41.3812 96.3383 41.3812C96.5324 41.3812 96.6731 41.3209 96.7668 41.26V41.7988C96.626 41.839 96.4319 41.893 96.2314 41.893C95.5812 41.893 95.1792 41.5828 95.1792 40.8964V38.8889H94.4089V38.3777H95.1786V37.5827L95.8093 37.3806V38.3771H96.7134V38.8889ZM97.5393 41.812H98.1689V38.3771H97.5393V41.812ZM97.4991 37.6097H98.2091V36.8964H97.4991V37.6097ZM100.825 41.3812C101.562 41.3812 101.89 40.7074 101.89 40.0945C101.89 39.4415 101.495 38.8079 100.825 38.8079C100.149 38.8079 99.7536 39.4415 99.7536 40.0945C99.7536 40.7074 100.081 41.3812 100.825 41.3812ZM100.825 38.2967C101.863 38.2967 102.56 39.0509 102.56 40.0945C102.56 41.0785 101.85 41.893 100.825 41.893C99.7944 41.893 99.0839 41.0785 99.0839 40.0945C99.0839 39.0509 99.78 38.2967 100.825 38.2967ZM103.447 38.3771H104.056V38.9234H104.07C104.257 38.5322 104.713 38.2967 105.188 38.2967C106.072 38.2967 106.468 38.8493 106.468 39.7712V41.812H105.839V40.0342C105.839 39.2324 105.665 38.8424 105.115 38.8085C104.398 38.8085 104.076 39.3875 104.076 40.2232V41.812H103.447V38.3771ZM110.982 41.3812C111.719 41.3812 112.047 40.7074 112.047 40.0945C112.047 39.4415 111.652 38.8079 110.982 38.8079C110.306 38.8079 109.91 39.4415 109.91 40.0945C109.91 40.7074 110.238 41.3812 110.982 41.3812ZM110.982 38.2967C112.02 38.2967 112.717 39.0509 112.717 40.0945C112.717 41.0785 112.007 41.893 110.982 41.893C109.951 41.893 109.24 41.0785 109.24 40.0945C109.24 39.0509 109.937 38.2967 110.982 38.2967ZM113.954 38.8889H113.151V38.3777H113.955V38.0606C113.955 37.2255 114.17 36.6804 115.1 36.6804C115.261 36.6804 115.394 36.7005 115.522 36.7206L115.495 37.2324C115.397 37.2035 115.295 37.1899 115.193 37.1922C114.652 37.1922 114.584 37.5425 114.584 38.0078V38.3771H115.489V38.8889H114.584V41.8125H113.954V38.8889ZM73.6373 45.0906L72.7062 47.4209H74.5678L73.6373 45.0906ZM73.3088 44.4576H74.0124L75.9883 49.159H75.2577L74.7821 47.9729H72.492L72.0152 49.159H71.3122L73.3088 44.4576ZM76.6867 45.723H77.276V46.2215H77.2893C77.5305 45.8246 77.8723 45.6426 78.3749 45.6426C78.7695 45.6426 79.1652 45.8448 79.3461 46.3089C79.5799 45.8178 80.0963 45.6426 80.4042 45.6426C81.2749 45.6426 81.5897 46.2083 81.5897 46.9562V49.1584H80.9602V47.1113C80.9602 46.6862 80.8597 46.1543 80.3508 46.1543C79.7074 46.1543 79.4524 46.7873 79.4524 47.4278V49.1584H78.8229V47.1113C78.8229 46.6862 78.7229 46.1543 78.214 46.1543C77.5707 46.1543 77.3163 46.7873 77.3163 47.4278V49.1584H76.6867V45.723ZM84.9217 47.1107C84.9217 46.5857 84.6139 46.1549 84.0716 46.1549C83.4547 46.1549 83.2003 46.6661 83.1538 47.1107H84.9217ZM85.3307 49.0165C85.0895 49.105 84.8149 49.2394 84.252 49.2394C83.04 49.2394 82.4835 48.4984 82.4835 47.3801C82.4835 46.3634 83.1205 45.6431 84.0848 45.6431C85.2233 45.6431 85.5915 46.4777 85.5915 47.5828H83.1538C83.1538 48.2629 83.6828 48.7276 84.279 48.7276C84.6943 48.7276 85.1762 48.5122 85.3301 48.3835V49.0165H85.3307ZM86.4869 45.723H87.0763V46.2554H87.0895C87.2572 45.8987 87.6185 45.6426 87.9803 45.6426C88.1682 45.6426 88.2618 45.6627 88.3956 45.6897V46.2554C88.2846 46.2132 88.1664 46.1927 88.0476 46.1951C87.4846 46.1951 87.1165 46.7333 87.1165 47.5961V49.1584H86.4869V45.723ZM89.1475 49.1578H89.777V45.723H89.1475V49.1578ZM89.1073 44.9562H89.8173V44.2422H89.1073V44.9562ZM93.1165 46.3031C92.9005 46.2097 92.6683 46.1591 92.433 46.1543C91.7305 46.1543 91.3348 46.7873 91.3348 47.441C91.3348 48.0533 91.6628 48.7276 92.4738 48.7276C92.688 48.7276 92.9563 48.6604 93.1504 48.5323L93.1969 49.0981C92.9356 49.2187 92.634 49.2394 92.406 49.2394C91.375 49.2394 90.665 48.4243 90.665 47.441C90.665 46.3967 91.3612 45.6431 92.406 45.6431C92.6605 45.6431 92.9896 45.7035 93.17 45.7775L93.1165 46.3031ZM96.0339 47.522C95.9 47.522 95.7656 47.5088 95.6318 47.5088C95.29 47.5088 94.4462 47.5622 94.4462 48.1693C94.4462 48.5317 94.7949 48.7276 95.0827 48.7276C95.7053 48.7276 96.0339 48.337 96.0339 47.8247V47.522ZM94.1654 45.966C94.5034 45.757 94.8926 45.6453 95.29 45.6431C96.2682 45.6431 96.6628 46.1279 96.6628 47.0636V48.4846C96.6628 48.8758 96.6772 49.0579 96.6904 49.1584H96.1005V48.7138H96.0873C95.9402 48.9229 95.6048 49.2394 95.0292 49.2394C94.2923 49.2394 93.7759 48.9154 93.7759 48.1687C93.7759 47.306 94.7145 47.0372 95.3641 47.0372C95.6117 47.0372 95.7857 47.0372 96.0339 47.0504C96.0339 46.4576 95.8196 46.1543 95.1895 46.1543C94.8351 46.1543 94.4531 46.2893 94.1987 46.5047L94.1654 45.966ZM97.7421 45.723H98.3509V46.2692H98.3641C98.5525 45.8786 99.0075 45.6431 99.483 45.6431C100.368 45.6431 100.762 46.1951 100.762 47.1182V49.1584H100.133V47.3807C100.133 46.5788 99.9586 46.1888 99.4095 46.1543C98.6933 46.1543 98.371 46.7333 98.371 47.5691V49.1584H97.7421V45.723ZM103.83 44.457H104.935L106.402 48.364L107.842 44.457H108.947V49.159H108.278V45.09H108.264L106.716 49.159H106.06L104.513 45.09H104.5V49.159H103.83V44.457ZM112.382 47.1107C112.382 46.5857 112.073 46.1549 111.531 46.1549C110.914 46.1549 110.66 46.6661 110.613 47.1107H112.382ZM112.789 49.0165C112.548 49.105 112.274 49.2394 111.711 49.2394C110.499 49.2394 109.943 48.4984 109.943 47.3801C109.943 46.3634 110.579 45.6431 111.543 45.6431C112.683 45.6431 113.051 46.4777 113.051 47.5828H110.613C110.606 47.885 110.722 48.1769 110.934 48.3925C111.146 48.6081 111.435 48.7289 111.738 48.7276C112.153 48.7276 112.636 48.5122 112.79 48.3835V49.0165H112.789ZM115.367 48.727C116.077 48.727 116.371 48.0205 116.371 47.4479C116.371 46.8074 116.043 46.1543 115.36 46.1543C114.677 46.1543 114.409 46.8017 114.422 47.4278C114.409 47.9665 114.69 48.727 115.367 48.727ZM116.398 48.6736H116.384C116.217 48.9298 115.828 49.2394 115.219 49.2394C114.187 49.2394 113.753 48.3169 113.753 47.3807C113.753 46.4576 114.235 45.6426 115.226 45.6426C115.822 45.6426 116.164 45.8781 116.357 46.1951H116.371V44.1072H117.001V49.1584H116.398V48.6736ZM118.14 49.1578H118.77V45.723H118.14V49.1578ZM118.1 44.9562H118.81V44.2422H118.1V44.9562ZM122.11 46.3031C121.894 46.2097 121.662 46.1592 121.426 46.1543C120.723 46.1543 120.328 46.7873 120.328 47.441C120.328 48.0533 120.656 48.7276 121.466 48.7276C121.681 48.7276 121.949 48.6604 122.143 48.5323L122.19 49.0981C121.928 49.2187 121.627 49.2394 121.399 49.2394C120.368 49.2394 119.658 48.4243 119.658 47.441C119.658 46.3967 120.355 45.6431 121.399 45.6431C121.654 45.6431 121.982 45.7035 122.163 45.7775L122.11 46.3031ZM125.027 47.522C124.893 47.522 124.759 47.5088 124.625 47.5088C124.283 47.5088 123.44 47.5622 123.44 48.1693C123.44 48.5317 123.788 48.7276 124.075 48.7276C124.699 48.7276 125.027 48.337 125.027 47.8247V47.522ZM123.158 45.966C123.472 45.777 123.847 45.6431 124.283 45.6431C125.261 45.6431 125.656 46.1279 125.656 47.0636V48.4846C125.656 48.8758 125.669 49.0579 125.683 49.1584H125.094V48.7138H125.08C124.933 48.9229 124.598 49.2394 124.022 49.2394C123.286 49.2394 122.769 48.9154 122.769 48.1687C122.769 47.306 123.707 47.0372 124.356 47.0372C124.605 47.0372 124.779 47.0372 125.027 47.0504C125.027 46.4576 124.812 46.1543 124.182 46.1543C123.827 46.1543 123.445 46.2893 123.191 46.5047L123.158 45.966ZM126.777 49.159H127.407V44.1078H126.777V49.159ZM133.777 45.2319C133.486 45.0585 133.152 44.9677 132.813 44.9694C131.734 44.9694 131.018 45.7505 131.018 46.8074C131.018 47.9125 131.808 48.6466 132.779 48.6466C133.114 48.6466 133.562 48.5593 133.798 48.418L133.838 49.0711C133.482 49.2193 133.047 49.2394 132.773 49.2394C131.292 49.2394 130.308 48.2825 130.308 46.7873C130.308 45.3399 131.353 44.3766 132.779 44.3766C133.14 44.3766 133.496 44.43 133.831 44.5788L133.777 45.2319ZM136.111 48.727C136.848 48.727 137.176 48.0533 137.176 47.4404C137.176 46.7873 136.782 46.1543 136.111 46.1543C135.435 46.1543 135.04 46.7873 135.04 47.441C135.04 48.0533 135.368 48.727 136.111 48.727ZM136.111 45.6431C137.15 45.6431 137.846 46.3967 137.846 47.441C137.846 48.4243 137.137 49.2388 136.112 49.2388C135.08 49.2388 134.37 48.4243 134.37 47.441C134.37 46.3967 135.067 45.6431 136.111 45.6431ZM138.782 49.159H139.412V44.1078H138.782V49.159ZM140.581 49.159H141.211V44.1078H140.581V49.159ZM144.595 47.1107C144.595 46.5857 144.287 46.1549 143.745 46.1549C143.129 46.1549 142.874 46.6661 142.827 47.1107H144.595ZM145.003 49.0165C144.762 49.105 144.488 49.2394 143.925 49.2394C142.713 49.2394 142.156 48.4984 142.156 47.3801C142.156 46.3634 142.794 45.6431 143.758 45.6431C144.896 45.6431 145.265 46.4777 145.265 47.5828H142.827C142.827 48.2629 143.356 48.7276 143.952 48.7276C144.367 48.7276 144.849 48.5122 145.003 48.3835V49.0165ZM148.574 47.4818C148.574 46.7672 148.245 46.1549 147.574 46.1549C146.938 46.1549 146.624 46.8488 146.624 47.4347C146.624 48.0808 146.986 48.6466 147.575 48.6466C148.165 48.6466 148.574 48.1216 148.574 47.4818ZM149.203 49.0102C149.203 50.0539 148.667 50.6541 147.442 50.6541C147.08 50.6541 146.764 50.6064 146.215 50.4186L146.283 49.8327C146.765 50.0539 147.053 50.1423 147.515 50.1423C148.178 50.1423 148.573 49.6903 148.573 48.9631V48.6265H148.56C148.292 48.9832 147.85 49.1584 147.415 49.1584C146.436 49.1584 145.954 48.3571 145.954 47.468C145.954 46.5857 146.45 45.6426 147.482 45.6426C148.084 45.6426 148.419 45.8649 148.607 46.2353H148.62V45.7236H149.203V49.0102ZM152.547 47.1107C152.547 46.5857 152.238 46.1549 151.697 46.1549C151.08 46.1549 150.825 46.6661 150.779 47.1107H152.547ZM152.956 49.0165C152.714 49.105 152.439 49.2394 151.876 49.2394C150.664 49.2394 150.108 48.4984 150.108 47.3801C150.108 46.3634 150.745 45.6431 151.709 45.6431C152.848 45.6431 153.216 46.4777 153.216 47.5828H150.779C150.772 47.885 150.888 48.1769 151.1 48.3925C151.311 48.6081 151.601 48.7289 151.903 48.7276C152.319 48.7276 152.801 48.5122 152.956 48.3835V49.0165ZM153.903 48.4846C154.151 48.6472 154.506 48.727 154.687 48.727C154.975 48.727 155.33 48.6064 155.33 48.2365C155.33 47.6093 153.849 47.6633 153.849 46.7006C153.849 45.9866 154.378 45.6426 155.056 45.6426C155.35 45.6426 155.591 45.7029 155.839 45.777L155.786 46.3295C155.644 46.2422 155.27 46.1543 155.123 46.1543C154.801 46.1543 154.52 46.2893 154.52 46.5725C154.52 47.2733 156 47.0699 156 48.1682C156 48.9034 155.417 49.2388 154.808 49.2388C154.486 49.2388 154.159 49.2061 153.87 49.051L153.903 48.4846ZM6.61594 5.34692L9.12602 9.71457L11.6326 5.34692H6.61594Z" fill="#003A70"/>
</svg>
