<svg width="240" height="48" viewBox="0 0 240 48" fill="none" xmlns="http://www.w3.org/2000/svg">
<path fill-rule="evenodd" clip-rule="evenodd" d="M6.31592 40.8421H43.158V4H6.31592V40.8421Z" fill="#B8232F"/>
<path fill-rule="evenodd" clip-rule="evenodd" d="M194.303 15.0161L197.388 14.4999V35.5305H194.303V15.0161ZM206.407 17.3915V30.6534C206.407 32.9264 206.979 33.7123 208.846 33.7123C209.686 33.7123 209.464 33.7218 209.999 33.4316L210.42 35.4985C209.464 36.0331 209.112 36.1881 207.778 36.1881C206.787 36.1881 206.026 35.9839 205.3 35.6118C203.967 34.9099 203.472 33.588 203.472 31.5205V17.3915H200.993V14.9546H203.472V7.1578H206.522V14.9546H211.288L210.373 17.3915H206.407ZM230.85 34.914C229.665 34.914 228.707 33.8973 228.707 32.4914C228.707 31.0842 229.665 30.0689 230.85 30.0689C232.036 30.0689 232.994 31.0842 232.994 32.4914C232.994 33.8973 232.036 34.914 230.85 34.914ZM230.85 29.4844C229.289 29.4844 228.015 30.8343 228.015 32.4914C228.015 34.1472 229.289 35.4957 230.85 35.4957C232.413 35.4957 233.685 34.1472 233.685 32.4914C233.685 30.8343 232.413 29.4844 230.85 29.4844ZM230.356 32.2333V31.2583H230.889C231.196 31.2583 231.542 31.3239 231.542 31.724C231.542 32.1821 231.236 32.2333 230.882 32.2333H230.356ZM232.139 31.7759C232.139 31.0589 231.722 30.7756 230.951 30.7756H229.759V34.1834H230.356V32.7161H230.716L231.548 34.1834H232.161L231.299 32.6922C231.824 32.6396 232.139 32.3576 232.139 31.7759ZM229.571 14.9546L223.052 36.2714C221.756 40.4057 220.23 43.1314 216.915 43.9999L216.037 41.8102C217.893 41.18 218.867 40.2637 219.677 38.0248C219.372 36.4011 219.2 35.6951 219.2 35.6951C218.973 34.3732 217.942 30.3632 217.295 28.2991L213.213 15.4093L216.152 14.3326L220.041 27.6777C220.612 29.6223 221.183 32.8014 221.183 32.8014H221.26C221.26 32.8014 221.983 30.1583 222.442 28.465L226.177 14.9546H229.571ZM137.758 30.2819C137.758 30.2819 137.414 31.1497 136.614 31.7704C135.392 32.7188 134.515 33.0916 132.956 33.0916C131.201 33.0916 130.018 32.3897 129.142 30.695C128.531 29.4981 128.379 27.7201 128.379 25.3235C128.379 22.4319 128.683 20.9454 129.599 19.375C130.4 17.9705 131.657 17.2269 133.146 17.2269C135.392 17.2269 136.806 17.9309 137.758 19.375V30.2819ZM140.77 7.1578H137.796V14.0062C137.796 15.4913 137.833 17.186 137.833 17.186C136.691 15.5336 134.82 14.5838 132.688 14.5838C131.314 14.5838 130.248 14.9546 129.027 15.8641C126.434 17.8039 125.102 21.0274 125.102 25.4061C125.102 31.9739 127.923 35.8166 132.838 35.8166C135.05 35.8166 136.5 35.1168 137.871 33.4234C137.909 34.4941 138.291 35.5305 138.291 35.5305H141.342C140.92 34.3302 140.77 32.43 140.77 28.8801V7.1578ZM186.161 14.9963H191.065L190.151 17.4331H186.046V30.695C186.046 32.9687 186.617 33.7553 188.485 33.7553C189.325 33.7553 189.104 33.7648 189.639 33.4733L190.059 35.5408C189.104 36.0761 188.752 36.2311 187.417 36.2311C186.426 36.2311 185.665 36.0263 184.939 35.6548C183.607 34.9522 183.11 33.6297 183.11 31.5628V17.4331H180.633V14.9963H183.11V7.20081H186.161V14.9963ZM177.506 17.5158C177.81 18.26 177.964 19.0848 177.964 19.913V35.5319H174.95V21.6064C174.95 19.4153 174.798 18.8807 174.264 18.1767C173.846 17.6407 173.043 17.3089 172.167 17.3089C170.64 17.3089 168.28 18.6342 166.907 20.2019V35.5319H164.01V19.6659C164.01 16.7312 163.287 15.3267 163.287 15.3267L166.182 14.4582C166.182 14.4582 166.871 15.9843 166.871 17.6817C168.85 15.5336 170.831 14.4999 172.854 14.4999C174.913 14.4999 176.744 15.6995 177.506 17.5158ZM148.064 23.34C148.214 19.0834 149.74 16.9367 152.446 16.9367C153.897 16.9367 155.229 17.6407 155.877 18.7543C156.449 19.7458 156.716 21.11 156.754 23.34H148.064ZM152.599 14.4159C150.31 14.4159 148.443 15.3267 146.919 17.2672C145.318 19.3368 144.633 21.5647 144.633 25.036C144.633 31.8544 147.794 35.9839 153.057 35.9839C155.498 35.9839 157.786 35.0758 159.461 33.4234L158.316 31.3546C156.984 32.6785 155.498 33.2964 153.666 33.2964C151.759 33.2964 150.006 32.5543 148.939 30.7776C148.29 29.7063 148.064 28.2165 148.064 26.276V25.7782H159.917V25.3235C159.844 20.4094 159.383 18.4669 157.748 16.6466C156.449 15.2031 154.657 14.4159 152.599 14.4159ZM117.895 35.5305H120.946V7.18716H117.895V35.5305Z" fill="#263746"/>
<path fill-rule="evenodd" clip-rule="evenodd" d="M114.693 14.0328L116.842 17.4894C115.728 18.587 114.655 19.0349 113.235 19.0349C112.735 19.0349 112.196 18.9553 111.888 18.9148C112.656 19.8873 113.044 20.9454 113.044 22.328C113.044 25.9049 109.97 28.5097 105.785 28.5097C105.554 28.5097 105.4 28.5097 105.017 28.468C103.713 29.1202 102.984 29.6075 102.984 30.1755C102.984 30.4602 103.289 30.6646 103.828 30.6646L106.593 30.7052C109.586 30.7452 111.16 31.2326 112.543 32.5762C113.693 33.7138 114.233 35.137 114.233 37.0086C114.233 38.7568 113.733 40.0977 112.656 41.3165C110.931 43.2698 107.972 43.9999 104.901 43.9999C102.101 43.9999 99.2202 43.5131 97.4551 41.7638C96.3797 40.7079 95.843 39.4855 95.843 38.0656C95.843 36.9269 96.1101 36.3556 96.303 35.9505H101.064C100.871 36.439 100.831 36.7214 100.831 37.29C100.831 38.9586 102.14 39.8511 104.52 39.8511C105.824 39.8511 106.939 39.6915 107.744 39.161C108.511 38.6737 109.01 37.9022 109.01 37.0475C109.01 35.1787 107.437 34.608 105.4 34.5674L103.212 34.5262C100.91 34.484 99.4136 34.2835 98.4908 33.8751C97.568 33.5103 96.994 32.5762 96.994 31.1525C96.994 29.8116 97.3762 28.5486 100.602 27.6561C97.7609 26.8824 96.3797 24.9713 96.3797 21.8823C96.3797 17.6128 99.6438 14.8485 104.671 14.8485C105.785 14.8485 106.783 15.0109 108.205 15.3753C109.277 15.6589 109.97 15.8238 110.623 15.8238C112.043 15.8238 113.502 15.1732 114.693 14.0328ZM82.0552 14.6853C82.5174 15.5399 82.7859 16.4329 82.7859 17.2864C83.5531 16.7159 84.2063 16.228 85.0515 15.7412C86.0875 15.1732 87.4325 14.8485 88.5827 14.8485C90.7716 14.8485 92.6912 16.0662 93.305 17.8572C93.5735 18.629 93.6894 19.5228 93.6894 20.8242V36.0317H88.62V22.4912C88.62 20.1339 88.2375 19.4433 86.893 19.4433C85.8587 19.4433 84.5153 20.1756 83.3254 21.3115V36.0317H78.1785V20.9454C78.1785 19.1564 77.9478 17.4488 77.4883 16.0662L82.0552 14.6853ZM73.9921 14.7231V36.0317H68.8491V15.5772L73.9921 14.7231ZM55.446 7.7727C59.9756 7.7727 61.3584 8.25952 62.8577 9.15472C65.3502 10.619 66.6924 13.2204 66.6924 16.4752C66.6924 20.2145 65.0052 23.2237 62.0883 24.6869C60.8595 25.2969 59.7065 25.6227 56.7515 25.6227H53.7965V36.0317H48.4214V7.7727H55.446ZM104.633 18.8314C102.675 18.8314 101.561 19.9718 101.561 21.9223C101.561 24.0372 102.79 24.8896 104.595 24.8896C106.631 24.8896 107.744 23.8334 107.744 21.9223C107.744 19.9718 106.593 18.8314 104.633 18.8314ZM57.2104 12.3658H53.7965V20.9868H56.5986C58.7865 20.9868 59.4399 20.7019 60.1671 19.5228C60.6304 18.7524 60.82 17.9378 60.82 16.5947C60.82 13.9522 59.4772 12.3658 57.2104 12.3658ZM71.4966 6.10516C73.2244 6.10516 74.6078 7.61006 74.6078 9.47945C74.6078 11.3494 73.1855 12.8554 71.4194 12.8554C69.6932 12.8554 68.272 11.3494 68.272 9.47945C68.272 7.61006 69.7313 6.10516 71.4966 6.10516Z" fill="#263746"/>
</svg>
