<svg width="160" height="104" viewBox="0 0 160 104" fill="none" xmlns="http://www.w3.org/2000/svg">
<path d="M8.97818 6.78165V11.5939H14.6201V6.78165H16.1136V18.2314H14.6201V12.7555H8.97818V18.2314H7.48472V6.78165H8.97818Z" fill="#606164"/>
<path d="M23.7468 13.2533C23.7468 12.2576 23.4149 10.7642 21.5896 10.7642C20.262 10.9301 19.5983 12.2576 19.4323 13.2533H23.7468ZM19.4323 14.4148C19.4323 16.4061 20.7599 17.2358 22.2533 17.2358C23.2489 17.2358 23.9127 17.0699 24.5765 16.738L24.9083 17.7336C24.4105 17.8996 23.4149 18.2314 22.0874 18.2314C19.5983 18.2314 18.1048 16.5721 18.1048 14.083C18.1048 11.5939 19.5983 9.60261 21.9214 9.60261C24.5765 9.60261 25.4062 11.9258 25.4062 13.4192C25.4062 13.7511 25.4062 13.917 25.4062 14.083H19.4323V14.4148Z" fill="#606164"/>
<path d="M28.559 6.11789H27.0655V18.2314H28.559V6.11789Z" fill="#606164"/>
<path d="M32.5415 14.9127C32.5415 15.0786 32.5415 15.4105 32.5415 15.5764C32.8734 16.5721 33.7031 17.4018 34.8647 17.4018C36.5241 17.4018 37.3538 16.0742 37.3538 14.2489C37.3538 12.5895 36.5241 11.262 34.8647 11.262C33.8691 11.262 32.8734 11.9258 32.5415 13.0873C32.5415 13.2533 32.3756 13.4192 32.3756 13.7511V14.9127H32.5415ZM31.0481 12.5895C31.0481 11.5939 31.0481 10.7642 31.0481 9.93449H32.3756L32.5415 11.4279C33.2053 10.4323 34.2009 9.76855 35.5284 9.76855C37.5197 9.76855 39.0132 11.4279 39.0132 13.917C39.0132 16.9039 37.1878 18.3974 35.1966 18.3974C34.035 18.3974 33.2053 17.8996 32.7075 17.0699L32.3756 21.5502H30.8821L31.0481 12.5895Z" fill="#606164"/>
<path d="M45.9826 6.78165V13.5852C45.9826 16.0742 47.1442 17.2358 48.6376 17.2358C50.297 17.2358 51.4586 16.0742 51.4586 13.5852V6.78165H52.9521V13.4192C52.9521 16.9039 51.1267 18.3974 48.6376 18.3974C46.3145 18.3974 44.4892 17.0699 44.4892 13.4192V6.78165H45.9826Z" fill="#606164"/>
<path d="M55.1093 16.738C55.6071 17.0699 56.2708 17.2358 57.1005 17.2358C58.0962 17.2358 58.7599 16.738 58.7599 16.0742C58.7599 15.4105 58.2621 14.9127 57.2665 14.5808C55.773 14.083 55.1093 13.2533 55.1093 12.2576C55.1093 10.9301 56.2708 9.76855 57.9302 9.76855C58.7599 9.76855 59.4237 9.93449 59.9215 10.2664L59.5896 11.4279C59.2577 11.262 58.594 10.9301 57.9302 10.9301C57.1005 10.9301 56.6027 11.4279 56.6027 12.0917C56.6027 12.7555 57.1005 13.0873 58.0962 13.5852C59.4237 13.917 60.0874 14.7467 60.0874 15.9083C60.0874 17.4018 58.9259 18.3974 57.1005 18.3974C56.2708 18.3974 55.4411 18.2314 54.7774 17.8996L55.1093 16.738Z" fill="#606164"/>
<path d="M65.5634 16.4061C66.2272 16.9039 67.2228 17.2358 68.2185 17.2358C69.7119 17.2358 70.5416 16.4061 70.5416 15.2445C70.5416 14.2489 69.8779 13.5852 68.3844 12.9214C66.5591 12.2576 65.3975 11.262 65.3975 9.60261C65.3975 7.77728 66.8909 6.44977 69.0482 6.44977C70.2097 6.44977 71.0394 6.78165 71.5372 6.94759L71.2054 8.2751C70.8735 8.10916 70.0438 7.77728 69.0482 7.77728C67.5547 7.77728 66.8909 8.77292 66.8909 9.43667C66.8909 10.4323 67.5547 11.0961 69.2141 11.5939C71.2054 12.4236 72.201 13.2533 72.201 14.9127C72.201 16.738 70.8735 18.2314 68.2185 18.2314C67.0569 18.2314 65.8953 17.8996 65.2316 17.4018L65.5634 16.4061Z" fill="#606164"/>
<path d="M75.022 14.083C75.022 15.9083 76.0176 17.2358 77.5111 17.2358C79.0045 17.2358 80.0001 15.9083 80.0001 14.083C80.0001 12.7555 79.3364 10.9301 77.5111 10.9301C75.8517 10.9301 75.022 12.5895 75.022 14.083ZM81.6595 14.083C81.6595 17.0699 79.5023 18.3974 77.5111 18.3974C75.3539 18.3974 73.5285 16.738 73.5285 14.083C73.5285 11.4279 75.3538 9.76855 77.677 9.76855C80.0001 9.76855 81.6595 11.5939 81.6595 14.083Z" fill="#606164"/>
<path d="M84.9783 6.11789H83.4849V18.2314H84.9783V6.11789Z" fill="#606164"/>
<path d="M88.1312 9.93449L89.7906 14.5808C90.1224 15.4105 90.2884 16.0742 90.4543 16.738C90.6202 16.0742 90.9521 15.4105 91.1181 14.5808L92.7775 9.93449H94.2709L91.1181 18.2314H89.6246L86.4718 9.93449H88.1312Z" fill="#606164"/>
<path d="M100.743 13.2533C100.743 12.2576 100.411 10.7642 98.7513 10.7642C97.2578 10.7642 96.5941 12.0917 96.4281 13.2533H100.743ZM96.4281 14.4148C96.4281 16.4061 97.7556 17.2358 99.2491 17.2358C100.245 17.2358 100.908 17.0699 101.572 16.738L101.904 17.7336C101.406 17.8996 100.411 18.2314 99.0831 18.2314C96.5941 18.2314 95.1006 16.5721 95.1006 14.083C95.1006 11.5939 96.5941 9.60261 98.9172 9.60261C101.572 9.60261 102.402 11.9258 102.402 13.4192C102.402 13.7511 102.402 13.917 102.402 14.083H96.4281V14.4148Z" fill="#606164"/>
<path d="M7.48472 25.035H4V23.7074H12.4629V25.035H8.97818V35.1572H7.48472V25.035Z" fill="#606164"/>
<path d="M13.6245 23.2096H15.1179V28.3537C15.2839 27.8559 15.7817 27.524 16.1136 27.3581C16.6114 27.0262 17.1092 27.0262 17.607 27.0262C18.7686 27.0262 20.428 27.69 20.428 30.5109V35.4891H19.1005V30.6769C19.1005 29.3494 18.6026 28.1878 17.2751 28.1878C16.2795 28.1878 15.6157 28.8516 15.2839 29.6812C15.1179 29.8472 15.1179 30.1791 15.1179 30.345V35.3232H13.6245V23.2096Z" fill="#606164"/>
<path d="M28.3931 30.345C28.3931 29.3494 28.0612 27.8559 26.2358 27.8559C24.7424 27.8559 24.0786 29.1834 23.9127 30.345H28.3931ZM23.9127 31.3406C23.9127 33.3319 25.2402 34.1616 26.7337 34.1616C27.7293 34.1616 28.3931 33.9957 29.0568 33.6638L29.3887 34.6594C28.8909 34.8254 27.8952 35.1572 26.5677 35.1572C24.0786 35.1572 22.5852 33.4979 22.5852 31.0088C22.5852 28.5197 24.0786 26.5284 26.4018 26.5284C29.0568 26.5284 29.8865 28.8516 29.8865 30.345C29.8865 30.6769 29.8865 30.8428 29.8865 31.0088H23.9127V31.3406Z" fill="#606164"/>
<path d="M43.3276 34.8254C42.8298 35.1572 41.6682 35.3232 40.3407 35.3232C37.1878 35.3232 34.6987 33.3319 34.6987 29.5153C34.6987 25.8647 37.1878 23.5415 40.6726 23.5415C42.166 23.5415 42.9957 23.8734 43.3276 24.0393L42.9957 25.2009C42.4979 24.869 41.6682 24.7031 40.6726 24.7031C38.0175 24.7031 36.1922 26.3625 36.1922 29.5153C36.1922 32.3363 37.8516 34.1616 40.5066 34.1616C41.5023 34.1616 42.332 33.9957 42.9957 33.6638L43.3276 34.8254Z" fill="#606164"/>
<path d="M44.987 29.5153C44.987 28.5197 44.987 27.69 44.987 27.0262H46.3145V28.6856C46.6464 27.524 47.642 26.8603 48.6376 26.8603C48.8036 26.8603 48.9695 26.8603 48.9695 26.8603V28.3537C48.8036 28.3537 48.6376 28.3537 48.4717 28.3537C47.4761 28.3537 46.6464 29.1834 46.4804 30.345C46.4804 30.5109 46.4804 30.8428 46.4804 31.0088V35.3232H44.987V29.5153Z" fill="#606164"/>
<path d="M57.4324 33C57.4324 33.8297 57.4324 34.6594 57.4324 35.3232H56.1049L55.939 33.9957C55.6071 34.6594 54.6114 35.4891 53.2839 35.4891C51.9564 35.4891 50.463 34.8254 50.463 31.8385V27.0262H51.9564V31.5066C51.9564 33 52.4542 34.1616 53.7817 34.1616C54.7774 34.1616 55.4411 33.4979 55.773 32.8341C55.773 32.6682 55.939 32.3363 55.939 32.0044V27.0262H57.4324V33Z" fill="#606164"/>
<path d="M65.2315 30.345C65.2315 29.3494 64.8997 27.8559 63.2403 27.8559C61.7468 27.8559 61.0831 29.1834 60.9171 30.345H65.2315ZM60.7512 31.3406C60.7512 33.3319 62.0787 34.1616 63.5722 34.1616C64.5678 34.1616 65.2316 33.9957 65.8953 33.6638L66.2272 34.6594C65.7294 34.8254 64.7337 35.1572 63.4062 35.1572C60.9171 35.1572 59.4237 33.4979 59.4237 31.0088C59.4237 28.5197 60.9171 26.5284 63.2403 26.5284C65.8953 26.5284 66.725 28.8516 66.725 30.345C66.725 30.6769 66.725 30.8428 66.725 31.0088H60.7512V31.3406Z" fill="#606164"/>
<path d="M70.0438 23.2096H68.5503V35.3232H70.0438V23.2096Z" fill="#606164"/>
<path d="M85.808 30.1791C85.6421 28.5197 85.6421 26.6943 85.6421 25.2009C85.3102 26.5284 84.8124 28.0219 84.1486 29.5153L82.1573 35.1572H80.9958L79.1704 29.6813C78.6726 28.0219 78.1748 26.5284 77.8429 25.2009C77.8429 26.6943 77.677 28.5197 77.677 30.345L77.3451 35.3232H75.8517L76.6814 23.8734H78.5067L80.498 29.3494C80.9958 30.8428 81.3277 32.0044 81.6595 33.166C81.9914 32.0044 82.3233 30.6769 82.8211 29.3494L84.8124 23.8734H86.6377L87.3015 35.3232H85.808V30.1791Z" fill="#606164"/>
<path d="M90.4543 27.0262L92.2796 31.8385C92.4456 32.3363 92.6115 33 92.7775 33.4979C92.9434 33 93.1093 32.3363 93.2753 31.8385L94.9347 27.0262H96.5941L94.2709 32.8341C93.2753 35.6551 92.4456 37.1485 91.4499 37.9782C90.6202 38.642 89.9565 38.8079 89.6246 38.9738L89.2927 37.8123C89.6246 37.6463 90.1224 37.4804 90.6203 37.1485C90.9521 36.8166 91.4499 36.3188 91.9478 35.4891C91.9478 35.3232 92.1137 35.1572 92.1137 35.1572C92.1137 34.9913 92.1137 34.9913 91.9478 34.8254L88.9609 27.1922H90.4543V27.0262Z" fill="#606164"/>
<path d="M97.5897 33.6638C98.0875 33.9957 98.7513 34.1616 99.581 34.1616C100.577 34.1616 101.24 33.6638 101.24 33C101.24 32.3363 100.743 31.8385 99.7469 31.5066C98.2535 31.0088 97.5897 30.1791 97.5897 29.1834C97.5897 27.8559 98.7513 26.6943 100.411 26.6943C101.24 26.6943 101.904 26.8603 102.402 27.1922L102.07 28.3537C101.738 28.1878 101.074 27.8559 100.411 27.8559C99.581 27.8559 99.0831 28.3537 99.0831 29.0175C99.0831 29.6813 99.581 30.0131 100.577 30.5109C102.07 31.0088 102.734 31.6725 102.734 33C102.734 34.4935 101.572 35.4891 99.7469 35.4891C98.9172 35.4891 98.0875 35.3232 97.4238 34.9913L97.5897 33.6638Z" fill="#606164"/>
<path d="M106.384 25.035V27.0262H108.542V28.1878H106.384V32.6682C106.384 33.6638 106.716 34.3276 107.546 34.3276C107.878 34.3276 108.21 34.3275 108.376 34.1616V35.3232C108.044 35.4891 107.546 35.4891 107.048 35.4891C106.384 35.4891 105.721 35.3232 105.389 34.8254C105.057 34.3275 104.891 33.6638 104.891 32.6682V28.1878H103.564V27.0262H104.891V25.5328L106.384 25.035Z" fill="#606164"/>
<path d="M115.345 30.345C115.345 29.3494 115.013 27.8559 113.188 27.8559C111.695 27.8559 111.031 29.1834 110.865 30.345H115.345ZM111.031 31.3406C111.031 33.3319 112.358 34.1616 113.852 34.1616C114.847 34.1616 115.511 33.9957 116.175 33.6638L116.507 34.6594C116.009 34.8254 115.013 35.1572 113.686 35.1572C111.197 35.1572 109.703 33.4979 109.703 31.0088C109.703 28.5197 111.197 26.5284 113.52 26.5284C116.175 26.5284 117.005 28.8516 117.005 30.345C117.005 30.6769 117.005 30.8428 117.005 31.0088H111.031V31.3406Z" fill="#606164"/>
<path d="M118.664 29.5153C118.664 28.5197 118.664 27.69 118.664 27.0262H119.991V28.6856C120.323 27.524 121.319 26.8603 122.315 26.8603C122.481 26.8603 122.647 26.8603 122.647 26.8603V28.3537C122.481 28.3537 122.315 28.3537 122.149 28.3537C121.153 28.3537 120.323 29.1834 120.157 30.345C120.157 30.5109 120.157 30.8428 120.157 31.0088V35.3232H118.664V29.5153Z" fill="#606164"/>
<path d="M125.136 27.0262L126.961 31.8385C127.127 32.3363 127.293 33 127.459 33.4979C127.625 33 127.791 32.3363 127.957 31.8385L129.616 27.0262H131.275L128.952 32.8341C127.957 35.6551 127.127 37.1485 126.131 37.9782C125.302 38.642 124.638 38.8079 124.306 38.9738L123.974 37.8123C124.306 37.6463 124.804 37.4804 125.302 37.1485C125.633 36.8166 126.131 36.3188 126.629 35.4891C126.629 35.3232 126.795 35.1572 126.795 35.1572C126.795 34.9913 126.795 34.9913 126.629 34.8254L123.642 27.1922H125.136V27.0262Z" fill="#606164"/>
<path d="M7.48438 90.7467H11.4669V91.9083H8.81189V93.7336H11.301V94.7292H8.81189V97.7161H7.48438V90.7467Z" fill="#606164"/>
<path d="M14.7857 94.2314C14.7857 95.5589 15.4495 96.7205 16.611 96.7205C17.7726 96.7205 18.4364 95.5589 18.4364 94.2314C18.4364 92.9039 17.7726 91.7423 16.611 91.7423C15.4495 91.7423 14.7857 92.9039 14.7857 94.2314ZM19.9298 94.2314C19.9298 96.5546 18.6023 97.8821 16.611 97.8821C14.6198 97.8821 13.4582 96.3886 13.4582 94.3974C13.4582 92.2401 14.7857 90.7467 16.777 90.7467C18.7682 90.7467 19.9298 92.2401 19.9298 94.2314Z" fill="#606164"/>
<path d="M23.4145 94.7292C23.4145 96.0567 23.9124 96.7205 24.7421 96.7205C25.5717 96.7205 26.2355 96.0567 26.2355 94.7292V90.7467H27.563V94.5633C27.563 96.7205 26.4014 97.5502 24.908 97.5502C23.2486 97.5502 22.253 96.7205 22.253 94.5633V90.5807H23.4145V94.7292Z" fill="#606164"/>
<path d="M30.0521 97.7161V90.9126H31.5456L33.3709 93.8995C33.8687 94.7292 34.2006 95.393 34.5325 96.2227C34.3665 95.393 34.3665 94.3974 34.3665 93.4017V91.0786H35.5281V97.8821H34.2006L32.3752 94.5633C31.8774 93.7336 31.5456 92.9039 31.2137 92.2401C31.2137 93.0698 31.2137 94.0655 31.2137 95.2271V97.7161H30.0521Z" fill="#606164"/>
<path d="M39.1788 96.7205C39.3447 96.7205 39.6766 96.7205 39.8425 96.7205C41.5019 96.7205 42.4975 95.8908 42.4975 94.0655C42.4975 92.572 41.6678 91.7423 40.0084 91.7423C39.6766 91.7423 39.3447 91.7423 39.1788 91.7423V96.7205ZM38.0172 90.9126C38.515 90.9126 39.3447 90.7467 40.0084 90.7467C41.336 90.7467 42.1657 91.0786 42.8294 91.5764C43.4932 92.0742 43.8251 92.9039 43.8251 94.0655C43.8251 95.227 43.4932 96.2227 42.8294 96.7205C42.1657 97.3843 41.0041 97.7161 39.6766 97.7161C39.0128 97.7161 38.3491 97.7161 38.0172 97.5502V90.9126Z" fill="#606164"/>
<path d="M49.301 94.7292L48.8032 93.0698C48.6373 92.738 48.6373 92.2401 48.4713 91.7423C48.3054 92.0742 48.3054 92.572 48.1395 93.0698L47.6417 94.7292H49.301ZM47.3098 95.7249L46.646 97.7161H45.3185L47.4757 90.9126H49.1351L51.2923 97.7161H50.1307L49.467 95.7249H47.3098Z" fill="#606164"/>
<path d="M53.9473 91.9083H52.122V90.7467H57.2661V91.9083H55.2749V97.7161H53.9473V91.9083Z" fill="#606164"/>
<path d="M60.5849 90.7467H59.2574V97.5502H60.5849V90.7467Z" fill="#606164"/>
<path d="M64.0696 94.2314C64.0696 95.5589 64.7334 96.7205 65.895 96.7205C67.0565 96.7205 67.7203 95.5589 67.7203 94.2314C67.7203 92.9039 67.0565 91.7423 65.895 91.7423C64.5675 91.7423 64.0696 92.9039 64.0696 94.2314ZM69.0478 94.2314C69.0478 96.5546 67.7203 97.8821 65.729 97.8821C63.7378 97.8821 62.5762 96.3886 62.5762 94.3974C62.5762 92.2401 63.9037 90.7467 65.895 90.7467C67.8862 90.7467 69.0478 92.2401 69.0478 94.2314Z" fill="#606164"/>
<path d="M71.3709 97.7161V90.9126H72.8644L74.6897 93.8995C75.1875 94.7292 75.5194 95.393 75.8513 96.2227C75.6854 95.393 75.6854 94.3974 75.6854 93.4017V91.0786H76.681V97.8821H75.3535L73.6941 94.5633C73.1963 93.7336 72.8644 92.9039 72.5325 92.2401C72.5325 93.0698 72.5325 94.0655 72.5325 95.2271V97.7161H71.3709Z" fill="#606164"/>
<path d="M83.4845 94.2314C83.4845 95.5589 84.1483 96.7205 85.3099 96.7205C86.4714 96.7205 87.1352 95.5589 87.1352 94.2314C87.1352 92.9039 86.4714 91.7423 85.3099 91.7423C84.1483 91.7423 83.4845 92.9039 83.4845 94.2314ZM88.6286 94.2314C88.6286 96.5546 87.3011 97.8821 85.3099 97.8821C83.3186 97.8821 82.157 96.3886 82.157 94.3974C82.157 92.2401 83.4845 90.7467 85.4758 90.7467C87.4671 90.7467 88.6286 92.2401 88.6286 94.2314Z" fill="#606164"/>
<path d="M90.7858 90.7467H94.7684V91.9083H92.1133V93.7336H94.6024V94.7292H92.1133V97.7161H90.7858V90.7467Z" fill="#606164"/>
<path d="M103.729 94.7292L103.231 93.0698C103.065 92.738 103.065 92.2401 102.899 91.7423C102.733 92.0742 102.733 92.572 102.568 93.0698L102.07 94.7292H103.729ZM101.738 95.7249L101.074 97.7161H99.9125L102.07 90.9126H103.729L105.886 97.7161H104.559L103.895 95.7249H101.738Z" fill="#606164"/>
<path d="M113.851 94.8952C113.851 94.0655 113.685 92.9039 113.851 92.0742C113.354 92.9039 113.188 93.7336 112.856 94.5633L111.86 97.5502H110.864L110.035 94.5633C109.703 93.7336 109.537 92.738 109.371 91.9083C109.371 92.738 109.371 93.8995 109.205 94.8952L109.039 97.7161H107.878L108.375 90.9126H110.035L110.864 93.7336C111.03 94.5633 111.362 95.393 111.528 96.0568C111.694 95.393 111.86 94.3974 112.192 93.7336L113.188 91.0786H114.847L115.179 97.8821H114.017L113.851 94.8952Z" fill="#606164"/>
<path d="M121.319 94.5633H118.83V96.5546H121.651V97.7161H117.502V90.7467H121.485V91.9083H118.83V93.5677H121.319V94.5633Z" fill="#606164"/>
<path d="M125.799 93.8995C126.629 93.8995 127.127 93.4017 127.127 92.738C127.127 92.0742 126.629 91.5764 125.799 91.5764C125.467 91.5764 125.135 91.5764 124.969 91.5764V93.8995H125.799ZM123.974 90.9126C124.471 90.7467 125.135 90.7467 125.799 90.7467C126.795 90.7467 127.458 90.9126 127.956 91.2445C128.288 91.5764 128.62 92.0742 128.62 92.572C128.62 93.4017 127.956 94.0655 127.292 94.2314C127.79 94.3974 128.122 94.8952 128.288 95.5589C128.454 96.3886 128.62 97.2183 128.786 97.3843H127.458C127.292 97.2183 127.127 96.5546 126.961 95.7249C126.795 94.8952 126.463 94.5633 125.799 94.5633H125.135V97.3843H123.974V90.9126Z" fill="#606164"/>
<path d="M132.105 90.7467H130.777V97.5502H132.105V90.7467Z" fill="#606164"/>
<path d="M139.572 97.3843C139.24 97.5502 138.576 97.7161 137.747 97.7161C135.589 97.7161 134.262 96.3886 134.262 94.2314C134.262 91.9083 135.755 90.5807 137.913 90.5807C138.742 90.5807 139.24 90.7467 139.572 90.9126L139.24 91.9083C138.908 91.7423 138.41 91.5764 137.913 91.5764C136.585 91.5764 135.589 92.4061 135.589 94.0655C135.589 95.5589 136.419 96.5546 137.913 96.5546C138.41 96.5546 138.908 96.3886 139.24 96.3886L139.572 97.3843Z" fill="#606164"/>
<path d="M145.214 94.7292L144.716 93.0698C144.55 92.738 144.55 92.2401 144.384 91.7423C144.218 92.0742 144.218 92.572 144.052 93.0698L143.555 94.7292H145.214ZM143.223 95.7249L142.559 97.7161H141.397L143.555 90.9126H145.214L147.371 97.7161H146.044L145.38 95.7249H143.223Z" fill="#606164"/>
<path d="M7.48438 45.2797H15.2835V72.6597H29.2224V80.1269H7.48438V45.2797Z" fill="#7A2A82"/>
<path d="M39.3447 45.2797V65.3584C39.3447 71.3322 41.6678 74.485 45.6504 74.485C49.7989 74.485 52.122 71.6641 52.122 65.3584V45.2797H59.9212V64.8605C59.9212 75.6466 54.4452 80.7907 45.4844 80.7907C36.6897 80.7907 31.5456 75.8125 31.5456 64.8605V45.2797H39.3447Z" fill="#7A2A82"/>
<path d="M99.2487 45.2797V65.3584C99.2487 71.3322 101.572 74.485 105.554 74.485C109.703 74.485 112.026 71.6641 112.026 65.3584V45.2797H119.825V64.8605C119.825 75.6466 114.349 80.7907 105.223 80.7907C96.4278 80.7907 91.2837 75.8125 91.2837 64.8605V45.2797H99.2487Z" fill="#7A2A82"/>
<path d="M64.7334 45.2797V52.0832C75.8513 49.4282 79.6679 51.9173 79.6679 56.0658C79.6679 59.7164 76.8469 62.7033 64.7334 60.7121V70.6684H72.2007V67.1837C83.9823 68.5112 87.7989 61.8736 87.7989 56.5636C87.633 48.4326 83.4845 42.6247 64.7334 45.2797Z" fill="#7A2A82"/>
<path d="M64.7334 79.961H72.0347V72.6597H64.7334V79.961Z" fill="#7A2A82"/>
<path d="M149.362 45.6116H148.035V45.2797H151.022V45.6116H149.694V49.4282H149.362V45.6116Z" fill="#7A2A82"/>
<path d="M155.502 47.4369C155.502 46.7732 155.336 46.1094 155.336 45.6116C155.17 46.1094 155.004 46.6072 154.838 47.1051L154.009 49.4282H153.843L153.013 47.271C152.847 46.6072 152.681 46.1094 152.515 45.6116C152.515 46.1094 152.515 46.7732 152.349 47.4369L152.183 49.4282H151.851L152.183 45.2797H152.515L153.345 47.6029C153.511 48.1007 153.677 48.5985 153.843 48.9304C154.009 48.5985 154.175 48.1007 154.341 47.6029L155.336 45.2797H155.668L156 49.4282H155.668L155.502 47.4369Z" fill="#7A2A82"/>
<path d="M136.917 59.0527C132.768 57.5592 131.441 56.8955 131.441 54.9042C131.441 52.4151 133.266 51.4195 136.917 51.4195C140.236 51.4195 144.882 52.747 146.873 54.2404V46.4413C144.882 45.2797 141.397 44.616 137.415 44.616C127.79 44.616 123.476 49.2623 123.476 55.402C123.476 60.3802 125.467 63.3671 132.603 65.5243C137.083 66.8518 139.572 67.8474 139.406 70.6684C139.406 72.3278 137.747 73.9872 134.096 73.9872C130.777 73.9872 125.799 72.3278 123.642 71.3322V78.6335C125.633 79.7951 129.45 80.7907 133.432 80.7907C143.057 80.7907 147.205 75.8125 147.371 70.0047C147.703 64.0309 144.55 61.3758 136.917 59.0527Z" fill="#7A2A82"/>
</svg>
