<svg width="176" height="48" viewBox="0 0 176 48" fill="none" xmlns="http://www.w3.org/2000/svg">
<path d="M71.1429 27.4286L79.9714 38.2857H73L65.1429 28.3143V38.2857H59.4286V9.71429H65.1429V26.5143L72.4 18.2857H79.6857L71.1429 27.4286ZM48.2857 17.7143C45.746 17.7523 43.3864 19.0335 41.9714 21.1429V18.2857H36.5714V38.2857H42.2857V28.9429C42.134 27.5721 42.5586 26.1999 43.4579 25.1542C44.3572 24.1086 45.6505 23.4836 47.0286 23.4286C50.3429 23.4286 50.8571 26.6857 50.8571 28.9429V38.2857H56.5714V27.6857C56.5714 21.4 54.4857 17.7143 48.4 17.7143H48.2857ZM99.4286 28.7429C99.4504 29.1616 99.4504 29.5812 99.4286 30H84.4286V30.2C84.9315 32.6612 87.1474 34.3927 89.6571 34.2857C91.6046 34.3704 93.5027 33.6586 94.9143 32.3143L98.7143 35.1714C96.2788 37.6568 92.9055 38.9957 89.4286 38.8571C86.5475 39.0393 83.7289 37.9639 81.7013 35.909C79.6738 33.854 78.6363 31.0212 78.8571 28.1429C78.798 25.304 79.9216 22.5683 81.959 20.5906C83.9963 18.6128 86.7642 17.5709 89.6 17.7143C94.9714 17.7143 99.4286 21.5143 99.4286 28.7429ZM94.1143 26.2857C94.0719 25.142 93.5614 24.0659 92.7024 23.3096C91.8434 22.5532 90.7113 22.183 89.5714 22.2857C87.059 22.0141 84.7837 23.7837 84.4286 26.2857H94.1143ZM13.7143 9.71429H8V38.2857H25.1429V32.5714H13.7143V9.71429ZM116.571 9.71429H122.286V38.2857H116.886V36.2857C115.495 37.9988 113.376 38.9526 111.171 38.8571C108.487 38.7882 105.951 37.6146 104.16 35.6134C102.37 33.6122 101.485 30.961 101.714 28.2857C101.441 25.6056 102.307 22.9341 104.1 20.9236C105.894 18.9131 108.449 17.7485 111.143 17.7143C113.147 17.6265 115.103 18.3471 116.571 19.7143V9.71429ZM117 28.2857C117.182 26.9508 116.777 25.6026 115.889 24.589C115.002 23.5755 113.719 22.9959 112.371 23C109.638 23.1985 107.567 25.5491 107.714 28.2857C107.567 31.0223 109.638 33.373 112.371 33.5714C113.719 33.5755 115.002 32.9959 115.889 31.9824C116.777 30.9688 117.182 29.6206 117 28.2857ZM30.8571 9.14286C28.9508 9.16999 27.3906 10.6678 27.2857 12.5714C27.2857 14.5439 28.8847 16.1429 30.8571 16.1429C32.8296 16.1429 34.4286 14.5439 34.4286 12.5714C34.3237 10.6678 32.7635 9.16999 30.8571 9.14286ZM28 38.2857H33.7143V18.2857H28V38.2857ZM168 6.85714V41.1429C168 42.7208 166.721 44 165.143 44H130.857C129.279 44 128 42.7208 128 41.1429V6.85714C128 5.27919 129.279 4 130.857 4H165.143C166.721 4 168 5.27919 168 6.85714ZM139.429 18.2857H133.714V38.2857H139.429V18.2857ZM140.143 12.5714C140.143 10.599 138.544 9 136.571 9C134.599 9 133 10.599 133 12.5714C133 14.5439 134.599 16.1429 136.571 16.1429C138.544 16.1429 140.143 14.5439 140.143 12.5714ZM162.286 27.6857C162.286 21.4 160.2 17.7143 154.114 17.7143C151.534 17.7146 149.123 19.0002 147.686 21.1429V18.2857H142.286V38.2857H148V28.9429C147.848 27.5721 148.273 26.1999 149.172 25.1542C150.072 24.1086 151.365 23.4836 152.743 23.4286C156.057 23.4286 156.571 26.6857 156.571 28.9429V38.2857H162.286V27.6857Z" fill="#0A66C2"/>
</svg>
