<svg width="160" height="48" viewBox="0 0 160 48" fill="none" xmlns="http://www.w3.org/2000/svg">
<path d="M66.9732 12.6626C68.1788 12.7929 69.2378 13.0373 70.1501 13.3957C71.0951 13.7542 71.8608 14.2429 72.4473 14.862C73.0664 15.4485 73.4737 16.2143 73.6692 17.1592C73.767 17.7132 73.767 18.3485 73.6692 19.0654C73.5715 19.7823 73.4411 20.5154 73.2782 21.2648L71.0788 32.1643C70.981 32.7834 70.867 33.4188 70.7367 34.0705C70.6063 34.6896 70.5574 35.2598 70.59 35.7811C70.59 35.8789 70.5737 35.9929 70.5411 36.1233V36.4165C70.5411 36.7749 70.5086 37.1334 70.4434 37.4918C70.3782 37.8502 70.1664 38.0946 69.808 38.2249C69.5799 38.3227 69.3355 38.3716 69.0749 38.3716H64.7737C64.5131 38.339 64.3176 38.2575 64.1872 38.1272C63.9917 37.9969 63.8614 37.8176 63.7962 37.5896C63.731 37.3289 63.617 37.1171 63.4541 36.9542C63.3889 36.889 63.3074 36.8401 63.2097 36.8075C63.1445 36.7424 63.0305 36.7261 62.8675 36.7587C62.672 36.8238 62.4928 36.9053 62.3299 37.003C62.167 37.1008 62.0041 37.1823 61.8411 37.2474C61.6456 37.3778 61.4338 37.4918 61.2058 37.5896C61.0103 37.6873 60.7985 37.7851 60.5704 37.8828C60.1142 38.0783 59.6417 38.2412 59.1529 38.3716C58.6642 38.4693 58.1754 38.5834 57.6867 38.7137C57.426 38.7789 57.1816 38.8115 56.9535 38.8115C56.758 38.844 56.5462 38.8766 56.3181 38.9092H56.0249C55.9271 38.9418 55.8293 38.9581 55.7316 38.9581H55.194C54.8355 39.0233 54.5097 39.0233 54.2164 38.9581H53.7765C53.5485 38.8929 53.3204 38.8603 53.0923 38.8603C52.8968 38.8929 52.7013 38.8766 52.5058 38.8115C52.2125 38.7463 51.9192 38.6811 51.626 38.616C51.3327 38.5834 51.072 38.5019 50.844 38.3716C49.9642 38.0131 49.2473 37.557 48.6934 37.003C48.1395 36.4165 47.7647 35.6508 47.5692 34.7058C47.5041 34.4778 47.4552 34.2334 47.4226 33.9727C47.4226 33.712 47.4063 33.4351 47.3737 33.1418C47.3411 32.9789 47.3411 32.816 47.3737 32.653C47.4389 32.4901 47.4715 32.3272 47.4715 32.1643C47.4715 32.0665 47.4878 31.871 47.5204 31.5778C47.5855 31.2519 47.6507 31.0238 47.7159 30.8935C47.8462 30.5676 47.9277 30.2907 47.9603 30.0626L48.449 28.9873C48.6445 28.5963 48.8563 28.2542 49.0844 27.9609C49.8013 27.016 50.567 26.2991 51.3816 25.8103C52.1962 25.3216 53.2063 24.898 54.4119 24.5396C54.8681 24.3766 55.3243 24.2626 55.7805 24.1974C56.2367 24.1323 56.7091 24.0508 57.1979 23.953C57.4586 23.8879 57.7355 23.8553 58.0288 23.8553C58.3546 23.8227 58.6642 23.7738 58.9574 23.7087C59.1855 23.6435 59.4136 23.6272 59.6417 23.6598C59.8698 23.6598 60.1305 23.6272 60.4237 23.562C60.6518 23.4969 60.8799 23.4643 61.108 23.4643C61.3361 23.4643 61.5805 23.4317 61.8411 23.3665C62.558 23.2036 63.2097 23.0733 63.7962 22.9755C64.4153 22.8452 65.0018 22.5519 65.5558 22.0957C65.8816 21.8025 66.1423 21.4766 66.3378 21.1182C66.3704 21.0205 66.3867 20.939 66.3867 20.8738C66.3867 20.8087 66.4029 20.7435 66.4355 20.6783C66.5007 20.6132 66.5333 20.5154 66.5333 20.3851C66.5659 20.2547 66.5984 20.157 66.631 20.0918V19.3587C66.5007 18.3811 65.9468 17.7132 64.9692 17.3547C64.7086 17.257 64.3664 17.1918 63.9428 17.1592C63.5518 17.0941 63.1445 17.0778 62.7209 17.1103C62.2973 17.1103 61.8737 17.1429 61.4501 17.2081C61.0591 17.2733 60.717 17.3547 60.4237 17.4525C60.1956 17.5176 59.9838 17.6154 59.7883 17.7457C59.5928 17.8435 59.3973 17.9575 59.2018 18.0879C59.0063 18.2182 58.7945 18.3974 58.5664 18.6255C58.3383 18.8536 58.1754 19.0654 58.0777 19.2609C57.8496 19.5867 57.6541 19.8963 57.4911 20.1896C57.3282 20.4828 57.0513 20.6783 56.6603 20.7761C56.3996 20.8412 56.1226 20.8738 55.8293 20.8738H53.0923C52.9294 20.8738 52.7501 20.8901 52.5546 20.9227C52.3917 20.9227 52.2614 20.9064 52.1636 20.8738H51.7237C51.6586 20.8412 51.5771 20.8249 51.4794 20.8249C51.3816 20.8249 51.3001 20.7924 51.235 20.7272C51.0069 20.662 50.8765 20.4502 50.844 20.0918C50.844 19.9289 50.8765 19.766 50.9417 19.603C51.0069 19.4401 51.072 19.2935 51.1372 19.1632C51.3001 18.8047 51.4631 18.4789 51.626 18.1856C51.8215 17.8598 52.017 17.5665 52.2125 17.3058L52.6035 16.8171C52.7338 16.6542 52.8642 16.4912 52.9945 16.3283C53.3204 15.9699 53.7114 15.6278 54.1676 15.3019C54.2653 15.2693 54.3793 15.1879 54.5097 15.0575C54.7052 14.9272 54.8681 14.8132 54.9985 14.7154C55.1614 14.6176 55.3406 14.5199 55.5361 14.4221C56.1552 14.0637 56.7906 13.7867 57.4423 13.5912C58.1265 13.3632 58.8108 13.1514 59.4951 12.9558C59.9187 12.8581 60.3423 12.7929 60.7659 12.7603C61.1895 12.7278 61.6294 12.6626 62.0855 12.5648C62.2159 12.5323 62.4114 12.5323 62.672 12.5648C62.9327 12.5974 63.1119 12.5811 63.2097 12.516C64.5456 12.4834 65.8001 12.5323 66.9732 12.6626ZM121.312 13.0536C122.419 13.4446 123.381 13.966 124.195 14.6176C124.456 14.8132 124.7 15.0412 124.928 15.3019C125.189 15.53 125.401 15.7744 125.564 16.0351C125.629 16.198 125.743 16.3283 125.906 16.4261C126.101 16.7845 126.264 17.1592 126.395 17.5502C126.558 17.9087 126.737 18.2834 126.932 18.6744C127.03 18.9676 127.095 19.2772 127.128 19.603C127.193 19.8963 127.258 20.2221 127.323 20.5806C127.388 21.0042 127.421 21.4441 127.421 21.9002C127.454 22.3564 127.486 22.8126 127.519 23.2688C127.519 23.5294 127.47 23.8227 127.372 24.1485C127.307 24.4418 127.291 24.7188 127.323 24.9794L127.226 25.5171C127.226 25.7778 127.16 26.071 127.03 26.3969C126.9 26.7227 126.737 26.9345 126.541 27.0323C126.378 27.1626 126.134 27.2603 125.808 27.3255C125.482 27.3581 125.124 27.3907 124.733 27.4233H123.609C123.25 27.3907 122.924 27.3744 122.631 27.3744H110.021C109.826 27.3744 109.646 27.407 109.483 27.4721C109.19 27.6025 108.995 27.7328 108.897 27.8632C108.832 27.9283 108.734 28.0587 108.604 28.2542C108.506 28.4171 108.457 28.58 108.457 28.7429C108.49 28.9384 108.49 29.1339 108.457 29.3294C108.457 29.4924 108.473 29.6716 108.506 29.8671C108.604 30.6491 108.783 31.3008 109.044 31.8221C109.337 32.3109 109.76 32.7508 110.314 33.1418C110.542 33.3047 110.787 33.4188 111.047 33.4839C111.341 33.5165 111.618 33.5817 111.878 33.6794C112.139 33.7446 112.481 33.7935 112.905 33.8261C113.361 33.8587 113.768 33.8424 114.127 33.7772H114.567C114.892 33.712 115.202 33.6469 115.495 33.5817L116.375 33.2884C116.733 33.1255 117.141 32.9137 117.597 32.653C118.053 32.3924 118.412 32.1317 118.672 31.871C118.868 31.6429 119.079 31.4311 119.308 31.2356C119.536 31.0075 119.78 30.8446 120.041 30.7469C120.399 30.5839 120.823 30.5188 121.312 30.5514H123.315C123.544 30.5188 123.739 30.5351 123.902 30.6002H124.391C124.684 30.6654 124.896 30.7469 125.026 30.8446C125.124 30.9098 125.156 31.0564 125.124 31.2845C125.124 31.5126 125.075 31.7081 124.977 31.871C124.717 32.3272 124.44 32.7345 124.146 33.0929C123.886 33.4514 123.592 33.8098 123.267 34.1682C122.354 35.2435 121.377 36.107 120.334 36.7587C119.291 37.4103 118.037 37.9643 116.57 38.4205C116.179 38.5508 115.805 38.6323 115.446 38.6648C115.088 38.6974 114.697 38.7626 114.273 38.8603C114.143 38.8929 113.996 38.8929 113.833 38.8603C113.703 38.8603 113.573 38.8766 113.442 38.9092H112.905C112.709 38.9744 112.514 38.9907 112.318 38.9581C112.123 38.9581 111.944 38.9418 111.781 38.9092C111.52 38.8766 111.292 38.8766 111.096 38.9092C110.901 38.9418 110.689 38.9255 110.461 38.8603C110.298 38.7952 110.119 38.7626 109.923 38.7626C109.728 38.7626 109.565 38.73 109.435 38.6648C109.076 38.5997 108.718 38.5182 108.359 38.4205C108.033 38.3553 107.74 38.2412 107.479 38.0783C107.154 37.948 106.844 37.8339 106.551 37.7362C106.258 37.6058 105.997 37.4592 105.769 37.2963C104.856 36.6446 104.074 35.8952 103.423 35.048C102.804 34.1682 102.347 33.1581 102.054 32.0176C101.956 31.6592 101.891 31.3008 101.859 30.9424C101.859 30.5514 101.81 30.1603 101.712 29.7693V29.4272C101.745 29.2969 101.761 29.1665 101.761 29.0362C101.728 28.6452 101.728 28.2216 101.761 27.7654L101.956 26.3969C101.989 26.2339 102.005 26.0547 102.005 25.8592C102.038 25.6637 102.087 25.4845 102.152 25.3216L102.299 24.7351L102.69 23.562C102.918 23.0081 103.129 22.4705 103.325 21.9491C103.52 21.4278 103.765 20.939 104.058 20.4828C106.144 17.0941 109.011 14.6991 112.66 13.298C113.149 13.1025 113.638 12.9721 114.127 12.907C114.615 12.8092 115.137 12.6952 115.691 12.5648C115.951 12.5323 116.196 12.516 116.424 12.516C116.652 12.516 116.896 12.4997 117.157 12.4671C118.819 12.4345 120.204 12.63 121.312 13.0536ZM20.0885 3.52271C20.6424 3.52271 21.0334 3.63675 21.2615 3.86484C21.457 4.02776 21.5711 4.27214 21.6036 4.59799C21.6362 4.89124 21.6851 5.1845 21.7503 5.47776C21.8154 5.99911 21.8806 6.53675 21.9458 7.09068C22.0435 7.61203 22.125 8.14967 22.1902 8.7036C22.5486 10.7564 22.8419 12.8418 23.0699 14.9598C23.3306 17.0778 23.6402 19.1794 23.9986 21.2648C24.1289 21.9165 24.2267 22.5845 24.2919 23.2688C24.357 23.953 24.4548 24.621 24.5851 25.2727C24.6177 25.4356 24.6503 25.5985 24.6829 25.7615C24.7154 25.9244 24.7969 26.0547 24.9272 26.1525C24.9924 26.1851 25.0413 26.2176 25.0739 26.2502C25.139 26.2828 25.2205 26.2665 25.3183 26.2014C25.5789 26.1362 25.7907 25.9407 25.9536 25.6148C26.1166 25.289 26.2795 24.9957 26.4424 24.7351C26.8334 23.9856 27.2081 23.2525 27.5666 22.5356C27.925 21.7862 28.316 21.0367 28.7396 20.2873C29.7823 18.2997 30.825 16.312 31.8677 14.3244C32.943 12.3042 34.002 10.2839 35.0447 8.26372C35.3053 7.74237 35.566 7.23731 35.8267 6.74855C36.1199 6.2272 36.3969 5.70585 36.6576 5.1845C36.7879 4.92383 36.9345 4.66315 37.0975 4.40248C37.2604 4.14181 37.4885 3.93001 37.7817 3.76709C38.0098 3.60417 38.2705 3.52271 38.5638 3.52271H46.9705C47.2963 3.52271 47.5244 3.58787 47.6548 3.71821C47.9806 3.91372 48.0784 4.28844 47.948 4.84237C47.8503 5.36372 47.7525 5.90136 47.6548 6.45529L46.1885 13.7867L42.5227 31.9688L41.6918 36.221C41.6267 36.5794 41.5452 36.9379 41.4475 37.2963C41.3497 37.6221 41.1868 37.8665 40.9587 38.0294C40.7306 38.1924 40.4699 38.2901 40.1767 38.3227H35.5334C35.3053 38.2575 35.0935 38.2087 34.898 38.1761C34.7351 38.1435 34.6048 38.0294 34.507 37.8339C34.4093 37.671 34.3767 37.4592 34.4093 37.1985C34.4744 36.9379 34.5396 36.6609 34.6048 36.3676L35.0935 33.8749L37.6351 21.3137C37.7003 20.8575 37.7654 20.4339 37.8306 20.0429C37.9284 19.6193 38.0098 19.1957 38.075 18.7721C38.1402 18.5115 38.2053 18.2508 38.2705 17.9901C38.3357 17.6969 38.3683 17.4199 38.3683 17.1592C38.3357 16.9311 38.3357 16.6867 38.3683 16.4261C38.4334 16.1654 38.3845 16.0025 38.2216 15.9373C38.1239 15.9047 38.0424 15.921 37.9772 15.9862L37.8306 16.1328C37.6677 16.2632 37.5211 16.4261 37.3907 16.6216L37.0975 17.1103C36.8042 17.5991 36.511 18.1042 36.2177 18.6255C35.957 19.1469 35.6638 19.6682 35.3379 20.1896L35.0447 20.7761C34.9795 20.9716 34.8817 21.1671 34.7514 21.3626C34.4907 21.7862 34.2463 22.2098 34.0183 22.6334C33.8227 23.057 33.5947 23.4806 33.334 23.9042C33.2688 24.0019 33.2199 24.116 33.1874 24.2463C33.1548 24.3441 33.1059 24.4418 33.0407 24.5396C32.8452 24.8328 32.666 25.1424 32.5031 25.4682C32.3727 25.7941 32.1935 26.1199 31.9654 26.4457C31.7699 26.739 31.5907 27.0485 31.4278 27.3744C31.2975 27.7002 31.1345 28.0261 30.939 28.3519C30.3525 29.2969 29.8149 30.2581 29.3261 31.2356C28.8374 32.1806 28.3323 33.1255 27.811 34.0705C27.7132 34.1682 27.648 34.266 27.6154 34.3637C27.6154 34.4615 27.5666 34.5592 27.4688 34.657C27.2407 35.0154 27.0289 35.3901 26.8334 35.7811C26.6705 36.1396 26.475 36.498 26.2469 36.8564C26.1166 37.0845 25.9862 37.2963 25.8559 37.4918C25.7256 37.6873 25.5789 37.8502 25.416 37.9806C25.2205 38.1109 25.0413 38.1924 24.8784 38.2249C24.7154 38.2249 24.5037 38.2575 24.243 38.3227H23.1188C22.8907 38.3227 22.6138 38.339 22.2879 38.3716H21.3593C21.066 38.3716 20.789 38.3553 20.5284 38.3227C20.2677 38.2901 20.0885 38.2249 19.9907 38.1272C19.7626 37.9643 19.616 37.7851 19.5508 37.5896C19.5183 37.3615 19.4531 37.1008 19.3553 36.8075C19.2902 36.4165 19.2413 36.0255 19.2087 35.6345C19.1761 35.2109 19.111 34.8036 19.0132 34.4126L18.9643 33.9727C18.8666 33.5817 18.8014 33.1744 18.7688 32.7508C18.7362 32.2946 18.6711 31.871 18.5733 31.48V31.2356C18.5733 31.1379 18.557 31.0401 18.5244 30.9424C18.4267 30.6491 18.3615 30.3396 18.3289 30.0137C18.2963 29.6879 18.2475 29.362 18.1823 29.0362V28.7918C18.1823 28.694 18.166 28.6126 18.1334 28.5474C18.0683 28.2216 18.0194 27.8957 17.9868 27.5699C17.9868 27.244 17.9379 26.9182 17.8402 26.5924C17.7098 25.9407 17.5958 25.2564 17.498 24.5396C17.4329 23.8227 17.3351 23.1221 17.2048 22.4379C17.0744 21.6233 16.9604 20.7924 16.8626 19.9452C16.7975 19.098 16.6508 18.2834 16.4228 17.5014C16.3576 17.0452 16.2598 16.6705 16.1295 16.3772C16.0643 16.312 15.9992 16.2632 15.934 16.2306C15.9014 16.1654 15.8362 16.1654 15.7385 16.2306C15.543 16.3283 15.4126 16.4912 15.3475 16.7193C15.3149 16.9474 15.2497 17.1755 15.152 17.4036C15.0216 17.6317 14.9402 17.8761 14.9076 18.1367C14.875 18.3648 14.8424 18.6092 14.8098 18.8699C14.7447 19.2283 14.6632 19.5867 14.5654 19.9452C14.5003 20.3036 14.4188 20.662 14.3211 21.0205L11.7306 34.0216L11.2419 36.4165L11.0463 37.1985C11.0138 37.4592 10.916 37.671 10.7531 37.8339C10.5902 38.062 10.3132 38.2087 9.92219 38.2738C9.6941 38.339 9.44972 38.3716 9.18904 38.3716C8.92837 38.339 8.6677 38.3227 8.40702 38.3227H4.88792C4.59466 38.2901 4.36657 38.1924 4.20365 38.0294C4.04073 37.8665 3.97556 37.6221 4.00815 37.2963L4.20365 36.221L5.03455 31.9199L8.70028 13.7379L10.0688 6.89518C10.1014 6.69967 10.134 6.47158 10.1666 6.21091C10.2317 5.91765 10.2969 5.64068 10.3621 5.38001C10.4272 5.11933 10.4924 4.87495 10.5576 4.64686C10.6553 4.38619 10.7368 4.19068 10.802 4.06035C10.9975 3.83226 11.2907 3.66933 11.6817 3.57158C11.7795 3.539 11.8447 3.539 11.8772 3.57158C11.9424 3.57158 12.0239 3.55529 12.1216 3.52271H20.0885ZM152.994 13.3469C154.2 13.966 155.047 14.8783 155.536 16.0839C155.699 16.4424 155.796 16.8334 155.829 17.257C155.894 17.648 155.943 18.0553 155.976 18.4789C156.008 18.7396 156.008 18.9839 155.976 19.212C155.943 19.4401 155.943 19.6682 155.976 19.8963C155.91 20.0918 155.894 20.2221 155.927 20.2873C155.894 20.7435 155.829 21.216 155.731 21.7047C155.633 22.1935 155.536 22.666 155.438 23.1221L154.607 27.4721L152.994 35.3901C152.864 36.0092 152.733 36.612 152.603 37.1985C152.473 37.7525 152.163 38.1109 151.674 38.2738C151.479 38.339 151.251 38.3716 150.99 38.3716H147.569C147.178 38.3716 146.836 38.3553 146.542 38.3227C146.249 38.2575 146.037 38.1109 145.907 37.8828C145.809 37.6873 145.777 37.4429 145.809 37.1497C145.874 36.8238 145.94 36.4817 146.005 36.1233L146.689 32.7019L148.155 25.4193C148.383 24.2137 148.546 23.1058 148.644 22.0957C148.774 21.053 148.66 20.1733 148.302 19.4564C147.976 18.8047 147.406 18.3485 146.591 18.0879C146.428 18.0227 146.249 17.9901 146.054 17.9901C145.891 17.9901 145.728 17.9575 145.565 17.8924C145.402 17.8598 145.19 17.8598 144.929 17.8924C144.701 17.8924 144.522 17.9087 144.392 17.9412C144.229 17.9738 144.099 17.9901 144.001 17.9901C143.903 17.9901 143.805 18.0064 143.708 18.039C142.926 18.2345 142.274 18.4952 141.753 18.821C140.547 19.5705 139.7 20.662 139.211 22.0957C138.755 23.5294 138.347 25.1424 137.989 26.9345L136.767 33.0441L136.181 36.0255C136.115 36.3188 136.05 36.612 135.985 36.9053C135.92 37.1985 135.822 37.4429 135.692 37.6384C135.464 37.9969 135.154 38.2087 134.763 38.2738C134.405 38.339 133.965 38.3716 133.444 38.3716H131C130.641 38.3716 130.283 38.3553 129.924 38.3227C129.566 38.2901 129.338 38.1761 129.24 37.9806C129.045 37.6873 129.012 37.2637 129.142 36.7098C129.273 36.1558 129.387 35.6345 129.485 35.1457L130.804 28.4985L132.955 17.7457L133.492 15.253C133.558 14.8946 133.623 14.5688 133.688 14.2755C133.753 13.9823 133.9 13.7379 134.128 13.5424C134.193 13.4446 134.307 13.3794 134.47 13.3469C134.633 13.2817 134.796 13.2328 134.959 13.2002H135.203C135.366 13.1676 135.529 13.1514 135.692 13.1514H138.282C138.543 13.1514 138.787 13.1676 139.015 13.2002C139.276 13.2002 139.504 13.2328 139.7 13.298C139.895 13.3957 140.009 13.5424 140.042 13.7379C140.107 13.9334 140.14 14.1615 140.14 14.4221C140.14 14.5525 140.123 14.6665 140.091 14.7643C140.058 14.862 140.058 14.9598 140.091 15.0575C140.123 15.2205 140.156 15.3182 140.188 15.3508C140.254 15.3834 140.335 15.4323 140.433 15.4974C140.759 15.53 141.068 15.416 141.362 15.1553C141.655 14.862 141.948 14.6339 142.241 14.471C143.251 13.8193 144.327 13.298 145.467 12.907C145.793 12.8092 146.103 12.7441 146.396 12.7115C146.722 12.6789 147.08 12.63 147.471 12.5648C147.569 12.5323 147.715 12.5323 147.911 12.5648C148.106 12.5648 148.237 12.5485 148.302 12.516C150.257 12.4508 151.821 12.7278 152.994 13.3469ZM64.285 26.6412C64.1546 26.6738 64.0406 26.7064 63.9428 26.739C63.8451 26.739 63.7147 26.7553 63.5518 26.7879C63.3237 26.853 63.0793 26.9019 62.8187 26.9345C62.558 26.9671 62.281 27.016 61.9878 27.0811C61.89 27.1137 61.7434 27.13 61.5479 27.13C61.0917 27.2278 60.6518 27.2929 60.2282 27.3255C59.8046 27.3581 59.381 27.4396 58.9574 27.5699L58.1754 27.7654C57.9473 27.798 57.7192 27.8632 57.4911 27.9609C56.7417 28.2542 56.0737 28.6941 55.4872 29.2806C54.9007 29.8671 54.5586 30.6817 54.4608 31.7244C54.4282 32.2783 54.526 32.7345 54.7541 33.0929C54.8844 33.4514 55.1614 33.7446 55.585 33.9727C56.0086 34.1682 56.481 34.3148 57.0024 34.4126C57.5237 34.5103 58.0777 34.5429 58.6642 34.5103C59.2833 34.4452 59.8698 34.3311 60.4237 34.1682C61.3361 33.9075 62.0855 33.5002 62.672 32.9463C63.2911 32.3598 63.8125 31.6429 64.2361 30.7957C64.3338 30.5676 64.4153 30.3396 64.4805 30.1115C64.5456 29.8508 64.6434 29.5901 64.7737 29.3294L64.8715 28.8896C64.9367 28.7266 64.9855 28.5474 65.0181 28.3519C65.0507 28.1238 65.067 27.9283 65.067 27.7654C65.067 27.5699 65.0833 27.3907 65.1159 27.2278C65.1484 27.0648 65.0996 26.9345 64.9692 26.8367C64.8389 26.7064 64.6108 26.6412 64.285 26.6412ZM116.179 17.5991C116.082 17.6643 115.968 17.6806 115.837 17.648C115.707 17.6154 115.593 17.6154 115.495 17.648C115.3 17.7132 115.104 17.762 114.909 17.7946C114.713 17.7946 114.534 17.8272 114.371 17.8924C112.84 18.3485 111.601 19.2446 110.656 20.5806C110.559 20.7109 110.445 20.8901 110.314 21.1182C110.184 21.3137 110.086 21.5255 110.021 21.7536C109.956 21.9491 109.923 22.1446 109.923 22.3401C109.923 22.5356 110.005 22.6985 110.168 22.8289C110.396 22.9918 110.738 23.0733 111.194 23.0733H119.356C119.878 23.0407 120.236 22.8941 120.432 22.6334C120.725 22.3075 120.823 21.9165 120.725 21.4603C120.66 20.9716 120.611 20.6132 120.578 20.3851C120.285 19.5053 119.813 18.8373 119.161 18.3811C118.509 17.8924 117.515 17.6317 116.179 17.5991Z" fill="black"/>
<path d="M78.7969 11.7092C78.7418 11.8394 78.6895 12.0078 78.641 12.2108L78.6053 12.3696C78.5936 12.4246 78.5822 12.4817 78.571 12.5409L78.5383 12.7246L78.5071 12.9203L78.4776 13.1277L78.4498 13.3463L78.4238 13.576L78.3997 13.8162C78.3958 13.8572 78.3921 13.8985 78.3884 13.9403L78.3672 14.1959L78.348 14.4613L78.331 14.7363C78.3283 14.7828 78.3257 14.8298 78.3232 14.8772L80.0261 15.7013C80.0003 14.7072 80.0323 13.7671 80.1219 12.9034L80.1395 12.7494L80.1273 12.8905L80.1122 13.1237L80.1066 13.2349L80.0973 13.4887L80.0938 13.6315L80.09 13.9491L80.0905 14.2157L80.0946 14.5071L80.0994 14.7153L80.1104 15.0485L80.1205 15.2849L80.1328 15.5326C80.1351 15.5749 80.1375 15.6176 80.1399 15.6608C80.4571 15.4022 80.837 15.0627 81.232 14.6915L81.4971 14.44C81.5415 14.3974 81.586 14.3546 81.6304 14.3117L81.8963 14.0521L82.159 13.7913L82.4151 13.5325L82.6617 13.279C82.3892 12.7223 82.0954 12.3133 81.8221 12.0146L81.7318 11.9191C81.6722 11.858 81.6139 11.8022 81.5572 11.7513L81.4735 11.6784L81.3928 11.6124C81.3664 11.5915 81.3405 11.5718 81.3153 11.5531L81.2413 11.5001L81.1714 11.4531L81.0745 11.3932L80.9884 11.345L80.8924 11.2974L80.8205 11.2665L80.6891 11.219L80.5935 11.1883L80.5001 11.162L80.429 11.1441L80.3517 11.1268C80.3384 11.124 80.3248 11.1212 80.311 11.1185L80.2259 11.1034L80.1367 11.0906C79.6659 11.0316 79.0577 11.0935 78.7969 11.7092Z" fill="url(#paint0_linear_150_237)"/>
<path d="M80.4712 20.7279C80.3926 20.1613 80.3209 19.6039 80.256 19.056C80.2033 18.6009 80.1602 18.1526 80.1248 17.7087L80.0946 17.3107C80.094 17.3002 80.0937 17.29 80.0938 17.2804C80.0566 16.7408 80.0297 16.2152 80.0176 15.7001L78.3182 14.8806L78.3136 14.9848L78.3021 15.201C78.2852 15.6081 78.2726 16.0408 78.2691 16.4955C78.2649 17.008 78.2698 17.5427 78.279 18.1028C78.2911 18.6179 78.3121 19.155 78.34 19.7015C78.3607 20.0523 78.3833 20.4057 78.4092 20.7638L78.4404 21.1779L80.7139 22.3296L80.6337 21.7931L80.4712 20.7279Z" fill="url(#paint1_linear_150_237)"/>
<path d="M83.7598 33.9301L83.795 34.0514L84.0208 34.8186C84.0532 34.9276 84.086 35.0371 84.1195 35.1471L84.2272 35.4959L84.2641 35.6215C84.2706 35.6419 84.2776 35.6623 84.2855 35.6828L84.6517 36.8565C84.9761 36.7894 85.3714 36.9104 85.7891 37.0927L85.9572 37.1686C85.6498 36.7986 85.2242 36.5512 84.7156 36.4938C86.108 35.5652 87.0241 34.3689 86.8954 32.942C86.8817 32.8157 86.8645 32.6848 86.8393 32.5526C86.8183 33.0787 86.6083 33.4648 85.9997 33.8774L85.9248 33.9271C86.5542 32.8193 86.7274 32.0678 86.653 31.0962C86.6346 30.8657 86.6059 30.6213 86.5635 30.3582C86.3622 31.8048 85.5853 32.741 84.4491 33.2951L83.7598 33.9301Z" fill="url(#paint2_linear_150_237)"/>
<path d="M82.9438 32.2322L82.7992 31.69L82.5084 30.5926C82.3704 30.0624 82.237 29.5287 82.1049 28.987C81.9729 28.4452 81.8454 27.9001 81.718 27.3549C81.5884 26.797 81.4669 26.2403 81.35 25.6802L81.2346 25.1264L81.0131 24.0185C80.9736 23.8179 80.9374 23.622 80.9025 23.418C80.8389 23.0771 80.78 22.7328 80.7211 22.3886L80.7089 22.3329L78.4482 21.179L78.4556 21.2506C78.4565 21.263 78.4569 21.2755 78.4564 21.2878C78.502 21.7997 78.5464 22.3197 78.6069 22.8422C78.6662 23.3728 78.7336 23.9046 78.8125 24.4424C78.8796 24.8955 78.9513 25.3452 79.0264 25.7996L79.0757 26.072C79.1798 26.6343 79.291 27.177 79.4119 27.6839C79.5471 28.2593 79.692 28.7988 79.8383 29.3014C79.9367 29.631 80.033 29.9479 80.1317 30.2487L80.2193 30.502L80.4004 31.0059C80.6165 31.5936 80.8559 32.1643 81.114 32.7212L83.3989 33.8789C83.2771 33.4587 83.1647 33.0317 83.0407 32.5988L82.9774 32.3561L82.9438 32.2322Z" fill="url(#paint3_linear_150_237)"/>
<path d="M81.1483 32.797C81.4237 33.3861 81.724 33.9568 82.0557 34.5046L82.2395 34.802C82.023 34.7149 81.7492 34.6715 81.4832 34.6522L81.3511 34.6444C81.3293 34.6434 81.3076 34.6426 81.2861 34.6419L81.1594 34.6391L80.9807 34.6397L80.8212 34.6444L80.687 34.6513L80.4992 34.6668C80.4976 34.667 80.4969 34.6671 80.4971 34.6671C81.6524 35.0679 82.6656 35.5586 83.3048 36.3023C83.0508 36.582 82.5753 36.7946 81.9776 36.9678C82.4226 37.016 82.7616 36.9964 83.0061 36.9565L83.1051 36.9383C83.1206 36.9351 83.1357 36.9319 83.1503 36.9286L83.2323 36.9082L83.3033 36.8875L83.3893 36.8575L83.4334 36.8394C83.0664 37.1454 82.8367 37.6669 82.6457 38.2514L82.5798 38.4601C82.569 38.4952 82.5583 38.5305 82.5477 38.5659C83.0338 37.7714 83.516 37.2452 83.9856 37.0441C84.51 38.783 85.1165 40.6337 85.7821 42.565L86.0934 43.4619C86.1985 43.7627 86.305 44.0654 86.4126 44.3696C86.5674 44.1699 86.5848 43.9491 86.52 43.7239L86.3071 43.1227L86.0647 42.42L85.6891 41.3057L85.3813 40.3713L85.0412 39.3169L84.7164 38.2883L84.4184 37.3244L84.1991 36.6025L84.0206 36.0066C83.9968 35.9284 83.975 35.8487 83.9514 35.7682L83.8842 35.5469L83.6915 34.881L83.4955 34.196L83.4074 33.8803L83.404 33.8757L81.119 32.718C81.1242 32.7381 81.13 32.7546 81.1369 32.7713L81.1483 32.797Z" fill="url(#paint4_linear_150_237)"/>
<path d="M80.9793 22.3785L81.0198 22.5999C81.0491 22.7507 81.0763 22.9029 81.1052 23.056L81.3524 24.3243L81.4432 24.7659L81.5755 25.3901C81.598 25.4955 81.6208 25.6017 81.6437 25.7087C81.7119 26.0246 81.7839 26.3455 81.8592 26.6733L82.0145 27.3383L82.1689 27.987C82.1954 28.0966 82.2221 28.2069 82.2492 28.3177L82.4151 28.989L82.581 29.6415C82.6652 29.9712 82.7518 30.3063 82.8434 30.6482C82.9102 30.9005 82.9796 31.1564 83.0505 31.4156L83.2882 32.2809L83.4678 32.9168L83.6532 33.5663C83.6846 33.6755 83.7163 33.7852 83.7482 33.8952C83.7504 33.908 83.7526 33.9207 83.7594 33.93L84.4487 33.295L84.432 33.3019L84.3952 33.3199C85.2132 32.5473 85.9143 30.9993 86.0745 29.6043C86.1483 28.9617 86.1415 28.2778 86.0532 27.5317C85.9895 26.9756 85.8764 26.3912 85.7209 25.759C85.5854 25.2126 85.4178 24.6323 85.2136 24.0215C85.0871 24.2794 84.9074 24.5333 84.6873 24.7809L84.5679 24.9116L84.5271 24.9541L84.4405 25.041C85.0438 24.1031 85.1155 23.0959 84.9366 22.0503C84.8269 22.3605 84.6116 22.8199 84.2544 23.2328C84.2087 23.2879 84.1549 23.3417 84.1011 23.3955C84.0918 23.4024 84.084 23.4113 84.0743 23.4206L84.0579 23.4344C84.258 23.1009 84.406 22.7843 84.5007 22.4636C84.5158 22.419 84.5273 22.3738 84.5377 22.3285L84.5526 22.2604C84.5768 22.1566 84.5929 22.0514 84.609 21.9463L84.632 21.7429C84.641 21.6232 84.6436 21.5002 84.6377 21.3753L84.622 21.1455C84.6205 21.1286 84.6185 21.1117 84.6155 21.0947L84.5915 20.9475C84.5875 20.9239 84.5832 20.9007 84.5784 20.8779C84.5317 20.6047 84.4804 20.3612 84.4274 20.1452L84.3778 19.9513L84.333 19.7875L84.2747 19.5938L84.1989 19.3669C84.1909 19.344 84.1829 19.3221 84.1747 19.3012L84.129 19.1867C84.1143 19.1515 84.1002 19.1193 84.0869 19.0903L84.0493 19.0129C84.042 19.0422 84.0327 19.0729 84.0203 19.1038L83.9993 19.1501C83.8569 19.4842 83.5259 19.9425 83.224 20.2645C83.2193 20.2679 83.2147 20.2714 83.2134 20.2794L83.1512 20.3416C83.1405 20.3529 83.13 20.3646 83.1199 20.3768L83.1317 20.3538L80.96 22.3424C80.9783 22.3577 80.9805 22.3704 80.9793 22.3785Z" fill="url(#paint5_linear_150_237)"/>
<path d="M80.1396 15.6607C80.1484 15.8193 80.1589 15.9846 80.171 16.1565L80.1973 16.5088C80.2021 16.569 80.207 16.6299 80.212 16.6914L80.2443 17.0693C80.25 17.1337 80.2559 17.1988 80.2619 17.2646L80.267 17.3273C80.2682 17.3373 80.2699 17.3472 80.2725 17.3572C80.2909 17.551 80.3113 17.7502 80.334 17.9557L80.3821 18.3752C80.3992 18.518 80.4172 18.6637 80.4363 18.8125L80.5267 19.4949C80.5689 19.8047 80.6147 20.1256 80.6658 20.4603L80.7052 20.7139C80.7442 20.9724 80.7875 21.2367 80.8333 21.5081L80.9765 22.3448L83.1482 20.3562C83.601 19.5359 83.7 19.0255 83.6939 18.3913C83.6917 18.2637 83.6857 18.1308 83.6773 17.9947L83.6681 17.8576C83.6334 17.3018 83.5666 16.7121 83.4718 16.143C83.3827 15.5913 83.2736 15.0613 83.1487 14.6076C83.0696 14.314 82.9855 14.0528 82.8999 13.8286C82.822 13.6345 82.7417 13.4567 82.6602 13.2869L82.4139 13.5383C82.372 13.5807 82.3297 13.6234 82.287 13.6663L82.0275 13.9249L81.763 14.1843L81.4966 14.4411C81.4523 14.4835 81.408 14.5257 81.3638 14.5676L81.1006 14.8144C80.7531 15.137 80.4216 15.4308 80.1396 15.6607Z" fill="url(#paint6_linear_150_237)"/>
<path d="M101.047 12.1352C100.977 12.1639 100.901 12.1999 100.82 12.243L100.693 12.313C100.606 12.3631 100.513 12.4203 100.414 12.4841L100.263 12.5849L100.104 12.6956L99.9372 12.8161L99.7635 12.9461C99.7339 12.9686 99.7041 12.9914 99.674 13.0146L99.4901 13.1587L99.2996 13.3118L99.103 13.4739L98.9004 13.6447L98.6922 13.8242L98.4785 14.012L98.2597 14.2081C98.2228 14.2414 98.1857 14.2751 98.1484 14.3091L98.8645 16.3255C99.639 15.499 100.417 14.7632 101.181 14.1362L101.449 13.9183L101.469 13.9034L101.284 14.0537L101.103 14.2103L100.906 14.3879L100.72 14.5624L100.564 14.7131L100.451 14.8232L100.208 15.0672L100.009 15.2717L99.7219 15.574L99.5694 15.7381L99.4108 15.9111L99.1617 16.1876L98.9883 16.3834C99.1664 16.4003 99.3616 16.4149 99.5695 16.4274L99.8903 16.4445L100.227 16.4584L100.576 16.4692L100.933 16.477L101.297 16.4818C101.357 16.4824 101.418 16.4828 101.479 16.4832L101.845 16.4838C101.905 16.4836 101.966 16.4834 102.027 16.483L102.386 16.4796C102.446 16.4788 102.505 16.4779 102.564 16.4769L102.911 16.4695C103.196 15.6203 103.261 14.9375 103.239 14.4277L103.231 14.2986L103.22 14.1774C103.218 14.1578 103.216 14.1386 103.213 14.1197L103.198 14.0104L103.181 13.909C103.178 13.8927 103.175 13.8768 103.171 13.8613L103.152 13.7718L103.131 13.6904L103.111 13.6169L103.09 13.5516L103.052 13.4451L103.021 13.3711L102.947 13.2186L102.904 13.1372L102.867 13.0732L102.826 13.0029L102.778 12.9276L102.725 12.8485L102.667 12.7669C102.34 12.3269 101.782 11.8318 101.047 12.1352Z" fill="url(#paint7_linear_150_237)"/>
<path d="M95.2296 20.7262C95.6165 20.2076 96.0016 19.7019 96.3847 19.2092C96.7837 18.6989 97.1862 18.2091 97.5934 17.7331C97.6175 17.7036 97.6417 17.674 97.6649 17.651C98.0637 17.187 98.4596 16.7425 98.8591 16.3183L98.1422 14.3083L98.0557 14.3885L97.8747 14.5535C97.5376 14.8678 97.1837 15.2061 96.8196 15.5693C96.6143 15.774 96.4064 15.9849 96.1952 16.2019L95.768 16.644C95.6959 16.7191 95.6235 16.7948 95.5505 16.8712C95.151 17.2954 94.7412 17.7445 94.3295 18.2065C94.0674 18.5054 93.8047 18.8079 93.5412 19.1167L93.2373 19.4749L94.1524 22.2083L94.5141 21.7127L95.2296 20.7262Z" fill="url(#paint8_linear_150_237)"/>
<path d="M87.3873 33.9665L87.2512 34.2177L86.8915 34.8891C86.831 35.0026 86.7704 35.1169 86.7099 35.232L86.5196 35.5984C86.4832 35.6658 86.4478 35.7268 86.4179 35.7952L86.2178 36.1813L85.7803 37.0309C86.1366 37.2618 86.3744 37.7596 86.5833 38.3194C86.6298 37.7773 86.4837 37.24 86.1199 36.7898C87.9786 37.1485 89.6665 36.9133 90.6966 35.6624C90.7859 35.5498 90.8761 35.4308 90.9608 35.3043C90.5247 35.7123 90.0474 35.8559 89.2254 35.7025L89.1326 35.6842C90.5194 35.2925 91.256 34.8252 91.9681 33.9839C92.1363 33.7837 92.3074 33.5641 92.4823 33.3186C91.1709 34.3233 89.8017 34.4597 88.4468 34.0029L87.3873 33.9665Z" fill="url(#paint9_linear_150_237)"/>
<path d="M88.0079 32.0785L88.3937 31.4007L89.0315 30.2862C89.3417 29.7497 89.6584 29.2141 89.9825 28.6731C90.3065 28.132 90.6371 27.5919 90.9677 27.0518C91.3066 26.4997 91.6511 25.955 92.002 25.4112C92.3456 24.873 92.702 24.3367 93.0511 23.8059C93.1786 23.613 93.3052 23.4265 93.4391 23.2346C93.6588 22.9096 93.8849 22.5857 94.111 22.2617L94.1454 22.2073L93.2424 19.4822L93.1914 19.5457C93.1823 19.5564 93.1727 19.5667 93.1624 19.5763C92.7924 20.0246 92.415 20.4785 92.0486 20.9472C91.6748 21.4215 91.3065 21.9031 90.9428 22.3987C90.6367 22.8167 90.3371 23.2358 90.0366 23.6612L89.8598 23.9197C89.4969 24.455 89.1553 24.9803 88.8498 25.4844C88.5015 26.055 88.1894 26.6045 87.908 27.1253C87.7253 27.4689 87.551 27.8004 87.3915 28.121C87.2591 28.3925 87.1322 28.6715 87.0062 28.944C86.7132 29.5889 86.4525 30.2385 86.2178 30.8918L87.1374 33.6392L87.3164 33.3131L87.6824 32.657C87.7437 32.5468 87.805 32.4359 87.8661 32.3241L88.0079 32.0785Z" fill="url(#paint10_linear_150_237)"/>
<path d="M86.1853 30.9797C85.939 31.6727 85.7273 32.3708 85.559 33.0752L85.4708 33.4608C85.3879 33.2699 85.2549 33.0726 85.1048 32.8864L85.0131 32.7762C84.9975 32.7581 84.9819 32.7401 84.9662 32.7223L84.8713 32.6177L84.7763 32.5179L84.6829 32.4236L84.5492 32.2947L84.4279 32.1831L84.2949 32.0664L84.1753 31.9678C84.7869 33.2083 85.2127 34.4083 85.1363 35.5148C84.7096 35.5382 84.1579 35.3316 83.5391 34.9961C83.8055 35.3228 84.0501 35.5532 84.2563 35.7148L84.3488 35.7846C84.3637 35.7954 84.3784 35.8059 84.3928 35.816L84.4764 35.8722L84.5537 35.9202L84.6242 35.9604L84.6877 35.9936L84.7438 36.0203L84.792 36.0411C84.7994 36.0441 84.8065 36.0469 84.8132 36.0494C84.2947 36.0058 83.72 36.2241 83.1265 36.5248L82.928 36.6279L82.7284 36.7356C83.751 36.4822 84.5572 36.4418 85.095 36.653C84.8308 37.153 84.565 37.6649 84.2975 38.1876L83.8952 38.9797C83.2899 40.1797 82.6769 41.4324 82.0577 42.7275L81.644 43.597C81.5058 43.8889 81.3673 44.1827 81.2285 44.4784C81.5118 44.4406 81.7012 44.2766 81.828 44.0439L82.2965 43.0506L82.7276 42.1575L83.2786 41.0359L83.7652 40.0609L84.2474 39.1082L84.7054 38.2146L85.3411 36.9925L85.7924 36.1372L85.9476 35.8455L86.0813 35.5986L86.2029 35.3671L86.3883 35.0248L86.7686 34.3266C86.833 34.2088 86.8979 34.0901 86.9634 33.9708L87.1432 33.6466L87.1442 33.6402L86.2245 30.8928C86.2127 30.9131 86.2042 30.931 86.1966 30.95L86.1853 30.9797Z" fill="url(#paint11_linear_150_237)"/>
<path d="M94.3266 22.4589L94.1832 22.6693C94.0871 22.8139 93.988 22.9581 93.8896 23.1044L93.4178 23.8158L93.081 24.3217L92.9957 24.4527C92.8677 24.6489 92.7392 24.8483 92.6095 25.0508L92.2155 25.6676C91.9541 26.079 91.6909 26.5028 91.422 26.9418L91.2193 27.274C90.8971 27.8022 90.5646 28.3552 90.2302 28.9212L89.8453 29.5783C89.6512 29.9106 89.4547 30.2492 89.2568 30.5972C89.1394 30.8022 89.0216 31.0103 88.9029 31.221L88.3177 32.2649L88.1383 32.5901L87.7741 33.2528C87.6518 33.4762 87.5288 33.7021 87.4054 33.93C87.397 33.942 87.3886 33.954 87.3867 33.9669L88.4462 34.0033C88.4277 33.994 88.4083 33.9912 88.3833 33.9809C89.6557 34.0089 91.4499 33.3197 92.6873 32.3241C93.2572 31.8654 93.7951 31.3094 94.3168 30.6386C94.7074 30.1403 95.0806 29.58 95.4578 28.9475C95.7828 28.4 96.109 27.7997 96.4298 27.1457C96.1231 27.2529 95.7768 27.3145 95.4028 27.339L95.2029 27.3493C95.1585 27.3516 95.1145 27.351 95.0684 27.3511L94.9974 27.3522C96.2284 27.0765 97.0863 26.3228 97.773 25.3389C97.4383 25.5014 96.8999 25.7002 96.2843 25.7487C96.2038 25.7568 96.1177 25.7574 96.0316 25.758C96.0187 25.7561 96.0053 25.757 95.9902 25.7568L95.9659 25.7549C96.392 25.6455 96.7627 25.5081 97.0938 25.3252C97.1414 25.3013 97.1865 25.2741 97.2308 25.2459L97.2969 25.2029C97.399 25.1385 97.4955 25.0667 97.592 24.9949L97.7721 24.8493C97.9086 24.7305 98.0405 24.5977 98.1613 24.4501L98.2387 24.3605C98.2509 24.3457 98.2627 24.3305 98.2738 24.3145L98.3714 24.1769C98.3869 24.1547 98.4019 24.1327 98.4162 24.1105C98.5994 23.848 98.7541 23.6067 98.8848 23.3872L98.9394 23.2944C99.0102 23.1725 99.0726 23.0626 99.1276 22.9583L99.1919 22.8354L99.2895 22.6379C99.3094 22.5969 99.3279 22.5578 99.3439 22.5205L99.3724 22.4541L99.4209 22.3342C99.4351 22.2971 99.4475 22.2631 99.4579 22.2324L99.472 22.1887C99.4429 22.2065 99.411 22.2239 99.3764 22.2389L99.3227 22.2594C98.9427 22.4153 98.3121 22.5212 97.8132 22.5406C97.8067 22.5396 97.8003 22.5387 97.7928 22.5442L97.6933 22.5448C97.6758 22.5454 97.658 22.5465 97.6401 22.5482L97.6679 22.5391L94.3397 22.4145C94.3424 22.4413 94.334 22.4533 94.3266 22.4589Z" fill="url(#paint12_linear_150_237)"/>
<path d="M98.9886 16.3835C98.8696 16.5182 98.7468 16.6596 98.62 16.8076L98.3612 17.1122L98.0921 17.4337L97.767 17.8264C97.76 17.8354 97.7535 17.8447 97.7476 17.8549C97.5621 18.0823 97.3717 18.3206 97.1754 18.5712L96.8763 18.9566C96.8257 19.0224 96.7747 19.0891 96.7232 19.1566L96.2935 19.7247L96.0126 20.1011C95.8704 20.2929 95.7255 20.4904 95.5777 20.6945L95.429 20.9009C95.2799 21.1058 95.1299 21.3166 94.9775 21.5331L94.6691 21.9738L94.3516 22.4293L97.6798 22.5539C98.6961 22.2533 99.1814 21.921 99.6803 21.4056C99.7799 21.3012 99.8807 21.1895 99.982 21.0732L100.084 20.9556C100.497 20.4805 100.912 19.9528 101.288 19.4193C101.654 18.9043 101.988 18.391 102.248 17.9265C102.417 17.6273 102.557 17.3503 102.666 17.1017C102.758 16.8837 102.834 16.6767 102.904 16.4752L102.558 16.4812L102.203 16.4849L101.842 16.4862L101.478 16.4849C101.417 16.4844 101.356 16.4839 101.295 16.4832L100.933 16.4779L100.575 16.4698C100.516 16.4682 100.458 16.4665 100.4 16.4647L100.057 16.4522C100.001 16.4498 99.9454 16.4474 99.8905 16.4448L99.5698 16.4276C99.3619 16.4151 99.1667 16.4005 98.9886 16.3835Z" fill="url(#paint13_linear_150_237)"/>
<defs>
<linearGradient id="paint0_linear_150_237" x1="79.2205" y1="14.0147" x2="84.7399" y2="12.2148" gradientUnits="userSpaceOnUse">
<stop stop-color="#F69923"/>
<stop offset="0.3123" stop-color="#F79A23"/>
<stop offset="0.8383" stop-color="#E97826"/>
</linearGradient>
<linearGradient id="paint1_linear_150_237" x1="78.7852" y1="44.3019" x2="85.5573" y2="17.416" gradientUnits="userSpaceOnUse">
<stop offset="0.3233" stop-color="#9E2064"/>
<stop offset="0.6302" stop-color="#C92037"/>
<stop offset="0.7514" stop-color="#CD2335"/>
<stop offset="1" stop-color="#E97826"/>
</linearGradient>
<linearGradient id="paint2_linear_150_237" x1="84.8588" y1="43.4553" x2="89.3076" y2="21.7886" gradientUnits="userSpaceOnUse">
<stop stop-color="#282662"/>
<stop offset="0.0954839" stop-color="#662E8D"/>
<stop offset="0.7882" stop-color="#9F2064"/>
<stop offset="0.9487" stop-color="#CD2032"/>
</linearGradient>
<linearGradient id="paint3_linear_150_237" x1="79.9452" y1="42.8319" x2="89.7919" y2="18.8878" gradientUnits="userSpaceOnUse">
<stop offset="0.3233" stop-color="#9E2064"/>
<stop offset="0.6302" stop-color="#C92037"/>
<stop offset="0.7514" stop-color="#CD2335"/>
<stop offset="1" stop-color="#E97826"/>
</linearGradient>
<linearGradient id="paint4_linear_150_237" x1="82.4072" y1="41.7253" x2="90.3362" y2="31.8463" gradientUnits="userSpaceOnUse">
<stop stop-color="#282662"/>
<stop offset="0.0954839" stop-color="#662E8D"/>
<stop offset="0.7882" stop-color="#9F2064"/>
<stop offset="0.9487" stop-color="#CD2032"/>
</linearGradient>
<linearGradient id="paint5_linear_150_237" x1="83.0177" y1="47.0093" x2="90.2573" y2="12.7399" gradientUnits="userSpaceOnUse">
<stop offset="0.3233" stop-color="#9E2064"/>
<stop offset="0.6302" stop-color="#C92037"/>
<stop offset="0.7514" stop-color="#CD2335"/>
<stop offset="1" stop-color="#E97826"/>
</linearGradient>
<linearGradient id="paint6_linear_150_237" x1="80.9324" y1="55.4792" x2="87.7456" y2="15.8193" gradientUnits="userSpaceOnUse">
<stop offset="0.3233" stop-color="#9E2064"/>
<stop offset="0.6302" stop-color="#C92037"/>
<stop offset="0.7514" stop-color="#CD2335"/>
<stop offset="1" stop-color="#E97826"/>
</linearGradient>
<linearGradient id="paint7_linear_150_237" x1="98.9958" y1="14.7207" x2="106.159" y2="12.8113" gradientUnits="userSpaceOnUse">
<stop stop-color="#F69923"/>
<stop offset="0.3123" stop-color="#F79A23"/>
<stop offset="0.8383" stop-color="#E97826"/>
</linearGradient>
<linearGradient id="paint8_linear_150_237" x1="88.4349" y1="45.5109" x2="103.011" y2="18.8062" gradientUnits="userSpaceOnUse">
<stop offset="0.3233" stop-color="#9E2064"/>
<stop offset="0.6302" stop-color="#C92037"/>
<stop offset="0.7514" stop-color="#CD2335"/>
<stop offset="1" stop-color="#E97826"/>
</linearGradient>
<linearGradient id="paint9_linear_150_237" x1="84.3984" y1="39.7812" x2="90.9804" y2="28.7263" gradientUnits="userSpaceOnUse">
<stop stop-color="#282662"/>
<stop offset="0.0954839" stop-color="#662E8D"/>
<stop offset="0.7882" stop-color="#9F2064"/>
<stop offset="0.9487" stop-color="#CD2032"/>
</linearGradient>
<linearGradient id="paint10_linear_150_237" x1="86.9486" y1="43.6195" x2="101.73" y2="18.5986" gradientUnits="userSpaceOnUse">
<stop offset="0.3233" stop-color="#9E2064"/>
<stop offset="0.6302" stop-color="#C92037"/>
<stop offset="0.7514" stop-color="#CD2335"/>
<stop offset="1" stop-color="#E97826"/>
</linearGradient>
<linearGradient id="paint11_linear_150_237" x1="83.42" y1="41.3952" x2="91.5274" y2="29.3331" gradientUnits="userSpaceOnUse">
<stop stop-color="#282662"/>
<stop offset="0.0954839" stop-color="#662E8D"/>
<stop offset="0.7882" stop-color="#9F2064"/>
<stop offset="0.9487" stop-color="#CD2032"/>
</linearGradient>
<linearGradient id="paint12_linear_150_237" x1="83.1877" y1="43.642" x2="100.227" y2="16.3384" gradientUnits="userSpaceOnUse">
<stop offset="0.3233" stop-color="#9E2064"/>
<stop offset="0.6302" stop-color="#C92037"/>
<stop offset="0.7514" stop-color="#CD2335"/>
<stop offset="1" stop-color="#E97826"/>
</linearGradient>
<linearGradient id="paint13_linear_150_237" x1="83.2454" y1="32.8243" x2="94.1582" y2="14.839" gradientUnits="userSpaceOnUse">
<stop offset="0.3233" stop-color="#9E2064"/>
<stop offset="0.6302" stop-color="#C92037"/>
<stop offset="0.7514" stop-color="#CD2335"/>
<stop offset="1" stop-color="#E97826"/>
</linearGradient>
</defs>
</svg>
