<svg width="168" height="48" viewBox="0 0 168 48" fill="none" xmlns="http://www.w3.org/2000/svg">
<path d="M26.6113 15.4326H27.3331V20.691H26.6113V15.4326Z" fill="black"/>
<path d="M32.8842 15.4326V20.691H32.1567L29.1506 16.6182V20.6881H28.4288V15.4326H29.1564L32.1682 19.5112V15.4326H32.8842Z" fill="black"/>
<path d="M33.7191 15.4326H37.8266V16.0935H36.128V20.691H35.4062V16.0935H33.7191V15.4326Z" fill="black"/>
<path d="M38.6528 15.4326H42.3023V16.0848H39.3717V17.7081H41.9922V18.3604H39.3717V20.0359H42.3922V20.6881H38.6528V15.4326Z" fill="black"/>
<path d="M46.6389 20.691L45.5953 19.0387C45.4736 19.0474 45.3779 19.0532 45.3026 19.0532H43.9662V20.691H43.2444V15.4326H45.3026C45.9693 15.4326 46.4824 15.5862 46.8447 15.8935C47.2071 16.2008 47.3897 16.6385 47.3897 17.2038C47.3897 17.6299 47.2911 17.9864 47.094 18.2792C46.8969 18.5691 46.6128 18.7807 46.2418 18.9111L47.465 20.691H46.6389ZM45.2997 18.3981C45.7519 18.3981 46.0968 18.2995 46.3374 18.1024C46.578 17.9053 46.6969 17.6125 46.6969 17.2269C46.6969 16.8501 46.5751 16.566 46.3374 16.3747C46.0997 16.1834 45.7519 16.0848 45.2997 16.0848H43.9633V18.3981H45.2997Z" fill="black"/>
<path d="M52.8568 15.4326V20.691H52.1292L49.1231 16.6211V20.691H48.4014V15.4326H49.1289L52.1408 19.5112V15.4326H52.8568Z" fill="black"/>
<path d="M58.2717 20.691L57.7151 19.4155H54.9439L54.396 20.691H53.6365L55.9729 15.4326H56.7237L59.0514 20.691H58.2717ZM55.2308 18.7604H57.4397L56.3295 16.2066L55.2308 18.7604Z" fill="black"/>
<path d="M62.7474 15.4326V16.0935H61.0487V20.691H60.3269V16.0935H58.6369V15.4326H62.7474Z" fill="black"/>
<path d="M63.5764 15.4326H64.2982V20.691H63.5764V15.4326Z" fill="black"/>
<path d="M69.3566 15.7399C69.7798 15.9747 70.1131 16.2964 70.3595 16.7052C70.6059 17.1139 70.7277 17.5632 70.7277 18.0531C70.7277 18.543 70.6059 18.9952 70.3595 19.4097C70.1131 19.8242 69.7798 20.1489 69.3566 20.3866C68.9333 20.6243 68.4695 20.7432 67.9622 20.7432C67.455 20.7432 66.9912 20.6243 66.5679 20.3866C66.1447 20.1489 65.8114 19.8242 65.565 19.4097C65.3186 18.9981 65.1968 18.5459 65.1968 18.0531C65.1968 17.5632 65.3186 17.1139 65.565 16.7052C65.8114 16.2964 66.1418 15.9747 66.565 15.7399C66.9883 15.5051 67.4521 15.3862 67.9622 15.3862C68.4666 15.3862 68.9333 15.5051 69.3566 15.7399ZM66.9506 16.3022C66.6375 16.482 66.3882 16.7255 66.2027 17.0356C66.0172 17.3429 65.9244 17.6821 65.9244 18.0531C65.9244 18.4241 66.0172 18.7633 66.2027 19.0735C66.3882 19.3836 66.6375 19.63 66.9506 19.8127C67.2636 19.9953 67.6028 20.088 67.968 20.088C68.3333 20.088 68.6695 19.9982 68.9768 19.8127C69.2841 19.63 69.5305 19.3836 69.7131 19.0735C69.8957 18.7633 69.9885 18.4212 69.9885 18.0531C69.9885 17.6821 69.8986 17.3429 69.7131 17.0356C69.5305 16.7284 69.2841 16.4849 68.9768 16.3022C68.6695 16.1196 68.3333 16.0327 67.968 16.0327C67.6028 16.0327 67.2636 16.1225 66.9506 16.3022Z" fill="black"/>
<path d="M76.0817 15.4326V20.691H75.3541L72.3481 16.6211V20.691H71.6263V15.4326H72.3539L75.3657 19.5112V15.4326H76.0817Z" fill="black"/>
<path d="M81.4531 20.691L80.8965 19.4155H78.1253L77.5775 20.691H76.818L79.1544 15.4326H79.9052L82.2329 20.691H81.4531ZM78.4094 18.7604H80.6183L79.508 16.2066L78.4094 18.7604Z" fill="black"/>
<path d="M82.8648 15.4326H83.5866V20.0359H85.8853V20.6881H82.8648V15.4326Z" fill="black"/>
<path d="M28.5245 23.5434L30.8464 28.2365L33.1596 23.5434H35.4381V31.5672H33.5828L33.5713 26.4856L31.5218 30.7642H30.171L28.11 26.4856V31.5672H26.2432V23.5434H28.5245Z" fill="black"/>
<path d="M44.0996 23.5434L41.2037 29.0017V31.5643H39.1079V29.0568L36.157 23.5405H38.2499L40.1486 26.9842L42.0038 23.5405H44.0996V23.5434Z" fill="black"/>
<path d="M44.8214 23.5434H51.1494V25.2131H46.9143V26.7117H50.7378V28.3698L46.9143 28.3814V29.8917H51.2624V31.5614H44.8214V23.5434Z" fill="black"/>
<path d="M52.4074 23.5434H54.5033V29.7815H57.9035V31.5672H52.4103V23.5434H52.4074Z" fill="black"/>
<path d="M64.8866 23.955C65.5476 24.3144 66.0664 24.8043 66.4433 25.4305C66.8201 26.0566 67.0085 26.7581 67.0085 27.535C67.0085 28.3205 66.8201 29.0307 66.4433 29.6627C66.0664 30.2946 65.5476 30.7961 64.8866 31.1613C64.2257 31.5266 63.4894 31.7121 62.672 31.7121C61.8545 31.7121 61.1182 31.5295 60.4573 31.1671C59.7964 30.8048 59.2775 30.3062 58.9007 29.6685C58.5238 29.0307 58.3354 28.3205 58.3354 27.535C58.3354 26.7581 58.5238 26.0566 58.9007 25.4305C59.2775 24.8043 59.7964 24.3144 60.4573 23.955C61.1182 23.5955 61.8545 23.4158 62.672 23.4158C63.4894 23.4187 64.2286 23.5955 64.8866 23.955ZM61.5907 25.5C61.2516 25.7058 60.982 25.9899 60.7849 26.3523C60.5849 26.7146 60.4863 27.1118 60.4863 27.5466C60.4863 27.9901 60.5878 28.393 60.7878 28.7554C60.9907 29.1177 61.2603 29.4047 61.5936 29.6134C61.9299 29.825 62.2951 29.9294 62.6923 29.9294C63.0894 29.9294 63.4518 29.825 63.7851 29.6134C64.1156 29.4047 64.3794 29.1177 64.5678 28.7554C64.7591 28.393 64.8548 27.9901 64.8548 27.5466C64.8548 27.1118 64.7591 26.7117 64.5678 26.3523C64.3765 25.9899 64.1156 25.7058 63.7851 25.5C63.4547 25.2942 63.0894 25.1899 62.6923 25.1899C62.298 25.1899 61.9328 25.2942 61.5907 25.5Z" fill="black"/>
<path d="M70.3305 23.5434L72.6525 28.2365L74.9657 23.5434H77.2441V31.5672H75.3889L75.3744 26.4856L73.325 30.7642H71.9741L69.9131 26.4856V31.5672H68.0463V23.5434H70.3305Z" fill="black"/>
<path d="M84.691 31.5643L84.1403 30.1439H80.6733L80.1139 31.5643H77.963L81.4067 23.5405H83.5576L86.9231 31.5643H84.691ZM81.3024 28.5437H83.5228L82.4242 25.6827L81.3024 28.5437Z" fill="black"/>
<path d="M89.2682 23.5086H94.486L94.4744 24.5058H90.3668V27.1378H94.0628V28.135H90.3668V31.5237H89.2682V23.5086Z" fill="black"/>
<path d="M101.394 23.9782C102.037 24.3376 102.547 24.8275 102.921 25.4479C103.295 26.0711 103.481 26.7552 103.481 27.5002C103.481 28.2481 103.292 28.938 102.921 29.567C102.547 30.196 102.037 30.6917 101.394 31.0541C100.75 31.4164 100.04 31.5961 99.2718 31.5961C98.5008 31.5961 97.7935 31.4164 97.1499 31.0541C96.5035 30.6917 95.9962 30.196 95.6223 29.567C95.2483 28.938 95.0628 28.2481 95.0628 27.5002C95.0628 26.7523 95.2483 26.0682 95.6223 25.4479C95.9962 24.8246 96.5035 24.3347 97.1441 23.9782C97.7848 23.6187 98.495 23.439 99.2718 23.439C100.04 23.439 100.747 23.6187 101.394 23.9782ZM97.7297 24.8362C97.2543 25.1116 96.8717 25.4826 96.5905 25.9522C96.3093 26.4218 96.1673 26.9378 96.1673 27.5031C96.1673 28.0683 96.3093 28.5872 96.5905 29.0597C96.8717 29.5322 97.2514 29.9091 97.7297 30.1873C98.2051 30.4656 98.724 30.6048 99.2805 30.6048C99.8371 30.6048 100.35 30.4656 100.82 30.1873C101.289 29.9091 101.663 29.5322 101.942 29.0597C102.22 28.5872 102.359 28.0683 102.359 27.5031C102.359 26.9378 102.22 26.4218 101.942 25.9522C101.663 25.4826 101.289 25.1116 100.82 24.8362C100.35 24.5608 99.8371 24.4246 99.2805 24.4246C98.724 24.4246 98.208 24.5608 97.7297 24.8362Z" fill="black"/>
<path d="M106.441 29.9815C106.849 30.3961 107.412 30.6048 108.128 30.6048C108.838 30.6048 109.394 30.3961 109.797 29.9815C110.2 29.567 110.403 28.9873 110.403 28.2481V23.5086H111.502V28.2452C111.502 29.2916 111.203 30.112 110.603 30.7062C110.003 31.3005 109.18 31.599 108.125 31.599C107.064 31.599 106.232 31.3005 105.629 30.7062C105.026 30.112 104.724 29.2916 104.724 28.2452V23.5086H105.823V28.2452C105.829 28.9873 106.035 29.5641 106.441 29.9815Z" fill="black"/>
<path d="M118.569 23.5086H119.656V31.5208H118.546L113.969 25.3174V31.5208H112.87V23.5086H113.98L118.569 29.7235V23.5086Z" fill="black"/>
<path d="M126.506 24.0304C127.135 24.3782 127.631 24.8565 127.987 25.4681C128.346 26.0798 128.526 26.761 128.526 27.5176C128.526 28.2713 128.344 28.9554 127.981 29.567C127.619 30.1786 127.12 30.6569 126.488 31.0048C125.856 31.3526 125.146 31.5266 124.361 31.5266H121.134V23.5086H124.395C125.172 23.5086 125.877 23.6825 126.506 24.0304ZM125.935 30.1352C126.39 29.8772 126.746 29.5177 127.01 29.0597C127.274 28.6017 127.404 28.0915 127.404 27.5263C127.404 26.9552 127.271 26.4392 127.004 25.9812C126.738 25.5232 126.372 25.1638 125.912 24.9C125.451 24.6362 124.938 24.5058 124.372 24.5058H122.233V30.5236H124.419C124.975 30.5236 125.48 30.3932 125.935 30.1352Z" fill="black"/>
<path d="M135.506 31.5208L134.66 29.5757H130.437L129.602 31.5208H128.445L132.005 23.5086H133.15L136.698 31.5208H135.506ZM130.871 28.5785H134.237L132.544 24.6884L130.871 28.5785Z" fill="black"/>
<path d="M135.657 23.5086H141.919V24.5174H139.333V31.5208H138.234V24.5174H135.66V23.5086H135.657Z" fill="black"/>
<path d="M142.971 23.5086H144.069V31.5208H142.971V23.5086Z" fill="black"/>
<path d="M151.571 23.9782C152.215 24.3376 152.725 24.8275 153.099 25.4479C153.473 26.0711 153.659 26.7552 153.659 27.5002C153.659 28.2481 153.47 28.938 153.099 29.567C152.725 30.196 152.215 30.6917 151.571 31.0541C150.928 31.4164 150.218 31.5961 149.45 31.5961C148.678 31.5961 147.971 31.4164 147.328 31.0541C146.681 30.6917 146.174 30.196 145.8 29.567C145.426 28.938 145.241 28.2481 145.241 27.5002C145.241 26.7523 145.426 26.0682 145.8 25.4479C146.174 24.8246 146.681 24.3347 147.322 23.9782C147.962 23.6187 148.673 23.439 149.45 23.439C150.218 23.439 150.925 23.6187 151.571 23.9782ZM147.91 24.8362C147.435 25.1116 147.052 25.4826 146.771 25.9522C146.49 26.4218 146.348 26.9378 146.348 27.5031C146.348 28.0683 146.49 28.5872 146.771 29.0597C147.052 29.5322 147.432 29.9091 147.91 30.1873C148.386 30.4656 148.905 30.6048 149.461 30.6048C150.018 30.6048 150.531 30.4656 151 30.1873C151.47 29.9091 151.844 29.5322 152.122 29.0597C152.4 28.5872 152.54 28.0683 152.54 27.5031C152.54 26.9378 152.4 26.4218 152.122 25.9522C151.844 25.4826 151.47 25.1116 151 24.8362C150.531 24.5608 150.018 24.4246 149.461 24.4246C148.902 24.4246 148.386 24.5608 147.91 24.8362Z" fill="black"/>
<path d="M160.526 23.5086H161.613V31.5208H160.503L155.925 25.3174V31.5208H154.827V23.5086H155.937L160.526 29.7235V23.5086Z" fill="black"/>
<path d="M12.1961 17.5778C11.0772 17.5778 10.1641 16.6618 10.1641 15.5458C10.1641 14.4269 11.0801 13.5138 12.1961 13.5138C13.315 13.5138 14.2281 14.4298 14.2281 15.5458C14.2281 16.6618 13.315 17.5778 12.1961 17.5778Z" fill="black"/>
<path d="M13.9933 22.1869C14.0078 22.2014 14.0774 22.2738 14.1673 22.3637C14.2571 22.4536 14.3731 22.5724 14.4977 22.7C14.5615 22.7637 14.6253 22.8304 14.6919 22.8942C14.7528 22.8333 14.8601 22.7231 14.9093 22.6739C15.4543 22.1231 16.0051 21.5694 16.55 20.9984C17.6748 19.8215 18.7502 18.604 19.6083 17.3198C21.1852 14.9689 21.8113 12.7166 21.5214 10.4411C21.1794 7.73361 19.6836 5.44069 17.5878 4C18.6256 5.02906 19.3619 6.3625 19.6343 7.87855L19.7068 8.37134C19.7996 9.23807 19.7155 10.0671 19.4952 10.8701L19.2517 11.6093C18.9531 12.3861 18.5328 13.1369 18.0313 13.8616L17.2776 14.8472L17.2429 14.8965C17.182 14.9805 17.1443 15.0298 17.0689 15.1197L17.0428 15.1545H17.0399C16.5616 15.7284 16.0457 16.2937 15.5065 16.8502L14.3296 18.03L14.2803 18.0822C14.0194 18.3373 13.7556 18.5953 13.4947 18.8504C13.431 18.9142 12.6338 19.7258 12.2889 20.0708C12.2338 20.1259 12.1816 20.1809 12.1294 20.2331C12.7469 20.8679 13.344 21.5549 13.9933 22.1869Z" fill="black"/>
<path d="M14.9853 29.141C14.8259 28.9845 14.6635 28.8251 14.4954 28.6627C13.8982 28.0598 13.3243 27.4771 12.7793 26.9148C12.4083 26.5379 12.0372 26.1611 11.6691 25.7785C10.6574 24.7204 9.68634 23.6305 8.86599 22.4913C8.39929 21.868 8.02245 21.2941 7.74996 20.7723C7.20209 19.6099 7.14122 19.4418 6.89193 18.72C6.74699 18.2359 6.55857 17.3749 6.52668 16.8155C6.46871 16.1893 6.4803 15.5632 6.55857 14.9342C6.56437 14.8762 6.56437 14.8791 6.58756 14.7487C6.59045 14.7313 6.60785 14.624 6.62814 14.4907C6.79917 13.5138 7.11803 12.5949 7.55574 11.7513C8.01955 10.7744 8.66887 9.89901 9.7704 8.95691C9.79939 8.93082 9.83128 8.90473 9.86027 8.87864C10.0864 8.69022 10.3386 8.4989 10.6023 8.30469C10.1067 8.79748 9.67184 9.36854 9.32689 9.98597L9.25442 10.1193C8.77902 11.0295 8.3674 12.2586 8.40798 13.7515C8.44857 14.4182 8.54133 14.9719 8.66887 15.4502C8.79642 15.8937 8.96165 16.3285 9.16456 16.7575C9.38197 17.1952 9.62257 17.5894 9.86316 18.0098C9.89795 18.0648 9.93563 18.1228 9.97042 18.1779C10.9154 19.4707 11.1212 19.8737 14.0229 22.7724C16.4318 25.1813 18.1334 26.8684 19.2929 28.254C19.8668 28.9265 20.4031 29.6106 20.8785 30.3179C21.9133 31.863 22.5482 33.3645 22.7946 34.8574C22.8062 34.9183 22.8149 34.9821 22.8236 35.0429C22.9366 35.8227 22.9453 36.6025 22.8438 37.3822C22.812 37.6344 22.7685 37.8808 22.7163 38.1243C22.5366 39.0461 22.2467 39.8607 21.9133 40.4346C21.5916 41.0753 21.2031 41.6695 20.7538 42.2116C20.2842 42.8232 19.7132 43.4175 19.0262 43.8407C18.9537 43.8929 18.8812 43.9479 18.8088 44.0001C18.8088 44.0001 22.6583 40.4723 20.1306 35.4227C20.1074 35.3792 20.0813 35.3328 20.0581 35.2864C18.8638 33.3674 17.6029 31.7267 15.0462 29.199L14.9853 29.141Z" fill="#941E2F"/>
<path d="M11.6916 25.8541L11.7177 25.8222C11.7032 25.8048 11.6858 25.7903 11.6713 25.7758C10.8451 24.912 10.0538 24.0278 9.34357 23.1118L9.31748 23.1408C9.00441 23.5408 8.70004 23.9438 8.42176 24.3583C6.80425 26.773 6.16072 29.0862 6.4564 31.4255C6.81005 34.2112 8.3406 36.5621 10.4886 38.0434C9.34067 36.8984 8.55221 35.3939 8.3348 33.6807C8.06811 31.5704 8.83628 29.6514 10.0741 27.8745C10.5495 27.1846 11.6916 25.8541 11.6916 25.8541Z" fill="#898B8D"/>
<path d="M20.4922 36.2461H13.1612C13.454 36.9273 14.1091 37.1419 14.5179 37.2491C14.7614 37.3187 15.2542 37.3042 15.2542 37.3042H20.814C20.7357 36.9621 20.6285 36.6085 20.4922 36.2461Z" fill="#898B8D"/>
<path d="M18.4167 32.9212H10.3871C10.6799 33.6025 11.335 33.817 11.7437 33.9242C11.9872 33.9938 12.48 33.9793 12.48 33.9793H19.1965C18.953 33.6285 18.695 33.2778 18.4167 32.9212Z" fill="#898B8D"/>
<path d="M15.6397 29.7964H10.7031C10.9959 30.4776 11.651 30.6921 12.0597 30.7993C12.3032 30.8689 12.796 30.8544 12.796 30.8544H16.6514C16.3412 30.5182 16.0049 30.1674 15.6397 29.7964Z" fill="#898B8D"/>
</svg>
