<svg width="176" height="48" viewBox="0 0 176 48" fill="none" xmlns="http://www.w3.org/2000/svg">
<path d="M12.7789 27.7995V43.6658H6.82899V27.7995H12.7789ZM46.4947 27.7995V43.6658H40.5449V27.7995H46.4947ZM20.8321 7.6812L22.4033 10.958C22.532 11.2246 22.5408 11.5334 22.4276 11.8069C22.3144 12.0805 22.0899 12.2927 21.8105 12.3904C16.5361 14.2635 12.7755 19.1049 12.7755 24.7827V25.8217H6.82568V24.7827C6.82568 16.7393 12.1012 9.87494 19.5353 7.15343C20.039 6.96851 20.6007 7.19711 20.8321 7.6812ZM33.783 7.13911C41.2192 9.86943 46.4947 16.7371 46.4947 24.7771V25.8162H40.5449V24.7771C40.5449 19.0994 36.7888 14.2591 31.5099 12.3849C31.2305 12.2872 31.006 12.0749 30.8928 11.8014C30.7796 11.5279 30.7885 11.2191 30.9171 10.9525L32.4861 7.66688C32.7176 7.18278 33.2793 6.95419 33.783 7.13911Z" fill="#27272A"/>
<path d="M26.661 13.4438C33.2322 13.4438 38.5607 18.5177 38.5607 24.7771V43.6658H32.6108V24.7771C32.6108 21.6469 29.9466 19.1105 26.661 19.1105C23.3753 19.1105 20.7111 21.6447 20.7111 24.7771V43.6658H14.7612V24.7771C14.7612 18.5177 20.0897 13.4438 26.661 13.4438ZM30.4358 4.25563C30.765 4.30045 31.053 4.49969 31.2111 4.7919C31.3692 5.08411 31.3783 5.43421 31.2357 5.73428L30.9504 6.33147L28.7412 10.9591C28.5564 11.3409 28.1597 11.5736 27.7363 11.5486C27.3801 11.5288 27.0216 11.5189 26.661 11.5189C26.3007 11.5189 25.9415 11.5288 25.5856 11.5486C25.1624 11.5737 24.766 11.3409 24.5818 10.9591L22.3715 6.33147L22.0862 5.73428C21.9436 5.43421 21.9527 5.08411 22.1108 4.7919C22.2689 4.49969 22.5569 4.30045 22.8861 4.25563C25.3911 3.91479 27.9308 3.91479 30.4358 4.25563Z" fill="#FFC905"/>
<path d="M160.537 22.7851C160.979 22.7844 161.405 22.8038 161.815 22.8435C163.933 23.0426 165.628 23.7558 166.9 24.9833C168.237 26.2753 168.985 28.0272 169.142 30.239C169.163 30.5357 169.174 30.8424 169.174 31.159C169.176 31.2992 169.165 31.4393 169.142 31.5777C169.133 31.7045 169.075 31.8229 168.981 31.9082C168.85 31.9986 168.49 32.0438 167.902 32.0438H155.486C155.383 32.2751 155.332 32.6993 155.332 33.3164C155.332 35.8351 155.878 37.8272 156.97 39.2927C158.062 40.7581 159.547 41.4908 161.424 41.4908C162.537 41.4836 163.636 41.2335 164.643 40.7581C165.778 40.225 166.824 39.5229 167.748 38.6756L168.827 40.0254C167.159 41.9124 165.198 43.127 162.944 43.6691C162.004 43.8925 161.04 44.0035 160.074 43.9999C159.077 44.0053 158.084 43.8943 157.113 43.6691C156.645 43.5594 156.185 43.4176 155.736 43.2449C153.224 42.3127 151.227 40.3573 150.241 37.8658C149.727 36.6068 149.47 35.206 149.47 33.6634C149.452 32.1654 149.727 30.6783 150.28 29.2859C150.797 27.9941 151.579 26.8244 152.574 25.8515C153.583 24.8747 154.776 24.1077 156.083 23.5949C157.103 23.1918 158.177 22.9387 159.27 22.8435C159.672 22.8053 160.094 22.7858 160.537 22.7851ZM94.9295 22.7906C95.346 22.7906 95.7558 22.8093 96.1602 22.849C97.2372 22.949 98.2956 23.1955 99.3059 23.5817C100.637 24.0815 101.865 24.8197 102.931 25.76C103.969 26.6785 104.81 27.7982 105.403 29.0512C106.016 30.3615 106.325 31.7929 106.309 33.2392C106.326 34.7274 106.017 36.2013 105.403 37.5573C104.817 38.8431 103.978 39.9973 102.935 40.9509C101.875 41.9136 100.646 42.6719 99.3103 43.1876C98.8113 43.3837 98.2992 43.5446 97.7777 43.6691C95.9119 44.1069 93.9701 44.1069 92.1044 43.6691C91.5978 43.5492 91.1001 43.3945 90.6147 43.2064C89.2893 42.7026 88.0723 41.9501 87.0294 40.9895C85.9959 40.029 85.1709 38.8664 84.6054 37.5738C84.007 36.2068 83.7065 34.7281 83.7239 33.2359C83.7076 31.7873 84.0084 30.3525 84.6054 29.0325C85.1766 27.772 86.0018 26.643 87.0294 25.716C88.0785 24.7776 89.2947 24.045 90.6147 23.5564C91.6096 23.1839 92.6497 22.946 93.7075 22.849C94.1086 22.8104 94.513 22.7906 94.9295 22.7906ZM66.0197 13.9165C69.7549 13.9158 72.6399 14.5725 74.6746 15.8866C76.7093 17.2007 77.7267 19.0297 77.7267 21.3737C77.7265 21.8657 77.6897 22.357 77.6165 22.8435C77.4196 24.2844 76.8127 25.6384 75.8679 26.744C74.6309 28.1874 72.6604 29.1529 69.9566 29.6407L78.9199 39.9185C79.5204 40.6259 80.274 41.1873 81.1236 41.5602C81.9394 41.9264 82.823 42.1171 83.7173 42.12V43.6625H74.56L64.9741 31.917C64.3306 31.1443 63.7705 30.6228 63.2938 30.3525C62.8171 30.0821 62.3727 29.947 61.9606 29.947V37.532C61.9453 38.3155 62.0102 39.0986 62.1545 39.8689C62.2823 40.4742 62.5394 40.9443 62.9258 41.2793C63.3115 41.615 63.8716 41.8405 64.6061 41.9558C65.3407 42.0711 66.326 42.1288 67.5623 42.1288V43.6713H52.2183V42.1288C52.9114 42.1429 53.6041 42.085 54.2853 41.9558C54.8134 41.8375 55.2255 41.6172 55.5215 41.2947C55.8176 40.9722 56.017 40.5212 56.1198 39.9416C56.235 39.207 56.287 38.4639 56.2752 37.7204V19.8708C56.2868 19.1416 56.25 18.4124 56.165 17.6881C56.0871 17.1342 55.9197 16.6964 55.6626 16.3747C55.3808 16.0359 54.9923 15.8028 54.5607 15.7136C53.9321 15.5754 53.293 15.4903 52.6502 15.4591V13.9165H66.0197ZM114.963 22.8468L115.426 26.2008H115.657C116.739 24.9976 117.826 24.1389 118.918 23.6247C120.011 23.1105 121.277 22.8534 122.716 22.8534C124.413 22.8534 125.814 23.1472 126.92 23.7349C128 24.3019 128.875 25.1916 129.425 26.2801H129.58C130.492 25.2106 131.623 24.3493 132.896 23.7547C134.187 23.1497 135.597 22.8403 137.023 22.849C138.564 22.8505 139.907 23.0429 141.052 23.4264C142.196 23.8098 143.09 24.3607 143.732 25.0791C144.246 25.6704 144.626 26.4417 144.87 27.3929C145.114 28.3442 145.236 29.6682 145.236 31.365V37.2973C145.238 38.3506 145.27 39.1862 145.333 39.8039C145.395 40.4217 145.542 40.8973 145.773 41.2308C146.01 41.572 146.369 41.8088 146.776 41.8919C147.374 42.0142 147.981 42.089 148.591 42.1155V43.6581H136.406V42.1155C137.022 42.1092 137.635 42.0383 138.237 41.904C138.649 41.8122 139.017 41.5806 139.278 41.2484C139.523 40.9274 139.677 40.4837 139.741 39.9174C139.814 39.1484 139.847 38.376 139.838 37.6036V32.5528C139.852 31.4172 139.775 30.2823 139.606 29.1592C139.452 28.2344 139.208 27.4888 138.874 26.9225C138.57 26.387 138.104 25.9624 137.543 25.7105C136.99 25.4658 136.316 25.3435 135.519 25.3435C134.619 25.348 133.881 25.5683 133.302 26.0046C132.706 26.4623 132.213 27.0405 131.855 27.7015C131.187 28.9105 130.852 30.4145 130.852 32.2134V37.2951C130.852 38.3484 130.878 39.184 130.929 39.8017C130.981 40.4195 131.122 40.8951 131.354 41.2286C131.596 41.5733 131.962 41.8104 132.376 41.8897C132.994 42.0149 133.62 42.0923 134.249 42.1211V43.6636H122.026V42.1211C122.641 42.0908 123.253 42.0135 123.857 41.8897C124.265 41.8117 124.634 41.5935 124.898 41.2727C125.143 40.9649 125.297 40.5216 125.361 39.9427C125.434 39.1671 125.466 38.3881 125.458 37.6091V32.5583C125.472 31.4227 125.395 30.2878 125.226 29.1647C125.071 28.2399 124.821 27.4943 124.474 26.928C124.156 26.3904 123.677 25.9663 123.105 25.716C122.541 25.4714 121.833 25.3491 120.984 25.3491C120.135 25.3491 119.435 25.5547 118.883 25.9661C118.306 26.4069 117.837 26.9742 117.514 27.6243C117.161 28.2927 116.901 29.0064 116.742 29.7453C116.561 30.5555 116.471 31.3833 116.472 32.2134L116.473 37.4839C116.475 38.4794 116.501 39.2686 116.55 39.8513C116.601 40.4683 116.742 40.9377 116.974 41.2594C117.217 41.5889 117.575 41.8156 117.976 41.8952C118.573 42.02 119.18 42.0974 119.789 42.1266V43.6691H107.598V42.1266C108.22 42.0952 108.839 42.0179 109.449 41.8952C109.908 41.7916 110.256 41.5859 110.491 41.2782C110.726 40.9704 110.88 40.5271 110.953 39.9483C111.041 39.1736 111.08 38.3941 111.069 37.6146V32.8338C111.068 31.3683 111.049 30.1471 111.011 29.1702C110.972 28.1932 110.902 27.5248 110.799 27.1649C110.743 26.8883 110.646 26.6219 110.509 26.3749C110.38 26.1701 110.192 26.0089 109.969 25.9121C109.67 25.7824 109.351 25.7042 109.025 25.6807C108.639 25.6418 108.138 25.6223 107.521 25.6223V24.3111L114.963 22.8468ZM94.9339 25.0273C94.1844 25.0211 93.4486 25.2287 92.8129 25.6256C92.1445 26.0505 91.5837 26.6245 91.1744 27.3026C90.6898 28.1065 90.3382 28.9835 90.1332 29.8996C89.879 31.0063 89.7562 32.1391 89.7674 33.2745C89.7542 34.4413 89.877 35.6057 90.1332 36.7441C90.3349 37.6692 90.6867 38.555 91.1744 39.3665C91.5801 40.0415 92.1339 40.6153 92.7941 41.0446C93.4345 41.447 94.1777 41.6552 94.9339 41.644C95.7015 41.6523 96.4561 41.4454 97.1122 41.0468C97.7962 40.6198 98.3709 40.0387 98.7903 39.35C99.2881 38.5313 99.6526 37.6387 99.8701 36.7056C100.138 35.5837 100.267 34.4333 100.256 33.28C100.268 32.1499 100.138 31.0228 99.8701 29.9249C99.648 29.0064 99.2837 28.1283 98.7903 27.3224C98.3709 26.6337 97.7962 26.0526 97.1122 25.6256C96.4562 25.2266 95.7016 25.0194 94.9339 25.0273ZM160.484 25.0214L160.385 25.0218C159.281 25.0225 158.297 25.4791 157.435 26.3914C156.573 27.3037 156.014 28.4669 155.758 29.8809H161.349C162.377 29.8801 163.038 29.8221 163.332 29.7068C163.627 29.5911 163.776 29.3156 163.773 28.8782C163.772 27.7477 163.451 26.8222 162.809 26.1016C162.202 25.3987 161.313 25.0028 160.385 25.0218L160.484 25.0214ZM66.0197 16.0761H62.6603C62.1968 16.0761 61.965 16.2965 61.965 16.7372V27.6331H64.4772C66.8953 27.6331 68.7042 27.1612 69.9037 26.2173C70.852 25.4732 71.4246 24.3471 71.6214 22.8391C71.6758 22.4156 71.7023 21.989 71.7008 21.5621C71.7 19.913 71.1976 18.5864 70.1935 17.5823C69.1893 16.5782 67.7981 16.0761 66.0197 16.0761Z" fill="#27272A"/>
</svg>
