<svg width="104" height="160" viewBox="0 0 104 160" fill="none" xmlns="http://www.w3.org/2000/svg">
<path d="M96.7597 65.6473C96.7597 90.9866 76.6693 111.548 51.873 111.548C27.0767 111.548 6.98633 90.9866 6.98633 65.6473C6.98633 40.3081 27.0767 19.7471 51.873 19.7471C76.6693 19.7471 96.7597 40.3081 96.7597 65.6473Z" fill="#D33833"/>
<path d="M8.8334 77.014C8.8334 77.014 5.57549 29.1589 49.702 27.7834L46.6251 22.6431L22.6976 30.6793L15.856 38.5345L9.88317 49.9733L6.48047 63.2946L7.49404 72.1995" fill="#EF3D3A"/>
<path d="M21.1407 34.3355C13.2855 42.4079 8.39865 53.521 8.39865 65.8286C8.39865 78.1363 13.2855 89.2494 21.1407 97.3217C29.032 105.394 39.8555 110.353 51.8736 110.353C63.8916 110.353 74.7151 105.394 82.6065 97.3217C90.4617 89.2494 95.3485 78.1363 95.3485 65.8286C95.3485 53.521 90.4617 42.4079 82.6065 34.3355C74.7151 26.2994 63.8916 21.3039 51.8736 21.3039C39.8917 21.3039 29.032 26.2632 21.1407 34.3355ZM19.1497 99.2403C10.7878 90.6973 5.61133 78.8603 5.61133 65.8286C5.61133 52.797 10.7878 40.96 19.1497 32.3808C27.5117 23.8378 39.0954 18.5166 51.8736 18.5166C64.6518 18.5166 76.2355 23.8378 84.5974 32.3808C92.9594 40.9238 98.1358 52.7608 98.1358 65.8286C98.1358 78.8603 92.9594 90.6973 84.5974 99.2403C76.2355 107.819 64.6518 113.104 51.8736 113.104C39.0954 113.104 27.5117 107.819 19.1497 99.2403Z" fill="#231F20"/>
<path d="M70.7697 65.9009L63.9281 66.9144L54.6974 67.9642L48.7246 68.109L42.8965 67.928L38.4441 66.5525L34.4984 62.281L31.4215 53.557L30.7337 51.6747L26.6432 50.2991L24.2541 46.3534L22.5527 40.7064L24.4351 35.7471L28.8876 34.1906L32.4712 35.8919L34.1726 39.6566L36.2359 39.3308L36.9237 38.4621L36.2359 34.5164L36.0549 29.5571L37.0685 22.7155L37.0323 18.806L40.1454 13.8106L45.6115 9.8649L55.168 5.77441L65.7743 7.33097L75.005 13.9916L79.2765 20.8332L82.0276 25.7924L82.7154 38.1001L80.6521 48.7064L76.8874 58.1181L73.3399 63.1498" fill="#F0D6B7"/>
<path d="M64.9778 95.4755L40.5435 96.489V100.58L42.6069 114.95L41.5933 116.145L24.5074 110.317L23.3128 108.254L21.6115 88.9234L17.5934 77.3398L16.7246 74.5887L30.4078 65.1769L34.6793 63.4756L38.444 68.1091L41.7019 71.005L45.4666 72.1995L47.1679 72.7063L49.2313 81.6113L50.7878 83.4936L54.7335 82.118L51.9824 87.4393L66.824 94.4619L64.9778 95.4755Z" fill="#335061"/>
<path d="M24.4348 35.8194L28.8873 34.2629L32.471 35.9642L34.1724 39.7289L36.2357 39.4031L36.7425 37.3398L35.7289 33.3941L36.7425 23.9824L35.8737 18.8421L38.9506 15.2584L45.6112 9.97338L43.7289 7.40326L34.3172 12.0367L30.3715 15.1136L28.1633 19.8919L24.7606 24.5254L23.7471 29.9914L24.4348 35.8194Z" fill="#6D6B6D"/>
<path d="M31.4574 19.7471C31.4574 19.7471 34.0275 13.4122 44.2718 10.3353C54.5161 7.25842 44.7786 8.1272 44.7786 8.1272L33.6655 12.3987L29.3941 16.6701L27.5117 20.0729L31.4574 19.7471Z" fill="#DCD9D8"/>
<path d="M26.3172 34.625C26.3172 34.625 22.7335 22.6431 36.4167 20.9418L35.9099 18.8784L26.4982 21.0866L23.7471 29.9915L24.4348 35.8195L26.3172 34.625Z" fill="#DCD9D8"/>
<path d="M31.7832 50.5162L34.0275 48.3442C34.0275 48.3442 35.0411 48.4528 35.2221 49.6474C35.4031 50.842 35.9099 61.6293 43.2583 67.4211C43.946 67.9641 37.7922 66.5523 37.7922 66.5523L32.3262 58.0094" fill="#F7E4CD"/>
<path d="M63.2404 47.2586C63.2404 47.2586 63.6386 42.0822 65.0503 42.4803C66.4621 42.8785 66.4621 44.2903 66.4621 44.2903C66.4621 44.2903 63.0594 46.4622 63.2404 47.2586Z" fill="#F7E4CD"/>
<path d="M77.4305 28.2901C77.4305 28.2901 74.607 28.8693 74.3536 31.367C74.1002 33.8647 77.4305 31.8738 77.9373 31.6928" fill="#F7E4CD"/>
<path d="M56.7608 28.4711C56.7608 28.4711 52.9961 28.9779 52.9961 31.367C52.9961 33.7561 57.2676 33.5751 58.4621 32.5616" fill="#F7E4CD"/>
<path d="M33.5203 39.5841C33.5203 39.5841 27.0407 35.6385 26.3529 39.4031C25.6651 43.1678 24.1448 45.8828 27.3665 49.8284L25.1583 49.1407L23.095 43.8556L22.4072 38.7154L26.3529 34.6249L30.8054 34.9507L33.3755 37.014L33.5203 39.5841Z" fill="#F7E4CD"/>
<path d="M36.5973 28.7967C36.5973 28.7967 39.4932 13.738 54.19 10.8421C66.2804 8.45294 72.6514 11.3489 75.0406 14.1C75.0406 14.1 64.2533 1.28554 54.009 5.19503C43.7647 9.14072 36.2353 16.3081 36.4163 20.9054C36.7059 28.7967 36.5973 28.7967 36.5973 28.7967Z" fill="#F7E4CD"/>
<path d="M76.236 15.8013C76.236 15.8013 71.2767 15.6203 71.0957 20.0728C71.0957 20.0728 71.0957 20.7606 71.4215 21.4484C71.4215 21.4484 75.3672 16.9959 77.7563 19.385" fill="#F7E4CD"/>
<path d="M54.5527 21.9193C54.5527 21.9193 53.6839 15.1139 47.8921 19.0596C44.1274 21.6297 44.4894 25.2134 45.141 25.9012C45.8287 26.589 45.6478 27.9645 46.1545 27.0234C46.6613 26.0822 46.5165 23.0053 48.3989 22.1365C50.245 21.2677 53.3581 20.3266 54.5527 21.9193Z" fill="#F7E4CD"/>
<path d="M38.4801 68.1088L22.4078 75.2762C22.4078 75.2762 29.0684 101.774 25.6657 109.991L23.2766 109.122L23.0956 99.0227L18.6431 79.9097L16.7607 74.6246L33.5209 63.3306L38.4801 68.1088Z" fill="#49728B"/>
<path d="M40.1088 82.7696L42.3893 85.5569V95.8012H39.6744C39.6744 95.8012 39.3486 88.6338 39.3486 87.765C39.3486 86.8963 39.6744 83.8194 39.6744 83.8194" fill="#49728B"/>
<path d="M40.1811 97.3579L32.4707 97.6837L34.6788 99.2403L40.1449 100.109" fill="#49728B"/>
<path d="M66.498 95.6561L72.8329 95.4751L74.3894 111.185L67.9098 112.054L66.498 95.6561Z" fill="#335061"/>
<path d="M68.1992 95.6562L77.7557 95.1494C77.7557 95.1494 81.7014 85.2309 81.7014 84.7241C81.7014 84.2173 85.1041 70.3531 85.1041 70.3531L77.3938 62.317L75.8372 60.9414L71.7467 65.0319V80.9232L68.1992 95.6562Z" fill="#335061"/>
<path d="M72.4709 94.4619L66.498 95.6565L67.3668 100.435C69.575 101.448 73.3396 98.7334 73.3396 98.7334" fill="#49728B"/>
<path d="M72.6523 64.5255L84.6342 73.4305L84.96 69.34L75.9103 60.978L72.6523 64.5255Z" fill="#49728B"/>
<path d="M46.1177 129.321L42.5702 114.95L40.7964 104.344L40.5068 96.489L56.543 95.6202H66.4977L65.5927 113.575L67.1493 127.439L66.9683 130.009L53.9728 131.023L46.1177 129.321Z" fill="white"/>
<path d="M64.2895 95.4755C64.2895 95.4755 63.4207 113.249 65.9909 125.919C65.9909 125.919 60.8506 129.177 53.3574 130.009L67.7284 129.503L69.4298 128.489L67.3664 100.471L66.8234 94.4619" fill="#DCD9D8"/>
<path d="M74.643 109.846L81.3036 107.964L93.937 107.276L95.8193 101.448L92.4166 91.3487L88.471 90.8419L83.0049 92.5433L77.7923 95.1134L75.0049 94.6066L72.833 95.4754" fill="white"/>
<path d="M74.5342 106.407C74.5342 106.407 78.9867 104.344 79.6744 104.525L77.7921 95.1134L80.0002 94.2446C80.0002 94.2446 81.5568 103.15 81.5568 104.163C81.5568 104.163 91.1133 104.67 91.9821 104.67C91.9821 104.67 94.0454 100.724 93.5386 96.6338L95.421 102.1L95.602 105.177L92.8509 109.267L89.7739 109.955L84.6337 109.774L82.9323 107.566L76.9595 108.435L75.0772 109.122" fill="#DCD9D8"/>
<path d="M67.8012 94.2807L64.0365 84.7242L60.0908 79.0771C60.0908 79.0771 60.9596 76.688 62.1542 76.688H66.0998L69.8645 78.0635L69.5387 84.3984L67.8012 94.2807Z" fill="white"/>
<path d="M68.5609 91.0229C68.5609 91.0229 63.7826 81.7922 63.7826 80.4167C63.7826 80.4167 64.6514 78.3533 65.8459 78.8601C67.0405 79.3669 69.6106 80.7424 69.6106 80.7424V77.4845L63.7826 76.29L59.8369 76.7968L66.4975 92.5795L67.8731 92.7605" fill="#DCD9D8"/>
<path d="M47.6379 68.4712L42.8958 67.9644L38.4434 66.5889V68.1454L40.6153 70.5346L47.4569 73.6115" fill="white"/>
<path d="M39.9999 68.978C39.9999 68.978 45.2849 71.1862 47.0225 70.6794L47.2035 72.7427L42.4252 71.7291L39.5293 69.6658L39.9999 68.978Z" fill="#DCD9D8"/>
<path d="M74.6425 77.2675C71.7466 77.1951 69.1041 76.8331 66.8235 76.1815C66.9683 75.2403 66.6787 74.3353 66.9321 73.6476C67.5837 73.177 68.6335 73.177 69.6108 73.0684C68.7783 72.6702 67.5837 72.4892 66.6425 72.7426C66.6063 72.091 66.3167 71.6928 66.1357 71.186C67.7647 70.6069 71.6018 66.806 73.7737 68.0367C74.8235 68.6521 75.2579 72.0548 75.3303 73.7562C75.4027 75.1317 75.1855 76.5073 74.6425 77.2675Z" fill="#D33833"/>
<path d="M74.6425 77.2675C71.7466 77.1951 69.1041 76.8331 66.8235 76.1815C66.9683 75.2403 66.6787 74.3353 66.9321 73.6476C67.5837 73.177 68.6335 73.177 69.6108 73.0684C68.7783 72.6702 67.5837 72.4892 66.6425 72.7426C66.6063 72.091 66.3167 71.6928 66.1357 71.186C67.7647 70.6069 71.6018 66.806 73.7737 68.0367C74.8235 68.6521 75.2579 72.0548 75.3303 73.7562C75.4027 75.1317 75.1855 76.5073 74.6425 77.2675Z" fill="black" stroke="#D33833" stroke-width="2"/>
<path d="M60.7789 72.5254C60.7789 72.7425 60.7789 72.9597 60.7427 73.1769C59.8377 73.7561 58.3898 73.7561 57.3762 74.2629C58.8242 74.3353 59.9825 74.6973 60.9961 75.1679C60.9599 75.7109 60.9599 76.29 60.9237 76.833C59.2586 77.9552 57.7382 79.6565 55.7835 80.7425C54.8423 81.2493 51.6206 82.5525 50.6432 82.2991C50.1002 82.1543 50.0278 81.4665 49.8106 80.8149C49.34 79.4394 48.2541 77.195 48.1455 75.0955C48.0369 72.453 47.7473 68.0005 50.607 68.5435C52.9237 68.9779 55.6025 70.0276 57.3762 71.005C58.4984 71.6566 59.1138 72.3806 60.7789 72.5254Z" fill="#D33833"/>
<path d="M60.7789 72.5254C60.7789 72.7425 60.7789 72.9597 60.7427 73.1769C59.8377 73.7561 58.3898 73.7561 57.3762 74.2629C58.8242 74.3353 59.9825 74.6973 60.9961 75.1679C60.9599 75.7109 60.9599 76.29 60.9237 76.833C59.2586 77.9552 57.7382 79.6565 55.7835 80.7425C54.8423 81.2493 51.6206 82.5525 50.6432 82.2991C50.1002 82.1543 50.0278 81.4665 49.8106 80.8149C49.34 79.4394 48.2541 77.195 48.1455 75.0955C48.0369 72.453 47.7473 68.0005 50.607 68.5435C52.9237 68.9779 55.6025 70.0276 57.3762 71.005C58.4984 71.6566 59.1138 72.3806 60.7789 72.5254Z" fill="black" stroke="#D33833" stroke-width="2"/>
<path d="M62.4071 75.6743C62.1537 74.2264 61.8641 73.8282 61.9727 72.5612C65.846 69.9911 66.5337 76.9775 62.4071 75.6743Z" fill="#D33833"/>
<path d="M62.4071 75.6743C62.1537 74.2264 61.8641 73.8282 61.9727 72.5612C65.846 69.9911 66.5337 76.9775 62.4071 75.6743Z" fill="black"/>
<path fill-rule="evenodd" clip-rule="evenodd" d="M62.3238 72.7703C62.2949 73.2663 62.3365 73.6103 62.412 73.9762C62.44 74.1123 62.476 74.2633 62.5161 74.4322C62.58 74.7007 62.6547 75.0146 62.7256 75.3858C63.5445 75.5931 64.0647 75.405 64.3744 75.1114C64.728 74.7763 64.8885 74.2291 64.8278 73.6829C64.767 73.1354 64.495 72.6749 64.0919 72.4727C63.727 72.2897 63.1484 72.2673 62.3238 72.7703ZM64.8763 75.641C64.3009 76.1864 63.421 76.3769 62.2978 76.0222L62.0865 75.9555L62.0483 75.7372C61.9679 75.2778 61.8889 74.9481 61.8166 74.646C61.7742 74.4692 61.7341 74.3018 61.6974 74.1235C61.6005 73.6539 61.5521 73.2022 61.6097 72.53L61.6248 72.3546L61.7715 72.2572C62.8039 71.5722 63.7161 71.468 64.419 71.8205C65.1053 72.1647 65.4736 72.8874 65.553 73.6024C65.6326 74.3186 65.4334 75.113 64.8763 75.641Z" fill="#D33833"/>
<path d="M67.9818 76.8328C67.9818 76.8328 66.7873 75.1315 67.656 74.6247C68.5248 74.1179 69.3574 74.6247 69.8642 73.7559C70.371 72.8871 69.8642 72.3803 70.0452 71.3668C70.2262 70.3532 71.0588 70.1722 71.9275 69.9912C72.7963 69.8102 75.1854 69.4844 75.5112 70.317L74.4977 67.2401L72.4343 66.5523L65.9547 70.317L65.6289 72.1993V75.964" fill="#EF3D3A"/>
<path d="M50.0271 82.4799C49.8099 79.8011 49.5927 77.1586 49.3755 74.4799C49.0135 70.498 50.3167 71.1858 53.7918 71.1858C54.3347 71.1858 57.0497 71.8012 57.2307 72.1994C58.1718 74.1179 55.6741 73.6835 58.3166 75.1315C60.5248 76.326 64.4705 74.4075 63.5655 71.6926C63.0587 71.0772 60.9592 71.5116 60.199 71.1134C58.8596 70.4256 57.5203 69.7378 56.1809 69.0501C54.4795 68.1813 50.5701 66.8781 48.7601 68.1089C44.1628 71.222 49.0497 79.041 50.6787 82.2989" fill="#EF3D3A"/>
<path d="M54.5526 21.9194C49.8829 20.8334 47.5662 23.8741 46.1545 27.0234C44.8875 26.7339 45.3943 24.9963 45.7201 24.1275C46.5526 21.847 49.9191 18.7701 52.6703 19.2045C53.8286 19.3493 55.4214 20.4352 54.5526 21.9194Z" fill="#231F20"/>
<path d="M77.2494 27.2044H77.4665C78.5163 29.3764 79.4213 31.6931 80.7607 33.6479C79.8557 35.7474 74.0276 37.5573 74.1 33.865C75.367 33.3221 77.5389 33.7565 78.6611 33.0325C78.0095 31.2587 77.1046 29.7384 77.2494 27.2044Z" fill="#231F20"/>
<path d="M56.9055 27.2768C57.9191 29.123 58.2449 31.0415 59.6567 32.4171C60.3082 33.0325 61.539 33.7927 60.9236 35.5302C60.7788 35.9284 59.7291 36.8334 59.1137 37.0144C56.9055 37.6659 51.7291 37.1592 53.4666 34.3718C55.3128 34.4442 57.7743 35.5664 59.1499 34.227C58.1001 32.5619 56.2178 29.2316 56.9055 27.2768Z" fill="#231F20"/>
<path d="M76.4168 45.8831C73.0865 48.0189 69.358 50.3718 63.8557 49.8288C62.6974 48.8153 62.2268 46.5347 63.3851 45.0506C63.9643 46.0641 63.6023 47.9465 65.2675 48.2361C68.3806 48.7791 72.0005 46.3175 74.2448 45.4849C75.6204 43.132 74.1362 42.2994 72.8693 40.7791C70.2991 37.7022 66.8964 33.8651 67.005 29.2678C68.0548 28.5076 68.1272 30.4262 68.272 30.752C69.6114 33.8651 72.9779 37.8832 75.4032 40.5619C76.0186 41.2135 76.9959 41.8651 77.1045 42.2994C77.4303 43.5302 76.272 45.0506 76.4168 45.8831Z" fill="#231F20"/>
<path d="M32.3264 43.6388C31.2767 43.0235 31.0233 40.4171 29.7925 40.3447C28.0187 40.2361 28.3445 43.7474 28.3445 45.8108C27.15 44.7248 26.9328 41.3221 27.8016 39.5846C26.788 39.0778 26.3536 40.1275 25.7744 40.4895C26.5346 35.2407 33.4848 38.0642 32.3264 43.6388Z" fill="#231F20"/>
<path d="M78.5163 48.0913C76.9597 51.0597 74.7516 54.3176 70.1905 54.4262C70.0819 53.485 70.0095 52.0008 70.1905 51.4216C73.7018 51.0597 75.8738 49.2859 78.5163 48.0913Z" fill="#231F20"/>
<path d="M56.6521 50.0099C59.548 51.5302 64.9055 51.7112 68.8873 51.6026C69.1045 52.4714 69.1045 53.5574 69.1045 54.6072C64.0005 54.8243 57.9915 53.5574 56.6521 50.0099Z" fill="#231F20"/>
<path d="M56.1091 52.8334C58.1363 57.9013 65.0503 57.3221 70.8783 57.1773C70.6249 57.8289 70.0819 58.6252 69.3579 58.8786C67.4756 59.6388 62.3353 60.218 59.729 58.8424C58.1001 57.9737 57.0141 55.9827 56.1091 54.8243C55.7109 54.2814 53.539 52.8696 56.1091 52.8334Z" fill="#231F20"/>
<path d="M88.8694 95.2944C86.2269 95.8374 84.3807 98.4075 81.7744 98.2265C83.2224 96.2355 85.6839 95.3668 88.8694 95.2944Z" fill="#231F20"/>
<path d="M90.0278 99.4211C87.8558 99.6382 85.3219 100 83.15 99.8192C84.1997 98.2265 88.1816 98.8057 90.0278 99.4211Z" fill="#231F20"/>
<path d="M90.788 103.005C88.3626 103.041 85.3581 103.005 83.0414 102.824C84.4169 101.34 89.2314 102.281 90.788 103.005Z" fill="#231F20"/>
<path d="M71.602 112.779C71.964 115.819 73.1586 118.896 73.0138 122.226C71.6744 122.661 70.9142 123.059 69.1043 123.059C68.9957 120.236 68.5975 115.892 68.7061 113.177C69.5749 113.249 70.878 112.561 71.602 112.779Z" fill="#DCD9D8"/>
<path d="M67.6928 67.8916C66.4621 68.688 65.4485 69.6653 64.2539 70.5341C61.6476 70.6789 60.2359 70.3531 58.3535 68.869C58.3897 68.7604 58.5707 68.7966 58.5707 68.6518C61.358 69.8825 64.9055 68.145 67.6928 67.8916Z" fill="#F0D6B7"/>
<path d="M76.1632 80.7427C73.8102 84.797 71.5297 88.9598 68.7424 92.5073C69.9007 89.0684 70.4075 83.2766 70.5885 78.8603C73.0501 77.702 75.1496 79.1137 76.1632 80.7427Z" fill="#81B0C4"/>
<path d="M53.1406 86.824C53.9008 83.5299 56.9053 81.7924 59.6202 79.9824C62.4076 83.5299 64.1089 88.091 65.9912 92.5073C61.5388 91.1679 57.0139 89.0322 53.1406 86.824Z" fill="#81B0C4"/>
<path d="M68.706 113.213C68.5974 115.928 68.9594 120.235 69.1042 123.095C70.9141 123.095 71.6743 122.697 73.0137 122.263C73.1585 118.932 71.9639 115.855 71.6019 112.815C70.8779 112.561 69.5748 113.249 68.706 113.213ZM40.7604 97.8645C41.955 108.76 43.6563 117.883 46.8056 127.548C53.792 129.683 62.1902 129.864 68.3802 127.946C67.258 122.516 67.7286 115.892 67.077 110.064C66.5702 105.683 66.8236 101.303 66.1359 96.8509C58.6427 95.2944 48.0726 96.4889 40.7604 97.8645ZM67.9096 96.9233C67.8372 101.593 68.1268 106.226 68.4888 110.896C70.2987 110.643 71.4933 110.462 73.1585 110.064C72.6155 105.575 72.6879 100.471 71.5657 96.4889C70.2987 96.5251 69.1766 96.4889 67.9096 96.9233ZM76.9956 96.1631C76.1268 95.9821 75.1494 96.1631 74.353 96.1631C74.7512 99.964 75.6562 104.163 75.982 108.181C77.2489 108.217 77.9367 107.602 78.9865 107.421C79.0589 103.91 78.6969 99.0591 76.9956 96.1631ZM90.7873 108.76C93.4661 108.109 95.1312 104.851 94.371 101.484C93.8643 99.2401 92.9955 94.9686 92.0181 93.5206C91.3303 92.4708 89.4118 91.0591 87.8552 92.0365C85.3575 93.6292 80.9774 94.0998 79.1675 96.0183C80.0725 99.0591 80.3621 103.186 80.724 107.023C83.8372 107.204 87.638 106.154 90.2444 107.276C88.4344 107.855 86.1177 107.855 84.5611 108.724C85.8643 109.34 88.8326 109.231 90.7873 108.76ZM65.9549 92.507C64.0725 88.0908 62.3712 83.5297 59.5839 79.9822C56.8689 81.7922 53.9006 83.5297 53.1042 86.8238C57.0137 89.032 61.5386 91.1677 65.9549 92.507ZM70.5883 78.86C70.4073 83.2763 69.9006 89.0682 68.7422 92.507C71.5295 88.9234 73.81 84.7967 76.163 80.7424C75.1494 79.1134 73.0499 77.7017 70.5883 78.86ZM65.3395 77.0139C64.2897 76.9053 63.3847 78.2447 62.0092 77.6655C61.6834 78.0275 61.3938 78.3895 61.068 78.7514C64.1087 82.4437 65.5205 87.6564 67.8734 91.9641C69.1404 87.8012 68.9956 83.2763 69.2852 78.7514C67.5476 78.8238 66.5703 77.1225 65.3395 77.0139ZM61.973 72.5614C61.8644 73.8284 62.154 74.2266 62.4074 75.6745C66.534 76.9777 65.8463 69.9913 61.973 72.5614ZM57.3757 71.0411C55.602 70.0637 52.9232 69.0139 50.6065 68.5795C47.7468 68.0366 48.0364 72.489 48.145 75.1316C48.2536 77.2311 49.3396 79.4392 49.8101 80.851C50.0273 81.5026 50.0997 82.1904 50.6427 82.3351C51.6201 82.5523 54.878 81.2854 55.783 80.7786C57.7377 79.7288 59.2581 78.0275 60.9232 76.8691C60.9594 76.3261 60.9594 75.7469 60.9956 75.204C59.982 74.6972 58.8599 74.3714 57.3757 74.299C58.3531 73.7922 59.8372 73.7922 60.7422 73.213C60.7422 72.9958 60.7422 72.7786 60.7784 72.5614C59.1133 72.3804 58.4979 71.6565 57.3757 71.0411ZM40.3622 67.9642C38.8781 69.4845 44.5251 71.5117 46.2988 71.6203C46.2988 70.6791 46.8418 69.7741 46.7332 69.0863C44.5975 68.7243 41.8102 68.9777 40.3622 67.9642ZM58.6065 68.6519C58.6065 68.7967 58.4255 68.7605 58.3893 68.8691C60.3078 70.3533 61.7196 70.6791 64.2897 70.5343C65.4481 69.7017 66.4979 68.6881 67.7286 67.8918C64.9051 68.1452 61.3576 69.8827 58.6065 68.6519ZM75.3304 73.7198C75.258 72.0546 74.8236 68.6157 73.7738 68.0004C71.6019 66.7334 67.7648 70.5705 66.1359 71.1497C66.3169 71.6565 66.6064 72.0546 66.6427 72.7062C67.62 72.4528 68.7784 72.6338 69.611 73.032C68.6336 73.1406 67.5838 73.1406 66.9322 73.6112C66.715 74.299 67.0046 75.204 66.8236 76.1451C69.1042 76.7967 71.7467 77.1225 74.6426 77.2311C75.1856 76.5071 75.4028 75.1316 75.3304 73.7198ZM37.8645 69.4121C37.3939 69.0863 34.2446 64.9958 33.8102 65.1768C28.127 67.4212 22.8057 71.2945 18.0637 74.9868C22.5885 84.7243 24.4347 96.6337 24.7605 108.109C29.9369 110.534 34.498 114.045 41.5568 114.407C40.7242 108.652 40.0002 103.475 39.5296 98.0455C37.7559 97.2853 35.222 98.0817 33.5568 97.8283C33.5568 95.8374 36.0907 96.9595 36.3079 95.6202C36.4527 94.6066 34.8962 94.5342 35.403 92.9414C36.7061 93.412 37.3939 94.4618 38.7695 94.86C40.0364 92.1089 38.7695 87.222 38.9505 84.9053C38.9866 84.4709 39.1676 82.5161 40.145 82.8419C41.0138 83.1315 40.1088 88.0908 40.1812 90.2627C40.2536 92.2899 39.9278 94.2084 40.7604 95.4754C47.5658 94.5342 54.4798 93.955 61.8644 93.7378C60.2354 93.05 58.3169 92.3985 56.2174 91.2039C55.059 90.5523 51.4753 89.2129 51.1495 88.127C50.6065 86.3894 52.5251 85.4845 52.8508 84.0003C49.4119 85.8826 48.7604 82.1903 47.9278 79.6202C47.2038 77.2673 46.7694 75.4935 46.5884 74.1542C43.5839 72.6338 40.3984 71.2221 37.8645 69.4121ZM72.3259 65.6474C77.0679 63.3669 77.9367 74.2266 76.0544 77.7379C76.344 78.7877 77.3213 79.1858 77.7195 80.127C75.077 84.8691 72.1449 89.2853 69.43 93.955C71.4209 92.688 74.3168 93.7378 76.6698 92.7966C77.5385 92.4708 78.1539 90.4799 78.8055 88.8872C80.6154 84.5433 82.4978 79.041 83.3304 74.9144C83.5114 73.9732 84.0543 71.9099 83.9095 71.0773C83.6924 69.5569 81.6652 68.4347 80.6154 67.5298C78.6969 65.7922 77.5023 64.3081 75.4752 62.6791C74.715 63.8737 72.9775 64.6701 72.3259 65.6474ZM27.041 23.6204C24.7967 26.1182 25.2672 30.7516 25.5206 34.0819C29.6111 31.5118 35.0048 34.2991 34.9686 38.643C36.9233 38.6068 35.6925 36.2177 35.3306 34.6611C34.1722 29.6295 37.2853 24.1996 35.4754 19.6024C31.9641 19.892 29.1043 21.3037 27.041 23.6204ZM43.1857 9.17706C38.0817 10.625 31.5297 14.3535 29.4301 18.9508C31.0591 18.6974 32.1812 17.901 33.774 17.7924C34.3894 17.7562 35.1858 18.0458 35.8735 17.8648C37.2491 17.5028 38.4437 14.3897 39.4934 13.2313C40.507 12.1092 41.7378 11.6024 42.5703 10.5888C43.1133 10.3354 43.9097 10.3354 43.9459 9.53905C43.7287 9.28566 43.4753 9.10467 43.1857 9.17706ZM69.792 10.5526C64.4707 7.54811 55.4934 5.30378 49.8463 8.12729C45.2853 10.4078 39.1314 14.1725 37.0319 18.9146C38.9867 23.5118 36.4527 27.7109 36.2717 32.3806C36.1993 34.8783 37.4301 37.0141 37.5387 39.729C36.8509 40.8511 34.8238 40.9597 33.412 40.8873C32.9414 38.4982 32.1089 35.8195 29.6473 35.5299C26.1722 35.1317 23.6021 38.0276 23.4573 41.0321C23.2763 44.5796 26.1722 50.4439 30.2989 50.0457C31.8917 49.9009 32.2898 48.3081 34.0274 48.3081C34.9686 50.1905 32.5794 50.7697 32.326 52.109C32.2536 52.471 32.507 53.8104 32.688 54.462C33.4482 57.5389 35.1134 61.5569 36.7423 63.9099C38.8419 66.9144 42.9323 67.3488 47.3486 67.6384C48.145 65.937 51.0409 66.0818 52.9232 66.5162C50.6427 65.6112 48.5432 63.4393 46.8056 61.5208C44.8147 59.3126 42.7875 56.9597 42.6789 54.0638C46.4798 59.3126 49.5929 63.9099 56.4707 66.2266C61.6834 67.9642 67.7648 65.4302 71.7829 62.6067C73.4481 61.4484 74.4254 59.566 75.62 57.9009C80.0363 51.5298 82.0996 42.4801 81.6652 33.6838C81.4842 30.0639 81.4842 26.444 80.2535 24.0186C78.9865 21.4847 74.6788 19.168 72.1449 21.4847C71.6743 18.987 74.2444 17.4666 77.2489 18.3716C75.1132 15.5843 72.8689 12.2902 69.792 10.5526ZM79.7105 92.3985C83.8733 90.3351 91.6199 86.86 94.19 92.3985C95.1674 94.4618 96.2896 97.9007 96.7602 100.036C97.448 103.005 96 109.303 92.9231 110.281C90.2082 111.15 87.0589 111.113 83.8009 110.462C83.4028 110.136 83.0046 109.593 82.6788 109.014C80.3621 108.941 78.1539 109.122 76.344 110.1C76.525 111.837 75.3666 112.091 74.2444 112.453C73.4481 115.674 75.8734 119.873 75.2942 122.769C74.896 124.869 72.3259 125.195 70.4435 125.557C70.3711 126.715 70.5159 127.692 70.6607 128.67C70.2263 130.263 68.3078 131.168 66.4617 131.385C60.4164 132.109 51.2581 132.434 45.4663 130.335C43.8373 126.353 42.5703 121.539 41.231 117.014C35.584 117.629 30.9867 114.588 26.679 112.561C25.1948 111.873 23.1315 111.475 22.5523 110.281C22.0093 109.122 22.2265 106.914 22.0817 104.851C21.7559 99.5296 21.4302 94.3894 20.0546 88.9596C19.4392 86.498 18.317 84.3623 17.5569 82.0094C16.8329 79.8374 15.6021 77.1225 15.2763 74.9506C14.8057 71.7289 17.8465 71.5479 19.765 70.1361C22.7695 67.9642 25.1225 66.7696 28.3804 64.8149C29.3577 64.2357 32.2536 62.7877 32.5794 62.0999C33.231 60.7606 31.4573 58.8782 30.9867 57.8285C30.2265 56.1633 29.8283 54.7515 29.7197 53.1226C27.0048 52.6882 24.9053 51.0592 23.6745 49.2493C21.6112 46.2086 20.1632 40.5978 21.9731 36.3625C22.1179 36.0367 22.8057 35.3489 22.9143 34.8421C23.1315 33.8285 22.5161 32.4892 22.4799 31.4032C22.2989 25.8648 23.4211 21.0865 27.1496 19.4214C28.6699 13.3761 34.0998 11.3852 39.2038 8.38069C41.1224 7.25852 43.2219 6.53454 45.3939 5.73816C53.1766 2.87845 65.1585 3.42143 71.6381 8.30829C74.3892 10.3716 78.7693 14.7517 80.3259 17.9372C84.4887 26.2992 84.1629 40.3082 81.267 50.5163C80.8688 51.8918 80.3259 53.8828 79.5295 55.5479C78.9865 56.7063 77.2851 58.9868 77.4661 60.0004C77.6833 61.0502 81.3756 63.8375 82.172 64.5977C83.5838 65.9732 86.2987 67.7832 86.5159 69.5207C86.7693 71.3669 85.7195 73.9008 85.1765 75.6745C83.439 81.6112 81.7014 87.0772 79.7105 92.3985Z" fill="#231F20"/>
<path d="M52.0186 51.2764C52.2358 50.9868 53.4666 50.5162 55.2041 51.3488C55.2041 51.3488 53.1408 51.6746 53.3218 55.1135L52.453 54.9325C52.4892 54.9687 51.5842 51.8555 52.0186 51.2764Z" fill="#F7E4CD"/>
<path d="M67.0044 80.6702C67.0044 81.177 66.57 81.6113 66.0632 81.6113C65.5565 81.6113 65.1221 81.177 65.1221 80.6702C65.1221 80.1634 65.5565 79.729 66.0632 79.729C66.6062 79.729 67.0044 80.1634 67.0044 80.6702Z" fill="#1D1919"/>
<path d="M67.9456 85.0502C67.9456 85.557 67.5112 85.9914 67.0044 85.9914C66.4976 85.9914 66.0632 85.557 66.0632 85.0502C66.0632 84.5435 66.4976 84.1091 67.0044 84.1091C67.5474 84.1091 67.9456 84.5073 67.9456 85.0502Z" fill="#1D1919"/>
<path d="M18.6429 140.434C18.3533 140.471 18.0999 140.507 17.8827 140.543C17.6655 140.579 17.4483 140.615 17.1587 140.688C16.8329 140.76 16.6519 140.905 16.5795 141.122C16.5071 141.339 16.4347 141.557 16.4347 141.846V150.679C16.4347 151.475 16.2538 152.235 15.928 152.923C15.6022 153.611 15.1678 154.154 14.5886 154.624C14.0094 155.059 13.3578 155.421 12.6339 155.638C11.9099 155.855 11.1497 156 10.3533 156C8.94157 156 7.8194 155.674 6.95062 154.986C6.08185 154.299 5.64746 153.394 5.64746 152.199C5.64746 151.511 5.82846 150.932 6.22664 150.462C6.62483 149.991 7.16782 149.774 7.8556 149.774C8.50718 149.774 9.01396 149.955 9.41215 150.353C9.81034 150.751 9.99133 151.222 9.99133 151.765C9.99133 152.235 9.81034 152.706 9.48455 153.104C9.15876 153.502 8.76057 153.9 8.32618 154.226V154.371C8.39858 154.516 8.54338 154.661 8.76057 154.769C8.97776 154.878 9.23116 154.914 9.44835 154.914C10.3533 154.914 11.0773 154.588 11.5841 153.937C12.0909 153.285 12.3443 152.308 12.3443 151.005V141.955C12.3443 141.701 12.3081 141.448 12.2357 141.267C12.1633 141.086 11.9461 140.941 11.6203 140.796C11.4031 140.688 11.1135 140.615 10.7877 140.543C10.4619 140.471 10.2085 140.434 9.99133 140.398V139.53H18.5343V140.434H18.6429Z" fill="#231F20"/>
<path d="M32.0365 152.887C31.7831 153.321 31.4573 153.719 31.0953 154.118C30.7333 154.516 30.2989 154.805 29.8284 155.095C29.3216 155.385 28.8148 155.602 28.308 155.747C27.8012 155.891 27.1858 155.964 26.5343 155.964C25.4121 155.964 24.4709 155.819 23.6383 155.493C22.842 155.167 22.1542 154.769 21.6474 154.226C21.1044 153.683 20.7424 153.068 20.4528 152.344C20.1994 151.62 20.0546 150.824 20.0546 149.991C20.0546 149.231 20.1994 148.471 20.489 147.783C20.7786 147.095 21.1768 146.444 21.6836 145.901C22.1904 145.358 22.842 144.923 23.6383 144.597C24.4347 144.272 25.3035 144.091 26.2447 144.091C27.2944 144.091 28.1632 144.235 28.851 144.489C29.5388 144.742 30.0818 145.104 30.5161 145.539C30.9505 145.973 31.2401 146.48 31.4573 147.059C31.6383 147.638 31.7469 148.253 31.7469 148.905V149.629H24.1089C24.1089 151.186 24.3985 152.344 25.0139 153.14C25.5931 153.937 26.5705 154.335 27.8374 154.335C28.5614 154.335 29.1768 154.154 29.756 153.756C30.3351 153.358 30.8057 152.887 31.2039 152.272L32.0365 152.887ZM27.7288 148.579C27.7288 148.145 27.6926 147.674 27.6564 147.204C27.6202 146.733 27.5478 146.335 27.403 146.045C27.2582 145.683 27.1134 145.43 26.86 145.249C26.6429 145.068 26.3533 144.996 26.0275 144.996C25.4483 144.996 24.9777 145.285 24.6519 145.864C24.2899 146.444 24.1089 147.385 24.0727 148.652L27.7288 148.579Z" fill="#231F20"/>
<path d="M48.0002 155.566H41.1948V154.733C41.3396 154.733 41.5206 154.697 41.7016 154.661C41.9188 154.624 42.0636 154.588 42.1722 154.552C42.317 154.48 42.4256 154.335 42.498 154.19C42.5704 154.045 42.6066 153.792 42.6066 153.502V148.217C42.6066 147.457 42.4618 146.878 42.1722 146.48C41.8826 146.082 41.4844 145.901 40.9052 145.901C40.6156 145.901 40.3261 145.937 40.0727 146.045C39.8193 146.118 39.5659 146.263 39.3125 146.444C39.0953 146.588 38.9143 146.733 38.7695 146.914C38.6247 147.059 38.5161 147.204 38.4437 147.348V153.394C38.4437 153.647 38.4799 153.864 38.5523 154.045C38.6247 154.226 38.7695 154.371 38.9143 154.443C39.0229 154.516 39.1677 154.588 39.3487 154.624C39.5297 154.661 39.7107 154.697 39.8917 154.733V155.566H33.0139V154.733C33.1949 154.733 33.3759 154.697 33.5931 154.661C33.774 154.624 33.955 154.588 34.0998 154.552C34.3532 154.48 34.498 154.335 34.6066 154.154C34.679 153.973 34.7514 153.756 34.7514 153.466V146.878C34.7514 146.661 34.679 146.407 34.5704 146.19C34.4618 145.973 34.2808 145.792 34.0998 145.647C33.955 145.575 33.8102 145.466 33.5931 145.43C33.3759 145.358 33.1587 145.321 32.9053 145.321V144.489L38.2989 144.199L38.4799 144.38V146.009H38.5161C38.7333 145.828 38.9867 145.611 39.2763 145.321C39.5659 145.068 39.8555 144.851 40.1089 144.67C40.3985 144.489 40.7604 144.344 41.1948 144.199C41.6292 144.054 42.136 144.018 42.6428 144.018C43.8736 144.018 44.7785 144.38 45.3939 145.068C46.0093 145.756 46.2989 146.697 46.2989 147.855V153.394C46.2989 153.683 46.3351 153.9 46.4075 154.045C46.4799 154.226 46.6609 154.335 46.8781 154.443C46.9867 154.48 47.1315 154.552 47.3125 154.588C47.4934 154.624 47.6744 154.661 47.9278 154.697V155.566H48.0002Z" fill="#231F20"/>
<path d="M63.5658 155.566H58.2445C57.593 154.407 56.9776 153.43 56.4346 152.634C55.8916 151.837 55.3848 151.077 54.9142 150.425L54.2627 151.005V153.466C54.2627 153.719 54.2989 153.973 54.3713 154.118C54.4436 154.299 54.5884 154.407 54.8418 154.516C54.9866 154.588 55.1314 154.624 55.3124 154.661C55.4934 154.697 55.6744 154.733 55.8554 154.733V155.566H48.8328V154.733C49.0138 154.733 49.1948 154.697 49.412 154.661C49.593 154.624 49.774 154.588 49.9188 154.552C50.1722 154.48 50.317 154.335 50.4256 154.154C50.498 153.973 50.5704 153.756 50.5704 153.466V140.869C50.5704 140.615 50.498 140.362 50.3894 140.109C50.2808 139.855 50.136 139.638 49.9188 139.493C49.774 139.421 49.5568 139.312 49.2672 139.276C48.9776 139.204 48.7242 139.168 48.4708 139.168V138.335L54.0817 138.045L54.2627 138.226V149.882C54.8056 149.376 55.4572 148.796 56.145 148.145C56.8328 147.493 57.412 146.95 57.8102 146.516C58.0635 146.263 58.2083 146.082 58.2083 145.937C58.2445 145.792 58.2445 145.72 58.2445 145.683C58.2445 145.539 58.1359 145.43 57.8825 145.358C57.6292 145.285 57.3034 145.177 56.7966 145.104V144.308H62.516V145.104C61.7558 145.321 61.1767 145.502 60.7785 145.683C60.3803 145.864 59.9459 146.118 59.4753 146.407C59.1495 146.625 58.8599 146.842 58.5703 147.059C58.2807 147.276 57.9549 147.566 57.5568 147.891C58.2807 148.977 58.9685 149.955 59.5839 150.86C60.1993 151.765 60.8509 152.742 61.5386 153.756C61.7558 154.118 62.0454 154.335 62.4074 154.48C62.7694 154.588 63.0952 154.661 63.4572 154.697V155.566H63.5658Z" fill="#231F20"/>
<path d="M63.6744 155.566V154.733C63.8554 154.733 64.0726 154.697 64.2536 154.661C64.4346 154.624 64.6156 154.588 64.7242 154.552C64.9775 154.48 65.1223 154.335 65.2309 154.154C65.3395 153.973 65.3757 153.756 65.3757 153.466V146.878C65.3757 146.625 65.3033 146.371 65.1947 146.19C65.0861 145.973 64.9413 145.828 64.7603 145.72C64.6156 145.647 64.4346 145.539 64.145 145.466C63.8554 145.394 63.602 145.321 63.3848 145.321V144.489L68.9232 144.199L69.1042 144.38V153.358C69.1042 153.611 69.1766 153.828 69.2852 154.045C69.3938 154.226 69.5748 154.371 69.7558 154.443C69.9006 154.516 70.0816 154.588 70.2626 154.624C70.4436 154.661 70.6246 154.697 70.8418 154.733V155.566H63.6744ZM69.1766 140.181C69.1766 140.76 68.9594 141.231 68.525 141.629C68.0907 142.027 67.5477 142.244 66.9685 142.244C66.3531 142.244 65.8463 142.027 65.3757 141.629C64.9413 141.231 64.7242 140.724 64.7242 140.181C64.7242 139.602 64.9413 139.131 65.3757 138.697C65.8101 138.299 66.3531 138.082 66.9685 138.082C67.5839 138.082 68.0907 138.299 68.525 138.697C68.9594 139.095 69.1766 139.602 69.1766 140.181Z" fill="#231F20"/>
<path d="M86.7693 155.566H79.9639V154.733C80.1087 154.733 80.2897 154.697 80.4707 154.661C80.6879 154.624 80.8327 154.588 80.9413 154.552C81.0861 154.48 81.1947 154.335 81.2671 154.19C81.3395 154.045 81.3757 153.792 81.3757 153.502V148.217C81.3757 147.457 81.2309 146.878 80.9413 146.48C80.6517 146.082 80.2535 145.901 79.6743 145.901C79.3847 145.901 79.0951 145.937 78.8417 146.045C78.5883 146.154 78.335 146.263 78.0816 146.444C77.8644 146.588 77.6834 146.733 77.5386 146.914C77.3938 147.059 77.2852 147.204 77.2128 147.348V153.394C77.2128 153.647 77.249 153.864 77.3214 154.045C77.3938 154.226 77.5386 154.371 77.6834 154.443C77.792 154.516 77.9368 154.588 78.1178 154.624C78.2988 154.661 78.4798 154.697 78.6607 154.733V155.566H71.7829V154.733C71.9639 154.733 72.1449 154.697 72.3621 154.661C72.5431 154.624 72.7241 154.588 72.8689 154.552C73.1223 154.48 73.2671 154.335 73.3757 154.154C73.4481 153.973 73.5205 153.756 73.5205 153.466V146.878C73.5205 146.661 73.4481 146.407 73.3395 146.19C73.2309 145.973 73.0499 145.792 72.8689 145.647C72.7241 145.575 72.5793 145.466 72.3621 145.43C72.1449 145.358 71.9277 145.321 71.6744 145.321V144.489L77.068 144.199L77.249 144.38V146.009H77.2852C77.5024 145.828 77.7558 145.611 78.0454 145.321C78.335 145.068 78.6245 144.851 78.8779 144.67C79.1675 144.489 79.5295 144.344 79.9639 144.199C80.3983 144.054 80.9051 144.018 81.4119 144.018C82.6426 144.018 83.5476 144.38 84.163 145.068C84.7784 145.756 85.068 146.697 85.068 147.855V153.394C85.068 153.683 85.1042 153.9 85.1766 154.045C85.249 154.226 85.4299 154.335 85.6471 154.443C85.7557 154.48 85.9005 154.552 86.0815 154.588C86.2625 154.624 86.4435 154.661 86.6969 154.697V155.566H86.7693Z" fill="#231F20"/>
<path d="M93.0317 155.964C92.3078 155.964 91.5838 155.855 90.896 155.638C90.2082 155.421 89.6652 155.204 89.267 154.95L88.9413 155.71H88.0725L87.9277 151.511H88.7603C88.8689 151.837 89.0498 152.235 89.3394 152.67C89.5928 153.104 89.9186 153.466 90.2444 153.828C90.6064 154.154 91.0046 154.443 91.4752 154.697C91.9458 154.914 92.4163 155.059 92.9231 155.059C93.6109 155.059 94.1177 154.914 94.4435 154.661C94.7693 154.407 94.9503 153.973 94.9503 153.43C94.9503 153.14 94.8779 152.887 94.7331 152.67C94.5883 152.489 94.3711 152.308 94.1177 152.163C93.8281 152.018 93.5023 151.873 93.1403 151.765C92.7783 151.656 92.3439 151.548 91.8372 151.367C91.3304 151.222 90.896 151.077 90.534 150.896C90.172 150.751 89.7738 150.498 89.4118 150.172C89.086 149.882 88.7965 149.52 88.6155 149.122C88.3983 148.724 88.3259 148.217 88.3259 147.638C88.3259 146.588 88.7603 145.72 89.6652 145.068C90.5702 144.416 91.7286 144.091 93.1765 144.091C93.8643 144.091 94.4797 144.163 95.0589 144.308C95.6381 144.453 96.1086 144.597 96.5068 144.778L96.7602 144.127H97.629L97.81 147.964H97.0136C96.7602 147.167 96.2896 146.516 95.6743 145.937C95.0227 145.358 94.3349 145.068 93.6109 145.068C93.0317 145.068 92.5611 145.177 92.2354 145.43C91.9096 145.683 91.7286 146.009 91.7286 146.444C91.7286 147.023 91.982 147.421 92.4525 147.674C92.9231 147.928 93.6109 148.181 94.4797 148.398C95.8191 148.76 96.7964 149.231 97.448 149.81C98.0634 150.425 98.3892 151.186 98.3892 152.091C98.3892 153.321 97.9186 154.299 96.9412 154.95C95.8552 155.602 94.5883 155.964 93.0317 155.964Z" fill="#231F20"/>
</svg>
