<svg width="160" height="136" viewBox="0 0 160 136" fill="none" xmlns="http://www.w3.org/2000/svg">
<path d="M34.2197 77.1056C43.1143 77.1056 47.5249 72.4014 47.5249 66.6672C47.5249 52.9944 25.178 58.4341 25.178 49.5394C25.178 45.864 28.4859 43.0706 33.9991 43.0706C38.7037 43.0706 42.5262 44.9819 44.5845 47.7752L46.7163 45.0554C44.1435 42.1885 40.1004 39.8362 33.9991 39.8362C25.9866 39.8362 21.3555 44.2468 21.3555 49.6865C21.3555 62.4771 43.7759 56.9639 43.7759 66.6672C43.7759 70.7837 40.2474 73.8711 34.2932 73.8711C29.2945 73.8711 25.1045 71.5188 22.8257 68.6519L20.5469 71.4453C24.0753 75.4148 28.4859 77.1056 34.2197 77.1056ZM83.7651 76.2234V51.2302C83.7651 43.2911 78.0314 39.8362 70.8274 39.8362C64.9467 39.8362 60.8301 41.8209 57.1547 45.7905L59.2864 48.4368C62.5209 44.7613 65.9758 43.2176 70.4599 43.2176C75.6791 43.2176 79.9426 46.0845 79.9426 51.3772V58.5811C76.8552 55.1262 72.8122 53.509 67.8871 53.509C61.7123 53.509 55.4639 57.552 55.4639 65.2705C55.4639 72.916 61.7858 77.1056 67.8871 77.1056C72.8122 77.1056 76.7817 75.4879 79.9426 72.0329V76.2234H83.7651ZM69.2102 74.0921C63.403 74.0921 59.507 70.3427 59.507 65.3445C59.507 60.2723 63.403 56.5233 69.2102 56.5233C73.4738 56.5233 77.4433 58.1405 79.9426 61.4485V69.2405C77.4433 72.4744 73.4738 74.0921 69.2102 74.0921ZM106.259 77.1056C115.154 77.1056 119.564 72.4014 119.564 66.6672C119.564 52.9944 97.2169 58.4341 97.2169 49.5394C97.2169 45.864 100.525 43.0706 106.038 43.0706C110.743 43.0706 114.566 44.9819 116.623 47.7752L118.755 45.0554C116.182 42.1885 112.139 39.8362 106.038 39.8362C98.0255 39.8362 93.3944 44.2468 93.3944 49.6865C93.3944 62.4771 115.815 56.9639 115.815 66.6672C115.815 70.7837 112.286 73.8711 106.332 73.8711C101.334 73.8711 97.1434 71.5188 94.8646 68.6519L92.5858 71.4453C96.1147 75.4148 100.525 77.1056 106.259 77.1056ZM140 77.1056C148.895 77.1056 153.305 72.4014 153.305 66.6672C153.305 52.9944 130.958 58.4341 130.958 49.5394C130.958 45.864 134.266 43.0706 139.779 43.0706C144.484 43.0706 148.307 44.9819 150.365 47.7752L152.496 45.0554C149.923 42.1885 145.881 39.8362 139.779 39.8362C131.767 39.8362 127.136 44.2468 127.136 49.6865C127.136 62.4771 149.556 56.9639 149.556 66.6672C149.556 70.7837 146.028 73.8711 140.073 73.8711C135.075 73.8711 130.885 71.5188 128.606 68.6519L126.327 71.4453C129.856 75.4148 134.266 77.1056 140 77.1056ZM39.2994 131.356C52.6291 131.356 61.9215 122.896 61.9215 109.951C61.9215 97.1341 52.6291 88.6107 39.2353 88.6107H22.3808V131.356H39.2994ZM39.2353 123.345H31.481V96.6214H39.2994C48.015 96.6214 52.6291 102.453 52.6291 109.951C52.6291 117.257 47.6945 123.345 39.2353 123.345ZM88.7091 132.125C101.59 132.125 111.011 122.896 111.011 110.015C111.011 97.1341 101.59 87.9058 88.7091 87.9058C75.7639 87.9058 66.3434 97.1341 66.3434 110.015C66.3434 122.896 75.7639 132.125 88.7091 132.125ZM88.7091 124.05C80.7626 124.05 75.6998 117.962 75.6998 110.015C75.6998 102.005 80.7626 95.9806 88.7091 95.9806C96.5916 95.9806 101.654 102.005 101.654 110.015C101.654 117.962 96.5916 124.05 88.7091 124.05ZM138.183 132.125C147.539 132.125 152.987 126.934 155.999 121.615L148.181 117.834C146.386 121.295 142.541 124.05 138.183 124.05C130.365 124.05 124.725 118.09 124.725 110.015C124.725 101.94 130.365 95.9806 138.183 95.9806C142.541 95.9806 146.386 98.7362 148.181 102.197L155.999 98.3517C152.987 92.9685 147.54 87.9058 138.183 87.9058C125.302 87.9058 115.369 96.8132 115.369 110.015C115.369 123.153 125.302 132.125 138.183 132.125Z" fill="#5C4863"/>
<path d="M8.49921 39.8479C8.31684 40.3945 8.11187 40.9411 7.88427 41.4877C7.65667 42.0344 7.3942 42.5126 7.09828 42.9226C6.80236 43.3326 6.47156 43.6398 6.10779 43.8448C5.74354 44.0502 5.3562 44.0841 4.94624 43.9475C4.39963 43.8565 4.0924 43.4574 4.0236 42.7515C3.95527 42.0457 4.03538 41.3511 4.26298 40.6678C4.58199 39.5746 5.04849 38.128 5.66343 36.3289C6.27884 34.5298 6.98472 32.5592 7.78154 30.4189C8.57884 28.2782 9.42137 26.0573 10.3096 23.7569C11.1983 21.4573 12.0522 19.2591 12.8721 17.1636C13.692 15.0681 14.4436 13.1668 15.1269 11.4581C15.8101 9.74997 16.3341 8.41785 16.6984 7.46128C16.835 7.18798 17.04 6.96038 17.3133 6.77802C17.5866 6.59566 17.8712 6.50471 18.1676 6.50471C18.4635 6.50471 18.7594 6.59566 19.0558 6.77802C19.3518 6.96038 19.5907 7.2563 19.773 7.66626C20.1373 8.62283 20.1604 9.55678 19.8414 10.4676C19.5223 11.1966 19.0672 12.3242 18.4748 13.8495C17.8825 15.3763 17.211 17.0953 16.4594 19.0084C15.7074 20.9215 14.9219 22.9487 14.102 25.0894C13.282 27.2302 12.5078 29.2691 11.7789 31.2044C11.0499 33.1411 10.3897 34.8827 9.7974 36.4316C9.20509 37.9805 8.77251 39.1189 8.49921 39.8479ZM44.9171 22.698C44.0062 22.0148 43.0153 21.2858 41.9447 20.5116C40.875 19.7374 39.7469 18.9401 38.5628 18.1202C39.337 20.8989 40.1569 23.5406 41.0225 26.046C41.1591 26.5926 41.1026 27.0709 40.8514 27.4809C40.6017 27.8908 40.2935 28.0958 39.9293 28.0958C39.337 28.0049 38.7338 27.7316 38.1184 27.2759C37.5035 26.8202 37.0817 26.2736 36.8546 25.6361C36.6722 25.2261 36.4446 24.5655 36.1713 23.6546C35.898 22.7437 35.579 21.6731 35.2148 20.4433C34.4406 21.5822 33.7229 22.698 33.0623 23.7913C32.4026 24.8845 31.7758 25.932 31.1835 26.9343C30.8193 27.4352 30.4093 27.7198 29.9536 27.7881C29.498 27.8569 29.1563 27.7542 28.9288 27.4809C28.6097 26.98 28.4165 26.3311 28.3477 25.5333C28.2794 24.737 28.4043 24.0646 28.7238 23.5179C28.9514 23.1537 29.3613 22.4931 29.9536 21.5365C30.546 20.5799 31.2745 19.4641 32.1401 18.1885C31.1835 18.4161 30.2496 18.655 29.3387 18.9057C28.4278 19.1564 27.5165 19.3958 26.6057 19.6234C26.059 19.7143 25.5808 19.6234 25.1708 19.35C24.7608 19.0767 24.5785 18.7577 24.6242 18.3935C24.7608 17.8012 25.0681 17.2663 25.5464 16.788C26.0251 16.3093 26.583 15.9794 27.2206 15.7971C27.6763 15.6604 28.4161 15.4672 29.441 15.2165C30.4663 14.9659 31.6392 14.6812 32.96 14.3622C32.0491 13.8156 31.1496 13.2577 30.2609 12.6885C29.3726 12.1183 28.4731 11.5835 27.5622 11.0826C27.0613 10.7636 26.7767 10.3536 26.7079 9.8527C26.6396 9.3518 26.7423 8.98708 27.0156 8.75948C27.5165 8.44047 28.1201 8.29298 28.826 8.31559C29.5329 8.33821 30.1586 8.53235 30.7052 8.89613C31.1609 9.12373 31.7985 9.51107 32.6184 10.0577C32.4817 9.28347 32.3677 8.54319 32.2767 7.83731C32.1858 7.13049 32.1175 6.45901 32.0718 5.82145C32.0261 5.32055 32.1401 4.8875 32.4134 4.52325C32.6867 4.159 33.0057 3.95402 33.37 3.90832C33.689 3.81737 34.0758 3.91963 34.5315 4.21602C34.9872 4.51194 35.3288 5.06986 35.5564 5.88978C35.7388 6.7554 35.9437 7.64364 36.1713 8.5545C36.3989 9.46536 36.627 10.445 36.8546 11.4925C37.7655 10.2627 38.6537 9.10111 39.5193 8.00789C40.3849 6.91467 41.2049 5.98072 41.9791 5.20651C42.3433 4.84227 42.7533 4.63729 43.2089 4.59158C43.6646 4.54587 44.0289 4.6599 44.3022 4.93321C44.5298 5.11557 44.7008 5.47982 44.8144 6.02643C44.9284 6.57304 44.7343 7.18798 44.2338 7.87124C43.7329 8.5545 43.1632 9.31787 42.5257 10.1604C41.8881 11.0029 41.2275 11.9025 40.5442 12.8591C41.7284 12.6315 42.8899 12.4604 44.0288 12.3468C45.1678 12.2328 46.2379 12.1536 47.2402 12.1075C47.7411 12.1075 48.1741 12.1984 48.5384 12.3808C48.9026 12.5631 49.1076 12.8364 49.1533 13.2007C49.199 13.5197 49.0624 13.9066 48.7434 14.3622C48.4244 14.8179 47.8551 15.1138 47.0352 15.2505C46.261 15.3871 45.4298 15.5238 44.5411 15.6604C43.6528 15.7971 42.7533 15.9564 41.8424 16.1387C42.8899 16.9129 43.8696 17.6758 44.7804 18.4279C45.6913 19.1795 46.5343 19.8967 47.3085 20.5799C47.6728 20.9442 47.9117 21.3197 48.0257 21.7075C48.1397 22.0939 48.0822 22.4473 47.8551 22.7664C47.6275 22.994 47.2402 23.1537 46.6936 23.2446C46.147 23.3356 45.5546 23.1537 44.9171 22.698ZM72.6575 22.698C71.7467 22.0148 70.7557 21.2858 69.6851 20.5116C68.6155 19.7374 67.4874 18.9401 66.3032 18.1202C67.0774 20.8989 67.8973 23.5406 68.763 26.046C68.8996 26.5926 68.8431 27.0709 68.5919 27.4809C68.3422 27.8908 68.034 28.0958 67.6697 28.0958C67.0774 28.0049 66.4743 27.7316 65.8588 27.2759C65.2439 26.8202 64.8222 26.2736 64.595 25.6361C64.4127 25.2261 64.1851 24.5655 63.9118 23.6546C63.6385 22.7437 63.3195 21.6731 62.9552 20.4433C62.181 21.5822 61.4634 22.698 60.8027 23.7913C60.143 24.8845 59.5163 25.932 58.924 26.9343C58.5597 27.4352 58.1498 27.7198 57.6941 27.7881C57.2384 27.8569 56.8968 27.7542 56.6692 27.4809C56.3502 26.98 56.157 26.3311 56.0882 25.5333C56.0199 24.737 56.1447 24.0646 56.4642 23.5179C56.6918 23.1537 57.1018 22.4931 57.6941 21.5365C58.2864 20.5799 59.0149 19.4641 59.8805 18.1885C58.924 18.4161 57.99 18.655 57.0792 18.9057C56.1683 19.1564 55.257 19.3958 54.3461 19.6234C53.7995 19.7143 53.3212 19.6234 52.9113 19.35C52.5013 19.0767 52.3189 18.7577 52.3647 18.3935C52.5013 17.8012 52.8085 17.2663 53.2868 16.788C53.7656 16.3093 54.3235 15.9794 54.961 15.7971C55.4167 15.6604 56.1565 15.4672 57.1814 15.2165C58.2068 14.9659 59.3796 14.6812 60.7005 14.3622C59.7896 13.8156 58.89 13.2577 58.0013 12.6885C57.1131 12.1183 56.2135 11.5835 55.3027 11.0826C54.8018 10.7636 54.5172 10.3536 54.4484 9.8527C54.38 9.3518 54.4828 8.98708 54.7561 8.75948C55.257 8.44047 55.8606 8.29298 56.5665 8.31559C57.2733 8.33821 57.8991 8.53235 58.4457 8.89613C58.9014 9.12373 59.5389 9.51107 60.3588 10.0577C60.2222 9.28347 60.1081 8.54319 60.0172 7.83731C59.9262 7.13049 59.8579 6.45901 59.8122 5.82145C59.7665 5.32055 59.8805 4.8875 60.1538 4.52325C60.4271 4.159 60.7462 3.95402 61.1104 3.90832C61.4294 3.81737 61.8163 3.91963 62.272 4.21602C62.7276 4.51194 63.0693 5.06986 63.2969 5.88978C63.4792 6.7554 63.6842 7.64364 63.9118 8.5545C64.1394 9.46536 64.3675 10.445 64.595 11.4925C65.5059 10.2627 66.3941 9.10111 67.2598 8.00789C68.1254 6.91467 68.9453 5.98072 69.7195 5.20651C70.0838 4.84227 70.4937 4.63729 70.9494 4.59158C71.4051 4.54587 71.7693 4.6599 72.0426 4.93321C72.2702 5.11557 72.4413 5.47982 72.5548 6.02643C72.6689 6.57304 72.4747 7.18798 71.9743 7.87124C71.4734 8.5545 70.9037 9.31787 70.2661 10.1604C69.6286 11.0029 68.9679 11.9025 68.2847 12.8591C69.4688 12.6315 70.6304 12.4604 71.7693 12.3468C72.9082 12.2328 73.9784 12.1536 74.9806 12.1075C75.4815 12.1075 75.9146 12.1984 76.2788 12.3808C76.6431 12.5631 76.8481 12.8364 76.8938 13.2007C76.9395 13.5197 76.8028 13.9066 76.4838 14.3622C76.1648 14.8179 75.5956 15.1138 74.7757 15.2505C74.0014 15.3871 73.1702 15.5238 72.2815 15.6604C71.3933 15.7971 70.4937 15.9564 69.5829 16.1387C70.6304 16.9129 71.61 17.6758 72.5209 18.4279C73.4318 19.1795 74.2748 19.8967 75.049 20.5799C75.4132 20.9442 75.6521 21.3197 75.7662 21.7075C75.8802 22.0939 75.8227 22.4473 75.5956 22.7664C75.368 22.994 74.9806 23.1537 74.434 23.2446C73.8874 23.3356 73.2951 23.1537 72.6575 22.698Z" fill="#DD5A6F"/>
</svg>
