<svg width="160" height="56" viewBox="0 0 160 56" fill="none" xmlns="http://www.w3.org/2000/svg">
<path fill-rule="evenodd" clip-rule="evenodd" d="M22.2401 7.74908H10.4174C9.60827 7.74908 8.9203 8.33701 8.79406 9.13593L4.01242 39.4524C3.91731 40.0503 4.38071 40.5898 4.9874 40.5898H10.6317C11.4407 40.5898 12.1287 40.0022 12.255 39.2017L13.5446 31.025C13.6691 30.2244 14.3588 29.6366 15.1661 29.6366H18.9088C26.6967 29.6366 31.1913 25.868 32.3653 18.3999C32.8942 15.1326 32.3877 12.5655 30.8577 10.7677C29.1774 8.79328 26.1971 7.74908 22.2401 7.74908ZM23.6041 18.8218C22.9575 23.0641 19.7161 23.0641 16.5819 23.0641H14.798L16.0495 15.1414C16.1239 14.6625 16.5387 14.3098 17.0228 14.3098H17.8404C19.9754 14.3098 21.9894 14.3098 23.0301 15.5267C23.6507 16.2529 23.8409 17.3315 23.6041 18.8218Z" fill="#283B82"/>
<path fill-rule="evenodd" clip-rule="evenodd" d="M57.5801 18.6853H51.9188C51.4365 18.6853 51.0199 19.038 50.9453 19.5169L50.695 21.1004L50.2989 20.5264C49.0733 18.7475 46.34 18.1529 43.6121 18.1529C37.356 18.1529 32.0125 22.8913 30.9718 29.5382C30.4308 32.8539 31.2001 36.0244 33.0809 38.2353C34.8061 40.2683 37.2747 41.1153 40.2119 41.1153C45.2529 41.1153 48.0482 37.8742 48.0482 37.8742L47.7958 39.4473C47.7005 40.0489 48.164 40.5882 48.7674 40.5882H53.8668C54.6777 40.5882 55.3623 40.0004 55.4903 39.2002L58.55 19.8228C58.647 19.2264 58.1854 18.6853 57.5801 18.6853ZM49.6886 29.7042C49.1426 32.9386 46.5752 35.11 43.3012 35.11C41.6572 35.11 40.3432 34.5826 39.4995 33.5834C38.6629 32.5911 38.3448 31.1788 38.6111 29.6056C39.121 26.3989 41.7315 24.1568 44.9553 24.1568C46.5633 24.1568 47.8701 24.6909 48.731 25.6986C49.5938 26.7168 49.9357 28.1379 49.6886 29.7042Z" fill="#283B82"/>
<path d="M82.0434 18.6854H87.7325C88.5296 18.6854 88.9946 19.5791 88.5415 20.2327L69.6191 47.5464C69.3133 47.989 68.8083 48.2519 68.2691 48.2519H62.5868C61.7861 48.2519 61.3194 47.3509 61.7829 46.6959L67.6743 38.3789L61.4077 19.9888C61.1917 19.3491 61.6635 18.6854 62.343 18.6854H67.9337C68.6597 18.6854 69.301 19.1624 69.5102 19.8575L72.8361 30.9645L80.6829 19.4063C80.9905 18.9551 81.5005 18.6854 82.0434 18.6854Z" fill="#283B82"/>
<path d="M143.729 39.4529L148.581 8.58129C148.656 8.10266 149.071 7.74955 149.553 7.74811H155.016C155.619 7.74811 156.082 8.28914 155.987 8.88752L151.202 39.2022C151.078 40.0026 150.39 40.5903 149.579 40.5903H144.7C144.097 40.5903 143.634 40.0508 143.729 39.4529Z" fill="#469BDB"/>
<path fill-rule="evenodd" clip-rule="evenodd" d="M106.568 7.74955H94.7438C93.9366 7.74955 93.2484 8.33747 93.1221 9.13639L88.3405 39.4529C88.2456 40.0508 88.7087 40.5903 89.3122 40.5903H95.38C95.9434 40.5903 96.426 40.179 96.514 39.6188L97.8709 31.0255C97.9954 30.2249 98.6854 29.6371 99.4926 29.6371H103.234C111.023 29.6371 115.516 25.8685 116.692 18.4004C117.223 15.1331 116.713 12.566 115.182 10.7681C113.504 8.79374 110.525 7.74955 106.568 7.74955ZM107.932 18.8223C107.287 23.0646 104.046 23.0646 100.91 23.0646H99.1279L100.381 15.1418C100.456 14.6629 100.867 14.3103 101.353 14.3103H102.17C104.304 14.3103 106.319 14.3103 107.36 15.5272C107.981 16.2533 108.169 17.332 107.932 18.8223Z" fill="#469BDB"/>
<path fill-rule="evenodd" clip-rule="evenodd" d="M141.907 18.6858H136.249C135.763 18.6858 135.35 19.0385 135.277 19.5174L135.026 21.1009L134.629 20.5269C133.403 18.748 130.672 18.1534 127.944 18.1534C121.687 18.1534 116.346 22.8918 115.305 29.5387C114.766 32.8544 115.532 36.0249 117.413 38.2358C119.141 40.2687 121.606 41.1158 124.543 41.1158C129.584 41.1158 132.38 37.8747 132.38 37.8747L132.127 39.4478C132.032 40.0494 132.495 40.5887 133.103 40.5887H138.2C139.008 40.5887 139.696 40.0009 139.822 39.2006L142.884 19.8233C142.977 19.2268 142.514 18.6858 141.907 18.6858ZM134.015 29.7047C133.472 32.939 130.902 35.1105 127.628 35.1105C125.987 35.1105 124.67 34.5831 123.826 33.5839C122.99 32.5916 122.675 31.1793 122.938 29.606C123.451 26.3993 126.058 24.1573 129.282 24.1573C130.89 24.1573 132.196 24.6914 133.057 25.6991C133.923 26.7173 134.266 28.1384 134.015 29.7047Z" fill="#469BDB"/>
</svg>
