<svg width="160" height="64" viewBox="0 0 160 64" fill="none" xmlns="http://www.w3.org/2000/svg">
<path d="M13.2865 45.7791C13.7102 46.0321 14.1932 46.1686 14.6867 46.1749C15.5694 46.1749 16.0869 45.6878 16.0869 44.9877C16.0869 44.2876 15.6912 43.9528 14.8693 43.5875C14.0475 43.2222 13.1952 42.583 13.1952 41.6394C13.1952 40.6958 14.0475 39.7521 15.3259 39.7521C15.8005 39.7408 16.2706 39.8453 16.6957 40.0565L16.4522 40.7871C16.1 40.586 15.7011 40.481 15.2955 40.4827C14.4127 40.4827 14.0779 41.0306 14.0779 41.5176C14.0779 42.0047 14.4736 42.4917 15.3564 42.8874C16.2391 43.2831 16.9392 43.9832 16.9392 44.9268C16.9392 45.8705 16.1478 46.9054 14.6563 46.9054C14.0941 46.9085 13.5399 46.7726 13.043 46.5097L13.2865 45.7791Z" fill="#1E384B"/>
<path d="M21.6878 45.4443C21.6878 45.9922 21.7182 46.4184 21.7486 46.8141H20.9572V46.0835H20.9268C20.7759 46.3449 20.5583 46.5616 20.2962 46.7113C20.0342 46.8611 19.7371 46.9385 19.4352 46.9358C18.6438 46.9358 17.8524 46.4184 17.8524 44.8051V41.822H18.7351V44.6529C18.7351 45.5661 18.9787 46.2053 19.7396 46.2053C19.9676 46.1908 20.1857 46.1073 20.3651 45.966C20.5445 45.8246 20.6767 45.6321 20.7441 45.4139C20.806 45.2697 20.8372 45.1142 20.8355 44.9573V41.822H21.6878V45.4443Z" fill="#1E384B"/>
<path d="M22.8445 46.8141C22.8749 46.5097 22.8749 45.9618 22.8749 45.5661V39.5391H23.7576V42.5526C23.9058 42.282 24.1271 42.0586 24.3962 41.9079C24.6654 41.7571 24.9715 41.6852 25.2796 41.7003C26.3754 41.7003 27.1669 42.7048 27.1669 44.2572C27.1669 45.8096 26.1624 46.9358 25.1274 46.9358C24.8257 46.9401 24.5288 46.8596 24.2705 46.7035C24.0123 46.5475 23.8029 46.3222 23.6663 46.0531H23.6359V46.8141H22.8445ZM23.7576 44.8964C23.7527 44.9988 23.7629 45.1014 23.7881 45.2008C23.8378 45.4804 23.9836 45.7338 24.2004 45.9173C24.4172 46.1007 24.6913 46.2026 24.9752 46.2053C25.8275 46.2053 26.2841 45.4139 26.2841 44.2876C26.2841 43.1614 25.858 42.4308 24.9752 42.4308C24.6902 42.446 24.4185 42.5562 24.2034 42.7438C23.9882 42.9313 23.842 43.1855 23.7881 43.4657C23.763 43.5858 23.7527 43.7085 23.7576 43.831V44.8964Z" fill="#1E384B"/>
<path d="M27.8974 45.9313C28.2271 46.1368 28.605 46.2523 28.9932 46.2662C29.602 46.2662 29.9064 45.9313 29.9064 45.5052C29.9064 45.079 29.6629 44.866 29.0541 44.5616C28.4453 44.2572 27.8061 43.7397 27.8061 43.1614C27.8061 42.583 28.4453 41.7003 29.4498 41.7003C29.8449 41.7052 30.2323 41.8099 30.5761 42.0047L30.363 42.6439C30.0794 42.4681 29.753 42.3733 29.4194 42.3699C29.3241 42.3568 29.2271 42.3644 29.135 42.3921C29.0429 42.4198 28.9578 42.4671 28.8856 42.5306C28.8134 42.5942 28.7557 42.6725 28.7165 42.7603C28.6773 42.8482 28.6575 42.9434 28.6584 43.0396C28.6584 43.4353 28.9019 43.6179 29.5107 43.8919C30.1195 44.1659 30.7283 44.6833 30.7283 45.4139C30.7283 46.1444 30.0586 46.9054 28.9628 46.9054C28.5137 46.9154 28.0708 46.7994 27.6843 46.5706L27.8974 45.9313Z" fill="#1E384B"/>
<path d="M32.6459 40.4218V41.822H33.8635V42.4917H32.6459V45.2617C32.6459 45.9009 32.859 46.2053 33.2852 46.2053L33.7722 46.1444V46.8141C33.5249 46.884 33.2681 46.9148 33.0112 46.9054C32.6746 46.9185 32.3464 46.7981 32.098 46.5706C31.8545 46.2966 31.7632 45.8705 31.7632 45.2617V42.4917H31.0631V41.822H31.7936V40.6349L32.6459 40.4218Z" fill="#1E384B"/>
<path d="M37.1205 46.8141L37.0292 46.2053C36.8721 46.431 36.6626 46.6153 36.4188 46.7425C36.175 46.8697 35.904 46.9361 35.629 46.9358C35.4413 46.9402 35.2548 46.9059 35.0809 46.8352C34.907 46.7644 34.7496 46.6587 34.6183 46.5245C34.487 46.3904 34.3846 46.2307 34.3176 46.0553C34.2506 45.88 34.2204 45.6927 34.2288 45.5052C34.2288 44.2572 35.2637 43.6484 36.9683 43.6484V43.5266C36.9683 43.0396 36.8466 42.3699 35.9334 42.3699C35.5232 42.3644 35.1206 42.481 34.7767 42.7048L34.5636 42.1264C35.0195 41.8412 35.5479 41.6932 36.0856 41.7003C37.4554 41.7003 37.8511 42.6439 37.8511 43.6788V45.6574C37.8394 46.044 37.8598 46.4309 37.912 46.8141H37.1205ZM36.9683 44.2572C36.1769 44.2267 35.0811 44.3789 35.0811 45.3834C35.0682 45.4948 35.079 45.6076 35.113 45.7144C35.1469 45.8212 35.2031 45.9196 35.278 46.0031C35.3528 46.0865 35.4445 46.1531 35.547 46.1985C35.6495 46.2439 35.7604 46.2669 35.8725 46.2662C36.1162 46.2671 36.3533 46.1869 36.5462 46.038C36.7392 45.8892 36.877 45.6803 36.9379 45.4443C36.9628 45.3552 36.9731 45.2627 36.9683 45.1704V44.2572Z" fill="#1E384B"/>
<path d="M39.0078 43.1614C39.0078 42.6134 38.9773 42.2177 38.9469 41.822H39.7383V42.583H39.7688C39.9132 42.3138 40.1285 42.0892 40.3914 41.9336C40.6543 41.778 40.9548 41.6973 41.2603 41.7003C41.9604 41.7003 42.8736 42.1569 42.8736 43.7093V46.8141H41.9908V43.831C41.9908 43.1005 41.7473 42.4308 40.9863 42.4308C40.7294 42.4437 40.4836 42.5398 40.286 42.7045C40.0884 42.8692 39.9496 43.0936 39.8905 43.344C39.8509 43.4826 39.8304 43.626 39.8296 43.7701V46.8141H39.0078V43.1614Z" fill="#1E384B"/>
<path d="M47.2873 46.6619C46.8958 46.8387 46.4685 46.9221 46.0393 46.9054C44.6695 46.9054 43.7563 45.9313 43.7563 44.3789C43.7563 42.8265 44.6999 41.7307 46.2219 41.7307C46.5986 41.7181 46.9732 41.7909 47.3177 41.9438L47.1351 42.6439C46.8572 42.4873 46.5404 42.4134 46.2219 42.4308C45.187 42.4308 44.6391 43.3136 44.6391 44.3181C44.6391 45.3226 45.2783 46.2053 46.2219 46.2053C46.5489 46.2098 46.8722 46.1368 47.1655 45.9922L47.2873 46.6619Z" fill="#1E384B"/>
<path d="M48.5049 44.4702C48.5353 45.7791 49.2354 46.2357 50.0573 46.2357C50.4758 46.2418 50.8909 46.1588 51.2749 45.9922L51.4271 46.6314C50.9559 46.8307 50.4467 46.9242 49.9355 46.9054C48.5049 46.9054 47.6526 45.9009 47.6526 44.4094C47.6526 42.9178 48.5049 41.7003 49.8138 41.7003C51.1227 41.7003 51.701 43.0396 51.701 44.0137C51.701 44.2267 51.6706 44.3485 51.6706 44.4702H48.5049ZM50.8487 43.831C50.8487 43.1309 50.5748 42.3699 49.7529 42.3699C48.931 42.3699 48.5658 43.1614 48.5049 43.831H50.8487Z" fill="#1E384B"/>
<path d="M55.4451 44.6529L54.8058 46.8141H53.9231L56.0538 39.8435H57.0583L59.1891 46.8141H58.3064L57.6367 44.6529H55.4451ZM57.4845 43.9832L56.8757 42.0351C56.754 41.5785 56.6322 41.1219 56.5409 40.6653H56.5104C56.4276 41.1285 56.3158 41.586 56.1756 42.0351L55.5973 43.9832H57.4845Z" fill="#1E384B"/>
<path d="M59.8588 46.8141C59.8892 46.5097 59.8892 45.9618 59.8892 45.5661V39.5391H60.772V42.5526H60.8024C60.9455 42.2844 61.1614 42.0622 61.4253 41.9114C61.6892 41.7606 61.9903 41.6874 62.2939 41.7003C63.4202 41.7003 64.2116 42.7048 64.1812 44.2572C64.1507 45.8096 63.1767 46.9358 62.1722 46.9358C61.8653 46.9459 61.562 46.8681 61.2978 46.7118C61.0336 46.5554 60.8195 46.3269 60.6806 46.0531H60.6502V46.8141H59.8588ZM60.772 44.8964C60.767 44.9988 60.7772 45.1014 60.8024 45.2008C60.8574 45.4779 61.0047 45.7281 61.2204 45.9105C61.436 46.093 61.7072 46.1969 61.9895 46.2053C62.8418 46.2053 63.2984 45.4139 63.2984 44.2876C63.2984 43.1614 62.8723 42.4308 61.9895 42.4308C61.7061 42.4511 61.437 42.563 61.2229 42.7497C61.0087 42.9365 60.8611 43.1878 60.8024 43.4657C60.8024 43.5875 60.772 43.7093 60.772 43.831V44.8964Z" fill="#1E384B"/>
<path d="M68.8993 45.4443C68.8993 45.9922 68.8993 46.4184 68.9297 46.8141H68.1687L68.1079 46.0835H68.0774C67.9291 46.3405 67.7163 46.5542 67.46 46.7037C67.2038 46.8532 66.913 46.9332 66.6163 46.9358C65.7945 46.9358 65.0335 46.4184 65.0335 44.8051V41.822H65.9162V44.6529C65.9162 45.5661 66.1597 46.2053 66.8903 46.2053C67.1276 46.1987 67.3572 46.1192 67.5478 45.9776C67.7384 45.836 67.8808 45.6392 67.9557 45.4139C67.9929 45.2644 68.0133 45.1113 68.0165 44.9573V41.822H68.8993V45.4443Z" fill="#1E384B"/>
<path d="M69.9342 45.9313C70.2662 46.1319 70.6427 46.2469 71.03 46.2662C71.6388 46.2662 71.9432 45.9313 71.9432 45.5052C71.9432 45.079 71.6997 44.866 71.0909 44.5616C70.4821 44.2572 69.8429 43.7397 69.8733 43.1614C69.9038 42.583 70.5126 41.7003 71.4866 41.7003C71.8829 41.6966 72.2725 41.8019 72.6129 42.0047L72.3998 42.6439C72.1162 42.4681 71.7898 42.3733 71.4562 42.3699C71.3609 42.3568 71.2639 42.3644 71.1718 42.3921C71.0797 42.4198 70.9946 42.4671 70.9224 42.5306C70.8502 42.5942 70.7926 42.6725 70.7533 42.7603C70.7141 42.8482 70.6943 42.9434 70.6952 43.0396C70.6952 43.4353 70.9387 43.6179 71.5475 43.8919C72.1563 44.1659 72.7651 44.6833 72.7651 45.4139C72.7651 46.1444 72.0954 46.9054 70.9996 46.9054C70.5505 46.9154 70.1077 46.7994 69.7211 46.5706L69.9342 45.9313Z" fill="#1E384B"/>
<path d="M74.1653 44.4702C74.1653 45.7791 74.8958 46.2357 75.7177 46.2357C76.136 46.2391 76.5505 46.1562 76.9353 45.9922L77.0875 46.6314C76.6163 46.8307 76.1072 46.9242 75.5959 46.9054C74.1653 46.9054 73.313 45.9009 73.313 44.4094C73.313 42.9178 74.1349 41.7003 75.4742 41.7003C76.8135 41.7003 77.331 43.0396 77.331 44.0137V44.4702H74.1653ZM76.5091 43.831C76.5091 43.1309 76.2352 42.3699 75.3829 42.3699C74.5306 42.3699 74.2262 43.1614 74.1653 43.831H76.5091Z" fill="#1E384B"/>
<path d="M82.5361 46.8141L82.4752 46.2053H82.4448C82.2985 46.4345 82.0956 46.6221 81.8556 46.75C81.6157 46.878 81.3469 46.942 81.075 46.9358C80.8849 46.9445 80.695 46.9134 80.5175 46.8446C80.34 46.7758 80.1788 46.6707 80.0442 46.5361C79.9096 46.4014 79.8045 46.2402 79.7356 46.0628C79.6668 45.8853 79.6357 45.6954 79.6444 45.5052C79.6444 44.2572 80.7098 43.6484 82.3839 43.6484V43.5266C82.3839 43.0396 82.2622 42.3699 81.349 42.3699C80.94 42.3729 80.5397 42.4888 80.1923 42.7048L80.0097 42.1264C80.4547 41.842 80.9731 41.6939 81.5012 41.7003C82.871 41.7003 83.2667 42.6439 83.2667 43.6788V45.6574C83.2667 46.0531 83.2971 46.4792 83.3276 46.8141H82.5361ZM82.4144 44.2572C81.5925 44.2267 80.5271 44.3789 80.5271 45.3834C80.5271 46.3879 80.8924 46.2662 81.2881 46.2662C81.537 46.274 81.7811 46.1969 81.9803 46.0476C82.1794 45.8982 82.3218 45.6854 82.3839 45.4443C82.4089 45.3552 82.4192 45.2627 82.4144 45.1704V44.2572Z" fill="#1E384B"/>
<path d="M84.4234 43.1614C84.4234 42.6134 84.4234 42.2177 84.3929 41.822H85.1539L85.2148 42.583H85.2452C85.3869 42.3115 85.6017 42.085 85.8652 41.9291C86.1287 41.7731 86.4306 41.6939 86.7368 41.7003C87.4369 41.7003 88.3196 42.1569 88.3196 43.7093V46.8141H87.4673V43.831C87.4673 43.1005 87.2238 42.4308 86.4324 42.4308C86.1793 42.4452 85.9379 42.5424 85.7454 42.7074C85.5529 42.8724 85.42 43.0961 85.367 43.344C85.3274 43.4826 85.3069 43.626 85.3061 43.7701V46.8141H84.4234V43.1614Z" fill="#1E384B"/>
<path d="M93.4334 39.5391V45.5661C93.4334 45.9618 93.4639 46.4792 93.4639 46.8141H92.7029L92.642 46.0227H92.6116C92.4802 46.3046 92.2686 46.5415 92.0034 46.7039C91.7381 46.8664 91.4309 46.947 91.12 46.9358C90.0242 46.9358 89.1719 45.9313 89.1719 44.3789C89.1719 42.8265 90.1155 41.7003 91.2114 41.7003C91.4808 41.6833 91.7495 41.7428 91.9865 41.8721C92.2235 42.0014 92.4191 42.1951 92.5507 42.4308V39.5391H93.4334ZM92.5507 43.8006C92.5545 43.6781 92.5442 43.5555 92.5202 43.4353C92.4781 43.1633 92.3427 42.9143 92.1373 42.7311C91.9318 42.5478 91.6691 42.4417 91.394 42.4308C90.5417 42.4308 90.0547 43.2831 90.0547 44.3485C90.0547 45.4139 90.5112 46.2053 91.3635 46.2053C91.6439 46.2014 91.9139 46.0985 92.1256 45.9146C92.3373 45.7307 92.4771 45.4779 92.5202 45.2008C92.5454 45.0808 92.5556 44.9581 92.5507 44.8355V43.8006Z" fill="#1E384B"/>
<path d="M101.865 43.7701C101.804 42.8265 101.743 41.7003 101.774 40.848H101.743C101.53 41.6394 101.256 42.5221 100.952 43.4353L99.8257 46.7836H99.1865L98.1515 43.5266C97.8471 42.5526 97.6036 41.6698 97.421 40.848H97.3905C97.3905 41.7003 97.3297 42.8265 97.2688 43.831L97.1166 46.8141H96.2947L96.7513 39.8435H97.8167L98.9125 43.1614C99.167 43.941 99.3804 44.7336 99.5518 45.5356H99.5822C99.7648 44.8051 99.9779 44.0745 100.252 43.1614L101.378 39.8435H102.443L102.87 46.8141H102.017L101.865 43.7701Z" fill="#1E384B"/>
<path d="M104.513 44.4702C104.513 45.7791 105.244 46.2357 106.066 46.2357C106.484 46.2391 106.899 46.1562 107.283 45.9922L107.436 46.6314C106.964 46.8307 106.455 46.9242 105.944 46.9054C104.483 46.9054 103.661 45.9009 103.661 44.4094C103.661 42.9178 104.483 41.7003 105.822 41.7003C107.162 41.7003 107.679 43.0396 107.679 44.0137C107.687 44.1665 107.677 44.3198 107.649 44.4702H104.513ZM106.857 43.831C106.857 43.1309 106.583 42.3699 105.731 42.3699C104.879 42.3699 104.574 43.1614 104.513 43.831H106.857Z" fill="#1E384B"/>
<path d="M108.562 43.1614C108.562 42.6134 108.531 42.2177 108.531 41.822H109.292L109.353 42.583C109.505 42.3135 109.726 42.0896 109.994 41.9344C110.262 41.7792 110.566 41.6984 110.875 41.7003C111.545 41.7003 112.458 42.1569 112.458 43.7093V46.8141H111.606V43.831C111.606 43.1005 111.362 42.4308 110.571 42.4308C110.316 42.44 110.072 42.5353 109.879 42.7012C109.685 42.8671 109.553 43.0937 109.505 43.344C109.451 43.4792 109.431 43.6253 109.445 43.7701V46.8141H108.562V43.1614Z" fill="#1E384B"/>
<path d="M114.68 40.4218V41.822H115.898V42.4917H114.68V45.2617C114.68 45.9009 114.893 46.2053 115.319 46.2053L115.776 46.1444L115.837 46.8141C115.589 46.884 115.333 46.9148 115.076 46.9054C114.909 46.9136 114.742 46.8881 114.585 46.8306C114.428 46.7731 114.285 46.6847 114.163 46.5706C113.919 46.2966 113.828 45.8705 113.828 45.2617V42.4917H113.097V41.822H113.828V40.6349L114.68 40.4218Z" fill="#1E384B"/>
<path d="M119.185 46.8141L119.094 46.2053H119.063C118.917 46.4345 118.714 46.6221 118.474 46.75C118.234 46.878 117.965 46.942 117.694 46.9358C117.503 46.9445 117.314 46.9134 117.136 46.8446C116.959 46.7758 116.797 46.6707 116.663 46.5361C116.528 46.4014 116.423 46.2402 116.354 46.0628C116.285 45.8853 116.254 45.6954 116.263 45.5052C116.263 44.2572 117.328 43.6484 119.033 43.6484V43.5266C119.033 43.0396 118.881 42.3699 117.998 42.3699C117.579 42.3689 117.168 42.4849 116.811 42.7048L116.628 42.1264C117.084 41.8412 117.613 41.6932 118.15 41.7003C119.52 41.7003 119.885 42.6439 119.885 43.6788V45.6574C119.883 46.0448 119.913 46.4318 119.977 46.8141H119.185ZM119.033 44.2572C118.242 44.2267 117.146 44.3789 117.146 45.3834C117.146 46.3879 117.511 46.2662 117.937 46.2662C118.181 46.2671 118.418 46.1869 118.611 46.038C118.804 45.8892 118.942 45.6803 119.003 45.4443C119.027 45.3552 119.038 45.2627 119.033 45.1704V44.2572Z" fill="#1E384B"/>
<path d="M121.103 39.5391H121.955V46.8141H121.103V39.5391Z" fill="#1E384B"/>
<path d="M125.973 39.8435V42.7961H128.926V39.8435H129.778V46.8141H128.926V43.5571H125.973V46.8141H125.09V39.8435H125.973Z" fill="#1E384B"/>
<path d="M131.574 44.4702C131.574 45.7791 132.305 46.2357 133.126 46.2357C133.545 46.2391 133.959 46.1562 134.344 45.9922L134.496 46.6314C134.015 46.8331 133.495 46.9267 132.974 46.9054C131.544 46.9054 130.722 45.9009 130.722 44.4094C130.722 42.9178 131.544 41.7003 132.883 41.7003C134.222 41.7003 134.74 43.0396 134.74 44.0137C134.748 44.1665 134.738 44.3198 134.709 44.4702H131.574ZM133.887 43.831C133.918 43.1309 133.613 42.3699 132.792 42.3699C131.97 42.3699 131.635 43.1614 131.574 43.831H133.887Z" fill="#1E384B"/>
<path d="M138.149 46.8141L138.088 46.2053H138.058C137.907 46.4305 137.703 46.615 137.464 46.7425C137.225 46.8699 136.959 46.9363 136.688 46.9358C136.498 46.9445 136.308 46.9134 136.13 46.8446C135.953 46.7758 135.792 46.6707 135.657 46.5361C135.522 46.4014 135.417 46.2402 135.348 46.0628C135.28 45.8853 135.249 45.6954 135.257 45.5052C135.257 44.2572 136.323 43.6484 137.997 43.6484V43.5266C137.997 43.0396 137.875 42.3699 136.962 42.3699C136.552 42.3644 136.149 42.481 135.805 42.7048L135.622 42.1264C136.067 41.842 136.586 41.6939 137.114 41.7003C138.484 41.7003 138.879 42.6439 138.879 43.6788V45.6574C138.868 46.044 138.888 46.4309 138.94 46.8141H138.149ZM138.027 44.2572C137.205 44.2267 136.14 44.3789 136.14 45.3834C136.14 46.3879 136.505 46.2662 136.901 46.2662C137.148 46.2687 137.39 46.1895 137.588 46.041C137.786 45.8924 137.93 45.6827 137.997 45.4443C137.997 45.353 138.027 45.2617 138.027 45.1704V44.2572Z" fill="#1E384B"/>
<path d="M140.067 39.5391H140.949V46.8141H140.067V39.5391Z" fill="#1E384B"/>
<path d="M143.263 40.4218V41.822H144.45V42.4917H143.263V45.2617C143.263 45.9009 143.445 46.2053 143.872 46.2053L144.359 46.1444V46.8141C144.122 46.8844 143.875 46.9152 143.628 46.9054C143.282 46.9233 142.942 46.8028 142.684 46.5706C142.441 46.2966 142.35 45.8705 142.35 45.2617V42.4917H141.619V41.822H142.35V40.6349L143.263 40.4218Z" fill="#1E384B"/>
<path d="M145.211 39.5391H146.063V42.5221H146.094C146.238 42.2867 146.437 42.0886 146.672 41.9438C146.928 41.7861 147.223 41.7019 147.524 41.7003C148.194 41.7003 149.107 42.1569 149.107 43.7397V46.8141H148.224V43.831C148.224 43.1005 147.981 42.4308 147.22 42.4308C146.967 42.4419 146.724 42.5335 146.527 42.6923C146.33 42.8511 146.189 43.0688 146.124 43.3135C146.087 43.4526 146.066 43.5957 146.063 43.7397V46.8141H145.211V39.5391Z" fill="#1E384B"/>
<path d="M36.9379 56.4329C37.3616 56.6859 37.8447 56.8224 38.3381 56.8286C39.2209 56.8286 39.7383 56.3416 39.7383 55.6415C39.7383 54.9414 39.3426 54.6066 38.5207 54.2413C37.6989 53.876 36.8466 53.2368 36.8466 52.2932C36.8466 51.3496 37.6989 50.4059 38.9773 50.4059C39.4522 50.3908 39.9233 50.4955 40.3471 50.7103L40.1036 51.4409C39.7514 51.2398 39.3525 51.1348 38.9469 51.1365C38.0642 51.1365 37.7293 51.6844 37.7293 52.1714C37.7293 52.6584 38.125 53.1455 39.0078 53.5412C39.8905 53.9369 40.5906 54.637 40.5906 55.5806C40.5906 56.5242 39.7992 57.5592 38.3077 57.5592C37.7455 57.5623 37.1913 57.4264 36.6944 57.1635L36.9379 56.4329Z" fill="#1E384B"/>
<path d="M42.1126 55.124C42.143 56.4329 42.8431 56.8895 43.665 56.8895C44.0839 56.8995 44.4998 56.8163 44.8826 56.646L45.0348 57.2852C44.5636 57.4844 44.0545 57.578 43.5433 57.5592C42.1126 57.5592 41.2603 56.5547 41.2603 55.0632C41.2603 53.5716 42.1126 52.3541 43.4215 52.3541C44.7304 52.3541 45.3087 53.6934 45.3087 54.6674C45.3087 54.8805 45.2783 55.0023 45.2783 55.124H42.1126ZM44.4564 54.4848C44.4564 53.7847 44.1825 53.0237 43.3606 53.0237C42.5388 53.0237 42.1735 53.8151 42.1126 54.4848H44.4564Z" fill="#1E384B"/>
<path d="M46.161 53.9369C46.161 53.4194 46.161 52.902 46.1306 52.4758H46.8916L46.9525 53.389H46.9829C47.0596 53.1037 47.2245 52.8499 47.4541 52.664C47.6838 52.4781 47.9663 52.3696 48.2614 52.3541H48.4744V53.2064H48.2309C47.6221 53.2064 47.196 53.6934 47.0742 54.3326C47.0477 54.473 47.0375 54.616 47.0438 54.7588V57.4679H46.161V53.9369Z" fill="#1E384B"/>
<path d="M49.7529 52.4758L50.6356 55.2762C50.7878 55.7024 50.8791 56.1285 51.0009 56.5547H51.0313C51.1227 56.1285 51.2444 55.7024 51.3662 55.2762L52.2489 52.4758H53.1621L51.3662 57.4679H50.5443L48.8397 52.4758H49.7529Z" fill="#1E384B"/>
<path d="M54.745 51.106C54.7494 51.1791 54.7383 51.2524 54.7123 51.3209C54.6863 51.3893 54.6461 51.4515 54.5943 51.5033C54.5425 51.5551 54.4804 51.5953 54.4119 51.6213C54.3434 51.6473 54.2702 51.6584 54.197 51.6539C54.1264 51.6541 54.0566 51.6397 53.9917 51.6119C53.9269 51.584 53.8684 51.5431 53.8199 51.4918C53.7715 51.4405 53.734 51.3798 53.7099 51.3134C53.6857 51.2471 53.6754 51.1765 53.6796 51.106C53.6754 51.0316 53.6865 50.957 53.7122 50.887C53.7379 50.817 53.7776 50.7529 53.8289 50.6988C53.8802 50.6446 53.942 50.6015 54.0105 50.5721C54.0791 50.5427 54.1529 50.5276 54.2275 50.5277C54.3009 50.5272 54.3735 50.5423 54.4407 50.572C54.5078 50.6017 54.5678 50.6454 54.6167 50.7001C54.6657 50.7548 54.7024 50.8193 54.7245 50.8893C54.7466 50.9593 54.7536 51.0331 54.745 51.106ZM53.7709 57.4679V52.4758H54.6536V57.4679H53.7709Z" fill="#1E384B"/>
<path d="M59.0978 57.3157C58.7063 57.4925 58.279 57.5759 57.8498 57.5592C56.48 57.5592 55.5364 56.5851 55.5364 55.0327C55.5364 53.4803 56.5104 52.3845 58.0324 52.3845C58.4091 52.3719 58.7837 52.4447 59.1282 52.5976L58.9456 53.2977C58.6677 53.1411 58.3509 53.0672 58.0324 53.0846C56.967 53.0846 56.4496 53.9673 56.4496 54.9718C56.4496 55.9763 57.0888 56.8591 58.002 56.8591C58.3391 56.8673 58.6732 56.7942 58.976 56.646L59.0978 57.3157Z" fill="#1E384B"/>
<path d="M60.3458 55.124C60.3458 56.4329 61.0763 56.8895 61.8982 56.8895C62.3165 56.8929 62.731 56.81 63.1158 56.646L63.268 57.2852C62.7968 57.4844 62.2877 57.578 61.7765 57.5592C60.3154 57.5592 59.4935 56.5547 59.4935 55.0632C59.4935 53.5716 60.3154 52.3541 61.6547 52.3541C62.994 52.3541 63.5115 53.6934 63.5115 54.6674C63.5199 54.8203 63.5097 54.9736 63.4811 55.124H60.3458ZM62.6896 54.4848C62.6896 53.7847 62.4157 53.0237 61.5634 53.0237C60.7111 53.0237 60.4067 53.8151 60.3458 54.4848H62.6896Z" fill="#1E384B"/>
<path d="M64.2725 56.5851C64.6022 56.7906 64.98 56.9061 65.3683 56.92C65.9467 56.92 66.251 56.5851 66.251 56.159C66.251 55.7328 66.038 55.5198 65.4292 55.2154C64.8204 54.911 64.1812 54.3935 64.1812 53.8151C64.1812 53.2368 64.8204 52.3541 65.7945 52.3541C66.1907 52.3504 66.5803 52.4557 66.9207 52.6584L66.7076 53.2977C66.4355 53.1214 66.1187 53.0263 65.7945 53.0237C65.6992 53.0106 65.6022 53.0182 65.5101 53.0459C65.418 53.0736 65.3329 53.1209 65.2607 53.1844C65.1885 53.2479 65.1308 53.3263 65.0916 53.4141C65.0524 53.502 65.0326 53.5972 65.0335 53.6934C65.0335 54.0891 65.277 54.2717 65.8858 54.5457C66.4946 54.8196 67.1034 55.3371 67.1034 56.0677C67.1034 56.7982 66.4032 57.5592 65.3379 57.5592C64.8884 57.5725 64.4446 57.4563 64.0594 57.2244L64.2725 56.5851Z" fill="#1E384B"/>
<path d="M70.9387 55.3067L70.269 57.4679H69.3863L71.5475 50.4972H72.552L74.6828 57.4679H73.7696L73.1304 55.3067H70.9387ZM72.9477 54.637L72.3694 52.6889C72.2292 52.2398 72.1173 51.7823 72.0345 51.3191H72.0041C71.9128 51.7757 71.791 52.2323 71.6693 52.6889L71.0909 54.637H72.9477Z" fill="#1E384B"/>
<path d="M79.2791 50.1929V56.2199C79.2791 56.6156 79.2791 57.133 79.3095 57.4679H78.5486L78.4877 56.6764H78.4573C78.3259 56.9584 78.1143 57.1953 77.8491 57.3577C77.5838 57.5201 77.2766 57.6008 76.9657 57.5896C75.8699 57.5896 75.0176 56.5851 75.0176 55.0327C75.0176 53.4803 75.9612 52.3541 77.057 52.3541C77.322 52.3393 77.5857 52.4001 77.8175 52.5294C78.0492 52.6588 78.2394 52.8513 78.3659 53.0846H78.3964V50.1929H79.2791ZM78.3964 54.4544C78.4001 54.3319 78.3899 54.2093 78.3659 54.0891C78.3173 53.8145 78.1759 53.565 77.9654 53.3821C77.7548 53.1993 77.4879 53.0943 77.2092 53.0846C76.3569 53.0846 75.9003 53.9369 75.9003 55.0023C75.9003 56.0677 76.3265 56.8591 77.2092 56.8591C77.4896 56.8552 77.7596 56.7522 77.9713 56.5684C78.183 56.3845 78.3228 56.1317 78.3659 55.8546C78.3911 55.7345 78.4013 55.6119 78.3964 55.4893V54.4544Z" fill="#1E384B"/>
<path d="M80.4967 53.8151C80.4967 53.2672 80.4662 52.8715 80.4358 52.4758H81.1968L81.2577 53.2064H81.2881C81.421 52.9431 81.6261 52.7231 81.8795 52.5721C82.1329 52.4212 82.424 52.3456 82.7188 52.3541C83.0087 52.3526 83.2917 52.4431 83.5269 52.6127C83.7621 52.7823 83.9374 53.0221 84.0277 53.2977C84.1697 53.0529 84.3554 52.8362 84.5756 52.6584C84.8607 52.4581 85.2012 52.3517 85.5496 52.3541C86.2193 52.3541 87.0716 52.8106 87.0716 54.4239V57.4679H86.2193V54.5457C86.2193 53.6934 85.9453 53.0846 85.2452 53.0846C85.0214 53.1009 84.8079 53.1855 84.6337 53.327C84.4595 53.4686 84.3329 53.6602 84.2712 53.876C84.2359 54.0259 84.2155 54.1788 84.2103 54.3326V57.4679H83.358V54.3935C83.358 53.6629 83.084 53.0846 82.4144 53.0846C82.173 53.1002 81.9436 53.1953 81.7619 53.355C81.5802 53.5147 81.4564 53.73 81.4099 53.9673C81.3555 54.113 81.3347 54.2691 81.349 54.4239V57.4679H80.4967V53.8151Z" fill="#1E384B"/>
<path d="M89.2328 51.106C89.2429 51.1804 89.2356 51.256 89.2116 51.327C89.1876 51.3981 89.1476 51.4627 89.0946 51.5157C89.0415 51.5687 88.977 51.6088 88.9059 51.6328C88.8348 51.6567 88.7592 51.664 88.6849 51.6539C88.6143 51.6541 88.5444 51.6397 88.4796 51.6119C88.4147 51.584 88.3563 51.5431 88.3078 51.4918C88.2593 51.4405 88.2219 51.3798 88.1977 51.3134C88.1736 51.2471 88.1633 51.1765 88.1674 51.106C88.1633 51.0316 88.1744 50.957 88.2001 50.887C88.2257 50.817 88.2654 50.7529 88.3167 50.6988C88.368 50.6446 88.4298 50.6015 88.4984 50.5721C88.5669 50.5427 88.6407 50.5276 88.7153 50.5277C88.7887 50.5272 88.8614 50.5423 88.9285 50.572C88.9956 50.6017 89.0556 50.6454 89.1046 50.7001C89.1535 50.7548 89.1903 50.8193 89.2124 50.8893C89.2345 50.9593 89.2414 51.0331 89.2328 51.106ZM88.2892 57.4679V52.4758H89.1415V57.4679H88.2892Z" fill="#1E384B"/>
<path d="M90.3591 53.8151C90.3591 53.2672 90.3591 52.8715 90.3286 52.4758H91.0896L91.1505 53.2368H91.1809C91.3226 52.9653 91.5374 52.7388 91.8009 52.5829C92.0644 52.4269 92.3663 52.3477 92.6724 52.3541C93.3726 52.3541 94.2553 52.8106 94.2553 54.3631V57.4679H93.403V54.4848C93.403 53.7543 93.1595 53.0846 92.368 53.0846C92.1133 53.0938 91.8693 53.1891 91.6758 53.355C91.4823 53.5209 91.3507 53.7475 91.3027 53.9978C91.2631 54.1364 91.2426 54.2798 91.2418 54.4239V57.4679H90.3591V53.8151Z" fill="#1E384B"/>
<path d="M96.4469 51.106C96.4514 51.1791 96.4402 51.2524 96.4143 51.3209C96.3883 51.3893 96.3481 51.4515 96.2963 51.5033C96.2445 51.5551 96.1823 51.5953 96.1138 51.6213C96.0454 51.6473 95.9721 51.6584 95.899 51.6539C95.8284 51.6541 95.7586 51.6397 95.6937 51.6119C95.6289 51.584 95.5704 51.5431 95.5219 51.4918C95.4734 51.4405 95.436 51.3798 95.4118 51.3134C95.3877 51.2471 95.3774 51.1765 95.3816 51.106C95.3729 51.0331 95.3799 50.9593 95.402 50.8893C95.4241 50.8193 95.4608 50.7548 95.5098 50.7001C95.5587 50.6454 95.6188 50.6017 95.6859 50.572C95.753 50.5423 95.8256 50.5272 95.899 50.5277C95.9736 50.5276 96.0474 50.5427 96.116 50.5721C96.1845 50.6015 96.2463 50.6446 96.2976 50.6988C96.3489 50.7529 96.3886 50.817 96.4143 50.887C96.44 50.957 96.4511 51.0316 96.4469 51.106ZM95.4729 57.4679V52.4758H96.3556V57.4679H95.4729Z" fill="#1E384B"/>
<path d="M97.421 56.5851C97.7507 56.7906 98.1285 56.9061 98.5168 56.92C99.1256 56.92 99.43 56.5851 99.43 56.159C99.43 55.7328 99.1865 55.5197 98.5777 55.2154C97.9689 54.911 97.3297 54.3935 97.3297 53.8151C97.3297 53.2368 97.9689 52.3541 98.9734 52.3541C99.3685 52.359 99.7559 52.4637 100.1 52.6584L99.8561 53.2977C99.5863 53.1164 99.268 53.021 98.943 53.0237C98.8477 53.0106 98.7507 53.0182 98.6586 53.0459C98.5665 53.0736 98.4814 53.1209 98.4092 53.1844C98.337 53.2479 98.2793 53.3263 98.2401 53.4141C98.2009 53.502 98.1811 53.5972 98.182 53.6934C98.182 54.0891 98.4255 54.2717 99.0343 54.5457C99.6431 54.8196 100.252 55.3371 100.252 56.0677C100.252 56.7982 99.5822 57.5592 98.4864 57.5592C98.0369 57.5725 97.5931 57.4563 97.2079 57.2244L97.421 56.5851Z" fill="#1E384B"/>
<path d="M102.2 51.0756V52.4758H103.418V53.1455H102.2V55.9155C102.2 56.5547 102.413 56.8591 102.839 56.8591L103.326 56.7982V57.4679C103.079 57.5378 102.822 57.5686 102.565 57.5592C102.229 57.5722 101.9 57.4519 101.652 57.2244C101.409 56.9504 101.317 56.5243 101.317 55.9155V53.1455H100.587V52.4758H101.317V51.2887L102.2 51.0756Z" fill="#1E384B"/>
<path d="M104.148 53.9369C104.148 53.4194 104.148 52.902 104.118 52.4758H104.879L104.94 53.389H104.97C105.047 53.1037 105.212 52.8499 105.441 52.664C105.671 52.4781 105.953 52.3696 106.248 52.3541H106.461V53.2064H106.218C105.609 53.2064 105.183 53.6934 105.061 54.3326C105.035 54.473 105.025 54.616 105.031 54.7588V57.4679H104.148V53.9369Z" fill="#1E384B"/>
<path d="M109.597 57.4679L109.536 56.8591H109.505C109.359 57.0883 109.156 57.2759 108.916 57.4038C108.676 57.5318 108.408 57.5958 108.136 57.5896C107.945 57.5983 107.756 57.5672 107.578 57.4984C107.401 57.4295 107.239 57.3245 107.105 57.1898C106.97 57.0552 106.865 56.894 106.796 56.7165C106.727 56.5391 106.696 56.3492 106.705 56.159C106.705 54.911 107.77 54.3022 109.445 54.3022V54.1804C109.445 53.6934 109.323 53.0237 108.41 53.0237C107.999 53.0182 107.597 53.1348 107.253 53.3586L107.07 52.7802C107.515 52.4958 108.034 52.3477 108.562 52.3541C109.932 52.3541 110.327 53.2977 110.327 54.3326V56.3112C110.327 56.7069 110.358 57.133 110.388 57.4679H109.597ZM109.475 54.911C108.653 54.8805 107.588 55.0327 107.588 56.0372C107.588 57.0417 107.953 56.92 108.349 56.92C108.596 56.9225 108.838 56.8433 109.036 56.6948C109.234 56.5462 109.378 56.3365 109.445 56.0981C109.469 56.009 109.48 55.9165 109.475 55.8241V54.911Z" fill="#1E384B"/>
<path d="M112.519 51.0756V52.4758H113.706V53.1455H112.519V55.9155C112.519 56.5547 112.702 56.8591 113.158 56.8591L113.615 56.7982V57.4679C113.378 57.5405 113.131 57.5714 112.884 57.5592C112.717 57.571 112.549 57.5473 112.392 57.4896C112.234 57.4319 112.091 57.3415 111.971 57.2244C111.728 56.9504 111.636 56.5243 111.636 55.9155V53.1455H110.906V52.4758H111.636V51.2887L112.519 51.0756Z" fill="#1E384B"/>
<path d="M115.441 51.106C115.446 51.1791 115.434 51.2524 115.408 51.3209C115.383 51.3893 115.342 51.4515 115.291 51.5033C115.239 51.5551 115.177 51.5953 115.108 51.6213C115.04 51.6473 114.966 51.6584 114.893 51.6539C114.823 51.6541 114.753 51.6397 114.688 51.6119C114.623 51.584 114.565 51.5431 114.516 51.4918C114.468 51.4405 114.43 51.3798 114.406 51.3134C114.382 51.2471 114.372 51.1765 114.376 51.106C114.367 51.0331 114.374 50.9593 114.396 50.8893C114.418 50.8193 114.455 50.7548 114.504 50.7001C114.553 50.6454 114.613 50.6017 114.68 50.572C114.747 50.5423 114.82 50.5272 114.893 50.5277C114.968 50.5276 115.042 50.5427 115.11 50.5721C115.179 50.6015 115.241 50.6446 115.292 50.6988C115.343 50.7529 115.383 50.817 115.408 50.887C115.434 50.957 115.445 51.0316 115.441 51.106ZM114.467 57.4679V52.4758H115.35V57.4679H114.467Z" fill="#1E384B"/>
<path d="M120.646 54.9414C120.646 56.8286 119.49 57.5896 118.424 57.5896C117.359 57.5896 116.233 56.646 116.233 55.0023C116.233 53.3586 117.267 52.3541 118.485 52.3541C119.703 52.3541 120.646 53.3586 120.646 54.9414ZM117.115 54.9718C117.115 56.0068 117.602 56.92 118.455 56.92C119.307 56.92 119.764 55.9763 119.764 54.9718C119.764 53.9673 119.429 53.0237 118.455 53.0237C117.481 53.0237 117.115 54.0891 117.115 54.9718Z" fill="#1E384B"/>
<path d="M121.559 53.8151C121.559 53.2672 121.529 52.8715 121.499 52.4758H122.29V53.2368H122.32C122.465 52.9676 122.68 52.743 122.943 52.5874C123.206 52.4318 123.506 52.3511 123.812 52.3541C124.512 52.3541 125.425 52.8106 125.425 54.3631V57.4679H124.543V54.4848C124.543 53.7543 124.299 53.0846 123.538 53.0846C123.281 53.0975 123.035 53.1936 122.838 53.3583C122.64 53.5229 122.501 53.7474 122.442 53.9978C122.403 54.1364 122.382 54.2798 122.381 54.4239V57.4679H121.529L121.559 53.8151Z" fill="#1E384B"/>
<path d="M77.9389 6.72583C78.2023 6.61269 78.4782 6.53095 78.7607 6.48232H85.427C86.2793 6.48232 86.6141 6.87803 86.5228 7.73033L84.1485 25.5983C83.8137 27.9725 83.5093 30.3468 83.2049 32.6906C83.0831 33.4212 82.9918 34.1517 83.8746 34.5779L83.8137 34.7301C83.619 34.8094 83.414 34.8606 83.2049 34.8823H77.9389C76.8431 34.8823 76.5082 34.3953 76.6909 33.2994L79.5217 15.9794C79.547 15.7917 79.5151 15.6008 79.4304 15.4315L78.1824 17.5318L68.4418 34.2735C68.3559 34.4865 68.2017 34.665 68.0033 34.7807C67.8049 34.8964 67.5737 34.9429 67.346 34.9127C66.1588 34.8518 64.9413 34.8823 63.6019 34.8823L64.9717 15.4924L64.8499 15.4315C64.7103 15.6445 64.5881 15.8685 64.4847 16.1012L56.266 32.5689C55.7486 33.5734 55.8094 33.9082 56.7835 34.6996C56.5608 34.7959 56.3247 34.8575 56.0834 34.8823H51.2435C49.8737 34.8823 49.5694 34.3648 50.2086 33.1472L55.1398 23.7415L62.7496 9.34362C62.9881 8.9178 63.1528 8.45466 63.2366 7.97385C63.2975 7.69989 63.054 7.36506 62.9323 7.06067L62.7192 6.69539C62.8515 6.58784 63.0083 6.51464 63.1758 6.48232H69.4158C70.4812 6.51276 70.7552 6.75627 70.6943 7.85209C70.5117 11.931 70.2682 16.0403 70.0551 20.1192C69.9837 21.2034 69.9736 22.2908 70.0246 23.3762C70.5421 22.4326 71.09 21.4889 71.6379 20.5453C73.7687 16.8317 75.8994 13.1181 77.9998 9.4045C78.1824 9.10011 78.3042 8.82615 78.4564 8.52176C78.6085 8.21736 78.9129 7.2433 77.9389 6.72583Z" fill="#1E384B"/>
<path d="M105.091 21.4585H102.138C100.342 21.4585 98.5463 21.4889 96.7504 21.4585C96.5697 21.4304 96.385 21.4711 96.2329 21.5725C96.0807 21.674 95.9721 21.8288 95.9286 22.0064C94.5588 25.5983 93.1281 29.1597 91.7584 32.7211C91.3931 33.6647 91.4844 33.9995 92.4585 34.6996C92.1923 34.7915 91.9166 34.8528 91.6366 34.8823H86.0358C84.5747 34.8823 84.3311 34.5474 84.8486 33.2081L92.2454 14.6401C92.9759 12.8442 93.676 11.0787 94.3761 9.28274C94.5719 8.85984 94.6954 8.40713 94.7414 7.94341C94.7175 7.63628 94.6349 7.3366 94.4979 7.06067C94.4675 6.90847 94.3457 6.72583 94.3761 6.66495C94.4261 6.60906 94.487 6.56401 94.5551 6.5326C94.6231 6.50118 94.6969 6.48407 94.7719 6.48232H100.768C101.529 6.48232 101.803 6.93891 101.499 7.73033C100.738 9.73933 99.9466 11.7483 99.1551 13.7573L97.9376 16.9535H106.187C106.674 16.9535 106.948 16.8317 107.13 16.3447C108.043 13.9704 109.018 11.6266 109.931 9.2523C110.205 8.46088 110.783 7.63901 109.9 6.84759C109.87 6.84759 110.022 6.51276 110.144 6.48232C110.318 6.41566 110.507 6.39471 110.692 6.42144H115.745C117.236 6.45188 117.449 6.72583 116.901 8.0956L109.505 27.0594C108.774 28.977 108.013 30.8643 107.282 32.7515C107.039 33.3908 106.978 33.9995 107.648 34.4257C107.739 34.4866 107.739 34.6083 107.8 34.6996C107.659 34.7864 107.505 34.8482 107.343 34.8823H101.56C100.129 34.8823 99.8857 34.517 100.403 33.2081L102.686 27.4855C103.478 25.5069 104.239 23.5588 105.091 21.4585Z" fill="#1E384B"/>
<path d="M154.068 34.6388C153.814 34.7507 153.549 34.8324 153.276 34.8823H148.163C147.128 34.8823 146.762 34.4866 146.854 33.4516L147.31 28.3378C147.325 28.2063 147.325 28.0736 147.31 27.9421L147.189 27.8508H138.392C138.274 27.8754 138.162 27.923 138.063 27.9909C137.964 28.0589 137.879 28.1457 137.813 28.2465C136.656 29.7685 135.5 31.3209 134.374 32.8733C133.826 33.6038 133.917 33.9691 134.708 34.4257C134.8 34.4866 134.83 34.5779 134.921 34.6692C135.013 34.7605 134.708 34.8823 134.617 34.8823H128.59C127.677 34.8823 127.372 34.3953 127.829 33.6038C128.278 32.8977 128.766 32.2169 129.29 31.5644L146.154 9.5567C146.388 9.23603 146.602 8.90049 146.793 8.5522C147.28 7.69989 147.249 7.45638 146.458 6.69539C146.682 6.59531 146.917 6.52372 147.158 6.48232H154.829C155.742 6.48232 156.077 6.81715 155.986 7.73033C155.772 9.98285 155.498 12.2354 155.255 14.4879C154.707 19.3582 154.129 24.1981 153.581 29.0684C153.459 30.3468 153.307 31.6253 153.155 32.9037C153.094 33.5734 153.094 34.2431 154.068 34.6388ZM149.137 12.692L148.984 12.6311C146.367 16.2534 143.779 19.8757 141.131 23.5893H147.95L149.137 12.692Z" fill="#1E384B"/>
<path d="M49.3258 34.791C49.1151 34.8363 48.9016 34.8668 48.6866 34.8823H43.8467C42.5683 34.8518 42.2335 34.4561 42.3552 33.1777C42.477 31.8992 42.69 29.8902 42.8422 28.2161C42.8441 28.0835 42.8339 27.9511 42.8118 27.8203H34.2279C34.0217 27.808 33.8161 27.8526 33.6336 27.9492C33.4511 28.0458 33.2986 28.1908 33.193 28.3682C32.1276 29.8598 31.0013 31.3209 29.9055 32.8124C29.2967 33.6647 29.4489 34.1213 30.5752 34.6083C30.3012 34.7301 30.149 34.8823 29.9664 34.8823H23.9394C23.2393 34.8823 22.9653 34.4561 23.2393 33.7865C23.3942 33.4248 23.5991 33.0866 23.8481 32.782L41.6247 9.58714C41.9337 9.17389 42.2086 8.73614 42.4465 8.27824C42.7205 7.73033 42.7509 7.18242 41.8377 6.78671C42.0758 6.65 42.332 6.54753 42.5987 6.48232H50.3912C51.2435 6.48232 51.5784 6.81715 51.487 7.73033C51.2435 10.1046 50.9696 12.4789 50.6956 14.8532C50.1173 20.0887 49.5085 25.3243 48.9301 30.5294L48.6562 32.782C48.5953 33.4821 48.5649 34.1822 49.3867 34.5779L49.3258 34.791ZM36.6326 23.5893H43.451C43.8467 19.9061 44.2425 16.2838 44.6686 12.6311L44.486 12.5702L36.6326 23.5893Z" fill="#1E384B"/>
<path d="M32.0667 6.51276C31.5797 7.73033 31.1535 8.91747 30.636 10.0133C30.4782 10.3463 30.2277 10.6267 29.9146 10.821C29.6015 11.0154 29.239 11.1154 28.8706 11.1091L24.2438 11.2004H22.5392C22.0554 11.1842 21.5732 11.2634 21.1201 11.4336C20.667 11.6039 20.2519 11.8617 19.8985 12.1925C19.5452 12.5233 19.2604 12.9204 19.0607 13.3613C18.8609 13.8022 18.75 14.2781 18.7342 14.7618C18.6429 15.6446 18.9169 16.3751 19.7692 16.71L23.7263 18.2928C24.2742 18.5059 24.8221 18.6885 25.37 18.932C27.3486 19.8757 28.1096 21.215 27.6834 23.3457C27.1051 26.3897 25.9484 29.2206 23.9089 31.5948C23.0873 32.6141 22.0493 33.4379 20.87 34.0065C19.6907 34.5751 18.3997 34.8742 17.0905 34.8823C13.1334 34.9432 9.17626 34.9127 5.21914 34.8823C4.00157 34.8823 3.75805 34.4561 4.21464 33.3299C4.67123 32.2036 5.37134 30.3773 5.98013 28.9162C6.13927 28.6569 6.33395 28.4213 6.55848 28.2161C6.80199 29.8598 6.95419 30.1337 8.75011 30.1946C11.0331 30.2555 13.316 30.2251 15.6294 30.1946C17.9428 30.1642 20.1649 27.7899 20.104 25.5374C20.0736 24.5633 19.6474 23.8328 18.7647 23.4675C17.8819 23.1022 16.7557 22.7065 15.7512 22.3717C14.7467 22.0369 14.3205 21.9455 13.6204 21.6411C11.581 20.7888 10.5765 18.8407 11.1853 16.7404C11.9595 14.0319 13.321 11.5272 15.1728 9.4045C16.8166 7.48682 19.1299 6.63451 21.5651 6.5432C25.0048 6.391 28.4444 6.51276 32.0667 6.51276Z" fill="#1E384B"/>
<path d="M110.935 28.2161C111.148 30.1337 111.818 30.1642 113.066 30.1946C115.41 30.2555 117.754 30.2251 120.067 30.1946C122.38 30.1642 124.572 27.729 124.45 25.4461C124.42 24.6546 124.115 23.9545 123.385 23.5893C122.654 23.224 121.802 22.9196 120.98 22.6152C120.158 22.3108 119.245 22.1282 118.393 21.7933C115.927 20.9106 114.892 18.8712 115.653 16.3751C116.458 13.8701 117.74 11.5444 119.428 9.52626C121.132 7.48682 123.537 6.63451 126.094 6.51276C129.473 6.391 132.882 6.48232 136.504 6.48232C135.895 7.85209 135.469 9.16098 134.769 10.3481C134.069 11.5353 133.095 11.2004 132.121 11.2004H126.946C124.816 11.2004 123.324 12.5702 123.111 14.701C123.02 15.6446 123.294 16.3751 124.176 16.7708L126.855 17.8667C127.859 18.2624 128.925 18.5363 129.929 19.0234C131.786 19.967 132.486 21.3063 132.06 23.3457C131.451 26.5114 130.264 29.4032 128.103 31.8383C127.304 32.7634 126.319 33.5098 125.213 34.029C124.106 34.5482 122.902 34.8286 121.68 34.8518C117.662 34.9432 113.614 34.9127 109.596 34.8823C108.409 34.8823 108.135 34.4561 108.591 33.3299C109.048 32.2036 109.748 30.3773 110.357 28.9162C110.448 28.6726 110.692 28.5204 110.935 28.2161Z" fill="#1E384B"/>
</svg>
