<svg width="160" height="56" viewBox="0 0 160 56" fill="none" xmlns="http://www.w3.org/2000/svg">
<path d="M16.7368 15.2744C19.6481 15.2744 22.4229 16.2524 24.4244 17.9355V15.7975H30.2469V36.2446C30.2469 45.2969 25.6298 49.8912 16.5321 49.8912C12.097 49.8912 8.41239 48.1854 5.27368 44.7055L4.59135 43.9322L9.27667 40.2476L9.89077 40.9982C12.2107 43.9095 14.8263 44.5236 16.6231 44.5236C21.6041 44.5236 24.1514 42.4311 24.4016 38.1324C22.3546 39.8837 19.9892 40.6115 16.6003 40.6115C8.82179 40.6115 4 33.993 4 27.8747C4 20.915 9.70881 15.2744 16.7368 15.2744ZM72.9606 15.7975L79.5565 31.673L86.2206 15.7975H92.5207L77.8052 49.8685H71.6187L76.2358 39.0194L66.4103 15.7975H72.9606ZM56.4256 15.2744C63.3626 15.2744 67.8432 18.6633 67.8887 23.9172V40.3159H62.2936V39.0422C60.5423 40.2704 58.5408 40.839 56.0616 40.839C49.6933 40.839 45.2354 37.1089 45.2354 31.764C45.2354 27.5563 48.6243 23.0302 56.0162 23.0302C58.2224 23.0302 60.2693 23.5988 62.0206 24.6451V24.2357C62.0206 21.2789 58.8592 20.6648 56.2209 20.6648C54.2876 20.6648 52.4453 21.1197 50.3983 22.1204L49.534 22.5298L46.9184 17.5034L47.8965 17.094C50.8077 15.8658 53.6053 15.2744 56.4256 15.2744ZM46.6228 15.2744V21.5973L45.4401 21.3016C44.8715 21.1879 44.3483 21.1197 43.8707 21.1197C41.0277 21.1197 39.4128 23.0984 39.4128 26.5328V40.3386H33.5676V15.7975H39.4128V17.1167C41.1414 15.4336 43.0519 15.2744 45.6448 15.2744H46.6228ZM56.7212 28.3979C53.2868 28.3979 51.3081 29.6943 51.3081 31.946C51.3081 34.1977 53.2868 35.4941 56.7212 35.4941C60.1556 35.4941 62.1344 34.1977 62.1344 31.946C62.1344 29.6943 60.1556 28.3979 56.7212 28.3979ZM17.3964 20.8695C12.8248 20.8695 10.0955 24.4404 10.0955 27.8747C10.0955 32.651 13.8028 35.2211 17.2827 35.2211C21.2174 35.2211 24.4244 32.0142 24.4019 28.1022C24.4019 24.1674 21.1947 20.8695 17.3964 20.8695Z" fill="#A6AFBD"/>
<path d="M142.877 16.0707C146.357 16.0707 149.905 17.5263 151.838 20.3238H151.929V16.6393H156V36.9726C156 45.661 151.838 50.1871 142.695 50.1871C138.533 50.1871 134.871 48.6405 131.686 45.1151L134.939 42.545C137.441 45.661 140.329 46.6162 142.763 46.6162C149.109 46.6162 151.906 43.4548 151.906 38.2008V36.5178H151.838C149.609 39.1788 147.312 40.498 142.74 40.498C134.825 40.498 130.595 33.6975 130.595 28.2161C130.595 21.3701 136.213 16.0707 142.877 16.0707ZM115.06 16.0934C122.475 16.0934 127.82 21.8022 127.82 28.4435C127.82 35.1986 122.748 40.7709 115.06 40.7709C107.373 40.7709 102.301 35.1986 102.301 28.4435C102.278 21.8022 107.623 16.0934 115.06 16.0934ZM97.6838 5.81299V32.8559C97.6838 35.517 99.003 36.4268 100.299 36.4268H101.528V40.2251H99.8445C96.0917 40.2251 93.5898 38.0871 93.5898 33.1516V5.81299H97.6838ZM115.038 19.8917C110.534 19.8917 106.622 23.5535 106.622 28.4435C106.622 32.9697 110.512 36.9499 115.038 36.9499C119.564 36.9499 123.453 32.9697 123.453 28.4435C123.453 23.5535 119.564 19.8917 115.038 19.8917ZM143.604 19.8917C138.078 19.8917 134.962 24.2813 134.962 28.2161C134.962 33.652 139.215 36.9044 143.468 36.9044C148.131 36.9044 151.929 33.1516 151.929 28.4435C151.929 23.69 148.04 19.8917 143.604 19.8917Z" fill="#FF3633"/>
<path d="M109.671 27.7612C110.012 27.7612 110.308 27.9431 110.467 28.2388H111.217L112.4 25.3958C112.446 25.2593 112.582 25.1456 112.719 25.1001C112.969 25.0546 113.219 25.1911 113.264 25.4413L114.515 30.9454L115.789 23.5308C115.812 23.3488 115.948 23.2123 116.13 23.1668C116.38 23.0986 116.631 23.2578 116.699 23.508L118.063 29.0804L118.769 27.0106C118.791 26.9197 118.859 26.8287 118.95 26.7604C119.155 26.624 119.451 26.6695 119.587 26.8742L120.179 27.7157C120.201 27.9204 120.201 28.1251 120.201 28.3298C120.201 28.6027 120.179 28.8757 120.156 29.1258C120.065 29.1031 119.997 29.0349 119.928 28.9666L119.337 28.1478L118.427 30.8999C118.336 31.1501 118.086 31.2638 117.836 31.1956C117.677 31.1501 117.563 31.0136 117.54 30.8772L116.312 25.9189L115.016 33.4473C114.97 33.6974 114.743 33.8567 114.493 33.8339C114.288 33.8112 114.151 33.652 114.106 33.4473L112.719 27.0789L111.968 28.8757C111.9 29.0576 111.718 29.1713 111.536 29.1713H110.467C110.308 29.4443 110.012 29.6262 109.671 29.6262C109.17 29.6262 108.738 29.2168 108.738 28.6937C108.761 28.1933 109.17 27.7612 109.671 27.7612Z" fill="#A6AFBD"/>
</svg>
