<svg width="160" height="56" viewBox="0 0 160 56" fill="none" xmlns="http://www.w3.org/2000/svg">
<path d="M44.3645 35.4372C44.2906 35.4372 44.1784 35.4301 44.0631 35.3917C43.964 35.3624 43.7334 35.2966 43.423 34.5341C43.0589 33.623 42.2833 31.5985 41.8191 30.388C41.6341 29.9046 41.5006 29.5537 41.4642 29.4627C41.3671 29.2089 41.3085 29.0774 41.1578 29.0774C41.001 29.0774 40.9454 29.2332 40.8524 29.49L38.9411 34.7141C38.7915 35.1318 38.6438 35.3816 38.3415 35.421C38.2788 35.4291 38.1675 35.4372 38.1129 35.4372C37.9774 35.4372 37.9066 35.5272 37.9066 35.6172C37.9066 35.7476 38.0047 35.8144 38.1968 35.8144C38.4648 35.8144 38.7631 35.8022 38.9583 35.7952C39.0493 35.7921 39.1181 35.7881 39.1474 35.7881C39.1838 35.7881 39.2627 35.7942 39.3568 35.7972C39.5024 35.8053 39.6824 35.8144 39.8037 35.8144C40.0414 35.8144 40.0596 35.6627 40.0596 35.6172C40.0596 35.5343 40.0039 35.4372 39.8462 35.4372H39.7623C39.6996 35.4372 39.5721 35.4089 39.5721 35.3219C39.5721 35.1864 39.6116 34.9983 39.6824 34.8001L40.1809 33.3318H41.9243L42.6939 35.3674C42.707 35.4018 42.708 35.423 42.707 35.4321C42.6261 35.4615 42.5756 35.5272 42.5756 35.6091C42.5756 35.778 42.7546 35.7871 42.9113 35.7962L42.9548 35.7972C43.5373 35.8144 44.1531 35.8144 44.2795 35.8144C44.5495 35.8144 44.5778 35.6768 44.5778 35.6172C44.5778 35.5868 44.5687 35.4372 44.3645 35.4372ZM41.72 32.7705H40.3761L41.0213 30.7864L41.72 32.7705ZM53.2372 35.4372C53.1593 35.4372 52.954 35.4372 52.7305 35.3674C52.4626 35.2804 52.4019 34.9174 52.3645 34.5847L51.8012 29.4192C51.7901 29.309 51.7658 29.0764 51.5706 29.0764C51.42 29.0764 51.3573 29.219 51.3269 29.2857L48.9687 34.3228L46.5154 29.2787C46.4881 29.217 46.4234 29.0764 46.2707 29.0764C46.1746 29.0764 46.0664 29.1462 46.0482 29.3424L45.4435 34.8294L45.4394 34.8628C45.405 35.1864 45.3737 35.3836 45.2099 35.4149C45.0966 35.4372 45.046 35.4372 44.9833 35.4372C44.859 35.4372 44.769 35.509 44.769 35.6091C44.769 35.6708 44.7953 35.8134 45.042 35.8134C45.1876 35.8134 45.405 35.8033 45.5648 35.7962C45.6528 35.7921 45.7216 35.7881 45.7479 35.7881C45.7691 35.7881 45.8227 35.7911 45.8955 35.7952C46.0583 35.8022 46.3162 35.8134 46.5316 35.8134C46.7631 35.8134 46.8127 35.7021 46.8127 35.6091C46.8127 35.512 46.7257 35.4372 46.6155 35.4372C46.573 35.4372 46.4567 35.4281 46.3212 35.3988C46.2545 35.3836 46.207 35.328 46.207 35.2632C46.207 35.1227 46.207 34.975 46.2151 34.8466L46.5134 31.378C46.8167 32.0404 47.3921 33.2691 47.4498 33.3874L47.5388 33.5643C47.7542 33.9962 48.2578 35.0054 48.4358 35.3411L48.4529 35.3745C48.6289 35.7082 48.6764 35.7972 48.8109 35.7972C48.9596 35.7972 49.0061 35.6991 49.1467 35.4018L51.0862 31.286L51.4503 35.2016C51.4604 35.2875 51.4594 35.3512 51.4553 35.3856C51.3653 35.4321 51.3573 35.5191 51.3573 35.5504C51.3573 35.7325 51.5706 35.7517 51.7112 35.7628C52.0358 35.7891 52.951 35.8134 53.128 35.8134C53.4111 35.8134 53.4344 35.6566 53.4344 35.6091C53.4344 35.5909 53.4283 35.4372 53.2372 35.4372ZM57.6776 34.4189C57.5178 34.4189 57.4875 34.5807 57.4733 34.6535C57.4157 34.9963 57.3196 35.0994 57.172 35.1611C56.9778 35.244 56.6127 35.244 56.4155 35.244C55.6197 35.244 55.5904 35.154 55.5691 34.6777C55.5631 34.5534 55.5661 34.0113 55.5681 33.6159L55.5691 32.5753C55.8229 32.5794 56.4974 32.5966 56.6886 32.6158C56.9646 32.6451 56.996 32.7523 57.0152 32.8211C57.0435 32.9111 57.0435 32.9798 57.0435 33.0597C57.0435 33.1811 57.1214 33.265 57.2316 33.265C57.4207 33.265 57.4207 33.0466 57.4207 32.9758C57.4207 32.9212 57.4369 32.6117 57.4541 32.4489C57.4693 32.2811 57.4895 32.1648 57.5036 32.0879C57.5158 32.0293 57.5218 31.9898 57.5218 31.9656C57.5218 31.8301 57.4359 31.7694 57.3499 31.7694C57.2589 31.7694 57.2033 31.8331 57.1275 31.9201C57.085 31.9676 56.997 31.9807 56.817 31.9959C56.6855 32.008 56.101 32.0121 55.5691 32.0131L55.5701 29.7823C55.832 29.7843 56.5167 29.7934 56.6289 29.8065C57.0506 29.852 57.086 29.935 57.1204 30.0128C57.1507 30.0846 57.1608 30.204 57.1608 30.2656C57.1608 30.4932 57.3257 30.5053 57.358 30.5053C57.4025 30.5053 57.5087 30.4861 57.5441 30.3031C57.5562 30.2363 57.5684 30.0513 57.5765 29.9067C57.5815 29.8328 57.5856 29.7691 57.5876 29.7418C57.6017 29.6093 57.622 29.5214 57.6361 29.4607C57.6472 29.4081 57.6563 29.3707 57.6563 29.3313C57.6563 29.131 57.5087 29.127 57.4925 29.127C57.4369 29.127 57.3954 29.1482 57.3439 29.1735C57.2963 29.1846 57.178 29.2018 57.0071 29.2109C56.8575 29.218 55.7289 29.22 55.0938 29.22L54.746 29.2028C54.5599 29.1947 54.3313 29.1947 54.1352 29.1947C53.9056 29.1947 53.8712 29.3181 53.8712 29.3909C53.8712 29.4931 53.9582 29.5709 54.0674 29.5709C54.1493 29.5709 54.2757 29.58 54.3263 29.5932C54.5255 29.6356 54.572 29.6993 54.5872 29.9542C54.6024 30.2201 54.6024 30.4558 54.6024 31.7633V33.2448C54.6024 34.0295 54.6024 34.7091 54.5629 35.0529C54.5285 35.2997 54.4911 35.3917 54.4163 35.4058C54.3374 35.425 54.2505 35.4372 54.1948 35.4372C54.0654 35.4372 53.9976 35.5272 53.9976 35.6172C53.9976 35.691 54.031 35.8144 54.2616 35.8144C54.3222 35.8144 54.3971 35.8113 54.478 35.8063C54.567 35.8022 54.662 35.7972 54.7561 35.7972C54.93 35.7881 55.0696 35.7881 55.0868 35.7881C55.2111 35.7881 55.4114 35.7972 55.739 35.8144L55.8947 35.8194C56.2092 35.8275 56.6259 35.8397 57.1649 35.8397C57.4945 35.8397 57.6594 35.8397 57.7443 35.5211C57.7888 35.3411 57.8576 34.7596 57.8576 34.6747C57.8576 34.4633 57.7595 34.4189 57.6776 34.4189ZM67.6657 35.4372C67.601 35.4372 67.423 35.423 67.3037 35.4028C67.1601 35.3856 67.1136 35.3108 67.0873 35.0549C67.0468 34.7091 67.0468 34.0295 67.0468 33.2438V31.7633C67.0468 30.4558 67.0468 30.2201 67.063 29.9542C67.0802 29.6508 67.152 29.6154 67.2652 29.5942C67.3563 29.579 67.4018 29.5709 67.4554 29.5709C67.5656 29.5709 67.6526 29.492 67.6526 29.3909C67.6526 29.3171 67.6182 29.1947 67.3876 29.1947C67.2066 29.1947 66.885 29.2079 66.6989 29.215C66.6261 29.218 66.5756 29.22 66.5634 29.22C66.5513 29.22 66.5028 29.218 66.433 29.215C66.2469 29.2079 65.9142 29.1947 65.713 29.1947C65.4834 29.1947 65.449 29.3171 65.449 29.3909C65.449 29.492 65.536 29.5709 65.6462 29.5709C65.6917 29.5709 65.7908 29.577 65.8788 29.6013C65.9587 29.6195 66.0467 29.6629 66.0639 29.9542C66.079 30.2201 66.079 30.4558 66.079 31.7633V33.2438C66.079 34.0295 66.079 34.7091 66.0396 35.0519C66.0052 35.2997 65.9678 35.3917 65.893 35.4058C65.8141 35.425 65.7271 35.4372 65.6715 35.4372H65.3803C65.3327 35.4372 65.2225 35.4372 65.0729 35.4129C64.8615 35.3795 64.5339 35.2825 64.1203 34.8466C63.6976 34.3946 63.2031 33.7595 62.6307 33.0264L62.4507 32.7958C63.1141 32.1567 63.4235 31.5327 63.4235 30.838C63.4235 30.211 63.0241 29.757 62.7894 29.5891C62.3051 29.2412 61.7003 29.1947 61.1735 29.1947C61.0086 29.1947 60.6952 29.2038 60.4605 29.2119C60.324 29.216 60.2148 29.22 60.1804 29.22C60.1703 29.22 60.1309 29.218 60.0712 29.216C59.8861 29.2089 59.515 29.1947 59.2298 29.1947C58.9993 29.1947 58.9659 29.3171 58.9659 29.3909C58.9659 29.492 59.0519 29.5709 59.1621 29.5709C59.244 29.5709 59.3694 29.58 59.421 29.5922C59.6202 29.6356 59.6657 29.6993 59.6809 29.9542C59.697 30.2201 59.697 30.4558 59.697 31.7633V33.2438C59.697 34.0295 59.697 34.7091 59.6566 35.0519C59.6232 35.2997 59.5868 35.3917 59.512 35.4058C59.4321 35.425 59.3441 35.4372 59.2875 35.4372C59.1591 35.4372 59.0913 35.5272 59.0913 35.6172C59.0913 35.691 59.1257 35.8134 59.3552 35.8134C59.5706 35.8134 59.9822 35.7962 60.1127 35.7911L60.1471 35.7881C60.1562 35.7881 60.1905 35.7901 60.2421 35.7921C60.4262 35.7992 60.8236 35.8134 61.1816 35.8134C61.4334 35.8134 61.4465 35.6506 61.4465 35.6172C61.4465 35.5272 61.3788 35.4372 61.2493 35.4372C61.1856 35.4372 61.0056 35.423 60.8873 35.4028C60.7437 35.3856 60.6972 35.3108 60.6709 35.0549C60.6304 34.7091 60.6304 34.0295 60.6304 33.2438V33.1063L61.6002 33.1214C61.672 33.2165 61.7883 33.3742 61.9248 33.5633C62.1028 33.8091 62.3172 34.1044 62.5174 34.3663L62.6216 34.5048C63.0514 35.0721 63.3355 35.4473 63.6945 35.6384C63.9413 35.7719 64.1749 35.8134 64.6562 35.8134H65.2539H65.7383C65.9193 35.8134 66.2398 35.8012 66.4259 35.7931C66.4997 35.7911 66.5503 35.7881 66.5634 35.7881C66.5725 35.7881 66.6069 35.7901 66.6585 35.7921C66.8425 35.7992 67.241 35.8134 67.5979 35.8134C67.8497 35.8134 67.8629 35.6506 67.8629 35.6172C67.8629 35.5272 67.7951 35.4372 67.6657 35.4372ZM60.6304 29.761C60.7123 29.7438 60.9025 29.7216 61.131 29.7216C61.9612 29.7216 62.4567 30.3031 62.4567 31.2749C62.4567 31.824 62.2858 32.2689 61.9997 32.4651C61.8237 32.5865 61.5972 32.6016 61.4425 32.6016C61.0693 32.6016 60.7194 32.541 60.6304 32.4955V29.761ZM74.1913 34.0315C74.0214 34.0315 73.9911 34.2014 73.9799 34.2662C73.9577 34.3976 73.8566 34.7425 73.7019 34.9032C73.3954 35.2188 72.9333 35.2845 72.3326 35.2845C70.5124 35.2845 69.4243 33.7848 69.4243 32.3347C69.4243 31.6359 69.5092 30.84 70.1433 30.2323C70.5427 29.844 71.1454 29.6538 71.9878 29.6538C72.727 29.6538 73.3338 29.8874 73.5866 30.1038C73.7706 30.2596 73.894 30.565 73.894 30.8633C73.894 30.9543 73.894 31.1677 74.0912 31.1677C74.2752 31.1677 74.2904 30.9604 74.2965 30.8704C74.2995 30.8188 74.3015 30.7096 74.3036 30.5801C74.3076 30.3951 74.3106 30.1676 74.3207 30.0047C74.3309 29.8237 74.345 29.7175 74.3531 29.6468C74.3602 29.5922 74.3632 29.5547 74.3632 29.5244C74.3632 29.4496 74.3349 29.3222 74.1326 29.3029C73.8748 29.2868 73.6088 29.2372 73.2893 29.1775C72.7816 29.0855 72.2507 29.0764 72.0464 29.0764C70.8886 29.0764 70.0189 29.3828 69.3889 30.0138C68.6658 30.7359 68.408 31.7208 68.408 32.4024C68.408 33.4865 68.7649 34.3572 69.4688 34.9892C70.1837 35.6313 71.0948 35.9307 72.3326 35.9307C72.8423 35.9307 73.5208 35.8781 73.8991 35.7274C74.0871 35.6435 74.1276 35.598 74.1903 35.4008C74.2762 35.1075 74.3804 34.3683 74.3804 34.2874C74.3794 34.0427 74.2216 34.0315 74.1913 34.0315ZM81.0132 35.4372C80.9374 35.4372 80.8271 35.4301 80.7129 35.3917C80.6127 35.3624 80.3822 35.2966 80.0727 34.5341C79.7137 33.6392 78.9492 31.645 78.4932 30.4527C78.2939 29.936 78.1493 29.5578 78.1119 29.4627C78.0159 29.2089 77.9562 29.0774 77.8055 29.0774C77.6498 29.0774 77.5942 29.2311 77.4991 29.49L75.5888 34.7141C75.4392 35.1318 75.2915 35.3816 74.9902 35.421C74.9265 35.4291 74.8152 35.4372 74.7606 35.4372C74.6261 35.4372 74.5564 35.5272 74.5564 35.6172C74.5564 35.7476 74.6524 35.8144 74.8446 35.8144C75.1125 35.8144 75.4119 35.8022 75.6081 35.7952C75.6981 35.7921 75.7668 35.7881 75.7962 35.7881C75.8316 35.7881 75.9114 35.7942 76.0045 35.7972C76.1501 35.8053 76.3301 35.8144 76.4525 35.8144C76.6901 35.8144 76.7083 35.6627 76.7083 35.6172C76.7083 35.5343 76.6527 35.4372 76.4939 35.4372H76.41C76.3483 35.4372 76.2199 35.4089 76.2199 35.3219C76.2199 35.1854 76.2603 34.9963 76.3321 34.8001L76.8286 33.3318H78.573L79.3436 35.3664C79.3558 35.4008 79.3558 35.423 79.3558 35.4321C79.2749 35.4615 79.2243 35.5272 79.2243 35.6091C79.2243 35.778 79.4033 35.7871 79.559 35.7962L79.6025 35.7972C80.186 35.8144 80.8029 35.8144 80.9293 35.8144C81.1972 35.8144 81.2266 35.6768 81.2266 35.6172C81.2266 35.5868 81.2165 35.4372 81.0132 35.4372ZM78.3678 32.7705H77.0238L77.671 30.7864L78.3678 32.7705ZM88.2143 29.1947C87.9848 29.1947 87.7835 29.2048 87.647 29.2129C87.5793 29.216 87.5287 29.22 87.4983 29.22C87.469 29.22 87.4063 29.216 87.3224 29.2139C87.1464 29.2059 86.8805 29.1947 86.6246 29.1947C86.5427 29.1947 86.3263 29.1947 86.3263 29.3818C86.3263 29.4971 86.4042 29.5709 86.5225 29.5709C86.5821 29.5709 86.7662 29.579 86.9017 29.6093C87.0564 29.6498 87.1242 29.7246 87.1333 30.2859L87.2182 34.2196C87.0827 34.073 86.9088 33.8839 86.7146 33.6685C86.3354 33.2529 85.8712 32.7442 85.4324 32.272C84.1602 30.9108 82.885 29.5315 82.7515 29.3838C82.7303 29.3616 82.707 29.3353 82.6807 29.307C82.5523 29.1644 82.4684 29.0774 82.3652 29.0774C82.1438 29.0774 82.1438 29.3555 82.1438 29.6265L82.1347 34.4482C82.1347 35.1368 82.0983 35.3573 81.9719 35.3927C81.8728 35.425 81.7453 35.4372 81.6665 35.4372C81.531 35.4372 81.4703 35.5302 81.4703 35.6172C81.4703 35.7072 81.5158 35.8134 81.7352 35.8134C81.9982 35.8134 82.2489 35.8022 82.4047 35.7952C82.5301 35.7871 82.5382 35.7881 82.6605 35.7931C82.8173 35.8012 83.0893 35.8134 83.4351 35.8134C83.6667 35.8134 83.7153 35.7072 83.7153 35.6172C83.7153 35.5302 83.6546 35.4372 83.5191 35.4372C83.4402 35.4372 83.2703 35.4271 83.1348 35.3917C83.0165 35.3563 82.9184 35.2693 82.8992 34.5362L82.8001 30.8613C83.2056 31.3133 83.966 32.1557 84.7619 33.0132C85.6296 33.9466 86.8613 35.2056 86.9614 35.2956C87.464 35.8002 87.5459 35.872 87.6672 35.872C87.8725 35.872 87.8725 35.7031 87.8725 35.1459L87.8887 30.2161C87.8887 29.666 87.9433 29.6255 88.1011 29.5922C88.188 29.5709 88.2345 29.5709 88.273 29.5709C88.4186 29.5709 88.4944 29.4759 88.4944 29.3818C88.4944 29.1947 88.2841 29.1947 88.2143 29.1947ZM97.892 35.4372C97.8182 35.4372 97.7069 35.4301 97.5916 35.3917C97.4935 35.3624 97.263 35.2966 96.9535 34.5341C96.5966 33.6422 95.8341 31.6541 95.379 30.4669C95.1778 29.942 95.0301 29.5578 94.9927 29.4627C94.8956 29.2089 94.838 29.0774 94.6863 29.0774C94.5296 29.0774 94.4729 29.2311 94.3799 29.49L92.4707 34.7141C92.319 35.1318 92.1723 35.3816 91.87 35.421C91.8073 35.4291 91.6971 35.4372 91.6404 35.4372C91.5059 35.4372 91.4372 35.5272 91.4372 35.6172C91.4372 35.7476 91.5332 35.8144 91.7264 35.8144C91.9944 35.8144 92.2927 35.8022 92.4868 35.7952C92.5779 35.7921 92.6466 35.7881 92.676 35.7881C92.7134 35.7881 92.7912 35.7942 92.8843 35.7972C93.0309 35.8053 93.2109 35.8144 93.3312 35.8144C93.5709 35.8144 93.5881 35.6627 93.5881 35.6172C93.5881 35.5343 93.5325 35.4372 93.3737 35.4372H93.2898C93.2291 35.4372 93.0997 35.4089 93.0997 35.3219C93.0997 35.1854 93.1401 34.9963 93.2119 34.8001L93.7094 33.3318H95.4528L96.2234 35.3664C96.2366 35.4008 96.2366 35.423 96.2345 35.4321C96.1547 35.4615 96.1061 35.5272 96.1061 35.6091C96.1061 35.778 96.2831 35.7871 96.4398 35.7962L96.4833 35.7972C97.0668 35.8144 97.6816 35.8144 97.808 35.8144C98.077 35.8144 98.1064 35.6768 98.1064 35.6172C98.1064 35.5868 98.0963 35.4372 97.892 35.4372ZM95.2476 32.7705H93.9046L94.5518 30.7864L95.2476 32.7705ZM103.642 34.0315C103.471 34.0315 103.441 34.2014 103.43 34.2662C103.407 34.3976 103.306 34.7425 103.153 34.9032C102.845 35.2188 102.383 35.2845 101.782 35.2845C99.963 35.2845 98.8739 33.7848 98.8739 32.3347C98.8739 31.6359 98.9609 30.84 99.5919 30.2323C99.9934 29.844 100.596 29.6538 101.437 29.6538C102.176 29.6538 102.784 29.8874 103.037 30.1038C103.22 30.2596 103.345 30.565 103.345 30.8633C103.345 30.9543 103.345 31.1677 103.541 31.1677C103.726 31.1677 103.739 30.9604 103.746 30.8704C103.75 30.8198 103.751 30.7157 103.753 30.5913C103.757 30.4052 103.761 30.1706 103.771 30.0047C103.782 29.8227 103.795 29.7145 103.804 29.6437C103.81 29.5911 103.813 29.5547 103.813 29.5244C103.813 29.4496 103.785 29.3222 103.581 29.3029C103.324 29.2868 103.058 29.2372 102.739 29.1775C102.23 29.0855 101.7 29.0764 101.496 29.0764C100.339 29.0764 99.4695 29.3828 98.8385 30.0138C98.1155 30.7359 97.8576 31.7229 97.8576 32.4024C97.8576 33.4885 98.2156 34.3582 98.9204 34.9892C99.6354 35.6313 100.544 35.9307 101.782 35.9307C102.292 35.9307 102.971 35.8781 103.348 35.7274C103.537 35.6435 103.577 35.598 103.64 35.4008C103.726 35.1075 103.83 34.3683 103.83 34.2874C103.83 34.0427 103.673 34.0315 103.642 34.0315ZM110.58 35.4372C110.506 35.4372 110.396 35.4301 110.28 35.3917C110.182 35.3624 109.95 35.2966 109.642 34.5341C109.285 33.6422 108.521 31.6541 108.067 30.4669C107.867 29.942 107.718 29.5578 107.681 29.4627C107.584 29.2089 107.525 29.0774 107.374 29.0774C107.219 29.0774 107.162 29.2311 107.068 29.49L105.159 34.7141C105.007 35.1318 104.861 35.3816 104.558 35.421C104.496 35.4291 104.385 35.4372 104.33 35.4372C104.194 35.4372 104.124 35.5272 104.124 35.6172C104.124 35.7476 104.221 35.8144 104.414 35.8144C104.683 35.8144 104.982 35.8022 105.176 35.7952C105.266 35.7921 105.336 35.7881 105.365 35.7881C105.402 35.7881 105.479 35.7942 105.573 35.7972C105.719 35.8053 105.899 35.8144 106.02 35.8144C106.259 35.8144 106.276 35.6627 106.276 35.6172C106.276 35.5343 106.221 35.4372 106.062 35.4372H105.979C105.917 35.4372 105.789 35.4089 105.789 35.3219C105.789 35.1854 105.829 34.9963 105.9 34.8001L106.399 33.3318H108.141L108.912 35.3664C108.925 35.4008 108.925 35.423 108.924 35.4321C108.843 35.4615 108.794 35.5272 108.794 35.6091C108.794 35.778 108.972 35.7871 109.129 35.7962L109.171 35.7972C109.755 35.8144 110.37 35.8144 110.497 35.8144C110.765 35.8144 110.796 35.6768 110.796 35.6172C110.796 35.5868 110.784 35.4372 110.58 35.4372ZM107.937 32.7705H106.593L107.24 30.7864L107.937 32.7705ZM116.837 30.1928C115.984 29.312 114.784 29.1937 113.721 29.1937L113.369 29.1947C113.019 29.1947 112.657 29.2059 112.433 29.215C112.335 29.218 112.264 29.22 112.234 29.22C112.224 29.22 112.184 29.218 112.126 29.216C111.939 29.2089 111.569 29.1947 111.283 29.1947C111.053 29.1947 111.019 29.3181 111.019 29.3909C111.019 29.4931 111.105 29.5709 111.215 29.5709C111.296 29.5709 111.423 29.58 111.475 29.5932C111.672 29.6356 111.719 29.6993 111.734 29.9542C111.751 30.2201 111.751 30.4558 111.751 31.7633V33.2448C111.751 34.0295 111.751 34.7091 111.711 35.0529C111.675 35.3017 111.64 35.3917 111.565 35.4058C111.483 35.425 111.397 35.4372 111.343 35.4372C111.212 35.4372 111.145 35.5272 111.145 35.6172C111.145 35.691 111.18 35.8144 111.408 35.8144C111.47 35.8144 111.545 35.8113 111.626 35.8063C111.714 35.8022 111.808 35.7972 111.904 35.7972C112.077 35.7881 112.217 35.7881 112.234 35.7881C112.255 35.7901 112.334 35.7952 112.449 35.8053C112.573 35.8144 112.738 35.8265 112.923 35.8397C113.408 35.873 113.804 35.8902 114.101 35.8902C115.203 35.8902 116.116 35.5413 116.745 34.881C117.344 34.249 117.688 33.352 117.688 32.4196C117.688 31.3123 117.226 30.5973 116.837 30.1928ZM114.127 35.3452C113.143 35.3452 112.875 35.1692 112.802 35.061C112.781 35.0286 112.75 34.9012 112.733 34.4907C112.725 34.3471 112.717 33.627 112.717 32.6734V31.6298C112.717 30.9937 112.717 30.1241 112.724 29.8369C112.724 29.8055 112.73 29.7974 112.752 29.7863C112.802 29.7671 113.058 29.7388 113.244 29.7388C114.32 29.7388 115.183 29.8945 115.9 30.6509C116.19 30.9513 116.673 31.6167 116.673 32.6805C116.673 33.4683 116.424 34.2217 116.039 34.5999C115.565 35.0731 114.868 35.3452 114.127 35.3452ZM122.211 34.4189C122.053 34.4189 122.021 34.5807 122.007 34.6535C121.949 34.9953 121.853 35.0994 121.707 35.1611C121.511 35.244 121.146 35.244 120.95 35.244C120.154 35.244 120.124 35.154 120.103 34.6777C120.096 34.5534 120.1 34.0113 120.101 33.6159L120.103 32.5753C120.357 32.5794 121.031 32.5966 121.222 32.6158C121.5 32.6451 121.529 32.7523 121.549 32.8211C121.577 32.9111 121.577 32.9798 121.577 33.0597C121.577 33.1811 121.655 33.265 121.766 33.265C121.954 33.265 121.954 33.0466 121.954 32.9758C121.954 32.9232 121.971 32.6148 121.987 32.4489C122.001 32.2811 122.023 32.1648 122.038 32.0879C122.049 32.0293 122.054 31.9898 122.054 31.9656C122.054 31.8301 121.968 31.7694 121.884 31.7694C121.793 31.7694 121.738 31.8321 121.661 31.9201C121.619 31.9676 121.532 31.9807 121.35 31.9959C121.22 32.008 120.634 32.0121 120.103 32.0131L120.104 29.7823C120.365 29.7843 121.051 29.7934 121.162 29.8065C121.583 29.852 121.619 29.935 121.654 30.0128C121.684 30.0846 121.696 30.204 121.696 30.2656C121.696 30.4932 121.859 30.5053 121.891 30.5053C121.927 30.5053 122.045 30.4912 122.078 30.3071C122.09 30.2394 122.099 30.0947 122.11 29.9107C122.114 29.8349 122.119 29.7701 122.123 29.7418C122.137 29.6093 122.156 29.5214 122.169 29.4607C122.182 29.4081 122.189 29.3707 122.189 29.3313C122.189 29.131 122.044 29.127 122.026 29.127C121.971 29.127 121.929 29.1482 121.879 29.1735C121.829 29.1846 121.714 29.2018 121.541 29.2109C121.39 29.218 120.263 29.22 119.627 29.22L119.28 29.2028C119.094 29.1947 118.863 29.1947 118.67 29.1947C118.44 29.1947 118.405 29.3181 118.405 29.3909C118.405 29.4931 118.491 29.5709 118.601 29.5709C118.682 29.5709 118.809 29.58 118.861 29.5932C119.058 29.6356 119.104 29.6993 119.121 29.9542C119.137 30.2201 119.137 30.4558 119.137 31.7633V33.2448C119.137 34.0295 119.137 34.7091 119.097 35.0529C119.062 35.3017 119.026 35.3917 118.951 35.4058C118.868 35.425 118.783 35.4372 118.728 35.4372C118.599 35.4372 118.532 35.5272 118.532 35.6172C118.532 35.691 118.566 35.8144 118.796 35.8144C118.856 35.8144 118.932 35.8113 119.013 35.8063C119.101 35.8022 119.196 35.7972 119.289 35.7972C119.463 35.7881 119.604 35.7881 119.62 35.7881C119.745 35.7881 119.944 35.7972 120.273 35.8144L120.429 35.8194C120.744 35.8275 121.16 35.8397 121.698 35.8397C122.027 35.8397 122.192 35.8397 122.279 35.5211C122.321 35.3411 122.391 34.7596 122.391 34.6747C122.391 34.4633 122.293 34.4189 122.211 34.4189ZM131.659 35.4372C131.581 35.4372 131.375 35.4372 131.151 35.3674C130.884 35.2804 130.821 34.9174 130.787 34.5847L130.223 29.4192C130.209 29.2989 130.184 29.0764 129.993 29.0764C129.841 29.0764 129.778 29.219 129.747 29.2857L127.39 34.3228L124.935 29.2787C124.91 29.217 124.845 29.0764 124.691 29.0764C124.595 29.0764 124.488 29.1462 124.47 29.3424L123.861 34.8587C123.829 35.1834 123.795 35.3836 123.631 35.4149C123.517 35.4372 123.47 35.4372 123.403 35.4372C123.279 35.4372 123.19 35.509 123.19 35.6091C123.19 35.6708 123.218 35.8134 123.462 35.8134C123.609 35.8134 123.827 35.8033 123.985 35.7962C124.074 35.7921 124.144 35.7881 124.169 35.7881C124.191 35.7881 124.244 35.7911 124.316 35.7952C124.48 35.8022 124.738 35.8134 124.952 35.8134C125.185 35.8134 125.234 35.7021 125.234 35.6091C125.234 35.512 125.147 35.4372 125.037 35.4372C124.993 35.4372 124.877 35.4281 124.742 35.3988C124.676 35.3836 124.627 35.328 124.627 35.2632C124.627 35.1227 124.627 34.973 124.636 34.8466L124.934 31.376C125.236 32.0374 125.81 33.264 125.87 33.3874L125.901 33.447C126.528 34.704 126.766 35.1712 126.857 35.3411L126.877 35.3816C127.046 35.7011 127.097 35.7972 127.233 35.7972C127.382 35.7972 127.429 35.6971 127.569 35.3988L129.508 31.286L129.872 35.2016C129.883 35.2875 129.88 35.3502 129.877 35.3856C129.789 35.4301 129.779 35.512 129.779 35.5504C129.779 35.7325 129.993 35.7517 130.134 35.7628C130.456 35.7891 131.371 35.8134 131.549 35.8134C131.841 35.8134 131.855 35.6425 131.855 35.6091C131.855 35.5909 131.85 35.4372 131.659 35.4372ZM137.214 29.1947C137.112 29.1947 136.824 29.2048 136.618 29.2129C136.505 29.216 136.417 29.22 136.398 29.22C136.375 29.22 136.33 29.216 136.269 29.2129C136.153 29.2048 135.989 29.1947 135.843 29.1947C135.606 29.1947 135.579 29.3191 135.579 29.3737C135.579 29.5092 135.706 29.5517 135.803 29.5841C135.812 29.5861 135.84 29.5942 135.84 29.6943C135.84 29.7995 135.798 29.9238 135.716 30.0553C135.565 30.3021 134.744 31.7188 134.421 32.3286C134.061 31.7208 133.108 30.0776 132.996 29.8763C132.939 29.7711 132.901 29.6852 132.901 29.6093C132.901 29.5952 132.922 29.582 132.934 29.576L132.982 29.5568C133.037 29.5355 133.136 29.4961 133.136 29.3818C133.136 29.3252 133.115 29.1947 132.899 29.1947C132.666 29.1947 132.434 29.2079 132.3 29.215C132.246 29.218 132.209 29.22 132.192 29.22C132.176 29.22 132.099 29.216 131.992 29.2129C131.779 29.2048 131.465 29.1947 131.357 29.1947C131.169 29.1947 131.121 29.312 131.121 29.3818C131.121 29.492 131.21 29.5709 131.334 29.5709C131.378 29.5709 131.511 29.6093 131.622 29.6842C131.782 29.7904 131.984 30.0098 132.159 30.2707C132.467 30.7278 133.571 32.544 133.63 32.6755C133.735 32.9101 133.813 33.0779 133.813 33.5057V34.2287C133.813 34.3602 133.813 34.7111 133.786 35.061C133.779 35.1803 133.748 35.3816 133.625 35.4058C133.547 35.425 133.46 35.4372 133.402 35.4372C133.274 35.4372 133.207 35.5272 133.207 35.6172C133.207 35.691 133.24 35.8134 133.47 35.8134C133.651 35.8134 133.973 35.8012 134.158 35.7931C134.231 35.7911 134.282 35.7881 134.295 35.7881C134.305 35.7881 134.339 35.7901 134.39 35.7921C134.575 35.8002 134.973 35.8134 135.331 35.8134C135.581 35.8134 135.593 35.6506 135.593 35.6172C135.593 35.5272 135.527 35.4372 135.398 35.4372C135.335 35.4372 135.156 35.422 135.034 35.4028C134.907 35.3866 134.821 35.3229 134.804 35.061C134.777 34.7111 134.777 34.3602 134.777 34.2287V33.5057C134.777 33.2306 134.777 32.993 134.896 32.7129C135.037 32.3711 136.201 30.4123 136.481 30.0705C136.668 29.8419 136.75 29.757 136.898 29.67C137.004 29.6023 137.136 29.5709 137.214 29.5709C137.379 29.5709 137.453 29.4688 137.453 29.3737C137.453 29.2908 137.392 29.1947 137.214 29.1947ZM143.649 29.0774C141.14 29.0774 140.206 31.1738 140.206 32.4955C140.206 34.1499 141.269 35.9317 143.602 35.9317C145.62 35.9317 147.086 34.43 147.086 32.361C147.086 30.3961 145.706 29.0774 143.649 29.0774ZM143.592 29.6205C144.761 29.6205 146.02 30.5518 146.02 32.5966C146.02 35.2208 144.193 35.3543 143.827 35.3543C142.318 35.3543 141.264 34.0821 141.264 32.2598C141.264 30.6085 142.134 29.6205 143.592 29.6205ZM151.482 29.126C151.429 29.126 151.389 29.1492 151.359 29.1654C151.346 29.1725 151.336 29.1796 151.325 29.1826C151.282 29.1968 151.188 29.2018 151.088 29.2069L150.989 29.2109C150.855 29.217 149.969 29.222 149.381 29.222C149.152 29.222 148.978 29.221 148.93 29.22L148.585 29.2018C148.398 29.1947 148.167 29.1947 147.975 29.1947C147.745 29.1947 147.709 29.3171 147.709 29.3909C147.709 29.492 147.796 29.5709 147.905 29.5709C147.988 29.5709 148.113 29.58 148.164 29.5922C148.365 29.6356 148.409 29.6983 148.427 29.9532C148.441 30.2191 148.441 30.4558 148.441 31.7623V33.2438C148.441 34.0295 148.441 34.7081 148.401 35.0519C148.366 35.3017 148.331 35.3917 148.256 35.4058C148.173 35.424 148.089 35.4372 148.032 35.4372C147.902 35.4372 147.835 35.5272 147.835 35.6172C147.835 35.691 147.871 35.8134 148.101 35.8134C148.28 35.8134 148.603 35.8002 148.788 35.7931C148.86 35.7901 148.912 35.7881 148.925 35.7881C148.934 35.7881 148.967 35.7891 149.021 35.7921C149.203 35.7992 149.601 35.8134 149.959 35.8134C150.211 35.8134 150.223 35.6495 150.223 35.6172C150.223 35.5272 150.156 35.4372 150.028 35.4372C149.964 35.4372 149.785 35.422 149.664 35.4028C149.52 35.3846 149.475 35.3108 149.45 35.0539C149.406 34.7081 149.406 34.0295 149.406 33.2438L149.409 32.5824C150.029 32.5834 150.469 32.5925 150.591 32.6077C150.788 32.632 150.892 32.7392 150.92 32.8231C150.949 32.903 150.958 33.0001 150.967 33.084C150.967 33.2033 151.043 33.2893 151.156 33.2893C151.344 33.2893 151.344 33.0719 151.344 33.0001C151.344 32.9485 151.358 32.6128 151.377 32.4479C151.391 32.2811 151.412 32.1648 151.428 32.0869C151.44 32.0293 151.443 31.9898 151.443 31.9656C151.443 31.7744 151.291 31.7694 151.273 31.7694C151.179 31.7694 151.126 31.8371 151.075 31.9069C151.033 31.9645 150.984 31.9868 150.782 32.005C150.671 32.0121 150.56 32.0121 150.424 32.0121H150.413L149.406 32.0202L149.409 29.7893L150.644 29.8136C150.927 29.8217 151.076 29.9481 151.105 30.0088C151.146 30.0978 151.168 30.2222 151.168 30.2737C151.168 30.4335 151.262 30.5043 151.356 30.5043C151.392 30.5043 151.516 30.4901 151.551 30.3031C151.563 30.2333 151.575 30.0371 151.584 29.8885C151.587 29.8217 151.591 29.7651 151.595 29.7408C151.608 29.6073 151.628 29.5214 151.642 29.4607C151.655 29.4071 151.662 29.3707 151.662 29.3313C151.662 29.2119 151.587 29.126 151.482 29.126ZM40.006 49.1427C40.0404 50.5473 40.2123 50.9922 40.6744 51.1298C40.999 51.2157 41.3752 51.2319 41.5299 51.2319C41.6149 51.2319 41.6675 51.2663 41.6675 51.3351C41.6675 51.4382 41.5643 51.4726 41.359 51.4726C40.3832 51.4726 39.6986 51.421 39.5438 51.421C39.3891 51.421 38.6701 51.4726 37.9005 51.4726C37.7276 51.4726 37.6255 51.4554 37.6255 51.3351C37.6255 51.2663 37.6771 51.2319 37.763 51.2319C37.9006 51.2319 38.208 51.2157 38.4648 51.1298C38.8926 51.0104 38.9785 50.5139 38.9785 48.9556L38.9957 39.1424C38.9957 38.474 39.0473 38.2869 39.1838 38.2869C39.3203 38.2869 39.6126 38.6631 39.7825 38.834C40.0404 39.1252 42.5917 41.8829 45.2291 44.7083C46.9239 46.5235 48.7907 48.6118 49.3388 49.177L49.1507 40.4783C49.1335 39.3649 49.0142 38.9887 48.4833 38.8522C48.1749 38.7824 47.7815 38.7662 47.6439 38.7662C47.5236 38.7662 47.5064 38.7136 47.5064 38.6449C47.5064 38.5427 47.6439 38.5266 47.8492 38.5266C48.6188 38.5266 49.442 38.5771 49.63 38.5771C49.8181 38.5771 50.3834 38.5266 51.0862 38.5266C51.2733 38.5266 51.3937 38.5427 51.3937 38.6449C51.3937 38.7136 51.3259 38.7662 51.2056 38.7662C51.1206 38.7662 51.0003 38.7662 50.795 38.8178C50.2297 38.9371 50.161 39.3133 50.161 40.3407L50.1266 50.3764C50.1266 51.507 50.0932 51.5919 49.9729 51.5919C49.8353 51.5919 49.63 51.4028 48.7219 50.4957C48.5349 50.3248 46.0684 47.8068 44.2532 45.8551C42.2671 43.7143 40.3316 41.5573 39.7825 40.9404L40.006 49.1427ZM54.392 43.4918C54.392 40.8211 54.392 40.3407 54.3576 39.7936C54.3233 39.2102 54.1867 38.9371 53.6215 38.8178C53.4849 38.7824 53.1937 38.7662 53.039 38.7662C52.9712 38.7662 52.9025 38.7318 52.9025 38.6631C52.9025 38.5609 52.9884 38.5266 53.1765 38.5266C53.5699 38.5266 54.032 38.5266 54.4102 38.5427L55.112 38.5771C55.2314 38.5771 58.6393 38.5771 59.0337 38.5609C59.3593 38.5427 59.6323 38.5083 59.7699 38.474C59.8558 38.4578 59.9236 38.389 60.0085 38.389C60.0611 38.389 60.0783 38.4578 60.0783 38.5427C60.0783 38.6631 59.9923 38.8684 59.9408 39.3477C59.9236 39.5196 59.8902 40.272 59.8558 40.4793C59.8376 40.5642 59.8032 40.6664 59.7355 40.6664C59.6323 40.6664 59.5979 40.5814 59.5979 40.4429C59.5979 40.3246 59.5807 40.0323 59.4958 39.828C59.3765 39.554 59.2046 39.3477 58.2803 39.2445C57.988 39.2102 56.1213 39.194 55.9332 39.194C55.8644 39.194 55.831 39.2445 55.831 39.3649V44.0915C55.831 44.2118 55.8482 44.2624 55.9332 44.2624C56.1567 44.2624 58.2631 44.2624 58.6555 44.228C59.067 44.1936 59.3077 44.1592 59.4614 43.9883C59.5808 43.8518 59.6495 43.7669 59.7183 43.7669C59.7699 43.7669 59.8032 43.8012 59.8032 43.9034C59.8032 44.0065 59.7183 44.2967 59.6667 44.863C59.6323 45.2049 59.5979 45.8379 59.5979 45.9592C59.5979 46.0958 59.5979 46.2828 59.4776 46.2828C59.3927 46.2828 59.3593 46.2151 59.3593 46.1301C59.3593 45.9592 59.3593 45.7863 59.2905 45.5649C59.2207 45.3242 59.067 45.034 58.3996 44.9652C57.9375 44.9136 56.2416 44.8792 55.9504 44.8792C55.8644 44.8792 55.831 44.9308 55.831 44.9996V46.5063C55.831 47.0888 55.8138 49.0749 55.831 49.4339C55.8826 50.6161 56.1395 50.8385 57.8171 50.8385C58.2631 50.8385 59.0155 50.8385 59.4614 50.6504C59.9064 50.4613 60.1117 50.1195 60.232 49.4177C60.2664 49.2286 60.3008 49.1609 60.3867 49.1609C60.4889 49.1609 60.4889 49.2974 60.4889 49.4177C60.4889 49.5542 60.3513 50.7192 60.2664 51.0792C60.146 51.5231 60.0085 51.5231 59.3411 51.5231C58.0568 51.5231 57.1153 51.4898 56.4469 51.4726C55.7795 51.4382 55.3679 51.421 55.112 51.421C55.0777 51.421 54.7864 51.421 54.4264 51.4382C54.0846 51.4382 53.6902 51.4726 53.4334 51.4726C53.2443 51.4726 53.1593 51.4382 53.1593 51.3351C53.1593 51.2845 53.1937 51.2319 53.2968 51.2319C53.4506 51.2319 53.6558 51.1975 53.8106 51.1642C54.1524 51.0954 54.2383 50.7192 54.3061 50.2227C54.392 49.5027 54.392 48.1506 54.392 46.5063V43.4918ZM63.5893 43.4918C63.5893 40.8211 63.5893 40.3407 63.555 39.7936C63.5206 39.2102 63.3831 38.9371 62.8188 38.8178C62.6812 38.7824 62.391 38.7662 62.2363 38.7662C62.1675 38.7662 62.0998 38.7318 62.0998 38.6631C62.0998 38.5609 62.1847 38.5266 62.3738 38.5266C63.1444 38.5266 64.189 38.5771 64.3427 38.5771C64.4964 38.5771 65.5239 38.5266 66.0376 38.5266C66.2267 38.5266 66.3126 38.5609 66.3126 38.6631C66.3126 38.7318 66.2439 38.7662 66.1751 38.7662C66.0548 38.7662 65.9526 38.7824 65.7474 38.8178C65.2852 38.8866 65.1477 39.194 65.1133 39.7936C65.0789 40.3407 65.0789 40.8211 65.0789 43.4918V45.8895C65.0789 48.3559 65.627 49.4177 66.3632 50.1195C67.2025 50.9083 67.9731 51.061 68.95 51.061C69.9936 51.061 71.021 50.5645 71.6379 49.8283C72.4257 48.8524 72.6309 47.3972 72.6309 45.6326V43.4918C72.6309 40.8211 72.6309 40.3407 72.5966 39.7936C72.5622 39.2102 72.4257 38.9371 71.8604 38.8178C71.7239 38.7824 71.4326 38.7662 71.2779 38.7662C71.2101 38.7662 71.1414 38.7318 71.1414 38.6631C71.1414 38.5609 71.2273 38.5266 71.4154 38.5266C72.186 38.5266 73.1275 38.5771 73.2306 38.5771C73.3509 38.5771 74.1549 38.5266 74.6686 38.5266C74.8567 38.5266 74.9427 38.5609 74.9427 38.6631C74.9427 38.7318 74.8739 38.7662 74.8061 38.7662C74.6858 38.7662 74.5837 38.7824 74.3774 38.8178C73.9152 38.9199 73.7787 39.194 73.7443 39.7936C73.7099 40.3407 73.7099 40.8211 73.7099 43.4918V45.3242C73.7099 47.1738 73.5047 49.2286 72.1344 50.4452C70.9017 51.5413 69.6174 51.7122 68.6072 51.7122C68.0247 51.7122 66.2955 51.6445 65.0789 50.4957C64.2396 49.6918 63.5893 48.4924 63.5893 45.9926V43.4918ZM77.6316 43.4908C77.6316 40.8201 77.6316 40.3397 77.5982 39.7926C77.5638 39.2102 77.4263 38.9361 76.862 38.8168C76.7245 38.7814 76.4332 38.7652 76.2785 38.7652C76.2108 38.7652 76.142 38.7318 76.142 38.6631C76.142 38.5599 76.228 38.5255 76.416 38.5255C77.1876 38.5255 78.2656 38.5761 78.3516 38.5761C78.5407 38.5761 79.8412 38.5255 80.3731 38.5255C81.4501 38.5255 82.5978 38.6287 83.5049 39.2789C83.9327 39.5874 84.6881 40.4267 84.6881 41.6088C84.6881 42.8759 84.1562 44.143 82.616 45.5638C84.0196 47.3619 85.1856 48.8868 86.1777 49.9486C87.1009 50.9235 87.8381 51.1126 88.2669 51.1813C88.5915 51.2319 88.8322 51.2319 88.9353 51.2319C89.0183 51.2319 89.088 51.2835 89.088 51.334C89.088 51.4382 88.9869 51.4726 88.6765 51.4726H87.4609C86.5023 51.4726 86.0745 51.3866 85.6285 51.147C84.8934 50.7526 84.2937 49.9142 83.3178 48.6289C82.5978 47.6875 81.7939 46.5397 81.4501 46.0948C81.3813 46.027 81.3307 45.9926 81.2286 45.9926L79.1222 45.9582C79.0372 45.9582 79.0028 46.0088 79.0028 46.0948V46.5053C79.0028 48.1506 79.0028 49.5027 79.0878 50.2217C79.1393 50.7182 79.2425 51.0944 79.7552 51.1631C79.9959 51.1975 80.3731 51.2319 80.5248 51.2319C80.6279 51.2319 80.6643 51.2835 80.6643 51.334C80.6643 51.42 80.5784 51.4726 80.3872 51.4726C79.4478 51.4726 78.3688 51.42 78.2828 51.42C78.2656 51.42 77.1876 51.4726 76.6729 51.4726C76.4838 51.4726 76.3989 51.4382 76.3989 51.334C76.3989 51.2835 76.4332 51.2319 76.5364 51.2319C76.6901 51.2319 76.8954 51.1975 77.0501 51.1631C77.3929 51.0944 77.4779 50.7182 77.5466 50.2217C77.6316 49.5027 77.6316 48.1506 77.6316 46.5053V43.4908ZM79.0028 44.9814C79.0028 45.0673 79.0372 45.1361 79.1222 45.1866C79.379 45.3414 80.1678 45.4617 80.9202 45.4617C81.3307 45.4617 81.8101 45.4101 82.2055 45.1361C82.8031 44.7245 83.2491 43.8002 83.2491 42.4977C83.2491 40.3579 82.1185 39.0736 80.2861 39.0736C79.7734 39.0736 79.3103 39.1252 79.1394 39.1758C79.0534 39.2102 79.0028 39.2789 79.0028 39.3821V44.9814ZM94.7733 38.2869C98.6282 38.2869 101.504 40.7179 101.504 44.7083C101.504 48.543 98.7971 51.7122 94.6722 51.7122C89.98 51.7122 88.0282 48.0647 88.0282 44.9814C88.0282 42.2085 90.0477 38.2869 94.7733 38.2869ZM95.1333 51.061C96.6744 51.061 99.8599 50.1701 99.8599 45.1866C99.8599 41.0779 97.3611 38.8684 94.655 38.8684C91.7941 38.8684 89.6553 40.7523 89.6553 44.503C89.6553 48.4924 92.052 51.061 95.1333 51.061ZM105.891 46.5397C105.891 49.0577 105.96 50.1529 106.266 50.4613C106.542 50.7354 106.985 50.8547 108.321 50.8547C109.231 50.8547 109.982 50.8375 110.394 50.342C110.618 50.0669 110.789 49.6392 110.84 49.3146C110.857 49.176 110.89 49.0911 110.995 49.0911C111.079 49.0911 111.096 49.1599 111.096 49.349C111.096 49.536 110.977 50.5635 110.84 51.06C110.719 51.4544 110.667 51.5231 109.76 51.5231C108.526 51.5231 107.637 51.4888 106.917 51.4726C106.197 51.4382 105.667 51.42 105.171 51.42C105.103 51.42 104.811 51.4382 104.469 51.4382C104.126 51.4544 103.75 51.4726 103.494 51.4726C103.303 51.4726 103.219 51.4382 103.219 51.334C103.219 51.2835 103.253 51.2319 103.357 51.2319C103.509 51.2319 103.717 51.1975 103.868 51.1631C104.213 51.0944 104.297 50.7182 104.365 50.2217C104.451 49.5017 104.451 48.1506 104.451 46.5053V43.4908C104.451 40.8201 104.451 40.3397 104.419 39.7926C104.383 39.2102 104.246 38.9361 103.68 38.8168C103.544 38.7814 103.253 38.7652 103.099 38.7652C103.03 38.7652 102.961 38.7308 102.961 38.6631C102.961 38.5599 103.047 38.5255 103.235 38.5255C104.005 38.5255 105.085 38.5761 105.171 38.5761C105.258 38.5761 106.507 38.5255 107.021 38.5255C107.209 38.5255 107.295 38.5599 107.295 38.6631C107.295 38.7308 107.226 38.7652 107.158 38.7652C107.039 38.7652 106.798 38.7814 106.593 38.8168C106.095 38.9017 105.96 39.193 105.924 39.7926C105.891 40.3397 105.891 40.8201 105.891 43.4908V46.5397ZM118.305 38.2869C122.159 38.2869 125.036 40.7179 125.036 44.7083C125.036 48.543 122.329 51.7122 118.204 51.7122C113.512 51.7122 111.56 48.0647 111.56 44.9814C111.56 42.2085 113.58 38.2869 118.305 38.2869ZM118.665 51.061C120.206 51.061 123.392 50.1701 123.392 45.1866C123.392 41.0779 120.893 38.8684 118.186 38.8684C115.325 38.8684 113.187 40.7523 113.187 44.503C113.187 48.4924 115.584 51.061 118.665 51.061ZM136.75 47.105C136.75 45.7176 136.664 45.5305 135.981 45.3414C135.843 45.307 135.553 45.2898 135.398 45.2898C135.329 45.2898 135.261 45.2554 135.261 45.1866C135.261 45.0845 135.347 45.0501 135.535 45.0501C136.305 45.0501 137.384 45.1017 137.47 45.1017C137.557 45.1017 138.634 45.0501 139.148 45.0501C139.339 45.0501 139.422 45.0845 139.422 45.1866C139.422 45.2554 139.353 45.2898 139.285 45.2898C139.166 45.2898 139.062 45.307 138.858 45.3414C138.396 45.4273 138.259 45.7176 138.223 46.3172C138.19 46.8653 138.19 47.379 138.19 48.098V50.0164C138.19 50.787 138.172 50.8213 137.967 50.9417C136.87 51.5231 135.329 51.7122 134.335 51.7122C133.036 51.7122 130.603 51.5414 128.703 49.8799C127.659 48.9718 126.665 47.1394 126.665 44.9996C126.665 42.2591 128 40.3235 129.524 39.3649C131.067 38.4052 132.762 38.2869 134.081 38.2869C135.16 38.2869 136.373 38.5084 136.7 38.5761C137.061 38.6631 137.658 38.7308 138.086 38.748C138.259 38.7652 138.291 38.834 138.291 38.9017C138.291 39.1414 138.172 39.6217 138.172 41.3338C138.172 41.6088 138.138 41.6938 138.017 41.6938C137.932 41.6938 137.916 41.5906 137.898 41.4359C137.882 41.1973 137.795 40.7179 137.539 40.3064C137.111 39.6561 135.724 38.9199 133.514 38.9199C132.435 38.9199 131.151 39.0231 129.851 40.0505C128.857 40.8373 128.155 42.3956 128.155 44.3999C128.155 46.8138 129.369 48.5612 129.97 49.1427C131.323 50.4613 132.881 50.9761 134.458 50.9761C135.074 50.9761 135.963 50.8719 136.41 50.6161C136.632 50.4967 136.75 50.3066 136.75 50.0164V47.105ZM144.732 47.0372C144.732 46.1119 144.561 45.7358 144.338 45.2392C144.219 44.9652 141.923 41.1973 141.322 40.3064C140.896 39.6733 140.469 39.2445 140.158 39.0393C139.903 38.8684 139.576 38.7662 139.422 38.7662C139.339 38.7662 139.252 38.7318 139.252 38.6459C139.252 38.5771 139.321 38.5266 139.475 38.5266C139.799 38.5266 141.084 38.5771 141.17 38.5771C141.291 38.5771 141.94 38.5266 142.608 38.5266C142.799 38.5266 142.83 38.5771 142.83 38.6459C142.83 38.7136 142.729 38.7318 142.576 38.8006C142.437 38.8684 142.352 38.9715 142.352 39.108C142.352 39.3133 142.437 39.5196 142.576 39.7754C142.849 40.272 145.417 44.6911 145.725 45.1877C146.052 44.4687 148.226 40.7189 148.568 40.1537C148.792 39.7937 148.859 39.5024 148.859 39.2789C148.859 39.0393 148.792 38.8522 148.586 38.8006C148.43 38.748 148.326 38.7136 148.326 38.6287C148.326 38.5609 148.43 38.5266 148.603 38.5266C149.046 38.5266 149.593 38.5771 149.734 38.5771C149.834 38.5771 151.069 38.5266 151.393 38.5266C151.513 38.5266 151.617 38.5609 151.617 38.6287C151.617 38.7136 151.53 38.7662 151.393 38.7662C151.205 38.7662 150.878 38.834 150.604 39.0059C150.263 39.2102 150.075 39.4175 149.697 39.8786C149.132 40.5642 146.735 44.588 146.427 45.3242C146.17 45.941 146.17 46.472 146.17 47.0372V48.5096C146.17 48.7847 146.17 49.5027 146.221 50.2227C146.257 50.7192 146.411 51.0954 146.922 51.1642C147.163 51.1985 147.541 51.2319 147.694 51.2319C147.798 51.2319 147.832 51.2845 147.832 51.3351C147.832 51.421 147.748 51.4726 147.558 51.4726C146.617 51.4726 145.538 51.421 145.451 51.421C145.364 51.421 144.287 51.4726 143.773 51.4726C143.582 51.4726 143.499 51.4392 143.499 51.3351C143.499 51.2845 143.532 51.2319 143.636 51.2319C143.792 51.2319 143.995 51.1985 144.149 51.1642C144.493 51.0954 144.644 50.7192 144.682 50.2227C144.732 49.5027 144.732 48.7847 144.732 48.5096V47.0372ZM151.454 49.7241C151.454 48.4388 152.5 47.4883 153.734 47.4883C154.956 47.4883 156 48.4388 156 49.7241C156 51.0256 154.956 51.9742 153.734 51.9742C152.5 51.9742 151.454 51.0256 151.454 49.7241ZM153.734 51.6C154.75 51.6 155.551 50.8052 155.551 49.7241C155.551 48.6613 154.75 47.8614 153.734 47.8614C152.707 47.8614 151.905 48.6613 151.905 49.7241C151.905 50.8052 152.707 51.6 153.734 51.6ZM153.261 51.0256H152.868V48.4388H153.852C154.463 48.4388 154.766 48.6613 154.766 49.173C154.766 49.6362 154.477 49.8374 154.096 49.8839L154.833 51.0256H154.394L153.711 49.9031H153.261V51.0256ZM153.728 49.5724C154.059 49.5724 154.357 49.5482 154.357 49.1477C154.357 48.8282 154.067 48.7675 153.793 48.7675H153.261V49.5724H153.728Z" fill="#231F20"/>
<path d="M34.5241 14.5325C34.4169 14.6539 33.346 15.6823 31.8645 17.4429C30.383 19.2025 29.5528 20.6283 29.9431 21.1603C30.2242 21.5476 30.9099 21.3018 32.0667 20.8933C32.2043 20.8448 32.3408 20.8549 32.4146 20.9843C32.4854 21.1158 32.4429 21.2654 32.2801 21.3423C31.0302 21.9288 30.9402 22.212 31.2456 22.5244C32.4197 23.7268 41.7495 24.1435 65.6514 24.0979C68.7296 24.0929 71.9889 24.1111 72.1396 24.1111C72.2882 24.1111 72.4136 24.2072 72.4136 24.3599C72.4136 24.5105 72.2882 24.6066 72.1396 24.6066C71.9889 24.6066 68.7296 24.5955 65.6514 24.6005C41.6554 24.6339 32.5137 24.8948 31.2456 26.1922C30.9402 26.5078 31.0302 26.7869 32.2801 27.3754C32.4429 27.4523 32.4854 27.6019 32.4146 27.7334C32.3408 27.8628 32.2043 27.8729 32.0667 27.8234C30.9099 27.4159 30.2242 27.1701 29.9431 27.5564C29.5528 28.0893 30.383 29.5152 31.8645 31.2748C33.346 33.0334 34.4169 34.0638 34.5241 34.1852C34.6313 34.3055 34.6464 34.4602 34.5453 34.5694C34.4412 34.6756 34.2814 34.6554 34.16 34.5492C34.0387 34.442 33.0092 33.3721 31.2496 31.8876C29.4901 30.4081 28.0642 29.5779 27.5313 29.9683C27.145 30.2484 27.3907 30.935 27.7993 32.0929C27.8478 32.2304 27.8377 32.3649 27.7082 32.4398C27.5768 32.5115 27.4271 32.4701 27.3503 32.3063C26.7617 31.0543 26.4816 30.9643 26.1681 31.2697C25.2135 32.2041 24.8707 36.4231 24.7038 39.4892C24.537 42.5523 24.5805 44.2704 24.5805 44.419C24.5805 44.5697 24.4854 44.6931 24.3347 44.6931C24.182 44.6931 24.087 44.5697 24.087 44.419C24.087 44.2704 24.1304 42.5523 23.9646 39.4892C23.7977 36.4231 23.4549 32.2041 22.5003 31.2697C22.1858 30.9643 21.9057 31.0543 21.3171 32.3063C21.2403 32.4701 21.0906 32.5115 20.9592 32.4398C20.8307 32.3649 20.8196 32.2304 20.8692 32.0929C21.2767 30.935 21.5224 30.2484 21.1361 29.9683C20.6032 29.5779 19.1773 30.4081 17.4178 31.8876C15.6582 33.3721 14.6287 34.442 14.5074 34.5492C14.386 34.6554 14.2242 34.6756 14.1231 34.5694C14.0189 34.4602 14.0372 34.3055 14.1443 34.1852C14.2495 34.0638 15.3214 33.0334 16.8029 31.2748C18.2854 29.5152 19.1136 28.0893 18.7243 27.5564C18.4411 27.1701 17.7555 27.4159 16.6007 27.8234C16.4621 27.8729 16.3256 27.8628 16.2548 27.7334C16.182 27.6019 16.2245 27.4523 16.3883 27.3754C17.6362 26.7869 17.7282 26.5078 17.4208 26.1922C16.4904 25.2386 12.2685 24.8948 9.20337 24.729C6.13827 24.5621 4.42319 24.6066 4.27353 24.6066C4.12386 24.6066 4.00049 24.5105 4.00049 24.3599C4.00049 24.2072 4.12386 24.1111 4.27353 24.1111C4.42319 24.1111 6.13827 24.1556 9.20337 23.9897C12.2685 23.8229 16.4904 23.4791 17.4208 22.5244C17.7282 22.212 17.6362 21.9288 16.3883 21.3423C16.2245 21.2654 16.182 21.1158 16.2548 20.9843C16.3256 20.8549 16.4621 20.8448 16.6007 20.8933C17.7555 21.3018 18.4411 21.5476 18.7243 21.1603C19.1136 20.6283 18.2854 19.2025 16.8029 17.4429C15.3214 15.6823 14.2495 14.6539 14.1443 14.5325C14.0372 14.4102 14.0189 14.2544 14.1231 14.1483C14.2242 14.0411 14.386 14.0613 14.5074 14.1685C14.6287 14.2767 15.6582 15.3466 17.4178 16.8291C19.1773 18.3106 20.6032 19.1388 21.1361 18.7494C21.5224 18.4663 21.2767 17.7817 20.8692 16.6258C20.8196 16.4873 20.8307 16.3518 20.9592 16.279C21.0906 16.2072 21.2403 16.2486 21.3171 16.4135C21.9057 17.6623 22.1858 17.7534 22.5003 17.4459C23.4549 16.5146 23.7977 12.2946 23.9646 9.22852C24.1304 6.16241 24.087 4.44834 24.087 4.29867C24.087 4.14901 24.182 4.02563 24.3347 4.02563C24.4854 4.02563 24.5805 4.14901 24.5805 4.29867C24.5805 4.44834 24.537 6.16241 24.7038 9.22852C24.8707 12.2946 25.2135 16.5146 26.1681 17.4459C26.4816 17.7534 26.7617 17.6623 27.3503 16.4135C27.4271 16.2486 27.5768 16.2072 27.7082 16.279C27.8377 16.3518 27.8478 16.4873 27.7993 16.6258C27.3907 17.7817 27.145 18.4663 27.5313 18.7494C28.0642 19.1388 29.4901 18.3106 31.2496 16.8291C33.0092 15.3466 34.0387 14.2767 34.16 14.1685C34.2814 14.0613 34.4412 14.0411 34.5453 14.1483C34.6464 14.2544 34.6313 14.4102 34.5241 14.5325ZM26.8163 24.3417C26.8163 22.9694 25.705 21.858 24.3347 21.858C22.9635 21.858 21.8511 22.9694 21.8511 24.3417C21.8511 25.7109 22.9635 26.8223 24.3347 26.8223C25.705 26.8223 26.8163 25.7109 26.8163 24.3417Z" fill="#B69025"/>
</svg>
