<svg width="160" height="112" viewBox="0 0 160 112" fill="none" xmlns="http://www.w3.org/2000/svg">
<path fill-rule="evenodd" clip-rule="evenodd" d="M109.773 103.658L136.239 55.9611L109.878 8.31677H12.7783C7.92334 8.31677 4 12.2532 4 17.0951V94.8796C4 99.7346 7.93647 103.658 12.7783 103.658H109.773ZM53.337 34.7961V77.4149H45.4903L26.0836 46.0675H25.8999V77.4149H18.788V34.7961H26.6609L46.1071 66.1828H46.2383V34.7961H53.337ZM68.1513 34.7961V77.4149H60.6982V34.7961H68.1513ZM102.49 34.7961H109.943V77.428H102.49V58.2049H83.0836V77.4149H75.6305V34.7961H83.0836V51.7491H102.49V34.7961Z" fill="#5E5F5F"/>
<path d="M142.813 55.9611L116.399 103.684L122.999 103.658C126.608 103.658 131.003 101.073 132.749 97.9239L156 55.948L132.84 14.064C131.095 10.9017 126.7 8.31677 123.091 8.31677H116.491L142.813 55.9611Z" fill="#5E5F5F"/>
</svg>
