<svg width="160" height="56" viewBox="0 0 160 56" fill="none" xmlns="http://www.w3.org/2000/svg">
<path d="M4 20.3602L4.0001 40.4507C4.0001 40.4507 3.85523 51.8897 14.534 51.6362C16.1993 51.5639 22.353 51.8534 23.8734 47.0751C23.8734 46.9665 23.8734 50.7674 23.8734 50.7674H31.258L31.2715 20.3602H23.8868L23.8734 39.1475C23.8734 39.1475 24.0906 45.8806 17.7919 45.5548C11.4933 45.229 11.6019 39.6905 11.6019 39.6905L11.5656 20.3602H4Z" fill="#AEC84D"/>
<path d="M43.2762 51.5635H46.3169L56.2356 27.0206L66.154 51.4912H69.1947L81.5024 6.1699L74.0455 4.28748L66.5883 32.3055L57.7559 10.2243H54.6427L46.0997 32.0883L38.4256 4.28748L31.041 6.1699L43.2762 51.5635Z" fill="#141215"/>
<path d="M81.2852 41.2827C81.2852 41.2827 83.1676 46.9299 86.2806 48.957C89.3937 50.9841 94.6787 51.7803 97.2127 51.708C99.7467 51.6357 112.634 51.4185 112.778 39.4728C113.864 33.3913 108.579 28.9749 107.131 28.1061C105.683 27.2374 100.977 24.1966 97.2127 23.1107C93.448 22.0247 89.7555 19.6355 89.466 17.7533C89.1765 15.8711 89.4662 10.3687 97.5747 10.2962C103.222 10.8757 103.439 13.2648 104.308 14.568L105.828 17.6808L112.054 14.7852C112.054 14.7852 109.593 8.92092 109.013 8.41399C108.434 7.90706 106.118 4.2873 96.9955 4.35984C87.8733 4.43195 82.516 8.19679 82.1539 14.7126C81.7919 21.2285 83.1674 24.2692 89.8281 28.3233C93.9547 30.5678 98.2989 31.0745 102.787 34.4773C105.9 37.0113 105.249 39.9074 105.177 41.138C105.104 42.3686 103.584 45.8437 97.285 45.5542C90.9864 45.2647 89.7557 42.7309 89.3213 42.0068C88.887 41.2827 87.3666 38.3145 87.3666 38.3145L81.2852 41.2827Z" fill="#141215"/>
<path d="M155.998 5.08386H148.324V50.9842H155.998V5.08386Z" fill="#141215"/>
<path d="M132.179 26.5138V32.5227H138.116V44.6856C138.116 44.6856 136.306 45.7718 132.324 45.6269C128.342 45.482 122.043 45.9888 121.537 27.8893C121.03 9.78986 129.645 10.3689 130.659 10.3689C131.672 10.3689 136.74 10.4414 139.346 17.6089C139.419 17.6812 145.573 14.7128 145.573 14.7128C145.573 14.7128 142.894 3.78074 131.021 4.36C119.148 4.93904 114.587 11.0928 113.935 26.5138C113.283 41.9346 118.713 51.9981 131.672 51.4912C144.632 50.9842 145.573 49.8983 145.573 49.8983L145.555 26.5318L132.179 26.5138Z" fill="#141215"/>
<path d="M107.204 15.1475C108.603 15.1475 109.738 14.013 109.738 12.6135C109.738 11.214 108.603 10.0795 107.204 10.0795C105.804 10.0795 104.67 11.214 104.67 12.6135C104.67 14.013 105.804 15.1475 107.204 15.1475Z" fill="#AEC84D"/>
<path d="M107.204 13.3738C107.623 13.3738 107.964 13.0334 107.964 12.6136C107.964 12.1937 107.623 11.8534 107.204 11.8534C106.784 11.8534 106.443 12.1937 106.443 12.6136C106.443 13.0334 106.784 13.3738 107.204 13.3738Z" fill="#252326"/>
<path d="M11.5975 37.4091L11.5655 20.3602H4V40.0988C6.16586 38.8975 8.74787 37.9714 11.5975 37.4091Z" fill="black"/>
<path d="M31.272 20.3602H23.8874L23.875 37.3064C26.613 37.7959 29.1183 38.6189 31.2633 39.6996L31.272 20.3602Z" fill="black"/>
<path opacity="0.1" d="M4.0001 40.4504C4.0001 40.4504 3.85523 51.8893 14.534 51.6359C16.1993 51.5635 22.353 51.8531 23.8734 47.0748C23.8734 46.9662 23.8734 50.7671 23.8734 50.7671H31.258L31.263 39.6993C29.118 38.6185 26.6126 37.7956 23.8747 37.306L23.8734 39.1472C23.8734 39.1472 24.0906 45.8802 17.7919 45.5544C11.4933 45.2286 11.6019 39.6902 11.6019 39.6902L11.5976 37.4088C8.74797 37.9711 6.16596 38.8972 4.0001 40.0985V40.4504Z" fill="white"/>
<path d="M68.447 25.3229L66.5885 32.3057L63.5704 24.7608C58.5988 24.127 53.9984 23.3438 49.8717 22.435L46.0999 32.0885L42.9449 20.6595C39.3832 19.5961 36.367 18.4198 34.002 17.1557L43.2764 51.5636H46.3171L56.2357 27.0207L66.1543 51.4913H69.195L76.1231 25.9799C73.494 25.7985 70.9317 25.5787 68.447 25.3229Z" fill="black"/>
<path opacity="0.1" d="M81.5026 6.1699L74.0457 4.28748L68.4473 25.3227C70.932 25.5786 73.4942 25.7984 76.1231 25.9798L81.5026 6.1699Z" fill="white"/>
<path opacity="0.1" d="M38.4256 4.28748L31.041 6.1699L34.002 17.1556C36.3671 18.4197 39.383 19.596 42.945 20.6594L38.4256 4.28748Z" fill="white"/>
<path opacity="0.1" d="M57.7552 10.2245H54.6422L49.8711 22.4352C53.9978 23.3441 58.5984 24.1271 63.5698 24.7609L57.7552 10.2245Z" fill="white"/>
<path opacity="0.1" d="M96.9962 4.35984C87.874 4.43195 82.5167 8.1968 82.1547 14.7126C81.8486 20.2187 82.7839 23.2431 87.1002 26.4948C89.4124 26.5545 91.7594 26.5858 94.1364 26.5858C97.5898 26.5858 100.981 26.5208 104.292 26.3964C102.236 25.2048 99.5445 23.7831 97.2134 23.1107C93.4488 22.0247 89.7563 19.6356 89.4667 17.7533C89.1772 15.8711 89.467 10.3687 97.5755 10.2962C103.223 10.8757 103.44 13.2648 104.308 14.568L105.829 17.6808L112.055 14.7852C112.055 14.7852 109.593 8.92092 109.014 8.41399C108.435 7.90706 106.118 4.2873 96.9962 4.35984Z" fill="white"/>
<path opacity="0.1" d="M131.021 4.36C119.321 4.93057 114.722 10.9154 113.967 25.847C116.562 25.6481 119.087 25.4111 121.533 25.139C121.934 9.8535 129.701 10.3689 130.66 10.3689C131.673 10.3689 136.741 10.4414 139.347 17.6089C139.42 17.6812 145.573 14.7128 145.573 14.7128C145.573 14.7128 142.894 3.78074 131.021 4.36Z" fill="white"/>
<path opacity="0.1" d="M148.324 19.6915C151.456 18.5983 154.046 17.4064 155.998 16.1382V5.08386H148.324V19.6915Z" fill="white"/>
</svg>
