<svg width="184" height="48" viewBox="0 0 184 48" fill="none" xmlns="http://www.w3.org/2000/svg">
<path d="M4.85742 27.4921H10.9527C11.0162 28.6984 11.4606 29.5873 12.286 30.1587C13.1749 30.7302 14.3812 31.0476 15.8415 31.0476C16.9209 31.0476 17.8098 30.8571 18.6352 30.4127C19.3336 29.9683 19.7146 29.4603 19.7146 28.6984C19.7146 27.619 18.4447 26.7936 15.9685 26.2857C14.8892 26.0952 14.0638 25.9048 13.5558 25.7778C10.3812 25.0159 8.28599 24.0635 7.20663 22.9841C6.00028 21.9048 5.42885 20.5079 5.42885 18.6667C5.42885 16.381 6.31774 14.5397 8.03203 13.0159C9.8098 11.619 12.159 10.9841 15.0162 10.9841C18.1273 10.9841 20.6035 11.6825 22.4447 13.0159C24.159 14.4762 25.1114 16.4444 25.2384 18.7937H21.4289C20.286 18.7937 19.4606 18.2857 18.8257 17.2698C18.5717 17.0159 18.3177 16.8254 18.1273 16.5714C17.4289 16.0635 16.413 15.746 15.2066 15.746C14.0003 15.746 13.1114 15.9365 12.54 16.254C12.032 16.6349 11.7146 17.1429 11.7146 17.8413C11.7146 18.7937 13.2384 19.619 16.3495 20.254C16.7304 20.381 17.0479 20.4444 17.3019 20.5079C17.5558 20.5714 17.8098 20.5714 18.0638 20.5714C21.1114 21.3333 23.2066 22.2222 24.413 23.2381C25.5558 24.3175 26.1273 25.7143 26.1273 27.5556C26.1273 30.1587 25.1749 32.1905 23.2701 33.6508C21.4923 34.9841 18.8257 35.619 15.2066 35.619C11.8415 35.619 9.30187 34.9206 7.58758 33.5873C5.87329 32.1905 4.98441 30.2222 4.98441 27.619V27.4921H4.85742ZM42.0003 18.2857C41.1114 17.0159 39.905 16.381 38.3177 16.381C36.6669 16.381 35.3971 16.9524 34.5082 18.1587C33.6193 19.3651 33.1749 21.0159 33.1749 23.0476V35.3651H27.0796V4.63492H30.1273C30.9527 4.63492 31.6511 4.95238 32.286 5.52381C32.8574 6.09524 33.1749 6.85714 33.1749 7.68254V14.7302C34.2542 12.9524 35.7781 11.8095 37.7463 11.3651C39.7146 10.9206 41.5558 10.9841 43.3971 11.746C45.0479 12.4444 46.4447 13.5873 47.5876 15.1111C48.7304 16.6349 49.3019 18.7937 49.3019 21.5238V35.3651H43.3336V23.0476C43.3336 22.1587 43.2701 21.3333 43.0796 20.5714C42.8892 19.873 42.5082 19.1111 42.0003 18.2857ZM50.5717 11.619H53.8098C54.6352 11.619 55.3336 11.9365 55.9685 12.5079C56.54 13.0794 56.8574 13.8413 56.8574 14.6667V35.3651H50.6352V11.619H50.5717ZM64.286 40.9524C64.286 41.7778 63.9685 42.4762 63.3971 43.1111C62.8257 43.6825 62.0638 44 61.2384 44H58.1908V21.7778C58.1908 17.5873 59.3971 14.7937 61.8733 13.2698C64.286 11.746 66.9527 10.9841 69.8098 10.9841C71.2701 10.9841 72.7939 11.2381 74.3177 11.8095C75.8415 12.381 77.0479 13.2063 77.9368 14.2857C79.7146 16.6349 80.6035 19.5556 80.6035 23.2381C80.6035 26.9841 79.7146 30.0317 77.9368 32.3175C76.159 34.6032 73.8733 35.6825 71.0796 35.6825C69.6193 35.6825 68.286 35.4286 67.1431 34.8571C65.9368 34.2857 64.9844 33.3333 64.286 32.0635V40.9524ZM74.5082 23.4286C74.5082 21.0794 74.0638 19.3016 73.1749 18.0952C72.286 16.8254 71.0162 16.1905 69.3654 16.1905C67.7781 16.1905 66.5082 16.8254 65.6193 18.0952C64.7939 19.2381 64.3495 21.0159 64.3495 23.4286C64.3495 25.7143 64.7939 27.3651 65.6828 28.5079C66.5717 29.7778 67.8415 30.4127 69.4923 30.4127C71.0162 30.4127 72.286 29.7778 73.1749 28.5079C74.0638 27.3016 74.5082 25.5873 74.5082 23.4286ZM87.7781 40.9524C87.7781 41.7778 87.4606 42.4762 86.8892 43.1111C86.3177 43.6825 85.5558 44 84.7304 44H81.6828V21.7778C81.6828 17.5873 82.8892 14.7937 85.3654 13.2698C87.7781 11.746 90.4447 10.9841 93.3019 10.9841C94.7622 10.9841 96.286 11.2381 97.8098 11.8095C99.3336 12.381 100.54 13.2063 101.429 14.2857C103.207 16.6349 104.096 19.5556 104.096 23.2381C104.096 26.9841 103.207 30.0317 101.429 32.3175C99.6511 34.6032 97.3654 35.6825 94.5717 35.6825C93.1114 35.6825 91.7781 35.4286 90.6352 34.8571C89.4288 34.2857 88.4765 33.3333 87.7781 32.0635V40.9524ZM97.9368 23.4286C97.9368 21.0794 97.4923 19.3016 96.6034 18.0952C95.7146 16.8254 94.4447 16.1905 92.7939 16.1905C91.2066 16.1905 89.9368 16.8254 89.0479 18.0952C88.2225 19.2381 87.7781 21.0159 87.7781 23.4286C87.7781 25.7143 88.2225 27.3651 89.1114 28.5079C90.0003 29.7778 91.2701 30.4127 92.9209 30.4127C94.4447 30.4127 95.7146 29.7778 96.6034 28.5079C97.4923 27.3016 97.9368 25.5873 97.9368 23.4286ZM120.286 34.2222C119.016 34.8571 117.683 35.3016 116.286 35.4286C114.889 35.5556 113.683 35.6825 112.603 35.6825C110.445 35.6825 108.603 35.1111 106.953 33.9683C105.365 32.8254 104.54 30.8571 104.54 28.1905C104.54 25.7143 105.238 23.873 106.699 22.8571C108.159 21.7778 110 21.0794 112.286 20.6984C112.603 20.6984 112.921 20.6349 113.365 20.5714C113.81 20.5079 114.254 20.381 114.826 20.3175C117.429 19.9365 118.762 19.1746 118.762 17.9683C118.762 17.0794 118.318 16.5079 117.365 16.254C116.413 16 115.588 15.873 114.826 15.873C114 15.873 113.238 16 112.603 16.254C111.969 16.5079 111.461 16.9524 111.143 17.5873H105.175C105.429 15.746 106.254 14.2222 107.651 13.0159C109.238 11.619 111.524 10.9841 114.508 10.9841C117.81 10.9841 120.349 11.5556 122 12.6984C123.715 13.9048 124.603 15.5556 124.603 17.7143V25.8413C124.603 28.254 124.159 30.0952 123.334 31.4286C122.508 32.6349 121.492 33.5873 120.286 34.2222ZM118.889 23.2381C118.064 23.6825 116.921 24.0635 115.397 24.381L113.365 24.8254C112.286 25.1429 111.524 25.5238 111.016 25.9683C110.572 26.6032 110.381 27.3016 110.381 27.9365C110.381 28.8254 110.635 29.5238 111.207 30.0952C111.715 30.6032 112.54 30.7937 113.556 30.7937C115.207 30.7937 116.54 30.3492 117.492 29.3333C118.445 28.381 118.953 27.0476 118.953 25.3968V23.2381H118.889ZM132.223 7.04762V14.2222C132.857 13.0794 133.81 12.1905 135.08 11.4286C136.159 10.8571 137.429 10.5397 139.016 10.5397C141.81 10.5397 144.096 11.6825 145.873 14.0317C147.651 16.381 148.54 19.3651 148.54 23.0476C148.54 26.7302 147.651 29.7143 145.873 32.0635C144.984 33.2063 143.778 34.0317 142.254 34.5397C140.73 35.0476 139.207 35.3016 137.746 35.3016C134.889 35.3016 132.223 34.5397 129.81 33.0794C127.397 31.619 126.127 28.7619 126.127 24.5079V4H129.175C130 4 130.699 4.31746 131.334 4.88889C131.905 5.46032 132.223 6.22222 132.223 7.04762ZM142.381 22.7302C142.381 20.5714 141.937 18.9206 141.048 17.7143C140.159 16.4444 138.953 15.8095 137.365 15.8095C135.715 15.8095 134.445 16.381 133.556 17.5873C132.667 18.8571 132.223 20.5079 132.223 22.6667C132.223 25.1429 132.667 26.9841 133.492 28.127C134.381 29.3968 135.651 30.0317 137.238 30.0317C138.889 30.0317 140.159 29.3968 141.048 28.127C141.937 26.9206 142.381 25.1429 142.381 22.7302ZM149.619 4.63492H152.857C153.683 4.63492 154.381 4.88889 155.016 5.46032C155.588 6.03175 155.905 6.73016 155.905 7.55556V35.3651H149.683V4.63492H149.619ZM174.318 28H178.762C178.127 30.4762 176.857 32.381 175.016 33.7143C173.175 35.1111 170.826 35.746 168.032 35.746C164.667 35.746 162 34.6667 160.096 32.4444C158.191 30.2857 157.238 27.2381 157.238 23.2381C157.238 19.4286 158.191 16.4444 160.032 14.2857C161.937 12.0635 164.603 10.9841 167.969 10.9841C171.524 10.9841 174.318 12.0635 176.286 14.2222C178.191 16.4444 179.143 19.4921 179.143 23.4286V24.0635V24.4444C179.143 24.7619 179.143 24.9524 179.08 25.0794H163.651C163.715 26.9206 164.159 28.3175 164.984 29.2063C165.746 30.1587 166.889 30.6667 168.476 30.6667C169.492 30.6667 170.381 30.4762 171.08 30.0317C171.27 29.9683 171.397 29.8413 171.588 29.7143C171.715 29.5873 171.905 29.3968 172.096 29.2063C172.159 29.0159 172.349 28.7619 172.794 28.5079C173.048 28.127 173.619 28 174.318 28ZM163.588 21.0159H172.667C172.54 19.4286 172.159 18.2222 171.397 17.4603C170.635 16.6349 169.492 16.1905 168.096 16.1905C166.762 16.1905 165.683 16.6349 164.857 17.4603C164.096 18.2857 163.651 19.4921 163.588 21.0159Z" fill="black"/>
<path d="M50.5723 4.63477H53.8104C54.6358 4.63477 55.3342 4.95223 55.9691 5.52365C56.5405 6.09508 56.858 6.85699 56.858 7.68238V9.58715H50.6358V4.63477H50.5723Z" fill="#238189"/>
</svg>
