<svg width="160" height="56" viewBox="0 0 160 56" fill="none" xmlns="http://www.w3.org/2000/svg">
<path d="M28.9323 43.8888C28.8717 43.4764 28.9893 43.066 28.8651 42.6791C28.7588 42.3414 28.5149 42.3104 28.3547 42.0358C27.9328 41.3155 27.4966 40.3824 27.4563 39.5005C27.4195 38.7083 27.1282 37.9927 27.0885 37.2075C27.0694 36.8287 27.114 36.438 27.1004 36.0629C27.0931 35.8804 27.0827 35.7223 27.0465 35.5242C27.0375 35.4753 27.0051 35.2737 26.99 35.1929L27.0885 34.9473C27.0451 34.863 27.929 34.8911 28.1926 34.8928C28.64 34.8983 29.0608 34.9215 29.5072 34.9429C30.4189 34.9881 31.2495 34.9768 32.1375 34.8398C34.1162 34.5343 35.0259 33.7262 35.4914 33.3903C37.3082 32.0803 38.1403 29.9385 38.1403 29.9385C38.44 29.2695 38.4389 28.076 39.0815 27.5416C39.8389 26.9105 41.1106 26.956 41.9801 26.5688C42.4887 26.3437 42.8556 26.2198 43.3755 26.3275C43.7613 26.408 44.4558 26.8549 44.6154 26.2276C44.4865 26.1445 44.4361 25.9924 44.3672 25.9081C45.084 25.8372 44.3808 24.1744 44.0972 23.8422C43.6593 23.3296 42.9286 23.0947 42.1513 22.8885C41.2279 22.6438 40.3903 22.3614 39.5209 22.532C38.0027 22.8291 38.1162 21.9603 37.2216 21.9603C36.1479 21.9603 34.2376 22.013 33.9074 23.0568C33.7536 23.5442 33.5952 23.5645 33.3287 23.9384C33.1008 24.2587 33.3684 24.5414 33.254 24.9069C33.1358 25.2825 32.9624 26.6055 32.7813 27.0672C32.4752 27.8483 32.1103 28.8238 31.4366 28.8238C30.4922 28.9367 29.7499 28.9729 28.9838 28.6949C28.5227 28.5275 27.75 28.2654 27.3677 28.1043C25.6045 27.362 25.3149 26.5499 25.3149 26.5499C25.1257 26.2371 24.6273 25.7329 24.4408 25.0749C24.2357 24.3502 23.8896 23.7458 23.7494 23.3687C23.6043 22.978 23.2574 22.3521 22.9848 21.6756C22.6358 20.8093 22.1449 20.1629 21.7855 19.842C21.2364 19.3525 20.7295 18.5948 19.6148 18.815C19.4155 18.8543 18.6914 18.8871 18.1365 19.3525C17.7603 19.6682 17.6416 20.3195 17.2931 20.869C17.0919 21.1864 16.7379 22.097 16.4133 22.8567C16.1882 23.3832 16.0834 23.7779 15.8401 23.9717C15.6498 24.1235 15.4141 24.3195 15.1288 24.2127C14.9518 24.1463 14.7627 24.034 14.5718 23.8848C14.3141 23.6835 13.7282 22.6864 13.3682 21.9498C13.0562 21.3112 12.3904 20.3563 12.0052 19.8394C11.4509 19.0956 11.1259 18.9071 10.3068 18.9071C8.5497 18.9071 8.41676 19.8909 7.64375 21.3216C7.30432 21.9501 7.18065 22.9476 6.49916 23.7293C6.10962 24.1765 4.86655 26.0153 4.00232 26.3278V26.3188L4 26.3278V39.4353L4.00232 39.4535V39.3713C4.05821 39.2004 4.11759 39.0365 4.18507 38.8899C4.5193 38.1777 5.29491 37.5168 5.72587 36.7855C5.96017 36.387 6.2275 35.9966 6.38273 35.5784C6.51625 35.2181 6.58199 34.6808 6.77488 34.3683C7.01122 33.9852 7.38136 33.8548 7.76134 33.7928C8.35652 33.6947 8.8622 34.6484 9.62362 34.9994C9.94829 35.1486 11.4427 35.6777 11.8914 35.7863C12.6302 35.963 13.4498 36.1104 14.2 36.2619C14.6017 36.343 14.9857 36.3902 15.3993 36.4322C15.7703 36.4693 17.1602 36.5153 17.2462 36.6158C16.5398 36.9761 16.1257 37.9875 15.8604 38.7031C15.5838 39.4489 15.3909 40.279 15.0567 41.0085C14.6862 41.8145 13.9095 42.1499 14.0022 43.0892C14.0378 43.464 14.1061 43.857 14.0436 44.2694C13.977 44.7035 13.8014 45.0424 13.6737 45.4676C13.5098 46.0222 13.3146 47.8135 13.0617 48.3401L14.6075 48.1463L14.6101 48.1454C14.7789 47.744 14.9345 46.0494 14.9892 45.8881C15.2782 45.0383 15.6617 44.3392 16.2517 43.682C16.8269 43.0417 16.797 42.2163 17.133 41.4702C17.4968 40.6592 17.9859 40.0108 18.4476 39.2485C19.282 37.8702 19.8323 36.1301 21.6062 35.7762C21.7956 35.7371 22.8817 36.5202 23.3637 36.9859C23.9157 37.5165 24.5187 38.1311 24.8813 38.8627C25.5833 40.2807 26.1788 42.3347 26.4041 43.4674C26.5336 44.1179 26.6367 44.1567 27.0766 44.672C27.2791 44.908 27.6831 45.6457 27.816 45.9289C27.9556 46.2313 28.1679 46.9195 28.3371 47.2708C28.4367 47.4799 28.695 48.1223 28.883 48.6772L30.3274 48.632C30.3326 48.6442 30.3589 48.6285 30.365 48.6398C30.3656 48.6398 30.3665 48.6395 30.367 48.6392C30.361 48.6282 30.3555 48.6155 30.3502 48.6036C29.6305 47.1593 29.17 45.4881 28.9323 43.8888Z" fill="white"/>
<path d="M28.3367 47.2703C28.1675 46.919 27.9555 46.2308 27.8156 45.9285C27.6827 45.6452 27.2787 44.9078 27.0762 44.6715C26.636 44.1563 26.5332 44.1174 26.4037 43.4669C26.1787 42.3342 25.5829 40.2799 24.8809 38.8622C24.5183 38.1306 23.9153 37.5161 23.3633 36.9855C22.8813 36.52 21.7952 35.7366 21.6058 35.7757C19.8319 36.1299 19.2816 37.8697 18.4472 39.248C17.9855 40.0103 17.4963 40.6588 17.1326 41.4697C16.7966 42.2155 16.8264 43.0412 16.2513 43.6816C15.6613 44.339 15.2778 45.0382 14.9888 45.8876C14.934 46.0489 14.7785 47.7435 14.6097 48.1449C14.6097 48.1452 14.6094 48.1455 14.6094 48.1458L17.2461 47.9602C19.7027 48.1276 18.9934 49.0691 22.828 48.8641L28.8829 48.6767C28.6946 48.1218 28.4363 47.4794 28.3367 47.2703Z" fill="url(#paint0_linear_121_672)"/>
<path d="M45.9062 7.10684H10.0421C6.70617 7.10684 4.00195 9.81164 4.00195 13.1475V26.3184V26.3274C4.86619 26.0149 6.10925 24.1761 6.4988 23.7289C7.18028 22.9469 7.30395 21.9495 7.64339 21.3213C8.4164 19.8905 8.54933 18.9067 10.3065 18.9067C11.1255 18.9067 11.4508 19.0955 12.0048 19.839C12.3903 20.356 13.0562 21.3111 13.3678 21.9495C13.7275 22.6863 14.3137 23.6832 14.5715 23.8845C14.7623 24.0339 14.9515 24.146 15.1284 24.2123C15.4134 24.3192 15.6492 24.1231 15.8397 23.9713C16.083 23.7776 16.1879 23.3828 16.4129 22.8563C16.7379 22.0966 17.0915 21.1863 17.2928 20.8686C17.6412 20.3195 17.7599 19.6678 18.1362 19.3521C18.6911 18.8867 19.4151 18.854 19.6144 18.8146C20.7292 18.5945 21.236 19.3521 21.7851 19.8416C22.1446 20.1625 22.6358 20.8089 22.9845 21.6752C23.257 22.3518 23.604 22.9776 23.7491 23.3683C23.8892 23.7454 24.2354 24.3499 24.4404 25.0745C24.6266 25.7325 25.1251 26.2368 25.3145 26.5496C25.3145 26.5496 25.6044 27.3617 27.3673 28.104C27.7496 28.265 28.5224 28.5268 28.9834 28.6945C29.7495 28.9728 30.4915 28.9366 31.4363 28.8234C32.1099 28.8234 32.4749 27.8479 32.781 27.0668C32.962 26.6052 33.1355 25.2822 33.2537 24.9065C33.3681 24.541 33.1004 24.2584 33.3284 23.938C33.5948 23.5641 33.7533 23.5439 33.907 23.0564C34.2375 22.0126 36.1476 21.9599 37.2212 21.9599C38.1161 21.9599 38.0023 22.8288 39.5205 22.5316C40.39 22.361 41.2279 22.6437 42.1509 22.8881C42.9282 23.0944 43.659 23.3292 44.0969 23.8419C44.3804 24.1738 45.0833 25.8368 44.3668 25.9078C44.4357 25.992 44.4861 26.1441 44.615 26.2272C44.4554 26.8545 43.7609 26.4077 43.3751 26.3271C42.8553 26.2194 42.4883 26.3434 41.9797 26.5684C41.1103 26.9556 39.8385 26.9104 39.0812 27.5412C38.4385 28.0759 38.4397 29.2694 38.1399 29.9382C38.1399 29.9382 37.3078 32.0796 35.491 33.3899C35.0256 33.7259 34.1159 34.5339 32.1372 34.8395C31.2492 34.9767 30.4185 34.988 29.5068 34.9426C29.0605 34.9211 28.6397 34.8983 28.1922 34.8925C27.9286 34.8904 27.0444 34.8623 27.0881 34.9469L26.9897 35.1925C27.005 35.2733 27.0372 35.4752 27.0461 35.5238C27.0824 35.7222 27.0925 35.8804 27.1 36.0625C27.1136 36.4376 27.069 36.8286 27.0881 37.2071C27.1278 37.9923 27.4192 38.708 27.456 39.5001C27.4962 40.382 27.9324 41.3152 28.3544 42.0355C28.5145 42.3097 28.7584 42.341 28.8647 42.6787C28.9892 43.0656 28.8714 43.476 28.9319 43.8885C29.1694 45.4875 29.6299 47.1589 30.3499 48.6021C30.3548 48.614 30.3606 48.627 30.3667 48.6377C30.3667 48.6377 30.3667 48.638 30.367 48.6383C31.2561 48.4888 32.147 48.1691 33.3023 47.9982C35.4206 47.684 38.3667 47.8459 40.2591 47.6686C45.0474 47.2186 47.6462 49.6326 51.9468 48.6432V13.1478C51.9463 9.81164 49.2429 7.10684 45.9062 7.10684ZM28.0144 35.4613C28.0077 35.3889 28.0109 35.399 28.021 35.4436L28.0144 35.4613Z" fill="url(#paint1_linear_121_672)"/>
<path d="M15.0563 41.0083C15.3905 40.279 15.5834 39.4486 15.86 38.7029C16.1253 37.9872 16.5395 36.9758 17.2459 36.6155C17.1598 36.515 15.7699 36.469 15.3989 36.4319C14.9854 36.3899 14.6013 36.3427 14.1996 36.2616C13.4495 36.1101 12.6298 35.963 11.891 35.7861C11.4424 35.6774 9.94793 35.1483 9.62326 34.9991C8.86184 34.6481 8.35616 33.6944 7.76098 33.7926C7.38099 33.8546 7.01085 33.9849 6.77452 34.3681C6.58163 34.6806 6.51589 35.2175 6.38237 35.5781C6.22742 35.9963 5.95981 36.3867 5.7255 36.7853C5.29454 37.5163 4.51893 38.1775 4.18471 38.8897C4.11751 39.0362 4.05785 39.2001 4.00195 39.371V39.4533V42.1033V46.8303V47.5132C4.39179 47.5798 4.79958 47.6618 5.25602 47.7837C8.62464 48.6827 9.44659 48.7586 12.7506 48.3809L13.0605 48.3398V48.3395C13.3134 47.813 13.5086 46.0216 13.6725 45.467C13.8002 45.0418 13.9757 44.703 14.0423 44.2688C14.1052 43.8564 14.0365 43.4634 14.0009 43.0886C13.9091 42.1497 14.6859 41.8143 15.0563 41.0083Z" fill="url(#paint2_linear_121_672)"/>
<path d="M67.24 43.5428C65.6453 43.5428 64.1894 43.2587 62.8724 42.6911C61.5549 42.1237 60.426 41.3084 59.4835 40.2446C58.5411 39.1817 57.8104 37.8888 57.2911 36.3665C56.7712 34.8443 56.5117 33.117 56.5117 31.1834C56.5117 29.2505 56.7712 27.529 57.2911 26.0189C57.8104 24.5091 58.5411 23.2405 59.4835 22.2132C60.426 21.1865 61.5549 20.401 62.8724 19.8574C64.1894 19.3138 65.6453 19.0418 67.24 19.0418C68.8346 19.0418 70.29 19.3138 71.6075 19.8574C72.9238 20.401 74.0534 21.1929 74.9958 22.2315C75.9382 23.2706 76.6689 24.5456 77.1888 26.0554C77.7081 27.5658 77.9676 29.2754 77.9676 31.1837C77.9676 33.1173 77.7081 34.8446 77.1888 36.3668C76.6689 37.8891 75.9382 39.182 74.9958 40.2449C74.0534 41.3087 72.9238 42.124 71.6075 42.6914C70.2903 43.2584 68.8346 43.5428 67.24 43.5428ZM67.24 38.9396C68.8584 38.9396 70.1397 38.2453 71.0821 36.8557C72.024 35.4664 72.4952 33.5757 72.4952 31.1834C72.4952 28.8158 72.024 26.9671 71.0821 25.6383C70.1397 24.3098 68.8584 23.6448 67.24 23.6448C65.621 23.6448 64.3402 24.3095 63.3978 25.6383C62.4554 26.9674 61.9842 28.8161 61.9842 31.1834C61.9842 33.5757 62.4554 35.4664 63.3978 36.8557C64.3405 38.2453 65.6213 38.9396 67.24 38.9396Z" fill="#484444"/>
<path d="M79.8522 31.4372C79.8522 29.4799 80.1543 27.7346 80.7584 26.1999C81.3626 24.6658 82.1776 23.3671 83.2049 22.3036C84.2316 21.2407 85.428 20.4315 86.793 19.8751C88.158 19.3196 89.6021 19.0413 91.1244 19.0413C92.598 19.0413 93.9328 19.3494 95.1293 19.9654C96.3251 20.5818 97.3217 21.3009 98.1193 22.122L95.1834 25.4202C94.5793 24.8647 93.969 24.4297 93.353 24.1155C92.737 23.8018 92.0181 23.6442 91.1968 23.6442C90.3748 23.6442 89.6079 23.8198 88.8951 24.1696C88.1824 24.5201 87.5602 25.0214 87.0291 25.6736C86.4973 26.3259 86.0806 27.1232 85.7785 28.0656C85.4764 29.0078 85.3255 30.0716 85.3255 31.255C85.3255 33.6959 85.8454 35.5863 86.8845 36.9273C87.9226 38.2685 89.3125 38.9387 91.0525 38.9387C92.0187 38.9387 92.8644 38.7455 93.5896 38.3589C94.3143 37.9725 94.9665 37.4651 95.5469 36.8366L98.4828 40.0624C97.4917 41.2221 96.3622 42.0921 95.0939 42.6719C93.8251 43.2521 92.4534 43.542 90.9798 43.542C89.4576 43.542 88.0202 43.2822 86.667 42.7629C85.3133 42.2436 84.1299 41.4761 83.1151 40.4612C82.1003 39.4464 81.3026 38.1842 80.7228 36.6738C80.1424 35.1646 79.8522 33.4188 79.8522 31.4372Z" fill="#484444"/>
<path d="M100.258 38.106C100.258 36.2212 101.055 34.7476 102.649 33.6843C104.245 32.6214 106.818 31.9084 110.37 31.5461C110.321 30.7484 110.079 30.1144 109.645 29.6432C109.21 29.172 108.508 28.9365 107.542 28.9365C106.769 28.9365 105.996 29.0816 105.223 29.3716C104.449 29.6615 103.628 30.0603 102.758 30.5677L100.873 27.052C102.033 26.3514 103.247 25.7834 104.516 25.3484C105.785 24.9137 107.131 24.6962 108.557 24.6962C110.877 24.6962 112.647 25.3548 113.867 26.6714C115.086 27.9886 115.697 30.0362 115.697 32.8149V43.1081H111.348L110.949 41.2597H110.841C110.067 41.9363 109.252 42.4863 108.394 42.9086C107.536 43.3311 106.6 43.5428 105.585 43.5428C104.764 43.5428 104.027 43.4035 103.375 43.1261C102.722 42.8486 102.166 42.4617 101.707 41.9661C101.248 41.4712 100.892 40.8971 100.638 40.2446C100.384 39.5921 100.258 38.8796 100.258 38.106ZM105.332 37.7072C105.332 38.2873 105.519 38.7163 105.893 38.9937C106.268 39.2721 106.769 39.4105 107.397 39.4105C108.025 39.4105 108.557 39.2781 108.992 39.012C109.427 38.7461 109.886 38.3719 110.37 37.8882V34.7348C108.46 35.001 107.144 35.3873 106.419 35.8948C105.694 36.4028 105.332 37.0066 105.332 37.7072Z" fill="#484444"/>
<path d="M118.814 25.1306H123.164L123.526 27.4502H123.671C124.42 26.7015 125.217 26.0548 126.063 25.5112C126.909 24.9675 127.924 24.6956 129.108 24.6956C130.389 24.6956 131.421 24.9554 132.207 25.4747C132.992 25.9945 133.614 26.7374 134.073 27.7036C134.871 26.8825 135.71 26.1758 136.592 25.5833C137.474 24.9916 138.519 24.6953 139.728 24.6953C141.66 24.6953 143.08 25.342 143.986 26.6343C144.892 27.9272 145.345 29.6968 145.345 31.944V43.1073H140.017V32.6327C140.017 31.328 139.842 30.4342 139.492 29.9505C139.141 29.4674 138.579 29.2256 137.807 29.2256C136.912 29.2256 135.886 29.8057 134.725 30.9654V43.1073H129.398V32.6327C129.398 31.328 129.222 30.4342 128.872 29.9505C128.522 29.4674 127.96 29.2256 127.187 29.2256C126.268 29.2256 125.253 29.8057 124.142 30.9654V43.1073H118.814V25.1306Z" fill="#484444"/>
<path d="M148.426 17.7006H153.754V37.7434C153.754 38.2998 153.856 38.6859 154.062 38.9034C154.267 39.1209 154.478 39.2295 154.696 39.2295H155.004C155.088 39.2295 155.203 39.2057 155.348 39.1571L156 43.1078C155.711 43.2283 155.342 43.3311 154.895 43.4157C154.448 43.5003 153.922 43.5428 153.319 43.5428C152.4 43.5428 151.627 43.3977 150.999 43.1078C150.37 42.8179 149.869 42.4136 149.495 41.8937C149.12 41.3744 148.848 40.7465 148.679 40.0091C148.51 39.2723 148.426 38.4449 148.426 37.5265V17.7006Z" fill="#484444"/>
<defs>
<linearGradient id="paint0_linear_121_672" x1="21.7461" y1="35.7743" x2="21.7461" y2="48.8931" gradientUnits="userSpaceOnUse">
<stop stop-color="#F29100"/>
<stop offset="1" stop-color="#EC670F"/>
</linearGradient>
<linearGradient id="paint1_linear_121_672" x1="27.9744" y1="7.10678" x2="27.9744" y2="48.8835" gradientUnits="userSpaceOnUse">
<stop stop-color="#F29100"/>
<stop offset="1" stop-color="#EC670F"/>
</linearGradient>
<linearGradient id="paint2_linear_121_672" x1="10.6239" y1="33.7854" x2="10.6239" y2="48.5952" gradientUnits="userSpaceOnUse">
<stop stop-color="#F29100"/>
<stop offset="1" stop-color="#EC670F"/>
</linearGradient>
</defs>
</svg>
