<svg width="224" height="48" viewBox="0 0 224 48" fill="none" xmlns="http://www.w3.org/2000/svg">
<path d="M6.67207 35.6157C5.02364 35.6192 3.50079 34.7356 2.68598 33.3026C1.88292 31.8784 1.93108 30.1274 2.8112 28.7495L11.0199 15.8591C11.8752 14.4487 13.4233 13.6075 15.0721 13.6574C16.7196 13.6969 18.2183 14.6206 18.9938 16.0748C19.759 17.5217 19.6634 19.2626 18.7469 20.6208L10.5434 33.5113C9.69789 34.8288 8.23752 35.6226 6.67207 35.6157Z" fill="#F62B54"/>
<path d="M20.7522 35.6151C19.0965 35.6151 17.573 34.7298 16.773 33.3072C15.9717 31.8869 16.0199 30.1403 16.8982 28.7664L25.0913 15.9055C25.9343 14.4748 27.4869 13.6139 29.1469 13.6568C30.8165 13.6933 32.3295 14.6272 33.0948 16.0881C33.8548 17.549 33.7435 19.3003 32.7991 20.6551L24.6078 33.5159C23.765 34.8277 22.3114 35.6191 20.7522 35.6151Z" fill="#FFCC00"/>
<path d="M34.5176 35.724C36.8516 35.724 38.7437 33.8716 38.7437 31.5866C38.7437 29.3016 36.8516 27.4492 34.5176 27.4492C32.1836 27.4492 30.2915 29.3016 30.2915 31.5866C30.2915 33.8716 32.1836 35.724 34.5176 35.724Z" fill="#00CA72"/>
<path d="M218.11 27.6887C219.387 27.6887 220.15 28.5965 220.15 30.0835V35.1791H221.884V29.967C221.884 27.4383 220.693 25.9722 218.453 25.9722C217.576 25.9722 216.185 26.2122 215.355 27.8243C214.963 26.8555 214.069 26.1808 213.03 26.0678C212.709 26.009 212.382 25.9898 212.056 26.0104C211.343 26.0678 210.074 26.5113 209.599 27.5165V26.1652H207.863V35.1791H209.599V30.3148C209.599 28.4226 210.837 27.6887 212.077 27.6887C213.239 27.6887 214.002 28.5774 214.002 30.0643V35.1791H215.728V30.3148C215.728 28.8087 216.632 27.6713 218.11 27.6887ZM201.493 33.673C202.286 33.6904 203.051 33.3739 203.606 32.8C204.162 32.2261 204.458 31.4452 204.428 30.6435C204.428 28.8278 203.093 27.6887 201.493 27.6887C199.891 27.6887 198.557 28.8278 198.557 30.6435C198.526 31.4435 198.822 32.2226 199.375 32.7948C199.928 33.3687 200.689 33.687 201.479 33.673H201.493ZM201.493 35.3635C198.957 35.3635 196.841 33.4904 196.841 30.633C196.841 27.7757 198.957 25.9617 201.493 25.9617C204.028 25.9617 206.162 27.7757 206.162 30.633C206.162 33.4904 204.016 35.3722 201.481 35.3722L201.493 35.3635ZM187.91 30.633L187.893 30.6435C187.893 27.7861 190.065 25.9722 192.618 25.9617C193.915 25.9366 195.162 26.4624 196.049 27.4087L194.735 28.5287C194.17 27.9748 193.408 27.6693 192.618 27.68C191.018 27.68 189.627 28.8191 189.627 30.633C189.627 31.8591 190.355 32.9635 191.474 33.433C192.592 33.9026 193.879 33.6417 194.735 32.7757L196.068 33.8957C195.178 34.8517 193.924 35.3851 192.618 35.3635C190.084 35.3635 187.91 33.4904 187.91 30.633ZM182.357 33.4487C182.353 33.1304 182.476 32.8237 182.699 32.5961C182.921 32.3684 183.225 32.2385 183.543 32.2348C183.861 32.2385 184.165 32.3684 184.388 32.5961C184.61 32.8237 184.733 33.1304 184.729 33.4487C184.697 34.0822 184.178 34.5813 183.543 34.5878C182.909 34.5813 182.389 34.0822 182.357 33.4487Z" fill="#333333"/>
<path d="M187.101 14.7061H180.926L176.597 25.8661L172.291 14.7061H166.115L173.623 32.3409L168.954 44H175.084L187.101 14.7061ZM149.543 24.5148C149.543 27.3322 152.006 29.1861 154.425 29.1861C156.802 29.1861 159.138 27.4609 159.138 24.513C159.138 21.5652 156.802 19.8383 154.425 19.8383C152.006 19.8383 149.543 21.6939 149.543 24.513V24.5148ZM159.138 32.1304C157.886 34.0261 154.964 34.7426 153.465 34.7426C148.501 34.7426 143.536 30.8296 143.536 24.513C143.536 18.1983 148.5 14.2852 153.465 14.2852C154.715 14.2852 157.637 14.7026 159.138 16.8939V14.713H164.895V34.3652L159.138 34.3635V32.1304ZM141.898 34.3617H136.141V31.92C135.18 33.7287 132.848 34.7826 130.427 34.7826C125.42 34.7826 120.997 30.7843 120.997 24.593C120.997 18.2852 125.42 14.2817 130.427 14.2817C132.844 14.2817 135.183 15.2904 136.141 17.1009V4H141.898V34.3617ZM136.016 24.4696C136.016 21.5235 133.889 19.7965 131.512 19.7965C129.049 19.7965 127.004 21.6487 127.004 24.4696C127.004 27.3809 129.049 29.2244 131.51 29.2244C133.933 29.2278 136.016 27.2904 136.016 24.4696ZM106.764 23.9617C106.764 20.9739 108.308 19.9635 110.352 19.9635C112.312 19.9635 113.731 21.2678 113.731 23.8765V34.3583H119.529V22.6157C119.529 17.0191 116.775 14.2817 112.394 14.2817C110.1 14.2817 107.806 15.5861 106.762 17.5652V14.7061H100.968V34.3583H106.764V23.9617ZM89.1937 34.6957C83.6876 34.6957 79.0945 30.6557 79.0945 24.4678C79.0945 18.2765 83.6824 14.2765 89.1937 14.2765C94.705 14.2765 99.3328 18.2765 99.3328 24.4678C99.3328 30.6591 94.6997 34.6974 89.1937 34.6974V34.6957ZM89.1937 28.9739C91.6111 28.9739 93.6163 27.2035 93.6163 24.4696C93.6163 21.8174 91.6128 20.007 89.1937 20.007C88.0165 19.9885 86.8834 20.4545 86.0597 21.2957C85.2315 22.1411 84.7815 23.2864 84.8128 24.4696C84.8145 27.207 86.8163 28.9739 89.1937 28.9739ZM68.6997 19.9652C70.4093 19.9652 71.9119 21.313 71.9119 23.8783V34.3617H77.6684V23.2C77.6684 17.2661 74.7832 14.2783 70.1589 14.2783C68.785 14.2783 66.1971 14.6957 64.3189 17.7704C63.2337 15.4974 61.1484 14.3183 58.0667 14.3183C55.8814 14.3071 53.8915 15.5748 52.978 17.56V14.7078H47.1763V34.36H52.9728V23.9617C52.9728 20.9739 54.6006 19.9635 56.3519 19.9635C58.0215 19.9635 59.5206 21.2678 59.5641 23.7513V34.36H65.3624V23.9617C65.3624 21.1043 66.865 19.967 68.6997 19.967V19.9652Z" fill="#333333"/>
</svg>
