<svg width="320" height="48" viewBox="0 0 320 48" fill="none" xmlns="http://www.w3.org/2000/svg">
<path d="M158.191 21.6998H153.648V21.1532C154.048 21.1264 154.383 21.0776 154.646 20.9995C154.91 20.9214 155.044 20.8263 155.044 20.714C155.044 20.6677 155.039 20.6115 155.029 20.5432C155.019 20.4774 155.005 20.4164 154.983 20.3651L154.078 17.9154H150.24C150.096 18.2741 149.979 18.5889 149.888 18.8548C149.798 19.1232 149.718 19.3696 149.644 19.5941C149.578 19.8137 149.532 19.9942 149.505 20.1333C149.478 20.2724 149.466 20.3846 149.466 20.4725C149.466 20.6774 149.627 20.836 149.952 20.9483C150.276 21.0605 150.64 21.1288 151.045 21.1483V21.6949H146.929V21.1483C147.063 21.1386 147.229 21.1093 147.429 21.0605C147.629 21.0117 147.792 20.9458 147.922 20.8653C148.127 20.7262 148.285 20.5823 148.398 20.431C148.51 20.2797 148.622 20.0699 148.729 19.8039C149.278 18.4327 149.883 16.8931 150.547 15.1827C151.208 13.4724 151.799 11.9498 152.318 10.6152H152.936L156.579 20.043C156.657 20.2431 156.744 20.4042 156.84 20.5286C156.937 20.6506 157.074 20.7726 157.247 20.8897C157.364 20.9605 157.52 21.0215 157.708 21.0703C157.899 21.1191 158.057 21.1459 158.186 21.1508V21.6998H158.191ZM153.795 17.2323L152.138 12.9917L150.506 17.2323H153.795Z" fill="#009BDE"/>
<path d="M167.683 21.6998V21.1898C167.8 21.18 167.919 21.1703 168.041 21.1581C168.163 21.1483 168.268 21.1264 168.361 21.0971C168.505 21.0507 168.61 20.9702 168.681 20.8555C168.749 20.7384 168.785 20.5896 168.785 20.4042V16.4832C168.785 15.9489 168.663 15.5365 168.42 15.2462C168.176 14.9558 167.871 14.8119 167.507 14.8119C167.256 14.8119 167.019 14.8509 166.797 14.929C166.577 15.0046 166.372 15.1144 166.189 15.2535C166.041 15.3657 165.916 15.4877 165.816 15.6195C165.716 15.7512 165.64 15.8586 165.589 15.9464V20.3285C165.589 20.5091 165.621 20.6555 165.682 20.7701C165.743 20.8873 165.848 20.9751 165.997 21.0361C166.114 21.0825 166.221 21.1166 166.316 21.141C166.411 21.163 166.536 21.18 166.69 21.1898V21.6973H163.069V21.1898C163.186 21.18 163.301 21.1703 163.413 21.1581C163.523 21.1483 163.625 21.1264 163.718 21.0971C163.862 21.0507 163.969 20.9702 164.037 20.8555C164.106 20.7384 164.142 20.5896 164.142 20.4042V16.4832C164.142 15.9489 164.02 15.5365 163.776 15.2462C163.532 14.9558 163.227 14.8119 162.861 14.8119C162.608 14.8119 162.371 14.8509 162.151 14.9314C161.929 15.0119 161.727 15.1193 161.541 15.2584C161.393 15.3706 161.266 15.4975 161.163 15.639C161.061 15.7805 160.983 15.8879 160.931 15.9586V20.3114C160.931 20.4871 160.968 20.6335 161.039 20.7506C161.11 20.8677 161.219 20.958 161.363 21.019C161.471 21.0703 161.583 21.1093 161.695 21.1337C161.807 21.1605 161.934 21.1776 162.073 21.1874V21.6949H158.384V21.1898C158.501 21.18 158.623 21.1703 158.75 21.1581C158.877 21.1483 158.984 21.1264 159.077 21.0971C159.221 21.0507 159.326 20.9702 159.397 20.8555C159.467 20.7409 159.502 20.5896 159.502 20.4066V15.6902C159.502 15.5268 159.465 15.3779 159.389 15.2486C159.316 15.1169 159.211 15.0071 159.077 14.9143C158.979 14.8533 158.857 14.8021 158.714 14.7631C158.57 14.724 158.421 14.6996 158.267 14.6899V14.1824L160.809 14.0116L160.917 14.1189V15.2047H160.97C161.1 15.0754 161.256 14.9241 161.441 14.7509C161.627 14.5752 161.798 14.4361 161.959 14.3263C162.139 14.2043 162.364 14.1019 162.632 14.0189C162.9 13.9384 163.193 13.8969 163.506 13.8969C163.998 13.8969 164.423 14.0287 164.777 14.2946C165.13 14.5581 165.387 14.8777 165.54 15.2535C165.726 15.0729 165.887 14.9143 166.028 14.7801C166.17 14.6435 166.355 14.4996 166.587 14.3458C166.782 14.2116 167.012 14.1043 167.275 14.0213C167.539 13.9408 167.831 13.8993 168.156 13.8993C168.798 13.8993 169.305 14.1092 169.678 14.5313C170.052 14.9534 170.24 15.6 170.24 16.471V20.331C170.24 20.5115 170.271 20.6579 170.332 20.7726C170.393 20.8897 170.498 20.9775 170.65 21.0385C170.767 21.0849 170.884 21.1191 171.001 21.1435C171.116 21.1654 171.245 21.1825 171.389 21.1923V21.6998H167.683Z" fill="#009BDE"/>
<path d="M179.028 19.9113C178.709 20.5164 178.284 20.9995 177.75 21.3606C177.215 21.7217 176.603 21.8998 175.908 21.8998C175.298 21.8998 174.761 21.7925 174.302 21.5753C173.843 21.3606 173.465 21.0678 173.165 20.6969C172.867 20.3285 172.645 19.8967 172.499 19.4038C172.353 18.9109 172.279 18.3888 172.279 17.8398C172.279 17.3469 172.358 16.8638 172.514 16.3881C172.67 15.9123 172.902 15.4853 173.204 15.1047C173.497 14.7411 173.861 14.4459 174.295 14.2214C174.729 13.9969 175.215 13.8871 175.754 13.8871C176.308 13.8871 176.784 13.975 177.179 14.1482C177.574 14.3239 177.894 14.5606 178.14 14.8631C178.377 15.151 178.552 15.4902 178.667 15.8806C178.782 16.2709 178.84 16.6955 178.84 17.1517V17.6592H173.812C173.812 18.1594 173.858 18.6108 173.953 19.0183C174.048 19.4257 174.197 19.782 174.405 20.0918C174.605 20.3895 174.866 20.6262 175.19 20.797C175.515 20.9702 175.9 21.0556 176.347 21.0556C176.803 21.0556 177.198 20.9483 177.53 20.7335C177.862 20.5188 178.182 20.1333 178.489 19.5746L179.028 19.9113ZM177.325 17.0151C177.325 16.7296 177.301 16.4222 177.252 16.0928C177.203 15.7659 177.125 15.4926 177.018 15.2706C176.901 15.0363 176.737 14.8436 176.532 14.6948C176.327 14.5459 176.061 14.4727 175.739 14.4727C175.2 14.4727 174.754 14.6972 174.395 15.1437C174.039 15.5902 173.843 16.2148 173.814 17.0127H177.325V17.0151Z" fill="#009BDE"/>
<path d="M185.721 15.0827C185.721 15.3438 185.658 15.578 185.528 15.7805C185.401 15.983 185.201 16.0855 184.935 16.0855C184.647 16.0855 184.428 16.0099 184.277 15.861C184.125 15.7122 184.05 15.5487 184.05 15.3682C184.05 15.2559 184.059 15.1535 184.076 15.0607C184.094 14.968 184.111 14.8753 184.128 14.7826C183.886 14.7826 183.603 14.8802 183.281 15.0754C182.957 15.2706 182.683 15.5487 182.456 15.9074V20.3285C182.456 20.5091 182.49 20.6555 182.561 20.7677C182.63 20.8799 182.739 20.9653 182.888 21.0215C183.018 21.0727 183.183 21.1117 183.386 21.1361C183.588 21.163 183.764 21.18 183.913 21.1898V21.6973H179.907V21.1898C180.024 21.18 180.146 21.1703 180.273 21.1581C180.399 21.1483 180.507 21.1264 180.6 21.0971C180.744 21.0507 180.848 20.9702 180.919 20.8555C180.99 20.7409 181.024 20.5896 181.024 20.4066V15.722C181.024 15.5634 180.988 15.4072 180.912 15.2535C180.839 15.0998 180.734 14.9753 180.6 14.8851C180.502 14.8241 180.387 14.7777 180.253 14.7509C180.119 14.724 179.975 14.7045 179.821 14.6948V14.1872L182.347 14.0165L182.454 14.1238V15.1949H182.493C182.813 14.7777 183.166 14.463 183.557 14.2482C183.947 14.0335 184.303 13.9237 184.628 13.9237C184.952 13.9237 185.213 14.0287 185.418 14.2385C185.621 14.4459 185.721 14.7289 185.721 15.0827Z" fill="#009BDE"/>
<path d="M190.049 21.6998H186.382V21.1898C186.499 21.18 186.621 21.1703 186.748 21.1581C186.875 21.1483 186.982 21.1264 187.075 21.0971C187.219 21.0507 187.324 20.9702 187.395 20.8555C187.463 20.7409 187.497 20.5896 187.497 20.4066V15.722C187.497 15.5585 187.461 15.4072 187.385 15.2706C187.312 15.1339 187.207 15.0217 187.073 14.929C186.975 14.868 186.834 14.8143 186.648 14.7704C186.463 14.7265 186.294 14.6996 186.141 14.6899V14.1824L188.822 14.0116L188.929 14.1189V20.3114C188.929 20.492 188.964 20.6408 189.032 20.7579C189.1 20.8751 189.208 20.9629 189.356 21.019C189.469 21.0654 189.578 21.102 189.686 21.1313C189.793 21.1581 189.913 21.1776 190.044 21.1874V21.6998H190.049ZM189.088 11.0154C189.088 11.3081 188.993 11.5643 188.8 11.7815C188.607 12.0011 188.371 12.1084 188.088 12.1084C187.827 12.1084 187.597 12.0035 187.407 11.7961C187.214 11.5887 187.119 11.3496 187.119 11.0837C187.119 10.8006 187.217 10.5542 187.407 10.3444C187.6 10.1345 187.827 10.0296 188.088 10.0296C188.38 10.0296 188.62 10.1297 188.807 10.3273C188.993 10.5249 189.088 10.7543 189.088 11.0154Z" fill="#009BDE"/>
<path d="M194.502 21.8998C193.404 21.8998 192.543 21.5363 191.923 20.8067C191.301 20.0772 190.991 19.0988 190.991 17.8715C190.991 17.3372 191.074 16.837 191.242 16.3734C191.408 15.9074 191.652 15.4853 191.97 15.1047C192.272 14.7411 192.653 14.4459 193.109 14.2214C193.565 13.9969 194.065 13.8871 194.605 13.8871C195.349 13.8871 195.956 14.0653 196.422 14.4215C196.888 14.7777 197.123 15.2657 197.123 15.8806C197.123 16.1367 197.062 16.3637 196.937 16.5613C196.813 16.7589 196.61 16.859 196.327 16.859C196.025 16.859 195.79 16.7833 195.622 16.6296C195.456 16.4759 195.373 16.3051 195.373 16.1148C195.373 15.8854 195.405 15.6488 195.466 15.4048C195.527 15.1608 195.564 14.9827 195.573 14.8704C195.481 14.7118 195.344 14.6069 195.161 14.5508C194.978 14.4971 194.783 14.4703 194.573 14.4703C194.327 14.4703 194.092 14.5215 193.87 14.6289C193.648 14.7362 193.431 14.929 193.221 15.2096C193.031 15.4658 192.877 15.8122 192.76 16.249C192.643 16.6857 192.584 17.2054 192.584 17.813C192.584 18.7694 192.797 19.5477 193.219 20.1504C193.641 20.7531 194.197 21.0556 194.883 21.0556C195.381 21.0556 195.795 20.9336 196.132 20.6921C196.469 20.4481 196.779 20.0845 197.067 19.599L197.559 19.9235C197.22 20.5286 196.774 21.0093 196.22 21.363C195.666 21.7217 195.093 21.8998 194.502 21.8998Z" fill="#009BDE"/>
<path d="M205.348 21.5607C205.106 21.6485 204.894 21.7193 204.713 21.7729C204.53 21.8266 204.325 21.8535 204.094 21.8535C203.693 21.8535 203.374 21.7607 203.135 21.5729C202.896 21.385 202.742 21.1117 202.676 20.7531H202.63C202.295 21.1215 201.937 21.4045 201.556 21.5997C201.173 21.7949 200.712 21.8925 200.173 21.8925C199.602 21.8925 199.133 21.7168 198.767 21.3679C198.399 21.019 198.216 20.5628 198.216 19.9967C198.216 19.7039 198.257 19.4428 198.34 19.211C198.421 18.9792 198.545 18.7719 198.709 18.5864C198.838 18.4327 199.006 18.2961 199.216 18.1741C199.426 18.0545 199.624 17.9569 199.809 17.8862C200.041 17.7983 200.509 17.6373 201.214 17.4006C201.92 17.1639 202.398 16.9785 202.644 16.8468V16.0831C202.644 16.0172 202.63 15.8879 202.603 15.6976C202.573 15.5072 202.515 15.3291 202.422 15.1583C202.32 14.968 202.173 14.8021 201.988 14.6606C201.8 14.5191 201.534 14.4483 201.19 14.4483C200.953 14.4483 200.734 14.4874 200.531 14.5679C200.329 14.6484 200.185 14.7313 200.104 14.8167C200.104 14.9192 200.129 15.0705 200.177 15.2706C200.226 15.4706 200.251 15.6561 200.251 15.8244C200.251 16.005 200.17 16.1685 200.009 16.3173C199.848 16.4661 199.621 16.5418 199.336 16.5418C199.079 16.5418 198.889 16.4515 198.77 16.2685C198.648 16.0855 198.589 15.883 198.589 15.6561C198.589 15.4194 198.672 15.1949 198.838 14.9778C199.004 14.7631 199.221 14.5703 199.489 14.3995C199.721 14.2556 200.002 14.1336 200.329 14.0335C200.658 13.9335 200.978 13.8823 201.293 13.8823C201.724 13.8823 202.1 13.9115 202.422 13.9701C202.742 14.0287 203.035 14.1555 203.296 14.3507C203.557 14.541 203.757 14.7997 203.891 15.1242C204.025 15.4487 204.096 15.8708 204.096 16.3832C204.096 17.1176 204.089 17.769 204.074 18.3351C204.059 18.9036 204.05 19.5233 204.05 20.1968C204.05 20.3968 204.084 20.5554 204.155 20.6725C204.225 20.7921 204.33 20.8921 204.474 20.9727C204.55 21.019 204.674 21.0434 204.84 21.0483C205.006 21.0532 205.177 21.0556 205.353 21.0556V21.5607H205.348ZM202.659 17.4933C202.222 17.6227 201.839 17.7471 201.512 17.8715C201.183 17.996 200.878 18.1497 200.595 18.3351C200.338 18.5108 200.136 18.7182 199.987 18.9573C199.838 19.1964 199.763 19.4819 199.763 19.8088C199.763 20.2358 199.875 20.5506 200.097 20.7506C200.321 20.9507 200.604 21.0507 200.948 21.0507C201.312 21.0507 201.634 20.9629 201.91 20.7848C202.188 20.6067 202.422 20.3968 202.61 20.1553L202.659 17.4933Z" fill="#009BDE"/>
<path d="M214.49 21.6998H210.776V21.1898C210.894 21.18 211.025 21.1703 211.164 21.1581C211.306 21.1483 211.423 21.1264 211.516 21.0971C211.66 21.0507 211.765 20.9702 211.835 20.8555C211.906 20.7384 211.94 20.5896 211.94 20.4042V16.5003C211.94 15.9611 211.813 15.5463 211.557 15.2535C211.301 14.9607 210.991 14.8143 210.628 14.8143C210.354 14.8143 210.105 14.8558 209.879 14.9412C209.652 15.0266 209.452 15.1291 209.276 15.2535C209.105 15.3706 208.971 15.4975 208.871 15.6341C208.771 15.7708 208.698 15.8781 208.651 15.9611V20.3285C208.651 20.5042 208.688 20.6481 208.759 20.7604C208.829 20.8726 208.939 20.9605 209.083 21.0215C209.191 21.0727 209.308 21.1117 209.435 21.1361C209.561 21.163 209.691 21.18 209.822 21.1898V21.6973H206.102V21.1898C206.219 21.18 206.341 21.1703 206.468 21.1581C206.594 21.1483 206.702 21.1264 206.795 21.0971C206.938 21.0507 207.043 20.9702 207.114 20.8555C207.185 20.7409 207.219 20.5896 207.219 20.4066V15.722C207.219 15.5463 207.182 15.3877 207.107 15.2413C207.034 15.0949 206.929 14.9753 206.795 14.8826C206.697 14.8216 206.582 14.7753 206.448 14.7484C206.314 14.7216 206.17 14.7021 206.016 14.6923V14.1848L208.541 14.014L208.649 14.1214V15.1925H208.688C208.81 15.0681 208.966 14.9217 209.149 14.7484C209.334 14.5776 209.508 14.4361 209.674 14.3288C209.864 14.2068 210.088 14.1043 210.352 14.0213C210.613 13.9408 210.908 13.8993 211.238 13.8993C211.967 13.8993 212.506 14.1262 212.858 14.5801C213.209 15.0339 213.385 15.639 213.385 16.3929V20.3432C213.385 20.5237 213.416 20.6677 213.477 20.7775C213.538 20.8873 213.643 20.9727 213.792 21.0361C213.917 21.0873 214.022 21.1239 214.112 21.1435C214.202 21.1654 214.327 21.18 214.485 21.1898V21.6998H214.49Z" fill="#009BDE"/>
<path d="M229.617 21.6998H225.074V21.1532C225.475 21.1264 225.809 21.0776 226.072 20.9995C226.336 20.9214 226.47 20.8263 226.47 20.714C226.47 20.6677 226.465 20.6115 226.455 20.5432C226.446 20.4774 226.431 20.4164 226.409 20.3651L225.504 17.9154H221.666C221.522 18.2741 221.405 18.5889 221.314 18.8548C221.224 19.1232 221.144 19.3696 221.07 19.5941C221.005 19.8137 220.958 19.9942 220.931 20.1333C220.905 20.2724 220.892 20.3846 220.892 20.4725C220.892 20.6774 221.053 20.836 221.378 20.9483C221.702 21.0605 222.066 21.1288 222.471 21.1483V21.6949H218.355V21.1483C218.489 21.1386 218.655 21.1093 218.855 21.0605C219.055 21.0117 219.219 20.9458 219.348 20.8653C219.553 20.7262 219.711 20.5823 219.824 20.431C219.936 20.2797 220.048 20.0699 220.156 19.8039C220.704 18.4327 221.31 16.8931 221.973 15.1827C222.634 13.4724 223.225 11.9498 223.745 10.6152H224.362L228.007 20.043C228.085 20.2431 228.173 20.4042 228.268 20.5286C228.366 20.6506 228.502 20.7726 228.676 20.8897C228.793 20.9605 228.949 21.0215 229.137 21.0703C229.327 21.1191 229.486 21.1459 229.615 21.1508V21.6998H229.617ZM225.221 17.2323L223.564 12.9917L221.932 17.2323H225.221Z" fill="#009BDE"/>
<path d="M233.324 21.8998C232.226 21.8998 231.364 21.5363 230.745 20.8067C230.123 20.0772 229.813 19.0988 229.813 17.8715C229.813 17.3372 229.896 16.837 230.064 16.3734C230.23 15.9074 230.474 15.4853 230.791 15.1047C231.094 14.7411 231.474 14.4459 231.931 14.2214C232.387 13.9969 232.887 13.8871 233.426 13.8871C234.17 13.8871 234.778 14.0653 235.244 14.4215C235.71 14.7777 235.944 15.2657 235.944 15.8806C235.944 16.1367 235.883 16.3637 235.759 16.5613C235.634 16.7589 235.432 16.859 235.149 16.859C234.846 16.859 234.612 16.7833 234.444 16.6296C234.278 16.4759 234.195 16.3051 234.195 16.1148C234.195 15.8854 234.226 15.6488 234.287 15.4048C234.348 15.1608 234.385 14.9827 234.395 14.8704C234.302 14.7118 234.165 14.6069 233.983 14.5508C233.8 14.4971 233.604 14.4703 233.394 14.4703C233.148 14.4703 232.914 14.5215 232.692 14.6289C232.47 14.7338 232.253 14.929 232.043 15.2096C231.852 15.4658 231.699 15.8122 231.582 16.249C231.465 16.6857 231.406 17.2054 231.406 17.813C231.406 18.7694 231.618 19.5477 232.04 20.1504C232.462 20.7531 233.019 21.0556 233.704 21.0556C234.202 21.0556 234.617 20.9336 234.954 20.6921C235.29 20.4481 235.6 20.0845 235.888 19.599L236.381 19.9235C236.042 20.5286 235.595 21.0093 235.041 21.363C234.485 21.7217 233.914 21.8998 233.324 21.8998Z" fill="#009BDE"/>
<path d="M244.167 21.5607C243.925 21.6485 243.713 21.7193 243.532 21.7729C243.349 21.8266 243.144 21.8535 242.913 21.8535C242.512 21.8535 242.193 21.7607 241.954 21.5729C241.715 21.385 241.561 21.1117 241.495 20.7531H241.449C241.114 21.1215 240.756 21.4045 240.375 21.5997C239.992 21.7949 239.531 21.8925 238.992 21.8925C238.421 21.8925 237.952 21.7168 237.586 21.3679C237.218 21.019 237.035 20.5628 237.035 19.9967C237.035 19.7039 237.076 19.4428 237.159 19.211C237.24 18.9792 237.364 18.7719 237.528 18.5864C237.657 18.4327 237.825 18.2961 238.035 18.1741C238.245 18.0545 238.443 17.9569 238.628 17.8862C238.86 17.7983 239.328 17.6373 240.033 17.4006C240.739 17.1639 241.217 16.9785 241.463 16.8468V16.0831C241.463 16.0172 241.449 15.8879 241.422 15.6976C241.393 15.5072 241.334 15.3291 241.241 15.1583C241.139 14.968 240.992 14.8021 240.807 14.6606C240.619 14.5191 240.353 14.4483 240.009 14.4483C239.772 14.4483 239.553 14.4874 239.35 14.5679C239.148 14.6484 239.004 14.7313 238.923 14.8167C238.923 14.9192 238.948 15.0705 238.997 15.2706C239.045 15.4706 239.07 15.6561 239.07 15.8244C239.07 16.005 238.989 16.1685 238.828 16.3173C238.667 16.4661 238.44 16.5418 238.155 16.5418C237.899 16.5418 237.708 16.4515 237.589 16.2685C237.469 16.0855 237.408 15.883 237.408 15.6561C237.408 15.4194 237.491 15.1949 237.657 14.9778C237.823 14.7631 238.04 14.5703 238.308 14.3995C238.54 14.2556 238.821 14.1336 239.148 14.0335C239.477 13.9335 239.797 13.8823 240.112 13.8823C240.543 13.8823 240.919 13.9115 241.241 13.9701C241.561 14.0287 241.854 14.1555 242.115 14.3507C242.376 14.541 242.576 14.7997 242.71 15.1242C242.844 15.4487 242.915 15.8708 242.915 16.3832C242.915 17.1176 242.908 17.769 242.893 18.3351C242.878 18.9036 242.869 19.5233 242.869 20.1968C242.869 20.3968 242.903 20.5554 242.974 20.6725C243.044 20.7921 243.149 20.8921 243.293 20.9727C243.369 21.019 243.493 21.0434 243.659 21.0483C243.825 21.0532 243.996 21.0556 244.172 21.0556V21.5607H244.167ZM241.48 17.4933C241.044 17.6227 240.661 17.7471 240.334 17.8715C240.004 17.996 239.699 18.1497 239.416 18.3351C239.16 18.5108 238.958 18.7182 238.809 18.9573C238.66 19.1964 238.584 19.4819 238.584 19.8088C238.584 20.2358 238.696 20.5506 238.918 20.7506C239.143 20.9507 239.426 21.0507 239.77 21.0507C240.134 21.0507 240.456 20.9629 240.731 20.7848C241.009 20.6067 241.244 20.3968 241.432 20.1553L241.48 17.4933Z" fill="#009BDE"/>
<path d="M253.241 21.5607L250.584 21.729L250.467 21.6217V20.9117L250.406 20.897C250.14 21.1947 249.81 21.4387 249.417 21.629C249.025 21.8193 248.622 21.9145 248.205 21.9145C247.773 21.9145 247.358 21.8193 246.956 21.6266C246.553 21.4338 246.204 21.163 245.906 20.8141C245.604 20.4603 245.365 20.0333 245.187 19.5355C245.011 19.0378 244.921 18.4888 244.921 17.8862C244.921 17.3372 245.016 16.815 245.206 16.3222C245.396 15.8293 245.658 15.3974 245.989 15.029C246.302 14.685 246.685 14.4093 247.139 14.2043C247.592 13.9994 248.056 13.8969 248.527 13.8969C248.881 13.8969 249.227 13.9408 249.569 14.0311C249.91 14.1214 250.203 14.236 250.45 14.3727V11.7278C250.45 11.5131 250.413 11.3155 250.342 11.1374C250.271 10.9592 250.169 10.825 250.042 10.7323C249.898 10.6347 249.703 10.564 249.461 10.5201C249.217 10.4761 248.954 10.4444 248.671 10.4225V9.94667L251.782 9.77588L251.899 9.89055V20.1284C251.899 20.309 251.933 20.4603 252.004 20.5871C252.072 20.714 252.175 20.8189 252.309 20.9068C252.406 20.9678 252.548 21.0068 252.733 21.0239C252.919 21.0385 253.087 21.0507 253.241 21.0556V21.5607ZM250.454 20.2285V15.783C250.413 15.6488 250.347 15.5048 250.254 15.3511C250.162 15.1974 250.047 15.0559 249.908 14.929C249.759 14.7997 249.583 14.6948 249.386 14.6094C249.186 14.524 248.954 14.4825 248.685 14.4825C248.378 14.4825 248.095 14.563 247.836 14.7216C247.578 14.8802 247.348 15.1095 247.148 15.4072C246.958 15.6951 246.809 16.0611 246.699 16.5052C246.59 16.9492 246.533 17.4421 246.533 17.9813C246.533 18.4132 246.575 18.8036 246.655 19.1549C246.738 19.5063 246.875 19.8357 247.07 20.1358C247.248 20.4237 247.478 20.6555 247.758 20.8287C248.036 21.0044 248.368 21.0898 248.754 21.0898C249.164 21.0898 249.503 20.9995 249.774 20.8214C250.042 20.6408 250.269 20.4432 250.454 20.2285Z" fill="#009BDE"/>
<path d="M260.729 19.9113C260.409 20.5164 259.985 20.9995 259.45 21.3606C258.916 21.7193 258.304 21.8998 257.608 21.8998C256.998 21.8998 256.461 21.7925 256.003 21.5753C255.544 21.3582 255.166 21.0678 254.866 20.6969C254.568 20.3285 254.346 19.8967 254.2 19.4038C254.053 18.9109 253.98 18.3888 253.98 17.8398C253.98 17.3469 254.058 16.8638 254.214 16.3881C254.37 15.9123 254.602 15.4853 254.905 15.1047C255.198 14.7411 255.561 14.4459 255.995 14.2214C256.43 13.9969 256.915 13.8871 257.454 13.8871C258.008 13.8871 258.484 13.975 258.879 14.1482C259.275 14.3239 259.594 14.5606 259.841 14.8631C260.077 15.151 260.253 15.4902 260.368 15.8806C260.482 16.2709 260.541 16.6955 260.541 17.1517V17.6592H255.512C255.512 18.1594 255.559 18.6108 255.654 19.0183C255.749 19.4257 255.898 19.782 256.105 20.0918C256.305 20.3895 256.566 20.6262 256.891 20.797C257.215 20.9702 257.601 21.0556 258.047 21.0556C258.504 21.0556 258.899 20.9483 259.231 20.7335C259.563 20.5188 259.882 20.1333 260.19 19.5746L260.729 19.9113ZM259.026 17.0151C259.026 16.7296 259.001 16.4222 258.953 16.0928C258.904 15.7659 258.826 15.4926 258.718 15.2706C258.601 15.0363 258.438 14.8436 258.233 14.6948C258.028 14.5459 257.762 14.4727 257.44 14.4727C256.901 14.4727 256.454 14.6972 256.095 15.1437C255.739 15.5902 255.544 16.2148 255.515 17.0127H259.026V17.0151Z" fill="#009BDE"/>
<path d="M270.903 21.6998V21.1898C271.02 21.18 271.14 21.1703 271.262 21.1581C271.384 21.1483 271.489 21.1264 271.582 21.0971C271.726 21.0507 271.831 20.9702 271.901 20.8555C271.97 20.7384 272.006 20.5896 272.006 20.4042V16.4832C272.006 15.9489 271.884 15.5365 271.64 15.2462C271.396 14.9558 271.091 14.8119 270.728 14.8119C270.476 14.8119 270.24 14.8509 270.018 14.929C269.798 15.0046 269.593 15.1144 269.41 15.2535C269.261 15.3657 269.137 15.4877 269.037 15.6195C268.937 15.7512 268.861 15.8586 268.81 15.9464V20.3285C268.81 20.5091 268.842 20.6555 268.903 20.7701C268.964 20.8873 269.069 20.9751 269.217 21.0361C269.334 21.0825 269.442 21.1166 269.537 21.141C269.632 21.163 269.757 21.18 269.91 21.1898V21.6973H266.289V21.1898C266.407 21.18 266.521 21.1703 266.633 21.1581C266.743 21.1483 266.846 21.1264 266.938 21.0971C267.082 21.0507 267.19 20.9702 267.258 20.8555C267.326 20.7384 267.363 20.5896 267.363 20.4042V16.4832C267.363 15.9489 267.241 15.5365 266.997 15.2462C266.753 14.9558 266.448 14.8119 266.082 14.8119C265.828 14.8119 265.592 14.8509 265.372 14.9314C265.15 15.0119 264.947 15.1193 264.762 15.2584C264.613 15.3706 264.486 15.4975 264.384 15.639C264.281 15.7805 264.203 15.8879 264.152 15.9586V20.3114C264.152 20.4871 264.189 20.6335 264.259 20.7506C264.33 20.8677 264.44 20.958 264.584 21.019C264.691 21.0703 264.804 21.1093 264.916 21.1337C265.028 21.1605 265.155 21.1776 265.294 21.1874V21.6949H261.605V21.1898C261.722 21.18 261.844 21.1703 261.971 21.1581C262.098 21.1483 262.205 21.1264 262.298 21.0971C262.442 21.0507 262.547 20.9702 262.617 20.8555C262.688 20.7409 262.722 20.5896 262.722 20.4066V15.6902C262.722 15.5268 262.686 15.3779 262.61 15.2486C262.537 15.1169 262.432 15.0071 262.298 14.9143C262.2 14.8533 262.078 14.8021 261.934 14.7631C261.79 14.724 261.641 14.6996 261.488 14.6899V14.1824L264.03 14.0116L264.137 14.1189V15.2047H264.191C264.32 15.0754 264.477 14.9241 264.662 14.7509C264.847 14.5752 265.018 14.4361 265.179 14.3263C265.36 14.2043 265.584 14.1019 265.853 14.0189C266.121 13.9384 266.414 13.8969 266.726 13.8969C267.219 13.8969 267.644 14.0287 267.997 14.2946C268.351 14.5581 268.607 14.8777 268.761 15.2535C268.947 15.0729 269.108 14.9143 269.249 14.7801C269.391 14.6435 269.576 14.4996 269.808 14.3458C270.003 14.2116 270.232 14.1043 270.496 14.0213C270.759 13.9408 271.052 13.8993 271.377 13.8993C272.018 13.8993 272.526 14.1092 272.899 14.5313C273.272 14.9534 273.46 15.6 273.46 16.471V20.331C273.46 20.5115 273.492 20.6579 273.553 20.7726C273.614 20.8897 273.719 20.9775 273.87 21.0385C273.987 21.0849 274.105 21.1191 274.222 21.1435C274.336 21.1654 274.466 21.1825 274.61 21.1923V21.6998H270.903Z" fill="#009BDE"/>
<path d="M274.924 24.1787C274.924 23.9225 274.995 23.7127 275.137 23.5516C275.278 23.3906 275.454 23.3077 275.664 23.3077C275.827 23.3077 275.969 23.3394 276.086 23.4004C276.203 23.4614 276.31 23.5394 276.4 23.637C276.476 23.7127 276.559 23.8176 276.647 23.9518C276.735 24.0836 276.803 24.1933 276.854 24.2812C277.11 24.1421 277.418 23.781 277.774 23.1979C278.13 22.6147 278.389 22.1023 278.548 21.6607C278.06 20.4432 277.618 19.355 277.223 18.3961C276.827 17.4372 276.415 16.4442 275.983 15.417C275.886 15.1803 275.722 14.9973 275.49 14.8655C275.259 14.7338 275.029 14.6508 274.797 14.6142V14.1067H278.269V14.646C278.116 14.6508 277.93 14.6826 277.713 14.7435C277.498 14.8021 277.389 14.8704 277.389 14.9485C277.389 14.9802 277.401 15.0315 277.423 15.1022C277.445 15.173 277.474 15.2486 277.503 15.3242C277.699 15.8318 277.996 16.5637 278.394 17.5226C278.794 18.4791 279.104 19.2452 279.323 19.8186C279.555 19.2696 279.794 18.7011 280.046 18.1131C280.295 17.5251 280.573 16.8321 280.883 16.0318C280.919 15.9342 280.97 15.8 281.036 15.6292C281.102 15.4584 281.136 15.3096 281.136 15.1876C281.136 15.0534 281.019 14.929 280.787 14.8143C280.553 14.6996 280.331 14.6289 280.121 14.602V14.1092H282.942V14.5874C282.788 14.6142 282.586 14.7021 282.334 14.8533C282.083 15.0046 281.895 15.2193 281.773 15.4975C281.163 16.9151 280.619 18.2058 280.143 19.3721C279.668 20.5384 279.309 21.3948 279.062 21.9437C278.738 22.6635 278.45 23.2247 278.196 23.6273C277.942 24.0299 277.694 24.3471 277.452 24.5789C277.215 24.7936 277.001 24.94 276.808 25.0132C276.615 25.0888 276.415 25.1254 276.21 25.1254C275.81 25.1254 275.495 25.0302 275.266 24.8399C275.039 24.6447 274.924 24.4276 274.924 24.1787Z" fill="#009BDE"/>
<path d="M294.475 16.9492C294.475 17.5568 294.373 18.1619 294.168 18.7694C293.963 19.3745 293.665 19.9089 293.275 20.3651C292.88 20.8385 292.404 21.2166 291.845 21.5021C291.289 21.7876 290.642 21.9291 289.908 21.9291C289.056 21.9291 288.363 21.6558 287.831 21.1044C287.3 20.553 287.034 19.8137 287.034 18.8841C287.034 18.2009 287.146 17.5641 287.373 16.9712C287.6 16.3807 287.902 15.861 288.283 15.4145C288.668 14.968 289.144 14.6069 289.713 14.3312C290.279 14.0579 290.896 13.9189 291.557 13.9189C292.472 13.9189 293.187 14.197 293.702 14.7557C294.217 15.3145 294.475 16.044 294.475 16.9492ZM292.904 16.6564C292.904 15.9269 292.775 15.3779 292.516 15.0144C292.257 14.6484 291.884 14.4678 291.396 14.4678C290.969 14.4678 290.569 14.5996 290.191 14.8607C289.813 15.1217 289.488 15.5487 289.217 16.1416C289.008 16.5881 288.854 17.0859 288.756 17.6324C288.659 18.179 288.61 18.684 288.61 19.1476C288.61 19.882 288.737 20.4408 288.99 20.8165C289.244 21.1947 289.627 21.3826 290.142 21.3826C290.598 21.3826 291.003 21.2386 291.36 20.9507C291.713 20.6628 292.001 20.2968 292.223 19.8552C292.443 19.4233 292.614 18.928 292.731 18.3693C292.843 17.8154 292.904 17.242 292.904 16.6564Z" fill="#009BDE"/>
<path d="M298.799 14.8753L297.442 21.2386C297.201 22.378 296.693 23.3101 295.92 24.0348C295.146 24.7594 294.348 25.1205 293.526 25.1205C293.075 25.1205 292.743 25.0351 292.531 24.8619C292.318 24.6887 292.211 24.4739 292.211 24.2104C292.211 23.9908 292.277 23.7932 292.411 23.6248C292.545 23.4541 292.738 23.3711 292.989 23.3711C293.148 23.3711 293.29 23.4077 293.409 23.4785C293.531 23.5492 293.636 23.6395 293.729 23.7468C293.8 23.8347 293.882 23.9518 293.973 24.1006C294.063 24.2495 294.141 24.3788 294.207 24.4861C294.602 24.4544 294.941 24.1885 295.22 23.6858C295.5 23.1832 295.742 22.4634 295.947 21.529L297.367 14.8729H295.861L296.022 14.1726H297.506L297.618 13.6505C297.74 13.0551 297.938 12.5208 298.204 12.0426C298.469 11.5643 298.775 11.1593 299.114 10.8275C299.448 10.5005 299.826 10.2419 300.248 10.054C300.673 9.86615 301.08 9.77344 301.471 9.77344C301.922 9.77344 302.254 9.85883 302.469 10.0321C302.681 10.2053 302.788 10.42 302.788 10.6835C302.788 10.9056 302.725 11.1008 302.598 11.2691C302.471 11.4375 302.273 11.5229 302.007 11.5229C301.846 11.5229 301.71 11.4887 301.59 11.4179C301.471 11.3472 301.366 11.2569 301.273 11.1447C301.171 11.0154 301.088 10.8958 301.027 10.7836C300.966 10.6713 300.887 10.5445 300.795 10.4054C300.439 10.42 300.126 10.6542 299.853 11.1056C299.58 11.557 299.333 12.3085 299.116 13.3577L298.943 14.1726H300.887L300.726 14.8729H298.799V14.8753Z" fill="#009BDE"/>
<path d="M150.896 42.8709C150.091 42.5025 149.4 42.0048 148.827 41.3801C148.72 41.263 148.656 41.1606 148.634 41.0703C148.622 41.0361 148.617 41.0117 148.617 40.9946C148.617 40.9166 148.661 40.8336 148.751 40.7433L149.874 39.6454C149.94 39.5795 150.015 39.5453 150.101 39.5453C150.201 39.5453 150.318 39.6063 150.452 39.7308C150.894 40.1675 151.306 40.4896 151.691 40.7018C152.233 41.0142 152.789 41.1703 153.36 41.1703C153.68 41.1703 153.97 41.1264 154.236 41.0361C154.502 40.9458 154.729 40.8238 154.919 40.6677C155.098 40.5164 155.234 40.3432 155.329 40.148C155.425 39.9528 155.471 39.7478 155.471 39.5356C155.471 39.0769 155.193 38.6938 154.634 38.3864C154.461 38.2912 154.283 38.2131 154.097 38.1521C153.912 38.0911 153.665 38.0155 153.351 37.9252L153.124 37.8667C151.728 37.4543 150.694 36.9566 150.023 36.3759C149.313 35.7659 148.959 35.0022 148.959 34.0799C148.959 33.5651 149.066 33.0942 149.281 32.6672C149.496 32.2402 149.808 31.8718 150.215 31.5644C150.618 31.2569 151.099 31.0203 151.657 30.8568C152.216 30.6909 152.826 30.6104 153.485 30.6104C154.195 30.6104 154.905 30.7836 155.612 31.1301C156.271 31.4546 156.859 31.8791 157.372 32.4037C157.472 32.5037 157.523 32.6086 157.523 32.7136C157.523 32.8258 157.469 32.938 157.364 33.0478L156.442 34.0458C156.369 34.1116 156.293 34.1458 156.215 34.1458C156.108 34.1458 155.971 34.075 155.805 33.936C155.437 33.6236 155.093 33.3748 154.776 33.1893C154.29 32.921 153.834 32.7868 153.409 32.7868C152.855 32.7868 152.426 32.8648 152.118 33.021C151.689 33.2503 151.474 33.6188 151.474 34.1263C151.474 34.3337 151.53 34.5142 151.645 34.6679C151.76 34.8216 151.931 34.9607 152.16 35.0827C152.355 35.195 152.589 35.2974 152.865 35.3877C153.141 35.478 153.487 35.5878 153.912 35.7098C154.554 35.9001 155.115 36.0977 155.595 36.3051C156.076 36.5125 156.488 36.7516 156.835 37.0249C157.233 37.3445 157.535 37.7129 157.745 38.1302C157.955 38.5498 158.06 39.0403 158.06 39.6063C158.06 40.1724 157.935 40.6896 157.686 41.1654C157.437 41.6412 157.091 42.0487 156.642 42.3878C156.213 42.7221 155.717 42.9807 155.159 43.1637C154.6 43.3443 154.017 43.437 153.407 43.437C152.567 43.4419 151.728 43.2516 150.896 42.8709Z" fill="#0D5384"/>
<path d="M161.095 42.9149V31.1911C161.095 31.0837 161.132 30.9959 161.205 30.9275C161.278 30.8592 161.371 30.8226 161.48 30.8226H163.191C163.42 30.8226 163.542 30.9446 163.559 31.1911V40.9971H168.461C168.568 40.9971 168.656 41.0312 168.725 41.102C168.795 41.1728 168.829 41.2655 168.829 41.3826V42.9173C168.829 43.1466 168.707 43.2686 168.461 43.2857H161.463C161.217 43.2833 161.095 43.1588 161.095 42.9149Z" fill="#0D5384"/>
<path d="M171.469 42.9466V31.1715C171.469 30.9544 171.579 30.8446 171.796 30.8446H179.985C180.214 30.8446 180.329 30.9544 180.329 31.1715V32.7965C180.329 33.021 180.214 33.1308 179.985 33.1308H173.917V35.6707H178.543C178.794 35.6707 178.921 35.783 178.921 36.005V37.5983C178.921 37.8154 178.794 37.9252 178.543 37.9252H173.917V41.002H180.143C180.378 41.002 180.495 41.1142 180.495 41.3362V42.9441C180.495 43.1686 180.378 43.2784 180.143 43.2784H171.796C171.577 43.2833 171.469 43.171 171.469 42.9466Z" fill="#0D5384"/>
<path d="M183.486 42.9466V31.1715C183.486 30.9544 183.596 30.8446 183.813 30.8446H192.001C192.231 30.8446 192.345 30.9544 192.345 31.1715V32.7965C192.345 33.021 192.231 33.1308 192.001 33.1308H185.933V35.6707H190.559C190.811 35.6707 190.938 35.783 190.938 36.005V37.5983C190.938 37.8154 190.811 37.9252 190.559 37.9252H185.933V41.002H192.16C192.394 41.002 192.511 41.1142 192.511 41.3362V42.9441C192.511 43.1686 192.394 43.2784 192.16 43.2784H183.813C183.596 43.2833 183.486 43.171 183.486 42.9466Z" fill="#0D5384"/>
<path d="M195.505 42.9393V31.174C195.505 31.0617 195.534 30.9788 195.593 30.9275C195.651 30.8739 195.732 30.847 195.832 30.847H200.709C201.256 30.847 201.768 30.9568 202.244 31.174C202.72 31.3911 203.135 31.6912 203.493 32.0719C203.84 32.4452 204.108 32.8746 204.299 33.3577C204.489 33.8408 204.584 34.3385 204.584 34.8534C204.584 35.3609 204.486 35.8537 204.291 36.3295C204.096 36.8053 203.823 37.2274 203.469 37.5958C203.11 37.9765 202.691 38.2741 202.208 38.4888C201.724 38.7036 201.212 38.8109 200.67 38.8109H197.947V42.9417C197.947 43.171 197.835 43.2857 197.613 43.2857H195.837C195.612 43.2833 195.505 43.1686 195.505 42.9393ZM200.214 36.6882C200.761 36.6882 201.214 36.5101 201.571 36.1514C201.739 35.9831 201.866 35.7903 201.956 35.5683C202.046 35.3487 202.09 35.1071 202.09 34.8436C202.09 34.5923 202.046 34.3507 201.956 34.1238C201.866 33.8945 201.739 33.6944 201.571 33.5212C201.207 33.1576 200.756 32.9771 200.214 32.9771H197.943V36.6906H200.214V36.6882Z" fill="#0D5384"/>
<path d="M213.414 43.1954C213.358 43.1369 213.336 43.0515 213.348 42.9393L214.615 31.1569C214.641 30.9397 214.761 30.8299 214.966 30.8299H217.145C217.235 30.8299 217.296 30.8519 217.333 30.8934C217.369 30.9349 217.408 31.0154 217.455 31.1325L220.456 39.4282L223.406 31.1398C223.445 31.0276 223.486 30.9495 223.532 30.9007C223.576 30.8543 223.642 30.8299 223.725 30.8299H225.955C226.168 30.8299 226.282 30.9397 226.299 31.1569L227.566 42.9393C227.578 43.0515 227.553 43.1369 227.5 43.1954C227.444 43.254 227.358 43.2833 227.241 43.2833H225.54C225.428 43.2833 225.348 43.2589 225.296 43.2076C225.245 43.1564 225.214 43.0734 225.196 42.9563L224.342 35.0364L221.493 42.7221C221.449 42.8514 221.402 42.9344 221.354 42.9734C221.307 43.0124 221.236 43.032 221.149 43.032H219.741C219.65 43.032 219.582 43.0124 219.536 42.9734C219.489 42.9344 219.443 42.8514 219.397 42.7221L216.598 35.029L215.717 42.949C215.705 43.0661 215.676 43.1515 215.625 43.2052C215.573 43.2589 215.493 43.2857 215.381 43.2857H213.67C213.553 43.2833 213.47 43.254 213.414 43.1954Z" fill="#0D5384"/>
<path d="M230.586 42.9466V31.1715C230.586 30.9544 230.696 30.8446 230.913 30.8446H239.102C239.331 30.8446 239.446 30.9544 239.446 31.1715V32.7965C239.446 33.021 239.331 33.1308 239.102 33.1308H233.033V35.6707H237.66C237.911 35.6707 238.038 35.783 238.038 36.005V37.5983C238.038 37.8154 237.911 37.9252 237.66 37.9252H233.033V41.002H239.26C239.494 41.002 239.611 41.1142 239.611 41.3362V42.9441C239.611 43.1686 239.494 43.2784 239.26 43.2784H230.913C230.694 43.2833 230.586 43.171 230.586 42.9466Z" fill="#0D5384"/>
<path d="M242.603 42.9466V31.1715C242.603 30.9544 242.715 30.8446 242.937 30.8446H246.943C247.463 30.8446 247.98 30.9153 248.498 31.0593C249.015 31.2008 249.51 31.4082 249.986 31.6742C250.454 31.9474 250.889 32.2719 251.284 32.6452C251.682 33.0185 252.021 33.4333 252.306 33.8847C252.602 34.3605 252.831 34.8656 252.994 35.4023C253.155 35.9391 253.238 36.493 253.238 37.0615C253.238 37.8886 253.08 38.6718 252.765 39.4111C252.45 40.1504 252.006 40.8068 251.438 41.3753C250.869 41.9438 250.203 42.3952 249.444 42.7294C248.686 43.0637 247.875 43.2442 247.014 43.2784H242.94C242.715 43.2833 242.603 43.171 242.603 42.9466ZM246.726 41.019C247.29 41.019 247.822 40.9166 248.32 40.714C248.817 40.5091 249.249 40.2261 249.618 39.8625C249.986 39.499 250.271 39.0769 250.472 38.5962C250.672 38.1155 250.774 37.6056 250.774 37.0615C250.774 36.5198 250.672 36.0074 250.469 35.5243C250.264 35.0412 249.981 34.6167 249.618 34.2556C249.249 33.892 248.815 33.609 248.32 33.4041C247.822 33.1991 247.292 33.0991 246.726 33.0991H245.074V41.019H246.726Z" fill="#0D5384"/>
<path d="M256.347 42.9393V31.1886C256.347 30.9593 256.459 30.8446 256.681 30.8446H258.492C258.709 30.8446 258.818 30.9593 258.818 31.1886V42.9393C258.818 43.1686 258.709 43.2833 258.492 43.2833H256.681C256.459 43.2833 256.347 43.1686 256.347 42.9393Z" fill="#0D5384"/>
<path d="M266.729 43.232C266.182 43.0808 265.665 42.8636 265.179 42.5781C264.704 42.3049 264.269 41.973 263.876 41.5802C263.484 41.1898 263.147 40.7555 262.866 40.2822C262.581 39.8015 262.364 39.2867 262.212 38.7353C262.061 38.1839 261.985 37.6202 261.985 37.0371C261.985 36.4564 262.061 35.8928 262.212 35.3438C262.364 34.7972 262.581 34.2824 262.866 33.8018C263.152 33.326 263.488 32.8941 263.881 32.5062C264.274 32.1182 264.706 31.7888 265.179 31.5204C265.665 31.2423 266.182 31.0276 266.729 30.8787C267.275 30.7299 267.841 30.6567 268.422 30.6567C269.154 30.6567 269.818 30.7567 270.415 30.9544C271.013 31.152 271.567 31.4399 272.075 31.8132C272.17 31.8913 272.216 31.9816 272.216 32.0816C272.216 32.1426 272.201 32.1939 272.175 32.2329L271.286 33.7334C271.23 33.8066 271.16 33.8432 271.077 33.8432C270.999 33.8432 270.911 33.8115 270.818 33.7505C270.393 33.487 270.01 33.2991 269.669 33.1796C269.283 33.0454 268.866 32.9795 268.42 32.9795C267.861 32.9795 267.339 33.082 266.856 33.2894C266.372 33.4968 265.953 33.7847 265.594 34.1531C265.235 34.5264 264.96 34.9607 264.76 35.456C264.562 35.9513 264.462 36.4759 264.462 37.0347C264.462 37.5934 264.562 38.1229 264.76 38.623C264.957 39.1232 265.235 39.5624 265.594 39.943C265.958 40.3237 266.38 40.6213 266.863 40.836C267.346 41.0508 267.863 41.1581 268.417 41.1581C268.854 41.1581 269.274 41.0874 269.683 40.9434C270.091 40.8019 270.454 40.6116 270.774 40.3773C270.891 40.2871 270.991 40.2431 271.077 40.2431C271.167 40.2431 271.243 40.2846 271.304 40.37L272.15 41.8022C272.216 41.8754 272.25 41.9438 272.25 42.0121C272.25 42.1024 272.187 42.1926 272.057 42.2878C271.55 42.6611 270.999 42.949 270.403 43.1515C269.808 43.354 269.147 43.4541 268.422 43.4541C267.841 43.459 267.275 43.3833 266.729 43.232Z" fill="#0D5384"/>
<path d="M275.678 42.9393V31.1886C275.678 30.9593 275.791 30.8446 276.013 30.8446H277.823C278.04 30.8446 278.15 30.9593 278.15 31.1886V42.9393C278.15 43.1686 278.04 43.2833 277.823 43.2833H276.013C275.791 43.2833 275.678 43.1686 275.678 42.9393Z" fill="#0D5384"/>
<path d="M282.115 42.9149V31.2081C282.115 31.1008 282.147 31.0129 282.212 30.9446C282.278 30.8763 282.369 30.8397 282.486 30.8397H284.455C284.545 30.8397 284.635 30.8641 284.73 30.9105C284.826 30.9568 284.896 31.0203 284.94 31.0983L290.447 39.0256V31.0983C290.481 31.0081 290.533 30.9422 290.603 30.9007C290.674 30.8592 290.745 30.8373 290.818 30.8373H292.511C292.606 30.8373 292.699 30.8714 292.787 30.9422C292.877 31.0129 292.921 31.1008 292.921 31.2057V42.9124C292.921 43.1588 292.785 43.2808 292.511 43.2808H290.859C290.737 43.2808 290.647 43.2613 290.591 43.2223C290.535 43.1832 290.462 43.11 290.374 43.0051L284.55 34.624V42.9124C284.567 43.1588 284.442 43.2808 284.181 43.2808H282.488C282.239 43.2833 282.115 43.1588 282.115 42.9149Z" fill="#0D5384"/>
<path d="M296.369 42.9466V31.1715C296.369 30.9544 296.479 30.8446 296.696 30.8446H304.884C305.113 30.8446 305.228 30.9544 305.228 31.1715V32.7965C305.228 33.021 305.113 33.1308 304.884 33.1308H298.816V35.6707H303.442C303.693 35.6707 303.82 35.783 303.82 36.005V37.5983C303.82 37.8154 303.693 37.9252 303.442 37.9252H298.816V41.002H305.043C305.277 41.002 305.394 41.1142 305.394 41.3362V42.9441C305.394 43.1686 305.277 43.2784 305.043 43.2784H296.696C296.479 43.2833 296.369 43.171 296.369 42.9466Z" fill="#0D5384"/>
<path d="M308.991 30.6104C309.064 30.6104 309.117 30.6421 309.117 30.7153V31.113C309.117 31.1984 309.054 31.2399 308.991 31.2399H308.244V33.6895C308.244 33.8042 308.18 33.8262 308.107 33.8262H307.697C307.634 33.8262 307.57 33.7944 307.57 33.6993V31.2423H306.814C306.719 31.2423 306.697 31.1911 306.697 31.1154V30.747C306.697 30.6835 306.707 30.6104 306.814 30.6104H308.991ZM312.563 33.6895C312.563 33.7725 312.531 33.8042 312.448 33.8042H312.06C311.987 33.8042 311.945 33.7725 311.933 33.6993L311.787 31.8596L311.145 33.5822C311.123 33.6456 311.103 33.6773 311.04 33.6773H310.808C310.755 33.6773 310.713 33.6456 310.691 33.5822L310.081 31.8693L309.935 33.709C309.935 33.792 309.884 33.814 309.818 33.814H309.439C309.344 33.814 309.303 33.7725 309.303 33.6993L309.471 30.7372C309.481 30.664 309.535 30.6201 309.586 30.6201H310.142C310.215 30.6201 310.257 30.6299 310.279 30.6933L310.908 32.4061L311.56 30.7153C311.582 30.6738 311.623 30.6104 311.779 30.6104H312.253C312.304 30.6104 312.38 30.6518 312.389 30.7372L312.563 33.6895Z" fill="#0D5384"/>
<path d="M61.9901 43.022C61.8754 42.1924 61.6339 41.3994 61.2923 40.6626C59.9674 37.7908 57.0712 35.7998 53.7041 35.7998C50.3322 35.7998 47.4335 37.7908 46.1038 40.6626C45.7622 41.397 45.528 42.1899 45.4133 43.022C45.3425 43.5343 45.75 43.9979 46.2624 43.9979H61.141C61.6607 43.9979 62.0608 43.5368 61.9901 43.022Z" fill="#FF6C0C"/>
<path d="M61.2925 40.665H46.1016C47.4338 37.7932 50.3299 35.8022 53.7019 35.8022C57.0714 35.8022 59.9676 37.7932 61.2925 40.665Z" fill="#F99C25"/>
<path d="M34.7951 19.9575C33.0091 15.4949 31.1864 11.0396 29.4395 6.56484C28.9564 5.34244 28.1439 4.83738 26.9117 4.83738C25.6795 4.83738 25.8625 4.83738 24.4596 4.83738C23.0566 4.83738 22.3637 5.32048 21.8586 6.599C17.1618 18.3936 12.4162 30.1588 7.68516 41.9339C7.19473 43.1636 7.37529 43.4466 8.71968 43.4588C9.53217 43.471 10.3593 43.4588 11.1718 43.4588C15.3587 43.3856 14.512 44.1371 16.1858 40.0185C16.3347 39.677 16.7299 38.6546 17.2204 37.3834C17.6498 36.2489 18.4818 34.2774 18.9527 33.0355C18.9527 33.0355 31.5866 32.9843 32.016 32.9794C32.4454 32.9745 32.7675 32.7378 33.0115 32.0791C33.2555 31.4203 35.6344 25.4669 35.8857 24.8105C36.0663 24.3836 36.1151 23.7126 35.915 23.1197C35.7174 22.5243 35.0708 20.6334 34.7951 19.9575ZM21.0461 27.2749C22.6443 22.9684 23.9765 19.372 25.6551 14.8703L30.3129 27.1846L21.0461 27.2749Z" fill="#0D5384"/>
<path d="M60.3727 19.9575C58.5843 15.4949 56.7641 11.0396 55.0098 6.56484C54.5316 5.34244 53.8411 4.83738 52.482 4.83738H50.0299C48.6562 4.81542 47.9389 5.32048 47.429 6.599C42.7394 18.3936 37.9938 30.1588 33.2628 41.9339C32.7651 43.1636 32.9529 43.4466 34.2973 43.4588C35.1098 43.471 35.937 43.4588 36.7494 43.4588C39.9482 43.4051 40.2093 43.8273 40.8949 42.1949C42.1173 36.1806 47.4875 31.7375 53.6971 31.7375C56.0516 31.7375 58.2817 32.3767 60.2141 33.4966C60.6411 33.7138 61.1999 33.7358 61.7049 33.2868C62.2246 32.7671 63.4714 31.4862 63.8521 31.1226C64.2327 30.7591 64.4181 30.1613 64.14 29.6147C62.8639 26.4111 60.7729 20.953 60.3727 19.9575ZM54.817 25.5084C53.8362 25.4352 52.9481 25.4742 52.0477 25.4742C50.4008 25.5425 48.7075 25.7572 47.0288 26.1867C48.4074 22.4707 49.7835 18.7669 51.2279 14.8703L55.3197 25.562C55.1513 25.5498 54.9829 25.523 54.817 25.5084Z" fill="#0D5384"/>
<path d="M92.2624 27.4652C91.611 26.1574 90.6667 25.0057 89.4297 24.0102C88.3415 23.166 87.0557 22.4072 85.56 21.7655C84.0643 21.1214 82.3125 20.5065 80.3117 19.9136C78.9893 19.5354 77.8938 19.1987 77.0496 18.9133C76.1907 18.6205 75.4612 18.3057 74.8536 17.9544C74.1387 17.5762 73.602 17.1394 73.2457 16.6588C72.8871 16.1806 72.7089 15.6218 72.7089 14.9704C72.7089 13.3893 73.3824 12.2376 74.7194 11.5301C75.6783 11.0372 77.0227 10.7932 78.7453 10.7932C80.0677 10.7932 81.4853 11.208 83.0005 12.0449C83.9936 12.6232 85.0671 13.3966 86.2188 14.3775C86.7336 14.8069 87.1703 15.0289 87.4997 15.0289C87.7364 15.0289 87.9779 14.9216 88.2 14.7142L91.0742 11.6033C91.4109 11.2592 91.5744 10.9103 91.5744 10.559C91.5744 10.2296 91.4182 9.90753 91.0962 9.59278C89.5005 7.96291 87.6705 6.63316 85.6112 5.62303C83.4007 4.54215 81.1925 4.00049 78.982 4.00049C76.93 4.00049 75.0269 4.264 73.2823 4.77882C71.5451 5.28632 70.0494 6.02318 68.7904 6.98207C67.5168 7.94095 66.553 9.08528 65.8796 10.415C65.2135 11.7521 64.8793 13.2185 64.8793 14.8215C64.8793 17.6884 65.9797 20.0844 68.1902 21.9802C70.2861 23.7833 73.5044 25.3424 77.8596 26.6283L78.5672 26.8064C79.5407 27.0845 80.3117 27.3212 80.8924 27.514C81.4634 27.7067 82.0221 27.9507 82.5589 28.2435C84.3034 29.2024 85.1696 30.3955 85.1696 31.8204C85.1696 32.4938 85.0257 33.1209 84.7255 33.7309C84.5181 34.1676 84.24 34.5604 83.8886 34.924V34.9313C83.8813 34.9386 83.8813 34.9386 83.874 34.946C83.7447 35.0826 83.5959 35.2241 83.4446 35.3461C82.859 35.839 82.1441 36.2269 81.3194 36.5051C80.4898 36.7832 79.5749 36.9198 78.5867 36.9198C77.5058 36.9198 76.4567 36.7417 75.4124 36.3831C75.3758 36.3757 75.3343 36.3611 75.305 36.3465C73.4946 35.795 71.7427 34.8801 70.191 33.887C70.047 33.7943 69.9055 33.6943 69.7542 33.5942C69.4687 33.3942 69.1686 33.1795 68.8685 32.9501C68.3244 32.55 67.9657 32.4597 67.6388 32.4816C67.3948 32.4963 67.1679 32.6183 66.9532 32.8403L64.7646 35.085L64.4132 35.5218C64.0985 35.8853 63.9545 36.244 63.9765 36.5953C64.018 37.2126 64.5865 37.7153 64.6499 37.7787L64.6572 37.786C64.9573 38.1081 65.2721 38.4155 65.5942 38.7083C65.7503 38.8596 65.9162 39.0084 66.0797 39.1451C66.2505 39.289 66.4164 39.4305 66.5872 39.5672C66.758 39.7038 66.9312 39.838 67.1093 39.9673C67.6388 40.3675 68.1829 40.7334 68.7538 41.075C69.4395 41.4971 70.1617 41.8753 70.9132 42.2193C73.5019 43.4076 76.1126 44.0005 78.7429 44.0005C80.6387 44.0005 82.4613 43.7223 84.2058 43.149C85.9357 42.5829 87.4875 41.7753 88.8246 40.731C90.2202 39.6721 91.2987 38.3984 92.0794 36.9198C92.8529 35.4388 93.2384 33.8236 93.2384 32.0571C93.2408 30.3052 92.9188 28.7656 92.2624 27.4652Z" fill="#0D5384"/>
<path d="M139.99 42.417L136.103 6.03538C136.103 6.01342 136.103 5.99878 136.096 5.97926L136.088 5.87922C136.039 5.20093 135.673 4.83738 134.998 4.83738H128.085C127.566 4.83738 127.358 5.14481 127.095 5.82067L117.994 31.3837C117.994 31.391 117.994 31.391 117.994 31.391L117.95 31.4984L111.579 13.9578C111.416 13.8285 111.208 13.9797 111.172 14.2579C110.764 16.9906 109.647 19.8502 107.763 21.6923L107.451 21.9046L114.668 41.7411C114.932 42.5195 115.188 42.6756 115.71 42.6756C115.71 42.6756 115.71 42.6756 115.717 42.6756H120.075C120.16 42.6756 120.246 42.6756 120.317 42.661C120.58 42.6317 120.744 42.5243 120.902 42.2828C120.924 42.2608 120.946 42.2389 120.951 42.212C121.022 42.09 121.088 41.9339 121.166 41.7411L130.003 17.8836L132.655 42.4682C132.755 43.1172 132.997 43.432 133.619 43.4515C133.648 43.4588 133.668 43.4588 133.697 43.4588H138.997C139.053 43.4588 139.111 43.4588 139.167 43.4442C139.211 43.4442 139.253 43.4369 139.297 43.4222C139.775 43.3368 140.046 43.0148 139.995 42.4877C139.997 42.4682 139.99 42.4389 139.99 42.417Z" fill="#0D5384"/>
<path d="M105.504 23.5442C105.504 23.5442 104.97 23.7467 104.733 23.8614C103.196 24.6275 101.485 25.0838 99.6847 25.1497H99.5212C99.2065 25.1497 98.8307 25.0765 98.5843 25.057C98.1744 25.0204 97.8987 25.1741 97.8718 25.44C97.6717 27.2919 96.0394 42.3853 96.0394 42.3853C95.9882 43.0636 96.3542 43.4295 97.0325 43.4295H97.0959C97.2399 43.4588 97.396 43.4661 97.5668 43.4588C98.3183 43.4369 99.082 43.4295 99.8408 43.4295C100.607 43.4295 101.363 43.4369 102.122 43.4588C102.3 43.4661 102.459 43.4515 102.593 43.4149C102.671 43.4003 102.737 43.3856 102.8 43.3637C102.815 43.3637 102.83 43.3563 102.844 43.349C103.259 43.1782 103.445 42.7976 103.518 42.1681C103.525 42.0608 103.54 41.9534 103.547 41.8534C103.584 41.502 103.625 41.1531 103.669 40.8018C103.813 39.4208 103.969 38.0349 104.12 36.6539C104.35 34.558 104.586 32.4621 104.821 30.3687C105.048 28.2947 105.504 23.5442 105.504 23.5442Z" fill="#0D5384"/>
<path d="M103.21 5.79871C102.515 5.38148 101.751 5.06429 100.939 4.86178C100.436 4.73734 99.9335 5.09357 99.8774 5.60351L98.3061 20.3992C98.25 20.9164 98.6697 21.3629 99.1869 21.3483C100.024 21.3215 100.839 21.1677 101.605 20.9042C104.601 19.8892 106.887 17.22 107.241 13.8724C107.597 10.5175 105.926 7.42613 103.21 5.79871Z" fill="#0D5384"/>
<path d="M101.605 20.9044L102.867 9.02196L103.208 5.80127C105.924 7.42869 107.598 10.5201 107.242 13.875C106.888 17.2176 104.602 19.8894 101.605 20.9044Z" fill="#009BDE"/>
</svg>
