<svg width="160" height="56" viewBox="0 0 160 56" fill="none" xmlns="http://www.w3.org/2000/svg">
<path d="M26.7943 5.20667C14.2056 5.20667 4 15.412 4 28.0007C4 40.5899 14.2056 50.7944 26.7943 50.7944C39.3843 50.7944 49.5888 40.5899 49.5888 28.0007C49.5888 15.4128 39.3843 5.20775 26.794 5.20775L26.7943 5.20667ZM37.2476 38.0822C36.8393 38.7518 35.9628 38.9641 35.2932 38.5531C29.9414 35.284 23.204 34.5436 15.2696 36.3565C14.505 36.5307 13.7429 36.0516 13.5687 35.2867C13.3937 34.5219 13.8708 33.7597 14.6373 33.5855C23.3203 31.6018 30.7683 32.4559 36.7767 36.1278C37.4463 36.5388 37.6586 37.4126 37.2476 38.0822ZM40.0376 31.8756C39.5231 32.7118 38.4289 32.9758 37.5933 32.4614C31.4662 28.6953 22.1264 27.6046 14.8793 29.8045C13.9394 30.0884 12.9467 29.5587 12.6615 28.6204C12.3784 27.6806 12.9083 26.6898 13.8466 26.404C22.1248 23.8922 32.4161 25.1089 39.4523 29.4327C40.288 29.9471 40.552 31.0413 40.0376 31.8759V31.8756ZM40.2771 25.4127C32.9306 21.0491 20.8098 20.6479 13.7957 22.7767C12.6694 23.1183 11.4782 22.4825 11.1369 21.3562C10.7956 20.2293 11.4309 19.039 12.558 18.6966C20.6098 16.2523 33.9949 16.7245 42.453 21.7457C43.4683 22.3469 43.8004 23.6554 43.1988 24.6671C42.6 25.6802 41.288 26.0142 40.2782 25.4127H40.2771ZM66.0157 26.2488C62.0798 25.3103 61.3802 24.6516 61.3802 23.2675C61.3802 21.9599 62.6105 21.0799 64.4424 21.0799C66.2171 21.0799 67.9755 21.7481 69.8209 23.1238C69.8754 23.1654 69.9461 23.182 70.0142 23.1711C70.085 23.1608 70.1448 23.123 70.1857 23.0661L72.1073 20.3572C72.1863 20.2456 72.1645 20.0918 72.0583 20.0066C69.8618 18.2447 67.3902 17.3881 64.4995 17.3881C60.2506 17.3881 57.281 19.9383 57.281 23.5871C57.281 27.4998 59.8423 28.8853 64.2682 29.9547C68.0326 30.8222 68.6695 31.549 68.6695 32.8479C68.6695 34.2878 67.3848 35.1833 65.3161 35.1833C63.0188 35.1833 61.1434 34.4075 59.0475 32.5947C58.9958 32.5485 58.925 32.5294 58.8597 32.5321C58.7889 32.5376 58.7263 32.5702 58.6828 32.622L56.527 35.186C56.4372 35.2949 56.4481 35.4528 56.5515 35.5453C58.9904 37.7229 61.9899 38.8715 65.229 38.8715C69.8073 38.8715 72.7661 36.3701 72.7661 32.4968C72.7742 29.2285 70.8172 27.4184 66.0238 26.2524L66.0157 26.2488ZM83.1257 22.3674C81.1414 22.3674 79.5137 23.1491 78.1691 24.751V22.9479C78.1691 22.8056 78.0548 22.6896 77.9132 22.6896H74.3883C74.2468 22.6896 74.1325 22.8056 74.1325 22.9479V42.9816C74.1325 43.1232 74.2468 43.2402 74.3883 43.2402H77.9132C78.0548 43.2402 78.1691 43.1232 78.1691 42.9816V36.6586C79.5137 38.1638 81.1414 38.9015 83.1257 38.9015C86.8139 38.9015 90.5484 36.0625 90.5484 30.6352C90.5539 25.2069 86.8194 22.3671 83.1284 22.3671L83.1257 22.3674ZM86.4492 30.6352C86.4492 33.3977 84.748 35.3276 82.3092 35.3276C79.9002 35.3276 78.082 33.3106 78.082 30.6352C78.082 27.9596 79.9002 25.9432 82.3092 25.9432C84.7072 25.9429 86.4492 27.9157 86.4492 30.635V30.6352ZM100.116 22.3674C95.3663 22.3674 91.6454 26.0245 91.6454 30.6943C91.6454 35.314 95.3418 38.9314 100.059 38.9314C104.825 38.9314 108.557 35.2867 108.557 30.6352C108.557 25.9995 104.849 22.3679 100.116 22.3679V22.3674ZM100.116 35.3548C97.5901 35.3548 95.6847 33.3242 95.6847 30.6339C95.6847 27.9313 97.5247 25.9701 100.059 25.9701C102.601 25.9701 104.517 27.9998 104.517 30.6929C104.517 33.395 102.666 35.3548 100.116 35.3548ZM118.699 22.6896H114.82V18.7249C114.82 18.5828 114.706 18.4668 114.564 18.4668H111.039C110.898 18.4668 110.781 18.5828 110.781 18.7249V22.6896H109.088C108.946 22.6896 108.832 22.8056 108.832 22.9479V25.9766C108.832 26.1187 108.946 26.2349 109.088 26.2349H110.781V34.0728C110.781 37.2384 112.357 38.8443 115.468 38.8443C116.731 38.8443 117.779 38.583 118.767 38.0223C118.848 37.9787 118.897 37.8916 118.897 37.7991V34.9138C118.897 34.8267 118.851 34.7423 118.775 34.6961C118.699 34.6471 118.603 34.6444 118.524 34.6852C117.847 35.0254 117.191 35.1833 116.456 35.1833C115.326 35.1833 114.82 34.6689 114.82 33.5202V26.2363H118.699C118.84 26.2363 118.955 26.1204 118.955 25.978V22.9496C118.96 22.8072 118.846 22.6913 118.701 22.6913L118.699 22.6896ZM132.21 22.7051V22.2182C132.21 20.7856 132.76 20.1468 133.99 20.1468C134.725 20.1468 135.316 20.2927 135.977 20.5132C136.059 20.5388 136.144 20.526 136.209 20.4772C136.277 20.4285 136.315 20.3504 136.315 20.2677V17.298C136.315 17.1845 136.244 17.0841 136.133 17.0506C135.436 16.8429 134.543 16.6298 133.204 16.6298C129.951 16.6298 128.228 18.4627 128.228 21.9286V22.6744H126.535C126.394 22.6744 126.277 22.7903 126.277 22.9324V25.9766C126.277 26.1187 126.394 26.2349 126.535 26.2349H128.228V38.3217C128.228 38.4659 128.345 38.5803 128.487 38.5803H132.009C132.153 38.5803 132.267 38.4659 132.267 38.3217V26.2358H135.558L140.599 38.3217C140.028 39.5901 139.464 39.8432 138.697 39.8432C138.076 39.8432 137.42 39.6582 136.753 39.2907C136.691 39.258 136.614 39.2526 136.549 39.2716C136.481 39.2961 136.424 39.3451 136.397 39.4105L135.202 42.0317C135.145 42.1569 135.194 42.3012 135.313 42.3665C136.56 43.0415 137.684 43.33 139.075 43.33C141.677 43.33 143.117 42.1161 144.383 38.8552L150.496 23.0579C150.529 22.9784 150.518 22.8886 150.469 22.8181C150.423 22.7482 150.344 22.706 150.259 22.706H146.59C146.479 22.706 146.381 22.7759 146.345 22.8791L142.586 33.6127L138.471 22.872C138.433 22.7721 138.337 22.706 138.231 22.706H132.21V22.7051ZM124.377 22.6896H120.852C120.71 22.6896 120.593 22.8056 120.593 22.9479V38.3217C120.593 38.4659 120.71 38.5803 120.852 38.5803H124.377C124.518 38.5803 124.635 38.4659 124.635 38.3217V22.949C124.635 22.8067 124.521 22.6907 124.377 22.6907V22.6896ZM122.635 15.6891C121.238 15.6891 120.106 16.8192 120.106 18.2153C120.106 19.6122 121.238 20.7437 122.635 20.7437C124.031 20.7437 125.161 19.6122 125.161 18.2153C125.161 16.8195 124.028 15.6891 122.635 15.6891ZM153.507 27.6329C152.113 27.6329 151.027 26.5129 151.027 25.1527C151.027 23.7926 152.127 22.6597 153.52 22.6597C154.914 22.6597 156 23.7795 156 25.1386C156 26.4987 154.9 27.6329 153.507 27.6329ZM153.52 22.9063C152.249 22.9063 151.288 23.9161 151.288 25.1527C151.288 26.3887 152.244 27.385 153.507 27.385C154.778 27.385 155.739 26.3759 155.739 25.1386C155.739 23.9025 154.783 22.9063 153.52 22.9063ZM154.07 25.3936L154.772 26.3757H154.179L153.548 25.4747H153.006V26.3757H152.51V23.7724H153.67C154.277 23.7724 154.674 24.0819 154.674 24.6029C154.677 25.0297 154.429 25.2904 154.073 25.3936H154.07ZM153.651 24.2191H153.006V25.0425H153.651C153.972 25.0425 154.165 24.8849 154.165 24.6304C154.165 24.3625 153.972 24.2191 153.651 24.2191Z" fill="#1ED760"/>
</svg>
