<svg width="160" height="56" viewBox="0 0 160 56" fill="none" xmlns="http://www.w3.org/2000/svg">
<path d="M106.011 22.5273C109.665 22.5273 112.578 25.44 112.578 29.7837C112.578 34.1273 109.665 37.0912 106.011 37.0912C103.891 37.0912 102.663 36.0179 101.521 34.511V43.7119H98.0927V22.8579H101.521V24.929C102.378 23.4983 103.891 22.5273 106.011 22.5273ZM132.869 22.5668C136.932 22.5668 139.947 25.3146 139.947 29.6834C139.947 30.1179 139.921 30.571 139.845 31.1423H129.522C129.676 32.8564 130.953 34.1565 132.818 34.1565C134.351 34.1565 135.092 33.4277 135.577 32.5707H139.461C138.669 35.1417 136.268 37.1274 132.818 37.1274C128.756 37.1274 125.843 34.2493 125.843 29.8034C125.843 25.3578 128.756 22.5668 132.869 22.5668ZM86.2813 22.5273C88.3764 22.5273 90.0938 23.4983 90.9509 24.929V22.8579H94.6646V36.8558H90.9509V34.511C90.0938 36.0179 88.4004 37.0912 86.3053 37.0912C82.6775 37.0912 79.6674 34.1273 79.6674 29.7837C79.6674 25.44 82.6535 22.5273 86.2813 22.5273ZM61.4267 19.0527L67.1507 32.2622L72.8738 19.0527H76.8598V36.8866H73.2826V25.6189L68.4279 36.8866H65.8475L61.0185 25.67V36.8866H57.4156V19.0527H61.4267ZM124.177 22.7322V25.67L118.224 33.9231H124.177V36.8866H114.033V33.9231L120.012 25.67H114.033V22.7322H124.177ZM150.507 22.5273C153.624 22.5273 156 24.6733 156 28.5573V36.8866H152.423V29.0686C152.423 26.8201 151.171 25.6449 149.28 25.6449C147.364 25.6449 146.112 26.8201 146.112 29.0686V36.8866H142.509V22.7322H146.112V24.8521C146.981 23.3706 148.565 22.5273 150.507 22.5273ZM87.0034 25.6449C85.1637 25.6449 83.2729 27.0501 83.2729 29.7837C83.2729 32.5173 85.1637 33.9739 87.0034 33.9739C88.8686 33.9739 90.7595 32.543 90.7595 29.8094C90.7595 27.0755 88.8686 25.6449 87.0034 25.6449ZM105.137 25.6449C103.271 25.6449 101.406 27.0755 101.406 29.8094C101.406 32.543 103.271 33.9739 105.137 33.9739C107.002 33.9739 108.867 32.5173 108.867 29.7837C108.867 27.0501 107.002 25.6449 105.137 25.6449ZM132.818 25.7657C131.106 25.7657 129.752 26.8573 129.522 28.857H136.216C136.114 26.8573 134.657 25.7657 132.818 25.7657Z" fill="#54485B"/>
<path d="M34.3493 23.7452L48.3207 27.8685C48.5661 27.9414 48.5661 28.0585 48.3207 28.1311L31.8274 32.9992C31.582 33.0715 31.3241 33.3292 31.2515 33.5748L26.3834 50.0684C26.3474 50.1909 26.2997 50.2523 26.2522 50.2523C26.2048 50.2523 26.1574 50.1909 26.1211 50.0684L22.3774 37.384L30.8213 32.0811L34.3493 23.7452ZM10.7111 31.1572L12.2126 31.6003L11.9024 42.113L13.9407 41.4194L14.2126 32.1908L15.7133 32.6338L15.4699 40.8992L21.6906 38.7823L22.1192 40.235L15.4219 42.5138L15.3822 43.8767L22.5485 41.6885L22.9767 43.1403L13.8072 45.9401L13.8927 43.0346L10.3255 44.2484L10.7111 31.1572ZM41.7936 31.1572L42.179 44.2484L38.5753 43.022L38.6612 45.9401L29.5249 43.1505L29.9534 41.6993L37.0863 43.8767L37.0461 42.5012L30.3851 40.235L30.8141 38.7823L36.9986 40.8863L36.7552 32.6444L38.2565 32.2013L38.5278 41.4071L40.6024 42.113L40.2927 31.6003L41.7936 31.1572ZM35.756 17.0224L29.7631 31.1806L16.7434 39.3568L22.7365 25.1987L35.756 17.0224ZM26.2522 5.74756C26.2997 5.74756 26.3474 5.80869 26.3834 5.93153L30.2211 18.9333L21.6784 24.2982L18.2931 32.2953L4.18383 28.1311C3.93872 28.0585 3.93872 27.9414 4.18383 27.8685L20.6777 23.0004C20.9228 22.9281 21.1807 22.6707 21.253 22.4251L26.1211 5.93153C26.1574 5.80869 26.2048 5.74756 26.2522 5.74756ZM28.0774 26.1077C27.1124 25.1424 25.5478 25.1424 24.5825 26.1077C23.6172 27.0724 23.6172 28.6373 24.5825 29.6026C25.5478 30.5676 27.1124 30.5676 28.0774 29.6026C29.0427 28.6373 29.0427 27.0724 28.0774 26.1077ZM13.8072 9.7701L23.0553 12.5937L22.6268 14.0452L15.3822 11.8332L15.4441 13.9506L22.0589 15.9709L21.6301 17.4224L15.4913 15.5472L15.7215 23.3635L14.2209 23.8069L13.9638 15.0807L11.9012 14.4508L12.1946 24.4048L10.694 24.8478L10.3263 12.3874L13.9167 13.4838L13.8072 9.7701ZM38.6612 9.7701L38.5513 13.4953L42.1782 12.3874L41.8108 24.8478L40.3099 24.4048L40.6035 14.4508L38.5044 15.0919L38.2479 23.7963L36.7472 23.3529L36.9769 15.5584L30.8744 17.4224L30.4465 15.9709L37.0238 13.9618L37.0863 11.8332L29.8748 14.0349L29.4463 12.5837L38.6612 9.7701Z" fill="#54485B"/>
</svg>
