<svg width="160" height="160" viewBox="0 0 160 160" fill="none" xmlns="http://www.w3.org/2000/svg">
<path d="M135.61 52.3762L121.804 49.8089C121.468 49.746 121.1 49.4302 120.987 49.106L116.755 39.2333C116.597 38.9284 116.627 38.4497 116.822 38.1659L124.866 26.4422C125.058 26.16 125.02 25.7308 124.778 25.4881L114.731 15.4415C114.488 15.1988 114.06 15.1594 113.778 15.3533L101.848 23.5398C101.566 23.7338 101.083 23.7682 100.776 23.617L91.2056 19.6993C90.8806 19.5919 90.564 19.2282 90.5002 18.8915L87.8422 4.61222C87.7801 4.27546 87.4483 4 87.1057 4H72.8962C72.5544 4 72.2226 4.27546 72.1605 4.61222L69.5033 18.8915C69.4395 19.2282 69.1237 19.5919 68.7979 19.6993L59.2266 23.617C58.9192 23.7682 58.4355 23.7338 58.1542 23.5398L46.2256 15.3533C45.9426 15.1594 45.5134 15.1988 45.2715 15.4415L35.2241 25.4881C34.9822 25.7308 34.9419 26.16 35.1359 26.4422L43.1804 38.1659C43.3736 38.4497 43.4038 38.9284 43.2468 39.2333L39.0142 49.106C38.9016 49.4302 38.5346 49.746 38.197 49.8089L24.3923 52.3762C24.0547 52.4401 23.7801 52.7709 23.7801 53.1136L23.7809 67.3223C23.7809 67.6649 24.0564 67.9983 24.3931 68.0596L37.8594 70.5656C38.1962 70.6269 38.5565 70.9469 38.6589 71.2736L42.863 81.7754C43.0133 82.0836 42.978 82.5656 42.7832 82.8478L35.1342 93.9945C34.9411 94.2767 34.9806 94.7067 35.2224 94.9494L45.2707 104.996C45.5126 105.237 45.9417 105.277 46.2247 105.084L57.1741 97.5688C57.4563 97.3756 57.9291 97.3605 58.2239 97.5326L63.0528 100.111C63.3585 100.267 63.7154 100.135 63.8464 99.8186L73.8031 75.7607C73.935 75.444 73.8031 75.0401 73.5109 74.8612L72.3024 74.1214C72.079 73.9853 71.7759 73.751 71.5382 73.536C67.1788 70.7445 64.2865 65.861 64.2865 60.2998C64.2865 51.6212 71.3224 44.5862 80.0001 44.5862C88.6778 44.5862 95.7129 51.6212 95.7129 60.2998C95.7129 65.861 92.8214 70.7445 88.4611 73.536C88.2252 73.751 87.9211 73.9853 87.6986 74.1214L86.4901 74.8612C86.1995 75.0401 86.0668 75.444 86.1979 75.7607L96.1538 99.8194C96.2848 100.136 96.6409 100.267 96.9474 100.112L101.776 97.5335C102.072 97.3613 102.544 97.3756 102.826 97.5696L113.776 105.085C114.058 105.277 114.488 105.238 114.729 104.997L124.778 94.9502C125.02 94.7075 125.06 94.2775 124.866 93.9954L117.216 82.8486C117.023 82.5665 116.987 82.0844 117.137 81.7762L121.341 71.2744C121.445 70.9477 121.802 70.6278 122.14 70.5665L135.606 68.0605C135.942 67.9992 136.218 67.6658 136.218 67.3231L136.22 53.1144C136.221 52.7709 135.945 52.4401 135.61 52.3762Z" fill="#0099B0"/>
<path d="M45.9694 155.821H49.0037V145.53C49.0037 141.813 46.4456 140.564 42.7278 140.564C40.467 140.564 38.8017 141.157 37.6419 142.765L40.0211 144.579C40.556 143.716 41.3001 143.417 42.8764 143.417C45.0473 143.417 45.9694 143.924 45.9694 145.351V146.928H41.7754C38.5338 146.928 36.8684 148.981 36.8684 151.389C36.8684 154.007 38.8311 156 42.192 156C44.2445 156 45.2858 155.525 45.9098 154.482H45.9694V155.821ZM45.9694 150.526C45.9694 152.877 45.1069 153.144 42.5791 153.144C40.5266 153.144 39.7229 152.251 39.7229 151.241C39.7229 150.14 40.556 149.425 42.3415 149.425H45.9694V150.526Z" fill="#0099B0"/>
<path d="M52.336 155.821H55.3694V146.749C55.3694 144.549 56.8273 143.596 58.3146 143.596C59.0881 143.596 59.5936 143.804 60.3075 144.341L62.5077 141.723C61.5856 141.009 60.5753 140.564 59.3551 140.564C57.7494 140.564 56.3805 141.159 55.429 142.348H55.3694V140.742H52.336V155.821Z" fill="#0099B0"/>
<path d="M71.5819 155.821H74.6152V134.644H71.5819V142.348C70.4515 141.277 69.2321 140.564 67.6852 140.564C65.8409 140.564 64.5031 141.395 63.6406 142.527C62.8076 143.596 62.5699 144.577 62.5699 148.268C62.5699 151.985 62.8076 152.966 63.6406 154.037C64.5031 155.167 65.8409 156 67.6852 156C69.2321 156 70.6304 155.284 71.5819 154.245V155.821ZM68.6073 143.596C71.4332 143.596 71.5819 146.096 71.5819 148.268C71.5819 150.469 71.4332 152.966 68.6073 152.966C65.7519 152.966 65.6033 150.617 65.6033 148.268C65.6033 145.947 65.7519 143.596 68.6073 143.596Z" fill="#0099B0"/>
<path d="M90.0979 155.821H92.7761L97.5932 140.742H94.3801L91.497 151.3H91.4357L88.016 140.742H85.8149L82.3952 151.3H82.3356L79.45 140.742H76.2386L81.0566 155.821H83.733L86.8857 145.262H86.9453L90.0979 155.821Z" fill="#0099B0"/>
<path d="M109.964 155.821V145.53C109.964 141.813 107.405 140.564 103.689 140.564C101.429 140.564 99.7616 141.157 98.6018 142.765L100.982 144.579C101.517 143.716 102.259 143.417 103.835 143.417C106.007 143.417 106.929 143.924 106.929 145.351V146.928H102.735C99.4945 146.928 97.8275 148.981 97.8275 151.389C97.8275 154.007 99.791 156 103.152 156C105.204 156 106.246 155.525 106.871 154.482H106.929V155.821H109.964ZM106.93 150.526C106.93 152.877 106.068 153.144 103.54 153.144C101.488 153.144 100.685 152.251 100.685 151.241C100.685 150.14 101.518 149.425 103.302 149.425H106.93V150.526Z" fill="#0099B0"/>
<path d="M113.298 155.821H116.33V146.749C116.33 144.549 117.786 143.596 119.274 143.596C120.049 143.596 120.554 143.804 121.267 144.341L123.468 141.723C122.546 141.009 121.534 140.564 120.316 140.564C118.71 140.564 117.342 141.159 116.391 142.348H116.33V140.742H113.298V155.821Z" fill="#0099B0"/>
<path d="M135.956 149.427V146.927C135.956 143.031 133.072 140.563 129.741 140.563C126.826 140.563 123.525 142.466 123.525 148.324C123.525 154.511 127.123 155.999 130.217 155.999C132.239 155.999 134.172 155.285 135.659 153.56L133.458 151.686C132.565 152.61 131.316 153.144 130.158 153.144C128.075 153.144 126.559 151.894 126.559 149.427H135.956ZM126.559 146.928C126.618 144.637 127.956 143.417 129.741 143.417C131.526 143.417 132.835 144.637 132.923 146.928H126.559Z" fill="#0099B0"/>
<path d="M7.67676 124.449C7.67676 127.72 8.15209 128.97 9.31186 130.249C10.145 131.171 11.5432 132.181 13.893 132.181C16.2419 132.181 17.6402 131.171 18.4733 130.249C19.6331 128.97 20.1093 127.719 20.1093 124.449C20.1093 121.207 19.6331 119.958 18.4733 118.679C17.6402 117.757 16.2419 116.745 13.893 116.745C11.5432 116.745 10.145 117.757 9.31186 118.679C8.15209 119.959 7.67676 121.207 7.67676 124.449ZM17.075 124.479C17.075 126.65 16.897 127.244 16.3318 128.048C15.885 128.673 14.9335 129.149 13.893 129.149C12.8516 129.149 11.9001 128.674 11.4542 128.048C10.889 127.244 10.7101 126.65 10.7101 124.449C10.7101 122.278 10.889 121.682 11.4542 120.88C11.9001 120.255 12.8516 119.779 13.893 119.779C14.9335 119.779 15.885 120.254 16.3318 120.88C16.897 121.682 17.075 122.278 17.075 124.479Z" fill="#0099B0"/>
<path d="M49.2212 125.609V123.111C49.2212 119.213 46.3364 116.745 43.0057 116.745C40.0899 116.745 36.7895 118.65 36.7895 124.508C36.7895 130.693 40.3881 132.181 43.4811 132.181C45.5042 132.181 47.4366 131.468 48.9239 129.743L46.7227 127.87C45.8309 128.792 44.5821 129.328 43.4223 129.328C41.3396 129.328 39.8229 128.078 39.8229 125.609H49.2212ZM39.8229 123.111C39.8825 120.82 41.2212 119.601 43.0057 119.601C44.7903 119.601 46.0988 120.82 46.1878 123.111H39.8229Z" fill="#0099B0"/>
<path d="M51.8103 132.003H54.8437V123.022C54.8437 120.969 56.1227 119.78 57.8477 119.78C59.5432 119.78 60.8223 120.969 60.8223 123.022V132.003H63.8556V121.98C63.8556 118.559 61.1792 116.745 58.8294 116.745C57.2237 116.745 55.8548 117.34 54.9041 118.529H54.8437V116.924H51.8103V132.003Z" fill="#0099B0"/>
<path d="M72.058 129.476C73.9913 131.29 76.252 132.182 78.6908 132.182C82.2004 132.182 84.9365 130.488 84.9365 127.542C84.9365 125.135 83.6885 123.23 80.5644 123.022L78.066 122.844C76.5493 122.724 76.074 122.07 76.074 121.416C76.074 120.376 76.7282 119.602 78.6606 119.602C80.2974 119.602 81.5176 120.168 82.7068 120.999L84.5795 118.8C83.0922 117.55 81.3085 116.747 78.6598 116.747C75.4777 116.747 73.0389 118.323 73.0389 121.387C73.0389 123.973 74.8831 125.461 77.3807 125.67L80.058 125.907C81.1002 125.995 81.9022 126.324 81.9022 127.394C81.9022 128.674 80.6518 129.327 78.9277 129.327C76.9054 129.327 75.4777 128.674 74.1693 127.394L72.058 129.476Z" fill="#0099B0"/>
<path d="M86.6614 124.449C86.6614 127.72 87.1384 128.97 88.2982 130.249C89.1313 131.171 90.5287 132.181 92.8777 132.181C95.2283 132.181 96.6257 131.171 97.4588 130.249C98.6186 128.97 99.0939 127.719 99.0939 124.449C99.0939 121.207 98.6186 119.958 97.4588 118.679C96.6257 117.757 95.2283 116.745 92.8777 116.745C90.5287 116.745 89.1313 117.757 88.2982 118.679C87.1384 119.959 86.6614 121.207 86.6614 124.449ZM96.0597 124.479C96.0597 126.65 95.8825 127.244 95.3165 128.048C94.8705 128.673 93.919 129.149 92.8777 129.149C91.838 129.149 90.8848 128.674 90.4406 128.048C89.8745 127.244 89.6956 126.65 89.6956 124.449C89.6956 122.278 89.8745 121.682 90.4406 120.88C90.8848 120.255 91.838 119.779 92.8777 119.779C93.919 119.779 94.8705 120.254 95.3165 120.88C95.8825 121.682 96.0597 122.278 96.0597 124.479Z" fill="#0099B0"/>
<path d="M101.684 126.948C101.684 130.367 104.361 132.181 106.74 132.181C108.315 132.181 109.685 131.586 110.636 130.397H110.695V132.004H113.728V116.924H110.695V125.906C110.695 127.957 109.416 129.148 107.72 129.148C105.995 129.148 104.716 127.957 104.716 125.906V116.924H101.684V126.948Z" fill="#0099B0"/>
<path d="M117.055 132.003H120.089V122.932C120.089 120.731 121.545 119.779 123.033 119.779C123.808 119.779 124.312 119.987 125.026 120.522L127.227 117.905C126.304 117.191 125.295 116.745 124.075 116.745C122.469 116.745 121.099 117.34 120.148 118.529H120.089V116.924H117.055V132.003Z" fill="#0099B0"/>
<path d="M136.889 127.573C136.145 128.495 135.075 129.149 133.827 129.149C131.358 129.149 129.9 127.75 129.9 124.477C129.9 121.177 131.358 119.779 133.827 119.779C135.075 119.779 136.146 120.433 136.889 121.355L139.119 119.363C137.812 117.845 135.996 116.745 133.707 116.745C130.227 116.745 126.866 118.946 126.866 124.477C126.866 129.982 130.227 132.181 133.707 132.181C135.997 132.181 137.812 131.08 139.119 129.565L136.889 127.573Z" fill="#0099B0"/>
<path d="M152.323 125.609V123.111C152.323 119.213 149.436 116.745 146.107 116.745C143.191 116.745 139.891 118.65 139.891 124.508C139.891 130.693 143.489 132.181 146.583 132.181C148.606 132.181 150.54 131.468 152.025 129.743L149.824 127.87C148.931 128.792 147.683 129.328 146.524 129.328C144.441 129.328 142.925 128.078 142.925 125.609H152.323ZM142.925 123.111C142.984 120.82 144.323 119.601 146.107 119.601C147.892 119.601 149.199 120.82 149.289 123.111H142.925Z" fill="#0099B0"/>
<path d="M28.7064 129.149C31.5617 129.149 31.7104 126.798 31.7104 124.479C31.7104 122.128 31.5617 119.779 28.7064 119.779C25.8813 119.779 25.7318 122.278 25.7318 124.479C25.7318 126.65 25.8804 129.149 28.7064 129.149ZM22.6866 155.821V116.925H25.7318V118.501C26.6841 117.46 28.0815 116.746 29.6285 116.746C31.4718 116.746 32.8113 117.579 33.6738 118.709C34.5061 119.78 34.7437 120.761 34.7437 124.48C34.7437 128.167 34.5061 129.15 33.6738 130.219C32.8113 131.349 31.4718 132.182 29.6285 132.182C28.0815 132.182 26.8621 131.468 25.7318 130.398L25.7208 142.348C26.732 141.159 28.1 140.564 29.7057 140.564C32.0555 140.564 34.732 142.377 34.732 145.797V155.821H31.6986V146.839C31.6986 144.786 30.4196 143.597 28.724 143.597C26.999 143.597 25.7208 144.786 25.7208 146.839V155.821H22.6866Z" fill="#0099B0"/>
</svg>
