<svg width="232" height="48" viewBox="0 0 232 48" fill="none" xmlns="http://www.w3.org/2000/svg">
<path d="M15.9864 31.2547V32.7164C15.9864 33.8505 16.9054 34.7695 18.0395 34.7695H36.3426C37.4766 34.7695 38.3956 33.8505 38.3956 32.7164V31.2547H47.6245V40.203C47.6245 42.2913 45.9158 44 43.8274 44H10.5529C8.46453 44 6.75586 42.2913 6.75586 40.203V31.2547H15.9864ZM15.9847 19.3847V28.6136H6.75586V19.3847H15.9847ZM47.6245 19.3847V28.6136H38.3956V19.3847H47.6245ZM43.8274 4C45.9158 4 47.6245 5.70867 47.6245 7.79872V16.7453H38.3956V15.2836C38.3956 14.1495 37.4766 13.2305 36.3426 13.2305H18.0378C16.9037 13.2305 15.9847 14.1495 15.9847 15.2836V16.7453H6.75586V7.79704C6.75586 5.70867 8.46453 4 10.5529 4H43.8274Z" fill="#DA1A32"/>
<path d="M88.934 13.2219C93.0805 13.2219 96.9935 16.703 96.9935 23.7074V24.2551C96.9935 31.2192 93.1209 34.739 88.934 34.739C85.9216 34.739 84.1222 33.0555 82.8705 31.2175V40.2548H78.4502V13.6116H82.8705V16.9383C84.1608 14.944 85.9602 13.2219 88.934 13.2219ZM198.801 13.2219C201.775 13.2219 203.731 14.3173 205.453 16.0394L202.988 19.287C201.893 18.153 200.68 17.2138 198.801 17.2138C195.905 17.2138 193.793 19.991 193.793 23.904V24.0989C193.793 28.1278 195.905 30.8277 198.917 30.8277C200.717 30.8277 201.93 29.9288 203.143 28.7158L205.528 31.6493C203.885 33.4873 201.812 34.7776 198.645 34.7793C193.247 34.7793 189.334 30.4362 189.334 24.2551V23.8637C189.334 17.6825 193.363 13.2219 198.801 13.2219ZM108.247 13.2219C113.88 13.2219 116.854 17.9178 116.854 24.1375L116.854 24.265C116.853 24.5785 116.849 25.1214 116.815 25.6631H103.827C104.216 29.1442 106.369 31.0226 109.068 31.0226C111.024 31.0226 112.472 30.1624 113.842 28.8317L116.15 31.5703C114.272 33.5663 111.963 34.7776 108.872 34.7776C103.551 34.7776 99.4045 30.7101 99.4045 24.2148V23.9023C99.4045 17.6825 103.161 13.2219 108.247 13.2219ZM66.4424 13.2202C71.9196 13.2202 75.9485 17.6809 75.9485 23.8233V24.1762C75.9485 30.28 71.8793 34.7776 66.3651 34.776C60.888 34.776 56.8574 30.3556 56.8574 24.2131V23.862C56.8574 17.7581 60.925 13.2202 66.4424 13.2202ZM147.03 13.2991C149.339 13.2991 151.804 14.1207 153.759 15.5286L151.881 18.7763C150.317 17.7212 148.595 16.9383 146.951 16.9383C145.308 16.9383 144.331 17.8388 144.331 18.9729V19.0518C144.331 20.4211 145.974 21.1251 148.4 22.2205C151.607 23.6688 154.033 25.154 154.033 28.4016V28.4403C154.033 32.5095 150.943 34.739 146.953 34.7407C144.488 34.7407 141.634 33.8401 139.247 31.8458L141.32 28.6772C143.198 30.201 145.194 31.1016 147.032 31.1016C148.87 31.1016 149.927 30.1237 149.927 28.8317V28.7931C149.927 27.3062 148.322 26.6409 145.858 25.5841C142.766 24.2534 140.184 22.8455 140.184 19.4416V19.3627C140.184 15.6463 143.158 13.2991 147.03 13.2991ZM178.559 13.3781C181.259 13.3781 183.333 14.1207 184.663 15.49C186.032 16.8593 186.736 18.8939 186.736 21.4779V34.3492H182.393V31.8055C181.18 33.5646 179.342 34.739 176.642 34.739C173.2 34.739 170.305 32.4322 170.305 28.4016V28.2067C170.305 23.7477 173.279 21.5569 177.661 21.5569C179.616 21.5569 181.026 21.908 182.434 22.3784V21.5165C182.434 18.7393 180.791 17.2911 177.973 17.2911C175.977 17.2911 174.334 17.9178 172.965 18.5428L171.713 15.0213C173.707 14.0434 175.782 13.3781 178.559 13.3781ZM163.106 8.0152V13.61H167.761V17.4053H163.106V28.4386C163.106 30.0431 163.927 30.7084 165.335 30.7084C166.197 30.7084 166.98 30.5135 167.723 30.1221V33.7612C166.706 34.3089 165.532 34.6617 164.043 34.6584C160.992 34.6584 158.684 33.368 158.684 29.3375V17.4053H157.141L156.416 13.61H158.685V8.0152H163.106ZM129.836 13.2219C133.827 13.2219 136.212 16.0377 136.212 20.4598V34.3492H131.792V21.7114C131.792 18.8166 130.423 17.2121 128.076 17.2121C125.767 17.2121 124.163 18.9342 124.163 21.7904V34.3492H119.742V13.6133H124.163V16.6644C125.337 14.8264 127.019 13.2219 129.836 13.2219ZM219.06 23.5864L225.245 34.3475H220.118L215.957 26.9215L219.06 23.5864ZM212.724 6.10156V22.7279L219.806 13.6116H225.05L212.724 28.363V34.3475H208.304V6.10156H212.724ZM178.638 24.5676C176.096 24.5676 174.609 25.8579 174.609 28.0488V28.1278C174.609 30.201 176.056 31.3754 177.973 31.4141C180.517 31.4527 182.472 29.7306 182.472 27.3835V25.3102C181.456 24.8801 180.125 24.5676 178.638 24.5676ZM66.3618 17.1331C63.2721 17.1331 61.2761 19.9877 61.2761 23.862V24.0972C61.2761 27.9715 63.4283 30.905 66.4408 30.9033C69.5305 30.9033 71.5264 28.0085 71.5264 24.1358V23.9006C71.5264 20.028 69.3742 17.1331 66.3618 17.1331ZM87.721 17.1348C85.0614 17.1348 82.7916 19.7155 82.7916 23.7847V24.1762C82.7916 28.2454 85.0614 30.8277 87.721 30.8294C90.4209 30.8294 92.5328 28.326 92.5328 24.1778V23.825C92.5328 19.6785 90.3823 17.1348 87.721 17.1348ZM108.247 16.9383C105.821 16.9383 104.1 19.0905 103.788 22.6103H112.551C112.316 19.324 110.829 16.9383 108.247 16.9383Z" fill="#4E4540"/>
</svg>
