<svg width="160" height="88" viewBox="0 0 160 88" fill="none" xmlns="http://www.w3.org/2000/svg">
<path d="M91.7737 42.0889H83.0791L81.423 46.0221H76.9722L85.3563 27.3909H89.6L97.9841 46.0221H93.4298L91.7737 42.0889ZM90.4281 38.7766L87.4264 31.6347L84.5282 38.7766H90.4281ZM116.305 34.1188C116.305 38.2591 113.2 40.8468 108.231 40.8468H104.402V46.0221H100.054V27.3909H108.128C113.2 27.3909 116.305 29.9785 116.305 34.1188ZM111.958 34.1188C111.958 32.0487 110.612 30.9101 108.024 30.9101H104.402V37.431H107.921C110.612 37.3275 111.958 36.189 111.958 34.1188ZM122.826 30.9101H116.822V27.3909H133.073V30.9101H127.07V46.0221H122.722V30.9101H122.826ZM145.494 42.0889H136.799L135.143 46.1256H130.692L139.076 27.3909H143.32L151.704 46.1256H147.15L145.494 42.0889ZM155.327 43.538C155.534 43.6415 155.741 43.8485 155.845 44.0555C156.052 44.4695 156.052 45.0906 155.845 45.5046C155.741 45.7116 155.534 45.9186 155.327 46.0221C154.913 46.2291 154.292 46.2291 153.878 46.0221C153.671 45.9186 153.464 45.7116 153.36 45.5046C153.153 45.0906 153.153 44.4695 153.36 44.0555C153.464 43.8485 153.671 43.6415 153.878 43.538C154.292 43.2274 154.809 43.2274 155.327 43.538ZM155.223 45.9186C155.43 45.8151 155.534 45.6081 155.637 45.4011C155.845 44.9871 155.845 44.4695 155.637 44.0555C155.534 43.8485 155.327 43.745 155.223 43.6415C154.809 43.4345 154.292 43.4345 153.878 43.6415C153.671 43.745 153.567 43.952 153.464 44.159C153.257 44.573 153.257 45.0906 153.464 45.5046C153.567 45.7116 153.774 45.8151 153.878 46.0221C154.292 46.1256 154.809 46.1256 155.223 45.9186ZM155.12 44.78C155.12 44.8835 155.016 44.8836 154.913 44.8836L155.223 45.2976H155.016L154.706 44.8836H154.395V45.2976H154.085V43.952H154.602C154.706 43.952 154.913 43.952 155.016 44.0555C155.12 44.159 155.12 44.2625 155.12 44.366C155.12 44.6765 155.12 44.78 155.12 44.78ZM154.809 44.78C154.913 44.78 154.913 44.6765 154.913 44.573C154.913 44.4695 154.913 44.4695 154.809 44.366C154.706 44.366 154.602 44.2625 154.602 44.2625H154.292V44.78H154.602C154.706 44.78 154.809 44.78 154.809 44.78ZM144.148 38.7766L141.147 31.6347L138.145 38.7766H144.148ZM77.4897 55.9588H73.66L72.8319 57.7184H71.7968L75.0056 50.5764H76.0406L79.2493 57.7184H78.2143L77.4897 55.9588ZM77.0757 55.1307L75.5231 51.6115L73.9705 55.1307H77.0757ZM89.186 54.6132V57.7184H88.151V54.7167C88.151 53.6816 87.6334 53.1641 86.7019 53.1641C85.8738 53.1641 85.0457 53.7852 85.0457 54.7167C85.0457 54.8202 85.0457 54.9237 85.0457 55.0272V57.8219H84.0107V54.8202C84.0107 53.7852 83.4931 53.2676 82.5616 53.2676C81.7335 53.2676 80.9055 53.8887 80.9055 54.8202C80.9055 54.9237 80.9055 55.0272 80.9055 55.1307V57.9254H79.8704V52.5431H80.802V53.3711C81.216 52.7501 81.9405 52.4396 82.6651 52.5431C83.3896 52.4396 84.2177 52.8536 84.5282 53.5781C85.0457 52.9571 85.7703 52.5431 86.5984 52.5431C87.7369 52.4396 88.772 53.2676 88.8755 54.5097C89.186 54.3027 89.186 54.5097 89.186 54.6132ZM95.707 55.3378H91.2562C91.3597 56.2693 92.2912 56.9939 93.2228 56.8904C93.8438 56.8904 94.3614 56.6833 94.7754 56.2693L95.2929 56.8904C94.1544 58.0289 92.2912 58.0289 91.1527 56.8904C90.6351 56.3728 90.3246 55.6483 90.3246 54.9237C90.2211 53.4746 91.3597 52.2325 92.9123 52.129C93.0158 52.129 93.0158 52.129 93.1193 52.129C94.5684 52.129 95.8105 53.2676 95.8105 54.7167C95.8105 54.8202 95.8105 54.9237 95.8105 54.9237C95.707 55.1307 95.707 55.2342 95.707 55.3378ZM91.2562 54.6132H94.7754C94.6719 53.6816 93.8438 52.9571 92.8088 53.0606C91.9807 53.1641 91.3597 53.8887 91.2562 54.6132ZM99.7437 52.2325V53.2676C99.6402 53.2676 99.6402 53.2676 99.5367 53.2676C98.6052 53.1641 97.8806 53.8887 97.7771 54.8202C97.7771 54.9237 97.7771 55.0272 97.7771 55.1307V57.8219H96.742V52.4396H97.6736V53.2676C98.1911 52.5431 99.0192 52.2325 99.7437 52.2325ZM100.572 50.6799C100.572 50.3694 100.882 50.0589 101.193 50.0589C101.503 50.0589 101.814 50.3694 101.814 50.6799C101.814 50.9905 101.503 51.301 101.193 51.301C100.779 51.301 100.572 50.9905 100.572 50.6799ZM100.675 52.3361H101.71V57.7184H100.675V52.3361ZM102.849 55.0272C102.849 53.5781 103.988 52.3361 105.54 52.2325C105.644 52.2325 105.644 52.2325 105.747 52.2325C106.679 52.129 107.507 52.6466 107.921 53.3711L107.196 53.8887C106.886 53.3711 106.265 53.0606 105.747 53.0606C104.712 53.0606 103.884 53.9922 103.884 55.0272C103.884 56.0623 104.712 56.8904 105.747 56.8904C106.368 56.8904 106.886 56.5798 107.196 56.0623L107.921 56.5798C107.507 57.3044 106.575 57.8219 105.747 57.7184C104.195 57.8219 102.952 56.6833 102.849 55.1307C102.849 55.1307 102.849 55.1307 102.849 55.0272ZM113.407 54.5097V57.8219H112.475V57.0974C112.061 57.6149 111.337 57.9254 110.715 57.9254C109.473 57.9254 108.749 57.3044 108.749 56.3728C108.749 55.5448 109.266 54.8202 110.922 54.8202H112.475V54.6132C112.475 53.7851 111.958 53.2676 111.026 53.2676C110.405 53.2676 109.784 53.4746 109.266 53.8887L108.852 53.1641C109.473 52.6466 110.301 52.4396 111.13 52.4396C112.579 52.2325 113.407 52.9571 113.407 54.5097ZM112.372 56.0623V55.3378H110.819C109.887 55.3378 109.577 55.7518 109.577 56.1658C109.577 56.6833 109.991 57.0974 110.819 57.0974C111.544 57.0974 112.165 56.6833 112.372 56.0623ZM120.135 54.6132V57.7184H119.1V54.7167C119.1 53.6816 118.582 53.1641 117.65 53.1641C116.719 53.0606 115.994 53.7851 115.891 54.6132C115.891 54.7167 115.891 54.8202 115.891 54.9237V57.7184H114.856V52.3361H115.787V53.1641C116.305 52.5431 117.029 52.2325 117.754 52.3361C118.893 52.2325 119.928 53.0606 120.031 54.3027C120.135 54.3027 120.135 54.5097 120.135 54.6132ZM73.3495 64.7569C73.3495 66.3095 72.2109 67.2411 70.3477 67.2411H68.5881V69.4147H67.5531V62.2727H70.3477C72.2109 62.2727 73.3495 63.2043 73.3495 64.7569ZM72.3144 64.7569C72.3144 63.7218 71.5898 63.1008 70.3477 63.1008H68.5881V66.3095H70.3477C71.6933 66.413 72.3144 65.792 72.3144 64.7569ZM79.6634 66.3095V69.4147H78.6283V66.413C78.6283 65.3779 78.1108 64.8604 77.1792 64.8604C76.2476 64.7569 75.5231 65.4814 75.4196 66.3095C75.4196 66.413 75.4196 66.5165 75.4196 66.62V69.4147H74.3845V61.8587H75.4196V64.7569C75.9371 64.2394 76.5582 63.9288 77.3862 63.9288C78.5248 63.8253 79.5599 64.6534 79.6634 65.8955C79.6634 65.999 79.6634 66.206 79.6634 66.3095ZM85.8738 64.0323L83.2861 70.0357C82.7686 71.1743 82.1475 71.5884 81.3195 71.5884C80.802 71.5884 80.2844 71.3813 79.9739 71.0708L80.3879 70.3463C80.6985 70.5533 81.009 70.7603 81.3195 70.7603C81.837 70.7603 82.044 70.5533 82.3546 69.9322L82.5616 69.5182L80.1809 64.1358H81.216L83.0791 68.4831L84.9422 64.1358L85.8738 64.0323ZM85.9773 68.8972L86.3913 68.0691C86.9089 68.4831 87.6334 68.5866 88.2545 68.5866C89.186 68.5866 89.4965 68.2761 89.4965 67.8621C89.4965 66.62 86.0808 67.6551 86.0808 65.5849C86.0808 64.6534 86.9089 63.9288 88.358 63.9288C89.0825 63.9288 89.7036 64.1358 90.3246 64.4464L89.9106 65.2744C89.393 64.9639 88.8755 64.8604 88.358 64.8604C87.5299 64.8604 87.1159 65.1709 87.1159 65.5849C87.1159 66.827 90.5316 65.792 90.5316 67.9656C90.5316 69.0007 89.6001 69.6217 88.151 69.6217C87.4264 69.5182 86.5983 69.3112 85.9773 68.8972ZM91.4632 62.3762C91.4632 62.0657 91.7737 61.7552 92.0842 61.7552C92.3947 61.7552 92.7053 62.0657 92.7053 62.3762C92.7053 62.6867 92.3947 62.9973 92.0842 62.9973C91.7737 62.9973 91.4632 62.6867 91.4632 62.3762ZM91.6702 64.0323H92.7053V69.4147H91.6702V64.0323ZM93.7403 66.7235C93.7403 65.2744 94.8789 64.0323 96.4315 63.9288C96.535 63.9288 96.535 63.9288 96.6385 63.9288C97.5701 63.8253 98.3981 64.3429 98.8122 65.0674L98.0876 65.5849C97.7771 65.0674 97.1561 64.7569 96.6385 64.7569C95.6035 64.7569 94.7754 65.6885 94.7754 66.7235C94.7754 67.7586 95.6035 68.5866 96.6385 68.5866C97.2596 68.5866 97.7771 68.2761 98.0876 67.7586L98.8122 68.2761C98.3981 69.0007 97.4666 69.5182 96.6385 69.4147C95.0859 69.5182 93.8438 68.3796 93.7403 66.827C93.7403 66.827 93.7403 66.827 93.7403 66.7235ZM104.298 66.206V69.5182H103.366V68.7937C102.952 69.3112 102.228 69.6217 101.607 69.6217C100.365 69.6217 99.6402 69.0007 99.6402 68.0691C99.6402 67.2411 100.158 66.5165 101.814 66.5165H103.366V66.3095C103.366 65.4814 102.849 64.9639 101.917 64.9639C101.296 64.9639 100.675 65.1709 100.158 65.5849L99.7437 64.6534C100.365 64.1358 101.193 63.9288 102.021 63.9288C103.47 63.9288 104.298 64.6534 104.298 66.206ZM103.366 67.7586V67.034H101.814C100.882 67.034 100.572 67.4481 100.572 67.8621C100.572 68.3796 100.986 68.7937 101.814 68.7937C102.435 68.7937 103.056 68.3796 103.366 67.7586ZM105.851 61.8587H106.886V69.4147H105.851V61.8587ZM113.096 63.2043H110.612V62.2727H116.512V63.2043H114.028V69.5182H112.993L113.096 63.2043ZM122.515 66.3095V69.4147H121.48V66.413C121.48 65.3779 120.963 64.8604 120.031 64.8604C119.1 64.7569 118.375 65.4814 118.271 66.3095C118.271 66.413 118.271 66.5165 118.271 66.62V69.4147H117.236V61.8587H118.271V64.7569C118.789 64.2394 119.41 63.9288 120.238 63.9288C121.377 63.8253 122.412 64.6534 122.515 65.8955C122.515 65.999 122.515 66.206 122.515 66.3095ZM129.036 67.034H124.585C124.689 67.9656 125.62 68.6902 126.552 68.5866C127.173 68.5866 127.691 68.3796 128.105 67.9656L128.622 68.5866C127.484 69.7252 125.62 69.7252 124.482 68.5866C123.964 68.0691 123.654 67.3446 123.654 66.62C123.55 65.1709 124.689 63.9288 126.242 63.8253C126.345 63.8253 126.345 63.8253 126.449 63.8253C127.898 63.8253 129.14 64.9639 129.14 66.413C129.14 66.5165 129.14 66.62 129.14 66.62C129.036 66.827 129.036 66.9305 129.036 67.034ZM124.585 66.3095H128.105C128.001 65.3779 127.173 64.6534 126.138 64.7569C125.413 64.8604 124.689 65.5849 124.585 66.3095ZM133.176 63.9288V64.8604C133.073 64.8604 133.073 64.8604 132.969 64.8604C132.038 64.7569 131.313 65.4814 131.21 66.413C131.21 66.5165 131.21 66.62 131.21 66.7235V69.4147H130.175V64.0323H131.106V64.9639C131.624 64.2394 132.348 63.9288 133.176 63.9288ZM138.559 66.206V69.5182H137.627V68.7937C137.213 69.3112 136.489 69.6217 135.868 69.6217C134.626 69.6217 133.901 69.0007 133.901 68.0691C133.901 67.2411 134.419 66.5165 136.075 66.5165H137.627V66.3095C137.627 65.4814 137.11 64.9639 136.178 64.9639C135.557 64.9639 134.936 65.1709 134.419 65.5849L134.005 64.8604C134.626 64.3429 135.454 64.1358 136.282 64.1358C137.731 63.9288 138.559 64.6534 138.559 66.206ZM137.524 67.7586V67.034H135.971C135.04 67.034 134.729 67.4481 134.729 67.8621C134.729 68.3796 135.143 68.7937 135.971 68.7937C136.696 68.7937 137.317 68.3796 137.524 67.7586ZM145.701 66.7235C145.804 68.1726 144.666 69.4147 143.217 69.5182C143.113 69.5182 143.01 69.5182 143.01 69.5182C142.285 69.5182 141.561 69.2077 141.147 68.5866V71.3813H140.111V63.9288H141.043V64.7569C141.457 64.1358 142.182 63.8253 143.01 63.8253C144.459 63.7218 145.701 64.8604 145.804 66.3095C145.701 66.62 145.701 66.62 145.701 66.7235ZM144.666 66.7235C144.666 65.6885 143.734 64.9639 142.803 64.9639C141.768 64.9639 141.043 65.8955 141.043 66.827C141.043 67.7586 141.871 68.5866 142.906 68.5866C143.941 68.5866 144.769 67.8621 144.769 66.827C144.769 66.827 144.769 66.827 144.666 66.7235ZM151.601 64.0323L149.013 70.0357C148.496 71.1743 147.874 71.5884 147.046 71.5884C146.529 71.5884 146.011 71.3813 145.701 71.0708L146.115 70.3463C146.425 70.5533 146.736 70.7603 147.046 70.7603C147.564 70.7603 147.771 70.5533 148.081 69.9322L148.288 69.5182L145.908 64.1358H146.943L148.806 68.4831L150.669 64.1358L151.601 64.0323ZM66.932 79.3514H63.1023L62.2742 81.111H61.2391L64.4479 73.969H65.4829L68.6916 81.111H67.6566L66.932 79.3514ZM66.518 78.5233L64.9654 75.0041L63.4128 78.5233H66.518ZM69.2092 80.5935L69.6232 79.7654C70.1407 80.1794 70.8653 80.2829 71.4863 80.2829C72.4179 80.2829 72.7284 79.9724 72.7284 79.5584C72.7284 78.3163 69.3127 79.3514 69.3127 77.2812C69.3127 76.3497 70.1407 75.6251 71.5898 75.6251C72.3144 75.6251 72.9354 75.8321 73.5565 76.1427L73.1424 76.9707C72.6249 76.6602 72.1074 76.5567 71.5898 76.5567C70.7618 76.5567 70.3477 76.8672 70.3477 77.2812C70.3477 78.5233 73.7635 77.4882 73.7635 79.6619C73.7635 80.697 72.8319 81.318 71.3828 81.318C70.6583 81.2145 69.8302 81.0075 69.2092 80.5935ZM74.281 80.5935L74.695 79.7654C75.2126 80.1794 75.9371 80.2829 76.5582 80.2829C77.4897 80.2829 77.8003 79.9724 77.8003 79.5584C77.8003 78.3163 74.3845 79.3514 74.3845 77.2812C74.3845 76.3497 75.2126 75.6251 76.6617 75.6251C77.3862 75.6251 78.0073 75.8321 78.6283 76.1427L78.2143 76.9707C77.6967 76.6602 77.1792 76.5567 76.6617 76.5567C75.8336 76.5567 75.4196 76.8672 75.4196 77.2812C75.4196 78.5233 78.8353 77.4882 78.8353 79.6619C78.8353 80.697 77.9038 81.318 76.4547 81.318C75.7301 81.2145 74.9021 81.0075 74.281 80.5935ZM79.5599 78.4198C79.5599 76.8672 80.802 75.6251 82.3546 75.5216C83.9072 75.5216 85.1493 76.7637 85.2528 78.3163C85.2528 79.8689 84.0107 81.111 82.4581 81.2145C81.009 81.318 79.6634 80.1794 79.6634 78.6268C79.5599 78.5233 79.5599 78.5233 79.5599 78.4198ZM84.2177 78.4198C84.2177 77.3847 83.2861 76.6602 82.3546 76.6602C81.3195 76.6602 80.5949 77.5918 80.5949 78.5233C80.5949 79.4549 81.423 80.2829 82.4581 80.2829C83.4931 80.2829 84.2177 79.5584 84.3212 78.5233C84.2177 78.5233 84.2177 78.5233 84.2177 78.4198ZM85.9773 78.4198C85.9773 76.9707 87.1159 75.7286 88.6685 75.6251C88.772 75.6251 88.772 75.6251 88.8755 75.6251C89.8071 75.5216 90.6351 76.0391 91.0491 76.7637L90.3246 77.2812C90.0141 76.7637 89.393 76.4532 88.8755 76.4532C87.8404 76.4532 87.0124 77.3847 87.0124 78.4198C87.0124 79.4549 87.8404 80.2829 88.8755 80.2829C89.4965 80.2829 90.0141 79.9724 90.3246 79.4549L91.0491 79.9724C90.6351 80.697 89.7036 81.2145 88.8755 81.111C87.3229 81.2145 86.0808 80.0759 85.9773 78.5233C85.9773 78.6268 85.9773 78.5233 85.9773 78.4198ZM91.8772 74.0725C91.8772 73.762 92.1877 73.4515 92.4982 73.4515C92.8088 73.4515 93.1193 73.762 93.1193 74.0725C93.1193 74.383 92.8088 74.6936 92.4982 74.6936C92.1877 74.6936 91.8772 74.383 91.8772 74.0725ZM92.0842 75.7286H93.1193V81.111H92.0842V75.7286ZM98.9157 77.9023V81.2145H97.9841V80.49C97.5701 81.0075 96.8455 81.318 96.2245 81.318C94.9824 81.318 94.2579 80.697 94.2579 79.7654C94.2579 78.9373 94.7754 78.2128 96.4315 78.2128H97.9841V78.0058C97.9841 77.1777 97.4666 76.6602 96.535 76.6602C95.914 76.6602 95.2929 76.8672 94.7754 77.2812L94.3614 76.5567C94.9824 76.0392 95.8105 75.8321 96.6385 75.8321C98.0876 75.6251 98.9157 76.3497 98.9157 77.9023ZM97.9841 79.4549V78.7303H96.4315C95.5 78.7303 95.1894 79.1444 95.1894 79.5584C95.1894 80.0759 95.6035 80.49 96.4315 80.49C97.0526 80.49 97.6736 80.0759 97.9841 79.4549ZM103.47 80.8005C103.159 81.111 102.745 81.2145 102.331 81.2145C101.503 81.318 100.675 80.697 100.572 79.8689C100.572 79.7654 100.572 79.6619 100.572 79.5584V76.5567H99.6402V75.7286H100.572V74.59H101.607V75.7286H103.159V76.5567H101.607V79.4549C101.503 79.8689 101.814 80.2829 102.331 80.3864C102.435 80.3864 102.435 80.3864 102.538 80.3864C102.849 80.3864 103.056 80.2829 103.263 80.1794L103.47 80.8005ZM104.298 74.0725C104.298 73.762 104.609 73.4515 104.919 73.4515C105.23 73.4515 105.54 73.762 105.54 74.0725C105.54 74.383 105.23 74.6936 104.919 74.6936C104.505 74.6936 104.298 74.383 104.298 74.0725ZM104.402 75.7286H105.437V81.111H104.402V75.7286ZM106.575 78.4198C106.575 76.8672 107.817 75.6251 109.37 75.5216C110.922 75.5216 112.165 76.7637 112.268 78.3163C112.268 79.8689 111.026 81.111 109.473 81.2145C108.024 81.318 106.679 80.1794 106.679 78.6268C106.575 78.5233 106.575 78.5233 106.575 78.4198ZM111.233 78.4198C111.233 77.3847 110.301 76.6602 109.37 76.6602C108.335 76.6602 107.61 77.5918 107.61 78.5233C107.61 79.4549 108.438 80.2829 109.473 80.2829C110.508 80.2829 111.233 79.5584 111.337 78.5233C111.233 78.5233 111.233 78.5233 111.233 78.4198ZM118.478 78.0058V81.111H117.443V78.1093C117.443 77.0742 116.926 76.5567 115.994 76.5567C115.063 76.4532 114.338 77.1777 114.235 78.0058C114.235 78.1093 114.235 78.2128 114.235 78.3163V81.111H113.2V75.7286H114.131V76.5567C114.649 75.9356 115.373 75.6251 116.098 75.7286C117.236 75.6251 118.271 76.4532 118.375 77.6953C118.582 77.6953 118.582 77.9023 118.478 78.0058Z" fill="#3F4444"/>
<path d="M63.5165 51.301L28.1171 34.6364C29.2557 34.4294 30.3943 34.3259 31.5329 34.1189C34.1205 33.7048 36.8117 33.8083 39.3994 34.3259L67.6568 41.9854L63.5165 51.301ZM74.2812 27.3909C74.3848 27.2874 57.4096 27.5979 57.3061 27.5979C54.4079 27.7014 51.5097 28.219 48.8185 29.3575C46.6449 30.1856 44.6782 30.9101 42.6081 31.6347L69.7269 37.7416C69.6234 37.6381 74.1777 27.4944 74.2812 27.3909ZM59.5833 24.1822L75.9374 23.4576C83.1828 7.31054 83.4934 6.58599 83.4934 6.6895C76.3514 13.521 68.2778 19.4209 59.5833 24.1822ZM24.1839 36.81C22.1137 35.775 19.8366 35.3609 17.4559 35.3609C16.6279 35.3609 15.7998 35.3609 15.0752 35.3609L56.9956 65.6885L61.1359 56.5799L24.1839 36.81ZM4 33.9118L50.0606 81.2145L54.4079 71.6919L10.6244 36.81C8.65781 35.3609 6.38066 34.4294 4 33.9118Z" fill="#009CB6"/>
</svg>
