<svg width="168" height="48" viewBox="0 0 168 48" fill="none" xmlns="http://www.w3.org/2000/svg">
<path d="M23.8821 4H7.16211V44L23.8821 4Z" fill="#FA0F00"/>
<path d="M52.3607 4H35.6542L52.3607 44V4Z" fill="#FA0F00"/>
<path fill-rule="evenodd" clip-rule="evenodd" d="M98.8427 18.5492C92.5231 18.5492 88.8283 22.6911 88.8283 27.6288C88.8283 33.5013 92.7636 36.4003 97.8741 36.4003C100.212 36.403 102.526 35.933 104.678 35.0185C104.884 34.9508 104.918 34.8797 104.918 34.707C104.817 33.871 104.77 33.0293 104.779 32.1873V11.7826C104.779 11.6437 104.746 11.576 104.573 11.576H100.221C100.189 11.5722 100.156 11.5758 100.125 11.5865C100.094 11.5973 100.066 11.6149 100.043 11.638C100.019 11.6611 100.002 11.6892 99.9911 11.7201C99.9804 11.751 99.9768 11.784 99.9806 11.8165V18.6169C99.8228 18.6066 99.681 18.5963 99.5524 18.5869C99.2586 18.5655 99.0334 18.5492 98.8427 18.5492ZM98.7038 22.5556C99.1364 22.5352 99.569 22.5937 99.9806 22.7283V32.0857C99.4554 32.2455 98.9069 32.3153 98.3584 32.2923C95.7337 32.2923 93.766 30.8055 93.766 27.3884C93.766 24.1778 96.0453 22.5556 98.7038 22.5556Z" fill="#FA0F00"/>
<path fill-rule="evenodd" clip-rule="evenodd" d="M71.8611 35.7771L73.5172 30.67H81.4792L83.2403 35.8144C83.2633 35.8946 83.3151 35.9634 83.3857 36.0078C83.4563 36.0522 83.5408 36.0689 83.623 36.0548H88.1036C88.3102 36.0548 88.344 35.916 88.2763 35.7433L80.4395 13.6452C80.4023 13.4725 80.3345 13.4386 80.1618 13.4386H74.6382C74.5795 13.4446 74.5253 13.4729 74.4869 13.5177C74.4485 13.5624 74.4287 13.6202 74.4316 13.6791C74.4374 14.3953 74.3229 15.1073 74.0929 15.7856L67.1875 35.7162C67.1502 35.916 67.2213 36.0548 67.4618 36.0548H71.4818C71.5673 36.0592 71.6517 36.034 71.7208 35.9834C71.7899 35.9328 71.8394 35.86 71.8611 35.7771ZM79.2279 23.178L79.2291 23.1819C79.6077 24.3779 79.9622 25.4981 80.216 26.352H74.7465C74.8126 26.1481 74.8804 25.9391 74.9496 25.726C75.8342 23 76.9408 19.5904 77.4559 17.4451H77.4897C77.8979 18.9762 78.5953 21.1794 79.2264 23.1733L79.2268 23.1745L79.2271 23.1757L79.2275 23.1768L79.2276 23.1771L79.2279 23.178Z" fill="#FA0F00"/>
<path fill-rule="evenodd" clip-rule="evenodd" d="M124.554 27.3884C124.554 32.807 121.032 36.4003 116.061 36.4003C110.154 36.4003 107.533 31.9468 107.533 27.4934C107.533 22.5895 110.811 18.5492 116.128 18.5492C121.689 18.5492 124.554 22.7283 124.554 27.3884ZM112.4 27.4222C112.4 30.4702 113.815 32.3939 116.125 32.3939C118.13 32.3939 119.647 30.6701 119.647 27.4934C119.647 24.784 118.543 22.5556 115.922 22.5556C113.92 22.5556 112.4 24.3505 112.4 27.4222Z" fill="#FA0F00"/>
<path fill-rule="evenodd" clip-rule="evenodd" d="M132.151 11.8503C132.151 11.6099 132.086 11.576 131.812 11.576H127.596C127.423 11.576 127.355 11.6437 127.355 11.8164V35.2658C127.357 35.3353 127.377 35.4031 127.413 35.4625C127.45 35.5219 127.501 35.5708 127.562 35.6044C129.317 36.1448 131.144 36.4132 132.98 36.4003C138.226 36.4003 143.337 33.2236 143.337 26.7652C143.337 22.139 140.13 18.5491 135.05 18.5491C134.071 18.5478 133.096 18.6754 132.151 18.9285V11.8503ZM132.151 22.901C132.811 22.7083 133.495 22.6147 134.183 22.6233H134.193C136.611 22.6233 138.44 24.0728 138.433 27.2326C138.433 30.8224 136.052 32.4108 133.427 32.4108C132.998 32.416 132.569 32.3706 132.151 32.2753V22.901Z" fill="#FA0F00"/>
<path fill-rule="evenodd" clip-rule="evenodd" d="M150.093 28.7362C150.266 30.7039 151.648 32.3261 155.031 32.3261C156.486 32.3542 157.932 32.0833 159.278 31.5303C159.383 31.4625 159.484 31.4964 159.484 31.703V34.9847C159.484 35.2251 159.417 35.3233 159.244 35.3978C157.862 36.0548 156.345 36.4138 153.961 36.4138C147.469 36.4138 145.193 31.9604 145.193 27.6796C145.193 22.9146 148.126 18.5627 153.548 18.5627C158.76 18.5627 160.832 22.603 160.832 26.0134C160.857 26.7883 160.799 27.5637 160.66 28.3265C160.655 28.3985 160.624 28.4664 160.573 28.5175C160.522 28.5686 160.454 28.5994 160.382 28.6042C159.2 28.7158 158.013 28.7622 156.826 28.743L150.093 28.7362ZM154.584 25.3868C155.16 25.4079 155.736 25.3841 156.308 25.3157V25.0753C156.298 24.7024 156.214 24.3352 156.06 23.9952C155.907 23.6553 155.687 23.3493 155.414 23.0951C155.141 22.841 154.82 22.6438 154.47 22.5152C154.12 22.3865 153.748 22.3288 153.375 22.3456C151.201 22.3456 150.266 23.9712 150.059 25.3936L154.584 25.3868Z" fill="#FA0F00"/>
<path d="M40.4124 44L29.7681 18.7422L22.4631 35.9567H30.2524L33.4359 44H40.4124Z" fill="#FA0F00"/>
</svg>
