<svg width="160" height="104" viewBox="0 0 160 104" fill="none" xmlns="http://www.w3.org/2000/svg">
<path d="M79.175 98.5384C78.6596 98.5384 78.1786 98.401 77.732 98.1604L73.1624 95.4462C72.4752 95.0682 72.8188 94.9308 73.0249 94.8621C73.9526 94.5528 74.1244 94.4841 75.0864 93.9344C75.1895 93.8657 75.3269 93.9001 75.43 93.9688L78.9345 96.0646C79.0719 96.1333 79.2437 96.1333 79.3468 96.0646L93.0557 88.1279C93.1931 88.0592 93.2618 87.9218 93.2618 87.75V71.9109C93.2618 71.7391 93.1931 71.6017 93.0557 71.533L79.3468 63.6306C79.2094 63.5619 79.0376 63.5619 78.9345 63.6306L65.2256 71.533C65.0882 71.6017 65.0195 71.7735 65.0195 71.9109V87.75C65.0195 87.8874 65.0882 88.0592 65.2256 88.1279L68.9707 90.2925C70.9978 91.3232 72.269 90.1207 72.269 88.9181V73.2852C72.269 73.0791 72.4408 72.8729 72.6813 72.8729H74.4336C74.6398 72.8729 74.8459 73.0447 74.8459 73.2852V88.9181C74.8459 91.6324 73.3685 93.2129 70.7917 93.2129C70.0014 93.2129 69.383 93.2129 67.6307 92.3539L64.0231 90.2925C63.1298 89.7771 62.5801 88.8151 62.5801 87.7843V71.9453C62.5801 70.9145 63.1298 69.9525 64.0231 69.4371L77.732 61.5004C78.5909 61.0194 79.7591 61.0194 80.6181 61.5004L94.3269 69.4371C95.2202 69.9525 95.77 70.9145 95.77 71.9453V87.7843C95.77 88.8151 95.2202 89.7771 94.3269 90.2925L80.6181 98.2292C80.1714 98.4353 79.656 98.5384 79.175 98.5384ZM83.4011 87.6469C77.3884 87.6469 76.1515 84.8982 76.1515 82.5619C76.1515 82.3557 76.3233 82.1496 76.5638 82.1496H78.3504C78.5566 82.1496 78.7284 82.287 78.7284 82.4932C79.0032 84.3142 79.7935 85.2075 83.4354 85.2075C86.3215 85.2075 87.5584 84.5547 87.5584 83.0086C87.5584 82.1152 87.2148 81.4624 82.7139 81.0158C78.9689 80.6378 76.6325 79.8132 76.6325 76.8241C76.6325 74.0411 78.9689 72.3919 82.8857 72.3919C87.2835 72.3919 89.4481 73.9037 89.7229 77.202C89.7229 77.3051 89.6886 77.4082 89.6199 77.5113C89.5511 77.58 89.4481 77.6487 89.345 77.6487H87.5584C87.3866 77.6487 87.2148 77.5113 87.1804 77.3395C86.7681 75.4498 85.703 74.8313 82.8857 74.8313C79.7247 74.8313 79.3468 75.9308 79.3468 76.7554C79.3468 77.7518 79.7935 78.061 84.0539 78.6107C88.2799 79.1604 90.2727 79.9507 90.2727 82.9055C90.2383 85.929 87.7645 87.6469 83.4011 87.6469Z" fill="#539E43"/>
<path d="M36.6401 36.5907C36.6401 35.9723 36.2966 35.3882 35.7468 35.0789L21.179 26.6956C20.9385 26.5582 20.6637 26.4894 20.3888 26.4551H20.2514C19.9765 26.4551 19.7016 26.5582 19.4611 26.6956L4.89331 35.0789C4.34358 35.3882 4 35.9723 4 36.5907L4.03436 59.1296C4.03436 59.4388 4.20615 59.748 4.48101 59.8855C4.75588 60.0572 5.09946 60.0572 5.33996 59.8855L13.9982 54.9379C14.5479 54.6287 14.8915 54.0446 14.8915 53.4261V42.8782C14.8915 42.2598 15.2351 41.6757 15.7848 41.3665L19.4611 39.2363C19.736 39.0645 20.0452 38.9958 20.3544 38.9958C20.6637 38.9958 20.9729 39.0645 21.2134 39.2363L24.8897 41.3665C25.4394 41.6757 25.783 42.2598 25.783 42.8782V53.4261C25.783 54.0446 26.1266 54.6287 26.6763 54.9379L35.3345 59.8855C35.6094 60.0572 35.953 60.0572 36.2278 59.8855C36.5027 59.748 36.6745 59.4388 36.6745 59.1296L36.6401 36.5907Z" fill="#333333"/>
<path d="M106.662 5.56548C106.387 5.42804 106.043 5.42804 105.803 5.56548C105.528 5.73727 105.356 6.01213 105.356 6.32135V28.6541C105.356 28.8602 105.253 29.0664 105.047 29.2038C104.841 29.3069 104.635 29.3069 104.428 29.2038L100.787 27.108C100.237 26.7987 99.584 26.7987 99.0342 27.108L84.4664 35.5257C83.9167 35.8349 83.5731 36.419 83.5731 37.0374V53.8385C83.5731 54.457 83.9167 55.0411 84.4664 55.3503L99.0342 63.768C99.584 64.0772 100.237 64.0772 100.787 63.768L115.354 55.3503C115.904 55.0411 116.248 54.457 116.248 53.8385V11.9561C116.248 11.3033 115.904 10.7192 115.354 10.41L106.662 5.56548ZM105.322 48.3069C105.322 48.4787 105.253 48.6161 105.116 48.6848L100.134 51.5709C99.9963 51.6396 99.8245 51.6396 99.687 51.5709L94.7051 48.6848C94.5677 48.6161 94.499 48.4443 94.499 48.3069V42.5347C94.499 42.3629 94.5677 42.2255 94.7051 42.1568L99.687 39.2707C99.8245 39.202 99.9963 39.202 100.134 39.2707L105.116 42.1568C105.253 42.2255 105.322 42.3973 105.322 42.5347V48.3069Z" fill="#333333"/>
<path d="M155.141 42.3973C155.691 42.0881 156 41.504 156 40.8856V36.797C156 36.1785 155.656 35.5944 155.141 35.2852L140.676 26.9018C140.127 26.5926 139.474 26.5926 138.924 26.9018L124.356 35.3196C123.806 35.6288 123.463 36.2129 123.463 36.8313V53.6324C123.463 54.2508 123.806 54.8349 124.356 55.1442L138.821 63.3901C139.371 63.6993 140.023 63.6993 140.539 63.3901L149.3 58.5112C149.575 58.3738 149.747 58.0646 149.747 57.7554C149.747 57.4461 149.575 57.1369 149.3 56.9995L134.664 48.5818C134.389 48.41 134.217 48.1351 134.217 47.8259V42.5691C134.217 42.2599 134.389 41.9507 134.664 41.8132L139.233 39.202C139.508 39.0302 139.852 39.0302 140.127 39.202L144.696 41.8132C144.971 41.985 145.143 42.2599 145.143 42.5691V46.6921C145.143 47.0013 145.315 47.3105 145.589 47.448C145.864 47.6197 146.208 47.6197 146.483 47.448L155.141 42.3973Z" fill="#333333"/>
<path d="M139.576 41.6072C139.679 41.5385 139.816 41.5385 139.919 41.6072L142.702 43.222C142.806 43.2907 142.874 43.3938 142.874 43.5313V46.7609C142.874 46.8983 142.806 47.0014 142.702 47.0701L139.919 48.685C139.816 48.7537 139.679 48.7537 139.576 48.685L136.793 47.0701C136.69 47.0014 136.621 46.8983 136.621 46.7609V43.5313C136.621 43.3938 136.69 43.2907 136.793 43.222L139.576 41.6072Z" fill="#539E43"/>
<mask id="mask0_118_334" style="mask-type:alpha" maskUnits="userSpaceOnUse" x="43" y="26" width="34" height="38">
<path d="M60.9998 26.9702C60.4501 26.661 59.7972 26.661 59.2475 26.9702L44.7828 35.3192C44.2331 35.6284 43.9238 36.2125 43.9238 36.831V53.5633C43.9238 54.1818 44.2674 54.7659 44.7828 55.0751L59.2475 63.4241C59.7972 63.7333 60.4501 63.7333 60.9998 63.4241L75.4645 55.0751C76.0142 54.7659 76.3235 54.1818 76.3235 53.5633V36.831C76.3235 36.2125 75.9799 35.6284 75.4645 35.3192L60.9998 26.9702Z" fill="white"/>
</mask>
<g mask="url(#mask0_118_334)">
<path d="M60.9998 26.9702C60.4501 26.661 59.7972 26.661 59.2475 26.9702L44.7828 35.3192C44.2331 35.6284 43.9238 36.2125 43.9238 36.831V53.5633C43.9238 54.1818 44.2674 54.7659 44.7828 55.0751L59.2475 63.4241C59.7972 63.7333 60.4501 63.7333 60.9998 63.4241L75.4645 55.0751C76.0142 54.7659 76.3235 54.1818 76.3235 53.5633V36.831C76.3235 36.2125 75.9799 35.6284 75.4645 35.3192L60.9998 26.9702Z" fill="url(#paint0_linear_118_334)"/>
<path d="M75.4982 35.3191L60.9648 26.9701C60.8274 26.9014 60.6556 26.8327 60.5181 26.7983L44.2324 54.6971C44.3699 54.8689 44.5416 55.0063 44.7134 55.1094L59.2469 63.4584C59.6592 63.6989 60.1402 63.7676 60.5869 63.6302L75.8762 35.6627C75.7731 35.5253 75.6357 35.4222 75.4982 35.3191Z" fill="url(#paint1_linear_118_334)"/>
<path fill-rule="evenodd" clip-rule="evenodd" d="M75.5327 55.0757C75.945 54.8352 76.2542 54.4229 76.3916 53.9762L60.4495 26.7647C60.0372 26.6959 59.5905 26.7303 59.2126 26.9708L44.7822 35.2855L60.3464 63.6652C60.5526 63.6308 60.7931 63.5621 60.9992 63.4591L75.5327 55.0757Z" fill="url(#paint2_linear_118_334)"/>
<path fill-rule="evenodd" clip-rule="evenodd" d="M75.5328 55.0757L61.0337 63.4247C60.8275 63.5278 60.6214 63.5965 60.3809 63.6309L60.6557 64.1462L76.7353 54.8352V54.6291L76.323 53.9419C76.2543 54.4229 75.9451 54.8352 75.5328 55.0757Z" fill="url(#paint3_linear_118_334)"/>
<path fill-rule="evenodd" clip-rule="evenodd" d="M75.5328 55.0757L61.0337 63.4247C60.8275 63.5278 60.6214 63.5965 60.3809 63.6309L60.6557 64.1462L76.7353 54.8352V54.6291L76.323 53.9419C76.2543 54.4229 75.9451 54.8352 75.5328 55.0757Z" fill="url(#paint4_linear_118_334)"/>
</g>
<defs>
<linearGradient id="paint0_linear_118_334" x1="66.0166" y1="33.194" x2="50.1613" y2="58.1064" gradientUnits="userSpaceOnUse">
<stop stop-color="#41873F"/>
<stop offset="0.3288" stop-color="#418B3D"/>
<stop offset="0.6352" stop-color="#419637"/>
<stop offset="0.9319" stop-color="#3FA92D"/>
<stop offset="1" stop-color="#3FAE2A"/>
</linearGradient>
<linearGradient id="paint1_linear_118_334" x1="57.9267" y1="47.1567" x2="97.6339" y2="25.5838" gradientUnits="userSpaceOnUse">
<stop offset="0.1376" stop-color="#41873F"/>
<stop offset="0.4032" stop-color="#54A044"/>
<stop offset="0.7136" stop-color="#66B848"/>
<stop offset="0.9081" stop-color="#6CC04A"/>
</linearGradient>
<linearGradient id="paint2_linear_118_334" x1="43.395" y1="45.1983" x2="76.8655" y2="45.1983" gradientUnits="userSpaceOnUse">
<stop offset="0.0919165" stop-color="#6CC04A"/>
<stop offset="0.2864" stop-color="#66B848"/>
<stop offset="0.5968" stop-color="#54A044"/>
<stop offset="0.8624" stop-color="#41873F"/>
</linearGradient>
<linearGradient id="paint3_linear_118_334" x1="43.395" y1="59.0722" x2="76.8656" y2="59.0722" gradientUnits="userSpaceOnUse">
<stop offset="0.0919165" stop-color="#6CC04A"/>
<stop offset="0.2864" stop-color="#66B848"/>
<stop offset="0.5968" stop-color="#54A044"/>
<stop offset="0.8624" stop-color="#41873F"/>
</linearGradient>
<linearGradient id="paint4_linear_118_334" x1="81.7419" y1="32.4037" x2="73.2625" y2="76.8356" gradientUnits="userSpaceOnUse">
<stop stop-color="#41873F"/>
<stop offset="0.3288" stop-color="#418B3D"/>
<stop offset="0.6352" stop-color="#419637"/>
<stop offset="0.9319" stop-color="#3FA92D"/>
<stop offset="1" stop-color="#3FAE2A"/>
</linearGradient>
</defs>
</svg>
