<svg width="192" height="48" viewBox="0 0 192 48" fill="none" xmlns="http://www.w3.org/2000/svg">
<path d="M4.57129 4.56738H17.6823C26.0511 4.56738 31.3513 11.3759 31.3513 20.7376C31.3513 25.844 29.6775 30.383 26.33 33.2199C24.0984 35.2057 21.0298 36.3404 17.1244 36.3404H4.57129V4.56738ZM16.706 30.8085C22.7036 30.8085 24.9352 27.1206 24.9352 20.8794C24.9352 14.6383 22.2851 10.2411 16.8455 10.2411H10.8479V30.9504H16.706V30.8085ZM32.3276 24.9929C32.3276 18.1844 37.0699 12.9362 44.0439 12.9362C51.0178 12.9362 55.7601 18.1844 55.7601 24.9929C55.7601 31.8014 51.0178 37.0496 44.0439 37.0496C37.0699 37.0496 32.3276 31.6596 32.3276 24.9929ZM49.6231 24.9929C49.6231 20.5957 47.5309 17.4752 43.9044 17.4752C40.2779 17.4752 38.1858 20.4539 38.1858 24.9929C38.1858 29.5319 40.1385 32.3688 43.9044 32.3688C47.6703 32.3688 49.6231 29.3901 49.6231 24.9929ZM56.876 24.9929C56.876 18.1844 61.1998 12.9362 68.0343 12.9362C73.8924 12.9362 77.3794 16.3404 78.2163 21.305H72.3581C71.9397 19.3191 70.4054 17.7589 68.3133 17.7589C64.6868 17.7589 62.8736 20.5957 62.8736 24.9929C62.8736 29.2482 64.5473 32.227 68.1738 32.227C70.5449 32.227 72.2187 30.9504 72.6371 28.3972H78.4952C78.0768 33.2199 74.4503 37.0496 68.4527 37.0496C61.3393 36.9078 56.876 31.6596 56.876 24.9929ZM94.1169 36.3404V33.6454H93.9774C92.4431 35.7731 90.7694 36.9078 87.5614 36.9078C82.5401 36.9078 79.7505 33.6454 79.7505 28.6809V13.5035H85.6087V27.6879C85.6087 30.383 86.7245 31.8014 89.3746 31.8014C92.1642 31.8014 93.8379 29.6738 93.8379 26.695V13.5035H99.8355V36.1986H94.1169V36.3404ZM128.708 4.70922H134.705V10.383H128.708V4.70922ZM128.708 13.5035H134.705V36.1986H128.708V13.5035ZM137.076 36.9078H142.935C143.353 38.3262 144.748 39.461 147.398 39.461C150.745 39.461 152.419 37.7589 152.419 34.7801V32.227H152.28C151.024 33.7872 149.211 34.922 146.422 34.922C141.4 34.922 136.519 30.9504 136.519 24C136.519 17.1915 140.563 12.9362 146.143 12.9362C148.932 12.9362 151.024 14.0709 152.28 15.9149H152.419V13.5035H158.138V34.4965C158.138 37.7589 157.161 39.8865 155.488 41.4468C153.674 43.2908 150.745 44 147.398 44C141.54 44 137.774 41.4468 137.076 36.9078ZM152.838 23.8582C152.838 20.5957 151.024 17.7589 147.537 17.7589C144.469 17.7589 142.516 20.1702 142.516 24C142.516 27.8298 144.469 30.0993 147.537 30.0993C151.303 30.0993 152.838 27.2624 152.838 23.8582ZM166.646 16.6241C168.32 14.2128 170.412 12.9362 173.341 12.9362C177.944 12.9362 181.012 16.4823 181.012 21.4468V36.3404H175.015V22.4397C175.015 20.0284 173.62 18.3262 171.109 18.3262C168.459 18.3262 166.507 20.4539 166.507 23.5745V36.4823H160.788V13.7872H166.646V16.6241ZM115.178 17.1915C110.575 16.1986 108.483 15.3475 108.483 12.7943C108.483 10.5248 110.715 9.10638 114.062 9.10638C117.131 9.10638 119.502 10.5248 120.06 13.5035H126.197C125.5 7.40425 121.036 4 114.062 4C107.088 4 102.067 7.26241 102.067 13.5035C102.067 20.1702 107.228 21.5887 112.807 22.8652C117.549 24 120.478 24.5674 120.478 27.6879C120.478 30.6667 117.689 31.8014 114.481 31.8014C110.018 31.8014 107.925 30.2411 107.507 26.4113H101.37C101.649 33.078 106.391 36.9078 114.899 36.9078C121.873 36.9078 127.034 33.3617 127.034 26.8369C126.894 20.1702 121.594 18.6099 115.178 17.1915Z" fill="black"/>
<path d="M184.681 18.36C183.226 18.36 181.933 17.0437 181.933 15.5629C181.933 14.082 183.226 12.7657 184.681 12.7657C186.135 12.7657 187.428 14.082 187.428 15.5629C187.428 17.0437 186.135 18.36 184.681 18.36ZM184.681 13.2593C183.387 13.2593 182.418 14.2466 182.418 15.5629C182.418 16.8792 183.387 17.8664 184.681 17.8664C185.974 17.8664 186.943 16.8792 186.943 15.5629C186.943 14.2466 185.974 13.2593 184.681 13.2593Z" fill="black"/>
<path d="M183.711 14.082H184.681C185.004 14.082 185.327 14.082 185.489 14.2466C185.65 14.4111 185.812 14.5756 185.812 14.9047C185.812 15.3983 185.489 15.5629 185.327 15.7274L185.974 16.8792H185.327L184.842 15.892H184.196V16.8792H183.711V14.082ZM184.196 14.5756V15.3983H184.681C184.842 15.3983 185.165 15.3983 185.165 14.9047C185.165 14.9047 185.165 14.5756 185.004 14.5756H184.196Z" fill="black"/>
</svg>
