<svg width="168" height="48" viewBox="0 0 168 48" fill="none" xmlns="http://www.w3.org/2000/svg">
<path fill-rule="evenodd" clip-rule="evenodd" d="M128.908 6.04208C126.11 6.04208 123.713 7.99595 123.713 11.0145C123.713 12.5676 124.515 14.033 125.578 15.2761L127.887 17.9392L131.482 15.7207C133.214 14.6546 134.28 12.9684 134.28 11.0145C134.28 7.99595 131.97 6.04208 128.908 6.04208ZM127.399 20.56L124.913 22.0239C122.782 23.267 121.449 25.354 121.449 27.8402C121.449 31.8356 124.646 34.4988 128.509 34.4988C132.06 34.4988 134.546 33.0349 136.41 30.6818L127.399 20.5585V20.56ZM141.427 20.4708C141.383 23.8009 140.984 27.9733 139.163 30.5925L144.093 36.0973H141.25L137.964 32.368C135.7 34.9873 132.459 36.7188 128.509 36.7188C123.359 36.7188 119.186 33.2557 119.186 27.8417C119.186 24.6886 120.783 22.0239 123.493 20.4254L125.977 18.9615L123.669 16.3861C122.16 14.6984 121.493 13.0137 121.493 11.0145C121.493 7.10673 124.601 4.00049 128.908 4.00049C133.082 4.00049 136.454 6.70748 136.454 11.0145C136.454 14.033 134.989 16.0746 132.592 17.4961L129.307 19.45L137.655 28.9048C138.941 26.5971 139.296 23.8009 139.296 20.3816V18.4731H144.801V20.4708H141.428H141.427Z" fill="#45B875"/>
<path fill-rule="evenodd" clip-rule="evenodd" d="M21.0211 27.9747V26.0193H18.5349C14.8056 26.0193 12.6309 26.8208 12.6309 29.3055C12.6309 30.9917 13.6517 32.1032 16.0048 32.1032C18.8464 32.1032 21.0211 30.5486 21.0211 27.9747ZM6.32617 29.6594C6.32617 24.2424 11.2986 22.2008 18.4018 22.2008H21.0211V21.2677C21.0211 18.5153 20.1772 17.0061 17.2479 17.0061C14.7163 17.0061 13.5625 18.293 13.2963 20.2923H7.21388C7.61464 14.7876 11.964 12.3452 17.6472 12.3452C23.3303 12.3452 27.3696 14.653 27.3696 20.9577V36.0957H21.1103V33.2995C19.778 35.1641 17.7364 36.5842 14.0963 36.5842C9.87853 36.5842 6.32617 34.5426 6.32617 29.6594ZM44.9076 27.9747V26.0193H42.4214C38.6921 26.0193 36.5175 26.8208 36.5175 29.3055C36.5175 30.9917 37.5383 32.1032 39.8899 32.1032C42.733 32.1032 44.9076 30.5486 44.9076 27.9747ZM30.2128 29.6609C30.2128 24.2439 35.1852 22.2023 42.2884 22.2023H44.9076V21.2692C44.9076 18.5169 44.0638 17.0076 41.1345 17.0076C38.6029 17.0076 37.449 18.2946 37.1829 20.2938H31.1005C31.4997 14.7891 35.849 12.3467 41.5337 12.3467C47.2169 12.3467 51.2562 14.6545 51.2562 20.9592V36.0972H44.9954V33.301C43.6645 35.1656 41.623 36.5857 37.9829 36.5857C33.7636 36.5857 30.2128 34.5441 30.2128 29.6609ZM71.5451 24.6446V24.2893C71.5451 19.583 69.2358 17.2753 65.9965 17.2753C62.6241 17.2753 60.3133 19.6284 60.3133 24.2893V24.6446C60.3133 29.3055 62.5334 31.5694 66.0404 31.5694C69.5912 31.5694 71.5451 29.1739 71.5451 24.6446ZM54.0993 12.8791H60.5371V16.5206C61.8241 14.3006 64.5326 12.3467 67.9504 12.3467C73.6335 12.3467 78.0721 16.5645 78.0721 24.2454V24.6008C78.0721 32.2802 73.7228 36.5872 67.9504 36.5872C64.3542 36.5872 61.7349 34.8118 60.5371 32.5464V44.0004H54.0993V12.8791ZM80.8698 12.8791H87.3076V16.4329C88.4615 14.2552 90.9477 12.3467 94.4109 12.3467C97.4733 12.3467 99.7825 13.6337 100.893 16.386C102.757 13.5898 105.777 12.3482 108.705 12.3482C113.012 12.3482 116.342 15.0552 116.342 21.2254V36.0987H109.948V21.9361C109.948 18.9615 108.617 17.6291 106.308 17.6291C103.822 17.6291 101.824 19.2276 101.824 22.3792V36.0987H95.4317V21.9361C95.4317 18.9615 94.0555 17.6291 91.7916 17.6291C89.3054 17.6291 87.3076 19.2276 87.3076 22.3792V36.0987H80.8698V12.8791Z" fill="#010202"/>
<path fill-rule="evenodd" clip-rule="evenodd" d="M147.734 12.8791H154.172V17.3191C155.636 14.2114 157.9 12.5705 161.673 12.5252V18.5169C156.924 18.473 154.172 20.0261 154.172 24.4662V36.0987H147.734V12.8791Z" fill="#010202"/>
</svg>
