<svg width="240" height="48" viewBox="0 0 240 48" fill="none" xmlns="http://www.w3.org/2000/svg">
<path d="M18.7074 36.4987V40.0388C18.7074 40.7888 17.8884 41.2512 17.2362 40.8575L15.5897 39.8002L15.1959 39.5779C15.1677 39.562 12.8912 38.2455 7.94437 35.3847L7.55147 35.1593C7.16409 34.9357 6.8463 34.6157 6.62669 34.2295C6.40949 33.8462 6.29647 33.4113 6.30071 32.9791L6.29883 15.3321C6.29883 14.8633 6.43119 14.4056 6.67762 14.0121C6.92138 13.6174 7.27436 13.293 7.64123 13.1157L14.7937 8.98131L15.1843 8.75265C15.3142 8.6782 15.3142 8.6782 15.5784 8.52769L22.4291 4.57181L22.8288 4.335C23.2458 4.09473 23.7175 3.98045 24.1957 4.00273C24.66 4.02527 25.1178 4.17749 25.4386 4.40593L32.5673 8.52621L32.9623 8.74912C32.9909 8.76567 35.3685 10.1406 40.2089 12.9397L40.6041 13.1658C40.9913 13.39 41.3083 13.7095 41.5278 14.0957C41.7445 14.478 41.8575 14.9128 41.8539 15.3463L41.8554 23.3745C41.8555 24.1165 41.0521 24.5801 40.4097 24.2087L37.334 22.4305C37.0362 22.2583 36.8528 21.9404 36.8528 21.5964V16.7726L30.5904 13.1507C30.5362 13.1239 30.4143 13.0543 30.0756 12.858L24.0768 9.38543L17.8356 12.9907C17.7758 13.0301 17.7758 13.0301 17.74 13.0528C17.7255 13.0617 17.5783 13.1474 17.2982 13.31L11.3018 16.773V31.5523L17.5672 35.1755C17.6073 35.1956 17.6935 35.2449 18.093 35.4756L18.222 35.5902L18.329 35.7332C18.5661 35.9143 18.7074 36.1968 18.7074 36.4987ZM36.8528 27.3996C36.8528 26.6584 37.6548 26.1948 38.2971 26.5648L41.3729 28.3366C41.6714 28.5085 41.8554 28.8268 41.8554 29.1714V32.1047C41.8554 32.3561 41.7572 32.5975 41.5812 32.7779L40.1312 34.2563C39.5874 34.9515 38.7891 35.2281 38.0767 34.8177L26.6476 28.1913L26.6447 40.6941C26.6849 41.1632 26.4912 41.6222 26.1229 41.919C25.7625 42.2104 25.7625 42.2104 24.0152 43.622C23.7533 43.8646 23.4104 44 23.0517 44C22.2696 44 21.6358 43.3657 21.6358 42.5835L21.6376 25.2943L19.7116 24.1809L18.7379 24.7409C18.6915 24.7734 18.7079 24.7638 17.7251 25.3312C17.0324 25.7365 16.1602 25.5221 15.7617 24.8348C15.667 24.6712 15.667 24.6712 15.2191 23.8972L14.6813 22.9696C14.2784 22.2744 14.4935 21.4038 15.1812 21.0061C15.3494 20.9095 15.3494 20.9095 16.127 20.463L18.4722 19.1129L18.895 18.8742C19.3456 18.5536 19.9427 18.5244 20.4266 18.8037L20.9607 19.1149L36.8528 28.2996V27.3996Z" fill="black"/>
<path fill-rule="evenodd" clip-rule="evenodd" d="M52.1115 32.1982C51.9312 32.1982 51.7734 32.1308 51.6381 31.9963C51.5031 31.8615 51.435 31.7043 51.435 31.5247V14.0119C51.435 13.8147 51.5031 13.6529 51.6381 13.5273C51.7734 13.4013 51.9312 13.3385 52.1115 13.3385H55.8982C56.0966 13.3385 56.2586 13.4013 56.3851 13.5273C56.5112 13.6529 56.5742 13.8147 56.5742 14.0119V27.9685H64.6888C64.8868 27.9685 65.0539 28.0355 65.1888 28.1704C65.3242 28.3052 65.3919 28.4712 65.3919 28.6689V31.5247C65.3919 31.7224 65.3242 31.8842 65.1888 32.0098C65.0539 32.1354 64.8868 32.1982 64.6888 32.1982H52.1115ZM66.609 32.1982C66.4647 32.1982 66.3336 32.14 66.2168 32.0229C66.0993 31.9062 66.0409 31.7759 66.0409 31.6322C66.0409 31.5247 66.0501 31.4438 66.0679 31.3899L72.3701 14.1198C72.5503 13.599 72.9108 13.3385 73.4519 13.3385H77.6714C78.2121 13.3385 78.5729 13.599 78.7531 14.1198L85.0553 31.3899C85.0735 31.4438 85.0824 31.5247 85.0824 31.6322C85.0824 31.7759 85.0236 31.9062 84.9064 32.0229C84.7892 32.14 84.6585 32.1982 84.5143 32.1982H80.9979C80.5655 32.1982 80.2588 32.0005 80.0785 31.6053L79.1047 28.9921H72.0185L71.0447 31.6053C70.8645 32.0005 70.5578 32.1982 70.125 32.1982H66.609ZM73.1545 24.9508H77.9688L75.5616 18.0802L73.1545 24.9508ZM87.8411 32.1982C87.6427 32.1982 87.476 32.1354 87.3407 32.0098C87.2057 31.8842 87.138 31.7224 87.138 31.5247V14.0389C87.138 13.8417 87.2057 13.6752 87.3407 13.5408C87.476 13.4059 87.6427 13.3385 87.8411 13.3385H90.8977C91.3482 13.3385 91.6731 13.5362 91.8711 13.931L96.5234 22.2294L101.203 13.931C101.401 13.5362 101.726 13.3385 102.176 13.3385H105.233C105.431 13.3385 105.598 13.4059 105.733 13.5408C105.868 13.6752 105.936 13.8417 105.936 14.0389V31.5247C105.936 31.7224 105.868 31.8842 105.733 32.0098C105.598 32.1354 105.431 32.1982 105.233 32.1982H101.798C101.617 32.1982 101.46 32.1308 101.324 31.9963C101.189 31.8615 101.122 31.7043 101.122 31.5247V21.7174L98.2004 27.0524C97.966 27.4653 97.6504 27.6718 97.2536 27.6718H95.7932C95.4324 27.6718 95.1168 27.4653 94.8464 27.0524L91.9523 21.7174V31.5247C91.9523 31.7224 91.8847 31.8842 91.7497 32.0098C91.6143 32.1354 91.4476 32.1982 91.2492 32.1982H87.8411ZM110.29 32.1982C110.11 32.1982 109.952 32.1308 109.817 31.9963C109.682 31.8615 109.614 31.7043 109.614 31.5247V14.0389C109.614 13.8417 109.677 13.6752 109.803 13.5408C109.93 13.4059 110.092 13.3385 110.29 13.3385H118.648C120.938 13.3385 122.642 13.8054 123.76 14.7397C124.878 15.6735 125.437 17.0027 125.437 18.727C125.437 19.5892 125.207 20.3347 124.748 20.9631C124.288 21.5918 123.778 22.0499 123.219 22.3372C123.959 22.6605 124.581 23.1948 125.086 23.9403C125.59 24.6857 125.843 25.5256 125.843 26.4595C125.843 28.2732 125.243 29.6836 124.044 30.6895C122.845 31.695 121.128 32.1982 118.891 32.1982H110.29ZM118.08 20.8016C118.747 20.8016 119.261 20.6221 119.622 20.2627C119.982 19.9032 120.163 19.4367 120.163 18.8619C120.163 18.3048 119.987 17.8514 119.636 17.5012C119.284 17.1506 118.765 16.9757 118.08 16.9757H114.699V20.8016H118.08ZM118.324 28.561C119.027 28.561 119.573 28.3587 119.96 27.9546C120.348 27.5509 120.542 27.0524 120.542 26.4595C120.542 25.8488 120.343 25.3414 119.947 24.9369C119.55 24.5332 119.009 24.3309 118.324 24.3309H114.699V28.561H118.324ZM129.413 32.1982C129.233 32.1982 129.075 32.1308 128.94 31.9963C128.804 31.8615 128.737 31.7043 128.737 31.5247V14.0389C128.737 13.8417 128.8 13.6752 128.926 13.5408C129.052 13.4059 129.215 13.3385 129.413 13.3385H136.527C139.195 13.3385 141.269 13.9715 142.748 15.2382C144.226 16.5041 145.002 18.3229 145.073 20.6938C145.091 21.2146 145.101 21.9062 145.101 22.7683C145.101 23.6305 145.091 24.3128 145.073 24.816C144.893 29.7372 142.089 32.1982 136.662 32.1982H129.413ZM136.527 28.1569C137.662 28.1569 138.501 27.8876 139.042 27.3486C139.583 26.81 139.871 25.9475 139.907 24.762C139.944 24.2412 139.962 23.5677 139.962 22.7414C139.962 21.915 139.944 21.2505 139.907 20.7477C139.871 19.5981 139.56 18.7494 138.975 18.2016C138.388 17.6537 137.528 17.3798 136.391 17.3798H133.822V28.1569H136.527ZM147.129 32.1982C146.985 32.1982 146.854 32.14 146.737 32.0229C146.62 31.9062 146.561 31.7759 146.561 31.6322C146.561 31.5247 146.57 31.4438 146.588 31.3899L152.89 14.1198C153.071 13.599 153.431 13.3385 153.972 13.3385H158.192C158.733 13.3385 159.093 13.599 159.273 14.1198L165.576 31.3899C165.594 31.4438 165.602 31.5247 165.602 31.6322C165.602 31.7759 165.544 31.9062 165.427 32.0229C165.31 32.14 165.179 32.1982 165.035 32.1982H161.519C161.086 32.1982 160.779 32.0005 160.599 31.6053L159.625 28.9921H152.538L151.565 31.6053C151.385 32.0005 151.078 32.1982 150.646 32.1982H147.129ZM153.675 24.9508H158.489L156.082 18.0802L153.675 24.9508Z" fill="black"/>
<path fill-rule="evenodd" clip-rule="evenodd" d="M171.221 32.4675C171.022 32.4675 170.856 32.4047 170.72 32.2791C170.585 32.1535 170.517 31.9917 170.517 31.794V17.9993H165.757C165.559 17.9993 165.392 17.9365 165.257 17.8109C165.121 17.6849 165.054 17.5235 165.054 17.3259V14.3082C165.054 14.111 165.121 13.9445 165.257 13.8101C165.392 13.6752 165.559 13.6078 165.757 13.6078H180.444C180.642 13.6078 180.809 13.6752 180.944 13.8101C181.079 13.9445 181.147 14.111 181.147 14.3082V17.3259C181.147 17.5235 181.079 17.6849 180.944 17.8109C180.809 17.9365 180.642 17.9993 180.444 17.9993H175.683V31.794C175.683 31.9917 175.616 32.1535 175.481 32.2791C175.345 32.4047 175.179 32.4675 174.981 32.4675H171.221ZM184.203 32.4675C184.023 32.4675 183.865 32.4 183.73 32.2656C183.595 32.1308 183.527 31.9736 183.527 31.794V14.3082C183.527 14.111 183.59 13.9445 183.717 13.8101C183.843 13.6752 184.005 13.6078 184.203 13.6078H196.97C197.168 13.6078 197.335 13.6752 197.47 13.8101C197.605 13.9445 197.673 14.111 197.673 14.3082V16.9757C197.673 17.1733 197.605 17.3347 197.47 17.4603C197.335 17.5863 197.168 17.6491 196.97 17.6491H188.423V21.0709H196.375C196.573 21.0709 196.739 21.1383 196.875 21.2728C197.011 21.4076 197.078 21.5737 197.078 21.7713V24.2231C197.078 24.4207 197.011 24.5867 196.875 24.7216C196.739 24.856 196.573 24.9238 196.375 24.9238H188.423V28.4262H197.186C197.384 28.4262 197.551 28.4936 197.687 28.628C197.822 28.7629 197.889 28.9289 197.889 29.1266V31.794C197.889 31.9917 197.822 32.1535 197.687 32.2791C197.551 32.4047 197.384 32.4675 197.186 32.4675H184.203ZM208.059 32.7368C206.31 32.7368 204.823 32.4856 203.596 31.9824C202.37 31.4797 201.442 30.8151 200.81 29.9884C200.179 29.1628 199.846 28.2644 199.81 27.2943C199.81 27.1329 199.868 26.998 199.985 26.8902C200.103 26.7827 200.242 26.7287 200.405 26.7287H204.002C204.218 26.7287 204.394 26.7646 204.529 26.8366C204.665 26.9083 204.813 27.0339 204.976 27.2134C205.21 27.6445 205.575 27.9993 206.071 28.2778C206.567 28.5564 207.229 28.6955 208.059 28.6955C209.033 28.6955 209.781 28.5471 210.304 28.2513C210.827 27.9546 211.088 27.5462 211.088 27.025C211.088 26.6482 210.953 26.3381 210.683 26.0958C210.412 25.8531 209.98 25.6373 209.385 25.4489C208.79 25.2605 207.933 25.0494 206.815 24.816C204.634 24.3849 203.001 23.7292 201.919 22.8489C200.838 21.9689 200.297 20.7115 200.297 19.0772C200.297 17.9635 200.607 16.9711 201.23 16.1C201.852 15.2286 202.735 14.5509 203.88 14.0659C205.025 13.5808 206.355 13.3385 207.87 13.3385C209.456 13.3385 210.832 13.6124 211.995 14.1599C213.158 14.7081 214.05 15.3904 214.673 16.2075C215.294 17.025 215.624 17.8286 215.66 18.6192C215.66 18.7806 215.605 18.9201 215.497 19.0368C215.389 19.1535 215.254 19.2117 215.092 19.2117H211.305C210.908 19.2117 210.602 19.0503 210.385 18.7267C210.277 18.3495 209.998 18.0309 209.547 17.7705C209.096 17.51 208.537 17.3798 207.87 17.3798C207.113 17.3798 206.526 17.5147 206.112 17.7839C205.697 18.0532 205.489 18.4485 205.489 18.9694C205.489 19.4902 205.761 19.899 206.301 20.1952C206.842 20.4919 207.852 20.7924 209.33 21.0979C211.025 21.403 212.373 21.7848 213.374 22.2429C214.375 22.7005 215.114 23.2938 215.592 24.0208C216.07 24.7485 216.309 25.6693 216.309 26.7827C216.309 28.0039 215.957 29.0638 215.254 29.9618C214.551 30.8598 213.577 31.5467 212.333 32.0229C211.088 32.4991 209.664 32.7368 208.059 32.7368ZM223.774 32.4675C223.575 32.4675 223.408 32.4047 223.273 32.2791C223.138 32.1535 223.07 31.9917 223.07 31.794V17.9993H218.31C218.112 17.9993 217.945 17.9365 217.81 17.8109C217.675 17.6849 217.607 17.5235 217.607 17.3259V14.3082C217.607 14.111 217.675 13.9445 217.81 13.8101C217.945 13.6752 218.112 13.6078 218.31 13.6078H232.997C233.195 13.6078 233.362 13.6752 233.497 13.8101C233.632 13.9445 233.7 14.111 233.7 14.3082V17.3259C233.7 17.5235 233.632 17.6849 233.497 17.8109C233.362 17.9365 233.195 17.9993 232.997 17.9993H228.236V31.794C228.236 31.9917 228.169 32.1535 228.033 32.2791C227.898 32.4047 227.732 32.4675 227.534 32.4675H223.774Z" fill="black"/>
</svg>
