<svg width="160" height="104" viewBox="0 0 160 104" fill="none" xmlns="http://www.w3.org/2000/svg">
<path d="M153.936 66.3648C154.442 66.2926 154.803 67.7375 154.803 68.8212C154.803 71.4944 153.214 73.3006 151.264 73.445L118.475 75.757L53.2566 80.742C52.1732 80.8143 51.1621 81.32 50.4399 82.1147L34.334 99.2374C33.1062 100.466 31.0839 99.8153 31.0839 98.1536V83.6319C31.0839 82.9817 30.5783 82.476 29.8561 82.476L7.97231 84.1377C5.58892 84.2822 5.44447 85.0769 4.86668 85.1491C4.36112 85.1491 4 83.7764 4 82.6205C4 79.9473 5.58892 78.1411 7.53896 77.9966L22.8504 76.9852L35.8507 75.9737C36.5007 75.9015 37.0785 76.4072 37.0785 77.0574V87.8223L47.912 76.2627C48.6343 75.5402 49.6454 75.0345 50.6565 74.9622L145.631 67.7375L150.831 67.3763C153.214 67.2318 153.359 66.437 153.936 66.3648ZM123.522 4.16025C126.282 3.86922 128.097 5.46989 128.097 7.5071V33.9909C130.856 30.062 134.197 26.4241 138.045 26.1331C143.273 25.6965 145.597 29.9165 145.597 34.7185C145.597 41.2667 140.877 46.5052 137.464 49.27C138.336 52.9079 140.151 56.182 143.491 55.891C147.412 55.5999 150.244 49.9976 151.043 46.2142C152.06 40.9029 156.707 44.5408 155.908 47.3055C154.383 52.0348 150.172 60.984 142.475 61.566C135.794 62.1481 131.365 54.7996 131.365 49.1972C131.365 48.3329 132.227 47.3893 133.382 46.2305L133.595 46.0174C135.936 43.6826 139.28 40.4809 139.28 35.3733C139.28 33.2633 138.19 31.8809 136.593 32.0264C134.56 32.172 130.711 35.2278 128.097 44.468L128.097 59.4837C128.097 59.5058 128.097 59.5279 128.097 59.5501L128.096 59.6835C128.095 59.7281 128.094 59.7728 128.094 59.8176L128.09 59.9522C128.046 61.3445 127.742 62.768 125.701 62.9484C124.031 63.094 121.634 62.7302 121.634 59.6016C119.819 61.9298 117.35 63.6033 114.083 63.8943C110.089 64.1853 105.296 62.3664 105.296 54.8723C105.296 49.4155 107.184 45.2683 109.871 37.7015L102.174 36.2464C102.101 39.5932 101.593 47.0145 100.068 52.1076C100.068 52.1803 99.9955 52.2531 99.9955 52.3258C98.4706 58.0009 95.0578 65.3494 88.0142 65.9315C85.0371 66.1498 82.786 64.9129 81.479 62.9484C79.7363 65.0584 77.34 66.7318 74.145 67.0229C70.2964 67.3139 67.5371 65.6405 65.867 62.8029C63.616 65.7132 60.6388 68.1142 56.7903 68.4053C50.255 68.9146 46.7696 64.6219 46.7696 57.9282V27.8792C45.0268 29.4072 43.0663 30.7896 41.614 31.5171C41.977 33.8454 42.1223 36.1736 42.1223 38.2108C42.1223 59.8199 32.7551 70.297 22.8796 71.0973C10.4626 72.0432 4 60.0381 4 44.8318C4 15.8742 21.1369 7.87089 21.863 7.57986C22.1535 7.5071 22.4439 7.36159 22.807 7.36159C24.6949 7.21607 25.7842 9.68983 25.7842 11.5815C25.7842 12.6729 25.4937 13.546 24.6949 13.6187C24.5497 13.6187 24.4045 13.6187 24.2593 13.546C21.2821 15.4377 10.8257 21.6221 10.8257 43.4494C10.8257 58.874 17.1431 65.2039 23.1701 64.6946C30.2136 64.1853 35.5144 54.7268 35.587 38.7929C35.587 37.1922 35.4418 35.3733 35.2966 33.6271L33.6991 33.7726C26.5829 34.2819 20.919 30.5713 20.919 24.0231C20.919 19.5849 24.0414 15.656 28.6161 15.2922C34.7883 14.7829 38.3464 19.4394 40.2343 25.26C42.558 24.1686 45.3899 21.4038 46.7696 19.9487V19.2211C46.7696 12.8184 50.255 8.01641 54.5392 7.65262C62.0185 7.07056 62.0911 15.947 62.0911 20.749C62.0911 33.2633 54.3214 51.0889 53.2322 52.1803V57.1278C53.2322 60.5474 54.6119 62.8757 57.7343 62.6574C60.4936 62.4391 62.7446 59.6016 64.1243 56.6185C64.0517 56.0365 64.0517 55.5272 64.0517 54.9451C64.0517 40.7574 73.9271 31.2989 84.2383 30.4258C86.562 30.2803 88.1595 31.5171 88.1595 33.6999C88.1595 35.155 87.9416 35.6643 87.0703 35.7371C86.2715 35.7371 85.4727 35.6643 84.6014 35.7371C78.1387 36.2464 70.5869 42.358 70.5869 54.6541C70.5869 59.0923 72.4749 61.4933 75.452 61.275C77.7757 61.1295 79.3006 58.9468 80.2445 56.473V43.3766C80.2445 41.776 79.8815 41.2667 79.8815 40.6846C79.8815 39.8843 80.8981 39.1567 82.0599 39.0839C84.8192 38.7929 86.6346 40.3936 86.6346 42.4308V56.5458C86.6346 58.4375 87.5059 60.4019 89.5391 60.2564C92.8794 59.9654 94.4043 54.363 95.203 50.5796C95.2756 50.5069 95.2756 50.4341 95.2756 50.3614V50.1431C96.2196 46.6507 96.5827 39.5932 96.6553 35.2278C94.5495 34.2092 93.0246 32.5357 93.0246 30.062C93.0246 27.7337 95.1304 25.9876 97.3088 25.842C99.342 25.6965 101.738 26.4969 102.682 29.9165C103.427 30.0271 104.222 30.156 105.021 30.2924L105.399 30.3575L105.652 30.4014C105.861 30.4381 106.071 30.4752 106.279 30.5123L106.528 30.5569C109.38 31.0703 111.904 31.5899 111.904 31.5899C114.155 32.0264 116.334 34.0637 115.971 36.0281C115.971 37.0467 111.832 45.4138 111.832 53.9265C111.832 56.2547 112.921 58.4375 115.244 58.2192C119.166 57.9282 120.545 52.3258 121.344 48.5424C121.417 48.1059 121.562 47.7421 121.707 47.3783V8.52571C121.707 6.05195 120.836 5.90643 120.836 5.32437C120.836 4.74231 122.361 4.23301 123.522 4.16025ZM56.8629 21.3311C56.8629 15.7287 55.9189 13.255 54.5392 13.3277C53.5953 13.4005 53.2322 15.4377 53.2322 16.8201H53.3048V41.1211C55.0475 37.4105 56.8629 25.9876 56.8629 21.3311ZM34.28 27.7337C33.4812 23.8776 31.7385 21.1128 29.1244 21.3311C27.4543 21.4766 27.0186 22.7135 27.0186 23.6593C27.0186 25.7693 28.9066 28.243 33.336 27.8792L34.28 27.7337Z" fill="black"/>
</svg>
