<svg width="160" height="64" viewBox="0 0 160 64" fill="none" xmlns="http://www.w3.org/2000/svg">
<path d="M118.858 17.7454C122.421 17.7454 125.714 18.1229 129.709 18.9325L126.862 24.9285C124.649 24.4967 126.685 24.8707 125.013 24.7088V25.5727L125.12 29.0807L125.174 33.6152C125.228 34.7483 125.228 35.8821 125.282 37.0156V39.2828C125.282 46.4081 124.688 49.7545 122.907 52.5072C120.316 56.556 115.836 58.553 109.467 58.553C106.228 58.553 103.421 58.0673 100.506 56.9334V49.2688H100.507C103.422 50.78 106.336 51.4814 109.413 51.4814C114.864 51.4814 117.186 49.2688 117.186 43.9786V43.8167C115.566 44.6259 113.947 44.9501 111.788 44.9501C104.501 44.9501 99.8581 40.1461 99.8581 32.5354C99.8581 23.0885 106.714 17.7454 118.858 17.7454ZM43.4576 18.2851V37.555C43.4576 44.1945 42.9718 47.379 41.5145 50.132C40.1648 52.7774 38.3833 54.4503 34.713 56.2858L26.994 52.6152C30.6646 50.888 32.4458 49.3771 33.5792 47.0551C34.767 44.6803 35.1452 41.9272 35.1452 34.6943V18.2851H43.4576ZM142.613 17.5835C150.926 17.5835 156 22.8197 156 31.294C156 39.9849 150.711 45.4366 142.29 45.4366C133.976 45.4366 128.849 40.2004 128.849 31.7801C128.849 23.0349 134.139 17.5835 142.613 17.5835ZM59.4903 17.6918C63.7546 17.6918 66.5613 18.8249 67.8031 21.0382C68.5044 22.2796 68.7203 23.8988 68.7203 27.3539V44.2485C64.9954 44.7882 60.2996 45.1664 56.8452 45.1664C49.8822 45.1664 46.751 42.7365 46.751 37.3391C46.751 31.5092 50.9074 28.8105 61.1096 27.9465V26.1114C61.1096 24.6001 60.3539 24.0607 58.2486 24.0607C55.1721 24.0607 51.7174 24.9243 48.4782 26.5979V20.1742H48.4786C52.1495 18.4474 55.6578 17.6918 59.4903 17.6918ZM30.2335 5.448V43.925C25.9692 44.7346 22.8384 45.0584 19.438 45.0584C9.28982 45.0584 4 40.4706 4 31.6718C4 23.1971 9.61401 17.6918 18.3042 17.6918C19.6536 17.6918 20.6791 17.7994 21.9208 18.1232V5.448H30.2335ZM85.8315 17.6918C90.0958 17.6918 93.1727 18.663 95.0085 20.5524C96.7356 22.3332 97.275 24.2763 97.275 28.4333V44.7342H88.9623V28.7572C88.9623 25.5727 87.8828 24.3846 84.9143 24.3846C83.7808 24.3846 82.7553 24.4925 81.0814 24.9783V44.7342H72.769V19.5805C77.6807 18.2851 81.7291 17.6918 85.8315 17.6918ZM61.4874 33.399C55.9813 33.9387 54.2002 34.8026 54.2002 36.9616C54.2002 38.5808 55.226 39.3365 57.4929 39.3365C58.7347 39.3365 59.8678 39.2289 61.4874 38.959V33.399ZM142.506 24.2766C139.213 24.2766 137.323 26.9221 137.323 31.5095C137.323 36.098 139.213 38.7428 142.451 38.7428C145.636 38.7428 147.525 36.0977 147.525 31.5095C147.525 26.9757 145.69 24.2766 142.506 24.2766ZM19.1142 24.3846C14.9038 24.3846 12.4746 26.9757 12.4746 31.5095C12.4746 35.9361 14.7959 38.3649 19.0602 38.3649C19.9774 38.3649 20.7334 38.311 21.9208 38.1494V24.816C20.9493 24.4925 20.1397 24.3846 19.1142 24.3846ZM111.356 25.6256C109.36 26.7594 108.333 28.8108 108.333 31.7254C108.333 35.8821 110.385 38.257 114.055 38.257C115.189 38.257 116.107 38.0407 117.186 37.7172V34.8566C117.186 33.8851 117.132 32.8049 117.132 31.6718L117.079 27.8396L117.024 25.0866V24.4386H116.16C114.542 24.3846 112.652 24.816 111.356 25.6256ZM43.4576 5.49222V14.0208H35.1452V5.49222H43.4576Z" fill="#092E20"/>
</svg>
