<svg width="184" height="48" viewBox="0 0 184 48" fill="none" xmlns="http://www.w3.org/2000/svg">
<path d="M80.0371 13.8287C80.0371 12.0737 78.6144 10.6512 76.8595 10.6512C75.1046 10.6512 73.6819 12.0737 73.6819 13.8287C73.6819 15.5836 75.1046 17.0062 76.8595 17.0062C78.6144 17.0062 80.0371 15.5836 80.0371 13.8287Z" fill="#E60023"/>
<path d="M85.7167 18.2803H80.6144V34.9196H85.9117V25.7224C85.9117 23.6751 87.0817 22.2125 88.8366 22.2125C90.559 22.2125 91.4365 23.4151 91.4365 25.1701V34.9196H96.7337V24.0976C96.7337 20.3927 94.5888 17.7929 90.9491 17.7929C88.6415 17.7929 87.0491 18.7677 85.8141 20.5552H85.7167V18.2803Z" fill="#E60023"/>
<path d="M79.5084 18.2803H74.211V34.9196H79.5084V18.2803Z" fill="#E60023"/>
<path d="M133.463 18.0204C133.666 18.0204 133.839 18.0265 133.99 18.0401V22.6568C130.961 22.3768 129.043 23.9817 129.043 27.445V34.9196H123.746V18.2805H128.816V20.8803H128.913C130.083 18.8979 131.448 18.0204 133.463 18.0204Z" fill="#E60023"/>
<path d="M159.986 24.4225C159.725 24.3744 159.468 24.3297 159.217 24.2862C157.437 23.9772 155.989 23.7258 155.989 22.7002C155.989 21.6602 156.996 21.1728 158.296 21.1728C159.759 21.1728 160.766 21.6277 160.961 23.1227H165.836C165.576 19.8404 163.041 17.7929 158.329 17.7929C154.396 17.7929 151.146 19.6128 151.146 23.1227C151.146 27.0223 154.234 27.8024 157.126 28.29C157.357 28.3307 157.586 28.369 157.811 28.4066C159.736 28.7285 161.351 28.9988 161.351 30.3373C161.351 31.4098 160.344 31.9948 158.751 31.9948C157.154 31.9948 156.097 31.3188 155.773 29.9474H150.725C151.097 33.368 154.099 35.4396 158.784 35.4396C163.139 35.4396 166.356 33.5547 166.356 29.915C166.356 25.6575 162.911 24.9101 159.986 24.4225Z" fill="#E60023"/>
<path fill-rule="evenodd" clip-rule="evenodd" d="M138.763 27.9648C139.088 30.2072 140.323 31.6045 142.5 31.6045C143.898 31.6045 144.807 30.9873 145.263 29.9474H150.43C150.072 31.4422 149.097 32.8721 147.635 33.8796C146.238 34.8546 144.547 35.4071 142.435 35.4071C136.943 35.4071 133.563 31.6045 133.563 26.5675C133.563 21.595 137.04 17.7928 142.11 17.7928C144.483 17.7928 146.368 18.5728 147.798 19.8728C149.78 21.6925 150.755 24.585 150.722 27.9648H138.763ZM145.36 24.8126C145.165 22.83 143.93 21.5625 142.208 21.5625C140.193 21.5625 139.153 22.83 138.795 24.8126H145.36Z" fill="#E60023"/>
<path d="M175.685 30.996L175.62 30.9986C175.384 31.008 175.085 31.0199 174.808 31.0199C173.67 31.0199 172.955 30.6948 172.955 29.3949V21.5952H175.685V18.2804H172.955V13.0156H167.788V18.2804H166.162V21.5952H167.788V30.5324C167.788 34.1073 169.998 35.1146 173.085 35.1146C174.263 35.1146 175.154 35.0264 175.685 34.9227V30.996Z" fill="#E60023"/>
<path d="M105.511 31.0197C105.738 31.0197 105.982 31.0115 106.194 31.0033V34.9568C105.651 35.0448 104.833 35.1144 103.788 35.1144C100.701 35.1144 98.4909 34.1071 98.4909 30.5321V21.5949H96.7679V18.2801H98.4909V13.0154H103.658V18.2801H106.194V21.5949H103.658V29.3946C103.658 30.6946 104.373 31.0197 105.511 31.0197Z" fill="#E60023"/>
<path fill-rule="evenodd" clip-rule="evenodd" d="M105.935 26.5675C105.935 21.5952 109.413 17.7929 114.482 17.7929C116.855 17.7929 118.74 18.5728 120.17 19.8728C122.152 21.6927 123.127 24.585 123.094 27.9649H111.135C111.46 30.2072 112.695 31.6047 114.872 31.6047C116.27 31.6047 117.18 30.9873 117.635 29.9474H122.802C122.444 31.4422 121.47 32.8721 120.007 33.8797C118.61 34.8546 116.92 35.4071 114.807 35.4071C109.315 35.4071 105.935 31.6047 105.935 26.5675ZM117.732 24.8126C117.537 22.8302 116.302 21.5625 114.58 21.5625C112.565 21.5625 111.525 22.8302 111.167 24.8126H117.732Z" fill="#E60023"/>
<path fill-rule="evenodd" clip-rule="evenodd" d="M64.7849 11.6831H55.5859V34.9196H60.9489V27.1525H65.5972C70.3746 27.1525 73.462 24 73.462 19.5478C73.462 17.2079 72.6171 15.2253 71.122 13.828C69.6921 12.463 67.6121 11.6831 64.7849 11.6831ZM68.2614 19.5151C68.2614 21.3677 67.0914 22.6027 65.0115 22.6027H60.9489V16.5254H65.0115C67.0588 16.5254 68.2614 17.6629 68.2614 19.5151Z" fill="#E60023"/>
<path d="M48.3145 24C48.3145 35.0456 39.3601 44 28.3145 44C17.2688 44 8.31445 35.0456 8.31445 24C8.31445 12.9542 17.2688 4 28.3145 4C39.3601 4 48.3145 12.9542 48.3145 24Z" fill="white"/>
<path d="M28.3145 4C17.2688 4 8.31445 12.9544 8.31445 24C8.31445 32.473 13.5861 39.7163 21.0259 42.6304C20.8512 41.048 20.6931 38.6144 21.0953 36.8869C21.4588 35.326 23.4405 26.9456 23.4405 26.9456C23.4405 26.9456 22.8423 25.7475 22.8423 23.9762C22.8423 21.1952 24.4542 19.119 26.4612 19.119C28.1676 19.119 28.9917 20.4001 28.9917 21.9363C28.9917 23.6523 27.8992 26.2179 27.3354 28.5954C26.8642 30.586 28.3336 32.2094 30.297 32.2094C33.8517 32.2094 36.5842 28.4613 36.5842 23.0509C36.5842 18.2622 33.1433 14.9142 28.23 14.9142C22.5393 14.9142 19.1991 19.1825 19.1991 23.5936C19.1991 25.3125 19.8613 27.1558 20.6876 28.1578C20.851 28.3559 20.8749 28.5293 20.8263 28.7315C20.6744 29.3631 20.337 30.7216 20.2708 30.9996C20.1836 31.3657 19.981 31.4434 19.6019 31.267C17.104 30.1043 15.5423 26.4523 15.5423 23.519C15.5423 17.21 20.1262 11.4161 28.7571 11.4161C35.6951 11.4161 41.0868 16.36 41.0868 22.9671C41.0868 29.8599 36.7407 35.4071 30.7085 35.4071C28.6819 35.4071 26.7766 34.3543 26.1245 33.1106C26.1245 33.1106 25.1216 36.9292 24.8785 37.865C24.427 39.6022 23.2081 41.7797 22.3928 43.1081C24.264 43.6875 26.2527 44 28.3145 44C39.3603 44 48.3146 35.0456 48.3146 24C48.3146 12.9544 39.3603 4 28.3145 4Z" fill="#E60023"/>
</svg>
