<svg width="160" height="88" viewBox="0 0 160 88" fill="none" xmlns="http://www.w3.org/2000/svg">
<path d="M6.17938 8.76361L8.19039 6.7526C11.2718 3.70364 16.2993 3.89825 19.1212 7.17426L46.9511 39.61C49.3838 42.4319 49.3513 46.6161 46.8862 49.4056L19.1537 80.8358C16.2993 84.0469 11.3367 84.2091 8.2877 81.1602L6.27668 79.1491C3.55208 76.4245 3.35747 72.0781 5.82258 69.0941L22.4297 49.1785C24.7002 46.4539 24.7326 42.5292 22.527 39.7397L5.66041 18.6565C3.26016 15.7373 3.48721 11.4558 6.17938 8.76361Z" fill="#92D13D"/>
<path d="M22.3963 49.2436L5.78919 69.1592C3.32408 72.1108 3.51869 76.4896 6.24329 79.2142L8.25431 81.2253C11.3033 84.2742 16.2659 84.112 19.1203 80.9009L25.1209 74.0894C27.3914 69.6133 28.6564 64.5533 28.6564 59.2014C28.6564 52.5845 26.7102 46.4542 23.4018 41.2969C24.6343 43.8269 24.31 46.9731 22.3963 49.2436Z" fill="#49691F"/>
<path d="M61.2223 68.1537H54.7676V30.6255H61.2223V34.5502C62.1305 31.923 65.4065 30.0417 69.8826 30.0417C73.71 30.0417 76.9212 31.404 79.516 34.1286C82.1433 36.8207 83.4408 40.1616 83.4408 44.1837C83.4408 48.2057 82.1433 51.5466 79.516 54.3036C76.9212 56.9958 73.71 58.3256 69.8826 58.3256C65.4065 58.3256 62.1305 56.4444 61.2223 53.8171V68.1537ZM63.1036 38.2804C61.5466 39.8373 60.7358 41.8483 60.7358 44.2161C60.7358 46.5839 61.5466 48.5625 63.1036 50.1518C64.7253 51.7087 66.7039 52.5196 69.0393 52.5196C71.3747 52.5196 73.2235 51.7087 74.748 50.1518C76.3049 48.5949 77.0509 46.5839 77.0509 44.2161C77.0509 41.8483 76.3049 39.8697 74.748 38.2804C73.2559 36.7234 71.3422 35.9125 69.0393 35.9125C66.7364 35.9125 64.7253 36.7234 63.1036 38.2804ZM85.6788 20.2461H92.1335V48.8868C92.1335 51.5141 93.0093 52.6494 95.3771 52.6494C96.1231 52.6494 96.7718 52.5845 97.3232 52.4223V58.1959C96.5772 58.4229 95.5393 58.5203 94.2419 58.5203C88.5332 58.5203 85.6788 55.601 85.6788 49.7302V20.2461ZM119.185 34.5502V30.6255H125.64V49.568C125.64 51.8709 126.191 52.7467 127.618 52.7467C128.007 52.7467 128.494 52.6818 128.981 52.6494V57.8715C128.267 58.131 127.197 58.2932 125.802 58.2932C124.245 58.2932 123.012 58.0337 122.039 57.4174C120.839 56.6065 120.093 55.5362 119.834 54.1414C117.952 56.9958 114.839 58.3905 110.525 58.3905C106.697 58.3905 103.486 57.0606 100.826 54.3036C98.2315 51.5466 96.934 48.2057 96.934 44.1837C96.934 40.1616 98.2315 36.8207 100.826 34.1286C103.454 31.3715 106.697 30.0417 110.525 30.0417C114.871 30.0417 118.147 31.9878 119.185 34.5502ZM117.239 50.1194C118.861 48.5625 119.671 46.5515 119.671 44.1837C119.671 41.8159 118.861 39.8373 117.239 38.2479C115.682 36.691 113.671 35.8801 111.368 35.8801C109.065 35.8801 107.184 36.691 105.594 38.2479C104.102 39.8048 103.324 41.8159 103.324 44.1837C103.324 46.5515 104.07 48.5301 105.594 50.1194C107.151 51.6763 109.033 52.4872 111.368 52.4872C113.703 52.4872 115.682 51.6763 117.239 50.1194ZM131.219 63.191C132.029 63.4505 133.035 63.6127 134.235 63.6127C135.273 63.6127 136.019 63.3856 136.603 63.0288C137.187 62.672 137.738 61.8287 138.16 60.7259L138.873 58.7797L127.521 30.6255H134.008L141.987 51.0925L149.48 30.6255H155.999L143.836 62.1855C143.025 64.2938 142.052 65.9156 140.917 67.0184C139.295 68.5105 137.154 69.2889 134.397 69.2889C133.197 69.2889 132.127 69.1267 131.219 68.8672V63.191Z" fill="#49691F"/>
</svg>
