<svg width="160" height="56" viewBox="0 0 160 56" fill="none" xmlns="http://www.w3.org/2000/svg">
<path d="M54.6897 11.7065H63.9895V45.2784H54.6897V11.7065ZM68.8693 45.2784V11.7065H94.4425V18.2154H78.1685V25.1428H93.1395V31.6529H78.1685V38.7664H94.4425V45.2784H68.8693ZM99.6528 45.2784V11.7065H125.22V18.2154H108.95V25.1428H123.916V31.6529H108.95V38.7664H125.22V45.2784H99.6528ZM130.427 45.2784V11.7065H156V18.2154H139.732V25.1428H154.699V31.6529H139.732V38.7664H156V45.2784H130.427ZM25.2137 31.8612C25.0909 34.2317 25.0605 36.4256 24.8851 38.8019C25.8234 38.8874 26.8821 38.969 27.8825 38.8234L27.5836 32.1987L27.5311 31.8834C26.7694 31.9131 26.0482 31.9435 25.2137 31.8612ZM19.3538 25.2042C18.1983 25.7835 16.4983 26.6592 16.6857 28.244C16.9333 29.1095 17.8703 29.6686 18.6118 30.0244C22.7102 31.8302 28.1509 31.8916 32.4779 30.5436C33.5461 30.132 34.9802 29.535 35.1764 28.2262C35.165 27.1448 34.0203 26.4642 33.1978 26.0501V25.9988C33.4846 25.8855 33.8145 25.7835 34.1115 25.7525V25.7234C32.6622 25.4638 31.2629 25.0845 29.8592 24.7135C30.1295 25.3295 30.3246 25.9792 30.55 26.6193C30.9716 26.4844 31.4041 26.3819 31.8593 26.3198C32.5995 26.6079 33.6594 27.0201 33.7645 27.9458C33.8468 28.8113 32.8996 29.233 32.3013 29.5844C29.1273 30.7392 25.5562 30.8519 22.2461 29.9738C21.3318 29.6857 20.0123 29.3159 19.899 28.1515C20.548 26.6193 22.2265 26.3002 23.6283 25.9279C22.9077 25.4638 22.1752 25.0529 21.4768 24.5362C20.7227 24.578 20.0338 24.9079 19.3538 25.2042ZM26.366 15.9569L25.9551 17.2758L23.8948 23.1774C24.4109 23.23 25.0497 23.1774 25.5562 23.23V23.2787L25.2549 29.9541L25.3068 30.0244C25.9659 30.089 26.789 30.1219 27.4608 30.0073V29.9022L27.1917 23.4275L27.2322 23.2085L29.0449 23.1774C28.1408 20.7885 27.2639 18.3756 26.4192 15.9569H26.366ZM25.4087 12.9918C26.9245 11.9592 28.2845 13.4028 29.459 14.2278C34 17.883 38.2852 22.0669 41.5504 26.7915C41.962 27.4012 42.1481 28.3478 41.779 29.038C40.9325 30.4499 39.7903 31.7384 38.7076 33.0471V33.1187C36.0078 35.9926 33.1567 38.9469 30.0757 41.3807C28.572 42.2956 27.1917 44.2939 25.2549 43.0561C20.8449 39.8333 16.6249 35.8267 13.0476 31.5294C12.441 30.5848 11.4938 29.8104 11.0721 28.7391C10.4833 27.2879 11.7813 26.247 12.524 25.1542C16.1716 20.6556 20.7018 16.2444 25.4087 12.9918ZM29.2096 8.69523L27.5311 6.31646C27.3253 6.19109 27.0689 5.98342 26.8416 5.92263C26.3464 5.70799 25.8127 5.96759 25.4087 6.27404L22.3715 10.23C17.4987 16.2646 11.7306 21.8997 5.43766 26.2191C4.94 26.6079 4.20047 26.9872 4.04661 27.6279C3.88136 28.2041 4.18147 28.6796 4.53921 29.038C9.57851 32.5089 14.3962 36.6295 18.6846 41.3288C19.4456 42.1285 20.063 42.9237 20.8076 43.6747C22.0618 45.3437 23.5352 47.026 24.6882 48.8165C25.0497 49.1945 25.1118 49.8157 25.6772 49.9999C26.1198 50.1531 26.6662 50.257 27.0885 49.9999L27.5083 49.5782C32.7223 42.1918 39.335 35.5582 46.7233 30.2023C47.4629 29.5419 48.8754 29.2963 48.8957 28.0705C48.8431 27.5051 48.5139 26.9479 48.0283 26.6389L47.9073 26.6193C44.1052 24.0328 40.5627 21.1077 37.2253 17.7893L33.5372 13.9365C32.0429 12.2802 30.5911 10.4453 29.2096 8.69523ZM24.8642 12.0839C26.3464 10.9303 28.2117 11.8882 29.459 12.9494C30.7652 13.9479 32.1259 15.0794 33.32 16.2355L33.5372 16.3602C36.8442 19.4285 39.9156 22.8387 42.4388 26.4439C42.8478 27.0714 43.2093 27.7824 42.9807 28.615C42.1393 30.7184 40.4297 32.395 38.9349 34.2317C35.7007 37.7128 32.2892 41.0812 28.47 43.7684C27.6976 44.3148 26.6554 44.8194 25.7297 44.3857C22.9185 42.9142 20.548 40.5038 18.0875 38.3074C15.2339 35.6614 12.3701 32.5805 10.2072 29.3577C9.88559 28.9056 9.79505 28.3478 9.80455 27.7514C10.0825 26.6389 10.8448 25.7234 11.566 24.7857C14.1214 21.5287 17.2517 18.4395 20.4131 15.6175C20.4859 15.5454 20.6208 15.3915 20.7354 15.3181C22.0929 14.1442 23.4415 13.1052 24.8642 12.0839Z" fill="#1A1918"/>
</svg>
