<svg width="160" height="104" viewBox="0 0 160 104" fill="none" xmlns="http://www.w3.org/2000/svg">
<path d="M15.4348 18.9018C23.7934 10.3784 34.3257 6.48382 47.1252 7.337C59.4517 8.15859 72.0117 14.24 81.01 23.2014C88.6578 30.8176 91.5498 38.2783 91.4501 49.4281C92.2999 47.6087 93.9605 46.1729 96.6159 46.1729C100.632 46.1729 102.404 49.4412 102.404 52.2607V53.3828H93.4969C93.4969 55.3542 94.6445 56.8507 96.6159 56.8507C98.0126 56.8507 99.2856 56.052 99.9091 54.7302L102.129 55.6032C100.857 58.0728 99.3849 59.1461 96.6159 59.1461C93.5892 59.1461 91.855 57.2804 91.1406 55.1075C90.0368 65.5926 85.9006 74.7801 78.694 82.4317C70.0015 91.6608 60.1194 96.5936 48.7351 96.7736L48.363 96.7778C36.8442 96.8595 26.7247 92.2696 17.9568 83.3199C9.25223 74.4344 4.57503 63.848 4.05136 51.3877C3.50455 38.3063 7.32594 27.1691 15.4348 18.9018ZM47.0898 7.8669C34.443 7.0239 24.0627 10.8624 15.8139 19.2737C7.81315 27.4308 4.04103 38.4244 4.58197 51.3655C5.10007 63.6932 9.72248 74.1555 18.3362 82.9483C27.1003 91.8941 37.2057 96.4243 48.7267 96.2426L49.0884 96.2352C60.1671 95.9599 69.8003 91.0998 78.3074 82.0676C85.8485 74.0609 89.9873 64.3589 90.7734 53.2234C90.7595 53.0339 90.7528 52.8457 90.7528 52.6595C90.7528 52.2006 90.7932 51.7299 90.8766 51.262C91.3146 39.2119 88.5886 31.4982 80.6353 23.5777C71.7247 14.7036 59.2832 8.67961 47.0898 7.8669ZM63.1289 46.373L67.1677 55.5872L71.4509 46.373H74.47L66.2596 64.0355H63.2399L65.6292 58.8968L60.1394 46.373H63.1289ZM82.8824 46.173C86.5495 46.173 88.4953 48.5676 88.4953 52.6595C88.4953 56.6511 86.524 59.1461 82.8319 59.1461C81.3598 59.1461 80.0879 58.4472 79.4644 57.5497V64.0352H76.8695V46.3732H79.4644V47.8198C79.9386 46.9961 81.3598 46.173 82.8824 46.173ZM119.408 46.173C121.28 46.173 122.776 46.7965 123.899 48.0445C125.022 49.292 125.595 50.8385 125.595 52.6595C125.595 54.4806 125.022 56.0276 123.899 57.2751C122.776 58.5221 121.28 59.1461 119.408 59.1461C117.537 59.1461 116.016 58.5221 114.892 57.2751C113.77 56.0276 113.221 54.4806 113.221 52.6595C113.221 50.8385 113.77 49.292 114.892 48.0445C116.016 46.7965 117.537 46.173 119.408 46.173ZM59.7259 41.4832V44.0776H54.216V58.9466H51.4714V44.0776H45.9614V41.4832H59.7259ZM134.372 46.1729C134.945 46.1729 135.469 46.2733 135.968 46.4724L135.519 48.8426C135.12 48.593 134.621 48.4688 134.047 48.4688C133.124 48.4688 132.326 48.9674 131.653 49.9898C130.979 50.9877 130.654 52.4099 130.654 54.2809V58.9464H128.06V46.3731H130.654V48.4688C131.478 46.9966 132.975 46.1729 134.372 46.1729ZM152.408 46.1733C154.678 46.1733 156 47.6699 156 49.9402V58.9462H153.406V50.5143C153.406 49.1919 152.682 48.4686 151.559 48.4686C149.938 48.4686 148.615 50.5887 148.615 53.9068V58.9462H146.021V50.5143C146.021 49.1919 145.297 48.4686 144.175 48.4686C142.503 48.4686 141.231 50.5887 141.231 54.1814V58.9462H138.636V46.373H141.231V48.5185C142.254 46.9465 143.501 46.1733 145.023 46.1733C146.719 46.1733 148.117 47.1961 148.491 48.7676C149.364 47.0963 150.786 46.1733 152.408 46.1733ZM110.356 41.2836C111.18 41.2836 111.854 41.4328 112.428 41.7323L111.903 43.9278C111.455 43.7031 110.956 43.5783 110.431 43.5783C109.309 43.5783 108.735 44.2273 108.735 45.5497V46.3729H111.504V48.6677H108.735V58.9461H106.141V48.6677H104.519V46.3729H106.141V45.7244C106.141 42.7552 107.738 41.2836 110.356 41.2836ZM82.5324 48.4683C81.5844 48.4683 80.8112 48.8427 80.2127 49.6165C79.6136 50.3642 79.3146 51.3871 79.3146 52.6595C79.3146 53.932 79.6136 54.9543 80.2127 55.7281C80.8112 56.4764 81.5844 56.8508 82.5324 56.8508C83.4809 56.8508 84.2542 56.4764 84.8532 55.7281C85.4517 54.9543 85.7507 53.932 85.7507 52.6595C85.7507 51.3871 85.4517 50.3642 84.8532 49.6165C84.2542 48.8427 83.4809 48.4683 82.5324 48.4683ZM119.408 48.4683C118.335 48.4683 117.487 48.8921 116.863 49.7158C116.265 50.539 115.966 51.5119 115.966 52.6595C115.966 53.8072 116.265 54.8051 116.863 55.6283C117.487 56.452 118.335 56.8508 119.408 56.8508C120.481 56.8508 121.329 56.452 121.928 55.6283C122.551 54.8051 122.851 53.8072 122.851 52.6595C122.851 51.5119 122.551 50.539 121.928 49.7158C121.329 48.8921 120.481 48.4683 119.408 48.4683ZM96.6159 48.4688C94.9446 48.4688 93.8463 49.5909 93.5473 51.2128H99.6595C99.4348 49.6409 98.387 48.4688 96.6159 48.4688Z" fill="#262627"/>
</svg>
