<svg width="160" height="48" viewBox="0 0 160 48" fill="none" xmlns="http://www.w3.org/2000/svg">
<path d="M16.3785 11.5218C23.1942 11.5218 28.757 17.0345 28.757 23.8502C28.757 30.6659 23.1942 36.2287 16.3785 36.2287C14.2235 36.2287 12.1688 35.6774 10.4148 34.7252V44.0467L4 41.3404V23.9003C4 17.0345 9.56281 11.5218 16.3785 11.5218ZM78.0204 3.95435V11.5218H83.9842V17.9365H78.0204V24.0005C78.0204 27.3081 80.6766 29.9642 83.9842 29.9642V36.379C77.2687 36.379 71.8061 31.0167 71.6057 24.3513V6.71069L78.0204 3.95435ZM43.4408 11.5218V17.9365C40.1332 17.9365 37.4771 20.5927 37.4771 23.9003V36.379H31.0623V23.5495L31.0699 23.3499C31.3722 16.7774 36.7925 11.5218 43.4408 11.5218ZM56.7715 11.5218C63.5872 11.5218 69.0999 17.0345 69.15 23.9003C69.15 30.716 63.5872 36.2788 56.7715 36.2788C49.9558 36.2788 44.393 30.716 44.393 23.9003C44.393 17.0846 49.9558 11.5218 56.7715 11.5218ZM97.9163 11.5218C104.732 11.5218 110.295 17.0345 110.295 23.9003C110.295 30.716 104.732 36.2788 97.9163 36.2788C91.1006 36.2788 85.5378 30.716 85.5378 23.9003C85.5378 17.0846 91.1006 11.5218 97.9163 11.5218ZM143.621 11.5218C150.437 11.5218 156 17.0345 156 23.9003C156 30.716 150.437 36.2788 143.621 36.2788C136.806 36.2788 131.243 30.716 131.243 23.9003C131.243 17.0846 136.806 11.5218 143.621 11.5218ZM128.737 11.5218V36.2788H122.322V11.5218H128.737ZM115.457 27.9596C117.762 27.9596 119.616 29.8139 119.616 32.1192C119.616 34.4245 117.762 36.2788 115.457 36.2788C113.151 36.2788 111.297 34.4245 111.297 32.1192C111.297 29.8139 113.151 27.9596 115.457 27.9596ZM56.7715 17.9365C53.4639 17.9365 50.8078 20.5927 50.8078 23.9003C50.8078 27.2079 53.4639 29.864 56.7715 29.864C60.029 29.864 62.6851 27.1578 62.7352 23.9003C62.7352 20.5927 60.0791 17.9365 56.7715 17.9365ZM97.9163 17.9365C94.6086 17.9365 91.9525 20.5927 91.9525 23.9003C91.9525 27.2079 94.6086 29.864 97.9163 29.864C101.174 29.864 103.88 27.1578 103.88 23.9003C103.88 20.5927 101.224 17.9365 97.9163 17.9365ZM16.3785 17.9365C13.0709 17.9365 10.4148 20.5927 10.4148 23.9003C10.4148 27.2079 13.0709 29.864 16.3785 29.864C19.636 29.864 22.3422 27.1578 22.3422 23.9003C22.3422 20.5927 19.6861 17.9365 16.3785 17.9365ZM143.621 17.9365C140.314 17.9365 137.658 20.5927 137.658 23.9003C137.658 27.2079 140.314 29.864 143.621 29.864C146.879 29.864 149.585 27.1578 149.585 23.9003C149.585 20.5927 146.929 17.9365 143.621 17.9365Z" fill="#3E4245"/>
</svg>
