<svg width="160" height="56" viewBox="0 0 160 56" fill="none" xmlns="http://www.w3.org/2000/svg">
<path d="M10.3497 26.8785H4V19.1947H10.5333V17.1323C10.5333 7.66691 14.9916 4.36963 23.7816 4.36963C26.1669 4.36963 27.9992 4.73693 29.403 4.9818L28.7275 12.5537C27.8135 12.2476 26.8994 12.0598 25.2445 12.0598C22.4369 12.0598 21.3434 14.0145 21.3434 17.1323V19.1947H29.3017V26.8785H21.3434V50.901H10.3497V26.8785ZM33.5531 5.09368H44.5511V50.901H33.5531V5.09368ZM50.0353 5.82829H61.0227V13.8921H50.0353V5.82829ZM50.0353 19.161H61.0227V50.8968H50.0353V19.161ZM90.8354 28.1789C88.8174 26.9609 86.8078 26.4141 84.186 26.4141C79.4153 26.4141 75.7549 29.7135 75.7549 35.2062C75.7549 40.2682 80.0274 43.5655 84.7897 43.5655C87.2954 43.5655 89.7969 43.0209 91.6291 42.0456L91.8761 50.2255C89.1277 51.1395 85.8304 51.6314 82.8941 51.6314C72.3943 51.6314 64.396 45.5223 64.396 35.0183C64.396 24.451 72.3964 18.3482 82.8941 18.3482C86.1935 18.3482 89.1256 18.9013 91.6291 20.1214L90.8333 28.1768L90.8354 28.1789ZM96.4547 5.09368H107.444V32.4556H107.565L116.726 19.085H128.754L117.706 33.6842L129.67 50.8989H116.359L107.565 35.1407H107.444V50.8968H96.4547V5.08946V5.09368ZM155.449 27.877C154.229 27.5076 153.013 27.5076 151.727 27.5076C146.598 27.5076 143.723 31.2376 143.723 37.467V50.8989H132.74V19.0828H142.752V24.9449H142.87C144.766 20.913 147.514 18.3482 152.278 18.3482C153.56 18.3482 154.907 18.5277 156 18.7155L155.451 27.877H155.449Z" fill="black"/>
</svg>
