<svg width="208" height="48" viewBox="0 0 208 48" fill="none" xmlns="http://www.w3.org/2000/svg">
<path d="M199.18 17.9051C200.699 19.1334 199.091 21.0765 197.751 20.0939C196.098 19.0442 192.346 18.5529 191.877 20.8755C191.274 24.5384 200.989 22.439 200.833 28.3798C200.677 34.0529 192.458 34.1869 189.375 31.6407C188.638 31.0378 188.661 30.055 189.063 29.4519C189.643 28.8714 190.291 28.6703 191.05 29.2956C192.882 30.5463 197.595 31.4844 197.93 28.313C197.639 25.0074 188.348 26.9952 189.04 20.6523C189.554 16.3193 196.098 15.5376 199.18 17.9051ZM184.528 18.7761V26.8612C184.528 35.2142 171.06 35.2142 171.06 26.8612V18.7761C171.06 16.7661 173.986 16.6767 173.986 18.7761V26.8612C173.986 31.261 181.602 31.5291 181.602 26.8612V18.7761C181.602 16.7883 184.528 16.632 184.528 18.7761ZM92.3064 16.7438C96.2149 16.9446 100.302 19.6471 100.302 24.9405C100.302 30.2337 96.2149 32.9809 92.3064 32.9809C88.1745 33.1595 83.8863 30.4123 83.8863 24.9405C83.8863 19.4461 88.1745 16.7438 92.3064 16.7438ZM111.984 17.302C117.657 17.302 118.818 24.8958 114.083 26.7941L117.053 30.4123C118.215 32.1322 115.892 33.7848 114.552 32.0875L111.18 27.2633H107.673V31.3057C107.673 33.2488 104.702 33.3159 104.702 31.3504V18.6645C104.702 17.8827 105.306 17.302 106.043 17.302H111.984ZM65.7053 17.1011C66.353 17.1011 66.7327 17.4808 67.1124 17.9051L72.0259 24.5384L77.1183 17.6593C77.8552 16.7438 79.6643 17.1011 79.6643 18.6421V31.2165C79.6643 32.1991 79.039 32.7575 78.3243 32.7575C77.5202 32.7575 76.8949 32.1991 76.8949 31.2165V22.9527L73.1874 27.643C72.3833 28.6256 71.3783 28.6256 70.6412 27.643L67.3134 22.9527V31.2165C67.3134 32.1991 66.5093 32.7575 65.7053 32.7575C64.9906 32.7575 64.3652 32.1991 64.3652 31.2165V18.6421C64.3652 17.4808 65.3479 17.1011 65.7053 17.1011ZM128.177 17.1011C131.08 17.1011 133.693 19.0442 133.693 22.774C133.693 26.3028 131.08 28.2682 128.177 28.2682H124.447V31.2165C124.447 32.1991 123.821 32.7575 123.017 32.7575C122.28 32.7575 121.499 32.1991 121.499 31.2165V18.6421C121.499 17.9051 122.079 17.1011 123.017 17.1011H128.177ZM149.507 17.3019C150.288 17.3019 150.891 17.8827 150.891 18.6868V31.3728C150.891 32.1544 150.288 32.7575 149.507 32.7575C148.703 32.7575 147.988 32.1544 147.988 31.3728V26.4815H140.707V31.3728C140.707 32.1544 140.126 32.7575 139.344 32.7575C138.339 32.7575 137.759 32.1544 137.759 31.3728V18.6868C137.759 17.8827 138.339 17.3019 139.344 17.3019C140.126 17.3019 140.707 17.8827 140.707 18.6868V23.5558H147.988V18.6868C147.988 17.8827 148.703 17.3019 149.507 17.3019ZM165.052 17.3019C167.107 17.3019 167.062 20.2055 165.052 20.2055H158.62V23.5558H164.248C166.236 23.5558 166.236 26.4815 164.248 26.4815H158.62V29.8316H165.432C167.464 29.8316 167.62 32.7575 165.432 32.7575H157.034C156.252 32.7575 155.649 32.1544 155.649 31.3728V18.6868C155.649 17.8827 156.252 17.3019 157.034 17.3019H165.052ZM92.0607 19.6471C89.5592 19.6471 86.8345 21.4117 86.8345 24.9405C86.8345 28.4469 89.5592 30.2337 92.0607 30.2337C94.6292 30.2337 97.3763 28.4469 97.3763 24.9405C97.3763 21.4117 94.6292 19.6471 92.0607 19.6471ZM128.177 19.9152H124.447V25.4765H128.177C129.673 25.4765 130.857 24.1587 130.857 22.774C130.857 21.2106 129.673 19.9152 128.177 19.9152ZM111.984 20.0044H107.673V24.6947H111.984C114.887 24.6947 115.066 20.0044 111.984 20.0044Z" fill="#3DB5E6"/>
<path d="M46.6489 29.0278C44.4715 37.7758 36.5046 43.9997 27.1213 43.9997C17.6956 43.9997 9.79721 37.4074 7.70898 28.6233C10.22 28.6233 12.5674 28.6347 13.6572 28.6347C14.1713 28.6347 14.2711 28.6437 14.3008 28.6415C15.1208 28.6012 16.149 28.3305 16.8331 26.6672L19.4396 19.8486L25.2285 33.7864C25.749 34.8974 26.6178 34.8187 27.1362 34.8187H27.185C28.1962 34.8187 28.636 34.4644 29.0205 33.7315L35.5592 19.9531L37.7898 26.1627L37.9257 26.4634C38.3973 27.4979 38.7366 28.5198 39.9037 28.6534C40.1443 28.6809 42.9382 28.6321 46.7047 28.6321C46.7047 28.6321 46.7047 28.6562 46.6489 29.0278Z" fill="#3DB5E6"/>
<path d="M47.2876 23.8757C47.2876 23.9798 47.2876 24.2416 47.2855 24.2416H47.2813H41.2694L37.7621 14.4439C37.4498 13.7153 36.9803 12.6229 35.6122 12.6229C34.7752 12.6229 34.0189 13.3142 33.5898 14.455L27.2316 29.1824L21.1114 14.5443C20.5123 13.2442 20.0981 12.6327 18.8999 12.6327C18.0863 12.6327 17.4894 12.9325 16.8393 14.4726L13.2067 24.387L7.17141 24.3807C7.16715 24.2299 7.16504 24.0791 7.16504 23.9283C7.16504 12.9071 16.1001 4 27.1212 4C38.1423 4 47.2876 12.8545 47.2876 23.8757Z" fill="#D8292F"/>
</svg>
