<svg width="160" height="152" viewBox="0 0 160 152" fill="none" xmlns="http://www.w3.org/2000/svg">
<path fill-rule="evenodd" clip-rule="evenodd" d="M137.399 146.86C147.457 146.86 155.614 138.703 155.614 128.64V23.3604C155.614 13.2979 147.457 5.13965 137.399 5.13965H22.5996C12.5405 5.13965 4.38574 13.2979 4.38574 23.3604V128.64C4.38574 138.702 12.5405 146.86 22.5996 146.86H137.399Z" fill="white"/>
<path d="M93.9664 33.6104C93.9664 25.0899 89.4274 17.6992 82.6338 13.5904L90.9952 13.5422C96.2245 18.9123 99.1457 26.1149 99.1345 33.6104C99.1345 41.4098 96.0169 48.4813 90.9616 53.6442L82.7362 53.639C89.4721 49.5156 93.9664 42.0879 93.9664 33.6104Z" fill="#57A654"/>
<path d="M29.8948 37.3354H23.9222L33.4787 16.1056L45.0738 37.3354H39.1717L34.0406 27.9157L29.8948 37.3354Z" fill="#57A654"/>
<path d="M46.62 40.1484L53.929 53.645H47.9555L43.4578 45.2089H26.3118L22.5162 53.645H16.6133L22.6565 40.1484H46.62Z" fill="#57A654"/>
<path d="M110.287 37.3354H104.316L113.872 16.1056L125.467 37.3354H119.564L114.435 27.9157L110.287 37.3354Z" fill="#57A654"/>
<path d="M127.013 40.1484L134.322 53.645H128.349L123.85 45.2089H106.704L102.909 53.645H97.0073L103.051 40.1484H127.013Z" fill="#57A654"/>
<path d="M121.813 13.5758H115.91L137.695 53.645H143.597L121.813 13.5758Z" fill="#57A654"/>
<path d="M90.589 33.6104C90.589 44.7003 81.6004 53.6218 70.5131 53.6218L57.3021 53.645L35.5173 13.5758H41.4202L60.4644 48.5527H70.5131C78.8004 48.5527 85.5199 41.9012 85.5199 33.6104C85.5199 25.3197 78.8004 18.669 70.5131 18.669L62.1509 18.6371V44.647C62.1509 44.647 57.0216 35.1576 56.951 35.1576C56.8805 35.1576 56.951 13.599 56.951 13.599H70.5131C81.6013 13.599 90.589 22.5205 90.589 33.6104Z" fill="#57A654"/>
<path d="M14.2247 60.8154V59.9713H145.495V60.8154H14.2247Z" fill="black"/>
<path d="M14.2247 83.0296V82.1855H145.495V83.0296H14.2247Z" fill="black"/>
<path fill-rule="evenodd" clip-rule="evenodd" d="M17.405 101.377L18.7121 97.7336H23.7313L24.9678 101.377H26.8161L22.2848 88.8603H20.3677L15.6626 101.377H17.405ZM21.2738 90.7249L23.1212 96.2346H19.2344L21.2393 90.7249H21.2738Z" fill="black"/>
<path d="M28.1757 92.26H29.6222V93.5499H29.6574C29.9887 93.0611 30.7726 91.9976 32.4101 91.9976C34.0407 91.9976 34.5666 92.982 34.8286 93.4723L34.8324 93.4793C35.5999 92.6266 36.21 91.9976 37.6204 91.9976C38.5961 91.9976 40.4436 92.5035 40.4436 95.0652V101.376H38.9102V95.4834C38.9102 94.2288 38.5273 93.3743 37.2202 93.3743C35.9295 93.3743 35.0768 94.5945 35.0768 95.8147V101.376H33.5425V95.0652C33.5425 94.2976 33.2465 93.3743 32.1141 93.3743C31.2425 93.3743 29.7091 93.9319 29.7091 96.4075V101.375H28.1757V92.26Z" fill="black"/>
<path fill-rule="evenodd" clip-rule="evenodd" d="M50.4269 98.5183C50.3744 98.9546 49.9562 100.244 48.8058 101.011C48.3884 101.29 47.7956 101.638 46.3319 101.638C43.7702 101.638 42.2541 99.7032 42.2541 97.071C42.2541 94.2469 43.6128 91.9976 46.6279 91.9976C49.2593 91.9976 50.5491 94.0894 50.5491 97.3145H43.8916C43.8916 99.2153 44.7804 100.313 46.5401 100.313C47.9875 100.313 48.8411 99.1964 48.8927 98.5174H50.4269V98.5183ZM48.9624 96.0943C48.8755 94.6823 48.2826 93.3752 46.4179 93.3752C45.0067 93.3752 43.8907 94.6831 43.8907 96.0943H48.9624Z" fill="black"/>
<path d="M53.5513 101.377H52.0171V92.26H53.4644V93.7762H53.4988C54.1089 92.7135 54.9109 91.9984 56.0605 91.9984C56.2515 91.9984 56.3393 92.0165 56.4606 92.0518V93.6385H55.8867C54.4574 93.6385 53.5513 94.7537 53.5513 96.078V101.377Z" fill="black"/>
<path d="M59.1832 101.377H57.6498V92.26H59.1832V101.377Z" fill="black"/>
<path d="M57.6498 90.6036V88.8603H59.1832V90.6036H57.6498Z" fill="black"/>
<path d="M67.1805 95.3276C66.9878 94.1083 66.3089 93.3752 65.0199 93.3752C63.1199 93.3752 62.5098 95.1882 62.5098 96.8094C62.5098 98.378 62.8927 100.313 65.0018 100.313C66.0301 100.313 66.9189 99.5457 67.1805 98.1509H68.6614C68.5039 99.5982 67.6159 101.638 64.9493 101.638C62.3876 101.638 60.8715 99.7032 60.8715 97.071C60.8715 94.2469 62.231 91.9976 65.2453 91.9976C67.6323 91.9976 68.5384 93.7409 68.6614 95.3268H67.1805V95.3276Z" fill="black"/>
<path fill-rule="evenodd" clip-rule="evenodd" d="M70.144 95.0316C70.2146 92.8529 71.6602 91.9984 73.9086 91.9984C74.6401 91.9984 77.2895 92.2075 77.2895 94.5437V99.7918C77.2895 100.175 77.4805 100.332 77.7946 100.332C77.934 100.332 78.1259 100.297 78.2997 100.263V101.378C78.2691 101.386 78.2391 101.395 78.2092 101.403C78.1775 101.413 78.146 101.423 78.1144 101.432L78.1143 101.432L78.1139 101.433C77.9217 101.492 77.7271 101.552 77.4624 101.552C76.1029 101.552 75.8946 100.855 75.8421 100.158C75.2501 100.803 74.3268 101.64 72.5482 101.64C70.8763 101.64 69.6906 100.577 69.6906 99.0071C69.6906 98.2395 69.9177 96.4618 72.4613 96.1485L74.9894 95.8345C75.3551 95.8 75.7905 95.6606 75.7905 94.7537C75.7905 93.7951 75.0935 93.2719 73.6479 93.2719C71.9054 93.2719 71.6611 94.3346 71.5569 95.0325H70.144V95.0316ZM75.7552 96.7225C75.5117 96.9152 75.1279 97.0546 73.228 97.2981C72.4785 97.4031 71.2764 97.6286 71.2764 98.7799C71.2764 99.7738 71.7815 100.367 72.932 100.367C74.3613 100.367 75.7552 99.4433 75.7552 98.2232V96.7225Z" fill="black"/>
<path d="M87.0267 101.377H85.4933V95.7639C85.4933 94.178 85.0416 93.3761 83.5417 93.3761C82.6692 93.3761 81.1367 93.9337 81.1367 96.4093V101.377H79.6033V92.26H81.0489V93.5499H81.0842C81.4155 93.0611 82.2691 91.9976 83.8386 91.9976C85.2489 91.9976 87.0267 92.5732 87.0267 95.171V101.377Z" fill="black"/>
<path fill-rule="evenodd" clip-rule="evenodd" d="M16.8311 106.575H21.9011C25.1597 106.575 27.1646 109.051 27.1646 112.659C27.1646 115.466 25.9445 119.092 21.8322 119.092H16.8311V106.575ZM18.5211 117.645H21.7969C23.9929 117.645 25.4221 115.919 25.4221 112.764C25.4221 109.608 23.9757 108.022 21.6756 108.022H18.5211V117.645Z" fill="black"/>
<path fill-rule="evenodd" clip-rule="evenodd" d="M35.8865 116.233C35.8349 116.669 35.4167 117.959 34.2662 118.726C33.848 119.004 33.256 119.353 31.7923 119.353C29.2306 119.353 27.7145 117.419 27.7145 114.786C27.7145 111.962 29.074 109.712 32.0883 109.712C34.7197 109.712 36.0095 111.805 36.0095 115.029H29.3528C29.3528 116.931 30.2417 118.028 32.0023 118.028C33.4487 118.028 34.3023 116.912 34.3548 116.232H35.8865V116.233ZM34.4228 113.81C34.335 112.398 33.743 111.09 31.8775 111.09C30.4663 111.09 29.3511 112.399 29.3511 113.81H34.4228Z" fill="black"/>
<path d="M44.9809 119.092H43.4467V113.479C43.4467 111.893 42.9941 111.091 41.4951 111.091C40.6234 111.091 39.0901 111.649 39.0901 114.125V119.092H37.5567V109.975H39.0032V111.265H39.0384C39.3697 110.777 40.2233 109.712 41.792 109.712C43.204 109.712 44.9809 110.288 44.9809 112.886V119.092Z" fill="black"/>
<path d="M49.1267 111.247V117.175C49.1267 117.889 49.736 117.89 50.0509 117.89H50.5913V119.092C50.3292 119.117 50.0939 119.146 49.9018 119.169L49.901 119.169L49.9007 119.169C49.6848 119.195 49.5237 119.215 49.4408 119.215C47.9246 119.215 47.5934 118.36 47.5934 117.262V111.247H46.356V109.975H47.5934V107.429H49.1267V109.975H50.5913V111.247H49.1267Z" fill="black"/>
<path fill-rule="evenodd" clip-rule="evenodd" d="M52.5971 112.746C52.6659 110.568 54.1132 109.713 56.3608 109.713C57.0939 109.713 59.7417 109.923 59.7417 112.259V117.507C59.7417 117.89 59.9344 118.047 60.2468 118.047C60.3862 118.047 60.578 118.013 60.7519 117.977V119.093C60.6886 119.11 60.6274 119.129 60.566 119.148C60.3734 119.207 60.1791 119.267 59.9155 119.267C58.5559 119.267 58.3468 118.57 58.2943 117.872C57.7023 118.518 56.7781 119.355 55.0004 119.355C53.3276 119.355 52.1419 118.291 52.1419 116.722C52.1419 115.954 52.369 114.177 54.9135 113.863L57.4407 113.55C57.8064 113.516 58.2427 113.376 58.2427 112.468C58.2427 111.51 57.5448 110.987 56.0992 110.987C54.3567 110.987 54.1124 112.05 54.0074 112.747H52.5971V112.746ZM58.2074 114.437C57.9639 114.63 57.5801 114.769 55.681 115.013C54.9315 115.118 53.7286 115.344 53.7286 116.495C53.7286 117.489 54.2337 118.081 55.3842 118.081C56.8134 118.081 58.2074 117.158 58.2074 115.938V114.437Z" fill="black"/>
<path d="M63.3436 119.092H61.8102V106.575H63.3436V119.092Z" fill="black"/>
<path fill-rule="evenodd" clip-rule="evenodd" d="M18.7121 132.601L17.405 136.245H15.6626L20.3677 123.728H22.2848L26.8161 136.245H24.9678L23.7313 132.601H18.7121ZM23.1212 131.102L21.2738 125.593H21.2393L19.2344 131.102H23.1212Z" fill="black"/>
<path d="M33.3515 129.724C33.3334 129.15 33.1252 128.19 31.1908 128.19C30.7201 128.19 29.3778 128.349 29.3778 129.481C29.3778 130.231 29.8485 130.404 31.0342 130.7L32.5676 131.084C34.4675 131.556 35.1293 132.252 35.1293 133.49C35.1293 135.373 33.5778 136.506 31.5221 136.506C27.915 136.506 27.6534 134.414 27.6009 133.315H29.0818C29.1351 134.03 29.3434 135.181 31.504 135.181C32.6012 135.181 33.5959 134.745 33.5959 133.734C33.5959 133.001 33.0908 132.758 31.7828 132.426L30.0059 131.99C28.7341 131.677 27.8969 131.032 27.8969 129.777C27.8969 127.771 29.5525 126.865 31.3474 126.865C34.6069 126.865 34.8333 129.271 34.8333 129.723H33.3515V129.724Z" fill="black"/>
<path d="M42.0648 129.724C42.0467 129.15 41.8384 128.19 39.9041 128.19C39.4343 128.19 38.0919 128.349 38.0919 129.481C38.0919 130.231 38.5626 130.404 39.7475 130.7L41.2809 131.084C43.1799 131.556 43.8425 132.252 43.8425 133.49C43.8425 135.373 42.2919 136.506 40.2354 136.506C36.6282 136.506 36.3666 134.414 36.3141 133.315H37.795C37.8484 134.03 38.0566 135.181 40.2173 135.181C41.3153 135.181 42.3091 134.745 42.3091 133.734C42.3091 133.001 41.8032 132.758 40.4961 132.426L38.7192 131.99C37.4474 131.677 36.6101 131.032 36.6101 129.777C36.6101 127.771 38.2657 126.865 40.0607 126.865C43.3193 126.865 43.5456 129.271 43.5456 129.723H42.0648V129.724Z" fill="black"/>
<path fill-rule="evenodd" clip-rule="evenodd" d="M49.3152 126.866C52.2253 126.866 53.5496 129.323 53.5496 131.678C53.5496 134.03 52.2245 136.488 49.3152 136.488C46.405 136.488 45.0807 134.031 45.0807 131.678C45.0807 129.324 46.405 126.866 49.3152 126.866ZM49.3152 135.165C51.5103 135.165 51.9646 132.898 51.9646 131.678C51.9646 130.457 51.5111 128.19 49.3152 128.19C47.1192 128.19 46.6666 130.457 46.6666 131.678C46.6666 132.898 47.1201 135.165 49.3152 135.165Z" fill="black"/>
<path d="M60.9902 130.195C60.7983 128.975 60.1194 128.243 58.8295 128.243C56.9296 128.243 56.3204 130.055 56.3204 131.677C56.3204 133.246 56.7041 135.18 58.8123 135.18C59.8406 135.18 60.7295 134.413 60.9902 133.019H62.472C62.3154 134.466 61.4265 136.505 58.7607 136.505C56.199 136.505 54.6829 134.57 54.6829 131.938C54.6829 129.114 56.0424 126.864 59.0567 126.864C61.4445 126.864 62.3506 128.607 62.472 130.194H60.9902V130.195Z" fill="black"/>
<path d="M65.574 136.245H64.0406V127.128H65.574V136.245Z" fill="black"/>
<path d="M64.0406 125.47V123.728H65.574V125.47H64.0406Z" fill="black"/>
<path fill-rule="evenodd" clip-rule="evenodd" d="M67.8207 129.9C67.8913 127.721 69.3369 126.867 71.5845 126.867C72.3176 126.867 74.9662 127.076 74.9662 129.412V134.659C74.9662 135.043 75.1589 135.2 75.4713 135.2C75.6107 135.2 75.8026 135.165 75.9764 135.131V136.246L75.9681 136.248L75.9609 136.25L75.9546 136.252L75.9424 136.256L75.9331 136.258C75.9071 136.266 75.8813 136.273 75.8556 136.281L75.8285 136.289L75.7909 136.301L75.7903 136.301C75.5983 136.361 75.4039 136.421 75.14 136.421C73.7813 136.421 73.5713 135.723 73.5197 135.026C72.9268 135.671 72.0035 136.508 70.2249 136.508C68.553 136.508 67.3681 135.444 67.3681 133.876C67.3681 133.108 67.5936 131.33 70.138 131.016L72.6644 130.702C73.0309 130.669 73.4664 130.529 73.4664 129.621C73.4664 128.664 72.7702 128.14 71.3229 128.14C69.5804 128.14 69.336 129.202 69.2319 129.901H67.8207V129.9ZM73.4328 131.589C73.1893 131.782 72.8055 131.921 70.9055 132.165C70.1561 132.27 68.954 132.497 68.954 133.648C68.954 134.641 69.4599 135.233 70.6095 135.233C72.0388 135.233 73.4328 134.31 73.4328 133.09V131.589Z" fill="black"/>
<path d="M79.4433 128.399V134.326C79.4433 135.042 80.0525 135.042 80.3674 135.042H80.9078V136.244C80.6464 136.269 80.4119 136.297 80.2204 136.32C80.0028 136.346 79.8406 136.366 79.7573 136.366C78.2412 136.366 77.9107 135.513 77.9107 134.414V128.399H76.6734V127.127H77.9107V124.581H79.4441V127.127H80.9087V128.399H79.4433Z" fill="black"/>
<path d="M85.0966 136.245H83.5641V127.128H85.0966V136.245Z" fill="black"/>
<path d="M83.5641 125.47V123.728H85.0966V125.47H83.5641Z" fill="black"/>
<path fill-rule="evenodd" clip-rule="evenodd" d="M91.3885 126.866C94.2995 126.866 95.6238 129.323 95.6238 131.678C95.6238 134.03 94.2995 136.488 91.3885 136.488C88.4775 136.488 87.1532 134.031 87.1532 131.678C87.1532 129.324 88.4775 126.866 91.3885 126.866ZM91.3885 135.165C93.5836 135.165 94.0371 132.898 94.0371 131.678C94.0371 130.457 93.5836 128.19 91.3885 128.19C89.1934 128.19 88.7399 130.457 88.7399 131.678C88.7399 132.898 89.1934 135.165 91.3885 135.165Z" fill="black"/>
<path d="M105.21 136.245H103.678V130.632C103.678 129.046 103.224 128.245 101.725 128.245C100.854 128.245 99.3196 128.801 99.3196 131.278V136.245H97.787V127.128H99.2344V128.418H99.2679C99.5992 127.93 100.455 126.866 102.021 126.866C103.434 126.866 105.21 127.441 105.21 130.04V136.245Z" fill="black"/>
<path fill-rule="evenodd" clip-rule="evenodd" d="M26.8273 75.9771V77.0458H32.4755V75.9763H31.0161L25.3955 65.9189H18.7749V66.9885H22.6393L17.6941 75.9771H16.0179V77.0467H21.747V75.9771H19.2878L20.4503 73.7588H28.2592L29.475 75.9771H26.8273ZM21.0449 72.6884L24.2605 66.6779L27.6654 72.6884H21.0449Z" fill="black"/>
<path d="M41.5812 77.2997C36.636 77.2997 34.1776 74.4782 34.1776 71.2694C34.1776 68.293 36.9879 65.6857 41.2301 65.6857C42.6628 65.6857 43.9862 65.9775 45.1212 66.5032L45.9318 66.8732V65.6866H47.3911V69.8307H45.9318V68.2543C44.6337 67.2692 43.0489 66.7361 41.4194 66.7364C39.3929 66.7364 35.6911 67.7681 35.6911 71.3667C35.6911 74.4403 38.3122 76.2301 41.7171 76.2301C43.5551 76.2301 45.3647 75.7052 46.7965 74.9454L47.4453 75.8592C45.7967 76.7352 43.716 77.2997 41.5812 77.2997Z" fill="black"/>
<path d="M50.3899 71.2694C50.3899 74.4782 52.8492 77.2997 57.7944 77.2997C59.9284 77.2997 62.009 76.7352 63.656 75.8592L63.008 74.9454C61.5762 75.7052 59.7657 76.2301 57.9286 76.2301C54.5237 76.2301 51.9026 74.4403 51.9026 71.3667C51.9026 67.7681 55.6045 66.7364 57.6309 66.7364C59.2607 66.7361 60.8457 67.2692 62.1441 68.2543V69.8307H63.6026V65.6866H62.1441V66.8732L61.3335 66.5032C60.1986 65.9775 58.8751 65.6857 57.4433 65.6857C53.2003 65.6857 50.3899 68.293 50.3899 71.2694Z" fill="black"/>
<path d="M66.3596 77.0467V75.9771H68.4936V66.9885H66.3046V65.9189H79.2488V69.6345H77.7627V66.9885H69.9539V70.9571H74.2769V69.5175H75.763V73.4473H74.2769V72.0275H69.9539V75.9771H77.9245V73.3303H79.4106V77.0467H66.3596Z" fill="black"/>
<path fill-rule="evenodd" clip-rule="evenodd" d="M90.4093 73.0773C92.1655 73.0773 93.9751 72.8054 95.0559 71.7152C95.638 71.1309 95.9684 70.3422 95.9766 69.5175C95.9766 67.8249 94.6248 65.9189 90.5177 65.9189H83.2758V66.9885H85.3832V75.9763H83.2758V77.0458H91.003V75.9763H86.8701V73.0773H90.4093ZM90.4093 66.9885C91.8678 66.9885 93.2463 67.2604 94.056 68.2139C94.3537 68.5641 94.4879 69.07 94.4888 69.5175C94.4848 70.0237 94.3033 70.5124 93.976 70.8986C93.1387 71.9105 91.4633 72.0077 89.9222 72.0077H86.8701V66.9885H90.4093Z" fill="black"/>
<path d="M110.945 69.829V66.9885H106.215V75.9771H109.54V77.0467H101.405V75.9771H104.729V66.9885H100V69.829H98.515V65.9189H112.43V69.829H110.945Z" fill="black"/>
<path d="M114.997 75.9771V77.0467H128.049V73.3303H126.562V75.9771H118.592V72.0275H122.914V73.4473H124.402V69.5175H122.914V70.9571H118.592V66.9885H126.4V69.6345H127.887V65.9189H114.942V66.9885H117.132V75.9771H114.997Z" fill="black"/>
<path fill-rule="evenodd" clip-rule="evenodd" d="M139.776 76.8712C138.695 77.0071 137.561 77.0467 136.371 77.0467H130.59V75.9771H132.697V66.9885H130.59V65.9189H137.127C138.101 65.9189 138.993 65.9379 139.803 66.0549C142.64 66.5023 144.747 68.0392 144.747 71.2298C144.747 74.7897 142.64 76.502 139.776 76.8712ZM141.64 67.8834C140.289 67.047 139.208 66.9877 136.831 66.9877H134.156V75.9763H137.127C139.127 75.9763 141.155 75.7044 142.181 74.4773C142.911 73.6022 143.262 72.493 143.262 71.3847C143.261 69.693 142.505 68.4281 141.64 67.8834Z" fill="black"/>
<path fill-rule="evenodd" clip-rule="evenodd" d="M22.5998 4.75366C12.3274 4.75366 4 13.0848 4 23.3603V128.64C4 138.915 12.3274 147.246 22.5998 147.246H137.399C147.671 147.246 156 138.916 156 128.64V23.3603C156 13.0848 147.671 4.75366 137.399 4.75366H22.5998ZM4.77185 23.3603C4.77185 13.5108 12.754 5.52552 22.5998 5.52552H137.399C147.244 5.52552 155.228 13.5109 155.228 23.3603V128.64C155.228 138.49 147.244 146.474 137.399 146.474H22.5998C12.754 146.474 4.77185 138.489 4.77185 128.64V23.3603Z" fill="black"/>
</svg>
