<svg width="160" height="104" viewBox="0 0 160 104" fill="none" xmlns="http://www.w3.org/2000/svg">
<path fill-rule="evenodd" clip-rule="evenodd" d="M151.594 46.3235C151.594 49.1283 149.456 51.533 146.652 51.533C144.247 51.533 142.111 49.3957 142.111 46.992C142.111 46.5909 142.244 46.0571 142.378 45.6569H142.111C137.437 49.1292 135.165 61.8182 133.829 66.2273H124.48L130.623 45.2558L126.883 45.1221L127.951 42.3173H140.64L139.439 46.4581C141.041 43.9198 143.713 41.7835 146.918 41.7835C149.456 41.7825 151.594 43.7861 151.594 46.3235ZM156 51.9331C156 18.9411 105.914 7.05344 79.8672 7.05344C54.3556 7.05344 4 18.8075 4 51.6658C4 69.9652 20.8289 82.3859 36.1898 88.664H36.3235L50.8824 38.5766C53.9546 27.8913 58.6292 16.8048 71.5856 16.8048C76.1266 16.8048 82.1373 18.8084 82.1373 24.418C82.1373 27.4902 79.8672 30.4278 76.6613 30.4278C73.9902 30.4278 71.7193 28.2914 71.7193 25.6203C71.7193 22.4144 74.123 20.8119 77.0615 20.6782C76.1266 18.9411 73.9902 18.2736 72.1194 18.2736C63.3048 18.2736 61.3013 36.3057 59.4305 42.3164H75.5918L68.6471 66.2255H59.2977L65.4412 45.254H58.6302L49.2799 76.91C47.8111 81.9857 45.9412 86.6604 45.0053 91.8708C56.0918 95.2095 67.9795 96.9466 79.5998 96.9466C105.513 96.9466 156 85.5936 156 51.9331ZM124.212 50.3307C124.212 51.9331 123.946 53.6702 123.411 55.139H106.982C106.315 57.1426 105.513 59.5463 105.513 61.6827C105.513 63.5535 106.581 64.3547 108.184 64.3547C111.256 64.3547 112.324 59.9474 113.125 57.6765H122.743C120.873 63.6881 114.461 67.4278 108.45 67.4278C102.04 67.4278 97.2309 64.221 97.2309 57.41C97.2309 48.4608 104.311 41.1141 113.393 41.1141C119.004 41.1141 124.212 43.7861 124.212 50.3307ZM100.037 42.3164L85.4769 63.4198L94.0259 63.5535L93.2246 66.2255H72.5214L86.9466 45.1212H78.5312L79.3325 42.3164H100.037ZM47.8102 39.6453C47.8102 51.7995 38.9947 55.139 28.443 55.139H25.9055L22.4332 66.2255H13.0829L22.4332 33.5009V33.3672H18.426L19.0936 30.5633H36.4572C42.6016 30.5633 47.8102 32.5659 47.8102 39.6453ZM115.797 46.5909C115.797 45.1221 114.729 44.0535 113.259 44.0535C109.788 44.0535 108.585 49.6631 107.917 52.3351H114.595C114.996 50.3307 115.797 48.4608 115.797 46.5909ZM38.0597 37.1069C38.0597 34.4358 36.5909 33.3672 33.9189 33.3672H32.3164L26.7068 52.3342H28.5767C35.2549 52.4679 38.0597 42.7175 38.0597 37.1069Z" fill="#4484BF"/>
</svg>
