<svg width="176" height="48" viewBox="0 0 176 48" fill="none" xmlns="http://www.w3.org/2000/svg">
<path d="M25.7905 4C20.76 4.08147 16.0553 5.30346 12.5522 7.46232C9.08989 9.58045 7.1958 12.3707 7.1958 15.3035C7.1958 17.1568 7.96973 18.9898 9.45649 20.6191C12.9799 17.1772 19.0492 15.0591 25.7905 14.9572C25.9738 14.9572 25.9738 14.7739 25.9738 14.7739V4.1833C25.9738 4.16293 25.9534 4 25.7905 4Z" fill="#4E8ABE"/>
<path d="M7.1958 18.5214V26.9532C7.1958 33.1039 15.5868 38.1344 25.9738 38.2566V33.2464C25.9738 32.7576 26.3404 32.3707 26.8496 32.3299H26.8699C32.8374 32.2485 38.5196 30.7617 42.8781 28.1548C43.7946 27.6049 44.6703 26.9939 45.4646 26.3422V18.7251C45.4646 18.664 45.4646 18.6232 45.4443 18.5621C43.0614 23.7352 35.2406 27.3198 26.32 27.3198C17.2162 27.3198 9.53796 23.5927 7.1958 18.5214Z" fill="#4E8ABE"/>
<path d="M26.8902 33.0632C26.768 33.0835 26.6865 33.1446 26.6865 33.2465V43.8167C26.6865 43.9593 26.8087 44 26.8495 44H26.8698C32.8372 43.9186 38.5195 42.4318 42.878 39.8249C48.1733 36.668 51.2079 31.9634 51.2079 26.9532V19.6008C49.9656 23.2057 47.1957 26.4236 43.2446 28.7862C38.7843 31.4542 32.9798 32.9613 26.8902 33.0632Z" fill="#50B3CF"/>
<path d="M66.4218 30.4155C61.0246 30.4155 56.9717 26.1385 56.9717 20.4358V20.3747C56.9717 14.7536 61.1672 10.3544 66.5033 10.3544C69.823 10.3544 71.7578 11.6171 73.2039 12.8595C73.5705 13.1853 73.7741 13.613 73.7741 14.0407C73.7741 14.835 73.102 15.5071 72.3077 15.5071C72.0022 15.5071 71.6967 15.4053 71.3912 15.1813L71.3505 15.1405C69.8434 13.7556 68.3362 13.1446 66.4829 13.1446C62.7762 13.1446 59.9656 16.22 59.9656 20.2933V20.3544C59.9656 24.387 62.8373 27.5641 66.4829 27.5641C68.4381 27.5641 69.9452 26.9328 71.5134 25.4257C71.7578 25.1609 72.1041 25.0183 72.4503 25.0183C73.2039 25.0183 73.876 25.6904 73.876 26.4644C73.876 26.8717 73.6927 27.279 73.3872 27.5438C71.269 29.5601 69.1916 30.4155 66.4218 30.4155Z" fill="#5C6670"/>
<path d="M84.9758 30.4155C79.5175 30.4155 75.3831 26.1385 75.3831 20.4358V20.3747C75.3831 14.7536 79.6193 10.3544 85.0165 10.3544C90.4747 10.3544 94.6092 14.6314 94.6092 20.334V20.3951C94.6092 26.0163 90.3729 30.4155 84.9758 30.4155ZM84.9758 13.1853C81.2079 13.1853 78.377 16.2607 78.377 20.334V20.3951C78.377 24.5092 81.2283 27.6049 85.0165 27.6049C88.7843 27.6049 91.6153 24.5295 91.6153 20.4562V20.3951C91.6153 16.2811 88.7639 13.1853 84.9758 13.1853Z" fill="#5C6670"/>
<path d="M112.145 30.2322C111.778 30.2322 111.269 30.11 110.821 29.499L105.75 22.9002H101.086V28.725C101.086 29.5601 100.414 30.2322 99.5786 30.2322C98.7843 30.2322 98.1122 29.5397 98.1122 28.725V12.1874C98.1122 11.3727 98.7843 10.6802 99.5786 10.6802H106.524C108.845 10.6802 110.821 11.3931 112.104 12.6558C113.102 13.6538 113.672 15.0794 113.672 16.6273V16.6884C113.672 19.5193 112.002 21.5356 109.049 22.3299L113.224 27.7067C113.408 27.9104 113.652 28.2566 113.652 28.7454C113.652 29.5397 112.939 30.2322 112.145 30.2322ZM101.065 20.1507H106.32C108.947 20.1507 110.638 18.8269 110.638 16.7699V16.7088C110.638 14.6721 109.069 13.4908 106.34 13.4908H101.065V20.1507Z" fill="#5C6670"/>
<path d="M124.507 30.3136H124.406C123.652 30.3136 123.082 29.9063 122.776 29.1527L115.627 12.6762C115.526 12.4725 115.485 12.2892 115.485 12.0244C115.485 11.2301 116.177 10.558 116.992 10.558C117.644 10.558 118.214 10.9654 118.479 11.6171L124.487 25.9959L130.515 11.556C130.76 11.0468 131.269 10.5377 131.962 10.5377C132.776 10.5377 133.428 11.1894 133.428 11.9837C133.428 12.1874 133.387 12.391 133.326 12.5743L126.137 29.1731C125.709 30.11 125.016 30.3136 124.507 30.3136Z" fill="#5C6670"/>
<path d="M150.129 30.11H138.479C137.685 30.11 137.012 29.4175 137.012 28.6028V12.1874C137.012 11.3727 137.685 10.6802 138.479 10.6802H149.986C150.76 10.6802 151.371 11.3116 151.371 12.0652C151.371 12.8391 150.74 13.4501 149.986 13.4501H139.986V18.888H148.805C149.558 18.888 150.19 19.5193 150.19 20.2729C150.19 21.0468 149.558 21.6578 148.805 21.6578H139.986V27.2586H150.129C150.902 27.2586 151.513 27.89 151.513 28.6436C151.513 29.3971 150.902 30.11 150.129 30.11Z" fill="#5C6670"/>
<path d="M167.42 30.11H156.748C155.953 30.11 155.281 29.4175 155.281 28.6028V12.0652C155.281 11.2505 155.953 10.558 156.748 10.558C157.583 10.558 158.255 11.2301 158.255 12.0652V27.2994H167.42C168.194 27.2994 168.805 27.9307 168.805 28.725C168.805 29.4786 168.194 30.11 167.42 30.11Z" fill="#5C6670"/>
</svg>
