<svg width="232" height="48" viewBox="0 0 232 48" fill="none" xmlns="http://www.w3.org/2000/svg">
<path d="M137.979 11.1997C134.831 11.1997 132.446 12.327 130.872 14.5815C129.489 12.327 127.295 11.1997 124.385 11.1997C121.38 11.1997 119.186 12.233 117.755 14.3467V11.8573H111.602V35.3421H117.755V22.1436C117.755 18.7149 119.52 16.8361 122.239 16.8361C124.767 16.8361 126.245 18.48 126.245 21.2982V35.3421H132.398V22.1436C132.398 18.7149 134.02 16.8361 136.834 16.8361C139.362 16.8361 140.841 18.48 140.841 21.2982V35.3421H146.994V20.8754C146.994 15.0043 143.464 11.1997 137.979 11.1997Z" fill="black"/>
<path d="M169.868 14.6285C168.008 12.327 165.432 11.1997 162.093 11.1997C158.898 11.1997 156.179 12.4209 153.889 14.8164C151.648 17.2118 150.503 20.124 150.503 23.5997C150.503 27.0754 151.648 30.0346 153.889 32.4301C156.179 34.8254 158.898 35.9997 162.093 35.9997C165.432 35.9997 168.008 34.8724 169.868 32.5709V35.3421H176.022V11.8573H169.868V14.6285ZM158.516 28.3906C157.276 27.1224 156.656 25.5254 156.656 23.5997C156.656 21.6739 157.276 20.077 158.516 18.8558C159.756 17.5876 161.33 16.977 163.238 16.977C165.146 16.977 166.72 17.5876 167.96 18.8558C169.248 20.077 169.868 21.6739 169.868 23.5997C169.868 25.5254 169.248 27.1224 167.96 28.3906C166.72 29.6119 165.146 30.2224 163.238 30.2224C161.33 30.2224 159.756 29.6119 158.516 28.3906Z" fill="black"/>
<path d="M198.725 15.8967V11.8573H180.838V17.5406H190.425L180.36 31.3027V35.3421H199.201V29.6587H188.612L198.725 15.8967Z" fill="black"/>
<path d="M224.928 26.0891C225.071 25.1967 225.166 24.3982 225.166 23.5997C225.166 20.077 224.023 17.1649 221.733 14.7694C219.491 12.3739 216.581 11.1997 213.1 11.1997C209.426 11.1997 206.375 12.3739 204.036 14.7694C201.7 17.1179 200.507 20.077 200.507 23.5997C200.507 27.1694 201.7 30.1286 204.085 32.4769C206.47 34.8254 209.618 35.9997 213.576 35.9997C218.155 35.9997 221.638 34.3087 223.975 30.9739L219.015 28.1557C217.821 29.7057 216.01 30.5042 213.671 30.5042C210 30.5042 207.758 29.0482 206.947 26.0891H224.928ZM206.852 21.3921C207.566 18.3861 209.808 16.6482 213.1 16.6482C215.913 16.6482 218.298 18.1982 219.015 21.3921H206.852Z" fill="black"/>
<path fill-rule="evenodd" clip-rule="evenodd" d="M10.5856 39.1573C5.58272 34.1968 5.58279 26.1543 10.5858 21.1938L24.1742 7.72089C28.4035 3.52753 34.8541 2.879 39.7705 5.7753C41.2913 6.67115 41.278 8.72622 40.0271 9.96635C38.7765 11.2065 36.7347 11.0998 35.037 10.6074C32.863 9.97698 30.4181 10.5118 28.7037 12.2118L15.1152 25.6846C12.6137 28.165 12.6137 32.1861 15.1151 34.6665C17.6167 37.1468 21.6725 37.1468 24.174 34.6665L51.3505 7.72105C56.3536 2.76056 64.465 2.76054 69.4681 7.721L83.0566 21.1938C88.0596 26.1541 88.0596 34.1968 83.0566 39.1573C78.0536 44.1178 69.9421 44.1178 64.939 39.1573L60.4096 34.6665L54.7478 40.2801C50.5185 44.4735 44.0678 45.122 39.1513 42.2256C37.6306 41.3298 37.644 39.2748 38.8948 38.0346C40.1455 36.7945 42.1871 36.9011 43.885 37.3935C46.059 38.024 48.5038 37.4891 50.2183 35.7891L56.042 30.0151C58.4541 27.6235 62.365 27.6235 64.7773 30.0151L69.4685 34.6665C71.97 37.1466 76.0256 37.1466 78.5271 34.6665C81.0286 32.1861 81.0286 28.165 78.5271 25.6846L64.9386 12.212C62.4371 9.73172 58.3815 9.73173 55.88 12.212L28.7035 39.1575C23.7003 44.118 15.5887 44.118 10.5856 39.1573Z" fill="#0568FD"/>
</svg>
