<svg width="160" height="88" viewBox="0 0 160 88" fill="none" xmlns="http://www.w3.org/2000/svg">
<path d="M117.293 50.7474L138.305 64.7215L129.066 42.6922L148.467 26.5358H124.704L117.3 5.93604L110.486 26.5358H106.809L99.406 5.93604L92.5307 26.5358H89.1598L81.7564 5.93604L75.0146 26.195L78.7601 28.0677L81.9474 16.0012L85.9263 30.4572H101.865L87.6754 40.8707L94.3659 54.75L81.7564 46.1455V50.7474L102.768 64.7215L93.5295 42.6922L108.223 30.4572H119.514L105.319 40.8707L112.008 54.7487L99.406 46.1455L99.3935 50.7486L120.405 64.7227L111.167 42.6935L125.86 30.4585H137.407L123.218 40.8707L129.907 54.7487L117.305 46.1443L117.293 50.7474ZM96.8179 26.5358L99.5995 16.0037L102.495 26.5358H96.8179ZM114.717 26.5358L117.499 16.0037L120.394 26.5358H114.717Z" fill="#023F88"/>
<path d="M75.5773 24.1175C72.1203 22.7054 67.2263 21.2909 61.4346 21.2897C56.0549 21.2897 49.9 22.5269 43.5353 26.0913C36.3741 30.0976 30.7135 31.4472 26.3239 31.4472C23.5773 31.4472 21.3225 30.9254 19.4423 30.1576C17.1145 29.2014 15.0395 27.7195 13.3798 25.8279C12.8741 25.256 12.4126 24.6467 11.9989 24.0051C11.8541 23.7779 11.7493 23.5993 11.6868 23.4845C11.6556 23.4271 11.6331 23.3859 11.6207 23.3596L11.6132 23.3434L11.517 23.3908L10.0938 27.7468C10.8014 28.6114 11.5789 29.4165 12.4184 30.1538C14.0802 31.6135 15.9734 32.7865 18.0203 33.6246C20.33 34.5709 23.0966 35.1939 26.3127 35.1939H26.3239C31.4951 35.1939 37.7911 33.6008 45.3643 29.361C51.1585 26.1225 56.6205 25.0388 61.4346 25.0363C66.6095 25.0363 71.0378 26.3085 74.1603 27.5857C75.4026 28.0918 76.6118 28.6756 77.7808 29.3336C77.9893 29.4522 78.1741 29.5595 78.3314 29.6544L79.3302 25.909C78.1146 25.2403 76.8616 24.6421 75.5773 24.1175Z" fill="#C4122F"/>
<path d="M72.4661 36.7744C69.0091 35.3624 64.1151 33.9479 58.3234 33.9467C52.9438 33.9467 46.7888 35.1826 40.4241 38.7483C33.2629 42.7546 27.6023 44.1042 23.2127 44.1042C20.4723 44.1042 18.2113 43.5823 16.3311 42.8145C14.0032 41.8585 11.9282 40.3766 10.2686 38.4848C9.7626 37.9138 9.3006 37.3053 8.88651 36.6646C8.74169 36.4374 8.63682 36.2588 8.57439 36.144C8.54193 36.0865 8.52071 36.0453 8.50822 36.0191L8.49699 35.9966L8.40585 36.0428V36.0503L6.98759 40.4012C7.69523 41.2659 8.47273 42.071 9.31224 42.8083C10.9731 44.2671 12.8649 45.4396 14.9104 46.2778C17.22 47.2241 19.9867 47.8471 23.2027 47.8471H23.2102C28.3814 47.8471 34.6762 46.2541 42.2506 42.0143C48.0448 38.7757 53.5068 37.6921 58.3209 37.6896C63.4971 37.6896 67.9242 38.9618 71.0478 40.2389C72.2901 40.7451 73.4994 41.3289 74.6684 41.9868C74.8769 42.1054 75.0604 42.2128 75.2177 42.3077L76.2165 38.5623C75.0016 37.8949 73.7495 37.298 72.4661 36.7744Z" fill="#C4122F"/>
<path d="M69.481 49.2604C66.024 47.8496 61.13 46.4339 55.3383 46.4339C49.9587 46.4339 43.8037 47.6698 37.439 51.2355C30.2778 55.2418 24.6185 56.5914 20.2276 56.5914C17.4872 56.5914 15.2262 56.0695 13.346 55.3017C11.0182 54.3456 8.94321 52.8637 7.28348 50.972C6.77755 50.4001 6.31555 49.7908 5.90142 49.1493C5.7566 48.9221 5.65173 48.7435 5.5893 48.6287C5.55684 48.5712 5.53562 48.53 5.52313 48.5038L5.5119 48.4826L5.42076 48.5288V48.5363L4 52.8947C4.70769 53.7593 5.48518 54.5644 6.32465 55.3017C7.98725 56.7578 9.88035 57.9273 11.9265 58.7625C14.235 59.7088 17.0016 60.3318 20.2164 60.3318H20.2264C25.3963 60.3318 31.6936 58.7388 39.2668 54.499C45.0609 51.2592 50.523 50.1768 55.3371 50.1743C60.512 50.1743 64.9403 51.4465 68.0627 52.7236C69.3051 53.2298 70.5143 53.8135 71.6833 54.4715C71.8918 54.5901 72.0753 54.6975 72.2326 54.7924L73.2314 51.047C72.0165 50.3801 70.7643 49.7836 69.481 49.2604Z" fill="#C4122F"/>
<path d="M9.69312 82.0503H7.10879V74.2985H4.97266V72.11H11.8293V74.2985H9.69312V82.0503Z" fill="#C4122F"/>
<path d="M37.1507 81.9254H33.9397L31.4952 78.1014H31.4689V81.9254H28.8846V71.9839H32.7474C34.7112 71.9839 36.2019 72.9202 36.2019 75.0426C36.2019 76.4159 35.4378 77.6007 34.0258 77.8504L37.1507 81.9254ZM31.4677 76.4409H31.7174C32.5613 76.4409 33.5102 76.2823 33.5102 75.2012C33.5102 74.12 32.5613 73.9614 31.7174 73.9614H31.4677V76.4409Z" fill="#C4122F"/>
<path d="M54.4732 71.9851H51.8889V81.9267H54.4732V71.9851Z" fill="#C4122F"/>
<path d="M77.6636 75.1949C77.3971 74.8484 77.0533 74.5689 76.6597 74.3788C76.266 74.1887 75.8334 74.0933 75.3963 74.1C73.8145 74.1 72.7458 75.3135 72.7458 76.8554C72.7458 78.4247 73.827 79.5583 75.435 79.5583C75.8604 79.5522 76.2794 79.4548 76.6638 79.2728C77.0483 79.0908 77.3892 78.8284 77.6636 78.5034V81.6021C76.8059 81.8655 76.1866 82.064 75.3826 82.064C73.9996 82.0597 72.6683 81.5377 71.6509 80.6008C70.5573 79.612 70.0554 78.3198 70.0554 76.8429C70.0496 75.4854 70.5747 74.1793 71.5186 73.2036C72.5178 72.1884 73.8783 71.6102 75.3027 71.5956C76.1148 71.6023 76.9172 71.7722 77.6623 72.095L77.6636 75.1949Z" fill="#C4122F"/>
<path d="M96.8076 80.3236L96.1222 82.0503H93.3756L97.1984 72.1087H100.02L103.765 82.0503H101.014L100.367 80.3236H96.8076ZM98.6104 75.1812H98.5842L97.5167 78.3448H99.6654L98.6104 75.1812Z" fill="#C4122F"/>
<path d="M127.26 81.9254H124.043L121.603 78.1014H121.582V81.9254H118.998V71.9839H122.861C124.825 71.9839 126.315 72.9202 126.315 75.0426C126.315 76.4159 125.551 77.6007 124.14 77.8504L127.26 81.9254ZM121.582 76.4409H121.832C122.676 76.4409 123.625 76.2823 123.625 75.2012C123.625 74.12 122.676 73.9614 121.832 73.9614H121.582V76.4409Z" fill="#C4122F"/>
<path d="M145.479 74.1737V75.8354H148.393V78.0227H145.479V79.7369H148.55V81.9254H142.895V71.9851H148.55V74.1737H145.479Z" fill="#C4122F"/>
<path d="M153.471 71.8715C153.908 71.8737 154.337 71.9862 154.719 72.1986C155.119 72.4116 155.447 72.7366 155.664 73.1337C155.884 73.5182 156 73.9535 156 74.3965C156 74.8395 155.884 75.2749 155.664 75.6594C155.449 76.055 155.124 76.3804 154.729 76.597C154.346 76.8157 153.912 76.9307 153.47 76.9307C153.028 76.9307 152.595 76.8157 152.211 76.597C151.815 76.3803 151.49 76.055 151.273 75.6594C151.052 75.2752 150.936 74.8398 150.936 74.3965C150.936 73.9533 151.052 73.5178 151.273 73.1337C151.492 72.7366 151.821 72.4117 152.221 72.1986C152.603 71.9862 153.032 71.8737 153.469 71.8715H153.471ZM153.469 72.291C153.106 72.2931 152.749 72.3871 152.432 72.5644C152.099 72.7431 151.824 73.0146 151.642 73.3459C151.457 73.666 151.359 74.0293 151.359 74.399C151.359 74.7688 151.457 75.132 151.642 75.4521C151.821 75.7835 152.091 76.0572 152.419 76.2411C152.739 76.4245 153.101 76.521 153.469 76.521C153.837 76.521 154.199 76.4245 154.518 76.2411C154.848 76.0603 155.119 75.7891 155.3 75.4596C155.484 75.1392 155.581 74.7761 155.581 74.4065C155.581 74.037 155.484 73.6739 155.3 73.3534C155.118 73.0218 154.844 72.7502 154.511 72.5719C154.194 72.395 153.837 72.301 153.474 72.2985L153.469 72.291ZM152.365 75.8092V73.0825H153.293C153.527 73.0718 153.761 73.0971 153.988 73.1574C154.127 73.2052 154.248 73.2978 154.33 73.4208C154.411 73.5381 154.455 73.6776 154.454 73.8204C154.455 73.9168 154.437 74.0124 154.4 74.1015C154.363 74.1907 154.309 74.2717 154.241 74.3397C154.091 74.4917 153.889 74.581 153.675 74.5894C153.761 74.6232 153.839 74.6722 153.906 74.7342C154.059 74.899 154.194 75.0798 154.308 75.2736L154.64 75.8067H154.104L153.863 75.3772C153.673 75.0401 153.52 74.8287 153.403 74.743C153.299 74.6738 153.176 74.6409 153.051 74.6493H152.794V75.8067L152.365 75.8092ZM152.804 74.2773H153.337C153.592 74.2773 153.766 74.2394 153.859 74.1637C153.933 74.1016 153.981 74.0142 153.995 73.9185C154.008 73.8228 153.985 73.7256 153.931 73.6456C153.885 73.5807 153.82 73.5311 153.745 73.5032C153.602 73.4637 153.453 73.4476 153.305 73.4558H152.805L152.804 74.2773Z" fill="#C4122F"/>
</svg>
