<svg width="160" height="112" viewBox="0 0 160 112" fill="none" xmlns="http://www.w3.org/2000/svg">
<path d="M38.4853 8.23654L38.2889 34.452C38.2889 45.3475 31.8177 49.5755 23.1034 49.5755C15.5985 49.5755 6.06746 46.2469 6.06746 34.8965V8.23654C6.03742 7.6077 5.8263 7.00094 5.45951 6.48927C5.09272 5.97759 4.58589 5.58281 4 5.35243H16.3014C15.7311 5.59307 15.2424 5.99322 14.894 6.50483C14.5456 7.01644 14.3523 7.61775 14.3373 8.23654V35.1136C14.3373 39.6 15.8776 45.9471 24.2095 45.9471C31.8384 45.9471 34.5468 40.9438 34.5468 34.576L34.4434 8.23654C34.4633 7.64073 34.3111 7.05182 34.0049 6.54031C33.6987 6.02881 33.2516 5.61638 32.7171 5.35243H40.1806C39.6519 5.62079 39.2112 6.03511 38.9107 6.54628C38.6102 7.05744 38.4626 7.64404 38.4853 8.23654Z" fill="#004785"/>
<path d="M55.8417 49.5755C51.5544 49.5236 47.3398 48.4611 43.5403 46.4743L43.2198 35.6408C44.4396 40.1892 48.2851 46.2159 54.9527 46.2159C61.2895 46.2159 63.2225 41.6674 63.2225 38.5249C63.2225 32.3225 57.6507 31.5369 51.8515 28.3943C46.0522 25.2518 43.3852 21.6647 43.3852 16.7958C43.3439 8.14351 51.4897 4.64949 57.3199 4.64949C60.6903 4.63484 64.0127 5.4477 66.9957 7.01674L67.3161 16.5064C66.4168 13.1054 62.7677 7.97811 56.617 7.97811C51.7378 7.97811 49.815 11.3791 49.815 14.1805C49.815 18.088 52.5751 19.5559 58.6017 22.316C64.6284 25.076 70.7791 27.2055 70.7791 36.1163C70.7791 44.1277 63.7291 49.5755 55.8417 49.5755Z" fill="#004785"/>
<path d="M91.4744 48.9346H75.0071C75.5237 48.6543 75.9526 48.2365 76.2463 47.7274C76.5401 47.2184 76.6872 46.638 76.6714 46.0505V8.23654C76.6969 7.64731 76.5539 7.063 76.2592 6.55216C75.9644 6.04133 75.53 5.62514 75.0071 5.35243H92.0533C113.141 5.35243 117.369 20.2899 117.369 26.5026C117.369 37.6566 108.779 48.9346 91.4744 48.9346ZM90.7095 8.557C89.1692 8.557 85.7682 8.557 84.8069 8.69138V45.606H89.9755C104.448 45.606 108.5 35.8579 108.5 26.5026C108.459 18.8116 103.972 8.557 90.7095 8.557Z" fill="#004785"/>
<path d="M142.282 48.9346C143.957 48.0352 144.277 47.1462 143.823 45.8334C143.637 45.1925 141.962 41.285 140.174 36.933H124.471C123.124 39.8155 121.927 42.7656 120.884 45.7714C120.305 47.3116 120.626 48.211 122.352 48.9759H113.514C114.794 48.2537 115.839 47.1767 116.522 45.8747C117.711 43.3628 134.591 4.00858 134.591 4.00858C134.591 4.00858 151.648 43.3628 152.795 45.792C153.09 46.4998 153.527 47.14 154.078 47.6732C154.629 48.2065 155.283 48.6216 156 48.8932L142.282 48.9346ZM132.183 17.8503C132.183 17.8503 127.82 28.7458 125.774 33.5526H138.695C135.687 26.4406 132.183 17.8503 132.183 17.8503Z" fill="#004785"/>
<path d="M154.077 55.0953C154.077 55.0953 60.8553 52.7797 5.57129 82.2101C5.57129 82.2101 64.1115 59.0648 154.077 61.3804V55.0953Z" fill="#005941"/>
<path d="M5.57129 55.0953C5.57129 55.0953 36.9967 55.4261 56.5033 62.7036C56.5033 62.7036 16.4875 59.3956 5.57129 61.0496V55.0953Z" fill="#005941"/>
<path d="M5.57129 65.3499C5.57129 65.3499 28.0653 64.3162 41.6279 65.6807C41.6279 65.6807 8.87923 69.6503 5.57129 71.3042V65.3499Z" fill="#005941"/>
<path d="M138.623 66.363H138.137C111.022 66.8902 54.1464 70.1671 5.59196 87.3167V107.991H154.098V66.363C154.098 66.363 148.33 66.1872 138.623 66.363Z" fill="#005941"/>
</svg>
