<svg width="160" height="136" viewBox="0 0 160 136" fill="none" xmlns="http://www.w3.org/2000/svg">
<path d="M10.5333 99.681H13.6563L11.9845 107.709C10.7123 113 17.1522 111.613 17.6719 108.267L19.5124 99.6802H22.5792L20.5156 109.495C19.3022 114.739 7.10922 115.24 8.67724 108.473L10.5333 99.681Z" fill="black"/>
<path d="M24.5866 113.174H21.6876L24.5313 99.681H28.5019L31.6025 109.326L33.6886 99.681H36.4933L33.6496 113.174H29.8961L26.4833 103.696L24.5866 113.174Z" fill="black"/>
<path d="M38.4177 99.681L35.5731 113.174H38.697L41.5399 99.681H38.4177Z" fill="black"/>
<path d="M42.8675 99.681L42.3658 101.971H46.5432L44.1786 113.174H47.3017L49.6662 101.971H53.7649L54.3781 99.681H42.8675Z" fill="black"/>
<path d="M63.2085 130.281L65.9942 116.805H69.2055L66.8331 128.052H72.8163L72.3753 130.281H63.2085Z" fill="black"/>
<path d="M55.5829 99.681L52.7392 113.174H62.6558L63.1574 110.804H56.3699L57.0981 107.355H63.0485L63.5138 105.262H57.5383L58.2372 101.932H65.0394L65.5964 99.681H55.5829Z" fill="black"/>
<path d="M100.351 113.174H103.418L109.304 102.859L110.5 110.841H106.394L104.967 113.174H113.915L111.803 99.681H108.178L100.351 113.174Z" fill="black"/>
<path fill-rule="evenodd" clip-rule="evenodd" d="M66.9828 99.681H72.5595C75.0382 99.681 76.8795 100.14 77.8456 101.462C79.7215 104.028 78.1128 109.192 75.7612 111.163C74.0064 112.636 71.6946 113.175 69.6587 113.175H64.1944L66.9828 99.681ZM69.6388 101.971L67.7326 110.853H69.9078C71.046 110.853 72.5015 110.483 73.6535 109.425C75.2752 107.933 75.9273 105.131 75.3582 103.582C74.8652 102.238 73.5299 101.972 72.4834 101.972H69.6388V101.971Z" fill="black"/>
<path d="M13.1452 116.793H6.78836L4 130.288H7.06685L9.44525 119.001C9.44525 119.001 11.6775 118.781 12.7612 119.276C13.4133 119.573 13.6927 120.858 13.0241 121.767C11.9888 123.174 11.3869 123.144 8.98687 122.994L9.15379 124.839C9.15379 124.839 9.79207 125.161 10.4468 125.165C17.5119 125.215 18.3708 116.793 13.1452 116.793Z" fill="black"/>
<path d="M112.197 116.791L114.295 130.285H117.788L125.525 116.791H122.412L116.77 127.137L115.219 116.791H112.197Z" fill="black"/>
<path d="M98.9736 130.281H102.04L104.448 119.048H106.795C109.944 119.048 108.741 122.922 104.996 122.922H104.271L106.557 130.282H110.027L107.967 124.474C112.857 123.446 113.65 116.788 107.852 116.788H101.761L98.9736 130.281Z" fill="black"/>
<path fill-rule="evenodd" clip-rule="evenodd" d="M30.607 124.712C32.0626 119.328 29.2353 116.55 25.2975 116.55C23.1137 116.55 18.4789 117.017 16.6479 122.648C14.708 128.618 19.63 130.567 22.2869 130.623C24.6783 130.672 29.3469 129.371 30.607 124.712ZM19.7494 122.87C21.0207 119.44 23.1561 118.696 25.1808 118.85C26.6424 118.962 28.6688 120.259 27.5955 124.098C26.5213 127.937 23.6517 128.364 22.2878 128.284C20.0841 128.157 18.5818 126.021 19.7494 122.87Z" fill="black"/>
<path d="M127.238 99.681L124.393 113.174H134.311L134.811 110.804H128.023L128.753 107.355H134.702L135.167 105.262H129.192L129.891 101.932H136.693L137.25 99.681H127.238Z" fill="black"/>
<path d="M114.05 101.971L114.552 99.681H126.062L125.451 101.971H121.351L118.986 113.174H115.863L118.227 101.971H114.05Z" fill="black"/>
<path d="M94.1398 99.681L93.6374 101.971H97.8138L95.4501 113.174H98.5723L100.937 101.971H105.036L105.65 99.681H94.1398Z" fill="black"/>
<path d="M88.6107 116.787L88.1091 119.105H83.7129C82.4364 119.105 82.0558 120.555 82.6439 121.024L86.2626 124.482C87.9266 126.072 87.7355 130.281 82.2539 130.281H76.9323L77.4339 127.962H82.4294C83.629 128.032 84.2673 126.608 83.5495 125.819L80.1297 122.865C77.5628 120.298 78.9336 116.787 84.5951 116.787H88.6107Z" fill="black"/>
<path d="M41.1455 119.105L41.6471 116.787H37.6324C31.9709 116.787 30.6001 120.298 33.167 122.865L36.5859 125.819C37.3046 126.608 36.6663 128.032 35.4667 127.962H30.4712L29.9687 130.281H35.2894C40.771 130.281 40.963 126.072 39.2981 124.482L35.6795 121.024C35.0922 120.555 35.4737 119.105 36.7493 119.105H41.1455Z" fill="black"/>
<path d="M93.1106 99.6957L92.609 102.015H88.2129C86.938 102.015 86.5558 103.463 87.1439 103.934L90.7625 107.391C92.4265 108.98 92.2354 113.19 86.7538 113.19H81.4331L81.9347 110.87H86.9294C88.129 110.941 88.7672 109.518 88.0477 108.728L84.6305 105.773C82.0627 103.206 83.4327 99.6957 89.095 99.6957H93.1106Z" fill="black"/>
<path d="M146.571 102.015L147.073 99.6957H143.057C137.397 99.6957 136.025 103.206 138.593 105.773L142.012 108.728C142.729 109.518 142.091 110.941 140.892 110.87H135.897L135.395 113.19H140.716C146.198 113.19 146.39 108.98 144.725 107.391L141.106 103.934C140.518 103.463 140.9 102.015 142.175 102.015H146.571Z" fill="black"/>
<path d="M42.122 119.079L42.6236 116.789H54.1351L53.521 119.079H49.4215L47.0578 130.283H43.9347L46.2993 119.079H42.122Z" fill="black"/>
<path d="M48.8524 130.278H51.9193L57.8039 119.963L59.0017 127.944H54.897L53.4682 130.278H62.4162L60.3051 116.784H56.6795L48.8524 130.278Z" fill="black"/>
<path d="M87.636 130.281L90.4788 116.787H100.492L99.9354 119.038H93.134L92.4334 122.368H98.4097L97.9436 124.461H91.9941L91.2659 127.911H98.0534L97.5518 130.281H87.636Z" fill="black"/>
<path d="M142.655 116.787L139.81 130.281H149.728L150.23 127.911H143.44L144.17 124.461H150.12L150.584 122.368H144.61L145.309 119.038H152.11L152.667 116.787H142.655Z" fill="black"/>
<path d="M151.434 128.332L151.491 128.066H153.29L153.235 128.332H152.485L152.069 130.283H151.77L152.184 128.332H151.434Z" fill="black"/>
<path d="M155.238 130.283H155.529L156 128.066H155.574L154.54 129.948L154.306 128.066H153.877L153.405 130.283H153.696L154.088 128.401L154.32 130.283H154.614L155.645 128.401V128.403L155.238 130.283Z" fill="black"/>
<path d="M128.933 123.367C130.497 116.959 136.497 115.646 141.205 117.017L140.836 119.289C137.593 118.421 135.071 118.816 133.793 120.403C131.434 123.333 131.913 125.941 132.542 126.836C133.169 127.73 134.284 128.286 135.799 128.286C137.022 128.286 138.367 128.197 139.253 127.793L138.603 130.212C137.875 130.574 136.304 130.566 135.382 130.561H135.381C135.284 130.56 135.194 130.56 135.113 130.56C128.451 130.449 128.474 125.253 128.933 123.367Z" fill="black"/>
<path d="M126.272 116.787L123.427 130.281H126.55L129.393 116.787H126.272Z" fill="black"/>
<path fill-rule="evenodd" clip-rule="evenodd" d="M7.22094 114.551L7.10938 115.428H153.054L153.181 114.551H7.22094Z" fill="#CA4256"/>
<path fill-rule="evenodd" clip-rule="evenodd" d="M97.9288 24.9014C88.0995 23.6214 35.0126 24.0824 27.2106 24.1576L13.127 89.5075C34.6874 78.6577 53.8799 69.2928 75.231 59.1055C102.376 46.1548 121.05 42.8354 124.924 42.6469C127.531 42.5206 126.053 41.385 124.814 41.1117C109.652 37.7681 72.8777 54.8191 72.8777 54.8191L64.843 30.4418L117.196 30.4911C114.308 26.2134 108.544 26.2843 97.9288 24.9014Z" fill="#284E80"/>
<path fill-rule="evenodd" clip-rule="evenodd" d="M35.1769 5.37598C59.1169 10.6301 83.0558 15.8891 106.994 21.153C118.504 23.6906 119.975 27.6344 119.975 27.6344C119.975 27.6344 132.571 26.1122 134.882 30.4963C137.845 36.1128 130.269 46.7844 130.269 46.7844L21.3822 89.5067H134.458L153.002 5.37598H35.1769Z" fill="#284E80"/>
<path fill-rule="evenodd" clip-rule="evenodd" d="M117.668 30.5732C117.668 30.5732 117.127 33.6046 105.937 34.543C104.911 34.6286 104.666 35.2842 106.02 35.3275C107.371 35.3707 126.075 34.7264 128.159 34.9305C130.243 35.1346 129.965 36.393 129.697 37.6116C129.428 38.8293 128.026 42.48 127.667 43.3371C127.309 44.195 127.993 44.1751 128.544 43.6155C129.093 43.0551 132.454 36.3039 132.551 34.7073C132.647 33.1108 132.076 31.4528 129.478 30.8803C126.879 30.3051 117.668 30.5732 117.668 30.5732Z" fill="#284E80"/>
</svg>
