<svg width="200" height="48" viewBox="0 0 200 48" fill="none" xmlns="http://www.w3.org/2000/svg">
<path d="M31.0606 31.7403C29.7012 32.5027 28.2017 32.9773 26.6479 33.1793C30.0833 31.9298 33.1494 29.3044 34.4502 26.3084C35.5482 23.7789 35.3617 21.2466 33.9155 18.9621L38.6692 15.8874C39.9987 17.7299 40.8895 19.9132 41.1824 22.2817H36.5358L36.5215 22.6274C36.3573 26.6215 34.4179 29.8576 31.0606 31.7403Z" fill="#EE3524"/>
<path d="M37.2176 23.003H41.2526C41.2761 23.3331 41.292 23.6647 41.292 24.0008C41.292 26.2492 40.7534 28.3719 39.804 30.2501L37.104 28.5253L36.9184 28.8537C34.7268 32.735 30.8304 35.0489 26.4898 35.0489H26.4532C24.0496 35.0417 21.7293 34.3314 19.6644 33.0329C21.3823 33.6866 23.1755 34.0162 24.9404 34.0162C27.2181 34.0162 29.4487 33.4694 31.4085 32.3705C34.8423 30.4449 36.9458 27.0441 37.2176 23.003Z" fill="#EE3524"/>
<path d="M26.4899 35.77H26.4513C22.1267 35.7571 18.0634 33.5995 15.1718 29.8852C17.369 34.5711 22.1031 37.8221 27.578 37.8221C32.6536 37.8221 37.0906 35.0268 39.4619 30.8853L37.3507 29.5367C34.9986 33.4489 30.968 35.77 26.4899 35.77Z" fill="#EE3524"/>
<path fill-rule="evenodd" clip-rule="evenodd" d="M7.73242 24.0005C7.73242 12.9548 16.6176 4.00049 27.578 4.00049C38.5384 4.00049 47.4235 12.9548 47.4235 24.0005C47.4235 35.0462 38.5384 44.0005 27.578 44.0005C16.6176 44.0005 7.73242 35.0462 7.73242 24.0005ZM13.1479 24.0005C13.1479 32.0321 19.6084 38.5429 27.578 38.5429C35.5476 38.5429 42.008 32.0321 42.008 24.0005C42.008 15.9693 35.5476 9.4585 27.578 9.4585C19.6084 9.4585 13.1479 15.9693 13.1479 24.0005Z" fill="#EE3524"/>
<path d="M68.8147 14.8791C69.78 15.2216 70.6258 15.7275 71.3521 16.3968L68.8262 19.0824C68.4864 18.6464 68.0422 18.2999 67.494 18.043C66.9454 17.7864 66.4167 17.6579 65.9068 17.6579C65.6438 17.6579 65.3777 17.6812 65.1076 17.7278C64.837 17.7744 64.5936 17.8643 64.3777 17.9964C64.161 18.1289 63.9797 18.2999 63.8331 18.5103C63.6861 18.7203 63.6127 18.9889 63.6127 19.3157C63.6127 19.596 63.6709 19.8296 63.7865 20.0163C63.9024 20.203 64.0721 20.3665 64.2964 20.5066C64.5203 20.6467 64.7864 20.7752 65.096 20.892C65.4048 21.0089 65.7522 21.1297 66.1386 21.2538C66.6948 21.4409 67.2741 21.6472 67.8764 21.8729C68.4788 22.0985 69.027 22.398 69.5214 22.7718C70.0159 23.1456 70.4254 23.609 70.7497 24.1614C71.074 24.7139 71.2362 25.4029 71.2362 26.228C71.2362 27.1775 71.0625 27.999 70.7151 28.6916C70.3672 29.3846 69.8999 29.9563 69.3131 30.408C68.7258 30.8597 68.0537 31.1941 67.2972 31.4122C66.5402 31.6298 65.7597 31.739 64.957 31.739C63.7825 31.739 62.6474 31.5322 61.5506 31.1203C60.4534 30.7079 59.5423 30.1201 58.8164 29.3569L61.4116 26.6949C61.8132 27.1932 62.3419 27.6095 62.9988 27.9444C63.6554 28.2792 64.308 28.4463 64.957 28.4463C65.2502 28.4463 65.5362 28.4154 65.8143 28.3527C66.092 28.2909 66.3354 28.1893 66.5442 28.0492C66.7526 27.9091 66.9183 27.7224 67.0422 27.4887C67.1657 27.2554 67.2274 26.9752 67.2274 26.6483C67.2274 26.3372 67.1502 26.0726 66.996 25.8542C66.8414 25.6366 66.6211 25.4378 66.3354 25.2587C66.0494 25.0801 65.6944 24.9167 65.2697 24.7685C64.8446 24.6208 64.3617 24.4614 63.8215 24.2895C63.296 24.1185 62.7825 23.9161 62.2805 23.6825C61.7785 23.4492 61.3303 23.1497 60.9367 22.7835C60.5427 22.4177 60.2259 21.9741 59.9865 21.4525C59.7467 20.931 59.6276 20.2966 59.6276 19.5494C59.6276 18.6308 59.8128 17.8446 60.1833 17.1906C60.5542 16.5369 61.0407 15.9997 61.6435 15.5793C62.2458 15.159 62.9251 14.8518 63.6825 14.6571C64.439 14.4628 65.2036 14.3652 65.9765 14.3652C66.9032 14.3652 67.8494 14.5366 68.8147 14.8791Z" fill="#231F20"/>
<path d="M80.1567 31.3186H76.1711V14.7856H80.1567V31.3186Z" fill="#231F20"/>
<path d="M97.7438 14.7856V18.1947H93.1096V31.3186H89.1475V18.1947H84.5129V14.7856H97.7438Z" fill="#231F20"/>
<path d="M113.547 27.9091V31.3186H102.1V14.7856H113.13V18.1482H105.923V21.2775H112.736V24.4766H105.923V27.9091H113.547Z" fill="#231F20"/>
<path d="M129.697 26.4147L132.454 29.0301C131.728 29.8708 130.832 30.5361 129.766 31.0267C128.701 31.517 127.472 31.7623 126.082 31.7623C124.816 31.7623 123.645 31.5519 122.572 31.1319C121.498 30.7115 120.567 30.1161 119.78 29.3452C118.992 28.5747 118.374 27.6525 117.926 26.5781C117.478 25.5041 117.253 24.3212 117.253 23.0288C117.253 21.7059 117.482 20.5066 117.938 19.4326C118.393 18.3585 119.022 17.4439 119.826 16.6887C120.629 15.9339 121.571 15.3541 122.653 14.949C123.734 14.5443 124.9 14.3419 126.151 14.3419C127.31 14.3419 128.449 14.5483 129.569 14.9606C130.69 15.3734 131.597 15.9764 132.292 16.7706L129.604 19.4791C129.233 18.9656 128.747 18.5842 128.145 18.3349C127.542 18.0863 126.924 17.9615 126.291 17.9615C125.596 17.9615 124.959 18.0899 124.379 18.3465C123.8 18.6035 123.302 18.958 122.884 19.4093C122.467 19.861 122.143 20.3942 121.912 21.0089C121.68 21.624 121.564 22.2973 121.564 23.0288C121.564 23.776 121.68 24.4614 121.912 25.0837C122.143 25.7064 122.463 26.2396 122.873 26.6833C123.282 27.1269 123.772 27.4734 124.344 27.7224C124.916 27.9717 125.541 28.0962 126.221 28.0962C127.009 28.0962 127.696 27.9408 128.284 27.6288C128.87 27.3176 129.341 26.9129 129.697 26.4147Z" fill="#231F20"/>
<path fill-rule="evenodd" clip-rule="evenodd" d="M150.169 16.6771C150.965 17.4242 151.586 18.3312 152.034 19.3976C152.482 20.464 152.706 21.6589 152.706 22.9818C152.706 24.2895 152.482 25.4848 152.034 26.5664C151.586 27.6489 150.965 28.5747 150.169 29.3452C149.373 30.1161 148.427 30.7115 147.33 31.1319C146.234 31.5519 145.044 31.7623 143.762 31.7623C142.48 31.7623 141.295 31.5519 140.205 31.1319C139.116 30.7115 138.174 30.1161 137.378 29.3452C136.583 28.5747 135.96 27.6489 135.513 26.5664C135.064 25.4848 134.841 24.2895 134.841 22.9818C134.841 21.6589 135.064 20.464 135.513 19.3976C135.96 18.3312 136.583 17.4242 137.378 16.6771C138.174 15.9299 139.116 15.3541 140.205 14.949C141.295 14.5443 142.48 14.3419 143.762 14.3419C145.044 14.3419 146.234 14.5443 147.33 14.949C148.427 15.3541 149.373 15.9299 150.169 16.6771ZM147.145 26.6716C147.562 26.2203 147.887 25.6791 148.118 25.0488C148.35 24.418 148.466 23.7294 148.466 22.9818C148.466 22.266 148.35 21.5967 148.118 20.9739C147.887 20.3512 147.565 19.818 147.157 19.3743C146.747 18.9303 146.253 18.5802 145.674 18.3232C145.095 18.0666 144.457 17.9382 143.762 17.9382C143.067 17.9382 142.434 18.0666 141.862 18.3232C141.291 18.5802 140.796 18.9303 140.379 19.3743C139.962 19.818 139.641 20.3512 139.417 20.9739C139.193 21.5967 139.081 22.266 139.081 22.9818C139.081 23.7294 139.197 24.418 139.429 25.0488C139.661 25.6791 139.981 26.2203 140.391 26.6716C140.8 27.1233 141.291 27.477 141.862 27.734C142.434 27.991 143.067 28.1194 143.762 28.1194C144.457 28.1194 145.09 27.991 145.662 27.734C146.234 27.477 146.728 27.1233 147.145 26.6716Z" fill="#231F20"/>
<path fill-rule="evenodd" clip-rule="evenodd" d="M166.192 24.2429L170.479 31.3186H165.844L162.283 24.7569H160.932V31.3186H157.062V14.7856H163.318C164.107 14.7856 164.875 14.8671 165.624 15.0309C166.374 15.1943 167.045 15.4709 167.64 15.8596C168.235 16.2491 168.71 16.7626 169.065 17.401C169.42 18.0393 169.598 18.8335 169.598 19.7827C169.598 20.9037 169.297 21.846 168.695 22.6084C168.092 23.3713 167.258 23.9161 166.192 24.2429ZM164.727 21.4874C165.007 21.3473 165.236 21.1454 165.414 20.8804C165.592 20.6158 165.682 20.2733 165.682 19.8529C165.682 19.4639 165.6 19.1487 165.438 18.907C165.275 18.6661 165.065 18.479 164.809 18.3465C164.553 18.2144 164.266 18.1249 163.947 18.0783C163.629 18.0313 163.323 18.008 163.028 18.008H160.909V21.8612H162.795C163.12 21.8612 163.454 21.8339 163.796 21.7793C164.138 21.7251 164.448 21.6276 164.727 21.4874Z" fill="#231F20"/>
<path d="M186.073 27.9091V31.3186H174.626V14.7856H185.656V18.1482H178.449V21.2775H185.262V24.4766H178.449V27.9091H186.073Z" fill="#231F20"/>
<path fill-rule="evenodd" clip-rule="evenodd" d="M190.332 17.3764H190.004V15.5367H190.646C190.731 15.5367 190.814 15.5463 190.895 15.5652C190.976 15.5845 191.048 15.6158 191.113 15.6587C191.177 15.7021 191.228 15.7571 191.266 15.8242C191.304 15.8912 191.324 15.9751 191.324 16.0755C191.324 16.21 191.285 16.3188 191.209 16.4027C191.133 16.4866 191.03 16.5428 190.903 16.5713L191.394 17.3764H190.995L190.567 16.6075H190.332V17.3764ZM190.332 15.8169V16.3417H190.595C190.691 16.3417 190.781 16.3236 190.867 16.2875C190.952 16.2518 190.995 16.1787 190.995 16.0683C190.995 15.9679 190.956 15.9008 190.877 15.8671C190.799 15.8338 190.717 15.8169 190.631 15.8169H190.332Z" fill="#231F20"/>
<path fill-rule="evenodd" clip-rule="evenodd" d="M189.49 17.61C189.343 17.4639 189.227 17.2924 189.141 17.0961C189.055 16.8998 189.013 16.689 189.013 16.4637C189.013 16.2385 189.055 16.0265 189.141 15.8278C189.227 15.629 189.343 15.4564 189.49 15.3102C189.638 15.1641 189.81 15.048 190.008 14.9617C190.205 14.8754 190.415 14.8324 190.639 14.8324C190.862 14.8324 191.073 14.8754 191.27 14.9617C191.467 15.048 191.639 15.1641 191.787 15.3102C191.934 15.4564 192.051 15.629 192.137 15.8278C192.221 16.0265 192.265 16.2385 192.265 16.4637C192.265 16.689 192.221 16.8998 192.137 17.0961C192.051 17.2924 191.934 17.4639 191.787 17.61C191.639 17.7562 191.467 17.871 191.27 17.9549C191.073 18.0388 190.862 18.0806 190.639 18.0806C190.415 18.0806 190.205 18.0388 190.008 17.9549C189.81 17.871 189.638 17.7562 189.49 17.61ZM189.669 15.4865C189.545 15.611 189.448 15.7571 189.377 15.9245C189.305 16.0924 189.269 16.2722 189.269 16.4637C189.269 16.6504 189.305 16.8279 189.377 16.9953C189.448 17.1632 189.545 17.3105 189.669 17.4374C189.793 17.5647 189.937 17.6638 190.103 17.7357C190.27 17.8076 190.448 17.8437 190.639 17.8437C190.828 17.8437 191.007 17.8076 191.173 17.7357C191.34 17.6638 191.485 17.5647 191.608 17.4374C191.732 17.3105 191.829 17.1632 191.901 16.9953C191.972 16.8279 192.007 16.6504 192.007 16.4637C192.007 16.2722 191.972 16.0924 191.901 15.9245C191.829 15.7571 191.732 15.611 191.608 15.4865C191.485 15.3616 191.34 15.2637 191.173 15.1918C191.007 15.1199 190.828 15.0838 190.639 15.0838C190.448 15.0838 190.27 15.1199 190.103 15.1918C189.937 15.2637 189.793 15.3616 189.669 15.4865Z" fill="#231F20"/>
</svg>
