<svg width="160" height="56" viewBox="0 0 160 56" fill="none" xmlns="http://www.w3.org/2000/svg">
<g opacity="0.3">
<path d="M25.55 5.3623C25.7724 6.56114 25.956 7.77931 26.1252 8.97331C26.2944 10.1673 26.454 11.3903 26.6086 12.5988C26.7633 13.8073 26.8793 15.0158 26.9809 16.234L27.1355 18.0564C27.1694 18.6655 27.2226 19.2746 27.2467 19.8837C27.1259 19.2843 27.0389 18.68 26.9325 18.0806L26.6666 16.2727C26.4878 15.0642 26.3428 13.8557 26.1832 12.6472C26.0237 11.4387 25.9125 10.2302 25.8062 9.01198C25.6998 7.79381 25.6177 6.58048 25.55 5.3623Z" fill="#D4910B"/>
<path d="M14.1321 8.07419C14.949 9.12317 15.7321 10.2012 16.5056 11.284C17.279 12.3668 18.0379 13.4544 18.7872 14.5518C19.5365 15.6491 20.2761 16.7561 20.9915 17.8776L22.0695 19.555C22.4127 20.1254 22.7704 20.6861 23.104 21.2614C22.6931 20.7393 22.3015 20.2027 21.9003 19.671L20.7305 18.0564C19.9522 16.9784 19.1981 15.8811 18.4488 14.7838C17.6996 13.6865 16.96 12.5795 16.2445 11.458C15.5291 10.3365 14.8088 9.22951 14.1321 8.07419Z" fill="#D4910B"/>
<path d="M5.47434 17.8099C6.75052 18.2933 8.00737 18.8444 9.26421 19.3858C10.5211 19.9272 11.7634 20.4928 13.0057 21.0632C14.2481 21.6336 15.4807 22.2185 16.7086 22.8276L18.5455 23.7315C19.1498 24.0506 19.7637 24.3551 20.3631 24.6984C19.725 24.4566 19.0918 24.1859 18.4585 23.9297L16.5732 23.1225C15.3164 22.5859 14.074 22.0155 12.8317 21.4499C11.5894 20.8843 10.3567 20.2946 9.12886 19.6855C7.90102 19.0764 6.67801 18.4625 5.47434 17.8099Z" fill="#D4910B"/>
<path d="M3.99997 30.4992C5.28582 30.2623 6.5765 30.0738 7.86718 29.8901C9.15786 29.7064 10.4534 29.542 11.7344 29.4067C13.0154 29.2713 14.3254 29.1118 15.6258 29.0006L17.5594 28.8314C18.212 28.7879 18.8597 28.7348 19.493 28.7057C18.8501 28.8266 18.2071 28.9233 17.5594 29.0345L15.6258 29.3148C14.3351 29.5034 13.0396 29.6629 11.7586 29.7982C10.4775 29.9336 9.16269 30.0883 7.86234 30.2043C6.562 30.3203 5.31482 30.4073 3.99997 30.4992Z" fill="#D4910B"/>
<path d="M21.0495 33.008C19.9184 33.9071 18.763 34.7676 17.6077 35.6232C16.4524 36.4788 15.2777 37.3103 14.1031 38.1466C12.9284 38.9829 11.7392 39.7901 10.5404 40.5877L8.74213 41.7817C8.13305 42.1685 7.53363 42.5649 6.91488 42.9419C7.48046 42.4875 8.05571 42.0573 8.62612 41.6174L10.3567 40.3267C11.512 39.4711 12.6867 38.6348 13.8614 37.8082C15.036 36.9816 16.2252 36.1598 17.424 35.3622C18.6229 34.5646 19.8169 33.767 21.0495 33.008Z" fill="#D4910B"/>
<path d="M24.1143 35.5459C23.6599 36.7592 23.1475 37.9629 22.6641 39.152C22.1807 40.3412 21.6489 41.5255 21.122 42.7099C20.5951 43.8942 20.0537 45.064 19.493 46.229L18.647 47.9741C18.3521 48.5494 18.0669 49.1343 17.7624 49.7047C17.9799 49.0956 18.2458 48.4962 18.4633 47.8919L19.2029 46.0985C19.6863 44.9045 20.2229 43.7202 20.745 42.5407C21.2671 41.3612 21.8133 40.1865 22.3789 39.0215C22.9445 37.8565 23.5052 36.6915 24.1143 35.5459Z" fill="#D4910B"/>
<path d="M27.996 36.4015C28.228 37.5762 28.4166 38.7605 28.5954 39.94C28.7743 41.1195 28.929 42.3087 29.0788 43.493C29.2287 44.6773 29.364 45.8665 29.4752 47.0557L29.6347 48.8442C29.6734 49.4388 29.7314 50.0382 29.7556 50.6377C29.6347 50.0479 29.5429 49.4582 29.4365 48.8684L29.1562 47.0943C28.9725 45.9148 28.8178 44.7305 28.6728 43.5462C28.5277 42.3618 28.3876 41.1678 28.2812 39.9787C28.1749 38.7895 28.0588 37.6003 27.996 36.4015Z" fill="#D4910B"/>
<path d="M32.1726 35.1785C33.1007 36.2275 33.995 37.3006 34.8796 38.3738C35.7643 39.4469 36.6392 40.5442 37.5045 41.6174C38.3698 42.6905 39.2157 43.8217 40.0472 44.9384L41.2944 46.6206C41.6956 47.191 42.1113 47.7518 42.5077 48.3318C42.0243 47.8098 41.5941 47.2732 41.1348 46.7463L39.7958 45.1366C38.9064 44.0634 38.0411 42.9709 37.1758 41.8736C36.3105 40.7763 35.4646 39.6838 34.6331 38.572C33.8017 37.4601 32.9654 36.329 32.1726 35.1785Z" fill="#D4910B"/>
<path d="M35.189 31.7125C36.6779 32.3506 38.1378 33.0274 39.6025 33.7089C41.0672 34.3905 42.5029 35.106 43.9531 35.8069C45.4033 36.5078 46.8535 37.2571 48.2698 37.987L50.4161 39.1085C51.1219 39.4953 51.8373 39.8675 52.5383 40.2687C51.7938 39.9545 51.0881 39.6161 50.3243 39.3019L48.1297 38.2819C46.6795 37.6003 45.2293 36.8849 43.779 36.184C42.3288 35.483 40.8786 34.7338 39.4623 34.0038C38.0459 33.2739 36.6005 32.5004 35.189 31.7125Z" fill="#D4910B"/>
<path d="M35.9576 27.7148C37.2918 27.4972 38.6308 27.3281 39.9699 27.1637C41.3089 26.9993 42.6527 26.8592 43.9966 26.719C45.3404 26.5788 46.6843 26.4676 48.033 26.3709L50.0536 26.2307C50.7304 26.2017 51.4023 26.1534 52.079 26.1389C51.412 26.2501 50.74 26.3371 50.0729 26.4338L48.062 26.69C46.723 26.8592 45.3791 26.9945 44.0401 27.1299C42.7011 27.2652 41.3524 27.3861 40.0037 27.4779C38.655 27.5698 37.3111 27.6713 35.9576 27.7148Z" fill="#D4910B"/>
<path d="M34.4397 23.5479C35.7111 22.523 37.0114 21.5369 38.3069 20.5556C39.6025 19.5743 40.927 18.622 42.2418 17.6552C43.5567 16.6884 44.8909 15.7603 46.2299 14.8321L48.2457 13.4496C48.9224 13 49.5944 12.5408 50.2856 12.1009C49.6524 12.6182 49.0046 13.1112 48.352 13.614L46.4184 15.0932C45.1181 16.06 43.7984 17.0268 42.4884 17.9936C41.1784 18.9604 39.8393 19.8885 38.4955 20.8311C37.1516 21.7738 35.8126 22.6632 34.4397 23.5479Z" fill="#D4910B"/>
<path d="M31.5007 20.7538C31.9841 19.5308 32.4675 18.3368 32.9799 17.1283C33.4923 15.9198 34.024 14.7403 34.5606 13.5801C35.0972 12.42 35.6531 11.2115 36.2283 10.0416L37.0936 8.26271C37.3933 7.68746 37.6834 7.10255 37.9976 6.5273C37.7704 7.14122 37.5142 7.74064 37.2773 8.34972L36.5184 10.1528C36.035 11.3516 35.4742 12.5408 34.9376 13.7251C34.4011 14.9095 33.8355 16.0938 33.2699 17.2636C32.7043 18.4335 32.1194 19.6033 31.5007 20.7538Z" fill="#D4910B"/>
<path d="M21.8568 11.255C22.2725 12.1396 22.6448 13.0387 23.0121 13.9427C23.3795 14.8466 23.7227 15.7554 24.0611 16.6642C24.3995 17.573 24.7234 18.4963 25.0279 19.4244L25.4726 20.8311C25.608 21.3145 25.7579 21.7641 25.8835 22.2378C25.6708 21.7931 25.4823 21.3435 25.2841 20.8988L24.7282 19.5501C24.356 18.6462 24.0128 17.7374 23.6744 16.8237C23.336 15.9101 23.0121 14.9772 22.7173 14.0635C22.4224 13.1499 22.1082 12.1976 21.8568 11.255Z" fill="#D4910B"/>
<path d="M6.67801 9.75642C8.09921 10.8779 9.49624 12.0332 10.8884 13.1934C12.2806 14.3536 13.6438 15.5427 15.0215 16.7126C16.3992 17.8824 17.7527 19.0957 19.0966 20.3091L21.1124 22.1315C21.7746 22.7502 22.4466 23.3545 23.0991 23.9829C22.3837 23.427 21.6876 22.8518 20.9819 22.2813L18.8887 20.5508C17.5014 19.3858 16.1333 18.2014 14.7508 17.0268C13.3683 15.8521 12.0244 14.6436 10.6806 13.4351C9.33672 12.2266 7.98803 11.0084 6.67801 9.75642Z" fill="#D4910B"/>
<path d="M7.51913 24.1859C8.71796 24.3358 9.90713 24.5292 11.0963 24.7322C12.2855 24.9352 13.4698 25.1576 14.6541 25.3896C15.8385 25.6216 17.018 25.873 18.1926 26.1389L19.9522 26.5498C20.5371 26.6996 21.1269 26.835 21.707 26.9993C21.1075 26.9268 20.513 26.8302 19.9135 26.748L18.1298 26.4531C16.9406 26.2549 15.7563 26.0277 14.572 25.7957C13.3876 25.5636 12.2081 25.3123 11.0335 25.0416C9.85879 24.7709 8.69863 24.505 7.51913 24.1859Z" fill="#D4910B"/>
<path d="M8.94033 35.1205C10.0231 34.6081 11.1205 34.1537 12.2226 33.6703C13.3248 33.1869 14.4318 32.7712 15.5436 32.3313C16.6554 31.8914 17.7721 31.466 18.8984 31.0841L20.5903 30.4992C21.1607 30.3155 21.7215 30.1173 22.2967 29.9433C21.7553 30.2043 21.2091 30.4267 20.6628 30.6877L19.0144 31.3886C17.9171 31.872 16.8053 32.2926 15.6934 32.7276C14.5816 33.1627 13.465 33.5833 12.3386 33.9797C11.2123 34.376 10.086 34.7676 8.94033 35.1205Z" fill="#D4910B"/>
<path d="M20.9577 36.1598C20.3728 36.9477 19.754 37.7115 19.1304 38.4704C18.5068 39.2294 17.8639 39.969 17.1968 40.7086C16.5297 41.4482 15.8916 42.1588 15.2149 42.8839L14.1997 43.9474C13.8469 44.2954 13.5085 44.6483 13.1508 44.9867C13.4408 44.5855 13.7502 44.2036 14.045 43.812L14.9828 42.6712C15.6016 41.9123 16.2494 41.1727 16.8923 40.4331C17.5352 39.6935 18.1975 38.9829 18.8742 38.2578C19.551 37.5327 20.2422 36.8366 20.9577 36.1598Z" fill="#D4910B"/>
<path d="M26.4346 34.2939C26.3138 35.4202 26.1494 36.5368 25.9802 37.6535C25.811 38.7702 25.6128 39.8868 25.4146 40.9986C25.2164 42.1105 24.9989 43.2174 24.7572 44.3244L24.3947 45.968C24.2593 46.5142 24.1385 47.0702 23.9886 47.6164C24.0466 47.0508 24.1288 46.4901 24.1965 45.9293L24.443 44.2519C24.6122 43.1353 24.8104 42.0234 25.0086 40.9116C25.2068 39.7998 25.4291 38.688 25.6708 37.5858C25.9125 36.4837 26.1494 35.3863 26.4346 34.2939Z" fill="#D4910B"/>
<path d="M29.4414 34.2165C29.9973 35.2897 30.5145 36.3822 31.0221 37.4746C31.5297 38.5671 31.9889 39.6741 32.4723 40.7811C32.9557 41.8881 33.4391 42.9999 33.8597 44.1214L34.5268 45.8085C34.7298 46.3741 34.9521 46.9348 35.1455 47.5101C34.8651 46.9735 34.6089 46.4272 34.3382 45.8858L33.5938 44.2471C33.0814 43.1546 32.598 42.0525 32.1436 40.9455C31.6892 39.8385 31.1768 38.7267 30.7514 37.6003C30.326 36.474 29.8426 35.3573 29.4414 34.2165Z" fill="#D4910B"/>
<path d="M32.2886 32.5585C33.5213 33.4769 34.7056 34.434 35.9141 35.3912C37.1226 36.3483 38.2924 37.3248 39.4671 38.2916C40.6418 39.2584 41.8116 40.2687 42.9621 41.2838L44.6878 42.8066C45.2534 43.3238 45.8238 43.8314 46.3846 44.3583C45.7658 43.9039 45.1664 43.4253 44.5573 42.9612L42.7591 41.511C41.5602 40.5442 40.3807 39.5774 39.2012 38.6106C38.0217 37.6438 36.8616 36.6287 35.7111 35.6184C34.5606 34.6081 33.4101 33.6123 32.2886 32.5585Z" fill="#D4910B"/>
<path d="M33.8742 29.4647C35.1938 29.6435 36.499 29.8611 37.809 30.0931C39.1191 30.3251 40.4146 30.5765 41.7198 30.8279C43.0249 31.0792 44.3156 31.3596 45.587 31.6593L47.5206 32.1089C48.1635 32.2732 48.8113 32.4231 49.4542 32.5923C48.7968 32.5053 48.1393 32.3941 47.4819 32.2974L45.5483 31.9639C44.2383 31.7367 42.9379 31.4805 41.6376 31.2243C40.3372 30.9681 39.0369 30.6925 37.7704 30.3928C36.5039 30.0931 35.16 29.8079 33.8742 29.4647Z" fill="#D4910B"/>
<path d="M33.7098 26.3903C34.899 25.873 36.0978 25.4235 37.3015 24.9401C38.5051 24.4566 39.7185 24.0313 40.927 23.5962C42.1355 23.1611 43.344 22.7357 44.5815 22.3345L46.4039 21.7351C47.0227 21.5514 47.6366 21.3532 48.2553 21.1792C47.6656 21.4402 47.0662 21.6626 46.4716 21.9236L44.6685 22.6294C43.4697 23.1128 42.2515 23.5382 41.043 23.9781C39.8345 24.418 38.626 24.8385 37.3885 25.2349C36.151 25.6313 34.957 26.0374 33.7098 26.3903Z" fill="#D4910B"/>
<path d="M31.8439 23.601C32.6947 22.4844 33.5841 21.3919 34.4784 20.3091C35.3727 19.2262 36.2815 18.1531 37.1951 17.0848C38.1088 16.0165 39.0417 14.9627 39.9892 13.9233L41.4104 12.3668C41.8938 11.8592 42.3772 11.342 42.8606 10.8392C42.4352 11.4 41.9953 11.9462 41.5602 12.5021L40.2261 14.136C39.3366 15.2237 38.423 16.2872 37.5045 17.3555C36.586 18.4238 35.6579 19.4776 34.7104 20.5169C33.763 21.5562 32.8252 22.5956 31.8439 23.601Z" fill="#D4910B"/>
<path d="M29.1755 22.0832C29.3109 20.9617 29.4897 19.845 29.6589 18.7332C29.8281 17.6214 30.0505 16.5095 30.268 15.3977C30.4855 14.2859 30.7176 13.1886 30.9738 12.0864L31.3556 10.438C31.5007 9.89177 31.6312 9.3407 31.7859 8.79445C31.723 9.36003 31.6312 9.91594 31.5538 10.4767L31.3025 12.1299C31.1188 13.2417 30.9061 14.3536 30.6934 15.4606C30.4807 16.5675 30.2438 17.6745 29.9876 18.7719C29.7314 19.8692 29.4849 20.9955 29.1755 22.0832Z" fill="#D4910B"/>
</g>
<path d="M39.5209 37.4748C38.9272 36.9434 38.3761 36.3664 37.8725 35.749C35.7987 38.4802 32.2505 40.2157 28.5621 40.322H27.8806C24.197 40.2157 20.6295 38.4802 18.5702 35.749C18.0666 36.3679 17.5137 36.945 16.917 37.4748C16.917 37.4748 14.1375 37.0929 13.0498 36.6095C14.9109 39.7516 19.1407 45.0013 28.0739 45.1608H28.3688C37.3069 45.0013 41.5366 39.7516 43.4122 36.6095C42.0539 37.2282 39.5209 37.4748 39.5209 37.4748Z" fill="#BC3627"/>
<path d="M18.101 35.6812C16.6508 35.5894 13.9776 34.8546 11.6572 33.8008C12.0665 34.8074 12.7094 35.7021 13.5328 36.4111C14.568 36.771 15.6484 36.9841 16.7426 37.0444C17.2671 36.6676 17.726 36.207 18.101 35.6812Z" fill="#A58F86"/>
<path d="M38.341 35.6812C39.7912 35.5894 42.4644 34.8546 44.7847 33.8008C44.3729 34.8098 43.7247 35.705 42.8946 36.4111C41.8596 36.7715 40.7791 36.9846 39.6848 37.0444C39.1655 36.6664 38.7116 36.2059 38.341 35.6812Z" fill="#A58F86"/>
<path d="M18.405 35.3911C18.2028 35.1275 18.04 34.8361 17.9216 34.5258C16.0411 33.6121 11.502 29.5564 10.714 27.5986C10.6657 31.432 12.0821 33.4623 12.0821 33.4623C14.0669 34.4546 16.2042 35.1066 18.405 35.3911Z" fill="#D1912A"/>
<path d="M38.5434 34.5258C38.425 34.8361 38.2622 35.1275 38.06 35.3911C40.2594 35.1046 42.3951 34.451 44.3781 33.4575C44.3781 33.4575 45.7993 31.4272 45.7461 27.6131C44.9533 29.5564 40.419 33.6121 38.5434 34.5258Z" fill="#D1912A"/>
<path d="M17.5889 33.8154C17.351 33.3441 17.1396 32.8599 16.9556 32.3652C14.2833 28.7232 12.8621 24.3138 12.9047 19.7967C12.9047 19.7967 10.9711 24.1038 11.2708 27.6278C11.2902 27.8599 14.6015 32.1283 17.5889 33.8154Z" fill="#7FB241"/>
<path d="M39.5014 32.3652C39.3206 32.8605 39.1108 33.3447 38.873 33.8154C41.8604 32.1283 45.1572 27.8599 45.1911 27.6133C45.4763 24.0893 43.5572 19.7822 43.5572 19.7822C43.6026 24.3049 42.1794 28.7203 39.5014 32.3652Z" fill="#7FB241"/>
<path d="M16.1188 28.2756C14.9151 24.1086 17.3177 14.7017 17.3177 14.7017C13.5568 18.5109 13.2861 20.8022 13.2861 20.8022C13.4547 24.3651 14.5223 27.8274 16.3895 30.8666C16.3363 30.2575 16.1188 28.2756 16.1188 28.2756Z" fill="#0997A7"/>
<path d="M40.342 28.2756C40.342 28.2756 40.1245 30.2575 40.0713 30.8666C41.9386 27.8274 43.0062 24.3651 43.1748 20.8022C43.1748 20.8022 42.9041 18.5109 39.1529 14.7017C39.1529 14.7017 41.5699 23.6978 40.342 28.2756Z" fill="#0997A7"/>
<path d="M16.2779 27.0526C16.2779 27.0526 17.9698 17.8679 23.2002 12.5505C21.1768 13.2572 19.2814 14.2873 17.5879 15.6008C16.664 19.3465 16.2238 23.195 16.2779 27.0526Z" fill="#6A4E6D"/>
<path d="M38.8721 15.6153C37.178 14.3026 35.2828 13.2725 33.2598 12.565C38.4902 17.8534 40.1772 27.0671 40.1772 27.0671C40.2353 23.2096 39.7967 19.3607 38.8721 15.6153Z" fill="#6A4E6D"/>
<path d="M20.6046 30.4412V22.4264L19.1544 22.963L18.8692 21.0632L20.8898 20.1206H22.983V30.4412H20.6046Z" fill="#D1912A"/>
<path d="M24.1673 30.4412V28.6768L26.855 25.1818C27.3384 24.6493 27.6235 23.9664 27.6623 23.2482C27.6791 23.0894 27.6615 22.9289 27.6107 22.7776C27.5599 22.6262 27.4771 22.4876 27.368 22.3711C27.2588 22.2546 27.1258 22.163 26.9781 22.1024C26.8304 22.0419 26.6713 22.0139 26.5118 22.0204C25.7942 22.0615 25.112 22.3462 24.5782 22.8277L24.2785 20.7829C25.0779 20.2282 26.0271 19.9297 27 19.9272C28.75 19.9272 30.1228 20.8554 30.1228 22.8277C30.1228 24.012 29.6394 25.0416 28.7016 26.2405L27.0145 28.4641H30.0068L30.321 30.4557L24.1673 30.4412Z" fill="#D1912A"/>
<path d="M33.613 30.6346C32.6849 30.6342 31.7691 30.4226 30.9349 30.0158L31.2636 28.029C31.9162 28.3919 32.6446 28.5972 33.3906 28.6285C33.5959 28.6479 33.803 28.6224 33.9974 28.5538C34.1919 28.4852 34.3691 28.3751 34.5167 28.2311C34.6643 28.0872 34.7789 27.9128 34.8524 27.7201C34.9259 27.5275 34.9566 27.3211 34.9423 27.1154C34.9596 26.9444 34.9402 26.7716 34.8854 26.6087C34.8305 26.4458 34.7416 26.2964 34.6245 26.1706C34.5074 26.0448 34.3647 25.9454 34.2061 25.8791C34.0476 25.8128 33.8766 25.7811 33.7048 25.7861C33.3728 25.7763 33.0452 25.8637 32.7622 26.0374L31.312 25.6797L31.6842 20.1303H36.8566L37.1418 22.1074H33.5985L33.4631 24.041C33.7865 23.9376 34.1243 23.887 34.4638 23.8911C36.0348 23.8911 37.3352 24.9353 37.3352 26.9994C37.3352 29.3777 35.7979 30.6346 33.613 30.6346Z" fill="#D1912A"/>
<path d="M22.5721 34.7193V36.3484H21.7503V34.7242L20.566 32.08L21.4313 31.9494L22.1999 33.883L22.954 31.9833H23.7999L22.5721 34.7193Z" fill="#D1912A"/>
<path d="M24.1673 36.3484V31.9978H26.2943V32.6745H24.9843V33.7235H25.9511L26.1009 34.4244H24.9843V35.662H26.3571V36.3484H24.1673Z" fill="#D1912A"/>
<path d="M26.623 36.3484L27.8073 31.9978H28.7306L29.8763 36.2759L29.0642 36.4209L28.7886 35.2607H27.6768L27.4206 36.3726L26.623 36.3484ZM27.8315 34.5791H28.6339L28.2375 32.9162L27.8315 34.5791Z" fill="#D1912A"/>
<path d="M31.2733 34.6226H31.0848V36.3484H30.292V31.9978H31.3168C32.1966 31.9978 32.767 32.4812 32.767 33.2885C32.7843 33.5418 32.7187 33.794 32.58 34.0068C32.4413 34.2196 32.2372 34.3814 31.9984 34.468L32.9652 36.271L32.1773 36.4112L31.2733 34.6226ZM31.2733 34.0329C31.7567 34.0329 32.0274 33.796 32.0274 33.3271C32.0274 32.8582 31.7809 32.6407 31.2926 32.6407H31.0896V34.0329H31.2733Z" fill="#D1912A"/>
<path d="M34.4009 36.4016C34.0126 36.4104 33.6284 36.3206 33.2843 36.1405L33.4003 35.4348C33.6892 35.6204 34.0238 35.7224 34.3671 35.7296C34.6861 35.7296 34.8795 35.5604 34.8795 35.2752C34.8795 34.99 34.7103 34.7628 34.2414 34.4244C33.7725 34.0861 33.3519 33.7429 33.3519 33.0999C33.347 32.9455 33.3743 32.7916 33.4319 32.6482C33.4895 32.5048 33.5763 32.3749 33.6867 32.2668C33.7971 32.1586 33.9288 32.0746 34.0733 32.02C34.2179 31.9653 34.3723 31.9413 34.5266 31.9494C34.8408 31.9334 35.1534 32.0037 35.4306 32.1525L35.3145 32.8776C35.1015 32.7117 34.8401 32.62 34.5701 32.6165C34.513 32.6116 34.4555 32.619 34.4014 32.6382C34.3474 32.6574 34.2981 32.6879 34.2569 32.7278C34.2156 32.7677 34.1834 32.8159 34.1624 32.8692C34.1414 32.9226 34.1321 32.9798 34.135 33.0371C34.135 33.3271 34.3236 33.5205 34.7538 33.8009C35.2855 34.1827 35.6626 34.5501 35.6626 35.2221C35.6675 35.3854 35.6375 35.5479 35.5747 35.6987C35.5119 35.8496 35.4177 35.9853 35.2983 36.0969C35.1789 36.2085 35.0372 36.2934 34.8824 36.3459C34.7277 36.3985 34.5635 36.4174 34.4009 36.4016Z" fill="#D1912A"/>
<path d="M53.1711 15.4798H54.3555L56.4824 21.1598L55.3706 21.358L54.8147 19.8304H52.6152L52.0932 21.2806H50.9765L53.1711 15.4798ZM52.9198 18.9217H54.5053L53.7174 16.6787L52.9198 18.9217Z" fill="#BE3526"/>
<path d="M62.6023 21.3145L62.2929 17.0799L60.8427 21.3338H59.8759L58.4257 17.0799L58.1357 21.3145H57.135L57.5218 15.5137H58.972L60.4222 19.8643L61.8724 15.5137H63.2597L63.7045 21.3145H62.6023Z" fill="#BE3526"/>
<path d="M64.7728 21.3145V15.5137H68.1566V16.4563H65.8894V17.834H67.6345L67.7892 18.767H65.8894V20.3477H68.2436V21.3145H64.7728Z" fill="#BE3526"/>
<path d="M72.2365 21.358L70.7089 19.0812H70.2255V21.3145H69.1234V15.5137H70.9216C72.2171 15.5137 73.0003 16.1276 73.0003 17.2539C73.0201 17.6219 72.9134 17.9856 72.6979 18.2846C72.4825 18.5835 72.1713 18.7998 71.8159 18.8975L73.3821 21.1743L72.2365 21.358ZM70.8346 16.3935H70.2207V18.2352H70.7863C71.4727 18.2352 71.9029 17.9065 71.9029 17.3023C71.9029 16.698 71.5404 16.3935 70.8346 16.3935Z" fill="#BE3526"/>
<path d="M74.1459 21.3145V15.5137H75.2626V21.3145H74.1459Z" fill="#BE3526"/>
<path d="M79.0428 21.4015C77.3557 21.4015 76.2971 20.2075 76.2971 18.4092C76.2971 16.611 77.3944 15.4025 79.0331 15.4025C79.6033 15.3873 80.1662 15.5331 80.6573 15.823L80.4978 16.872C80.0962 16.5511 79.6002 16.371 79.0863 16.3596C78.0615 16.3596 77.4282 17.1427 77.4282 18.4044C77.4282 19.6661 78.1001 20.4347 79.125 20.4347C79.6455 20.4204 80.1502 20.2522 80.5752 19.9513L80.7298 20.9181C80.2236 21.2335 79.6392 21.401 79.0428 21.4015Z" fill="#BE3526"/>
<path d="M83.4514 15.4798H84.6357L86.7627 21.1598L85.6557 21.358L85.0998 19.8304H82.9003L82.3782 21.2806H81.2761L83.4514 15.4798ZM83.2 18.9217H84.7904L83.9976 16.6787L83.2 18.9217Z" fill="#BE3526"/>
<path d="M91.3163 21.3145L88.5851 17.3264V21.3145H87.5506V15.5137H88.6045L91.2051 19.3084V15.5137H92.2396V21.3145H91.3163Z" fill="#BE3526"/>
<path d="M97.006 15.4798H98.1903L100.312 21.1598L99.2054 21.358L98.6495 19.8304H96.45L95.928 21.2806H94.8258L97.006 15.4798ZM96.7498 18.9217H98.3401L97.5474 16.6787L96.7498 18.9217Z" fill="#BE3526"/>
<path d="M103.397 21.4015C101.709 21.4015 100.651 20.2075 100.651 18.4092C100.651 16.611 101.748 15.4025 103.387 15.4025C103.957 15.3873 104.52 15.5331 105.011 15.823L104.852 16.872C104.452 16.5511 103.957 16.371 103.445 16.3596C102.42 16.3596 101.787 17.1427 101.787 18.4044C101.787 19.6661 102.459 20.4347 103.484 20.4347C104.012 20.4234 104.525 20.2552 104.958 19.9513L105.108 20.9181C104.595 21.2386 104.001 21.4063 103.397 21.4015Z" fill="#BE3526"/>
<path d="M107.795 15.4798H108.98L111.102 21.1598L109.995 21.358L109.439 19.8304H107.24L106.717 21.2806H105.615L107.795 15.4798ZM107.539 18.9217H109.13L108.337 16.6787L107.539 18.9217Z" fill="#BE3526"/>
<path d="M113.746 21.3145H111.909V15.5137H113.746C115.762 15.5137 116.806 16.698 116.806 18.4141C116.806 20.1302 115.723 21.3145 113.746 21.3145ZM113.746 16.4321H113.016V20.4009H113.722C114.94 20.4009 115.656 19.7773 115.656 18.4189C115.656 17.0606 114.897 16.4176 113.736 16.4176L113.746 16.4321Z" fill="#BE3526"/>
<path d="M117.821 21.3145V15.5137H121.205V16.4563H118.914V17.834H120.659L120.809 18.767H118.914V20.3477H121.263V21.3145H117.821Z" fill="#BE3526"/>
<path d="M127.523 21.3145L127.214 17.0799L125.763 21.3338H124.797L123.346 17.0799L123.013 21.3145H122.012L122.457 15.5137H123.869L125.319 19.8885L126.769 15.5378H128.156L128.601 21.3387L127.523 21.3145Z" fill="#BE3526"/>
<path d="M132.144 19.0812V21.3145H131.037V19.0908L129.002 15.6297L130.162 15.446L131.613 18.066L133.063 15.504H134.247L132.144 19.0812Z" fill="#BE3526"/>
<path d="M139.246 21.4112C137.597 21.4112 136.529 20.1978 136.529 18.4092C136.529 16.6207 137.607 15.3928 139.26 15.3928C140.913 15.3928 141.972 16.6062 141.972 18.3947C141.972 20.1833 140.908 21.4112 139.246 21.4112ZM139.246 16.3161C138.255 16.3161 137.66 17.1331 137.66 18.4044C137.66 19.6758 138.255 20.4879 139.246 20.4879C140.237 20.4879 140.846 19.6709 140.846 18.4044C140.846 17.1379 140.241 16.3161 139.25 16.3161H139.246Z" fill="#BE3526"/>
<path d="M144.084 16.4805V17.9307H145.713L145.873 18.8975H144.084V21.3145H142.973V15.5137H146.216V16.4805H144.084Z" fill="#BE3526"/>
<path d="M53.8962 31.4901C52.2527 31.4901 51.1844 30.2816 51.1844 28.493C51.1844 26.7044 52.2623 25.4766 53.9156 25.4766C55.5688 25.4766 56.6275 26.6851 56.6275 28.4737C56.6275 30.2622 55.5881 31.4901 53.8962 31.4901ZM53.8962 26.3999C52.9294 26.3999 52.3107 27.2168 52.3107 28.4833C52.3107 29.7498 52.9053 30.5668 53.8962 30.5668C54.8872 30.5668 55.4915 29.7498 55.4915 28.4833C55.4915 27.2168 54.8969 26.3999 53.9059 26.3999H53.8962Z" fill="#BE3526"/>
<path d="M59.7889 26.5497V31.3837H58.6771V26.5497H56.932V25.5829H61.4325L61.592 26.5497H59.7889Z" fill="#BE3526"/>
<path d="M64.5407 31.4901C62.8972 31.4901 61.8289 30.2816 61.8289 28.493C61.8289 26.7044 62.9068 25.4766 64.5601 25.4766C66.2133 25.4766 67.272 26.6851 67.272 28.4737C67.272 30.2622 66.223 31.4901 64.5407 31.4901ZM64.5407 26.3999C63.5498 26.3999 62.9552 27.2168 62.9552 28.4833C62.9552 29.7498 63.5498 30.5668 64.5407 30.5668C65.5317 30.5668 66.136 29.7498 66.136 28.4833C66.136 27.2168 65.5414 26.3999 64.5504 26.3999H64.5407Z" fill="#BE3526"/>
<path d="M68.2726 31.3837V25.5829H69.3893V30.4169H71.3229L71.4727 31.3837H68.2726Z" fill="#BE3526"/>
<path d="M74.0202 25.5587H75.2046L77.3412 31.2387L76.2342 31.4417L75.6783 29.9094H73.474L72.9519 31.3596H71.8546L74.0202 25.5587ZM73.7689 29.0054H75.3544L74.5665 26.7624L73.7689 29.0054Z" fill="#BE3526"/>
<path d="M81.2374 31.4659L79.705 29.1891H79.2216V31.4079H78.1146V25.6071H79.9129C81.2036 25.6071 81.9867 26.221 81.9867 27.3473C82.0036 27.7116 81.8968 28.0709 81.6835 28.3667C81.4702 28.6625 81.163 28.8774 80.812 28.9764L82.3734 31.2532L81.2374 31.4659ZM79.8307 26.5014H79.2168V28.3383H79.7824C80.4688 28.3383 80.899 28.0096 80.899 27.4053C80.899 26.8011 80.5316 26.4772 79.8307 26.4772V26.5014Z" fill="#BE3526"/>
<path d="M85.501 29.1649V31.3837H84.394V29.1746L82.3589 25.7086L83.5191 25.5249L84.9693 28.1449L86.4195 25.5829H87.6038L85.501 29.1649Z" fill="#BE3526"/>
<path d="M92.0801 31.3837L89.3489 27.3908V31.3837H88.3192V25.5829H89.3682L91.9738 29.3825V25.5829H93.0034V31.3837H92.0801Z" fill="#BE3526"/>
<path d="M96.8513 31.4901C95.0143 31.4901 94.004 30.2816 94.004 28.493C94.004 26.7044 95.0724 25.4766 96.8368 25.4766C97.4584 25.4704 98.0695 25.6378 98.6012 25.96L98.4417 26.9944C97.9813 26.6478 97.4227 26.4565 96.8464 26.4482C95.7104 26.4482 95.14 27.2748 95.14 28.5075C95.14 29.7402 95.7249 30.5765 96.8948 30.5765C97.232 30.5815 97.5649 30.4999 97.8616 30.3396V29.0489H96.6772L96.5467 28.1594H98.8719V30.9245C98.265 31.2994 97.5646 31.4955 96.8513 31.4901Z" fill="#BE3526"/>
<path d="M102.507 31.4901C100.859 31.4901 99.7952 30.2816 99.7952 28.493C99.7952 26.7044 100.868 25.4766 102.522 25.4766C104.175 25.4766 105.238 26.6851 105.238 28.4737C105.238 30.2622 104.17 31.4901 102.507 31.4901ZM102.507 26.3999C101.516 26.3999 100.917 27.2168 100.917 28.4833C100.917 29.7498 101.516 30.5668 102.507 30.5668C103.498 30.5668 104.102 29.7498 104.102 28.4833C104.102 27.2168 103.508 26.3999 102.517 26.3999H102.507Z" fill="#BE3526"/>
<path d="M106.239 31.3837V25.5829H107.356V30.4169H109.289L109.444 31.3837H106.239Z" fill="#BE3526"/>
<path d="M112.378 31.4901C110.73 31.4901 109.666 30.2816 109.666 28.493C109.666 26.7044 110.739 25.4766 112.393 25.4766C114.046 25.4766 115.109 26.6851 115.109 28.4737C115.109 30.2622 114.041 31.4901 112.378 31.4901ZM112.378 26.3999C111.387 26.3999 110.788 27.2168 110.788 28.4833C110.788 29.7498 111.387 30.5668 112.378 30.5668C113.369 30.5668 113.973 29.7498 113.973 28.4833C113.973 27.2168 113.379 26.3999 112.388 26.3999H112.378Z" fill="#BE3526"/>
<path d="M118.73 31.4901C116.888 31.4901 115.883 30.2816 115.883 28.493C115.883 26.7044 116.946 25.4766 118.711 25.4766C119.332 25.4696 119.944 25.6371 120.475 25.96L120.316 26.9944C119.856 26.6472 119.297 26.4558 118.72 26.4482C117.584 26.4482 117.014 27.2748 117.014 28.5075C117.014 29.7402 117.604 30.5765 118.769 30.5765C119.106 30.5821 119.439 30.5005 119.735 30.3396V29.0489H118.561L118.43 28.1401H120.755V30.9052C120.15 31.2888 119.447 31.4917 118.73 31.4901Z" fill="#BE3526"/>
<path d="M124.342 29.1649V31.3837H123.23V29.1746L121.2 25.7086L122.356 25.5249L123.806 28.1449L125.256 25.5829H126.44L124.342 29.1649Z" fill="#BE3526"/>
<path d="M126.281 29.4405V28.4737H129.287V29.4405H126.281Z" fill="#BE3526"/>
<path d="M54.9887 41.4626V38.9441H52.5282V41.4626H51.4116V35.6618H52.5282V37.9483H54.9887V35.6667H56.1102V41.4675L54.9887 41.4626Z" fill="#BE3526"/>
<path d="M57.3332 41.4626V35.6618H60.717V36.6286H58.4499V38.0063H60.195L60.3496 38.9345H58.4499V40.5393H60.804V41.5062L57.3332 41.4626Z" fill="#BE3526"/>
<path d="M63.4241 35.6425H64.6084L66.7354 41.3225L65.6284 41.5207L65.0725 39.9931H62.873L62.3509 41.4433H61.2488L63.4241 35.6425ZM63.1727 39.0843H64.7728L63.98 36.8413L63.1727 39.0843Z" fill="#BE3526"/>
<path d="M69.3651 41.4626H67.5233V35.6618H69.3651C71.3809 35.6618 72.425 36.8462 72.425 38.5622C72.425 40.2783 71.3374 41.4626 69.3651 41.4626ZM69.3651 36.5803H68.64V40.549H69.3457C70.5639 40.549 71.2794 39.9254 71.2794 38.5671C71.2794 37.2087 70.5156 36.5803 69.3554 36.5803H69.3651Z" fill="#BE3526"/>
<path d="M76.9738 35.6425H78.1581L80.2851 41.3225L79.1781 41.5207L78.6222 39.9931H76.4227L75.9007 41.4433H74.7985L76.9738 35.6425ZM76.7224 39.0843H78.308L77.5152 36.8413L76.7224 39.0843Z" fill="#BE3526"/>
<path d="M84.8387 41.4626L82.1075 37.4746V41.4626H81.0731V35.6618H82.1269L84.7276 39.4565V35.6667H85.762V41.4675L84.8387 41.4626Z" fill="#BE3526"/>
<path d="M88.8316 41.4626H87.0092V35.6618H88.851C90.8668 35.6618 91.9061 36.8462 91.9061 38.5622C91.9061 40.2783 90.8039 41.4626 88.8316 41.4626ZM88.8316 36.5803H88.1065V40.549H88.8123C90.0305 40.549 90.7459 39.9254 90.7459 38.5671C90.7459 37.2087 89.9821 36.5803 88.822 36.5803H88.8316Z" fill="#BE3526"/>
<path d="M98.4658 41.4626L95.7346 37.4746V41.4626H94.7001V35.6618H95.7539L98.3546 39.4565V35.6667H99.3891V41.4675L98.4658 41.4626Z" fill="#BE3526"/>
<path d="M100.617 41.4626V35.6618H104.001V36.6286H101.729V38.0063H103.445L103.595 38.9345H101.695V40.5393H104.049V41.5062L100.617 41.4626Z" fill="#BE3526"/>
<path d="M107.414 41.5642C105.722 41.5642 104.663 40.3702 104.663 38.5719C104.663 36.7737 105.765 35.5652 107.404 35.5652C107.973 35.5493 108.534 35.6951 109.023 35.9857L108.864 37.0347C108.463 36.7122 107.967 36.5319 107.452 36.5223C106.427 36.5223 105.799 37.3054 105.799 38.5671C105.799 39.8288 106.471 40.5974 107.496 40.5974C108.016 40.5825 108.521 40.4144 108.946 40.114L109.101 41.0808C108.594 41.3962 108.01 41.5636 107.414 41.5642Z" fill="#BE3526"/>
<path d="M113.596 41.5207L111.281 38.6202V41.4433H110.164V35.6425H111.281V38.2335L113.388 35.6908H114.689L112.388 38.3979L114.805 41.337L113.596 41.5207Z" fill="#BE3526"/>
<path d="M118.803 41.5303C118.173 41.5358 117.55 41.4003 116.98 41.1339L117.149 40.114C117.654 40.4252 118.23 40.6016 118.822 40.6264C119.334 40.6264 119.687 40.3847 119.687 39.9206C119.687 39.4565 119.484 39.3163 118.643 38.9538C117.517 38.4704 117.067 38.1223 117.067 37.2232C117.067 36.1984 117.855 35.6038 118.938 35.6038C119.469 35.5888 119.995 35.7103 120.465 35.9567L120.301 36.967C119.896 36.6871 119.42 36.5294 118.928 36.5126C118.377 36.5126 118.131 36.7785 118.131 37.1314C118.131 37.4843 118.319 37.6776 119.122 38.016C120.316 38.4994 120.755 38.9151 120.755 39.8142C120.755 40.9406 119.919 41.5303 118.803 41.5303Z" fill="#BE3526"/>
<path d="M123.96 41.5642C122.559 41.5642 121.645 40.7327 121.645 39.2197V35.6667H122.752V39.1617C122.752 40.0414 123.158 40.6119 123.97 40.6119C124.782 40.6119 125.198 40.0753 125.198 39.2003V35.6667H126.315V39.2003C126.342 39.5167 126.299 39.8352 126.191 40.1336C126.082 40.4321 125.91 40.7032 125.686 40.9282C125.462 41.1532 125.191 41.3267 124.893 41.4365C124.595 41.5463 124.277 41.5899 123.96 41.5642Z" fill="#BE3526"/>
<path d="M130.598 41.5207L129.065 39.2438H128.582V41.4626H127.47V35.6618H129.268C130.564 35.6618 131.347 36.2758 131.347 37.4021C131.363 37.767 131.256 38.1268 131.042 38.4227C130.827 38.7186 130.519 38.9331 130.167 39.0311L131.733 41.308L130.598 41.5207ZM129.196 36.5561H128.582V38.3979H129.147C129.834 38.3979 130.264 38.0692 130.264 37.4649C130.264 36.8607 129.892 36.5561 129.196 36.5561Z" fill="#BE3526"/>
<path d="M135.011 41.5738C133.169 41.5738 132.164 40.3605 132.164 38.5719C132.164 36.7833 133.227 35.5555 134.992 35.5555C135.613 35.5485 136.225 35.716 136.756 36.0389L136.597 37.0734C136.138 36.724 135.578 36.5323 135.001 36.5271C133.865 36.5271 133.295 37.3489 133.295 38.5864C133.295 39.8239 133.899 40.6505 135.05 40.6505C135.387 40.6573 135.72 40.5756 136.016 40.4137V39.1085H134.866L134.716 38.2335H137.041V40.9986C136.433 41.3794 135.729 41.579 135.011 41.5738Z" fill="#BE3526"/>
<path d="M138.177 41.4626V35.6618H141.561V36.6286H139.294V38.0063H141.039L141.189 38.9345H139.294V40.5393H141.634V41.5062L138.177 41.4626Z" fill="#BE3526"/>
<path d="M145.646 41.5207L144.118 39.2438H143.635V41.4626H142.528V35.6618H144.326C145.622 35.6618 146.4 36.2758 146.4 37.4021C146.417 37.7664 146.31 38.1257 146.097 38.4215C145.883 38.7173 145.576 38.9322 145.225 39.0311L146.787 41.308L145.646 41.5207ZM144.244 36.5561H143.63V38.3979H144.191C144.882 38.3979 145.307 38.0692 145.307 37.4649C145.307 36.8607 144.94 36.5561 144.244 36.5561Z" fill="#BE3526"/>
<path d="M149.914 39.2438V41.4626H148.802V39.2535L146.772 35.8165L147.932 35.6328L149.382 38.2529L150.809 35.6908H151.993L149.914 39.2438Z" fill="#BE3526"/>
<path d="M154.25 39.2487C154.015 39.258 153.781 39.2178 153.562 39.1305C153.343 39.0433 153.146 38.911 152.981 38.7423C152.817 38.5736 152.691 38.3723 152.609 38.1514C152.528 37.9305 152.494 37.6949 152.51 37.4601C152.519 37.1167 152.628 36.7835 152.825 36.5022C153.023 36.2209 153.298 36.004 153.618 35.8788C153.938 35.7535 154.288 35.7253 154.623 35.7979C154.959 35.8705 155.266 36.0405 155.505 36.2867C155.745 36.5328 155.906 36.8442 155.97 37.1818C156.033 37.5194 155.995 37.8682 155.861 38.1844C155.727 38.5007 155.503 38.7703 155.216 38.9597C154.93 39.149 154.594 39.2495 154.25 39.2487ZM154.25 35.8649C153.933 35.8465 153.618 35.9236 153.346 36.0863C153.073 36.249 152.856 36.4897 152.722 36.7773C152.587 37.0649 152.543 37.3862 152.593 37.6996C152.643 38.0129 152.787 38.304 153.004 38.535C153.222 38.766 153.504 38.9264 153.814 38.9954C154.124 39.0644 154.447 39.0388 154.742 38.922C155.037 38.8052 155.29 38.6025 155.469 38.3401C155.648 38.0777 155.744 37.7678 155.744 37.4504C155.762 37.2468 155.736 37.0417 155.669 36.8486C155.602 36.6555 155.495 36.4788 155.355 36.33C155.215 36.1812 155.045 36.0637 154.856 35.9852C154.668 35.9067 154.464 35.869 154.26 35.8745L154.25 35.8649ZM154.69 38.3979L154.163 37.6196H154.018V38.3737H153.578V36.4063H154.255C154.71 36.4063 154.99 36.619 154.99 37.0057C154.996 37.1255 154.962 37.2439 154.894 37.3426C154.826 37.4414 154.727 37.5149 154.613 37.5519L155.169 38.3302L154.69 38.3979ZM154.207 36.7495H153.999V37.3102H154.202C154.41 37.3102 154.531 37.2184 154.531 37.0299C154.531 36.8413 154.444 36.7833 154.236 36.7833L154.207 36.7495Z" fill="#BE3526"/>
</svg>
