<svg width="216" height="48" viewBox="0 0 216 48" fill="none" xmlns="http://www.w3.org/2000/svg">
<path d="M54.473 33.5675H56.2914C56.7456 33.5675 56.994 33.4414 56.994 32.4712V20.6275C56.994 19.6158 56.8283 19.3628 56.2914 19.3628H54.473V16.2014H57.697C59.7217 16.2014 61.5807 15.9907 62.4906 15.78V19.8265C63.7301 17.1289 65.7137 15.6535 68.7715 15.6535C71.9951 15.6535 74.0614 17.1707 74.7635 20.3321C75.8382 17.2972 77.9871 15.6535 81.3759 15.6535C85.7563 15.6535 88.0294 18.14 88.0294 23.6619V32.4707C88.0294 33.4409 88.2768 33.567 88.7315 33.567H90.5494V36.7284H80.2186V33.567H81.7475C82.2027 33.567 82.4501 33.4409 82.4501 32.4707V23.9996C82.4501 20.8377 81.417 19.447 79.1444 19.447C76.5819 19.447 75.3013 21.5126 75.3013 25.4326V32.4712C75.3013 33.4414 75.5492 33.5675 76.0034 33.5675H77.7392V36.7289H67.491V33.5675H69.0199C69.4746 33.5675 69.7225 33.4414 69.7225 32.4712V23.62C69.7225 20.8382 68.5656 19.447 66.4163 19.447C63.8538 19.447 62.5732 21.5126 62.5732 25.4326V32.4712C62.5732 33.4414 62.8216 33.5675 63.2758 33.5675H64.8874V36.7289H54.4735V33.5675H54.473ZM97.323 27.54C97.4467 31.3749 99.3066 33.9047 103.067 33.9047C105.918 33.9047 107.571 32.4293 108.522 29.9428L111.663 31.3754C110.547 34.6637 107.82 37.2772 102.612 37.2772C95.2978 37.2772 91.6205 32.7665 91.6205 26.4442C91.6205 20.0372 95.8763 15.654 102.075 15.654C108.44 15.654 111.951 19.7005 111.951 26.4865V27.54H97.323ZM97.2404 24.674H106.331C106.249 20.5009 105.009 18.8996 102.075 18.8996C99.1409 18.8996 97.4878 20.6275 97.2404 24.674ZM121.372 19.8689C122.653 17.0447 124.966 15.654 128.19 15.654C132.447 15.654 134.72 18.1828 134.72 23.3251V32.4716C134.72 33.4419 134.968 33.5679 135.422 33.5679H137.24V36.7293H126.826V33.5679H128.438C128.893 33.5679 129.14 33.4419 129.14 32.4716V23.4512C129.14 20.5847 128.107 19.3628 125.834 19.3628C123.066 19.3628 121.454 21.4698 121.454 26.0642V32.4712C121.454 33.4414 121.701 33.5675 122.156 33.5675H123.768V36.7289H113.355V33.5675H115.173C115.628 33.5675 115.876 33.4414 115.876 32.4712V20.6275C115.876 19.6158 115.71 19.3628 115.173 19.3628H113.355V16.2014H116.578C118.603 16.2014 120.462 15.9907 121.372 15.78V19.8689ZM140.378 30.8698V19.3628H137.651V16.5391C137.651 16.5391 139.346 16.4126 139.221 16.4126C140.626 16.1596 141.535 15.6116 141.701 14.0944L142.114 10.3856H145.957V16.2023H149.965V19.3633H145.833V30.7851C145.833 33.0196 146.619 33.7786 148.395 33.7786C149.263 33.7786 149.8 33.6093 150.297 33.4414V36.687C149.511 36.9396 148.148 37.2349 146.701 37.2349C142.156 37.2344 140.378 35.4637 140.378 30.8698ZM151.699 33.5675H153.559C154.014 33.5675 154.22 33.3563 154.22 32.4712V21.0493C154.22 19.7423 154.014 19.3628 153.311 19.3628H151.699V16.2019H155.005C157.03 16.2019 158.89 15.9912 159.84 15.78V32.4712C159.84 33.3558 160.047 33.5675 160.502 33.5675H162.237V36.7284H151.7V33.5675H151.699ZM153.517 10.8489C153.517 8.95211 154.881 7.39258 156.989 7.39258C159.014 7.39258 160.46 8.95211 160.46 10.8489C160.46 12.7456 159.014 14.3056 156.989 14.3056C154.881 14.3051 153.517 12.7456 153.517 10.8489ZM163.765 26.4437C163.765 20.0372 168.104 15.6535 174.591 15.6535C180.914 15.6535 185.17 19.9954 185.17 26.4437C185.17 32.8926 180.873 37.2768 174.426 37.2768C168.021 37.2768 163.765 32.9354 163.765 26.4437ZM179.592 26.7391V26.1912C179.592 21.2591 177.98 19.0256 174.509 19.0256C170.996 19.0256 169.385 21.2591 169.385 26.1912V26.7391C169.385 31.6712 170.955 33.9042 174.468 33.9042C177.98 33.9042 179.592 31.6289 179.592 26.7391ZM194.632 19.8689C195.913 17.0447 198.226 15.654 201.45 15.654C205.707 15.654 207.98 18.1828 207.98 23.3251V32.4716C207.98 33.4419 208.228 33.5679 208.682 33.5679H210.5V36.7293H200.086V33.5679H201.698C202.152 33.5679 202.4 33.4419 202.4 32.4716V23.4512C202.4 20.5847 201.367 19.3628 199.094 19.3628C196.326 19.3628 194.714 21.4698 194.714 26.0642V32.4712C194.714 33.4414 194.961 33.5675 195.416 33.5675H197.028V36.7289H186.614V33.5675H188.432C188.887 33.5675 189.135 33.4414 189.135 32.4712V20.6275C189.135 19.6158 188.969 19.3628 188.432 19.3628H186.614V16.2014H189.837C191.862 16.2014 193.721 15.9907 194.631 15.78V19.8689H194.632Z" fill="#5A7281"/>
<path d="M25.1085 4C14.2783 4 5.49988 12.9535 5.49988 24C5.49988 35.0451 14.2783 44 25.1085 44C35.9388 44 44.7167 35.0451 44.7167 24C44.7167 12.9535 35.9388 4 25.1085 4ZM33.9037 36.9767L25.1085 30.4902L16.3134 36.9767L19.6661 26.507L10.8177 19.8433H21.7748L25.1085 9.33628L28.4423 19.8433H39.3985L30.5505 26.507L33.9037 36.9767Z" fill="#00A0DE"/>
</svg>
