<svg width="104" height="160" viewBox="0 0 104 160" fill="none" xmlns="http://www.w3.org/2000/svg">
<path d="M33.1484 156.001C33.1487 152.54 33.1463 149.079 33.1501 145.619C33.1541 141.989 35.8702 139.216 39.5005 139.203C41.1747 139.197 42.8892 139.114 44.5155 139.428C47.4296 139.991 49.3247 142.562 49.3269 145.545C49.3296 149.03 49.328 152.515 49.3281 156.001H45.0234C45.0295 152.514 45.0449 149.027 45.0368 145.54C45.034 144.33 44.1583 143.42 42.9492 143.378C41.813 143.339 40.673 143.336 39.537 143.378C38.3256 143.424 37.4473 144.325 37.4424 145.54C37.4283 149.027 37.4472 152.514 37.4531 156.001H33.1484Z" fill="black"/>
<path d="M20.3828 156.001C19.0728 155.613 17.8173 155.136 16.8522 154.096C15.6932 152.847 15.0462 151.399 15.0404 149.684C15.0353 148.225 15.0232 146.766 15.0439 145.307C15.0895 142.089 17.7442 139.301 20.9556 139.214C23.7976 139.137 26.6436 139.196 29.4877 139.198C29.5828 139.198 29.6778 139.228 29.8169 139.252V143.482H29.0205C26.5473 143.482 24.074 143.477 21.6007 143.485C20.0838 143.489 19.2158 144.352 19.1978 145.873C19.1845 147.011 19.184 148.149 19.1971 149.287C19.2147 150.831 20.1037 151.694 21.6646 151.696C24.3591 151.699 27.0537 151.697 29.8828 151.697V156.001H20.3828Z" fill="black"/>
<path d="M57.789 156.001C57.7766 154.789 57.8014 151.82 57.8014 151.82C53.972 151.183 52.0142 148.682 51.9133 145.51C51.8512 143.557 51.901 141.602 51.9038 139.647C51.9039 139.529 51.9332 139.411 51.9554 139.244H56.1914C56.1914 140.114 56.1913 140.947 56.1916 141.78C56.1919 142.893 56.1687 144.006 56.1988 145.119C56.2432 146.751 57.088 147.553 58.7175 147.558C59.6326 147.561 60.5479 147.564 61.4632 147.557C62.9435 147.544 63.8211 146.685 63.834 145.21C63.8489 143.504 63.8362 141.797 63.8394 140.09C63.84 139.824 63.8613 139.559 63.8751 139.243H68.1304V140.077C68.1304 141.71 68.1305 143.342 68.1304 144.975C68.1301 148.705 66.007 151.175 62.2422 151.746V156.001H57.789Z" fill="black"/>
<path d="M29.8237 145.492V149.694H21.0707V145.492H29.8237Z" fill="black"/>
<path d="M81.6146 139.195H76.7838C73.3655 139.195 70.5943 141.967 70.5943 145.385V149.752C70.5943 153.17 73.3655 155.941 76.7838 155.941H81.6146C85.033 155.941 87.8041 153.17 87.8041 149.752V145.385C87.8041 141.967 85.033 139.195 81.6146 139.195ZM83.3913 149.626C83.3913 150.806 82.4343 151.763 81.2538 151.763H76.9896C75.8091 151.763 74.8521 150.806 74.8521 149.626V145.601C74.8521 144.42 75.8091 143.463 76.9896 143.463H81.2538C82.4343 143.463 83.3913 144.42 83.3913 145.601V149.626Z" fill="black"/>
<path d="M52 4.00049L96.8281 17.3599V97.5161L52 129.875L7.17188 97.5161V17.3599L52 4.00049Z" fill="#2A3141"/>
<path d="M52 7.41467L93.7109 19.735V96.0319L52.0064 126.016L10.4375 96.0319V19.735L52 7.41467Z" fill="url(#paint0_radial_118_344)" fill-opacity="0.91"/>
<path d="M52.0742 7.31494L10.3633 19.6793V19.7347H10.4375H10.3633V96.0696L52.0742 126.157V125.967L52.0064 126.016L10.4375 96.0316V19.7347L52 7.41439L52.0742 7.43636V7.31494Z" fill="#262C3A"/>
<path d="M15.1875 29.3834V45.4147L52 65.899L88.8125 45.4147V29.3834L52 47.3444L15.1875 29.3834Z" fill="#ECEDEC"/>
<path d="M15.1875 52.5396V68.5708L52 92.6177L77.8281 75.6958V58.9224L52 73.9146L15.1875 52.5396Z" fill="#ECEDEC"/>
<path d="M15.1875 76.5864V92.6177L52 119.188L88.8125 92.6177V76.5864L52 100.633L15.1875 76.5864Z" fill="#ECEDEC"/>
<path d="M51.9258 7.51416L10.5117 19.7904V95.9939L51.9258 125.867V7.51416Z" fill="black" fill-opacity="0.07"/>
<defs>
<radialGradient id="paint0_radial_118_344" cx="0" cy="0" r="1" gradientUnits="userSpaceOnUse" gradientTransform="translate(52.0742 59.8523) scale(41.6367 59.3008)">
<stop stop-color="#A5C8E6"/>
<stop offset="1" stop-color="#353D4B"/>
</radialGradient>
</defs>
</svg>
