<svg width="440" height="78" viewBox="0 0 440 78" fill="none" xmlns="http://www.w3.org/2000/svg">
<path fill-rule="evenodd" clip-rule="evenodd" d="M76.4562 39.0008C76.4562 58.3303 60.7948 74 41.4789 74C22.1599 74 6.5 58.3303 6.5 39.0008C6.5 19.6697 22.1599 4 41.4789 4C60.7948 4 76.4562 19.6697 76.4562 39.0008Z" fill="#2D546F"/>
<path fill-rule="evenodd" clip-rule="evenodd" d="M67.4098 39.0598C67.4098 53.3596 55.8257 64.9486 41.5379 64.9486C27.2485 64.9486 15.666 53.3596 15.666 39.0598C15.666 24.7615 27.2485 13.1709 41.5379 13.1709C55.8257 13.1709 67.4098 24.7615 67.4098 39.0598Z" fill="#587A8D"/>
<path fill-rule="evenodd" clip-rule="evenodd" d="M41.5388 14.0857C27.7773 14.0857 16.5812 25.2889 16.5812 39.0598C16.5812 52.8307 27.7773 64.0339 41.5388 64.0339C55.3003 64.0339 66.4965 52.8307 66.4965 39.0598C66.4965 25.2889 55.3003 14.0857 41.5388 14.0857ZM41.5388 65.8642C26.7685 65.8642 14.752 53.8401 14.752 39.0598C14.752 24.2795 26.7685 12.2554 41.5388 12.2554C56.3091 12.2554 68.3249 24.2795 68.3249 39.0598C68.3249 53.8401 56.3091 65.8642 41.5388 65.8642Z" fill="#C1D72E"/>
<path fill-rule="evenodd" clip-rule="evenodd" d="M40.0484 65.5908C39.6239 65.9519 39.1493 66.2749 38.6485 66.5748C38.8567 65.9575 38.98 65.485 39.0253 65.2217C39.2892 63.7135 40.9324 61.3606 42.0763 59.5167C42.2035 59.3107 42.3092 59.0983 42.3967 58.8788C42.4126 61.1776 41.9698 63.976 40.0484 65.5908ZM33.6943 33.6891C33.2332 33.1975 31.7848 31.6535 28.6932 30.2193C25.5786 28.7708 20.6045 29.7039 18.4478 31.4101C19.463 29.9616 21.6666 27.0486 23.6023 25.7155C30.6273 20.8696 41.6391 18.4052 44.5359 17.8858C39.2868 22.7492 35.1896 27.9968 33.6943 33.6891ZM50.855 34.016C49.3955 33.7599 47.4947 33.5944 46.249 34.0964C45.3523 34.4599 44.6957 35.4972 44.0876 36.4628C44.0701 36.4358 44.0534 36.4096 44.0359 36.3841C43.5009 35.5011 42.6248 34.6898 41.4594 34.3239C40.3823 33.985 38.4791 34.4543 37.0037 34.9372C37.0116 34.9101 37.0212 34.8863 37.0267 34.8656C38.7542 28.7939 42.1638 25.0759 45.7395 21.0175C44.1941 27.0288 47.6696 31.3902 50.855 34.016ZM53.1167 62.6421C50.3518 61.8172 49.0552 60.8602 47.893 59.8946C46.7308 58.9233 45.7395 55.3931 43.7513 54.2341C41.7639 53.0703 39.4951 50.6776 37.8153 48.0622C36.3534 45.7872 36.2763 40.8068 36.572 37.5781C38.1182 36.6609 40.0913 36.0588 40.957 36.3324C41.6757 36.5575 42.1773 36.6164 42.6391 37.38C42.7719 37.5988 42.915 37.8016 43.0676 37.9877C42.4953 38.7856 41.8935 39.4251 41.1192 39.581C38.8989 40.0313 38.3178 41.4138 38.2351 41.7622C38.2351 41.7622 38.8019 40.4696 41.2193 40.0663C42.1264 39.9143 42.8037 39.204 43.4095 38.3696C43.6503 38.613 43.9158 38.8285 44.2219 39.0234C44.8754 39.4434 45.8102 39.581 46.7999 39.7314C47.8946 39.8936 48.8629 39.6558 50.0903 40.39C51.3201 41.1226 51.3248 44.2146 50.3041 45.2622C49.0537 46.5556 46.8389 46.1324 46.2681 49.4693C47.4526 47.4417 48.436 47.293 48.436 47.293C48.436 47.293 50.8304 46.9541 51.4997 45.4046C51.84 44.6171 52.0014 43.8136 52.0777 43.2123C52.2589 43.5893 52.5014 43.9353 52.9712 44.1422C53.0563 44.1827 53.1461 44.2153 53.2319 44.2543C53.7797 45.1301 54.6414 47.1832 54.0508 50.9433C53.9172 51.7976 53.9283 52.5907 53.767 53.2239C53.2176 55.3358 52.3607 56.2347 52.0594 56.4988C52.4386 56.1861 53.7367 55.0097 54.4729 53.0011C54.701 52.3823 54.7543 51.6377 54.8529 50.8709C55.4077 51.5017 57.9007 55.0001 63.5354 54.7392C62.9145 54.6644 60.6449 54.1999 58.7386 53.2485C56.9786 52.3719 55.554 51.0602 55.4316 49.704C55.1875 47.005 55.7321 47.3884 54.837 44.726C55.3569 44.8 55.8609 44.8366 56.4428 45.2646C56.9953 45.6734 57.4047 46.2278 57.7274 46.7473C58.0868 47.3232 58.3507 47.7153 59.0439 48.1449C59.6552 48.5188 60.4677 48.4336 61.3429 48.5538C62.3207 48.689 63.0028 48.7327 64.6348 48.9984C63.8049 48.4957 62.517 48.1003 61.4192 47.9508C60.6791 47.8506 59.978 47.7567 59.5924 47.5165C59.148 47.2428 58.8833 46.8149 58.5749 46.3209C58.2243 45.749 57.8244 45.1078 57.0803 44.5566C56.1908 43.9011 55.4753 43.7667 54.8409 43.6506C54.4451 43.5782 54.069 43.509 53.6286 43.3149C53.2288 43.1383 53.0642 42.8297 52.7574 42.2076C52.4298 41.541 52.0212 40.7153 51.0379 39.8968C49.8955 38.9455 48.3469 38.7164 46.9836 38.5096C46.1282 38.3799 45.5908 38.0721 45.1615 37.796C44.8754 37.6131 44.6313 37.3084 44.3952 36.9544C45.0431 36.1288 45.877 35.3023 46.6998 34.9666C48.754 34.1353 51.6667 34.9976 52.7224 35.5417C53.7797 36.0874 54.5699 36.5392 54.9459 36.7436C57.066 37.8931 57.2695 40.153 60.3373 41.3525C60.7268 41.5044 61.0949 41.6317 61.451 41.7463C63.3144 42.5123 64.7405 43.6148 65.7859 44.3689C67.2009 45.3894 68.674 46.4943 70.2591 46.2302C73.2999 45.7243 74.4764 46.9358 74.4764 46.9358C74.2435 46.585 73.0161 45.2725 70.19 45.6519C68.8513 45.8301 67.5507 44.8931 66.1746 43.8988C65.5013 43.4159 65.0132 42.8273 64.4917 42.3611C68.4943 42.5616 69.0556 39.6296 69.0556 39.6296C67.356 43.1351 60.6998 40.9198 59.7927 39.7934C58.8857 38.6678 56.1955 35.6897 53.2383 34.2125C50.2827 32.7353 48.4725 30.3164 47.3906 26.0623C46.6179 23.0284 48.4121 18.313 50.1722 16.4707C51.049 15.5519 54.864 12.1896 58.3173 8.32126C57.6527 7.95535 56.9738 7.61171 56.283 7.28955C53.6636 9.79921 51.1412 11.7974 50.6913 12.1267C49.6626 12.8752 45.7768 15.4541 37.7454 17.5096C33.3938 18.6224 25.0134 22.1351 21.1522 25.8356C14.0477 32.6399 13.8363 37.6155 13.7878 42.8321C13.2329 43.9067 11.6287 46.5222 8.04102 49.2991C8.07043 49.3946 8.10143 49.4892 8.13085 49.5847C10.9362 48.0741 12.81 45.9677 13.7639 44.691C13.756 45.1914 13.7401 45.6941 13.713 46.2064C13.6232 47.9222 13.3919 49.673 12.6136 51.1422C11.9562 52.3902 11.0579 53.5078 10.1318 54.5308C10.2335 54.7368 10.3392 54.9405 10.445 55.1457C14.5191 51.3649 15.0311 47.1896 15.3665 42.9434C15.7322 43.5933 16.2418 44.1931 16.9469 44.6696C20.1705 46.8324 23.0967 44.9153 23.0967 44.9153C23.0856 44.9241 20.4519 45.9033 17.5058 43.9218C16.3833 43.1685 15.8077 42.0422 15.5263 40.9126C15.609 39.9549 15.71 38.9924 15.8713 38.0371C16.7808 32.3639 21.2953 31.4061 24.3456 31.2455C23.4998 31.7307 21.4249 33.1283 21.5775 35.6769C21.7151 37.9233 21.3184 39.3408 20.0043 41.0097C20.5711 40.7432 21.3573 39.8006 21.8383 38.5382C22.3177 41.1131 23.4266 42.5735 23.4918 42.6594C23.4918 42.6594 22.3789 40.6302 22.1515 37.4428C22.2382 37.0022 22.2827 36.5392 22.2668 36.0659C22.1714 33.2826 26.0063 31.3489 26.0357 31.325C26.0357 31.325 27.1263 31.4531 27.678 31.613C27.8474 31.6591 28.0151 31.7196 28.1836 31.7919C28.0564 31.9661 27.3887 32.9215 27.1073 34.1171C26.7972 35.4423 28.1868 36.8041 28.1868 36.8041C28.1868 36.8041 28.7504 37.3713 28.5446 39.2501C29.7775 36.8152 28.1407 36.0301 27.9499 34.5975C27.8267 33.678 28.6082 32.8364 29.1821 32.3519C30.9509 33.5547 32.4931 35.2792 33.1338 36.2234C32.5289 41.623 34.0147 47.1132 35.2564 49.5003C35.3685 49.7183 35.5044 49.9386 35.6578 50.1582C35.6276 51.5089 35.2246 54.2548 32.7411 55.8091C31.7713 56.4152 30.5701 57.0039 29.2974 57.6267C27.5906 58.4651 26.585 59.1993 24.7971 60.4092C23.0768 61.5706 21.8272 63.3771 20.653 65.178C20.653 65.178 22.2827 62.8274 24.9275 61.0559C26.767 59.8238 28.2162 58.9822 29.6257 58.2925C30.4 57.9131 31.4597 57.5177 32.3993 57.1256C31.7641 61.2914 35.5513 61.8331 35.8613 61.8673C35.6594 61.8434 34.0981 61.6 33.4796 60.0393C32.7666 58.24 33.5075 56.953 34.238 56.2028C36.0959 54.9627 36.9926 53.3861 37.4242 52.1651C38.5984 53.2796 39.9776 54.316 41.1255 55.0908C41.2647 55.9531 41.3974 57.5861 40.6979 58.7133C40.1128 59.6535 38.3639 62.9356 37.8042 65.0077C37.588 65.8159 37.4664 66.5453 37.3074 67.2748C33.5758 68.989 29.066 69.4217 29.066 69.4217C29.2942 69.4257 33.4121 69.4519 37.1158 68.0678C36.7342 69.4846 36.0466 71.0158 34.1387 73.2216C34.3279 73.263 34.5163 73.3019 34.7055 73.3377C36.4735 71.3419 37.6055 69.1958 38.2677 67.581C39.0833 67.1913 39.8536 66.7267 40.5285 66.1564C43.6567 63.525 43.4874 58.5463 43.2282 56.3532C44.6114 57.1335 46.1831 60.3153 46.1831 60.3153C47.2372 61.5594 49.793 63.0724 52.2677 63.6547C54.74 64.2369 58.4477 65.1119 60.2665 65.8875C60.9931 66.1977 61.7118 66.6336 62.4391 67.021C62.5568 66.9327 62.6697 66.8373 62.7881 66.745C62.4455 66.4602 62.1029 66.1277 61.734 65.7531C60.4009 64.4 55.8792 63.4669 53.1167 62.6421Z" fill="white"/>
<path fill-rule="evenodd" clip-rule="evenodd" d="M428.893 48.9908V47.5112H430.088C430.599 47.5112 431.134 47.5892 431.134 48.243C431.134 49.091 430.265 48.9908 429.672 48.9908H428.893ZM430.372 49.3957C431.113 49.3766 431.684 49.0679 431.684 48.251C431.684 47.5597 431.31 47.1453 430.206 47.1453H428.379V51.3191H428.893V49.3957H429.828L431.025 51.3191H431.636L430.372 49.3957ZM432.906 49.2262C432.906 51.0637 431.586 52.4852 429.77 52.4852C427.947 52.4852 426.612 51.0637 426.612 49.2262C426.612 47.4134 427.947 45.9887 429.77 45.9887C431.586 45.9887 432.906 47.4134 432.906 49.2262ZM426.021 49.2262C426.021 51.3 427.698 52.9776 429.77 52.9776C431.831 52.9776 433.5 51.3 433.5 49.2262C433.5 47.174 431.831 45.4979 429.77 45.4979C427.698 45.4979 426.021 47.174 426.021 49.2262ZM408.629 45.5433C408.188 45.5433 407.928 45.6459 407.928 45.8273C407.928 46.011 408.162 46.2194 408.655 46.3244C409.798 46.5845 410.11 46.9481 411.332 48.7681C412.579 50.6684 414.194 53.2942 414.633 54.2304C414.713 54.4381 414.868 55.0354 414.868 55.1659C414.868 56.6741 414.868 59.4836 414.791 60.5519C414.765 60.913 414.505 61.4866 413.101 61.8C412.553 61.9034 412.369 62.1102 412.369 62.2677C412.369 62.4228 412.579 62.5541 413.023 62.5541C413.412 62.5541 415.102 62.3974 416.661 62.3974C417.259 62.3974 418.532 62.5024 418.924 62.5024C419.441 62.5024 419.701 62.4228 419.701 62.2152C419.701 62.0338 419.519 61.8771 419.001 61.7483C417.545 61.3832 417.259 61.0713 417.156 60.5257C417.052 59.6944 416.998 56.4657 416.998 55.0092C416.998 54.6735 417.365 53.8399 417.648 53.4238C418.532 52.1495 419.886 49.8594 421.107 48.3258C421.965 47.2599 422.719 46.6084 423.941 46.2974C424.381 46.1661 424.616 46.0373 424.616 45.8273C424.616 45.6721 424.356 45.5687 424.07 45.5687C423.652 45.5687 422.145 45.6721 421.183 45.6721C420.586 45.6721 420.171 45.6459 419.493 45.6459C419.209 45.6459 418.898 45.6992 418.898 45.879C418.898 46.0627 419.053 46.2974 419.441 46.4008C420.456 46.6362 420.744 46.948 420.197 47.8843C419.545 48.9502 417.572 52.2012 416.845 53.2425C416.793 53.3459 416.635 53.3721 416.583 53.2942C415.413 51.3954 413.491 48.1961 413.179 47.5971C412.813 46.9202 412.632 46.6084 413.569 46.4008C413.958 46.2974 414.138 46.089 414.138 45.9084C414.138 45.7517 413.983 45.6204 413.569 45.6204C412.528 45.6204 412.321 45.6721 411.591 45.6721C410.372 45.6721 409.018 45.5433 408.629 45.5433ZM392.201 53.3737C392.021 53.3737 391.943 53.3475 391.917 52.8519C391.891 52.4112 391.917 48.9757 391.993 48.119C392.072 47.0252 392.15 46.6362 393.371 46.4024C393.918 46.2974 394.127 46.1677 394.127 45.9092C394.127 45.7517 393.841 45.6204 393.294 45.6204C392.697 45.6204 391.917 45.6737 390.824 45.6737C390.147 45.6737 389.187 45.6204 388.46 45.6204C388.044 45.6204 387.705 45.7254 387.705 45.9092C387.705 46.1176 387.887 46.2974 388.432 46.4024C389.524 46.6362 389.68 47.0013 389.732 47.8843C389.784 49.0298 389.732 51.4225 389.732 51.891C389.732 56.13 389.577 59.0692 389.498 60.1351C389.393 61.1493 389.187 61.4086 387.86 61.7483C387.576 61.827 387.265 61.9821 387.265 62.2407C387.265 62.399 387.47 62.5024 388.044 62.5024C388.927 62.5024 390.018 62.399 390.617 62.399C391.553 62.399 393.139 62.5024 393.32 62.5024C393.657 62.5024 394.1 62.4507 394.073 62.2407C394.046 61.9821 393.867 61.8771 393.294 61.722C392.201 61.3848 391.917 60.9146 391.891 59.6928C391.891 58.9379 391.838 55.6082 391.891 54.9336C391.891 54.7252 392.098 54.4913 392.175 54.4913C392.697 54.4396 397.818 54.5168 401.846 54.5168C402.054 54.5168 402.156 54.5956 402.156 55.0609C402.156 56.363 402.107 58.1584 402.054 59.2513C401.974 61.0976 401.846 61.3848 400.442 61.8016C400.157 61.8771 399.87 62.0338 399.87 62.2677C399.87 62.5024 400.13 62.5541 400.521 62.5541C401.04 62.5541 402.991 62.399 403.563 62.399C404.368 62.399 405.302 62.4769 405.72 62.4769C406.213 62.4769 406.447 62.399 406.447 62.189C406.447 62.0084 406.213 61.827 405.848 61.6966C404.68 61.3569 404.42 61.2543 404.368 60.2385C404.368 59.8487 404.263 57.5332 404.263 56.3917C404.263 51.969 404.34 49.1332 404.47 47.8055C404.523 47.053 404.731 46.5845 405.824 46.3244C406.369 46.194 406.576 46.0126 406.576 45.8805C406.576 45.6737 406.264 45.5703 405.848 45.5703C405.564 45.5703 404.368 45.6475 403.484 45.6475C402.833 45.6475 401.169 45.5958 400.832 45.5958C400.287 45.5958 400.025 45.6992 400.025 45.8805C400.025 46.1176 400.312 46.2711 400.677 46.3761C401.846 46.6895 402.028 46.8963 402.107 47.8588C402.183 48.873 402.183 52.28 402.156 52.6196C402.107 53.1391 402.028 53.2958 401.872 53.2958C397.272 53.2958 393.734 53.3737 392.201 53.3737ZM383.469 45.6475C382.402 45.6737 378.866 45.6992 377.517 45.6992C374.188 45.6992 372.107 45.622 371.435 45.5441C371.042 45.5186 370.626 45.1265 370.55 45.0501C370.264 44.8146 370.264 44.6325 370.133 44.6325C369.977 44.6325 369.743 44.8663 369.743 45.0501C369.743 46.5845 369.249 47.9893 369.249 48.4817C369.249 48.7426 369.353 49.0799 369.508 49.0799C369.614 49.0799 369.768 49.1053 370.003 48.5612C370.445 47.7006 370.757 47.2853 370.863 47.2082C371.25 46.7675 371.796 46.6084 372.783 46.6084C373.199 46.6084 375.488 46.6601 376.008 46.7412C376.087 46.7412 376.216 46.8701 376.216 47.0785V50.1728C376.216 52.1766 376.087 57.4831 376.032 59.0191C375.956 60.9679 375.905 61.407 374.083 61.8254C373.85 61.8771 373.591 62.0856 373.591 62.2693C373.591 62.4252 373.85 62.5811 374.371 62.5811C374.707 62.5811 376.032 62.399 377.333 62.399C378.477 62.399 380.089 62.5262 380.298 62.5262C380.558 62.5262 381.023 62.5008 381.023 62.2152C381.023 62.0323 380.659 61.8254 380.323 61.7483C378.711 61.3848 378.582 61.0729 378.451 59.902C378.346 58.9379 378.346 56.4673 378.346 53.4509V47.0785C378.346 47.0236 378.451 46.7675 378.582 46.7412C378.893 46.6601 381.777 46.6601 382.22 46.6895C383.832 46.7675 384.169 46.8963 384.326 48.2494C384.404 48.8969 384.508 49.0799 384.689 49.0799C384.897 49.0799 385.105 48.8198 385.131 48.5867C385.288 47.2336 385.444 46.4294 385.704 45.622C385.833 45.2585 385.73 45.0246 385.601 45.0246C385.496 45.0246 385.418 45.0748 385.234 45.1782C384.873 45.4383 384.404 45.5958 383.469 45.6475ZM364.257 54.3068C364.283 54.384 364.207 54.5168 364.18 54.5168C363.323 54.594 361.167 54.5701 360.125 54.594C360.021 54.594 359.971 54.5168 359.997 54.4102C360.203 53.606 361.554 49.9644 362.022 48.7163C362.099 48.5334 362.153 48.5596 362.231 48.7163C362.466 49.0799 363.817 52.9808 364.257 54.3068ZM363.426 45.879C363.22 45.307 363.116 45.2036 363.01 45.2036C362.881 45.2036 362.777 45.307 362.595 45.5154C362.413 45.8034 362.049 46.4779 361.816 46.7913C361.762 46.8701 361.762 46.9202 361.762 46.9998C361.762 47.1286 361.712 47.337 361.607 47.5454C360.463 50.355 357.5 58.2085 356.901 59.5353C356.148 61.2265 355.809 61.3036 354.51 61.7483C354.122 61.8755 353.94 62.1102 353.94 62.2677C353.94 62.4228 354.069 62.5286 354.537 62.5286C354.927 62.5286 356.279 62.3974 357.241 62.3974C358.203 62.3974 358.851 62.4769 359.293 62.4769C359.632 62.4769 360.021 62.3974 360.021 62.1357C360.021 61.9567 359.763 61.8 359.32 61.6687C358.151 61.3036 358.048 60.8629 358.048 60.5519C358.048 59.9004 358.72 57.6899 359.397 55.9995C359.45 55.92 359.579 55.7911 359.684 55.7911C360.229 55.7116 362.518 55.6861 363.946 55.6861C364.7 55.6861 364.803 55.8428 364.83 55.9478C365.427 57.6103 366.077 59.3293 366.286 60.3944C366.391 60.9393 366.494 61.4587 365.245 61.722C364.778 61.8 364.622 62.0084 364.622 62.1357C364.622 62.2677 364.778 62.4491 365.427 62.4491C366.077 62.4491 366.442 62.3974 367.274 62.3974C368.418 62.3974 369.693 62.5286 370.548 62.5286C371.197 62.5286 371.381 62.3727 371.381 62.189C371.381 62.0084 371.173 61.8755 370.757 61.7483C369.588 61.4587 369.171 61.2527 368.314 59.1209C367.872 58.0534 365.923 52.9036 364.57 49.1053C364.076 47.7538 363.634 46.5845 363.426 45.879ZM348.169 46.2194C350.611 46.2194 352.405 48.2741 352.405 50.6413C352.405 53.6307 350.48 54.8541 349.103 54.8541H348.452C348.246 54.8541 348.143 54.9837 348.143 55.0887C348.143 55.2454 348.272 55.3727 348.584 55.5048C349 55.6599 349.677 55.6861 349.96 55.6861C351.079 55.6861 352.275 55.1142 352.951 54.5423C353.706 53.8916 354.771 52.8257 354.771 50.5101C354.771 49.651 354.51 48.1707 353.263 46.9735C352.302 46.0627 350.769 45.4383 348.402 45.4383C347.102 45.4383 345.101 45.6459 344.062 45.6459C343.826 45.6459 343.384 45.6204 343.202 45.6459C342.865 45.6737 342.605 45.8034 342.605 46.011C342.605 46.1661 342.892 46.3228 343.412 46.4008C344.867 46.6084 344.841 46.9735 344.867 47.909C344.894 48.7426 344.946 54.2551 344.946 55.1142C344.946 56.4155 344.894 58.5728 344.815 59.8217C344.736 60.913 344.451 61.4086 342.995 61.7483C342.733 61.8254 342.474 61.9806 342.474 62.1635C342.474 62.3974 342.76 62.5262 343.202 62.5262C344.009 62.5262 345.073 62.4228 345.827 62.4228C346.973 62.4228 347.907 62.5262 348.556 62.5262C348.948 62.5262 349.416 62.4491 349.416 62.2152C349.416 61.9806 349.207 61.8509 348.715 61.7204C347.388 61.3299 347.18 61.1231 347.153 59.4319C347.153 58.782 347.102 56.5969 347.102 54.2304C347.128 51.2403 347.128 48.0132 347.153 47.4675C347.18 46.8431 347.31 46.5296 347.415 46.4525C347.623 46.3228 347.882 46.2194 348.169 46.2194ZM326.879 47.5454C327.789 46.6362 329.377 46.0627 330.466 46.0627C331.665 46.0627 333.301 46.6084 334.366 47.4675C336.288 49.0274 337.513 51.7582 337.513 54.594C337.513 57.6899 336.341 59.7954 335.301 60.7325C335.018 61.0443 334.026 61.9805 331.87 61.9805C327.712 61.9805 324.852 57.5316 324.852 53.6561C324.852 50.6135 325.735 48.6646 326.879 47.5454ZM340.058 53.8144C340.058 48.8715 336.028 45.202 331.038 45.202C329.219 45.202 326.982 45.9855 325.713 47.0236C323.735 48.6129 322.331 50.8219 322.331 54.0228C322.331 56.2573 323.112 58.3684 324.487 59.8988C326.075 61.722 328.594 62.8635 331.247 62.8635C332.572 62.8635 334.732 62.5008 336.367 61.3585C338.265 60.0038 340.058 57.456 340.058 53.8144ZM314.455 47.337C315.209 48.0927 315.624 49.3153 315.624 49.9382C315.624 51.576 314.61 52.7238 313.91 53.1653C313.547 53.396 312.168 53.8399 310.661 53.8399C310.504 53.8399 310.296 53.6577 310.245 53.4509C310.166 53.007 310.245 47.9861 310.322 47.0785C310.322 46.9735 310.504 46.5845 310.634 46.5296C310.921 46.4008 311.752 46.3507 311.881 46.3507C312.716 46.3507 313.831 46.7412 314.455 47.337ZM315.832 53.5288C317.106 52.7469 317.938 51.292 317.938 49.888C317.938 48.6408 317.315 47.337 316.455 46.6362C315.417 45.7771 314.015 45.5441 312.218 45.5441C310.816 45.5441 308.97 45.6737 308.008 45.6737H306.553C305.979 45.6737 305.851 45.8034 305.851 45.9855C305.851 46.1924 306.084 46.3244 306.475 46.4294C307.645 46.7134 307.879 46.7675 307.982 47.726C308.088 48.7426 308.141 51.1099 308.141 55.1142C308.141 56.6757 308.035 59.4319 307.982 60.2385C307.903 61.228 307.437 61.3848 306.293 61.7483C305.954 61.8771 305.721 61.9288 305.721 62.1373C305.721 62.399 306.058 62.5024 306.398 62.5024C306.683 62.5024 308.035 62.399 308.503 62.399C310.269 62.399 310.766 62.5541 311.856 62.5541C311.985 62.5541 312.479 62.4769 312.479 62.2152C312.479 62.0856 312.298 61.9034 311.856 61.7737C310.634 61.4882 310.348 61.1215 310.296 60.0317C310.219 58.5195 310.166 55.2208 310.193 54.7785C310.193 54.699 310.322 54.4667 310.504 54.4667C311.284 54.4667 312.246 54.699 312.349 54.8024C312.506 54.9074 313.026 55.558 313.391 56.1037C314.43 57.7416 315.757 59.7461 316.665 60.9942C317.418 61.9551 318.901 62.6845 320.122 62.6845C320.667 62.6845 321.24 62.6296 321.55 62.5024C321.708 62.4212 321.917 62.3178 321.917 62.1651C321.917 62.0617 321.708 61.8533 321.5 61.8016C320.355 61.5621 319.653 61.096 318.952 60.264C317.366 58.4972 315.183 54.9853 314.923 54.3617C314.872 54.2551 314.947 54.0228 315.027 53.9695C315.209 53.8399 315.703 53.606 315.832 53.5288ZM286.484 45.5942C286.071 45.5942 285.73 45.6976 285.73 45.9084C285.73 46.1407 286.016 46.2695 286.328 46.3491C287.317 46.5567 287.68 46.9735 287.732 47.4675C287.757 47.804 287.838 49.8865 287.838 53.6307C287.838 58.0017 288.461 59.9004 289.915 61.2798C290.541 61.8509 292.281 62.8118 294.621 62.8118C295.764 62.8118 297.17 62.6575 298.365 61.9805C300.236 60.9393 301.483 58.6524 301.611 54.1278C301.665 52.7724 301.82 49.8865 301.85 48.7665C301.901 47.1286 302.421 46.6879 303.536 46.3745C303.901 46.2441 304.109 46.0627 304.109 45.9084C304.109 45.6976 303.875 45.6204 303.46 45.6204C302.73 45.6204 302.184 45.6721 301.12 45.6721C300.288 45.6721 299.558 45.5942 298.909 45.5942C298.467 45.5942 298.314 45.6976 298.314 45.8527C298.314 46.0373 298.6 46.2695 298.857 46.3228C300.313 46.6617 300.496 47.0236 300.576 48.0132C300.599 48.3258 300.679 49.6788 300.679 51.3676C300.679 54.3346 300.418 56.519 300.107 57.8967C299.454 60.7579 296.934 61.5383 295.247 61.5383C293.894 61.5383 292.204 60.913 291.478 60.1088C290.67 59.198 290.02 58.0788 290.02 55.1396C290.02 51.4471 289.994 48.7426 290.123 47.8843C290.278 46.8431 290.773 46.5829 291.712 46.4008C292.204 46.2974 292.49 46.116 292.49 45.9084C292.49 45.6976 292.177 45.6204 291.682 45.6204C291.11 45.6204 290.123 45.6721 289.161 45.6721C288.201 45.6721 287.579 45.5942 286.484 45.5942ZM276.426 45.6737C274.684 45.6737 273.67 45.5703 272.449 45.5703C272.084 45.5703 271.719 45.6992 271.719 45.9338C271.719 46.1423 271.927 46.2457 272.474 46.3745C273.618 46.6362 273.878 46.948 273.931 48.0927C273.982 48.8452 273.956 49.3925 273.956 52.4884C273.956 55.7116 273.827 58.7836 273.748 59.8766C273.645 61.2798 273.15 61.4603 271.851 61.7737C271.435 61.8771 271.124 62.0084 271.124 62.189C271.124 62.4769 271.408 62.5262 271.903 62.5262C272.891 62.5262 273.462 62.399 274.84 62.399C279.076 62.399 283.003 62.6058 283.287 62.6058C283.416 62.6058 283.651 62.399 283.728 62.294C283.911 62.0601 284.64 59.7183 284.665 59.5099C284.717 59.2259 284.64 58.8075 284.458 58.8075C284.301 58.8075 284.146 58.9626 283.861 59.5353C283.235 60.7579 282.534 61.2543 281.702 61.4603C281.129 61.6186 279.545 61.6433 279.233 61.6433C278.194 61.6433 277.309 61.5383 276.869 61.4603C276.685 61.4086 276.476 61.2026 276.374 60.8892C276.219 60.4724 276.114 59.4836 276.114 58.7303C276.114 57.6127 276.087 55.1929 276.193 54.6473C276.193 54.594 276.322 54.4118 276.426 54.4118C277.127 54.4118 278.168 54.4118 278.999 54.4667C280.582 54.5423 280.687 54.6202 281.052 55.8166C281.129 56.1037 281.312 56.3901 281.494 56.3901C281.675 56.3901 281.806 56.1037 281.779 55.6344C281.754 55.1158 281.702 54.7507 281.702 54.0483C281.702 53.4238 281.728 52.9036 281.779 52.1766C281.806 51.969 281.754 51.6038 281.572 51.6038C281.417 51.6038 281.26 51.7598 281.104 52.1495C280.635 53.3459 280.532 53.4493 278.089 53.4493H276.399C276.269 53.4493 276.244 53.2942 276.219 53.1908C276.165 52.8002 276.244 47.9105 276.296 47.2599C276.347 46.6617 276.634 46.5296 276.685 46.5296C277.829 46.4779 279.701 46.5296 280.375 46.6362C281.209 46.7675 281.779 47.0252 282.119 48.4045C282.172 48.6646 282.299 49.0298 282.534 49.0298C282.767 49.0298 282.924 48.7179 282.924 48.3528C282.924 47.831 282.871 47.0785 282.871 45.8805C282.847 45.7517 282.717 45.5703 282.638 45.5958C282.248 45.6475 281.104 45.6737 280.247 45.6737H276.426ZM251.602 45.5942C251.005 45.5942 250.743 45.6976 250.743 45.9084C250.743 46.116 251.031 46.2441 251.317 46.3228C252.485 46.6362 252.772 46.6617 253.5 47.5208C253.552 47.5971 253.681 47.831 253.681 48.7665C253.681 50.9269 253.318 57.1696 253.189 59.276C253.084 61.201 252.59 61.3036 251.368 61.722C251.108 61.8 250.847 61.9551 250.847 62.1635C250.847 62.4228 251.16 62.4491 251.525 62.4491C251.965 62.4491 252.642 62.3974 253.214 62.3974C254.151 62.3974 255.242 62.5262 255.995 62.5262C256.489 62.5262 256.826 62.4491 256.826 62.1874C256.826 62.0338 256.723 61.8509 256.178 61.722C254.93 61.3553 254.643 60.9679 254.539 59.7716C254.488 58.9626 254.565 54.9559 254.565 52.618C254.591 50.5896 254.67 49.8594 254.694 49.1586C254.694 49.0274 254.877 48.9741 254.981 49.1053C257.322 51.9133 261.818 56.9859 264.262 59.9004C264.962 60.7579 265.431 61.4349 265.874 61.9805C266.108 62.294 266.679 62.8118 267.042 62.8118C267.276 62.8118 267.406 62.5262 267.406 62.2677C267.406 61.8509 267.224 59.9004 267.224 58.8075C267.224 54.3346 267.458 49.2103 267.511 48.2741C267.586 46.8693 268.058 46.6362 269.175 46.3745C269.64 46.2441 269.799 46.011 269.799 45.8527C269.799 45.6459 269.64 45.5687 269.2 45.5687C268.523 45.5687 267.693 45.6721 266.756 45.6721C265.925 45.6721 265.197 45.6459 264.521 45.6459C264.208 45.6459 263.847 45.6976 263.847 45.879C263.847 46.089 264.027 46.2974 264.547 46.4525C265.976 46.8693 266.158 47.4937 266.185 48.0394C266.263 48.8452 266.316 49.7544 266.316 50.6413C266.316 54.3863 266.393 57.1959 266.263 58.0271C266.263 58.1051 266.158 58.3668 266.003 58.2085C264.262 56.3113 258.542 50.0678 257.373 48.5851C256.36 47.2599 255.709 46.4779 255.319 46.011C255.164 45.8527 254.93 45.6721 254.774 45.6721C253.447 45.6721 252.174 45.5942 251.602 45.5942ZM232.549 45.6204C231.978 45.6204 231.768 45.7493 231.768 45.9338C231.768 46.116 231.978 46.3228 232.498 46.4278C233.718 46.6617 233.848 47.1541 233.874 47.7284C233.901 48.5851 233.901 50.3812 233.901 51.4209C233.901 55.1929 233.823 59.3293 233.769 59.98C233.64 60.9942 233.277 61.4866 231.847 61.7737C231.432 61.8509 231.222 62.0601 231.222 62.2407C231.222 62.4769 231.484 62.5262 231.978 62.5262C232.341 62.5262 233.563 62.399 235.332 62.399C240.607 62.399 242.973 62.5541 243.284 62.5541C243.388 62.5541 243.882 62.399 243.909 62.1102C244.117 61.1215 244.298 60.5758 244.714 59.303C244.818 58.8862 244.741 58.6007 244.609 58.6007C244.48 58.6007 244.246 58.7041 243.961 59.1726C243.259 60.159 242.842 60.5495 242.479 60.913C241.958 61.3832 241.646 61.3832 241.438 61.4086C241.05 61.4603 240.32 61.4866 239.593 61.4866C238.735 61.4866 237.773 61.4603 237.099 61.3569C236.889 61.3299 236.266 60.7341 236.214 60.369C236.111 59.5099 236.032 57.0113 236.032 54.9837C236.032 51.1337 236.032 48.5079 236.189 47.3386C236.24 46.948 236.422 46.6617 237.929 46.3228C238.318 46.2194 238.527 46.0627 238.527 45.8805C238.527 45.6976 238.346 45.5942 237.878 45.5942C237.254 45.5942 235.485 45.6737 234.473 45.6737C233.718 45.6737 233.251 45.6204 232.549 45.6204ZM223.166 54.3068C223.192 54.384 223.115 54.5168 223.088 54.5168C222.23 54.594 220.074 54.5701 219.033 54.594C218.928 54.594 218.878 54.5168 218.902 54.4102C219.11 53.606 220.463 49.9644 220.929 48.7163C221.009 48.5334 221.06 48.5596 221.139 48.7163C221.374 49.0799 222.724 52.9808 223.166 54.3068ZM222.335 45.879C222.127 45.307 222.023 45.2036 221.919 45.2036C221.788 45.2036 221.685 45.307 221.502 45.5154C221.32 45.8034 220.956 46.4779 220.723 46.7913C220.671 46.8701 220.671 46.9202 220.671 46.9998C220.671 47.1286 220.619 47.337 220.514 47.5454C219.372 50.355 216.408 58.2085 215.809 59.5353C215.057 61.2265 214.718 61.3036 213.419 61.7483C213.027 61.8755 212.847 62.1102 212.847 62.2677C212.847 62.4228 212.977 62.5286 213.444 62.5286C213.835 62.5286 215.186 62.3974 216.148 62.3974C217.11 62.3974 217.758 62.4769 218.202 62.4769C218.54 62.4769 218.928 62.3974 218.928 62.1357C218.928 61.9567 218.67 61.8 218.228 61.6687C217.058 61.3036 216.953 60.8629 216.953 60.5519C216.953 59.9004 217.629 57.6899 218.305 55.9995C218.357 55.92 218.488 55.7911 218.591 55.7911C219.138 55.7116 221.425 55.6861 222.855 55.6861C223.608 55.6861 223.712 55.8428 223.738 55.9478C224.336 57.6103 224.985 59.3293 225.193 60.3944C225.298 60.9393 225.401 61.4587 224.154 61.722C223.686 61.8 223.529 62.0084 223.529 62.1357C223.529 62.2677 223.686 62.4491 224.336 62.4491C224.985 62.4491 225.349 62.3974 226.182 62.3974C227.325 62.3974 228.598 62.5286 229.455 62.5286C230.105 62.5286 230.288 62.3727 230.288 62.189C230.288 62.0084 230.08 61.8755 229.665 61.7483C228.495 61.4587 228.079 61.2527 227.221 59.1209C226.779 58.0534 224.83 52.9036 223.478 49.1053C222.983 47.7538 222.543 46.5845 222.335 45.879ZM205.463 47.337C206.218 48.0927 206.634 49.3153 206.634 49.9382C206.634 51.576 205.621 52.7238 204.918 53.1653C204.553 53.396 203.177 53.8399 201.67 53.8399C201.512 53.8399 201.305 53.6577 201.253 53.4509C201.175 53.007 201.253 47.9861 201.331 47.0785C201.331 46.9735 201.512 46.5845 201.644 46.5296C201.93 46.4008 202.761 46.3507 202.89 46.3507C203.722 46.3507 204.841 46.7412 205.463 47.337ZM206.842 53.5288C208.115 52.7469 208.947 51.292 208.947 49.888C208.947 48.6408 208.324 47.337 207.465 46.6362C206.425 45.7771 205.021 45.5441 203.229 45.5441C201.825 45.5441 199.98 45.6737 199.016 45.6737H197.561C196.989 45.6737 196.859 45.8034 196.859 45.9855C196.859 46.1924 197.095 46.3244 197.484 46.4294C198.653 46.7134 198.888 46.7675 198.991 47.726C199.096 48.7426 199.147 51.1099 199.147 55.1142C199.147 56.6757 199.043 59.4319 198.991 60.2385C198.913 61.228 198.446 61.3848 197.301 61.7483C196.964 61.8771 196.73 61.9288 196.73 62.1373C196.73 62.399 197.069 62.5024 197.406 62.5024C197.691 62.5024 199.043 62.399 199.511 62.399C201.28 62.399 201.773 62.5541 202.864 62.5541C202.993 62.5541 203.488 62.4769 203.488 62.2152C203.488 62.0856 203.306 61.9034 202.864 61.7737C201.644 61.4882 201.357 61.1215 201.305 60.0317C201.227 58.5195 201.175 55.2208 201.2 54.7785C201.2 54.699 201.331 54.4667 201.512 54.4667C202.293 54.4667 203.253 54.699 203.358 54.8024C203.514 54.9074 204.034 55.558 204.397 56.1037C205.438 57.7416 206.765 59.7461 207.675 60.9942C208.427 61.9551 209.909 62.6845 211.13 62.6845C211.677 62.6845 212.248 62.6296 212.56 62.5024C212.717 62.4212 212.925 62.3178 212.925 62.1651C212.925 62.0617 212.717 61.8533 212.508 61.8016C211.366 61.5621 210.662 61.096 209.96 60.264C208.375 58.4972 206.192 54.9853 205.932 54.3617C205.88 54.2551 205.958 54.0228 206.035 53.9695C206.218 53.8399 206.711 53.606 206.842 53.5288ZM186.854 45.6737C185.112 45.6737 184.098 45.5703 182.876 45.5703C182.51 45.5703 182.147 45.6992 182.147 45.9338C182.147 46.1423 182.356 46.2457 182.902 46.3745C184.046 46.6362 184.306 46.948 184.36 48.0927C184.409 48.8452 184.385 49.3925 184.385 52.4884C184.385 55.7116 184.255 58.7836 184.175 59.8766C184.072 61.2798 183.578 61.4603 182.278 61.7737C181.863 61.8771 181.551 62.0084 181.551 62.189C181.551 62.4769 181.837 62.5262 182.331 62.5262C183.317 62.5262 183.891 62.399 185.268 62.399C189.505 62.399 193.431 62.6058 193.715 62.6058C193.846 62.6058 194.078 62.399 194.158 62.294C194.341 62.0601 195.068 59.7183 195.093 59.5099C195.146 59.2259 195.068 58.8075 194.885 58.8075C194.73 58.8075 194.573 58.9626 194.289 59.5353C193.663 60.7579 192.963 61.2543 192.13 61.4603C191.559 61.6186 189.973 61.6433 189.66 61.6433C188.621 61.6433 187.737 61.5383 187.296 61.4603C187.113 61.4086 186.906 61.2026 186.801 60.8892C186.646 60.4724 186.542 59.4836 186.542 58.7303C186.542 57.6127 186.516 55.1929 186.621 54.6473C186.621 54.594 186.749 54.4118 186.854 54.4118C187.556 54.4118 188.596 54.4118 189.428 54.4667C191.012 54.5423 191.117 54.6202 191.481 55.8166C191.559 56.1037 191.742 56.3901 191.922 56.3901C192.104 56.3901 192.234 56.1037 192.207 55.6344C192.182 55.1158 192.13 54.7507 192.13 54.0483C192.13 53.4238 192.156 52.9036 192.207 52.1766C192.234 51.969 192.182 51.6038 192.001 51.6038C191.845 51.6038 191.688 51.7598 191.533 52.1495C191.064 53.3459 190.96 53.4493 188.517 53.4493H186.827C186.698 53.4493 186.672 53.2942 186.646 53.1908C186.595 52.8002 186.672 47.9105 186.724 47.2599C186.776 46.6617 187.061 46.5296 187.113 46.5296C188.257 46.4779 190.129 46.5296 190.804 46.6362C191.636 46.7675 192.208 47.0252 192.545 48.4045C192.599 48.6646 192.729 49.0298 192.963 49.0298C193.197 49.0298 193.352 48.7179 193.352 48.3528C193.352 47.831 193.301 47.0785 193.301 45.8805C193.274 45.7517 193.146 45.5703 193.066 45.5958C192.676 45.6475 191.533 45.6737 190.674 45.6737H186.854ZM165.408 53.3737C165.226 53.3737 165.148 53.3475 165.124 52.8519C165.096 52.4112 165.124 48.9757 165.2 48.119C165.278 47.0252 165.356 46.6362 166.578 46.4024C167.123 46.2974 167.332 46.1677 167.332 45.9092C167.332 45.7517 167.046 45.6204 166.501 45.6204C165.902 45.6204 165.124 45.6737 164.029 45.6737C163.355 45.6737 162.392 45.6204 161.665 45.6204C161.249 45.6204 160.91 45.7254 160.91 45.9092C160.91 46.1176 161.094 46.2974 161.64 46.4024C162.73 46.6362 162.887 47.0013 162.939 47.8843C162.99 49.0298 162.939 51.4225 162.939 51.891C162.939 56.13 162.782 59.0692 162.705 60.1351C162.6 61.1493 162.392 61.4086 161.068 61.7483C160.781 61.827 160.47 61.9821 160.47 62.2407C160.47 62.399 160.676 62.5024 161.249 62.5024C162.133 62.5024 163.223 62.399 163.823 62.399C164.759 62.399 166.344 62.5024 166.525 62.5024C166.863 62.5024 167.305 62.4507 167.28 62.2407C167.252 61.9821 167.073 61.8771 166.501 61.722C165.408 61.3848 165.124 60.9146 165.096 59.6928C165.096 58.9379 165.045 55.6082 165.096 54.9336C165.096 54.7252 165.305 54.4913 165.382 54.4913C165.902 54.4396 171.023 54.5168 175.052 54.5168C175.261 54.5168 175.364 54.5956 175.364 55.0609C175.364 56.363 175.312 58.1584 175.261 59.2513C175.182 61.0976 175.052 61.3848 173.648 61.8016C173.362 61.8771 173.075 62.0338 173.075 62.2677C173.075 62.5024 173.337 62.5541 173.726 62.5541C174.247 62.5541 176.196 62.399 176.768 62.399C177.573 62.399 178.51 62.4769 178.924 62.4769C179.418 62.4769 179.654 62.399 179.654 62.189C179.654 62.0084 179.418 61.827 179.055 61.6966C177.886 61.3569 177.625 61.2543 177.573 60.2385C177.573 59.8487 177.468 57.5332 177.468 56.3917C177.468 51.969 177.548 49.1332 177.676 47.8055C177.728 47.053 177.938 46.5845 179.029 46.3244C179.574 46.194 179.782 46.0126 179.782 45.8805C179.782 45.6737 179.47 45.5703 179.055 45.5703C178.769 45.5703 177.573 45.6475 176.691 45.6475C176.04 45.6475 174.376 45.5958 174.039 45.5958C173.492 45.5958 173.232 45.6992 173.232 45.8805C173.232 46.1176 173.517 46.2711 173.882 46.3761C175.052 46.6895 175.234 46.8963 175.312 47.8588C175.389 48.873 175.389 52.28 175.364 52.6196C175.312 53.1391 175.234 53.2958 175.079 53.2958C170.477 53.2958 166.941 53.3737 165.408 53.3737ZM151.815 46.2194C154.258 46.2194 156.051 48.2741 156.051 50.6413C156.051 53.6307 154.127 54.8541 152.749 54.8541H152.099C151.892 54.8541 151.789 54.9837 151.789 55.0887C151.789 55.2454 151.917 55.3727 152.231 55.5048C152.647 55.6599 153.322 55.6861 153.608 55.6861C154.726 55.6861 155.922 55.1142 156.597 54.5423C157.352 53.8916 158.417 52.8257 158.417 50.5101C158.417 49.651 158.156 48.1707 156.91 46.9735C155.948 46.0627 154.414 45.4383 152.047 45.4383C150.747 45.4383 148.748 45.6459 147.707 45.6459C147.474 45.6459 147.031 45.6204 146.849 45.6459C146.512 45.6737 146.251 45.8034 146.251 46.011C146.251 46.1661 146.537 46.3228 147.057 46.4008C148.513 46.6084 148.487 46.9735 148.513 47.909C148.54 48.7426 148.591 54.2551 148.591 55.1142C148.591 56.4155 148.54 58.5728 148.461 59.8217C148.384 60.913 148.098 61.4086 146.642 61.7483C146.381 61.8254 146.121 61.9806 146.121 62.1635C146.121 62.3974 146.406 62.5262 146.849 62.5262C147.656 62.5262 148.721 62.4228 149.475 62.4228C150.619 62.4228 151.554 62.5262 152.204 62.5262C152.594 62.5262 153.062 62.4491 153.062 62.2152C153.062 61.9806 152.854 61.8509 152.36 61.7204C151.033 61.3299 150.827 61.1231 150.801 59.4319C150.801 58.782 150.747 56.5969 150.747 54.2304C150.774 51.2403 150.774 48.0132 150.801 47.4675C150.827 46.8431 150.956 46.5296 151.061 46.4525C151.269 46.3228 151.529 46.2194 151.815 46.2194ZM139.415 48.2224C139.467 49.0799 139.493 52.3062 139.493 53.921C139.493 56.13 139.441 58.8337 139.364 59.7461C139.259 60.9679 139.155 61.3569 137.856 61.6449C137.336 61.7483 137.076 61.905 137.076 62.0855C137.076 62.2693 137.258 62.4507 137.751 62.4507C138.713 62.4507 138.948 62.399 139.728 62.399C140.429 62.399 142.276 62.5541 143.601 62.5541C143.913 62.5541 144.302 62.4252 144.302 62.2152C144.302 62.0338 144.094 61.8533 143.628 61.7737C141.938 61.4349 141.807 60.9409 141.729 59.5377C141.678 58.7057 141.652 57.0925 141.652 55.6615C141.652 50.565 141.678 48.8715 141.807 48.0132C141.912 47.3132 141.886 46.6617 143.393 46.3491C143.808 46.2711 144.068 46.116 144.068 45.9092C144.068 45.6992 143.834 45.5958 143.419 45.5958C142.509 45.5958 141.912 45.6737 140.637 45.6737C139.778 45.6737 138.481 45.5958 137.803 45.5958C137.44 45.5958 137.154 45.6992 137.154 45.9092C137.154 46.089 137.311 46.2711 137.883 46.3761C139.338 46.6362 139.338 47.0252 139.415 48.2224ZM129.175 47.337C129.927 48.0927 130.342 49.3153 130.342 49.9382C130.342 51.576 129.332 52.7238 128.628 53.1653C128.265 53.396 126.887 53.8399 125.379 53.8399C125.224 53.8399 125.015 53.6577 124.965 53.4509C124.884 53.007 124.965 47.9861 125.041 47.0785C125.041 46.9735 125.224 46.5845 125.354 46.5296C125.639 46.4008 126.472 46.3507 126.6 46.3507C127.433 46.3507 128.551 46.7412 129.175 47.337ZM130.551 53.5288C131.827 52.7469 132.656 51.292 132.656 49.888C132.656 48.6408 132.035 47.337 131.176 46.6362C130.136 45.7771 128.732 45.5441 126.937 45.5441C125.536 45.5441 123.689 45.6737 122.727 45.6737H121.271C120.698 45.6737 120.57 45.8034 120.57 45.9855C120.57 46.1924 120.804 46.3244 121.193 46.4294C122.363 46.7134 122.599 46.7675 122.7 47.726C122.807 48.7426 122.859 51.1099 122.859 55.1142C122.859 56.6757 122.752 59.4319 122.7 60.2385C122.625 61.228 122.155 61.3848 121.011 61.7483C120.673 61.8771 120.441 61.9288 120.441 62.1373C120.441 62.399 120.779 62.5024 121.116 62.5024C121.403 62.5024 122.752 62.399 123.222 62.399C124.989 62.399 125.484 62.5541 126.574 62.5541C126.703 62.5541 127.198 62.4769 127.198 62.2152C127.198 62.0856 127.018 61.9034 126.574 61.7737C125.354 61.4882 125.067 61.1215 125.015 60.0317C124.936 58.5195 124.884 55.2208 124.914 54.7785C124.914 54.699 125.041 54.4667 125.224 54.4667C126.003 54.4667 126.963 54.699 127.07 54.8024C127.224 54.9074 127.744 55.558 128.107 56.1037C129.149 57.7416 130.476 59.7461 131.383 60.9942C132.138 61.9551 133.62 62.6845 134.842 62.6845C135.386 62.6845 135.96 62.6296 136.271 62.5024C136.426 62.4212 136.634 62.3178 136.634 62.1651C136.634 62.0617 136.426 61.8533 136.219 61.8016C135.077 61.5621 134.372 61.096 133.672 60.264C132.086 58.4972 129.902 54.9853 129.644 54.3617C129.59 54.2551 129.669 54.0228 129.747 53.9695C129.927 53.8399 130.421 53.606 130.551 53.5288ZM110.565 45.6737C108.821 45.6737 107.806 45.5703 106.585 45.5703C106.222 45.5703 105.858 45.6992 105.858 45.9338C105.858 46.1423 106.067 46.2457 106.614 46.3745C107.754 46.6362 108.016 46.948 108.069 48.0927C108.121 48.8452 108.095 49.3925 108.095 52.4884C108.095 55.7116 107.964 58.7836 107.884 59.8766C107.781 61.2798 107.289 61.4603 105.987 61.7737C105.573 61.8771 105.261 62.0084 105.261 62.189C105.261 62.4769 105.547 62.5262 106.04 62.5262C107.029 62.5262 107.601 62.399 108.976 62.399C113.216 62.399 117.14 62.6058 117.427 62.6058C117.555 62.6058 117.789 62.399 117.867 62.294C118.051 62.0601 118.777 59.7183 118.804 59.5099C118.857 59.2259 118.777 58.8075 118.596 58.8075C118.439 58.8075 118.282 58.9626 117.999 59.5353C117.372 60.7579 116.671 61.2543 115.838 61.4603C115.267 61.6186 113.682 61.6433 113.371 61.6433C112.332 61.6433 111.447 61.5383 111.005 61.4603C110.821 61.4086 110.616 61.2026 110.51 60.8892C110.356 60.4724 110.25 59.4836 110.25 58.7303C110.25 57.6127 110.224 55.1929 110.33 54.6473C110.33 54.594 110.458 54.4118 110.565 54.4118C111.265 54.4118 112.302 54.4118 113.135 54.4667C114.72 54.5423 114.826 54.6202 115.19 55.8166C115.267 56.1037 115.45 56.3901 115.63 56.3901C115.812 56.3901 115.942 56.1037 115.916 55.6344C115.89 55.1158 115.838 54.7507 115.838 54.0483C115.838 53.4238 115.864 52.9036 115.916 52.1766C115.942 51.969 115.89 51.6038 115.711 51.6038C115.553 51.6038 115.398 51.7598 115.241 52.1495C114.772 53.3459 114.668 53.4493 112.227 53.4493H110.535C110.406 53.4493 110.38 53.2942 110.356 53.1908C110.303 52.8002 110.38 47.9105 110.432 47.2599C110.484 46.6617 110.77 46.5296 110.821 46.5296C111.965 46.4779 113.839 46.5296 114.516 46.6362C115.346 46.7675 115.916 47.0252 116.256 48.4045C116.308 48.6646 116.437 49.0298 116.671 49.0298C116.907 49.0298 117.06 48.7179 117.06 48.3528C117.06 47.831 117.009 47.0785 117.009 45.8805C116.983 45.7517 116.854 45.5703 116.774 45.5958C116.385 45.6475 115.241 45.6737 114.383 45.6737H110.565ZM96.9692 46.2194C99.4129 46.2194 101.206 48.2741 101.206 50.6413C101.206 53.6307 99.2818 54.8541 97.9041 54.8541H97.2546C97.0464 54.8541 96.9438 54.9837 96.9438 55.0887C96.9438 55.2454 97.0726 55.3727 97.3858 55.5048C97.8008 55.6599 98.4765 55.6861 98.7627 55.6861C99.8804 55.6861 101.077 55.1142 101.752 54.5423C102.505 53.8916 103.572 52.8257 103.572 50.5101C103.572 49.651 103.31 48.1707 102.064 46.9735C101.102 46.0627 99.5688 45.4383 97.203 45.4383C95.9024 45.4383 93.9015 45.6459 92.8617 45.6459C92.6296 45.6459 92.186 45.6204 92.0047 45.6459C91.6661 45.6737 91.4061 45.8034 91.4061 46.011C91.4061 46.1661 91.6923 46.3228 92.2114 46.4008C93.6678 46.6084 93.6416 46.9735 93.6678 47.909C93.6932 48.7426 93.7465 54.2551 93.7465 55.1142C93.7465 56.4155 93.6932 58.5728 93.6161 59.8217C93.5382 60.913 93.2528 61.4086 91.7965 61.7483C91.5373 61.8254 91.2773 61.9806 91.2773 62.1635C91.2773 62.3974 91.5611 62.5262 92.0047 62.5262C92.8084 62.5262 93.8769 62.4228 94.6289 62.4228C95.7752 62.4228 96.7093 62.5262 97.358 62.5262C97.7491 62.5262 98.2165 62.4491 98.2165 62.2152C98.2165 61.9806 98.0082 61.8509 97.5146 61.7204C96.1894 61.3299 95.9819 61.1231 95.9557 59.4319C95.9557 58.782 95.9024 56.5969 95.9024 54.2304C95.9286 51.2403 95.9286 48.0132 95.9557 47.4675C95.9819 46.8431 96.1107 46.5296 96.214 46.4525C96.4239 46.3228 96.6831 46.2194 96.9692 46.2194ZM371.134 24.4494C371.134 23.9037 370.771 23.2785 370.043 23.2785C368.95 23.2785 367.78 24.3205 367.235 25.8271C367.132 26.139 367.183 26.5828 367.34 26.5828C367.445 26.5828 367.625 26.4261 367.911 26.0626C368.405 25.4382 368.95 25.0452 369.368 25.0452C369.654 25.0452 369.914 25.2815 369.627 26.2694C368.795 28.8713 368.068 30.6913 366.976 33.4738C366.949 33.5271 366.923 33.8111 366.976 33.8644C367.08 34.0728 367.365 34.2295 367.572 34.2295C367.808 34.2295 368.276 34.0983 368.665 33.2925C369.082 32.4612 371.316 28.0138 372.304 26.5295C373.24 25.0452 373.708 24.7612 374.021 24.7612C374.254 24.7612 374.489 25.2035 374.513 25.7237C374.513 26.166 374.644 26.2957 374.825 26.2957C375.138 26.2957 376.048 25.3586 376.048 24.3468C376.048 23.9037 375.84 23.2785 375.059 23.2785C374.331 23.2785 373.552 23.8767 372.8 24.7612C372.121 25.5153 371.368 26.5295 370.745 27.5954C370.406 28.1674 370.122 28.2461 370.277 27.7784C370.509 27.1802 371.134 25.3069 371.134 24.4494ZM360.894 25.1248C361.568 24.3205 362.165 23.9538 362.765 23.9538C363.465 23.9538 363.726 24.4757 363.726 25.2019C363.726 27.5437 362.115 30.9507 360.996 32.3029C360.269 33.2137 359.698 33.4738 359.28 33.4738C358.604 33.4738 358.292 32.9274 358.292 32.3284C358.292 29.7304 359.671 26.5295 360.894 25.1248ZM365.414 26.1923C365.414 24.9442 364.557 23.2785 362.973 23.2785C361.723 23.2785 360.607 23.9053 359.75 24.6578C357.567 26.555 356.474 29.8323 356.474 31.4176C356.474 33.1875 357.747 34.2033 358.735 34.2033C359.566 34.2033 360.244 33.9694 360.894 33.6576C363.05 32.5646 365.414 29.6525 365.414 26.1923ZM355.226 23.5386C355.2 23.5386 355.095 23.3843 355.121 23.2785C355.617 21.5882 356.422 19.3259 357.097 18.1017C358.113 16.3095 358.788 15.8927 359.567 15.8927C360.269 15.8927 360.684 16.7773 360.658 17.7382C360.658 17.8949 360.633 18.155 360.633 18.2838C360.633 18.4684 360.71 18.544 360.841 18.544C361.257 18.544 362.09 17.8949 362.115 16.7773C362.142 15.9699 361.518 15.1362 360.192 15.1362C359.49 15.1362 358.683 15.3725 357.644 16.1011C355.667 17.4263 354.159 20.9096 353.301 23.4082C353.277 23.4615 353.198 23.5903 353.122 23.5903C352.755 23.5903 351.872 23.6166 351.405 23.6166C351.198 23.6166 350.911 23.93 350.911 24.241C350.911 24.3468 350.99 24.5011 351.172 24.5011L352.755 24.4494C352.914 24.4494 352.94 24.6045 352.914 24.6578C351.847 28.1427 350.445 33.2925 349.61 36.3884C348.831 39.4063 347.999 39.8216 347.299 39.8216C346.675 39.8216 346.103 39.4565 345.607 38.8058C345.504 38.6769 345.298 38.5974 345.193 38.6252C344.828 38.6252 344.075 39.4819 344.075 39.8216C344.048 40.4468 344.699 40.9925 345.895 40.9925C346.389 40.9925 347.844 40.5224 348.805 39.847C349.481 39.326 350.625 38.7302 351.379 36.2062C352.209 33.2153 353.848 27.2852 354.681 24.6578C354.731 24.5274 354.81 24.4494 354.889 24.4494C355.643 24.4494 356.605 24.3707 357.176 24.3707C357.515 24.3707 357.8 23.9538 357.8 23.7987C357.8 23.7216 357.722 23.4615 357.592 23.4615L355.226 23.5386ZM325.62 16.9841C325.023 16.9841 324.762 17.0875 324.762 17.2975C324.762 17.5059 325.049 17.6332 325.334 17.7127C326.503 18.0253 326.79 18.0516 327.518 18.9107C327.57 18.9862 327.699 19.2225 327.699 20.1555C327.699 22.316 327.336 28.5595 327.206 30.6651C327.101 32.5901 326.608 32.6935 325.386 33.1119C325.126 33.1891 324.867 33.3442 324.867 33.5542C324.867 33.8127 325.178 33.8382 325.543 33.8382C325.983 33.8382 326.659 33.7865 327.233 33.7865C328.168 33.7865 329.257 33.9161 330.013 33.9161C330.505 33.9161 330.844 33.8382 330.844 33.5788C330.844 33.4237 330.741 33.2408 330.194 33.1119C328.948 32.7452 328.66 32.3578 328.555 31.1607C328.505 30.3533 328.583 26.3474 328.583 24.0071C328.609 21.9787 328.687 21.2485 328.714 20.5485C328.714 20.4188 328.894 20.364 328.998 20.4952C331.339 23.3032 335.834 28.3766 338.279 31.2903C338.98 32.1478 339.449 32.824 339.891 33.3704C340.125 33.6831 340.695 34.2033 341.059 34.2033C341.295 34.2033 341.425 33.9161 341.425 33.6576C341.425 33.2408 341.242 31.2903 341.242 30.1974C341.242 25.7253 341.477 20.6002 341.528 19.6632C341.605 18.2584 342.075 18.0253 343.191 17.7644C343.658 17.6332 343.816 17.4009 343.816 17.2442C343.816 17.0358 343.658 16.9578 343.219 16.9578C342.541 16.9578 341.71 17.0612 340.774 17.0612C339.942 17.0612 339.215 17.0358 338.539 17.0358C338.226 17.0358 337.863 17.0875 337.863 17.2704C337.863 17.478 338.046 17.6865 338.565 17.8432C339.995 18.2584 340.177 18.8828 340.203 19.4285C340.28 20.2351 340.333 21.1459 340.333 22.0304C340.333 25.777 340.409 28.585 340.28 29.417C340.28 29.4942 340.177 29.7559 340.021 29.5976C338.279 27.7004 332.56 21.4569 331.389 19.975C330.378 18.649 329.726 17.8686 329.335 17.4009C329.182 17.2442 328.948 17.0612 328.79 17.0612C327.465 17.0612 326.191 16.9841 325.62 16.9841ZM309.685 18.9345C310.595 18.0253 312.182 17.4526 313.272 17.4526C314.468 17.4526 316.105 17.9983 317.172 18.8574C319.095 20.4188 320.316 23.1496 320.316 25.9838C320.316 29.0798 319.145 31.1853 318.108 32.1216C317.822 32.4334 316.833 33.3704 314.675 33.3704C310.519 33.3704 307.657 28.9223 307.657 25.0468C307.657 22.0034 308.542 20.0521 309.685 18.9345ZM322.865 25.2035C322.865 20.2605 318.834 16.5935 313.844 16.5935C312.025 16.5935 309.79 17.3746 308.517 18.4135C306.541 20.002 305.135 22.211 305.135 25.4119C305.135 27.6487 305.917 29.7559 307.293 31.2887C308.879 33.1119 311.402 34.255 314.051 34.255C315.378 34.255 317.535 33.8899 319.173 32.7468C321.071 31.3937 322.865 28.8451 322.865 25.2035ZM298.016 19.6099C298.067 20.469 298.091 23.6953 298.091 25.3093C298.091 27.5175 298.041 30.2212 297.961 31.1336C297.858 32.3562 297.754 32.7452 296.454 33.0324C295.934 33.1358 295.675 33.2925 295.675 33.4738C295.675 33.6576 295.857 33.8382 296.349 33.8382C297.313 33.8382 297.547 33.7865 298.326 33.7865C299.029 33.7865 300.875 33.9416 302.199 33.9416C302.511 33.9416 302.901 33.8127 302.901 33.6043C302.901 33.4221 302.694 33.2408 302.226 33.162C300.536 32.8224 300.405 32.33 300.328 30.9252C300.276 30.094 300.25 28.48 300.25 27.0513C300.25 21.9533 300.276 20.259 300.405 19.4015C300.51 18.7007 300.483 18.05 301.992 17.7366C302.408 17.6594 302.668 17.5035 302.668 17.2975C302.668 17.0875 302.432 16.9841 302.017 16.9841C301.107 16.9841 300.51 17.0612 299.235 17.0612C298.378 17.0612 297.079 16.9841 296.403 16.9841C296.038 16.9841 295.752 17.0875 295.752 17.2975C295.752 17.4765 295.909 17.6594 296.48 17.7644C297.938 18.0237 297.938 18.4135 298.016 19.6099ZM291.829 17.0358C290.766 17.0612 287.228 17.0875 285.877 17.0875C282.55 17.0875 280.471 17.0095 279.794 16.9324C279.404 16.9069 278.988 16.5171 278.91 16.4384C278.625 16.2045 278.625 16.0216 278.494 16.0216C278.339 16.0216 278.105 16.2538 278.105 16.4384C278.105 17.972 277.61 19.3768 277.61 19.8716C277.61 20.1317 277.715 20.469 277.873 20.469C277.972 20.469 278.131 20.4952 278.362 19.9487C278.805 19.0896 279.119 18.6752 279.224 18.5973C279.612 18.155 280.158 17.9983 281.146 17.9983C281.56 17.9983 283.849 18.05 284.37 18.1287C284.447 18.1287 284.575 18.2584 284.575 18.4684V21.5611C284.575 23.5649 284.447 28.8713 284.396 30.4066C284.317 32.3578 284.267 32.7969 282.446 33.2153C282.213 33.2646 281.951 33.4738 281.951 33.6576C281.951 33.8127 282.213 33.9694 282.73 33.9694C283.07 33.9694 284.396 33.7865 285.695 33.7865C286.838 33.7865 288.448 33.9161 288.658 33.9161C288.918 33.9161 289.386 33.8899 289.386 33.6043C289.386 33.4221 289.021 33.2153 288.684 33.1358C287.071 32.7723 286.944 32.4612 286.811 31.2903C286.707 30.3278 286.707 27.8555 286.707 24.8392V18.4684C286.707 18.4135 286.811 18.155 286.944 18.1287C287.253 18.05 290.141 18.05 290.582 18.0778C292.194 18.155 292.531 18.2838 292.685 19.6377C292.766 20.2868 292.871 20.469 293.051 20.469C293.259 20.469 293.468 20.2088 293.495 19.975C293.648 18.6235 293.806 17.8177 294.066 17.0095C294.195 16.6468 294.092 16.4121 293.961 16.4121C293.855 16.4121 293.779 16.4623 293.598 16.5673C293.233 16.8274 292.766 16.9841 291.829 17.0358ZM272.619 25.6959C272.645 25.7738 272.57 25.9051 272.542 25.9051C271.683 25.9823 269.527 25.9576 268.487 25.9823C268.381 25.9823 268.332 25.9051 268.357 25.7993C268.566 24.9951 269.916 21.3519 270.383 20.1038C270.462 19.9233 270.515 19.9487 270.593 20.1038C270.826 20.4705 272.177 24.3707 272.619 25.6959ZM271.787 17.2704C271.58 16.6969 271.477 16.5951 271.373 16.5951C271.243 16.5951 271.138 16.6969 270.956 16.9037C270.773 17.1925 270.411 17.8678 270.176 18.1812C270.123 18.2584 270.123 18.3085 270.123 18.3888C270.123 18.5185 270.073 18.7269 269.969 18.9329C268.825 21.7449 265.86 29.5976 265.262 30.9268C264.508 32.6148 264.171 32.6951 262.872 33.1358C262.483 33.2646 262.3 33.4993 262.3 33.6576C262.3 33.8111 262.431 33.9177 262.899 33.9177C263.287 33.9177 264.639 33.7849 265.601 33.7849C266.563 33.7849 267.212 33.866 267.655 33.866C267.995 33.866 268.381 33.7849 268.381 33.5255C268.381 33.3442 268.124 33.1875 267.681 33.0586C266.511 32.6951 266.407 32.2528 266.407 31.9394C266.407 31.2903 267.082 29.0782 267.757 27.3886C267.81 27.3115 267.941 27.1786 268.046 27.1786C268.592 27.1015 270.878 27.0752 272.307 27.0752C273.06 27.0752 273.165 27.2303 273.192 27.3369C273.788 29.0002 274.438 30.7168 274.649 31.7827C274.752 32.3284 274.856 32.847 273.607 33.1103C273.139 33.1875 272.982 33.3959 272.982 33.5255C272.982 33.6576 273.139 33.8382 273.788 33.8382C274.438 33.8382 274.803 33.7849 275.636 33.7849C276.778 33.7849 278.053 33.9177 278.909 33.9177C279.559 33.9177 279.743 33.761 279.743 33.5796C279.743 33.3959 279.534 33.2646 279.119 33.1358C277.948 32.847 277.532 32.6402 276.675 30.5124C276.233 29.4409 274.284 24.2911 272.931 20.4952C272.437 19.1437 271.997 17.972 271.787 17.2704ZM248.601 17.8432C248.835 17.7143 249.46 17.6332 250.394 17.6332C252.317 17.6332 254.502 18.2067 255.8 19.1692C257.464 20.4188 258.582 22.8625 258.582 25.1001C258.582 28.0138 257.464 30.2761 255.905 31.6021C254.449 32.824 252.24 33.2925 251.044 33.2925C250.473 33.2925 249.408 32.9791 248.912 32.6163C248.835 32.5662 248.418 32.1995 248.34 31.3937C248.263 30.2483 248.238 28.7146 248.238 26.893V23.1234C248.238 20.8078 248.289 18.4923 248.34 18.1788C248.366 18.0237 248.418 17.972 248.601 17.8432ZM258.738 19.3513C257.698 18.3873 255.177 16.829 251.538 16.829C249.302 16.829 246.364 17.0612 245.066 17.0612H244.338C243.948 17.0612 243.714 17.1941 243.714 17.4009C243.714 17.5815 244.025 17.7644 244.312 17.8177C245.897 18.0516 245.923 18.4135 245.974 20.08C246.052 22.211 246.106 25.2815 246.106 26.7642C246.106 28.2978 246.078 29.1052 246.026 30.3278C245.949 32.3817 245.819 32.8757 244.025 33.0841C243.714 33.1119 243.454 33.2392 243.454 33.4476C243.454 33.6576 243.688 33.8382 244.285 33.8382C244.702 33.8382 245.17 33.8382 245.664 33.8644C247.378 33.9949 249.692 34.0728 250.758 34.0728C253.253 34.0728 255.409 33.4977 256.944 32.6163C258.765 31.6021 261.105 28.8713 261.105 25.1001C261.105 23.0446 260.141 20.7028 258.738 19.3513ZM223.724 16.9841C223.127 16.9841 222.867 17.0875 222.867 17.2975C222.867 17.5059 223.154 17.6332 223.439 17.7127C224.609 18.0253 224.895 18.0516 225.623 18.9107C225.674 18.9862 225.805 19.2225 225.805 20.1555C225.805 22.316 225.44 28.5595 225.311 30.6651C225.206 32.5901 224.713 32.6935 223.491 33.1119C223.232 33.1891 222.971 33.3442 222.971 33.5542C222.971 33.8127 223.284 33.8382 223.647 33.8382C224.088 33.8382 224.766 33.7865 225.337 33.7865C226.273 33.7865 227.364 33.9161 228.117 33.9161C228.612 33.9161 228.95 33.8382 228.95 33.5788C228.95 33.4237 228.847 33.2408 228.299 33.1119C227.052 32.7452 226.767 32.3578 226.662 31.1607C226.61 30.3533 226.688 26.3474 226.688 24.0071C226.713 21.9787 226.792 21.2485 226.818 20.5485C226.818 20.4188 226.999 20.364 227.104 20.4952C229.444 23.3032 233.94 28.3766 236.383 31.2903C237.086 32.1478 237.553 32.824 237.996 33.3704C238.23 33.6831 238.801 34.2033 239.164 34.2033C239.4 34.2033 239.529 33.9161 239.529 33.6576C239.529 33.2408 239.348 31.2903 239.348 30.1974C239.348 25.7253 239.582 20.6002 239.634 19.6632C239.711 18.2584 240.179 18.0253 241.298 17.7644C241.764 17.6332 241.921 17.4009 241.921 17.2442C241.921 17.0358 241.764 16.9578 241.324 16.9578C240.647 16.9578 239.814 17.0612 238.879 17.0612C238.048 17.0612 237.32 17.0358 236.644 17.0358C236.332 17.0358 235.968 17.0875 235.968 17.2704C235.968 17.478 236.15 17.6865 236.669 17.8432C238.1 18.2584 238.283 18.8828 238.307 19.4285C238.385 20.2351 238.438 21.1459 238.438 22.0304C238.438 25.777 238.516 28.585 238.385 29.417C238.385 29.4942 238.283 29.7559 238.125 29.5976C236.383 27.7004 230.664 21.4569 229.496 19.975C228.482 18.649 227.832 17.8686 227.442 17.4009C227.287 17.2442 227.052 17.0612 226.895 17.0612C225.569 17.0612 224.298 16.9841 223.724 16.9841ZM204.178 16.9841C203.761 16.9841 203.424 17.0875 203.424 17.2975C203.424 17.5298 203.71 17.6594 204.023 17.7382C205.009 17.9466 205.374 18.3634 205.425 18.8574C205.451 19.1946 205.53 21.2763 205.53 25.0213C205.53 29.3908 206.153 31.2903 207.609 32.6688C208.233 33.2408 209.973 34.2033 212.315 34.2033C213.458 34.2033 214.861 34.0466 216.057 33.3704C217.928 32.33 219.176 30.0423 219.306 25.5169C219.358 24.1623 219.514 21.2763 219.54 20.1555C219.591 18.5185 220.111 18.0778 221.23 17.7644C221.594 17.6332 221.803 17.4526 221.803 17.2975C221.803 17.0875 221.568 17.0095 221.152 17.0095C220.423 17.0095 219.878 17.0612 218.812 17.0612C217.979 17.0612 217.253 16.9841 216.603 16.9841C216.16 16.9841 216.004 17.0875 216.004 17.2442C216.004 17.4263 216.291 17.6594 216.551 17.7127C218.007 18.0516 218.189 18.4135 218.266 19.403C218.292 19.7149 218.37 21.0695 218.37 22.7567C218.37 25.7253 218.11 27.9088 217.798 29.2866C217.148 32.1478 214.628 32.9298 212.939 32.9298C211.587 32.9298 209.897 32.3045 209.168 31.4987C208.362 30.5879 207.712 29.4687 207.712 26.5295C207.712 22.8362 207.686 20.1317 207.816 19.2742C207.973 18.2329 208.468 17.972 209.402 17.7899C209.897 17.6865 210.182 17.5059 210.182 17.2975C210.182 17.0875 209.871 17.0095 209.375 17.0095C208.805 17.0095 207.816 17.0612 206.855 17.0612C205.893 17.0612 205.27 16.9841 204.178 16.9841ZM187.776 18.9345C188.686 18.0253 190.273 17.4526 191.364 17.4526C192.56 17.4526 194.197 17.9983 195.263 18.8574C197.185 20.4188 198.408 23.1496 198.408 25.9838C198.408 29.0798 197.236 31.1853 196.199 32.1216C195.913 32.4334 194.924 33.3704 192.768 33.3704C188.609 33.3704 185.749 28.9223 185.749 25.0468C185.749 22.0034 186.633 20.0521 187.776 18.9345ZM200.954 25.2035C200.954 20.2605 196.926 16.5935 191.935 16.5935C190.116 16.5935 187.879 17.3746 186.608 18.4135C184.632 20.002 183.228 22.211 183.228 25.4119C183.228 27.6487 184.008 29.7559 185.384 31.2887C186.971 33.1119 189.492 34.255 192.143 34.255C193.47 34.255 195.627 33.8899 197.263 32.7468C199.162 31.3937 200.954 28.8451 200.954 25.2035ZM172.649 17.0612C171.842 17.0612 170.907 16.9841 169.762 16.9841C169.349 16.9841 169.034 17.0875 169.034 17.2959C169.034 17.478 169.165 17.6077 169.686 17.7366C170.83 18.0253 171.27 18.47 171.323 19.3513C171.375 20.0267 171.375 21.5611 171.375 24.0055C171.375 29.1553 171.245 31.0803 171.168 31.8877C171.142 32.225 171.09 32.8224 169.686 33.162C169.268 33.2646 168.983 33.4738 168.983 33.6815C168.983 33.8382 169.19 33.9432 169.712 33.9432C170.258 33.9432 171.765 33.7865 172.804 33.7865C173.791 33.7865 174.598 33.866 175.275 33.866C175.767 33.866 176.002 33.7077 176.002 33.5542C176.002 33.3187 175.767 33.1358 175.378 33.0586C173.687 32.7468 173.636 32.225 173.609 31.4192C173.586 30.6635 173.478 27.0251 173.505 26.5295C173.531 26.4245 173.636 26.2145 173.713 26.2145C174.26 26.1405 175.505 26.1405 176.002 26.1405C176.523 26.1405 177.455 26.2145 177.744 26.2678C178.236 26.4007 178.548 26.5295 178.808 27.5159C178.911 27.881 179.068 28.064 179.196 28.064C179.456 28.064 179.589 27.7521 179.589 27.4658C179.589 26.893 179.537 26.6584 179.537 25.4103C179.537 24.9442 179.666 24.1105 179.666 23.7733C179.666 23.4615 179.615 23.1998 179.433 23.1998C179.196 23.1998 179.093 23.4615 178.94 23.825C178.577 24.7079 178.341 24.9442 177.535 25.0213C176.912 25.073 174.805 25.0468 173.791 25.0468C173.661 25.0468 173.531 24.7851 173.531 24.0843C173.531 22.3677 173.586 18.9592 173.636 18.3355C173.636 18.2584 173.791 18.0253 174.051 17.9967C174.598 17.9466 177.197 17.9187 178.082 18.0516C178.94 18.1788 179.226 18.4151 179.64 19.6878C179.796 20.2088 180.003 20.4928 180.212 20.4928C180.448 20.4928 180.602 20.1301 180.576 19.792C180.549 18.9075 180.448 17.9967 180.499 17.2442C180.499 17.0875 180.315 16.9578 180.186 16.9841C179.978 16.9841 177.586 17.0612 176.027 17.0612H172.649ZM157.235 27.9343C157.676 26.5295 159.653 23.9037 160.978 23.9037C161.315 23.9037 161.42 24.2155 161.42 24.5544C161.42 26.5049 158.951 27.597 157.313 28.1674C157.21 28.1944 157.21 27.986 157.235 27.9343ZM162.979 24.8662C162.979 24.2657 162.616 23.2785 161.083 23.2785C160.171 23.2785 158.768 23.8504 157.418 25.2298C155.674 27.0513 154.558 29.5992 154.558 31.4454C154.558 33.1358 155.934 34.1484 156.559 34.1484C158.483 34.1484 160.199 32.7468 160.849 31.9911C161.004 31.7843 161.16 31.4987 161.16 31.342C161.16 31.2903 161.083 31.1853 161.004 31.1853C160.849 31.1853 160.641 31.2903 160.354 31.5759C159.679 32.1979 158.691 32.7985 157.807 32.7985C157.106 32.7985 156.429 32.5384 156.429 31.2386C156.429 30.51 156.586 29.7026 156.768 29.2086C156.819 29.028 157.001 28.8713 157.183 28.818C158.275 28.5062 160.044 27.9343 160.978 27.4133C162.226 26.7141 162.979 25.672 162.979 24.8662ZM150.32 32.2528C151.334 31.1066 153.077 27.6225 153.077 24.9967C153.077 24.4995 152.686 23.2785 151.411 23.2785C150.631 23.2785 150.034 23.4599 148.865 24.3205C147.746 25.1502 146.292 26.8159 145.199 28.2207C145.096 28.3511 144.912 28.3241 144.991 28.064C145.122 27.5954 147.799 19.7133 149.072 15.6827C149.126 15.4743 148.994 15.1362 148.89 15.1362C148.502 15.1362 146.5 15.7082 145.719 15.9182C145.461 15.9953 145.251 16.1266 145.251 16.23C145.251 16.3079 145.381 16.5434 145.796 16.6468C146.732 16.8552 146.707 17.2187 146.5 17.8432C145.225 22.0567 143.459 27.8826 141.663 33.3959C141.585 33.7077 141.925 34.2033 142.34 34.2033C142.442 34.2033 142.887 33.9694 143.067 33.6576C143.667 32.4612 145.616 29.1553 146.369 28.1173C148.397 25.462 149.462 24.3205 150.372 24.3205C150.84 24.3205 151.127 24.6841 151.127 25.3586C151.127 26.893 149.645 31.4987 148.865 32.5885C148.682 32.9019 148.527 32.9815 148.345 32.9815C147.799 32.9815 147.357 32.6418 146.941 32.4851C146.863 32.4612 146.863 32.4851 146.786 32.5368C146.603 32.6418 146.135 33.3187 146.135 33.4738C146.135 33.6043 146.161 33.7332 146.369 33.9694C146.552 34.1245 146.941 34.2812 147.331 34.2812C147.642 34.2812 148.033 34.0466 148.63 33.6576C149.126 33.3187 149.723 32.9019 150.32 32.2528ZM140.469 21.223C140.391 21.5349 139.924 23.0717 139.846 23.3565C139.821 23.436 139.872 23.5887 139.975 23.5887C140.521 23.5887 141.717 23.642 142.392 23.6699C142.444 23.6699 142.496 23.7733 142.496 23.8767C142.523 24.0334 142.262 24.4224 141.977 24.4478C141.588 24.4741 140.053 24.5528 139.559 24.5528C139.481 24.5528 139.377 24.6316 139.327 24.7596C138.962 25.5925 137.584 29.1832 136.83 31.3142C136.675 31.7565 136.7 32.0428 136.96 32.0428C137.48 32.0428 139.014 30.9769 139.559 30.3795C139.794 30.1695 140.131 29.9905 140.131 30.3016C140.131 30.5124 140.053 30.6898 139.898 30.9252C138.857 32.3833 136.257 34.1484 135.037 34.1484C134.777 34.1484 134.361 33.761 134.361 33.5542C134.361 33.4221 134.386 33.2137 134.491 32.9035C134.593 32.6418 136.39 27.7521 137.506 24.8646C137.584 24.6841 137.532 24.5528 137.453 24.5528C137.09 24.5274 136.441 24.4995 136.076 24.4741C135.816 24.4478 135.66 24.3444 135.66 24.2426C135.66 24.0573 135.997 23.7216 136.18 23.6953C136.7 23.642 137.584 23.6166 137.766 23.6166C137.895 23.6166 138.026 23.436 138.052 23.3565C138.442 22.6024 138.831 21.8721 139.116 21.4052C139.456 20.8595 139.794 20.6519 140.34 20.6519C140.573 20.6519 140.598 20.7824 140.469 21.223Z" fill="#2D546F"/>
</svg>
