<svg width="160" height="64" viewBox="0 0 160 64" fill="none" xmlns="http://www.w3.org/2000/svg">
<path d="M69.1483 50.0797C69.1483 50.0797 75.8587 49.5045 75.8587 40.8385C75.8587 32.1726 67.7296 31.3673 67.7296 31.3673H53.0817V58.7074H60.444V52.112L66.8093 58.7074H77.6993L69.1483 50.0797ZM66.3108 44.4813H60.444V38.2311H66.3491C66.3491 38.2311 67.998 38.8446 67.998 41.337C67.998 43.8295 66.3108 44.4813 66.3108 44.4813ZM94.0343 31.559H86.557C81.2271 31.559 79.4248 36.3905 79.4248 38.6912V58.7074H86.9021V53.9142H93.9193V58.7074H101.166V38.6912C101.166 32.8628 95.8749 31.559 94.0343 31.559ZM93.9193 46.1685H86.8638V39.5348C86.8638 39.5348 86.8638 38.0394 89.2028 38.0394H91.772C93.8426 38.0394 93.8809 39.5348 93.8809 39.5348V46.1685H93.9193ZM104.579 31.559H112.363V58.7074H104.579V31.559ZM123.292 51.6902V31.559H115.546V58.7074H133.76V51.6902H123.292ZM136.329 51.7669V58.7074H148.868C151.437 58.7074 155.847 56.8285 156 51.5752V48.891C156 44.4046 152.319 41.7588 148.868 41.7588H142.618V38.5378H155.003V31.559H143.116C140.048 31.559 135.946 34.0898 135.946 38.8063V41.222C135.946 45.9384 140.01 48.3542 143.116 48.3542C151.744 48.3925 141.045 48.3542 149.021 48.3542V51.7286L136.329 51.7669Z" fill="#CC0000"/>
<path d="M6.68416 58.669H36.9768C36.9768 58.669 31.1867 32.2492 50.3592 21.551C54.5388 19.5187 67.8446 11.9263 89.6246 28.0313C90.3148 27.4561 90.9667 26.996 90.9667 26.996C90.9667 26.996 71.0272 7.09485 48.8254 9.31887C37.667 10.3158 23.9395 20.4773 15.887 33.8981C7.83451 47.3189 6.68416 58.669 6.68416 58.669ZM69.8002 11.4662L69.9536 8.89707C69.6085 8.70535 68.6498 8.24521 66.2341 7.55499L66.0807 10.0858C67.3461 10.5076 68.5732 10.9677 69.8002 11.4662ZM66.1574 19.5954L66.004 22.0111C67.2694 22.0494 68.5348 22.2028 69.8002 22.4712L69.9536 20.0938C68.6498 19.8254 67.3844 19.672 66.1574 19.5954ZM51.9697 7.63168H52.3532L51.5863 5.29263C50.3976 5.29263 49.1705 5.36932 47.9051 5.5227L48.6337 7.78506C49.7457 7.67003 50.8577 7.63168 51.9697 7.63168ZM53.8103 21.7427L54.6922 24.3885C55.8042 23.8517 56.9162 23.3915 58.0282 23.0464L57.1847 20.5156C55.8809 20.8991 54.7689 21.3209 53.8103 21.7427ZM36.4016 11.6579L34.6761 9.01211C33.7175 9.51059 32.7205 10.0474 31.6852 10.6609L33.449 13.3451C34.446 12.7316 35.4046 12.1564 36.4016 11.6579ZM44.2624 28.9132L46.1029 31.6741C46.7548 30.7154 47.5217 29.8335 48.3653 28.9516L46.6398 26.3441C45.7578 27.1493 44.9526 28.0313 44.2624 28.9132ZM38.7023 41.2603L41.8083 43.7144C41.9616 42.219 42.2301 40.7235 42.6135 39.228L39.8527 37.0424C39.3542 38.4611 39.0091 39.8799 38.7023 41.2603ZM21.9072 23.0464L19.1847 20.669C18.1877 21.6276 17.2291 22.5863 16.3471 23.5449L19.2997 26.0757C20.1049 25.0404 20.9869 24.005 21.9072 23.0464ZM10.3269 40.1867L5.91726 38.5762C5.1887 40.225 4.38345 42.1423 4 43.1776L8.40969 44.7881C8.90817 43.4844 9.71342 41.6054 10.3269 40.1867ZM38.1271 51C38.2038 53.0323 38.3956 54.6811 38.5873 55.8315L43.1887 57.4803C42.8436 55.9849 42.4985 54.2977 42.2684 52.4954L38.1271 51Z" fill="#CC0000"/>
</svg>
