<svg width="160" height="88" viewBox="0 0 160 88" fill="none" xmlns="http://www.w3.org/2000/svg">
<path d="M4.70662 80.4968H17.2762V26.9882H4.70662V80.4968ZM10.9662 19.9711C14.9037 19.9711 17.983 16.9422 17.983 13.1563C17.983 9.31976 14.9037 6.29102 10.9662 6.29102C7.07927 6.29102 4 9.31989 4 13.1563C4 16.9423 7.07927 19.9711 10.9662 19.9711ZM59.126 6.44208C37.8743 6.44208 24.5469 20.93 24.5469 44.1007C24.5469 67.2715 37.873 81.709 59.126 81.709C80.3273 81.709 93.6547 67.2715 93.6547 44.1007C93.6547 20.93 80.3286 6.44208 59.126 6.44208ZM59.126 17.5478C72.0993 17.5478 80.3777 27.8458 80.3777 44.1005C80.3777 60.3045 72.0991 70.6028 59.126 70.6028C46.1023 70.6028 37.8743 60.3048 37.8743 44.1005C37.8743 27.846 46.1026 17.5478 59.126 17.5478ZM98.957 60.0021C99.5123 73.4303 110.517 81.7087 127.276 81.7087C144.894 81.7087 156 73.0261 156 59.1944C156 48.3412 149.74 42.2331 134.95 38.8512L126.57 36.9329C117.635 34.8128 113.95 31.9859 113.95 27.1398C113.95 21.0822 119.503 17.0438 127.731 17.0438C136.06 17.0438 141.764 21.1327 142.37 27.9475H154.788C154.485 15.1255 143.885 6.44247 127.832 6.44247C111.981 6.44247 100.724 15.1755 100.724 28.0987C100.724 38.4976 107.085 44.9592 120.512 48.0387L129.951 50.2599C139.139 52.4306 142.874 55.4593 142.874 60.7092C142.874 66.7669 136.766 71.1082 127.983 71.1082C119.099 71.1082 112.385 66.7165 111.578 60.0025H98.9576L98.957 60.0021Z" fill="black"/>
</svg>
