<svg width="240" height="48" viewBox="0 0 240 48" fill="none" xmlns="http://www.w3.org/2000/svg">
<path d="M29.27 17.079C28.6351 16.4017 28.0425 15.8515 27.4076 15.4705C26.815 15.0896 25.9684 14.9203 24.9102 14.9203C23.5981 14.9203 22.4552 15.2589 21.524 15.8938C20.5928 16.5287 19.7885 17.333 19.1536 18.3488C18.5187 19.3224 18.0108 20.3806 17.6298 21.5658C17.2489 22.7086 16.9949 23.8092 16.8256 24.825C16.7409 25.333 16.6986 25.7986 16.6563 26.3065C16.6139 26.8144 16.5716 27.3224 16.5716 27.8303C16.5716 28.7192 16.6563 29.5658 16.8256 30.37C16.9949 31.1742 17.2489 31.9361 17.6298 32.5711C18.0108 33.206 18.5187 33.7139 19.1536 34.0949C19.7885 34.4758 20.5928 34.6451 21.6086 34.6451C22.7515 34.6451 23.7674 34.4335 24.6139 34.0102C25.4605 33.5869 26.3494 33.0367 27.3229 32.2748L25.1219 42.6451C24.0213 43.1107 23.0055 43.4494 21.9896 43.661C20.9737 43.8726 19.9155 43.9996 18.815 43.9996C17.0372 43.9996 15.3864 43.7033 13.8626 43.1107C12.3388 42.5181 10.9843 41.6293 9.84144 40.4441C8.69859 39.2589 7.8097 37.7774 7.17478 35.9996C6.53986 34.2219 6.20123 32.1054 6.20123 29.7351C6.20123 28.9732 6.24356 28.2113 6.28589 27.4917C6.37055 26.7298 6.4552 25.9256 6.58219 25.079C7.00547 22.3277 7.68271 19.915 8.5716 17.8832C9.46049 15.8515 10.4764 14.0737 11.6616 12.6345C12.8044 11.1954 14.0319 10.0102 15.3864 9.12132C16.6986 8.23243 18.0108 7.51286 19.2806 7.00492C20.5504 6.49698 21.778 6.15836 22.9208 5.94672C24.0637 5.73508 25.0372 5.65042 25.8838 5.65042C26.7727 5.65042 27.6192 5.73508 28.5081 5.86206C29.3547 5.98905 30.1589 6.24301 30.9208 6.53931L29.27 17.079Z" fill="#DCE1E2"/>
<path d="M31.5134 24.7404C31.8944 22.497 32.4869 20.2113 33.3758 17.9256C34.2647 15.6398 35.4076 13.6081 36.8044 11.7457C38.2436 9.92555 39.9367 8.40174 41.8838 7.25889C43.8309 6.11603 46.1166 5.52344 48.6563 5.52344C50.7727 5.52344 52.5504 5.90439 54.0319 6.70862C55.5134 7.51286 56.6986 8.57106 57.6298 9.92555C58.561 11.2801 59.1959 12.8039 59.6192 14.5816C60.0425 16.3171 60.2541 18.1372 60.2541 19.9996C60.2541 20.8039 60.2118 21.5658 60.1695 22.37C60.0848 23.1742 60.0002 23.9361 59.8732 24.698C59.4922 26.9414 58.8996 29.2271 58.0108 31.5129C57.1219 33.7986 55.979 35.8303 54.5822 37.6928C53.143 39.5129 51.4499 41.0367 49.5028 42.1795C47.5557 43.3224 45.27 43.915 42.7303 43.915C40.6139 43.915 38.7938 43.4917 37.3547 42.7298C35.9155 41.9256 34.7303 40.8674 33.7991 39.5129C32.9102 38.1584 32.233 36.6346 31.852 34.8568C31.4287 33.1213 31.2171 31.2589 31.2171 29.3541C31.2171 28.5922 31.2594 27.8303 31.3018 27.0261C31.3018 26.2642 31.3864 25.5023 31.5134 24.7404ZM41.7568 24.7404C41.6721 25.206 41.6298 25.8409 41.5028 26.6451C41.4182 27.4494 41.3758 28.3383 41.3758 29.2695C41.3758 29.9467 41.4182 30.5816 41.5028 31.2166C41.5875 31.8515 41.7145 32.4017 41.9261 32.9097C42.1377 33.4176 42.434 33.7986 42.7727 34.0949C43.1536 34.3912 43.5769 34.5605 44.1695 34.5605C44.8044 34.5605 45.3547 34.3912 45.8626 34.0102C46.3705 33.6293 46.7938 33.1213 47.1748 32.5287C47.5557 31.9361 47.8944 31.2589 48.1483 30.497C48.4446 29.7774 48.6563 29.0155 48.8679 28.2959C49.0795 27.5763 49.2065 26.8991 49.3335 26.2642C49.4605 25.6293 49.5451 25.1213 49.5875 24.698C49.6721 24.2324 49.7568 23.5975 49.8414 22.751C49.9684 21.9044 50.0108 21.0578 50.0108 20.1266C50.0108 19.4917 49.9684 18.8144 49.8838 18.2219C49.7991 17.5869 49.6721 17.0367 49.4605 16.5287C49.2489 16.0208 48.9526 15.6398 48.6139 15.3435C48.233 15.0472 47.8097 14.8779 47.2171 14.8779C46.5822 14.8779 46.0319 15.0472 45.524 15.4282C45.016 15.8092 44.5928 16.3171 44.2118 16.9097C43.8309 17.5023 43.4922 18.1795 43.2383 18.9414C42.942 19.661 42.7303 20.4229 42.5187 21.1425C42.3071 21.8621 42.1377 22.5393 42.0108 23.1742C41.8838 23.8515 41.7991 24.3594 41.7568 24.7404Z" fill="#DCE1E2"/>
<path d="M65.5875 43.2801L62.8362 6.20069H73.3758V21.4388C73.3335 22.9626 73.2912 24.4441 73.2488 25.9256C73.1642 27.407 73.1219 28.8885 73.0372 30.4123H73.1219C73.5875 28.8885 74.0108 27.407 74.3494 25.9256C74.7303 24.4441 75.1536 22.9626 75.6615 21.4388L80.7832 6.20069H91.6615L75.8309 43.2801H65.5875Z" fill="#DCE1E2"/>
<path d="M93.8626 6.20069H112.487L111.175 14.9626H102.582L101.736 20.1266H109.482L108.085 28.8885H100.381L99.4922 34.5605H108.085L106.773 43.3224H88.1483L93.8626 6.20069Z" fill="#DCE1E2"/>
<path d="M127.64 43.2801L124.508 27.8303L124.381 27.915C124.296 28.8462 124.169 29.7351 124.085 30.624C124 31.5129 123.873 32.4441 123.704 33.333L122.18 43.2377H112.148L117.905 6.15836H127.598C129.545 6.15836 131.323 6.28534 132.974 6.58164C134.625 6.87793 136.021 7.38587 137.207 8.06312C138.392 8.7827 139.323 9.71391 139.958 10.9414C140.593 12.1689 140.931 13.6927 140.931 15.5552C140.931 16.0208 140.889 16.4864 140.847 16.952C140.804 17.4176 140.72 17.9256 140.677 18.4335C140.339 20.5076 139.619 22.37 138.434 24.0208C137.249 25.7139 135.64 26.9414 133.482 27.7033L138.561 43.1531H127.64V43.2801ZM125.863 23.3859C126.498 23.3859 127.132 23.2589 127.683 23.0049C128.233 22.751 128.741 22.37 129.122 21.9467C129.545 21.5234 129.884 21.0155 130.138 20.4229C130.392 19.8303 130.561 19.2801 130.688 18.6875C130.73 18.4758 130.73 18.3065 130.773 18.1372C130.773 17.9679 130.815 17.7986 130.815 17.6293C130.815 16.4441 130.476 15.5975 129.799 15.0049C129.122 14.4547 128.233 14.1584 127.09 14.1584H126.709L125.228 23.3435L125.863 23.3859Z" fill="#DCE1E2"/>
<path d="M158.286 38.5393H151.556L149.99 43.3224H139.662L154.307 6.24301H166.54L168.656 43.3224H158.286V38.5393ZM158.328 30.6663L158.582 22.0737C158.624 20.9308 158.667 19.7457 158.709 18.6028C158.794 17.4176 158.836 16.2748 158.921 15.1319H158.836C158.498 16.2748 158.159 17.4599 157.863 18.6028C157.524 19.788 157.185 20.9308 156.847 22.0737L154.138 30.6663H158.328Z" fill="#DCE1E2"/>
<path d="M171.281 43.2801L177.037 6.20069H187.069L182.624 34.5181H190.159L188.847 43.2801H171.281Z" fill="#DCE1E2"/>
<path d="M191.598 43.2801L197.355 6.20069H207.386L202.942 34.5181H210.476L209.164 43.2801H191.598Z" fill="#DCE1E2"/>
<path d="M213.482 30.7933C213.736 31.3012 214.074 31.8092 214.455 32.3171C214.836 32.825 215.302 33.2483 215.767 33.6293C216.275 34.0102 216.783 34.3488 217.333 34.5605C217.884 34.7721 218.476 34.8991 219.154 34.8991C219.831 34.8991 220.55 34.6875 221.228 34.2642C221.947 33.8409 222.371 33.2483 222.498 32.4017C222.54 32.2748 222.54 32.1054 222.54 31.8515C222.54 31.3012 222.371 30.7933 221.99 30.3277C221.82 30.0737 221.609 29.8197 221.355 29.6081C221.101 29.3965 220.847 29.1425 220.55 28.9308C219.704 28.1689 218.9 27.407 218.18 26.6875C217.46 25.9256 216.826 25.1213 216.318 24.2324C215.937 23.5975 215.683 22.8779 215.471 22.116C215.259 21.3541 215.175 20.5499 215.175 19.661C215.175 19.0684 215.217 18.4335 215.302 17.7562C215.471 16.6557 215.852 15.4282 216.445 14.0314C217.037 12.6345 217.841 11.2801 218.942 10.0525C220 8.82503 221.355 7.76682 222.921 6.87793C224.529 5.98905 226.392 5.56577 228.508 5.56577C229.736 5.56577 230.921 5.73508 232.106 6.0737C233.291 6.41233 234.392 6.87794 235.365 7.4282L233.672 18.6875C233.46 18.2219 233.164 17.7562 232.783 17.2906C232.402 16.825 232.021 16.4017 231.556 16.0208C231.09 15.6398 230.582 15.3435 230.074 15.0896C229.524 14.8356 228.974 14.7086 228.381 14.7086C227.789 14.7086 227.196 14.9203 226.561 15.3012C225.926 15.6822 225.545 16.2324 225.418 16.9943V17.2906C225.418 17.9256 225.63 18.5181 226.095 19.0684C226.307 19.3647 226.561 19.6187 226.857 19.8726C227.154 20.1266 227.408 20.3383 227.662 20.5922C228.593 21.3541 229.439 22.0737 230.159 22.7933C230.878 23.5129 231.429 24.2748 231.852 25.1213C232.191 25.7139 232.445 26.3488 232.614 27.0261C232.783 27.7033 232.868 28.4652 232.868 29.3118C232.868 30.0737 232.783 30.8356 232.656 31.5552C232.402 33.2906 231.852 34.8991 231.048 36.3806C230.244 37.8621 229.228 39.1742 228 40.3171C226.773 41.4599 225.418 42.3488 223.852 42.9838C222.286 43.6187 220.635 43.9573 218.9 43.9573C216.36 43.9573 213.905 43.4494 211.619 42.4335L213.482 30.7933Z" fill="#DCE1E2"/>
<path d="M27.6613 15.5556C27.0264 14.8783 26.4338 14.328 25.7989 13.9471C25.2063 13.5661 24.3598 13.3968 23.3016 13.3968C21.9894 13.3968 20.8465 13.7354 19.9153 14.3704C18.9841 15.0053 18.1799 15.8095 17.5449 16.8254C16.91 17.7989 16.4021 18.8571 16.0211 20.0423C15.6402 21.1852 15.3862 22.2857 15.2169 23.3016C15.1322 23.8095 15.0899 24.2751 15.0476 24.7831C15.0053 25.291 14.9629 25.7989 14.9629 26.3069C14.9629 27.1958 15.0476 28.0423 15.2169 28.8466C15.3862 29.6508 15.6402 30.4127 16.0211 31.0476C16.4021 31.6825 16.91 32.1905 17.5449 32.5714C18.1799 32.9524 18.9841 33.1217 20 33.1217C21.1428 33.1217 22.1587 32.9101 23.0053 32.4868C23.8518 32.0635 24.7407 31.5132 25.7143 30.7513L23.5132 41.1217C22.4127 41.5873 21.3968 41.9259 20.3809 42.1376C19.365 42.3492 18.3068 42.4762 17.2063 42.4762C15.4285 42.4762 13.7777 42.1799 12.2539 41.5873C10.7301 40.9947 9.37563 40.1058 8.23277 38.9206C7.08991 37.7355 6.20103 36.254 5.5661 34.4762C4.97351 32.6561 4.63489 30.5397 4.63489 28.1693C4.63489 27.4074 4.67722 26.6455 4.71954 25.9259C4.8042 25.164 4.88886 24.3598 5.01584 23.5132C5.43912 20.7619 6.11637 18.3492 7.00526 16.3175C7.89415 14.2857 8.91002 12.5079 10.0952 11.0688C11.2381 9.62963 12.4656 8.44444 13.8201 7.55556C15.1322 6.66667 16.4444 5.94709 17.7143 5.43915C18.9841 4.93122 20.2116 4.59259 21.3545 4.38095C22.4973 4.16931 23.4709 4.08466 24.3174 4.08466C25.2063 4.08466 26.0529 4.16931 26.9418 4.2963C27.7883 4.42328 28.5926 4.67725 29.3545 4.97355L27.6613 15.5556Z" fill="#394A56"/>
<path d="M29.9047 23.2169C30.2857 20.9735 30.8783 18.6878 31.7672 16.4021C32.656 14.1164 33.7989 12.0847 35.1957 10.2222C36.6349 8.40212 38.328 6.87831 40.2751 5.73545C42.2222 4.59259 44.5079 4 47.0476 4C49.164 4 50.9418 4.38095 52.4232 5.18519C53.9047 5.98942 55.0899 7.04762 56.0211 8.40212C56.9523 9.75661 57.5873 11.2804 58.0105 13.0582C58.4338 14.7937 58.6455 16.6138 58.6455 18.4762C58.6455 19.2804 58.6031 20.0423 58.5608 20.8466C58.4762 21.6508 58.3915 22.4127 58.2645 23.1746C57.8836 25.418 57.291 27.7037 56.4021 29.9894C55.5132 32.2751 54.3703 34.3069 52.9735 36.1693C51.5344 37.9894 49.8412 39.5132 47.8941 40.6561C45.9471 41.7989 43.6613 42.3915 41.1217 42.3915C39.0053 42.3915 37.1852 41.9683 35.746 41.2064C34.3068 40.4021 33.1217 39.3439 32.1904 37.9894C31.3016 36.6349 30.6243 35.1111 30.2434 33.3333C29.8201 31.5979 29.6084 29.7355 29.6084 27.8307C29.6084 27.0688 29.6508 26.3069 29.6931 25.5026C29.6931 24.7407 29.7777 23.9788 29.9047 23.2169ZM40.1481 23.2169C40.0635 23.6825 40.0211 24.3175 39.8941 25.1217C39.8095 25.9259 39.7672 26.8148 39.7672 27.746C39.7672 28.4233 39.8095 29.0582 39.8941 29.6931C39.9788 30.328 40.1058 30.8783 40.3174 31.3862C40.5291 31.8942 40.8254 32.2751 41.164 32.5714C41.5449 32.8677 41.9682 33.037 42.5608 33.037C43.1957 33.037 43.746 32.8677 44.2539 32.4868C44.7619 32.1058 45.1852 31.5979 45.5661 31.0053C45.9471 30.4127 46.2857 29.7355 46.5396 28.9735C46.8359 28.254 47.0476 27.4921 47.2592 26.7725C47.4709 26.0529 47.5979 25.3757 47.7248 24.7407C47.8518 24.1058 47.9365 23.5979 47.9788 23.1746C48.0635 22.709 48.1481 22.0741 48.2328 21.2275C48.3598 20.381 48.4021 19.5344 48.4021 18.6032C48.4021 17.9683 48.3598 17.291 48.2751 16.6984C48.1904 16.0635 48.0635 15.5132 47.8518 15.0053C47.6402 14.4974 47.3439 14.1164 47.0053 13.8201C46.6243 13.5238 46.201 13.3545 45.6084 13.3545C44.9735 13.3545 44.4232 13.5238 43.9153 13.9048C43.4074 14.2857 42.9841 14.7937 42.6031 15.3862C42.2222 15.9788 41.8836 16.6561 41.6296 17.418C41.3333 18.1376 41.1217 18.8995 40.91 19.619C40.6984 20.3386 40.5291 21.0159 40.4021 21.6508C40.2751 22.328 40.1904 22.836 40.1481 23.2169Z" fill="#394A56"/>
<path d="M63.9788 41.7566L61.2275 4.67725H71.7672V19.9153C71.7248 21.4392 71.6825 22.9206 71.6402 24.4021C71.5555 25.8836 71.5132 27.3651 71.4285 28.8889H71.5132C71.9788 27.3651 72.4021 25.8836 72.7407 24.4021C73.1217 22.9206 73.5449 21.4392 74.0529 19.9153L79.1746 4.67725H90.0105L74.1799 41.7566H63.9788Z" fill="#394A56"/>
<path d="M92.2539 4.67725H110.878L109.566 13.4392H100.974L100.127 18.6032H107.831L106.434 27.3651H98.7301L97.8412 33.037H106.434L105.122 41.7989H86.4973L92.2539 4.67725Z" fill="#394A56"/>
<path d="M126.032 41.7566L122.899 26.3069L122.772 26.3915C122.688 27.3228 122.561 28.2116 122.476 29.1005C122.391 29.9894 122.265 30.9206 122.095 31.8095L120.571 41.7143H110.54L116.254 4.67725H125.947C127.894 4.67725 129.672 4.80423 131.323 5.10053C132.974 5.39683 134.37 5.90476 135.556 6.58201C136.741 7.30159 137.672 8.2328 138.307 9.46032C138.942 10.6878 139.28 12.2116 139.28 14.0741C139.28 14.5397 139.238 15.0053 139.196 15.4709C139.153 15.9365 139.069 16.4444 139.026 16.9524C138.688 19.0265 137.968 20.8889 136.783 22.5397C135.598 24.2328 133.989 25.4603 131.831 26.2222L136.91 41.672H126.032V41.7566ZM124.254 21.8624C124.889 21.8624 125.524 21.7355 126.074 21.4815C126.624 21.2275 127.132 20.8466 127.513 20.4233C127.936 20 128.275 19.4921 128.529 18.8995C128.783 18.3069 128.952 17.7566 129.079 17.164C129.122 16.9524 129.122 16.7831 129.164 16.6138C129.164 16.4444 129.206 16.2751 129.206 16.1058C129.206 14.9206 128.868 14.0741 128.19 13.4815C127.513 12.9312 126.624 12.6349 125.481 12.6349H125.1L123.661 21.7778L124.254 21.8624Z" fill="#394A56"/>
<path d="M156.677 37.0159H149.947L148.381 41.7989H138.053L152.698 4.71958H164.931L167.048 41.7989H156.677V37.0159ZM156.72 29.1429L156.974 20.5503C157.016 19.4074 157.058 18.2222 157.1 17.0794C157.185 15.8942 157.227 14.7513 157.312 13.6085H157.227C156.889 14.7513 156.55 15.9365 156.254 17.0794C155.915 18.2646 155.577 19.4074 155.238 20.5503L152.529 29.1429H156.72Z" fill="#394A56"/>
<path d="M169.672 41.7566L175.429 4.67725H185.46L181.016 32.9947H188.55L187.238 41.7566H169.672Z" fill="#394A56"/>
<path d="M189.989 41.7566L195.746 4.67725H205.778L201.333 32.9947H208.868L207.556 41.7566H189.989Z" fill="#394A56"/>
<path d="M211.873 29.2698C212.127 29.7778 212.466 30.2857 212.847 30.7937C213.227 31.3016 213.693 31.7249 214.159 32.1058C214.667 32.4868 215.175 32.8254 215.725 33.037C216.275 33.2487 216.868 33.3757 217.545 33.3757C218.222 33.3757 218.942 33.164 219.619 32.7407C220.339 32.3175 220.762 31.7249 220.889 30.8783C220.931 30.7513 220.931 30.582 220.931 30.328C220.931 29.7778 220.762 29.2698 220.381 28.8042C220.212 28.5503 220 28.2963 219.746 28.0847C219.492 27.873 219.238 27.619 218.942 27.4074C218.095 26.6455 217.291 25.8836 216.571 25.164C215.852 24.4021 215.217 23.5979 214.709 22.709C214.328 22.0741 214.074 21.3545 213.862 20.5926C213.651 19.8307 213.566 19.0265 213.566 18.1376C213.566 17.545 213.608 16.9101 213.693 16.2328C213.862 15.1323 214.243 13.9048 214.836 12.5079C215.429 11.1111 216.233 9.75661 217.333 8.5291C218.391 7.30159 219.746 6.24339 221.312 5.3545C222.921 4.46561 224.783 4.04233 226.899 4.04233C228.127 4.04233 229.312 4.21164 230.497 4.55026C231.682 4.88889 232.783 5.3545 233.757 5.90476L231.979 17.164C231.767 16.6984 231.471 16.2328 231.09 15.7672C230.709 15.3016 230.328 14.8783 229.862 14.4974C229.397 14.1164 228.889 13.8201 228.381 13.5661C227.831 13.3122 227.28 13.1852 226.688 13.1852C226.095 13.1852 225.503 13.3968 224.868 13.7778C224.233 14.1587 223.852 14.709 223.725 15.4709V15.7672C223.725 16.4021 223.936 16.9947 224.402 17.545C224.614 17.8413 224.868 18.0952 225.164 18.3492C225.46 18.6032 225.714 18.8148 225.968 19.0688C226.899 19.8307 227.746 20.5503 228.466 21.2698C229.185 21.9894 229.735 22.7513 230.159 23.5979C230.497 24.1905 230.751 24.8254 230.921 25.5026C231.09 26.1799 231.175 26.9418 231.175 27.7884C231.175 28.5503 231.09 29.3122 230.963 30.0317C230.709 31.7672 230.159 33.3757 229.354 34.8571C228.55 36.3386 227.534 37.6508 226.307 38.7937C225.079 39.9365 223.725 40.8254 222.159 41.4603C220.593 42.0952 218.942 42.4339 217.206 42.4339C214.667 42.4339 212.212 41.9259 209.926 40.9101L211.873 29.2698Z" fill="#394A56"/>
</svg>
