<svg width="264" height="48" viewBox="0 0 264 48" fill="none" xmlns="http://www.w3.org/2000/svg">
<path d="M203.629 27.6588V21.754H220.004V37.9922C217.792 39.9105 215.25 41.411 212.501 42.4209C207.283 44.3104 201.994 44.5909 196.717 42.7899C190.465 40.6273 186.413 36.2651 184.723 29.9174C182.907 23.1121 183.962 16.7423 188.45 11.1659C191.879 6.89598 196.44 4.58941 201.898 4.11702C205.958 3.74797 209.94 4.22036 213.686 5.98442C214.838 6.53022 215.934 7.18651 216.959 7.94409C217.558 8.34819 218.119 8.80386 218.638 9.30589L214.343 14.4209C213.605 13.8784 212.907 13.3138 212.169 12.8266C210.62 11.7506 208.873 10.9922 207.029 10.595C205.185 10.1979 203.281 10.1699 201.426 10.5127C196.997 11.2988 193.916 14.0076 192.229 18.1115C190.155 23.1601 190.55 28.098 193.676 32.6336C195.864 35.8111 199.086 37.3722 202.902 37.6527C206.452 37.911 209.796 37.1988 212.815 35.2207C212.999 35.0989 213.184 34.9623 213.379 34.8147V27.6588H203.629Z" fill="black"/>
<path d="M117.858 9.27636L113.518 14.4431C112.222 13.3765 110.934 12.3395 109.384 11.701C104.28 9.58267 99.3278 9.48672 94.9103 13.2695C91.4154 16.2588 90.0462 20.2446 90.2455 24.7581C90.3931 28.253 91.4929 31.401 93.984 33.9843C96.1748 36.2423 99.1545 37.5648 102.299 37.6749C105.444 37.9184 108.59 37.2167 111.333 35.6598C111.776 35.4052 112.193 35.1026 112.595 34.8405V27.6514H102.849V21.7687H119.179V38.007C116.291 40.4855 112.864 42.2548 109.17 43.1737C104.233 44.3842 99.3389 44.2809 94.6298 42.2659C88.7988 39.8043 85.171 35.3757 83.7354 29.2347C82.3404 23.2671 83.1302 17.5874 86.662 12.4797C90.4706 6.95872 95.8624 4.23143 102.539 4.02845C106.532 3.90297 110.381 4.54143 113.927 6.51955C115.322 7.31244 116.638 8.23549 117.858 9.27636Z" fill="black"/>
<path d="M4.99463 4.76286H27.5068V10.7858H11.8184V19.2407H22.3068V25.308H11.8073V37.1988H27.5068V43.2328H4.99463V4.76286Z" fill="black"/>
<path d="M236.523 4.76286H259.005V10.7969H243.339V19.2592H253.853V25.3116H243.343V37.1877H259.002V43.2328H236.523V4.76286Z" fill="black"/>
<path d="M69.9846 43.2549H47.2289V20.5509L69.9846 43.2549Z" fill="black"/>
<path d="M64.6038 4.76655V27.4595L41.8592 4.76655H64.6038Z" fill="black"/>
<path d="M156.007 4.48239H149.903C145.014 17.4066 140.125 30.3234 135.237 43.2328H142.282C143.327 40.1475 144.363 37.0868 145.389 34.0508H160.41C161.475 37.1508 162.532 40.2152 163.58 43.2438H170.699C165.778 30.2926 160.881 17.3721 156.007 4.48239ZM147.341 27.8987L152.899 12.6975L158.461 27.8987H147.341Z" fill="black"/>
</svg>
