<svg width="168" height="48" viewBox="0 0 168 48" fill="none" xmlns="http://www.w3.org/2000/svg">
<path d="M108.398 22.9596L111.583 15.1846L114.769 22.9599L108.398 22.9596ZM98.9439 32.996H104.322L106.514 27.6181H116.653L118.846 32.996H124.36L114.084 8.84766H109.22L98.9439 32.996ZM72.2264 32.996H77.433V17.7535L89.0449 32.996H93.532V9.01889H88.326V23.7822L77.0905 9.01889H72.2264V32.996ZM50.8529 22.9596L54.0382 15.1846L57.2235 22.9599L50.8529 22.9596ZM41.3987 32.996H46.7768L48.9689 27.6181H59.1075L61.2997 32.996H66.8144L56.539 8.84766H51.6748L41.3987 32.996Z" fill="#54565A"/>
<path d="M156.839 43.9145H157.689V40.4154L160.402 43.9145H161.125V38.9963H160.276V42.3971L157.639 38.9963H156.839V43.9145ZM153.367 43.1988C153.142 43.198 152.919 43.1518 152.712 43.0631C152.505 42.9743 152.317 42.8447 152.161 42.682C152.005 42.5194 151.883 42.3269 151.803 42.1162C151.723 41.9055 151.686 41.6808 151.694 41.4555V41.4412C151.684 41.217 151.72 40.9931 151.799 40.783C151.878 40.5729 151.998 40.381 152.153 40.2188C152.308 40.0566 152.495 39.9274 152.701 39.8391C152.907 39.7508 153.129 39.7051 153.354 39.7049C153.58 39.7066 153.803 39.7535 154.01 39.8431C154.217 39.9327 154.405 40.063 154.561 40.2263C154.717 40.3896 154.838 40.5826 154.918 40.7938C154.998 41.005 155.035 41.2301 155.026 41.4558V41.4695C155.036 41.6932 155 41.9167 154.921 42.1263C154.842 42.3359 154.722 42.5274 154.567 42.6891C154.412 42.8507 154.225 42.9793 154.019 43.067C153.813 43.1547 153.591 43.1996 153.367 43.1992V43.1988ZM153.354 43.9991C153.692 44.0071 154.028 43.947 154.342 43.8225C154.656 43.6979 154.942 43.5115 155.182 43.2742C155.423 43.0369 155.613 42.7536 155.742 42.4412C155.871 42.1289 155.935 41.7937 155.932 41.4559V41.4415C155.921 40.7658 155.644 40.1218 155.161 39.6486C154.679 39.1755 154.029 38.9113 153.354 38.9131C152.678 38.915 152.03 39.1828 151.55 39.6587C151.07 40.1345 150.797 40.7801 150.789 41.4559V41.4695C150.784 41.806 150.848 42.1399 150.976 42.4513C151.103 42.7626 151.292 43.0449 151.532 43.2812C151.772 43.5175 152.057 43.7029 152.37 43.8262C152.683 43.9496 153.017 44.0083 153.354 43.999V43.9991ZM148.969 43.915H149.833V38.9963H148.969L148.969 43.915ZM145.715 43.915H146.586V39.7967H148.146V38.9963H144.155V39.7967H145.715V43.915ZM141.013 41.9619L141.857 39.9944L142.707 41.9619H141.013ZM139.307 43.915H140.192L140.698 42.7271H143.023L143.522 43.915H144.436L142.272 38.9616H141.47L139.307 43.915ZM137.69 43.915H138.554V38.9963H137.69L137.69 43.915ZM134.878 43.999C135.254 44.011 135.629 43.9392 135.974 43.7887C136.319 43.6382 136.627 43.4128 136.874 43.1289L136.319 42.5662C136.14 42.764 135.922 42.9224 135.679 43.0314C135.436 43.1404 135.173 43.1975 134.906 43.1993C134.684 43.1949 134.465 43.1459 134.262 43.0552C134.059 42.9645 133.877 42.834 133.725 42.6714C133.574 42.5087 133.457 42.3173 133.381 42.1085C133.305 41.8997 133.272 41.6778 133.283 41.4559V41.4416C133.273 41.2203 133.306 40.999 133.383 40.791C133.459 40.5829 133.576 40.3923 133.728 40.2304C133.879 40.0685 134.061 39.9386 134.264 39.8484C134.466 39.7582 134.684 39.7096 134.906 39.7054C135.165 39.7111 135.42 39.7681 135.656 39.873C135.892 39.978 136.106 40.1288 136.283 40.3167L136.839 39.6772C136.589 39.4226 136.288 39.2231 135.957 39.0913C135.625 38.9595 135.269 38.8984 134.913 38.9118C134.577 38.9053 134.244 38.9667 133.933 39.0923C133.622 39.2179 133.339 39.4052 133.102 39.6428C132.865 39.8805 132.679 40.1636 132.554 40.4751C132.43 40.7866 132.369 41.1201 132.377 41.4556V41.4692C132.369 41.8011 132.429 42.1311 132.551 42.4395C132.674 42.748 132.857 43.0286 133.091 43.2647C133.324 43.5007 133.602 43.6874 133.909 43.8135C134.217 43.9396 134.546 44.0026 134.878 43.9987L134.878 43.999ZM129.123 43.1987C128.897 43.1979 128.674 43.1518 128.467 43.063C128.26 42.9742 128.072 42.8446 127.916 42.682C127.76 42.5193 127.638 42.3269 127.558 42.1161C127.478 41.9054 127.441 41.6807 127.45 41.4554V41.4411C127.44 41.2169 127.475 40.993 127.554 40.7829C127.633 40.5729 127.754 40.3809 127.909 40.2187C128.064 40.0565 128.25 39.9273 128.456 39.839C128.663 39.7507 128.885 39.7051 129.109 39.7049C129.335 39.7065 129.558 39.7534 129.765 39.843C129.973 39.9325 130.16 40.0628 130.316 40.2261C130.472 40.3894 130.594 40.5824 130.674 40.7936C130.754 41.0049 130.791 41.23 130.782 41.4557V41.4694C130.792 41.6932 130.756 41.9167 130.677 42.1264C130.598 42.3361 130.477 42.5275 130.322 42.6892C130.167 42.8509 129.981 42.9794 129.775 43.0671C129.569 43.1547 129.347 43.1996 129.123 43.1991V43.1987ZM129.109 43.9991C129.447 44.007 129.783 43.9469 130.097 43.8224C130.411 43.6978 130.697 43.5114 130.937 43.2741C131.178 43.0368 131.368 42.7535 131.497 42.4412C131.626 42.1288 131.691 41.7937 131.687 41.4558V41.4415C131.676 40.7657 131.399 40.1217 130.916 39.6485C130.434 39.1754 129.785 38.9112 129.109 38.9131C128.433 38.9149 127.785 39.1828 127.305 39.6586C126.825 40.1344 126.552 40.78 126.544 41.4558V41.4695C126.54 41.8059 126.603 42.1399 126.731 42.4512C126.858 42.7625 127.048 43.0448 127.287 43.2811C127.527 43.5174 127.812 43.7028 128.125 43.8261C128.438 43.9495 128.773 44.0083 129.109 43.9989V43.9991ZM124.126 43.9852C125.16 43.9852 125.883 43.4376 125.883 42.5173V42.503C125.883 41.6879 125.349 41.3151 124.309 41.0615C123.36 40.8369 123.135 40.6682 123.135 40.2885V40.2747C123.135 39.951 123.43 39.6912 123.937 39.6912C124.425 39.7092 124.894 39.8868 125.272 40.1968L125.735 39.543C125.233 39.1313 124.6 38.9123 123.95 38.9256C123.745 38.9012 123.537 38.9194 123.339 38.9791C123.141 39.0388 122.958 39.1387 122.8 39.2725C122.643 39.4062 122.514 39.5711 122.423 39.7567C122.332 39.9423 122.281 40.1447 122.271 40.3512V40.3655C122.271 41.272 122.861 41.5814 123.908 41.8347C124.822 42.046 125.019 42.2352 125.019 42.5869V42.6006C125.019 42.966 124.682 43.2194 124.147 43.2194C123.567 43.212 123.012 42.9832 122.594 42.5799L122.075 43.1987C122.636 43.7081 123.368 43.9886 124.126 43.9848V43.9852ZM119.84 43.9848C120.872 43.9848 121.596 43.4371 121.596 42.5169V42.5025C121.596 41.6875 121.062 41.3147 120.022 41.0611C119.073 40.8364 118.848 40.6678 118.848 40.2881V40.2747C118.848 39.951 119.143 39.6912 119.649 39.6912C120.138 39.7092 120.607 39.8868 120.985 40.1968L121.448 39.543C120.946 39.1312 120.313 38.9122 119.664 38.9256C119.459 38.9011 119.25 38.9193 119.052 38.979C118.854 39.0386 118.671 39.1385 118.513 39.2723C118.356 39.4061 118.227 39.5709 118.136 39.7566C118.045 39.9422 117.994 40.1446 117.984 40.3512V40.3655C117.984 41.272 118.574 41.5814 119.621 41.8347C120.535 42.046 120.733 42.2352 120.733 42.5869V42.6006C120.733 42.966 120.395 43.2194 119.861 43.2194C119.28 43.2121 118.725 42.9833 118.307 42.5799L117.788 43.1987C118.349 43.7082 119.081 43.9887 119.84 43.9848H119.84ZM114.077 41.9614L114.92 39.9939L115.77 41.9614H114.077ZM112.369 43.9145H113.255L113.761 42.7266H116.087L116.585 43.9145H117.499L115.334 38.961H114.533L112.369 43.9145ZM108.188 43.9848C109.221 43.9848 109.944 43.4371 109.944 42.5169V42.5025C109.944 41.6875 109.411 41.3147 108.371 41.0611C107.422 40.8364 107.196 40.6678 107.196 40.2881V40.2747C107.196 39.951 107.492 39.6912 107.998 39.6912C108.487 39.7092 108.956 39.8868 109.334 40.1968L109.797 39.543C109.295 39.1312 108.662 38.9122 108.012 38.9256C107.807 38.9011 107.599 38.9193 107.401 38.979C107.203 39.0386 107.019 39.1385 106.862 39.2723C106.704 39.4061 106.576 39.5709 106.485 39.7566C106.394 39.9422 106.342 40.1446 106.333 40.3512V40.3655C106.333 41.272 106.923 41.5814 107.97 41.8347C108.884 42.046 109.08 42.2352 109.08 42.5869V42.6006C109.08 42.966 108.743 43.2194 108.209 43.2194C107.629 43.2121 107.073 42.9833 106.656 42.5799L106.136 43.1987C106.698 43.7081 107.43 43.9886 108.188 43.9848H108.188ZM101.898 43.9145H105.58V43.1421H102.762V41.8202H105.229V41.0484H102.762V39.768H105.545V38.9963H101.898V43.9145ZM99.2628 43.9848C100.296 43.9848 101.019 43.4371 101.019 42.5169V42.5025C101.019 41.6875 100.486 41.3147 99.4458 41.0611C98.4963 40.8364 98.2716 40.6678 98.2716 40.2881V40.2747C98.2716 39.951 98.5666 39.6912 99.0733 39.6912C99.5616 39.7092 100.031 39.8868 100.408 40.1968L100.872 39.543C100.369 39.1313 99.7365 38.9123 99.087 38.9256C98.8817 38.9012 98.6736 38.9194 98.4757 38.9791C98.2778 39.0388 98.0944 39.1387 97.9368 39.2725C97.7792 39.4062 97.651 39.5711 97.56 39.7567C97.469 39.9423 97.4173 40.1447 97.408 40.3512V40.3655C97.408 41.272 97.9974 41.5814 99.0446 41.8347C99.959 42.046 100.156 42.2352 100.156 42.5869V42.6006C100.156 42.966 99.8183 43.2194 99.2836 43.2194C98.7035 43.212 98.1482 42.9832 97.7311 42.5799L97.2114 43.1987C97.7728 43.7081 98.5047 43.9886 99.2628 43.9848ZM93.4647 41.4345V39.7824H94.723C95.3632 39.7824 95.7428 40.0709 95.7428 40.5974V40.6118C95.7428 41.1113 95.3488 41.4344 94.7301 41.4344L93.4647 41.4345ZM92.6012 43.9145H93.4647V42.1998H94.5471L95.7565 43.9145H96.7816L95.4543 42.0526C95.7923 41.98 96.0942 41.7911 96.3072 41.5188C96.5202 41.2465 96.631 40.9081 96.6201 40.5626V40.5489C96.6303 40.1551 96.4839 39.7733 96.213 39.4874C95.8225 39.1438 95.3126 38.9675 94.7933 38.9963H92.6012V43.9145ZM89.4387 43.992C89.7306 44.0169 90.0245 43.9762 90.2987 43.8728C90.5728 43.7694 90.8204 43.606 91.0232 43.3945C91.226 43.1829 91.3788 42.9287 91.4705 42.6504C91.5623 42.3721 91.5905 42.0768 91.5533 41.7862V38.9963H90.6897V41.8279C90.6897 42.7344 90.2189 43.1916 89.452 43.1916C88.679 43.1916 88.2082 42.7064 88.2082 41.7928V38.9963H87.3446V41.8279C87.3099 42.1144 87.3395 42.405 87.4314 42.6785C87.5233 42.952 87.6751 43.2016 87.8757 43.409C88.0764 43.6163 88.3208 43.7763 88.5911 43.8772C88.8615 43.9781 89.1509 44.0173 89.4384 43.992L89.4387 43.992ZM82.0102 43.9145H82.8601V40.4154L85.5732 43.9145H86.2967V38.9963H85.4469V42.3971L82.8106 38.9963H82.0102V43.9145ZM74.6316 43.9145H75.4816V40.4154L78.1948 43.9145H78.9177V38.9963H78.0684V42.3971L75.4321 38.9963H74.6318L74.6316 43.9145ZM70.5066 41.9614L71.3492 39.994L72.1998 41.9614H70.5066ZM68.7989 43.9145H69.684L70.1901 42.7267H72.5157L73.0146 43.9145H73.9283L71.7642 38.9611H70.9631L68.7989 43.9145ZM66.4577 43.9985C66.8341 44.0106 67.2085 43.9387 67.5537 43.7882C67.8989 43.6378 68.2064 43.4124 68.4538 43.1285L67.8982 42.5658C67.7196 42.7635 67.5018 42.922 67.2586 43.0309C67.0154 43.1399 66.7522 43.1971 66.4857 43.1988C66.2636 43.1944 66.0446 43.1455 65.8418 43.0548C65.6389 42.9641 65.4564 42.8336 65.3051 42.6709C65.1537 42.5083 65.0366 42.3169 64.9607 42.1081C64.8847 41.8993 64.8516 41.6774 64.8631 41.4555V41.4412C64.8524 41.2198 64.8861 40.9986 64.9624 40.7905C65.0387 40.5824 65.156 40.3918 65.3073 40.2299C65.4586 40.068 65.6408 39.9381 65.8432 39.8479C66.0457 39.7578 66.2641 39.7091 66.4857 39.7049C66.7443 39.7107 66.9992 39.7677 67.2356 39.8726C67.4721 39.9775 67.6853 40.1283 67.8631 40.3162L68.4186 39.6767C68.1684 39.4223 67.868 39.2228 67.5364 39.091C67.2048 38.9593 66.8494 38.8981 66.4929 38.9115C66.1574 38.905 65.8241 38.9664 65.513 39.0921C65.2019 39.2177 64.9194 39.405 64.6825 39.6426C64.4457 39.8802 64.2593 40.1633 64.1346 40.4748C64.01 40.7863 63.9496 41.1198 63.9571 41.4553V41.4689C63.9495 41.8008 64.0087 42.1308 64.1313 42.4392C64.2539 42.7477 64.4374 43.0283 64.6708 43.2644C64.9041 43.5004 65.1826 43.6871 65.4897 43.8132C65.7967 43.9393 66.126 44.0023 66.4579 43.9984L66.4577 43.9985ZM62.1369 43.9144H63.0004V38.9963H62.1366L62.1369 43.9144ZM58.0108 41.4346V39.7824H59.269C59.9092 39.7824 60.2889 40.0709 60.2889 40.5974V40.6118C60.2889 41.1113 59.8949 41.4344 59.2762 41.4344L58.0108 41.4346ZM57.1474 43.9145H58.0108V42.1998H59.0932L60.3025 43.9145H61.3276L60.0004 42.0526C60.3384 41.98 60.6402 41.7911 60.8533 41.5188C61.0663 41.2465 61.177 40.9081 61.1661 40.5626V40.5489C61.1764 40.1551 61.03 39.7733 60.7591 39.4874C60.3686 39.1438 59.8587 38.9675 59.3393 38.9963H57.1474V43.9145ZM52.5795 43.9145H56.2611V43.1421H53.4431V41.8202H55.9094V41.0484H53.4431V39.768H56.2259V38.9963H52.5795V43.9145ZM46.62 43.9145H47.4698V40.4017L49.0094 42.7058H49.0374L50.5906 40.3874V43.9145H51.4541V38.9963H50.5346L49.0374 41.3219L47.5401 38.9963H46.62V43.9145ZM42.4949 41.9614L43.3376 39.994L44.1882 41.9614H42.4949ZM40.7874 43.9145H41.6724L42.1784 42.7267H44.504L45.0029 43.9145H45.9166L43.7525 38.9611H42.9515L40.7874 43.9145Z" fill="#54565A"/>
<path d="M18.7338 4C18.7338 4 36.29 8.67728 36.29 19.9566C36.29 30.8231 20.651 30.8646 21.7351 43.998C21.7351 43.998 15.1424 41.074 15.4911 34.948C16.0218 25.6538 40.4837 17.438 18.7338 4Z" fill="#D2451E"/>
<path d="M18.5277 5.6416C18.5342 5.67549 25.7594 12.1503 18.4164 20.0985H24.2286C24.2286 20.0985 6.79873 25.4469 10.473 34.5553C10.473 34.5553 5.6129 28.1757 7.19018 22.487C8.9095 16.2846 20.4641 13.3663 18.528 5.6416" fill="#009ADE"/>
</svg>
