<svg width="320" height="48" viewBox="0 0 320 48" fill="none" xmlns="http://www.w3.org/2000/svg">
<path d="M111.016 28.4847C111.523 28.4587 112.029 28.5425 112.5 28.7303C112.972 28.9182 113.397 29.2056 113.747 29.5729C114.097 29.9403 114.363 30.3789 114.528 30.8588C114.693 31.3387 114.752 31.8485 114.701 32.3534C114.701 34.6237 113.398 36.2628 111.016 36.2628C108.634 36.2628 107.331 34.6542 107.331 32.3534C107.331 30.0525 108.624 28.4847 111.016 28.4847ZM111.016 35.0818C112.553 35.0818 113.123 33.7176 113.123 32.3534C113.123 30.9892 112.513 29.6657 111.016 29.6657C109.519 29.6657 108.898 31.0197 108.898 32.3534C108.898 33.687 109.469 35.0716 111.016 35.0716V35.0818ZM123.151 29.9915C122.67 29.7807 122.15 29.6699 121.624 29.6657C121.478 29.6419 121.328 29.6505 121.185 29.6909C121.042 29.7313 120.909 29.8025 120.797 29.8995C120.684 29.9965 120.594 30.117 120.533 30.2525C120.472 30.388 120.441 30.5352 120.443 30.6837C120.443 31.9869 123.742 31.4371 123.742 33.9619C123.742 35.6112 122.439 36.2322 120.922 36.2322C120.266 36.2299 119.614 36.1304 118.987 35.937L119.13 34.583C119.65 34.8763 120.234 35.0371 120.83 35.0513C121.4 35.0513 122.164 34.756 122.164 34.0332C122.164 32.5977 118.865 33.1882 118.865 30.7041C118.865 29.0243 120.168 28.4134 121.492 28.4134C122.104 28.4066 122.712 28.4994 123.294 28.6883L123.151 29.9915ZM129.494 29.798H127.336V28.6069H133.159V29.798H131.001V36.1304H129.494V29.798ZM137.15 28.6069H141.589V29.798H138.657V31.6509H141.385V32.8319H138.697V34.9393H141.65V36.1304H137.191L137.15 28.6069ZM149.53 28.4847C150.036 28.4587 150.543 28.5425 151.014 28.7303C151.485 28.9182 151.91 29.2056 152.26 29.5729C152.61 29.9403 152.877 30.3789 153.042 30.8588C153.206 31.3387 153.266 31.8485 153.215 32.3534C153.215 34.6237 151.912 36.2628 149.53 36.2628C147.147 36.2628 145.844 34.6542 145.844 32.3534C145.844 30.0525 147.096 28.4847 149.53 28.4847ZM149.53 35.0818C151.067 35.0818 151.647 33.7176 151.647 32.3534C151.647 30.9892 151.036 29.6657 149.53 29.6657C148.023 29.6657 147.412 31.0197 147.412 32.3534C147.412 33.687 147.952 35.0716 149.53 35.0716V35.0818ZM157.45 28.6069H159.354C160.993 28.6069 162.49 29.0752 162.49 30.8772C162.49 32.6792 161.207 33.2696 159.588 33.2696H158.957V36.1304H157.45V28.6069ZM158.957 32.0887H159.486C160.24 32.0887 160.922 31.8443 160.922 30.9688C160.922 30.0933 160.26 29.798 159.486 29.798H158.957V32.0887ZM167.967 28.6069H169.667L172.619 36.1304H170.909L170.268 34.3997H167.213L166.552 36.1304H164.984L167.967 28.6069ZM168.791 30.1136L167.702 33.1678H169.891L168.791 30.1136ZM177.129 29.798H174.981V28.6069H180.805V29.798H178.646V36.1304H177.14L177.129 29.798ZM184.775 28.6069H186.282V31.6611H189.336V28.6069H190.843V36.1304H189.336V32.8319H186.282V36.1304H184.775V28.6069ZM195.455 28.6069H196.962V36.1304H195.455V28.6069ZM207.091 36.0286C206.532 36.171 205.958 36.2495 205.381 36.2628C202.948 36.2628 201.248 35.0411 201.248 32.5061C201.248 29.9711 202.826 28.4847 205.381 28.4847C205.962 28.4901 206.537 28.5969 207.081 28.8003L206.969 30.1136C206.473 29.8344 205.909 29.6971 205.34 29.7166C204.99 29.7139 204.644 29.7842 204.323 29.9231C204.002 30.062 203.713 30.2664 203.475 30.5232C203.238 30.78 203.056 31.0836 202.943 31.4145C202.829 31.7454 202.786 32.0964 202.815 32.445C202.785 32.7944 202.829 33.1462 202.945 33.4773C203.061 33.8083 203.245 34.1109 203.487 34.3651C203.729 34.6192 204.022 34.8191 204.346 34.9515C204.671 35.0838 205.02 35.1456 205.371 35.1327C205.936 35.1395 206.497 35.0321 207.02 34.8171L207.091 36.0286Z" fill="#22205F"/>
<path d="M61.843 9.84418L60.7944 6.69835L54.3093 22.0712C54.3093 22.0712 53.2912 16.2886 50.6544 13.1631C49.3283 11.5372 47.8374 10.0531 46.2055 8.73449C44.6751 7.49727 42.9284 6.55487 41.054 5.95515C38.6005 5.37485 39.3233 5.95515 39.5982 6.3013C39.8731 6.64744 42.3775 7.15648 44.6071 8.92792C47.2138 10.9385 49.235 13.61 50.461 16.6653C51.6895 19.6512 52.202 22.8832 51.9576 26.1028C51.6215 29.5897 50.2931 32.9073 48.1296 35.6625C46.2012 38.3392 43.5019 40.3637 40.3923 41.4655C39.2622 41.7403 39.1706 42.6362 40.3923 42.3206C43.158 41.305 45.7299 39.8244 47.9973 37.9429C50.5323 35.8152 52.2019 32.313 53.1792 30.2361C55.7448 24.82 61.843 9.84418 61.843 9.84418Z" fill="white"/>
<g opacity="0.2">
<path d="M92.7007 4.00049V44.0005V4.00049Z" fill="#22205F"/>
<path d="M92.7007 4.00049V44.0005" stroke="#22205F" stroke-width="1.22168"/>
</g>
<path d="M45.9101 37.2402C47.2374 36.7238 48.493 36.0395 49.6464 35.2041C52.1704 33.0776 53.9942 30.239 54.8793 27.0595C55.2836 25.3698 55.3733 23.6201 55.144 21.8979C54.8824 19.9536 54.2683 18.0733 53.3318 16.3494C52.3565 14.6585 51.0636 13.172 49.5242 11.9717C48.1384 11.0839 46.6728 10.3272 45.1465 9.71158C44.6171 9.25345 46.9587 8.62225 51.2549 11.6561C53.1615 13.0667 54.7157 14.8996 55.7955 17.0111C56.5306 18.4731 57.0517 20.0332 57.343 21.6434L62.2908 10.0577L63.1969 12.6538L56.6202 28.6477C55.9401 30.1965 55.0679 31.6536 54.0241 32.9847C52.7089 34.7232 51.0309 36.1545 49.1068 37.1791C45.3196 38.8997 45.0447 37.6271 45.9101 37.2402ZM23.1766 21.9692C21.3542 17.5711 20.6517 16.3087 19.2773 12.6538L20.2343 10.2104L25.172 21.9692C25.6292 19.194 26.7971 16.5845 28.5621 14.3947C29.5682 13.2838 30.6684 12.2619 31.8505 11.3405C33.3267 10.2613 36.5235 8.82586 36.778 9.50797C36.9409 9.98646 35.3832 10.3122 33.5405 11.4627C32.8073 11.9568 32.1252 12.523 31.5044 13.1527C30.2411 14.4091 29.2074 15.8769 28.4502 17.4896C27.884 18.8996 27.4908 20.3729 27.2794 21.8775C26.9784 24.1454 27.2227 26.4524 27.992 28.607C29.0101 31.7732 32.4715 34.9903 32.7871 35.2346C34.9964 36.9042 37.3481 37.2708 36.7373 37.9427C36.1264 38.6146 29.1628 35.6724 26.5566 29.7269C24.9175 26.2247 23.6754 23.1196 23.1766 21.9692Z" fill="white"/>
<path d="M44.159 39.165C44.334 39.1516 44.5076 39.1244 44.6782 39.0835C45.4634 38.948 46.2388 38.7609 46.9995 38.5236C47.4372 38.3913 47.8648 38.2385 48.272 38.0757C49.5852 37.563 50.8245 36.8783 51.9575 36.0395C52.8021 35.4003 53.5798 34.6771 54.2787 33.8812C55.364 32.6223 56.2436 31.1998 56.8849 29.6664H69.3868L69.5803 30.1652C70.6339 32.6474 71.495 35.2069 72.156 37.8211L67.7885 38.5134H67.6256V39.3584H78.3153V38.5236H78.1626L74.976 37.8211C74.0358 36.1635 73.2126 34.4421 72.5123 32.6697L62.8813 8.15455H60.8452L56.8849 17.6532C54.2888 11.6771 48.4044 7.98148 41.3899 7.98148H41.0641C34.0496 7.98148 28.1651 11.6771 25.5691 17.6532L21.6088 8.15455H19.5726L9.94167 32.6595C9.24162 34.432 8.41836 36.1534 7.47794 37.811L4.29138 38.5134H4.13867V39.3482H14.7979V38.5032H14.635L10.2675 37.811C10.9347 35.196 11.8026 32.6365 12.8635 30.1551L13.057 29.6562H25.5385C25.901 30.4953 26.3335 31.3025 26.8315 32.069C27.2379 32.6899 27.6869 33.2818 28.1753 33.8405C28.8741 34.6365 29.6518 35.3597 30.4965 35.9988C31.6295 36.8375 32.8688 37.5222 34.1819 38.0349C34.5892 38.1978 35.0168 38.3505 35.4545 38.4829C36.2152 38.7202 36.9906 38.9072 37.7757 39.0428C38.1626 39.1141 38.58 39.1752 39.0076 39.2159H39.1908C40.0143 39.323 40.8462 39.3503 41.6749 39.2973L40.5347 37.5972H40.3005C38.3505 37.4212 36.4779 36.7487 34.8615 35.6438C33.2451 34.5388 31.9386 33.0382 31.0666 31.2851C30.8173 30.7765 30.5997 30.2528 30.4151 29.7173C29.7232 27.7558 29.3786 25.6887 29.397 23.6089C29.2565 19.9046 30.4892 16.2791 32.8584 13.4282C33.8802 12.2723 35.1329 11.3435 36.5357 10.7017C37.9386 10.0599 39.4604 9.71935 41.003 9.70202H41.4917C43.0343 9.71935 44.5561 10.0599 45.959 10.7017C47.3618 11.3435 48.6145 12.2723 49.6363 13.4282C52.0055 16.2791 53.2382 19.9046 53.0977 23.6089C53.1169 25.6888 52.7723 27.756 52.0796 29.7173C51.8834 30.2644 51.6521 30.7983 51.3873 31.3157C50.5329 33.0312 49.2628 34.5057 47.6926 35.6046C46.1224 36.7036 44.3022 37.392 42.3978 37.6073C42.7829 37.7314 43.1383 37.9338 43.4414 38.2019C43.7445 38.47 43.9888 38.7979 44.159 39.165ZM19.3588 28.0782C17.5024 28.0983 15.6463 28.0099 13.8002 27.8135L14.2685 26.6122C15.4494 23.558 17.6077 18.0095 19.1858 14.8331L24.6935 27.8339C22.9209 28.0108 21.1402 28.0923 19.3588 28.0782ZM36.1366 9.91581C34.2482 10.6185 32.533 11.7191 31.1074 13.1431C28.7864 15.486 27.3199 18.5407 26.9435 21.8171C26.8534 22.4921 26.8058 23.1722 26.8009 23.8532C26.8182 26.2108 27.4014 28.5298 28.5016 30.6151C29.6019 32.7003 31.1868 34.4908 33.1231 35.8359C34.127 36.5251 35.215 37.0828 36.3606 37.4954C36.4522 37.5463 36.5235 37.6175 36.5031 37.7091C36.4828 37.8008 36.2995 37.7906 36.1265 37.7091L35.8312 37.6175C33.6496 36.8869 31.6596 35.6762 30.0078 34.0746C28.4884 32.6127 27.2829 30.8564 26.465 28.913L19.593 12.4304L20.2038 10.8626L24.6223 21.4811L25.3247 23.1609H25.4469C25.5035 21.9152 25.726 20.6827 26.1086 19.4959C27.0812 16.5125 28.9382 13.8956 31.4331 11.9927C32.8496 10.9092 34.445 10.0823 36.1468 9.54931H36.493C36.5133 9.54931 36.1366 9.91581 36.1366 9.91581ZM55.9788 28.9537C54.5451 32.3451 51.96 35.1214 48.6793 36.7929C47.9138 37.1817 47.1169 37.5052 46.297 37.76C46.1341 37.76 45.961 37.811 45.9407 37.76C45.9203 37.7091 46.0017 37.5972 46.0934 37.5463C47.2349 37.1361 48.3195 36.5818 49.3207 35.897C51.257 34.5519 52.8419 32.7614 53.9421 30.6762C55.0423 28.5909 55.6256 26.2719 55.6429 23.9143C55.6377 23.2333 55.5901 22.5532 55.5003 21.8781C55.1231 18.6021 53.6568 15.5475 51.3364 13.2042C49.9112 11.7797 48.1959 10.679 46.3072 9.9769C46.3072 9.9769 45.8796 9.85473 45.9305 9.6613C45.9814 9.46786 46.1035 9.57985 46.2664 9.6613C47.9718 10.1932 49.5707 11.0202 50.9903 12.1047C53.4932 13.9978 55.3609 16.6076 56.3453 19.5875C56.7283 20.7742 56.9508 22.0068 57.0071 23.2525H57.1293L62.2298 10.995L62.8406 12.5628L57.903 24.4437L55.9788 28.9537ZM63.1053 28.0477C61.3242 28.0652 59.5434 27.987 57.7706 27.8135L63.258 14.8433C64.836 18.0197 66.9944 23.5783 68.1753 26.6224L68.6436 27.8237C66.7973 28.0167 64.9412 28.1017 63.085 28.0782L63.1053 28.0477Z" fill="#22205F"/>
<path d="M34.6502 16.8082C34.9219 16.7811 35.1961 16.8113 35.4554 16.8967C35.7146 16.9822 35.9531 17.1209 36.1555 17.3041C36.3578 17.4873 36.5196 17.7108 36.6303 17.9603C36.741 18.2098 36.7983 18.4797 36.7984 18.7527C36.7882 20.5241 35.5054 20.9517 34.3346 20.9517H32.1865V20.7277C32.4716 20.7277 32.665 20.6666 32.6956 20.5852C32.7089 20.5009 32.7089 20.415 32.6956 20.3307V17.4394C32.7096 17.3517 32.7096 17.2623 32.6956 17.1747C32.6956 17.0932 32.4716 17.0423 32.1865 17.0321V16.8082H34.6502ZM33.958 20.0863C33.958 20.5954 33.958 20.5648 34.2328 20.5648C34.9251 20.5648 35.5462 20.2391 35.5462 18.7527C35.5462 17.6328 35.0473 17.1747 34.0699 17.1747H33.958V20.0863ZM46.2054 18.7221C46.2446 18.1523 46.5051 17.6204 46.9312 17.2399C47.3573 16.8595 47.9152 16.6607 48.4858 16.686C49.0258 16.686 49.5438 16.9005 49.9256 17.2824C50.3075 17.6642 50.522 18.1821 50.522 18.7221C50.5234 19.017 50.4659 19.3092 50.3531 19.5817C50.2403 19.8542 50.0743 20.1014 49.8648 20.309C49.6553 20.5166 49.4066 20.6803 49.1331 20.7907C48.8596 20.901 48.5669 20.9558 48.272 20.9517C47.985 20.9573 47.7 20.9022 47.4358 20.7899C47.1716 20.6776 46.9341 20.5107 46.739 20.3001C46.5438 20.0896 46.3954 19.8402 46.3034 19.5682C46.2114 19.2962 46.178 19.0079 46.2054 18.7221ZM49.2596 18.8239C49.2596 17.4903 48.7302 17.0219 48.2415 17.0219C47.7528 17.0219 47.4474 17.2663 47.4474 18.5592C47.4474 19.8522 47.8648 20.5241 48.384 20.5241C48.7403 20.5241 49.2901 20.4121 49.2901 18.8341L49.2596 18.8239Z" fill="#22205F"/>
<path d="M43.202 41.476C43.3415 41.155 43.4109 40.8079 43.4057 40.4579C43.4092 40.1766 43.3609 39.8971 43.2631 39.6333C43.1182 39.2875 42.9018 38.9763 42.6281 38.7201C42.3544 38.464 42.0295 38.2686 41.6749 38.1469L41.2372 37.984C41.083 37.94 40.9357 37.8749 40.7994 37.7906C40.5612 37.6609 40.3591 37.4738 40.2116 37.2462C40.064 37.0187 39.9756 36.7578 39.9544 36.4875V36.2228C39.9637 35.5341 40.063 34.8496 40.2496 34.1866C40.2328 34.1608 40.2103 34.1391 40.1838 34.1232C40.1574 34.1074 40.1277 34.0977 40.0969 34.095C39.9646 34.095 39.5981 34.1561 39.0789 35.0316C38.7905 35.458 38.596 35.9408 38.5082 36.448C38.4205 36.9553 38.4415 37.4753 38.5698 37.9738C38.7568 38.3897 39.0382 38.7563 39.3917 39.0443C39.7451 39.3324 40.1609 39.5341 40.606 39.6333L41.115 39.8064L41.736 40.0812C42.0169 40.1987 42.268 40.3776 42.4706 40.6049C42.6732 40.8322 42.8223 41.102 42.9068 41.3946C42.9068 41.3946 42.9984 41.6796 43.202 41.476Z" fill="#22205F"/>
<path d="M44.0572 32.8122C43.8573 32.4002 43.5617 32.0419 43.1951 31.7674C42.8285 31.4929 42.4015 31.3101 41.9498 31.2342L41.2881 31.0611C40.9802 30.9979 40.68 30.9023 40.3922 30.7761C40.1557 30.6748 39.9532 30.5078 39.8088 30.2948C39.6644 30.0819 39.5842 29.832 39.5777 29.5748V29.4017C39.607 28.6711 39.7232 27.9465 39.9239 27.2434C39.9239 27.1619 39.8628 27.1416 39.8526 27.1416C39.6388 27.1416 39.089 27.5081 38.6818 28.1596C38.372 28.5718 38.1628 29.0506 38.0709 29.5578C37.979 30.0651 38.0069 30.5869 38.1524 31.0815C38.3958 31.5318 38.7457 31.9157 39.1716 32.1997C39.5975 32.4836 40.0865 32.659 40.5958 32.7104H40.6874C40.7587 33.7285 40.9725 36.8641 40.9725 36.9456L41.1557 37.0474L41.2983 37.1085H41.4102L41.6139 37.2408L41.8378 33.1685L41.96 33.2296C42.1723 33.3112 42.3585 33.4491 42.4984 33.6284C42.6383 33.8078 42.7267 34.0219 42.7541 34.2477C42.757 34.2918 42.757 34.336 42.7541 34.3801C42.6726 34.9909 42.3978 36.3042 42.296 36.63V36.7114C42.4589 36.7114 42.9679 35.9784 43.2224 35.6323C43.7441 34.9945 44.06 34.2136 44.1285 33.3925C44.1378 33.1964 44.1137 33.0002 44.0572 32.8122Z" fill="#22205F"/>
<path d="M44.4645 25.5636C44.2444 25.1405 43.9244 24.7776 43.5323 24.5062C43.1403 24.2347 42.6879 24.063 42.2145 24.0059C41.9132 23.9283 41.6071 23.8705 41.2983 23.8328C40.8544 23.752 40.4184 23.6328 39.9951 23.4765C39.7607 23.4148 39.5496 23.2853 39.3885 23.1042C39.2273 22.9231 39.1231 22.6985 39.089 22.4584V22.2854C39.1174 21.558 39.2336 20.8367 39.4352 20.1372C39.4352 20.0456 39.3741 20.0354 39.3537 20.0253C39.1399 20.0253 38.5902 20.3918 38.183 21.0433C37.756 21.6409 37.5056 22.3464 37.4601 23.0795C37.4575 23.3333 37.5024 23.5853 37.5925 23.8227C37.8571 24.3071 38.2335 24.7214 38.6903 25.0312C39.1471 25.3411 39.6712 25.5375 40.2191 25.6043C40.2802 26.5511 40.4838 29.534 40.494 29.6766C40.633 29.7425 40.7758 29.8003 40.9216 29.8496L41.1863 29.9209H41.4917L41.8378 30.0023L42.0313 26.0115L42.184 26.0726C42.4236 26.1485 42.6337 26.2971 42.7851 26.4978C42.9365 26.6984 43.0217 26.9412 43.029 27.1925V27.3045C43.0089 28.0401 42.8749 28.7682 42.6319 29.4628C42.6319 29.5442 42.6828 29.5646 42.7032 29.5646C42.8661 29.5646 43.3649 29.2592 43.8231 28.5465C44.2982 27.8745 44.5831 27.0866 44.6477 26.266C44.6292 26.0228 44.5671 25.7848 44.4645 25.5636Z" fill="#22205F"/>
<path d="M47.7935 15.0265C47.5848 14.3448 47.2724 13.6992 46.8671 13.1126C46.5636 12.6678 46.1589 12.3014 45.6861 12.0436C45.0442 11.7608 44.3514 11.6119 43.65 11.6058C43.0624 11.1244 42.3731 10.7826 41.6342 10.6062C40.8953 10.4299 40.126 10.4236 39.3843 10.5877C38.5305 10.7368 37.7623 11.1971 37.2282 11.8797C36.6941 12.5624 36.4322 13.4188 36.493 14.2833V14.3444C36.493 16.8794 38.2135 17.6328 39.8628 18.0298C39.9239 19.0479 40.1376 22.1021 40.1478 22.2345C40.3472 22.3232 40.5511 22.4014 40.7587 22.4686L41.1455 22.5603H41.4001C41.6546 22.5603 41.9702 22.6519 42.2043 22.713C42.2043 22.5093 42.296 19.4551 42.3265 18.5592L42.5199 18.6305C42.7475 18.696 42.9505 18.8278 43.1028 19.0091C43.2551 19.1905 43.3499 19.4131 43.3751 19.6486V19.7707C43.3302 20.5274 43.1688 21.2725 42.8966 21.98C42.8966 22.0512 42.9475 22.0716 42.9679 22.0716C43.1817 22.0716 43.7314 21.7051 44.1387 21.0535C44.4356 20.67 44.6442 20.2258 44.7498 19.7524C44.8554 19.279 44.8553 18.7882 44.7495 18.3149C44.5374 17.8724 44.2242 17.4861 43.8351 17.1872C43.4459 16.8883 42.9919 16.6852 42.5098 16.5944C42.0833 16.4612 41.6478 16.3591 41.2066 16.2889C40.6422 16.2467 40.0902 16.1018 39.5777 15.8613C39.2738 15.708 39.0181 15.4739 38.8385 15.1848C38.6589 14.8956 38.5624 14.5626 38.5596 14.2223C38.5532 13.9207 38.6249 13.6225 38.7676 13.3568C38.9102 13.091 39.1192 12.8666 39.3741 12.7053L39.5573 12.6035L39.7304 14.6397C39.9791 14.7845 40.2417 14.9038 40.5143 14.996L41.0234 15.1283H41.1659C41.6018 15.195 42.0335 15.2867 42.4589 15.4032C42.4589 15.1894 42.5607 13.5809 42.5607 13.5401C42.5656 13.4425 42.5482 13.345 42.5098 13.2551L42.4487 13.1431L42.7337 13.4689C42.8923 13.6786 43.0353 13.8998 43.1613 14.1306C43.2354 14.2751 43.3241 14.4115 43.426 14.5379C44.4441 15.4643 45.9203 15.393 47.6408 15.2098C47.7029 15.1616 47.7462 15.0931 47.763 15.0163L47.7935 15.0265ZM40.9317 9.67148C41.4997 9.63492 42.07 9.66224 42.6319 9.75292L42.7235 7.42154C42.7235 6.56636 41.7055 6.40347 41.0641 6.33221C40.7962 6.28991 40.5221 6.31118 40.2639 6.3943C40.0057 6.47741 39.7706 6.62005 39.5777 6.8107C39.4103 7.03656 39.3275 7.31396 39.3436 7.59461L39.4454 9.84455C39.937 9.75785 40.4333 9.70006 40.9317 9.67148Z" fill="#22205F"/>
<path d="M70.6796 14.924C70.0176 14.922 69.371 14.7238 68.8215 14.3546C68.2721 13.9853 67.8443 13.4615 67.5924 12.8493C67.3404 12.2371 67.2756 11.5639 67.4059 10.9149C67.5363 10.2658 67.8561 9.66995 68.325 9.20254C68.7938 8.73513 69.3906 8.41713 70.0401 8.28872C70.6895 8.1603 71.3625 8.22722 71.9739 8.48103C72.5853 8.73484 73.1079 9.16415 73.4754 9.71474C73.843 10.2653 74.0392 10.9125 74.0392 11.5745C74.0392 12.0153 73.9523 12.4516 73.7833 12.8587C73.6143 13.2657 73.3667 13.6354 73.0546 13.9466C72.7425 14.2577 72.3721 14.5042 71.9645 14.672C71.557 14.8397 71.1203 14.9253 70.6796 14.924ZM70.6796 8.81556C70.1383 8.80748 69.6068 8.96061 69.1528 9.25546C68.6988 9.55031 68.3428 9.97355 68.13 10.4713C67.9173 10.9691 67.8574 11.519 67.958 12.0509C68.0586 12.5828 68.3152 13.0728 68.6951 13.4584C69.075 13.8441 69.5611 14.108 70.0914 14.2166C70.6218 14.3253 71.1724 14.2737 71.6734 14.0684C72.1743 13.8631 72.6029 13.5135 72.9045 13.064C73.2062 12.6144 73.3673 12.0853 73.3673 11.544C73.3647 10.831 73.0809 10.1479 72.5778 9.64283C72.0746 9.13774 71.3925 8.85146 70.6796 8.84611V8.81556ZM72.3798 13.3154H71.5857L70.9138 12.0225H70.0179V13.3053H69.3256V9.6402H71.1377C71.4295 9.61486 71.7204 9.69696 71.9559 9.87106C72.1914 10.0452 72.3552 10.2993 72.4164 10.5857C72.4777 10.872 72.4323 11.1709 72.2887 11.4261C72.1451 11.6813 71.9132 11.8753 71.6366 11.9716L72.3798 13.3154ZM71.1377 11.4116C71.2133 11.4176 71.2892 11.4073 71.3604 11.3814C71.4315 11.3555 71.4963 11.3147 71.5504 11.2616C71.6044 11.2085 71.6465 11.1445 71.6736 11.0737C71.7008 11.003 71.7125 10.9273 71.7079 10.8517C71.7079 10.4343 71.4839 10.2918 71.1377 10.2918H70.0179V11.4218L71.1377 11.4116Z" fill="#22205F"/>
<path d="M109.692 17.6729L108.939 19.933H107.921L110.385 12.6742H111.515L114.05 19.933H113.032L112.258 17.6525L109.692 17.6729ZM112.075 16.9399L111.362 14.8528C111.199 14.3743 111.097 13.9467 110.985 13.5293C110.873 13.9569 110.761 14.4049 110.619 14.8427L109.906 16.9399H112.075ZM128.527 16.7668C128.476 15.7487 128.404 14.5372 128.415 13.6311C128.17 14.4863 127.865 15.3822 127.498 16.3901L126.195 19.933H125.483L124.312 16.4817C123.966 15.4637 123.681 14.5271 123.477 13.6617C123.477 14.5678 123.406 15.7793 123.334 16.8686L123.121 19.933H122.225L122.734 12.6742H123.925L125.167 16.1865C125.472 17.0824 125.717 17.8765 125.9 18.6299C126.083 17.8969 126.338 17.1028 126.664 16.1865L127.957 12.6742H129.168L129.616 19.933H128.7L128.527 16.7668ZM142.138 16.553H139.349V19.1695H142.495V19.933H138.422V12.6945H142.342V13.4784H139.349V15.7691H142.169L142.138 16.553ZM150.975 12.8065C151.57 12.6999 152.173 12.6487 152.777 12.6538C153.526 12.5781 154.275 12.7891 154.874 13.2443C155.062 13.4196 155.21 13.6329 155.308 13.8699C155.406 14.1069 155.453 14.3622 155.444 14.6187C155.45 15.0341 155.32 15.44 155.074 15.7745C154.828 16.1091 154.479 16.3539 154.08 16.4716C154.362 16.6073 154.604 16.8136 154.782 17.0705C154.961 17.3274 155.07 17.6261 155.098 17.9376C155.222 18.632 155.41 19.3135 155.658 19.9737H154.64C154.422 19.4137 154.259 18.8342 154.151 18.243C153.938 17.2249 153.551 16.8686 152.696 16.8279H151.81V19.933H150.873L150.975 12.8065ZM151.912 16.1152H152.869C153.887 16.1152 154.508 15.5655 154.508 14.7408C154.508 13.9162 153.826 13.397 152.838 13.3868C152.527 13.3763 152.216 13.4037 151.912 13.4683V16.1152ZM165.014 12.6945V19.933H164.078V12.6945H165.014ZM179.054 19.7192C178.447 19.9681 177.795 20.0861 177.14 20.0654C176.653 20.095 176.166 20.0194 175.712 19.8439C175.258 19.6684 174.846 19.397 174.506 19.0482C174.166 18.6994 173.905 18.2815 173.741 17.8228C173.577 17.3641 173.514 16.8754 173.556 16.3901C173.528 15.8846 173.607 15.3788 173.787 14.9057C173.967 14.4325 174.245 14.0025 174.602 13.6435C174.959 13.2846 175.388 13.0046 175.86 12.8218C176.332 12.6391 176.837 12.5575 177.343 12.5825C177.934 12.5589 178.522 12.6703 179.064 12.9083L178.84 13.6719C178.38 13.4624 177.879 13.358 177.374 13.3664C176.982 13.3448 176.591 13.4087 176.226 13.5538C175.862 13.6989 175.534 13.9217 175.264 14.2066C174.995 14.4915 174.791 14.8317 174.666 15.2036C174.542 15.5754 174.5 15.9699 174.543 16.3596C174.501 16.7422 174.543 17.1296 174.666 17.4943C174.789 17.859 174.991 18.1924 175.257 18.4708C175.523 18.7493 175.847 18.9662 176.205 19.1062C176.564 19.2463 176.949 19.3061 177.333 19.2814C177.858 19.2874 178.378 19.1834 178.86 18.976L179.054 19.7192ZM188.674 17.6729L187.921 19.933H186.903L189.367 12.6742H190.497L193.021 19.933H192.003L191.27 17.6729H188.674ZM191.057 16.9399L190.344 14.8528C190.181 14.3743 190.079 13.9467 189.967 13.5293C189.855 13.9569 189.743 14.4049 189.601 14.8427L188.888 16.9399H191.057ZM201.4 19.933V12.6945H202.418L204.739 16.3698C205.225 17.1277 205.66 17.9167 206.043 18.7317C205.961 17.7136 205.931 16.8788 205.931 15.7487V12.6945H206.816V19.933H205.869L203.569 16.2476C203.076 15.4674 202.631 14.6583 202.235 13.8246C202.286 14.7408 202.306 15.6164 202.306 16.8177V19.8719L201.4 19.933ZM219.135 33.7889L218.382 36.0694H217.363L219.827 28.8106H220.957L223.431 36.0694H222.413L221.639 33.7889H219.135ZM221.517 33.0559L220.805 30.9689C220.642 30.4904 220.54 30.0628 220.428 29.6454C220.316 30.073 220.204 30.5209 220.061 30.9587L219.349 33.0559H221.517ZM228.216 34.9292C228.723 35.2358 229.303 35.401 229.896 35.4077C230.853 35.4077 231.413 34.8986 231.413 34.1656C231.413 33.4326 231.026 33.1476 230.049 32.72C228.868 32.3026 228.135 31.7019 228.135 30.6838C228.148 30.3965 228.22 30.115 228.348 29.857C228.475 29.599 228.654 29.3701 228.874 29.1846C229.094 28.9992 229.35 28.8612 229.625 28.7793C229.901 28.6974 230.191 28.6734 230.476 28.7088C231.034 28.69 231.587 28.8126 232.085 29.0651L231.83 29.8287C231.408 29.601 230.936 29.4821 230.456 29.4825C229.438 29.4825 229.092 30.073 229.092 30.5718C229.092 31.254 229.529 31.5899 230.537 31.9768C231.769 32.4451 232.39 32.9949 232.39 34.1045C232.39 35.2142 231.566 36.1916 229.845 36.1916C229.197 36.1983 228.559 36.0369 227.992 35.7233L228.216 34.9292ZM237.318 34.9292C237.825 35.2358 238.405 35.401 238.997 35.4077C239.954 35.4077 240.514 34.8986 240.514 34.1656C240.514 33.4326 240.128 33.1476 239.15 32.72C237.969 32.3026 237.236 31.7019 237.236 30.6838C237.249 30.3965 237.322 30.115 237.449 29.857C237.576 29.599 237.756 29.3701 237.975 29.1846C238.195 28.9992 238.451 28.8612 238.727 28.7793C239.003 28.6974 239.292 28.6734 239.578 28.7088C240.128 28.7046 240.67 28.8375 241.156 29.0956L240.901 29.8592C240.479 29.6316 240.007 29.5126 239.527 29.5131C238.509 29.5131 238.163 30.1035 238.163 30.6024C238.163 31.2845 238.6 31.6205 239.608 32.0073C240.84 32.4756 241.461 33.0254 241.461 34.1351C241.461 35.2448 240.647 36.2221 238.936 36.2221C238.289 36.2288 237.65 36.0675 237.084 35.7538L237.318 34.9292ZM252.752 32.3738C252.752 34.8681 251.235 36.1916 249.382 36.1916C247.529 36.1916 246.124 34.7052 246.124 32.5062C246.124 30.3071 247.559 28.6986 249.494 28.6986C251.428 28.6986 252.752 30.2155 252.752 32.3738ZM247.122 32.496C247.122 34.0435 247.957 35.4382 249.433 35.4382C250.909 35.4382 251.754 34.074 251.754 32.384C251.754 30.9383 251.001 29.4316 249.443 29.4316C247.885 29.4316 247.122 30.8976 247.122 32.4858V32.496ZM262.831 35.8353C262.224 36.0842 261.572 36.2022 260.917 36.1814C260.43 36.211 259.943 36.1355 259.489 35.96C259.035 35.7844 258.623 35.513 258.283 35.1643C257.943 34.8155 257.682 34.3975 257.518 33.9388C257.354 33.4802 257.291 32.9915 257.333 32.5062C257.305 32.0006 257.384 31.4949 257.564 31.0217C257.745 30.5486 258.022 30.1186 258.379 29.7596C258.736 29.4006 259.165 29.1207 259.637 28.9379C260.109 28.7551 260.614 28.6736 261.12 28.6986C261.711 28.6746 262.3 28.7861 262.841 29.0244L262.617 29.7879C262.157 29.5784 261.656 29.4741 261.151 29.4825C260.759 29.4609 260.368 29.5248 260.003 29.6699C259.639 29.815 259.311 30.0378 259.041 30.3227C258.772 30.6076 258.568 30.9478 258.443 31.3196C258.319 31.6914 258.277 32.0859 258.32 32.4756C258.278 32.8583 258.32 33.2456 258.443 33.6104C258.567 33.9751 258.768 34.3084 259.034 34.5869C259.3 34.8654 259.624 35.0823 259.982 35.2223C260.341 35.3623 260.726 35.4221 261.11 35.3975C261.635 35.4038 262.155 35.2997 262.637 35.0921L262.831 35.8353ZM268.735 28.8208V36.0796H267.799V28.8208H268.735ZM275.343 33.7889L274.589 36.0694H273.571L276.035 28.8106H277.165L279.639 36.0694H278.621L277.847 33.7889H275.343ZM277.725 33.0559L277.012 30.9689C276.849 30.4904 276.748 30.0628 276.636 29.6454C276.524 30.073 276.412 30.5209 276.269 30.9587L275.556 33.0559H277.725ZM285.096 29.6149H282.897V28.8208H288.272V29.6149H286.053V36.0694H285.106L285.096 29.6149ZM293.8 28.8208V36.0796H292.864V28.8208H293.8ZM305.427 32.3738C305.427 34.8681 303.91 36.1916 302.057 36.1916C300.204 36.1916 298.799 34.7052 298.799 32.5062C298.799 30.3071 300.234 28.6986 302.169 28.6986C304.103 28.6986 305.427 30.2155 305.427 32.3738ZM299.797 32.496C299.797 34.0435 300.632 35.4382 302.108 35.4382C303.584 35.4382 304.429 34.074 304.429 32.384C304.429 30.9383 303.676 29.4316 302.118 29.4316C300.56 29.4316 299.797 30.8976 299.797 32.4858V32.496ZM310.446 36.0694V28.8208H311.464L313.785 32.496C314.27 33.254 314.706 34.043 315.088 34.8579C315.007 33.8398 314.976 33.005 314.976 31.875V28.8208H315.862V36.0796H314.915L312.614 32.3942C312.115 31.6145 311.662 30.8054 311.26 29.9712C311.311 30.8874 311.331 31.7528 311.331 32.9643V36.0185L310.446 36.0694Z" fill="#231F20"/>
</svg>
