<svg width="160" height="56" viewBox="0 0 160 56" fill="none" xmlns="http://www.w3.org/2000/svg">
<path d="M66.3313 31.3484C66.3313 32.8161 66.3313 34.6507 67.3862 36.0726C68.3522 37.1806 69.7703 37.7884 71.2389 37.7237C72.7058 37.779 74.1201 37.1729 75.0917 36.0726C76.1466 34.6966 76.1466 32.9078 76.1466 31.3484V18.5976H79.9076V31.807C79.9076 34.5131 79.6324 36.5312 77.8895 38.3659C75.9631 40.4757 73.3488 41.072 71.1931 41.072C68.6876 41.1082 66.2734 40.1326 64.4966 38.3659C62.7537 36.4395 62.4785 34.4214 62.4785 31.807V18.5976H66.3771V31.3484H66.3313ZM110.867 39.696H114.353V18.0014H110.867V39.696ZM112.656 7.1311C114.091 7.20037 115.21 8.40056 115.179 9.8372C115.21 11.2738 114.091 12.474 112.656 12.5433C111.962 12.5194 111.307 12.2207 110.834 11.7132C110.361 11.2056 110.109 10.5307 110.133 9.8372C110.109 9.14371 110.361 8.46883 110.834 7.96124C111.307 7.45366 111.962 7.15501 112.656 7.1311ZM126.645 21.3037V39.696H122.976V21.3037H120.682V17.772H122.976V9.88306H126.645V17.772H130.314V21.3037H126.645ZM85.8243 40.1546V26.9452C85.8243 24.2391 86.0995 22.221 87.8424 20.3864C89.7688 18.2765 92.3832 17.6803 94.5389 17.6803C97.0443 17.644 99.4585 18.6196 101.235 20.3864C102.978 22.3128 103.253 24.3309 103.253 26.9452V40.1546H99.4924V27.4039C99.4924 25.9362 99.4924 24.1015 98.4375 22.6797C97.4714 21.5716 96.0533 20.9639 94.5847 21.0285C93.1178 20.9732 91.7036 21.5793 90.732 22.6797C89.6771 24.1015 89.6771 25.8444 89.6771 27.4039V40.1546H85.8243ZM136.919 29.1927C136.919 34.6048 140.634 37.3109 144.487 37.3109C148.34 37.3109 152.055 34.5131 152.055 29.1927C152.055 23.7805 148.431 21.0744 144.487 21.0744C140.542 21.0744 136.919 23.8722 136.919 29.1927ZM133.066 29.1927C133.066 22.588 137.882 17.6803 144.533 17.6803C151.183 17.6803 155.999 22.5421 155.999 29.1927C155.999 35.8432 151.092 40.6133 144.533 40.6133C137.974 40.705 133.066 35.8432 133.066 29.1927Z" fill="#0C0C0C"/>
<path d="M42.4816 27.1287L42.4357 32.6327C42.4339 33.1969 41.9903 33.6607 41.4267 33.6876C40.8631 33.6607 40.4194 33.1969 40.4176 32.6327L40.4635 27.1287C40.4635 23.9877 37.9172 21.4413 34.7761 21.4413C31.9324 21.4413 29.4098 23.9181 29.1805 26.9911V27.2205L29.0887 29.3303V29.4679C29.0641 32.2208 27.5728 34.7515 25.1764 36.1066C22.78 37.4618 19.8427 37.4356 17.4709 36.0378C15.0991 34.6401 13.6532 32.0832 13.6777 29.3303C13.6903 29.3318 13.7029 29.3274 13.7118 29.3185C13.7207 29.3095 13.7251 29.297 13.7236 29.2844H13.6777V24.0098C13.6826 23.7495 13.7906 23.5018 13.9781 23.3211C14.1657 23.1405 14.4173 23.0417 14.6776 23.0467C14.938 23.0392 15.1906 23.1356 15.3798 23.3146C15.5691 23.4935 15.6795 23.7403 15.6867 24.0007L15.6408 29.2753C15.6408 32.4163 18.1871 34.9626 21.3282 34.9626C24.4692 34.9626 27.0156 32.4163 27.0156 29.2753V29.0918L27.1073 27.1654V26.9361C27.3917 22.7715 30.7399 19.4691 34.7302 19.4691C38.9975 19.4843 42.4459 22.9532 42.4357 27.2205C42.4816 27.0829 42.4816 27.0829 42.4816 27.1287ZM28.1714 3.92034C14.8727 3.86996 4.05098 14.6096 4.00018 27.9083C3.94973 41.207 14.6894 52.0288 27.9881 52.0797C41.2867 52.1302 52.1086 41.3906 52.1594 28.0919V28.0002C52.1847 14.7302 41.4505 3.95089 28.1806 3.92034H28.1714Z" fill="#3AAFA9"/>
</svg>
