<svg width="160" height="64" viewBox="0 0 160 64" fill="none" xmlns="http://www.w3.org/2000/svg">
<path d="M56.3101 33.2602C56.3101 28.8826 53.5907 25.0356 49.5005 23.5543C49.6774 22.6257 49.7658 21.6972 49.7658 20.7465C49.7658 12.5882 43.1331 5.95547 34.997 5.95547C30.2214 5.95547 25.7996 8.23271 23.0138 12.0797C21.6431 11.0185 19.9628 10.4436 18.2162 10.4436C13.8828 10.4436 10.3674 13.959 10.3674 18.2924C10.3674 19.243 10.5443 20.1716 10.8538 21.0339C6.78575 22.4931 4 26.4064 4 30.7619C4 35.1616 6.74153 39.0086 10.8317 40.4899C10.6548 41.3964 10.5664 42.3471 10.5664 43.2978C10.5664 51.4339 17.177 58.0445 25.3132 58.0445C30.0887 58.0445 34.5106 55.7452 37.2742 51.8982C38.645 52.9815 40.3252 53.5785 42.0719 53.5785C46.4053 53.5785 49.9206 50.0631 49.9206 45.7298C49.9206 44.7791 49.7437 43.8505 49.4342 42.9882C53.5023 41.529 56.3101 37.6157 56.3101 33.2602Z" fill="white"/>
<path d="M24.5611 28.3961L36.0137 33.6138L47.5546 23.4879C47.7315 22.6477 47.7978 21.8297 47.7978 20.9453C47.7978 13.8262 42.0052 8.0336 34.8861 8.0336C30.619 8.0336 26.6615 10.134 24.2516 13.6493L22.3281 23.6205L24.5611 28.3961Z" fill="#FED10A"/>
<path d="M12.711 40.5118C12.5341 41.352 12.4678 42.2142 12.4678 43.0986C12.4678 50.2398 18.2825 56.0324 25.4237 56.0324C29.7129 56.0324 33.7146 53.9099 36.1245 50.3725L38.0259 40.4455L35.4833 35.5815L23.9866 30.3416L12.711 40.5118Z" fill="#24BBB1"/>
<path d="M12.6444 20.7021L20.4931 22.5593L22.2176 13.6493C21.1564 12.8313 19.8299 12.3891 18.4591 12.3891C15.0543 12.3891 12.2686 15.1527 12.2686 18.5796C12.2686 19.3092 12.4012 20.0388 12.6444 20.7021Z" fill="#EF5098"/>
<path d="M11.9591 22.5819C8.46583 23.7316 6.01172 27.0922 6.01172 30.7844C6.01172 34.3882 8.24474 37.594 11.5832 38.8763L22.5935 28.9272L20.5816 24.6159L11.9591 22.5819Z" fill="#17A8E0"/>
<path d="M38.1143 50.3731C39.1976 51.1912 40.502 51.6554 41.8507 51.6554C45.2555 51.6554 48.0412 48.8918 48.0412 45.4649C48.0412 44.7132 47.9086 43.9836 47.6654 43.3203L39.8388 41.4853L38.1143 50.3731Z" fill="#93C83E"/>
<path d="M39.7059 39.4288L48.3285 41.4407C51.8438 40.2911 54.2758 36.9305 54.2758 33.2162C54.2758 29.6345 52.0428 26.4066 48.7044 25.1463L37.4287 35.0291L39.7059 39.4288Z" fill="#0779A1"/>
<path d="M77.1371 42.5465L78.1763 42.436L78.2426 44.5584C75.5011 44.9343 73.1575 45.1333 71.2119 45.1333C68.6251 45.1333 66.7901 44.3816 65.7067 42.8781C64.6234 41.3747 64.0928 39.0312 64.0928 35.8696C64.0928 29.5464 66.6132 26.3848 71.632 26.3848C74.064 26.3848 75.8769 27.0701 77.0708 28.4188C78.2647 29.7674 78.8617 31.912 78.8617 34.8083L78.7069 36.8645H66.8122C66.8122 38.8543 67.1659 40.3356 67.8955 41.2863C68.6251 42.237 69.8632 42.7234 71.6541 42.7234C73.467 42.7676 75.28 42.7013 77.1371 42.5465ZM76.1643 34.742C76.1643 32.5311 75.8106 30.9613 75.1031 30.0549C74.3956 29.1484 73.2459 28.6841 71.6541 28.6841C70.0622 28.6841 68.8462 29.1705 68.0503 30.1212C67.2544 31.0719 66.8343 32.6195 66.8122 34.742H76.1643Z" fill="black"/>
<path d="M82.6202 44.8016V18.934H85.3175V44.8016H82.6202Z" fill="black"/>
<path d="M102.364 32.2216V41.0873C102.364 41.9938 104.597 42.1706 104.597 42.1706L104.464 44.5584C102.563 44.5584 100.993 44.7132 100.042 43.8067C97.8755 44.7574 95.7309 45.1554 93.5642 45.1554C91.906 45.1554 90.6458 44.6911 89.7836 43.7404C88.9213 42.8118 88.4791 41.4632 88.4791 39.6944C88.4791 37.9478 88.9213 36.6434 89.8057 35.8253C90.69 35.0073 92.0829 34.4767 93.9843 34.2998L99.6442 33.7692V32.2216C99.6442 31.0056 99.3789 30.1212 98.8483 29.5906C98.3177 29.06 97.5881 28.7947 96.6816 28.7947H89.5846V26.4069H96.5047C98.5388 26.4069 100.02 26.8712 100.949 27.8219C101.899 28.7504 102.364 30.2317 102.364 32.2216ZM91.2649 39.5618C91.2649 41.7727 92.1713 42.8781 94.0064 42.8781C95.6425 42.8781 97.2564 42.6128 98.8262 42.0601L99.6442 41.7727V35.8253L94.3159 36.3339C93.2326 36.4223 92.4587 36.7318 91.9723 37.2624C91.486 37.7931 91.2649 38.5669 91.2649 39.5618Z" fill="black"/>
<path d="M112.91 28.8168C110.301 28.8168 108.974 29.7232 108.974 31.5583C108.974 32.3984 109.284 32.9954 109.881 33.3491C110.478 33.7029 111.848 34.0566 113.993 34.4325C116.138 34.8083 117.641 35.3168 118.525 36.0022C119.41 36.6655 119.852 37.9257 119.852 39.7829C119.852 41.64 119.255 42.9887 118.061 43.8509C116.867 44.7132 115.143 45.1554 112.843 45.1554C111.362 45.1554 106.387 44.6027 106.387 44.6027L106.542 42.2591C109.394 42.5244 111.473 42.7455 112.865 42.7455C114.258 42.7455 115.32 42.5244 116.049 42.0822C116.779 41.64 117.155 40.8883 117.155 39.8492C117.155 38.8101 116.845 38.1026 116.226 37.7267C115.607 37.3509 114.236 36.9971 112.114 36.6655C109.991 36.3339 108.488 35.8475 107.603 35.1842C106.719 34.543 106.277 33.327 106.277 31.5804C106.277 29.8338 106.896 28.5293 108.134 27.6892C109.372 26.849 110.92 26.429 112.755 26.429C114.214 26.429 119.299 26.8048 119.299 26.8048V29.1705C116.624 29.0157 114.435 28.8168 112.91 28.8168Z" fill="black"/>
<path d="M132.896 29.1263H127.17V37.7488C127.17 39.805 127.325 41.1757 127.612 41.8169C127.922 42.4581 128.629 42.7897 129.757 42.7897L132.963 42.5686L133.139 44.8016C131.526 45.0669 130.31 45.1996 129.469 45.1996C127.59 45.1996 126.308 44.7353 125.578 43.8288C124.849 42.9224 124.495 41.1757 124.495 38.6111V29.1263H121.93V26.7827H124.495V21.2554H127.17V26.7606H132.896V29.1263Z" fill="black"/>
<path d="M136.655 22.6925V19.5752H139.352V22.7146L136.655 22.6925ZM136.655 44.8016V26.7827H139.352V44.8016H136.655Z" fill="black"/>
<path d="M151.07 26.4069C151.866 26.4069 153.215 26.5616 155.116 26.849L155.978 26.9596L155.868 29.1484C153.944 28.9273 152.529 28.8168 151.623 28.8168C149.589 28.8168 148.196 29.3032 147.466 30.276C146.737 31.2488 146.361 33.0617 146.361 35.6927C146.361 38.3237 146.692 40.1587 147.378 41.1979C148.063 42.237 149.478 42.7455 151.645 42.7455L155.89 42.4139L156 44.6469C153.767 44.9785 152.087 45.1554 150.982 45.1554C148.174 45.1554 146.228 44.4258 145.167 42.9887C144.106 41.5516 143.553 39.1196 143.553 35.6927C143.553 32.2658 144.128 29.8559 145.277 28.4851C146.449 27.1144 148.373 26.4069 151.07 26.4069Z" fill="black"/>
</svg>
