<svg width="224" height="48" viewBox="0 0 224 48" fill="none" xmlns="http://www.w3.org/2000/svg">
<path d="M47.2857 23.6346C47.2857 12.7942 38.7596 4 27.6511 4C20.2699 4 13.8631 8.04385 10.5013 14.0609L20.075 23.6346C20.075 19.4446 23.6073 16.0585 27.6511 16.0585C31.9386 16.0585 35.2273 19.4446 35.2273 23.6346C35.2273 27.8246 31.9142 31.2107 27.6511 31.2107H27.6268H11.3296C7.28574 31.2107 3.99707 34.4994 3.99707 38.5432V43.2692H27.6511C38.6865 43.2692 47.2857 34.475 47.2857 23.6346Z" fill="#0DBDFF"/>
<path d="M136.738 21.3203H145.898C149.454 21.3203 151.306 19.6395 151.306 16.497C151.306 13.3057 149.454 11.6248 145.898 11.6248H136.738V21.3203ZM142.024 28.9695H136.738V43.2692H128.528V8.40926C128.528 5.9732 130.502 4 132.962 4H146.141C154.643 4 159.807 9.11571 159.807 16.4482C159.807 22.3435 156.494 26.8258 150.745 28.4093L160.977 43.2692H151.135L142.024 28.9695ZM220.002 42.2217C218.395 43.2692 216.494 44 214.448 44C208.796 44 206.141 40.1267 206.141 34.6212V6.04628L213.912 4.19488V34.6943C213.912 36.229 214.667 37.1791 216.032 37.1791C216.446 37.1791 216.909 37.0816 217.347 36.8867L220.002 42.2217ZM206.433 42.2217C204.826 43.2692 202.926 44 200.879 44C195.228 44 192.572 40.1267 192.572 34.6212V9.28624L200.343 7.36175V34.6943C200.343 36.229 201.099 37.1791 202.463 37.1791C202.877 37.1791 203.34 37.0816 203.778 36.8867L206.433 42.2217ZM182.049 29.067C182.049 24.5116 179.125 21.3691 174.74 21.3691C170.356 21.3691 167.432 24.4629 167.432 29.067C167.432 33.6711 170.356 36.7649 174.74 36.7649C179.125 36.7649 182.049 33.6711 182.049 29.067ZM159.491 29.067C159.491 20.3216 165.898 14.2071 174.74 14.2071C183.583 14.2071 190.039 20.2728 190.039 29.067C190.039 37.8855 183.559 44 174.74 44C165.898 44 159.491 37.8855 159.491 29.067ZM69.9414 27.4105L75.5443 12.4044L81.1473 27.4105H69.9414ZM69.6491 6.7771L55.2764 43.2692H63.9974L67.0669 35.0353H83.9974L87.0669 43.2692H95.7879L80.319 4H73.766C71.9633 4 70.3312 5.09622 69.6491 6.7771ZM109.771 36.7649C105.435 36.7649 102.463 33.6711 102.463 29.067C102.463 24.4629 105.435 21.3691 109.771 21.3691C114.107 21.3691 117.079 24.4629 117.079 29.067C117.079 33.7929 114.034 36.7649 109.771 36.7649ZM116.567 17.7393C114.643 15.4982 111.72 14.2071 108.187 14.2071C100.587 14.2071 94.5212 20.2728 94.5212 29.0183C94.5212 37.8368 100.587 44 107.968 44C111.915 44 115.008 42.2704 116.982 39.3959L117.323 43.2692H124.29V4H121.001C118.565 4 116.567 5.9732 116.567 8.40926V17.7393Z" fill="#333333"/>
</svg>
