<svg width="160" height="80" viewBox="0 0 160 80" fill="none" xmlns="http://www.w3.org/2000/svg">
<mask id="mask0_150_191" style="mask-type:alpha" maskUnits="userSpaceOnUse" x="13" y="7" width="134" height="66">
<path d="M146.638 59.8893C146.638 66.757 140.884 72.3758 133.852 72.3758H26.3837C19.3515 72.3758 13.5979 66.757 13.5979 59.8893V20.1242C13.5979 13.2571 19.3515 7.6377 26.3837 7.6377H133.852C140.884 7.6377 146.638 13.2571 146.638 20.1242V59.8893Z" fill="white"/>
</mask>
<g mask="url(#mask0_150_191)">
<path d="M146.638 59.8893C146.638 66.757 140.884 72.3758 133.852 72.3758H26.3835C19.3513 72.3758 13.5977 66.757 13.5977 59.8893V20.1242C13.5977 13.2571 19.3513 7.6377 26.3835 7.6377H133.852C140.884 7.6377 146.638 13.2571 146.638 20.1242V59.8893Z" fill="url(#paint0_linear_150_191)"/>
</g>
<mask id="mask1_150_191" style="mask-type:alpha" maskUnits="userSpaceOnUse" x="4" y="7" width="152" height="66">
<path d="M4 7.4834H156V72.5166H4" fill="white"/>
</mask>
<g mask="url(#mask1_150_191)">
<path fill-rule="evenodd" clip-rule="evenodd" d="M149.509 31.1998C149.509 26.3317 150.258 23.4608 150.258 18.2185C150.258 10.1048 147.262 7.4834 140.647 7.4834H135.779V13.2251H137.276C140.647 13.2251 141.396 14.3488 141.396 18.468C141.396 22.3372 141.021 26.2069 141.021 30.7009C141.021 36.4426 142.893 38.6893 146.638 39.5629V39.9377C142.893 40.8113 141.021 43.0585 141.021 48.8003C141.021 53.2936 141.396 56.914 141.396 61.0332C141.396 65.2771 140.522 66.4002 137.276 66.4002V66.5249H135.779V72.5166H140.647C147.262 72.5166 150.258 69.8952 150.258 61.7821C150.258 56.4145 149.509 53.6684 149.509 48.8003C149.509 46.1788 151.132 43.4327 156 43.1833V36.6921C151.132 36.5673 149.509 33.8212 149.509 31.1998Z" fill="#FAF9F8"/>
<path fill-rule="evenodd" clip-rule="evenodd" d="M94.2123 38.814C90.3426 37.3162 86.8475 36.4426 86.8475 33.9459C86.8475 32.074 88.3453 30.9503 91.0915 30.9503C93.8376 30.9503 96.3343 32.074 99.0805 34.0712L104.073 27.4553C100.952 25.0839 96.7085 22.5872 90.9667 22.5872C82.4789 22.5872 76.7366 27.4553 76.7366 34.3207C76.7366 40.4371 82.1041 43.5574 86.5981 45.3052C90.4673 46.803 94.2123 48.0514 94.2123 50.5475C94.2123 52.42 92.714 53.6684 89.3442 53.6684C86.2234 53.6684 83.1031 52.42 79.7327 49.7986L74.8646 57.0387C78.6091 60.159 84.3508 62.281 89.0942 62.281C99.0805 62.281 104.447 57.0387 104.447 50.1733C104.447 43.308 99.0805 40.4371 94.2123 38.814Z" fill="#FAF9F8"/>
<path fill-rule="evenodd" clip-rule="evenodd" d="M124.419 38.814C120.675 37.3162 117.18 36.4426 117.18 33.9459C117.18 32.074 118.678 30.9503 121.424 30.9503C124.17 30.9503 126.667 32.074 129.413 34.0712L134.406 27.4553C131.285 25.0839 127.041 22.5872 121.299 22.5872C112.811 22.5872 107.069 27.4553 107.069 34.3207C107.069 40.4371 112.436 43.5574 116.93 45.3052C120.8 46.803 124.544 48.0514 124.544 50.5475C124.544 52.42 123.046 53.6684 119.676 53.6684C116.556 53.6684 113.435 52.42 110.065 49.7986L105.072 57.0387C108.817 60.159 114.558 62.281 119.302 62.281C129.287 62.281 134.655 57.0387 134.655 50.1733C134.655 43.308 129.287 40.4371 124.419 38.814Z" fill="#FAF9F8"/>
<path fill-rule="evenodd" clip-rule="evenodd" d="M50.2741 38.1898C51.0229 33.197 54.0185 30.8256 57.5136 30.8256C62.0075 30.8256 63.7553 33.9459 63.7553 38.1898H50.2741ZM73.2415 40.4371C73.3662 30.3262 67.874 22.4625 57.3888 22.4625C48.2768 22.4625 39.5395 30.0767 39.7889 42.0596C39.7889 54.4173 47.9026 61.6568 58.6372 61.6568C63.1312 61.6568 68.124 60.0343 71.9932 57.4128L68.2487 50.7975C65.5026 52.42 62.8811 53.1689 60.135 53.1689C55.1422 53.1689 51.2724 50.7975 50.2741 45.0552H72.8674C72.9921 44.1816 73.2415 42.4344 73.2415 40.4371Z" fill="#FAF9F8"/>
<path fill-rule="evenodd" clip-rule="evenodd" d="M39.1648 52.9195C38.2911 52.9195 37.1675 52.1706 37.1675 49.7986V7.4834H19.4423C12.7022 7.4834 9.70608 10.1048 9.70608 18.2185C9.70608 23.5855 10.455 26.5817 10.455 31.1998C10.455 33.8212 8.83246 36.5673 3.96436 36.8168V43.308C8.83246 43.4327 10.455 46.1788 10.455 48.8003C10.455 53.4189 9.70608 56.1645 9.70608 61.5321C9.70608 69.6458 12.7022 72.2672 19.3176 72.2672H24.1857V66.5249H22.6879C19.5676 66.5249 18.5687 65.2771 18.5687 61.1579C18.5687 57.0387 18.9434 53.5437 18.9434 48.925C18.9434 43.1833 17.0709 40.936 13.3258 40.0624V39.6882C17.0709 38.814 18.9434 36.5673 18.9434 30.8256C18.9434 26.3317 18.5687 22.7119 18.5687 18.5927C18.5687 14.4735 19.4423 13.3504 22.6879 13.3504H26.0582V49.1744C26.0582 56.7887 28.6796 61.7821 36.2939 61.7821C38.6653 61.7821 40.5378 61.4073 41.9109 60.9079L40.6625 52.7948C39.9137 52.9195 39.5395 52.9195 39.1648 52.9195Z" fill="#FAF9F8"/>
</g>
<defs>
<linearGradient id="paint0_linear_150_191" x1="80.1177" y1="7.6377" x2="80.1177" y2="72.3758" gradientUnits="userSpaceOnUse">
<stop stop-color="#2E4F82"/>
<stop offset="1" stop-color="#182E4D"/>
</linearGradient>
</defs>
</svg>
