<svg width="160" height="64" viewBox="0 0 160 64" fill="none" xmlns="http://www.w3.org/2000/svg">
<path d="M12.4064 18.6504C12.68 20.0519 12.9964 21.4297 13.3557 22.7838C13.7508 24.2897 14.1981 25.7636 14.6978 27.2054C15.1737 28.5453 15.6817 29.8591 16.2218 31.1468C17.11 33.2209 18.1219 35.2403 19.2522 37.194C20.2039 38.8161 21.2283 40.3931 22.3252 41.9251C23.1509 43.0634 24.0194 44.1756 24.9308 45.2617C26.0087 44.3132 27.0342 43.3432 28.0074 42.352C27.089 41.2492 26.2216 40.118 25.4055 38.9584C24.5167 37.6991 23.6851 36.4079 22.907 35.0846C21.9422 33.4202 21.0724 31.7029 20.3015 29.9409C19.7328 28.6508 19.2129 27.3299 18.7417 25.9782C18.2397 24.5387 17.7923 23.0648 17.3997 21.5566C17.0451 20.2072 16.7358 18.833 16.4717 17.4338C16.1862 15.922 15.947 14.3746 15.7578 12.8094C17.2784 12.4253 18.7988 12.098 20.3193 11.8277C21.7184 11.5822 23.1176 11.3795 24.5131 11.2301C28.9346 10.7476 33.3961 10.7559 37.8157 11.255C39.2125 11.4091 40.6104 11.6131 42.0095 11.8668C43.53 12.1419 45.0493 12.4715 46.5675 12.8557C47.9428 13.2043 49.3181 13.598 50.6934 14.0367C50.8695 12.6423 51.0051 11.2253 51.1004 9.78584C51.1017 9.76212 51.0871 9.74036 51.0646 9.73248C49.687 9.31037 48.3092 8.93093 46.9315 8.59418C45.392 8.22186 43.8548 7.90171 42.32 7.63374C40.9138 7.39659 39.5087 7.19857 38.1048 7.03969C33.4861 6.5347 28.8264 6.52754 24.2062 7.01834C22.8047 7.16774 21.4008 7.36102 19.9946 7.59817C18.455 7.8614 16.9191 8.17918 15.3866 8.55149L11.1 9.59376L11.6568 13.9833C11.8567 15.5628 12.1066 17.1184 12.4064 18.6504ZM39.9358 41.9642C42.3931 38.6129 44.4655 34.9976 46.1141 31.1859C46.6709 29.9018 47.1849 28.5856 47.6525 27.2481C46.2962 26.7738 44.9434 26.3683 43.5943 26.0315C43.1184 27.3809 42.5925 28.6994 42.0167 29.9871C41.2714 31.6559 40.4374 33.2839 39.5182 34.8641C38.6996 36.2869 37.8109 37.6647 36.852 38.9975C36.0311 40.1465 35.153 41.2741 34.2286 42.3733C33.2483 43.5448 32.2072 44.6843 31.1056 45.7918C30.1275 46.7854 29.102 47.753 28.0288 48.6944C26.8725 49.7118 25.6625 50.7018 24.399 51.6647C23.3115 50.5454 22.2717 49.3964 21.2795 48.2178C20.3681 47.134 19.4996 46.0254 18.6739 44.8918C17.4149 43.1763 16.2484 41.3952 15.1796 39.556C13.928 37.3913 12.8111 35.152 11.8353 32.8507C11.288 31.563 10.7812 30.2492 10.3148 28.9093C9.81036 27.4556 9.35347 25.9734 8.9442 24.4628C8.57776 23.0969 8.2482 21.7095 7.95553 20.3009C6.64919 20.8369 5.34047 21.4179 4.02938 22.0439C4.00831 22.0546 3.99671 22.0777 4.00082 22.1009C4.30777 23.5059 4.65756 24.8861 5.03947 26.2486C5.46777 27.7663 5.94367 29.2591 6.46716 30.727C6.94306 32.0669 7.4594 33.3843 8.0162 34.6791C9.92838 39.1443 12.3436 43.3784 15.2153 47.3C16.0434 48.4383 16.9107 49.5529 17.8173 50.6438C18.8096 51.8295 19.8494 52.9963 20.9368 54.144L23.9849 57.3455L27.4863 54.635C28.7427 53.6603 29.9515 52.6559 31.1127 51.622C32.1834 50.6734 33.2102 49.6999 34.1929 48.7016C35.2851 47.594 36.3261 46.4581 37.316 45.2938C38.2344 44.2076 39.1077 43.0978 39.9358 41.9642ZM54.3983 20.3365C52.9206 19.7341 51.4418 19.1887 49.9618 18.7002C48.6019 18.252 47.242 17.8465 45.8821 17.4943C44.3712 17.1006 42.8626 16.7674 41.3563 16.4947C39.9572 16.2386 38.5592 16.0347 37.1625 15.8829C35.1379 15.663 33.1029 15.5526 31.0663 15.552C29.1098 15.552 27.1547 15.6558 25.2092 15.8615C23.8124 16.0062 22.4145 16.2042 21.0153 16.4556C21.2747 17.8618 21.5828 19.2349 21.9397 20.5748C23.3532 20.3376 24.7642 20.1468 26.1728 20.0021C27.8076 19.8503 29.4387 19.7732 31.0663 19.7709C32.7676 19.7709 34.4773 19.8563 36.1952 20.027C37.6015 20.1669 39.0113 20.3626 40.4248 20.6139C41.931 20.8843 43.4396 21.2175 44.9505 21.6135C46.3021 21.9692 47.6548 22.3748 49.0088 22.8301C50.4722 23.3257 51.9379 23.8806 53.4061 24.4948C52.9944 26.0031 52.534 27.4829 52.0247 28.9342C51.5489 30.2717 51.0373 31.5843 50.49 32.8721C48.6615 37.1403 46.3414 41.1823 43.5764 44.9167C42.746 46.0455 41.8715 47.1506 40.9531 48.232C39.9584 49.4177 38.915 50.5643 37.8228 51.6718C36.833 52.6773 35.8062 53.665 34.7426 54.635L38.244 57.3384L41.3064 54.137C42.3986 52.9986 43.4432 51.8342 44.4402 50.6438C45.3515 49.5529 46.2248 48.4407 47.06 47.3071C49.9514 43.3799 52.3869 39.1387 54.3198 34.6648C54.8766 33.3748 55.3953 32.0598 55.876 30.7199C56.3995 29.2567 56.8753 27.7663 57.3037 26.2486L58.4673 22.1257C57.1133 21.4878 55.757 20.8914 54.3983 20.3365Z" fill="url(#paint0_linear_3_7062)"/>
<path d="M145.585 24.758C140.834 24.4805 139.874 24.2493 139.874 22.9972C139.874 21.745 140.852 21.3928 144.974 21.3928C149.329 21.3928 151.124 21.834 151.124 23.6232H155.315C155.315 19.6071 151.588 18.074 145.442 18.074C139.296 18.074 135.684 19.2123 135.684 22.7873C135.684 26.4298 138.5 27.5433 145.603 27.8705C150.893 28.1266 151.82 28.3578 151.82 29.7025C151.82 30.9795 150.496 31.4811 146.109 31.4811C140.802 31.4811 139.403 30.6914 139.403 28.991H135.181C135.181 33.6794 139.16 34.8141 145.845 34.8141C151.877 34.8141 156 33.9319 156 29.5922C156 25.4552 152.009 25.1066 145.585 24.758ZM73.5471 18.3052C69.8503 23.2026 67.0308 28.6999 65.2129 34.5545H69.5815L70.399 31.8688C71.656 28.7709 73.1947 25.7941 74.9961 22.9758L76.2203 21.3964L76.5062 21.6739C77.9735 23.8961 79.2751 26.2229 80.3998 28.6353H74.9858C74.4432 29.7997 73.9482 30.9759 73.5007 32.164H81.8885C82.1885 32.9585 82.4665 33.7565 82.7237 34.558H87.1563C85.2439 28.6922 82.3366 23.1963 78.5618 18.3088L73.5471 18.3052ZM98.2033 18.3052C94.5059 23.2018 91.6876 28.6995 89.8728 34.5545H94.2414L95.0552 31.8688C96.3123 28.7709 97.8509 25.7941 99.6524 22.9758L100.88 21.3964L101.162 21.6739C102.629 23.8969 103.932 26.2235 105.06 28.6353H99.6414C99.0994 29.7997 98.6057 30.9759 98.1606 32.164H106.548C106.848 32.9573 107.123 33.7541 107.384 34.558H111.816C109.902 28.6921 106.994 23.1962 103.218 18.3088L98.2033 18.3052ZM115.297 34.5545H119.49V29.4713H128.577C129.025 28.2855 129.516 27.1164 130.051 25.9638L130.087 25.9425H119.49V21.8126H132.532V18.3052H115.297V34.5545Z" fill="#234089"/>
<path d="M84.1448 48.4032H86.4217V47.3716H84.1448V46.6601H86.643V45.5467H82.8457V50.2742H86.693V49.1608H84.1448V48.4032ZM91.7578 48.0475L89.8094 45.5574H88.581V50.2849H89.8838V47.6917L91.9077 50.2849H93.0605V45.5396H91.7578V48.0475ZM83.7412 42.8931H84.6477L84.0948 42.0073C84.5069 41.8483 84.7702 41.444 84.7477 41.0042C84.7568 40.7022 84.6367 40.4105 84.4179 40.2017C84.1984 39.9928 83.9009 39.8863 83.5985 39.9086H81.2466V42.8931H82.0172V42.0963H83.2559L83.7412 42.8931ZM82.0172 40.5418H83.3846C83.6162 40.5418 83.9771 40.5418 83.9771 40.9935C83.9771 41.4453 83.6199 41.4417 83.3846 41.4417H82.0172V40.5418ZM153.63 41.9646H155.637V41.3172H153.63V40.5418H155.893V39.8979H152.86V42.8824H153.63V41.9646ZM86.1474 42.9002H86.9143V39.9157H86.1474V42.9002ZM91.84 42.6512V41.9646C91.3146 42.1914 90.7452 42.2995 90.1733 42.2812C89.6021 42.2812 89.2632 42.1745 89.1022 42.0073C88.8316 41.6533 88.8316 41.1626 89.1022 40.8086C89.2559 40.6414 89.5985 40.5346 90.1733 40.5346C90.7476 40.5223 91.3176 40.6441 91.8364 40.8904V40.1789C91.3121 39.9629 90.747 39.8635 90.18 39.8872C89.2449 39.8872 88.7529 40.1256 88.4883 40.3924C88.0317 41.0021 88.0317 41.8387 88.4883 42.4484C88.7383 42.7188 89.2449 42.9571 90.18 42.9571C90.7507 42.9731 91.3176 42.8625 91.84 42.6334V42.6512ZM96.2086 42.9002H97.0615L95.5124 39.9157H94.4742L92.9288 42.9002H93.7744L94.0957 42.2634H95.8806L96.2086 42.9002ZM94.3816 41.6943L94.9955 40.4813L95.602 41.6943H94.3816ZM140.346 42.9002H141.117V41.9184L142.808 39.9157H141.88L140.731 41.2532L139.578 39.8944H138.651L140.346 41.897V42.9002ZM79.6902 42.2919H77.2956V41.6836H79.6902V41.1323H77.2956V40.5062H79.6902V39.8979H76.5245V42.8824H79.6902V42.2919ZM65.2135 50.2849H66.5272V48.5953H68.7682V47.5281H66.5272V46.7242H69.0078V45.5752H65.2135V50.2849ZM72.7948 45.4649C72.1273 45.4477 71.4804 45.6976 70.9988 46.1587C70.5172 46.6199 70.2411 47.2539 70.2319 47.9194C70.2831 49.2881 71.4116 50.3712 72.7856 50.3712C74.1597 50.3712 75.2882 49.2881 75.3394 47.9194C75.3455 47.2506 75.0772 46.6083 74.5968 46.1415C74.1165 45.6746 73.4654 45.4238 72.7948 45.4471V45.4649ZM74.0012 47.9336C74.0165 48.2625 73.8964 48.5836 73.6684 48.8221C73.441 49.0605 73.1252 49.1958 72.7948 49.1964C72.4625 49.1919 72.1462 49.0537 71.9175 48.8132C71.6889 48.5727 71.5676 48.2504 71.581 47.9194C71.5658 47.5917 71.6847 47.2718 71.9108 47.0335C72.137 46.7952 72.451 46.6591 72.7802 46.6566C73.113 46.6592 73.4306 46.7961 73.6611 47.036C73.8909 47.276 74.0134 47.5985 74.0012 47.9301V47.9336ZM80.9644 47.1866C80.9851 46.7765 80.8321 46.3767 80.5431 46.0839C80.12 45.7102 79.5616 45.5252 78.9977 45.5717H76.7567V50.2992H78.0699V48.8763H78.6447L79.6012 50.2992H81.118L79.9865 48.6522C80.6096 48.4294 81.0137 47.8276 80.9827 47.1688L80.9644 47.1866ZM79.6403 47.2648C79.6403 47.6206 79.3836 47.8269 78.9264 47.8269H78.0595V46.6922H78.9197C79.3623 46.6922 79.6329 46.8807 79.6329 47.2542L79.6403 47.2648ZM66.6626 39.9157L65.1172 42.9002H65.9664L66.2877 42.2634H68.0726L68.3939 42.9002H69.2431L67.6941 39.9157H66.6626ZM66.5736 41.6943L67.1838 40.4813L67.7904 41.6943H66.5736ZM71.0885 40.8548L72.3339 42.9002H72.8875L74.1329 40.8548V42.9002H74.9145V39.9157H73.8763L72.6198 42.0216L71.3457 39.8979H70.3069V42.8824H71.0781L71.0885 40.8548ZM147.805 48.4032H150.079V47.3716H147.805V46.6601H150.304V45.5467H146.503V50.2742H150.351V49.1608H147.805V48.4032ZM97.0688 47.336C96.4122 47.1866 96.2482 47.0941 96.2482 46.8771C96.2482 46.71 96.4049 46.5747 96.7225 46.5747C97.2023 46.5932 97.665 46.7556 98.0503 47.0407L98.7075 46.1159C98.1515 45.6826 97.4596 45.4595 96.7548 45.4863C95.6197 45.4863 94.9205 46.123 94.9205 47.0017C94.9205 47.9763 95.6984 48.2573 96.7049 48.4885C97.3511 48.638 97.5041 48.7446 97.5041 48.9403C97.5041 49.1431 97.3151 49.264 96.9621 49.264C96.4 49.2573 95.8581 49.0576 95.4271 48.6984L94.6955 49.5664C95.3143 50.0897 96.1044 50.3682 96.9152 50.3489C98.0686 50.3489 98.8318 49.7762 98.8318 48.8122C98.8288 47.9087 98.1576 47.5601 97.0688 47.3218V47.336ZM129.856 48.4032H132.129V47.3716H129.856V46.6601H132.354V45.5467H128.553V50.2742H132.401V49.1608H129.856V48.4032ZM135.442 42.8824L136.687 40.837V42.8824H137.458V39.8979H136.416L135.163 42.0038L133.91 39.8979H132.872V42.8824H133.639V40.837L134.885 42.8824H135.442ZM125.448 50.2671H126.768V45.5396H125.448V50.2671ZM137.466 48.0368L135.513 45.5467H134.289V50.2742H135.592V47.681L137.616 50.2742H138.768V45.5396H137.469L137.466 48.0368ZM126.668 41.3884C126.702 40.9906 126.561 40.5979 126.282 40.3118C126.002 40.0259 125.612 39.8749 125.212 39.8979H123.028V42.8824H125.202C125.603 42.9076 125.997 42.7572 126.278 42.4703C126.56 42.1833 126.703 41.7884 126.668 41.3884ZM124.923 42.2385H123.813V40.5418H124.927C125.508 40.5418 125.901 40.6663 125.901 41.3884C125.901 42.1105 125.494 42.2385 124.912 42.2385H124.923ZM149.629 39.8552C148.313 39.8552 147.749 40.3959 147.749 41.3848C147.749 42.3737 148.313 42.9251 149.629 42.9251C150.946 42.9251 151.514 42.3737 151.514 41.3848C151.514 40.3959 150.939 39.8552 149.618 39.8552H149.629ZM149.629 42.2812C148.83 42.2812 148.519 42.0002 148.519 41.3848C148.519 40.7694 148.826 40.4991 149.629 40.4991C150.432 40.4991 150.743 40.7801 150.743 41.3848C150.743 41.9895 150.418 42.2812 149.618 42.2812H149.629ZM154.202 47.3218C153.545 47.1724 153.38 47.0799 153.38 46.8629C153.38 46.6957 153.538 46.5605 153.855 46.5605C154.335 46.5789 154.798 46.7414 155.183 47.0265L155.84 46.1017C155.285 45.6689 154.595 45.4458 153.891 45.4721C152.752 45.4721 152.053 46.1087 152.053 46.9874C152.053 47.9621 152.835 48.2431 153.838 48.4743C154.484 48.6237 154.637 48.7304 154.637 48.9261C154.637 49.1288 154.448 49.2498 154.094 49.2498C153.533 49.2425 152.991 49.0428 152.56 48.6842L151.846 49.5521C152.465 50.0755 153.255 50.354 154.066 50.3347C155.219 50.3347 155.983 49.762 155.983 48.798C155.958 47.9087 155.283 47.5601 154.191 47.3218H154.202ZM142.78 49.1644C142.459 49.1548 142.156 49.0141 141.942 48.7753C141.728 48.5365 141.622 48.2206 141.649 47.9016C141.626 47.585 141.734 47.2728 141.947 47.0372C142.161 46.8016 142.461 46.6629 142.78 46.653C143.196 46.6557 143.584 46.8618 143.818 47.2044L144.807 46.4431C144.35 45.7924 143.59 45.4204 142.794 45.4578C142.133 45.4404 141.493 45.6921 141.021 46.1552C140.55 46.6183 140.288 47.2527 140.296 47.9123C140.319 48.9888 141.033 49.9286 142.067 50.2418C143.101 50.555 144.219 50.1705 144.84 49.2889L143.851 48.5775C143.616 48.939 143.215 49.1594 142.783 49.1644H142.78ZM131.308 42.2742H128.917V41.6659H131.308V41.1145H128.917V40.5062H131.308V39.8979H128.146V42.8824H131.308V42.2742ZM105.896 49.1644C105.575 49.1538 105.273 49.0127 105.06 48.774C104.847 48.5354 104.741 48.2201 104.768 47.9016C104.745 47.5856 104.852 47.2739 105.065 47.0384C105.278 46.803 105.578 46.6638 105.896 46.653C106.312 46.6557 106.7 46.8618 106.934 47.2044L107.923 46.4431C107.466 45.7924 106.706 45.4204 105.91 45.4578C105.248 45.4404 104.608 45.6921 104.137 46.1552C103.666 46.6183 103.403 47.2527 103.411 47.9123C103.434 48.9888 104.149 49.9286 105.183 50.2418C106.216 50.555 107.335 50.1705 107.955 49.2889L106.967 48.5775C106.732 48.939 106.331 49.1594 105.899 49.1644H105.896ZM101.213 42.1389L99.1677 39.8979H98.1149V42.8824H98.8818V40.6449L100.923 42.8824H101.973V39.8979H101.202L101.213 42.1389ZM121.886 49.1644C121.565 49.1548 121.262 49.0141 121.048 48.7753C120.834 48.5365 120.728 48.2206 120.755 47.9016C120.732 47.585 120.84 47.2728 121.053 47.0372C121.267 46.8016 121.567 46.6629 121.886 46.653C122.301 46.6562 122.688 46.8624 122.921 47.2044L123.909 46.4431C123.454 45.7924 122.695 45.4203 121.9 45.4578C121.238 45.4393 120.597 45.6908 120.125 46.1541C119.654 46.6174 119.393 47.2524 119.402 47.9123C119.424 48.9888 120.139 49.9286 121.173 50.2418C122.207 50.555 123.325 50.1705 123.945 49.2889L122.956 48.5775C122.722 48.9386 122.321 49.1588 121.889 49.1644H121.886ZM109.619 39.8979L108.076 42.8824H108.922L109.244 42.2457H111.028L111.349 42.8824H112.203L110.654 39.8979H109.619ZM109.529 41.6765L110.143 40.4635L110.75 41.6765H109.529ZM100.606 50.2671H101.927V45.5396H100.613L100.606 50.2671ZM120.99 42.8824H121.84L120.294 39.8979H119.252L117.71 42.8824H118.556L118.877 42.2457H120.661L120.99 42.8824ZM119.162 41.6765L119.776 40.4635L120.383 41.6765H119.162ZM116.56 47.3218C115.904 47.1724 115.743 47.0799 115.743 46.8629C115.743 46.6957 115.896 46.5605 116.218 46.5605C116.697 46.5802 117.16 46.7426 117.545 47.0265L118.202 46.1017C117.647 45.6686 116.955 45.4456 116.25 45.4721C115.111 45.4721 114.416 46.1087 114.416 46.9874C114.416 47.9621 115.194 48.2431 116.2 48.4743C116.843 48.6237 116.999 48.7304 116.999 48.9261C116.999 49.1288 116.81 49.2498 116.457 49.2498C115.894 49.2431 115.351 49.0433 114.919 48.6842L114.176 49.5628C114.796 50.0867 115.587 50.3653 116.4 50.3454C117.549 50.3454 118.317 49.7727 118.317 48.8087C118.32 47.9087 117.642 47.5601 116.55 47.3218H116.56ZM116.707 42.6334V41.9646C116.181 42.1916 115.61 42.2998 115.036 42.2812C114.469 42.2812 114.126 42.1745 113.966 42.0073C113.7 41.6517 113.7 41.1642 113.966 40.8086C114.119 40.6414 114.465 40.5346 115.036 40.5346C115.611 40.5223 116.181 40.6441 116.7 40.8904V40.1789C116.174 39.9631 115.608 39.8636 115.04 39.8872C114.108 39.8872 113.612 40.1256 113.352 40.3924C112.895 41.0021 112.895 41.8387 113.352 42.4484C113.602 42.7188 114.108 42.9571 115.04 42.9571C115.609 42.972 116.174 42.8615 116.696 42.6334H116.707Z" fill="#2D3338"/>
<defs>
<linearGradient id="paint0_linear_3_7062" x1="12.9774" y1="10.9144" x2="47.2059" y2="46.9997" gradientUnits="userSpaceOnUse">
<stop stop-color="#09BCC6"/>
<stop offset="1" stop-color="#243E89"/>
</linearGradient>
</defs>
</svg>
