<svg width="312" height="48" viewBox="0 0 312 48" fill="none" xmlns="http://www.w3.org/2000/svg">
<path d="M68.2929 9.3211H54.8984V4.55046H87.192V9.3211H73.7975V43.8165H68.2929V9.3211Z" fill="#E7E7E7"/>
<path d="M93.0636 14.2752C100.953 14.2752 105.174 20.1468 105.174 27.4862C105.174 28.2202 104.99 29.8716 104.99 29.8716H84.6232C84.9902 36.1101 89.2104 39.2294 94.348 39.2294C99.1186 39.2294 102.605 35.9266 102.605 35.9266L104.807 39.9633C104.807 39.9633 100.587 44 93.981 44C85.1737 44 79.1186 37.578 79.1186 29.3211C79.1186 19.9633 85.1737 14.2752 93.0636 14.2752ZM99.8526 25.6514C99.6691 20.8807 96.7333 18.4954 93.0636 18.4954C89.0269 18.4954 85.5406 21.0642 84.8067 25.6514H99.8526Z" fill="#E7E7E7"/>
<path d="M122.605 14.0917C129.761 14.0917 133.247 18.1284 133.247 18.1284L130.678 21.9817C130.678 21.9817 127.742 18.6789 122.972 18.6789C117.284 18.6789 113.247 22.8991 113.247 28.7706C113.247 34.4587 117.284 38.8624 123.155 38.8624C128.476 38.8624 131.779 35.0092 131.779 35.0092L133.981 39.0459C133.981 39.0459 130.128 43.633 122.788 43.633C113.981 43.633 107.742 37.3945 107.742 28.9541C107.559 20.5138 113.798 14.0917 122.605 14.0917Z" fill="#E7E7E7"/>
<path d="M136.55 4.36697H141.871V18.6789C141.871 19.9633 141.687 21.0642 141.687 21.0642H141.871C143.155 18.3119 146.642 14.8257 152.33 14.8257C158.935 14.8257 162.054 18.4954 162.054 25.6514V43.633H156.733V26.7523C156.733 22.7156 155.816 19.5963 151.412 19.5963C147.192 19.5963 143.706 22.5321 142.421 26.5688C142.054 27.6697 142.054 28.9541 142.054 30.2385V43.4495H136.733V4.36697H136.55Z" fill="#E7E7E7"/>
<path d="M168.293 34.8257C168.293 34.8257 172.33 39.0459 178.201 39.0459C181.871 39.0459 184.807 37.0275 184.807 33.3578C184.807 24.9174 166.091 26.7523 166.091 14.8257C166.091 8.77064 171.229 4 178.568 4C185.724 4 189.577 7.85321 189.577 7.85321L187.192 12.4404C187.192 12.4404 183.706 9.13761 178.752 9.13761C174.715 9.13761 171.779 11.7064 171.779 14.8257C171.779 22.8991 190.495 20.6972 190.495 33.1743C190.495 39.2294 185.908 44 178.201 44C169.944 44 165.357 38.8624 165.357 38.8624L168.293 34.8257Z" fill="#E7E7E7"/>
<path d="M192.88 15.5596H198.201V19.2294C198.201 20.3303 198.018 21.2477 198.018 21.2477H198.201C199.486 17.945 203.522 14.8257 207.926 14.8257C212.697 14.8257 215.449 17.0275 216.366 21.2477H216.55C218.018 17.7615 222.054 14.8257 226.642 14.8257C233.064 14.8257 235.999 18.4954 235.999 25.6514V43.633H230.678V26.7523C230.678 22.7156 229.944 19.5963 225.724 19.5963C221.687 19.5963 218.752 22.8991 217.834 26.7523C217.467 27.8532 217.467 29.1376 217.467 30.6055V43.4495H212.146V26.5688C212.146 22.8991 211.596 19.4128 207.192 19.4128C203.155 19.4128 200.22 22.8991 199.119 26.7523C198.752 27.8532 198.752 29.1376 198.752 30.422V43.2661H192.88V15.5596Z" fill="#E7E7E7"/>
<path d="M239.486 4.55046H244.99V10.055H239.486V4.55046ZM239.486 15.5596H244.807V43.633H239.486V15.5596Z" fill="#E7E7E7"/>
<path d="M251.412 19.9633H247.742V15.5596H251.412V7.66972H256.733V15.5596H263.522V19.9633H256.733V32.6239C256.733 38.4954 260.77 39.2294 262.788 39.2294C263.522 39.2294 264.073 39.0459 264.073 39.0459V43.8165C264.073 43.8165 263.339 44 262.238 44C258.568 44 251.412 42.8991 251.412 33.5413V19.9633Z" fill="#E7E7E7"/>
<path d="M266.642 4.36697H272.146V18.6789C272.146 19.9633 271.963 21.0642 271.963 21.0642H272.146C273.431 18.3119 276.917 14.8257 282.605 14.8257C289.21 14.8257 292.33 18.4954 292.33 25.6514V43.633H287.009V26.7523C287.009 22.7156 286.091 19.5963 281.687 19.5963C277.467 19.5963 273.981 22.5321 272.697 26.5688C272.33 27.6697 272.33 28.9541 272.33 30.2385V43.4495H267.009L266.642 4.36697Z" fill="#E7E7E7"/>
<path d="M7.56055 8.22022V39.9633L23.3404 24L7.56055 8.22022Z" fill="#E7E7E7"/>
<path d="M46.8266 39.9633V4.367H11.4138L46.8266 39.9633Z" fill="#E7E7E7"/>
<path d="M11.2303 43.6331H42.9734L27.1936 27.8532L11.2303 43.6331Z" fill="#E7E7E7"/>
<path d="M298.936 4.55042C302.055 4.55042 304.441 7.11922 304.441 10.2385C304.441 13.3578 302.055 15.9266 298.936 15.9266C296 15.9266 293.432 13.5412 293.432 10.2385C293.615 7.11922 296 4.55042 298.936 4.55042ZM298.936 15.0091C301.505 15.0091 303.523 12.9908 303.523 10.2385C303.523 7.4862 301.505 5.46785 298.936 5.46785C296.367 5.46785 294.349 7.4862 294.349 10.2385C294.533 12.9908 296.367 15.0091 298.936 15.0091ZM297.101 7.30271H299.303C300.404 7.30271 301.138 8.03665 301.138 9.13757C301.138 10.055 300.588 10.6055 300.037 10.7889C300.037 10.7889 300.037 10.7889 300.221 11.1559L301.322 13.3578H300.404L299.12 10.9724H298.019V13.1743H297.101V7.30271ZM299.12 10.055C299.854 10.055 300.221 9.68803 300.221 8.95409C300.221 8.22014 299.854 7.85317 299.12 7.85317H298.019V10.055H299.12Z" fill="#E7E7E7"/>
</svg>
