<svg width="168" height="48" viewBox="0 0 168 48" fill="none" xmlns="http://www.w3.org/2000/svg">
<path d="M29.3933 11.274V4.00159H22.1207L21.395 4.73356L17.9634 11.2732L16.8843 12.0012H4.63672V21.9883H11.3699L11.9696 22.7136L4.63672 36.7259V43.9985H11.9091L12.635 43.2667L16.0668 36.7269L17.1457 35.999H29.3933V26.0117H22.6601L22.061 25.2815L29.3933 11.274Z" fill="#45AD47"/>
<path d="M43.6011 37.0589L45.6672 33.1153L46.6204 37.0589H43.6011ZM43.8023 26.0127L34.3906 43.9982H39.9757L41.3414 41.381L47.6476 41.3806L48.2715 43.9982H53.8562L49.5518 26.0127H43.8023ZM62.6395 34.4209H60.2533V30.7843H62.6395C64.0934 30.7843 64.6457 31.5118 64.6457 32.6171C64.6457 33.694 64.0934 34.4209 62.6395 34.4209ZM70.1158 32.5284C70.1158 28.3983 67.3224 26.0127 63.3953 26.0127H54.873V44H60.2533V38.7538H61.5624L62.6311 38.7509L65.2359 44H70.8212L67.4998 37.6532C69.1288 36.6155 70.1158 34.8565 70.1158 32.5284ZM70.9116 26.0127V30.7808H75.9953V44H79.0587L81.3715 39.5755V30.7808H85.9824L88.4755 26.0127H70.9116ZM101.053 4.00137H106.429V21.9861H101.053V4.00137ZM55.3327 4.01038L52.9173 8.62148H54.4004C57.0484 8.62148 58.7249 10.3139 58.7249 12.9914C58.7249 15.6378 57.0484 17.3308 54.4004 17.3308H52.7243V8.98992L47.5245 18.9167V21.9834H54.7591C60.5886 21.9834 64.0151 18.4684 64.0151 12.9912C64.0151 7.69531 60.8122 4.23531 55.3327 4.01038ZM65.4368 21.9861H79.165V17.2188H70.8118V15.2752H78.4918V10.7119H70.8118V8.7689H79.165V4.00137H65.4368V21.9861ZM88.7224 14.8849L86.1169 4.00137H80.5375L84.8444 21.9856H90.5839L100.004 4.00137H94.4186L88.7224 14.8849ZM145.798 4V8.76811H150.882V21.9873H153.945L156.258 17.5628V8.76811H160.869L163.362 4H145.798ZM116.685 15.0477L118.748 11.1077L119.701 15.0477H116.685ZM116.894 4.00137L107.48 21.9856H113.056L114.426 19.3652L120.727 19.365L121.352 21.9856L126.929 21.9861L122.625 4.00137H116.894ZM139.272 12.5206L133.251 4.00137H127.95V21.9861H133.324V12.8524L139.989 21.9861H144.646V4.00137H139.272V12.5206Z" fill="#1F211F"/>
</svg>
