<svg width="200" height="48" viewBox="0 0 200 48" fill="none" xmlns="http://www.w3.org/2000/svg">
<path d="M55.6592 16.0873H58.7978L65.342 31.513H61.8028L60.4005 28.1073H53.923L52.5207 31.513H49.115L55.6592 16.0873ZM59.1985 25.1023L57.1951 20.1607L55.1918 25.1023H59.1985Z" fill="#4380A4"/>
<path d="M66.544 29.3093L68.5474 26.9053C69.9497 28.0405 71.352 28.7751 73.0883 28.7751C74.4906 28.7751 75.2919 28.2409 75.2919 27.306V27.2392C75.2919 26.3711 74.7577 25.9704 72.2202 25.3027C69.1484 24.5013 67.145 23.6332 67.145 20.6282V20.5614C67.145 17.7567 69.3487 15.9537 72.4873 15.9537C74.6909 15.9537 76.6275 16.6215 78.1634 17.8903L76.4272 20.4279C75.0916 19.493 73.7561 18.892 72.4205 18.892C71.0849 18.892 70.4839 19.493 70.4839 20.2275V20.2943C70.4839 21.296 71.1517 21.6299 73.7561 22.2976C76.8946 23.099 78.6308 24.2342 78.6308 26.9053V26.9721C78.6308 30.0439 76.2936 31.7133 73.0215 31.7133C70.6843 31.7133 68.347 30.912 66.544 29.3093Z" fill="#4380A4"/>
<path d="M86.711 16.0873H89.8495L96.3938 31.513H92.8546L91.4522 28.1073H84.9748L83.5724 31.513H80.1667L86.711 16.0873ZM90.317 25.1023L88.3136 20.1607L86.3103 25.1023H90.317Z" fill="#4380A4"/>
<path d="M98.6642 16.2208H102.27L106.277 22.6983L110.284 16.2208H113.89V31.513H110.551V21.4963L106.21 28.0405H106.143L101.87 21.5631V31.513H98.6642V16.2208Z" fill="#4380A4"/>
<path d="M125.376 22.2309H124.708C124.641 22.2309 124.574 22.2309 124.507 22.1641C124.441 22.0973 124.441 22.0973 124.374 22.0306L123.773 20.5614H121.035L120.434 22.0306C120.434 22.0973 120.367 22.0973 120.3 22.1641C120.234 22.2309 120.167 22.2309 120.1 22.2309H119.432L121.903 16.0873H122.771L125.376 22.2309ZM121.302 19.9604H123.573L122.638 17.4229C122.571 17.2893 122.504 17.089 122.437 16.8219C122.437 16.9554 122.371 17.0222 122.371 17.1558C122.371 17.2225 122.304 17.3561 122.304 17.4229L121.302 19.9604Z" fill="#0B1A3F"/>
<path d="M126.043 17.8903H126.511C126.644 17.8903 126.711 17.9571 126.711 18.0239L126.778 18.4913C126.912 18.291 127.112 18.1574 127.312 18.0239C127.512 17.8903 127.713 17.8235 127.98 17.8235C128.247 17.8235 128.514 17.8903 128.715 18.0907C128.915 18.2242 129.048 18.4913 129.115 18.7584C129.182 18.6249 129.249 18.4913 129.382 18.3578C129.449 18.2242 129.583 18.1574 129.716 18.0907C129.85 18.0239 129.983 17.9571 130.117 17.9571C130.25 17.8903 130.384 17.8903 130.518 17.8903C130.718 17.8903 130.918 17.9571 131.119 18.0239C131.319 18.0907 131.452 18.2242 131.586 18.3578C131.72 18.4913 131.786 18.6917 131.853 18.892C131.92 19.0923 131.92 19.3594 131.92 19.6266V22.4312H131.185V19.6266C131.185 19.2927 131.119 19.0255 130.985 18.8252C130.851 18.6249 130.651 18.5581 130.317 18.5581C130.184 18.5581 130.05 18.5581 129.983 18.6249C129.85 18.6917 129.783 18.7584 129.716 18.8252C129.649 18.892 129.583 19.0255 129.516 19.1591C129.449 19.2927 129.449 19.4262 129.449 19.6266V22.4312H128.715V19.6266C128.715 19.2927 128.648 19.0255 128.514 18.8252C128.381 18.6249 128.18 18.5581 127.913 18.5581C127.713 18.5581 127.579 18.6249 127.379 18.6917C127.245 18.8252 127.045 18.9588 126.912 19.0923V22.3644H126.043V17.8903Z" fill="#0B1A3F"/>
<path d="M134.791 17.8235C135.058 17.8235 135.326 17.8903 135.526 17.9571C135.726 18.0239 135.927 18.1574 136.127 18.3578C136.26 18.4913 136.394 18.7584 136.528 18.9588C136.594 19.2259 136.661 19.493 136.661 19.7601C136.661 19.8937 136.661 19.9604 136.594 20.0272C136.594 20.094 136.528 20.094 136.461 20.094H133.589C133.589 20.3611 133.656 20.6282 133.723 20.8286C133.79 21.0289 133.856 21.2292 133.99 21.3628C134.124 21.4963 134.257 21.6299 134.391 21.6967C134.524 21.7634 134.725 21.8302 134.925 21.8302C135.125 21.8302 135.259 21.8302 135.392 21.7634C135.526 21.6967 135.659 21.6967 135.726 21.6299C135.793 21.5631 135.927 21.5631 135.993 21.4963C136.06 21.4296 136.127 21.4296 136.194 21.4296C136.26 21.4296 136.327 21.4296 136.327 21.4963L136.528 21.7634C136.461 21.897 136.327 21.9638 136.194 22.0306C136.06 22.0973 135.927 22.1641 135.793 22.2309C135.659 22.2977 135.459 22.2977 135.326 22.3644C135.192 22.3644 134.992 22.4312 134.858 22.4312C134.524 22.4312 134.257 22.3644 134.057 22.2977C133.79 22.1641 133.589 22.0306 133.389 21.8302C133.189 21.6299 133.055 21.3628 132.988 21.0957C132.855 20.8286 132.855 20.4947 132.855 20.094C132.855 19.7601 132.922 19.493 132.988 19.2259C133.055 18.9588 133.189 18.7584 133.389 18.5581C133.589 18.3578 133.79 18.2242 134.057 18.0907C134.19 17.8903 134.457 17.8235 134.791 17.8235ZM134.791 18.3578C134.391 18.3578 134.124 18.4913 133.923 18.6917C133.723 18.892 133.589 19.2259 133.523 19.5598H135.86C135.86 19.3594 135.86 19.2259 135.793 19.0923C135.726 18.9588 135.659 18.8252 135.593 18.6917C135.526 18.5581 135.392 18.4913 135.259 18.4245C135.125 18.4245 134.992 18.3578 134.791 18.3578Z" fill="#0B1A3F"/>
<path d="M137.596 22.2309V17.8903H138.063C138.13 17.8903 138.197 17.8903 138.264 17.9571C138.264 17.9571 138.331 18.0239 138.331 18.0907L138.397 18.7584C138.531 18.4245 138.731 18.2242 138.932 18.0239C139.132 17.8235 139.399 17.7568 139.733 17.7568C139.866 17.7568 139.933 17.7568 140.067 17.8235C140.134 17.8235 140.267 17.8903 140.334 17.9571L140.267 18.5581C140.267 18.6249 140.2 18.6917 140.134 18.6917C140.067 18.6917 140 18.6917 139.933 18.6249C139.866 18.6249 139.733 18.5581 139.599 18.5581C139.332 18.5581 139.132 18.6249 138.932 18.7584C138.731 18.892 138.598 19.1591 138.464 19.4262V22.2309H137.596Z" fill="#0B1A3F"/>
<path d="M142.07 16.488C142.07 16.5548 142.07 16.6215 142.003 16.6883C142.003 16.7551 141.937 16.8219 141.87 16.8887C141.803 16.9554 141.736 16.9554 141.669 17.0222C141.603 17.0222 141.536 17.089 141.469 17.089C141.402 17.089 141.336 17.089 141.269 17.0222C141.202 17.0222 141.135 16.9554 141.068 16.8887C141.002 16.8219 141.002 16.7551 140.935 16.6883C140.935 16.6215 140.868 16.5548 140.868 16.488C140.868 16.4212 140.868 16.3544 140.935 16.2877C140.935 16.2209 141.002 16.1541 141.068 16.0873C141.135 16.0205 141.202 16.0205 141.269 15.9538C141.336 15.9538 141.402 15.887 141.469 15.887C141.536 15.887 141.603 15.887 141.669 15.9538C141.736 15.9538 141.803 16.0205 141.87 16.0873C141.937 16.1541 141.937 16.2209 142.003 16.2877C142.07 16.3544 142.07 16.4212 142.07 16.488ZM141.87 17.8903V22.2309H141.135V17.8903H141.87Z" fill="#0B1A3F"/>
<path d="M146.144 18.7584H146.077C146.077 18.7584 146.01 18.7584 145.943 18.6917C145.876 18.6249 145.81 18.6249 145.743 18.5581C145.676 18.4913 145.543 18.4913 145.476 18.4245C145.342 18.3578 145.209 18.3578 145.075 18.3578C144.875 18.3578 144.674 18.4245 144.541 18.4913C144.407 18.5581 144.274 18.6917 144.14 18.8252C144.007 18.9588 143.94 19.1591 143.873 19.3594C143.806 19.5598 143.806 19.7601 143.806 20.0272C143.806 20.2943 143.806 20.4947 143.873 20.7618C143.94 21.0289 144.007 21.1624 144.14 21.296C144.274 21.4296 144.407 21.5631 144.541 21.6299C144.674 21.6967 144.875 21.7634 145.075 21.7634C145.275 21.7634 145.409 21.7634 145.543 21.6967C145.676 21.6299 145.743 21.6299 145.876 21.5631C145.943 21.4963 146.01 21.4296 146.077 21.4296C146.144 21.4296 146.21 21.3628 146.21 21.3628C146.277 21.3628 146.344 21.3628 146.344 21.4296L146.544 21.6967C146.344 21.897 146.144 22.0973 145.81 22.2309C145.543 22.3644 145.209 22.3644 144.942 22.3644C144.674 22.3644 144.407 22.2977 144.207 22.2309C143.94 22.0973 143.74 21.9638 143.606 21.7634C143.406 21.5631 143.272 21.3628 143.205 21.0289C143.139 20.7618 143.072 20.4279 143.072 20.094C143.072 19.7601 143.139 19.493 143.205 19.2259C143.272 18.9588 143.406 18.6917 143.606 18.4913C143.806 18.291 144.007 18.1574 144.274 18.0239C144.541 17.8903 144.808 17.8235 145.142 17.8235C145.476 17.8235 145.743 17.8903 145.943 17.9571C146.144 18.0239 146.411 18.2242 146.544 18.3578L146.144 18.7584Z" fill="#0B1A3F"/>
<path d="M150.484 22.2309H150.083C150.017 22.2309 149.95 22.2309 149.883 22.1641C149.816 22.0973 149.816 22.0973 149.816 22.0306L149.75 21.6299C149.616 21.7634 149.549 21.8302 149.416 21.897C149.282 21.9638 149.215 22.0306 149.082 22.0973C148.948 22.1641 148.815 22.1641 148.681 22.2309C148.548 22.2309 148.414 22.2977 148.214 22.2977C148.013 22.2977 147.88 22.2977 147.746 22.2309C147.613 22.1641 147.479 22.0973 147.346 22.0306C147.212 21.9638 147.145 21.8302 147.078 21.6967C147.012 21.5631 147.012 21.3628 147.012 21.1624C147.012 20.9621 147.078 20.8286 147.145 20.695C147.212 20.5614 147.412 20.3611 147.613 20.2943C147.813 20.1608 148.08 20.094 148.414 19.9604C148.748 19.8937 149.149 19.8269 149.683 19.8269V19.493C149.683 19.1591 149.616 18.892 149.482 18.6917C149.349 18.4913 149.149 18.4245 148.815 18.4245C148.614 18.4245 148.481 18.4245 148.347 18.4913C148.214 18.5581 148.08 18.6249 148.013 18.6249C147.947 18.6917 147.813 18.7584 147.746 18.7584C147.679 18.8252 147.613 18.8252 147.546 18.8252C147.479 18.8252 147.479 18.8252 147.412 18.7584C147.346 18.7584 147.346 18.6917 147.346 18.6249L147.212 18.3578C147.479 18.1574 147.679 17.9571 148.013 17.8235C148.28 17.69 148.614 17.6232 148.948 17.6232C149.215 17.6232 149.416 17.69 149.616 17.7568C149.816 17.8235 149.95 17.9571 150.083 18.0907C150.217 18.2242 150.284 18.4245 150.351 18.6249C150.417 18.8252 150.417 19.0255 150.417 19.2927V22.2309H150.484ZM148.481 21.7634C148.614 21.7634 148.748 21.7634 148.881 21.6967C149.015 21.6967 149.082 21.6299 149.215 21.5631C149.282 21.4963 149.416 21.4296 149.482 21.3628C149.549 21.296 149.683 21.2292 149.75 21.0957V20.2276C149.416 20.2276 149.082 20.2276 148.881 20.2943C148.614 20.3611 148.414 20.4279 148.28 20.4947C148.147 20.5614 148.013 20.6282 147.947 20.7618C147.88 20.8286 147.813 20.9621 147.813 21.0957C147.813 21.2292 147.813 21.296 147.88 21.3628C147.947 21.4296 147.947 21.4963 148.013 21.5631C148.08 21.6299 148.147 21.6299 148.214 21.6967C148.28 21.7634 148.347 21.7634 148.481 21.7634Z" fill="#0B1A3F"/>
<path d="M151.619 22.2309V17.8903H152.087C152.22 17.8903 152.287 17.9571 152.287 18.0239L152.354 18.4913C152.554 18.291 152.755 18.0907 152.955 17.9571C153.155 17.8235 153.489 17.7568 153.756 17.7568C154.023 17.7568 154.224 17.8235 154.357 17.8903C154.558 17.9571 154.691 18.0907 154.825 18.2242C154.958 18.3578 155.025 18.5581 155.092 18.7584C155.159 18.9588 155.159 19.1591 155.159 19.4262V22.2309H154.424V19.4262C154.424 19.0923 154.357 18.8252 154.224 18.6917C154.09 18.4913 153.823 18.4245 153.556 18.4245C153.356 18.4245 153.088 18.4913 152.955 18.5581C152.755 18.6917 152.554 18.8252 152.421 19.0255V22.2309H151.619Z" fill="#0B1A3F"/>
<path d="M161.302 17.0222C161.302 17.089 161.235 17.089 161.235 17.089C161.235 17.089 161.169 17.089 161.102 17.089C161.035 17.089 160.968 17.089 160.901 17.0222C160.835 16.9554 160.768 16.8887 160.634 16.8887C160.568 16.8219 160.434 16.7551 160.3 16.7551C160.167 16.6883 159.967 16.6883 159.766 16.6883C159.566 16.6883 159.432 16.6883 159.299 16.7551C159.165 16.8219 159.032 16.8887 158.965 16.9554C158.898 17.0222 158.765 17.1558 158.765 17.2893C158.698 17.4229 158.698 17.5564 158.698 17.69C158.698 17.8903 158.765 18.0239 158.831 18.0907C158.898 18.1574 159.032 18.291 159.165 18.3578C159.299 18.4245 159.432 18.4913 159.633 18.5581C159.833 18.6249 159.967 18.6917 160.167 18.7584C160.367 18.8252 160.501 18.892 160.701 18.9588C160.901 19.0255 161.035 19.1591 161.169 19.2259C161.302 19.2927 161.436 19.493 161.502 19.6933C161.569 19.8937 161.636 20.094 161.636 20.3611C161.636 20.6282 161.569 20.8953 161.502 21.0957C161.436 21.3628 161.302 21.5631 161.102 21.6967C160.901 21.897 160.701 22.0306 160.434 22.0973C160.167 22.2309 159.9 22.2309 159.566 22.2309C159.165 22.2309 158.831 22.1641 158.497 22.0306C158.164 21.897 157.896 21.6967 157.629 21.4296L157.896 21.0289L157.963 20.9621C157.963 20.9621 158.03 20.9621 158.097 20.9621C158.164 20.9621 158.23 20.9621 158.297 21.0289C158.364 21.0957 158.497 21.1624 158.564 21.2292C158.698 21.296 158.831 21.3628 158.965 21.4296C159.098 21.4963 159.299 21.4963 159.566 21.4963C159.766 21.4963 159.967 21.4963 160.1 21.4296C160.234 21.3628 160.367 21.296 160.501 21.2292C160.634 21.1624 160.701 21.0289 160.768 20.8953C160.835 20.7618 160.835 20.6282 160.835 20.4279C160.835 20.2276 160.768 20.094 160.701 19.9604C160.634 19.8269 160.501 19.7601 160.367 19.6933C160.234 19.6266 160.1 19.5598 159.9 19.493C159.699 19.4262 159.566 19.3594 159.366 19.2927C159.165 19.2259 159.032 19.1591 158.831 19.0923C158.631 19.0255 158.497 18.892 158.364 18.7584C158.23 18.6249 158.097 18.4913 158.03 18.291C157.963 18.0907 157.896 17.8903 157.896 17.6232C157.896 17.4229 157.963 17.2225 158.03 17.0222C158.097 16.8219 158.23 16.6215 158.431 16.488C158.564 16.3544 158.765 16.2209 159.032 16.0873C159.299 16.0205 159.566 15.9538 159.833 15.9538C160.167 15.9538 160.501 16.0205 160.768 16.0873C161.035 16.2209 161.302 16.3544 161.502 16.5548L161.302 17.0222Z" fill="#0B1A3F"/>
<path d="M164.374 17.8235C164.708 17.8235 164.975 17.8903 165.242 17.9571C165.509 18.0907 165.709 18.2242 165.91 18.4245C166.11 18.6249 166.244 18.8252 166.311 19.1591C166.377 19.4262 166.444 19.7601 166.444 20.094C166.444 20.4279 166.377 20.7618 166.311 21.0289C166.244 21.296 166.043 21.5631 165.91 21.7634C165.709 21.9638 165.509 22.0973 165.242 22.2309C164.975 22.3644 164.708 22.3644 164.374 22.3644C164.04 22.3644 163.773 22.2977 163.506 22.2309C163.239 22.0973 163.038 21.9638 162.838 21.7634C162.638 21.5631 162.504 21.3628 162.437 21.0289C162.371 20.7618 162.304 20.4279 162.304 20.094C162.304 19.7601 162.371 19.4262 162.437 19.1591C162.504 18.892 162.704 18.6249 162.838 18.4245C163.038 18.2242 163.239 18.0907 163.506 17.9571C163.773 17.8903 164.04 17.8235 164.374 17.8235ZM164.374 21.6967C164.775 21.6967 165.108 21.5631 165.309 21.296C165.509 21.0289 165.643 20.6282 165.643 20.094C165.643 19.5598 165.509 19.1591 165.309 18.892C165.108 18.6249 164.775 18.4245 164.374 18.4245C164.174 18.4245 163.973 18.4913 163.84 18.5581C163.706 18.6249 163.573 18.7584 163.439 18.892C163.305 19.0255 163.239 19.2259 163.172 19.4262C163.105 19.6266 163.105 19.8937 163.105 20.094C163.105 20.2943 163.105 20.5614 163.172 20.7618C163.239 20.9621 163.305 21.1624 163.439 21.296C163.573 21.4296 163.706 21.5631 163.84 21.6299C163.973 21.6967 164.174 21.6967 164.374 21.6967Z" fill="#0B1A3F"/>
<path d="M170.317 18.7584H170.25C170.25 18.7584 170.184 18.7584 170.117 18.6917C170.05 18.6249 169.983 18.6249 169.917 18.5581C169.85 18.4913 169.716 18.4913 169.649 18.4245C169.516 18.3578 169.382 18.3578 169.249 18.3578C169.048 18.3578 168.848 18.4245 168.715 18.4913C168.581 18.5581 168.447 18.6917 168.314 18.8252C168.18 18.9588 168.113 19.1591 168.047 19.3594C167.98 19.5598 167.98 19.7601 167.98 20.0272C167.98 20.2943 167.98 20.4947 168.047 20.7618C168.113 20.9621 168.18 21.1624 168.314 21.296C168.447 21.4296 168.581 21.5631 168.715 21.6299C168.848 21.6967 169.048 21.7634 169.249 21.7634C169.449 21.7634 169.583 21.7634 169.716 21.6967C169.85 21.6299 169.917 21.6299 170.05 21.5631C170.117 21.4963 170.184 21.4296 170.25 21.4296C170.317 21.3628 170.384 21.3628 170.384 21.3628C170.451 21.3628 170.518 21.3628 170.518 21.4296L170.718 21.6967C170.518 21.897 170.317 22.0973 169.983 22.2309C169.716 22.3644 169.382 22.3644 169.115 22.3644C168.848 22.3644 168.581 22.2977 168.381 22.2309C168.113 22.0973 167.913 21.9638 167.78 21.7634C167.579 21.5631 167.446 21.3628 167.379 21.0289C167.312 20.7618 167.245 20.4279 167.245 20.094C167.245 19.7601 167.312 19.493 167.379 19.2259C167.446 18.9588 167.579 18.6917 167.78 18.4913C167.98 18.291 168.18 18.1574 168.447 18.0239C168.715 17.8903 168.982 17.8235 169.316 17.8235C169.649 17.8235 169.917 17.8903 170.117 17.9571C170.384 18.0239 170.584 18.2242 170.718 18.3578L170.317 18.7584Z" fill="#0B1A3F"/>
<path d="M172.387 16.488C172.387 16.5548 172.387 16.6215 172.321 16.6883C172.321 16.7551 172.254 16.8219 172.187 16.8887C172.12 16.9554 172.053 16.9554 171.987 17.0222C171.92 17.0222 171.853 17.089 171.786 17.089C171.72 17.089 171.653 17.089 171.586 17.0222C171.519 17.0222 171.452 16.9554 171.386 16.8887C171.319 16.8219 171.319 16.7551 171.252 16.6883C171.252 16.6215 171.185 16.5548 171.185 16.488C171.185 16.4212 171.185 16.3544 171.252 16.2877C171.252 16.2209 171.319 16.1541 171.386 16.0873C171.452 16.0205 171.519 16.0205 171.586 15.9538C171.653 15.9538 171.72 15.887 171.786 15.887C171.853 15.887 171.92 15.887 171.987 15.9538C172.053 15.9538 172.12 16.0205 172.187 16.0873C172.254 16.1541 172.254 16.2209 172.321 16.2877C172.387 16.3544 172.387 16.4212 172.387 16.488ZM172.254 17.8903V22.2309H171.452V17.8903H172.254Z" fill="#0B1A3F"/>
<path d="M175.326 17.8235C175.593 17.8235 175.86 17.8903 176.06 17.9571C176.26 18.0239 176.461 18.1574 176.661 18.3578C176.795 18.4913 176.928 18.7584 177.062 18.9588C177.129 19.2259 177.195 19.493 177.195 19.7601C177.195 19.8937 177.195 19.9604 177.129 20.0272C177.129 20.094 177.062 20.094 176.995 20.094H174.124C174.124 20.3611 174.19 20.6282 174.257 20.8286C174.324 21.0289 174.391 21.2292 174.524 21.3628C174.658 21.4963 174.791 21.6299 174.925 21.6967C175.058 21.7634 175.259 21.8302 175.459 21.8302C175.659 21.8302 175.793 21.8302 175.927 21.7634C176.06 21.6967 176.194 21.6967 176.26 21.6299C176.327 21.5631 176.461 21.5631 176.528 21.4963C176.594 21.4296 176.661 21.4296 176.728 21.4296C176.795 21.4296 176.861 21.4296 176.861 21.4963L177.062 21.7634C176.995 21.897 176.861 21.9638 176.728 22.0306C176.594 22.0973 176.461 22.1641 176.327 22.2309C176.194 22.2977 175.993 22.2977 175.86 22.3644C175.726 22.3644 175.526 22.4312 175.392 22.4312C175.058 22.4312 174.791 22.3644 174.591 22.2977C174.324 22.1641 174.124 22.0306 173.923 21.8302C173.723 21.6299 173.589 21.3628 173.523 21.0957C173.389 20.8286 173.389 20.4947 173.389 20.094C173.389 19.7601 173.456 19.493 173.523 19.2259C173.589 18.9588 173.723 18.7584 173.923 18.5581C174.124 18.3578 174.324 18.2242 174.591 18.0907C174.725 17.8903 174.992 17.8235 175.326 17.8235ZM175.326 18.3578C174.925 18.3578 174.658 18.4913 174.457 18.6917C174.257 18.892 174.124 19.2259 174.057 19.5598H176.394C176.394 19.3594 176.394 19.2259 176.327 19.0923C176.26 18.9588 176.194 18.8252 176.127 18.6917C176.06 18.5581 175.927 18.4913 175.793 18.4245C175.659 18.4245 175.526 18.3578 175.326 18.3578Z" fill="#0B1A3F"/>
<path d="M179.399 22.2977C179.065 22.2977 178.798 22.2309 178.598 22.0306C178.397 21.8302 178.331 21.5631 178.331 21.2292V18.5581H177.796C177.73 18.5581 177.73 18.5581 177.663 18.4913C177.663 18.4913 177.596 18.4245 177.596 18.3578V18.0239L178.331 17.9571L178.531 16.6215C178.531 16.5548 178.531 16.5548 178.598 16.488C178.598 16.488 178.664 16.4212 178.731 16.4212H179.132V17.8903H180.401V18.4245H179.132V21.0289C179.132 21.2292 179.199 21.3628 179.265 21.4296C179.332 21.4963 179.466 21.5631 179.599 21.5631C179.666 21.5631 179.733 21.5631 179.8 21.5631C179.866 21.5631 179.933 21.4963 179.933 21.4963C180 21.4963 180 21.4296 180.067 21.4296H180.134C180.2 21.4296 180.2 21.4296 180.267 21.4963L180.467 21.8302C180.334 21.9638 180.2 22.0306 180 22.0973C179.8 22.2977 179.599 22.2977 179.399 22.2977Z" fill="#0B1A3F"/>
<path d="M182.738 23.4997C182.738 23.5665 182.671 23.6332 182.671 23.6332C182.604 23.7 182.604 23.7 182.471 23.7H181.937L182.738 21.9638L180.935 17.8903H181.603C181.669 17.8903 181.736 17.8903 181.736 17.9571C181.803 17.9571 181.803 18.0239 181.803 18.0907L182.938 20.8286C182.938 20.8953 183.005 20.9621 183.005 21.0289C183.005 21.0957 183.072 21.1624 183.072 21.2292C183.072 21.1624 183.139 21.0957 183.139 21.0289C183.139 20.9621 183.205 20.8953 183.205 20.8286L184.341 18.0907C184.341 18.0239 184.407 18.0239 184.407 17.9571C184.474 17.9571 184.474 17.8903 184.541 17.8903H185.142L182.738 23.4997Z" fill="#0B1A3F"/>
<path d="M188.08 21.897C187.813 21.6299 187.679 21.2292 187.679 20.7618C187.679 20.695 187.679 20.5614 187.679 20.4279C187.679 20.2943 187.746 20.1608 187.746 20.094C187.88 19.493 188.147 19.0255 188.548 18.6917C188.881 18.3578 189.349 18.1574 189.816 18.1574C190.217 18.1574 190.551 18.291 190.818 18.6249C191.085 18.892 191.219 19.2927 191.219 19.7601C191.219 19.8269 191.219 19.9604 191.219 20.094C191.219 20.2276 191.152 20.3611 191.152 20.4279C191.018 21.0289 190.751 21.4963 190.351 21.8302C190.017 22.1641 189.549 22.3644 189.082 22.3644C188.681 22.3644 188.347 22.2309 188.08 21.897ZM189.75 21.5631C189.95 21.2292 190.083 20.8286 190.217 20.3611C190.284 20.1608 190.284 20.0272 190.351 19.8269C190.351 19.6266 190.417 19.493 190.417 19.3594C190.417 19.0923 190.351 18.9588 190.284 18.8252C190.15 18.6917 190.017 18.6249 189.816 18.6249C189.616 18.6249 189.416 18.7584 189.215 19.0923C189.015 19.4262 188.881 19.8269 188.748 20.2943C188.681 20.4947 188.681 20.6282 188.614 20.8286C188.614 21.0289 188.548 21.1624 188.548 21.296C188.548 21.5631 188.614 21.6967 188.681 21.8302C188.815 21.9638 188.948 22.0306 189.149 22.0306C189.349 21.9638 189.549 21.8302 189.75 21.5631Z" fill="#0B1A3F"/>
<path d="M193.489 18.6917L192.955 21.296C192.755 22.3644 192.487 23.099 192.154 23.6332C191.82 24.1675 191.486 24.4346 191.085 24.4346C190.952 24.4346 190.885 24.3678 190.751 24.301C190.684 24.2342 190.618 24.1675 190.618 24.0339C190.618 23.9003 190.684 23.7668 190.751 23.7C190.818 23.6332 190.952 23.5665 191.018 23.5665C191.085 23.5665 191.152 23.6332 191.219 23.7C191.285 23.7668 191.352 23.8336 191.419 23.8336C191.419 23.8336 191.486 23.7668 191.553 23.7C191.619 23.6332 191.619 23.4997 191.686 23.4329V23.3661C191.82 22.8987 191.953 22.2309 192.087 21.296L192.621 18.6917H191.82C191.753 18.6917 191.753 18.6917 191.753 18.6249L191.82 18.3578C191.82 18.291 191.82 18.291 191.886 18.291H192.621C192.755 17.4897 192.955 16.8887 193.222 16.488C193.556 15.887 194.09 15.6199 194.624 15.6199C194.891 15.6199 195.092 15.6867 195.225 15.7534C195.359 15.8202 195.492 15.9538 195.492 16.0873C195.492 16.2209 195.492 16.2877 195.426 16.3544C195.359 16.4212 195.292 16.488 195.159 16.488C195.025 16.488 194.891 16.4212 194.825 16.2209C194.758 16.0205 194.624 15.9538 194.491 15.9538C194.424 15.9538 194.29 16.0205 194.224 16.0873C194.09 16.2209 194.023 16.2877 193.957 16.488L193.89 16.6215C193.756 17.0222 193.623 17.5564 193.489 18.291H194.224C194.29 18.291 194.29 18.291 194.29 18.291V18.3578L194.224 18.4913C194.224 18.5581 194.224 18.5581 194.157 18.5581C194.157 18.5581 194.09 18.5581 194.023 18.5581H193.489V18.6917Z" fill="#0B1A3F"/>
<path d="M125.376 31.513H124.708C124.641 31.513 124.574 31.513 124.507 31.4462C124.441 31.3795 124.441 31.3795 124.374 31.3127L123.773 29.8436H121.035L120.434 31.3127C120.434 31.3795 120.367 31.3795 120.3 31.4462C120.234 31.513 120.167 31.513 120.1 31.513H119.432L122.037 25.3695H122.905L125.376 31.513ZM121.302 29.2426H123.573L122.638 26.705C122.571 26.5715 122.504 26.3711 122.437 26.104C122.437 26.2376 122.371 26.3043 122.371 26.4379C122.371 26.5047 122.304 26.6382 122.304 26.705L121.302 29.2426Z" fill="#0B1A3F"/>
<path d="M129.449 25.1691V31.513H128.982C128.848 31.513 128.781 31.4462 128.781 31.3795L128.715 30.8452C128.514 31.0456 128.314 31.2459 128.047 31.3795C127.78 31.513 127.513 31.5798 127.245 31.5798C126.978 31.5798 126.778 31.513 126.578 31.4462C126.377 31.3795 126.177 31.2459 126.043 31.0456C125.91 30.8452 125.776 30.6449 125.709 30.3778C125.643 30.1107 125.576 29.7768 125.576 29.4429C125.576 29.109 125.643 28.8419 125.709 28.5748C125.776 28.3077 125.91 28.0406 126.11 27.8402C126.244 27.6399 126.444 27.5064 126.711 27.3728C126.912 27.2392 127.179 27.1725 127.513 27.1725C127.78 27.1725 127.98 27.2392 128.18 27.306C128.381 27.3728 128.514 27.5064 128.715 27.7067V25.3027H129.449V25.1691ZM128.715 28.1741C128.581 27.9738 128.381 27.8402 128.247 27.7735C128.047 27.7067 127.913 27.6399 127.713 27.6399C127.312 27.6399 126.978 27.7735 126.778 28.0406C126.578 28.3077 126.444 28.7751 126.444 29.3094C126.444 29.5765 126.444 29.8436 126.511 30.0439C126.578 30.2442 126.644 30.4446 126.711 30.5114C126.778 30.6449 126.912 30.7117 127.045 30.7785C127.179 30.8452 127.312 30.8452 127.513 30.8452C127.78 30.8452 127.98 30.7785 128.18 30.6449C128.381 30.5114 128.514 30.3778 128.715 30.1775V28.1741ZM134.324 25.1691V31.513H133.856C133.723 31.513 133.656 31.4462 133.656 31.3795L133.589 30.8452C133.389 31.0456 133.189 31.2459 132.922 31.3795C132.654 31.513 132.387 31.5798 132.12 31.5798C131.853 31.5798 131.653 31.513 131.452 31.4462C131.252 31.3795 131.052 31.2459 130.918 31.0456C130.785 30.8452 130.651 30.6449 130.584 30.3778C130.518 30.1107 130.451 29.7768 130.451 29.4429C130.451 29.109 130.518 28.8419 130.584 28.5748C130.651 28.3077 130.785 28.0406 130.985 27.8402C131.119 27.6399 131.319 27.5064 131.586 27.3728C131.786 27.2392 132.053 27.1725 132.387 27.1725C132.654 27.1725 132.855 27.2392 133.055 27.306C133.255 27.3728 133.389 27.5064 133.589 27.7067V25.3027H134.324V25.1691ZM133.523 28.1741C133.389 27.9738 133.189 27.8402 133.055 27.7735C132.855 27.7067 132.721 27.6399 132.521 27.6399C132.12 27.6399 131.786 27.7735 131.586 28.0406C131.386 28.3077 131.252 28.7751 131.252 29.3094C131.252 29.5765 131.252 29.8436 131.319 30.0439C131.386 30.2442 131.452 30.4446 131.519 30.5114C131.586 30.6449 131.72 30.7117 131.853 30.7785C131.987 30.8452 132.12 30.8452 132.321 30.8452C132.588 30.8452 132.788 30.7785 132.988 30.6449C133.189 30.5114 133.322 30.3778 133.523 30.1775V28.1741ZM136.461 25.7701C136.461 25.8369 136.461 25.9037 136.394 25.9705C136.394 26.0372 136.327 26.104 136.26 26.1708C136.194 26.2376 136.127 26.2376 136.06 26.3043C135.993 26.3711 135.927 26.3711 135.86 26.3711C135.793 26.3711 135.726 26.3711 135.659 26.3043C135.593 26.3043 135.526 26.2376 135.459 26.1708C135.392 26.104 135.392 26.0372 135.326 25.9705C135.259 25.9037 135.259 25.8369 135.259 25.7701C135.259 25.7033 135.259 25.6366 135.326 25.5698C135.326 25.503 135.392 25.4362 135.459 25.3695C135.526 25.3027 135.593 25.3027 135.659 25.2359C135.726 25.2359 135.793 25.1691 135.86 25.1691C135.927 25.1691 135.993 25.1691 136.06 25.2359C136.127 25.3027 136.194 25.3027 136.26 25.3695C136.327 25.4362 136.327 25.503 136.394 25.5698C136.461 25.6366 136.461 25.7033 136.461 25.7701ZM136.327 27.1057V31.4462H135.593V27.1057H136.327ZM140.601 27.907C140.601 27.9738 140.534 27.9738 140.534 27.9738H140.467C140.401 27.9738 140.401 27.9738 140.334 27.907C140.267 27.8402 140.2 27.8402 140.134 27.7735C140.067 27.7067 140 27.7067 139.866 27.6399C139.733 27.5731 139.599 27.5731 139.466 27.5731C139.265 27.5731 139.065 27.6399 138.932 27.7067C138.798 27.7735 138.598 27.907 138.531 28.0406C138.397 28.1741 138.331 28.3745 138.264 28.5748C138.197 28.7751 138.197 28.9755 138.197 29.2426C138.197 29.5097 138.264 29.71 138.264 29.9771C138.331 30.1775 138.397 30.3778 138.531 30.5114C138.664 30.6449 138.798 30.7785 138.932 30.8452C139.065 30.912 139.265 30.9788 139.466 30.9788C139.666 30.9788 139.8 30.9788 139.933 30.912C140.067 30.8452 140.134 30.8452 140.2 30.7785C140.267 30.7117 140.334 30.6449 140.401 30.6449C140.467 30.5781 140.534 30.5781 140.534 30.5781C140.601 30.5781 140.668 30.5781 140.668 30.6449L140.868 30.912C140.801 31.0456 140.668 31.1124 140.534 31.2459C140.401 31.3127 140.267 31.3795 140.134 31.4462C140 31.513 139.866 31.513 139.666 31.5798C139.533 31.5798 139.332 31.6466 139.199 31.6466C138.932 31.6466 138.664 31.5798 138.464 31.513C138.264 31.4463 137.997 31.2459 137.863 31.1124C137.663 30.912 137.529 30.7117 137.462 30.3778C137.396 30.1107 137.329 29.7768 137.329 29.4429C137.329 29.109 137.396 28.8419 137.462 28.5748C137.529 28.3077 137.663 28.0406 137.863 27.8402C138.063 27.6399 138.264 27.5064 138.531 27.3728C138.798 27.2392 139.065 27.1725 139.399 27.1725C139.733 27.1725 140 27.2392 140.2 27.306C140.401 27.3728 140.668 27.5064 140.801 27.7067L140.601 27.907ZM145.743 31.513H145.008V27.7735H142.738V30.3778C142.738 30.5781 142.805 30.7117 142.871 30.7785C142.938 30.8452 143.072 30.912 143.205 30.912C143.272 30.912 143.339 30.912 143.406 30.8452C143.472 30.8452 143.539 30.7785 143.539 30.7785C143.606 30.7785 143.606 30.7117 143.673 30.7117L143.74 30.6449C143.806 30.6449 143.806 30.6449 143.873 30.7117L144.073 31.1124C143.94 31.2459 143.806 31.3127 143.606 31.3795C143.406 31.4462 143.205 31.513 143.005 31.513C142.671 31.513 142.404 31.4462 142.204 31.2459C142.003 31.0456 141.937 30.7785 141.937 30.4446V27.7735H141.402C141.336 27.7735 141.336 27.7735 141.269 27.7067C141.202 27.7067 141.202 27.6399 141.202 27.5731V27.2392L141.937 27.1725L142.137 25.8369C142.137 25.7701 142.137 25.7701 142.204 25.7033C142.204 25.7033 142.27 25.6366 142.337 25.6366H142.738V27.1057H145.743V31.513ZM145.876 25.7701C145.876 25.8369 145.876 25.9037 145.81 25.9705C145.81 26.0372 145.743 26.104 145.676 26.1708C145.609 26.2376 145.543 26.2376 145.476 26.3043C145.409 26.3711 145.342 26.3711 145.275 26.3711C145.209 26.3711 145.142 26.3711 145.075 26.3043C145.008 26.3043 144.942 26.2376 144.942 26.1708C144.875 26.104 144.875 26.0372 144.808 25.9705C144.808 25.9037 144.741 25.8369 144.741 25.7701C144.741 25.7033 144.741 25.6366 144.808 25.5698C144.875 25.503 144.875 25.4362 144.942 25.3695C145.008 25.3027 145.075 25.3027 145.075 25.2359C145.142 25.2359 145.209 25.1691 145.275 25.1691C145.342 25.1691 145.409 25.1691 145.476 25.2359C145.543 25.2359 145.609 25.3027 145.676 25.3695C145.743 25.4362 145.743 25.503 145.81 25.5698C145.876 25.5698 145.876 25.7033 145.876 25.7701ZM148.815 27.0389C149.149 27.0389 149.416 27.1057 149.683 27.1725C149.95 27.306 150.15 27.4396 150.351 27.6399C150.551 27.8402 150.684 28.1074 150.751 28.3745C150.818 28.6416 150.885 28.9755 150.885 29.3094C150.885 29.6432 150.818 29.9771 150.751 30.2442C150.684 30.5114 150.551 30.7785 150.351 30.9788C150.15 31.1791 149.95 31.3127 149.683 31.4462C149.416 31.5798 149.149 31.5798 148.815 31.5798C148.481 31.5798 148.214 31.513 147.947 31.4462C147.679 31.3127 147.479 31.1791 147.279 30.9788C147.078 30.7785 146.945 30.5781 146.878 30.2442C146.811 29.9771 146.745 29.6432 146.745 29.3094C146.745 28.9755 146.811 28.6416 146.878 28.3745C146.945 28.1074 147.078 27.8402 147.279 27.6399C147.479 27.4396 147.679 27.306 147.947 27.1725C148.214 27.1057 148.481 27.0389 148.815 27.0389ZM148.815 30.9788C149.215 30.9788 149.549 30.8452 149.75 30.5781C149.95 30.311 150.083 29.9104 150.083 29.3761C150.083 28.8419 149.95 28.4412 149.75 28.1741C149.549 27.907 149.215 27.7067 148.815 27.7067C148.614 27.7067 148.414 27.7735 148.28 27.8402C148.147 27.907 147.947 28.0406 147.88 28.1741C147.746 28.3077 147.679 28.508 147.613 28.7084C147.546 28.9087 147.546 29.1758 147.546 29.3761C147.546 29.9104 147.679 30.311 147.88 30.5781C148.013 30.8452 148.347 30.9788 148.815 30.9788ZM152.554 27.7735C152.621 27.6399 152.755 27.5731 152.888 27.5064C153.022 27.4396 153.088 27.3728 153.222 27.306C153.356 27.2392 153.489 27.1725 153.623 27.1725C153.756 27.1057 153.89 27.1057 154.023 27.1057C154.29 27.1057 154.491 27.1725 154.624 27.2392C154.758 27.306 154.958 27.4396 155.092 27.5731C155.225 27.7067 155.292 27.907 155.359 28.1074C155.426 28.3077 155.426 28.508 155.426 28.7751V31.5798H154.624V28.7084C154.624 28.3745 154.558 28.1074 154.424 27.9738C154.29 27.7735 154.023 27.7067 153.756 27.7067C153.556 27.7067 153.289 27.7735 153.088 27.8402C152.888 27.9738 152.688 28.1074 152.554 28.3077V31.513H151.82V27.1725H152.287C152.421 27.1725 152.487 27.2392 152.487 27.306L152.554 27.7735ZM165.442 25.3027V31.4462H164.708V26.9053C164.708 26.8386 164.708 26.7718 164.708 26.705C164.708 26.6382 164.708 26.5715 164.708 26.5047L162.571 30.3778C162.504 30.5114 162.371 30.5781 162.237 30.5781H162.103C161.97 30.5781 161.836 30.5114 161.77 30.3778L159.633 26.5047C159.633 26.6382 159.633 26.7718 159.633 26.9053V31.4462H158.898V25.3027H159.499C159.566 25.3027 159.633 25.3027 159.699 25.3027C159.766 25.3027 159.766 25.3695 159.833 25.4362L161.97 29.2426C162.037 29.3094 162.037 29.3761 162.103 29.4429C162.17 29.5097 162.17 29.5765 162.17 29.6432C162.17 29.5765 162.237 29.5097 162.237 29.4429C162.304 29.3761 162.304 29.3094 162.371 29.2426L164.441 25.4362C164.507 25.3695 164.507 25.3027 164.574 25.3027C164.641 25.3027 164.708 25.3027 164.775 25.3027H165.442Z" fill="#0B1A3F"/>
<path d="M168.447 27.1057C168.715 27.1057 168.982 27.1725 169.182 27.2392C169.382 27.306 169.583 27.4396 169.783 27.6399C169.917 27.7735 170.05 28.0406 170.184 28.2409C170.25 28.508 170.317 28.7751 170.317 29.0422C170.317 29.1758 170.317 29.2426 170.25 29.3094C170.184 29.3761 170.184 29.3761 170.117 29.3761H167.245C167.245 29.6432 167.312 29.9104 167.379 30.1107C167.446 30.311 167.513 30.5114 167.646 30.6449C167.78 30.7785 167.913 30.912 168.047 30.9788C168.18 31.0456 168.381 31.1124 168.581 31.1124C168.781 31.1124 168.915 31.1124 169.048 31.0456C169.182 30.9788 169.316 30.9788 169.382 30.912C169.449 30.8452 169.583 30.8452 169.649 30.7785C169.716 30.7117 169.783 30.7117 169.85 30.7117C169.917 30.7117 169.983 30.7117 169.983 30.7785L170.184 31.0456C170.117 31.1791 169.983 31.2459 169.85 31.3127C169.716 31.3795 169.583 31.4463 169.449 31.513C169.316 31.5798 169.115 31.5798 168.982 31.6466C168.848 31.6466 168.648 31.7134 168.514 31.7134C168.18 31.7134 167.913 31.6466 167.713 31.5798C167.446 31.4462 167.245 31.3127 167.045 31.1124C166.845 30.912 166.711 30.6449 166.644 30.3778C166.511 30.1107 166.511 29.7768 166.511 29.3761C166.511 29.0422 166.578 28.7751 166.644 28.508C166.711 28.2409 166.845 28.0406 167.045 27.8402C167.245 27.6399 167.446 27.5064 167.713 27.3728C167.846 27.1057 168.114 27.1057 168.447 27.1057ZM168.447 27.6399C168.047 27.6399 167.78 27.7735 167.579 27.9738C167.379 28.1741 167.245 28.508 167.179 28.8419H169.516C169.516 28.6416 169.516 28.508 169.449 28.3745C169.382 28.2409 169.316 28.1074 169.249 27.9738C169.182 27.8402 169.048 27.7735 168.915 27.7067C168.781 27.6399 168.648 27.6399 168.447 27.6399Z" fill="#0B1A3F"/>
<path d="M174.257 31.513C174.124 31.513 174.057 31.4462 174.057 31.3795L173.99 30.8452C173.79 31.0456 173.589 31.2459 173.322 31.3795C173.055 31.513 172.788 31.5798 172.521 31.5798C172.254 31.5798 172.053 31.513 171.853 31.4462C171.653 31.3795 171.452 31.1791 171.319 31.0456C171.185 30.8452 171.052 30.6449 170.985 30.3778C170.918 30.1107 170.851 29.7768 170.851 29.4429C170.851 29.109 170.918 28.8419 170.985 28.5748C171.052 28.3077 171.185 28.0406 171.386 27.8402C171.519 27.6399 171.72 27.5064 171.987 27.3728C172.187 27.2392 172.454 27.1725 172.788 27.1725C173.055 27.1725 173.255 27.2392 173.456 27.306C173.656 27.3728 173.79 27.5064 173.99 27.7067V25.3027H174.725V31.6466H174.257V31.513ZM172.788 30.912C173.055 30.912 173.255 30.8452 173.456 30.7117C173.656 30.5781 173.79 30.4446 173.99 30.2442V28.1074C173.856 27.907 173.723 27.7735 173.523 27.7067C173.322 27.6399 173.189 27.5731 172.988 27.5731C172.588 27.5731 172.254 27.7067 172.053 28.0406C171.853 28.3077 171.72 28.7751 171.72 29.3094C171.72 29.5765 171.72 29.8436 171.786 30.0439C171.853 30.2442 171.92 30.4446 171.987 30.5114C172.053 30.6449 172.187 30.7117 172.321 30.7785C172.454 30.912 172.654 30.912 172.788 30.912Z" fill="#0B1A3F"/>
<path d="M177.062 25.7701C177.062 25.8369 177.062 25.9037 176.995 25.9705C176.995 26.0372 176.928 26.104 176.861 26.1708C176.795 26.2376 176.728 26.2376 176.661 26.3043C176.594 26.3043 176.528 26.3711 176.461 26.3711C176.394 26.3711 176.327 26.3711 176.26 26.3043C176.194 26.3043 176.127 26.2376 176.06 26.1708C175.993 26.104 175.993 26.0372 175.927 25.9705C175.927 25.9037 175.86 25.8369 175.86 25.7701C175.86 25.7033 175.86 25.6366 175.927 25.5698C175.927 25.503 175.993 25.4362 176.06 25.3695C176.127 25.3027 176.194 25.3027 176.26 25.2359C176.327 25.2359 176.394 25.1691 176.461 25.1691C176.528 25.1691 176.594 25.1691 176.661 25.2359C176.728 25.2359 176.795 25.3027 176.861 25.3695C176.928 25.4362 176.928 25.503 176.995 25.5698C177.062 25.6366 177.062 25.7033 177.062 25.7701ZM176.861 27.1725V31.513H176.127V27.1725H176.861Z" fill="#0B1A3F"/>
<path d="M181.135 27.9738H181.068C181.002 27.9738 181.002 27.9738 180.935 27.907C180.868 27.8402 180.801 27.8402 180.735 27.7735C180.668 27.7067 180.534 27.7067 180.467 27.6399C180.334 27.5731 180.2 27.5731 180.067 27.5731C179.866 27.5731 179.666 27.6399 179.533 27.7067C179.399 27.7735 179.265 27.907 179.132 28.0406C178.998 28.1741 178.932 28.3745 178.865 28.5748C178.798 28.7751 178.798 28.9755 178.798 29.2426C178.798 29.5097 178.798 29.71 178.865 29.9771C178.932 30.2442 178.998 30.3778 179.132 30.5114C179.265 30.6449 179.399 30.7785 179.533 30.8452C179.666 30.912 179.866 30.9788 180.067 30.9788C180.267 30.9788 180.401 30.9788 180.534 30.912C180.668 30.8452 180.735 30.8452 180.868 30.7785C180.935 30.7117 181.002 30.6449 181.068 30.6449C181.135 30.5781 181.202 30.5781 181.202 30.5781C181.269 30.5781 181.336 30.5781 181.336 30.6449L181.536 30.912C181.336 31.1124 181.135 31.3127 180.801 31.4462C180.534 31.5798 180.2 31.5798 179.933 31.5798C179.666 31.5798 179.399 31.513 179.199 31.4462C178.932 31.3795 178.731 31.1791 178.598 30.9788C178.397 30.7785 178.264 30.5781 178.197 30.2442C178.13 29.9771 178.063 29.6432 178.063 29.3094C178.063 28.9755 178.13 28.7084 178.197 28.4412C178.264 28.1741 178.397 27.907 178.598 27.7067C178.798 27.5064 178.998 27.3728 179.265 27.2392C179.533 27.1057 179.8 27.0389 180.134 27.0389C180.467 27.0389 180.735 27.1057 180.935 27.1725C181.202 27.2392 181.402 27.4396 181.536 27.5731L181.135 27.9738Z" fill="#0B1A3F"/>
<path d="M183.272 25.7701C183.272 25.8369 183.272 25.9037 183.205 25.9705C183.205 26.0372 183.139 26.104 183.072 26.1708C183.005 26.2376 182.938 26.2376 182.871 26.3043C182.805 26.3043 182.738 26.3711 182.671 26.3711C182.604 26.3711 182.538 26.3711 182.471 26.3043C182.404 26.3043 182.337 26.2376 182.27 26.1708C182.204 26.104 182.204 26.0372 182.137 25.9705C182.137 25.9037 182.07 25.8369 182.07 25.7701C182.07 25.7033 182.07 25.6366 182.137 25.5698C182.137 25.503 182.204 25.4362 182.27 25.3695C182.337 25.3027 182.404 25.3027 182.471 25.2359C182.538 25.2359 182.604 25.1691 182.671 25.1691C182.738 25.1691 182.805 25.1691 182.871 25.2359C182.938 25.2359 183.005 25.3027 183.072 25.3695C183.139 25.4362 183.139 25.503 183.205 25.5698C183.272 25.6366 183.272 25.7033 183.272 25.7701ZM183.072 27.1725V31.513H182.337V27.1725H183.072Z" fill="#0B1A3F"/>
<path d="M184.474 31.513V27.1725H184.942C185.075 27.1725 185.142 27.2392 185.142 27.306L185.209 27.7735C185.409 27.5731 185.609 27.3728 185.81 27.2392C186.01 27.1057 186.344 27.0389 186.611 27.0389C186.878 27.0389 187.078 27.1057 187.212 27.1725C187.412 27.2392 187.546 27.3728 187.679 27.5064C187.813 27.6399 187.88 27.8402 187.947 28.0406C188.013 28.2409 188.013 28.4412 188.013 28.7084V31.513H187.279V28.7084C187.279 28.3745 187.212 28.1074 187.078 27.9738C186.945 27.7735 186.678 27.7067 186.411 27.7067C186.21 27.7067 185.943 27.7735 185.81 27.8402C185.609 27.9738 185.409 28.1074 185.275 28.3077V31.513H184.474Z" fill="#0B1A3F"/>
<path d="M190.952 27.1057C191.219 27.1057 191.486 27.1725 191.686 27.2392C191.886 27.306 192.087 27.4396 192.287 27.6399C192.421 27.7735 192.554 28.0406 192.688 28.2409C192.755 28.508 192.821 28.7751 192.821 29.0422C192.821 29.1758 192.821 29.2426 192.755 29.3094C192.688 29.3761 192.688 29.3761 192.621 29.3761H189.75C189.75 29.6432 189.816 29.9104 189.883 30.1107C189.95 30.311 190.017 30.5114 190.15 30.6449C190.284 30.7785 190.417 30.912 190.551 30.9788C190.684 31.0456 190.885 31.1124 191.085 31.1124C191.285 31.1124 191.419 31.1124 191.553 31.0456C191.686 30.9788 191.82 30.9788 191.886 30.912C191.953 30.8452 192.087 30.8452 192.154 30.7785C192.22 30.7117 192.287 30.7117 192.354 30.7117C192.421 30.7117 192.487 30.7117 192.487 30.7785L192.688 31.0456C192.621 31.1791 192.487 31.2459 192.354 31.3127C192.22 31.3795 192.087 31.4463 191.953 31.513C191.82 31.5798 191.619 31.5798 191.486 31.6466C191.352 31.6466 191.152 31.7134 191.018 31.7134C190.684 31.7134 190.417 31.6466 190.217 31.5798C189.95 31.4462 189.75 31.3127 189.549 31.1124C189.349 30.912 189.215 30.6449 189.149 30.3778C189.015 30.1107 189.015 29.7768 189.015 29.3761C189.015 29.0422 189.082 28.7751 189.149 28.508C189.215 28.2409 189.349 28.0406 189.549 27.8402C189.75 27.6399 189.95 27.5064 190.217 27.3728C190.351 27.1057 190.618 27.1057 190.952 27.1057ZM190.952 27.6399C190.551 27.6399 190.284 27.7735 190.083 27.9738C189.883 28.1741 189.75 28.508 189.683 28.8419H192.02C192.02 28.6416 192.02 28.508 191.953 28.3745C191.886 28.2409 191.82 28.1074 191.753 27.9738C191.686 27.8402 191.553 27.7735 191.419 27.7067C191.285 27.6399 191.152 27.6399 190.952 27.6399Z" fill="#0B1A3F"/>
<path d="M10.384 33.7167L10.5844 33.917L10.3173 34.518L11.1854 35.4529L11.8531 35.2526L12.0535 35.4529L9.64947 36.2542L9.38236 36.0539L10.384 33.7167ZM9.64947 35.9204L10.8515 35.5197L10.1837 34.7184L9.64947 35.9204Z" fill="#0B1A3F"/>
<path d="M8.98169 32.715L8.38069 34.1173L9.98336 33.1157L10.1169 33.316L8.18036 34.5848L8.0468 34.3177L8.6478 32.9821L7.11191 32.9153L6.97835 32.715L8.91491 31.4462L9.04847 31.7133L7.4458 32.715H8.98169Z" fill="#0B1A3F"/>
<path d="M6.04346 30.1775L6.57769 31.4462L7.31224 31.1791L6.77802 29.9771L7.04513 29.9103L7.51258 31.0456L8.24713 30.7117L7.71291 29.4429L7.91324 29.3093L8.58102 30.8452L6.51091 31.7801L5.84313 30.311L6.04346 30.1775Z" fill="#0B1A3F"/>
<path d="M6.91157 20.8953V21.1624L6.31057 21.3628L6.2438 22.6315L6.8448 22.9654V23.2325L4.50757 21.9638V21.6966L6.91157 20.8953ZM4.84146 21.897L5.97668 22.498L6.04346 21.4295L4.84146 21.897Z" fill="#0B1A3F"/>
<path d="M5.17535 18.2242L5.24213 17.9571L7.4458 18.4913L7.37902 18.6916L5.24213 19.6933L7.04513 20.1608V20.4279L4.77468 19.8936L4.84146 19.6265L6.97835 18.6249L5.17535 18.2242Z" fill="#0B1A3F"/>
<path d="M6.71124 16.0205C6.77802 16.0205 6.77802 16.0205 6.8448 15.9537C6.91158 15.9537 6.97835 15.887 7.04513 15.8202C7.11191 15.7534 7.17869 15.6866 7.24546 15.5531C7.37902 15.3527 7.57935 15.2192 7.71291 15.1524C7.84647 15.0856 7.98002 15.0856 8.18036 15.1524C8.24713 15.2192 8.31391 15.2192 8.38069 15.286C8.44747 15.3527 8.44747 15.4195 8.51425 15.4863C8.51425 15.5531 8.51425 15.6866 8.51425 15.7534C8.51425 15.887 8.44747 15.9537 8.44747 16.0873C8.38069 16.2876 8.24713 16.4212 8.18036 16.488C7.98002 16.6883 7.84647 16.7551 7.64613 16.8219L7.51258 16.6215C7.64613 16.5547 7.77969 16.488 7.91324 16.4212C8.0468 16.3544 8.11358 16.2209 8.18036 16.0873C8.24713 15.9537 8.24713 15.8202 8.24713 15.6866C8.24713 15.5531 8.18036 15.4863 8.0468 15.4195C7.98002 15.4195 7.98002 15.3527 7.91324 15.3527C7.84647 15.3527 7.84647 15.3527 7.77969 15.4195C7.71291 15.4195 7.64613 15.4863 7.64613 15.5531C7.57935 15.6199 7.51258 15.6866 7.4458 15.8202C7.31224 15.887 7.24546 15.9537 7.17869 16.0205C7.11191 16.0873 7.04513 16.1541 6.97835 16.1541C6.91158 16.2209 6.8448 16.2209 6.77802 16.2209C6.71124 16.2209 6.64446 16.2209 6.51091 16.1541C6.44413 16.0873 6.37735 16.0873 6.31057 16.0205C6.2438 15.9537 6.2438 15.887 6.17702 15.8202C6.17702 15.7534 6.17702 15.6199 6.17702 15.5531C6.17702 15.4863 6.2438 15.3527 6.2438 15.286C6.31057 15.1524 6.37735 15.0189 6.51091 14.8853C6.57769 14.8185 6.71124 14.685 6.8448 14.6182L6.97835 14.8185C6.8448 14.8853 6.77802 14.9521 6.64446 15.0189C6.51091 15.1524 6.44413 15.2192 6.44413 15.3527C6.44413 15.4195 6.37735 15.4863 6.37735 15.5531C6.37735 15.6199 6.37735 15.6866 6.37735 15.7534C6.37735 15.8202 6.44413 15.8202 6.44413 15.887C6.44413 15.9537 6.51091 15.9537 6.57769 15.9537C6.57769 15.9537 6.64446 16.0205 6.71124 16.0205Z" fill="#0B1A3F"/>
<path d="M9.51592 12.7484C9.58269 12.882 9.64947 13.0155 9.71625 13.1491C9.78303 13.2826 9.78303 13.4162 9.71625 13.6165C9.71625 13.7501 9.64947 13.9504 9.51592 14.084C9.44914 14.2175 9.31558 14.3511 9.18203 14.4179C9.04847 14.4846 8.91491 14.5514 8.78136 14.6182C8.6478 14.6182 8.51425 14.6182 8.31391 14.6182C8.18036 14.6182 8.0468 14.5514 7.91324 14.4179C7.77969 14.3511 7.64613 14.2175 7.57935 14.084C7.51258 13.9504 7.4458 13.8168 7.37902 13.6833C7.31224 13.5497 7.31224 13.4162 7.37902 13.2158C7.37902 13.0823 7.4458 12.882 7.57935 12.7484C7.64613 12.6148 7.77969 12.4813 7.91324 12.4145C8.0468 12.3477 8.18036 12.281 8.31391 12.2142C8.44747 12.2142 8.58102 12.2142 8.78136 12.2142C8.91491 12.2142 9.04847 12.281 9.18203 12.4145C9.31558 12.4813 9.44914 12.6148 9.51592 12.7484ZM8.71458 12.4813C8.58102 12.4813 8.44747 12.4813 8.38069 12.4813C8.24713 12.4813 8.18036 12.5481 8.0468 12.6148C7.91324 12.6816 7.84647 12.7484 7.77969 12.882C7.71291 13.0155 7.64613 13.0823 7.64613 13.2158C7.64613 13.3494 7.64613 13.483 7.64613 13.5497C7.64613 13.6833 7.71291 13.7501 7.77969 13.8836C7.84647 14.0172 7.98002 14.084 8.0468 14.1507C8.18036 14.2175 8.24713 14.2843 8.38069 14.2843C8.51425 14.2843 8.6478 14.2843 8.71458 14.2843C8.84814 14.2843 8.91491 14.2175 9.04847 14.1507C9.18203 14.084 9.31558 14.0172 9.38236 13.8836C9.44914 13.7501 9.51592 13.6833 9.51592 13.5497C9.51592 13.4162 9.51592 13.2826 9.51592 13.2158C9.51592 13.0823 9.44914 13.0155 9.38236 12.882C9.2488 12.8152 9.18203 12.6816 9.04847 12.6148C8.98169 12.5481 8.84814 12.5481 8.71458 12.4813Z" fill="#0B1A3F"/>
<path d="M11.586 11.1457C11.586 11.2125 11.586 11.2793 11.5193 11.4128C11.5193 11.4796 11.4525 11.5464 11.4525 11.68C11.3857 11.7467 11.3857 11.8135 11.2521 11.8803C11.1186 12.0138 10.985 12.0806 10.8515 12.1474C10.7179 12.2142 10.5844 12.2142 10.4508 12.281C10.3173 12.281 10.1837 12.281 9.98336 12.2142C9.84981 12.0806 9.71625 12.0138 9.64947 11.8803C9.51592 11.7467 9.44914 11.6132 9.38236 11.4796C9.31558 11.3461 9.2488 11.2125 9.2488 11.0122C9.2488 10.8786 9.2488 10.7451 9.31558 10.5447C9.38236 10.4112 9.44914 10.2776 9.58269 10.1441C9.64947 10.0773 9.71625 10.0105 9.78303 9.94373C9.78303 10.0105 9.84981 9.94373 9.91658 9.94373C9.98336 9.94373 10.0501 9.87695 10.1169 9.87695C10.1837 9.87695 10.2505 9.87695 10.3173 9.87695V10.1441C10.1837 10.1441 10.0501 10.2108 9.91658 10.2108C9.91658 10.2108 9.78303 10.2776 9.71625 10.4112C9.64947 10.478 9.58269 10.6115 9.51592 10.7451C9.44914 10.8786 9.44914 10.9454 9.44914 11.079C9.44914 11.2125 9.51592 11.2793 9.51592 11.4128C9.58269 11.5464 9.64947 11.6132 9.71625 11.68C9.78303 11.7467 9.91658 11.8135 10.0501 11.8803C10.1837 11.9471 10.2505 11.9471 10.384 11.9471C10.5176 11.9471 10.5844 11.9471 10.7179 11.8803C10.8515 11.8135 10.9183 11.7467 10.985 11.68C11.1186 11.5464 11.1854 11.4128 11.1854 11.3461C11.1854 11.2793 11.2521 11.079 11.2521 10.9454H11.5193C11.586 10.9454 11.586 11.079 11.586 11.1457Z" fill="#0B1A3F"/>
<path d="M10.8992 8.89635L10.7013 9.0758L12.2715 10.807L12.4693 10.6275L10.8992 8.89635Z" fill="#0B1A3F"/>
<path d="M13.1219 7.47294L11.9867 8.34106L12.4541 8.94206L13.4558 8.2075L13.5894 8.40783L12.5877 9.14239L13.0551 9.81017L14.1904 8.94206L14.3239 9.14239L12.9884 10.1441L11.6528 8.27428L12.9884 7.27261L13.1219 7.47294Z" fill="#0B1A3F"/>
<path d="M15.5927 8.40783L15.3924 8.54139L14.3239 6.73838L13.6561 7.13905L13.5894 6.87194L15.1253 6.00383L15.2588 6.20416L14.591 6.60483L15.5927 8.40783Z" fill="#0B1A3F"/>
<path d="M17.6628 7.47294L17.3957 7.53972L17.0618 6.67161L15.6595 5.73672L15.9934 5.60316L17.1286 6.40449L17.3957 5.06894L17.7296 4.93538L17.3289 6.60483L17.6628 7.47294Z" fill="#0B1A3F"/>
<path d="M22.0034 5.66994C21.9366 5.80349 21.9366 5.93705 21.8031 6.07061C21.7363 6.20416 21.6027 6.27094 21.4692 6.40449C21.3356 6.47127 21.2021 6.53805 21.0017 6.60483C20.8014 6.60483 20.6678 6.60483 20.5343 6.60483C20.4007 6.53805 20.2672 6.47127 20.1336 6.40449C20.0668 6.27094 19.9333 6.13738 19.8665 6.00383C19.7997 5.87027 19.7329 5.73672 19.7329 5.53638C19.7329 5.40283 19.7329 5.20249 19.7329 5.06894C19.7997 4.93538 19.7997 4.80182 19.9333 4.66827C20.0001 4.53471 20.1336 4.46793 20.2672 4.33438C20.4007 4.2676 20.5343 4.20082 20.7346 4.13404C20.9349 4.13404 21.0685 4.13404 21.2021 4.13404C21.3356 4.20082 21.4692 4.2676 21.6027 4.33438C21.7363 4.40116 21.8031 4.53471 21.8698 4.66827C21.9366 4.80182 22.0034 4.93538 22.0034 5.13571C22.0702 5.33605 22.0702 5.53638 22.0034 5.66994ZM21.6695 4.8686C21.6027 4.73505 21.5359 4.66827 21.4024 4.60149C21.3356 4.53471 21.2021 4.46793 21.0685 4.46793C20.9349 4.46793 20.8014 4.40116 20.6678 4.46793C20.5343 4.46793 20.4007 4.53471 20.3339 4.60149C20.2004 4.66827 20.1336 4.73505 20.0668 4.8686C20.0001 4.93538 19.9333 5.06894 19.9333 5.20249C19.9333 5.33605 19.9333 5.4696 19.9333 5.60316C19.9333 5.73672 20.0001 5.87027 20.0668 5.93705C20.1336 6.07061 20.2004 6.13738 20.3339 6.20416C20.4007 6.27094 20.5343 6.33772 20.6678 6.33772C20.8014 6.33772 20.9349 6.4045 21.0685 6.33772C21.2021 6.33772 21.3356 6.27094 21.4024 6.20416C21.5359 6.13738 21.6027 6.07061 21.6695 5.93705C21.7363 5.87027 21.8031 5.73672 21.8031 5.60316C21.8031 5.4696 21.8031 5.33605 21.8031 5.20249C21.7363 5.13571 21.7363 5.00216 21.6695 4.8686Z" fill="#0B1A3F"/>
<path d="M24.4074 4.2676H23.0051V5.06894H24.2738V5.33605H23.0051L23.0718 6.33772H22.8047L22.738 4.00049H24.4074V4.2676Z" fill="#0B1A3F"/>
<path d="M28.147 6.87194L27.8799 6.80516L27.7463 6.13738L26.5443 5.87027L26.1436 6.40449H25.8765L27.3456 4.33438L27.6127 4.40116L28.147 6.87194ZM27.4124 4.66827L26.6779 5.73672L27.6795 5.93705L27.4124 4.66827Z" fill="#0B1A3F"/>
<path d="M30.6845 7.0055C30.551 7.13905 30.4842 7.20583 30.3506 7.27261C30.1503 7.33939 30.0168 7.33939 29.8832 7.33939C29.7496 7.33939 29.5493 7.33939 29.4157 7.27261L28.6812 7.0055L29.4825 4.8686L30.2171 5.13571C30.2839 5.13571 30.4842 5.26927 30.551 5.33605C30.6845 5.4696 30.7513 5.53638 30.8181 5.66994C30.8849 5.80349 30.9516 5.93705 30.9516 6.07061C30.9516 6.20416 30.9516 6.4045 30.8849 6.53805C30.8181 6.73838 30.7513 6.87194 30.6845 7.0055ZM30.6845 6.13738C30.6845 6.00383 30.6845 5.93705 30.6178 5.80349C30.551 5.66994 30.4842 5.60316 30.4174 5.53638C30.3506 5.4696 30.2171 5.40283 30.0835 5.33605L29.5493 5.13571L28.9483 6.87194L29.4825 7.07227C29.6161 7.13905 29.7496 7.13905 29.8832 7.13905C30.0168 7.13905 30.1503 7.13905 30.2171 7.07227C30.3506 7.0055 30.4174 6.93872 30.4842 6.87194C30.551 6.73838 30.6178 6.67161 30.6178 6.53805C30.6845 6.4045 30.6845 6.27094 30.6845 6.13738Z" fill="#0B1A3F"/>
<path d="M33.0885 8.27428C32.955 8.34106 32.8214 8.40783 32.6879 8.47461C32.5543 8.54139 32.4208 8.54139 32.2204 8.47461C32.0869 8.47461 31.8865 8.40783 31.753 8.34106L31.0852 7.94039L32.2204 5.93705L32.8882 6.33772C33.0218 6.4045 33.1553 6.53805 33.2889 6.67161C33.4224 6.80516 33.4892 6.93872 33.4892 7.07227C33.556 7.20583 33.556 7.33939 33.556 7.53972C33.556 7.67328 33.4892 7.80683 33.4224 8.00717C33.2889 8.00717 33.1553 8.14072 33.0885 8.27428ZM33.2221 7.40616C33.2221 7.27261 33.2221 7.13905 33.2221 7.07227C33.2221 6.93872 33.1553 6.87194 33.0218 6.73838C32.955 6.67161 32.8214 6.53805 32.6879 6.47127L32.2204 6.20416L31.3523 7.80683L31.8198 8.07394C31.9533 8.14072 32.0869 8.2075 32.2204 8.2075C32.354 8.2075 32.4875 8.2075 32.5543 8.2075C32.6879 8.2075 32.7546 8.14072 32.8882 8.07394C32.955 8.00717 33.0885 7.87361 33.0885 7.80683C33.1553 7.67328 33.2221 7.53972 33.2221 7.40616Z" fill="#0B1A3F"/>
<path d="M34.6208 7.3839L33.283 9.30043L33.502 9.45332L34.8399 7.5368L34.6208 7.3839Z" fill="#0B1A3F"/>
<path d="M35.6261 10.8786C35.5593 10.8786 35.4925 10.8786 35.359 10.8118C35.2922 10.8118 35.2254 10.7451 35.0919 10.7451C35.0251 10.6783 34.9583 10.6783 34.8248 10.6115C34.6912 10.478 34.6244 10.4112 34.5577 10.2108C34.4909 10.0773 34.4241 9.94373 34.4241 9.81017C34.4241 9.67661 34.4241 9.54306 34.4909 9.34273C34.5577 9.20917 34.6244 9.07561 34.758 8.94206C34.8915 8.8085 34.9583 8.74172 35.1587 8.67495C35.2922 8.60817 35.4258 8.54139 35.5593 8.54139C35.6929 8.54139 35.8264 8.54139 36.0268 8.60817C36.1603 8.67495 36.2939 8.74172 36.4274 8.87528C36.4942 8.94206 36.561 9.00884 36.6278 9.07561C36.6945 9.14239 36.6945 9.20917 36.7613 9.27595C36.8281 9.34273 36.8281 9.4095 36.8281 9.47628C36.8281 9.54306 36.8281 9.60984 36.8949 9.67662H36.6278C36.6278 9.54306 36.561 9.4095 36.561 9.27595C36.4942 9.14239 36.4274 9.07561 36.2939 8.94206C36.2271 8.87528 36.0935 8.8085 35.96 8.74172C35.8264 8.67495 35.7597 8.67495 35.6261 8.74172C35.4925 8.74172 35.4258 8.8085 35.2922 8.87528C35.1587 8.94206 35.0919 9.00884 35.0251 9.14239C34.9583 9.27595 34.8915 9.34273 34.8248 9.47628C34.758 9.60984 34.758 9.74339 34.758 9.81017C34.758 9.94373 34.758 10.0105 34.8248 10.1441C34.8915 10.2776 34.9583 10.3444 35.0251 10.4112C35.1587 10.5447 35.2922 10.6115 35.359 10.6115C35.4925 10.6115 35.6261 10.6783 35.7597 10.6783V10.9454C35.7597 10.8786 35.6929 10.8786 35.6261 10.8786Z" fill="#0B1A3F"/>
<path d="M36.4942 12.1474L36.3607 11.9471L37.8965 10.6115L37.3623 10.0105L37.5627 9.81017L38.7647 11.2125L38.5643 11.3461L38.0301 10.7451L36.4942 12.1474Z" fill="#0B1A3F"/>
<path d="M39.2561 11.7979L37.3663 13.1731L37.5234 13.3891L39.4133 12.0139L39.2561 11.7979Z" fill="#0B1A3F"/>
<path d="M39.6328 15.4863C39.4992 15.4863 39.2989 15.4863 39.1653 15.4863C39.0318 15.4195 38.8982 15.3527 38.7647 15.286C38.6311 15.2192 38.4976 15.0856 38.4308 14.8853C38.364 14.7517 38.2972 14.5514 38.2972 14.4179C38.2972 14.2843 38.2972 14.084 38.364 13.9504C38.4308 13.8168 38.4976 13.6833 38.5643 13.5497C38.6311 13.4162 38.7647 13.3494 38.8982 13.2826C39.0318 13.2158 39.1653 13.1491 39.3657 13.1491C39.4992 13.1491 39.6996 13.1491 39.8331 13.1491C39.9667 13.2158 40.1002 13.2826 40.2338 13.3494C40.3673 13.4162 40.5009 13.5497 40.5677 13.7501C40.6344 13.8836 40.7012 14.084 40.7012 14.2175C40.7012 14.3511 40.7012 14.5514 40.6344 14.685C40.5677 14.8185 40.5009 14.9521 40.4341 15.0856C40.3673 15.2192 40.2338 15.286 40.1002 15.3527C39.8999 15.4195 39.7663 15.4863 39.6328 15.4863ZM40.2338 14.8853C40.3006 14.8185 40.3673 14.685 40.4341 14.5514C40.5009 14.4179 40.5009 14.3511 40.5009 14.2175C40.5009 14.084 40.4341 13.9504 40.3673 13.8836C40.3006 13.7501 40.2338 13.6833 40.1002 13.6165C40.0334 13.5497 39.8999 13.483 39.7663 13.483C39.6328 13.483 39.566 13.483 39.4324 13.483C39.2989 13.483 39.1653 13.5497 39.0986 13.6165C38.965 13.6833 38.8982 13.7501 38.8314 13.8836C38.7647 13.9504 38.6979 14.084 38.6311 14.2175C38.5643 14.3511 38.5643 14.4179 38.5643 14.5514C38.5643 14.685 38.6311 14.8185 38.6979 14.8853C38.7647 15.0189 38.8314 15.0856 38.965 15.1524C39.0318 15.2192 39.1653 15.286 39.2989 15.286C39.4324 15.286 39.4992 15.286 39.6328 15.286C39.7663 15.286 39.8999 15.2192 39.9667 15.1524C40.0334 15.0856 40.1002 15.0189 40.2338 14.8853Z" fill="#0B1A3F"/>
<path d="M42.0368 17.2225L42.1036 17.4896L39.9667 18.291L39.8999 18.0906L41.1687 16.0205L39.3657 16.6883L39.2989 16.488L41.4358 15.6866L41.5026 15.887L40.3006 17.8903L42.0368 17.2225Z" fill="#0B1A3F"/>
<path d="M41.1687 20.9621L42.2371 19.9604L40.4341 20.2275L40.3673 19.9604L42.6378 19.6933L42.7046 19.9604L41.5693 20.8953L42.9049 21.6299L42.9717 21.8302L40.6344 22.1641V21.897L42.5042 21.6299L41.1687 20.9621Z" fill="#0B1A3F"/>
<path d="M42.7046 24.5681V23.1658L41.97 23.099L41.9032 24.3678H41.7029V23.099H40.9016V24.5013H40.6344L40.7012 22.8319L42.9717 22.8987V24.5681H42.7046Z" fill="#0B1A3F"/>
<path d="M40.9683 27.1057C40.8348 27.0389 40.7012 26.9053 40.6344 26.7718C40.5677 26.6382 40.5009 26.5047 40.4341 26.3711C40.3673 26.2375 40.3673 26.0372 40.4341 25.8369L40.5677 25.0355L42.8381 25.4362L42.7046 26.2375C42.7046 26.4379 42.6378 26.5714 42.571 26.705C42.5042 26.8386 42.3707 26.9721 42.2371 27.0389C42.1036 27.1057 41.97 27.1724 41.8364 27.2392C41.7029 27.306 41.5026 27.306 41.369 27.2392C41.2354 27.2392 41.1019 27.1724 40.9683 27.1057ZM41.7697 26.9721C41.9032 26.9721 41.97 26.9053 42.1036 26.8386C42.1703 26.7718 42.3039 26.705 42.3707 26.5714C42.4375 26.4379 42.5042 26.3043 42.5042 26.1708L42.571 25.6365L40.768 25.3694L40.7012 25.9037C40.7012 26.0372 40.7012 26.1708 40.7012 26.3043C40.7012 26.4379 40.768 26.5714 40.8348 26.6382C40.9016 26.705 40.9683 26.8386 41.1019 26.9053C41.2354 26.9721 41.3022 27.0389 41.4358 27.0389C41.5693 27.0389 41.7029 26.9721 41.7697 26.9721Z" fill="#0B1A3F"/>
<path d="M40.054 27.6285L39.9826 27.8859L42.2347 28.5111L42.3062 28.2537L40.054 27.6285Z" fill="#0B1A3F"/>
<path d="M39.3657 30.3778C39.3657 30.311 39.2989 30.2442 39.2989 30.1107C39.2989 30.0439 39.2989 29.9771 39.2989 29.8436C39.2989 29.7768 39.3657 29.6432 39.3657 29.5764C39.4324 29.4429 39.4992 29.3093 39.6328 29.1758C39.7663 29.0422 39.8331 28.9754 40.0334 28.9087C40.167 28.8419 40.3006 28.8419 40.5009 28.8419C40.6344 28.8419 40.8348 28.8419 40.9683 28.9087C41.1019 28.9754 41.2354 29.0422 41.369 29.1758C41.5026 29.3093 41.5693 29.3761 41.6361 29.5097C41.7029 29.6432 41.7029 29.7768 41.7697 29.9771C41.7697 30.1107 41.7697 30.311 41.7029 30.4446C41.6361 30.5113 41.6361 30.6449 41.5693 30.7117C41.5026 30.7785 41.5026 30.8452 41.4358 30.912C41.369 30.9788 41.3022 31.0456 41.2354 31.0456C41.1687 31.0456 41.1019 31.1123 41.0351 31.1791L40.9016 30.912C41.0351 30.8452 41.1019 30.7785 41.2354 30.7117C41.3022 30.6449 41.4358 30.5113 41.4358 30.3778C41.5026 30.2442 41.5026 30.1107 41.5026 30.0439C41.5026 29.9103 41.5026 29.8436 41.4358 29.71C41.369 29.5764 41.3022 29.5097 41.2354 29.4429C41.1687 29.3761 41.0351 29.3093 40.9016 29.2426C40.768 29.1758 40.6344 29.1758 40.5009 29.1758C40.3673 29.1758 40.2338 29.1758 40.167 29.2426C40.0334 29.3093 39.9667 29.3761 39.8999 29.4429C39.8331 29.5097 39.7663 29.6432 39.6996 29.7768C39.6328 29.9103 39.6328 30.0439 39.6328 30.1775C39.6328 30.311 39.6996 30.4446 39.7663 30.5781L39.566 30.6449C39.3657 30.5113 39.3657 30.4446 39.3657 30.3778Z" fill="#0B1A3F"/>
<path d="M38.7993 30.9145L38.6763 31.1517L40.7513 32.2273L40.8742 31.9901L38.7993 30.9145Z" fill="#0B1A3F"/>
<path d="M39.3657 34.4512L39.2321 34.6516L37.2955 33.3828L37.4291 33.2492L39.8331 33.0489L38.2304 31.9805L38.364 31.7801L40.3006 33.0489L40.167 33.2492L37.8298 33.4496L39.3657 34.4512Z" fill="#0B1A3F"/>
<path d="M37.2955 36.5214L38.2304 35.5197L37.6294 34.9855L36.8281 35.9204L36.6278 35.7868L37.4959 34.8519L36.8949 34.3177L35.96 35.3194L35.7597 35.1858L36.8949 33.917L38.5643 35.4529L37.4959 36.7217L37.2955 36.5214Z" fill="#0B1A3F"/>
<path d="M16.3273 37.3895L17.1954 37.7234L17.2622 42.932L16.2605 42.5314V41.3961L14.3907 40.6616L13.5894 41.4629L12.5877 41.0623L16.3273 37.3895ZM16.3273 40.3945V38.725L15.192 39.927L16.3273 40.3945Z" fill="#0B1A3F"/>
<path d="M18.3974 42.5314L19.1319 41.9304C19.4658 42.331 19.8665 42.6649 20.4007 42.7317C20.8014 42.7985 21.1353 42.6649 21.1353 42.3978C21.2021 42.1307 21.0685 41.9972 20.2672 41.6633C19.3991 41.2626 18.7981 40.9287 18.9316 39.9938C19.0652 39.1257 19.8665 38.725 20.8014 38.8586C21.4692 38.9921 22.0034 39.2593 22.4041 39.7267L21.7363 40.3945C21.4024 40.0606 21.0017 39.7935 20.6011 39.7267C20.2004 39.6599 20.0001 39.7935 19.9333 40.0606C19.8665 40.3945 20.0668 40.528 20.8682 40.8619C21.8031 41.2626 22.2705 41.73 22.1369 42.5314C22.0034 43.4663 21.2021 43.8669 20.2004 43.6666C19.5994 43.4663 18.8648 43.1324 18.3974 42.5314Z" fill="#0B1A3F"/>
<path d="M24.8081 39.0589L25.743 38.9921L28.2137 43.533L27.1453 43.5998L26.6111 42.5981L24.6077 42.7985L24.2738 43.8669L23.2054 44.0005L24.8081 39.0589ZM26.1436 41.73L25.3423 40.2609L24.8748 41.8636L26.1436 41.73Z" fill="#0B1A3F"/>
<path d="M27.9466 38.725L28.9483 38.2576L30.9516 39.5264L31.2188 37.1891L32.2204 36.7217L34.2238 40.9955L33.2889 41.3961L31.9533 38.6583L31.6194 41.0623L29.5493 39.7935L30.8849 42.5981L29.95 42.9988L27.9466 38.725Z" fill="#0B1A3F"/>
<path d="M20.0668 36.4546C21.0685 35.1858 21.4692 34.4512 24.0735 34.2509C25.2755 34.1841 25.3423 34.2509 25.8097 34.1841C28.0802 33.917 27.9466 33.1157 28.0802 32.8486C28.0802 31.513 25.6094 31.5798 24.2738 31.513V29.9771C27.4124 30.1107 29.2822 30.2442 29.5493 32.5815C29.4825 35.0522 27.1453 35.3194 25.8765 35.3861C25.0752 35.3861 24.2071 35.1858 24.0067 35.1858C22.8715 35.1858 20.9349 35.9204 20.5343 36.2542L20.0668 36.4546Z" fill="#0B1A3F"/>
<path d="M22.5376 30.0439V31.4462C17.7964 31.4462 16.6612 29.0422 16.6612 27.907C16.9283 25.7701 18.9984 25.1691 20.6678 24.9688C24.1403 24.5681 25.8765 24.301 27.6795 23.7C29.2154 23.099 28.6812 21.7634 27.6795 21.4295C26.5443 21.0956 25.2087 21.0289 24.6077 21.0956L24.6745 19.0923C28.2137 19.2259 30.3506 19.8936 31.2855 21.6299C31.6862 23.099 30.8849 24.7684 28.6812 25.3694C25.4091 25.9037 21.5359 26.4379 21.0685 26.5047C18.7313 27.0389 18.8648 28.9087 20.0001 29.3761C21.0685 29.9771 21.5359 29.9103 22.3373 30.0439H22.5376Z" fill="#0B1A3F"/>
<path d="M22.3373 18.6916V20.7618C19.6662 20.5614 18.0635 18.892 17.9967 18.8252C16.5944 17.4896 15.7263 15.8202 17.3957 14.0172C19.0652 12.9487 20.2672 12.6148 22.0702 12.5481C24.2738 12.6148 26.344 13.6165 26.4775 13.6833C26.6779 13.7501 26.5443 13.8836 26.4775 13.9504C25.9433 14.3511 25.2755 14.7517 25.142 14.8185L25.0752 14.9521C25.5426 15.0856 25.9433 15.286 26.0101 15.3527C25.0752 15.887 23.0051 15.7534 22.8715 15.6866C22.1369 15.5531 21.1353 14.9521 21.0017 14.8853C20.2004 14.7517 19.1319 15.286 18.9984 15.8202C18.7981 16.6215 18.6645 17.7567 20.6678 18.2242L22.3373 18.6916Z" fill="#0B1A3F"/>
<path d="M22.5376 12.2142C23.5393 12.3477 24.4742 12.4813 24.6745 12.5481V11.5464C25.0084 10.8118 25.8097 10.478 26.0768 10.478C25.2755 9.94373 24.3406 10.0105 23.6728 10.478C22.2037 9.87695 21.7363 10.2108 21.0017 10.5447C22.137 10.8118 22.4708 11.2793 22.5376 11.6132V12.2142Z" fill="#0B1A3F"/>
<path d="M22.6044 15.9537C23.4057 16.1541 24.1403 16.0873 24.4742 16.0873L24.1403 24.2342L22.8047 24.4345L22.6044 15.9537Z" fill="#0B1A3F"/>
<path d="M22.8715 26.4379L24.0735 26.3043L23.7396 33.917C23.5393 33.917 23.0051 33.9838 22.9383 34.0506L22.8715 26.4379Z" fill="#0B1A3F"/>
<path d="M23.0718 35.5197C23.2054 35.4529 23.6061 35.3861 23.6728 35.3861L23.6061 37.0556C23.5393 37.3895 23.1386 37.3895 23.0718 37.0556V35.5197Z" fill="#0B1A3F"/>
<path d="M9.98336 22.0305H9.04847V22.5648H9.84981V22.7651H9.04847V23.3661H8.91491V21.897H9.98336V22.0305Z" fill="#0B1A3F"/>
<path d="M11.7864 22.9654C11.7196 23.0322 11.7196 23.1658 11.6528 23.2325C11.586 23.2993 11.5193 23.3661 11.3857 23.4329C11.3189 23.4997 11.1854 23.4997 11.0518 23.4997C10.9183 23.4997 10.8515 23.4997 10.7179 23.4329C10.6511 23.3661 10.5176 23.3661 10.4508 23.2325C10.384 23.1658 10.3173 23.099 10.3173 22.9654C10.2505 22.8987 10.2505 22.7651 10.2505 22.6983C10.2505 22.5648 10.2505 22.498 10.3173 22.4312C10.384 22.3644 10.384 22.2309 10.4508 22.1641C10.5176 22.0973 10.5844 22.0305 10.7179 21.9638C10.7847 21.897 10.9183 21.897 11.0518 21.897C11.1854 21.897 11.2521 21.897 11.3857 21.9638C11.4525 22.0305 11.586 22.0305 11.6528 22.1641C11.7196 22.2309 11.7864 22.2976 11.7864 22.4312C11.8531 22.498 11.8531 22.6315 11.8531 22.6983C11.8531 22.7651 11.8531 22.8319 11.7864 22.9654ZM11.6528 22.4312C11.6528 22.3644 11.586 22.2976 11.5193 22.2309C11.4525 22.1641 11.3857 22.1641 11.3189 22.0973C11.2521 22.0305 11.1854 22.0305 11.1186 22.0305C11.0518 22.0305 10.985 22.0305 10.8515 22.0973C10.7847 22.0973 10.7179 22.1641 10.6511 22.2309C10.5844 22.2976 10.5844 22.3644 10.5176 22.4312C10.5176 22.498 10.5176 22.5648 10.5176 22.6315C10.5176 22.6983 10.5176 22.7651 10.5844 22.8987C10.5844 22.9654 10.6511 23.0322 10.7179 23.099C10.7847 23.1658 10.8515 23.1658 10.9183 23.2325C10.985 23.2325 11.0518 23.2993 11.1854 23.2993C11.2521 23.2993 11.3189 23.2993 11.4525 23.2325C11.5193 23.2325 11.586 23.1658 11.6528 23.099C11.7196 23.0322 11.7196 22.9654 11.7864 22.8987C11.7864 22.8319 11.8531 22.7651 11.8531 22.6315C11.7196 22.5648 11.6528 22.498 11.6528 22.4312Z" fill="#0B1A3F"/>
<path d="M13.5894 22.7651C13.5894 22.8987 13.5894 22.9654 13.5226 23.0322C13.5226 23.099 13.4558 23.1658 13.389 23.2325C13.389 23.2993 13.3223 23.3661 13.1887 23.3661C13.1219 23.3661 13.0551 23.4329 12.9216 23.4329C12.8548 23.4329 12.7213 23.4329 12.6545 23.3661C12.5877 23.3661 12.5209 23.2993 12.4541 23.2325C12.3874 23.1658 12.3874 23.099 12.3206 23.0322C12.3206 22.9654 12.2538 22.8319 12.2538 22.7651V21.897H12.5209V22.7651C12.5209 22.8987 12.5877 23.0322 12.6545 23.1658C12.7213 23.2325 12.8548 23.2993 12.9884 23.2993C13.1219 23.2993 13.2555 23.2325 13.3223 23.1658C13.389 23.099 13.4558 22.9654 13.4558 22.7651V21.897H13.6561V22.7651H13.5894Z" fill="#0B1A3F"/>
<path d="M15.192 21.897H15.3924V23.3661H15.2588L14.3239 22.1641V23.3661H14.1236V21.897H14.2572L15.192 23.099V21.897Z" fill="#0B1A3F"/>
<path d="M17.1954 22.9654C17.1286 23.0322 17.1286 23.1658 17.0618 23.2325C16.995 23.2993 16.9283 23.3661 16.7947 23.3661C16.6612 23.3661 16.5944 23.3661 16.4608 23.3661H15.9266V21.897H16.4608C16.5944 21.897 16.6612 21.897 16.7947 21.9638C16.8615 22.0305 16.995 22.0305 17.0618 22.0973C17.1286 22.1641 17.1954 22.2309 17.1954 22.3644C17.2622 22.4312 17.2622 22.5648 17.2622 22.6315C17.2622 22.7651 17.2622 22.8319 17.1954 22.9654ZM17.0618 22.4312C17.0618 22.3644 16.995 22.2976 16.9283 22.2309C16.8615 22.1641 16.7947 22.1641 16.7279 22.0973C16.6612 22.0973 16.5944 22.0305 16.4608 22.0305H16.1269V23.2325H16.4608C16.5276 23.2325 16.6612 23.2325 16.7279 23.1658C16.7947 23.1658 16.8615 23.099 16.9283 23.0322C16.995 22.9654 16.995 22.8987 17.0618 22.8319C17.0618 22.7651 17.1286 22.6983 17.1286 22.6315C17.0618 22.5648 17.0618 22.498 17.0618 22.4312Z" fill="#0B1A3F"/>
<path d="M18.8648 22.0305H17.9299V22.5648H18.7313V22.6983H17.9299V23.2325H18.8648V23.3661H17.7296V21.897H18.8648V22.0305Z" fill="#0B1A3F"/>
<path d="M20.6011 22.9654C20.5343 23.0322 20.5343 23.1658 20.4675 23.2325C20.4007 23.2993 20.3339 23.3661 20.2004 23.3661C20.0668 23.3661 19.9333 23.3661 19.8665 23.3661H19.3323V21.897H19.8665C20.0001 21.897 20.0668 21.897 20.2004 21.9638C20.2672 22.0305 20.4007 22.0305 20.4675 22.0973C20.5343 22.1641 20.6011 22.2309 20.6011 22.3644C20.6678 22.4312 20.6678 22.5648 20.6678 22.6315C20.6678 22.7651 20.6011 22.8319 20.6011 22.9654ZM20.4007 22.4312C20.4007 22.3644 20.3339 22.2976 20.2672 22.2309C20.2004 22.1641 20.1336 22.1641 20.0668 22.0973C20.0001 22.0973 19.9333 22.0305 19.7997 22.0305H19.4658V23.2325H19.8665C19.9333 23.2325 20.0668 23.2325 20.1336 23.1658C20.2004 23.1658 20.2672 23.099 20.3339 23.0322C20.4007 22.9654 20.4007 22.8987 20.4675 22.8319C20.4675 22.7651 20.5343 22.6983 20.5343 22.6315C20.4675 22.5648 20.4675 22.498 20.4007 22.4312Z" fill="#0B1A3F"/>
<path d="M32.8882 21.897H33.0218V23.3661H32.8214V22.0305L32.5543 22.1641V22.0305L32.8882 21.897Z" fill="#0B1A3F"/>
<path d="M34.5577 22.8987C34.5577 22.9654 34.4909 23.099 34.4241 23.1658C34.3573 23.2325 34.2905 23.2993 34.2238 23.3661C34.157 23.4329 34.0902 23.4329 33.9566 23.4329C33.8899 23.4329 33.7563 23.4329 33.6895 23.3661C33.6228 23.2993 33.556 23.2993 33.4892 23.2325L33.556 23.099C33.6228 23.1658 33.6895 23.1658 33.7563 23.2325C33.8231 23.2325 33.8899 23.2993 33.9566 23.2993C34.0234 23.2993 34.0902 23.2993 34.157 23.2325C34.2238 23.2325 34.2905 23.1658 34.2905 23.099C34.3573 23.0322 34.3573 22.9654 34.3573 22.8987C34.3573 22.8319 34.3573 22.6983 34.3573 22.6315C34.2905 22.6983 34.2905 22.7651 34.2238 22.8319C34.157 22.8987 34.0902 22.8987 33.9566 22.8987C33.8899 22.8987 33.8231 22.8987 33.7563 22.8319C33.6895 22.8319 33.6228 22.7651 33.6228 22.7651C33.556 22.6983 33.556 22.6983 33.4892 22.6315C33.4892 22.5648 33.4224 22.498 33.4224 22.4312C33.4224 22.3644 33.4224 22.2976 33.4892 22.2309C33.4892 22.1641 33.556 22.0973 33.6228 22.0973C33.6895 22.0305 33.7563 22.0305 33.8231 21.9638C33.8899 21.9638 33.9566 21.897 34.0234 21.897C34.0902 21.897 34.157 21.897 34.2238 21.9638C34.2905 21.9638 34.3573 22.0305 34.4241 22.0973L34.4909 22.1641C34.4909 22.2309 34.5577 22.2309 34.5577 22.2976C34.5577 22.3644 34.5576 22.3644 34.6244 22.4312C34.6244 22.498 34.6244 22.5648 34.6244 22.6315C34.6244 22.6983 34.6244 22.8319 34.5577 22.8987ZM34.3573 22.2309C34.3573 22.1641 34.2905 22.1641 34.2905 22.0973C34.2905 22.0973 34.2238 22.0305 34.157 22.0305C34.0902 22.0305 34.0902 22.0305 34.0234 22.0305C33.9566 22.0305 33.8899 22.0305 33.8899 22.0305C33.8231 22.0305 33.8231 22.0973 33.7563 22.0973C33.7563 22.0973 33.6895 22.1641 33.6895 22.2309C33.6895 22.2976 33.6895 22.2976 33.6895 22.3644C33.6895 22.4312 33.6895 22.4312 33.6895 22.498C33.6895 22.5648 33.7563 22.5648 33.7563 22.6315C33.7563 22.6315 33.8231 22.6983 33.8899 22.6983C33.9566 22.6983 33.9566 22.6983 34.0234 22.6983C34.0902 22.6983 34.157 22.6983 34.157 22.6983C34.2238 22.6983 34.2238 22.6315 34.2905 22.6315C34.2905 22.6315 34.3573 22.5648 34.3573 22.498C34.3573 22.4312 34.3573 22.4312 34.3573 22.3644C34.4241 22.2976 34.4241 22.2976 34.3573 22.2309Z" fill="#0B1A3F"/>
<path d="M35.1587 21.897H36.0268V22.0305H35.2922V22.498C35.359 22.498 35.359 22.4312 35.4258 22.4312C35.4925 22.4312 35.4925 22.4312 35.5593 22.4312C35.6261 22.4312 35.6929 22.4312 35.7597 22.4312C35.8264 22.4312 35.8932 22.498 35.8932 22.498C35.96 22.5648 35.96 22.5648 36.0268 22.6315C36.0268 22.6983 36.0935 22.7651 36.0935 22.8319C36.0935 22.8987 36.0935 22.9654 36.0268 23.0322C36.0268 23.099 35.96 23.1658 35.8932 23.1658C35.8264 23.2325 35.7597 23.2325 35.6929 23.2993C35.6261 23.2993 35.5593 23.3661 35.4925 23.3661C35.359 23.3661 35.2922 23.3661 35.2254 23.2993C35.1587 23.2325 35.0251 23.1658 34.9583 23.099L35.0919 22.9654C35.1587 23.0322 35.2254 23.099 35.2922 23.099C35.359 23.1658 35.4258 23.1658 35.4925 23.1658C35.5593 23.1658 35.6261 23.1658 35.6261 23.1658C35.6929 23.1658 35.6929 23.099 35.7597 23.099C35.7597 23.099 35.8264 23.0322 35.8264 22.9654C35.8264 22.8987 35.8264 22.8987 35.8264 22.8319C35.8264 22.7651 35.8264 22.7651 35.8264 22.6983C35.8264 22.6315 35.7597 22.6315 35.7597 22.6315C35.7597 22.6315 35.6929 22.5648 35.6261 22.5648C35.5593 22.5648 35.5593 22.5648 35.4925 22.5648C35.4258 22.5648 35.359 22.5648 35.2922 22.5648C35.2922 22.6315 35.2254 22.6983 35.2254 22.6983L35.0919 22.6315L35.1587 21.897Z" fill="#0B1A3F"/>
<path d="M37.4291 21.897V22.8987H37.6294V23.0322H37.4291V23.3661H37.2288V23.0322H36.4274L36.3607 22.8987L37.2288 21.897H37.4291ZM37.2288 22.0973L36.6278 22.8987H37.2288V22.0973Z" fill="#0B1A3F"/>
<path d="M7.06869 26.1647L4.76956 26.5847L4.81756 26.8475L7.11669 26.4275L7.06869 26.1647Z" fill="#0B1A3F"/>
<path d="M6.57769 23.7C6.64446 23.7668 6.71124 23.8335 6.71124 23.9003C6.77802 23.9671 6.77802 24.0339 6.8448 24.1007C6.8448 24.1674 6.91157 24.301 6.91157 24.3678C6.91157 24.5013 6.91158 24.7017 6.8448 24.8352C6.77802 24.9688 6.71124 25.1023 6.64446 25.2359C6.51091 25.3694 6.37735 25.4362 6.2438 25.503C6.11024 25.5698 5.97668 25.6365 5.77635 25.6365C5.64279 25.6365 5.44246 25.6365 5.3089 25.5698C5.17535 25.5698 5.04179 25.503 4.90824 25.3694C4.77468 25.2359 4.7079 25.1691 4.64112 25.0355C4.57435 24.902 4.50757 24.7684 4.50757 24.5681C4.50757 24.4345 4.50757 24.3678 4.50757 24.301C4.50757 24.2342 4.50757 24.1674 4.57435 24.0339C4.57435 23.9671 4.64112 23.9003 4.64112 23.8335C4.7079 23.7668 4.7079 23.7 4.77468 23.6332L4.97501 23.7668C4.90824 23.9003 4.84146 23.9671 4.77468 24.1007C4.7079 24.2342 4.7079 24.3678 4.7079 24.5013C4.7079 24.6349 4.77468 24.7684 4.77468 24.8352C4.84146 24.9688 4.90824 25.0355 4.97501 25.1023C5.17535 25.2359 5.24213 25.3027 5.37568 25.3694C5.50924 25.3694 5.64279 25.3694 5.77635 25.3694C5.90991 25.3694 6.04346 25.3027 6.17702 25.3027C6.31057 25.2359 6.37735 25.1691 6.44413 25.1023C6.51091 25.0355 6.57769 24.902 6.64446 24.8352C6.71124 24.7017 6.71124 24.6349 6.71124 24.5013C6.71124 24.3678 6.64446 24.2342 6.57769 24.1007C6.51091 23.9671 6.44413 23.9003 6.31057 23.7668L6.44413 23.5664C6.51091 23.5664 6.51091 23.6332 6.57769 23.7Z" fill="#0B1A3F"/>
<path d="M7.31224 27.306L6.64446 28.1741L6.8448 28.7751L7.71291 28.508L7.77969 28.7751L5.57602 29.4429L5.3089 28.508C5.17535 28.3744 5.17535 28.2409 5.17535 28.1741C5.17535 28.0406 5.17535 27.9738 5.24213 27.907C5.3089 27.8402 5.3089 27.7734 5.37568 27.7067C5.44246 27.6399 5.50924 27.5731 5.64279 27.5731C5.70957 27.5731 5.84313 27.5063 5.90991 27.5731C5.97668 27.5731 6.04346 27.5731 6.11024 27.6399C6.17702 27.7067 6.2438 27.7067 6.31057 27.7734C6.37735 27.8402 6.44413 27.907 6.44413 27.9738L7.17869 26.9721L7.31224 27.306ZM5.44246 27.9738C5.37568 28.1073 5.37568 28.2409 5.44246 28.4412L5.64279 29.109L6.51091 28.8419L6.31057 28.1741C6.31057 28.1073 6.2438 28.0406 6.2438 27.9738C6.17702 27.907 6.17702 27.8402 6.11024 27.8402C6.04346 27.7734 5.97668 27.7734 5.90991 27.7734C5.84313 27.7734 5.77635 27.7734 5.70957 27.7734C5.57602 27.7734 5.50924 27.8402 5.44246 27.9738Z" fill="#0B1A3F"/>
</svg>
