<svg width="232" height="48" viewBox="0 0 232 48" fill="none" xmlns="http://www.w3.org/2000/svg">
<path d="M218.311 13.5112C224.628 13.5112 228.411 17.545 228.411 24.1116C228.411 24.8815 228.331 25.736 228.331 25.8168H213.704C213.827 28.5112 216.113 30.4742 218.858 30.4742C221.437 30.4742 222.849 29.1848 223.515 27.3564L228.123 28.7344C227.083 32.2679 223.839 35.2202 218.808 35.2202C213.196 35.2202 208.25 31.1863 208.25 24.2887C208.25 17.7452 213.073 13.5112 218.311 13.5112ZM102.896 14.1424V25.94C102.896 28.2263 104.05 30.0585 106.637 30.0585C109.089 30.0585 110.486 28.3957 110.486 26.0246V14.1424H116.013V30.8976C116.016 32.1335 116.085 33.3683 116.221 34.5966H110.948C110.834 33.867 110.779 33.1295 110.782 32.3911C109.658 34.3156 107.287 35.1355 105.128 35.1355C100.178 35.1355 97.3528 31.5212 97.3528 27.0524V14.1424H102.896ZM159.528 4.50039L159.531 30.8976C159.531 32.2679 159.616 33.7652 159.697 34.5966H154.42C154.283 33.8136 154.214 33.0204 154.212 32.2256C153.296 33.8499 151.217 35.097 148.473 35.097C142.653 35.097 138.496 30.5243 138.496 24.3195C138.496 18.3341 142.53 13.6382 148.307 13.6382C151.841 13.6382 153.504 15.0932 154.081 16.1709V4.50039H159.528ZM202.665 8.03388V14.1424H206.783V19.05H202.665V27.6105C202.665 29.4003 203.496 29.9815 205.078 29.9815C205.651 29.9879 206.222 29.9325 206.783 29.816V34.408C205.785 34.7755 204.725 34.9454 203.662 34.9084C199.674 34.9084 197.18 32.5373 197.18 28.5881V19.05H194.504V14.1424C196.664 14.1424 197.661 12.7298 197.661 10.9015V8.03388H202.665ZM85.0087 5.12395C90.7439 5.12395 93.9849 8.48807 93.9849 13.0608C93.9849 16.0978 92.1565 18.5497 89.7046 19.3811C92.5722 20.0893 94.9009 22.7067 94.9009 26.3634C94.9009 31.144 91.3251 34.5966 85.7978 34.5966H74.4121V5.12395H85.0087ZM125.99 14.1424V34.5966H120.467V14.1424H125.99ZM135.971 4.50039V34.5966H130.444V4.50039H135.971ZM169.204 4.50039V21.7521L176.271 14.1424H183.508L175.317 22.749L183.673 34.5966H176.899L171.51 26.7791L169.2 29.1925V34.5812H163.677V4.50039H169.204ZM191.375 14.1424V34.5966H185.844V14.1424H191.375ZM149.139 18.592C146.314 18.592 144.081 20.6705 144.081 24.3272C144.081 27.9838 146.229 30.147 149.139 30.147C151.964 30.147 154.17 27.9877 154.17 24.2887C154.17 20.5897 151.964 18.592 149.139 18.592ZM84.8047 22.0408H80.0588V29.816H84.7162C87.5029 29.816 89.1658 28.361 89.1658 25.99C89.1658 23.6189 87.6685 22.0408 84.8047 22.0408ZM213.819 22.0408H222.965C222.884 20.0046 221.552 18.0108 218.392 18.0108C216.038 17.9236 214.029 19.6948 213.819 22.0408ZM84.1003 9.94304H80.0588V17.3025H84.135C86.7524 17.3025 88.3344 15.8476 88.3344 13.6035C88.3344 11.3595 86.8794 9.94304 84.1003 9.94304ZM123.211 4C125.088 4.00024 126.611 5.51627 126.621 7.39264C126.631 9.26901 125.123 10.8008 123.247 10.8204C121.37 10.8401 119.831 9.34037 119.801 7.46421C119.785 6.55013 120.138 5.66818 120.779 5.01669C121.421 4.3652 122.297 3.99884 123.211 4ZM188.588 4C190.465 4.00024 191.988 5.51627 191.998 7.39264C192.008 9.26901 190.5 10.8008 188.624 10.8204C186.747 10.8401 185.208 9.34037 185.178 7.46421C185.163 6.55013 185.515 5.66818 186.157 5.01669C186.798 4.3652 187.674 3.99884 188.588 4Z" fill="black"/>
<path d="M3.58789 5.50867L22.8335 14.939V34.1846L3.58789 24.7542V5.50867Z" fill="#30F2A2"/>
<path d="M42.2715 5.50854L61.3246 14.9389L42.2715 24.7541V5.50854Z" fill="#30F2A2"/>
<path d="M42.272 5.50854L22.834 14.9389V34.1844L42.272 24.7541V5.50854Z" fill="#14CC80"/>
<path d="M61.3246 14.9393L42.2715 24.7546V44.0001L61.3246 34.1849V14.9393Z" fill="#14CC80"/>
</svg>
