<svg width="160" height="56" viewBox="0 0 160 56" fill="none" xmlns="http://www.w3.org/2000/svg">
<path fill-rule="evenodd" clip-rule="evenodd" d="M14.7214 41.8015C16.463 28.3293 4.66109 23.9917 4 23.7603V22.5109C5.94145 22.2773 8.05672 22.2757 10.3724 22.6022C10.3724 22.6022 29.0161 23.9374 28.9737 42.0281L14.7214 41.8015Z" fill="#BDC92F"/>
<path fill-rule="evenodd" clip-rule="evenodd" d="M14.7214 4.47151C16.463 17.9438 4.66109 22.2808 4 22.5133V23.7643C5.94145 23.9957 8.05672 23.9995 10.3724 23.672C10.3724 23.672 29.0161 22.3357 28.9737 4.24499L14.7214 4.47151ZM35.7427 4.24336H40.6501V12.4828H40.7088L45.2951 4.24336H50.5833L45.1197 13.2428L51.2564 25.105H45.7346L41.9669 17.2446L40.6501 19.2611V25.105H35.7427V4.24336ZM54.966 4.24336H67.034V8.21643H59.875V12.3959H66.5946V16.3679H59.875V21.1313H67.3551V25.105H54.966V4.24336ZM76.0899 18.7347V19.4664C76.0899 21.0428 76.5299 22.2406 78.2231 22.2406C79.9462 22.2406 80.4449 20.9559 80.4449 19.7581C80.4449 15.2592 71.4753 17.7705 71.4753 9.97047C71.4753 6.64057 73.2571 3.83595 78.3122 3.83595C83.2207 3.83595 84.9726 6.31735 84.9726 9.53155V10.0291H80.2401C80.2401 9.03505 80.1238 8.30498 79.8311 7.83781C79.5377 7.33968 79.0722 7.10773 78.3405 7.10773C77.1144 7.10773 76.3838 7.83781 76.3838 9.35609C76.3838 13.71 85.3523 11.5186 85.3523 18.8814C85.3523 23.6155 82.7231 25.5124 78.2231 25.5124C74.6586 25.5124 71.3585 24.4319 71.3585 20.0797V18.7347H76.0899ZM94.2338 18.7347V19.4664C94.2338 21.0428 94.6728 22.2406 96.3676 22.2406C98.0912 22.2406 98.5893 20.9559 98.5893 19.7581C98.5893 15.2592 89.6187 17.7705 89.6187 9.97047C89.6187 6.64057 91.4004 3.83595 96.4545 3.83595C101.364 3.83595 103.117 6.31735 103.117 9.53155V10.0291H98.384C98.384 9.03505 98.2672 8.30498 97.9744 7.83781C97.6827 7.33968 97.2161 7.10773 96.4849 7.10773C95.2589 7.10773 94.5277 7.83781 94.5277 9.35609C94.5277 13.71 103.496 11.5186 103.496 18.8814C103.496 23.6155 100.868 25.5124 96.3676 25.5124C92.8036 25.5124 89.503 24.4325 89.503 20.0797V18.7347H94.2344H94.2338ZM108.317 4.24336H113.226V21.1313H120.324V25.105H108.317V4.24336ZM124.3 4.24336H136.366V8.21643H129.207V12.3959H135.928V16.3679H129.207V21.1313H136.687V25.105H124.3V4.24336ZM146.27 13.0375H147.789C149.776 13.0375 150.303 11.5474 150.303 10.3214C150.303 8.74281 149.718 7.6906 147.761 7.6906H146.27V13.0375ZM141.364 4.24336H149.601C153.781 4.24336 155.21 6.81548 155.21 9.67822C155.21 12.7164 153.982 14.2065 151.706 14.7611V14.8197C154.832 15.2592 155.006 17.2164 155.065 20.0205C155.153 24.1391 155.299 24.5487 156 24.8415V25.105H150.712C150.334 24.4037 150.186 23.2341 150.186 20.8679C150.186 17.2446 149.69 16.4863 148.14 16.4863H146.27V25.1055H141.364V4.24336ZM35.7481 30.3616H42.5014V32.5845H38.4941V34.923H42.2553V37.1464H38.4941V42.0342H35.7481V30.3616ZM51.5095 40.4323C52.6209 40.4323 52.7833 39.4013 52.7833 36.1979C52.7833 32.9941 52.6204 31.963 51.5095 31.963C50.4291 31.963 50.2661 32.9941 50.2661 36.1979C50.2661 39.4013 50.4285 40.4323 51.5095 40.4323ZM51.5258 42.2645C47.9118 42.2645 47.4207 39.9097 47.4207 36.1979C47.4207 32.4862 47.9118 30.1313 51.5258 30.1313C55.4158 30.1313 55.6287 32.9598 55.6287 36.1979C55.6287 39.4355 55.4158 42.2645 51.5258 42.2645ZM68.6767 38.1774C68.6767 40.4643 68.0227 42.2645 64.834 42.2645C61.6453 42.2645 60.9908 40.4643 60.9908 38.1774V30.3616H63.7394V38.9786C63.7394 39.894 64.099 40.4323 64.834 40.4323C65.5684 40.4323 65.9286 39.894 65.9286 38.9786V30.3616H68.6767V38.1774ZM74.2995 30.3616H77.4561L79.7137 37.9465H79.7452V30.3616H82.2962V42.0342H79.1884L76.7863 33.9914H76.7527V42.0342H74.2995V30.3616ZM90.8138 40.0075H91.5487C92.8242 40.0075 93.2653 39.5007 93.2653 36.0018C93.2653 33.1565 93.0371 32.3878 91.5824 32.3878H90.8138V40.0075ZM88.0678 30.3616H92.1365C94.8509 30.3616 96.0134 31.7664 96.0134 35.8209C96.0134 40.0564 95.4729 42.0342 91.86 42.0342H88.0678V30.3616ZM105.055 32.4856H105.024L104.059 37.6842H106.053L105.055 32.4856ZM103.388 30.3616H106.823L109.734 42.0342H106.887L106.464 39.8108H103.666L103.257 42.0342H100.412L103.388 30.3616ZM115.49 32.5845H113.036V30.3616H120.688V32.5845H118.236V42.0342H115.49V32.5845ZM125.756 42.0342H128.502V30.3616H125.756V42.0342ZM138.022 40.4323C139.135 40.4323 139.298 39.4013 139.298 36.1979C139.298 32.9941 139.135 31.963 138.022 31.963C136.945 31.963 136.781 32.9941 136.781 36.1979C136.781 39.4013 136.945 40.4323 138.022 40.4323ZM138.04 42.2645C134.426 42.2645 133.937 39.9097 133.937 36.1979C133.937 32.4862 134.426 30.1313 138.04 30.1313C141.932 30.1313 142.143 32.9598 142.143 36.1979C142.143 39.4355 141.932 42.2645 138.04 42.2645ZM147.194 30.3616H150.349L152.605 37.9465H152.64V30.3616H155.189V42.0342H152.082L149.679 33.9914H149.648V42.0342H147.194V30.3616ZM18.3316 50.5247C18.1046 50.6387 17.6504 50.7517 17.0681 50.7517C15.7193 50.7517 14.704 49.9 14.704 48.3312C14.704 46.833 15.7193 45.8183 17.2028 45.8183C17.7993 45.8183 18.1752 45.9459 18.3381 46.0312L18.1898 46.5348C17.9552 46.4212 17.6216 46.3365 17.224 46.3365C16.1023 46.3365 15.357 47.0535 15.357 48.31C15.357 49.4811 16.0316 50.2335 17.1958 50.2335C17.5722 50.2335 17.9552 50.1553 18.204 50.0347L18.3316 50.5247ZM19.2898 45.6406H19.9145V47.7847H19.9281C20.0275 47.6071 20.184 47.4506 20.3757 47.3447C20.5604 47.2377 20.7804 47.1665 21.0146 47.1665C21.4763 47.1665 22.214 47.4506 22.214 48.6364V50.6811H21.5893V48.7071C21.5893 48.1535 21.3839 47.6847 20.7945 47.6847C20.3899 47.6847 20.0704 47.9688 19.9569 48.3094C19.9211 48.3947 19.914 48.4871 19.914 48.6082V50.6811H19.2893V45.6401L19.2898 45.6406ZM25.2451 48.9276C24.5639 48.9135 23.7898 49.0341 23.7898 49.7011C23.7898 50.1058 24.0598 50.2976 24.3792 50.2976C24.8263 50.2976 25.1104 50.0135 25.2098 49.7223C25.2315 49.6588 25.2451 49.5876 25.2451 49.5235V48.9276ZM25.3374 50.6811L25.288 50.2482H25.2663C25.0751 50.5176 24.7057 50.7588 24.2157 50.7588C23.5204 50.7588 23.1651 50.2694 23.1651 49.7723C23.1651 48.9412 23.9039 48.4871 25.231 48.4941V48.4235C25.231 48.1394 25.1528 47.6282 24.4498 47.6282C24.1304 47.6282 23.7969 47.7276 23.5557 47.8836L23.4139 47.4718C23.6975 47.2871 24.1092 47.1665 24.5422 47.1665C25.5933 47.1665 25.8486 47.8836 25.8486 48.5723V49.8571C25.8486 50.1558 25.8627 50.4464 25.9057 50.6811H25.3374Z" fill="#004B86"/>
<path fill-rule="evenodd" clip-rule="evenodd" d="M27.062 48.1748C27.062 47.8195 27.055 47.5283 27.0343 47.2448H27.5879L27.6232 47.8119H27.6373C27.8079 47.4865 28.2055 47.1666 28.7732 47.1666C29.249 47.1666 29.9873 47.4507 29.9873 48.6289V50.6806H29.3626V48.7001C29.3626 48.146 29.1567 47.6842 28.5673 47.6842C28.1555 47.6842 27.8361 47.9759 27.7297 48.3236C27.7014 48.4018 27.6873 48.5083 27.6873 48.6148V50.6806H27.0626L27.062 48.1748ZM33.5225 48.6006C33.5225 48.4942 33.5149 48.4018 33.4866 48.3165C33.3726 47.9548 33.0684 47.6565 32.6137 47.6565C32.0172 47.6565 31.5914 48.1606 31.5914 48.9554C31.5914 49.63 31.932 50.1906 32.6066 50.1906C32.9896 50.1906 33.3378 49.9494 33.4725 49.5518C33.5064 49.4439 33.5232 49.3314 33.5225 49.2183V48.6006ZM34.1678 47.2448C34.1489 47.5591 34.1397 47.874 34.1401 48.1889V50.1836C34.1401 50.9712 33.9837 51.4547 33.6502 51.7524C33.3161 52.0653 32.8337 52.1641 32.4008 52.1641C31.989 52.1641 31.5343 52.0653 31.2578 51.88L31.4137 51.4047C31.6408 51.5465 31.9955 51.6747 32.4219 51.6747C33.0608 51.6747 33.5296 51.3412 33.5296 50.4747V50.0912H33.5149C33.3237 50.4106 32.9543 50.6665 32.4219 50.6665C31.5702 50.6665 30.9596 49.9424 30.9596 48.9912C30.9596 47.8266 31.719 47.1666 32.5072 47.1666C33.1031 47.1666 33.4301 47.4789 33.579 47.763H33.5931L33.6214 47.2448H34.1678Z" fill="#004B86"/>
<path fill-rule="evenodd" clip-rule="evenodd" d="M35.3392 50.681H35.9639V47.2446H35.3392V50.681ZM36.0345 46.2794C36.0421 46.4923 35.8856 46.6629 35.6374 46.6629C35.4174 46.6629 35.2609 46.4923 35.2609 46.2794C35.2595 46.2276 35.2687 46.1762 35.2878 46.1281C35.307 46.08 35.3358 46.0364 35.3724 45.9998C35.409 45.9632 35.4527 45.9345 35.5008 45.9155C35.5489 45.8964 35.6003 45.8873 35.6521 45.8888C35.8856 45.8888 36.035 46.0594 36.035 46.2799L36.0345 46.2794Z" fill="#004B86"/>
<path fill-rule="evenodd" clip-rule="evenodd" d="M37.2057 48.1748C37.2057 47.8195 37.1986 47.5283 37.178 47.2448H37.732L37.7663 47.8119H37.7804C37.951 47.4865 38.3486 47.1666 38.9163 47.1666C39.3921 47.1666 40.1309 47.4507 40.1309 48.6289V50.6806H39.5062V48.7001C39.5062 48.146 39.2998 47.6842 38.7109 47.6842C38.2992 47.6842 37.9798 47.9759 37.8733 48.3236C37.8445 48.4018 37.8304 48.5083 37.8304 48.6148V50.6806H37.2057V48.1748ZM43.6656 48.6006C43.6692 48.5047 43.6573 48.4087 43.6303 48.3165C43.5162 47.9548 43.2114 47.6565 42.7568 47.6565C42.1609 47.6565 41.735 48.1606 41.735 48.9554C41.735 49.63 42.0756 50.1906 42.7497 50.1906C43.1332 50.1906 43.4814 49.9494 43.6161 49.5518C43.6514 49.4453 43.6656 49.3247 43.6656 49.2183V48.6006ZM44.312 47.2448C44.2973 47.493 44.2832 47.7701 44.2832 48.1889V50.1836C44.2832 50.9712 44.1273 51.4547 43.7932 51.7524C43.4597 52.0653 42.9768 52.1641 42.5438 52.1641C42.1321 52.1641 41.678 52.0653 41.4009 51.88L41.5574 51.4047C41.7844 51.5465 42.1397 51.6747 42.5656 51.6747C43.2044 51.6747 43.6726 51.3412 43.6726 50.4747V50.0912H43.6585C43.4668 50.4106 43.0979 50.6665 42.5656 50.6665C41.7133 50.6665 41.1032 49.9424 41.1032 48.9912C41.1032 47.8266 41.8626 47.1666 42.6503 47.1666C43.2468 47.1666 43.5738 47.4789 43.7226 47.763H43.7367L43.765 47.2448H44.312Z" fill="#004B86"/>
<path fill-rule="evenodd" clip-rule="evenodd" d="M47.9884 46.2582V47.2447H48.8831V47.7206H47.9884V49.5729C47.9884 49.9994 48.109 50.2411 48.4572 50.2411C48.6202 50.2411 48.7408 50.2194 48.819 50.1976L48.8472 50.6664C48.7266 50.7164 48.5349 50.7517 48.2937 50.7517C48.0025 50.7517 47.7684 50.6594 47.6196 50.4893C47.4419 50.3046 47.3778 49.9994 47.3778 49.5947V47.7206H46.8455V47.2447H47.3778V46.4212L47.9884 46.2582ZM49.7913 45.6406H50.416V47.7847H50.4301C50.5296 47.607 50.6855 47.4506 50.8778 47.3447C51.0625 47.2377 51.2819 47.1665 51.5166 47.1665C51.9783 47.1665 52.7165 47.4506 52.7165 48.6364V50.6811H52.0918V48.707C52.0918 48.1535 51.8854 47.6847 51.2966 47.6847C50.8919 47.6847 50.5725 47.9688 50.4589 48.3094C50.4231 48.3947 50.416 48.487 50.416 48.6082V50.6811H49.7913V45.6406ZM56.1165 48.6294C56.1236 48.2317 55.9536 47.6141 55.2501 47.6141C54.6183 47.6141 54.3418 48.1959 54.2919 48.6294H56.1165ZM54.2848 49.0764C54.2989 49.9211 54.8389 50.2693 55.4636 50.2693C55.9106 50.2693 56.1806 50.1911 56.4142 50.0917L56.5212 50.5388C56.3012 50.6382 55.9248 50.7517 55.3783 50.7517C54.3201 50.7517 53.6889 50.0564 53.6889 49.0199C53.6889 47.9829 54.2989 47.1665 55.3001 47.1665C56.4218 47.1665 56.7195 48.1535 56.7195 48.7853C56.7195 48.9135 56.7054 49.0123 56.6983 49.0764H54.2848ZM59.4095 50.6811H60.0342V45.6406H59.4095V50.6811ZM61.2906 50.6811H61.9153V47.2447H61.2906V50.6811ZM61.9859 46.2794C61.9935 46.4924 61.8371 46.6629 61.5889 46.6629C61.3689 46.6629 61.2124 46.4924 61.2124 46.2794C61.211 46.2277 61.2201 46.1763 61.2392 46.1283C61.2584 46.0803 61.2871 46.0366 61.3236 46.0001C61.3602 45.9635 61.4038 45.9348 61.4518 45.9157C61.4999 45.8966 61.5513 45.8874 61.603 45.8889C61.8371 45.8889 61.9865 46.0594 61.9865 46.28L61.9859 46.2794ZM63.3983 47.2447L64.0735 49.1758C64.187 49.4882 64.2794 49.7723 64.3506 50.0558H64.3712C64.4494 49.7723 64.5488 49.4882 64.6624 49.1758L65.33 47.2447H65.9829L64.6341 50.6811H64.0377L62.7318 47.2447H63.3983ZM68.8858 48.6294C68.8929 48.2317 68.7229 47.6141 68.02 47.6141C67.3877 47.6141 67.1112 48.1959 67.0612 48.6294H68.8858ZM67.0541 49.0764C67.0688 49.9211 67.6082 50.2693 68.2329 50.2693C68.68 50.2693 68.95 50.1911 69.1841 50.0917L69.2905 50.5388C69.0705 50.6382 68.6941 50.7517 68.1476 50.7517C67.09 50.7517 66.4582 50.0564 66.4582 49.0199C66.4582 47.9829 67.0688 47.1665 68.0694 47.1665C69.1911 47.1665 69.4894 48.1535 69.4894 48.7853C69.4894 48.9135 69.4752 49.0123 69.4676 49.0764H67.0541ZM70.3835 50.0417C70.5682 50.1629 70.8941 50.2905 71.207 50.2905C71.6611 50.2905 71.8741 50.0629 71.8741 49.7794C71.8741 49.4811 71.697 49.3176 71.2353 49.1476C70.6176 48.9276 70.3265 48.5865 70.3265 48.1752C70.3265 47.6212 70.7741 47.1665 71.5123 47.1665C71.8599 47.1665 72.1652 47.2664 72.357 47.38L72.2005 47.8341C71.9893 47.7038 71.7458 47.635 71.4976 47.6353C71.1288 47.6353 70.9229 47.8482 70.9229 48.1041C70.9229 48.3876 71.1293 48.5158 71.5758 48.6859C72.1723 48.9135 72.4776 49.2111 72.4776 49.7223C72.4776 50.3258 72.0093 50.7517 71.1929 50.7517C70.8164 50.7517 70.4682 50.6594 70.2276 50.5176L70.3835 50.0417ZM75.5793 48.97C75.5793 49.7223 76.0123 50.29 76.6223 50.29C77.2193 50.29 77.6664 49.7294 77.6664 48.9558C77.6664 48.3735 77.3752 47.6358 76.637 47.6358C75.8982 47.6358 75.5793 48.317 75.5793 48.97ZM78.3052 48.9347C78.3052 50.2052 77.4252 50.7588 76.5941 50.7588C75.6646 50.7588 74.9476 50.0776 74.9476 48.9911C74.9476 47.8412 75.6999 47.1665 76.6511 47.1665C77.6381 47.1665 78.3052 47.8835 78.3052 48.9347ZM79.3628 50.6811V47.7206H78.8799V47.2447H79.3634V47.0817C79.3634 46.5988 79.4693 46.1583 79.7599 45.8818C79.9946 45.6547 80.3069 45.5624 80.5981 45.5624C80.8181 45.5624 81.0098 45.6124 81.1304 45.6618L81.0452 46.1447C80.92 46.0898 80.7842 46.0631 80.6475 46.0665C80.1152 46.0665 79.9804 46.5347 79.9804 47.0606V47.2453H80.8116V47.7206H79.9804V50.6811H79.3628ZM83.9057 49.2823C83.9057 49.3747 83.9198 49.4599 83.934 49.5376C84.048 49.9706 84.424 50.2693 84.871 50.2693C85.5316 50.2693 85.9145 49.7294 85.9145 48.9417C85.9145 48.2529 85.5527 47.6641 84.8922 47.6641C84.4663 47.6641 84.0692 47.9688 83.9481 48.4376C83.9269 48.5158 83.9057 48.6076 83.9057 48.6929V49.2823ZM83.2881 48.3664C83.2881 47.9264 83.274 47.5712 83.2598 47.2447H83.8204L83.8487 47.8341H83.8633C84.1187 47.4153 84.5234 47.1665 85.084 47.1665C85.9151 47.1665 86.5398 47.8694 86.5398 48.9135C86.5398 50.1482 85.7869 50.7588 84.9775 50.7588C84.5233 50.7588 84.1257 50.5599 83.9198 50.2194H83.9057V52.0864H83.2881V48.3664ZM89.7121 48.6294C89.7197 48.2317 89.5492 47.6141 88.8463 47.6141C88.2145 47.6141 87.9375 48.1959 87.888 48.6294H89.7121ZM87.881 49.0764C87.8951 49.9211 88.435 50.2693 89.0592 50.2693C89.5063 50.2693 89.7762 50.1911 90.0109 50.0917L90.1168 50.5388C89.8968 50.6382 89.5209 50.7517 88.9739 50.7517C87.9163 50.7517 87.2845 50.0564 87.2845 49.0199C87.2845 47.9829 87.8951 47.1665 88.8957 47.1665C90.0174 47.1665 90.3156 48.1535 90.3156 48.7853C90.3156 48.9135 90.3015 49.0123 90.2944 49.0764H87.881ZM91.678 48.97C91.678 49.7223 92.1115 50.29 92.7221 50.29C93.3185 50.29 93.7651 49.7294 93.7651 48.9558C93.7651 48.3735 93.4744 47.6358 92.7362 47.6358C91.9974 47.6358 91.678 48.317 91.678 48.97ZM94.4044 48.9347C94.4044 50.2052 93.5244 50.7588 92.6933 50.7588C91.7633 50.7588 91.0468 50.0776 91.0468 48.9911C91.0468 47.8412 91.7992 47.1665 92.7503 47.1665C93.7374 47.1665 94.4044 47.8835 94.4044 48.9347ZM96.0156 49.2823C96.0156 49.3747 96.0297 49.4599 96.0438 49.5376C96.1579 49.9706 96.5333 50.2693 96.9809 50.2693C97.6409 50.2693 98.0238 49.7294 98.0238 48.9417C98.0238 48.2529 97.6626 47.6641 97.0021 47.6641C96.5762 47.6641 96.1786 47.9688 96.058 48.4376C96.0362 48.5158 96.0156 48.6076 96.0156 48.6929V49.2823ZM95.3974 48.3664C95.3974 47.9264 95.3838 47.5712 95.3692 47.2447H95.9303L95.9585 47.8341H95.9727C96.228 47.4153 96.6332 47.1665 97.1938 47.1665C98.0244 47.1665 98.6491 47.8694 98.6491 48.9135C98.6491 50.1482 97.8967 50.7588 97.0873 50.7588C96.6332 50.7588 96.2356 50.5599 96.0297 50.2194H96.0156V52.0864H95.3974V48.3664ZM99.6426 50.6811H100.267V45.6406H99.6426V50.6811ZM103.703 48.6294C103.71 48.2317 103.54 47.6141 102.837 47.6141C102.205 47.6141 101.928 48.1959 101.878 48.6294H103.703ZM101.871 49.0764C101.886 49.9211 102.426 50.2693 103.05 50.2693C103.497 50.2693 103.767 50.1911 104.001 50.0917L104.108 50.5388C103.888 50.6382 103.511 50.7517 102.965 50.7517C101.907 50.7517 101.276 50.0564 101.276 49.0199C101.276 47.9829 101.886 47.1665 102.887 47.1665C104.008 47.1665 104.307 48.1535 104.307 48.7853C104.307 48.9135 104.292 49.0123 104.285 49.0764H101.871ZM107.244 47.2447L107.699 48.9911C107.798 49.3747 107.891 49.7299 107.954 50.0846H107.976C108.054 49.737 108.167 49.3676 108.281 48.9982L108.842 47.2447H109.367L109.9 48.9629C110.028 49.3747 110.127 49.7364 110.205 50.0846H110.227C110.283 49.737 110.375 49.3747 110.489 48.97L110.979 47.2447H111.597L110.489 50.6811H109.921L109.396 49.0406C109.275 48.67 109.173 48.2934 109.09 47.9123H109.076C108.994 48.2965 108.89 48.6756 108.764 49.0476L108.21 50.6811H107.642L106.606 47.2447H107.244ZM112.427 50.6811H113.051V47.2447H112.427V50.6811ZM113.122 46.2794C113.13 46.4924 112.973 46.6629 112.725 46.6629C112.505 46.6629 112.348 46.4924 112.348 46.2794C112.347 46.2277 112.356 46.1762 112.375 46.1282C112.394 46.0801 112.423 46.0364 112.46 45.9999C112.496 45.9633 112.54 45.9346 112.588 45.9155C112.636 45.8964 112.688 45.8874 112.74 45.8889C112.973 45.8889 113.122 46.0594 113.122 46.28L113.122 46.2794ZM115.046 46.2577V47.2447H115.941V47.7206H115.046V49.5729C115.046 49.9994 115.167 50.2411 115.515 50.2411C115.678 50.2411 115.798 50.2194 115.877 50.1976L115.905 50.6664C115.784 50.7164 115.592 50.7517 115.351 50.7517C115.06 50.7517 114.826 50.6594 114.677 50.4893C114.5 50.3046 114.435 49.9994 114.435 49.5947V47.7206H113.903V47.2447H114.435V46.4212L115.046 46.2577ZM116.849 45.6406H117.474V47.7847H117.488C117.587 47.607 117.743 47.4506 117.935 47.3447C118.12 47.2377 118.34 47.1665 118.574 47.1665C119.036 47.1665 119.774 47.4506 119.774 48.6364V50.6811H119.149V48.707C119.149 48.1535 118.943 47.6847 118.354 47.6847C117.95 47.6847 117.63 47.9688 117.517 48.3094C117.481 48.3947 117.474 48.487 117.474 48.6082V50.6811H116.849V45.6406ZM125.048 48.6435C125.048 48.5653 125.041 48.4588 125.019 48.3806C124.927 47.9829 124.586 47.6565 124.118 47.6565C123.472 47.6565 123.088 48.2247 123.088 48.9841C123.088 49.6799 123.429 50.2552 124.104 50.2552C124.522 50.2552 124.906 49.9782 125.019 49.5094C125.041 49.4241 125.048 49.3388 125.048 49.2399V48.6435ZM125.672 45.6406V49.7935C125.672 50.0988 125.679 50.4464 125.701 50.6811H125.14L125.112 50.0846H125.098C124.906 50.4681 124.487 50.7588 123.926 50.7588C123.095 50.7588 122.457 50.0558 122.457 49.0123C122.449 47.8694 123.159 47.1665 123.997 47.1665C124.522 47.1665 124.877 47.4153 125.034 47.6923H125.048V45.6406H125.672ZM126.915 50.6811H127.539V47.2447H126.915V50.6811ZM127.61 46.2794C127.618 46.4924 127.461 46.6629 127.213 46.6629C126.993 46.6629 126.836 46.4924 126.836 46.2794C126.836 46.0594 126.999 45.8889 127.227 45.8889C127.461 45.8889 127.61 46.0589 127.61 46.2794ZM128.696 50.0417C128.881 50.1629 129.207 50.2905 129.52 50.2905C129.974 50.2905 130.187 50.0629 130.187 49.7794C130.187 49.4811 130.009 49.3176 129.548 49.1476C128.931 48.9276 128.639 48.5865 128.639 48.1752C128.639 47.6212 129.086 47.1665 129.825 47.1665C130.172 47.1665 130.478 47.2664 130.67 47.38L130.513 47.8341C130.302 47.7038 130.059 47.635 129.811 47.6353C129.441 47.6353 129.236 47.8482 129.236 48.1041C129.236 48.3876 129.442 48.5158 129.889 48.6859C130.485 48.9135 130.791 49.2111 130.791 49.7223C130.791 50.3258 130.322 50.7517 129.505 50.7517C129.129 50.7517 128.781 50.6594 128.54 50.5176L128.696 50.0417ZM133.608 48.9276C132.927 48.9135 132.153 49.0341 132.153 49.7011C132.153 50.1058 132.423 50.2976 132.742 50.2976C133.189 50.2976 133.473 50.0135 133.573 49.7223C133.595 49.6588 133.608 49.5876 133.608 49.5235V48.9276ZM133.701 50.6811L133.651 50.2481H133.629C133.438 50.5176 133.069 50.7588 132.579 50.7588C131.883 50.7588 131.528 50.2693 131.528 49.7723C131.528 48.9412 132.267 48.487 133.594 48.4941V48.4235C133.594 48.1394 133.516 47.6282 132.813 47.6282C132.493 47.6282 132.16 47.7276 131.919 47.8835L131.776 47.4718C132.061 47.2871 132.472 47.1665 132.906 47.1665C133.956 47.1665 134.212 47.8835 134.212 48.5723V49.857C134.212 50.1558 134.226 50.4464 134.269 50.6811H133.701ZM136.043 49.3035C136.043 49.3817 136.057 49.4599 136.072 49.5306C136.192 49.964 136.554 50.2617 137.009 50.2617C137.662 50.2617 138.052 49.7294 138.052 48.9417C138.052 48.2529 137.697 47.6641 137.03 47.6641C136.604 47.6641 136.206 47.9547 136.079 48.43C136.064 48.5012 136.043 48.5865 136.043 48.6859V49.3035ZM135.397 50.6811C135.411 50.4464 135.425 50.0988 135.425 49.7935V45.6406H136.043V47.7982H136.057C136.277 47.4153 136.675 47.1665 137.229 47.1665C138.08 47.1665 138.684 47.877 138.677 48.92C138.677 50.1482 137.903 50.7588 137.136 50.7588C136.639 50.7588 136.242 50.567 135.986 50.1129H135.965L135.936 50.6811H135.397ZM139.67 50.6811H140.295V47.2447H139.67V50.6811ZM140.366 46.2794C140.373 46.4924 140.217 46.6629 139.969 46.6629C139.748 46.6629 139.592 46.4924 139.592 46.2794C139.591 46.2277 139.6 46.1763 139.619 46.1283C139.638 46.0803 139.667 46.0366 139.703 46.0001C139.74 45.9635 139.784 45.9348 139.832 45.9157C139.88 45.8966 139.931 45.8874 139.983 45.8889C140.217 45.8889 140.366 46.0589 140.366 46.2794ZM141.537 50.6811H142.162V45.6406H141.537V50.6811ZM143.418 50.6811H144.043V47.2447H143.418V50.6811ZM144.113 46.2794C144.121 46.4924 143.965 46.6629 143.716 46.6629C143.496 46.6629 143.34 46.4924 143.34 46.2794C143.34 46.0594 143.503 45.8889 143.731 45.8889C143.965 45.8889 144.114 46.0594 144.114 46.28L144.113 46.2794ZM146.037 46.2577V47.2447H146.932V47.7206H146.037V49.5729C146.037 49.9994 146.158 50.2411 146.506 50.2411C146.669 50.2411 146.79 50.2194 146.868 50.1976L146.896 50.6664C146.776 50.7164 146.584 50.7517 146.342 50.7517C146.052 50.7517 145.817 50.6594 145.669 50.4893C145.491 50.3046 145.427 49.9994 145.427 49.5947V47.7206H144.895V47.2447H145.427V46.4212L146.037 46.2577ZM147.84 50.6811H148.465V47.2447H147.84V50.6811ZM148.536 46.2794C148.543 46.4924 148.387 46.6629 148.139 46.6629C147.919 46.6629 147.762 46.4924 147.762 46.2794C147.761 46.2277 147.77 46.1762 147.789 46.1282C147.808 46.0801 147.837 46.0364 147.874 45.9999C147.91 45.9633 147.954 45.9346 148.002 45.9155C148.05 45.8964 148.102 45.8874 148.153 45.8889C148.387 45.8889 148.536 46.0594 148.536 46.28L148.536 46.2794ZM151.887 48.6294C151.894 48.2317 151.724 47.6141 151.02 47.6141C150.389 47.6141 150.112 48.1959 150.062 48.6294H151.887ZM150.055 49.0764C150.069 49.9211 150.609 50.2693 151.234 50.2693C151.681 50.2693 151.951 50.1911 152.184 50.0917L152.291 50.5388C152.071 50.6382 151.695 50.7517 151.149 50.7517C150.09 50.7517 149.459 50.0564 149.459 49.0199C149.459 47.9829 150.069 47.1665 151.07 47.1665C152.192 47.1665 152.49 48.1535 152.49 48.7853C152.49 48.9135 152.476 49.0123 152.469 49.0764H150.055ZM153.384 50.0417C153.569 50.1629 153.896 50.2905 154.207 50.2905C154.662 50.2905 154.875 50.0629 154.875 49.7794C154.875 49.4811 154.697 49.3176 154.236 49.1476C153.619 48.9276 153.327 48.5865 153.327 48.1752C153.327 47.6212 153.774 47.1665 154.513 47.1665C154.86 47.1665 155.166 47.2664 155.358 47.38L155.201 47.8341C154.99 47.7038 154.747 47.635 154.499 47.6353C154.129 47.6353 153.923 47.8482 153.923 48.1041C153.923 48.3876 154.13 48.5158 154.577 48.6859C155.173 48.9135 155.479 49.2111 155.479 49.7223C155.479 50.3258 155.01 50.7517 154.193 50.7517C153.817 50.7517 153.469 50.6594 153.228 50.5176L153.384 50.0417Z" fill="#004B86"/>
</svg>
