<svg width="160" height="56" viewBox="0 0 160 56" fill="none" xmlns="http://www.w3.org/2000/svg">
<path d="M140.476 11.1283C140.153 11.5064 139.992 11.9555 139.992 12.4764C139.992 12.829 140.066 13.1502 140.212 13.4399C140.359 13.7296 140.559 13.9581 140.813 14.1264C141.066 14.2944 141.347 14.3781 141.655 14.3781C142.111 14.3781 142.504 14.1944 142.834 13.8243C143.164 13.4544 143.33 13.0051 143.33 12.4764C143.33 11.9555 143.164 11.5064 142.834 11.1283C142.504 10.7504 142.111 10.5616 141.655 10.5616C141.193 10.5616 140.8 10.7504 140.476 11.1283ZM54.1049 11.2446C53.2741 11.6988 52.6564 12.3072 52.2527 13.0689C51.8485 13.8305 51.6463 14.6833 51.6463 15.626C51.6463 16.6025 51.8461 17.4481 52.2462 18.1641C52.6463 18.8794 53.1613 19.4751 53.7921 19.9503C54.4231 20.4258 55.1565 20.8657 55.9933 21.2697C56.757 21.6152 57.3384 21.9491 57.7389 22.2727C58.1387 22.5968 58.339 22.9942 58.339 23.4653C58.339 23.7265 58.2224 24.0067 57.9906 24.305C57.759 24.6039 57.2488 24.7529 56.461 24.7529C55.6071 24.7529 54.8057 24.5721 54.0583 24.2094C53.3106 23.8473 52.5508 23.392 51.7778 22.8443V27.1482C52.6009 27.5623 53.3925 27.8754 54.1536 28.0867C54.9143 28.2978 55.524 28.4263 55.9832 28.4729C56.4426 28.5186 56.8306 28.5424 57.1464 28.5424C58.2785 28.5424 59.2817 28.329 60.1564 27.9036C61.0306 27.4771 61.7121 26.8633 62.2012 26.0615C62.6901 25.2601 62.9347 24.3106 62.9347 23.213C62.9347 22.2287 62.7352 21.4071 62.3354 20.747C61.9356 20.0863 61.3832 19.5036 60.6789 18.9984C59.9742 18.4938 59.0348 17.9263 57.8608 17.2947C57.1939 16.9332 56.7306 16.626 56.4708 16.3731C56.2117 16.1208 56.0817 15.8222 56.0817 15.477C56.0817 15.1068 56.2099 14.7955 56.4679 14.5429C56.7252 14.2906 57.1408 14.1641 57.7154 14.1641C58.5913 14.1641 59.4138 14.3666 60.1832 14.7711C60.9519 15.1751 61.6495 15.6343 62.2751 16.1484V12.0413C62.0988 11.9059 61.7753 11.7207 61.3048 11.4851C60.8341 11.2494 60.2372 11.0366 59.5129 10.8469C58.7887 10.6575 58.0006 10.5625 57.1482 10.5625C55.9496 10.5625 54.9357 10.7905 54.1049 11.2446ZM133.186 11.6097L127.861 17.8052V18.5977H129.661V23.7345C129.661 26.9398 131.089 28.5424 133.947 28.5424C134.609 28.5424 135.302 28.4367 136.027 28.2254C136.752 28.0143 137.321 27.7944 137.733 27.5658V24.0043C136.703 24.611 135.871 24.9143 135.239 24.9143C134.753 24.9143 134.391 24.8158 134.152 24.6178C133.912 24.4198 133.767 24.1738 133.715 23.8787C133.664 23.5843 133.638 23.1969 133.638 22.7164V18.5983H137.435V15.4532H133.638V11.6097H133.186ZM92.5032 15.8714C91.8158 16.2938 91.1533 16.918 90.5139 17.7456C90.3522 17.2983 90.1346 16.9059 89.8621 16.5681C89.589 16.2303 89.2848 15.9644 88.9497 15.7702C88.6146 15.5764 88.2738 15.439 87.9272 15.3588C87.5805 15.279 87.2163 15.2383 86.8331 15.2383C86.0225 15.2383 85.3074 15.4025 84.6883 15.7319C84.0697 16.0614 83.4615 16.5895 82.8646 17.3152V15.4532H78.8866V28.3281H82.8646V20.7791C82.9237 20.6948 83.0638 20.4891 83.2852 20.1605C83.5063 19.8325 83.6945 19.5844 83.8494 19.4158C84.0038 19.2478 84.205 19.0958 84.452 18.961C84.6992 18.8266 84.9697 18.7592 85.2647 18.7592C85.8839 18.7592 86.3151 18.9949 86.5585 19.4665C86.8022 19.9379 86.9239 20.6066 86.9239 21.473V28.3281H90.9016V20.7791C91.253 20.1988 91.6041 19.717 91.9562 19.3341C92.3079 18.9509 92.7585 18.7595 93.3079 18.7595C93.871 18.7595 94.2832 18.9845 94.5433 19.4348C94.803 19.8847 94.9333 20.5645 94.9333 21.473V28.3275H98.9112H98.9104V20.4808C98.9104 19.3692 98.7652 18.4241 98.4746 17.6443C98.1843 16.8658 97.7364 16.2698 97.1306 15.8566C96.5245 15.4443 95.7733 15.238 94.8775 15.238C93.9817 15.238 93.1898 15.4497 92.5032 15.8714ZM149.068 15.9454C148.221 16.4167 147.574 17.0014 147.127 17.6999C146.68 18.3989 146.367 19.1225 146.187 19.8711C146.007 20.6203 145.918 21.281 145.918 21.8529C145.918 22.4252 146.005 23.0856 146.181 23.8345C146.357 24.5837 146.674 25.3177 147.132 26.0369C147.59 26.757 148.242 27.3542 149.089 27.8294C149.936 28.3049 150.974 28.5424 152.203 28.5424C152.747 28.5424 153.249 28.5026 153.709 28.4222C154.169 28.3417 154.583 28.2402 154.951 28.1176C155.319 27.995 155.668 27.8618 155.999 27.7175H156V24.1304C155.271 24.383 154.653 24.5772 154.145 24.7119C153.638 24.8473 153.185 24.9143 152.788 24.9143C152.368 24.9143 151.949 24.8054 151.53 24.5878C151.11 24.37 150.764 24.0295 150.492 23.5653C150.22 23.1011 150.084 22.5306 150.084 21.8529C150.084 20.8328 150.358 20.08 150.906 19.5947C151.454 19.1097 152.081 18.8669 152.788 18.8669C153.516 18.8669 154.528 19.1032 155.823 19.5749V15.9869C155.286 15.7587 154.757 15.5773 154.234 15.4419C153.711 15.3063 153.035 15.2383 152.203 15.2383C150.959 15.2383 149.915 15.474 149.068 15.9454ZM120.34 15.7008C119.711 16.0089 119.082 16.5476 118.456 17.3152V15.4532H114.478V28.3275H118.456V20.7785C118.596 20.552 118.732 20.3374 118.865 20.1353C118.998 19.9331 119.162 19.7227 119.357 19.5039C119.552 19.2852 119.774 19.1062 120.021 18.9673C120.268 18.829 120.554 18.7592 120.878 18.7592C121.564 18.7592 122.008 19.0222 122.211 19.5481C122.413 20.0741 122.515 20.6903 122.515 21.3973V21.6624V28.3275H126.493H126.492V20.7719C126.492 17.0831 125.143 15.2383 122.447 15.2383C121.673 15.2383 120.971 15.3924 120.34 15.7008ZM67.839 16.0902C66.8663 16.6583 66.1385 17.4413 65.6562 18.4383C65.1733 19.4354 64.932 20.565 64.932 21.8274C64.932 23.1064 65.1733 24.2507 65.6562 25.2604C66.1385 26.2702 66.8663 27.0701 67.839 27.6587C68.812 28.2479 69.9904 28.5424 71.3762 28.5424C72.6576 28.5424 73.7134 28.4008 74.5424 28.1179C75.3717 27.835 76.0769 27.5207 76.659 27.1737V24.3664C75.0375 25.2159 73.5564 25.6398 72.2153 25.6398C71.4486 25.6398 70.7633 25.3946 70.159 24.9031C69.5549 24.4124 69.1753 23.7796 69.0207 23.0055H76.9466H76.9463V22.0949C76.9463 20.4751 76.6721 19.1528 76.1229 18.1288C75.5735 17.1044 74.8742 16.3662 74.023 15.9151C73.172 15.4642 72.2898 15.2383 71.3762 15.2383C69.9904 15.2383 68.812 15.5224 67.839 16.0902ZM69.5241 18.7844C69.9328 18.284 70.4685 18.0332 71.1322 18.0332C71.8033 18.0332 72.3171 18.2795 72.6745 18.772C73.0319 19.2647 73.2106 19.9233 73.2106 20.7476H68.9102C68.9102 19.9399 69.115 19.2855 69.5241 18.7844ZM104.575 15.4298C103.95 15.5568 103.35 15.7486 102.777 16.0062C102.204 16.2641 101.67 16.5957 101.178 17.0011V20.4926C101.795 19.8019 102.474 19.238 103.215 18.799C103.957 18.3615 104.76 18.1421 105.627 18.1421C106.361 18.1421 106.839 18.3187 107.059 18.6713C107.279 19.0243 107.389 19.5122 107.389 20.1341C107.235 20.2264 107.089 20.3027 106.949 20.3608C106.809 20.4193 106.598 20.5018 106.316 20.6066C106.033 20.7117 105.616 20.8651 105.066 21.0667C104.096 21.4193 103.318 21.76 102.731 22.0874C102.144 22.4154 101.676 22.8375 101.327 23.3549C100.978 23.8722 100.804 24.5255 100.804 25.3156C100.804 25.8366 100.905 26.3429 101.107 26.8345C101.309 27.3263 101.661 27.7341 102.164 28.0574C102.667 28.3809 103.326 28.543 104.141 28.543C104.985 28.543 105.668 28.4141 106.19 28.1583C106.711 27.9027 107.185 27.5765 107.611 27.1814C107.721 27.5599 107.905 27.8816 108.163 28.1461C108.42 28.41 108.877 28.543 109.533 28.543C110.225 28.543 110.818 28.4622 111.311 28.3034C111.804 28.144 112.342 27.9333 112.924 27.673H112.924V25.2892C112.497 25.5341 112.158 25.6561 111.908 25.6561C111.702 25.6561 111.561 25.5403 111.483 25.3085C111.406 25.0773 111.367 24.7259 111.367 24.2545V19.2929C111.367 18.0305 110.958 17.0394 110.138 16.3193C109.318 15.5996 108.096 15.2395 106.472 15.2395C105.832 15.2395 105.2 15.303 104.575 15.4298ZM105.001 25.7564C104.784 25.5296 104.675 25.2011 104.675 24.7719C104.675 24.1747 104.892 23.7018 105.326 23.3522C105.76 23.0037 106.449 22.6107 107.39 22.1729V25.2138C107.11 25.4581 106.835 25.6665 106.568 25.8383C106.299 26.0108 106.029 26.0969 105.757 26.0969C105.469 26.0969 105.217 25.9835 105.001 25.7564ZM139.672 28.3275H143.649V15.4532H139.672V28.3275ZM91.2714 31.9303V49.4545H95.2494V48.2791C95.5064 48.5323 95.7549 48.7492 95.9935 48.9303C96.2327 49.1119 96.5673 49.2805 96.998 49.4361C97.4277 49.5916 97.9377 49.67 98.5263 49.67C99.3428 49.67 100.145 49.4384 100.932 48.9757C101.719 48.5124 102.366 47.7896 102.874 46.8089C103.381 45.8279 103.636 44.5923 103.636 43.1016C103.636 42.2272 103.529 41.392 103.315 40.5974C103.101 39.8025 102.776 39.086 102.338 38.4469C101.901 37.8079 101.336 37.3012 100.644 36.9272C99.9531 36.5529 99.1549 36.3653 98.2502 36.3653C97.5735 36.3653 96.9778 36.4642 96.4631 36.6616C95.9481 36.8589 95.5435 37.0881 95.2494 37.3484V31.9303H91.2714ZM95.25 45.3483V40.4383C95.9959 39.8918 96.6682 39.6179 97.266 39.6179C97.8635 39.6179 98.3802 39.9067 98.8163 40.4831C99.2517 41.0589 99.4696 41.8983 99.4696 43.0004C99.4696 44.2545 99.2259 45.1099 98.7388 45.5688C98.2514 46.0274 97.7605 46.2565 97.266 46.2565C96.4827 46.2565 95.8113 45.9541 95.25 45.3483ZM72.3035 31.9311L68.9812 41.6345L65.4057 31.9311H62.1054L58.4631 41.6345L55.2839 31.9311H50.5054L56.995 49.6703H59.6887L63.761 39.3496L67.7345 49.6703H70.4056L77.0274 31.9311H72.3035ZM79.9308 37.2178C78.9582 37.7856 78.2307 38.5686 77.748 39.5656C77.2651 40.5627 77.0238 41.6924 77.0238 42.9547C77.0238 44.234 77.2651 45.378 77.748 46.3877C78.2307 47.3975 78.9582 48.1974 79.9308 48.786C80.9038 49.3752 82.0825 49.67 83.468 49.67C84.7494 49.67 85.8052 49.5287 86.6342 49.2455C87.4635 48.9626 88.1688 48.6483 88.7511 48.301V45.4943C87.1293 46.3435 85.6482 46.7677 84.3069 46.7677C83.5408 46.7677 82.8554 46.5225 82.2511 46.031C81.6468 45.5403 81.2671 44.9075 81.1128 44.1337H89.0387H89.0384V43.2225C89.0384 41.603 88.7639 40.2807 88.2148 39.2561C87.6657 38.2317 86.9661 37.4938 86.1148 37.0427C85.2638 36.5915 84.3814 36.3656 83.468 36.3656C82.0825 36.3656 80.9038 36.6503 79.9308 37.2178ZM81.6156 39.9123C82.0246 39.4119 82.5607 39.1611 83.224 39.1611C83.8949 39.1611 84.409 39.4074 84.7663 39.8999C85.1237 40.3926 85.3024 41.0506 85.3024 41.8755H81.0021C81.0021 41.0678 81.2069 40.4134 81.6156 39.9123Z" fill="#015A9C"/>
<path d="M26.3386 9.84724C24.8497 9.17602 24.493 8.98386 24.4316 8.93307L4.94238 16.9257L24.4592 26.4389C24.4592 26.4389 25.9668 25.8069 28.3938 24.6269C40.3077 18.841 42.8901 4.67883 42.8901 4.67883C42.8901 4.67883 39.9273 15.9699 26.3386 9.84724ZM24.4316 8.93307L24.4592 8.92178C24.4592 8.92178 24.4402 8.91644 24.4289 8.91644C24.4197 8.91644 24.4155 8.92 24.4316 8.93307Z" fill="#86BA0C"/>
<path d="M4 41.4753L22.185 51.3215V30.4135L4 21.1691V41.4753Z" fill="#EF7C00"/>
<path d="M26.2764 30.4145V51.3221L44.4617 41.4763V21.17L26.2764 30.4145Z" fill="#BD1789"/>
</svg>
