<svg width="160" height="56" viewBox="0 0 160 56" fill="none" xmlns="http://www.w3.org/2000/svg">
<path d="M66.3268 19.6741V20.6418H68.0113V21.5736H66.3268V23.3657H65.2874V18.7064H68.1547V19.6741H66.3268Z" fill="#2D2E2C"/>
<path d="M69.2299 23.3657V18.7064H72.348V19.6382H70.3051V20.5342H72.2405V21.4303H70.3051V22.398H72.4555V23.3657H69.2299Z" fill="#2D2E2C"/>
<path d="M77.0431 21.036C77.0431 20.7851 77.0073 20.5701 76.8998 20.3909C76.8281 20.2117 76.6847 20.0683 76.5772 19.9608C76.4339 19.8533 76.2905 19.7816 76.1113 19.7458C75.9321 19.7099 75.7529 19.6741 75.5378 19.6741H74.9644V22.398H75.502C75.717 22.398 75.8962 22.3621 76.0754 22.3263C76.2547 22.2904 76.4339 22.2188 76.5772 22.1112C76.7206 22.0037 76.8281 21.8603 76.8998 21.6811C76.9715 21.5019 77.0431 21.2869 77.0431 21.036ZM78.19 21.036C78.19 21.4303 78.1184 21.7887 77.975 22.0754C77.8316 22.3621 77.6166 22.613 77.3657 22.7922C77.1148 22.9714 76.8281 23.1148 76.5414 23.2223C76.2188 23.3298 75.9321 23.3657 75.6095 23.3657H73.8892V18.7064H75.5378C75.8604 18.7064 76.183 18.7422 76.5055 18.8139C76.8281 18.8856 77.1148 19.0289 77.3657 19.2081C77.6166 19.3873 77.7958 19.6382 77.975 19.925C78.1184 20.2117 78.19 20.5701 78.19 21.036Z" fill="#2D2E2C"/>
<path d="M79.2653 23.3657V18.7064H82.3834V19.6382H80.3405V20.5342H82.2759V21.4303H80.3405V22.398H82.4909V23.3657H79.2653Z" fill="#2D2E2C"/>
<path d="M85.8599 20.14C85.8599 20.0325 85.8241 19.925 85.7883 19.8891C85.7524 19.8174 85.6807 19.7816 85.6091 19.7458C85.5374 19.7099 85.4657 19.6741 85.394 19.6741C85.3223 19.6741 85.2148 19.6382 85.1431 19.6382H84.5697V20.7134H85.0714C85.1431 20.7134 85.2506 20.7134 85.3223 20.6776C85.4299 20.6776 85.5015 20.6418 85.5732 20.6059C85.6449 20.5701 85.7166 20.4984 85.7524 20.4267C85.8599 20.355 85.8599 20.2475 85.8599 20.14ZM85.8958 23.3657L84.9281 21.5019H84.5697V23.3657H83.5661V18.7064H85.2506C85.4657 18.7064 85.6807 18.7422 85.8599 18.7781C86.075 18.8139 86.2542 18.8856 86.3975 19.0289C86.5409 19.1365 86.6843 19.2798 86.7918 19.459C86.8993 19.6382 86.9352 19.8533 86.9352 20.14C86.9352 20.4626 86.8635 20.7134 86.6843 20.9285C86.5409 21.1435 86.29 21.2869 86.0033 21.3944L87.1502 23.3657H85.8958Z" fill="#2D2E2C"/>
<path d="M90.3759 19.9608L89.7666 21.5736H90.9493L90.3759 19.9608ZM91.6303 23.3657L91.2719 22.4338H89.444L89.0856 23.3657H87.867L89.8383 18.7064H90.9493L92.8847 23.3657H91.6303Z" fill="#2D2E2C"/>
<path d="M95.2143 19.6741V23.3657H94.1391V19.6741H92.8847V18.7064H96.4688V19.6741H95.2143Z" fill="#2D2E2C"/>
<path d="M97.544 23.3657H98.6192V18.7064H97.544V23.3657Z" fill="#2D2E2C"/>
<path d="M103.529 21.0002C103.529 20.821 103.494 20.6418 103.422 20.4626C103.35 20.2834 103.278 20.14 103.135 20.0325C103.028 19.925 102.884 19.8174 102.705 19.7458C102.526 19.6741 102.347 19.6382 102.167 19.6382C101.988 19.6382 101.809 19.6741 101.63 19.7458C101.486 19.8174 101.343 19.925 101.2 20.0325C101.092 20.14 100.985 20.2834 100.913 20.4626C100.841 20.6418 100.805 20.821 100.805 21.0002C100.805 21.2152 100.841 21.3944 100.913 21.5378C100.985 21.717 101.056 21.8603 101.2 21.9679C101.307 22.0754 101.451 22.1829 101.63 22.2546C101.773 22.3263 101.952 22.3621 102.167 22.3621C102.382 22.3621 102.526 22.3263 102.705 22.2546C102.848 22.1829 102.992 22.0754 103.135 21.9679C103.243 21.8603 103.35 21.717 103.422 21.5378C103.494 21.3944 103.529 21.2152 103.529 21.0002ZM104.712 21.0002C104.712 21.3586 104.64 21.6811 104.533 21.9679C104.39 22.2546 104.246 22.5055 103.995 22.7205C103.78 22.9356 103.494 23.0789 103.207 23.1865C102.884 23.294 102.562 23.3657 102.203 23.3657C101.845 23.3657 101.522 23.294 101.2 23.1865C100.877 23.0789 100.626 22.8997 100.411 22.7205C100.196 22.5055 100.017 22.2546 99.8736 21.9679C99.7303 21.6811 99.6944 21.3586 99.6944 21.0002C99.6944 20.6418 99.7661 20.3192 99.8736 20.0325C100.017 19.7458 100.16 19.4949 100.411 19.3157C100.626 19.1006 100.913 18.9573 101.2 18.8497C101.522 18.7422 101.845 18.6705 102.203 18.6705C102.562 18.6705 102.884 18.7422 103.207 18.8497C103.529 18.9573 103.78 19.1006 103.995 19.3157C104.21 19.5307 104.39 19.7458 104.533 20.0325C104.64 20.355 104.712 20.6776 104.712 21.0002Z" fill="#2D2E2C"/>
<path d="M108.798 23.3657L106.898 20.3192H106.863L106.898 23.3657H105.787V18.7064H107.078L108.977 21.7528H109.013L108.977 18.7064H110.088V23.3657H108.798Z" fill="#2D2E2C"/>
<path d="M117.149 21.0002C117.149 20.821 117.113 20.6418 117.041 20.4626C116.97 20.2834 116.898 20.14 116.755 20.0325C116.647 19.925 116.504 19.8174 116.324 19.7458C116.145 19.6741 115.966 19.6382 115.787 19.6382C115.608 19.6382 115.428 19.6741 115.249 19.7458C115.106 19.8174 114.963 19.925 114.819 20.0325C114.712 20.14 114.604 20.2834 114.532 20.4626C114.461 20.6418 114.425 20.821 114.425 21.0002C114.425 21.2152 114.461 21.3944 114.532 21.5378C114.604 21.717 114.676 21.8603 114.819 21.9679C114.927 22.0754 115.07 22.1829 115.249 22.2546C115.393 22.3263 115.572 22.3621 115.787 22.3621C115.966 22.3621 116.145 22.3263 116.324 22.2546C116.468 22.1829 116.611 22.0754 116.755 21.9679C116.862 21.8603 116.97 21.717 117.041 21.5378C117.113 21.3944 117.149 21.2152 117.149 21.0002ZM118.332 21.0002C118.332 21.3586 118.26 21.6811 118.152 21.9679C118.009 22.2546 117.866 22.5055 117.615 22.7205C117.4 22.9356 117.113 23.0789 116.826 23.1865C116.504 23.294 116.181 23.3657 115.823 23.3657C115.464 23.3657 115.142 23.294 114.819 23.1865C114.497 23.0789 114.246 22.8997 114.031 22.7205C113.816 22.5055 113.636 22.2546 113.493 21.9679C113.35 21.6811 113.314 21.3586 113.314 21.0002C113.314 20.6418 113.386 20.3192 113.493 20.0325C113.636 19.7458 113.78 19.4949 114.031 19.3157C114.246 19.1006 114.532 18.9573 114.819 18.8497C115.142 18.7422 115.464 18.6705 115.823 18.6705C116.181 18.6705 116.504 18.7422 116.826 18.8497C117.149 18.9573 117.4 19.1006 117.615 19.3157C117.83 19.5307 118.009 19.7458 118.152 20.0325C118.26 20.355 118.332 20.6776 118.332 21.0002Z" fill="#2D2E2C"/>
<path d="M120.446 19.6741V20.6418H122.131V21.5736H120.446V23.3657H119.407V18.7064H122.274V19.6741H120.446Z" fill="#2D2E2C"/>
<path d="M66.506 31.2506C66.3268 31.2506 66.1476 31.2506 65.9684 31.2148C65.7892 31.1789 65.61 31.1431 65.4666 31.0714C65.2874 30.9997 65.1441 30.928 65.0007 30.8563C64.8573 30.7847 64.714 30.6771 64.6064 30.5696L65.5383 29.6019C65.6458 29.7094 65.7892 29.817 65.9684 29.8887C66.1476 29.9603 66.3268 30.032 66.506 30.032C66.5777 30.032 66.6852 30.032 66.7569 29.9962C66.8286 29.9603 66.8644 29.9245 66.8644 29.817C66.8644 29.7811 66.8644 29.7453 66.8286 29.7094C66.7927 29.6736 66.7569 29.6378 66.6852 29.6019C66.6135 29.5661 66.5418 29.5302 66.4343 29.4944C66.3268 29.4586 66.1834 29.4227 66.0401 29.351C65.8967 29.3152 65.7533 29.2435 65.61 29.1718C65.4666 29.1002 65.3591 29.0285 65.2157 28.921C65.1082 28.8134 65.0007 28.7059 64.9649 28.5625C64.8932 28.4192 64.8573 28.24 64.8573 28.0608C64.8573 27.7741 64.929 27.559 65.0365 27.3798C65.1441 27.2006 65.2874 27.0214 65.5025 26.9139C65.6817 26.8064 65.8967 26.6988 66.1118 26.663C66.3268 26.5913 66.5777 26.5913 66.7927 26.5913C67.0794 26.5913 67.402 26.663 67.7246 26.7705C68.0471 26.878 68.298 27.0572 68.5489 27.2723L67.5812 28.2041C67.4737 28.0966 67.3662 27.9891 67.187 27.9174C67.0436 27.8457 66.9002 27.8099 66.7927 27.8099C66.6852 27.8099 66.5777 27.8099 66.506 27.8457C66.4343 27.8816 66.3985 27.9174 66.3985 27.9891C66.3985 28.0608 66.4343 28.0966 66.506 28.1325C66.5777 28.1683 66.6852 28.2041 66.8644 28.24C67.0436 28.2758 67.187 28.3475 67.3662 28.4192C67.5454 28.4909 67.7246 28.5625 67.8679 28.6701C68.0113 28.7776 68.1547 28.921 68.2622 29.0643C68.3697 29.2077 68.4055 29.4227 68.4055 29.6378C68.4055 29.8887 68.3339 30.1395 68.2263 30.3187C68.1188 30.5338 67.9755 30.6771 67.7963 30.8205C67.6171 30.9639 67.402 31.0356 67.187 31.1072C66.9719 31.2148 66.721 31.2506 66.506 31.2506Z" fill="#2D2E2C"/>
<path d="M71.9896 31.2506H70.4126V27.9174H69.2299V26.5913H73.1724V27.9174H71.9896V31.2506Z" fill="#2D2E2C"/>
<path d="M75.502 28.2041L75.1077 29.351H75.8604L75.502 28.2041ZM74.6777 26.5913H76.3622L78.19 31.2506H76.4697L76.2188 30.5696H74.7135L74.4626 31.2506H72.8139L74.6777 26.5913Z" fill="#2D2E2C"/>
<path d="M80.9498 31.2506H79.3728V27.9174H78.19V26.5913H82.1325V27.9174H80.9498V31.2506Z" fill="#2D2E2C"/>
<path d="M82.8493 26.5913H85.9675V27.8816H84.283V28.3117H85.8599V29.5302H84.283V29.9603H86.075V31.2506H82.8493V26.5913Z" fill="#2D2E2C"/>
<path d="M90.6626 28.6342L90.7701 31.2506H89.3006V26.5913H91.3436L92.1679 29.1002H92.2037L92.9205 26.5913H95.0351V31.2506H93.5298L93.5657 28.6342H93.5298L92.6697 31.2506H91.5586L90.6984 28.6342H90.6626Z" fill="#2D2E2C"/>
<path d="M96.4688 26.5913H99.5869V27.8816H97.9024V28.3117H99.4794V29.5302H97.9024V29.9603H99.6944V31.2506H96.4688V26.5913Z" fill="#2D2E2C"/>
<path d="M102.203 29.8887H102.49C102.848 29.8887 103.099 29.817 103.314 29.6378C103.494 29.4944 103.601 29.2077 103.601 28.8493C103.601 28.5625 103.494 28.3117 103.314 28.1325C103.135 27.9533 102.884 27.8816 102.562 27.8816H102.203V29.8887ZM100.77 31.2506V26.5913H102.418C102.777 26.5913 103.099 26.6272 103.422 26.6988C103.744 26.7705 104.031 26.9139 104.282 27.0572C104.533 27.2364 104.712 27.4873 104.855 27.7741C104.999 28.0608 105.071 28.455 105.071 28.8851C105.071 29.2794 104.999 29.6378 104.855 29.9603C104.712 30.2471 104.533 30.4979 104.282 30.6771C104.031 30.8563 103.78 30.9997 103.458 31.1072C103.171 31.2148 102.848 31.2506 102.49 31.2506H100.77Z" fill="#2D2E2C"/>
<path d="M106.146 31.2506H107.579V26.5913H106.146V31.2506Z" fill="#2D2E2C"/>
<path d="M109.013 28.921C109.013 28.5625 109.085 28.24 109.192 27.9533C109.336 27.6665 109.515 27.4156 109.73 27.2006C109.945 26.9856 110.232 26.8422 110.518 26.7347C110.841 26.6272 111.163 26.5555 111.486 26.5555C111.844 26.5555 112.167 26.6272 112.49 26.7347C112.812 26.8422 113.063 26.9856 113.278 27.1648L112.346 28.2758C112.274 28.1683 112.167 28.0966 112.024 28.0249C111.88 27.9533 111.737 27.9533 111.594 27.9533C111.45 27.9533 111.343 27.9891 111.235 28.0249C111.128 28.0608 111.02 28.1325 110.948 28.2041C110.877 28.2758 110.805 28.3833 110.733 28.4909C110.697 28.5984 110.662 28.7418 110.662 28.8851C110.662 29.0285 110.697 29.1718 110.733 29.2794C110.769 29.3869 110.841 29.4944 110.948 29.5661C111.02 29.6378 111.128 29.7094 111.235 29.7453C111.343 29.7811 111.45 29.817 111.594 29.817C111.773 29.817 111.916 29.7811 112.059 29.7094C112.203 29.6378 112.274 29.5661 112.346 29.4586L113.278 30.5338C113.063 30.7488 112.812 30.8922 112.525 30.9997C112.239 31.1072 111.88 31.1789 111.486 31.1789C111.128 31.1789 110.805 31.1072 110.518 30.9997C110.232 30.8922 109.945 30.713 109.73 30.5338C109.515 30.3187 109.336 30.0679 109.192 29.7811C109.085 29.6019 109.013 29.2794 109.013 28.921Z" fill="#2D2E2C"/>
<path d="M116.36 28.2041L115.966 29.351H116.719L116.36 28.2041ZM115.536 26.5913H117.22L119.048 31.2506H117.328L117.077 30.5696H115.572L115.321 31.2506H113.672L115.536 26.5913Z" fill="#2D2E2C"/>
<path d="M119.407 26.5913H121.02V29.8887H122.632V31.2506H119.407V26.5913Z" fill="#2D2E2C"/>
<path d="M126.969 29.3869V30.032H127.435C127.543 30.032 127.65 29.9962 127.722 29.9603C127.793 29.8887 127.829 29.817 127.829 29.7094C127.829 29.6378 127.829 29.6019 127.793 29.5661C127.758 29.5302 127.722 29.4944 127.686 29.4586C127.65 29.4227 127.578 29.4227 127.543 29.4227C127.471 29.4227 127.435 29.4227 127.399 29.4227H126.969V29.3869ZM126.969 28.3833H127.399C127.507 28.3833 127.614 28.3475 127.686 28.3117C127.758 28.2758 127.793 28.1683 127.793 28.0608C127.793 27.9891 127.758 27.9174 127.686 27.8457C127.614 27.8099 127.507 27.7741 127.399 27.7741H126.969V28.3833ZM128.546 28.8134C128.654 28.8493 128.761 28.8851 128.869 28.9568C128.976 29.0285 129.084 29.1002 129.155 29.1718C129.227 29.2794 129.299 29.351 129.37 29.4944C129.406 29.6019 129.442 29.7453 129.442 29.8887C129.442 30.1395 129.406 30.3546 129.299 30.5338C129.191 30.713 129.048 30.8563 128.905 30.9639C128.725 31.0714 128.546 31.1431 128.331 31.1789C128.116 31.2148 127.901 31.2506 127.65 31.2506H125.5V26.5913H127.435C127.614 26.5913 127.829 26.5913 128.044 26.6272C128.259 26.663 128.439 26.6988 128.654 26.8064C128.833 26.878 128.976 27.0214 129.12 27.1648C129.227 27.344 129.299 27.559 129.299 27.8099C129.299 28.0608 129.227 28.2758 129.12 28.4192C128.94 28.5984 128.761 28.7418 128.546 28.8134Z" fill="#2D2E2C"/>
<path d="M131.772 28.8851C131.772 29.0285 131.808 29.1718 131.843 29.2794C131.879 29.3869 131.951 29.4944 132.023 29.6019C132.094 29.6736 132.202 29.7453 132.309 29.817C132.417 29.8528 132.524 29.8887 132.668 29.8887C132.811 29.8887 132.919 29.8528 133.026 29.817C133.134 29.7811 133.241 29.7094 133.313 29.6019C133.385 29.5302 133.456 29.4227 133.492 29.2794C133.528 29.1718 133.564 29.0285 133.564 28.8851C133.564 28.7418 133.528 28.5984 133.492 28.4909C133.456 28.3833 133.385 28.2758 133.313 28.2041C133.241 28.1325 133.134 28.0608 133.026 28.0249C132.919 27.9891 132.811 27.9533 132.668 27.9533C132.524 27.9533 132.417 27.9891 132.309 28.0249C132.202 28.0608 132.094 28.1325 132.023 28.2041C131.951 28.2758 131.879 28.3833 131.843 28.4909C131.808 28.6342 131.772 28.7418 131.772 28.8851ZM130.159 28.8851C130.159 28.5267 130.231 28.2041 130.338 27.9174C130.482 27.6307 130.625 27.3798 130.876 27.2006C131.091 26.9856 131.378 26.8422 131.664 26.7347C131.987 26.6272 132.309 26.5555 132.668 26.5555C133.026 26.5555 133.349 26.6272 133.671 26.7347C133.994 26.8422 134.245 26.9856 134.46 27.2006C134.675 27.4156 134.854 27.6307 134.997 27.9174C135.141 28.2041 135.177 28.5267 135.177 28.8851C135.177 29.2435 135.105 29.5661 134.997 29.8528C134.854 30.1395 134.711 30.3904 134.46 30.6055C134.245 30.8205 133.958 30.9639 133.671 31.0714C133.349 31.1789 133.026 31.2506 132.668 31.2506C132.309 31.2506 131.987 31.1789 131.664 31.0714C131.342 30.9639 131.091 30.7847 130.876 30.6055C130.661 30.3904 130.482 30.1395 130.338 29.8528C130.231 29.5661 130.159 29.2435 130.159 28.8851Z" fill="#2D2E2C"/>
<path d="M138.582 28.2041L138.187 29.351H138.94L138.582 28.2041ZM137.757 26.5913H139.442L141.27 31.2506H139.549L139.298 30.5696H137.793L137.578 31.2506H135.893L137.757 26.5913Z" fill="#2D2E2C"/>
<path d="M143.492 28.5625H143.814C143.85 28.5625 143.922 28.5625 143.993 28.5625C144.065 28.5625 144.101 28.5267 144.173 28.4909C144.244 28.455 144.28 28.4192 144.316 28.3833C144.352 28.3475 144.388 28.2758 144.388 28.1683C144.388 28.0966 144.388 28.0249 144.352 27.9533C144.316 27.9174 144.28 27.8816 144.244 27.8457C144.208 27.8099 144.137 27.8099 144.101 27.8099C144.029 27.8099 143.993 27.8099 143.958 27.8099H143.599V28.5625H143.492ZM141.986 26.5913H144.029C144.244 26.5913 144.495 26.6272 144.71 26.663C144.925 26.6988 145.14 26.8064 145.32 26.9139C145.499 27.0214 145.642 27.2006 145.75 27.3798C145.857 27.559 145.929 27.8099 145.929 28.0966C145.929 28.3833 145.857 28.6342 145.714 28.8493C145.57 29.0643 145.355 29.2435 145.105 29.351L146.287 31.2506H144.459L143.563 29.6019H143.528V31.2506H141.986V26.5913Z" fill="#2D2E2C"/>
<path d="M148.438 29.8887H148.724C149.083 29.8887 149.334 29.817 149.549 29.6378C149.728 29.4944 149.835 29.2077 149.835 28.8493C149.835 28.5625 149.728 28.3117 149.549 28.1325C149.37 27.9533 149.119 27.8816 148.796 27.8816H148.438V29.8887ZM147.004 31.2506V26.5913H148.653C149.011 26.5913 149.334 26.6272 149.656 26.6988C149.979 26.7705 150.266 26.9139 150.516 27.0572C150.767 27.2364 150.947 27.4873 151.09 27.7741C151.233 28.0608 151.305 28.455 151.305 28.8851C151.305 29.2794 151.233 29.6378 151.09 29.9603C150.947 30.2471 150.767 30.4979 150.516 30.6771C150.266 30.8563 150.015 30.9997 149.692 31.1072C149.405 31.2148 149.083 31.2506 148.724 31.2506H147.004Z" fill="#2D2E2C"/>
<path d="M153.957 31.2506C153.778 31.2506 153.599 31.2506 153.42 31.2148C153.24 31.1789 153.061 31.1431 152.918 31.0714C152.739 30.9997 152.595 30.928 152.452 30.8563C152.308 30.7847 152.165 30.6771 152.058 30.5696L152.989 29.6019C153.097 29.7094 153.24 29.817 153.42 29.8887C153.599 29.9603 153.778 30.032 153.957 30.032C154.029 30.032 154.136 30.032 154.208 29.9962C154.28 29.9603 154.316 29.9245 154.316 29.817C154.316 29.7811 154.316 29.7453 154.28 29.7094C154.244 29.6736 154.208 29.6378 154.136 29.6019C154.065 29.5661 153.993 29.5302 153.885 29.4944C153.778 29.4586 153.635 29.4227 153.491 29.351C153.348 29.3152 153.204 29.2435 153.061 29.1718C152.918 29.1002 152.81 29.0285 152.667 28.921C152.559 28.8134 152.452 28.7059 152.416 28.5625C152.344 28.4192 152.308 28.24 152.308 28.0608C152.308 27.7741 152.38 27.559 152.488 27.3798C152.595 27.2006 152.739 27.0214 152.954 26.9139C153.133 26.8064 153.348 26.6988 153.563 26.663C153.778 26.5913 154.029 26.5913 154.244 26.5913C154.531 26.5913 154.853 26.663 155.176 26.7705C155.498 26.878 155.749 27.0572 156 27.2723L155.032 28.2041C154.925 28.0966 154.817 27.9891 154.638 27.9174C154.495 27.8457 154.351 27.8099 154.244 27.8099C154.136 27.8099 154.029 27.8099 153.957 27.8457C153.885 27.8816 153.85 27.9174 153.85 27.9891C153.85 28.0608 153.885 28.0966 153.957 28.1325C154.029 28.1683 154.136 28.2041 154.316 28.24C154.495 28.2758 154.638 28.3475 154.817 28.4192C154.997 28.4909 155.176 28.5625 155.319 28.6701C155.462 28.7776 155.606 28.921 155.713 29.0643C155.821 29.2077 155.857 29.4227 155.857 29.6378C155.857 29.8887 155.785 30.1395 155.678 30.3187C155.57 30.5338 155.427 30.6771 155.247 30.8205C155.068 30.9639 154.853 31.0356 154.638 31.1072C154.423 31.2148 154.172 31.2506 153.957 31.2506Z" fill="#2D2E2C"/>
<path d="M26.5802 11.1799C24.9673 13.868 24.9315 14.2622 24.0713 17.6312L24.9673 16.9503L26.5802 11.1799Z" fill="#EB9130"/>
<path d="M30.0567 8.02593C31.1678 8.1693 51.2385 10.8573 57.2597 14.3697C55.6828 26.1613 50.1991 37.0569 35.6478 41.6086C30.8452 40.2467 27.6912 36.4476 26.1859 31.5374H22.9961C23.7487 37.8453 27.2253 43.2573 33.4616 48.0599C54.2491 43.544 60.7004 29.7812 63.496 9.63876C50.7726 8.31266 41.3107 7.70337 30.0567 8.02593Z" fill="#EB9130"/>
<path d="M6.07876 22.8638H4V20.355H6.07876V18.5629C6.07876 17.9895 6.1146 17.4877 6.22212 16.986C6.32964 16.4842 6.50884 16.0541 6.79557 15.6599C7.08229 15.2656 7.47654 14.9789 8.01415 14.7638C8.55176 14.5488 9.23273 14.4413 10.0929 14.4413C10.4155 14.4413 10.738 14.4413 11.0606 14.4771C11.3832 14.513 11.6699 14.5488 11.9566 14.6205L11.8133 17.2727C11.6341 17.201 11.4549 17.1652 11.3115 17.1293C11.1681 17.0935 10.9889 17.0935 10.7739 17.0935C10.2721 17.0935 9.87786 17.201 9.62698 17.416C9.37609 17.6311 9.23273 18.0612 9.23273 18.7422V20.355H13.3186L11.5982 22.8638H9.26857V30.5337H6.07876V22.8638Z" fill="#3377AA"/>
<path d="M19.2681 23.4014C18.8022 22.828 18.2287 22.5413 17.4761 22.5413C17.2252 22.5413 16.9743 22.6129 16.7234 22.7205C16.4725 22.8638 16.365 23.0789 16.365 23.3656C16.365 23.6165 16.5084 23.7957 16.7593 23.939C17.0101 24.0466 17.3327 24.1541 17.727 24.2616C18.1212 24.3691 18.5513 24.4408 18.9814 24.5483C19.4473 24.6559 19.8416 24.8351 20.2358 25.0501C20.6301 25.2651 20.9526 25.5877 21.2035 25.982C21.4544 26.3762 21.5977 26.878 21.5977 27.5231C21.5977 28.1682 21.4544 28.7417 21.1677 29.1718C20.8809 29.6019 20.5225 29.9603 20.0924 30.2112C19.6624 30.462 19.1606 30.6412 18.5871 30.7488C18.0137 30.8563 17.4402 30.8921 16.9026 30.8921C16.1858 30.8921 15.469 30.7846 14.7522 30.5696C14.0354 30.3545 13.4261 29.9961 12.9243 29.4943L14.8239 27.3797C15.1106 27.7382 15.4332 28.0249 15.7916 28.2041C16.15 28.3833 16.5442 28.4908 17.0101 28.4908C17.3686 28.4908 17.6911 28.455 17.9778 28.3474C18.2646 28.2399 18.4079 28.0607 18.4079 27.774C18.4079 27.5231 18.2646 27.3081 18.0137 27.1647C17.7628 27.0213 17.4402 26.9138 17.046 26.8421C16.6517 26.7346 16.2217 26.6629 15.7916 26.5554C15.3256 26.4479 14.9314 26.3045 14.5371 26.0895C14.1429 25.8744 13.8203 25.5877 13.5694 25.1935C13.3186 24.7992 13.1752 24.2974 13.1752 23.6523C13.1752 23.043 13.2827 22.5413 13.5336 22.0753C13.7845 21.6452 14.1071 21.2868 14.5013 21.0001C14.8956 20.7134 15.3615 20.4983 15.8632 20.3908C16.365 20.2475 16.9026 20.1758 17.4044 20.1758C18.0854 20.1758 18.7305 20.2833 19.4115 20.4625C20.0924 20.6417 20.6659 21.0001 21.1318 21.5019L19.2681 23.4014Z" fill="#3377AA"/>
<path d="M22.9955 21.6811L26.042 19.4231V22.0036H26.0778C26.1854 21.7886 26.3287 21.6094 26.5079 21.3944C26.6871 21.1793 26.9022 21.036 27.153 20.8567C27.4039 20.7134 27.6907 20.57 28.0132 20.4625C28.3358 20.355 28.6942 20.3191 29.0526 20.3191C29.7694 20.3191 30.4145 20.4625 30.9522 20.7492C31.5256 21.036 31.9199 21.5019 32.2066 22.147C32.565 21.5019 33.0309 21.0001 33.5327 20.7134C34.0703 20.4267 34.6796 20.2833 35.4681 20.2833C36.149 20.2833 36.7225 20.3908 37.2243 20.6417C37.6902 20.8567 38.0844 21.1793 38.3353 21.6094C38.6221 22.0036 38.8013 22.4696 38.9088 23.043C39.0163 23.5806 39.088 24.1541 39.088 24.7992V30.8921H35.934V24.9067C35.934 24.4408 35.8265 24.0107 35.6114 23.6523C35.3964 23.2939 35.038 23.1505 34.5362 23.1505C34.1778 23.1505 33.8552 23.2222 33.6044 23.3298C33.3535 23.4373 33.1743 23.6165 33.0309 23.8315C32.8876 24.0466 32.78 24.2975 32.7083 24.5842C32.6367 24.8709 32.6008 25.1576 32.6008 25.4802V30.8921H29.4468V25.4444C29.4468 25.2651 29.4468 25.0501 29.411 24.7634C29.411 24.5125 29.3393 24.2258 29.2676 24.0107C29.196 23.7598 29.0526 23.5806 28.8734 23.4014C28.6942 23.2222 28.4075 23.1505 28.0491 23.1505C27.6548 23.1505 27.2964 23.2222 27.0455 23.3656C26.7946 23.509 26.6154 23.724 26.4721 23.9749C26.3287 24.2258 26.257 24.5125 26.2212 24.7992C26.1854 25.1218 26.1495 25.4444 26.1495 25.7669V30.8921H22.9955V21.6811Z" fill="#3377AA"/>
<path d="M44.1773 25.516C44.1773 26.3045 44.3924 26.9138 44.8583 27.3797C45.2884 27.8457 45.9335 28.0966 46.722 28.0966C47.5105 28.0966 48.1557 27.8457 48.5857 27.3797C49.0158 26.9138 49.2309 26.2687 49.2309 25.516C49.2309 24.7275 49.0158 24.1182 48.5857 23.6523C48.1557 23.1864 47.5105 22.9355 46.722 22.9355C45.9335 22.9355 45.2884 23.1864 44.8583 23.6523C44.3924 24.1182 44.1773 24.7634 44.1773 25.516ZM41.2743 14.728L44.4282 12.6134V21.5019H44.4641C44.8225 21.0001 45.2884 20.6775 45.8619 20.4625C46.4353 20.2475 47.0446 20.1399 47.6897 20.1399C48.4065 20.1399 49.0875 20.2833 49.661 20.6059C50.2344 20.8926 50.7362 21.3227 51.1304 21.8244C51.5247 22.3262 51.8472 22.8997 52.0623 23.5448C52.2773 24.1899 52.3849 24.8709 52.3849 25.5877C52.3849 26.3762 52.2773 27.0572 52.0264 27.7023C51.7756 28.3474 51.453 28.9209 51.0229 29.3868C50.5928 29.8527 50.0552 30.2112 49.4459 30.4979C48.8366 30.7488 48.1557 30.8921 47.3672 30.8921C47.0088 30.8921 46.6504 30.8563 46.3278 30.7488C46.0052 30.6412 45.7185 30.5337 45.4318 30.3545C45.145 30.2112 44.93 30.0319 44.715 29.8527C44.4999 29.6735 44.3566 29.4943 44.2132 29.2793H44.1773V30.6412H41.2743V14.728Z" fill="#3377AA"/>
</svg>
