<svg width="160" height="72" viewBox="0 0 160 72" fill="none" xmlns="http://www.w3.org/2000/svg">
<path d="M118.175 6.9043H119.754C125.823 14.9978 129.413 25.021 129.413 35.8746C129.413 46.7309 125.821 56.7565 119.75 64.851L119.565 65.0957H117.977C124.356 57.0436 128.158 46.8983 128.158 35.8746C128.158 25.0741 124.508 15.1169 118.362 7.14525L118.175 6.9043H119.754H118.175ZM40.7475 6.9043H42.3269C36.0676 14.9158 32.3432 24.9651 32.3432 35.8746C32.3432 46.7881 36.0702 56.8406 42.3337 64.8535L42.5243 65.0957H40.9368C34.7538 56.959 31.0891 46.8406 31.0891 35.8746C31.0891 25.1295 34.6076 15.1983 40.5662 7.14768L40.7475 6.9043H42.3269H40.7475ZM26.5743 15.1815L5.77888 36L26.5743 56.8185H24.7954L4 36L24.7954 15.1815H26.5743ZM135.205 15.1815L156 36L135.205 56.8185H133.426L154.221 36L133.426 15.1815H135.205ZM73.7435 15.1815V48.5204C73.7435 50.8196 74.3104 52.544 75.4442 53.6936C76.578 54.8432 77.9711 55.418 79.6238 55.418C81.2764 55.418 82.6696 54.8432 83.8033 53.6936C84.9371 52.544 85.504 50.8196 85.504 48.5204V15.1815H86.7723V48.6928C86.7723 51.222 86.0421 53.2146 84.5816 54.6708C83.3133 55.9354 81.6607 56.5677 79.6238 56.5677C77.5868 56.5677 75.9342 55.9354 74.6659 54.6708C73.9741 53.981 73.4361 53.138 73.0517 52.1416C72.6674 51.1453 72.4752 49.9957 72.4752 48.6928V15.1815H73.7435ZM57.2771 15.1815C58.1219 15.1815 58.9954 15.2772 59.8978 15.4686C60.8001 15.66 61.6257 16.129 62.3744 16.8755C63.1232 17.622 63.728 18.7225 64.1887 20.1772C64.6495 21.6319 64.8799 23.6226 64.8799 26.1491C64.8799 27.9101 64.7455 29.4126 64.4767 30.6568C64.2079 31.9009 63.8335 32.9249 63.3536 33.7288C62.8736 34.5328 62.3072 35.1548 61.6545 35.5951C61.0017 36.0353 60.2913 36.332 59.5234 36.4851L66.2046 56.066H64.7071L58.1411 36.7148H51.9206V56.066H50.6535V15.1815H57.2771ZM95.8155 15.1815L103.253 40.2901L110.639 15.1815H111.907V56.066H110.639V20.0744L103.772 42.4721H102.735L95.8155 20.0744V56.066H94.5479V15.1815H95.8155ZM57.3347 16.33H51.9206V35.5663H57.3347C59.485 35.5663 61.0689 34.8486 62.0864 33.413C63.104 31.9775 63.6128 29.5562 63.6128 26.1491C63.6128 22.7038 63.1424 20.206 62.2016 18.6556C61.2609 17.1052 59.6386 16.33 57.3347 16.33Z" fill="url(#paint0_linear_121_639)"/>
<defs>
<linearGradient id="paint0_linear_121_639" x1="80" y1="6.9043" x2="80" y2="65.0957" gradientUnits="userSpaceOnUse">
<stop stop-color="#883030"/>
<stop offset="1" stop-color="#FF6565"/>
</linearGradient>
</defs>
</svg>
