<svg width="176" height="48" viewBox="0 0 176 48" fill="none" xmlns="http://www.w3.org/2000/svg">
<path d="M59.8345 19.6419C59.8345 16.789 57.0603 13.759 52.2595 13.759C46.8684 13.759 40.9462 17.7137 40.0411 25.6035C39.1163 33.5721 44.0745 37.1136 49.0721 37.1136C54.0696 37.1136 56.6864 35.1658 59.3623 32.5686C57.0603 29.6763 54.0893 31.0143 53.5187 31.3094C52.8891 31.6242 52.0824 32.0571 50.4297 32.0571C48.5015 32.0571 46.534 31.1913 46.534 27.5908C58.8901 26.3709 59.8345 22.4948 59.8345 19.6419ZM53.7155 20.1141C53.6368 20.9995 53.2826 22.5145 47.0258 23.3605C48.3441 18.6778 50.8625 18.3237 52.0234 18.3237C53.1055 18.3237 53.7942 19.1697 53.7155 20.1141ZM32.7809 20.8815C32.7809 20.8815 30.1247 29.2238 29.9083 29.9124C29.8296 29.2041 27.8817 14.2312 27.8817 14.2312C23.3564 14.2312 20.9363 17.4579 19.6574 20.8618C19.6574 20.8618 16.4307 29.2238 16.1552 29.9321C16.1355 29.2828 15.6633 20.9602 15.6633 20.9602C15.3879 16.789 11.5708 14.2509 8.48181 14.2509L12.2201 36.9365C16.9619 36.9169 19.5197 33.7098 20.8576 30.306C20.8576 30.306 23.7105 22.9277 23.8286 22.5932C23.8483 22.908 25.8748 36.9365 25.8748 36.9365C30.6363 36.9365 33.1941 33.9262 34.5713 30.6404L41.2413 14.2509C36.5389 14.2509 34.0598 17.4579 32.7809 20.8815ZM77.3062 13.7196C74.3746 13.7196 72.1316 15.3133 70.2428 17.6547V17.635L71.9348 4C68.0391 4 64.8714 7.38416 64.2614 12.4211L61.3101 36.7595C63.5531 36.7595 65.9338 36.1102 67.2127 34.4575C68.3539 35.9331 70.0657 37.1136 72.6038 37.1136C79.1754 37.1136 83.681 29.4796 83.681 22.3178C83.6417 15.7855 80.4739 13.7196 77.3062 13.7196ZM76.6963 25.4265C76.0076 29.4206 73.7843 32.1358 71.6397 32.1358C69.4754 32.1358 68.5507 31.1717 68.5507 31.1717C68.9639 27.6695 69.2196 25.5248 70.0067 23.6754C70.7937 21.8259 72.6628 18.8746 74.6107 18.8746C76.5192 18.8746 77.3849 21.4127 76.6963 25.4265ZM100.09 14.2509H95.5059L95.5256 14.0148C95.8404 11.0241 96.5487 9.45007 98.8901 9.19429C100.484 9.03689 101.192 8.21053 101.369 7.30546C101.507 6.59715 101.94 4.13773 101.94 4.13773C92.7317 4.0787 89.8394 8.05312 89.0918 14.1131L89.0721 14.2509H88.9737C87.4784 14.2509 85.8256 15.9429 85.5502 18.0876L85.4518 18.8746H88.5212L85.9437 40.1633L85.1567 43.9803C85.2551 43.9803 85.3731 44 85.4715 44C89.7804 43.8426 92.5349 40.4388 93.1449 35.5002L95.1518 18.8746H96.5881C98.0047 18.8746 99.6574 17.4579 99.9525 15.0969L100.09 14.2509ZM123.937 13.8574C118.644 13.8574 113.647 17.7531 112.112 23.8721C110.577 29.9911 112.899 37.2317 120.69 37.2317C128.462 37.2317 132.948 29.696 132.948 23.4196C132.948 17.1825 128.718 13.8574 123.937 13.8574ZM126.081 25.2297C125.806 28.0039 124.586 32.2145 121.241 32.2145C117.877 32.2145 118.349 27.2956 118.683 24.9543C119.038 22.4555 120.435 18.8942 123.445 18.8942C126.14 18.8942 126.396 22.1013 126.081 25.2297ZM159.097 20.8815C159.097 20.8815 156.44 29.2238 156.224 29.9124C156.145 29.2041 154.197 14.2312 154.197 14.2312C149.672 14.2312 147.252 17.4579 145.973 20.8618C145.973 20.8618 142.746 29.2238 142.471 29.9321C142.451 29.2828 141.979 20.9602 141.979 20.9602C141.704 16.789 137.887 14.2509 134.798 14.2509L138.516 36.9365C143.258 36.9169 145.816 33.7098 147.154 30.306C147.154 30.306 150.007 22.9277 150.105 22.5932C150.125 22.908 152.151 36.9365 152.151 36.9365C156.913 36.9365 159.471 33.9262 160.848 30.6404L167.518 14.2509C162.835 14.2509 160.356 17.4579 159.097 20.8815ZM104.419 4.13773L100.562 35.2445L99.7755 39.0812C99.8738 39.0812 99.9919 39.1008 100.09 39.1008C104.242 39.0418 107.193 35.4019 107.744 30.8175L109.967 12.972C110.636 7.52189 107.39 4.13773 104.419 4.13773Z" fill="#4353FF"/>
</svg>
