<svg width="236" height="48" viewBox="0 0 236 48" fill="none" xmlns="http://www.w3.org/2000/svg">
<path fill-rule="evenodd" clip-rule="evenodd" d="M78.1862 17.582C78.1878 17.5904 78.1894 17.5989 78.191 17.6074H78.1883C78.1907 17.619 78.1936 17.6297 78.1964 17.6403C78.2001 17.6537 78.2037 17.667 78.2061 17.6818C78.2152 17.7561 78.2211 17.8304 78.2211 17.9064V30.0943C78.2211 30.1702 78.2158 30.2446 78.2061 30.3189C78.2043 30.3351 78.2011 30.3508 78.1978 30.3665C78.196 30.3754 78.1942 30.3843 78.1926 30.3932C78.1834 30.4417 78.1748 30.4902 78.1624 30.5376C78.1544 30.5656 78.1447 30.5931 78.1355 30.6211C78.122 30.6631 78.108 30.7051 78.0913 30.7466C78.0821 30.7684 78.0719 30.7899 78.0617 30.8113C78.0588 30.8174 78.0559 30.8235 78.0531 30.8296C78.0348 30.8683 78.0159 30.9066 77.9944 30.9443C77.9787 30.9707 77.962 30.9971 77.9453 31.0229C77.9222 31.0585 77.8985 31.0935 77.8726 31.1274C77.8538 31.1533 77.8344 31.1775 77.8139 31.2018C77.787 31.2341 77.7584 31.2648 77.7288 31.295C77.7062 31.3176 77.6836 31.3408 77.6599 31.3618C77.6286 31.3898 77.5957 31.4172 77.5624 31.4436C77.5365 31.4636 77.5112 31.4835 77.4842 31.5024C77.4806 31.5049 77.4772 31.5076 77.4738 31.5103C77.4679 31.5148 77.4621 31.5193 77.4557 31.5234L59.1744 43.7107C58.8857 43.903 58.5549 43.9984 58.221 44C57.887 44.0016 57.5562 43.9046 57.2675 43.7107L38.9911 31.5169C38.9854 31.5143 38.9811 31.5102 38.9767 31.506C38.9728 31.5022 38.969 31.4984 38.9641 31.4959C38.9517 31.4837 38.9371 31.4732 38.9219 31.4623C38.9109 31.4544 38.8996 31.4463 38.8887 31.4372C38.8718 31.4225 38.8546 31.4082 38.8375 31.3939C38.822 31.381 38.8066 31.3681 38.7917 31.3553C38.7723 31.3436 38.7559 31.3263 38.74 31.3095C38.7339 31.303 38.7278 31.2966 38.7217 31.2907C38.6928 31.2651 38.6687 31.2366 38.6442 31.2077C38.6413 31.2043 38.6384 31.2009 38.6355 31.1975C38.6319 31.1931 38.6283 31.1888 38.6247 31.1846C38.6076 31.1641 38.5919 31.1455 38.5763 31.1231C38.5493 31.0908 38.524 31.0585 38.5009 31.0208C38.4847 30.996 38.4675 30.9691 38.4524 30.9421C38.4308 30.9028 38.4109 30.8651 38.3931 30.8274C38.3874 30.8131 38.3804 30.7989 38.3733 30.7846C38.367 30.7719 38.3608 30.7593 38.3554 30.7466C38.3393 30.7073 38.3258 30.6642 38.3123 30.6211C38.3016 30.5915 38.2929 30.5645 38.2854 30.5376C38.271 30.4945 38.2635 30.4514 38.2559 30.4083C38.255 30.4029 38.254 30.3975 38.2531 30.3922C38.2511 30.3826 38.2489 30.3736 38.2467 30.3647C38.243 30.3496 38.2393 30.3348 38.2369 30.3178C38.2261 30.244 38.2208 30.1686 38.2208 30.0932V17.9031C38.2208 17.8272 38.2261 17.7529 38.2358 17.6785C38.2381 17.6605 38.2418 17.6431 38.2455 17.6256C38.2469 17.6185 38.2484 17.6114 38.2498 17.6042C38.2585 17.5552 38.2676 17.5072 38.28 17.4598C38.285 17.443 38.291 17.4252 38.2971 17.4069C38.3002 17.3977 38.3033 17.3884 38.3064 17.379C38.3199 17.337 38.3344 17.295 38.3511 17.2541C38.3598 17.2326 38.37 17.2111 38.3802 17.1899C38.3833 17.1834 38.3863 17.177 38.3894 17.1706C38.4071 17.1329 38.426 17.0946 38.4475 17.0574C38.4632 17.03 38.4799 17.0041 38.4966 16.9777C38.5197 16.9416 38.5434 16.9072 38.5693 16.8732C38.5881 16.8463 38.6075 16.822 38.628 16.7978C38.6555 16.7655 38.6835 16.7348 38.7136 16.7046C38.7357 16.6814 38.7583 16.6588 38.782 16.6373C38.8133 16.6098 38.8462 16.5829 38.8796 16.5565C38.8835 16.5534 38.8874 16.5504 38.8914 16.5474C38.9132 16.5305 38.9348 16.5137 38.9577 16.4978C38.9623 16.4946 38.9666 16.4911 38.9707 16.4878C38.9757 16.4837 38.9806 16.4797 38.9862 16.4762L57.2675 4.28886C57.8444 3.90371 58.5969 3.90371 59.1739 4.28886L77.4541 16.4768C77.4597 16.4803 77.4648 16.4843 77.4699 16.4884C77.4741 16.4918 77.4783 16.4951 77.4826 16.4983C77.5037 16.5126 77.5237 16.5282 77.5438 16.5439C77.5494 16.5483 77.5551 16.5527 77.5607 16.557C77.5947 16.5829 77.627 16.6098 77.6582 16.6384C77.6819 16.6604 77.7046 16.6831 77.7272 16.7057C77.7563 16.7359 77.7854 16.7666 77.8123 16.7989C77.8328 16.8231 77.8521 16.8474 77.871 16.8727C77.8969 16.9066 77.9206 16.9416 77.9437 16.9772C77.9473 16.9829 77.951 16.9885 77.9546 16.9942C77.9678 17.0148 77.9809 17.0354 77.9928 17.0569C78.0143 17.0941 78.0331 17.1323 78.0515 17.1711C78.0541 17.1767 78.0568 17.1824 78.0594 17.188C78.0698 17.2099 78.0803 17.2319 78.0897 17.2546C78.1064 17.2955 78.1204 17.3375 78.1339 17.3796C78.1366 17.3878 78.1393 17.3959 78.142 17.404C78.1486 17.4235 78.1551 17.4429 78.1608 17.4631C78.1715 17.5022 78.1788 17.542 78.1862 17.582ZM52.1415 24.0003L58.2204 28.0662L64.2998 24.0003L58.2204 19.9339L52.1415 24.0003ZM49.0501 21.9324L56.5021 16.9481V8.93056L43.0348 17.9085L49.0501 21.9324ZM41.6591 26.8757L45.9587 23.9998L41.6591 21.1238V26.8757ZM56.5021 31.0531L49.0501 26.0694V26.0683L43.0348 30.0916L56.5021 39.0706V31.0531ZM67.3912 26.0683L59.9393 31.052V39.0696L73.4071 30.0916L67.3912 26.0683ZM70.4835 24.0003L74.7828 26.8768V21.1244L70.4835 24.0003ZM59.9393 16.9486L67.3912 21.9324L73.4071 17.9085L59.9393 8.93056V16.9486Z" fill="#CCCCCC"/>
<path d="M21.1165 13.8212C23.6034 13.8216 25.8824 14.7211 27.6543 16.2069L30.0632 13.3358C27.6414 11.3002 24.5203 10.071 21.1159 10.071C13.4351 10.071 7.18652 16.3195 7.18652 23.9998C7.18652 31.6812 13.4351 37.9298 21.1165 37.9276C24.5209 37.9276 27.6419 36.6984 30.0637 34.6628L27.6548 31.7917C25.8848 33.2789 23.6035 34.1774 21.1159 34.1774C15.5036 34.1774 10.9373 29.6117 10.9373 23.9998C10.9367 18.388 15.5036 13.8201 21.1165 13.8212Z" fill="#CCCCCC"/>
<path fill-rule="evenodd" clip-rule="evenodd" d="M98.216 10.8752H90.7177C89.6824 10.8752 88.8431 11.715 88.8431 12.7498V35.2494C88.8431 36.2837 89.6835 37.124 90.7177 37.124H98.2176C105.455 37.124 111.342 31.2363 111.342 23.9993C111.342 16.7613 105.456 10.8736 98.216 10.8752ZM98.216 33.3748H92.5928V14.6254H98.2176C103.387 14.6254 107.59 18.8324 107.59 24.0004C107.593 29.1722 103.387 33.3738 98.216 33.3748Z" fill="#CCCCCC"/>
<path d="M121.495 35.2498V12.7502H121.497C121.497 11.7138 122.335 10.8735 123.37 10.8757H138.995V14.6253H125.245V22.1247H133.995V25.8743H125.245V33.3747H138.995V37.1244H123.37C122.335 37.1244 121.495 36.2841 121.495 35.2498Z" fill="#CCCCCC"/>
<path d="M178.251 12.7502V35.2498C178.251 36.2841 179.091 37.1244 180.125 37.1244H195.75V33.3747H182V25.8743H190.751V22.1247H182V14.6253H195.75V10.8757H180.126C179.09 10.8735 178.251 11.7138 178.251 12.7502H178.251Z" fill="#CCCCCC"/>
<path fill-rule="evenodd" clip-rule="evenodd" d="M152.281 10.8752H160.405C164.542 10.8736 167.907 14.2403 167.907 18.3751C167.907 22.5099 164.543 25.8744 160.407 25.8744H154.157V37.1245H150.407V12.7498C150.407 11.715 151.246 10.8752 152.281 10.8752ZM154.157 22.1248H160.405C162.475 22.1264 164.156 20.4441 164.156 18.3751C164.156 16.3061 162.475 14.6254 160.407 14.6254H154.157V22.1248Z" fill="#CCCCCC"/>
<path d="M225.065 30.071L209.631 11.5495C209.126 10.9424 208.294 10.7172 207.552 10.9865C206.81 11.2559 206.315 11.9605 206.315 12.7496V37.1243H210.065V17.9289L225.499 36.4499C225.863 36.8862 226.394 37.1232 226.938 37.1232C227.151 37.1232 227.367 37.0877 227.576 37.0117C228.318 36.7424 228.813 36.0378 228.813 35.2487V10.874H225.065V30.071Z" fill="#CCCCCC"/>
</svg>
