<svg width="176" height="48" viewBox="0 0 176 48" fill="none" xmlns="http://www.w3.org/2000/svg">
<path d="M165.177 38.8981H163.16C163.16 22.6579 149.76 9.44617 133.291 9.44617V7.42998C150.873 7.42998 165.177 21.5433 165.177 38.8981Z" fill="#499CD2"/>
<path d="M166.57 28.0658C164.151 17.8784 155.895 9.37514 145.543 6.40276L146.008 4.78681C156.933 7.92447 165.646 16.9071 168.204 27.6765L166.57 28.0658Z" fill="#489CD2"/>
<path d="M168.84 18.5053C166.346 13.066 162.092 8.32197 156.873 5.14879L157.571 4C163.021 7.31387 167.454 12.2628 170.06 17.9439L168.84 18.5053Z" fill="#489CD2"/>
<path fill-rule="evenodd" clip-rule="evenodd" d="M92.2333 35.8516C89.5396 37.682 85.861 36.9799 84.0293 34.2862C82.1975 31.5925 82.9009 27.9125 85.5947 26.078C88.287 24.2476 91.967 24.9511 93.7987 27.6448C95.6319 30.3372 94.9298 34.0185 92.2333 35.8516ZM95.8887 26.2242C93.2728 22.3694 88.0247 21.3722 84.174 23.9908C80.3206 26.6094 79.3207 31.8561 81.9407 35.7068C84.2574 39.119 88.6326 40.2883 92.277 38.6997L95.5404 43.9997L98.1303 42.2403L94.8683 36.9403C97.6877 34.1359 98.2095 29.6323 95.8887 26.2242Z" fill="#070707"/>
<path d="M5.93994 38.0377C7.15293 38.6934 9.02159 39.1852 11.1197 39.1852C15.7094 39.1852 18.0371 36.9887 18.0371 33.9726C18.0043 31.645 16.7585 30.1041 13.7096 29.0551C11.7426 28.3994 11.1197 27.9732 11.1197 27.2192C11.1197 26.4324 11.8082 25.9406 13.0212 25.9406C14.3653 25.9406 15.775 26.4652 16.4962 26.8258L17.3486 23.4163C16.3651 22.9246 14.7259 22.4656 12.8573 22.4656C8.89046 22.4656 6.33334 24.7276 6.33334 27.7437C6.30056 29.6124 7.57912 31.4155 10.923 32.5301C12.7589 33.1202 13.2507 33.5464 13.2507 34.366C13.2507 35.1856 12.6278 35.6773 11.1197 35.6773C9.64448 35.6773 7.74303 35.0545 6.8251 34.4971L5.93994 38.0377Z" fill="#070707"/>
<path d="M26.8558 39.218C31.1177 39.218 35.2812 36.5297 35.2812 30.6942C35.2812 25.8423 32.0028 22.4656 27.1181 22.4656C21.9383 22.4656 18.5288 25.7767 18.5288 30.9565C18.5288 36.1363 22.135 39.218 26.823 39.218H26.8558ZM26.9214 35.6446C24.8233 35.6446 23.6758 33.5792 23.6758 30.8582C23.6758 28.465 24.5938 26.039 26.9542 26.039C29.2162 26.039 30.1342 28.465 30.1342 30.8254C30.1342 33.7103 28.9212 35.6446 26.9542 35.6446H26.9214Z" fill="#070707"/>
<path d="M36.7237 38.8573H41.7068V29.6124C41.7068 29.1534 41.7395 28.6945 41.8707 28.3666C42.2313 27.4487 43.0509 26.498 44.4278 26.498C46.2309 26.498 46.9521 27.9076 46.9521 29.973V38.8573H51.9352V29.3829C51.9352 24.6621 49.4765 22.4656 46.1981 22.4656C43.5099 22.4656 41.9035 24.0064 41.2478 25.0555H41.1494L40.92 22.8262H36.5925C36.6581 24.2687 36.7237 25.9406 36.7237 27.9404V38.8573Z" fill="#070707"/>
<path d="M67.6385 29.3829C67.6385 25.6128 65.9666 22.4656 60.6229 22.4656C57.7051 22.4656 55.5086 23.2852 54.394 23.9081L55.3119 27.0881C56.361 26.4652 58.0985 25.9079 59.7377 25.9079C62.1965 25.9079 62.6554 27.1208 62.6554 27.9732V28.1699C56.9839 28.1699 53.2466 30.1369 53.2466 34.3004C53.2466 36.8575 55.1808 39.218 58.4264 39.218C60.3278 39.218 61.967 38.5295 63.0161 37.251H63.1144L63.4095 38.8573H67.9008C67.7041 37.9722 67.6385 36.4969 67.6385 34.9889V29.3829ZM62.8194 33.0219C62.8194 33.3169 62.7866 33.612 62.721 33.8742C62.3932 34.8905 61.3441 35.7101 60.1311 35.7101C59.0165 35.7101 58.1641 35.0872 58.1641 33.8087C58.1641 31.9072 60.1967 31.2844 62.8194 31.2844V33.0219Z" fill="#070707"/>
<path d="M69.9662 38.8573H74.9493V30.7598C74.9493 30.3336 74.982 29.973 75.0476 29.6452C75.3754 28.0716 76.6212 27.1208 78.4571 27.1208C79.0144 27.1208 79.4078 27.1864 79.8012 27.252V22.5639C79.4406 22.4984 79.2111 22.4656 78.7521 22.4656C77.1785 22.4656 75.2443 23.4491 74.4247 25.8095H74.2936L74.0969 22.8262H69.835C69.9334 24.2031 69.9662 25.7439 69.9662 28.1043V38.8573Z" fill="#070707"/>
<path d="M112.33 23.079H109.445V32.7829C109.445 33.3402 109.347 33.8648 109.183 34.2582C108.658 35.5695 107.314 36.9136 105.38 36.9136C102.79 36.9136 101.839 34.8483 101.839 31.8322V23.079H98.9544V32.3567C98.9544 37.8972 101.938 39.3068 104.429 39.3068C107.249 39.3068 108.953 37.6349 109.675 36.3563H109.74L109.904 38.9462H112.461C112.363 37.7005 112.33 36.258 112.33 34.586V23.079Z" fill="#070707"/>
<path d="M115.477 34.8483C115.477 36.258 115.444 37.8644 115.346 38.9462H117.838L118.002 36.3235H118.067C119.28 38.4217 121.083 39.3068 123.378 39.3068C126.919 39.3068 130.525 36.4875 130.525 30.7831C130.525 25.9967 127.771 22.7184 123.837 22.7184C121.28 22.7184 119.444 23.833 118.428 25.6033H118.362V15.6699H115.477V34.8483ZM118.362 29.734C118.362 29.2751 118.428 28.8817 118.526 28.5211C119.083 26.3573 120.919 24.9804 122.886 24.9804C125.968 24.9804 127.607 27.7015 127.607 30.9143C127.607 34.5532 125.837 37.012 122.788 37.012C120.723 37.012 119.018 35.6351 118.461 33.6353C118.395 33.3075 118.362 32.9468 118.362 32.5862V29.734Z" fill="#070707"/>
<path d="M145.245 31.5371C145.31 31.2093 145.343 30.7831 145.343 30.193C145.343 27.2753 143.999 22.7184 138.819 22.7184C134.197 22.7184 131.344 26.4885 131.344 31.2749C131.344 36.0285 134.295 39.2741 139.147 39.2741C141.671 39.2741 143.442 38.7167 144.458 38.2578L143.933 36.1924C142.884 36.6514 141.606 37.012 139.54 37.012C136.655 37.012 134.197 35.4056 134.131 31.5371H145.245ZM134.164 29.4718C134.393 27.472 135.639 24.7837 138.59 24.7837C141.802 24.7837 142.589 27.6359 142.556 29.4718H134.164Z" fill="#070707"/>
</svg>
