<svg width="160" height="56" viewBox="0 0 160 56" fill="none" xmlns="http://www.w3.org/2000/svg">
<path d="M82.9254 22.3936L85.9072 34.4505H86.6603L89.6418 22.3936H93.9666L88.2332 45.5908H83.9082L85.5794 38.743H82.6306L78.6004 22.3936H82.9254ZM54.2253 15.8078V38.7427H53.0792V37.3668L53.0734 37.3704C52.9337 37.4559 50.3114 39.0378 47.4107 39.0378C45.379 39.0378 41.8731 38.7427 41.8731 30.781C41.8731 25.1455 43.3808 22.0658 48.754 22.0658C50.2938 22.0658 52.2601 22.3279 53.079 22.459V15.8078H54.2253ZM38.6633 14.825V38.743H37.5164V14.825H38.6633ZM5.14663 15.8078L9.83237 37.6288H11.0769L16.1556 16.1355H17.4661L22.7087 37.6288H23.9535L28.4751 15.8078H29.6222L24.9038 38.7427H21.7586L16.8111 17.6754L12.0272 38.7427H8.88182L4 15.8078H5.14663ZM33.3231 22.3606V38.7427H32.176V22.3606H33.3231ZM72.3109 16.1355V20.4603H62.4161V26.9803H70.3454V31.2724H62.4161V38.7427H57.96V16.1355H72.3109ZM78.0109 15.8078V38.7427H73.6209V15.8078H78.0109ZM48.7545 23.1143C44.102 23.1143 43.0205 25.8994 43.0205 30.8792C43.0205 37.3995 45.5764 37.9893 47.411 37.9893C50.2286 37.9893 53.0795 36.2856 53.0795 36.2856V23.5075C52.2271 23.4096 50.032 23.1143 48.7545 23.1143ZM33.3231 15.8078V17.6097H32.176V15.8078H33.3231Z" fill="#293644"/>
<path opacity="0.7" d="M110.461 26.4848C109.893 26.3145 109.31 26.1737 108.725 26.0426C108.433 25.9766 108.138 25.9145 107.843 25.8558C107.548 25.795 107.253 25.7366 106.958 25.6831C106.811 25.6569 106.661 25.6304 106.519 25.6088L106.073 25.5496C105.772 25.5099 105.468 25.4639 105.172 25.4387C104.872 25.4109 104.576 25.3746 104.273 25.353L103.367 25.287C102.76 25.2567 102.152 25.2247 101.541 25.213C101.236 25.2021 100.931 25.1987 100.625 25.1964C100.319 25.1936 100.013 25.1889 99.7059 25.1928C99.0953 25.1933 98.4694 25.2039 97.8677 25.22L96.9382 25.2603L96.0302 25.3307L95.1147 25.4276C94.8075 25.4626 94.5036 25.5055 94.1974 25.5439C93.5858 25.6306 92.9739 25.7278 92.362 25.8371C91.7491 25.947 91.1351 26.0654 90.5214 26.1903C89.287 26.4381 88.0537 26.6973 86.8289 26.9975C86.2154 27.1481 85.6043 27.3084 85.0015 27.4858C84.6891 27.5788 84.3777 27.6761 84.0723 27.7813C84.1845 27.8159 84.3006 27.8465 84.4182 27.873C84.8457 27.9701 85.2991 28.026 85.7645 28.088C85.9967 28.12 86.2331 28.1527 86.4738 28.194L86.8231 28.2592L86.9751 28.2815L87.1343 28.2992C87.5659 28.3402 88.0173 28.3278 88.4708 28.307C89.3784 28.2592 90.2942 28.139 91.2206 28.047C91.6829 28.0018 92.1488 27.9613 92.6241 27.9538C92.8669 27.9504 93.0898 27.9595 93.3217 27.9621L94.012 27.9766C94.4732 27.9883 94.9321 28.0052 95.3913 28.0278L95.4129 28.0291C95.4495 28.019 95.4866 28.0068 95.5233 27.9969L95.6373 27.9665L95.7617 27.9361C95.8458 27.914 95.9281 27.9005 96.0113 27.8829C96.1759 27.8525 96.3395 27.8294 96.5008 27.8112C96.8257 27.7751 97.1454 27.7574 97.463 27.747C98.0949 27.7276 98.7167 27.7398 99.3353 27.7554C99.9519 27.7743 100.563 27.7883 101.174 27.8172C101.782 27.8483 102.39 27.9317 102.997 27.9964C103.603 28.0665 104.212 28.0943 104.814 28.0634L105.486 28.0275L104.85 28.2197C104.412 28.3519 103.967 28.4023 103.521 28.4488C103.075 28.494 102.627 28.5205 102.179 28.5407C101.279 28.5786 100.377 28.5883 99.4706 28.576C99.1109 28.5685 98.751 28.555 98.3881 28.5306C98.0949 28.535 97.803 28.5425 97.5145 28.5576C97.2142 28.5737 96.9177 28.5963 96.6296 28.635C96.4847 28.6537 96.3434 28.6779 96.2063 28.7056C96.1383 28.7217 96.0692 28.7345 96.0042 28.7534L95.9048 28.7802L95.7967 28.8126C95.5139 28.8971 95.2347 28.9903 94.9898 29.1014C94.9399 29.1235 94.8919 29.1477 94.847 29.1713C94.947 29.2131 95.0565 29.2531 95.1716 29.29C95.4438 29.3752 95.7347 29.4461 96.0271 29.51C96.3185 29.5731 96.6234 29.6313 96.9119 29.6785C97.0659 29.7042 97.2192 29.7281 97.3602 29.7453C97.5015 29.7655 97.6537 29.779 97.7999 29.7949C98.3913 29.8525 98.9889 29.8767 99.5883 29.8699C100.186 29.8624 100.784 29.8349 101.38 29.7809C102.569 29.6723 103.754 29.5009 104.919 29.2638C105.502 29.1459 106.079 29.0168 106.652 28.8719L107.081 28.762L107.504 28.6477C107.798 28.5727 108.061 28.4875 108.338 28.4091C108.892 28.2379 109.443 28.0483 110.008 27.8696C110.569 27.6891 111.143 27.525 111.73 27.4097L111.777 27.337C111.83 27.2079 111.756 27.0746 111.592 26.9414C111.499 26.8812 111.398 26.8269 111.291 26.7794C111.026 26.6617 110.744 26.5729 110.461 26.4848Z" fill="white"/>
<path opacity="0.7" d="M121.893 30.6041C122.132 30.7665 122.355 30.9303 122.611 31.0945L122.975 31.336L123.347 31.576C123.845 31.8939 124.353 32.199 124.868 32.4943C125.899 33.0875 126.969 33.6241 128.063 34.1022C128.612 34.3419 129.171 34.5557 129.735 34.7523C130.302 34.9478 130.877 35.113 131.456 35.2449C131.601 35.2758 131.749 35.3119 131.889 35.3366C132.028 35.3654 132.181 35.3906 132.335 35.4153C132.624 35.4608 132.932 35.5026 133.228 35.5345C133.526 35.5665 133.824 35.5909 134.109 35.5953C134.229 35.5968 134.346 35.5937 134.454 35.5854C134.419 35.5485 134.382 35.5106 134.341 35.474C134.144 35.2912 133.909 35.1143 133.666 34.9452L133.574 34.8803L133.488 34.8239C133.432 34.786 133.371 34.7517 133.312 34.7141C133.19 34.6445 133.064 34.578 132.933 34.5136C132.672 34.3871 132.397 34.2713 132.117 34.1614C131.849 34.0562 131.575 33.957 131.299 33.8612C130.946 33.7695 130.599 33.6682 130.255 33.5615C129.391 33.2872 128.538 32.9932 127.696 32.6738C127.277 32.513 126.86 32.346 126.451 32.1632C126.043 31.9778 125.637 31.7897 125.263 31.5259L124.721 31.1428L125.347 31.3887C125.908 31.6084 126.494 31.7736 127.092 31.8985C127.688 32.0289 128.291 32.1414 128.879 32.3039C129.466 32.4696 130.052 32.6486 130.643 32.826C131.234 33.0057 131.829 33.1909 132.422 33.4093C132.72 33.5194 133.018 33.6365 133.314 33.7734C133.462 33.8417 133.609 33.9149 133.756 33.996C133.83 34.0383 133.903 34.0773 133.976 34.1245L134.085 34.1931L134.183 34.2578C134.215 34.2785 134.247 34.3019 134.278 34.3232L134.299 34.3287C134.742 34.4523 135.182 34.5811 135.623 34.7156L136.284 34.9193C136.504 34.9899 136.719 35.0522 136.948 35.1317C137.397 35.2886 137.826 35.474 138.251 35.6631C139.1 36.0423 139.932 36.4453 140.778 36.7775C141.202 36.9401 141.626 37.0951 142.049 37.1923L142.205 37.2255L142.356 37.2523L142.708 37.3011C142.95 37.3372 143.184 37.3813 143.415 37.4239C143.876 37.512 144.325 37.6026 144.76 37.6447C144.88 37.6572 144.999 37.6639 145.116 37.6662C144.86 37.4704 144.596 37.28 144.329 37.0936C143.813 36.7349 143.284 36.3905 142.749 36.0539C141.682 35.3821 140.593 34.7471 139.5 34.1222C138.957 33.8098 138.412 33.5036 137.865 33.2059C137.319 32.9091 136.769 32.6239 136.216 32.3481C135.937 32.2151 135.662 32.0783 135.382 31.9481L134.544 31.5674L133.704 31.2142L132.835 30.8831C132.269 30.6781 131.678 30.4704 131.099 30.2769C130.81 30.1761 130.517 30.0837 130.225 29.9904C129.934 29.8959 129.644 29.8027 129.351 29.7164C128.768 29.5352 128.181 29.3739 127.595 29.2108L126.714 28.9874C126.421 28.9129 126.128 28.8537 125.835 28.7854C125.546 28.7155 125.243 28.6633 124.945 28.6062L124.504 28.5218C124.36 28.4968 124.21 28.4755 124.063 28.4542C123.766 28.4116 123.467 28.3737 123.168 28.3381C122.87 28.3007 122.571 28.2665 122.273 28.2368C121.676 28.1766 121.079 28.1267 120.486 28.1091C120.19 28.1031 119.893 28.0979 119.606 28.1262C119.491 28.1379 119.377 28.1574 119.27 28.1854C119.072 28.26 118.959 28.3631 118.969 28.5023L118.991 28.5859C119.511 28.8807 120.005 29.2178 120.48 29.5658C120.959 29.9133 121.423 30.2675 121.893 30.6041Z" fill="white"/>
<path opacity="0.5" d="M97.8083 24.8963C95.1397 24.9374 92.6127 25.3669 89.9751 25.9022C88.0846 26.2866 84.6959 27.0184 82.9395 27.7846C83.6799 28.4614 85.4727 28.4648 86.5032 28.6603C88.181 28.9777 90.9625 28.2757 92.7132 28.2588C93.9162 28.2471 95.0945 28.2479 96.278 28.3136C96.0555 28.3458 95.8467 28.3851 95.661 28.4365C95.255 28.5495 94.0066 28.8977 94.0804 29.2956C94.1661 29.7509 96.2656 30.1251 96.6759 30.1997C99.8808 30.7762 103.885 30.1051 107.157 29.1969C108.926 28.7058 110.001 28.089 111.729 27.4104C111.142 27.5257 110.568 27.6898 110.008 27.8703C109.443 28.049 108.892 28.2383 108.338 28.4097C108.06 28.4882 107.797 28.5733 107.503 28.6484L107.081 28.7627L106.652 28.8725C106.079 29.0175 105.501 29.1465 104.919 29.2644C103.753 29.5016 102.569 29.673 101.379 29.7815C100.783 29.8355 100.185 29.8628 99.5878 29.8706C98.9884 29.8774 98.3911 29.8532 97.7994 29.7956C97.6532 29.7795 97.501 29.7662 97.3597 29.7459C97.2187 29.7291 97.0655 29.7049 96.9115 29.6792C96.6229 29.6317 96.318 29.5738 96.0266 29.5107C95.7342 29.4468 95.4433 29.3759 95.1711 29.2907C95.0561 29.2538 94.9465 29.2138 94.8465 29.172C94.8914 29.1483 94.9392 29.1242 94.9893 29.1021C95.2343 28.9907 95.5137 28.8977 95.7963 28.8133L95.9043 28.7809L96.0038 28.7541C96.0687 28.7354 96.1381 28.7224 96.2058 28.7063C96.343 28.6785 96.4842 28.6544 96.6292 28.6357C96.9172 28.5972 97.2138 28.5744 97.514 28.5583C97.8026 28.5432 98.0945 28.5357 98.3877 28.5313C98.7502 28.5557 99.1105 28.5692 99.4702 28.5767C100.376 28.5889 101.279 28.5793 102.178 28.5414C102.627 28.5211 103.074 28.4947 103.52 28.4495C103.966 28.4027 104.411 28.3523 104.85 28.2204L105.486 28.0282L104.813 28.064C104.211 28.095 103.603 28.0672 102.997 27.997C102.389 27.9321 101.781 27.8487 101.173 27.8178C100.563 27.7893 99.9514 27.775 99.3349 27.756C98.7162 27.7404 98.0945 27.7282 97.4626 27.7477C97.145 27.7584 96.8253 27.7758 96.5004 27.8119C96.3391 27.83 96.1755 27.8532 96.0108 27.8835C95.9277 27.9009 95.8454 27.9147 95.7612 27.9368L95.6368 27.9672L95.5228 27.9976C95.4862 28.0074 95.449 28.0194 95.4124 28.0298L95.3909 28.0285C94.9317 28.0059 94.473 27.989 94.0115 27.9773L93.3212 27.9628C93.0893 27.9604 92.8665 27.9513 92.6236 27.9544C92.1483 27.962 91.6824 28.0025 91.2201 28.0477C90.294 28.1396 89.378 28.2599 88.4703 28.3077C88.0171 28.3287 87.5657 28.3409 87.1338 28.2999L86.9746 28.2822L86.8227 28.2599L86.4734 28.1947C86.2323 28.1531 85.996 28.1207 85.7641 28.0887C85.2987 28.0267 84.8452 27.9706 84.4177 27.8737C84.3001 27.8474 84.184 27.8165 84.0718 27.782C84.3772 27.6768 84.6886 27.5794 85.001 27.4864C85.6038 27.3091 86.2149 27.1488 86.8284 26.9982C88.0532 26.698 89.2866 26.4388 90.521 26.191C91.1347 26.0661 91.7486 25.9476 92.3616 25.8378C92.9735 25.7285 93.5853 25.6316 94.197 25.5446C94.5034 25.5061 94.8073 25.4633 95.1143 25.4282L96.0298 25.3314L96.9377 25.261L97.8672 25.2207C98.469 25.2046 99.0951 25.194 99.7055 25.1934C100.012 25.1896 100.319 25.1942 100.625 25.1971C100.931 25.1994 101.236 25.2025 101.541 25.2137C102.151 25.2254 102.759 25.2573 103.366 25.2877L104.272 25.3537C104.575 25.3752 104.871 25.4116 105.171 25.4394C105.467 25.4646 105.771 25.5103 106.072 25.5503L106.518 25.6095C106.661 25.6311 106.81 25.6576 106.957 25.6838C107.252 25.7373 107.548 25.7957 107.843 25.8565C108.137 25.9152 108.433 25.9773 108.725 26.0432C109.31 26.1744 109.892 26.3151 110.461 26.4855C110.743 26.5733 111.026 26.6624 111.29 26.7803C111.396 26.8276 111.498 26.8818 111.59 26.9424C110.692 26.2167 107.079 25.483 106.433 25.3776C103.724 24.9353 100.546 24.8545 97.8083 24.8963Z" fill="#E1EEF4"/>
<path d="M120.477 27.7286C121.091 27.6912 121.702 27.7026 122.312 27.7294C122.922 27.758 123.532 27.8057 124.141 27.8746C124.295 27.8917 124.445 27.9091 124.604 27.9314L125.06 28.0083C125.36 28.0597 125.659 28.106 125.963 28.1727C126.265 28.2358 126.573 28.2927 126.872 28.3623L127.772 28.5729C128.37 28.7256 128.968 28.8784 129.562 29.0503C129.861 29.1316 130.158 29.2209 130.454 29.3103L130.751 29.3991C130.949 29.4585 131.146 29.5189 131.342 29.583C131.938 29.7689 132.52 29.9598 133.122 30.1652L133.999 30.4805L134.884 30.8327L135.753 31.2093C136.041 31.3407 136.324 31.4783 136.61 31.6129C137.177 31.8908 137.741 32.1793 138.296 32.4772C138.854 32.7753 139.407 33.0815 139.957 33.394C140.51 33.7033 141.055 34.0269 141.602 34.3518C142.148 34.679 142.694 35.0123 143.235 35.3564C143.777 35.7002 144.316 36.0537 144.847 36.4266C145.379 36.8019 145.903 37.1897 146.407 37.6374L146.887 38.0667L146.311 38.3124C146.028 38.4327 145.741 38.474 145.472 38.4849C145.204 38.4966 144.947 38.4766 144.698 38.4477C144.2 38.3867 143.728 38.2849 143.27 38.1831C143.042 38.1309 142.816 38.0802 142.598 38.0384L142.257 37.9795C142.198 37.9688 142.128 37.9532 142.063 37.94L141.878 37.8943C141.393 37.7649 140.942 37.5891 140.505 37.3959C139.636 37.0094 138.82 36.5664 137.999 36.1571C137.59 35.9524 137.182 35.7548 136.768 35.5893C136.353 35.4304 135.909 35.2701 135.483 35.1159C135.368 35.0746 135.251 35.0364 135.136 34.9959C135.211 35.0702 135.286 35.1522 135.359 35.2535C135.422 35.3426 135.491 35.4452 135.533 35.6114C135.551 35.6979 135.563 35.8 135.533 35.9173C135.527 35.9467 135.517 35.9732 135.505 36.0015L135.488 36.0433L135.478 36.0633L135.459 36.094L135.447 36.1129C135.44 36.1229 135.428 36.1399 135.421 36.1498C135.39 36.1869 135.372 36.2043 135.352 36.2225C135.19 36.3633 135.064 36.3931 134.954 36.4277C134.844 36.4576 134.747 36.4724 134.654 36.4843C134.468 36.5059 134.297 36.5111 134.128 36.5105C133.792 36.5095 133.469 36.4872 133.15 36.4578C132.828 36.4272 132.52 36.3905 132.196 36.3443C132.043 36.3217 131.89 36.2989 131.723 36.2677C131.559 36.2407 131.405 36.2062 131.247 36.1745C130.619 36.0368 130.008 35.8561 129.407 35.6509C128.811 35.4462 128.228 35.2094 127.658 34.9554C127.373 34.8286 127.092 34.6951 126.813 34.5609C126.535 34.4217 126.26 34.2819 125.99 34.1357C125.446 33.8459 124.916 33.5402 124.393 33.2249C123.873 32.9091 123.363 32.5834 122.862 32.2455L122.488 31.9918L122.442 31.9598L122.39 31.9219L122.3 31.8565L122.12 31.7243C121.882 31.555 121.643 31.3506 121.409 31.1573C120.954 30.7608 120.535 30.3405 120.14 29.9073C119.746 29.4747 119.361 29.042 118.99 28.5857C120.416 29.7751 121.241 30.7 122.765 31.7248C125.583 33.6186 129.172 35.519 132.394 35.9831C132.806 36.0425 134.918 36.35 135.142 35.9446C135.338 35.5906 134.263 34.8655 133.914 34.631C133.754 34.5237 133.567 34.4201 133.366 34.3191C134.51 34.6305 135.629 35.0021 136.767 35.393C138.423 35.9618 140.84 37.5052 142.533 37.7333C143.572 37.8735 145.275 38.436 146.191 38.0275C144.765 36.7466 141.781 34.9819 140.109 34.0212C137.775 32.6806 135.512 31.4757 132.993 30.5943C130.409 29.6907 127.368 28.7643 124.657 28.3283C124.01 28.2241 120.351 27.78 119.27 28.1852C119.245 28.1917 119.219 28.1956 119.195 28.2036C119.134 28.2252 119.075 28.2501 119.034 28.2818C119.012 28.2974 118.997 28.3145 118.986 28.333C118.98 28.3428 118.977 28.3509 118.974 28.3566C118.968 28.3595 118.969 28.3883 118.967 28.4031L118.783 28.4C118.782 28.3789 118.777 28.3717 118.782 28.3397C118.783 28.3098 118.79 28.2834 118.799 28.261C118.817 28.2125 118.846 28.1709 118.879 28.1364C118.944 28.0683 119.02 28.0229 119.096 27.9875C119.248 27.9172 119.402 27.8772 119.556 27.8439C119.864 27.7795 120.171 27.7465 120.477 27.7286ZM97.8219 24.4484C98.4582 24.444 99.0701 24.4456 99.6936 24.4573C100.004 24.4591 100.313 24.4695 100.623 24.4788C100.932 24.4877 101.242 24.497 101.551 24.5141C102.169 24.538 102.785 24.5822 103.4 24.6256L104.32 24.7102C104.627 24.7383 104.936 24.7814 105.243 24.817C105.553 24.8494 105.851 24.9003 106.152 24.9455L106.609 25.0169C106.767 25.0455 106.915 25.0767 107.066 25.1089C107.666 25.2359 108.259 25.3829 108.848 25.5481C109.435 25.7153 110.018 25.8971 110.59 26.127C110.875 26.2402 111.155 26.369 111.427 26.5269C111.563 26.6069 111.696 26.6939 111.818 26.8082C111.879 26.8656 111.937 26.9328 111.976 27.018C111.996 27.0606 112.012 27.1097 112.013 27.1606C112.014 27.185 112.012 27.2123 112.004 27.2409C111.999 27.2731 111.992 27.2788 111.985 27.2983L111.809 27.2429C111.811 27.2281 111.821 27.2017 111.817 27.1972C111.816 27.1907 111.815 27.1817 111.813 27.1705C111.809 27.1497 111.799 27.1287 111.783 27.1069C111.754 27.0637 111.706 27.0217 111.655 26.9822C111.636 26.9674 111.612 26.9552 111.591 26.9412C110.692 26.2153 107.08 25.4818 106.434 25.3764C103.723 24.9346 100.546 24.8538 97.8079 24.8957C95.1393 24.937 92.6123 25.3665 89.9747 25.9015C88.0842 26.2859 84.6955 27.018 82.9391 27.7839C83.6795 28.4607 85.4723 28.4641 86.5028 28.6597C88.1806 28.977 90.9621 28.275 92.7128 28.2582C93.9158 28.2465 95.0941 28.2473 96.2776 28.313C96.0551 28.3452 95.8463 28.3844 95.6606 28.4358C95.2544 28.5488 94.0062 28.8971 94.08 29.2949C94.1657 29.75 96.2652 30.1245 96.6755 30.199C99.8801 30.7756 103.884 30.1045 107.156 29.1962C108.925 28.7051 110.001 28.0883 111.729 27.4097C111.233 27.7258 110.731 28.0143 110.221 28.301C109.709 28.587 109.179 28.8537 108.622 29.0864C108.339 29.1962 108.048 29.3144 107.769 29.3993L107.556 29.4684L107.45 29.5024L107.389 29.5214L107.335 29.5375L106.9 29.6604C106.318 29.8227 105.731 29.9704 105.137 30.1065C104.542 30.2406 103.943 30.3634 103.336 30.4668C103.032 30.52 102.727 30.566 102.42 30.6106C102.113 30.6499 101.805 30.6878 101.494 30.7176C100.873 30.7782 100.245 30.8197 99.6139 30.8252C98.9805 30.8311 98.3426 30.8093 97.7032 30.7415C97.5425 30.7221 97.3866 30.706 97.2217 30.6805C97.0542 30.6574 96.9023 30.6306 96.7495 30.6039C96.428 30.5457 96.1236 30.4831 95.8083 30.4104C95.4957 30.3377 95.183 30.2567 94.8638 30.1522C94.7027 30.0985 94.5428 30.0398 94.3727 29.9608C94.288 29.9201 94.2002 29.8759 94.1052 29.8123C94.0127 29.7453 93.9023 29.6775 93.7922 29.4921C93.7797 29.4689 93.768 29.4463 93.7517 29.4019C93.746 29.3861 93.7366 29.3557 93.7356 29.35L93.7314 29.3368L93.7239 29.3014L93.7208 29.2794L93.7166 29.2344C93.7143 29.2035 93.7135 29.1742 93.7171 29.1451C93.7254 29.0241 93.7696 28.9308 93.8143 28.8552C93.9062 28.7108 94.0041 28.6347 94.0914 28.5693C94.1927 28.4971 94.289 28.4433 94.3841 28.3969C94.2612 28.3987 94.1397 28.3981 94.0174 28.4005C93.5637 28.4124 93.0933 28.4239 92.6487 28.4439C92.2043 28.4701 91.7537 28.529 91.3008 28.594C90.3936 28.7241 89.4799 28.8864 88.5322 28.9789C88.0567 29.0238 87.5729 29.0482 87.0726 29.0181L86.8823 29.0028C86.8176 28.9952 86.7457 28.9882 86.6857 28.9791L86.3442 28.9277C86.1237 28.8981 85.8936 28.8755 85.6603 28.8524C85.1944 28.8043 84.7137 28.7527 84.222 28.6527C83.9766 28.6023 83.7265 28.5389 83.4749 28.4433C83.224 28.3478 82.965 28.2187 82.7342 28.0151L82.2656 27.6001L82.858 27.3455C83.4769 27.0804 84.0971 26.877 84.7202 26.6892C85.3411 26.5033 85.9642 26.3376 86.5875 26.1818C87.209 26.0267 87.832 25.8821 88.4543 25.7447C89.0761 25.6091 89.6945 25.474 90.317 25.3543C90.9374 25.2322 91.5592 25.1162 92.1822 25.0092C92.8037 24.9014 93.4291 24.8063 94.0555 24.7211C94.3698 24.684 94.6814 24.6422 94.9957 24.6084L95.9387 24.5253L96.8903 24.4705L97.8219 24.4484Z" fill="#293644"/>
<path opacity="0.5" d="M132.393 35.9833C132.806 36.0427 134.917 36.35 135.142 35.9448C135.337 35.5911 134.262 34.866 133.914 34.6312C133.754 34.5239 133.567 34.4203 133.366 34.3193C134.51 34.6307 135.629 35.0023 136.766 35.3932C138.422 35.9617 140.84 37.5055 142.532 37.7335C143.572 37.8737 145.274 38.4363 146.19 38.0277C144.765 36.7468 141.781 34.9821 140.109 34.0214C137.774 32.6808 135.512 31.4757 132.993 30.5945C130.409 29.691 127.368 28.7646 124.656 28.3285C124.009 28.2244 120.351 27.7802 119.269 28.1854C119.376 28.1576 119.49 28.1379 119.605 28.1262C119.892 28.0976 120.189 28.1031 120.485 28.109C121.078 28.1264 121.675 28.1763 122.272 28.2368C122.57 28.2662 122.869 28.3007 123.167 28.3381C123.466 28.3737 123.765 28.4116 124.062 28.4542C124.209 28.4755 124.36 28.4968 124.503 28.5217L124.944 28.6061C125.242 28.6635 125.545 28.7157 125.834 28.7853C126.127 28.8539 126.42 28.9129 126.713 28.9874L127.595 29.2107C128.18 29.3738 128.767 29.5351 129.35 29.7164C129.643 29.8026 129.933 29.8956 130.224 29.9904C130.516 30.0834 130.809 30.1761 131.098 30.2769C131.677 30.4704 132.268 30.6781 132.834 30.883L133.703 31.2142L134.543 31.5674L135.381 31.9481C135.661 32.0782 135.936 32.2151 136.215 32.3481C136.768 32.6239 137.318 32.9091 137.864 33.2059C138.411 33.5035 138.956 33.8097 139.499 34.1222C140.592 34.7468 141.681 35.382 142.748 36.0539C143.283 36.3905 143.812 36.7349 144.328 37.0935C144.595 37.28 144.859 37.4704 145.115 37.6662C144.998 37.6639 144.879 37.6571 144.759 37.6447C144.324 37.6026 143.875 37.5119 143.414 37.4239C143.184 37.3813 142.949 37.3372 142.707 37.3011L142.355 37.2522L142.204 37.2255L142.048 37.1922C141.625 37.0951 141.201 36.9401 140.777 36.7775C139.93 36.4453 139.1 36.0422 138.25 35.663C137.825 35.474 137.396 35.2885 136.947 35.1317C136.718 35.0519 136.503 34.9899 136.283 34.9192L135.622 34.7156C135.182 34.5808 134.741 34.452 134.298 34.3286L134.277 34.3232C134.246 34.3019 134.214 34.2785 134.182 34.2577L134.084 34.1931L133.975 34.1245C133.903 34.0772 133.829 34.0383 133.755 33.996C133.608 33.9149 133.461 33.8414 133.313 33.7734C133.017 33.6365 132.719 33.5191 132.421 33.4093C131.828 33.1908 131.233 33.0057 130.642 32.8259C130.051 32.6486 129.465 32.4696 128.878 32.3039C128.29 32.1413 127.687 32.0289 127.091 31.8985C126.493 31.7739 125.907 31.6084 125.346 31.3887L124.72 31.1427L125.262 31.5258C125.636 31.79 126.042 31.9777 126.45 32.1632C126.859 32.346 127.276 32.513 127.695 32.6738C128.537 32.9932 129.39 33.2872 130.254 33.5615C130.598 33.6682 130.945 33.7697 131.298 33.8612C131.574 33.957 131.848 34.0562 132.116 34.1614C132.396 34.2715 132.671 34.3871 132.932 34.5136C133.063 34.578 133.19 34.6447 133.311 34.7141C133.37 34.7517 133.432 34.7857 133.487 34.8239L133.573 34.8803L133.666 34.9452C133.908 35.1143 134.143 35.2911 134.34 35.474C134.381 35.5106 134.418 35.5485 134.453 35.5854C134.345 35.5937 134.228 35.5968 134.108 35.5953C133.823 35.5906 133.525 35.5664 133.227 35.5345C132.931 35.5025 132.623 35.4607 132.334 35.4153C132.181 35.3906 132.027 35.3657 131.888 35.3366C131.748 35.3119 131.6 35.2761 131.455 35.2449C130.876 35.1127 130.301 34.9475 129.734 34.7522C129.17 34.5556 128.611 34.3419 128.062 34.1022C126.968 33.6238 125.898 33.0875 124.867 32.4943C124.352 32.199 123.844 31.8938 123.346 31.576L122.974 31.336L122.61 31.0944C122.354 30.9303 122.131 30.7664 121.892 30.6041C121.422 30.2673 120.958 29.9133 120.479 29.5655C120.004 29.2172 119.51 28.8801 118.99 28.5856C120.416 29.7751 121.241 30.6999 122.765 31.7248C125.583 33.6189 129.171 35.5192 132.393 35.9833Z" fill="#E1EEF4"/>
<path d="M108.967 30.1742C108.924 31.2305 109.557 32.2244 110.157 33.102C111.045 34.4037 110.573 36.0947 110.609 37.4942C110.665 39.673 109.864 48.3269 111.719 50.3781L111.726 50.3804C114.085 49.3909 116.003 41.1788 116.747 39.1567C117.226 37.8563 117.318 35.6599 118.572 34.7919C119.503 34.1471 120.786 33.4653 121.011 32.2914L115.461 26.6268C115.461 26.6274 108.97 30.1052 108.967 30.1742Z" fill="#D4DFE5"/>
<path d="M120.134 32.3019C119.98 32.3683 119.827 32.4379 119.674 32.5086C119.869 32.3837 120.062 32.2512 120.244 32.0993C120.449 31.9281 120.067 31.73 119.917 31.765C119.654 31.8253 119.395 31.8949 119.138 31.9679C119.26 31.8081 119.366 31.6349 119.448 31.4438C119.536 31.2401 119.241 31.1202 119.086 31.1456C117.464 31.4225 116.348 32.527 114.912 33.2431C114.208 33.5939 113.475 33.9027 112.721 34.1411C112.619 34.1684 112.52 34.198 112.421 34.2279C112.228 34.2767 112.033 34.3157 111.834 34.3396C111.664 34.3912 111.533 34.3305 111.442 34.1572C111.579 34.017 111.998 33.9461 112.168 33.903C112.85 33.7323 113.491 33.502 114.131 33.2155C114.698 32.9618 115.229 32.6509 115.722 32.2795C116.768 31.9299 117.748 31.4105 118.514 30.6054C118.678 30.4345 118.251 30.2925 118.151 30.3073C117.269 30.4317 116.602 30.8838 115.931 31.4516C115.718 31.6326 115.503 31.8001 115.283 31.9585C114.861 32.0946 114.431 32.2104 114.004 32.3109C113.718 32.3787 113.416 32.4234 113.107 32.4621C113.526 32.2364 113.941 31.9995 114.365 31.7731C115.513 31.1617 116.821 30.7784 117.763 29.8538C117.984 29.638 117.534 29.4879 117.375 29.5331C116.165 29.873 115.047 30.414 113.909 30.9477C113.914 30.9449 113.919 30.9425 113.925 30.9404C114.926 30.4413 115.911 29.9154 116.876 29.3614C117.118 29.2237 116.706 29.0295 116.526 29.0347C116.617 28.9892 116.707 28.9445 116.797 28.8983C117.1 28.7427 116.663 28.4698 116.457 28.5503C115.375 28.971 114.321 29.4549 113.294 30.0086C112.477 30.4472 111.455 31.2913 110.465 31.5227C111.03 30.9817 111.898 30.6942 112.553 30.3096C113.541 29.7278 114.522 29.1409 115.485 28.528C115.66 28.4171 115.47 28.2714 115.287 28.2171C115.505 28.0854 115.723 27.9532 115.94 27.8192C116.12 27.7078 115.897 27.5348 115.707 27.4917C115.777 27.3715 115.799 27.2574 115.734 27.1616C115.658 27.0497 115.5 26.9793 115.371 27.0068C115.195 27.0447 115.052 27.1541 114.905 27.2528C114.287 27.6639 113.695 28.0563 113.023 28.3854C112.175 28.8009 111.294 29.1484 110.436 29.551C110.188 29.6232 109.94 29.6969 109.691 29.7764C109.563 29.8172 109.56 29.8925 109.614 29.9639C109.557 29.9951 109.498 30.0244 109.441 30.0561C109.379 30.0914 109.371 30.1816 109.409 30.2408C109.551 30.4714 109.795 30.5426 110.077 30.527C109.836 30.642 109.595 30.755 109.352 30.8654C109.086 30.9856 109.384 31.2337 109.567 31.2347C109.751 31.2355 109.925 31.2038 110.092 31.1529C109.92 31.3004 109.764 31.4653 109.64 31.6637C109.53 31.8372 109.818 31.9601 109.941 31.9679C110.061 31.9759 110.178 31.9741 110.293 31.9642C110.222 32.0164 110.149 32.0645 110.078 32.118C109.848 32.2922 110.309 32.5281 110.474 32.4408C110.491 32.4317 110.508 32.4224 110.525 32.4138C110.525 32.4138 110.525 32.4138 110.525 32.4138C110.583 32.3831 110.64 32.3509 110.698 32.3203C110.677 32.34 110.654 32.3574 110.633 32.3772C110.424 32.5774 110.815 32.7226 110.968 32.7151C111.911 32.6699 112.722 32.1076 113.509 31.658C114.34 31.1833 115.239 30.756 116.155 30.4034C115.467 30.7841 114.716 31.0739 114.022 31.4251C113.2 31.8424 112.425 32.3206 111.587 32.6896C111.215 32.7735 110.86 32.8935 110.542 33.0825C110.277 33.2394 110.791 33.4472 110.938 33.4043C111.257 33.3129 111.563 33.2005 111.862 33.0742C112.334 32.9831 112.835 32.9584 113.281 32.8813C113.533 32.8374 113.783 32.7834 114.032 32.7286C113.671 32.9153 113.297 33.0841 112.901 33.2379C112.33 33.4589 111.374 33.4799 110.924 33.9388C110.706 34.1611 111.03 34.533 111.248 34.6195C111.275 34.6307 111.303 34.6377 111.33 34.6468C111.249 34.6868 111.165 34.7234 111.086 34.7681C110.938 34.852 111.1 35.0387 111.204 35.074C111.591 35.2052 111.966 35.2156 112.333 35.1566C112.048 35.2701 111.764 35.3839 111.479 35.4966C111.241 35.5901 111.435 35.7825 111.636 35.8402C111.12 36.1542 110.769 36.485 111.09 36.6967C111.401 36.9014 111.844 36.6993 112.136 36.5913C112.439 36.4788 112.736 36.3526 113.033 36.2253C112.995 36.2508 112.957 36.2739 112.919 36.2993C112.851 36.3453 112.839 36.3947 112.86 36.4404C112.685 36.5393 112.509 36.6383 112.335 36.7409C112.233 36.8011 112.253 36.8757 112.323 36.9382C111.796 37.1021 111.283 37.2985 110.898 37.6912C110.725 37.868 111.007 38.0158 111.163 38.0301C111.83 38.0937 112.499 37.9787 113.163 37.775C113.065 37.9239 113.331 38.0612 113.459 38.0708C113.804 38.0958 114.139 38.0553 114.466 37.9787C114.411 38.0057 114.356 38.0319 114.303 38.0597C114.056 38.1895 113.798 38.2963 113.534 38.3906C112.748 38.6014 111.964 38.8251 111.219 39.1546C110.909 39.292 111.352 39.5933 111.565 39.5011C112.141 39.2484 112.745 39.0728 113.344 38.8838C113.407 38.8661 113.469 38.8474 113.532 38.83C112.782 39.2237 112.039 39.6325 111.351 40.1395C111.101 40.3241 111.593 40.5088 111.746 40.4579C111.864 40.4179 111.98 40.3732 112.096 40.3285C111.889 40.5132 111.699 40.7165 111.53 40.9456C111.394 41.1323 111.777 41.2726 111.9 41.2425C112.437 41.1097 112.945 40.9217 113.442 40.7082C113.056 41.0417 112.71 41.4159 112.451 41.8637C112.374 41.9977 112.497 42.0891 112.629 42.1322C112.508 42.2127 112.388 42.2953 112.267 42.3792C112.021 42.5519 112.528 42.788 112.711 42.6685C112.945 42.5164 113.176 42.3618 113.402 42.2037C113.797 41.9577 114.211 41.758 114.67 41.6832C114.457 42.0154 114.019 42.2102 113.688 42.3572C113.38 42.4938 113.82 42.7948 114.031 42.7007C114.554 42.4688 115.227 42.152 115.338 41.5178C115.365 41.3567 115.14 41.2677 115.022 41.2651C114.87 41.2612 114.723 41.2721 114.579 41.2902C114.85 41.0534 115.111 40.8035 115.357 40.5327C115.521 40.3514 115.056 40.1844 114.93 40.253C114.395 40.547 113.954 41.0796 113.437 41.4349C114.239 40.5405 115.407 39.9642 116.345 39.2754C116.578 39.1032 116.115 38.8806 115.955 38.958C114.831 39.4982 113.754 40.1462 112.579 40.5802C113.46 39.793 114.66 39.3582 115.62 38.7165C115.822 38.5822 115.544 38.4207 115.348 38.3934C115.434 38.3461 115.521 38.2989 115.607 38.2503C115.607 38.2503 115.607 38.2503 115.608 38.2503V38.2498C115.624 38.241 115.641 38.2319 115.657 38.2225C115.796 38.1441 115.717 38.0457 115.591 37.9784C116.177 37.7028 116.761 37.3829 117.176 36.9577C117.392 36.7362 116.95 36.5918 116.787 36.6396C115.93 36.8928 115.068 37.4356 114.163 37.6241C115.059 36.9988 116.126 36.5502 117.106 36.1469C117.421 36.0163 116.971 35.734 116.766 35.8012C115.893 36.0913 115.053 36.4824 114.201 36.8346C113.467 37.1369 112.645 37.5104 111.821 37.6218C112.602 37.1502 113.687 36.9645 114.474 36.6274C115.796 36.0602 117.11 35.4929 118.349 34.7759C118.553 34.6582 118.267 34.4801 118.096 34.4468C118.634 34.1531 119.172 33.8586 119.712 33.5687C120.022 33.4017 119.571 33.1688 119.374 33.2236C119.282 33.249 119.194 33.2789 119.103 33.3049C119.554 33.0745 120.008 32.8514 120.472 32.6483C120.774 32.5146 120.341 32.2138 120.134 32.3019ZM113.457 31.1708C112.947 31.4438 112.441 31.7827 111.906 32.0247C112.398 31.7011 112.931 31.43 113.457 31.1708ZM112.665 34.6523C112.481 34.7206 112.294 34.7735 112.107 34.8013C112.202 34.7668 112.299 34.7351 112.398 34.705C112.487 34.6909 112.576 34.673 112.665 34.6523ZM115.887 33.1888C116.799 32.621 117.681 31.9949 118.685 31.6754C118.511 31.919 118.295 32.1299 118.051 32.3146C117.32 32.5725 116.603 32.8693 115.887 33.1888ZM112.029 36.1474C112.244 36.022 112.473 35.9147 112.693 35.8072C113.267 35.5275 113.859 35.2896 114.445 35.0423C115.529 34.585 116.557 34.0162 117.6 33.4835C117.797 33.409 117.991 33.3321 118.185 33.2532C117.279 33.7339 116.382 34.2398 115.453 34.6816C114.338 35.2119 113.184 35.6838 112.029 36.1474ZM116.489 34.7816C116.408 34.8244 116.326 34.8676 116.245 34.9101C116.24 34.912 116.235 34.9138 116.23 34.9153C116.254 34.9016 116.277 34.8881 116.301 34.8738C116.363 34.8434 116.426 34.8117 116.489 34.7816Z" fill="#DFEEF6"/>
<path d="M127.972 38.9161C127.823 38.7683 127.605 38.553 127.322 38.2829C126.765 37.7326 125.971 36.9459 125.031 35.985C124.562 35.5011 124.046 34.9835 123.514 34.4199C122.97 33.8678 122.409 33.2702 121.822 32.6578C121.236 32.0407 120.63 31.4021 120.012 30.7512C119.393 30.1009 118.766 29.4353 118.142 28.7637C117.448 28.0235 116.758 27.2797 116.076 26.5478C116.538 26.293 116.996 26.0403 117.444 25.7931C117.827 25.5861 118.202 25.3814 118.569 25.1812C118.939 24.983 119.301 24.7888 119.653 24.5999C120.36 24.2114 121.024 23.8273 121.619 23.4414C122.216 23.0572 122.746 22.6747 123.187 22.2978C123.631 21.9228 123.983 21.5501 124.235 21.2141C124.488 20.8762 124.637 20.5757 124.717 20.3622C124.76 20.2562 124.783 20.1724 124.797 20.115C124.812 20.0578 124.821 20.0287 124.821 20.0287C124.821 20.0287 124.811 20.0573 124.792 20.1126C124.772 20.1685 124.745 20.2516 124.695 20.3521C124.603 20.5562 124.435 20.8409 124.165 21.153C123.894 21.4639 123.526 21.8036 123.066 22.141C122.608 22.4799 122.063 22.8204 121.449 23.1557C120.833 23.4884 120.15 23.8151 119.419 24.1441C119.057 24.315 118.677 24.4787 118.298 24.6716C117.924 24.8638 117.539 25.0609 117.151 25.2599C116.65 25.5204 116.138 25.7897 115.623 26.0621C115.224 25.6341 114.827 25.21 114.436 24.7981C114.135 24.4825 113.837 24.1717 113.546 23.8673C113.249 23.5606 112.945 23.2814 112.659 23.0019C112.076 22.4513 111.537 21.9192 111.064 21.4031C110.594 20.8855 110.189 20.3851 109.868 19.915C109.544 19.4457 109.308 19.0044 109.154 18.6221C109.001 18.2383 108.935 17.9144 108.914 17.6913C108.901 17.5804 108.901 17.4924 108.902 17.4337C108.902 17.375 108.902 17.3446 108.902 17.3446C108.902 17.3446 108.899 17.375 108.895 17.4337C108.891 17.4926 108.884 17.5796 108.89 17.6934C108.896 17.9212 108.939 18.2541 109.068 18.6564C109.196 19.0566 109.406 19.5236 109.702 20.0233C109.996 20.5243 110.372 21.059 110.81 21.6169C111.247 22.1763 111.747 22.7568 112.289 23.3551C112.56 23.6494 112.839 23.9514 113.123 24.2595C113.404 24.5688 113.693 24.8851 113.985 25.2059C114.329 25.5881 114.682 25.9788 115.037 26.3727C114.151 26.8426 113.253 27.3204 112.352 27.7936C111.543 28.2237 110.732 28.6483 109.934 29.0597C109.657 29.2036 108.074 30.0235 107.601 30.2692C106.845 30.6554 106.119 31.0364 105.425 31.3805C104.738 31.7387 104.081 32.0584 103.48 32.3622C102.277 32.9624 101.268 33.4465 100.563 33.7842C100.207 33.9467 99.9298 34.0795 99.741 34.1701C99.5527 34.2597 99.4512 34.3088 99.4512 34.3088C99.4512 34.3088 99.559 34.2737 99.7597 34.2103C99.96 34.1459 100.254 34.0519 100.627 33.9267C101.001 33.8029 101.447 33.6309 101.962 33.4426C102.477 33.2507 103.048 33.0123 103.677 32.7604C104.299 32.4921 104.976 32.2067 105.684 31.8841C106.393 31.561 107.137 31.2099 107.905 30.8421C108.23 30.6803 108.563 30.5149 108.897 30.3489C108.902 30.5354 108.924 30.7216 108.967 30.9032C109.067 31.3545 109.26 31.7779 109.483 32.1755C109.702 32.5736 109.974 32.9481 110.207 33.3214C110.426 33.6992 110.542 34.133 110.592 34.5677C110.689 35.4453 110.544 36.3247 110.528 37.2212C110.528 37.2459 110.528 37.2695 110.528 37.2931C110.465 37.3368 110.409 37.3812 110.364 37.4264C110.282 37.5071 110.234 37.589 110.219 37.6492C110.203 37.71 110.206 37.7424 110.206 37.7424C110.206 37.7424 110.211 37.7082 110.239 37.6588C110.266 37.6087 110.324 37.5461 110.413 37.4908C110.446 37.4705 110.487 37.4518 110.528 37.4329C110.529 37.8097 110.524 38.179 110.509 38.5551L110.462 39.8882C110.397 41.6657 110.348 43.4496 110.421 45.2372C110.46 46.1312 110.535 47.0261 110.687 47.9141C110.763 48.3577 110.862 48.7994 111.005 49.2326C111.15 49.6609 111.336 50.091 111.648 50.445L111.667 50.4671L111.696 50.4749L111.704 50.4767L111.737 50.4855L111.766 50.4728C112.199 50.2824 112.523 49.943 112.801 49.5913C113.08 49.2358 113.314 48.8509 113.529 48.4574C113.956 47.6684 114.304 46.8415 114.623 46.0062C115.12 44.7004 115.54 43.3686 115.942 42.0339L115.965 42.0269C115.965 42.0269 115.962 42.0087 115.958 41.982C116.065 41.6257 116.171 41.2693 116.277 40.913C116.404 40.4868 116.531 40.0604 116.666 39.6383C116.732 39.4264 116.808 39.2218 116.88 39.0088C116.95 38.7938 117.008 38.5774 117.062 38.3608C117.08 38.2884 117.097 38.2154 117.114 38.1429C117.161 38.1782 117.206 38.212 117.246 38.2414C117.426 38.373 117.53 38.4481 117.53 38.4481C117.53 38.4481 117.433 38.3634 117.266 38.2162C117.223 38.179 117.177 38.1372 117.126 38.0915C117.208 37.7474 117.287 37.4033 117.378 37.0649C117.493 36.6392 117.628 36.2187 117.821 35.8317C118.013 35.4476 118.27 35.0962 118.613 34.8576C118.965 34.6139 119.331 34.3862 119.681 34.1306C120.03 33.8769 120.368 33.5964 120.643 33.2468C120.77 33.0848 120.879 32.9017 120.961 32.7056C121.09 32.8367 121.221 32.9705 121.348 33.1001C121.954 33.6992 122.541 34.2742 123.106 34.8108C123.668 35.3476 124.215 35.8393 124.715 36.2961C125.226 36.7405 125.688 37.1529 126.111 37.5022C126.537 37.8489 126.902 38.1567 127.214 38.3964C127.526 38.6366 127.773 38.8226 127.942 38.9483C128.11 39.074 128.201 39.1418 128.201 39.1418C128.201 39.1418 128.121 39.0631 127.972 38.9161ZM116.914 38.3174C116.861 38.5325 116.803 38.7465 116.736 38.954C116.665 39.1613 116.586 39.3714 116.52 39.5848C116.382 40.009 116.254 40.4354 116.125 40.8611C116.043 41.1351 115.959 41.4078 115.877 41.6812C115.852 41.6153 115.822 41.5459 115.781 41.4685C115.722 41.3605 115.647 41.2408 115.547 41.1239C115.454 41.0008 115.334 40.8868 115.202 40.7678C115.066 40.6577 114.917 40.5437 114.753 40.4486C114.588 40.3528 114.411 40.2661 114.225 40.1991C114.039 40.1289 113.845 40.077 113.65 40.0417C113.259 39.9671 112.862 39.9573 112.496 39.9936C112.312 40.0105 112.137 40.0412 111.973 40.0822C111.81 40.1245 111.657 40.1666 111.522 40.2266C111.385 40.2809 111.264 40.3406 111.162 40.4029C111.06 40.4635 110.975 40.5224 110.91 40.5793C110.842 40.6312 110.796 40.6803 110.765 40.7136C110.734 40.7468 110.717 40.7645 110.717 40.7645L110.728 40.7793C110.728 40.7793 110.75 40.7715 110.793 40.7561C110.834 40.7395 110.894 40.7175 110.972 40.6936C111.01 40.6803 111.053 40.6678 111.1 40.6567C111.147 40.6445 111.196 40.6284 111.251 40.618C111.36 40.5951 111.48 40.5699 111.616 40.5531C111.749 40.5354 111.894 40.5206 112.048 40.5118C112.203 40.5063 112.364 40.5016 112.531 40.5063C112.698 40.5079 112.872 40.5211 113.046 40.5367C113.219 40.5551 113.396 40.5772 113.57 40.6081C113.744 40.6408 113.918 40.6723 114.087 40.7167C114.256 40.7569 114.421 40.805 114.577 40.8613C114.892 40.9691 115.17 41.1234 115.375 41.3C115.581 41.4758 115.713 41.6716 115.79 41.8103C115.802 41.8301 115.811 41.848 115.821 41.8672C115.404 43.2374 114.97 44.6033 114.457 45.9366C114.137 46.7659 113.787 47.5863 113.365 48.3616C113.152 48.7488 112.921 49.1254 112.651 49.4672C112.396 49.7874 112.1 50.0837 111.747 50.2549C111.495 49.9461 111.325 49.5625 111.194 49.1714C111.059 48.753 110.962 48.3203 110.889 47.884C110.74 47.0098 110.675 46.1218 110.631 45.2354C110.549 43.4585 110.589 41.6797 110.645 39.9025L110.685 38.5683C110.697 38.1717 110.694 37.765 110.689 37.3695C110.847 37.3144 111.034 37.2664 111.249 37.2303C111.612 37.1672 112.042 37.1217 112.503 37.1054C112.734 37.0963 112.972 37.0911 113.213 37.0911C113.451 37.088 113.694 37.0851 113.935 37.0825C114.054 37.0815 114.172 37.0825 114.282 37.09C114.406 37.0997 114.533 37.1038 114.645 37.115C114.873 37.1303 115.108 37.1716 115.33 37.2183C115.549 37.277 115.763 37.3448 115.956 37.4339C116.149 37.5232 116.329 37.6173 116.489 37.7178C116.677 37.8328 116.838 37.945 116.978 38.0466C116.958 38.1362 116.937 38.2273 116.914 38.3174ZM120.527 33.1489C120.266 33.4819 119.937 33.7553 119.592 34.0054C119.247 34.2568 118.882 34.4828 118.527 34.7295C118.158 34.9856 117.885 35.3583 117.687 35.7575C117.487 36.159 117.349 36.5872 117.232 37.0184C117.147 37.336 117.072 37.6557 116.996 37.9751C116.872 37.8624 116.729 37.7375 116.562 37.6048C116.26 37.3607 115.875 37.1095 115.425 36.9023C115.198 36.8005 114.963 36.7028 114.705 36.6374C114.573 36.5966 114.454 36.5743 114.33 36.5501C114.194 36.5231 114.061 36.5122 113.931 36.5039C113.669 36.4888 113.413 36.4976 113.162 36.5236C112.912 36.5519 112.669 36.5904 112.435 36.6358C111.967 36.7288 111.534 36.8392 111.175 36.9734C110.993 37.042 110.829 37.1155 110.69 37.1924C110.706 36.3252 110.846 35.4507 110.745 34.5563C110.692 34.1059 110.571 33.6507 110.335 33.246C110.089 32.8552 109.828 32.4988 109.61 32.1046C109.39 31.7161 109.203 31.3065 109.107 30.8767C109.061 30.6785 109.04 30.478 109.041 30.2778C109.443 30.0768 109.85 29.8721 110.259 29.662C111.06 29.2488 111.871 28.8236 112.681 28.3923C113.495 27.9635 114.302 27.5199 115.101 27.0856C115.23 27.0142 115.357 26.9444 115.486 26.8732C115.583 26.981 115.678 27.0867 115.775 27.195C116.096 27.5469 116.419 27.9019 116.744 28.2572L116.778 28.3027C116.876 28.4302 116.979 28.5535 117.078 28.679C117.18 28.8034 117.277 28.9304 117.381 29.0527L117.695 29.4145C117.799 29.5379 117.907 29.6552 118.018 29.7706L118.346 30.1186L118.689 30.4533C118.801 30.5666 118.924 30.6679 119.042 30.7756C119.123 30.8504 119.209 30.9193 119.294 30.9886C119.364 31.0634 119.436 31.1395 119.506 31.2135C119.957 31.6841 120.404 32.1404 120.846 32.59C120.769 32.7915 120.659 32.9801 120.527 33.1489Z" fill="#293644"/>
<path d="M115.713 41.781C115.675 41.653 115.414 41.6283 115.322 41.688C115.095 41.8309 114.887 41.994 114.695 42.1722C114.682 42.174 114.669 42.1763 114.663 42.1794C113.596 42.6692 112.696 43.5188 111.737 44.226C111.562 44.3548 111.382 44.4672 111.195 44.5737C111.719 44.2753 112.198 43.7746 112.678 43.3876C113.37 42.8279 114.061 42.2701 114.737 41.6906C114.861 41.5836 114.428 41.5073 114.354 41.5398C113.537 41.8937 112.747 42.3433 111.929 42.71C112.622 42.0984 112.702 41.866 112.85 41.5429C113.133 41.4922 113.394 41.4307 113.578 41.3312C113.508 41.3039 113.266 41.239 113.041 41.1767C113.118 41.0234 112.732 40.9925 112.654 41.0346C112.127 41.319 111.548 41.4211 111.021 41.7065C110.857 41.7945 111.262 41.9428 111.379 41.8797C111.555 41.7847 111.802 41.7249 112.069 41.6756C111.575 42.1116 110.998 42.5087 110.862 43.1622C110.831 43.3084 111.149 43.3248 111.222 43.3022C111.97 43.0632 112.68 42.7061 113.388 42.3482C112.459 43.1115 111.587 43.7917 110.669 44.58C110.626 44.6171 110.669 44.6784 110.692 44.6976C111.094 45.0168 111.52 44.781 111.903 44.5337C112.592 44.0891 113.212 43.531 113.872 43.0479C113.099 43.8608 112.272 44.6132 111.456 45.3843C111.331 45.5024 111.768 45.5682 111.84 45.5344C112.279 45.3331 112.69 45.09 113.087 44.8194C112.546 45.4653 111.973 46.0764 111.346 46.6402C111.224 46.7496 111.635 46.8231 111.693 46.8044C112.143 46.66 112.579 46.48 113.006 46.2787C112.419 46.8592 111.839 47.4498 111.299 48.0882C111.199 48.2071 111.612 48.3209 111.711 48.2149C112.155 47.7407 112.6 47.2716 113.053 46.8145C112.799 47.2924 112.54 47.7705 112.289 48.2551C112.013 48.5351 111.758 48.833 111.554 49.1906C111.499 49.2859 111.62 49.3415 111.746 49.3548C111.726 49.3994 111.705 49.4431 111.684 49.4877C111.62 49.6295 112.034 49.6563 112.108 49.5859C112.702 49.0231 112.877 48.6465 113.178 47.9071C113.179 47.9061 113.178 47.9051 113.178 47.9045C113.839 47.0033 114.323 46.0175 114.799 44.9669C114.851 44.8513 114.632 44.8075 114.496 44.8404C114.691 44.3885 114.865 43.9244 115.011 43.4442C115.135 43.5123 115.31 43.5011 115.313 43.4016C115.322 42.8549 115.876 42.3316 115.713 41.781ZM115.201 42.463C115.153 42.4269 115.072 42.4088 114.998 42.4051C115.093 42.3116 115.192 42.2218 115.297 42.1363C115.278 42.2451 115.242 42.3545 115.201 42.463ZM113.359 44.0997C113.347 44.1234 113.336 44.1452 113.324 44.1686C113.316 44.1867 113.315 44.2041 113.318 44.2205C113.191 44.3182 113.062 44.4137 112.933 44.5067C113.075 44.3717 113.217 44.2366 113.359 44.0997ZM114.395 43.8037C114.458 43.7164 114.334 43.6613 114.203 43.6463C114.343 43.464 114.491 43.2887 114.647 43.1217C114.406 43.9831 114.069 44.7908 113.687 45.5762C113.225 45.8266 112.759 46.0629 112.28 46.2681C113.051 45.5126 113.75 44.6903 114.395 43.8037Z" fill="white"/>
<path opacity="0.5" d="M121.222 29.4041C121.326 29.3618 121.434 29.3319 121.541 29.3085C121.757 29.2592 121.974 29.2363 122.189 29.2168C122.405 29.1992 122.619 29.194 122.833 29.1883L123.472 29.1919C123.684 29.1963 123.895 29.2059 124.099 29.2057L124.73 29.1914C125.16 29.1833 125.589 29.1854 126.015 29.1885C126.871 29.195 127.722 29.2065 128.567 29.1623C128.779 29.1498 128.989 29.1348 129.2 29.1179L129.509 29.0865L129.831 29.0457L131.115 28.8623C131.976 28.7387 132.833 28.6042 133.688 28.4538C134.545 28.3024 135.396 28.1227 136.234 27.8962C137.073 27.6677 137.902 27.4002 138.681 27.0402C139.296 26.7555 139.882 26.4083 140.373 25.9774C140.301 25.9689 140.228 25.9587 140.155 25.9525C140.029 25.9439 139.903 25.932 139.775 25.9271C139.648 25.9221 139.52 25.9198 139.391 25.9211C139.263 25.9242 139.134 25.9247 139.004 25.9307C138.875 25.9359 138.745 25.9439 138.615 25.9538C138.355 25.9738 138.093 26.0013 137.832 26.0361C137.57 26.0715 137.31 26.1122 137.048 26.159C136.789 26.2083 136.528 26.2572 136.271 26.3148C136.013 26.3738 135.754 26.4301 135.497 26.4909L134.726 26.6717C135.176 26.5496 135.625 26.4299 136.073 26.2969C136.194 26.2621 136.315 26.2255 136.436 26.1904L137.016 26.0117C137.269 25.933 137.525 25.8551 137.784 25.7853C137.882 25.7585 137.98 25.7338 138.078 25.7089C138.311 25.6427 138.542 25.5775 138.775 25.51C139.229 25.377 139.685 25.2617 140.143 25.1513L140.833 24.9835C141.058 24.9287 141.284 24.876 141.507 24.8116C141.954 24.6882 142.397 24.5441 142.834 24.382C143.271 24.2213 143.703 24.0449 144.132 23.8556C144.562 23.6691 144.989 23.4762 145.414 23.2707L146.693 22.6536C147.122 22.4461 147.543 22.2314 147.986 22.0283C148.864 21.6208 149.754 21.26 150.619 20.8728C151.052 20.6775 151.478 20.4726 151.891 20.2495C152.097 20.1381 152.301 20.0196 152.499 19.8997C152.596 19.8376 152.694 19.7802 152.791 19.7142L153.086 19.5161C153.485 19.2384 153.885 18.9725 154.268 18.698C154.526 18.512 154.765 18.3125 154.995 18.1053C154.324 17.9721 153.641 17.8754 152.955 17.8097C152.118 17.7334 151.276 17.6903 150.433 17.6838C149.592 17.6783 148.748 17.7012 147.911 17.7414C147.07 17.7853 146.234 17.8443 145.402 17.9209C144.985 17.9541 144.572 18.0069 144.157 18.0487C143.744 18.0949 143.332 18.1536 142.921 18.205L141.694 18.3933C141.288 18.4689 140.878 18.5343 140.477 18.6167L139.877 18.7406C139.677 18.7803 139.476 18.8239 139.274 18.8738L138.668 19.0169L138.373 19.0883L138.073 19.1641C137.275 19.3672 136.478 19.5737 135.686 19.7869C134.107 20.2134 132.544 20.6739 131.011 21.1985C130.248 21.459 129.488 21.7291 128.736 22.0135C128.361 22.1566 127.986 22.301 127.617 22.4542C127.243 22.5978 126.877 22.7565 126.51 22.9108C126.146 23.0728 125.788 23.2206 125.42 23.3936C125.055 23.5652 124.696 23.7361 124.325 23.9042L123.23 24.402C122.866 24.5646 122.505 24.7306 122.149 24.9028C121.436 25.2448 120.732 25.6027 120.066 26.0148C119.735 26.2237 119.409 26.44 119.112 26.6906C118.813 26.9407 118.539 27.2139 118.336 27.5539L118.32 27.5466C118.319 27.5497 118.243 27.7863 118.251 27.9757C118.258 28.1663 118.63 28.3162 118.955 28.4998C119.28 28.6831 120.917 29.8092 120.917 29.8092L120.913 29.7017H120.919C120.924 29.6677 120.94 29.6404 120.96 29.6155L120.937 29.5939C121.011 29.5036 121.117 29.4454 121.222 29.4041Z" fill="#E1EEF4"/>
<path d="M147.91 17.1299C148.764 17.1094 149.614 17.1071 150.468 17.1325C151.324 17.1603 152.182 17.2052 153.038 17.2956C153.895 17.3878 154.75 17.5234 155.591 17.7247L155.999 17.8236L155.713 18.1215C155.371 18.477 154.985 18.791 154.595 19.0835C154.208 19.3777 153.813 19.6484 153.441 19.9366L153.149 20.153C153.051 20.2244 152.944 20.2948 152.843 20.3652C152.637 20.5031 152.43 20.6345 152.219 20.7602C151.798 21.0121 151.365 21.2435 150.93 21.4622C150.062 21.9029 149.179 22.2852 148.321 22.686L147.031 23.2981C146.598 23.5015 146.166 23.7087 145.725 23.8988C145.285 24.0913 144.84 24.2777 144.392 24.4512C143.941 24.6226 143.484 24.7816 143.023 24.9231C142.563 25.0667 142.097 25.1917 141.626 25.295C141.392 25.3498 141.155 25.3919 140.92 25.4363L140.709 25.4737C140.82 25.4872 140.931 25.5018 141.042 25.5218L141.515 25.6049L141.192 25.9687C140.571 26.6705 139.772 27.1798 138.951 27.5776C138.126 27.9719 137.268 28.2732 136.401 28.5113C135.535 28.7482 134.664 28.9359 133.793 29.0938C132.923 29.2559 132.053 29.3756 131.188 29.4917L129.891 29.6618L129.567 29.6992L129.231 29.7301C129.011 29.7462 128.791 29.7592 128.572 29.7649C127.696 29.7922 126.834 29.7598 125.982 29.734C125.557 29.7203 125.133 29.7091 124.712 29.707C124.499 29.7039 124.298 29.714 124.067 29.7039C123.848 29.6933 123.636 29.6772 123.425 29.6592L122.798 29.5998C122.591 29.5774 122.384 29.5598 122.176 29.5437C121.969 29.5257 121.763 29.5164 121.558 29.5148C121.356 29.5231 121.141 29.5177 120.969 29.6234L120.961 29.6161L120.938 29.5946C121.011 29.5042 121.117 29.4458 121.222 29.4047C121.326 29.3624 121.434 29.3325 121.541 29.3091C121.757 29.2595 121.974 29.2367 122.189 29.2175C122.406 29.1998 122.62 29.1946 122.834 29.1889L123.472 29.1925C123.684 29.197 123.895 29.2066 124.1 29.2063L124.73 29.192C125.16 29.1837 125.589 29.1858 126.016 29.1892C126.872 29.1957 127.722 29.2071 128.567 29.1629C128.78 29.1505 128.989 29.1351 129.2 29.1185L129.51 29.0871L129.831 29.0463L131.116 28.863C131.977 28.7396 132.834 28.6048 133.689 28.4544C134.546 28.3028 135.397 28.1233 136.235 27.8968C137.074 27.6683 137.902 27.4008 138.681 27.0408C139.297 26.7564 139.882 26.4089 140.374 25.9781C140.301 25.9695 140.229 25.9594 140.155 25.9531C140.03 25.9446 139.904 25.9329 139.776 25.9277C139.648 25.9228 139.52 25.9204 139.392 25.9217C139.263 25.9248 139.134 25.9254 139.005 25.9313C138.875 25.9365 138.746 25.9446 138.615 25.9544C138.355 25.9744 138.094 26.002 137.832 26.0368C137.571 26.0721 137.31 26.1129 137.049 26.1596C136.79 26.209 136.529 26.2578 136.271 26.3154C136.013 26.3741 135.754 26.4308 135.497 26.4915L134.726 26.6723L135.076 26.5869C135.425 26.4989 135.773 26.4043 136.122 26.311C136.108 26.3144 136.093 26.3178 136.079 26.3214L134.726 26.6723L135.176 26.5504C135.475 26.4689 135.775 26.3862 136.073 26.2975C136.194 26.2627 136.315 26.2261 136.437 26.191L137.016 26.0124C137.27 25.9337 137.526 25.8557 137.785 25.7859C137.882 25.7594 137.981 25.7345 138.079 25.7095C138.311 25.6433 138.543 25.5781 138.775 25.5106C139.229 25.3776 139.685 25.2623 140.143 25.1519L140.834 24.9842C141.059 24.9294 141.285 24.8769 141.507 24.8122C141.954 24.6889 142.397 24.5447 142.834 24.3827C143.271 24.2222 143.704 24.0455 144.132 23.8562C144.562 23.6697 144.989 23.4768 145.415 23.2713L146.694 22.6543C147.123 22.4465 147.544 22.232 147.987 22.0289C148.864 21.6214 149.754 21.2607 150.62 20.8734C151.053 20.6781 151.478 20.4732 151.891 20.2501C152.098 20.1387 152.302 20.0203 152.499 19.9003L152.694 19.7784L152.792 19.7148L153.086 19.5167C153.485 19.239 153.886 18.9731 154.268 18.6986C154.526 18.5126 154.766 18.3132 154.995 18.1059C154.324 17.9727 153.642 17.8758 152.956 17.8104C152.119 17.7338 151.276 17.6906 150.433 17.6844C149.592 17.679 148.748 17.7018 147.912 17.7421C147.071 17.786 146.235 17.8449 145.402 17.9215C144.986 17.9548 144.572 18.0072 144.158 18.0493C143.744 18.0955 143.333 18.1542 142.921 18.2056L141.694 18.3939C141.288 18.4693 140.878 18.535 140.477 18.6173L139.877 18.7412C139.678 18.7809 139.477 18.8245 139.274 18.8744L138.668 19.0175L138.373 19.0889L138.073 19.1648C137.275 19.3679 136.479 19.5743 135.687 19.7876C134.108 20.214 132.545 20.6742 131.011 21.1991C130.248 21.4596 129.488 21.7297 128.736 22.0141C128.361 22.1572 127.987 22.3016 127.618 22.4548C127.243 22.5984 126.878 22.7571 126.511 22.9114C126.146 23.0734 125.788 23.2212 125.421 23.3942C125.055 23.5659 124.696 23.7368 124.325 23.9048L123.23 24.4027C122.867 24.5652 122.506 24.7312 122.149 24.9034C121.436 25.2454 120.732 25.6033 120.066 26.0155C119.735 26.2243 119.409 26.4409 119.112 26.6912C118.813 26.9413 118.539 27.2146 118.336 27.5545L118.32 27.5473L118.304 27.54C118.367 27.3582 118.461 27.1746 118.569 27.0052C118.682 26.8375 118.805 26.6762 118.94 26.5242C119.212 26.2214 119.514 25.9469 119.832 25.6932C120.148 25.4386 120.477 25.1997 120.817 24.9771C121.155 24.754 121.498 24.5377 121.85 24.3359C122.199 24.1326 122.553 23.9357 122.907 23.743L123.975 23.183C124.68 22.8052 125.396 22.4364 126.147 22.0868C126.89 21.7458 127.644 21.4266 128.409 21.136C129.174 20.843 129.946 20.5628 130.726 20.3104C131.506 20.0499 132.292 19.814 133.082 19.5772C133.874 19.3468 134.667 19.1222 135.468 18.9134C136.269 18.703 137.074 18.5015 137.883 18.3181L138.187 18.2477L138.345 18.2127L138.498 18.1805L139.106 18.0532C139.309 18.0096 139.514 17.9701 139.724 17.934L140.348 17.8218C140.764 17.7483 141.179 17.6927 141.596 17.627L142.849 17.4678C143.269 17.4265 143.688 17.3782 144.108 17.3426C144.529 17.3109 144.95 17.2691 145.372 17.247C146.217 17.192 147.063 17.1554 147.91 17.1299ZM79.9961 5.51453L80.4127 5.55037C81.2744 5.62464 82.1286 5.76567 82.9711 5.94929C83.811 6.13316 84.6395 6.36145 85.4599 6.60506C86.2793 6.85049 87.0852 7.12111 87.8893 7.41069C88.6843 7.70131 89.4756 8.00335 90.2607 8.32202C90.6537 8.47629 91.0393 8.64926 91.4294 8.81158C91.8174 8.97806 92.1992 9.15648 92.5841 9.32789L93.7237 9.87484C94.098 10.0683 94.4743 10.2525 94.8462 10.4532L95.4036 10.7571C95.5903 10.8568 95.7734 10.9594 95.951 11.0646L96.4884 11.3773L96.6229 11.4557L96.7621 11.5396L97.0278 11.7017C97.7379 12.1312 98.4388 12.5764 99.132 13.0288C99.8254 13.4797 100.508 13.9435 101.187 14.4118C101.861 14.8857 102.533 15.3579 103.191 15.8511C103.851 16.3368 104.495 16.8461 105.128 17.3655C105.762 17.8826 106.378 18.4233 106.976 18.9817C107.577 19.5497 108.141 20.1262 108.69 20.7072L109.528 21.5757C109.803 21.8705 110.077 22.1686 110.344 22.472C110.613 22.7745 110.87 23.0877 111.121 23.4067C111.373 23.7245 111.61 24.0552 111.83 24.3967C112.051 24.7377 112.251 25.0938 112.413 25.4667C112.493 25.6532 112.56 25.8456 112.614 26.0401C112.663 26.2349 112.694 26.4383 112.696 26.6313L112.683 26.6323L112.66 26.6346C112.575 26.2482 112.401 25.9025 112.197 25.5706C111.993 25.2394 111.752 24.9309 111.504 24.6283C111.002 24.0271 110.447 23.4654 109.878 22.9161C109.595 22.6402 109.305 22.3686 109.011 22.1L108.129 21.2822C107.83 21.0048 107.545 20.7301 107.251 20.4516C106.957 20.1722 106.664 19.9182 106.369 19.6494L105.92 19.2553C105.769 19.1243 105.618 18.9941 105.463 18.8669C105.161 18.6051 104.851 18.3498 104.541 18.0958C103.917 17.5891 103.282 17.0925 102.639 16.6045C101.35 15.6225 100.012 14.6923 98.6481 13.7892C97.9633 13.3371 97.2735 12.8898 96.5803 12.4452L96.3193 12.2785L96.0622 12.1177L95.5324 11.7905C95.356 11.6791 95.1792 11.5741 95.002 11.4736L94.472 11.1667C94.1169 10.9617 93.7494 10.7703 93.3877 10.5709L92.2831 10.005C91.9086 9.82576 91.5367 9.64006 91.1591 9.4658C90.7794 9.29542 90.4028 9.11492 90.0179 8.95156C89.2528 8.61628 88.4783 8.29657 87.6948 7.98959C86.9128 7.6878 86.1191 7.39978 85.3194 7.13955C84.5177 6.87958 83.7043 6.65415 82.8859 6.46248C82.2117 6.30795 81.5315 6.18407 80.8503 6.09862C81.0033 6.36872 81.1742 6.63259 81.3611 6.89178C81.6372 7.27252 81.9328 7.65144 82.2234 8.04075L82.4405 8.3215C82.5127 8.415 82.5873 8.50044 82.66 8.59004C82.809 8.76639 82.9662 8.94351 83.1262 9.11389C83.4482 9.45619 83.7866 9.78446 84.1362 10.1068C84.8356 10.7475 85.5651 11.3703 86.2697 12.0344C86.626 12.3665 86.9574 12.7029 87.2995 13.0358L88.3186 14.0251C88.657 14.3538 89.0014 14.6723 89.3509 14.9844C89.6977 15.2992 90.0522 15.6033 90.4158 15.8937C90.7799 16.1856 91.1536 16.4619 91.5398 16.7204C91.7304 16.8518 91.9289 16.9728 92.1244 17.0962L92.7267 17.4725C93.1264 17.7221 93.5225 17.9758 93.9115 18.2449C94.1382 18.4015 94.3663 18.556 94.5933 18.7116C94.6496 18.7482 94.7086 18.7817 94.7641 18.8188C94.9885 18.9666 95.2064 19.1214 95.4225 19.2759L95.9227 19.6335C96.0243 19.7034 96.1253 19.7748 96.2274 19.8444C96.6104 20.1114 96.9984 20.3672 97.387 20.6249L96.7128 20.2099C96.4873 20.0709 96.2598 19.9361 96.0341 19.7987C95.8074 19.6629 95.5755 19.5341 95.3446 19.4053C95.1124 19.2785 94.8769 19.1578 94.6403 19.0417C94.4034 18.9258 94.1642 18.8181 93.9232 18.7162C93.8032 18.6653 93.6824 18.6176 93.5606 18.5713C93.4401 18.5254 93.3175 18.4838 93.1965 18.4404C93.075 18.3984 92.9526 18.3604 92.8303 18.3249C92.708 18.289 92.5841 18.2604 92.4621 18.2293C92.3906 18.2116 92.3187 18.1986 92.2473 18.1841C92.5781 18.7479 93.0246 19.2624 93.5178 19.7265C94.1437 20.3137 94.8454 20.8293 95.5685 21.3108C96.2918 21.7899 97.0434 22.2291 97.8088 22.6436C98.5723 23.0555 99.3439 23.4542 100.121 23.843L101.283 24.4227L101.575 24.5626L101.859 24.6902C102.053 24.7733 102.248 24.854 102.445 24.9322C103.233 25.241 104.044 25.4989 104.858 25.7625C105.264 25.8934 105.672 26.0272 106.077 26.1705L106.671 26.3832C106.865 26.4479 107.068 26.5053 107.271 26.5681L107.877 26.7663C108.078 26.8393 108.28 26.9117 108.48 26.9967C108.678 27.0826 108.877 27.1738 109.066 27.2881C109.161 27.3442 109.254 27.4065 109.339 27.48C109.425 27.5517 109.508 27.641 109.549 27.7496L109.52 27.7628L109.51 27.7675C109.38 27.613 109.175 27.5501 108.986 27.4787C108.79 27.4153 108.592 27.3595 108.39 27.3107C108.189 27.2605 107.986 27.2117 107.782 27.1681L107.168 27.0265C106.963 26.9774 106.757 26.9255 106.545 26.8663C106.323 26.8032 106.135 26.7302 105.933 26.6658C105.532 26.5349 105.126 26.4121 104.719 26.2905C103.902 26.0461 103.074 25.8043 102.252 25.5023C102.045 25.4277 101.841 25.3459 101.637 25.2613L101.328 25.1262L101.033 24.9883L99.8555 24.4172C99.0717 24.0336 98.2832 23.6456 97.5096 23.2176C96.7333 22.7924 95.9651 22.3395 95.2181 21.8419C94.472 21.3425 93.7523 20.7856 93.0937 20.1506C92.44 19.5138 91.8419 18.7786 91.4746 17.9168L91.284 17.4696L91.7577 17.54C91.8694 17.5561 91.9795 17.5774 92.0894 17.5992L91.9013 17.4977C91.6917 17.3813 91.4803 17.2663 91.2759 17.1406C90.862 16.8936 90.4584 16.6279 90.0675 16.3464C89.6745 16.0667 89.2912 15.7721 88.9177 15.4675C88.5471 15.1608 88.1841 14.8439 87.8275 14.5224C87.4688 14.2024 87.1236 13.8695 86.7777 13.5402L85.7472 12.552C85.0595 11.9006 84.3413 11.2589 83.6573 10.5672C83.3139 10.2226 82.976 9.86627 82.6561 9.4941C82.495 9.30841 82.3408 9.11804 82.1881 8.92222L82.0377 8.72368L81.965 8.62459L81.7559 8.32722C81.4944 7.93609 81.2051 7.55457 80.9298 7.15331C80.6521 6.75284 80.3849 6.33288 80.1732 5.88773L79.9961 5.51453Z" fill="#293644"/>
<path opacity="0.5" d="M112.663 26.6345C112.578 26.2483 112.405 25.9024 112.2 25.5705C111.997 25.2393 111.755 24.9305 111.507 24.6282C111.006 24.0273 110.451 23.4652 109.881 22.9159C109.598 22.6401 109.308 22.3685 109.014 22.0999L108.132 21.2821C107.834 21.0047 107.548 20.7299 107.254 20.4515C106.96 20.1718 106.667 19.9181 106.372 19.6493C106.072 19.3872 105.775 19.1213 105.466 18.8668C105.164 18.605 104.854 18.3494 104.545 18.0957C103.92 17.589 103.285 17.0927 102.642 16.6044C101.353 15.6224 100.015 14.6921 98.6514 13.7891C97.9665 13.337 97.2767 12.89 96.5835 12.4451L96.3225 12.2784L96.0654 12.1176L95.5356 11.7904C95.3593 11.679 95.1824 11.574 95.0053 11.4735L94.4752 11.1665C94.1202 10.9616 93.7527 10.7702 93.3909 10.5708L92.2863 10.0048C91.9118 9.82591 91.5399 9.64021 91.1623 9.46569C90.7826 9.29531 90.4063 9.11481 90.0211 8.95145C89.256 8.61617 88.4813 8.29646 87.698 7.98948C86.9157 7.68743 86.1223 7.39967 85.3227 7.13944C84.5209 6.87947 83.7075 6.65404 82.8891 6.46237C82.2149 6.30784 81.5347 6.18396 80.8535 6.09851C81.0065 6.36861 81.1774 6.63248 81.3644 6.89167C81.6404 7.27241 81.936 7.65133 82.2266 8.04064L82.4437 8.32139C82.5157 8.41489 82.5902 8.50033 82.6632 8.58993C82.8123 8.76628 82.9694 8.94314 83.1294 9.11378C83.4512 9.45608 83.7898 9.78461 84.1394 10.1067C84.8386 10.7474 85.5683 11.3702 86.2729 12.0342C86.6293 12.3664 86.9604 12.7027 87.3027 13.0357L88.3218 14.0249C88.6602 14.3537 89.0046 14.6721 89.3542 14.9843C89.7009 15.2991 90.0551 15.6035 90.419 15.8936C90.7831 16.1855 91.1568 16.4618 91.543 16.7202C91.7337 16.8517 91.9321 16.9727 92.1276 17.096L92.7299 17.4724C93.1296 17.7217 93.5257 17.9757 93.9147 18.2448C94.1415 18.4016 94.3695 18.5562 94.5965 18.7115C94.6528 18.7481 94.7118 18.7816 94.7674 18.8187C94.9918 18.9665 95.2097 19.1213 95.4257 19.2758L95.9259 19.6334C96.0275 19.7033 96.1285 19.7747 96.2306 19.8443C96.6137 20.1113 97.0017 20.3671 97.3902 20.6248L96.716 20.2097C96.4906 20.0708 96.2631 19.936 96.0374 19.7986C95.8106 19.6628 95.5784 19.534 95.3478 19.4052C95.1156 19.2782 94.8801 19.1574 94.6435 19.0416C94.4066 18.9257 94.1674 18.8179 93.9264 18.7161C93.8064 18.6652 93.6857 18.6174 93.5639 18.5712C93.4433 18.5252 93.3205 18.4837 93.1997 18.4403C93.0782 18.3982 92.9559 18.3603 92.8335 18.3247C92.7112 18.2889 92.5873 18.2601 92.4653 18.2292C92.3938 18.2118 92.3219 18.1985 92.2505 18.184C92.5811 18.7478 93.0275 19.2623 93.521 19.7264C94.1469 20.3136 94.8487 20.8292 95.5717 21.3107C96.295 21.7901 97.0466 22.229 97.812 22.6435C98.5755 23.0554 99.3471 23.4543 100.124 23.8429L101.286 24.4225L101.578 24.5625L101.862 24.69C102.056 24.7732 102.252 24.8539 102.448 24.9321C103.236 25.2409 104.047 25.4988 104.861 25.7624C105.268 25.893 105.675 26.027 106.08 26.1704L106.674 26.3831C106.868 26.448 107.071 26.5054 107.274 26.568L107.88 26.7662C108.082 26.8392 108.284 26.9116 108.484 26.9966C108.681 27.0825 108.88 27.1734 109.069 27.288C109.164 27.344 109.257 27.4064 109.342 27.4799C109.428 27.5516 109.511 27.6409 109.553 27.7495L109.523 27.7627C109.535 27.7928 109.542 27.824 109.535 27.8578L109.54 27.8591L109.503 27.9601C109.503 27.9601 111.412 27.4079 111.778 27.3368C112.144 27.2651 112.544 27.2402 112.612 27.062C112.68 26.8841 112.682 26.6348 112.682 26.6327L112.688 26.6322L112.663 26.6345Z" fill="#E1EEF4"/>
</svg>
