<svg width="264" height="48" viewBox="0 0 264 48" fill="none" xmlns="http://www.w3.org/2000/svg">
<path d="M113.532 13.5694C114.571 13.956 115.528 14.5336 116.355 15.2725C116.99 15.8392 117.494 16.5376 117.832 17.3191C118.075 17.8873 118.234 18.488 118.302 19.1022C118.332 19.3327 118.244 19.5629 118.067 19.7138C117.899 19.8684 117.679 19.9526 117.451 19.9491H114.891C114.692 19.9578 114.496 19.898 114.336 19.7797C114.214 19.6802 114.113 19.557 114.04 19.4174C113.997 19.3327 113.885 19.1493 113.706 18.8623C113.475 18.5238 113.188 18.2264 112.859 17.9825C112.396 17.6319 111.884 17.3514 111.339 17.1497C110.583 16.8904 109.786 16.7693 108.987 16.7922C107.616 16.7272 106.272 17.1826 105.223 18.0672C104.267 18.9489 103.719 20.187 103.708 21.4875C103.67 22.2873 103.647 23.1436 103.647 24.0563C103.647 24.9691 103.67 25.8253 103.708 26.6251C103.774 28.369 104.279 29.6346 105.223 30.4219C106.297 31.2504 107.632 31.6691 108.987 31.6028C109.71 31.6119 110.431 31.5281 111.132 31.3534C111.745 31.2028 112.319 30.9238 112.817 30.5348C113.305 30.1352 113.685 29.6191 113.922 29.034C114.202 28.3066 114.334 27.5311 114.313 26.7522V26.4981H110.469C110.003 26.4881 109.627 26.1127 109.617 25.6465V23.4165C109.616 23.1908 109.708 22.9746 109.871 22.819C110.026 22.6549 110.243 22.5642 110.469 22.5696H117.714C117.94 22.5642 118.157 22.6549 118.312 22.819C118.475 22.9746 118.567 23.1908 118.566 23.4165V26.8839C118.576 28.0723 118.373 29.2529 117.968 30.3701C117.581 31.4071 116.967 32.3443 116.171 33.113C115.31 33.9171 114.289 34.5296 113.174 34.9102C110.456 35.7618 107.542 35.7618 104.823 34.9102C103.734 34.5409 102.739 33.9389 101.906 33.146C101.119 32.3784 100.51 31.4467 100.123 30.4172C99.7036 29.3029 99.4746 28.1259 99.4456 26.9357C99.4456 26.5357 99.4079 26.0935 99.3985 25.6136C99.3891 25.1337 99.3985 24.635 99.3985 24.1316V22.6496C99.3985 22.1697 99.4362 21.7369 99.455 21.337C99.4816 20.1558 99.7157 18.9885 100.147 17.8884C100.552 16.8707 101.177 15.9551 101.977 15.2066C102.829 14.4312 103.834 13.8416 104.927 13.4753C107.737 12.6238 110.741 12.6566 113.532 13.5694ZM81.8356 13.4377C82.0238 13.6258 82.1602 13.7764 82.2449 13.8799L91.0852 27.0297V14.0446C91.0878 13.5753 91.4675 13.1956 91.9367 13.193H94.4914C94.9578 13.2006 95.3333 13.5782 95.3383 14.0446V34.4068C95.3333 34.8732 94.9578 35.2508 94.4914 35.2584L92.2661 35.2396C91.9662 35.2607 91.6706 35.1588 91.4475 34.9573C91.2593 34.7644 91.1228 34.6186 91.0381 34.515L82.212 21.384V34.3692C82.2094 34.8384 81.8297 35.2182 81.3604 35.2208H78.8104C78.3412 35.2182 77.9614 34.8384 77.9589 34.3692V14.0069C77.9614 13.5377 78.3412 13.1579 78.8104 13.1554H81.017C81.3169 13.1342 81.6125 13.2362 81.8356 13.4377ZM135.597 13.4377C135.785 13.6258 135.922 13.7764 136.006 13.8799L144.833 27.0533V14.0446C144.835 13.5753 145.215 13.1956 145.684 13.193H148.234C148.703 13.1956 149.083 13.5753 149.086 14.0446V34.4068C149.083 34.8761 148.703 35.2558 148.234 35.2584L146.042 35.2396C145.742 35.2607 145.446 35.1588 145.223 34.9573C145.035 34.7644 144.898 34.6186 144.814 34.515L135.988 21.384V34.3692C135.986 34.5971 135.894 34.8151 135.732 34.975C135.569 35.1348 135.35 35.2233 135.122 35.2208H132.572C132.103 35.2182 131.723 34.8384 131.72 34.3692V14.0069C131.723 13.5377 132.103 13.1579 132.572 13.1554H134.778C135.078 13.1342 135.374 13.2362 135.597 13.4377ZM209.307 13.4424C209.509 13.6766 209.66 13.9507 209.749 14.2469L217.455 34.1669C217.522 34.4227 217.467 34.695 217.306 34.9047C217.145 35.1144 216.896 35.238 216.632 35.2396H214.364C214.045 35.2741 213.726 35.1773 213.48 34.9714C213.33 34.8237 213.213 34.6457 213.136 34.4492L211.81 30.9535H201.836L200.481 34.4492C200.4 34.6432 200.283 34.8204 200.137 34.9714C199.891 35.1773 199.572 35.2741 199.253 35.2396H196.98C196.755 35.2409 196.538 35.149 196.383 34.9855C196.219 34.8307 196.128 34.6135 196.133 34.388C196.133 34.3134 196.143 34.2391 196.162 34.1669L203.887 14.2469C203.976 13.9507 204.127 13.6766 204.329 13.4424C204.53 13.2494 204.804 13.1518 205.082 13.1742H208.549C208.828 13.1516 209.104 13.2492 209.307 13.4424ZM221.219 13.1601L229.354 13.1742C231.982 13.1742 233.979 13.7842 235.343 15.0043C236.707 16.2244 237.391 17.915 237.394 20.0761C237.437 21.4599 237.069 22.8253 236.336 23.9999C235.589 25.1193 234.5 25.9662 233.231 26.4134L237.582 34.1998C237.639 34.3074 237.671 34.4264 237.677 34.548C237.672 34.9278 237.365 35.2345 236.985 35.2396H234.303C233.962 35.2731 233.621 35.1641 233.362 34.9385C233.19 34.7799 233.045 34.5939 232.934 34.388L228.817 27.0297H224.626V34.3739C224.623 34.8431 224.243 35.2229 223.774 35.2255H221.219C220.75 35.2229 220.37 34.8431 220.368 34.3739V14.0116C220.37 13.5424 220.75 13.1626 221.219 13.1601ZM72.9624 13.1742C73.1881 13.1729 73.4043 13.2648 73.5599 13.4282C73.724 13.583 73.8147 13.8002 73.8093 14.0257V16.2652C73.8042 16.7316 73.4287 17.1092 72.9624 17.1168H62.7624V22.1274H72.2661C72.7353 22.1299 73.1151 22.5097 73.1177 22.9789V25.2137C73.1214 25.4421 73.0343 25.6626 72.8755 25.8267C72.7167 25.9908 72.4991 26.0851 72.2708 26.0888H62.7624V31.3205L73.207 31.297C73.6732 31.307 74.0486 31.6824 74.0586 32.1485V34.388C74.0486 34.8541 73.6732 35.2296 73.207 35.2396H59.375C58.9058 35.237 58.526 34.8573 58.5234 34.388V14.0257C58.526 13.5565 58.9058 13.1768 59.375 13.1742H72.9624ZM125.966 13.1742C126.432 13.1842 126.808 13.5596 126.818 14.0257V34.388C126.808 34.8541 126.432 35.2296 125.966 35.2396H123.412C122.946 35.2296 122.57 34.8541 122.56 34.388V14.0257C122.57 13.5596 122.946 13.1842 123.412 13.1742H125.966ZM168.469 13.1742C168.935 13.1842 169.311 13.5596 169.321 14.0257V16.2652C169.311 16.7313 168.935 17.1068 168.469 17.1168H158.274V22.1274H167.773C168.242 22.1299 168.622 22.5097 168.625 22.9789V25.2137C168.628 25.4412 168.536 25.6598 168.371 25.8159C168.213 25.9762 167.998 26.0662 167.773 26.0653H158.274V31.297H168.714C169.18 31.307 169.556 31.6824 169.566 32.1485V34.388C169.556 34.8541 169.18 35.2296 168.714 35.2396H154.882C154.416 35.2296 154.04 34.8541 154.03 34.388V14.0257C154.04 13.5596 154.416 13.1842 154.882 13.1742H168.469ZM196.51 13.1742C196.976 13.1842 197.351 13.5596 197.361 14.0257C197.362 14.1232 197.342 14.2197 197.3 14.308L189.829 27.4532V34.388C189.819 34.8541 189.444 35.2296 188.977 35.2396H186.456C185.988 35.2345 185.609 34.8562 185.604 34.388V27.4532L178.124 14.3269C178.082 14.2385 178.061 14.1421 178.062 14.0446C178.057 13.819 178.148 13.6018 178.312 13.4471C178.468 13.2815 178.686 13.1892 178.914 13.193H181.266C181.609 13.1688 181.948 13.2823 182.207 13.5082C182.358 13.6431 182.485 13.8021 182.584 13.9787L187.693 22.9178L192.798 13.9787C192.898 13.8019 193.027 13.6429 193.179 13.5082C193.436 13.2785 193.776 13.1645 194.12 13.193L196.51 13.1742ZM254.181 13.7905C256.331 14.4992 258.038 16.1527 258.815 18.2789C259.237 19.4276 259.486 20.6326 259.554 21.8545C259.638 23.4091 259.638 24.9671 259.554 26.5216C259.488 27.7499 259.239 28.9614 258.815 30.1161C258.429 31.1422 257.833 32.0765 257.065 32.859C256.264 33.6413 255.3 34.2373 254.242 34.6044C252.969 35.0388 251.63 35.2474 250.285 35.2208H242.344C241.876 35.2157 241.497 34.8374 241.492 34.3692V14.0257C241.495 13.5565 241.874 13.1768 242.344 13.1742H250.13C251.506 13.1476 252.876 13.356 254.181 13.7905ZM249.918 17.0886H245.684V31.264H250.069C250.83 31.2834 251.588 31.1606 252.304 30.9018C252.895 30.6903 253.433 30.3514 253.88 29.9091C254.299 29.48 254.621 28.9646 254.821 28.3988C255.046 27.7949 255.179 27.1605 255.216 26.5169C255.318 24.9649 255.34 23.4087 255.282 21.8545C255.247 21.2106 255.114 20.5759 254.887 19.9726C254.671 19.4042 254.337 18.888 253.908 18.4576C253.443 18.0052 252.884 17.66 252.271 17.4461C251.514 17.1891 250.717 17.068 249.918 17.0886ZM206.823 18.0295L203.341 27.0297H210.285L206.823 18.0295ZM229.217 17.1497H224.644L224.626 23.1013H229.217C230.213 23.1481 231.203 22.9306 232.087 22.4708C232.798 22.0521 233.151 21.2523 233.155 20.0761C233.16 18.8999 232.802 18.1142 232.087 17.7237C231.194 17.2932 230.207 17.0957 229.217 17.1497Z" fill="#3B62DE"/>
<path d="M15.8738 24.0046C15.8738 19.3041 19.6843 15.4936 24.3848 15.4936C29.0852 15.4936 32.8957 19.3041 32.8957 24.0046C32.8957 28.705 29.0852 32.5155 24.3848 32.5155C19.6843 32.5155 15.8738 28.705 15.8738 24.0046ZM4.38477 24.0046C4.38477 35.0477 13.337 43.9999 24.3801 43.9999C35.4232 43.9999 44.3754 35.0477 44.3754 24.0046C44.3754 12.9615 35.4232 4.00928 24.3801 4.00928C13.3434 4.02483 4.40031 12.9679 4.38477 24.0046Z" fill="url(#paint0_linear_118_351)"/>
<path d="M28.4746 10.1491L24.372 15.4985C28.9906 15.6071 32.6782 19.3824 32.6782 24.0024C32.6782 28.6223 28.9906 32.3976 24.372 32.5062L19.2344 38.3449L24.372 43.9906C31.5222 44.1556 38.2163 40.4899 41.9285 34.3766C45.6407 28.2633 45.8059 20.633 42.3617 14.3647C38.9175 8.09652 32.3883 4.14455 25.2377 4C24.9507 4 24.659 4 24.372 4L28.4746 10.1491Z" fill="url(#paint1_linear_118_351)"/>
<defs>
<linearGradient id="paint0_linear_118_351" x1="28.799" y1="37.0071" x2="19.7611" y2="15.2826" gradientUnits="userSpaceOnUse">
<stop stop-color="#477CD8"/>
<stop offset="0.16" stop-color="#4573D2"/>
<stop offset="0.43" stop-color="#3F5BC2"/>
<stop offset="0.76" stop-color="#3633A7"/>
<stop offset="1" stop-color="#2F1391"/>
</linearGradient>
<linearGradient id="paint1_linear_118_351" x1="35.3251" y1="11.8824" x2="29.0806" y2="34.5736" gradientUnits="userSpaceOnUse">
<stop stop-color="#2055DA"/>
<stop offset="0.11" stop-color="#2055DA"/>
<stop offset="1" stop-color="#00BFF6"/>
</linearGradient>
</defs>
</svg>
