<svg width="160" height="72" viewBox="0 0 160 72" fill="none" xmlns="http://www.w3.org/2000/svg">
<path d="M122.594 15.0404C119.14 15.0404 117.142 13.0399 117.142 9.58536C117.142 6.1357 119.14 4.25635 122.594 4.25635C126.108 4.25635 128.107 6.1357 128.107 9.58536C128.107 13.0399 126.108 15.0404 122.594 15.0404Z" fill="#2F2707"/>
<path d="M114.778 51.4449V46.6616L117.869 46.2391C118.717 46.1166 118.838 45.9356 118.838 45.0251V27.2151C118.838 26.5504 118.657 26.1244 118.049 25.9441L114.778 24.7921L115.444 19.887H127.985V45.0251C127.985 45.9961 128.044 46.1166 128.955 46.2391L132.045 46.6616V51.4449H114.778Z" fill="#2F2707"/>
<path fill-rule="evenodd" clip-rule="evenodd" d="M106.363 26.0485C107.451 27.442 108.604 29.3812 108.604 32.1675C108.604 38.8915 103.334 42.8284 95.7027 42.8284C93.7621 42.8284 92.0053 42.5868 90.9159 42.284L88.9162 45.4943L94.8521 45.8569L95.197 45.8789C105.469 46.5327 111.51 46.9173 111.51 54.882C111.51 61.8502 105.393 65.7857 94.8521 65.7857C83.8878 65.7857 79.708 62.9994 79.708 58.214C79.708 55.4876 80.9198 54.037 83.04 52.0344C81.0403 51.1894 80.3748 49.6755 80.3748 48.039C80.3748 46.7054 81.0403 45.4943 82.1324 44.3423C83.2224 43.1931 84.4335 42.0404 85.8876 40.7082C82.9196 39.2541 80.6776 36.1037 80.6776 31.6204C80.6776 24.655 85.282 19.871 94.5487 19.871C97.154 19.871 98.7299 20.1104 100.123 20.4766H111.937V25.6239L106.363 26.0485ZM95.0951 25.8654C91.7623 25.8654 89.2802 27.5019 89.2802 31.4402C89.2802 34.4075 90.9159 36.4678 94.9155 36.4678C98.3053 36.4678 100.608 34.4701 100.608 31.3177C100.608 27.7448 98.5475 25.8654 95.0951 25.8654ZM88.4317 53.6743C87.6431 54.6418 86.8572 55.6706 86.8572 56.8839C86.8572 59.3054 89.9449 60.0342 94.1867 60.0342C97.7004 60.0342 102.486 59.7878 102.486 56.5212C102.486 54.6033 100.241 54.4627 97.3823 54.2839L97.2744 54.2771L88.4317 53.6743Z" fill="#2F2707"/>
<path d="M146.124 51.5187C149.578 51.5187 153.394 50.3674 156 49.0964L154.363 43.7646C152.909 44.3096 151.154 44.7328 149.456 44.7328C146.186 44.7328 145.337 43.3407 145.337 39.7664V25.2891H154.363V19.232H145.822C145.337 19.232 145.337 19.049 145.337 18.6265V10.0218H139.581C138.915 16.6246 136.797 19.2905 131.464 19.8975V25.2891H135.704C136.19 25.2891 136.19 25.5321 136.19 25.8947V41.7655C136.19 48.614 138.915 51.5187 146.124 51.5187Z" fill="#2F2707"/>
<path d="M66.242 33.1989L38.5438 5.5028C36.9498 3.90743 34.3626 3.90743 32.7665 5.5028L27.015 11.2543L34.311 18.5504C36.0066 17.9775 37.9507 18.3618 39.3025 19.7135C40.6605 21.0736 41.0419 23.0344 40.4551 24.7356L47.4867 31.7671C49.1879 31.1811 51.1508 31.5604 52.5095 32.9212C54.4083 34.8193 54.4083 37.8959 52.5095 39.7955C50.6099 41.695 47.5334 41.695 45.6331 39.7955C44.2048 38.3658 43.8519 36.2678 44.5751 34.5082L38.0175 27.9507L38.0169 45.2073C38.4797 45.437 38.9169 45.7426 39.3025 46.1268C41.2013 48.025 41.2013 51.1015 39.3025 53.0025C37.4029 54.9013 34.325 54.9013 32.4282 53.0025C30.5294 51.1015 30.5294 48.025 32.4282 46.1268C32.8973 45.6584 33.4403 45.3041 34.0194 45.066V27.6486C33.4403 27.4119 32.898 27.0597 32.4282 26.5878C30.9895 25.1511 30.6435 23.04 31.3806 21.2734L24.189 14.0803L5.19704 33.0709C3.60099 34.6676 3.60099 37.2549 5.19704 38.8502L32.8953 66.547C34.4899 68.1424 37.0765 68.1424 38.6732 66.547L66.242 38.979C67.8373 37.3829 67.8373 34.7943 66.242 33.1989Z" fill="#DE4C36"/>
</svg>
