<svg width="176" height="48" viewBox="0 0 176 48" fill="none" xmlns="http://www.w3.org/2000/svg">
<path d="M6.46642 36.4702C6.46642 36.368 6.56864 36.2658 6.67085 36.2658H10.9639C11.1002 36.2658 11.1683 36.368 11.1683 36.4702V36.7769C11.1683 36.8791 11.0661 36.9813 10.9639 36.9813H7.28414V39.9796H10.4187C10.5209 39.9796 10.6232 40.0818 10.6232 40.184V40.4907C10.6232 40.5929 10.5209 40.6951 10.4187 40.6951H7.28414V43.6593C7.28414 43.7615 7.18193 43.8638 7.07971 43.8638H6.67085C6.53457 43.8638 6.46642 43.7615 6.46642 43.6593V36.4702ZM15.768 36.1636C17.9485 36.1636 19.6862 37.9012 19.6862 40.0818C19.6862 42.2624 17.9485 44 15.768 44C13.5874 44 11.8497 42.2624 11.8497 40.0818C11.8497 37.9012 13.5874 36.1636 15.768 36.1636ZM15.768 43.2505C17.5056 43.2505 18.9366 41.8195 18.9366 40.1159C18.9366 38.3782 17.5056 36.9472 15.768 36.9472C14.0303 36.9472 12.6334 38.3782 12.6334 40.1159C12.6334 41.8195 14.0303 43.2505 15.768 43.2505ZM21.1513 36.4702C21.1513 36.368 21.2535 36.2658 21.3557 36.2658H21.7646C21.9008 36.2658 21.969 36.368 21.969 36.4702V41.0017C21.969 42.2283 22.7526 43.2164 24.0133 43.2164C25.308 43.2164 26.0916 42.2624 26.0916 41.0358V36.4702C26.0916 36.368 26.1939 36.2658 26.2961 36.2658H26.7049C26.8071 36.2658 26.9094 36.368 26.9094 36.4702V41.0699C26.9094 42.7394 25.7509 44 24.0133 44C22.3097 44 21.1513 42.7394 21.1513 41.0699V36.4702ZM28.9537 36.368C28.9537 36.2658 29.0559 36.1636 29.1581 36.1636H29.4307L34.337 42.2624H34.371V36.4702C34.371 36.368 34.4732 36.2658 34.5755 36.2658H34.9503C35.0525 36.2658 35.1547 36.368 35.1547 36.4702V43.7956C35.1547 43.8978 35.0525 44 34.9503 44H34.7458L29.7373 37.7649V43.6934C29.7373 43.7956 29.6351 43.8978 29.5329 43.8978H29.1581C29.0559 43.8978 28.9537 43.7956 28.9537 43.6934V36.368ZM37.233 36.4702C37.233 36.368 37.3353 36.2658 37.4375 36.2658H39.8906C42.0031 36.2658 43.7066 37.9694 43.7066 40.0477C43.7066 42.1602 42.0031 43.8638 39.8906 43.8638H37.4375C37.3353 43.8638 37.233 43.7615 37.233 43.6593V36.4702ZM39.6862 43.1483C41.4579 43.1483 42.7526 41.8876 42.7526 40.0818C42.7526 38.3101 41.4579 37.0154 39.6862 37.0154H38.0508V43.1483H39.6862ZM43.9451 43.5912L47.2501 36.2658C47.2842 36.1977 47.3523 36.1295 47.4204 36.1295H47.5227C47.6249 36.1295 47.6589 36.1977 47.693 36.2658L50.9639 43.5912C51.032 43.7275 50.9298 43.8638 50.7935 43.8638H50.3506C50.2484 43.8638 50.1802 43.7956 50.1802 43.7615L49.3625 41.9557H45.5124L44.7288 43.7615C44.6947 43.8297 44.6266 43.8638 44.5584 43.8638H44.1155C43.9792 43.8978 43.877 43.7615 43.9451 43.5912ZM49.124 41.3084C48.5789 40.1159 48.0678 38.9234 47.5227 37.7309H47.4545L45.8531 41.3084H49.124ZM52.6675 37.0154H50.7595C50.6572 37.0154 50.555 36.9132 50.555 36.8109V36.5043C50.555 36.4021 50.6572 36.2999 50.7595 36.2999H55.3591C55.4954 36.2999 55.5635 36.4021 55.5635 36.5043V36.8109C55.5635 36.9132 55.4613 37.0154 55.3591 37.0154H53.4511V43.6934C53.4511 43.7956 53.3489 43.8978 53.2467 43.8978H52.8378C52.7356 43.8978 52.6334 43.7956 52.6334 43.6934V37.0154H52.6675ZM56.6879 36.4702C56.6879 36.368 56.7901 36.2658 56.8923 36.2658H57.3353C57.4375 36.2658 57.5397 36.368 57.5397 36.4702V43.6593C57.5397 43.7615 57.4375 43.8638 57.3353 43.8638H56.8923C56.7901 43.8638 56.6879 43.7615 56.6879 43.6593V36.4702ZM62.9911 36.1636C65.1717 36.1636 66.9094 37.9012 66.9094 40.0818C66.9094 42.2624 65.1717 44 62.9911 44C60.8106 44 59.0729 42.2624 59.0729 40.0818C59.107 37.9012 60.8106 36.1636 62.9911 36.1636ZM62.9911 43.2505C64.7288 43.2505 66.1598 41.8195 66.1598 40.1159C66.1598 38.3782 64.7288 36.9472 62.9911 36.9472C61.2535 36.9472 59.8566 38.3782 59.8566 40.1159C59.8566 41.8195 61.2535 43.2505 62.9911 43.2505ZM68.5789 36.368C68.5789 36.2658 68.6811 36.1636 68.7833 36.1636H69.0559L73.9622 42.2624H73.9963V36.4702C73.9963 36.368 74.0985 36.2658 74.2007 36.2658H74.5755C74.6777 36.2658 74.7799 36.368 74.7799 36.4702V43.7956C74.7799 43.8978 74.6777 44 74.5755 44H74.3711L69.3625 37.7649V43.6934C69.3625 43.7956 69.2603 43.8978 69.1581 43.8978H68.7833C68.6811 43.8978 68.5789 43.7956 68.5789 43.6934V36.368ZM11.6794 22.1602C13.2807 22.1602 14.4732 22.6712 15.5635 23.6593C15.6998 23.7956 15.6998 23.966 15.5635 24.1022L14.5755 25.1244C14.4732 25.2607 14.3029 25.2607 14.1666 25.1244C13.4852 24.5452 12.5993 24.1704 11.7134 24.1704C9.66915 24.1704 8.13593 25.874 8.13593 27.8842C8.13593 29.8944 9.66915 31.5639 11.7134 31.5639C12.6674 31.5639 13.4852 31.1891 14.1666 30.644C14.3029 30.5418 14.4732 30.5418 14.5755 30.644L15.5635 31.6661C15.6998 31.7684 15.6657 31.9728 15.5635 32.1091C14.4732 33.1994 13.0763 33.7104 11.6794 33.7104C8.47665 33.7104 5.88721 31.1551 5.88721 27.9523C5.88721 24.7496 8.47665 22.1602 11.6794 22.1602ZM17.6078 22.6372C17.6078 22.4668 17.7441 22.3305 17.9145 22.3305H22.4801C24.3881 22.3305 25.9554 23.8637 25.9554 25.7718C25.9554 27.2368 24.9673 28.4293 23.6044 29.0086L25.785 33.0631C25.8872 33.2675 25.785 33.5401 25.5124 33.5401H23.8429C23.7066 33.5401 23.6044 33.4719 23.6044 33.4038L21.4579 29.1448H19.6862V33.2334C19.6862 33.4038 19.5499 33.5401 19.3795 33.5401H17.8804C17.71 33.5401 17.5738 33.4038 17.5738 33.2334V22.6372H17.6078ZM22.3097 27.4413C23.1615 27.4413 23.877 26.6917 23.877 25.8058C23.877 24.954 23.1274 24.2385 22.3097 24.2385H19.6862V27.4072H22.3097V27.4413ZM33.1445 22.1602C36.3472 22.1602 38.9026 24.7496 38.9026 27.9523C38.9026 31.1551 36.3472 33.7104 33.1445 33.7104C29.9417 33.7104 27.3864 31.1551 27.3864 27.9523C27.3864 24.7496 29.9417 22.1602 33.1445 22.1602ZM33.1445 31.6321C35.1547 31.6321 36.8242 29.9966 36.8242 27.9523C36.8242 25.9421 35.1547 24.2385 33.1445 24.2385C31.1342 24.2385 29.4647 25.908 29.4647 27.9183C29.4647 29.9626 31.1342 31.6321 33.1445 31.6321ZM40.8446 22.6372C40.8446 22.4668 40.9809 22.3305 41.1513 22.3305H42.6504C42.8208 22.3305 42.9571 22.4668 42.9571 22.6372V26.862H48.17V22.6372C48.17 22.4668 48.3063 22.3305 48.4767 22.3305H49.9417C50.1121 22.3305 50.2484 22.4668 50.2484 22.6372V33.2334C50.2484 33.4038 50.1121 33.5401 49.9417 33.5401H48.4767C48.3063 33.5401 48.17 33.4038 48.17 33.2334V28.8041H42.9571V33.2334C42.9571 33.4038 42.8208 33.5401 42.6504 33.5401H41.1513C40.9809 33.5401 40.8446 33.4038 40.8446 33.2334V22.6372ZM52.7356 22.4668C52.7356 22.2965 52.8719 22.1942 53.0423 22.1942H53.4511L60.0951 29.2811V22.6372C60.0951 22.4668 60.2314 22.3305 60.4017 22.3305H61.8668C62.0371 22.3305 62.1734 22.4668 62.1734 22.6372V33.4038C62.1734 33.5741 62.0371 33.6764 61.8668 33.6764H61.492L54.814 26.3169V33.1994C54.814 33.3697 54.6777 33.506 54.5073 33.506H53.0423C52.8719 33.506 52.7356 33.3697 52.7356 33.1994V22.4668ZM64.4562 26.5554C64.354 26.4532 64.3881 26.2828 64.4903 26.1806C64.6607 26.0784 65.5806 25.3629 65.5806 24.2385C65.5806 24.2385 65.3421 24.3067 65.1036 24.3067C64.5244 24.3067 64.0474 23.8297 64.0474 23.2505C64.0474 22.6712 64.5244 22.1942 65.1717 22.1942C65.7509 22.1942 66.5005 22.6031 66.5005 23.8978C66.5005 25.4651 65.4784 26.4191 65.0695 26.7939C64.9332 26.8961 64.831 26.8961 64.6947 26.7939L64.4562 26.5554ZM68.0678 31.9728L68.647 30.9847C68.7833 30.7462 69.0559 30.7462 69.1922 30.8825C69.2603 30.9166 70.555 31.8706 71.6113 31.8706C72.429 31.8706 73.0763 31.3254 73.0763 30.644C73.0763 29.8263 72.3949 29.2811 71.032 28.736C69.5329 28.1227 68.0337 27.1687 68.0337 25.2948C68.0337 23.8637 69.09 22.2283 71.6453 22.2283C73.2808 22.2283 74.5414 23.046 74.8481 23.2845C75.0184 23.3867 75.0525 23.6593 74.9503 23.8297L74.337 24.7496C74.2007 24.954 73.9622 25.0563 73.7918 24.954C73.6555 24.8859 72.463 24.0682 71.5772 24.0682C70.6573 24.0682 70.1803 24.6815 70.1803 25.1925C70.1803 25.9421 70.7595 26.4532 72.0542 26.9983C73.6215 27.6116 75.3932 28.5656 75.3932 30.6099C75.3932 32.2454 73.9622 33.7786 71.7135 33.7786C69.7032 33.7786 68.5107 32.8246 68.2041 32.5179C67.9997 32.3135 67.9315 32.2113 68.0678 31.9728ZM80.2654 26.9983C79.7203 26.3169 79.4477 25.6014 79.4477 24.8178C79.4477 23.3527 80.6402 22.1261 82.446 22.1261C83.6044 22.1261 84.4903 22.6031 85.1717 23.2845C85.2399 23.3527 85.2399 23.4549 85.1717 23.523L84.5584 24.0341C84.4903 24.1022 84.3881 24.1022 84.32 24.0341C83.7748 23.5571 83.1615 23.2164 82.3779 23.2164C81.3557 23.2164 80.7084 23.966 80.7084 24.8178C80.7084 25.5333 81.1172 26.2147 81.7646 26.9302C82.9571 28.1908 84.2518 29.2811 85.6828 30.3714C86.0917 29.69 86.3302 28.8723 86.3642 28.0205C86.3642 27.9183 86.4324 27.8501 86.5346 27.8501H87.3864C87.4886 27.8501 87.5567 27.9183 87.5567 28.0205C87.5227 29.1448 87.182 30.2011 86.6027 31.0869C87.2501 31.5639 87.8975 32.0409 88.613 32.5179C88.6811 32.5861 88.7152 32.6883 88.647 32.7564L88.136 33.4379C88.0678 33.506 87.9656 33.5401 87.8975 33.4719C87.216 32.9949 86.5346 32.5179 85.8532 32.0069C84.831 33.0631 83.4341 33.7104 81.7987 33.7104C79.2774 33.7104 77.9145 32.1091 77.9145 30.4055C77.9145 28.8723 78.9366 27.7479 80.2654 26.9983ZM80.9128 27.782C79.8906 28.3271 79.1751 29.213 79.1751 30.3373C79.1751 31.5639 80.0951 32.5861 81.8668 32.5861C83.0593 32.5861 84.1496 32.1091 84.9332 31.3254C83.5363 30.2351 82.1394 29.0767 80.9128 27.782ZM95.8021 22.1602C97.4034 22.1602 98.5959 22.6712 99.6862 23.6593C99.8225 23.7956 99.8225 23.966 99.6862 24.1022L98.6982 25.1244C98.5959 25.2607 98.4256 25.2607 98.2893 25.1244C97.6079 24.5452 96.722 24.1704 95.8361 24.1704C93.7918 24.1704 92.2586 25.874 92.2586 27.8842C92.2586 29.8944 93.7918 31.5639 95.8361 31.5639C96.7901 31.5639 97.6079 31.1891 98.2893 30.644C98.4256 30.5418 98.5959 30.5418 98.6982 30.644L99.6862 31.6661C99.8225 31.7684 99.7884 31.9728 99.6862 32.1091C98.5959 33.1653 97.2331 33.6764 95.8021 33.6764C92.5993 33.6764 90.0099 31.121 90.0099 27.9183C90.0099 24.7496 92.5993 22.1602 95.8021 22.1602ZM106.296 22.1602C109.499 22.1602 112.054 24.7496 112.054 27.9523C112.054 31.1551 109.499 33.7104 106.296 33.7104C103.093 33.7104 100.538 31.1551 100.538 27.9523C100.572 24.7496 103.093 22.1602 106.296 22.1602ZM106.296 31.6321C108.306 31.6321 109.976 29.9966 109.976 27.9523C109.976 25.9421 108.306 24.2726 106.296 24.2726C104.286 24.2726 102.616 25.9421 102.616 27.9523C102.65 29.9626 104.286 31.6321 106.296 31.6321ZM113.894 22.6372C113.894 22.4668 114.03 22.3305 114.201 22.3305H115.666C115.836 22.3305 115.972 22.4668 115.972 22.6372V31.598H120.061C120.231 31.598 120.368 31.7343 120.368 31.9046V33.2334C120.368 33.4038 120.231 33.5401 120.061 33.5401H114.201C114.03 33.5401 113.894 33.4038 113.894 33.2334V22.6372ZM122.276 22.6372C122.276 22.4668 122.412 22.3305 122.582 22.3305H124.081C124.252 22.3305 124.388 22.4668 124.388 22.6372V33.2334C124.388 33.4038 124.252 33.5401 124.081 33.5401H122.582C122.412 33.5401 122.276 33.4038 122.276 33.2334V22.6372ZM128.92 24.2385H126.466C126.296 24.2385 126.16 24.1023 126.16 23.9319V22.6372C126.16 22.4668 126.296 22.3305 126.466 22.3305H133.451C133.621 22.3305 133.758 22.4668 133.758 22.6372V23.9319C133.758 24.1023 133.621 24.2385 133.451 24.2385H130.998V33.1994C130.998 33.3697 130.862 33.506 130.691 33.506H129.226C129.056 33.506 128.92 33.3697 128.92 33.1994V24.2385ZM135.564 22.6372C135.564 22.4668 135.7 22.3305 135.87 22.3305H137.369C137.54 22.3305 137.676 22.4668 137.676 22.6372V33.2334C137.676 33.4038 137.54 33.5401 137.369 33.5401H135.87C135.7 33.5401 135.564 33.4038 135.564 33.2334V22.6372ZM140.095 31.9728L140.674 30.9847C140.811 30.7462 141.083 30.7462 141.219 30.8825C141.288 30.9166 142.582 31.8706 143.639 31.8706C144.456 31.8706 145.104 31.3254 145.104 30.644C145.104 29.8263 144.422 29.2811 143.059 28.736C141.56 28.1227 140.061 27.1687 140.061 25.2948C140.061 23.8637 141.117 22.2283 143.673 22.2283C145.308 22.2283 146.569 23.046 146.875 23.2845C147.046 23.3867 147.08 23.6593 146.978 23.8297L146.364 24.7496C146.228 24.954 145.989 25.0563 145.819 24.954C145.683 24.8859 144.49 24.0682 143.604 24.0682C142.685 24.0682 142.208 24.6815 142.208 25.1925C142.208 25.9421 142.787 26.4532 144.081 26.9983C145.649 27.6116 147.42 28.5656 147.42 30.6099C147.42 32.2454 145.989 33.7786 143.741 33.7786C141.731 33.7786 140.538 32.8246 140.231 32.5179C140.027 32.3135 139.959 32.2113 140.095 31.9728Z" fill="#001A70"/>
<path d="M151.952 14.4601C149.942 15.7548 147.352 16.6407 144.32 16.8792C144.252 16.2659 144.218 15.4141 144.218 14.6304C144.218 13.949 144.218 13.3016 144.286 12.6884C144.558 12.6543 145.035 12.6543 145.274 12.6543C147.727 12.6202 150.01 13.3016 151.952 14.4601ZM164.865 19.0257C165.751 21.1381 167.08 23.1824 168.715 24.9201C169.397 23.966 170.078 22.4669 170.078 21.6492C168.272 19.8775 166.467 19.196 164.865 19.0257ZM156.211 8.77013C156.279 8.39534 156.313 7.98648 156.313 7.61169C156.313 6.35105 155.87 5.12447 155.087 4.03418C154.03 4.13639 152.94 4.27268 151.577 4.57932C152.531 6.07847 154.235 7.54355 156.211 8.77013ZM163.536 11.6321C164.013 11.7003 164.456 11.7344 164.865 11.7344C165.717 11.7344 166.909 11.6321 167.863 10.9166C167.25 9.92856 166.092 8.63384 165.478 8.12277C164.524 8.77013 163.741 9.72413 163.536 11.6321ZM157.812 21.4448C155.768 23.1824 154.269 25.7037 153.519 28.3613C154.303 28.6339 155.325 28.7701 156.484 28.7701C156.926 28.7701 157.369 28.7361 157.846 28.702C158.392 27.8161 158.596 27.0666 158.596 25.8059C158.596 24.3068 158.323 22.8417 157.812 21.4448Z" fill="#001A70"/>
<path d="M164.866 11.7342C165.717 11.7342 166.91 11.632 167.864 10.9165C167.114 11.5298 166.808 12.4157 166.808 13.6082C166.808 16.0613 167.762 19.0256 170.113 21.6491C168.273 19.8433 166.467 19.1959 164.9 19.0256C163.98 16.8791 163.503 14.6644 163.503 12.7223C163.503 12.3475 163.537 11.9727 163.571 11.632C163.98 11.7002 164.457 11.7342 164.866 11.7342ZM156.211 8.77002C158.562 10.2351 161.254 11.2913 163.537 11.632C163.741 9.72402 164.525 8.73595 165.479 8.15673C165.036 8.39523 164.491 8.53152 163.843 8.53152C160.538 8.53152 156.518 6.04429 155.121 4C155.871 5.09029 156.348 6.31687 156.348 7.57751C156.314 8.02044 156.28 8.39523 156.211 8.77002Z" fill="#8CDDF8"/>
<path d="M157.812 21.4446C156.756 18.5485 154.678 16.0613 151.952 14.46C149.942 15.7547 147.352 16.6405 144.32 16.879C144.524 16.879 144.729 16.845 144.899 16.845C149.873 16.845 153.826 20.8654 153.826 26.0102C153.826 26.8279 153.689 27.5775 153.485 28.3612C154.269 25.7036 155.768 23.1823 157.812 21.4446Z" fill="#00B3F0"/>
<path d="M164.865 19.0254C165.751 21.1379 167.08 23.1822 168.715 24.9198C167.591 23.8977 166.5 23.3525 164.865 23.3525C162.241 23.3525 159.891 25.465 157.812 28.6677C158.357 27.7818 158.562 27.0323 158.562 25.7716C158.562 24.2725 158.289 22.8074 157.778 21.4105C159.516 19.9113 161.662 18.9573 164.013 18.9573C164.32 18.9914 164.592 19.0254 164.865 19.0254ZM151.952 14.4599C154.269 12.9607 155.802 10.9505 156.211 8.80398C154.235 7.5774 152.531 6.07825 151.611 4.5791C151.952 5.19239 152.224 5.87382 152.224 6.55525C152.224 9.24691 149.396 12.2111 144.32 12.6881C144.592 12.6541 145.069 12.6541 145.308 12.6541C147.727 12.62 150.01 13.3014 151.952 14.4599Z" fill="#59CEF6"/>
</svg>
