<svg width="160" height="64" viewBox="0 0 160 64" fill="none" xmlns="http://www.w3.org/2000/svg">
<path d="M19.7535 48.8785C17.582 46.6756 16.5407 44.2814 16.6544 41.7381C17.2616 28.3439 49.138 14.6171 87.7119 11.1393C93.6153 10.6066 99.4738 10.3368 105.125 10.3368C115.669 10.3368 125.548 11.2896 133.7 13.0915L133.833 12.5358C125.182 10.2806 114.354 9.0885 102.526 9.0885C96.9235 9.0885 91.1156 9.35612 85.2628 9.88396C46.8845 13.3439 15.1642 27.1452 14.554 40.6493C14.3884 44.3516 16.494 47.7008 20.8104 50.6037L19.753 48.8785H19.7535Z" fill="#EDCB04"/>
<path d="M100.167 5.80643C93.9511 5.78115 87.4087 6.0588 80.6527 6.66771C39.0961 10.4162 4.66775 25.3207 4.00959 39.8447C3.68618 46.9768 11.5623 52.7251 24.5804 56.2861L22.16 53.7306C14.9002 50.3134 10.7987 45.8606 11.0323 40.6759C11.6892 26.1506 46.1197 11.2439 87.6798 7.4976C100.189 6.37001 111.949 6.37916 122.27 7.3372C115.602 6.3687 108.153 5.83694 100.167 5.80469L100.167 5.80643ZM53.363 24.948C42.4536 24.948 33.6883 29.9474 33.6883 37.5586C33.6883 45.1318 42.4536 50.2057 53.363 50.2057C58.5564 50.2057 63.3204 48.8816 66.7982 46.7493L62.4626 43.6616C60.557 44.8385 57.6515 46.0877 54.1258 46.0877C49.0762 46.0877 45.8364 43.5143 45.8364 37.5586C45.8364 31.5288 49.0758 28.9563 54.1258 28.9563C57.6511 28.9563 60.5574 30.2796 62.4626 31.456L66.7982 28.3674C63.3204 26.2718 58.5564 24.9485 53.363 24.9485V24.948ZM133.981 24.9842C125.501 24.9842 118.784 27.7424 118.784 33.3302C118.784 37.8519 123.691 39.6168 130.265 41.0508C134.696 42.0071 139.03 42.5201 139.03 44.6162C139.03 45.7564 137.221 46.4185 133.552 46.4185C129.408 46.4185 124.739 44.3965 122.548 42.6683L118.116 45.5358C120.118 47.4101 125.31 50.2053 133.552 50.2053C143.46 50.2053 149.513 47.0065 149.513 42.0066C149.513 37.4113 144.415 35.2794 137.602 33.7713C132.123 32.5579 128.692 32.3735 128.692 30.6461C128.692 29.5434 130.217 28.6974 134.124 28.6974C136.554 28.6974 140.985 29.6532 143.509 31.4181L147.794 28.6982C144.269 26.1985 140.125 24.9846 133.979 24.9846L133.981 24.9842ZM69.878 25.72V49.4329H77.1967V34.6169L86.795 49.4329H94.162L102.597 34.6169V49.4329H113.939V25.72H101.433L93.2419 39.9846L84.0799 25.72H69.8776H69.878ZM50.9875 54.0985C50.3062 54.0985 49.7004 54.5339 49.7004 55.3228C49.7004 56.6217 51.4046 56.3925 51.4046 57.2559C51.4046 57.5776 51.181 57.84 50.7356 57.84C50.2718 57.84 50.009 57.5545 49.9466 57.2228H49.8377C49.7976 57.4804 49.7461 57.6852 49.6712 57.9489C49.8377 58.0749 50.1807 58.1948 50.5926 58.1948C51.5018 58.1948 52.1077 57.6691 52.1077 56.902C52.1077 55.6031 50.3694 55.8149 50.3694 54.9676C50.3694 54.693 50.6148 54.4542 50.9635 54.4542C51.3131 54.4542 51.5367 54.6198 51.6566 54.9454H51.7424C51.8165 54.6934 51.8566 54.5566 51.9246 54.3796C51.7076 54.2079 51.399 54.0985 50.9875 54.0985ZM133.367 54.0985C132.686 54.0985 132.079 54.5339 132.079 55.3228C132.079 56.6217 133.784 56.3925 133.784 57.2559C133.784 57.5776 133.561 57.84 133.116 57.84C132.651 57.84 132.388 57.5545 132.324 57.2228H132.216C132.177 57.4804 132.125 57.6852 132.05 57.9489C132.216 58.0749 132.559 58.1948 132.972 58.1948C133.881 58.1948 134.488 57.6691 134.488 56.902C134.488 55.6031 132.749 55.8149 132.749 54.9676C132.749 54.693 132.994 54.4542 133.344 54.4542C133.692 54.4542 133.916 54.6198 134.036 54.9454H134.122C134.196 54.6934 134.236 54.5566 134.305 54.3796C134.088 54.2079 133.778 54.0985 133.367 54.0985ZM154.879 54.0985C154.199 54.0985 153.592 54.5339 153.592 55.3228C153.592 56.6217 155.296 56.3925 155.296 57.2559C155.296 57.5776 155.072 57.84 154.627 57.84C154.163 57.84 153.9 57.5545 153.837 57.2228H153.729C153.689 57.4682 153.634 57.7107 153.563 57.9489C153.729 58.0749 154.072 58.1948 154.485 58.1948C155.394 58.1948 156 57.6691 156 56.902C156 55.6031 154.261 55.8149 154.261 54.9676C154.261 54.693 154.506 54.4542 154.855 54.4542C155.205 54.4542 155.428 54.6198 155.548 54.9454H155.633C155.708 54.6934 155.748 54.5566 155.817 54.3796C155.6 54.2079 155.29 54.0985 154.879 54.0985ZM31.2666 54.0994C30.0654 54.0994 28.9962 54.7056 28.9962 56.2848C28.9962 57.3658 29.7794 58.1948 31.1067 58.1948C31.5757 58.1948 31.9706 58.1032 32.2735 57.9428C32.2909 57.7824 32.3367 57.6177 32.3999 57.4569L32.3258 57.4111C32.0795 57.6687 31.6559 57.84 31.2897 57.84C30.6316 57.84 29.9333 57.3762 29.9333 56.1976C29.9333 54.985 30.6263 54.4533 31.2383 54.4533C31.645 54.4533 31.9357 54.608 32.2216 54.9624H32.3018C32.3178 54.7628 32.3623 54.5666 32.4339 54.3796C32.1706 54.2183 31.6668 54.0994 31.2666 54.0994ZM59.1714 54.0994C57.8442 54.0994 56.9742 55.0195 56.9742 56.1466C56.9742 57.5767 57.9461 58.1952 59.1535 58.1952C60.4289 58.1952 61.3389 57.2733 61.3389 56.141C61.3389 54.7623 60.3835 54.0994 59.1714 54.0994ZM83.4013 54.0994C82.2 54.0994 81.1309 54.7056 81.1309 56.2848C81.1309 57.3658 81.9141 58.1948 83.2413 58.1948C83.7103 58.1948 84.1057 58.1032 84.4095 57.9428C84.4256 57.7824 84.4722 57.6177 84.5346 57.4569L84.4605 57.4111C84.2142 57.6687 83.791 57.84 83.4244 57.84C82.7662 57.84 82.0688 57.3762 82.0688 56.1976C82.0688 54.985 82.7606 54.4533 83.373 54.4533C83.7792 54.4533 84.0704 54.608 84.3563 54.9624H84.4365C84.4535 54.7684 84.4945 54.5675 84.5694 54.3796C84.3057 54.2183 83.8019 54.0994 83.4013 54.0994ZM118.869 54.0994C117.668 54.0994 116.598 54.7056 116.598 56.2848C116.598 57.3658 117.382 58.1948 118.709 58.1948C119.178 58.1948 119.573 58.1032 119.877 57.9428C119.896 57.7759 119.939 57.6124 120.002 57.4569L119.928 57.4111C119.681 57.6687 119.258 57.84 118.892 57.84C118.234 57.84 117.536 57.3762 117.536 56.1976C117.536 54.985 118.228 54.4533 118.84 54.4533C119.246 54.4533 119.538 54.608 119.824 54.9624H119.904C119.921 54.7684 119.962 54.5675 120.036 54.3796C119.773 54.2183 119.269 54.0994 118.869 54.0994ZM149.147 54.0994C147.945 54.0994 146.876 54.7056 146.876 56.2848C146.876 57.3658 147.659 58.1948 148.986 58.1948C149.455 58.1948 149.849 58.1032 150.153 57.9428C150.171 57.7824 150.216 57.6177 150.279 57.4569L150.205 57.4111C149.959 57.6687 149.536 57.84 149.169 57.84C148.511 57.84 147.814 57.3762 147.814 56.1976C147.814 54.985 148.506 54.4533 149.118 54.4533C149.523 54.4533 149.815 54.608 150.101 54.9624H150.181C150.199 54.7684 150.239 54.5675 150.313 54.3796C150.05 54.2183 149.547 54.0994 149.147 54.0994ZM86.3207 54.1447C85.8287 55.4488 84.9704 57.4852 84.6906 58.1198C84.7996 58.1085 84.8846 58.0919 84.9765 58.0919C85.0676 58.0919 85.1539 58.1085 85.2446 58.1202C85.3536 57.7249 85.4808 57.3361 85.6356 56.9478C85.8347 56.9417 86.0296 56.9369 86.2288 56.9369C86.4755 56.9369 86.7156 56.9417 86.9619 56.9478C87.1044 57.3361 87.2365 57.731 87.3568 58.1202C87.5163 58.1085 87.682 58.0919 87.8428 58.0919C88.0032 58.0919 88.1627 58.1085 88.3458 58.1202C87.9112 57.1875 87.2422 55.4488 86.7566 54.1447C86.6821 54.156 86.6128 54.1735 86.5387 54.1735C86.4641 54.1735 86.3948 54.156 86.3207 54.1447ZM121.788 54.1447C121.295 55.4488 120.438 57.4852 120.159 58.1198C120.266 58.1085 120.352 58.0919 120.444 58.0919C120.536 58.0919 120.621 58.1085 120.712 58.1202C120.821 57.7249 120.947 57.3361 121.101 56.9478C121.299 56.9411 121.497 56.9375 121.696 56.9369C121.943 56.9369 122.182 56.9417 122.428 56.9478C122.571 57.3361 122.704 57.731 122.824 58.1202C122.983 58.1085 123.149 58.0919 123.309 58.0919C123.469 58.0919 123.63 58.1085 123.813 58.1202C123.378 57.1875 122.709 55.4488 122.223 54.1447C122.148 54.156 122.079 54.1735 122.005 54.1735C121.931 54.1735 121.862 54.156 121.788 54.1447ZM33.0232 54.1735C33.0576 54.6769 33.0689 55.1171 33.0689 55.7587V56.5359C33.0689 57.177 33.0576 57.6168 33.0232 58.1202C33.1491 58.1093 33.3034 58.0919 34.2353 58.0919C34.7623 58.0919 35.0317 58.115 35.2374 58.1202C35.2261 58.0518 35.2143 57.9943 35.2143 57.874C35.2143 57.7537 35.2261 57.6966 35.2374 57.6168C34.7967 57.6691 34.3561 57.6909 33.9272 57.6909C33.9156 57.4531 33.91 57.215 33.9102 56.977C33.9102 56.7307 33.9163 56.484 33.9163 56.2447C34.3508 56.2447 34.7793 56.2608 35.2143 56.2957C35.1973 56.1754 35.1864 56.1244 35.1864 56.0616C35.1864 55.9862 35.1916 55.9352 35.2143 55.8036C34.7797 55.8267 34.414 55.8372 33.9163 55.8489C33.9163 55.4314 33.9163 55.0203 33.9442 54.6023C34.1159 54.6023 34.8028 54.642 35.2374 54.6703C35.2261 54.5849 35.2143 54.5344 35.2143 54.4145C35.2143 54.3107 35.2261 54.2428 35.2374 54.1735C35.0831 54.1909 34.6028 54.2013 34.0422 54.2013C33.7044 54.2013 33.361 54.1796 33.0232 54.1735ZM36.0045 54.1735C36.0098 54.4481 36.0324 54.7967 36.0324 55.3115C36.0324 56.4788 35.9474 57.9551 35.9187 58.1202C36.0045 58.1037 36.0961 58.0919 36.1815 58.0919C36.2678 58.0919 36.3589 58.1037 36.4504 58.1202C36.433 57.9088 36.4164 57.5889 36.4164 56.6736C36.4164 56.2447 36.4164 55.7692 36.4277 55.3407C37.2879 56.2428 38.1216 57.1697 38.9279 58.1202C38.9963 58.1037 39.0709 58.0919 39.1511 58.0919C39.2313 58.0919 39.3049 58.1037 39.3851 58.1202C39.3851 56.5991 39.3851 55.838 39.4767 54.1735C39.3908 54.1909 39.3049 54.2013 39.2191 54.2013C39.1336 54.2013 39.0478 54.1909 38.9619 54.1735C39.002 54.4311 39.002 55.9867 39.002 56.8968C38.1608 55.9862 37.3431 55.0835 36.5193 54.1735C36.4334 54.1909 36.3475 54.2013 36.2617 54.2013C36.1758 54.2013 36.09 54.1909 36.0045 54.1735ZM40.0437 54.1735C40.0611 54.2593 40.0729 54.3391 40.0729 54.4254C40.0729 54.5104 40.0607 54.591 40.0437 54.6764C40.3872 54.6363 40.8675 54.6023 41.0898 54.6023C41.1072 54.683 41.1081 54.8891 41.1081 55.1062V56.5359C41.1081 57.177 41.0963 57.6168 41.0619 58.1202C41.1883 58.1093 41.3422 58.0919 41.5313 58.0919C41.7201 58.0919 41.8744 58.1093 42.0003 58.1202C41.9657 57.5929 41.9503 57.0644 41.9541 56.5359V55.1062C41.9541 54.8891 41.9546 54.6834 41.9663 54.6023C42.1952 54.6023 42.6755 54.6363 42.9845 54.6764C42.9665 54.5939 42.9567 54.5098 42.9553 54.4254C42.9553 54.3386 42.9675 54.2598 42.9845 54.1735C42.4985 54.1905 42.2405 54.2013 41.5313 54.2013C40.8222 54.2013 40.5646 54.1905 40.0437 54.1735ZM43.5163 54.1735C43.5507 54.6769 43.5625 55.1171 43.5625 55.7587V56.5359C43.5625 57.177 43.5507 57.6168 43.5163 58.1202C43.6422 58.1093 43.7974 58.0919 44.7293 58.0919C45.2558 58.0919 45.5248 58.115 45.7305 58.1202C45.7187 58.0518 45.7078 57.9943 45.7078 57.874C45.7078 57.7537 45.7187 57.6966 45.7305 57.6168C45.2894 57.6691 44.8492 57.6909 44.4203 57.6909C44.4087 57.4531 44.4031 57.215 44.4033 56.977C44.4033 56.7307 44.4094 56.484 44.4094 56.2447C44.8444 56.2447 45.2728 56.2608 45.7078 56.2957C45.6904 56.1754 45.6795 56.1244 45.6795 56.0616C45.6795 55.9862 45.6852 55.9352 45.7078 55.8036C45.2728 55.8267 44.9067 55.8372 44.4094 55.8489C44.4094 55.4314 44.4094 55.0203 44.4373 54.6023C44.609 54.6023 45.2951 54.642 45.7305 54.6703C45.7187 54.5849 45.7078 54.5344 45.7078 54.4145C45.7078 54.3107 45.7187 54.2428 45.7305 54.1735C45.5758 54.1909 45.0959 54.2013 44.5353 54.2013C44.1975 54.2013 43.8541 54.1796 43.5163 54.1735ZM46.4296 54.1735C46.4635 54.7012 46.4785 55.2299 46.4745 55.7587V56.5359C46.4745 57.177 46.4632 57.6168 46.4296 58.1202C46.5547 58.1093 46.7095 58.0919 46.8977 58.0919C47.0869 58.0919 47.2416 58.1093 47.3667 58.1202C47.3323 57.5928 47.317 57.0644 47.321 56.5359V56.3018H47.3728L48.3971 58.1202C48.5684 58.1093 48.7458 58.0919 48.9171 58.0919C49.0889 58.0919 49.2606 58.1093 49.4319 58.1202C49.0143 57.4739 48.5802 56.8218 48.2141 56.1758C48.7807 56.0324 49.1002 55.6776 49.1002 55.1228C49.1002 54.7854 48.9568 54.5339 48.728 54.3674C48.5283 54.2249 48.3169 54.1735 47.7385 54.1735C47.3497 54.1735 47.1044 54.2013 46.8977 54.2013C46.7095 54.2013 46.5547 54.1848 46.4296 54.1735ZM54.3245 54.1735C54.3589 54.6769 54.3703 55.1171 54.3703 55.7587V56.5359C54.3743 57.0644 54.359 57.5928 54.3245 58.1202C54.4505 58.1093 54.6048 58.0919 54.7935 58.0919C54.9822 58.0919 55.1365 58.1093 55.2625 58.1202C55.2285 57.6173 55.2176 57.177 55.2176 56.5359V56.2447C55.6522 56.2447 56.0806 56.2608 56.5156 56.2957C56.4982 56.1754 56.4869 56.1244 56.4869 56.0616C56.4869 55.9862 56.4934 55.9352 56.5156 55.8036C56.0811 55.8267 55.7154 55.8372 55.2176 55.8489C55.2176 55.4314 55.2176 55.0203 55.2455 54.6023C55.4172 54.6023 56.1033 54.642 56.5387 54.6703C56.5265 54.5849 56.5156 54.5344 56.5156 54.4145C56.5156 54.3107 56.5265 54.2428 56.5387 54.1735C56.384 54.1909 55.9032 54.2013 55.3427 54.2013C55.0049 54.2013 54.6623 54.1796 54.3245 54.1735ZM62.0032 54.1735C62.0377 54.7011 62.0529 55.2299 62.049 55.7587V56.5359C62.049 57.177 62.0376 57.6168 62.0032 58.1202C62.1292 58.1093 62.2835 58.0919 62.4722 58.0919C62.6609 58.0919 62.8152 58.1093 62.9403 58.1202C62.9064 57.5928 62.8915 57.0644 62.8954 56.5359V56.3018H62.9464L63.9711 58.1202C64.1429 58.1093 64.3198 58.0919 64.4916 58.0919C64.6633 58.0919 64.835 58.1093 65.0063 58.1202C64.5892 57.4739 64.1529 56.8218 63.7876 56.1758C64.3534 56.0324 64.6746 55.6776 64.6746 55.1228C64.6746 54.7854 64.5312 54.5339 64.3024 54.3674C64.1019 54.2249 63.8901 54.1735 63.3126 54.1735C62.9233 54.1735 62.6775 54.2013 62.4722 54.2013C62.2839 54.2013 62.1292 54.1848 62.0032 54.1735ZM67.4158 54.1735C67.2582 55.4945 67.0616 56.8107 66.8265 58.1202C66.9181 58.1037 67.0031 58.0919 67.0946 58.0919C67.1809 58.0919 67.2724 58.1037 67.3639 58.1202C67.4206 57.2564 67.4725 56.3872 67.5928 55.5238H67.6045C68.0292 56.385 68.4451 57.2505 68.852 58.1202C68.886 58.1146 68.9261 58.1089 68.961 58.1089C68.9945 58.1089 69.0342 58.1146 69.0691 58.1202C69.4835 57.2325 69.9049 56.3479 70.3331 55.4667H70.3449C70.4364 56.3532 70.5336 57.3252 70.5741 58.1202C70.7332 58.1037 70.8923 58.0919 71.0475 58.0919C71.2022 58.0919 71.3569 58.1037 71.5104 58.1202C71.3678 57.313 71.1678 55.4893 71.0191 54.1735C70.94 54.1911 70.8592 54.2004 70.7781 54.2013C70.6988 54.2013 70.6125 54.1905 70.5332 54.1735C70.116 55.0976 69.6714 56.0091 69.1998 56.9068C68.7823 56.1013 68.2967 55.0827 67.8791 54.1735C67.804 54.191 67.7271 54.2004 67.6499 54.2013C67.5697 54.2013 67.4951 54.1905 67.4158 54.1735ZM72.1245 54.1735C72.1594 54.6769 72.1703 55.1171 72.1703 55.7587V56.5359C72.1703 57.177 72.1594 57.6168 72.1245 58.1202C72.2505 58.1093 72.4043 58.0919 73.3367 58.0919C73.8632 58.0919 74.1321 58.115 74.3387 58.1202C74.3274 58.0518 74.3156 57.9943 74.3156 57.874C74.3156 57.7537 74.3274 57.6966 74.3387 57.6168C73.8981 57.6691 73.457 57.6909 73.0276 57.6909C73.0164 57.4531 73.011 57.215 73.0115 56.977C73.0115 56.7307 73.0167 56.484 73.0167 56.2447C73.4513 56.2447 73.8811 56.2608 74.3156 56.2957C74.2982 56.1754 74.2868 56.1244 74.2868 56.0616C74.2868 55.9862 74.293 55.9352 74.3156 55.8036C73.8829 55.8255 73.4499 55.8406 73.0167 55.8489C73.0167 55.4314 73.0167 55.0203 73.0455 54.6023C73.2172 54.6023 73.9042 54.642 74.3387 54.6703C74.3274 54.5849 74.3156 54.5344 74.3156 54.4145C74.3156 54.3107 74.3274 54.2428 74.3387 54.1735C74.184 54.1909 73.7037 54.2013 73.1427 54.2013C72.8053 54.2013 72.4623 54.1796 72.1245 54.1735ZM75.0365 54.1735C75.0714 54.6773 75.0827 55.1162 75.0827 55.7578V56.5359C75.0827 57.1766 75.071 57.6168 75.0365 58.1202C75.1629 58.1085 75.3177 58.0919 75.5069 58.0919C75.8032 58.0919 76.192 58.1202 76.7639 58.1202C77.8392 58.1202 78.7432 57.2904 78.7432 56.032C78.7432 54.591 77.8457 54.1735 76.5412 54.1735C76.0377 54.1735 75.7579 54.2022 75.5069 54.2022C75.3177 54.2022 75.1625 54.1848 75.037 54.1735H75.0365ZM79.5103 54.1735C79.5452 54.6769 79.5565 55.1171 79.5565 55.7587V56.5359C79.5565 57.177 79.5452 57.6168 79.5103 58.1202C79.6367 58.1093 79.791 58.0919 79.9806 58.0919C80.1689 58.0919 80.3228 58.1093 80.4487 58.1202C80.415 57.5928 80.3999 57.0644 80.4034 56.5359V55.7587C80.3999 55.2299 80.415 54.7012 80.4487 54.1735C80.3228 54.1848 80.1689 54.2013 79.9806 54.2013C79.791 54.2013 79.6363 54.1848 79.5103 54.1735ZM88.8885 54.1735C88.9224 54.6769 88.9346 55.1171 88.9346 55.7587V56.5359C88.9346 57.177 88.9224 57.6168 88.8885 58.1202C89.0149 58.1093 89.1687 58.0919 89.3579 58.0919C89.5475 58.0919 89.7013 58.1093 89.8277 58.1202C89.7929 57.6173 89.7815 57.177 89.7815 56.5359V56.3018H89.8325L90.8568 58.1202C91.0281 58.1093 91.2055 58.0919 91.3768 58.0919C91.5486 58.0919 91.7212 58.1093 91.892 58.1202C91.4749 57.4739 91.0399 56.8218 90.6738 56.1758C91.24 56.0324 91.5608 55.6776 91.5608 55.1228C91.5608 54.7854 91.4178 54.5339 91.189 54.3674C90.9885 54.2249 90.7771 54.1735 90.1995 54.1735C89.8103 54.1735 89.5636 54.2013 89.3579 54.2013C89.1687 54.2013 89.0144 54.1848 88.8889 54.1735H88.8885ZM92.334 54.1735C92.3676 54.6769 92.3798 55.1171 92.3798 55.7587V56.5359C92.3798 57.177 92.3676 57.6168 92.334 58.1202C92.4591 58.1093 92.6138 58.0919 93.5457 58.0919C94.0718 58.0919 94.3412 58.115 94.5465 58.1202C94.5356 58.0518 94.5242 57.9943 94.5242 57.874C94.5242 57.7537 94.5356 57.6966 94.546 57.6168C94.1058 57.6691 93.6656 57.6909 93.2371 57.6909C93.2257 57.4531 93.2199 57.215 93.2197 56.977C93.2197 56.7307 93.2262 56.484 93.2262 56.2447C93.6603 56.2447 94.0892 56.2608 94.5242 56.2957C94.5068 56.1754 94.4955 56.1244 94.4955 56.0616C94.4955 55.9862 94.5007 55.9352 94.5242 55.8036C94.0897 55.8267 93.7235 55.8372 93.2262 55.8489C93.2262 55.4314 93.2258 55.0203 93.2541 54.6023C93.4258 54.6023 94.1123 54.642 94.5465 54.6703C94.5356 54.5849 94.5242 54.5344 94.5242 54.4145C94.5242 54.3107 94.5356 54.2428 94.546 54.1735C94.3926 54.1909 93.9123 54.2013 93.3513 54.2013C93.0139 54.2013 92.6705 54.1796 92.334 54.1735ZM102.883 54.1735C102.723 55.4893 102.535 56.8052 102.294 58.1202C102.386 58.1037 102.471 58.0919 102.562 58.0919C102.648 58.0919 102.739 58.1037 102.831 58.1202C102.889 57.2564 102.94 56.3872 103.06 55.5238H103.072C103.497 56.3848 103.913 57.2503 104.32 58.1202C104.354 58.1146 104.394 58.1089 104.428 58.1089C104.462 58.1089 104.503 58.1146 104.537 58.1202C104.951 57.2324 105.372 56.3478 105.801 55.4667H105.811C105.904 56.3532 106.001 57.3252 106.042 58.1202C106.202 58.1037 106.361 58.0919 106.516 58.0919C106.671 58.0919 106.825 58.1037 106.98 58.1202C106.836 57.313 106.636 55.4893 106.488 54.1735C106.408 54.1911 106.328 54.2004 106.246 54.2013C106.167 54.2013 106.081 54.1905 106.001 54.1735C105.584 55.0977 105.139 56.0093 104.667 56.9068C104.251 56.1013 103.764 55.0827 103.347 54.1735C103.272 54.1911 103.195 54.2004 103.117 54.2013C103.038 54.2013 102.963 54.1905 102.883 54.1735ZM107.592 54.1735C107.627 54.6769 107.638 55.1171 107.638 55.7587V56.5359C107.638 57.177 107.627 57.6168 107.592 58.1202C107.718 58.1093 107.873 58.0919 108.805 58.0919C109.332 58.0919 109.6 58.115 109.806 58.1202C109.795 58.0518 109.784 57.9943 109.784 57.874C109.784 57.7537 109.795 57.6966 109.806 57.6168C109.366 57.6691 108.925 57.6909 108.497 57.6909C108.485 57.4531 108.479 57.2151 108.479 56.977C108.479 56.7307 108.485 56.484 108.485 56.2447C108.92 56.2447 109.349 56.2608 109.784 56.2957C109.766 56.1754 109.755 56.1244 109.755 56.0616C109.755 55.9862 109.76 55.9352 109.784 55.8036C109.349 55.8267 108.982 55.8372 108.485 55.8489C108.485 55.4314 108.485 55.0203 108.514 54.6023C108.685 54.6023 109.371 54.642 109.806 54.6703C109.795 54.5849 109.784 54.5344 109.784 54.4145C109.784 54.3107 109.795 54.2428 109.806 54.1735C109.652 54.1909 109.171 54.2013 108.61 54.2013C108.273 54.2013 107.93 54.1796 107.592 54.1735ZM110.504 54.1735C110.539 54.6773 110.55 55.1162 110.55 55.7578V56.5359C110.55 57.1766 110.539 57.6168 110.504 58.1202C110.63 58.1085 110.785 58.0919 110.973 58.0919C111.271 58.0919 111.661 58.1202 112.232 58.1202C113.308 58.1202 114.212 57.2904 114.212 56.032C114.212 54.591 113.313 54.1735 112.01 54.1735C111.506 54.1735 111.225 54.2022 110.973 54.2022C110.785 54.2022 110.63 54.1848 110.504 54.1735ZM114.979 54.1735C115.014 54.6769 115.025 55.1171 115.025 55.7587V56.5359C115.025 57.177 115.014 57.6168 114.979 58.1202C115.105 58.1093 115.26 58.0919 115.449 58.0919C115.637 58.0919 115.791 58.1093 115.917 58.1202C115.882 57.6173 115.871 57.177 115.871 56.5359V55.7587C115.871 55.1171 115.882 54.6769 115.917 54.1735C115.791 54.1848 115.637 54.2013 115.449 54.2013C115.26 54.2013 115.105 54.1848 114.979 54.1735ZM124.379 54.1735C124.413 54.6769 124.425 55.1171 124.425 55.7587V56.5359C124.425 57.177 124.413 57.6168 124.379 58.1202C124.504 58.1093 124.658 58.0919 124.848 58.0919C125.036 58.0919 125.191 58.1093 125.317 58.1202C125.282 57.5929 125.266 57.0644 125.27 56.5359V55.7587C125.27 55.1171 125.283 54.6769 125.317 54.1735C125.191 54.1848 125.036 54.2013 124.848 54.2013C124.658 54.2013 124.504 54.1848 124.379 54.1735ZM126.26 54.1735C126.295 54.6773 126.307 55.1162 126.307 55.7578V56.5359C126.307 57.1766 126.295 57.6168 126.26 58.1202C126.386 58.1085 126.541 58.0919 126.729 58.0919C127.027 58.0919 127.416 58.1202 127.988 58.1202C129.064 58.1202 129.967 57.2904 129.967 56.032C129.967 54.591 129.07 54.1735 127.765 54.1735C127.262 54.1735 126.982 54.2022 126.729 54.2022C126.541 54.2022 126.386 54.1848 126.26 54.1735ZM135.112 54.1735C135.147 54.6769 135.158 55.1171 135.158 55.7587V56.5359C135.158 57.177 135.146 57.6168 135.112 58.1202C135.237 58.1093 135.392 58.0919 136.324 58.0919C136.851 58.0919 137.119 58.115 137.326 58.1202C137.314 58.0518 137.303 57.9943 137.303 57.874C137.303 57.7537 137.314 57.6966 137.325 57.6168C136.885 57.6691 136.445 57.6909 136.016 57.6909C136.004 57.4531 135.998 57.2151 135.998 56.977C135.998 56.7307 136.005 56.484 136.005 56.2447C136.439 56.2447 136.868 56.2608 137.303 56.2957C137.286 56.1754 137.275 56.1244 137.275 56.0616C137.275 55.9862 137.28 55.9352 137.303 55.8036C136.868 55.8267 136.501 55.8372 136.005 55.8489C136.005 55.4314 136.005 55.0203 136.033 54.6023C136.205 54.6023 136.891 54.642 137.326 54.6703C137.314 54.5849 137.303 54.5344 137.303 54.4145C137.303 54.3107 137.314 54.2428 137.325 54.1735C137.171 54.1909 136.691 54.2013 136.13 54.2013C135.792 54.2013 135.45 54.1796 135.112 54.1735ZM138.024 54.1735C138.059 54.6769 138.07 55.1171 138.07 55.7587V56.5359C138.07 57.177 138.059 57.6168 138.024 58.1202C138.151 58.1093 138.305 58.0919 138.494 58.0919C138.683 58.0919 138.836 58.1093 138.963 58.1202C138.928 57.5929 138.913 57.0644 138.917 56.5359V56.3018H138.969L139.992 58.1202C140.164 58.1093 140.341 58.0919 140.512 58.0919C140.684 58.0919 140.856 58.1093 141.027 58.1202C140.609 57.4739 140.175 56.8218 139.809 56.1758C140.375 56.0324 140.696 55.6776 140.696 55.1228C140.696 54.7854 140.553 54.5339 140.324 54.3674C140.123 54.2249 139.912 54.1735 139.335 54.1735C138.945 54.1735 138.7 54.2013 138.493 54.2013C138.305 54.2013 138.151 54.1848 138.024 54.1735ZM141.074 54.1735C141.446 55.0482 142.269 57.1417 142.624 58.1202C142.704 58.1093 142.791 58.0919 142.876 58.0919C142.962 58.0919 143.042 58.1093 143.127 58.1202C143.573 56.8109 144.316 55.0718 144.694 54.1735C144.615 54.1909 144.529 54.2013 144.443 54.2013C144.358 54.2013 144.272 54.1909 144.191 54.1735C143.862 55.1421 143.502 56.0998 143.11 57.045C142.761 56.0904 142.35 55.026 142.092 54.1735C141.926 54.1909 141.754 54.2013 141.589 54.2013C141.423 54.2013 141.251 54.1909 141.074 54.1735ZM145.255 54.1735C145.291 54.7011 145.306 55.2299 145.302 55.7587V56.5359C145.302 57.177 145.29 57.6168 145.255 58.1202C145.381 58.1093 145.536 58.0919 145.724 58.0919C145.914 58.0919 146.068 58.1093 146.194 58.1202C146.159 57.6173 146.148 57.177 146.148 56.5359V55.7587C146.148 55.1171 146.159 54.6769 146.194 54.1735C146.067 54.1848 145.914 54.2013 145.724 54.2013C145.536 54.2013 145.381 54.1848 145.255 54.1735ZM150.903 54.1735C150.937 54.6769 150.948 55.1171 150.948 55.7587V56.5359C150.948 57.177 150.937 57.6168 150.903 58.1202C151.029 58.1093 151.183 58.0919 152.115 58.0919C152.643 58.0919 152.911 58.115 153.116 58.1202C153.105 58.0518 153.094 57.9943 153.094 57.874C153.094 57.7537 153.105 57.6966 153.116 57.6168C152.676 57.6691 152.235 57.6909 151.806 57.6909C151.795 57.4531 151.789 57.215 151.789 56.977C151.789 56.7307 151.795 56.484 151.795 56.2447C152.229 56.2447 152.66 56.2608 153.094 56.2957C153.077 56.1754 153.065 56.1244 153.065 56.0616C153.065 55.9862 153.071 55.9352 153.094 55.8036C152.66 55.8267 152.292 55.8372 151.795 55.8489C151.795 55.4314 151.796 55.0203 151.824 54.6023C151.996 54.6023 152.682 54.642 153.116 54.6703C153.105 54.5849 153.094 54.5344 153.094 54.4145C153.094 54.3107 153.105 54.2428 153.116 54.1735C152.962 54.1909 152.482 54.2013 151.921 54.2013C151.584 54.2013 151.24 54.1796 150.903 54.1735ZM98.2587 54.2013C97.7558 54.2013 97.2074 54.4537 97.2074 55.1167C97.2074 55.4257 97.3783 55.7238 97.6246 56.0555C97.0069 56.3698 96.5946 56.6788 96.5946 57.2738C96.5946 57.7201 96.9607 58.1948 97.6817 58.1948C98.128 58.1948 98.6201 58.0226 98.9631 57.7419L99.2377 58.1202C99.3977 58.115 99.5528 58.0919 99.7067 58.0919C99.919 58.0919 100.129 58.115 100.41 58.1202C100.115 57.8243 99.8305 57.517 99.5589 57.1988C99.8388 56.8907 100.101 56.5816 100.354 56.1985C100.243 56.0933 100.138 55.9826 100.038 55.8668C99.8039 56.358 99.5528 56.7364 99.358 56.9709C99.049 56.6108 98.746 56.2556 98.454 55.8725C98.9579 55.5639 99.1867 55.271 99.1867 54.8996C99.1867 54.4424 98.7914 54.2013 98.2587 54.2013ZM59.1526 54.4254C59.8901 54.4254 60.3992 55.0308 60.3992 56.0207C60.3992 57.2677 59.7995 57.84 59.1121 57.84C58.4722 57.84 57.9113 57.4168 57.9113 56.1976C57.9113 55.2139 58.3681 54.4254 59.1522 54.4254H59.1526ZM98.3507 54.4594C98.4049 54.4598 98.4584 54.471 98.5082 54.4923C98.558 54.5135 98.6031 54.5444 98.6408 54.5832C98.6786 54.622 98.7083 54.6679 98.7282 54.7182C98.7482 54.7686 98.7579 54.8224 98.7569 54.8765C98.7569 55.2313 98.4884 55.5229 98.2997 55.6654C98.1114 55.3969 97.9449 55.1062 97.9449 54.8713C97.9449 54.6023 98.128 54.4594 98.3507 54.4594ZM47.3367 54.4995C47.96 54.4995 48.2237 54.5731 48.2237 55.2487C48.2237 55.7862 47.9486 56.0669 47.4456 56.0669C47.4055 56.0669 47.3646 56.0616 47.3192 56.0555C47.3192 55.5347 47.3253 55.0199 47.3367 54.4995ZM62.9102 54.4995C63.534 54.4995 63.7972 54.5731 63.7972 55.2487C63.7972 55.7862 63.5226 56.0669 63.0192 56.0669C62.9791 56.0669 62.939 56.0616 62.8932 56.0555C62.8932 55.5347 62.8989 55.0199 62.9107 54.4995H62.9102ZM76.5276 54.4995C77.317 54.4995 77.837 55.0835 77.837 56.0215C77.837 57.2115 77.2943 57.7947 76.4357 57.7947C76.2016 57.7947 76.0478 57.7824 75.9327 57.7772C75.9266 57.6682 75.9266 56.97 75.9266 56.6614V55.6436C75.9266 55.3342 75.9266 54.6363 75.9327 54.5282C76.1096 54.5108 76.2531 54.4995 76.5276 54.4995ZM89.7959 54.4995C90.4192 54.4995 90.682 54.5731 90.682 55.2487C90.682 55.7862 90.4079 56.0669 89.904 56.0669C89.8643 56.0669 89.8256 56.0616 89.7789 56.0555C89.7789 55.5347 89.7842 55.0199 89.7964 54.4995H89.7959ZM111.996 54.4995C112.784 54.4995 113.305 55.0835 113.305 56.0215C113.305 57.2115 112.762 57.7947 111.904 57.7947C111.669 57.7947 111.514 57.7824 111.4 57.7772C111.394 57.6682 111.394 56.97 111.394 56.6614V55.6436C111.394 55.3342 111.394 54.6363 111.4 54.5282C111.577 54.5108 111.721 54.4995 111.996 54.4995ZM127.75 54.4995C128.54 54.4995 129.062 55.0835 129.062 56.0215C129.062 57.2115 128.518 57.7947 127.659 57.7947C127.425 57.7947 127.271 57.7824 127.156 57.7772C127.151 57.6682 127.15 56.97 127.15 56.6614V55.6436C127.15 55.3342 127.151 54.6363 127.156 54.5282C127.354 54.5072 127.552 54.4976 127.75 54.4995ZM138.931 54.4995C139.554 54.4995 139.818 54.5731 139.818 55.2487C139.818 55.7862 139.543 56.0669 139.039 56.0669C138.999 56.0669 138.96 56.0616 138.914 56.0555C138.914 55.5347 138.919 55.0199 138.931 54.4995H138.931ZM86.3168 55.2487C86.4999 55.6955 86.6603 56.1466 86.8259 56.61H85.7798C85.9455 56.1466 86.122 55.6955 86.3168 55.2487ZM121.784 55.2487C121.967 55.6955 122.127 56.1466 122.293 56.61H121.247C121.41 56.1501 121.589 55.6961 121.784 55.2487ZM97.7893 56.2787C98.1149 56.7019 98.4579 57.1252 98.8014 57.5427C98.6523 57.6796 98.4178 57.7659 98.189 57.7659C98.0822 57.7687 97.9759 57.7503 97.8763 57.7118C97.7766 57.6733 97.6856 57.6154 97.6085 57.5414C97.5314 57.4675 97.4698 57.379 97.4271 57.281C97.3844 57.1831 97.3616 57.0777 97.36 56.9709C97.36 56.6793 97.5256 56.4792 97.7889 56.2787H97.7893Z" fill="#1C4E9D"/>
</svg>
