<svg width="208" height="48" viewBox="0 0 208 48" fill="none" xmlns="http://www.w3.org/2000/svg">
<path d="M21.4186 4L4.06641 14.025L12.9923 19.154L21.4186 14.2914V4Z" fill="#4E8DCB"/>
<path d="M29.8453 28.8459L21.4189 33.7085L21.4523 44L38.7712 34.0083V23.7169L29.8453 28.8459Z" fill="#1F6DAE"/>
<path d="M21.4189 4V14.2914L29.8453 19.154L38.7378 13.9917L21.4189 4Z" fill="#1F6DAE"/>
<path d="M4.09961 34.0083L21.4518 44L21.4185 33.7086L12.9922 28.8793L4.09961 34.0083Z" fill="#4E8DCB"/>
<path d="M4.09971 34.0084L12.9923 28.8793V19.1541L4.06641 14.025L4.09971 34.0084Z" fill="#1F6DAE"/>
<path d="M21.4189 14.2914L29.8453 19.154V28.8793L21.4189 24.0167V14.2914Z" fill="#888888"/>
<path d="M21.4185 14.2914L12.9922 19.154V28.8793L21.4185 24.0167V14.2914Z" fill="#595757"/>
<path d="M62.884 30.1449C61.0855 31.9101 58.7541 32.7427 56.2895 32.7427C49.9281 32.7427 47.0639 28.3464 47.0305 23.7502C46.9972 19.154 50.0281 14.5579 56.2895 14.5579C58.6542 14.5579 60.919 15.4238 62.7175 17.2223L60.8524 19.0208C59.5868 17.7885 57.9548 17.2223 56.3228 17.2223C51.8599 17.2223 49.8282 20.5196 49.8615 23.7502C49.8948 26.9475 51.7932 30.1449 56.3228 30.1449C57.9548 30.1449 59.7533 29.4788 60.9856 28.2465L62.884 30.1449Z" fill="#231815"/>
<path d="M73.1755 22.6179L78.1713 14.8577H81.5685V14.9909L74.5743 25.2157V32.4097H71.7766V25.2157L65.0156 14.9909V14.8577H68.3462L73.1755 22.6179Z" fill="#231815"/>
<path fill-rule="evenodd" clip-rule="evenodd" d="M99.2538 19.8535C99.2538 16.3897 96.6227 14.8577 93.2921 14.8577H85.2322V32.4097H93.2921C96.7559 32.4097 99.82 31.2107 99.82 27.3806C99.82 26.0483 98.9208 23.9834 96.8225 23.3506C98.4878 22.6512 99.2538 21.3189 99.2538 19.8535ZM93.3254 22.1183H88.0298V17.3889H93.2921C95.4237 17.3889 96.4895 18.6878 96.4895 19.9201C96.4895 21.2856 95.4237 22.1183 93.3254 22.1183ZM93.2921 29.7786H87.9965V24.6162H93.2921C94.9241 24.6162 96.989 25.4821 96.989 27.3473C96.989 29.279 94.8575 29.7786 93.2921 29.7786Z" fill="#231815"/>
<path d="M117.405 32.4097H104.45V14.8577H117.339V17.5887H107.281V22.3181H116.939V24.9493H107.281V29.6453H117.405V32.4097Z" fill="#231815"/>
<path fill-rule="evenodd" clip-rule="evenodd" d="M134.125 32.4097H137.422L137.122 31.9101L131.893 26.0816C135.357 25.5821 136.656 23.1174 136.656 20.6195C136.656 17.6553 134.524 14.891 130.461 14.891C129.096 14.891 127.738 14.8826 126.381 14.8743C125.024 14.866 123.667 14.8577 122.301 14.8577V32.4097H125.099V26.3481H128.796L134.125 32.4097ZM125.099 23.7836V17.4222H130.461C132.759 17.4222 133.792 19.0875 133.792 20.6528C133.792 22.3181 132.759 23.7836 130.428 23.7836H125.099Z" fill="#231815"/>
<path fill-rule="evenodd" clip-rule="evenodd" d="M202.401 14.6911H202.601C202.701 14.6911 202.734 14.6245 202.667 14.5912C202.401 14.0916 202.135 13.7586 202.035 13.6919C202.468 13.6586 202.634 13.3922 202.634 13.0591C202.634 12.7261 202.368 12.4263 201.868 12.4263H201.302C201.269 12.4263 201.202 12.4596 201.202 12.5262V14.5912C201.202 14.6245 201.235 14.6911 201.302 14.6911H201.435C201.502 14.6911 201.535 14.6578 201.535 14.5912V13.7253H201.602C201.668 13.7253 201.702 13.7586 201.735 13.7919C201.858 13.9153 201.953 14.0674 202.099 14.301L202.135 14.3581C202.201 14.4911 202.235 14.5579 202.301 14.6578C202.334 14.6911 202.368 14.6911 202.401 14.6911ZM201.535 12.6928H201.768C202.101 12.6928 202.268 12.7927 202.268 13.0591C202.268 13.3256 202.168 13.4255 201.768 13.4255H201.535V12.6928Z" fill="#1F6DAE"/>
<path fill-rule="evenodd" clip-rule="evenodd" d="M199.803 13.5587C199.803 14.7577 200.736 15.6237 201.868 15.6237C202.967 15.6237 203.9 14.7244 203.933 13.5587C203.933 12.3597 202.967 11.4938 201.868 11.4938C200.736 11.4938 199.803 12.393 199.803 13.5587ZM200.17 13.592C200.17 12.5929 200.936 11.8268 201.868 11.8268C202.801 11.8268 203.567 12.5596 203.567 13.592C203.567 14.5912 202.801 15.3572 201.868 15.3572C200.902 15.3572 200.17 14.5912 200.17 13.592Z" fill="#1F6DAE"/>
<path fill-rule="evenodd" clip-rule="evenodd" d="M145.448 29.5121H153.275L154.408 32.4097H159.737L151.876 14.8577H146.881L139.021 32.4097H144.283L145.448 29.5121ZM147.114 25.3822L149.379 19.7869L151.61 25.3822H147.114Z" fill="#1F6DAE"/>
<path fill-rule="evenodd" clip-rule="evenodd" d="M173.159 32.4097H178.654V32.11L174.091 26.1816C177.022 24.8826 177.788 23.0508 177.788 20.886C177.788 17.7553 175.457 14.8577 170.961 14.8577H162.401V32.4097H167.364V26.7145H169.096L173.159 32.4097ZM167.364 23.0175V18.821H170.961C172.26 18.821 172.892 19.8868 172.892 20.9859C172.892 22.0517 172.326 23.0175 171.027 23.0175H167.364Z" fill="#1F6DAE"/>
<path d="M197.638 15.1574L190.511 23.4505C192.975 26.1483 195.806 29.3123 198.238 32.11V32.4097H192.109L187.08 26.5812V32.4097H182.118V14.8577H187.08V20.6195C188.579 18.7544 190.211 16.7228 191.676 14.8577H197.605V15.1574H197.638Z" fill="#1F6DAE"/>
</svg>
