<svg width="160" height="56" viewBox="0 0 160 56" fill="none" xmlns="http://www.w3.org/2000/svg">
<path d="M68.7926 23.7944C68.4792 23.7997 68.1672 23.7574 67.8671 23.6622C67.628 23.5906 67.4058 23.4719 67.2133 23.3131C67.0434 23.1684 66.9098 22.9859 66.8232 22.7803C66.7344 22.5655 66.687 22.3358 66.6838 22.1034C66.3222 22.0571 65.9744 21.9368 65.6624 21.7477C65.3504 21.5587 65.0675 21.3028 64.8579 21.0047C64.6226 20.6741 64.4447 20.3079 64.3324 19.9185C64.2022 19.4711 64.1387 19.0069 64.144 18.5409C64.1372 18.0285 64.2163 17.5186 64.378 17.0323C64.5169 16.6155 64.7336 16.2288 65.0166 15.8927C65.279 15.5886 65.6115 15.344 65.9718 15.1787C66.3431 15.0128 66.7457 14.9282 67.1525 14.9308C67.5575 14.9282 67.9584 15.0127 68.3278 15.1787C68.6925 15.345 69.0167 15.5886 69.2778 15.8927C69.5608 16.228 69.7761 16.615 69.9117 17.0323C70.2059 17.9777 70.2172 18.9891 69.9428 19.941C69.8262 20.3333 69.6423 20.7024 69.3994 21.0318C69.1769 21.3311 68.8952 21.5815 68.5717 21.7672C68.2483 21.9529 67.89 22.07 67.5194 22.1113C67.5329 22.2832 67.5853 22.4498 67.6727 22.5985C67.7503 22.7214 67.8585 22.8221 67.9867 22.8907C68.1308 22.9661 68.2875 23.015 68.4495 23.0348C68.6465 23.0613 68.8461 23.0725 69.0444 23.0712H69.5217V23.7884L68.7926 23.7944ZM67.1498 21.4251C67.4489 21.4294 67.7447 21.363 68.0132 21.2312C68.2817 21.0995 68.5152 20.9061 68.6947 20.6669C68.898 20.3949 69.0497 20.0879 69.1423 19.7612C69.3565 18.9678 69.3565 18.1318 69.1423 17.3384C69.0502 17.0142 68.8984 16.7099 68.6947 16.4413C68.5137 16.2043 68.2797 16.0128 68.0114 15.8824C67.7432 15.752 67.4481 15.6863 67.1498 15.6904C66.8459 15.6874 66.5453 15.7534 66.2706 15.8834C66.0062 16.0143 65.7616 16.2053 65.5765 16.442C65.3699 16.7091 65.2172 17.0137 65.127 17.3391C64.9165 18.133 64.9165 18.968 65.127 19.7619C65.2185 20.0893 65.371 20.3966 65.5765 20.6675C65.7603 20.9075 65.9976 21.1012 66.2706 21.2321C66.5436 21.363 66.8457 21.4284 67.1498 21.4251ZM72.7107 22.1179C72.5119 22.1319 72.3124 22.1052 72.1244 22.0392C71.9363 21.9733 71.7638 21.8696 71.6173 21.7345C71.485 21.587 71.3835 21.4145 71.3188 21.2271C71.2541 21.0398 71.2275 20.8415 71.2405 20.6437V17.0627H72.0536V20.4738C72.0314 20.7368 72.1083 20.9985 72.2691 21.2076C72.4568 21.3795 72.708 21.4721 72.9619 21.4423C73.2528 21.4443 73.5397 21.3762 73.7935 21.2268C74.0745 21.0629 74.3356 20.8672 74.5703 20.6431V17.0627H75.39V22.026H74.5683V21.283C74.458 21.3953 74.3398 21.4995 74.2146 21.595C74.0789 21.6981 73.9334 21.7878 73.7803 21.8627C73.6191 21.9424 73.4498 22.0045 73.2752 22.0478C73.0901 22.0941 72.9004 22.1179 72.71 22.1173L72.7107 22.1179ZM77.9166 22.1001C77.5471 22.1207 77.1828 22.0052 76.8926 21.7755C76.7642 21.6595 76.6637 21.516 76.5984 21.3558C76.5332 21.1956 76.5049 21.0227 76.5158 20.85C76.5138 20.6067 76.574 20.3674 76.691 20.1539C76.8299 19.9175 77.0232 19.7176 77.2549 19.5708C77.5722 19.3683 77.9171 19.2124 78.2788 19.1081C78.7879 18.958 79.3101 18.847 79.8363 18.7776V18.5528C79.8694 18.2963 79.7801 18.0391 79.595 17.8587C79.4099 17.6782 79.1501 17.5942 78.8943 17.6339C78.5499 17.627 78.2087 17.7011 77.8981 17.8501C77.6105 17.9935 77.3428 18.1727 77.0995 18.3829L76.6764 17.8765C76.9726 17.6064 77.3086 17.3834 77.6726 17.2155C78.084 17.0314 78.5311 16.9411 78.9816 16.951C79.2381 16.9444 79.4932 16.9841 79.7372 17.0634C80.1311 17.191 80.4333 17.5103 80.5397 17.9096C80.6058 18.1363 80.6369 18.3723 80.6336 18.6077V20.7978C80.6316 21.0457 80.6421 21.2936 80.6666 21.5395C80.681 21.7038 80.7181 21.8653 80.777 22.0194H79.9507L79.868 21.7047C79.8454 21.5816 79.835 21.4565 79.837 21.3312C79.323 21.8299 78.6333 22.1061 77.9172 22.1001H77.9166ZM78.1506 21.4615C78.4673 21.4648 78.7809 21.3989 79.0695 21.2684C79.3535 21.1357 79.6129 20.9555 79.8363 20.7356V19.3474C79.4349 19.4085 79.0375 19.4939 78.6464 19.6032C78.3745 19.6762 78.1124 19.7816 77.8657 19.9172C77.6958 20.0071 77.5504 20.1354 77.4406 20.294C77.3573 20.4243 77.3137 20.5756 77.3084 20.7303C77.2952 20.9373 77.3758 21.1389 77.5292 21.2777C77.7055 21.4108 77.9235 21.4764 78.144 21.4628L78.1506 21.4615ZM82.0773 22.026V15.065H82.8851V22.026H82.0773ZM86.1138 22.0908C85.7259 22.1327 85.337 22.0212 85.0303 21.7801C84.8074 21.5133 84.6987 21.1694 84.7275 20.8229V17.7291H83.8562V17.0627H84.7156V15.2924H85.5287V17.0601H86.8145V17.7258H85.5287V20.6477C85.5127 20.8583 85.5686 21.068 85.6874 21.2427C85.8527 21.3967 86.0761 21.4694 86.2995 21.441C86.388 21.4406 86.4763 21.4344 86.564 21.4225C86.6443 21.4127 86.7238 21.3973 86.802 21.3762V22.0359C86.7358 22.0472 86.6321 22.0604 86.4913 22.0723L86.0999 22.0921L86.1138 22.0908ZM87.9185 22.0273V17.0694H88.7276V17.9869H88.7461C88.9332 17.6934 89.1824 17.4448 89.4779 17.2597C89.8379 17.0488 90.2511 16.9462 90.6679 16.9643H90.769L90.7141 17.7179C90.6749 17.7087 90.6346 17.7054 90.5945 17.7079H90.4795C90.1133 17.7003 89.7532 17.8017 89.4449 17.9995C89.1372 18.2076 88.8905 18.4939 88.7303 18.8291V22.0333L87.9185 22.0273ZM91.7163 15.9984V15.2052H92.5612V15.9984H91.7163ZM91.7348 22.0273V17.0694H92.5426V22.0326L91.7348 22.0273ZM95.9551 22.1318C95.6697 22.1324 95.3871 22.0764 95.1234 21.9672C94.8563 21.8567 94.6162 21.6898 94.4194 21.478C94.2042 21.244 94.0378 20.9694 93.9302 20.6702C93.8014 20.3086 93.7392 19.9268 93.7464 19.5431C93.7373 19.1461 93.8046 18.7511 93.9448 18.3796C94.0604 18.0775 94.2389 17.8045 94.4683 17.5757C94.6779 17.3774 94.9278 17.2122 95.1955 17.109C95.4581 17.0099 95.7365 16.9589 96.0172 16.9583C96.2658 16.953 96.513 16.9914 96.749 17.0707C96.947 17.1408 97.1319 17.2439 97.2957 17.3754C97.4522 17.5014 97.5863 17.653 97.6923 17.8236C97.7968 17.9913 97.8881 18.1667 97.9654 18.3485L97.2778 18.6328C97.1804 18.3522 97.0118 18.1017 96.7887 17.9056C96.5654 17.7294 96.2861 17.6395 96.002 17.6524C95.821 17.6518 95.6416 17.6855 95.4731 17.7516C95.2959 17.8226 95.1375 17.9337 95.0104 18.0762C94.8605 18.2466 94.7479 18.4466 94.6799 18.6632C94.5911 18.9501 94.5493 19.2494 94.5562 19.5497C94.5233 20.0531 94.6632 20.5526 94.9529 20.9657C95.0732 21.1234 95.2291 21.2503 95.4079 21.3361C95.5867 21.422 95.7832 21.4642 95.9815 21.4595C96.2598 21.4713 96.5344 21.3927 96.7642 21.2354C97.0097 21.0287 97.1985 20.763 97.3129 20.4633L97.9839 20.7277C97.8926 20.9287 97.7822 21.1204 97.6533 21.2995C97.5317 21.4681 97.3863 21.6188 97.2217 21.7451C97.0571 21.8713 96.8673 21.9698 96.6683 22.0359C96.4356 22.102 96.1924 22.1437 95.9412 22.1384L95.9551 22.1318ZM100.662 22.1186C100.248 22.1261 99.8381 22.0449 99.4587 21.8806C99.1396 21.7459 98.8566 21.5383 98.6324 21.2744L99.1182 20.7878C99.3107 20.9884 99.5361 21.1546 99.7846 21.279C100.06 21.413 100.364 21.4794 100.67 21.4727C100.979 21.4912 101.287 21.4225 101.558 21.2744C101.656 21.2132 101.736 21.1268 101.79 21.0243C101.843 20.9218 101.868 20.8068 101.862 20.6913C101.868 20.5779 101.841 20.4653 101.784 20.3668C101.728 20.2683 101.644 20.188 101.544 20.1354C101.241 19.9847 100.919 19.8743 100.586 19.8088L99.8593 19.6006C99.66 19.5361 99.4713 19.4425 99.2994 19.3229C99.1498 19.2159 99.0266 19.0762 98.9391 18.9144C98.8457 18.7278 98.8002 18.5208 98.8069 18.3122C98.8056 18.1293 98.8456 17.9486 98.9239 17.7833C99.0043 17.6167 99.1211 17.4704 99.2657 17.3549C99.4296 17.2247 99.616 17.1256 99.817 17.0627C100.052 16.9888 100.298 16.9526 100.544 16.9557C100.922 16.9445 101.298 17.0102 101.649 17.1487C101.944 17.2735 102.212 17.4509 102.443 17.6723L102.02 18.209C101.83 18.0299 101.611 17.8842 101.372 17.778C101.124 17.667 100.855 17.6108 100.583 17.6128C100.308 17.5863 100.033 17.659 99.8064 17.8111C99.7366 17.8666 99.6798 17.9369 99.6402 18.0169C99.6005 18.0969 99.579 18.1846 99.577 18.2738C99.5713 18.378 99.5957 18.4817 99.6474 18.5723C99.6992 18.663 99.7759 18.7367 99.8686 18.7848C100.148 18.9234 100.446 19.0232 100.752 19.0816C101.034 19.1522 101.291 19.2249 101.522 19.2998C101.733 19.3657 101.933 19.4614 102.117 19.5841C102.278 19.6931 102.41 19.8399 102.502 20.0118C102.598 20.2114 102.643 20.4312 102.634 20.6523C102.639 20.8723 102.588 21.0899 102.485 21.2843C102.385 21.4676 102.242 21.6241 102.068 21.7404C101.875 21.8689 101.662 21.9623 101.437 22.0161C101.183 22.0802 100.922 22.1128 100.66 22.1133L100.662 22.1186ZM64.5565 41.2908V26.313H70.5437C71.2077 26.3118 71.8708 26.3626 72.5269 26.4651C73.1253 26.5537 73.7036 26.7461 74.2358 27.0336C74.7255 27.3027 75.1372 27.694 75.431 28.1693C75.7524 28.7316 75.9085 29.3732 75.8812 30.0203C75.8903 30.4939 75.8098 30.9649 75.6438 31.4085C75.5008 31.7826 75.2879 32.126 75.0165 32.4206C74.7569 32.6965 74.4488 32.9224 74.1075 33.087C73.7638 33.2542 73.4002 33.3792 73.026 33.4572V33.5067C73.4621 33.5801 73.8881 33.7044 74.2953 33.8769C74.679 34.0397 75.0289 34.2727 75.3272 34.5638C75.6328 34.8678 75.8703 35.2333 76.024 35.636C76.2026 36.1244 76.288 36.6419 76.2758 37.1618C76.2967 37.8327 76.1398 38.4973 75.821 39.0881C75.5274 39.605 75.1121 40.0425 74.6113 40.3626C74.0769 40.6979 73.4881 40.937 72.8713 41.0693C72.2052 41.2185 71.5245 41.2932 70.8419 41.2921L64.5565 41.2908ZM67.7877 32.488H70.2172C70.8842 32.5404 71.5506 32.3782 72.119 32.0253C72.3202 31.8686 72.4805 31.6656 72.5862 31.4335C72.6919 31.2014 72.7398 30.9472 72.7259 30.6926C72.7425 30.4384 72.6998 30.1838 72.6013 29.9488C72.5027 29.7139 72.351 29.5051 72.158 29.3387C71.5924 28.9791 70.9238 28.8164 70.2562 28.876H67.7871L67.7877 32.488ZM67.7877 38.7814H70.4452C71.1506 38.8475 71.8559 38.6591 72.4456 38.2677C72.8773 37.8975 73.1093 37.3449 73.0736 36.777C73.0736 35.4725 72.1481 34.8203 70.2971 34.8203H67.7891L67.7877 38.7814ZM77.865 41.2908V30.5022H81.1254V32.3109H81.1452C81.3039 32.0623 81.4758 31.8283 81.6794 31.6101C81.901 31.3632 82.1534 31.1457 82.4303 30.963C82.7443 30.7567 83.0914 30.5941 83.4418 30.4791C83.8746 30.3435 84.3263 30.2784 84.7798 30.286H84.8888L84.8393 33.1815C84.71 33.1616 84.5798 33.1486 84.4492 33.1425L83.9904 33.1227C83.3982 33.1084 82.814 33.2627 82.3061 33.5676C81.8564 33.8393 81.457 34.1866 81.1254 34.5942V41.2908H77.865ZM87.666 41.4494C87.2614 41.4517 86.8592 41.3865 86.476 41.2564C86.1152 41.1346 85.7816 40.9437 85.4937 40.6945C85.2059 40.4412 84.9778 40.1271 84.826 39.775C84.6594 39.3835 84.577 38.9615 84.5841 38.5361C84.5725 37.949 84.7184 37.3695 85.0068 36.858C85.2951 36.3464 85.7153 35.9215 86.2235 35.6274C87.3178 34.9249 89.0502 34.4785 91.4208 34.2881V34.0316C91.4385 33.6858 91.3198 33.3469 91.0903 33.0876C90.9368 32.9567 90.7584 32.8582 90.5658 32.7981C90.3732 32.738 90.1705 32.7175 89.9698 32.7379C89.3139 32.7311 88.6633 32.8571 88.0573 33.1081C87.4736 33.3519 86.9269 33.6761 86.4331 34.0713L85.0495 32.2044C85.342 31.9503 85.6512 31.716 85.975 31.5031C86.3431 31.261 86.7333 31.0542 87.1404 30.8856C87.6137 30.6926 88.1056 30.5472 88.608 30.4513C89.2102 30.3372 89.8222 30.2825 90.4352 30.288C91.9173 30.288 92.9829 30.6454 93.6321 31.3603C94.34 32.2536 94.6872 33.38 94.6052 34.5168V38.665C94.5985 39.1978 94.621 39.7307 94.6713 40.2615C94.7024 40.6148 94.7823 40.962 94.9086 41.2934H91.6694L91.4975 40.5616C91.4459 40.282 91.4208 39.9977 91.4235 39.7128C90.967 40.2494 90.4078 40.6893 89.7787 41.0065C89.1177 41.3152 88.3958 41.4673 87.6666 41.4494H87.666ZM88.9597 39.0035C89.4588 39.0167 89.9552 38.9268 90.4173 38.7391C90.7914 38.5816 91.1317 38.3536 91.4195 38.0674V36.0723C90.4538 36.1205 89.5056 36.348 88.6232 36.7433C88.3787 36.8455 88.1683 37.0148 88.0162 37.2318C87.8641 37.4487 87.7766 37.7043 87.7638 37.9689C87.7528 38.1159 87.7771 38.2633 87.8346 38.399C87.8921 38.5347 87.9811 38.6547 88.0943 38.749C88.3455 38.9295 88.651 39.0187 88.9537 39.0028L88.9597 39.0035ZM96.1818 41.2842V30.5022H99.4422V32.2011C99.6193 31.9698 99.8144 31.7516 100.025 31.5493C100.271 31.3134 100.543 31.1063 100.836 30.9319C101.163 30.7364 101.513 30.581 101.878 30.4691C102.296 30.3422 102.73 30.2805 103.167 30.286C103.594 30.2819 104.019 30.3437 104.427 30.4691C104.794 30.581 105.132 30.7711 105.418 31.0264C105.706 31.2945 105.928 31.6261 106.065 31.9949C106.23 32.4576 106.309 32.9336 106.297 33.4182V41.2848H103.058V34.454C103.085 34.0631 102.983 33.6741 102.767 33.3468C102.644 33.2118 102.491 33.1075 102.32 33.0423C102.15 32.9771 101.966 32.9528 101.784 32.9713C101.358 32.9707 100.939 33.0759 100.564 33.2773C100.162 33.4921 99.7855 33.7504 99.4402 34.0475V41.2895L96.1818 41.2842ZM111.423 41.4415C110.848 41.4479 110.278 41.3354 109.748 41.111C109.236 40.8896 108.785 40.5475 108.434 40.1141C108.039 39.6108 107.75 39.0326 107.585 38.4145C107.37 37.6212 107.268 36.8015 107.283 35.9798C107.27 35.1514 107.372 34.3251 107.585 33.5246C107.756 32.8804 108.047 32.2746 108.445 31.7397C108.792 31.2758 109.245 30.9015 109.767 30.6476C110.297 30.3998 110.876 30.2748 111.461 30.2821C112.122 30.2662 112.765 30.4011 113.358 30.6787C113.908 30.9567 114.383 31.3633 114.742 31.864V26.311H118.001V38.6597C117.995 39.1927 118.017 39.7256 118.067 40.2562C118.097 40.6116 118.184 40.9599 118.324 41.2881H114.985C114.938 41.1996 114.903 41.1048 114.882 41.0065C114.849 40.8696 114.824 40.731 114.807 40.5914L114.758 40.1174L114.738 39.6679C114.379 40.1653 113.931 40.5913 113.416 40.9239C112.817 41.2885 112.123 41.4685 111.423 41.4415ZM112.639 38.9956C113.051 38.9988 113.455 38.8856 113.804 38.669C114.146 38.4707 114.461 38.2175 114.743 37.9379V33.9569C114.448 33.6549 114.107 33.4 113.734 33.2013C113.38 33.0329 112.991 32.9498 112.599 32.9587C111.222 32.9587 110.534 33.9565 110.534 35.952C110.499 36.7189 110.675 37.4811 111.043 38.1547C111.374 38.712 111.99 39.0365 112.637 38.9956H112.639ZM119.093 41.2776L123.884 33.3646L119.518 26.3011H123.273L125.95 30.7964L128.479 26.3011H131.877L127.609 33.3844L132.46 41.2776H128.805L125.624 36.0419L122.551 41.2776H119.093ZM133.843 41.2776V26.313H138.19L141.526 37.331H141.566L144.678 26.3157H149.134V41.2928H145.956V31.0747H145.916C145.824 31.6604 145.7 32.2408 145.546 32.8133C145.404 33.3271 145.25 33.8604 145.083 34.4131L142.84 41.2881H139.926L137.705 34.4131C137.626 34.1301 137.549 33.8701 137.474 33.633C137.399 33.3959 137.328 33.1456 137.261 32.882C137.195 32.6176 137.127 32.3311 137.059 32.0226C136.99 31.7142 136.916 31.3395 136.836 30.8988H136.796V41.2776H133.843ZM151.794 29.0227V26.5993H150.93V26.3018H152.984V26.5993H152.124V29.0227H151.794ZM153.437 29.0227V26.3005H153.86L154.72 28.6142H154.726L155.569 26.3005H156V29.0227H155.68V26.8333H155.673L155.599 27.0686L155.506 27.3331L154.857 29.0353H154.566L153.917 27.3331C153.898 27.289 153.883 27.2449 153.87 27.2008L153.831 27.0832L153.79 26.9602L153.747 26.8148H153.74V29.028L153.437 29.0227Z" fill="black"/>
<path d="M25.7623 51.2133H14.8811C8.87469 51.2067 4.00661 46.3386 4 40.3322V15.6744C4.00661 9.6614 8.87469 4.79332 14.8811 4.78671H25.7623V51.2133ZM50.4266 40.3322C50.42 46.3386 45.5519 51.2067 39.5455 51.2133H28.6643V16.3937H39.5455C42.4302 16.3972 45.1959 17.5447 47.2357 19.5846C49.2756 21.6244 50.4231 24.39 50.4266 27.2748V40.3322Z" fill="#5F1AE5"/>
</svg>
