<svg width="160" height="64" viewBox="0 0 160 64" fill="none" xmlns="http://www.w3.org/2000/svg">
<path fill-rule="evenodd" clip-rule="evenodd" d="M4.48833 45.1831C3.34831 47.4136 4.27165 50.1312 6.55736 51.2472C8.84164 52.3631 11.6173 51.4596 12.7602 49.2235L14.631 45.5697L10.779 32.8908L4.48833 45.1831ZM30.5757 4.29538C28.2928 3.17944 25.5157 4.08154 24.3728 6.31485L16.8274 21.0615L20.6837 33.739L32.6433 10.358C33.7833 8.12755 32.8585 5.41416 30.5757 4.29538Z" fill="#92C746"/>
<path fill-rule="evenodd" clip-rule="evenodd" d="M18.0863 56.9487C18.8143 59.3406 21.386 60.7058 23.8318 59.9948C26.2817 59.2839 27.6767 56.7674 26.9516 54.3726L20.6822 33.7404L14.6295 45.5725L18.0849 56.9501L18.0863 56.9487ZM14.2952 12.7173C13.5673 10.3226 10.9956 8.95738 8.54558 9.66972C6.09985 10.3806 4.70492 12.8958 5.43 15.2877L10.7775 32.8907L16.8274 21.06L14.2952 12.7173Z" fill="#D50F67"/>
<path fill-rule="evenodd" clip-rule="evenodd" d="M10.7773 32.8908L14.6308 45.5712L20.6835 33.7391L16.8287 21.0615L10.7773 32.8908Z" fill="#3BA510"/>
<path fill-rule="evenodd" clip-rule="evenodd" d="M46.556 43.5347H33.4975C33.4692 43.2515 33.4692 42.9966 33.4692 42.7983C33.4692 39.5808 34.7664 37.4622 37.9457 35.4285C39.5927 34.3579 40.6039 33.7065 41.0089 33.4261C41.4408 33.1145 41.7878 32.7166 42.0767 32.2648C42.36 31.7868 42.5097 31.2414 42.51 30.6858C42.51 29.2696 41.5272 28.3123 40.111 28.3123C38.3776 28.3123 37.3977 29.499 37.3396 31.6998H33.4678C33.5244 29.271 34.1022 27.8619 35.5481 26.7021C36.7618 25.7433 38.2346 25.2604 40.111 25.2604C44.0707 25.2604 46.583 27.2955 46.583 30.5116C46.583 33.0565 45.2546 34.8083 41.6433 37.0954C38.8988 38.8175 38.5518 39.1573 38.2629 40.3993H46.5546L46.556 43.5347ZM52.0154 37.9989C52.0154 39.7493 53.1979 40.8525 55.0177 40.8525C56.7242 40.8525 57.8217 39.9178 57.8217 38.479C57.8217 36.7569 56.7242 36.08 53.8918 36.08H53.4599V33.0012H53.8649C56.5783 33.0012 57.6489 32.3512 57.6489 30.6844C57.6489 29.3305 56.5783 28.342 55.0757 28.342C53.2843 28.342 52.3043 29.3857 52.3043 31.3075V31.333H48.2866C48.4027 29.0161 48.9522 27.8039 50.3967 26.6752C51.582 25.7433 53.171 25.259 55.1621 25.259C59.0354 25.259 61.5774 27.2105 61.5774 30.2043C61.5774 32.3215 60.334 33.8736 58.1389 34.4103C58.9192 34.5817 59.2067 34.6936 59.6117 34.9201C61.0562 35.6551 61.8082 36.9821 61.8082 38.6772C61.8082 41.8976 59.2067 43.9029 55.1055 43.9029C50.6275 43.9029 48.0558 41.6158 48.0558 37.5457H52.0437C52.0437 37.744 52.0154 37.8856 52.0154 37.9989ZM71.7767 37.4353L70.4752 37.6321C68.0507 38.0003 67.0948 38.5356 67.0948 39.5808C67.0948 40.5423 67.9629 41.1924 69.2049 41.1924C71.1989 41.1924 72.2383 39.9192 72.2964 37.3503L71.7767 37.4353ZM69.9272 29.499C71.9509 29.499 73.5667 30.0358 74.609 31.0809C75.6202 32.068 75.9671 33.1698 75.9671 35.5985C75.9374 35.7968 75.9374 36.4439 75.9076 37.5755V38.8472C75.9076 40.9913 76.0252 42.4046 76.2844 43.5347H73.0187C72.8742 42.7714 72.8742 42.5179 72.8742 42.0109V41.4445C71.8631 43.1382 70.4483 43.8449 68.164 43.8449C65.19 43.8449 63.1083 42.1497 63.1083 39.7196C63.1083 38.7056 63.5133 37.7454 64.1789 37.0671C64.9861 36.2471 65.9987 35.8237 67.9049 35.4569C69.3777 35.202 70.9666 34.9768 72.2964 34.8904C72.2964 32.9701 71.6039 32.1544 69.9852 32.1544C68.4557 32.1544 67.674 32.8327 67.5848 34.1597H63.6294C63.8319 31.2508 66.17 29.499 69.9272 29.499ZM82.2068 31.5879C83.2151 30.2609 84.5746 29.5826 86.2797 29.5826C88.302 29.5826 90.0354 30.6291 90.6415 32.2365C90.9899 33.0834 91.0465 33.7631 91.0465 35.7953V43.5347H87.2045V35.5418C87.2045 33.3369 86.5672 32.4659 84.9811 32.4659C83.2151 32.4659 82.4093 33.7362 82.4093 36.4737V43.5347H78.5644V29.8941H82.2068V31.5879ZM99.6257 40.7675C101.389 40.7675 102.574 39.1573 102.574 36.6989C102.546 34.1851 101.475 32.6883 99.6852 32.6883C97.8923 32.6883 96.7665 34.2701 96.7665 36.7286C96.7665 39.1007 97.949 40.7675 99.6257 40.7675ZM106.358 43.5347H102.717V41.7263C101.822 43.1396 100.436 43.8449 98.6443 43.8449C95.2625 43.8449 92.8946 40.9375 92.8946 36.7569C92.8946 32.4914 95.1478 29.5826 98.4715 29.5826C100.349 29.5826 101.591 30.2057 102.516 31.6148V24.7251H106.358V43.5347ZM131.031 43.5347H127.19V28.3972L122.48 43.5347H118.289L113.523 28.3972V43.5347H109.681V24.7265H116.123L120.543 38.9605L124.878 24.7265H131.031V43.5347ZM143.453 35.1453C143.397 33.4799 142.24 32.3526 140.536 32.3526C138.861 32.3526 137.817 33.3085 137.503 35.1453H143.453ZM140.679 43.8449C136.347 43.8449 133.573 41.0479 133.573 36.6436C133.573 32.4093 136.377 29.584 140.563 29.584C144.783 29.584 147.44 32.4093 147.44 36.9821C147.44 37.2087 147.412 37.3786 147.412 37.8601H137.532C137.619 39.8357 138.803 40.9644 140.766 40.9644C142.066 40.9644 142.932 40.4291 143.309 39.3556H147.412C146.517 42.2913 144.147 43.8449 140.679 43.8449Z" fill="#9C9EA1"/>
<path fill-rule="evenodd" clip-rule="evenodd" d="M152.759 31.6629C152.567 31.6016 152.366 31.5743 152.164 31.5822H151.926V32.7123H152.326C152.523 32.7237 152.719 32.6743 152.888 32.5707C152.959 32.5163 153.014 32.4449 153.05 32.3632C153.086 32.2815 153.1 32.1921 153.092 32.1034C153.094 32.0034 153.062 31.9058 153.002 31.8261C152.941 31.7465 152.856 31.6881 152.759 31.6629ZM150.89 34.804V30.8911H152.787C153.057 30.9081 153.317 30.9761 153.559 31.0951C153.727 31.1841 153.866 31.3196 153.958 31.4854C154.051 31.6512 154.094 31.8402 154.082 32.0297C154.09 32.1554 154.07 32.2813 154.023 32.3981C153.976 32.515 153.904 32.62 153.811 32.7052C153.615 32.8571 153.379 32.9486 153.132 32.9687C153.331 33.0008 153.522 33.0773 153.688 33.1924C153.811 33.3017 153.906 33.4384 153.967 33.5914C154.027 33.7445 154.05 33.9095 154.035 34.0733V34.4245C154.032 34.4627 154.032 34.501 154.035 34.5392C154.028 34.5752 154.028 34.6122 154.035 34.6482V34.7615H153.051C153.018 34.5833 152.997 34.403 152.99 34.222C152.99 34.0591 152.97 33.8977 152.929 33.7405C152.904 33.6746 152.866 33.615 152.815 33.566C152.765 33.517 152.704 33.4799 152.637 33.4572C152.527 33.4166 152.41 33.3959 152.292 33.3963H151.926V34.7502L150.89 34.804ZM150.366 30.7962C150.083 31.0555 149.855 31.3678 149.694 31.7155C149.532 32.0632 149.441 32.4392 149.425 32.8222C149.409 33.2052 149.469 33.5875 149.602 33.9473C149.734 34.307 149.936 34.6372 150.196 34.9187C150.47 35.2157 150.802 35.4527 151.172 35.6148C151.542 35.7768 151.942 35.8605 152.346 35.8605C152.75 35.8605 153.149 35.7768 153.519 35.6148C153.889 35.4527 154.221 35.2157 154.495 34.9187C154.77 34.648 154.988 34.3243 155.135 33.9673C155.282 33.6102 155.354 33.2272 155.349 32.8412C155.351 32.4632 155.276 32.0888 155.13 31.74C154.985 31.3913 154.771 31.0752 154.501 30.8104C153.973 30.2631 153.25 29.9473 152.49 29.9322C151.73 29.917 150.995 30.2038 150.447 30.7297L150.366 30.8104V30.7962ZM154.916 35.3719C153.528 36.7399 151.291 36.7258 149.92 35.3407C149.263 34.6754 148.896 33.7764 148.901 32.8412C148.88 31.864 149.284 30.9265 150.006 30.2694C150.662 29.6445 151.536 29.2996 152.442 29.3078C153.149 29.3045 153.842 29.5132 154.43 29.907C155.017 30.3007 155.474 30.8615 155.74 31.517C156.006 32.1726 156.07 32.8928 155.923 33.5849C155.776 34.277 155.425 34.9093 154.916 35.4002V35.3719Z" fill="#9C9EA1"/>
</svg>
