<svg width="160" height="56" viewBox="0 0 160 56" fill="none" xmlns="http://www.w3.org/2000/svg">
<path fill-rule="evenodd" clip-rule="evenodd" d="M99.8732 27.9618C99.8732 24.7743 102.09 22.814 104.798 22.814C111.354 22.814 111.354 33.1388 104.798 33.1388C102.09 33.1388 99.8732 31.1834 99.8732 27.9618ZM109.72 33.2347L109.876 35.7594H112.89V20.1972H109.814L109.72 22.6591C108.768 20.8891 106.707 19.8493 104.551 19.8493C100.188 19.8493 96.7026 22.7532 96.7026 27.9618C96.7026 33.2646 100.058 36.2005 104.489 36.1707C106.371 36.1707 108.709 35.2223 109.72 33.2347ZM123.291 22.9129C124.495 22.9129 125.756 23.3533 126.708 24.2999L128.745 22.1205C127.108 20.4793 125.356 19.8172 123.264 19.8172C118.865 19.8172 115.268 22.6251 115.268 27.9928C115.268 33.3613 118.895 36.1707 123.264 36.1707C125.447 36.1707 127.327 35.4425 129.016 33.7409L126.86 31.5599C125.878 32.5998 124.557 33.0126 123.264 33.0126C120.65 33.0126 118.437 31.2767 118.437 27.9928C118.437 24.9012 120.557 22.9129 123.291 22.9129ZM69.6723 33.3613C67.8899 33.3254 65.7643 32.6648 64.3537 31.0587L62.696 33.3613C64.6924 35.6661 67.1492 36.2315 69.6141 36.2315C73.5475 36.2315 76.0485 34.213 76.0787 31.3099C76.1019 27.2978 72.4475 26.6667 69.6454 26.4155C67.7098 26.2259 66.3853 25.7205 66.3552 24.4264C66.3552 23.1936 67.6447 22.5307 69.5828 22.5639C71.0907 22.5639 72.3839 22.8801 73.5836 24.0155L75.366 21.8678C73.6778 20.3199 71.8681 19.7896 69.5236 19.7896C66.6957 19.7896 63.2114 21.0795 63.2114 24.5224C63.2431 27.9618 66.5377 28.9084 69.3944 29.1955C71.6476 29.4138 72.9405 29.9516 72.9092 31.3409C72.8779 32.7924 71.186 33.3613 69.6723 33.3613ZM86.5966 23.0361C89.4867 23.0361 91.3903 25.0606 91.3903 27.9928C91.3903 30.8993 89.3619 32.948 86.5966 32.948C83.8258 32.948 81.8236 30.7751 81.8236 27.9928C81.8236 25.2121 83.6675 23.0361 86.5966 23.0361ZM55.7649 7.24913C54.7776 7.24913 53.9771 8.05513 53.9771 9.04009V18.7112L47.0531 26.5737V13.691H43.8531V35.7594H47.0531V28.562L53.9771 36.2393V46.9582C53.9771 47.9483 54.7726 48.7508 55.765 48.7508H81.5493V33.4855C82.6887 35.4141 85.056 36.1054 86.901 36.1054C91.61 36.1054 94.5657 32.6969 94.5657 27.9928C94.5657 23.2899 91.4227 19.9116 86.901 19.8803C84.8723 19.8803 82.7199 20.8268 81.5493 22.7207L81.3608 20.1972H78.3787V45.4372L57.766 45.4294C57.4406 45.4293 57.1768 45.1717 57.1768 44.8392V35.0111L50.3302 27.5199L57.1768 19.9018V11.1308C57.1768 10.7992 57.4504 10.5303 57.7734 10.5303H151.948C152.277 10.5303 152.544 10.7912 152.544 11.1361V44.8235C152.544 45.158 152.271 45.4293 151.937 45.4293L84.7151 45.4409V48.7263L153.949 48.7502C154.939 48.7506 155.741 47.9404 155.741 46.9676V9.03241C155.741 8.04753 154.936 7.24913 153.953 7.24913H55.7649ZM133.341 26.4457C133.835 23.9819 135.74 22.6882 138.051 22.6882C140.606 22.6882 142.357 23.9819 142.542 26.4457H133.341ZM137.954 19.79C133.22 19.79 129.988 23.1641 129.988 27.898C129.988 32.8865 133.189 36.1363 138.172 36.1363C140.511 36.1363 143.126 35.2521 144.696 33.4855L142.63 31.4361C141.71 32.5088 139.775 33.1067 138.235 33.1067C135.462 33.1067 133.557 31.5599 133.279 29.1955H145.585C146.168 22.8449 142.846 19.79 137.954 19.79ZM24.9656 33.1388C22.2625 33.1388 20.0486 31.1834 20.0486 27.9618C20.0486 24.7739 22.2625 22.814 24.9656 22.814C31.5244 22.814 31.5244 33.1388 24.9656 33.1388ZM29.8907 22.6591C28.942 20.8891 26.8783 19.8493 24.7274 19.8493C20.3545 19.8493 16.8791 22.7532 16.8791 27.9618C16.8791 33.2646 20.229 36.2005 24.66 36.1707C26.5375 36.1707 28.8758 35.2223 29.8907 33.2347L30.0467 35.7594H33.0602V20.1972H29.9875L29.8907 22.6591ZM12.5344 33.0126C11.0611 33.0126 10.3514 32.0955 10.3514 30.4574V23.0357H14.8167V20.2293H10.3878V13.691H7.18631V20.2293H4.25939V23.0357H7.18631V30.4574C7.18631 34.1152 9.06114 36.0438 12.354 35.9494C13.4259 35.9494 14.3595 35.728 15.4013 35.2521L14.4758 32.4755C13.8607 32.792 13.1528 33.0126 12.5344 33.0126ZM36.8752 35.7594H40.0458V13.691H36.8752V35.7594Z" fill="#00585F"/>
<path fill-rule="evenodd" clip-rule="evenodd" d="M53.7177 9.04009C53.7177 7.91269 54.6335 6.98975 55.7649 6.98975H153.953C155.079 6.98975 156 7.90329 156 9.03241V46.9676C156 48.0837 155.082 49.01 153.949 49.0096L84.4558 48.9856V45.1816L151.937 45.1699C152.129 45.1699 152.285 45.0138 152.285 44.8235V11.1361C152.285 10.9336 152.133 10.7897 151.948 10.7897H57.7734C57.5934 10.7897 57.4362 10.9427 57.4362 11.1308V20.0012L50.6802 27.5184L57.4362 34.9104V44.8392C57.4362 45.0269 57.5823 45.17 57.7661 45.1701L78.1193 45.1777V19.9378H81.6016L81.7544 21.9838C83.032 20.4028 85.0235 19.6209 86.901 19.6209H86.9028C89.2306 19.637 91.2157 20.5162 92.6179 22.007C94.0191 23.4968 94.8251 25.583 94.8251 27.9928C94.8251 30.3988 94.0687 32.4932 92.69 33.9889C91.3091 35.4869 89.3216 36.3647 86.901 36.3647C85.2388 36.3647 83.1158 35.818 81.8087 34.292V49.0102H55.765C54.6282 49.0102 53.7177 48.0904 53.7177 46.9582V36.339L47.3125 29.2369V36.0188H43.5937V13.4317H47.3125V25.8867L53.7177 18.6133V9.04009ZM55.7649 7.50852C54.9216 7.50852 54.2365 8.19756 54.2365 9.04009V18.8092L46.7938 27.2608V13.9504H44.1125V35.5H46.7938V27.8871L54.2365 36.1396V46.9582C54.2365 47.8061 54.9169 48.4915 55.765 48.4915H81.2899V32.5365L81.7727 33.3536C82.8447 35.1683 85.0982 35.846 86.901 35.846C89.1895 35.846 91.0343 35.0196 92.3085 33.6373C93.5849 32.2527 94.3063 30.2909 94.3063 27.9928C94.3063 25.6997 93.5407 23.7453 92.24 22.3624C90.9405 20.9807 89.0936 20.1551 86.9001 20.1397C84.9447 20.1399 82.8849 21.0533 81.77 22.8571L81.3501 23.5363L81.1201 20.4566H78.6381V45.6966L57.7659 45.6888C57.2989 45.6887 56.9174 45.3165 56.9174 44.8392V35.1118L49.9801 27.5214L56.9174 19.8024V11.1308C56.9174 10.6557 57.3074 10.2709 57.7734 10.2709H151.948C152.421 10.2709 152.804 10.6488 152.804 11.1361V44.8235C152.804 45.3022 152.413 45.6886 151.937 45.6887L84.9745 45.7003V48.467L153.949 48.4908C154.795 48.4911 155.481 47.7972 155.481 46.9676V9.03241C155.481 8.19178 154.794 7.50852 153.953 7.50852H55.7649ZM6.92692 13.4317H10.6472V19.9699H15.0761V23.2951H10.6108V30.4574C10.6108 31.2446 10.7821 31.814 11.0897 32.1833C11.3902 32.544 11.8542 32.7532 12.5344 32.7532C13.0982 32.7532 13.7647 32.5497 14.3571 32.2449L14.6262 32.1064L15.7211 35.3912L15.5091 35.488C14.4388 35.977 13.4696 36.2082 12.3577 36.2087C10.6606 36.2567 9.29061 35.7831 8.34719 34.789C7.40625 33.7976 6.92692 32.3274 6.92692 30.4574V23.2951H4V19.9699H6.92692V13.4317ZM7.44569 13.9504V20.4887H4.51877V22.7763H7.44569V30.4574C7.44569 32.2452 7.90379 33.5682 8.72347 34.4319C9.53998 35.2922 10.7525 35.7358 12.3465 35.6901L12.354 35.6899C13.3117 35.6899 14.154 35.5073 15.0806 35.1104L14.323 32.8372C13.7502 33.0957 13.114 33.272 12.5344 33.272C11.7413 33.272 11.1138 33.0227 10.6911 32.5153C10.2756 32.0165 10.092 31.3083 10.092 30.4574V22.7763H14.5573V20.4887H10.1285V13.9504H7.44569ZM36.6158 13.4317H40.3052V36.0188H36.6158V13.4317ZM37.1346 13.9504V35.5H39.7864V13.9504H37.1346ZM65.1712 20.644C66.4477 19.8592 68.0766 19.5302 69.5236 19.5302C71.9164 19.5302 73.7943 20.0748 75.5413 21.6766L75.7233 21.8435L73.6064 24.3942L73.4053 24.2039C72.268 23.1275 71.0469 22.8233 69.5828 22.8233H69.5784C68.634 22.8071 67.8783 22.9619 67.3688 23.2468C66.8722 23.5244 66.6156 23.9183 66.6145 24.4234C66.628 24.9567 66.8968 25.33 67.4091 25.6069C67.9388 25.8933 68.711 26.0632 69.6696 26.1572C71.0701 26.2828 72.7333 26.5057 74.0462 27.2249C74.7077 27.5872 75.2873 28.079 75.6987 28.7527C76.1105 29.427 76.3441 30.2675 76.3381 31.3114L76.3381 31.3126C76.3221 32.8451 75.651 34.1494 74.4689 35.0645C73.2918 35.9756 71.6228 36.4909 69.6141 36.4909C67.1058 36.4909 64.5631 35.9131 62.5 33.5311L62.3657 33.3761L64.3336 30.6427L64.5486 30.8875C65.8973 32.4231 67.9432 33.0664 69.6749 33.1019C70.4044 33.1016 71.1594 32.9634 71.726 32.6658C72.2861 32.3715 72.6368 31.9392 72.6498 31.3353C72.6567 31.0304 72.5913 30.7864 72.4686 30.5853C72.3451 30.3828 72.1533 30.207 71.8821 30.0556C71.3307 29.7479 70.49 29.5622 69.3693 29.4536C67.9302 29.309 66.3455 28.996 65.1112 28.2642C63.8601 27.5223 62.9688 26.3479 62.952 24.5248L62.952 24.5224C62.952 22.6955 63.8839 21.4354 65.1712 20.644ZM63.4708 24.5213C63.4861 26.1368 64.2579 27.1551 65.3758 27.8179C66.5108 28.4909 68.0025 28.7949 69.4198 28.9373C70.5522 29.0471 71.4844 29.2395 72.1349 29.6026C72.4646 29.7866 72.731 30.0193 72.9115 30.3152C73.0929 30.6125 73.1773 30.957 73.1685 31.3467C73.1685 31.3466 73.1685 31.3468 73.1685 31.3467C73.1501 32.1942 72.6393 32.772 71.9673 33.125C71.3023 33.4744 70.4557 33.6206 69.6723 33.6206H69.6671C67.9237 33.5856 65.8444 32.9701 64.3789 31.4676L64.5642 31.2103L64.3537 31.0587L64.1588 31.2299C64.2305 31.3115 64.3039 31.3907 64.3789 31.4676L63.0277 33.3445C62.9823 33.2944 62.9371 33.2434 62.8921 33.1914L62.696 33.3613L62.9066 33.5128L63.0277 33.3445C64.9321 35.4445 67.2491 35.9721 69.6141 35.9721C71.5388 35.9721 73.087 35.4782 74.1513 34.6543C75.2106 33.8343 75.805 32.6779 75.8193 31.3074C75.8247 30.3457 75.6102 29.6031 75.256 29.0231C74.9011 28.4421 74.3963 28.0082 73.7969 27.6798C72.5883 27.0178 71.0237 26.7994 69.6223 26.6738L69.6201 26.6736C68.6437 26.578 67.7862 26.4005 67.1624 26.0633C66.522 25.7171 66.1136 25.1917 66.0958 24.4325L66.0957 24.4264C66.0957 23.7001 66.4839 23.1472 67.1156 22.794C67.7349 22.4478 68.5922 22.2878 69.585 22.3045C69.5843 22.3045 69.5836 22.3045 69.5828 22.3045V22.5639L69.5873 22.3046C69.5865 22.3046 69.5858 22.3046 69.585 22.3045C71.0521 22.3048 72.3527 22.5987 73.5569 23.6414L73.384 23.8498L73.5836 24.0155L73.7619 23.8271C73.6938 23.7627 73.6255 23.7009 73.5569 23.6414L75.0066 21.8947C75.0681 21.9481 75.1295 22.0029 75.1907 22.059L75.366 21.8678L75.1664 21.7021L75.0066 21.8947C73.4297 20.527 71.7336 20.049 69.5236 20.049C68.1426 20.049 66.6155 20.365 65.4429 21.0859C64.2814 21.8 63.4712 22.9058 63.4708 24.5213ZM132.01 21.8877C133.463 20.3982 135.523 19.5306 137.954 19.5306C140.453 19.5306 142.587 20.3121 144.018 21.94C145.448 23.5671 146.139 25.9975 145.843 29.2192L145.821 29.4548H133.58C133.76 30.4408 134.251 31.2529 134.983 31.8348C135.787 32.4743 136.896 32.8473 138.235 32.8473C138.974 32.8473 139.813 32.7033 140.577 32.4294C141.345 32.1545 142.013 31.7572 142.433 31.2672L142.615 31.0555L145.053 33.4743L144.89 33.6579C143.258 35.4939 140.564 36.3957 138.172 36.3957C135.623 36.3957 133.507 35.5632 132.027 34.0704C130.548 32.5779 129.729 30.4486 129.729 27.898C129.729 25.471 130.558 23.3766 132.01 21.8877ZM132.381 22.2499C131.034 23.6315 130.247 25.5911 130.247 27.898C130.247 30.3359 131.029 32.3258 132.396 33.7052C133.763 35.0845 135.738 35.8769 138.172 35.8769C140.376 35.8769 142.811 35.0715 144.336 33.4931L142.637 31.808C142.145 32.2904 141.47 32.6606 140.753 32.9178C139.934 33.2111 139.036 33.3661 138.235 33.3661C136.801 33.3661 135.571 32.9657 134.66 32.2407C133.746 31.5141 133.168 30.4731 133.021 29.2257L132.987 28.9361H145.346C145.579 25.9285 144.903 23.7329 143.628 22.2825C142.321 20.7954 140.347 20.0494 137.954 20.0494C135.651 20.0494 133.728 20.8689 132.381 22.2499ZM117.438 21.7038C118.944 20.2776 121.01 19.5578 123.264 19.5578C125.423 19.5578 127.242 20.2462 128.929 21.9373L129.106 22.1146L126.715 24.6724L126.525 24.4839C125.626 23.5905 124.434 23.1723 123.291 23.1723C121.988 23.1723 120.843 23.6451 120.023 24.4757C119.204 25.3059 118.696 26.5081 118.696 27.9928C118.696 29.5736 119.227 30.7577 120.05 31.547C120.875 32.3386 122.014 32.7532 123.264 32.7532C124.503 32.7532 125.749 32.3583 126.671 31.3819L126.855 31.1867L129.381 33.7412L129.2 33.9236C127.462 35.6749 125.515 36.4301 123.264 36.4301C121.025 36.4301 118.958 35.7097 117.45 34.2834C115.938 32.8546 115.009 30.7385 115.009 27.9928C115.009 25.2481 115.93 23.1325 117.438 21.7038ZM117.795 22.0804C116.405 23.3977 115.528 25.3698 115.528 27.9928C115.528 30.6156 116.412 32.5884 117.806 33.9064C119.203 35.227 121.134 35.9113 123.264 35.9113C125.3 35.9113 127.057 35.2612 128.649 33.7382L126.859 31.9278C125.841 32.891 124.531 33.272 123.264 33.272C121.9 33.272 120.626 32.8187 119.69 31.9213C118.753 31.0217 118.177 29.6959 118.177 27.9928C118.177 26.3859 118.729 25.0482 119.654 24.1113C120.578 23.1749 121.86 22.6535 123.291 22.6535C124.476 22.6535 125.717 23.0596 126.696 23.9327L128.383 22.1286C126.847 20.6656 125.213 20.0766 123.264 20.0766C121.119 20.0766 119.188 20.7607 117.795 22.0804ZM18.9825 21.7664C20.4532 20.3356 22.4835 19.5899 24.7274 19.5899C26.6589 19.5899 28.5435 20.3999 29.6634 21.8371L29.7381 19.9378H33.3196V36.0188H29.8029L29.6817 34.0576C28.4721 35.6719 26.3712 36.4298 24.6609 36.4301C22.3874 36.4452 20.372 35.6987 18.9244 34.2493C17.4761 32.7991 16.6197 30.6691 16.6197 27.9618C16.6197 25.2974 17.5102 23.1988 18.9825 21.7664ZM19.3443 22.1382C17.9857 23.4599 17.1385 25.4176 17.1385 27.9618C17.1385 30.5573 17.9571 32.5466 19.2914 33.8827C20.6264 35.2193 22.5011 35.9258 24.6583 35.9113L24.66 35.9113C26.4723 35.9113 28.7021 34.992 29.6597 33.1168L30.091 32.272L30.2906 35.5H32.8008V20.4566H30.2369L30.1124 23.6219L29.662 22.7816C28.7677 21.1129 26.8037 20.1087 24.7274 20.1087C22.5984 20.1087 20.7045 20.8149 19.3443 22.1382ZM98.8097 21.7663C100.281 20.3357 102.312 19.5899 104.551 19.5899C106.488 19.5899 108.37 20.4002 109.492 21.8374L109.565 19.9378H113.149V36.0188H109.632L109.511 34.0593C108.304 35.6726 106.203 36.4298 104.49 36.4301C102.216 36.4452 100.2 35.6987 98.7508 34.2494C97.301 32.7993 96.4432 30.6692 96.4432 27.9618C96.4432 25.2972 97.3362 23.1986 98.8097 21.7663ZM99.1713 22.1383C97.8115 23.4601 96.962 25.4178 96.962 27.9618C96.962 30.5572 97.7819 32.5465 99.1176 33.8826C100.454 35.2193 102.33 35.9258 104.487 35.9113L104.489 35.9113C106.306 35.9113 108.535 34.9919 109.489 33.1171L109.92 32.2687L110.12 35.5H112.63V20.4566H110.064L109.943 23.6206L109.492 22.782C108.594 21.1129 106.633 20.1087 104.551 20.1087C102.427 20.1087 100.533 20.8148 99.1713 22.1383ZM133.667 26.1863H142.254C142.119 25.1555 141.681 24.3781 141.022 23.8446C140.3 23.2604 139.287 22.9476 138.051 22.9476C136.944 22.9476 135.947 23.2573 135.172 23.8492C134.468 24.3864 133.935 25.1654 133.667 26.1863ZM134.857 23.4369C135.736 22.766 136.847 22.4288 138.051 22.4288C139.37 22.4288 140.51 22.7628 141.348 23.4414C142.191 24.1236 142.703 25.1329 142.8 26.4263L142.821 26.7051H133.025L133.087 26.3947C133.345 25.1056 133.977 24.1092 134.857 23.4369ZM21.6765 24.3762C20.8385 25.2115 20.308 26.4303 20.308 27.9618C20.308 29.5109 20.8389 30.7369 21.6769 31.575C22.5159 32.4142 23.6774 32.8794 24.9656 32.8794C26.5304 32.8794 27.6873 32.2666 28.457 31.3579C29.2315 30.4435 29.6253 29.215 29.6253 27.9764C29.6253 26.7378 29.2315 25.5093 28.457 24.5949C27.6873 23.6861 26.5304 23.0734 24.9656 23.0734C23.6775 23.0734 22.5157 23.5397 21.6765 24.3762ZM21.3103 24.0087C22.2538 23.0683 23.5506 22.5546 24.9656 22.5546C26.6802 22.5546 27.9828 23.2324 28.8528 24.2596C29.7181 25.2811 30.1441 26.6338 30.1441 27.9764C30.1441 29.319 29.7181 30.6717 28.8528 31.6932C27.9828 32.7204 26.6802 33.3982 24.9656 33.3982C23.5507 33.3982 22.2537 32.8857 21.31 31.9418C20.3652 30.9968 19.7892 29.6343 19.7892 27.9618C19.7892 26.3055 20.3657 24.9503 21.3103 24.0087ZM101.503 24.3764C100.664 25.2119 100.133 26.4306 100.133 27.9618C100.133 29.5108 100.664 30.7367 101.504 31.5748C102.344 32.4141 103.508 32.8794 104.798 32.8794C106.362 32.8794 107.519 32.2666 108.288 31.3579C109.062 30.4435 109.456 29.215 109.456 27.9764C109.456 26.7377 109.062 25.5092 108.288 24.5948C107.519 23.6861 106.362 23.0734 104.798 23.0734C103.508 23.0734 102.344 23.5399 101.503 24.3764ZM101.137 24.0087C102.082 23.0683 103.381 22.5546 104.798 22.5546C106.512 22.5546 107.814 23.2324 108.684 24.2596C109.549 25.2811 109.974 26.6338 109.974 27.9764C109.974 29.3189 109.549 30.6716 108.684 31.6931C107.814 32.7203 106.512 33.3982 104.798 33.3982C103.381 33.3982 102.082 32.8858 101.137 31.9419C100.191 30.9969 99.6139 29.6344 99.6139 27.9618C99.6139 26.3056 100.191 24.9503 101.137 24.0087ZM83.3018 24.6481C82.5246 25.4859 82.0829 26.6595 82.0829 27.9928C82.0829 30.6444 83.9813 32.6887 86.5966 32.6887C89.2123 32.6887 91.1309 30.7625 91.1309 27.9928C91.1309 26.5833 90.6742 25.4118 89.8901 24.5944C89.1069 23.7781 87.9787 23.2955 86.5966 23.2955C85.2 23.2955 84.077 23.8124 83.3018 24.6481ZM82.9215 24.2953C83.8005 23.3477 85.0641 22.7767 86.5966 22.7767C88.1046 22.7767 89.3732 23.3063 90.2644 24.2353C91.1546 25.1632 91.6497 26.4701 91.6497 27.9928C91.6497 31.0361 89.5116 33.2074 86.5966 33.2074C83.6703 33.2074 81.5642 30.9057 81.5642 27.9928C81.5642 26.5454 82.0445 25.2406 82.9215 24.2953Z" fill="#00585F"/>
</svg>
