<svg width="160" height="64" viewBox="0 0 160 64" fill="none" xmlns="http://www.w3.org/2000/svg">
<path d="M26.666 29.335H17.3327V32.0003H26.666V42.6683H11.9993L6.66602 37.335V9.33365H17.3327V18.667H26.666V29.335Z" fill="white"/>
<path d="M66.6663 42.6679H34.6663L29.333 37.3346V18.6666H39.9997V31.9999H42.6663V18.6666H53.333V31.9999H55.9997V18.6666H66.6663V42.6679Z" fill="white"/>
<path d="M79.9997 18.6666H69.333V42.6666H79.9997V18.6666Z" fill="white"/>
<path d="M79.9997 9.33359H69.333V16.0003H79.9997V9.33359Z" fill="white"/>
<path d="M102.666 29.335H93.3327V32.0003H102.666V42.6683H87.9993L82.666 37.335V9.33365H93.3327V18.667H102.666V29.335Z" fill="white"/>
<path d="M126.666 29.3346H116V31.9999H126.666V42.6679H110.666L105.333 37.3346V24.0013L110.666 18.6666H126.666V29.3346Z" fill="white"/>
<path d="M153.333 42.6683H142.666V29.3349H140V42.6683H129.333V9.33359H140V18.6669H148L153.333 24.0016V42.6683Z" fill="white"/>
<path d="M149.333 16H142.667V6.66666H128.028L121.296 16H109.333L105.333 20V16H96V6.66666H66.6667V16H25.4L18.6667 6.66666H4V38.6667L22.6667 57.3333H41.3333V52L46.6667 57.3333H82.6667V52L88 57.3333H105.333V52L110.667 57.3333H144L156 45.3333V22.6667L149.333 16ZM26.6667 29.3333H17.3333V32H26.6667V42.6667H12L6.66667 37.3333V9.33332H17.3333V18.6667H26.6667V29.3333ZM66.6667 42.6667H34.6667L29.3333 37.3333V18.6667H40V32H42.6667V18.6667H53.3333V32H56V18.6667H66.6667V42.6667ZM80 42.6667H69.3333V18.6667H80V42.6667ZM80 16H69.3333V9.33332H80V16ZM102.667 29.3333H93.3333V32H102.667V42.6667H88L82.6667 37.3333V9.33332H93.3333V18.6667H102.667V29.3333ZM126.667 29.3333H116V32H126.667V42.6667H110.667L105.333 37.3333V24L110.667 18.6667H126.667V29.3333ZM153.333 42.6667H142.667V29.3333H140V42.6667H129.333V9.33332H140V18.6667H148L153.333 24V42.6667Z" fill="#9146FF"/>
</svg>
