<svg width="160" height="56" viewBox="0 0 160 56" fill="none" xmlns="http://www.w3.org/2000/svg">
<path d="M67.0667 41.529H66.9987C67.0293 41.529 67.0497 41.563 67.0803 41.5664H67.1008L67.0667 41.5324V41.529ZM67.0803 41.5664C66.7638 41.5698 65.9674 41.7366 65.1267 41.7366C62.472 41.7366 61.5531 40.5114 61.5531 38.9117V28.2554H66.9646C67.2709 28.2554 67.5092 27.9831 67.5092 27.6087V21.8228C67.5092 21.5165 67.2369 21.2442 66.9646 21.2442H61.5531V14.0628C61.5531 13.7905 61.3829 13.6204 61.0766 13.6204H53.725C53.4187 13.6204 53.2485 13.7905 53.2485 14.0628V21.4484C53.2485 21.4484 49.5387 22.3673 49.3005 22.4014C49.0282 22.4694 48.858 22.7077 48.858 22.98V27.6087C48.858 27.9831 49.1303 28.2554 49.4366 28.2554H53.2145V39.4188C53.2145 47.7234 59.0005 48.5742 62.9485 48.5742C64.7524 48.5742 66.9306 47.9956 67.2709 47.8255C67.4751 47.7574 67.5773 47.5191 67.5773 47.2809V42.1757C67.5819 42.0309 67.5343 41.8892 67.443 41.7767C67.3517 41.6642 67.223 41.5883 67.0803 41.563V41.5664ZM147.73 34.0753C147.73 27.915 145.245 27.0982 142.624 27.3705C140.582 27.5066 138.949 28.5277 138.949 28.5277V40.5079C138.949 40.5079 140.616 41.6651 143.101 41.7332C146.606 41.8353 147.73 40.576 147.73 34.0753ZM156 33.5308C156 45.2048 152.222 48.5402 145.619 48.5402C140.038 48.5402 137.043 45.7153 137.043 45.7153C137.043 45.7153 136.906 47.2809 136.736 47.4851C136.634 47.6893 136.464 47.7574 136.26 47.7574H131.223C130.882 47.7574 130.576 47.4851 130.576 47.1788L130.644 9.36599C130.644 9.05967 130.916 8.78739 131.223 8.78739H138.472C138.778 8.78739 139.051 9.05967 139.051 9.36599V22.1972C139.051 22.1972 141.841 20.3933 145.926 20.3933L145.892 20.3252C149.976 20.3252 156 21.8568 156 33.5308ZM126.322 21.2442H119.174C118.8 21.2442 118.596 21.5165 118.596 21.8908V40.4058C118.596 40.4058 116.724 41.7332 114.171 41.7332C111.618 41.7332 110.87 40.576 110.87 38.0234V21.8568C110.87 21.5505 110.597 21.2782 110.291 21.2782H103.008C102.701 21.2782 102.429 21.5505 102.429 21.8568V39.2487C102.429 46.7363 106.615 48.6083 112.367 48.6083C117.098 48.6083 120.944 45.9876 120.944 45.9876C120.944 45.9876 121.114 47.3149 121.216 47.5191C121.284 47.6893 121.523 47.8255 121.761 47.8255H126.322C126.696 47.8255 126.9 47.5532 126.9 47.2469L126.968 21.8228C126.968 21.5165 126.696 21.2442 126.322 21.2442ZM45.6588 21.2101H38.4093C38.103 21.2101 37.8307 21.5165 37.8307 21.8908V46.8725C37.8307 47.5532 38.2732 47.7914 38.8518 47.7914H45.3865C46.0672 47.7914 46.2374 47.4851 46.2374 46.8725V21.7887C46.2374 21.4824 45.9651 21.2101 45.6588 21.2101ZM42.0851 9.70634C39.4644 9.70634 37.3883 11.7825 37.3883 14.4032C37.3883 17.0238 39.4644 19.1 42.0851 19.1C44.6377 19.1 46.7138 17.0238 46.7138 14.4032C46.7138 11.7825 44.6377 9.70634 42.0851 9.70634ZM98.2087 8.85546H91.0273C90.721 8.85546 90.4487 9.12774 90.4487 9.43406V23.3543H79.1832V9.43406C79.1832 9.12774 78.9109 8.85546 78.6046 8.85546H71.3551C71.0488 8.85546 70.7765 9.12774 70.7765 9.43406V47.2469C70.7765 47.5532 71.0829 47.8255 71.3551 47.8255H78.6046C78.9109 47.8255 79.1832 47.5532 79.1832 47.2469V31.0803H90.4487L90.3807 47.2469C90.3807 47.5532 90.6529 47.8255 90.9593 47.8255H98.2087C98.515 47.8255 98.7873 47.5532 98.7873 47.2469V9.43406C98.7873 9.12774 98.515 8.85546 98.2087 8.85546ZM33.9848 25.6007V45.1367C33.9848 45.2728 33.9507 45.5111 33.7806 45.5792C33.7806 45.5792 29.5262 48.6083 22.515 48.6083C14.0403 48.6083 4 45.9535 4 28.4596C4 10.9656 12.781 7.35793 21.3578 7.39196C28.7774 7.39196 31.7725 9.05967 32.249 9.36599C32.3851 9.53616 32.4532 9.6723 32.4532 9.84248L31.0237 15.9007C31.0237 16.207 30.7174 16.5814 30.343 16.4793C29.1178 16.1049 27.2799 15.3561 22.9575 15.3561C17.9543 15.3561 12.5768 16.7856 12.5768 28.0512C12.5768 39.3167 17.682 40.6441 21.3578 40.6441C24.489 40.6441 25.6122 40.2697 25.6122 40.2697V32.4417H20.609C20.2347 32.4417 19.9624 32.1694 19.9624 31.8631V25.6007C19.9624 25.2943 20.2347 25.0221 20.609 25.0221H33.3381C33.7125 25.0221 33.9848 25.2943 33.9848 25.6007Z" fill="#24292E"/>
</svg>
