<svg width="184" height="48" viewBox="0 0 184 48" fill="none" xmlns="http://www.w3.org/2000/svg">
<path fill-rule="evenodd" clip-rule="evenodd" d="M107.551 4L142.488 41.0066C142.488 41.0066 143.678 41.8461 144.588 40.8666C145.498 39.8874 144.798 38.9082 144.798 38.9082L107.551 4ZM118.613 7.49772L145.218 36.1796C145.218 36.1796 146.409 37.0191 147.319 36.0396C148.229 35.0604 147.529 34.0812 147.529 34.0812L118.613 7.49772ZM110.841 14.9829L137.447 43.6652C137.447 43.6652 138.637 44.5047 139.547 43.5251C140.457 42.5456 139.757 41.5664 139.757 41.5664L110.841 14.9829ZM127.965 10.506L146.552 30.5444C146.552 30.5444 147.384 31.1305 148.02 30.4467C148.656 29.7622 148.166 29.078 148.166 29.078L127.965 10.506ZM113.402 23.6574L131.989 43.6961C131.989 43.6961 132.821 44.2822 133.457 43.5984C134.093 42.9139 133.603 42.2297 133.603 42.2297L113.402 23.6577V23.6574ZM137.517 14.8432L145.941 23.9527C145.941 23.9527 146.353 24.2276 146.667 23.9071C146.982 23.5864 146.74 23.2656 146.74 23.2656L137.517 14.8432H137.517ZM118.053 32.8919L126.477 42.0014C126.477 42.0014 126.889 42.2763 127.203 41.9559C127.518 41.6351 127.276 41.3143 127.276 41.3143L118.053 32.8919Z" fill="#DF4F4F"/>
<path fill-rule="evenodd" clip-rule="evenodd" d="M153.927 18.9844V43.5485H159.485V35.625H163.653L169.012 43.5485H175.363L169.409 35.0307C169.409 35.0307 174.697 32.9407 174.697 27.272C174.697 19.269 167.424 18.985 167.424 18.985L153.927 18.9844ZM159.485 23.7394V30.871H166.63C166.63 30.871 169.361 30.8703 169.361 27.3045C169.361 23.6036 166.035 23.7394 166.035 23.7394H159.485ZM92.3961 18.985V43.5485H111.054V38.7942H97.9538V33.6445H109.268V28.8901H97.9538V23.7355H111.054V18.985H92.3964H92.3961ZM65.402 18.985V23.7394H72.7459V43.5485H78.3036V23.7394H85.6475V18.985H65.402ZM39.9957 18.985V43.5485H58.6534V38.7942H45.5531V33.6445H56.8669V28.8901H45.5531V23.7355H58.6534V18.985H39.9957ZM8.63477 18.9844V43.5492L14.1886 43.5489V28.0968L20.9372 38.0015L27.6894 28.0968V43.5492H33.2471V18.9844H27.6894L20.9375 29.0871L14.1886 18.9844H8.63477Z" fill="#26262C"/>
</svg>
