<svg width="160" height="160" viewBox="0 0 160 160" fill="none" xmlns="http://www.w3.org/2000/svg">
<path fill-rule="evenodd" clip-rule="evenodd" d="M84.6766 75.9313C73.6809 76.3595 61.8298 74.2894 51.835 69.2912L53.9052 66.0073C63.6147 70.5765 74.7526 72.1478 84.6766 71.7188C84.6766 72.0755 85.1031 65.0072 85.7458 61.1521H70.8252C72.1812 45.588 76.9649 31.7374 84.1046 19.9578H39.4834V87.9255H86.3884C85.3176 83.8551 84.6766 75.7883 84.6766 75.9313Z" fill="#D0E9FB"/>
<path fill-rule="evenodd" clip-rule="evenodd" d="M89.1734 71.4328C97.3125 70.6472 104.451 68.5056 108.807 65.7213L111.378 69.0052C105.379 72.5044 97.5977 74.7882 89.1734 75.6454C89.3879 79.8579 90.0306 83.8551 91.1014 87.9255H123.228V19.9578H89.0304C81.7485 31.0956 77.6074 43.5179 76.037 56.6544H91.3873C90.1012 61.6518 89.3164 66.5784 89.1734 71.4328ZM59.7588 30.2385H64.1143V40.3055H59.7588V30.2385Z" fill="#00ACEC"/>
<path fill-rule="evenodd" clip-rule="evenodd" d="M84.6765 71.7188V75.9313C73.6809 76.3595 61.8297 74.2894 51.835 69.2912L53.9051 66.0073C63.6138 70.5765 74.7517 72.1469 84.6765 71.7188Z" fill="#00ACEC"/>
<path fill-rule="evenodd" clip-rule="evenodd" d="M96.0265 30.2385H100.383V40.3055H96.0265V30.2385Z" fill="black"/>
<path fill-rule="evenodd" clip-rule="evenodd" d="M89.1735 71.4328C97.3126 70.6472 104.452 68.5056 108.807 65.7213L111.378 69.0052C105.379 72.5045 97.5978 74.7882 89.1735 75.6454C89.5302 83.2125 91.3874 90.709 95.0987 97.9202L91.3874 99.918C84.6051 89.21 83.3913 74.7882 85.7466 61.1521H70.8252C72.6816 39.9481 80.8199 21.9564 92.6719 7.96362L95.8835 10.7479C84.3191 24.1703 77.965 39.8059 76.037 56.6544H91.3874C90.1013 61.6518 89.3165 66.5785 89.1735 71.4328Z" fill="black"/>
<path fill-rule="evenodd" clip-rule="evenodd" d="M14.4952 110.771C12.4966 110.914 11.4973 110.985 10.212 110.985C9.42634 110.985 8.6407 110.985 7.71288 110.914H6.28541C5.57127 110.914 5.21461 111.2 5.21461 111.913C5.21461 112.556 5.57127 112.912 6.42841 112.984L7.92737 113.127C10.355 113.341 10.5686 113.555 10.5686 115.626C10.5686 115.912 10.498 116.625 10.498 117.411L9.14117 141.47C8.85519 146.324 8.7845 146.752 8.35553 147.324C8.14104 147.68 7.49921 148.038 6.49909 148.181L5.57127 148.324C4.21449 148.61 4 148.823 4 149.609C4 150.18 4.35666 150.538 4.92863 150.538H5.28529L6.14242 150.466C7.21323 150.395 8.85519 150.323 10.069 150.323C11.2828 150.323 13.7811 150.395 14.4952 150.466L15.4945 150.538L15.8512 150.609C16.4223 150.681 16.922 150.181 16.922 149.538C16.922 148.824 16.5653 148.539 15.7082 148.396L14.5659 148.253C11.9246 147.967 11.6386 147.539 11.6386 144.682C11.6386 143.755 11.6386 142.47 11.7101 141.614L12.495 118.197L22.7042 149.039C22.9901 149.896 23.1323 150.038 23.4898 150.038C23.918 150.038 23.9895 149.895 24.3469 148.967L34.8413 118.267L34.9843 141.971V144.256C34.9843 147.324 34.6983 147.896 32.7712 148.182L31.8426 148.325C30.8433 148.468 30.4866 148.753 30.4866 149.538C30.4866 150.181 30.8433 150.467 31.5574 150.538H31.8434L32.629 150.395C33.5577 150.323 36.2696 150.18 37.5549 150.18C38.6972 150.18 39.4113 150.18 40.3392 150.323C41.267 150.395 41.9811 150.395 42.1956 150.395H43.0527C43.7661 150.395 44.1235 150.109 44.1235 149.395C44.1235 148.753 43.7669 148.467 42.6246 148.325L41.6253 148.182C40.1263 148.039 39.6266 147.539 39.4122 146.54C39.2692 145.541 39.2692 144.327 39.1977 140.043L39.0547 119.339L38.9832 116.412C38.9832 113.556 39.1262 113.342 41.41 113.056L42.7667 112.913C43.7661 112.77 44.052 112.485 44.052 111.771C44.052 111.128 43.8376 110.914 42.9812 110.842H42.7667L41.9096 110.914C40.8388 110.914 39.9817 110.985 38.9824 110.985C37.9116 110.985 36.9829 110.914 35.1265 110.842L24.6321 141.328L14.4952 110.771ZM92.53 120.052V115.983H91.7443L90.745 119.41H90.6735L89.6027 115.983H88.8171V120.052H89.3167V117.698V116.698L90.459 120.053H90.8872L92.0295 116.627V120.052H92.53ZM54.0484 147.039C55.1907 146.54 56.4045 145.613 57.2616 144.613C57.8328 143.756 58.0464 143.185 58.0464 142.114L58.1894 135.689C56.1908 136.688 55.0477 137.33 54.0484 138.044C53.6917 138.258 53.4057 138.543 53.1206 138.758C50.9781 140.543 49.9073 142.542 49.9073 144.399C49.9073 146.254 50.9067 147.467 52.3349 147.467C52.8346 147.467 53.4057 147.324 54.0484 147.039ZM54.0484 135.617C55.2622 134.903 56.6897 134.189 58.1894 133.546V128.405C58.1894 124.907 57.4038 123.408 55.4767 123.408C54.977 123.408 54.4774 123.48 54.0492 123.623C52.1213 124.337 50.6938 126.336 50.1933 129.262L49.9788 130.333C49.6929 131.618 49.4077 131.904 48.4084 131.904H47.4091C46.6234 131.904 46.1953 131.476 46.1953 130.762C46.1953 129.548 47.4091 126.622 48.7659 124.98C50.1933 123.266 52.0498 122.052 54.0492 121.48C54.834 121.266 55.6912 121.124 56.5483 121.124C58.6899 121.124 59.7607 121.41 60.6893 122.195C62.0453 123.337 62.4028 124.408 62.4028 127.905V128.333L62.2598 141.328C62.2598 145.541 62.2598 145.541 62.4028 146.111C62.4743 146.682 62.9024 147.253 63.4736 147.324C64.5444 147.467 64.9734 147.038 65.4015 146.254C65.7582 145.327 66.9013 145.327 66.7583 146.325C66.6868 147.396 66.4017 148.253 65.473 149.324C64.3307 150.609 62.7603 150.966 61.1898 150.966C59.0474 150.966 58.0481 149.609 58.0481 146.752C56.9773 148.109 55.549 149.252 54.05 150.037C52.694 150.68 51.1943 151.108 49.8375 151.108C47.0532 151.108 45.1968 149.109 45.1968 146.038C45.1952 142.471 48.3361 138.757 54.0484 135.617ZM85.1034 116.483H86.4602V120.052H86.9598V116.483H88.3166V115.983H85.1034V116.483ZM86.2457 145.896C84.9604 147.681 83.1056 149.181 80.106 149.109C74.2523 148.895 71.8962 142.542 71.8962 135.474C71.8962 128.548 74.9665 123.479 79.1067 123.265C80.5342 123.194 81.6058 123.694 82.5336 124.622C83.4622 125.479 84.1756 126.622 84.533 127.549C85.2456 129.62 87.245 131.119 86.959 124.908C86.816 122.624 84.0326 120.981 80.8908 121.052C72.9662 121.267 67.4684 127.477 67.4684 137.187C67.4684 145.684 71.6809 151.323 77.9628 151.323C80.3896 151.323 83.3176 151.18 85.3154 149.61C86.8867 148.468 87.3149 147.896 87.6 146.682C87.96 145.112 86.6747 145.327 86.2457 145.896Z" fill="black"/>
<path fill-rule="evenodd" clip-rule="evenodd" d="M115.161 109.271C105.022 109.485 97.7412 118.266 97.7412 130.547C97.7412 143.256 104.809 152.037 114.876 152.037H115.162C120.303 151.966 124.3 149.895 127.728 145.47C131.011 141.328 132.439 136.758 132.439 130.476C132.439 124.694 131.225 120.195 128.799 116.483C125.729 111.842 121.016 109.271 115.448 109.271H115.161ZM115.161 149.895C111.45 149.895 108.95 148.467 106.522 144.897C103.952 141.114 102.811 136.687 102.811 130.619C102.811 119.41 107.807 111.628 115.161 111.413H115.447C118.803 111.413 121.515 112.913 123.728 115.983C126.299 119.41 127.513 124.193 127.513 130.476C127.513 136.26 126.513 140.685 124.228 144.256C121.8 148.182 119.088 149.895 115.161 149.895ZM153.857 111.699C151.643 110.271 149.575 109.7 146.718 109.7C140.292 109.7 135.509 114.484 135.509 121.124C135.509 125.694 137.58 128.477 142.791 131.119L146.147 132.691C150.216 134.762 151.929 137.045 151.929 140.758C151.929 145.828 148.859 149.397 144.647 149.397C142.433 149.397 140.505 148.54 139.293 146.898C138.222 145.543 137.365 143.4 137.008 141.615L136.865 140.259C136.651 139.045 136.437 138.687 135.723 138.687C135.08 138.687 134.724 139.258 134.724 140.401L134.938 149.253C137.723 150.895 140.507 151.681 143.862 151.681C148.076 151.681 151.216 150.252 153.358 147.325C155.072 145.041 156 142.186 156 139.115C156 133.833 153.929 130.62 149.074 128.121L146.862 126.978C142.863 124.98 142.006 124.409 141.006 123.267C140.008 122.125 139.508 120.625 139.508 118.768C139.508 114.771 142.077 111.915 145.505 111.915C148.86 111.915 151.43 114.414 152.001 118.127L152.144 119.125C152.216 119.911 152.501 120.267 153.073 120.267C153.787 120.267 153.93 120.196 154.072 118.982V118.839L153.857 111.699Z" fill="#00ACEC"/>
</svg>
