<svg width="176" height="48" viewBox="0 0 176 48" fill="none" xmlns="http://www.w3.org/2000/svg">
<path d="M59.5344 35.0137C57.7987 35.0573 56.0905 34.5746 54.6344 33.6291C53.274 32.7319 52.2638 31.394 51.7734 29.84L54.7561 28.7442C55.1694 29.6987 55.8448 30.5166 56.704 31.1029C57.5761 31.6872 58.6065 31.99 59.656 31.9703C60.665 32.023 61.6606 31.7216 62.471 31.1182C63.1859 30.518 63.5751 29.6153 63.521 28.6834C63.5251 28.2553 63.4259 27.8325 63.2319 27.4509C63.063 27.1094 62.8423 26.7962 62.5775 26.5223C62.2426 26.2175 61.8628 25.966 61.4514 25.7767C60.9439 25.5234 60.5229 25.3307 60.1885 25.1984C59.8537 25.0669 59.3617 24.8894 58.7125 24.6658C57.9006 24.3819 57.2918 24.1588 56.8863 23.9965C56.3367 23.7626 55.803 23.4932 55.2885 23.1898C54.7349 22.896 54.2314 22.516 53.7972 22.064C53.4215 21.6226 53.1185 21.1243 52.8995 20.5876C52.0377 18.4895 52.6136 16.0753 54.3298 14.5922C55.5474 13.5169 57.201 12.9792 59.2907 12.9792C61.0353 12.9792 62.4707 13.3647 63.597 14.1357C64.6902 14.8625 65.4929 15.9507 65.8644 17.2098L62.9427 18.1835C62.6492 17.5241 62.1535 16.9752 61.5274 16.6161C60.7702 16.1961 59.9126 15.9908 59.0473 16.0225C58.1986 15.9738 57.3578 16.2095 56.658 16.6922C56.078 17.1417 55.7542 17.8461 55.7906 18.579C55.7958 19.139 56.0392 19.6704 56.4599 20.0401C56.8644 20.4382 57.339 20.758 57.8599 20.9835C58.3471 21.1864 59.0878 21.4603 60.0819 21.8052C60.6902 22.0287 61.1415 22.1961 61.4359 22.3074C61.7302 22.4187 62.1614 22.6063 62.7295 22.8703C63.1849 23.0719 63.6226 23.3111 64.0381 23.5857C64.4101 23.8533 64.7658 24.1429 65.1032 24.4531C65.4701 24.7713 65.7836 25.1463 66.0318 25.5638C66.2681 25.9968 66.4519 26.4565 66.5794 26.933C66.7348 27.493 66.8117 28.0717 66.8081 28.6528C66.8081 30.6415 66.1282 32.1986 64.7687 33.3243C63.4092 34.4507 61.6645 35.0138 59.5344 35.0137ZM79.0423 34.6485L71.738 13.3443H75.1469L79.9857 28.1964C80.2533 28.9952 80.4769 29.808 80.6554 30.6312C80.8336 29.8079 81.0571 28.9951 81.325 28.1964L86.1032 13.3443H89.4814L82.2074 34.6485H79.0423ZM95.933 34.6485V13.3444H109.142V16.3272H99.0984V22.1705H105.581V25.1532H99.0984V31.6658H109.811V34.6485H95.933ZM117.876 34.6486V13.3444H121.041V31.6052H131.45V34.6486H117.876ZM143.379 16.3878V34.6485H140.214V16.3878H134.188V13.3444H149.405V16.3878L143.379 16.3878ZM155.949 34.6485V13.3444H169.157V16.3272H159.114V22.1705H165.596V25.1532H159.114V31.6658H169.827V34.6485H155.949Z" fill="#4A4A55"/>
<path d="M37.3359 9.29246C33.6216 3.97635 26.2859 2.40064 20.9818 5.78003L11.6665 11.7171C9.12202 13.3179 7.36939 15.9163 6.83843 18.8752C6.39409 21.3402 6.78466 23.8829 7.94829 26.1009C7.15093 27.3104 6.60711 28.6691 6.34968 30.0947C5.81357 33.1105 6.51482 36.215 8.29511 38.7075C12.0102 44.0241 19.346 45.5991 24.6492 42.2199L33.9644 36.2829C36.5091 34.6823 38.2618 32.0837 38.7925 29.1247C39.2368 26.6598 38.8465 24.1171 37.6834 21.8989C38.4805 20.6894 39.0241 19.3308 39.2813 17.9052C39.8177 14.8895 39.1165 11.7848 37.3359 9.29246Z" fill="#FF3E00"/>
<path d="M20.071 39.2077C17.0685 39.9883 13.8978 38.813 12.1295 36.2639C11.0586 34.7651 10.6368 32.898 10.9593 31.0844C11.0133 30.7897 11.0877 30.499 11.1819 30.2145L11.3573 29.6796L11.8345 30.0302C12.9367 30.84 14.1691 31.4557 15.4785 31.8508L15.8247 31.9558L15.7928 32.3014C15.7505 32.7929 15.8836 33.2836 16.1685 33.6864C16.7007 34.4543 17.6554 34.8086 18.5597 34.5739C18.7621 34.5198 18.9551 34.435 19.1318 34.3224L28.4471 28.3861C28.908 28.0959 29.2256 27.6253 29.3224 27.0893C29.4189 26.5427 29.2918 25.9802 28.9696 25.5282C28.4372 24.7601 27.4823 24.4056 26.5776 24.6402C26.3754 24.6943 26.1827 24.779 26.0062 24.8914L22.4514 27.1575C21.8669 27.5291 21.229 27.8092 20.5599 27.9881C17.5572 28.7689 14.3864 27.5935 12.6181 25.0443C11.5472 23.5455 11.1254 21.6785 11.4479 19.8649C11.7671 18.0856 12.8212 16.5232 14.3514 15.5609L23.6661 9.62401C24.2509 9.25174 24.8892 8.97126 25.559 8.79233C28.5615 8.01167 31.7323 9.18699 33.5006 11.7361C34.5714 13.2349 34.9933 15.102 34.6708 16.9156C34.6165 17.2103 34.5421 17.5009 34.4482 17.7855L34.2728 18.3204L33.7958 17.9704C32.6937 17.1601 31.4612 16.5441 30.1516 16.149L29.8054 16.0439L29.8373 15.6984C29.8792 15.2068 29.7462 14.7163 29.4615 14.3134C28.9294 13.5455 27.9747 13.1911 27.0704 13.4259C26.868 13.48 26.675 13.5648 26.4983 13.6773L17.1828 19.6139C16.7218 19.904 16.4043 20.3747 16.3081 20.9107C16.2109 21.4573 16.3378 22.02 16.6601 22.472C17.1926 23.2401 18.1475 23.5946 19.0521 23.36C19.2545 23.3058 19.4475 23.221 19.6243 23.1086L23.1786 20.8434C23.7628 20.4713 24.4007 20.1909 25.0699 20.012C28.0726 19.2314 31.2434 20.4067 33.0117 22.9559C34.0825 24.4547 34.5044 26.3217 34.1819 28.1353C33.8624 29.9147 32.8085 31.4773 31.2783 32.44L21.9638 38.376C21.379 38.7483 20.7407 39.0288 20.0709 39.2077" fill="white"/>
</svg>
