<svg width="160" height="72" viewBox="0 0 160 72" fill="none" xmlns="http://www.w3.org/2000/svg">
<path d="M155.952 47.898C155.582 44.2709 152.949 42.6537 150.477 42.6537C149.345 42.6537 148.444 42.9771 148.097 43.1157L147.612 43.3237L147.196 43.624C146.618 44.063 145.602 44.6636 144.701 44.9871C144.655 44.2478 144.678 43.3006 144.793 42.5151L144.816 42.3764C145.486 36 144.146 32.2805 140.843 31.3333C140.288 31.1715 139.711 31.1022 139.133 31.1022C137.123 31.1022 135.344 32.0726 134.189 32.9043C133.219 31.6798 131.602 30.9867 129.568 30.9867C126.542 30.9867 124.116 32.396 123.238 34.6601C123.146 34.8911 123.03 35.2377 122.892 35.6997C121.113 31.7722 117.486 30.2705 114.113 30.2705C110.924 30.2705 107.829 31.5181 106.674 32.396C106.627 32.4422 106.558 32.4653 106.489 32.5346C103.462 34.6832 101.106 37.3862 99.4423 40.6437C98.6337 37.8252 96.8548 35.1914 93.6666 33.2046L93.6204 33.1584C93.528 33.1122 93.4586 33.066 93.3662 33.0198C96.4851 27.4751 99.2575 20.1284 97.5941 13.1282C95.8382 5.66595 91.4487 4.55701 88.9767 4.55701C87.9602 4.55701 86.9205 4.74183 85.8578 5.11148L85.7885 5.13458L85.7192 5.15768C81.0755 6.98281 79.0424 9.73206 78.6035 10.3789C78.1414 11.072 73.0588 18.7884 71.8343 30.0857C71.6957 31.3333 71.5571 32.627 71.4185 33.9208C70.7023 32.9043 69.5241 31.9801 67.6527 31.4026C67.0751 31.2177 66.4745 31.1484 65.8738 31.1484C63.3094 31.1484 61.2301 32.7194 60.1212 33.7591L60.0981 33.736C59.1278 32.3036 57.5799 31.4488 55.8702 31.3795H55.4544C52.7282 31.3795 50.5566 32.5808 48.9625 33.9439C47.946 32.165 46.0746 31.056 43.8798 31.056C43.695 31.056 43.5333 31.056 43.3716 31.0791H43.0019C39.9755 31.0791 37.5959 32.5115 36.6255 34.8911C36.5562 35.0759 36.4638 35.307 36.3714 35.6073C33.9918 32.6501 30.9653 31.264 26.8992 31.264H26.5065C23.9651 31.3102 17.635 32.3729 13.7537 41.1058C13.153 42.4458 12.6909 43.8088 12.3444 45.1488C11.4896 44.756 10.7041 44.6636 10.1265 44.6636C8.09346 44.6636 6.56867 45.8188 5.82937 46.9046C5.2287 47.7825 3.31116 50.9014 4.25838 53.951C4.76664 55.5913 5.94489 56.8389 7.6083 57.4857C9.06378 58.0633 10.912 58.6178 12.2982 59.0105C13.153 60.9512 14.6778 63.1922 17.3808 65.2483C19.2984 66.7038 21.7473 67.4431 24.6351 67.4431C29.4867 67.4431 34.1766 65.3407 34.6849 65.1097L34.8697 65.0173L34.9159 64.9711C35.84 65.9414 37.0645 66.6345 38.6124 66.9348C39.0744 67.0272 39.6751 67.0965 40.3682 67.0965C43.0019 67.0965 44.8271 65.7566 46.5136 63.2384C47.8997 65.41 50.418 66.6345 53.3982 66.6345H53.4213C53.5831 66.6345 53.7448 66.75 53.9296 66.75C55.5006 66.75 57.4643 66.1955 59.1046 63.5618C60.4677 66.0107 62.9628 67.42 65.92 67.42C68.5537 67.42 70.8409 66.3341 71.2568 66.1262L71.3492 66.08C72.2271 65.618 72.9664 65.2021 73.544 64.8787C75.5077 65.9183 78.488 67.0734 82.1382 67.0734C82.762 67.0734 83.3858 67.0503 84.0096 66.981L84.1713 66.9579L84.333 66.9348C92.0725 65.41 97.1089 63.5618 100.112 62.1525C102.215 64.509 105.565 66.7731 110.347 67.1196C110.878 67.1658 111.433 67.1889 111.964 67.1889C115.892 67.1889 119.034 66.08 121.344 64.8556C122.083 65.6411 123.007 66.3573 124.209 66.8424C124.925 67.1427 125.664 67.2814 126.426 67.2814C131.232 67.2814 133.473 61.5518 134.097 59.6112L135.252 56.5154C136.268 57.6013 137.562 58.4792 139.202 58.9412C140.103 59.1954 141.074 59.334 142.067 59.334C147.358 59.334 152.44 55.5913 153.249 54.9675C154.704 53.7662 156.299 51.2942 155.952 47.898Z" fill="white"/>
<path d="M107.485 49.4638C107.485 49.4638 106.815 47.1073 109.31 42.556C111.782 38.0279 113.722 40.4999 113.722 40.4999C113.722 40.4999 115.848 42.8102 113.422 46.2525C110.996 49.7179 107.485 49.4638 107.485 49.4638ZM88.4247 52.7444C85.5831 60.1835 78.6753 57.1571 78.6753 57.1571C78.6753 57.1571 77.8898 54.5002 80.1308 47.038C82.3718 39.5989 87.6392 42.5098 87.6392 42.5098C87.6392 42.5098 91.2664 45.3053 88.4247 52.7444ZM83.2728 21.5786C83.2728 21.5786 87.5699 10.3737 88.6096 15.826C89.6492 21.2783 79.5994 37.4965 79.5994 37.4965C79.6918 33.8462 83.2728 21.5786 83.2728 21.5786ZM21.8191 49.4638C22.0039 42.2557 26.7169 39.1137 28.3572 40.6847C29.9975 42.2557 29.3968 45.6518 26.301 47.7773C23.2284 49.9027 21.8191 49.4638 21.8191 49.4638ZM152.027 48.2855C151.796 45.8597 149.601 46.7608 149.601 46.7608C149.601 46.7608 146.09 49.4869 142.994 49.1866C139.921 48.8631 140.891 41.9785 140.891 41.9785C140.891 41.9785 141.561 35.6483 139.736 35.1169C137.911 34.5855 135.67 36.7572 135.67 36.7572C135.67 36.7572 132.875 39.853 131.558 43.7805L131.188 43.896C131.188 43.896 131.604 36.9882 131.119 35.4172C130.749 34.6317 127.422 34.701 126.891 36.0872C126.337 37.4734 123.68 47.1535 123.495 51.2196C123.495 51.2196 118.297 55.6323 113.746 56.3716C109.194 57.0877 108.108 54.2461 108.108 54.2461C108.108 54.2461 120.468 50.8038 120.03 40.9388C119.614 31.0739 110.072 34.7241 108.986 35.5327C107.947 36.3182 102.379 39.6682 100.739 48.9786C100.692 49.3021 100.577 50.6882 100.577 50.6882C100.577 50.6882 95.7946 53.8995 93.1377 54.7544C93.1377 54.7544 100.577 42.2326 91.4974 36.5262C87.3851 34.0542 84.1045 39.2523 84.1045 39.2523C84.1045 39.2523 96.3952 25.5754 93.6691 14.0008C92.3753 8.50236 89.6261 7.90168 87.0848 8.80269C83.2497 10.3275 81.7942 12.5454 81.7942 12.5454C81.7942 12.5454 76.8271 19.7535 75.6719 30.4732C74.5168 41.193 72.8303 54.1306 72.8303 54.1306C72.8303 54.1306 70.4738 56.4409 68.3021 56.5564C66.1304 56.6719 67.1008 50.0876 67.1008 50.0876C67.1008 50.0876 68.7873 40.0378 68.6718 38.3513C68.5562 36.6648 68.4407 35.7407 66.4308 35.14C64.4439 34.5393 62.2492 37.0806 62.2492 37.0806C62.2492 37.0806 56.4965 45.7904 56.0114 47.1304L55.711 47.6849L55.4107 47.3152C55.4107 47.3152 59.4768 35.4403 55.5955 35.2786C51.7142 35.0938 49.1729 39.5064 49.1729 39.5064C49.1729 39.5064 44.7603 46.8994 44.5754 47.7311L44.2751 47.3614C44.2751 47.3614 46.1002 38.7671 45.7306 36.6417C45.3609 34.5162 43.3741 34.9552 43.3741 34.9552C43.3741 34.9552 40.8328 34.6548 40.1628 36.2951C39.4928 37.9354 37.067 48.7707 36.7667 52.213C36.7667 52.213 30.4134 56.7643 26.2317 56.8105C22.0501 56.8798 22.4891 54.1537 22.4891 54.1537C22.4891 54.1537 37.8063 48.9093 33.6247 38.5592C31.7533 35.9024 29.5586 35.0707 26.4859 35.1169C23.3901 35.1862 19.7629 37.0575 17.2678 42.6253C16.0896 45.2822 15.6044 47.8004 15.6044 49.7179C15.6044 49.7179 12.7396 50.2724 11.2842 49.0479C9.82868 47.8466 8.99697 49.0479 8.99697 49.0479C8.99697 49.0479 6.45566 52.6751 8.92767 53.6454C11.3997 54.6157 15.2348 55.5168 15.2348 55.5168C15.5813 57.0877 16.6209 59.6522 19.6474 61.9394C24.1756 65.3817 32.9085 61.408 32.9085 61.408L36.4894 59.2825C36.4894 59.2825 36.6049 62.4938 39.2156 62.979C41.8262 63.4641 42.912 62.9328 47.4402 51.9358C50.097 46.2987 50.2819 46.599 50.2819 46.599L50.5822 46.5297C50.5822 46.5297 48.526 57.2957 49.3115 60.2066C50.097 63.1176 53.5394 62.8173 53.5394 62.8173C53.5394 62.8173 55.4107 63.4873 56.9355 58.1505C58.4603 52.8137 61.3481 47.2459 61.3481 47.2459H61.7178C61.7178 47.2459 60.4471 57.9657 62.3878 61.4773C64.3284 64.9889 69.3417 62.5169 69.3417 62.5169C69.3417 62.5169 72.8534 60.6687 73.4079 60.1142C73.4079 60.1142 77.5664 63.6259 83.4576 62.979C96.6032 60.3915 101.27 56.8798 101.27 56.8798C101.27 56.8798 103.534 62.5862 110.511 63.1176C118.505 63.7183 122.871 58.6818 122.871 58.6818C122.871 58.6818 122.802 61.9394 125.597 63.0945C128.393 64.2496 130.264 58.1505 130.264 58.1505L134.931 45.6518H135.347C135.347 45.6518 135.578 53.6454 140.198 54.9854C144.842 56.3022 150.826 51.6817 150.826 51.6817C150.826 51.6817 152.281 50.7113 152.027 48.2855Z" fill="#E24B31"/>
</svg>
