<svg width="160" height="56" viewBox="0 0 160 56" fill="none" xmlns="http://www.w3.org/2000/svg">
<path d="M72.2282 17.1165H76.5241L69.9938 39.0068H63.8936L57.3633 17.1165H61.6601L66.9403 35.3538L72.2273 17.1165H72.2282ZM88.4715 39.0068H85.1922L84.8989 37.9191C83.4765 38.8458 81.8149 39.3379 80.1172 39.3351C77.1937 39.3351 75.9504 37.3308 75.9504 34.5466C75.9504 31.2904 77.3647 30.0454 80.6089 30.0454H84.4483V28.39C84.4483 26.6182 83.9566 25.9889 81.3947 25.9889C79.9043 26.0043 78.419 26.1693 76.962 26.4814L76.4694 23.4236C78.2493 22.9293 80.0871 22.6739 81.9343 22.6643C86.9545 22.6643 88.4304 24.436 88.4304 28.4515L88.4715 39.0068ZM84.4688 32.9596H81.5179C80.2062 32.9596 79.8445 33.3221 79.8445 34.5398C79.8445 35.7574 80.2062 36.1473 81.4495 36.1473C82.5087 36.132 83.5468 35.8496 84.4679 35.3265V32.9596H84.4688ZM96.1151 34.6971C95.6089 34.9433 95.2544 35.4206 95.1651 35.9763C95.1651 36.4005 95.4251 36.5988 96.0536 36.6604C97.8227 36.8588 98.7856 36.9545 100.678 37.1529C103.274 37.4471 104.093 38.7331 104.093 41.0316C104.093 44.452 102.843 45.8201 96.8736 45.8201C94.7967 45.8225 92.7289 45.5464 90.7255 44.9992L91.2172 42.0098C92.9766 42.4575 94.7844 42.6872 96.6 42.6939C99.7835 42.6939 100.405 42.4613 100.405 41.4147C100.405 40.3681 100.111 40.2655 98.895 40.1355C97.0574 39.9371 96.2998 39.8413 94.2707 39.6088C92.0098 39.3488 91.1214 38.5895 91.1214 36.5509C91.1917 35.4178 91.8187 34.393 92.7957 33.8147C91.3198 32.9254 90.6297 31.4478 90.6297 29.5118V27.9932C90.6981 24.6755 92.4331 22.6711 97.0643 22.6711C97.9852 22.6643 98.9036 22.7737 99.7971 22.9995H104.722V25.0038C104.162 25.168 103.506 25.3322 102.952 25.4963C103.334 26.2728 103.525 27.1279 103.513 27.9932V29.505C103.513 32.7612 101.546 34.7313 97.0779 34.7313C96.7566 34.7386 96.4351 34.7272 96.1151 34.6971ZM97.0301 25.8863C95.0634 25.8863 94.3733 26.6114 94.3733 28.1232V29.3613C94.3733 30.9416 95.1583 31.5299 97.0301 31.5299C98.9019 31.5299 99.7219 30.9074 99.7219 29.3613V28.1232C99.7287 26.6251 99.0387 25.8931 97.0369 25.8931L97.0301 25.8863ZM114.722 26.3514C113.255 27.017 111.841 27.7945 110.493 28.6773V39.0068H106.463V22.9995H109.879L110.139 24.7712C111.441 23.8898 112.853 23.1837 114.34 22.6711L114.722 26.3514ZM128.11 39.0068H124.832L124.537 37.9191C123.115 38.8459 121.454 39.338 119.757 39.3351C116.833 39.3351 115.59 37.3308 115.59 34.5466C115.59 31.2904 117.003 30.0454 120.248 30.0454H124.087V28.39C124.087 26.6182 123.595 25.9889 121.033 25.9889C119.543 26.0045 118.058 26.1695 116.601 26.4814L116.109 23.4236C117.888 22.9293 119.726 22.6739 121.573 22.6643C126.594 22.6643 128.069 24.436 128.069 28.4515L128.11 39.0068ZM124.107 32.9596H121.156C119.845 32.9596 119.483 33.3221 119.483 34.5398C119.483 35.7574 119.845 36.1473 121.088 36.1473C122.147 36.1321 123.186 35.8497 124.107 35.3265V32.9596ZM140.023 39.0068V27.829C140.023 26.9739 139.661 26.5498 138.747 26.5498C137.28 26.7222 135.863 27.1875 134.58 27.918V39.0068H130.576V22.9995H133.63L134.026 24.3676C136.02 23.3687 138.2 22.7978 140.427 22.6916C143.084 22.6916 144.034 24.566 144.034 27.4254V39.0547L140.023 39.0068ZM155.81 38.7058C154.681 39.1013 153.495 39.3115 152.299 39.3283C149.375 39.3283 147.899 37.9601 147.899 35.087V26.1941H145.502V22.9995H147.899V19.025L151.902 18.4641V22.9995H156.001L155.741 26.1873H151.902V34.5671C151.851 34.9612 151.988 35.3562 152.271 35.6351C152.553 35.9142 152.951 36.0432 153.344 35.9832C154.022 35.9626 154.695 35.8522 155.345 35.6548L155.81 38.7058Z" fill="black"/>
<path d="M38.237 7.47778L43.6403 10.6382L34.6302 15.8782L34.63 15.8842L43.6403 10.6382V14.3938L31.5416 44.062L23.8166 48.5214L23.8167 48.5221L23.8163 48.5217L23.8159 48.5221L23.8157 48.5214L16.1654 44.0962L4 14.51V10.6382L9.40417 7.47778L18.4211 12.7657L18.3899 12.7833L18.4143 12.793V16.3639L23.8167 28.9987L23.8166 33.2197L23.8176 33.2194V28.9987L29.2269 16.3639V12.7588H29.2337L38.237 7.47778Z" fill="#1159CC"/>
<path d="M38.237 7.47778L29.2337 12.7588H29.2269V16.3639L23.8176 28.9987V33.2194L20.2176 35.3127L13.0109 19.0591V15.8782L18.4211 12.7657L9.40417 7.47778L4 10.6382V14.51L16.1654 44.0962L23.8167 48.5221V37.4059L27.4235 35.3127L27.3756 35.2853L34.6302 19.0591V15.8782L43.6403 10.6382L38.237 7.47778Z" fill="#127EFF"/>
</svg>
