<svg width="208" height="48" viewBox="0 0 208 48" fill="none" xmlns="http://www.w3.org/2000/svg">
<path d="M105.984 28.0809C105.984 30.3069 105.242 32.1956 103.758 33.6796C101.802 35.6358 98.6316 36.715 94.7867 36.6476C92.0211 36.5801 89.2555 35.9056 87.7041 34.9612L88.7159 29.43C90.4022 30.3744 93.3027 31.3187 95.4613 31.3187C97.2825 31.3187 98.4292 30.5093 98.4292 29.1602C98.4292 27.946 97.5523 27.1366 95.3938 26.0573C91.9537 24.371 90.2673 22.2125 90.2673 19.6492C90.2673 14.6577 94.5844 11.2175 100.992 11.2175C104.365 11.2175 106.591 12.027 107.805 12.8364L106.793 18.3002C105.849 17.5582 103.353 16.5464 100.655 16.5464C98.7665 16.5464 97.5523 17.3558 97.5523 18.6374C97.5523 19.5818 98.4967 20.3912 100.453 21.403C103.084 22.7521 105.984 24.7083 105.984 28.0809ZM203.994 33.2074C204.129 31.5211 202.915 30.172 201.229 30.172C199.542 30.172 198.058 31.5211 197.923 33.2074C197.788 34.7589 198.868 36.2428 200.689 36.2428C202.375 36.2428 203.859 34.8938 203.994 33.2074ZM203.589 33.2074C203.454 34.6239 202.173 35.8381 200.689 35.8381C199.272 35.8381 198.261 34.6914 198.395 33.2749C198.53 31.8583 199.812 30.6442 201.296 30.6442C202.645 30.6442 203.657 31.7909 203.589 33.2074ZM201.498 33.6121L201.971 35.0287H201.498L201.026 33.6796H200.352L200.082 35.0287H199.61L200.284 31.4536H201.431C201.971 31.4536 202.375 31.8583 202.375 32.3305C202.443 32.8027 202.105 33.4098 201.498 33.6121ZM201.498 31.8583H200.689L200.419 33.2074H201.161C201.566 33.2074 201.903 32.8702 201.971 32.4654C202.038 32.1956 201.836 31.8583 201.498 31.8583ZM188.345 31.0489C191.38 31.0489 194.011 30.3069 196.844 28.688L195.697 34.7589C192.257 36.5126 188.21 36.715 186.659 36.715C179.913 36.715 176.136 33.0051 176.136 26.4621C176.136 22.6847 177.552 18.9073 179.913 16.1417C182.476 13.1062 186.321 11.3524 190.301 11.3524C195.36 11.3524 198.8 14.3204 198.8 18.7049C198.8 20.7285 198.126 22.4148 196.844 23.6965C194.416 26.0573 188.412 27.4064 183.016 26.3272C182.679 29.2951 184.972 31.0489 188.345 31.0489ZM183.691 21.5379C187.94 21.6054 190.301 21.1332 191.38 20.1214C192.527 18.9747 192.122 16.6138 189.357 16.6138C186.254 16.6138 184.23 19.1771 183.691 21.5379ZM155.36 22.5497L152.729 36.1754H145.849L146.726 31.4536C145.782 34.3541 143.421 36.715 139.441 36.715C134.652 36.715 132.493 32.4654 132.493 28.2159C132.493 23.3592 134.382 18.57 137.552 15.3997C140.25 12.7015 143.691 11.285 147.535 11.285C154.348 11.3524 156.574 15.9393 155.36 22.5497ZM148.682 19.4469C148.615 17.7605 147.67 16.8162 146.119 16.8162C142.746 16.8162 139.778 22.6847 139.778 26.7319C139.778 29.2951 140.723 30.8465 142.342 30.8465C144.972 30.8465 147.266 28.0809 148.008 24.1012C148.345 22.7521 148.75 20.5261 148.682 19.4469ZM44.3989 22.5497L41.7682 36.1754H34.8879L35.7648 31.4536C34.8204 34.3541 32.4596 36.715 28.4798 36.715C23.6906 36.715 21.5321 32.4654 21.5321 28.2159C21.5321 23.3592 23.4208 18.57 26.5911 15.3997C29.2892 12.7015 32.7294 11.285 36.5742 11.285C43.3871 11.3524 45.6805 15.9393 44.3989 22.5497ZM37.7884 19.4469C37.721 17.7605 36.7766 16.8162 35.2252 16.8162C31.8525 16.8162 28.8845 22.6847 28.8845 26.7319C28.8845 29.2951 29.8289 30.8465 31.4478 30.8465C34.0785 30.8465 36.3719 28.0809 37.1139 24.1012C37.3837 22.7521 37.7884 20.5261 37.7884 19.4469ZM132.021 20.5936C132.021 26.5295 129.188 32.6003 124.062 35.2985C122.173 36.3103 120.352 36.715 118.8 36.715C116.237 36.715 114.82 35.7707 114.011 34.2867L112.19 44H104.972L111.11 11.7572H117.451L116.709 15.6695C118.53 13.0388 121.161 11.285 124.196 11.285C128.918 11.285 132.021 14.9275 132.021 20.5936ZM124.534 21.1332C124.534 19.9865 124.264 17.2209 121.633 17.2209C118.935 17.2209 116.642 20.2563 115.765 24.9106C115.428 26.5295 114.618 31.2513 117.923 31.2513C121.701 31.2513 124.534 25.855 124.534 21.1332ZM14.0447 17.1535L15.0565 11.7572H8.71589L3.99414 36.6476H11.2117L13.1678 26.3946C14.3145 20.3238 17.7547 17.8954 22.7462 18.7049L24.1628 11.285C19.8457 10.8128 15.7985 13.2411 14.0447 17.1535ZM71.9874 36.1754L74.4832 23.0894L79.6096 36.1754H87.3668L82.038 23.0219L91.6839 11.7572H83.7918L74.4832 22.887L78.0582 4H70.9081L64.7699 36.2428H71.9874V36.1754ZM172.426 11.3524C163.387 11.3524 156.574 17.9629 156.574 26.7319C156.574 32.8027 160.621 36.715 166.827 36.715C169.525 36.715 172.089 36.2428 173.775 35.4334L174.922 29.3626C172.696 30.4418 170.942 30.914 168.851 30.914C166.557 30.914 164.129 29.6324 164.129 25.9224C164.129 21.6054 167.164 17.1535 172.358 17.1535C173.91 17.1535 175.191 17.4907 176.338 18.0978L177.485 12.2293C176.136 11.6897 174.247 11.3524 172.426 11.3524ZM61.4646 11.3524C52.4258 11.3524 45.613 17.9629 45.613 26.7319C45.613 32.8027 49.6602 36.715 55.866 36.715C58.5641 36.715 61.1274 36.2428 62.8137 35.4334L63.9604 29.3626C61.7344 30.4418 59.9806 30.914 57.8896 30.914C55.5962 30.914 53.1678 29.6324 53.1678 25.9224C53.1678 21.6054 56.2032 17.1535 61.3972 17.1535C62.9486 17.1535 64.2302 17.4907 65.3769 18.0978L66.5237 12.2293C65.1746 11.6897 63.2859 11.3524 61.4646 11.3524Z" fill="black"/>
</svg>
