<svg width="184" height="48" viewBox="0 0 184 48" fill="none" xmlns="http://www.w3.org/2000/svg">
<path d="M17.9479 25.7981C22.3186 18.1079 29.5662 14.6224 32.4984 14.6224C33.8815 14.6224 34.5454 15.4523 34.5454 17.112C34.5454 19.5463 32.5537 24.9682 28.1277 30.7773C23.1485 37.195 17.7266 40.1272 14.739 40.1272C13.1899 40.1272 12.2494 39.0761 12.2494 37.1397C12.2494 34.2075 14.1858 27.7344 17.9479 23.5297V25.7981ZM32.4984 11.8562C35.9839 10.0304 37.9202 10.4177 37.9202 9.42185C37.9202 8.81328 37.3117 7.59613 35.9839 5.93638C34.822 4.55325 34.3241 4 32.8303 4C30.6173 4 23.4251 6.82158 16.8967 12.9627C10.5343 19.0484 7.21484 25.6874 7.21484 31.6625C7.21484 38.4122 11.1429 44 15.7902 44C22.0973 44 27.9064 40.7358 32.4431 34.3734C36.7031 28.3983 38.8054 21.6487 38.8054 17.0014C38.8054 13.3499 37.2563 11.7455 33.9922 11.7455C33.8262 11.7455 33.3836 11.8008 32.4984 11.8562Z" fill="#231F20"/>
<path d="M28.7373 16.5035C28.2947 16.5035 27.7415 16.6695 27.7415 17.4993C27.7415 17.4993 27.2989 26.462 27.0776 30.3347C26.8563 29.8368 26.6903 29.3389 26.469 28.8963L26.303 28.4537L21.2131 17.1674C21.0472 16.7801 20.6046 16.4482 20.2173 16.4482H16.1786C15.57 16.4482 15.1827 16.8354 15.1827 17.444L14.2422 35.9779C14.2422 36.1992 14.2422 36.9184 15.1274 36.9184H17.617C18.1703 36.9184 18.5575 36.5311 18.5575 35.9779C18.5575 35.9779 19.0001 26.7939 19.1661 22.8105C19.3874 23.3638 19.6087 23.917 19.996 24.6363L25.0306 36.1439C25.1965 36.5311 25.5838 36.9184 26.0817 36.9184H30.1758C30.8397 36.9184 31.1716 36.5865 31.1716 35.9779L32.1122 17.444C32.1122 17.0567 32.1122 16.4482 31.1716 16.4482H28.7373V16.5035Z" fill="#231F20"/>
<path d="M28.1839 16.0611C27.7413 16.0611 27.1881 16.2271 27.1881 17.0569C27.1881 17.0569 26.7455 26.0196 26.5242 29.8924C26.3029 29.3944 26.1369 28.8965 25.9156 28.4539L25.6943 28.0113L20.6044 16.725C20.4384 16.3377 19.9958 16.0058 19.6086 16.0058H15.5145C14.9059 16.0058 14.5187 16.393 14.5187 17.0016L13.5781 35.5355C13.5781 35.7568 13.5781 36.476 14.4633 36.476H16.953C17.5062 36.476 17.8935 36.0888 17.8935 35.5355C17.8935 35.5355 18.3361 26.3515 18.5021 22.3681C18.7234 22.9214 18.9447 23.4746 19.2766 24.1939L24.3112 35.7015C24.4772 36.0888 24.8644 36.476 25.3624 36.476H29.4564C30.1203 36.476 30.4523 36.1441 30.4523 35.5355L31.3928 17.0016C31.3928 16.6143 31.3928 16.0058 30.4523 16.0058H28.1839V16.0611Z" fill="white"/>
<path d="M14.9054 17.057C14.9054 16.6697 15.1267 16.3931 15.5139 16.3931H19.5527C19.8293 16.3931 20.1059 16.6144 20.2166 16.891L25.3065 28.1773C25.7491 29.1731 26.3577 30.501 26.6343 31.6628H26.6896L27.4642 17.057C27.4642 16.6144 27.6301 16.3931 28.1281 16.3931H30.4517C31.005 16.3931 31.0603 16.6144 31.0603 17.057L30.1198 35.6462C30.1198 36.0335 29.9538 36.1994 29.4559 36.1994H25.3618C25.0852 36.1994 24.7532 35.9228 24.6426 35.6462L19.608 24.1386C18.8888 22.5895 18.5015 21.5936 18.2802 20.5978L17.561 35.5909C17.561 35.9781 17.3397 36.1441 17.0077 36.1441H14.5181C14.0202 36.1441 13.9648 35.8675 13.9648 35.5909L14.9054 17.057Z" fill="#A80533"/>
<path d="M45.3332 19.2142C45.3332 18.9375 45.4438 18.8269 45.7205 18.8269H48.3207C48.4867 18.8269 48.708 18.9929 48.7633 19.1588L52.0275 26.2404C52.3041 26.849 52.6914 27.6789 52.8574 28.4534H52.9127L53.4106 19.2695C53.4106 18.9929 53.5213 18.8269 53.8532 18.8269H55.347C55.7343 18.8269 55.7343 18.9929 55.7343 19.2142L55.1257 30.8878C55.1257 31.1091 55.0151 31.275 54.6831 31.275H52.0828C51.9169 31.275 51.6956 31.109 51.6402 30.9431L48.3761 23.6955C47.9335 22.755 47.6568 22.0911 47.5462 21.4825H47.4909L47.0483 30.8878C47.0483 31.1091 46.9376 31.275 46.661 31.275H45.0566C44.7246 31.275 44.7246 31.1091 44.7246 30.8878L45.3332 19.2142Z" fill="#A80533"/>
<path d="M64.6969 30.4451C64.6969 31.109 62.8712 31.441 61.2115 31.441C58.2792 31.441 56.9514 30.1685 56.9514 27.015C56.9514 23.4189 59.3304 20.5973 62.2626 20.5973C64.4203 20.5973 65.3055 21.5378 65.3055 23.1422C65.3055 26.5724 61.2115 27.015 59.5517 27.015C59.5517 27.9555 59.939 29.3387 62.0413 29.3387C63.4245 29.3387 64.3097 28.7301 64.531 28.7301C64.6969 28.7301 64.7523 28.8407 64.7523 29.0067L64.6969 30.4451ZM59.6624 25.2446C60.2156 25.2446 62.8712 25.0786 62.8712 23.5848C62.8712 23.0316 62.7052 22.589 61.82 22.589C60.4369 22.5337 59.773 24.0274 59.6624 25.2446Z" fill="#A80533"/>
<path d="M69.1229 31.275C68.4037 31.275 68.3484 30.9984 68.1824 30.3345L65.7481 21.0952C65.7481 20.8739 65.8588 20.8186 66.0247 20.8186H68.2931C68.5697 20.8186 68.625 20.9292 68.6803 21.0952L69.6762 25.5212C69.8422 26.2404 70.1188 27.6236 70.1741 28.2875H70.2295C70.2848 28.0108 70.5614 27.2916 70.9487 26.2404L72.9404 21.0952C72.9957 20.9292 73.1617 20.7633 73.3277 20.7633H75.2087C75.43 20.7633 75.596 20.8186 75.596 21.0399L71.8339 30.2792C71.5573 30.8877 71.4466 31.1644 70.838 31.1644H69.1229V31.275Z" fill="#A80533"/>
<path d="M82.3456 27.2363C81.9584 28.1215 80.5199 31.441 77.9196 31.441C76.3152 31.441 76.0386 30.4451 76.0386 29.1727L76.4259 21.1505C76.4259 20.9292 76.5365 20.7633 76.8685 20.7633H78.9708C79.3028 20.7633 79.3028 20.9292 79.3028 21.1505L78.8602 27.4576C78.8602 27.9002 78.8602 28.3428 79.3581 28.3428C80.2986 28.3428 82.5116 24.3594 82.5116 22.589L82.6223 21.0952C82.6223 20.8186 82.7882 20.7633 83.0095 20.7633H85.0566C85.3332 20.7633 85.3332 20.8186 85.3332 21.0952L84.7799 30.8877C84.7799 31.109 84.6693 31.275 84.5033 31.275H82.4563C82.069 31.275 82.069 31.109 82.069 30.8877L82.3456 27.2363Z" fill="#A80533"/>
<path d="M91.9169 25.3552C92.8021 25.9085 93.466 26.6277 93.466 28.0662C93.466 30.2238 91.8062 31.441 89.4826 31.441C87.9335 31.441 86.495 31.1644 86.495 30.4451L86.5503 28.8407C86.5503 28.6747 86.661 28.5088 86.827 28.5088C87.1036 28.5088 88.1548 29.4493 89.6485 29.4493C90.5337 29.4493 91.087 29.1727 91.087 28.6747C91.087 28.2875 90.8104 28.1215 90.3678 27.7895L88.5974 26.7384C87.4355 26.0745 86.9929 25.2999 86.9929 24.0274C86.9929 21.9804 88.4867 20.6526 90.755 20.6526C91.8615 20.6526 93.5766 20.9846 93.5766 21.6485L93.5213 23.0869C93.5213 23.2529 93.466 23.4189 93.3 23.4189C92.9127 23.4189 92.1382 22.6996 90.9763 22.6996C90.0358 22.6996 89.4272 22.9763 89.4272 23.5295C89.4272 23.8061 89.5932 24.0274 89.8698 24.1934L91.9169 25.3552Z" fill="#A80533"/>
<path d="M100.05 25.8532C100.05 20.8186 102.871 18.6056 106.025 18.6056C109.068 18.6056 111.115 20.376 111.115 24.3041C111.115 29.3386 108.293 31.441 105.14 31.441C102.041 31.441 100.05 29.7259 100.05 25.8532ZM105.306 29.5599C107.021 29.5599 108.238 27.9002 108.238 24.4147C108.238 22.0357 107.574 20.542 105.914 20.542C104.199 20.542 102.982 22.1464 102.982 25.6872C102.927 28.0108 103.535 29.5599 105.306 29.5599Z" fill="#A80533"/>
<path d="M118.75 27.2363C118.362 28.1215 116.924 31.441 114.324 31.441C112.719 31.441 112.442 30.4451 112.442 29.1727L112.83 21.1505C112.83 20.9292 112.94 20.7633 113.272 20.7633H115.375C115.707 20.7633 115.707 20.9292 115.707 21.1505L115.264 27.4576C115.264 27.9002 115.264 28.3428 115.762 28.3428C116.702 28.3428 118.915 24.3594 118.915 22.589L119.026 21.0952C119.026 20.8186 119.192 20.7633 119.413 20.7633H121.46C121.737 20.7633 121.737 20.8186 121.737 21.0952L121.184 30.8877C121.184 31.109 121.073 31.275 120.907 31.275H118.86C118.473 31.275 118.473 31.109 118.473 30.8877L118.75 27.2363Z" fill="#A80533"/>
<path d="M130.202 30.4451C130.202 31.0537 128.542 31.441 127.104 31.441C125.112 31.441 124.061 30.6664 124.061 28.7301L124.393 22.8103H123.397C123.065 22.8103 123.065 22.6996 123.065 22.423L123.12 21.1505C123.12 20.8739 123.231 20.7633 123.507 20.7633H124.503L124.614 18.7716C124.614 18.4949 124.725 18.3843 125.057 18.3843H126.993C127.325 18.3843 127.325 18.5503 127.325 18.7716L127.214 20.7633H130.423C130.81 20.7633 130.81 20.9292 130.81 21.1505L130.755 22.423C130.755 22.6996 130.644 22.8103 130.368 22.8103H127.159L126.882 27.7895C126.882 28.896 127.27 29.3386 128.431 29.3386C129.372 29.3386 130.036 28.9514 130.146 28.9514C130.312 28.9514 130.423 29.1173 130.423 29.2833L130.202 30.4451Z" fill="#A80533"/>
<path d="M131.862 21.1505C131.862 20.8739 132.028 20.8186 132.249 20.8186H134.296C134.572 20.8186 134.572 20.8739 134.572 21.1505L134.351 24.968L134.406 25.0233C134.572 24.0274 135.624 20.7079 137.947 20.7079C138.722 20.7079 139.164 20.8186 139.164 21.3165L139.054 23.3635C139.054 23.5295 138.943 23.7508 138.777 23.7508C138.501 23.7508 138.279 23.3635 137.615 23.3635C135.458 23.3635 134.185 28.6194 134.13 29.5046L134.075 30.9431C134.075 31.1644 133.964 31.3303 133.798 31.3303H131.696C131.308 31.3303 131.308 31.1644 131.308 30.9431L131.862 21.1505Z" fill="#A80533"/>
<path d="M146.467 30.4451C146.467 31.109 144.642 31.441 142.982 31.441C140.05 31.441 138.722 30.1685 138.722 27.015C138.722 23.4189 141.101 20.5973 144.033 20.5973C146.191 20.5973 147.076 21.5378 147.076 23.1422C147.076 26.5724 142.982 27.015 141.322 27.015C141.322 27.9555 141.709 29.3387 143.812 29.3387C145.195 29.3387 146.08 28.7301 146.301 28.7301C146.467 28.7301 146.523 28.8407 146.523 29.0067L146.467 30.4451ZM141.433 25.2446C141.986 25.2446 144.642 25.0786 144.642 23.5848C144.642 23.0316 144.476 22.589 143.59 22.589C142.207 22.5337 141.543 24.0274 141.433 25.2446Z" fill="#A80533"/>
<path d="M154.268 27.6236C153.992 28.3981 152.774 31.441 150.119 31.441C148.459 31.441 147.74 29.9472 147.74 27.9002C147.74 23.4189 150.063 20.5973 152.83 20.5973C153.992 20.5973 154.711 21.0399 154.877 21.0952C154.877 20.9292 154.987 20.7633 155.153 20.7633H157.2C157.532 20.7633 157.588 20.8739 157.588 21.1505L157.09 30.8324C157.09 31.1091 156.979 31.2197 156.647 31.2197H154.545C154.213 31.2197 154.158 31.0537 154.158 30.8324L154.268 27.6236ZM151.17 28.7854C152.442 28.7854 154.711 23.8615 154.821 22.8103C154.655 22.755 154.324 22.5337 153.66 22.5337C150.893 22.5337 150.506 25.6319 150.506 27.4576C150.451 28.0662 150.617 28.7854 151.17 28.7854Z" fill="#A80533"/>
<path d="M166.052 30.4451C166.052 31.0537 164.227 31.441 162.788 31.441C160.022 31.441 158.694 29.9472 158.694 27.1256C158.694 22.8656 161.184 20.5973 164.061 20.5973C165.167 20.5973 166.55 20.8739 166.55 21.4272L166.495 22.9209C166.495 23.0316 166.384 23.1422 166.274 23.1422C165.942 23.1422 165.499 22.6443 164.393 22.6443C162.844 22.6443 161.682 24.1381 161.682 26.683C161.682 28.1215 162.235 29.3387 163.673 29.3387C164.891 29.3387 165.665 28.7301 166.052 28.7301C166.163 28.7301 166.274 28.8407 166.274 28.9514L166.052 30.4451Z" fill="#A80533"/>
<path d="M170.202 30.8878C170.202 31.1091 170.091 31.275 169.925 31.275H167.878C167.491 31.275 167.491 31.1091 167.491 30.8878L168.21 17.4438C168.21 17.1671 168.376 17.1118 168.597 17.1118H170.644C170.921 17.1118 170.921 17.1671 170.921 17.4438L170.478 24.802L170.534 24.8573C170.81 24.0274 171.862 20.5973 174.738 20.5973C176.177 20.5973 176.785 21.5378 176.785 23.1976L176.398 30.8878C176.398 31.1091 176.288 31.275 175.956 31.275H173.853C173.521 31.275 173.521 31.1091 173.521 30.8878L173.853 24.5807C173.853 24.0274 173.853 23.6402 173.355 23.6402C172.47 23.6402 170.312 27.4576 170.312 29.4493L170.202 30.8878Z" fill="#A80533"/>
<path d="M45.3897 35.2584H44.2278C44.1172 35.2584 44.1172 35.203 44.1172 35.1477V34.9817C44.1172 34.8711 44.1725 34.8711 44.2278 34.8711H47.0494C47.1601 34.8711 47.1601 34.9264 47.1601 34.9817V35.1477C47.1601 35.203 47.1047 35.2584 47.0494 35.2584H45.9429L45.7769 38.7438C45.7769 38.7992 45.7216 38.8545 45.6663 38.8545H45.3343C45.2237 38.8545 45.2237 38.7992 45.2237 38.7438L45.3897 35.2584Z" fill="#231F20"/>
<path d="M47.5473 34.3178C47.5473 34.2625 47.6027 34.2072 47.658 34.2072H47.9346C48.0453 34.2072 48.1006 34.2625 48.1006 34.3178L47.9346 37.0841C47.9899 36.6968 48.5432 35.4797 49.3731 35.4797C49.9263 35.4797 49.9263 35.9776 49.9263 36.3649L49.8157 38.7438C49.8157 38.7992 49.7603 38.8545 49.705 38.8545H49.4284C49.3177 38.8545 49.3177 38.7992 49.3177 38.7438L49.4284 36.4202C49.4284 36.1436 49.4284 35.9776 49.2071 35.9776C48.7645 35.9776 47.8793 37.5267 47.8793 38.4119V38.7438C47.8793 38.7992 47.824 38.8545 47.7133 38.8545H47.4367C47.326 38.8545 47.326 38.7992 47.326 38.7438L47.5473 34.3178Z" fill="#231F20"/>
<path d="M51.2541 37.416C51.2541 38.1353 51.5307 38.4672 52.084 38.4672C52.5819 38.4672 52.8585 38.2459 52.9139 38.2459C52.9692 38.2459 52.9692 38.3012 52.9692 38.3012V38.5225C52.9692 38.6885 52.3053 38.8545 51.918 38.8545C51.1988 38.8545 50.7009 38.4672 50.7009 37.416C50.7009 36.0882 51.5307 35.369 52.3053 35.369C52.9139 35.369 53.1352 35.6456 53.1352 35.9776C53.1352 37.0288 51.5861 37.1394 51.1988 37.1394V37.416H51.2541ZM51.3094 36.8628C51.5307 36.8628 52.6372 36.8075 52.6372 36.1436C52.6372 35.9223 52.5266 35.7563 52.3053 35.7563C51.5861 35.8116 51.3094 36.6415 51.3094 36.8628Z" fill="#231F20"/>
<path d="M56.7313 34.9264C56.7313 34.8711 56.7866 34.8158 56.8973 34.8158H57.2292C57.3399 34.8158 57.3399 34.8711 57.3399 34.9264L58.391 38.7992C58.391 38.8545 58.3357 38.8545 58.2804 38.8545H57.9484C57.8931 38.8545 57.8378 38.7992 57.8378 38.7438L57.5612 37.5267H56.1227L55.6248 38.7992C55.6248 38.8545 55.5695 38.8545 55.5141 38.8545H55.1822C55.1269 38.8545 55.0715 38.8545 55.0715 38.7992L56.7313 34.9264ZM56.2334 37.1394H57.3952L57.1186 35.8669C57.0079 35.535 57.0079 35.369 57.0079 35.2584L56.2334 37.1394Z" fill="#231F20"/>
<path d="M60.2168 37.1394C60.4381 37.3607 60.6594 37.5267 60.6594 37.9693C60.6594 38.4672 60.2168 38.9651 59.4975 38.9651C59.1656 38.9651 58.6677 38.8545 58.6677 38.6332V38.4119C58.6677 38.3566 58.723 38.3012 58.723 38.3012C58.8336 38.3012 58.9996 38.5225 59.4422 38.5225C59.8295 38.5225 60.0508 38.3012 60.0508 38.0246C60.0508 37.8033 59.8848 37.6927 59.6635 37.4714L59.2209 37.1394C58.9996 36.9181 58.7783 36.8075 58.7783 36.3649C58.7783 35.8116 59.2209 35.4243 59.8848 35.4243C60.2168 35.4243 60.604 35.4797 60.604 35.6456V35.9223C60.604 35.9776 60.604 35.9776 60.5487 35.9776C60.4381 35.9776 60.3827 35.7563 59.8295 35.7563C59.6082 35.7563 59.3316 35.9223 59.3316 36.1436C59.3316 36.3649 59.4422 36.4202 59.6082 36.5862L60.2168 37.1394Z" fill="#231F20"/>
<path d="M62.5957 37.1394C62.817 37.3607 63.0383 37.5267 63.0383 37.9693C63.0383 38.4672 62.5957 38.9651 61.8765 38.9651C61.5446 38.9651 61.0466 38.8545 61.0466 38.6332V38.4119C61.0466 38.3566 61.102 38.3012 61.102 38.3012C61.2126 38.3012 61.3786 38.5225 61.8212 38.5225C62.2085 38.5225 62.4298 38.3012 62.4298 38.0246C62.4298 37.8033 62.2638 37.6927 62.0425 37.4714L61.5999 37.1394C61.3786 36.9181 61.1573 36.8075 61.1573 36.3649C61.1573 35.8116 61.5999 35.4243 62.2638 35.4243C62.5957 35.4243 62.983 35.4797 62.983 35.6456V35.9223C62.983 35.9776 62.983 35.9776 62.9277 35.9776C62.817 35.9776 62.7617 35.7563 62.2085 35.7563C61.9872 35.7563 61.7105 35.9223 61.7105 36.1436C61.7105 36.3649 61.8212 36.4202 61.9872 36.5862L62.5957 37.1394Z" fill="#231F20"/>
<path d="M63.5363 37.416C63.5363 36.1989 64.1448 35.4243 65.0301 35.4243C65.8599 35.4243 66.2472 36.0882 66.2472 36.9181C66.2472 38.1353 65.5833 38.9098 64.7534 38.9098C63.9789 38.9098 63.5363 38.3012 63.5363 37.416ZM64.8088 38.5225C65.362 38.5225 65.694 37.9693 65.694 37.0288C65.694 36.4202 65.528 35.8669 64.9747 35.8669C64.4215 35.8669 64.0895 36.4202 64.0895 37.416C64.0895 38.0246 64.2555 38.5225 64.8088 38.5225Z" fill="#231F20"/>
<path d="M68.9581 38.6332C68.9581 38.7992 68.3496 38.9651 67.907 38.9651C67.1877 38.9651 66.6898 38.5779 66.6898 37.582C66.6898 36.1989 67.4644 35.4797 68.2942 35.4797C68.6815 35.4797 69.0688 35.5903 69.0688 35.7563V35.9776C69.0688 36.0329 69.0688 36.0329 69.0135 36.0329C68.9581 36.0329 68.7922 35.8669 68.4049 35.8669C67.6303 35.8669 67.2431 36.5308 67.2431 37.5267C67.2431 38.1353 67.5197 38.5225 68.0729 38.5225C68.5155 38.5225 68.7922 38.3012 68.8475 38.3012C68.9028 38.3012 68.9028 38.3012 68.9028 38.3566V38.6332H68.9581Z" fill="#231F20"/>
<path d="M69.788 35.6456C69.788 35.5903 69.8433 35.535 69.954 35.535H70.2306C70.3413 35.535 70.3413 35.5903 70.3413 35.6456L70.1753 38.7438C70.1753 38.7992 70.12 38.8545 70.0093 38.8545H69.7327C69.622 38.8545 69.622 38.7992 69.622 38.7438L69.788 35.6456ZM69.788 34.5391C69.788 34.2625 69.8987 34.2072 70.12 34.2072C70.3966 34.2072 70.4519 34.2625 70.4519 34.5391C70.4519 34.8711 70.3413 34.8711 70.0646 34.8711C69.788 34.8711 69.788 34.8158 69.788 34.5391Z" fill="#231F20"/>
<path d="M73.2182 37.3607C73.1075 37.582 72.6649 38.9651 71.7797 38.9651C71.1711 38.9651 71.0052 38.4119 71.0052 37.8033C71.0052 36.5862 71.7244 35.4797 72.7202 35.4797C73.0522 35.4797 73.2735 35.5903 73.3841 35.6456C73.3841 35.5903 73.4395 35.535 73.4948 35.535H73.7161C73.8267 35.535 73.8267 35.5903 73.8267 35.6456L73.6608 38.7438C73.6608 38.7992 73.6054 38.8545 73.4948 38.8545H73.2182C73.1075 38.8545 73.1075 38.7992 73.1075 38.7438L73.2182 37.3607ZM71.8904 38.4672C72.6096 38.4672 73.3288 36.3649 73.3841 35.9223C73.2735 35.8669 73.1075 35.7563 72.8309 35.7563C72.0563 35.7563 71.5584 36.6415 71.5584 37.6927C71.5584 38.1353 71.6137 38.4672 71.8904 38.4672Z" fill="#231F20"/>
<path d="M76.427 38.6332C76.427 38.7992 75.9844 38.9098 75.6525 38.9098C75.1545 38.9098 74.8226 38.6885 74.8226 38.0246L74.9332 35.8669H74.6013C74.4906 35.8669 74.4906 35.8116 74.4906 35.7563V35.5903C74.4906 35.535 74.546 35.4797 74.6013 35.4797H74.9332L74.9886 34.7051C74.9886 34.5945 75.0439 34.5945 75.1545 34.5945H75.4312C75.5418 34.5945 75.5418 34.6498 75.5418 34.7051L75.4865 35.4797H76.4823C76.593 35.4797 76.593 35.535 76.593 35.5903V35.7563C76.593 35.8116 76.5377 35.8669 76.4823 35.8669H75.4865L75.3758 37.914C75.3758 38.2459 75.4312 38.4672 75.7631 38.4672C76.2057 38.4672 76.3164 38.3012 76.427 38.3012C76.4823 38.3012 76.4823 38.3566 76.4823 38.3566V38.6332H76.427Z" fill="#231F20"/>
<path d="M76.9803 35.6456C76.9803 35.5903 77.0356 35.535 77.1462 35.535H77.4229C77.5335 35.535 77.5335 35.5903 77.5335 35.6456L77.3675 38.7438C77.3675 38.7992 77.3122 38.8545 77.2016 38.8545H76.9249C76.8143 38.8545 76.8143 38.7992 76.8143 38.7438L76.9803 35.6456ZM76.9803 34.5391C76.9803 34.2625 77.0909 34.2072 77.3122 34.2072C77.5888 34.2072 77.6442 34.2625 77.6442 34.5391C77.6442 34.8711 77.5335 34.8711 77.2569 34.8711C77.0356 34.8711 76.9803 34.8158 76.9803 34.5391Z" fill="#231F20"/>
<path d="M78.1974 37.416C78.1974 36.1989 78.806 35.4243 79.6912 35.4243C80.5211 35.4243 80.9083 36.0882 80.9083 36.9181C80.9083 38.1353 80.2444 38.9098 79.4146 38.9098C78.64 38.9098 78.1974 38.3012 78.1974 37.416ZM79.4699 38.5225C80.0231 38.5225 80.3551 37.9693 80.3551 37.0288C80.3551 36.4202 80.1891 35.8669 79.6359 35.8669C79.0826 35.8669 78.7507 36.4202 78.7507 37.416C78.7507 38.0246 78.9166 38.5225 79.4699 38.5225Z" fill="#231F20"/>
<path d="M81.7382 35.6456C81.7382 35.5903 81.7935 35.535 81.9042 35.535H82.1808C82.2915 35.535 82.2915 35.5903 82.2915 35.6456L82.2361 37.0288C82.2915 36.6415 82.8447 35.4243 83.6746 35.4243C84.2278 35.4243 84.2278 35.9223 84.2278 36.3095L84.1172 38.6885C84.1172 38.7438 84.0619 38.7992 84.0065 38.7992H83.7299C83.6193 38.7992 83.6193 38.7438 83.6193 38.6885L83.7299 36.3649C83.7299 36.0882 83.7299 35.9223 83.5086 35.9223C83.066 35.9223 82.1808 37.4714 82.1808 38.3566V38.6885C82.1808 38.7438 82.1255 38.7992 82.0148 38.7992H81.7382C81.6276 38.7992 81.6276 38.7438 81.6276 38.6885L81.7382 35.6456Z" fill="#231F20"/>
<path d="M86.9941 40.2929C86.8834 40.2929 86.8834 40.2376 86.8834 40.1823L87.1047 35.9223H86.7175C86.6068 35.9223 86.6068 35.8669 86.6068 35.8116V35.6456C86.6068 35.5903 86.6621 35.535 86.7175 35.535H87.1047V35.1477C87.1601 34.4838 87.5473 34.1519 88.1559 34.1519C88.3772 34.1519 88.7645 34.2072 88.7645 34.3732V34.5945C88.7645 34.6498 88.7645 34.6498 88.7092 34.6498C88.5985 34.6498 88.5432 34.5391 88.2112 34.5391C87.9346 34.5391 87.7133 34.7051 87.7133 35.0924V35.535H88.4325C88.5432 35.535 88.5432 35.5903 88.5432 35.6456V35.8116C88.5432 35.8669 88.4879 35.9223 88.4325 35.9223H87.7133L87.492 40.1823C87.492 40.2376 87.4367 40.2929 87.3814 40.2929H86.9941Z" fill="#231F20"/>
<path d="M88.4879 37.416C88.4879 36.1989 89.0964 35.4243 89.9816 35.4243C90.8115 35.4243 91.1988 36.0882 91.1988 36.9181C91.1988 38.1353 90.5349 38.9098 89.705 38.9098C88.8751 38.9098 88.4879 38.3012 88.4879 37.416ZM89.7603 38.5225C90.3136 38.5225 90.6455 37.9693 90.6455 37.0288C90.6455 36.4202 90.4796 35.8669 89.9263 35.8669C89.3731 35.8669 89.0411 36.4202 89.0411 37.416C88.9858 38.0246 89.2071 38.5225 89.7603 38.5225Z" fill="#231F20"/>
<path d="M91.9733 35.6456C91.9733 35.5903 92.0287 35.535 92.084 35.535H92.3606C92.4713 35.535 92.4713 35.5903 92.4713 35.6456L92.4159 36.9734C92.4713 36.6415 92.7479 35.4797 93.5778 35.4797C93.7991 35.4797 93.9097 35.535 93.9097 35.701V36.0329C93.9097 36.0882 93.8544 36.1436 93.8544 36.1436C93.7437 36.1436 93.6884 36.0329 93.4671 36.0329C92.8585 36.0329 92.3606 38.0799 92.3606 38.4672V38.7992C92.3606 38.8545 92.3053 38.9098 92.1946 38.9098H91.918C91.8074 38.9098 91.8074 38.8545 91.8074 38.7992L91.9733 35.6456Z" fill="#231F20"/>
<path d="M96.178 34.9817C96.178 34.9264 96.2334 34.8711 96.344 34.8711H96.676C96.7866 34.8711 96.7866 34.9264 96.7866 34.9817L96.6206 38.5225H98.1144C98.2251 38.5225 98.2251 38.5779 98.2251 38.6332V38.7992C98.2251 38.8545 98.1697 38.9098 98.1144 38.9098H96.178C96.0674 38.9098 96.0674 38.8545 96.0674 38.7992L96.178 34.9817Z" fill="#231F20"/>
<path d="M100.604 37.3607C100.493 37.582 100.051 38.9651 99.1656 38.9651C98.557 38.9651 98.3911 38.4119 98.3911 37.8033C98.3911 36.5862 99.1103 35.4797 100.106 35.4797C100.438 35.4797 100.659 35.5903 100.77 35.6456C100.77 35.5903 100.825 35.535 100.881 35.535H101.102C101.213 35.535 101.213 35.5903 101.213 35.6456L101.047 38.7438C101.047 38.7992 100.991 38.8545 100.881 38.8545H100.604C100.493 38.8545 100.493 38.7992 100.493 38.7438L100.604 37.3607ZM99.2762 38.4672C99.9955 38.4672 100.715 36.3649 100.77 35.9223C100.659 35.8669 100.493 35.7563 100.217 35.7563C99.4422 35.7563 98.9443 36.6415 98.9443 37.6927C98.9443 38.1353 98.9996 38.4672 99.2762 38.4672Z" fill="#231F20"/>
<path d="M102.264 35.6456C102.264 35.5903 102.319 35.535 102.374 35.535H102.651C102.762 35.535 102.762 35.5903 102.762 35.6456L102.706 36.9734C102.762 36.6415 103.038 35.4797 103.868 35.4797C104.09 35.4797 104.2 35.535 104.2 35.701V36.0329C104.2 36.0882 104.145 36.1436 104.145 36.1436C104.034 36.1436 103.979 36.0329 103.758 36.0329C103.149 36.0329 102.651 38.0799 102.651 38.4672V38.7992C102.651 38.8545 102.596 38.9098 102.485 38.9098H102.208C102.098 38.9098 102.098 38.8545 102.098 38.7992L102.264 35.6456Z" fill="#231F20"/>
<path d="M106.856 39.0205C106.8 39.7397 106.192 40.2376 105.362 40.2376C104.975 40.2376 104.2 40.0716 104.2 39.9057V39.6844C104.2 39.629 104.256 39.5737 104.311 39.5737C104.421 39.5737 104.753 39.8503 105.307 39.8503C105.86 39.8503 106.247 39.629 106.303 39.0205L106.413 37.3054C106.303 37.582 105.86 38.9098 104.975 38.9098C104.366 38.9098 104.2 38.3566 104.2 37.748C104.2 36.4202 104.975 35.4243 105.86 35.4243C106.247 35.4243 106.469 35.5903 106.579 35.6456C106.579 35.5903 106.634 35.535 106.69 35.535H106.966C107.077 35.535 107.077 35.5903 107.077 35.6456L106.856 39.0205ZM105.03 38.4672C105.694 38.4672 106.469 36.3649 106.524 35.9223C106.469 35.8669 106.247 35.7563 105.971 35.7563C105.251 35.7563 104.753 36.6415 104.753 37.6927C104.753 38.1353 104.809 38.4672 105.03 38.4672Z" fill="#231F20"/>
<path d="M108.239 37.416C108.239 38.1353 108.516 38.4672 109.069 38.4672C109.567 38.4672 109.843 38.2459 109.899 38.2459C109.954 38.2459 109.954 38.3012 109.954 38.3012V38.5225C109.954 38.6885 109.29 38.8545 108.903 38.8545C108.184 38.8545 107.686 38.4672 107.686 37.416C107.686 36.0882 108.516 35.369 109.29 35.369C109.899 35.369 110.12 35.6456 110.12 35.9776C110.12 37.0288 108.571 37.1394 108.184 37.1394V37.416H108.239ZM108.294 36.8628C108.516 36.8628 109.622 36.8075 109.622 36.1436C109.622 35.9223 109.511 35.7563 109.29 35.7563C108.571 35.8116 108.35 36.6415 108.294 36.8628Z" fill="#231F20"/>
<path d="M112.665 34.9817C112.665 34.9264 112.72 34.8711 112.776 34.8711H113.163C113.273 34.8711 113.329 34.8711 113.495 35.203L114.767 37.582C114.933 37.8586 114.989 38.0799 115.044 38.2459L115.21 34.9817C115.21 34.9264 115.265 34.8711 115.321 34.8711H115.542C115.652 34.8711 115.652 34.9264 115.652 34.9817L115.486 38.7438C115.486 38.7992 115.431 38.8545 115.376 38.8545H114.989C114.823 38.8545 114.657 38.4672 114.435 38.0246L113.384 36.0882C113.218 35.8116 113.163 35.6456 113.107 35.4243L112.942 38.6885C112.942 38.7438 112.886 38.7992 112.831 38.7992H112.61C112.499 38.7992 112.499 38.7438 112.499 38.6885L112.665 34.9817Z" fill="#231F20"/>
<path d="M116.87 37.416C116.87 38.1353 117.146 38.4672 117.699 38.4672C118.197 38.4672 118.474 38.2459 118.529 38.2459C118.585 38.2459 118.585 38.3012 118.585 38.3012V38.5225C118.585 38.6885 117.921 38.8545 117.534 38.8545C116.814 38.8545 116.316 38.4672 116.316 37.416C116.316 36.0882 117.146 35.369 117.921 35.369C118.529 35.369 118.751 35.6456 118.751 35.9776C118.751 37.0288 117.202 37.1394 116.814 37.1394V37.416H116.87ZM116.925 36.8628C117.146 36.8628 118.253 36.8075 118.253 36.1436C118.253 35.9223 118.142 35.7563 117.921 35.7563C117.202 35.8116 116.98 36.6415 116.925 36.8628Z" fill="#231F20"/>
<path d="M119.027 35.5903C119.027 35.535 119.083 35.535 119.138 35.535H119.47C119.525 35.535 119.525 35.535 119.581 35.5903L120.189 37.8033C120.244 38.0799 120.3 38.3012 120.3 38.4119C120.355 38.2459 120.41 38.0799 120.466 37.8586L121.406 35.5903C121.406 35.535 121.462 35.4797 121.517 35.4797H121.849C121.904 35.4797 121.96 35.535 121.96 35.535L120.576 38.6885C120.521 38.7992 120.521 38.7992 120.41 38.7992H120.078C119.968 38.7992 119.912 38.7438 119.912 38.6885L119.027 35.5903Z" fill="#231F20"/>
<path d="M122.291 35.6456C122.291 35.5903 122.347 35.535 122.457 35.535H122.734C122.845 35.535 122.845 35.5903 122.845 35.6456L122.679 38.7438C122.679 38.7992 122.623 38.8545 122.513 38.8545H122.291C122.181 38.8545 122.181 38.7992 122.181 38.7438L122.291 35.6456ZM122.291 34.5391C122.291 34.2625 122.402 34.2072 122.623 34.2072C122.9 34.2072 122.955 34.2625 122.955 34.5391C122.955 34.8711 122.845 34.8711 122.568 34.8711C122.347 34.8711 122.291 34.8158 122.291 34.5391Z" fill="#231F20"/>
<path d="M128.93 37.3054C128.875 38.2459 128.101 38.9098 127.049 38.9098C126.164 38.9098 125.445 38.5779 125.445 37.748C125.445 37.0288 126.054 36.7521 126.275 36.6968C126.109 36.6415 125.722 36.4202 125.722 35.8669C125.722 35.1477 126.386 34.7604 127.105 34.7604C127.437 34.7604 128.045 34.8711 128.045 35.0371V35.2584C128.045 35.3137 127.99 35.369 127.99 35.369C127.824 35.369 127.713 35.1477 127.215 35.1477C126.717 35.1477 126.33 35.4243 126.33 35.8116C126.33 36.2542 126.551 36.4755 127.049 36.4755H127.16C127.271 36.4755 127.271 36.5308 127.271 36.5862V36.6968C127.271 36.8075 127.215 36.8075 127.16 36.8075H126.939C126.386 36.8075 125.998 37.1394 125.998 37.6373C125.998 38.2459 126.496 38.4672 127.105 38.4672C127.879 38.4672 128.488 38.0246 128.488 37.3054V36.8628H127.879C127.769 36.8628 127.769 36.8075 127.769 36.7521V36.6415C127.769 36.5308 127.824 36.5308 127.879 36.5308H129.539C129.65 36.5308 129.65 36.5862 129.65 36.6415V36.7521C129.65 36.8628 129.594 36.8628 129.539 36.8628H128.986L128.93 37.3054Z" fill="#231F20"/>
<path d="M131.918 34.9817C131.918 34.9264 131.973 34.8711 132.084 34.8711H133.135C133.965 34.8711 134.297 35.2584 134.297 35.8669C134.297 36.5862 133.633 36.8628 133.19 36.9181L133.633 37.582C133.799 37.8586 134.518 38.7992 134.518 38.8545C134.518 38.9098 134.463 38.9098 134.463 38.9098H133.91C133.854 38.9098 133.799 38.9098 133.799 38.8545L132.582 36.9734H132.361L132.25 38.7992C132.25 38.8545 132.195 38.9098 132.139 38.9098H131.807C131.697 38.9098 131.697 38.8545 131.697 38.7992L131.918 34.9817ZM132.416 36.5862H132.914C133.412 36.5862 133.688 36.3095 133.688 35.9223C133.688 35.535 133.522 35.2584 133.025 35.2584H132.471L132.416 36.5862Z" fill="#231F20"/>
<path d="M135.182 37.416C135.182 38.1353 135.459 38.4672 136.012 38.4672C136.51 38.4672 136.787 38.2459 136.842 38.2459C136.897 38.2459 136.897 38.3012 136.897 38.3012V38.5225C136.897 38.6885 136.233 38.8545 135.846 38.8545C135.127 38.8545 134.629 38.4672 134.629 37.416C134.629 36.0882 135.459 35.369 136.233 35.369C136.842 35.369 137.063 35.6456 137.063 35.9776C137.063 37.0288 135.514 37.1394 135.127 37.1394V37.416H135.182ZM135.238 36.8628C135.459 36.8628 136.565 36.8075 136.565 36.1436C136.565 35.9223 136.455 35.7563 136.233 35.7563C135.514 35.8116 135.238 36.6415 135.238 36.8628Z" fill="#231F20"/>
<path d="M137.893 34.3178C137.893 34.2625 137.948 34.2072 138.059 34.2072H138.336C138.391 34.2072 138.446 34.2625 138.446 34.3178L138.225 38.7992C138.225 38.8545 138.17 38.9098 138.059 38.9098H137.782C137.672 38.9098 137.672 38.8545 137.672 38.7992L137.893 34.3178Z" fill="#231F20"/>
<path d="M141.213 37.3607C141.157 37.582 140.659 38.9651 139.774 38.9651C139.166 38.9651 139 38.4119 139 37.8033C139 36.5862 139.719 35.4797 140.715 35.4797C141.047 35.4797 141.268 35.5903 141.379 35.6456C141.379 35.5903 141.434 35.535 141.489 35.535H141.711C141.821 35.535 141.821 35.5903 141.821 35.6456L141.655 38.7438C141.655 38.7992 141.6 38.8545 141.489 38.8545H141.213C141.102 38.8545 141.102 38.7992 141.102 38.7438L141.213 37.3607ZM139.885 38.4672C140.604 38.4672 141.323 36.3649 141.379 35.9223C141.268 35.8669 141.102 35.7563 140.825 35.7563C140.051 35.7563 139.553 36.6415 139.553 37.6927C139.553 38.1353 139.664 38.4672 139.885 38.4672Z" fill="#231F20"/>
<path d="M144.421 38.6332C144.421 38.7992 143.979 38.9098 143.647 38.9098C143.149 38.9098 142.817 38.6885 142.817 38.0246L142.928 35.8669H142.596C142.485 35.8669 142.485 35.8116 142.485 35.7563V35.5903C142.485 35.535 142.54 35.4797 142.596 35.4797H142.928L142.983 34.7051C142.983 34.5945 143.038 34.5945 143.149 34.5945H143.426C143.536 34.5945 143.536 34.6498 143.536 34.7051L143.481 35.4797H144.477C144.587 35.4797 144.587 35.535 144.587 35.5903V35.7563C144.587 35.8116 144.532 35.8669 144.477 35.8669H143.481L143.37 37.914C143.37 38.2459 143.426 38.4672 143.758 38.4672C144.2 38.4672 144.311 38.3012 144.421 38.3012C144.477 38.3012 144.477 38.3566 144.477 38.3566V38.6332H144.421Z" fill="#231F20"/>
<path d="M145.196 37.416C145.196 38.1353 145.473 38.4672 146.026 38.4672C146.524 38.4672 146.8 38.2459 146.856 38.2459C146.911 38.2459 146.911 38.3012 146.911 38.3012V38.5225C146.911 38.6885 146.247 38.8545 145.86 38.8545C145.141 38.8545 144.643 38.4672 144.643 37.416C144.643 36.0882 145.473 35.369 146.247 35.369C146.856 35.369 147.077 35.6456 147.077 35.9776C147.077 37.0288 145.528 37.1394 145.141 37.1394V37.416H145.196ZM145.251 36.8628C145.473 36.8628 146.579 36.8075 146.579 36.1436C146.579 35.9223 146.469 35.7563 146.247 35.7563C145.528 35.8116 145.307 36.6415 145.251 36.8628Z" fill="#231F20"/>
<path d="M149.733 37.3054C149.622 37.6373 149.124 38.9098 148.294 38.9098C147.741 38.9098 147.575 38.3566 147.575 37.748C147.575 36.4755 148.294 35.4243 149.29 35.4243C149.622 35.4243 149.843 35.535 149.899 35.5903L149.954 34.2625C149.954 34.2072 150.009 34.1519 150.065 34.1519H150.341C150.452 34.1519 150.452 34.2072 150.452 34.2625L150.231 38.7438C150.231 38.7992 150.175 38.8545 150.065 38.8545H149.788C149.677 38.8545 149.677 38.7992 149.677 38.7438L149.733 37.3054ZM148.35 38.4672C149.069 38.4672 149.677 36.5862 149.788 35.9223C149.733 35.9223 149.511 35.8116 149.29 35.8116C148.571 35.8116 148.073 36.6968 148.073 37.748C148.073 38.1353 148.128 38.4672 148.35 38.4672Z" fill="#231F20"/>
<path d="M153.218 34.9817C153.218 34.9264 153.273 34.8711 153.384 34.8711H154.491C155.763 34.8711 156.316 35.535 156.316 36.8075C156.316 37.914 155.486 38.9098 154.269 38.9098H153.163C153.052 38.9098 153.052 38.8545 153.052 38.7992L153.218 34.9817ZM153.605 38.4672H154.214C155.099 38.4672 155.763 37.6373 155.763 36.7521C155.763 35.8669 155.321 35.203 154.435 35.203H153.771L153.605 38.4672Z" fill="#231F20"/>
<path d="M157.146 35.6456C157.146 35.5903 157.202 35.535 157.312 35.535H157.589C157.699 35.535 157.699 35.5903 157.699 35.6456L157.534 38.7438C157.534 38.7992 157.478 38.8545 157.368 38.8545H157.146C157.036 38.8545 157.036 38.7992 157.036 38.7438L157.146 35.6456ZM157.146 34.5391C157.146 34.2625 157.257 34.2072 157.478 34.2072C157.755 34.2072 157.81 34.2625 157.81 34.5391C157.81 34.8711 157.699 34.8711 157.423 34.8711C157.202 34.8711 157.146 34.8158 157.146 34.5391Z" fill="#231F20"/>
<path d="M159.747 37.1394C159.968 37.3607 160.189 37.5267 160.189 37.9693C160.189 38.4672 159.747 38.9651 159.027 38.9651C158.695 38.9651 158.197 38.8545 158.197 38.6332V38.4119C158.197 38.3566 158.253 38.3012 158.253 38.3012C158.363 38.3012 158.529 38.5225 158.972 38.5225C159.359 38.5225 159.581 38.3012 159.581 38.0246C159.581 37.8033 159.415 37.6927 159.193 37.4714L158.751 37.1394C158.529 36.9181 158.308 36.8075 158.308 36.3649C158.308 35.8116 158.751 35.4243 159.415 35.4243C159.747 35.4243 160.134 35.4797 160.134 35.6456V35.9223C160.134 35.9776 160.134 35.9776 160.078 35.9776C159.968 35.9776 159.912 35.7563 159.359 35.7563C159.138 35.7563 158.861 35.9223 158.861 36.1436C158.861 36.3649 158.972 36.4202 159.138 36.5862L159.747 37.1394Z" fill="#231F20"/>
<path d="M160.742 37.416C160.742 36.1989 161.351 35.4243 162.236 35.4243C163.066 35.4243 163.453 36.0882 163.453 36.9181C163.453 38.1353 162.789 38.9098 161.96 38.9098C161.13 38.9098 160.742 38.3012 160.742 37.416ZM161.96 38.5225C162.513 38.5225 162.845 37.9693 162.845 37.0288C162.845 36.4202 162.679 35.8669 162.125 35.8669C161.572 35.8669 161.24 36.4202 161.24 37.416C161.24 38.0246 161.462 38.5225 161.96 38.5225Z" fill="#231F20"/>
<path d="M164.228 35.6456C164.228 35.5903 164.283 35.535 164.338 35.535H164.615C164.726 35.535 164.726 35.5903 164.726 35.6456L164.67 36.9734C164.726 36.6415 165.002 35.4797 165.832 35.4797C166.054 35.4797 166.164 35.535 166.164 35.701V36.0329C166.164 36.0882 166.109 36.1436 166.109 36.1436C165.998 36.1436 165.943 36.0329 165.722 36.0329C165.113 36.0329 164.615 38.0799 164.615 38.4672V38.7992C164.615 38.8545 164.56 38.9098 164.449 38.9098H164.173C164.062 38.9098 164.062 38.8545 164.062 38.7992L164.228 35.6456Z" fill="#231F20"/>
<path d="M168.377 37.3054C168.267 37.6373 167.769 38.9098 166.939 38.9098C166.386 38.9098 166.22 38.3566 166.22 37.748C166.22 36.4755 166.939 35.4243 167.935 35.4243C168.267 35.4243 168.488 35.535 168.543 35.5903L168.599 34.2625C168.599 34.2072 168.654 34.1519 168.709 34.1519H168.986C169.096 34.1519 169.096 34.2072 169.096 34.2625L168.875 38.7438C168.875 38.7992 168.82 38.8545 168.709 38.8545H168.433C168.322 38.8545 168.322 38.7992 168.322 38.7438L168.377 37.3054ZM167.049 38.4672C167.769 38.4672 168.377 36.5862 168.488 35.9223C168.433 35.9223 168.211 35.8116 167.99 35.8116C167.271 35.8116 166.773 36.6968 166.773 37.748C166.717 38.1353 166.773 38.4672 167.049 38.4672Z" fill="#231F20"/>
<path d="M170.258 37.416C170.258 38.1353 170.535 38.4672 171.088 38.4672C171.586 38.4672 171.863 38.2459 171.918 38.2459C171.973 38.2459 171.973 38.3012 171.973 38.3012V38.5225C171.973 38.6885 171.309 38.8545 170.922 38.8545C170.203 38.8545 169.705 38.4672 169.705 37.416C169.705 36.0882 170.535 35.369 171.309 35.369C171.918 35.369 172.139 35.6456 172.139 35.9776C172.139 37.0288 170.59 37.1394 170.203 37.1394V37.416H170.258ZM170.314 36.8628C170.535 36.8628 171.641 36.8075 171.641 36.1436C171.641 35.9223 171.531 35.7563 171.309 35.7563C170.59 35.8116 170.314 36.6415 170.314 36.8628Z" fill="#231F20"/>
<path d="M172.859 35.6456C172.859 35.5903 172.914 35.535 172.969 35.535H173.246C173.356 35.535 173.356 35.5903 173.356 35.6456L173.301 36.9734C173.356 36.6415 173.633 35.4797 174.463 35.4797C174.684 35.4797 174.795 35.535 174.795 35.701V36.0329C174.795 36.0882 174.74 36.1436 174.74 36.1436C174.629 36.1436 174.574 36.0329 174.352 36.0329C173.744 36.0329 173.246 38.0799 173.246 38.4672V38.7992C173.246 38.8545 173.19 38.9098 173.08 38.9098H172.803C172.693 38.9098 172.693 38.8545 172.693 38.7992L172.859 35.6456Z" fill="#231F20"/>
<path d="M176.289 37.1394C176.51 37.3607 176.731 37.5267 176.731 37.9693C176.731 38.4672 176.289 38.9651 175.569 38.9651C175.238 38.9651 174.74 38.8545 174.74 38.6332V38.4119C174.74 38.3566 174.795 38.3012 174.795 38.3012C174.906 38.3012 175.072 38.5225 175.514 38.5225C175.901 38.5225 176.123 38.3012 176.123 38.0246C176.123 37.8033 175.957 37.6927 175.735 37.4714L175.293 37.1394C175.072 36.9181 174.85 36.8075 174.85 36.3649C174.85 35.8116 175.293 35.4243 175.957 35.4243C176.289 35.4243 176.676 35.4797 176.676 35.6456V35.9223C176.676 35.9776 176.676 35.9776 176.621 35.9776C176.51 35.9776 176.455 35.7563 175.901 35.7563C175.68 35.7563 175.404 35.9223 175.404 36.1436C175.404 36.3649 175.514 36.4202 175.68 36.5862L176.289 37.1394Z" fill="#231F20"/>
</svg>
