<svg width="160" height="64" viewBox="0 0 160 64" fill="none" xmlns="http://www.w3.org/2000/svg">
<path d="M29.2893 41.4506C29.2893 43.7209 27.3887 45.6215 24.9072 45.6215H8.38207C6.00625 45.6215 4 43.7209 4 41.4506V11.2513C4 8.98104 5.90066 7.08038 8.38207 7.08038H24.8545C27.2303 7.08038 29.2365 8.98104 29.2365 11.2513C29.2893 11.1985 29.2893 41.4506 29.2893 41.4506Z" fill="url(#paint0_radial_3_6895)"/>
<path d="M9.06861 13.2047C9.1214 13.2575 9.1742 13.2575 9.1742 13.2575H12.342C12.5004 13.2575 12.6059 13.1519 12.6059 12.9935V12.2544C12.6059 12.096 12.5004 11.9904 12.342 11.9904H9.43818C9.27979 11.9904 9.1214 12.1488 9.06861 12.3072L8.96301 13.0463C9.01581 13.0991 9.01581 13.1519 9.06861 13.2047Z" fill="white"/>
<path d="M8.91022 17.3756C8.85742 17.4284 8.85742 17.4812 8.85742 17.5868L8.91022 18.3787C8.91022 18.5371 9.1214 18.6955 9.27979 18.6955H13.5035C13.5563 18.6955 13.6091 18.6955 13.6619 18.6427C13.7147 18.5899 13.7147 18.5371 13.6619 18.4843L13.5035 17.6924C13.4507 17.4812 13.2395 17.3228 12.9755 17.3228H9.1214C9.01581 17.3228 8.96301 17.3228 8.91022 17.3756Z" fill="white"/>
<path d="M11.1277 7.08038C10.9693 7.08038 10.7581 7.23877 10.6525 7.39716L10.3885 8.03071V8.08351H13.0283C13.1867 8.08351 13.3979 7.92512 13.4507 7.76673L13.7147 7.13318C13.7147 7.08038 13.7147 7.08038 13.7147 7.08038C13.6619 7.08038 11.1277 7.08038 11.1277 7.08038Z" fill="white"/>
<path d="M9.54377 10.6177H12.4476C12.6059 10.6177 12.7643 10.5121 12.7643 10.3537L12.8699 9.66739C12.8699 9.6146 12.8699 9.5618 12.8171 9.5618C12.8171 9.509 12.7643 9.509 12.7115 9.509H10.0717C9.91334 9.509 9.70216 9.66739 9.64936 9.82578L9.43818 10.5121C9.43818 10.5649 9.43818 10.6177 9.43818 10.6177C9.49097 10.6177 9.49097 10.6177 9.54377 10.6177Z" fill="white"/>
<path d="M16.0377 43.2457C15.9849 43.1929 15.8793 43.1929 15.8265 43.1929H13.6091C13.1867 43.1929 12.6587 43.5625 12.4476 43.932L11.814 45.1464C11.7084 45.3575 11.7084 45.4631 11.7612 45.5159C11.814 45.5687 11.9196 45.6215 12.0252 45.6215H14.137C14.5594 45.6215 15.0874 45.2519 15.2985 44.8824L15.9321 43.6681C16.0905 43.4569 16.0905 43.2985 16.0377 43.2457Z" fill="white"/>
<path d="M9.1214 14.683C8.96301 14.683 8.85742 14.7886 8.85742 14.947V15.6861C8.85742 15.8445 8.96301 15.9501 9.1214 15.9501H12.7643C12.8171 15.9501 12.8699 15.9501 12.9227 15.8973C12.9755 15.8445 12.9755 15.8445 12.9755 15.7917C12.9755 15.7917 12.9755 15.7917 12.9755 15.7389L12.9227 14.9998C12.8699 14.8414 12.7115 14.683 12.5531 14.683H9.1214Z" fill="white"/>
<path d="M16.724 39.4972H14.1898C13.8203 39.4972 13.5563 39.7612 13.5035 40.1307L13.3451 41.2922C13.3451 41.4506 13.3451 41.5562 13.4507 41.6618C13.5563 41.7674 13.6619 41.8202 13.8203 41.8202H16.1433C16.5129 41.8202 16.8296 41.5034 16.8824 41.1866L17.1464 40.0251C17.1992 39.8667 17.1464 39.7612 17.0936 39.6556C16.9352 39.55 16.8296 39.4972 16.724 39.4972Z" fill="white"/>
<path d="M17.4632 36.171C17.3576 36.0654 17.252 36.0126 17.0936 36.0126H13.9258C13.6091 36.0126 13.3451 36.2766 13.3451 36.5406V37.6493C13.3451 37.9661 13.6091 38.1773 13.9258 38.1773H16.8824C17.1992 38.1773 17.4632 37.9133 17.516 37.5965L17.6216 36.4878C17.5688 36.3822 17.516 36.2766 17.4632 36.171Z" fill="white"/>
<path d="M9.33259 21.2825C9.38538 21.4937 9.59657 21.7049 9.86055 21.7049H14.2954C14.3482 21.7049 14.401 21.7049 14.4538 21.6521C14.5066 21.5993 14.5066 21.5465 14.4538 21.4409L14.137 20.5962C14.0842 20.385 13.7675 20.1738 13.5563 20.1738H9.33259C9.22699 20.1738 9.1742 20.1738 9.1742 20.2266C9.1214 20.2794 9.1214 20.3322 9.1214 20.4378L9.33259 21.2825Z" fill="white"/>
<path d="M16.8296 29.8355C16.7768 29.5715 16.4601 29.3075 16.1961 29.3075H12.078C12.0252 29.3075 11.9196 29.3075 11.8668 29.4131C11.814 29.4659 11.814 29.5715 11.814 29.6771L12.078 30.6802C12.1308 30.9442 12.5004 31.2082 12.7115 31.2082H16.724C16.8296 31.2082 16.9352 31.1554 16.988 31.1026C17.0408 31.0498 17.0936 30.9442 17.0408 30.8386L16.8296 29.8355Z" fill="white"/>
<path d="M16.8296 32.6337H13.1339C13.0283 32.6337 12.9227 32.6865 12.8699 32.7393C12.8171 32.7921 12.7643 32.8977 12.8171 33.0561L13.0811 34.112C13.1339 34.376 13.4507 34.6927 13.9786 34.6927H17.1464C17.252 34.6927 17.6216 34.4288 17.6216 34.2176L17.516 33.1616C17.4104 32.7921 17.1464 32.6337 16.8296 32.6337Z" fill="white"/>
<path d="M11.1277 27.3541C11.2332 27.6181 11.55 27.882 11.7612 27.882L16.0377 27.9348C16.0905 27.9348 16.1961 27.9348 16.2489 27.882C16.3017 27.8292 16.3017 27.7236 16.3017 27.6181L16.0377 26.6677C15.9849 26.4037 15.6681 26.1398 15.4041 26.1398L10.9693 26.087C10.9165 26.087 10.8109 26.087 10.8109 26.1398C10.7581 26.1926 10.7581 26.2982 10.8109 26.351L11.1277 27.3541Z" fill="white"/>
<path d="M10.1245 24.2391C10.1773 24.5031 10.4941 24.7143 10.7581 24.7143H15.193C15.2457 24.7143 15.2985 24.7143 15.3513 24.6615C15.3513 24.6087 15.4041 24.6087 15.4041 24.5559C15.4041 24.5031 15.4041 24.5031 15.4041 24.4503L15.1402 23.5528C15.0874 23.2888 14.7706 23.0776 14.5066 23.0776H10.0717C10.0189 23.0776 9.96614 23.0776 9.91334 23.1304C9.86055 23.1832 9.86055 23.236 9.91334 23.3416L10.1245 24.2391Z" fill="white"/>
<path d="M25.1187 7.08044H16.3545C15.2986 9.24508 14.2427 11.9377 14.0843 14.7887C13.7675 19.2235 14.8234 22.9193 15.985 26.4038L17.0409 29.6772C18.0968 32.8449 19.0999 35.6959 18.8887 39.4972C18.7303 41.6091 17.8856 43.9849 16.7769 45.6216H25.1187C27.4945 45.6216 29.5007 43.7209 29.5007 41.4507V11.1985C29.448 8.92831 27.4945 7.08044 25.1187 7.08044Z" fill="#124B8F"/>
<path d="M151.143 8.8754C151.143 7.4499 152.199 6.34119 153.571 6.34119C154.944 6.34119 156 7.4499 156 8.8754C156 10.3009 154.944 11.4096 153.571 11.4096C152.199 11.4096 151.143 10.3009 151.143 8.8754ZM155.63 8.8754C155.63 7.66109 154.733 6.65796 153.571 6.65796C152.41 6.65796 151.512 7.66109 151.512 8.8754C151.512 10.0897 152.41 11.0928 153.571 11.0928C154.733 11.0928 155.63 10.0897 155.63 8.8754ZM152.674 7.39711H153.624C154.258 7.39711 154.574 7.71388 154.574 8.13625C154.574 8.55862 154.31 8.8226 153.941 8.8754L154.574 10.1425H154.152L153.518 8.98099H152.938V10.1953H152.568L152.674 7.39711ZM153.571 8.71701C153.941 8.71701 154.205 8.61142 154.205 8.24185C154.205 7.92507 153.941 7.76668 153.571 7.76668H152.99V8.66421L153.571 8.71701Z" fill="#124B8F"/>
<path d="M5.16151 57.5532H4L6.21743 49.7922H7.37895L9.59638 57.5532H8.38207L7.85411 55.7053H5.63668L5.16151 57.5532ZM7.37895 53.6463C7.11497 52.8016 6.95658 52.1152 6.79819 51.4289C6.6398 52.168 6.42862 52.8016 6.16464 53.6463L5.90066 54.5966H7.69572L7.37895 53.6463Z" fill="#AEB0B2"/>
<path d="M10.7051 49.7922H12.553C14.612 49.7922 15.9319 50.7953 15.9319 53.5935C15.9319 56.4445 14.612 57.4476 12.553 57.4476H10.7051V49.7922ZM12.7114 56.3917C14.1368 56.3917 14.7176 55.6525 14.7176 53.5935C14.7176 51.6928 14.084 50.9009 12.7114 50.9009H11.9722V56.3917H12.7114Z" fill="#AEB0B2"/>
<path d="M16.4071 49.7922H17.6214L18.6245 53.6991C18.8357 54.491 18.9941 55.1246 19.2053 55.8637C19.3637 55.1246 19.5748 54.491 19.786 53.6991L20.7892 49.7922H21.9507L19.7332 57.5532H18.5717L16.4071 49.7922Z" fill="#AEB0B2"/>
<path d="M23.165 57.5532H21.9507L24.1681 49.7922H25.3296L27.547 57.5532H26.3327L25.8048 55.7053H23.5345L23.165 57.5532ZM25.3824 53.6463C25.1184 52.8016 24.96 52.1152 24.8017 51.4289C24.6433 52.168 24.4321 52.8016 24.1681 53.6463L23.9041 54.5966H25.6464L25.3824 53.6463Z" fill="#AEB0B2"/>
<path d="M28.7086 49.7922H30.0285L32.0875 53.8575C32.3515 54.3854 32.5099 54.5966 32.7211 55.1774V49.7922H33.8298V57.5004H32.7211L30.4508 53.1711C30.1869 52.6432 30.0285 52.432 29.8173 51.8512V57.5004H28.7086V49.7922Z" fill="#AEB0B2"/>
<path d="M35.1497 53.6463C35.1497 51.0065 36.3112 49.6866 38.0007 49.6866C39.5846 49.6866 40.2181 50.6897 40.4821 52.2208L39.3206 52.432C39.1094 51.3233 38.7398 50.7953 37.9479 50.7953C36.8919 50.7953 36.3112 51.7456 36.3112 53.6463C36.3112 55.5469 36.8919 56.5501 37.9479 56.5501C38.7398 56.5501 39.1622 56.0749 39.4262 54.8078L40.5349 55.019C40.2181 56.5501 39.5318 57.6588 37.9479 57.6588C36.3112 57.6588 35.1497 56.3389 35.1497 53.6463Z" fill="#AEB0B2"/>
<path d="M41.9076 49.7922H43.1219V57.5004H41.9076V49.7922Z" fill="#AEB0B2"/>
<path d="M44.7586 49.7922H46.0785L48.1375 53.8575C48.4015 54.3854 48.5599 54.5966 48.7711 55.1774V49.7922H49.9326V57.5004H48.8239L46.5536 53.1711C46.2897 52.6432 46.1313 52.432 45.9201 51.8512V57.5004H44.8114V49.7922H44.7586Z" fill="#AEB0B2"/>
<path d="M51.2525 53.6463C51.2525 51.1121 52.3084 49.6866 54.1035 49.6866C55.529 49.6866 56.2681 50.5313 56.5849 52.2208L55.4762 52.4848C55.2122 51.3233 54.8426 50.8481 54.0507 50.8481C53.1531 50.8481 52.414 51.5872 52.414 53.6463C52.414 55.7581 53.0476 56.5501 54.1035 56.5501C54.9482 56.5501 55.4762 55.9693 55.5818 54.7022H54.3147V53.6991H56.6905V57.5004H55.7929V56.4973C55.5818 57.078 55.001 57.6588 53.9979 57.6588C52.2556 57.6588 51.2525 56.1277 51.2525 53.6463Z" fill="#AEB0B2"/>
<path d="M60.175 53.6463C60.175 51.1121 61.2309 49.6866 63.026 49.6866C64.4515 49.6866 65.1906 50.5313 65.5074 52.2208L64.3987 52.4848C64.1347 51.3233 63.7652 50.8481 62.9732 50.8481C62.0757 50.8481 61.3365 51.5872 61.3365 53.6463C61.3365 55.7581 61.9701 56.5501 63.026 56.5501C63.8707 56.5501 64.3987 55.9693 64.5043 54.7022H63.2372V53.6991H65.613V57.5004H64.7155V56.4973C64.5043 57.078 63.9235 57.6588 62.9204 57.6588C61.2309 57.6588 60.175 56.1277 60.175 53.6463Z" fill="#AEB0B2"/>
<path d="M67.1441 49.7922H68.3584V56.4445H71.315V57.5532H67.1441V49.7922Z" fill="#AEB0B2"/>
<path d="M71.8429 53.6463C71.8429 50.9537 73.1101 49.6338 74.7467 49.6338C76.3834 49.6338 77.6505 50.9537 77.6505 53.6463C77.6505 56.3389 76.3834 57.6588 74.7467 57.6588C73.1101 57.6588 71.8429 56.3389 71.8429 53.6463ZM76.5418 53.6463C76.5418 51.7456 75.9083 50.7953 74.8523 50.7953C73.7964 50.7953 73.1629 51.7456 73.1629 53.6463C73.1629 55.5469 73.7964 56.5501 74.8523 56.5501C75.8555 56.5501 76.5418 55.4942 76.5418 53.6463Z" fill="#AEB0B2"/>
<path d="M79.0232 49.7922H81.4518C82.7717 49.7922 83.8277 50.3201 83.8277 51.6928C83.8277 52.8016 83.1941 53.2767 82.6661 53.4879C83.3525 53.6463 84.0388 54.1215 84.0388 55.3886C84.0388 56.8669 82.9829 57.4476 81.6102 57.4476H79.0232V49.7922ZM81.3462 53.0127C82.191 53.0127 82.6134 52.7488 82.6134 51.9568C82.6134 51.1649 82.2438 50.8481 81.3462 50.8481H80.1847V53.0127H81.3462ZM81.5046 56.4445C82.4022 56.4445 82.8245 56.0221 82.8245 55.2302C82.8245 54.3326 82.2966 54.0687 81.399 54.0687H80.2375V56.4445H81.5046Z" fill="#AEB0B2"/>
<path d="M85.6755 57.5532H84.5668L86.7842 49.7922H87.9458L90.1632 57.5532H88.8961L88.3681 55.7053H86.1507L85.6755 57.5532ZM87.9986 53.6463C87.7346 52.8016 87.5762 52.1152 87.4178 51.4289C87.2594 52.168 87.0482 52.8016 86.7842 53.6463L86.5203 54.5966H88.2625L87.9986 53.6463Z" fill="#AEB0B2"/>
<path d="M91.2719 49.7922H92.4862V56.4445H95.4428V57.5532H91.2719V49.7922Z" fill="#AEB0B2"/>
<path d="M98.1882 55.7581L99.1913 55.2302C99.5609 55.9693 100.036 56.4973 100.881 56.4973C101.62 56.4973 102.095 56.1277 102.095 55.4942C102.095 54.755 101.409 54.3854 100.617 54.0159C99.6137 53.5407 98.4522 53.1183 98.4522 51.5872C98.4522 50.3729 99.4025 49.581 100.722 49.581C101.99 49.581 102.729 50.2673 103.151 51.2705L102.148 51.7984C101.831 51.1649 101.462 50.6897 100.722 50.6897C100.089 50.6897 99.7193 51.0593 99.7193 51.5872C99.7193 52.3264 100.353 52.6432 101.145 53.0127C102.148 53.4879 103.362 53.9631 103.362 55.4414C103.362 56.5501 102.517 57.5532 100.934 57.5532C99.5609 57.6588 98.6634 56.8141 98.1882 55.7581Z" fill="#AEB0B2"/>
<path d="M104.629 49.7922H106.847C108.272 49.7922 109.381 50.4257 109.381 52.168C109.381 54.0687 108.167 54.5966 106.794 54.5966H105.844V57.5004H104.629V49.7922ZM106.9 53.5407C107.797 53.5407 108.272 53.1711 108.272 52.2208C108.272 51.3233 107.85 50.9537 106.9 50.9537H105.896V53.5935L106.9 53.5407Z" fill="#AEB0B2"/>
<path d="M110.701 49.7922H111.915V57.5004H110.701V49.7922Z" fill="#AEB0B2"/>
<path d="M113.605 49.7922H114.925L116.984 53.8575C117.248 54.3854 117.406 54.5966 117.617 55.1774V49.7922H118.726V57.5004H117.617L115.347 53.1183C115.083 52.5904 114.925 52.3792 114.713 51.7984V57.4476H113.605V49.7922Z" fill="#AEB0B2"/>
<path d="M120.363 49.7922H124.533V50.9009H121.577V52.8543H123.689V53.9631H121.577V56.3389H124.692V57.4476H120.363V49.7922Z" fill="#AEB0B2"/>
<path d="M127.912 53.6463C127.912 51.0065 129.074 49.6866 130.763 49.6866C132.347 49.6866 132.981 50.6897 133.245 52.2208L132.136 52.432C131.925 51.3233 131.555 50.7953 130.763 50.7953C129.707 50.7953 129.127 51.7456 129.127 53.6463C129.127 55.5469 129.707 56.5501 130.763 56.5501C131.555 56.5501 131.978 56.0749 132.242 54.8078L133.35 55.019C133.034 56.5501 132.347 57.6588 130.763 57.6588C129.021 57.6588 127.912 56.3389 127.912 53.6463Z" fill="#AEB0B2"/>
<path d="M134.987 57.5532H133.878L136.096 49.7922H137.257L139.475 57.5532H138.26L137.732 55.7053H135.462L134.987 57.5532ZM137.257 53.6463C136.993 52.8016 136.835 52.1152 136.677 51.4289C136.518 52.168 136.307 52.8016 136.043 53.6463L135.779 54.5966H137.521L137.257 53.6463Z" fill="#AEB0B2"/>
<path d="M140.531 49.7922H142.801C144.332 49.7922 145.282 50.4785 145.282 52.1152C145.282 53.2239 144.702 53.9631 143.962 54.1743L145.441 57.3948H144.174L142.801 54.3854H141.745V57.3948H140.531V49.7922ZM142.801 53.4351C143.698 53.4351 144.174 53.1183 144.174 52.1152C144.174 51.2177 143.698 50.9009 142.801 50.9009H141.798V53.4351H142.801Z" fill="#AEB0B2"/>
<path d="M146.708 49.7922H150.879V50.9009H147.922V52.8543H150.034V53.9631H147.922V56.3389H151.037V57.4476H146.708V49.7922Z" fill="#AEB0B2"/>
<path d="M34.3574 7.08027H41.2737L52.0969 27.5651C53.4696 30.0466 54.1032 31.4721 55.4759 34.323H55.5814V7.08027H61.2834V45.6742H55.4231L43.5439 23.8694C42.2768 21.4408 41.5905 20.1737 40.2178 17.3227H40.1122V45.6214H34.3574V7.08027Z" fill="#124B8F"/>
<path d="M70.5755 45.6214H64.6624L76.3303 6.86909H82.4018L94.0698 45.6214H87.6815L85.0945 36.3821H73.2153L70.5755 45.6214ZM82.2963 26.298C81.0819 21.9688 80.1316 18.6954 79.2869 15.1053H79.1813C78.3366 18.801 77.3334 22.0216 76.1191 26.2452L74.7464 30.9441H83.6162L82.2963 26.298Z" fill="#124B8F"/>
<path d="M94.7033 37.0156L100.036 34.4814C101.831 38.1772 104.576 40.9754 108.853 40.9754C112.918 40.9754 115.294 39.1275 115.294 36.0125C115.294 32.1584 111.704 30.4689 107.586 28.7267C102.412 26.4564 96.34 24.0806 96.34 16.5836C96.34 10.5648 101.356 6.39392 108.114 6.39392C114.713 6.39392 118.62 9.98405 120.837 14.7885L115.505 17.4283C113.921 14.2077 111.862 11.7791 108.008 11.7791C104.735 11.7791 102.623 13.5214 102.623 16.214C102.623 19.9625 106.055 21.7048 109.961 23.4471C115.188 25.7173 121.471 28.1987 121.471 35.6957C121.471 41.3977 116.93 46.3078 108.853 46.3078C101.672 46.3606 97.2903 42.5064 94.7033 37.0156Z" fill="#124B8F"/>
<path d="M124.269 37.0156L129.602 34.4814C131.397 38.1772 134.142 40.9754 138.418 40.9754C142.484 40.9754 144.86 39.1275 144.86 36.0125C144.86 32.1584 141.269 30.4689 137.151 28.7267C131.977 26.4564 125.906 24.0806 125.906 16.5836C125.906 10.5648 130.921 6.39392 137.679 6.39392C144.279 6.39392 148.186 9.98405 150.403 14.7885L145.071 17.4283C143.487 14.2077 141.428 11.7791 137.574 11.7791C134.3 11.7791 132.189 13.5214 132.189 16.214C132.189 19.9625 135.62 21.7048 139.527 23.4471C144.754 25.7173 151.037 28.1987 151.037 35.6957C151.037 41.3977 146.496 46.3078 138.418 46.3078C131.238 46.3606 126.909 42.5064 124.269 37.0156Z" fill="#124B8F"/>
<defs>
<radialGradient id="paint0_radial_3_6895" cx="0" cy="0" r="1" gradientUnits="userSpaceOnUse" gradientTransform="translate(-23.3093 27.6832) scale(41.0718 41.0718)">
<stop offset="0.8009" stop-color="#AEB0B2"/>
<stop offset="0.8492" stop-color="#B4B5B8"/>
<stop offset="0.9234" stop-color="#C4C5C7"/>
<stop offset="1" stop-color="#DCDDDF"/>
</radialGradient>
</defs>
</svg>
