<svg width="160" height="64" viewBox="0 0 160 64" fill="none" xmlns="http://www.w3.org/2000/svg">
<path d="M30.865 32.0005V19.6388H21.404L16.3617 14.5694V5.1355H4V17.4972H13.461L18.5304 22.5666V29.0998L13.461 34.1692H4V46.5309H16.3617V37.097L21.4311 32.0276H30.865V32.0005ZM8.12056 9.25606H12.2411V13.3766H8.12056V9.25606ZM12.2411 42.3832H8.12056V38.2627H12.2411V42.3832Z" fill="#FFAE1A"/>
<path d="M44.5544 58.8656H39.1055V32.0006H44.5544V33.6272C45.4219 32.5699 47.3737 31.5669 49.4611 31.5669C55.1811 31.5669 58.4071 36.3109 58.4071 41.8412C58.4071 47.3714 55.154 52.0612 49.4611 52.0612C47.3466 52.0612 45.4219 51.0582 44.5544 50.001V58.8656ZM44.5544 45.04C45.2542 46.4348 46.6807 47.3159 48.2412 47.3172C51.1961 47.3172 52.931 44.9587 52.931 41.8412C52.931 38.6694 51.169 36.3109 48.2412 36.3109C46.6832 36.321 45.2609 37.1994 44.5544 38.5881V45.04ZM78.1695 51.6275H72.7206V49.8383C71.3596 51.2912 69.4521 52.1073 67.4615 52.0884C63.0698 52.0884 60.5758 49.1877 60.5758 44.8503V32.0277H66.0247V43.7388C66.0247 45.7991 67.0277 47.2087 69.1964 47.2087C70.8772 47.2087 72.314 46.2057 72.7206 44.4978V32.0277H78.1966V51.6275H78.1695ZM87.2239 58.8656H81.775V32.0006H87.2239V33.6272C88.0914 32.5699 90.0432 31.5669 92.1306 31.5669C97.8506 31.5669 101.077 36.3109 101.077 41.8412C101.077 47.3714 97.8235 52.0612 92.1306 52.0612C90.0161 52.0612 88.0914 51.0582 87.2239 50.001V58.8656ZM87.2239 45.04C87.9237 46.4348 89.3502 47.3159 90.9107 47.3172C93.8656 47.3172 95.6006 44.9587 95.6006 41.8412C95.6006 38.6694 93.8385 36.3109 90.9107 36.3109C89.3527 36.321 87.9304 37.1994 87.2239 38.5881V45.04ZM108.911 58.8656H103.462V32.0006H108.911V33.6272C109.779 32.5699 111.73 31.5669 113.818 31.5669C119.538 31.5669 122.764 36.3109 122.764 41.8412C122.764 47.3714 119.511 52.0612 113.818 52.0612C111.703 52.0612 109.779 51.0582 108.911 50.001V58.8656ZM108.911 45.04C109.611 46.4348 111.037 47.3159 112.598 47.3172C115.553 47.3172 117.288 44.9587 117.288 41.8412C117.288 38.6694 115.526 36.3109 112.598 36.3109C111.04 36.321 109.618 37.1994 108.911 38.5881V45.04ZM142.309 45.2027C141.604 49.3775 138.541 52.0612 133.607 52.0612C127.887 52.0612 124.092 47.8865 124.092 41.8412C124.092 35.9043 128.05 31.5669 133.526 31.5669C139.273 31.5669 142.445 35.5519 142.445 41.3261V43.0069H129.351C129.514 45.9617 131.195 47.6967 133.607 47.6967C135.451 47.6967 136.806 46.9105 137.24 45.2298H142.309V45.2027ZM129.487 39.6725H137.077C137.023 37.6122 135.803 35.9856 133.553 35.9856C131.466 35.9856 129.975 37.2598 129.487 39.6725ZM145.996 36.3923H143.014V32.0006H145.996V26.6873H151.391V32.0006H155.701V36.3923H151.391V44.9858C151.391 46.531 152.231 47.2359 153.641 47.2359C154.471 47.2307 155.284 47.0062 155.999 46.5852V51.4106C155.24 51.8173 153.939 52.0341 152.475 52.0341C148.49 52.0341 145.969 50.0552 145.969 45.7177V36.3923H145.996Z" fill="black"/>
</svg>
