<svg width="160" height="72" viewBox="0 0 160 72" fill="none" xmlns="http://www.w3.org/2000/svg">
<path d="M61.6067 56.0677C58.7961 56.0677 55.4947 54.7745 54.0671 52.6326C53.7552 52.231 53.6211 51.7854 53.6211 51.2943C53.6211 50.0902 54.7366 49.0637 55.9407 49.0637C56.5655 49.0637 57.1456 49.3756 57.7253 50.0455C58.6176 51.1602 59.9116 51.6959 61.6067 51.6959C64.5959 51.6959 66.3358 49.956 66.3358 48.1267C66.3358 46.164 64.3727 44.8254 61.9193 43.9331C59.4656 43.0412 56.833 42.1932 55.0935 40.0073C54.2459 38.8918 53.7996 37.5539 53.7996 35.9031C53.7996 31.3078 57.6363 28.6309 61.9193 28.6309C64.7743 28.6309 67.8972 30.1923 69.4587 32.557C69.6818 32.914 69.8156 33.3152 69.8156 33.8059C69.8156 35.0551 68.7448 36.0368 67.4956 36.0368C66.8265 36.0368 66.2467 35.6795 65.7114 34.9661C64.7743 33.6721 63.5251 33.003 61.9193 33.003C59.599 33.003 58.2607 34.2969 58.2607 35.9031C58.2607 37.5539 60.2238 38.669 62.6775 39.5613C65.1313 40.4984 67.7635 41.4354 69.5034 43.7993C70.351 45.0042 70.7969 46.4315 70.7969 48.1267C70.7969 52.9005 66.5589 56.0677 61.6067 56.0677ZM78.5475 62.3767C78.5475 63.7627 77.5196 64.6118 76.3128 64.6118C75.106 64.6118 74.0781 63.7627 74.0781 62.3767V38.2405C74.0781 32.9217 78.3687 28.6311 83.6876 28.6311C89.0068 28.6311 93.2974 32.9217 93.2974 38.2405V46.5099C93.2974 51.8284 89.0068 56.1193 83.6876 56.1193C81.6764 56.1193 79.9778 55.4934 78.5475 54.1976V62.3767ZM78.5475 46.5099C78.5475 49.3701 80.8269 51.6499 83.6876 51.6499C86.5482 51.6499 88.8276 49.3701 88.8276 46.5099V38.2405C88.8276 35.3799 86.5482 33.1005 83.6876 33.1005C80.8269 33.1005 78.5475 35.3799 78.5475 38.2405V46.5099ZM110.452 34.989C109.865 34.989 109.324 34.7632 108.828 34.2673L108.738 34.1771C107.881 33.5008 106.935 33.1401 105.807 33.1401C103.147 33.1401 101.524 34.989 101.524 38.6412V53.6568C101.524 55.0548 100.487 55.9114 99.2689 55.9114C98.0512 55.9114 97.0143 55.0548 97.0143 53.6568V38.6412C97.0143 33.0049 100.216 28.6309 105.807 28.6309C107.971 28.6309 110.586 29.6228 112.075 31.1109C112.526 31.6069 112.751 32.1032 112.751 32.6889C112.751 33.9066 111.669 34.989 110.452 34.989ZM133.72 41.3455C133.72 42.5504 132.694 43.5761 131.49 43.5761H118.998V46.4762C118.998 49.1527 121.586 51.6065 124.575 51.6065C126.359 51.6065 127.787 51.0268 128.902 49.9113C129.393 49.2418 129.973 48.8852 130.687 48.8852C131.891 48.8852 133.007 49.9113 133.007 51.1154C133.007 52.0081 132.516 52.5878 131.98 53.1232C130.152 55.0863 127.653 56.0676 124.575 56.0676C119.355 56.0676 114.536 51.7853 114.536 46.4762V38.2227C114.536 32.9139 118.82 28.6309 124.129 28.6309C129.437 28.6309 133.72 32.9139 133.72 38.2227V41.3455ZM129.259 39.115V38.2227C129.259 35.3673 126.984 33.0924 124.129 33.0924C121.273 33.0924 118.998 35.3673 118.998 38.2227V39.115H129.259ZM156 41.3455C156 42.5504 154.974 43.5761 153.77 43.5761H141.278V46.4762C141.278 49.1527 143.866 51.6065 146.855 51.6065C148.639 51.6065 150.067 51.0268 151.182 49.9113C151.673 49.2418 152.253 48.8852 152.967 48.8852C154.171 48.8852 155.287 49.9113 155.287 51.1154C155.287 52.0081 154.796 52.5878 154.261 53.1232C152.432 55.0863 149.934 56.0676 146.855 56.0676C141.635 56.0676 136.816 51.7853 136.816 46.4762V38.2227C136.816 32.9139 141.1 28.6309 146.409 28.6309C151.718 28.6309 156 32.9139 156 38.2227V41.3455ZM151.539 39.115V38.2227C151.539 35.3673 149.264 33.0924 146.409 33.0924C143.553 33.0924 141.278 35.3673 141.278 38.2227V39.115H151.539Z" fill="#0066CC"/>
<path d="M21.0947 52.4629C21.0947 54.1578 19.7211 55.5313 18.0263 55.5313C16.3318 55.5313 14.9583 54.1578 14.9583 52.4629C14.9583 50.7681 16.3318 49.3945 18.0263 49.3945C19.7211 49.3945 21.0947 50.7681 21.0947 52.4629Z" fill="#0066CC"/>
<path d="M33.994 52.4629C33.994 54.1578 32.6201 55.5313 30.9256 55.5313C29.2312 55.5313 27.8576 54.1578 27.8576 52.4629C27.8576 50.7681 29.2312 49.3945 30.9256 49.3945C32.6201 49.3945 33.994 50.7681 33.994 52.4629Z" fill="#0066CC"/>
<path d="M32.0529 46.3265H16.8995C15.6826 46.3265 14.5859 45.5931 14.1216 44.4683L10.13 34.8047H7.00566C5.34578 34.8047 4 33.4589 4 31.7991C4 30.1392 5.34578 28.7934 7.00566 28.7934H12.1405C13.3574 28.7934 14.4541 29.5271 14.9184 30.6516L18.9099 40.3152H30.0624L34.1697 30.6261C34.8178 29.0973 36.5817 28.385 38.1105 29.0316C39.6385 29.6797 40.3523 31.4436 39.7046 32.972L34.8204 44.4938C34.3493 45.6048 33.2597 46.3265 32.0529 46.3265Z" fill="#0066CC"/>
<path d="M35.41 18.822C34.26 17.6243 32.3574 17.586 31.16 18.736L27.4183 22.3285V8.00468C27.4183 6.34443 26.0729 4.99902 24.4127 4.99902C22.7528 4.99902 21.407 6.34443 21.407 8.00468V22.2583L17.8062 18.7507C16.6171 17.5927 14.7142 17.6172 13.5559 18.8066C12.3976 19.9958 12.4224 21.8987 13.6115 23.057L22.3155 31.5349C22.3553 31.5736 22.3981 31.6077 22.4395 31.6438C22.4613 31.663 22.4823 31.6829 22.5048 31.7017C22.607 31.7858 22.7134 31.8625 22.8234 31.9312C22.8388 31.9406 22.8554 31.9493 22.8711 31.959C22.9794 32.0237 23.0906 32.0811 23.2044 32.1311C23.2149 32.1356 23.2239 32.142 23.2345 32.1465C23.2416 32.1495 23.2487 32.1518 23.2555 32.1544C23.3239 32.183 23.393 32.2074 23.4629 32.2303C23.4884 32.2389 23.5136 32.2491 23.5392 32.257C23.6075 32.2773 23.677 32.2938 23.7462 32.3096C23.774 32.316 23.8014 32.3242 23.8292 32.3295C23.8987 32.3434 23.9686 32.3524 24.0385 32.361C24.0663 32.3644 24.0933 32.3704 24.1211 32.3727C24.2151 32.3821 24.309 32.3866 24.4029 32.3866C24.4059 32.3866 24.4089 32.3873 24.4123 32.3873H24.4127C24.4206 32.3873 24.4288 32.3862 24.4367 32.3862C24.5246 32.3855 24.6126 32.3817 24.6997 32.3734C24.7516 32.3686 24.803 32.3588 24.8541 32.3513C24.8973 32.3449 24.9405 32.3404 24.9834 32.3321C25.0446 32.3205 25.1051 32.3039 25.1656 32.2885C25.1975 32.2799 25.2302 32.2739 25.2618 32.2645C25.3241 32.2461 25.3846 32.2235 25.4459 32.201C25.4752 32.1905 25.5052 32.1814 25.5345 32.1694C25.5928 32.1461 25.6495 32.1187 25.7066 32.0913C25.7378 32.0766 25.7694 32.0631 25.7998 32.0473C25.8516 32.0203 25.902 31.9898 25.9527 31.9594C25.9873 31.9387 26.0226 31.9192 26.0564 31.897C26.1007 31.8681 26.1436 31.8358 26.1868 31.8042C26.2251 31.7761 26.2638 31.7483 26.301 31.7182C26.3386 31.6878 26.3746 31.6547 26.4111 31.6224C26.4389 31.5976 26.4678 31.5754 26.4948 31.5495L35.324 23.072C36.5213 21.922 36.5597 20.0194 35.41 18.822Z" fill="#99CC00"/>
<path d="M24.877 67.001C21.8657 67.001 18.7248 65.8671 15.3483 63.5997C13.9702 62.6744 13.6031 60.8071 14.5285 59.429C15.4539 58.0513 17.3211 57.6842 18.6996 58.6092C23.9625 62.1435 26.9362 61.2922 30.0294 58.7738C31.317 57.7259 33.2102 57.9194 34.258 59.207C35.3059 60.4945 35.112 62.3877 33.8244 63.4356C30.9044 65.8127 27.9589 67.001 24.877 67.001Z" fill="#99CC00"/>
</svg>
