<svg width="160" height="160" viewBox="0 0 160 160" fill="none" xmlns="http://www.w3.org/2000/svg">
<path d="M4 156H156V4H4V156Z" fill="white"/>
<path d="M76.9598 125.6L79.0878 125.296V140.8H76.9598V125.6ZM85.7758 127.424V137.456C85.7758 139.28 86.0798 139.888 87.5998 139.888C88.2078 139.888 87.9038 139.888 88.5118 139.584L88.8158 140.8C88.2078 141.104 87.9038 141.408 86.9918 141.408C86.3838 141.408 85.7758 141.104 85.1678 141.104C84.2558 140.496 83.9518 139.584 83.9518 138.064V127.424H81.8238V125.6H83.6478V119.824H85.7758V125.6H89.1198L88.5118 127.424H85.7758ZM90.6398 84.2561C88.8158 84.2561 86.3838 85.4721 84.2558 87.6001V114.656H75.1358V86.6881C75.1358 83.3441 74.8318 80.3041 73.9198 77.5681L82.1278 75.1361C83.0398 76.6561 83.3438 78.4801 83.3438 80.0001C84.8638 79.0881 85.7758 78.1761 87.2958 77.2641C89.1198 76.3521 91.5518 75.7441 93.6798 75.7441C97.6318 75.7441 100.976 77.8721 102.192 81.2161C102.8 82.7361 102.8 84.2561 102.8 86.6881V114.656H93.6798V89.7281C93.6798 85.4721 93.0718 84.2561 90.6398 84.2561ZM116.784 88.8161C116.784 85.1681 118.912 83.0401 122.256 83.0401C125.904 83.0401 127.728 85.1681 127.728 88.8161C127.728 92.4641 125.6 94.2881 121.952 94.2881C119.216 94.2881 116.784 92.7681 116.784 88.8161ZM125.904 104.928H121.04C120.128 104.928 119.52 104.624 119.52 104.016C119.52 103.104 120.736 102.192 123.168 100.976C123.776 100.976 124.08 100.976 124.688 100.976C132.288 100.976 137.76 96.1121 137.76 89.4241C137.76 86.9921 137.152 84.8641 135.632 83.0401C136.24 83.0401 137.152 83.3441 138.064 83.3441C140.496 83.3441 142.624 82.4321 144.448 80.6081L140.496 74.2241C138.368 76.3521 135.632 77.5681 133.2 77.5681C131.984 77.5681 130.768 77.2641 128.944 76.6561C126.512 76.0481 124.688 75.7441 122.56 75.7441C113.44 75.7441 107.664 80.9121 107.664 88.8161C107.664 94.5921 110.096 97.9361 115.264 99.4561C109.488 100.976 108.88 103.408 108.88 105.84C108.88 108.576 109.792 110.096 111.616 111.008C113.136 111.616 115.872 112.224 120.128 112.224H124.08C127.728 112.224 130.464 113.44 130.464 116.784C130.464 118.304 129.552 119.824 128.336 120.736C126.816 121.648 124.992 121.952 122.56 121.952C118.304 121.952 115.872 120.432 115.872 117.088C115.872 116.176 115.872 115.568 116.176 114.656H107.36C107.056 115.264 106.448 116.48 106.448 118.608C106.448 121.344 107.36 123.472 109.488 125.296C112.528 128.64 117.696 129.552 122.864 129.552C128.336 129.552 133.808 128.336 136.848 124.688C138.672 122.56 139.584 119.824 139.584 116.784C139.584 113.44 138.672 110.704 136.544 108.576C134.112 105.84 131.376 104.928 125.904 104.928ZM103.712 140.496C102.8 140.496 102.192 139.888 102.192 138.672C102.192 137.76 102.8 136.848 103.712 136.848C104.624 136.848 105.232 137.456 105.232 138.672C105.232 139.584 104.32 140.496 103.712 140.496ZM103.712 136.24C102.496 136.24 101.584 137.152 101.584 138.368C101.584 139.584 102.496 140.496 103.712 140.496C104.928 140.496 105.84 139.584 105.84 138.368C105.536 137.456 104.624 136.24 103.712 136.24ZM103.104 138.368V137.76H103.408C103.712 137.76 104.016 137.76 104.016 138.064C104.016 138.368 103.712 138.368 103.408 138.368H103.104ZM104.624 138.064C104.624 137.456 104.32 137.456 103.712 137.456H102.8V139.888H103.104V138.672H103.408L104.016 139.888H104.32L103.712 138.672C104.32 138.672 104.624 138.672 104.624 138.064ZM102.8 125.6L97.9358 141.408C97.0238 144.448 95.8078 146.576 93.3758 147.184L92.7678 145.664C93.9838 145.056 94.8958 144.448 95.5038 142.928C95.1998 141.408 95.1998 141.104 95.1998 141.104C94.8958 140.192 94.2878 137.152 93.6798 135.632L90.6398 125.904L92.7678 124.992L95.5038 135.024C95.8078 136.544 96.4158 138.976 96.4158 138.976C96.4158 138.976 97.0238 137.152 97.3278 135.632L100.064 125.6H102.8ZM35.9198 136.848C35.9198 136.848 35.6158 137.456 35.0078 138.064C34.0958 138.672 33.4878 138.976 32.2718 138.976C31.0558 138.976 30.1438 138.368 29.5358 137.152C29.2318 136.24 28.9278 135.024 28.9278 133.2C28.9278 131.072 29.2318 129.856 29.8398 128.64C30.4478 127.728 31.3598 127.12 32.2718 127.12C33.7918 127.12 35.0078 127.728 35.6158 128.64V136.848H35.9198ZM38.0478 119.824H35.9198V124.992C35.9198 126.208 35.9198 127.424 35.9198 127.424C35.0078 126.208 33.7918 125.6 32.2718 125.6C31.3598 125.6 30.4478 125.904 29.5358 126.512C27.7118 128.032 26.7998 130.464 26.7998 133.504C26.7998 138.368 28.9278 141.408 32.2718 141.408C33.7918 141.408 35.0078 140.8 35.9198 139.584C35.9198 140.496 36.2238 141.104 36.2238 141.104H38.3518C38.0478 140.192 38.0478 138.672 38.0478 136.24V119.824ZM71.1838 125.6H74.8318L73.9198 127.424H70.8798V137.456C70.8798 139.28 71.1838 139.888 72.7038 139.888C73.3118 139.888 73.0078 139.888 73.6158 139.584L73.9198 140.8C73.3118 141.104 73.0078 141.408 72.0958 141.408C71.4878 141.408 70.8798 141.104 70.2718 141.104C69.3598 140.496 69.0558 139.584 69.0558 138.064V127.424H67.2318V125.6H69.0558V119.824H71.1838V125.6ZM58.1118 76.9601L67.2318 75.4401V114.656H58.1118V76.9601ZM57.1998 65.7121C57.1998 62.3681 59.9358 59.6321 62.9758 59.6321C66.0158 59.6321 68.4478 62.3681 68.4478 65.7121C68.4478 69.0561 66.0158 72.0961 62.6718 72.0961C59.6318 72.0961 57.1998 69.3601 57.1998 65.7121ZM64.7998 127.424C65.1038 128.032 65.1038 128.64 65.1038 129.248V140.8H62.9758V130.464C62.9758 128.944 62.9758 128.336 62.3678 128.032C62.0638 127.728 61.4558 127.424 60.8478 127.424C59.6318 127.424 58.1118 128.336 56.8958 129.552V140.8H54.7678V128.944C54.7678 126.816 54.1598 125.6 54.1598 125.6L56.2878 124.992C56.2878 124.992 56.8958 126.208 56.8958 127.424C58.4158 125.904 59.6318 124.992 61.1518 124.992C62.9758 125.296 64.1918 126.208 64.7998 127.424ZM43.5198 131.68C43.5198 128.64 44.7358 126.816 46.5598 126.816C47.4718 126.816 48.6878 127.424 48.9918 128.032C49.5998 129.248 49.5998 130.16 49.9038 131.68H43.5198ZM46.8638 124.992C45.3438 124.992 43.8238 125.6 42.6078 127.12C41.3918 128.64 41.0878 130.464 41.0878 132.896C41.0878 138.064 43.5198 141.104 47.1678 141.104C48.9918 141.104 50.5118 140.496 51.7278 139.28L50.8158 137.76C49.9038 138.672 48.6878 139.28 47.4718 139.28C45.9518 139.28 44.7358 138.672 44.1278 137.456C43.5198 136.544 43.5198 135.632 43.5198 134.112V133.808H52.0318V133.504C52.0318 129.856 51.7278 128.336 50.5118 127.12C49.5998 125.6 48.3838 124.992 46.8638 124.992ZM21.6318 140.8H23.7598V119.52H21.6318V140.8ZM42.6078 84.2561C41.3918 86.3841 40.1758 86.9921 36.2238 86.9921H31.0558V71.1841H37.1358C41.0878 71.1841 43.5198 74.2241 43.5198 79.0881C43.8238 81.5201 43.5198 83.0401 42.6078 84.2561ZM47.4718 65.1041C44.7358 63.5841 42.3038 62.6721 34.0958 62.6721H21.6318V114.96H31.3598V95.8081H36.5278C41.6958 95.8081 43.8238 95.2001 45.9518 93.9841C51.1198 91.2481 54.1598 85.7761 54.1598 78.7841C54.4638 72.7041 52.0318 67.8401 47.4718 65.1041Z" fill="#2E4355"/>
</svg>
