<svg width="160" height="64" viewBox="0 0 160 64" fill="none" xmlns="http://www.w3.org/2000/svg">
<path fill-rule="evenodd" clip-rule="evenodd" d="M156 8.99619C156 7.78137 154.806 6.94033 153.832 7.00263C153.832 7.00263 153.738 7.00263 152.952 7.09607C150.91 7.34527 148.554 8.0617 142.334 8.0617C136.175 8.0617 133.944 7.25182 132.248 7.06493C131.997 7.03377 131.777 7.00263 131.525 7.00263C130.803 7.06493 130.08 7.50102 129.735 8.43549L118.927 40.2079L108.716 11.2701C107.773 8.80929 107.805 7.00263 105.26 7.00263H94.9863C93.5724 7.00263 92.5671 8.46665 92.9755 9.74377L95.2062 15.3818C90.462 9.68147 83.2988 6.06815 75.2873 6.06815C63.5056 6.06815 53.5461 13.9178 50.4042 24.6332C50.3414 21.2379 49.6817 18.0918 48.5191 15.6622C45.5973 9.86837 39.8478 6.16159 32.9673 6.16159C29.9198 6.16159 27.1236 6.75343 24.6415 7.90596C18.7349 10.616 12.7028 10.7094 7.14179 7.37642C5.94791 6.65998 4 7.43872 4 9.21423V54.6923C4 55.8448 4.91111 56.7794 6.105 56.7794H16.8185C17.9182 56.7794 18.9235 55.9072 18.9235 54.6923V28.9007C18.9235 22.8577 23.1021 19.587 27.312 19.587C30.2968 19.587 32.7159 20.9887 34.1611 23.5741C34.9467 24.9758 35.2608 26.8448 35.2608 28.8383V54.6923C35.2608 55.9072 36.2348 56.7794 37.3657 56.7794H48.1736C49.2732 56.7794 50.31 55.9072 50.31 54.6923V39.3668C53.4518 50.0822 63.4112 57.9318 75.1929 57.9318C89.8337 57.9318 101.678 45.877 101.176 31.1434C101.176 31.1434 101.207 31.1434 101.176 31.1434L110.287 54.7857C110.915 56.6548 111.795 56.7794 112.989 56.7794H124.582C126.247 56.8728 127.033 56.3432 127.504 54.7857L140.951 19.587V54.4119C140.951 55.6891 141.987 56.7794 143.308 56.7794H153.611C154.9 56.7794 155.968 55.7514 155.968 54.4119L156 8.99619ZM75.4757 44.3196C69.255 44.3196 64.2281 38.775 64.2281 31.9844C64.2281 25.1938 69.255 19.6493 75.4757 19.6493C81.6965 19.6493 86.7233 25.1938 86.7233 31.9844C86.7233 38.775 81.6965 44.3196 75.4757 44.3196Z" fill="#5645F5"/>
</svg>
