<svg width="376" height="48" viewBox="0 0 376 48" fill="none" xmlns="http://www.w3.org/2000/svg">
<path d="M360.414 9.25439V15.7192C360.414 16.0429 360.551 16.2039 360.826 16.2039H368.018V20.2719H360.414V33.7591C360.414 35.3092 360.673 36.3987 361.189 37.0284C361.706 37.658 362.642 37.9729 363.999 37.9729C365.258 37.9729 366.694 37.6901 368.308 37.1253L369.447 40.7086C366.928 41.871 364.482 42.4526 362.11 42.4526C359.527 42.4526 357.65 41.871 356.479 40.7086C355.309 39.547 354.724 37.7309 354.724 35.2604V20.7805C354.724 20.4577 354.554 20.3648 354.317 20.2174C353.507 19.7095 350.753 19.6238 350.753 19.6238V16.1126C352.609 15.8867 353.998 15.1601 354.918 13.9336C355.838 12.7063 356.467 11.5792 356.806 9.25439H360.414ZM77.8016 5.30739C81.0788 5.30739 84.2672 5.91302 87.3667 7.12347V16.0589L83.1048 15.6712L82.4023 11.5551C82.3053 11.0544 82.1443 10.7396 81.9184 10.6106C81.03 10.0779 79.5696 9.81115 77.5356 9.81115C75.3238 9.81115 73.6407 10.267 72.4863 11.1794C71.3327 12.0919 70.7551 13.3544 70.7551 14.9686C70.7551 15.6952 70.9049 16.3569 71.2029 16.9545C71.5017 17.5521 71.8326 18.032 72.1963 18.3957C72.5592 18.7586 73.12 19.1215 73.8786 19.4852C74.6372 19.8481 75.2789 20.1188 75.8036 20.2959C76.3284 20.4737 77.091 20.7157 78.0924 21.0225C79.4158 21.4262 80.4171 21.7491 81.0949 21.991C81.7726 22.2329 82.665 22.6527 83.7705 23.2503C84.876 23.8479 85.7116 24.4768 86.2764 25.1393C86.8419 25.801 87.3458 26.6926 87.7904 27.815C88.2342 28.9365 88.4561 30.2078 88.4561 31.6282C88.4561 35.3252 87.2088 38.0538 84.715 39.813C82.2204 41.573 78.988 42.4526 75.017 42.4526C72.9349 42.4526 70.8561 42.2467 68.782 41.8349C66.7072 41.4232 65.1779 40.9834 64.1934 40.5155V31.774H68.4304L69.3989 36.2537C69.4638 36.5766 69.5487 36.7944 69.6536 36.9074C69.7586 37.0204 69.9564 37.1333 70.2464 37.2463C71.9576 37.7309 73.5966 37.9729 75.162 37.9729H75.3078C80.2313 37.9729 82.6931 36.1079 82.6931 32.3788C82.6931 31.4271 82.5112 30.5996 82.1483 29.897C81.7846 29.1953 81.2158 28.6137 80.4412 28.1538C79.6665 27.694 78.9399 27.3303 78.2614 27.0643C77.5837 26.7976 76.6472 26.5028 75.4528 26.1799C72.2083 25.2282 69.9965 24.3638 68.8181 23.5892C66.2674 21.9101 64.9921 19.3194 64.9921 15.8162C64.9921 12.3458 66.1745 9.72623 68.5393 7.95901C70.9049 6.191 73.9916 5.30739 77.8016 5.30739ZM307.221 15.7192C314.226 15.7192 317.73 19.6991 317.73 27.6572C317.73 28.6417 317.682 29.6022 317.585 30.5387H301.579C301.708 32.9604 302.301 34.7885 303.359 36.0238C304.415 37.2583 306.099 37.8759 308.407 37.8759C310.489 37.8759 312.919 37.2943 315.696 36.1327L317.294 40.1038C314.259 41.6531 311.087 42.4366 307.778 42.4526C299.609 42.4366 295.525 37.916 295.525 28.8924C295.525 24.5986 296.614 21.3293 298.794 19.0854C300.973 16.8416 303.783 15.7192 307.221 15.7192ZM235.436 15.7192C242.442 15.7192 245.945 19.6991 245.945 27.6572C245.945 28.6417 245.896 29.6022 245.799 30.5387H229.794C229.923 32.9604 230.516 34.7885 231.573 36.0238C232.631 37.2583 234.314 37.8759 236.622 37.8759C238.705 37.8759 241.135 37.2943 243.911 36.1327L245.509 40.1038C242.474 41.6531 239.302 42.4366 235.993 42.4526C227.824 42.4366 223.74 37.916 223.74 28.8924C223.74 24.5986 224.83 21.3293 227.009 19.0854C229.189 16.8416 231.997 15.7192 235.436 15.7192ZM128.646 4.41176V18.3829C131.455 16.6076 134.159 15.7192 136.758 15.7192H136.83C139.736 15.7192 142.041 16.7366 143.744 18.7706C145.447 20.8046 146.298 23.9529 146.298 28.2139C146.298 33.1054 145.362 36.7015 143.49 39.0015C141.617 41.3022 139.034 42.4526 135.741 42.4526C132.77 42.4526 130.301 41.4761 128.331 39.5222H128.138L127.847 41.847H122.35C122.77 39.4741 122.98 37.1734 122.98 34.9455V9.56922C122.98 9.00444 122.77 8.65677 122.35 8.52779L119.517 7.5833L120.002 4.41176H128.646ZM99.738 16.2039V32.7665C99.738 34.5586 99.9639 35.858 100.416 36.6655C100.868 37.4722 101.748 37.8759 103.055 37.8759C105.396 37.8759 107.696 36.7215 109.957 34.4136V21.1194C109.957 20.7157 109.916 20.4497 109.835 20.3207C109.755 20.1909 109.529 20.094 109.157 20.0299L106.784 19.4243L107.22 16.2039H115.671V37.3432C115.671 37.9408 115.881 38.2717 116.301 38.3358L118.891 38.6746V41.847H111.046L110.61 38.8204L110.465 38.7716C107.398 41.2253 104.307 42.4526 101.191 42.4526C98.5756 42.4526 96.7315 41.7821 95.658 40.4426C94.5845 39.1024 94.0478 36.9555 94.0478 34.0018V21.1194C94.0478 20.7157 94.0029 20.4497 93.914 20.3207C93.8259 20.1909 93.604 20.094 93.2483 20.0299L90.7056 19.4243L91.1662 16.2039H99.738ZM211.005 15.7192C213.621 15.7192 215.489 16.4458 216.611 17.899C217.733 19.3514 218.294 21.4503 218.294 24.1948V37.3432C218.294 37.747 218.335 38.0049 218.415 38.1179C218.496 38.2308 218.721 38.3037 219.093 38.3358L221.805 38.6746V41.847H209.213V38.7235L211.805 38.3846C212.302 38.3241 212.56 38.0318 212.579 37.5072L212.579 25.7201C212.579 24.041 212.374 22.7536 211.962 21.858C211.55 20.9624 210.715 20.5138 209.456 20.5138C207.438 20.5138 205.412 21.1763 203.378 22.4997C203.507 23.2583 203.572 24.1868 203.572 25.2843V37.3432C203.572 37.747 203.612 38.0049 203.693 38.1179C203.773 38.2308 203.991 38.3037 204.347 38.3358L206.647 38.6746V41.847H194.443V38.7235L197.058 38.3846C197.381 38.3518 197.595 38.2597 197.7 38.1058C197.805 37.9528 197.857 37.7141 197.857 37.3913V25.9869C197.857 25.0985 197.833 24.3887 197.784 23.856C197.736 23.3232 197.623 22.7657 197.445 22.1849C197.268 21.6041 196.953 21.1723 196.501 20.8895C196.049 20.6067 195.476 20.4657 194.782 20.4657C192.828 20.4657 190.778 21.3133 188.632 23.0084V37.3432C188.632 37.747 188.676 38.0049 188.765 38.1179C188.853 38.2308 189.075 38.3037 189.43 38.3358L191.852 38.6746V41.847H179.769V38.7235L182.142 38.3358C182.465 38.3037 182.679 38.2188 182.784 38.0818C182.888 37.9448 182.941 37.6981 182.941 37.3432V21.3613C182.941 20.7966 182.723 20.4497 182.287 20.3207L179.551 19.3762L180.059 16.2039H187.396L187.784 18.9885L188.002 19.0374C190.907 16.8255 193.732 15.7192 196.477 15.7192C199.285 15.7192 201.255 16.7126 202.385 18.6977C205.452 16.7126 208.326 15.7192 211.005 15.7192ZM157.457 4.41176V37.3432C157.457 37.747 157.502 38.0049 157.591 38.1179C157.679 38.2308 157.901 38.3037 158.256 38.3358L161.041 38.6746V41.847H148.135V38.7235L150.968 38.3358C151.291 38.3037 151.505 38.2188 151.61 38.0818C151.715 37.9448 151.767 37.6981 151.767 37.3432V9.56922C151.767 9.00444 151.549 8.65677 151.113 8.52779L148.28 7.5833L148.788 4.41176H157.457ZM173.368 16.2039V37.3432C173.368 37.747 173.412 38.0049 173.501 38.1179C173.59 38.2308 173.812 38.3037 174.167 38.3358L177.097 38.6746V41.847H163.9V38.7235L166.879 38.3358C167.201 38.3037 167.415 38.2188 167.52 38.0818C167.625 37.9448 167.678 37.6981 167.678 37.3432V21.3613C167.678 20.7966 167.459 20.4497 167.024 20.3207L164.288 19.3762L164.797 16.2039H173.368ZM296.276 5.93705V15.0655H292.16L291.36 10.7556C291.296 10.3847 291.029 10.1989 290.561 10.1989H283.878V37.2943C283.878 37.666 283.919 37.904 283.999 38.0089C284.08 38.1139 284.306 38.1827 284.677 38.2148L290.126 38.6266V41.847H272.158V38.6266L277.267 38.2877C277.59 38.2548 277.804 38.1787 277.909 38.0578C278.014 37.936 278.067 37.6821 278.067 37.2943V10.1989H271.432C270.963 10.1989 270.697 10.3847 270.632 10.7556L269.834 15.0655H265.669V5.93705H296.276ZM333.305 16.2039V19.4243L330.521 19.8361L335.121 25.7201L340.134 19.8361L337.107 19.4243L337.616 16.2039H347.786V19.4243L345.606 19.933C345.138 20.094 344.687 20.4088 344.251 20.8775L337.858 28.4078L345.001 37.3432C345.469 37.8759 345.913 38.1667 346.333 38.2148L348.827 38.6746V41.847H336.114V38.6746L338.899 38.2148L334.08 31.919L328.971 38.2148L331.998 38.6746V41.847H320.86V38.7235L323.135 38.2877C323.7 38.1908 324.193 37.8919 324.613 37.3913L331.416 29.2553L324.613 20.8286C324.241 20.3928 323.846 20.1108 323.426 19.9811L321.343 19.4243L321.852 16.2039H333.305ZM135.184 20.3688C133.166 20.3688 131.003 21.1843 128.694 22.8145V34.9944C130.712 36.8834 132.762 37.8271 134.845 37.8271C138.541 37.8271 140.39 34.7364 140.39 28.5536C140.39 25.906 139.934 23.88 139.022 22.4757C138.11 21.0713 136.83 20.3688 135.184 20.3688ZM235.339 20.0299C233.821 20.0299 232.558 20.5586 231.549 21.6161C230.541 22.6735 229.971 24.2757 229.842 26.4227H240.254C240.254 22.1608 238.616 20.0299 235.339 20.0299ZM307.124 20.0299C305.607 20.0299 304.343 20.5586 303.334 21.6161C302.325 22.6735 301.757 24.2757 301.627 26.4227H312.04C312.04 22.1608 310.4 20.0299 307.124 20.0299ZM169.905 4C171.068 4 171.98 4.31483 172.642 4.94449C173.303 5.57415 173.634 6.46978 173.634 7.63217C173.634 8.8266 173.303 9.74305 172.642 10.3807C171.98 11.0176 171.068 11.3364 169.905 11.3364C168.711 11.3364 167.791 11.0176 167.145 10.3807C166.499 9.74305 166.176 8.8266 166.176 7.63217C166.176 6.46978 166.499 5.57415 167.145 4.94449C167.791 4.31483 168.711 4 169.905 4Z" fill="black"/>
<path d="M35.3882 25.3808C35.3882 24.9418 35.0637 24.6886 34.6656 24.8144L7.27532 33.4999C6.87638 33.6265 6.55273 34.0855 6.55273 34.5237V43.4006C6.55273 43.8396 6.87638 44.0936 7.27532 43.967L34.6656 35.2823C35.0637 35.1558 35.3882 34.6967 35.3882 34.2577V25.3808Z" fill="url(#paint0_linear_3_6886)"/>
<path d="M6.55273 25.0982C6.55273 25.5372 6.87638 25.9962 7.27532 26.1228L34.6696 34.809C35.0685 34.9356 35.3922 34.6817 35.3922 34.2435V25.3657C35.3922 24.9275 35.0685 24.4685 34.6696 24.3419L7.27532 15.6557C6.87638 15.5291 6.55273 15.7822 6.55273 16.2212V25.0982Z" fill="#FF9800"/>
<path d="M35.3882 7.13993C35.3882 6.70093 35.0637 6.44698 34.6656 6.57355L7.27532 15.2582C6.87638 15.3848 6.55273 15.8438 6.55273 16.2828V25.1598C6.55273 25.5988 6.87638 25.8519 7.27532 25.7261L34.6656 17.0407C35.0637 16.9141 35.3882 16.4551 35.3882 16.0169V7.13993Z" fill="#FF9800"/>
<defs>
<linearGradient id="paint0_linear_3_6886" x1="22.446" y1="36.0588" x2="23.6554" y2="32.0149" gradientUnits="userSpaceOnUse">
<stop stop-color="#FF9700"/>
<stop offset="0.53" stop-color="#F48E00"/>
<stop offset="1" stop-color="#D06F00"/>
</linearGradient>
</defs>
</svg>
