<svg width="112" height="160" viewBox="0 0 112 160" fill="none" xmlns="http://www.w3.org/2000/svg">
<path d="M26.4004 110.717C27.1115 110.717 27.4365 111.062 27.4365 111.753V146.594C27.4365 147.874 27.1927 149.113 26.6848 150.251C26.177 151.388 25.5269 152.384 24.6736 153.237C23.8204 154.09 22.8249 154.761 21.6873 155.248C20.5496 155.736 19.3307 156 18.0305 156H15.1863C13.9064 156 12.6672 155.756 11.5295 155.248C10.3919 154.761 9.39642 154.09 8.54317 153.237C7.68992 152.384 7.01951 151.388 6.53194 150.251C6.02406 149.113 5.78027 147.894 5.78027 146.594V138.61C5.78027 137.899 6.10532 137.472 6.75541 137.269L13.5408 135.481C14.1909 135.278 14.5159 135.522 14.5159 136.233V146.228C14.5159 146.736 14.6784 147.142 15.0441 147.488C15.3895 147.833 15.8161 148.016 16.3037 148.016H16.9131C17.4007 148.016 17.8273 147.853 18.1727 147.488C18.518 147.142 18.7009 146.716 18.7009 146.228V111.773C18.7009 111.062 19.0462 110.737 19.737 110.737C19.7573 110.717 26.4004 110.717 26.4004 110.717ZM55.4109 154.436C55.5124 155.147 55.2077 155.472 54.517 155.472H47.7316C47.0815 155.472 46.7159 155.126 46.6143 154.436L46.0048 147.142H41.3729L40.7634 154.436C40.6619 155.147 40.2759 155.472 39.6461 155.472H32.8607C32.1497 155.472 31.8653 155.126 31.9669 154.436L37.5739 111.773C37.6755 111.062 38.0615 110.737 38.7725 110.737H48.6255C49.3365 110.737 49.7225 111.082 49.8241 111.773L55.4109 154.436ZM45.4157 138.772L44.0139 122.276H43.4044L42.0027 138.772H45.4157ZM72.5571 110.717C73.8369 110.717 75.0559 110.961 76.2139 111.468C77.3515 111.976 78.347 112.626 79.2002 113.48C80.0535 114.333 80.7239 115.328 81.2114 116.466C81.699 117.604 81.9631 118.823 81.9631 120.123V146.086C81.9631 147.366 81.7193 148.605 81.2114 149.743C80.7036 150.88 80.0535 151.876 79.2002 152.729C78.347 153.582 77.3515 154.253 76.2139 154.74C75.0762 155.248 73.8573 155.492 72.5571 155.492H61.3836C60.6725 155.492 60.3475 155.147 60.3475 154.456V111.773C60.3475 111.062 60.6929 110.737 61.3836 110.737L72.5571 110.717ZM73.2478 120.489C73.2478 120.001 73.0853 119.574 72.7196 119.229C72.3742 118.884 71.9476 118.701 71.46 118.701H69.0831V147.488H71.46C71.9476 147.488 72.3742 147.325 72.7196 146.96C73.065 146.614 73.2478 146.188 73.2478 145.7V120.489ZM106.22 147.792V154.436C106.22 155.147 105.874 155.472 105.184 155.472H88.9922C88.2812 155.472 87.9562 155.126 87.9562 154.436V111.773C87.9562 111.062 88.3015 110.737 88.9922 110.737H105.163C105.874 110.737 106.199 111.082 106.199 111.773V118.396C106.199 119.107 105.854 119.432 105.163 119.432H96.6512V127.944H104.026C104.737 127.944 105.062 128.29 105.062 128.98V135.624C105.062 136.335 104.716 136.66 104.026 136.66H96.6512V146.736H105.163C105.874 146.736 106.22 147.081 106.22 147.792Z" fill="#569A83"/>
<path d="M81.5276 60.3879C81.9899 60.8503 82.032 61.6069 81.4855 61.9852C80.1405 62.8679 78.4171 62.7418 76.8198 62.5736C74.1297 62.2794 70.9351 62.1533 69.548 59.6313C69.506 59.6313 69.506 59.5893 69.464 59.5472C67.6986 58.5805 70.6829 57.9079 71.5236 57.7818C73.4151 57.5296 75.4327 58.034 77.2822 58.4544C78.8374 58.7486 80.3086 59.1689 81.5276 60.3879ZM106.075 100.488C104.814 101.371 105.361 102.884 104.478 103.935C103.595 104.943 101.451 104.943 100.317 104.943C95.4827 104.985 90.7749 104.607 86.0251 104.985C84.8062 105.069 83.7133 105.238 82.5784 105.532C82.2421 105.616 81.6957 105.826 81.3174 105.616C80.3506 105.112 79.4679 103.514 78.2069 104.019C77.1561 104.481 76.3575 105.994 75.0964 105.069C72.7846 103.346 70.8511 104.901 68.4131 105.364C65.8911 105.868 63.4952 104.481 61.0152 105.154C59.1658 105.7 57.4004 106.246 55.5089 105.616C53.6173 104.943 53.1129 103.472 54.7523 102.085C57.3583 99.9414 60.5949 99.6051 63.8315 99.8573C68.7494 100.278 73.6253 99.8994 78.5432 99.6471C78.7113 99.6471 78.7954 99.7312 78.7954 99.8573C80.8971 100.698 82.2421 99.0167 83.4611 97.5455C83.6292 97.3353 83.9235 97.4614 84.0075 97.5875C85.7729 100.194 87.9166 97.2512 90.1444 97.5034C90.7329 97.5455 91.2793 97.7136 91.6576 98.26C91.8258 98.5123 91.8678 98.8065 91.8678 99.1007C91.9519 100.446 93.6752 100.152 93.6332 98.8065C93.6332 98.5963 93.8854 98.3861 94.0956 98.4702C95.861 99.1848 98.1308 100.11 99.5599 98.26C100.779 96.7048 100.947 94.477 101.073 92.5855C101.325 87.4995 100.989 82.2873 100.611 77.2433C100.317 72.3254 99.7701 67.3234 100.359 62.4055C100.947 57.5296 100.905 52.7798 100.821 47.8619C100.779 45.2979 100.653 42.7338 100.821 40.1698C100.905 37.8159 101.325 35.2939 101.073 32.94C100.821 30.8384 99.5599 29.0309 99.3077 26.9713C99.0555 25.0798 99.3077 23.1042 99.7701 21.2547C100.022 20.1198 100.611 18.7327 100.569 17.5558C100.527 16.547 100.485 15.4962 100.527 14.4873C100.527 13.9829 100.443 13.1843 100.821 12.764C101.409 12.0494 101.704 10.9986 100.317 10.8725C96.9959 10.4521 93.5912 8.35046 90.4387 10.4101C90.4807 11.1247 90.5227 11.9233 90.3546 12.6379L90.817 13.2263C91.6156 13.5626 92.4142 13.6887 93.2969 13.7307C94.3057 13.7307 95.3986 13.4785 96.4074 13.5626C97.2481 13.6467 97.9627 14.4033 97.6684 15.3701C97.4583 16.0846 96.8278 16.6731 96.4494 17.2616C95.7769 18.3124 95.903 19.8256 95.903 21.0446C95.861 24.113 95.903 27.1815 95.9871 30.1658C96.0711 32.6878 96.3233 35.2519 96.4915 37.7739C96.5335 37.8159 96.7016 37.858 96.7016 37.9841C96.7857 40.8423 97.7525 43.6586 97.7945 46.5169C97.8365 46.5589 97.0379 50.0477 97.0379 50.0477C96.9959 53.7466 96.7016 60.5981 96.7016 60.5981C96.6596 66.9031 95.5667 73.1661 96.6596 79.4291C97.122 81.9511 96.1552 84.389 96.0711 86.911C95.9871 89.6852 96.3233 92.4174 95.903 95.1916C95.945 95.3597 95.903 95.5279 95.6928 95.6119C89.9343 96.7048 84.0916 96.915 78.2069 96.5787C76.7357 96.4946 75.0124 96.3685 73.5832 96.915C73.0368 97.1672 72.2802 97.5034 71.6077 97.4614C70.767 97.3773 70.3467 96.7048 69.548 96.5787C68.5392 96.3685 67.5725 96.1584 66.6057 96.0743C63.9996 95.738 61.5196 95.5699 59.0817 96.6207C57.7366 97.2092 56.3075 96.957 54.9624 96.4106C53.3651 95.738 52.1462 94.9394 50.3808 95.8221C49.6662 96.1584 49.0357 96.5367 48.2371 96.7048C47.5645 96.8729 46.9761 96.7048 46.3876 96.4526C45.0425 95.9482 43.9917 95.7801 42.5625 96.0323C42.7307 96.2424 42.6046 96.6207 42.3103 96.6207C33.7775 96.1584 25.2027 97.1672 16.6699 97.2933C16.2496 97.3773 15.9554 97.8397 15.7032 97.8397H15.451C15.2408 97.8397 15.1988 97.1251 15.2408 96.999C14.1059 95.738 14.4001 91.5767 14.4422 90.3578C14.7784 82.4134 13.7696 74.4271 13.5595 66.5248C13.4754 62.5736 13.4754 58.5805 14.1059 54.6713C14.8625 50.2578 14.8625 45.9704 14.7784 41.5569C14.5683 32.7719 15.451 24.0289 15.1988 15.244C15.1988 15.0758 15.3669 15.0338 15.451 15.0758L15.535 15.0338C17.8889 14.8236 20.4529 14.1931 22.7648 14.8236C22.8068 14.8236 22.8488 14.8657 22.8488 14.9077L23.1851 14.9497H25.7912C25.8753 14.9497 26.0014 14.9918 26.0014 15.0338C30.625 15.0758 35.2487 14.6975 39.8724 14.4873C41.4697 14.4453 43.151 14.4873 44.7483 13.9829C45.5469 13.7307 46.5137 13.3104 47.3544 13.3945C49.456 13.5626 51.5997 14.1931 53.6594 14.6555C55.1306 14.9497 56.1394 12.4277 57.4424 13.3104C59.418 14.5714 61.6878 14.109 63.9576 14.1511C65.1766 14.1931 66.3115 13.9409 67.5304 13.9409C68.203 13.9409 68.7494 14.109 69.3379 14.2351C69.9263 14.1511 70.4307 14.1931 71.1033 14.4453L81.8638 14.109C84.0075 14.1511 86.3614 14.3192 88.4211 13.5206C88.9675 13.3104 89.2617 13.0162 89.4299 12.6799C89.3458 12.5118 89.2617 12.3436 89.1777 12.1335C89.0095 11.8392 88.8414 11.4609 88.6312 11.2508C86.3194 10.4942 83.6713 10.7043 81.2333 10.5782C77.9127 10.4101 74.6761 10.8725 71.3555 11.1247C68.287 11.3769 65.0925 11.587 62.024 11.3348C60.2166 11.1667 56.8119 10.3681 55.2567 11.6291C55.0885 11.7131 54.9624 11.7131 54.7943 11.6291C51.8519 9.23317 47.9849 12.848 44.6222 11.8392C42.6046 11.2508 40.7131 10.8304 38.5694 11.0826C36.5097 11.2928 34.4921 11.587 32.3904 11.587C27.8088 11.545 23.2692 11.8392 18.6875 11.6711C17.6787 11.6291 16.712 11.6291 15.7872 11.503C14.9886 11.4189 13.9378 10.9986 13.1391 11.3348C11.8781 11.7972 11.6259 12.2175 11.752 12.5958C12.0883 12.848 10.9113 14.4453 10.9113 15.244L10.8273 17.3456C10.7852 20.4561 10.5751 23.3144 9.86051 26.3408C9.52424 27.9381 8.7256 30.2079 9.31407 31.8051C9.65034 32.856 10.449 33.5705 10.9113 34.4953C11.71 36.2187 11.752 38.3203 11.6679 40.1698L11.1635 58.2442C10.9534 64.255 10.5751 70.3078 10.8273 76.3606C11.0374 81.9511 11.9201 87.6676 11.1635 93.216C10.9113 95.0655 8.68357 98.3441 10.8273 99.6471C12.0462 100.362 13.4754 100.53 14.8625 100.656C18.2672 100.866 21.6719 100.488 25.1187 100.11C26.3797 99.9414 27.6407 99.6892 28.9017 99.6892C29.8684 99.6471 30.7511 99.7733 31.6759 100.11C32.4745 100.404 33.6935 100.95 34.6182 100.95C34.6603 100.992 36.1314 100.908 36.2155 100.488C37.4765 99.9414 38.5694 99.521 40.1666 99.8153C41.7219 100.11 43.109 100.32 44.7483 100.025C45.589 99.8573 46.85 99.7733 47.6906 99.9834L48.0269 100.236C48.3632 100.067 47.8167 100.656 47.4805 100.782C45.589 101.539 46.1774 103.977 45.9673 105.616C45.9673 105.784 45.7571 105.826 45.673 105.826C44.9164 105.826 43.8656 105.826 43.4452 105.027C42.5625 103.388 40.4188 102.253 40.4188 105.7C40.4188 105.91 40.2507 105.994 40.1246 105.994C39.9565 105.994 39.8304 105.91 39.8304 105.7C39.8304 105.49 37.6026 104.313 37.3504 104.187C36.2575 103.598 34.9965 102.884 33.6935 103.346C32.8948 103.598 32.2223 104.061 31.4657 104.397C30.1206 106.036 28.6915 107.802 26.7159 106.751C26.2956 106.541 24.6563 105.112 24.32 105.406C23.8577 105.91 23.3532 106.415 22.7227 106.667C20.9153 107.381 19.0238 107.255 17.0903 107.213C17.0062 107.213 16.796 107.129 16.796 106.961C16.712 106.204 16.2916 104.691 15.2408 105.616C14.9886 105.826 14.7784 106.036 14.5262 106.288C14.232 106.541 13.8537 106.877 13.4754 107.045C12.2144 107.549 8.3473 106.877 7.8429 105.994C7.42257 105.322 7.29647 104.649 7.12833 103.893C6.8341 102.043 7.04426 100.025 6.9602 98.1339C6.79206 93.3842 6.4558 88.7185 6.07749 83.9687C5.86733 81.5728 5.65716 79.0928 5.86733 76.6548C5.95139 75.0996 6.03546 72.9559 6.8341 71.5268C7.50663 70.3919 7.04426 69.4671 6.16156 68.6264C5.95139 68.3743 5.86733 67.9119 5.86733 67.6177C5.69919 65.8522 6.03546 64.0028 6.11953 62.2374C6.2036 60.9343 6.41376 59.6313 6.41376 58.3283C6.41376 57.3195 6.2036 56.3527 6.11953 55.3859C6.07749 54.8815 6.03546 54.3771 6.3297 53.9147C6.91816 53.0741 6.8341 52.6117 6.49783 51.6449C5.82529 49.7955 6.49783 47.5677 6.5819 45.6342C6.75003 43.3643 6.8341 41.1366 6.5819 38.8247C6.3297 36.3027 5.82529 33.8648 5.99343 31.3007C6.16156 28.9889 6.28766 26.8872 6.41376 24.6174C6.62393 20.4981 6.62393 16.3368 6.49783 12.2175V13.1843C6.49783 13.1843 6.16156 7.93013 8.3473 6.66913C11.71 4.81965 15.7872 5.11389 19.4441 4.94575C24.1939 4.73559 28.9857 5.19795 33.7355 5.19795C36.5097 5.19795 39.2419 5.15592 41.932 4.52542C43.8235 4.10508 45.7151 3.93695 47.6486 4.02102C50.0025 4.18915 52.2723 4.77762 54.5841 4.98779C56.896 5.19795 59.1658 5.07185 61.4776 4.94575C66.4796 4.60949 71.5236 4.73559 76.5256 4.94575L84.3438 5.28202C85.5628 5.32405 86.9499 5.61829 88.1268 5.32405L90.3546 4.56745C91.9939 4.10508 93.1288 4.52542 94.7261 4.90372L100.611 6.29082C101.283 6.12269 101.914 6.08066 102.418 6.58506C103.511 7.59386 102.46 8.85487 103.259 9.98977C104.226 11.3348 105.108 12.2175 105.319 13.9409C105.529 15.7904 105.613 17.808 105.024 19.6154C104.604 20.8344 104.058 22.1374 104.562 23.4405C104.856 24.2391 105.403 24.9957 105.613 25.8364C106.033 27.6438 106.033 29.4513 105.907 31.3007C105.823 33.4024 105.697 35.5461 105.445 37.6058C105.276 38.9508 104.73 40.2539 104.688 41.5569C104.646 42.6498 104.982 43.5745 105.192 44.6253C105.907 48.0721 102.881 50.2578 102.334 53.4103C102.04 55.1337 103.973 54.3771 104.856 55.3859C105.403 56.0584 105.108 57.1513 105.066 57.8659C104.856 59.7154 105.403 61.5228 105.319 63.3723C105.234 65.6841 104.52 67.5756 105.066 69.8875C105.361 71.1905 105.613 72.4935 105.319 73.7966C105.024 75.0996 103.511 78.3782 105.529 78.9667C105.613 78.9667 105.697 79.0508 105.697 79.1768C105.697 79.7653 105.613 80.1857 105.361 80.7321C104.478 82.7497 105.865 82.3294 106.117 83.6324C106.369 84.8514 105.655 85.2717 105.445 86.4066C105.15 88.2141 106.117 89.6012 106.033 91.3666C105.991 93.0059 105.066 93.9306 105.361 95.4438C105.445 95.4438 105.571 95.5279 105.571 95.654C105.739 96.4526 105.823 97.3773 105.529 98.176C105.108 99.3109 104.646 99.6471 105.949 100.32C106.285 100.067 106.285 100.362 106.075 100.488ZM84.0916 44.7094C83.293 39.7915 82.8306 34.6634 81.1913 29.9557C80.4767 27.9801 80.1405 25.8364 77.8286 25.4581C74.8022 24.9537 75.811 27.4757 76.2313 29.8716C76.8198 33.5705 77.072 37.3536 78.0388 41.0105C78.7113 43.5325 79.9303 46.5168 76.5676 44.5833C70.9351 41.1786 69.0016 33.7387 66.7318 28.1903C65.723 25.6683 62.7806 19.6575 60.763 18.1443C59.7963 17.4297 55.0465 16.3789 54.1217 17.0094C52.1462 18.3544 58.241 27.812 59.0817 29.4933C60.9312 33.2763 62.9067 37.0173 65.3027 40.422C67.026 42.8179 69.7162 45.0457 65.8911 46.4748C61.94 47.988 60.0064 45.7603 57.3163 43.7006C55.1726 42.1033 52.4404 41.8511 49.7503 41.5569C42.3524 40.6742 35.3328 41.5149 29.4061 46.4328C26.5478 48.8287 24.7404 52.1073 23.2271 55.47C22.8068 56.3106 20.3689 63.7506 20.7051 63.7926C19.1919 63.5404 20.1167 60.0096 18.1831 62.0692C16.4598 63.8767 18.6875 69.0888 19.4441 70.8963C21.1675 74.9315 22.9749 78.8826 24.32 83.086C25.6651 87.2893 25.9593 87.2052 29.8264 87.5415C34.7443 88.0039 39.5782 86.4907 44.412 85.9022C44.412 85.9022 35.8372 80.564 52.7767 86.4066C56.5597 87.7096 60.5529 87.3734 64.504 87.4995C67.3203 86.8269 67.4043 81.9931 68.8755 79.7233C69.4219 78.8826 72.1541 74.5952 72.9948 74.2589C74.2137 73.7966 75.9371 75.0576 77.1561 75.2257C84.2177 76.3186 86.4035 70.518 85.2685 64.8434C84.3018 59.8835 84.8482 54.3351 85.5628 50.51C85.857 49.0809 84.3438 46.0124 84.0916 44.7094ZM52.5245 105.069C51.7679 104.355 50.633 104.187 49.8764 103.43C49.456 102.968 49.3299 102.547 49.414 102.043C49.414 102.043 49.372 102.043 49.372 102.001C48.8255 100.992 50.0865 100.152 50.9692 100.488C51.4316 100.698 52.1041 100.992 52.1882 101.539C52.2302 102.253 51.7679 102.758 51.6418 103.388C52.1462 103.682 52.6506 104.397 52.9028 104.733C53.0709 105.027 52.7346 105.28 52.5245 105.069Z" fill="#C1272D"/>
</svg>
