<svg width="160" height="64" viewBox="0 0 160 64" fill="none" xmlns="http://www.w3.org/2000/svg">
<path d="M28.0242 18.9933H22.4645C20.7813 18.9933 19.4551 17.6671 19.4551 15.9839V10.4242C19.4551 8.79195 20.7813 7.41476 22.4645 7.41476H28.0242C29.6564 7.41476 31.0336 8.74094 31.0336 10.4242V15.9839C31.0336 17.6671 29.7074 18.9933 28.0242 18.9933Z" fill="#406EB3"/>
<path d="M13.5893 31.4899H7.36643C5.4792 31.4899 4 29.9597 4 28.1235V21.8496C4 20.0134 5.53019 18.4832 7.36643 18.4832H13.6403C15.5275 18.4832 17.0067 20.0134 17.0067 21.8496V28.1235C17.0067 30.0107 15.4765 31.4899 13.5893 31.4899Z" fill="#632678"/>
<path d="M13.0298 44.4966H9.20432C8.08218 44.4966 7.16406 43.5785 7.16406 42.4563V38.6308C7.16406 37.5087 8.08218 36.5906 9.20432 36.5906H13.0298C14.152 36.5906 15.0701 37.5087 15.0701 38.6308V42.4563C15.0701 43.5785 14.152 44.4966 13.0298 44.4966Z" fill="#982881"/>
<path d="M23.2789 56.5852H18.7393C17.4132 56.5852 16.291 55.5141 16.291 54.1369V49.5973C16.291 48.2712 17.3622 47.149 18.7393 47.149H23.2789C24.6051 47.149 25.7272 48.2202 25.7272 49.5973V54.1369C25.7272 55.5141 24.6561 56.5852 23.2789 56.5852Z" fill="#BA2F7D"/>
<path d="M39.8571 21.2885H36.7457C35.8276 21.2885 35.0625 20.5234 35.0625 19.6053V16.4939C35.0625 15.5758 35.8276 14.8107 36.7457 14.8107H39.8571C40.7752 14.8107 41.5403 15.5758 41.5403 16.4939V19.6053C41.5914 20.5234 40.8262 21.2885 39.8571 21.2885Z" fill="#BA2F7D"/>
<path d="M110.297 21.5946C110.297 22.5638 109.532 23.3799 108.512 23.3799C107.492 23.3799 106.676 22.5638 106.676 21.5946C106.676 20.6255 107.492 19.8094 108.512 19.8094C109.481 19.8094 110.297 20.5745 110.297 21.5946Z" fill="#26478D"/>
<path fill-rule="evenodd" clip-rule="evenodd" d="M57.5044 27.7154C59.0856 26.2872 61.2279 25.4201 63.5232 25.4201C68.5728 25.4201 72.5513 29.4496 72.5513 34.4483C72.5513 39.3959 68.5218 43.4254 63.5232 43.4254C61.2279 43.4254 59.0856 42.5583 57.5044 41.1301V48.8321C57.5044 49.5973 56.7903 50.2604 56.0252 50.2604C55.3111 50.2604 54.546 49.5973 54.546 48.8321V27.0013C54.546 26.2362 55.2601 25.5731 56.0252 25.5731C56.8413 25.5731 57.5044 26.2362 57.5044 27.0013V27.7154ZM63.4721 28.4295C60.1057 28.4295 57.4534 31.0818 57.4534 34.4483C57.4534 37.8147 60.1057 40.4671 63.4721 40.4671C66.8386 40.4671 69.4909 37.8147 69.4909 34.4483C69.5419 31.0818 66.8896 28.4295 63.4721 28.4295Z" fill="#26478D"/>
<path d="M42.5611 42.6603C42.306 43.0684 41.847 43.2724 41.3369 43.2724C41.0819 43.2724 40.7248 43.2213 40.5208 43.0684C40.1128 42.8134 39.8577 42.3033 39.8577 41.7932C39.8577 41.5382 39.9088 41.2832 40.0618 41.0792L44.2443 34.4993L40.0618 27.9195C39.9087 27.7154 39.8577 27.4094 39.8577 27.2053C39.8577 26.6953 40.1127 26.1852 40.5718 25.9302C40.8268 25.7771 41.0819 25.7262 41.3369 25.7262C41.847 25.7262 42.306 25.9302 42.6121 26.3382L46.0295 31.7449L49.498 26.3382C49.753 25.9302 50.2631 25.7262 50.7731 25.7262C51.0282 25.7262 51.2832 25.7772 51.5383 25.9302C51.9973 26.1852 52.2523 26.6953 52.2523 27.2053C52.2523 27.4604 52.2013 27.7154 52.0483 27.9195L47.8658 34.4993L52.0483 41.0792C52.2013 41.2832 52.2523 41.5382 52.2523 41.7932C52.2523 42.3033 51.9973 42.8644 51.5893 43.0684C51.3342 43.2215 51.0282 43.2724 50.7731 43.2724C50.2631 43.2724 49.855 43.0684 49.549 42.6603L46.0805 37.3047L42.5611 42.6603Z" fill="#26478D"/>
<path d="M98.107 32.8161V41.8443C98.107 42.6094 97.3929 43.2725 96.6278 43.2725C95.8117 43.2725 95.1486 42.6094 95.1486 41.8443V27.0014C95.1486 26.2363 95.8627 25.5732 96.6278 25.5732C97.3419 25.5732 98.056 26.1853 98.107 26.9504C99.3311 26.0323 100.912 25.4712 102.596 25.4712C103.514 25.4712 104.228 26.1853 104.228 26.9504C104.228 27.7665 103.514 28.4806 102.596 28.4806C100.3 28.5317 98.107 29.3477 98.107 32.8161Z" fill="#26478D"/>
<path d="M108.513 25.5732C107.697 25.5732 107.034 26.2363 107.034 27.0014V41.8953C107.034 42.6604 107.748 43.3235 108.513 43.3235C109.227 43.3235 109.992 42.6604 109.992 41.8953V27.0014C109.992 26.2363 109.278 25.5732 108.513 25.5732Z" fill="#26478D"/>
<path fill-rule="evenodd" clip-rule="evenodd" d="M127.486 27.0014C127.486 26.2363 128.2 25.5732 128.965 25.5732C129.679 25.5732 130.444 26.2363 130.444 27.0014V41.8953C130.444 42.6604 129.73 43.3235 128.965 43.3235C128.149 43.3235 127.486 42.6604 127.486 41.8953V41.1812C125.853 42.6094 123.762 43.4765 121.467 43.4765C116.417 43.4765 112.439 39.447 112.439 34.4483C112.439 29.5007 116.468 25.4712 121.467 25.4712C123.762 25.4712 125.853 26.3383 127.486 27.7665V27.0014ZM121.467 40.4671C124.833 40.4671 127.486 37.8148 127.486 34.4483C127.486 31.0819 124.833 28.4296 121.467 28.4296C118.1 28.4296 115.448 31.0819 115.448 34.4483C115.448 37.8148 118.1 40.4671 121.467 40.4671Z" fill="#26478D"/>
<path d="M145.594 33.0202C145.594 30.5208 143.452 28.3785 140.953 28.3785C138.555 28.3785 136.311 29.3477 136.311 32.8671V41.8953C136.311 42.6604 135.597 43.3235 134.832 43.3235C134.016 43.3235 133.353 42.6604 133.353 41.8953V27.0014C133.353 26.2363 134.067 25.5732 134.832 25.5732C135.546 25.5732 136.26 26.1853 136.311 26.9504C137.586 25.9812 139.168 25.4712 140.902 25.4712C144.931 25.4712 148.553 28.6336 148.553 32.6121V41.8953C148.553 42.6604 147.839 43.3235 147.074 43.3235C146.257 43.3235 145.594 42.6604 145.594 41.8953V33.0202Z" fill="#26478D"/>
<path fill-rule="evenodd" clip-rule="evenodd" d="M38.9897 33.9383C38.9386 29.3477 34.8582 25.4712 30.0125 25.4712C24.9629 25.4712 20.9844 29.5007 20.9844 34.4483C20.9844 39.498 25.0139 43.4765 30.0125 43.4765C32.4099 43.4765 34.6542 42.5584 36.2864 40.9262C36.5924 40.6712 36.7964 40.2121 36.7964 39.804C36.7964 38.9879 36.0823 38.3249 35.3172 38.3249C34.8582 38.3249 34.4501 38.5799 34.1441 38.9369C33.1239 40.0081 31.6448 40.5181 30.0636 40.5181C27.0542 40.5181 24.6058 38.4779 24.0958 35.6215H37.7146C37.7657 35.6215 37.8166 35.6215 37.8677 35.5704C38.4798 35.3153 38.9897 34.7034 38.9897 33.9383ZM30.0125 28.4296C32.7159 28.4296 34.9602 30.1638 35.7253 32.6121H24.2488C25.0139 30.1638 27.2582 28.4296 30.0125 28.4296Z" fill="#26478D"/>
<path fill-rule="evenodd" clip-rule="evenodd" d="M92.6484 33.9383C92.5974 29.3477 88.4658 25.4712 83.6712 25.4712C78.6216 25.4712 74.643 29.5007 74.643 34.4483C74.643 39.498 78.6726 43.4765 83.6712 43.4765C86.0685 43.4765 88.3128 42.5584 89.945 40.9262C90.2511 40.6712 90.4551 40.2121 90.4551 39.804C90.4551 38.9879 89.741 38.3249 88.9759 38.3249C88.5168 38.3249 88.1088 38.5799 87.8027 38.9369C86.7826 40.0081 85.3034 40.5181 83.7222 40.5181C80.7128 40.5181 78.2645 38.4779 77.7544 35.6215H91.4752C92.0873 35.3665 92.6484 34.7034 92.6484 33.9383ZM83.6712 28.4296C86.3746 28.4296 88.6189 30.1638 89.3839 32.6121H77.9075C78.6726 30.1638 80.9169 28.4296 83.6712 28.4296Z" fill="#26478D"/>
<path d="M151.714 43.3235C151.561 43.3235 151.459 43.2215 151.459 43.0685V40.5691H150.898C150.745 40.5691 150.643 40.4672 150.643 40.3141C150.643 40.161 150.745 40.0591 150.898 40.0591H152.53C152.683 40.0591 152.785 40.1611 152.785 40.3141C152.785 40.4672 152.683 40.5691 152.53 40.5691H151.969V43.0685C151.969 43.2215 151.867 43.3235 151.714 43.3235Z" fill="#26478D"/>
<path d="M154.622 43.3235C154.469 43.3235 154.418 43.2215 154.367 43.1195L153.653 41.0792V43.0685C153.653 43.2215 153.551 43.3235 153.398 43.3235C153.245 43.3235 153.143 43.2215 153.143 43.0685V40.4161C153.143 40.2121 153.296 40.0591 153.5 40.0591C153.653 40.0591 153.806 40.1611 153.857 40.3141L154.571 42.4054L155.285 40.3141C155.336 40.161 155.489 40.0591 155.642 40.0591C155.846 40.0591 155.999 40.2121 155.999 40.4161V43.0685C155.999 43.2215 155.897 43.3235 155.744 43.3235C155.591 43.3235 155.489 43.2215 155.489 43.0685V41.0792C155.458 41.1719 155.423 41.2834 155.384 41.405C155.295 41.6849 155.188 42.019 155.081 42.3034C154.826 43.1195 154.775 43.1195 154.775 43.1195C154.826 43.2726 154.724 43.3235 154.622 43.3235Z" fill="#26478D"/>
</svg>
