<svg width="160" height="72" viewBox="0 0 160 72" fill="none" xmlns="http://www.w3.org/2000/svg">
<path opacity="0.6" d="M151.974 19.9662C148.084 15.9058 141.8 13.9309 132.725 13.9309C126.722 13.9309 121.426 14.9303 116.932 16.9082L119.625 4.27209H97.1085L94.2719 17.6084C90.9206 15.5138 86.5669 14.3917 81.549 14.3917C79.4168 14.389 77.293 14.6595 75.2295 15.1966H63.8202L65.7143 6.29483H14.2483L4 56.4592H44.709L42.3152 67.7278H64.8376L67.1924 56.6567C69.5915 57.3957 72.091 57.7571 74.6011 57.7279C78.6019 57.7469 82.5646 56.9497 86.2468 55.385L86.0164 56.4622H108.524L109.065 53.9098C113.057 56.4442 118.593 57.7279 125.561 57.7279C140.148 57.7279 149.616 52.3419 154.514 41.1989C155.2 39.4017 155.617 37.5133 155.753 35.5945L155.977 31.6149C156.196 26.8932 154.846 22.9734 151.974 19.9662Z" fill="white"/>
<path d="M101.193 9.32288H113.38L111.815 16.6837H99.6281L101.193 9.32288Z" fill="#CE1141"/>
<path fill-rule="evenodd" clip-rule="evenodd" d="M60.7414 62.677H48.5511L50.9479 51.4083H10.1851L18.3628 11.3217H59.4697L57.5876 20.1757H30.164L28.8594 27.0278H53.0305L51.2352 35.5376H27.0611L25.7625 42.5304H52.842L57.5816 20.2235H69.4248L68.5451 24.3618H68.6618C71.9203 21.199 76.612 19.4186 81.5552 19.4186C90.5378 19.4186 96.1123 23.4611 96.6389 30.789L98.883 20.2295H111.07L108.656 31.5999C112.354 23.1589 121.133 18.9698 132.737 18.9698C143.952 18.9698 151.36 22.2433 150.947 31.3725H138.314C138.021 28.5957 135.843 27.0188 131.199 27.0188C125.508 27.0188 121.384 30.1816 120.188 35.8159C118.991 41.4503 121.654 44.613 127.518 44.613C131.917 44.613 135.28 42.8147 137.004 39.1762H149.894C146.106 47.7848 139.009 52.662 125.577 52.662C113.665 52.662 106.89 48.6704 106.83 40.1816L104.437 51.3963H92.2493L94.3917 41.3036C90.9776 47.9074 83.8382 52.674 74.5953 52.674C69.1914 52.674 65.4302 50.8907 63.8503 48.5926H63.7336L60.7414 62.677ZM76.8036 27.9524C71.1094 27.9524 67.4619 31.0553 66.4355 35.8847C65.4092 40.7142 67.7372 43.8201 73.4313 43.8201C79.0058 43.8201 82.6384 41.0583 83.7395 35.8847C84.8406 30.7112 82.381 27.9524 76.8036 27.9524Z" fill="#CE1141"/>
</svg>
