<svg width="160" height="64" viewBox="0 0 160 64" fill="none" xmlns="http://www.w3.org/2000/svg">
<path fill-rule="evenodd" clip-rule="evenodd" d="M137.398 20.291C148.588 20.291 156 28.0715 156 39.8144C156 51.5571 148.588 59.4098 137.398 59.4098C125.781 59.4098 118.012 51.5571 118.012 39.8144C118.012 28.0715 125.781 20.291 137.398 20.291ZM77.6795 21.079V58.6216L69.3156 56.902V22.7269L77.6795 21.079ZM111.17 20.207V29.0178L106.35 29.911C102.209 30.7063 99.5457 32.8605 99.5457 37.6276V58.6216L91.1817 56.902V36.3486C91.1817 26.1477 97.1554 23.1132 106.35 20.9952L111.17 20.207ZM22.2871 20.291C25.5695 20.291 29.5946 22.1266 31.864 25.416C34.1419 22.4204 37.9498 20.4549 42.6232 20.3911C48.5057 20.3109 55.8133 24.0165 55.8133 35.1218V58.6216L47.4494 56.902V35.1218C47.4494 31.3961 44.756 28.7451 40.7867 28.7451C36.8173 28.7451 34.1239 31.3961 34.1239 35.1218V58.6216L25.7601 56.902V35.1218C25.7601 31.3961 23.0668 28.7451 19.0976 28.7451C15.0573 28.7451 12.3639 31.3961 12.3639 35.1218V58.6216L4 56.902V22.7269L12.3639 21.079V24.948C14.7029 22.0821 18.247 20.291 22.2871 20.291ZM137.398 28.2156C130.912 28.2156 126.565 32.8262 126.565 39.8144C126.565 46.8025 130.912 51.4851 137.398 51.4851C143.455 51.4851 147.447 46.8025 147.447 39.8144C147.447 32.8262 143.455 28.2156 137.398 28.2156ZM73.6751 4.59016C76.7184 4.59016 78.7343 6.70622 78.7343 9.90012C78.7343 13.0938 76.7184 15.2296 73.6751 15.2296C70.5153 15.2296 68.4026 13.0938 68.4026 9.90012C68.4026 6.70622 70.5153 4.59016 73.6751 4.59016Z" fill="#050038"/>
</svg>
