<svg width="176" height="48" viewBox="0 0 176 48" fill="none" xmlns="http://www.w3.org/2000/svg">
<path fill-rule="evenodd" clip-rule="evenodd" d="M102.118 5.94505C102.623 5.05262 103.396 4.28972 104.405 4.00647C104.861 3.99793 105.316 3.99936 105.773 4.0022C106.392 4.28829 106.936 4.73664 107.272 5.33586C107.538 5.93651 107.394 6.56562 107.257 7.17622C107.081 7.54487 106.947 7.93343 106.819 8.32058C106.711 8.554 106.614 8.7917 106.529 9.03367C106.425 9.26709 106.329 9.50479 106.244 9.74533C106.142 9.98018 106.045 10.2165 105.959 10.457C105.857 10.6918 105.762 10.9295 105.673 11.1701C105.572 11.4049 105.477 11.6412 105.389 11.8817C105.288 12.1166 105.192 12.3529 105.104 12.5934C105.003 12.8283 104.908 13.0645 104.821 13.3051C104.718 13.5399 104.623 13.7762 104.536 14.0167C104.434 14.2516 104.338 14.4879 104.251 14.7284C104.149 14.9632 104.054 15.1995 103.967 15.4401C103.864 15.6749 103.769 15.9112 103.682 16.1517C103.58 16.3866 103.484 16.6228 103.397 16.8634C103.296 17.0982 103.2 17.3359 103.113 17.5751C103.01 17.8099 102.915 18.0476 102.828 18.2881C102.726 18.5216 102.63 18.7578 102.545 18.9984C102.442 19.2332 102.346 19.4695 102.259 19.71C102.158 19.9449 102.061 20.1826 101.976 20.4231C101.872 20.658 101.775 20.8957 101.687 21.1362C101.631 21.2842 101.58 21.4337 101.531 21.5846C103.326 20.2367 105.09 18.8418 106.939 17.5679C107.128 17.4669 107.32 17.3672 107.511 17.2648C108.14 17.0071 108.826 17.0541 109.489 17.0997C109.959 17.3687 110.404 17.6903 110.679 18.1686C111.026 19.0425 110.873 20.073 110.298 20.8145C109.938 21.2643 109.502 21.6429 109.069 22.0201C108.87 22.1539 108.677 22.2962 108.49 22.4471C107.509 23.1203 106.571 23.8548 105.622 24.5707C105.781 24.807 105.939 25.0461 106.097 25.2838C106.191 25.4304 106.285 25.5756 106.384 25.7208C106.6 26.1122 106.843 26.4865 107.095 26.8566C107.397 27.3989 107.749 27.9098 108.094 28.4251C108.227 28.6628 108.363 28.899 108.511 29.1296C108.61 29.2734 108.708 29.4186 108.812 29.5623C109.089 30.0747 109.383 30.5857 109.545 31.1507C109.649 31.5678 109.471 31.9777 109.394 32.3819C108.964 33.0623 108.399 33.6857 107.645 34.0074C107.125 34.1767 106.603 34.2009 106.088 34.0031C105.772 33.7811 105.44 33.5604 105.235 33.2245C104.516 32.14 103.797 31.054 103.076 29.9708C102.98 29.8271 102.886 29.6847 102.791 29.5424C102.696 29.3986 102.602 29.2549 102.506 29.114C102.411 28.9702 102.317 28.8265 102.222 28.6855C102.126 28.5418 102.03 28.3966 101.934 28.2557C101.329 27.2096 100.591 26.2502 99.9757 25.2126C99.9886 25.2582 100.013 25.3507 100.024 25.3962C99.8975 25.6282 99.7879 25.8688 99.6939 26.115C99.5943 26.3513 99.5004 26.589 99.4164 26.8295C99.3125 27.063 99.2157 27.3006 99.1303 27.5412C99.0278 27.7746 98.9324 28.0123 98.847 28.2529C98.7431 28.4863 98.6478 28.724 98.5638 28.9645C98.0557 30.163 97.65 31.4084 96.9996 32.5413C96.4644 33.1349 95.925 33.8024 95.1122 34.0074C94.7521 34.0543 94.3977 34.2493 94.0305 34.1469C93.7401 34.0743 93.4469 34.0259 93.1523 33.9803C92.7239 33.6088 92.2129 33.2544 92.045 32.6822C91.6891 31.8809 92.1674 31.0483 92.388 30.2797C92.4919 30.0448 92.5915 29.8085 92.6812 29.568C92.7794 29.3317 92.8762 29.0955 92.963 28.8563C93.0626 28.6215 93.1609 28.3838 93.2491 28.1447C93.3473 27.9098 93.4455 27.6721 93.5338 27.433C93.6334 27.1967 93.7288 26.9605 93.8184 26.7199C93.9195 26.4865 94.0134 26.2488 94.1017 26.0097C94.2027 25.7748 94.2981 25.5371 94.3863 25.298C94.486 25.0618 94.5828 24.8255 94.671 24.5849C94.7721 24.3515 94.8674 24.1138 94.9557 23.8733C95.0567 23.6398 95.1521 23.4022 95.2403 23.1616C95.3414 22.9282 95.4368 22.6905 95.525 22.4514C95.6261 22.2165 95.7214 21.9788 95.8097 21.7383C95.9093 21.5034 96.0061 21.2672 96.0943 21.0266C96.1954 20.7918 96.2907 20.5555 96.379 20.315C96.48 20.0801 96.5754 19.8438 96.6637 19.6033C96.7647 19.3684 96.8601 19.1322 96.9483 18.8916C97.0494 18.6568 97.1447 18.4191 97.2316 18.18C97.334 17.9451 97.4294 17.7074 97.5162 17.4683C97.6173 17.2335 97.7127 16.9958 97.8009 16.7552C97.902 16.5218 97.9987 16.2841 98.0856 16.0436C98.1866 15.8101 98.282 15.5724 98.3702 15.3319C98.4713 15.0985 98.5667 14.8608 98.6549 14.6202C98.756 14.3868 98.8513 14.1491 98.9396 13.9086C99.0406 13.6751 99.136 13.4374 99.2228 13.1969C99.4192 12.7258 99.6128 12.2518 99.7921 11.7736C99.8946 11.5387 99.99 11.3024 100.078 11.0619C100.179 10.8271 100.275 10.5908 100.363 10.3502C100.464 10.1154 100.559 9.87912 100.646 9.63858C100.747 9.40373 100.844 9.16746 100.931 8.92692C101.032 8.69207 101.129 8.45579 101.215 8.21525C101.317 7.98183 101.413 7.74413 101.499 7.50359C101.715 6.98834 101.923 6.46883 102.118 5.94505ZM13.8602 7.59041C15.5013 7.02535 17.2562 7.0652 18.9657 7.14918C19.2446 7.20469 19.5207 7.27728 19.8054 7.30432C20.7491 7.58899 21.6657 7.95621 22.5183 8.45579C23.59 9.23862 24.5551 10.1908 25.2112 11.3551C25.3706 11.7807 25.5428 12.202 25.7051 12.6261C25.9371 13.604 25.9058 14.6103 25.8773 15.608C25.7834 16.7196 25.4475 17.79 25.1272 18.8532C24.9564 19.2233 24.8169 19.6076 24.6945 19.9961C24.4697 20.4416 24.3145 20.9199 24.0669 21.354C24.5067 20.7761 25.0632 20.3021 25.5485 19.7641C26.3413 18.8091 27.2665 17.9764 28.1077 17.0641C29.0969 15.8742 30.2896 14.8693 31.2703 13.6709C33.0495 11.9301 34.645 10.0143 36.4754 8.32343C36.7701 8.13555 37.0618 7.94197 37.3522 7.74555C38.0824 7.33421 38.9221 7.34987 39.7348 7.42104C40.3711 7.73559 40.9988 8.19817 41.2535 8.88706C41.4898 9.42366 41.3845 10.0215 41.3845 10.5879C41.1738 10.9708 40.9859 11.3665 40.7753 11.7494C40.6742 11.8931 40.576 12.0397 40.4807 12.1878C39.8886 12.7856 39.3918 13.4702 38.7769 14.0466C38.0781 14.7739 37.338 15.4671 36.6975 16.2485C35.7339 17.2747 34.6891 18.2284 33.7853 19.3087C33.0623 20.0573 32.3222 20.7875 31.6076 21.5447C30.8433 22.4685 29.9523 23.2769 29.1296 24.148C29.2179 24.3401 29.3061 24.5323 29.3958 24.7244C29.5637 25.2553 29.7331 25.7862 29.9609 26.2958C30.1388 26.821 30.301 27.3533 30.5302 27.8614C30.7081 28.3866 30.8704 28.919 31.0995 29.4271C31.2774 29.9523 31.4397 30.4846 31.6688 30.9913C31.8468 31.518 32.009 32.0503 32.2382 32.557C32.4147 33.0822 32.5812 33.6131 32.8061 34.1212C32.9328 34.5112 33.0637 34.9026 33.2473 35.2727C33.263 35.3382 33.2929 35.4677 33.3085 35.5317C33.4765 35.9602 33.6117 36.4014 33.791 36.827C33.8693 37.0191 33.959 37.207 34.0529 37.3935C34.5112 38.098 35.3809 38.4325 36.195 38.4453C78.28 38.4439 120.365 38.4467 162.451 38.4439C162.831 38.4396 163.193 38.5834 163.571 38.6147C163.869 38.7655 164.168 38.915 164.47 39.0588C164.712 39.3292 164.897 39.6395 165.074 39.9554C165.096 40.5063 165.099 41.0585 165.067 41.6108C165.003 41.7602 164.944 41.9097 164.891 42.0634C164.544 42.6754 164.027 43.1679 163.429 43.5337C162.827 43.7159 162.231 43.9792 161.596 43.9977C119.081 43.9991 76.5663 43.9977 34.0515 43.9991C33.5363 44.0148 33.0466 43.8155 32.53 43.8354C32.0033 43.6362 31.4397 43.5052 30.9714 43.1779C30.3651 42.8206 30.0206 42.1872 29.6178 41.6364C29.447 41.2962 29.2748 40.9589 29.1097 40.6173C28.9987 40.3312 28.8862 40.0451 28.751 39.769C28.7368 39.7049 28.7069 39.5768 28.6912 39.5128C28.3838 38.7001 28.1006 37.876 27.7704 37.0704C27.5896 36.5423 27.4316 36.0043 27.1868 35.5004C27.1711 35.4364 27.1398 35.3083 27.1242 35.2442C26.9562 34.8115 26.8238 34.366 26.6317 33.9447C26.505 33.5576 26.3726 33.1719 26.2047 32.8018C26.0268 32.2766 25.8631 31.7443 25.6339 31.2376C25.456 30.7124 25.2909 30.1815 25.066 29.6748C24.9379 29.2848 24.807 28.8948 24.6248 28.5261C24.6091 28.4621 24.5778 28.3326 24.5622 28.2685C24.3942 27.8358 24.2619 27.3903 24.0697 26.969C23.943 26.5819 23.8107 26.1961 23.6413 25.8261C23.4406 25.2069 23.2228 24.5935 22.9666 23.9957C22.9353 24.1793 22.8997 24.3629 22.8641 24.5465C22.7446 24.7785 22.6407 25.0176 22.551 25.2624C22.4514 25.4973 22.356 25.7336 22.2692 25.9741C22.1681 26.2075 22.0714 26.4452 21.9831 26.6843C21.882 26.9192 21.7867 27.1569 21.6984 27.396C21.5974 27.6309 21.502 27.8671 21.4123 28.1077C21.3113 28.3425 21.2159 28.5802 21.1305 28.8222C20.8672 29.3801 20.6409 29.9537 20.4231 30.5302C20.3192 30.765 20.2239 31.0013 20.137 31.2418C20.0346 31.4753 19.9378 31.713 19.851 31.9535C19.7485 32.1869 19.6531 32.4246 19.5663 32.6652C19.4638 32.8986 19.367 33.1349 19.2802 33.3754C19.1777 33.6103 19.0824 33.8465 18.9955 34.0856C18.8931 34.3219 18.7977 34.5582 18.7109 34.8002C18.5899 35.0763 18.4817 35.3567 18.3707 35.6371C18.2782 35.8292 18.1857 36.0214 18.0946 36.2135C17.6448 36.9423 17.1367 37.6539 16.3994 38.1165C16.3282 38.1549 16.1887 38.2332 16.119 38.2731C15.5653 38.4211 15.0088 38.6688 14.4238 38.5762C14.1818 38.525 13.9456 38.4581 13.7022 38.4183C13.2766 38.1777 12.8767 37.8916 12.5422 37.5329C12.4383 37.328 12.3301 37.1245 12.2177 36.9238C12.0839 35.9587 12.276 34.9966 12.6831 34.1184C12.7856 33.885 12.8824 33.6487 12.9706 33.4081C13.0731 33.1733 13.1684 32.937 13.2553 32.6965C13.3577 32.4616 13.4531 32.2254 13.5399 31.9848C13.6424 31.7514 13.7392 31.5151 13.826 31.2746C13.9271 31.0397 14.0239 30.8035 14.1107 30.5643C14.2117 30.3281 14.3085 30.0918 14.3968 29.8527C14.4964 29.6164 14.5932 29.3801 14.6814 29.141C14.7825 28.9062 14.8779 28.6685 14.9675 28.4293C15.0672 28.1945 15.1639 27.9568 15.2493 27.7148C15.6151 26.9235 15.9226 26.1065 16.2414 25.2952C16.3439 25.0603 16.4421 24.8241 16.5289 24.5835C16.63 24.3487 16.7268 24.1124 16.8136 23.8719C16.9161 23.6384 17.0114 23.4007 17.0982 23.1616C17.2007 22.9268 17.2975 22.6905 17.3843 22.4499C17.4854 22.2151 17.5822 21.9788 17.669 21.7383C17.7701 21.5034 17.8668 21.2672 17.9551 21.0266C18.0547 20.7918 18.1515 20.5555 18.2398 20.3164C18.3408 20.0815 18.4362 19.8438 18.5244 19.6033C18.9415 18.624 19.3016 17.622 19.5734 16.5915C19.7755 15.8443 19.888 15.0145 19.6019 14.2758C19.1564 13.5043 18.4091 12.9279 17.5381 12.7258C16.6271 12.5977 15.6749 12.6674 14.8252 13.046C14.633 13.1343 14.4423 13.2268 14.2587 13.3307C12.7898 14.2544 11.5302 15.6906 11.163 17.4256C11.0334 17.8341 11.0861 18.2711 11.0178 18.6909C11.0562 19.2617 11.0904 19.8381 11.3807 20.3491C11.7821 21.0238 12.3828 21.5732 13.0944 21.9077C13.3891 22.0358 13.6837 22.1681 13.994 22.2578C14.4295 22.4855 14.828 22.7773 15.1654 23.1346C15.1981 23.2114 15.2622 23.3666 15.2935 23.4434C15.3532 23.5943 15.4144 23.7438 15.4799 23.8932C15.6863 25.2439 14.7626 26.5079 13.5627 27.0359C12.4682 27.3533 11.2697 27.2964 10.1709 27.0245C9.93749 26.9135 9.70121 26.8153 9.45925 26.7256C9.22155 26.5733 8.97674 26.4338 8.73051 26.2986C7.61035 25.54 6.80047 24.4369 6.12297 23.2869C5.98633 22.9453 5.85823 22.6008 5.70167 22.2692C5.32448 20.9526 5.15368 19.5862 5.25189 18.217C5.4412 17.1523 5.5878 16.0649 5.98775 15.0458C6.14147 14.7156 6.27242 14.3754 6.40906 14.0381C6.60975 13.7093 6.81186 13.3805 6.99689 13.0432C7.19047 12.7599 7.38119 12.4767 7.56907 12.1892C8.50847 10.9865 9.60585 9.90617 10.8655 9.03794C11.0107 8.94115 11.1573 8.84294 11.301 8.74188C11.8604 8.43729 12.4312 8.15547 13.0048 7.87935C13.2923 7.7911 13.5769 7.69289 13.8602 7.59041ZM158.759 11.469C159.475 11.1857 160.251 11.2114 161.007 11.2626C161.465 11.4804 161.858 11.8035 162.195 12.1806C162.228 12.2561 162.293 12.4098 162.325 12.4867C162.383 12.639 162.447 12.7927 162.515 12.9435C162.557 13.4047 162.46 13.8531 162.343 14.2971C162.238 14.5832 162.141 14.8722 162.051 15.1625C161.818 15.6222 161.592 16.0877 161.417 16.573C161.335 16.7125 161.256 16.852 161.176 16.9915C161.768 17.0968 162.373 17.0655 162.972 17.1054C163.122 17.168 163.275 17.2263 163.432 17.2804C163.822 17.5309 164.25 17.8085 164.376 18.2896C164.642 18.8874 164.481 19.5521 164.339 20.1598C163.986 20.974 163.213 21.4323 162.431 21.7653C161.395 22.0187 160.328 21.9176 159.272 21.9347C159.259 22.0158 159.232 22.1781 159.219 22.2592C159.099 22.4941 158.995 22.736 158.904 22.9837C158.803 23.2185 158.709 23.4562 158.623 23.6954C158.52 23.9302 158.425 24.1679 158.338 24.407C158.235 24.6419 158.14 24.8796 158.053 25.1187C157.951 25.3535 157.855 25.5912 157.769 25.8303C157.666 26.0652 157.571 26.3029 157.484 26.5434C157.381 26.7769 157.286 27.0131 157.201 27.2537C157.097 27.4885 157.001 27.7248 156.913 27.9639C156.808 28.2087 156.71 28.4564 156.633 28.7112C156.586 28.7596 156.49 28.8535 156.443 28.9019C157.683 28.9546 158.938 28.7894 160.157 29.077C160.447 29.2236 160.739 29.3702 161.031 29.5196C161.19 29.7715 161.354 30.0206 161.516 30.2711C161.513 30.8433 161.62 31.4482 161.384 31.9891C161.27 32.2951 161.072 32.5584 160.898 32.8303C160.526 33.1036 160.151 33.3768 159.734 33.5789C158.533 33.9006 157.277 33.7384 156.051 33.7782C154.814 33.7327 153.55 33.9106 152.341 33.5789C151.591 33.253 150.937 32.7249 150.584 31.972C150.51 31.3771 150.279 30.7679 150.514 30.1772C150.633 29.5111 150.917 28.9019 151.177 28.2842C151.277 28.0493 151.372 27.813 151.459 27.5725C151.56 27.3377 151.657 27.1014 151.745 26.8608C151.845 26.626 151.94 26.3897 152.028 26.1492C152.129 25.9143 152.225 25.6781 152.313 25.4375C152.414 25.2027 152.509 24.9664 152.596 24.7258C152.99 23.8021 153.319 22.8499 153.742 21.9375C152.791 21.9988 151.635 21.7966 151.159 20.8629C151.093 20.4929 150.928 20.1299 150.996 19.7485C151.052 19.4567 151.123 19.1678 151.153 18.8731C151.504 18.1188 152.158 17.5864 152.912 17.2648C153.735 17.0114 154.597 17.0854 155.446 17.0456C155.924 16.8577 155.918 16.1731 156.156 15.7589C156.257 15.5255 156.352 15.2878 156.441 15.0472C156.542 14.8124 156.638 14.5761 156.727 14.3356C156.828 14.1007 156.924 13.8616 157.007 13.6182C157.147 13.3307 157.289 13.0446 157.431 12.7585C157.833 12.2888 158.271 11.849 158.759 11.469ZM48.7274 16.8221C49.4192 16.7538 50.1166 16.7993 50.8097 16.8193C51.4104 17.0299 52.011 17.2406 52.5633 17.5622C53.134 18.0689 53.6735 18.6198 54.0322 19.303C54.1987 19.9563 54.4079 20.6195 54.341 21.3027C54.2457 22.0785 53.988 22.82 53.7318 23.5544C52.959 25.3165 52.2687 27.1156 51.5712 28.9076C52.8508 28.946 54.146 28.7951 55.4043 29.0741C55.8683 29.2748 56.2668 29.5865 56.5942 29.9708C56.8902 30.7024 56.765 31.498 56.56 32.2353C56.1899 32.6993 55.7658 33.1192 55.2548 33.4252C54.9573 33.5149 54.6627 33.6159 54.3766 33.7369C52.1221 33.8038 49.8632 33.801 47.6087 33.7398C47.1319 33.4864 46.6223 33.2715 46.2209 32.9029C45.9292 32.584 45.7384 32.1912 45.5349 31.8169C45.5135 31.5052 45.4808 31.1949 45.4011 30.8945C45.4922 30.5985 45.5192 30.2896 45.5349 29.9822C45.5563 29.9495 45.6004 29.8826 45.6231 29.8498C45.6886 29.6107 45.7669 29.3759 45.8381 29.1382C46.0487 28.6713 46.2352 28.1931 46.4174 27.7148C46.5198 27.48 46.6166 27.2437 46.7035 27.0032C46.8059 26.7683 46.9013 26.5321 46.9881 26.2915C47.0906 26.0581 47.1874 25.8218 47.2742 25.5827C47.3753 25.3464 47.4706 25.1087 47.5603 24.8696C47.6614 24.6348 47.7567 24.3985 47.845 24.1594C48.1439 23.5715 48.2933 22.9296 48.225 22.2692C47.9987 22.0301 47.7382 21.8308 47.4578 21.6614C47.26 21.6472 47.065 21.6301 46.87 21.6088C45.6972 21.5106 44.7962 22.3902 44.1699 23.2741C44.0048 23.5445 43.8525 23.8235 43.7031 24.1039C42.5858 26.636 41.6264 29.2349 40.5803 31.7984C40.3967 32.0873 40.2188 32.3805 40.0608 32.6837C39.584 33.2487 39.0203 33.7412 38.3215 34.0074C38.0667 34.0387 37.8162 34.0871 37.5685 34.1469C37.1985 34.2479 36.8441 34.0529 36.4811 34.0102C36.02 33.8138 35.6342 33.4935 35.3126 33.1149C35.2684 33.0367 35.1773 32.8801 35.1332 32.8018C35.0251 31.9891 35.1176 31.1692 35.4535 30.4192C35.5588 30.1857 35.657 29.948 35.7453 29.7075C35.8463 29.4726 35.9417 29.2364 36.0285 28.9958C36.1296 28.761 36.2249 28.5247 36.3132 28.2842C36.4142 28.0493 36.5096 27.813 36.5978 27.5725C36.6989 27.3377 36.7942 27.1014 36.8811 26.8608C36.9836 26.626 37.0789 26.3897 37.1657 26.1492C37.2682 25.9143 37.3636 25.6781 37.449 25.4375C38.3072 23.3025 39.174 21.169 40.0081 19.024C40.1021 18.8347 40.196 18.6454 40.2914 18.4561C40.6757 17.8369 41.2564 17.4043 41.9111 17.1011C42.6612 17.0712 43.444 16.9716 44.1585 17.2648C44.6268 17.5494 44.9926 17.9551 45.2744 18.4219C45.4751 18.2782 45.6801 18.1401 45.8822 17.9992C46.2736 17.7843 46.6479 17.5423 47.0394 17.3288C47.5916 17.1296 48.1481 16.9303 48.7274 16.8221ZM65.1156 16.9829C66.2287 16.731 67.3759 16.7751 68.5103 16.8136C69.1394 16.8847 69.7485 17.0712 70.3478 17.2705C70.9584 17.5437 71.5163 17.9124 72.0686 18.2867C72.4102 18.6169 72.7461 18.9543 73.0777 19.2959C73.2627 19.5905 73.4563 19.878 73.6556 20.1641C73.8022 20.4502 73.9459 20.7377 74.094 21.0224C74.2847 21.6273 74.427 22.2478 74.5395 22.8713C74.5765 23.4363 74.5523 24.0028 74.558 24.5693C74.5964 25.2895 74.3131 25.9684 74.2391 26.6772C74.084 27.1042 73.9388 27.5369 73.8036 27.9725C73.0976 29.5894 72.134 31.1137 70.7861 32.2709C69.9962 32.8417 69.1394 33.3156 68.1971 33.5818C66.5574 33.8721 64.8808 33.764 63.2212 33.7483C62.0811 33.6288 60.8898 33.4266 59.9603 32.7022C59.0921 31.9507 58.3947 31.0198 57.9392 29.9651C57.8937 29.8185 57.8438 29.6733 57.7926 29.5296C57.2759 27.6309 57.3813 25.614 57.9378 23.7366C58.0474 23.5004 58.1442 23.257 58.2267 23.0107C58.4089 22.625 58.5996 22.245 58.7989 21.8678C59.6173 20.5256 60.7133 19.3784 61.9629 18.4319C62.1095 18.3337 62.2561 18.2355 62.4013 18.1358C62.8668 17.8825 63.3407 17.6462 63.8175 17.4142C64.2517 17.2776 64.6858 17.1352 65.1156 16.9829ZM81.0583 17.622C81.9578 17.2491 82.8802 16.8748 83.8608 16.8079C85.0109 16.7766 86.1894 16.7026 87.2839 17.1239C88.1507 17.4968 88.9563 18.0177 89.5911 18.7237C90.6259 20.0886 90.9063 21.9162 90.4622 23.5516C90.3526 23.7836 90.253 24.0199 90.1647 24.2604C90.0637 24.4099 89.9669 24.5622 89.873 24.7159C89.6808 24.9137 89.4858 25.1087 89.2937 25.3066C89.0973 25.4048 88.9023 25.5073 88.7087 25.6112C87.7736 25.977 86.6036 25.8076 85.9531 24.9977C85.6528 24.3786 85.8336 23.6754 85.7211 23.0221C85.6727 22.7673 85.6528 22.5083 85.6414 22.2493C85.4592 21.9062 85.1817 21.5632 84.7718 21.5134C84.2281 21.5006 83.6388 21.4237 83.162 21.7497C82.4845 22.0699 82.0247 22.6734 81.6091 23.2726C81.4924 23.4562 81.3814 23.6398 81.2704 23.8249C81.0355 24.323 80.822 24.844 80.7921 25.4005C80.5673 26.2844 80.7153 27.2907 81.2718 28.0251C81.8696 28.6485 82.7848 28.7567 83.5932 28.8976C85.445 28.9289 87.2996 28.8948 89.1528 28.9119C89.6296 28.9631 90.0964 29.0969 90.5604 29.2193C90.8166 29.4072 91.07 29.5993 91.3077 29.8142C91.3461 29.8939 91.4244 30.0548 91.4628 30.1359C91.4998 30.4177 91.5667 30.6953 91.6208 30.9757C91.544 31.3984 91.4529 31.8197 91.3219 32.2311C91.1582 32.4246 91.0045 32.6253 90.8565 32.8303C90.6558 32.974 90.4608 33.1235 90.2701 33.2772C90.2003 33.3156 90.0594 33.3911 89.9897 33.4295C89.4702 33.6046 88.9492 33.8081 88.3899 33.7682C85.714 33.7668 83.0367 33.8238 80.3623 33.7327C80.1687 33.6601 79.9709 33.6103 79.7716 33.5633C79.4912 33.438 79.2037 33.3299 78.9162 33.226C78.5162 32.9726 78.1277 32.7022 77.759 32.4047C77.3505 32.0802 77.0844 31.6233 76.7314 31.2475C76.4766 30.7793 76.2403 30.301 76.0083 29.8214C75.2469 27.5611 75.4604 25.0774 76.2987 22.8698C76.4866 22.487 76.6745 22.1041 76.878 21.7297C77.0331 21.4992 77.1726 21.26 77.3093 21.0195C78.1191 19.925 79.0898 18.9457 80.1886 18.1415C80.4833 17.9779 80.7722 17.8014 81.0583 17.622ZM119.608 16.8264C121.085 16.7467 122.609 16.7011 124.007 17.2719C125.431 17.8967 126.63 18.9742 127.408 20.3207C127.469 20.4601 127.533 20.5982 127.597 20.7377C127.684 20.9825 127.782 21.2245 127.894 21.4607C128.475 23.4534 128.257 25.587 127.607 27.5369C127.496 27.7718 127.398 28.0123 127.316 28.2585C127.09 28.7396 126.852 29.2136 126.603 29.6819C125.833 30.9401 124.843 32.0716 123.58 32.853C123.294 32.9968 123.009 33.1406 122.725 33.2843C122.429 33.374 122.136 33.4722 121.848 33.5818C120.215 33.8707 118.547 33.7611 116.896 33.7512C116.424 33.7754 115.978 33.5789 115.507 33.5832C115.045 33.4096 114.555 33.2957 114.131 33.0367C113.332 32.5598 112.722 31.8396 112.171 31.1052C111.972 30.728 111.782 30.348 111.59 29.968C111.004 28.2941 111.012 26.4794 111.304 24.7515C111.367 24.5565 111.412 24.3572 111.459 24.1579C111.557 23.8733 111.651 23.5872 111.74 23.2997C112.014 22.7246 112.295 22.1525 112.601 21.5931C112.7 21.4493 112.8 21.3042 112.9 21.1604C113.048 20.9711 113.191 20.7775 113.327 20.5783C114.042 19.8139 114.76 19.0368 115.621 18.4319C115.766 18.3351 115.91 18.2369 116.055 18.1358C117.154 17.4996 118.352 17.0342 119.608 16.8264ZM134.846 16.9815C135.723 16.6983 136.833 16.6058 137.562 17.2776C137.906 17.5523 138.118 17.9423 138.317 18.3251C138.35 18.9358 138.332 19.5478 138.141 20.1342C137.929 20.6025 137.739 21.0807 137.56 21.5618C137.455 21.7952 137.359 22.0329 137.274 22.2735C137.172 22.5069 137.075 22.7432 136.991 22.9851C136.793 23.4562 136.599 23.9302 136.421 24.4084C136.318 24.6419 136.221 24.8796 136.135 25.1201C136.031 25.355 135.938 25.5927 135.855 25.836C135.785 25.9869 135.718 26.1392 135.651 26.2915C135.609 26.4253 135.565 26.5591 135.519 26.6915C135.472 26.8338 135.427 26.9761 135.38 27.117C135.327 27.2579 135.271 27.3989 135.217 27.5398C135.093 27.907 135.059 28.3012 135.274 28.6457C135.619 28.9674 136.101 28.9147 136.537 28.9147C137.193 28.9503 137.826 28.7069 138.406 28.418C139.06 27.9796 139.574 27.3448 139.795 26.5819C139.893 26.3456 139.988 26.1079 140.077 25.8674C140.176 25.6325 140.272 25.3962 140.361 25.1557C140.461 24.9208 140.556 24.6831 140.646 24.444C140.746 24.2092 140.841 23.9715 140.931 23.7324C141.03 23.4975 141.126 23.2598 141.215 23.0207C141.315 22.7844 141.41 22.5482 141.5 22.3076C141.598 22.0728 141.695 21.8365 141.783 21.5974C141.883 21.3625 141.981 21.1248 142.069 20.8857C142.169 20.6494 142.264 20.4103 142.348 20.1669C142.569 19.683 142.802 19.2048 143.061 18.7408C143.161 18.5942 143.258 18.4461 143.354 18.2967C143.791 17.7829 144.354 17.4 144.956 17.1011C145.512 17.0612 146.073 17.0541 146.631 17.0982C147.088 17.3189 147.481 17.6405 147.818 18.0163C147.851 18.0917 147.916 18.244 147.949 18.3209C148.006 18.4717 148.07 18.6226 148.137 18.7721C148.218 19.6972 147.797 20.5555 147.528 21.418C147.421 21.6515 147.323 21.8892 147.234 22.1297C147.133 22.3645 147.038 22.6022 146.951 22.8414C146.849 23.0762 146.753 23.3125 146.667 23.553C146.564 23.7879 146.469 24.0241 146.38 24.2633C146.279 24.4981 146.184 24.7358 146.096 24.9749C145.993 25.2098 145.898 25.4475 145.815 25.6894C145.341 26.7456 144.923 27.8259 144.514 28.9076C145.942 28.9403 147.401 28.7681 148.784 29.2179C149.049 29.4741 149.362 29.7103 149.505 30.0647C149.586 30.3338 149.61 30.6184 149.685 30.8917C149.584 31.34 149.546 31.8012 149.397 32.2382C149.128 32.6595 148.783 33.0224 148.353 33.28C148.157 33.3768 147.962 33.4736 147.77 33.5747C146.85 33.8522 145.882 33.7611 144.936 33.7782C143.661 33.7682 142.385 33.8067 141.111 33.7426C140.576 33.5021 140.133 33.1178 139.755 32.678C139.746 32.6168 139.728 32.4929 139.718 32.4317C139.425 32.7235 139.122 33.0053 138.814 33.2815C138.619 33.374 138.426 33.4679 138.235 33.5619C138.082 33.6159 137.933 33.6743 137.786 33.7369C136.009 33.8053 134.227 33.801 132.449 33.7355C132.297 33.6743 132.146 33.6188 131.993 33.5676C131.418 33.3085 130.843 33.0139 130.399 32.557C129.938 32.1129 129.655 31.5308 129.382 30.9614C129.175 30.2711 129.18 29.5495 129.222 28.8364C129.359 28.1618 129.595 27.5127 129.82 26.8623C129.927 26.6288 130.024 26.3911 130.112 26.1506C130.213 25.9158 130.308 25.6795 130.395 25.4389C130.496 25.2041 130.593 24.9678 130.681 24.7273C130.781 24.4924 130.878 24.2561 130.966 24.0156C131.067 23.7808 131.162 23.5445 131.251 23.3039C131.352 23.0691 131.447 22.8328 131.535 22.5923C131.636 22.3574 131.732 22.1212 131.82 21.8806C131.921 21.6458 132.016 21.4095 132.105 21.169C132.204 20.9341 132.301 20.6978 132.391 20.4587C132.49 20.221 132.587 19.9833 132.668 19.7385C132.85 19.3542 133.042 18.9742 133.235 18.5942C133.649 17.948 134.201 17.3971 134.846 16.9815ZM65.0743 22.1496C65.5825 21.7952 66.1774 21.5888 66.7894 21.5162C67.1339 21.5077 67.4598 21.6429 67.8 21.6757C68.3708 21.9518 68.8291 22.4229 69.1209 22.9823C69.5493 24.4739 69.2319 26.1392 68.3523 27.4131C68.0107 27.9497 67.5381 28.4009 66.9674 28.6841C66.0038 29.0855 64.8922 29.0727 63.9243 28.6912C63.5414 28.4151 63.1329 28.1077 62.9707 27.6451C62.6006 26.5249 62.8255 25.2938 63.335 24.2519C63.7449 23.4306 64.3171 22.6805 65.0743 22.1496ZM119.275 21.8151C119.862 21.6301 120.497 21.3825 121.112 21.6145C121.881 21.7269 122.444 22.3532 122.785 23.0107C123.125 24.1807 122.971 25.4503 122.487 26.5577C122.38 26.7555 122.269 26.9519 122.153 27.1427C122.057 27.2836 121.965 27.4245 121.872 27.5668C121.593 27.9924 121.223 28.3525 120.782 28.6073C120.278 28.8862 119.709 28.9261 119.151 29.0029C118.285 28.9403 117.239 28.7951 116.78 27.9497C116.133 26.7897 116.458 25.3749 116.996 24.2391C117.503 23.237 118.253 22.319 119.275 21.8151ZM166 28.6599C166.714 28.2073 167.548 28.1233 168.375 28.2059C168.53 28.2671 168.688 28.324 168.851 28.3767C169.512 28.704 170.065 29.2164 170.45 29.8456C170.809 30.6483 170.886 31.5464 170.597 32.3848C170.494 32.5783 170.396 32.7748 170.302 32.9712C169.979 33.3356 169.631 33.6743 169.275 34.0031C168.405 34.4514 167.349 34.4614 166.435 34.1497C166.364 34.1084 166.22 34.0287 166.149 33.9889C165.378 33.5092 164.842 32.7107 164.657 31.824C164.632 31.4141 164.649 31.0013 164.657 30.59C164.719 30.4377 164.777 30.2839 164.835 30.1302C164.926 29.9352 165.022 29.7417 165.116 29.5481C165.405 29.2463 165.699 28.9503 166 28.6599Z" fill="#E42E16"/>
</svg>
