<svg width="160" height="64" viewBox="0 0 160 64" fill="none" xmlns="http://www.w3.org/2000/svg">
<path d="M82.6108 23.1498C82.5241 29.9871 88.7041 33.8029 93.3597 36.0713C98.1431 38.3991 99.7497 39.8917 99.7314 41.973C99.6949 45.1589 95.9157 46.5647 92.3784 46.6194C86.2074 46.7153 82.6199 44.9535 79.7672 43.6207L77.5444 54.0227C80.4062 55.3418 85.7054 56.492 91.2008 56.5422C104.099 56.5422 112.539 50.175 112.584 40.3024C112.635 27.7735 95.2539 27.0797 95.3725 21.4793C95.4136 19.7814 97.0339 17.9694 100.585 17.5084C102.342 17.2756 107.194 17.0976 112.694 19.6308L114.853 9.56651C111.895 8.48934 108.093 7.45781 103.36 7.45781C91.219 7.45781 82.6792 13.9117 82.6108 23.1498ZM135.598 8.32503C133.242 8.32503 131.257 9.69888 130.372 11.8076L111.945 55.8028H124.835L127.4 48.7144H143.152L144.639 55.8028H156L146.086 8.32503H135.598ZM137.401 21.1507L141.12 38.9788H130.933L137.401 21.1507ZM66.9826 8.32503L56.8225 55.8028H69.105L79.2606 8.32503H66.9826ZM48.8122 8.32503L36.0276 40.6402L30.8563 13.1632C30.2492 10.096 27.853 8.32503 25.192 8.32503H4.29211L4 9.70344C8.29043 10.6346 13.1651 12.1362 16.1182 13.7428C17.9257 14.7242 18.4414 15.5822 19.0348 17.9146L28.8297 55.8028H41.8106L61.7109 8.32503H48.8122Z" fill="url(#paint0_linear_3_6883)"/>
<defs>
<linearGradient id="paint0_linear_3_6883" x1="73.8808" y1="57.5269" x2="75.3015" y2="7.11647" gradientUnits="userSpaceOnUse">
<stop stop-color="#222357"/>
<stop offset="1" stop-color="#254AA5"/>
</linearGradient>
</defs>
</svg>
