<svg width="336" height="48" viewBox="0 0 336 48" fill="none" xmlns="http://www.w3.org/2000/svg">
<path d="M25.8695 32.8089C39.5857 25.1319 25.8695 13.7358 25.8695 13.7358C25.8695 13.7358 12.1533 25.0978 25.8695 32.8089Z" fill="#77BC1F"/>
<path d="M45.9328 14.2474C45.0798 8.6859 41.5654 4.8986 36.5498 4.14796C33.5472 3.67028 30.5106 4.728 27.8151 7.21875C27.0986 7.86703 26.4844 8.54943 25.9726 9.16358C25.6655 8.61767 25.2561 8.03763 24.7784 7.45759C23.2771 5.68335 20.5817 3.67028 16.2143 4.0456C13.9624 4.25032 11.8129 5.30803 10.141 7.11639C8.46911 8.89062 7.34315 11.2108 6.86547 13.838C6.11483 18.103 7.17255 22.8115 9.93626 27.0424C13.2118 32.0922 18.6027 36.4254 25.9726 39.9056C26.1432 39.9739 26.3138 40.008 26.5185 40.008C26.9962 40.008 27.4398 39.735 27.6445 39.2915C27.9516 38.6773 27.6786 37.9267 27.0303 37.6196C20.0699 34.3441 15.0201 30.352 12.0176 25.6776C9.62918 21.9585 8.67383 17.8983 9.3221 14.2474C9.69742 12.0979 10.6187 10.2213 11.9493 8.78826C13.2118 7.42347 14.7813 6.63871 16.419 6.50223C22.6971 5.99043 24.369 11.7226 24.5737 12.0638C24.9149 12.6779 25.4608 13.1215 26.1091 12.9168C26.5527 12.7803 26.7574 12.405 27.0303 12.0297C27.9857 10.699 31.2953 5.85395 36.1745 6.60459C40.1324 7.21875 42.7937 10.1189 43.4761 14.6228C44.1244 18.8195 42.9302 23.801 40.1665 28.3731C36.9251 33.764 31.7048 38.3361 25.1196 41.6457C24.5055 41.9528 24.2325 42.7034 24.5737 43.3176C24.7784 43.7612 25.222 44 25.6997 44C25.8703 44 26.075 43.9659 26.2456 43.8635C41.736 36.1524 47.3317 23.0845 45.9328 14.2474Z" fill="#003764"/>
<path d="M53.6105 28.3732C54.1564 30.6592 55.9306 31.9899 57.9437 31.9899C59.6497 31.9899 61.4581 31.0004 61.4581 28.9873C61.4581 25.3024 53.2352 24.1764 53.2352 19.7067C53.2352 17.5913 55.18 15.9876 57.7731 15.9876C59.9227 15.9876 60.3662 16.6359 61.2533 16.6359C61.4581 16.6359 61.5604 16.6018 61.6969 16.3971H62.1063L62.5499 19.6385H62.1063C61.3898 17.796 59.7521 16.6359 57.9778 16.6359C56.306 16.6359 55.1118 17.5913 55.1118 19.0243C55.1118 22.641 63.3347 23.6305 63.3347 28.339C63.3347 30.8298 61.1169 32.7064 58.1143 32.7064C56.7154 32.7064 54.907 32.024 54.5658 32.024C54.327 32.024 54.1564 32.1605 54.054 32.2969H53.6105L53.1328 28.3732H53.6105Z" fill="#003764"/>
<path d="M75.9931 31.5122L72.5812 32.5699V30.5227C70.6704 31.8875 69.2715 32.5699 68.2479 32.5699C66.9855 32.5699 65.5525 31.7169 65.5525 29.9768V24.2788C65.5525 23.6646 65.416 23.3917 64.8701 23.2211L63.9829 22.9822V22.5728L67.2926 21.8563V29.0214C67.2926 30.5909 68.4526 31.3075 69.5786 31.3075C70.4316 31.3075 71.5576 30.7615 72.6153 29.9086V24.4152C72.6153 23.4258 72.4788 23.2211 71.6599 23.0505L70.3975 22.8116V22.4704L74.3213 21.8563V30.4886C74.3213 31.2051 74.5601 31.3416 75.4813 31.1369L76.0273 31.0345V31.5122H75.9931Z" fill="#003764"/>
<path d="M80.7017 30.3862C80.7017 31.4439 81.077 31.751 82.3736 31.751H83.3289V32.2287H77.2556V31.751C78.5521 31.7169 78.9616 31.2051 78.9616 29.8403V23.9376L77.2556 23.3234V22.8799L80.1558 21.8563H80.6676V24.5517H80.7017C81.9641 22.4704 82.2712 21.9586 83.1242 21.9586C83.4313 21.9586 83.4995 21.9927 83.9772 22.1975C84.216 22.2998 84.6937 22.4022 85.3079 22.5728L84.6937 24.1082C84.3184 24.074 83.8407 23.9376 83.3289 23.6987C83.056 23.5623 82.7489 23.4599 82.4418 23.4599C81.9982 23.4599 81.6912 23.767 81.4523 24.1082C81.1111 24.5517 80.8382 24.9953 80.6334 25.3706V30.3862H80.7017Z" fill="#003764"/>
<path d="M91.5177 32.4675L87.7986 23.9717C87.4233 23.0846 87.0821 22.7775 86.6727 22.7093L85.8879 22.5728V22.1292H91.1083V22.5728C89.5387 22.6069 89.0611 22.8116 89.6752 24.0399L92.3707 30.4203L94.9638 24.5176C95.4074 23.4599 95.2026 22.7434 93.326 22.6069V22.1633H97.7616V22.5728C96.8063 22.7434 96.2262 23.3234 95.7486 24.4494L92.2342 32.4675H91.5177Z" fill="#003764"/>
<path d="M102.197 30.318C102.197 31.2051 102.675 31.7851 104.04 31.7851V32.2628H98.3758V31.7851C99.9453 31.7851 100.491 31.2733 100.491 29.9086V24.7564C100.491 23.767 100.355 23.6305 99.7065 23.494L98.5123 23.2552V22.8457L101.822 21.6857H102.197V30.318ZM101.14 15.9535C101.754 15.9535 102.265 16.3971 102.265 16.9089C102.265 17.4548 101.754 17.8642 101.14 17.8642C100.525 17.8642 100.048 17.4207 100.048 16.9089C100.048 16.3971 100.525 15.9535 101.14 15.9535Z" fill="#003764"/>
<path d="M109.328 32.4675L105.609 23.9717C105.234 23.0846 104.893 22.7775 104.483 22.7093L103.698 22.5728V22.1292H108.919V22.5728C107.349 22.6069 106.872 22.8116 107.486 24.0399L110.181 30.4203L112.774 24.5176C113.218 23.4599 113.013 22.7434 111.137 22.6069V22.1633H115.572V22.5728C114.617 22.7434 114.037 23.3234 113.559 24.4494L110.045 32.4675H109.328Z" fill="#003764"/>
<path d="M120.622 21.8563C123.727 21.8563 126.115 24.1764 126.115 27.2131C126.115 30.2156 123.727 32.5699 120.69 32.5699C117.517 32.5699 115.095 30.2839 115.095 27.2813C115.095 23.7329 117.961 21.8563 120.622 21.8563ZM120.963 31.9216C122.464 31.9216 124.17 30.3862 124.17 27.8272C124.17 24.927 122.396 22.4363 120.247 22.4363C118.575 22.4363 117.005 24.1764 117.005 26.3601C117.005 29.4991 118.779 31.9216 120.963 31.9216Z" fill="#003764"/>
<path d="M130.38 30.3862C130.38 31.4439 130.756 31.751 132.052 31.751H133.007V32.2287H126.934V31.751C128.231 31.7169 128.64 31.2051 128.64 29.8403V23.9376L126.934 23.3234V22.8799L129.834 21.8563H130.346V24.5517H130.414C131.677 22.4704 131.984 21.9586 132.837 21.9586C133.144 21.9586 133.212 21.9927 133.69 22.1975C133.929 22.2998 134.406 22.4022 135.021 22.5728L134.406 24.1082C134.031 24.074 133.553 23.9376 133.042 23.6987C132.769 23.5623 132.462 23.4599 132.154 23.4599C131.711 23.4599 131.404 23.767 131.165 24.1082C130.824 24.5517 130.551 24.9953 130.346 25.3706V30.3862H130.38Z" fill="#003764"/>
<path d="M152.763 32.2287L146.246 18.6149H146.178L145.495 30.1133C145.427 31.4098 146.382 31.6828 147.543 31.751V32.2287H142.22V31.751C144.096 31.751 144.301 31.3416 144.438 29.0214L145.052 19.0925C145.154 17.4207 145.12 16.943 143.516 16.8406V16.3971H147.372L153.548 29.2944L159.689 16.3971H163.442V16.8406C162.18 16.943 161.702 16.9771 161.771 17.8301L162.589 29.3968C162.76 31.751 162.931 31.751 164.807 31.751V32.2287H158.222V31.751C159.416 31.751 160.61 31.4098 160.508 30.0792L159.757 18.6149H159.723L153.343 32.2287H152.763Z" fill="#003764"/>
<path d="M170.71 21.8563C173.815 21.8563 176.203 24.1764 176.203 27.2131C176.203 30.2156 173.815 32.5699 170.778 32.5699C167.605 32.5699 165.183 30.2839 165.183 27.2813C165.183 23.7329 168.049 21.8563 170.71 21.8563ZM171.051 31.9216C172.552 31.9216 174.258 30.3862 174.258 27.8272C174.258 24.927 172.484 22.4363 170.335 22.4363C168.663 22.4363 167.093 24.1764 167.093 26.3601C167.093 29.4991 168.867 31.9216 171.051 31.9216Z" fill="#003764"/>
<path d="M180.264 30.1815C180.264 31.5122 180.605 31.751 182.038 31.751V32.2287H176.715V31.751C178.182 31.751 178.523 31.1027 178.523 29.7721V24.7906C178.523 23.8011 178.353 23.5623 177.773 23.494L176.783 23.3575V22.914L179.854 21.8563H180.229V23.9035C182.072 22.6069 183.744 21.8563 184.767 21.8563C186.03 21.8563 186.951 22.641 187.19 23.9035C188.896 22.8457 190.465 21.8563 191.728 21.8563C193.57 21.8563 194.287 23.2552 194.287 25.7118C194.287 27.3496 194.287 29.0556 194.219 30.6251C194.219 31.171 194.526 31.7851 195.583 31.7851H196.402V32.2628H190.636V31.7851H190.875C191.625 31.7851 191.933 31.6487 192.171 31.4439C192.547 31.0686 192.581 29.5674 192.581 27.8272V25.8483C192.581 23.8693 191.933 22.9481 190.67 22.9481C189.885 22.9481 188.862 23.3234 187.258 24.3811V30.2498C187.258 31.5122 187.565 31.8193 188.828 31.8193V32.2969H183.573V31.8193C185.006 31.8193 185.518 31.3075 185.518 29.8403V25.0635C185.518 23.4599 184.529 22.8799 183.641 22.8799C182.925 22.8799 181.97 23.2211 180.229 24.347V30.1815H180.264Z" fill="#003764"/>
<path d="M197.938 29.6697C198.245 31.2051 199.2 32.0581 200.36 32.0581C201.384 32.0581 202.169 31.3075 202.169 30.3862C202.169 29.8403 202.032 29.5332 201.35 28.8167C199.541 27.0084 197.528 26.8378 197.528 24.6882C197.528 23.0163 198.859 21.8221 200.804 21.8221C201.486 21.8221 202.203 21.9586 202.851 22.2316L202.885 24.5517H202.441C202.271 23.2552 201.418 22.4363 200.394 22.4363C199.541 22.4363 198.825 23.0163 198.825 23.8693C198.825 26.1212 203.567 26.4966 203.567 29.6356C203.567 31.3075 202.203 32.5358 200.394 32.5358C199.917 32.5358 199.541 32.4675 199.268 32.3652C198.995 32.2969 198.791 32.2287 198.586 32.2287C198.449 32.2287 198.279 32.3311 198.142 32.5358H197.767L197.494 29.6697H197.938Z" fill="#003764"/>
<path d="M205.171 20.7985C206.434 20.0479 207.15 19.1608 207.15 18.2395C207.15 17.9325 207.048 17.6936 206.809 17.6936C206.57 17.6936 206.468 17.7619 206.195 17.7619C205.546 17.7619 205.035 17.2842 205.035 16.6018C205.035 15.9194 205.649 15.3394 206.399 15.3394C207.423 15.3394 208.174 16.2265 208.174 17.4548C208.174 19.0243 207.014 20.5597 205.342 21.208L205.171 20.7985Z" fill="#003764"/>
<path d="M229.737 20.5256C228.884 18.1372 226.701 16.6018 223.903 16.6018C219.638 16.6018 216.977 19.7067 216.977 24.0058C216.977 28.6461 220.286 32.024 224.176 32.024C226.189 32.024 228.68 31.3416 230.42 28.2367H230.897C230.556 29.3968 229.874 30.9663 229.26 31.9557C227.622 31.7169 226.496 32.6381 223.493 32.6381C218.307 32.6381 214.588 29.2262 214.588 24.4835C214.588 19.5361 218.41 15.9535 223.766 15.9535C226.974 15.9535 228.373 16.9771 229.157 16.9771C229.43 16.9771 229.567 16.9089 229.601 16.8406H229.976L230.215 20.5597H229.737V20.5256Z" fill="#003764"/>
<path d="M237.721 21.8563C240.826 21.8563 243.215 24.1764 243.215 27.2131C243.215 30.2156 240.826 32.5699 237.79 32.5699C234.617 32.5699 232.194 30.2839 232.194 27.2813C232.194 23.7329 235.06 21.8563 237.721 21.8563ZM238.097 31.9216C239.598 31.9216 241.304 30.3862 241.304 27.8272C241.304 24.927 239.53 22.4363 237.38 22.4363C235.708 22.4363 234.139 24.1764 234.139 26.3601C234.139 29.4991 235.879 31.9216 238.097 31.9216Z" fill="#003764"/>
<path d="M247.309 30.1815C247.309 31.5122 247.65 31.751 249.083 31.751V32.2287H243.761V31.751C245.228 31.751 245.569 31.1027 245.569 29.7721V24.7906C245.569 23.8011 245.398 23.5623 244.818 23.494L243.829 23.3575V22.914L246.9 21.8563H247.275V23.9035C249.117 22.6069 250.789 21.8563 251.813 21.8563C253.075 21.8563 253.997 22.641 254.235 23.9035C255.941 22.8457 257.511 21.8563 258.773 21.8563C260.616 21.8563 261.332 23.2552 261.332 25.7118C261.332 27.3496 261.332 29.0556 261.264 30.6251C261.264 31.171 261.571 31.7851 262.629 31.7851H263.448V32.2628H257.682V31.7851H257.92C258.671 31.7851 258.978 31.6487 259.217 31.4439C259.592 31.0686 259.626 29.5674 259.626 27.8272V25.8483C259.626 23.8693 258.978 22.9481 257.716 22.9481C256.931 22.9481 255.907 23.3234 254.304 24.3811V30.2498C254.304 31.5122 254.611 31.8193 255.873 31.8193V32.2969H250.619V31.8193C252.052 31.8193 252.564 31.3075 252.564 29.8403V25.0635C252.564 23.4599 251.574 22.8799 250.687 22.8799C249.97 22.8799 249.015 23.2211 247.275 24.347V30.1815H247.309Z" fill="#003764"/>
<path d="M267.065 36.0501C267.065 37.3126 267.713 37.722 268.771 37.722H269.419V38.1997H263.38V37.722H263.618C264.915 37.722 265.324 37.2785 265.324 35.8454V24.5858C265.324 24.1082 265.222 23.9035 264.608 23.7329L263.789 23.5281V23.0505L266.519 21.3786H267.03V23.8352C268.6 22.641 269.965 21.9586 270.988 21.9586C272.967 21.9586 274.776 24.2105 274.776 26.7013C274.776 29.8062 272.285 32.4675 269.351 32.4675C268.668 32.4675 267.986 32.3311 267.03 31.9557V36.0501H267.065ZM267.065 30.2498C267.986 31.0686 269.146 31.6145 270.067 31.6145C271.807 31.6145 273.07 29.9086 273.07 27.7931C273.07 24.4152 271.091 23.1528 269.726 23.1528C268.941 23.1528 267.952 23.5964 267.03 24.4152V30.2498H267.065Z" fill="#003764"/>
<path d="M276.14 25.1659C276.106 25.0294 276.072 24.927 276.072 24.8247C276.072 23.9376 278.188 21.8563 279.86 21.8563C280.61 21.8563 281.838 22.1975 282.555 23.2211C282.93 23.767 282.93 24.074 282.93 25.4047V28.8167C282.93 30.8639 282.93 31.3075 283.579 31.3075C283.852 31.3075 284.193 31.2733 284.841 30.7615L284.977 31.1369C283.613 32.2628 282.896 32.5358 282.453 32.5358C281.395 32.5358 281.293 31.3757 281.293 30.9663C279.518 32.4334 279.007 32.5358 278.324 32.5358C276.857 32.5358 275.936 31.6828 275.936 30.4545C275.936 28.885 277.301 28.3732 278.938 27.9637C279.484 27.8272 280.303 27.5202 281.224 27.0084V24.9612C281.224 24.2446 281.224 23.8352 280.781 23.3234C280.44 22.914 279.928 22.5728 279.348 22.5728C278.495 22.5728 277.778 23.2893 277.778 23.8352C277.778 23.9717 277.812 24.074 277.915 24.3129L276.14 25.1659ZM281.224 27.486C280.747 27.759 280.337 27.9296 279.723 28.2026C278.154 28.8508 277.573 29.0897 277.573 30.1474C277.573 31.0686 278.324 31.6487 279.075 31.6487C279.484 31.6487 279.791 31.5122 281.224 30.5227V27.486Z" fill="#003764"/>
<path d="M289.208 30.0109C289.208 31.4098 289.55 31.751 290.914 31.751V32.2287H285.762V31.751C286.888 31.751 287.468 31.1369 287.468 30.1474V24.7906C287.468 23.8352 287.366 23.6646 286.718 23.5281L285.865 23.3575V22.9481L288.799 21.8904H289.208V23.8693C290.914 22.8116 292.347 21.8563 293.61 21.8563C295.35 21.8563 296.339 23.1187 296.339 25.6777C296.339 29.0897 296.169 29.738 296.135 30.7274C296.101 31.4098 296.51 31.751 297.568 31.751H298.114V32.2287H292.62V31.751C293.371 31.7169 293.78 31.5463 294.088 31.2733C294.565 30.7957 294.633 28.9191 294.633 25.5071C294.633 23.4599 293.644 22.8116 292.62 22.8116C291.801 22.8116 290.539 23.5281 289.208 24.4494V30.0109Z" fill="#003764"/>
<path d="M302.925 30.318C302.925 31.2051 303.402 31.7851 304.767 31.7851V32.2628H299.103V31.7851C300.673 31.7851 301.219 31.2733 301.219 29.9086V24.7564C301.219 23.767 301.082 23.6305 300.434 23.494L299.24 23.2552V22.8457L302.549 21.6857H302.925V30.318ZM301.867 15.9535C302.481 15.9535 302.993 16.3971 302.993 16.9089C302.993 17.4548 302.481 17.8642 301.867 17.8642C301.253 17.8642 300.775 17.4207 300.775 16.9089C300.775 16.3971 301.253 15.9535 301.867 15.9535Z" fill="#003764"/>
<path d="M310.875 21.8563C313.979 21.8563 316.368 24.1764 316.368 27.2131C316.368 30.2156 313.979 32.5699 310.943 32.5699C307.77 32.5699 305.347 30.2839 305.347 27.2813C305.347 23.7329 308.213 21.8563 310.875 21.8563ZM311.216 31.9216C312.717 31.9216 314.423 30.3862 314.423 27.8272C314.423 24.927 312.649 22.4363 310.499 22.4363C308.827 22.4363 307.258 24.1764 307.258 26.3601C307.258 29.4991 309.032 31.9216 311.216 31.9216Z" fill="#003764"/>
<path d="M320.462 30.0109C320.462 31.4098 320.803 31.751 322.168 31.751V32.2287H317.016V31.751C318.142 31.751 318.722 31.1369 318.722 30.1474V24.7906C318.722 23.8352 318.62 23.6646 317.971 23.5281L317.118 23.3575V22.9481L320.053 21.8904H320.462V23.8693C322.168 22.8116 323.601 21.8563 324.864 21.8563C326.604 21.8563 327.593 23.1187 327.593 25.6777C327.593 29.0897 327.423 29.738 327.389 30.7274C327.354 31.4098 327.764 31.751 328.822 31.751H329.367V32.2287H323.874V31.751C324.625 31.7169 325.034 31.5463 325.341 31.2733C325.819 30.7957 325.887 28.9191 325.887 25.5071C325.887 23.4599 324.898 22.8116 323.874 22.8116C323.055 22.8116 321.793 23.5281 320.462 24.4494V30.0109Z" fill="#003764"/>
</svg>
