<svg width="160" height="152" viewBox="0 0 160 152" fill="none" xmlns="http://www.w3.org/2000/svg">
<path d="M12.7247 138.943C15.0394 140.011 17.3542 140.486 19.6689 140.486C21.8649 140.486 24.0016 140.011 26.0789 139.002C26.9692 138.586 27.6814 138.349 28.1562 138.23C29.0465 138.052 29.6993 137.815 29.9367 137.578C30.5896 136.984 31.1831 136.212 31.6579 135.203C32.1328 134.194 32.3702 133.304 32.3702 132.473C32.3702 131.82 32.1921 131.286 31.836 130.811C31.4799 130.337 31.0644 130.159 30.5896 130.159C30.2335 130.159 29.818 130.396 29.2839 130.93C28.6904 131.524 27.8001 131.998 26.7317 132.414C25.6041 132.77 24.5357 132.948 23.408 132.948C20.3811 132.948 18.007 131.642 16.4045 128.971C15.2175 127.013 14.5646 124.817 14.5646 122.383C14.5646 120.662 14.9801 119.238 15.811 118.229C16.6419 117.22 17.7696 116.686 19.1941 116.686C20.6779 116.686 22.1023 117.16 23.408 118.11C23.9422 118.526 24.417 118.941 24.7731 119.416C25.1292 119.891 25.6041 120.662 26.2569 121.79C26.6724 122.562 27.0879 123.096 27.5627 123.392C28.0375 123.689 28.5717 123.867 29.2839 123.867C30.0554 123.867 30.7677 123.63 31.3612 123.214C32.4889 122.443 33.0824 121.196 33.0824 119.535C33.0824 117.16 32.4295 115.143 31.0644 113.54C30.5303 112.887 29.8774 112.531 29.1652 112.531C28.9278 112.531 28.7497 112.531 28.5717 112.59C28.0375 112.709 27.622 112.768 27.3846 112.768C27.0285 112.768 26.435 112.531 25.5447 112.116C23.6455 111.225 21.6868 110.81 19.6689 110.81C17.5322 110.81 15.3955 111.225 13.3776 112.116C10.7068 113.303 8.51074 114.964 6.84889 117.16C4.94963 119.713 4 122.502 4 125.588C4 128.259 4.77157 130.752 6.31472 133.185C7.91722 135.856 9.99453 137.756 12.7247 138.943ZM35.6345 117.932C36.4061 118.407 36.8809 119.119 37.1183 120.069C37.2964 121.018 37.4151 123.214 37.4151 126.597C37.4151 129.921 37.2964 132.473 37.059 134.313C36.9403 135.382 36.5841 136.034 36.05 136.272C35.4565 136.509 35.1004 136.747 34.9223 136.925C34.7442 137.103 34.6849 137.34 34.6849 137.696C34.6849 138.112 34.8629 138.527 35.1597 138.883C35.4565 139.239 35.8719 139.536 36.4061 139.714C37.4744 140.13 39.3737 140.308 42.0445 140.308C44.4186 140.308 46.0804 140.13 47.0894 139.833C47.6236 139.655 48.039 139.417 48.3952 139.061C48.6919 138.705 48.87 138.29 48.87 137.815C48.87 137.459 48.8106 137.162 48.6326 136.984C48.4545 136.806 48.0984 136.569 47.6236 136.331C47.0301 136.094 46.5553 135.678 46.4959 135.203C46.3772 134.729 46.2585 133.007 46.2585 130.04V123.333C46.2585 121.256 46.4959 119 46.674 116.508C46.7927 114.905 46.9707 113.896 46.9707 113.421C46.9707 112.056 46.4365 111.403 45.3682 111.403C44.656 111.403 43.5877 111.522 42.0445 111.819C40.5014 112.056 39.3143 112.353 38.3054 112.65C36.8809 113.065 35.8126 113.54 35.1597 114.074C34.5068 114.608 34.2101 115.202 34.2101 115.855C34.2101 116.27 34.3288 116.626 34.5068 116.923C34.6849 117.279 35.1004 117.635 35.6345 117.932ZM61.0371 140.486C64.4202 140.486 67.4471 139.477 70.1179 137.459C72.9075 135.322 74.2726 132.77 74.2726 129.802C74.2726 128.081 73.8571 126.419 72.9668 124.817C72.1359 123.274 71.0082 122.087 69.6431 121.137C67.7439 119.831 65.4885 119.178 62.9364 119.178C59.3159 119.178 56.1702 120.247 53.6181 122.443C51.1847 124.52 49.9383 127.191 49.9383 130.455C49.9383 133.423 50.9473 135.797 52.9059 137.637C55.0426 139.536 57.7727 140.486 61.0371 140.486ZM59.8501 124.639C60.2062 124.164 60.681 123.986 61.3339 123.986C62.1648 123.986 62.8176 124.52 63.2331 125.47C63.6486 126.419 64.064 127.606 64.3608 129.09C64.6576 130.574 64.8356 131.88 64.8356 133.067C64.8356 134.61 64.2421 135.441 62.9957 135.441C62.0461 135.441 61.3339 134.847 60.9184 133.72C60.5029 132.592 60.0875 131.346 59.7907 129.921C59.4939 128.497 59.3159 127.369 59.3159 126.538C59.3159 125.707 59.4939 125.114 59.8501 124.639ZM92.2561 140.13C92.4936 140.308 92.9684 140.367 93.6212 140.367C95.2237 140.367 96.9449 140.189 98.6661 139.774C101.634 139.121 103.118 138.112 103.118 136.865C103.118 136.212 102.88 135.738 102.227 135.382C101.396 134.966 101.159 134.551 101.159 134.076V124.876C101.159 123.927 101.04 123.096 101.04 122.443C101.04 121.968 100.981 121.671 100.981 121.493C100.981 120.009 100.269 119.238 98.8442 119.238C96.3514 119.238 93.7399 119.535 91.1878 120.187C89.8227 120.544 89.1105 121.137 89.1105 121.968C89.1105 122.621 89.526 123.155 90.2975 123.57C90.713 123.808 90.9504 123.986 91.0691 124.105C91.1878 124.283 91.3065 124.52 91.3659 124.876C91.5439 125.707 91.6033 127.25 91.6033 129.565C91.6033 131.88 91.4252 133.364 91.1285 134.016C90.9504 134.373 90.713 134.61 90.2975 134.847C89.8821 135.085 89.526 135.203 89.1105 135.203C87.508 135.203 86.7364 134.016 86.7364 131.583V120.306C86.7364 119.594 86.321 119.238 85.49 119.238C82.7599 119.238 80.0297 119.535 77.2995 120.128C75.697 120.484 74.9254 121.196 74.9254 122.205C74.9254 122.502 74.9848 122.74 75.1628 122.918C75.2815 123.096 75.6376 123.333 76.1718 123.57C76.7653 123.867 77.0621 124.342 77.2995 124.876C77.5369 125.41 77.5963 126.301 77.5963 127.488V128.437V131.346C77.5963 134.373 78.0711 136.569 79.0207 137.874C80.089 139.417 81.9883 140.189 84.6591 140.189C86.2616 140.189 87.8048 139.714 89.1699 138.765C89.8821 138.29 90.2975 137.993 90.4162 137.934C90.535 137.874 90.713 137.815 90.8911 137.815C91.3659 137.815 91.6033 138.23 91.6626 139.121C91.8407 139.714 92.0187 140.011 92.2561 140.13ZM107.866 138.112C109.587 139.714 111.545 140.486 113.682 140.486C115.403 140.486 117.006 139.892 118.43 138.765C118.905 138.349 119.321 138.112 119.558 138.112C119.973 138.112 120.211 138.468 120.33 139.18C120.389 139.655 120.448 140.011 120.567 140.13C120.686 140.248 120.982 140.308 121.457 140.308C123.475 140.308 125.493 140.07 127.511 139.536C129.766 138.943 130.835 138.112 130.835 136.984C130.835 136.628 130.775 136.272 130.597 136.034C130.419 135.797 130.063 135.441 129.588 135.144C129.173 134.847 128.639 134.551 128.579 134.254C128.461 133.957 128.164 133.245 128.164 132.177V113.184C128.164 112.056 127.808 111.463 126.621 111.463C125.434 111.463 123.178 111.938 119.617 112.947C117.599 113.54 116.65 114.312 116.65 115.321C116.65 116.033 117.125 116.508 118.015 116.804C118.668 116.982 119.083 117.22 119.321 117.517C119.558 117.813 119.677 118.169 119.677 118.704C119.677 119.891 119.439 120.484 119.024 120.484C118.905 120.484 118.727 120.425 118.549 120.306C117.303 119.594 115.819 119.238 114.216 119.238C112.792 119.238 111.367 119.594 109.943 120.365C108.222 121.256 106.857 122.562 105.848 124.223C104.779 126.063 104.245 127.903 104.245 129.862C104.245 131.524 104.661 133.185 105.492 134.788C106.026 136.034 106.857 137.162 107.866 138.112ZM115.166 125.114C115.7 124.164 116.412 123.689 117.303 123.689C118.015 123.689 118.549 123.986 118.964 124.579C119.439 125.292 119.677 126.716 119.677 128.853C119.677 131.168 119.499 132.889 119.083 133.898C118.668 134.966 118.015 135.441 117.125 135.441C116.294 135.441 115.641 135.085 115.166 134.373C114.513 133.423 114.157 131.998 114.157 130.099C114.098 128.022 114.454 126.36 115.166 125.114ZM140.865 135.203C141.637 135.144 142.112 135.085 142.29 135.085C142.824 135.085 143.121 135.322 143.121 135.856C143.121 136.509 142.765 137.399 142.112 138.468C141.399 139.655 140.509 140.545 139.5 141.198C138.669 141.732 138.254 142.148 138.254 142.444C138.254 142.86 138.907 143.453 140.272 144.166C141.578 144.878 142.705 145.234 143.536 145.234C144.011 145.234 144.604 144.996 145.317 144.462C148.284 142.266 150.836 139.299 153.032 135.619C154.991 132.295 156 129.09 156 126.063C156 122.324 154.516 119.594 151.489 117.873C149.175 116.626 146.682 115.973 143.892 115.973C140.45 115.973 137.542 116.864 135.168 118.585C132.912 120.187 131.784 122.502 131.784 125.47C131.784 126.954 132.081 128.378 132.615 129.743C133.15 131.108 133.98 132.295 134.989 133.245C136.355 134.551 138.135 135.144 140.331 135.144C140.569 135.263 140.747 135.263 140.865 135.203ZM142.052 122.74C142.468 122.265 142.943 121.968 143.536 121.968C144.189 121.968 144.783 122.265 145.317 122.858C145.732 123.333 146.088 124.045 146.385 124.995C146.682 125.945 146.86 126.775 146.86 127.547C146.86 128.2 146.682 128.734 146.326 129.15C145.97 129.565 145.495 129.802 144.961 129.802C144.011 129.802 143.18 129.268 142.468 128.259C141.756 127.25 141.399 126.004 141.399 124.579C141.459 123.867 141.696 123.274 142.052 122.74ZM147.097 46.7099C139.025 38.638 127.511 36.0266 117.303 38.9348C115.522 20.8918 100.269 6.76611 81.8102 6.76611C64.7169 6.76611 50.4131 18.8145 46.9707 34.8989C35.6939 31.2784 22.8739 33.9492 13.9118 42.9114C1.15111 55.672 1.15111 76.3264 13.9118 89.0871C24.4764 99.6517 39.9078 102.679 47.9203 102.679H51.7189H110.299C122.407 102.738 135.524 101.373 147.038 89.918C158.968 77.9289 158.968 58.6396 147.097 46.7099ZM96.2921 72.4092C93.918 76.4451 85.3713 89.0871 81.2167 89.0871C79.0207 89.0871 70.9489 85.0512 70.9489 82.2023C70.9489 81.1933 72.0765 80.125 72.6701 79.7688C76.4092 77.3354 80.5045 70.2132 80.5045 66.296C80.5045 64.9902 79.7923 64.4561 78.8426 64.4561C77.5963 64.4561 76.2905 64.7528 75.0441 64.7528C63.5892 64.7528 58.3069 52.3483 58.3069 41.1902C58.3069 25.4619 70.5334 18.2804 81.6915 18.2804C93.5619 18.2804 105.551 25.5806 105.551 42.1398C105.551 53.476 101.574 63.5065 96.2921 72.4092ZM81.098 32.7622C78.4865 32.7622 77.0621 36.2046 77.0621 39.1722C77.0621 44.0984 79.2581 51.8735 83.9469 51.8735C86.3803 51.8735 87.6861 49.1433 87.6861 46.3538C87.6267 42.1398 85.6681 32.7622 81.098 32.7622Z" fill="#00A8E9"/>
</svg>
