<svg width="240" height="48" viewBox="0 0 240 48" fill="none" xmlns="http://www.w3.org/2000/svg">
<path fill-rule="evenodd" clip-rule="evenodd" d="M18.9025 4.16117C19.5471 4.16117 20.4092 4.37605 21.2712 5.23809C22.132 5.88399 22.132 7.17581 21.9159 8.25274C21.701 9.11354 21.4849 9.75945 20.4092 10.4054C19.3323 11.0513 18.2553 11.0513 18.2553 11.0513V15.1416L20.1931 16.8644L18.2553 18.3711V24.1856C18.2553 24.1856 20.1931 22.8937 21.4849 20.3089L21.701 19.8779C21.701 20.7387 21.701 22.0317 20.839 23.9694C20.4079 25.2612 19.3323 26.5543 17.8243 27.4151C15.4556 28.7057 13.7327 28.7057 11.795 28.4908C9.42627 27.8449 7.27242 26.5543 5.9806 24.4004C4.90367 22.8937 4.47266 20.9548 4.47266 19.0171C4.68878 15.1404 7.48731 11.9108 10.7181 10.619C11.1491 10.4041 11.364 10.4041 12.0099 10.4041C11.795 10.4041 11.364 10.619 10.933 11.05C9.85605 11.6947 8.99525 12.9878 8.56423 14.0647L15.0245 11.2649V20.3089L9.85605 22.8937C10.502 23.7545 12.2248 25.0476 13.7315 25.0476C16.5313 25.4774 18.038 24.1868 18.038 24.1868V18.3724L15.8841 16.8657L18.038 15.1428V11.0525C16.9477 10.8195 15.8698 10.5318 14.8084 10.1905C13.5166 9.97557 9.63992 8.89865 9.20891 8.89865C8.563 8.68376 7.70096 8.68375 7.27118 9.11477C6.8414 9.54579 6.62651 10.1917 6.84016 10.8376C6.84016 11.2686 7.05629 11.4835 7.27118 11.6984C7.27118 11.6984 7.05629 11.6984 6.62651 11.4835C5.9806 11.0525 5.33346 10.1917 5.33346 9.11477C5.33346 7.82295 5.76447 6.52991 7.05752 5.66911C7.91832 5.0232 8.99525 4.59218 10.2871 4.8083C12.2248 5.0232 14.8097 6.10012 17.1784 6.74603C18.0392 6.96092 18.6851 6.96093 19.3323 6.52991C19.5471 6.31502 20.193 5.88523 19.7633 5.23809C19.1174 4.37729 18.2553 4.37729 17.3945 4.16117C18.0404 3.94628 18.2566 3.94628 18.9025 4.16117ZM11.1503 22.0342V13.2051L8.5667 14.4969C8.5667 14.4969 7.92079 16.0036 7.92079 18.1575C8.13568 19.8803 8.99772 21.818 9.64363 22.6801L11.1503 22.0342ZM43.8805 12.7753C43.8805 12.7753 41.7266 14.0671 40.4348 14.9292L37.4202 16.4371V24.8339L36.1283 25.6972L36.3432 25.9121L37.4202 25.0513L41.0807 28.2808L47.541 23.3285L47.3249 23.1123L43.8792 25.9121L40.8646 23.1123V22.2515L46.679 17.9451L43.8805 12.7753ZM43.8805 19.6654L40.8658 21.8193V14.7131L43.8805 19.6654ZM27.3005 31.5091C28.1613 31.5091 29.4531 31.724 31.3909 30.8632C33.3286 29.7875 34.1906 27.8486 34.1906 25.696L34.4055 22.6801V16.0049L35.4824 15.1441V14.9292L34.1906 15.79L31.3909 12.7753L27.7303 15.79V5.23933L23.2077 8.68499C23.4226 8.89988 24.0697 8.89989 24.0697 9.97681V24.8339L22.132 26.1257L22.3469 26.3406L23.2089 25.6972L25.7926 28.0659L29.8841 24.8339L29.668 24.619L28.8072 25.4798L27.7303 24.4042V16.221L28.8072 15.1441L30.7449 17.2979V24.4042C30.7449 26.3406 30.7449 28.7094 29.668 29.7875C28.5923 31.0769 28.3762 31.0769 27.3005 31.5091ZM55.5093 30.6483C53.7865 30.4335 53.1405 29.5727 53.1405 28.7094C53.1405 28.2796 53.7865 27.2014 54.6485 27.2014C55.7254 26.9865 56.5862 27.4188 57.4482 28.4945L61.3237 24.1893H61.1088L60.0319 25.2649C59.1711 24.1893 57.6644 23.3272 56.1564 23.1111V10.4066L65.8463 28.2796C65.8463 28.2796 66.0612 28.4945 66.4922 28.4945C66.7071 28.4945 66.7071 28.2796 66.7071 28.2796V10.4066C67.5691 10.1917 68.6448 9.76068 69.2907 9.32967C71.2284 7.39194 70.3676 5.23933 70.1528 5.0232C70.1528 5.88523 69.2907 6.74603 68.215 6.96093C66.7071 6.96093 65.6314 5.66911 65.6314 5.66911L61.9708 9.97558L62.187 10.1905L63.2639 8.89865C64.5557 10.1905 65.4177 10.1905 66.4934 10.4066V20.7424L59.1723 7.60684C58.5264 6.52991 57.6656 5.45422 55.9428 5.45422C54.2199 5.45422 52.9281 6.96093 52.7132 8.46763C52.4983 9.97558 52.7132 10.4054 52.7132 10.4054C52.7132 10.4054 52.9281 8.68252 54.0051 8.68252C55.082 8.68252 55.513 9.54332 55.9428 10.1892V14.0659C54.8658 14.0659 52.2822 14.0659 52.2822 16.8657C52.2822 17.7265 52.9281 18.8034 53.3591 19.2344C54.005 19.6654 54.651 19.6654 54.651 19.6654C54.651 19.6654 53.7889 19.2344 54.0051 18.3736C54.2212 17.5128 55.9428 17.5128 55.9428 17.7277V23.1111C55.082 23.1111 52.7132 23.1111 51.4202 25.2649C50.7743 26.558 50.7743 28.0659 51.6351 29.1416C52.2785 30.0012 53.3554 31.0769 55.5093 30.6483ZM76.1808 12.7753C76.1808 12.7753 74.2431 14.0671 72.7352 14.9292L69.7205 16.4371V24.8339L68.4287 25.6972L68.6436 25.9121L69.9354 25.0513L73.3811 28.2808L79.8401 23.3285L79.6253 23.1123L76.1796 25.9121L73.3798 23.1123V22.2515L78.9781 17.9451L76.1808 12.7753ZM76.1808 19.6654L73.3811 21.8193V14.7131L76.1808 19.6654ZM85.0099 28.2796L81.7791 25.696L80.4873 26.7717L80.2712 26.5568L81.7791 25.4786V18.3736C81.7791 15.359 78.9793 16.221 79.1955 12.9902C79.1955 11.6984 80.4873 10.6215 81.3481 10.1905C81.994 9.97557 82.856 9.97558 82.856 9.97558C82.856 9.97558 81.5642 10.6215 81.7791 11.9133C82.2101 13.6361 85.2248 13.6361 85.4397 16.0036V24.1868L87.5935 25.9096L88.2394 25.4774V16.6496L86.9476 15.5726L89.9623 12.7729L92.762 15.3565L91.6851 16.4334V24.1856L94.4849 26.3369L94.9159 26.122V16.6483L93.624 15.5714L96.6387 12.7716L99.6521 15.1404L100.729 14.0634L100.944 14.2783L98.3603 16.6471V24.1843L91.6851 28.2747L88.2394 25.691L85.0099 28.2796ZM220.67 12.7753C220.67 12.7753 218.517 14.0671 217.226 14.9292L214.211 16.4371V24.8339L212.918 25.6972L213.136 25.9121L214.211 25.0513L217.871 28.2808L224.332 23.3285L224.115 23.1123L220.67 25.9121L217.656 23.1123V22.2515L223.471 17.9451L220.67 12.7753ZM220.67 19.6654L217.656 21.8193V14.7131L220.67 19.6654ZM190.955 16.4359H191.17L192.245 15.5739L193.968 17.5116V24.4029L193.106 25.0501L195.907 28.2796L198.705 25.4786L197.629 24.188V16.0049L198.276 15.359L200.213 17.7277V24.6178L199.567 25.2637L202.151 28.0647L204.95 25.4786L203.874 24.4029V16.0049L204.52 15.359L206.673 17.7277V24.4029L206.028 25.0501L208.827 28.2796L212.702 24.6178L212.488 24.4029L211.626 25.2637L210.12 23.757V16.0049L211.41 14.9279V14.7131L209.902 15.7888L207.319 12.9902L203.659 15.7888L201.073 12.9902L197.415 15.7888L194.832 12.9902L190.955 16.4359Z" fill="black"/>
<path fill-rule="evenodd" clip-rule="evenodd" d="M183.203 16.221L184.278 15.359L185.786 17.2967V25.0501L184.709 26.1257L184.924 26.3394L186 25.2637L188.586 28.2796L192.245 25.0501L192.031 24.8327L190.955 25.696L189.447 23.9719V16.221L190.738 15.1441V14.9279L189.447 16.0049L186.862 12.9902L183.203 16.221ZM184.278 9.54456L186.862 7.17581L189.231 9.54456L186.432 12.1294L184.278 9.54456Z" fill="black"/>
<path fill-rule="evenodd" clip-rule="evenodd" d="M180.402 4.16117C181.048 4.16117 182.125 4.37605 182.985 5.23809C183.631 5.88399 183.849 7.17581 183.631 8.25274C183.416 9.11354 182.985 9.75945 182.123 10.4054C181.048 11.0513 179.972 11.0513 179.972 11.0513V15.1416L181.908 16.8644L179.972 18.3711V24.1856C179.972 24.1856 181.908 22.8937 183.202 20.3089L183.416 19.8779C183.416 20.7387 183.416 22.0317 182.556 23.9694C182.123 25.2612 180.833 26.5543 179.541 27.4151C177.172 28.7057 175.236 28.7057 173.296 28.4908C171.144 27.8449 168.99 26.5543 167.697 24.4005C166.622 22.8937 166.189 20.9548 166.189 19.0171C166.189 15.1404 169.204 11.9108 172.435 10.619C172.867 10.4041 173.081 10.4041 173.728 10.4041C173.296 10.4041 173.082 10.619 172.65 11.05C171.574 11.6947 170.713 12.9878 170.281 14.0647L176.742 11.2649V20.3089L171.573 22.8937C172.219 23.7545 173.941 25.0476 175.449 25.0476C178.033 25.4774 179.54 24.1868 179.54 24.1868V18.3724L177.603 16.8657L179.54 15.1428V11.0525C178.464 10.8364 177.171 10.4066 176.31 10.1905C175.234 9.97557 171.358 8.89865 170.712 8.89865C170.28 8.68376 169.419 8.68375 168.989 9.11477C168.557 9.54579 168.343 10.1917 168.343 10.8376C168.558 11.2686 168.775 11.4835 168.989 11.6984C168.989 11.6984 168.774 11.6984 168.343 11.4835C167.697 11.0525 167.05 10.1917 167.05 9.11477C166.835 7.82295 167.482 6.52991 168.558 5.66911C169.636 5.0232 170.712 4.59218 172.005 4.8083C173.941 5.0232 176.525 6.10012 178.679 6.74603C179.755 6.96092 180.402 6.96093 181.048 6.52991C181.263 6.31502 181.694 5.88523 181.263 5.23809C180.833 4.37729 179.972 4.37729 179.111 4.16117C179.756 3.94628 179.973 3.94628 180.402 4.16117ZM172.867 22.0342V13.2051L170.281 14.4969C170.281 14.4969 169.42 16.0036 169.637 18.1575C169.637 19.8803 170.713 21.818 171.36 22.6801L172.867 22.0342ZM227.562 29.3553C227.129 29.5727 225.408 29.1404 224.976 27.2014C224.546 25.265 225.839 24.1893 227.777 22.0342L225.408 20.0965V16.0049C225.408 16.0049 227.131 15.359 228.423 14.4982L231.006 12.7753C231.006 12.7753 232.082 14.0672 233.16 13.8523C234.883 13.6361 234.883 12.3443 234.668 12.1294C235.098 12.5604 235.744 14.0672 232.729 17.7277L235.315 19.6654V24.8327C235.315 24.8327 232.3 26.3406 229.714 28.2796C229.714 28.2796 228.209 26.3406 226.916 27.2014C225.839 27.8474 226.269 28.9255 227.562 29.3553ZM225.408 25.4786C225.408 25.4786 226.701 23.326 229.07 23.7558C231.221 24.188 231.868 26.3394 231.868 26.3394V21.1734L230.36 19.8816C228.852 21.6032 225.839 23.9719 225.408 25.4786ZM228.852 14.4982V18.5897L230.145 19.8816C230.145 19.8816 233.16 17.5128 234.236 15.1441C234.236 15.1441 232.945 17.0818 231.006 16.4359C229.498 16.0049 228.852 14.4982 228.852 14.4982ZM134.752 16.221L135.828 15.359H136.043L134.967 16.4359V24.6178C134.967 24.6178 132.813 25.696 131.523 26.5568L128.508 28.2796L124.631 25.0501L123.771 25.9109H123.556L124.631 24.8327V16.0049C124.631 16.0049 126.354 15.359 127.861 14.4982C129.154 13.6361 130.659 12.7753 130.659 12.7753L134.752 16.221ZM128.293 23.5421L131.305 26.3406V17.5128L128.293 14.7131V23.5421ZM142.288 15.359L144.657 12.9902C144.657 12.9902 144.872 13.2051 145.303 13.4212C145.518 13.6361 146.164 13.8523 146.811 13.6361C147.241 13.4212 147.241 13.2051 147.672 12.9902C147.672 14.9279 146.811 16.221 145.733 16.6508C145.089 16.8657 143.796 17.2967 142.288 15.5739V24.4029L144.011 25.696L145.089 24.8327H145.304L141.427 28.2796L138.413 25.4786L137.337 26.5568L137.122 26.3394L138.63 24.8315V17.2955L137.552 15.5726L136.476 16.4347H136.261L140.138 12.989L142.288 15.359ZM152.409 19.2357L156.714 12.7753C156.714 12.7753 157.36 13.4212 158.438 13.6361C159.729 14.0671 161.022 12.7753 161.022 12.7753C160.807 14.4982 159.946 16.4359 158.007 16.652C156.499 16.8669 154.993 15.5751 154.993 15.5751L154.778 16.221L160.808 25.4798L162.099 24.4042L162.314 24.619L158.009 28.2808L152.409 19.2357Z" fill="black"/>
<path fill-rule="evenodd" clip-rule="evenodd" d="M148.747 10.6215C148.747 9.11478 148.101 8.25398 147.239 8.25398L152.194 5.02321V24.1893L153.485 25.4799L154.346 24.619L154.563 24.8339L150.686 28.2808L148.1 25.6972L147.024 26.7729L146.81 26.558L148.746 24.8339V10.6215H148.747ZM108.265 10.1905C108.265 8.89865 107.619 8.25274 106.757 8.25274C105.465 8.03662 105.25 9.97558 105.25 9.97558C105.25 9.97558 105.035 8.46764 106.111 7.39195C106.757 6.74604 108.049 5.66912 109.772 6.10013C111.709 6.53115 112.355 8.03786 112.355 9.32967V27.2014C112.355 27.2014 113.001 27.4188 113.432 27.4188C114.078 27.6337 114.509 27.6337 114.509 27.6337V6.0989H114.724V9.11354L118.601 5.884L121.615 8.46764L122.909 7.39071H123.123L121.615 8.68253V25.2625C121.615 26.3382 121.401 27.4163 120.324 28.0635C118.17 29.5714 115.371 27.8461 112.786 27.6312C111.064 27.199 108.265 26.9853 107.404 28.7069C107.189 29.1392 107.189 30 108.05 30.6459C109.773 31.7216 117.094 28.7069 119.678 30C122.048 31.0757 122.048 32.5836 121.615 33.8767C120.97 36.0305 118.17 36.4603 118.17 36.4603C118.17 36.4603 119.676 35.5995 119.247 34.3089C119.032 33.663 118.601 33.4456 117.093 33.663C113.863 34.0928 110.203 35.5995 107.619 34.5238C106.327 33.8779 105.25 32.3699 105.465 30.6471C105.465 28.2784 108.265 27.4176 108.265 27.4176V18.8034C108.05 18.5885 106.757 18.5885 106.327 19.2344C105.896 20.3113 106.973 20.7411 106.973 20.7411C106.973 20.7411 106.111 20.7411 105.25 19.8803C105.035 19.4493 104.173 18.1575 105.25 16.6508C105.896 15.5739 106.973 15.359 108.265 15.359V10.1905ZM114.725 27.8474C114.725 27.8474 116.017 28.0647 116.663 27.4176C117.74 26.5568 117.524 25.6947 117.524 25.6947V19.0183C117.524 19.0183 117.093 18.1563 116.232 18.1563C115.371 18.1563 114.724 19.0183 114.724 19.0183V27.8474H114.725ZM117.525 10.1905L115.802 8.68376L114.725 9.32967V15.5751C114.725 15.5751 115.371 16.221 116.233 16.221C117.095 16.221 117.525 15.5751 117.525 15.5751V10.1905ZM117.525 16.0049C117.525 16.0049 117.094 16.4359 116.233 16.4359C115.373 16.4359 114.725 16.0049 114.725 16.0049V18.5897C114.725 18.5897 115.371 17.9438 116.233 17.9438C117.095 17.9438 117.525 18.5897 117.525 18.5897V16.0049ZM144.657 34.3101C144.657 32.8022 144.657 32.8022 144.011 32.5861H143.796V32.3712H149.396C149.396 32.5861 149.611 33.4469 149.611 33.8791C149.611 34.094 149.396 34.094 149.181 34.094C148.966 33.4481 148.966 33.0183 148.32 32.8034H146.166C145.734 32.8034 145.734 32.8034 145.734 33.2332V35.8168C145.734 36.0342 145.734 36.0342 146.166 36.0342H148.103C148.103 36.0342 148.32 35.8169 148.32 35.602V35.1722C148.535 34.9548 148.75 34.9548 148.75 35.1722V37.5409C148.75 37.7558 148.535 37.7558 148.32 37.5409V37.1087C148.32 36.8938 148.103 36.6764 147.888 36.6764C147.673 36.6764 147.458 36.4615 147.027 36.4615H146.166C145.734 36.4615 145.734 36.6764 145.734 36.8938V38.6166C145.734 39.4774 145.734 39.9097 145.951 40.1245C146.166 40.1245 146.381 40.3394 147.459 40.3394C148.535 40.3394 148.967 40.3394 149.182 40.1245C149.397 39.9097 149.612 39.4786 150.043 38.8315C150.043 38.8315 150.258 38.8315 150.258 39.0464C150.258 39.4786 150.043 40.3394 149.828 40.7705H143.583V40.3382H144.012C144.658 40.3382 144.658 40.1233 144.658 38.8303V34.3101H144.657ZM151.548 36.4615C151.333 36.2466 151.116 36.0317 150.688 36.0317H150.47V35.5995H152.839V36.0317H152.624C152.194 36.0317 152.194 36.2466 152.409 36.4615L153.055 37.3223C153.055 37.5397 153.27 37.5397 153.27 37.5397C153.27 37.5397 153.702 36.8938 153.916 36.4615C154.131 36.2466 154.131 36.0317 153.916 36.0317H153.701V35.5995H155.637V36.0317H155.423C155.208 36.0317 154.99 36.0317 154.777 36.2466C154.563 36.4615 154.131 37.1074 153.701 37.7546C153.484 37.9695 153.484 37.9695 153.701 38.1844L154.777 39.9084C154.992 40.3382 155.209 40.3382 155.637 40.3382H155.852V40.7705H153.269V40.3382H153.701C154.131 40.3382 154.131 40.3382 153.916 40.1233L153.27 39.0452C153.055 38.8303 153.055 38.8303 153.055 38.6154C152.838 38.8303 152.838 38.8303 152.838 39.0452L152.194 39.9084C151.977 40.3382 151.977 40.3382 152.194 40.3382H152.409C152.624 40.5531 152.624 40.7705 152.409 40.7705H150.688C150.47 40.7705 150.47 40.5531 150.47 40.3382H150.902C151.117 40.3382 151.335 40.3382 151.548 39.9084C151.763 39.6911 152.409 38.8303 152.624 38.6154C152.624 38.4005 152.839 38.4005 152.624 38.1831L151.548 36.4615ZM157.794 37.3223C157.794 36.8925 157.794 36.6764 158.009 36.4615C158.224 36.2466 158.441 36.0317 159.084 36.0317C160.162 36.0317 160.808 37.1074 160.808 38.1831C160.808 39.4762 160.162 40.5519 159.084 40.5519C158.869 40.5519 158.441 40.337 158.224 40.1221C158.009 39.9072 157.794 39.9072 157.794 39.4762V37.3223ZM156.932 42.4921C156.932 43.3529 156.932 43.5677 156.499 43.5677L156.07 43.7826C156.07 43.7826 156.07 44 156.285 44H158.868V43.7826L158.222 43.5677C157.792 43.5677 157.792 43.3529 157.792 42.4921V41.199C157.792 40.9841 158.007 40.7692 158.007 40.7692C158.222 40.7692 158.44 40.9841 158.653 40.9841C160.59 40.9841 161.883 39.6911 161.883 37.7546C161.883 36.4615 161.022 35.6007 159.729 35.6007C158.868 35.6007 158.006 36.033 158.006 36.033H157.791V35.3871C157.359 35.602 156.713 35.8169 156.498 36.033V36.2479C156.93 36.4628 156.93 36.4628 156.93 37.1087V42.4921H156.932ZM163.606 37.1074C163.606 36.6752 164.252 35.8144 165.114 35.8144C165.76 35.8144 165.974 36.2466 165.974 36.6752V36.8925C165.76 37.1074 165.542 37.1074 164.681 37.1074H163.606ZM166.189 37.5397C166.622 37.5397 166.835 37.5397 166.835 37.3223C167.05 37.3223 167.05 37.3223 167.05 37.1074C167.05 36.2466 166.189 35.5995 165.114 35.5995C163.606 35.5995 162.745 36.8925 162.745 38.4005C162.745 39.0439 162.745 39.4762 163.177 40.1233C163.607 40.5531 164.253 40.9841 165.114 40.9841C165.76 40.9841 166.622 40.5519 167.05 39.6911L166.835 39.4762C166.405 40.1221 165.974 40.1221 165.542 40.1221C164.252 40.1221 163.606 39.0439 163.606 37.7533C163.606 37.5384 163.606 37.5385 163.821 37.5385H166.189V37.5397ZM171.789 35.8144C172.006 35.8144 172.006 36.0317 172.006 36.2466C172.006 36.4615 171.789 36.6764 171.789 36.6764H171.574C171.359 36.2466 170.713 36.033 170.281 36.033C169.42 36.033 168.558 36.6764 168.558 37.9695C168.558 39.0452 169.204 40.1233 170.497 40.1233C171.358 40.1233 171.788 39.9084 172.005 39.4774C172.005 39.4774 172.22 39.4774 172.22 39.6923C171.788 40.5531 170.927 40.9854 170.066 40.9854C169.42 40.9854 168.775 40.7705 168.343 40.3394C167.911 39.9097 167.697 39.2638 167.697 38.403C167.697 36.895 168.558 35.602 170.712 35.602C170.927 35.5995 171.574 35.5995 171.789 35.8144ZM174.589 36.2466C174.374 36.2466 174.374 36.2466 174.374 36.4615V38.8303C174.374 39.6911 174.374 40.3382 175.234 40.3382H175.449C175.664 40.3382 175.882 40.1233 175.882 40.1233C175.882 40.1233 176.097 40.3382 175.882 40.3382C175.664 40.5531 175.236 40.9841 174.589 40.9841C173.513 40.9841 173.296 40.3382 173.296 39.4762V36.6752C173.296 36.2454 173.296 36.2454 173.081 36.2454H172.648V36.0305C173.081 35.8131 173.294 35.5982 173.512 35.5982C173.727 35.3834 173.941 35.1685 173.941 34.7375C174.156 34.7375 174.156 34.7375 174.374 34.9523V35.3846C174.374 35.5995 174.374 35.5995 174.589 35.5995H175.882C176.097 35.8144 176.097 36.2454 175.882 36.2454H174.589V36.2466ZM181.48 36.2466C181.263 36.2466 181.263 36.2466 181.263 36.4615V38.8303C181.263 39.6911 181.263 40.3382 182.123 40.3382H182.556L182.771 40.1233C182.985 40.1233 182.985 40.3382 182.985 40.3382C182.771 40.5531 182.342 40.9841 181.695 40.9841C180.619 40.9841 180.402 40.3382 180.402 39.4762V36.6752C180.402 36.2454 180.402 36.2454 180.187 36.2454H179.755C179.755 36.2454 179.54 36.0305 179.755 36.0305C179.972 35.8131 180.401 35.5982 180.401 35.5982C180.618 35.3834 180.833 35.1685 181.046 34.7375C181.046 34.7375 181.261 34.7375 181.261 34.9523V35.3846C181.261 35.5995 181.261 35.5995 181.479 35.5995H182.984V36.2454H181.48V36.2466ZM184.278 33.4456C184.278 32.8022 184.278 32.8022 183.849 32.5848L183.631 32.3699V32.1551C184.064 32.1551 184.492 31.9402 185.139 31.7228V36.2466C185.572 35.8144 186.217 35.6007 186.862 35.6007C188.155 35.6007 188.586 36.2466 188.586 37.1087V39.2625C188.586 40.1233 188.586 40.3382 189.016 40.3382H189.231C189.448 40.5531 189.448 40.7705 189.231 40.7705H186.862V40.3382H187.079C187.509 40.3382 187.509 40.1233 187.509 39.2625V37.5397C187.509 36.6764 187.294 36.0317 186.434 36.0317C186.001 36.0317 185.573 36.2466 185.355 36.4615C185.14 36.6764 185.14 36.6764 185.14 37.1074V39.2613C185.14 40.1221 185.14 40.337 185.573 40.337H185.788C186.003 40.5519 186.003 40.7692 185.788 40.7692H183.419V40.337H183.634C184.28 40.337 184.28 40.1221 184.28 39.2613V33.4456H184.278ZM190.955 37.1074C190.955 36.6752 191.598 35.8144 192.46 35.8144C193.106 35.8144 193.324 36.2466 193.324 36.6752V36.8925C193.106 37.1074 192.891 37.1074 192.031 37.1074H190.955ZM193.539 37.5397C193.968 37.5397 194.184 37.5397 194.184 37.3223C194.399 37.3223 194.399 37.3223 194.399 37.1074C194.399 36.2466 193.539 35.5995 192.46 35.5995C190.955 35.5995 190.092 36.8925 190.092 38.4005C190.092 39.0439 190.092 39.4762 190.524 40.1233C190.956 40.5531 191.6 40.9841 192.46 40.9841C193.106 40.9841 193.968 40.5519 194.399 39.6911L194.184 39.4762C193.752 40.1221 193.324 40.1221 192.891 40.1221C191.598 40.1221 190.955 39.0439 190.955 37.7533C190.955 37.5384 190.955 37.5385 191.17 37.5385H193.539V37.5397ZM197.415 32.3699H200.214C200.429 32.3699 200.429 32.5848 200.214 32.5848H199.999C199.784 32.5848 199.567 32.8022 199.567 32.8022C199.567 33.0171 199.784 33.663 200.212 34.525C200.858 36.033 201.72 37.7546 202.366 39.2625C202.796 38.6166 203.012 37.9695 203.442 37.3236C203.442 36.8938 203.659 36.6776 203.659 36.6776L203.442 36.4628L202.151 33.2332C201.934 33.0183 201.719 32.5873 201.291 32.5873H201.073C200.858 32.5873 200.858 32.3724 201.073 32.3724H203.659C203.874 32.3724 203.874 32.5873 203.659 32.5873H203.442C203.012 32.5873 203.012 32.8047 203.227 33.2332C203.442 33.8791 203.873 34.7412 204.088 35.602C204.303 34.9561 204.52 34.5263 204.949 33.8791C205.381 32.8034 205.164 32.5861 204.949 32.5861H204.519C204.302 32.3712 204.519 32.3712 204.519 32.3712H206.888C206.888 32.3712 207.103 32.5861 206.888 32.5861H206.455C206.026 32.5861 205.81 33.232 205.595 33.6642C205.162 34.3101 204.734 35.3871 204.519 35.8156V36.4628C204.949 37.3236 205.38 38.4017 205.81 39.2638C206.242 38.403 206.455 37.5409 206.888 36.6776C207.103 36.0342 207.963 34.3114 207.963 34.094C208.178 33.6642 208.396 33.0183 208.396 32.8034C208.396 32.8034 208.178 32.5861 207.963 32.5861H207.531V32.3712H209.9C210.117 32.3712 210.117 32.5861 209.9 32.5861H209.685C209.039 32.5861 209.039 33.0183 208.177 34.7399L207.316 36.8938C206.67 38.1844 206.241 39.4774 205.808 40.9841H205.379C204.952 39.7336 204.448 38.5107 203.871 37.3223C203.438 38.1831 202.578 39.9084 202.363 40.9841H201.93C201.715 40.3382 201.287 39.2613 201.07 38.8303C200.209 37.1074 199.562 35.3858 198.701 33.4469C198.486 33.0171 198.271 32.5861 197.84 32.5861H197.415V32.3699ZM213.134 38.4005C213.134 39.2613 212.917 40.5519 211.841 40.5519C210.548 40.5519 210.118 39.2613 210.118 38.1831C210.118 36.6752 210.764 35.8144 211.626 35.8144C212.702 35.8144 213.134 37.3223 213.134 38.4005ZM211.626 35.5995C210.333 35.5995 209.04 36.6752 209.04 38.1831C209.04 39.9072 210.118 40.9841 211.626 40.9841C213.134 40.9841 214.21 39.6911 214.21 38.1831C214.21 36.6752 213.134 35.5995 211.626 35.5995ZM215.933 37.1074C215.933 36.4615 215.933 36.4615 215.718 36.2466H215.503V36.0317C215.718 35.8144 216.579 35.5995 216.794 35.3858V36.2466H217.009C217.441 35.8144 217.869 35.6007 218.302 35.6007C218.734 35.6007 218.948 35.8156 218.948 36.033C218.948 36.4628 218.515 36.6764 218.302 36.6764C218.302 36.6764 218.087 36.6764 218.087 36.4615C217.869 36.4615 217.654 36.2466 217.441 36.2466C217.227 36.2466 217.226 36.4615 217.009 36.6764C217.009 36.6764 216.794 37.1087 216.794 37.5397V39.2625C216.794 40.1233 217.009 40.3382 217.44 40.3382H217.869V40.7705H215.286C215.071 40.7705 215.071 40.5531 215.286 40.3382H215.503C215.933 40.3382 215.933 40.1233 215.933 39.2625V37.1074ZM220.884 39.2613C220.884 40.1221 220.884 40.337 221.316 40.337H221.746V40.7692H219.162V40.337H219.595C220.024 40.337 220.024 40.1221 220.024 39.2613V33.4456C220.024 32.8022 220.024 32.8022 219.595 32.5848V32.3699C219.377 32.3699 219.377 32.1551 219.595 32.1551C219.81 32.1551 220.456 31.9402 220.885 31.7228V39.2613H220.884ZM226.484 39.4762C226.484 39.6911 226.484 39.9084 226.269 39.9084C226.054 40.1233 225.623 40.3382 225.408 40.3382C224.115 40.3382 223.471 39.2625 223.471 37.9695C223.471 36.8938 224.115 35.8156 225.194 35.8156C225.624 35.8156 226.055 36.2479 226.27 36.4615C226.27 36.6764 226.485 36.6764 226.485 36.8938V39.4762H226.484ZM227.344 31.724C226.701 31.9414 226.269 32.1563 225.839 32.1563V32.3712L226.054 32.5861C226.484 32.8034 226.484 32.8034 226.484 33.4469V35.3858C226.484 35.6007 226.484 35.6007 226.269 35.6007H225.408C223.685 35.6007 222.393 36.6764 222.393 38.4017C222.393 39.6923 223.471 40.9854 224.762 40.9854C225.408 40.9854 225.84 40.7705 226.27 40.3394H226.485V40.9866C226.917 40.9866 227.778 40.7717 228.209 40.5543C228.424 40.5543 228.424 40.3394 228.209 40.1245C227.991 40.3394 227.777 40.3394 227.777 40.3394C227.344 40.3394 227.344 39.9097 227.344 38.8315V31.724ZM231.652 32.8022C231.652 32.8022 231.652 32.5848 231.867 32.5848C232.513 32.5848 232.728 33.0171 232.728 33.4456C232.728 33.8779 232.513 34.3089 232.082 34.3089C231.652 34.3089 231.652 34.3089 231.652 34.0915V32.8022ZM231.006 35.1709C231.006 35.8144 231.006 35.8144 230.791 35.8144L230.576 36.0317H232.081C232.298 36.0317 232.298 36.0317 232.081 36.0317L231.866 35.8144C231.651 35.8144 231.651 35.8144 231.651 35.1709V34.7387C231.651 34.5238 231.651 34.5238 231.866 34.5238H232.081C232.298 34.9536 232.513 35.1697 232.727 35.3846C232.944 36.0305 233.372 36.2454 233.805 36.2454C233.805 36.2454 234.02 36.2454 234.02 36.0305C234.02 36.0305 233.805 36.0305 233.805 35.8131C233.372 35.5983 233.159 35.1697 232.727 34.5226V34.3077C232.944 34.0903 233.372 33.8754 233.372 33.4444C233.372 32.5836 232.512 32.3687 232.079 32.3687H230.574V32.5836H230.789C231.004 32.5836 231.004 32.801 231.004 33.4444V35.1709H231.006ZM232.082 37.5397C234.021 37.5397 235.529 36.0317 235.529 34.3101C235.529 32.3712 234.021 31.0781 232.082 31.0781C230.145 31.0781 228.852 32.3712 228.852 34.3101C228.852 36.0317 230.144 37.5397 232.082 37.5397ZM229.283 34.3101C229.283 32.5861 230.576 31.2955 232.082 31.2955C233.806 31.2955 234.883 32.5861 234.883 34.3101C234.883 35.8156 233.807 37.1087 232.082 37.1087C230.576 37.1074 229.283 35.8144 229.283 34.3101Z" fill="black"/>
</svg>
