<svg width="160" height="112" viewBox="0 0 160 112" fill="none" xmlns="http://www.w3.org/2000/svg">
<path d="M62.6834 99.4972H59.5912V94.3435H55.8118V107.949H59.5912V102.521H62.6834V107.949H66.5315V94.3435H62.6834V99.4972Z" fill="#7029EC"/>
<path d="M48.8715 105.132C47.5659 105.132 47.0162 104.307 47.0162 102.452V99.7721C47.0162 97.9855 47.6346 97.1609 48.8028 97.1609C49.7648 97.1609 50.2458 97.7106 50.3833 99.0162H54.2314C54.0252 95.5117 51.895 94.2061 48.8028 94.2061C45.5044 94.2061 43.0307 96.2676 43.0307 99.9095V102.521C43.0307 106.094 45.0234 108.224 48.9402 108.224C52.1012 108.224 54.2314 106.644 54.3001 103.277H50.5207C50.452 104.651 49.8335 105.132 48.8715 105.132Z" fill="#7029EC"/>
<path d="M41.4502 98.9475V98.3978C41.4502 95.7179 39.8697 94.3435 36.4339 94.3435H31.6238V107.949H35.4032V102.864H36.0216L38.0831 107.949H41.9999L39.5262 102.177C40.6943 101.627 41.4502 100.734 41.4502 98.9475ZM37.8083 99.0162C37.8083 100.047 37.3272 100.459 36.2965 100.459H35.4719V97.2296H36.2965C37.3272 97.2296 37.8083 97.6419 37.8083 98.5352V99.0162Z" fill="#7029EC"/>
<path d="M21.9349 94.3435L18.5678 107.949H22.0723L22.5533 105.476H25.8517L26.3327 107.949H30.3182L27.0198 94.3435H21.9349ZM23.103 102.864L24.2025 97.5045L25.302 102.864H23.103Z" fill="#7029EC"/>
<path d="M10.6654 100.94L8.81012 94.3435H4V107.949H7.29837V99.7034L9.08498 105.476H11.7649L13.5515 99.7034V107.949H17.3309V94.3435H12.5208L10.6654 100.94Z" fill="#7029EC"/>
<path d="M148.097 99.4285C146.723 99.0162 146.311 98.7414 146.311 97.9855C146.311 97.3671 146.654 96.9548 147.342 96.9548C148.097 96.9548 148.51 97.2983 148.578 98.3291H152.152C152.014 95.5117 150.365 94.2061 147.41 94.2061C144.455 94.2061 142.669 95.7866 142.669 98.2604C142.669 100.872 143.906 101.902 146.792 102.796C148.166 103.208 148.716 103.414 148.716 104.307C148.716 105.063 148.304 105.476 147.479 105.476C146.448 105.476 146.036 104.995 146.036 103.826H142.394C142.463 106.85 144.249 108.224 147.479 108.224C150.64 108.224 152.358 106.506 152.358 103.895C152.426 100.94 150.64 100.047 148.097 99.4285Z" fill="#7029EC"/>
<path d="M124.047 100.94L122.191 94.3435H117.381V107.949H120.68V99.7034L122.398 105.476H125.146L126.933 99.7034V107.949H130.644V94.3435H125.833L124.047 100.94Z" fill="#7029EC"/>
<path d="M136.622 102.315H140.126V99.6347H136.622V97.2983H141.088V94.3435H132.842V107.949H141.295V104.995H136.622V102.315Z" fill="#7029EC"/>
<path d="M115.045 94.3435H111.197V107.949H115.045V94.3435Z" fill="#7029EC"/>
<path d="M77.7322 94.2061C74.3652 94.2061 71.7539 96.2676 71.7539 99.9095V102.521C71.7539 106.094 74.0216 108.224 77.6635 108.224C81.3055 108.224 83.6418 106.025 83.6418 102.452V99.8408C83.6418 96.0614 81.168 94.2061 77.7322 94.2061ZM79.725 102.452C79.725 104.239 78.9691 105.132 77.7322 105.132C76.4266 105.132 75.6708 104.307 75.6708 102.452V99.8408C75.6708 98.0542 76.4266 97.1609 77.7322 97.1609C78.9691 97.1609 79.725 98.0542 79.725 99.8408V102.452Z" fill="#7029EC"/>
<path d="M103.226 94.3435H98.5532V107.949H103.226C107.211 107.949 109.342 106.025 109.342 102.246V99.9095C109.342 96.1302 107.28 94.3435 103.226 94.3435ZM105.425 102.246C105.425 104.239 104.806 104.995 103.157 104.995H102.401V97.2983H103.157C104.806 97.2983 105.425 97.9855 105.425 100.047V102.246Z" fill="#7029EC"/>
<path d="M85.4284 107.949H89.2078V103.07H92.7123V100.253H89.2078V97.2983H93.4682V94.3435H85.4284V107.949Z" fill="#7029EC"/>
<path d="M86.0471 6.04338H70.7235L56.2931 41.1572L41.8628 6.04338H26.5391L6.47404 84.7919H27.8447L36.9839 46.2422L49.0779 74.0722H63.5083L75.6023 46.2422L84.8102 84.7919H106.112L86.0471 6.04338Z" fill="#7029EC"/>
<path d="M115.732 84.7919L103.913 38.3399H127.345C141.982 38.3399 152.427 47.0668 152.427 61.5659C152.427 76.065 141.982 84.7919 127.345 84.7919H115.732Z" fill="#7029EC"/>
<path d="M113.327 31.8119C121.183 31.8119 127.552 25.5358 127.552 17.7938C127.552 10.0519 121.183 3.77576 113.327 3.77576C105.472 3.77576 99.1032 10.0519 99.1032 17.7938C99.1032 25.5358 105.472 31.8119 113.327 31.8119Z" fill="#7029EC"/>
<path d="M152.289 94.8931C152.289 93.8624 153.114 93.0378 154.145 93.0378C155.175 93.0378 156 93.8624 156 94.8931C156 95.9239 155.175 96.7485 154.145 96.7485C153.114 96.6798 152.289 95.9239 152.289 94.8931ZM155.588 94.8931C155.588 93.9998 154.969 93.3814 154.076 93.3814C153.183 93.3814 152.564 93.9998 152.564 94.8931C152.564 95.7864 153.251 96.4049 154.076 96.4049C154.969 96.4049 155.588 95.7864 155.588 94.8931ZM153.458 93.9311H154.076C154.488 93.9311 154.763 94.1373 154.763 94.4808C154.763 94.7557 154.626 94.8931 154.42 94.9618L154.901 95.7177H154.488L154.076 95.0306H153.87V95.7177H153.458V93.9311ZM154.145 94.8244C154.351 94.8244 154.488 94.7557 154.488 94.5496C154.488 94.3434 154.351 94.2747 154.145 94.2747H153.939V94.8244H154.145Z" fill="#7029EC"/>
</svg>
