<svg width="184" height="48" viewBox="0 0 184 48" fill="none" xmlns="http://www.w3.org/2000/svg">
<path d="M135.93 17.1701C138.512 17.1701 141.131 18.1037 142.565 19.4871L139.157 23.2907C138.477 22.4607 137.221 21.908 136.038 21.908C133.598 21.908 131.912 23.9825 131.912 26.3345C131.912 28.7204 133.527 30.726 136.109 30.726C137.293 30.726 138.584 30.2763 139.302 29.4465L142.565 33.2851C141.094 34.6687 138.584 35.4983 135.966 35.4983C130.334 35.4983 125.959 32.0408 125.959 26.3345C125.959 20.6973 130.334 17.1701 135.93 17.1701ZM95.2451 17.1701C101.235 17.1701 103.459 20.0055 103.459 26.265V34.9458H98.0789V33.1126H97.9712C97.0742 34.5303 95.0661 35.3603 92.914 35.3603C90.0444 35.3603 86.4218 34.0112 86.4218 29.9656C86.4218 24.9855 92.6986 24.1557 97.8992 24.1557V23.8793C97.8992 22.1844 96.501 21.3889 94.6718 21.3889C92.986 21.3889 91.3714 22.1844 90.2597 23.1525L87.2827 20.075C89.399 18.138 92.3399 17.1701 95.2451 17.1701ZM115.057 17.1701C121.047 17.1701 123.27 20.0055 123.27 26.265V34.9458H117.89V33.1126H117.782C116.886 34.5303 114.877 35.3603 112.725 35.3603C109.856 35.3603 106.233 34.0112 106.233 29.9656C106.233 24.9855 112.51 24.1557 117.711 24.1557V23.8793C117.711 22.1844 116.312 21.3889 114.483 21.3889C112.797 21.3889 111.183 22.1844 110.071 23.1525L107.094 20.075C109.21 18.138 112.151 17.1701 115.057 17.1701ZM65.3119 13.193V17.7234H69.5085V21.9767H65.3119V28.5478C65.3119 30.1733 65.8503 30.968 67.5362 30.968C68.0383 30.968 68.6498 30.8885 69.0835 30.753L69.2576 30.6916L69.3296 34.8418C68.5046 35.118 67.1775 35.3602 65.9216 35.3602C61.2554 35.3602 59.6437 33.0434 59.5759 29.4789L59.5736 29.2394V21.9767H56.7041V17.9416C57.883 17.8634 58.977 17.619 59.6096 16.9563C60.3714 16.229 60.5806 14.8923 60.6197 13.5173L60.6243 13.1939L65.3119 13.193ZM150.849 10.4561V25.1064H150.956L156.659 17.7239H163.797L156.91 25.9013L164.083 34.9461H156.803L150.956 27.078H150.849V34.9461H144.931V10.4561H150.849ZM83.9135 17.2394C84.3799 17.2394 84.8819 17.2739 85.1685 17.3777L84.9174 22.357C84.3799 22.2188 83.878 22.1845 83.4116 22.1845C80.2552 22.1845 79.2148 24.674 79.2148 26.0926V34.9457H73.3333V17.7236H78.9995V20.2131H79.0716C79.9678 18.4495 81.7257 17.2394 83.9135 17.2394ZM176.57 17.2394C177.037 17.2394 177.539 17.2739 177.826 17.3777L177.575 22.357C177.037 22.2188 176.535 22.1845 176.068 22.1845C172.912 22.1845 171.872 24.674 171.872 26.0926V34.9457H165.99V17.7236H171.656V20.2131H171.729C172.625 18.4495 174.383 17.2394 176.57 17.2394ZM98.0789 28.0288V27.4409H97.3259C94.743 27.4409 91.8378 27.7524 91.8378 29.7924C91.8378 31.107 93.2006 31.5558 94.3844 31.5558C96.7876 31.5558 98.0789 30.2075 98.0789 28.0288ZM117.89 28.0288V27.4409H117.137C114.554 27.4409 111.649 27.7524 111.649 29.7924C111.649 31.107 113.012 31.5558 114.196 31.5558C116.599 31.5558 117.89 30.2075 117.89 28.0288ZM23.9946 30.1777C25.4638 30.1969 26.9332 30.3808 27.7088 31.1937C28.5216 31.9692 28.7246 33.4384 28.7246 34.9075V39.2707C28.715 40.7401 28.5214 42.2091 27.7088 42.9848C26.9332 43.7975 25.4638 43.9813 23.9946 44.0005C22.5253 43.9813 21.0559 43.7975 20.2806 42.9848C19.5185 42.2575 19.3008 40.921 19.2685 39.546L19.2598 37.8971C19.2584 36.9781 19.2594 35.9354 19.2628 35.2019L19.2645 34.9077C19.2742 33.4384 19.4677 31.9692 20.2806 31.1937C21.0561 30.3808 22.5253 30.1969 23.9946 30.1777ZM37.0821 17.2726C38.5513 17.2919 40.0207 17.4758 40.7963 18.2886C41.6089 19.064 41.8121 20.5332 41.8121 22.0026V26.3655C41.8024 27.8349 41.6089 29.3041 40.7963 30.0799C40.0207 30.8925 38.5513 31.0762 37.0821 31.0955C35.6128 31.0762 34.1434 30.8925 33.368 30.0799C32.606 29.3526 32.3883 28.0158 32.3561 26.6409L32.3472 24.992C32.3458 24.073 32.3468 23.0302 32.3503 22.2967L32.352 22.0026C32.3617 20.5332 32.5552 19.064 33.368 18.2886C34.1434 17.4758 35.6128 17.2919 37.0821 17.2726ZM23.9936 17.0891C25.4628 17.1082 26.9321 17.2923 27.7077 18.1051C28.5205 18.8805 28.7042 20.3499 28.7235 21.819C28.7042 23.2882 28.5203 24.7576 27.7077 25.5334C26.9319 26.346 25.4628 26.5299 23.9934 26.549C22.5242 26.5299 21.0548 26.346 20.2796 25.5334C19.4666 24.7576 19.2827 23.2884 19.2634 21.819C19.2827 20.3499 19.4666 18.8805 20.2796 18.1051C21.0548 17.2923 22.5242 17.1084 23.9936 17.0891ZM50.1708 4.00049C51.64 4.01963 53.1094 4.20351 53.885 5.0165C54.6978 5.79191 54.8815 7.2611 54.9008 8.73047C54.8815 10.1997 54.6976 11.669 53.885 12.4446C53.1092 13.2574 51.64 13.4413 50.1706 13.4605C48.7014 13.4413 47.2321 13.2574 46.4568 12.4446C45.6438 11.6692 45.46 10.1998 45.4406 8.73047C45.46 7.2611 45.6438 5.79191 46.4568 5.0165C47.2321 4.20351 48.7014 4.01963 50.1708 4.00049ZM37.0821 4.00049C38.5514 4.01963 40.0206 4.20351 40.7964 5.0165C41.609 5.79191 41.7929 7.2611 41.8122 8.73047C41.7929 10.1997 41.609 11.669 40.7964 12.4446C40.0206 13.2574 38.5512 13.4413 37.0821 13.4605C35.6127 13.4413 34.1435 13.2574 33.3681 12.4446C32.5553 11.6692 32.3712 10.1998 32.3521 8.73047C32.3712 7.2611 32.5551 5.79191 33.3681 5.0165C34.1435 4.20351 35.6129 4.01963 37.0821 4.00049ZM23.9936 4.00049C25.4628 4.01963 26.9321 4.20351 27.7077 5.0165C28.5205 5.79191 28.7042 7.2611 28.7235 8.73047C28.7042 10.1997 28.5203 11.669 27.7077 12.4446C26.9319 13.2574 25.4628 13.4413 23.9934 13.4605C22.5242 13.4413 21.0548 13.2574 20.2796 12.4446C19.4666 11.6692 19.2827 10.1998 19.2634 8.73047C19.2827 7.2611 19.4666 5.79191 20.2796 5.0165C21.0548 4.20351 22.5242 4.01963 23.9936 4.00049ZM10.9048 4.00049C12.3742 4.01963 13.8434 4.20351 14.6191 5.0165C15.4318 5.79191 15.6156 7.2611 15.635 8.73047C15.6156 10.1997 15.4318 11.669 14.6191 12.4446C13.8434 13.2574 12.374 13.4413 10.9048 13.4605C9.43542 13.4413 7.96623 13.2574 7.19081 12.4446C6.37801 11.6692 6.19395 10.1998 6.1748 8.73047C6.19395 7.2611 6.37783 5.79191 7.19081 5.0165C7.96623 4.20351 9.4356 4.01963 10.9048 4.00049Z" fill="#250E62"/>
</svg>
