<svg width="512" height="48" viewBox="0 0 512 48" fill="none" xmlns="http://www.w3.org/2000/svg">
<path fill-rule="evenodd" clip-rule="evenodd" d="M6.08948 43.3397H40.047V4.77759H6.08948V43.3397ZM38.2363 24.893C38.2363 29.5193 34.3299 33.2826 29.5258 33.2826C25.0371 33.2826 21.3291 30.0018 20.8564 25.8015C21.8464 26.9267 23.0656 27.8271 24.4322 28.4423C25.7988 29.0575 27.2812 29.3734 28.7798 29.3686C32.8933 29.3686 36.4571 27.0332 38.1409 23.6537C38.2038 24.0581 38.2363 24.4712 38.2363 24.893ZM34.3169 12.7932C36.2544 14.3327 37.4904 16.6595 37.4904 19.2616C37.4904 23.889 33.584 27.6523 28.7798 27.6523C26.5365 27.6603 24.3734 26.8176 22.7267 25.2941C23.2233 25.3646 23.7296 25.4014 24.2446 25.4014C29.9768 25.4014 34.64 20.8694 34.64 15.2966C34.64 14.4325 34.5272 13.5944 34.3169 12.7932ZM32.9551 15.2955C32.9551 19.9218 29.0487 23.6851 24.2457 23.6851C23.787 23.6851 23.3382 23.6515 22.8991 23.5843C25.9587 21.8246 28.0166 18.585 28.0166 14.8846C28.0166 11.6461 26.4401 8.76207 23.9974 6.91132C24.0798 6.90915 24.1622 6.90482 24.2457 6.90482C29.0487 6.90482 32.9551 10.6692 32.9551 15.2955ZM26.3306 14.8835C26.3306 19.5098 22.4242 23.2731 17.6211 23.2731C12.8116 23.2731 8.89867 19.5109 8.89867 14.8846C8.89867 10.2583 12.8116 6.49282 17.6211 6.49282C22.4242 6.49282 26.3317 10.2583 26.3317 14.8846L26.3306 14.8835ZM13.2648 24.0581C10.7017 25.2106 8.70026 27.3454 7.77543 29.9649V18.147C8.69809 20.7675 10.7006 22.9056 13.2648 24.0581ZM15.2576 25.1608C13.2984 26.9996 12.0765 29.5746 12.0765 32.425C12.0765 36.494 14.568 40.0058 18.1459 41.6082C17.9724 41.6169 17.7979 41.6234 17.6222 41.6234C12.8127 41.6234 8.89975 37.8601 8.89975 33.2327C8.89975 29.3946 11.594 26.1539 15.2576 25.1608ZM13.7614 32.425C13.7614 29.4434 15.3877 26.8218 17.8326 25.3342C17.0477 26.7737 16.6368 28.3872 16.6378 30.0267C16.6378 35.2667 20.7675 39.5873 26.0314 40.0838C24.9472 40.5522 23.7469 40.8146 22.4838 40.8146C17.6743 40.8146 13.7603 37.0513 13.7603 32.425H13.7614ZM27.044 38.4152C22.2345 38.4152 18.3215 34.653 18.3215 30.0267C18.3215 28.6953 18.649 27.4365 19.2269 26.3176C19.9424 31.2172 24.288 34.9989 29.5269 34.9989C31.4453 35.0021 33.3284 34.4826 34.9739 33.4962C33.6013 36.3953 30.5634 38.4152 27.044 38.4152ZM38.3632 15.3519C37.3603 13.0371 35.4944 11.1593 33.159 10.1011C32.2185 8.59098 30.9049 7.34866 29.3447 6.4939H38.3632V15.3519ZM11.8271 6.4939C9.95093 7.71252 8.5273 9.51405 7.77543 11.6211V6.49282H11.825L11.8271 6.4939ZM7.77434 41.6223V36.4951C8.5258 38.6027 9.94949 40.4047 11.826 41.6234L7.77434 41.6223ZM26.7827 41.6223C27.789 41.1754 28.7184 40.5724 29.5366 39.8355C33.5645 38.8673 36.674 35.6125 37.3158 31.5739C37.7018 31.1488 38.0531 30.6913 38.3632 30.2056V41.6223H26.7827Z" fill="black"/>
<path fill-rule="evenodd" clip-rule="evenodd" d="M15.2207 21.3389C17.2829 21.3389 18.9569 19.7083 18.9569 17.7068C18.9569 15.701 17.2829 14.0747 15.2207 14.0747C13.1553 14.0747 11.4802 15.701 11.4802 17.7068C11.4802 19.7083 13.1553 21.3389 15.2207 21.3389ZM60.7944 43.3072H64.0189V4.85674H60.7944V43.3072ZM93.2763 42.9906C94.9904 42.3184 96.3815 41.4543 97.4505 40.3961C98.5173 39.3401 99.272 38.1691 99.7122 36.88C100.153 35.593 100.374 34.3353 100.374 33.1048C100.374 31.2985 100.054 29.7903 99.4129 28.5793C98.7815 27.3814 97.9044 26.3303 96.839 25.4947C95.7329 24.6321 94.5025 23.9423 93.1895 23.4488C91.8218 22.9272 90.4352 22.4563 89.0327 22.0371C87.6189 21.6143 86.2408 21.2012 84.9018 20.7979C83.6572 20.4315 82.4464 19.9589 81.2827 19.3852C80.2072 18.8474 79.3496 18.1752 78.7088 17.3674C78.067 16.5608 77.7471 15.5427 77.7471 14.3121C77.7367 13.3198 77.9698 12.3399 78.4258 11.4585C78.8849 10.5875 79.5208 9.82193 80.2929 9.21093C81.0843 8.57667 82.0168 8.08661 83.0934 7.74074C84.1678 7.39488 85.3268 7.22249 86.5715 7.22249C88.7226 7.22249 90.7197 7.6063 92.5683 8.37501C94.4158 9.14479 96.0193 10.3732 97.3768 12.0646L99.5257 9.64245C98.0601 7.91817 96.2225 6.54879 94.1512 5.63737C92.0392 4.69628 89.5694 4.22465 86.7417 4.22465C85.0439 4.22465 83.4403 4.46534 81.9333 4.94565C80.4251 5.42704 79.1013 6.10792 77.9607 6.99155C76.8374 7.85545 75.9198 8.95785 75.274 10.2192C74.6213 11.4878 74.2961 12.9103 74.2961 14.4856C74.2961 16.7148 74.8523 18.4733 75.9658 19.7592C77.0771 21.0494 78.4735 22.0762 80.1508 22.8438C81.9069 23.6402 83.7348 24.2676 85.6098 24.7173C87.4648 25.1653 89.2887 25.7336 91.0699 26.4184C92.7461 27.0722 94.1426 27.9168 95.255 28.9544C96.3674 29.9909 96.9246 31.4524 96.9246 33.3357C96.9246 34.1424 96.7729 34.9978 96.4704 35.8999C96.169 36.803 95.6312 37.6303 94.8592 38.3794C94.0851 39.1276 93.0583 39.7531 91.7757 40.2519C90.4942 40.7528 88.8917 41.0022 86.9673 41.0022C85.6098 41.0022 84.3565 40.8493 83.2061 40.5403C82.0893 40.2462 81.008 39.8307 79.9817 39.301C79.0216 38.8086 78.1204 38.2092 77.295 37.5142C76.5365 36.8766 75.8362 36.1727 75.2025 35.4109L73.1089 37.8894C74.5411 39.6957 76.4179 41.1659 78.737 42.2989C81.0561 43.4319 83.7808 44 86.912 44C89.4382 44 91.5589 43.6617 93.2763 42.9906ZM127.905 42.9906C129.621 42.3184 131.012 41.4543 132.079 40.3961C133.148 39.3401 133.902 38.1691 134.343 36.88C134.784 35.593 135.004 34.3353 135.004 33.1048C135.004 31.2985 134.683 29.7903 134.044 28.5793C133.412 27.3814 132.535 26.3303 131.47 25.4947C130.364 24.6324 129.133 23.9426 127.82 23.4488C126.452 22.9272 125.065 22.4563 123.662 22.0371C122.25 21.6143 120.872 21.2012 119.533 20.7979C118.288 20.4316 117.077 19.959 115.914 19.3852C114.838 18.8474 113.979 18.1752 113.339 17.3674C112.697 16.5608 112.378 15.5427 112.378 14.3121C112.367 13.3198 112.6 12.34 113.056 11.4585C113.514 10.5871 114.151 9.82145 114.924 9.21093C115.715 8.57667 116.648 8.08661 117.723 7.74074C118.799 7.39488 119.958 7.22249 121.202 7.22249C123.352 7.22249 125.35 7.6063 127.199 8.37501C129.047 9.14479 130.649 10.3732 132.008 12.0646L134.156 9.64245C132.691 7.91817 130.853 6.54879 128.782 5.63737C126.67 4.69628 124.2 4.22465 121.374 4.22465C119.676 4.22465 118.072 4.46534 116.565 4.94565C115.056 5.42704 113.733 6.10792 112.593 6.99155C111.469 7.85545 110.552 8.95785 109.906 10.2192C109.253 11.4878 108.928 12.9103 108.928 14.4856C108.928 16.7148 109.484 18.4733 110.598 19.7592C111.709 21.0494 113.105 22.0762 114.783 22.8438C116.539 23.6402 118.367 24.2676 120.242 24.7173C122.096 25.1653 123.919 25.7336 125.7 26.4184C127.378 27.0722 128.773 27.9168 129.887 28.9544C130.998 29.9909 131.555 31.4524 131.555 33.3357C131.555 34.1424 131.404 34.9978 131.102 35.8999C130.8 36.803 130.263 37.6303 129.491 38.3794C128.717 39.1276 127.69 39.7531 126.407 40.2519C125.125 40.7528 123.523 41.0022 121.599 41.0022C120.242 41.0022 118.987 40.8493 117.838 40.5403C116.721 40.2465 115.64 39.831 114.614 39.301C113.653 38.8084 112.751 38.209 111.925 37.5142C111.167 36.8763 110.467 36.1724 109.833 35.4109L107.741 37.8894C109.172 39.6957 111.05 41.1659 113.368 42.2989C115.688 43.4319 118.413 44 121.543 44C124.069 44 126.19 43.6617 127.906 42.9906H127.905ZM169.652 42.1558C171.877 40.9252 173.837 39.2544 175.535 37.1391L172.819 35.4109C171.613 37.1022 170.038 38.4575 168.095 39.4745C166.155 40.4937 164.051 41.0022 161.789 41.0022C159.564 41.0022 157.499 40.5891 155.595 39.7629C153.714 38.9532 152.02 37.7661 150.617 36.275C149.202 34.7766 148.09 32.9996 147.279 30.9429C146.469 28.8883 146.063 26.6114 146.063 24.1123C146.063 21.6143 146.469 19.3266 147.279 17.2525C148.09 15.1773 149.202 13.4003 150.617 11.9204C152.027 10.4443 153.72 9.26799 155.595 8.46174C157.499 7.63557 159.564 7.22249 161.789 7.22249C164.052 7.22249 166.154 7.73207 168.095 8.75014C170.038 9.7693 171.613 11.1235 172.819 12.8138L175.535 11.027C173.957 8.9892 171.973 7.30124 169.709 6.06997C167.446 4.84048 164.807 4.22465 161.789 4.22465C159.111 4.22465 156.614 4.70604 154.295 5.66665C152.015 6.60042 149.945 7.98224 148.209 9.73027C146.471 11.4791 145.105 13.5738 144.107 16.0133C143.11 18.4527 142.612 21.1535 142.612 24.1123C142.612 27.0722 143.111 29.7719 144.108 32.2114C145.105 34.6519 146.471 36.7466 148.209 38.4944C149.945 40.2427 152.015 41.6248 154.295 42.5591C156.614 43.5186 159.111 44 161.789 44C164.806 44 167.427 43.3863 169.652 42.1558ZM209.894 43.3083L199.01 27.1676C200.382 27.1341 201.737 26.8505 203.007 26.3306C204.248 25.8278 205.383 25.0946 206.352 24.1698C207.315 23.2471 208.08 22.1044 208.647 20.7393C209.214 19.3765 209.498 17.8293 209.498 16.0989C209.498 14.3317 209.205 12.7552 208.62 11.3718C208.035 9.98939 207.221 8.81736 206.182 7.85567C205.121 6.88258 203.878 6.12872 202.525 5.63737C201.126 5.11804 199.613 4.85783 197.989 4.85783H183.873V43.3083H187.097V27.3975H195.413L205.991 43.3083H209.894ZM187.097 24.3996V7.85567H197.676C198.921 7.85567 200.05 8.05842 201.07 8.46174C202.053 8.84307 202.949 9.42203 203.7 10.1629C204.447 10.9106 205.034 11.8026 205.425 12.7845C205.839 13.8036 206.048 14.9085 206.048 16.0989C206.048 17.3295 205.839 18.4441 205.425 19.4437C205.025 20.421 204.439 21.3116 203.701 22.0664C202.956 22.8219 202.059 23.4112 201.07 23.7957C200.05 24.1991 198.921 24.3996 197.676 24.3996H187.097ZM231.09 42.7857V36.5764H238.008V35.065H231.09V30.674H238.146V29.1604H229.437V42.7857H231.09ZM250.633 42.5005C251.425 42.1603 252.135 41.6554 252.717 41.0195C253.306 40.3677 253.762 39.6077 254.061 38.7817C254.388 37.8856 254.55 36.9381 254.541 35.9844C254.541 34.9761 254.381 34.0437 254.063 33.185C253.763 32.3594 253.306 31.5997 252.717 30.9483C252.135 30.3129 251.425 29.8081 250.633 29.4672C249.823 29.1138 248.927 28.9371 247.942 28.9371C246.959 28.9371 246.062 29.1138 245.252 29.4683C244.462 29.8091 243.752 30.3135 243.171 30.9483C242.581 31.5992 242.123 32.3589 241.824 33.185C241.498 34.082 241.336 35.0301 241.345 35.9844C241.345 36.9927 241.505 37.9252 241.824 38.7817C242.143 39.6404 242.591 40.3863 243.169 41.0195C243.751 41.6552 244.46 42.16 245.251 42.5005C246.062 42.854 246.959 43.0318 247.942 43.0318C248.927 43.0318 249.823 42.854 250.633 42.5005ZM245.92 41.1019C245.326 40.8308 244.799 40.4325 244.375 39.9353C243.939 39.4195 243.607 38.8237 243.399 38.181C243.168 37.4721 243.053 36.7302 243.06 35.9844C243.06 35.194 243.173 34.4589 243.398 33.7781C243.604 33.1334 243.936 32.5363 244.375 32.0216C244.801 31.5304 245.328 31.1366 245.92 30.867C246.556 30.582 247.246 30.4392 247.942 30.4484C248.687 30.4484 249.358 30.5894 249.957 30.867C250.544 31.1387 251.067 31.5319 251.492 32.0206C251.916 32.5117 252.245 33.0961 252.479 33.777C252.709 34.4589 252.825 35.194 252.825 35.9844C252.825 36.7737 252.709 37.5056 252.479 38.181C252.263 38.8229 251.929 39.4181 251.492 39.9353C251.07 40.4299 250.546 40.8275 249.957 41.1008C249.358 41.3805 248.687 41.5193 247.942 41.5193C247.198 41.5193 246.525 41.3816 245.92 41.1019ZM268.222 42.7857L264.634 37.228C265.085 37.1874 265.527 37.07 265.939 36.8811C266.353 36.6943 266.728 36.4309 267.045 36.1048C267.365 35.7773 267.617 35.3762 267.804 34.9002C267.988 34.4232 268.082 33.8789 268.082 33.2663C268.091 32.6868 267.987 32.1111 267.775 31.5717C267.579 31.0839 267.283 30.6423 266.907 30.275C266.53 29.9112 266.082 29.6295 265.591 29.4477C265.055 29.2511 264.488 29.1537 263.917 29.1604H258.574V42.7857H260.23V37.3733H262.88L266.269 42.7857H268.222ZM260.23 35.8619V30.674H263.717C264.515 30.674 265.155 30.9103 265.641 31.3841C266.125 31.8601 266.367 32.4835 266.367 33.2566C266.367 34.0307 266.125 34.6584 265.641 35.1387C265.155 35.6212 264.515 35.8619 263.717 35.8619H260.23ZM285.403 42.6838C286.027 42.4528 286.535 42.1503 286.928 41.7741C287.319 41.4001 287.602 40.9718 287.775 40.4882C287.947 40.0047 288.034 39.5179 288.034 39.0278C288.034 38.387 287.921 37.8493 287.696 37.4145C287.478 36.9898 287.176 36.6141 286.808 36.3108C286.429 36.0038 286.006 35.7559 285.552 35.5757C285.081 35.3849 284.595 35.2179 284.097 35.0748C283.599 34.9317 283.114 34.7961 282.642 34.666C282.211 34.5522 281.79 34.3987 281.387 34.2074C281.053 34.0544 280.753 33.8391 280.5 33.5731C280.272 33.3292 280.161 33.0148 280.161 32.6331C280.161 31.9804 280.416 31.4568 280.928 31.061C281.439 30.6664 282.095 30.469 282.891 30.469C283.622 30.469 284.32 30.5992 284.984 30.8572C285.661 31.1246 286.263 31.5525 286.737 32.104L287.735 30.8572C287.177 30.2438 286.49 29.7623 285.723 29.4477C284.939 29.1203 284.034 28.9566 283.012 28.9566C282.36 28.9566 281.754 29.0487 281.197 29.233C280.64 29.4163 280.158 29.6754 279.752 30.0093C279.353 30.3351 279.027 30.742 278.797 31.2031C278.561 31.679 278.441 32.204 278.448 32.7351C278.448 33.3487 278.56 33.8594 278.786 34.267C279.012 34.6758 279.307 35.0206 279.673 35.3003C280.038 35.5779 280.457 35.8066 280.928 35.9833C281.4 36.1612 281.886 36.3216 282.384 36.4636C282.883 36.6068 283.367 36.7434 283.838 36.8724C284.309 37.0025 284.727 37.1651 285.094 37.3635C285.436 37.5417 285.738 37.7882 285.981 38.0878C286.206 38.3729 286.32 38.734 286.32 39.1698C286.32 39.43 286.267 39.6989 286.161 39.9776C286.048 40.266 285.87 40.5246 285.641 40.7333C285.403 40.9577 285.084 41.1453 284.685 41.2949C284.286 41.4445 283.788 41.5193 283.191 41.5193C282.747 41.5226 282.305 41.4679 281.875 41.3567C281.463 41.2461 281.081 41.1041 280.729 40.9263C280.384 40.7551 280.06 40.5464 279.762 40.3039C279.489 40.0844 279.236 39.8417 279.005 39.5786L278.029 40.8666C278.612 41.525 279.324 42.0565 280.122 42.4279C280.957 42.8291 281.961 43.0318 283.131 43.0318C284.02 43.0318 284.778 42.9136 285.403 42.6838ZM296.934 42.7857V30.674H301.16V29.1604H291.073V30.674H295.28V42.7857H296.934ZM313.373 42.7857V41.2754H306.317V36.5775H313.234V35.0661H306.317V30.6751H313.373V29.1615H304.663V42.7868L313.373 42.7857ZM330.482 42.7857V29.1604H328.112L323.965 39.416L319.839 29.1604H317.468V42.7857H319.122V31.5717L323.627 42.7857H324.304L328.829 31.5717V42.7857H330.483H330.482ZM351.022 42.2653C351.83 41.7634 352.531 41.1077 353.086 40.3354L351.67 39.5385C351.276 40.131 350.747 40.6213 350.126 40.9685C349.486 41.3345 348.761 41.5246 348.023 41.5193C347.324 41.5265 346.632 41.3873 345.99 41.1106C345.375 40.8456 344.822 40.4565 344.365 39.9678C343.896 39.4581 343.53 38.8614 343.289 38.2114C343.024 37.4992 342.892 36.7443 342.901 35.9844C342.901 35.1669 343.03 34.421 343.289 33.7477C343.549 33.0733 343.907 32.4911 344.365 32.0021C344.822 31.5124 345.375 31.1226 345.99 30.8572C346.632 30.5811 347.324 30.4419 348.023 30.4484C348.762 30.4433 349.488 30.6373 350.126 31.0101C350.742 31.3591 351.27 31.8446 351.67 32.4293L353.065 31.6324C352.798 31.2501 352.495 30.8946 352.16 30.571C351.816 30.2406 351.434 29.9524 351.021 29.7123C350.591 29.4621 350.129 29.27 349.648 29.1409C349.118 29.001 348.572 28.9325 348.023 28.9371C347.066 28.9371 346.173 29.1073 345.342 29.4477C344.529 29.7768 343.79 30.2665 343.169 30.8876C342.54 31.5244 342.045 32.2814 341.714 33.1134C341.363 33.9797 341.185 34.9349 341.185 35.9844C341.185 37.0329 341.363 37.9902 341.714 38.8543C342.045 39.6866 342.54 40.4437 343.171 41.0802C343.791 41.7015 344.53 42.1915 345.343 42.5211C346.174 42.8605 347.067 43.0318 348.025 43.0318C349.206 43.0318 350.206 42.7759 351.023 42.2653H351.022ZM365.358 42.7857V41.2754H358.302V36.5775H365.219V35.0661H358.302V30.6751H365.358V29.1615H356.647V42.7868L365.358 42.7857ZM377.284 42.7857V41.2754H371.105V29.1604H369.452V42.7857H377.284ZM388.69 42.7857V41.2754H382.51V29.1604H380.857V42.7857H388.69ZM408.801 42.7857L405.212 37.228C405.665 37.1875 406.107 37.0701 406.52 36.8811C406.934 36.6942 407.309 36.4308 407.626 36.1048C407.943 35.7773 408.197 35.3762 408.384 34.9002C408.568 34.4232 408.661 33.8789 408.661 33.2663C408.661 32.6396 408.558 32.0758 408.352 31.5717C408.157 31.0838 407.862 30.6421 407.486 30.275C407.109 29.9113 406.661 29.6296 406.17 29.4477C405.634 29.2511 405.066 29.1537 404.496 29.1604H399.154V42.7857H400.808V37.3733H403.459L406.847 42.7857H408.801ZM400.808 35.8619V30.674H404.297C405.094 30.674 405.735 30.9103 406.221 31.3841C406.704 31.8601 406.947 32.4835 406.947 33.2566C406.947 34.0307 406.704 34.6584 406.221 35.1387C405.735 35.6212 405.094 35.8619 404.297 35.8619H400.808ZM421.445 42.7857V41.2754H414.39V36.5775H421.305V35.0661H414.39V30.6751H421.445V29.1615H412.735V42.7868L421.445 42.7857ZM432.121 42.6838C432.746 42.4528 433.254 42.1503 433.646 41.7741C434.026 41.4184 434.316 40.9777 434.492 40.4882C434.666 40.0047 434.753 39.5179 434.753 39.0278C434.753 38.387 434.639 37.8493 434.413 37.4145C434.196 36.9899 433.894 36.6143 433.525 36.3108C433.147 36.0038 432.724 35.756 432.271 35.5757C431.798 35.3849 431.314 35.2179 430.816 35.0748C430.317 34.9317 429.833 34.7961 429.36 34.666C428.928 34.552 428.508 34.3985 428.104 34.2074C427.771 34.0544 427.47 33.8391 427.217 33.5731C426.991 33.3292 426.878 33.0148 426.878 32.6331C426.878 31.9804 427.135 31.4568 427.646 31.061C428.157 30.6664 428.812 30.469 429.61 30.469C430.34 30.469 431.038 30.5992 431.703 30.8572C432.38 31.1246 432.981 31.5525 433.456 32.104L434.453 30.8572C433.895 30.2436 433.208 29.7621 432.44 29.4477C431.656 29.1203 430.752 28.9566 429.73 28.9566C429.078 28.9566 428.472 29.0487 427.916 29.233C427.39 29.3992 426.899 29.6625 426.47 30.0093C426.071 30.3353 425.745 30.7421 425.514 31.2031C425.278 31.679 425.159 32.204 425.165 32.7351C425.165 33.3487 425.278 33.8594 425.503 34.267C425.73 34.6758 426.025 35.0206 426.391 35.3003C426.757 35.5779 427.175 35.8066 427.646 35.9833C428.118 36.1612 428.604 36.3216 429.102 36.4636C429.601 36.6068 430.084 36.7434 430.556 36.8724C431.027 37.0025 431.446 37.1651 431.811 37.3635C432.177 37.5598 432.473 37.8016 432.698 38.0878C432.925 38.3729 433.039 38.734 433.039 39.1698C433.039 39.43 432.984 39.6989 432.878 39.9776C432.772 40.2573 432.599 40.5088 432.361 40.7333C432.121 40.9577 431.802 41.1453 431.404 41.2949C431.005 41.4445 430.507 41.5193 429.909 41.5193C429.442 41.5193 429.004 41.4651 428.592 41.3567C428.18 41.2461 427.799 41.1041 427.446 40.9263C427.102 40.7549 426.778 40.5462 426.48 40.3039C426.207 40.0845 425.954 39.8418 425.722 39.5786L424.747 40.8666C425.33 41.5251 426.042 42.0565 426.839 42.4279C427.675 42.8291 428.679 43.0318 429.849 43.0318C430.739 43.0318 431.496 42.9136 432.121 42.6838ZM447.43 42.7857V41.2754H440.374V36.5775H447.288V35.0661H440.374V30.6751H447.43V29.1615H438.721V42.7868L447.43 42.7857ZM463.232 42.7857L457.871 29.1604H455.818L450.475 42.7857H452.369L453.544 39.764H460.161L461.341 42.7857H463.232ZM459.667 38.2504H454.022L456.855 30.9179L459.667 38.2504ZM476.161 42.7857L472.574 37.228C473.026 37.1875 473.467 37.0701 473.879 36.8811C474.293 36.694 474.668 36.4306 474.985 36.1048C475.303 35.7773 475.554 35.3762 475.743 34.9002C475.928 34.4232 476.019 33.8789 476.019 33.2663C476.019 32.6396 475.919 32.0758 475.713 31.5717C475.518 31.0845 475.223 30.6437 474.847 30.2778C474.471 29.9119 474.022 29.6291 473.53 29.4477C472.994 29.251 472.426 29.1536 471.855 29.1604H466.513V42.7857H468.169V37.3733H470.818L474.206 42.7857H476.161ZM468.17 35.8619V30.674H471.657C472.454 30.674 473.095 30.9103 473.577 31.3841C474.064 31.8601 474.309 32.4835 474.309 33.2566C474.309 34.0307 474.064 34.6584 473.577 35.1387C473.095 35.6212 472.454 35.8619 471.657 35.8619H468.17ZM489.202 42.2653C490.009 41.7631 490.709 41.1074 491.264 40.3354L489.851 39.5385C489.464 40.1239 488.947 40.5999 488.306 40.9685C487.665 41.3345 486.939 41.5245 486.201 41.5193C485.502 41.526 484.81 41.3868 484.169 41.1106C483.555 40.8461 483.002 40.457 482.546 39.9678C482.075 39.4591 481.709 38.8621 481.469 38.2114C481.205 37.499 481.073 36.7442 481.081 35.9844C481.081 35.1669 481.211 34.421 481.469 33.7477C481.71 33.1009 482.076 32.5078 482.546 32.0021C483.001 31.5099 483.543 31.1293 484.169 30.8572C484.81 30.5816 485.502 30.4424 486.201 30.4484C486.959 30.4484 487.66 30.636 488.306 31.0101C488.922 31.3604 489.45 31.8456 489.851 32.4293L491.247 31.6324C490.979 31.2498 490.675 30.8943 490.338 30.571C489.994 30.2411 489.613 29.9529 489.202 29.7123C488.771 29.4624 488.309 29.2703 487.828 29.1409C487.297 29.0009 486.749 28.9323 486.2 28.9371C485.243 28.9371 484.352 29.1073 483.522 29.4477C482.708 29.777 481.968 30.2667 481.348 30.8876C480.718 31.5243 480.223 32.2813 479.892 33.1134C479.539 33.9797 479.363 34.9349 479.363 35.9844C479.363 37.0329 479.539 37.9902 479.892 38.8543C480.245 39.7184 480.727 40.4611 481.348 41.0802C481.969 41.7013 482.708 42.1913 483.522 42.5211C484.372 42.865 485.282 43.0385 486.2 43.0318C487.384 43.0318 488.383 42.7759 489.202 42.2653ZM505.911 42.7857V29.1604H504.253V35.0238H496.482V29.1604H494.829V42.7857H496.482V36.5352H504.253V42.7857H505.911ZM229.437 17.851H231.088V4.22573H229.437V17.851ZM246.767 17.8488V4.22573H245.116V14.8683L237.471 4.22573H235.778V17.8488H237.431V6.98288L245.174 17.8488H246.768H246.767ZM256.119 17.8488V5.73712H260.339V4.22573H250.267V5.73712H254.467V17.8488H256.119ZM272.538 17.8488V16.3385H265.49V11.6396H272.397V10.1282H265.49V5.73712H272.538V4.22573H263.838V17.8488H272.538ZM286.26 17.8488L282.678 12.2912C283.129 12.2507 283.57 12.1334 283.981 11.9442C284.395 11.7568 284.77 11.4935 285.087 11.1679C285.404 10.8427 285.656 10.4393 285.843 9.96337C286.028 9.48741 286.122 8.94313 286.122 8.33055C286.122 7.70388 286.017 7.13792 285.813 6.63485C285.617 6.14718 285.322 5.70557 284.946 5.33813C284.57 4.97503 284.123 4.69341 283.633 4.51088C283.098 4.31485 282.531 4.21822 281.96 4.22573H276.626V17.8488H278.278V12.4354H280.925L284.309 17.8488H286.26ZM278.278 10.9251V5.73712H281.762C282.558 5.73712 283.197 5.97348 283.682 6.44945C284.167 6.92325 284.409 7.54667 284.409 8.31971C284.409 9.09384 284.167 9.72159 283.682 10.2019C283.197 10.6844 282.558 10.9251 281.762 10.9251H278.278ZM301.177 17.8488V4.22573H299.526V14.8683L291.882 4.22573H290.191V17.8488H291.842V6.98288L299.585 17.8488H301.178H301.177ZM317.195 17.8488L311.839 4.22573H309.79L304.456 17.8488H306.346L307.521 14.8261H314.129L315.304 17.8488H317.195ZM313.631 13.3158H307.998L310.824 5.98215L313.631 13.3158ZM323.721 17.8488V5.73712H327.942V4.22573H317.869V5.73712H322.07V17.8488H323.721ZM331.44 17.851H333.093V4.22573H331.442L331.44 17.851ZM346.457 17.5637C347.247 17.2231 347.956 16.7182 348.536 16.0827C349.125 15.4309 349.581 14.6713 349.881 13.8459C350.199 12.9883 350.358 12.0559 350.358 11.0476C350.358 10.0393 350.199 9.10685 349.881 8.24924C349.581 7.42383 349.125 6.66426 348.536 6.01251C347.956 5.37666 347.247 4.87177 346.456 4.53148C345.647 4.17803 344.751 4.00022 343.768 4.00022C342.787 4.00022 341.89 4.17803 341.081 4.53148C340.291 4.87182 339.582 5.37671 339.002 6.01251C338.413 6.6637 337.957 7.42344 337.658 8.24924C337.333 9.14549 337.17 10.0929 337.179 11.0465C337.179 12.0548 337.34 12.9872 337.658 13.8459C337.957 14.6718 338.414 15.4316 339.003 16.0827C339.583 16.7182 340.291 17.223 341.081 17.5637C341.89 17.9171 342.787 18.095 343.768 18.095C344.751 18.095 345.647 17.9171 346.457 17.5637ZM341.748 16.1651C341.155 15.8944 340.628 15.4969 340.205 15.0006C339.769 14.4839 339.438 13.8874 339.229 13.2442C338.998 12.5352 338.884 11.7933 338.891 11.0476C338.891 10.2572 339.004 9.52318 339.231 8.8423C339.435 8.19764 339.767 7.60046 340.206 7.08588C340.631 6.59453 341.157 6.20067 341.748 5.9312C342.383 5.64507 343.072 5.50184 343.768 5.51161C344.512 5.51161 345.183 5.65255 345.779 5.9312C346.377 6.20984 346.887 6.59473 347.312 7.0848C347.737 7.57486 348.066 8.16142 348.298 8.84122C348.53 9.52318 348.645 10.2572 348.645 11.0476C348.645 11.838 348.53 12.5698 348.298 13.2442C348.083 13.8865 347.748 14.4824 347.312 15.0006C346.891 15.4944 346.368 15.8913 345.779 16.164C345.183 16.4437 344.511 16.5836 343.768 16.5836C343.072 16.5932 342.383 16.4499 341.748 16.164V16.1651ZM365.375 17.8488V4.22573H363.724V14.8683L356.078 4.22573H354.387V17.8488H356.04V6.98288L363.783 17.8488H365.375ZM381.391 17.8488L376.036 4.22573H373.987L368.653 17.8488H370.543L371.717 14.8261H378.326L379.5 17.8488H381.391ZM377.828 13.3158H372.195L375.021 5.98215L377.828 13.3158ZM392.491 17.8488V16.3385H386.322V4.22573H384.669V17.8488H392.491ZM409.51 17.7469C410.135 17.516 410.642 17.2135 411.035 16.8384C411.425 16.4643 411.707 16.036 411.88 15.5514C412.052 15.0689 412.138 14.581 412.138 14.091C412.138 13.4513 412.026 12.9135 411.799 12.4777C411.583 12.0532 411.282 11.6778 410.914 11.375C410.536 11.0675 410.113 10.8192 409.66 10.6388C409.189 10.448 408.706 10.281 408.207 10.1379C407.723 9.99969 407.239 9.86344 406.754 9.72918C406.323 9.61538 405.903 9.46185 405.5 9.27056C405.168 9.11716 404.867 8.90232 404.615 8.63738C404.387 8.39235 404.276 8.07793 404.276 7.69846C404.276 7.0436 404.531 6.51992 405.042 6.12418C405.553 5.72953 406.207 5.53221 407.003 5.53221C407.732 5.53221 408.428 5.66231 409.093 5.92035C409.756 6.17948 410.34 6.59473 410.845 7.1672L411.84 5.92035C411.282 5.30723 410.595 4.82578 409.829 4.51088C409.047 4.18453 408.144 4.0219 407.122 4.0219C406.472 4.0219 405.868 4.11297 405.311 4.29837C404.754 4.48269 404.271 4.74073 403.869 5.07358C403.469 5.39961 403.142 5.80684 402.911 6.26838C402.675 6.74449 402.556 7.26942 402.562 7.80037C402.562 8.41295 402.674 8.92362 402.901 9.33236C403.126 9.74003 403.421 10.0848 403.787 10.3624C404.151 10.6432 404.569 10.8719 405.041 11.0476C405.512 11.2254 405.995 11.3837 406.494 11.5279C406.992 11.6699 407.476 11.8065 407.947 11.9366C408.418 12.0657 408.836 12.2294 409.201 12.4267C409.567 12.6229 409.861 12.8658 410.088 13.151C410.312 13.4383 410.425 13.7982 410.425 14.2352C410.425 14.4932 410.372 14.7621 410.267 15.0407C410.16 15.3205 409.988 15.572 409.749 15.7964C409.51 16.0219 409.191 16.2084 408.795 16.3591C408.396 16.5077 407.898 16.5836 407.301 16.5836C406.834 16.5836 406.397 16.5294 405.986 16.4188C405.576 16.3103 405.193 16.1672 404.843 15.9916C404.498 15.8193 404.174 15.6099 403.876 15.3671C403.604 15.1475 403.351 14.9052 403.121 14.6428L402.144 15.9298C402.726 16.588 403.438 17.1194 404.234 17.491C405.071 17.8944 406.073 18.095 407.241 18.095C408.129 18.095 408.886 17.9789 409.509 17.748L409.51 17.7469ZM424.657 17.5637C425.447 17.223 426.156 16.7181 426.736 16.0827C427.324 15.4311 427.781 14.6715 428.079 13.8459C428.405 12.9492 428.567 12.0014 428.558 11.0476C428.558 10.0393 428.398 9.10685 428.079 8.24924C427.78 7.4236 427.324 6.66394 426.735 6.01251C426.155 5.37701 425.447 4.87215 424.657 4.53148C423.848 4.17803 422.952 4.00022 421.97 4.00022C420.986 4.00022 420.091 4.17803 419.282 4.53148C418.491 4.87184 417.781 5.37671 417.2 6.01251C416.613 6.66445 416.157 7.424 415.858 8.24924C415.533 9.14561 415.371 10.093 415.38 11.0465C415.38 12.0548 415.539 12.9872 415.857 13.8459C416.157 14.6713 416.613 15.4309 417.202 16.0827C417.782 16.7182 418.491 17.223 419.282 17.5637C420.091 17.9171 420.986 18.095 421.97 18.095C422.952 18.095 423.848 17.9171 424.657 17.5637ZM419.948 16.1651C419.355 15.8944 418.828 15.4969 418.405 15.0006C417.98 14.503 417.656 13.9164 417.429 13.2442C417.199 12.535 417.085 11.7932 417.092 11.0476C417.092 10.2572 417.204 9.52318 417.428 8.8423C417.634 8.19771 417.966 7.6006 418.405 7.08588C418.83 6.59441 419.356 6.20054 419.948 5.9312C420.551 5.65147 421.224 5.51161 421.969 5.51161C422.712 5.51161 423.383 5.65255 423.979 5.9312C424.575 6.20984 425.087 6.59473 425.511 7.0848C425.937 7.57486 426.264 8.16142 426.498 8.84122C426.73 9.52318 426.845 10.2572 426.845 11.0476C426.845 11.838 426.73 12.5698 426.498 13.2442C426.283 13.8868 425.948 14.4828 425.511 15.0006C425.09 15.4946 424.568 15.8915 423.979 16.164C423.383 16.4437 422.71 16.5836 421.969 16.5836C421.224 16.5836 420.551 16.4426 419.948 16.164V16.1651ZM441.813 17.3284C442.621 16.828 443.321 16.172 443.873 15.3985L442.458 14.6016C442.076 15.1871 441.558 15.6642 440.919 16.0317C440.274 16.4003 439.573 16.5836 438.815 16.5836C438.118 16.5899 437.427 16.4507 436.787 16.1748C436.173 15.9095 435.621 15.5201 435.165 15.031C434.695 14.5214 434.329 13.9247 434.089 13.2746C433.825 12.5621 433.694 11.8074 433.701 11.0476C433.701 10.2312 433.831 9.48524 434.089 8.81086C434.349 8.13648 434.706 7.55426 435.165 7.06528C435.622 6.57413 436.162 6.19249 436.787 5.92035C437.427 5.64431 438.119 5.50509 438.816 5.51161C439.573 5.51161 440.274 5.69917 440.919 6.07323C441.558 6.44836 442.076 6.92108 442.458 7.49354L443.856 6.69773C443.589 6.31482 443.285 5.95895 442.948 5.63521C442.605 5.30537 442.224 5.01715 441.813 4.77651C441.383 4.52689 440.922 4.33479 440.442 4.20513C439.911 4.06453 439.364 3.99562 438.815 4.00022C437.861 4.00022 436.972 4.17044 436.141 4.51088C435.327 4.83969 434.589 5.32943 433.97 5.95071C433.341 6.58808 432.847 7.34543 432.517 8.17768C432.165 9.04288 431.989 9.99915 431.989 11.0476C431.989 12.0971 432.165 13.0534 432.516 13.9175C432.846 14.7498 433.341 15.5071 433.97 16.1445C434.589 16.7655 435.328 17.2552 436.141 17.5843C436.99 17.9286 437.9 18.1021 438.816 18.095C439.998 18.095 440.996 17.8391 441.813 17.3284ZM447.42 17.851H449.071V4.22573H447.42V17.851ZM462.461 17.8488V16.3385H455.413V11.6396H462.319V10.1282H455.412V5.73712H462.46V4.22573H453.762V17.8488H462.461ZM471.576 17.8488V5.73712H475.799V4.22573H465.724V5.73712H469.924V17.8488H471.576ZM485.515 17.8488V12.0895L490.732 4.22573H488.802L484.682 10.5575L480.559 4.22573H478.629L483.865 12.0895V17.8488H485.515Z" fill="black"/>
</svg>
