<svg width="208" height="48" viewBox="0 0 208 48" fill="none" xmlns="http://www.w3.org/2000/svg">
<path d="M27.8966 4C22.6013 4.01344 17.5275 6.1264 13.7879 9.8755C10.0483 13.6246 7.94823 18.7038 7.94824 23.9991V26.1806C18.9315 24.526 27.1795 15.3205 27.8966 4Z" fill="#00ADEE"/>
<path d="M7.94824 31.1785V44C10.5748 44 13.1756 43.4827 15.6023 42.4775C18.0289 41.4724 20.2338 39.9991 22.091 38.1419C23.9483 36.2846 25.4215 34.0797 26.4267 31.6531C27.4318 29.2265 27.9492 26.6256 27.9492 23.9991V19.7039C25.5424 22.8468 22.5347 25.4799 19.101 27.4498C15.6674 29.4197 11.8763 30.6872 7.94824 31.1785Z" fill="#00ADEE"/>
<path d="M53.873 26.1806V23.9991C53.873 18.7038 51.7729 13.6246 48.0334 9.8755C44.2938 6.1264 39.22 4.01344 33.9247 4C34.6408 15.3205 42.8897 24.526 53.873 26.1806Z" fill="#1877F9"/>
<path d="M33.8721 19.7039V23.9991C33.8721 26.6256 34.3894 29.2265 35.3946 31.6531C36.3997 34.0797 37.873 36.2846 39.7302 38.1419C41.5875 39.9991 43.7923 41.4724 46.219 42.4775C48.6456 43.4827 51.2464 44 53.873 44V31.1785C49.945 30.6872 46.1539 29.4197 42.7202 27.4498C39.2865 25.4799 36.2788 22.8468 33.8721 19.7039Z" fill="#1877F9"/>
<path d="M160.278 13.2221H157.859L157.404 14.9169H155.958L158.229 7.61745H159.951L162.212 14.9169H160.733L160.278 13.2221ZM160.003 12.165L159.063 8.68006L158.141 12.165H160.003Z" fill="black"/>
<path d="M170.361 10.8667V14.9127H169.01V11.078C169.01 10.3799 168.736 10.1796 168.394 10.1796C167.932 10.1796 167.643 10.5077 167.338 11.0254V14.9127H165.986V11.078C165.986 10.3799 165.7 10.1796 165.369 10.1796C164.895 10.1796 164.608 10.5077 164.303 11.0254V14.9127H162.966V9.32464H164.138L164.244 10.0532C164.416 9.78022 164.654 9.55549 164.937 9.40023C165.219 9.24498 165.537 9.16434 165.859 9.16592C166.156 9.15355 166.449 9.23874 166.693 9.40846C166.937 9.57818 167.118 9.8231 167.21 10.1058C167.388 9.81966 167.635 9.58332 167.929 9.41893C168.223 9.25455 168.554 9.16749 168.891 9.16592C169.772 9.16592 170.361 9.81004 170.361 10.8667Z" fill="black"/>
<path d="M176.457 12.5356H172.95C173.056 13.6771 173.583 14.0471 174.323 14.0471C174.828 14.0414 175.316 13.866 175.709 13.5493L176.27 14.3198C175.689 14.8058 174.956 15.0714 174.199 15.07C172.466 15.07 171.537 13.9165 171.537 12.1535C171.537 10.4588 172.435 9.16454 174.019 9.16454C175.602 9.16454 176.484 10.2216 176.484 11.9856C176.49 12.1655 176.468 12.3874 176.457 12.5356ZM175.147 11.5957C175.147 10.6729 174.819 10.1275 174.06 10.1275C173.427 10.1275 173.024 10.5497 172.952 11.6589H175.149L175.147 11.5957Z" fill="black"/>
<path d="M180.991 9.25082L180.761 10.5603C180.598 10.5167 180.431 10.4955 180.263 10.4971C179.588 10.4971 179.238 10.9931 179.031 11.933V14.9127H177.679V9.32465H178.851L178.978 10.4232C179.241 9.62041 179.781 9.17746 180.435 9.17746C180.623 9.17507 180.811 9.19993 180.992 9.25128L180.991 9.25082Z" fill="black"/>
<path d="M183.343 7.31708C183.348 7.48609 183.303 7.65282 183.213 7.79597C183.123 7.93912 182.992 8.05219 182.837 8.12073C182.683 8.18927 182.511 8.21017 182.345 8.18077C182.178 8.15136 182.024 8.07297 181.902 7.95563C181.781 7.83828 181.697 7.6873 181.661 7.52198C181.626 7.35666 181.64 7.18451 181.703 7.02751C181.766 6.87051 181.874 6.73581 182.014 6.6406C182.154 6.54539 182.319 6.494 182.488 6.49301C182.599 6.48683 182.71 6.50368 182.815 6.5425C182.919 6.58132 183.015 6.64128 183.095 6.71862C183.175 6.79597 183.238 6.88903 183.281 6.992C183.324 7.09498 183.345 7.20564 183.343 7.31708ZM183.173 14.9127H181.822V9.32464H183.173V14.9127Z" fill="black"/>
<path d="M188.849 9.82065L188.246 10.6341C187.927 10.3736 187.528 10.2315 187.115 10.2318C186.334 10.2318 185.858 10.8034 185.858 12.1452C185.858 13.487 186.356 13.971 187.115 13.971C187.525 13.9608 187.921 13.8206 188.246 13.5705L188.849 14.4255C188.343 14.8505 187.702 15.0797 187.042 15.0714C185.427 15.0714 184.423 13.9511 184.423 12.1646C184.423 10.378 185.426 9.16546 187.031 9.16546C187.699 9.14258 188.35 9.37715 188.849 9.82065Z" fill="black"/>
<path d="M194.295 14.1514L194.01 15.0497C193.745 15.0613 193.483 14.9888 193.262 14.8427C193.04 14.6966 192.871 14.4844 192.777 14.2363C192.592 14.5073 192.34 14.7264 192.046 14.8726C191.752 15.0187 191.426 15.0872 191.098 15.0714C190.863 15.0914 190.627 15.0611 190.405 14.9826C190.183 14.9041 189.98 14.7793 189.81 14.6163C189.64 14.4533 189.507 14.256 189.419 14.0375C189.332 13.819 189.291 13.5843 189.302 13.349C189.302 12.1351 190.209 11.4803 191.836 11.4803H192.545V11.1629C192.545 10.4343 192.217 10.1907 191.499 10.1907C190.99 10.2149 190.488 10.3146 190.009 10.4865L189.701 9.56365C190.344 9.31047 191.028 9.17482 191.719 9.16316C193.218 9.16316 193.876 9.85018 193.876 11.0858V13.4307C193.873 13.8879 194.02 14.043 194.295 14.1514ZM192.546 13.4011V12.2716H191.986C191.109 12.2716 190.676 12.5872 190.676 13.2406C190.659 13.3508 190.668 13.4634 190.701 13.5698C190.734 13.6763 190.791 13.7738 190.867 13.8552C190.943 13.9366 191.037 13.9997 191.141 14.0397C191.245 14.0797 191.357 14.0957 191.468 14.0863C191.693 14.0833 191.914 14.0177 192.104 13.8967C192.295 13.7757 192.448 13.6041 192.546 13.4011Z" fill="black"/>
<path d="M200.051 10.8667V14.9104H198.698V11.0757C198.698 10.3776 198.435 10.1773 198.012 10.1773C197.526 10.1773 197.167 10.5054 196.839 11.0231V14.9104H195.488V9.32464H196.66L196.765 10.0532C196.956 9.78087 197.21 9.55824 197.505 9.40389C197.799 9.24954 198.127 9.16795 198.46 9.16592C199.469 9.16592 200.051 9.80081 200.051 10.8667Z" fill="black"/>
<path d="M161.407 21.3954H159.506V27.5842H158.101V21.3954H156.137V20.2881H161.556L161.407 21.3954Z" fill="black"/>
<path d="M166.972 23.54V27.5842H165.619V23.7472C165.619 23.0491 165.345 22.8488 164.933 22.8488C164.682 22.8755 164.443 22.9664 164.237 23.1126C164.032 23.2589 163.868 23.4557 163.761 23.684V27.5833H162.408V19.7685L163.761 19.6301V22.6684C163.948 22.4129 164.192 22.2051 164.475 22.0619C164.757 21.9187 165.069 21.8442 165.386 21.8444C166.372 21.8393 166.972 22.4834 166.972 23.54Z" fill="black"/>
<path d="M173.405 24.7849C173.405 26.5507 172.424 27.743 170.775 27.743C169.127 27.743 168.145 26.6231 168.145 24.7849C168.145 23.0316 169.127 21.8393 170.786 21.8393C172.445 21.8393 173.405 22.9596 173.405 24.7849ZM169.571 24.7849C169.571 26.1267 169.984 26.7186 170.775 26.7186C171.567 26.7186 171.98 26.116 171.98 24.7849C171.98 23.4537 171.567 22.8636 170.786 22.8636C170.005 22.8636 169.571 23.4662 169.571 24.7849Z" fill="black"/>
<path d="M177.967 21.9237L177.737 23.2332C177.575 23.1889 177.408 23.1677 177.241 23.17C176.564 23.17 176.216 23.666 176.008 24.6059V27.5838H174.655V21.998H175.828L175.954 23.0948C176.219 22.2938 176.758 21.849 177.413 21.849C177.6 21.8464 177.787 21.8716 177.967 21.9237Z" fill="black"/>
<path d="M183.09 26.8294L182.805 27.7277C182.54 27.7396 182.278 27.6673 182.056 27.5212C181.835 27.375 181.665 27.1626 181.572 26.9143C181.387 27.1848 181.135 27.4034 180.841 27.5493C180.547 27.6951 180.22 27.7634 179.893 27.7476C179.658 27.7677 179.422 27.7376 179.2 27.6593C178.978 27.581 178.775 27.4563 178.605 27.2934C178.435 27.1305 178.302 26.9333 178.214 26.7148C178.126 26.4964 178.086 26.2617 178.096 26.0265C178.096 24.8126 179.004 24.156 180.631 24.156H181.34V23.8399C181.34 23.1095 181.012 22.8678 180.294 22.8678C179.785 22.892 179.283 22.9917 178.804 23.1635L178.496 22.2407C179.139 21.9875 179.822 21.8519 180.514 21.8402C182.013 21.8402 182.671 22.5259 182.671 23.7615V26.1077C182.668 26.5599 182.816 26.7186 183.09 26.8294ZM181.336 26.0791V24.9482H180.776C179.899 24.9482 179.466 25.2657 179.466 25.9204C179.45 26.0306 179.458 26.1432 179.491 26.2496C179.524 26.3561 179.581 26.4537 179.657 26.535C179.734 26.6164 179.827 26.6795 179.931 26.7195C180.035 26.7595 180.147 26.7755 180.258 26.7662C180.484 26.7627 180.705 26.696 180.896 26.5738C181.086 26.4515 181.239 26.2784 181.336 26.0741V26.0791Z" fill="black"/>
<path d="M188.371 22.494L187.768 23.3075C187.449 23.0468 187.05 22.9048 186.637 22.9056C185.856 22.9056 185.38 23.4773 185.38 24.8177C185.38 26.158 185.876 26.6448 186.637 26.6448C187.047 26.6334 187.443 26.4933 187.768 26.2443L188.371 27.0993C187.865 27.5242 187.224 27.7534 186.564 27.7453C184.949 27.7453 183.945 26.625 183.945 24.8412C183.945 23.0574 184.948 21.8421 186.553 21.8421C187.22 21.8183 187.871 22.0517 188.371 22.494Z" fill="black"/>
<path d="M190.852 19.9904C190.857 20.1595 190.812 20.3262 190.722 20.4693C190.632 20.6125 190.501 20.7256 190.347 20.7941C190.192 20.8626 190.021 20.8835 189.854 20.8541C189.688 20.8247 189.534 20.7463 189.412 20.629C189.29 20.5117 189.206 20.3607 189.171 20.1954C189.135 20.03 189.15 19.8579 189.212 19.7009C189.275 19.5439 189.383 19.4092 189.523 19.314C189.663 19.2188 189.828 19.1674 189.997 19.1664C190.108 19.1602 190.22 19.1771 190.324 19.2159C190.429 19.2547 190.524 19.3147 190.604 19.392C190.684 19.4693 190.748 19.5624 190.79 19.6654C190.833 19.7684 190.854 19.879 190.852 19.9904ZM190.683 27.5842H189.332V21.998H190.683V27.5842Z" fill="black"/>
<path d="M196.353 22.494L195.751 23.3075C195.433 23.0466 195.033 22.9045 194.622 22.9056C193.84 22.9056 193.364 23.4773 193.364 24.8177C193.364 26.158 193.86 26.6448 194.622 26.6448C195.031 26.6337 195.426 26.4935 195.751 26.2443L196.353 27.0979C195.848 27.523 195.208 27.7523 194.548 27.7439C192.933 27.7439 191.929 26.6236 191.929 24.8398C191.929 23.056 192.932 21.8407 194.537 21.8407C195.204 21.8171 195.854 22.0511 196.353 22.494Z" fill="black"/>
<path d="M161.376 33.6992L160.69 34.491C160.239 34.0912 159.656 33.8717 159.053 33.8745C158.398 33.8745 157.922 34.1703 157.922 34.7406C157.922 35.2675 158.209 35.5015 159.422 35.8807C160.701 36.2826 161.589 36.8035 161.589 38.1919C161.589 39.5014 160.564 40.4306 158.816 40.4306C158.333 40.447 157.851 40.3666 157.4 40.1944C156.948 40.0221 156.535 39.7614 156.186 39.4275L156.904 38.6247C157.417 39.0937 158.088 39.3536 158.783 39.3532C159.568 39.3532 160.125 38.9726 160.125 38.2657C160.125 37.6493 159.817 37.3784 158.679 37.0333C157.147 36.5571 156.482 35.9439 156.482 34.8361C156.482 33.6203 157.528 32.8179 158.964 32.8179C159.405 32.7907 159.847 32.8549 160.262 33.0065C160.677 33.1582 161.056 33.394 161.376 33.6992Z" fill="black"/>
<path d="M167.638 37.4601C167.638 39.2241 166.657 40.4168 165.008 40.4168C163.36 40.4168 162.378 39.2983 162.378 37.4601C162.378 35.7068 163.361 34.5127 165.019 34.5127C166.677 34.5127 167.638 35.6339 167.638 37.4601ZM163.804 37.4601C163.804 38.7982 164.216 39.392 165.008 39.392C165.8 39.392 166.213 38.7894 166.213 37.4601C166.213 36.1308 165.8 35.5374 165.019 35.5374C164.238 35.5374 163.804 36.1414 163.804 37.4601H163.804Z" fill="black"/>
<path d="M172.98 35.1674L172.364 35.9809C172.045 35.7208 171.646 35.5789 171.234 35.579C170.45 35.579 169.977 36.1507 169.977 37.491C169.977 38.8314 170.473 39.3182 171.234 39.3182C171.644 39.307 172.039 39.1669 172.364 38.9177L172.98 39.7713C172.476 40.1964 171.835 40.4256 171.175 40.4172C169.56 40.4172 168.556 39.2988 168.556 37.5132C168.556 35.7275 169.56 34.514 171.166 34.514C171.832 34.4919 172.482 34.7268 172.98 35.1702V35.1674Z" fill="black"/>
<path d="M175.454 32.6634C175.46 32.8323 175.414 32.999 175.324 33.1421C175.234 33.2852 175.104 33.3983 174.949 33.4669C174.795 33.5355 174.624 33.5564 174.457 33.5271C174.291 33.4978 174.137 33.4196 174.015 33.3024C173.893 33.1852 173.809 33.0343 173.773 32.8691C173.738 32.7039 173.752 32.5318 173.815 32.3748C173.877 32.2177 173.985 32.0829 174.125 31.9876C174.264 31.8922 174.429 31.8406 174.598 31.8393C174.709 31.8332 174.821 31.8501 174.925 31.8889C175.03 31.9278 175.125 31.9877 175.206 32.065C175.286 32.1423 175.349 32.2353 175.392 32.3383C175.435 32.4412 175.456 32.5519 175.454 32.6634ZM175.285 40.259H173.932V34.6714H175.291L175.285 40.259Z" fill="black"/>
<path d="M181.445 37.8823H177.939C178.045 39.0238 178.574 39.392 179.313 39.392C179.819 39.3851 180.31 39.2107 180.707 38.896L181.266 39.6665C180.686 40.1523 179.952 40.4176 179.195 40.4154C177.464 40.4154 176.535 39.2647 176.535 37.5007C176.535 35.806 177.431 34.5117 179.016 34.5117C180.602 34.5117 181.481 35.567 181.481 37.3328C181.474 37.5123 181.454 37.7342 181.445 37.8823ZM180.136 36.9424C180.136 36.0196 179.808 35.4742 179.048 35.4742C178.413 35.4742 178.012 35.8964 177.938 37.0056H180.136L180.136 36.9424Z" fill="black"/>
<path d="M185.888 39.9946C185.474 40.2756 184.983 40.423 184.483 40.4168C183.384 40.4076 182.803 39.7837 182.803 38.5896V35.644H181.927V34.6719H182.803V33.4394L184.156 33.2853V34.6719H185.46L185.321 35.644H184.159V38.5592C184.159 39.1078 184.338 39.3297 184.751 39.3297C184.987 39.3228 185.216 39.2537 185.417 39.1295L185.888 39.9946Z" fill="black"/>
<path d="M189.3 40.2793C189.14 40.9295 188.767 41.5075 188.24 41.921C187.713 42.3345 187.063 42.5598 186.393 42.5609L186.255 41.5795C187.362 41.4102 187.723 41.0512 188.041 40.259H187.579L185.806 34.6714H187.243L188.459 39.3611L189.727 34.6714H191.114L189.3 40.2793Z" fill="black"/>
<path d="M144.364 10.4246L140.898 14.3733C138.484 12.3967 136.223 11.4706 133.472 11.4706C130.478 11.4706 128.304 12.8235 128.304 15.4285C128.304 17.8426 129.608 18.9043 135.16 20.6424C141.001 22.4788 145.056 24.8915 145.056 31.1698C145.056 37.1524 140.372 41.4014 132.409 41.4014C127.098 41.4014 123.054 39.6052 120.302 36.8995L123.786 33.0311C126.116 35.0962 129.146 36.1947 132.259 36.1027C135.831 36.1027 138.388 34.736 138.388 31.5052C138.388 28.7027 136.989 27.4486 131.775 25.8572C124.776 23.6835 121.733 20.8842 121.733 15.8138C121.733 10.2673 126.509 6.59313 133.08 6.59313C137.96 6.59313 141.468 7.76971 144.364 10.4246Z" fill="black"/>
<path d="M87.3383 32.9536H74.7835L72.3326 40.6784H65.7197L77.2221 7.31892H85.0918L96.5466 40.6784H89.7847L87.3383 32.9536ZM85.8268 28.1268L81.0383 12.9453L76.273 28.1255L85.8268 28.1268Z" fill="black"/>
<path d="M93.6517 7.3203V12.3893H103.381V40.6789H109.801V12.3888H119.53V7.3203H93.6517Z" fill="black"/>
</svg>
