<svg width="208" height="48" viewBox="0 0 208 48" fill="none" xmlns="http://www.w3.org/2000/svg">
<path d="M15.8054 5.9076C15.3603 4.76304 14.2793 4 13.0076 4C13.0076 4 13.0076 4 12.944 4H6.01308C4.61418 4 3.5332 5.14456 3.5332 6.47988C3.5332 7.8152 4.67776 8.95976 6.01308 8.95976H11.6087L14.4701 15.8271L17.5223 23.3939H22.9271L15.8054 5.9076Z" fill="#1E88E5"/>
<path d="M44.3476 4C43.3938 4 42.7103 4.56433 42.2016 5.70889L28.9676 38.7143L24.8345 28.2226H22.8673H19.5488L24.8941 41.2578C25.6571 42.9746 26.8653 43.8609 28.3913 43.8609H29.6035C31.1295 43.8609 32.3377 42.9746 33.1007 41.2578L46.9706 7.55688C47.0977 7.30253 47.1494 6.91704 47.1494 6.34476C47.1494 5.77248 46.899 5.26378 46.4539 4.75509C46.0088 4.2464 45.3014 4 44.3476 4ZM58.8533 4C58.1539 4 57.5736 4.2464 57.0649 4.75509C56.5563 5.26378 56.3099 5.90362 56.3099 6.60308V28.4809C56.3099 33.377 58.0187 37.2479 61.516 40.0457C64.5046 42.462 68.2045 43.7416 72.4648 43.7416C76.6616 43.7416 80.282 42.5255 83.3342 40.0457C86.8315 37.2479 88.6198 33.377 88.6198 28.4809V6.60308C88.6198 5.90362 88.3536 5.26378 87.8449 4.75509C87.3362 4.2464 86.6963 4 85.9969 4C85.2338 4 84.6655 4.2464 84.3476 4.75509C83.8389 5.26378 83.5925 5.90362 83.5925 6.60308V28.6796C83.5925 32.0497 82.444 34.6408 80.1549 36.5484C78.0565 38.2653 75.513 39.1714 72.5244 39.1714C69.5359 39.1714 66.9924 38.2653 64.8941 36.5484C62.6049 34.6408 61.4564 32.0497 61.4564 28.6796V6.60308C61.4564 5.90362 61.21 5.26378 60.7013 4.75509C60.1926 4.2464 59.5528 4 58.8533 4ZM134.402 4C133.703 4 133.119 4.25037 132.673 4.69548C132.228 5.14059 131.978 5.72479 131.978 6.42424C131.978 7.12369 132.228 7.68802 132.673 8.13313C133.182 8.57824 133.703 8.82861 134.402 8.82861H145.907V41.4565C145.907 42.1559 146.154 42.7163 146.662 43.225C147.108 43.7337 147.751 44 148.451 44C149.15 44 149.79 43.7337 150.299 43.225C150.808 42.7799 151.054 42.1559 151.054 41.4565V8.82861H162.5C163.199 8.82861 163.763 8.57824 164.208 8.13313C164.654 7.62444 164.924 7.12369 164.924 6.42424C164.924 5.72479 164.654 5.14059 164.208 4.69548C163.763 4.25037 163.199 4 162.5 4H134.402ZM104.377 4.05958C103.678 4.05958 103.118 4.32585 102.609 4.83454C102.1 5.34324 101.834 5.96321 101.834 6.66266V40.3636C101.834 41.3174 102.148 42.148 102.847 42.8474C103.547 43.5469 104.377 43.8609 105.331 43.8609H125.301C126.001 43.8609 126.641 43.6741 127.149 43.1654C127.658 42.7203 127.904 42.0963 127.904 41.3969C127.904 40.6974 127.658 40.0576 127.149 39.5489C126.641 39.0402 126.001 38.7739 125.301 38.7739V38.8534H106.98V6.66266C106.98 5.96321 106.734 5.34324 106.225 4.83454C105.717 4.32585 105.077 4.05958 104.377 4.05958ZM175.594 4.05958C174.895 4.05958 174.255 4.32585 173.746 4.83454C173.238 5.34324 172.991 5.96321 172.991 6.66266V41.1385C172.991 42.7282 174.263 43.9403 175.853 43.9403C177.442 43.9403 178.714 42.6686 178.714 41.0789V28.7988H189.961C192.123 28.7988 193.903 28.7272 195.048 29.5538C196.256 30.3805 197.15 31.5926 197.85 32.9915C198.549 34.454 198.863 36.6914 198.863 39.8072V41.3174C198.863 42.0804 199.133 42.7203 199.579 43.1654C200.024 43.6105 200.644 43.8609 201.407 43.8609C202.17 43.8609 202.806 43.6144 203.314 43.1057C203.823 42.5971 204.089 42.0208 204.089 41.2577V38.8534C204.089 36.3099 203.704 33.9413 202.877 31.7794C201.732 28.5365 199.69 26.5772 196.956 25.8778C199.499 24.9875 201.347 23.5926 202.619 21.685C203.827 19.7774 204.467 17.7307 204.467 15.5052C204.467 12.0715 203.251 9.33727 200.771 7.23891C198.1 5.01338 194.162 4.05958 188.948 4.05958H175.594ZM178.774 9.60354H188.312C192.063 9.60354 194.798 10.1639 196.578 11.372C198.041 12.453 198.744 13.9831 198.744 16.0814C198.744 18.307 197.786 20.0238 195.942 21.1684C194.098 22.3765 191.622 22.9567 188.57 22.9567H178.774V9.60354Z" fill="#2B2A29"/>
</svg>
