<svg width="160" height="112" viewBox="0 0 160 112" fill="none" xmlns="http://www.w3.org/2000/svg">
<path d="M21.799 90.2034C23.1042 90.2034 24.2908 90.5001 24.9434 91.0934C25.062 92.0426 24.1721 93.5852 23.6382 93.5852C22.9855 93.3479 22.3923 93.2292 21.621 93.2292C18.5359 93.2292 16.9934 96.433 16.9934 99.5774C16.9934 101.535 17.646 102.722 19.2478 102.722C20.909 102.722 22.5702 101.595 23.5195 100.764C23.7568 100.942 24.0535 101.476 24.0535 102.069C24.0535 102.722 23.8755 103.374 23.2229 104.027C22.1549 105.095 20.3158 106.044 17.646 106.044C14.6202 106.044 12.4844 104.324 12.4844 100.289C12.603 94.9497 16.0441 90.2034 21.799 90.2034Z" fill="#373535"/>
<path d="M31.7662 102.544C33.4274 102.544 36.4531 99.6367 37.2837 94.0598C37.3431 93.7038 37.3431 93.6445 37.4024 93.2885C37.0464 93.1699 36.5125 93.0512 36.0378 93.0512C34.7919 93.0512 33.4867 93.4072 32.3595 95.0091C31.1729 96.6703 30.6389 98.7468 30.6389 100.408C30.6389 101.773 31.0542 102.544 31.7662 102.544ZM26.3079 101.001C26.3079 98.9841 26.9606 95.543 29.5117 92.9919C31.7069 90.7374 34.3173 90.2034 36.7498 90.2034C38.3517 90.2034 40.4875 90.7374 41.8521 90.9747C41.4961 92.4579 40.7248 98.0942 40.3095 101.357C40.1315 102.722 40.0722 104.68 40.1315 105.392C39.0043 105.866 36.9278 105.985 36.3345 105.985C36.0378 105.985 35.9785 104.62 36.0378 103.256C36.0972 102.84 36.1565 102.188 36.1565 101.891C34.8513 104.086 32.2408 105.926 29.5117 105.926C27.5538 105.985 26.3079 104.324 26.3079 101.001Z" fill="#373535"/>
<path d="M50.2767 90.2034C51.6413 90.2034 53.0058 90.7374 53.5991 91.3307C53.5398 92.2799 52.8279 93.8818 51.6413 93.4072C51.1073 93.2292 50.6327 93.1105 49.9207 93.1105C49.0308 93.1105 48.2002 93.5258 48.2002 94.3564C48.2002 95.0091 48.6749 95.4837 50.9293 97.0856C52.5312 98.2721 53.1838 99.3401 53.1838 100.823C53.1838 103.315 50.87 105.985 46.7763 105.985C45.1151 105.985 43.6319 105.332 43.2166 104.68C42.6233 103.671 43.098 101.654 43.7506 102.01C44.6405 102.425 46.0644 102.9 47.251 102.9C48.3782 102.9 49.0901 102.366 49.0901 101.713C49.0901 101.12 48.5562 100.645 46.539 99.1621C44.8185 97.8568 44.2845 96.6703 44.2845 95.365C44.2845 92.5173 46.717 90.2034 50.2767 90.2034Z" fill="#373535"/>
<path d="M61.9645 90.2034C63.329 90.2034 64.6936 90.7374 65.2869 91.3307C65.2275 92.2799 64.5156 93.8818 63.329 93.4072C62.7951 93.2292 62.3204 93.1105 61.6085 93.1105C60.7186 93.1105 59.888 93.5258 59.888 94.3564C59.888 95.0091 60.3626 95.4837 62.6171 97.0856C64.219 98.2721 64.8716 99.3401 64.8716 100.823C64.8716 103.315 62.5578 105.985 58.4641 105.985C56.8029 105.985 55.379 105.332 54.9044 104.68C54.3111 103.671 54.7857 101.654 55.4383 102.01C56.3283 102.425 57.7521 102.9 58.9387 102.9C60.0659 102.9 60.7779 102.366 60.7779 101.713C60.7779 101.12 60.2439 100.645 58.2268 99.1621C56.5062 97.8568 55.9723 96.6703 55.9723 95.365C55.9723 92.5173 58.4048 90.2034 61.9645 90.2034Z" fill="#373535"/>
<path d="M72.5843 102.544C74.2455 102.544 77.2713 99.6367 78.1019 94.0598C78.1612 93.7038 78.1612 93.6445 78.2205 93.2885C77.8645 93.1699 77.3306 93.0512 76.856 93.0512C75.6101 93.0512 74.3048 93.4072 73.1776 95.0091C71.991 96.6703 71.4571 98.7468 71.4571 100.408C71.5164 101.773 71.8724 102.544 72.5843 102.544ZM67.1261 101.001C67.1261 98.9841 67.7787 95.543 70.3298 92.9919C72.525 90.7374 75.1354 90.2034 77.5679 90.2034C79.1698 90.2034 81.3056 90.7374 82.6702 90.9747C82.3142 92.4579 81.5429 98.0942 81.1276 101.357C80.9496 102.722 80.8903 104.68 80.9496 105.392C79.8224 105.866 77.7459 105.985 77.1526 105.985C76.856 105.985 76.7966 104.62 76.856 103.256C76.9153 102.84 76.9746 102.188 76.9746 101.891C75.6694 104.086 73.0589 105.926 70.3298 105.926C68.4313 105.985 67.1261 104.324 67.1261 101.001Z" fill="#373535"/>
<path d="M90.3236 94.5938C91.8661 92.102 93.8833 90.2034 96.731 90.2034C99.1635 90.2034 99.9348 92.4579 99.4602 95.6024C99.2229 97.0856 98.8076 99.2214 98.5702 101.179C98.3329 102.84 98.1549 104.324 98.2143 105.332C97.3243 105.748 94.7732 105.926 94.1799 105.926C93.9426 105.926 93.8833 104.086 94.2393 102.129C94.5359 100.527 95.0698 97.5602 95.3665 95.8397C95.5445 94.8311 95.4852 93.6445 94.5359 93.6445C93.29 93.6445 90.3236 95.6617 88.8403 103.849C88.7217 104.502 88.4844 104.917 88.0691 105.154C87.5351 105.451 86.4672 105.748 84.272 105.748C84.6873 103.671 85.34 99.4587 85.8146 96.3143C86.2299 93.4665 86.4079 91.6273 86.3485 90.9154C86.9418 90.7374 89.9676 90.0848 90.2642 90.0848C90.6202 90.0848 90.6795 91.1527 90.3829 93.6445C90.3236 93.8818 90.3236 94.2378 90.2642 94.4751H90.3236V94.5938Z" fill="#373535"/>
<path d="M107.529 102.484C109.012 102.484 112.038 99.696 112.868 94.7717C112.928 94.4751 112.987 94.0005 113.046 93.7038C112.631 93.2885 112.038 93.0512 111.089 93.0512C107.648 93.0512 106.164 97.1449 106.164 100.111C106.224 101.654 106.758 102.484 107.529 102.484ZM105.334 105.985C103.139 105.985 101.833 104.027 101.833 100.764C101.833 95.3057 105.274 90.2628 111.029 90.2628C112.038 90.2628 112.987 90.5594 113.521 90.8561C113.818 89.3135 114.53 84.5079 114.589 83.084C115.538 82.906 117.555 82.6094 118.505 82.6094C118.861 82.6094 118.979 82.9653 118.861 83.8553C118.03 88.9575 116.606 98.6874 116.31 100.823C116.132 102.662 116.072 104.442 116.132 105.451C115.064 105.926 112.868 106.044 112.275 106.044C112.038 106.044 111.919 104.502 111.979 103.078C112.038 102.662 112.097 102.01 112.097 101.891C110.258 104.62 107.944 105.985 105.334 105.985Z" fill="#373535"/>
<path d="M125.149 95.0684C126.929 91.0934 129.065 90.2034 130.489 90.2034C130.904 90.2034 131.616 90.5001 131.913 90.7967C132.032 91.924 131.142 94.1191 130.37 95.0091C129.955 94.8311 129.48 94.5938 128.887 94.5938C127.76 94.5938 125.446 96.3736 124.022 104.086C123.904 104.739 123.726 104.976 123.37 105.154C122.776 105.51 120.522 105.748 119.454 105.807C119.988 103.018 120.818 97.3822 121.174 94.0598C121.293 93.2292 121.293 91.6273 121.234 91.034C121.886 90.7374 124.438 90.1441 124.971 90.1441C125.268 90.1441 125.505 91.9833 125.031 95.0091H125.149V95.0684Z" fill="#373535"/>
<path d="M137.075 102.544C138.736 102.544 141.761 99.6367 142.592 94.0598C142.651 93.7038 142.651 93.6445 142.711 93.2885C142.355 93.1699 141.821 93.0512 141.346 93.0512C140.1 93.0512 138.795 93.4072 137.668 95.0091C136.481 96.6703 135.947 98.7468 135.947 100.408C136.007 101.773 136.363 102.544 137.075 102.544ZM131.616 101.001C131.616 98.9841 132.269 95.543 134.82 92.9919C137.015 90.7374 139.626 90.2034 142.058 90.2034C143.66 90.2034 145.796 90.7374 147.16 90.9747C146.804 92.4579 146.033 98.0942 145.618 101.357C145.44 102.722 145.381 104.68 145.44 105.392C144.313 105.866 142.236 105.985 141.643 105.985C141.346 105.985 141.287 104.62 141.346 103.256C141.406 102.84 141.465 102.188 141.465 101.891C140.16 104.086 137.549 105.926 134.82 105.926C132.922 105.985 131.616 104.324 131.616 101.001Z" fill="#373535"/>
<path d="M125.386 32.8331C126.513 45.8261 106.045 58.2258 79.6434 60.4803C53.2422 62.7348 30.9939 54.0135 29.8667 41.0205C28.7394 28.0275 49.2078 15.6278 75.6091 13.3733C101.951 11.1189 124.259 19.7808 125.386 32.8331Z" fill="#BBE6FB"/>
<path d="M76.3216 14.8563C66.2358 14.6783 54.4887 18.7126 45.7081 22.4503C44.8181 25.0608 44.2842 27.8492 44.2842 30.7563C44.2842 46.1818 58.2264 58.7001 75.4317 58.7001C92.637 58.7001 106.639 46.2411 106.639 30.7563C106.639 25.8914 105.215 21.2638 102.782 17.2887C95.7814 16.2208 86.1109 15.0343 76.3216 14.8563Z" fill="white"/>
<path d="M75.4906 14.8563C69.9137 14.5004 60.3024 17.4075 52.2931 20.3146C51.0471 23.1623 50.3945 26.3068 50.3945 29.6292C50.3945 43.1561 62.6756 54.1319 75.6092 54.1319C88.4835 54.1319 99.8746 43.1561 100.824 29.6292C101.121 25.2388 99.6373 21.0858 97.5015 17.5261C89.2548 16.1022 80.4742 15.2123 75.4906 14.8563Z" fill="white"/>
<path d="M61.1933 27.9087C61.9052 26.3661 62.9138 25.6542 63.9224 24.4083C63.8037 24.1116 63.5664 23.103 63.5664 22.8064C63.5664 21.2639 64.8123 20.0773 66.2955 20.0773C66.6515 20.0773 67.0075 20.1366 67.3041 20.2553C71.8724 16.7549 77.8646 15.2717 83.9162 16.6362C84.4501 16.7549 84.9841 16.9329 85.518 17.0515C79.5852 16.2209 72.8217 18.3568 68.2534 22.0351C68.372 22.3911 68.7874 23.281 68.7874 23.6963C68.7874 25.2389 67.7788 25.5949 66.2955 25.5949C65.9396 25.5949 65.6429 25.5355 65.287 25.4169C64.2784 26.7814 62.9731 29.4512 62.3799 31.1124C64.931 33.3669 67.1855 34.1975 70.1519 35.3247C70.1519 35.2061 70.2706 35.0281 70.2706 34.9094C70.2706 30.3411 74.3049 26.6034 78.8732 26.6034C82.9669 26.6034 86.408 29.5699 87.0606 33.4856C89.1371 32.1803 91.0949 31.1717 92.5781 29.2732C92.2222 28.8579 91.8662 27.612 91.8662 27.0187C91.8662 25.6542 92.9934 24.5269 94.358 24.5269C94.536 24.5269 94.714 24.5269 94.9513 24.5863C95.7226 22.9844 96.3158 21.3232 96.6718 19.6027C89.4931 14.2631 75.6101 15.0344 75.6101 15.0344C75.6101 15.0344 64.575 14.4411 57.0996 18.1194C57.6336 21.5605 59.0575 25.0016 61.1933 27.9087Z" fill="#373535"/>
<path d="M95.4842 25.8318C96.0182 26.3064 96.2555 26.6624 96.4928 27.0777C97.1454 28.2643 95.8402 29.3915 94.4163 29.3915C94.2977 29.3915 94.1197 29.3915 94.001 29.3322C92.4585 31.7647 89.7293 34.8497 87.2969 36.4516C91.0346 37.0449 94.535 38.5281 97.2641 40.8419C99.2813 37.2229 100.824 31.9426 100.824 27.493C100.824 24.1113 99.3406 21.6195 97.0861 19.7803C97.0268 21.6195 96.0182 24.1706 95.4842 25.8318Z" fill="#373535"/>
<path d="M65.3459 48.8518C66.5918 45.4107 69.6176 42.8003 72.5247 40.4864C72.1094 39.8931 71.4568 38.4693 71.2195 37.8166C67.7191 36.7487 64.634 34.7316 62.2015 32.1211C62.2015 32.1804 62.1422 32.2991 62.1422 32.3584C61.6676 34.3756 61.6082 36.4521 61.8455 38.4099C63.5067 38.7066 64.812 40.1898 64.812 41.9697C64.812 43.0376 63.8627 44.5208 63.1508 45.2327C63.8627 46.7753 64.3967 47.6059 65.3459 48.8518Z" fill="#373535"/>
<path d="M65.109 51.6994C63.6258 50.2162 62.6172 47.3091 61.668 45.4699C61.49 45.4699 61.312 45.5292 61.134 45.5292C59.1168 45.5292 57.0403 43.868 57.5149 41.9102C57.7523 40.8423 58.5235 40.1303 59.7101 39.537C59.4135 37.2825 59.3541 34.1381 59.8881 31.8243C60.0067 31.1717 60.3627 30.875 60.5407 30.2224C58.3455 27.0187 56.9217 22.747 56.9217 18.5347V18.0601C53.184 19.9586 50.3955 22.8657 50.3955 27.4933C50.3955 37.7572 56.3284 47.843 65.109 51.7587V51.6994Z" fill="#373535"/>
<path d="M86.763 37.52C85.6358 40.7238 82.5507 43.0969 78.9317 43.0969C76.9738 43.0969 75.1939 42.4443 73.8294 41.3171C70.9223 43.5715 68.2525 47.5466 66.9473 51.0469C67.5406 51.6996 67.9559 52.2335 68.6678 52.8268C70.685 53.3608 73.5327 52.8268 75.7279 52.8268C84.5679 52.8268 92.4586 48.9111 96.9676 41.9697C93.8825 39.8338 90.3227 37.8167 86.763 37.52Z" fill="#373535"/>
<path d="M60.9555 29.095C61.6674 27.5524 62.498 26.1879 63.5066 24.8826C63.388 24.586 63.3286 24.23 63.3286 23.9334C63.3286 22.3908 64.5745 21.2042 66.0578 21.2042C66.4137 21.2042 66.7697 21.2636 67.0663 21.3822C71.6346 17.8818 77.6268 16.3986 83.6784 17.7632C84.2123 17.8818 84.7463 18.0598 85.2802 18.1785C79.3474 17.3479 73.1772 19.1871 68.6089 22.8654C68.7275 23.2214 68.8462 23.5774 68.8462 23.9334C68.8462 25.4759 67.6003 26.6625 66.1171 26.6625C65.7611 26.6625 65.4645 26.6032 65.1085 26.4845C64.0999 27.8491 63.21 29.3916 62.6167 31.0528C64.8119 33.3666 67.4816 35.2651 70.4481 36.333V35.9177C70.4481 31.3494 74.1858 27.6117 78.7541 27.6117C82.8478 27.6117 86.2888 30.5782 86.9414 34.4939C89.0179 33.1886 90.7978 31.5274 92.3403 29.5696C91.9844 29.1543 91.7471 28.6203 91.7471 28.027C91.7471 26.6625 92.8743 25.5352 94.2389 25.5352C94.4168 25.5352 94.5948 25.5352 94.8321 25.5946C95.6034 23.9927 96.1967 22.3315 96.5527 20.611C89.3739 15.2714 75.491 16.0427 75.491 16.0427C75.491 16.0427 64.4559 15.4494 56.9805 19.1277C57.3958 22.7468 58.8197 26.1879 60.9555 29.095Z" fill="#1287B1"/>
<path d="M95.8409 26.2475C96.3749 26.7222 96.6715 27.3748 96.6715 28.0867C96.6715 29.4513 95.5443 30.5785 94.1797 30.5785C94.0611 30.5785 93.8831 30.5785 93.7644 30.5192C92.2219 32.9517 90.1454 35.0282 87.7129 36.5707C91.2726 37.1047 94.6543 38.6472 97.4428 40.961C99.46 37.342 100.647 33.1297 100.647 28.68C100.647 25.2983 99.1633 22.8065 96.9088 20.9673C96.7902 22.8065 96.4342 24.5863 95.8409 26.2475Z" fill="#1287B1"/>
<path d="M65.7019 49.6228C66.9478 46.1817 69.0836 43.1559 71.9908 40.8421C71.5755 40.2488 71.2195 39.6555 70.9822 38.9436C67.4818 37.8757 64.3967 35.8585 61.9642 33.248C61.9642 33.3074 61.9049 33.426 61.9049 33.4854C61.4303 35.5025 61.3709 37.579 61.6082 39.5369C63.2694 39.8335 64.5747 41.3167 64.5747 43.0966C64.5747 44.1645 64.1 45.1138 63.3881 45.7664C63.9814 47.131 64.812 48.4362 65.7019 49.6228Z" fill="#1287B1"/>
<path d="M65.109 51.64C63.6258 50.1568 62.3799 48.4956 61.4306 46.6564C61.2527 46.6564 61.0747 46.7157 60.8967 46.7157C58.8795 46.7157 57.2776 45.1139 57.2776 43.0967C57.2776 41.6728 58.1082 40.4269 59.2948 39.8336C58.9982 37.5791 59.1168 35.3246 59.6508 33.0108C59.7694 32.3582 60.0068 31.7056 60.1847 31.053C57.9896 27.8492 56.6844 23.9335 56.6844 19.7212V19.2466C52.9466 21.1451 50.1582 24.0522 50.1582 28.6798C50.1582 38.9437 56.2691 47.7837 65.0497 51.6994C65.109 51.6994 65.109 51.6994 65.109 51.64Z" fill="#1287B1"/>
<path d="M86.5255 38.7065C85.3982 41.9103 82.3131 44.2834 78.6941 44.2834C76.7362 44.2834 74.9564 43.6308 73.5918 42.5036C70.6847 44.7581 68.4896 47.8432 67.125 51.3435C67.7183 51.9962 68.3709 52.5894 69.0235 53.1827C71.0407 53.7167 73.1765 54.0133 75.3717 54.0133C84.2116 54.0133 92.043 49.445 96.552 42.5036C93.5856 40.3677 90.0852 39.0032 86.5255 38.7065Z" fill="#1287B1"/>
<path d="M86.8228 36.5707L94.4762 34.7316L86.7635 34.3163L93.0523 29.57L85.9329 32.1211L90.7385 25.417L84.0344 29.8666L86.3482 22.0352L81.7799 28.5021L81.6612 20.3147L78.6355 27.6121L76.1437 20.2554L76.2623 28.9174L71.9313 21.1453L74.3045 29.392L67.2444 24.2897L72.7619 31.2312L63.9813 28.0274L70.8634 33.1297L62.0234 33.4263L71.1007 35.7401L62.0234 37.698L70.9821 38.3506L63.4473 43.1562L71.2194 40.3678L65.8205 47.1906L72.6433 41.673L70.2108 50.8096L75.491 43.3342L74.7791 52.1149L77.7455 44.1055L80.2967 52.4708L80.8899 44.0462L84.687 51.2249L82.4325 43.0376L89.3146 48.3771L84.865 41.5544L92.459 44.5208L86.6448 38.8252L94.4169 39.4185L86.8228 36.5707Z" fill="white"/>
<path d="M5.12695 51.2247C28.9177 27.4339 47.9029 20.0772 65.1675 16.7548C67.422 16.3395 67.8967 11.2965 67.8967 11.2965C67.8967 11.2965 68.1933 14.9749 69.7952 15.4495C71.397 15.9242 73.4735 9.69467 73.4735 9.69467C73.4735 9.69467 71.575 15.2716 73.4735 15.6275C75.3721 15.9242 78.9318 10.1693 78.9318 10.1693C78.9318 10.1693 77.5079 15.0936 78.4572 15.4495C79.4064 15.7462 84.212 8.27078 84.212 8.27078C84.212 8.27078 81.3643 13.1951 84.034 13.729C86.7632 14.2036 90.7382 10.3473 90.7382 10.3473C90.7382 10.3473 87.6531 13.8477 89.0177 14.3816C94.9505 16.4581 99.6968 8.80474 99.6968 8.80474C99.6968 8.80474 98.5696 12.1865 95.7218 15.8648C101.951 17.4667 106.579 8.09279 106.579 8.09279L101.951 17.4667C104.324 18.6533 113.876 7.61816 113.876 7.61816C113.876 7.61816 108.952 16.2208 106.045 18.0007C107.647 19.3059 113.402 14.1443 113.402 14.1443C113.402 14.1443 108.774 19.8992 110.554 20.1958C113.105 22.2723 122.538 9.51668 122.538 9.51668C122.538 9.51668 118.86 17.0514 113.461 22.925C117.97 25.2388 129.242 10.7033 129.242 10.7033C129.242 10.7033 128.946 15.3309 120.758 22.6876C126.81 21.9164 134.641 10.4066 134.641 10.4066C134.641 10.4066 131.794 19.0093 124.911 25.1201C130.844 24.5268 140.396 9.81332 140.396 9.81332C140.396 9.81332 136.718 20.0179 129.242 25.9507C137.548 27.7899 149.533 15.3902 149.533 15.3902C149.533 15.3902 144.846 24.1709 138.676 27.7899C145.558 30.4004 154.991 19.5432 154.991 19.5432C154.991 19.5432 145.558 34.0787 130.548 33.4261C125.623 33.1888 110.732 18.4753 78.8131 19.6619C36.5711 21.2044 27.6718 39.1217 5.12695 51.2247Z" fill="#373535" fill-opacity="0.35"/>
<path d="M6.07617 49.4449C29.867 25.6541 48.8521 18.2974 66.1168 14.975C68.3712 14.5597 68.8459 9.51675 68.8459 9.51675C68.8459 9.51675 69.1425 13.1951 70.7444 13.6698C72.3463 14.1444 74.4228 7.91488 74.4228 7.91488C74.4228 7.91488 72.5243 13.4918 74.4228 13.8477C76.3213 14.1444 79.881 8.38951 79.881 8.38951C79.881 8.38951 78.4571 13.3138 79.4064 13.6698C80.3556 13.9664 85.1613 6.49099 85.1613 6.49099C85.1613 6.49099 82.3135 11.4153 84.9833 11.9492C87.7124 12.4239 91.6874 8.56749 91.6874 8.56749C91.6874 8.56749 88.6023 12.0679 89.9669 12.6018C95.8997 14.6783 100.646 7.02495 100.646 7.02495C100.646 7.02495 99.5188 10.4067 96.671 14.0851C102.901 15.6869 107.528 6.313 107.528 6.313L102.901 15.6869C105.274 16.9922 114.885 5.95703 114.885 5.95703C114.885 5.95703 109.961 14.5597 107.054 16.3395C108.655 17.4668 114.41 12.3645 114.41 12.3645C114.41 12.3645 109.783 18.1194 111.563 18.416C114.114 20.4925 123.547 7.73689 123.547 7.73689C123.547 7.73689 119.809 15.2716 114.41 21.1452C118.919 23.3997 130.251 8.86414 130.251 8.86414C130.251 8.86414 129.954 13.4918 121.767 20.8485C127.819 20.0772 135.65 8.56749 135.65 8.56749C135.65 8.56749 132.802 17.1701 125.92 23.281C131.853 22.6877 141.405 7.97421 141.405 7.97421C141.405 7.97421 137.726 18.1787 130.251 24.1116C138.557 25.9508 150.541 13.5511 150.541 13.5511C150.541 13.5511 145.854 22.3317 139.684 25.9508C146.566 28.5612 156 17.7041 156 17.7041C156 17.7041 146.566 32.2396 131.556 31.587C126.632 31.3497 111.74 16.6362 79.8217 17.8228C37.5797 19.4246 28.6211 37.2826 6.07617 49.4449Z" fill="#373535"/>
<path d="M4.5332 53.835C17.1109 60.1238 28.6206 52.8857 43.0968 56.9794C54.132 60.0645 67.5402 63.9208 85.7541 61.2511C103.968 58.6406 119.512 50.6906 126.988 36.5703C129.301 30.2815 138.735 37.9942 138.735 37.9942C138.735 37.9942 131.852 35.1464 132.03 36.4517C132.208 37.8162 142.354 42.5032 142.354 42.5032C142.354 42.5032 133.158 39.6554 133.751 41.7913C134.285 43.9271 145.261 52.5891 145.261 52.5891C145.261 52.5891 132.742 43.2151 131.734 44.5204C130.666 45.8256 137.014 50.9872 137.014 50.9872C137.014 50.9872 126.572 44.5204 122.894 46.4189C120.224 47.7835 133.751 56.6234 133.751 56.6234C133.751 56.6234 124.97 49.9193 122.894 51.6991C120.817 53.479 132.802 67.8365 132.802 67.8365C132.802 67.8365 119.156 53.123 117.792 53.835C116.427 54.5469 121.529 61.607 121.529 61.607C121.529 61.607 114.884 54.2503 113.045 55.4962C111.206 56.8014 122.657 75.8459 122.657 75.8459C122.657 75.8459 110.257 56.3268 105.095 59.5899C113.105 77.2105 110.138 79.7023 110.138 79.7023C110.138 79.7023 109.13 61.7257 99.1031 62.2003C94.0601 62.4376 101.476 75.6086 101.476 75.6086C101.476 75.6086 94.6534 63.5649 90.0851 63.8022C98.4505 79.7023 95.484 86.1098 95.484 86.1098C95.484 86.1098 96.8486 72.5235 85.5168 64.9888C89.8478 68.8451 82.7877 86.1098 82.7877 86.1098C82.7877 86.1098 88.9579 60.6578 78.2194 65.5227C76.4989 66.294 78.1007 78.219 78.1007 78.219C78.1007 78.219 75.9649 64.5735 72.7018 65.2854C70.8033 65.7007 60.7174 84.2112 60.7174 84.2112C60.7174 84.2112 68.9641 64.2175 66.4723 65.0481C64.6331 65.6414 61.1921 73.8881 61.1921 73.8881C61.1921 73.8881 62.8533 65.76 61.1921 65.2854C59.5309 64.8108 50.1569 73.8881 50.1569 73.8881C50.1569 73.8881 57.0984 65.76 55.9118 64.0395C54.0726 61.4884 51.9961 61.3697 49.445 62.3783C45.7666 63.8022 40.8423 70.5063 40.8423 70.5063C40.8423 70.5063 45.7666 63.6835 44.936 61.1917C43.5715 57.0981 29.3919 69.0824 29.3919 69.0824C29.3919 69.0824 37.7572 61.1917 35.8587 59.4712C33.9602 57.81 23.5184 58.2846 20.3146 58.2846C10.7627 58.4033 7.44031 56.1488 4.5332 53.835Z" fill="#373535" fill-opacity="0.35"/>
<path d="M4 52.4111C16.5777 58.7 28.0874 51.4619 42.5636 55.5556C53.5987 58.6407 67.007 62.497 85.2209 59.8272C103.435 57.2168 118.979 49.2667 126.454 35.1465C128.768 28.8577 138.201 36.5704 138.201 36.5704C138.201 36.5704 131.319 33.7226 131.497 35.0279C131.675 36.3924 141.82 41.0794 141.82 41.0794C141.82 41.0794 132.625 38.2316 133.218 40.3674C133.752 42.5033 144.728 51.1652 144.728 51.1652C144.728 51.1652 132.328 41.732 131.319 43.0372C130.311 44.3425 136.6 49.504 136.6 49.504C136.6 49.504 126.158 43.0372 122.479 44.9357C119.81 46.3003 133.336 55.1403 133.336 55.1403C133.336 55.1403 124.556 48.4361 122.479 50.216C120.403 51.9958 132.387 66.3534 132.387 66.3534C132.387 66.3534 118.801 51.6399 117.436 52.3518C116.072 53.0638 121.174 60.1239 121.174 60.1239C121.174 60.1239 114.411 52.8264 112.571 54.0723C110.732 55.3776 122.123 74.4221 122.123 74.4221C122.123 74.4221 109.724 54.8436 104.621 58.1067C112.69 75.7866 109.664 78.2784 109.664 78.2784C109.664 78.2784 108.656 60.3019 98.6292 60.7765C93.5863 61.0138 101.002 74.1848 101.002 74.1848C101.002 74.1848 94.2389 62.2004 89.6706 62.4377C98.0359 78.3378 95.0695 84.7453 95.0695 84.7453C95.0695 84.7453 96.434 71.159 85.1023 63.6243C89.4333 67.4806 82.3731 84.7453 82.3731 84.7453C82.3731 84.7453 88.5433 59.2933 77.8048 64.1582C76.0843 64.9295 77.6862 76.8545 77.6862 76.8545C77.6862 76.8545 75.5503 63.209 72.2873 63.9209C70.3888 64.3362 60.3029 82.8467 60.3029 82.8467C60.3029 82.8467 68.5496 62.853 66.0578 63.6836C64.2186 64.2769 60.7775 72.5236 60.7775 72.5236C60.7775 72.5236 62.4387 64.3955 60.7775 63.9209C59.1163 63.4463 49.7424 72.5236 49.7424 72.5236C49.7424 72.5236 56.6838 64.3955 55.4973 62.675C53.6581 60.1239 51.5816 60.0052 49.0304 61.0138C45.3521 62.4377 40.4278 69.1418 40.4278 69.1418C40.4278 69.1418 45.3521 62.319 44.5215 59.8272C43.1569 55.7335 28.9774 67.7179 28.9774 67.7179C28.9774 67.7179 37.3427 59.8272 35.4442 58.1067C33.5457 56.4455 23.1038 56.9201 19.9001 56.9201C10.2295 56.9794 6.9071 54.725 4 52.4111Z" fill="#373535"/>
</svg>
