<svg width="224" height="48" viewBox="0 0 224 48" fill="none" xmlns="http://www.w3.org/2000/svg">
<path d="M115.752 16.3636C121.447 16.3636 124.776 20.813 124.776 26.3422C124.776 31.8843 121.447 36.3207 115.752 36.3207C112.984 36.3207 110.965 35.1499 109.949 33.8489V42.3333H104.628V16.806H109.535V19.1347C110.765 17.3914 112.984 16.3636 115.752 16.3636ZM69.381 10.9935C76.7425 10.9935 80.4711 15.9912 81.1403 20.3349H75.4805C74.8114 17.7193 72.3924 15.8977 69.3331 15.8977C65.2699 15.8977 62.3442 19.1206 62.3442 23.6979C62.3442 28.2285 65.2699 31.4513 69.3331 31.4513C72.3924 31.4513 74.8114 29.6296 75.4805 27.014H81.1403C80.4711 31.358 76.7425 36.3555 69.381 36.3555C62.0671 36.3555 57 30.704 57 23.6979C57 16.6451 62.0671 10.9935 69.381 10.9935ZM91.1673 16.3636C93.9347 16.3636 96.1407 17.3784 97.3842 19.1347V16.806H102.291V35.8784H97.3842V33.5496C96.154 35.2929 93.9347 36.3207 91.1673 36.3207C85.4719 36.3207 82.1427 31.8713 82.1427 26.3422C82.1427 20.8 85.4719 16.3636 91.1673 16.3636ZM135.06 16.3636C137.827 16.3636 140.033 17.3784 141.276 19.1347V16.806H146.183V35.8784H141.276V33.5496C140.046 35.2929 137.827 36.3207 135.06 36.3207C129.364 36.3207 126.035 31.8713 126.035 26.3422C126.035 20.8 129.364 16.3636 135.06 16.3636ZM157.532 16.3636C163.628 16.3636 166.516 20.5528 166.89 23.7922H161.422C161.008 22.1529 159.444 20.9561 157.492 20.9561C154.644 20.9561 153 23.1418 153 26.3422C153 29.5426 154.644 31.7283 157.492 31.7283C159.444 31.7283 161.008 30.5313 161.422 28.8922H166.89C166.516 32.1316 163.628 36.3207 157.532 36.3207C151.836 36.3207 147.692 32.0274 147.692 26.3422C147.692 20.6569 151.836 16.3636 157.532 16.3636ZM194.386 16.3636C200.669 16.3636 204.681 20.9171 204.681 26.3422C204.681 31.7673 200.669 36.3207 194.386 36.3207C188.103 36.3207 184.091 31.7673 184.091 26.3422C184.091 20.9171 188.103 16.3636 194.386 16.3636ZM216.362 16.611C216.547 16.611 216.997 16.6501 216.997 16.6501V21.5028C216.997 21.5028 216.442 21.3986 215.966 21.3986C212.901 21.3986 211.301 22.8948 211.301 26.3944V35.9045H206.041V16.7932H210.891V19.265C211.591 18.1332 213.072 16.611 216.362 16.611ZM180.885 12.0587V16.7943H184.976V21.0095H180.885V35.8927H175.565V12.0587H180.885ZM173.186 16.7934V35.8787H167.864V16.7934H173.186ZM92.2902 20.9171C89.3356 20.9171 87.4638 23.2459 87.4638 26.3422C87.4638 29.4385 89.3356 31.7673 92.2902 31.7673C95.245 31.7673 97.1167 29.4385 97.1167 26.3422C97.13 23.2459 95.2584 20.9171 92.2902 20.9171ZM114.629 20.9171C111.674 20.9171 109.802 23.2459 109.802 26.3422C109.789 29.4385 111.661 31.7673 114.629 31.7673C117.583 31.7673 119.455 29.4385 119.455 26.3422C119.455 23.2459 117.583 20.9171 114.629 20.9171ZM136.183 20.9171C133.228 20.9171 131.356 23.2459 131.356 26.3422C131.356 29.4385 133.228 31.7673 136.183 31.7673C139.137 31.7673 141.009 29.4385 141.009 26.3422C141.022 23.2459 139.151 20.9171 136.183 20.9171ZM194.386 20.9171C191.578 20.9171 189.413 22.9206 189.413 26.3422C189.413 29.7638 191.578 31.7673 194.386 31.7673C197.194 31.7673 199.359 29.7638 199.359 26.3422C199.359 22.9206 197.194 20.9171 194.386 20.9171ZM170.525 9.00049C172.397 9.00049 173.746 10.3145 173.746 12.1359C173.746 13.9572 172.397 15.2322 170.525 15.2322C168.653 15.2322 167.303 13.9572 167.303 12.1359C167.303 10.3145 168.653 9.00049 170.525 9.00049Z" fill="black"/>
<path d="M13.2304 12.4556L7.05048 18.6433L16.5809 28.2022L7.00195 37.8099L13.1625 44.0003L22.7608 34.39L32.307 43.9316L38.4869 37.7439L13.2304 12.4556Z" fill="#53B9FF"/>
<path d="M28.9582 28.2026L22.7617 34.3902L32.3079 43.932L38.4878 37.7443L28.9582 28.2026Z" fill="#119EFF"/>
<path d="M28.9582 28.2026L22.7617 34.3902L25.1471 36.7623L28.9582 28.2026Z" fill="black" fill-opacity="0.2"/>
<path d="M37.4028 19.7792L47.0011 10.1688L40.8185 4.00049L31.223 13.5915L21.676 4.04908L15.4961 10.2368L40.7527 35.5251L46.9326 29.3374L37.4028 19.7792Z" fill="#53B9FF"/>
<path d="M25.0265 19.7794L31.223 13.5917L21.676 4.04932L15.4961 10.237L25.0265 19.7794Z" fill="#119EFF"/>
<path d="M25.0273 19.7796L31.2239 13.592L28.8379 11.2192L25.0273 19.7796Z" fill="black" fill-opacity="0.2"/>
</svg>
