<svg width="168" height="48" viewBox="0 0 168 48" fill="none" xmlns="http://www.w3.org/2000/svg">
<path d="M19.3434 38.3077C16.0287 38.3077 12.9174 37.4523 10.2165 35.958L7.38281 40.9122C10.9205 42.8757 14.9981 44.0004 19.3434 44.0004C23.6886 44.0004 27.7662 42.8757 31.3039 40.9122L28.4701 35.958C25.7692 37.4523 22.658 38.3077 19.3434 38.3077Z" fill="#0BA0BE"/>
<path d="M36.0213 4.00049V10.0387H30.5465C30.5442 10.0387 30.5375 10.0403 30.5338 10.0408C31.8788 12.1378 32.6547 14.6622 32.6547 17.4244C32.6547 24.9662 26.8121 30.8848 19.3 30.8848C11.7358 30.8848 5.94531 24.9662 5.94531 17.4244C5.94531 9.83001 11.7358 4.01642 19.3 4.01642C22.7957 4.01642 25.9288 5.27639 28.281 7.38791C28.9113 6.68496 29.8876 5.66283 30.4652 5.23429C31.0972 4.76532 31.0009 4.78025 31.681 4.46761C32.3615 4.1548 33.5154 4.00049 36.0213 4.00049ZM66.8026 4.01642C74.3147 4.01642 80.1573 9.83001 80.1573 17.4244C80.1573 24.9662 74.3147 30.8848 66.8026 30.8848C59.2385 30.8848 53.448 24.9662 53.448 17.4244C53.448 9.83001 59.2385 4.01642 66.8026 4.01642ZM96.5991 4.01827C104.11 4.01827 109.953 9.83152 109.953 17.4254C109.953 24.9667 104.11 30.8848 96.5991 30.8848C89.0354 30.8848 83.2453 24.9667 83.2453 17.4254C83.2453 9.83152 89.0354 4.01827 96.5991 4.01827ZM149.615 4.00376C151.856 4.00376 153.784 4.40563 155.346 5.19831C156.901 5.98814 158.199 7.03694 159.204 8.31552C160.205 9.59092 160.939 11.0461 161.386 12.6412C161.829 14.2237 162.053 15.8537 162.053 17.4867V19.3496H142.231C142.28 20.2168 142.498 21.2194 142.881 21.9452C143.325 22.7864 143.915 23.5138 144.638 24.1064C145.366 24.7053 146.222 25.1766 147.182 25.5081C148.146 25.8422 149.158 26.0112 150.189 26.0112C151.57 26.0112 152.784 25.6874 153.795 25.0483C154.834 24.3918 155.804 23.5118 156.677 22.4331L156.911 22.144L161.06 25.3289L160.825 25.6339C158.152 29.1051 154.363 30.8648 149.562 30.8648C147.573 30.8648 145.742 30.5198 144.118 29.84C142.494 29.1595 141.097 28.2034 139.969 26.9978C138.843 25.7957 137.964 24.36 137.358 22.73C136.753 21.1061 136.446 19.3248 136.446 17.4347C136.446 15.5412 136.78 13.7559 137.44 12.129C138.099 10.501 139.022 9.06728 140.181 7.86668C141.343 6.66458 142.746 5.71005 144.352 5.02908C145.959 4.34861 147.73 4.00376 149.615 4.00376ZM116.165 4.60635L122.982 23.0324L129.902 4.60635H135.892L125.99 30.2686H119.975L110.175 4.60635H116.165ZM52.2454 4.00051V10.0387H46.7707C46.7152 10.0387 46.3496 10.1584 45.9633 10.2891L45.8266 10.3355C45.5989 10.413 45.3759 10.4899 45.2165 10.544V30.2686H39.7035V4.60114H45.2165V6.61957C45.7374 6.07445 46.3029 5.52112 46.6893 5.23431C47.3215 4.76534 47.2251 4.78027 47.9053 4.46763C48.5856 4.15481 49.7395 4.00051 52.2454 4.00051ZM96.5991 9.62203C92.3217 9.62203 89.0354 13.1309 89.0354 17.4254C89.0354 21.7197 92.3217 25.2287 96.5991 25.2287C100.929 25.2287 104.11 21.7197 104.11 17.4254C104.11 13.1309 100.929 9.62203 96.5991 9.62203ZM19.3 9.62052C15.0224 9.62052 11.7358 13.1295 11.7358 17.4244C11.7358 21.719 15.0224 25.2282 19.3 25.2282C23.6299 25.2282 26.8121 21.719 26.8121 17.4244C26.8121 13.1295 23.6299 9.62052 19.3 9.62052ZM66.8026 9.62052C62.525 9.62052 59.2385 13.1297 59.2385 17.4244C59.2385 21.719 62.525 25.2282 66.8026 25.2282C71.1325 25.2282 74.3147 21.719 74.3147 17.4244C74.3147 13.1297 71.1325 9.62052 66.8026 9.62052ZM149.511 8.54346C148.423 8.54346 147.414 8.75228 146.511 9.16422C145.603 9.57901 144.826 10.1231 144.203 10.7821C143.577 11.444 143.084 12.1909 142.737 13.0011C142.45 13.6746 142.281 14.142 142.234 14.8015H156.259C156.201 13.9463 156.048 13.3551 155.803 12.6321C155.526 11.815 155.106 11.0941 154.553 10.4891C154 9.88696 153.3 9.40726 152.471 9.06476C151.634 8.71874 150.638 8.54346 149.511 8.54346Z" fill="black"/>
</svg>
