<svg width="280" height="48" viewBox="0 0 280 48" fill="none" xmlns="http://www.w3.org/2000/svg">
<path d="M77.4865 20.7473C75.2455 20.7473 72.6713 21.8337 72.6713 30.2856C72.6713 38.7374 75.2455 39.8201 77.4865 39.8201C78.8804 39.8201 80.7402 39.4022 81.6701 36.1393C81.9389 35.1983 82.8485 34.5925 83.8171 34.6349C85.2349 34.6901 86.1924 36.0951 85.7892 37.4706C84.5297 41.7794 81.7953 43.884 77.4865 43.884C71.2516 43.884 68.3496 39.5624 68.3496 30.2837C68.3496 21.0069 71.2516 16.6852 77.4865 16.6852C81.7953 16.6852 84.5297 18.7881 85.791 23.0969C86.1924 24.4724 85.2349 25.8773 83.8171 25.9344C82.8485 25.9731 81.9389 25.3691 81.6701 24.4282C80.7402 21.1671 78.8804 20.7473 77.4865 20.7473ZM102.419 33.5521C102.419 29.317 100.964 27.1681 98.0914 27.1681C95.2225 27.1681 93.7678 29.317 93.7678 33.5521C93.7678 37.7854 95.2225 39.9325 98.0932 39.9325C100.962 39.9325 102.419 37.7854 102.419 33.5521ZM98.0914 23.2184C103.621 23.2184 106.667 26.8882 106.667 33.5521C106.667 40.2142 103.621 43.8822 98.0932 43.8822C92.5636 43.8822 89.5198 40.2142 89.5198 33.5521C89.5198 26.8864 92.5636 23.2184 98.0932 23.2184H98.0914ZM123.023 33.0955C123.023 29.4404 121.311 27.1681 118.549 27.1681C114.916 27.1681 114.373 31.1657 114.373 33.5521C114.373 35.9349 114.916 39.9325 118.549 39.9325C121.311 39.9325 123.023 37.6621 123.023 34.007V33.0936V33.0955ZM123.023 25.3654V17.3297C123.023 16.1752 123.95 15.2397 125.091 15.2397C126.233 15.2397 127.159 16.1752 127.159 17.3297V41.5068C127.159 42.5693 126.307 43.4292 125.259 43.4292C123.935 43.4016 123.348 42.7056 123.285 41.5326C122.121 43.0775 120.346 43.884 118.061 43.884C113.091 43.884 110.125 40.0209 110.125 33.5521C110.125 27.1773 113.152 23.2184 118.024 23.2184C120.123 23.2184 121.847 23.9678 123.023 25.3654ZM136.132 31.1952H144.51C144.019 28.4884 142.643 27.1681 140.321 27.1681C138.001 27.1681 136.626 28.4865 136.132 31.1952ZM148.812 31.3425C148.83 31.4806 148.843 31.6187 148.854 31.7531C149 33.4509 147.7 34.9166 146.013 34.9166H136.001C136.305 38.336 137.773 39.9343 140.586 39.9343C141.955 39.9343 142.988 39.5182 143.711 38.7356C144.869 37.4853 145.803 37.036 147.037 37.6216C148.108 38.1279 148.442 39.2622 147.724 40.3818C146.25 42.6743 143.824 43.884 140.548 43.884C134.849 43.884 131.711 40.2013 131.711 33.5135C131.711 26.8735 134.768 23.2165 140.321 23.2165C145.238 23.2165 148.184 26.0817 148.812 31.3443V31.3425ZM156.417 43.4292C155.336 43.4292 154.461 42.5454 154.461 41.4534V19.114C154.461 18.0239 155.336 17.14 156.415 17.14H168.524C169.604 17.14 170.479 18.0239 170.479 19.114C170.479 20.2059 169.604 21.0898 168.524 21.0898H158.672V28.0796H166.268C167.347 28.0796 168.222 28.9653 168.222 30.0554C168.222 31.1473 167.347 32.0312 166.268 32.0312H158.672V41.4534C158.672 42.5435 157.796 43.4292 156.715 43.4292H156.415H156.417ZM185.855 35.3751H181.31C179.714 35.3751 177.811 35.7765 177.811 37.6915C177.811 39.6434 179.627 39.9343 180.708 39.9343C183.562 39.9343 185.735 37.9898 185.855 35.3751ZM182.098 23.2165C187.265 23.2165 189.996 25.7797 189.996 30.6244V41.4737C189.996 42.5546 189.129 43.4255 188.062 43.4219C186.587 43.3924 186.072 42.5638 186.105 41.2822C184.7 42.9523 182.588 43.884 180.104 43.884C176.132 43.884 173.563 41.4682 173.563 37.7302C173.563 33.7878 176.314 31.615 181.31 31.615H185.858V30.8159C185.858 28.3282 184.639 27.1681 182.023 27.1681C180.513 27.1681 179.436 27.529 178.868 28.3392C178.778 28.4677 178.697 28.6032 178.627 28.7443C178.264 29.4698 177.554 29.9412 176.753 29.9412C175.265 29.9412 174.212 28.3926 174.825 27.0245C174.935 26.7767 175.063 26.5373 175.208 26.3082C176.298 24.6086 178.309 23.2165 182.098 23.2165ZM203.87 39.9343C205.933 39.9343 206.997 38.5293 207.502 37.5019C207.828 36.8371 208.514 36.4394 209.247 36.4394H209.652C211.1 36.4394 212.048 37.9751 211.413 39.2917C210.081 42.271 207.467 43.884 203.87 43.884C198.343 43.884 195.297 40.2124 195.297 33.5521C195.297 26.9785 198.262 23.3178 203.65 23.2184C206.749 23.1631 209.479 24.8793 211.07 27.4204L211.131 27.5253C211.941 28.888 210.925 30.6262 209.352 30.6262C208.573 30.6262 207.852 30.1898 207.52 29.4772C207.417 29.254 207.296 29.0391 207.159 28.8346C206.419 27.7426 205.34 27.1681 203.87 27.1681C201.002 27.1681 199.547 29.317 199.547 33.5521C199.547 37.7873 201.002 39.9343 203.87 39.9343ZM229.254 36.5517C229.254 35.2683 229.843 34.5557 231.198 34.5759C232.367 34.5759 233.316 35.5334 233.316 36.7156V36.9329C233.316 41.4626 230.659 44.0148 226.05 43.8804C222.389 43.7717 219.513 40.6322 219.513 36.9329V27.5088H216.714C215.664 27.5088 214.814 26.6507 214.814 25.5919C214.814 24.5313 215.664 23.6732 216.712 23.6732H219.706L219.758 19.0348C219.771 17.9852 220.616 17.14 221.656 17.14H221.752C222.8 17.14 223.649 18 223.649 19.0587V23.6732H230.062C231.112 23.6732 231.959 24.5313 231.959 25.5919C231.959 26.6507 231.112 27.5088 230.062 27.5088H223.65V36.5499C223.65 39.5513 225.138 39.9343 226.433 39.9343C228.385 39.9343 229.254 38.8921 229.254 36.5517ZM249.822 33.5503C249.822 29.3151 248.367 27.1681 245.496 27.1681C242.626 27.1681 241.171 29.317 241.171 33.5521C241.171 37.7854 242.626 39.9325 245.498 39.9325C248.365 39.9325 249.82 37.7854 249.82 33.5521L249.822 33.5503ZM245.496 23.2184C251.026 23.2184 254.07 26.8882 254.07 33.5521C254.07 40.2142 251.026 43.8822 245.496 43.8822C239.967 43.8822 236.923 40.2142 236.923 33.5521C236.923 26.8864 239.967 23.2184 245.496 23.2184ZM268.773 23.2184C272.944 23.2184 275.242 25.9436 275.242 30.8914V31.8783C275.242 33.0329 274.316 33.9683 273.174 33.9683C272.032 33.9683 271.106 33.0329 271.106 31.8783V31.2707C271.106 28.5491 270.057 27.1681 267.985 27.1681C265.416 27.1681 263.621 29.1991 263.621 32.1085V41.3411C263.621 42.4938 262.697 43.4292 261.555 43.4292C260.413 43.4292 259.487 42.4938 259.487 41.3411V25.6453C259.487 24.6013 260.297 23.6879 261.328 23.675C262.894 23.6511 263.348 24.5037 263.369 25.6932C264.628 24.0857 266.497 23.2165 268.773 23.2165V23.2184Z" fill="#232344"/>
<path d="M13.5098 8.41977C13.5098 10.8614 11.5506 12.839 9.13474 12.839C6.71703 12.839 4.75781 10.8614 4.75781 8.41977C4.75781 5.97812 6.71703 4.00049 9.13474 4.00049C11.5506 4.00049 13.5098 5.97812 13.5098 8.41977ZM13.5098 24.0014C13.5098 26.4412 11.5506 28.4207 9.13474 28.4207C6.71703 28.4207 4.75781 26.4412 4.75781 24.0014C4.75781 21.5598 6.71703 19.5821 9.13474 19.5821C11.5506 19.5821 13.5098 21.5598 13.5098 24.0014ZM13.5098 39.5812C13.5098 42.0229 11.5506 44.0005 9.13474 44.0005C6.71703 44.0005 4.75781 42.0229 4.75781 39.5812C4.75781 37.1396 6.71703 35.1619 9.13474 35.1619C11.5506 35.1619 13.5098 37.1396 13.5098 39.5812Z" fill="#F44A6A"/>
<path d="M23.4063 4.00049C20.9905 4.00049 19.0312 5.97812 19.0312 8.41977C19.0312 10.8614 20.9905 12.839 23.4063 12.839H39.9786C42.3945 12.839 44.3519 10.8614 44.3519 8.41977C44.3519 5.97812 42.3945 4.00049 39.9768 4.00049H23.4045H23.4063Z" fill="url(#paint0_linear_139_92)"/>
<path d="M23.4063 19.5806C20.9905 19.5806 19.0312 21.56 19.0312 23.9998C19.0312 26.4415 20.9905 28.421 23.4063 28.421H32.8673C35.2831 28.421 37.2424 26.4415 37.2424 24.0017C37.2424 21.56 35.2831 19.5824 32.8673 19.5824H23.4063V19.5806Z" fill="url(#paint1_linear_139_92)"/>
<defs>
<linearGradient id="paint0_linear_139_92" x1="19.0307" y1="8.41959" x2="44.3524" y2="8.41959" gradientUnits="userSpaceOnUse">
<stop stop-color="#0AA1A5"/>
<stop offset="1" stop-color="#50D690"/>
</linearGradient>
<linearGradient id="paint1_linear_139_92" x1="19.0309" y1="24.0006" x2="37.2427" y2="24.0006" gradientUnits="userSpaceOnUse">
<stop stop-color="#0AA1A5"/>
<stop offset="1" stop-color="#50D690"/>
</linearGradient>
</defs>
</svg>
