<svg width="160" height="56" viewBox="0 0 160 56" fill="none" xmlns="http://www.w3.org/2000/svg">
<path d="M155.228 28.399C154.43 27.8826 153.397 28.0704 152.834 28.8684C152.74 29.0093 150.675 32.0136 147.06 32.0136C145.652 32.0136 144.572 31.5911 143.868 30.6992C143.821 30.6523 143.774 30.5584 143.727 30.5114C143.727 30.5114 143.774 30.5114 143.774 30.4645C152.318 25.5824 152.224 21.4045 151.848 19.8554C151.332 17.9777 149.689 16.7572 147.576 16.7572C142.694 16.7572 139.455 22.2025 139.455 27.2724C139.455 27.9296 139.502 28.5398 139.596 29.1501C137.859 30.4175 135.183 32.0136 132.836 32.0136C131.475 32.0136 130.442 31.5911 129.785 30.7931C129.55 30.5114 129.363 30.1828 129.222 29.8542C135.747 27.9765 138.235 23.7986 137.765 20.4657C137.484 18.3063 135.841 16.7572 133.822 16.7572C129.269 16.7572 125.983 21.5453 125.466 26.2396C124.574 26.1457 123.823 25.911 123.119 25.4416C123.213 24.6905 123.307 23.9394 123.307 23.2353C123.307 21.6862 123.025 20.3718 122.462 19.339C121.711 17.9777 120.443 17.2266 118.988 17.2266C118.19 17.2266 117.486 17.6491 117.063 18.4002C116.218 19.9493 116.782 22.9536 118.331 25.3477C118.613 25.8171 118.941 26.2396 119.317 26.6621C118.472 29.3848 116.688 31.9667 114.435 31.9667C113.402 31.9667 112.651 31.6381 111.994 30.9809C111.102 29.9951 110.491 28.2582 110.304 26.0519C116.688 18.0716 119.833 10.2321 118.049 6.5236C117.439 5.25615 116.312 4.552 114.951 4.552C110.538 4.552 107.91 10.279 106.877 22.0617C106.83 22.7659 106.783 23.6578 106.783 24.5966C104.436 27.7887 100.54 31.9667 97.0658 31.9667C96.08 31.9667 95.3289 31.6381 94.8595 30.9339C94.8125 30.887 94.7656 30.7931 94.7186 30.7461C94.7656 30.7461 94.8125 30.6992 94.8595 30.6523C103.45 25.113 103.309 20.9351 102.887 19.4329C102.417 17.7899 100.915 16.7102 98.9904 16.7102C94.0145 16.7102 90.6346 22.4373 90.6346 27.7887C90.6346 28.2582 90.6815 28.7276 90.7285 29.197C89.1324 30.3237 87.865 31.3564 86.5975 32.3422C86.7853 30.887 87.0669 29.0093 87.3955 26.2396C87.4894 25.6763 87.5364 25.2069 87.5833 24.9722C87.865 22.9536 84.532 22.5311 84.1565 24.7844C83.7809 27.1315 82.7951 31.9667 80.0255 31.9667C78.3825 31.9667 77.4906 30.1359 77.6784 27.4601C77.9131 23.2353 80.2133 19.8084 83.0298 19.8084C84.0156 19.8084 84.4851 20.8412 84.4851 20.8412C85.377 22.4373 88.1466 21.0759 87.5364 19.386C87.2547 18.6349 86.3628 16.7102 83.1237 16.7102C76.5517 16.7102 74.4862 23.3761 74.2046 27.7887C74.1576 28.4929 74.1576 29.197 74.2515 29.9012C73.3127 31.0278 72.233 31.9667 71.1533 31.9667C70.1205 31.9667 69.4633 30.7931 69.8389 28.1173C70.2144 25.5355 70.4961 23.4231 70.6369 22.2025C71.4349 16.6163 64.4404 16.7572 64.4404 16.7572C64.4404 16.7572 64.3466 13.4712 61.6708 13.4712C60.3095 13.4712 59.042 14.5508 59.042 16.5694C59.042 18.4471 60.5911 19.386 60.5911 19.386C60.2625 22.2964 58.9012 31.9667 55.8499 31.9667C54.4885 31.9667 54.3947 30.5114 54.5355 29.4787C54.7233 28.0704 54.958 25.6294 55.0519 25.0191C55.3335 23.0006 52.0006 22.5781 51.625 24.8313C51.2495 27.1785 50.2637 32.0136 47.4941 32.0136C45.8511 32.0136 44.9591 29.9481 45.1 27.4132C45.3347 23.1414 47.6349 19.8554 50.4515 19.8554C51.4373 19.8554 51.9067 20.8881 51.9067 20.8881C52.6578 22.4842 55.5213 21.3576 54.958 19.4329C54.7233 18.5879 53.7844 16.7572 50.5453 16.7572C43.9733 16.7572 41.9078 23.4231 41.6262 27.8357C41.5792 28.5398 41.5792 29.197 41.6262 29.8073C40.6873 31.0748 39.5607 32.0136 38.481 32.0136C37.4952 32.0136 36.7441 31.4972 36.9319 29.2909C37.0258 28.2582 38.1994 21.1698 38.1524 19.9023C38.0116 17.743 37.0258 16.8041 34.6317 16.8041C32.0968 16.8041 30.2191 18.1185 29.421 18.9165C29.421 18.9165 30.5946 9.99738 30.8293 8.26049C31.064 6.47666 27.5903 6.42972 27.4025 8.26049C27.3086 9.05852 26.3697 16.1 25.5248 22.672C23.5532 26.9907 19.6569 33.5627 13.8829 33.5627C2.94523 33.5627 7.96812 9.71572 18.2486 9.71572C20.6427 9.71572 19.563 13.565 17.967 15.8652C16.8403 17.5552 19.7038 19.4329 21.2999 16.7572C25.7125 9.29324 22.004 6.5236 18.4833 6.5236C3.27383 6.5236 -2.35932 36.8487 13.4604 36.8487C18.6711 36.8487 22.1918 33.9383 24.4451 30.7461C24.2104 32.53 24.0695 33.7505 24.0226 33.9852C23.7409 35.8629 27.2617 35.7221 27.4494 34.126C27.5903 33.1402 28.1066 28.9623 28.5291 25.7233C28.7638 23.8925 31.0171 20.5126 33.552 20.5126C34.1623 20.5126 34.5378 21.1229 34.4909 21.6392C34.397 22.2495 33.3173 30.1828 33.3642 31.3564C33.552 34.6894 35.9461 35.4404 38.1994 35.4404C39.9832 35.4404 41.4384 34.5955 42.612 33.2811C43.41 34.5955 44.6305 35.4404 46.3205 35.4404C50.1229 35.4404 51.4373 32.7178 51.4373 32.7178C51.4373 32.7178 51.9067 35.4404 55.1927 35.4404C61.8586 35.4404 63.4077 23.8455 63.7363 19.9493C64.1118 19.9493 66.459 20.0901 66.8815 21.4045C67.257 22.672 66.0834 26.7091 65.9896 30.887C65.9426 33.0933 66.7407 35.4404 70.2144 35.4404C72.3269 35.4404 74.0168 34.4546 75.1904 33.375C75.9884 34.6424 77.2089 35.4404 78.8519 35.4404C80.7296 35.4404 81.9971 34.8302 82.7951 34.2199C82.7482 34.5955 82.7012 34.9241 82.6543 35.2996V35.3466C82.6543 35.2996 73.876 41.6369 73.876 47.5987C73.876 49.9458 74.9557 51.448 77.7253 51.448C83.2176 51.448 84.9545 44.0779 85.7525 38.0223C85.7995 37.7406 85.8464 37.459 85.8464 37.2243C86.6914 36.5671 87.4894 35.9568 88.2875 35.3466C89.4141 34.4546 90.5407 33.6097 91.8082 32.6708C91.8551 32.7647 91.949 32.8586 91.9959 32.9525C93.1695 34.5485 94.9064 35.3935 97.0188 35.3935C101.009 35.3935 104.717 32.3422 107.346 29.3379C107.769 30.7931 108.379 32.2014 109.412 33.328C110.679 34.6894 112.416 35.4404 114.388 35.4404C118.19 35.4404 120.819 32.3892 122.227 28.8684C123.26 29.3379 124.433 29.6195 125.654 29.7134C125.936 30.9339 126.405 32.0606 127.156 32.9525C128.095 34.0791 129.832 35.4404 132.883 35.4404C135.935 35.4404 138.939 33.7974 140.957 32.4361C141.051 32.5769 141.145 32.7178 141.239 32.8586C142.178 34.0322 144.009 35.4404 147.107 35.4404C152.599 35.4404 155.651 30.9339 155.791 30.7461C156.214 29.9951 155.979 28.9154 155.228 28.399ZM78.1478 48.115C77.6314 48.115 77.2559 47.7864 77.2559 47.1292C77.2559 44.1249 81.9032 40.0408 81.9502 40.0408C81.3868 44.0779 79.7438 48.115 78.1478 48.115ZM98.8965 19.9493C99.319 19.9493 99.4129 20.2779 99.5068 20.4657C99.6946 21.1229 99.0374 23.6108 94.0145 27.0846C94.2961 23.7986 96.3147 19.9493 98.8965 19.9493ZM114.857 8.07272C116.312 8.07272 115.139 13.0487 110.491 19.9962C111.571 10.7485 113.073 8.07272 114.857 8.07272ZM133.447 19.9493C134.198 19.9493 134.245 20.7004 134.292 20.982C134.479 22.3903 133.165 24.9252 128.846 26.3805C129.316 23.3292 131.334 19.9493 133.447 19.9493ZM147.529 19.9493C148.046 19.9493 148.327 20.3248 148.468 20.7943C148.75 21.7801 147.436 24.268 142.835 27.0846C142.929 23.7986 144.901 19.9493 147.529 19.9493Z" fill="#222222"/>
</svg>
