<svg width="152" height="160" viewBox="0 0 152 160" fill="none" xmlns="http://www.w3.org/2000/svg">
<path d="M49.836 44.6694C52.3495 44.6694 68.6711 51.8733 68.6711 77.7504C68.6711 90.1172 64.5092 100.426 62.0519 100.426C60.9688 100.426 60.5567 99.3427 60.5567 97.2629C60.5567 92.6847 62.1705 88.6285 62.1705 78.8551C62.1705 59.9855 54.3992 52.3717 50.9191 48.0869C49.8922 46.8183 49.1133 45.992 49.1133 45.2476C49.1133 44.9434 49.329 44.6694 49.836 44.6694ZM90.9731 45.2476C90.9731 45.992 90.1943 46.8183 89.1673 48.0869C85.6894 52.3717 77.9202 59.9855 77.9202 78.8551C77.9202 88.6285 79.5276 92.6847 79.5276 97.2629C79.5276 99.3427 79.1199 100.426 78.0368 100.426C75.5794 100.426 71.4153 90.1172 71.4153 77.7504C71.4153 51.8733 87.7391 44.6694 90.2569 44.6694C90.7596 44.6694 90.9731 44.9434 90.9731 45.2476Z" fill="#0982C6"/>
<path d="M64.084 49.8494C64.084 53.228 66.7506 55.9637 70.0408 55.9637C73.3396 55.9637 76.0085 53.228 76.0085 49.8494C76.0085 46.4664 73.3396 43.7329 70.0408 43.7329C66.7506 43.7329 64.084 46.4664 64.084 49.8494Z" fill="#F8971F"/>
<path d="M39.084 40.1818C35.9685 38.7729 33.6363 35.9488 33.2566 33.2109C35.5694 31.6877 39.2221 31.5712 42.3418 32.9801C45.6018 34.4558 46.3655 36.952 46.385 39.144C44.7258 40.5831 42.3504 41.6597 39.084 40.1818ZM48.0225 23.7136C46.0182 20.6327 45.55 16.7319 46.7906 14.0372C49.7615 13.9983 53.1336 16.0135 55.1358 19.0922C57.2307 22.3177 56.4735 25.0146 55.2178 27.0081C52.8812 27.3447 50.1131 26.9412 48.0225 23.7136ZM52.6611 40.0286C50.1886 37.9337 48.8014 34.7557 49.1682 32.1602C51.6687 31.3749 55.0323 32.2206 57.5048 34.3134C60.0938 36.5119 60.1347 38.9801 59.5802 40.9865C57.6924 41.8582 55.2501 42.2206 52.6611 40.0286ZM60.2233 32.1429C59.1596 28.706 59.7594 24.9002 61.6515 22.6844C64.4627 23.4417 67.1035 26.2508 68.1672 29.6899C69.2805 33.2907 67.8457 35.6295 66.1283 37.1742C63.8414 36.8679 61.3322 35.746 60.2233 32.1429ZM47.2005 57.2498C44.7388 57.7288 42.1412 57.0233 40.7474 55.5454C41.481 53.6489 43.632 52.0243 46.1002 51.5454C48.6784 51.0448 50.1951 52.2164 51.1401 53.5238C50.7539 55.0945 49.7895 56.745 47.2005 57.2498ZM40.6935 49.9575C37.8909 49.6533 35.3343 48.0416 34.331 45.9898C35.7464 44.1991 38.592 43.1656 41.399 43.4698C44.3375 43.7891 45.5781 45.5497 46.1585 47.267C45.2199 48.8248 43.6341 50.2768 40.6935 49.9575ZM40.4432 29.1289C38.2425 27.2627 37.0085 24.4407 37.3343 22.1321C39.5587 21.4309 42.5467 22.1861 44.7474 24.0458C47.0451 26.0005 47.0883 28.1947 46.5943 29.979C44.9136 30.7578 42.7431 31.0771 40.4432 29.1289ZM55.44 14.3263C54.5512 11.4611 55.056 8.28742 56.6288 6.44276C58.9762 7.07706 61.179 9.41795 62.0658 12.2788C62.9935 15.2821 61.7918 17.2281 60.3635 18.5226C58.4541 18.2637 56.3699 17.3295 55.44 14.3263ZM18.5898 88.6739C18.5898 88.7515 18.6395 88.8141 18.7387 88.8141C18.8293 88.8141 18.9954 88.7386 19.1745 88.6739C27.9814 85.5153 40.9826 81.6425 59.2308 80.4581C59.2523 80.2941 59.3623 79.4807 59.3623 78.8551C59.3623 77.5347 59.2048 76.156 59.1639 75.9273C40.4648 77.6425 27.5607 83.0643 19.0817 88.2747C18.7387 88.4883 18.5898 88.5379 18.5898 88.6739ZM93.7034 39.144C93.7228 36.952 94.4843 34.4558 97.7465 32.9801C100.86 31.5712 104.519 31.6877 106.83 33.2109C106.448 35.9488 104.118 38.7729 101.004 40.1818C97.7357 41.6597 95.3647 40.5831 93.7034 39.144ZM84.8705 27.0081C83.617 25.0146 82.8597 22.3177 84.9546 19.0922C86.9546 16.0135 90.3268 13.9983 93.2977 14.0372C94.5361 16.7319 94.0657 20.6327 92.0679 23.7136C89.9773 26.9412 87.2027 27.3447 84.8705 27.0081ZM80.5037 40.9865C79.9535 38.9801 79.9945 36.5119 82.5835 34.3134C85.0582 32.2206 88.4175 31.3749 90.9224 32.1602C91.2848 34.7557 89.8975 37.9337 87.425 40.0286C84.8403 42.2206 82.3915 41.8582 80.5037 40.9865ZM73.9557 37.1742C72.2405 35.6295 70.8079 33.2907 71.919 29.6899C72.9783 26.2508 75.6277 23.4417 78.4368 22.6844C80.3289 24.9002 80.9288 28.706 79.8652 32.1429C78.7519 35.746 76.2492 36.8679 73.9557 37.1742ZM88.9482 53.5238C89.8953 52.2164 91.4057 51.0448 93.9903 51.5454C96.4585 52.0243 98.6052 53.6489 99.3409 55.5454C97.9493 57.0233 95.3517 57.7288 92.8835 57.2498C90.2989 56.745 89.3301 55.0945 88.9482 53.5238ZM93.9277 47.267C94.5102 45.5497 95.7508 43.7891 98.6893 43.4698C101.496 43.1656 104.338 44.1991 105.755 45.9898C104.752 48.0416 102.197 49.6533 99.3949 49.9575C96.4521 50.2768 94.8619 48.8248 93.9277 47.267ZM93.4919 29.979C92.9978 28.1947 93.0367 26.0005 95.3409 24.0458C97.5415 22.1861 100.53 21.4309 102.752 22.1321C103.078 24.4407 101.841 27.2627 99.643 29.1289C97.3431 31.0771 95.1705 30.7578 93.4919 29.979ZM79.7227 18.5226C78.2923 17.2281 77.0949 15.2821 78.0227 12.2788C78.9094 9.41795 81.1121 7.07706 83.4487 6.44276C85.0344 8.28742 85.5307 11.4611 84.6483 14.3263C83.7184 17.3295 81.6321 18.2637 79.7227 18.5226ZM121.002 88.2747C112.528 83.0643 99.6214 77.6425 80.9223 75.9273C80.8857 76.156 80.726 77.5347 80.726 78.8551C80.726 79.4807 80.8339 80.2941 80.8554 80.4581C99.1014 81.6425 112.1 85.5153 120.912 88.6739C121.093 88.7386 121.263 88.8141 121.345 88.8141C121.449 88.8141 121.499 88.7515 121.499 88.6739C121.499 88.5379 121.345 88.4883 121.002 88.2747ZM70.0442 21.5345C67.6213 20.4061 65.2351 18.3112 65.2351 13.9552C65.2351 9.79552 67.1985 5.79551 70.0442 4.00047C72.89 5.79551 74.8533 9.79552 74.8533 13.9552C74.8533 18.3112 72.4714 20.4061 70.0442 21.5345Z" fill="#56B948"/>
<path d="M37.3769 111.14C37.3769 113.269 39.131 114.995 41.3014 114.995C43.4697 114.995 45.2259 113.269 45.2259 111.14C45.2259 109.012 43.4697 107.288 41.3014 107.288C39.131 107.288 37.3769 109.012 37.3769 111.14ZM68.0177 131.431C68.0177 137.515 65.638 140.05 62.1968 140.05C58.7254 140.05 56.7793 137.105 56.7793 131.94C56.7793 126.667 59.7978 122.307 65.3835 122.307C66.5356 122.307 67.3403 122.421 68.0177 122.585V131.431ZM68.3522 141.411V143.388C68.3522 148.812 65.0124 150.917 60.8678 150.917C57.1418 150.917 54.3931 149.798 53.5258 149.493V154.859C54.2335 155.049 57.2583 156 61.5755 156C69.2411 156 74.363 152.838 74.363 141.994V118.596C73.3792 118.346 69.7805 117.392 65.6381 117.392C54.8851 117.392 50.2637 124.598 50.2637 132.395C50.2637 139.562 53.8711 145.183 60.7772 145.183C65.3317 145.183 67.5216 142.432 68.2336 141.411H68.3522ZM31.789 138.102C30.063 138.911 27.3014 139.444 24.6283 139.444C17.3381 139.444 11.9702 134.229 11.9702 126.285C11.9702 118.391 17.3014 113.114 24.6283 113.114C28.2593 113.114 30.844 114.003 31.789 114.451V108.773C30.1968 108.182 27.6099 107.584 23.9551 107.584C12.6411 107.584 5.03809 115.405 5.03809 126.285C5.03809 136.568 12.0349 144.976 23.9551 144.976C27.4502 144.976 30.0824 144.421 31.789 143.783V138.102ZM127.791 131.431C127.791 137.515 125.41 140.05 121.97 140.05C118.495 140.05 116.542 137.105 116.542 131.94C116.542 126.667 119.574 122.307 125.155 122.307C126.296 122.307 127.105 122.421 127.791 122.585V131.431ZM134.935 144.589C134.73 143.107 134.134 139.196 134.134 135.832V118.596C133.144 118.346 129.543 117.392 125.41 117.392C114.652 117.392 110.037 124.598 110.037 132.395C110.037 139.562 113.632 145.183 120.544 145.183C125.591 145.183 127.854 141.918 128.708 140.177H128.874C128.937 141.004 129.166 143.813 129.239 144.589H134.935ZM44.4772 118.072H38.1342V144.589H44.4772V118.072ZM81.5453 144.589V126.24C81.5453 123.78 81.321 119.062 81.2563 117.992H86.9563L87.2239 121.722H87.3426C88.0049 120.678 90.1387 117.392 95.1118 117.392C101.116 117.392 104.452 121.804 104.452 127.304V144.589H98.1128V128.557C98.1128 125.181 96.2337 122.628 93.0039 122.628C89.6706 122.628 87.8948 125.321 87.8948 128.557V144.589H81.5453ZM144.245 140.032C144.083 139.939 143.818 139.896 143.462 139.896H142.907V141.222H143.492C143.764 141.222 143.973 141.201 144.111 141.145C144.364 141.043 144.491 140.854 144.491 140.569C144.491 140.301 144.409 140.122 144.245 140.032ZM143.546 139.455C144.001 139.455 144.338 139.499 144.549 139.585C144.931 139.747 145.119 140.053 145.119 140.515C145.119 140.845 144.998 141.091 144.761 141.242C144.634 141.324 144.457 141.384 144.23 141.419C144.517 141.464 144.724 141.585 144.862 141.781C144.994 141.973 145.061 142.163 145.061 142.349V142.618C145.061 142.702 145.063 142.795 145.067 142.89C145.076 142.987 145.084 143.054 145.102 143.082L145.121 143.128H144.517C144.513 143.115 144.513 143.102 144.508 143.091C144.506 143.08 144.5 143.065 144.5 143.05L144.487 142.933V142.642C144.487 142.219 144.368 141.937 144.14 141.801C144.001 141.725 143.76 141.68 143.419 141.68H142.907V143.128H142.263V139.455H143.546ZM141.574 139.268C141.015 139.829 140.739 140.506 140.739 141.304C140.739 142.105 141.015 142.793 141.572 143.356C142.131 143.921 142.811 144.206 143.611 144.206C144.409 144.206 145.091 143.921 145.652 143.356C146.206 142.793 146.487 142.105 146.487 141.304C146.487 140.506 146.206 139.829 145.652 139.268C145.084 138.7 144.405 138.42 143.611 138.42C142.817 138.42 142.137 138.7 141.574 139.268ZM145.98 143.676C145.328 144.331 144.539 144.659 143.611 144.659C142.683 144.659 141.893 144.331 141.244 143.676C140.597 143.022 140.271 142.23 140.271 141.3C140.271 140.379 140.601 139.591 141.251 138.938C141.902 138.286 142.692 137.96 143.611 137.96C144.539 137.96 145.328 138.286 145.98 138.938C146.636 139.587 146.962 140.377 146.962 141.3C146.962 142.228 146.636 143.02 145.98 143.676Z" fill="#0982C6"/>
</svg>
