<svg width="160" height="56" viewBox="0 0 160 56" fill="none" xmlns="http://www.w3.org/2000/svg">
<path d="M60.8192 20.9853C62.725 19.0795 64.6307 17.9036 67.0636 17.9036C69.902 17.9036 71.8483 18.9578 72.6998 21.4718C75.2137 18.8767 77.2006 17.9036 79.5119 17.9036C83.5666 17.9036 85.5941 20.2149 85.5941 25.405V37.5289H80.9716V26.6214C80.9716 23.5803 80.4445 22.2017 78.2549 22.2017C76.7141 22.2017 75.0921 23.1343 73.2269 25.1212V37.5289H68.645V26.6214C68.645 23.5803 67.9962 22.2017 65.8471 22.2017C64.1442 22.2017 62.4411 23.2965 60.8192 25.1617V37.5289H56.2373V18.2686H60.8192V20.9853ZM107.057 28.0001C107.057 34.0418 103.245 37.8938 97.244 37.8938C91.2429 37.8938 87.472 34.0418 87.472 28.0001C87.472 21.7963 91.2834 17.8631 97.244 17.9036C103.245 17.8631 107.057 21.7963 107.057 28.0001ZM102.556 28.0001C102.556 23.9452 100.488 21.6746 97.244 21.6746C94.0408 21.6746 91.9728 23.9452 91.9728 28.0001C91.9728 31.8927 94.0003 34.0823 97.244 34.0823C100.488 34.0823 102.556 31.8927 102.556 28.0001ZM108.868 37.5289V11.1726H113.45V37.5289H108.868ZM129.247 36.718C127.703 37.356 126.053 37.6998 124.382 37.7316C120.124 37.7316 118.381 35.7853 118.381 31.0007V22.08H115.542V18.228H118.381V13.6055H123.003V18.228H128.355V22.0801H123.003V30.7979C123.003 33.1091 123.814 33.7579 126.004 33.7579C126.925 33.7717 127.847 33.7175 128.761 33.5957L129.247 36.718ZM133.731 10.1589C135.15 10.1589 136.407 11.0105 136.407 12.6324C136.407 14.2543 135.15 15.0652 133.731 15.0652C132.312 15.0652 131.055 14.2543 131.055 12.6324C131.055 11.0104 132.312 10.1589 133.731 10.1589ZM131.46 37.5289V18.2686H136.042V37.5289H131.46ZM142.862 20.9447C144.971 19.0795 146.998 17.9036 149.715 17.9036C153.973 17.9036 156 20.1743 156 25.405V37.5289H151.418V26.6214C151.418 23.4992 150.931 22.2017 148.377 22.2017C146.309 22.2017 144.484 23.3371 142.862 25.2023V37.5289H138.281V18.2686H142.862V20.9447Z" fill="#3D3D3D"/>
<path d="M44.3867 16.0941L25.7631 5.34183C25.3511 5.10448 24.8438 5.10448 24.4318 5.34183L5.80818 16.0941C5.39629 16.3321 5.14258 16.7718 5.14258 17.2475V38.752C5.14258 39.2276 5.39633 39.667 5.80818 39.9049L24.4318 50.6571C24.8438 50.8945 25.3511 50.8945 25.7631 50.6571L44.3867 39.9049C44.7986 39.667 45.0523 39.2276 45.0523 38.752V17.2475C45.0523 16.7718 44.7986 16.3321 44.3867 16.0941Z" fill="white"/>
<path d="M44.9593 15.1049L26.3348 4.35216C25.5692 3.91093 24.6265 3.91093 23.8609 4.35216L5.23703 15.1044C4.47277 15.5479 4.00171 16.3642 4 17.2478V38.7523C4.00149 39.6359 4.47269 40.452 5.23717 40.8951L23.8606 51.6473C24.626 52.0893 25.5691 52.0893 26.3345 51.6473L44.9584 40.8951C45.7228 40.452 46.194 39.6358 46.1955 38.7523V17.2478C46.1938 16.3645 45.7231 15.5485 44.9593 15.1049ZM45.0526 38.7523C45.0526 39.2278 44.7988 39.6673 44.387 39.9052L25.7634 50.6574C25.3514 50.8947 24.8441 50.8947 24.4321 50.6574L5.80846 39.9052C5.39661 39.6673 5.14286 39.2279 5.14286 38.7523V17.2478C5.14286 16.7721 5.39657 16.3324 5.80846 16.0943L24.4321 5.34212C24.8441 5.10477 25.3514 5.10477 25.7634 5.34212L44.387 16.0943C44.7989 16.3324 45.0526 16.7721 45.0526 17.2478V38.7523Z" fill="#999999"/>
<path d="M8.40023 38.5137C7.93207 38.2434 7.64367 37.7439 7.64367 37.2033V26.2857C7.60944 25.0316 7.79386 23.7811 8.18868 22.5903C8.82371 20.8763 10.0797 19.1994 12.5692 18.2104C17.3394 16.3156 22.0541 18.8775 24.7176 22.6755C26.9541 25.8646 28.2594 27.1325 31.0717 29.2855C33.5619 31.1919 41.3716 34.6204 42.5528 27.7913V37.2033C42.5528 37.7439 42.2644 38.2434 41.7962 38.5137L25.8548 47.7175C25.3866 47.9878 24.8098 47.9878 24.3417 47.7175L8.40023 38.5137Z" fill="url(#paint0_linear_150_229)"/>
<path d="M8.39914 38.5134L24.3406 47.7172C24.8087 47.9875 25.3855 47.9875 25.8537 47.7172L41.7951 38.5134C42.2633 38.2431 42.5517 37.7436 42.5517 37.203V27.791C42.5517 20.8194 34.7755 20.2438 30.7679 25.7846C27.5914 30.1762 26.1844 31.7486 21.9323 33.2948C16.956 35.1044 12.4894 34.1231 9.94915 31.6381C8.49637 30.2335 7.66582 28.306 7.64258 26.2853V37.203C7.64258 37.7436 7.93098 38.2431 8.39914 38.5134Z" fill="url(#paint1_linear_150_229)"/>
<path opacity="0.3" d="M42.5517 27.791C42.5517 20.8194 34.7755 20.2438 30.7678 25.7846C30.2164 26.547 29.719 27.2228 29.25 27.8299C29.7911 28.2896 30.386 28.7611 31.0705 29.2852C33.5608 31.1915 41.3705 34.6201 42.5517 27.791Z" fill="url(#paint2_linear_150_229)"/>
<defs>
<linearGradient id="paint0_linear_150_229" x1="20.9341" y1="20.1592" x2="25.0122" y2="36.3205" gradientUnits="userSpaceOnUse">
<stop offset="0.01093" stop-color="#E67417"/>
<stop offset="0.99952" stop-color="#E62F17"/>
</linearGradient>
<linearGradient id="paint1_linear_150_229" x1="25.0962" y1="22.2163" x2="25.0962" y2="47.2151" gradientUnits="userSpaceOnUse">
<stop stop-color="#F2BB30"/>
<stop offset="0.30905" stop-color="#E67417"/>
<stop offset="1" stop-color="#E62F17"/>
</linearGradient>
<linearGradient id="paint2_linear_150_229" x1="34.7381" y1="30.3605" x2="35.7925" y2="25.4652" gradientUnits="userSpaceOnUse">
<stop stop-color="white"/>
<stop offset="1" stop-color="white" stop-opacity="0"/>
</linearGradient>
</defs>
</svg>
