<svg width="160" height="88" viewBox="0 0 160 88" fill="none" xmlns="http://www.w3.org/2000/svg">
<path d="M37.878 70.9487C36.5164 53.8765 37.5348 44.0588 37.5348 44.0588C37.3975 42.9832 34.8801 42.434 31.9165 42.823C28.9529 43.2121 26.6644 44.4021 26.8131 45.4777C29.819 54.8849 32.1327 64.4994 33.7359 74.2441C35.2005 73.0885 36.585 72.0014 37.878 70.9487Z" fill="white"/>
<path d="M30.9095 35.1794C24.7306 35.9918 19.9934 38.7838 20.2108 40.3972L22.0187 45.2832H22.1217C22.0844 45.1872 22.0575 45.0874 22.0416 44.9857C21.7784 42.9832 26.035 40.7634 31.5503 40.0425C37.0656 39.3216 41.7456 40.3514 42.0088 42.331C42.0259 42.4333 42.0259 42.5377 42.0088 42.6399L42.558 37.4565C42.3864 35.8774 37.0885 34.367 30.9095 35.1794Z" fill="white"/>
<path d="M49.4465 30.4996C46.4793 29.1277 43.1263 28.8342 39.9658 29.6697C36.8054 30.5053 34.0355 32.4175 32.134 35.0766C37.4204 34.6189 41.8029 35.7975 42.5124 37.1935C42.5634 37.2819 42.5983 37.3788 42.6153 37.4795L42.0661 42.663C42.0832 42.5607 42.0832 42.4563 42.0661 42.3541C41.8029 40.3516 37.1229 39.3103 31.6076 40.0655C26.0924 40.8208 21.8357 43.0063 22.0989 45.0087C22.1148 45.1105 22.1417 45.2102 22.179 45.3062H22.076L20.2109 40.4546C20.0164 38.9442 24.1128 36.4268 29.6739 35.4313C27.8058 32.6673 25.0146 30.6587 21.8004 29.7655C18.5861 28.8723 15.1588 29.1528 12.1325 30.5568C4.62621 33.9896 1.0447 42.9262 6.96048 53.4418C11.1713 60.9024 17.7737 66.5321 30.7838 76.6129L33.736 74.3244C32.1328 64.5796 29.8191 54.9652 26.8132 45.558C26.6645 44.4824 28.953 43.2694 31.9166 42.9033C34.8802 42.5371 37.3976 43.0635 37.5349 44.1391C37.5349 44.1391 37.4662 44.8714 37.3861 46.2331C36.9972 54.5003 37.1654 62.7843 37.8896 71.029C46.3685 64.1635 51.2659 59.4034 54.63 53.4418C55.0754 52.6467 55.4802 51.8294 55.8429 50.9931C59.9279 41.4959 56.3578 33.7035 49.4465 30.4996Z" fill="#C20E21"/>
<path d="M37.6263 20.6247C36.3112 21.4683 35.2915 22.7006 34.7091 24.1505C34.1267 25.6004 34.0105 27.1957 34.3767 28.7146C37.489 24.1376 46.9634 28.2683 50.0758 17.7298C48.3133 19.1164 46.1148 19.8303 43.8739 19.7437C49.0231 17.6039 51.9752 10.029 47.3067 4.86841C48.6569 10.9673 40.8875 11.5051 34.8 12.6379C23.3575 14.8005 21.4695 25.4077 26.6644 30.82C26.0694 24.4008 31.2414 20.5218 37.5691 20.6362L37.6263 20.6247Z" fill="#C20E21"/>
<path d="M42.5008 37.1707C42.5519 37.2591 42.5868 37.356 42.6038 37.4567L42.0546 42.6402C41.9402 43.8988 40.1322 45.2033 37.4776 46.1416C37.0887 54.4088 37.2569 62.6929 37.9811 70.9375C46.46 64.072 51.3573 59.3119 54.7214 53.3504C55.1669 52.5552 55.5717 51.7379 55.9344 50.9017L42.5008 37.1707Z" fill="url(#paint0_linear_3_7108)"/>
<path d="M69.723 53.2703C69.2057 53.0737 68.7316 52.7783 68.327 52.4007L69.2195 51.142C69.5032 51.4367 69.8413 51.6737 70.215 51.84C70.605 52.025 71.0307 52.1226 71.4623 52.126C71.8119 52.1449 72.1591 52.0572 72.4578 51.8743C72.5726 51.7962 72.6655 51.69 72.7276 51.5658C72.7897 51.4416 72.8189 51.3036 72.8125 51.1649C72.8168 51.0792 72.8038 50.9935 72.7743 50.9129C72.7448 50.8323 72.6994 50.7584 72.6408 50.6957C72.4927 50.5413 72.3133 50.4203 72.1145 50.341C71.8856 50.238 71.5195 50.0893 71.0275 49.9176C70.6089 49.7868 70.2059 49.6103 69.826 49.3913C69.5036 49.2149 69.2318 48.9588 69.0365 48.6475C68.8294 48.3026 68.7262 47.9053 68.739 47.5033C68.7302 47.0463 68.8585 46.5972 69.1073 46.2138C69.3561 45.8304 69.714 45.5302 70.1349 45.3521C70.6197 45.1471 71.142 45.0458 71.6682 45.0546C72.1771 45.0505 72.682 45.1437 73.1558 45.3292C73.5811 45.4807 73.9706 45.7183 74.3 46.0272L73.4304 47.2401C73.1929 47.0037 72.9135 46.8136 72.6065 46.6794C72.2966 46.5425 71.9613 46.4723 71.6225 46.4734C71.2978 46.4573 70.9755 46.5369 70.6956 46.7023C70.5859 46.7682 70.4961 46.8626 70.4357 46.9754C70.3752 47.0882 70.3464 47.2152 70.3523 47.3431C70.3499 47.4251 70.3638 47.5069 70.3933 47.5835C70.4227 47.6601 70.4672 47.7301 70.524 47.7893C70.6679 47.9488 70.8486 48.0705 71.0503 48.144C71.4047 48.3015 71.7676 48.4391 72.1374 48.556C72.5683 48.7025 72.9856 48.8863 73.3846 49.1052C73.7 49.2778 73.9644 49.5304 74.1513 49.8375C74.3486 50.186 74.4475 50.5815 74.4373 50.9818C74.449 51.4559 74.3174 51.9224 74.0597 52.3206C73.7892 52.7077 73.417 53.0127 72.9841 53.2016C72.4894 53.4146 71.955 53.5199 71.4165 53.5106C70.8424 53.5288 70.2694 53.4475 69.723 53.2703Z" fill="#231F20"/>
<path d="M76.7945 52.9385C76.581 52.6985 76.419 52.4173 76.3186 52.1122C76.2182 51.8071 76.1816 51.4847 76.2109 51.1649V48.8077H75.0094V47.549H76.2452V45.7411H77.7442V47.549H79.4377V48.8077H77.7442V50.9589C77.7097 51.2813 77.7997 51.6047 77.9959 51.8629C78.0867 51.9581 78.1973 52.0321 78.3199 52.0795C78.4426 52.127 78.5742 52.1468 78.7054 52.1375H79.4377V53.4763H78.6367C77.9766 53.5376 77.3179 53.3453 76.7945 52.9385Z" fill="#231F20"/>
<path d="M83.9918 47.5376V49.0022H83.4426C83.1421 48.9919 82.8437 49.0547 82.5729 49.1853C82.3376 49.3281 82.1472 49.5343 82.0237 49.7803V53.4305H80.5476V47.549H82.0237V48.4644C82.147 48.1576 82.3682 47.9001 82.653 47.7321C82.9295 47.58 83.2416 47.505 83.557 47.5147L83.9918 47.5376Z" fill="#231F20"/>
<path d="M85.8684 53.1559C85.3863 52.8905 84.9895 52.4937 84.7241 52.0116C84.4455 51.5368 84.303 50.9944 84.3122 50.444C84.3044 49.8901 84.4467 49.3444 84.7241 48.8649C84.9966 48.4028 85.3929 48.0263 85.8684 47.7779C86.3842 47.5112 86.9584 47.3775 87.539 47.3888C88.116 47.377 88.6866 47.5108 89.1981 47.7779C89.6736 48.0263 90.07 48.4028 90.3424 48.8649C90.6164 49.3453 90.7548 49.8911 90.7429 50.444C90.7562 50.9934 90.6176 51.5359 90.3424 52.0116C90.077 52.4937 89.6802 52.8905 89.1981 53.1559C88.6876 53.4269 88.1169 53.5647 87.539 53.5564C86.9575 53.5637 86.3834 53.426 85.8684 53.1559ZM88.7405 51.7027C88.892 51.5382 89.0095 51.3453 89.0861 51.1351C89.1627 50.925 89.1969 50.7018 89.1867 50.4783C89.1966 50.2566 89.1622 50.0352 89.0856 49.827C89.009 49.6187 88.8917 49.4278 88.7405 49.2654C88.5819 49.1114 88.3935 48.9914 88.1869 48.9127C87.9803 48.834 87.7599 48.7983 87.539 48.8077C87.3274 48.8041 87.1172 48.8427 86.9207 48.9212C86.7243 48.9998 86.5454 49.1168 86.3947 49.2654C86.0924 49.6015 85.9251 50.0377 85.9251 50.4898C85.9251 50.9419 86.0924 51.378 86.3947 51.7141C86.6994 52.0152 87.1106 52.1838 87.539 52.1833C87.7617 52.1918 87.9838 52.1535 88.1908 52.0707C88.3978 51.9879 88.5851 51.8625 88.7405 51.7027Z" fill="#231F20"/>
<path d="M97.3796 52.1604V53.4991H96.8074C96.471 53.5111 96.1358 53.4527 95.8234 53.3275C95.5676 53.2155 95.3378 53.0519 95.1483 52.8469C94.9652 52.6295 94.702 52.2977 94.3816 51.8514L93.8438 51.0962H93.5234V53.3847H92.0359V44.6884H93.5234V49.9291H93.6607L95.606 47.549H97.391L95.1025 50.3982L95.5602 50.9932C95.7883 51.3341 96.0704 51.6356 96.3955 51.8858C96.6496 52.0745 96.9602 52.1714 97.2766 52.1604H97.3796Z" fill="#231F20"/>
<path d="M103.799 50.8674H99.4049C99.4185 51.0701 99.4732 51.268 99.5656 51.449C99.6581 51.63 99.7863 51.7902 99.9427 51.9201C100.29 52.1849 100.719 52.3186 101.156 52.2977C101.498 52.2984 101.838 52.2443 102.163 52.1375C102.442 52.0464 102.704 51.9112 102.941 51.737L103.49 52.8011C102.787 53.3149 101.934 53.5805 101.064 53.5564C100.475 53.5705 99.8913 53.4326 99.3705 53.1559C98.8837 52.8969 98.4853 52.4985 98.2263 52.0116C97.9688 51.5298 97.8389 50.9902 97.8487 50.444C97.8388 49.8928 97.9729 49.3485 98.2377 48.8649C98.4886 48.4099 98.861 48.0336 99.3133 47.7779C99.7963 47.5116 100.341 47.3774 100.892 47.3888C101.422 47.3761 101.945 47.5108 102.403 47.7779C102.844 48.0516 103.194 48.4497 103.41 48.9221C103.658 49.4474 103.779 50.0235 103.764 50.6042L103.799 50.8674ZM102.277 49.8375C102.239 49.4899 102.081 49.1664 101.831 48.9221C101.582 48.7024 101.258 48.5875 100.927 48.6017C100.575 48.5901 100.23 48.7036 99.9541 48.9221C99.6816 49.1584 99.4996 49.482 99.4392 49.8375H102.277Z" fill="#231F20"/>
<path d="M136.101 64.9645C135.953 65.1083 135.765 65.2052 135.562 65.2431C135.359 65.281 135.149 65.2583 134.958 65.1778C134.768 65.0973 134.606 64.9625 134.491 64.7903C134.377 64.618 134.316 64.416 134.316 64.2093C134.313 64.0652 134.341 63.9222 134.399 63.79C134.456 63.6577 134.541 63.5393 134.648 63.4427C134.844 63.26 135.101 63.1579 135.369 63.1566C135.505 63.155 135.641 63.1817 135.767 63.2348C135.893 63.288 136.007 63.3665 136.101 63.4656C136.299 63.6649 136.41 63.9343 136.41 64.215C136.41 64.4958 136.299 64.7652 136.101 64.9645ZM134.751 63.6029C134.628 63.7242 134.545 63.8791 134.511 64.048C134.476 64.2169 134.493 64.3922 134.559 64.5515C134.624 64.7109 134.736 64.8472 134.879 64.9431C135.022 65.039 135.191 65.0902 135.363 65.0902C135.535 65.0902 135.704 65.039 135.847 64.9431C135.99 64.8472 136.102 64.7109 136.167 64.5515C136.233 64.3922 136.249 64.2169 136.215 64.048C136.181 63.8791 136.098 63.7242 135.975 63.6029C135.897 63.5206 135.803 63.4549 135.699 63.4097C135.594 63.3644 135.482 63.3406 135.369 63.3397C135.253 63.3384 135.138 63.3611 135.032 63.4064C134.926 63.4517 134.83 63.5186 134.751 63.6029ZM134.9 64.7471V63.6029H135.472C135.551 63.6026 135.63 63.6223 135.7 63.6601C135.749 63.6865 135.789 63.7265 135.816 63.7753C135.842 63.8241 135.854 63.8794 135.849 63.9347C135.854 63.9747 135.85 64.0153 135.836 64.0532C135.822 64.091 135.799 64.1249 135.769 64.1521C135.711 64.1916 135.644 64.2153 135.575 64.2208L135.735 64.2894C135.77 64.323 135.798 64.364 135.816 64.4095C135.834 64.455 135.841 64.5039 135.838 64.5526V64.6899H135.54C135.54 64.6899 135.54 64.5984 135.54 64.5297C135.543 64.4802 135.543 64.4305 135.54 64.381C135.533 64.3627 135.523 64.3461 135.509 64.3323C135.495 64.3185 135.478 64.3077 135.46 64.3009H135.22V64.7128L134.9 64.7471ZM135.46 63.8088H135.208V64.1521H135.323C135.378 64.1722 135.439 64.1722 135.495 64.1521C135.505 64.1307 135.51 64.1072 135.51 64.0835C135.51 64.0597 135.505 64.0363 135.495 64.0148C135.495 63.9854 135.486 63.9567 135.47 63.9323C135.453 63.9078 135.43 63.8888 135.403 63.8775" fill="#231F20"/>
<path d="M73.7508 40.1114H70.5583L69.8374 42.1482H68.1439L71.2563 33.7379H73.0413L76.1537 42.1482H74.4144L73.7508 40.1114ZM73.3045 38.7955L72.1603 35.5001L71.016 38.7955H73.3045Z" fill="#231F20"/>
<path d="M86.0744 36.6672C86.4788 37.2103 86.6775 37.8794 86.635 38.5552V42.1482H85.1017V38.7154C85.1275 38.3566 85.0262 38.0002 84.8157 37.7085C84.7163 37.5883 84.5898 37.4935 84.4465 37.4318C84.3033 37.3701 84.1474 37.3434 83.9918 37.3537C83.6988 37.3581 83.4119 37.4384 83.1591 37.5868C82.9064 37.7352 82.6966 37.9467 82.5501 38.2005V42.1024H81.0397V38.5895C81.0545 38.262 80.9487 37.9403 80.7421 37.6856C80.6422 37.5705 80.5166 37.4805 80.3755 37.4228C80.2344 37.3652 80.0817 37.3415 79.9297 37.3537C79.6341 37.3595 79.345 37.4415 79.0904 37.5919C78.8358 37.7423 78.6243 37.9558 78.4765 38.2119V42.1024H76.9661V36.1065H78.4422V36.9075C78.6659 36.6106 78.9567 36.3708 79.2908 36.2077C79.6249 36.0447 79.9928 35.9629 80.3645 35.9692C80.7639 35.9671 81.1574 36.0654 81.5088 36.2553C81.8321 36.4529 82.0875 36.7442 82.2411 37.0906C82.4886 36.761 82.7999 36.4847 83.1565 36.2782C83.5276 36.0624 83.9519 35.9553 84.3809 35.9692C84.6984 35.9415 85.018 35.9904 85.3126 36.1119C85.6073 36.2334 85.8686 36.4238 86.0744 36.6672Z" fill="#231F20"/>
<path d="M93.6264 39.5278H89.1524C89.1683 39.7345 89.225 39.936 89.3193 40.1207C89.4135 40.3053 89.5435 40.4694 89.7016 40.6034C90.0568 40.8699 90.494 41.0035 90.9374 40.981C91.2869 40.9817 91.6344 40.9276 91.9673 40.8208C92.2479 40.7249 92.5136 40.5901 92.7568 40.4204L93.306 41.4959C92.5952 42.0203 91.7287 42.2903 90.8459 42.2626C90.2456 42.2751 89.6517 42.1374 89.1181 41.8621C88.6345 41.5988 88.2372 41.2014 87.9738 40.7179C87.7159 40.2234 87.5824 39.6736 87.5848 39.1159C87.5772 38.5526 87.7151 37.9969 87.9852 37.5025C88.2464 37.0173 88.6443 36.6195 89.1295 36.3583C89.6168 36.0795 90.1702 35.9372 90.7315 35.9463C91.2751 35.934 91.8109 36.0769 92.2762 36.3583C92.7281 36.6257 93.0875 37.025 93.306 37.5025C93.554 38.04 93.6754 38.6272 93.6607 39.2189L93.6264 39.5278ZM92.0817 38.4866C92.0465 38.1291 91.884 37.7961 91.624 37.5483C91.369 37.323 91.0372 37.2042 90.6971 37.2164C90.333 37.2044 89.9773 37.3275 89.6985 37.562C89.4196 37.7965 89.2374 38.1258 89.1867 38.4866H92.0817Z" fill="#231F20"/>
<path d="M98.4551 36.1409V37.6284H97.8945C97.5853 37.6173 97.2784 37.6842 97.0019 37.8229C96.7637 37.9673 96.5728 38.178 96.4527 38.4294V42.1482H94.9423V36.1523H96.4527V37.1135C96.5798 36.7995 96.8044 36.5348 97.0935 36.3583C97.3735 36.2047 97.6898 36.1296 98.0089 36.1409H98.4551Z" fill="#231F20"/>
<path d="M99.5651 34.9852C99.3933 34.8073 99.2987 34.5687 99.3019 34.3215C99.3 34.0745 99.3944 33.8364 99.5651 33.6578C99.6516 33.5706 99.7552 33.5023 99.8694 33.457C99.9836 33.4117 100.106 33.3905 100.229 33.3946C100.35 33.3892 100.471 33.4099 100.583 33.4553C100.696 33.5007 100.797 33.5698 100.881 33.6578C100.969 33.7442 101.039 33.8476 101.086 33.9616C101.133 34.0757 101.157 34.1981 101.156 34.3215C101.158 34.4451 101.135 34.5679 101.088 34.6822C101.041 34.7964 100.97 34.8996 100.881 34.9852C100.796 35.0709 100.694 35.1385 100.582 35.1837C100.47 35.2289 100.35 35.2509 100.229 35.2483C99.9815 35.2515 99.743 35.1569 99.5651 34.9852ZM99.4621 36.1294H100.973V42.1253H99.4621V36.1294Z" fill="#231F20"/>
<path d="M103.467 41.8736C102.988 41.6038 102.592 41.208 102.323 40.7293C102.044 40.242 101.902 39.6886 101.911 39.1273C101.899 38.5548 102.041 37.9897 102.323 37.4911C102.589 37.0098 102.986 36.6132 103.467 36.3468C103.974 36.0776 104.541 35.9399 105.115 35.9463C105.861 35.936 106.594 36.147 107.22 36.5528L106.591 37.7542C106.197 37.474 105.724 37.3258 105.241 37.3309C105.01 37.3198 104.779 37.3556 104.563 37.4363C104.347 37.5169 104.149 37.6407 103.982 37.8C103.678 38.1513 103.511 38.6001 103.511 39.0644C103.511 39.5287 103.678 39.9775 103.982 40.3288C104.148 40.4908 104.345 40.617 104.561 40.6997C104.778 40.7823 105.009 40.8197 105.241 40.8094C105.737 40.8175 106.224 40.6738 106.637 40.3975L107.232 41.5417C106.936 41.7437 106.612 41.9018 106.27 42.0109C105.899 42.1176 105.513 42.1677 105.126 42.1596C104.558 42.2035 103.988 42.1052 103.467 41.8736Z" fill="#231F20"/>
<path d="M114.463 40.695C114.637 40.8058 114.841 40.8579 115.047 40.8437V42.2054H114.921C113.777 42.2054 113.147 41.8964 112.976 41.29C112.734 41.6011 112.419 41.8485 112.06 42.0109C111.702 42.1775 111.311 42.2634 110.916 42.2626C110.371 42.2687 109.834 42.1305 109.36 41.8621C108.905 41.5878 108.536 41.1913 108.296 40.7179C108.048 40.2182 107.919 39.668 107.919 39.1102C107.919 38.5524 108.048 38.0021 108.296 37.5025C108.533 37.0265 108.902 36.6291 109.36 36.3583C109.834 36.0898 110.371 35.9517 110.916 35.9578C111.265 35.9467 111.612 36.007 111.937 36.1349C112.261 36.2628 112.557 36.4556 112.804 36.7015V36.0836H114.314V40.1572C114.289 40.2519 114.289 40.3518 114.315 40.4464C114.342 40.5409 114.393 40.6268 114.463 40.695ZM112.758 38.292C112.604 38.0188 112.373 37.7963 112.095 37.6513C111.79 37.498 111.452 37.4232 111.111 37.4339C110.889 37.4238 110.667 37.4604 110.46 37.5412C110.253 37.622 110.065 37.7452 109.909 37.903C109.613 38.2491 109.451 38.6893 109.451 39.1445C109.451 39.5997 109.613 40.04 109.909 40.386C110.057 40.5403 110.234 40.6626 110.431 40.7453C110.628 40.828 110.84 40.8693 111.053 40.8666C111.396 40.8673 111.734 40.7849 112.037 40.6263C112.322 40.4806 112.557 40.2536 112.713 39.9741L112.758 38.292Z" fill="#231F20"/>
<path d="M121.42 36.6672C121.844 37.2013 122.053 37.875 122.004 38.5552V42.1482H120.482V38.7154C120.506 38.3495 120.387 37.9886 120.15 37.7085C120.032 37.5836 119.888 37.4868 119.727 37.4254C119.567 37.364 119.395 37.3395 119.223 37.3538C118.91 37.3553 118.601 37.4345 118.326 37.5843C118.05 37.734 117.816 37.9497 117.644 38.2119V42.1024H116.134V36.1065H117.644V37.0219C117.889 36.7164 118.202 36.4718 118.557 36.307C118.912 36.1423 119.301 36.0619 119.692 36.0722C120.006 36.0416 120.323 36.0789 120.621 36.1815C120.919 36.2842 121.192 36.4498 121.42 36.6672Z" fill="#231F20"/>
<path d="M73.499 62.9964H70.3066L69.5971 65.0332H67.938L71.0503 56.6229H72.8354L75.9592 65.0332H74.2085L73.499 62.9964ZM73.0528 61.6805L71.9085 58.3851L70.7643 61.6805H73.0528Z" fill="#231F20"/>
<path d="M77.4124 64.9188C76.9992 64.7502 76.6309 64.4878 76.3368 64.1521L77.1835 63.2367C77.3848 63.466 77.6299 63.6528 77.9044 63.7859C78.1814 63.9114 78.4815 63.9776 78.7855 63.9805C79.0274 63.9961 79.269 63.9446 79.4835 63.8317C79.5614 63.7925 79.6265 63.7318 79.6712 63.6568C79.7158 63.5818 79.738 63.4956 79.7352 63.4083C79.7361 63.3156 79.7108 63.2246 79.6622 63.1456C79.6137 63.0667 79.5438 63.003 79.4606 62.9621C79.1355 62.7947 78.7943 62.6605 78.4422 62.5616C77.948 62.4266 77.4879 62.1887 77.092 61.8636C76.9334 61.6938 76.8114 61.4931 76.7337 61.274C76.656 61.055 76.6242 60.8223 76.6403 60.5905C76.6564 60.3587 76.7201 60.1326 76.8273 59.9264C76.9345 59.7202 77.0831 59.5383 77.2636 59.392C77.748 59.0521 78.3317 58.8831 78.9228 58.9114C79.3599 58.9016 79.7949 58.9754 80.2043 59.1289C80.5471 59.2603 80.8532 59.4722 81.0969 59.7467L80.1357 60.6393C80.0174 60.4595 79.8508 60.3167 79.6551 60.2273C79.4204 60.1113 79.1616 60.0525 78.8999 60.0557C78.6962 60.0439 78.4934 60.0916 78.3163 60.193C78.2522 60.2327 78.1995 60.2884 78.1634 60.3546C78.1273 60.4208 78.109 60.4952 78.1104 60.5706C78.1102 60.6261 78.1213 60.6811 78.1429 60.7322C78.1646 60.7833 78.1963 60.8296 78.2362 60.8681C78.3518 60.9749 78.4881 61.0567 78.6367 61.1084C78.8084 61.1885 79.0944 61.28 79.4835 61.4059C79.963 61.5345 80.4058 61.7735 80.7765 62.1039C80.9263 62.2532 81.0433 62.432 81.1202 62.629C81.197 62.826 81.2319 63.0369 81.2227 63.2481C81.2285 63.512 81.1726 63.7736 81.0594 64.012C80.9461 64.2504 80.7787 64.459 80.5705 64.6213C80.0524 64.994 79.423 65.1796 78.7855 65.1476C78.3172 65.1616 77.8508 65.0838 77.4124 64.9188Z" fill="#231F20"/>
<path d="M83.0192 64.9188C82.6042 64.7475 82.2328 64.4856 81.9322 64.1521L82.7904 63.2367C82.9876 63.4693 83.233 63.6563 83.5096 63.7847C83.7862 63.9131 84.0873 63.9799 84.3923 63.9805C84.6341 63.9944 84.8752 63.943 85.0903 63.8317C85.1674 63.7914 85.2317 63.7305 85.2762 63.6557C85.3206 63.581 85.3434 63.4953 85.342 63.4083C85.3429 63.3156 85.3176 63.2246 85.2691 63.1456C85.2205 63.0667 85.1506 63.003 85.0674 62.9621C84.7423 62.7947 84.4011 62.6605 84.049 62.5616C83.5538 62.4292 83.0932 62.1911 82.6988 61.8636C82.5353 61.6962 82.4091 61.4962 82.3284 61.2766C82.2477 61.057 82.2143 60.8228 82.2306 60.5893C82.2468 60.3559 82.3122 60.1286 82.4224 59.9222C82.5327 59.7159 82.6854 59.5352 82.8704 59.392C83.3548 59.0521 83.9386 58.8831 84.5296 58.9114C84.9631 58.9011 85.3944 58.9749 85.7997 59.1289C86.1454 59.261 86.455 59.4727 86.7037 59.7467L85.7425 60.6393C85.6243 60.4595 85.4577 60.3167 85.2619 60.2273C85.0267 60.1129 84.7683 60.0542 84.5067 60.0557C84.303 60.0439 84.1003 60.0916 83.9232 60.193C83.859 60.2327 83.8063 60.2884 83.7702 60.3546C83.7341 60.4208 83.7158 60.4952 83.7172 60.5706C83.7149 60.6264 83.7249 60.682 83.7467 60.7335C83.7685 60.7849 83.8014 60.8309 83.8431 60.8681C83.9553 60.9736 84.0876 61.0553 84.2321 61.1084C84.4152 61.1885 84.7012 61.28 85.0903 61.4059C85.5676 61.5401 86.0092 61.7785 86.3833 62.1039C86.5331 62.2532 86.6501 62.432 86.727 62.629C86.8038 62.826 86.8388 63.0369 86.8296 63.2481C86.8354 63.512 86.7794 63.7736 86.6662 64.012C86.5529 64.2504 86.3855 64.459 86.1773 64.6213C85.6592 64.994 85.0298 65.1796 84.3923 65.1476C83.9241 65.1616 83.4576 65.0838 83.0192 64.9188Z" fill="#231F20"/>
<path d="M89.2325 64.7471C88.7508 64.4812 88.3541 64.0845 88.0882 63.6029C87.8095 63.1156 87.6672 62.5622 87.6763 62.0009C87.6685 61.4362 87.8106 60.8794 88.0882 60.3875C88.3531 59.9051 88.75 59.5082 89.2325 59.2433C89.7556 58.973 90.3372 58.8355 90.926 58.8428C91.5151 58.8326 92.0973 58.9703 92.6195 59.2433C93.1019 59.5082 93.4988 59.9051 93.7637 60.3875C94.0413 60.8794 94.1835 61.4362 94.1756 62.0009C94.1848 62.5622 94.0425 63.1156 93.7637 63.6029C93.4978 64.0845 93.1011 64.4812 92.6195 64.7471C92.0998 65.0278 91.5165 65.1697 90.926 65.1591C90.3354 65.1697 89.7521 65.0278 89.2325 64.7471ZM92.1503 63.271C92.3067 63.1047 92.4279 62.9085 92.5066 62.6942C92.5852 62.4799 92.6197 62.2518 92.608 62.0238C92.6248 61.7976 92.5929 61.5704 92.5146 61.3575C92.4363 61.1446 92.3134 60.9509 92.1541 60.7895C91.9948 60.628 91.8027 60.5024 91.5909 60.4213C91.3791 60.3401 91.1524 60.3052 90.926 60.3189C90.6997 60.3092 90.4738 60.347 90.263 60.4297C90.0521 60.5125 89.8609 60.6384 89.7016 60.7995C89.5449 60.9614 89.4225 61.1533 89.3419 61.3637C89.2613 61.5741 89.2241 61.7986 89.2325 62.0238C89.2222 62.2553 89.2595 62.4865 89.3422 62.703C89.4249 62.9195 89.5511 63.1167 89.7131 63.2825C89.8716 63.4406 90.0613 63.5639 90.2701 63.6447C90.479 63.7254 90.7023 63.7619 90.926 63.7516C91.1561 63.7646 91.3862 63.7284 91.6013 63.6455C91.8163 63.5627 92.0113 63.435 92.1732 63.271H92.1503Z" fill="#231F20"/>
<path d="M96.4298 64.7586C95.945 64.4968 95.5473 64.0991 95.2856 63.6143C95.0053 63.1235 94.863 62.566 94.8736 62.0009C94.8628 61.4286 95.005 60.8637 95.2856 60.3646C95.5473 59.8799 95.945 59.4821 96.4298 59.2204C96.9325 58.9503 97.4955 58.8125 98.0661 58.8199C98.8159 58.81 99.5521 59.0209 100.183 59.4264L99.5536 60.5706C99.1596 60.2904 98.6869 60.1422 98.2034 60.1472C97.9701 60.1361 97.7369 60.1729 97.5184 60.2556C97.2999 60.3383 97.1008 60.465 96.9333 60.6278C96.7776 60.797 96.657 60.9953 96.5784 61.2113C96.4999 61.4274 96.4649 61.6569 96.4756 61.8865C96.4629 62.119 96.498 62.3517 96.5787 62.5701C96.6594 62.7886 96.7839 62.9882 96.9447 63.1566C97.112 63.3164 97.3095 63.4412 97.5256 63.5237C97.7418 63.6063 97.9722 63.6448 98.2034 63.6372C98.7006 63.639 99.187 63.4915 99.5994 63.2138L100.194 64.3581C99.8905 64.5535 99.5639 64.711 99.2218 64.8272C98.8492 64.93 98.464 64.98 98.0775 64.976C97.5188 65.0434 96.952 64.9687 96.4298 64.7586Z" fill="#231F20"/>
<path d="M101.613 57.996C101.528 57.9108 101.46 57.8091 101.415 57.6969C101.369 57.5848 101.348 57.4647 101.35 57.3438C101.347 57.0966 101.442 56.858 101.613 56.6801C101.699 56.5909 101.802 56.5204 101.916 56.4731C102.03 56.4259 102.153 56.4028 102.277 56.4055C102.399 56.403 102.52 56.4262 102.632 56.4735C102.745 56.5208 102.846 56.5912 102.929 56.6801C103.016 56.7667 103.085 56.8703 103.13 56.9845C103.175 57.0987 103.197 57.221 103.192 57.3438C103.198 57.465 103.177 57.586 103.132 57.6985C103.086 57.8111 103.017 57.9125 102.929 57.996C102.846 58.085 102.745 58.1554 102.632 58.2027C102.52 58.25 102.399 58.2732 102.277 58.2707C102.153 58.2734 102.03 58.2503 101.916 58.2031C101.802 58.1558 101.699 58.0853 101.613 57.996ZM101.499 59.1403H103.021V65.1362H101.499V59.1403Z" fill="#231F20"/>
<path d="M110.55 63.5914C110.726 63.6947 110.93 63.7426 111.133 63.7287V65.0904H111.008C109.863 65.0904 109.223 64.7929 109.062 64.1865C108.814 64.4913 108.502 64.7375 108.147 64.9073C107.786 65.0677 107.397 65.1534 107.003 65.1591C106.456 65.1686 105.917 65.0259 105.447 64.7471C104.989 64.4763 104.619 64.0789 104.382 63.6029C104.125 63.1087 103.995 62.558 104.005 62.0009C103.997 61.4404 104.127 60.8864 104.382 60.3875C104.618 59.9107 104.988 59.5131 105.447 59.2433C105.92 58.9733 106.458 58.835 107.003 58.8428C107.349 58.8284 107.695 58.886 108.018 59.0121C108.341 59.1381 108.634 59.3299 108.879 59.5751V58.9572H110.401V63.0422C110.373 63.1386 110.373 63.2408 110.399 63.3376C110.425 63.4344 110.477 63.5222 110.55 63.5914ZM108.833 61.1885C108.683 60.9161 108.456 60.6934 108.181 60.5477C107.873 60.3904 107.531 60.3118 107.186 60.3189C106.973 60.3182 106.761 60.3604 106.565 60.443C106.368 60.5255 106.19 60.6468 106.042 60.7995C105.885 60.9614 105.762 61.1533 105.682 61.3637C105.601 61.5741 105.564 61.7986 105.572 62.0238C105.555 62.4871 105.719 62.9389 106.03 63.2825C106.179 63.4337 106.358 63.5531 106.554 63.6337C106.751 63.7144 106.962 63.7544 107.174 63.7516C107.517 63.7537 107.855 63.6712 108.158 63.5113C108.444 63.3728 108.68 63.1489 108.833 62.8706V61.1885Z" fill="#231F20"/>
<path d="M113.113 64.4839C112.893 64.2407 112.725 63.9545 112.621 63.6434C112.516 63.3323 112.478 63.0029 112.507 62.676V60.2731H111.248V58.9915H112.507V57.1607H114.04V58.9915H115.768V60.2731H114.04V62.4701C114.005 62.7961 114.095 63.1233 114.292 63.3855C114.387 63.4806 114.502 63.5543 114.628 63.6017C114.754 63.649 114.889 63.6689 115.024 63.6601H115.768V65.0332H114.944C114.286 65.0838 113.634 64.888 113.113 64.4839Z" fill="#231F20"/>
<path d="M117.232 58.0647C117.143 57.9791 117.073 57.876 117.025 57.7617C116.978 57.6475 116.955 57.5246 116.958 57.401C116.956 57.2776 116.98 57.1552 117.027 57.0411C117.074 56.9271 117.144 56.8237 117.232 56.7374C117.316 56.6493 117.417 56.5803 117.53 56.5349C117.642 56.4895 117.763 56.4688 117.885 56.4742C118.007 56.47 118.13 56.4912 118.244 56.5365C118.358 56.5818 118.462 56.6502 118.548 56.7374C118.719 56.9159 118.813 57.154 118.811 57.401C118.815 57.5236 118.793 57.6455 118.747 57.7594C118.702 57.8733 118.634 57.9767 118.547 58.0634C118.46 58.1501 118.357 58.2183 118.243 58.2637C118.129 58.3092 118.007 58.331 117.885 58.3279C117.764 58.3305 117.644 58.3085 117.531 58.2632C117.419 58.218 117.318 58.1504 117.232 58.0647ZM117.118 59.2089H118.628V65.2048H117.118V59.2089Z" fill="#231F20"/>
<path d="M121.329 64.7471C120.847 64.4812 120.45 64.0845 120.184 63.6029C119.906 63.1156 119.763 62.5622 119.773 62.0009C119.765 61.4362 119.907 60.8794 120.184 60.3875C120.449 59.9051 120.846 59.5082 121.329 59.2433C121.855 58.9716 122.441 58.8341 123.034 58.8428C123.619 58.8341 124.197 58.9717 124.716 59.2433C125.198 59.5082 125.595 59.9051 125.86 60.3875C126.138 60.8794 126.28 61.4362 126.272 62.0009C126.281 62.5622 126.139 63.1156 125.86 63.6029C125.594 64.0845 125.197 64.4812 124.716 64.7471C124.199 65.0259 123.62 65.1678 123.034 65.1591C122.439 65.1717 121.852 65.0298 121.329 64.7471ZM124.247 63.271C124.404 63.1053 124.527 62.9095 124.608 62.6952C124.689 62.4809 124.725 62.2526 124.716 62.0238C124.726 61.7968 124.689 61.57 124.609 61.3575C124.528 61.1451 124.405 60.9513 124.247 60.788C124.087 60.6311 123.897 60.5085 123.689 60.4278C123.48 60.3471 123.257 60.31 123.034 60.3189C122.807 60.3074 122.58 60.3436 122.368 60.4252C122.156 60.5068 121.963 60.632 121.803 60.7927C121.642 60.9534 121.517 61.1459 121.435 61.358C121.353 61.5701 121.317 61.7969 121.329 62.0238C121.318 62.2553 121.356 62.4865 121.438 62.703C121.521 62.9195 121.647 63.1167 121.809 63.2825C121.97 63.4409 122.162 63.5643 122.372 63.6451C122.583 63.7258 122.808 63.7621 123.034 63.7516C123.253 63.7563 123.47 63.7161 123.673 63.6334C123.875 63.5508 124.059 63.4274 124.212 63.271H124.247Z" fill="#231F20"/>
<path d="M132.531 59.5522C132.953 60.0873 133.161 60.7603 133.115 61.4402V65.0332H131.581V61.6004C131.606 61.2363 131.491 60.8765 131.261 60.5935C131.143 60.4686 130.998 60.3718 130.838 60.3104C130.677 60.249 130.505 60.2245 130.334 60.2388C130.019 60.2406 129.71 60.3211 129.434 60.473C129.158 60.6248 128.925 60.8433 128.755 61.1084V64.9874H127.233V58.9915H128.789V59.9069C129.034 59.6008 129.346 59.3556 129.701 59.1908C130.057 59.026 130.446 58.946 130.837 58.9572C131.145 58.9371 131.454 58.9795 131.745 59.0818C132.036 59.184 132.303 59.344 132.531 59.5522Z" fill="#231F20"/>
<path d="M71.6565 73.569H69.7914L69.0133 75.0107H68.3496L70.9471 70.3536H71.5764L72.5147 75.0107H71.8968L71.6565 73.569ZM71.5535 73.0541L71.1645 71.0402L70.0202 73.0541H71.5535Z" fill="#231F20"/>
<path d="M78.1215 74.4501C78.2025 74.5038 78.2994 74.528 78.3961 74.5187L78.2931 75.045C78.0724 75.0576 77.852 75.0143 77.6524 74.9192C77.5849 74.8738 77.5298 74.8125 77.4918 74.7406C77.4539 74.6687 77.4344 74.5885 77.435 74.5072C77.3058 74.6933 77.1275 74.8399 76.92 74.9306C76.7175 75.0311 76.4939 75.082 76.2678 75.0794C76.0015 75.0848 75.7393 75.0133 75.5126 74.8734C75.2943 74.7405 75.1163 74.5506 74.9977 74.3242C74.8755 74.0709 74.8128 73.793 74.8146 73.5118C74.8098 73.1796 74.8926 72.8519 75.0549 72.562C75.1986 72.2834 75.4164 72.0498 75.6843 71.8869C75.9546 71.7278 76.263 71.6448 76.5768 71.6466C76.8333 71.6374 77.0871 71.7009 77.3091 71.8297C77.5175 71.9402 77.6827 72.1175 77.7782 72.3332L78.1787 70.0447H78.7509L78.0529 74.061C78.0496 74.1143 78.0496 74.1678 78.0529 74.2212C78.0407 74.2619 78.0407 74.3052 78.0529 74.3459C78.0651 74.3866 78.089 74.4228 78.1215 74.4501ZM77.0345 74.3699C77.2248 74.2708 77.3834 74.1201 77.4922 73.9351L77.6753 72.9396C77.6128 72.7123 77.4741 72.5132 77.2825 72.3757C77.0909 72.2383 76.858 72.1708 76.6225 72.1844C76.4044 72.1816 76.19 72.2411 76.0046 72.3561C75.8138 72.4662 75.6589 72.6291 75.5584 72.8252C75.4567 73.0233 75.4056 73.2434 75.4096 73.466C75.4012 73.7505 75.4991 74.0279 75.6843 74.2441C75.7765 74.3419 75.8885 74.4189 76.0127 74.4702C76.137 74.5215 76.2708 74.5458 76.4051 74.5416C76.6263 74.5401 76.8432 74.481 77.0345 74.3699Z" fill="#231F20"/>
<path d="M79.5862 71.7153H80.1697L79.5862 75.0107H79.0026L79.5862 71.7153ZM79.7464 70.9258C79.6744 70.8523 79.6334 70.754 79.6319 70.6511C79.6303 70.5981 79.6396 70.5453 79.6592 70.496C79.6788 70.4467 79.7082 70.4019 79.7457 70.3644C79.7832 70.3269 79.828 70.2975 79.8773 70.2779C79.9266 70.2583 79.9794 70.249 80.0324 70.2506C80.0837 70.2487 80.1349 70.2579 80.1823 70.2777C80.2297 70.2974 80.2723 70.3272 80.307 70.3651C80.3458 70.4016 80.376 70.4461 80.3958 70.4955C80.4156 70.5449 80.4243 70.598 80.4215 70.6511C80.4215 70.7543 80.3805 70.8533 80.3075 70.9262C80.2346 70.9992 80.1356 71.0402 80.0324 71.0402C79.9411 71.0325 79.8557 70.9918 79.7921 70.9258H79.7464Z" fill="#231F20"/>
<path d="M83.9229 71.7153C83.7688 72.3651 83.5222 72.9894 83.1905 73.569C82.8978 74.0953 82.5361 74.5802 82.115 75.0107H81.5314L80.7876 71.7153H81.3941L81.9433 74.4501C82.2759 74.09 82.557 73.6857 82.7786 73.2486C83.0304 72.767 83.2078 72.25 83.305 71.7153H83.9229Z" fill="#231F20"/>
<path d="M84.7353 71.7153H85.3074L84.7238 75.0107H84.1632L84.7353 71.7153ZM84.9069 70.9258C84.8691 70.891 84.8393 70.8484 84.8195 70.801C84.7998 70.7536 84.7906 70.7025 84.7925 70.6511C84.7896 70.598 84.7984 70.5449 84.8181 70.4955C84.8379 70.4461 84.8682 70.4016 84.9069 70.3651C84.9412 70.3266 84.9837 70.2964 85.0312 70.2766C85.0787 70.2568 85.1301 70.2479 85.1815 70.2506C85.2346 70.2485 85.2875 70.2576 85.3368 70.2774C85.3861 70.2971 85.4306 70.327 85.4676 70.3651C85.5063 70.4016 85.5366 70.4461 85.5564 70.4955C85.5761 70.5449 85.5849 70.598 85.582 70.6511C85.584 70.7025 85.5747 70.7536 85.555 70.801C85.5352 70.8484 85.5054 70.891 85.4676 70.9258C85.4306 70.9639 85.3861 70.9938 85.3368 71.0135C85.2875 71.0332 85.2346 71.0423 85.1815 71.0402C85.1304 71.0407 85.0797 71.0308 85.0325 71.0112C84.9853 70.9915 84.9426 70.9624 84.9069 70.9258Z" fill="#231F20"/>
<path d="M85.7537 74.553L86.0969 74.1754C86.2205 74.3056 86.3682 74.4106 86.5318 74.4844C86.7025 74.5675 86.8913 74.6068 87.081 74.5988C87.2392 74.6039 87.3951 74.5599 87.5273 74.4729C87.5814 74.4365 87.6255 74.387 87.6555 74.329C87.6855 74.271 87.7004 74.2064 87.6989 74.1411C87.699 74.0756 87.6847 74.011 87.657 73.9516C87.6293 73.8923 87.5889 73.8398 87.5387 73.7978C87.3773 73.6914 87.2046 73.6031 87.0238 73.5347C86.7741 73.4457 86.5418 73.3141 86.3372 73.1456C86.2637 73.0751 86.2062 72.9895 86.1687 72.8947C86.1311 72.7999 86.1145 72.6982 86.1198 72.5964C86.1161 72.4609 86.1455 72.3266 86.2053 72.205C86.2651 72.0834 86.3536 71.9781 86.4631 71.8984C86.7756 71.7051 87.1428 71.6196 87.5085 71.6547C87.8742 71.6898 88.2184 71.8437 88.4884 72.0929L88.1223 72.4819C88.0202 72.3693 87.8954 72.2796 87.7561 72.2188C87.6211 72.1511 87.4723 72.1159 87.3213 72.1158C87.1675 72.1114 87.0147 72.1427 86.875 72.2073C86.8202 72.2374 86.775 72.2824 86.7447 72.337C86.7143 72.3917 86.7 72.4538 86.7034 72.5163C86.7055 72.572 86.72 72.6265 86.7457 72.676C86.7714 72.7254 86.8078 72.7686 86.8522 72.8023C87.0291 72.9261 87.2214 73.0261 87.4243 73.0998C87.6619 73.1973 87.8821 73.3325 88.0765 73.5003C88.1484 73.5787 88.2037 73.6708 88.239 73.7711C88.2744 73.8714 88.2892 73.9778 88.2825 74.0839C88.2861 74.2226 88.2568 74.3602 88.1972 74.4854C88.1375 74.6107 88.0491 74.7201 87.9392 74.8048C87.6789 74.9986 87.3593 75.0957 87.0352 75.0794C86.7959 75.0923 86.5568 75.0518 86.3351 74.9608C86.1134 74.8697 85.9148 74.7304 85.7537 74.553Z" fill="#231F20"/>
<path d="M89.5182 71.7153H90.1018L89.5182 75.0107H88.9461L89.5182 71.7153ZM89.6899 70.9258C89.6521 70.891 89.6222 70.8484 89.6025 70.801C89.5827 70.7536 89.5735 70.7025 89.5755 70.6511C89.5726 70.598 89.5814 70.5449 89.6011 70.4955C89.6209 70.4461 89.6512 70.4016 89.6899 70.3651C89.7242 70.3266 89.7666 70.2964 89.8142 70.2766C89.8617 70.2568 89.9131 70.2479 89.9645 70.2506C90.0175 70.2491 90.0703 70.2583 90.1196 70.2779C90.1689 70.2975 90.2137 70.3269 90.2512 70.3644C90.2887 70.4019 90.3182 70.4467 90.3377 70.496C90.3573 70.5453 90.3666 70.5981 90.365 70.6511C90.3669 70.7025 90.3577 70.7536 90.338 70.801C90.3182 70.8484 90.2884 70.891 90.2506 70.9258C90.2141 70.9645 90.1696 70.9948 90.1202 71.0145C90.0708 71.0343 90.0177 71.043 89.9645 71.0402C89.9134 71.0407 89.8627 71.0308 89.8155 71.0112C89.7683 70.9915 89.7255 70.9624 89.6899 70.9258Z" fill="#231F20"/>
<path d="M91.4406 74.8734C91.2008 74.7495 91.0021 74.5587 90.8685 74.3242C90.7271 74.0689 90.656 73.7806 90.6625 73.4889C90.6594 73.1743 90.7341 72.8638 90.8799 72.5849C91.0363 72.3043 91.2656 72.071 91.5436 71.9098C91.8562 71.7293 92.2125 71.6382 92.5734 71.6466C92.8673 71.6417 93.1579 71.7085 93.4201 71.8412C93.6569 71.9652 93.8519 72.1563 93.9808 72.3904C94.121 72.6337 94.1922 72.9106 94.1868 73.1914C94.1873 73.5144 94.1087 73.8326 93.9579 74.1182C93.8066 74.4048 93.5814 74.6458 93.3057 74.8162C92.9931 74.9967 92.6368 75.0878 92.2759 75.0794C91.9841 75.0859 91.6959 75.0148 91.4406 74.8734ZM92.9968 74.3471C93.1826 74.2377 93.3304 74.074 93.4201 73.8779C93.5218 73.6799 93.5729 73.4597 93.5689 73.2371C93.5865 72.9657 93.496 72.6983 93.3172 72.4934C93.1081 72.3038 92.8324 72.205 92.5505 72.2188C92.308 72.2054 92.0676 72.2695 91.864 72.4018C91.6816 72.5154 91.5349 72.678 91.4406 72.871C91.3494 73.0601 91.3025 73.2675 91.3033 73.4774C91.298 73.7634 91.4001 74.041 91.5893 74.2555C91.6924 74.3549 91.8144 74.4325 91.9481 74.4836C92.0818 74.5347 92.2244 74.5583 92.3674 74.553C92.5921 74.5435 92.8099 74.4722 92.9968 74.3471Z" fill="#231F20"/>
<path d="M97.8942 71.9098C97.9905 72.0093 98.0648 72.128 98.1121 72.2581C98.1594 72.3882 98.1787 72.5269 98.1688 72.665C98.1811 72.7944 98.1811 72.9247 98.1688 73.0541L97.8255 75.0107H97.2419L97.5738 73.1456C97.5795 73.0542 97.5795 72.9624 97.5738 72.871C97.5811 72.7754 97.5685 72.6793 97.537 72.5887C97.5056 72.4982 97.4557 72.4151 97.3907 72.3446C97.2439 72.2218 97.0554 72.1603 96.8644 72.173C96.6429 72.1825 96.4261 72.2395 96.2287 72.3402C96.0313 72.4409 95.8578 72.5829 95.7201 72.7566L95.331 75.0451H94.7475L95.331 71.7496H95.9146L95.8231 72.2416C95.9871 72.0657 96.1854 71.9251 96.4058 71.8287C96.6262 71.7323 96.8641 71.682 97.1046 71.681C97.3871 71.6568 97.6684 71.7384 97.8942 71.9098Z" fill="#231F20"/>
<path d="M101.327 74.8734C101.087 74.7495 100.888 74.5587 100.755 74.3242C100.613 74.0689 100.542 73.7806 100.549 73.4889C100.55 73.1733 100.628 72.8629 100.778 72.5849C100.93 72.3047 101.155 72.0713 101.43 71.9098C101.743 71.7293 102.099 71.6382 102.46 71.6466C102.754 71.6417 103.044 71.7085 103.306 71.8412C103.545 71.9623 103.741 72.1541 103.867 72.3904C104.007 72.6337 104.079 72.9106 104.073 73.1914C104.074 73.5144 103.995 73.8326 103.844 74.1182C103.693 74.4048 103.468 74.6458 103.192 74.8162C102.879 74.9967 102.523 75.0878 102.162 75.0794C101.871 75.0848 101.583 75.0138 101.327 74.8734ZM102.883 74.3471C103.072 74.2384 103.224 74.0748 103.318 73.8779C103.414 73.6779 103.465 73.4591 103.467 73.2371C103.472 73.0958 103.449 72.9547 103.398 72.8228C103.347 72.6909 103.269 72.571 103.169 72.4705C103.066 72.3761 102.945 72.3032 102.813 72.2561C102.682 72.2089 102.542 72.1885 102.403 72.1959C102.168 72.1735 101.932 72.2241 101.727 72.3409C101.522 72.4576 101.359 72.6348 101.258 72.8481C101.167 73.0372 101.12 73.2446 101.121 73.4546C101.116 73.5976 101.139 73.7402 101.19 73.8739C101.242 74.0076 101.319 74.1296 101.418 74.2327C101.519 74.3328 101.638 74.411 101.77 74.4622C101.902 74.5135 102.044 74.5366 102.185 74.5301C102.419 74.5339 102.65 74.4703 102.849 74.3471H102.883Z" fill="#231F20"/>
<path d="M107.266 70.0904L107.163 70.6282H106.831C106.728 70.622 106.625 70.6369 106.528 70.6721C106.431 70.7072 106.342 70.7618 106.267 70.8326C106.192 70.9034 106.132 70.9887 106.091 71.0835C106.051 71.1782 106.03 71.2803 106.03 71.3835V71.7153H107.014L106.922 72.2073H105.904L105.412 74.9993H104.84L105.32 72.2073H104.577L104.668 71.7153H105.412L105.481 71.3034C105.492 71.1288 105.538 70.9582 105.617 70.802C105.696 70.6457 105.805 70.5068 105.939 70.3937C106.072 70.2805 106.227 70.1953 106.394 70.1432C106.561 70.0911 106.737 70.0732 106.911 70.0904H107.266Z" fill="#231F20"/>
<path d="M109.337 74.8505C109.252 74.7681 109.186 74.6679 109.145 74.5571C109.103 74.4463 109.087 74.3277 109.096 74.2098C109.087 74.0764 109.087 73.9426 109.096 73.8093L109.382 72.2073H108.673L108.765 71.7153H109.463L109.646 70.7198H110.218L110.046 71.7153H111.087L110.996 72.2073H109.955L109.68 73.7635C109.68 73.8894 109.68 73.9809 109.68 74.0267C109.67 74.0946 109.676 74.164 109.698 74.229C109.72 74.2941 109.757 74.3531 109.806 74.4011C109.855 74.4491 109.915 74.4848 109.981 74.5052C110.046 74.5257 110.116 74.5303 110.183 74.5187H110.595L110.504 75.0565H110.069C109.809 75.0734 109.55 75.0007 109.337 74.8505Z" fill="#231F20"/>
<path d="M114.303 71.9327C114.482 72.1552 114.572 72.4368 114.554 72.7222C114.57 72.8744 114.57 73.0277 114.554 73.1799L114.234 75.0107H113.651L113.971 73.2371C113.98 73.1 113.98 72.9623 113.971 72.8252C113.986 72.6482 113.933 72.4723 113.822 72.3332C113.753 72.2699 113.672 72.2219 113.583 72.1923C113.494 72.1627 113.4 72.1523 113.307 72.1615C113.098 72.1595 112.892 72.2149 112.712 72.3217C112.52 72.4409 112.35 72.5918 112.209 72.768L111.808 75.0565H111.225L112.094 70.1248H112.666L112.3 72.2187C112.456 72.0506 112.646 71.9169 112.857 71.8263C113.068 71.7356 113.295 71.69 113.525 71.6924C113.664 71.6753 113.805 71.6879 113.939 71.7293C114.073 71.7708 114.197 71.84 114.303 71.9327Z" fill="#231F20"/>
<path d="M115.847 73.4317V73.4889C115.838 73.6358 115.859 73.7832 115.91 73.9213C115.962 74.0593 116.042 74.185 116.145 74.2899C116.364 74.4777 116.646 74.5758 116.934 74.5645C117.347 74.5783 117.751 74.4489 118.079 74.1983L118.262 74.6331C117.867 74.9323 117.384 75.0896 116.889 75.0794C116.602 75.0829 116.319 75.0161 116.065 74.8848C115.835 74.761 115.644 74.5746 115.516 74.347C115.38 74.1022 115.313 73.8256 115.321 73.5461C115.315 73.2115 115.394 72.881 115.55 72.5849C115.693 72.3028 115.911 72.0653 116.179 71.8984C116.457 71.7261 116.779 71.6387 117.106 71.6466C117.296 71.6377 117.486 71.6687 117.663 71.7377C117.841 71.8067 118.002 71.9121 118.136 72.0471C118.268 72.1901 118.37 72.3578 118.437 72.5404C118.503 72.723 118.533 72.917 118.525 73.1113C118.525 73.1914 118.525 73.2944 118.525 73.4317H115.847ZM116.339 72.3675C116.141 72.5354 115.998 72.7585 115.928 73.0083H117.896C117.895 72.7707 117.805 72.5421 117.644 72.3675C117.562 72.2848 117.464 72.2205 117.355 72.1791C117.247 72.1376 117.131 72.1199 117.015 72.1272C116.768 72.1249 116.529 72.2101 116.339 72.3675Z" fill="#231F20"/>
<path d="M71.6336 81.9334H69.9287L69.5511 83.0205H68.67L70.3292 78.5465H71.2789L72.9381 83.0205H72.0112L71.6336 81.9334ZM71.3933 81.2354L70.7869 79.4847L70.169 81.2354H71.3933Z" fill="#231F20"/>
<path d="M78.316 80.1141C78.5267 80.4014 78.6281 80.7543 78.6021 81.1096V83.0205H77.7897V81.224C77.8051 81.0328 77.7525 80.8423 77.6409 80.6862C77.5883 80.6226 77.5217 80.5719 77.4462 80.5382C77.3708 80.5045 77.2887 80.4886 77.2061 80.4917C77.0499 80.4962 76.8974 80.5406 76.7632 80.6207C76.629 80.7008 76.5176 80.814 76.4395 80.9494V83.0205H75.6385V81.1554C75.6472 80.9808 75.59 80.8092 75.4783 80.6748C75.4182 80.6125 75.3447 80.5648 75.2634 80.5351C75.1822 80.5053 75.0952 80.4944 75.0092 80.5031C74.8529 80.5076 74.7005 80.5521 74.5663 80.6322C74.4321 80.7123 74.3206 80.8254 74.2425 80.9608V83.0319H73.4301V79.8509H74.2425V80.2743C74.3602 80.1164 74.5142 79.9893 74.6915 79.9036C74.8688 79.818 75.0641 79.7763 75.2609 79.7823C75.4806 79.7703 75.6991 79.8219 75.8902 79.931C76.0618 80.0321 76.1978 80.1841 76.2793 80.3658C76.4178 80.1975 76.5842 80.0543 76.7713 79.9424C76.9678 79.825 77.195 79.7692 77.4235 79.7823C77.5878 79.7645 77.754 79.7852 77.909 79.8428C78.0639 79.9004 78.2033 79.9933 78.316 80.1141Z" fill="#231F20"/>
<path d="M82.4582 81.6474H80.0782C80.0854 81.7582 80.1156 81.8662 80.1668 81.9647C80.218 82.0632 80.2892 82.15 80.3757 82.2195C80.561 82.3649 80.7927 82.438 81.0279 82.4255C81.2147 82.4248 81.4002 82.3939 81.5772 82.3339C81.7241 82.2864 81.8629 82.217 81.9891 82.128L82.2866 82.7001C81.9083 82.9747 81.4494 83.1156 80.9821 83.1006C80.6611 83.1081 80.343 83.0374 80.0553 82.8946C79.8064 82.7542 79.6007 82.5485 79.4603 82.2996C79.3248 82.0359 79.2541 81.7436 79.2541 81.4471C79.2541 81.1506 79.3248 80.8584 79.4603 80.5947C79.6001 80.3522 79.8014 80.1509 80.0438 80.0111C80.3047 79.8617 80.6015 79.7865 80.902 79.7937C81.1883 79.7852 81.4707 79.8608 81.7145 80.0111C81.9559 80.1516 82.1477 80.3635 82.2637 80.6176C82.3975 80.9039 82.4641 81.217 82.4582 81.533V81.6474ZM81.6344 81.0981C81.6118 80.9118 81.5272 80.7385 81.3941 80.6061C81.3284 80.5443 81.2511 80.4962 81.1666 80.4648C81.0821 80.4333 80.9921 80.4191 80.902 80.423C80.71 80.417 80.5225 80.4822 80.3757 80.6061C80.2997 80.6659 80.2363 80.7402 80.1892 80.8247C80.142 80.9091 80.1121 81.0021 80.1011 81.0981H81.6344Z" fill="#231F20"/>
<path d="M85.0213 79.828V80.6176H84.7238C84.5611 80.6095 84.3991 80.6451 84.2547 80.7205C84.1257 80.7951 84.022 80.9067 83.9572 81.0409V83.0205H83.1562V79.8395H83.9572V80.3429C84.0262 80.1798 84.1416 80.0405 84.289 79.9424C84.4407 79.8631 84.61 79.8237 84.781 79.828H85.0213Z" fill="#231F20"/>
<path d="M85.6164 79.2101C85.5699 79.1658 85.5328 79.1125 85.5072 79.0536C85.4817 78.9946 85.4682 78.9311 85.4676 78.8669C85.4707 78.7341 85.5238 78.6074 85.6164 78.5121C85.6607 78.4656 85.714 78.4285 85.7729 78.403C85.8319 78.3774 85.8954 78.364 85.9596 78.3634C86.0929 78.3641 86.2205 78.4176 86.3144 78.5121C86.4037 78.6085 86.4528 78.7354 86.4517 78.8669C86.4532 78.9304 86.4418 78.9936 86.4182 79.0526C86.3946 79.1116 86.3593 79.1652 86.3144 79.2101C86.2696 79.2592 86.2146 79.2979 86.1534 79.3236C86.0921 79.3493 86.026 79.3613 85.9596 79.3589C85.895 79.3612 85.8306 79.349 85.7712 79.3233C85.7118 79.2976 85.6589 79.2589 85.6164 79.2101ZM85.5591 79.8395H86.3601V83.0205H85.5591V79.8395Z" fill="#231F20"/>
<path d="M87.882 82.8717C87.6304 82.7361 87.4207 82.5343 87.2755 82.2882C87.1248 82.032 87.0494 81.7385 87.0581 81.4414C87.0494 81.1371 87.1246 80.8362 87.2755 80.5718C87.4173 80.3229 87.6279 80.1203 87.882 79.9882C88.1471 79.839 88.4475 79.7639 88.7516 79.7708C89.1568 79.7579 89.5562 79.8698 89.8958 80.0912L89.564 80.732C89.3529 80.5836 89.1012 80.5037 88.8431 80.5031C88.7193 80.4959 88.5953 80.5145 88.4791 80.5579C88.3628 80.6012 88.2569 80.6683 88.168 80.7549C88.0039 80.9405 87.9178 81.1824 87.9277 81.43C87.9221 81.5519 87.9415 81.6738 87.9848 81.7879C88.0281 81.9021 88.0943 82.0061 88.1795 82.0936C88.2656 82.1814 88.3692 82.2501 88.4835 82.2955C88.5978 82.3408 88.7203 82.3617 88.8431 82.3568C89.1086 82.358 89.368 82.2782 89.5869 82.128L89.8958 82.7573C89.739 82.8616 89.5699 82.9462 89.3924 83.0091C89.1864 83.0589 88.9749 83.082 88.763 83.0777C88.4567 83.0838 88.1538 83.013 87.882 82.8717Z" fill="#231F20"/>
<path d="M93.7291 82.2538C93.8234 82.3059 93.9306 82.3297 94.038 82.3225V83.0548H93.9694C93.3629 83.0548 93.0197 82.8946 92.9396 82.5628C92.8084 82.7293 92.6398 82.8626 92.4475 82.9518C92.2499 83.0405 92.0348 83.0836 91.8182 83.0777C91.5302 83.0827 91.246 83.0117 90.9943 82.8717C90.7521 82.7304 90.554 82.5243 90.4222 82.2767C90.2944 82.0107 90.228 81.7194 90.228 81.4242C90.228 81.1291 90.2944 80.8378 90.4222 80.5718C90.551 80.325 90.7501 80.1219 90.9943 79.9882C91.2429 79.8394 91.5286 79.764 91.8182 79.7708C92.0019 79.7645 92.1849 79.7957 92.3561 79.8626C92.5273 79.9295 92.683 80.0307 92.8137 80.1598V79.8395H93.6261V82.0021C93.6229 82.0491 93.6306 82.0963 93.6484 82.1399C93.6663 82.1835 93.6939 82.2225 93.7291 82.2538ZM92.8137 80.9723C92.7363 80.826 92.6167 80.7063 92.4704 80.629C92.3066 80.5495 92.1261 80.5103 91.9441 80.5146C91.8257 80.51 91.7076 80.53 91.5973 80.5734C91.4871 80.6167 91.3869 80.6824 91.3033 80.7663C91.1406 80.9437 91.0542 81.178 91.063 81.4185C91.0531 81.6661 91.1392 81.908 91.3033 82.0936C91.3862 82.1746 91.4848 82.2377 91.593 82.2791C91.7013 82.3204 91.8169 82.3391 91.9326 82.3339C92.116 82.3386 92.2975 82.2952 92.459 82.2081C92.6128 82.1374 92.738 82.0163 92.8137 81.8648V80.9723Z" fill="#231F20"/>
<path d="M97.425 80.1141C97.6486 80.3958 97.7587 80.7508 97.734 81.1096V83.0205H96.9215V81.224C96.936 81.0293 96.8745 80.8365 96.7499 80.6862C96.6847 80.6197 96.6061 80.568 96.5193 80.5344C96.4324 80.5009 96.3394 80.4863 96.2464 80.4917C96.0808 80.496 95.9187 80.5398 95.7734 80.6194C95.6281 80.699 95.5039 80.8121 95.4111 80.9494V83.0205H94.6102V79.8395H95.4111V80.2743C95.5465 80.1036 95.7215 79.9685 95.9209 79.8808C96.1203 79.793 96.3381 79.7553 96.5554 79.7708C96.7164 79.7636 96.877 79.7904 97.0269 79.8496C97.1767 79.9087 97.3124 79.9989 97.425 80.1141Z" fill="#231F20"/>
<path d="M103.81 78.5465V83.0205H102.929V81.1668H100.938V83.0205H100.068V78.5465H100.938V80.4002H102.929V78.5465H103.81Z" fill="#231F20"/>
<path d="M107.78 81.6474H105.4C105.408 81.7582 105.438 81.8662 105.489 81.9647C105.54 82.0632 105.611 82.15 105.698 82.2195C105.883 82.3649 106.115 82.438 106.35 82.4255C106.537 82.4249 106.722 82.394 106.899 82.3339C107.047 82.2888 107.186 82.2191 107.311 82.128L107.609 82.7001C107.232 82.9779 106.772 83.1192 106.304 83.1006C105.987 83.1096 105.672 83.0387 105.389 82.8946C105.134 82.7579 104.924 82.5515 104.783 82.2996C104.644 82.0392 104.573 81.748 104.577 81.4529C104.569 81.1523 104.645 80.8556 104.794 80.5947C104.927 80.347 105.13 80.1441 105.378 80.0111C105.634 79.8621 105.927 79.7869 106.224 79.7937C106.514 79.7869 106.8 79.8623 107.048 80.0111C107.283 80.1556 107.471 80.3667 107.586 80.6176C107.725 80.9022 107.792 81.2165 107.78 81.533V81.6474ZM106.957 81.0982C106.944 80.9089 106.858 80.7321 106.716 80.6061C106.651 80.5432 106.574 80.4944 106.49 80.4629C106.405 80.4314 106.315 80.4178 106.224 80.423C106.032 80.417 105.845 80.4822 105.698 80.6061C105.552 80.7334 105.455 80.9073 105.423 81.0982H106.957Z" fill="#231F20"/>
<path d="M111.74 82.2538C111.834 82.3059 111.941 82.3297 112.049 82.3225V83.0548H111.98C111.385 83.0548 111.03 82.8946 110.95 82.5628C110.819 82.7293 110.65 82.8626 110.458 82.9518C110.26 83.0405 110.045 83.0836 109.829 83.0777C109.541 83.0827 109.257 83.0117 109.005 82.8717C108.765 82.7272 108.568 82.522 108.433 82.2767C108.305 82.0107 108.239 81.7194 108.239 81.4242C108.239 81.1291 108.305 80.8378 108.433 80.5718C108.565 80.3273 108.763 80.125 109.005 79.9882C109.253 79.8394 109.539 79.764 109.829 79.7708C110.013 79.7631 110.196 79.7937 110.367 79.8607C110.539 79.9277 110.694 80.0296 110.824 80.1599V79.8395H111.625V82.0021C111.623 82.0501 111.633 82.0978 111.653 82.1415C111.673 82.1852 111.702 82.2237 111.74 82.2538ZM110.824 80.9723C110.747 80.826 110.627 80.7064 110.481 80.629C110.317 80.5495 110.137 80.5103 109.955 80.5146C109.836 80.51 109.718 80.5301 109.608 80.5734C109.498 80.6167 109.397 80.6824 109.314 80.7663C109.151 80.9437 109.065 81.178 109.074 81.4185C109.064 81.6661 109.15 81.908 109.314 82.0936C109.397 82.1741 109.496 82.2368 109.604 82.2781C109.712 82.3194 109.827 82.3384 109.943 82.3339C110.127 82.3386 110.308 82.2952 110.469 82.2081C110.623 82.1374 110.748 82.0163 110.824 81.8648V80.9723Z" fill="#231F20"/>
<path d="M114.486 79.828V80.6176H114.188C114.026 80.6095 113.864 80.6451 113.719 80.7205C113.593 80.7981 113.49 80.909 113.422 81.0409V83.0205H112.621V79.8395H113.422V80.3429C113.495 80.179 113.614 80.0399 113.765 79.9424C113.916 79.8606 114.086 79.821 114.257 79.828H114.486Z" fill="#231F20"/>
<path d="M115.71 82.7916C115.593 82.6649 115.504 82.5147 115.448 82.351C115.393 82.1874 115.373 82.0138 115.39 81.8419V80.5031H114.726V79.828H115.39V78.844H116.202V79.828H117.118V80.5031H116.202V81.6474C116.186 81.8227 116.235 81.9976 116.339 82.1394C116.391 82.1879 116.453 82.2251 116.52 82.2487C116.587 82.2724 116.658 82.2819 116.729 82.2767H117.118V83.009H116.683C116.343 83.0621 115.995 82.9844 115.71 82.7916Z" fill="#231F20"/>
<path d="M121.717 81.9334H120.024L119.646 83.0205H118.765L120.424 78.5465H121.374L123.068 83.0205H122.141L121.717 81.9334ZM121.489 81.2354L120.871 79.4847L120.264 81.2354H121.489Z" fill="#231F20"/>
<path d="M123.8 82.9518C123.582 82.8627 123.386 82.7259 123.228 82.5513L123.674 82.0593C123.785 82.1805 123.917 82.2811 124.063 82.3568C124.211 82.424 124.37 82.4591 124.532 82.4598C124.66 82.4689 124.787 82.441 124.898 82.3797C124.94 82.3602 124.974 82.3294 124.999 82.2909C125.023 82.2524 125.036 82.2078 125.036 82.1623C125.039 82.1103 125.026 82.0587 125 82.0139C124.973 81.9691 124.934 81.9331 124.887 81.9106C124.716 81.8225 124.535 81.7535 124.349 81.7046C124.086 81.6347 123.84 81.5099 123.628 81.3384C123.546 81.2564 123.482 81.1579 123.441 81.0495C123.4 80.941 123.382 80.825 123.388 80.7091C123.382 80.5761 123.409 80.4437 123.467 80.3238C123.525 80.2039 123.612 80.1004 123.72 80.0226C123.977 79.8427 124.287 79.7541 124.601 79.7708C124.835 79.765 125.068 79.8038 125.288 79.8853C125.468 79.9578 125.628 80.0715 125.757 80.2171L125.242 80.6862C125.186 80.5861 125.097 80.509 124.99 80.4688C124.867 80.4035 124.729 80.3719 124.59 80.3773C124.482 80.3713 124.375 80.395 124.281 80.4459C124.245 80.4675 124.216 80.4978 124.196 80.5339C124.176 80.57 124.166 80.6106 124.166 80.6519C124.167 80.7123 124.192 80.7698 124.235 80.8121C124.302 80.8619 124.375 80.9041 124.452 80.938L124.898 81.0982C125.154 81.1624 125.389 81.2881 125.585 81.4643C125.666 81.5424 125.729 81.637 125.771 81.7415C125.812 81.8461 125.831 81.9584 125.825 82.0708C125.829 82.2111 125.8 82.3503 125.74 82.4774C125.681 82.6046 125.592 82.716 125.482 82.8031C125.206 83.0002 124.871 83.0971 124.532 83.0777C124.282 83.0866 124.033 83.0437 123.8 82.9518Z" fill="#231F20"/>
<path d="M126.764 82.9518C126.545 82.8627 126.35 82.7258 126.191 82.5513L126.649 82.0593C126.754 82.1827 126.882 82.2838 127.027 82.3568C127.174 82.4239 127.334 82.4591 127.496 82.4598C127.623 82.4702 127.751 82.4423 127.862 82.3797C127.903 82.3602 127.938 82.3294 127.962 82.2909C127.987 82.2524 127.999 82.2078 127.999 82.1623C128.002 82.1103 127.99 82.0587 127.963 82.0139C127.937 81.9691 127.898 81.9331 127.851 81.9105C127.679 81.8225 127.499 81.7535 127.313 81.7046C127.049 81.6347 126.804 81.5099 126.592 81.3384C126.508 81.2478 126.443 81.1409 126.402 81.0244C126.361 80.9078 126.344 80.784 126.353 80.6606C126.361 80.5373 126.395 80.4171 126.452 80.3073C126.509 80.1975 126.588 80.1006 126.684 80.0225C126.942 79.8443 127.251 79.7558 127.565 79.7708C127.799 79.765 128.032 79.8038 128.251 79.8852C128.433 79.9541 128.595 80.0683 128.72 80.2171L128.217 80.6862C128.154 80.5881 128.062 80.5122 127.954 80.4688C127.831 80.4035 127.692 80.3719 127.553 80.3773C127.446 80.3729 127.339 80.3966 127.244 80.4459C127.21 80.4681 127.183 80.4988 127.165 80.535C127.147 80.5712 127.139 80.6115 127.141 80.6519C127.139 80.6811 127.144 80.7103 127.154 80.7378C127.163 80.7653 127.179 80.7906 127.198 80.8121C127.266 80.8619 127.339 80.9041 127.416 80.9379L127.862 81.0981C128.12 81.1652 128.359 81.2904 128.56 81.4643C128.637 81.5447 128.697 81.6398 128.737 81.7441C128.776 81.8483 128.794 81.9594 128.789 82.0707C128.793 82.2111 128.763 82.3503 128.704 82.4774C128.644 82.6045 128.556 82.716 128.446 82.8031C128.17 83.0002 127.835 83.0971 127.496 83.0777C127.246 83.0866 126.996 83.0437 126.764 82.9518Z" fill="#231F20"/>
<path d="M130.082 82.8717C129.823 82.7322 129.608 82.5235 129.46 82.269C129.313 82.0145 129.239 81.724 129.247 81.43C129.239 81.1294 129.315 80.8327 129.464 80.5718C129.61 80.3225 129.825 80.1201 130.082 79.9882C130.36 79.8456 130.668 79.7713 130.98 79.7713C131.293 79.7713 131.6 79.8456 131.878 79.9882C132.136 80.1201 132.35 80.3225 132.496 80.5718C132.639 80.8334 132.713 81.1265 132.713 81.4242C132.713 81.722 132.639 82.0151 132.496 82.2767C132.347 82.5268 132.134 82.7323 131.878 82.8717C131.598 83.0074 131.291 83.0779 130.98 83.0779C130.669 83.0779 130.362 83.0074 130.082 82.8717ZM131.627 82.0822C131.712 81.9947 131.778 81.8906 131.821 81.7765C131.865 81.6623 131.884 81.5405 131.878 81.4185C131.885 81.2982 131.866 81.1777 131.823 81.0652C131.78 80.9528 131.713 80.8508 131.627 80.7663C131.544 80.6812 131.444 80.6148 131.333 80.5713C131.223 80.5279 131.104 80.5086 130.986 80.5146C130.866 80.5077 130.745 80.5266 130.633 80.57C130.52 80.6134 130.418 80.6803 130.334 80.7663C130.249 80.8521 130.184 80.9542 130.14 81.0664C130.097 81.1786 130.077 81.2984 130.082 81.4185C130.072 81.5403 130.088 81.6629 130.13 81.7778C130.171 81.8928 130.237 81.9973 130.323 82.0843C130.409 82.1713 130.513 82.2386 130.627 82.2817C130.742 82.3248 130.864 82.3426 130.986 82.3339C131.104 82.3399 131.223 82.3205 131.333 82.2771C131.444 82.2337 131.544 82.1673 131.627 82.0822Z" fill="#231F20"/>
<path d="M134.041 82.8717C133.785 82.743 133.573 82.5395 133.435 82.2882C133.28 82.0329 133.201 81.7396 133.206 81.4414C133.203 81.1378 133.278 80.8385 133.423 80.5718C133.565 80.3229 133.775 80.1203 134.03 79.9882C134.295 79.8405 134.595 79.7655 134.899 79.7708C135.304 79.7579 135.704 79.8698 136.043 80.0912L135.712 80.732C135.501 80.5836 135.249 80.5037 134.991 80.5031C134.869 80.4961 134.746 80.5148 134.632 80.5582C134.518 80.6016 134.414 80.6686 134.327 80.7549C134.242 80.8445 134.175 80.9506 134.132 81.0666C134.089 81.1827 134.069 81.3063 134.075 81.43C134.069 81.5524 134.088 81.6749 134.132 81.7895C134.175 81.9041 134.242 82.0084 134.328 82.0956C134.415 82.1828 134.518 82.2511 134.632 82.2961C134.746 82.3411 134.868 82.3618 134.991 82.3568C135.256 82.358 135.516 82.2782 135.735 82.128L136.055 82.7573C135.893 82.8596 135.72 82.944 135.54 83.0091C135.338 83.0583 135.13 83.0814 134.922 83.0777C134.616 83.0869 134.312 83.0159 134.041 82.8717Z" fill="#231F20"/>
<path d="M136.719 79.2101C136.674 79.1652 136.638 79.1116 136.615 79.0526C136.591 78.9936 136.58 78.9304 136.581 78.8669C136.58 78.7354 136.629 78.6085 136.719 78.5121C136.814 78.4196 136.941 78.3664 137.073 78.3634C137.205 78.3664 137.33 78.4207 137.422 78.5148C137.514 78.6089 137.565 78.7353 137.565 78.8669C137.562 78.9964 137.51 79.1199 137.418 79.2115C137.326 79.3032 137.203 79.356 137.073 79.3589C137.007 79.3598 136.941 79.3471 136.88 79.3215C136.819 79.2959 136.764 79.258 136.719 79.2101ZM136.661 79.8395H137.474V83.0205H136.661V79.8395Z" fill="#231F20"/>
<path d="M141.673 82.2538C141.767 82.3059 141.875 82.3297 141.982 82.3225V83.0548H141.913C141.307 83.0548 140.964 82.8946 140.884 82.5628C140.752 82.7293 140.584 82.8626 140.392 82.9518C140.194 83.0405 139.979 83.0836 139.762 83.0777C139.474 83.0827 139.19 83.0117 138.938 82.8717C138.696 82.7304 138.498 82.5243 138.366 82.2767C138.238 82.0107 138.172 81.7194 138.172 81.4242C138.172 81.1291 138.238 80.8378 138.366 80.5718C138.495 80.325 138.694 80.1219 138.938 79.9882C139.187 79.8394 139.473 79.764 139.762 79.7708C139.946 79.7645 140.129 79.7957 140.3 79.8626C140.471 79.9295 140.627 80.0307 140.758 80.1598V79.8395H141.57V82.0021C141.567 82.0491 141.575 82.0963 141.593 82.1399C141.61 82.1835 141.638 82.2225 141.673 82.2538ZM140.758 80.9723C140.68 80.826 140.561 80.7063 140.415 80.629C140.251 80.5495 140.07 80.5103 139.888 80.5146C139.77 80.51 139.652 80.53 139.541 80.5734C139.431 80.6167 139.331 80.6824 139.247 80.7663C139.085 80.9437 138.998 81.178 139.007 81.4185C138.997 81.6661 139.083 81.908 139.247 82.0936C139.331 82.1741 139.429 82.2368 139.538 82.2781C139.646 82.3194 139.761 82.3384 139.877 82.3339C140.06 82.3386 140.242 82.2952 140.403 82.2081C140.557 82.1374 140.682 82.0163 140.758 81.8648V80.9723Z" fill="#231F20"/>
<path d="M143.161 82.7916C143.046 82.6633 142.958 82.513 142.903 82.3497C142.848 82.1864 142.827 82.0137 142.84 81.8419V80.5031H142.177V79.828H142.84V78.844H143.664V79.828H144.591V80.5031H143.664V81.6474C143.648 81.8227 143.697 81.9976 143.801 82.1394C143.853 82.1879 143.915 82.2251 143.982 82.2487C144.049 82.2724 144.12 82.2819 144.191 82.2767H144.591V83.009H144.156C143.809 83.0669 143.452 82.9891 143.161 82.7916Z" fill="#231F20"/>
<path d="M145.255 79.2101C145.208 79.1658 145.171 79.1125 145.146 79.0536C145.12 78.9946 145.107 78.9311 145.106 78.8669C145.109 78.7341 145.162 78.6074 145.255 78.5121C145.299 78.4656 145.352 78.4285 145.411 78.403C145.47 78.3774 145.534 78.364 145.598 78.3634C145.731 78.3641 145.859 78.4176 145.953 78.5121C146.042 78.6085 146.091 78.7354 146.09 78.8669C146.092 78.9304 146.08 78.9936 146.057 79.0526C146.033 79.1116 145.998 79.1652 145.953 79.2101C145.908 79.2592 145.853 79.2979 145.792 79.3236C145.73 79.3493 145.664 79.3613 145.598 79.3589C145.533 79.3612 145.469 79.349 145.41 79.3233C145.35 79.2976 145.297 79.2589 145.255 79.2101ZM145.255 79.8395H146.056V83.0205H145.255V79.8395Z" fill="#231F20"/>
<path d="M147.532 82.8717C147.273 82.7322 147.058 82.5235 146.91 82.269C146.763 82.0145 146.689 81.724 146.696 81.43C146.689 81.1294 146.764 80.8327 146.914 80.5718C147.06 80.3225 147.275 80.1201 147.532 79.9882C147.81 79.8456 148.118 79.7713 148.43 79.7713C148.742 79.7713 149.05 79.8456 149.328 79.9882C149.585 80.1201 149.8 80.3225 149.946 80.5718C150.088 80.8334 150.163 81.1265 150.163 81.4242C150.163 81.722 150.088 82.0151 149.946 82.2767C149.797 82.5268 149.584 82.7323 149.328 82.8717C149.048 83.0074 148.741 83.0779 148.43 83.0779C148.119 83.0779 147.812 83.0074 147.532 82.8717ZM149.077 82.0822C149.162 81.9947 149.228 81.8906 149.271 81.7765C149.314 81.6623 149.334 81.5405 149.328 81.4185C149.335 81.2982 149.316 81.1777 149.273 81.0652C149.229 80.9528 149.162 80.8508 149.077 80.7663C148.994 80.6812 148.894 80.6148 148.783 80.5713C148.673 80.5279 148.554 80.5086 148.436 80.5146C148.315 80.5077 148.195 80.5266 148.082 80.57C147.97 80.6134 147.868 80.6803 147.784 80.7663C147.699 80.8521 147.633 80.9542 147.59 81.0664C147.547 81.1786 147.527 81.2984 147.532 81.4185C147.522 81.5403 147.538 81.6629 147.579 81.7778C147.621 81.8928 147.687 81.9973 147.773 82.0843C147.859 82.1713 147.963 82.2386 148.077 82.2817C148.191 82.3248 148.314 82.3426 148.436 82.3339C148.554 82.3399 148.673 82.3205 148.783 82.2771C148.894 82.2337 148.994 82.1673 149.077 82.0822Z" fill="#231F20"/>
<path d="M153.676 80.1141C153.9 80.3958 154.01 80.7508 153.985 81.1096V83.0205H153.173V81.224C153.187 81.0293 153.126 80.8365 153.001 80.6862C152.938 80.62 152.862 80.5683 152.777 80.5347C152.692 80.5011 152.6 80.4865 152.509 80.4917C152.343 80.4951 152.181 80.5385 152.036 80.6182C151.89 80.6979 151.766 80.8115 151.674 80.9494V83.0205H150.873V79.8395H151.674V80.2743C151.802 80.1103 151.968 79.9792 152.157 79.8917C152.346 79.8041 152.553 79.7627 152.761 79.7708C152.929 79.7569 153.099 79.7804 153.257 79.8398C153.415 79.8991 153.559 79.9928 153.676 80.1141Z" fill="#231F20"/>
<path d="M155.839 82.9633C155.761 83.0433 155.66 83.0981 155.55 83.1204C155.44 83.1427 155.326 83.1316 155.223 83.0885C155.119 83.0454 155.031 82.9722 154.97 82.8785C154.908 82.7848 154.876 82.6748 154.878 82.5628C154.876 82.4848 154.891 82.4075 154.923 82.3362C154.955 82.265 155.002 82.2017 155.061 82.1508C155.11 82.1012 155.169 82.0623 155.234 82.0367C155.299 82.0111 155.369 81.9993 155.439 82.0021C155.588 82.0012 155.732 82.0587 155.839 82.1623C155.893 82.2139 155.934 82.2763 155.962 82.3454C155.99 82.4144 156.002 82.4885 155.999 82.5628C156.003 82.6371 155.991 82.7115 155.963 82.7806C155.935 82.8497 155.893 82.9121 155.839 82.9633ZM155.107 82.2309C155.026 82.3226 154.981 82.4406 154.981 82.5628C154.98 82.6245 154.992 82.6857 155.016 82.7427C155.039 82.7997 155.074 82.8514 155.118 82.8946C155.159 82.9384 155.209 82.9731 155.264 82.9968C155.319 83.0204 155.379 83.0324 155.439 83.0319C155.563 83.0319 155.682 82.9825 155.77 82.8945C155.858 82.8065 155.908 82.6872 155.908 82.5628C155.907 82.4386 155.857 82.3196 155.77 82.2309C155.727 82.1873 155.675 82.1528 155.618 82.1292C155.561 82.1056 155.5 82.0934 155.439 82.0934C155.377 82.0934 155.316 82.1056 155.259 82.1292C155.202 82.1528 155.15 82.1873 155.107 82.2309ZM155.198 82.8717V82.2538H155.496C155.537 82.2421 155.58 82.2421 155.622 82.2538C155.648 82.2676 155.671 82.2892 155.685 82.3157C155.699 82.3423 155.705 82.3726 155.702 82.4026C155.71 82.4205 155.714 82.4401 155.714 82.4598C155.714 82.4795 155.71 82.499 155.702 82.517C155.669 82.5304 155.632 82.5304 155.599 82.517H155.69C155.71 82.5646 155.71 82.6181 155.69 82.6658V82.7573H155.542C155.535 82.731 155.535 82.7035 155.542 82.6772C155.544 82.6506 155.544 82.6237 155.542 82.5971H155.416V82.8145L155.198 82.8717ZM155.496 82.3683H155.358V82.5513H155.427C155.427 82.5513 155.496 82.5513 155.507 82.5513C155.513 82.5409 155.516 82.529 155.516 82.517C155.516 82.5049 155.513 82.4931 155.507 82.4827C155.513 82.4702 155.516 82.4565 155.516 82.4426C155.516 82.4288 155.513 82.4151 155.507 82.4026" fill="#231F20"/>
<defs>
<linearGradient id="paint0_linear_3_7108" x1="37.1114" y1="54.0598" x2="56.1518" y2="54.0598" gradientUnits="userSpaceOnUse">
<stop stop-color="#7B1418"/>
<stop offset="1" stop-color="#CE242A"/>
</linearGradient>
</defs>
</svg>
