<svg width="160" height="56" viewBox="0 0 160 56" fill="none" xmlns="http://www.w3.org/2000/svg">
<path d="M111.095 14.0987H103.047C102.864 14.0987 102.681 14.2816 102.681 14.4645V19.1288C102.681 19.3117 102.864 19.4946 103.047 19.4946H111.095C111.278 19.4946 111.461 19.3117 111.461 19.1288V14.4645C111.552 14.2816 111.369 14.0987 111.095 14.0987Z" fill="#F22F46"/>
<path d="M111.004 21.0493H95.4561C95.2732 21.0493 94.9988 21.2322 94.9073 21.4152L92.8953 29.006L92.8039 29.3718L90.426 21.2323C90.3345 21.0494 90.1516 20.8664 89.8773 20.8664H83.8412C83.6582 20.8664 83.3839 21.0494 83.2924 21.2323L81.006 28.8231L80.9146 29.1889L80.8231 29.006L79.9085 25.2563L78.9025 21.5066C78.8111 21.3237 78.6282 21.1408 78.3538 21.1408H66.1901V14.556C66.1901 14.373 65.9158 14.0987 65.6414 14.1901L57.9591 16.568C57.6847 16.6595 57.5933 16.7509 57.5933 16.9338V21.0493H55.5812C55.3983 21.0493 55.2154 21.2322 55.2154 21.4152V27.2684C55.2154 27.4513 55.3983 27.6342 55.5812 27.6342H57.5933V34.7678C57.5933 39.7978 60.3369 42.1757 65.367 42.1757C67.4705 42.1757 69.4826 41.7184 70.8544 40.9868V34.9507C70.8544 34.6763 70.58 34.5849 70.3971 34.5849C69.574 34.9507 68.9338 35.0421 68.2022 35.0421C66.8303 35.0421 66.0987 34.4934 66.0987 32.9386V27.7257H70.4886C70.6715 27.7257 70.8544 27.5427 70.8544 27.3598V22.4212L76.6161 41.5355C76.7076 41.7184 76.8905 41.9013 77.1649 41.9013H83.5668C83.7497 41.9013 84.0241 41.7184 84.1155 41.5355L86.8592 33.0301L88.231 37.42L89.5114 41.4441C89.6029 41.627 89.7858 41.8099 90.0602 41.8099H96.4621C96.645 41.8099 96.9194 41.627 97.0108 41.4441L102.864 22.2383V41.4441C102.864 41.627 103.047 41.8099 103.23 41.8099H111.004C111.187 41.8099 111.369 41.627 111.369 41.4441V21.5066C111.369 21.2323 111.187 21.0493 111.004 21.0493Z" fill="#F22F46"/>
<path d="M121.247 14.0987H113.473C113.29 14.0987 113.107 14.2816 113.107 14.4645V41.4441C113.107 41.627 113.29 41.8099 113.473 41.8099H121.247C121.43 41.8099 121.613 41.627 121.613 41.4441V14.4645C121.613 14.2816 121.43 14.0987 121.247 14.0987Z" fill="#F22F46"/>
<path d="M131.581 14.0987H123.533C123.35 14.0987 123.167 14.2816 123.167 14.4645V19.1288C123.167 19.3117 123.35 19.4946 123.533 19.4946H131.581C131.764 19.4946 131.947 19.3117 131.947 19.1288V14.4645C132.038 14.2816 131.856 14.0987 131.581 14.0987Z" fill="#F22F46"/>
<path d="M131.49 21.0493H123.716C123.533 21.0493 123.35 21.2322 123.35 21.4152V41.4441C123.35 41.627 123.533 41.8099 123.716 41.8099H131.49C131.673 41.8099 131.856 41.627 131.856 41.4441V21.5066C131.856 21.2323 131.673 21.0493 131.49 21.0493Z" fill="#F22F46"/>
<path fill-rule="evenodd" clip-rule="evenodd" d="M144.385 20.5921C137.526 20.5921 132.679 25.6221 132.679 31.4753V31.5668C132.679 37.42 137.526 42.3586 144.294 42.3586C151.153 42.3586 156 37.3285 156 31.4753V31.3839C156 25.5307 151.153 20.5921 144.385 20.5921ZM147.678 31.4753C147.678 33.4874 146.306 35.0421 144.385 35.0421C142.464 35.0421 141.001 33.3959 141.001 31.3839V31.2924C141.001 29.2804 142.373 27.7257 144.294 27.7257C146.214 27.7257 147.678 29.3718 147.678 31.4753Z" fill="#F22F46"/>
<path d="M32.5343 27.0854C35.1608 27.0854 37.29 24.9562 37.29 22.3297C37.29 19.7032 35.1608 17.574 32.5343 17.574C29.9078 17.574 27.7786 19.7032 27.7786 22.3297C27.7786 24.9562 29.9078 27.0854 32.5343 27.0854Z" fill="#F22F46"/>
<path d="M37.29 33.6703C37.29 36.2968 35.1608 38.426 32.5343 38.426C29.9078 38.426 27.7786 36.2968 27.7786 33.6703C27.7786 31.0438 29.9078 28.9146 32.5343 28.9146C35.1608 28.9146 37.29 31.0438 37.29 33.6703Z" fill="#F22F46"/>
<path d="M21.1938 38.426C23.8203 38.426 25.9495 36.2968 25.9495 33.6703C25.9495 31.0438 23.8203 28.9146 21.1938 28.9146C18.5672 28.9146 16.4381 31.0438 16.4381 33.6703C16.4381 36.2968 18.5672 38.426 21.1938 38.426Z" fill="#F22F46"/>
<path d="M25.9495 22.3297C25.9495 24.9562 23.8203 27.0854 21.1938 27.0854C18.5672 27.0854 16.4381 24.9562 16.4381 22.3297C16.4381 19.7032 18.5672 17.574 21.1938 17.574C23.8203 17.574 25.9495 19.7032 25.9495 22.3297Z" fill="#F22F46"/>
<path fill-rule="evenodd" clip-rule="evenodd" d="M26.864 5.13599C14.2431 5.13599 4 15.3791 4 28C4 40.6209 14.2431 50.864 26.864 50.864C39.485 50.864 49.728 40.6209 49.728 28C49.728 15.3791 39.485 5.13599 26.864 5.13599ZM26.864 44.8279C17.5355 44.8279 10.0361 37.3285 10.0361 28C10.0361 18.6715 17.5355 11.1721 26.864 11.1721C36.1925 11.1721 43.6919 18.6715 43.6919 28C43.6919 37.3285 36.1925 44.8279 26.864 44.8279Z" fill="#F22F46"/>
</svg>
