<svg width="160" height="72" viewBox="0 0 160 72" fill="none" xmlns="http://www.w3.org/2000/svg">
<path d="M4 60.4099V49.2678C4 46.6669 6.29535 44.5753 9.12907 44.5753H19.6164C26.6461 44.5753 28.4977 37.8566 28.4977 34.308C28.4977 31.5834 27.6374 29.0335 26.1514 27.2874C24.5781 25.4777 22.4519 24.5955 19.6146 24.5955H9.12907C6.29535 24.5974 4 22.5003 4 19.9085C4 17.3221 6.29535 15.2159 9.12907 15.2159H19.6164C25.5312 15.2159 30.7075 17.4385 34.1906 21.4836C37.1225 24.8847 38.7412 29.4445 38.7412 34.3062C38.7412 43.8277 32.0444 53.9567 19.6146 53.9567H14.2472V60.4081C14.2472 62.9944 11.9555 65.1006 9.12907 65.1006C6.29535 65.1024 4 62.9963 4 60.4099ZM61.602 15.2123C58.3281 15.2123 55.5671 16.2126 53.8174 17.9878C53.7083 16.2235 51.6985 15.2996 49.716 15.2996C47.5698 15.2996 45.2599 16.3636 45.2599 18.6971L44.9325 49.3078C44.9325 50.4173 45.4272 51.3522 46.3639 52.0124C47.1696 52.5799 48.2427 52.8927 49.3831 52.8927C51.4493 52.8927 53.6756 51.8051 53.6756 49.4188L53.9993 31.2342C53.9993 26.3889 57.0786 23.0077 61.4874 23.0077C62.0148 23.0077 62.5568 23.055 63.1352 23.1569C65.5106 23.3879 66.8711 21.3617 66.9675 19.3737C67.0548 17.5131 66.0217 15.536 63.5299 15.3305C62.8842 15.2505 62.2385 15.2104 61.602 15.2104V15.2123ZM106.054 33.9534C106.054 39.0897 104.217 43.8059 100.888 47.2362C97.5054 50.7156 92.7856 52.6326 87.5983 52.6326C82.4111 52.6326 77.6912 50.7156 74.3082 47.2362C70.9743 43.8059 69.1391 39.0879 69.1391 33.9534C69.1428 23.2696 77.0801 15.2123 87.6038 15.2123C98.1238 15.2123 106.058 22.7895 106.058 33.9515L106.054 33.9534ZM77.8258 33.9806C77.8258 39.779 82.1182 44.317 87.5965 44.317C93.0766 44.317 97.369 39.7809 97.369 33.9825C97.369 28.1259 93.0766 23.5334 87.5965 23.5334C82.1182 23.5334 77.8258 28.1241 77.8258 33.9825V33.9806ZM155.897 46.8251C155.548 45.3101 154.405 44.3297 152.99 44.3297C152.781 44.3297 152.572 44.3479 152.336 44.3952C151.506 44.5953 150.771 44.6971 150.158 44.6971C148.498 44.6971 147.725 43.9878 147.725 42.46V24.4464H152.026C154.111 24.4464 155.06 22.4675 155.06 20.6305C155.06 18.7899 154.111 16.811 152.026 16.811H147.725V10.2924C147.727 7.96428 145.426 6.90027 143.285 6.90027C141.146 6.90027 138.847 7.96246 138.847 10.2924V16.8092H122.587V10.2924C122.591 7.96428 120.29 6.90027 118.149 6.90027C116.01 6.90027 113.711 7.96246 113.711 10.2924V16.8092H111.088C110.161 16.8092 109.4 17.2275 108.888 18.0151C108.464 18.6626 108.229 19.5429 108.229 20.4887C108.229 22.453 109.211 24.4464 111.088 24.4464H113.707V44.6207C113.707 49.5625 116.845 52.6326 121.892 52.6326C124.002 52.6326 126.308 52.1052 128.749 51.0721C130.617 50.2536 131.103 48.2966 130.764 46.8251C130.411 45.3101 129.269 44.3297 127.854 44.3297C127.649 44.3297 127.436 44.3479 127.203 44.3952C126.37 44.5953 125.639 44.6971 125.021 44.6971C123.362 44.6971 122.591 43.9878 122.591 42.46V24.4464H138.845V44.6207C138.845 49.5625 141.979 52.6326 147.03 52.6326C149.14 52.6326 151.442 52.1052 153.882 51.0721C155.751 50.2536 156.239 48.2966 155.9 46.8251H155.897Z" fill="#3E3E3E"/>
</svg>
