<svg width="160" height="56" viewBox="0 0 160 56" fill="none" xmlns="http://www.w3.org/2000/svg">
<path d="M27.2217 6.8557H4L6.31547 10.5724H27.0905C29.6279 10.5724 32.017 11.5905 33.8178 13.4393C35.6114 15.2807 36.5992 17.709 36.5992 20.2769C36.5992 22.8003 35.6541 25.0726 33.8664 26.8481C32.1638 28.5391 29.7909 29.651 27.181 29.9815H24.6384L17.6259 29.9255L19.6499 33.4305H22.7241L22.8909 33.6982H22.9153L32.011 49.0548L32.0694 49.1131C32.464 49.5073 32.9583 49.699 33.5808 49.699C34.6459 49.699 35.5458 48.769 35.5458 47.6683C35.5458 47.2317 35.4034 47.0339 35.2312 46.8379C35.1612 46.7582 35.0742 46.659 34.9426 46.4349L27.4583 33.6962C30.9381 33.6358 34.1922 32.2492 36.6436 29.776C39.1493 27.2482 40.5292 23.8746 40.5292 20.2769C40.5292 12.8764 34.5595 6.8557 27.2217 6.8557ZM58.4778 7.23342C58.1802 6.65776 57.5353 6.30103 56.7883 6.30103C56.1114 6.30103 55.438 6.66588 55.1126 7.20892L54.9102 7.56035C54.6443 8.02211 54.7931 8.69221 55.0584 9.15135L58.238 14.6526L70.4094 35.8036H69.8796L69.8959 35.8324H54.2351L56.4987 39.7864H72.7006L77.5952 48.2579L77.6069 48.2774C77.909 48.7604 78.4149 49.5687 79.4728 49.5687C80.5568 49.5687 81.4385 48.6869 81.4385 47.6032C81.4385 47.2306 81.3449 46.9125 81.1446 46.6046L58.4778 7.23342ZM153.729 45.6382H132.834V8.26562C132.834 7.18235 131.953 6.30103 130.869 6.30103C129.785 6.30103 128.904 7.18235 128.904 8.26562V47.6032C128.904 48.6869 129.785 49.5687 130.869 49.5687H156L153.729 45.6382ZM112.715 8.21765C112.69 7.15654 111.819 6.30103 110.752 6.30103C110.702 6.30103 110.653 6.30343 110.606 6.30722C110.557 6.3035 110.508 6.30103 110.459 6.30103C109.711 6.30103 109.066 6.65844 108.768 7.23521L95.7937 30.04L82.8185 7.23514C82.5218 6.65837 81.8762 6.30103 81.1281 6.30103C80.4515 6.30103 79.7784 6.66588 79.4528 7.20892L79.2505 7.56042C78.9855 8.02066 79.1307 8.69042 79.3929 9.14998L93.8604 34.5333L93.8741 34.5561C94.1756 35.0391 94.6815 35.8474 95.7393 35.8474C95.7579 35.8474 95.7758 35.8466 95.7937 35.8461C95.8116 35.8466 95.8295 35.8474 95.8481 35.8474C96.9059 35.8474 97.4111 35.0391 97.7133 34.5561L108.787 15.1286V47.6032C108.787 48.6869 109.669 49.5687 110.752 49.5687C111.835 49.5687 112.717 48.6869 112.717 47.6032V8.26562C112.717 8.2553 112.716 8.24504 112.716 8.23472L112.721 8.22653L112.715 8.21765Z" fill="#75C9E1"/>
</svg>
