<svg width="288" height="48" viewBox="0 0 288 48" fill="none" xmlns="http://www.w3.org/2000/svg">
<path fill-rule="evenodd" clip-rule="evenodd" d="M280.903 21.8708C280.903 18.062 278.694 16.157 274.273 16.157C273.2 16.157 272.108 16.2597 270.996 16.4641C269.886 16.6688 268.844 16.9621 267.873 17.3461C267.54 17.4744 267.375 17.7292 267.375 18.113V18.7263C267.375 19.0584 267.528 19.2246 267.835 19.2246C267.937 19.2246 268.07 19.1932 268.237 19.1293C268.403 19.0649 268.627 18.995 268.908 18.9181C270.671 18.4067 272.344 18.151 273.928 18.151C275.64 18.151 276.866 18.4903 277.607 19.1673C278.348 19.8447 278.719 20.9632 278.719 22.523V25.7434C277.804 25.4571 276.869 25.2391 275.921 25.0912C274.95 24.9382 274.056 24.8618 273.239 24.8618C271.016 24.8618 269.272 25.3977 268.007 26.4721C266.743 27.5452 266.11 29.0157 266.11 30.881C266.11 32.5684 266.627 33.9172 267.662 34.9264C268.697 35.9365 270.096 36.4414 271.859 36.4414C274.26 36.4414 276.56 35.5589 278.757 33.7954L278.911 35.4438C278.936 35.8275 279.14 36.0191 279.524 36.0191H280.329C280.711 36.0191 280.903 35.8278 280.903 35.4438V21.8708ZM268.371 30.8427C268.371 28.0824 270.16 26.7015 273.737 26.7015C275.321 26.7015 276.981 26.9316 278.719 27.3918V32.1848C277.569 32.9265 276.432 33.4887 275.308 33.8718C274.183 34.2558 273.136 34.4471 272.166 34.4471C269.636 34.4471 268.371 33.2457 268.371 30.8427Z" fill="#3F3B3C"/>
<path d="M250.102 35.597L255.659 27.5071L261.37 35.597C261.574 35.8792 261.83 36.0193 262.137 36.0193H263.324C263.656 36.0193 263.822 35.8792 263.822 35.597C263.822 35.4955 263.746 35.3286 263.593 35.0992L257.039 25.82L262.941 17.6526C263.094 17.4223 263.171 17.257 263.171 17.1546C263.171 16.873 263.004 16.7323 262.672 16.7323H261.638C261.332 16.7323 261.075 16.873 260.871 17.1546L255.851 24.2865L250.83 17.1546C250.626 16.873 250.357 16.7323 250.026 16.7323H248.837C248.505 16.7323 248.339 16.873 248.339 17.1546C248.339 17.2312 248.416 17.3842 248.569 17.6143L254.548 25.9732L247.994 35.0992C247.815 35.3286 247.726 35.4955 247.726 35.597C247.726 35.8792 247.892 36.0193 248.224 36.0193H249.297C249.629 36.0193 249.897 35.8792 250.102 35.597Z" fill="#3F3B3C"/>
<path fill-rule="evenodd" clip-rule="evenodd" d="M243.556 33.6992C243.402 33.7638 243.159 33.8468 242.827 33.9484C241.319 34.3834 239.813 34.6005 238.305 34.6005C235.98 34.6005 234.236 33.9433 233.073 32.6256C231.911 31.3091 231.329 29.2702 231.329 26.5102C232.289 26.7892 233.27 26.988 234.262 27.1044C235.244 27.2191 236.222 27.2773 237.193 27.2773C239.901 27.2773 241.901 26.8485 243.191 25.9928C244.482 25.1362 245.127 23.801 245.127 21.9855C245.127 20.1447 244.52 18.7141 243.306 17.6907C242.093 16.6688 240.374 16.157 238.151 16.157C236.746 16.157 235.482 16.3937 234.357 16.8668C233.233 17.3399 232.281 18.0299 231.502 18.9368C230.722 19.8447 230.128 20.9443 229.72 22.2347C229.312 23.5252 229.108 24.9763 229.108 26.5871C229.108 29.8591 229.88 32.345 231.426 34.0446C232.971 35.7447 235.214 36.5946 238.152 36.5946C240.221 36.5946 242.175 36.2106 244.016 35.4438C244.296 35.3164 244.437 35.0485 244.437 34.6388V34.1023C244.437 33.7705 244.284 33.6038 243.977 33.6038C243.849 33.6038 243.709 33.6357 243.556 33.6992ZM233.419 19.7999C234.53 18.6751 236.044 18.113 237.96 18.113C241.256 18.113 242.904 19.4032 242.904 21.9855C242.904 23.2123 242.456 24.107 241.562 24.6694C240.668 25.232 239.263 25.5128 237.346 25.5128C236.35 25.5128 235.36 25.4494 234.377 25.3213C233.376 25.1907 232.384 24.9985 231.407 24.7457C231.636 22.5737 232.307 20.9249 233.419 19.7999Z" fill="#3F3B3C"/>
<path d="M222.531 7.64502C222.148 7.64502 221.956 7.83679 221.956 8.21987V32.7216C221.956 33.7954 222.243 34.6328 222.818 35.2324C223.393 35.834 224.192 36.1342 225.213 36.1342C225.443 36.1342 225.705 36.1206 226 36.0957C226.293 36.0698 226.517 36.0318 226.67 35.9808C227.002 35.9044 227.168 35.7126 227.168 35.4057V34.6772C227.168 34.3195 226.989 34.1406 226.631 34.1406C226.504 34.1406 226.344 34.1533 226.153 34.1789C225.961 34.2045 225.788 34.2175 225.635 34.2175C225.073 34.2175 224.683 34.1025 224.467 33.8718C224.249 33.6419 224.14 33.2457 224.14 32.6833V8.2201C224.14 7.83702 223.949 7.64502 223.566 7.64502H222.531Z" fill="#3F3B3C"/>
<path fill-rule="evenodd" clip-rule="evenodd" d="M216.897 21.8708C216.897 18.062 214.688 16.157 210.267 16.157C209.194 16.157 208.102 16.2597 206.991 16.4641C205.879 16.6688 204.838 16.9621 203.867 17.3461C203.535 17.4744 203.369 17.7292 203.369 18.113V18.7263C203.369 19.0584 203.522 19.2246 203.829 19.2246C203.931 19.2246 204.064 19.1932 204.232 19.1293C204.397 19.0649 204.62 18.995 204.902 18.9181C206.665 18.4067 208.338 18.151 209.922 18.151C211.634 18.151 212.86 18.4903 213.601 19.1673C214.342 19.8447 214.713 20.9632 214.713 22.523V25.7434C213.798 25.4571 212.863 25.2392 211.915 25.0912C210.944 24.9382 210.05 24.8618 209.233 24.8618C207.01 24.8618 205.266 25.3977 204.001 26.4721C202.737 27.5452 202.104 29.0157 202.104 30.881C202.104 32.5684 202.621 33.9172 203.656 34.9264C204.691 35.9365 206.09 36.4414 207.853 36.4414C210.254 36.4414 212.553 35.5589 214.751 33.7954L214.904 35.4438C214.93 35.8275 215.134 36.0191 215.518 36.0191H216.323C216.706 36.0191 216.897 35.8278 216.897 35.4438V21.8708ZM204.365 30.8427C204.365 28.0824 206.154 26.7015 209.731 26.7015C211.314 26.7015 212.975 26.9316 214.713 27.3918V32.1848C213.563 32.9265 212.426 33.4887 211.302 33.8718C210.178 34.2558 209.13 34.4471 208.16 34.4471C205.63 34.4471 204.365 33.2457 204.365 30.8427Z" fill="#3F3B3C"/>
<path fill-rule="evenodd" clip-rule="evenodd" d="M72.3393 16.1569C76.7592 16.1569 78.9688 18.0619 78.9688 21.8708V35.4437C78.9688 35.8277 78.7773 36.019 78.3947 36.019H77.59C77.206 36.019 77.0015 35.8275 76.9763 35.4437L76.8231 33.7953C74.6253 35.5589 72.3259 36.4413 69.9247 36.4413C68.1614 36.4413 66.7625 35.9364 65.7282 34.9263C64.6929 33.9172 64.1758 32.5683 64.1758 30.8809C64.1758 29.0156 64.8083 27.5452 66.0727 26.4721C67.3376 25.3976 69.0819 24.8618 71.3043 24.8618C72.1223 24.8618 73.0159 24.9382 73.987 25.0912C74.9344 25.2391 75.8696 25.4571 76.7848 25.7433V22.5229C76.7848 20.9632 76.4137 19.8446 75.6734 19.1673C74.9317 18.4902 73.7056 18.151 71.994 18.151C70.4103 18.151 68.7365 18.4067 66.9736 18.9181C66.6923 18.9949 66.4689 19.0648 66.3032 19.1292C66.1362 19.1932 66.0026 19.2245 65.9008 19.2245C65.5936 19.2245 65.4406 19.0584 65.4406 18.7263V18.1129C65.4406 17.7292 65.6063 17.4744 65.9391 17.3461C66.9097 16.9621 67.9512 16.6688 69.0619 16.4641C70.1742 16.2596 71.2657 16.1569 72.3393 16.1569ZM71.8027 26.7015C68.2253 26.7015 66.4371 28.0824 66.4371 30.8426C66.4371 33.2456 67.7019 34.447 70.2312 34.447C71.2016 34.447 72.249 34.2557 73.3736 33.8717C74.4976 33.4886 75.6349 32.9265 76.7848 32.1848V27.3917C75.0471 26.9316 73.3863 26.7017 71.8025 26.7017L71.8027 26.7015Z" fill="#3F3B3C"/>
<path d="M106.257 16.1569C108.019 16.1569 109.361 16.6496 110.281 17.6338C111.2 18.6179 111.66 20.068 111.66 21.9855V35.444C111.66 35.8277 111.468 36.019 111.085 36.019H110.05C109.667 36.019 109.475 35.8275 109.475 35.4437V22.9058C109.475 21.2189 109.188 20.0048 108.613 19.2629C108.037 18.5216 107.099 18.151 105.796 18.151C103.343 18.151 101.031 18.9564 98.8593 20.5667C98.9349 21.1644 98.9733 21.7663 98.9743 22.3688V35.4437C98.9743 35.8277 98.7827 36.019 98.3989 36.019H97.3649C96.9818 36.019 96.7898 35.8275 96.7898 35.4437V22.9058C96.7898 21.2189 96.502 20.0048 95.9276 19.2629C95.3528 18.5216 94.4138 18.151 93.1109 18.151C90.7344 18.151 88.4608 18.9312 86.2891 20.4903V35.4437C86.2891 35.8277 86.0968 36.019 85.7145 36.019H84.6795C84.2961 36.019 84.1048 35.8275 84.1048 35.4437V17.3075C84.1048 16.924 84.2961 16.732 84.6795 16.732H85.4461C85.8287 16.732 86.0463 16.924 86.0968 17.3078L86.251 18.8415C87.4005 17.998 88.6012 17.3396 89.8528 16.8668C91.1048 16.3937 92.3445 16.1569 93.5703 16.1569C95.9712 16.1569 97.5811 17.1421 98.3989 19.1096C99.6257 18.1388 100.91 17.4031 102.251 16.9048C103.593 16.4064 104.927 16.1569 106.257 16.1569Z" fill="#3F3B3C"/>
<path fill-rule="evenodd" clip-rule="evenodd" d="M130.361 21.8708C130.361 18.0619 128.152 16.1569 123.732 16.1569C122.658 16.1569 121.567 16.2596 120.455 16.4641C119.344 16.6688 118.302 16.9621 117.331 17.3461C116.999 17.4744 116.833 17.7292 116.833 18.1129V18.7263C116.833 19.0584 116.986 19.2245 117.293 19.2245C117.395 19.2245 117.529 19.1932 117.696 19.1292C117.862 19.0648 118.085 18.9949 118.366 18.9181C120.129 18.4067 121.803 18.151 123.386 18.151C125.098 18.151 126.324 18.4902 127.065 19.1673C127.806 19.8446 128.177 20.9632 128.177 22.5229V25.7433C127.262 25.4571 126.327 25.2391 125.379 25.0912C124.408 24.9382 123.515 24.8618 122.697 24.8618C120.474 24.8618 118.73 25.3976 117.465 26.4721C116.201 27.5452 115.568 29.0156 115.568 30.8809C115.568 32.5683 116.085 33.9172 117.121 34.9263C118.155 35.9364 119.554 36.4413 121.317 36.4413C123.719 36.4413 126.018 35.5589 128.216 33.7953L128.369 35.4437C128.394 35.8275 128.599 36.019 128.982 36.019H129.787C130.17 36.019 130.361 35.8277 130.361 35.4437V21.8708ZM117.829 30.8426C117.829 28.0824 119.618 26.7015 123.195 26.7015C124.779 26.7015 126.44 26.9316 128.177 27.3917V32.1848C127.027 32.9265 125.89 33.4886 124.766 33.8717C123.642 34.2557 122.594 34.447 121.624 34.447C119.094 34.447 117.829 33.2456 117.829 30.8426Z" fill="#3F3B3C"/>
<path d="M148.681 34.6771V35.4437C148.681 35.8277 148.489 36.019 148.106 36.019H134.616C134.232 36.019 134.041 35.8275 134.041 35.4437V34.6386C134.041 34.384 134.073 34.1789 134.137 34.0247C134.2 33.8715 134.321 33.6933 134.501 33.4886L146.151 18.6497H134.999C134.616 18.6497 134.423 18.4575 134.423 18.0744V17.3078C134.423 16.9238 134.616 16.732 134.999 16.732H148.029C148.412 16.732 148.604 16.9238 148.604 17.3078V18.1127C148.604 18.3174 148.571 18.5091 148.508 18.688C148.444 18.8673 148.31 19.0711 148.106 19.3011L136.417 34.1023H148.105C148.489 34.1023 148.681 34.294 148.681 34.6771Z" fill="#3F3B3C"/>
<path fill-rule="evenodd" clip-rule="evenodd" d="M153.413 33.9294C154.984 35.7066 157.163 36.5943 159.948 36.5943C162.732 36.5943 164.911 35.7063 166.482 33.9294C168.053 32.153 168.839 29.6293 168.839 26.3569C168.839 23.0846 168.053 20.5669 166.482 18.8032C164.911 17.0389 162.732 16.1569 159.948 16.1569C157.163 16.1569 154.984 17.0389 153.413 18.8032C151.842 20.5669 151.057 23.0846 151.057 26.3569C151.057 29.6293 151.842 32.153 153.413 33.9294ZM166.578 26.3569C166.578 31.8524 164.368 34.6005 159.948 34.6005C155.527 34.6005 153.318 31.8524 153.318 26.3569C153.318 20.8865 155.527 18.151 159.948 18.151C164.368 18.151 166.578 20.8865 166.578 26.3569Z" fill="#3F3B3C"/>
<path d="M183.172 16.1569C185.062 16.1569 186.493 16.6496 187.465 17.6338C188.435 18.6179 188.92 20.068 188.92 21.9855V35.444C188.92 35.8277 188.729 36.019 188.346 36.019H187.311C186.928 36.019 186.737 35.8275 186.737 35.4437V22.9058C186.737 21.2189 186.416 20.0048 185.778 19.2629C185.14 18.5216 184.117 18.151 182.712 18.151C181.358 18.151 180.068 18.3624 178.841 18.7838C177.615 19.2056 176.414 19.8132 175.239 20.6052V35.4437C175.239 35.8277 175.047 36.019 174.664 36.019H173.63C173.246 36.019 173.055 35.8275 173.055 35.4437V17.3075C173.055 16.924 173.246 16.732 173.63 16.732H174.396C174.779 16.732 174.996 16.924 175.047 17.3078L175.201 18.9564C176.427 18.0619 177.73 17.3717 179.11 16.8855C180.489 16.3999 181.843 16.1569 183.172 16.1569Z" fill="#3F3B3C"/>
<path fill-rule="evenodd" clip-rule="evenodd" d="M27.0871 4C16.0471 4 7.09717 12.9546 7.09717 24.0001C7.09717 34.1418 14.642 42.5189 24.422 43.8228V39.7928C24.422 38.6563 23.7057 37.6351 22.6289 37.2735C16.9861 35.3771 12.9493 29.981 13.0981 23.6627C13.279 15.9707 19.5417 9.92317 27.2314 10.0007C34.8929 10.0782 41.0803 16.3162 41.0803 24.0001C41.0803 24.1753 41.0759 24.3495 41.0695 24.5228L41.0653 24.6398C41.058 24.8004 41.048 24.9609 41.0353 25.1212C41.0316 25.172 41.0265 25.2227 41.0219 25.2735C41.001 25.5101 40.9737 25.7461 40.94 25.9813C40.9324 26.038 40.9245 26.095 40.916 26.1516C39.2028 37.4424 24.5041 43.7884 24.4236 43.8232C25.2952 43.9391 26.1841 44 27.0871 44C38.1274 44 47.0773 35.0459 47.0773 24.0001C47.0773 12.9546 38.1274 4 27.0871 4Z" fill="#5FCAF4"/>
</svg>
