<svg width="304" height="48" viewBox="0 0 304 48" fill="none" xmlns="http://www.w3.org/2000/svg">
<path d="M85.3889 11.097L85.7255 11.1086C87.714 11.2464 89.0182 12.6068 89.157 14.6822L89.1693 15.0557V40.0246C89.1693 42.4681 87.7207 43.9854 85.3868 43.9854C83.602 43.9854 81.6997 43.0377 81.5305 40.4131L81.5183 40.0267V39.4249C79.2488 42.3757 75.6382 43.9854 71.211 43.9854C62.1738 43.9854 56.1046 37.3768 56.1046 27.5401C56.1046 17.7056 62.2812 11.097 71.4775 11.097C75.3378 11.097 78.6426 12.3913 80.9624 14.7752L81.3399 15.1825V15.0557C81.3399 12.7626 83.042 11.097 85.3889 11.097ZM130.897 11.097C138.966 11.0948 143.144 15.9302 143.322 25.4681L143.328 26.111V39.9343C143.328 42.5068 141.854 43.9833 139.279 43.9833C136.847 43.9833 135.457 42.6792 135.33 40.2993L135.32 39.9343V26.111C135.32 20.3254 133.545 17.8539 129.382 17.8539C125.113 17.8539 122.962 20.3783 122.824 25.5649L122.816 26.111V39.9364C122.816 42.509 121.342 43.9854 118.77 43.9854C116.338 43.9854 114.947 42.6813 114.82 40.3015L114.811 39.9364V25.9369C114.811 20.1986 113.089 17.8561 108.871 17.8561C104.723 17.8561 102.55 20.1661 102.405 24.7242L102.397 25.2212V40.0246C102.397 42.5047 100.884 43.9854 98.3483 43.9854C95.9228 43.9854 94.531 42.7169 94.3979 40.3992L94.3874 40.0246V15.2341C94.3874 12.3757 96.4226 11.097 98.4364 11.097C100.693 11.097 102.339 12.6315 102.395 14.7656C104.237 12.4767 107.351 11.097 110.833 11.097C115.509 11.097 118.969 13.057 120.895 16.7815C122.649 13.1559 126.246 11.097 130.897 11.097ZM191.656 11.097C193.609 11.097 195.082 12.6831 195.082 14.7892C195.082 15.4179 194.956 16.0495 194.688 16.75L194.51 17.1791L185.511 40.4329C184.568 42.7927 183.036 43.9833 180.955 43.9833C178.904 43.9833 177.449 42.921 176.627 40.8215L170.517 23.7018L164.381 40.4264C163.781 42.0834 162.739 43.9854 159.999 43.9854C157.634 43.9854 156.529 42.7202 155.68 40.7873L155.533 40.4393L146.438 17.25C146.044 16.2657 145.872 15.5285 145.872 14.7892C145.872 12.4789 147.615 11.097 149.298 11.097C150.948 11.097 152.345 12.2114 153.096 14.0986L153.238 14.4862L159.997 33.5836L166.674 14.57C167.422 12.3199 168.258 11.097 170.521 11.097C172.516 11.097 173.444 12.3268 174.15 14.2095L174.28 14.57L180.957 33.5836L187.719 14.4797C188.424 12.365 189.896 11.097 191.656 11.097ZM212.019 11.1851C224.222 11.1851 228.552 19.9966 228.552 27.5401C228.552 35.1266 224.222 43.9854 212.021 43.9854C206.829 43.9854 202.526 42.264 199.578 39.0059C196.938 36.0938 195.486 32.0211 195.486 27.5401C195.486 23.0656 196.941 19.0102 199.578 16.1174C202.39 13.0382 206.436 11.3434 211.316 11.1957L212.019 11.1851ZM259.756 4.00049C261.834 4.00162 263.539 5.60267 263.704 7.63861L263.717 7.96352V24.3401L274.183 13.5255L274.696 12.9759C275.648 11.9802 276.675 11.097 278.037 11.097C280.091 11.097 281.641 12.6465 281.641 14.699C281.641 16.163 280.672 17.2462 279.576 18.3508L279.3 18.6276L270.652 27.624L280.096 37.0738L280.612 37.6086C281.367 38.429 281.995 39.3413 281.995 40.4737C281.995 42.3779 280.386 43.9854 278.482 43.9854C276.996 43.9854 275.957 43.0204 274.979 42.0098L274.19 41.1958L263.715 30.3018V40.0224C263.712 42.2078 261.941 43.9788 259.756 43.9811C257.68 43.9811 255.974 42.379 255.808 40.3485L255.795 40.0246V7.95922C255.799 5.77351 257.57 4.00285 259.756 4.00049ZM7.47143 4.00478C9.34631 4.00478 11.2426 5.32059 11.419 7.84267L11.4323 8.23002V12.077H16.6268C18.7287 12.077 20.1407 13.4525 20.1407 15.5027C20.1407 17.5653 18.9621 18.7926 16.8901 18.916L16.5366 18.9263L11.4323 18.9285V33.6932C11.4323 36.5064 12.6036 36.8675 13.6245 36.8675C14.365 36.8675 14.905 36.6685 15.3148 36.4871L15.5093 36.3989C15.8151 36.2385 16.1547 36.1531 16.5 36.1496C18.1398 36.1496 19.2789 38.0516 19.2789 39.7581C19.2789 40.6779 18.9221 41.8599 17.9185 42.4187L17.3677 42.7265C16.1129 43.3876 14.4291 43.9833 11.7525 43.9833C6.22271 43.9833 3.66498 41.3048 3.51931 35.3169L3.5127 34.7634V8.23002C3.5127 5.45546 5.50496 4.00264 7.47143 4.00478ZM247.895 11.0967C250.626 11.0967 252.391 12.5455 252.391 14.7892C252.391 16.8911 251.123 18.3031 249.234 18.3031C248.866 18.3031 248.582 18.2584 248.31 18.2006L248.039 18.1398C247.628 18.043 247.203 17.9463 246.47 17.9463C242.004 17.9463 240.024 20.8253 239.912 27.5422L239.906 28.1634V40.0246C239.906 42.625 237.914 43.9854 235.948 43.9854C234.077 43.9854 232.186 42.7577 232.001 40.4053L231.987 40.0246V15.0557C231.987 12.8378 233.728 11.0967 235.948 11.0967C238.009 11.1001 239.725 12.6828 239.894 14.7376C241.899 12.4112 244.823 11.0806 247.895 11.0967ZM38.8082 10.8993C45.015 10.8993 50.2503 14.6925 52.4725 20.7961C53.0408 22.3593 52.7161 24.3612 50.1919 25.4484L49.8162 25.5973L31.6107 32.2231C33.0872 35.3093 35.9627 37.1382 39.3842 37.1382C40.7864 37.1215 42.1749 36.8597 43.4869 36.3646C45.0511 35.8144 46.5094 35.0042 47.8009 33.9696L48.4557 33.4138C49.0877 32.8903 49.879 32.5977 50.6995 32.5842C52.1974 32.5842 53.5514 33.6652 53.8523 35.1009C54.0337 35.9567 53.8247 36.8312 53.2628 37.5961L53.0184 37.8969L52.9969 37.9141C50.7962 39.8333 48.0216 41.4344 44.9763 42.5412C43.8385 42.9541 42.6719 43.2831 41.486 43.5255C40.1836 43.8009 38.8564 43.9428 37.5252 43.9489C30.8005 43.9489 25.52 40.0375 23.0377 33.216C21.5054 29.0037 21.4689 24.6366 22.9389 20.9229C24.5636 16.8266 27.8862 13.7619 32.5542 12.0641C34.6797 11.2904 36.7837 10.8993 38.8082 10.8993ZM212.019 17.5896C206.84 17.5896 203.493 21.4946 203.493 27.5401C203.493 33.7877 206.76 37.6691 212.019 37.6691C217.199 37.6691 220.545 33.6932 220.545 27.5401C220.545 21.4946 217.199 17.5896 212.019 17.5896ZM72.8142 18.215C67.7164 18.215 64.2907 21.9975 64.2907 27.6283C64.2907 33.1559 67.6799 36.8675 72.7261 36.8675C78.6148 36.8675 81.2518 32.1823 81.2518 27.5401C81.2518 21.097 77.0137 18.215 72.8142 18.215ZM37.8131 17.3037C37.0429 17.3037 36.2506 17.422 35.4518 17.6564L34.8516 17.8539C30.216 19.5409 29.1906 23.4518 29.7328 26.5902L29.7968 26.9233L44.5529 21.5526C43.4117 19.4314 41.1078 17.3037 37.8131 17.3037Z" fill="#1D1C39"/>
<path d="M293.539 30.1084C289.705 30.1131 286.598 33.2202 286.593 37.0545C286.598 40.8887 289.705 43.9958 293.539 44.0005C297.374 43.997 300.482 40.8895 300.487 37.0545C300.482 33.2194 297.374 30.112 293.539 30.1084Z" fill="#FF22B1"/>
</svg>
