<svg width="160" height="128" viewBox="0 0 160 128" fill="none" xmlns="http://www.w3.org/2000/svg">
<path d="M80.0002 68.5114V83.2024C104.9 83.2024 124.288 59.1469 116.143 33.0542C112.583 21.6516 103.523 12.591 92.12 9.0315C66.0273 0.886082 41.9714 20.2741 41.9714 45.1744H56.696C56.6981 45.1744 56.6999 45.1706 56.6999 45.1706C56.702 29.5438 72.167 17.4624 88.5963 23.424C94.6829 25.6328 99.5379 30.487 101.748 36.5732C107.711 52.9928 95.6473 68.4517 80.0339 68.4739V53.8305C80.0339 53.8305 80.0326 53.8296 80.0313 53.8296H65.352C65.3507 53.8296 65.3494 53.8317 65.3494 53.8317V68.5114H80.0002ZM65.3468 79.7942H54.0679L54.0654 79.7916V68.5114H65.3494V79.7916C65.3494 79.7916 65.3481 79.7942 65.3468 79.7942ZM54.0731 68.5114H44.618C44.6141 68.5114 44.6111 68.5089 44.6111 68.5089V59.058C44.6111 59.058 44.6141 59.0512 44.618 59.0512H54.0662C54.0701 59.0512 54.0731 59.0542 54.0731 59.0542V68.5114Z" fill="#0080FF"/>
<path d="M17.1397 98.1046C15.2254 96.7763 12.8432 96.1032 10.0595 96.1032H4V115.328H10.0595C12.8363 115.328 15.2194 114.617 17.1419 113.217C18.1881 112.474 19.01 111.437 19.5853 110.134C20.1576 108.838 20.4478 107.309 20.4478 105.591C20.4478 103.892 20.1576 102.383 19.5849 101.105C19.01 99.8214 18.1872 98.8118 17.1397 98.1046ZM7.53926 99.3526H9.44106C11.5572 99.3526 13.299 99.7688 14.6199 100.591C16.0862 101.475 16.8301 103.157 16.8301 105.591C16.8301 108.097 16.0844 109.855 14.6147 110.817H14.6135C13.3486 111.654 11.6171 112.078 9.46737 112.078H7.53926V99.3526ZM22.9297 115.328H26.3369V101.787H22.9297V115.328ZM24.6659 95.8664C24.0837 95.8664 23.5817 96.073 23.1776 96.4775C22.7688 96.8669 22.5614 97.3607 22.5614 97.945C22.5614 98.5272 22.7675 99.0287 23.175 99.4358C23.5817 99.8434 24.0837 100.05 24.6659 100.05C25.248 100.05 25.7496 99.8434 26.1571 99.4358C26.5651 99.0283 26.7712 98.5268 26.7712 97.945C26.7712 97.3615 26.5638 96.8678 26.1571 96.4801C25.7496 96.073 25.248 95.8664 24.6659 95.8664ZM38.7103 102.919C37.6831 102.005 36.536 101.472 35.2953 101.472C33.4146 101.472 31.8513 102.123 30.6494 103.404C29.4324 104.676 28.8149 106.313 28.8149 108.268C28.8149 110.18 29.4225 111.811 30.6236 113.119C31.8341 114.384 33.406 115.025 35.2953 115.025C36.6089 115.025 37.7379 114.659 38.6581 113.937V114.249C38.6581 115.372 38.3571 116.246 37.7642 116.847C37.1716 117.446 36.3497 117.75 35.322 117.75C33.7492 117.75 32.7634 117.132 31.5632 115.51L29.2431 117.739L29.3057 117.827C29.8068 118.53 30.5744 119.219 31.5874 119.873C32.6008 120.524 33.8747 120.855 35.3742 120.855C37.3972 120.855 39.0333 120.232 40.2382 119.002C41.4501 117.766 42.0646 116.111 42.0646 114.084V101.787H38.7103V102.919ZM37.8168 110.916C37.2212 111.592 36.4566 111.92 35.4794 111.92C34.5026 111.92 33.7423 111.592 33.1554 110.917C32.5715 110.244 32.2748 109.353 32.2748 108.268C32.2748 107.166 32.5715 106.263 33.1558 105.586C33.7346 104.917 34.5164 104.577 35.4794 104.577C36.4558 104.577 37.2208 104.907 37.8163 105.588C38.4097 106.265 38.7103 107.166 38.7103 108.268C38.7103 109.353 38.4097 110.244 37.8168 110.916ZM44.9807 115.328H48.388V101.787H44.9807V115.328ZM46.7173 95.8664C46.1347 95.8664 45.6327 96.073 45.2286 96.4775C44.8198 96.8669 44.6124 97.3607 44.6124 97.945C44.6124 98.5272 44.8185 99.0287 45.2261 99.4358C45.6327 99.8434 46.1347 100.05 46.7173 100.05C47.2991 100.05 47.8006 99.8434 48.2086 99.4358C48.6161 99.0283 48.8222 98.5268 48.8222 97.945C48.8222 97.3615 48.6148 96.8678 48.2086 96.4801C47.8006 96.073 47.2991 95.8664 46.7173 95.8664ZM55.8559 98.1292H52.5017V101.787H50.5537V104.893H52.5017V110.517C52.5017 112.277 52.8531 113.536 53.547 114.26C54.2426 114.986 55.4777 115.355 57.2182 115.355C57.7719 115.355 58.3291 115.336 58.8738 115.301L59.0273 115.29V112.187L57.8591 112.249C57.0479 112.249 56.5062 112.106 56.2488 111.826C55.9879 111.541 55.8559 110.938 55.8559 110.034V104.893H59.0273V101.787H55.8559V98.1292ZM70.721 102.8C69.6886 101.919 68.2608 101.472 66.4788 101.472C65.3451 101.472 64.2851 101.721 63.326 102.207C62.4389 102.657 61.5678 103.402 61.0141 104.377L61.0486 104.418L63.2303 106.507C64.129 105.074 65.1282 104.577 66.453 104.577C67.165 104.577 67.7558 104.768 68.2099 105.144C68.6614 105.518 68.8813 105.994 68.8813 106.597V107.254C68.0365 106.997 67.1939 106.867 66.3741 106.867C64.6784 106.867 63.2988 107.266 62.2737 108.053C61.2357 108.849 60.7096 109.989 60.7096 111.44C60.7096 112.712 61.1534 113.745 62.0314 114.514C62.9172 115.254 64.0238 115.631 65.3214 115.631C66.6186 115.631 67.8321 115.108 68.9339 114.213V115.328H72.2886V106.623C72.2886 104.975 71.7612 103.689 70.721 102.8ZM64.6715 110.154C65.0579 109.884 65.6038 109.748 66.2947 109.748C67.1149 109.748 67.9848 109.913 68.8813 110.238V111.566C68.1409 112.255 67.1516 112.604 65.9402 112.604C65.3503 112.604 64.8918 112.473 64.5766 112.214C64.2674 111.96 64.1169 111.638 64.1169 111.229C64.1169 110.764 64.2985 110.412 64.6715 110.154ZM75.0033 115.328H78.4106V96.1032H75.0033V115.328ZM90.7728 115.618C85.308 115.618 80.8623 111.172 80.8623 105.707C80.8623 100.242 85.308 95.7961 90.7728 95.7961C96.2376 95.7961 100.683 100.242 100.683 105.707C100.683 111.172 96.2376 115.618 90.7728 115.618ZM90.7728 99.2888C87.234 99.2888 84.355 102.168 84.355 105.707C84.355 109.246 87.234 112.124 90.7728 112.124C94.3116 112.124 97.1906 109.246 97.1906 105.707C97.1906 102.168 94.3116 99.2888 90.7728 99.2888ZM112.832 110.486C112.223 111.169 111.6 111.761 111.119 112.069C110.648 112.372 110.053 112.526 109.352 112.526C108.348 112.526 107.541 112.16 106.883 111.407C106.23 110.658 105.898 109.695 105.898 108.544C105.898 107.394 106.225 106.432 106.871 105.689C107.52 104.94 108.323 104.577 109.326 104.577C110.424 104.577 111.581 105.259 112.572 106.432L114.824 104.272C113.356 102.361 111.483 101.472 109.247 101.472C107.376 101.472 105.755 102.153 104.428 103.496C103.107 104.83 102.438 106.529 102.438 108.544C102.438 110.56 103.107 112.263 104.426 113.605C105.746 114.949 107.368 115.631 109.247 115.631C111.714 115.631 113.705 114.566 115.048 112.615L112.832 110.486ZM126.817 103.679C126.334 103.006 125.675 102.464 124.86 102.068C124.048 101.672 123.1 101.472 122.045 101.472C120.143 101.472 118.587 102.173 117.418 103.559C116.284 104.933 115.709 106.641 115.709 108.637C115.709 110.688 116.34 112.387 117.584 113.685C118.821 114.976 120.477 115.631 122.505 115.631C124.803 115.631 126.688 114.702 128.109 112.869L128.186 112.77L125.963 110.634C125.757 110.882 125.465 111.165 125.199 111.415C124.862 111.733 124.546 111.979 124.208 112.147C123.699 112.4 123.128 112.526 122.489 112.526C121.545 112.526 120.763 112.248 120.165 111.7C119.606 111.188 119.279 110.497 119.193 109.644H128.219L128.25 108.4C128.25 107.52 128.13 106.672 127.894 105.879C127.657 105.085 127.295 104.345 126.817 103.679ZM119.37 106.867C119.534 106.219 119.832 105.68 120.259 105.261C120.721 104.807 121.322 104.577 122.046 104.577C122.871 104.577 123.511 104.811 123.946 105.276C124.349 105.706 124.576 106.241 124.624 106.867H119.37ZM139.901 102.8C138.869 101.919 137.441 101.472 135.659 101.472C134.526 101.472 133.466 101.721 132.506 102.207C131.619 102.657 130.748 103.402 130.195 104.377L130.229 104.418L132.411 106.507C133.309 105.074 134.309 104.577 135.633 104.577C136.345 104.577 136.936 104.768 137.39 105.144C137.842 105.518 138.062 105.994 138.062 106.597V107.254C137.217 106.997 136.374 106.867 135.554 106.867C133.859 106.867 132.479 107.266 131.454 108.053C130.416 108.849 129.89 109.989 129.89 111.44C129.89 112.712 130.334 113.745 131.212 114.514C132.097 115.254 133.204 115.631 134.502 115.631C135.799 115.631 137.013 115.108 138.114 114.213V115.328H141.469V106.623C141.469 104.975 140.942 103.689 139.901 102.8ZM133.852 110.154C134.238 109.884 134.784 109.748 135.475 109.748C136.295 109.748 137.165 109.913 138.062 110.238V111.566C137.321 112.255 136.332 112.604 135.12 112.604C134.531 112.604 134.072 112.473 133.757 112.214C133.448 111.96 133.297 111.638 133.297 111.229C133.297 110.764 133.479 110.412 133.852 110.154ZM154.576 103.066C153.627 102.009 152.294 101.472 150.612 101.472C149.26 101.472 148.162 101.86 147.341 102.626V101.787H144V115.328H147.407V107.86C147.407 106.834 147.651 106.02 148.133 105.438C148.613 104.859 149.273 104.577 150.151 104.577C150.923 104.577 151.508 104.829 151.94 105.347C152.373 105.867 152.593 106.584 152.593 107.479V115.328H156V107.479C156 105.604 155.521 104.119 154.576 103.066Z" fill="#0080FF"/>
</svg>
