<svg width="160" height="56" viewBox="0 0 160 56" fill="none" xmlns="http://www.w3.org/2000/svg">
<path d="M30.4269 33.8633C30.4956 33.8351 30.5543 33.8111 30.5864 33.8004C30.7156 33.7488 30.9482 33.6713 30.9482 33.6713C30.9482 33.6713 30.7673 42.1717 30.7673 42.275C30.7673 43.9286 29.9405 43.9028 29.9405 42.275C29.9405 42.12 29.7855 34.1622 29.7855 34.1622C29.7855 34.1105 29.9663 34.033 30.1214 33.9813C30.2122 33.951 30.3296 33.903 30.4269 33.8633Z" fill="#009CDE"/>
<path d="M29.9977 31.0709C29.9021 31.1032 29.805 31.1359 29.708 31.1651C29.708 30.4158 29.5788 23.5173 29.553 22.5871C30.0697 22.4063 30.6123 22.2512 31.1549 22.122C31.1483 22.4392 31.1332 23.1283 31.1144 23.9864C31.0599 26.4834 30.974 30.4121 30.974 30.7775C30.8836 30.8033 30.7996 30.8292 30.7156 30.855C30.6316 30.8809 30.5477 30.9067 30.4573 30.9325C30.3121 30.9648 30.1568 31.0172 29.9977 31.0709Z" fill="#009CDE"/>
<path d="M29.1534 8.84868C28.8779 7.4347 28.3517 4.73364 30.4056 4.73364C32.402 4.73364 31.9014 7.07007 31.586 8.54217C31.5218 8.84189 31.4653 9.10577 31.4391 9.30682C31.4391 9.31821 31.4303 9.68769 31.4163 10.2753C31.3668 12.3525 31.2525 17.1555 31.2324 18.5048L30.5348 18.6857C30.173 18.7632 29.8372 18.8407 29.4754 18.9441C29.4238 17.1613 29.2429 9.38433 29.2429 9.33266C29.2218 9.19995 29.1898 9.03556 29.1534 8.84868Z" fill="#009CDE"/>
<path d="M68.5929 15.7661H68.5671L66.5001 26.566H63.658L60.9709 13.3891H63.2446L65.1049 23.5431H65.1307L67.1202 13.3891H70.0656L72.0292 23.5431H72.0551L73.9929 13.3891H76.189L73.4761 26.566H70.5824L68.5929 15.7661Z" fill="#009CDE"/>
<path fill-rule="evenodd" clip-rule="evenodd" d="M79.5995 16.6704C81.589 16.6704 83.8627 17.7039 83.8627 21.657C83.8627 25.7393 81.589 26.6694 79.5995 26.6694C77.6101 26.6694 75.3106 25.7134 75.3106 21.657C75.3364 17.7039 77.6359 16.6704 79.5995 16.6704ZM79.5995 25.0416C81.0981 25.0416 81.4598 23.3106 81.4598 21.6828C81.4598 20.0551 81.1239 18.3498 79.5995 18.3498C78.0751 18.3498 77.7392 20.0551 77.7392 21.6828C77.7392 23.3106 78.101 25.0416 79.5995 25.0416Z" fill="#009CDE"/>
<path d="M85.0253 18.4273C85.0253 17.8848 84.9995 17.368 84.9478 16.8254H87.0665C87.0751 17.0235 87.0866 17.2215 87.098 17.4196C87.121 17.8158 87.144 18.212 87.144 18.6082H87.1698C87.454 17.8589 88.1775 16.6962 89.6502 16.6962C89.7794 16.6962 89.9085 16.7221 90.0377 16.7479V18.9441C89.831 18.8924 89.5985 18.8407 89.3918 18.8407C88.4358 18.8407 87.3765 19.435 87.3765 21.2436V26.566H85.0512L85.0253 18.4273Z" fill="#009CDE"/>
<path d="M91.0454 12.4073H93.3966V26.5402H91.0454V12.4073Z" fill="#009CDE"/>
<path fill-rule="evenodd" clip-rule="evenodd" d="M102.93 12.4073V24.8866C102.93 25.4292 102.956 25.9976 103.008 26.5402H100.812C100.76 26.0493 100.734 25.5326 100.734 25.0416H100.683C100.295 25.8684 99.5975 26.6952 98.0989 26.6952C95.6961 26.6952 94.6884 24.3957 94.6884 21.7087C94.6884 18.5307 95.9544 16.6962 98.0472 16.6962C99.1324 16.6446 100.114 17.2647 100.553 18.2465H100.579V12.4073H102.93ZM98.719 24.9641C100.088 24.9641 100.553 23.4656 100.553 21.657C100.553 19.7709 100.037 18.4015 98.7449 18.4015C97.453 18.4015 96.9879 19.6675 96.9879 21.6053C97.0138 23.8531 97.3755 24.9641 98.719 24.9641Z" fill="#009CDE"/>
<path d="M109.881 13.3891H112.309V18.7374H116.211V13.3891H118.614V26.566H116.211V20.7268H112.309V26.5402H109.881V13.3891Z" fill="#009CDE"/>
<path fill-rule="evenodd" clip-rule="evenodd" d="M127.166 26.0751C126.261 26.4885 125.254 26.6952 124.272 26.6952C121.146 26.6952 119.776 24.4474 119.776 21.8378C119.776 18.9441 121.301 16.6962 123.781 16.6962C125.874 16.6962 127.657 17.9106 127.657 21.8895V22.3546H122.05C122.05 24.0082 122.722 25.0158 124.53 25.0158C125.951 25.0158 126.649 24.5766 127.088 24.2665L127.166 26.0751ZM125.383 20.856C125.383 19.1508 124.815 18.2723 123.755 18.2723C122.515 18.2723 122.024 19.5642 122.024 20.856H125.383Z" fill="#009CDE"/>
<path fill-rule="evenodd" clip-rule="evenodd" d="M129.155 17.3938C130.111 16.9288 131.17 16.6704 132.23 16.6704C135.253 16.6704 135.95 18.1431 135.95 20.5718V24.8091C135.95 25.3775 136.002 25.9459 136.08 26.5144H133.961C133.858 26.0751 133.806 25.6359 133.832 25.1967H133.806C133.212 25.9976 132.488 26.6694 131.093 26.6694C129.594 26.6694 128.199 25.6359 128.199 23.8273C128.199 21.1919 130.344 20.5201 133.315 20.5201H133.78V20.1584C133.78 19.2024 133.315 18.2981 131.971 18.2981C131.015 18.324 130.085 18.6599 129.31 19.2541L129.155 17.3938ZM133.548 21.7862C131.558 21.7862 130.37 22.1996 130.37 23.6206C130.318 24.3957 130.912 25.0675 131.687 25.1192H131.868C133.263 25.1192 133.78 24.0857 133.78 22.3546V21.7862H133.548Z" fill="#009CDE"/>
<path d="M138.095 12.4073H140.42V26.5402H138.095V12.4073Z" fill="#009CDE"/>
<path d="M143.107 14.836L145.433 14.1125V16.8254H147.37V18.5307H145.433V23.5948C145.433 24.6283 145.82 24.9383 146.492 24.9383C146.802 24.9383 147.112 24.8608 147.37 24.7316V26.3852C146.879 26.5919 146.337 26.6952 145.794 26.6952C144.063 26.6952 143.081 25.8943 143.081 23.8531V18.5565H141.531V16.8513H143.081V14.836H143.107Z" fill="#009CDE"/>
<path d="M148.12 12.4073H150.445V18.0915H150.497L150.509 18.0738C150.921 17.4815 151.467 16.6962 152.9 16.6962C155.096 16.6962 155.767 18.324 155.767 20.2876V26.5402H153.442V20.7268C153.442 19.2283 153.055 18.6082 152.099 18.6082C150.884 18.6082 150.445 19.6417 150.445 20.8819V26.5402H148.12V12.4073Z" fill="#009CDE"/>
<path fill-rule="evenodd" clip-rule="evenodd" d="M66.3192 30.0541C69.058 30.0541 71.5642 32.0952 71.5642 36.8234C71.5642 41.5516 69.058 43.5927 66.3192 43.5927C63.5805 43.5927 61.0743 41.5516 61.0743 36.8234C61.0743 32.0952 63.5805 30.0541 66.3192 30.0541ZM66.3192 41.7583C67.8436 41.7583 69.0838 40.4664 69.0838 36.8234C69.0838 33.1803 67.8436 31.9143 66.3192 31.9143C64.7948 31.9143 63.5546 33.2062 63.5546 36.8234C63.5546 40.4406 64.7948 41.7583 66.3192 41.7583Z" fill="#009CDE"/>
<path d="M72.546 35.299C72.546 34.7564 72.5201 34.2397 72.4685 33.6971H74.5871C74.5957 33.8952 74.6072 34.0933 74.6187 34.2913L74.6187 34.2917C74.6417 34.6878 74.6646 35.0838 74.6646 35.4799H74.6905C74.9747 34.7306 75.7239 33.5679 77.1708 33.5679C77.3 33.5679 77.4292 33.5937 77.5583 33.6196L77.5584 33.6196V35.8157C77.3517 35.7641 77.1192 35.7124 76.8866 35.7124C75.9306 35.7124 74.8713 36.3066 74.8713 38.1152V43.4377H72.546V35.299Z" fill="#009CDE"/>
<path fill-rule="evenodd" clip-rule="evenodd" d="M78.6952 44.9363C79.5737 45.453 80.5555 45.7372 81.5631 45.763C83.7593 45.763 84.121 44.2387 84.121 42.7143V41.7841H84.0952C83.7076 42.5334 83.0617 43.4377 81.5373 43.4377C80.1938 43.4377 78.1526 42.5334 78.1526 38.6062C78.1526 35.9191 79.1086 33.5679 81.6665 33.5679C83.0875 33.5679 83.7335 34.3689 84.2244 35.2215H84.3019C84.3019 34.8731 84.3254 34.5364 84.3486 34.2036C84.3598 34.0428 84.371 33.8829 84.3794 33.7229H86.498C86.4892 33.8988 86.4775 34.0716 86.4657 34.2435L86.4657 34.244L86.4657 34.2444C86.443 34.5774 86.4205 34.9067 86.4205 35.2473V42.4042C86.4205 45.453 85.4904 47.5975 81.9249 47.5975C80.788 47.5975 79.6512 47.3908 78.5919 47.0032L78.6952 44.9363ZM82.0799 41.7066C83.5526 41.7066 84.1469 40.6473 84.1469 38.4511C84.1469 36.41 83.3717 35.3248 82.2607 35.3507C81.0206 35.3765 80.5555 36.5133 80.5555 38.477C80.5555 40.7506 81.2789 41.7066 82.0799 41.7066Z" fill="#009CDE"/>
<path fill-rule="evenodd" clip-rule="evenodd" d="M88.4875 34.2655C89.4435 33.7746 90.5028 33.5421 91.5621 33.5421C94.5851 33.5421 95.2827 35.0148 95.2827 37.4435V41.6808C95.2827 42.2492 95.3344 42.8176 95.4119 43.386H93.2932C93.1899 42.9468 93.1382 42.5076 93.164 42.0683H93.1382C92.5439 42.8693 91.8205 43.541 90.4253 43.541C88.9267 43.541 87.5315 42.5076 87.5315 40.699C87.5315 38.0636 89.676 37.3918 92.6473 37.3918H93.1124V37.0301C93.1124 36.0741 92.6473 35.1698 91.3038 35.1698C90.3478 35.1957 89.4176 35.5315 88.6425 36.1258L88.4875 34.2655ZM93.0865 38.6578H92.8798C90.8904 38.6578 89.7019 39.0712 89.7019 40.4923C89.6502 41.2674 90.2444 41.9391 91.0195 41.9908H91.2004C92.5956 41.9908 93.1124 40.9573 93.1124 39.2262L93.0865 38.6578Z" fill="#009CDE"/>
<path d="M97.1688 35.299C97.1688 34.7564 97.143 34.2397 97.0913 33.6971H99.2874C99.2958 33.8568 99.307 34.0193 99.3182 34.1827C99.3414 34.5215 99.365 34.8645 99.365 35.1957H99.3908C99.7267 34.6014 100.398 33.5679 101.975 33.5679C104.171 33.5679 104.842 35.1957 104.842 37.1593V43.4119H102.491V37.5727C102.491 36.0741 102.104 35.454 101.148 35.454C99.9334 35.454 99.4941 36.4875 99.4941 37.7277V43.386H97.1688V35.299Z" fill="#009CDE"/>
<path d="M106.625 29.5631H109.054V31.8627H106.625V29.5631Z" fill="#009CDE"/>
<path d="M106.677 33.6971H109.002V43.4119H106.677V33.6971Z" fill="#009CDE"/>
<path d="M110.837 41.3966L114.996 35.4799H110.966V33.6971H117.322V35.6866L113.239 41.6291H117.451V43.4119H110.811V41.3966H110.837Z" fill="#009CDE"/>
<path fill-rule="evenodd" clip-rule="evenodd" d="M119.234 34.2655C120.19 33.7746 121.249 33.5421 122.308 33.5421C125.331 33.5421 126.029 35.0148 126.029 37.4435V41.6808C126.029 42.2492 126.081 42.8176 126.158 43.386H124.039C123.936 42.9468 123.884 42.5076 123.91 42.0683H123.884C123.29 42.8693 122.567 43.541 121.172 43.541C119.673 43.541 118.278 42.5076 118.278 40.699C118.278 38.0636 120.422 37.3918 123.394 37.3918H123.859V37.0301C123.859 36.0741 123.394 35.1698 122.05 35.1698C121.094 35.1957 120.164 35.5315 119.389 36.1258L119.234 34.2655ZM123.626 38.6578C121.637 38.6578 120.448 39.0712 120.448 40.4923C120.396 41.2674 120.991 41.9391 121.766 41.9908H121.947C123.342 41.9908 123.859 40.9573 123.859 39.2262V38.6578H123.626Z" fill="#009CDE"/>
<path d="M128.561 31.7076L130.886 30.9842V33.6971H132.824V35.4023H130.886V40.4406C130.886 41.4741 131.274 41.7841 131.946 41.7841C132.256 41.7841 132.566 41.7325 132.824 41.5774V43.231C132.333 43.4635 131.791 43.5669 131.248 43.541C129.517 43.541 128.535 42.7401 128.535 40.7248V35.4023H126.985V33.6971H128.535L128.561 31.7076Z" fill="#009CDE"/>
<path d="M134.245 29.5631H136.648V31.8627H134.245V29.5631Z" fill="#009CDE"/>
<path d="M134.297 33.6971H136.648V43.4119H134.323L134.297 33.6971Z" fill="#009CDE"/>
<path fill-rule="evenodd" clip-rule="evenodd" d="M142.203 33.5421C144.192 33.5421 146.466 34.5756 146.466 38.5286C146.466 42.6109 144.192 43.541 142.203 43.541C140.214 43.541 137.914 42.6109 137.914 38.5286C137.94 34.6014 140.239 33.5421 142.203 33.5421ZM142.203 41.9133C143.702 41.9133 144.063 40.1822 144.063 38.5545C144.063 36.9267 143.727 35.2215 142.203 35.2215C140.679 35.2215 140.343 36.9267 140.343 38.5545C140.343 40.1822 140.704 41.9133 142.203 41.9133Z" fill="#009CDE"/>
<path d="M148.326 35.299C148.326 34.7564 148.301 34.2397 148.249 33.6971H150.445C150.453 33.8568 150.465 34.0193 150.476 34.1827V34.1829C150.499 34.5216 150.523 34.8645 150.523 35.1957H150.548C150.884 34.6014 151.556 33.5679 153.132 33.5679C155.328 33.5679 156 35.1957 156 37.1593V43.4119H153.675V37.5727C153.675 36.0741 153.287 35.454 152.331 35.454C151.117 35.454 150.678 36.4875 150.678 37.7277V43.386H148.352L148.326 35.299Z" fill="#009CDE"/>
<path d="M46.8638 13.2599C47.372 13.8724 48.0708 14.3534 48.7713 14.8355C49.4597 15.3094 50.1497 15.7843 50.6619 16.3862C49.9126 12.8207 47.1739 9.90107 43.9184 9.20347C44.9196 9.94631 45.4263 10.8708 45.9115 11.7562C46.2026 12.2874 46.486 12.8045 46.8638 13.2599Z" fill="#009CDE"/>
<path d="M7.79806 22.3029C8.89445 19.9211 10.249 18.9469 11.514 18.0371C12.8424 17.0817 14.072 16.1974 14.7999 13.8283C14.4948 14.3433 13.806 14.7491 12.9739 15.2394C11.5515 16.0775 9.71027 17.1624 8.65069 19.4608C9.01365 18.5641 9.15166 17.4733 9.29071 16.3743C9.48818 14.8134 9.68775 13.2361 10.5368 12.1747C7.15074 14.6993 7.50913 18.4046 7.73235 20.7124C7.79698 21.3806 7.85027 21.9316 7.79806 22.3029Z" fill="#009CDE"/>
<path d="M11.8287 33.9813C11.9676 34.6151 11.9256 35.3481 11.8802 36.1411C11.7905 37.7079 11.6873 39.5089 12.9397 41.2415C12.1515 40.3589 11.0002 39.7411 9.79839 39.0964C8.04527 38.1558 6.18489 37.1578 5.18851 35.1957C6.69188 41.005 9.94185 41.7879 12.5632 42.4193C13.5909 42.6669 14.522 42.8912 15.2133 43.386C14.3049 42.07 14.1419 40.9534 13.9601 39.7074C13.7386 38.1892 13.489 36.4788 11.8287 33.9813Z" fill="#009CDE"/>
<path d="M11.2086 39.0712C10.6317 36.9235 10.8128 35.4403 10.9874 34.0098C11.1804 32.4287 11.3655 30.9118 10.511 28.633C10.4594 29.45 10.2418 30.1267 10.0153 30.8308C9.56145 32.2422 9.07215 33.7638 9.81336 36.7459C8.82958 34.8177 7.57276 33.5021 6.45876 32.336C5.37847 31.2053 4.43248 30.2151 4 28.9431C4.03747 34.0953 7.05023 36.0685 9.25528 37.5127C10.0911 38.0601 10.8109 38.5315 11.2086 39.0712Z" fill="#009CDE"/>
<path d="M19.9674 46.6415C19.3987 45.8541 19.1529 45.1822 18.894 44.4744C18.3883 43.092 17.8325 41.5724 14.7224 38.787C15.0694 39.3209 15.1744 39.9007 15.2926 40.5538C15.5177 41.7975 15.791 43.3071 17.8746 45.2721C16.5193 44.4703 14.932 44.167 13.4018 43.8747C11.4314 43.4982 9.55578 43.1399 8.39232 41.7583C11.006 46.7583 15.0635 46.5938 17.7357 46.4854C18.7089 46.4459 19.4983 46.4139 19.9674 46.6415Z" fill="#009CDE"/>
<path d="M42.8332 45.2721C44.9142 43.2927 45.1894 41.7786 45.4143 40.5411C45.5329 39.8887 45.6375 39.3132 45.9854 38.787C42.8693 41.5626 42.3118 43.0812 41.8058 44.4598C41.544 45.173 41.296 45.8487 40.7146 46.6415C41.1907 46.4138 41.9857 46.4459 42.9626 46.4854C45.6436 46.5938 49.6953 46.7576 52.2896 41.7583C51.1377 43.1581 49.2617 43.5128 47.2885 43.8859C45.7652 44.174 44.184 44.4729 42.8332 45.2721Z" fill="#009CDE"/>
<path d="M47.7681 41.2415C49.0279 39.4986 48.916 37.698 48.8183 36.1246C48.7697 35.3424 48.7246 34.6162 48.8533 33.9813C47.193 36.4788 46.9434 38.1892 46.7219 39.7074C46.54 40.9534 46.3771 42.07 45.4686 43.386C46.166 42.8921 47.0982 42.6677 48.1245 42.4207C50.7489 41.789 53.989 41.0091 55.4935 35.1957C54.4966 37.1587 52.6441 38.1568 50.8976 39.0977C49.7018 39.742 48.5557 40.3595 47.7681 41.2415Z" fill="#009CDE"/>
<path d="M40.2237 46.9774C38.5443 46.5382 36.8132 46.254 35.0563 46.2023C33.4544 46.1764 31.8525 46.4348 30.3539 47.0032C28.8553 46.4348 27.2534 46.1764 25.6515 46.2023C23.8946 46.254 22.1635 46.5382 20.4841 46.9774C17.642 47.7267 15.1875 48.3209 13.043 47.2358C15.0841 49.0444 17.487 49.7161 20.9492 49.3286C22.2411 49.1889 23.4229 48.8185 24.5797 48.456C25.9908 48.0138 27.3646 47.5833 28.8553 47.5975H28.9587C27.2534 48.4501 25.729 49.6386 24.4889 51.0855L25.8066 51.2664C25.8066 51.2664 27.1759 48.5018 30.3539 47.7783C33.5319 48.5018 34.9012 51.2664 34.9012 51.2664L36.2189 51.0855C34.9788 49.6386 33.4544 48.4501 31.7491 47.5975H31.8525C33.3432 47.5833 34.717 48.0138 36.1281 48.456C37.2848 48.8185 38.4667 49.1889 39.7586 49.3286C43.2208 49.6903 45.5978 49.0444 47.6648 47.2358C45.5203 48.3209 43.0658 47.7267 40.2237 46.9774Z" fill="#009CDE"/>
<path d="M10.7177 23.724C10.3945 24.3488 10.0193 24.8399 9.65057 25.3227C8.69282 26.5765 7.77801 27.7742 7.92725 31.1134C7.44842 29.1099 6.64388 27.7147 5.94822 26.5084C5.21747 25.2412 4.60686 24.1824 4.62009 22.8455C3.49191 27.6089 5.23084 29.4556 6.78297 31.1039C7.47026 31.8338 8.12093 32.5248 8.46983 33.4129C8.38243 31.4153 8.95265 30.1899 9.54201 28.9233C10.1723 27.5689 10.8245 26.1674 10.7177 23.724Z" fill="#009CDE"/>
<path d="M12.3454 18.4273C11.932 18.9958 11.6478 19.2541 10.5626 20.1326C8.9349 21.4244 7.79806 23.2589 7.4105 25.3C7.44952 24.3442 7.25288 23.2337 7.04856 22.0797C6.71162 20.1769 6.35377 18.1559 6.99711 16.5154C4.05684 20.6697 5.55937 23.5984 6.62723 25.6799C7.01383 26.4334 7.34346 27.0759 7.38467 27.6254C7.86363 25.7463 8.65783 24.7546 9.52585 23.6708C10.484 22.4744 11.532 21.1656 12.3454 18.4273Z" fill="#009CDE"/>
<path d="M53.2973 25.3C52.8839 23.2589 51.7729 21.4244 50.1452 20.1326L50.0849 20.0823C49.0493 19.2194 48.768 18.9851 48.3624 18.4273C49.1782 21.1737 50.23 22.4821 51.1942 23.6814C52.0623 24.7611 52.8593 25.7525 53.349 27.6254C53.39 27.0855 53.7166 26.4516 54.1007 25.7061C55.1689 23.6329 56.682 20.6961 53.7365 16.5154C54.3845 18.1676 54.0168 20.2058 53.6715 22.1205C53.466 23.2598 53.2684 24.3554 53.2973 25.3Z" fill="#009CDE"/>
<path d="M56.7078 28.9431C56.2738 30.2323 55.3227 31.2251 54.2377 32.3577C53.1265 33.5176 51.8749 34.8242 50.8944 36.7459C51.6357 33.7638 51.1464 32.2422 50.6925 30.8308C50.4661 30.1267 50.2484 29.45 50.1968 28.633C49.3423 30.9118 49.5274 32.4287 49.7204 34.0098C49.895 35.4403 50.0761 36.9235 49.4992 39.0712C49.8969 38.5315 50.6167 38.0601 51.4525 37.5127C53.6576 36.0685 56.6703 34.0953 56.7078 28.9431Z" fill="#009CDE"/>
<path d="M49.9901 23.724C49.8697 26.1736 50.526 27.5761 51.1613 28.9338C51.7523 30.1966 52.3251 31.4207 52.238 33.4129C52.5791 32.5324 53.227 31.8444 53.9141 31.1147C55.465 29.4675 57.2157 27.6082 56.0877 22.8455C56.1009 24.1953 55.4906 25.2536 54.7601 26.5204C54.0643 27.7269 53.2595 29.1226 52.7806 31.1392C52.9307 27.742 52.0174 26.5536 51.0508 25.296C50.6868 24.8223 50.3153 24.3389 49.9901 23.724Z" fill="#009CDE"/>
<path d="M13.844 13.2599C14.2218 12.8045 14.5052 12.2874 14.7963 11.7562C15.2815 10.8708 15.7882 9.94631 16.7894 9.20347C13.5081 9.90107 10.7693 12.7948 10.0201 16.3604C10.5389 15.7507 11.2466 15.2713 11.9503 14.7946C12.6482 14.3218 13.3422 13.8517 13.844 13.2599Z" fill="#009CDE"/>
<path d="M45.9337 13.7766C46.6643 16.1677 47.9002 17.0562 49.2343 18.0153C50.495 18.9217 51.8434 19.8911 52.9356 22.2512C52.8834 21.8864 52.9365 21.3397 53.001 20.6751C53.2242 18.3746 53.5845 14.6604 50.1968 12.1747C51.0722 13.2343 51.2721 14.8416 51.4692 16.4269C51.6038 17.5088 51.7371 18.5805 52.083 19.4608C51.022 17.1943 49.211 16.1079 47.8011 15.262C46.9447 14.7483 46.2363 14.3233 45.9337 13.7766Z" fill="#009CDE"/>
<path d="M34.5654 16.4379C33.7127 16.0762 32.8084 15.8436 31.9041 15.7144V16.3087C32.7568 16.4379 33.5835 16.6704 34.3587 16.9805C34.462 16.7996 34.5395 16.6187 34.5654 16.4379Z" fill="#009CDE"/>
<path d="M33.8936 10.6762L34.0745 10.5212L33.7386 10.3661L32.8343 10.3403L32.6017 10.4953L32.085 10.4437V10.5728C32.4209 10.5987 32.7568 10.6245 33.0151 10.6762L33.4544 10.6504L33.8936 10.6762Z" fill="#009CDE"/>
<path d="M32.1883 29.9507C32.1883 29.7957 31.9816 29.6407 31.6974 29.5115H31.6458C31.6458 29.5621 31.6418 29.6843 31.637 29.8328L31.6369 29.833C31.6295 30.0632 31.6199 30.3565 31.6199 30.545C31.9558 30.3641 32.1883 30.2091 32.1883 29.9507Z" fill="#009CDE"/>
<path d="M21.8276 18.6082C21.8406 18.5565 21.8535 18.4984 21.8664 18.4403C21.8793 18.3821 21.8922 18.324 21.9052 18.2723C21.8942 18.2745 21.8835 18.2767 21.8729 18.2788C21.7583 18.3021 21.6617 18.3218 21.5434 18.2981L21.8276 18.6082Z" fill="#009CDE"/>
<path d="M15.8851 35.2473L15.9109 35.1181L15.6526 34.5239L15.3425 34.3947L15.8851 35.2473Z" fill="#009CDE"/>
<path d="M37.5366 21.812L37.5625 22.0445L38.0792 21.8895L38.2342 21.5795L37.8725 21.1144L38.0534 20.8302L38.5443 21.1661L38.6218 21.0886L38.5184 21.0111L38.4151 20.8044L38.6218 20.701L38.4151 20.4426L37.95 20.6752L37.795 20.9594L37.6917 21.2177L37.8983 21.5536L37.8208 21.7087L37.5366 21.812Z" fill="#009CDE"/>
<path fill-rule="evenodd" clip-rule="evenodd" d="M30.3797 44.8846C40.4562 44.8846 48.6208 36.6942 48.5949 26.6177C48.5949 17.2647 41.5156 9.436 32.2142 8.48003L32.1883 8.58338C32.174 8.68352 32.1518 8.77573 32.1304 8.86442L32.1304 8.86448C32.1132 8.93594 32.0965 9.00511 32.085 9.07428C36.0897 9.46184 39.8361 11.2188 42.7041 14.035L40.6888 16.0503L40.7663 15.6886L40.5079 15.5594L40.172 15.5852L40.2495 15.3527L40.017 14.5259L39.5261 13.9833L37.95 13.1566L37.8208 13.3116L37.5366 13.3891C38.0792 14.1642 38.3634 15.0943 38.3634 16.0245V16.3862L39.1385 17.368L38.7768 17.4455L39.0093 17.8072L38.3117 18.5048L38.0275 17.9881C37.8983 18.3498 37.7175 18.7115 37.5108 19.0216L37.6658 19.1508L35.5213 21.2694C35.4567 21.2048 35.3921 21.1467 35.3276 21.0886L35.3275 21.0885C35.2629 21.0304 35.1983 20.9723 35.1338 20.9077C34.9271 21.0111 34.7204 21.0886 34.5137 21.1661L34.6945 21.2953L34.5912 21.3986L34.3328 21.5278L34.2295 21.7862L34.0745 21.6311L33.6352 21.7862L33.7644 21.9929L34.0745 21.9153L34.2811 21.9412L34.307 21.8378L34.462 21.7603L34.5137 21.6828L34.7979 21.6053H35.0046L35.1338 21.7087L34.307 22.5613L34.2553 22.4838L33.3768 22.6388L33.1702 22.8455L32.9893 22.8713L33.5319 22.3546L33.3252 22.2512L32.8084 22.923L32.9635 22.8972V23.1555L33.1443 23.233L33.1702 23.4914L32.8601 23.4397L32.5501 23.4914L31.7749 23.1039C31.7749 23.1039 31.7233 25.1708 31.7233 26.2043C33.5319 26.8244 35.4697 27.7029 35.4697 30.0282C35.4955 31.01 34.9788 31.9402 34.152 32.4827L34.1003 32.5086L34.0486 32.5603C33.4087 32.9945 32.5868 33.2468 31.8333 33.4781C31.735 33.5083 31.6378 33.5381 31.5424 33.5679L31.5166 35.1957C32.8343 35.8416 34.4103 36.7976 34.2553 39.4846C34.2295 40.1564 33.9711 40.3372 33.7644 40.3889C32.9893 40.5698 32.1883 40.699 31.4132 40.7506V41.3449C34.8237 41.1124 38.0275 39.6913 40.5079 37.3401L42.6266 39.4588C35.8314 46.0214 25.0573 46.0214 18.2363 39.5105L20.3549 37.3918C22.8095 39.6913 25.9874 41.0865 29.3463 41.3449V40.7506C26.1424 40.4923 23.1453 39.1746 20.82 36.9526L21.3626 36.3842L22.1377 36.4617L22.5511 36.0224L23.6362 36.0741L23.7913 35.6866L23.7396 35.5315C25.3415 36.7459 27.2534 37.521 29.2687 37.7277V37.1334C27.0467 36.8751 24.9798 35.9449 23.3262 34.4205L25.4448 32.3019C25.9616 32.767 26.53 33.1545 27.1759 33.4646C27.2276 33.2579 27.2793 33.077 27.3826 32.8961C26.84 32.6119 26.3233 32.2761 25.8841 31.8885L28.0027 29.7698C28.3386 30.0282 28.7262 30.2608 29.1137 30.3899V29.744C28.8553 29.6407 28.6228 29.4856 28.4161 29.3306L29.0104 28.7364C28.8037 28.6847 28.597 28.6072 28.3903 28.5297L27.9769 28.9431C27.7702 28.7105 27.5893 28.4522 27.4601 28.1938C27.0984 28.0388 26.7367 27.8579 26.4008 27.6254C25.1606 26.8761 24.4114 25.5067 24.4372 24.034C24.4114 23.0522 24.6956 22.0704 25.2898 21.2953L23.1712 19.1766C24.7214 17.6781 26.7109 16.7221 28.8295 16.3862V15.7919C26.5558 16.1278 24.4114 17.1613 22.7578 18.7632L22.3961 18.4015C22.3185 18.5307 22.2152 18.7115 22.1118 18.9441L22.3444 19.1766C20.4583 21.1661 19.3989 23.8015 19.3473 26.5402H16.3243C16.376 23.0005 17.7454 19.6158 20.1999 17.0321L21.1559 17.9881H21.2851C21.4659 17.9623 21.6726 17.9106 21.8276 17.8331L20.6133 16.6187C21.2592 15.9986 21.9568 15.4302 22.7061 14.9393C22.7218 14.8921 22.7352 14.8449 22.7483 14.7984C22.7783 14.6922 22.8072 14.5899 22.8611 14.5001C22.9903 14.2934 23.1453 14.0867 23.3262 13.88C22.1894 14.5001 21.1559 15.2752 20.2257 16.1795L18.1071 14.0609C20.9492 11.2963 24.6439 9.56519 28.6228 9.15179C28.6228 9.07428 28.597 9.02261 28.597 9.02261C28.5884 8.97113 28.5798 8.92249 28.5712 8.87387L28.5711 8.87331C28.5539 8.77571 28.5367 8.67811 28.5195 8.55754C18.4688 9.59103 11.2086 18.5565 12.2679 28.5813C13.2497 37.8569 21.0525 44.9104 30.3797 44.8846ZM17.6679 14.4484L19.7865 16.5671C17.2286 19.2283 15.7817 22.7938 15.7301 26.4885H12.733C12.7846 21.967 14.5416 17.6781 17.6679 14.4484ZM16.376 30.9325L16.1951 30.9067L16.0143 30.7258L15.1617 30.6483L15.42 31.01L14.6449 30.855L14.8516 30.6741L14.6707 30.4933L14.1023 30.7258L13.8956 31.0875L13.9731 31.9402L14.6191 33.4904L14.9291 33.9813L15.11 34.033L14.6191 33.1028L14.5157 32.6378L14.6191 32.5344L14.5416 32.2761L14.8258 32.3277L15.2908 32.9995L15.3942 33.0512V32.5603L15.575 32.6636L15.6267 32.922L16.0918 33.0512L16.2985 32.8961L16.376 32.9478V33.3095L16.5827 33.5679L16.8411 33.6196L17.4095 34.5497L17.7454 34.6531L17.8487 34.2138C18.443 35.1698 19.1147 36.0741 19.9157 36.8751L17.797 38.9937C14.6476 35.8173 12.8352 31.5547 12.733 27.0828H15.7301C15.7559 28.3746 15.9884 29.6923 16.376 30.9325ZM19.3214 27.0569C19.3214 27.3412 19.3473 27.6254 19.3989 27.9354L19.0372 28.0129L18.9597 28.3746L18.1846 29.3565L18.2104 30.7L17.4353 30.9584H16.9961C16.5827 29.6923 16.376 28.4005 16.3243 27.0569H19.3214ZM19.9932 35.5057L20.665 35.8933L20.7942 35.9966L20.3032 36.4875C20.0707 36.255 19.864 36.0224 19.6573 35.7641L19.9932 35.5057ZM22.7319 19.5125L24.8506 21.6311C24.4114 22.122 24.0238 22.6646 23.7396 23.2589H23.5846L23.2745 23.3364H23.1712L22.8611 23.6206L23.2745 23.5689L23.6362 23.4914L23.5587 23.5948L23.2487 23.8015H23.0937L22.6286 24.1632L22.1894 24.1115L21.5434 25.3259L21.6726 25.5584L21.3109 25.9718L21.2592 26.4885H19.9157C19.9415 23.879 20.9492 21.3986 22.7319 19.5125ZM24.9023 28.2713L25.0573 28.1938L25.4448 28.478L25.264 28.6072L25.7032 28.8914L25.6774 28.5813L25.9099 28.1938L26.1683 28.4522L26.4267 28.8139L25.9616 28.9431L26.1683 29.3565L26.4783 29.1756L26.4267 29.0464L26.6592 28.8914L26.7884 28.2455C26.9692 28.633 27.2018 28.9947 27.486 29.3048L25.3673 31.4234C24.3338 30.3383 23.6879 28.9431 23.5071 27.4445L23.9463 27.9096H24.3597L24.9023 28.2713ZM21.8535 26.0235L21.9052 25.4292L22.2669 25.2225L22.9128 25.3259L23.0161 25.4292C22.9679 25.7428 22.9422 26.0789 22.918 26.3955L22.9128 26.4627H22.1894L21.8535 26.0235ZM20.8717 28.0904L20.5875 28.5297H20.0965L20.0707 28.5038C19.9932 28.0388 19.9415 27.5479 19.9157 27.0828H20.82L20.6133 27.8062L20.8717 28.0904ZM22.6488 33.6972L22.6487 33.6971C22.5052 33.5421 22.3616 33.387 22.241 33.232L22.3444 32.4827L22.0343 31.7593L21.9568 30.6225L21.5951 29.9249L21.6726 29.4856L21.2334 28.6588L20.8717 28.478L21.0267 28.0388L20.8717 27.7029L21.0267 27.3153H21.4401L21.5951 27.0828H22.2927L22.3961 27.2895L22.241 27.9871L22.1635 28.1163L22.4219 28.6847L22.241 28.788L22.1118 28.633L22.0602 28.6847L22.1894 29.0206L22.3961 29.4081H22.4994L22.5511 29.0464L22.4477 28.9172V28.6847L22.4219 28.1938L22.5769 27.3153L22.4219 27.0828H22.9128C23.0161 28.8655 23.7396 30.545 24.9798 31.8368L22.8611 33.9296C22.7923 33.8522 22.7205 33.7747 22.6488 33.6972ZM40.8955 36.8234C43.4533 34.188 44.9261 30.7 45.0036 27.0569H48.0007C47.8973 31.5009 46.1146 35.7641 42.9883 38.942L40.8955 36.8234ZM40.0687 35.9966L40.3012 35.7382L40.0687 34.5756L39.9137 34.5239L40.017 34.3172L39.5261 34.1622L39.4227 34.5756L39.3711 35.0923L39.2677 35.1957L38.3634 34.2913C40.2495 32.3277 41.3347 29.7698 41.438 27.0569H44.4352C44.3318 30.5708 42.9366 33.9038 40.4821 36.41L40.0687 35.9966ZM37.4333 38.8128L37.7175 38.2186L37.6141 37.9602L38.0275 37.5985V37.3918L37.6658 37.1593L37.95 36.565L38.3893 35.9966L37.95 35.5315H37.6141L37.4074 35.1957C37.5883 35.0406 37.7692 34.8856 37.9242 34.7306L40.0428 36.8492C39.2677 37.5985 38.3893 38.2703 37.4333 38.8128ZM37.0199 32.9737L36.7357 32.6894L36.9424 32.4052L37.2266 31.8368L37.1232 31.6818L37.3041 31.2684L37.2783 30.8808L37.1749 30.4933L36.9165 30.4158L36.8132 30.6225L36.6582 30.5708C36.8907 30.2349 37.0974 29.8474 37.2783 29.4856L37.5366 29.3823L37.6917 29.1756L37.7692 29.2531L37.95 29.0464L37.795 28.8655L37.9242 28.8397L38.1567 28.9431H38.6218L38.906 28.788L39.6294 28.5813L39.5003 28.3488L39.4486 28.0646L39.8361 28.2455L39.9912 28.1679L39.9137 27.8579L39.4227 28.0388L38.906 27.9354L38.4926 27.1086H40.7921C40.6888 29.6665 39.6553 32.0952 37.8983 33.9296L37.5883 33.6196L37.7175 33.2062L37.485 32.2761L37.0199 32.9737ZM35.9347 21.7087L38.0534 19.59C38.5443 20.1326 38.9835 20.7268 39.3711 21.3469L39.1127 21.4244L39.1385 21.8895L39.9137 22.3804C40.1203 22.8197 40.2754 23.2589 40.4046 23.724L40.2754 23.9306L39.9912 24.1373L39.9137 24.5766L39.707 24.6799L39.5519 24.8866L39.3969 24.8091H39.1127L39.2677 24.5766L39.3969 23.9823L39.6036 23.8531L39.0352 23.3106L38.6218 23.4656L38.5184 23.879L38.2601 24.1632L37.9759 23.9306L37.8725 23.6723L38.0275 23.5689L38.105 23.724L38.2342 23.6723L38.1826 23.4139H38.0017V23.5173L37.8725 23.5431L37.2266 22.768L36.994 22.5871L37.0716 22.5096L37.2783 22.4321L37.0716 22.3546C37.0716 22.3546 36.839 22.4063 36.8132 22.4063L36.9424 22.5871H36.6065C36.3998 22.2512 36.1931 21.967 35.9347 21.7087ZM36.2706 33.2579L35.6247 33.077L35.418 33.1545L35.0563 32.8703L34.7204 32.7411C34.9012 32.6119 35.0563 32.4827 35.2113 32.3536L35.7539 32.7411L36.1673 32.9478L36.374 33.1545L36.2706 33.2579ZM35.1338 23.3106L35.3921 23.2589V23.2072L35.1338 23.0264L35.2113 22.4579L35.5213 22.122C35.728 22.3546 35.9089 22.5871 36.0897 22.8455L35.9864 23.1814L35.7022 22.9747L35.4697 23.0264L35.573 23.233H35.6764L35.5472 23.5431L35.4697 23.4139L35.1338 23.3106ZM38.7251 25.3775L39.2677 25.0933L39.8103 25.0158L39.9395 24.7574L40.2495 24.5766L40.3787 24.3182L40.4821 23.879C40.5079 23.9564 40.5273 24.0339 40.5466 24.1114L40.5467 24.1115C40.566 24.189 40.5854 24.2665 40.6112 24.344L40.327 25.1967V25.4809L40.6888 24.8866C40.7663 25.4034 40.818 25.9459 40.8438 26.4627H38.2084L38.1567 26.2302L38.4668 25.9976L38.5184 25.8426L38.6476 25.7393L39.0093 25.6876L39.0352 25.5326L38.7251 25.3775ZM39.3194 18.3498L40.0428 18.3757L40.2237 18.5824L40.1462 18.8924L41.1538 19.5125L41.3605 19.4867L42.6266 20.9594L43.1433 20.7785C43.9701 22.5613 44.4093 24.5249 44.4352 26.4885H41.438C41.438 25.7134 41.3347 24.9641 41.1538 24.2149L41.283 24.034L41.4639 23.078L41.3347 22.0704L40.973 20.9077L40.1462 19.6934L40.3529 19.7967L40.4562 19.6934L39.7845 19.2283L39.7328 19.3833L40.4046 20.3393L40.7921 21.1144L41.0505 21.8895L41.128 22.4063L41.2572 23.2847L40.9988 23.3106C40.9988 23.3106 40.7146 22.768 40.6112 22.5354L40.7404 22.3287L40.4821 21.967V21.6311L40.3012 21.3986L40.0687 21.4244C39.9912 21.2694 39.9137 21.1144 39.8103 20.9852L39.9653 21.0627L40.017 21.0111L39.9395 20.8302L40.1462 20.7268L40.0687 20.6235L39.7845 20.7268L39.8878 20.2618L39.707 20.1584L39.5519 20.5201C39.216 20.0292 38.8543 19.5642 38.4668 19.1249L39.3194 18.3498ZM43.1433 14.5001C46.2438 17.7297 47.9748 22.0187 48.0265 26.4885H45.0294C45.0036 24.2665 44.4868 22.0704 43.4792 20.0809L43.505 20.0292L43.7117 20.1326L43.7634 19.9776L43.2208 19.0474L42.5749 18.169L41.8256 17.5489C41.5672 17.2388 41.3089 16.9288 41.0247 16.6187L43.1433 14.5001Z" fill="#009CDE"/>
<path d="M39.3452 13.3374L39.1644 13.0532L38.7768 12.8465L38.4668 13.079L38.8543 13.2857L39.2936 13.5958L39.3452 13.3374Z" fill="#009CDE"/>
<path d="M28.1061 23.9823C28.1061 24.4991 28.4161 24.8349 28.9587 25.145V24.9125L28.6228 24.5507L28.8037 24.2149L28.9587 24.1632C28.9329 23.5689 28.9329 22.923 28.9329 22.8197H28.907C28.3903 23.1297 28.1319 23.4914 28.1061 23.9823Z" fill="#009CDE"/>
<path d="M31.4649 36.9784C32.395 37.4435 33.2735 38.1153 33.6352 39.3554C33.7902 37.2885 32.6276 36.41 31.4907 35.7899L31.4649 36.9784Z" fill="#009CDE"/>
<path d="M37.7175 16.0245C37.7175 14.1384 36.3481 12.0714 33.0151 11.348C32.6793 11.2963 32.3434 11.2446 32.0075 11.2188C32.0075 11.503 31.9816 12.1489 31.9816 12.1489C31.9816 12.2597 31.9742 12.5263 31.9673 12.7737C31.9614 12.988 31.9558 13.188 31.9558 13.2599C32.0591 13.2728 32.1689 13.2857 32.2787 13.2987L32.2788 13.2987C32.3886 13.3116 32.4984 13.3245 32.6017 13.3374C34.5395 13.8025 35.2371 14.9135 35.2371 15.9986C35.2371 17.7814 33.7127 18.4532 31.8525 18.9699L31.2324 19.1249C30.6639 19.2541 30.0697 19.4092 29.5013 19.5642C29.2946 19.6159 29.0879 19.6675 28.8812 19.745C26.8142 20.3651 25.0314 21.3728 25.0314 23.9307C25.0314 26.4885 27.0726 27.4187 29.062 28.0388C29.062 27.3153 29.0362 26.566 29.0104 25.8426C28.1061 25.4292 27.5118 24.8866 27.5118 23.9823C27.5118 23.078 28.0802 22.5613 28.9329 22.1737C29.1137 22.0962 29.3204 22.0187 29.5529 21.9412C29.914 21.8082 30.3171 21.7031 30.7312 21.5951L30.7313 21.5951C30.8801 21.5563 31.0304 21.5171 31.1807 21.4761L31.8008 21.3211C34.5912 20.6493 37.7433 19.7709 37.7175 16.0245Z" fill="#009CDE"/>
<path d="M27.6668 33.9296C27.6668 34.9631 28.4161 35.5057 29.1654 35.9449C29.1654 35.8139 29.1518 34.9506 29.1444 34.475L29.1443 34.4726C29.1415 34.293 29.1396 34.1693 29.1396 34.1622C29.1654 33.8521 29.4496 33.6454 29.708 33.5421C30.0955 33.3612 30.5089 33.2062 30.9223 33.077C31.0029 33.0501 31.0773 33.0233 31.1488 32.9975C31.2833 32.9489 31.4074 32.9041 31.5424 32.8703C33.0668 32.4052 34.8237 31.8368 34.8237 29.9765C34.8237 28.1163 33.3252 27.367 31.6716 26.7986C31.6587 27.0957 31.6522 27.4575 31.6458 27.8192C31.6393 28.1809 31.6328 28.5426 31.6199 28.8397C32.3175 29.0981 32.7826 29.434 32.7826 29.9765C32.7826 30.6483 32.085 31.01 31.5682 31.2167C31.3615 31.2942 31.0515 31.3976 30.9482 31.4234L30.9481 31.4235C30.5347 31.5526 30.1213 31.6818 29.708 31.8368C29.5013 31.9143 29.2946 31.9918 29.0879 32.0952C28.4161 32.4569 27.6668 32.9995 27.6668 33.9296Z" fill="#009CDE"/>
<path fill-rule="evenodd" clip-rule="evenodd" d="M28.7003 11.503C28.0802 11.7097 27.4601 11.9422 26.8659 12.2523C26.7439 12.2913 26.6117 12.3248 26.4712 12.3604C25.8677 12.5135 25.1093 12.7058 24.3338 13.5441C24.0238 13.9058 23.7396 14.2934 23.4554 14.6809C23.2995 14.9077 23.2213 15.2124 23.1484 15.4966C23.0884 15.7304 23.0319 15.9504 22.9386 16.102C22.6286 16.6187 22.7061 16.9288 22.7061 16.9288C22.6544 17.1613 22.5252 17.3939 22.3702 17.5747C22.0602 17.9364 21.5951 18.1173 21.13 18.0398C21.5693 18.2465 22.1635 17.9623 22.1635 17.9623C22.0602 18.2465 21.9827 18.5307 21.931 18.8149C22.4219 17.7039 22.8611 17.3163 23.0161 17.1872C23.2228 17.2388 23.6621 17.213 24.463 16.7479C25.3673 16.2312 26.7367 15.3786 27.1243 14.836C27.5377 14.2934 28.0802 13.8542 28.7262 13.6216C28.7262 13.2125 28.719 12.8179 28.7122 12.4452L28.7122 12.445C28.7061 12.1116 28.7003 11.7958 28.7003 11.503ZM24.8764 14.9393L24.4114 15.0427L24.9798 14.1125L25.6257 14.1384L24.8764 14.9393Z" fill="#009CDE"/>
</svg>
