<svg width="384" height="48" viewBox="0 0 384 48" fill="none" xmlns="http://www.w3.org/2000/svg">
<path d="M93.2057 24.3307C93.2057 12.3744 101.084 4 112.324 4H113.15C120.203 4 125.658 7.58104 128.55 12.7601C128.743 13.0909 128.688 13.3662 128.357 13.5318L123.509 15.9281C123.178 16.0934 122.765 16.0934 122.544 15.6804C120.506 12.1542 117.448 10.2809 112.93 10.2809H112.104C105.024 10.2809 100.148 15.9008 100.148 24.0553C100.148 32.2372 104.941 37.7191 112.104 37.7191H112.93C117.559 37.7191 120.258 36.1487 122.324 33.7521C122.6 33.4488 122.903 33.3939 123.233 33.5592L128.22 35.9834C128.412 36.0935 128.495 36.2312 128.495 36.3691C128.495 36.5068 128.44 36.6172 128.33 36.7821C125.272 41.2452 119.762 44 113.041 44H112.214C100.782 44 93.2057 36.1487 93.2057 24.3307Z" fill="#61778C"/>
<path d="M38.9377 10.336V5.26708C38.9377 4.93657 38.7172 4.71613 38.3867 4.71613H10.618C10.2875 4.71613 10.0674 4.93657 10.0674 5.26708V42.7328C10.0674 43.0636 10.2875 43.2837 10.618 43.2837H16.0727C16.4035 43.2837 16.6236 43.0636 16.6236 42.7328V27.4159H34.5852C34.9157 27.4159 35.1362 27.1957 35.1362 26.8652V21.796C35.1362 21.4654 34.9157 21.2453 34.5852 21.2453H16.6236V10.887H38.3867C38.7172 10.887 38.9377 10.6665 38.9377 10.336Z" fill="#61778C"/>
<path fill-rule="evenodd" clip-rule="evenodd" d="M77.3391 43.2837H83.3447C83.7304 43.2837 83.9508 43.0636 83.8405 42.6776C80.3419 30.3914 75.1353 16.8098 69.7358 5.43234C69.4878 4.90898 69.1846 4.71613 68.6612 4.71613H60.8378C60.3145 4.71613 60.0112 4.90898 59.7632 5.43234C54.4189 16.8371 49.1295 30.3914 45.6586 42.6776C45.5482 43.0636 45.7689 43.2837 46.1546 43.2837H51.9395C52.27 43.2837 52.4907 43.1182 52.5732 42.7877C53.3446 39.6196 54.3089 36.2863 55.4105 32.9254H73.8405C74.9428 36.2863 75.9064 39.6196 76.7057 42.7877C76.7881 43.1182 77.0086 43.2837 77.3391 43.2837ZM65.2727 10.7766C67.5596 15.8456 69.791 21.4103 71.8017 26.975H57.4214C59.4327 21.4103 61.6917 15.8456 63.9783 10.7766H65.2727Z" fill="#61778C"/>
<path d="M172.433 42.7328V37.6638C172.433 37.3333 172.213 37.1129 171.882 37.1129H148.962V27.0302H167.199C167.529 27.0302 167.75 26.8097 167.75 26.4792V21.4655C167.75 21.1349 167.529 20.9142 167.199 20.9142H148.962V10.887H171.386C171.717 10.887 171.937 10.6665 171.937 10.336V5.26708C171.937 4.93657 171.717 4.71613 171.386 4.71613H142.956C142.626 4.71613 142.406 4.93657 142.406 5.26708V42.7328C142.406 43.0636 142.626 43.2837 142.956 43.2837H171.882C172.213 43.2837 172.433 43.0636 172.433 42.7328Z" fill="#61778C"/>
<path fill-rule="evenodd" clip-rule="evenodd" d="M222.24 32.7053C222.24 39.4543 217.06 43.2837 207.914 43.2837H188.961C188.63 43.2837 188.41 43.0636 188.41 42.7328V5.26708C188.41 4.93657 188.63 4.71613 188.961 4.71613H206.234C215.132 4.71613 219.98 8.24229 219.98 14.6885C219.98 18.9308 217.832 21.7135 213.479 23.0079C219.595 24.3027 222.24 27.9668 222.24 32.7053ZM215.518 32.1264C215.518 28.5454 213.148 26.9198 207.942 26.9198H194.966V37.2781H207.942C213.231 37.2781 215.518 35.7353 215.518 32.1264ZM206.096 10.7217H194.966V21.0797H206.096C211.082 21.0797 213.369 19.4542 213.369 15.9007C213.369 12.3467 211.082 10.7217 206.096 10.7217Z" fill="#61778C"/>
<path fill-rule="evenodd" clip-rule="evenodd" d="M253.614 4C241.494 4 233.781 12.3744 233.781 24.0001C233.781 35.6253 241.494 44 253.614 44H254.442C266.562 44 274.276 35.6253 274.276 24.0001C274.276 12.3744 266.562 4 254.442 4H253.614ZM267.335 24.0001C267.335 32.292 262.347 37.7191 254.442 37.7191H253.614C245.709 37.7191 240.723 32.292 240.723 24.0001C240.723 15.7077 245.709 10.2809 253.614 10.2809H254.442C262.347 10.2809 267.335 15.7077 267.335 24.0001Z" fill="#61778C"/>
<path fill-rule="evenodd" clip-rule="evenodd" d="M285.459 24.0001C285.459 12.3744 293.173 4 305.295 4H306.12C318.243 4 325.957 12.3744 325.957 24.0001C325.957 35.6253 318.243 44 306.12 44H305.295C293.173 44 285.459 35.6253 285.459 24.0001ZM306.12 37.7191C314.028 37.7191 319.013 32.292 319.013 24.0001C319.013 15.7077 314.028 10.2809 306.12 10.2809H305.295C297.387 10.2809 292.402 15.7077 292.402 24.0001C292.402 32.292 297.387 37.7191 305.295 37.7191H306.12Z" fill="#61778C"/>
<path d="M366.367 43.2837H373.475C373.917 43.2837 374.081 42.9529 373.778 42.5948C367.883 35.6526 361.41 29.2061 354.578 23.4212C360.003 18.7932 365.873 12.8152 371.795 5.51481C371.931 5.34956 371.989 5.21189 371.989 5.10182C371.989 4.88138 371.822 4.71613 371.492 4.71613H364.769C364.439 4.71613 364.217 4.77102 363.945 5.12912C359.893 10.3912 354.936 15.6251 349.563 20.4739H346.312V5.26708C346.312 4.93657 346.091 4.71613 345.76 4.71613H340.305C339.975 4.71613 339.757 4.93657 339.757 5.26708V42.7328C339.757 43.0636 339.975 43.2837 340.305 43.2837H345.76C346.091 43.2837 346.312 43.0636 346.312 42.7328V26.8097H349.508C354.523 31.1076 360.418 36.9476 365.403 42.8152C365.706 43.1733 365.9 43.2837 366.367 43.2837Z" fill="#61778C"/>
</svg>
