<svg width="272" height="48" viewBox="0 0 272 48" fill="none" xmlns="http://www.w3.org/2000/svg">
<path d="M76.2423 6.84486C80.8455 6.84486 83.4112 8.61823 85.7128 10.1652L86.7316 10.8821L83.4489 16.5418L82.317 15.7872L81.9101 15.5091C80.0977 14.2768 78.8088 13.5233 76.2423 13.5233C75.8272 13.5233 74.2425 13.8629 73.4501 14.7684L73.3926 14.8362C73.1396 15.1434 72.8518 15.639 72.9219 16.655C72.9596 18.3529 74.0916 19.3339 76.9969 20.0886L77.3407 20.192C77.5503 20.2563 77.7264 20.3149 77.9024 20.3904C80.9209 21.4846 83.2603 22.9561 84.8827 24.805C86.5052 26.6915 87.373 28.9554 87.373 31.3325C87.373 33.6718 86.4297 36.0866 84.845 37.9355C82.9962 40.1239 80.4304 41.369 77.6006 41.369L77.3149 41.3674C75.9513 41.3514 74.167 41.2105 72.0541 40.5767C69.2242 39.6334 66.6962 37.9732 64.5078 35.5207L69.111 30.9552C72.4314 34.7283 76.2045 34.7283 77.6006 34.7283C80.204 34.7283 81.0719 32.2003 81.0719 31.3702C81.0719 29.5591 79.1476 27.8989 75.8272 26.7293L75.6763 26.6915L75.4499 26.5029L74.643 26.2671C73.5666 25.9439 72.0667 25.4254 70.658 24.4277C68.13 22.6543 66.734 20.0886 66.583 16.9191C66.4321 14.2402 67.2622 11.9386 68.8846 10.1275C71.224 7.56176 74.6198 6.84486 76.2423 6.84486ZM163.553 6.80713C167.326 6.80713 170.872 8.20319 173.665 10.4671L169.552 15.3721C163.439 11.184 154.195 15.0703 154.195 24.0126C154.195 33.37 163.968 37.1431 169.929 32.389L174.004 37.294C171.174 39.7843 167.514 41.2936 163.553 41.2936C154.535 41.2936 147.177 33.5586 147.177 24.0503C147.177 14.5421 154.535 6.80713 163.553 6.80713ZM114.577 7.2599V13.9006H105.824V40.6144H99.5225V13.9383H90.7311V7.2599H114.577ZM131.179 7.29764L146.121 40.6144H139.14L136.348 34.4265H123.255L120.312 40.6144H113.219L129.33 7.29764H131.179ZM266.521 7.2599V13.9006H257.768V40.6144H251.467V13.9383H242.675V7.2599H266.521ZM184.833 7.2599V18.0133L194.077 7.2599H202.604L191.549 20.2772L202.869 40.5389H195.322L187.286 25.3332L184.833 27.9367V40.5389H178.532V7.2599H184.833ZM215.433 7.2599C220.527 7.2599 224.677 11.6367 224.677 16.9946C224.677 19.0321 224.074 20.8809 223.055 22.4656C225.356 24.3145 226.79 27.2198 226.79 30.4647C226.79 36.0866 222.489 40.5389 217.244 40.5389H214.98V34.8792H217.169V34.917C219.282 34.917 221.055 33.1436 221.055 30.9174C221.055 28.6913 219.282 26.8802 217.169 26.8802H206.83V7.2599H215.433ZM238.6 7.2599V40.5389H232.299V7.2599H238.6ZM130.085 20.3527L126.538 27.7857H133.367L130.085 20.3527ZM215.169 12.8064H212.415V20.4281H215.169C216.942 20.4281 218.829 18.9189 218.829 16.5795C218.829 14.2402 216.942 12.8064 215.169 12.8064Z" fill="white"/>
<path d="M212.678 40.5762H206.83V34.9165H212.678V40.5762Z" fill="#3EB2FD"/>
<path fill-rule="evenodd" clip-rule="evenodd" d="M49.114 27.0308L30.2106 37.5579L10.9299 27.0308C10.213 26.6158 9.26976 26.9176 8.89245 27.6345C8.4774 28.3514 8.77925 29.2947 9.49615 29.672L29.4937 40.6141C29.9465 40.8782 30.5125 40.8782 30.9653 40.6141L50.5856 29.672C51.3025 29.257 51.5666 28.3514 51.1515 27.6345C50.7365 26.8799 49.8309 26.6158 49.114 27.0308ZM13.2693 20.0505L30.2106 10.4668L49.0763 21.3711C49.7932 21.7862 50.7365 21.5221 51.1515 20.8052C51.5666 20.0883 51.3025 19.145 50.5856 18.7299L30.9653 7.41054C30.5125 7.14642 29.9465 7.14642 29.456 7.41054L9.45842 18.7299C8.43967 19.2959 8.43967 20.7674 9.45842 21.3711L29.456 32.6905C30.1729 33.1056 31.1162 32.8414 31.5312 32.1246C31.9463 31.4077 31.6822 30.4644 30.9653 30.0493L13.2693 20.0505ZM5.49663 27.9741V20.4278C5.3457 18.6922 6.13806 16.9188 7.8737 15.9378L27.8713 4.61842C29.3428 3.78833 31.1162 3.78833 32.55 4.65615L52.1703 15.9755C53.7927 16.9188 54.6605 18.6922 54.5096 20.4278V27.9741C54.6605 29.7475 53.755 31.5586 52.0948 32.4641L32.4745 43.4062C31.0407 44.1986 29.3428 44.1986 27.909 43.4062L7.91143 32.4641C6.25125 31.5586 5.38343 29.7852 5.49663 27.9741Z" fill="#3EB0FD"/>
</svg>
