<svg width="160" height="64" viewBox="0 0 160 64" fill="none" xmlns="http://www.w3.org/2000/svg">
<path fill-rule="evenodd" clip-rule="evenodd" d="M155.515 44.5261C154.506 43.3204 152.205 42.7029 148.559 42.7313C144.94 42.7581 141.041 43.3756 136.89 44.6097C132.766 45.8171 129.566 47.3022 127.351 49.0417C125.134 50.7828 124.518 52.2412 125.528 53.4753C126.537 54.7103 128.838 55.3269 132.485 55.27C136.131 55.27 140.003 54.6258 144.154 53.4184C148.306 52.1835 151.476 50.6967 153.692 48.9597C155.909 47.2186 156.554 45.7602 155.515 44.5261Z" fill="#A5CAED"/>
<path fill-rule="evenodd" clip-rule="evenodd" d="M152.429 45.4531C151.617 44.4708 149.794 43.9931 146.904 44.0215C144.014 44.0215 140.928 44.5261 137.646 45.5083C134.363 46.4906 131.838 47.641 130.07 49.0149C128.304 50.418 127.799 51.5669 128.612 52.5491C129.426 53.5314 131.249 54.0091 134.139 53.9807C137.029 53.9807 140.115 53.4761 143.397 52.4939C146.707 51.5116 149.203 50.3612 150.971 48.9597C152.739 47.5842 153.243 46.4337 152.429 45.4531Z" fill="#A5CAED"/>
<path fill-rule="evenodd" clip-rule="evenodd" d="M130.859 8.00108C131.478 7.6637 132.172 7.48977 132.877 7.49573C133.636 7.46729 134.28 7.66391 134.813 8.00108C135.091 8.16621 135.334 8.38521 135.527 8.64525C135.719 8.90529 135.858 9.20115 135.935 9.51551C136.245 10.8057 136.3 12.3209 136.105 14.0604C135.599 18.2405 135.234 21.4668 135.094 23.7393C134.871 26.6292 134.59 32.0987 134.225 40.1502C134.196 41.0772 133.915 41.8336 133.468 42.3958C132.99 42.9288 132.485 43.2083 131.868 43.2083C131.222 43.2367 130.717 43.0401 130.297 42.5908C129.847 42.1147 129.595 41.4135 129.624 40.4865C129.624 38.552 129.735 34.9325 130.015 29.6304C129.876 28.9853 129.398 28.7326 128.612 28.9008C128.221 28.9853 127.94 29.2932 127.8 29.7986C127.519 35.3818 127.407 39.3093 127.462 41.524C127.49 42.984 127.968 44.1345 128.922 44.9469C129.791 45.6765 130.858 46.0129 132.064 45.9576C133.269 45.8731 134.308 45.4531 135.177 44.6674C136.131 43.7697 136.635 42.59 136.692 41.1609C136.86 36.1382 137.225 31.3699 137.814 26.7689L139.301 14.3415C139.666 10.0217 138.852 7.04725 136.832 5.47676C135.57 4.52293 134.11 4.04602 132.427 4.07364C130.661 4.10208 129.174 4.66349 127.968 5.75707C126.508 7.07569 125.667 8.89885 125.415 11.2558C124.377 21.6074 123.955 33.7268 124.124 47.6419C124.18 50.1662 125.021 52.0738 126.733 53.3925C128.247 54.5145 130.099 55.0474 132.287 54.8508C134.475 54.6826 136.327 53.9254 137.841 52.5784C139.553 51.1468 140.395 49.3237 140.423 47.1926L140.704 36.3909C140.759 34.7359 141.77 32.8014 143.762 30.5566C143.762 30.0513 143.566 29.6588 143.201 29.3785C142.893 29.0974 142.444 28.9861 141.939 28.9577C139.47 31.4544 138.207 33.6716 138.235 35.6061L138.012 46.9123C137.899 48.4259 137.253 49.6608 136.132 50.5302C135.123 51.3158 133.914 51.7375 132.457 51.7651C131.054 51.7935 129.848 51.4572 128.782 50.6991C127.632 49.9419 127.016 48.7915 126.904 47.3624C126.651 44.5285 126.736 39.2824 127.185 31.5958L128.447 13.1927C128.586 11.6498 128.896 10.4157 129.344 9.48951C129.651 8.87041 130.157 8.36587 130.859 8.00108Z" fill="#666575"/>
<path fill-rule="evenodd" clip-rule="evenodd" d="M129.734 8.11319C130.717 7.1033 131.922 6.65401 133.409 6.76613C134.924 6.90669 136.046 7.5794 136.804 8.78591C137.197 9.40257 137.45 10.1606 137.506 11.142C137.533 11.844 137.506 12.9376 137.365 14.3683L136.327 24.7759C135.963 29.0121 135.682 34.2013 135.487 40.3167C135.458 41.299 135.122 42.0846 134.476 42.6728C133.914 43.2058 133.214 43.5154 132.372 43.5706C131.586 43.6551 130.858 43.5154 130.296 43.0945C129.65 42.672 129.342 42.0838 129.314 41.2713C129.287 37.6234 129.37 33.9478 129.566 30.2178C129.876 29.9936 129.931 29.7401 129.763 29.4598C129.566 29.1787 129.287 29.0674 128.893 29.0674C128.444 29.0674 128.164 29.2916 128.053 29.6848C127.911 30.1057 128.137 30.3015 128.67 30.3584C128.445 35.9132 128.334 39.6724 128.389 41.6922C128.389 42.6728 128.81 43.4317 129.595 43.9362C130.296 44.4123 131.194 44.5805 132.232 44.496C133.269 44.4115 134.14 44.0483 134.896 43.4585C135.71 42.7858 136.159 41.9449 136.243 40.8781C136.664 33.8373 136.973 29.0113 137.197 26.487C137.506 23.2883 137.982 19.5859 138.6 15.3213C139.133 11.8432 138.823 9.20595 137.589 7.38279C136.44 5.69937 134.841 4.8861 132.849 4.91372C130.801 4.94134 129.175 5.83992 127.968 7.60621C127.377 8.44792 126.957 10.0753 126.621 12.4038C125.555 20.539 125.106 32.4058 125.218 47.9758C125.218 49.9387 125.975 51.4255 127.49 52.463C128.837 53.4168 130.52 53.8661 132.511 53.7816C134.476 53.6687 136.131 53.1089 137.534 52.0137C139.105 50.8364 139.89 49.292 139.946 47.3851L140.227 36.1358C140.227 34.2281 141.349 32.2652 143.537 30.2731C143.65 30.1049 143.622 29.9083 143.426 29.684C143.145 29.4313 142.977 29.2908 142.865 29.3192C140.479 31.928 139.273 34.1997 139.273 36.0521C139.273 43.2342 139.189 47.0772 139.021 47.611C138.543 49.266 137.618 50.5277 136.244 51.3702C135.038 52.0982 133.662 52.4638 132.148 52.4077C130.661 52.3525 129.371 51.93 128.276 51.1728C127.154 50.3319 126.537 49.2651 126.453 47.975C126.229 44.8047 126.285 39.4742 126.621 31.9841C126.957 24.7735 127.435 18.3218 127.995 12.6833C128.248 10.6099 128.809 9.06702 129.734 8.11319Z" fill="#737DA7"/>
<path fill-rule="evenodd" clip-rule="evenodd" d="M139.497 47.0236C139.386 47.0504 139.302 47.1081 139.246 47.2763L139.161 47.8092C138.713 49.4642 137.787 50.726 136.412 51.5953C135.207 52.3541 133.775 52.6905 132.204 52.6328C130.689 52.5776 129.372 52.1283 128.276 51.3711C127.097 50.5285 126.425 49.4634 126.313 48.2008C126.313 47.8645 126.229 47.7515 126.004 47.7515C125.723 47.78 125.639 47.9482 125.751 48.2845C126.032 50.024 126.873 51.3711 128.276 52.2965C129.566 53.1105 131.053 53.5021 132.764 53.3916C134.475 53.3072 135.962 52.801 137.252 51.8204C138.627 50.7828 139.469 49.3797 139.749 47.6402C139.835 47.2186 139.752 46.9951 139.497 47.0236ZM129.511 30.3031L129.09 30.4153L128.865 34.9317C128.726 37.8216 128.642 39.9251 128.67 41.2445C128.697 42.2268 129.062 42.984 129.792 43.517C130.465 44.0215 131.279 44.2182 132.233 44.1613C133.152 44.1098 134.034 43.7768 134.757 43.2074C135.543 42.5347 135.992 41.6938 136.104 40.5986C136.131 40.2907 136.104 40.1493 135.963 40.1493C135.795 40.1493 135.766 40.3175 135.766 40.5986C135.627 41.6093 135.177 42.395 134.476 43.0108C133.83 43.5438 133.073 43.8534 132.232 43.8802C131.39 43.9086 130.689 43.6852 130.128 43.2074C129.51 42.6477 129.201 41.8904 129.201 40.8797L129.511 30.3031ZM130.578 6.73852C131.811 5.89681 133.074 5.56046 134.449 5.75707C135.88 5.98131 136.918 6.7109 137.535 7.97346C138.068 8.95491 138.292 10.0777 138.292 11.3679C138.266 11.6206 138.321 11.7603 138.517 11.7888C138.657 11.8172 138.741 11.649 138.741 11.2834C138.741 9.79662 138.433 8.478 137.732 7.29993C137.002 6.09424 135.935 5.36465 134.449 5.14041C132.99 4.88774 131.559 5.2249 130.213 6.09424C130.017 6.29085 129.961 6.48666 130.072 6.65484C130.213 6.85064 130.381 6.87908 130.578 6.73852Z" fill="#CCCDE7"/>
<path fill-rule="evenodd" clip-rule="evenodd" d="M121.039 21.7747C120.843 23.1494 121.179 24.3559 121.965 25.4495C122.779 26.5431 123.872 27.1605 125.219 27.3571C126.593 27.5538 127.801 27.245 128.894 26.4309C129.988 25.6177 130.604 24.5517 130.802 23.177C130.998 21.83 130.689 20.6235 129.876 19.5299C129.062 18.4639 127.969 17.7904 126.622 17.6222C125.275 17.398 124.068 17.7344 122.975 18.5192C121.88 19.3625 121.236 20.4285 121.039 21.7747Z" fill="#666575"/>
<path fill-rule="evenodd" clip-rule="evenodd" d="M137.983 17.0625C136.609 16.8658 135.403 17.203 134.337 17.9878C133.271 18.8011 132.625 19.8955 132.428 21.2702C132.233 22.5888 132.54 23.8229 133.355 24.9173C134.169 26.0117 135.233 26.6284 136.609 26.825C137.955 27.0216 139.161 26.7129 140.256 25.8988C141.349 25.0855 141.995 23.9911 142.163 22.6725C142.36 21.2978 142.079 20.0913 141.238 18.9693C140.424 17.9033 139.33 17.2583 137.983 17.0625Z" fill="#666575"/>
<path fill-rule="evenodd" clip-rule="evenodd" d="M122.862 19.3625C121.796 19.9524 121.207 20.7657 121.038 21.7755C120.899 22.8415 121.235 23.8514 122.076 24.8336C122.945 25.8712 124.012 26.4886 125.331 26.6852C126.649 26.8819 127.855 26.6007 128.977 25.8435C130.043 25.1139 130.66 24.2446 130.8 23.1787C130.94 22.1688 130.604 21.2149 129.734 20.3732C128.893 19.5315 127.8 18.9701 126.453 18.8019C125.105 18.6053 123.899 18.8011 122.862 19.3625Z" fill="#D0D1D3"/>
<path fill-rule="evenodd" clip-rule="evenodd" d="M137.814 18.2405C136.467 18.0439 135.261 18.2682 134.195 18.858C133.157 19.447 132.568 20.2319 132.427 21.2702C132.26 22.3085 132.597 23.346 133.437 24.3283C134.278 25.3658 135.402 25.9548 136.692 26.123C138.011 26.3196 139.216 26.0385 140.338 25.2821C141.404 24.5802 142.022 23.7108 142.162 22.6733C142.33 21.635 141.965 20.7096 141.124 19.8118C140.283 18.9693 139.188 18.4648 137.814 18.2405Z" fill="#D0D1D3"/>
<path fill-rule="evenodd" clip-rule="evenodd" d="M126.313 19.6428C125.05 19.4462 123.928 19.5868 122.946 20.0068C121.963 20.4285 121.404 21.0167 121.291 21.8308C121.178 22.6725 121.516 23.4581 122.328 24.2714C123.155 25.1383 124.255 25.6933 125.443 25.8427C126.676 26.0109 127.799 25.8143 128.864 25.2253C129.847 24.6647 130.407 23.9903 130.548 23.1494C130.661 22.3361 130.295 21.6065 129.454 20.933C128.641 20.2603 127.604 19.811 126.313 19.6428Z" fill="white"/>
<path fill-rule="evenodd" clip-rule="evenodd" d="M132.737 21.2986C132.624 22.1119 132.96 22.926 133.746 23.7108C134.588 24.5525 135.597 25.0855 136.804 25.2537C138.039 25.4227 139.16 25.2261 140.2 24.637C141.154 24.1041 141.714 23.4305 141.826 22.5888C141.939 21.8316 141.601 21.102 140.789 20.4293C139.975 19.7558 138.937 19.3349 137.702 19.1667C136.412 18.9701 135.317 19.083 134.364 19.5315C133.383 19.9231 132.85 20.5406 132.737 21.2986Z" fill="white"/>
<path fill-rule="evenodd" clip-rule="evenodd" d="M126.117 21.0175C125.668 20.9899 125.219 21.0736 124.853 21.3547C124.488 21.6358 124.264 22.0282 124.181 22.5051C124.126 22.9812 124.236 23.4029 124.517 23.7669C124.798 24.1593 125.19 24.3567 125.668 24.4404C126.117 24.4965 126.537 24.3844 126.931 24.1032C127.323 23.8229 127.52 23.4297 127.604 22.9812C127.659 22.5328 127.547 22.1119 127.267 21.6911C126.986 21.3263 126.593 21.1012 126.117 21.0175Z" fill="black"/>
<path d="M124.601 11.3671C122.722 12.0406 121.262 13.6956 120.197 16.3889C122.413 14.1449 124.209 13.135 125.667 13.3593L124.601 11.3671Z" fill="black"/>
<path d="M138.291 12.2088L137.534 14.3692C138.571 14.3976 139.751 14.7616 141.096 15.4351C142.415 16.1086 143.65 17.0064 144.855 18.1C143.061 15.2393 140.873 13.2748 138.291 12.2088Z" fill="black"/>
<path d="M138.965 22.4483C139.02 21.9713 138.937 21.5505 138.656 21.1581C138.376 20.7933 137.983 20.569 137.507 20.4845C137.029 20.4285 136.609 20.5406 136.243 20.8217C135.85 21.102 135.597 21.4944 135.542 21.9722C135.513 22.1944 135.527 22.4203 135.585 22.6369C135.643 22.8535 135.742 23.0567 135.879 23.2347C136.16 23.6271 136.551 23.8514 137.001 23.9359C137.458 23.996 137.921 23.875 138.291 23.5987C138.684 23.3176 138.908 22.9252 138.965 22.4483Z" fill="black"/>
<path fill-rule="evenodd" clip-rule="evenodd" d="M32.2495 15.4351L30.4264 15.5196C29.7906 15.8567 29.3013 16.416 29.0517 17.0909C28.7437 17.8489 28.7437 18.6906 29.024 19.5315L38.0854 49.8574C38.3381 50.7552 38.7866 51.3442 39.3756 51.6806L41.2272 51.6538C42.7416 50.8397 43.0788 49.0718 42.2087 46.2948L33.5121 17.203C33.231 16.3329 32.8101 15.7438 32.2495 15.4351ZM46.8372 17.5954C47.2297 16.7813 47.3142 15.8844 47.1175 14.9306C46.9486 13.9767 46.5285 13.2748 45.8826 12.7978C45.2375 12.3209 44.564 12.2088 43.7791 12.433C43.0219 12.7133 42.4605 13.2748 42.0957 14.088C41.6749 14.9297 41.5912 15.7991 41.7878 16.7805C41.956 17.7344 42.3768 18.4079 43.0227 18.8848C43.6963 19.3617 44.3966 19.4738 45.1546 19.2496C45.8834 18.9693 46.4448 18.4087 46.8372 17.5954ZM45.2375 22.9536C44.5924 23.1778 44.0879 23.6548 43.7507 24.3567C43.3859 25.1139 43.3299 25.8996 43.5265 26.7689L45.2099 37.0368L46.9494 45.341C47.1184 46.2387 47.4823 46.883 48.0438 47.3323C48.6044 47.7255 49.2494 47.81 49.8954 47.585C50.5965 47.3616 51.0734 46.8838 51.4098 46.1551C51.7469 45.4807 51.8022 44.6398 51.634 43.7697L48.1835 25.1424C48.0153 24.2446 47.6505 23.6556 47.0891 23.2063C46.5285 22.813 45.9395 22.7009 45.2375 22.9536ZM71.8326 31.9581C71.5799 28.311 70.8788 25.4219 69.7844 23.2055C68.2976 20.2879 66.2218 19.0254 63.5569 19.3341C62.7514 19.4493 61.9725 19.7056 61.256 20.0913C60.5272 20.4561 59.7692 20.9891 59.012 21.7179V21.4936C58.9275 20.6519 58.6472 19.9792 58.1426 19.4178C57.6933 18.8572 57.1328 18.6606 56.4316 18.7442C55.5623 18.8572 54.9448 19.4454 54.5239 20.5682C54.1591 21.5497 54.0186 22.6717 54.1315 23.9619L54.7482 28.5344C55.113 31.2838 55.4493 34.1453 55.702 37.2318L57.0491 55.2424C57.1336 56.1394 57.4139 56.8405 57.9184 57.4019C58.4238 57.9617 59.0404 58.1592 59.7424 58.0747C60.4159 57.9617 60.9765 57.5969 61.4258 56.9526C61.8182 56.3352 61.9864 55.5211 61.9019 54.6518L61.1447 45.1135C62.2106 45.2833 63.249 45.2833 64.3433 45.1703C66.9522 44.834 68.9719 43.3472 70.3466 40.7652C71.636 38.2709 72.1413 35.3526 71.8326 31.9581ZM64.0622 25.6185C65.2127 25.4779 65.9975 26.3473 66.5021 28.1712C66.7263 29.0129 66.8953 30.4997 67.0635 32.5756C67.1756 34.2874 66.979 35.7174 66.5021 36.8678C65.9415 38.0735 65.0437 38.7755 63.8656 38.9152L60.6954 38.6073L59.7692 28.9284C60.4427 27.9186 61.1723 27.1329 61.8727 26.5723C62.6307 26.0109 63.3603 25.7022 64.0622 25.6185ZM80.192 18.3811C79.7435 17.7636 79.1821 17.3988 78.5655 17.2867C77.6677 17.2306 76.9942 17.6791 76.4336 18.6614C75.9282 19.6152 75.6479 20.7096 75.5919 21.9153L75.3952 35.2965L74.3854 53.334C74.3569 54.2878 74.4975 55.0458 74.946 55.6348C75.3668 56.2807 75.9558 56.6439 76.6294 56.7284C77.3305 56.8137 77.948 56.5887 78.4241 56.0273C78.9295 55.4959 79.1821 54.7655 79.2382 53.8409L79.7427 44.3311C80.9208 44.7787 81.9599 45.0306 82.8853 45.1435C85.4941 45.4531 87.6821 44.4424 89.3931 42.1984C90.9368 40.1502 91.8338 37.4016 92.0304 33.9226C92.227 30.2747 91.9175 27.2174 91.1326 24.8044C90.0951 21.6626 88.2159 19.8955 85.5234 19.6144L83.1096 19.7826C82.3239 19.9792 81.5383 20.3432 80.6974 20.8485L80.7526 20.5958C80.7819 19.811 80.556 19.0822 80.192 18.3811ZM80.4723 28.1152C81.3701 27.2182 82.1557 26.6284 82.8853 26.292C83.6425 25.9272 84.3989 25.7867 85.1578 25.8435C86.3082 25.9833 87.0094 27.0216 87.2336 28.9853L87.2052 33.3897C87.1207 35.1576 86.7291 36.5314 86.0832 37.4853C85.4105 38.5512 84.4282 39.0273 83.2509 38.8884C82.2402 38.7755 81.2311 38.4391 80.1368 37.8509C80.361 34.0908 80.4447 30.8645 80.4723 28.1152ZM100.025 23.5703C99.7455 22.6441 99.2678 22.055 98.4829 21.7747C97.8655 21.5505 97.2496 21.6626 96.6598 22.0835C96.0139 22.5327 95.6223 23.121 95.4541 23.9627C95.358 24.6541 95.3866 25.3572 95.5386 26.0385L96.0147 28.0867C97.4463 35.4647 98.4285 41.0471 98.9883 44.8064C95.2022 50.8381 93.1532 54.5396 92.9013 55.9428C92.6779 56.7853 92.7884 57.5977 93.1825 58.2989C93.5472 59.0845 94.0802 59.5623 94.6977 59.7857C95.7628 60.1789 96.6053 59.7589 97.3065 58.4671L99.2694 54.7363C100.533 52.4638 102.3 49.6316 104.571 46.1534L113.717 32.21C113.997 31.7891 114.194 31.3406 114.306 30.8913C114.475 30.0496 114.335 29.2648 113.97 28.4791C113.577 27.7219 113.072 27.2166 112.455 26.9923C111.586 26.6552 110.8 26.9639 110.099 27.8625C108.977 29.2648 107.799 30.9482 106.536 32.9111L103.029 38.578C102.046 31.9865 101.036 26.9647 100.025 23.5703ZM14.1268 35.1576C15.0806 31.2293 16.3992 28.9008 18.1387 28.1712L19.8221 27.6098C20.1593 27.6659 20.6354 27.947 21.1684 28.48C22.3749 29.6304 23.5814 29.9668 24.7879 29.4338C25.7417 29.0414 26.3307 28.3118 26.4989 27.2458C26.6387 26.4602 26.5265 25.703 26.2178 24.9449C25.4598 23.2623 24.7026 21.8592 23.9177 20.7096C22.7949 19.083 21.5616 18.5493 20.2137 19.1667C19.3444 19.5315 18.7838 20.1766 18.4751 21.102L17.1004 21.4107L15.4454 22.0843C11.9104 23.6556 9.4413 27.3303 8.039 33.2215C6.32795 40.1493 6.60825 46.1258 8.79702 51.2037C10.2001 54.3739 12.4442 56.7577 15.4738 58.2445C18.644 59.7865 21.7574 59.8994 24.8155 58.5808C28.6869 56.899 31.7165 53.4761 33.9329 48.3983C34.3538 47.416 34.3538 46.4906 33.9614 45.6481C33.6242 44.8909 33.0636 44.2742 32.2503 43.8533L29.7536 43.7688C29.193 43.9923 28.5471 44.7227 27.846 45.9568L25.7141 49.5195C24.7034 50.951 23.4969 51.9048 22.1506 52.4646C20.8044 53.0821 19.3452 53.026 17.8308 52.2696C16.344 51.5668 15.222 50.3896 14.4932 48.7054C12.9487 45.172 12.8081 40.6555 14.1268 35.1576Z" fill="black"/>
<path fill-rule="evenodd" clip-rule="evenodd" d="M11.2385 33.5578C12.1924 29.6304 13.511 27.3295 15.222 26.5723C16.0353 26.2075 16.5959 26.0393 16.9046 26.0393C17.2694 26.0678 17.6903 26.3765 18.2241 26.9087C19.4582 28.0591 20.6639 28.3679 21.8988 27.8633C22.8803 27.414 23.4417 26.7129 23.5823 25.6745C23.6944 24.8889 23.6107 24.1317 23.2743 23.3745C22.5448 21.691 21.7867 20.2887 21.0019 19.1099C19.9075 17.4833 18.6449 16.9772 17.2703 17.5954C16.4009 17.9594 15.8395 18.6053 15.5592 19.5031L14.213 19.8403L12.558 20.4854C9.02297 22.0282 6.55471 25.703 5.09553 31.6226C3.41211 38.5789 3.66479 44.5821 5.88118 49.6048C7.31192 52.8026 9.5275 55.1319 12.558 56.6455C15.7558 58.2168 18.8416 58.3005 21.8997 56.9819C25.8271 55.3286 28.8568 51.9057 30.9895 46.8278C31.4103 45.9008 31.4103 44.9762 31.074 44.0508C30.7092 43.2651 30.1478 42.6753 29.306 42.2829L26.8094 42.1699C26.304 42.395 25.6873 43.1238 24.9017 44.3871L22.7974 47.9498C21.7315 49.3529 20.5258 50.3352 19.2072 50.895C17.8601 51.4856 16.4017 51.3995 14.8865 50.6983C13.3997 49.9704 12.2777 48.7639 11.5765 47.1089C10.0044 43.517 9.89149 39.0273 11.2385 33.5578ZM31.1 16.3605C30.8197 15.5472 30.3988 14.9574 29.8374 14.621L28.0703 14.6763C27.3968 15.0134 26.9475 15.5464 26.6672 16.276C26.3861 17.0893 26.33 17.9025 26.6111 18.7166L35.6725 49.0417C35.9528 49.9395 36.3736 50.5285 36.9627 50.8381L38.8419 50.8096C40.3287 50.0801 40.6651 48.2853 39.8234 45.4791L31.1 16.3605ZM39.3757 15.9404C39.5715 16.8943 39.9923 17.6231 40.6659 18.0439C41.2833 18.5493 41.9561 18.6614 42.7417 18.4087C43.4989 18.156 44.0603 17.5954 44.4251 16.7813C44.8176 15.9405 44.902 15.0419 44.7615 14.0889C44.5657 13.135 44.1164 12.4339 43.4713 11.9846C42.7978 11.4792 42.0966 11.3955 41.3955 11.6482C40.6943 11.8725 40.1337 12.4054 39.7129 13.2748C39.2636 14.1165 39.1791 15.0142 39.3757 15.9404ZM45.8006 24.3559C45.604 23.4582 45.2392 22.8131 44.6778 22.3922C44.1172 21.9713 43.5274 21.8869 42.8831 22.1119C42.1819 22.3361 41.6766 22.8131 41.3402 23.5418C41.0315 24.2162 40.9478 25.0571 41.116 25.9272L42.7994 36.2219L44.5665 44.5261C44.7623 45.3954 45.1271 46.0681 45.6324 46.4906C46.193 46.8822 46.839 46.9951 47.484 46.7701C48.1852 46.5174 48.6906 46.0689 48.9993 45.3402C49.3365 44.639 49.3917 43.8249 49.252 42.928L45.8006 24.3559ZM69.4774 31.1172C69.1686 27.4701 68.4675 24.5525 67.3739 22.393C65.8871 19.4755 63.8104 18.1845 61.1456 18.5501C60.3439 18.6644 59.5667 18.9106 58.8455 19.2789L56.6015 20.9062V20.6535C56.517 19.8403 56.2643 19.1667 55.7598 18.6053C55.2829 18.0447 54.6938 17.8197 54.0203 17.9318C53.207 18.0439 52.5335 18.6053 52.1126 19.7273C51.7478 20.7372 51.6081 21.8877 51.7202 23.1778L52.3377 27.7228C52.7277 30.6133 53.0458 33.513 53.2915 36.4193L54.6378 54.4015C54.7223 55.3285 55.0026 56.0281 55.5071 56.5895C56.0401 57.1225 56.6291 57.3467 57.3311 57.2622C58.0046 57.1509 58.5652 56.7577 59.0145 56.1402C59.4069 55.4959 59.5751 54.7103 59.4914 53.8125L58.7626 44.2742C59.9407 44.4424 60.979 44.4708 61.932 44.3587C64.5409 44.0223 66.5606 42.5355 67.9361 39.9267C69.2247 37.4569 69.7292 34.5117 69.4774 31.1172ZM61.6501 24.7768C62.8006 24.6647 63.5854 25.5064 64.0907 27.358C64.315 28.2557 64.4832 29.7425 64.6513 31.7347C64.7911 33.4742 64.5668 34.8765 64.0907 36.0269C63.5293 37.2602 62.6316 37.9614 61.4535 38.0743L58.2833 37.8216C58.1151 35.1844 57.7787 31.9581 57.3579 28.1152C58.0867 27.0492 58.761 26.2636 59.4613 25.7867C60.1917 25.2261 60.9205 24.8889 61.6501 24.7768ZM76.1542 16.501C75.2564 16.4174 74.5829 16.8382 74.0215 17.8197C73.5169 18.7735 73.2642 19.8679 73.1797 21.102L73.2358 25.7314L72.9831 34.4832L71.9741 52.4939C71.9456 53.4477 72.1146 54.2041 72.5347 54.8216C72.9555 55.4675 73.5445 55.8323 74.2457 55.8875C74.9468 56.0005 75.5359 55.7746 76.0412 55.2148C76.5181 54.7103 76.7708 53.9799 76.8545 53.0537L77.3314 43.4886C78.5095 43.9647 79.5478 44.2182 80.5016 44.3311C83.1096 44.6106 85.2984 43.6567 86.9818 41.3843C88.6084 39.3084 89.4509 36.5315 89.6191 33.1086C89.8141 29.4338 89.5346 26.4041 88.7213 23.9911C87.6838 20.8493 85.8029 19.0822 83.1105 18.7735L80.6983 18.9417C79.8573 19.1834 79.0546 19.5422 78.3137 20.0076V19.7834C78.3721 19.0034 78.1753 18.2255 77.7531 17.567C77.3322 16.9219 76.7708 16.5571 76.1542 16.501ZM78.0618 27.3011C78.9312 26.4602 79.7168 25.8427 80.474 25.4779C81.232 25.1131 81.9893 24.945 82.7457 25.0294C83.9245 25.1416 84.5973 26.2075 84.8499 28.1436L84.7947 32.5764C84.7102 34.3159 84.3454 35.7182 83.6727 36.672C83 37.738 82.0445 38.2141 80.8388 38.0459C79.8013 37.9614 78.763 37.5982 77.7539 37.0368C77.9489 33.2215 78.0334 29.9952 78.0618 27.3011ZM97.6429 22.7286C97.335 21.8592 96.802 21.2702 96.1009 20.9615C95.455 20.7372 94.8375 20.8493 94.2493 21.2702C93.6034 21.691 93.2118 22.3085 93.0436 23.1218C92.9583 23.6548 92.9867 24.3567 93.1281 25.2261L93.6042 27.2458C95.0358 34.6514 96.0164 40.2338 96.5778 43.9931C92.7901 50.0248 90.7427 53.728 90.4909 55.1027C90.3227 55.9436 90.4064 56.7292 90.7703 57.4881C91.1351 58.2453 91.6413 58.723 92.2856 58.9749C93.3515 59.3665 94.2217 58.9464 94.8944 57.6847L96.8857 53.9254C98.2612 51.4564 100.028 48.5664 102.16 45.341L111.305 31.4268C111.586 30.9498 111.783 30.5006 111.894 30.0521C112.065 29.2425 111.947 28.3987 111.56 27.6675C111.166 26.9095 110.662 26.4049 110.044 26.1807C109.175 25.8443 108.389 26.1531 107.717 27.0224C106.447 28.6466 105.258 30.3317 104.152 32.0719L100.618 37.7388C99.6627 31.257 98.652 26.236 97.6429 22.7286Z" fill="#DFA43B"/>
</svg>
