<svg width="112" height="160" viewBox="0 0 112 160" fill="none" xmlns="http://www.w3.org/2000/svg">
<path d="M56.8025 28.9951L81.1635 119.929H32.4414L56.8025 28.9951Z" fill="#C4BAFF"/>
<path d="M87.6215 4L32.3492 119.964H107.887L87.6215 4Z" fill="#6750E5" fill-opacity="0.498"/>
<path d="M26.9546 4L81.2536 119.964H3.64062L26.9546 4Z" fill="#6750E5" fill-opacity="0.498"/>
<path d="M14.5117 112.081L30.7695 29.0391L57.2832 89.0697L84.747 29.0391L99.3543 112.081H87.3984L79.9447 65.4579L57.0833 115.633L34.8721 65.4078L26.5678 112.081H14.5117Z" fill="url(#paint0_linear_150_214)"/>
<path d="M91.738 105.045L82.4497 49.0341M21.9355 103.919L32.0682 49.3155L21.9355 103.919ZM56.5553 100.26L32.3496 47.9082L56.5553 100.26ZM57.6811 99.6971L82.4497 47.9082L57.6811 99.6971Z" stroke="#A28BCA" stroke-opacity="0.356" stroke-width="2" stroke-linecap="square"/>
<path d="M92.019 103.637C92.9516 103.637 93.7077 104.393 93.7077 105.326C93.7077 106.258 92.9516 107.015 92.019 107.015C91.0863 107.015 90.3302 106.258 90.3302 105.326C90.3302 104.393 91.0863 103.637 92.019 103.637ZM21.6536 103.637C22.5863 103.637 23.3424 104.393 23.3424 105.326C23.3424 106.258 22.5863 107.015 21.6536 107.015C20.7209 107.015 19.9648 106.258 19.9648 105.326C19.9648 104.393 20.7209 103.637 21.6536 103.637ZM57.1178 100.259C58.0504 100.259 58.8065 101.016 58.8065 101.948C58.8065 102.881 58.0504 103.637 57.1178 103.637C56.1851 103.637 55.429 102.881 55.429 101.948C55.429 101.016 56.1851 100.259 57.1178 100.259ZM32.3491 47.3447C33.2818 47.3447 34.0379 48.1008 34.0379 49.0335C34.0379 49.9662 33.2818 50.7223 32.3491 50.7223C31.4165 50.7223 30.6604 49.9662 30.6604 49.0335C30.6604 48.1008 31.4165 47.3447 32.3491 47.3447ZM82.4493 47.3447C83.382 47.3447 84.138 48.1008 84.138 49.0335C84.138 49.9662 83.382 50.7223 82.4493 50.7223C81.5166 50.7223 80.7605 49.9662 80.7605 49.0335C80.7605 48.1008 81.5166 47.3447 82.4493 47.3447Z" fill="#DCC6FF"/>
<path d="M25.4878 148.005H12.4064L9.00251 155.426H4.03516L19.1549 122.95L33.7403 155.426H28.6938L25.4878 148.005ZM23.6077 143.671L19.0758 133.281L14.3261 143.671H23.6077ZM34.3512 155.426V124.87H40.7632C43.8373 124.87 46.2649 125.173 48.046 125.78C49.9591 126.374 51.694 127.383 53.2509 128.808C56.4041 131.684 57.9808 135.464 57.9808 140.148C57.9808 144.845 56.3382 148.645 53.053 151.547C51.4038 152.998 49.6754 154.008 47.8679 154.575C46.1792 155.142 43.7846 155.426 40.6841 155.426H34.3512ZM38.9623 151.092H41.0403C43.1117 151.092 44.8334 150.874 46.2056 150.439C47.5777 149.977 48.8179 149.245 49.9261 148.242C52.1954 146.171 53.33 143.473 53.33 140.148C53.33 136.797 52.2086 134.079 49.9657 131.994C47.9471 130.134 44.972 129.204 41.0403 129.204H38.9623V151.092ZM76.2841 139.515H88.9103V140.524C88.9103 142.82 88.6398 144.851 88.0989 146.619C87.5711 148.255 86.6806 149.786 85.4272 151.211C82.5906 154.404 78.9822 156 74.6019 156C70.3272 156 66.666 154.456 63.6183 151.369C60.5706 148.269 59.0468 144.548 59.0468 140.207C59.0468 135.774 60.597 132.014 63.6975 128.927C66.798 125.826 70.5713 124.276 75.0175 124.276C77.4056 124.276 79.6352 124.764 81.7066 125.741C83.6857 126.717 85.6317 128.3 87.5447 130.49L84.2596 133.637C81.7528 130.299 78.6985 128.63 75.0967 128.63C71.8643 128.63 69.153 129.745 66.9629 131.975C64.7728 134.165 63.6777 136.909 63.6777 140.207C63.6777 143.611 64.8981 146.415 67.3389 148.618C69.6214 150.663 72.0951 151.686 74.7602 151.686C77.0295 151.686 79.0679 150.92 80.8754 149.39C82.683 147.846 83.6922 145.999 83.9033 143.849H76.2841V139.515ZM108.361 129.204H96.1113V136.546H108.005V140.88H96.1113V151.092H108.361V155.426H91.5002V124.87H108.361V129.204Z" fill="url(#paint1_linear_150_214)"/>
<defs>
<linearGradient id="paint0_linear_150_214" x1="59.9356" y1="88.0107" x2="59.9356" y2="46.3311" gradientUnits="userSpaceOnUse">
<stop stop-color="#803FA5"/>
<stop offset="1" stop-color="#4B114A"/>
</linearGradient>
<linearGradient id="paint1_linear_150_214" x1="37.5834" y1="138.291" x2="75.2699" y2="148.582" gradientUnits="userSpaceOnUse">
<stop stop-color="#91C5AA"/>
<stop offset="1" stop-color="#3965AF"/>
</linearGradient>
</defs>
</svg>
