<svg width="168" height="48" viewBox="0 0 168 48" fill="none" xmlns="http://www.w3.org/2000/svg">
<path d="M53.6728 4C42.6252 4 33.6693 12.9543 33.6693 24C33.6693 35.0457 42.6252 44 53.6728 44C64.7205 44 73.6764 35.0457 73.6764 24C73.5786 12.995 64.6797 4.09773 53.6728 4ZM53.6728 39.8C45.0007 39.855 37.9258 32.8708 37.8707 24.2002C37.8155 15.5296 44.8008 8.45592 53.473 8.40064C62.1451 8.34535 69.2202 15.3294 69.2756 24C69.2763 32.6486 62.3223 39.6905 53.6728 39.8ZM96.6605 4C85.6128 4 76.6569 12.9543 76.6569 24C76.6569 35.0457 85.6128 44 96.6605 44C107.708 44 116.664 35.0457 116.664 24C116.664 18.6957 114.556 13.6086 110.805 9.85786C107.054 6.10714 101.966 4 96.6605 4ZM96.6605 39.8C87.9883 39.855 80.9135 32.8708 80.8583 24.2002C80.8031 15.5296 87.7885 8.45592 96.4606 8.40064C105.133 8.34535 112.208 15.3294 112.263 24C112.333 28.1768 110.718 32.2058 107.783 35.1784C104.847 38.1509 100.839 39.8167 96.6605 39.8ZM19.2667 16C15.4956 15.3894 11.6424 16.4071 8.66483 18.8V8.2H26.668C27.2681 8.2 27.6682 8 27.6682 6.2C27.6682 4.4 26.8681 4.4 26.468 4.4H6.66447C5.67018 4.4 4.86415 5.20589 4.86415 6.2V23.8C4.86415 24.8 5.46426 25 6.46444 25.2C7.08615 25.4874 7.82329 25.3236 8.26476 24.8C10.5403 21.5738 14.3256 19.7572 18.2665 20C22.9034 20.5788 26.5852 24.1781 27.2681 28.8C27.9035 34.3151 23.9763 39.3123 18.4666 40H17.2664C13.0737 39.9408 9.34419 37.3227 7.86469 33.4C7.66465 32.8 7.26458 32.4 5.6643 33C4.06401 33.6 3.86398 34 4.06401 34.6C6.77356 41.8367 14.7794 45.5721 22.0672 43C29.3052 40.2909 33.0413 32.2865 30.4687 25C28.6765 20.1669 24.3731 16.7094 19.2667 16ZM130.266 4.2C124.783 4.83129 120.649 9.48109 120.665 15V32.8C120.665 33.8 121.465 34 122.665 34C123.865 34 124.665 33.8 124.665 32.8V15C124.593 11.5898 127.087 8.6662 130.466 8.2C132.283 8.01658 134.095 8.59611 135.467 9.8C136.86 11.0072 137.662 12.7574 137.668 14.6C137.535 15.9658 137.052 17.2744 136.267 18.4C134.982 20.1846 132.859 21.1701 130.666 21C129.866 21 129.266 21 129.066 22.8C129.066 24 129.066 24.6 130.066 24.8C132.077 25.0051 134.103 24.5862 135.867 23.6C139.093 21.9564 141.274 18.7985 141.668 15.2C141.9 12.431 141.009 9.68506 139.196 7.57904C137.383 5.47303 134.8 4.18346 132.027 4C131.454 4.16063 130.86 4.22816 130.266 4.2ZM156.471 14.6L163.672 7.4C163.872 7.2 164.473 6.6 163.272 5.2C162.938 4.74869 162.43 4.4584 161.872 4.4C161.559 4.406 161.265 4.55295 161.072 4.8L153.871 12L146.669 4.6C146.069 4 145.469 4.2 144.469 5C143.469 5.8 143.469 6.6 144.069 7.2L151.27 14.4L144.029 21.8C143.818 22.0205 143.679 22.2993 143.629 22.6C143.639 23.1725 143.941 23.7002 144.429 24C144.82 24.3811 145.302 24.6564 145.829 24.8C146.191 24.755 146.536 24.6172 146.829 24.4L154.031 17.2L161.232 24.4C161.425 24.6471 161.719 24.794 162.032 24.8C162.59 24.7416 163.099 24.4513 163.432 24C164.032 23.2 164.232 22.4 163.632 22L156.471 14.6Z" fill="black"/>
</svg>
