<svg width="224" height="48" viewBox="0 0 224 48" fill="none" xmlns="http://www.w3.org/2000/svg">
<path d="M41.3809 4C42.8015 6.34578 43.4419 8.76194 43.4419 11.8141C43.4419 21.5487 35.1303 34.1947 28.3844 43.0746H12.9764L6.79688 6.13137L20.2883 4.85073L23.5554 31.1382C26.6082 26.1658 30.3754 18.3519 30.3754 13.0243C30.3754 10.1082 29.8758 8.12199 29.0948 6.48654L41.3809 4Z" fill="#008CFF"/>
<path d="M58.8668 20.2699C61.3495 20.2699 67.5998 19.1344 67.5998 15.5827C67.5998 13.8773 66.3936 13.0266 64.9722 13.0266C62.4856 13.0266 59.2224 16.0079 58.8668 20.2699ZM58.5824 27.3041C58.5824 31.6408 60.9942 33.3423 64.1918 33.3423C67.6738 33.3423 71.0077 32.4915 75.3409 30.2898L73.7088 41.3707C70.6557 42.8621 65.8975 43.8573 61.2791 43.8573C49.5639 43.8573 45.371 36.7538 45.371 27.8736C45.371 16.3639 52.1913 4.14261 66.2524 4.14261C73.9941 4.14261 78.3229 8.47901 78.3229 14.5172C78.3236 24.2515 65.8275 27.2336 58.5824 27.3041Z" fill="#008CFF"/>
<path d="M117.258 12.528C117.258 13.9487 117.043 16.0093 116.828 17.356L112.78 42.9332H99.643L103.336 19.487C103.406 18.8511 103.621 17.5708 103.621 16.8605C103.621 15.1549 102.555 14.7294 101.274 14.7294C99.5723 14.7294 97.8664 15.5101 96.7304 16.0801L92.5419 42.9335H79.3309L85.3663 4.63996H96.8004L96.9452 7.69645C99.6427 5.9206 103.195 4 108.234 4C114.912 3.99927 117.258 7.41056 117.258 12.528Z" fill="#008CFF"/>
<path d="M156.259 8.33462C160.022 5.63767 163.574 4.14261 168.472 4.14261C175.218 4.14261 177.564 7.5539 177.564 12.6714C177.564 14.0921 177.349 16.1527 177.135 17.4994L173.091 43.0765H159.951L163.714 19.1348C163.783 18.4948 163.929 17.7141 163.929 17.2189C163.929 15.2986 162.863 14.8728 161.582 14.8728C159.951 14.8728 158.319 15.5831 157.108 16.2234L152.92 43.0769H139.784L143.546 19.1351C143.615 18.4952 143.757 17.7145 143.757 17.2193C143.757 15.299 142.69 14.8732 141.414 14.8732C139.709 14.8732 138.006 15.6538 136.87 16.2238L132.678 43.0773H119.471L125.507 4.78366H136.801L137.156 7.98054C139.784 6.06467 143.332 4.14406 148.09 4.14406C152.21 4.14261 154.907 5.91881 156.259 8.33462Z" fill="#008CFF"/>
<path d="M203.705 19.4887C203.705 16.3626 202.923 14.2312 200.582 14.2312C195.398 14.2312 194.332 23.3952 194.332 28.0831C194.332 31.6395 195.328 33.8406 197.669 33.8406C202.569 33.8406 203.705 24.1762 203.705 19.4887ZM180.982 27.5172C180.982 15.4411 187.372 4.14139 202.074 4.14139C213.152 4.14139 217.202 10.6792 217.202 19.7031C217.202 31.6391 210.881 44 195.824 44C184.675 44 180.982 36.6815 180.982 27.5172Z" fill="#008CFF"/>
</svg>
