<svg width="160" height="80" viewBox="0 0 160 80" fill="none" xmlns="http://www.w3.org/2000/svg">
<path d="M28.9265 26.7099C28.987 26.6804 29.0478 26.6512 29.109 26.6223C30.8007 25.8249 32.7707 25.4254 35.0184 25.4254C37.2652 25.4254 39.2353 25.825 40.9268 26.6223C42.6183 27.4195 44.0333 28.4881 45.1697 29.8261C46.3061 31.164 47.1593 32.7022 47.7274 34.4389C48.2957 36.1755 48.5806 37.9831 48.5806 39.8617C48.5806 41.7404 48.2957 43.5488 47.7274 45.2853C47.1593 47.022 46.3061 48.56 45.1697 49.8983C44.0333 51.2361 42.6183 52.2983 40.9268 53.0829C39.2353 53.8666 37.2652 54.2598 35.0184 54.2598C32.7708 54.2598 30.8007 53.8667 29.109 53.0829C28.7546 52.9185 28.4124 52.7419 28.0823 52.5532C36.8972 60.5451 53.8681 65.9559 73.3568 65.9559C89.2092 65.9559 103.417 62.747 112.903 57.1093C102.522 66.5479 84.0044 73.2054 62.8613 73.2019C30.3502 73.1974 3.9972 58.3273 4 39.9909C4.0028 21.6541 30.3607 6.79299 62.8716 6.79816C84.0991 6.8014 102.665 13.4801 113.019 22.9852C103.533 17.3122 89.2674 14.0438 73.3568 14.0438C54.473 14.0438 37.9531 19.1239 28.9265 26.7099L28.9265 26.7099ZM25.7668 43.9866C26.1377 45.339 26.72 46.556 27.5143 47.6375C28.308 48.7194 29.327 49.5887 30.5715 50.246C31.815 50.9029 33.297 51.2306 35.0184 51.2306C36.7389 51.2306 38.2208 50.9029 39.4653 50.246C40.7089 49.5887 41.7279 48.7194 42.5224 47.6375C43.316 46.556 43.8982 45.339 44.2688 43.9866C44.6395 42.634 44.825 41.2624 44.825 39.8716C44.825 38.4808 44.6395 37.1103 44.2688 35.7577C43.8982 34.4051 43.3159 33.1883 42.5224 32.1059C41.7278 31.0246 40.7089 30.1554 39.4653 29.4983C38.2208 28.8412 36.7388 28.5126 35.0184 28.5126C33.297 28.5126 31.8152 28.8412 30.5715 29.4983C29.327 30.1556 28.308 31.0247 27.5143 32.1059C26.7198 33.1883 26.1377 34.4051 25.7668 35.7577C25.3962 37.1101 25.2117 38.4808 25.2117 39.8716C25.2117 41.2624 25.3962 42.634 25.7668 43.9866ZM54.1674 36.0863V38.4673H54.227C54.7134 37.4925 55.4781 36.7834 56.5213 36.341C57.5646 35.8988 58.7112 35.6776 59.9631 35.6776C61.353 35.6776 62.5639 35.927 63.5958 36.4257C64.627 36.9245 65.4839 37.5981 66.1677 38.4472C66.8514 39.2973 67.3665 40.2767 67.7149 41.3864C68.0625 42.4965 68.2366 43.6745 68.2366 44.9204C68.2366 46.1664 68.0679 47.3443 67.7325 48.4547C67.3962 49.5648 66.8868 50.5334 66.203 51.3599C65.5193 52.1864 64.6614 52.8381 63.6302 53.3131C62.598 53.7884 61.3994 54.0265 60.0319 54.0265C59.5913 54.0265 59.0985 53.9812 58.5545 53.8909C58.0097 53.7993 57.4712 53.6528 56.9384 53.4488C56.4057 53.2449 55.9007 52.9661 55.4257 52.6151C54.9507 52.2637 54.5511 51.8278 54.2269 51.3053H54.1673V60.3762H51.1865V36.0863H54.1674ZM64.7473 42.3337C64.5274 41.5528 64.1932 40.8565 63.7424 40.2448C63.2914 39.6333 62.7131 39.1464 62.0079 38.7842C61.3018 38.422 60.4758 38.2408 59.5284 38.2408C58.5335 38.2408 57.6898 38.4338 56.9967 38.8188C56.3027 39.2038 55.7365 39.7071 55.2967 40.3297C54.8571 40.9522 54.5394 41.6604 54.3429 42.4533C54.1463 43.2458 54.0485 44.0496 54.0485 44.8642C54.0485 45.7252 54.1518 46.5573 54.3606 47.3608C54.5682 48.1656 54.898 48.8726 55.349 49.4844C55.7996 50.096 56.3828 50.5885 57.1001 50.9618C57.8172 51.3356 58.6846 51.5222 59.7016 51.5222C60.7188 51.5222 61.5683 51.3302 62.2502 50.9453C62.9321 50.5603 63.4818 50.0507 63.8981 49.4162C64.3136 48.7827 64.6143 48.0583 64.7997 47.2427C64.9841 46.4272 65.0772 45.5897 65.0772 44.7288C65.0769 43.9137 64.967 43.1155 64.7473 42.3337ZM83.4396 52.533C82.0925 53.5288 80.3983 54.0265 78.3544 54.0265C76.9144 54.0265 75.6652 53.8002 74.609 53.3477C73.5517 52.8946 72.6632 52.2601 71.9431 51.4445C71.2231 50.629 70.6829 49.6553 70.3233 48.5221C69.9638 47.3896 69.7608 46.1545 69.7141 44.8184C69.7141 43.4822 69.9228 42.2591 70.3419 41.1485C70.7601 40.0382 71.3469 39.0752 72.1025 38.2596C72.8578 37.4441 73.753 36.8107 74.7869 36.3574C75.8209 35.9042 76.9545 35.6776 78.187 35.6776C79.791 35.6776 81.1211 36.0015 82.1792 36.6478C83.2375 37.2949 84.086 38.1177 84.7249 39.1162C85.364 40.1156 85.8064 41.205 86.0505 42.3845C86.2946 43.565 86.3933 44.6883 86.3468 45.755H72.8738C72.8505 46.5241 72.9427 47.2532 73.1513 47.9431C73.36 48.6329 73.6954 49.2437 74.1592 49.7754C74.6231 50.3068 75.2137 50.73 75.9328 51.0466C76.651 51.3635 77.4968 51.5218 78.4701 51.5218C79.721 51.5218 80.7467 51.2389 81.546 50.6717C82.3452 50.1046 82.8723 49.2428 83.1275 48.085H86.0524C85.6574 50.0547 84.7866 51.5373 83.4396 52.533ZM82.7175 41.2587C82.4514 40.6488 82.0927 40.1228 81.6419 39.6823C81.19 39.2418 80.6573 38.8914 80.0442 38.6311C79.4303 38.3708 78.7532 38.2406 78.0127 38.2406C77.2489 38.2406 76.5596 38.3708 75.9466 38.6311C75.3328 38.8914 74.8066 39.2473 74.3668 39.6987C73.9271 40.151 73.5797 40.6772 73.3253 41.276C73.0702 41.875 72.9201 42.5138 72.8736 43.1918H83.1873C83.1405 42.5138 82.9841 41.8694 82.7175 41.2587ZM91.1243 36.0863V38.876H91.1802C92.4152 36.7443 94.3743 35.6776 97.0559 35.6776C98.2446 35.6776 99.2353 35.8368 100.029 36.1545C100.822 36.4722 101.463 36.9145 101.953 37.4817C102.442 38.0486 102.786 38.7231 102.985 39.5058C103.182 40.2886 103.282 41.1562 103.282 42.109V53.6773H100.301V41.7767C100.301 40.689 99.9749 39.8279 99.3238 39.1927C98.6719 38.5582 97.7768 38.2405 96.6375 38.2405C95.7305 38.2405 94.945 38.3771 94.2819 38.6492C93.6187 38.9215 93.0663 39.3063 92.6247 39.8051C92.1835 40.3038 91.8518 40.8873 91.6311 41.5553C91.4094 42.2242 91.2993 42.9551 91.2993 43.7489V53.6768H88.3187V36.0863H91.1243ZM123.887 53.486C122.541 54.0404 121.182 54.3181 119.811 54.3181C117.646 54.3181 115.7 53.9492 113.972 53.2139C112.243 52.4777 110.785 51.4638 109.597 50.1713C108.41 48.8798 107.499 47.3617 106.866 45.6178C106.233 43.874 105.916 41.9935 105.916 39.9783C105.916 37.9123 106.232 35.9935 106.863 34.2233C107.495 32.4539 108.403 30.9104 109.588 29.5923C110.773 28.2743 112.229 27.2414 113.957 26.4913C115.684 25.7422 117.63 25.3673 119.795 25.3673C121.246 25.3673 122.651 25.5811 124.01 26.0082C125.369 26.4358 126.596 27.0638 127.691 27.8921C128.787 28.7204 129.69 29.7415 130.403 30.9548C131.115 32.1689 131.551 33.5615 131.71 35.1342H125.772C125.403 33.5879 124.69 32.4273 123.635 31.6538C122.578 30.8801 121.299 30.4934 119.795 30.4934C118.396 30.4934 117.208 30.7581 116.232 31.2878C115.256 31.8176 114.464 32.5286 113.857 33.4196C113.249 34.3114 112.808 35.3253 112.532 36.4622C112.254 37.599 112.116 38.774 112.116 39.9882C112.116 41.1515 112.255 42.2818 112.532 43.3795C112.81 44.4771 113.252 45.4655 113.86 46.3439C114.467 47.2221 115.26 47.9257 116.238 48.4554C117.215 48.9852 118.404 49.25 119.805 49.25C121.866 49.25 123.457 48.7424 124.58 47.7264C125.703 46.7108 126.357 45.2381 126.543 43.3085H120.289V38.7649H132.146V53.6982H128.201L127.569 50.5654C126.461 51.9578 125.233 52.9318 123.887 53.486ZM142.224 26.0662V48.551H156V53.677H136.024V26.0662H142.224Z" fill="#5586A4"/>
</svg>
