<svg width="224" height="48" viewBox="0 0 224 48" fill="none" xmlns="http://www.w3.org/2000/svg">
<path d="M70.7235 38.0833C70.7235 38.0833 74.1533 36.6709 74.1533 30.5587C74.1533 24.2103 70.7223 22.5654 70.7223 22.5654V38.0833H70.7235ZM204.66 27.6264V18.7243C204.66 18.7243 203.083 18.8081 203.083 16.9032V15.1983H210.442C213.88 15.1983 219.852 16.0982 219.852 23.6628C219.852 25.3077 219.694 32.7536 211.677 32.7536C209.865 32.7536 208.786 32.0486 208.786 32.0486V40.2544C208.786 43.658 204.66 43.2555 204.66 43.2555V32.0074C203.79 32.5386 202.681 32.9098 201.308 32.9098C198.299 32.9098 196.524 30.6762 196.524 28.0901V21.3517C196.524 19.0393 194.521 18.7256 193.942 18.7256C191.59 18.7256 190.282 20.8417 190.282 23.2716V32.4411H186.195V21.3517C186.195 19.0393 184.341 18.7256 183.764 18.7256C181.529 18.7256 180.215 20.8417 180.215 23.2716V32.4411H176.095V32.0361C175.238 32.5523 174.153 32.9111 172.816 32.9111C170.733 32.9111 169.228 31.8136 168.728 30.2075C168.69 30.09 168.69 30.0512 168.65 30.0512L168.532 30.1687C167.455 32.0886 165.26 33.1848 162.946 33.1848C160.276 33.1848 158.678 31.9749 157.724 30.46C156.458 31.8024 154.18 33.1473 150.567 33.1473C147.189 33.1473 145.092 32.0174 143.8 30.5125C143.013 31.6736 141.566 32.9123 139.231 32.9123C136.34 32.9123 135.801 30.2075 135.801 30.2075C135.761 30.09 135.723 30.09 135.683 30.09L135.571 30.1687C134.488 32.0886 132.444 33.0686 130.13 33.0686C127.357 33.0686 125.708 31.8011 124.736 30.24C123.307 31.6536 120.698 33.1461 116.87 33.1461C112.593 33.1461 110.228 31.7536 108.921 30.0062C107.55 31.4837 104.869 33.1461 100.831 33.1461C91.4199 33.1461 91.2687 26.4064 91.2687 23.9766C91.2687 18.4119 94.7385 14.4933 100.101 14.4933H100.133C100.679 14.4933 105.917 14.5721 105.917 20.058V20.098C105.917 20.6455 105.765 26.3289 97.8208 26.3289C97.3608 26.3289 96.2834 26.2502 96.0134 26.1714L95.9347 26.2102C95.9347 26.4064 96.0472 29.6975 101.678 29.6975C103.712 29.6975 105.992 28.9613 107.554 26.8377C107.322 25.7052 107.309 24.6665 107.309 23.9766C107.309 18.4119 110.779 14.4933 116.134 14.4933H116.174C116.712 14.4933 121.956 14.5721 121.956 20.058V20.098C121.956 20.6455 121.806 26.3289 113.86 26.3289C113.4 26.3289 112.323 26.2502 112.054 26.1714L111.975 26.2102C111.975 26.4064 112.086 29.6975 117.717 29.6975C119.73 29.6975 121.983 28.9775 123.543 26.9064C123.443 26.3141 123.392 25.7147 123.388 25.114C123.388 20.098 125.971 14.4933 133.909 14.4933C134.258 14.4933 134.645 14.5333 135.026 14.5333V7.87117C135.026 7.87117 134.921 4.34511 137.504 4.34511H139.114V26.7189C139.114 27.0726 139.152 28.6788 140.657 28.6788C141.152 28.6788 141.775 28.4263 142.267 27.6376C141.963 26.6013 141.81 25.5265 141.813 24.4465C141.813 21.6642 142.78 14.5333 151.802 14.5333C153.845 14.5333 155.62 15.1208 155.62 15.1208V18.7331C155.62 21.4429 152.07 21.0767 152.07 21.0767V18.4119C152.07 18.4119 151.604 18.1769 150.758 18.1769C148.792 18.1769 146.058 19.823 146.058 24.369C146.058 27.3089 147.833 29.5813 151.263 29.5813C152.879 29.5813 154.988 28.945 156.488 26.9102C156.397 26.3156 156.351 25.7153 156.349 25.114C156.349 20.098 158.938 14.4933 166.876 14.4933C169.228 14.4933 172.081 15.1995 172.081 15.2383V26.4064C172.081 27.2289 172.389 28.7576 173.973 28.7576C174.61 28.7576 175.42 28.5163 176.095 27.7001V18.7256C176.095 18.7256 174.472 18.6793 174.472 16.8569V15.1983H177.809C180.156 15.1983 180.215 16.8444 180.215 16.8444C180.215 16.8444 181.72 14.807 184.881 14.807C186.812 14.807 188.618 15.3545 189.546 17.1957C189.546 17.1957 189.546 17.2357 189.625 17.2357L189.703 17.1569C189.816 16.9607 191.17 14.807 195.059 14.807C198.069 14.807 200.612 16.452 200.612 20.1743C200.612 20.1743 200.573 26.1314 200.573 26.4839C200.573 27.3464 200.92 28.7176 202.498 28.7176C203.155 28.7176 203.973 28.4801 204.66 27.6264ZM66.7475 18.6456C66.7475 18.6456 64.8613 18.8768 64.8613 16.9957V15.197H66.7075C66.7075 11.0422 66.7475 9.12235 66.7475 9.00486C66.7475 2.85394 75.217 4.10512 75.217 4.10512C75.217 4.10512 74.9545 7.59368 73.0359 7.59368C71.111 7.59368 70.7235 8.96611 70.7235 9.59358V15.197H76.197C76.197 15.197 76.367 18.6443 74.1133 18.6443H73.4559C72.1097 18.6443 70.8735 18.6443 70.7948 18.6831C71.1822 18.8418 77.6619 21.1917 77.6619 30.5187C77.6606 41.7669 66.7475 44.0005 66.7475 44.0005V18.6456ZM80.1918 15.1983C83.0429 15.1983 82.3266 18.1756 82.3266 18.1756C82.3266 18.1756 82.3266 18.3331 82.3991 18.3331C82.4391 18.3331 82.4779 18.2944 82.5566 18.1756C82.6366 18.0581 84.7515 14.6883 89.2663 14.6883C89.615 14.6883 90.3437 14.7271 90.5737 14.8845V19.648C90.5737 22.1204 87.1039 21.8604 87.1039 21.8604V19.1168C85.639 19.1168 84.6003 20.0568 83.9041 21.0367C82.6691 22.8004 82.5566 25.269 82.5566 26.0527V32.4399H78.4306V15.1983H80.1918ZM115.557 18.0194C112.975 18.0194 111.628 20.488 111.628 22.7604C111.628 22.8391 112.055 23.0354 113.441 23.0354C117.719 23.0354 117.797 20.3705 117.797 19.9793C117.797 18.1369 116.102 18.0194 115.557 18.0194ZM135.028 18.2944C135.028 18.2944 134.489 18.0581 133.103 18.0581C131.215 18.0581 127.707 19.508 127.707 24.524C127.707 25.5427 127.747 28.9525 130.947 28.9525C133.561 28.9525 135.028 26.6789 135.028 24.6803V18.2931V18.2944ZM167.995 18.2944C167.995 18.2944 167.456 18.0581 166.07 18.0581C164.176 18.0581 160.667 19.508 160.667 24.524C160.667 25.5427 160.706 28.9913 163.907 28.9913C166.528 28.9913 167.995 26.6789 167.995 24.6803V18.2931V18.2944ZM209.944 18.6843C209.562 18.6843 209.175 18.6843 208.787 18.7243V28.1288C208.787 28.1288 209.405 29.2263 211.487 29.2263C214.727 29.2263 215.497 26.1314 215.497 23.8191C215.497 19.3906 212.645 18.6843 209.944 18.6843ZM99.5245 18.0194C96.9346 18.0194 95.5872 20.488 95.5872 22.7604C95.5872 22.8391 96.0147 23.0354 97.4008 23.0354C101.679 23.0354 101.758 20.3705 101.758 19.9793C101.758 18.1369 100.062 18.0194 99.5232 18.0194H99.5245Z" fill="#3D4D66"/>
<path d="M20.0776 30.096C21.6738 30.096 22.4 30.8548 22.5112 32.1272H22.5325C22.5284 32.1863 22.5251 32.2455 22.5225 32.3047C22.525 32.3647 22.5262 32.4272 22.5262 32.4909V32.6734C22.6399 34.5758 24.1286 36.117 26.0385 36.3582C26.1835 36.342 26.3373 36.3345 26.4985 36.3345H27.076C28.9096 36.0307 30.3183 34.5221 30.4295 32.6722V32.4909C30.4295 32.4122 30.432 32.3372 30.4358 32.2622C30.4348 32.2171 30.4327 32.1721 30.4295 32.1272H30.4445C30.557 30.8548 31.282 30.096 32.8794 30.096H35.328V32.4909C35.328 34.1433 34.4668 34.8858 32.8782 34.8858H32.4544C30.6908 35.082 29.2746 36.3857 28.9484 38.0669V38.7293C28.9484 39.0881 28.9071 39.4031 28.8284 39.6768V42.3829C28.8284 43.2716 28.0797 44.0003 27.176 44.0003H25.631C24.7211 44.0003 23.9799 43.2716 23.9799 42.3829V38.6793C23.9799 38.5268 24.0011 38.3794 24.0424 38.2381C23.7761 36.4757 22.325 35.0883 20.5013 34.8858H20.0763C18.4889 34.8858 17.6277 34.1433 17.6277 32.4909V30.096H20.0776ZM26.4997 30.096C28.2422 30.096 28.9484 31.531 28.9484 32.4909C28.9484 34.1433 28.0859 34.8858 26.4985 34.8858C24.9111 34.8858 24.0499 33.9808 24.0499 32.4909C24.0499 31.001 24.7561 30.096 26.4997 30.096ZM6.7383 23.3852C8.33446 23.3852 9.06068 24.1439 9.17192 25.415H9.19442C9.19067 25.475 9.18567 25.5338 9.18317 25.5938C9.18567 25.655 9.18692 25.7163 9.18692 25.78V25.9613C9.30191 27.8649 10.7993 29.4073 12.708 29.6461C12.8505 29.6311 13.0017 29.6236 13.1605 29.6236H13.7342C15.5366 29.3273 16.9378 27.8649 17.0915 26.0575V25.78C17.0915 25.6925 17.094 25.6088 17.099 25.5263L17.0915 25.415H17.1065C17.219 24.1439 17.9515 23.3852 19.5476 23.3852H21.9975V25.78C21.9975 27.4324 21.1288 28.1737 19.5476 28.1737H19.1189C17.3577 28.3699 15.9366 29.6736 15.6091 31.356V32.0172C15.6091 33.6696 14.7491 34.4108 13.1605 34.4108C11.1706 34.4108 10.7118 33.5071 10.7118 32.0172C10.7118 31.9022 10.7156 31.7922 10.7243 31.6835C10.5243 29.8461 9.03943 28.3824 7.16703 28.1737H6.7383C5.15088 28.1737 4.28843 27.4324 4.28843 25.78V23.3852H6.7383ZM33.8881 23.3852C35.4843 23.3852 36.2105 24.1439 36.3217 25.415H36.3442C36.3405 25.475 36.3355 25.5338 36.333 25.5938C36.3355 25.655 36.3367 25.7163 36.3367 25.78V25.9613C36.4494 27.8268 37.8898 29.3455 39.7438 29.6302L39.8572 29.6457L40.0025 29.6336C40.1014 29.6269 40.2036 29.6236 40.3103 29.6236H40.884C42.7176 29.3236 44.1363 27.8124 44.2488 25.9613V25.78C44.2488 25.7175 44.2488 25.655 44.2525 25.5938L44.24 25.415H44.2638C44.375 24.1439 45.1013 23.3852 46.6974 23.3852H49.146V25.78C49.146 27.4324 48.2786 28.1737 46.6962 28.1737H46.2674C44.5075 28.3699 43.0864 29.6748 42.7589 31.3572V32.0172C42.7589 33.6696 41.8977 34.4108 40.3103 34.4108C38.3204 34.4108 37.8604 33.5071 37.8604 32.0172C37.8604 31.9022 37.8654 31.7922 37.8729 31.6835C37.6729 29.8461 36.1892 28.3824 34.3168 28.1737H33.8881C32.3007 28.1737 31.4382 27.4324 31.4382 25.78V23.3852H33.8881ZM40.3103 23.3852C42.0539 23.3852 42.7601 24.8188 42.7601 25.78C42.7601 27.4324 41.8977 28.1737 40.3103 28.1737C38.7291 28.1737 37.8604 27.2699 37.8604 25.78C37.8604 24.2889 38.5666 23.3852 40.3103 23.3852ZM13.1617 23.3852C14.9041 23.3852 15.6091 24.8188 15.6091 25.78C15.6091 27.3949 14.7878 28.1395 13.2676 28.1725L13.161 28.1735L13.0521 28.1722C11.5335 28.1313 10.7118 27.2353 10.7118 25.78C10.7118 24.2889 11.418 23.3852 13.1617 23.3852ZM20.0776 16.8593C21.6725 16.8593 22.4 17.618 22.51 18.8904H22.5325L22.5225 19.0679C22.525 19.1291 22.5262 19.1916 22.5262 19.2554V19.4366C22.6412 21.3403 24.1311 22.8814 26.0423 23.1202C26.186 23.1052 26.3385 23.0977 26.4985 23.0977H27.071C28.9071 22.7952 30.3183 21.2865 30.4295 19.4354V19.2541C30.4295 19.1766 30.432 19.1004 30.4358 19.0254C30.4356 18.9803 30.4335 18.9353 30.4295 18.8904H30.4458C30.5558 17.618 31.2832 16.8593 32.8794 16.8593H35.328V19.2541C35.328 20.9065 34.4668 21.649 32.8782 21.649H32.4544C30.6908 21.8452 29.2746 23.1489 28.9484 24.8313V25.4925C28.9484 27.145 28.0859 27.8862 26.4985 27.8862C24.5086 27.8862 24.0499 26.9825 24.0499 25.4925C24.0499 25.3776 24.0549 25.2676 24.0624 25.1588C23.8624 23.3214 22.3787 21.8577 20.5013 21.649H20.0763C18.4889 21.649 17.6277 20.9065 17.6277 19.2541V16.8593H20.0776ZM26.4997 16.858C28.2422 16.858 28.9484 18.2917 28.9484 19.2529C28.9484 20.9053 28.0859 21.6477 26.4985 21.6477C24.9111 21.6477 24.0499 20.7428 24.0499 19.2529C24.0499 17.763 24.7561 16.858 26.4997 16.858ZM6.59831 10.4583C8.19322 10.4583 8.92068 11.2171 9.03068 12.4895H9.05318L9.04193 12.667C9.04443 12.7282 9.04568 12.7895 9.04568 12.8532V13.0332C9.16067 14.9381 10.6581 16.4818 12.5667 16.7205V16.7193C12.7092 16.7043 12.8605 16.6968 13.0192 16.6968H13.5929C15.4278 16.3968 16.8478 14.8844 16.9578 13.0307V12.8532C16.9578 12.7907 16.9578 12.7282 16.9615 12.6682C16.9584 12.6086 16.9547 12.549 16.9503 12.4895H16.9728C17.084 11.2171 17.8102 10.4583 19.4064 10.4583H21.8562V12.8532C21.8562 14.5056 20.9875 15.2468 19.4064 15.2468H18.9776C17.2165 15.4431 15.7953 16.7468 15.4678 18.4292V19.0904C15.4678 20.7428 14.6079 21.4853 13.0192 21.4853C11.0368 21.4853 10.5706 20.5816 10.5706 19.0904C10.5706 18.9754 10.5743 18.8654 10.5831 18.7579C10.3831 16.9205 8.89943 15.4556 7.02703 15.2468H6.59706C5.01089 15.2468 4.14844 14.5056 4.14844 12.8532V10.4583H6.59831ZM49.146 10.4571V12.852C49.146 14.5044 48.2786 15.2456 46.6962 15.2456H46.2674C44.5075 15.4418 43.0864 16.7468 42.7589 18.4292V19.0891C42.7589 20.7415 41.8977 21.484 40.3103 21.484C38.3204 21.484 37.8604 20.5803 37.8604 19.0891C37.8604 18.9741 37.8654 18.8641 37.8729 18.7554C37.6729 16.918 36.1892 15.4556 34.3168 15.2456H33.8881C32.3007 15.2456 31.4382 14.5044 31.4382 12.852V10.4583H33.8881C35.4843 10.4583 36.2105 11.2171 36.3217 12.4895H36.3442L36.333 12.667C36.3355 12.7282 36.3367 12.7895 36.3367 12.8532V13.0332C36.4517 14.9381 37.9491 16.4805 39.8578 16.7205L39.8565 16.7193C40.0003 16.7043 40.1503 16.6968 40.3103 16.6968H40.884C42.7176 16.3968 44.1363 14.8856 44.2488 13.0345V12.852C44.2488 12.7895 44.2488 12.727 44.2525 12.6657L44.24 12.4882H44.2638C44.3738 11.2158 45.1013 10.4571 46.6974 10.4571H49.146ZM13.0205 10.4583C14.7629 10.4583 15.4678 11.892 15.4678 12.8532C15.4678 14.5056 14.6079 15.2468 13.0192 15.2468C11.438 15.2468 10.5706 14.3431 10.5706 12.8532C10.5706 11.362 11.2831 10.4583 13.0205 10.4583ZM40.3103 10.4583C42.0539 10.4583 42.7601 11.892 42.7601 12.8532C42.7601 14.5056 41.8977 15.2468 40.3103 15.2468C38.7291 15.2468 37.8604 14.3431 37.8604 12.8532C37.8604 11.362 38.5666 10.4583 40.3103 10.4583ZM20.0776 4.00244C21.6738 4.00244 22.4 4.76115 22.51 6.03358H22.5325L22.5225 6.21107C22.525 6.27232 22.5262 6.33357 22.5262 6.39731V6.5798C22.6412 8.48345 24.1311 10.0246 26.0423 10.2634V10.2646C26.186 10.2496 26.3385 10.2421 26.4985 10.2421H27.071C28.9071 9.93962 30.3183 8.43095 30.4295 6.5798V6.39856C30.4295 6.32107 30.432 6.24482 30.4358 6.16983C30.4356 6.12476 30.4335 6.07972 30.4295 6.03483H30.4458C30.5558 4.76115 31.2832 4.00244 32.8794 4.00244H35.328V6.39731C35.328 8.04973 34.4668 8.79219 32.8782 8.79219H32.4482C30.687 8.99218 29.2733 10.2946 28.9484 11.9733V12.6357C28.9484 14.2881 28.0859 15.0294 26.4985 15.0294C24.5086 15.0294 24.0499 14.1244 24.0499 12.6357C24.0499 12.5207 24.0549 12.4107 24.0624 12.302C23.8624 10.4658 22.3825 9.00342 20.5076 8.79219H20.0763C18.4889 8.79219 17.6277 8.04973 17.6277 6.39731V4.00244H20.0776ZM26.4997 4.00244C28.2422 4.00244 28.9484 5.43611 28.9484 6.39731C28.9484 8.04973 28.0859 8.79219 26.4985 8.79219C24.9111 8.79219 24.0499 7.88723 24.0499 6.39731C24.0499 4.90739 24.7561 4.00244 26.4997 4.00244Z" fill="#38A1E7"/>
</svg>
