<svg width="200" height="48" viewBox="0 0 200 48" fill="none" xmlns="http://www.w3.org/2000/svg">
<path fill-rule="evenodd" clip-rule="evenodd" d="M11.2227 39.5172H33.5221V8.51556H11.2227V39.5172Z" fill="#121119"/>
<path fill-rule="evenodd" clip-rule="evenodd" d="M11.2218 40.4444H6.77734V7.55556H11.2218V40.4444Z" fill="#00FF99"/>
<path fill-rule="evenodd" clip-rule="evenodd" d="M33.4434 40.4444H37.8878V16.4444H33.4434V40.4444Z" fill="#9933FF"/>
<path fill-rule="evenodd" clip-rule="evenodd" d="M37.8884 44H6.77734V39.5556H37.8884V44Z" fill="#00CCFF"/>
<path fill-rule="evenodd" clip-rule="evenodd" d="M6.77734 8.44444H24.5551V4H6.77734V8.44444Z" fill="#FFF35C"/>
<path fill-rule="evenodd" clip-rule="evenodd" d="M33.4436 12.8889V8.44444H28.9991V4H24.5547V8.47289V8.47955V12.9107V12.9173V17.3333H29.004H33.4378H37.888V12.8889H33.4436" fill="#FF6666"/>
<path d="M24.5557 8.44444H20.1055L24.5557 4V8.44444Z" fill="#9F983D"/>
<path d="M33.4434 21.8136V17.3333H37.882L33.4434 21.8136Z" fill="#62259F"/>
<path d="M73.5349 17.7327C71.272 15.6031 68.5214 15.0262 66.4363 15.0262C61.3785 15.0262 58.0954 18.0431 58.0954 24.1213C58.0954 28.1142 60.134 33.0389 66.3896 33.0389C68.0314 33.0389 70.5549 32.7284 72.3327 31.4418V27.5556H64.5549V20.6667H79.666V34.37C77.8883 38.3184 72.3414 40.4482 66.3518 40.4482C54.0625 40.4482 49.4238 32.2404 49.4238 24.1213C49.4238 16.0022 54.7578 7.66156 66.4263 7.66156C70.7298 7.66156 74.5503 8.54889 78.6318 12.6749L73.5349 17.7327Z" fill="#121119"/>
<path d="M84.1105 39.5555V8.44445H92.7771V39.5555H84.1105Z" fill="#121119"/>
<path d="M106.999 23.7778H113.282C115.722 23.7778 116.964 21.974 116.964 19.9331C116.964 17.8924 115.678 16 113.282 16H106.999V23.7778ZM106.999 31.1111V39.5555H98.1105V8.44445H113.282C121.623 8.44445 125.749 13.6773 125.749 19.7556C125.749 26.1 121.578 31.1111 113.282 31.1111H106.999Z" fill="#121119"/>
<path d="M148.999 39.5555V28H137.666V39.5555H128.999V8.66667H137.666V20.4444H148.999V8.66667H157.666V39.5555H148.999Z" fill="#121119"/>
<path d="M176.634 19.0922L183.333 8.44445H193.222V8.948L180.999 27.2271V39.5555H172.11V27.2271L160.333 8.90378V8.44445H170.2L176.634 19.0922Z" fill="#121119"/>
</svg>
