<svg width="256" height="48" viewBox="0 0 256 48" fill="none" xmlns="http://www.w3.org/2000/svg">
<path fill-rule="evenodd" clip-rule="evenodd" d="M153.767 18.8245C152.537 17.0541 149.573 15.1162 145.718 15.1162C138.284 15.1162 132.583 21.701 132.583 29.5566C132.583 37.4122 138.284 43.997 145.718 43.997C149.573 43.997 152.537 42.0591 153.767 40.2887V42.4923C153.767 42.6099 153.79 42.7263 153.835 42.835C153.88 42.9436 153.946 43.0423 154.029 43.1254C154.112 43.2086 154.211 43.2745 154.32 43.3195C154.428 43.3645 154.545 43.3877 154.662 43.3877H160.727C160.91 43.3877 161.086 43.3149 161.215 43.1855C161.345 43.056 161.417 42.8805 161.417 42.6974V4.69025C161.417 4.50719 161.345 4.33162 161.215 4.20217C161.086 4.07272 160.91 4 160.727 4H154.454C154.364 4 154.274 4.01787 154.191 4.0526C154.107 4.08732 154.031 4.13821 153.967 4.20234C153.903 4.26647 153.853 4.34259 153.818 4.42632C153.784 4.51005 153.767 4.59974 153.767 4.69025V18.8245ZM147.338 37.0859C143.147 37.0859 140.297 33.8743 140.297 29.5595C140.297 25.2447 143.147 22.0332 147.338 22.0332C151.529 22.0332 154.379 25.2418 154.379 29.5595C154.379 33.8772 151.534 37.0859 147.338 37.0859Z" fill="#8ED500"/>
<path d="M122.365 22.3652V32.2165C122.365 35.5898 123.809 36.9183 127.107 36.9183C127.869 36.9276 128.63 36.8481 129.374 36.6814C129.476 36.6551 129.583 36.6524 129.686 36.6733C129.789 36.6943 129.886 36.7385 129.969 36.8025C130.053 36.8665 130.121 36.9487 130.168 37.0428C130.215 37.1369 130.24 37.2405 130.241 37.3457V42.5962C130.24 42.75 130.188 42.8991 130.093 43.0203C129.999 43.1415 129.867 43.228 129.718 43.2663C128.299 43.6028 126.843 43.7571 125.386 43.7255C119.451 43.7255 114.7 40.4591 114.7 33.7096V22.3652H109.66C109.543 22.3656 109.426 22.3428 109.318 22.2981C109.209 22.2535 109.11 22.1878 109.027 22.1049C108.944 22.022 108.878 21.9235 108.833 21.815C108.788 21.7065 108.765 21.5903 108.765 21.4728V16.6179C108.765 16.5004 108.789 16.384 108.834 16.2755C108.879 16.1671 108.946 16.0686 109.029 15.9857C109.113 15.9028 109.211 15.8372 109.32 15.7926C109.429 15.7479 109.545 15.7251 109.663 15.7255C110.195 15.7255 110.671 15.7325 111.098 15.7388C112.748 15.7631 113.653 15.7764 114.147 15.3319C114.747 14.7905 114.735 13.5702 114.71 10.8636C114.704 10.2344 114.697 9.52477 114.697 8.72482C114.697 8.54175 114.77 8.36619 114.899 8.23674C115.029 8.10729 115.204 8.03457 115.387 8.03457H121.675C121.857 8.03457 122.032 8.10689 122.162 8.23572C122.291 8.36454 122.364 8.53936 122.365 8.72193V15.7255H128.43C128.613 15.7255 128.788 15.7982 128.918 15.9277C129.047 16.0571 129.12 16.2327 129.12 16.4158V21.6779C129.119 21.8604 129.046 22.0353 128.917 22.1641C128.787 22.2929 128.612 22.3652 128.43 22.3652H122.365Z" fill="#8ED500"/>
<path d="M98.2637 15.7255H105.643C105.768 15.7258 105.89 15.76 105.997 15.8245C106.104 15.8889 106.192 15.9812 106.25 16.0915C106.309 16.2017 106.337 16.3259 106.33 16.4506C106.324 16.5754 106.284 16.6961 106.215 16.7999L97.432 29.8367L106.402 42.3017C106.477 42.4043 106.522 42.5256 106.532 42.6522C106.542 42.7787 106.516 42.9055 106.459 43.0186C106.401 43.1316 106.313 43.2265 106.205 43.2926C106.096 43.3588 105.972 43.3936 105.845 43.3934H98.4515C98.3418 43.3934 98.2337 43.3672 98.1363 43.317C98.0388 43.2667 97.9548 43.1939 97.8912 43.1045L92.2623 35.2028L86.6334 43.1045C86.57 43.1941 86.486 43.267 86.3885 43.3173C86.291 43.3675 86.1828 43.3936 86.0731 43.3934H78.6306C78.5036 43.3936 78.3791 43.3588 78.2708 43.2926C78.1624 43.2265 78.0745 43.1316 78.0168 43.0186C77.9591 42.9055 77.9338 42.7787 77.9438 42.6522C77.9537 42.5256 77.9985 42.4043 78.0732 42.3017L87.0435 29.8367L78.2551 16.7999C78.1853 16.6957 78.1452 16.5744 78.1392 16.4492C78.1331 16.3239 78.1613 16.1994 78.2206 16.0889C78.28 15.9784 78.3684 15.8863 78.4762 15.8222C78.5841 15.7582 78.7073 15.7248 78.8327 15.7255H86.1338C86.2479 15.7248 86.3603 15.7525 86.4611 15.8059C86.5619 15.8593 86.6479 15.9369 86.7114 16.0317L92.1988 24.1905L97.6861 16.0317C97.7494 15.9367 97.8354 15.859 97.9362 15.8055C98.037 15.7521 98.1496 15.7246 98.2637 15.7255Z" fill="#8ED500"/>
<path d="M238.327 20.1531C239.277 17.4412 242.128 15.3936 245.258 15.3936C245.934 15.3843 246.609 15.4482 247.271 15.5842C247.428 15.616 247.569 15.7009 247.671 15.8245C247.772 15.9481 247.828 16.1029 247.829 16.2629V22.4896C247.829 22.5952 247.805 22.6994 247.758 22.7941C247.711 22.8888 247.644 22.9715 247.56 23.0357C247.476 23.1 247.378 23.144 247.275 23.1645C247.171 23.185 247.064 23.1814 246.962 23.1539C246.116 22.9203 245.241 22.8018 244.363 22.8015C240.73 22.8015 238.327 25.6261 238.327 30.1632V42.6975C238.327 42.8806 238.254 43.0561 238.125 43.1856C237.995 43.315 237.82 43.3878 237.637 43.3878H231.358C231.175 43.3878 230.999 43.315 230.87 43.1856C230.741 43.0561 230.668 42.8806 230.668 42.6975V16.416C230.668 16.2329 230.741 16.0573 230.87 15.9279C230.999 15.7984 231.175 15.7257 231.358 15.7257H237.637C237.82 15.7257 237.995 15.7984 238.125 15.9279C238.254 16.0573 238.327 16.2329 238.327 16.416V20.1531Z" fill="#8ED500"/>
<path fill-rule="evenodd" clip-rule="evenodd" d="M179.924 15.1163C171.817 15.1163 165.224 21.4701 165.224 29.5567C165.224 37.6433 171.817 43.9971 179.924 43.9971C188.031 43.9971 194.622 37.6433 194.622 29.5567C194.622 21.4701 188.028 15.1163 179.924 15.1163ZM179.924 36.9184C175.898 36.9184 172.938 33.8195 172.938 29.5596C172.938 25.2997 175.898 22.2008 179.924 22.2008C183.95 22.2008 186.856 25.2997 186.856 29.5596C186.856 33.8195 183.947 36.9184 179.924 36.9184Z" fill="#8ED500"/>
<path fill-rule="evenodd" clip-rule="evenodd" d="M197.484 29.5567C197.484 21.4701 204.08 15.1163 212.184 15.1163C220.271 15.1163 226.884 21.4701 226.884 29.5567C226.884 37.6433 220.288 43.9971 212.184 43.9971C204.08 43.9971 197.484 37.6433 197.484 29.5567ZM205.198 29.5596C205.198 33.8195 208.158 36.9184 212.184 36.9184C216.193 36.9184 219.116 33.8195 219.116 29.5596C219.116 25.2997 216.227 22.2008 212.184 22.2008C208.141 22.2008 205.198 25.2997 205.198 29.5596Z" fill="#8ED500"/>
<path d="M31.5404 14.7841C26.3938 14.7841 22.0097 17.1465 19.5491 20.7624C19.5182 20.8059 19.484 20.8578 19.4466 20.9145C19.236 21.234 18.924 21.7072 18.5267 21.7097C16.2769 21.727 16.1382 18.9516 16.066 16.4765C16.0579 16.2992 15.9821 16.1318 15.8542 16.0087C15.7263 15.8857 15.5561 15.8164 15.3787 15.8151L8.86316 15.7718C8.77115 15.7718 8.68006 15.7901 8.59521 15.8256C8.51035 15.8612 8.43342 15.9133 8.3689 15.9789C8.30439 16.0445 8.25357 16.1222 8.21942 16.2077C8.18528 16.2931 8.16848 16.3845 8.17002 16.4765C8.31442 22.5212 9.42633 26.6281 16.7534 28.2627C16.9486 28.3081 17.1226 28.4186 17.2465 28.5761C17.3704 28.7337 17.4369 28.9287 17.435 29.1292V42.7031C17.435 42.7935 17.4529 42.883 17.4876 42.9664C17.5224 43.0498 17.5733 43.1256 17.6375 43.1892C17.7017 43.2528 17.7778 43.3031 17.8615 43.3372C17.9452 43.3712 18.0349 43.3884 18.1252 43.3876H24.4588C24.6419 43.3876 24.8174 43.3149 24.9469 43.1854C25.0763 43.056 25.149 42.8804 25.149 42.6974V28.6815C25.149 25.5653 27.3584 22.0389 31.549 22.0389C35.5375 22.0389 37.9461 25.5739 37.9461 28.6815V42.7031C37.9461 42.8862 38.0189 43.0618 38.1483 43.1912C38.2778 43.3207 38.4533 43.3934 38.6364 43.3934H44.9642C45.1467 43.3926 45.3216 43.3196 45.4504 43.1902C45.5792 43.0608 45.6516 42.8857 45.6515 42.7031V27.6418C45.6487 20.4389 39.5028 14.7841 31.5404 14.7841Z" fill="#8ED500"/>
<path fill-rule="evenodd" clip-rule="evenodd" d="M48.866 29.5567C48.866 21.369 55.0696 15.1163 63.5663 15.1163C70.8876 15.1163 77.3107 19.7661 77.3136 28.7249C77.3136 29.2563 77.3136 29.86 77.2558 30.6773C77.2441 30.852 77.1668 31.0158 77.0393 31.1358C76.9118 31.2558 76.7436 31.3231 76.5685 31.3242H56.2999C56.7447 35.0325 60.0457 37.2303 63.7338 37.0802C67.4932 36.9261 68.958 35.6236 69.7258 34.9408C69.8216 34.8556 69.9065 34.7801 69.9836 34.7177C70.2667 34.4867 70.6334 34.2325 71.1071 34.7033L75.4537 38.0997C75.5276 38.1526 75.5902 38.2198 75.6377 38.2973C75.6853 38.3748 75.7169 38.461 75.7306 38.5509C75.7443 38.6408 75.7399 38.7325 75.7177 38.8207C75.6954 38.9089 75.6557 38.9917 75.6009 39.0643C74.567 40.3755 70.2147 44.1184 63.6761 43.9971C55.3497 43.8441 48.866 38.2989 48.866 29.5567ZM63.341 21.369C60.4905 21.369 57.305 22.8073 56.5772 26.1834H69.6573C68.9872 22.9199 66.1916 21.369 63.341 21.369Z" fill="#8ED500"/>
</svg>
