<svg width="160" height="120" viewBox="0 0 160 120" fill="none" xmlns="http://www.w3.org/2000/svg">
<path d="M69.7659 61.4029C69.7659 82.7004 87.0346 99.9511 108.325 99.9511C120.815 99.9511 131.916 94.0177 138.962 84.8235L155.843 84.6975C147.261 102.267 129.21 114.23 108.325 114.23C81.5356 114.23 59.4088 94.2913 55.9596 68.4525H23.0665C23.0665 68.4525 22.2924 67.9281 22.2924 69.2434V113.901C22.2924 113.901 23.8621 114.171 21.5087 114.171H6.61268C6.61268 114.171 4 113.382 4 111.555V21.4374C4 21.4374 5.07652 16.5577 8.15125 12.2864C10.6583 8.79527 14.7568 5.76974 18.6332 5.76974H59.1255L59.65 6.55343V23.7897C59.65 23.7897 60.6941 24.5734 59.1255 24.5734H24.8955C24.8955 24.5734 22.0319 25.6199 22.0319 28.2314V53.9465C22.0319 53.9465 21.7595 54.4626 23.0665 54.4626H55.95C59.3464 28.5794 81.496 8.58165 108.325 8.58165C129.334 8.58165 147.48 20.8386 156 38.5885L139.431 38.6125C132.419 29.0595 121.099 22.856 108.325 22.856C87.0346 22.856 69.7659 40.1175 69.7659 61.4029Z" fill="black"/>
<path d="M123.599 50.6738C120.284 45.7713 114.681 43.0002 108.325 43.0002C98.1646 43.0002 89.9185 51.2391 89.9197 61.4017C89.9197 71.5668 98.1658 79.8153 108.326 79.8153C114.199 79.8153 119.427 77.067 122.803 72.779L138.587 72.6434C134.028 84.9279 122.196 93.666 108.325 93.666C90.5149 93.666 76.0582 79.2201 76.0582 61.4029C76.0582 43.5846 90.5149 29.1411 108.325 29.1411C122.376 29.1411 134.323 38.1096 138.753 50.621L123.599 50.6738Z" fill="black"/>
</svg>
