<svg width="184" height="48" viewBox="0 0 184 48" fill="none" xmlns="http://www.w3.org/2000/svg">
<path d="M125.388 11.0208C128.568 11.0208 131.269 12.2224 133.491 14.6249C135.714 17.0275 136.825 20.1088 136.826 23.8688C136.826 27.4951 135.677 30.5282 133.379 32.968C131.081 35.4078 128.358 36.6275 125.209 36.6269C123.867 36.6386 122.535 36.3841 121.291 35.8782C120.083 35.3788 118.882 34.5617 117.688 33.427V44H111.622V11.6479H117.689V14.3329C118.713 13.2839 119.929 12.4407 121.27 11.849C122.571 11.2928 123.973 11.011 125.388 11.0208ZM62.9703 4.00009C67.8545 4.00009 72.2929 5.75957 76.5392 9.36893C79.9868 12.3 82.7639 15.9627 85.4496 19.503C85.5266 19.6046 85.6035 19.706 85.6804 19.8072L85.9106 20.1105C85.949 20.161 85.9873 20.2114 86.0256 20.2617L86.2552 20.5632L86.4843 20.8631C89.841 25.2503 93.0543 29.0792 96.3902 29.0792C99.4956 29.0657 102.004 26.5408 101.997 23.4354C101.997 20.4025 99.4818 17.8003 96.3902 17.8003C94.3783 17.8003 92.4113 19.1953 90.4305 21.2637C89.5043 20.1159 88.5851 18.8985 87.7249 17.7643C87.1819 17.0485 86.6241 16.3128 86.0503 15.5688C88.9899 12.7017 92.298 10.6728 96.3894 10.6728C103.411 10.6728 109.124 16.4589 109.125 23.4342C109.127 30.4743 103.43 36.1879 96.3902 36.2065C89.5348 36.2065 84.8782 30.5199 80.4661 24.7269L80.1878 24.3609C80.1414 24.2999 80.0951 24.2389 80.0488 24.1779L79.7712 23.8121C77.3165 20.5766 74.7783 17.2309 71.923 14.8037C68.9792 12.3015 66.1348 11.1266 62.9703 11.1266C58.5715 11.1266 54.5068 13.4733 52.3074 17.2828C50.108 21.0922 50.108 25.7857 52.3074 29.5952C54.5068 33.4046 58.5715 35.7514 62.9703 35.7514C66.1348 35.7514 68.9794 34.5862 71.923 32.0842C73.9729 30.3416 75.8591 28.124 77.6689 25.8158C79.1379 27.7534 80.6357 29.7224 82.2358 31.5196C80.499 33.6595 78.6442 35.7233 76.5392 37.5128C72.2929 41.1226 67.8537 42.8796 62.9703 42.8796C56.0106 42.9013 49.5703 39.2009 46.0842 33.1773C42.5981 27.1537 42.5981 19.726 46.0842 13.7024C49.5703 7.67879 56.0106 3.97839 62.9703 4.00009ZM163.184 11.0207C164.597 11.0107 165.997 11.2925 167.297 11.8486C168.632 12.4376 169.84 13.2813 170.852 14.3325V11.6479H176.964V36.0005H170.852V33.4266C169.66 34.5611 168.464 35.3782 167.264 35.8778C166.027 36.3845 164.7 36.6393 163.363 36.6271C160.217 36.6271 157.497 35.4073 155.203 32.9676C152.908 30.5279 151.76 27.4948 151.759 23.8684C151.759 20.1074 152.869 17.0261 155.091 14.6245C157.312 12.223 160.009 11.0217 163.184 11.0207ZM13.016 11.6477L17.9128 25.5024L23.1824 11.6477H26.8404L32.0138 25.3464L36.9178 11.6477H42.9386L34.0521 36.0005H30.1787L24.9866 22.1227L19.6364 36.0005H15.8099L7.03516 11.6477H13.016ZM150.122 11.0208C150.987 11.0391 151.837 11.2534 152.607 11.6477L150.704 16.9072C149.988 16.5488 149.399 16.3699 148.936 16.3706C147.996 16.3706 147.201 16.9523 146.551 18.1158C145.902 19.2793 145.577 21.5627 145.579 24.966L145.6 26.1521V36.0003H139.534L139.535 11.6479H144.773V14.7138C145.258 13.6047 146.04 12.6516 147.034 11.9604C147.945 11.3432 149.021 11.0158 150.122 11.0208ZM124.112 16.6609L124.112 16.6611C122.188 16.6611 120.591 17.3178 119.322 18.6313C118.054 19.9447 117.419 21.6609 117.42 23.7799C117.42 25.9432 118.054 27.6929 119.322 29.0288C120.591 30.3648 122.187 31.0324 124.112 31.0318C125.903 31.0641 127.621 30.3217 128.824 28.9952C130.1 27.6371 130.738 25.9061 130.738 23.802C130.738 21.7132 130.111 20.0009 128.857 18.6652C127.604 17.3295 126.022 16.6614 124.112 16.6609ZM164.429 16.6609V16.6611C162.539 16.6611 160.97 17.3291 159.721 18.6652C158.473 20.0013 157.848 21.7136 157.847 23.802C157.847 25.9053 158.483 27.6364 159.755 28.9952C160.952 30.321 162.664 31.0637 164.45 31.0318C166.37 31.0318 167.961 30.3641 169.224 29.0288C170.487 27.6935 171.119 25.9438 171.12 23.7799C171.12 21.6604 170.488 19.9442 169.224 18.6313C167.961 17.3183 166.362 16.6615 164.429 16.6609Z" fill="#020202"/>
</svg>
