<svg width="192" height="48" viewBox="0 0 192 48" fill="none" xmlns="http://www.w3.org/2000/svg">
<path d="M26.3874 4C37.5537 4 46.6049 12.9539 46.6049 24C46.6049 35.0461 37.5537 44 26.3874 44C15.2212 44 6.16992 35.0461 6.16992 24C6.16992 12.9539 15.2212 4 26.3874 4ZM118.401 14.9561C123.154 14.9561 126.997 19.0056 126.997 24C126.997 28.9944 123.154 33.0439 118.401 33.0439C116.18 33.0439 114.088 32.1639 112.53 30.6136L112.42 30.5017V39.0731L112.417 39.1203C112.394 39.3532 112.203 39.5429 111.967 39.5658L111.919 39.5681H108.872L108.824 39.5658C108.589 39.5429 108.397 39.3532 108.374 39.1203L108.372 39.0731V15.901L108.374 15.8539C108.397 15.6209 108.589 15.4312 108.824 15.4084L108.872 15.4061H111.919L111.967 15.4084C112.203 15.4312 112.394 15.6209 112.417 15.8539L112.42 15.901V17.4983C113.989 15.8785 116.149 14.9561 118.401 14.9561ZM21.4297 14.5062C14.4934 21.3678 16.7221 33.5613 16.7221 33.5613C16.7221 33.5613 29.071 35.7435 35.9845 28.9044C39.8278 25.1024 39.6914 18.7807 35.6661 14.8211C31.6408 10.8616 25.2731 10.7042 21.4297 14.5062ZM133.774 8.43195L133.822 8.43424C134.058 8.45705 134.249 8.64676 134.272 8.87975L134.275 8.92688V17.4983C135.844 15.8785 138.004 14.9561 140.256 14.9561C145.009 14.9561 148.852 19.0056 148.852 24C148.852 28.9944 145.009 33.0439 140.256 33.0439C138.034 33.0439 135.943 32.1639 134.385 30.6136L134.275 30.5017V32.099L134.272 32.1461C134.249 32.3791 134.058 32.5688 133.822 32.5916L133.774 32.5939H130.727C130.47 32.5939 130.254 32.3946 130.229 32.1461L130.227 32.099V8.92688C130.227 8.6728 130.428 8.45857 130.679 8.43424L130.727 8.43195H133.774ZM160.064 14.9561C165.204 14.9561 169.365 19.0056 169.365 24C169.365 28.9944 165.204 33.0439 160.064 33.0439C154.924 33.0439 150.762 28.9944 150.762 24C150.762 19.0056 154.924 14.9561 160.064 14.9561ZM93.6578 14.9561C95.8791 14.9561 97.9702 15.8361 99.5285 17.3864L99.6389 17.4983V15.901L99.6412 15.8539C99.6642 15.6209 99.856 15.4312 100.092 15.4084L100.139 15.4061H103.187C103.443 15.4061 103.66 15.6054 103.685 15.8539L103.687 15.901V32.099L103.685 32.1461C103.662 32.3791 103.47 32.5688 103.234 32.5916L103.187 32.5939H100.139L100.092 32.5916C99.856 32.5688 99.6642 32.3791 99.6412 32.1461L99.6389 32.099V30.5017C98.0697 32.1215 95.9092 33.0439 93.6578 33.0439C88.9047 33.0439 85.0613 28.9944 85.0613 24C85.0613 19.0056 88.9047 14.9561 93.6578 14.9561ZM185.33 15.3836C185.421 15.3836 185.512 15.4061 185.58 15.4511C185.772 15.5776 185.844 15.8426 185.74 16.042L185.717 16.081L180.486 23.955L185.762 31.8965C185.808 31.9865 185.83 32.0765 185.83 32.1665C185.83 32.3985 185.651 32.5909 185.422 32.6141L185.376 32.6164H181.896C181.644 32.6164 181.412 32.5014 181.27 32.3068L181.237 32.2565L178.098 27.0821L174.96 32.2565C174.834 32.4641 174.611 32.5951 174.363 32.614L174.3 32.6164H170.775C170.684 32.6164 170.593 32.5939 170.525 32.5489C170.333 32.4224 170.261 32.1574 170.366 31.958L170.389 31.919L175.665 23.9775L170.434 16.1035C170.389 16.036 170.366 15.946 170.366 15.856C170.366 15.624 170.546 15.4316 170.774 15.4084L170.821 15.4061H174.346C174.598 15.4061 174.83 15.5211 174.972 15.7157L175.005 15.766L178.075 20.8504L181.146 15.7435C181.272 15.5359 181.494 15.4049 181.743 15.386L181.805 15.3836H185.33ZM75.9419 14.9561C79.4272 14.9561 82.2679 17.5735 82.3312 20.8509L82.3323 20.9629L82.3551 32.099L82.3527 32.1461C82.3297 32.3791 82.1379 32.5688 81.9024 32.5916L81.8547 32.5939H78.7846C78.5277 32.5939 78.3112 32.3946 78.2866 32.1461L78.2843 32.099V22.2002C78.2843 20.108 76.6696 18.5107 74.7365 18.5107C73.0167 18.5107 71.604 19.9863 71.2955 21.9146L71.2798 22.0202L71.3025 32.099L71.3002 32.1461C71.2772 32.3791 71.0854 32.5688 70.8499 32.5916L70.8022 32.5939H67.7321C67.4752 32.5939 67.2587 32.3946 67.2341 32.1461L67.2317 32.099V22.2002C67.2317 20.108 65.6171 18.5107 63.684 18.5107C61.8503 18.5107 60.3464 20.1857 60.1886 22.2951L60.1818 22.4027V32.099L60.1795 32.1461C60.1564 32.3791 59.9646 32.5688 59.7291 32.5916L59.6815 32.5939H56.6341L56.5864 32.5916C56.3509 32.5688 56.1591 32.3791 56.1361 32.1461L56.1337 32.099V15.901L56.1361 15.8539C56.1591 15.6209 56.3509 15.4312 56.5864 15.4084L56.6341 15.4061H59.6815L59.7291 15.4084C59.9646 15.4312 60.1564 15.6209 60.1795 15.8539L60.1818 15.901V17.3408C61.2734 15.856 63.0245 14.9561 64.8893 14.9561C67.2772 14.9336 69.5059 16.2385 70.6203 18.3307C71.5982 16.2835 73.6677 14.9786 75.9419 14.9561ZM139.551 18.5782C136.7 18.5782 134.402 20.9021 134.3 23.8186L134.297 23.9325V24.0675C134.32 27.0371 136.663 29.4218 139.551 29.4218C142.439 29.4218 144.804 26.9921 144.804 24C144.804 21.0079 142.462 18.5782 139.551 18.5782ZM160.041 18.5782C157.153 18.5782 154.788 21.0079 154.788 24C154.788 26.9921 157.13 29.4218 160.041 29.4218C162.929 29.4218 165.295 26.9921 165.295 24C165.295 21.0079 162.929 18.5782 160.041 18.5782ZM94.3628 18.5782C91.4745 18.5782 89.1094 21.0079 89.1094 24C89.1094 26.9921 91.4518 29.4218 94.3628 29.4218C97.2144 29.4218 99.534 27.0971 99.6142 24.18L99.6161 24.0675V23.9325C99.5934 20.9629 97.251 18.5782 94.3628 18.5782ZM117.696 18.5782C114.845 18.5782 112.548 20.9021 112.445 23.8186L112.443 23.9325V24.0675C112.465 27.0371 114.808 29.4218 117.696 29.4218C120.607 29.4218 122.949 26.9921 122.949 24C122.949 21.0079 120.607 18.5782 117.696 18.5782ZM28.7071 15.721L30.6856 19.748L34.7564 21.7053L30.6856 23.6625L28.7071 27.6895L26.7285 23.6625L22.6578 21.7053L26.7285 19.748L28.7071 15.721Z" fill="#485160"/>
</svg>
