<svg width="160" height="56" viewBox="0 0 160 56" fill="none" xmlns="http://www.w3.org/2000/svg">
<path d="M32.7932 12.1078V18.8503C32.7932 21.0154 32.7932 23.1806 32.7742 25.2888C32.7742 25.4408 32.7742 25.5927 32.7932 25.7447C32.8122 26.0106 33.0401 26.2195 33.306 26.2385C33.401 26.2575 33.4769 26.2575 33.5719 26.2575H36.2119C36.3259 26.2575 36.4208 26.2575 36.5348 26.2385C36.7817 26.2195 36.9716 26.0486 36.9906 25.8016C37.0096 25.5927 37.0286 25.3838 37.0286 25.1749V12.5255C37.0286 12.3546 37.0286 12.2027 37.0096 12.0318C36.9716 11.595 36.8387 11.462 36.4018 11.462C35.4142 11.443 34.4266 11.443 33.439 11.462C32.9831 11.481 32.8122 11.652 32.7932 12.1078Z" fill="#00A8E1"/>
<path d="M35.889 4.79552C35.6041 4.70056 35.3003 4.64358 34.9964 4.66257C33.4769 4.66257 32.5843 5.4033 32.4703 6.75179C32.3943 8.11928 33.192 8.91698 34.2746 9.1259C34.6925 9.20187 35.1293 9.20187 35.5472 9.1259C36.5348 8.97396 37.2755 8.17626 37.3515 7.18863C37.4465 6.03006 36.9147 5.1374 35.889 4.79552Z" fill="#00A8E1"/>
<path d="M81.5859 51.3471C80.8262 51.3281 80.0665 51.3281 79.3067 51.3471C78.9585 51.3281 78.6103 51.3112 78.2621 51.2943C77.5657 51.2605 76.8693 51.2268 76.1729 51.1761C73.4 50.9672 70.646 50.5494 67.949 49.9226C58.6235 47.7574 50.4376 43.408 43.2963 37.0834C42.7955 36.6399 42.3164 36.1857 41.8344 35.7287L41.8343 35.7286L41.8336 35.728C41.676 35.5785 41.5181 35.4288 41.359 35.2791C41.207 35.1461 41.0741 34.9562 40.9981 34.7663C40.8842 34.5004 40.9411 34.2155 41.1311 34.0066C41.321 33.7977 41.6249 33.7217 41.8908 33.8356C42.0617 33.9116 42.2327 33.9876 42.3846 34.0825C49.203 38.299 56.6483 41.3758 64.4543 43.1991C67.0753 43.8069 69.7154 44.2817 72.3744 44.6236C76.1919 45.0984 80.0475 45.2693 83.884 45.1364C85.9543 45.0794 88.0055 44.8895 90.0567 44.6236C94.8429 44.0158 99.5722 42.9332 104.149 41.4138C106.562 40.6161 108.917 39.7044 111.215 38.6408C111.557 38.4509 111.975 38.3939 112.354 38.4889C112.981 38.6408 113.361 39.2866 113.209 39.9134C113.19 39.9893 113.152 40.0843 113.114 40.1603C112.962 40.4452 112.753 40.6921 112.487 40.882C110.303 42.5914 107.948 44.0918 105.46 45.3453C100.769 47.7194 95.7546 49.4098 90.5885 50.3784C87.6066 50.9102 84.6058 51.2331 81.5859 51.3471Z" fill="#00A8E1"/>
<path d="M53.4574 12.8485C53.5204 12.8107 53.5837 12.7726 53.6474 12.7343C54.0636 12.4837 54.4941 12.2245 54.9389 11.9938C56.2684 11.3101 57.7498 10.9682 59.2503 11.0442C60.3329 11.1012 61.3205 11.405 62.0802 12.2027C62.8019 12.9435 63.0678 13.8551 63.1438 14.8428C63.1628 15.0517 63.1628 15.2606 63.1628 15.4885V25.3268C63.1628 26.1815 63.0489 26.2955 62.1942 26.2955H59.877C59.7251 26.2955 59.5732 26.2955 59.4212 26.2765C59.1933 26.2575 59.0034 26.0675 58.9654 25.8396C58.9274 25.6307 58.9274 25.4218 58.9274 25.2129V16.4192C58.9464 16.0583 58.9084 15.7164 58.8134 15.3746C58.6615 14.7858 58.1297 14.3679 57.5219 14.33C56.4013 14.254 55.2808 14.4819 54.2551 14.9567C54.1032 14.9947 54.0082 15.1466 54.0272 15.2986V25.2888C54.0272 25.4788 54.0272 25.6497 53.9893 25.8396C53.9893 26.1055 53.7803 26.2955 53.5144 26.2955C53.2295 26.3145 52.9446 26.3145 52.6408 26.3145H50.6275C49.9248 26.3145 49.7728 26.1435 49.7728 25.4408V16.4572C49.7728 16.1343 49.7538 15.7924 49.6779 15.4695C49.5449 14.8238 48.9941 14.3679 48.3484 14.33C47.2088 14.254 46.0502 14.4819 45.0246 14.9757C44.8727 15.0137 44.7777 15.1846 44.8157 15.3366V25.4598C44.8157 26.1625 44.6637 26.3145 43.961 26.3145H41.416C40.7512 26.3145 40.5803 26.1245 40.5803 25.4788V12.2977C40.5803 12.1458 40.5993 11.9938 40.6373 11.8419C40.7132 11.614 40.9411 11.481 41.1691 11.481H43.5432C43.885 11.481 44.094 11.6899 44.2079 12.0128C44.2598 12.1581 44.3004 12.2977 44.342 12.441C44.3765 12.5599 44.4117 12.6813 44.4548 12.8105C44.5928 12.8105 44.6907 12.7404 44.7849 12.6729C44.8203 12.6474 44.8553 12.6224 44.8917 12.6016C45.9363 11.9558 47.0379 11.405 48.2724 11.1771C49.222 10.9872 50.1717 10.9872 51.1213 11.1771C52.014 11.3671 52.8117 11.8989 53.3245 12.6586C53.3625 12.7156 53.4005 12.7535 53.4385 12.7915C53.4263 12.8037 53.4297 12.8081 53.4387 12.8196C53.4438 12.8261 53.4506 12.8348 53.4574 12.8485Z" fill="#00A8E1"/>
<path d="M25.386 13.5702C25.5189 13.5322 25.6329 13.4563 25.7089 13.3423C26.0507 13.0004 26.4116 12.6776 26.7915 12.3737C27.7791 11.614 29.0136 11.2341 30.2482 11.3291C30.742 11.3481 30.9129 11.5 30.9509 11.9748C30.9794 12.4597 30.9758 12.9554 30.9722 13.4456C30.9711 13.6082 30.9699 13.7703 30.9699 13.9311C30.9889 14.197 30.9699 14.4439 30.9319 14.7098C30.8559 15.0517 30.723 15.1846 30.3811 15.2226C30.1241 15.241 29.8848 15.2238 29.629 15.2055L29.6024 15.2036C28.3299 15.0897 27.0953 15.3366 25.8988 15.7354C25.6329 15.8304 25.6329 16.0203 25.6329 16.2292V25.3458C25.6329 25.5168 25.6329 25.6687 25.6139 25.8396C25.5949 26.0865 25.405 26.2765 25.1581 26.2765C25.0251 26.2955 24.8732 26.2955 24.7403 26.2955H22.2712C22.1382 26.2955 21.9862 26.2955 21.8533 26.2765C21.6064 26.2575 21.4165 26.0486 21.3975 25.8016C21.3785 25.6497 21.3785 25.4978 21.3785 25.3458V12.4307C21.3785 11.557 21.4734 11.462 22.3471 11.462H24.1704C24.6643 11.462 24.8922 11.633 25.0251 12.1078C25.1581 12.5826 25.272 13.0574 25.386 13.5702Z" fill="#00A8E1"/>
<path d="M114.235 32.829C115.488 32.867 116.723 32.943 117.938 33.2659C118.28 33.3608 118.603 33.4748 118.926 33.6267C119.363 33.7977 119.648 34.2155 119.705 34.6713C119.781 35.2031 119.8 35.7539 119.762 36.3047C119.515 39.5525 118.508 42.6863 116.837 45.4783C116.229 46.4849 115.488 47.3966 114.634 48.1943C114.463 48.3652 114.254 48.4981 114.026 48.5741C113.665 48.6691 113.437 48.4791 113.418 48.1183C113.437 47.9283 113.475 47.7384 113.551 47.5485C114.216 45.7632 114.861 43.9968 115.374 42.1545C115.678 41.1479 115.887 40.1223 116.02 39.0777C116.058 38.6978 116.077 38.318 116.039 37.9381C116.02 37.2923 115.602 36.7415 114.975 36.5516C114.387 36.3617 113.779 36.2477 113.152 36.2097C111.405 36.1338 109.657 36.2097 107.929 36.4377L105.631 36.7226C105.384 36.7415 105.156 36.7226 105.023 36.4946C104.89 36.2667 104.947 36.0388 105.08 35.8109C105.232 35.602 105.422 35.412 105.65 35.2791C107.055 34.2725 108.632 33.6647 110.303 33.2659C111.595 33 112.905 32.867 114.235 32.829Z" fill="#00A8E1"/>
<path fill-rule="evenodd" clip-rule="evenodd" d="M18.5675 17.2928C18.4916 16.3052 18.2257 15.3366 17.8268 14.4439C17.0481 12.8105 15.8516 11.614 14.0282 11.1961C11.939 10.7403 10.0587 11.1961 8.34937 12.4686C8.23541 12.5826 8.10246 12.6776 7.95052 12.7535C7.91253 12.7345 7.87455 12.7156 7.87455 12.6966C7.84606 12.6016 7.82232 12.5066 7.79858 12.4117C7.77483 12.3167 7.75109 12.2217 7.7226 12.1268C7.57066 11.652 7.38073 11.481 6.86792 11.481C6.67869 11.481 6.48737 11.4831 6.29534 11.4852C5.90916 11.4894 5.52013 11.4937 5.13957 11.481C4.70274 11.462 4.30389 11.519 4 11.8609C4 18.5084 4 25.1749 4.01899 31.8034C4.2659 32.2022 4.64576 32.2782 5.08259 32.2592C5.53842 32.2466 5.99425 32.2508 6.45008 32.255C6.678 32.2571 6.90591 32.2592 7.13383 32.2592C7.73529 32.2592 8.03442 32.2592 8.18319 32.1097C8.33038 31.9617 8.33038 31.6673 8.33038 31.0817V25.6687C8.33038 25.6383 8.3274 25.607 8.3244 25.5753C8.31425 25.4683 8.30377 25.3578 8.40635 25.2698C9.35599 26.0106 10.5146 26.4664 11.7111 26.5804C13.3825 26.7513 14.9019 26.3335 16.1744 25.1939C17.1051 24.3392 17.7888 23.2376 18.1497 22.0221C18.6625 20.4647 18.7005 18.8882 18.5675 17.2928ZM14.0282 21.2244C13.8953 21.8131 13.5914 22.3449 13.1546 22.7438C12.6608 23.1616 12.053 23.4085 11.4072 23.4085C10.4386 23.4655 9.48894 23.2566 8.63426 22.8008C8.42534 22.7058 8.29239 22.4969 8.31138 22.269V18.8313C8.31138 18.4514 8.31349 18.0715 8.3156 17.6917C8.31982 16.932 8.32405 16.1723 8.31138 15.4125C8.29239 15.1466 8.44433 14.9187 8.69124 14.8238C9.73585 14.33 10.8184 14.102 11.958 14.33C12.7557 14.4439 13.4395 14.9567 13.7623 15.6974C14.0472 16.3052 14.2182 16.97 14.2562 17.6347C14.3701 18.8503 14.3701 20.0658 14.0282 21.2244Z" fill="#00A8E1"/>
<path fill-rule="evenodd" clip-rule="evenodd" d="M74.4066 20.1418C72.9821 20.3697 71.5197 20.3507 70.0952 20.0848C69.9397 20.0502 69.7684 20.0314 69.6101 20.014C69.5944 20.0122 69.5788 20.0105 69.5634 20.0088C69.4685 21.7182 70.5131 23.1047 72.1274 23.4275C73.305 23.6365 74.5206 23.6365 75.6981 23.3896C76.2489 23.2756 76.7807 23.1616 77.3315 23.0287C77.8823 22.8957 78.1102 23.0667 78.1102 23.6365C78.1102 23.7954 78.1081 23.9544 78.106 24.1127C78.1018 24.4271 78.0976 24.7387 78.1102 25.0419C78.1292 25.5357 77.9013 25.8016 77.4644 25.9726C76.7427 26.2575 75.983 26.4474 75.2233 26.5804C73.7798 26.8083 72.3174 26.8652 70.8739 26.5424C68.3479 26.0106 66.6765 24.5101 66.0117 21.9841C65.4989 20.0088 65.423 18.0146 66.0497 16.0583C66.9424 13.1904 68.8987 11.538 71.8995 11.1961C73.1721 11.0252 74.4636 11.1581 75.6791 11.557C78.1672 12.4497 79.1928 14.8618 78.528 17.2549C78.2622 18.2045 77.6354 18.8882 76.7807 19.3821C76.04 19.7809 75.2423 20.0278 74.4066 20.1418ZM69.9813 15.8684C69.8103 16.2862 69.6774 16.7231 69.6204 17.1789C69.601 17.334 69.5915 17.41 69.6248 17.4522C69.6567 17.4927 69.7279 17.5022 69.8673 17.5208C70.608 17.6347 71.3677 17.6917 72.1085 17.6917C72.5263 17.7297 72.9441 17.6917 73.343 17.5967C74.0078 17.4638 74.5585 17.1789 74.7865 16.4951C74.8814 16.1723 74.9004 15.8304 74.8434 15.5075C74.7865 14.9757 74.4636 14.5199 73.9698 14.311C73.6469 14.178 73.305 14.102 72.9631 14.083C71.7476 14.0071 70.551 14.4819 69.9813 15.8684Z" fill="#00A8E1"/>
<path d="M105.29 4.85244C104.929 4.7005 104.549 4.62453 104.169 4.66251C104.036 4.64352 103.903 4.66251 103.77 4.6815C102.65 4.77647 101.833 5.55518 101.738 6.59979C101.624 7.91029 102.232 8.82195 103.409 9.10685C103.618 9.14483 103.827 9.18282 104.036 9.18282C105.575 9.2208 106.733 8.34713 106.581 6.61878C106.543 5.82108 106.03 5.13733 105.29 4.85244Z" fill="#232F3E"/>
<path d="M106.277 25.7256V12.2407C106.277 11.6519 106.106 11.481 105.518 11.481H102.783C102.194 11.481 102.042 11.6519 102.023 12.2407V25.3837C102.023 25.4977 102.023 25.6306 102.042 25.7446C102.08 26.1055 102.251 26.2954 102.631 26.2954C103.656 26.3144 104.663 26.3144 105.689 26.2954C106.068 26.2764 106.239 26.1055 106.277 25.7256Z" fill="#232F3E"/>
<path d="M92.8304 22.3069C92.8873 22.117 92.9443 21.9318 93.0013 21.7466C93.0583 21.5614 93.1152 21.3762 93.1722 21.1863C93.609 19.7146 94.0458 18.2475 94.4826 16.7805L94.4828 16.7797C94.9196 15.3126 95.3564 13.8455 95.7932 12.3736L95.9072 12.0317C96.0022 11.6899 96.325 11.481 96.6669 11.481H99.5538C100.276 11.481 100.428 11.6899 100.181 12.3736L99.041 15.3935C98.4051 17.045 97.7691 18.7013 97.1332 20.3576L97.1322 20.3601C96.496 22.0173 95.8597 23.6744 95.2235 25.3268C95.2045 25.3837 95.1807 25.4407 95.157 25.4977C95.1332 25.5547 95.1095 25.6117 95.0905 25.6686C94.9576 26.0675 94.5587 26.3334 94.1409 26.2954C93.3052 26.2764 92.4695 26.2764 91.6338 26.2954C91.045 26.3144 90.7031 26.0485 90.4942 25.5167C90.2568 24.8899 90.0147 24.2584 89.7725 23.6269C89.5303 22.9954 89.2882 22.3639 89.0508 21.7371C88.573 20.4869 88.0918 19.2366 87.6101 17.9849L87.6101 17.9849C86.943 16.2513 86.2748 14.5151 85.6131 12.7725C85.4991 12.5446 85.4231 12.2787 85.3661 12.0317C85.3092 11.6519 85.4421 11.462 85.822 11.462C86.5451 11.4493 87.2683 11.4535 87.9858 11.4578L87.9859 11.4578C88.3425 11.4599 88.6977 11.462 89.0508 11.462C89.5066 11.462 89.7155 11.7658 89.8295 12.1647C89.8677 12.2966 89.9059 12.4292 89.9442 12.5622C90.1154 13.1566 90.289 13.7591 90.4752 14.3489C90.8646 15.6689 91.2492 16.9936 91.6338 18.3184C92.0184 19.6431 92.403 20.9679 92.7924 22.2879C92.7734 22.3069 92.7924 22.3069 92.8304 22.3069Z" fill="#232F3E"/>
<path fill-rule="evenodd" clip-rule="evenodd" d="M122.687 4.79546H120.047C119.325 4.79546 119.192 4.92841 119.192 5.65014V11.8038C119.192 11.8401 119.197 11.8763 119.201 11.9126C119.212 12.0093 119.224 12.106 119.154 12.2027C119.035 12.1895 118.953 12.1302 118.87 12.0698C118.833 12.0435 118.796 12.0168 118.756 11.9938C116.78 10.8352 114.71 10.6263 112.621 11.5949C111.158 12.2787 110.247 13.5132 109.658 14.9756C109.088 16.3811 108.955 17.8626 108.993 19.363C108.993 20.7685 109.316 22.155 109.943 23.4085C110.665 24.795 111.709 25.8586 113.229 26.3144C115.299 26.9601 117.236 26.6373 119.003 25.3268C119.052 25.2983 119.094 25.2618 119.136 25.2253C119.206 25.1644 119.276 25.1036 119.382 25.0799C119.477 25.2888 119.553 25.5167 119.591 25.7446C119.667 26.0485 119.933 26.2574 120.256 26.2574H120.712C120.941 26.2574 121.168 26.2596 121.394 26.2617C121.842 26.2659 122.283 26.27 122.725 26.2574C123.257 26.2574 123.409 26.0865 123.428 25.5357V5.51719C123.409 4.92841 123.257 4.79546 122.687 4.79546ZM119.211 18.7742V22.2309C119.249 22.4588 119.116 22.6678 118.908 22.7627C117.996 23.2755 116.951 23.4845 115.926 23.3325C115.052 23.2375 114.292 22.7057 113.893 21.927C113.59 21.3193 113.419 20.6735 113.362 20.0088C113.21 18.8122 113.305 17.5967 113.59 16.4381C113.685 16.1152 113.798 15.8113 113.969 15.5074C114.368 14.7667 115.128 14.2919 115.964 14.2349C116.97 14.14 117.977 14.3299 118.889 14.7477C119.117 14.8237 119.249 15.0516 119.23 15.2985C119.202 16.1814 119.206 17.043 119.209 17.9072C119.21 18.1956 119.211 18.4843 119.211 18.7742Z" fill="#232F3E"/>
<path fill-rule="evenodd" clip-rule="evenodd" d="M155.982 17.7106V17.7866C155.906 17.7106 155.868 17.5967 155.906 17.5017V17.3498C155.906 17.3498 155.906 17.3308 155.925 17.3308H155.906V17.1408H155.944C155.944 17.1313 155.939 17.1266 155.934 17.1218C155.929 17.1171 155.925 17.1123 155.925 17.1028C155.887 16.742 155.811 16.3811 155.716 16.0392C155.013 13.5322 153.437 11.8798 150.873 11.234C149.676 10.9492 148.461 10.9112 147.245 11.1011C144.681 11.481 142.839 12.8484 141.946 15.2795C141.072 17.5967 141.091 20.1417 141.965 22.4588C142.725 24.567 144.244 25.8966 146.428 26.4473C147.587 26.7322 148.802 26.8082 149.999 26.6373C153.987 26.1625 155.64 23.1426 155.906 20.5216H155.887V20.2557L155.885 20.2475C155.867 20.1372 155.851 20.0449 155.963 19.9708V20.0088C155.963 19.9898 155.982 19.9518 156.001 19.9328V17.7486C156.001 17.7391 155.996 17.7344 155.991 17.7296C155.986 17.7249 155.982 17.7201 155.982 17.7106ZM150.892 22.4209C151.139 22.079 151.309 21.7181 151.423 21.3193C151.651 20.5406 151.746 19.7239 151.689 18.8882C151.708 18.5463 151.689 18.2044 151.67 17.8626C151.632 17.1218 151.442 16.3811 151.119 15.7164C150.778 15.0136 150.151 14.5198 149.391 14.3679C149.03 14.2919 148.669 14.2919 148.309 14.3299C147.511 14.3869 146.789 14.8237 146.371 15.5074C146.143 15.8873 145.953 16.3241 145.858 16.761C145.593 17.8626 145.612 18.9831 145.707 20.1037C145.764 20.7495 145.934 21.3952 146.219 21.984C146.542 22.7247 147.207 23.2565 148.005 23.4085C148.366 23.4845 148.726 23.4845 149.087 23.4465C149.809 23.3895 150.474 23.0096 150.892 22.4209Z" fill="#232F3E"/>
<path fill-rule="evenodd" clip-rule="evenodd" d="M134.159 20.2747C135.26 20.1987 136.362 19.9898 137.35 19.458C138.356 18.9642 139.059 18.0335 139.268 16.9319C139.401 16.2482 139.401 15.5264 139.249 14.8427C138.85 13.1333 137.767 12.0697 136.134 11.5189C135.222 11.234 134.254 11.1201 133.304 11.1581C130.113 11.234 127.682 12.8484 126.695 16.0392C126.03 18.1475 126.125 20.2937 126.771 22.4019C127.435 24.567 128.955 25.8776 131.12 26.4663C132.051 26.6943 133.019 26.7892 133.969 26.7512C135.355 26.7322 136.742 26.4663 138.052 25.9725C138.603 25.7636 138.736 25.5737 138.736 24.9849V23.6174C138.717 23.0666 138.489 22.8767 137.938 23.0096C137.521 23.1236 137.122 23.2186 136.704 23.3135C135.431 23.6174 134.102 23.6744 132.81 23.4465C131.519 23.1996 130.645 22.4588 130.303 21.1673C130.208 20.7875 130.132 20.4076 130.094 20.0088C130.189 20.0088 130.284 20.0088 130.36 20.0467C131.614 20.2747 132.886 20.3696 134.159 20.2747ZM130.189 17.2358C130.322 16.4951 130.493 15.7733 130.949 15.1656C131.652 14.2349 132.62 13.969 133.722 14.083C133.769 14.083 133.812 14.0925 133.855 14.102C133.898 14.1115 133.94 14.121 133.988 14.121C135.317 14.3299 135.64 15.3935 135.393 16.4191C135.203 17.1788 134.577 17.4637 133.874 17.5967C133.494 17.6726 133.095 17.7106 132.696 17.6916C131.918 17.6726 131.158 17.6157 130.398 17.5017C130.227 17.4827 130.151 17.4067 130.189 17.2358Z" fill="#232F3E"/>
</svg>
