<svg width="160" height="64" viewBox="0 0 160 64" fill="none" xmlns="http://www.w3.org/2000/svg">
<path d="M41.2545 33.5738C43.7672 33.5738 44.7745 34.8867 44.7745 37.0938V38.452C44.7745 40.2856 44.0275 41.3269 42.409 41.6891C44.0954 42.04 44.7745 43.1831 44.7745 44.8809V47.3143C44.7745 47.9595 44.8198 48.6725 45.1707 49.1932H44.0501C43.7672 48.7291 43.6993 48.1632 43.6993 47.3143V44.8582C43.6993 42.787 42.4995 42.2097 40.632 42.2097H38.9229V49.1819H37.8477V33.5738H41.2545ZM40.6433 41.2703C42.5674 41.2703 43.6879 40.761 43.6879 38.6558V37.1844C43.6879 35.5093 43.0088 34.5132 41.2319 34.5132H38.9116V41.2703H40.6433Z" fill="#51C8ED"/>
<path d="M53.3765 40.8063V41.7457H48.8944V48.2538H54.282V49.1932H47.8078V33.5738H54.282V34.5132H48.8944V40.8063H53.3765Z" fill="#51C8ED"/>
<path d="M63.2009 37.3428V37.6824H62.1709V37.2862C62.1709 35.6338 61.5144 34.3887 59.7374 34.3887C57.9604 34.3887 57.304 35.6111 57.304 37.2636C57.304 41.0553 63.2348 41.1232 63.2348 45.4242C63.2348 47.6765 62.2048 49.329 59.6922 49.329C57.1795 49.329 56.1495 47.6765 56.1495 45.4242V44.6206H57.1795V45.4921C57.1795 47.1672 57.8586 48.3669 59.6695 48.3669C61.4691 48.3669 62.1596 47.1672 62.1596 45.4921C62.1596 41.7457 56.2287 41.6778 56.2287 37.3315C56.2287 34.9886 57.304 33.4719 59.7261 33.4493C62.1935 33.438 63.2009 35.0905 63.2009 37.3428Z" fill="#51C8ED"/>
<path d="M71.2143 40.8063V41.7457H66.7322V48.2538H72.1197V49.1932H65.6456V33.5738H72.1197V34.5132H66.7322V40.8063H71.2143Z" fill="#51C8ED"/>
<path d="M75.4587 45.7298L74.6324 49.1819H73.6477L77.2357 33.5512H78.8089L82.4648 49.1819H81.3895L80.5633 45.7298H75.4587ZM75.6171 44.8356H80.4048L77.994 34.7396L75.6171 44.8356Z" fill="#51C8ED"/>
<path d="M88.1126 33.5738C90.6253 33.5738 91.6327 34.8867 91.6327 37.0938V38.452C91.6327 40.2856 90.8856 41.3269 89.2671 41.6891C90.9535 42.04 91.6327 43.1831 91.6327 44.8809V47.3143C91.6327 47.9595 91.6779 48.6725 92.0288 49.1932H90.9083C90.6253 48.7291 90.5574 48.1632 90.5574 47.3143V44.8582C90.5574 42.787 89.3577 42.2097 87.4901 42.2097H85.781V49.1819H84.7058V33.5738H88.1126ZM87.5014 41.2703C89.4256 41.2703 90.5461 40.761 90.5461 38.6558V37.1844C90.5461 35.5093 89.867 34.5132 88.09 34.5132H85.7697V41.2703H87.5014Z" fill="#51C8ED"/>
<path d="M101.457 37.3881V38.6784H100.427V37.3202C100.427 35.6451 99.7479 34.3774 97.937 34.3774C96.1374 34.3774 95.4583 35.6451 95.4583 37.3202V45.4355C95.4583 47.1106 96.1374 48.3556 97.937 48.3556C99.7479 48.3556 100.427 47.1106 100.427 45.4355V43.5793H101.457V45.3676C101.457 47.6199 100.427 49.3177 97.9144 49.3177C95.4017 49.3177 94.3717 47.6199 94.3717 45.3676V37.3881C94.3717 35.1357 95.4017 33.438 97.9144 33.438C100.427 33.438 101.457 35.1357 101.457 37.3881Z" fill="#51C8ED"/>
<path d="M104.988 41.8476V49.1819H103.913V33.5738H104.988V40.9081H110.093V33.5738H111.191V49.1819H110.093V41.8476H104.988Z" fill="#51C8ED"/>
<path d="M124.965 41.1798V42.1192H120.721V49.1819H119.646V33.5738H125.882V34.5132H120.721V41.1798H124.965Z" fill="#51C8ED"/>
<path d="M129.142 45.4128C129.142 47.088 129.798 48.3783 131.598 48.3783C133.409 48.3783 134.054 47.088 134.054 45.4128V33.5738H135.061V45.3676C135.061 47.5973 134.077 49.3177 131.564 49.3177C129.051 49.3177 128.044 47.5973 128.044 45.3676V33.5738H129.119V45.4128H129.142Z" fill="#51C8ED"/>
<path d="M139.079 49.1819H138.095V33.5738H139.498L144.422 46.7484V33.5738H145.406V49.1819H144.207L139.068 35.2716V49.1819H139.079Z" fill="#51C8ED"/>
<path d="M152.039 33.5738C154.574 33.5738 155.672 35.1584 155.672 37.456V45.311C155.672 47.6086 154.574 49.1932 152.039 49.1932H148.428V33.5738H152.039ZM152.016 48.2538C153.85 48.2538 154.597 47.0767 154.597 45.3563V37.4107C154.597 35.6903 153.827 34.5132 152.016 34.5132H149.504V48.2538H152.016Z" fill="#51C8ED"/>
<path d="M40.4165 21.8023H43.7441V24.032H40.4165V30.4722H37.8359V14.8641H44.6609V17.0938H40.4165V21.8023Z" fill="#0869A9"/>
<path d="M53.3082 30.4835H50.7049L50.2635 27.6539H47.0944L46.653 30.4835H44.2874L46.902 14.8641H50.671L53.3082 30.4835ZM47.4226 25.526H49.9013L48.6563 17.6371L47.4226 25.526Z" fill="#0869A9"/>
<path d="M56.7942 19.1764V30.4835H54.474V14.8641H57.711L60.3595 24.2018V14.8641H62.6572V30.4722H60.0087L56.7942 19.1764Z" fill="#0869A9"/>
<path d="M71.9835 24.6545V26.7258C71.9835 29.2271 70.6706 30.6533 68.1353 30.6533C65.5999 30.6533 64.287 29.2271 64.287 26.7258V18.6218C64.287 16.1205 65.5999 14.6943 68.1353 14.6943C70.6706 14.6943 71.9835 16.1205 71.9835 18.6218V20.1385H69.5501V18.4634C69.5501 17.3428 69.0294 16.9241 68.2145 16.9241C67.3996 16.9241 66.8789 17.3428 66.8789 18.4634V26.8842C66.8789 28.0048 67.3996 28.4009 68.2145 28.4009C69.0294 28.4009 69.5501 28.0048 69.5501 26.8842V24.6545H71.9835Z" fill="#0869A9"/>
<path d="M73.1154 18.6218C73.1154 16.1205 74.4962 14.6943 77.0315 14.6943C79.5668 14.6943 80.9477 16.1205 80.9477 18.6218V26.7371C80.9477 29.2385 79.5668 30.6646 77.0315 30.6646C74.4962 30.6646 73.1154 29.2385 73.1154 26.7371V18.6218ZM75.696 26.8842C75.696 28.0048 76.2166 28.4235 77.0315 28.4235C77.8464 28.4235 78.3671 28.0048 78.3671 26.8842V18.452C78.3671 17.3315 77.8464 16.9127 77.0315 16.9127C76.2166 16.9127 75.696 17.3315 75.696 18.452V26.8842Z" fill="#0869A9"/>
<path d="M84.6714 19.1764V30.4835H82.3512V14.8641H85.5882L88.2367 24.2018V14.8641H90.5344V30.4722H87.8745L84.6714 19.1764Z" fill="#0869A9"/>
<path d="M92.8546 14.8641H95.4352V30.4722H92.8546V14.8641Z" fill="#0869A9"/>
<path d="M109.753 30.4835H107.15L106.708 27.6539H103.539L103.098 30.4835H100.732L103.358 14.8754H107.127L109.753 30.4835ZM103.867 25.526H106.357L105.112 17.6371L103.867 25.526Z" fill="#0869A9"/>
<path d="M113.239 19.1764V30.4835H110.919V14.8641H114.156L116.804 24.2018V14.8641H119.102V30.4722H116.453L113.239 19.1764Z" fill="#0869A9"/>
<path d="M123.765 21.4514H127.308V23.6811H123.765V28.2538H128.225V30.4835H121.196V14.8641H128.225V17.0938H123.765V21.4514Z" fill="#0869A9"/>
<path d="M135.276 25.9561L137.03 14.8754H140.618V30.4835H138.185V19.2896L136.408 30.4835H133.974L132.05 19.4481V30.4835H129.798V14.8641H133.386L135.276 25.9561Z" fill="#0869A9"/>
<path d="M142.972 14.8641H145.553V30.4722H142.972V14.8641Z" fill="#0869A9"/>
<path d="M156 30.4835H153.397L152.955 27.6539H149.786L149.345 30.4835H146.979L149.605 14.8754H153.374L156 30.4835ZM150.114 25.526H152.604L151.359 17.6371L150.114 25.526Z" fill="#0869A9"/>
<path d="M25.1142 36.7878C25.1142 36.7878 23.9597 33.4036 23.6654 32.7811C22.1714 29.5328 17.9836 26.6352 14.6673 24.1792C12.9582 22.9115 11.2039 21.6099 9.60799 20.2743C5.13723 16.5166 4.09593 13.1777 4.00539 11.0272C3.93748 9.26151 4.51471 7.64298 5.56732 6.61301L6.82367 5.39062L6.85762 7.0997C6.93685 10.6876 9.09866 14.1284 13.4789 17.6484C14.5881 18.5313 15.8671 19.4707 17.2139 20.4667C21.4131 23.5453 25.3632 25.5713 26.3592 30.325C27.0836 33.7206 25.1142 36.7878 25.1142 36.7878Z" fill="#4F86C6"/>
<path d="M20.8255 10.9143C20.8255 13.7439 19.1278 16.0416 17.0338 16.0416C14.9399 16.0416 13.2422 13.7439 13.2422 10.9143C13.2422 8.08474 14.9399 5.78711 17.0338 5.78711C19.1278 5.78711 20.8255 8.08474 20.8255 10.9143Z" fill="#51C8ED"/>
<path d="M13.4904 37.003H17.2933L18.5497 36.0522H12.2793L13.4904 37.003Z" fill="#51C8ED"/>
<path d="M10.6715 34.6939H20.2808L21.3787 33.7432H10.6715L10.2754 34.3204L10.6715 34.6939Z" fill="#51C8ED"/>
<path d="M11.8496 32.3848H22.1607L21.4589 31.4341H12.8117L11.8496 32.3848Z" fill="#51C8ED"/>
<path d="M14.3848 30.0762H20.2251L19.2177 29.1255H15.6072L14.3848 30.0762Z" fill="#51C8ED"/>
<path d="M6.3937 32.1023C7.18599 27.3146 11.3851 25.2886 15.5842 22.1987C16.9311 21.2027 18.2101 20.2632 19.3193 19.3804C22.33 16.9696 24.2768 15.1926 24.7748 12.0234C25.7029 12.861 27.4346 17.2073 24.9106 20.2066C24.1636 21.0895 19.8399 24.6434 18.1422 25.8998C14.8259 28.3559 10.5702 31.2421 9.07616 34.4791C8.7932 35.1016 7.70663 38.5085 7.70663 38.5085C6.68798 36.7768 5.88437 35.1809 6.3937 32.1023Z" fill="#80D2EF"/>
<path d="M13.218 44.145C10.9883 42.4133 9.04152 41.0211 7.97759 39.7761C6.42697 37.9538 5.79314 34.9092 6.27983 32.3173C6.46093 31.3778 6.76653 30.5742 6.76653 30.5742C6.76653 30.5742 7.41167 31.6947 7.98891 32.8266C9.30185 35.4072 12.3012 37.6369 15.459 39.9911C16.8738 41.0437 18.4358 42.1529 19.8506 43.2282C23.7441 46.2162 24.8873 48.6157 25.2042 50.4606C25.5551 52.5206 25.4079 54.4447 23.9026 56.8668C23.0763 51.0945 17.2134 47.2349 13.218 44.145Z" fill="#51C8ED"/>
<path d="M6.43909 58.6095C6.33723 58.2473 5.20539 56.9457 5.0243 54.8631C4.49233 48.6267 7.32193 46.4762 13.0717 41.564C14.4186 40.4095 15.8786 39.3229 17.2934 38.2703C20.4626 35.9161 23.428 33.6637 24.7636 31.1058C24.8541 30.9247 25.952 28.8647 25.952 28.8647C25.952 28.8647 26.3595 30.1324 26.484 30.9473C26.8801 33.5392 26.1897 36.3802 24.8088 37.9987C23.7562 39.2437 21.7642 40.6811 19.5345 42.4129C14.826 46.08 8.46509 50.1207 6.43909 58.6095Z" fill="#0869A9"/>
</svg>
