<svg width="240" height="48" viewBox="0 0 240 48" fill="none" xmlns="http://www.w3.org/2000/svg">
<path d="M35.709 31.7619C35.9604 42.6721 23.8128 43.9996 23.8128 43.9996C34.5877 43.9996 43.9062 37.5747 43.9062 27.9339C43.9062 18.2932 36.7272 16.6048 36.7272 16.6048C39.6401 15.7542 39.9945 12.4805 39.9945 12.4805C39.9945 12.4805 39.5692 13.4729 36.3728 13.402C33.1893 13.3311 22.4402 12.2163 20.1782 22.1341C22.4853 20.6648 35.477 21.4832 35.709 31.7619Z" fill="url(#paint0_linear_3_6871)"/>
<path d="M21.5377 4C21.5377 4 4.80826 7.23505 4.64071 24.4414C4.46671 42.2019 25.7974 46.1974 31.5135 37.446C36.1663 30.3315 29.5029 25.2211 29.5029 25.2211C29.5029 25.2211 31.1269 28.54 28.2527 31.137C25.3785 33.7341 16.2791 33.9468 12.013 26.1814C7.74687 18.4159 12.535 7.50571 21.5377 4Z" fill="#69C9CA"/>
<path d="M40.5933 8.98757C40.5933 8.98757 37.558 8.60091 33.2661 6.42273C28.5553 4.03833 16.0146 4.5281 13.5916 16.0183C11.1685 27.5085 20.4741 30.2023 20.4741 30.2023C20.4741 30.2023 17.2326 26.9479 18.0833 21.7087C19.0757 15.5801 23.6447 10.1991 32.3123 10.4633C40.5933 10.7211 40.5933 8.98757 40.5933 8.98757Z" fill="#00B6AF"/>
<path d="M76.4949 23.6942C73.0988 23.6942 70.7208 21.4194 70.7208 18.165C70.7208 14.8913 73.0988 12.6035 76.5078 12.6035C79.9297 12.6035 82.3141 14.8848 82.3141 18.1457C82.3141 21.4065 79.9233 23.6942 76.4949 23.6942ZM76.5271 14.6077C74.4585 14.6077 73.073 16.0384 73.073 18.165C73.073 20.2852 74.4521 21.7094 76.5078 21.7094C78.5313 21.7094 79.9491 20.2465 79.9491 18.1521C79.9491 16.0319 78.57 14.6077 76.5271 14.6077Z" fill="#067782"/>
<path d="M114.6 23.4687L111.894 19.5505L109.135 23.4687H106.699L110.405 18.1714L106.706 12.8549H109.258L111.939 16.9663L114.703 12.8549H117.133L113.447 18.1714L117.133 23.4687H114.6Z" fill="#067782"/>
<path d="M51.085 23.4687V12.8549H55.7378C58.0384 12.8549 59.411 14.0729 59.411 16.1028C59.411 18.1586 58.0384 19.3894 55.7378 19.3894H53.2825V23.4687H51.085ZM53.2825 17.6494H55.4607C56.4466 17.6494 57.0588 17.0952 57.0588 16.2059C57.0588 15.3166 56.4466 14.7624 55.4607 14.7624H53.2825V17.6494Z" fill="#067782"/>
<path d="M67.3569 23.4687V19.0414H62.6847V23.4687H60.4937V12.8549H62.6847V17.2112H67.3569V12.8549H69.5673V23.4687H67.3569Z" fill="#067782"/>
<path d="M83.661 23.4687V12.8549H90.5822V14.7882H85.8585V17.179H90.0409V19.0028H85.8585V21.5354H90.5822V23.4687H83.661Z" fill="#067782"/>
<path d="M99.2305 23.4687L94.423 16.3928V23.4687H92.2771V12.8549H94.4037L99.1983 19.9307V12.8549H101.357V23.4687H99.2305Z" fill="#067782"/>
<path d="M105.352 23.469V12.8552H103.161V23.469H105.352Z" fill="#067782"/>
<path d="M160.052 23.4622V12.842H166.973V14.7753H162.243V17.1726H166.432V18.9963H162.243V21.5289H166.973V23.4622H160.052Z" fill="#067782"/>
<path d="M126.252 23.6942C124.673 23.6942 123.145 23.2882 122.153 22.6116L122.72 21.0714C123.687 21.6836 124.963 22.0574 126.097 22.0574C127.901 22.0574 128.172 21.168 128.172 20.6332C128.172 19.6407 127.308 19.4023 126.677 19.2283L125.362 18.8545C124.299 18.5774 122.346 18.0619 122.346 15.8386C122.346 13.8473 123.912 12.6035 126.438 12.6035C127.721 12.6035 129.016 12.9129 130.079 13.48L129.525 15.0073C128.668 14.5562 127.579 14.2726 126.664 14.2726C124.872 14.2726 124.679 15.2457 124.679 15.6646C124.679 16.6119 125.504 16.8375 126.161 17.0115L127.792 17.4432C128.694 17.6946 130.576 18.2101 130.576 20.427C130.569 22.4762 128.952 23.6942 126.252 23.6942Z" fill="#067782"/>
<path d="M137.207 23.6942C133.811 23.6942 131.433 21.4194 131.433 18.165C131.433 14.8913 133.811 12.6035 137.22 12.6035C140.642 12.6035 143.026 14.8848 143.026 18.1457C143.026 21.4065 140.635 23.6942 137.207 23.6942ZM137.239 14.6077C135.17 14.6077 133.785 16.0384 133.785 18.1714C133.785 20.2916 135.164 21.7158 137.22 21.7158C139.243 21.7158 140.655 20.253 140.655 18.1521C140.661 16.0319 139.288 14.6077 137.239 14.6077Z" fill="#067782"/>
<path d="M149.799 23.6942C146.409 23.6942 144.135 21.4645 144.135 18.1521C144.135 14.8333 146.409 12.61 149.799 12.61C152.241 12.61 154.194 13.7571 154.922 15.613L152.602 16.2704C152.209 15.2457 151.107 14.5948 149.767 14.5948C147.776 14.5948 146.487 15.9933 146.487 18.1521C146.487 20.3174 147.776 21.7158 149.767 21.7158C151.114 21.7158 152.222 21.0585 152.609 20.0274L154.929 20.6912C154.194 22.5536 152.241 23.6942 149.799 23.6942Z" fill="#067782"/>
<path d="M158.496 23.465V12.8512H156.305V23.465H158.496Z" fill="#067782"/>
<path d="M171.858 23.4687V14.7817H168.533V12.842H177.374V14.7817H174.049V23.4687H171.858Z" fill="#067782"/>
<path d="M182.858 23.4687V18.7708L178.741 12.8549H181.286L183.973 16.9728L186.738 12.8549H189.167L185.049 18.7901V23.4687H182.858Z" fill="#067782"/>
<path d="M51.0527 27.6636H58.1479V29.7903H53.3985V31.6333H57.9482L58.1479 31.6398V33.6955H53.3985V38.3161H51.0527V27.6636Z" fill="#69C9CA"/>
<path d="M65.4816 38.5288C62.1756 38.5288 59.7848 36.2861 59.7848 32.9995C59.7848 29.7258 62.1627 27.4316 65.5009 27.4316C68.8068 27.4316 71.217 29.6743 71.217 32.9802C71.217 36.2861 68.8068 38.5288 65.4816 38.5288ZM65.5138 29.6227C63.6063 29.6227 62.2594 30.9825 62.2594 32.9931C62.2594 34.9844 63.5869 36.3506 65.5009 36.3506C67.3955 36.3506 68.7231 34.9715 68.7231 32.9802C68.7231 30.9889 67.4084 29.6227 65.5138 29.6227Z" fill="#69C9CA"/>
<path d="M72.8474 27.6636H77.5647C79.7235 27.6636 80.9544 28.8752 80.9544 30.686C80.9544 32.4002 79.8073 33.5409 78.0673 33.7084L81.5344 38.3097H78.6924L75.3929 33.7406H75.1932V38.3097H72.8474V27.6636ZM77.12 32.0522C78.048 32.0522 78.4798 31.5882 78.4798 30.8729C78.4798 30.106 78.0158 29.7129 77.12 29.7129H75.1932V32.0522H77.12Z" fill="#69C9CA"/>
<path d="M111.984 27.6636H116.701C118.86 27.6636 120.091 28.8752 120.091 30.686C120.091 32.4002 118.944 33.5409 117.204 33.7084L120.671 38.3097H117.829L114.529 33.7406H114.33V38.3097H111.984V27.6636ZM116.256 32.0522C117.184 32.0522 117.616 31.5882 117.616 30.8729C117.616 30.106 117.152 29.7129 116.256 29.7129H114.33V32.0522H116.256Z" fill="#69C9CA"/>
<path d="M89.2869 38.3097V27.6636H94.075C96.0985 27.6636 97.2456 28.7785 97.2456 30.454C97.2456 31.6849 96.6012 32.5807 95.6023 32.9609C96.8847 33.2766 97.5292 34.2562 97.5292 35.4548C97.5292 37.3623 96.1823 38.3097 94.1072 38.3097H89.2869ZM91.6004 29.6549V32.1618H93.495C94.3392 32.1618 94.9063 31.6656 94.9063 30.918C94.9063 30.1383 94.3586 29.6549 93.5272 29.6549H91.6004ZM95.2028 35.1197C95.2028 34.2884 94.6357 33.8566 93.7915 33.8566H91.6004V36.3184H93.8108C94.7066 36.3184 95.2028 35.8544 95.2028 35.1197Z" fill="#69C9CA"/>
<path d="M109.052 34.3593C109.052 37.0852 107.144 38.5288 104.431 38.5288C101.641 38.5288 99.8298 36.9692 99.8298 34.3593V27.6636H102.188V34.2755C102.188 35.7899 103.168 36.4021 104.431 36.4021C105.875 36.4021 106.706 35.6353 106.706 34.2755V27.6636H109.052V34.3593Z" fill="#69C9CA"/>
<path d="M122.759 38.1099V27.6636H124.937L129.383 34.2562V27.6636H131.716V38.3161H129.545L125.092 31.7558V38.3161H122.765V38.1099H122.759Z" fill="#69C9CA"/>
<path d="M161.889 27.6636H166.606C168.765 27.6636 169.996 28.8752 169.996 30.686C169.996 32.4002 168.848 33.5409 167.109 33.7084L170.576 38.3097H167.734L164.434 33.7406H164.234V38.3097H161.889V27.6636ZM166.161 32.0522C167.089 32.0522 167.521 31.5882 167.521 30.8729C167.521 30.106 167.057 29.7129 166.161 29.7129H164.234V32.0522H166.161Z" fill="#69C9CA"/>
<path d="M216.768 27.6636H221.486C223.645 27.6636 224.875 28.8752 224.875 30.686C224.875 32.4002 223.728 33.5409 221.988 33.7084L225.455 38.3097H222.613L219.314 33.7406H219.114V38.3097H216.768V27.6636ZM221.035 32.0522C221.963 32.0522 222.394 31.5882 222.394 30.8729C222.394 30.106 221.93 29.7129 221.035 29.7129H219.108V32.0522H221.035Z" fill="#69C9CA"/>
<path d="M158.956 34.3593C158.956 37.0852 157.049 38.5288 154.336 38.5288C151.545 38.5288 149.735 36.9692 149.735 34.3593V27.6636H152.093V34.2755C152.093 35.7899 153.073 36.4021 154.336 36.4021C155.779 36.4021 156.611 35.6353 156.611 34.2755V27.6636H158.956V34.3593Z" fill="#69C9CA"/>
<path d="M146.222 30.106C145.443 29.6549 144.412 29.3585 143.529 29.3585C142.349 29.3585 141.769 29.8418 141.769 30.5571C141.769 31.3691 142.485 31.5689 143.252 31.7687L144.598 32.136C145.514 32.368 147.473 32.9351 147.473 35.2228C147.473 37.2528 145.913 38.5288 143.207 38.5288C141.692 38.5288 140.197 38.1292 139.205 37.4139L139.076 37.3108L139.14 37.1497L139.688 35.7384L139.778 35.5322L139.959 35.6546C140.803 36.2668 142.001 36.6341 143.097 36.6341C144.328 36.6341 144.972 36.183 144.972 35.3904C144.972 34.5075 144.205 34.3077 143.58 34.1273L142.382 33.7922C141.318 33.4957 139.327 32.9609 139.327 30.7054C139.327 28.6303 140.99 27.4316 143.361 27.4316C144.708 27.4316 146.003 27.799 146.964 28.3467L147.118 28.4305L147.047 28.6109L146.5 30.0223L146.416 30.222L146.222 30.106Z" fill="#69C9CA"/>
<path d="M234.11 30.106C233.33 29.6549 232.299 29.3585 231.416 29.3585C230.237 29.3585 229.657 29.8418 229.657 30.5571C229.657 31.3691 230.372 31.5689 231.139 31.7687L232.486 32.136C233.401 32.368 235.36 32.9351 235.36 35.2228C235.36 37.2528 233.801 38.5288 231.094 38.5288C229.58 38.5288 228.085 38.1292 227.092 37.4139L226.963 37.3108L227.028 37.1497L227.576 35.7384L227.666 35.5322L227.846 35.6546C228.69 36.2668 229.889 36.6341 230.985 36.6341C232.215 36.6341 232.86 36.183 232.86 35.3904C232.86 34.5075 232.093 34.3077 231.468 34.1273L230.269 33.7922C229.206 33.4957 227.215 32.9609 227.215 30.7054C227.215 28.6303 228.877 27.4316 231.249 27.4316C232.596 27.4316 233.891 27.799 234.851 28.3467L235.006 28.4305L234.935 28.6109L234.387 30.0223L234.303 30.222L234.11 30.106Z" fill="#69C9CA"/>
<path d="M178.902 38.3097H176.511L171.581 27.6636H174.262L177.709 35.4548L181.144 27.6636H183.767L178.985 38.1614L178.902 38.3097Z" fill="#69C9CA"/>
<path d="M197.506 38.3097H195.116L190.186 27.6636H192.866L196.314 35.4548L199.749 27.6636H202.372L197.59 38.1614L197.506 38.3097Z" fill="#69C9CA"/>
<path d="M208.649 38.5288C205.343 38.5288 202.952 36.2861 202.952 32.9995C202.952 29.7258 205.33 27.4316 208.668 27.4316C211.974 27.4316 214.384 29.6743 214.384 32.9802C214.384 36.2861 211.967 38.5288 208.649 38.5288ZM208.681 29.6227C206.773 29.6227 205.426 30.9825 205.426 32.9931C205.426 34.9844 206.754 36.3506 208.668 36.3506C210.563 36.3506 211.89 34.9715 211.89 32.9802C211.89 30.9889 210.575 29.6227 208.681 29.6227Z" fill="#69C9CA"/>
<path d="M188.149 27.6636H185.803V38.3097H188.149V27.6636Z" fill="#69C9CA"/>
<defs>
<linearGradient id="paint0_linear_3_6871" x1="42.075" y1="18.4831" x2="32.4378" y2="26.5141" gradientUnits="userSpaceOnUse">
<stop stop-color="#067781"/>
<stop offset="1" stop-color="#075E66"/>
</linearGradient>
</defs>
</svg>
