<svg width="280" height="48" viewBox="0 0 280 48" fill="none" xmlns="http://www.w3.org/2000/svg">
<path d="M154.369 30.1603H140.918C140.724 30.1596 140.544 30.2631 140.447 30.4315C140.349 30.6013 140.349 30.8102 140.447 30.98C140.544 31.1532 142.919 35.238 147.647 35.238C152.376 35.238 154.744 31.1535 154.841 30.98C154.933 30.8079 154.93 30.6008 154.833 30.4315C154.738 30.2647 154.561 30.1614 154.369 30.1603H154.369ZM154.586 15.7309C155.208 15.7309 155.703 15.2212 155.703 14.5973C155.703 13.9699 155.208 13.4638 154.586 13.4638C151.941 13.4638 149.798 15.6294 149.798 18.2885V23.8463C149.798 24.4698 150.3 24.9758 150.922 24.9758H154.586C155.208 24.9758 155.703 24.4698 155.703 23.8463V20.1475C155.703 19.5206 155.208 19.0141 154.586 19.0141H152.031V18.2888C152.031 16.8836 153.178 15.7312 154.587 15.7312L154.586 15.7309ZM140.694 24.9761C140.072 24.9761 139.577 24.47 139.577 23.8465V18.2885C139.577 15.6294 141.72 13.4638 144.366 13.4638C144.988 13.4638 145.489 13.9699 145.489 14.5973C145.489 15.2212 144.988 15.7307 144.366 15.7307C142.964 15.7307 141.818 16.8834 141.818 18.2885V19.0141H144.366C144.988 19.0141 145.489 19.5204 145.489 20.1473V23.8465C145.489 24.47 144.988 24.9761 144.366 24.9761H140.694ZM7.74542 5.68467C6.39299 5.68467 5.29492 6.7878 5.29492 8.15178V40.3912C5.29492 41.7556 6.39299 42.8585 7.74542 42.8585C9.09425 42.8585 10.1882 41.7559 10.1882 40.3912V8.15178C10.1882 6.7878 9.09425 5.68467 7.74542 5.68467ZM252.087 10.6153H262.791C266.662 10.6153 269.813 13.7925 269.813 17.6997C269.813 21.6063 266.662 24.7836 262.791 24.7836H252.087V10.6153ZM267.453 28.7547C271.713 26.9217 274.706 22.6567 274.706 17.6994C274.706 11.072 269.363 5.68107 262.791 5.68107H249.641C248.292 5.68107 247.194 6.78371 247.194 8.14769V40.3917C247.194 41.7561 248.292 42.8585 249.641 42.8585C250.989 42.8585 252.087 41.7564 252.087 40.3919V29.718H262.451L268.404 41.5097C268.694 42.0919 269.205 42.5339 269.823 42.737C270.441 42.9402 271.115 42.8875 271.694 42.5909C272.896 41.9713 273.376 40.4862 272.766 39.2731L267.453 28.7547ZM31.387 6.39121C30.9252 5.93364 30.2998 5.67948 29.6498 5.68522C28.9997 5.69096 28.3789 5.95612 27.9253 6.42177L12.2118 22.5432C11.2786 23.5029 11.2786 25.0442 12.2118 26.0039L27.9253 42.1219C28.4052 42.6133 29.0342 42.8583 29.6714 42.8583C30.2894 42.8583 30.9076 42.6249 31.3872 42.1517C32.3462 41.1961 32.3619 39.6322 31.4173 38.6616L17.3898 24.2734L31.4176 9.88227C32.3619 8.90741 32.3465 7.3473 31.3872 6.39121H31.387ZM62.9194 5.68082C61.5708 5.68082 60.4727 6.78395 60.4727 8.14817V28.5056C60.4727 33.6998 56.2838 37.9238 51.1328 37.9238C45.9846 37.9238 41.7954 33.6998 41.7954 28.5056V8.14817C41.7954 6.78395 40.6976 5.68082 39.3449 5.68082C37.9964 5.68082 36.9019 6.78395 36.9019 8.14817V28.5056C36.9019 36.421 43.2865 42.8585 51.1328 42.8585C58.9819 42.8585 65.366 36.4212 65.366 28.5056V8.14817C65.366 6.78395 64.2684 5.68082 62.9194 5.68082ZM82.687 21.1794C74.01 19.1315 74.6993 15.3076 74.9539 13.8645C75.2239 12.3838 76.1451 11.3401 77.7829 10.6677C81.0232 9.34178 86.1942 9.97275 89.0829 12.0471C89.6111 12.4266 90.269 12.579 90.9102 12.4704C91.5514 12.3618 92.1225 12.0013 92.4963 11.4691C93.2791 10.358 93.0245 8.8203 91.9226 8.02713C87.7113 5.00076 80.694 4.15031 75.9434 6.09618C72.7654 7.39976 70.7052 9.84449 70.1431 12.9881C69.4763 16.6755 70.0832 23.2728 81.5707 25.9851C85.2579 26.8546 87.9324 28.4782 88.9065 30.4438C89.5361 31.7168 89.4834 33.1566 88.7458 34.8448C87.9772 36.6099 86.0029 37.3576 84.4818 37.6712C80.7084 38.4453 75.8604 37.3915 73.6575 35.321C72.668 34.388 71.117 34.4364 70.1994 35.4382C69.2739 36.4359 69.3266 37.9963 70.3154 38.9259C72.9235 41.3812 77.4794 42.8583 81.8775 42.8583C83.0993 42.8583 84.3128 42.7452 85.4672 42.5074C89.2141 41.7287 91.9712 39.7152 93.2228 36.833C94.5495 33.8059 94.568 30.8322 93.2829 28.2407C91.6345 24.9082 87.8691 22.399 82.687 21.1794ZM122.436 5.68082H98.697C97.3446 5.68082 96.2503 6.78395 96.2503 8.14817C96.2503 9.51216 97.3448 10.6148 98.697 10.6148H108.12V40.3912C108.12 41.7556 109.214 42.8585 110.566 42.8585C111.92 42.8585 113.013 41.7559 113.013 40.3912V10.615H122.436C123.789 10.615 124.883 9.51216 124.883 8.14817C124.883 6.78395 123.789 5.68082 122.436 5.68082H122.436ZM207.948 5.87358C207.04 5.49601 205.995 5.68467 205.287 6.38375L191.372 20.0915L177.456 6.38375C176.753 5.68467 175.706 5.49601 174.796 5.87358C173.89 6.25862 173.298 7.15454 173.298 8.14817V40.3912C173.298 41.7556 174.395 42.8585 175.748 42.8585C177.097 42.8585 178.191 41.7559 178.191 40.3912V14.0082L189.663 25.3053C190.611 26.2425 192.136 26.2425 193.084 25.3053L204.552 14.0082V40.3912C204.552 41.7556 205.647 42.8585 206.999 42.8585C208.352 42.8585 209.445 41.7559 209.445 40.3912V8.14817C209.445 7.1543 208.854 6.25862 207.948 5.87358ZM240.327 10.6153C241.675 10.6153 242.773 9.51191 242.773 8.14793C242.773 6.78371 241.675 5.68131 240.327 5.68131H217.513C216.16 5.68131 215.066 6.78371 215.066 8.14793V40.3914C215.066 41.7559 216.16 42.8583 217.513 42.8583H240.327C241.675 42.8583 242.773 41.7561 242.773 40.3917C242.773 39.0272 241.675 37.9241 240.327 37.9241H219.959V26.3668H236.482C237.835 26.3668 238.932 25.2632 238.932 23.8997C238.932 22.5355 237.835 21.4323 236.483 21.4323H219.959V10.6153H240.327Z" fill="black"/>
<path d="M155.378 4H140.182C133.438 4 127.949 9.53487 127.949 16.336V31.664C127.949 38.4649 133.438 44 140.182 44H150.489L143.693 39.0653H140.182C136.135 39.0653 132.842 35.7451 132.842 31.664V16.336C132.842 12.2554 136.135 8.93421 140.182 8.93421H155.378C159.425 8.93421 162.723 12.2551 162.723 16.336V31.664C162.723 35.7453 159.425 39.0653 155.378 39.0653H152.49V44H155.378C162.123 44 167.616 38.4651 167.616 31.664V16.336C167.616 9.53511 162.123 4 155.378 4Z" fill="#FF655D"/>
</svg>
