<svg width="328" height="48" viewBox="0 0 328 48" fill="none" xmlns="http://www.w3.org/2000/svg">
<path d="M59.8777 30.662C60.0782 30.6281 60.2532 30.5631 60.4057 30.4643C60.5582 30.3683 60.6768 30.2328 60.7671 30.0606C60.8575 29.8883 60.9026 29.6568 60.9026 29.366V17.4538C60.1177 17.4256 59.5502 17.4058 59.2057 17.3917C58.8613 17.3776 58.6523 17.3719 58.5846 17.3719C57.7714 17.386 57.1813 17.6401 56.8171 18.1314C56.4529 18.6255 56.2411 19.2665 56.1875 20.0598H55.9785L56.083 17.0387C56.3992 17.0246 56.6929 17.019 56.9611 17.019C57.2293 17.019 57.4806 17.019 57.7178 17.019C58.2683 17.019 58.7512 17.0246 59.1662 17.0387C59.5813 17.0529 59.9483 17.0642 60.273 17.0698C60.5977 17.0754 60.8885 17.0867 61.1511 17.1009C61.4137 17.115 61.6734 17.1206 61.936 17.1206C62.1986 17.1206 62.4612 17.115 62.7209 17.1009C62.9835 17.0867 63.28 17.0754 63.6103 17.0698C63.9407 17.0642 64.3162 17.0529 64.7369 17.0387C65.1576 17.0246 65.6573 17.019 66.2362 17.019C66.4846 17.019 66.7472 17.019 67.0211 17.019C67.295 17.019 67.5942 17.0246 67.9105 17.0387L68.0347 20.0598H67.8286C67.8004 19.7126 67.7382 19.3766 67.6422 19.049C67.5462 18.7215 67.3994 18.4307 67.2074 18.1738C67.0154 17.9168 66.7698 17.7107 66.4733 17.5583C66.1769 17.4058 65.8211 17.3296 65.4089 17.3296C65.3411 17.3296 65.1181 17.3409 64.7482 17.3606C64.3755 17.3804 63.7967 17.4114 63.0118 17.4538V29.366C63.0118 29.6568 63.0569 29.8883 63.1473 30.0606C63.2376 30.2328 63.359 30.3683 63.5087 30.4643C63.6612 30.5603 63.8362 30.6252 64.0367 30.662C64.2371 30.6958 64.4461 30.7128 64.6691 30.7128V30.9189C64.2541 30.9189 63.9237 30.9161 63.6753 30.9076C63.4268 30.9019 63.2122 30.8907 63.0344 30.8765C62.8536 30.8624 62.6871 30.8511 62.5289 30.8455C62.3708 30.8398 62.1817 30.8342 61.9586 30.8342C61.7243 30.8342 61.5294 30.837 61.3798 30.8455C61.2273 30.8511 61.0636 30.8624 60.8829 30.8765C60.7022 30.8907 60.4904 30.9019 60.2419 30.9076C59.9935 30.9132 59.6631 30.9189 59.2481 30.9189V30.7128C59.4683 30.7128 59.6773 30.6958 59.8777 30.662Z" fill="#00263A"/>
<path d="M79.8481 17.0811C80.2631 17.0811 80.5935 17.0839 80.8419 17.0924C81.0904 17.1009 81.305 17.1093 81.4829 17.1234C81.6636 17.1376 81.8273 17.1489 81.9798 17.1545C82.1323 17.1602 82.3243 17.1658 82.5586 17.1658C82.7788 17.1658 82.968 17.163 83.1289 17.1545C83.2871 17.1489 83.4565 17.1376 83.6372 17.1234C83.815 17.1093 84.0296 17.1009 84.2781 17.0924C84.5266 17.0867 84.8569 17.0811 85.2719 17.0811V17.2872C85.0517 17.2872 84.84 17.3041 84.6423 17.338C84.4418 17.3719 84.2668 17.4369 84.1143 17.5357C83.9619 17.6317 83.8433 17.7672 83.7529 17.9394C83.6626 18.1117 83.6174 18.3432 83.6174 18.634V29.3688C83.6174 29.6596 83.6626 29.8883 83.7529 30.0606C83.8433 30.2328 83.9619 30.3683 84.1143 30.4643C84.2668 30.5603 84.4418 30.6252 84.6423 30.662C84.8428 30.6958 85.0517 30.7128 85.2719 30.7128V30.9189C84.8569 30.9189 84.5266 30.9161 84.2781 30.9076C84.0296 30.9019 83.815 30.8907 83.6372 30.8765C83.4565 30.8624 83.2899 30.8511 83.1289 30.8455C82.9708 30.8398 82.7817 30.8342 82.5586 30.8342C82.3243 30.8342 82.1323 30.837 81.9798 30.8455C81.8273 30.8511 81.6636 30.8624 81.4829 30.8765C81.3022 30.8907 81.0904 30.9019 80.8419 30.9076C80.5935 30.9132 80.2631 30.9189 79.8481 30.9189V30.7128C80.0683 30.7128 80.2801 30.6958 80.4777 30.662C80.6782 30.6281 80.8532 30.5631 81.0057 30.4643C81.1582 30.3683 81.2796 30.2328 81.3671 30.0606C81.4575 29.8883 81.5026 29.6568 81.5026 29.3688V24.0099H75.0482V29.3688C75.0482 29.6596 75.0934 29.8883 75.1837 30.0606C75.2741 30.2328 75.3926 30.3683 75.5451 30.4643C75.6976 30.5603 75.8726 30.6252 76.0731 30.662C76.2736 30.6958 76.4825 30.7128 76.7027 30.7128V30.9189C76.2877 30.9189 75.9573 30.9161 75.7089 30.9076C75.4604 30.9019 75.2458 30.8907 75.0679 30.8765C74.8872 30.8624 74.7207 30.8511 74.5597 30.8455C74.4016 30.8398 74.2124 30.8342 73.9894 30.8342C73.755 30.8342 73.563 30.837 73.4106 30.8455C73.2581 30.8511 73.0943 30.8624 72.9136 30.8765C72.7329 30.8907 72.5212 30.9019 72.2727 30.9076C72.0243 30.9132 71.6939 30.9189 71.2789 30.9189V30.7128C71.4991 30.7128 71.7109 30.6958 71.9085 30.662C72.109 30.6281 72.284 30.5631 72.4365 30.4643C72.5889 30.3683 72.7104 30.2328 72.7979 30.0606C72.8882 29.8883 72.9334 29.6568 72.9334 29.3688V18.6312C72.9334 18.3404 72.8882 18.1117 72.7979 17.9366C72.7075 17.7644 72.5861 17.6288 72.4365 17.5328C72.284 17.4369 72.109 17.3719 71.9085 17.3352C71.708 17.3013 71.4991 17.2844 71.2789 17.2844V17.0783C71.6939 17.0783 72.0243 17.0811 72.2727 17.0896C72.5212 17.098 72.7358 17.1065 72.9136 17.1206C73.0943 17.1347 73.2581 17.146 73.4106 17.1517C73.563 17.1573 73.755 17.163 73.9894 17.163C74.2096 17.163 74.3988 17.1602 74.5597 17.1517C74.7178 17.146 74.8872 17.1347 75.0679 17.1206C75.2458 17.1065 75.4604 17.098 75.7089 17.0896C75.9573 17.0839 76.2877 17.0783 76.7027 17.0783V17.2844C76.4825 17.2844 76.2707 17.3013 76.0731 17.3352C75.8726 17.3691 75.6976 17.434 75.5451 17.5328C75.3926 17.6288 75.2712 17.7644 75.1837 17.9366C75.0934 18.1088 75.0482 18.3404 75.0482 18.6312V23.6372H81.5026V18.6312C81.5026 18.3404 81.4575 18.1117 81.3671 17.9366C81.2767 17.7644 81.1553 17.6288 81.0057 17.5328C80.8532 17.4369 80.6782 17.3719 80.4777 17.3352C80.2772 17.3013 80.0683 17.2844 79.8481 17.2844V17.0811Z" fill="#00263A"/>
<path d="M94.0388 23.5751C94.66 23.5751 95.1174 23.4198 95.4138 23.1092C95.7103 22.7986 95.8571 22.361 95.8571 21.7963H96.0632C96.0632 22.1125 96.0604 22.3751 96.0519 22.5812C96.0463 22.7873 96.0378 22.9595 96.0322 23.0979C96.0265 23.2362 96.018 23.352 96.0124 23.4508C96.0068 23.5468 96.0011 23.6541 96.0011 23.7727C96.0011 23.8885 96.0039 23.9929 96.0124 24.0833C96.018 24.1736 96.0265 24.2837 96.0322 24.4136C96.0378 24.5435 96.0463 24.7101 96.0519 24.9106C96.0576 25.111 96.0632 25.368 96.0632 25.687H95.8571C95.8571 25.1506 95.7075 24.7242 95.4138 24.4165C95.1174 24.1059 94.6571 23.9506 94.0388 23.9506H92.6327V28.4117C92.6327 28.9058 92.6779 29.2982 92.7682 29.5947C92.8586 29.8883 93.0167 30.1086 93.2454 30.2526C93.4741 30.3965 93.7734 30.4897 94.1461 30.5293C94.5188 30.5716 94.9875 30.5914 95.5522 30.5914C96.0491 30.5914 96.515 30.5744 96.947 30.5405C97.3818 30.5067 97.7658 30.4078 98.0961 30.2441C98.4265 30.0803 98.7003 29.8234 98.9121 29.4733C99.1267 29.1232 99.2594 28.6432 99.3158 28.0277H99.5445L99.378 30.9245C98.7568 30.9387 98.2062 30.9471 97.7234 30.9556C97.2406 30.9612 96.7154 30.9669 96.1507 30.9669C94.979 30.9669 94.0331 30.9499 93.316 30.9161C92.5988 30.8822 92.02 30.8652 91.5796 30.8652C91.3593 30.8652 91.1702 30.8681 91.012 30.8765C90.8539 30.8822 90.6845 30.8907 90.5038 30.8963C90.3231 30.9019 90.1114 30.9104 89.8629 30.9161C89.6144 30.9217 89.2841 30.9274 88.869 30.9274V30.7212C89.0893 30.7212 89.301 30.7043 89.4987 30.6704C89.6991 30.6365 89.8742 30.5716 90.0267 30.4728C90.1791 30.3768 90.3005 30.2413 90.3881 30.069C90.4784 29.8968 90.5236 29.6653 90.5236 29.3773V18.6312C90.5236 18.3404 90.4784 18.1117 90.3881 17.9366C90.2977 17.7644 90.1763 17.6288 90.0267 17.5328C89.8742 17.4369 89.6991 17.3719 89.4987 17.3352C89.2982 17.3013 89.0893 17.2844 88.869 17.2844V17.0783C89.2841 17.0783 89.6088 17.0811 89.8516 17.0896C90.0944 17.098 90.3005 17.1037 90.4728 17.1093C90.645 17.115 90.8059 17.1234 90.9584 17.1291C91.1109 17.1347 91.2972 17.1404 91.5174 17.1404C91.9861 17.1404 92.5537 17.1206 93.2228 17.0783C93.892 17.0359 94.6402 17.0162 95.4675 17.0162C96.0067 17.0162 96.4924 17.0218 96.9244 17.0359C97.3592 17.05 97.8505 17.0642 98.4039 17.0783L98.5281 19.7662H98.322C98.2796 19.2467 98.1695 18.8288 97.9916 18.5154C97.8109 18.202 97.571 17.962 97.266 17.7983C96.9639 17.6345 96.611 17.5244 96.21 17.4707C95.8091 17.4171 95.3686 17.3889 94.8858 17.3889C94.7616 17.3889 94.6176 17.3917 94.451 17.4001C94.2844 17.4058 94.1207 17.4143 93.9541 17.4199C93.7875 17.4256 93.6294 17.4369 93.4798 17.451C93.3273 17.4651 93.2031 17.4792 93.1071 17.4933C92.7908 17.5357 92.6327 17.7192 92.6327 18.0495V23.5751H94.0388Z" fill="#00263A"/>
<path d="M118.343 17.0811C118.758 17.0811 119.089 17.0839 119.337 17.0924C119.585 17.1009 119.8 17.1093 119.978 17.1234C120.159 17.1376 120.322 17.1489 120.475 17.1545C120.627 17.1602 120.819 17.1658 121.054 17.1658C121.274 17.1658 121.463 17.163 121.624 17.1545C121.782 17.1489 121.952 17.1376 122.132 17.1234C122.31 17.1093 122.525 17.1009 122.773 17.0924C123.022 17.0867 123.352 17.0811 123.767 17.0811V17.2872C123.547 17.2872 123.335 17.3041 123.137 17.338C122.937 17.3719 122.762 17.4369 122.609 17.5357C122.457 17.6317 122.338 17.7672 122.248 17.9394C122.158 18.1117 122.112 18.3432 122.112 18.634V29.3688C122.112 29.6596 122.158 29.8883 122.248 30.0606C122.338 30.2328 122.457 30.3683 122.609 30.4643C122.762 30.5603 122.937 30.6252 123.137 30.662C123.338 30.6958 123.547 30.7128 123.767 30.7128V30.9189C123.352 30.9189 123.022 30.9161 122.773 30.9076C122.525 30.9019 122.31 30.8907 122.132 30.8765C121.952 30.8624 121.785 30.8511 121.624 30.8455C121.466 30.8398 121.277 30.8342 121.054 30.8342C120.819 30.8342 120.627 30.837 120.475 30.8455C120.322 30.8511 120.159 30.8624 119.978 30.8765C119.797 30.8907 119.585 30.9019 119.337 30.9076C119.089 30.9132 118.758 30.9189 118.343 30.9189V30.7128C118.563 30.7128 118.775 30.6958 118.973 30.662C119.17 30.6281 119.348 30.5631 119.501 30.4643C119.653 30.3683 119.775 30.2328 119.862 30.0606C119.953 29.8883 119.998 29.6568 119.998 29.3688V24.0099H113.543V29.3688C113.543 29.6596 113.588 29.8883 113.679 30.0606C113.769 30.2328 113.888 30.3683 114.04 30.4643C114.193 30.5603 114.368 30.6252 114.568 30.662C114.769 30.6958 114.978 30.7128 115.198 30.7128V30.9189C114.783 30.9189 114.452 30.9161 114.204 30.9076C113.956 30.9019 113.741 30.8907 113.563 30.8765C113.382 30.8624 113.216 30.8511 113.055 30.8455C112.897 30.8398 112.708 30.8342 112.484 30.8342C112.25 30.8342 112.058 30.837 111.906 30.8455C111.753 30.8511 111.589 30.8624 111.409 30.8765C111.228 30.8907 111.016 30.9019 110.768 30.9076C110.519 30.9132 110.189 30.9189 109.774 30.9189V30.7128C109.994 30.7128 110.206 30.6958 110.404 30.662C110.601 30.6281 110.779 30.5631 110.932 30.4643C111.084 30.3683 111.205 30.2328 111.293 30.0606C111.383 29.8883 111.429 29.6568 111.429 29.3688V18.6312C111.429 18.3404 111.383 18.1117 111.293 17.9366C111.203 17.7644 111.081 17.6288 110.932 17.5328C110.779 17.4369 110.604 17.3719 110.404 17.3352C110.203 17.3013 109.994 17.2844 109.774 17.2844V17.0783C110.189 17.0783 110.519 17.0811 110.768 17.0896C111.016 17.098 111.231 17.1065 111.409 17.1206C111.589 17.1347 111.753 17.146 111.906 17.1517C112.058 17.1573 112.25 17.163 112.484 17.163C112.705 17.163 112.894 17.1602 113.055 17.1517C113.213 17.146 113.382 17.1347 113.563 17.1206C113.741 17.1065 113.956 17.098 114.204 17.0896C114.452 17.0839 114.783 17.0783 115.198 17.0783V17.2844C114.978 17.2844 114.766 17.3013 114.568 17.3352C114.368 17.3691 114.193 17.434 114.04 17.5328C113.888 17.6288 113.766 17.7644 113.679 17.9366C113.588 18.1088 113.543 18.3404 113.543 18.6312V23.6372H119.998V18.6312C119.998 18.3404 119.953 18.1117 119.862 17.9366C119.772 17.7644 119.65 17.6288 119.501 17.5328C119.348 17.4369 119.173 17.3719 118.973 17.3352C118.772 17.3013 118.563 17.2844 118.343 17.2844V17.0811Z" fill="#00263A"/>
<path d="M126.495 30.7128C127.488 30.7128 128.177 30.1961 128.564 29.1627L133.197 16.8129H133.59L138.266 29.0582C138.5 29.6653 138.762 30.0916 139.05 30.3401C139.341 30.5885 139.734 30.7128 140.231 30.7128V30.9189C139.816 30.9189 139.488 30.9161 139.248 30.9076C139.005 30.9019 138.799 30.8935 138.627 30.8878C138.455 30.8822 138.297 30.8737 138.15 30.8681C138.006 30.8624 137.828 30.8568 137.622 30.8568C137.416 30.8568 137.238 30.8596 137.094 30.8681C136.95 30.8737 136.789 30.8822 136.617 30.8878C136.444 30.8935 136.227 30.9019 135.964 30.9076C135.702 30.9132 135.352 30.9189 134.908 30.9189V30.7128C135.075 30.7128 135.236 30.7015 135.394 30.6817C135.552 30.662 135.702 30.6196 135.84 30.5575C135.979 30.4954 136.089 30.405 136.171 30.2893C136.252 30.1735 136.295 30.0239 136.295 29.8431C136.295 29.6907 136.269 29.5326 136.221 29.3688C136.173 29.2022 136.123 29.0526 136.066 28.9142L134.722 25.3764H130.377L129.01 29.1401C128.928 29.3886 128.886 29.6032 128.886 29.781C128.886 29.973 128.928 30.134 129.01 30.2554C129.092 30.3796 129.197 30.4756 129.321 30.5462C129.445 30.6168 129.586 30.6591 129.744 30.6817C129.902 30.7015 130.058 30.7128 130.21 30.7128V30.9189C129.919 30.9189 129.685 30.9161 129.507 30.9076C129.326 30.9019 129.177 30.8935 129.053 30.8878C128.928 30.8822 128.815 30.8737 128.711 30.8681C128.606 30.8624 128.488 30.8568 128.35 30.8568C128.197 30.8568 128.07 30.8596 127.966 30.8681C127.861 30.8737 127.748 30.8822 127.624 30.8878C127.5 30.8935 127.347 30.9019 127.169 30.9076C126.989 30.9132 126.763 30.9189 126.486 30.9189V30.7128H126.495ZM134.603 25.0037L132.619 19.3992L130.509 25.0037H134.603Z" fill="#00263A"/>
<path d="M151.059 17.835C151.053 18.0891 151.047 18.3432 151.047 18.5888C151.047 18.8514 151.064 19.1479 151.098 19.4782C151.132 19.8086 151.149 20.1191 151.149 20.41H150.901C150.858 20.0118 150.748 19.6222 150.57 19.2382C150.389 18.8542 150.161 18.5098 149.878 18.1992C149.596 17.8914 149.266 17.6458 148.885 17.4594C148.506 17.2759 148.088 17.1827 147.634 17.1827C147.275 17.1827 146.939 17.2505 146.631 17.3889C146.321 17.5272 146.055 17.7079 145.835 17.9366C145.615 18.1625 145.443 18.4335 145.319 18.7498C145.194 19.066 145.132 19.3963 145.132 19.7408C145.132 20.249 145.262 20.6725 145.525 21.0085C145.787 21.3445 146.118 21.6297 146.519 21.864C146.919 22.0984 147.351 22.3073 147.82 22.4937C148.289 22.68 148.729 22.8748 149.144 23.081C149.571 23.3012 149.974 23.5355 150.356 23.784C150.734 24.0325 151.061 24.3148 151.338 24.631C151.615 24.9473 151.835 25.3171 152.002 25.7378C152.168 26.1585 152.25 26.6583 152.25 27.2371C152.25 27.8159 152.132 28.3467 151.897 28.8295C151.663 29.3123 151.338 29.7274 150.926 30.0718C150.511 30.4163 150.022 30.6845 149.458 30.8794C148.893 31.0714 148.272 31.1702 147.597 31.1702C146.908 31.1702 146.29 31.0572 145.745 30.8285C145.2 30.5998 144.658 30.309 144.121 29.9504L143.647 30.7579H143.441C143.441 30.3316 143.447 29.9928 143.461 29.7443C143.475 29.4959 143.48 29.2333 143.48 28.9594C143.48 28.6686 143.475 28.3552 143.461 28.0192C143.447 27.6804 143.441 27.2907 143.441 26.8503H143.689C143.718 27.3754 143.825 27.8752 144.011 28.3495C144.198 28.8239 144.452 29.2418 144.776 29.6003C145.101 29.9589 145.491 30.2497 145.945 30.47C146.4 30.6902 146.917 30.8003 147.495 30.8003C147.922 30.8003 148.326 30.7325 148.707 30.5942C149.085 30.4558 149.418 30.261 149.701 30.0041C149.983 29.75 150.203 29.4479 150.364 29.1034C150.522 28.7589 150.601 28.3806 150.601 27.9655C150.601 27.5392 150.497 27.158 150.291 26.8277C150.085 26.4973 149.819 26.2037 149.494 25.9496C149.17 25.6955 148.808 25.4668 148.407 25.2663C148.006 25.0658 147.622 24.8767 147.25 24.696C146.809 24.4899 146.375 24.2612 145.945 24.0127C145.519 23.7642 145.135 23.4762 144.799 23.1431C144.46 22.8127 144.189 22.4287 143.98 21.9939C143.774 21.5591 143.67 21.0452 143.67 20.4523C143.67 19.9554 143.777 19.4867 143.992 19.0462C144.206 18.6058 144.491 18.219 144.85 17.8886C145.208 17.5583 145.621 17.2957 146.089 17.1037C146.558 16.9117 147.049 16.8129 147.558 16.8129C148.083 16.8129 148.585 16.906 149.068 17.0924C149.551 17.2787 150.005 17.5441 150.432 17.8886L150.867 17.1037H151.073C151.067 17.3352 151.064 17.5808 151.059 17.835Z" fill="#00263A"/>
<path d="M159.351 30.662C159.552 30.6281 159.727 30.5631 159.879 30.4643C160.032 30.3683 160.15 30.2328 160.241 30.0606C160.331 29.8883 160.376 29.6568 160.376 29.366V17.4538C159.591 17.4256 159.024 17.4058 158.679 17.3917C158.335 17.3776 158.126 17.3719 158.058 17.3719C157.245 17.386 156.655 17.6401 156.291 18.1314C155.926 18.6255 155.715 19.2665 155.661 20.0598H155.455L155.559 17.0387C155.875 17.0246 156.169 17.019 156.437 17.019C156.706 17.019 156.957 17.019 157.194 17.019C157.745 17.019 158.227 17.0246 158.642 17.0387C159.058 17.0529 159.425 17.0642 159.749 17.0698C160.074 17.0754 160.365 17.0867 160.627 17.1009C160.89 17.115 161.15 17.1206 161.412 17.1206C161.675 17.1206 161.937 17.115 162.197 17.1009C162.46 17.0867 162.756 17.0754 163.087 17.0698C163.417 17.0642 163.792 17.0529 164.213 17.0387C164.634 17.0246 165.134 17.019 165.712 17.019C165.961 17.019 166.223 17.019 166.497 17.019C166.771 17.019 167.07 17.0246 167.387 17.0387L167.511 20.0598H167.305C167.277 19.7126 167.214 19.3766 167.118 19.049C167.022 18.7215 166.876 18.4307 166.684 18.1738C166.492 17.9168 166.246 17.7107 165.95 17.5583C165.653 17.4058 165.297 17.3296 164.885 17.3296C164.817 17.3296 164.594 17.3409 164.224 17.3606C163.852 17.3804 163.273 17.4114 162.488 17.4538V29.366C162.488 29.6568 162.533 29.8883 162.624 30.0606C162.714 30.2328 162.835 30.3683 162.985 30.4643C163.137 30.5603 163.312 30.6252 163.513 30.662C163.713 30.6958 163.922 30.7128 164.145 30.7128V30.9189C163.73 30.9189 163.4 30.9161 163.152 30.9076C162.903 30.9019 162.688 30.8907 162.511 30.8765C162.33 30.8624 162.163 30.8511 162.005 30.8455C161.847 30.8398 161.658 30.8342 161.435 30.8342C161.201 30.8342 161.006 30.837 160.856 30.8455C160.704 30.8511 160.54 30.8624 160.359 30.8765C160.178 30.8907 159.967 30.9019 159.718 30.9076C159.47 30.9132 159.139 30.9189 158.724 30.9189V30.7128C158.942 30.7128 159.151 30.6958 159.351 30.662Z" fill="#00263A"/>
<path d="M170.761 17.0811C171.176 17.0811 171.506 17.0839 171.755 17.0924C172.003 17.1009 172.218 17.1093 172.396 17.1234C172.576 17.1376 172.74 17.1489 172.892 17.1545C173.045 17.1602 173.237 17.1658 173.471 17.1658C173.692 17.1658 173.881 17.163 174.042 17.1545C174.2 17.1489 174.369 17.1376 174.55 17.1234C174.728 17.1093 174.942 17.1009 175.191 17.0924C175.439 17.0867 175.77 17.0811 176.185 17.0811V17.2872C175.964 17.2872 175.753 17.3041 175.555 17.338C175.355 17.3719 175.179 17.4369 175.027 17.5357C174.875 17.6317 174.753 17.7672 174.666 17.9394C174.575 18.1117 174.53 18.3432 174.53 18.634V29.3688C174.53 29.6596 174.575 29.8883 174.666 30.0606C174.756 30.2328 174.875 30.3683 175.027 30.4643C175.179 30.5603 175.355 30.6252 175.555 30.662C175.755 30.6958 175.964 30.7128 176.185 30.7128V30.9189C175.77 30.9189 175.439 30.9161 175.191 30.9076C174.942 30.9019 174.728 30.8907 174.55 30.8765C174.369 30.8624 174.203 30.8511 174.042 30.8455C173.884 30.8398 173.694 30.8342 173.471 30.8342C173.237 30.8342 173.045 30.837 172.892 30.8455C172.74 30.8511 172.576 30.8624 172.396 30.8765C172.215 30.8907 172.003 30.9019 171.755 30.9076C171.506 30.9132 171.176 30.9189 170.761 30.9189V30.7128C170.981 30.7128 171.193 30.6958 171.39 30.662C171.588 30.6281 171.766 30.5631 171.918 30.4643C172.071 30.3683 172.192 30.2328 172.28 30.0606C172.37 29.8883 172.415 29.6568 172.415 29.3688V18.6312C172.415 18.3404 172.37 18.1117 172.28 17.9366C172.189 17.7644 172.068 17.6288 171.918 17.5328C171.766 17.4369 171.591 17.3719 171.39 17.3352C171.19 17.3013 170.981 17.2844 170.761 17.2844V17.0811Z" fill="#00263A"/>
<path d="M180.615 30.662C180.815 30.6281 180.99 30.5631 181.143 30.4643C181.295 30.3683 181.417 30.2328 181.504 30.0606C181.594 29.8883 181.64 29.6568 181.64 29.3688V18.7356L181.185 18.1568C180.993 17.9084 180.781 17.7023 180.553 17.5357C180.324 17.3691 180.033 17.2872 179.674 17.2872V17.0811C179.923 17.0811 180.137 17.0839 180.315 17.0924C180.493 17.1009 180.657 17.1065 180.801 17.1122C180.945 17.1178 181.078 17.1263 181.193 17.1319C181.309 17.1376 181.445 17.1432 181.597 17.1432C181.736 17.1432 181.851 17.1404 181.95 17.1319C182.046 17.1263 182.142 17.1178 182.241 17.1122C182.337 17.1065 182.441 17.098 182.552 17.0924C182.662 17.0867 182.8 17.0811 182.967 17.0811L191.573 27.6719V18.6312C191.573 18.3404 191.527 18.1117 191.437 17.9366C191.347 17.7644 191.225 17.6288 191.076 17.5328C190.923 17.4369 190.748 17.3719 190.548 17.3352C190.347 17.3013 190.138 17.2844 189.915 17.2844V17.0783C190.192 17.0783 190.412 17.0811 190.579 17.0896C190.745 17.098 190.889 17.1037 191.013 17.1093C191.138 17.115 191.253 17.1234 191.366 17.1291C191.477 17.1347 191.606 17.1404 191.759 17.1404C191.911 17.1404 192.041 17.1376 192.151 17.1291C192.261 17.1234 192.38 17.115 192.504 17.1093C192.628 17.1037 192.775 17.0952 192.95 17.0896C193.123 17.0839 193.346 17.0783 193.622 17.0783V17.2844C193.402 17.2844 193.19 17.3013 192.99 17.3352C192.789 17.3691 192.614 17.434 192.462 17.5328C192.309 17.6288 192.191 17.7644 192.1 17.9366C192.01 18.1088 191.965 18.3404 191.965 18.6312V31.1674H191.592L182.035 19.1902V29.3688C182.035 29.6596 182.08 29.8883 182.17 30.0606C182.261 30.2328 182.382 30.3683 182.532 30.4643C182.684 30.5603 182.859 30.6252 183.06 30.662C183.26 30.6958 183.469 30.7128 183.692 30.7128V30.9189C183.416 30.9189 183.192 30.9161 183.02 30.9076C182.848 30.9019 182.698 30.8935 182.577 30.8878C182.453 30.8822 182.334 30.8737 182.224 30.8681C182.114 30.8624 181.981 30.8568 181.832 30.8568C181.679 30.8568 181.549 30.8596 181.439 30.8681C181.329 30.8737 181.21 30.8822 181.086 30.8878C180.962 30.8935 180.818 30.9019 180.651 30.9076C180.485 30.9132 180.265 30.9189 179.991 30.9189V30.7128C180.205 30.7128 180.417 30.6958 180.615 30.662Z" fill="#00263A"/>
<path d="M209.606 27.1976C209.606 27.5703 209.609 27.9797 209.617 28.4286C209.623 28.8775 209.643 29.2389 209.668 29.5156C209.185 29.558 208.734 29.6681 208.313 29.846C207.892 30.0267 207.457 30.2158 207.011 30.4163C206.562 30.6168 206.077 30.7947 205.551 30.9556C205.026 31.1137 204.428 31.1928 203.753 31.1928C202.745 31.1928 201.83 31.0234 201.003 30.6845C200.176 30.3457 199.461 29.8686 198.863 29.2474C198.261 28.6262 197.798 27.8865 197.465 27.0225C197.135 26.1614 196.968 25.207 196.968 24.1567C196.968 23.1233 197.154 22.1577 197.527 21.2598C197.9 20.3648 198.414 19.5912 199.069 18.9418C199.724 18.2952 200.492 17.7841 201.376 17.4114C202.257 17.0387 203.216 16.8524 204.25 16.8524C205.021 16.8524 205.746 16.9653 206.421 17.194C207.096 17.4227 207.737 17.7361 208.344 18.1342L208.841 17.3889H209.047C209.033 17.6373 209.016 17.8491 208.996 18.0213C208.976 18.1935 208.959 18.3488 208.945 18.4872C208.931 18.6255 208.917 18.7554 208.903 18.8796C208.889 19.0039 208.883 19.1422 208.883 19.2947C208.883 19.4754 208.883 19.6222 208.883 19.7408C208.883 19.8594 208.886 19.9836 208.894 20.1135C208.9 20.2434 208.906 20.4071 208.906 20.5991C208.906 20.7911 208.906 21.0537 208.906 21.3841H208.657C208.601 20.122 208.186 19.114 207.406 18.3573C206.627 17.6034 205.563 17.2251 204.21 17.2251C203.632 17.2251 203.053 17.3719 202.474 17.6684C201.895 17.9648 201.373 18.4053 200.913 18.9898C200.449 19.5742 200.074 20.3055 199.786 21.1779C199.495 22.0532 199.351 23.0753 199.351 24.2442C199.351 24.6706 199.379 25.128 199.433 25.6164C199.49 26.1049 199.585 26.5933 199.724 27.0818C199.862 27.5703 200.046 28.039 200.272 28.4851C200.5 28.9312 200.783 29.3293 201.119 29.6737C201.457 30.0182 201.853 30.2921 202.307 30.501C202.762 30.7071 203.287 30.8116 203.88 30.8116C204.306 30.8116 204.735 30.7495 205.162 30.6252C205.588 30.501 205.975 30.3034 206.319 30.0351C206.664 29.7669 206.946 29.4281 207.166 29.0215C207.387 28.6149 207.497 28.1208 207.497 27.542C207.497 26.8672 207.358 26.3844 207.082 26.0936C206.805 25.8028 206.297 25.6588 205.551 25.6588V25.4527C205.967 25.4527 206.308 25.4555 206.576 25.464C206.845 25.4696 207.082 25.4809 207.291 25.495C207.497 25.5091 207.692 25.5204 207.87 25.5261C208.05 25.5317 208.256 25.5374 208.491 25.5374C208.711 25.5374 208.906 25.5345 209.07 25.5261C209.236 25.5204 209.411 25.5091 209.598 25.495C209.784 25.4809 210.004 25.4696 210.258 25.464C210.512 25.4583 210.848 25.4527 211.261 25.4527V25.6588C210.668 25.6588 210.244 25.7576 209.987 25.9581C209.733 26.1642 209.606 26.5764 209.606 27.1976Z" fill="#00263A"/>
<path d="M222.337 17.835C222.331 18.0891 222.326 18.3432 222.326 18.5888C222.326 18.8514 222.343 19.1479 222.376 19.4782C222.41 19.8086 222.427 20.1191 222.427 20.41H222.179C222.137 20.0118 222.026 19.6222 221.848 19.2382C221.668 18.8542 221.439 18.5098 221.157 18.1992C220.874 17.8914 220.544 17.6458 220.163 17.4594C219.785 17.2759 219.367 17.1827 218.912 17.1827C218.554 17.1827 218.218 17.2505 217.91 17.3889C217.599 17.5272 217.334 17.7079 217.114 17.9366C216.893 18.1625 216.721 18.4335 216.597 18.7498C216.473 19.066 216.411 19.3963 216.411 19.7408C216.411 20.249 216.54 20.6725 216.803 21.0085C217.066 21.3445 217.396 21.6297 217.797 21.864C218.198 22.0984 218.63 22.3073 219.098 22.4937C219.567 22.68 220.008 22.8748 220.423 23.081C220.849 23.3012 221.253 23.5355 221.634 23.784C222.012 24.0325 222.34 24.3148 222.616 24.631C222.893 24.9473 223.113 25.3171 223.28 25.7378C223.447 26.1585 223.528 26.6583 223.528 27.2371C223.528 27.8159 223.41 28.3467 223.176 28.8295C222.941 29.3123 222.616 29.7274 222.204 30.0718C221.789 30.4163 221.301 30.6845 220.736 30.8794C220.171 31.0714 219.55 31.1702 218.875 31.1702C218.186 31.1702 217.568 31.0572 217.023 30.8285C216.478 30.5998 215.936 30.309 215.4 29.9504L214.925 30.7579H214.719C214.719 30.3316 214.725 29.9928 214.739 29.7443C214.753 29.4959 214.759 29.2333 214.759 28.9594C214.759 28.6686 214.753 28.3552 214.739 28.0192C214.725 27.6804 214.719 27.2907 214.719 26.8503H214.968C214.996 27.3754 215.103 27.8752 215.29 28.3495C215.476 28.8239 215.73 29.2418 216.055 29.6003C216.379 29.9589 216.769 30.2497 217.224 30.47C217.678 30.6902 218.195 30.8003 218.774 30.8003C219.2 30.8003 219.604 30.7325 219.985 30.5942C220.363 30.4558 220.697 30.261 220.979 30.0041C221.261 29.75 221.481 29.4479 221.642 29.1034C221.801 28.7589 221.88 28.3806 221.88 27.9655C221.88 27.5392 221.775 27.158 221.569 26.8277C221.363 26.4973 221.097 26.2037 220.773 25.9496C220.448 25.6955 220.087 25.4668 219.686 25.2663C219.285 25.0658 218.901 24.8767 218.528 24.696C218.088 24.4899 217.653 24.2612 217.224 24.0127C216.797 23.7642 216.413 23.4762 216.077 23.1431C215.739 22.8127 215.467 22.4287 215.259 21.9939C215.052 21.5591 214.948 21.0452 214.948 20.4523C214.948 19.9554 215.055 19.4867 215.27 19.0462C215.484 18.6058 215.77 18.219 216.128 17.8886C216.487 17.5583 216.899 17.2957 217.368 17.1037C217.836 16.9117 218.328 16.8129 218.836 16.8129C219.361 16.8129 219.864 16.906 220.346 17.0924C220.829 17.2787 221.284 17.5441 221.71 17.8886L222.145 17.1037H222.351C222.348 17.3352 222.345 17.5808 222.337 17.835Z" fill="#00263A"/>
<path d="M246.031 17.3719C246.031 17.7023 246.029 18.0213 246.02 18.3234C246.015 18.6284 246.009 18.9305 246.009 19.2326C246.009 19.5629 246.02 19.9102 246.04 20.266C246.06 20.6245 246.071 20.9888 246.071 21.3615H245.823C245.741 20.0994 245.311 19.0914 244.541 18.3347C243.767 17.5808 242.694 17.2025 241.313 17.2025C240.763 17.2025 240.201 17.355 239.628 17.6571C239.055 17.9592 238.538 18.4081 238.078 18.9982C237.615 19.5912 237.239 20.3196 236.951 21.1864C236.66 22.0532 236.516 23.0527 236.516 24.1821C236.516 24.8569 236.598 25.5797 236.765 26.3505C236.931 27.1213 237.202 27.8385 237.581 28.4992C237.959 29.1599 238.456 29.7076 239.069 30.1424C239.682 30.5772 240.438 30.7918 241.333 30.7918C242.008 30.7918 242.629 30.6845 243.194 30.47C243.759 30.2554 244.244 29.9448 244.654 29.5382C245.06 29.1316 245.379 28.646 245.616 28.0785C245.851 27.5138 245.981 26.8785 246.009 26.1755H246.257C246.257 26.5764 246.246 26.9999 246.226 27.4489C246.207 27.8978 246.195 28.2535 246.195 28.5133C246.195 28.6516 246.195 28.7815 246.195 28.9058C246.195 29.03 246.198 29.1683 246.207 29.3208C246.212 29.4733 246.221 29.6512 246.226 29.8601C246.232 30.0662 246.243 30.3231 246.257 30.6252H246.051L245.554 29.7782C245.43 29.8742 245.249 29.9984 245.015 30.1509C244.781 30.3034 244.487 30.4558 244.137 30.6055C243.784 30.7579 243.375 30.8878 242.906 30.9979C242.437 31.1081 241.906 31.1645 241.313 31.1645C240.28 31.1645 239.323 31.0092 238.448 30.6987C237.572 30.3881 236.813 29.9335 236.172 29.3349C235.531 28.7335 235.031 27.9881 234.673 27.0903C234.314 26.1952 234.133 25.1534 234.133 23.9675C234.133 22.9878 234.317 22.0673 234.681 21.2062C235.045 20.345 235.554 19.5883 236.2 18.9418C236.847 18.2952 237.609 17.7813 238.487 17.4001C239.362 17.0218 240.317 16.8298 241.353 16.8298C242.124 16.8298 242.852 16.9427 243.536 17.1714C244.219 17.4001 244.854 17.7136 245.45 18.1117L245.823 17.3663H246.031V17.3719Z" fill="#00263A"/>
<path d="M255.298 23.5751C255.919 23.5751 256.377 23.4198 256.673 23.1092C256.97 22.7986 257.116 22.361 257.116 21.7963H257.322C257.322 22.1125 257.32 22.3751 257.311 22.5812C257.306 22.7873 257.297 22.9595 257.291 23.0979C257.286 23.2362 257.277 23.352 257.272 23.4508C257.266 23.5468 257.26 23.6541 257.26 23.7727C257.26 23.8885 257.263 23.9929 257.272 24.0833C257.28 24.1736 257.286 24.2837 257.291 24.4136C257.297 24.5435 257.306 24.7101 257.311 24.9106C257.317 25.111 257.322 25.368 257.322 25.687H257.116C257.116 25.1506 256.967 24.7242 256.673 24.4165C256.377 24.1059 255.916 23.9506 255.298 23.9506H253.892V28.4117C253.892 28.9058 253.937 29.2982 254.028 29.5947C254.118 29.8883 254.276 30.1086 254.505 30.2526C254.733 30.3965 255.033 30.4897 255.405 30.5293C255.778 30.5716 256.247 30.5914 256.811 30.5914C257.308 30.5914 257.774 30.5744 258.206 30.5405C258.641 30.5067 259.025 30.4078 259.355 30.2441C259.686 30.0803 259.96 29.8234 260.171 29.4733C260.386 29.1232 260.519 28.6432 260.575 28.0277H260.804L260.637 30.9245C260.016 30.9387 259.465 30.9471 258.983 30.9556C258.5 30.9612 257.975 30.9669 257.41 30.9669C256.238 30.9669 255.292 30.9499 254.575 30.9161C253.858 30.8822 253.279 30.8652 252.839 30.8652C252.619 30.8652 252.429 30.8681 252.271 30.8765C252.113 30.8822 251.944 30.8907 251.763 30.8963C251.582 30.9019 251.371 30.9104 251.122 30.9161C250.874 30.9217 250.543 30.9274 250.128 30.9274V30.7212C250.349 30.7212 250.56 30.7043 250.758 30.6704C250.956 30.6365 251.133 30.5716 251.286 30.4728C251.438 30.3768 251.56 30.2413 251.647 30.069C251.738 29.8968 251.783 29.6653 251.783 29.3773V18.6312C251.783 18.3404 251.738 18.1117 251.647 17.9366C251.557 17.7644 251.436 17.6288 251.286 17.5328C251.133 17.4369 250.958 17.3719 250.758 17.3352C250.557 17.3013 250.349 17.2844 250.128 17.2844V17.0783C250.543 17.0783 250.868 17.0811 251.111 17.0896C251.354 17.098 251.56 17.1037 251.732 17.1093C251.904 17.115 252.065 17.1234 252.218 17.1291C252.37 17.1347 252.556 17.1404 252.777 17.1404C253.245 17.1404 253.813 17.1206 254.482 17.0783C255.151 17.0359 255.899 17.0162 256.727 17.0162C257.266 17.0162 257.752 17.0218 258.184 17.0359C258.618 17.05 259.11 17.0642 259.663 17.0783L259.787 19.7662H259.581C259.539 19.2467 259.429 18.8288 259.251 18.5154C259.07 18.202 258.83 17.962 258.525 17.7983C258.223 17.6345 257.87 17.5244 257.469 17.4707C257.068 17.4171 256.628 17.3889 256.145 17.3889C256.021 17.3889 255.877 17.3917 255.71 17.4001C255.544 17.4058 255.38 17.4143 255.213 17.4199C255.047 17.4256 254.889 17.4369 254.739 17.451C254.587 17.4651 254.462 17.4792 254.366 17.4933C254.05 17.5357 253.892 17.7192 253.892 18.0495V23.5751H255.298Z" fill="#00263A"/>
<path d="M264.991 30.662C265.191 30.6281 265.367 30.5631 265.519 30.4643C265.671 30.3683 265.793 30.2328 265.88 30.0606C265.971 29.8883 266.016 29.6568 266.016 29.3688V18.7356L265.561 18.1568C265.369 17.9084 265.158 17.7023 264.929 17.5357C264.7 17.3691 264.409 17.2872 264.051 17.2872V17.0811C264.299 17.0811 264.514 17.0839 264.692 17.0924C264.87 17.1009 265.033 17.1065 265.177 17.1122C265.321 17.1178 265.454 17.1263 265.57 17.1319C265.686 17.1376 265.821 17.1432 265.974 17.1432C266.112 17.1432 266.228 17.1404 266.327 17.1319C266.423 17.1263 266.519 17.1178 266.617 17.1122C266.713 17.1065 266.818 17.098 266.928 17.0924C267.038 17.0867 267.176 17.0811 267.343 17.0811L275.949 27.6719V18.6312C275.949 18.3404 275.904 18.1117 275.813 17.9366C275.723 17.7644 275.602 17.6288 275.452 17.5328C275.299 17.4369 275.124 17.3719 274.924 17.3352C274.723 17.3013 274.515 17.2844 274.292 17.2844V17.0783C274.568 17.0783 274.788 17.0811 274.955 17.0896C275.122 17.098 275.266 17.1037 275.39 17.1093C275.514 17.115 275.63 17.1234 275.743 17.1291C275.853 17.1347 275.983 17.1404 276.135 17.1404C276.288 17.1404 276.418 17.1376 276.528 17.1291C276.638 17.1234 276.756 17.115 276.881 17.1093C277.005 17.1037 277.152 17.0952 277.327 17.0896C277.499 17.0839 277.722 17.0783 277.999 17.0783V17.2844C277.778 17.2844 277.567 17.3013 277.366 17.3352C277.166 17.3691 276.991 17.434 276.838 17.5328C276.686 17.6288 276.567 17.7644 276.477 17.9366C276.387 18.1088 276.341 18.3404 276.341 18.6312V31.1674H275.969L266.411 19.1902V29.3688C266.411 29.6596 266.456 29.8883 266.547 30.0606C266.637 30.2328 266.758 30.3683 266.908 30.4643C267.061 30.5603 267.236 30.6252 267.436 30.662C267.637 30.6987 267.846 30.7128 268.069 30.7128V30.9189C267.792 30.9189 267.569 30.9161 267.397 30.9076C267.224 30.9019 267.075 30.8935 266.953 30.8878C266.829 30.8822 266.71 30.8737 266.6 30.8681C266.49 30.8624 266.358 30.8568 266.208 30.8568C266.055 30.8568 265.926 30.8596 265.815 30.8681C265.705 30.8737 265.587 30.8822 265.463 30.8878C265.338 30.8935 265.194 30.9019 265.028 30.9076C264.861 30.9132 264.641 30.9189 264.367 30.9189V30.7128C264.579 30.7128 264.791 30.6958 264.991 30.662Z" fill="#00263A"/>
<path d="M285.035 30.662C285.235 30.6281 285.41 30.5631 285.563 30.4643C285.715 30.3683 285.834 30.2328 285.924 30.0606C286.015 29.8883 286.06 29.6568 286.06 29.366V17.4538C285.275 17.4256 284.707 17.4058 284.363 17.3917C284.018 17.3776 283.809 17.3719 283.742 17.3719C282.928 17.386 282.338 17.6401 281.974 18.1314C281.61 18.6255 281.398 19.2665 281.345 20.0598H281.138L281.243 17.0387C281.559 17.0246 281.853 17.019 282.121 17.019C282.389 17.019 282.64 17.019 282.878 17.019C283.428 17.019 283.911 17.0246 284.326 17.0387C284.741 17.0529 285.108 17.0642 285.433 17.0698C285.758 17.0754 286.048 17.0867 286.311 17.1009C286.574 17.115 286.833 17.1206 287.096 17.1206C287.358 17.1206 287.621 17.115 287.881 17.1009C288.143 17.0867 288.44 17.0754 288.77 17.0698C289.101 17.0642 289.476 17.0529 289.897 17.0387C290.317 17.0246 290.817 17.019 291.396 17.019C291.645 17.019 291.907 17.019 292.181 17.019C292.455 17.019 292.754 17.0246 293.07 17.0387L293.195 20.0598H292.988C292.96 19.7126 292.898 19.3766 292.802 19.049C292.706 18.7215 292.559 18.4307 292.367 18.1738C292.175 17.9168 291.93 17.7107 291.633 17.5583C291.337 17.4058 290.981 17.3296 290.569 17.3296C290.501 17.3296 290.278 17.3409 289.908 17.3606C289.535 17.3804 288.957 17.4114 288.172 17.4538V29.366C288.172 29.6568 288.217 29.8883 288.307 30.0606C288.398 30.2328 288.519 30.3683 288.669 30.4643C288.818 30.5603 288.996 30.6252 289.197 30.662C289.397 30.6987 289.606 30.7128 289.829 30.7128V30.9189C289.414 30.9189 289.084 30.9161 288.835 30.9076C288.587 30.9019 288.372 30.8907 288.194 30.8765C288.014 30.8624 287.847 30.8511 287.689 30.8455C287.531 30.8398 287.342 30.8342 287.118 30.8342C286.884 30.8342 286.689 30.837 286.54 30.8455C286.387 30.8511 286.223 30.8624 286.043 30.8765C285.862 30.8907 285.65 30.9019 285.402 30.9076C285.153 30.9132 284.823 30.9189 284.408 30.9189V30.7128C284.623 30.7128 284.834 30.6958 285.035 30.662Z" fill="#00263A"/>
<path d="M301.614 23.5751C302.235 23.5751 302.693 23.4198 302.989 23.1092C303.286 22.7986 303.432 22.361 303.432 21.7963H303.639C303.639 22.1125 303.636 22.3751 303.627 22.5812C303.622 22.7873 303.613 22.9595 303.608 23.0979C303.602 23.2362 303.593 23.352 303.588 23.4508C303.582 23.5468 303.576 23.6541 303.576 23.7727C303.576 23.8885 303.579 23.9929 303.588 24.0833C303.593 24.1736 303.602 24.2837 303.608 24.4136C303.613 24.5435 303.622 24.7101 303.627 24.9106C303.633 25.111 303.639 25.368 303.639 25.687H303.432C303.432 25.1506 303.283 24.7242 302.989 24.4165C302.693 24.1059 302.232 23.9506 301.614 23.9506H300.208V28.4117C300.208 28.9058 300.253 29.2982 300.344 29.5947C300.434 29.8883 300.592 30.1086 300.821 30.2526C301.049 30.3965 301.349 30.4897 301.721 30.5293C302.094 30.5716 302.563 30.5914 303.128 30.5914C303.624 30.5914 304.09 30.5744 304.522 30.5405C304.957 30.5067 305.341 30.4078 305.671 30.2441C306.002 30.0803 306.276 29.8234 306.487 29.4733C306.702 29.1232 306.835 28.6432 306.891 28.0277H307.12L306.953 30.9245C306.332 30.9387 305.782 30.9471 305.299 30.9556C304.816 30.9612 304.291 30.9669 303.726 30.9669C302.554 30.9669 301.609 30.9499 300.891 30.9161C300.174 30.8822 299.595 30.8652 299.155 30.8652C298.935 30.8652 298.746 30.8681 298.587 30.8765C298.429 30.8822 298.26 30.8907 298.079 30.8963C297.898 30.9019 297.687 30.9104 297.438 30.9161C297.19 30.9217 296.859 30.9274 296.444 30.9274V30.7212C296.665 30.7212 296.876 30.7043 297.074 30.6704C297.272 30.6365 297.45 30.5716 297.602 30.4728C297.754 30.3768 297.876 30.2413 297.963 30.069C298.054 29.8968 298.099 29.6653 298.099 29.3773V18.6312C298.099 18.3404 298.054 18.1117 297.963 17.9366C297.873 17.7644 297.752 17.6288 297.602 17.5328C297.45 17.4369 297.275 17.3719 297.074 17.3352C296.874 17.3013 296.665 17.2844 296.444 17.2844V17.0783C296.859 17.0783 297.184 17.0811 297.427 17.0896C297.67 17.098 297.876 17.1037 298.048 17.1093C298.22 17.115 298.381 17.1234 298.534 17.1291C298.686 17.1347 298.873 17.1404 299.093 17.1404C299.562 17.1404 300.129 17.1206 300.798 17.0783C301.467 17.0359 302.216 17.0162 303.043 17.0162C303.582 17.0162 304.068 17.0218 304.5 17.0359C304.935 17.05 305.426 17.0642 305.979 17.0783L306.103 19.7662H305.897C305.855 19.2467 305.745 18.8288 305.567 18.5154C305.386 18.202 305.146 17.962 304.841 17.7983C304.539 17.6345 304.186 17.5244 303.785 17.4707C303.384 17.4171 302.944 17.3889 302.461 17.3889C302.337 17.3889 302.193 17.3917 302.026 17.4001C301.86 17.4058 301.696 17.4143 301.529 17.4199C301.363 17.4256 301.205 17.4369 301.055 17.451C300.903 17.4651 300.778 17.4792 300.682 17.4933C300.366 17.5357 300.208 17.7192 300.208 18.0495V23.5751H301.614Z" fill="#00263A"/>
<path d="M310.466 17.0811C310.881 17.0811 311.211 17.0839 311.46 17.0924C311.708 17.1009 311.917 17.1037 312.092 17.1037C312.264 17.1037 312.425 17.1065 312.578 17.115C312.73 17.1206 312.917 17.1263 313.137 17.1263C313.495 17.1263 313.913 17.1093 314.387 17.0754C314.865 17.0416 315.39 17.0246 315.969 17.0246C316.508 17.0246 317.067 17.067 317.654 17.1489C318.242 17.2307 318.778 17.3973 319.266 17.6458C319.755 17.8943 320.159 18.25 320.475 18.7102C320.791 19.1733 320.952 19.7832 320.952 20.5398C320.952 21.0509 320.848 21.5111 320.641 21.9262C320.435 22.3412 320.161 22.6998 319.826 23.0019C319.487 23.3068 319.1 23.5581 318.668 23.7558C318.233 23.9562 317.79 24.0918 317.335 24.1595C317.474 24.3402 317.714 24.6367 318.058 25.0489C318.402 25.464 318.789 25.927 319.216 26.4437C319.642 26.9604 320.088 27.4912 320.551 28.0361C321.014 28.5811 321.429 29.0667 321.802 29.493C322.118 29.8516 322.42 30.1453 322.703 30.3711C322.985 30.5998 323.298 30.7128 323.643 30.7128V30.9189C323.338 30.9189 323.095 30.9161 322.909 30.9076C322.722 30.9019 322.567 30.8935 322.443 30.8878C322.319 30.8822 322.2 30.8737 322.09 30.8681C321.98 30.8624 321.841 30.8568 321.678 30.8568C321.511 30.8568 321.37 30.8596 321.254 30.8681C321.136 30.8737 321.025 30.8822 320.924 30.8878C320.819 30.8935 320.706 30.9019 320.582 30.9076C320.458 30.9132 320.3 30.9189 320.105 30.9189C319.679 30.3796 319.283 29.8742 318.925 29.3999C318.566 28.9227 318.213 28.4597 317.869 28.0022C317.524 27.5477 317.171 27.0903 316.813 26.6272C316.454 26.1642 316.067 25.6729 315.655 25.1477C315.449 24.8851 315.268 24.7016 315.116 24.6C314.964 24.4955 314.729 24.4447 314.413 24.4447H314.227V29.3688C314.227 29.6596 314.272 29.8883 314.362 30.0606C314.452 30.2328 314.571 30.3683 314.724 30.4643C314.876 30.5603 315.051 30.6252 315.251 30.662C315.452 30.6958 315.661 30.7128 315.881 30.7128V30.9189C315.466 30.9189 315.136 30.9161 314.887 30.9076C314.639 30.9019 314.424 30.8907 314.246 30.8765C314.066 30.8624 313.899 30.8511 313.738 30.8455C313.58 30.8398 313.391 30.8342 313.168 30.8342C312.933 30.8342 312.741 30.837 312.589 30.8455C312.436 30.8511 312.273 30.8624 312.092 30.8765C311.911 30.8907 311.7 30.9019 311.451 30.9076C311.203 30.9132 310.872 30.9189 310.457 30.9189V30.7128C310.677 30.7128 310.889 30.6958 311.087 30.662C311.285 30.6281 311.462 30.5631 311.615 30.4643C311.767 30.3683 311.889 30.2328 311.976 30.0606C312.067 29.8883 312.112 29.6568 312.112 29.3688V18.6312C312.112 18.3404 312.067 18.1117 311.976 17.9366C311.886 17.7644 311.765 17.6288 311.615 17.5328C311.462 17.4369 311.287 17.3719 311.087 17.3352C310.886 17.3013 310.677 17.2844 310.457 17.2844V17.0811H310.466ZM314.232 24.072H315.266C316.384 24.072 317.217 23.7699 317.77 23.1628C318.321 22.5558 318.597 21.6664 318.597 20.4947C318.597 20.0683 318.53 19.6674 318.391 19.2947C318.253 18.922 318.052 18.5945 317.79 18.3121C317.527 18.0298 317.202 17.8039 316.818 17.6401C316.432 17.4736 315.997 17.3917 315.517 17.3917C315.407 17.3917 315.274 17.3945 315.124 17.403C314.972 17.4086 314.831 17.4397 314.701 17.4961C314.571 17.5526 314.458 17.6317 314.371 17.7333C314.28 17.8378 314.235 17.979 314.235 18.1568V24.072H314.232Z" fill="#00263A"/>
<path d="M28.3399 27.3585C29.2519 29.1147 29.8081 31.0488 29.9775 33.0111C30.1441 34.9734 29.9211 36.9611 29.3281 38.8246C28.738 40.6909 27.7724 42.4273 26.5216 43.9209C26.499 43.9464 26.4736 43.9718 26.451 44C26.7447 43.9972 27.0383 43.9915 27.3291 43.9774C28.45 42.4725 29.3027 40.77 29.8166 38.9742C30.3756 37.0289 30.5422 34.979 30.3163 32.9772C30.0876 30.9782 29.4637 29.03 28.4924 27.2795C27.5239 25.5289 26.2054 23.9788 24.6468 22.7365C26.1659 24.024 27.4308 25.5995 28.3399 27.3585Z" fill="#6FA287"/>
<path d="M28.803 26.9491C29.8928 28.6008 30.6495 30.4643 31.0222 32.3984C31.3921 34.3325 31.3808 36.3315 30.9855 38.2486C30.593 40.1657 29.8166 41.9953 28.7267 43.6104C28.707 43.6386 28.6844 43.6668 28.6646 43.6951C28.9583 43.6612 29.2491 43.6245 29.5371 43.5793C30.4942 41.9643 31.1662 40.1827 31.4881 38.3418C31.841 36.3484 31.793 34.2929 31.3582 32.3278C30.9206 30.3627 30.0961 28.4907 28.947 26.8503C27.8006 25.2099 26.3268 23.8066 24.6497 22.7365C26.2901 23.8574 27.7159 25.2946 28.803 26.9491Z" fill="#6FA287"/>
<path d="M29.2208 26.4917C30.4773 28.022 31.4231 29.7952 31.9963 31.6784C32.5666 33.5617 32.7643 35.555 32.5695 37.5004C32.3803 39.4486 31.7987 41.3488 30.881 43.0683C30.8641 43.0993 30.8472 43.1276 30.8302 43.1586C31.1182 43.0937 31.4034 43.0287 31.6857 42.9525C32.4706 41.2471 32.9506 39.4062 33.0777 37.5399C33.2189 35.5211 32.9563 33.4798 32.3182 31.5711C31.6772 29.6625 30.6636 27.8865 29.3479 26.3759C28.035 24.8654 26.4228 23.6231 24.644 22.7337C26.4002 23.6795 27.9644 24.9586 29.2208 26.4917Z" fill="#6FA287"/>
<path d="M32.8913 30.8596C33.6565 32.6751 34.0603 34.6346 34.0715 36.5912C34.0857 38.5479 33.7045 40.4989 32.976 42.3059C32.9619 42.337 32.9478 42.3709 32.9337 42.4019C33.2132 42.3087 33.4899 42.2127 33.7638 42.1083C34.3652 40.3295 34.6504 38.4491 34.5826 36.5799C34.512 34.5555 34.0377 32.5565 33.2047 30.7241C32.369 28.8917 31.1719 27.2343 29.7093 25.8677C28.2467 24.5012 26.5131 23.4367 24.6497 22.7365C26.4934 23.4904 28.1846 24.6 29.5907 25.9891C30.9968 27.3811 32.1234 29.0469 32.8913 30.8596Z" fill="#6FA287"/>
<path d="M33.6932 29.9533C34.6419 31.6784 35.2489 33.5842 35.4663 35.5296C35.6866 37.475 35.5115 39.4542 34.9751 41.3262C34.9666 41.3601 34.9525 41.3939 34.944 41.425C35.2122 41.3036 35.4776 41.1794 35.7374 41.0467C36.1496 39.2142 36.2371 37.314 35.9746 35.4647C35.6922 33.46 35.0118 31.5203 33.9925 29.7839C32.9704 28.0503 31.6067 26.5256 30.0086 25.32C28.4105 24.1143 26.5753 23.2363 24.6497 22.7337C26.5611 23.2899 28.3597 24.216 29.9041 25.4527C31.4486 26.6922 32.7417 28.231 33.6932 29.9533Z" fill="#6FA287"/>
<path d="M34.3991 28.9679C35.5228 30.5829 36.3247 32.4153 36.7454 34.3296C37.1661 36.2411 37.1999 38.2288 36.8611 40.146C36.8555 40.1799 36.847 40.2137 36.8385 40.2476C37.0927 40.098 37.3439 39.9455 37.5868 39.7874C37.8042 37.9211 37.694 36.0237 37.2395 34.2111C36.751 32.2459 35.8701 30.3881 34.6729 28.7702C33.473 27.1524 31.9596 25.7774 30.2429 24.7468C28.5263 23.7134 26.612 23.033 24.6412 22.7365C26.6007 23.0894 28.4867 23.8235 30.1526 24.8908C31.8241 25.9581 33.2725 27.3557 34.3991 28.9679Z" fill="#6FA287"/>
<path d="M34.9976 27.9147C36.2851 29.4055 37.2734 31.142 37.8917 32.9998C38.51 34.8576 38.7528 36.8284 38.6145 38.7709C38.6117 38.8048 38.606 38.8415 38.6032 38.8754C38.8404 38.7004 39.0747 38.5225 39.3006 38.3418C39.3232 36.4642 39.0126 34.5866 38.3717 32.8304C37.6799 30.9274 36.6098 29.1712 35.2518 27.686C33.8908 26.2037 32.2419 24.9924 30.4265 24.1482C28.611 23.3012 26.6345 22.824 24.6468 22.7337C26.6317 22.8805 28.5827 23.4113 30.353 24.3007C32.1205 25.1901 33.7073 26.4268 34.9976 27.9147Z" fill="#6FA287"/>
<path d="M30.4829 23.6993C32.3351 24.3967 34.0433 25.4583 35.4805 26.8051C36.9176 28.1519 38.0809 29.7782 38.8884 31.5598C39.6987 33.3414 40.1448 35.2783 40.2098 37.2265C40.2098 37.2604 40.2098 37.2971 40.2098 37.331C40.4272 37.1333 40.6417 36.9329 40.8479 36.7268C40.6728 34.8576 40.1702 33.0224 39.3486 31.3424C38.462 29.5213 37.2141 27.8865 35.7063 26.5538C34.1986 25.2211 32.4311 24.1906 30.5366 23.5412C28.6449 22.889 26.6289 22.6207 24.6412 22.7393C26.6345 22.6744 28.6307 23.0019 30.4829 23.6993Z" fill="#6FA287"/>
<path d="M30.5507 23.0838C32.465 23.5835 34.2748 24.4616 35.8447 25.6503C37.4145 26.839 38.7416 28.3354 39.7326 30.0239C40.7236 31.7123 41.3702 33.5899 41.6413 35.5211C41.6469 35.555 41.6497 35.5917 41.6525 35.6256C41.8474 35.4054 42.0394 35.1823 42.2229 34.9565C41.8558 33.1156 41.1613 31.3424 40.1674 29.7585C39.0945 28.0418 37.6828 26.5454 36.0451 25.3764C34.4047 24.2075 32.5412 23.369 30.5902 22.92C28.6392 22.4683 26.6063 22.4118 24.6412 22.7393C26.6176 22.4683 28.6364 22.584 30.5507 23.0838Z" fill="#6FA287"/>
<path d="M30.5563 22.4654C32.513 22.7619 34.4047 23.448 36.0903 24.4645C37.7759 25.4837 39.2526 26.8305 40.413 28.4088C41.5763 29.9843 42.4149 31.7857 42.8836 33.6746C42.892 33.7085 42.8977 33.7424 42.9062 33.7762C43.0784 33.5362 43.245 33.2963 43.4031 33.0506C42.8441 31.2577 41.9688 29.5693 40.8168 28.0983C39.5717 26.503 38.0103 25.1619 36.2597 24.1708C34.5064 23.1798 32.5638 22.5417 30.5761 22.2989C28.5884 22.0532 26.5611 22.2113 24.6412 22.7393C26.5781 22.2622 28.5997 22.1662 30.5563 22.4654Z" fill="#6FA287"/>
<path d="M30.4942 21.8499C32.4706 21.9403 34.4245 22.4231 36.2061 23.2588C37.9877 24.0946 39.5999 25.2833 40.9184 26.7289C42.2398 28.1745 43.2619 29.877 43.9283 31.7095C43.9396 31.7433 43.9508 31.7772 43.9621 31.8083C44.1061 31.5514 44.2501 31.2944 44.3828 31.0347C43.6403 29.3095 42.5928 27.7227 41.294 26.3788C39.8879 24.9219 38.1966 23.7529 36.3501 22.9483C34.5035 22.1464 32.5045 21.7144 30.5027 21.6805C28.5009 21.6438 26.5018 22.0109 24.6468 22.7393C26.5188 22.0645 28.5178 21.7568 30.4942 21.8499Z" fill="#6FA287"/>
<path d="M36.1976 22.0448C38.0583 22.6913 39.7834 23.7021 41.246 25.0037C42.7113 26.3025 43.9057 27.8893 44.7584 29.6427C44.7725 29.6737 44.7866 29.7076 44.8007 29.7387C44.9193 29.4676 45.0322 29.1994 45.1367 28.9255C44.2163 27.2879 43.0106 25.8169 41.5763 24.6169C40.0262 23.3153 38.222 22.3271 36.3021 21.7229C34.3821 21.1187 32.3492 20.8956 30.353 21.0735C28.3597 21.2457 26.4087 21.8217 24.6412 22.7393C26.4341 21.8725 28.3907 21.3587 30.3672 21.2429C32.3464 21.1243 34.337 21.401 36.1976 22.0448Z" fill="#6FA287"/>
<path d="M36.0621 20.842C37.9792 21.2909 39.8004 22.1153 41.3928 23.256C42.9852 24.3939 44.3405 25.848 45.371 27.4997C45.3908 27.5307 45.4049 27.5618 45.4247 27.59C45.5122 27.3105 45.5997 27.0282 45.676 26.7486C44.5918 25.2155 43.2365 23.88 41.6864 22.8353C40.0093 21.7031 38.1119 20.9097 36.1383 20.5088C34.1647 20.1079 32.1205 20.0994 30.1554 20.4834C28.1903 20.8645 26.3098 21.641 24.6468 22.7365C26.3381 21.6862 28.2298 20.9718 30.1836 20.65C32.1347 20.3281 34.145 20.3959 36.0621 20.842Z" fill="#6FA287"/>
<path d="M35.8023 19.6589C37.7562 19.9046 39.6535 20.5342 41.3561 21.5026C43.0586 22.4683 44.5579 23.7727 45.755 25.3087C45.7776 25.3369 45.7974 25.3651 45.8172 25.3934C45.8764 25.1054 45.9301 24.8174 45.9781 24.5294C44.7386 23.1205 43.2506 21.9318 41.6017 21.0565C39.8145 20.105 37.8437 19.5149 35.8419 19.3229C33.8372 19.1309 31.8015 19.3371 29.89 19.9243C27.9757 20.5088 26.1856 21.4772 24.6497 22.7421C26.2223 21.5224 28.0293 20.6133 29.938 20.0881C31.841 19.5573 33.8485 19.4161 35.8023 19.6589Z" fill="#6FA287"/>
<path d="M35.4183 18.5098C37.3863 18.5493 39.3401 18.9785 41.133 19.7634C42.9259 20.5455 44.5551 21.6862 45.9075 23.0894C45.9329 23.1148 45.9555 23.1403 45.9781 23.1685C46.0063 22.8749 46.0317 22.584 46.0487 22.2932C44.668 21.0198 43.0643 19.9949 41.3335 19.2975C39.4559 18.538 37.4371 18.1568 35.424 18.1738C33.4109 18.1935 31.409 18.6086 29.5653 19.3935C27.7216 20.1756 26.0444 21.3248 24.6468 22.7421C26.084 21.3643 27.7865 20.2716 29.6302 19.5516C31.4711 18.8232 33.4504 18.4731 35.4183 18.5098Z" fill="#6FA287"/>
<path d="M29.266 19.0434C31.0222 18.1314 32.9563 17.5752 34.9186 17.4058C36.8809 17.2392 38.8686 17.4623 40.7321 18.0552C42.5984 18.6453 44.3348 19.6109 45.8284 20.8617C45.8539 20.8843 45.8793 20.9097 45.9075 20.9323C45.9047 20.6387 45.899 20.345 45.8849 20.0542C44.38 18.9333 42.6775 18.0806 40.8817 17.5667C38.9364 17.0077 36.8865 16.8411 34.8847 17.067C32.8857 17.2957 30.9375 17.9197 29.187 18.8909C27.4364 19.8594 25.8863 21.1779 24.644 22.7365C25.9315 21.2175 27.507 19.9526 29.266 19.0434Z" fill="#6FA287"/>
<path d="M28.8538 18.5804C30.5055 17.4905 32.369 16.7338 34.3031 16.3611C36.2371 15.9912 38.2362 16.0025 40.1533 16.3978C42.0704 16.7903 43.9 17.5667 45.515 18.6566C45.5433 18.6764 45.5715 18.6989 45.5998 18.7187C45.5659 18.4251 45.5292 18.1343 45.484 17.8463C43.869 16.8891 42.0874 16.2171 40.2465 15.8953C38.2531 15.5423 36.1976 15.5903 34.2325 16.0251C32.2674 16.4628 30.3954 17.2872 28.755 18.4364C27.1145 19.5827 25.7113 21.0565 24.6412 22.7337C25.7649 21.0904 27.2021 19.6674 28.8538 18.5804Z" fill="#6FA287"/>
<path d="M22.0662 20.6415C21.1542 18.8853 20.598 16.9512 20.4286 14.9889C20.262 13.0266 20.485 11.0389 21.078 9.17541C21.6681 7.3091 22.6337 5.57267 23.8845 4.07906C23.9071 4.05365 23.9325 4.02823 23.9551 4C23.6614 4.00282 23.3678 4.00847 23.077 4.02259C21.9561 5.52749 21.1034 7.23004 20.5895 9.02576C20.0305 10.9711 19.8639 13.021 20.0898 15.0228C20.3185 17.0218 20.9424 18.97 21.9137 20.7205C22.8822 22.4711 24.2007 24.0212 25.7593 25.2635C24.2402 23.9788 22.9753 22.4005 22.0662 20.6415Z" fill="#6FA287"/>
<path d="M21.6031 21.0537C20.5133 19.402 19.7566 17.5385 19.3839 15.6044C19.014 13.6704 19.0253 11.6713 19.4206 9.75422C19.8131 7.83709 20.5895 6.00748 21.6794 4.39246C21.6991 4.36423 21.7217 4.33599 21.7415 4.30776C21.4478 4.34164 21.157 4.37834 20.869 4.42352C19.9119 6.03854 19.2399 7.82015 18.918 9.66104C18.5651 11.6544 18.6131 13.7099 19.0479 15.675C19.4855 17.6402 20.31 19.5121 21.4591 21.1525C22.6055 22.793 24.0793 24.1962 25.7564 25.2663C24.116 24.1426 22.6902 22.7054 21.6031 21.0537Z" fill="#6FA287"/>
<path d="M21.1853 21.5111C19.9288 19.9808 18.983 18.2077 18.4098 16.3244C17.8395 14.4412 17.6418 12.4478 17.8366 10.5024C18.0258 8.55425 18.6074 6.65406 19.5251 4.93457C19.542 4.90351 19.5589 4.87527 19.5759 4.84422C19.2879 4.90633 19.0027 4.97409 18.7204 5.05033C17.9355 6.7557 17.4555 8.5966 17.3284 10.4629C17.1872 12.4817 17.4498 14.523 18.0879 16.4317C18.7288 18.3404 19.7425 20.1163 21.0582 21.6269C22.3711 23.1374 23.9833 24.3798 25.7621 25.2691C24.0059 24.3205 22.4417 23.0414 21.1853 21.5111Z" fill="#6FA287"/>
<path d="M17.5148 17.1404C16.7496 15.3249 16.3458 13.3654 16.3346 11.4088C16.3204 9.45211 16.7016 7.50109 17.4301 5.69408C17.4442 5.66302 17.4583 5.62914 17.4724 5.59808C17.1929 5.69125 16.9162 5.78725 16.6451 5.89172C16.0437 7.6705 15.7586 9.55093 15.8263 11.4201C15.8969 13.4445 16.3713 15.4435 17.2042 17.2759C18.0399 19.1084 19.2371 20.7657 20.6996 22.1323C22.1622 23.4988 23.8958 24.5633 25.7593 25.2635C23.9156 24.5096 22.2243 23.4 20.8182 22.0109C19.4093 20.6189 18.2827 18.9531 17.5148 17.1404Z" fill="#6FA287"/>
<path d="M16.7129 18.0467C15.7642 16.3216 15.1572 14.4158 14.9398 12.4704C14.7195 10.525 14.8946 8.54578 15.431 6.67382C15.4395 6.63994 15.4536 6.60606 15.4621 6.575C15.1939 6.69641 14.9285 6.82064 14.6687 6.95334C14.2565 8.78577 14.169 10.686 14.4315 12.5353C14.7139 14.54 15.3943 16.4797 16.4136 18.2161C17.4385 19.9497 18.8023 21.4744 20.4032 22.6772C22.0012 23.8828 23.8365 24.7609 25.7621 25.2635C23.8506 24.7073 22.0521 23.7812 20.5076 22.5445C18.9576 21.3078 17.6644 19.769 16.7129 18.0467Z" fill="#6FA287"/>
<path d="M16.007 19.0321C14.8833 17.4171 14.0814 15.5847 13.6607 13.6704C13.24 11.7589 13.2062 9.77116 13.545 7.85403C13.5506 7.82015 13.5591 7.78626 13.5676 7.75238C13.3134 7.90203 13.0622 8.05449 12.8193 8.21261C12.6019 10.0789 12.712 11.9763 13.1666 13.7889C13.6551 15.7541 14.536 17.6119 15.7332 19.2298C16.9331 20.8476 18.4465 22.2226 20.1632 23.2532C21.8798 24.2866 23.7941 24.967 25.7649 25.2635C23.8054 24.9106 21.9194 24.1765 20.2535 23.1092C18.582 22.0419 17.1336 20.6471 16.007 19.0321Z" fill="#6FA287"/>
<path d="M15.4085 20.0853C14.121 18.5945 13.1327 16.8581 12.5144 15.0002C11.8961 13.1424 11.6533 11.1716 11.7916 9.22905C11.7944 9.19517 11.8001 9.15847 11.8029 9.12459C11.5657 9.29964 11.3314 9.47752 11.1055 9.65822C11.0829 11.5358 11.3935 13.4134 12.0344 15.1696C12.7262 17.0726 13.7963 18.8288 15.1543 20.314C16.5153 21.7963 18.1642 23.0076 19.9796 23.8518C21.7923 24.6988 23.7716 25.176 25.7593 25.2663C23.7744 25.1195 21.8234 24.5887 20.0531 23.6993C18.2856 22.8099 16.6988 21.5732 15.4085 20.0853Z" fill="#6FA287"/>
<path d="M19.9232 24.3007C18.071 23.6033 16.3628 22.5417 14.9256 21.1949C13.4885 19.8481 12.3252 18.2218 11.5177 16.4402C10.7074 14.6586 10.2613 12.7217 10.1963 10.7735C10.1963 10.7396 10.1963 10.7029 10.1963 10.669C9.97894 10.8667 9.76435 11.0671 9.55824 11.2732C9.7333 13.1424 10.2359 14.9776 11.0575 16.6576C11.9441 18.4787 13.192 20.1135 14.6998 21.4462C16.2075 22.7789 17.975 23.8094 19.8695 24.4588C21.7612 25.111 23.7772 25.3793 25.7649 25.2607C23.7716 25.3256 21.7754 24.9981 19.9232 24.3007Z" fill="#6FA287"/>
<path d="M19.8554 24.9162C17.9411 24.4165 16.1313 23.5384 14.5614 22.3497C12.9916 21.161 11.6645 19.6646 10.6735 17.9761C9.68247 16.2877 9.0359 14.4073 8.76485 12.4789C8.7592 12.445 8.75638 12.4083 8.75355 12.3744C8.55873 12.5946 8.36674 12.8177 8.18321 13.0436C8.55026 14.8844 9.24484 16.6576 10.2387 18.2415C11.3116 19.9582 12.7233 21.4546 14.361 22.6236C16.0014 23.7925 17.8649 24.631 19.8159 25.08C21.7669 25.5317 23.7998 25.5882 25.7649 25.2607C23.7885 25.5317 21.7697 25.4188 19.8554 24.9162Z" fill="#6FA287"/>
<path d="M19.8498 25.5346C17.8931 25.2381 16.0014 24.552 14.3158 23.5355C12.6302 22.5163 11.1535 21.1695 9.99305 19.5912C8.82979 18.0157 7.99122 16.2143 7.52252 14.3254C7.51405 14.2915 7.50841 14.2576 7.49994 14.2238C7.3277 14.4638 7.16112 14.7037 7.00301 14.9494C7.56205 16.7423 8.43733 18.4307 9.5893 19.9017C10.8344 21.497 12.3958 22.8381 14.1464 23.8292C15.8997 24.8202 17.8423 25.4583 19.83 25.7011C21.8177 25.9468 23.845 25.7887 25.7649 25.2607C23.828 25.7378 21.8064 25.8338 19.8498 25.5346Z" fill="#6FA287"/>
<path d="M19.9119 26.1529C17.9355 26.0625 15.9816 25.5797 14.2 24.744C12.4184 23.9082 10.8062 22.7196 9.48765 21.2739C8.16627 19.8283 7.14418 18.1258 6.47784 16.2934C6.46655 16.2595 6.45526 16.2256 6.44396 16.1945C6.29996 16.4515 6.15597 16.7084 6.02327 16.9682C6.76584 18.6933 7.81334 20.2801 9.11213 21.6241C10.5182 23.081 12.2095 24.2499 14.056 25.0546C15.9026 25.8564 17.9016 26.2884 19.9034 26.3223C21.9052 26.359 23.9043 25.992 25.7593 25.2635C23.8873 25.9383 21.8883 26.2432 19.9119 26.1529Z" fill="#6FA287"/>
<path d="M14.2085 25.9552C12.3478 25.3087 10.6227 24.2979 9.16013 22.9963C7.69476 21.6975 6.50043 20.1107 5.64774 18.3601C5.63363 18.3291 5.61951 18.2952 5.60539 18.2641C5.48681 18.5352 5.37387 18.8034 5.2694 19.0773C6.18985 20.7149 7.39547 22.1859 8.82979 23.3859C10.3799 24.6875 12.1841 25.6757 14.104 26.2799C16.024 26.8842 18.0569 27.1072 20.0531 26.9293C22.0464 26.7571 23.9974 26.1811 25.7649 25.2635C23.972 26.1303 22.0154 26.6442 20.0389 26.7599C18.0597 26.8757 16.0691 26.599 14.2085 25.9552Z" fill="#6FA287"/>
<path d="M14.344 27.158C12.4269 26.7091 10.6057 25.8847 9.01331 24.744C7.42088 23.6061 6.06562 22.152 5.03505 20.5003C5.01529 20.4693 5.00117 20.4382 4.98141 20.41C4.89388 20.6895 4.80635 20.9718 4.73294 21.2514C5.81715 22.7845 7.17241 24.12 8.7225 25.1647C10.3996 26.2969 12.297 27.0903 14.2706 27.4912C16.2442 27.8921 18.2884 27.9006 20.2535 27.5166C22.2187 27.1355 24.0991 26.359 25.7621 25.2635C24.0708 26.3138 22.1791 27.0282 20.2253 27.35C18.2714 27.6719 16.2611 27.6042 14.344 27.158Z" fill="#6FA287"/>
<path d="M14.6038 28.3411C12.6499 28.0954 10.7526 27.4658 9.05002 26.4974C7.34747 25.5317 5.84821 24.2273 4.65106 22.6913C4.62847 22.6631 4.60871 22.6349 4.58895 22.6066C4.52965 22.8946 4.47601 23.1826 4.42801 23.4706C5.66751 24.8823 7.15547 26.0682 8.80438 26.9435C10.5916 27.895 12.5624 28.4851 14.5642 28.6771C16.5689 28.8691 18.6046 28.6629 20.5161 28.0757C22.4304 27.4912 24.2205 26.5228 25.7564 25.2579C24.1838 26.4776 22.3768 27.3867 20.4681 27.9119C18.5651 28.4427 16.5576 28.5839 14.6038 28.3411Z" fill="#6FA287"/>
<path d="M14.9878 29.4902C13.0198 29.4507 11.066 29.0215 9.27307 28.2366C7.47735 27.4545 5.85103 26.3138 4.4986 24.9134C4.47318 24.888 4.4506 24.8626 4.42801 24.8372C4.39977 25.1308 4.37436 25.4216 4.35742 25.7124C5.7381 26.9858 7.34182 28.0107 9.07261 28.7081C10.9502 29.4676 12.969 29.8488 14.9821 29.8319C16.9952 29.8121 18.9971 29.397 20.8408 28.6121C22.6845 27.83 24.3617 26.6809 25.7593 25.2635C24.3221 26.6413 22.6196 27.734 20.7759 28.454C18.935 29.1768 16.9557 29.5298 14.9878 29.4902Z" fill="#6FA287"/>
<path d="M21.1401 28.9566C19.3839 29.8686 17.4498 30.4248 15.4875 30.5942C13.5252 30.7608 11.5375 30.5377 9.674 29.9448C7.80769 29.3547 6.07126 28.3891 4.57765 27.1383C4.55224 27.1157 4.52683 27.0903 4.4986 27.0677C4.50142 27.3613 4.50707 27.655 4.52118 27.9458C6.02609 29.0667 7.72864 29.9194 9.52436 30.4333C11.4697 30.9923 13.5196 31.1589 15.5214 30.933C17.5204 30.7043 19.4686 30.0803 21.2191 29.1091C22.9697 28.1406 24.5198 26.8221 25.7621 25.2635C24.4746 26.7825 22.8991 28.0503 21.1401 28.9566Z" fill="#6FA287"/>
<path d="M21.5523 29.4196C19.9006 30.5095 18.0371 31.2662 16.103 31.6389C14.169 32.0088 12.1699 31.9975 10.2528 31.6022C8.33568 31.2097 6.50608 30.4333 4.89106 29.3434C4.86282 29.3236 4.83459 29.3011 4.80635 29.2813C4.84023 29.5749 4.87694 29.8657 4.92211 30.1537C6.53714 31.1109 8.31874 31.7829 10.1596 32.1048C12.153 32.4577 14.2085 32.4097 16.1736 31.9749C18.1387 31.5372 20.0107 30.7128 21.6511 29.5636C23.2916 28.4173 24.6948 26.9435 25.7649 25.2663C24.6412 26.9096 23.204 28.3326 21.5523 29.4196Z" fill="#6FA287"/>
</svg>
