<svg width="160" height="56" viewBox="0 0 160 56" fill="none" xmlns="http://www.w3.org/2000/svg">
<path d="M8.40336 41.5041C8.83578 41.5218 9.27262 41.5817 9.67953 41.7313V41.7269L9.74162 41.7491L15.1102 36.5125L15.3075 36.7752C15.5858 37.1522 15.8819 37.497 16.1945 37.8419L16.3087 37.9738C16.3908 38.0558 16.4562 38.1379 16.5382 38.2199L16.6713 38.3508L16.801 38.4827L16.9163 38.5969L17.0472 38.7289L17.1625 38.8431L17.3099 38.975L17.443 39.0903C19.9321 41.2088 23.0731 42.4085 26.3407 42.4886C29.0319 42.5563 31.6881 41.8679 34.0077 40.5017L34.4179 40.9286C34.8947 41.4375 35.387 41.9464 35.8637 42.4554C33.009 44.2905 29.6677 45.2232 26.2753 45.1319C22.4484 45.0404 18.7663 43.6509 15.8331 41.1914L15.8497 41.1581L12.4048 44.5542C12.941 46.3272 12.2798 48.2441 10.7647 49.3097C9.24961 50.3752 7.22203 50.3491 5.7348 49.245C4.24757 48.1409 3.63589 46.2077 4.21737 44.449C4.79886 42.6904 6.44245 41.5028 8.29471 41.5029H8.40558L8.40336 41.5041ZM41.2323 19.3546C42.9182 22.1314 43.7674 25.3354 43.6782 28.5827C43.5815 32.5471 42.0873 36.3499 39.4594 39.3198L39.476 39.3364L41.5937 41.5861C42.4475 41.4708 43.3012 41.7657 43.8922 42.3899C44.8992 43.4569 44.8551 45.137 43.7935 46.1497C42.7266 47.156 41.0474 47.1119 40.0348 46.051C39.4465 45.4289 39.1953 44.5606 39.3607 43.7204C38.1233 42.3973 36.8815 41.0782 35.6353 39.7633L35.4202 39.5338L35.6664 39.3364C36.3085 38.8286 36.9023 38.2626 37.4404 37.6456C39.6845 35.1261 40.959 31.8904 41.036 28.5173C41.1072 25.9724 40.4946 23.4549 39.262 21.2273L41.2323 19.3546ZM11.3149 9.31932C12.0689 9.30824 12.7785 9.60649 13.304 10.1442C13.892 10.767 14.1427 11.6356 13.977 12.4759L18.0495 16.7446L17.8022 16.942C17.1625 17.4509 16.5715 18.0086 16.0293 18.6328C11.9997 23.1694 11.2634 29.7518 14.191 35.0667L12.2363 36.9715C10.529 34.1857 9.6734 30.9615 9.77489 27.6957C9.85915 23.743 11.3992 19.9245 13.9859 16.9508L11.744 14.6114C10.8928 14.7285 10.0372 14.4285 9.44559 13.8053C8.43883 12.738 8.48342 11.0579 9.54537 10.0456C9.96246 9.65413 10.4933 9.4056 11.061 9.33595C11.1453 9.32708 11.2307 9.32487 11.316 9.31821L11.3149 9.31932ZM45.5764 5.90881C47.2738 5.90909 48.8117 6.90919 49.5004 8.46057C50.1892 10.0119 49.8995 11.8234 48.7612 13.0826C47.6229 14.3418 45.8498 14.8123 44.237 14.2832V14.2887L44.1705 14.2654L38.3418 19.7981L38.1444 19.5353C37.834 19.1251 37.488 18.7149 37.1266 18.3379L37.0601 18.2547L36.8804 18.074L36.5523 17.7458L36.4369 17.6471L36.3227 17.5496L36.1753 17.4176L36.06 17.3189L35.9114 17.1881C33.4333 15.1006 30.3182 13.9193 27.0791 13.8386C24.3693 13.7721 21.7261 14.4462 19.4288 15.8255L17.5561 13.8707C20.4107 12.0355 23.7521 11.1028 27.1445 11.1942C30.9746 11.2842 34.6589 12.6804 37.5867 15.1513H37.62L41.4784 11.4869C41.0697 10.1824 41.3065 8.76122 42.1161 7.65973C42.9258 6.55823 44.2115 5.90805 45.5786 5.90881H45.5764Z" fill="#2E3234"/>
<path d="M26.8598 15.4948C27.3455 15.497 27.83 15.5347 28.3112 15.5901C35.2398 16.4605 40.1482 22.7814 39.2944 29.71C38.4241 36.6397 32.1031 41.5481 25.1745 40.6944C18.246 39.824 13.3364 33.5019 14.1902 26.5745C15.0173 20.1471 20.4169 15.5169 26.8598 15.4948ZM26.9363 20.9143L26.6702 20.921C23.8651 21.146 21.8361 23.2671 21.764 26.0866C21.8084 28.0447 22.6533 29.4273 24.2543 30.5094L24.6401 30.719L23.6644 35.3081H30.2072L29.2326 30.7179C31.0287 29.7932 32.0565 28.0957 32.1075 26.0866C32.0698 23.1773 29.8191 20.9864 26.9363 20.9143Z" fill="#047AED"/>
<path d="M91.4017 22.0013C91.7532 22.0013 91.8807 22.2885 91.9117 22.6389L92.486 33.6044C92.5182 33.9869 92.5504 34.1466 92.7411 34.1466H92.9961L97.5541 22.6067C97.6816 22.2575 98.001 22.0025 98.3513 22.0025H103.611C103.897 22.0025 104.184 22.2242 104.184 22.4792C104.18 22.5573 104.158 22.6335 104.122 22.7032L95.3566 41.6373C93.7944 45.0478 91.9771 47.0247 86.9722 47.0247C85.6972 47.0247 83.5939 46.7697 82.7645 46.4503C82.4463 46.3228 82.1592 46.2286 82.1592 45.9403V45.8461L82.7013 42.7527C82.7645 42.4023 83.1471 42.0841 83.5296 42.0841H83.5617C84.7414 42.1473 86.654 42.3391 87.8648 42.3391C88.7573 42.3391 89.427 42.0519 89.8095 41.1284L90.2563 40.075H89.8417C88.3427 40.075 87.5144 39.5018 87.3226 37.8764L85.4743 22.7032V22.6067C85.4743 22.2564 85.7293 22.0013 86.2715 22.0013H91.4017ZM75.938 21.7142C80.5604 21.7142 82.728 24.7743 82.728 28.5685C82.728 29.0982 82.6787 29.6279 82.6025 30.1576L82.5683 30.3846L82.249 32.2972C82.1948 32.6778 81.8836 32.9666 81.5049 32.9965L81.4529 32.999H71.5385C71.4753 33.3815 71.4431 33.6997 71.4431 33.9869C71.4431 35.5813 72.4632 35.8041 74.0575 35.8041L74.175 35.8039C75.8525 35.7985 78.8532 35.6793 80.0942 35.5576L80.1778 35.5491H80.3053C80.5755 35.5491 80.7616 35.6619 80.7815 35.9173L80.7832 35.9638V36.0913L80.2732 38.9596C80.1778 39.4697 80.0182 39.6925 79.476 39.8533C77.3406 40.5219 75.1729 40.8401 72.4953 40.8401C68.9573 40.8401 65.4502 38.6414 65.4502 34.1144C65.448 33.6381 65.4804 33.1623 65.5471 32.6908L65.5778 32.489L65.9293 30.3846C66.9804 24.0736 70.6149 21.7142 75.938 21.7142ZM56.0748 15.9132C56.4573 15.9132 56.7123 16.0729 56.6169 16.5507L54.3218 29.461L59.6128 22.5757C59.9953 22.0656 60.2193 22.0013 60.5375 22.0013H66.466C66.9128 22.0013 66.9449 22.416 66.6899 22.671L59.4221 30.9268L63.5023 39.8522C63.6608 40.1715 63.5023 40.554 63.0876 40.554H57.3498C56.9995 40.554 56.7445 40.3622 56.5526 39.8522L53.7797 32.5843L52.5046 39.8522C52.4403 40.2025 52.0899 40.554 51.7396 40.554H46.9575C46.6072 40.554 46.289 40.3622 46.3843 39.8522L50.4967 16.5507C50.561 16.2004 50.7195 15.9132 51.2927 15.9132H56.0748ZM75.0454 26.4641C73.2911 26.4641 72.522 27.7576 72.1329 29.526L72.1128 29.6195H76.8305C76.9259 29.1738 76.9902 28.727 76.9902 28.3445C76.9902 27.2291 76.4802 26.4641 75.0454 26.4641Z" fill="#047AED"/>
<path d="M118.346 22.7344C118.346 22.4161 118.154 22.3208 117.803 22.2243C116.943 22.0026 115.413 21.7143 113.531 21.7143C108.623 21.7143 105.467 24.1691 104.447 30.0987L104.033 32.4891C103.935 33.0901 103.881 33.6975 103.873 34.3064C103.873 38.0351 106.041 40.8402 110.153 40.8402C112.033 40.8402 113.5 40.5852 114.616 40.3302C115.063 40.2348 115.318 40.0752 115.381 39.6616L116.018 36.0914V35.9639C116.018 35.6757 115.795 35.485 115.508 35.485H115.445C114.329 35.5493 113.308 35.6768 111.747 35.6768C110.663 35.6768 110.025 35.2943 110.025 33.8595C110.025 33.477 110.058 33.0313 110.153 32.4891L110.568 30.0987C111.013 27.4521 111.938 26.8789 113.308 26.8789C114.871 26.8789 115.828 27.0385 116.911 27.1017H116.975C117.325 27.1017 117.644 26.8467 117.707 26.4963L118.346 22.894V22.7344ZM138.24 16.4555C138.24 16.1362 137.954 15.9122 137.634 15.9122H132.885C132.534 15.9122 132.216 16.2005 132.153 16.5509L131.196 21.9383C130.558 21.8418 129.474 21.7143 128.964 21.7143C123.163 21.7143 120.261 24.1369 119.21 30.0344L118.764 32.5213C118.666 33.0578 118.613 33.6014 118.604 34.1467C118.604 38.0672 121.314 40.8402 125.681 40.8402C128.549 40.8402 131.259 40.3945 132.981 40.0441C134.001 39.8202 134.16 39.6295 134.256 39.0241L138.241 16.5498L138.24 16.4555ZM130.303 26.911L128.773 35.6446C128.167 35.74 127.498 35.8043 126.574 35.8043C125.203 35.8043 124.725 35.0071 124.725 33.7642C124.725 33.3817 124.756 32.967 124.852 32.5213L125.298 30.0344C125.617 28.1861 126.382 26.7835 128.167 26.7835C128.932 26.7835 129.666 26.8467 130.303 26.911ZM156 27.1328C156 23.5626 154.533 21.7143 150.995 21.7143C149.816 21.7143 148.062 22.0026 145.831 23.4683L145.991 22.639C146.086 22.1611 145.864 22.0015 145.448 22.0015H141.082C140.731 22.0015 140.412 22.2886 140.349 22.639L137.288 39.8523C137.224 40.2991 137.576 40.5542 138.021 40.5542H142.579C143.058 40.5542 143.377 40.2348 143.441 39.8523L145.609 27.5164C146.182 27.1971 147.36 26.8145 148.317 26.8145C149.402 26.8145 149.816 27.0696 149.816 28.0586C149.816 28.5996 149.689 29.1418 149.592 29.684L147.807 39.8523C147.744 40.1716 147.807 40.5542 148.349 40.5542H153.131C153.514 40.5542 153.863 40.2027 153.927 39.8523L155.682 29.9068C155.84 29.0143 156 27.9621 156 27.1339V27.1328Z" fill="#2E3234"/>
</svg>
