<svg width="176" height="48" viewBox="0 0 176 48" fill="none" xmlns="http://www.w3.org/2000/svg">
<path d="M56.1567 20.094C58.0308 20.094 59.55 18.5742 59.55 16.6997C59.55 14.8251 58.0308 13.3054 56.1567 13.3054C54.2825 13.3054 52.7633 14.8251 52.7633 16.6997C52.7633 18.5742 54.2825 20.094 56.1567 20.094ZM168.145 31.6911C167.629 31.328 167.231 31.268 166.9 31.973C161.201 44.3166 151.596 38.157 152.551 38.6991C154.681 37.7245 160.284 33.2309 159.437 27.0266C158.923 23.2347 155.668 21.5528 152.214 22.1551C146.184 23.2062 143.966 29.7099 145.095 35.4683C145.293 36.4569 145.646 37.2727 145.998 38.0715C139.184 43.6126 136.478 33.1109 136.171 31.8561C136.159 31.7891 141.433 27.3934 142.899 16.9187C144.437 5.94088 140.935 3.94223 137.353 4.00453C130.727 4.12001 128.936 17.9653 131.342 29.5043C131.141 29.5568 130.203 30.0762 128.696 30.1343C127.612 26.723 122.979 23.7327 121.767 24.8848C118.732 27.7676 122.503 33.4029 125.156 33.8451C123.562 43.6607 113.596 41.2295 115.451 28.9321C118.696 22.9054 121.165 13.9437 120.724 8.53359C120.568 6.61806 119.152 4.05177 115.949 4.17863C109.789 4.42256 109.119 18.2717 109.842 28.101C109.806 27.859 109.463 29.2952 106.939 30.0095C106.342 26.695 101.005 23.3682 99.7486 24.9677C97.3972 27.9613 101.472 33.2987 103.403 33.6712C101.809 43.4866 91.8431 41.0554 93.6985 28.758C96.9438 22.7313 99.4122 13.7696 98.9715 8.35948C98.8156 6.44395 97.3997 3.87766 94.1965 4.00453C88.0366 4.24863 87.3669 18.0976 88.0892 27.9269C88.0528 27.6812 87.7022 29.1645 85.0748 29.8673C84.9868 25.5672 79.6308 23.5957 78.3441 24.9677C76.0512 27.4131 78.8692 32.4313 81.4765 33.6712C79.8829 43.4866 69.9166 41.0554 71.772 28.758C75.0174 22.7313 77.4857 13.7696 77.0451 8.35948C76.8891 6.44395 75.4732 3.87766 72.27 4.00453C66.1101 4.24863 65.6145 18.7938 66.3368 28.6231C64.3079 37.3161 57.5037 48.1721 58.3876 26.4252C58.4749 24.8999 58.5703 24.3203 57.8098 23.7493C57.2397 23.3052 55.9438 23.5187 55.2356 23.5366C54.3745 23.571 54.1586 24.075 53.9684 24.8363C53.525 26.8026 53.4455 28.7087 53.3822 31.3095C53.3406 32.5261 53.2429 33.0937 52.7747 34.7526C52.3064 36.4114 49.6372 39.4428 48.1754 38.9362C46.1479 38.2386 46.8127 32.5147 47.1929 28.5818C47.5096 25.4736 46.496 24.0781 43.8982 23.5705C42.3774 23.2534 41.4533 23.3023 39.8697 22.803C38.3721 22.3309 38.0331 19.4978 34.8392 20.442C33.0916 20.9587 34.2148 24.6608 33.795 27.4047C31.7306 40.9013 27.435 41.2719 25.4421 34.7155C34.4173 12.7344 28.0385 4.06857 24.3051 4.06857C20.4159 4.06857 15.9703 6.7472 17.8528 23.8871C16.9374 23.62 16.6561 23.4762 15.6541 23.4762C9.98713 23.4762 6.12598 28.0574 6.12598 33.7086C6.12598 39.3599 9.98713 43.9411 15.6541 43.9411C18.9996 43.9411 21.348 42.4198 23.1271 40.0661C24.2876 41.7282 25.7009 43.9668 28.2854 43.866C35.9888 43.5661 38.2294 27.764 38.4937 26.8826C39.3173 27.0094 40.0965 27.2497 40.8568 27.3766C42.124 27.5669 42.2159 28.0684 42.1874 29.343C41.8517 40.0901 43.8348 43.8531 48.3333 43.8531C50.8397 43.8531 53.0739 41.3907 54.6129 39.6297C55.7623 42.0021 57.5939 43.7806 60.051 43.8531C66.0052 44.0009 68.2847 34.5111 68.077 35.76C67.914 36.7399 70.0087 43.7995 76.1383 43.8252C83.7313 43.8569 85.1425 35.5071 85.311 34.1085C85.332 33.8301 85.3411 33.8593 85.311 34.1085C85.3091 34.1344 85.307 34.162 85.3049 34.1933C87.7155 33.745 88.9594 32.4526 88.9594 32.4526C88.9594 32.4526 90.8949 43.9551 98.0648 43.8252C105.51 43.6903 106.914 36.1428 107.098 34.6709C107.123 34.3216 107.137 34.3625 107.098 34.6709C107.097 34.6854 107.097 34.6982 107.095 34.7141C109.959 33.6722 110.712 32.6267 110.712 32.6267C110.712 32.6267 112.25 43.9005 119.817 43.9992C126.56 44.0872 129.059 37.1822 129.074 34.2919C130.211 34.3039 132.315 33.6173 132.266 33.5779C132.266 33.5779 134.736 43.4348 141.633 43.9411C144.872 44.1787 147.301 42.119 148.686 41.1791C151.941 43.8149 162.778 47.1812 169.621 35.5797C170.586 33.9148 168.51 31.9478 168.145 31.6911ZM15.3806 40.1139C12.0743 40.1139 9.95424 37.0567 9.95424 33.7604C9.95424 30.4641 11.9002 27.407 15.2065 27.407C16.6946 27.407 17.5219 27.5708 18.6808 28.5787C18.8911 29.4065 19.4864 31.3166 19.7763 32.184C20.1645 33.3445 20.6262 34.3324 21.092 35.4077C20.4266 38.1656 18.2459 40.1139 15.3806 40.1139ZM23.4375 28.6756C23.3001 28.4565 23.3287 28.5911 23.1748 28.3841C22.5689 26.7356 21.4009 23.0555 21.2656 18.8756C21.1127 14.1475 21.9008 8.60551 24.224 8.60551C25.7982 8.60551 27.4712 19.8374 23.4375 28.6756ZM69.9912 23.7493C69.6181 20.9435 69.5987 8.43525 72.6015 8.77962C74.2593 9.4512 71.5503 21.2544 69.9912 23.7493ZM91.9177 23.7493C91.5446 20.9435 91.5252 8.43525 94.5281 8.77962C96.1858 9.4512 93.4768 21.2544 91.9177 23.7493ZM113.67 23.9235C113.297 21.1176 113.278 8.60936 116.28 8.95372C117.938 9.62531 115.229 21.4286 113.67 23.9235ZM137.685 8.04749C140.43 7.76297 140.317 19.7519 134.807 27.3206C134.096 24.5851 133.006 8.98697 137.685 8.04749ZM149.224 33.8451C148.342 29.3909 150.621 26.4654 152.97 26.1447C153.791 26.0134 154.98 26.5454 155.217 27.5396C155.608 29.4135 155.161 32.1929 149.904 35.7197C149.912 35.7498 149.421 34.8369 149.224 33.8451Z" fill="#444444"/>
</svg>
