<svg width="160" height="120" viewBox="0 0 160 120" fill="none" xmlns="http://www.w3.org/2000/svg">
<path d="M102.01 41.6114C100.693 41.6114 100.035 41.8936 98.1535 43.1163L91.2871 47.6312C90.1584 48.3837 89.4059 49.6064 89.4059 51.0173C89.3119 53.4629 89.406 56.0025 89.5941 56.6609C89.6881 57.3193 89.9703 58.448 91.8515 58.448H102.48C103.327 58.354 105.208 58.2599 106.619 56.755C108.312 54.9678 108.688 54.2154 109.064 52.6163C109.347 51.6757 109.441 49.7005 108.688 48.1955C107.653 45.75 104.173 41.6114 102.01 41.6114ZM99.5644 22.8936C105.49 19.5074 103.985 15.4629 102.386 13.2054C101.163 11.6064 99.2822 10.6658 97.2129 10.6658C95.3317 10.5718 93.0743 11.2302 90.8168 13.5817C86.4901 17.8144 88.0891 29.3837 88.0891 29.3837L99.5644 22.8936ZM71.8168 29.3837C71.8168 29.3837 75.1089 20.5421 67.7723 13.5817C62.8812 8.87872 57.802 11.7946 56.3911 13.4876C54.698 15.2748 52.5347 20.5421 58.3663 23.2698C62.7871 25.4332 67.2079 27.4084 71.8168 29.3837ZM51.9703 6.33911H108.03C109.252 6.33911 119.881 7.18565 121.856 18.3787C123.55 27.2203 113.767 31.8292 113.767 31.8292C113.767 31.8292 127.312 34.5569 124.866 48.854C122.515 62.0223 110.381 63.3391 107.653 63.3391H54.3218C51.9703 63.3391 43.7871 62.0223 39.3663 54.7797C34.8515 47.5371 34.8515 39.9183 34.8515 39.9183H50.5594C50.5594 39.9183 51.4059 58.448 61.4703 59.8589C70.2178 61.0817 72.1931 53.7451 70.7822 50.3589C67.5842 43.1163 58.6485 41.047 55.8267 39.9183C53.099 38.8837 42.8465 35.9678 38.3317 28.5371C33.8168 21.0124 39.3663 12.8292 40.4951 11.6064C41.1535 10.948 44.6337 6.33911 51.9703 6.33911Z" fill="#1594A1"/>
<path d="M4.28218 89.2995L5.88119 87.4183C7.38614 88.6411 8.79703 89.3936 10.6782 89.3936C12.3713 89.3936 13.4059 88.6411 13.4059 87.5124C13.4059 86.3837 12.8416 85.8193 9.92574 85.1609C6.72772 84.4084 4.84653 83.3738 4.84653 80.646C4.84653 78.0124 7.0099 76.2253 10.0198 76.2253C12.2772 76.2253 13.9703 76.8837 15.5693 78.1064L14.1584 80.1758C12.7475 79.1411 11.4307 78.5767 10.0198 78.5767C8.42079 78.5767 7.57426 79.4233 7.57426 80.3639C7.57426 81.4926 8.23267 82.0569 11.2426 82.7153C14.4406 83.4678 16.1337 84.6906 16.1337 87.1361C16.1337 89.9579 13.8762 91.651 10.6782 91.651C8.32673 91.7451 6.16337 90.8985 4.28218 89.2995Z" fill="#1594A1"/>
<path d="M19.2376 76.2253H25.2574C28.8317 76.2253 31.0891 78.2946 31.0891 81.3045C31.0891 84.6906 28.3614 86.4777 24.9752 86.4777H21.9653V91.3688H19.3317V76.2253H19.2376ZM25.0693 84.1262C27.1386 84.1262 28.3614 82.9975 28.3614 81.3985C28.3614 79.6114 27.0446 78.6708 25.0693 78.6708H21.9653V84.1262H25.0693Z" fill="#1594A1"/>
<path d="M34.0049 76.2253H36.6386V91.4629H34.0049V76.2253Z" fill="#1594A1"/>
<path d="M40.6832 76.2253H43.2228L51.4059 86.7599V76.2253H54.0396V91.4629H51.7822L43.3168 80.646V91.4629H40.6832V76.2253Z" fill="#1594A1"/>
<path d="M63.3515 76.1312H65.797L72.4752 91.4629H69.6535L68.1485 87.7945H60.9059L59.3069 91.4629H56.5792L63.3515 76.1312ZM67.2079 85.4431L64.5743 79.3292L61.9406 85.4431H67.2079Z" fill="#1594A1"/>
<path d="M81.6931 76.2253H88.5594C90.3465 76.2253 91.6634 76.6955 92.5099 77.5421C93.1683 78.2005 93.5445 79.047 93.5445 80.0817C93.5445 81.8688 92.5099 82.9035 91.3812 83.4678C93.1683 84.0322 94.3911 85.0668 94.3911 87.1361C94.3911 89.8639 92.1337 91.2747 88.7475 91.2747H81.6931V76.2253ZM90.8168 80.552C90.8168 79.3292 89.8762 78.5767 88.1832 78.5767H84.3267V82.6213H87.995C89.6881 82.6213 90.8168 81.9629 90.8168 80.552ZM88.5594 84.9728H84.3267V89.1114H88.7475C90.5347 89.1114 91.6634 88.3589 91.6634 87.0421C91.6634 85.7253 90.7228 84.9728 88.5594 84.9728Z" fill="#1594A1"/>
<path d="M97.5891 76.2253H100.223V91.4629H97.5891V76.2253Z" fill="#1594A1"/>
<path d="M104.361 76.2253H115.649V78.6708H106.995V82.8094H114.708V85.255H106.995V91.4629H104.361V76.2253Z" fill="#1594A1"/>
<path d="M118.752 76.2253H121.386V91.4629H118.752V76.2253Z" fill="#1594A1"/>
<path d="M125.525 76.2253H131.168C135.965 76.2253 139.257 79.5173 139.257 83.8441C139.257 88.1708 135.965 91.4629 131.168 91.4629H125.525V76.2253ZM128.252 78.6708V89.0173H131.262C134.46 89.0173 136.53 86.854 136.53 83.8441C136.53 80.8342 134.46 78.6708 131.262 78.6708H128.252Z" fill="#1594A1"/>
<path d="M146.876 76.1312H149.322L156 91.4629H153.178L151.673 87.7945H144.431L142.832 91.4629H140.104L146.876 76.1312ZM150.733 85.4431L148.099 79.3292L145.465 85.4431H150.733Z" fill="#1594A1"/>
<path d="M10.4901 98.3292H12.9356L19.4257 113.285H16.698L15.1931 109.71H8.23267L6.72772 113.285H4L10.4901 98.3292ZM14.2525 107.453L11.7129 101.527L9.17327 107.453H14.2525Z" fill="#1594A1"/>
<path d="M20.8366 111.215L22.4356 109.334C23.8465 110.557 25.2574 111.309 27.1386 111.309C28.7376 111.309 29.7723 110.557 29.7723 109.428C29.7723 108.394 29.2079 107.829 26.3861 107.171C23.1881 106.418 21.401 105.478 21.401 102.75C21.401 100.21 23.5644 98.4233 26.4802 98.4233C28.6436 98.4233 30.3366 99.0817 31.8416 100.304L30.4307 102.28C29.1139 101.245 27.797 100.775 26.3861 100.775C24.8812 100.775 23.9406 101.527 23.9406 102.562C23.9406 103.691 24.599 104.255 27.5149 104.913C30.6188 105.666 32.3119 106.795 32.3119 109.24C32.3119 112.062 30.1485 113.661 27.0446 113.661C24.6931 113.567 22.6238 112.72 20.8366 111.215Z" fill="#1594A1"/>
<path d="M34.1931 111.215L35.7921 109.334C37.203 110.557 38.6139 111.309 40.4951 111.309C42.0941 111.309 43.1287 110.557 43.1287 109.428C43.1287 108.394 42.5644 107.829 39.7426 107.171C36.5446 106.418 34.7574 105.478 34.7574 102.75C34.7574 100.21 36.9208 98.4233 39.8366 98.4233C42 98.4233 43.6931 99.0817 45.198 100.304L43.7871 102.28C42.4703 101.245 41.1535 100.775 39.7426 100.775C38.2376 100.775 37.297 101.527 37.297 102.562C37.297 103.691 37.9554 104.255 40.8713 104.913C43.9753 105.666 45.6683 106.795 45.6683 109.24C45.6683 112.062 43.505 113.661 40.401 113.661C38.1436 113.567 35.9802 112.72 34.1931 111.215Z" fill="#1594A1"/>
<path d="M48.1139 105.948C48.1139 101.715 51.3119 98.2351 55.9208 98.2351C60.5297 98.2351 63.6337 101.715 63.6337 105.854C63.6337 109.993 60.4356 113.567 55.8267 113.567C51.3119 113.567 48.1139 110.087 48.1139 105.948ZM60.9059 105.948C60.9059 103.032 58.8366 100.587 55.8267 100.587C52.9109 100.587 50.8416 102.938 50.8416 105.854C50.8416 108.77 52.9109 111.121 55.9208 111.121C58.8366 111.215 60.9059 108.864 60.9059 105.948Z" fill="#1594A1"/>
<path d="M66.1733 105.948C66.1733 101.715 69.3713 98.2351 73.7921 98.2351C76.5198 98.2351 78.2129 99.1757 79.6238 100.587L77.9307 102.562C76.7079 101.433 75.4852 100.681 73.7921 100.681C70.9703 100.681 68.901 103.032 68.901 105.948C68.901 108.864 70.9703 111.215 73.7921 111.215C75.5792 111.215 76.802 110.463 78.0248 109.334L79.7178 111.027C78.2129 112.626 76.4257 113.661 73.698 113.661C69.3713 113.567 66.1733 110.181 66.1733 105.948Z" fill="#1594A1"/>
<path d="M82.6337 98.5173H85.2673V113.379H82.6337V98.5173Z" fill="#1594A1"/>
<path d="M94.4851 98.3292H96.9307L103.421 113.285H100.693L99.1881 109.71H92.1337L90.6287 113.285H87.995L94.4851 98.3292ZM98.2475 107.453L95.7079 101.527L93.1683 107.453H98.2475Z" fill="#1594A1"/>
<path d="M107.748 100.869H103.045V98.5173H115.084V100.963H110.381V113.379H107.748V100.869Z" fill="#1594A1"/>
<path d="M118 98.5173H120.634V113.379H118V98.5173Z" fill="#1594A1"/>
<path d="M123.926 105.948C123.926 101.715 127.124 98.2351 131.733 98.2351C136.342 98.2351 139.446 101.715 139.446 105.854C139.446 109.993 136.248 113.567 131.639 113.567C127.124 113.567 123.926 110.087 123.926 105.948ZM136.718 105.948C136.718 103.032 134.649 100.587 131.639 100.587C128.723 100.587 126.653 102.938 126.653 105.854C126.653 108.77 128.723 111.121 131.733 111.121C134.648 111.215 136.718 108.864 136.718 105.948Z" fill="#1594A1"/>
<path d="M142.644 98.5173H145.089L153.084 108.77V98.5173H155.624V113.379H153.46L145.277 102.844V113.379H142.738V98.5173H142.644Z" fill="#1594A1"/>
</svg>
