<svg width="160" height="76" viewBox="0 0 160 76" fill="none" xmlns="http://www.w3.org/2000/svg">
<path d="M91.2125 28.9227C87.4748 25.185 79.8214 23.7611 70.7441 29.9906C70.7441 29.9906 70.7441 15.9297 70.5661 10.4121C70.5661 9.52222 69.8542 9.52222 69.8542 9.52222C68.6645 9.75435 67.6546 9.95337 66.7696 10.1278L66.7665 10.1284C62.2271 11.0229 60.9764 11.2694 55.6153 12.014C55.6153 12.014 54.9034 12.014 55.4373 12.37C56.5052 20.2014 56.8612 27.8548 56.5052 65.0538C56.5052 65.0538 56.5052 65.2318 56.6832 65.4098C56.6832 65.5878 56.8612 65.5878 57.0392 65.5878L71.2781 65.4098C71.2781 65.4098 71.4561 65.4098 71.634 65.2318C71.812 65.2318 71.812 65.0538 71.812 64.8758C71.2781 54.5527 71.1001 50.815 71.1001 38C71.4227 37.879 71.7362 37.7489 72.0468 37.6199C73.1068 37.1799 74.1328 36.7541 75.3717 36.7541C79.6734 36.7541 79.6501 39.9146 79.483 62.6379L79.4654 65.0538C79.4654 65.2318 79.4654 65.4098 79.6434 65.5878C79.8214 65.7658 79.9994 65.7658 80.1774 65.7658C81.0268 65.7658 82.4842 65.7252 84.008 65.6829C85.6772 65.6364 87.4262 65.5878 88.5427 65.5878C89.1449 65.5878 90.0797 65.6294 91.0456 65.6723C92.0783 65.7183 93.1466 65.7658 93.8823 65.7658C94.0603 65.7658 94.2383 65.7658 94.4162 65.5878C94.5942 65.4098 94.5942 65.2318 94.5942 65.0538C94.0821 55.9001 94.0765 49.2558 94.0723 44.2846C94.0648 35.4333 94.0618 31.886 91.2125 28.9227Z" fill="#0073CF"/>
<path fill-rule="evenodd" clip-rule="evenodd" d="M18.2389 65.0538L20.9087 53.1288L34.9696 53.3067L37.6393 65.4098C37.6393 65.7658 37.9953 65.9437 38.3513 65.9437C39.0067 65.9437 40.1899 65.906 41.4672 65.8653C42.9649 65.8176 44.5921 65.7658 45.6487 65.7658H53.1241C53.3021 65.7658 53.4801 65.7658 53.6581 65.5878C53.8361 65.4098 53.8361 65.2318 53.8361 65.0538L37.2834 10.5901C37.2834 10.5901 36.9274 9.70019 36.0375 9.87817C34.4113 10.161 32.5042 10.4719 30.5617 10.7886C27.6143 11.2691 24.5855 11.7629 22.3326 12.192C21.2646 12.548 20.9087 13.4379 20.9087 13.4379L4 64.6978C4 64.8758 4 65.0538 4.17799 65.2318C4.17799 65.4098 4.53396 65.5878 4.71194 65.5878H17.5269C17.8829 65.5878 18.2389 65.4098 18.2389 65.0538ZM30.967 34.5467C31.674 37.6965 32.3165 40.5588 32.8337 42.6276H23.7564C25.0023 38.1779 27.4941 28.7447 28.5621 24.117C29.3881 27.513 30.2142 31.193 30.967 34.5467Z" fill="#0073CF"/>
<path fill-rule="evenodd" clip-rule="evenodd" d="M119.512 61.8499C116.842 63.8078 111.681 66.4775 107.409 66.4775C100.824 66.4775 96.73 61.6719 96.73 54.5525C96.73 43.5174 109.723 40.3136 118.978 39.0677C119.156 37.2879 119.156 35.33 114.529 35.33C109.901 35.33 105.985 36.7539 101.892 38.3558C101.767 38.4799 101.557 38.4309 101.38 38.3899C101.304 38.3721 101.234 38.3558 101.18 38.3558C101.002 38.1778 100.824 37.9998 100.824 37.6438L101.18 29.1005C101.18 28.7445 101.358 28.5665 101.714 28.3886C110.079 25.8968 124.318 23.9389 130.191 29.4565C133.861 32.777 133.756 36.9556 133.583 43.8458L133.573 44.2293C133.395 54.5525 133.573 57.4003 134.107 65.0537C134.107 65.2316 134.107 65.4096 133.929 65.5876C133.751 65.7656 133.573 65.7656 133.395 65.7656L120.224 65.9436C120.046 65.9436 119.868 65.9436 119.69 65.7656C119.512 65.5876 119.512 65.4096 119.512 65.2316V61.8499ZM119.156 47.0771C119.027 47.0907 118.895 47.1043 118.761 47.1181C115.388 47.4662 110.613 47.9589 110.613 52.2387C110.613 56.1544 114.885 57.4003 119.156 54.7305V47.0771Z" fill="#0073CF"/>
<path d="M143.007 47.255C142.651 47.255 142.295 46.899 142.295 46.543C141.405 27.1426 141.227 25.0067 140.159 12.9037C140.159 12.5477 140.337 12.1917 140.871 12.0138L155.11 9.69994C155.288 9.69994 155.644 9.69994 155.822 9.87793C156 10.0559 156 10.2339 156 10.5899C155.11 19.3112 154.22 35.8639 154.042 46.365C154.042 46.721 153.686 47.077 153.33 47.077L143.007 47.255Z" fill="#0073CF"/>
<path d="M140.522 63.7792C140.516 63.7196 140.516 63.6601 140.516 63.6006C140.516 62.1608 140.537 60.6992 140.558 59.299L140.558 59.2945C140.572 58.3484 140.586 57.4303 140.592 56.5659C140.585 55.666 140.563 54.8616 140.516 54.1966C140.516 54.0742 140.516 53.9519 140.573 53.8295C140.561 53.3869 140.542 52.977 140.516 52.606C140.516 52.4258 140.516 52.2455 140.696 52.0653C140.876 51.885 141.056 51.885 141.237 51.885C144.841 52.2455 151.15 52.0653 154.033 51.7048C154.214 51.7048 154.394 51.7048 154.574 51.885C154.754 52.0653 154.754 52.2455 154.754 52.4258C154.754 52.9031 154.752 53.3757 154.748 53.8429C154.754 53.9015 154.754 53.96 154.754 54.0186V65.0537C154.754 65.2317 154.754 65.4097 154.576 65.5877C154.398 65.7657 154.22 65.7657 154.042 65.7657C148.881 65.5877 145.677 65.5877 141.228 65.9437C141.05 65.9437 140.872 65.9437 140.694 65.7657C140.516 65.5877 140.516 65.4097 140.516 65.2317C140.516 64.7512 140.518 64.2658 140.522 63.7792Z" fill="#0073CF"/>
</svg>
