<svg width="160" height="208" viewBox="0 0 160 208" fill="none" xmlns="http://www.w3.org/2000/svg">
<path d="M49.4225 127.12C43.6339 122.565 37.4566 118.201 33.2363 112.052C24.3535 101.208 17.5162 88.6553 12.8418 75.4618C10.015 66.8822 9.04792 57.6843 5.40216 49.4376C1.59341 43.4462 6.05816 36.9012 12.6201 34.9978C15.5393 34.4352 20.676 31.679 14.4758 33.651C8.91572 37.7281 8.37999 29.9466 14.0802 29.4536C17.9705 28.9378 19.4027 25.7542 18.0709 22.8887C13.8933 20.1633 28.1971 17.1735 20.999 13.1084C13.5057 5.02071 31.485 3.46421 27.0481 12.6501C25.9875 19.713 39.6154 11.3531 36.4507 19.5103C39.6661 23.4284 48.4872 20.4038 48.2656 25.8973C52.948 26.2193 54.5552 30.1563 58.9464 30.4595C63.5046 32.5169 71.7592 34.136 73.3078 39.2687C68.7893 42.8449 58.3292 31.8808 57.8243 41.7814C59.1909 56.4101 58.842 71.4791 64.1924 85.4091C66.7229 93.8427 72.8615 100.481 78.4017 107.051C83.7053 113.484 90.8885 118.015 98.2108 121.828C104.633 124.856 111.555 126.863 118.556 128.125C121.393 125.955 126.406 117.883 130.832 121.284C131.045 125.113 122.046 129.282 130.409 128.859C135.324 127.376 138.73 132.656 142.775 127.892C146.502 132.307 158.266 125.073 155.614 134.097C152.027 136.411 146.797 135.012 143.206 138.197C137.285 135.238 132.571 140.841 126.014 140.134C118.735 141.438 111.326 141.963 103.946 141.974C91.8357 141.019 79.4702 140.615 67.9505 136.399C61.4591 134.512 55.1267 130.816 49.4225 127.12ZM59.6491 131.554C65.9855 134.291 72.1826 137.179 79.1282 138.053C90.147 139.583 101.527 141.943 112.584 139.792C107.58 137.533 102.404 140.67 97.4186 138.177C91.4401 139.462 85.0223 137.847 78.9414 137.051C72.0306 133.973 64.5691 131.857 58.0966 127.857C50.005 124.903 62.2781 131.647 64.4637 132.195C69.5189 135.063 58.9037 130.723 57.4048 129.531C53.1697 127.154 52.63 127.651 56.9864 130.063C57.863 130.576 58.7297 131.115 59.6491 131.554ZM47.5897 123.032C53.7322 125.307 47.5629 118.714 44.752 119.095C43.5056 116.932 39.9881 115.565 42.469 114.404C38.0082 115.954 37.7945 108.514 35.6983 109.579C30.9771 108.088 33.8615 102.807 28.2358 99.5618C27.7229 96.1446 22.6489 93.1827 21.0338 88.0301C20.3191 85.3903 15.2988 77.8155 18.382 84.8654C21.0059 91.652 25.6228 97.4685 29.4663 103.273C32.4481 108.801 35.9736 114.583 41.4054 118.031C43.2383 119.789 45.0045 122.48 47.5897 123.032ZM29.9017 103.607C30.1144 102.679 31.0238 105.614 29.9017 103.607V103.607ZM54.9478 125.757C52.9907 124.989 56.3065 125.148 54.9478 125.757V125.757ZM58.2785 126.972C56.7568 127.912 57.9336 125.295 58.2785 126.972V126.972ZM62.453 128.712C59.3897 127.519 64.4369 126.82 62.453 128.712V128.712ZM69.6044 132.699C65.7409 132.028 70.812 130.916 69.6044 132.699V132.699ZM55.8722 123.125C51.8845 123.097 58.9544 121.129 55.8722 123.125V123.125ZM59.0011 124.685C57.8869 125.159 58.9116 123.633 59.0011 124.685V124.685ZM74.6436 134.45C77.1593 136.038 89.332 137.929 81.7105 135.102C80.4323 135.37 67.5777 131.464 74.6436 134.45ZM49.8112 115.107C45.905 113.938 49.5667 114.051 49.8112 115.107V115.107ZM57.0907 119.355C53.1577 118.333 58.9891 118.031 57.0907 119.355V119.355ZM63.2173 123.109C58.8073 122.08 65.9387 122.084 63.2173 123.109V123.109ZM46.8443 111.881C49.7952 114.144 58.7486 112.172 51.3637 110.53C48.0052 108.74 40.4344 107.513 45.5949 111.609L46.8443 111.881ZM67.368 124.406C62.2115 123.209 68.5985 122.313 67.368 124.406V124.406ZM61.1321 119.451C68.346 121.49 55.0641 114.885 59.3509 118.698L60.3021 119.129L61.1321 119.451ZM73.6348 126.677C67.4614 125.734 80.4681 126.743 73.6348 126.677V126.677ZM44.2163 107.928C42.5316 108.033 43.9479 106.654 44.2163 107.928V107.928ZM85.1932 133.161C82.9638 134.873 85.3751 130.863 85.1932 133.161V133.161ZM55.8791 115.068C53.7442 115.017 55.4637 113.857 55.8791 115.068V115.068ZM44.8643 107.129C39.4911 105.401 48.7864 106.892 44.8643 107.129V107.129ZM31.815 98.6951C27.548 95.3137 31.326 96.8125 31.815 98.6951V98.6951ZM66.0709 120.434C65.3533 119.614 65.733 120.612 66.0709 120.434V120.434ZM87.3898 133.519C86.2289 133.992 87.3242 132.264 87.3898 133.519V133.519ZM64.1844 118.485C60.8379 117.995 64.5691 116.87 64.1844 118.485V118.485ZM48.3004 108.418C43.6219 106.445 51.2206 108.107 48.3004 108.418V108.418ZM75.1684 125.113C70.7345 124.235 79.7186 123.311 75.1684 125.113V125.113ZM61.1947 115.628C66.4357 116.303 54.9558 112.059 60.0417 115.247L61.1947 115.628ZM79.4115 126.828C84.3076 123.905 82.6925 133.682 87.7168 127.655C92.6706 124.037 83.4379 132.128 89.5417 128.3C93.9597 125.345 100.482 129.702 104.602 131.119C107.564 130.975 110.445 133.682 113.485 132.035C119.332 130.458 102.047 129.698 106.578 126.906C101.227 128.463 97.2755 125.05 94.6426 121.622C88.6402 120.236 81.7025 117.168 78.7048 111.854C77.4823 109.862 80.4681 112.137 77.6493 108.876C74.0343 105.661 72.2293 102.007 69.8022 98.0977C66.9019 96.5521 66.5599 91.9979 66.2687 97.9466C66.2926 94.1915 62.7671 91.664 61.9053 92.7126C61.8894 89.0976 65.6793 90.9106 63.0275 88.2359C62.457 84.4887 60.5775 80.5836 60.0139 76.3514C59.1372 74.3128 59.8896 69.9455 57.0172 74.5613C55.9726 79.4416 56.6713 68.5669 58.2984 72.15C60.4333 68.4934 57.5291 68.9237 57.4128 69.4287C58.8033 66.3425 58.2944 61.9622 57.048 63.632C57.7895 60.359 58.2208 51.5885 55.9417 53.145C57.3233 49.7209 58.5627 37.4826 52.5594 42.1501C50.1292 42.1849 45.9169 43.0317 43.9291 44.0217C50.168 47.4617 43.2999 45.2641 40.7564 44.7165C40.4264 47.9 37.9108 46.5254 34.766 46.5562C39.7903 47.1774 32.3199 51.6929 29.4435 49.9386C25.7003 51.7247 32.6698 56.1894 29.517 57.571C29.9056 59.6483 23.786 56.8186 24.2641 61.6253C20.6332 60.0946 23.7671 67.3245 25.584 64.8784C31.7613 66.5522 29.9325 70.361 30.0875 73.9829C29.0817 76.091 25.1178 69.0251 29.2059 69.3511C25.9796 64.1131 25.6387 67.4567 22.959 69.8908C22.3378 70.0658 29.7923 73.3537 25.1139 74.9768C29.2298 75.6139 29.35 79.2169 30.1889 81.496C32.6618 84.0733 32.1529 78.6494 35.1158 81.7485C33.2403 78.9873 25.1914 73.9709 31.6719 75.5791C31.6371 72.8031 30.499 70.5627 32.4869 70.6164C34.4559 67.0561 30.4255 79.3988 34.8594 74.8724C36.0859 74.3367 36.393 71.3082 38.5986 75.1597C41.801 78.3124 39.7555 80.5945 35.2361 77.7061C36.0432 80.4514 41.2812 81.4294 40.2952 85.7202C41.3389 89.4942 42.7989 88.1037 44.0722 87.886C45.0701 91.5516 45.6376 88.8571 45.6843 87.1098C50.2535 88.0888 49.182 90.7903 50.6143 92.6778C53.763 94.0981 46.1068 83.0446 51.5118 89.3541C57.1991 94.4907 53.6467 96.6336 48.5419 95.8107C51.7722 95.5502 52.8118 100.179 56.8542 100.016C60.5387 101.77 63.0355 108.503 56.6832 105.699C54.4817 103.711 46.6813 101.261 53.0534 105.039C58.9315 107.765 63.606 109.392 69.2784 112.813C73.3356 115.709 75.0899 119.028 76.6275 119.685C73.2153 121.315 66.3472 118.384 71.4481 117.487C68.2645 116.909 64.6854 115.298 67.7328 119.262C70.326 121.428 76.9147 121.199 78.0995 121.443C77.0976 123.649 75.3781 123.824 78.1383 123.995C75.0591 125.637 79.1282 125.893 79.4115 126.828ZM73.1139 109.043C71.2384 107.082 70.7533 103.413 72.78 106.604C73.8206 107.023 76.1077 112.603 73.1139 109.043ZM93.6258 122.072C93.6606 122.961 94.7946 121.995 93.6258 122.072V122.072ZM70.156 104.236C70.0815 101.273 70.8309 106.522 70.156 104.236V104.236ZM68.1174 101.495C65.7568 96.9408 71.0873 102.784 68.1174 101.495V101.495ZM43.4082 84.443C44.0921 86.8106 44.7948 84.0733 43.4082 84.443V84.443ZM63.0742 95.1C63.924 91.9045 64.0721 97.7796 63.0742 95.1V95.1ZM49.182 85.4399C48.204 83.6777 51.2285 87.0948 49.182 85.4399V85.4399ZM61.1013 89.2606C58.8689 84.2601 62.6856 86.5273 61.5982 90.0796L61.1013 89.2606ZM40.5437 75.5513C39.5458 73.9093 37.8959 69.0947 38.4276 67.6237C38.9047 70.019 43.5176 77.9278 40.6868 70.9007C37.5619 65.0106 44.426 72.81 45.1327 74.282C45.4627 75.7421 43.2025 73.8825 44.7322 77.3106C41.9412 73.4084 43.0862 79.4654 40.5437 75.5513ZM34.1915 71.172C34.4519 67.3553 35.6436 73.789 34.1915 71.172V71.172ZM37.049 72.158C38.4117 69.2776 39.3589 76.1725 37.049 72.158V72.158ZM30.173 66.8395C27.8084 64.4858 26.0959 62.32 30.2853 65.3794C31.8965 65.441 26.6982 60.4524 30.6739 63.795C34.8514 64.5564 32.7354 70.6482 30.173 66.8395ZM33.784 66.746C34.5135 68.0858 35.1586 65.3833 33.784 66.746V66.746ZM36.0084 67.4567C33.9231 63.5545 38.536 69.0947 36.0084 67.4567V67.4567ZM31.5903 63.2364C24.7143 57.1128 40.2286 66.4349 32.7125 64.3695L31.5903 63.2364ZM51.2941 74.6816C48.3163 72.8995 50.5019 62.1222 51.5197 69.4913C54.4121 68.555 51.3597 73.3 53.5146 73.2533C53.1776 76.246 52.2105 77.3225 51.2941 74.6816ZM58.5816 78.9913C58.8729 75.7421 59.1949 81.2127 58.5816 78.9913V78.9913ZM57.3164 77.7369C57.3472 79.372 57.6424 76.3514 57.3164 77.7369V77.7369ZM32.9371 61.2247C28.5191 55.1289 45.7768 67.3901 35.7679 62.7703C34.7232 62.495 33.4619 62.3976 32.9371 61.2247ZM46.9725 68.6643C46.554 63.5316 47.9048 69.5141 46.9725 68.6643V68.6643ZM57.6265 75.5006C57.6891 77.4348 58.4494 72.5774 57.6265 75.5006V75.5006ZM33.617 58.8989C36.242 58.3363 44.4956 63.5078 36.9168 60.3749C36.075 59.4426 34.277 59.866 33.617 58.8989ZM56.1624 70.1353C56.4427 64.8864 57.7318 67.0025 56.1743 70.8887L56.1624 70.1353ZM35.5701 57.0711C36.6415 55.5016 32.7274 49.9774 36.1326 55.0902C37.6046 56.259 40.3916 57.0472 37.9307 57.5402C41.801 60.9534 36.9874 58.4646 35.5701 57.0711ZM55.0482 68.4973C55.7012 71.999 55.7867 62.5178 55.0482 68.4973V68.4973ZM33.3337 51.5498C33.7681 52.6401 34.1527 51.1999 33.3337 51.5498V51.5498ZM38.4157 54.5743C39.7237 51.8291 40.827 57.6336 38.4157 54.5743V54.5743ZM52.7462 62.5447C52.7343 61.4931 53.0176 64.0783 52.7462 62.5447V62.5447ZM51.9153 60.7089C49.9274 55.8008 53.767 63.306 51.9153 60.7089V60.7089ZM50.6958 57.4895C50.3628 55.4629 51.8298 60.037 50.6958 57.4895V57.4895ZM52.6836 54.2592C51.317 51.8559 54.4081 43.6599 54.754 48.7429C53.3128 52.7027 54.3385 54.9162 55.3394 49.6046C57.1961 45.4271 54.9399 57.8553 52.6836 54.2592ZM54.7262 42.0726C54.8584 42.9532 55.3205 41.3421 54.7262 42.0726V42.0726ZM51.314 109.291C50.5059 108.585 51.4183 109.738 51.314 109.291V109.291ZM58.3411 112.844C62.2502 113.85 62.2314 112.237 58.6979 111.756C56.7995 109.99 50.8011 108.115 56.1703 111.539C56.5242 112.44 57.6463 112.416 58.3411 112.844ZM44.4648 103.626C46.6157 105.234 52.5753 108.176 47.5321 104.24C49.2327 102.263 44.2779 101.212 45.9209 99.8878C41.7394 97.3284 42.62 97.558 45.5521 97.6395C40.5278 95.3912 46.2777 95.5622 46.0064 94.4092C44.0692 94.0285 36.3811 90.9921 40.9045 94.6577C36.3076 92.316 39.8092 95.5314 38.4197 95.1934C33.7174 93.9122 42.6051 98.7736 37.6742 97.5659C40.3688 99.7009 44.9309 103.041 38.8113 99.8252C38.0082 100.986 43.1916 102.745 44.4648 103.626ZM51.8139 107.85C47.4307 104.329 60.7484 110.728 51.8139 107.85V107.85ZM89.4363 130.641C88.2168 132.155 89.5526 128.867 89.4363 130.641V130.641ZM93.3037 132.268C95.3652 130.272 93.3892 135.452 96.7199 131.779C96.7547 129.15 96.6195 127.598 92.8922 130.792C91.8625 131.364 91.4053 133.782 93.3037 132.268ZM31.9203 93.7184C27.4824 91.2405 31.2872 91.2296 31.9203 93.7184V93.7184ZM36.0471 96.4239C30.5765 94.122 34.5135 93.8814 36.0471 96.4239V96.4239ZM59.5408 110.591C61.8358 112.63 70.0745 112.086 62.3248 110.844C61.1788 109.147 55.0412 109.555 59.5408 110.591ZM91.8317 130.537C88.4116 131.857 95.3612 127.574 91.8317 130.537V130.537ZM99.1739 135.58C97.6522 135.995 99.1968 134.629 99.1739 135.58V135.58ZM99.1858 134.248C95.3999 134.493 103.095 130.109 99.1858 134.248V134.248ZM21.7633 85.2153C18.4326 80.4633 19.6939 78.3273 16.4796 74.445C15.8693 71.4752 10.9662 64.7423 13.944 71.8747C16.6694 76.0483 17.4775 82.5088 21.7633 85.2153ZM97.9583 132.932C95.0083 130.909 105.153 128.284 97.9583 132.932V132.932ZM103.449 135.083C101.17 134.438 107.052 131.992 103.449 135.083V135.083ZM30.6968 88.4645C28.0341 88.2667 31.7265 86.9308 30.6968 88.4645V88.4645ZM102.303 133.615C105.79 131.368 101.5 131.713 101.671 133.821L102.303 133.615ZM54.9826 103.789C53.1388 103.917 54.8623 102.267 54.9826 103.789V103.789ZM57.9058 105.471C56.4775 105.766 56.9744 103.591 57.9058 105.471V105.471ZM107.898 135.134C112.366 131.91 105.192 134.515 106.962 135.747L107.898 135.134ZM106.186 134.307C102.346 135.657 109.828 131.258 106.186 134.307V134.307ZM114.929 140.126C111.959 139.598 117.372 138.491 114.929 140.126V140.126ZM32.9371 87.3582C36.2102 88.0918 46.0253 95.422 40.2366 87.8671C37.2707 86.9895 39.0488 79.7407 36.0243 81.0219C38.0549 84.4152 37.6931 85.8554 33.4301 83.7204C28.0768 81.1034 30.4215 85.0135 31.4701 86.093C30.0408 86.419 33.3566 87.3314 32.9371 87.3582ZM18.0172 75.5751C18.6026 73.148 12.6161 62.2346 15.1904 70.1045C16.1178 71.7545 16.0214 74.8794 18.0172 75.5751ZM45.4041 92.4601C43.7154 91.0507 45.3225 92.2583 45.4041 92.4601V92.4601ZM49.5547 93.4272C44.9657 92.3826 49.5547 90.8569 49.5547 93.4272V93.4272ZM85.5461 116.113C82.8326 116.074 84.8593 114.357 85.5461 116.113V116.113ZM87.2735 117.374C86.2756 117.565 87.0171 116.392 87.2735 117.374V117.374ZM101.538 126.362C99.8259 126.231 102.909 125.349 101.538 126.362V126.362ZM25.4677 77.4775C21.2624 76.3941 29.3928 75.9588 25.4677 77.4775V77.4775ZM82.3774 113.329C79.8737 113.962 82.3317 110.789 82.3774 113.329V113.329ZM23.9182 73.8626C21.5844 73.304 26.4378 73.0128 23.9182 73.8626V73.8626ZM31.2325 77.407C30.4602 77.726 31.1898 76.5731 31.2325 77.407V77.407ZM120.474 132.132C123.715 131.476 131.104 133.782 132.296 131.274C128.359 131.177 118.68 128.494 118.222 131.91L119.083 132.047L120.474 132.132ZM33.5583 77.9934C31.5516 77.897 33.617 75.4191 33.5583 77.9934V77.9934ZM14.3247 64.6498C11.001 63.9073 13.451 59.7457 14.3247 64.6498V64.6498ZM18.9097 65.8028C14.7123 64.3854 18.9684 64.2264 18.9097 65.8028V65.8028ZM21.5307 67.0919C20.7734 66.4777 20.9403 67.8642 21.5307 67.0919V67.0919ZM38.0271 77.6713C36.1873 77.1436 38.8043 76.9567 38.0271 77.6713V77.6713ZM19.7874 64.1876C14.4718 63.632 19.3411 60.4832 19.7874 64.1876V64.1876ZM10.3798 58.0839C9.46338 58.728 10.2476 56.3753 10.3798 58.0839V58.0839ZM11.7812 57.0283C10.5776 57.2838 11.5526 55.0007 11.7812 57.0283V57.0283ZM19.5081 61.6402C22.7771 60.359 13.5554 58.9844 18.8402 61.3997L19.5081 61.6402ZM122.955 125.539C120.299 124.946 125.047 123.622 122.955 125.539V125.539ZM135.453 132.016C133.34 132.342 136.291 129.539 135.453 132.016V132.016ZM20.2993 57.5909C17.7061 58.068 20.6451 55.1915 20.2993 57.5909V57.5909ZM9.30038 50.2219C8.70998 46.8365 8.79148 40.8918 14.441 42.8996C6.90102 44.3984 19.6631 52.2753 18.052 46.0553C21.2236 46.2113 24.2561 44.1807 22.5903 47.2589C28.8411 46.5721 33.1707 41.1522 39.2079 41.9136C43.9092 41.2884 49.0498 40.8183 54.1169 38.9238C58.2825 38.6246 62.293 34.14 60.0109 31.4802C54.3306 30.9992 48.3819 31.7098 42.1042 32.9602C35.1466 34.4044 28.8262 37.1526 21.8061 38.3334C14.9608 39.2538 23.1807 40.865 21.2196 41.2258C17.6514 42.4642 25.4786 43.2991 20.7575 44.6071C17.8422 44.0525 14.8058 43.0506 16.0522 39.9754C9.49817 40.8302 3.73633 43.5476 8.91572 50.2179L9.30038 50.2219ZM25.099 42.177C26.6326 36.5165 33.3297 46.8365 27.6146 42.9304C26.9348 42.4175 25.8086 42.002 25.099 42.177ZM25.3971 39.4317C26.574 40.36 27.6146 37.7818 25.3971 39.4317V39.4317ZM28.212 39.4784C28.4147 36.8733 34.6616 40.857 29.2417 40.4147L28.212 39.4784ZM32.0635 37.9299C32.472 39.389 33.4729 36.2829 32.0635 37.9299V37.9299ZM33.0504 37.2699C35.3951 34.4551 46.3165 35.4719 38.3223 36.9936C36.1793 35.3784 34.5374 37.9448 33.0504 37.2699ZM47.3064 35.0723C46.9536 27.3803 54.3922 37.8017 47.3064 35.0723V35.0723ZM51.3527 35.0485C52.8317 31.1741 57.0947 33.492 52.0396 34.2682C52.1479 34.6837 51.8885 36.272 51.3527 35.0485ZM18.704 55.603C14.0136 53.2544 23.122 52.8965 18.704 55.603V55.603ZM21.973 56.5075C18.6026 55.8396 23.5226 54.8615 21.973 56.5075V56.5075ZM12.3448 49.6782C9.35504 48.9407 14.8684 47.737 12.3448 49.6782V49.6782ZM142.829 131.309C140.899 132.322 142.903 129.057 142.829 131.309V131.309ZM129.57 122.258C127.866 122.484 129.947 119.669 129.57 122.258V122.258ZM146.475 132.183C150.005 132.195 157.171 131.083 149.492 131.087C148.284 131.274 142.469 131.235 146.475 132.183ZM24.8465 54.9192C27.7041 54.7254 29.3152 51.7704 24.2909 51.9374C16.5064 51.1343 31.159 54.6051 23.293 53.6112C22.2374 54.3099 24.7839 55.114 24.8465 54.9192ZM27.3622 56.1934C26.4766 57.1675 27.063 54.3606 27.3622 56.1934V56.1934ZM30.3479 48.234C28.6314 47.8225 31.5864 46.6964 30.3479 48.234V48.234ZM20.8429 32.3499C25.9448 30.6185 32.9182 28.6694 35.3256 33.2047C32.8755 30.2577 34.3356 27.3534 36.6495 31.6671C39.9225 36.0275 41.5605 29.6832 39.4325 28.2191C41.8597 31.2318 44.6159 32.6571 41.0556 28.41C44.927 23.7544 33.3099 29.0193 30.67 28.9646C29.4007 29.5351 17.555 31.9852 20.8429 32.3499ZM23.8327 26.6278C26.7409 24.4342 33.8923 27.9359 29.3033 24.4452C28.8531 24.0496 19.2556 27.093 23.8327 26.6278ZM34.436 27.0662C37.8372 27.1517 32.9689 22.4921 37.0222 24.6042C36.3583 22.4305 32.301 22.023 30.3171 21.1533C29.195 23.1411 32.5992 27.093 34.436 27.0662ZM25.6923 17.4409C23.6269 18.253 26.8692 15.8456 25.6923 17.4409V17.4409ZM30.0259 18.4776C35.5114 17.752 28.6274 16.117 28.9187 18.4199L30.0259 18.4776ZM21.9343 12.1492C18.0709 7.10598 29.1989 12.996 25.2729 7.71527C21.9691 5.0873 18.7974 10.6782 21.9343 12.1492ZM71.4948 38.8423C73.266 35.7045 64.1844 34.6101 70.3031 37.7311C70.8657 37.918 70.7384 39.059 71.4948 38.8423Z" fill="black"/>
<path d="M35.5326 155.705C35.1413 157.252 34.8982 159.849 34.8071 163.493C34.8071 164.209 34.4846 164.567 33.8385 164.567C33.1917 164.567 32.7419 164.255 32.4871 163.632C31.7948 161.947 31.1388 160.772 30.5136 160.101C29.7757 159.318 28.7948 158.844 27.5714 158.683C26.2563 158.474 22.98 158.371 17.7419 158.371C16.5425 158.371 15.7566 158.498 15.3886 158.753C15.1579 158.913 15.0428 159.26 15.0428 159.791V175.471C15.0428 176.003 15.377 176.255 16.0446 176.233C18.1 176.209 21.076 176.07 24.9751 175.817C25.737 175.724 26.2514 175.476 26.516 175.072C26.7831 174.668 27.0428 173.625 27.2951 171.94C27.4557 171.017 27.9991 170.659 28.9222 170.868C29.7062 171.029 30.0428 171.387 29.9271 171.94C29.2803 175.079 29.0711 179.164 29.3019 184.195C29.3265 184.793 28.9462 185.118 28.1603 185.164C27.5136 185.233 27.1099 184.887 26.9486 184.125C26.3505 181.241 25.2348 179.7 23.6096 179.502C21.9825 179.308 19.3333 179.209 15.665 179.209C15.2496 179.209 15.0428 179.358 15.0428 179.659V195.236C15.0428 196.39 15.468 197.175 16.3216 197.589C16.9923 197.935 18.4342 198.247 20.6483 198.524C21.7806 198.639 22.2754 199.137 22.1388 200.012C21.9991 200.774 20.985 201.075 19.0908 200.913C13.6219 200.474 9.10988 200.498 5.55726 200.983C4.56403 201.12 4.06926 200.716 4.06926 199.772C4.06926 199.171 4.56403 198.825 5.55726 198.733C7.8188 198.478 8.94865 196.493 8.94865 192.779V163.147C8.94865 161.625 8.67726 160.454 8.13634 159.635C7.59296 158.815 6.58311 158.07 5.10742 157.401C4.18434 156.986 3.83849 156.421 4.06926 155.705C4.18434 155.267 4.36957 155.024 4.62188 154.979C4.85265 154.909 5.46557 154.955 6.45572 155.118C7.91049 155.348 11.3382 155.464 16.737 155.464C23.1074 155.464 28.6096 155.324 33.2496 155.048C34.7948 154.955 35.569 155.082 35.569 155.428C35.569 155.522 35.5573 155.613 35.5326 155.705Z" fill="black"/>
<path d="M57.9809 199.647C57.9809 200.57 57.4615 200.974 56.4234 200.858C53.2406 200.558 49.2935 200.603 44.5865 200.995C43.6394 201.089 43.0578 201.065 42.8369 200.928C42.6178 200.788 42.5095 200.409 42.5095 199.783C42.5095 199.231 43.1372 198.764 44.3945 198.382C45.6542 198.002 46.2812 196.865 46.2812 194.974V163.647C46.2812 161.777 46.0098 160.404 45.4689 159.526C44.9255 158.649 43.9735 157.969 42.6129 157.486C41.8966 157.231 41.5385 156.873 41.5385 156.411C41.5385 155.719 42.0578 155.199 43.096 154.854C44.6658 154.346 46.2935 153.562 47.9785 152.5C49.3631 151.668 50.2406 151.255 50.608 151.255C51.4615 151.255 51.8898 151.841 51.8898 153.019C51.8898 152.928 51.8437 154.082 51.7502 156.481C51.6831 158.764 51.6591 161.014 51.6831 163.231L51.8197 194.142C51.8197 195.55 52.1662 196.572 52.8585 197.207C53.5508 197.841 54.7403 198.262 56.4234 198.469C57.4615 198.584 57.9809 198.976 57.9809 199.647Z" fill="black"/>
<path d="M89.2886 197.606C89.2886 198.091 88.4062 198.822 86.6418 199.802C84.8751 200.783 83.4615 201.274 82.4012 201.274C81.4997 201.274 80.7046 200.836 80.0123 199.959C79.32 199.082 78.8338 198.644 78.5575 198.644C78.3508 198.644 77.2548 199.118 75.2689 200.062C73.2862 201.009 71.2886 201.483 69.2812 201.483C67.3895 201.483 65.8074 200.928 64.5385 199.822C63.1538 198.598 62.4615 196.937 62.4615 194.836C62.4615 190.844 67.0314 187.983 76.1705 186.252C77.7378 185.952 78.536 185.317 78.5575 184.348L78.6277 182.132C78.7668 178.348 77.0935 176.457 73.608 176.457C72.6154 176.457 71.6757 177.343 70.7858 179.12C69.8991 180.899 68.6228 181.855 66.9612 181.995C65.0695 182.178 64.1225 181.382 64.1225 179.606C64.1225 178.497 65.5311 177.207 68.3458 175.728C71.3003 174.183 74.1397 173.409 76.8628 173.409C81.5458 173.409 83.8652 175.637 83.8197 180.091L83.68 194.351C83.6585 195.851 84.2935 196.601 85.584 196.601C85.8388 196.601 86.3243 196.543 87.0382 196.428C87.7551 196.313 88.1705 196.255 88.2862 196.255C88.9545 196.255 89.2886 196.706 89.2886 197.606ZM78.6277 189.714C78.6517 189.137 78.5169 188.754 78.2283 188.572C77.9397 188.387 77.4855 188.351 76.8628 188.466C71.3003 189.459 68.5194 191.271 68.5194 193.902C68.5194 196.555 69.9612 197.882 72.8462 197.882C74 197.882 75.1902 197.663 76.4111 197.226C77.8437 196.716 78.5575 196.106 78.5575 195.39L78.6277 189.714Z" fill="black"/>
<path d="M115.024 193.623C115.024 196.07 114.081 198.015 112.202 199.457C110.322 200.899 107.754 201.62 104.5 201.62C102.332 201.62 100.161 201.39 97.9926 200.928C96.1225 200.512 95.0382 200.132 94.7378 199.786C94.5526 199.462 94.4615 197.882 94.4615 195.043C94.4615 193.82 94.7378 193.185 95.2929 193.14C95.8462 193.07 96.3194 193.37 96.7114 194.039C98.4418 197.063 101.235 198.575 105.089 198.575C108.341 198.575 109.969 197.442 109.969 195.18C109.969 194.19 109.601 193.358 108.86 192.69C108.052 191.928 106.486 191.039 104.154 190.024C100.783 188.524 98.5335 187.209 97.4037 186.077C96.1797 184.878 95.5692 183.262 95.5692 181.231C95.5692 178.738 96.5262 176.801 98.4418 175.416C100.218 174.077 102.596 173.409 105.572 173.409C107.442 173.409 109.149 173.558 110.697 173.858C112.358 174.159 113.223 174.527 113.293 174.966C113.476 176.257 113.858 178.127 114.435 180.575C114.505 180.873 114.18 181.116 113.466 181.3C112.704 181.462 112.197 181.334 111.942 180.921C110.12 177.942 107.812 176.454 105.019 176.454C101.858 176.454 100.276 177.469 100.276 179.5C100.276 180.632 100.704 181.531 101.558 182.199C102.319 182.777 104.108 183.678 106.923 184.902C109.877 186.17 111.884 187.313 112.947 188.327C114.332 189.642 115.024 191.409 115.024 193.623Z" fill="black"/>
<path d="M155.748 199.681C155.748 200.488 155.204 200.916 154.12 200.962C152.505 200.986 150.391 201.101 147.786 201.308C146.493 201.562 145.57 201.402 145.017 200.825C141.37 196.902 138.276 192.793 135.738 188.5C135.531 188.132 135.266 187.947 134.942 187.947C134.55 187.947 133.87 188.294 132.902 188.986C131.815 189.585 131.274 190.44 131.274 191.546C131.274 192.332 131.295 193.462 131.343 194.94C131.39 196.416 131.757 197.385 132.449 197.846C132.935 198.171 134.055 198.423 135.807 198.609C136.892 198.748 137.435 199.151 137.435 199.82C137.435 200.351 137.348 200.681 137.175 200.806C137.002 200.933 136.545 200.962 135.807 200.892C133.5 200.686 129.601 200.801 124.108 201.238C122.724 201.354 121.974 201.18 121.858 200.719C121.812 200.558 121.788 200.327 121.788 200.026C121.788 199.313 122.493 198.769 123.902 198.402C125.17 198.077 125.805 196.589 125.805 193.935V163.681C125.805 161.789 125.62 160.474 125.25 159.736C124.743 158.789 123.68 158.05 122.065 157.519C121.305 157.267 120.923 156.909 120.923 156.447C120.923 155.777 121.466 155.257 122.55 154.89C124.281 154.313 125.93 153.517 127.5 152.5C128.769 151.671 129.555 151.255 129.853 151.255C130.801 151.255 131.274 151.854 131.274 153.055C131.274 152.892 131.262 154.036 131.238 156.481C131.216 158.166 131.204 160.428 131.204 163.267L131.274 184.935C131.274 185.536 131.435 185.834 131.757 185.834C132.103 185.834 132.634 185.536 133.351 184.935C135.266 183.435 137.62 181.474 140.411 179.05C140.966 178.474 141.242 178.012 141.242 177.666C141.242 177.044 140.308 176.604 138.44 176.351C137.632 176.257 137.25 175.808 137.295 175C137.365 174.193 137.769 173.846 138.507 173.962C140.17 174.193 142.594 174.32 145.776 174.344C147.993 174.366 150.197 174.378 152.39 174.378C153.103 174.402 153.462 174.827 153.462 175.659C153.462 176.442 152.897 176.87 151.767 176.94C149.988 177.007 148.314 177.411 146.748 178.151C144.555 179.142 142.211 180.885 139.719 183.378C139.536 183.517 139.442 183.69 139.442 183.897C139.442 184.219 139.834 184.993 140.62 186.217C143.505 190.601 146.228 193.911 148.788 196.151C150.428 197.558 151.961 198.262 153.391 198.262C154.454 198.262 155.113 198.337 155.365 198.488C155.62 198.638 155.748 199.036 155.748 199.681Z" fill="black"/>
</svg>
