<svg width="160" height="56" viewBox="0 0 160 56" fill="none" xmlns="http://www.w3.org/2000/svg">
<path fill-rule="evenodd" clip-rule="evenodd" d="M49.891 21.7344H56.6567V26.732H57.7508V15.9053H56.6567V20.7783H49.891V15.9053H48.7963V26.732H49.891V21.7344Z" fill="black"/>
<path fill-rule="evenodd" clip-rule="evenodd" d="M62.6449 20.3734C64.1275 20.3734 65.246 21.5584 65.246 23.1291C65.246 24.691 64.1275 25.8693 62.6449 25.8693C61.129 25.8693 60.0277 24.7165 60.0277 23.1291C60.0277 21.5318 61.129 20.3734 62.6449 20.3734ZM62.6449 26.8719C64.7344 26.8719 66.3096 25.2624 66.3096 23.1291C66.3096 20.9869 64.7338 19.3713 62.6449 19.3713C60.5465 19.3713 58.9641 20.9869 58.9641 23.1291C58.9641 25.2624 60.5471 26.8719 62.6449 26.8719ZM68.6169 22.2695C69.3446 21.0468 70.0862 20.3734 70.7075 20.3734C71.0589 20.3734 71.3865 20.5635 72.0072 21.126L72.1292 21.2363L72.7111 20.3024L72.6247 20.2254C71.9208 19.603 71.4635 19.3707 70.9403 19.3707C70.1849 19.3707 69.3867 19.9544 68.6169 21.064V19.5104H67.5993V26.7323H68.6169V22.2695ZM74.2652 21.7601C74.8788 20.763 75.428 20.3728 76.2167 20.3728C77.2892 20.3728 77.9055 21.1975 77.9055 22.633V26.7323H78.9226V21.8992C79.6032 20.7735 80.1208 20.3728 80.8901 20.3728C81.9377 20.3728 82.5623 21.2241 82.5623 22.6491V26.7323H83.5799V22.3243C83.5799 20.5579 82.5546 19.3713 81.0293 19.3713C80.0516 19.3713 79.325 19.8274 78.6377 20.8844C78.161 19.8662 77.4172 19.3713 76.3714 19.3713C75.4879 19.3713 74.8416 19.7055 74.2652 20.4754V19.511H73.2482V26.7323H74.2652V21.7601ZM85.8872 23.1291C85.8872 21.5323 86.9874 20.3734 88.5044 20.3734C89.987 20.3734 91.1049 21.5584 91.1049 23.1291C91.1049 24.691 89.987 25.8693 88.5044 25.8693C86.9874 25.8693 85.8872 24.717 85.8872 23.1291ZM88.5044 26.8714C90.5928 26.8714 92.1685 25.2624 92.1685 23.1291C92.1685 20.9869 90.5928 19.3707 88.5044 19.3707C86.4055 19.3707 84.8231 20.9869 84.8231 23.1285C84.8231 25.2624 86.4055 26.8714 88.5044 26.8714ZM94.4603 21.7601C95.075 20.7752 95.6963 20.3728 96.5975 20.3728C98.0441 20.3728 98.3478 21.6027 98.3478 22.633V26.7323H99.3665V22.3554C99.3665 20.5153 98.3229 19.3713 96.6435 19.3713C95.7041 19.3713 95.0661 19.685 94.4603 20.4698V19.511H93.4439V26.7323H94.4603V21.7601ZM101.801 22.1248C102.086 21.0396 102.891 20.3734 103.932 20.3734C105.022 20.3734 105.687 20.9465 105.96 22.1248H101.801ZM104.212 26.8714C105.251 26.8714 106.128 26.5671 106.971 25.9142L107.025 25.8726V24.6827L106.801 24.8633C105.92 25.5783 105.195 25.8693 104.304 25.8693C103.926 25.8683 103.552 25.7872 103.208 25.6312C102.863 25.4751 102.556 25.2478 102.306 24.9642C101.829 24.4255 101.602 23.7332 101.659 23.0033H107.15V22.8658C107.15 20.4643 105.482 19.3707 103.932 19.3707C102.007 19.3707 100.609 20.9121 100.609 23.0354C100.609 25.258 102.124 26.8714 104.212 26.8714ZM112.938 21.7346H119.704V26.7317H120.799V15.9061H119.704V20.778H112.938V15.9061H111.844V26.7323H112.938L112.938 21.7346ZM123.483 22.1248C123.768 21.0396 124.573 20.3734 125.615 20.3734C126.704 20.3734 127.369 20.9465 127.643 22.1248H123.483ZM125.894 26.8714C126.932 26.8714 127.809 26.5671 128.654 25.9142L128.707 25.8726V24.6827L128.483 24.8633C127.602 25.5783 126.878 25.8693 125.986 25.8693C125.608 25.8682 125.234 25.7871 124.89 25.6311C124.546 25.4752 124.238 25.2481 123.988 24.9648C123.752 24.699 123.573 24.388 123.462 24.0508C123.351 23.7135 123.309 23.3571 123.34 23.0033H128.831V22.8658C128.831 20.4643 127.163 19.3707 125.615 19.3707C123.689 19.3707 122.29 20.9121 122.29 23.0354C122.29 25.258 123.806 26.8714 125.894 26.8714ZM134.141 23.1845V25.1565C133.468 25.7468 132.96 25.9779 132.345 25.9779C131.638 25.9779 131.104 25.5456 131.104 24.9709C131.104 24.6017 131.257 24.2686 131.556 23.9815C132.084 23.4755 132.999 23.1834 134.034 23.1834L134.141 23.1845ZM130.087 24.9709C130.087 26.0367 130.97 26.8719 132.097 26.8719C132.805 26.8719 133.451 26.6391 134.166 26.1231C134.224 26.5832 134.339 26.8719 134.774 26.8719C135.092 26.8719 135.403 26.7666 136.14 26.2102L136.319 26.0755V25.1033L136.097 25.2801C135.374 25.8527 135.208 25.8699 135.184 25.8754C135.179 25.8687 135.158 25.8311 135.158 25.652V21.32C135.158 19.8834 133.968 19.3713 132.855 19.3713C132.078 19.3713 131.429 19.5858 130.538 20.1356L130.473 20.1755V21.2857L130.693 21.1194C131.539 20.482 132.053 20.2659 132.731 20.2659C133.68 20.2659 134.141 20.686 134.141 21.5517V22.3027C132.566 22.3936 130.087 22.8703 130.087 24.9709Z" fill="black"/>
<path fill-rule="evenodd" clip-rule="evenodd" d="M137.858 26.7323H138.875V15.9051H137.858V26.7323ZM141.804 25.2486C141.804 26.3698 142.681 26.8714 143.551 26.8714C143.815 26.8714 144.122 26.8071 144.393 26.7417C144.721 26.6447 144.926 26.571 145.056 26.4978L145.127 26.459V25.4559L144.933 25.5423C144.332 25.8111 144.116 25.8693 143.721 25.8693C142.851 25.8693 142.821 25.6099 142.821 24.3823V20.3895H144.771V19.5116H142.821V17.2053H142.385L141.804 17.9453V19.5116H139.932V20.3895H141.804V25.2486ZM147.417 21.7612C148.073 20.7497 148.655 20.374 149.554 20.374C150.732 20.374 151.305 21.1133 151.305 22.6342V26.7323H152.323V22.3393C152.323 20.5081 151.279 19.3713 149.601 19.3713C148.66 19.3713 148.022 19.685 147.417 20.471V15.9062H146.4V26.7328H147.417V21.7612ZM53.7813 36.926L49.6832 32.2426H48.7576V38.8609H49.8882V34.2074L53.8899 38.8132L53.9304 38.8609H54.9119V32.2426H53.7813V36.926ZM67.0012 36.0708H69.5962V34.9767H67.0012V33.3362H69.6893V32.2421H65.814V38.8609H69.7735V37.7679H67.0012V36.0708ZM79.939 33.3356H82.1338V38.8614H83.3204V33.3356H85.5169V32.2421H79.939V33.3356ZM101.373 36.3817L99.7001 32.2426H98.6493L96.9837 36.3829L95.362 32.3291L95.3277 32.2426H94.12L96.7992 38.9174H97.1589L99.1691 33.9558L101.161 38.9174H101.524L104.21 32.2426H103.012L101.373 36.3817ZM116.624 37.8333C115.297 37.8333 114.296 36.8523 114.296 35.552C114.296 34.2296 115.274 33.2702 116.624 33.2702C117.978 33.2702 118.961 34.229 118.961 35.552C118.961 36.8739 117.978 37.8333 116.624 37.8333ZM116.624 32.1578C114.604 32.1578 113.082 33.6166 113.082 35.552C113.082 37.4858 114.597 38.9446 116.606 38.9446C118.95 38.9446 120.176 37.2375 120.176 35.552C120.176 33.5856 118.682 32.1578 116.624 32.1578ZM133.373 34.121C133.378 34.3815 133.307 34.5876 133.162 34.7351C132.98 34.9202 132.677 35.0139 132.264 35.0139H131.815V33.2985H132.264C133.246 33.2985 133.368 33.7674 133.373 34.121ZM134.909 37.3777C134.474 36.6627 134.145 36.1251 133.659 35.7372C134.261 35.4179 134.589 34.8637 134.589 34.1559C134.589 32.9753 133.737 32.2426 132.367 32.2426H130.629V38.8609H131.816V36.1079H132.06C132.456 36.1079 132.8 36.2066 133.628 37.4958L134.505 38.8609H135.938L135.69 38.5184C135.322 38.0085 135.168 37.7967 134.909 37.3777ZM152.001 32.2421H150.492L148.02 34.9296V32.2421H146.835V38.8614H148.02V35.914L151.055 38.8614H152.706L149.117 35.3791L152.001 32.2421ZM48.6018 29.6582H152.289V29.0402H48.6018V29.6582ZM19.8286 13.2136C19.9736 13.3402 20.1432 13.4353 20.3267 13.493C20.5102 13.5507 20.7037 13.5698 20.895 13.549C21.094 13.5256 21.286 13.4611 21.4588 13.3594C21.6315 13.2578 21.7811 13.1213 21.8982 12.9587C22.3976 12.2836 22.2917 11.2948 21.661 10.7556C21.5148 10.629 21.344 10.5341 21.1593 10.4768C20.9746 10.4196 20.7801 10.4013 20.588 10.423C20.1944 10.4685 19.8403 10.678 19.5925 11.0122C19.0882 11.6873 19.1946 12.6749 19.8286 13.2136ZM15.9317 15.3503C15.7823 15.368 15.6382 15.4165 15.5086 15.4929C15.3789 15.5692 15.2665 15.6716 15.1785 15.7937C14.8 16.308 14.8792 17.0551 15.3559 17.4614C15.4673 17.5574 15.5974 17.6294 15.738 17.6728C15.8786 17.7162 16.0266 17.7301 16.1728 17.7136C16.3216 17.6961 16.4651 17.6478 16.5942 17.5718C16.7233 17.4959 16.8351 17.3939 16.9227 17.2724C17.3052 16.7597 17.2259 16.0115 16.747 15.6041C16.6364 15.5074 16.5068 15.4348 16.3665 15.3911C16.2262 15.3474 16.0777 15.3335 15.9317 15.3503ZM14.1953 20.8207C14.1204 20.7554 14.0327 20.7065 13.9379 20.677C13.843 20.6475 13.743 20.6381 13.6444 20.6494C13.4393 20.6722 13.2564 20.7791 13.1289 20.9504C12.8728 21.2951 12.9277 21.8023 13.2525 22.0805C13.3291 22.1462 13.4186 22.1952 13.5152 22.2244C13.6119 22.2535 13.7136 22.2622 13.8137 22.2497C13.9139 22.2373 14.0104 22.2041 14.097 22.1523C14.1836 22.1004 14.2584 22.031 14.3167 21.9486C14.5788 21.6027 14.5245 21.0956 14.1953 20.8207ZM18.1005 15.5947C18.2732 15.574 18.4396 15.5177 18.5894 15.4293C18.7392 15.341 18.869 15.2225 18.9707 15.0815C19.4085 14.4901 19.316 13.621 18.7639 13.1438C18.636 13.0326 18.4863 12.9492 18.3244 12.8988C18.1625 12.8484 17.9919 12.8322 17.8234 12.8512C17.6491 12.8719 17.4809 12.9285 17.3296 13.0176C17.1783 13.1066 17.0471 13.226 16.9443 13.3683C16.5037 13.9624 16.5979 14.8293 17.1538 15.3009C17.2828 15.4126 17.4335 15.4963 17.5964 15.5469C17.7594 15.5974 17.931 15.6137 18.1005 15.5947ZM33.0131 13.0352C33.0862 13.0352 33.16 13.0302 33.2337 13.0213C33.7735 12.9592 34.2557 12.6755 34.5921 12.2215C35.275 11.2965 35.1297 9.94691 34.2679 9.21309C33.8517 8.85837 33.3312 8.69431 32.8019 8.7575C32.2621 8.81957 31.7821 9.10446 31.4473 9.55949C30.7606 10.4801 30.9036 11.8308 31.7671 12.5702C32.1138 12.8686 32.5556 13.0335 33.0131 13.0352ZM13.1577 24.7398C13.2469 24.7396 13.3348 24.7181 13.414 24.6771C13.4931 24.636 13.5613 24.5765 13.6128 24.5037C13.7072 24.375 13.7502 24.2158 13.7334 24.0571C13.7166 23.8984 13.6411 23.7517 13.5219 23.6457C13.4634 23.5964 13.3955 23.5595 13.3223 23.5371C13.2492 23.5147 13.1723 23.5073 13.0962 23.5154C13.0183 23.525 12.9432 23.5508 12.8759 23.5911C12.8085 23.6313 12.7502 23.6852 12.7049 23.7493C12.6124 23.8786 12.5708 24.0374 12.5881 24.1954C12.6054 24.3534 12.6803 24.4995 12.7986 24.6056C12.8983 24.692 13.0258 24.7396 13.1577 24.7398ZM15.3099 18.0489C15.2171 17.9679 15.1085 17.9071 14.9909 17.8704C14.8733 17.8338 14.7494 17.8221 14.627 17.8361C14.3748 17.8649 14.1504 17.9968 13.993 18.208C13.6759 18.637 13.7425 19.2655 14.1426 19.6102C14.2359 19.6894 14.3444 19.7487 14.4615 19.7844C14.5785 19.8202 14.7016 19.8316 14.8232 19.8181C15.0743 19.7903 15.2999 19.6595 15.4595 19.4495C15.6141 19.2396 15.6845 18.9794 15.6568 18.7201C15.6291 18.4609 15.5053 18.2214 15.3099 18.0489ZM28.1989 11.6302C28.2643 11.6302 28.3302 11.6263 28.3968 11.6191C28.8884 11.5625 29.3284 11.3043 29.6372 10.8914C30.2618 10.0472 30.1293 8.81847 29.3401 8.15171C29.1599 7.99329 28.9486 7.87431 28.7197 7.80244C28.4908 7.73056 28.2494 7.70737 28.011 7.73436C27.5188 7.78978 27.0788 8.04862 26.7711 8.46319C26.1487 9.30454 26.2795 10.5355 27.0649 11.2067C27.3802 11.4784 27.7827 11.6285 28.1989 11.6302ZM24.0697 12.1778C24.129 12.1778 24.1884 12.1739 24.2482 12.1667C24.6916 12.1168 25.0885 11.884 25.3656 11.511C25.9287 10.7495 25.8101 9.63931 25.1012 9.03739C24.9363 8.89539 24.7439 8.78893 24.536 8.72465C24.3281 8.66038 24.1092 8.63967 23.8929 8.66383C23.6725 8.69064 23.46 8.7629 23.2689 8.87605C23.0778 8.98919 22.9123 9.14076 22.7828 9.32117C22.2163 10.0805 22.3349 11.1901 23.0455 11.7937C23.3299 12.0406 23.6931 12.1769 24.0697 12.1778ZM10.336 27.8369C10.9418 27.7349 11.3586 27.1258 11.265 26.4796C11.2428 26.3209 11.1893 26.1682 11.1077 26.0303C11.0261 25.8925 10.9179 25.7722 10.7894 25.6765C10.6761 25.5933 10.5472 25.5337 10.4103 25.5013C10.2735 25.4689 10.1316 25.4644 9.99297 25.488C9.38773 25.5905 8.97094 26.1974 9.06294 26.8409C9.11061 27.169 9.27744 27.4534 9.53405 27.6424C9.64794 27.7268 9.7776 27.7875 9.91535 27.8209C10.0531 27.8543 10.1962 27.8597 10.336 27.8369ZM11.9467 32.6356C11.9866 32.6356 12.0271 32.6317 12.067 32.6245C12.4799 32.5624 12.7631 32.1501 12.6971 31.7072C12.6831 31.6005 12.6479 31.4977 12.5935 31.4048C12.5392 31.3119 12.4668 31.2308 12.3807 31.1663C12.3029 31.1092 12.2145 31.0682 12.1206 31.0458C12.0267 31.0235 11.9294 31.0201 11.8342 31.036C11.4235 31.1059 11.1414 31.5182 11.2051 31.9533C11.2361 32.1722 11.352 32.3701 11.5227 32.4948C11.6485 32.5879 11.7965 32.6356 11.9467 32.6356ZM12.6894 14.0583C12.9942 14.28 13.3489 14.3964 13.7103 14.3964C13.8056 14.3964 13.9021 14.3875 13.9985 14.372C14.9928 14.2113 15.6779 13.2125 15.5255 12.1467C15.4501 11.6152 15.168 11.1369 14.7534 10.8332C14.5667 10.6948 14.3542 10.5952 14.1284 10.5402C13.9027 10.4851 13.6682 10.4758 13.4387 10.5128C12.4455 10.6746 11.7621 11.6751 11.9134 12.7425C11.9899 13.2746 12.2726 13.7546 12.6894 14.0583ZM10.3022 30.0805C10.3984 30.1526 10.508 30.2047 10.6246 30.2337C10.7412 30.2627 10.8625 30.2681 10.9812 30.2495C11.4883 30.1631 11.837 29.651 11.7594 29.1089C11.7422 28.9776 11.6987 28.8511 11.6316 28.7369C11.5644 28.6227 11.475 28.5232 11.3686 28.4444C11.2735 28.3724 11.1646 28.3206 11.0487 28.2922C10.9328 28.2638 10.8123 28.2594 10.6946 28.2792C10.1831 28.3607 9.83224 28.87 9.91316 29.4137C9.95029 29.6853 10.0889 29.9225 10.3022 30.0805ZM16.267 10.8659C16.4724 11.0184 16.7061 11.1284 16.9545 11.1893C17.2029 11.2502 17.461 11.2608 17.7136 11.2206C18.8044 11.0388 19.5548 9.94026 19.3858 8.7708C19.3027 8.18773 18.9939 7.66231 18.5378 7.32865C18.3338 7.17642 18.1011 7.06713 17.8537 7.0074C17.6063 6.94767 17.3494 6.93874 17.0984 6.98114C16.0071 7.16182 15.2555 8.25923 15.4229 9.42537C15.5066 10.0162 15.8059 10.5272 16.267 10.8659ZM13.4016 34.7063C13.4311 34.706 13.4606 34.7034 13.4897 34.6985C13.8062 34.6469 14.0229 34.3332 13.9736 33.999C13.9623 33.9171 13.9348 33.8383 13.8928 33.7671C13.8507 33.6959 13.7949 33.6338 13.7286 33.5845C13.6701 33.541 13.6034 33.5098 13.5325 33.4928C13.4617 33.4757 13.3881 33.4732 13.3162 33.4852C13.0009 33.5351 12.7831 33.8488 12.8313 34.1841C12.8562 34.3532 12.9421 34.4995 13.0729 34.5971C13.1705 34.6686 13.2852 34.7063 13.4016 34.7063ZM9.14275 24.7287C9.27513 24.827 9.42591 24.8978 9.58615 24.9367C9.74639 24.9756 9.91281 24.982 10.0756 24.9554C10.7778 24.8373 11.2616 24.1312 11.1547 23.3813C11.13 23.1984 11.069 23.0223 10.9753 22.8633C10.8815 22.7044 10.7569 22.5658 10.6087 22.4557C10.4767 22.3574 10.3262 22.2864 10.1663 22.2471C10.0064 22.2078 9.84023 22.2009 9.6776 22.2268C8.97537 22.3443 8.49373 23.051 8.60236 23.8009C8.62526 23.984 8.68494 24.1605 8.7778 24.32C8.87067 24.4794 8.9948 24.6184 9.14275 24.7287ZM9.40214 21.1749C9.55244 21.2861 9.72351 21.366 9.90524 21.41C10.087 21.454 10.2757 21.4611 10.4602 21.4309C11.2639 21.2996 11.8148 20.4965 11.6884 19.6407C11.6589 19.4315 11.5883 19.2302 11.4806 19.0484C11.3729 18.8666 11.2303 18.7079 11.061 18.5815C10.9114 18.4708 10.7411 18.3913 10.5602 18.3478C10.3793 18.3043 10.1915 18.2976 10.0079 18.3282C9.21037 18.4613 8.66111 19.2649 8.78194 20.1185C8.80898 20.3272 8.87784 20.5283 8.9844 20.7099C9.09097 20.8914 9.23305 21.0495 9.40214 21.1749ZM10.4918 17.6498C10.6598 17.7738 10.8509 17.8628 11.0539 17.9115C11.2568 17.9603 11.4675 17.9678 11.6734 17.9336C12.5697 17.7851 13.1888 16.885 13.0513 15.925C12.9809 15.4462 12.726 15.0133 12.3507 14.7395C12.1828 14.615 11.9916 14.5255 11.7884 14.4763C11.5852 14.4272 11.3742 14.4194 11.168 14.4535C10.2684 14.5987 9.65155 15.4988 9.79233 16.4615C9.86161 16.9426 10.116 17.376 10.4918 17.6498ZM13.472 37.0895C13.2905 37.0449 13.1019 37.0377 12.9175 37.0682C12.7332 37.0986 12.557 37.1662 12.3995 37.2669C12.2232 37.3801 12.0713 37.5275 11.9528 37.7004C11.8343 37.8733 11.7516 38.0681 11.7095 38.2734C11.531 39.1136 12.0276 39.9583 12.8169 40.1545C12.9985 40.1982 13.1871 40.2049 13.3713 40.1741C13.5556 40.1433 13.7317 40.0758 13.8893 39.9755C14.0656 39.863 14.2173 39.7159 14.3352 39.5432C14.4531 39.3705 14.5349 39.1758 14.5755 38.9706C14.7573 38.1265 14.2623 37.2818 13.472 37.0895ZM16.5198 39.005C16.3607 38.9656 16.1954 38.9588 16.0336 38.985C15.8719 39.0112 15.7171 39.0698 15.5787 39.1574C15.4238 39.2565 15.2903 39.3855 15.1861 39.537C15.0819 39.6884 15.009 39.8592 14.9718 40.0392C14.8133 40.7836 15.2478 41.5257 15.9406 41.6931C16.037 41.7175 16.1351 41.7297 16.2327 41.7297C16.4572 41.7297 16.6783 41.6665 16.8762 41.5434C17.0323 41.4433 17.1669 41.3131 17.2722 41.1603C17.3774 41.0076 17.4512 40.8354 17.4892 40.6539C17.6466 39.9134 17.2115 39.174 16.5198 39.005ZM19.2472 40.0398C19.109 40.0051 18.9652 39.9991 18.8245 40.0219C18.6838 40.0448 18.5493 40.0961 18.4292 40.1728C18.1631 40.3396 17.9797 40.6084 17.9132 40.9304C17.7746 41.57 18.1498 42.2085 18.7468 42.3526C18.8841 42.3874 19.027 42.3938 19.1669 42.3715C19.3068 42.3492 19.4407 42.2987 19.5604 42.2229C19.8242 42.0578 20.016 41.7796 20.0842 41.4586C20.2194 40.8229 19.8436 40.1861 19.2472 40.0398ZM10.7528 34.3637C10.5494 34.3136 10.338 34.3052 10.1313 34.3391C9.92454 34.373 9.72684 34.4485 9.55013 34.561C9.15384 34.8093 8.87949 35.209 8.77695 35.6873C8.57465 36.6328 9.13056 37.58 10.0162 37.7984C10.2197 37.8475 10.4309 37.8552 10.6374 37.8212C10.8439 37.7872 11.0414 37.7122 11.2184 37.6005C11.4158 37.4733 11.5857 37.308 11.7183 37.1142C11.8509 36.9204 11.9434 36.7021 11.9905 36.4721C12.1955 35.526 11.6402 34.5799 10.7528 34.3637ZM9.76185 32.8429C9.98632 31.7926 9.36889 30.7417 8.38787 30.5034C8.16336 30.4472 7.92976 30.4375 7.70134 30.4746C7.47292 30.5118 7.25447 30.5951 7.05934 30.7195C6.62481 30.9906 6.31111 31.4473 6.19804 31.9721C5.97468 33.0236 6.58989 34.0716 7.56814 34.31C7.79402 34.3657 8.02885 34.375 8.25843 34.3373C8.48802 34.2997 8.70759 34.2159 8.90387 34.091C9.34395 33.8167 9.64767 33.3722 9.76185 32.8429ZM7.9611 28.2127C8.20829 27.0621 7.53322 25.9098 6.45576 25.6443C6.20836 25.5828 5.95102 25.5724 5.69945 25.6137C5.44788 25.6549 5.20736 25.747 4.99255 25.8843C4.51036 26.1875 4.17504 26.6752 4.05033 27.2594C3.8048 28.4111 4.48153 29.5617 5.55899 29.8244C5.70864 29.8616 5.86106 29.8799 6.01126 29.8799C6.3632 29.8799 6.70961 29.7801 7.01888 29.5861C7.49498 29.2885 7.83861 28.788 7.9611 28.2127ZM35.5554 25.176L35.5804 25.1754C35.6809 25.172 35.7796 25.1479 35.8704 25.1046C35.9612 25.0613 36.0421 24.9997 36.108 24.9238C36.2473 24.7637 36.3208 24.5568 36.3138 24.3447C36.3068 24.1326 36.2198 23.931 36.0703 23.7804C35.9989 23.7088 35.9138 23.6524 35.8201 23.6145C35.7264 23.5766 35.626 23.558 35.5249 23.5598C35.4229 23.5629 35.3226 23.5872 35.2305 23.631C35.1383 23.6749 35.0562 23.7375 34.9895 23.8147C34.8516 23.9748 34.7783 24.1809 34.7853 24.3921C34.7923 24.6033 34.8784 24.8042 35.0267 24.9548C35.1708 25.0989 35.3575 25.176 35.5554 25.176ZM33.1927 20.3163C33.0937 20.218 32.9759 20.1406 32.8464 20.0888C32.7169 20.0369 32.5784 20.0115 32.4389 20.0143C32.2992 20.0196 32.162 20.0538 32.0361 20.1146C31.9102 20.1755 31.7983 20.2617 31.7073 20.3679C31.3132 20.8129 31.3365 21.5174 31.7599 21.9386C31.9556 22.1359 32.21 22.2434 32.4782 22.2434H32.5115C32.6512 22.2382 32.7884 22.2041 32.9143 22.1432C33.0402 22.0823 33.1522 21.9961 33.2431 21.8898C33.6377 21.4442 33.615 20.7381 33.1932 20.3163H33.1927ZM34.2801 23.6789C34.5217 23.6701 34.744 23.5626 34.9058 23.3752C35.25 22.9889 35.2312 22.3815 34.8643 22.0212C34.7803 21.9343 34.6792 21.8658 34.5674 21.82C34.4556 21.7742 34.3355 21.7521 34.2147 21.7552C34.0936 21.7592 33.9746 21.7884 33.8655 21.841C33.7563 21.8936 33.6593 21.9684 33.5806 22.0605C33.2398 22.4469 33.2586 23.0549 33.6216 23.4157C33.7935 23.5864 34.0146 23.6795 34.2474 23.6795L34.2801 23.6789ZM36.9743 28.4859H36.9931C37.0562 28.4833 37.118 28.4676 37.1746 28.4397C37.2312 28.4119 37.2813 28.3725 37.3218 28.3241C37.4083 28.2254 37.4542 28.0976 37.4504 27.9665C37.4466 27.8353 37.3933 27.7104 37.3013 27.6169C37.2591 27.5726 37.2083 27.5374 37.1521 27.5133C37.0959 27.4892 37.0354 27.4767 36.9743 27.4767H36.9676C36.9024 27.4783 36.8381 27.4933 36.7788 27.5206C36.7196 27.548 36.6665 27.5871 36.6229 27.6357L36.6218 27.6368C36.4444 27.8436 36.4555 28.1573 36.6478 28.3501C36.7346 28.4368 36.8516 28.4856 36.9743 28.4859ZM36.6384 26.9701L36.6606 26.9695C36.8269 26.9634 36.9793 26.8897 37.0912 26.7617C37.3212 26.499 37.3074 26.0855 37.0602 25.8388C37.0048 25.7817 36.9384 25.7362 36.8651 25.7051C36.7918 25.6739 36.7131 25.6578 36.6334 25.6576H36.6151C36.4489 25.6632 36.2948 25.7358 36.1817 25.8643C36.0681 25.9938 36.0079 26.1616 36.0133 26.3338C36.0188 26.5059 36.0895 26.6696 36.2111 26.7916C36.3275 26.9069 36.4793 26.9701 36.6384 26.9701ZM19.342 21.9502C19.6468 22.2534 20.0404 22.4186 20.4549 22.4186L20.5082 22.4175C20.7237 22.4095 20.9352 22.3571 21.1295 22.2636C21.3239 22.1702 21.4969 22.0376 21.6377 21.8743C22.2452 21.1837 22.2114 20.0913 21.5612 19.4384C21.2425 19.1203 20.834 18.9501 20.3929 18.9667C20.1771 18.9743 19.9653 19.0264 19.7707 19.1199C19.5761 19.2134 19.4029 19.3462 19.2622 19.5099C18.6553 20.2066 18.6913 21.3007 19.342 21.9502ZM30.8338 18.7805C30.7231 18.6663 30.5896 18.5766 30.442 18.5174C30.2943 18.4582 30.1359 18.4308 29.9769 18.4369C29.8181 18.4423 29.6622 18.4806 29.5189 18.5493C29.3756 18.6179 29.2481 18.7155 29.1444 18.8359C28.6977 19.3458 28.7238 20.1467 29.2032 20.6223C29.4265 20.8484 29.717 20.9714 30.0235 20.9714C30.0346 20.9714 30.0467 20.9714 30.0578 20.9703C30.2166 20.9652 30.3726 20.9271 30.5158 20.8584C30.659 20.7897 30.7864 20.6919 30.8898 20.5713C31.3387 20.0647 31.3143 19.261 30.8338 18.7805ZM27.2068 20.2908L27.2439 20.2903C27.4225 20.2844 27.598 20.2417 27.7593 20.1649C27.9207 20.0882 28.0645 19.9789 28.1817 19.8441C28.6822 19.2743 28.6523 18.3759 28.1152 17.8411C27.8525 17.5806 27.5138 17.4381 27.153 17.4542C26.9762 17.4603 26.8026 17.503 26.6432 17.5795C26.4837 17.656 26.3417 17.7647 26.2263 17.8987C25.7225 18.469 25.7508 19.3675 26.2889 19.9023C26.4085 20.0248 26.5512 20.1222 26.7088 20.1889C26.8664 20.2556 27.0357 20.2903 27.2068 20.2908ZM23.8497 20.3701L23.8957 20.3695C24.0927 20.3626 24.2862 20.315 24.4638 20.2295C24.6414 20.144 24.7994 20.0226 24.9277 19.8729C25.4836 19.2383 25.4515 18.2412 24.8551 17.6521C24.7223 17.5171 24.564 17.4097 24.3894 17.3363C24.2149 17.2628 24.0275 17.2247 23.8381 17.2242L23.7915 17.2247C23.5952 17.2315 23.4024 17.2787 23.2253 17.3636C23.0481 17.4485 22.8905 17.5692 22.7623 17.718C22.208 18.3482 22.2391 19.3442 22.8316 19.9394C22.9642 20.0751 23.1226 20.1831 23.2974 20.257C23.4722 20.331 23.6599 20.3694 23.8497 20.3701ZM31.4396 18.1038C31.6464 18.1058 31.8516 18.0666 32.0432 17.9885C32.2348 17.9104 32.4088 17.7949 32.5553 17.6487C32.887 17.3162 33.0737 16.8659 33.0746 16.3961C33.0774 15.4467 32.3519 14.6647 31.4562 14.6547H31.4429C31.0328 14.6547 30.642 14.8165 30.3416 15.1136C30.1768 15.2777 30.0463 15.473 29.9577 15.688C29.8691 15.9031 29.8242 16.1336 29.8256 16.3662C29.8223 17.3167 30.5461 18.096 31.4396 18.1038ZM37.3894 36.1224L37.3988 36.1229C37.5166 36.1224 37.6295 36.0761 37.7136 35.9938C37.8123 35.8961 37.8683 35.7634 37.8694 35.6246C37.8694 35.3492 37.6566 35.1219 37.3955 35.1186C37.1334 35.1153 36.9189 35.3298 36.9111 35.6141V35.6174C36.9155 35.8957 37.1306 36.1224 37.3894 36.1224ZM39.6563 31.501C39.6563 31.0488 39.3215 30.6896 38.8953 30.6857L38.8837 30.6852C38.6952 30.6852 38.5129 30.7606 38.3727 30.8991C38.2186 31.0515 38.1288 31.2666 38.1288 31.4888C38.1277 31.9322 38.4674 32.298 38.887 32.3047H38.8931C39.0871 32.3047 39.2716 32.2282 39.4141 32.0874C39.5693 31.935 39.6546 31.7266 39.6563 31.501ZM37.1378 24.0004C37.1378 24.7004 37.6704 25.2735 38.3261 25.2796H38.3311C38.9862 25.2796 39.521 24.7165 39.5249 24.0215C39.526 23.3226 38.9929 22.7511 38.3355 22.7478L38.3228 22.7473C38.1727 22.7476 38.0243 22.7774 37.8858 22.8352C37.7473 22.8929 37.6216 22.9773 37.5158 23.0837C37.2733 23.3271 37.1374 23.6568 37.1378 24.0004ZM40.0454 29.3655C40.0465 28.8373 39.643 28.4017 39.1447 28.3956L39.1331 28.395C38.9058 28.395 38.6886 28.4848 38.5223 28.6489C38.3369 28.8349 38.2329 29.0868 38.233 29.3494C38.2285 29.8765 38.632 30.3127 39.1342 30.3199H39.137C39.3703 30.3199 39.592 30.2268 39.7621 30.0578C39.9451 29.876 40.0454 29.6299 40.0454 29.3655ZM35.648 21.2325C35.6435 22.0162 36.2394 22.6602 36.9765 22.668H36.9865C37.3406 22.668 37.6737 22.5239 37.9248 22.2595C38.1795 21.9898 38.3213 21.6328 38.3211 21.2619C38.3244 20.4793 37.7281 19.8352 36.9909 19.8264L36.9759 19.8253C36.6375 19.8269 36.3135 19.9624 36.0747 20.2022C35.8018 20.4758 35.6483 20.8459 35.648 21.2325ZM34.7429 16.9925C34.3671 16.9925 34.0096 17.1422 33.7347 17.4137C33.585 17.5632 33.4666 17.7409 33.3862 17.9365C33.3058 18.1321 33.265 18.3418 33.2664 18.5533C33.2619 19.419 33.9204 20.1312 34.7329 20.1401C34.9225 20.1423 35.1107 20.1066 35.2863 20.0352C35.462 19.9639 35.6217 19.8582 35.756 19.7244C35.9064 19.5746 36.0252 19.3963 36.1056 19.2C36.1861 19.0036 36.2264 18.7932 36.2244 18.581C36.2277 17.7191 35.5682 17.0069 34.7523 16.9931H34.7429V16.9925ZM39.0211 25.7856C38.7573 25.7856 38.5057 25.8893 38.3117 26.0805C38.1 26.2878 37.9769 26.5849 37.9747 26.8914V26.8925C37.9747 27.5077 38.4453 28.0093 39.0222 28.0115H39.0355C39.2982 28.0115 39.5499 27.9079 39.7433 27.7166C39.9539 27.5093 40.0759 27.215 40.077 26.9102C40.0786 26.2944 39.6097 25.7895 39.0322 25.7851L39.0211 25.7856ZM38.2873 34.3183C38.6309 34.3183 38.9114 34.0256 38.9114 33.667C38.9164 33.3051 38.6409 33.0075 38.2967 33.0019H38.2895C37.9509 33.0019 37.6732 33.2924 37.6688 33.6532C37.6688 34.0145 37.9453 34.3116 38.2856 34.3183H38.2873ZM32.328 41.794C32.293 41.6929 32.2376 41.6 32.1652 41.5212C32.0928 41.4423 32.0051 41.3792 31.9074 41.3356C31.8171 41.2959 31.7197 41.2749 31.6211 41.2739C31.5225 41.273 31.4247 41.2921 31.3337 41.3301C30.9413 41.4919 30.7506 41.9586 30.9069 42.3732C30.9823 42.5804 31.1303 42.7434 31.3254 42.8299C31.4147 42.8703 31.5114 42.8919 31.6094 42.8933C31.7074 42.8948 31.8047 42.876 31.8952 42.8382C32.2854 42.6752 32.4799 42.2063 32.328 41.794ZM40.3441 35.1391C40.1882 35.0697 40.0198 35.0327 39.8491 35.0306C39.6784 35.0284 39.5091 35.061 39.3515 35.1264C38.6647 35.4107 38.3261 36.2338 38.5943 36.9609C38.6554 37.137 38.7518 37.2988 38.8776 37.4363C39.0034 37.5738 39.156 37.6842 39.326 37.7607C39.4828 37.831 39.6524 37.8686 39.8243 37.8713C39.9962 37.8739 40.1668 37.8416 40.3258 37.7762L40.3264 37.7757C41.0114 37.4886 41.3501 36.6655 41.0818 35.9406C41.0201 35.7638 40.9228 35.6015 40.7961 35.4637C40.6693 35.3258 40.5151 35.2154 40.3441 35.1391ZM28.9266 42.5156C28.9898 42.6846 29.1173 42.8215 29.2758 42.8903C29.348 42.921 29.4257 42.9368 29.5043 42.9366C29.5828 42.9364 29.6604 42.9203 29.7325 42.8892C30.0484 42.7561 30.2047 42.3759 30.0817 42.0428C30.0525 41.961 30.0071 41.8858 29.9482 41.822C29.8892 41.7582 29.8179 41.707 29.7386 41.6715C29.6663 41.639 29.5881 41.6217 29.5088 41.6209C29.4296 41.62 29.351 41.6355 29.278 41.6665C28.961 41.7956 28.8036 42.1764 28.9266 42.5145V42.5156ZM36.0714 39.5099C35.9485 39.4552 35.8158 39.426 35.6813 39.4241C35.5467 39.4222 35.4132 39.4476 35.2888 39.4988C34.7512 39.7166 34.4835 40.3629 34.693 40.9388C34.7994 41.2259 35.0062 41.4492 35.275 41.5678C35.398 41.6216 35.5307 41.6502 35.665 41.6519C35.7993 41.6536 35.9326 41.6284 36.057 41.5778C36.5919 41.3572 36.859 40.7121 36.6512 40.139C36.6023 40.0003 36.5257 39.8729 36.426 39.7648C36.3264 39.6566 36.2057 39.5699 36.0714 39.5099ZM38.3832 37.6255C38.2434 37.5629 38.0923 37.5294 37.9392 37.5271C37.7861 37.5248 37.6341 37.5538 37.4925 37.6122C36.8839 37.8677 36.5808 38.6026 36.818 39.2511C36.9371 39.5781 37.1705 39.8314 37.4753 39.965C37.6155 40.0273 37.7668 40.0606 37.9202 40.0627C38.0736 40.0649 38.2258 40.036 38.3677 39.9777C38.9773 39.7261 39.2805 38.9911 39.0411 38.3388C38.9855 38.1815 38.8985 38.0372 38.7854 37.9146C38.6723 37.7919 38.5354 37.6936 38.3832 37.6255ZM33.9132 40.6572C33.8075 40.6097 33.6933 40.5844 33.5774 40.5828C33.4616 40.5812 33.3467 40.6033 33.2398 40.6478C32.7759 40.8401 32.5442 41.3971 32.7243 41.8915V41.8926C32.8163 42.1409 32.9959 42.3338 33.2276 42.4358C33.3339 42.4825 33.4486 42.5074 33.5648 42.5089C33.6809 42.5104 33.7962 42.4886 33.9038 42.4447C34.3671 42.2507 34.596 41.6931 34.4137 41.2009C34.3714 41.0812 34.3053 40.9713 34.2192 40.8779C34.1332 40.7846 34.0291 40.7091 33.9132 40.6572ZM41.8982 31.8009C41.7253 31.7237 41.5384 31.6826 41.3491 31.6802C41.1597 31.6777 40.9718 31.7139 40.7969 31.7865C40.0404 32.1018 39.6652 33.0141 39.9606 33.8195C40.1091 34.2268 40.3984 34.5422 40.7781 34.709C40.9513 34.7859 41.1384 34.8267 41.328 34.8289C41.5175 34.8311 41.7055 34.7946 41.8805 34.7218C42.6359 34.4086 43.0128 33.498 42.7191 32.691C42.5694 32.2831 42.2779 31.9672 41.8982 31.8009ZM27.2761 42.5682C27.3339 42.5936 27.3964 42.6068 27.4595 42.607C27.5195 42.6067 27.5788 42.5947 27.6341 42.5716C27.8769 42.4701 27.9966 42.1781 27.9001 41.9214C27.8788 41.8588 27.8448 41.8013 27.8001 41.7524C27.7555 41.7036 27.7012 41.6645 27.6408 41.6377C27.5846 41.6123 27.5238 41.5989 27.4621 41.5982C27.4005 41.5976 27.3394 41.6097 27.2827 41.6338C27.0383 41.7336 26.9202 42.019 27.015 42.2834C27.061 42.4108 27.1563 42.515 27.2761 42.5682ZM43.1658 27.792C42.976 27.7073 42.7709 27.6623 42.5631 27.6598C42.3553 27.6573 42.1492 27.6974 41.9575 27.7776C41.1245 28.1185 40.7132 29.1189 41.0408 30.0068C41.2026 30.4518 41.5208 30.7977 41.9354 30.9806C42.1349 31.0676 42.3455 31.112 42.5561 31.112C42.7545 31.112 42.9535 31.0726 43.1436 30.9945C43.9755 30.6508 44.3884 29.6515 44.0626 28.7664C43.8996 28.3213 43.5815 27.9755 43.1658 27.792ZM28.302 44.4333C28.1782 44.367 28.0418 44.3274 27.9017 44.3172C27.7617 44.307 27.621 44.3263 27.4889 44.374C26.9164 44.5669 26.5821 45.2142 26.7429 45.8161C26.8238 46.1154 27.0122 46.3565 27.2733 46.4945C27.4207 46.5721 27.5809 46.6109 27.7438 46.6109C27.8586 46.6109 27.9739 46.5921 28.0875 46.5527C28.6611 46.3582 28.9937 45.7114 28.8302 45.1122C28.7941 44.9685 28.7286 44.8339 28.6376 44.7169C28.5467 44.5999 28.4324 44.5031 28.302 44.4327V44.4333ZM30.6365 45.7496C30.4995 45.6762 30.3488 45.632 30.1939 45.6198C30.0389 45.6075 29.8831 45.6276 29.7364 45.6787C29.1034 45.9004 28.7337 46.6159 28.9128 47.2771C29.0014 47.6097 29.2093 47.8763 29.4969 48.0287C29.6593 48.1157 29.8367 48.1595 30.0179 48.1595C30.1437 48.1595 30.2718 48.1379 30.397 48.0946C31.0305 47.8785 31.4002 47.1613 31.2206 46.4951C31.18 46.3372 31.1071 46.1895 31.0066 46.0612C30.906 45.9329 30.78 45.8268 30.6365 45.7496ZM23.8868 38.8005C23.9711 38.8454 24.0631 38.8681 24.1573 38.8681C24.2238 38.8681 24.2909 38.8565 24.3568 38.8337C24.6877 38.7207 24.8801 38.3482 24.7853 38.0051C24.764 37.9226 24.7259 37.8453 24.6735 37.7781C24.621 37.7109 24.5553 37.6551 24.4804 37.6144C24.4088 37.5758 24.3299 37.5527 24.2487 37.5464C24.1676 37.5401 24.0861 37.5508 24.0093 37.5778C23.6779 37.6925 23.49 38.0572 23.5815 38.4103C23.628 38.5832 23.7372 38.7218 23.8868 38.8005ZM24.4367 35.9201C24.3779 35.8888 24.3132 35.8701 24.2468 35.8652C24.1803 35.8604 24.1136 35.8694 24.0509 35.8918C23.781 35.9838 23.6258 36.2875 23.7045 36.5685C23.7203 36.6344 23.7497 36.6962 23.7907 36.75C23.8318 36.8038 23.8837 36.8485 23.943 36.8812C24.0023 36.9138 24.0678 36.9337 24.1352 36.9396C24.2026 36.9456 24.2706 36.9373 24.3347 36.9155H24.3358C24.604 36.8213 24.7603 36.5175 24.6844 36.2382C24.6673 36.171 24.6365 36.1081 24.5938 36.0534C24.5512 35.9987 24.4977 35.953 24.4367 35.9201ZM25.1533 39.659C25.1287 39.5619 25.0844 39.471 25.023 39.3918C24.9617 39.3127 24.8848 39.247 24.7969 39.199C24.7114 39.1525 24.617 39.1243 24.52 39.1163C24.4229 39.1083 24.3253 39.1206 24.2332 39.1524C23.8436 39.2882 23.6175 39.7305 23.7289 40.1373C23.7533 40.2349 23.7978 40.3263 23.8597 40.4056C23.9216 40.485 23.9993 40.5505 24.088 40.5979C24.1729 40.6433 24.2662 40.6704 24.3621 40.6776C24.4581 40.6847 24.5544 40.6717 24.6451 40.6395C25.033 40.5048 25.2614 40.0658 25.1533 39.659ZM34.3222 47.2245C34.2771 47.0504 34.1965 46.8876 34.0853 46.7462C33.9742 46.6048 33.835 46.488 33.6765 46.4031C33.5267 46.3238 33.3621 46.2763 33.1931 46.2637C33.0241 46.2511 32.8543 46.2737 32.6944 46.3299C32.0005 46.5671 31.597 47.3531 31.7937 48.0819C31.8896 48.4438 32.1169 48.7359 32.4328 48.9033C32.6081 48.9967 32.8038 49.0455 33.0025 49.0452C33.1411 49.0452 33.2813 49.0219 33.4188 48.9748C34.1144 48.7392 34.5201 47.9539 34.3222 47.2245ZM25.8622 41.4553C25.8337 41.3419 25.7819 41.2356 25.71 41.1433C25.6381 41.0511 25.5478 40.9748 25.4448 40.9194C25.347 40.8671 25.2393 40.8358 25.1287 40.8276C25.0181 40.8194 24.9069 40.8344 24.8025 40.8717C24.3535 41.0258 24.0886 41.5346 24.2122 42.0079C24.2765 42.2435 24.4261 42.4336 24.6334 42.5428C24.731 42.5945 24.8383 42.6255 24.9485 42.6338C25.0586 42.6421 25.1693 42.6275 25.2736 42.591C25.7231 42.4386 25.9874 41.9286 25.8622 41.4553ZM27.1065 43.4151C27.0732 43.2865 27.0136 43.1661 26.9315 43.0617C26.8493 42.9572 26.7464 42.8709 26.6293 42.8082C26.5189 42.7501 26.3976 42.7156 26.2732 42.707C26.1487 42.6984 26.0238 42.7159 25.9065 42.7584C25.3933 42.9307 25.0957 43.5083 25.2425 44.0442C25.3124 44.3125 25.4786 44.5281 25.7109 44.6528C25.8222 44.7123 25.9446 44.748 26.0705 44.7578C26.1963 44.7675 26.3228 44.751 26.4419 44.7093C26.954 44.5314 27.2528 43.9511 27.1065 43.4151ZM24.859 34.5455C24.8463 34.4942 24.8232 34.446 24.791 34.404C24.7587 34.362 24.7182 34.3272 24.6718 34.3017C24.6255 34.2762 24.5744 34.2605 24.5217 34.2557C24.469 34.251 24.4159 34.2572 24.3657 34.2739C24.1584 34.3449 24.0404 34.5749 24.0969 34.7988C24.111 34.8505 24.1355 34.8987 24.1689 34.9406C24.2022 34.9826 24.2437 35.0173 24.2909 35.0427C24.336 35.0672 24.3857 35.082 24.4369 35.0862C24.488 35.0904 24.5395 35.0839 24.588 35.0671L24.5902 35.0665C24.6913 35.0281 24.7747 34.9536 24.8243 34.8575C24.8739 34.7613 24.8863 34.6502 24.859 34.5455ZM22.2684 35.3326C22.1642 35.269 22.048 35.2272 21.9271 35.2099C21.8062 35.1925 21.6831 35.1999 21.5651 35.2317C21.4321 35.2679 21.3077 35.3303 21.1992 35.4153C21.0906 35.5003 21.0002 35.6061 20.9333 35.7266C20.6539 36.2277 20.7964 36.8423 21.258 37.1261C21.3631 37.1895 21.48 37.2309 21.6016 37.2477C21.7232 37.2645 21.8469 37.2563 21.9653 37.2236C22.0975 37.1874 22.2211 37.1248 22.3286 37.0395C22.436 36.9543 22.5251 36.8482 22.5905 36.7276C22.8676 36.236 22.7235 35.6091 22.2684 35.3326ZM23.1358 42.1221C23.4811 41.5107 23.3027 40.7365 22.7379 40.3967C22.6084 40.3177 22.4642 40.2658 22.3141 40.2441C22.1639 40.2223 22.011 40.2313 21.8644 40.2703C21.7004 40.3151 21.5471 40.3922 21.4134 40.4972C21.2798 40.6022 21.1685 40.733 21.0862 40.8817C20.7426 41.4963 20.9233 42.2717 21.4886 42.6098C21.6654 42.7185 21.8644 42.7739 22.0684 42.7739C22.1648 42.7739 22.2635 42.7617 22.3599 42.7362C22.5237 42.6909 22.6768 42.6133 22.8101 42.5078C22.9434 42.4023 23.0542 42.2711 23.1358 42.1221ZM23.1364 34.3659C23.3814 33.9231 23.2561 33.3838 22.8521 33.1355C22.7592 33.079 22.6557 33.0419 22.548 33.0267C22.4404 33.0114 22.3307 33.0183 22.2258 33.0468C21.9935 33.1089 21.799 33.2641 21.6771 33.483C21.4288 33.917 21.5557 34.4674 21.9597 34.7107C22.0523 34.7671 22.1555 34.8042 22.2629 34.8195C22.3703 34.8348 22.4796 34.8282 22.5844 34.7999C22.8133 34.7406 23.0145 34.5815 23.1364 34.3659ZM21.5756 39.8608C21.6615 39.8608 21.7486 39.8491 21.835 39.8275C21.9838 39.7872 22.123 39.7175 22.2444 39.6225C22.3658 39.5275 22.4669 39.4091 22.5417 39.2744L22.5422 39.2738C22.8521 38.7218 22.6891 38.0212 22.1798 37.7108C22.0625 37.6406 21.9323 37.5947 21.7969 37.5758C21.6615 37.5568 21.5237 37.5652 21.3916 37.6005C21.0984 37.677 20.8413 37.8777 20.6844 38.1531C20.3796 38.7085 20.5436 39.4085 21.0491 39.7111C21.2098 39.8098 21.3911 39.8608 21.5756 39.8608ZM24.2155 43.1641C24.0721 43.0778 23.9128 43.0214 23.747 42.9985C23.5812 42.9755 23.4125 42.9864 23.2511 43.0305C22.8936 43.1247 22.5938 43.363 22.4048 43.6995C22.029 44.3684 22.2241 45.2181 22.8399 45.5933C22.9822 45.6801 23.1407 45.737 23.3057 45.7606C23.4708 45.7842 23.6388 45.7741 23.7998 45.7308C24.1579 45.6371 24.4594 45.3982 24.6506 45.0585C25.0247 44.3917 24.8296 43.5426 24.2155 43.1641ZM26.7157 28.8506C26.7588 28.8773 26.8069 28.8948 26.8571 28.9021C26.9072 28.9095 26.9583 28.9065 27.0073 28.8933C27.0614 28.8793 27.112 28.8544 27.1562 28.82C27.2003 28.7857 27.237 28.7428 27.2639 28.6938L27.265 28.6921C27.3725 28.4909 27.3115 28.2371 27.1297 28.1257C27.0853 28.0994 27.0361 28.0824 26.985 28.0755C26.9338 28.0687 26.8819 28.0722 26.8321 28.0858C26.7795 28.1007 26.7305 28.1261 26.688 28.1603C26.6454 28.1946 26.6102 28.2371 26.5844 28.2853C26.4702 28.4865 26.5289 28.7403 26.7157 28.8506ZM24.6096 30.1919C24.543 30.1503 24.4687 30.1226 24.3912 30.1106C24.3136 30.0986 24.2344 30.1025 24.1584 30.1221C24.0727 30.1453 23.9924 30.1854 23.9224 30.24C23.8523 30.2946 23.7939 30.3627 23.7505 30.4402C23.5731 30.7589 23.6657 31.1618 23.9567 31.3403C24.025 31.3815 24.101 31.4085 24.1801 31.4196C24.2592 31.4306 24.3397 31.4255 24.4167 31.4046C24.5869 31.3591 24.731 31.2466 24.8213 31.0865C25.0003 30.7694 24.9055 30.3682 24.6096 30.1919ZM25.5219 30.0339C25.563 30.0337 25.6039 30.0287 25.6438 30.019C25.714 29.9998 25.7796 29.9669 25.837 29.9222C25.8944 29.8775 25.9423 29.8219 25.978 29.7585C26.1216 29.4974 26.0434 29.1693 25.8051 29.0269C25.7496 28.9934 25.6879 28.9715 25.6237 28.9623C25.5595 28.9532 25.4942 28.957 25.4315 28.9737C25.3625 28.9924 25.298 29.0247 25.2417 29.0688C25.1855 29.1129 25.1386 29.1678 25.104 29.2303C24.9565 29.4941 25.0303 29.8167 25.273 29.9641C25.3478 30.0098 25.4337 30.0341 25.5213 30.0345L25.5219 30.0339ZM23.444 32.916C23.5443 32.8885 23.638 32.841 23.7194 32.7763C23.8009 32.7117 23.8684 32.6312 23.9179 32.5397C24.1296 32.1628 24.0176 31.6862 23.6696 31.4767C23.5905 31.4281 23.5023 31.3962 23.4104 31.3829C23.3186 31.3695 23.2249 31.375 23.1353 31.3991C23.0339 31.4265 22.9391 31.4742 22.8565 31.5391C22.774 31.6041 22.7053 31.685 22.6548 31.7771C22.4425 32.1506 22.5511 32.6278 22.8986 32.8434C22.98 32.8915 23.0703 32.9226 23.164 32.935C23.2577 32.9474 23.3529 32.9413 23.444 32.916ZM35.0001 27.3093C35.0254 27.3133 35.0509 27.3153 35.0765 27.3154C35.3248 27.3154 35.5477 27.1208 35.5937 26.8498V26.8481C35.6051 26.7757 35.6021 26.7016 35.5849 26.6303C35.5677 26.559 35.5366 26.4917 35.4933 26.4324C35.4551 26.3803 35.4068 26.3364 35.3513 26.3032C35.2958 26.2701 35.2342 26.2484 35.1702 26.2396C34.8947 26.208 34.6309 26.4119 34.5871 26.7024C34.5743 26.7726 34.5756 26.8446 34.591 26.9143C34.6064 26.984 34.6357 27.0499 34.6769 27.1081C34.7556 27.2189 34.8709 27.291 35.0001 27.3093ZM23.2417 29.5146C23.2938 29.5224 23.3459 29.5263 23.3974 29.5263C23.9883 29.5263 24.5203 29.0601 24.6218 28.4233C24.6515 28.2547 24.6471 28.0817 24.6087 27.9148C24.5703 27.7479 24.4988 27.5904 24.3984 27.4517C24.3093 27.3286 24.1965 27.2247 24.0665 27.146C23.9366 27.0672 23.7922 27.0153 23.6419 26.9933C22.9923 26.9024 22.371 27.3952 22.2629 28.0835C22.2323 28.2527 22.2362 28.4263 22.2743 28.5939C22.3123 28.7615 22.3839 28.9197 22.4846 29.059C22.5737 29.1819 22.6867 29.2856 22.8168 29.3638C22.9469 29.4421 23.0914 29.4934 23.2417 29.5146ZM26.785 26.7838C26.8106 26.6314 26.8059 26.4754 26.771 26.3248C26.7361 26.1742 26.6717 26.0321 26.5816 25.9065C26.5011 25.795 26.3991 25.7008 26.2817 25.6294C26.1642 25.558 26.0336 25.5109 25.8977 25.4908C25.3101 25.4038 24.7492 25.8549 24.6478 26.4812C24.6212 26.6337 24.6255 26.79 24.6605 26.9408C24.6954 27.0916 24.7603 27.2339 24.8512 27.3591C24.946 27.49 25.0705 27.5964 25.2144 27.6696C25.3584 27.7429 25.5177 27.7808 25.6793 27.7804C26.213 27.7804 26.693 27.3614 26.785 26.7838ZM31.2794 25.5213C31.2439 25.7358 31.2938 25.9536 31.4174 26.1204C31.5316 26.2756 31.6967 26.3748 31.883 26.3992C31.9173 26.4047 31.9517 26.4075 31.985 26.4075C32.3491 26.4075 32.6744 26.1215 32.7365 25.728C32.7698 25.5135 32.7171 25.2957 32.5924 25.1283C32.5379 25.0535 32.4689 24.9904 32.3895 24.9427C32.31 24.8951 32.2219 24.864 32.1302 24.8512C31.7256 24.7946 31.3459 25.0984 31.2794 25.5213ZM33.4531 26.7029C33.4819 26.7075 33.511 26.7097 33.5402 26.7096C33.8494 26.7096 34.1243 26.4701 34.1737 26.1404C34.1898 26.0534 34.1884 25.9641 34.1693 25.8777C34.1503 25.7914 34.1141 25.7097 34.0628 25.6377C34.0164 25.5724 33.9573 25.5171 33.889 25.4752C33.8207 25.4333 33.7447 25.4056 33.6654 25.3938C33.3262 25.3445 33.0003 25.6016 32.9438 25.9602C32.9287 26.0477 32.9313 26.1372 32.9514 26.2237C32.9715 26.3101 33.0087 26.3916 33.0607 26.4635C33.1566 26.5965 33.2963 26.6807 33.4531 26.7029ZM21.0131 31.9444C21.6577 31.9444 22.2385 31.4356 22.351 30.7362C22.3818 30.5496 22.3754 30.3588 22.3321 30.1747C22.2888 29.9907 22.2095 29.817 22.0988 29.6637C22.0021 29.5302 21.8794 29.4176 21.738 29.3326C21.5967 29.2477 21.4397 29.1921 21.2763 29.1693C20.5608 29.0657 19.8819 29.6044 19.761 30.3648C19.7297 30.5508 19.7356 30.7411 19.7784 30.9247C19.8212 31.1083 19.9001 31.2816 20.0104 31.4345C20.1252 31.593 20.2761 31.7219 20.4505 31.8105C20.6249 31.8992 20.8174 31.9451 21.0131 31.9444ZM28.8923 25.9042C28.9167 25.7693 28.9137 25.6307 28.8835 25.4969C28.8532 25.3631 28.7962 25.2368 28.716 25.1255C28.6441 25.0254 28.5529 24.9408 28.4477 24.8766C28.3425 24.8124 28.2255 24.77 28.1036 24.752C27.5776 24.6716 27.0743 25.0718 26.984 25.6343C26.9396 25.917 27.0078 26.2041 27.1713 26.4247C27.2553 26.5405 27.3657 26.6346 27.4933 26.6993C27.6209 26.7639 27.7621 26.7973 27.9051 26.7966C28.3829 26.7966 28.8113 26.4203 28.8923 25.9042ZM31.0156 25.5928C31.0352 25.4724 31.0308 25.3494 31.0027 25.2308C30.9745 25.1122 30.9231 25.0003 30.8515 24.9016C30.7884 24.8144 30.7085 24.7408 30.6164 24.6851C30.5244 24.6294 30.422 24.5928 30.3156 24.5774C29.85 24.5131 29.4066 24.8589 29.329 25.3511C29.2891 25.5983 29.3473 25.851 29.4897 26.045C29.5637 26.1475 29.6607 26.2311 29.773 26.2891C29.8853 26.3471 30.0096 26.3778 30.136 26.3787C30.5561 26.3787 30.9385 26.0461 31.0156 25.5928ZM154.468 35.235C154.296 35.2352 154.126 35.2015 153.967 35.1358C153.808 35.0701 153.664 34.9736 153.542 34.852C153.421 34.7304 153.324 34.586 153.258 34.4271C153.193 34.2681 153.159 34.0978 153.159 33.9259C153.159 33.7539 153.193 33.5836 153.258 33.4247C153.324 33.2657 153.421 33.1213 153.542 32.9997C153.664 32.8781 153.808 32.7817 153.967 32.716C154.126 32.6502 154.296 32.6165 154.468 32.6167C154.64 32.6164 154.81 32.6501 154.969 32.7158C155.128 32.7815 155.273 32.8779 155.394 32.9995C155.516 33.1211 155.612 33.2656 155.678 33.4245C155.744 33.5835 155.777 33.7539 155.777 33.9259C155.777 34.0979 155.744 34.2682 155.678 34.4271C155.612 34.586 155.516 34.7304 155.394 34.8521C155.273 34.9737 155.128 35.0701 154.969 35.1358C154.81 35.2015 154.64 35.2352 154.468 35.235ZM154.468 32.3939C154.062 32.3947 153.673 32.5563 153.386 32.8435C153.099 33.1307 152.938 33.5199 152.937 33.9259C152.938 34.3316 153.099 34.7206 153.386 35.0075C153.673 35.2944 154.062 35.456 154.468 35.4567C154.874 35.4561 155.263 35.2947 155.55 35.0078C155.837 34.7208 155.999 34.3318 156 33.9259C155.999 33.5198 155.838 33.1304 155.551 32.8433C155.263 32.5561 154.874 32.3945 154.468 32.3939Z" fill="black"/>
<path fill-rule="evenodd" clip-rule="evenodd" d="M154.419 33.8312H154.135V33.2337H154.53C154.719 33.2337 154.925 33.3002 154.925 33.5263C154.925 33.8184 154.662 33.8312 154.419 33.8312ZM155.148 33.5263C155.148 33.2099 154.991 33.0369 154.592 33.0369H153.912V34.8028H154.135V34.0285H154.452L154.979 34.8028H155.23L154.703 34.0285C154.941 33.988 155.148 33.8511 155.148 33.5263Z" fill="black"/>
</svg>
