<svg width="280" height="48" viewBox="0 0 280 48" fill="none" xmlns="http://www.w3.org/2000/svg">
<path d="M60.9561 40.2084L37.6939 23.8121L60.8878 11.6857C61.7076 11.2417 62.1517 10.3194 61.9126 9.3971C61.6734 8.50897 60.8536 7.85995 59.9313 7.85995H40.7682C39.9484 7.85995 39.2311 8.33817 38.8895 9.05551L34.8929 17.9368L31.5795 5.50299C31.3404 4.61486 30.5206 4 29.5983 4H8.96636C8.07823 4 7.29257 4.54654 7.0193 5.40051C6.74603 6.25448 7.05346 7.14261 7.7708 7.655L32.536 25.1443L37.1132 42.497C37.3524 43.3851 38.1722 44 39.0945 44H59.9313C59.9313 44 59.9313 44 59.9655 44C61.0927 44 62.015 43.0777 62.015 41.9846C62.015 41.2331 61.571 40.5841 60.9561 40.2084Z" fill="black"/>
<path d="M28.1978 25.4176L7.80496 36.69C6.98514 37.1341 6.57524 38.0905 6.81435 38.9786C7.05346 39.8668 7.87327 40.4816 8.79556 40.4816H25.7725C26.6948 40.4816 27.4804 39.9009 27.7537 39.047L31.2038 27.7746C31.4429 26.9889 31.1696 26.1349 30.5206 25.6225C29.8374 25.1102 28.9151 25.0418 28.1978 25.4176Z" fill="black"/>
<path d="M40.3238 40.3449L37.0104 27.8428L54.7047 40.3449H40.3238Z" fill="#3A8DDE"/>
<path d="M15.1823 36.7926L26.4547 30.5757L24.5759 36.7926H15.1823Z" fill="#F47921"/>
<path d="M41.7924 11.5493H53.2015L38.274 19.3717L41.7924 11.5493Z" fill="#D53069"/>
<path d="M14.1588 7.65479H28.3689L31.614 19.9861L14.1588 7.65479Z" fill="#009349"/>
<path d="M173.851 11.4468V14.8285H178.702V16.9122H173.851V23.0608H171.187V9.26062H179.658V11.4468H173.851Z" fill="black"/>
<path d="M189.803 23.0608L186.866 18.4493C186.661 18.1419 186.456 17.8003 186.148 17.5271C186.012 17.5271 185.841 17.5612 185.704 17.5612C185.397 17.5612 185.089 17.5271 184.748 17.4929V23.0608H182.083V9.46557C183.347 9.1923 184.577 9.05566 185.875 9.05566C188.71 9.05566 191.58 9.90964 191.58 13.2914C191.58 15.1018 190.179 16.7414 188.471 17.0147C188.949 17.0147 189.428 17.7662 189.667 18.1078L192.98 23.0608H189.803ZM186.012 11.2077C185.602 11.2077 185.192 11.2418 184.748 11.3443V15.5117C185.158 15.58 185.533 15.58 185.943 15.58C187.515 15.58 188.813 14.7943 188.813 13.223C188.779 11.6517 187.549 11.2077 186.012 11.2077Z" fill="black"/>
<path d="M205.79 23.0608L204.355 19.5424H198.753L197.318 23.0266L194.483 23.0608L200.495 9.26062H203.023L208.796 23.0608H205.79ZM201.588 12.6423L201.554 12.7107L199.675 17.3563H203.467L201.588 12.6423Z" fill="black"/>
<path d="M217.404 23.2999C212.895 23.2999 209.615 20.6013 209.615 16.1949C209.615 11.5834 212.621 9.05566 217.369 9.05566C218.872 9.05566 220.375 9.43141 221.776 9.97795L220.888 12.0616C219.692 11.5834 218.463 11.2418 217.165 11.2418C214.193 11.2418 212.485 13.1547 212.485 15.9216C212.485 18.8593 214.09 21.0796 217.369 21.0796C218.087 21.0796 219.009 21.0113 219.692 20.738C219.658 20.533 219.624 20.2939 219.624 20.089V15.8191H222.254V22.2068C220.717 22.89 219.077 23.2999 217.404 23.2999Z" fill="black"/>
<path d="M228.369 9.26062H225.704V23.0608H228.369V9.26062Z" fill="black"/>
<path d="M231.955 23.0608V9.26062H234.62V20.8746H240.597V23.0608H231.955Z" fill="black"/>
<path d="M242.818 23.0608V9.26062H251.289V11.4468H245.482V14.8285H250.333V16.9122H245.482V20.8746H251.494V23.0608H242.818Z" fill="black"/>
<path d="M269.974 23.0608L266.08 17.8345L261.947 23.0608H258.668L264.44 15.9216L259.077 9.26062H262.357L266.148 14.077L269.906 9.26062H273.083L267.788 15.9557L273.253 23.0608H269.974Z" fill="black"/>
<path d="M67.9587 30.2V35.0505H72.8093V36.2119H67.9587V42.8388H66.524V29.0386H73.7999V30.2H67.9587Z" fill="black"/>
<path d="M81.8614 43.0779C78.0697 43.0779 75.6103 40.311 75.6103 35.9728C75.6103 31.5663 78.0014 28.8336 81.8614 28.8336C85.6872 28.8336 88.0783 31.5663 88.0783 35.9728C88.0783 40.311 85.653 43.0779 81.8614 43.0779ZM81.8614 29.9609C78.8554 29.9609 77.0791 32.2154 77.0791 35.9387C77.0791 38.808 78.343 41.8823 81.8614 41.8823C85.4139 41.8823 86.6436 38.808 86.6436 35.9387C86.6436 32.2495 84.8673 29.9609 81.8614 29.9609Z" fill="black"/>
<path d="M96.6863 43.0779C93.5095 43.0779 91.3917 41.4382 91.3917 38.3298V29.0386H92.8264V38.1248C92.8264 40.516 94.1585 41.9165 96.6863 41.9165C99.2141 41.9165 100.546 40.516 100.546 38.1248V29.0386H101.981V38.3298C101.981 41.4724 99.8631 43.0779 96.6863 43.0779Z" fill="black"/>
<path d="M116.362 42.9412C115.576 42.9071 114.859 42.3605 114.381 41.6432L107.617 31.0198C107.48 30.8148 107.31 30.3025 107.31 30.3025H107.276V42.8388H105.841V29.0386H107.925L115.337 40.7892C115.474 40.9942 115.679 41.5066 115.679 41.5066H115.713V29.0386H117.147V42.7704C116.908 42.8729 116.635 42.9412 116.362 42.9412Z" fill="black"/>
<path d="M124.492 43.0779C123.364 43.0779 122.271 42.9754 121.178 42.7704V29.1752C122.442 28.9361 123.706 28.7995 124.97 28.7995C129.479 28.7995 132.246 31.2247 132.246 35.5971C132.211 40.1744 129.342 43.0779 124.492 43.0779ZM124.936 29.9609C124.15 29.9609 123.33 30.0292 122.545 30.1658V41.6432C123.228 41.7798 123.911 41.8481 124.594 41.8481C128.659 41.8481 130.743 39.2521 130.743 35.5629C130.777 32.0446 128.693 29.9609 124.936 29.9609Z" fill="black"/>
<path d="M144.782 42.8388L143.108 38.808H136.447L134.808 42.8388H133.373L139.214 29.0386H140.649L146.285 42.8388H144.782ZM139.863 30.6099C139.761 30.8148 139.658 31.054 139.658 31.054L136.994 37.6466H142.664L139.863 30.6099Z" fill="black"/>
<path d="M151.648 30.2V42.8388H150.213V30.2H146.012V29.0386H156.191V30.2H151.648Z" fill="black"/>
<path d="M160.222 29.0386H158.787V42.8388H160.222V29.0386Z" fill="black"/>
<path d="M169.82 43.0779C166.029 43.0779 163.569 40.311 163.569 35.9728C163.569 31.5663 165.96 28.8336 169.82 28.8336C173.646 28.8336 176.037 31.5663 176.037 35.9728C176.037 40.311 173.612 43.0779 169.82 43.0779ZM169.82 29.9609C166.814 29.9609 165.038 32.2154 165.038 35.9387C165.038 38.808 166.302 41.8823 169.82 41.8823C173.373 41.8823 174.603 38.808 174.603 35.9387C174.603 32.2495 172.861 29.9609 169.82 29.9609Z" fill="black"/>
<path d="M189.906 42.9412C189.086 42.9071 188.403 42.3605 187.925 41.6432L181.127 31.054C180.99 30.849 180.82 30.3366 180.82 30.3366H180.751V42.8729H179.351V29.0386H181.469L188.881 40.7892C189.018 40.9942 189.223 41.5066 189.223 41.5066H189.257V29.0386H190.691V42.7704C190.418 42.8729 190.145 42.9412 189.906 42.9412Z" fill="black"/>
<path d="M77.0791 23.1633C76.2593 23.1291 75.5761 22.5826 75.0979 21.8311L68.3003 11.2077C68.1637 11.0027 67.9929 10.4903 67.9929 10.4903H67.9246V22.9925H66.524V9.26062H68.6077L76.0202 21.0113C76.1568 21.2162 76.3618 21.7286 76.3618 21.7286H76.396V9.26062H77.8306V22.9925C77.5915 23.0949 77.3182 23.1633 77.0791 23.1633Z" fill="black"/>
<path d="M91.7674 23.0608L90.0936 19.0642H83.4327L81.793 23.0949H80.3584L86.1995 9.29478H87.6342L93.2704 23.0608H91.7674ZM86.8486 10.8661C86.7461 11.1052 86.6436 11.3101 86.6436 11.3101L83.9792 17.9028H89.6496L86.8486 10.8661Z" fill="black"/>
<path d="M98.6334 10.422V23.0608H97.1987V10.422H92.963V9.26062H103.142V10.422H98.6334Z" fill="black"/>
<path d="M107.207 9.26062H105.773V23.0608H107.207V9.26062Z" fill="black"/>
<path d="M116.806 23.2999C113.014 23.2999 110.555 20.533 110.555 16.1949C110.555 11.7884 112.946 9.05566 116.806 9.05566C120.632 9.05566 123.023 11.7884 123.023 16.1949C123.023 20.533 120.597 23.2999 116.806 23.2999ZM116.806 10.2171C113.8 10.2171 112.024 12.4715 112.024 16.1949C112.024 19.0642 113.287 22.1385 116.806 22.1385C120.358 22.1385 121.588 19.0642 121.588 16.1949C121.588 12.4715 119.812 10.2171 116.806 10.2171Z" fill="black"/>
<path d="M136.857 23.1633C136.037 23.1291 135.354 22.5826 134.876 21.8311L128.112 11.2418C127.942 11.0369 127.805 10.5245 127.805 10.5245H127.771V23.0266H126.336V9.26062H128.454L135.866 21.0113C136.003 21.2162 136.208 21.7286 136.208 21.7286H136.242V9.26062H137.677V22.9925C137.404 23.0949 137.13 23.1633 136.857 23.1633Z" fill="black"/>
<path d="M151.545 23.0608L149.906 19.0642H143.245L141.605 23.0949H140.171L146.012 9.29478H147.446L153.083 23.0949H151.545V23.0608ZM146.627 10.8661C146.524 11.1052 146.456 11.3101 146.456 11.3101L143.791 17.9028H149.462L146.627 10.8661Z" fill="black"/>
<path d="M155.713 23.0608V9.26062H157.113V21.8994H163.125V23.0608H155.713Z" fill="black"/>
</svg>
