<svg width="160" height="64" viewBox="0 0 160 64" fill="none" xmlns="http://www.w3.org/2000/svg">
<path d="M151.528 37.5295L155.759 40.3499C154.386 42.3723 151.102 45.842 145.424 45.842C138.373 45.842 133.122 40.387 133.122 33.4475C133.122 26.0627 138.429 21.053 144.83 21.053C151.269 21.053 154.423 26.1741 155.443 28.9387L156 30.3489L139.412 37.2141C140.674 39.7004 142.641 40.9622 145.424 40.9622C148.207 40.9622 150.137 39.5891 151.528 37.5295ZM138.521 33.0579L149.599 28.4563C148.986 26.9163 147.168 25.8215 144.997 25.8215C142.232 25.8215 138.392 28.2708 138.521 33.0579Z" fill="#FF302F"/>
<path d="M125.125 8.41699H130.469V44.71H125.125V8.41699Z" fill="#20B15A"/>
<path d="M116.701 22.0176H121.859V44.0605C121.859 53.208 116.46 56.9746 110.077 56.9746C104.065 56.9746 100.447 52.9297 99.0928 49.6455L103.824 47.6787C104.678 49.7012 106.737 52.0947 110.077 52.0947C114.178 52.0947 116.701 49.5527 116.701 44.8027V43.0215H116.516C115.291 44.5059 112.953 45.8418 109.984 45.8418C103.787 45.8418 98.1094 40.4424 98.1094 33.4844C98.1094 26.4893 103.787 21.0342 109.984 21.0342C112.935 21.0342 115.291 22.3516 116.516 23.7988H116.701V22.0176ZM117.072 33.4844C117.072 29.1055 114.159 25.9141 110.448 25.9141C106.7 25.9141 103.546 29.1055 103.546 33.4844C103.546 37.8076 106.7 40.9434 110.448 40.9434C114.159 40.9619 117.072 37.8076 117.072 33.4844Z" fill="#3686F7"/>
<path d="M68.7744 33.3916C68.7744 40.5351 63.208 45.7861 56.3799 45.7861C49.5518 45.7861 43.9854 40.5166 43.9854 33.3916C43.9854 26.2109 49.5518 20.9785 56.3799 20.9785C63.208 20.9785 68.7744 26.2109 68.7744 33.3916ZM63.3564 33.3916C63.3564 28.9384 60.1279 25.8769 56.3799 25.8769C52.6318 25.8769 49.4033 28.9384 49.4033 33.3916C49.4033 37.8076 52.6318 40.9062 56.3799 40.9062C60.1279 40.9062 63.3564 37.8076 63.3564 33.3916Z" fill="#FF302F"/>
<path d="M95.8457 33.4475C95.8457 40.5911 90.2793 45.842 83.4512 45.842C76.623 45.842 71.0566 40.5911 71.0566 33.4475C71.0566 26.2668 76.623 21.053 83.4512 21.053C90.2793 21.053 95.8457 26.2483 95.8457 33.4475ZM90.4092 33.4475C90.4092 28.9944 87.1807 25.9329 83.4326 25.9329C79.6846 25.9329 76.4561 28.9944 76.4561 33.4475C76.4561 37.8635 79.6846 40.9622 83.4326 40.9622C87.1992 40.9622 90.4092 37.845 90.4092 33.4475Z" fill="#FFBA40"/>
<path d="M23.6123 40.4053C15.8379 40.4053 9.75195 34.1338 9.75195 26.3594C9.75195 18.585 15.8379 12.3135 23.6123 12.3135C27.8057 12.3135 30.8672 13.9648 33.1309 16.0801L36.8603 12.3506C33.7061 9.32617 29.4941 7.02539 23.6123 7.02539C12.9619 7.02539 4 15.709 4 26.3594C4 37.0098 12.9619 45.6934 23.6123 45.6934C29.3643 45.6934 33.7061 43.8008 37.1016 40.2754C40.5898 36.7871 41.666 31.8887 41.666 27.918C41.666 26.6748 41.5176 25.3945 41.3506 24.4482H23.6123V29.6064H36.248C35.877 32.835 34.8564 35.043 33.3535 36.5459C31.5352 38.3828 28.6592 40.4053 23.6123 40.4053Z" fill="#3686F7"/>
</svg>
