<svg width="160" height="136" viewBox="0 0 160 136" fill="none" xmlns="http://www.w3.org/2000/svg">
<path d="M52.0336 109.118C51.3211 108.168 50.3711 107.396 49.1836 106.861C47.9961 106.327 46.4523 106.03 44.5523 106.03C43.8398 106.03 43.068 106.09 42.3555 106.268C41.643 106.446 40.9305 106.624 40.2773 106.861C39.6242 107.099 39.0305 107.336 38.4961 107.633C37.9617 107.93 37.5461 108.168 37.1898 108.405C36.4773 107.693 35.5867 107.099 34.518 106.683C33.4492 106.268 32.0836 106.03 30.4211 106.03C28.4617 106.03 26.6211 106.149 24.8992 106.446C23.1773 106.743 21.7523 107.04 20.6836 107.336V130.671H26.2648V111.196C26.6211 111.136 27.2148 111.077 27.9273 110.958C28.6398 110.84 29.3523 110.84 29.9461 110.84C31.668 110.84 32.8555 111.374 33.4492 112.502C34.1023 113.63 34.3992 115.471 34.3992 117.965V130.671H39.9805V117.311C39.9805 116.302 39.9211 115.411 39.8617 114.521C39.743 113.63 39.6242 112.858 39.3273 112.086C39.743 111.79 40.3367 111.552 41.1086 111.255C41.8805 110.958 42.7711 110.84 43.6617 110.84C45.443 110.84 46.5711 111.374 47.2242 112.502C47.818 113.63 48.1742 115.471 48.1742 117.965V130.671H53.8742V117.133C53.8742 115.53 53.7554 113.986 53.4586 112.621C53.2211 111.255 52.7461 110.068 52.0336 109.118ZM73.7054 108.583C72.9336 107.752 71.9242 107.099 70.6773 106.624C69.4304 106.149 67.9461 105.971 66.1054 105.911H65.9867C64.4429 105.911 63.0179 106.03 61.6523 106.268C60.2867 106.505 59.2773 106.743 58.5648 106.98L59.2773 111.493C59.9304 111.255 60.8211 111.018 61.8898 110.84C62.9586 110.661 64.1461 110.543 65.4523 110.543H66.1054C66.7586 110.602 67.3523 110.721 67.8273 110.899C68.4804 111.136 68.9554 111.493 69.3711 111.908C69.7273 112.383 70.0242 112.858 70.2023 113.452C70.3804 114.046 70.4398 114.64 70.4398 115.293V116.243C69.6679 116.065 68.9554 115.946 68.2429 115.827C67.5898 115.768 66.9367 115.708 66.2836 115.708H66.1054C64.8586 115.708 63.6117 115.827 62.4836 116.124C61.2961 116.361 60.2273 116.836 59.2773 117.43C58.3273 118.024 57.6148 118.796 57.0804 119.746C56.5461 120.696 56.2492 121.883 56.2492 123.249C56.2492 124.674 56.4867 125.921 56.9617 126.871C57.4367 127.88 58.0898 128.652 58.9211 129.246C59.7523 129.84 60.7617 130.315 62.0086 130.611C63.1961 130.908 64.5023 131.027 65.9867 131.027H66.1054C68.2429 131.027 70.1429 130.908 71.8648 130.611C73.5867 130.374 74.8929 130.136 75.7836 129.958V115.352C75.7836 113.927 75.6054 112.621 75.3086 111.433C75.0117 110.424 74.4773 109.415 73.7054 108.583ZM70.4398 126.515C69.5492 126.693 68.2429 126.811 66.5211 126.811H66.1648C64.9179 126.752 63.9086 126.515 63.1367 126.04C62.3054 125.505 61.8898 124.615 61.8898 123.308C61.8898 122.655 62.0679 122.061 62.3648 121.646C62.6617 121.171 63.0773 120.874 63.6117 120.636C64.1461 120.399 64.6804 120.221 65.3336 120.102C65.6304 120.043 65.9273 120.043 66.2242 119.983C66.5804 119.983 66.8773 119.924 67.2336 119.924C67.9461 119.924 68.5992 119.983 69.1929 120.043C69.7867 120.161 70.2023 120.221 70.5586 120.34V126.515H70.4398ZM92.1117 106.327C91.6367 106.268 91.1023 106.208 90.6273 106.149C90.1523 106.09 89.6773 106.09 89.321 106.09C87.3617 106.09 85.5804 106.268 83.9179 106.624C82.3148 106.98 80.9492 107.336 79.8804 107.752V130.73H85.4617V111.374C85.7585 111.255 86.2336 111.196 86.8867 111.077C87.5992 110.958 88.2523 110.899 88.846 110.899C89.9148 110.899 90.8648 110.958 91.696 111.136C92.5273 111.315 93.121 111.493 93.596 111.611L94.546 106.921C94.2492 106.802 93.8929 106.743 93.4179 106.624C93.121 106.446 92.646 106.386 92.1117 106.327ZM112.477 123.605C111.527 122.358 110.518 121.23 109.509 120.102C108.499 119.033 107.549 118.083 106.599 117.311C108.321 115.53 110.043 113.749 111.705 111.908C113.427 110.068 115.03 108.286 116.574 106.565H109.984C109.509 107.158 108.915 107.811 108.202 108.643C107.49 109.415 106.777 110.246 106.005 111.077C105.234 111.908 104.462 112.74 103.63 113.63C102.859 114.461 102.087 115.293 101.374 116.005V94.8677L95.7929 95.8177V130.671H101.374V119.627C102.205 120.221 103.037 120.993 103.927 121.883C104.818 122.774 105.649 123.665 106.48 124.674C107.312 125.683 108.084 126.693 108.796 127.702C109.509 128.771 110.162 129.721 110.696 130.73H117.168C116.634 129.661 115.921 128.533 115.09 127.286C114.318 126.04 113.427 124.793 112.477 123.605ZM138.365 113.393C137.771 111.849 136.999 110.483 135.99 109.415C134.98 108.286 133.734 107.455 132.309 106.861C130.884 106.268 129.34 105.971 127.618 105.971C125.955 105.971 124.352 106.268 122.987 106.861C121.562 107.455 120.374 108.286 119.305 109.415C118.296 110.543 117.465 111.849 116.93 113.393C116.337 114.936 116.099 116.658 116.099 118.558C116.099 120.458 116.396 122.18 116.93 123.783C117.524 125.327 118.296 126.693 119.305 127.821C120.315 128.949 121.562 129.78 122.927 130.433C124.352 131.027 125.896 131.383 127.618 131.383C129.34 131.383 130.943 131.086 132.368 130.433C133.793 129.84 135.04 128.949 136.049 127.821C137.059 126.693 137.83 125.386 138.424 123.783C138.959 122.24 139.255 120.458 139.255 118.558C139.255 116.658 138.959 114.936 138.365 113.393ZM131.952 124.377C130.943 125.802 129.459 126.515 127.618 126.515C125.777 126.515 124.352 125.802 123.284 124.377C122.274 122.952 121.74 121.052 121.74 118.618C121.74 116.243 122.274 114.343 123.284 112.918C124.293 111.493 125.777 110.84 127.618 110.84C129.459 110.84 130.884 111.552 131.952 112.918C132.962 114.343 133.496 116.243 133.496 118.618C133.496 121.052 132.962 122.952 131.952 124.377Z" fill="#272525"/>
<path d="M80.0601 4.61768H101.494C93.5976 17.5614 84.8695 31.8114 76.1414 46.002H54.707C63.4352 31.8114 72.1633 17.5614 80.0601 4.61768Z" fill="#8DC220"/>
<path d="M29.3531 4.61768H50.7875C46.5718 11.5052 42.2968 18.452 38.0812 25.3395C33.8656 32.227 29.65 39.1145 25.4344 46.002C29.65 52.8895 33.8656 59.8364 38.0812 66.7239C42.2968 73.6114 46.5125 80.4989 50.7875 87.3864H29.3531C25.1375 80.4989 20.8625 73.6114 16.6469 66.7239C12.4312 59.8958 8.21562 52.9489 4 46.0614C8.21562 39.1739 12.4312 32.2864 16.6469 25.3989C20.8625 18.452 25.1375 11.5645 29.3531 4.61768Z" fill="#44BFEF"/>
<path d="M29.3535 4.61768C38.0816 18.8677 46.8098 33.1177 54.7066 46.002H76.141C68.2441 33.1177 59.516 18.8677 50.7879 4.61768H29.3535Z" fill="#00AC71"/>
<path d="M101.493 4.61768H80.0586C84.2742 11.5052 88.4898 18.452 92.7648 25.3395C96.9805 32.227 101.196 39.1145 105.471 46.002C101.255 52.8895 96.9805 59.8364 92.7648 66.7239C88.5492 73.6114 84.3336 80.4989 80.0586 87.3864H101.493C105.709 80.4989 109.924 73.6114 114.199 66.7239C118.415 59.8364 122.63 52.9489 126.905 46.002C122.63 39.1145 118.415 32.227 114.199 25.3395C109.984 18.452 105.709 11.5645 101.493 4.61768Z" fill="#F9BC00"/>
<path d="M92.6469 19.2241H71.2125C68.4812 23.6772 65.75 28.1897 63.0187 32.6429C60.2875 37.096 57.5562 41.6085 54.7656 46.0616H76.2C78.9312 41.6085 81.7219 37.096 84.4531 32.6429C87.125 28.1304 89.8562 23.6772 92.6469 19.2241Z" fill="url(#paint0_linear_150_220)"/>
<path d="M63.6719 31.4552H85.1062C87.8375 27.002 90.5687 22.4895 93.3 18.0364C96.0312 13.5833 98.7625 9.0708 101.494 4.61768H80.0594C77.3281 9.0708 74.5969 13.5833 71.8656 18.0364C69.1344 22.5489 66.4031 27.002 63.6719 31.4552Z" fill="url(#paint1_linear_150_220)"/>
<path d="M117.94 31.4552H96.5055C93.7742 27.002 90.9836 22.4895 88.2523 18.0364C85.5211 13.5833 82.7898 9.0708 80.0586 4.61768H101.493C104.224 9.0708 106.955 13.5833 109.687 18.0364C112.477 22.5489 115.209 27.002 117.94 31.4552Z" fill="url(#paint2_linear_150_220)"/>
<path d="M130.587 4.61768H109.153C113.369 11.5645 117.584 18.452 121.8 25.3395C126.016 32.227 130.291 39.1145 134.506 46.002C130.291 52.8895 126.016 59.8364 121.8 66.7239C117.584 73.6114 113.369 80.4989 109.094 87.3864H130.528C134.744 80.4989 138.959 73.6114 143.234 66.7239C147.45 59.8364 151.666 52.9489 155.941 46.002C151.725 39.1145 147.509 32.227 143.234 25.3395C139.078 18.452 134.803 11.5645 130.587 4.61768Z" fill="#DF1B1C"/>
<path d="M147.034 31.4552H125.599C122.809 27.002 120.077 22.4895 117.346 18.0364C114.615 13.5833 111.884 9.0708 109.152 4.61768H130.587C133.318 9.0708 136.049 13.5833 138.78 18.0364C141.512 22.5489 144.302 27.002 147.034 31.4552Z" fill="url(#paint3_linear_150_220)"/>
<path d="M118.119 72.8985H139.554C142.285 68.4454 145.016 63.9923 147.747 59.4798C150.478 55.0267 153.21 50.5142 156 46.061H134.507C131.775 50.5142 129.044 55.0267 126.313 59.4798C123.582 63.9329 120.85 68.386 118.119 72.8985Z" fill="url(#paint4_linear_150_220)"/>
<path d="M89.0254 72.8985H110.46C113.191 68.4454 115.922 63.9329 118.653 59.4798C121.385 55.0267 124.116 50.5142 126.907 46.061H105.472C102.741 50.5142 100.01 55.0267 97.2785 59.4798C94.4879 63.9329 91.7566 68.386 89.0254 72.8985Z" fill="url(#paint5_linear_150_220)"/>
<path d="M41.8812 19.2241H20.4469C17.7156 23.6772 14.9844 28.1897 12.2531 32.6429C9.4625 37.096 6.73125 41.6085 4 46.0616H25.4344C28.1656 41.6085 30.8969 37.1554 33.6281 32.6429C36.3594 28.1897 39.0906 23.6772 41.8812 19.2241Z" fill="url(#paint6_linear_150_220)"/>
<path d="M12.9062 31.4552H34.3406C37.0719 27.002 39.8031 22.4895 42.5344 18.0364C45.325 13.5833 48.0562 9.0708 50.7875 4.61768H29.3531C26.6219 9.0708 23.8906 13.5239 21.1594 18.0364C18.4281 22.4895 15.6969 27.002 12.9062 31.4552Z" fill="url(#paint7_linear_150_220)"/>
<path d="M12.9062 60.6079H34.3406C37.0719 65.061 39.8031 69.5735 42.5344 74.0266C45.2656 78.4798 47.9968 82.9923 50.7281 87.4454H29.2937C26.5625 82.9923 23.7719 78.5391 21.0406 74.0266C18.3687 69.5735 15.6375 65.1204 12.9062 60.6079Z" fill="url(#paint8_linear_150_220)"/>
<path d="M67.2347 31.4552H45.8004C43.0691 27.002 40.3379 22.4895 37.6066 18.0364C34.816 13.5833 32.0848 9.0708 29.3535 4.61768H50.7879C53.5191 9.0708 56.2504 13.5239 58.9816 18.0364C61.7722 22.4895 64.5035 27.002 67.2347 31.4552Z" fill="url(#paint9_linear_150_220)"/>
<defs>
<linearGradient id="paint0_linear_150_220" x1="73.6725" y1="46.037" x2="73.6725" y2="19.1999" gradientUnits="userSpaceOnUse">
<stop stop-color="#8AC23E"/>
<stop offset="1" stop-color="#8AC23E" stop-opacity="0"/>
</linearGradient>
<linearGradient id="paint1_linear_150_220" x1="82.5766" y1="4.63477" x2="82.5766" y2="31.4719" gradientUnits="userSpaceOnUse">
<stop stop-color="#698932"/>
<stop offset="1" stop-color="#698932" stop-opacity="0"/>
</linearGradient>
<linearGradient id="paint2_linear_150_220" x1="99.0218" y1="4.63477" x2="99.0218" y2="31.4719" gradientUnits="userSpaceOnUse">
<stop stop-color="#FFED01"/>
<stop offset="1" stop-color="#FFED01" stop-opacity="0"/>
</linearGradient>
<linearGradient id="paint3_linear_150_220" x1="128.099" y1="4.63477" x2="128.099" y2="31.48" gradientUnits="userSpaceOnUse">
<stop stop-color="#E02A89"/>
<stop offset="1" stop-color="#E02A89" stop-opacity="0"/>
</linearGradient>
<linearGradient id="paint4_linear_150_220" x1="137.046" y1="46.0365" x2="137.046" y2="72.8736" gradientUnits="userSpaceOnUse">
<stop stop-color="#7F1E4F"/>
<stop offset="1" stop-color="#7F1E4F" stop-opacity="0"/>
</linearGradient>
<linearGradient id="paint5_linear_150_220" x1="107.953" y1="46.0365" x2="107.953" y2="72.8736" gradientUnits="userSpaceOnUse">
<stop stop-color="#E95506"/>
<stop offset="1" stop-color="#E95506" stop-opacity="0"/>
</linearGradient>
<linearGradient id="paint6_linear_150_220" x1="22.9318" y1="46.037" x2="22.9318" y2="19.217" gradientUnits="userSpaceOnUse">
<stop stop-color="#88D0F1"/>
<stop offset="1" stop-color="#88D0F1" stop-opacity="0"/>
</linearGradient>
<linearGradient id="paint7_linear_150_220" x1="31.8546" y1="4.63477" x2="31.8546" y2="31.4548" gradientUnits="userSpaceOnUse">
<stop stop-color="#00828B"/>
<stop offset="0.8325" stop-color="#00828B" stop-opacity="0"/>
</linearGradient>
<linearGradient id="paint8_linear_150_220" x1="31.8467" y1="87.4387" x2="31.8467" y2="60.6269" gradientUnits="userSpaceOnUse">
<stop stop-color="#2073BA"/>
<stop offset="1" stop-color="#2073BA" stop-opacity="0"/>
</linearGradient>
<linearGradient id="paint9_linear_150_220" x1="48.3008" y1="4.63477" x2="48.3008" y2="31.4548" gradientUnits="userSpaceOnUse">
<stop stop-color="#8ED0E1"/>
<stop offset="1" stop-color="#88D0F1" stop-opacity="0"/>
</linearGradient>
</defs>
</svg>
