<svg width="200" height="48" viewBox="0 0 200 48" fill="none" xmlns="http://www.w3.org/2000/svg">
<path d="M105.683 6.34394C106.34 6.34124 106.994 6.43443 107.624 6.62062C108.211 6.79501 108.755 7.09098 109.221 7.48931C109.707 7.92327 110.087 8.46281 110.332 9.06653C110.627 9.8169 110.767 10.6191 110.745 11.4251C110.736 11.9588 110.686 12.4911 110.594 13.0169C110.492 13.6478 110.356 14.332 110.182 15.0794C110.007 15.8268 109.803 16.6275 109.565 17.4719C109.327 18.3164 109.08 19.1753 108.803 20.0537C109.797 19.9858 110.916 19.9178 112.162 19.8499L115.913 19.6509C116.402 18.0333 116.945 16.3654 117.544 14.6475C118.142 12.9295 118.771 11.2374 119.431 9.57125C119.621 9.07341 119.92 8.62414 120.305 8.25608C120.654 7.93536 121.113 7.76152 121.586 7.77078C121.785 7.77096 121.982 7.79873 122.173 7.85328C122.351 7.91116 122.516 8.0035 122.659 8.12505C122.808 8.24848 122.925 8.40683 122.998 8.58609C123.084 8.79534 123.125 9.02007 123.12 9.24609C123.12 9.50379 123.107 9.76132 123.081 10.0177C123.046 10.3501 122.968 10.6764 122.848 10.9883C122.625 11.5852 122.363 12.2258 122.139 12.9053C121.916 13.5847 121.654 14.2835 121.377 15.0066C121.101 15.7297 120.868 16.4625 120.611 17.2099C120.353 17.9572 120.125 18.7143 119.878 19.4568L121.47 19.3452L122.498 19.2675H123.052C123.288 19.2608 123.523 19.2903 123.751 19.3549C123.91 19.401 124.055 19.486 124.173 19.6024C124.273 19.7068 124.345 19.8356 124.381 19.9761C124.421 20.1347 124.441 20.2978 124.44 20.4614C124.442 20.6322 124.397 20.8003 124.309 20.9467C124.226 21.078 124.115 21.1891 123.984 21.2718C123.857 21.3528 123.717 21.4119 123.571 21.4465C123.437 21.4779 123.301 21.499 123.163 21.5096L122.586 21.5776L122.338 21.6067H121.834L121.169 21.6649L120.15 21.7668L119.189 21.8785C118.865 23.0691 118.595 24.1755 118.378 25.1979C118.191 26.0774 118.089 26.9729 118.073 27.8719C118.042 28.4178 118.189 28.959 118.49 29.4152C118.826 29.8126 119.336 30.0195 119.854 29.9684C120.154 29.9562 120.449 29.8853 120.722 29.7597C121.131 29.5814 121.52 29.3601 121.882 29.0997C122.389 28.7428 122.875 28.3572 123.338 27.9447C123.872 27.4691 124.467 26.9045 125.124 26.251C125.153 26.3092 125.211 26.4451 125.299 26.6538C125.346 26.7667 125.396 26.8923 125.454 27.043C125.57 26.4431 125.702 25.8283 125.847 25.1979C126.046 24.3341 126.264 23.4751 126.493 22.6161C126.721 21.7571 126.92 20.9661 127.094 20.243C127.162 19.9929 127.302 19.7683 127.497 19.5975C127.701 19.4164 127.934 19.2705 128.186 19.1656C128.442 19.0548 128.709 18.9718 128.982 18.9181C129.228 18.8686 129.478 18.8426 129.729 18.8405C130.023 18.8062 130.318 18.8861 130.554 19.0637C130.705 19.2267 130.784 19.4437 130.773 19.6655C130.758 19.9756 130.709 20.2831 130.627 20.5827C130.53 20.9807 130.409 21.4368 130.263 21.9415C130.118 22.4463 129.962 22.9946 129.802 23.577C129.642 24.1594 129.482 24.7466 129.317 25.3289C129.152 25.9113 129.055 26.484 128.958 27.0372C128.867 27.532 128.818 28.0337 128.812 28.5368C128.799 28.8872 128.848 29.2372 128.958 29.5705C129.042 29.8202 129.287 29.979 129.55 29.9538C129.961 29.9367 130.361 29.813 130.71 29.5947C131.162 29.3366 131.593 29.0446 132.001 28.7212C132.437 28.3815 132.86 28.0272 133.277 27.6584C133.691 27.2924 134.053 26.9838 134.366 26.723C134.372 26.6826 134.378 26.6415 134.383 26.6004C134.495 25.8094 134.636 25.0426 134.801 24.3001C134.964 23.5805 135.178 22.8734 135.441 22.1842C135.67 21.5586 135.998 20.9737 136.412 20.4517C136.811 19.9635 137.307 19.5636 137.868 19.2772C138.5 18.9725 139.195 18.8243 139.896 18.8453C140.455 18.8405 141.012 18.9207 141.547 19.0831C142.047 19.2369 142.506 19.5006 142.891 19.8548C143.295 20.241 143.607 20.7138 143.803 21.2379C144.044 21.9032 144.157 22.6077 144.138 23.3149C144.14 23.9603 144.041 24.602 143.847 25.2173C143.644 25.85 143.339 26.4451 142.944 26.979C142.498 27.5722 141.972 28.1013 141.382 28.5513C140.685 29.0738 139.929 29.512 139.13 29.8568L139.256 30.1771C140.152 30.1854 141.047 30.0876 141.92 29.8859C142.589 29.7325 143.238 29.5087 143.859 29.2184C143.855 29.1612 143.854 29.1038 143.857 29.0463C143.856 28.8209 143.916 28.5996 144.031 28.4057C144.144 28.2126 144.281 28.0348 144.439 27.8768C144.582 27.729 144.736 27.5927 144.9 27.4691C145.055 27.3381 145.172 27.2653 145.249 27.1779C145.788 26.6926 146.22 26.3287 146.565 26.0181C146.909 25.7075 147.191 25.426 147.433 25.1736C147.667 24.9268 147.887 24.6676 148.093 24.3972C148.287 24.1351 148.525 23.8294 148.792 23.4702L149.763 22.1599C150.151 21.6455 150.652 20.9984 151.267 20.2187C151.397 20.0483 151.538 19.8862 151.689 19.7334C151.846 19.5698 152.018 19.4219 152.204 19.2918C152.397 19.1618 152.606 19.0559 152.825 18.9764C153.07 18.8918 153.328 18.8508 153.587 18.855C153.949 18.8383 154.311 18.8893 154.654 19.0055C154.867 19.0794 155.058 19.2063 155.208 19.3743C155.317 19.504 155.388 19.6622 155.412 19.8305C155.429 19.9673 155.439 20.105 155.441 20.243C155.425 20.52 155.329 20.7865 155.164 21.0098C154.978 21.2913 154.775 21.5619 154.557 21.8202C154.334 22.0823 154.125 22.3055 153.927 22.5385C153.781 22.6752 153.666 22.8404 153.587 23.0238C153.584 23.2968 153.605 23.5696 153.65 23.8391C153.693 24.0836 153.751 24.3251 153.825 24.5622C153.897 24.8 153.97 25.0475 154.048 25.3144C154.125 25.5813 154.198 25.887 154.271 26.2365C154.351 26.6325 154.41 27.0327 154.446 27.4351C154.489 27.8913 154.514 28.4057 154.514 29.0415C154.872 28.8059 155.246 28.5967 155.635 28.4155L156.887 27.8282C157.319 27.6244 157.765 27.4012 158.226 27.1537C158.461 27.0253 158.691 26.8891 158.916 26.7452L158.969 27.1197C158.77 25.7913 158.676 24.4494 158.687 23.1063C158.687 22.5304 158.712 21.914 158.76 21.2573C158.809 20.5973 158.877 19.947 158.959 19.3161C158.673 19.2772 158.45 19.2433 158.289 19.2093L157.78 19.1074C157.6 19.0734 157.377 19.0346 157.1 18.9958C156.824 18.957 156.426 18.9084 155.907 18.855C155.719 18.837 155.537 18.7791 155.373 18.6852C155.257 18.6137 155.162 18.5134 155.096 18.394C155.038 18.2876 155.003 18.1702 154.994 18.0494V17.7388C154.994 17.5493 155.104 17.3768 155.276 17.2972C155.503 17.1843 155.747 17.1089 155.999 17.074C156.32 17.0226 156.644 16.995 156.969 16.9915H158.852C159.028 17.0073 159.205 17.0073 159.381 16.9915C159.63 15.7118 159.954 14.4478 160.352 13.2061C160.711 12.0838 161.162 10.9931 161.701 9.94493C162.12 9.10274 162.669 8.33146 163.327 7.65916C163.806 7.13741 164.473 6.82824 165.181 6.80013C165.585 6.79716 165.981 6.91733 166.316 7.14474C166.67 7.38933 166.969 7.70501 167.195 8.07167C167.448 8.49244 167.636 8.94888 167.753 9.42566C167.882 9.95455 167.947 10.4972 167.947 11.0417C167.942 11.5466 167.874 12.0488 167.743 12.5364C167.604 13.0904 167.426 13.6337 167.209 14.1622C166.966 14.7284 166.692 15.2808 166.389 15.8171C166.078 16.3752 165.744 16.9332 165.418 17.4816C165.506 17.4816 165.651 17.4816 165.85 17.5059H166.554L167.418 17.5447L168.311 17.5787L169.121 17.6078L169.747 17.6369C169.93 17.6474 170.092 17.76 170.165 17.9281C170.26 18.1468 170.304 18.3839 170.296 18.6221C170.308 18.9242 170.203 19.2194 170.005 19.4471C169.85 19.6416 169.617 19.7572 169.369 19.7625H163.793C163.511 20.1508 163.23 20.5293 162.943 20.903C162.657 21.2767 162.395 21.6067 162.157 21.9076C162.118 22.5045 162.084 23.0917 162.055 23.6741C162.055 23.9216 162.055 24.1594 162.026 24.4457L161.997 25.2367C161.997 25.4988 161.997 25.722 161.973 25.9889C161.949 26.2559 161.973 26.4742 161.973 26.6538C161.964 27.0983 162.013 27.542 162.118 27.9738C162.196 28.2907 162.338 28.5881 162.536 28.8474C162.713 29.0665 162.946 29.2341 163.21 29.3327C163.495 29.4345 163.796 29.4854 164.098 29.4831C164.358 29.4728 164.615 29.4237 164.86 29.3375C165.202 29.2265 165.536 29.0936 165.86 28.9396C166.219 28.7697 166.603 28.5707 167.001 28.3378C167.398 28.1049 167.801 27.8525 168.189 27.5807C168.571 27.3138 168.943 27.0234 169.292 26.728C169.291 26.7145 169.291 26.7011 169.291 26.6878C169.294 26.1132 169.348 25.5399 169.451 24.9747C169.558 24.369 169.721 23.7744 169.937 23.1985C170.154 22.6208 170.429 22.0664 170.757 21.5436C171.073 21.0275 171.46 20.5586 171.907 20.1508C172.335 19.7482 172.827 19.4202 173.363 19.1802C173.936 18.9357 174.554 18.8134 175.178 18.8211C175.693 18.8163 176.204 18.9051 176.687 19.0831C177.133 19.2479 177.543 19.4966 177.896 19.8159C178.239 20.1342 178.512 20.5211 178.696 20.9515C178.896 21.4225 178.995 21.9299 178.987 22.4414C178.98 23.0658 178.828 23.6801 178.546 24.237C178.23 24.8627 177.818 25.4344 177.323 25.9307C176.769 26.4858 176.142 26.9625 175.459 27.3478C174.727 27.7721 173.942 28.0984 173.125 28.3184C173.247 28.5476 173.39 28.7652 173.552 28.9687C173.673 29.1256 173.817 29.263 173.979 29.3763C174.118 29.4708 174.272 29.5398 174.435 29.5802C174.604 29.6203 174.777 29.6399 174.95 29.6384C175.575 29.6301 176.195 29.5118 176.779 29.289C177.428 29.0544 178.055 28.7637 178.653 28.4203C179.253 28.0826 179.828 27.7032 180.375 27.2847C180.764 26.9954 181.137 26.6872 181.495 26.3613L181.487 26.4209C181.564 25.7948 181.666 25.1542 181.778 24.4797C181.89 23.8051 182.006 23.2082 182.132 22.621C182.258 22.0338 182.385 21.4902 182.511 21.0001C182.61 20.5868 182.735 20.18 182.884 19.782C182.947 19.6134 183.025 19.451 183.117 19.2967C183.185 19.1806 183.276 19.0798 183.384 19.0006C183.497 18.9234 183.627 18.8735 183.763 18.855C184.142 18.8097 184.524 18.8097 184.903 18.855C185.026 18.8682 185.139 18.9314 185.214 19.0297C185.292 19.1483 185.335 19.286 185.34 19.4277V21.4417C185.34 21.9464 185.35 22.4463 185.369 22.9413H185.529L186.18 21.6455C186.417 21.174 186.698 20.7256 187.019 20.3061C187.326 19.9029 187.692 19.5494 188.106 19.2578C188.517 18.971 189.008 18.8215 189.509 18.8308C189.692 18.8298 189.875 18.861 190.047 18.923C190.215 18.9817 190.37 19.0723 190.504 19.1899C190.636 19.3087 190.742 19.4543 190.814 19.617C190.894 19.7971 190.934 19.9925 190.931 20.1896C190.924 20.4208 190.9 20.6512 190.858 20.8787C190.809 21.1699 190.756 21.4805 190.698 21.8057C190.639 22.1308 190.586 22.4414 190.538 22.7423C190.494 22.994 190.47 23.2488 190.465 23.5042C190.458 23.7971 190.492 24.0895 190.567 24.3729C190.619 24.5744 190.71 24.7639 190.834 24.931C190.932 25.0608 191.062 25.1628 191.212 25.227C191.352 25.2853 191.502 25.315 191.654 25.3144C192.117 25.3081 192.574 25.2091 192.998 25.0232C193.441 24.8417 193.867 24.6242 194.274 24.3729C194.739 24.0801 195.184 23.7558 195.604 23.4023L195.386 26.7994C195.138 26.9644 194.852 27.1488 194.536 27.3478C194.207 27.5589 193.865 27.7501 193.512 27.9204C193.15 28.1008 192.773 28.2517 192.387 28.3718C191.998 28.4917 191.594 28.5522 191.188 28.5513C190.575 28.5812 189.966 28.4274 189.441 28.1097C188.996 27.8183 188.632 27.4193 188.383 26.9498C188.11 26.4462 187.914 25.9048 187.8 25.3435C187.679 24.7514 187.577 24.1497 187.5 23.543H187.267L184.675 30.7643C184.564 31.0832 184.436 31.3959 184.292 31.7009C184.192 31.9146 184.068 32.1165 183.923 32.3027C183.814 32.4411 183.674 32.5524 183.515 32.6279C183.362 32.6932 183.197 32.7247 183.03 32.7201C182.688 32.7397 182.348 32.6514 182.059 32.4677C181.816 32.2952 181.623 32.0606 181.501 31.7883C181.366 31.4799 181.279 31.1525 181.244 30.8177C181.227 30.6029 181.216 30.3877 181.214 30.1723C181.115 30.2461 181.015 30.3189 180.914 30.3906C180.497 30.6818 180.05 30.9633 179.575 31.2447C179.09 31.5289 178.586 31.7771 178.065 31.9873C177.536 32.2077 176.989 32.383 176.43 32.5114C175.876 32.6497 175.307 32.7246 174.736 32.7346C173.916 32.7537 173.101 32.5878 172.353 32.2493C171.697 31.9377 171.117 31.4854 170.655 30.9245C170.354 30.5516 170.102 30.1432 169.904 29.7091C169.127 30.1595 168.426 30.5619 167.801 30.9099C167.078 31.3127 166.433 31.6524 165.86 31.9242C165.374 32.1621 164.871 32.3648 164.356 32.5308C163.97 32.6574 163.568 32.7261 163.162 32.7346C162.457 32.7448 161.771 32.5098 161.221 32.0698C160.605 31.5524 160.122 30.8951 159.813 30.1528C159.727 29.9492 159.646 29.7435 159.571 29.5358L159.609 29.5074C158.958 30.0026 158.262 30.4379 157.532 30.808C156.731 31.2213 155.902 31.5796 155.052 31.8805C154.208 32.1825 153.344 32.4241 152.466 32.6036C151.638 32.774 150.797 32.8634 149.952 32.8705C149.417 32.874 148.883 32.8204 148.36 32.7104C147.904 32.6236 147.465 32.4595 147.064 32.2251C146.697 32.0054 146.387 31.7009 146.162 31.337C146.125 31.2771 146.091 31.216 146.06 31.1539C145.684 31.4273 145.286 31.6702 144.871 31.8805C144.345 32.146 143.794 32.359 143.226 32.5162C142.673 32.6724 142.101 32.7525 141.527 32.754C141.442 32.7521 141.358 32.7423 141.275 32.7249L140.765 32.6036L139.688 32.4095C139.203 32.327 138.581 32.2299 137.781 32.1134V32.3706C137.796 33.9765 137.648 35.5798 137.339 37.1557C137.102 38.4335 136.704 39.6761 136.155 40.8537C135.75 41.7332 135.173 42.5222 134.456 43.1734C133.92 43.6823 133.215 43.976 132.476 43.9984C131.985 44.0168 131.501 43.8736 131.098 43.5908C130.718 43.3075 130.418 42.9315 130.224 42.4989C129.984 41.9904 129.821 41.449 129.739 40.8925C129.646 40.2497 129.6 39.6009 129.603 38.9513C129.611 38.4987 129.674 38.0488 129.793 37.6119C129.921 37.0812 130.083 36.5593 130.278 36.0492C130.491 35.5008 130.729 34.9476 130.996 34.3846C131.263 33.8217 131.535 33.2685 131.811 32.7395C132.146 32.1027 132.507 31.4551 132.896 30.7968L133.078 30.6721C132.546 31.0445 131.988 31.3786 131.409 31.6718C130.826 31.97 130.223 32.2247 129.603 32.4337C129.03 32.6247 128.431 32.7262 127.827 32.7346C127.395 32.7472 126.965 32.6763 126.56 32.5259C126.236 32.4039 125.947 32.202 125.721 31.9387C125.499 31.673 125.343 31.3588 125.265 31.0215C125.189 30.714 125.144 30.4 125.129 30.0841C124.775 30.4109 124.409 30.7252 124.032 31.0264C123.361 31.566 122.648 32.0527 121.902 32.4823C121.274 32.8441 120.61 33.1401 119.922 33.3655C119.358 33.5527 118.769 33.6526 118.174 33.6615C117.592 33.6671 117.016 33.5514 116.481 33.3218C115.965 33.1001 115.503 32.7689 115.127 32.3512C114.728 31.8788 114.422 31.3355 114.224 30.7497C113.992 30.0522 113.881 29.3203 113.894 28.5853C113.898 28.2312 113.926 27.8778 113.977 27.5273C114.035 27.1051 114.122 26.6198 114.234 26.0714C114.345 25.5231 114.476 24.9407 114.637 24.3001C114.797 23.6595 114.971 22.9801 115.166 22.2618L111.443 22.6404L107.901 22.9752C107.629 23.7873 107.36 24.58 107.095 25.3532C106.828 26.1297 106.576 26.8625 106.328 27.5419C106.081 28.2213 105.843 28.8425 105.649 29.4103L105.12 30.8662C104.79 31.6666 104.322 32.4025 103.737 33.0404C103.426 33.3938 102.996 33.6201 102.528 33.6761C102.297 33.6765 102.067 33.6371 101.849 33.5596C101.632 33.4849 101.43 33.3732 101.252 33.2296C101.079 33.0857 100.939 32.9071 100.84 32.7055C100.736 32.4941 100.685 32.2613 100.689 32.0261C100.689 31.8737 100.708 31.722 100.747 31.5748C101.155 30.0994 101.597 28.6743 102.072 27.2993C102.548 25.9242 103.033 24.5848 103.528 23.281C103.016 23.2835 102.505 23.2429 101.999 23.1596C101.53 23.083 101.074 22.9391 100.645 22.7326C100.227 22.5252 99.8513 22.2403 99.5389 21.893C99.1886 21.492 98.9155 21.0297 98.7333 20.5293C98.6945 20.3595 98.6654 20.2042 98.6411 20.044C98.6164 19.9112 98.6034 19.7764 98.6023 19.6412C98.6023 19.2142 98.7528 19.0006 99.0536 19.0006C99.2848 19.0235 99.5 19.1286 99.6603 19.2967C99.9715 19.5959 100.257 19.9205 100.514 20.2673C100.971 20.2673 101.422 20.2333 101.878 20.2236C102.334 20.2139 102.815 20.2236 103.334 20.2236H104.722C105.071 19.3274 105.395 18.4603 105.693 17.6224C105.99 16.7844 106.281 15.9675 106.566 15.1716C106.728 14.6689 106.86 14.1568 106.959 13.6381C107.049 13.1578 107.096 12.6707 107.1 12.1822C107.105 11.8333 107.071 11.4849 106.998 11.1436C106.963 10.8369 106.86 10.5418 106.697 10.2798C106.545 10.0599 106.342 9.88012 106.105 9.75566C105.825 9.62173 105.517 9.55683 105.207 9.56639C104.866 9.57347 104.527 9.62237 104.198 9.71198C103.761 9.83397 103.337 9.99645 102.931 10.1973C102.41 10.4496 101.906 10.7349 101.422 11.0514C100.807 11.4564 100.214 11.8938 99.6457 12.3617C99.4609 12.5225 99.2531 12.655 99.0294 12.7548C98.8688 12.8266 98.6956 12.8662 98.5198 12.8713C98.4422 12.8713 98.3839 12.7403 98.3451 12.483C98.3023 12.1695 98.2828 11.8532 98.2869 11.5367C98.2813 11.0294 98.4031 10.5288 98.6411 10.0808C98.8939 9.61311 99.2218 9.19011 99.6117 8.82874C100.026 8.43803 100.482 8.09309 100.971 7.7999C101.478 7.49137 102.011 7.22517 102.562 7.00401C103.091 6.79673 103.637 6.63439 104.193 6.51871C104.682 6.4081 105.181 6.34953 105.683 6.34394ZM85.9457 4C86.8266 4.00376 87.6919 4.23263 88.4595 4.66486C89.3397 5.18201 90.0783 5.90891 90.6094 6.78077C91.3156 7.93735 91.824 9.20354 92.1138 10.5273C92.5338 12.341 92.7375 14.1981 92.7205 16.0597C92.7205 17.6321 92.6655 19.1252 92.5555 20.539C92.4455 21.9529 92.2837 23.3069 92.0702 24.601C92.6574 24.965 93.2543 25.3241 93.8609 25.6687C94.4676 26.0132 95.0742 26.3675 95.6905 26.712L96.1758 26.9887C96.3651 27.0954 96.5446 27.2071 96.7242 27.3284C96.8864 27.4364 97.039 27.5582 97.1804 27.6924C97.2846 27.7709 97.3528 27.8881 97.3696 28.0175C97.3641 28.1228 97.3211 28.2226 97.2483 28.299C97.1603 28.3959 97.0628 28.4837 96.9571 28.561C96.85 28.6375 96.7382 28.7072 96.6223 28.7697L96.3699 28.9008C96.1714 28.9938 95.9532 29.0372 95.7342 29.0269C95.0893 29.0024 94.4501 28.8964 93.8318 28.7115C93.0201 28.4781 92.2241 28.1928 91.449 27.8574C91.0604 29.5265 90.5495 31.1648 89.9203 32.7589C89.3797 34.1363 88.7306 35.4686 87.9791 36.7432C87.335 37.839 86.5857 38.8694 85.7419 39.82C85.0265 40.63 84.226 41.3605 83.3542 41.999C82.6098 42.5446 81.7931 42.984 80.9277 43.3045C80.1932 43.5799 79.4166 43.726 78.6322 43.7364C77.898 43.7347 77.1734 43.5689 76.5114 43.2511C75.8454 42.9285 75.2638 42.4549 74.8129 41.868C74.2941 41.1853 73.9073 40.4117 73.6724 39.5871C73.3783 38.565 73.2328 37.5059 73.2405 36.4423C73.2529 35.079 73.5059 33.7285 73.9879 32.4531C74.4991 31.0703 75.2139 29.7716 76.1086 28.5999C77.0521 27.3657 78.1684 26.2739 79.4232 25.3581C80.7353 24.4001 82.1985 23.6685 83.7521 23.1936C82.9449 22.5405 82.1768 21.8405 81.4518 21.0971C80.7657 20.4014 80.1406 19.648 79.5834 18.8453C79.0771 18.1252 78.6569 17.3483 78.3313 16.5304C78.0338 15.7913 77.8791 15.0026 77.8751 14.2059C77.8698 13.2595 77.979 12.3161 78.2003 11.396C78.4046 10.5427 78.7059 9.71552 79.0981 8.93065C79.4642 8.1953 79.9189 7.50753 80.4521 6.88268C80.9457 6.29497 81.5096 5.77014 82.1312 5.32002C82.7056 4.90788 83.3365 4.58096 84.0045 4.34942C84.6268 4.12268 85.2834 4.00449 85.9457 4ZM134.481 32.4629C134.279 32.8214 134.101 33.1926 133.947 33.5742C133.772 33.9915 133.61 34.4283 133.461 34.8845C133.311 35.3358 133.17 35.7872 133.044 36.2433C132.918 36.6995 132.811 37.1169 132.719 37.51C132.627 37.9031 132.554 38.2379 132.501 38.5243C132.449 38.72 132.413 38.9196 132.394 39.1212C132.399 39.2469 132.415 39.3719 132.442 39.4949C132.479 39.6733 132.534 39.8474 132.607 40.0141C132.681 40.1922 132.784 40.3563 132.913 40.4994C133.036 40.6371 133.214 40.712 133.398 40.7032C133.57 40.6922 133.724 40.5906 133.801 40.4363C133.924 40.2115 134.013 39.9693 134.063 39.7181C134.136 39.384 134.185 39.045 134.209 38.7038C134.238 38.3301 134.257 37.9419 134.277 37.5439C134.296 37.146 134.311 36.7626 134.316 36.3889C134.32 36.0152 134.316 35.6755 134.35 35.3747C134.379 34.8554 134.403 34.4041 134.417 34.0498C134.432 33.6955 134.442 33.3849 134.451 33.1471C134.461 32.9093 134.451 32.6618 134.481 32.4629ZM87.2657 25.6832C86.282 25.8762 85.3331 26.2165 84.451 26.6926C83.5617 27.1665 82.7269 27.7361 81.9614 28.3912C81.1976 29.0406 80.5017 29.7658 79.8843 30.5556C79.289 31.3037 78.7581 32.1008 78.2974 32.9384C77.8794 33.6861 77.5395 34.4749 77.2831 35.2922C77.0684 35.9639 76.9555 36.664 76.9482 37.3692C76.8937 38.1572 77.0945 38.9417 77.5209 39.6065C77.867 40.097 78.4348 40.3827 79.035 40.3684C79.8228 40.3116 80.5753 40.019 81.1946 39.5288C82.1497 38.8127 82.9711 37.9338 83.6211 36.9325C84.5461 35.527 85.3188 34.0271 85.9263 32.458C86.7478 30.3737 87.3749 28.2178 87.7995 26.0181L87.2657 25.6832ZM150.821 25.3532L147.393 28.7353L147.415 29.1719C147.439 29.1942 147.462 29.2187 147.482 29.2453C147.622 29.3909 147.787 29.5511 147.967 29.7306C148.163 29.9139 148.378 30.0765 148.608 30.2159C148.857 30.3643 149.143 30.44 149.433 30.4343C149.754 30.4454 150.073 30.3805 150.364 30.245C150.597 30.1342 150.799 29.9675 150.952 29.7597C151.102 29.542 151.206 29.296 151.257 29.0366C151.312 28.752 151.34 28.4627 151.34 28.1728C151.34 27.9068 151.324 27.6409 151.291 27.3769C151.259 27.1084 151.215 26.8512 151.16 26.6053C151.107 26.3578 151.049 26.12 150.986 25.9113C150.923 25.7026 150.869 25.5085 150.821 25.3532ZM140.115 21.529C139.777 21.5234 139.447 21.6273 139.173 21.8251C138.886 22.0422 138.646 22.3165 138.47 22.6307C138.255 23.0086 138.092 23.4133 137.984 23.8342C137.847 24.3238 137.74 24.8213 137.664 25.3241C137.582 25.8531 137.523 26.4063 137.489 26.979C137.455 27.5516 137.431 28.1291 137.431 28.7212C137.967 28.4594 138.469 28.1335 138.926 27.7506C139.331 27.4119 139.696 27.0276 140.013 26.6053C140.312 26.2086 140.565 25.7787 140.765 25.3241C140.956 24.893 141.11 24.4466 141.226 23.9895C141.28 23.7453 141.312 23.4968 141.323 23.247C141.34 22.9755 141.31 22.7031 141.236 22.4414C141.166 22.1977 141.036 21.9757 140.857 21.796C140.655 21.6114 140.388 21.5153 140.115 21.529ZM173.703 22.4463C173.497 22.6982 173.333 22.9817 173.217 23.2858C173.097 23.5924 173.004 23.9091 172.941 24.2322C172.882 24.5385 172.842 24.848 172.819 25.1591C172.798 25.4211 172.795 25.644 172.795 25.8368L172.795 25.9404C173.188 25.9313 173.575 25.8404 173.931 25.6735C174.341 25.4951 174.726 25.2634 175.076 24.9844C175.414 24.7239 175.713 24.4167 175.964 24.072C176.189 23.7976 176.317 23.4563 176.328 23.1014C176.343 22.7309 176.261 22.3627 176.09 22.0338C175.99 21.7934 175.763 21.63 175.503 21.6115C174.804 21.5877 174.136 21.8976 173.703 22.4463ZM86.266 7.05739C85.8885 7.06202 85.517 7.15159 85.1789 7.31945C84.7914 7.50806 84.432 7.7498 84.1112 8.0377C83.7505 8.35612 83.4251 8.71244 83.1406 9.1005C82.83 9.50475 82.5601 9.93879 82.335 10.3963C82.1092 10.8503 81.9272 11.3248 81.7915 11.8133C81.6547 12.2899 81.5844 12.7831 81.5828 13.2789C81.5799 14.0714 81.7453 14.8555 82.0681 15.5793C82.4435 16.3945 82.9249 17.1565 83.4998 17.8456C84.1612 18.6458 84.8885 19.3893 85.6739 20.0683C86.5119 20.8027 87.4372 21.5274 88.4498 22.2424C88.6148 20.8998 88.7459 19.4875 88.8429 18.0058C88.94 16.524 88.9885 14.9484 88.9885 13.2789C89.0022 12.3118 88.9292 11.3454 88.7701 10.3914C88.6664 9.72001 88.4687 9.06654 88.1829 8.4502C87.9947 8.02265 87.6946 7.6538 87.3142 7.38254C87.0043 7.17353 86.6398 7.06044 86.266 7.05739ZM164.899 10.0371C164.652 10.0371 164.414 10.2604 164.142 10.702C163.841 11.2443 163.594 11.8148 163.404 12.4054C163.165 13.0945 162.943 13.8532 162.74 14.6815C162.536 15.5097 162.345 16.3185 162.167 17.108L162.599 17.1565L163.05 17.205C163.336 16.7197 163.637 16.181 163.953 15.6084C164.268 15.0357 164.55 14.4679 164.802 13.9147C165.054 13.3614 165.258 12.8422 165.423 12.3569C165.56 11.9748 165.635 11.5735 165.647 11.1679C165.653 11.0483 165.653 10.9284 165.647 10.8088C165.633 10.6821 165.602 10.558 165.554 10.4399C165.504 10.3265 165.426 10.2279 165.326 10.1536C165.201 10.0682 165.051 10.0272 164.899 10.0371ZM130.758 12.352C131.086 12.3484 131.412 12.3875 131.729 12.4685C132.011 12.5366 132.277 12.6568 132.515 12.8228C132.739 12.9863 132.92 13.2031 133.039 13.4536C133.177 13.7427 133.246 14.0603 133.238 14.3806C133.24 14.7108 133.186 15.0391 133.078 15.3512C132.976 15.657 132.81 15.9381 132.593 16.1762C132.343 16.4283 132.044 16.6265 131.714 16.7585C131.312 16.9188 130.881 16.9964 130.448 16.9866C129.765 17.0416 129.089 16.8254 128.565 16.3849C128.127 15.9631 127.888 15.3764 127.905 14.7688C127.912 14.5118 127.961 14.2577 128.05 14.0166C128.158 13.7247 128.323 13.4574 128.536 13.2304C128.778 12.9627 129.074 12.7493 129.404 12.6044C129.832 12.4242 130.294 12.3382 130.758 12.352Z" fill="#343333"/>
<path d="M38.3087 22.4992C38.3087 22.4992 9.5061 5.78544 7.01651 16.1806C4.52692 26.5757 1.72674 34.4764 9.39933 35.9371C17.0719 37.3979 38.3087 22.4992 38.3087 22.4992Z" fill="#3474AB"/>
<path d="M33.33 19.9853C41.5801 15.7147 57.925 8.39638 59.7934 16.1466C62.3072 26.5757 65.1317 34.5104 57.4688 36.0002C52.0917 37.0436 39.998 29.9922 33.2911 25.7119C33.2814 20.6454 33.3397 24.9791 33.33 19.9853Z" fill="#4289C7"/>
</svg>
