<svg width="168" height="48" viewBox="0 0 168 48" fill="none" xmlns="http://www.w3.org/2000/svg">
<path d="M5.8623 10.9212C5.8623 7.10263 8.96493 4 12.7835 4H29.5377V8.77327H12.7835C11.5902 8.77327 10.6356 9.72793 10.6356 10.9212V29.537H5.8623V10.9212Z" fill="#1795CE"/>
<path d="M33.9768 31.9236V13.3079H38.75V31.9236C38.75 35.7423 35.6474 38.8449 31.8288 38.8449H15.0746V34.0716H31.8288C33.0221 34.0716 33.9768 33.117 33.9768 31.9236Z" fill="#1795CE"/>
<path d="M15.0746 29.4415V15.6945C15.0746 14.358 16.1247 13.3079 17.4613 13.3079L19.8479 13.2602V27.1026C19.8479 28.4392 18.7978 29.4893 17.4613 29.4893L15.0746 29.4415Z" fill="#1795CE"/>
<path d="M24.6692 15.6945V29.4415L27.0558 29.4893C28.3923 29.4893 29.4424 28.4392 29.4424 27.1026V13.2602L27.0558 13.3079C25.7193 13.3079 24.6692 14.358 24.6692 15.6945Z" fill="#1795CE"/>
<path d="M54.2153 13.2124C50.683 13.2124 48.1055 14.7398 48.1055 16.4582V29.4415H52.3537V16.506C52.3537 15.9332 53.3083 15.4081 54.5017 15.4081C55.695 15.4081 56.6974 15.8854 56.6974 16.506V29.4415H60.8978V16.506C60.8978 15.8854 61.8525 15.4081 63.0458 15.4081C64.2391 15.4081 65.1938 15.8854 65.1938 16.506V29.4415H69.3943V16.506C69.3943 14.7876 66.4826 13.2124 62.9981 13.2124C61.3274 13.2124 59.8 13.6897 58.6067 14.2148C57.4133 13.642 55.8382 13.2124 54.2153 13.2124Z" fill="black"/>
<path d="M110.588 37.6516V38.7494H113.213V40.2291C112.974 40.4201 112.592 40.611 112.115 40.8019C111.638 40.9928 111.16 41.0883 110.635 41.0883C110.063 41.0883 109.49 40.9928 108.965 40.7542C108.44 40.5155 108.058 40.1337 107.771 39.6563C107.485 39.179 107.342 38.5585 107.342 37.8425C107.342 37.2697 107.437 36.6969 107.676 36.2196C107.819 35.9332 108.01 35.6468 108.249 35.4081C108.487 35.1695 108.821 34.9785 109.203 34.8353C109.585 34.6921 110.063 34.5967 110.588 34.5967C111.065 34.5967 111.447 34.6444 111.829 34.7876C112.21 34.9308 112.497 35.1217 112.688 35.3604C112.879 35.599 113.022 35.8854 113.165 36.315L114.215 36.0286C114.072 35.4559 113.833 35.0263 113.547 34.6921C113.213 34.3103 112.831 34.0716 112.306 33.8807C111.781 33.6897 111.16 33.5943 110.54 33.5943C109.681 33.5943 108.869 33.7375 108.201 34.0716C107.533 34.4057 107.008 34.9308 106.626 35.599C106.292 36.2673 106.101 37.031 106.101 37.7948C106.101 38.6062 106.244 39.3222 106.626 39.9427C107.008 40.611 107.533 41.0883 108.249 41.4224C108.965 41.7566 109.776 41.9475 110.635 41.9475C111.304 41.9475 111.924 41.8043 112.545 41.6134C113.165 41.3747 113.786 41.0883 114.358 40.6587V37.6516H110.588Z" fill="black"/>
<path d="M116.172 35.9332V41.7566H117.318V38.7017C117.318 38.2721 117.365 37.8902 117.509 37.5561C117.604 37.3651 117.747 37.1742 117.938 37.031C118.129 36.8878 118.32 36.8401 118.559 36.8401C118.845 36.8401 119.084 36.8878 119.37 37.031L119.752 36.1241C119.37 35.8854 118.988 35.79 118.606 35.79C118.32 35.79 118.081 35.8377 117.89 35.9809C117.652 36.1241 117.413 36.3628 117.175 36.7924V35.9332H116.172Z" fill="black"/>
<path fill-rule="evenodd" clip-rule="evenodd" d="M120.182 38.8449C120.182 37.747 120.516 36.9833 121.184 36.4582C121.757 36.0286 122.425 35.79 123.237 35.79C124.144 35.79 124.86 36.0764 125.432 36.6014C126.005 37.1265 126.292 37.8425 126.292 38.7971C126.292 39.5609 126.148 40.1336 125.91 40.5632C125.671 40.9928 125.289 41.327 124.812 41.5656C124.335 41.8043 123.81 41.8998 123.237 41.8998C122.33 41.8998 121.614 41.6611 121.041 41.136C120.468 40.611 120.182 39.8472 120.182 38.8449ZM121.28 38.8449C121.28 39.6086 121.471 40.1336 121.805 40.5155C122.187 40.8974 122.616 41.0883 123.189 41.0883C123.714 41.0883 124.191 40.8974 124.526 40.5155C124.907 40.1336 125.051 39.5609 125.051 38.7971C125.051 38.0811 124.86 37.5083 124.526 37.1742C124.144 36.7924 123.714 36.6014 123.189 36.6014C122.664 36.6014 122.187 36.7924 121.805 37.1742C121.471 37.5561 121.28 38.0811 121.28 38.8449Z" fill="black"/>
<path d="M131.972 40.8974V41.8043H132.974V35.9809H131.877V39.1313C131.877 39.6563 131.781 40.0382 131.686 40.2769C131.542 40.5155 131.352 40.7542 131.065 40.8974C130.779 41.0406 130.492 41.136 130.158 41.136C129.824 41.136 129.585 41.0406 129.347 40.8974C129.108 40.7542 128.965 40.5155 128.917 40.2769C128.869 40.086 128.869 39.752 128.869 39.2272V35.9809H127.772V39.6086C127.772 39.9905 127.772 40.3246 127.819 40.5155C127.867 40.8019 128.01 41.0406 128.153 41.2315C128.297 41.4224 128.535 41.5656 128.869 41.7088C129.204 41.852 129.538 41.8998 129.92 41.8998C130.779 41.8998 131.447 41.5656 131.972 40.8974Z" fill="black"/>
<path fill-rule="evenodd" clip-rule="evenodd" d="M134.931 44V35.9332H135.934V36.6969C136.173 36.4105 136.411 36.1718 136.745 36.0286C137.032 35.8854 137.414 35.79 137.843 35.79C138.416 35.79 138.893 35.9332 139.323 36.1718C139.752 36.4105 140.039 36.7924 140.278 37.2697C140.468 37.747 140.612 38.2721 140.612 38.7971C140.612 39.4177 140.516 39.9427 140.278 40.42C140.039 40.8974 139.705 41.2792 139.227 41.5179C138.798 41.7566 138.32 41.8998 137.795 41.8998C137.414 41.8998 137.127 41.852 136.793 41.7088C136.507 41.5656 136.268 41.3747 136.077 41.1838V44H134.931ZM135.886 38.8926C135.886 39.6563 136.077 40.1814 136.411 40.5632C136.745 40.9451 137.175 41.0883 137.652 41.0883C138.13 41.0883 138.559 40.8974 138.893 40.5155C139.227 40.1336 139.418 39.5609 139.418 38.7971C139.418 38.0334 139.227 37.5083 138.893 37.1265C138.559 36.7446 138.13 36.5537 137.7 36.5537C137.223 36.5537 136.841 36.7446 136.459 37.1265C136.077 37.5561 135.886 38.1289 135.886 38.8926Z" fill="black"/>
<path fill-rule="evenodd" clip-rule="evenodd" d="M144.764 33.6897V41.7088H148.058C148.631 41.7088 149.108 41.6611 149.49 41.5656C149.872 41.4702 150.206 41.3747 150.444 41.1838C150.731 40.9929 150.922 40.7542 151.113 40.4201C151.304 40.0859 151.399 39.7518 151.399 39.3699C151.399 38.8926 151.256 38.463 150.969 38.1289C150.683 37.7948 150.253 37.5561 149.728 37.4129C150.158 37.2697 150.492 36.9833 150.683 36.6969C150.922 36.4105 151.017 36.0764 151.017 35.7423C151.017 35.4081 150.922 35.0263 150.683 34.6921C150.444 34.358 150.158 34.0716 149.728 33.9284C149.347 33.7852 148.774 33.6897 148.105 33.6897H144.764ZM147.867 37.0788H145.958V34.6444H147.724C148.344 34.6444 148.821 34.6444 149.06 34.7399C149.347 34.8353 149.537 34.9785 149.681 35.1695C149.824 35.3604 149.872 35.5991 149.872 35.8855C149.872 36.1718 149.776 36.4105 149.633 36.6014C149.49 36.7924 149.251 36.8878 148.965 36.9833C148.774 37.031 148.392 37.0788 147.867 37.0788ZM148.153 40.8019H145.958V38.0334H148.01C148.583 38.0334 149.012 38.0812 149.299 38.1766C149.585 38.2721 149.824 38.4153 150.015 38.6539C150.158 38.8449 150.253 39.1313 150.253 39.4177C150.253 39.6563 150.158 39.895 150.063 40.0859C149.967 40.2769 149.824 40.4201 149.633 40.5155C149.442 40.6587 149.251 40.7065 148.965 40.7542C148.821 40.8019 148.535 40.8019 148.153 40.8019Z" fill="black"/>
<path d="M155.886 41.7566L152.449 33.6897H153.738L156.077 39.5609C156.268 40.0382 156.411 40.4678 156.554 40.8974C156.697 40.4678 156.84 40.0382 157.031 39.5609L159.418 33.6897H160.611L157.127 41.7566H155.886Z" fill="black"/>
<path d="M91.1605 16.4582C91.1605 14.7398 93.738 13.2124 97.2703 13.2124C98.8932 13.2124 100.468 13.642 101.662 14.2148C102.855 13.6897 104.382 13.2124 106.053 13.2124C109.538 13.2124 112.449 14.7876 112.449 16.506V29.4415H108.249V16.506C108.249 15.8854 107.294 15.4081 106.101 15.4081C104.907 15.4081 103.953 15.8854 103.953 16.506V29.4415H99.6569V16.506C99.6569 15.8854 98.6545 15.4081 97.4612 15.4081C96.2679 15.4081 95.3609 15.9332 95.3609 16.506V29.4415H91.2082L91.1605 16.4582Z" fill="black"/>
<path d="M77.7473 33.2601C78.5587 33.4511 79.1315 33.4511 80.0385 33.4511C83.5229 33.4511 86.5301 32.0191 86.4824 30.253V18.2243H82.3296L82.2819 27.5799H80.1339C78.7019 27.5799 77.8905 27.1504 77.8905 26.4344V18.2243H73.69V26.4344C73.69 29.5229 76.3818 29.5118 81.0867 29.4925C81.4718 29.4909 81.8703 29.4893 82.2819 29.4893L82.282 29.543L82.2822 29.5866C82.2856 30.4223 82.2895 31.3508 80.0385 31.3508C79.2747 31.3508 78.2724 31.2554 77.7473 30.969V33.2601Z" fill="black"/>
<path d="M117.413 29.4415V18.2243H121.614V29.4415H117.413Z" fill="black"/>
<path d="M119.513 16.7924C118.225 16.7924 117.127 16.2196 117.127 15.599C117.127 14.9308 118.225 14.4057 119.513 14.4057C120.85 14.4057 121.948 14.9308 121.948 15.599C121.948 16.2673 120.802 16.7924 119.513 16.7924Z" fill="black"/>
<path d="M132.497 29.4415H134.502V27.2936H132.497C130.11 27.2936 129.728 24.5728 129.728 23.7136C129.728 22.8544 130.11 20.3246 132.497 20.3246H134.502V18.1766H132.449C127.055 18.1766 125.528 21.5656 125.528 23.7136C125.528 25.8138 127.246 29.4415 132.497 29.4415Z" fill="black"/>
<path d="M138.082 29.4415V21.2315C138.082 19.4654 140.946 18.0811 144.478 18.0811C145.385 18.0811 145.958 18.0811 146.769 18.3198V20.611C146.244 20.3246 145.242 20.2291 144.478 20.2291C143.284 20.2291 142.282 20.6587 142.282 21.2792V29.4415H138.082Z" fill="black"/>
<path fill-rule="evenodd" clip-rule="evenodd" d="M148.01 23.6659C148.01 25.8138 149.681 29.6324 155.122 29.6324C160.42 29.6324 162.091 25.7661 162.139 23.7136C162.139 21.4702 160.468 18.1289 154.979 18.1289C149.537 18.1289 148.01 21.5179 148.01 23.6659ZM152.163 23.7613C152.163 22.8544 152.545 20.0859 155.027 20.0859C157.604 20.0859 157.938 22.7112 157.938 23.6659C157.938 24.525 157.461 27.5322 155.074 27.5322C152.592 27.5322 152.163 24.6682 152.163 23.7613Z" fill="black"/>
</svg>
