<svg width="288" height="48" viewBox="0 0 288 48" fill="none" xmlns="http://www.w3.org/2000/svg">
<path d="M18.41 4V35.9461L4.88131 43.9356L4.86914 11.9826L18.41 4Z" fill="#F96B13"/>
<path d="M31.9457 27.9513V43.4348L18.41 43.4417V35.9461L31.9457 27.9513Z" fill="#F96B13"/>
<path d="M45.499 7.4678H53.4729V37.0504H67.7982V43.4417H45.499V7.4678Z" fill="#282C33"/>
<path d="M70.2664 34.0827V17.132H77.3528V33.0761C77.3528 36.6481 78.7815 38.3562 81.8304 38.3562C84.8345 38.3562 87.1946 36.4468 87.1946 32.5695V17.132H94.2809V43.4414H87.1946V39.3173C85.8678 41.9866 83.2591 43.9934 79.0239 43.9934C74.0041 43.9934 70.2664 40.9734 70.2664 34.0827ZM97.5342 30.6147V30.2121C97.5342 21.7106 103.491 16.528 110.826 16.528C116.784 16.528 122.295 19.1972 122.938 26.7374H116.197C115.706 23.672 113.882 22.2627 110.979 22.2627C107.287 22.2627 104.825 25.0813 104.825 30.1081V30.5108C104.825 35.7909 107.14 38.5121 111.126 38.5121C113.983 38.5121 116.293 36.804 116.637 33.4333H123.085C122.69 39.6746 118.264 44 110.776 44C103.249 43.9935 97.5342 39.2135 97.5342 30.6147ZM125.745 9.58529C125.745 7.31868 127.518 5.61062 129.783 5.61062C132.098 5.61062 133.871 7.31868 133.871 9.58529C133.871 11.8519 132.098 13.56 129.783 13.56C127.518 13.56 125.745 11.8454 125.745 9.58529ZM126.287 17.132H133.373V43.4414H126.287V17.132ZM136.92 30.6602V30.2574C136.92 21.6067 141.793 16.5215 148.241 16.5215C152.375 16.5215 154.938 18.3854 156.367 21.0482V5.20796H163.454V43.4414H156.367V39.0641C155.041 41.7333 151.89 43.9934 148.095 43.9934C141.844 43.9934 136.92 39.4148 136.92 30.6602ZM156.559 30.4133V30.0107C156.559 24.7761 154.295 22.1133 150.404 22.1133C146.417 22.1133 144.198 24.88 144.198 30.1146V30.5172C144.198 35.7519 146.66 38.3172 150.206 38.3172C153.95 38.3107 156.559 35.7453 156.559 30.4133ZM166.751 30.6147V30.2121C166.751 21.7106 172.709 16.528 180.044 16.528C186.001 16.528 191.512 19.1972 192.156 26.7374H185.415C184.923 23.672 183.099 22.2627 180.197 22.2627C176.504 22.2627 174.042 25.0813 174.042 30.1081V30.5108C174.042 35.7909 176.357 38.5121 180.344 38.5121C183.201 38.5121 185.51 36.804 185.854 33.4333H192.303C191.908 39.6746 187.481 44 179.992 44C172.46 43.9935 166.751 39.2135 166.751 30.6147ZM195.301 5.20796H202.439V21.308C203.72 18.6907 206.527 16.528 210.806 16.528C215.878 16.528 219.468 19.6453 219.468 26.692V43.4414H212.331V27.7441C212.331 24.1721 210.953 22.464 207.802 22.464C204.747 22.464 202.439 24.3734 202.439 28.2507V43.4414H195.301V5.20796ZM222.428 36.1481C222.428 30.0107 227.939 27.6986 235.816 27.6986H238.718V26.6401C238.718 23.5226 237.781 21.8081 234.533 21.8081C231.728 21.8081 230.445 23.2693 230.152 25.5294H223.41C223.85 19.2882 228.679 16.5215 234.981 16.5215C241.282 16.5215 245.76 19.1388 245.76 26.2828V43.435H238.82V40.2656C237.34 42.3764 235.076 43.987 231.039 43.987C226.37 43.9935 222.428 41.6814 222.428 36.1481ZM238.725 34.2322V32.0175H235.969C231.836 32.0175 229.418 32.9203 229.418 35.7389C229.418 37.6483 230.553 38.9083 233.162 38.9083C236.313 38.9147 238.725 37.1547 238.725 34.2322ZM250.391 17.132H257.527V22.1652C259.154 18.6451 261.661 16.7812 265.846 16.7292V23.5226C260.577 23.4706 257.527 25.2307 257.527 30.264V43.4414H250.391V17.132ZM270.476 35.6414V22.3082H267.178V17.1255H270.476V11.4428H277.562V17.1255H282.977V22.3082H277.562V34.9855C277.562 37.0963 278.596 38.1029 280.42 38.1029C281.504 38.1029 282.289 37.9535 283.13 37.6028V43.2401C282.148 43.5908 280.719 43.9415 278.799 43.9415C273.378 43.9415 270.476 41.1229 270.476 35.6414Z" fill="#282C33"/>
</svg>
