<svg width="184" height="48" viewBox="0 0 184 48" fill="none" xmlns="http://www.w3.org/2000/svg">
<path d="M172.514 40.1271C172.039 42.2614 169.826 44.0005 167.692 44.0005H7.13807C4.92469 44.0005 3.58071 42.2614 4.05495 40.1271L11.4861 7.8739C12.0394 5.73962 14.1737 4.00049 16.3871 4.00049H176.862C179.075 4.00049 180.419 5.73962 179.945 7.8739L172.514 40.1271Z" fill="#FF6600"/>
<path d="M76.1494 18.9412L72.592 35.7791H56.0704C54.2522 35.7791 52.8291 35.0679 51.8015 33.5657C50.7739 32.0639 50.5366 30.3248 50.9321 28.4274C51.3273 26.451 52.3549 24.791 53.9358 23.2892C55.5962 21.787 57.3353 21.0758 59.1535 21.0758H69.9044L70.2995 19.2575C70.3786 18.7833 70.2995 18.3087 70.0626 17.9927C69.8253 17.5975 69.4301 17.4393 68.9559 17.4393H54.7264L55.9913 11.3522H70.5368C72.5132 11.3522 74.0942 12.0637 75.2009 13.6447C76.2285 15.0677 76.624 16.886 76.1494 18.9412ZM58.9953 25.9768C58.5211 25.9768 58.0465 26.135 57.6514 26.5301C57.2562 26.9256 56.9398 27.3208 56.8611 27.795C56.782 28.0323 56.782 28.2693 56.8611 28.5065C56.9398 28.7435 57.0189 28.9017 57.098 29.0599C57.2562 29.2181 57.4144 29.3759 57.5723 29.455C57.7305 29.5341 57.9678 29.6132 58.2047 29.6132H68.0862L68.8768 25.9768H58.9953ZM90.537 23.5261L95.8331 35.7791H88.4024L85.7148 28.6647L80.0231 35.7791H72.6711L83.185 23.5261L77.8094 11.3522H85.2405L87.9281 18.4669L93.6198 11.3522H101.051L90.537 23.5261Z" fill="white"/>
<path d="M117.256 17.4393H106.268C105.715 17.4393 105.161 17.6766 104.687 18.0718C104.213 18.4669 103.897 19.0203 103.739 19.5736L101.999 27.479C101.841 28.1114 101.92 28.5856 102.236 28.9808C102.553 29.3759 103.027 29.6132 103.58 29.6132H116.071L114.727 35.7004H101.683C99.7069 35.7004 98.126 34.9888 97.0189 33.4866C95.9122 31.9848 95.5962 30.1666 95.9913 28.1114L97.9678 18.9412C98.442 16.886 99.4696 15.0677 101.209 13.5656C102.948 12.0637 104.845 11.2734 106.822 11.2734H118.442L117.256 17.4393ZM142.869 23.4474C143.501 20.3642 142.869 17.2811 140.972 14.9886C139.154 12.6962 136.229 11.3522 133.066 11.3522H121.92L116.703 35.7791H129.984C135.833 35.384 141.209 30.799 142.474 25.0283L142.869 23.4474ZM136.782 22.1034L136.466 23.6843C135.833 26.7674 132.434 29.5341 129.193 29.5341H124.45L126.98 17.5184H133.066C134.331 17.5184 135.438 17.9927 136.15 18.7833C136.861 19.6527 137.019 20.8385 136.782 22.1034ZM168.086 18.9412L164.529 35.7791H158.758L162.236 19.5736C162.316 19.2575 162.316 19.0203 162.236 18.7833C162.157 18.546 162.079 18.3087 161.92 18.0718C161.762 17.9136 161.604 17.7554 161.367 17.5975C161.13 17.5184 160.893 17.4393 160.656 17.4393H151.011L147.059 35.7791H141.288L146.505 11.3522H162.474C164.45 11.3522 166.031 12.0637 167.138 13.6447C168.165 15.0677 168.481 16.886 168.086 18.9412ZM49.3509 14.2771C47.849 12.3801 45.4775 11.3522 42.9477 11.3522H18.5208L21.4457 17.5975L17.5723 35.7791H23.9754L27.8489 17.5975H33.3035L29.4301 35.7791H35.8333L39.7067 17.5975H42.9477C43.6592 17.5975 44.2126 17.8345 44.529 18.23C44.845 18.6251 45.0032 19.2575 44.845 19.89L41.4458 35.7791H47.849L50.9321 21.2336C51.4064 18.7042 50.853 16.1744 49.3509 14.2771Z" fill="white"/>
</svg>
