<svg width="160" height="160" viewBox="0 0 160 160" fill="none" xmlns="http://www.w3.org/2000/svg">
<path d="M80 154.264C121.015 154.264 154.264 121.015 154.264 80C154.264 38.985 121.015 5.73578 80 5.73578C38.9851 5.73578 5.73584 38.985 5.73584 80C5.73584 121.015 38.9851 154.264 80 154.264Z" fill="white"/>
<path fill-rule="evenodd" clip-rule="evenodd" d="M80 7.47159C39.9437 7.47159 7.47159 39.9437 7.47159 80C7.47159 120.056 39.9437 152.528 80 152.528C120.056 152.528 152.528 120.056 152.528 80C152.528 39.9437 120.056 7.47159 80 7.47159ZM4 80C4 38.0264 38.0264 4 80 4C121.974 4 156 38.0264 156 80C156 121.974 121.974 156 80 156C38.0264 156 4 121.974 4 80Z" fill="#0668B3"/>
<path d="M104.663 64.2482C104.663 68.8168 101.557 72.5222 97.7271 72.5222C95.2055 72.5222 92.9999 70.9171 91.7849 68.5194C90.5698 70.9171 88.3642 72.5222 85.8426 72.5222C83.3211 72.5222 81.0981 70.9021 79.8819 68.4789C78.6715 70.8998 76.4555 72.5222 73.9212 72.5222C71.387 72.5222 69.1941 70.9171 67.979 68.5206C66.764 70.9183 64.5583 72.5233 62.0368 72.5233C58.2111 72.5233 55.1087 68.8272 55.1006 64.2644C55.111 77.9436 66.2027 89.0284 79.8842 89.0284C93.5658 89.0284 104.667 77.9344 104.667 64.2471L104.663 64.2482Z" fill="#0668B3"/>
<path d="M62.0427 72.5222C64.5642 72.5222 66.7698 70.9171 67.9849 68.5194C69.1999 70.9171 71.4055 72.5222 73.9271 72.5222C76.4486 72.5222 78.6774 70.9021 79.8878 68.4789C81.0982 70.8998 83.3142 72.5222 85.8485 72.5222C88.3828 72.5222 90.5699 70.9171 91.7826 68.5206C92.9977 70.9183 95.2033 72.5233 97.7248 72.5233C101.555 72.5233 104.661 68.8203 104.661 64.2494H55.0995V64.2691C55.1087 68.8261 58.2112 72.5222 62.0427 72.5222Z" fill="#2DA343"/>
<path d="M79.8843 39.4623C66.197 39.4623 55.0995 50.5586 55.0995 64.2459H79.8832C78.55 64.2457 77.2469 63.8502 76.1386 63.1094C75.0302 62.3686 74.1664 61.3157 73.6564 60.084C73.1464 58.8523 73.0131 57.497 73.2733 56.1895C73.5335 54.882 74.1756 53.6811 75.1183 52.7385C76.0611 51.7959 77.2622 51.154 78.5697 50.894C79.8772 50.6341 81.2325 50.7676 82.4641 51.2778C83.6957 51.788 84.7484 52.652 85.489 53.7605C86.2297 54.869 86.625 56.1721 86.625 57.5053C86.6251 58.3906 86.4508 59.2673 86.1121 60.0853C85.7733 60.9032 85.2767 61.6464 84.6506 62.2724C84.0245 62.8984 83.2812 63.3949 82.4632 63.7335C81.6452 64.0721 80.7685 64.2462 79.8832 64.2459H104.667C104.667 50.5586 93.5716 39.4623 79.8843 39.4623Z" fill="#0095D6"/>
<path d="M121.638 110.622C114.914 106.994 107.281 105.399 99.6669 106.029C92.0528 106.66 84.786 109.489 78.7503 114.173C85.4743 117.801 93.1075 119.396 100.722 118.766C108.336 118.135 115.603 115.306 121.638 110.622Z" fill="#2DA343"/>
<path fill-rule="evenodd" clip-rule="evenodd" d="M99.6621 105.971C107.287 105.34 114.932 106.938 121.666 110.571L121.638 110.622L121.674 110.667C115.629 115.359 108.352 118.192 100.726 118.824C93.1011 119.455 85.4567 117.857 78.7228 114.224L78.6446 114.182L78.7148 114.127C84.7594 109.436 92.0369 106.603 99.6621 105.971ZM121.532 110.63C114.837 107.038 107.245 105.46 99.6717 106.087C92.0983 106.714 84.869 109.52 78.8561 114.164C85.5512 117.757 93.1435 119.335 100.717 118.708C108.29 118.081 115.519 115.275 121.532 110.63Z" fill="#2DA343"/>
<path d="M81.0207 114.173C74.9847 109.489 67.7177 106.66 60.1034 106.029C52.4892 105.399 44.8558 106.994 38.1315 110.622C44.1675 115.306 51.4345 118.135 59.0488 118.766C66.663 119.396 74.2965 117.801 81.0207 114.173Z" fill="#2DA343"/>
<path fill-rule="evenodd" clip-rule="evenodd" d="M38.1041 110.571C44.8381 106.938 52.4828 105.34 60.1082 105.971C67.7336 106.603 75.0113 109.436 81.0562 114.127L81.0207 114.173L81.0481 114.224C74.3141 117.857 66.6694 119.455 59.044 118.823C51.4186 118.192 44.1409 115.358 38.0961 110.667L38.0259 110.613L38.1041 110.571ZM80.9148 114.164C74.9017 109.52 67.6722 106.714 60.0987 106.087C52.5251 105.46 44.9326 107.038 38.2374 110.63C44.2505 115.275 51.48 118.081 59.0535 118.708C66.6271 119.335 74.2196 117.757 80.9148 114.164Z" fill="#2DA343"/>
<path fill-rule="evenodd" clip-rule="evenodd" d="M78.3221 121.296V90.8418H81.4465V121.296H78.3221Z" fill="#2DA343"/>
<path fill-rule="evenodd" clip-rule="evenodd" d="M38.2849 75.7651L40.6748 76.0945C59.5855 78.7013 74.7853 92.6591 78.7345 110.727L79.2505 113.087L76.8488 112.823C57.6614 110.711 42.1951 96.4958 38.7321 78.1358L38.2849 75.7651ZM121.484 75.7651L121.037 78.1358C117.573 96.497 102.107 110.711 82.9186 112.823L80.517 113.087L81.0329 110.727C84.9822 92.6591 100.183 78.7013 119.094 76.0945L121.484 75.7651ZM74.7254 109.019C59.0472 106.314 46.523 94.7948 42.6923 79.952C58.1723 83.0233 70.5337 94.3782 74.7254 109.019ZM117.076 79.952C113.246 94.7957 100.721 106.314 85.0421 109.019C89.2338 94.3783 101.596 83.0233 117.076 79.952Z" fill="#2DA343"/>
<path d="M41.4978 30.612C42.2986 31.5123 42.6732 32.4034 42.6215 33.2851C42.5698 34.1669 42.0942 35.0086 41.1947 35.8101C40.299 36.6078 39.4091 36.9816 38.525 36.9315C37.6409 36.8813 36.7985 36.4069 35.9977 35.5081L32.4544 31.5262L33.8152 30.3146L37.656 34.6286C38.061 35.0846 38.4853 35.3257 38.9289 35.3519C39.3725 35.3781 39.8253 35.1887 40.2874 34.7837C40.7426 34.3787 40.9829 33.9544 41.0084 33.5108C41.0338 33.0672 40.844 32.617 40.439 32.1603L36.5983 27.8452L37.9591 26.6336L41.4978 30.612ZM46.4344 31.3931L45.7401 31.8444L45.0458 32.2969L40.2446 24.8769L42.3773 23.4883L48.6887 27.3476L45.0655 21.749L45.7598 21.2966L46.4541 20.8453L51.2565 28.2652L50.2057 28.9445L49.1539 29.6388L42.7673 25.7321L46.4344 31.3931ZM48.7349 19.7101L49.545 19.2981L50.355 18.8873L54.3439 26.7736L53.5338 27.1844L52.7238 27.5964L48.7349 19.7101ZM55.0579 18.2983L52.5537 19.2715L52.0549 17.9905L58.7667 15.3764L59.0166 16.0163L59.2654 16.6562L56.7589 17.6329L59.4679 24.5877L57.7692 25.2496L55.0579 18.2983ZM62.9858 23.346L60.8635 14.7665L66.5222 13.3663L66.6865 14.034L66.852 14.7006L62.9685 15.6634L63.4927 17.7833L67.1344 16.8796L67.2998 17.5473L67.4642 18.2138L63.8132 19.1176L64.4219 21.5743L68.4235 20.5838L68.589 21.2515L68.7533 21.918L62.9858 23.346ZM68.9616 12.8965L72.4505 12.5308C73.7582 12.3943 74.8197 12.6762 75.6351 13.3767C76.4506 14.0772 76.9304 15.116 77.0747 16.4931C77.229 17.928 76.9281 19.0624 76.1721 19.8964C75.416 20.7303 74.2388 21.2318 72.6403 21.4007L69.8839 21.69L68.9616 12.8965ZM71.5514 20.1301L72.8046 19.9982C73.7227 19.9025 74.3919 19.5724 74.8124 19.0077C75.2328 18.4429 75.3925 17.6665 75.2914 16.6782C75.1896 15.7077 74.8644 14.9856 74.3159 14.5119C73.7674 14.0383 73.0388 13.8489 72.13 13.9438L70.9172 14.0711L71.5514 20.1301ZM88.171 15.1669C88.1938 14.993 88.1796 14.8161 88.1294 14.648C88.0791 14.4799 87.9939 14.3243 87.8794 14.1914C87.6541 13.9414 87.322 13.7926 86.8831 13.7447C86.5175 13.6898 86.1443 13.763 85.8266 13.9519C85.6893 14.0295 85.5728 14.139 85.4868 14.2711C85.4008 14.4032 85.3478 14.5541 85.3324 14.711C85.3187 14.8462 85.339 14.9828 85.3913 15.1082C85.4436 15.2337 85.5264 15.3441 85.6321 15.4296C85.8636 15.6356 86.2917 15.8728 86.9259 16.1447L88.0148 16.6076C88.74 16.9162 89.2391 17.2634 89.5122 17.6491C89.7853 18.0348 89.8883 18.5301 89.8212 19.1349C89.786 19.5209 89.6591 19.8929 89.451 20.2198C89.2428 20.5467 88.9595 20.8191 88.6246 21.0142C87.9164 21.4586 87.0516 21.6241 86.0302 21.5107C84.8514 21.3811 83.9989 21.0366 83.4728 20.4773C82.9613 19.9326 82.7584 19.1793 82.8641 18.2173L82.8734 18.1363L84.6566 18.3318C84.5748 18.8441 84.6686 19.2588 84.9378 19.5758C85.2063 19.8941 85.6206 20.0827 86.1806 20.1452C86.612 20.2091 87.0526 20.1341 87.4385 19.9311C87.5963 19.8535 87.7319 19.7375 87.8331 19.5937C87.9342 19.4499 87.9975 19.283 88.0171 19.1083C88.0307 18.9962 88.0167 18.8825 87.9763 18.7771C87.936 18.6716 87.8706 18.5776 87.7857 18.5031C87.6028 18.3334 87.2557 18.1382 86.7442 17.9176L85.6553 17.4547C84.8067 17.0882 84.2207 16.7083 83.8975 16.3149C83.5743 15.9214 83.4454 15.43 83.511 14.8406C83.543 14.4566 83.6604 14.0847 83.8547 13.752C84.0489 13.4192 84.3149 13.1341 84.6335 12.9173C85.2908 12.4545 86.09 12.2766 87.0312 12.3839C88.0889 12.5004 88.8742 12.8221 89.3872 13.349C89.8625 13.8334 90.0596 14.4429 89.9786 15.1773L89.952 15.3694L88.171 15.1669ZM94.384 15.1854L91.7711 14.5443L91.9354 13.8766L92.0985 13.2066L99.095 14.9227L98.9318 15.5905L98.7675 16.2582L96.1545 15.6171L94.3771 22.8657L93.4918 22.6482L92.6066 22.4318L94.384 15.1854ZM102.747 16.2431L104.917 17.0879L104.774 26.5144L102.947 25.8039L103.04 23.8216L99.5463 22.4642L98.2872 23.9917L97.3858 23.6445L96.4785 23.2974L102.747 16.2431ZM100.477 21.351L103.106 22.3739L103.298 17.965L100.477 21.351ZM110.229 21.0929L107.868 19.8026L108.528 18.598L114.846 22.0592L114.186 23.2638L111.826 21.9712L108.239 28.5175L107.441 28.0789L106.641 27.6415L110.229 21.0929ZM110.676 29.9084L115.761 22.6794L120.529 26.0353L120.134 26.5954L119.739 27.1578L116.462 24.8515L115.204 26.6382L118.282 28.8022L117.492 29.9258L114.416 27.763L112.959 29.8332L116.331 32.2043L115.933 32.7632L115.539 33.3256L110.676 29.9084ZM124.098 32.4381C124.22 32.3109 124.313 32.1597 124.371 31.9942C124.43 31.8286 124.453 31.6526 124.439 31.4776C124.404 31.1436 124.224 30.8273 123.898 30.5287C123.635 30.2695 123.291 30.1085 122.923 30.0728C122.767 30.0545 122.609 30.0737 122.462 30.1289C122.316 30.184 122.184 30.2735 122.079 30.3898C121.988 30.4907 121.924 30.6126 121.892 30.7445C121.86 30.8764 121.862 31.0142 121.896 31.1455C121.96 31.4471 122.167 31.8942 122.519 32.4867L123.122 33.5062C123.525 34.1858 123.723 34.7609 123.717 35.2315C123.71 35.7021 123.501 36.1623 123.089 36.6121C122.833 36.9029 122.511 37.1282 122.15 37.2691C121.789 37.41 121.399 37.4625 121.013 37.4221C120.18 37.3619 119.385 36.9847 118.627 36.2904C117.751 35.4896 117.266 34.7081 117.173 33.9459C117.082 33.2037 117.362 32.4763 118.015 31.7634L118.071 31.7032L119.393 32.9137C119.025 33.2793 118.856 33.6697 118.886 34.0848C118.917 34.4998 119.139 34.8971 119.554 35.2767C119.864 35.5836 120.264 35.7835 120.695 35.8472C120.869 35.878 121.047 35.8647 121.214 35.8085C121.381 35.7523 121.531 35.6549 121.651 35.5255C121.728 35.4427 121.784 35.3421 121.813 35.2327C121.841 35.1232 121.843 35.0084 121.816 34.8983C121.77 34.6514 121.607 34.2896 121.326 33.8128L120.722 32.7945C120.252 31.996 120.003 31.3434 119.975 30.8365C119.948 30.3297 120.134 29.8567 120.534 29.4178C120.787 29.1269 121.101 28.8961 121.454 28.7422C121.807 28.5882 122.19 28.515 122.574 28.5279C123.377 28.5449 124.127 28.8731 124.825 29.5127C125.611 30.2309 126.055 30.9542 126.158 31.6824C126.256 32.3551 126.055 32.9634 125.557 33.5073L125.421 33.6462L124.098 32.4381ZM19.6731 49.5588L27.6902 53.278L25.2439 58.5687L23.9964 57.9901L25.6824 54.3554L23.7013 53.4365L22.1194 56.8456L20.872 56.267L22.455 52.8556L20.1522 51.791L18.4164 55.5299L17.1701 54.9525L19.6731 49.5588ZM15.6681 59.1346L16.1448 57.54L24.6132 60.0731L24.2498 61.2904L23.8865 62.5032L16.5811 63.6604L22.97 65.5674L22.7385 66.3647L22.5002 67.162L14.026 64.637L14.3836 63.437L14.7423 62.2382L22.1368 61.0648L15.6681 59.1346ZM22.1542 68.5044L21.8949 70.4705L14.7828 71.9633L21.2631 75.2497L21.0317 77.0387L12.7033 72.5708L12.9556 70.6556L22.1542 68.5044ZM21.1243 78.1311L21.1 79.0418L21.0768 79.9537L12.2416 79.7223L12.2648 78.8104L12.2891 77.8997L21.1243 78.1311ZM21.0143 82.1257L21.2955 85.6656C21.3773 86.7001 21.2442 87.5102 20.8963 88.0957C20.5484 88.6813 20.0041 89.0026 19.2635 89.0597C18.5159 89.1183 17.9265 88.8672 17.4953 88.3063C17.2663 87.9988 17.0954 87.6522 16.9908 87.2834C16.9774 87.573 16.922 87.8591 16.8264 88.1328C16.6471 88.5794 16.2779 88.856 15.7155 88.9636C15.1531 89.0712 14.6532 89.18 14.2262 89.2888L14.0978 89.3247C13.7772 89.4126 13.5192 89.4925 13.3143 89.563C13.1231 89.6289 12.937 89.7089 12.7577 89.8026L12.605 87.8782C12.7578 87.8138 12.9157 87.7623 13.0771 87.7243C13.2777 87.6726 13.5697 87.6062 13.9531 87.5252L14.7319 87.3713C15.3128 87.2579 15.687 87.1094 15.8544 86.9258C16.0218 86.7422 16.0862 86.4039 16.0476 85.9109L15.925 84.3615L12.3481 84.6461L12.2046 82.8293L21.0143 82.1257ZM17.2939 84.2492L17.3842 85.3763C17.4351 86.0282 17.5821 86.5185 17.8251 86.8471C17.9295 87.0024 18.0744 87.1262 18.2441 87.2049C18.4138 87.2837 18.6019 87.3144 18.7879 87.2938C18.9694 87.2887 19.1466 87.2373 19.3028 87.1446C19.4589 87.0518 19.5888 86.9208 19.6801 86.7638C19.8706 86.4413 19.9435 85.9962 19.8988 85.4284L19.7889 84.0513L17.2939 84.2492ZM14.2239 92.4745C14.8303 91.6259 15.8656 91.0335 17.3298 90.6971C18.794 90.3607 19.9829 90.4471 20.8963 90.9563C21.8128 91.4616 22.4188 92.3642 22.7142 93.6642C23.0097 94.9641 22.8554 96.0406 22.2514 96.8939C21.6442 97.7425 20.6093 98.3334 19.1466 98.6667C17.6839 99 16.4947 98.9147 15.579 98.411C14.664 97.908 14.0584 97.0046 13.7622 95.7008C13.4659 94.397 13.6198 93.3216 14.2239 92.4745ZM16.2756 96.88C16.8928 97.1377 17.7155 97.1504 18.7439 96.9182C19.7723 96.686 20.5082 96.3188 20.9518 95.8165C21.4001 95.3151 21.5408 94.6979 21.3742 93.965C21.2076 93.2321 20.8145 92.7384 20.195 92.4838C19.5732 92.2246 18.7508 92.2111 17.7279 92.4433C16.7049 92.6755 15.9701 93.0451 15.5234 93.5519C15.0768 94.0557 14.9363 94.6728 15.1022 95.4034C15.2681 96.134 15.6592 96.6266 16.2756 96.8812V96.88ZM16.1992 103.554L15.5871 102.006L23.8032 98.7558L24.7289 101.119L19.7055 106.548L25.9058 104.095L26.5179 105.642L18.3019 108.893L17.3761 106.565L22.4678 101.07L16.1992 103.554ZM20.4056 113.022L19.9728 112.311L19.5412 111.601L27.0954 107.007L28.668 109.589L23.6238 114.817L30.567 112.725L32.1396 115.31L24.5935 119.9L24.1607 119.19L23.7291 118.479L30.7105 114.23L22.5684 116.571L21.5651 114.924L27.3396 108.8L20.4056 113.022ZM26.5839 122.38L33.3165 116.66L37.0936 121.099L36.5705 121.544L36.0463 121.99L33.4507 118.938L31.7867 120.354L34.2237 123.218L33.1776 124.109L30.7406 121.244L28.8115 122.885L31.4835 126.024L30.9604 126.469L30.4362 126.914L26.5839 122.38ZM33.4403 129.873L32.8189 129.32L32.1975 128.768L38.0702 122.162L39.9692 123.852L37.9302 130.962L42.3611 125.979L43.6051 127.084L37.7312 133.689L35.8611 132.025L37.9256 124.829L33.4403 129.873ZM46.1706 130.532L43.9233 129.054L44.3006 128.475L44.679 127.896L50.6964 131.855L49.9419 133.012L47.6935 131.533L43.5912 137.77L42.0695 136.767L46.1706 130.532ZM53.3892 133.208L54.4307 133.712L55.4826 134.219L54.6008 143.608L52.8349 142.756L53.0837 140.789L49.707 139.159L48.3322 140.584L47.4609 140.164L46.5849 139.74L53.3892 133.208ZM50.7276 138.122L53.2735 139.348L53.8116 134.968L50.7276 138.122ZM56.9291 144.393L59.6311 135.978L61.3657 136.536L59.0838 143.642L62.5958 144.769L62.3864 145.424L62.1758 146.078L56.9291 144.393ZM70.2229 138.806L71.1267 138.914L73.588 139.204C74.557 139.319 75.271 139.64 75.73 140.17C76.189 140.699 76.3672 141.402 76.2646 142.28C76.1597 143.17 75.8041 143.811 75.1977 144.205C74.5913 144.598 73.7504 144.731 72.675 144.603L71.3917 144.451L70.9959 147.798L70.091 147.691L69.1861 147.584L70.2229 138.806ZM71.5525 143.088L72.5454 143.204C73.1194 143.271 73.5734 143.206 73.9074 143.01C74.0732 142.913 74.2126 142.776 74.3134 142.612C74.4143 142.448 74.4735 142.262 74.486 142.07C74.5385 141.635 74.4436 141.284 74.2014 141.017C73.9591 140.75 73.5892 140.587 73.0916 140.529L71.8719 140.382L71.5525 143.088ZM78.0467 139.604L81.597 139.533C82.6354 139.512 83.435 139.693 83.9959 140.076C84.5567 140.458 84.8449 141.021 84.8603 141.763C84.8757 142.513 84.5903 143.086 84.004 143.484C83.6834 143.693 83.3273 143.843 82.9532 143.926C83.2415 143.956 83.5238 144.029 83.791 144.141C84.2261 144.345 84.4807 144.731 84.5548 145.298C84.6288 145.865 84.7079 146.367 84.792 146.803L84.8198 146.933C84.8877 147.258 84.9513 147.523 85.0107 147.728C85.0649 147.923 85.1337 148.114 85.2167 148.299L84.2516 148.317L83.2865 148.337C83.2314 148.181 83.1892 148.02 83.1604 147.857C83.121 147.653 83.0724 147.358 83.0146 146.972L82.9069 146.185C82.8298 145.597 82.7037 145.214 82.5285 145.037C82.3534 144.859 82.0198 144.775 81.5276 144.783L79.9734 144.815L80.0452 148.402L79.1333 148.419L78.2226 148.438L78.0467 139.604ZM79.9457 143.443L81.0763 143.42C81.7297 143.408 82.2281 143.292 82.5714 143.073C82.7325 142.977 82.8644 142.84 82.9531 142.675C83.0418 142.51 83.0839 142.324 83.0747 142.137C83.0808 141.954 83.0401 141.774 82.9565 141.612C82.8728 141.45 82.749 141.312 82.5968 141.211C82.2882 141.001 81.8485 140.902 81.2776 140.914L79.8971 140.941L79.9457 143.443ZM88.7936 146.897C87.972 146.251 87.432 145.188 87.1735 143.709C86.9151 142.23 87.0586 141.047 87.604 140.159C88.1525 139.27 89.0829 138.708 90.3952 138.474C91.7074 138.24 92.7755 138.448 93.5994 139.096C94.4187 139.744 94.9588 140.806 95.2195 142.283C95.4803 143.759 95.3375 144.943 94.7913 145.834C94.2436 146.724 93.3121 147.286 91.9967 147.518C90.6814 147.75 89.6137 147.543 88.7936 146.897ZM93.2928 145.059C93.5813 144.452 93.6334 143.631 93.449 142.596C93.2646 141.561 92.9333 140.808 92.455 140.338C91.9759 139.866 91.3676 139.696 90.6301 139.827C89.8925 139.958 89.3807 140.327 89.0945 140.934C88.8044 141.542 88.7512 142.363 88.9348 143.397C89.1184 144.431 89.4505 145.184 89.9311 145.656C90.4125 146.126 91.02 146.295 91.7537 146.165C92.4874 146.035 93.0004 145.666 93.2928 145.059ZM98.1137 138.184L95.5586 139.026L95.1281 137.722L101.966 135.468L102.396 136.772L99.8413 137.616L102.181 144.703L100.45 145.275L98.1137 138.184ZM107.334 142.741L103.449 134.804L108.685 132.24L109.289 133.475L105.69 135.236L106.65 137.204L110.028 135.55L110.632 136.785L107.254 138.438L108.368 140.711L112.071 138.899L112.675 140.134L107.334 142.741ZM119.151 132.514C119.67 133.219 119.799 134.016 119.539 134.902C119.279 135.788 118.701 136.53 117.803 137.127C116.723 137.845 115.686 138.066 114.69 137.79C113.695 137.515 112.783 136.752 111.954 135.501C111.124 134.252 110.783 133.108 110.931 132.071C111.078 131.035 111.708 130.147 112.819 129.41C113.679 128.838 114.55 128.607 115.43 128.716C116.27 128.817 116.907 129.199 117.342 129.86L117.415 129.976L115.921 130.968C115.596 130.562 115.219 130.331 114.79 130.273C114.361 130.215 113.924 130.334 113.48 130.628C112.89 131.02 112.592 131.548 112.586 132.21C112.579 132.873 112.867 133.642 113.448 134.517C114.029 135.391 114.63 135.952 115.248 136.197C115.867 136.442 116.478 136.365 117.08 135.965C117.543 135.657 117.825 135.288 117.926 134.859C118.027 134.43 117.939 133.982 117.661 133.513L119.151 132.514ZM119.228 126.496L117.209 128.274L116.755 127.759L116.301 127.243L121.708 122.482L122.615 123.514L120.597 125.289L125.529 130.891L124.161 132.096L119.228 126.496ZM122.605 121.422L123.226 120.755L123.846 120.088L130.313 126.113L129.071 127.446L122.605 121.422ZM131.958 122.766C130.918 122.861 129.795 122.462 128.587 121.568C127.38 120.673 126.671 119.715 126.459 118.693C126.246 117.669 126.536 116.622 127.329 115.55C128.122 114.479 129.04 113.895 130.084 113.799C131.124 113.708 132.247 114.109 133.452 115.001C134.657 115.892 135.367 116.85 135.583 117.874C135.796 118.896 135.505 119.944 134.71 121.018C133.915 122.092 132.997 122.675 131.958 122.766ZM133.964 118.339C133.755 117.7 133.229 117.068 132.384 116.441C131.539 115.815 130.781 115.496 130.11 115.484C129.439 115.471 128.88 115.766 128.433 116.368C127.987 116.971 127.868 117.591 128.078 118.228C128.285 118.868 128.811 119.501 129.655 120.126C130.5 120.751 131.259 121.069 131.932 121.082C132.603 121.093 133.162 120.799 133.606 120.2C134.05 119.6 134.17 118.98 133.964 118.339ZM139.317 113.632L138.551 115.108L130.705 111.037L131.876 108.782L139.269 109.013L133.35 105.942L134.116 104.465L141.961 108.536L140.804 110.759L133.326 110.527L139.317 113.632ZM136.816 96.6867L137.405 94.4337L146.786 93.4883L146.291 95.3849L144.311 95.5215L143.363 99.1481L145.026 100.223L144.782 101.154L144.537 102.095L136.816 96.6867ZM142.152 98.3519L142.865 95.6233L138.467 95.9404L142.152 98.3519ZM147.658 87.8562C147.482 89.3683 146.961 90.473 146.096 91.1704C145.23 91.8678 144.052 92.1301 142.562 91.9573C141.163 91.7937 140.098 91.2722 139.367 90.3928C138.635 89.5133 138.347 88.4058 138.502 87.0704C138.636 85.9202 138.989 85.0781 139.563 84.5443C140.137 84.0104 140.915 83.8006 141.897 83.9148L141.69 85.6957C141.121 85.639 140.693 85.7339 140.402 85.9804C140.112 86.2269 139.934 86.6504 139.865 87.2463C139.77 88.0633 139.975 88.726 140.479 89.2344C140.982 89.7428 141.746 90.0564 142.769 90.1752C143.812 90.2956 144.632 90.159 145.228 89.7656C145.823 89.3721 146.17 88.7368 146.269 87.8597C146.321 87.3515 146.311 86.839 146.239 86.3333L144.308 86.11L144.112 87.7925L142.747 87.634L143.153 84.1393L147.538 84.6484C147.74 85.7054 147.781 86.787 147.658 87.8562ZM147.914 81.6629L139.078 81.8793L138.935 76.0516L139.622 76.0343L140.31 76.0181L140.407 80.0231L142.59 79.9699L142.499 76.2102L143.185 76.194L143.873 76.1766L143.964 79.9363L146.495 79.875L146.394 75.7531L147.082 75.7369L147.768 75.7195L147.914 81.6629ZM147.253 71.1821L147.393 72.0026L147.532 72.8219L138.819 74.3066L138.393 71.8012L144.428 67.5254L137.855 68.6456L137.575 67.0058L146.287 65.5119L146.708 67.9802L140.598 72.3069L147.253 71.1821ZM140.534 56.6906C141.353 56.382 142.154 56.4699 142.939 56.9544C143.723 57.4389 144.283 58.1961 144.619 59.226C145.022 60.4603 144.958 61.5192 144.427 62.4025C143.896 63.2858 142.918 63.9609 141.491 64.4276C140.065 64.8905 138.873 64.9144 137.913 64.4993C136.953 64.0843 136.266 63.2407 135.852 61.9686C135.532 60.9857 135.542 60.085 135.881 59.2665C136.203 58.4842 136.74 57.972 137.493 57.7297L137.619 57.6892L138.176 59.3938C137.699 59.5986 137.374 59.8995 137.204 60.2976C137.034 60.6956 137.03 61.1481 137.196 61.6538C137.415 62.3281 137.844 62.7566 138.481 62.9394C139.119 63.1223 139.936 63.0501 140.935 62.723C141.934 62.3967 142.634 61.9682 143.035 61.4374C143.436 60.9066 143.524 60.2976 143.299 59.6102C143.127 59.0825 142.846 58.7122 142.459 58.4993C142.071 58.2864 141.615 58.2516 141.091 58.3951L140.534 56.6906ZM138.242 52.8984L134.759 58.1243L133.787 56.1583L136.416 52.608L132.025 52.5814L131.601 51.7204L131.175 50.8606L137.44 51.261L140.488 49.7567L141.296 51.3906L138.242 52.8984Z" fill="#0668B3"/>
<path d="M130.081 45.0758C131.487 45.0758 132.627 43.936 132.627 42.53C132.627 41.1239 131.487 39.9841 130.081 39.9841C128.675 39.9841 127.535 41.1239 127.535 42.53C127.535 43.936 128.675 45.0758 130.081 45.0758Z" fill="#0668B3"/>
<path d="M28.9423 45.5387C30.3483 45.5387 31.4881 44.3989 31.4881 42.9928C31.4881 41.5868 30.3483 40.447 28.9423 40.447C27.5362 40.447 26.3964 41.5868 26.3964 42.9928C26.3964 44.3989 27.5362 45.5387 28.9423 45.5387Z" fill="#0668B3"/>
</svg>
