<svg width="224" height="48" viewBox="0 0 224 48" fill="none" xmlns="http://www.w3.org/2000/svg">
<path d="M33.5262 8.03086C32.4639 7.44123 29.4187 7.80581 25.7614 8.93794C19.3605 13.3132 13.9583 19.7591 13.5813 30.1101C13.5127 30.3576 12.8813 30.0765 12.7565 29.9999C11.028 26.6869 10.3432 23.1984 11.7864 18.1659C12.0554 17.7181 11.1759 17.1667 11.0178 17.3242C10.701 17.6415 9.38039 19.0483 8.50328 20.5697C4.15559 28.1117 6.99878 37.7754 14.6053 42.0046C22.2103 46.2403 31.8137 43.508 36.0481 35.9008C40.9469 27.1207 36.3982 9.63488 33.5263 8.03113L33.5262 8.03086Z" fill="#82B541"/>
<path d="M60.7479 12.2448C51.7307 12.2448 45.1855 18.9484 45.1855 28.1847C45.1855 37.4968 51.7137 44.0005 61.062 44.0005C65.7839 44.0005 69.5224 42.524 72.4954 39.4845C73.3834 38.5257 73.4789 37.6017 73.4789 37.2485C73.4789 35.7428 72.3592 34.6491 70.8164 34.6491C70.0389 34.6491 69.3884 34.9428 68.6423 35.6326C66.9589 37.2012 64.7418 38.8037 61.062 38.8037C55.9451 38.8037 51.7836 34.9619 51.5215 30.0284H71.8872C74.1018 30.0284 75.1776 28.993 75.1776 26.8639C75.1776 26.2371 75.1776 25.7847 75.0515 24.8923C73.9544 16.9733 68.6079 12.2459 60.7484 12.2459L60.7479 12.2448ZM60.7479 17.1895C65.6374 17.1895 68.775 20.3056 68.9685 25.3348H51.5278C51.9857 20.6803 55.9213 17.1895 60.7479 17.1895Z" fill="black"/>
<path d="M94.6247 12.2448C90.5285 12.2448 86.4728 14.6002 84.8883 17.8714V15.8498C84.8883 12.7179 82.461 12.5593 81.9749 12.5593C80.5366 12.5593 78.9995 13.4236 78.9995 15.8498V40.2678C78.9995 43.52 81.5832 43.6844 82.1009 43.6844C82.6186 43.6844 85.2035 43.52 85.2035 40.2678V27.178C85.2035 21.4826 88.4309 17.5046 93.0516 17.5046C97.5271 17.5046 99.7034 20.4417 99.7034 26.4847V40.2678C99.7034 43.52 102.288 43.6844 102.806 43.6844C103.324 43.6844 105.907 43.52 105.907 40.2678V24.5365C105.907 18.5946 102.943 12.2467 94.6247 12.2467V12.2448Z" fill="black"/>
<path d="M133.978 12.5598C132.544 12.5598 131.505 13.396 130.886 15.0412L122.398 36.385L113.975 15.0412C113.315 13.3713 112.283 12.5598 110.819 12.5598C109.109 12.5598 107.717 13.8944 107.717 15.5352C107.717 15.9414 107.763 16.4681 108.106 17.2907L117.861 40.3227C119.023 43.1012 120.935 43.6842 122.335 43.6842C123.734 43.6842 125.647 43.1012 126.811 40.324L136.629 17.1639C136.965 16.3515 137.017 15.755 137.017 15.4727C137.017 13.8128 135.709 12.5598 133.978 12.5598Z" fill="black"/>
<path d="M152.011 12.2448C148.043 12.2448 144.348 13.3499 141.607 15.3541C140.677 15.9955 140.225 16.7957 140.225 17.8017C140.225 19.187 141.282 20.273 142.635 20.273C143.22 20.273 143.875 20.04 144.476 19.6191C146.833 18.0482 149.047 17.3156 151.444 17.3156C156.031 17.3156 158.664 19.6484 158.664 23.7165V24.3906C148.368 24.4018 137.895 25.6454 137.895 34.603C137.895 41.05 143.404 43.9365 148.864 43.9365C153.213 43.9365 156.685 42.2135 158.913 38.9511V40.5199C158.913 42.8561 160.482 43.6845 161.828 43.6845C162.112 43.6845 164.614 43.5955 164.614 40.5199V24.093C164.614 16.6725 159.902 12.2433 152.011 12.2433L152.011 12.2448ZM157.359 28.9582H158.664V30.3873C158.664 35.6145 155.336 38.9916 150.186 38.9916C148.789 38.9916 144.227 38.6664 144.227 34.4768C144.226 29.5299 151.721 28.9582 157.359 28.9582Z" fill="black"/>
<path d="M180.773 18.1967C183.488 18.1967 183.625 16.0845 183.625 15.6613C183.625 14.4054 182.876 13.0628 180.773 13.0628H175.192V7.41708C175.192 4.89516 173.556 4.00049 172.153 4.00049C171.636 4.00049 169.052 4.16482 169.052 7.41708V34.2268C169.052 40.4139 172.104 43.6841 177.879 43.6841C179.373 43.6841 180.83 43.4196 181.782 42.9762C182.873 42.4316 183.499 41.5359 183.499 40.5196C183.499 39.086 182.459 38.0463 181.025 38.0463C180.749 38.0463 180.355 38.1149 179.92 38.2398C179.389 38.3727 179.029 38.4243 178.635 38.4243C176.286 38.4243 175.192 36.8905 175.192 33.5967V18.194H180.773V18.1967Z" fill="black"/>
<path d="M201.286 12.2448C191.903 12.2448 185.095 18.8956 185.095 28.058C185.095 32.5189 186.745 36.5847 189.738 39.5059C192.709 42.4036 196.81 43.9994 201.286 43.9994C210.552 43.9994 217.54 37.1462 217.54 28.0582C217.54 18.8957 210.703 12.2451 201.286 12.2451L201.286 12.2448ZM201.286 38.7391C194.851 38.7391 191.486 33.3656 191.486 28.0573C191.486 20.763 196.566 17.441 201.286 17.441C206.005 17.441 211.085 20.763 211.085 28.0573C211.085 35.3968 206.005 38.7391 201.286 38.7391Z" fill="black"/>
</svg>
