<svg width="160" height="56" viewBox="0 0 160 56" fill="none" xmlns="http://www.w3.org/2000/svg">
<path d="M54.538 37.6059H55.5809L55.052 41.3307H56.9889L56.8548 42.2917H53.875L54.538 37.6059Z" fill="#00303C"/>
<path d="M60.6317 37.6059H63.8574L63.7233 38.5744H61.5406L61.4139 39.4609H63.4774L63.3359 40.4219H61.2798L61.1457 41.3307H63.4477L63.3061 42.2917H59.9613L60.6317 37.6059Z" fill="#00303C"/>
<path d="M68.8709 37.6059H69.7351L71.1356 42.3513H69.9511L69.6829 41.3307H67.8429L67.3065 42.3364H66.1518L68.8709 37.6059ZM69.0795 38.9916L68.3345 40.4815H69.4967L69.0795 38.9916Z" fill="#00303C"/>
<path d="M74.7709 37.6059H76.3428C76.6992 37.605 77.0545 37.6475 77.4006 37.7326C77.7088 37.8073 77.9964 37.9498 78.2424 38.1498C78.4754 38.3463 78.6484 38.6045 78.7415 38.8947C78.8561 39.2506 78.8817 39.6292 78.816 39.9973C78.7706 40.3601 78.646 40.7085 78.451 41.0178C78.2694 41.3055 78.0372 41.5579 77.7657 41.7628C77.4875 41.964 77.1779 42.1175 76.8494 42.2172C76.5129 42.3153 76.1643 42.3655 75.8139 42.3662H74.1005L74.7709 37.6059ZM75.285 41.3903H75.8288C76.0592 41.3888 76.2888 41.3639 76.5141 41.3158C76.7182 41.2678 76.9123 41.1847 77.0877 41.07C77.2582 40.9514 77.4027 40.7993 77.5124 40.623C77.6321 40.4118 77.7081 40.1788 77.7359 39.9377C77.7679 39.7358 77.7526 39.5292 77.6912 39.3342C77.6299 39.1714 77.5303 39.0257 77.4006 38.9096C77.2589 38.7919 77.0939 38.7056 76.9164 38.6563C76.7155 38.5984 76.5071 38.5708 76.2981 38.5744H75.6798L75.285 41.3903Z" fill="#00303C"/>
<path d="M82.3397 37.6059H83.3901L82.7196 42.3513H81.699L82.3397 37.6059Z" fill="#00303C"/>
<path d="M86.8317 37.6059H88.2546L89.8116 40.9061L90.2809 37.6059H91.3238L90.6533 42.3513H89.2975L87.7033 38.9767L87.2266 42.3513H86.1687L86.8317 37.6059Z" fill="#00303C"/>
<path d="M98.4679 41.9788C98.1461 42.1373 97.8057 42.2549 97.4548 42.329C97.1121 42.4033 96.7625 42.4408 96.4118 42.4407C96.0707 42.4459 95.7317 42.3852 95.4136 42.2619C95.131 42.1535 94.8764 41.9829 94.6686 41.7628C94.4678 41.5371 94.3247 41.2662 94.2515 40.9731C94.1617 40.638 94.144 40.2876 94.1993 39.9451C94.2522 39.5836 94.3655 39.2335 94.5345 38.9096C94.8639 38.3004 95.4083 37.8356 96.0617 37.606C96.4001 37.4919 96.755 37.434 97.1121 37.4346C97.4594 37.4303 97.8056 37.4754 98.1401 37.5687C98.4377 37.6573 98.7072 37.8216 98.9223 38.0455L98.088 38.8649C97.9739 38.7191 97.8255 38.6039 97.6559 38.5297C97.4473 38.4482 97.2242 38.4102 97.0003 38.4179C96.7866 38.4162 96.5745 38.4541 96.3746 38.5297C96.1868 38.6032 96.0149 38.7119 95.868 38.85C95.7182 38.9881 95.5945 39.1522 95.503 39.3342C95.4031 39.5249 95.3375 39.7317 95.3093 39.9451C95.2714 40.147 95.2714 40.3541 95.3093 40.556C95.3453 40.7325 95.4218 40.8983 95.5328 41.0402C95.6493 41.1767 95.7942 41.286 95.9574 41.3605C96.144 41.4372 96.3442 41.4752 96.5459 41.4723C96.7494 41.4733 96.9522 41.4482 97.1493 41.3978C97.2938 41.3581 97.4336 41.3031 97.5665 41.2339L97.6783 40.4889H96.8216L96.9557 39.5205H98.8329L98.4679 41.9788Z" fill="#00303C"/>
<path d="M107.966 38.4924H106.618L106.744 37.5687H110.469L110.342 38.4924H108.987L108.517 42.3141H107.467L107.966 38.4924Z" fill="#00303C"/>
<path d="M113.523 37.6059H114.566L114.321 39.3789H116.354L116.6 37.6059H117.643L116.98 42.3513H115.967L116.25 40.3027H114.224L113.933 42.3513H112.883L113.523 37.6059Z" fill="#00303C"/>
<path d="M121.182 37.6059H124.407L124.273 38.5744H122.09L121.926 39.4236H123.983L123.848 40.3846H121.785L121.651 41.3531H123.953L123.819 42.3141H120.474L121.182 37.6059Z" fill="#00303C"/>
<path d="M132.006 37.6059H133.145L133.473 40.5858L134.911 37.6059H135.879L136.431 40.7348L137.66 37.6059H138.725L136.669 42.3513H135.738L135.149 39.0661L133.66 42.3513H132.766L132.006 37.6059Z" fill="#00303C"/>
<path d="M143.098 37.6059H143.962L145.363 42.3513H144.178L143.91 41.3307H142.04L141.504 42.3364H140.349L143.098 37.6059ZM143.307 38.9916L142.517 40.4815H143.679L143.307 38.9916Z" fill="#00303C"/>
<path d="M149.281 40.2952L147.881 37.6059H149.184L149.929 39.3864L151.255 37.6059H152.47L150.302 40.3325L150.019 42.3513H148.968L149.281 40.2952Z" fill="#00303C"/>
<path d="M54.1719 24.4798L57.6881 17.9018H59.8782L61.0776 24.4798H58.9321L58.8278 23.6082H56.6824L56.2801 24.4798H54.1719ZM58.4181 19.8834L57.3305 22.2374H58.6937L58.4181 19.8834Z" fill="#00303C"/>
<path d="M61.4054 24.4798L62.5601 17.9018H65.1599L65.5995 22.0065L67.4842 17.9018H70.0841L68.922 24.4798H66.9925L67.3427 22.4684L67.5512 21.4478L67.8716 20.2633H67.8567L65.9123 24.4798H64.415L63.9606 20.2633H63.9457L63.8637 21.2318L63.7296 22.2523L63.3348 24.4798H61.4054Z" fill="#00303C"/>
<path d="M69.3913 24.4798L70.546 17.9018H75.9096L75.6414 19.4364H72.4307L72.2668 20.3751H74.9784L74.7102 21.9097H71.9986L71.8198 22.9452H75.1498L74.8816 24.4798H69.3913Z" fill="#00303C"/>
<path d="M77.9061 22.1853L77.5038 24.4798H75.3509L76.4832 17.9018H79.5897C81.7798 17.9018 82.3982 18.4978 82.1672 19.7791C82.0754 20.5457 81.527 21.1795 80.7816 21.3808C81.4297 21.6415 81.8245 21.8054 81.5862 23.1239C81.4372 23.9881 81.3552 24.2786 81.5862 24.2786V24.4798H79.4034C79.3829 24.0922 79.4155 23.7038 79.5003 23.3251C79.6493 22.4684 79.5524 22.1853 78.5467 22.1853H77.8912H77.9061ZM78.1445 20.7401H78.9937C79.6642 20.7401 80.0516 20.5762 80.1261 20.1218C80.2005 19.6674 79.8802 19.4364 79.3811 19.4364H78.3754L78.1445 20.7401Z" fill="#00303C"/>
<path d="M81.899 24.4798L83.0612 17.9018H85.2141L84.0594 24.4798H81.899Z" fill="#00303C"/>
<path d="M89.7136 20.4198C89.7757 20.1376 89.6976 19.8427 89.5039 19.6283C89.3102 19.4139 89.0248 19.3063 88.7377 19.3396C87.9928 19.3396 87.4043 19.9877 87.1808 21.2541C87.0169 22.1779 87.069 23.042 88.1641 23.042C88.7957 23.0254 89.3341 22.5793 89.4678 21.9618H91.5387C91.1101 23.5992 89.6102 24.7257 87.9183 24.6809C85.743 24.6809 84.6628 23.3474 85.0427 21.2094C85.3073 19.2591 86.956 17.7939 88.924 17.7603C90.9353 17.7603 91.9038 18.7511 91.7548 20.4496H89.7136" fill="#00303C"/>
<path d="M90.7789 24.4798L94.2951 17.9018H96.4852L97.6846 24.4798H95.5317L95.4348 23.6082H93.2894L92.8722 24.4798H90.764H90.7789ZM95.0028 19.8834L93.9226 22.2374H95.2859L95.0028 19.8834Z" fill="#00303C"/>
<path d="M102.937 21.4925L103.115 19.9951L103.488 17.9018H105.551L104.389 24.4798H102.37L100.657 20.8965L100.471 22.3939L100.106 24.4798H98.0422L99.2043 17.9018H101.216L102.937 21.4925Z" fill="#00303C"/>
<path d="M113.15 20.4198C113.209 20.1367 113.129 19.8424 112.934 19.6285C112.739 19.4146 112.454 19.3072 112.166 19.3396C111.422 19.3396 110.84 19.9877 110.617 21.2541C110.461 22.1779 110.505 23.042 111.6 23.042C112.23 23.0247 112.766 22.5781 112.897 21.9618H114.975C114.546 23.5992 113.046 24.7257 111.354 24.6809C109.179 24.6809 108.099 23.3474 108.479 21.2094C108.744 19.2591 110.392 17.7939 112.36 17.7603C114.372 17.7603 115.34 18.7511 115.191 20.4496H113.15" fill="#00303C"/>
<path d="M122.454 21.1573C122.176 23.1823 120.431 24.6814 118.387 24.6511C116.323 24.6511 115.169 23.3772 115.563 21.1349C115.86 19.145 117.59 17.6861 119.601 17.7305C121.948 17.7305 122.76 19.4215 122.454 21.1573ZM117.716 21.1573C117.567 21.9916 117.634 23.042 118.662 23.042C119.691 23.042 120.108 22.2374 120.301 21.1573C120.458 20.2559 120.257 19.3098 119.303 19.3396C118.35 19.3694 117.858 20.3229 117.716 21.1573Z" fill="#00303C"/>
<path d="M122.365 24.4798L123.52 17.9018H125.68L124.793 22.9452H127.751L127.475 24.4798H122.365Z" fill="#00303C"/>
<path d="M127.952 24.4798L129.114 17.9018H131.267L130.381 22.9452H133.338L133.07 24.4798H127.952Z" fill="#00303C"/>
<path d="M133.547 24.4798L134.701 17.9018H140.065L139.789 19.4364H136.586L136.422 20.3751H139.134L138.866 21.9097H136.154L135.968 22.9452H139.305L139.03 24.4798H133.547Z" fill="#00303C"/>
<path d="M145.704 24.4947H144.319V23.8465C143.751 24.3946 142.984 24.6855 142.196 24.6511C140.519 24.6511 139.216 23.5635 139.603 21.269C139.867 19.2296 141.614 17.7097 143.671 17.7305C145.25 17.7305 146.375 18.5499 146.352 20.1665H144.311C144.3 19.9268 144.191 19.7023 144.009 19.5458C143.827 19.3893 143.589 19.3147 143.35 19.3396C142.501 19.3396 141.965 20.0845 141.763 21.2616C141.6 22.1928 141.763 23.042 142.829 23.042C143.345 23.0336 143.817 22.7493 144.065 22.297H143.119L143.365 20.8667H146.345L145.704 24.5021" fill="#00303C"/>
<path d="M146.189 24.4798L147.351 17.9018H152.707L152.439 19.4364H149.235L149.071 20.3751H151.783L151.507 21.9097H148.796L148.617 22.9452H151.947L151.679 24.4798H146.189Z" fill="#00303C"/>
<path d="M57.5912 28.6664C59.2823 28.6664 60.1464 29.6646 59.8782 31.1471C59.6695 32.7109 58.2781 33.841 56.7047 33.7246C55.2148 33.7246 54.1346 32.8828 54.4252 31.2514C54.6472 29.6972 56.024 28.5731 57.5912 28.6664ZM56.3695 31.1694C56.213 32.0783 56.4812 32.4731 56.9654 32.4731C57.4497 32.4731 57.8519 32.0783 58.0158 31.1694C58.135 30.4692 57.919 29.9403 57.4199 29.9701C56.742 29.9701 56.4365 30.6331 56.3695 31.1694Z" fill="#00303C"/>
<path d="M63.6179 28.8228L63.4242 29.9254H62.6345L61.9864 33.6501H60.0943L60.7424 29.9254H60.0943L60.2879 28.8228H60.9286C61.2266 27.1392 61.9343 26.8636 63.1635 26.8636H63.968L63.752 28.063C63.1337 28.063 62.9176 28.063 62.8282 28.8079H63.6179" fill="#00303C"/>
<path d="M70.166 28.942C70.1769 28.762 70.0882 28.5904 69.9351 28.4951C69.7696 28.4098 69.5848 28.3687 69.3987 28.3759C68.922 28.3759 68.6538 28.5174 68.6538 28.7483C68.4824 29.7391 72.3785 29.1283 71.9465 31.5196C71.6783 33.0467 70.2778 33.7544 68.4675 33.7544C66.6573 33.7544 65.7783 32.7413 65.9421 31.5568H68.0057C68.0015 31.7627 68.1026 31.9565 68.2738 32.0708C68.4462 32.1837 68.649 32.2409 68.8549 32.2347C69.3913 32.2347 69.7787 32.0634 69.8308 31.758C70.0096 30.7597 66.106 31.4451 66.553 28.9346C66.7988 27.5341 68.1249 26.8338 69.7712 26.8338C71.5963 26.8338 72.2668 27.765 72.2146 28.9122H70.1735" fill="#00303C"/>
<path d="M72.0135 33.6129L73.1682 27.0349H76.3342C78.2264 27.0349 78.9863 27.9065 78.7479 29.2698C78.5095 30.6331 77.5038 31.5792 75.6116 31.5792H74.524L74.1664 33.6278H72.0135V33.6129ZM75.6936 30.0446C76.173 30.1071 76.6153 29.777 76.6918 29.2996C76.8036 28.6887 76.1256 28.6068 75.6638 28.6068H74.9933L74.74 30.0967L75.6936 30.0446Z" fill="#00303C"/>
<path d="M85.7504 30.2904C85.4728 32.3097 83.7361 33.807 81.6979 33.7842C79.6344 33.7842 78.4797 32.5029 78.8745 30.268C79.174 28.2769 80.9066 26.8187 82.9196 26.8636C85.2662 26.8636 86.0708 28.5547 85.7653 30.2904H85.7504ZM81.0274 30.2904C80.8785 31.1247 80.9529 32.1751 81.981 32.1751C83.009 32.1751 83.4187 31.3706 83.6124 30.2904C83.7689 29.3964 83.6124 28.4429 82.6142 28.4727C81.616 28.5025 81.1615 29.456 81.0125 30.2904H81.0274Z" fill="#00303C"/>
<path d="M88.179 31.3184L87.7767 33.6129H85.6238L86.7785 27.0349H89.8924C92.0826 27.0349 92.7009 27.6309 92.4774 28.9048C92.3853 29.6753 91.8338 30.3124 91.0843 30.5139C91.7324 30.7672 92.1272 30.9385 91.8963 32.2571C91.7399 33.1212 91.6654 33.4117 91.8963 33.4117L91.8591 33.6129H89.6764C89.6599 33.2254 89.6924 32.8375 89.7732 32.4582C89.9222 31.6015 89.8253 31.3184 88.8271 31.3184H88.1641H88.179ZM88.4174 29.8732H89.2741C89.9371 29.8732 90.3245 29.7093 90.399 29.2549C90.4735 28.8005 90.1531 28.5696 89.654 28.5696H88.6483L88.4174 29.8732Z" fill="#00303C"/>
<path d="M93.1702 27.0349H99.1969L98.8914 28.7632H96.9545L96.1053 33.6129H93.9524L94.8016 28.7632H92.8648L93.1702 27.0349Z" fill="#00303C"/>
<path d="M102.847 28.942C102.861 28.7612 102.772 28.588 102.616 28.4951C102.451 28.4098 102.266 28.3687 102.08 28.3759C101.603 28.3759 101.335 28.5174 101.335 28.7483C101.164 29.7391 105.06 29.1283 104.628 31.5196C104.359 33.0467 102.959 33.7544 101.149 33.7544C99.3384 33.7544 98.4594 32.7413 98.6232 31.5568H100.687C100.683 31.7627 100.784 31.9565 100.955 32.0708C101.127 32.1837 101.33 32.2409 101.536 32.2347C102.08 32.2347 102.46 32.0634 102.519 31.758C102.691 30.7597 98.7946 31.4451 99.2341 28.9346C99.4799 27.5341 100.806 26.8338 102.452 26.8338C104.277 26.8338 104.948 27.765 104.896 28.9122H102.855" fill="#00303C"/>
<path d="M107.637 33.6129L108.792 27.0349H111.399L111.831 31.1396L113.716 27.0349H116.316L115.161 33.6129H113.224L113.574 31.6015L113.783 30.5809L114.103 29.3964H114.088L112.144 33.6129H110.647L110.2 29.3964H110.177L110.103 30.3649L109.961 31.3855L109.574 33.6129H107.637Z" fill="#00303C"/>
<path d="M115.578 33.6129L116.741 27.0349H122.097L121.829 28.5696H118.625L118.461 29.5082H121.166L120.897 31.0428H118.186L118.007 32.0783H121.337L121.069 33.6129H115.578Z" fill="#00303C"/>
<path d="M121.434 33.6129L122.596 27.0349H125.479C127.594 27.0349 128.742 28.0257 128.354 30.1861C127.922 32.6593 126.373 33.6129 124.265 33.6129H121.434ZM123.862 32.0783H124.317C125.322 32.0783 125.963 31.5494 126.179 30.3053C126.425 28.9346 126.038 28.5696 124.89 28.5696H124.481L123.862 32.0783Z" fill="#00303C"/>
<path d="M128.086 33.6129L129.248 27.0349H131.401L130.247 33.6129H128.086Z" fill="#00303C"/>
<path d="M135.856 29.5454C135.919 29.2638 135.841 28.9692 135.647 28.7557C135.452 28.5423 135.166 28.4367 134.88 28.4727C134.135 28.4727 133.547 29.1208 133.323 30.3872C133.167 31.311 133.211 32.1751 134.307 32.1751C134.947 32.1554 135.489 31.6944 135.61 31.0651H137.681C137.253 32.7025 135.753 33.829 134.061 33.7842C131.885 33.7842 130.805 32.4508 131.185 30.3127C131.45 28.3624 133.098 26.8972 135.066 26.8636C137.078 26.8636 138.046 27.8544 137.905 29.5454H135.856Z" fill="#00303C"/>
<path d="M137.599 33.6129L138.761 27.0349H140.914L139.76 33.6129H137.599Z" fill="#00303C"/>
<path d="M145.071 30.6256L145.25 29.1283L145.622 27.0349H147.686L146.524 33.6129H144.505L142.792 30.0297L142.605 31.527L142.24 33.6129H140.177L141.339 27.0349H143.358L145.071 30.6256Z" fill="#00303C"/>
<path d="M146.933 33.6129L148.096 27.0349H153.452L153.184 28.5696H149.98L149.809 29.5082H152.528L152.252 31.0428H149.541L149.362 32.0783H152.692L152.424 33.6129H146.933Z" fill="#00303C"/>
<path d="M153.668 34.4696C153.685 33.8816 154.175 33.4184 154.763 33.4349C155.351 33.4514 155.814 33.9414 155.798 34.5294C155.781 35.1174 155.291 35.5809 154.703 35.5647C154.416 35.5648 154.14 35.4485 153.939 35.2422C153.739 35.0359 153.63 34.7572 153.638 34.4696H153.668ZM154.703 35.7807C155.425 35.7725 156.005 35.1819 156 34.4598C155.994 33.7376 155.406 33.1559 154.684 33.1585C153.961 33.1613 153.377 33.7474 153.377 34.4696C153.377 34.8199 153.517 35.1557 153.767 35.402C154.016 35.6483 154.353 35.7847 154.703 35.7807ZM154.42 34.5739H154.703L155.098 35.222H155.359L154.927 34.559C155.035 34.5612 155.139 34.5183 155.214 34.4405C155.289 34.3627 155.328 34.2571 155.322 34.1493C155.322 33.8513 155.143 33.7172 154.785 33.7172H154.212V35.2071H154.435L154.42 34.5739ZM154.42 34.3802V33.8811H154.733C154.897 33.8811 155.068 33.9183 155.068 34.1046C155.068 34.2908 154.89 34.3504 154.696 34.3504L154.42 34.3802Z" fill="#00303C"/>
<path d="M11.7624 45.0554L11.2558 44.6308L12.7904 42.828L14.0718 43.9082L13.7738 44.2583L12.9916 43.6028L12.634 44.02L13.3641 44.6308L13.0661 44.9884L12.3435 44.3701L11.7624 45.0554Z" fill="#00303C"/>
<path d="M13.7887 45.197C14.1612 44.6378 14.9154 44.4843 15.4768 44.8535C16.0382 45.2227 16.1961 45.976 15.8302 46.5396C15.4643 47.1031 14.712 47.2655 14.1463 46.9029C13.8462 46.7475 13.6319 46.4655 13.5626 46.1348C13.4933 45.8041 13.5763 45.4598 13.7887 45.197ZM15.2413 45.197C14.8614 44.9511 14.5634 45.2491 14.3623 45.562C14.1612 45.8749 14.0271 46.2474 14.3995 46.4932C14.772 46.739 15.0775 46.4411 15.2637 46.1431C15.4499 45.8451 15.6138 45.4577 15.2413 45.2193V45.197Z" fill="#00303C"/>
<path d="M19.0704 46.7465L18.4521 48.1172C18.169 48.7132 17.5805 48.7281 17.0367 48.4822C16.4929 48.2364 16.1204 47.782 16.3886 47.1786L17.0069 45.8004L17.6028 46.0686L16.9994 47.402C16.9109 47.5588 16.9183 47.7521 17.0185 47.9017C17.1187 48.0513 17.2946 48.1317 17.4733 48.1096C17.652 48.0874 17.803 47.9664 17.8636 47.7969L18.4744 46.4634L19.0704 46.7316" fill="#00303C"/>
<path d="M19.6887 46.9849L20.5678 47.2382L20.8434 49.1527L20.8508 49.1452L21.3425 47.4542L21.9087 47.6181L21.2531 49.8976L20.3741 49.6444L20.1059 47.6777H20.0984L19.5993 49.4209L19.0332 49.257L19.6887 46.9849Z" fill="#00303C"/>
<path d="M23.5252 47.8863C24.3372 47.9906 24.8214 48.3705 24.7097 49.2346C24.598 50.0988 24.0169 50.3446 23.2198 50.2329L22.229 50.0988L22.5419 47.7522L23.5327 47.8863H23.5252ZM22.9367 49.7337H23.2496C23.593 49.698 23.8668 49.4309 23.9112 49.0885C23.9555 48.7461 23.7588 48.4181 23.4358 48.296L23.1304 48.2587L22.9367 49.7337Z" fill="#00303C"/>
<path d="M25.4845 50.4489V48.08H27.2947V48.5418H26.14V49.0335H27.1978V49.4879H26.14V49.987H27.2947V50.4489H25.4845Z" fill="#00303C"/>
<path d="M28.8889 47.9235C29.7009 47.8118 30.2671 48.0502 30.3788 48.9218C30.4905 49.7933 30.0063 50.1658 29.1943 50.2701L28.2035 50.4042L27.8981 48.0353L28.8889 47.9012V47.9235ZM28.8069 49.8604H29.1124C29.3034 49.8412 29.4774 49.7418 29.591 49.587C29.7047 49.4322 29.7473 49.2364 29.7083 49.0484C29.6983 48.8573 29.6071 48.6796 29.4576 48.56C29.3082 48.4405 29.1148 48.3905 28.9261 48.4226H28.6207L28.8069 49.8604Z" fill="#00303C"/>
<path d="M33.4778 46.8955L34.2228 49.0335L33.6342 49.2421L33.083 47.6553C32.9565 47.8204 32.8115 47.9703 32.6509 48.1023L32.487 47.6255C32.6891 47.4746 32.8588 47.2846 32.9861 47.0668L33.4778 46.8955Z" fill="#00303C"/>
<path d="M35.6754 47.7894C35.7057 47.8481 35.7658 47.8853 35.8319 47.8863C35.9017 47.8902 35.9713 47.8747 36.033 47.8416C36.3906 47.6628 36.2192 47.335 36.1 47.0966C36.0462 47.2988 35.9038 47.4658 35.7127 47.551C35.5382 47.6487 35.3318 47.6722 35.1399 47.6162C34.9479 47.5601 34.7866 47.4293 34.6921 47.2531C34.4462 46.7614 34.7666 46.3442 35.2135 46.1207C35.9585 45.7631 36.4129 46.225 36.7035 46.8657C36.8143 47.1321 36.8378 47.4269 36.7705 47.7075C36.684 47.9771 36.4778 48.1916 36.2118 48.2885C35.8542 48.4673 35.37 48.5344 35.1465 48.1098L35.6903 47.8416L35.6754 47.7894ZM35.3998 46.523C35.313 46.5582 35.2454 46.6289 35.2141 46.7171C35.1828 46.8054 35.1907 46.9028 35.2359 46.9849C35.2702 47.0743 35.3428 47.1436 35.4336 47.1739C35.5245 47.2042 35.6241 47.1922 35.7052 47.1413C35.7894 47.1011 35.8541 47.0289 35.8849 46.9408C35.9157 46.8527 35.91 46.7559 35.8691 46.672C35.8436 46.5721 35.7725 46.49 35.6773 46.4504C35.582 46.4108 35.4737 46.4184 35.3849 46.4709L35.3998 46.523Z" fill="#00303C"/>
<path d="M37.9922 46.4411C38.03 46.5067 38.0945 46.5526 38.1689 46.5669C38.2432 46.5812 38.3201 46.5625 38.3796 46.5156C38.5658 46.3889 38.5211 46.1729 38.3796 46.009C38.3426 45.9255 38.2703 45.8629 38.1823 45.8384C38.0943 45.8138 38 45.83 37.9252 45.8823C37.8219 45.9462 37.7807 46.076 37.8283 46.1878L37.2994 46.5304L36.6066 45.3832L37.9848 44.4893L38.2157 44.8469L37.3218 45.4279L37.5974 45.927C37.5883 45.7065 37.7033 45.4994 37.8954 45.3907C38.0586 45.2815 38.2605 45.2467 38.4509 45.295C38.6412 45.3433 38.8022 45.4702 38.8936 45.644C39.0344 45.83 39.0866 46.0684 39.0365 46.2963C38.9863 46.5242 38.8388 46.7187 38.6329 46.8284C38.2306 47.0892 37.7464 47.2605 37.4186 46.7837L37.9475 46.4411" fill="#00303C"/>
<path d="M39.4225 45.2119L39.2363 43.5208L39.8099 43.0366L40.7262 44.1168L40.9944 43.8933L41.27 44.2211L41.0018 44.4446L41.2849 44.7724L40.8007 45.1821L40.5176 44.8469L39.6907 45.5397L39.4151 45.2119H39.4225ZM40.2494 44.5116L39.7131 43.871L39.8472 44.8618L40.2494 44.5116Z" fill="#00303C"/>
<path d="M9.60205 38.9841L7.08411 39.3342L6.68928 38.6339L8.29093 36.6598L8.65596 37.3005L8.32818 37.6655L8.80495 38.4999L9.28172 38.4105L9.60205 38.9841ZM8.00785 38.0305L7.30014 38.7755L8.31328 38.5669L8.00785 38.0305Z" fill="#00303C"/>
<path d="M8.08234 36.2277L5.85493 37.0472L5.49736 36.0713L6.86807 35.155V35.1476L5.23662 35.3487L4.87904 34.3877L7.10646 33.5757L7.30759 34.1121L5.44521 34.7974L5.43776 34.8049L7.50128 34.641L7.70242 35.1923L5.99647 36.3767H6.00392L7.88121 35.6914L8.08234 36.2277Z" fill="#00303C"/>
<path d="M6.95002 32.8829L4.62576 33.3597L4.26818 31.5867L4.71516 31.4973L4.94609 32.6222L5.43031 32.5253L5.21427 31.4898L5.6687 31.393L5.87728 32.4285L6.36895 32.3316L6.13802 31.2068L6.59244 31.1174L6.95002 32.8829Z" fill="#00303C"/>
<path d="M6.45835 29.8435L6.51049 30.4916L4.14899 30.6704L4.06705 29.5753C4.06705 29.1805 4.10429 28.6516 4.60341 28.6218C4.76079 28.6116 4.91567 28.665 5.03331 28.7701C5.15095 28.8751 5.22152 29.023 5.22917 29.1805C5.22917 28.7633 5.41541 28.6665 5.78044 28.5994C5.97107 28.568 6.15819 28.5181 6.33915 28.4504L6.3913 29.1581C6.23486 29.2028 6.06352 29.2401 5.89963 29.2699C5.61655 29.3146 5.49736 29.3369 5.52715 29.6722V29.9105L6.45835 29.8435ZM5.08018 29.6871C5.08018 29.4785 5.02059 29.2773 4.77475 29.2922C4.52892 29.3071 4.52147 29.5157 4.53637 29.7318V29.985L5.08018 29.9403V29.6871Z" fill="#00303C"/>
<path d="M6.36895 27.8396L4 27.78L4.0149 27.1244L6.38385 27.184L6.36895 27.8396Z" fill="#00303C"/>
<path d="M4.96844 24.7704C4.7524 24.7704 4.61086 24.9045 4.58106 25.1726C4.55127 25.4408 4.96099 25.6718 5.32602 25.7165C5.69104 25.7612 6.07097 25.7165 6.13057 25.3663C6.19016 25.0162 6.06352 24.9268 5.84003 24.8821L5.92943 24.1968C6.52539 24.2638 6.67438 24.8598 6.58499 25.4259C6.58033 25.7599 6.41929 26.0724 6.14998 26.27C5.88067 26.4676 5.53427 26.5274 5.21427 26.4316C4.88775 26.4436 4.57399 26.3041 4.36424 26.0536C4.15449 25.803 4.07229 25.4696 4.14154 25.1503C4.20859 24.5841 4.47677 24.0403 5.07273 24.1223L4.98334 24.8076" fill="#00303C"/>
<path d="M6.74888 23.8839L4.7226 22.3493L4.93864 21.6043L7.47148 21.3436L7.27034 22.0885H6.78613L6.52539 23.0197L6.92767 23.2954L6.74888 23.9211V23.8839ZM6.29446 22.1258H5.26642L6.12312 22.7068L6.29446 22.1258Z" fill="#00303C"/>
<path d="M5.48991 19.8909L5.86238 19.0566H7.79926V19.0417L6.19761 18.3265L6.436 17.7827L8.59636 18.7586L8.22389 19.5855L6.23486 19.578L7.88866 20.323L7.65027 20.8668L5.48991 19.8909Z" fill="#00303C"/>
<path d="M9.23702 14.8103C9.05823 14.6986 8.86455 14.7507 8.70066 14.9668C8.53677 15.1828 8.79005 15.5925 9.08058 15.8011C9.37111 16.0097 9.72869 16.1885 9.94473 15.8905C10.1608 15.5925 10.1086 15.4659 9.94473 15.3244L10.3545 14.7731C10.8461 15.1158 10.6748 15.7043 10.3545 16.1662C10.178 16.4409 9.88614 16.6203 9.56136 16.6537C9.23659 16.687 8.91431 16.5706 8.68576 16.3375C8.39563 16.1888 8.19026 15.9147 8.12913 15.5944C8.06799 15.2742 8.15792 14.9437 8.37288 14.6986C8.70811 14.2367 9.20722 13.894 9.68399 14.2516L9.27427 14.8103" fill="#00303C"/>
<path d="M10.4438 13.9834C10.182 13.7698 10.0301 13.4498 10.0301 13.1118C10.0301 12.7739 10.182 12.4539 10.4438 12.2402C10.6545 11.9761 10.9739 11.8223 11.3117 11.8223C11.6495 11.8223 11.969 11.9761 12.1796 12.2402C12.5196 12.5427 12.6648 13.0082 12.5569 13.4503C12.449 13.8923 12.1056 14.2386 11.6645 14.3503C11.2234 14.462 10.7566 14.3209 10.4513 13.9834H10.4438ZM10.7716 12.568C10.4513 12.8809 10.6822 13.2385 10.943 13.4992C11.2037 13.76 11.5538 13.976 11.8667 13.6557C12.1796 13.3353 11.9561 12.9778 11.7028 12.7319C11.4495 12.4861 11.0771 12.2775 10.7642 12.568H10.7716Z" fill="#00303C"/>
<path d="M13.4907 12.6947L12.038 10.8248L12.5521 10.4226L13.7216 11.9274L14.5709 11.2718L14.854 11.6294L13.4907 12.6947Z" fill="#00303C"/>
<path d="M15.3009 11.3314L14.0718 9.31258L14.6305 8.9699L15.6213 10.5939L16.545 10.0426L16.7834 10.43L15.3009 11.3314Z" fill="#00303C"/>
<path d="M17.2602 10.1842L16.2768 8.03126L17.9232 7.27886L18.1094 7.69603L17.0665 8.1728L17.2676 8.61978L18.2286 8.18025L18.4223 8.59743L17.4613 9.03695L17.6699 9.49137L18.7128 9.0146L18.8991 9.43177L17.2602 10.1842Z" fill="#00303C"/>
<path d="M20.8061 7.87482L20.3443 8.00891L20.2102 7.56939L21.2978 7.24161L21.6628 8.45589C21.3104 8.65102 20.9384 8.80833 20.5529 8.92521C20.2445 9.03044 19.906 8.99962 19.6218 8.84044C19.3375 8.68125 19.1343 8.40873 19.063 8.09086C18.9444 7.78219 18.9648 7.43738 19.1189 7.14484C19.2731 6.85231 19.5459 6.64049 19.8675 6.5637C20.4113 6.38492 21.0147 6.28807 21.2233 6.94363L20.5976 7.13732C20.5007 6.92873 20.307 6.91383 20.0984 6.97343C19.6738 7.10007 19.6366 7.52469 19.7483 7.88972C19.7765 8.09014 19.8937 8.2671 20.0673 8.37124C20.2408 8.47537 20.4521 8.49553 20.6423 8.42609C20.7524 8.38997 20.8595 8.34513 20.9626 8.292L20.8359 7.87482" fill="#00303C"/>
<path d="M22.3631 8.40374L21.9906 6.05714L23.7785 5.77405L23.8456 6.22848L22.7132 6.40726L22.7877 6.89148L23.8307 6.72759L23.9052 7.18202L22.8622 7.34591L22.9367 7.84502L24.069 7.66623L24.1435 8.12066L22.3631 8.40374Z" fill="#00303C"/>
<path d="M26.1549 6.80209C26.1469 6.34447 26.3937 5.92027 26.7956 5.70121C27.1974 5.48215 27.6877 5.5045 28.068 5.75922C28.4482 6.01395 28.6555 6.45885 28.6058 6.91383C28.6139 7.37145 28.367 7.79565 27.9651 8.01471C27.5633 8.23377 27.073 8.21142 26.6927 7.9567C26.3125 7.70198 26.1052 7.25707 26.1549 6.80209ZM27.4139 6.05714C26.9744 6.05714 26.8626 6.44451 26.8403 6.80209C26.8179 7.15967 26.8999 7.54704 27.3468 7.59174C27.7938 7.63644 27.8981 7.20436 27.913 6.84679C27.9279 6.48921 27.8609 6.10928 27.4139 6.08693V6.05714Z" fill="#00303C"/>
<path d="M29.8126 8.31434L29.1645 8.2026L29.5817 5.8709L31.2355 6.16888L31.1535 6.61585L30.1479 6.43706L30.051 6.98088L30.9822 7.14477L30.9003 7.59919L29.9691 7.4353L29.8126 8.31434Z" fill="#00303C"/>
<path d="M34.4909 7.91952C34.528 7.84964 34.528 7.76591 34.4909 7.69603C34.4439 7.61766 34.3696 7.55932 34.2824 7.53214C34.1607 7.47127 34.0127 7.51731 33.9471 7.63644C33.8801 7.79288 34.0589 7.91952 34.2004 8.03126C34.5356 8.26965 35.0571 8.51548 34.8262 9.11144C34.6474 9.57332 34.0812 9.61801 33.5895 9.41688C33.0979 9.21574 32.6807 8.89541 32.9042 8.292L33.5225 8.53038C33.4331 8.73152 33.5225 8.91031 33.7683 8.99225C34.0142 9.0742 34.111 9.0444 34.1706 8.89541C34.2898 8.59743 33.813 8.48568 33.4257 8.09086C33.249 7.91498 33.1987 7.64859 33.299 7.4204C33.53 6.90638 34.044 6.94363 34.5058 7.12242C34.9677 7.30121 35.37 7.64389 35.1241 8.1579L34.5133 7.91952" fill="#00303C"/>
<path d="M35.139 10.0426L36.2565 7.94932L37.21 8.47078C37.7166 8.75387 37.955 9.09655 37.6868 9.60311C37.4186 10.1097 36.9865 10.0873 36.4725 9.80425L36.1 9.59566L35.6903 10.3406L35.139 10.0426ZM36.629 9.37963C36.8599 9.49882 37.0163 9.44667 37.0983 9.29768C37.1802 9.14869 37.143 8.9848 36.9195 8.85071L36.6215 8.68682L36.331 9.21574L36.629 9.37963Z" fill="#00303C"/>
<path d="M38.0444 10.3108C38.3105 9.95951 38.7439 9.77687 39.1812 9.8317C39.6185 9.88653 39.9933 10.1705 40.1645 10.5767C40.3357 10.9828 40.2772 11.4494 40.011 11.8007C39.7449 12.152 39.3115 12.3347 38.8742 12.2798C38.4369 12.225 38.0621 11.941 37.8909 11.5349C37.7197 11.1287 37.7782 10.6621 38.0444 10.3108ZM39.5343 10.4226C39.1767 10.1618 38.8564 10.4226 38.6329 10.728C38.4094 11.0334 38.2455 11.3985 38.6329 11.6666C39.0203 11.9348 39.3108 11.6666 39.5194 11.3761C39.728 11.0856 39.8546 10.6907 39.497 10.4226H39.5343Z" fill="#00303C"/>
<path d="M40.2122 13.5961L39.7429 13.1342L41.4116 11.4506L42.1565 12.1956C42.4396 12.4786 42.7301 12.9405 42.38 13.2757C42.1474 13.5078 41.7708 13.5078 41.5382 13.2757C41.8287 13.5737 41.7319 13.7823 41.5382 14.0728C41.4113 14.2216 41.3014 14.384 41.2104 14.5571L40.7262 14.0877C40.8156 13.9462 40.9199 13.8121 41.0242 13.678C41.1285 13.5439 41.2849 13.3651 41.0242 13.1267L40.8454 12.9554L40.2122 13.5961ZM41.3594 12.8064C41.501 12.9554 41.6723 13.082 41.8436 12.9033C42.015 12.7245 41.8883 12.568 41.7393 12.419L41.5605 12.2775L41.1732 12.6649L41.3594 12.8064Z" fill="#00303C"/>
<path d="M43.408 14.274L42.9685 13.7004L43.3261 13.4173L44.6372 15.0934L44.2722 15.3691L43.8178 14.788L42.313 15.965L41.9032 15.451L43.408 14.274Z" fill="#00303C"/>
<path d="M45.1363 17.2091C45.2092 17.1753 45.2617 17.109 45.2779 17.0303C45.2859 16.9291 45.2568 16.8285 45.1959 16.7472C45.1214 16.6206 44.965 16.5535 44.8681 16.6206C44.7713 16.6876 44.7787 16.9111 44.8234 17.0899C44.9352 17.4847 45.2034 17.9987 44.6521 18.3265C44.22 18.5798 43.7656 18.2744 43.49 17.8051C43.2143 17.3357 43.0951 16.8366 43.6464 16.4939L43.9816 17.0601C43.894 17.1098 43.8327 17.1956 43.8141 17.2947C43.7954 17.3937 43.8213 17.4959 43.8848 17.5741C43.9593 17.7082 44.1306 17.8348 44.2647 17.7529C44.5404 17.589 44.2647 17.2091 44.1679 16.6504C44.1314 16.4029 44.2574 16.1598 44.4808 16.047C44.9724 15.7788 45.3598 16.1215 45.6131 16.5535C45.8664 16.9856 45.9707 17.4922 45.4567 17.7455L45.1214 17.1867" fill="#00303C"/>
<path d="M44.9277 20.4794L47.1849 19.7494L47.5053 20.7402L46.0973 21.6043V21.6118L47.7437 21.4702L48.0565 22.4387L45.7993 23.1687L45.628 22.6249L47.5127 22.014V22.0066L45.4492 22.096L45.2704 21.5298L47.0136 20.4198L47.0062 20.4124L45.1065 21.0232L44.9277 20.4794Z" fill="#00303C"/>
<path d="M45.926 23.869L48.2651 23.4816L48.5631 25.262L48.1087 25.3365L47.9224 24.2042L47.4382 24.2861L47.6096 25.3291L47.1551 25.4036L46.9838 24.3606L46.4921 24.4426L46.6784 25.5749L46.224 25.6494L45.926 23.869Z" fill="#00303C"/>
<path d="M48.6972 27.1766C48.6972 27.9886 48.429 28.5324 47.55 28.5547C46.6709 28.5771 46.3506 28.0556 46.3282 27.2436V26.2454L48.6972 26.1709V27.1766ZM46.7752 26.886V27.1915C46.8492 27.538 47.157 27.7845 47.5114 27.7809C47.8657 27.7773 48.1684 27.5245 48.2353 27.1766V26.8637L46.7752 26.886Z" fill="#00303C"/>
<path d="M46.3059 29.2773L48.6674 29.4561L48.6153 30.1117L46.2538 29.9254L46.3059 29.2773Z" fill="#00303C"/>
<path d="M47.5202 32.3912C47.7362 32.3912 47.8852 32.272 47.9299 32.0113C47.9969 31.6388 47.5798 31.4898 47.2296 31.4228C46.8795 31.3558 46.4847 31.3632 46.4102 31.7282C46.3357 32.0933 46.4474 32.1752 46.6709 32.2273L46.5443 32.9053C45.9558 32.8084 45.8515 32.2124 45.9558 31.6463C46.1106 31.0088 46.7362 30.6032 47.3813 30.7219C48.0264 30.8406 48.4666 31.4425 48.3843 32.0933C48.28 32.6594 47.982 33.1883 47.3935 33.0691L47.5202 32.3912Z" fill="#00303C"/>
<path d="M45.6056 33.3895L47.8778 34.0599L47.6915 34.6931L45.4194 34.0152L45.6056 33.3895Z" fill="#00303C"/>
<path d="M47.4084 35.6094L47.0583 36.4512L45.1214 36.5034L45.1289 36.5108L46.7454 37.1887L46.5145 37.7326L44.3318 36.8163L44.6894 35.9819L46.6709 35.9447V35.9372L45.0022 35.2295L45.2257 34.6857L47.4084 35.6094Z" fill="#00303C"/>
<path d="M44.004 37.4197L46.0452 38.6265L45.1289 40.1834L44.734 39.9451L45.3151 38.9543L44.8979 38.7084L44.3541 39.6173L43.9593 39.3863L44.5031 38.4775L44.071 38.2168L43.4825 39.2076L43.0877 38.9766L44.004 37.4197Z" fill="#00303C"/>
<path d="M9.95963 42.2395C9.65517 42.2395 9.40836 41.9927 9.40836 41.6883C9.40836 41.3838 9.65517 41.137 9.95963 41.137C10.1566 41.137 10.3386 41.2421 10.437 41.4126C10.5355 41.5832 10.5355 41.7933 10.437 41.9639C10.3386 42.1344 10.1566 42.2395 9.95963 42.2395Z" fill="#00303C"/>
<path d="M42.2534 42.2395C41.9489 42.2395 41.7021 41.9927 41.7021 41.6883C41.7021 41.3838 41.9489 41.137 42.2534 41.137C42.4503 41.137 42.6323 41.2421 42.7308 41.4126C42.8292 41.5832 42.8292 41.7933 42.7308 41.9639C42.6323 42.1344 42.4503 42.2395 42.2534 42.2395Z" fill="#00303C"/>
<path d="M45.2928 46.5453C45.305 46.1082 45.6671 45.7626 46.1043 45.7707C46.5415 45.7789 46.8906 46.1377 46.8866 46.5749C46.8826 47.0122 46.5271 47.3646 46.0899 47.3648C45.8745 47.3649 45.6683 47.2778 45.5182 47.1235C45.368 46.9691 45.2867 46.7606 45.2928 46.5453ZM46.0899 47.5287C46.6309 47.5205 47.0637 47.0767 47.0583 46.5356C47.0528 45.9945 46.6112 45.5594 46.0701 45.5621C45.5289 45.5648 45.0917 46.0042 45.0916 46.5453C45.0975 46.8042 45.206 47.0501 45.3932 47.2289C45.5804 47.4078 45.831 47.5049 46.0899 47.4989V47.5287ZM45.8813 46.6198H46.075L46.3804 47.1115H46.5666L46.2463 46.6124C46.328 46.6125 46.4061 46.5791 46.4625 46.5199C46.5188 46.4608 46.5484 46.3811 46.5443 46.2995C46.5443 46.076 46.4102 45.9792 46.142 45.9792H45.7099V47.1115H45.8813V46.6198ZM45.8813 46.4783V46.0984H46.1122C46.2314 46.0984 46.3655 46.0984 46.3655 46.2623C46.3655 46.4262 46.2314 46.4485 46.0824 46.4485L45.8813 46.4783Z" fill="#00303C"/>
<path fill-rule="evenodd" clip-rule="evenodd" d="M22.5121 25.262H22.5568C22.6906 25.2509 22.8252 25.2509 22.9591 25.262C23.0692 25.2691 23.1788 25.284 23.2868 25.3067H23.339C23.3426 25.2845 23.3426 25.2619 23.339 25.2397C23.3166 25.0641 23.3166 24.8864 23.339 24.7108C23.375 24.4649 23.4612 24.2291 23.5923 24.018L23.7115 23.8615H23.6444C23.5104 23.8641 23.3769 23.844 23.2496 23.8019H23.1974C23.0919 23.7672 23.0004 23.6993 22.9367 23.6082H22.892C22.656 23.7188 22.405 23.7941 22.1471 23.8317C21.9459 23.8712 21.7411 23.8887 21.5362 23.8839C21.4278 23.8782 21.3204 23.8607 21.2159 23.8317C21.1465 23.81 21.0811 23.7773 21.0222 23.7349C20.9259 23.6681 20.8592 23.5666 20.8359 23.4518H20.7912C20.6315 23.5088 20.467 23.5512 20.2996 23.5784C20.1564 23.6009 20.0107 23.6009 19.8675 23.5784C19.7296 23.565 19.5942 23.5324 19.4652 23.4816L19.3013 23.3848C19.205 23.3284 19.1333 23.238 19.1002 23.1315H19.0332C18.8224 23.227 18.6028 23.3018 18.3776 23.355L17.9753 23.422C17.8687 23.4294 17.7616 23.4294 17.655 23.422C17.4757 23.4548 17.293 23.4648 17.1112 23.4518C17.0362 23.4297 16.9638 23.3998 16.8951 23.3624C16.8451 23.3414 16.7996 23.3111 16.7611 23.273C16.6909 23.2203 16.643 23.1432 16.627 23.057L16.3811 23.0942C16.2126 23.1091 16.0431 23.1091 15.8746 23.0942C15.7439 23.0857 15.6143 23.0658 15.4872 23.0346C15.3766 23.006 15.2692 22.9661 15.1669 22.9154C15.1069 22.88 15.0496 22.8402 14.9955 22.7962C14.9433 22.7539 14.898 22.7036 14.8614 22.6472C14.8203 22.5825 14.7971 22.5079 14.7944 22.4312V22.3865H14.4368C14.2991 22.3676 14.1641 22.3326 14.0345 22.2822C13.975 22.2544 13.9177 22.222 13.8632 22.1854C13.8019 22.1402 13.749 22.0848 13.7067 22.0215C13.6477 21.9446 13.6162 21.8502 13.6173 21.7533C13.6132 21.7362 13.6132 21.7183 13.6173 21.7012H13.5727C13.4046 21.6809 13.2396 21.6409 13.081 21.582C12.9847 21.5438 12.8924 21.4964 12.8053 21.4404C12.7401 21.3949 12.6778 21.3451 12.6191 21.2914C12.582 21.2505 12.5495 21.2055 12.5223 21.1573C12.4835 21.0974 12.4629 21.0276 12.4627 20.9562V20.9041H12.3733C12.279 20.8608 12.1891 20.8084 12.1051 20.7476C12.0481 20.703 11.9979 20.6503 11.9561 20.5912C11.9561 20.5912 11.9189 20.5316 11.904 20.4943C11.8803 20.4509 11.8675 20.4023 11.8667 20.3528C11.8667 20.3155 11.8667 20.3155 11.8295 20.3006H11.7699C11.6801 20.2638 11.595 20.2162 11.5166 20.1591C11.4319 20.0942 11.361 20.0132 11.308 19.9207C11.2653 19.8399 11.2399 19.7511 11.2335 19.66C11.2229 19.6059 11.2229 19.5502 11.2335 19.4961C11.2463 19.4643 11.2668 19.4362 11.2931 19.4141C11.3415 19.3498 11.4235 19.3205 11.5017 19.3397L11.8518 19.3844L12.2541 19.429H14.5485C14.7273 19.429 14.8987 19.429 15.07 19.429H16.3662L16.7983 19.3844L17.141 19.3397L17.4539 19.295L17.7071 18.9821L18.0051 18.9299L18.3702 18.8778L18.7203 18.8182L19.1524 18.7362L19.6589 18.6394L20.2176 18.5277L20.9179 18.3787L21.9385 18.1477L22.229 18.0956C22.36 18.077 22.4929 18.077 22.6238 18.0956C22.6923 18.1033 22.7597 18.1183 22.825 18.1403C23.0158 18.198 23.1797 18.3223 23.2868 18.4904C23.4077 18.6536 23.4359 18.8676 23.3613 19.0566C23.3255 19.1332 23.2777 19.2036 23.2198 19.2652L23.1528 19.3322C23.0706 19.4045 23.0361 19.5168 23.0634 19.6227C23.0821 19.7121 23.1291 19.7931 23.1974 19.8537L23.3166 19.958C23.4868 20.0759 23.6796 20.1571 23.8828 20.1964C24.0056 20.2198 24.1303 20.2323 24.2553 20.2336C24.588 20.2239 24.9131 20.1317 25.2014 19.9654C25.2865 19.9195 25.3664 19.8645 25.4398 19.8015L25.4994 19.727V17.6412C25.4956 17.5841 25.4956 17.5269 25.4994 17.4698V17.4102L25.4472 17.373C25.3417 17.2835 25.2931 17.1436 25.3206 17.0079C25.3321 16.929 25.3687 16.8559 25.4249 16.7994C25.4567 16.7728 25.4917 16.7502 25.5292 16.7323V16.6727C25.53 16.4773 25.6076 16.29 25.7452 16.1513C25.7452 16.1513 25.7899 16.114 25.8048 16.0842C25.7683 16.0538 25.7335 16.0215 25.7005 15.9874C25.5826 15.8763 25.5042 15.7298 25.477 15.5702C25.4022 15.1701 25.6298 14.7751 26.0134 14.639C26.4371 14.496 26.8967 14.7224 27.0414 15.1456C27.1286 15.4605 27.0203 15.7972 26.7658 16.0023H26.7211C26.8963 16.1731 26.9979 16.4057 27.0042 16.6504C27.0042 16.6504 27.0042 16.6504 27.0489 16.6504C27.1529 16.7031 27.2189 16.8094 27.2202 16.926C27.2284 17.033 27.1966 17.1392 27.1308 17.224C27.1308 17.4102 27.1308 17.589 27.1308 17.7753C27.1308 17.9615 27.1308 18.0956 27.1308 18.2595C27.1308 18.5947 27.1308 18.9299 27.1308 19.2652V19.5333C27.1251 19.5699 27.1393 19.6068 27.168 19.6302C27.2279 19.6857 27.2928 19.7355 27.3617 19.7792C27.5185 19.8836 27.6925 19.9593 27.8758 20.0027C28.0877 20.0681 28.3101 20.0934 28.5313 20.0772C28.8323 20.0589 29.1206 19.9498 29.3582 19.7643C29.3914 19.7409 29.4215 19.7134 29.4476 19.6823C29.5115 19.6174 29.5532 19.534 29.5668 19.4439C29.5802 19.35 29.5468 19.2554 29.4774 19.1907L29.4104 19.1311C29.3573 19.0727 29.3122 19.0076 29.2763 18.9374C29.2093 18.7881 29.2093 18.6173 29.2763 18.4681C29.3182 18.3703 29.379 18.2817 29.4551 18.2073C29.5688 18.0954 29.7102 18.0158 29.8648 17.9764H30.051C30.1897 17.9616 30.3295 17.9616 30.4682 17.9764C30.6544 17.9764 30.8332 18.0509 31.0195 18.0956L32.0102 18.3191L32.7924 18.483L33.4629 18.6096L33.9844 18.7064L34.4388 18.7884L34.7666 18.9821L35.1688 19.0417L35.4817 19.0864L35.817 19.1311H36.1969L36.6141 19.1758H37.955C38.3721 19.1758 38.7893 19.1758 39.2065 19.1758H40.093C40.1973 19.1758 40.2941 19.1758 40.3984 19.1758H41.0912C41.1331 19.1684 41.176 19.1684 41.2179 19.1758C41.2708 19.195 41.3155 19.2318 41.3445 19.2801C41.3738 19.3274 41.3917 19.381 41.3967 19.4365C41.4113 19.5078 41.4113 19.5813 41.3967 19.6525C41.3586 19.7506 41.3002 19.8394 41.2253 19.9133C41.1347 20.0067 41.0256 20.0803 40.905 20.1293L40.7932 20.1666V20.2038C40.7898 20.2976 40.7587 20.3883 40.7039 20.4645C40.6638 20.5295 40.6105 20.5854 40.5474 20.6284C40.4669 20.6945 40.3764 20.7474 40.2792 20.7849H40.2122C40.2091 20.8672 40.1833 20.9472 40.1377 21.0158C40.092 21.0899 40.0311 21.1534 39.9589 21.202C39.8884 21.2611 39.8108 21.3111 39.728 21.351C39.572 21.4254 39.4066 21.478 39.2363 21.5075H39.1022V21.5522C39.0948 21.6304 39.072 21.7063 39.0352 21.7757C38.9957 21.8453 38.9425 21.9061 38.8787 21.9544C38.8013 22.0174 38.7129 22.0654 38.618 22.096C38.5085 22.1392 38.3928 22.1643 38.2753 22.1705C38.1688 22.1816 38.0615 22.1816 37.955 22.1705H37.9103C37.9121 22.2956 37.8638 22.4163 37.7762 22.5057C37.7216 22.5611 37.6617 22.611 37.5974 22.6547C37.4814 22.7227 37.3558 22.7729 37.2249 22.8037C37.1113 22.8386 36.9936 22.8586 36.8748 22.8633C36.7162 22.8782 36.5566 22.8782 36.398 22.8633C36.2977 22.8562 36.198 22.8413 36.1 22.8186C36.0834 22.8116 36.0646 22.8116 36.0479 22.8186C36.0479 22.8186 36.0479 22.8186 36.0479 22.8633C36.0321 22.9261 35.9985 22.983 35.951 23.0272C35.9121 23.0635 35.8697 23.096 35.8244 23.124C35.7355 23.1757 35.6404 23.2158 35.5413 23.2432C35.3544 23.2929 35.1609 23.313 34.9677 23.3028C34.5279 23.2793 34.0973 23.1679 33.7013 22.975H33.6417C33.6267 23.1928 33.483 23.3805 33.2767 23.4518C33.2321 23.4835 33.1847 23.5109 33.1351 23.5337C33.0336 23.583 32.9258 23.618 32.8148 23.638C32.6716 23.6604 32.5259 23.6604 32.3827 23.638C32.2773 23.6279 32.1728 23.6105 32.0698 23.5859L31.7868 23.4518H31.7421C31.7125 23.5296 31.6606 23.5969 31.5931 23.6455C31.5304 23.6986 31.4566 23.7368 31.377 23.7572C31.2723 23.7855 31.165 23.8029 31.0567 23.8094H30.7736L30.4607 23.7647C30.2034 23.7285 29.9525 23.6558 29.7158 23.5486C29.6961 23.5446 29.6759 23.5446 29.6562 23.5486C29.6067 23.6266 29.5336 23.6866 29.4476 23.72C29.3659 23.7617 29.2778 23.7894 29.1869 23.8019C29.0487 23.8242 28.9079 23.8242 28.7697 23.8019C28.9455 24.0179 29.0657 24.2737 29.1198 24.5469C29.1645 24.7245 29.1796 24.9082 29.1645 25.0907C29.1293 25.5246 28.9229 25.9266 28.5909 26.2081L28.4941 26.2826L28.4121 26.3273C28.5686 26.4912 28.7325 26.6551 28.9038 26.8041L29.0528 26.9233C29.1197 26.9694 29.182 27.0218 29.239 27.0797C29.3412 27.1768 29.4597 27.255 29.5891 27.3107L29.6562 27.2436C29.7727 27.1233 29.9155 27.0315 30.0734 26.9754C30.1922 26.9367 30.3144 26.9093 30.4384 26.8935H30.6693C30.8155 26.8786 30.9627 26.8786 31.1089 26.8935C31.2475 26.9117 31.3829 26.9493 31.5111 27.0052C31.5608 27.0281 31.6081 27.0555 31.6527 27.0872C31.9109 27.2627 32.0943 27.5284 32.1667 27.8321C32.1817 27.9234 32.1817 28.0165 32.1667 28.1078C32.1476 28.2841 32.0971 28.4557 32.0177 28.6143C31.9899 28.6738 31.9575 28.7311 31.9209 28.7857L31.8091 28.8974C31.675 28.998 31.533 29.0877 31.3845 29.1656L31.2355 29.2326C31.2084 29.237 31.1807 29.237 31.1535 29.2326L30.8407 29.3146L30.5054 29.404C30.4237 29.4114 30.3414 29.4114 30.2596 29.404H30.2075V29.4561C30.2548 29.5522 30.2947 29.6518 30.3267 29.7541C30.3799 29.911 30.4149 30.0735 30.4309 30.2383C30.4385 30.3375 30.4385 30.4371 30.4309 30.5363C30.432 30.6697 30.4144 30.8026 30.3788 30.9311C30.3437 31.082 30.2777 31.2241 30.1851 31.3483C30.1042 31.448 30.048 31.5654 30.0212 31.691C30.01 31.7651 30.01 31.8404 30.0212 31.9145V32.1529C30.0324 32.2967 30.0324 32.4411 30.0212 32.5849C30.0285 32.6518 30.0285 32.7192 30.0212 32.7861C30.0212 32.9649 29.9691 33.1362 29.9467 33.315L29.902 33.7173C29.902 33.829 29.902 33.9407 29.902 34.0599C29.9056 34.193 29.8905 34.3259 29.8573 34.4548C29.81 34.665 29.7478 34.8717 29.6711 35.0731C29.604 35.2444 29.5295 35.4083 29.4551 35.5796C29.3484 35.8223 29.2564 36.071 29.1794 36.3246C29.1347 36.4736 29.0975 36.63 29.0677 36.779C29.0379 36.928 28.9932 37.077 28.9559 37.2185C28.9192 37.3334 28.8893 37.4503 28.8665 37.5687V37.7251C28.8416 37.8583 28.8016 37.9883 28.7474 38.1125C28.7188 38.1771 28.6811 38.2373 28.6356 38.2913L28.5239 38.4105L28.3451 38.5892L28.2557 38.6563C28.1967 38.6943 28.121 38.6943 28.062 38.6563H28.0024C28.0024 38.7159 28.0024 38.7755 28.0024 38.8351C28.0024 38.8947 28.0024 38.9692 28.0024 39.0437V39.4161C28.0024 39.5502 28.0024 39.6843 28.0024 39.8259V40.2505C28.0024 40.3771 28.0024 40.5038 28.0024 40.6304C27.9871 40.7167 27.9871 40.8049 28.0024 40.8912C27.9992 40.9283 27.9992 40.9657 28.0024 41.0029C28.034 41.0801 28.0921 41.1435 28.1663 41.1817L28.3153 41.2487L28.509 41.3381C28.614 41.3833 28.7118 41.4435 28.7995 41.5169L28.9485 41.6212C28.9904 41.645 29.0356 41.6625 29.0826 41.6734H29.1869L29.3508 41.7329C29.3847 41.7458 29.4153 41.7661 29.4402 41.7925C29.4982 41.8421 29.5164 41.9242 29.4849 41.9937V42.0607C29.4707 42.104 29.4416 42.141 29.4029 42.165C29.3725 42.1867 29.3471 42.2146 29.3284 42.247C29.31 42.2709 29.2873 42.2911 29.2614 42.3066L29.1943 42.3811C29.1706 42.3997 29.1504 42.4224 29.1347 42.4481C29.0875 42.5385 29.0031 42.6038 28.9038 42.6269H28.658C28.5452 42.6168 28.4332 42.5994 28.3227 42.5747C28.2492 42.5556 28.1745 42.5406 28.0992 42.53C27.993 42.5151 27.8852 42.5151 27.7789 42.53H27.1159C27.0715 42.5227 27.0262 42.5227 26.9818 42.53H27.0265C27.0945 42.5941 27.1568 42.6639 27.2127 42.7386C27.3184 42.8717 27.3923 43.0271 27.4288 43.1931C27.4623 43.3527 27.4623 43.5176 27.4288 43.6773C27.3721 43.9244 27.2227 44.1403 27.0116 44.2807C26.8929 44.3589 26.762 44.4168 26.6242 44.452H26.5199C26.4678 44.452 26.4678 44.452 26.4603 44.5116C26.4479 44.6185 26.4229 44.7235 26.3858 44.8245C26.3713 44.882 26.3487 44.9372 26.3188 44.9884C26.3012 45.0322 26.2759 45.0725 26.2443 45.1076C26.2188 45.1333 26.1884 45.1536 26.1549 45.1672C26.1015 45.1963 26.037 45.1963 25.9836 45.1672L25.924 45.1076C25.901 45.0786 25.8834 45.0459 25.8718 45.0107C25.8257 44.8773 25.7909 44.7403 25.7675 44.601C25.7639 44.5713 25.7639 44.5413 25.7675 44.5116V44.4595C25.7675 44.4595 25.7675 44.4595 25.7228 44.4595H25.5962C25.4486 44.403 25.3143 44.3167 25.2014 44.2062C25.0322 44.0325 24.9362 43.8005 24.9332 43.5581C24.922 43.469 24.922 43.3789 24.9332 43.2899C24.9554 43.1588 25.0008 43.0326 25.0673 42.9174C25.1102 42.8456 25.1601 42.7783 25.2163 42.7163C25.2926 42.6313 25.3748 42.5516 25.4621 42.4779L25.6036 42.3587L25.41 42.1799C25.3488 42.1138 25.2916 42.0441 25.2386 41.9713C25.1123 41.8079 25.028 41.6161 24.9928 41.4126C24.9814 41.2688 24.9814 41.1243 24.9928 40.9805C25.0085 40.8461 25.0385 40.7138 25.0822 40.5857C25.1269 40.4591 25.179 40.325 25.2386 40.1983C25.3363 40.0127 25.4458 39.8336 25.5664 39.662L25.6632 39.5204H25.626C25.3355 39.7216 25.0449 39.9153 24.7544 40.1313L24.6203 40.2356C24.4888 40.3166 24.3889 40.4402 24.3372 40.5857C24.3151 40.6662 24.3002 40.7485 24.2925 40.8316C24.2925 40.9135 24.2925 41.0029 24.2925 41.0923V41.2487C24.2961 41.2909 24.2961 41.3332 24.2925 41.3754V41.6138C24.2715 41.7116 24.239 41.8066 24.1957 41.8968L24.151 41.9788C24.1178 42.0548 24.1178 42.1412 24.151 42.2172C24.1796 42.2769 24.2202 42.3302 24.2702 42.3736L24.3372 42.4258C24.3729 42.455 24.4031 42.4903 24.4266 42.53C24.4673 42.5936 24.4673 42.675 24.4266 42.7386C24.4005 42.7697 24.3704 42.7972 24.3372 42.8206C24.2605 42.8649 24.1777 42.8975 24.0914 42.9174C24.0126 42.9323 23.9318 42.9323 23.853 42.9174H23.5923C23.5191 42.9129 23.4467 42.9004 23.3762 42.8802H23.2719C23.2039 42.8441 23.1472 42.79 23.1081 42.7237C23.0746 42.6646 23.0471 42.6022 23.0261 42.5375C22.9911 42.441 22.9661 42.3411 22.9516 42.2395C22.9406 42.0982 22.9406 41.9562 22.9516 41.8149C22.9516 41.7329 22.9516 41.6585 22.9516 41.5765C22.8975 41.2828 22.8203 40.9939 22.7207 40.7124C22.7207 40.7124 22.7207 40.6453 22.7207 40.6155C22.654 40.391 22.6894 40.1486 22.8175 39.9525C22.8784 39.8558 22.9631 39.7763 23.0634 39.7216C23.2959 39.6016 23.5222 39.4699 23.7413 39.3267C23.8519 39.2532 23.9565 39.171 24.0541 39.0809C24.1717 38.9697 24.2721 38.8416 24.3521 38.701L24.4341 38.5669C24.4773 38.4726 24.5297 38.3828 24.5905 38.2987C24.6888 38.1462 24.7957 37.9994 24.9108 37.8592C24.963 37.7996 24.9555 37.8145 24.9555 37.74C24.9443 37.6385 24.9443 37.5361 24.9555 37.4346C24.9702 37.2805 25.0002 37.1283 25.0449 36.9801C25.1166 36.7501 25.2167 36.5299 25.3429 36.3246L25.4025 36.2203C25.4025 36.2203 25.4025 36.2203 25.4025 36.183L25.2237 36.116L24.4192 35.371C24.3752 35.3322 24.3278 35.2973 24.2776 35.2668C24.2221 35.234 24.1649 35.2042 24.1063 35.1774C23.9512 35.1041 23.806 35.0115 23.6742 34.9017C23.4075 34.6893 23.174 34.4382 22.9814 34.1568C22.8609 33.9877 22.7655 33.802 22.6983 33.6055C22.6512 33.4703 22.6187 33.3305 22.6015 33.1883C22.5903 33.0396 22.5903 32.8901 22.6015 32.7414C22.6015 32.6222 22.6015 32.503 22.6015 32.3838C22.6168 32.2274 22.6468 32.0728 22.6909 31.9219C22.7275 31.7942 22.7801 31.6715 22.8473 31.5569C22.9447 31.3971 23.0246 31.2272 23.0857 31.0503C23.0857 30.9535 23.1378 30.8566 23.1602 30.7672C23.2183 30.5277 23.3085 30.2972 23.4284 30.0819C23.4796 29.988 23.5449 29.9026 23.6221 29.8286C23.7591 29.684 23.8884 29.5324 24.0094 29.3742L24.0839 29.2699C24.0926 29.2484 24.0926 29.2243 24.0839 29.2028C24.0854 28.948 24.1333 28.6955 24.2255 28.4579C24.2962 28.2643 24.3887 28.0794 24.5011 27.9066C24.6598 27.6772 24.8421 27.4649 25.0449 27.2734L25.1492 27.1766H25.0896C24.9978 27.1483 24.9082 27.1135 24.8214 27.0723L24.6799 27.0052C24.5229 26.9099 24.352 26.8395 24.1733 26.7966C24.0103 26.753 23.8429 26.728 23.6742 26.7221H22.8697C22.8201 26.7184 22.7703 26.7184 22.7207 26.7221C22.7179 26.7444 22.7179 26.7669 22.7207 26.7892C22.6342 27.1414 22.4418 27.4586 22.1694 27.698C21.9202 27.9237 21.6134 28.0758 21.2829 28.1376C21.1393 28.1523 20.9945 28.1523 20.8508 28.1376C20.4833 28.0835 20.1406 27.92 19.8675 27.6682C19.812 27.6276 19.7597 27.5828 19.7111 27.5341C19.7003 27.555 19.6879 27.575 19.6738 27.5937C19.6632 27.6144 19.6479 27.6322 19.6291 27.6459C19.584 27.676 19.5252 27.676 19.4801 27.6459C19.413 27.6148 19.358 27.5625 19.3237 27.4969C19.2867 27.4286 19.2711 27.3507 19.279 27.2734C19.2842 27.1821 19.3097 27.093 19.3535 27.0127V26.9158C19.3075 26.8028 19.2726 26.6855 19.2492 26.5657H19.1449C19.0695 26.5499 19.0076 26.4964 18.981 26.4242C18.9441 26.3308 18.9441 26.227 18.981 26.1336C18.9957 26.1083 18.9957 26.077 18.981 26.0517C18.9436 25.9431 18.9436 25.8251 18.981 25.7165C18.9939 25.6819 19.0114 25.6494 19.0332 25.6196V25.5153C19.0539 25.4152 19.1127 25.3271 19.197 25.2695C19.2009 25.2523 19.2009 25.2345 19.197 25.2173C19.2142 25.1253 19.2614 25.0414 19.3311 24.979L19.4205 24.9194C19.4685 24.901 19.5216 24.901 19.5695 24.9194H19.6962C19.7117 24.9305 19.7327 24.9305 19.7483 24.9194L19.8154 24.8598C20.0403 24.6507 20.3145 24.5021 20.6125 24.4277C20.7656 24.4053 20.9212 24.4053 21.0743 24.4277C21.6342 24.4601 22.1467 24.7522 22.4599 25.2173L22.5121 25.262ZM27.7268 38.0082C27.8255 37.903 27.906 37.7822 27.9651 37.6506L28.062 37.6059C28.0932 37.5694 28.1415 37.5524 28.1886 37.5612C28.2363 37.5754 28.2713 37.6162 28.278 37.6655C28.278 37.6655 28.278 37.7102 28.278 37.7251H28.3227C28.3729 37.7299 28.4146 37.7656 28.427 37.8145C28.427 37.8145 28.427 37.8145 28.427 37.8592C28.427 37.9039 28.5313 37.8592 28.5686 37.9784C28.5752 37.9669 28.5752 37.9527 28.5686 37.9411L28.6133 37.7847V37.6208C28.6351 37.4973 28.665 37.3754 28.7027 37.2558C28.7473 37.0919 28.792 36.928 28.8293 36.7641L28.874 36.5406C28.9499 36.2877 29.0394 36.039 29.1422 35.7957L29.3433 35.3189C29.4346 35.1108 29.5117 34.8967 29.5742 34.6782C29.6317 34.4926 29.6593 34.299 29.6562 34.1046C29.645 33.9757 29.645 33.8461 29.6562 33.7173C29.6528 33.6552 29.6528 33.593 29.6562 33.531C29.6598 33.4665 29.6598 33.4018 29.6562 33.3373L29.7009 33.0244C29.7009 32.9276 29.7009 32.8308 29.7009 32.7339C29.7043 32.6719 29.7043 32.6097 29.7009 32.5477C29.7009 32.4434 29.7009 32.3465 29.7009 32.2422C29.7009 32.138 29.7009 32.1007 29.7009 32.0337C29.6945 31.9231 29.7071 31.8122 29.7381 31.7059C29.7776 31.5597 29.846 31.4229 29.9393 31.3036C30.0108 31.2168 30.0617 31.1149 30.0883 31.0056C30.1171 30.8934 30.1346 30.7786 30.1404 30.6629C30.1478 30.5563 30.1478 30.4493 30.1404 30.3426C30.1282 30.2083 30.1007 30.0759 30.0585 29.9478C30.0009 29.7541 29.9046 29.5742 29.7754 29.4189C29.7456 29.3791 29.7456 29.3245 29.7754 29.2848C29.7961 29.2458 29.8356 29.2204 29.8797 29.2177C29.949 29.2106 30.0189 29.2106 30.0883 29.2177C30.1349 29.2283 30.1832 29.2283 30.2298 29.2177H30.3937C30.4922 29.1999 30.5893 29.175 30.6842 29.1432L30.9897 29.0613C31.0591 29.0469 31.1266 29.0244 31.1908 28.9942C31.3278 28.9186 31.4597 28.834 31.5856 28.741C31.6604 28.7471 31.7341 28.7199 31.7868 28.6665C31.8095 28.6308 31.8294 28.5935 31.8464 28.5547C31.9039 28.4344 31.944 28.3064 31.9655 28.1748C31.9867 28.0594 31.9738 27.9403 31.9283 27.8321C31.8683 27.6788 31.774 27.5412 31.6527 27.4298C31.584 27.3628 31.5031 27.3097 31.4143 27.2734C31.2421 27.2028 31.0562 27.1723 30.8705 27.184L30.4682 27.2287C30.3533 27.241 30.2406 27.2685 30.133 27.3107C30.039 27.3446 29.9546 27.4009 29.8871 27.4745L29.7307 27.6384C29.7174 27.6616 29.6997 27.6818 29.6785 27.698C29.6574 27.7208 29.6277 27.7338 29.5966 27.7338C29.5655 27.7338 29.5358 27.7208 29.5147 27.698C29.4885 27.6732 29.4583 27.653 29.4253 27.6384L29.3433 27.5937C29.2324 27.5355 29.1297 27.4628 29.0379 27.3777C28.9968 27.3341 28.9519 27.2942 28.9038 27.2585C28.7471 27.1414 28.6001 27.0119 28.4643 26.8711L28.062 26.4316C28.0165 26.3838 27.9637 26.3435 27.9056 26.3124C27.7112 26.2104 27.5028 26.1376 27.2872 26.0964H27.1829L26.8105 26.0219L25.8271 25.8133C25.7178 25.7838 25.6051 25.7688 25.4919 25.7686H23.6817L23.5103 25.7314C23.3986 25.7314 23.2943 25.6792 23.1825 25.6643H23.0485C22.9294 25.6569 22.81 25.6569 22.6909 25.6643C22.4841 25.6619 22.2775 25.6743 22.0726 25.7016H21.7522C21.524 25.7166 21.2951 25.7166 21.0669 25.7016H20.7093C20.5978 25.6877 20.4895 25.6549 20.389 25.6047L20.1878 25.5004L20.0388 25.4185C19.9622 25.3742 19.8793 25.3416 19.793 25.3216L19.5323 25.262C19.5323 25.262 19.5323 25.262 19.495 25.262C19.4713 25.2817 19.4532 25.3075 19.4429 25.3365C19.4429 25.3365 19.4429 25.3738 19.4429 25.3812L19.6068 25.4334H19.6738C19.7221 25.4591 19.7467 25.5144 19.7334 25.5675C19.7226 25.6203 19.6756 25.6579 19.6217 25.6569H19.5546L19.3013 25.5749C19.3013 25.5749 19.2566 25.5749 19.2417 25.5749V25.6345H19.3311C19.4045 25.6524 19.4766 25.6748 19.5472 25.7016H19.5993C19.6337 25.7234 19.6545 25.7614 19.6545 25.8021C19.6545 25.8429 19.6337 25.8808 19.5993 25.9027C19.5705 25.9136 19.5387 25.9136 19.5099 25.9027L19.3088 25.8505L19.1226 25.7686C19.1189 25.7983 19.1189 25.8283 19.1226 25.858H19.1896C19.2088 25.8505 19.23 25.8505 19.2492 25.858C19.3004 25.8775 19.3299 25.9314 19.3188 25.985C19.3077 26.0387 19.2593 26.0764 19.2045 26.074C19.1798 26.0778 19.1547 26.0778 19.13 26.074C19.0928 26.074 19.0704 26.074 19.0704 26.1336V26.1783C19.0704 26.203 19.0904 26.223 19.1151 26.223H19.2641C19.3597 26.2168 19.4552 26.2374 19.5397 26.2826C19.6285 26.3189 19.7095 26.372 19.7781 26.4391L19.8601 26.5285C19.8891 26.559 19.9075 26.5983 19.9122 26.6402C19.9197 26.6645 19.9197 26.6904 19.9122 26.7147C19.9021 26.766 19.8692 26.8099 19.8228 26.8339H19.7558L19.6366 26.886C19.5907 26.9099 19.5501 26.9428 19.5174 26.9829C19.4549 27.0495 19.4202 27.1374 19.4205 27.2287C19.4854 27.1401 19.5729 27.0706 19.6738 27.0276C19.7374 27.0437 19.8039 27.0437 19.8675 27.0276C19.9059 26.9966 19.9408 26.9617 19.9718 26.9233C20.0239 26.8786 20.0686 26.8264 20.1208 26.7743C20.1892 26.7034 20.2613 26.6363 20.3368 26.5732L20.5529 26.4242C20.6547 26.3706 20.7661 26.3376 20.8806 26.3273H21.1712L21.5064 26.2752C21.6664 26.2454 21.8306 26.2454 21.9906 26.2752C22.1277 26.3101 22.2671 26.335 22.4078 26.3497H23.041L23.5923 26.4316H23.9126C24.0867 26.4546 24.2587 26.4919 24.4266 26.5434C24.5567 26.5866 24.6816 26.644 24.7991 26.7147C24.8916 26.7683 24.9888 26.8132 25.0896 26.8488C25.2854 26.9216 25.4874 26.9764 25.693 27.0127C25.8269 27.0237 25.9615 27.0237 26.0953 27.0127H26.1698C26.2466 27.005 26.324 27.005 26.4007 27.0127C26.5004 27.0268 26.5964 27.0597 26.6838 27.1095C26.7131 27.133 26.7297 27.1688 26.7285 27.2064C26.7286 27.2694 26.6797 27.3216 26.6168 27.3256H26.4007C26.3092 27.3142 26.2166 27.3142 26.1251 27.3256C26.0157 27.3294 25.9119 27.3747 25.8346 27.4522L25.7601 27.5341C25.7305 27.5671 25.7031 27.6019 25.6781 27.6384L25.5292 27.8023L25.2386 28.0929C25.177 28.1548 25.1068 28.2075 25.03 28.2493C24.9702 28.2845 24.9192 28.3329 24.881 28.3908L24.814 28.4728C24.6484 28.7094 24.5015 28.9584 24.3745 29.2177C24.3169 29.3451 24.2444 29.4651 24.1584 29.5753C24.0373 29.7311 23.908 29.8803 23.7711 30.0223C23.7079 30.0828 23.6551 30.1533 23.6146 30.2309C23.5022 30.4349 23.417 30.6528 23.3613 30.879C23.3613 30.9833 23.3166 31.0801 23.2868 31.177C23.2207 31.3638 23.1359 31.5436 23.0336 31.7133C22.9808 31.8026 22.9383 31.8976 22.9069 31.9964C22.8532 32.2484 22.8332 32.5064 22.8473 32.7637C22.8364 32.9001 22.8364 33.0371 22.8473 33.1734C22.8716 33.31 22.9064 33.4445 22.9516 33.5757C23.0289 33.7612 23.129 33.9364 23.2496 34.0972C23.4073 34.3094 23.5899 34.502 23.7934 34.6708C23.9233 34.7831 24.0689 34.876 24.2255 34.9464L24.3968 35.0358C24.4724 35.0794 24.5424 35.1319 24.6054 35.1923L24.7767 35.3561L25.9091 36.4289L26.2145 36.7343C26.2645 36.7778 26.3051 36.831 26.3337 36.8908C26.362 36.9359 26.3798 36.9868 26.3858 37.0397C26.4046 37.1217 26.3723 37.2069 26.3039 37.2558C26.2751 37.279 26.2423 37.2967 26.2071 37.3079H26.1326L25.8048 37.3973C25.7057 37.4254 25.6086 37.4602 25.5143 37.5016C25.4574 37.5256 25.4046 37.5583 25.3578 37.5985L25.179 37.7772C25.0593 37.9071 24.9473 38.0439 24.8438 38.187C24.7216 38.3455 24.6143 38.5151 24.5235 38.6935C24.463 38.814 24.3879 38.9266 24.3 39.0288C24.1772 39.1835 24.0344 39.3213 23.8754 39.4385L23.6668 39.5726L23.0783 39.9153L22.9889 39.9749C22.8739 40.0851 22.8139 40.2406 22.825 40.3995C22.8253 40.4622 22.8328 40.5247 22.8473 40.5857C22.9579 40.8929 23.0402 41.2096 23.0932 41.5318C23.1008 41.6161 23.1008 41.7008 23.0932 41.7851C23.0824 41.9215 23.0824 42.0585 23.0932 42.1948C23.0932 42.2842 23.1304 42.3662 23.1602 42.4556C23.1745 42.4942 23.1919 42.5316 23.2123 42.5673C23.2322 42.5993 23.2605 42.6251 23.2943 42.6418H23.6817C23.7816 42.6541 23.8828 42.6359 23.9722 42.5896L23.9126 42.5375C23.8296 42.4659 23.7635 42.3769 23.7189 42.2768C23.7005 42.1984 23.7005 42.1168 23.7189 42.0384C23.7248 41.9656 23.745 41.8947 23.7785 41.8298C23.7785 41.8298 23.7785 41.8298 23.7785 41.7702C23.8086 41.706 23.8311 41.6385 23.8456 41.5691C23.8497 41.4971 23.8497 41.425 23.8456 41.353C23.8423 41.3109 23.8423 41.2685 23.8456 41.2264C23.8492 41.1743 23.8492 41.122 23.8456 41.0699V40.8092C23.852 40.7009 23.8695 40.5936 23.8977 40.4889C23.9525 40.2905 24.067 40.1136 24.2255 39.9823L24.367 39.8706L24.7842 39.5726L25.991 38.7531C26.3114 38.5371 26.6391 38.3136 26.952 38.0901C27.0638 38.0007 27.1829 37.9188 27.2872 37.8294C27.3753 37.7551 27.4508 37.6671 27.5107 37.5687C27.55 37.4912 27.5848 37.4116 27.615 37.3303C27.6335 37.2696 27.6335 37.2047 27.615 37.144C27.615 37.144 27.615 37.0919 27.5554 37.0993H27.4362C27.3876 37.1138 27.3358 37.1138 27.2872 37.0993C27.1954 37.0802 27.1196 37.0156 27.0861 36.928C27.1435 36.8626 27.2336 36.8365 27.317 36.861C27.3329 36.8375 27.3532 36.8173 27.3766 36.8014L27.5703 36.6449C27.6011 36.6272 27.6288 36.6045 27.6523 36.5779C27.6738 36.5562 27.6914 36.531 27.7044 36.5034L27.7491 36.4289C27.7571 36.4124 27.7571 36.3932 27.7491 36.3767C27.7288 36.3249 27.7039 36.2751 27.6746 36.2277C27.5673 36.0135 27.4453 35.8069 27.3096 35.6094L27.0116 35.1699L26.8403 34.9166C26.8036 34.8621 26.7712 34.8048 26.7434 34.7453C26.7211 34.6869 26.691 34.6318 26.654 34.5814L26.5721 34.4771C26.4156 34.276 26.2443 34.0897 26.073 33.9035L25.4249 33.2032C25.401 33.1819 25.3809 33.1567 25.3653 33.1287C25.3217 33.0828 25.3217 33.0108 25.3653 32.9648C25.4104 32.9347 25.4692 32.9347 25.5143 32.9648V33.0095L25.5962 33.0989H25.6334C25.6652 33.0492 25.6926 32.9969 25.7154 32.9425C25.7301 32.899 25.7301 32.8519 25.7154 32.8084C25.7042 32.7822 25.7042 32.7526 25.7154 32.7265C25.7214 32.699 25.7411 32.6765 25.7675 32.6669C25.7945 32.652 25.8156 32.6284 25.8271 32.5998V32.5402C25.8946 32.3397 25.9395 32.1323 25.9612 31.9219C25.9609 31.8595 25.9763 31.798 26.0059 31.7431C26.0452 31.6703 26.1125 31.6165 26.1922 31.5941H26.2518C26.3627 31.5776 26.4706 31.545 26.5721 31.4973C26.6731 31.4686 26.7705 31.4286 26.8626 31.3781C26.9233 31.3444 26.9786 31.3017 27.0265 31.2515C27.1165 31.1698 27.1656 31.0525 27.1606 30.9311V30.9013C27.1684 30.8384 27.224 30.7926 27.2872 30.797C27.3286 30.8021 27.3648 30.8272 27.3841 30.8641V30.9237C27.4223 31.004 27.4885 31.0675 27.5703 31.1025L27.7044 31.1472C27.8208 31.1585 27.9381 31.1585 28.0545 31.1472H28.3898C28.5287 31.1397 28.668 31.1397 28.8069 31.1472H28.9559L29.0751 31.1993L29.1198 31.244C29.1461 31.2821 29.1461 31.3325 29.1198 31.3706C29.0955 31.417 29.0452 31.4437 28.9932 31.4377H28.9261C28.9261 31.4377 28.8814 31.4377 28.8665 31.4377C28.8623 31.4997 28.8623 31.5619 28.8665 31.6239C28.8593 31.7331 28.8593 31.8426 28.8665 31.9517C28.8665 32.2497 28.8665 32.5477 28.8665 32.8457C28.8665 32.9574 28.8665 33.0691 28.8665 33.1883V33.2405C28.874 33.3546 28.874 33.4691 28.8665 33.5832C28.8779 33.6822 28.8779 33.7821 28.8665 33.8811C28.8516 33.9843 28.8215 34.0847 28.7771 34.1791C28.7416 34.2363 28.7164 34.2994 28.7027 34.3654C28.6514 34.5395 28.6263 34.7202 28.6282 34.9017C28.6282 35.1476 28.6282 35.4008 28.6282 35.6467C28.6394 35.7007 28.6394 35.7565 28.6282 35.8106C28.6079 35.8672 28.5829 35.922 28.5537 35.9745L28.3749 36.2575C28.3389 36.3173 28.2874 36.3662 28.2259 36.3991C28.1878 36.4242 28.148 36.4466 28.1067 36.4661L28.0247 36.5183C27.9957 36.5327 27.9722 36.5563 27.9577 36.5853C27.9341 36.6521 27.8929 36.7113 27.8385 36.7567L27.6895 36.861L27.5703 36.9578C27.558 36.9552 27.5454 36.9552 27.5331 36.9578L27.6225 36.9057C27.6618 36.898 27.7023 36.898 27.7417 36.9057C27.843 36.8864 27.9452 36.9345 27.9949 37.0248C28.0234 37.0726 28.0411 37.126 28.0471 37.1813C28.0545 37.2456 28.0545 37.3106 28.0471 37.375C28.0267 37.5182 27.9759 37.6553 27.8981 37.7772C27.8981 37.8294 27.8311 37.8815 27.7938 37.9337V37.9709C27.7938 37.9709 27.7566 37.9933 27.7491 38.0082H27.7268ZM24.5011 28.4951L24.5831 28.3759C24.6352 28.3089 24.6799 28.2418 24.7321 28.1822C24.7726 28.1303 24.8233 28.0872 24.881 28.0556C24.9519 28.0169 25.0192 27.972 25.0822 27.9215L25.2833 27.7204C25.3442 27.6619 25.4015 27.5997 25.4547 27.5341L25.626 27.3256C25.5887 27.2883 25.5366 27.2883 25.4845 27.2734C25.2875 27.4331 25.1078 27.6128 24.9481 27.8098C24.8019 27.9788 24.6791 28.1667 24.5831 28.3685L24.5235 28.4951C24.5155 28.509 24.5155 28.526 24.5235 28.5398L24.5011 28.4951ZM27.034 20.6582C27.034 20.7104 27.034 20.7625 27.034 20.8147C27.034 20.8668 27.034 21.0754 27.034 21.2095C27.0253 21.231 27.0253 21.255 27.034 21.2765L27.1308 21.3659L27.317 21.4926C27.3837 21.5305 27.4462 21.5754 27.5033 21.6267L27.5778 21.6863C27.6143 21.6968 27.653 21.6968 27.6895 21.6863H28.3674C28.4318 21.6789 28.4968 21.6789 28.5611 21.6863C28.5779 21.6925 28.5964 21.6925 28.6133 21.6863L28.7027 21.6341C28.8073 21.5672 28.9286 21.5311 29.0528 21.5298H30.2745C30.3598 21.5138 30.4425 21.4862 30.5203 21.4479L30.6917 21.3883C30.7625 21.3697 30.8369 21.3697 30.9077 21.3883C30.9345 21.3959 30.9629 21.3959 30.9897 21.3883C31.058 21.3673 31.1196 21.3287 31.1684 21.2765C31.2304 21.2168 31.3078 21.1755 31.3919 21.1573H31.526C31.5901 21.1443 31.6525 21.1243 31.7123 21.0977L31.8613 21.0456L31.973 21.0009C32.0296 20.9902 32.0877 20.9902 32.1443 21.0009C32.2701 20.9956 32.3916 20.9542 32.4945 20.8817C32.6289 20.7819 32.7536 20.6697 32.8669 20.5465C32.8908 20.5251 32.9109 20.4999 32.9265 20.472C32.9933 20.3664 33.0855 20.2793 33.1947 20.2187C33.2738 20.1806 33.3602 20.1603 33.448 20.1591C33.5646 20.1665 33.6815 20.1665 33.7981 20.1591C33.9433 20.1527 34.0877 20.1353 34.2302 20.107C34.365 20.0786 34.4971 20.0387 34.625 19.9878C34.7336 19.9418 34.8341 19.8789 34.923 19.8015C35.0188 19.7218 35.0931 19.6194 35.1391 19.5035C35.1426 19.4914 35.1426 19.4785 35.1391 19.4663H34.9975L34.6027 19.4067L34.1334 19.3322L33.6864 19.2503L33.0681 18.9821L32.42 18.848L31.6378 18.6841L30.8928 18.5128L30.3341 18.3936C30.2129 18.3786 30.0903 18.3786 29.9691 18.3936C29.9147 18.3863 29.8596 18.3863 29.8052 18.3936C29.682 18.4335 29.5733 18.5086 29.4923 18.6096C29.4633 18.6412 29.4383 18.6762 29.4178 18.7139C29.3581 18.8203 29.3581 18.9501 29.4178 19.0566C29.4428 19.0931 29.4702 19.128 29.4998 19.1609L29.5519 19.2056C29.6094 19.2646 29.6527 19.3359 29.6785 19.4141C29.7047 19.5168 29.7047 19.6244 29.6785 19.727C29.6476 19.8568 29.5774 19.9739 29.4774 20.0623L29.3508 20.1666C29.0858 20.3665 28.7661 20.4808 28.4345 20.4943C28.2244 20.5103 28.0132 20.4927 27.8087 20.4422C27.5419 20.389 27.2885 20.2826 27.0638 20.1293C27.0638 20.1293 27.0638 20.1293 27.0191 20.1293V20.241C27.034 20.3602 27.034 20.5092 27.034 20.6582ZM25.5441 20.6582V20.5912C25.5441 20.4273 25.5441 20.2708 25.5441 20.1144V20.0623H25.4994C25.4217 20.1166 25.3395 20.1639 25.2535 20.2038C24.9567 20.3505 24.631 20.4293 24.3 20.4347H24.0839C23.902 20.4166 23.7237 20.3714 23.555 20.3006C23.3861 20.2343 23.2317 20.1356 23.1006 20.0101C22.9842 19.9113 22.9075 19.7737 22.8846 19.6227C22.8487 19.4465 22.9048 19.2641 23.0336 19.1385C23.0515 19.1168 23.0715 19.0969 23.0932 19.0789C23.1344 19.0386 23.1673 18.9905 23.19 18.9374C23.2122 18.8696 23.2122 18.7966 23.19 18.7288C23.1713 18.6739 23.1463 18.6214 23.1155 18.5724C23.0282 18.4532 22.9015 18.3687 22.7579 18.334C22.6836 18.3262 22.6087 18.3262 22.5344 18.334H22.4301C22.3473 18.3391 22.265 18.3515 22.1843 18.3712L21.7671 18.4606L20.8657 18.6617L19.5919 18.9225L19.0481 18.9821L18.2584 19.1162L17.8785 19.1832L17.4762 19.2354H17.4092C17.4092 19.2354 17.4092 19.2354 17.4092 19.2875C17.4518 19.393 17.5181 19.4873 17.6028 19.5631C17.6905 19.6365 17.7884 19.6968 17.8934 19.7419C18.0383 19.808 18.191 19.8556 18.3478 19.8835C18.5103 19.9119 18.6746 19.9293 18.8395 19.9356H19.1226C19.1766 19.9244 19.2324 19.9244 19.2864 19.9356C19.4258 19.9909 19.5452 20.087 19.6291 20.2112C19.6572 20.2542 19.6897 20.2942 19.726 20.3304C19.8264 20.4368 19.9361 20.534 20.0537 20.621C20.1593 20.7002 20.2869 20.7445 20.4188 20.7476C20.4707 20.7406 20.5233 20.7406 20.5752 20.7476L20.7391 20.8147C20.8581 20.8622 20.98 20.902 21.1041 20.9339H21.1488C21.2504 20.9998 21.3245 21.1004 21.3574 21.2169C21.3922 21.2509 21.4325 21.2786 21.4766 21.2989C21.527 21.3177 21.5826 21.3177 21.633 21.2989C21.7018 21.2842 21.7729 21.2842 21.8416 21.2989L21.9459 21.3436L22.0353 21.3808C22.1078 21.4076 22.1826 21.4275 22.2588 21.4404H23.4358C23.5731 21.4458 23.7067 21.4869 23.8232 21.5596L23.8977 21.6043H24.8214C24.8648 21.611 24.9088 21.5973 24.9406 21.5671C24.9711 21.5489 24.9987 21.5263 25.0226 21.5C25.0853 21.4469 25.1526 21.3996 25.2237 21.3585L25.328 21.2989L25.4323 21.2095C25.5068 21.1424 25.4994 21.1573 25.4994 21.0679C25.4994 20.9786 25.5068 20.8296 25.5068 20.6582H25.5441ZM26.736 23.3028C26.7395 23.2881 26.7395 23.2728 26.736 23.2581C26.736 23.0346 26.736 22.8037 26.736 22.5728C26.736 22.4834 26.736 22.394 26.736 22.312C26.736 21.9544 26.736 21.5671 26.736 21.2467V20.0325C26.736 19.9207 26.736 19.809 26.736 19.6898V18.55C26.736 18.4159 26.736 18.2818 26.736 18.1477C26.736 18.0136 26.736 17.8721 26.736 17.738C26.7323 17.6685 26.7323 17.5989 26.736 17.5294C26.736 17.5294 26.736 17.4847 26.736 17.4698H25.693C25.693 17.4698 25.693 17.4698 25.693 17.5145V17.6561C25.693 18.2222 25.693 18.7958 25.693 19.362V20.919C25.693 21.5224 25.693 22.1258 25.693 22.7366C25.693 22.908 25.693 23.0868 25.693 23.2656C25.693 23.2656 25.693 23.3103 25.693 23.3326H25.7526C25.8761 23.3656 25.9889 23.4297 26.0804 23.5188C26.1606 23.4389 26.2611 23.3823 26.3709 23.355H26.4752L26.736 23.3028ZM29.0602 42.1874C29.0784 42.1435 29.1132 42.1087 29.1571 42.0905C29.1571 42.0905 29.1571 42.0458 29.1571 42.0384C29.1026 42.0132 29.045 41.9957 28.9857 41.9862C28.9013 41.968 28.8206 41.9353 28.7474 41.8894L28.5835 41.7702C28.5261 41.7236 28.4636 41.6836 28.3972 41.651L28.2184 41.5691L28.0024 41.4648C27.9401 41.4336 27.8844 41.3906 27.8385 41.3381C27.7784 41.274 27.7327 41.1978 27.7044 41.1146C27.6607 40.9904 27.6429 40.8586 27.6523 40.7273V40.0717C27.6523 39.9302 27.6523 39.7886 27.6523 39.6545C27.6523 39.5279 27.6523 39.4012 27.6523 39.2746V38.9021C27.6491 38.8824 27.6491 38.8623 27.6523 38.8425C27.6523 38.768 27.6523 38.6861 27.6523 38.6116H27.5927C27.4988 38.5786 27.438 38.4875 27.4437 38.3881L27.3766 38.3062L27.3096 38.3583L26.5646 38.8947L26.4976 38.9394C26.4939 38.9939 26.4939 39.0487 26.4976 39.1033C26.4976 39.1927 26.4976 39.2821 26.5572 39.3714L26.7583 40.2505C26.7956 40.392 26.8254 40.5336 26.8552 40.6751C26.8661 40.7791 26.8661 40.884 26.8552 40.988C26.8481 41.0982 26.8332 41.2077 26.8105 41.3158C26.8105 41.4871 26.736 41.651 26.6913 41.8149L26.6019 42.1427C26.5908 42.1892 26.5908 42.2377 26.6019 42.2842C26.603 42.3288 26.6251 42.3702 26.6615 42.396H26.7211C26.758 42.403 26.7959 42.403 26.8328 42.396H26.9446C26.9914 42.3882 27.0392 42.3882 27.0861 42.396H27.7342C27.8749 42.3735 28.0182 42.3735 28.1588 42.396L28.4568 42.463H28.6207C28.6415 42.475 28.667 42.475 28.6878 42.463C28.6878 42.463 28.6878 42.3587 28.7846 42.3438C28.9261 42.2172 28.9261 42.2172 29.023 42.1874H29.0602ZM27.1085 31.5047L27.1904 31.5718C27.6439 31.9681 27.9135 32.5343 27.9354 33.1362C27.9502 33.3072 27.9502 33.4792 27.9354 33.6502C27.9159 33.7981 27.8886 33.9448 27.8534 34.0897C27.7705 34.3962 27.6505 34.6915 27.4958 34.9688C27.4555 35.0404 27.4081 35.1078 27.3543 35.1699L27.4586 35.3264C27.632 35.5817 27.7887 35.848 27.9279 36.1235H27.98C28.0314 36.1009 28.0734 36.0615 28.0992 36.0117C28.0992 35.9596 28.1663 35.9074 28.2035 35.8553C28.2337 35.8047 28.2611 35.7525 28.2855 35.6988C28.3194 35.6457 28.3351 35.5829 28.3302 35.52V34.8719C28.3287 34.6943 28.3462 34.517 28.3823 34.343C28.4063 34.2239 28.4464 34.1086 28.5015 34.0003C28.5527 33.8981 28.5831 33.7867 28.5909 33.6726C28.5909 33.5832 28.5909 33.4863 28.5909 33.3969V33.0691C28.5909 32.8531 28.5909 32.6371 28.5909 32.421C28.5909 32.354 28.5909 32.2869 28.5909 32.2273C28.5797 32.0065 28.5797 31.7852 28.5909 31.5643C28.5873 31.4973 28.5873 31.4302 28.5909 31.3632C28.5944 31.3385 28.5944 31.3134 28.5909 31.2887H28.1067C27.951 31.311 27.793 31.311 27.6374 31.2887C27.5274 31.2699 27.423 31.2266 27.3319 31.1621C27.3319 31.1621 27.2947 31.2217 27.2798 31.244L27.2202 31.3185L27.1531 31.4004L27.1085 31.5047ZM31.3025 21.433V21.4702L31.5484 21.6863C31.7439 21.855 31.9532 22.007 32.1741 22.1407C32.4498 22.3195 32.7254 22.4759 33.0085 22.6323C33.0979 22.677 33.1947 22.7217 33.2767 22.7739L33.5821 22.9303C33.8183 23.0504 34.0685 23.1405 34.327 23.1985L34.6846 23.2581H35.0348C35.1455 23.2517 35.2553 23.2342 35.3625 23.206L35.5339 23.1315C35.5773 23.1103 35.6154 23.0797 35.6456 23.0421C35.6201 23.0199 35.5893 23.0045 35.5562 22.9974C35.3188 22.9303 35.085 22.8507 34.856 22.759C34.398 22.5721 33.9504 22.3607 33.5151 22.1258C33.2022 21.947 32.8967 21.7682 32.5988 21.5671C32.4394 21.4637 32.2875 21.3492 32.1443 21.2244C32.1207 21.2135 32.0935 21.2135 32.0698 21.2244L31.9209 21.284C31.7839 21.3421 31.6417 21.387 31.4962 21.4181H31.4366C31.3914 21.413 31.3456 21.4181 31.3025 21.433ZM21.2382 21.433C21.1994 21.3733 21.1372 21.3327 21.0669 21.3212C20.9653 21.2993 20.8657 21.2695 20.7689 21.2318L20.5827 21.1573H20.4858C20.3368 21.2765 20.1804 21.3883 20.0239 21.4926C19.4695 21.8633 18.8838 22.1849 18.2733 22.4536C17.9462 22.605 17.6104 22.7368 17.2676 22.8484L17.059 22.908C17.024 22.9186 16.9929 22.9394 16.9696 22.9676C16.9584 22.9832 16.9584 23.0041 16.9696 23.0197C16.983 23.0407 17.0008 23.0585 17.0218 23.0719C17.0517 23.101 17.0872 23.1237 17.1261 23.1389C17.1851 23.169 17.2477 23.1915 17.3123 23.206C17.4331 23.242 17.5587 23.2596 17.6848 23.2581H17.953C18.0857 23.243 18.2175 23.2206 18.3478 23.1911C18.6052 23.1227 18.8549 23.0278 19.0928 22.908L19.3758 22.7664L20.0761 22.3791C20.3294 22.2301 20.5752 22.0736 20.821 21.9023C20.9954 21.7758 21.1621 21.639 21.3202 21.4926C21.3202 21.4926 21.2308 21.4404 21.2382 21.4181V21.433ZM16.0235 22.8111H16.4333C16.5819 22.7896 16.7288 22.7572 16.8728 22.7143C17.1433 22.6369 17.4094 22.5449 17.6699 22.4387C18.155 22.2415 18.6276 22.0151 19.0853 21.7608C19.3783 21.5969 19.6614 21.4181 19.9346 21.2244L20.0686 21.1275C19.961 21.0843 19.8624 21.0211 19.7781 20.9413H19.6962C19.4996 21.0744 19.2956 21.1963 19.0853 21.3063C18.8097 21.4404 18.5266 21.5596 18.2435 21.6639C17.9604 21.7682 17.4986 21.9172 17.1112 22.014C16.7238 22.1109 16.5376 22.1556 16.247 22.2077L15.815 22.2897L15.4499 22.3418L15.1222 22.3791H15.0551C15.0184 22.3959 14.9994 22.437 15.0104 22.4759V22.5281C15.0367 22.5701 15.0694 22.6078 15.1073 22.6398C15.1509 22.6748 15.1984 22.7048 15.2488 22.7292C15.3226 22.7666 15.4 22.7966 15.4797 22.8186C15.6612 22.8357 15.8441 22.8282 16.0235 22.7962V22.8111ZM32.7999 20.837L32.7031 20.9115C32.6426 20.9653 32.5715 21.0059 32.4945 21.0307L32.785 21.2318C33.1982 21.5075 33.6287 21.7563 34.0738 21.9768C34.4655 22.1796 34.8713 22.3539 35.288 22.4983C35.5309 22.5861 35.7799 22.6559 36.033 22.7068C36.1335 22.7295 36.2356 22.7445 36.3384 22.7515H36.7109C36.8502 22.7448 36.9879 22.7198 37.1206 22.677C37.2115 22.6527 37.2973 22.6124 37.3739 22.5579C37.4185 22.5291 37.4587 22.494 37.4931 22.4536C37.516 22.4273 37.5337 22.397 37.5452 22.3642C37.5587 22.3359 37.5587 22.3031 37.5452 22.2748H37.1951L36.6811 22.1928L36.0181 22.0662C35.5935 21.9693 35.1763 21.8576 34.7666 21.7235C34.422 21.6132 34.0837 21.4839 33.7534 21.3361C33.4462 21.1962 33.152 21.0292 32.8744 20.837H32.7999ZM32.5317 23.3773C32.6158 23.3887 32.701 23.3887 32.785 23.3773C32.8727 23.3613 32.9579 23.3338 33.0383 23.2954C33.0808 23.2724 33.1208 23.2449 33.1575 23.2134C33.1812 23.1937 33.1993 23.168 33.2096 23.1389C33.2259 23.1195 33.2259 23.0913 33.2096 23.0719C33.1978 23.0351 33.1706 23.0052 33.1351 22.9899L32.8446 22.8335C32.5541 22.677 32.2635 22.5057 31.9879 22.3269C31.7272 22.1578 31.4783 21.9711 31.2429 21.7682L31.0493 21.5894H31.012C30.9584 21.6043 30.9017 21.6043 30.8481 21.5894H30.714L30.5799 21.649L30.4086 21.7086C30.2861 21.7349 30.1614 21.7499 30.0361 21.7533H29.8499V21.798C30.0074 21.9778 30.1766 22.1471 30.3564 22.3046C30.7116 22.611 31.1109 22.8621 31.5409 23.0495C31.7275 23.1313 31.9191 23.2009 32.1145 23.2581C32.2474 23.317 32.3878 23.3571 32.5317 23.3773ZM19.942 23.3773H20.0984C20.1966 23.3646 20.2937 23.3447 20.389 23.3177C20.6263 23.2563 20.8562 23.1688 21.0743 23.057C21.2852 22.9551 21.4871 22.8354 21.6777 22.6994C22.0212 22.4549 22.3361 22.1725 22.6164 21.8576C22.6402 21.8379 22.6582 21.8122 22.6685 21.7831C22.6685 21.7831 22.6685 21.7831 22.5791 21.7831C22.4552 21.7939 22.3306 21.7939 22.2067 21.7831C22.1011 21.7682 21.9982 21.7381 21.9012 21.6937L21.7597 21.6416C21.7188 21.6268 21.674 21.6268 21.633 21.6416C21.5794 21.6561 21.5228 21.6561 21.4692 21.6416C21.4692 21.6416 21.4692 21.6416 21.4245 21.6416L21.3649 21.6937C21.2457 21.8054 21.119 21.9172 20.9849 22.0215C20.7487 22.2097 20.4998 22.3814 20.24 22.5355C19.9643 22.6994 19.6813 22.8558 19.3982 23.0048L19.3237 23.0421C19.2939 23.0605 19.2725 23.09 19.2641 23.124C19.2571 23.1407 19.2571 23.1595 19.2641 23.1762C19.2736 23.2 19.2862 23.2225 19.3013 23.2432L19.3982 23.3177L19.5621 23.3922C19.6994 23.4035 19.8376 23.3934 19.9718 23.3624L19.942 23.3773ZM19.5248 20.6433C19.4697 20.5905 19.4221 20.5303 19.3833 20.4645C19.1409 20.5889 18.8922 20.7008 18.6383 20.7998C18.2659 20.9339 17.8934 21.0456 17.5135 21.1499C17.1335 21.2542 16.8579 21.3138 16.5301 21.3808L16.0459 21.4702L15.5766 21.5447L15.2115 21.5969H14.7571C14.5783 21.5969 14.3921 21.5969 14.2059 21.5969H13.9228C13.9193 21.6116 13.9193 21.6269 13.9228 21.6416C13.9307 21.698 13.9568 21.7504 13.9973 21.7906C14.0407 21.8406 14.094 21.8811 14.1537 21.9097C14.2354 21.9515 14.3236 21.9792 14.4144 21.9917C14.5703 22.0101 14.7279 22.0101 14.8838 21.9917H15.4946L15.9044 21.9321C16.1129 21.9321 16.3141 21.865 16.5152 21.8203C16.9398 21.731 17.357 21.6267 17.7667 21.5C18.1261 21.3873 18.4792 21.2555 18.8246 21.1052C19.0828 20.9875 19.3319 20.8506 19.5695 20.6955L19.6515 20.6433H19.5248ZM32.934 20.6433C32.9286 20.6551 32.9286 20.6687 32.934 20.6806L33.232 20.8668C33.5146 21.0268 33.8084 21.1662 34.111 21.284C34.6953 21.5091 35.2954 21.6908 35.9064 21.8278C36.0926 21.8278 36.2863 21.9097 36.48 21.9395L36.845 21.9991L37.1355 22.0438H37.7464C37.8555 22.0512 37.965 22.0512 38.0742 22.0438C38.1689 22.0357 38.2619 22.0131 38.3498 21.9768C38.4091 21.9602 38.4648 21.9323 38.5137 21.8948C38.5558 21.8652 38.5913 21.8272 38.618 21.7831C38.6278 21.7415 38.6278 21.6981 38.618 21.6565H37.2175L36.7035 21.5745C36.4949 21.5745 36.2937 21.5 36.0926 21.4628L35.2061 21.2542C34.7889 21.1424 34.3717 21.0232 33.962 20.8743C33.682 20.7743 33.4084 20.6574 33.1426 20.5241C33.102 20.591 33.0546 20.6534 33.001 20.7104L32.934 20.6433ZM14.109 21.3883H14.7795C14.9061 21.3883 15.0328 21.3883 15.152 21.3436L15.5691 21.284L16.1204 21.1871L16.8653 21.0232C17.2825 20.919 17.6922 20.8072 18.102 20.6657C18.3559 20.5838 18.6046 20.4868 18.8469 20.3751L18.9214 20.3304H18.9736C18.8395 20.3304 18.7054 20.3304 18.5787 20.3304H18.3776L18.1616 20.2857C18.1347 20.2788 18.1065 20.2788 18.0796 20.2857C17.9637 20.3523 17.8414 20.4072 17.7146 20.4496C17.5269 20.518 17.3354 20.5752 17.141 20.621C16.7462 20.7178 16.3513 20.7849 15.9491 20.8445L15.4946 20.9041H14.772C14.6603 20.9041 14.5485 20.9041 14.4293 20.9041H13.6993C13.5503 20.9041 13.3939 20.9041 13.2449 20.9041H13.0735C12.9471 20.9151 12.82 20.9151 12.6936 20.9041C12.7077 20.9496 12.7334 20.9906 12.7681 21.0232C12.8289 21.0881 12.8993 21.1434 12.9767 21.1871C13.0843 21.2471 13.1996 21.2922 13.3194 21.3212C13.49 21.3648 13.6648 21.3898 13.8408 21.3957L14.109 21.3883ZM38.4764 21.3883H38.7744C38.9076 21.3861 39.0401 21.3686 39.1692 21.3361C39.2998 21.308 39.4254 21.2603 39.5417 21.1946C39.6161 21.1589 39.6841 21.111 39.7429 21.053L39.8099 20.9711C39.7454 20.9748 39.6807 20.9748 39.6162 20.9711H37.4037L37.0163 20.9264L36.5545 20.8668L35.9734 20.77C35.7052 20.7178 35.4445 20.6582 35.1763 20.5912C35.0013 20.5428 34.8296 20.483 34.6623 20.4124C34.5706 20.3808 34.4831 20.3383 34.4015 20.2857C34.3824 20.2783 34.3611 20.2783 34.3419 20.2857C34.195 20.3214 34.0456 20.3463 33.895 20.3602H33.5002L33.6864 20.4496C34.0369 20.5975 34.395 20.7268 34.7591 20.837C35.4121 21.0313 36.0764 21.1856 36.7481 21.2989C36.9865 21.3436 37.2175 21.3734 37.4484 21.4032H37.8805C38.0194 21.4103 38.1587 21.4103 38.2977 21.4032L38.4764 21.3883ZM29.4476 21.7533H29.0528C28.9599 21.7554 28.8695 21.7838 28.792 21.8352L28.6952 21.8948C28.6404 21.9176 28.5787 21.9176 28.5239 21.8948H28.3898V21.9395C28.4941 22.096 28.5984 22.2524 28.7176 22.4014C28.8066 22.5242 28.9063 22.6388 29.0155 22.7441C29.1435 22.8836 29.2887 23.0062 29.4476 23.1091L29.5221 23.1613C29.8112 23.3339 30.1337 23.443 30.4682 23.4816H30.7066C30.8253 23.4965 30.9454 23.4965 31.0642 23.4816C31.1289 23.4756 31.192 23.458 31.2504 23.4294C31.2881 23.4162 31.3215 23.393 31.3472 23.3624C31.37 23.3464 31.3859 23.3225 31.3919 23.2954C31.407 23.2728 31.407 23.2434 31.3919 23.2209H31.3323C31.1918 23.1511 31.055 23.074 30.9226 22.9899C30.6562 22.8178 30.4067 22.6208 30.1777 22.4014C29.9585 22.2008 29.752 21.9869 29.5593 21.7608L29.4476 21.7533ZM23.1974 21.7533H22.9963L22.9293 21.8278C22.6828 22.147 22.4059 22.4414 22.1024 22.7068C21.8155 22.9438 21.5002 23.144 21.1637 23.3028H21.119C21.104 23.3254 21.104 23.3548 21.119 23.3773C21.115 23.397 21.115 23.4172 21.119 23.4369L21.1861 23.489C21.2278 23.515 21.2729 23.5351 21.3202 23.5486C21.4069 23.5559 21.4941 23.5559 21.5809 23.5486C21.7295 23.5636 21.8793 23.5636 22.0279 23.5486C22.1696 23.5332 22.3094 23.5032 22.445 23.4592C22.6629 23.3982 22.8675 23.2971 23.0485 23.1613L23.1602 23.0868C23.3166 22.9749 23.4613 22.8476 23.5923 22.7068C23.7868 22.4851 23.9636 22.2485 24.1212 21.9991H23.9796C23.9118 22.0075 23.8433 21.9916 23.786 21.9544L23.6966 21.9023C23.6565 21.8734 23.6108 21.8531 23.5625 21.8427C23.5129 21.8391 23.4631 21.8391 23.4135 21.8427L23.1974 21.7533ZM35.2433 19.5855H35.3178C35.5398 19.6574 35.7663 19.7147 35.9957 19.7568C36.2043 19.7916 36.4204 19.8214 36.6439 19.8462H37.4931C37.6644 19.8462 37.8358 19.8462 38.0071 19.8462H40.2122C40.341 19.8446 40.469 19.8245 40.5921 19.7866C40.6963 19.7624 40.7933 19.7139 40.8752 19.6451C40.9362 19.5989 40.9869 19.5406 41.0242 19.4737C41.039 19.4176 41.039 19.3586 41.0242 19.3024C41.0109 19.2925 40.9927 19.2925 40.9795 19.3024L40.7039 19.3397H39.2139C38.9011 19.3397 38.5882 19.3397 38.2828 19.3397H36.7779L36.3235 19.295L35.9362 19.2503L35.5115 19.3471H35.4147C35.3887 19.4242 35.3564 19.499 35.3178 19.5706L35.2433 19.5855ZM13.4907 19.9729H15.8522L16.2917 19.9058C16.4902 19.8751 16.6867 19.8328 16.8802 19.7792L17.1186 19.7047C17.0776 19.6378 17.0475 19.5649 17.0292 19.4886C17.0292 19.4886 17.0292 19.4886 16.9771 19.4886H16.7983L16.4407 19.5333L16.0459 19.578H15.219C15.0924 19.578 14.9657 19.578 14.8316 19.578C14.6975 19.578 14.407 19.578 14.191 19.578H11.8965L11.5613 19.5333H11.4868C11.479 19.5802 11.479 19.628 11.4868 19.6749C11.5179 19.7372 11.561 19.7929 11.6134 19.8388C11.6709 19.8946 11.7394 19.9377 11.8146 19.9654C11.9299 20.0169 12.0535 20.0472 12.1796 20.0548H13.595L13.4907 19.9729ZM19.8675 27.333C19.8675 27.333 19.8675 27.333 19.8675 27.3777C20.1321 27.6317 20.4775 27.7846 20.8434 27.8098C21.0008 27.8234 21.1594 27.8108 21.3127 27.7725C21.7421 27.6779 22.1123 27.4077 22.3333 27.0276C22.4069 26.9055 22.4598 26.7721 22.4897 26.6327H22.3259C22.2005 26.6176 22.0761 26.5953 21.9534 26.5657C21.8231 26.5396 21.6889 26.5396 21.5585 26.5657L21.3276 26.6029L20.9775 26.6551H20.821C20.7431 26.6759 20.6698 26.7113 20.605 26.7594C20.5382 26.7999 20.4757 26.8474 20.4188 26.9009L20.24 27.0797L20.0835 27.2436C20.0276 27.3036 19.9622 27.3539 19.8899 27.3926L19.8675 27.333ZM34.7666 20.0548L34.8709 20.0921C35.0819 20.1722 35.2985 20.237 35.519 20.2857C35.6978 20.3304 35.884 20.3677 36.0702 20.3975L36.5023 20.472L36.9195 20.5316L37.3367 20.5837H38.2008C38.4094 20.5837 38.6254 20.5837 38.834 20.5837C39.0426 20.5837 39.3033 20.5837 39.5343 20.5837C39.6726 20.579 39.81 20.559 39.944 20.5241C40.0671 20.4979 40.1836 20.4473 40.2867 20.3751C40.3287 20.3489 40.3664 20.3162 40.3984 20.2783C40.4292 20.2468 40.4521 20.2085 40.4655 20.1666H37.1206L36.6811 20.1219L36.3384 20.0772L35.7797 19.9803C35.5646 19.933 35.353 19.8708 35.1465 19.7941C35.1309 19.7829 35.1099 19.7829 35.0944 19.7941L34.9752 19.8909C34.9148 19.9329 34.8498 19.9679 34.7815 19.9952C34.7815 19.9952 34.7666 20.0399 34.7666 20.0548ZM13.4833 20.2336H12.0678V20.2708C12.0908 20.3175 12.1209 20.3603 12.1572 20.3975C12.2075 20.4462 12.2654 20.4865 12.3286 20.5167C12.422 20.568 12.5224 20.6057 12.6266 20.6284C12.7541 20.6546 12.8838 20.6695 13.0139 20.6731H15.4127C15.4772 20.6772 15.5419 20.6772 15.6064 20.6731L15.9267 20.6284L16.3141 20.5688L16.843 20.472C17.0516 20.4273 17.2602 20.3751 17.4688 20.3155C17.5704 20.2849 17.67 20.2475 17.7667 20.2038H17.8114C17.6925 20.1477 17.5821 20.075 17.4837 19.9878C17.4681 19.9766 17.4471 19.9766 17.4315 19.9878L17.2006 20.0697C16.9568 20.145 16.7078 20.2022 16.4556 20.241C16.2694 20.241 16.0831 20.3006 15.8969 20.3155H14.4815L13.4833 20.2336ZM28.1067 21.9619H27.6895C27.6127 21.968 27.5363 21.9469 27.4735 21.9023L27.399 21.8501L27.317 21.7906L27.2202 21.7161L27.0414 21.6043V21.9619C27.028 21.9902 27.028 22.023 27.0414 22.0513L27.3766 22.5206C27.4726 22.661 27.5771 22.7953 27.6895 22.9229C27.8073 23.0606 27.937 23.1877 28.0769 23.3028C28.1929 23.3941 28.3207 23.4692 28.4568 23.5263C28.6201 23.6014 28.7987 23.6371 28.9783 23.6306C29.0699 23.6222 29.16 23.6022 29.2465 23.571C29.2863 23.5597 29.324 23.5421 29.3582 23.5188C29.3582 23.5188 29.3582 23.4741 29.3582 23.4667H29.3135C29.1654 23.3671 29.0281 23.2522 28.9038 23.124C28.7625 22.9786 28.6306 22.8243 28.509 22.6621C28.3823 22.4908 28.2631 22.312 28.1439 22.1332C28.1554 22.0734 28.1419 22.0115 28.1067 21.9619ZM24.4266 21.9619C24.428 21.9792 24.428 21.9967 24.4266 22.014L24.3447 22.1407C24.2084 22.3509 24.0591 22.5525 23.8977 22.7441C23.7056 22.9909 23.477 23.2069 23.2198 23.3848C23.2198 23.3848 23.2198 23.4443 23.2198 23.4667L23.2794 23.5039H23.3762C23.4791 23.5399 23.5876 23.5576 23.6966 23.5561H23.7711C23.8749 23.5445 23.9773 23.522 24.0765 23.489C24.2431 23.4234 24.3988 23.333 24.5384 23.2209C24.6615 23.1213 24.7761 23.0116 24.881 22.8931C25.1269 22.61 25.3355 22.3046 25.5515 21.9991C25.5557 21.9795 25.5557 21.9592 25.5515 21.9395C25.5515 21.8278 25.5515 21.7086 25.5515 21.5969L25.41 21.6937C25.3521 21.7222 25.2993 21.76 25.2535 21.8054L25.1418 21.8948C25.0707 21.9404 24.9877 21.9637 24.9034 21.9619H24.4266ZM27.7044 25.9846C27.7318 26.0039 27.7619 26.019 27.7938 26.0293C27.8892 26.0665 27.9814 26.1113 28.0694 26.1634C28.1588 26.2156 28.129 26.2156 28.2184 26.1634L28.2855 26.1262C28.3229 26.1083 28.3579 26.0857 28.3898 26.0591C28.6779 25.8003 28.8452 25.4332 28.8516 25.046C28.8577 24.9256 28.8452 24.805 28.8144 24.6884C28.7723 24.4766 28.686 24.2761 28.5611 24.0999C28.445 23.9409 28.2914 23.813 28.1141 23.7274L27.9577 23.6604C27.7536 23.5695 27.533 23.5213 27.3096 23.5188H27.0265C26.9084 23.5333 26.7914 23.5557 26.6764 23.5859C26.6318 23.5928 26.5888 23.608 26.5497 23.6306C26.5031 23.6535 26.4603 23.6837 26.4231 23.72C26.3963 23.7475 26.376 23.7806 26.3635 23.8168C26.3525 23.8533 26.3525 23.8921 26.3635 23.9286C26.3801 23.9718 26.4159 24.0048 26.4603 24.018C26.5089 24.0329 26.5608 24.0329 26.6093 24.018H26.6987C26.8277 24.0103 26.9571 24.0103 27.0861 24.018C27.1853 24.0105 27.2849 24.0105 27.3841 24.018L27.7044 24.0701H27.8385C28.0444 24.1282 28.2153 24.272 28.3078 24.4649C28.3624 24.5743 28.3953 24.6932 28.4047 24.8151C28.4195 24.9338 28.4195 25.0539 28.4047 25.1726C28.3846 25.2813 28.3495 25.3866 28.3004 25.4855C28.2399 25.5723 28.1577 25.6417 28.062 25.6867L27.7491 25.8878H27.6895L27.7044 25.9846ZM26.9595 25.0385C26.9595 25.1652 26.9595 25.2993 26.9595 25.4259C26.9595 25.5526 26.9595 25.642 26.9595 25.7463L27.2947 25.8058C27.3291 25.8129 27.3646 25.8129 27.399 25.8058C27.5182 25.7388 27.6448 25.6718 27.7566 25.5973L27.9651 25.4632C28.0015 25.4442 28.0343 25.419 28.062 25.3887L28.1067 25.2769C28.1572 25.1363 28.1751 24.986 28.1588 24.8374C28.1497 24.7411 28.1218 24.6475 28.0769 24.5618C28.0245 24.4663 27.9401 24.3924 27.8385 24.3532L27.7342 24.3159H27.5182C27.3548 24.2974 27.1899 24.2974 27.0265 24.3159C26.9371 24.5469 26.9371 24.7853 26.9297 25.0236L26.9595 25.0385ZM25.5664 24.2936C25.4058 24.2713 25.2428 24.2713 25.0822 24.2936H24.9183C24.8574 24.2986 24.7973 24.3111 24.7395 24.3308C24.5862 24.3654 24.4603 24.4745 24.4043 24.6214C24.3791 24.6836 24.3616 24.7486 24.3521 24.8151C24.3336 24.931 24.3336 25.0492 24.3521 25.1652C24.3648 25.249 24.3926 25.3297 24.4341 25.4036C24.4532 25.4399 24.4815 25.4707 24.516 25.493C24.538 25.4986 24.5611 25.4986 24.5831 25.493H24.9108C25.0148 25.504 25.1197 25.504 25.2237 25.493H25.5664V25.4334C25.5664 25.113 25.5664 24.7927 25.5664 24.4724C25.5625 24.4153 25.5625 24.3581 25.5664 24.301C25.5664 24.301 25.5366 24.2712 25.5366 24.2563L25.5664 24.2936ZM24.0765 24.9641C24.0659 24.875 24.0659 24.785 24.0765 24.6959C24.1036 24.5859 24.1516 24.4822 24.218 24.3904C24.3243 24.2433 24.4805 24.14 24.6576 24.0999L24.9332 24.0478H25.7899C25.846 24.0626 25.9051 24.0626 25.9612 24.0478H26.0432C26.0768 24.0229 26.0984 23.9851 26.1028 23.9435C26.1039 23.8903 26.0882 23.8382 26.0581 23.7945C26.0281 23.7546 25.99 23.7216 25.9463 23.6976C25.8969 23.6713 25.8443 23.6513 25.7899 23.638C25.6429 23.6024 25.4935 23.5775 25.3429 23.5635C25.1427 23.5435 24.9406 23.5612 24.747 23.6157C24.5979 23.6559 24.4531 23.7108 24.3149 23.7796C24.188 23.8419 24.0742 23.9279 23.9796 24.0329C23.7567 24.28 23.6229 24.5947 23.5997 24.9268C23.5997 25.0087 23.5997 25.0907 23.5997 25.1726C23.6073 25.2582 23.6222 25.3429 23.6444 25.4259C23.6474 25.4451 23.6625 25.4602 23.6817 25.4632H24.1361C24.1351 25.4458 24.1351 25.4284 24.1361 25.411C24.0724 25.2621 24.0346 25.1034 24.0243 24.9417L24.0765 24.9641ZM26.3114 39.1182L26.1773 39.3119C26.0953 39.431 26.0134 39.5577 25.924 39.6769L25.7675 39.9078C25.6799 40.0369 25.6003 40.1712 25.5292 40.3101C25.4639 40.4293 25.409 40.5539 25.3653 40.6826C25.3057 40.8676 25.2829 41.0624 25.2982 41.2562C25.3018 41.2784 25.3018 41.301 25.2982 41.3232C25.3054 41.4229 25.328 41.521 25.3653 41.6138C25.4107 41.731 25.4762 41.8394 25.559 41.9341C25.6226 42.0115 25.6924 42.0838 25.7675 42.1501C25.8942 42.2768 26.0357 42.3885 26.1698 42.5002C26.2475 42.5633 26.3296 42.6206 26.4156 42.6716L26.5795 42.7833L26.7583 42.91C26.8725 43.014 26.9595 43.1445 27.0116 43.2899C27.0476 43.3877 27.0653 43.4912 27.0638 43.5953C27.0726 43.7233 27.0413 43.8509 26.9744 43.9604C26.9299 44.0329 26.8747 44.0982 26.8105 44.154C26.7264 44.227 26.6339 44.2896 26.5348 44.3403H26.4529C26.5122 44.3486 26.5724 44.3486 26.6317 44.3403C26.7401 44.3125 26.8433 44.2672 26.9371 44.2062C27.0813 44.1036 27.1843 43.9531 27.2276 43.7816C27.2611 43.6496 27.2611 43.5113 27.2276 43.3793C27.1982 43.251 27.1396 43.1312 27.0563 43.0292L26.885 42.8504L26.5721 42.6641L26.2667 42.4034C26.1297 42.29 26.0049 42.1627 25.8942 42.0235C25.7898 41.9017 25.7067 41.7631 25.6483 41.6138C25.579 41.4463 25.546 41.266 25.5515 41.0848C25.5618 40.9485 25.5868 40.8136 25.626 40.6826C25.6847 40.5154 25.7622 40.3555 25.8569 40.2058C25.9627 40.0307 26.085 39.8661 26.222 39.7141L26.3561 39.5651C26.3667 39.5467 26.3667 39.524 26.3561 39.5055C26.357 39.4882 26.357 39.4708 26.3561 39.4534C26.3561 39.3565 26.3188 39.2597 26.2965 39.1629V39.066L26.3114 39.1182ZM26.8775 31.6686H26.8254L26.6242 31.7431C26.5789 31.7489 26.5368 31.7699 26.505 31.8027C26.505 31.8027 26.505 31.8027 26.505 31.8549L26.5572 31.8996C26.6985 32.037 26.8304 32.1839 26.952 32.3391C27.0702 32.4895 27.1726 32.6518 27.2574 32.8233C27.3528 33.0121 27.4134 33.2165 27.4362 33.4267C27.4618 33.5846 27.4618 33.7456 27.4362 33.9035C27.3888 34.083 27.3187 34.2557 27.2276 34.4175C27.2019 34.4601 27.172 34.5001 27.1383 34.5367L27.0861 34.6037V34.6559C27.1383 34.7453 27.2053 34.8347 27.2649 34.9241C27.3245 35.0135 27.2649 34.9241 27.3096 34.9241C27.3119 34.9043 27.3119 34.8843 27.3096 34.8645C27.4169 34.6848 27.5067 34.4952 27.5778 34.2983C27.7061 33.9684 27.7694 33.6168 27.764 33.2628C27.7608 32.7768 27.5868 32.3074 27.2723 31.9368C27.1402 31.8268 26.9981 31.7296 26.8477 31.6463L26.8775 31.6686ZM26.2443 24.2191H26.2071C26.1407 24.2649 26.0638 24.2931 25.9836 24.301H25.8271V24.9864C25.8271 25.1503 25.8271 25.3142 25.8271 25.4706C25.8271 25.4706 25.8271 25.5153 25.8271 25.5377L26.0506 25.5898L26.5348 25.6941H26.5944C26.5944 25.4781 26.5944 25.262 26.5944 25.046C26.5944 24.83 26.5944 24.6065 26.5944 24.3904V24.3234H26.5721C26.4699 24.3218 26.3708 24.2879 26.289 24.2265L26.2443 24.2191ZM21.499 25.3738H21.8491L22.1918 25.3365H22.229C22.1578 25.254 22.0806 25.1768 21.9981 25.1056C21.7509 24.9062 21.4502 24.7843 21.1339 24.7555C21.0175 24.7442 20.9002 24.7442 20.7838 24.7555C20.5378 24.791 20.3032 24.8827 20.0984 25.0236L20.2549 25.0981L20.4337 25.2024C20.5711 25.2817 20.7231 25.3324 20.8806 25.3514L21.3723 25.3887L21.499 25.3738ZM26.8477 15.3914C26.8518 15.3393 26.8518 15.287 26.8477 15.235C26.7991 15.0567 26.6632 14.9153 26.487 14.8596C26.3109 14.8039 26.1184 14.8414 25.9761 14.9593C25.861 15.0538 25.7884 15.1904 25.7744 15.3386C25.7605 15.4869 25.8062 15.6346 25.9016 15.749C26.0798 15.98 26.4085 16.0293 26.6466 15.8607C26.786 15.7319 26.8506 15.5412 26.8179 15.3542L26.8477 15.3914ZM26.1028 32.8382V32.8904C26.1031 32.9623 26.0878 33.0334 26.0581 33.0989L26.0134 33.1883L25.9761 33.2554C25.9729 33.2701 25.9729 33.2854 25.9761 33.3001V33.3597C25.9729 33.3744 25.9729 33.3896 25.9761 33.4044L26.4529 33.9184V33.8811C26.4529 33.7768 26.4529 33.6726 26.4529 33.5757C26.4529 33.4789 26.4529 33.2926 26.4529 33.1585C26.4529 33.0244 26.4529 32.868 26.4529 32.719C26.4529 32.57 26.4529 32.4806 26.4529 32.3614C26.4604 32.3423 26.4604 32.321 26.4529 32.3018L26.289 32.1305C26.289 32.1305 26.289 32.1752 26.289 32.205C26.2662 32.3258 26.2364 32.4452 26.1996 32.5626C26.1581 32.6486 26.1056 32.7287 26.0432 32.801L26.1028 32.8382ZM26.7956 33.4863C26.7956 33.7247 26.7956 33.9631 26.7956 34.2313C26.7918 34.2535 26.7918 34.2761 26.7956 34.2983C26.7956 34.2983 26.8626 34.3803 26.8924 34.4175L26.9371 34.3654C27.0041 34.2559 27.0567 34.1382 27.0936 34.0152C27.1381 33.8935 27.1608 33.7649 27.1606 33.6353C27.1663 33.5066 27.1487 33.3778 27.1085 33.2554C27.0471 33.0556 26.954 32.8669 26.8328 32.6967C26.8328 32.8233 26.8328 32.9425 26.8328 33.0691C26.8328 33.1958 26.736 33.315 26.736 33.4491L26.7956 33.4863ZM26.2518 40.2579C26.1808 40.3527 26.1208 40.4551 26.073 40.5634C26.0686 40.5805 26.0686 40.5984 26.073 40.6155C26.073 40.8763 26.073 41.1295 26.073 41.3605V41.5989C26.0653 41.6256 26.0653 41.654 26.073 41.6808C26.1191 41.7523 26.1714 41.8196 26.2294 41.8819L26.2816 41.8298C26.2915 41.806 26.2915 41.7791 26.2816 41.7553C26.2816 41.6063 26.2816 41.4499 26.2816 41.3009C26.2816 41.1519 26.2816 41.0699 26.2816 40.9507C26.2816 40.8316 26.2816 40.5932 26.2816 40.4218C26.2816 40.2505 26.2816 40.3473 26.2369 40.2579C26.2229 40.2445 26.2079 40.232 26.1922 40.2207L26.2518 40.2579ZM26.3263 16.7398H26.7732C26.7809 16.6979 26.7809 16.655 26.7732 16.6131C26.7511 16.5334 26.7159 16.4578 26.6689 16.3896C26.6221 16.33 26.5565 16.288 26.4827 16.2704C26.3775 16.2443 26.2675 16.2443 26.1624 16.2704C26.105 16.2891 26.0537 16.3225 26.0134 16.3673C25.9351 16.4466 25.8831 16.548 25.8644 16.6578V16.7547H26.3039L26.3263 16.7398ZM25.8271 36.6747L25.5813 36.4512C25.4691 36.6435 25.3744 36.8455 25.2982 37.0546C25.2523 37.1971 25.2248 37.3448 25.2163 37.4942H25.261C25.3279 37.4269 25.4095 37.3759 25.4994 37.3452L25.6036 37.3005C25.6116 37.2866 25.6116 37.2696 25.6036 37.2558C25.6255 37.1141 25.6789 36.9791 25.7601 36.861C25.7601 36.861 25.8048 36.7939 25.8197 36.7567L25.8271 36.6747ZM25.9687 42.679L25.924 42.6418C25.924 42.6418 25.924 42.6418 25.8644 42.6418L25.5962 42.8653L25.4696 42.9919C25.4195 43.0372 25.3767 43.0899 25.3429 43.1484C25.2846 43.2385 25.2465 43.3401 25.2312 43.4463C25.2199 43.5204 25.2199 43.5958 25.2312 43.6698C25.2347 43.845 25.3039 44.0124 25.4249 44.1391C25.4891 44.2046 25.5649 44.2576 25.6483 44.2956C25.7603 44.3517 25.8814 44.387 26.0059 44.3999L25.8271 44.3105C25.7172 44.2513 25.6168 44.1759 25.5292 44.087C25.4687 44.0231 25.4184 43.9502 25.3802 43.871C25.3409 43.7899 25.3229 43.7002 25.328 43.6102C25.3171 43.5262 25.3171 43.441 25.328 43.3569C25.3687 43.2029 25.4482 43.0618 25.559 42.9472C25.5951 42.9086 25.635 42.8736 25.6781 42.8429L25.8346 42.7312L25.9687 42.679ZM27.0042 22.8335V23.2581H27.4288L27.6597 23.2954H27.7044C27.5627 23.1604 27.4331 23.0134 27.317 22.8558C27.2202 22.7292 27.1308 22.6025 27.034 22.4834C27.0354 22.4635 27.0354 22.4436 27.034 22.4238V22.4834C26.9818 22.6025 26.9818 22.7068 26.9818 22.8335H27.0042ZM26.2592 16.9707H25.6185C25.5883 16.9705 25.5627 16.9929 25.559 17.0228C25.5497 17.0539 25.5554 17.0875 25.5743 17.1138C25.5933 17.14 25.6234 17.156 25.6558 17.1569H26.8626C26.8814 17.1663 26.9034 17.1663 26.9222 17.1569V17.1122C26.9295 17.0854 26.9295 17.0571 26.9222 17.0303C26.9185 17.0044 26.8962 16.9853 26.8701 16.9856H26.2443L26.2592 16.9707ZM26.2592 42.8876C26.2592 42.8876 26.2145 42.8876 26.1698 42.8876L26.0655 42.9547V43.0366C26.0655 43.3644 26.0655 43.6996 26.0655 44.0274V44.0647C26.1152 44.0829 26.1607 44.1107 26.1996 44.1466C26.1996 43.9678 26.1996 43.789 26.1996 43.6102C26.1996 43.4314 26.1996 43.2527 26.1996 43.0739L26.2592 42.8876ZM25.5143 22.8558C25.5143 22.7366 25.5143 22.6174 25.5143 22.4983L25.4621 22.5579C25.2871 22.8085 25.0929 23.0451 24.881 23.2656H25.0077C25.1289 23.2506 25.2515 23.2506 25.3727 23.2656H25.5366C25.5398 23.2458 25.5398 23.2257 25.5366 23.206L25.5143 22.8558ZM26.4901 43.5655C26.4901 43.6996 26.4901 43.8337 26.4901 43.9678C26.5621 43.9221 26.6232 43.861 26.6689 43.789C26.7211 43.724 26.7453 43.6409 26.736 43.5581C26.7432 43.5012 26.7432 43.4436 26.736 43.3867C26.7075 43.2619 26.6396 43.1496 26.5423 43.0664C26.5423 43.0664 26.5423 43.0664 26.5423 43.1111C26.505 43.2601 26.4976 43.3942 26.4901 43.5655ZM25.7452 43.5655V43.2527C25.721 43.2953 25.701 43.3402 25.6856 43.3867C25.6624 43.4539 25.6499 43.5243 25.6483 43.5953C25.6344 43.7136 25.6756 43.8317 25.7601 43.9157V43.871C25.7526 43.7294 25.7526 43.6326 25.7452 43.5655ZM26.1028 45.0554C26.1448 44.9582 26.1724 44.8553 26.1847 44.75C26.1884 44.7253 26.1884 44.7002 26.1847 44.6755C26.1514 44.7003 26.1134 44.7181 26.073 44.7277C26.0656 44.7494 26.0656 44.773 26.073 44.7947C26.0821 44.8862 26.1021 44.9762 26.1326 45.0629L26.1028 45.0554ZM26.4752 39.9227C26.4259 39.949 26.3866 39.9909 26.3635 40.0419C26.3649 40.0593 26.3649 40.0767 26.3635 40.0941L26.4007 40.1462V40.3101C26.4007 40.3101 26.4007 40.3548 26.4454 40.3622C26.4901 40.3697 26.3858 40.0717 26.3561 39.96L26.4752 39.9227ZM25.991 36.9429C25.957 36.9726 25.9402 37.0174 25.9463 37.0621V37.1515L26.1102 37.1142C26.0837 37.0491 26.0399 36.9925 25.9836 36.9504L25.991 36.9429ZM19.644 26.7072C19.5905 26.6591 19.5303 26.6189 19.4652 26.588C19.4817 26.6536 19.5016 26.7183 19.5248 26.7817L19.644 26.7072Z" fill="#00303C"/>
<path fill-rule="evenodd" clip-rule="evenodd" d="M26.803 23.8168C26.7641 23.828 26.7228 23.828 26.6838 23.8168C26.6616 23.8088 26.643 23.7929 26.6317 23.7721C26.617 23.7468 26.617 23.7155 26.6317 23.6902L26.6689 23.6455C26.7515 23.596 26.8546 23.596 26.9371 23.6455C26.9589 23.6608 26.9719 23.6858 26.9719 23.7125C26.9719 23.7392 26.9589 23.7642 26.9371 23.7796C26.9107 23.7893 26.8816 23.7893 26.8552 23.7796L26.803 23.8168Z" fill="#00303C"/>
<path fill-rule="evenodd" clip-rule="evenodd" d="M25.6185 23.5859C25.6529 23.5782 25.6885 23.5782 25.7228 23.5859C25.7514 23.5975 25.775 23.6185 25.7899 23.6455C25.8018 23.6689 25.8018 23.6966 25.7899 23.72C25.7785 23.7407 25.76 23.7566 25.7377 23.7647C25.6626 23.8019 25.5744 23.8019 25.4994 23.7647C25.4668 23.7505 25.4457 23.7183 25.4457 23.6827C25.4457 23.6472 25.4668 23.615 25.4994 23.6008C25.5368 23.5842 25.5782 23.5791 25.6185 23.5859Z" fill="#00303C"/>
</svg>
