<svg width="160" height="48" viewBox="0 0 160 48" fill="none" xmlns="http://www.w3.org/2000/svg">
<path d="M16.9071 4.00415C16.9438 3.98267 16.9893 3.98267 17.0261 4.00415L29.8742 11.4162C29.9098 11.4386 29.9319 11.4773 29.9332 11.5194V14.4096C29.9335 14.4315 29.9218 14.4518 29.9026 14.4623L16.9976 21.9038C16.9776 21.9144 16.966 21.9344 16.966 21.9554V24.8088C16.9654 24.8306 16.9768 24.8511 16.9958 24.8619C17.0148 24.8727 17.0382 24.8721 17.0566 24.8604L29.8436 17.4842C29.8623 17.4743 29.8848 17.4749 29.903 17.4856C29.9213 17.4963 29.9327 17.5157 29.9332 17.5369V20.3892C29.9328 20.4109 29.9213 20.4308 29.9026 20.4419L16.9966 27.8865C16.9776 27.8971 16.9671 27.9171 16.9671 27.9381V30.7926C16.9663 30.8143 16.9774 30.8346 16.9961 30.8456C17.0148 30.8566 17.0381 30.8565 17.0566 30.8452L29.8436 23.468C29.8622 23.4567 29.8854 23.4566 29.9041 23.4676C29.9228 23.4786 29.934 23.4989 29.9332 23.5206V26.3729C29.9338 26.3949 29.9219 26.4153 29.9026 26.4256L16.9976 33.8703C16.9776 33.8808 16.966 33.9019 16.966 33.923V43.9566C16.9665 43.9755 16.9559 43.9938 16.9389 44.0042C16.9219 44.0146 16.9008 44.0157 16.8828 44.0072L14.4023 42.5821C14.3844 42.5705 14.3739 42.5505 14.3739 42.5294V17.4663C14.3739 17.4452 14.3623 17.4242 14.3433 17.4136L11.8702 15.9875C11.8517 15.9762 11.8284 15.9761 11.8097 15.9871C11.791 15.9981 11.7799 16.0185 11.7807 16.0401V40.9653C11.7806 40.9871 11.7689 41.0071 11.75 41.018C11.7311 41.0289 11.7079 41.0288 11.689 41.0179L9.21591 39.5897C9.19695 39.5791 9.18642 39.5581 9.18642 39.537V14.4781C9.18642 14.456 9.17483 14.436 9.15798 14.4254L6.68274 12.9982C6.66435 12.9871 6.64135 12.9868 6.62272 12.9976C6.6041 13.0083 6.59279 13.0283 6.59321 13.0498V37.9718C6.59403 37.9935 6.58288 38.0139 6.56417 38.0249C6.54547 38.0359 6.52223 38.0357 6.50368 38.0245L4.03055 36.5973C4.01053 36.5878 4 36.5667 4 36.5457V11.4488L6.52685 9.98686C6.56596 9.96428 6.61414 9.96428 6.65325 9.98686L19.4918 17.3989C19.531 17.4215 19.5791 17.4215 19.6182 17.3989L22.0619 15.9896C22.0812 15.9794 22.0933 15.9593 22.0933 15.9374C22.0933 15.9156 22.0812 15.8955 22.0619 15.8853L9.277 8.50803C9.25823 8.49764 9.24657 8.47788 9.24657 8.45642C9.24657 8.43496 9.25823 8.4152 9.277 8.40481L11.7133 6.99656C11.7524 6.97398 11.8006 6.97398 11.8397 6.99656L24.6867 14.4065C24.7242 14.4267 24.7693 14.4267 24.8068 14.4065L27.2504 12.9972C27.2681 12.986 27.2788 12.9665 27.2788 12.9456C27.2788 12.9246 27.2681 12.9051 27.2504 12.8939L14.4634 5.51773C14.4446 5.50734 14.433 5.48758 14.433 5.46612C14.433 5.44466 14.4446 5.4249 14.4634 5.41451L16.9071 4.00415ZM87.9496 11.1349C91.5835 11.1349 94.7707 13.1541 94.9572 18.2636C94.9614 18.5259 94.7558 18.7437 94.4937 18.7545H92.1059C91.8614 18.7566 91.6581 18.5667 91.6435 18.3226C91.4834 15.5461 89.8171 14.2179 87.7284 14.2179C85.7198 14.2179 84.2146 15.3966 84.2146 17.282C84.2146 18.9104 85.1984 19.7951 87.7685 21.6005L91.3623 24.1937C93.8512 26.0001 95.2563 27.6306 95.2563 30.2027C95.2563 34.3674 91.8226 36.8406 87.7885 36.8406C83.9734 36.8406 80.9673 34.7593 80.6408 29.654C80.6314 29.5257 80.6761 29.3994 80.7642 29.3057C80.8523 29.212 80.9757 29.1595 81.1043 29.161H83.5321C83.7738 29.1666 83.9726 29.3531 83.9934 29.5939C84.2146 32.441 85.921 33.7586 87.9286 33.7586C89.8561 33.7586 91.6625 32.718 91.6625 30.2828C91.6625 28.7681 90.981 28.0245 89.0103 26.7079L84.8582 23.8219C82.3693 22.1513 80.703 20.287 80.703 17.4768C80.703 13.4511 84.0956 11.1349 87.9496 11.1349ZM64.26 11.4086C64.3822 11.4051 64.5006 11.4513 64.588 11.5367C64.6755 11.6221 64.7244 11.7395 64.7234 11.8617V30.0458C64.7234 32.304 66.4477 33.7376 68.4963 33.7376C70.545 33.7376 72.3114 32.304 72.3114 30.0458V11.8744C72.3429 11.618 72.5547 11.4218 72.8127 11.4099H75.4217C75.5437 11.4061 75.662 11.4522 75.7494 11.5374C75.8368 11.6226 75.8858 11.7397 75.8852 11.8617V30.11C75.8852 34.2547 72.4915 36.7879 68.5163 36.7879C64.6213 36.7879 61.2286 34.2347 61.2286 30.11V11.8617C61.2274 11.7398 61.2759 11.6226 61.3629 11.5371C61.45 11.4517 61.568 11.4054 61.69 11.4086H64.26ZM148.379 11.4487C152.756 11.4487 155.767 14.2169 155.767 18.3226C155.767 21.0528 154.321 23.33 151.671 24.6656C151.644 24.6743 151.622 24.6942 151.611 24.7203C151.602 24.7402 151.6 24.7622 151.604 24.7831L151.611 24.8035L155.967 35.9369C156.025 36.081 156.006 36.2444 155.917 36.3715C155.837 36.486 155.71 36.5572 155.572 36.567L155.526 36.568H152.815C152.553 36.5165 152.332 36.3454 152.215 36.1078L152.192 36.0559L148.338 25.5493C148.309 25.4659 148.236 25.4068 148.151 25.3946L148.118 25.3923H144.544C144.424 25.3923 144.324 25.4798 144.306 25.5951L144.303 25.6272V36.0559C144.304 36.1776 144.255 36.2943 144.167 36.3791C144.091 36.4534 143.991 36.4976 143.886 36.5048L143.841 36.5056H141.232C141.11 36.5091 140.993 36.4632 140.906 36.3784C140.83 36.3042 140.783 36.2059 140.772 36.1011L140.77 36.0559V11.9007C140.77 11.7791 140.819 11.6625 140.906 11.5775C140.982 11.503 141.081 11.4582 141.186 11.45L141.232 11.4487H148.379ZM50.5514 11.4486C55.1079 11.4486 57.9392 14.0989 57.9392 18.5385C57.9392 22.9338 54.7906 25.7475 50.6365 25.8033L50.5103 25.8042H46.6742C46.5539 25.8036 46.4535 25.8912 46.4349 26.0069L46.4319 26.0391V36.0938C46.4328 36.2155 46.3844 36.3323 46.2976 36.4177C46.2218 36.4923 46.1222 36.5373 46.017 36.5456L45.9716 36.5468H43.3616C43.1227 36.5209 42.936 36.3347 42.9061 36.1003L42.9024 36.0559V11.9007C42.9007 11.7786 42.9497 11.6616 43.0371 11.5764C43.1135 11.5018 43.2137 11.4572 43.3192 11.4496L43.3647 11.4486H50.5514ZM103.428 11.4475C103.55 11.444 103.668 11.4902 103.756 11.5757C103.843 11.6611 103.892 11.7785 103.891 11.9007V21.9965C103.895 22.1268 104.001 22.2309 104.131 22.2314H111.819C111.95 22.232 112.058 22.1275 112.061 21.9965V11.9007C112.06 11.7788 112.109 11.662 112.196 11.5767C112.283 11.4914 112.401 11.4449 112.523 11.4475H115.133C115.255 11.4443 115.373 11.4906 115.46 11.5761C115.548 11.6615 115.596 11.7786 115.595 11.9007V36.0738C115.596 36.1957 115.547 36.3128 115.46 36.3981C115.373 36.4834 115.255 36.5298 115.133 36.5268H112.523C112.399 36.5259 112.281 36.4757 112.194 36.3874C112.107 36.299 112.059 36.1797 112.061 36.0559V25.4913C112.059 25.3595 111.951 25.2538 111.819 25.2544H104.131C104.001 25.2544 103.893 25.3597 103.89 25.4903V36.0548C103.891 36.1766 103.842 36.2934 103.755 36.3784C103.668 36.4634 103.549 36.5094 103.428 36.5056H100.819C100.697 36.5093 100.579 36.4636 100.492 36.3788C100.405 36.2941 100.355 36.1776 100.355 36.0559V11.9007C100.354 11.7784 100.403 11.6608 100.49 11.5753C100.578 11.4898 100.696 11.4437 100.819 11.4475H103.428ZM135.429 11.4488C135.551 11.4445 135.67 11.4904 135.757 11.5757C135.844 11.6611 135.893 11.7785 135.891 11.9007V14.002C135.891 14.1237 135.842 14.2403 135.755 14.3253C135.668 14.4104 135.551 14.4567 135.429 14.4539H125.974C125.843 14.4544 125.736 14.5589 125.732 14.6898V22.0924C125.735 22.2235 125.842 22.3283 125.974 22.3283H132.479C132.6 22.3252 132.718 22.3715 132.805 22.4567C132.891 22.5418 132.94 22.6586 132.939 22.7802V24.8804C132.94 25.002 132.891 25.1188 132.805 25.2039C132.718 25.2891 132.6 25.3354 132.479 25.3323H125.974C125.843 25.3328 125.736 25.4373 125.732 25.5682V33.2668C125.736 33.3977 125.843 33.5022 125.974 33.5027H135.429C135.681 33.5027 135.886 33.7028 135.891 33.9546V36.0559C135.884 36.3061 135.679 36.5052 135.429 36.5056H122.661C122.538 36.5131 122.419 36.4686 122.331 36.3829C122.243 36.2973 122.195 36.1785 122.2 36.0559V11.9007C122.199 11.7789 122.247 11.662 122.334 11.5768C122.421 11.4916 122.539 11.4454 122.661 11.4488H135.429ZM50.5503 14.3938H46.6742C46.556 14.3969 46.459 14.4843 46.4411 14.5981L46.4383 14.6298V22.58C46.4409 22.7015 46.533 22.8003 46.6506 22.8143L46.6805 22.816L50.5514 22.8191C52.9603 22.8191 54.3253 20.8158 54.3253 18.5385C54.3253 16.1813 53.0814 14.3938 50.5503 14.3938ZM148.097 14.3938H144.544C144.433 14.3933 144.341 14.4746 144.325 14.5812L144.323 14.6108V22.2683C144.326 22.3883 144.416 22.4861 144.532 22.5019L144.564 22.5042L148.097 22.5253C150.176 22.5253 152.04 21.0924 152.091 18.5679L152.092 18.4606C152.092 16.1423 150.587 14.3938 148.097 14.3938Z" fill="#300D4F"/>
</svg>
