<svg width="240" height="48" viewBox="0 0 240 48" fill="none" xmlns="http://www.w3.org/2000/svg">
<path d="M21.1097 7.95898L23.8589 15.9987L18.9784 30.0792C20.9076 30.3939 22.8598 30.5458 24.8142 30.5332C26.158 30.5358 27.5011 30.4651 28.8372 30.322L30.5146 35.5494C28.7048 35.7322 26.7312 35.8647 24.8395 35.8647C22.3254 35.8584 19.8151 35.6774 17.3263 35.3224L14.5423 43.4819H6.05176L19.3315 7.95898H21.1097Z" fill="#FFA500" fill-opacity="0.6"/>
<path d="M220.264 15.9997C228.815 15.9997 233.948 19.988 233.948 30.0518C233.948 31.313 233.913 32.6813 233.881 32.861H214.195C214.161 36.9124 217.607 38.6811 222.982 38.6811C226.602 38.6811 229.486 37.8362 231.432 37.2623L231.747 42.5213C230.136 43.1234 226.649 44 221.888 44C212.452 44.0125 206.01 40.5381 206.01 30.0203C206.01 23.2228 208.694 18.689 214.126 16.873V27.9079H225.933C225.965 23.0116 224.089 20.896 220.031 20.896C218.139 20.896 216.743 21.35 215.772 22.3179V16.4221C217.251 16.1315 218.756 15.9899 220.264 15.9997ZM95.7687 5.02782V30.0518C95.7687 35.4116 96.8753 38.6937 101.671 38.6937C106.466 38.6937 107.942 35.399 107.942 30.0518C107.942 24.7046 106.466 21.4068 101.671 21.4068C99.6593 21.4068 98.3161 21.9806 97.4113 23.0399V17.7211C98.953 16.7532 101.034 16.1195 103.884 16.1195C111.129 16.1195 115.855 20.2591 115.855 30.0203C115.855 39.7941 111.126 43.8927 103.818 43.8927C99.2904 43.8927 96.6735 42.3163 95.198 40.2954L94.8291 43.4703H87.956V10.2268H84.4658V5.02782H95.7687ZM154.15 16.2046C158.743 16.2046 161.36 17.8062 162.801 19.8304L163.205 16.5041H170.046L170.056 43.4703H162.24V30.0518C162.24 24.692 161.133 21.4068 156.338 21.4068C151.542 21.4068 150.067 24.7015 150.067 30.0518C150.067 35.4022 151.542 38.6811 156.338 38.6811C158.352 38.6811 159.692 38.1073 160.597 37.0511V42.31C159.055 43.2748 156.943 43.8864 154.124 43.8864C146.816 43.8864 142.144 39.8067 142.144 30.0455C142.144 20.2844 146.807 16.2046 154.15 16.2046ZM30.6691 7.95995L43.9488 43.4703H35.061L22.9541 7.95995H30.6691ZM56.1818 16.5104V38.2649H59.3346V43.4703H48.3785V21.7157H44.8915V16.5104H56.1818ZM81.6629 16.028C82.4123 16.0211 83.1605 16.092 83.8951 16.2393L83.7942 22.4062C83.1637 22.3432 82.3187 22.2833 81.5872 22.2833C79.2731 22.2833 77.6305 22.8287 76.4891 23.6736C73.9657 25.5403 73.8756 29.0077 73.8724 30.904L73.8723 43.4703H66.0879V21.7157H62.5978V16.5104H72.9611L73.4656 20.833C74.8749 18.0837 77.4886 16.028 81.6629 16.028ZM138.193 16.028C138.948 16.0202 139.701 16.0908 140.441 16.2393L140.34 22.4062C139.71 22.3432 138.865 22.2833 138.133 22.2833C135.819 22.2833 134.176 22.8287 133.035 23.6736C130.515 25.5403 130.425 29.0077 130.422 30.904L130.421 43.4703H122.634V21.7157H119.144V16.5104H129.507L130.012 20.833C131.421 18.0837 134.035 16.028 138.193 16.028ZM185.249 5.02782V43.4703H177.436V10.2268H173.949V5.02782H185.249ZM204.071 16.4978L194.506 29.0839L205.273 43.4703H196.117L185.82 29.2226L195.244 16.4978H204.071ZM51.9317 4C54.3468 4 56.125 5.57641 56.125 7.74871C56.125 9.92101 54.3468 11.4943 51.9317 11.4943C49.5167 11.4943 47.7416 9.92416 47.7416 7.74871H47.7322C47.7416 5.57641 49.5167 4 51.9317 4Z" fill="#FFA500"/>
</svg>
