<svg width="160" height="76" viewBox="0 0 160 76" fill="none" xmlns="http://www.w3.org/2000/svg">
<path d="M109.273 61.5241L151.44 61.5355L147.351 68.3869L147.295 68.5534L109.273 68.5681V61.5241Z" fill="black"/>
<path d="M43.1569 32.47L43.1269 61.3064V68.4966H66.4036L66.6855 68.495C77.1125 68.4007 86.1828 62.4373 91.6465 54.4306L94.1107 50.2668L119.513 7.71624H111.322L96.509 31.9265C93.8458 17.8751 81.5258 7.56594 66.6855 7.43188L4.00244 7.43595L4 68.564H11.0586L11.0602 14.462L66.4036 14.4637L66.6278 14.458C79.5223 14.579 89.9403 25.0353 89.9403 37.9118C89.9403 50.8111 79.493 61.2779 66.571 61.3681L66.4036 61.3633H50.4536L50.4552 61.3064V32.47H43.1569Z" fill="black"/>
<path d="M13.6698 17.2479L66.5157 17.2414L66.6279 17.1919C78.0347 17.2983 87.2471 26.5473 87.2471 37.9403C87.2471 49.3495 78.0054 58.6082 66.5702 58.6862L66.3882 58.6781L53.4596 58.6651V32.4716H60.7579V51.5407L61.3672 51.5245H66.402L66.6823 51.5212C74.0683 51.3717 80.0089 45.3596 80.0089 37.9646C80.0089 30.5299 74.0082 24.4926 66.5694 24.4032H20.9039L20.7276 24.4073V32.3246L20.7333 32.4668L40.2183 32.4733L40.2378 39.7472L13.7486 39.7423L13.6682 39.7374L13.6698 17.2479Z" fill="black"/>
<path d="M119.513 7.71705L151.44 61.5355L156 53.9821L127.706 7.71705H119.513Z" fill="black"/>
<path d="M86.7498 68.5681L119.487 14.0249L146.49 58.7057H109.273V51.7365H133.433L119.487 28.4703L96.6309 68.5681H86.7498Z" fill="black"/>
<path d="M20.9307 49.9434H40.2695V42.6695H13.946L13.6682 42.6679V68.5648H20.7268V50.0515L20.9307 49.9434Z" fill="black"/>
</svg>
