<svg width="160" height="48" viewBox="0 0 160 48" fill="none" xmlns="http://www.w3.org/2000/svg">
<path d="M16.4354 3.81147C15.7953 3.81174 15.1674 3.986 14.6187 4.31561C14.0701 4.64521 13.6213 5.11775 13.3205 5.68269C13.0197 6.24764 12.8781 6.88373 12.9109 7.52293C12.9437 8.16214 13.1496 8.78041 13.5066 9.31161L15.0146 7.80577C14.9648 7.65556 14.9396 7.49825 14.9401 7.33998C14.9401 7.04552 15.0275 6.75767 15.1911 6.51284C15.3547 6.268 15.5872 6.07717 15.8592 5.96449C16.1313 5.8518 16.4306 5.82232 16.7194 5.87976C17.0082 5.93721 17.2735 6.07901 17.4817 6.28722C17.6899 6.49544 17.8317 6.76072 17.8892 7.04953C17.9466 7.33833 17.9172 7.63768 17.8045 7.90973C17.6918 8.18178 17.501 8.4143 17.2561 8.5779C17.0113 8.74149 16.7234 8.82881 16.429 8.82881C16.2714 8.82915 16.1148 8.80402 15.9653 8.75437L14.4595 10.2602C14.9165 10.5702 15.4399 10.7685 15.9875 10.8394C16.5352 10.9102 17.0918 10.8515 17.6126 10.668C18.1335 10.4845 18.604 10.1813 18.9862 9.78279C19.3685 9.38431 19.652 8.90166 19.8138 8.37368C19.9755 7.84569 20.0111 7.28711 19.9177 6.74286C19.8242 6.19861 19.6043 5.6839 19.2757 5.24012C18.9471 4.79633 18.5189 4.43588 18.0256 4.18775C17.5322 3.93961 16.9876 3.81073 16.4354 3.81147Z" fill="#34A853"/>
<path d="M15.0318 14.0947C15.0341 12.9027 14.6481 11.7425 13.9322 10.7895L11.9754 12.7441C12.273 13.2883 12.3818 13.9159 12.2848 14.5285C12.1878 15.1412 11.8906 15.7044 11.4395 16.1301L12.5029 18.7292C13.2783 18.2298 13.9161 17.5439 14.3579 16.7342C14.7997 15.9246 15.0314 15.017 15.0318 14.0947Z" fill="#FBBC04"/>
<path d="M9.56308 16.9002H9.51203C9.07451 16.9002 8.64304 16.798 8.25204 16.6017C7.86104 16.4054 7.52134 16.1204 7.26003 15.7695C6.99872 15.4185 6.82304 15.0114 6.74701 14.5806C6.67097 14.1497 6.69669 13.707 6.82211 13.2879C6.94753 12.8687 7.16918 12.4847 7.46936 12.1664C7.76955 11.8481 8.13998 11.6044 8.55108 11.4547C8.96219 11.3049 9.40259 11.2534 9.83716 11.3041C10.2717 11.3548 10.6884 11.5064 11.054 11.7467L12.9916 9.80911C12.3059 9.25317 11.4968 8.86989 10.6322 8.69148C9.76761 8.51307 8.87285 8.54473 8.02305 8.7838C7.17325 9.02287 6.39323 9.46237 5.74849 10.0654C5.10375 10.6684 4.61313 11.4173 4.31783 12.2493C4.02253 13.0812 3.93117 13.9718 4.05143 14.8464C4.1717 15.721 4.50006 16.5539 5.00895 17.2752C5.51785 17.9966 6.1924 18.5853 6.97597 18.9919C7.75954 19.3985 8.62925 19.6111 9.51203 19.612C9.88628 19.6121 10.2596 19.5751 10.6265 19.5014L9.56308 16.9002Z" fill="#EA4335"/>
<path d="M16.5098 19.1486C15.2851 19.1473 14.0669 19.3257 12.8941 19.6781L14.4446 23.4661C15.1195 23.2989 15.8123 23.2146 16.5077 23.2152C18.4616 23.2157 20.3548 23.8938 21.8649 25.1337C23.375 26.3736 24.4084 28.0988 24.7892 30.0152C25.1699 31.9317 24.8744 33.9209 23.953 35.6439C23.0316 37.3669 21.5413 38.7171 19.7361 39.4646C17.9308 40.212 15.9222 40.3104 14.0525 39.743C12.1828 39.1755 10.5676 37.9774 9.48225 36.3527C8.39687 34.728 7.90838 32.7772 8.10002 30.8327C8.29165 28.8882 9.15155 27.0703 10.5332 25.6887C11.1277 25.0961 11.8064 24.5944 12.5474 24.1999L11.0139 20.4226C8.25274 21.7748 6.08564 24.0957 4.92555 26.9429C3.76546 29.7902 3.69349 32.9647 4.72334 35.8616C5.7532 38.7585 7.81288 41.1752 10.5099 42.6512C13.2069 44.1272 16.3527 44.5593 19.3478 43.8652C22.343 43.1711 24.978 41.3992 26.7508 38.8874C28.5237 36.3755 29.3103 33.2991 28.9609 30.2445C28.6115 27.1899 27.1505 24.3707 24.8563 22.324C22.562 20.2773 19.5949 19.1463 16.5204 19.1464L16.5098 19.1486Z" fill="#4285F4"/>
<path d="M41.1562 8.98822H44.6763V35.5595H57.6354V38.9051H41.1562V8.98822Z" fill="#5F6368"/>
<path d="M62.7378 37.4652C61.1488 36.5218 59.8495 35.1599 58.9818 33.5283C58.0754 31.8366 57.6122 29.943 57.6354 28.0239C57.6136 26.1077 58.0768 24.2172 58.9818 22.528C59.8495 20.8964 61.1488 19.5345 62.7378 18.5911C64.388 17.6426 66.2581 17.1435 68.1614 17.1435C70.0648 17.1435 71.9348 17.6426 73.585 18.5911C75.1739 19.5354 76.4737 20.897 77.3432 22.528C78.2486 24.2201 78.7118 26.1135 78.6895 28.0324C78.7118 29.9514 78.2486 31.8448 77.3432 33.5368C76.4743 35.1676 75.1752 36.5291 73.5871 37.4737C71.937 38.4222 70.0669 38.9214 68.1636 38.9214C66.2602 38.9214 64.3901 38.4222 62.74 37.4737L62.7378 37.4652ZM71.6708 34.8746C72.7759 34.2282 73.6817 33.29 74.289 32.1629C74.9687 30.8912 75.3079 29.4654 75.2738 28.0239C75.3076 26.5825 74.9684 25.1567 74.289 23.885C73.6835 22.7587 72.7799 21.8206 71.6772 21.1732C70.6112 20.5487 69.3968 20.2225 68.1614 20.2289C66.8989 20.2239 65.6586 20.5613 64.5725 21.2051C63.4864 21.8489 62.5951 22.775 61.9934 23.885C61.3157 25.1573 60.9773 26.5828 61.0108 28.0239C60.9771 29.4651 61.3155 30.8906 61.9934 32.1629C62.4421 32.9858 63.0511 33.7106 63.7844 34.2944C64.5177 34.8781 65.3606 35.3091 66.2632 35.5619C67.1658 35.8147 68.1098 35.8841 69.0397 35.766C69.9696 35.648 70.8664 35.3449 71.6772 34.8746H71.6708Z" fill="#5F6368"/>
<path d="M85.619 37.4652C84.0309 36.5206 82.7318 35.159 81.8629 33.5283C80.9574 31.8363 80.4943 29.9429 80.5165 28.0239C80.4958 26.1079 80.9588 24.2175 81.8629 22.528C82.7318 20.8973 84.0309 19.5357 85.619 18.5911C87.2691 17.6426 89.1392 17.1435 91.0425 17.1435C92.9459 17.1435 94.816 17.6426 96.4661 18.5911C98.0555 19.5348 99.3554 20.8966 100.224 22.528C101.13 24.2201 101.593 26.1135 101.571 28.0324C101.593 29.9514 101.13 31.8448 100.224 33.5368C99.356 35.168 98.0568 36.5297 96.4683 37.4737C94.8181 38.4222 92.948 38.9214 91.0447 38.9214C89.1413 38.9214 87.2713 38.4222 85.6211 37.4737L85.619 37.4652ZM94.5519 34.8746C95.6542 34.2267 96.5576 33.2887 97.1637 32.1629C97.8424 30.8908 98.1816 29.4653 98.1485 28.0239C98.1813 26.5826 97.8421 25.1571 97.1637 23.885C96.5576 22.7592 95.6542 21.8212 94.5519 21.1732C93.486 20.5487 92.2716 20.2225 91.0362 20.2289C89.7943 20.2244 88.5735 20.5503 87.4991 21.1732C86.388 21.8161 85.4771 22.7549 84.8682 23.885C84.1888 25.1567 83.8496 26.5825 83.8834 28.0239C83.8493 29.4654 84.1885 30.8912 84.8682 32.1629C85.4771 33.293 86.388 34.2318 87.4991 34.8746C88.5735 35.4975 89.7943 35.8235 91.0362 35.819C92.2745 35.8269 93.492 35.5006 94.5604 34.8746H94.5519Z" fill="#5F6368"/>
<path d="M104.1 8.98822H107.617V27.9006L118.209 17.1406H122.676V17.3065L113.743 26.3267L122.272 38.7477V38.9051H118.052L111.261 28.7598L107.617 32.4117V38.9051H104.1V8.98822Z" fill="#5F6368"/>
<path d="M126.813 37.5056C125.265 36.5747 124.006 35.2324 123.176 33.6283C122.288 31.9077 121.84 29.9939 121.872 28.058C121.857 26.1746 122.278 24.3134 123.101 22.6195C123.878 20.9917 125.087 19.6085 126.596 18.6209C128.145 17.6197 129.956 17.1015 131.8 17.1321C133.808 17.1321 135.549 17.5809 137.024 18.4784C138.491 19.3663 139.672 20.6567 140.427 22.1962C141.241 23.8908 141.644 25.7531 141.605 27.6326C141.604 27.9822 141.577 28.3312 141.524 28.6769H125.286C125.366 30.2366 125.741 31.5496 126.411 32.6159C127.027 33.6357 127.909 34.4687 128.963 35.0257C129.96 35.553 131.07 35.829 132.198 35.8296C134.875 35.8296 136.897 34.5974 138.264 32.1331L141.156 33.539C140.331 35.1376 139.098 36.4894 137.581 37.4567C136.054 38.4223 134.219 38.9051 132.077 38.9051C130.226 38.9358 128.404 38.4512 126.813 37.5056ZM137.989 25.8545C137.925 24.9573 137.679 24.0826 137.266 23.2831C136.805 22.3914 136.11 21.6416 135.256 21.1136C134.346 20.5238 133.195 20.2289 131.802 20.2289C130.288 20.1944 128.818 20.7486 127.704 21.7751C126.579 22.8074 125.843 24.1672 125.494 25.8545H137.989Z" fill="#5F6368"/>
<path d="M143.877 17.1449H147.229V21.186H147.395C147.809 20.0261 148.609 19.0598 149.796 18.287C150.895 17.5447 152.189 17.1437 153.516 17.1342C154.367 17.1126 155.213 17.2683 156 17.5915V21.3582C155.073 20.9073 154.053 20.68 153.022 20.6946C152.017 20.6898 151.033 20.9942 150.206 21.5667C149.338 22.1623 148.632 22.9668 148.156 23.9063C147.646 24.8867 147.383 25.9767 147.39 27.0817V38.9051H143.877V17.1449Z" fill="#5F6368"/>
</svg>
