<svg width="160" height="72" viewBox="0 0 160 72" fill="none" xmlns="http://www.w3.org/2000/svg">
<path d="M4 31.7896H18.2178L11.1632 18.44L4 31.7896ZM18.272 31.7896H32.4898L25.3809 18.44L18.272 31.7896ZM11.1632 18.3858H25.3809L18.272 5.03625L11.1632 18.3858Z" fill="#045BA7"/>
<path d="M48.2275 23.7583C48.9873 23.7583 49.15 23.704 48.8787 23.0528L47.7391 19.8511C47.5474 19.1251 47.2932 18.417 46.9794 17.7347H46.8709C46.7081 17.9518 46.491 18.603 46.0026 19.8511L44.863 22.9443C44.5917 23.704 44.6459 23.704 45.3514 23.704L48.2275 23.7583ZM44.9173 24.9522C44.1575 24.9522 44.2118 24.9522 43.9405 25.6576L42.8009 28.8593C42.2582 30.4331 42.3668 30.4873 43.3436 30.6501L44.2118 30.7586C44.3746 30.9757 44.3746 31.4641 44.1575 31.5184L41.1729 31.4641L38.4596 31.5184C38.3526 31.4242 38.2869 31.2918 38.2768 31.1496C38.2666 31.0075 38.3128 30.867 38.4053 30.7586L39.2193 30.6501C40.0333 30.5416 40.3046 30.2703 40.793 29.402L42.1497 26.146L45.9483 16.7037C46.2739 15.8354 46.5453 15.1842 46.491 14.7501C47.4678 14.533 48.3903 13.4477 48.4446 13.4477C48.5288 13.4477 48.6119 13.4673 48.6873 13.505C48.7626 13.5427 48.8282 13.5974 48.8787 13.6648L50.1268 17.3006L54.1426 28.4795C54.7937 30.2703 54.9565 30.4331 56.3132 30.6501L56.7473 30.7586C56.8468 30.8601 56.9025 30.9965 56.9025 31.1385C56.9025 31.2806 56.8468 31.4169 56.7473 31.5184L53.1115 31.4641L49.747 31.5184C49.69 31.4756 49.6419 31.4221 49.6056 31.3607C49.5693 31.2994 49.5454 31.2315 49.5354 31.161C49.5253 31.0904 49.5292 31.0186 49.5469 30.9496C49.5646 30.8805 49.5957 30.8157 49.6384 30.7586L50.2896 30.7044C51.2664 30.5958 51.375 30.4331 50.9951 29.2935L49.747 25.6576C49.4756 24.9522 49.3671 24.9522 48.6074 24.9522H44.9173ZM68.4689 23.7583C69.2286 23.7583 69.3371 23.704 69.1201 23.0528L67.9805 19.8511C67.7712 19.1233 67.4988 18.4152 67.1665 17.7347C67.0037 17.9518 66.7866 18.603 66.2982 19.8511L65.1043 22.9443C64.833 23.704 64.8873 23.704 65.5927 23.704L68.4689 23.7583ZM65.1043 24.9522C64.3989 24.9522 64.4532 24.9522 64.1818 25.6576L63.0422 28.8593C62.4996 30.4331 62.6081 30.4873 63.5849 30.6501L64.4532 30.7586C64.616 30.9757 64.616 31.4641 64.3989 31.5184L61.4142 31.4641L58.7009 31.5184C58.5939 31.4242 58.5283 31.2918 58.5181 31.1496C58.508 31.0075 58.5541 30.867 58.6467 30.7586L59.4607 30.6501C60.2746 30.5416 60.546 30.2703 61.0344 29.402L62.391 26.146L66.1897 16.7037C66.5153 15.8354 66.7323 15.1842 66.7323 14.7501C67.7091 14.533 68.5774 13.4477 68.6317 13.4477C68.7334 13.4283 68.8386 13.4385 68.9347 13.4769C69.0309 13.5154 69.114 13.5806 69.1743 13.6648L70.3682 17.3006L74.3839 28.4795C75.0351 30.2703 75.1436 30.4331 76.5545 30.6501L76.9887 30.7586C77.0881 30.8601 77.1438 30.9965 77.1438 31.1385C77.1438 31.2806 77.0881 31.4169 76.9887 31.5184L73.4071 31.4641L70.0426 31.5184C69.9856 31.4756 69.9375 31.4221 69.9012 31.3607C69.8649 31.2994 69.8411 31.2315 69.831 31.161C69.8209 31.0904 69.8248 31.0186 69.8425 30.9496C69.8602 30.8805 69.8913 30.8157 69.9341 30.7586L70.531 30.7044C71.562 30.5958 71.6163 30.4331 71.2907 29.2935L69.9883 25.6576C69.717 24.9522 69.6085 24.9522 68.8487 24.9522H65.1043ZM88.7102 23.7583C89.4699 23.7583 89.5785 23.704 89.3614 23.0528L88.2218 19.8511C88.0125 19.1233 87.7402 18.4152 87.4078 17.7347C87.245 17.9518 87.028 18.603 86.5396 19.8511L85.3457 22.9443C85.0744 23.704 85.1286 23.704 85.8341 23.704L88.7102 23.7583ZM85.3457 24.9522C84.6402 24.9522 84.6945 24.9522 84.4232 25.6576L83.2836 28.8593C82.7409 30.4331 82.8494 30.4873 83.8262 30.6501L84.6945 30.7586C84.8573 30.9757 84.8573 31.4641 84.6402 31.5184L81.6556 31.4641L78.9423 31.5184C78.8353 31.4242 78.7696 31.2918 78.7595 31.1496C78.7493 31.0075 78.7955 30.867 78.888 30.7586L79.702 30.6501C80.516 30.5416 80.7873 30.2703 81.2215 29.402C81.6013 28.6965 82.0354 27.6112 82.5781 26.146L86.3768 16.7037C86.7566 15.8354 87.028 15.1842 86.9194 14.7501C87.8962 14.533 88.8187 13.4477 88.873 13.4477C88.9747 13.4283 89.0799 13.4385 89.1761 13.4769C89.2722 13.5154 89.3554 13.5806 89.4157 13.6648L90.6095 17.3006L94.6252 28.4795C95.2764 30.2703 95.385 30.4331 96.7959 30.6501L97.23 30.7586C97.3294 30.8601 97.3851 30.9965 97.3851 31.1385C97.3851 31.2806 97.3294 31.4169 97.23 31.5184L93.6484 31.4641L90.2297 31.5184C90.1227 31.4242 90.057 31.2918 90.0469 31.1496C90.0367 31.0075 90.0829 30.867 90.1754 30.7586L90.7181 30.7044C91.8034 30.5958 91.8034 30.4331 91.4778 29.2935L90.2839 25.6576C89.9583 24.9522 89.9041 24.9522 89.0901 24.9522H85.3457ZM106.401 22.9443C104.99 22.9443 104.882 22.9986 104.882 23.704V27.6112C104.882 30.4331 105.153 30.5416 106.51 30.6501L107.269 30.7586C107.486 30.9757 107.486 31.4641 107.269 31.5726C104.774 31.4827 102.276 31.4827 99.7805 31.5726C99.5635 31.4641 99.5092 30.9757 99.7263 30.7586H100.106C101.409 30.5416 101.68 30.4331 101.68 27.6112V17.7347C101.68 14.9129 101.409 14.8043 100.106 14.6415L99.5092 14.5873C99.4167 14.4789 99.3705 14.3384 99.3807 14.1963C99.3908 14.0541 99.4565 13.9217 99.5635 13.8276C102.005 13.9202 104.448 13.9202 106.889 13.8276C106.989 13.929 107.045 14.0654 107.045 14.2074C107.045 14.3495 106.989 14.4858 106.889 14.5873L106.455 14.6415C105.153 14.8043 104.882 14.9129 104.882 17.7347V20.9907C104.882 21.6962 104.99 21.7504 106.401 21.7504H112.913C114.324 21.7504 114.432 21.6962 114.432 20.9364V17.6805C114.432 14.9129 114.161 14.8043 112.859 14.6415L112.262 14.5873C112.162 14.4858 112.107 14.3495 112.107 14.2074C112.107 14.0654 112.162 13.929 112.262 13.8276L116.06 13.8818L119.642 13.8276C119.749 13.9217 119.815 14.0541 119.825 14.1963C119.835 14.3384 119.789 14.4789 119.696 14.5873L119.208 14.6415C117.905 14.8043 117.634 14.9129 117.634 17.7347V27.6112C117.634 30.4331 117.905 30.5416 119.262 30.7044L119.805 30.7586C120.022 30.9757 119.968 31.4641 119.805 31.5184C117.31 31.4076 114.811 31.4076 112.316 31.5184C112.099 31.4641 112.045 30.9757 112.262 30.7586L112.859 30.7044C114.161 30.5416 114.432 30.4331 114.432 27.6112V23.704C114.432 22.9986 114.324 22.9443 112.913 22.9443H106.401ZM139.558 18.3859C139.43 18.4746 139.279 18.5222 139.124 18.5222C138.968 18.5222 138.817 18.4746 138.689 18.3859C138.147 16.7579 136.953 14.533 133.263 14.533C129.681 14.533 126.154 16.9207 126.154 22.4016C126.154 28.0453 129.844 30.8129 133.426 30.8129C137.007 30.8129 138.472 28.588 139.232 26.8515C139.291 26.7896 139.363 26.7423 139.443 26.7135C139.523 26.6848 139.609 26.6753 139.694 26.6858C139.778 26.6964 139.859 26.7267 139.93 26.7744C140 26.822 140.059 26.8856 140.1 26.96C139.947 28.3986 139.484 29.7869 138.744 31.03C138.418 31.03 138.093 31.1928 137.767 31.247C136.354 31.6504 134.895 31.8693 133.426 31.8982C130.712 31.8982 128.325 31.3556 126.317 30.1075C125.07 29.3434 124.047 28.2635 123.351 26.9771C122.655 25.6907 122.312 24.2433 122.355 22.7815C122.336 21.4091 122.646 20.0521 123.26 18.8245C123.873 17.5969 124.773 16.5346 125.883 15.7269C128.141 14.2044 130.811 13.4091 133.534 13.4477C135.161 13.4703 136.781 13.6705 138.364 14.0446L139.124 14.2074C139.178 14.8043 139.232 16.3781 139.558 18.3859Z" fill="#52575C"/>
<path d="M7.14745 48.8292C7.41878 48.8292 7.47305 48.8292 7.36451 48.4494L6.98465 47.4183C6.93062 47.2651 6.8577 47.1193 6.76758 46.9842C6.67243 47.1163 6.59914 47.2629 6.55052 47.4183L6.17065 48.4494C6.06212 48.775 6.06212 48.775 6.33345 48.775L7.14745 48.8292ZM6.17065 49.2091C5.89932 49.2091 5.84506 49.2091 5.73652 49.5347L5.46519 50.2944C5.30239 50.6743 5.35666 50.7285 5.57372 50.7828H5.89932C5.9425 50.7828 5.98391 50.8 6.01444 50.8305C6.04497 50.861 6.06212 50.9024 6.06212 50.9456C6.06212 50.9888 6.04497 51.0302 6.01444 51.0607C5.98391 51.0913 5.9425 51.1084 5.89932 51.1084H4.10853C4.07771 51.0699 4.06091 51.0221 4.06091 50.9727C4.06091 50.9234 4.07771 50.8756 4.10853 50.8371L4.37986 50.7828C4.75973 50.6743 4.92253 50.5658 5.13959 49.9688L6.27919 47.2012C6.44088 46.8767 6.55074 46.5288 6.60478 46.1702C6.80832 46.0791 6.97885 45.9275 7.09318 45.736L7.25598 45.7903L7.79864 47.2555L8.88397 50.1859C9.04677 50.5657 9.1553 50.7285 9.58943 50.7828H9.8065C9.91503 50.8913 9.86076 51.1084 9.8065 51.1627L8.77544 51.1084H7.69011C7.66772 51.0936 7.64936 51.0734 7.63665 51.0497C7.62395 51.0261 7.6173 50.9996 7.6173 50.9727C7.6173 50.9459 7.62395 50.9194 7.63665 50.8958C7.64936 50.8721 7.66772 50.8519 7.69011 50.8371H7.90718C8.23277 50.7285 8.23277 50.6743 8.06997 50.2944L7.79864 49.5347C7.69011 49.2634 7.63584 49.2634 7.36451 49.2634L6.17065 49.2091ZM15.613 45.9531C15.6266 46.3888 15.6628 46.8235 15.7215 47.2555C15.7012 47.2786 15.6761 47.2971 15.648 47.3098C15.62 47.3224 15.5895 47.329 15.5587 47.329C15.5279 47.329 15.4975 47.3224 15.4694 47.3098C15.4414 47.2971 15.4163 47.2786 15.3959 47.2555C15.3072 46.8828 15.0899 46.5533 14.7822 46.325C14.4745 46.0967 14.0961 45.9842 13.7137 46.0074C12.6826 46.0074 11.6516 46.7128 11.6516 48.3408C11.6516 49.9688 12.6826 50.8913 13.8222 50.8913C14.2035 50.8817 14.5731 50.7575 14.8828 50.5349C15.1925 50.3123 15.4281 50.0016 15.5587 49.6432C15.5791 49.6201 15.6041 49.6016 15.6322 49.589C15.6603 49.5763 15.6907 49.5697 15.7215 49.5697C15.7523 49.5697 15.7828 49.5763 15.8108 49.589C15.8389 49.6016 15.864 49.6201 15.8843 49.6432C15.8335 50.096 15.705 50.5366 15.5045 50.9456C14.9745 51.1004 14.428 51.1915 13.8765 51.2169C13.1142 51.2651 12.3558 51.0755 11.7058 50.6743C11.3488 50.4373 11.0573 50.1142 10.8581 49.7349C10.6589 49.3555 10.5586 48.932 10.5662 48.5036C10.5512 48.0856 10.637 47.6701 10.8165 47.2923C10.9959 46.9145 11.2638 46.5854 11.5973 46.333C12.2783 45.8515 13.0971 45.6039 13.9307 45.6275C14.497 45.6474 15.0602 45.7201 15.613 45.8446V45.9531ZM22.0707 45.8988C22.0824 46.3527 22.1186 46.8056 22.1792 47.2555C22.1589 47.2786 22.1338 47.2971 22.1057 47.3098C22.0777 47.3224 22.0472 47.329 22.0164 47.329C21.9856 47.329 21.9552 47.3224 21.9271 47.3098C21.899 47.2971 21.874 47.2786 21.8536 47.2555C21.7753 46.8773 21.5605 46.5411 21.2503 46.3109C20.9401 46.0807 20.5561 45.9727 20.1714 46.0074C19.086 46.0074 18.1092 46.7128 18.1092 48.3408C18.1092 49.9688 19.1403 50.8913 20.2799 50.8913C20.6612 50.8817 21.0308 50.7575 21.3405 50.5349C21.6502 50.3123 21.8858 50.0016 22.0164 49.6432C22.0368 49.6201 22.0618 49.6016 22.0899 49.589C22.118 49.5763 22.1484 49.5697 22.1792 49.5697C22.21 49.5697 22.2405 49.5763 22.2685 49.589C22.2966 49.6016 22.3217 49.6201 22.342 49.6432C22.2912 50.096 22.1627 50.5366 21.9622 50.9456C21.4326 51.102 20.8859 51.1931 20.3342 51.2169C19.5719 51.2651 18.8135 51.0755 18.1635 50.6743C17.8065 50.4373 17.515 50.1142 17.3158 49.7349C17.1166 49.3555 17.0162 48.932 17.0239 48.5036C17.0089 48.0856 17.0947 47.6701 17.2742 47.2923C17.4536 46.9145 17.7215 46.5854 18.055 46.333C18.7359 45.8515 19.5548 45.6039 20.3884 45.6275C20.9365 45.6507 21.4814 45.7234 22.0164 45.8446L22.0707 45.8988ZM25.2181 48.178C25.2181 48.4494 25.2181 48.4494 25.7608 48.4494C26.5748 48.4494 27.0089 48.1238 27.0089 47.3098C27.0189 47.148 26.9925 46.986 26.9317 46.8357C26.8709 46.6855 26.7772 46.5507 26.6575 46.4414C26.5377 46.3321 26.3951 46.251 26.2399 46.2041C26.0847 46.1571 25.921 46.1456 25.7608 46.1702C25.2724 46.1702 25.2181 46.1702 25.2181 46.4958V48.178ZM24.2956 47.2555C24.2956 46.4958 24.2956 46.2787 23.97 46.2244H23.6444C23.5359 46.2244 23.5359 45.9531 23.6444 45.8988L25.6523 45.8446C26.7376 45.8446 28.04 46.0074 28.04 47.2555C28.0339 47.5636 27.9231 47.8604 27.7258 48.0971C27.5285 48.3338 27.2566 48.4963 26.9547 48.5579C26.9404 48.5826 26.9328 48.6107 26.9328 48.6393C26.9328 48.6679 26.9404 48.6959 26.9547 48.7207C27.3476 49.4528 27.8613 50.1133 28.4741 50.6743C28.6549 50.8347 28.8841 50.9302 29.1253 50.9456C29.1396 50.9704 29.1471 50.9984 29.1471 51.027C29.1471 51.0556 29.1396 51.0837 29.1253 51.1084C28.948 51.1525 28.7652 51.1708 28.5826 51.1627C28.2547 51.1625 27.9325 51.0775 27.6472 50.9158C27.3619 50.7541 27.1233 50.5214 26.9547 50.2402C26.6291 49.8603 26.2492 49.3719 26.0321 48.9378C25.9655 48.8633 25.8795 48.8086 25.7837 48.7799C25.688 48.7512 25.5861 48.7495 25.4895 48.775C25.2181 48.775 25.2181 48.775 25.2181 48.9378V49.806C25.2181 50.6743 25.2181 50.7285 25.7608 50.7828H26.0321V51.1084H23.5359C23.5135 51.0936 23.4951 51.0734 23.4824 51.0497C23.4697 51.0261 23.4631 50.9996 23.4631 50.9727C23.4631 50.9459 23.4697 50.9194 23.4824 50.8958C23.4951 50.8721 23.5135 50.8519 23.5359 50.8371H23.6987C24.2413 50.6743 24.2413 50.6743 24.2413 49.806L24.2956 47.2555ZM30.5362 47.0927C30.5362 46.2787 30.5362 46.2787 30.0478 46.1702H29.885C29.7765 46.0616 29.8308 45.8988 29.885 45.8446H33.8465L33.955 47.0384C33.9165 47.0693 33.8687 47.0861 33.8194 47.0861C33.77 47.0861 33.7222 47.0693 33.6837 47.0384C33.6435 46.8463 33.5701 46.6626 33.4666 46.4958C33.2496 46.1702 32.7069 46.1702 32.3813 46.1702H31.8386C31.4588 46.1702 31.4588 46.1702 31.4588 46.55V47.9067C31.4588 48.1238 31.4588 48.178 31.6758 48.178H32.2185C32.8697 48.178 32.924 48.0695 33.0325 47.6896V47.4726C33.0513 47.4386 33.0788 47.4104 33.1122 47.3907C33.1456 47.371 33.1836 47.3606 33.2224 47.3606C33.2612 47.3606 33.2993 47.371 33.3327 47.3907C33.3661 47.4104 33.3936 47.4386 33.4124 47.4726V49.1548C33.392 49.1779 33.3669 49.1964 33.3389 49.2091C33.3108 49.2218 33.2804 49.2283 33.2496 49.2283C33.2188 49.2283 33.1883 49.2218 33.1602 49.2091C33.1322 49.1964 33.1071 49.1779 33.0868 49.1548V48.992C32.924 48.6122 32.8697 48.5036 32.2185 48.5036H31.6758C31.4588 48.5036 31.4588 48.5036 31.4588 48.775V49.6975C31.4226 49.9914 31.4599 50.2898 31.5673 50.5658C31.6758 50.6743 31.8929 50.7285 32.6526 50.7285C33.4124 50.7285 33.8465 50.7285 34.1721 49.7518C34.1924 49.7287 34.2175 49.7102 34.2456 49.6975C34.2736 49.6848 34.3041 49.6783 34.3349 49.6783C34.3657 49.6783 34.3961 49.6848 34.4242 49.6975C34.4523 49.7102 34.4773 49.7287 34.4977 49.7518C34.4413 50.2208 34.3132 50.6783 34.1178 51.1084H29.668C29.6372 51.0699 29.6204 51.0221 29.6204 50.9727C29.6204 50.9234 29.6372 50.8756 29.668 50.8371H29.9936C30.5362 50.7285 30.5362 50.6743 30.5362 49.806V47.0927ZM37.2653 49.6432C37.2653 50.4029 37.3738 50.7828 38.3506 50.7828C39.7615 50.7828 40.5212 49.9146 40.5212 48.4494C40.5212 46.9842 39.4359 46.1702 38.0793 46.1702C37.8332 46.1536 37.5877 46.2102 37.3738 46.333C37.2653 46.333 37.2653 46.4958 37.2653 46.7671V49.6432ZM36.397 47.2555C36.397 46.4958 36.397 46.2787 36.0714 46.2244H35.6915C35.6484 46.2244 35.607 46.2073 35.5764 46.1768C35.5459 46.1462 35.5287 46.1048 35.5287 46.0616C35.5287 46.0185 35.5459 45.9771 35.5764 45.9465C35.607 45.916 35.6484 45.8988 35.6915 45.8988L38.0793 45.8446C38.705 45.8331 39.3284 45.9248 39.9243 46.1159C40.415 46.2709 40.8407 46.5838 41.1351 47.0058C41.4295 47.4278 41.5762 47.9353 41.5523 48.4494C41.5572 48.9378 41.4217 49.4173 41.1619 49.831C40.9022 50.2446 40.5291 50.575 40.0871 50.7828C39.509 51.0482 38.878 51.1781 38.2421 51.1627L36.8311 51.1084H35.583C35.5522 51.0699 35.5354 51.0221 35.5354 50.9727C35.5354 50.9234 35.5522 50.8756 35.583 50.8371H35.8001C36.3427 50.6743 36.3427 50.6743 36.3427 49.806L36.397 47.2555ZM43.723 47.0927C43.723 46.2787 43.6144 46.2244 43.126 46.1702H42.909C42.8859 46.1498 42.8674 46.1248 42.8547 46.0967C42.842 46.0686 42.8355 46.0382 42.8355 46.0074C42.8355 45.9766 42.842 45.9461 42.8547 45.9181C42.8674 45.89 42.8859 45.8649 42.909 45.8446H45.3509C45.4595 45.8446 45.4595 46.0616 45.3509 46.1159H45.2424C44.6997 46.2244 44.6997 46.2787 44.6997 47.0927V49.806C44.6997 50.6743 44.6997 50.7285 45.2424 50.7828H45.4595V51.1627L44.2114 51.1084H42.9632C42.9324 51.0699 42.9156 51.0221 42.9156 50.9727C42.9156 50.9234 42.9324 50.8756 42.9632 50.8371H43.1803C43.723 50.7285 43.723 50.6743 43.723 49.806V47.0927ZM48.6612 46.55C48.6612 46.2244 48.6612 46.2244 48.3899 46.2244H48.01C47.3045 46.2244 46.9247 46.2787 46.6533 47.0927C46.6148 47.1235 46.567 47.1403 46.5177 47.1403C46.4684 47.1403 46.4205 47.1235 46.382 47.0927L46.7076 45.6275C46.7374 45.6008 46.7761 45.5861 46.8161 45.5861C46.8562 45.5861 46.8948 45.6008 46.9247 45.6275C46.9247 45.8988 47.0875 45.8446 47.5759 45.8446H50.9404C51.4288 45.8446 51.483 45.8446 51.5916 45.6275H51.8086C51.7082 46.109 51.6717 46.6017 51.7001 47.0927C51.7001 47.147 51.4288 47.2012 51.3745 47.0927C51.3202 46.2787 50.9946 46.1702 50.2892 46.1702H49.8551C49.638 46.1702 49.5837 46.1702 49.5837 46.4958V49.806C49.5837 50.62 49.5837 50.7285 50.1264 50.7828H50.452C50.5605 50.8913 50.5605 51.0541 50.452 51.1084H47.7929C47.6844 51.1084 47.6844 50.8913 47.7929 50.7828H48.1185C48.6612 50.7285 48.6612 50.62 48.6612 49.806V46.55ZM55.2274 48.8292C55.553 48.8292 55.6073 48.8292 55.4445 48.4494L55.1189 47.4183C55.0649 47.2651 54.9919 47.1193 54.9018 46.9842C54.8174 47.1225 54.7448 47.2677 54.6848 47.4183L54.2506 48.5036C54.1421 48.8292 54.1421 48.8292 54.4134 48.8292H55.2274ZM54.3049 49.2091C53.9793 49.2091 53.9793 49.2091 53.8708 49.5347L53.5994 50.2944C53.4366 50.6743 53.4909 50.7285 53.7622 50.7828H54.0878C54.1421 50.8913 54.0878 51.1084 54.0336 51.1084H52.1885C52.1577 51.0699 52.1409 51.0221 52.1409 50.9727C52.1409 50.9234 52.1577 50.8756 52.1885 50.8371L52.5141 50.7828C52.8397 50.6743 53.0025 50.5658 53.2196 49.9688L54.4134 47.2012C54.5679 46.8738 54.6775 46.527 54.739 46.1702C54.9468 46.0858 55.1193 45.9325 55.2274 45.736H55.4445C55.4445 45.736 55.6616 46.55 55.9871 47.2555L57.0725 50.1316C57.181 50.5657 57.2895 50.6743 57.7779 50.7828H57.9407C57.9839 50.7828 58.0253 50.8 58.0559 50.8305C58.0864 50.861 58.1035 50.9024 58.1035 50.9456C58.1035 50.9888 58.0864 51.0302 58.0559 51.0607C58.0253 51.0913 57.9839 51.1084 57.9407 51.1084H55.7701C55.6615 51.1084 55.6615 50.8913 55.7701 50.8371H56.0414C56.367 50.7285 56.367 50.6743 56.2042 50.2944L55.8786 49.5347C55.7701 49.2634 55.7158 49.2634 55.4445 49.2634L54.3049 49.2091ZM60.5998 46.4958C60.5998 46.2244 60.5998 46.2244 60.3827 46.2244H60.0029C59.2431 46.2244 58.9175 46.2787 58.6462 47.0927C58.6077 47.1235 58.5598 47.1403 58.5105 47.1403C58.4612 47.1403 58.4134 47.1235 58.3749 47.0927L58.7005 45.6275C58.7303 45.6008 58.769 45.5861 58.809 45.5861C58.849 45.5861 58.8877 45.6008 58.9175 45.6275C58.9175 45.8988 59.0803 45.8446 59.5687 45.8446H62.9332C63.3674 45.8446 63.4759 45.8446 63.5844 45.6275C63.6143 45.6008 63.6529 45.5861 63.693 45.5861C63.733 45.5861 63.7716 45.6008 63.8015 45.6275C63.6708 46.1044 63.6159 46.5988 63.6387 47.0927C63.6387 47.147 63.4216 47.2012 63.3674 47.0927C63.2588 46.2787 62.9875 46.1702 62.2278 46.1702H61.8479C61.5766 46.1702 61.5223 46.1702 61.5223 46.4958V49.806C61.5223 50.62 61.6308 50.7285 62.065 50.7828H62.3906C62.4991 50.8913 62.4991 51.0541 62.3906 51.1084H59.7315C59.7084 51.088 59.6899 51.063 59.6773 51.0349C59.6646 51.0069 59.658 50.9764 59.658 50.9456C59.658 50.9148 59.6646 50.8844 59.6773 50.8563C59.6899 50.8282 59.7084 50.8032 59.7315 50.7828H60.0571C60.5998 50.7285 60.5998 50.62 60.5998 49.806V46.4958ZM65.538 47.0927C65.538 46.2787 65.538 46.2244 64.9954 46.1702H64.7783C64.6698 46.0616 64.6698 45.8446 64.7783 45.8446H67.2745C67.3054 45.8831 67.3222 45.9309 67.3222 45.9802C67.3222 46.0296 67.3054 46.0774 67.2745 46.1159H67.0575C66.5148 46.2244 66.5148 46.2787 66.5148 47.0927V49.806C66.5148 50.6743 66.5148 50.7285 67.0575 50.7828H67.2745C67.3085 50.8016 67.3368 50.8291 67.3564 50.8625C67.3761 50.8959 67.3865 50.934 67.3865 50.9727C67.3865 51.0115 67.3761 51.0496 67.3564 51.083C67.3368 51.1164 67.3085 51.1439 67.2745 51.1627L66.0264 51.1084H64.8326C64.724 51.1084 64.724 50.8913 64.7783 50.8371H64.9954C65.538 50.7285 65.538 50.6743 65.538 49.806V47.0927ZM69.6623 48.3408C69.6623 49.589 70.2049 50.8913 71.6701 50.8913C72.5926 50.8913 73.4609 50.2944 73.4609 48.6122C73.4609 47.364 72.8097 46.0616 71.5073 46.0616C70.6391 46.0616 69.6623 46.6043 69.6623 48.3408ZM74.5462 48.4494C74.5544 48.8315 74.4833 49.2111 74.3375 49.5644C74.1917 49.9177 73.9743 50.2369 73.699 50.502C73.4237 50.7671 73.0965 50.9723 72.738 51.1047C72.3794 51.2371 71.9974 51.2938 71.6159 51.2712C69.7165 51.2712 68.5769 50.0231 68.5769 48.5579C68.5758 48.1683 68.6553 47.7827 68.8105 47.4254C68.9657 47.0681 69.1932 46.7468 69.4786 46.4817C69.7641 46.2166 70.1014 46.0135 70.4692 45.8852C70.837 45.7569 71.2274 45.7061 71.6159 45.736C73.5152 45.736 74.5462 46.9842 74.5462 48.4494ZM80.8411 47.6896C80.8411 46.4958 80.7326 46.2244 80.2985 46.1702H79.8643C79.8412 46.1498 79.8227 46.1248 79.8101 46.0967C79.7974 46.0686 79.7908 46.0382 79.7908 46.0074C79.7908 45.9766 79.7974 45.9461 79.8101 45.9181C79.8227 45.89 79.8412 45.8649 79.8643 45.8446H81.9807C82.0115 45.8831 82.0283 45.9309 82.0283 45.9802C82.0283 46.0296 82.0115 46.0774 81.9807 46.1159H81.6009C81.2753 46.1702 81.1667 46.4958 81.1667 47.7439V49.7518L81.221 51.1084C81.1908 51.1505 81.1493 51.1831 81.1012 51.2023C81.0531 51.2216 81.0005 51.2266 80.9497 51.2169L79.8643 50.0231L77.965 48.0695C77.6719 47.7479 77.3641 47.4401 77.0425 47.147V49.2091C77.0425 50.4572 77.0425 50.7285 77.5852 50.8371H77.965C77.989 50.8816 77.9966 50.933 77.9867 50.9825C77.9768 51.032 77.9499 51.0766 77.9107 51.1084H75.7944C75.7635 51.0699 75.7467 51.0221 75.7467 50.9727C75.7467 50.9234 75.7635 50.8756 75.7944 50.8371H76.1742C76.4998 50.7285 76.6084 50.403 76.6084 49.2091V47.0384C76.6084 46.6586 76.6084 46.4958 76.337 46.333C76.2019 46.256 76.0553 46.2011 75.9029 46.1702L75.6858 46.1159C75.6427 46.1159 75.6012 46.0988 75.5707 46.0682C75.5402 46.0377 75.523 45.9963 75.523 45.9531C75.523 45.9099 75.5402 45.8685 75.5707 45.838C75.6012 45.8075 75.6427 45.7903 75.6858 45.7903H76.7712C76.9337 45.803 77.097 45.803 77.2596 45.7903C77.5931 46.3442 77.9941 46.8546 78.4534 47.3098L79.5387 48.4494L80.6783 49.5347L80.7326 49.1006L80.8411 47.6896ZM89.0896 48.8292C89.4152 48.8292 89.4695 48.8292 89.3067 48.4494L88.9268 47.4183C88.889 47.2679 88.8344 47.1223 88.764 46.9842C88.6823 47.124 88.6098 47.269 88.547 47.4183L88.1128 48.5036C88.0043 48.8292 88.0043 48.8292 88.2756 48.8292H89.0896ZM88.1128 49.2091C87.8415 49.2091 87.8415 49.2091 87.733 49.5347L87.4616 50.2944C87.2988 50.6743 87.3531 50.7285 87.5702 50.7828H87.8958C88.0043 50.8913 88.0043 51.1084 87.8958 51.1084H86.0507C86.0199 51.0699 86.0031 51.0221 86.0031 50.9727C86.0031 50.9234 86.0199 50.8756 86.0507 50.8371L86.3763 50.7828C86.7562 50.6743 86.8647 50.5658 87.0818 49.9688L88.2756 47.2012C88.4335 46.8751 88.5431 46.5278 88.6012 46.1702C88.8292 46.0969 89.0223 45.9424 89.1439 45.736H89.3067C89.3067 45.736 89.5237 46.55 89.8493 47.2555L90.9347 50.1316C91.0432 50.5657 91.1517 50.6743 91.6401 50.7828H91.8029C91.8461 50.7828 91.8875 50.8 91.918 50.8305C91.9486 50.861 91.9657 50.9024 91.9657 50.9456C91.9657 50.9888 91.9486 51.0302 91.918 51.0607C91.8875 51.0913 91.8461 51.1084 91.8029 51.1084H89.6323C89.5237 51.1084 89.5237 50.8913 89.6323 50.8371H89.9036C90.2292 50.7285 90.2292 50.6743 90.0664 50.2944L89.7408 49.5347C89.6323 49.2634 89.6323 49.2634 89.3067 49.2634L88.1128 49.2091ZM93.9193 48.6664C93.6167 48.5524 93.3534 48.3535 93.1609 48.0936C92.9684 47.8338 92.8549 47.5239 92.834 47.2012C92.834 46.2787 93.5395 45.6818 94.7333 45.6818C95.1179 45.6955 95.4999 45.7501 95.8729 45.8446C96.0178 46.2248 96.0735 46.6333 96.0357 47.0384C96.0357 47.147 95.7644 47.147 95.7644 47.0384C95.7262 46.7599 95.591 46.5038 95.3825 46.3152C95.1741 46.1266 94.9057 46.0176 94.6248 46.0074C93.8651 46.0074 93.5937 46.4415 93.5937 46.8214C93.5937 47.2012 93.9736 47.5268 94.4077 47.7982L95.2217 48.178C95.5082 48.3173 95.7509 48.5328 95.9232 48.8008C96.0955 49.0688 96.1907 49.379 96.1985 49.6975C96.1985 50.62 95.3845 51.2169 94.1906 51.2169C93.6926 51.2373 93.2002 51.1047 92.7797 50.8371C92.6103 50.463 92.5357 50.053 92.5627 49.6432C92.5775 49.6208 92.5977 49.6025 92.6213 49.5898C92.645 49.5771 92.6715 49.5704 92.6983 49.5704C92.7252 49.5704 92.7516 49.5771 92.7753 49.5898C92.799 49.6025 92.8191 49.6208 92.834 49.6432C92.9425 50.0231 93.4852 50.8913 94.2992 50.8913C94.8961 50.8913 95.3302 50.5658 95.3302 50.0231C95.3302 49.6432 95.1674 49.2634 94.462 48.9378L93.9193 48.6664ZM98.8033 48.6664C98.5043 48.5468 98.2445 48.3465 98.0528 48.0877C97.8612 47.829 97.7452 47.5221 97.718 47.2012C97.718 46.2787 98.4234 45.6818 99.6173 45.6818C100.002 45.6963 100.384 45.7509 100.757 45.8446C100.884 46.2292 100.939 46.6339 100.92 47.0384C100.899 47.0615 100.874 47.08 100.846 47.0927C100.818 47.1054 100.788 47.1119 100.757 47.1119C100.726 47.1119 100.696 47.1054 100.668 47.0927C100.639 47.08 100.614 47.0615 100.594 47.0384C100.558 46.7686 100.43 46.5192 100.233 46.3317C100.036 46.1441 99.7801 46.0297 99.5087 46.0074C98.8033 46.0074 98.532 46.4415 98.532 46.8214C98.532 47.2012 98.8576 47.5268 99.3459 47.7982L100.051 48.178C100.338 48.3173 100.581 48.5328 100.753 48.8008C100.925 49.0688 101.02 49.379 101.028 49.6975C101.028 50.62 100.268 51.2169 99.0746 51.2169C98.5769 51.2339 98.0856 51.1016 97.6637 50.8371C97.4942 50.463 97.4197 50.053 97.4466 49.6432C97.4615 49.6208 97.4816 49.6025 97.5053 49.5898C97.529 49.5771 97.5554 49.5704 97.5823 49.5704C97.6092 49.5704 97.6356 49.5771 97.6593 49.5898C97.6829 49.6025 97.7031 49.6208 97.718 49.6432C97.8265 50.0231 98.3691 50.8913 99.1831 50.8913C99.7801 50.8913 100.214 50.5658 100.214 50.0231C100.214 49.6432 100.051 49.2634 99.3459 48.9378L98.8033 48.6664ZM103.47 48.3408C103.47 49.589 104.013 50.8913 105.424 50.8913C106.346 50.8913 107.215 50.2944 107.215 48.6122C107.215 47.364 106.672 46.0616 105.261 46.0616C104.393 46.0616 103.47 46.6043 103.47 48.3408ZM108.354 48.4494C108.363 48.8364 108.29 49.2209 108.141 49.5781C107.992 49.9353 107.77 50.2573 107.489 50.5233C107.207 50.7892 106.873 50.9932 106.508 51.122C106.143 51.2508 105.755 51.3017 105.37 51.2712C103.47 51.2712 102.385 50.0231 102.385 48.5579C102.384 48.1732 102.462 47.7925 102.614 47.439C102.766 47.0856 102.989 46.767 103.268 46.5027C103.548 46.2384 103.878 46.0341 104.24 45.9023C104.601 45.7704 104.985 45.7139 105.37 45.736C107.323 45.736 108.354 46.9842 108.354 48.4494ZM114.649 45.8988C114.661 46.3527 114.697 46.8056 114.758 47.2555C114.737 47.2786 114.712 47.2971 114.684 47.3098C114.656 47.3224 114.626 47.329 114.595 47.329C114.564 47.329 114.534 47.3224 114.505 47.3098C114.477 47.2971 114.452 47.2786 114.432 47.2555C114.366 46.8817 114.162 46.5462 113.86 46.3152C113.559 46.0842 113.182 45.9744 112.804 46.0074C111.719 46.0074 110.688 46.7128 110.688 48.3408C110.688 49.9688 111.719 50.8913 112.858 50.8913C113.24 50.8817 113.609 50.7575 113.919 50.5349C114.229 50.3123 114.464 50.0016 114.595 49.6432C114.649 49.5347 114.866 49.5347 114.92 49.6432C114.87 50.096 114.741 50.5366 114.541 50.9456C114.011 51.1025 113.464 51.1936 112.913 51.2169C112.151 51.2615 111.393 51.0722 110.742 50.6743C110.385 50.4373 110.093 50.1142 109.894 49.7349C109.695 49.3555 109.595 48.932 109.602 48.5036C109.587 48.0856 109.673 47.6701 109.853 47.2923C110.032 46.9145 110.3 46.5854 110.633 46.333C111.314 45.8515 112.133 45.6039 112.967 45.6275C113.533 45.6474 114.096 45.7201 114.649 45.8446V45.8988ZM116.874 47.0927C116.874 46.2787 116.82 46.2244 116.331 46.1702H116.06C115.951 46.0616 115.951 45.8446 116.06 45.8446H118.556C118.665 45.8446 118.665 46.0616 118.556 46.1159H118.339C117.797 46.2244 117.797 46.2787 117.797 47.0927V49.806C117.797 50.6743 117.797 50.7285 118.339 50.7828H118.556V51.1627L117.308 51.1084H116.06C115.951 51.1084 115.951 50.8913 116.06 50.8371H116.277C116.82 50.7285 116.874 50.6743 116.874 49.806V47.0927ZM122.355 48.8292C122.68 48.8292 122.735 48.8292 122.572 48.4494L122.192 47.4183C122.15 47.2694 122.095 47.1242 122.029 46.9842C121.956 47.1212 121.902 47.2671 121.866 47.4183L121.432 48.5036C121.27 48.8292 121.27 48.8292 121.541 48.8292H122.355ZM121.432 49.2091C121.161 49.2091 121.107 49.2091 120.998 49.5347L120.727 50.2944C120.618 50.6743 120.618 50.7285 120.835 50.7828H121.161C121.27 50.8913 121.27 51.1084 121.161 51.1084H119.316C119.294 51.0936 119.275 51.0734 119.262 51.0497C119.25 51.0261 119.243 50.9996 119.243 50.9727C119.243 50.9459 119.25 50.9194 119.262 50.8958C119.275 50.8721 119.294 50.8519 119.316 50.8371L119.587 50.7828C119.967 50.6743 120.13 50.5658 120.347 49.9688L121.541 47.2012C121.697 46.8746 121.807 46.5275 121.866 46.1702C122.09 46.0889 122.281 45.9363 122.409 45.736H122.572C122.572 45.736 122.789 46.55 123.115 47.2555L124.2 50.1316C124.363 50.5657 124.471 50.6743 124.905 50.7828H125.068C125.111 50.7828 125.153 50.8 125.183 50.8305C125.214 50.861 125.231 50.9024 125.231 50.9456C125.231 50.9888 125.214 51.0302 125.183 51.0607C125.153 51.0913 125.111 51.1084 125.068 51.1084H122.952C122.929 51.0936 122.911 51.0734 122.898 51.0497C122.886 51.0261 122.879 50.9996 122.879 50.9727C122.879 50.9459 122.886 50.9194 122.898 50.8958C122.911 50.8721 122.929 50.8519 122.952 50.8371H123.223C123.494 50.7285 123.494 50.6743 123.332 50.2944L123.006 49.5347C122.898 49.2634 122.843 49.2634 122.572 49.2634L121.432 49.2091ZM127.727 46.4958C127.727 46.2244 127.727 46.2244 127.51 46.2244H127.076C126.371 46.2244 126.045 46.2787 125.774 47.0927C125.753 47.1158 125.728 47.1343 125.7 47.147C125.672 47.1596 125.642 47.1662 125.611 47.1662C125.58 47.1662 125.55 47.1596 125.522 47.147C125.493 47.1343 125.468 47.1158 125.448 47.0927L125.774 45.6275C125.803 45.6008 125.842 45.5861 125.882 45.5861C125.922 45.5861 125.961 45.6008 125.991 45.6275C125.991 45.8988 126.154 45.8446 126.642 45.8446H130.061C130.495 45.8446 130.603 45.8446 130.658 45.6275C130.687 45.6008 130.726 45.5861 130.766 45.5861C130.806 45.5861 130.845 45.6008 130.875 45.6275C130.762 46.1073 130.726 46.6016 130.766 47.0927C130.746 47.1158 130.721 47.1343 130.693 47.147C130.665 47.1596 130.634 47.1662 130.603 47.1662C130.573 47.1662 130.542 47.1596 130.514 47.147C130.486 47.1343 130.461 47.1158 130.441 47.0927C130.386 46.2787 130.061 46.1702 129.355 46.1702H128.921C128.704 46.1702 128.65 46.1702 128.65 46.4958V49.806C128.65 50.62 128.704 50.7285 129.192 50.7828H129.518C129.541 50.8032 129.56 50.8282 129.572 50.8563C129.585 50.8844 129.592 50.9148 129.592 50.9456C129.592 50.9764 129.585 51.0069 129.572 51.0349C129.56 51.063 129.541 51.088 129.518 51.1084H126.859C126.836 51.088 126.817 51.063 126.805 51.0349C126.792 51.0069 126.785 50.9764 126.785 50.9456C126.785 50.9148 126.792 50.8844 126.805 50.8563C126.817 50.8282 126.836 50.8032 126.859 50.7828H127.185C127.727 50.7285 127.727 50.62 127.727 49.806V46.4958ZM132.665 47.0927C132.665 46.2787 132.665 46.2244 132.123 46.1702H131.906C131.797 46.0616 131.797 45.8446 131.906 45.8446H134.348C134.456 45.8446 134.456 46.0616 134.348 46.1159H134.131C133.588 46.2244 133.588 46.2787 133.588 47.0927V49.806C133.588 50.6743 133.642 50.7285 134.131 50.7828H134.348C134.456 50.8913 134.456 51.1084 134.348 51.1627L133.1 51.1084H131.906C131.797 51.1084 131.797 50.8913 131.906 50.8371H132.123C132.665 50.7285 132.665 50.6743 132.665 49.806V47.0927ZM136.79 48.3408C136.79 49.589 137.332 50.8913 138.798 50.8913C139.666 50.8913 140.588 50.2944 140.588 48.6122C140.588 47.364 139.937 46.0616 138.635 46.0616C137.767 46.0616 136.79 46.6043 136.79 48.3408ZM141.674 48.4494C141.682 48.8364 141.61 49.2209 141.461 49.5781C141.312 49.9353 141.089 50.2573 140.808 50.5233C140.527 50.7892 140.193 50.9932 139.828 51.122C139.463 51.2508 139.075 51.3017 138.689 51.2712C136.844 51.2712 135.704 50.0231 135.704 48.5579C135.704 48.1732 135.782 47.7925 135.934 47.439C136.086 47.0856 136.308 46.767 136.588 46.5027C136.867 46.2384 137.198 46.0341 137.559 45.9023C137.92 45.7704 138.305 45.7139 138.689 45.736C140.643 45.736 141.674 46.9842 141.674 48.4494ZM147.914 47.6896C147.914 46.4958 147.914 46.2244 147.372 46.1702H146.992C146.969 46.1498 146.95 46.1248 146.938 46.0967C146.925 46.0686 146.918 46.0382 146.918 46.0074C146.918 45.9766 146.925 45.9461 146.938 45.9181C146.95 45.89 146.969 45.8649 146.992 45.8446H149.162C149.193 45.8831 149.21 45.9309 149.21 45.9802C149.21 46.0296 149.193 46.0774 149.162 46.1159H148.728C148.457 46.1702 148.348 46.4958 148.348 47.7439V51.1084C148.323 51.1421 148.29 51.1695 148.253 51.1883C148.215 51.2071 148.174 51.2169 148.131 51.2169L146.992 50.0231L145.147 48.0695C144.859 47.7428 144.551 47.4347 144.224 47.147L144.17 47.6896V49.2091C144.17 50.4572 144.224 50.7285 144.713 50.8371H145.092C145.123 50.8756 145.14 50.9234 145.14 50.9727C145.14 51.0221 145.123 51.0699 145.092 51.1084H143.03C143 51.0699 142.983 51.0221 142.983 50.9727C142.983 50.9234 143 50.8756 143.03 50.8371H143.356C143.682 50.7285 143.79 50.403 143.79 49.2091V47.0384C143.79 46.6586 143.79 46.4958 143.519 46.333C143.384 46.2551 143.237 46.2001 143.085 46.1702L142.868 46.1159C142.844 46.0955 142.826 46.0705 142.813 46.0424C142.801 46.0144 142.794 45.9839 142.794 45.9531C142.794 45.9223 142.801 45.8919 142.813 45.8638C142.826 45.8357 142.844 45.8107 142.868 45.7903H143.953C144.133 45.8038 144.315 45.8038 144.496 45.7903C144.799 46.3661 145.183 46.8959 145.635 47.364L146.775 48.5036L147.86 49.6432C147.969 49.6432 147.969 49.4804 147.969 49.1548L147.914 47.6896ZM8.55837 59.3569L8.28704 60.3337L7.14745 64.2951C6.99326 65.0513 6.6581 65.7589 6.17065 66.3573C5.81111 66.722 5.32579 66.9355 4.814 66.9542C4.72122 66.9696 4.6263 66.9663 4.53481 66.9445C4.44333 66.9226 4.35714 66.8827 4.28129 66.8271C4.20545 66.7715 4.1415 66.7013 4.09319 66.6206C4.04488 66.5399 4.0132 66.4504 4 66.3573C4 66.273 4.01961 66.1899 4.05729 66.1146C4.09497 66.0392 4.14967 65.9737 4.21707 65.9231C4.37986 65.7603 4.4884 65.8689 4.59693 66.0317C4.67254 66.154 4.77571 66.257 4.8982 66.3323C5.02068 66.4077 5.1591 66.4534 5.30239 66.4658C5.51946 66.4658 5.84506 66.303 6.06212 65.489C6.71332 63.4269 7.14745 61.3647 7.69011 59.4112H6.65905C6.61823 59.3386 6.60673 59.2532 6.62692 59.1725C6.6471 59.0918 6.69744 59.0218 6.76758 58.977H7.79864C8.02009 57.9091 8.48428 56.9064 9.1553 56.0466C9.40236 55.738 9.71643 55.4897 10.0737 55.3204C10.431 55.1512 10.8221 55.0655 11.2174 55.0699C11.4454 55.0529 11.6716 55.1213 11.8521 55.2617C12.0326 55.402 12.1545 55.6044 12.1942 55.8296C12.1942 56.2094 11.8686 56.5893 11.6516 56.5893C11.6247 56.5909 11.5979 56.5858 11.5736 56.5744C11.5492 56.5631 11.528 56.546 11.5119 56.5245C11.4958 56.503 11.4852 56.4778 11.4812 56.4513C11.4772 56.4247 11.4798 56.3976 11.4888 56.3722C11.4888 55.6668 11.0546 55.4497 10.7833 55.4497C10.5796 55.4698 10.3839 55.5397 10.2136 55.6533C10.0432 55.7669 9.90342 55.9206 9.8065 56.1009C9.27655 56.9737 8.89169 57.9267 8.6669 58.9228H10.1864C10.2272 58.9953 10.2387 59.0807 10.2185 59.1614C10.1983 59.2422 10.148 59.3121 10.0778 59.3569H8.55837ZM11.9229 59.6825C11.2722 60.5622 10.844 61.5862 10.6748 62.6671C10.6748 63.1013 10.8376 63.4811 11.2174 63.4811C11.5973 63.4811 11.7601 63.3726 12.1399 62.8299C12.7098 61.9433 13.0801 60.9435 13.2253 59.8996C13.2253 59.5197 13.2253 59.0856 12.7911 59.0856C12.5741 59.0856 12.2485 59.1941 11.9229 59.6825ZM14.0935 60.2252C13.9834 61.2522 13.5236 62.2101 12.7911 62.9385C12.587 63.1927 12.3318 63.4013 12.042 63.5509C11.7523 63.7004 11.4344 63.7876 11.1089 63.8067C10.2949 63.8067 9.8065 63.2641 9.86076 62.1787C9.98994 61.1459 10.4687 60.1885 11.2174 59.4654C11.6493 59.0299 12.2323 58.7773 12.8454 58.76C13.7137 58.76 14.1478 59.4112 14.0935 60.2794V60.2252ZM17.1867 59.8996L16.6441 61.419C17.0391 60.7077 17.4739 60.0193 17.9464 59.3569C18.0501 59.1986 18.1857 59.0637 18.3446 58.9609C18.5034 58.858 18.6821 58.7896 18.869 58.76C19.3031 58.76 19.3574 59.1941 19.3574 59.3026C19.3345 59.5751 19.241 59.837 19.086 60.0624C18.9775 60.2794 18.7604 60.2794 18.7062 60.0624C18.6519 59.8453 18.5976 59.5197 18.4348 59.5197C18.272 59.5197 18.2178 59.6825 18.055 59.8996C17.2407 61.0927 16.5498 62.3654 15.9929 63.6982C15.9806 63.746 15.9524 63.7881 15.9129 63.8177C15.8734 63.8473 15.8251 63.8626 15.7758 63.861C15.613 63.861 15.2874 63.8067 15.3417 63.5354C15.5045 63.047 16.3185 60.9306 16.6441 59.7368C16.6441 59.6282 16.6441 59.4654 16.5355 59.4654C16.2099 59.4654 15.8843 59.8453 15.6673 60.1166C15.5045 60.1166 15.4502 60.0624 15.4502 59.8996C15.8843 59.2484 16.3185 58.76 16.8611 58.76C17.4038 58.76 17.2953 59.574 17.1867 59.8996ZM24.9468 61.419C25.2724 61.419 25.3267 61.419 25.1639 61.0391L24.784 60.0081C24.7507 59.8564 24.6959 59.7102 24.6212 59.574C24.5328 59.7101 24.46 59.8557 24.4041 60.0081L23.97 61.0934C23.8615 61.419 23.8615 61.419 24.1328 61.419H24.9468ZM23.97 61.7989C23.7529 61.7989 23.6987 61.7989 23.5901 62.0702L23.3188 62.8299C23.156 63.2098 23.2103 63.2641 23.4273 63.3726H23.7529C23.8615 63.4269 23.8615 63.6439 23.7529 63.6982H21.9079C21.8647 63.6982 21.8233 63.681 21.7928 63.6505C21.7622 63.62 21.7451 63.5786 21.7451 63.5354C21.7451 63.4922 21.7622 63.4508 21.7928 63.4203C21.8233 63.3898 21.8647 63.3726 21.9079 63.3726H22.1792C22.5591 63.2641 22.7219 63.1013 22.9932 62.5586L24.0785 59.791C24.2296 59.4623 24.339 59.1159 24.4041 58.76C24.6277 58.6786 24.8184 58.5261 24.9468 58.3258C24.9767 58.2991 25.0153 58.2844 25.0553 58.2844C25.0954 58.2844 25.134 58.2991 25.1639 58.3258L25.6523 59.8453L26.7376 62.7214C26.9004 63.1013 27.0089 63.2641 27.4431 63.3726H27.6601C27.7033 63.3798 27.7418 63.4039 27.7673 63.4395C27.7927 63.4751 27.803 63.5194 27.7958 63.5625C27.7886 63.6057 27.7645 63.6443 27.7289 63.6697C27.6933 63.6951 27.649 63.7054 27.6059 63.6982H25.4895C25.4463 63.6982 25.4049 63.681 25.3744 63.6505C25.3438 63.62 25.3267 63.5786 25.3267 63.5354C25.3267 63.4922 25.3438 63.4508 25.3744 63.4203C25.4049 63.3898 25.4463 63.3726 25.4895 63.3726H25.7608C26.0864 63.3183 26.0321 63.2641 25.9236 62.8299L25.598 62.0702C25.5437 61.7989 25.4895 61.7989 25.2181 61.7989H23.97ZM31.6758 61.4733L32.11 62.233C32.3134 61.9583 32.4948 61.668 32.6526 61.3647L33.1953 60.2252C33.5525 59.6253 33.8436 58.9885 34.0635 58.3258C34.2986 58.3378 34.534 58.3378 34.769 58.3258H35.7458C35.8543 58.3258 35.8543 58.5972 35.7458 58.6514L35.5287 58.7057C34.9861 58.76 34.9861 59.0313 34.9861 59.7368V62.7214C34.9861 62.9927 34.9861 63.2641 35.4202 63.3183H35.7458C35.8543 63.4269 35.8543 63.6439 35.7458 63.6439H33.4666C33.4124 63.6439 33.3581 63.4269 33.4666 63.3726H33.738C34.1721 63.2641 34.1721 63.2098 34.1721 62.7214V59.8996L34.1178 59.5197L33.5752 60.4422L32.8154 61.8531C32.4955 62.4348 32.2057 63.0325 31.9472 63.6439C31.9173 63.6706 31.8787 63.6854 31.8386 63.6854C31.7986 63.6854 31.7599 63.6706 31.7301 63.6439L31.0246 62.0159L30.2106 60.5508C30.07 60.2044 29.8878 59.8764 29.668 59.574V62.3958C29.668 62.9385 29.668 63.2641 29.9936 63.2641L30.3734 63.3183C30.3965 63.3387 30.415 63.3638 30.4277 63.3918C30.4404 63.4199 30.4469 63.4503 30.4469 63.4811C30.4469 63.5119 30.4404 63.5424 30.4277 63.5704C30.415 63.5985 30.3965 63.6236 30.3734 63.6439L29.3966 63.5897H28.3656V63.3183H28.6369C29.0168 63.2098 29.071 63.1013 29.1796 62.6671L29.2881 59.2484C29.2881 58.8685 29.1796 58.7057 28.7454 58.7057L28.4741 58.5972C28.4198 58.5972 28.3656 58.3801 28.4741 58.3258H29.3966C29.7039 58.3426 30.0119 58.3426 30.3192 58.3258C30.3192 58.8685 30.5362 59.2484 30.9161 60.0081L31.6758 61.4733ZM38.7847 62.3415C38.7847 63.047 38.9475 63.2641 39.653 63.2641C39.8044 63.2793 39.9572 63.2625 40.1017 63.2148C40.2462 63.1671 40.379 63.0896 40.4916 62.9873C40.6042 62.8849 40.694 62.7601 40.7552 62.6208C40.8164 62.4815 40.8476 62.3309 40.8468 62.1787C40.8468 61.2562 40.1414 60.9849 39.3274 60.9849C38.7847 60.9849 38.7847 60.9849 38.7847 61.1477V62.3415ZM38.7847 60.4422C38.7847 60.605 38.7847 60.605 39.2189 60.605C39.9786 60.605 40.467 60.4422 40.467 59.6825C40.467 58.9228 39.87 58.76 39.2731 58.76C38.7847 58.76 38.7305 58.8685 38.7305 59.0856L38.7847 60.4422ZM37.8622 59.791C37.8622 59.0313 37.8622 58.8142 37.4823 58.76L37.1025 58.7057C36.9939 58.7057 36.9939 58.4344 37.1025 58.3801H39.1646C39.6736 58.3308 40.1872 58.3675 40.684 58.4886C40.9127 58.5603 41.1113 58.7056 41.2487 58.9019C41.3861 59.0983 41.4547 59.3346 41.4438 59.574C41.4438 60.1166 41.0639 60.4422 40.467 60.6593C40.4127 60.7678 40.467 60.7678 40.7926 60.8221C41.0945 60.8837 41.3665 61.0462 41.5637 61.2829C41.761 61.5196 41.8718 61.8164 41.8779 62.1245C41.8862 62.3908 41.8126 62.6533 41.667 62.8765C41.5215 63.0996 41.311 63.2728 41.0639 63.3726C40.5463 63.5763 39.9916 63.6688 39.4359 63.6439H37.0482C37.0174 63.6054 37.0006 63.5576 37.0006 63.5083C37.0006 63.459 37.0174 63.4111 37.0482 63.3726L37.2653 63.3183C37.8079 63.2641 37.8622 63.2098 37.8622 62.3415V59.791ZM43.94 59.6282C43.94 58.8142 43.8858 58.8142 43.3974 58.7057L43.2346 58.6514C43.126 58.5972 43.126 58.3801 43.2346 58.3258H45.6223C45.7308 58.3258 45.7308 58.5972 45.6223 58.6514H45.4052C44.8626 58.76 44.8626 58.8142 44.8626 59.6282V61.3647C44.8626 62.5586 45.2424 63.3726 46.4363 63.3726C47.5216 63.3726 48.01 62.5586 48.01 61.3647V60.2794C48.01 59.0313 47.9015 58.76 47.4131 58.6514H47.1417C47.0986 58.6514 47.0571 58.6343 47.0266 58.6038C46.9961 58.5732 46.9789 58.5318 46.9789 58.4886C46.9789 58.4455 46.9961 58.404 47.0266 58.3735C47.0571 58.343 47.0986 58.3258 47.1417 58.3258H49.2039C49.227 58.3462 49.2455 58.3713 49.2581 58.3993C49.2708 58.4274 49.2773 58.4578 49.2773 58.4886C49.2773 58.5194 49.2708 58.5499 49.2581 58.5779C49.2455 58.606 49.227 58.6311 49.2039 58.6514H48.824C48.4984 58.7057 48.4441 59.0313 48.4441 60.2794V61.419C48.4441 62.9385 47.6844 63.7525 46.1649 63.7525C45.5455 63.8118 44.9261 63.6376 44.4284 63.2641C44.0339 62.7962 43.839 62.192 43.8858 61.5818L43.94 59.6282ZM51.1032 59.6282C51.1032 58.8142 51.1032 58.76 50.5605 58.7057L50.3434 58.6514C50.3204 58.6311 50.3019 58.606 50.2892 58.5779C50.2765 58.5499 50.27 58.5194 50.27 58.4886C50.27 58.4578 50.2765 58.4274 50.2892 58.3993C50.3019 58.3713 50.3204 58.3462 50.3434 58.3258H52.6769C52.8397 58.3258 52.8397 58.5972 52.6769 58.6514H52.5684C52.0257 58.8142 52.0257 58.8142 52.0257 59.6282V62.233C52.0061 62.514 52.0624 62.7951 52.1885 63.047C52.297 63.1555 52.4598 63.2641 53.111 63.2641C53.8708 63.2641 54.3049 63.2641 54.6305 62.233C54.6545 62.2128 54.6826 62.1981 54.7129 62.1898C54.7432 62.1816 54.7748 62.1799 54.8058 62.1851C54.8367 62.1903 54.8662 62.2021 54.8921 62.2197C54.9181 62.2373 54.9399 62.2604 54.9561 62.2873C54.9005 62.7564 54.7724 63.2141 54.5762 63.6439H50.2349C50.2118 63.6236 50.1933 63.5985 50.1806 63.5704C50.168 63.5424 50.1614 63.5119 50.1614 63.4811C50.1614 63.4503 50.168 63.4199 50.1806 63.3918C50.1933 63.3638 50.2118 63.3387 50.2349 63.3183H50.5062C51.0489 63.2098 51.0489 63.1555 51.0489 62.3415L51.1032 59.6282ZM58.2663 61.3647C58.5377 61.3647 58.5919 61.3647 58.4834 60.9849L58.1035 59.9538C58.0472 59.8016 57.9744 59.6561 57.8865 59.5197L57.7237 59.9538L57.2895 61.0391C57.1267 61.3647 57.181 61.3647 57.4523 61.3647H58.2663ZM57.2895 61.7446C57.0182 61.7446 56.9639 61.7446 56.8554 62.0159L56.5841 62.7757C56.4755 63.1555 56.4755 63.2098 56.7469 63.3183H57.0725C57.181 63.3726 57.1267 63.5897 57.0725 63.6439H55.2274C55.1842 63.6439 55.1428 63.6268 55.1123 63.5963C55.0818 63.5657 55.0646 63.5243 55.0646 63.4811C55.0646 63.438 55.0818 63.3966 55.1123 63.366C55.1428 63.3355 55.1842 63.3183 55.2274 63.3183H55.4988C55.8786 63.2098 56.0414 63.047 56.2585 62.5043L57.3981 59.7368C57.5504 59.4274 57.66 59.0988 57.7237 58.76C57.9292 58.672 58.1006 58.5197 58.2121 58.3258C58.3206 58.2716 58.3749 58.3258 58.4291 58.3258L58.9718 59.8453L60.0571 62.7214C60.1657 63.1013 60.2742 63.2641 60.7626 63.3726H60.9254C60.9686 63.3726 61.01 63.3898 61.0405 63.4203C61.071 63.4508 61.0882 63.4922 61.0882 63.5354C61.0882 63.5786 61.071 63.62 61.0405 63.6505C61.01 63.681 60.9686 63.6982 60.9254 63.6982H58.7547C58.7116 63.6982 58.6701 63.681 58.6396 63.6505C58.6091 63.62 58.5919 63.5786 58.5919 63.5354C58.5919 63.4922 58.6091 63.4508 58.6396 63.4203C58.6701 63.3898 58.7116 63.3726 58.7547 63.3726H59.0261C59.3517 63.3183 59.3517 63.2641 59.1889 62.8299L58.9175 62.0702C58.809 61.7989 58.7547 61.7989 58.4834 61.7989L57.2895 61.7446ZM63.6387 59.0313C63.6387 58.7057 63.6387 58.7057 63.3674 58.7057H62.9875C62.282 58.7057 61.9022 58.8142 61.6851 59.6282C61.6611 59.6484 61.633 59.6631 61.6027 59.6714C61.5725 59.6797 61.5408 59.6813 61.5098 59.6761C61.4789 59.671 61.4494 59.6592 61.4235 59.6415C61.3975 59.6239 61.3757 59.6008 61.3595 59.574L61.6851 58.163C61.715 58.1363 61.7536 58.1216 61.7936 58.1216C61.8337 58.1216 61.8723 58.1363 61.9022 58.163C61.9022 58.3801 62.065 58.3801 62.5534 58.3801H65.9722C66.4063 58.3801 66.5148 58.3801 66.5691 58.163C66.5989 58.1363 66.6376 58.1216 66.6776 58.1216C66.7177 58.1216 66.7563 58.1363 66.7861 58.163C66.6759 58.6247 66.6392 59.1009 66.6776 59.574C66.6776 59.6825 66.4063 59.6825 66.352 59.574C66.2978 58.8142 65.9722 58.7057 65.2667 58.7057H64.8326C64.5612 58.7057 64.5612 58.7057 64.5612 59.0313V62.2873C64.5612 63.1555 64.5612 63.2098 65.1039 63.2641L65.4295 63.3183V63.6439H62.7704C62.7473 63.6236 62.7288 63.5985 62.7162 63.5704C62.7035 63.5424 62.6969 63.5119 62.6969 63.4811C62.6969 63.4503 62.7035 63.4199 62.7162 63.3918C62.7288 63.3638 62.7473 63.3387 62.7704 63.3183H63.096C63.6387 63.2098 63.6387 63.1555 63.6387 62.3415V59.0313ZM68.794 60.8764C68.794 62.1245 69.3367 63.4811 70.8019 63.4811C71.7244 63.4811 72.6469 62.8299 72.6469 61.202C72.6469 59.8996 71.9957 58.5972 70.6391 58.5972C69.7708 58.5972 68.794 59.1398 68.794 60.8764ZM73.678 60.9849C73.6861 61.367 73.6151 61.7466 73.4693 62.0999C73.3234 62.4532 73.106 62.7724 72.8307 63.0375C72.5554 63.3026 72.2282 63.5078 71.8697 63.6402C71.5112 63.7726 71.1291 63.8293 70.7476 63.8067C68.8483 63.8067 67.7629 62.5586 67.7629 61.0934C67.7623 60.7087 67.8403 60.328 67.9922 59.9746C68.1441 59.6211 68.3666 59.3025 68.6461 59.0382C68.9257 58.774 69.2563 58.5696 69.6177 58.4378C69.979 58.3059 70.3636 58.2494 70.7476 58.2716C72.7012 58.2716 73.678 59.5197 73.678 60.9849ZM76.7169 60.6593C76.7169 60.9849 76.7169 60.9849 77.3138 60.9849C78.1278 60.9849 78.5077 60.6593 78.5077 59.8453C78.5095 59.688 78.477 59.5321 78.4126 59.3886C78.3482 59.2451 78.2533 59.1172 78.1346 59.014C78.0159 58.9108 77.8761 58.8346 77.725 58.7907C77.5739 58.7468 77.4151 58.7364 77.2596 58.76C76.8254 58.76 76.7169 58.76 76.7169 59.0856V60.6593ZM75.7944 59.791C75.7944 59.0313 75.7944 58.8142 75.523 58.76L75.1432 58.7057C75.0346 58.7057 75.0346 58.4344 75.1432 58.3801H77.2053C78.2906 58.3801 79.5387 58.4886 79.5387 59.791C79.5326 60.0991 79.4218 60.3959 79.2246 60.6326C79.0273 60.8693 78.7553 61.0319 78.4534 61.0934C78.4391 61.1182 78.4316 61.1462 78.4316 61.1748C78.4316 61.2034 78.4391 61.2315 78.4534 61.2562C78.8513 61.985 79.3644 62.6447 79.9729 63.2098C80.1625 63.3474 80.3898 63.4232 80.6241 63.4269C80.6508 63.4567 80.6655 63.4954 80.6655 63.5354C80.6655 63.5754 80.6508 63.6141 80.6241 63.6439C80.4445 63.6743 80.261 63.6743 80.0814 63.6439C79.7586 63.6495 79.4397 63.5727 79.1549 63.4208C78.87 63.2688 78.6286 63.0468 78.4534 62.7757L77.5309 61.4733C77.4642 61.3988 77.3782 61.3442 77.2825 61.3154C77.1867 61.2867 77.0849 61.285 76.9882 61.3105C76.7169 61.3105 76.6626 61.3105 76.6626 61.4733V62.3415C76.6626 63.1555 76.7712 63.2098 77.2596 63.3183H77.5309C77.6394 63.3726 77.6394 63.5897 77.5309 63.6439H75.0889C75.0457 63.6439 75.0043 63.6268 74.9738 63.5963C74.9433 63.5657 74.9261 63.5243 74.9261 63.4811C74.9261 63.438 74.9433 63.3966 74.9738 63.366C75.0043 63.3355 75.0457 63.3183 75.0889 63.3183H75.2517C75.7944 63.2098 75.7944 63.1555 75.7944 62.3415V59.791ZM83.0118 61.9617C83.0118 61.6361 83.0118 61.5275 82.6319 60.9849L81.7637 59.3569C81.5466 58.8685 81.3838 58.8142 81.0582 58.7057L80.7869 58.6514C80.7638 58.6311 80.7453 58.606 80.7326 58.5779C80.7199 58.5499 80.7134 58.5194 80.7134 58.4886C80.7134 58.4578 80.7199 58.4274 80.7326 58.3993C80.7453 58.3713 80.7638 58.3462 80.7869 58.3258H82.9575C83.0118 58.3801 83.066 58.5972 82.9575 58.6514H82.7947C82.5234 58.76 82.4691 58.8142 82.6862 59.1941L83.1203 60.0624L83.663 61.0391L84.2056 60.0624L84.7483 59.1398C84.9111 58.8142 84.9111 58.7057 84.6398 58.6514H84.3684C84.3253 58.6514 84.2839 58.6343 84.2533 58.6038C84.2228 58.5732 84.2056 58.5318 84.2056 58.4886C84.2056 58.4455 84.2228 58.404 84.2533 58.3735C84.2839 58.343 84.3253 58.3258 84.3684 58.3258H86.1592C86.2678 58.3258 86.322 58.5972 86.1592 58.6514H85.8879C85.508 58.76 85.4538 58.8685 85.0739 59.4654L84.3684 60.6593C83.9343 61.3105 83.9343 61.4733 83.9343 61.7989V62.4501C83.9343 63.1555 83.9343 63.2641 84.477 63.3183H84.8026C84.8257 63.3387 84.8442 63.3638 84.8568 63.3918C84.8695 63.4199 84.8761 63.4503 84.8761 63.4811C84.8761 63.5119 84.8695 63.5424 84.8568 63.5704C84.8442 63.5985 84.8257 63.6236 84.8026 63.6439H82.1435C82.035 63.6439 82.035 63.3726 82.1435 63.3183H82.4691C83.0118 63.2641 83.0118 63.1555 83.0118 62.4501V61.9617ZM94.679 60.7136C95.0589 60.7136 95.1132 60.7136 95.1132 60.388V59.6282C95.1132 58.8142 95.0589 58.76 94.5705 58.7057L94.2992 58.6514C94.2761 58.6311 94.2576 58.606 94.2449 58.5779C94.2322 58.5499 94.2257 58.5194 94.2257 58.4886C94.2257 58.4578 94.2322 58.4274 94.2449 58.3993C94.2576 58.3713 94.2761 58.3462 94.2992 58.3258H96.7954C96.904 58.3258 96.904 58.5972 96.7954 58.6514H96.5784C96.0357 58.76 96.0357 58.8142 96.0357 59.6282V62.3415C96.0357 63.2098 96.0357 63.2641 96.5784 63.3183H96.8497C96.8728 63.3387 96.8913 63.3638 96.904 63.3918C96.9166 63.4199 96.9232 63.4503 96.9232 63.4811C96.9232 63.5119 96.9166 63.5424 96.904 63.5704C96.8913 63.5985 96.8728 63.6236 96.8497 63.6439H94.2449C94.2141 63.6054 94.1973 63.5576 94.1973 63.5083C94.1973 63.459 94.2141 63.4111 94.2449 63.3726L94.462 63.3183C95.0046 63.2641 95.0589 63.2098 95.0589 62.3415V61.4733C95.0589 61.1477 95.0589 61.1477 94.6248 61.1477H92.4541C92.02 61.1477 92.02 61.1477 92.02 61.4733V62.3958C92.02 63.2641 92.02 63.3183 92.5627 63.3726H92.8883C92.9114 63.393 92.9298 63.418 92.9425 63.4461C92.9552 63.4742 92.9617 63.5046 92.9617 63.5354C92.9617 63.5662 92.9552 63.5966 92.9425 63.6247C92.9298 63.6528 92.9114 63.6778 92.8883 63.6982H90.4463C90.4154 63.6597 90.3987 63.6119 90.3987 63.5625C90.3987 63.5132 90.4154 63.4654 90.4463 63.4269L90.5548 63.3726C91.0975 63.2641 91.0975 63.2641 91.0975 62.3958V59.6825C91.0975 58.8685 91.0975 58.8142 90.5548 58.76L90.2835 58.7057C90.1749 58.6514 90.1749 58.4344 90.2835 58.3801H92.7255C92.834 58.3801 92.834 58.6514 92.7255 58.7057H92.5627C92.02 58.8142 92.02 58.8685 92.02 59.6825V60.4422C92.02 60.7678 92.02 60.7678 92.4541 60.7678L94.679 60.7136ZM98.9118 59.6282C98.9118 58.8142 98.9118 58.76 98.4234 58.7057L98.2606 58.6514C98.1521 58.5972 98.2064 58.3801 98.2606 58.3258H102.222L102.385 59.574C102.364 59.5971 102.339 59.6156 102.311 59.6282C102.283 59.6409 102.253 59.6474 102.222 59.6474C102.191 59.6474 102.161 59.6409 102.133 59.6282C102.105 59.6156 102.08 59.5971 102.059 59.574C102.02 59.3815 101.947 59.1976 101.842 59.0313C101.625 58.7057 101.082 58.7057 100.811 58.7057H100.268C99.8886 58.7057 99.8344 58.7057 99.8344 59.0856V60.4422C99.8344 60.6593 99.8344 60.6593 100.106 60.6593H100.648C101.3 60.6593 101.354 60.5508 101.462 60.2252L101.517 59.9538H101.788V61.6903C101.788 61.7989 101.571 61.7989 101.517 61.6903L101.462 61.4733C101.354 61.0934 101.3 60.9849 100.648 60.9849H100.106C99.8886 60.9849 99.8886 61.0391 99.8886 61.3105V62.1245C99.8501 62.4184 99.8874 62.7173 99.9971 62.9927C100.106 63.1555 100.323 63.1555 101.028 63.1555C101.788 63.1555 102.276 63.1555 102.602 62.1787C102.626 62.1586 102.654 62.1438 102.684 62.1356C102.715 62.1273 102.746 62.1257 102.777 62.1308C102.808 62.136 102.838 62.1478 102.864 62.1654C102.89 62.1831 102.911 62.2061 102.928 62.233C102.876 62.7029 102.747 63.1611 102.548 63.5897L100.486 63.5354H98.0436C98.0127 63.4969 97.9959 63.4491 97.9959 63.3997C97.9959 63.3504 98.0127 63.3026 98.0436 63.2641H98.3691C98.9118 63.1555 98.9118 63.1013 98.9118 62.2873V59.6282ZM106.401 61.3647C106.726 61.3647 106.78 61.3647 106.618 60.9849L106.238 59.9538C106.199 59.8038 106.144 59.6583 106.075 59.5197L105.858 59.9538L105.424 61.0391C105.315 61.3647 105.315 61.3647 105.587 61.3647H106.401ZM105.478 61.7446C105.152 61.7446 105.152 61.7446 105.044 62.0159L104.773 62.7757C104.61 63.1555 104.664 63.2098 104.881 63.3183H105.207C105.315 63.3726 105.315 63.5897 105.207 63.6439H103.416C103.373 63.6439 103.331 63.6268 103.301 63.5963C103.27 63.5657 103.253 63.5243 103.253 63.4811C103.253 63.438 103.27 63.3966 103.301 63.366C103.331 63.3355 103.373 63.3183 103.416 63.3183H103.687C104.067 63.2098 104.23 63.047 104.447 62.5043L105.587 59.7368C105.754 59.3952 105.864 59.0286 105.912 58.6514C106.136 58.5701 106.326 58.4176 106.455 58.2173C106.509 58.2173 106.563 58.2173 106.618 58.3258L107.16 59.791L108.246 62.6671C108.408 63.047 108.517 63.2098 108.951 63.3183H109.114C109.157 63.3183 109.198 63.3355 109.229 63.366C109.26 63.3966 109.277 63.438 109.277 63.4811C109.277 63.5243 109.26 63.5657 109.229 63.5963C109.198 63.6268 109.157 63.6439 109.114 63.6439H106.998C106.954 63.6439 106.913 63.6268 106.882 63.5963C106.852 63.5657 106.835 63.5243 106.835 63.4811C106.835 63.438 106.852 63.3966 106.882 63.366C106.913 63.3355 106.954 63.3183 106.998 63.3183H107.269C107.54 63.2641 107.54 63.1555 107.377 62.7757L107.106 62.0159C106.997 61.7446 106.997 61.7446 106.672 61.7446H105.478ZM110.633 59.6282C110.633 58.8142 110.633 58.76 110.091 58.7057L109.874 58.6514V58.3258H112.316C112.339 58.3462 112.357 58.3713 112.37 58.3993C112.383 58.4274 112.389 58.4578 112.389 58.4886C112.389 58.5194 112.383 58.5499 112.37 58.5779C112.357 58.606 112.339 58.6311 112.316 58.6514H112.153C111.61 58.8142 111.61 58.8142 111.61 59.6282V62.233C111.574 62.5092 111.611 62.7901 111.719 63.047C111.827 63.1555 112.044 63.2641 112.641 63.2641C113.401 63.2641 113.889 63.2641 114.215 62.233C114.323 62.1787 114.486 62.233 114.541 62.2873C114.494 62.7581 114.365 63.2172 114.161 63.6439H109.928C109.819 63.6439 109.819 63.3726 109.928 63.3183H110.145C110.688 63.2098 110.688 63.1555 110.688 62.3415L110.633 59.6282ZM117.308 59.0856C117.308 58.7057 117.308 58.7057 117.037 58.7057H116.657C115.897 58.7057 115.572 58.8142 115.3 59.6282C115.256 59.6522 115.204 59.6598 115.155 59.6499C115.105 59.64 115.061 59.6132 115.029 59.574L115.355 58.163C115.384 58.1363 115.423 58.1216 115.463 58.1216C115.503 58.1216 115.542 58.1363 115.572 58.163C115.572 58.3801 115.734 58.3801 116.223 58.3801H119.587C120.021 58.3801 120.13 58.3801 120.238 58.163C120.268 58.1363 120.307 58.1216 120.347 58.1216C120.387 58.1216 120.426 58.1363 120.456 58.163C120.349 58.6252 120.312 59.1009 120.347 59.574C120.293 59.6825 120.076 59.6825 120.021 59.574C119.913 58.8142 119.642 58.7057 118.882 58.7057H118.502C118.231 58.7057 118.176 58.7057 118.176 59.0313V62.2873C118.176 63.1555 118.285 63.2098 118.773 63.2641L119.099 63.3183C119.207 63.3726 119.207 63.5897 119.099 63.6439H116.386C116.362 63.6236 116.344 63.5985 116.331 63.5704C116.319 63.5424 116.312 63.5119 116.312 63.4811C116.312 63.4503 116.319 63.4199 116.331 63.3918C116.344 63.3638 116.362 63.3387 116.386 63.3183H116.711C117.254 63.2098 117.254 63.1555 117.254 62.3415L117.308 59.0856ZM125.719 60.7136C126.099 60.7136 126.154 60.7136 126.154 60.388V59.6282C126.154 58.8142 126.099 58.76 125.611 58.7057L125.394 58.6514C125.285 58.5972 125.285 58.3801 125.394 58.3258H127.836C127.859 58.3462 127.877 58.3713 127.89 58.3993C127.903 58.4274 127.909 58.4578 127.909 58.4886C127.909 58.5194 127.903 58.5499 127.89 58.5779C127.877 58.606 127.859 58.6311 127.836 58.6514H127.619C127.076 58.76 127.076 58.8142 127.076 59.6282V62.3415C127.076 63.2098 127.076 63.2641 127.619 63.3183H127.89C127.999 63.4269 127.999 63.6439 127.89 63.6439H125.394C125.285 63.6439 125.285 63.4269 125.394 63.3726L125.611 63.3183C126.154 63.2641 126.154 63.2098 126.154 62.3415V61.4733C126.154 61.1477 126.154 61.1477 125.719 61.1477H123.549C123.169 61.1477 123.115 61.1477 123.115 61.4733V62.3958C123.115 63.2641 123.115 63.3183 123.657 63.3726H124.037L123.983 63.6982H121.541C121.51 63.6597 121.493 63.6119 121.493 63.5625C121.493 63.5132 121.51 63.4654 121.541 63.4269L121.649 63.3726C122.138 63.2641 122.192 63.2641 122.192 62.3958V59.6825C122.192 58.8685 122.138 58.8142 121.649 58.76L121.378 58.7057C121.355 58.6853 121.336 58.6603 121.324 58.6322C121.311 58.6041 121.305 58.5737 121.305 58.5429C121.305 58.5121 121.311 58.4817 121.324 58.4536C121.336 58.4255 121.355 58.4005 121.378 58.3801H123.82C123.843 58.4005 123.862 58.4255 123.874 58.4536C123.887 58.4817 123.894 58.5121 123.894 58.5429C123.894 58.5737 123.887 58.6041 123.874 58.6322C123.862 58.6603 123.843 58.6853 123.82 58.7057H123.657C123.115 58.8142 123.115 58.8685 123.115 59.6825V60.4422C123.115 60.7678 123.115 60.7678 123.494 60.7678L125.719 60.7136ZM137.658 58.4344C137.652 58.8872 137.67 59.3401 137.712 59.791C137.674 59.8218 137.626 59.8386 137.577 59.8386C137.527 59.8386 137.479 59.8218 137.441 59.791C137.363 59.4128 137.148 59.0766 136.838 58.8464C136.527 58.6163 136.143 58.5082 135.759 58.5429C134.673 58.5429 133.642 59.2484 133.642 60.8764C133.642 62.5043 134.728 63.4269 135.813 63.4269C136.204 63.4282 136.585 63.3091 136.906 63.0858C137.226 62.8624 137.47 62.5457 137.604 62.1787C137.604 62.0702 137.821 62.0702 137.875 62.1787C137.822 62.6311 137.694 63.0713 137.495 63.4811C136.966 63.6386 136.419 63.7297 135.867 63.7525C135.105 63.797 134.348 63.6077 133.697 63.2098C133.35 62.9666 133.069 62.6408 132.879 62.2618C132.69 61.8829 132.598 61.4626 132.611 61.0391C132.594 60.6263 132.674 60.2152 132.843 59.8384C133.013 59.4616 133.268 59.1295 133.588 58.8685C134.282 58.3718 135.123 58.1233 135.976 58.163C136.524 58.1838 137.069 58.2565 137.604 58.3801L137.658 58.4344ZM141.511 61.3647C141.836 61.3647 141.891 61.3647 141.728 60.9849L141.348 59.9538C141.315 59.8021 141.26 59.6559 141.185 59.5197C141.097 59.6558 141.024 59.8015 140.968 59.9538L140.534 61.0391C140.426 61.3647 140.426 61.3647 140.697 61.3647H141.511ZM140.534 61.7446C140.263 61.7446 140.208 61.7446 140.154 62.0159L139.829 62.7757C139.72 63.1555 139.774 63.2098 139.991 63.3183H140.317C140.426 63.3726 140.426 63.5897 140.317 63.6439H138.472C138.363 63.6439 138.363 63.3726 138.472 63.3183H138.743C139.069 63.2098 139.286 63.047 139.503 62.5043L140.643 59.7368C140.805 59.3933 140.915 59.0275 140.968 58.6514C141.19 58.5668 141.38 58.415 141.511 58.2173C141.546 58.2153 141.581 58.2248 141.61 58.2444C141.64 58.264 141.662 58.2925 141.674 58.3258L142.216 59.791L143.302 62.6671C143.464 63.047 143.573 63.2098 144.007 63.3183H144.17C144.333 63.3726 144.278 63.5897 144.17 63.6439H142.108C142.065 63.6439 142.023 63.6268 141.993 63.5963C141.962 63.5657 141.945 63.5243 141.945 63.4811C141.945 63.438 141.962 63.3966 141.993 63.366C142.023 63.3355 142.065 63.3183 142.108 63.3183H142.325C142.65 63.2641 142.65 63.1555 142.488 62.7757L142.162 62.0159C142.108 61.7446 142.054 61.7446 141.782 61.7446H140.534ZM146.666 60.6593C146.666 60.9849 146.666 60.9849 147.317 60.9849C148.077 60.9849 148.511 60.6593 148.511 59.8453C148.513 59.6809 148.479 59.5181 148.412 59.368C148.345 59.218 148.246 59.0842 148.122 58.976C147.998 58.8677 147.853 58.7875 147.695 58.7408C147.537 58.6942 147.372 58.6822 147.209 58.7057C146.775 58.7057 146.666 58.7057 146.666 59.0313V60.6593ZM145.744 59.791C145.744 59.0313 145.744 58.8142 145.472 58.76L145.147 58.7057C145.092 58.7057 145.038 58.4344 145.147 58.3801H147.155C148.294 58.3801 149.542 58.4886 149.542 59.791C149.527 60.0964 149.413 60.3885 149.217 60.6234C149.021 60.8583 148.755 61.0232 148.457 61.0934V61.2562C148.847 61.99 149.361 62.651 149.976 63.2098C150.166 63.3474 150.393 63.4232 150.628 63.4269C150.654 63.4567 150.669 63.4954 150.669 63.5354C150.669 63.5754 150.654 63.6141 150.628 63.6439C150.448 63.6733 150.265 63.6733 150.085 63.6439C149.754 63.6537 149.426 63.5791 149.132 63.4272C148.837 63.2753 148.587 63.0511 148.403 62.7757L147.48 61.4733C147.424 61.4158 147.356 61.3713 147.281 61.3432C147.206 61.315 147.126 61.3039 147.046 61.3105C146.72 61.3105 146.666 61.3105 146.666 61.4733V62.3415C146.666 63.1555 146.666 63.2098 147.209 63.3183H147.534C147.558 63.3387 147.576 63.3638 147.589 63.3918C147.601 63.4199 147.608 63.4503 147.608 63.4811C147.608 63.5119 147.601 63.5424 147.589 63.5704C147.576 63.5985 147.558 63.6236 147.534 63.6439H145.038C144.995 63.6439 144.954 63.6268 144.923 63.5963C144.893 63.5657 144.875 63.5243 144.875 63.4811C144.875 63.438 144.893 63.3966 144.923 63.366C144.954 63.3355 144.995 63.3183 145.038 63.3183H145.201C145.744 63.2098 145.744 63.1555 145.744 62.3415V59.791ZM152.039 59.6282C152.039 58.8142 151.984 58.76 151.496 58.7057L151.333 58.6514V58.3258H155.295L155.457 59.574C155.419 59.6048 155.371 59.6216 155.322 59.6216C155.272 59.6216 155.225 59.6048 155.186 59.574C155.138 59.3841 155.065 59.2016 154.969 59.0313C154.752 58.7057 154.209 58.7057 153.884 58.7057H153.341C152.907 58.7057 152.907 58.7057 152.907 59.0856V60.4422C152.907 60.6593 152.907 60.6593 153.124 60.6593H153.721C154.372 60.6593 154.426 60.5508 154.535 60.2252V59.9538C154.555 59.9307 154.58 59.9122 154.608 59.8996C154.636 59.8869 154.667 59.8803 154.698 59.8803C154.728 59.8803 154.759 59.8869 154.787 59.8996C154.815 59.9122 154.84 59.9307 154.86 59.9538V61.6903C154.822 61.7212 154.774 61.738 154.725 61.738C154.675 61.738 154.628 61.7212 154.589 61.6903L154.535 61.4733C154.426 61.0934 154.372 60.9849 153.721 60.9849H153.178C152.961 60.9849 152.961 61.0391 152.961 61.3105V62.1245C152.925 62.4184 152.962 62.7167 153.07 62.9927C153.178 63.1555 153.395 63.1555 154.155 63.1555C154.915 63.1555 155.349 63.1555 155.674 62.1787C155.783 62.1245 156 62.1245 156 62.233C155.957 62.7045 155.828 63.1642 155.62 63.5897L153.558 63.5354H151.17C151.062 63.5354 151.062 63.3183 151.17 63.2641H151.442C151.984 63.1555 152.039 63.1013 152.039 62.2873V59.6282Z" fill="#52575C"/>
</svg>
