<svg width="184" height="48" viewBox="0 0 184 48" fill="none" xmlns="http://www.w3.org/2000/svg">
<path d="M7.02451 34.2786C6.8198 34.1603 6.6521 33.8705 6.6521 33.6352V14.365C6.6521 14.1292 6.8198 13.8398 7.02451 13.7213L23.9272 4.08921C24.1321 3.97092 24.4673 3.97092 24.6723 4.08921L41.5739 13.7224C41.7788 13.8407 41.9463 14.1301 41.9463 14.3658V33.636C41.9463 33.8711 41.7788 34.1607 41.5739 34.2794L24.6723 43.9118C24.4673 44.0301 24.1321 44.0301 23.9272 43.9118L7.02451 34.2786ZM57.8229 16.2828V24.0989H61.1652C63.5909 24.0989 64.6689 23.1106 64.6689 21.4935V18.8882C64.6689 17.2713 63.5909 16.2828 61.1652 16.2828H57.8229ZM57.8229 26.5845V33.562C57.8229 33.981 57.7151 34.1607 57.3378 34.1607H55.6935C55.3431 34.1607 55.2084 33.981 55.2084 33.562V14.3964C55.2084 13.9771 55.3431 13.7973 55.6935 13.7973H61.1652C65.8011 13.7973 67.2835 15.9534 67.2835 18.409V21.9729C67.2835 24.4283 65.8011 26.5845 61.1652 26.5845H57.8229ZM73.3661 16.2828V23.6197H76.7081C79.134 23.6197 80.2123 22.6614 80.2123 21.0144V18.8882C80.2123 17.2713 79.134 16.2828 76.7081 16.2828H73.3661ZM73.3661 26.1053V33.562C73.3661 33.981 73.258 34.1607 72.8807 34.1607H71.2367C70.8863 34.1607 70.7515 33.981 70.7515 33.562V14.3964C70.7515 13.9771 70.8863 13.7973 71.2367 13.7973H76.7081C81.3443 13.7973 82.8266 15.9534 82.8266 18.409V21.5235C82.8266 23.3502 81.9911 24.9973 79.673 25.7162L82.9075 33.562C83.0422 33.9214 82.7997 34.1607 82.4224 34.1607H80.805C80.4277 34.1607 80.3738 33.9214 80.2123 33.562L77.1663 26.1053H73.3661ZM96.9959 18.6486C96.9959 17.0315 95.8581 16.0432 93.2977 16.0432C90.7657 16.0432 89.6279 17.0315 89.6279 18.6486V29.3094C89.6279 30.9267 90.7657 31.9147 93.2977 31.9147C95.8581 31.9147 96.9959 30.9267 96.9959 29.3094V18.6486ZM86.8399 18.1695C86.8399 15.7138 88.4331 13.5579 93.2977 13.5579C98.1907 13.5579 99.7841 15.7138 99.7841 18.1695V29.7887C99.7841 32.2444 98.1907 34.4005 93.2977 34.4005C88.4331 34.4005 86.8399 32.2444 86.8399 29.7887V18.1695ZM114.805 13.7973C115.175 13.7973 115.345 13.9472 115.345 14.3662V15.7138C115.345 16.1331 115.175 16.2828 114.805 16.2828H110.253V33.562C110.253 33.981 110.111 34.1607 109.741 34.1607H107.977C107.607 34.1607 107.465 33.981 107.465 33.562V16.2828H102.913C102.515 16.2828 102.373 16.1331 102.373 15.7138V14.3662C102.373 13.9472 102.515 13.7973 102.913 13.7973H114.805ZM128.063 18.6486C128.063 17.0315 126.925 16.0432 124.364 16.0432C121.833 16.0432 120.695 17.0315 120.695 18.6486V29.3094C120.695 30.9267 121.833 31.9147 124.364 31.9147C126.925 31.9147 128.063 30.9267 128.063 29.3094V18.6486ZM117.907 18.1695C117.907 15.7138 119.5 13.5579 124.364 13.5579C129.258 13.5579 130.851 15.7138 130.851 18.1695V29.7887C130.851 32.2444 129.258 34.4005 124.364 34.4005C119.5 34.4005 117.907 32.2444 117.907 29.7887V18.1695ZM147.318 33.5917C147.318 33.9811 147.21 34.1607 146.833 34.1607H145.35C145.08 34.1607 144.973 34.0709 144.865 33.8912L138.531 21.5536C137.938 20.4454 137.615 19.5171 137.56 19.3973V33.5917C137.56 33.9811 137.426 34.1607 137.075 34.1607H135.566C135.216 34.1607 135.081 33.9811 135.081 33.5917V14.3662C135.081 13.9771 135.216 13.7973 135.566 13.7973H137.075C137.291 13.7973 137.426 13.8871 137.507 14.0368L144.002 26.6443C144.38 27.3631 144.838 28.5607 144.838 28.5607V14.3662C144.838 13.9771 145 13.7973 145.35 13.7973H146.833C147.21 13.7973 147.318 13.9771 147.318 14.3662V33.5917ZM151.953 34.1607C151.602 34.1607 151.468 33.981 151.468 33.562V14.3964C151.468 13.9771 151.602 13.7973 151.953 13.7973H161.171C161.521 13.7973 161.683 13.9472 161.683 14.3662V15.7138C161.683 16.1331 161.521 16.2828 161.171 16.2828H154.082V22.332H160.685C161.063 22.332 161.225 22.4818 161.225 22.901V24.1887C161.225 24.578 161.063 24.7577 160.685 24.7577H154.082V31.6754H161.467C161.818 31.6754 161.979 31.7952 161.979 32.2142V33.5917C161.979 34.0112 161.818 34.1607 161.467 34.1607H151.953ZM176.835 13.7973C177.186 13.7973 177.348 13.9472 177.348 14.3662V15.7138C177.348 16.1331 177.186 16.2828 176.835 16.2828H172.523V33.562C172.523 33.981 172.388 34.1607 172.038 34.1607H170.367C170.016 34.1607 169.882 33.981 169.882 33.562V16.2828H165.569C165.192 16.2828 165.057 16.1331 165.057 15.7138V14.3662C165.057 13.9472 165.192 13.7973 165.569 13.7973H176.835Z" fill="#E15B29"/>
</svg>
