<svg width="184" height="48" viewBox="0 0 184 48" fill="none" xmlns="http://www.w3.org/2000/svg">
<path d="M8.94364 43.91C7.40738 43.9325 5.88124 43.6578 4.44926 43.101V40.7639C5.90939 41.2294 7.4168 41.5309 8.94364 41.6628C10.3818 41.6628 11.9099 41.3931 11.9099 39.5954C11.9099 38.247 10.9212 37.8875 9.66275 37.5279L8.40432 37.2583C6.87623 36.8088 4.35938 36.1796 4.35938 33.1234C4.35938 29.7077 7.14589 28.8987 10.0223 28.8987C11.4155 28.8459 12.8015 29.1231 14.0672 29.7077V31.9549C12.7623 31.3838 11.3567 31.0782 9.93241 31.056C8.13466 31.056 6.96612 31.4156 6.96612 32.9437C6.96612 34.292 8.04477 34.6515 9.3032 34.9212L10.6515 35.3706C12.3594 35.8201 14.4268 36.8088 14.4268 39.5055C14.5167 42.9212 11.9998 43.91 8.94364 43.91ZM24.2245 43.91C26.9212 43.91 30.9661 43.101 30.9661 36.3594C30.9661 29.7077 26.8313 28.8088 24.2245 28.8088C21.438 28.8088 17.483 29.8875 17.483 36.3594C17.483 43.0111 21.3481 43.91 24.2245 43.91ZM24.2245 30.8763C25.7526 30.8763 28.2695 31.2358 28.2695 36.3594C28.2695 41.3032 25.5729 41.8425 24.2245 41.8425C23.1459 41.8425 20.1796 41.483 20.1796 36.3594C20.1796 31.3257 22.6965 30.8763 24.2245 30.8763ZM34.4717 43.6403H37.1684V24.3145H34.4717V43.6403ZM53.0785 43.6403V33.8425C53.0785 30.0673 50.9212 28.8987 47.6852 28.8987C45.8151 28.92 43.9618 29.2542 42.2021 29.8875V32.1347C43.825 31.5697 45.5197 31.2368 47.2358 31.1459C49.1234 31.1459 50.2021 31.5954 50.2021 33.483V34.7414H46.9661C44.629 34.7414 40.8538 35.5504 40.8538 39.5055C40.8538 43.1909 43.2807 43.9998 45.5279 43.9998C47.3507 43.9919 49.0835 43.2072 50.292 41.8425L50.5616 43.7302L53.0785 43.6403ZM50.3818 39.865C50.3818 39.865 48.4043 41.7527 46.4268 41.7527C44.9886 41.7527 43.82 41.2133 43.82 39.3257C43.82 36.9886 45.2583 36.3594 47.7751 36.2695H50.3818V39.865ZM62.9661 31.3257C63.7386 31.3146 64.5045 31.4678 65.2133 31.7751V29.2583C64.5975 28.9659 63.9151 28.8418 63.2358 28.8987C61.7547 28.9122 60.4187 29.7912 59.82 31.1459L59.4605 29.1684H57.3931V43.6403H60.0897V33.0336C60.0897 33.0336 61.3481 31.3257 62.9661 31.3257ZM90.6515 29.0785H87.5953L85.8875 37.438C85.438 39.5954 84.9886 42.3819 84.9886 42.3819C84.9886 42.3819 84.3594 39.3257 83.8201 37.438L81.3032 29.0785H77.3481L74.8313 37.438C74.292 39.3257 73.6627 42.3819 73.6627 42.3819C73.6627 42.3819 73.2133 39.4156 72.7639 37.438L70.9661 29.0785H67.82L71.7751 43.6403H75.5504L77.7976 35.91C78.3369 33.9324 79.3257 30.5167 79.3257 30.5167C79.3257 30.5167 80.2245 33.9324 80.7639 35.9998L83.0111 43.7302H86.7863L90.6515 29.0785ZM94.0672 43.6403H96.7639V28.9886H94.0672V43.6403ZM113.932 43.6403V33.7527C113.932 30.0673 111.865 28.8987 109.258 28.8987C107.217 29.027 105.281 29.852 103.775 31.2358L103.236 29.1684H101.168V43.6403H103.865V33.0336C105.251 31.996 106.903 31.3727 108.629 31.2358C110.517 31.2358 111.236 31.9549 111.236 33.7527V43.6403H113.932ZM130.292 43.6403V24.3145H127.595V30.247C126.557 29.2611 125.161 28.7417 123.73 28.8088C121.753 28.8088 117.168 29.7077 117.168 36.3594C117.168 42.8313 120.944 43.91 123.191 43.91C124.98 43.9578 126.697 43.1987 127.865 41.8425L128.135 43.6403H130.292ZM127.595 40.0448C126.519 41.0064 125.166 41.604 123.73 41.7527C122.022 41.7527 119.865 41.2133 119.865 36.3594C119.865 31.7751 121.932 31.056 124 31.056C125.328 31.1093 126.597 31.617 127.595 32.4942V40.0448ZM138.741 43.91C141.798 43.91 144.225 43.0111 144.225 39.5055C144.225 36.8088 142.067 35.8201 140.449 35.3706L139.011 35.0111C137.753 34.6515 136.674 34.3819 136.674 33.0336C136.674 31.5055 137.843 31.1459 139.64 31.1459C141.065 31.1681 142.47 31.4737 143.775 32.0448V29.7976C142.509 29.213 141.123 28.9358 139.73 28.9886C136.854 28.9886 134.067 29.7976 134.067 33.2133C134.067 36.2695 136.584 36.8987 138.112 37.3482L139.281 37.7077C140.539 38.0673 141.528 38.3369 141.528 39.7751C141.528 41.5729 140.09 41.8425 138.562 41.8425C137.035 41.7106 135.527 41.4091 134.067 40.9437V43.2807C134.157 43.101 136.045 43.91 138.741 43.91Z" fill="#444444"/>
<path d="M156.989 20.2697C155.011 20.809 153.034 21.2584 151.056 21.8876C146.982 18.2172 141.856 15.9215 136.404 15.3258C144.476 9.52921 154.152 6.38776 164.09 6.33708L160.674 9.48315C160.674 9.48315 175.146 8.94382 178.741 4C178.633 4.52069 178.483 5.03173 178.292 5.52809C177.262 8.46479 175.424 11.0509 172.989 12.9888C170.715 14.7673 168.204 16.2195 165.528 17.3034C162.867 18.4644 160.135 19.4552 157.348 20.2697C157.258 20.1798 157.078 20.2697 156.989 20.2697ZM179.64 19.8202C170.463 19.4043 161.282 20.5595 152.494 23.236C154.351 25.174 155.898 27.3874 157.078 29.7978C164.359 25.7528 174.427 20.5393 179.64 19.8202ZM157.977 31.8652C158.842 34.0839 159.387 36.4143 159.595 38.7865L172.269 25.7528L157.977 31.8652Z" fill="#F99D1C"/>
</svg>
