<svg width="144" height="160" viewBox="0 0 144 160" fill="none" xmlns="http://www.w3.org/2000/svg">
<path d="M12.4387 83.4778V83.3696V66.8353H16.0649V84.7497C16.2334 86.1935 16.1094 87.6564 15.7002 89.0512C15.2911 90.446 14.6052 91.744 13.6835 92.868C11.9705 94.3456 9.77565 95.1447 7.51362 95.1141L7.13477 92.408C8.59383 92.4088 10.0014 91.8689 11.0857 90.8926C12.0599 89.756 12.4387 88.2135 12.4387 83.4778ZM39.4818 81.3433C39.4818 83.3729 39.4818 85.186 39.6442 86.7556H36.4239L36.2074 83.5353C35.5339 84.6747 34.5706 85.6154 33.4156 86.2618C32.2606 86.9083 30.955 87.2373 29.6316 87.2156C26.4925 87.2156 22.7581 85.5108 22.7581 78.556V67.001H26.3843V77.8254C26.3843 81.5869 27.5479 84.1036 30.8223 84.1036C31.496 84.1108 32.1643 83.9835 32.7881 83.729C33.4119 83.4745 33.9786 83.0981 34.455 82.6217C34.9313 82.1453 35.3078 81.5786 35.5623 80.9548C35.8167 80.331 35.9441 79.6627 35.9368 78.989V66.8657H39.563V81.2351L39.4818 81.3433ZM46.3554 73.4391C46.3554 70.9224 46.3554 68.8658 46.1931 66.9986H49.4404L49.6027 70.3812C50.3262 69.1591 51.3678 68.1562 52.6164 67.4795C53.865 66.8028 55.2738 66.4776 56.6927 66.5386C61.5096 66.5386 65.1358 70.5706 65.1358 76.5782C65.1358 83.6682 60.779 87.1862 56.0703 87.1862C54.8652 87.2399 53.6665 86.9818 52.5904 86.4366C51.5142 85.8914 50.597 85.0777 49.9275 84.0741V94.8985H46.3554V73.5203V73.4391ZM49.9275 78.716C49.9373 79.2071 49.9916 79.6962 50.0899 80.1773C50.3969 81.3789 51.0958 82.4438 52.076 83.2035C53.0563 83.9632 54.2619 84.3743 55.5021 84.3718C59.3177 84.3718 61.5637 81.2598 61.5637 76.7406C61.5637 72.7897 59.453 69.407 55.6374 69.407C54.1274 69.5307 52.7144 70.2008 51.6632 71.2919C50.612 72.3829 49.9949 73.8199 49.9275 75.3334V78.716ZM71.5966 66.9806L75.9534 78.6439C76.4134 79.9428 76.9005 81.5124 77.2253 82.676C77.6041 81.4853 78.01 79.9699 78.4971 78.5627L82.4481 66.9806H86.2637L80.8515 81.0523C78.1453 87.8176 76.4946 91.3085 74.005 93.4193C72.751 94.5646 71.2222 95.3663 69.567 95.7465L68.674 92.7157C69.8313 92.3354 70.9058 91.7385 71.8401 90.9567C73.1603 89.8808 74.208 88.5086 74.898 86.9517C75.0457 86.682 75.1464 86.3892 75.1957 86.0857C75.1649 85.7591 75.0827 85.4395 74.9521 85.1386L67.5915 66.9265H71.5424L71.5966 66.9806ZM95.8902 61.3033V66.9861H101.086V69.6922H95.8902V80.3543C95.8902 82.7898 96.5938 84.1969 98.5963 84.1969C99.3075 84.2086 100.017 84.1267 100.707 83.9534L100.869 86.6595C99.8349 87.0179 98.7433 87.183 97.6491 87.1466C96.9245 87.192 96.1986 87.08 95.5213 86.8184C94.844 86.5568 94.2313 86.1518 93.7253 85.6312C92.623 84.1569 92.1202 82.3197 92.3181 80.4896V69.6652H89.2332V66.959H92.3722V62.1422L95.8902 61.3033ZM107.766 77.501C107.692 78.4188 107.819 79.3416 108.137 80.2056C108.455 81.0695 108.957 81.8541 109.608 82.5052C110.259 83.1562 111.044 83.6581 111.908 83.9762C112.772 84.2943 113.695 84.421 114.612 84.3475C116.469 84.389 118.313 84.0386 120.024 83.3192L120.647 86.0253C118.546 86.8905 116.288 87.3054 114.017 87.243C112.693 87.3337 111.365 87.1369 110.125 86.6662C108.884 86.1954 107.76 85.4619 106.829 84.516C105.899 83.57 105.184 82.434 104.734 81.1858C104.283 79.9375 104.108 78.6067 104.221 77.2846C104.221 71.3311 107.766 66.6225 113.557 66.6225C120.052 66.6225 121.675 72.3053 121.675 75.9315C121.71 76.4902 121.71 77.0506 121.675 77.6093H107.685L107.766 77.501ZM118.374 74.795C118.478 74.0715 118.426 73.334 118.222 72.6323C118.017 71.9305 117.664 71.2808 117.187 70.7268C116.71 70.1729 116.12 69.7277 115.457 69.4212C114.793 69.1146 114.071 68.9539 113.34 68.9498C111.854 69.0574 110.461 69.7164 109.434 70.7977C108.408 71.879 107.823 73.3045 107.793 74.795H118.374ZM127.177 73.1341C127.177 70.8069 127.177 68.8043 127.015 66.9642H130.262V70.8339H130.425C130.765 69.6395 131.47 68.5809 132.439 67.805C133.409 67.0291 134.597 66.5745 135.837 66.5041C136.178 66.4593 136.524 66.4593 136.865 66.5041V69.8868C136.451 69.8389 136.034 69.8389 135.62 69.8868C134.392 69.9343 133.223 70.4275 132.331 71.2741C131.44 72.1207 130.887 73.2628 130.776 74.4871C130.675 75.0409 130.621 75.6021 130.614 76.1649V86.6917H127.042V73.1611L127.177 73.1341Z" fill="#4E4E4E"/>
<path d="M125.588 12.6191C125.699 14.4371 125.267 16.247 124.346 17.8183C123.424 19.3896 122.056 20.6511 120.416 21.4422C118.775 22.2332 116.936 22.518 115.133 22.2602C113.33 22.0024 111.645 21.2138 110.291 19.9947C108.938 18.7757 107.978 17.1814 107.535 15.4149C107.091 13.6485 107.182 11.7899 107.799 10.0759C108.415 8.36185 109.527 6.87001 110.994 5.79041C112.461 4.71081 114.216 4.09231 116.036 4.01369C117.229 3.94804 118.423 4.11889 119.55 4.51641C120.676 4.91392 121.714 5.53027 122.601 6.33C123.489 7.12974 124.21 8.09708 124.723 9.17639C125.235 10.2557 125.529 11.4257 125.588 12.6191Z" fill="#767677"/>
<path d="M72.0781 118.606C47.7234 118.606 26.318 109.865 15.25 96.9571C19.5444 108.569 27.2932 118.587 37.4533 125.663C47.6134 132.738 59.6974 136.531 72.0781 136.531C84.4591 136.531 96.5429 132.738 106.703 125.663C116.863 118.587 124.612 108.569 128.907 96.9571C117.866 109.865 96.5414 118.606 72.0781 118.606Z" fill="#F37726"/>
<path d="M72.0781 34.6687C96.4332 34.6687 117.839 43.4094 128.907 56.3174C124.612 44.7052 116.863 34.6872 106.703 27.6119C96.5429 20.5366 84.4591 16.7437 72.0781 16.7437C59.6974 16.7437 47.6134 20.5366 37.4533 27.6119C27.2932 34.6872 19.5444 44.7052 15.25 56.3174C26.318 43.3823 47.6152 34.6687 72.0781 34.6687Z" fill="#F37726"/>
<path d="M38.5506 143.726C38.6935 146.015 38.1514 148.296 36.9935 150.277C35.8355 152.257 34.1142 153.849 32.0487 154.847C29.9832 155.846 27.6672 156.208 25.3956 155.886C23.124 155.563 20.9997 154.572 19.2934 153.039C17.5871 151.505 16.376 149.498 15.8144 147.273C15.2528 145.049 15.3662 142.707 16.14 140.548C16.9139 138.388 18.3132 136.507 20.1597 135.145C22.0063 133.784 24.2164 133.002 26.5085 132.901C28.01 132.821 29.5126 133.037 30.9305 133.538C32.3484 134.038 33.6538 134.813 34.7721 135.819C35.8904 136.824 36.7997 138.039 37.448 139.396C38.0963 140.753 38.471 142.224 38.5506 143.726Z" fill="#9E9E9E"/>
<path d="M18.0186 31.7266C16.7063 31.7628 15.4125 31.4102 14.3 30.7131C13.1876 30.016 12.306 29.0056 11.7663 27.8088C11.2266 26.6121 11.0528 25.2825 11.2667 23.9872C11.4807 22.6919 12.0728 21.4888 12.9687 20.5292C13.8646 19.5696 15.0243 18.8962 16.3018 18.5939C17.5794 18.2916 18.9178 18.3738 20.1488 18.8302C21.3797 19.2865 22.4483 20.0966 23.22 21.1587C23.9918 22.2207 24.4323 23.4872 24.4862 24.7989C24.5375 26.5726 23.8871 28.2949 22.6762 29.5919C21.4653 30.889 19.7916 31.656 18.0186 31.7266Z" fill="#616262"/>
</svg>
