<svg width="160" height="96" viewBox="0 0 160 96" fill="none" xmlns="http://www.w3.org/2000/svg">
<path d="M11.6156 7.20239V61.3816L35.5501 34.4008H36.6381L18.9047 54.4188L42.2953 88.7976H34.6798L14.553 59.2057L11.6156 62.5783V88.7976H4V7.20239H11.6156ZM49.4249 62.044C49.4249 44.3938 60.8135 34.5647 75.6401 34.5647C89.2849 34.5647 100.996 41.5402 100.996 60.7757C100.996 78.4259 89.6073 88.2551 74.7806 88.2551C61.1358 88.2551 49.4249 81.2795 49.4249 62.044ZM56.4894 62.0474C56.4894 80.642 64.6526 87.5486 74.775 87.5486C85.4416 87.5486 93.9313 77.7731 93.9313 60.7723C93.9313 42.1777 85.7681 35.2711 75.6457 35.2711C64.9791 35.2711 56.4894 45.0466 56.4894 62.0474ZM152.732 87.9397C139.868 87.9397 140.501 80.4357 140.501 80.4357V78.956C138.392 82.7609 134.386 88.3624 123.948 88.3624C111.612 88.3624 109.503 80.5414 108.871 76.3138C107.816 69.2326 110.347 63.9481 129.114 62.6798C133.859 62.2571 139.236 62.4685 140.501 62.5741V45.0297C140.501 45.0297 141.661 35.5176 129.43 35.5176C122.893 35.5176 114.775 38.2655 112.139 39.7452L111.717 39.0053C113.088 38.3712 119.52 34.6721 130.801 34.6721C146.089 34.6721 147.882 41.4362 147.882 45.0297V80.4357C147.882 87.3055 152.732 87.0941 152.732 87.0941H156V87.9397H152.732ZM125.793 87.656C133.697 87.656 140.146 80.4605 140.458 76.1647V63.17C139.21 63.0626 134.321 62.633 129.121 63.2774C118.096 64.5661 115.912 68.4323 116.536 76.2721C116.952 81.5345 118.512 87.656 125.793 87.656Z" fill="black"/>
</svg>
