<svg width="240" height="48" viewBox="0 0 240 48" fill="none" xmlns="http://www.w3.org/2000/svg">
<path d="M18.9932 17.6129C26.3203 15.9392 33.6475 20.4396 35.3212 27.618C35.4865 28.3784 35.5931 29.1682 35.6408 29.9613L35.656 30.2588L31.4903 31.1886L29.333 31.6722L15.9805 34.6848C17.6542 37.0652 20.7041 38.2926 23.7168 37.6232C25.4841 37.2264 27.0415 36.2002 28.0838 34.7479L28.18 34.6105L34.503 36.0982C32.7921 39.7804 29.4446 42.6815 25.1301 43.6485C17.803 45.3223 10.513 40.859 8.80209 33.6434C7.09118 26.4278 11.666 19.2866 18.9932 17.6129ZM214.893 17.6501C222.22 15.9764 229.547 20.4768 231.221 27.6552C231.386 28.4156 231.493 29.2054 231.54 29.9985L231.555 30.296L227.39 31.2258L225.233 31.7093L211.88 34.722C213.554 37.1024 216.604 38.3298 219.616 37.6603C221.384 37.2636 222.941 36.2374 223.983 34.785L224.08 34.6477L230.402 36.0982C228.692 39.7804 225.344 42.6815 221.03 43.6485C213.702 45.3223 206.375 40.8218 204.702 33.6434C202.991 26.465 207.566 19.3238 214.893 17.6501ZM70.1718 17.6501C77.499 15.9764 84.7889 20.4768 86.4998 27.6552C86.6651 28.4156 86.7717 29.2054 86.8194 29.9985L86.8346 30.296L82.6689 31.2258L80.5117 31.7093L67.1591 34.722C68.9072 37.1768 71.9571 38.3298 74.8954 37.6603C76.7179 37.2512 78.3172 36.1726 79.3586 34.6477L83.8289 35.6567C84.8703 35.895 85.6816 36.0849 85.6816 36.0982C83.9707 39.7804 80.6232 42.6815 76.3088 43.6485C68.9816 45.3223 61.6544 40.8218 59.9807 33.6434C58.2698 26.465 62.8446 19.3238 70.1718 17.6501ZM139.575 4V19.6214C141.658 17.9477 144.113 17.241 146.828 17.241C154.49 17.241 160.627 23.1548 160.627 30.5563C160.627 37.9207 154.49 43.9461 146.828 43.9461C144.15 43.9461 141.658 43.2394 139.575 41.5657V43.2394H132.843V5.52494L139.575 4ZM169.442 17.6873V19.9561C171.481 18.4994 173.449 17.9698 176.778 17.7738L176.992 17.7617V24.3078C170.475 24.5287 169.462 26.7181 169.442 30.5874L169.442 43.2394H162.71V17.6873H169.442ZM125.479 7.19866V17.6873H130.723V24.0474H125.479V43.2394H118.486V24.0474H114.358V17.6873H118.486V8.7608L125.479 7.19866ZM102.27 17.2038C107.961 17.2038 112.907 20.4768 112.907 28.4735V43.2022H106.138V29.5893C106.138 24.7467 103.572 23.611 100.951 23.5654L100.782 23.5639L100.613 23.5653C97.9927 23.6079 95.4263 24.6715 95.4263 29.4777V43.2394H88.6943V17.6873H95.4263V19.5842L95.9258 19.2252C97.3249 18.237 99.0889 17.2038 102.27 17.2038ZM40.9375 17.6873L47.558 35.0196L54.2529 17.6873H61.58L51.0914 43.2394H44.099L33.6103 17.6873H40.9375ZM186.068 17.6873V43.2394H179.335V17.6873H186.068ZM199.643 8.7608V17.6873H204.888V24.159H199.643V43.2022H192.651V24.1962H188.522V17.6873H192.651V8.7608H199.643ZM146.791 23.3779C142.811 23.3779 139.575 26.5394 139.427 30.2216V30.8539C139.613 34.5733 142.848 37.6975 146.791 37.6975C150.808 37.6975 154.118 34.4245 154.118 30.5191C154.118 26.6882 150.808 23.3779 146.791 23.3779ZM210.69 29.4777L224.005 26.465C222.257 24.0474 219.207 22.8944 216.306 23.5639C213.342 24.2226 211.242 26.5735 210.714 29.3413L210.69 29.4777L224.005 26.465L210.69 29.4777ZM65.9689 29.4777L79.2842 26.465C77.6105 24.1218 74.5978 22.8944 71.5851 23.5639C68.6203 24.2228 66.4839 26.5747 65.9914 29.3434L65.9689 29.4777L79.2842 26.465L65.9689 29.4777ZM14.7903 29.4777L28.1056 26.465C26.4319 24.1218 23.4192 22.8944 20.4065 23.5639C17.4417 24.2228 15.3053 26.5387 14.8128 29.3417L14.7903 29.4777L28.1056 26.465L14.7903 29.4777ZM182.72 4.5951C185.138 4.5951 186.923 6.3804 186.923 8.72361C186.923 11.104 185.1 12.9265 182.72 12.9265C180.302 12.9265 178.443 11.104 178.443 8.72361C178.443 6.34321 180.302 4.5951 182.72 4.5951Z" fill="#F05537"/>
</svg>
