<svg width="160" height="64" viewBox="0 0 160 64" fill="none" xmlns="http://www.w3.org/2000/svg">
<path d="M64.224 17.5065C64.3803 17.4815 64.53 17.425 64.6637 17.3403C64.7937 17.2581 64.8982 17.1412 64.9654 17.0028C65.0491 16.8213 65.0877 16.6222 65.0779 16.4225V6.47299L63.6616 6.42186C63.3727 6.40908 63.1989 6.40397 63.1503 6.40397C62.4686 6.4159 61.9769 6.62723 61.6753 7.03796C61.3429 7.51644 61.1572 8.08146 61.141 8.66384H60.9671L61.0541 6.1381C61.3097 6.1381 61.5654 6.12276 61.7878 6.12276H62.4192C62.8793 6.12276 63.2807 6.12276 63.6284 6.1381C63.976 6.15344 64.2828 6.16111 64.5538 6.16622C64.8248 6.17134 65.0651 6.17901 65.2875 6.19179C65.5099 6.20457 65.7221 6.20713 65.9419 6.20713C66.1618 6.20713 66.3816 6.20713 66.5989 6.19179C66.8162 6.17645 67.0642 6.16878 67.3403 6.16622C67.6164 6.16367 67.9308 6.15089 68.281 6.1381C68.6313 6.12532 69.048 6.12276 69.5337 6.12276H70.1907C70.4182 6.12276 70.6687 6.12276 70.932 6.1381L71.0368 8.66384H70.8656C70.8463 8.3735 70.7983 8.08578 70.7224 7.80488C70.6448 7.54193 70.522 7.29452 70.3594 7.07375C70.1966 6.85872 69.9867 6.68382 69.7459 6.56247C69.4658 6.42351 69.156 6.35506 68.8434 6.36307C68.7872 6.36307 68.5878 6.36307 68.2913 6.39119L66.8418 6.46788V16.4225C66.8319 16.6222 66.8705 16.8213 66.9543 17.0028C67.0222 17.1407 67.1265 17.2574 67.2559 17.3403C67.3909 17.4243 67.5412 17.4807 67.6982 17.5065C67.8723 17.5348 68.0484 17.5485 68.2248 17.5474V17.7212C67.8797 17.7212 67.6036 17.7212 67.394 17.7212C67.1843 17.7212 67.0079 17.7059 66.8597 17.6956C66.7114 17.6854 66.5708 17.6752 66.4379 17.6701C66.3049 17.665 66.1464 17.6701 65.9624 17.6701C65.7783 17.6701 65.6019 17.6701 65.4767 17.6701C65.3514 17.6701 65.221 17.6828 65.0625 17.6956C64.904 17.7084 64.7353 17.7161 64.5282 17.7212C64.3212 17.7263 64.0425 17.7212 63.6974 17.7212V17.5474C63.8738 17.5483 64.0499 17.5346 64.224 17.5065Z" fill="#00263A"/>
<path d="M80.9046 6.16111C81.2497 6.16111 81.5258 6.16111 81.7354 6.16111C81.945 6.16111 82.1214 6.16111 82.2697 6.18668C82.418 6.21224 82.5586 6.20713 82.6838 6.21224C82.8091 6.21735 82.9727 6.21224 83.167 6.21224C83.3613 6.21224 83.5096 6.21224 83.6451 6.21224C83.7805 6.21224 83.9186 6.21224 84.0694 6.18668C84.2202 6.16111 84.3966 6.16878 84.6037 6.16111C84.8108 6.15344 85.0869 6.16111 85.4345 6.16111V6.33495C85.2582 6.33388 85.082 6.34756 84.9079 6.37585C84.7513 6.39965 84.6014 6.45628 84.4682 6.54202C84.3389 6.62282 84.2345 6.73784 84.1666 6.87435C84.0819 7.05564 84.0424 7.25476 84.0515 7.45465V16.4251C84.0424 16.6242 84.0819 16.8225 84.1666 17.0028C84.2337 17.1412 84.3382 17.2581 84.4682 17.3403C84.6025 17.4239 84.7519 17.4804 84.9079 17.5065C85.082 17.5346 85.2582 17.5483 85.4345 17.5474V17.7212C85.0869 17.7212 84.8133 17.7212 84.6037 17.7212C84.3941 17.7212 84.2177 17.7059 84.0694 17.6956C83.9211 17.6854 83.778 17.6752 83.6451 17.6701C83.5121 17.665 83.3536 17.6701 83.167 17.6701C82.9804 17.6701 82.8117 17.6701 82.6838 17.6701C82.556 17.6701 82.4282 17.6828 82.2697 17.6956C82.1112 17.7084 81.9425 17.7161 81.7354 17.7212C81.5283 17.7263 81.2497 17.7212 80.9046 17.7212V17.5474C81.081 17.5484 81.2571 17.5347 81.4312 17.5065C81.5875 17.4815 81.7371 17.425 81.8709 17.3403C82.0016 17.2588 82.1062 17.1418 82.1726 17.0028C82.2561 16.8221 82.2947 16.6239 82.285 16.4251V11.9488H76.8936V16.4251C76.8844 16.6242 76.9239 16.8225 77.0086 17.0028C77.0764 17.1408 77.1808 17.2575 77.3103 17.3403C77.4446 17.4239 77.5939 17.4804 77.75 17.5065C77.9241 17.5346 78.1002 17.5483 78.2766 17.5474V17.7212C77.9289 17.7212 77.6554 17.7212 77.4458 17.7212C77.2361 17.7212 77.0597 17.7059 76.9115 17.6956C76.7632 17.6854 76.62 17.6752 76.4871 17.6701C76.3542 17.665 76.1957 17.6701 76.0116 17.6701C75.8276 17.6701 75.6537 17.6701 75.5259 17.6701C75.3981 17.6701 75.2703 17.6828 75.1118 17.6956C74.9533 17.7084 74.7845 17.7161 74.5775 17.7212C74.3704 17.7263 74.0918 17.7212 73.7466 17.7212V17.5474C73.923 17.5484 74.0992 17.5347 74.2733 17.5065C74.4296 17.4815 74.5792 17.425 74.713 17.3403C74.8431 17.2582 74.9476 17.1413 75.0146 17.0028C75.0981 16.8221 75.1367 16.6239 75.1271 16.4251V7.45721C75.1371 7.2567 75.0985 7.05676 75.0146 6.87435C74.9467 6.73649 74.8424 6.61981 74.713 6.5369C74.5793 6.45059 74.4298 6.39151 74.2733 6.36307C74.0992 6.33489 73.923 6.32121 73.7466 6.32216V6.15855C74.0918 6.15855 74.3678 6.15855 74.5775 6.15855C74.7871 6.15855 74.9635 6.17389 75.1118 6.18412C75.26 6.19434 75.4006 6.20457 75.5259 6.20968C75.6512 6.2148 75.8148 6.20968 76.0116 6.20968C76.2085 6.20968 76.3516 6.20968 76.4871 6.20968C76.6226 6.20968 76.7606 6.20968 76.9115 6.18412C77.0623 6.15855 77.2387 6.16622 77.4458 6.15855C77.6528 6.15089 77.9289 6.15855 78.2766 6.15855V6.33239C78.1002 6.33133 77.9241 6.34501 77.75 6.37329C77.5936 6.39825 77.444 6.45479 77.3103 6.53946C77.18 6.62021 77.0754 6.73636 77.0086 6.87435C76.9239 7.05564 76.8844 7.25476 76.8936 7.45465V11.6369H82.285V7.45721C82.295 7.2567 82.2564 7.05676 82.1726 6.87435C82.1046 6.73649 82.0003 6.61981 81.8709 6.5369C81.7372 6.45059 81.5878 6.39151 81.4312 6.36307C81.2571 6.33489 81.0809 6.32121 80.9046 6.32216V6.16111Z" fill="#00263A"/>
<path d="M92.7587 11.5858C92.9663 11.6024 93.1752 11.5765 93.3726 11.5097C93.5699 11.4429 93.7516 11.3366 93.9065 11.1972C94.1685 10.8941 94.3016 10.5005 94.2772 10.1005H94.4484C94.4484 10.3562 94.4484 10.5837 94.4484 10.755C94.4484 10.9263 94.4484 11.072 94.4331 11.187C94.4178 11.302 94.4331 11.3992 94.4152 11.4836C94.3973 11.5679 94.4152 11.6523 94.4152 11.7392C94.4152 11.8261 94.4152 11.9233 94.4152 11.9948C94.4152 12.0664 94.428 12.1636 94.4331 12.2709C94.4382 12.3783 94.4459 12.5266 94.4484 12.6851C94.451 12.8436 94.4484 13.0685 94.4484 13.3344H94.2772C94.2979 12.9458 94.1647 12.5646 93.9065 12.2735C93.7516 12.1342 93.5699 12.0278 93.3726 11.961C93.1752 11.8942 92.9663 11.8683 92.7587 11.8849H91.5827V15.6249C91.5701 15.9579 91.6045 16.2909 91.685 16.6143C91.7468 16.8398 91.8885 17.0351 92.0838 17.1639C92.3146 17.2965 92.5724 17.3752 92.8379 17.394C93.2277 17.4336 93.6195 17.4515 94.0113 17.4477C94.4254 17.4477 94.8166 17.4323 95.177 17.4042C95.5102 17.3824 95.8359 17.2956 96.1357 17.1486C96.4214 17.0053 96.6587 16.7813 96.8182 16.5043C97.0217 16.1373 97.1405 15.7294 97.1659 15.3105H97.3576L97.217 17.7314L95.8366 17.757C95.4327 17.757 94.993 17.757 94.5226 17.757C93.5426 17.757 92.7527 17.7433 92.1528 17.7161C91.5546 17.688 91.0714 17.6726 90.7033 17.6726C90.5192 17.6726 90.3607 17.6726 90.2304 17.6726L89.806 17.688L89.2691 17.7059C89.0621 17.7059 88.786 17.7059 88.4383 17.7059V17.5346C88.6148 17.5362 88.7911 17.5217 88.9649 17.4911C89.122 17.4674 89.2725 17.4117 89.4072 17.3275C89.536 17.2439 89.6402 17.1274 89.7089 16.9901C89.7908 16.8088 89.8293 16.611 89.8213 16.4123V7.45721C89.8301 7.25679 89.7916 7.05712 89.7089 6.87435C89.6402 6.73699 89.536 6.62049 89.4072 6.5369C89.2728 6.45022 89.1224 6.39112 88.9649 6.36307C88.7906 6.3382 88.6144 6.32794 88.4383 6.33239V6.15855C88.786 6.15855 89.057 6.15855 89.2589 6.15855L89.7702 6.17389L90.1767 6.19179C90.3045 6.19179 90.4604 6.19179 90.6445 6.19179C91.0356 6.19179 91.5086 6.17389 92.0684 6.1381C92.6283 6.10231 93.252 6.08698 93.9423 6.08698C94.3947 6.08698 94.7987 6.08698 95.1591 6.10231C95.5196 6.11765 95.926 6.12788 96.3964 6.1381L96.5089 8.40819H96.3351C96.3186 8.04397 96.2245 7.68747 96.059 7.36262C95.9191 7.10882 95.7087 6.90103 95.4531 6.76442C95.1787 6.61922 94.8796 6.52646 94.5711 6.49089C94.2076 6.4424 93.8412 6.41849 93.4744 6.41931H93.1114L92.6973 6.4372C92.5592 6.4372 92.4263 6.44999 92.3011 6.46277C92.1758 6.47555 92.071 6.48577 91.9892 6.49856C91.9319 6.50098 91.8757 6.5152 91.8241 6.54035C91.7725 6.5655 91.7267 6.60103 91.6895 6.64471C91.6523 6.68838 91.6245 6.73927 91.6079 6.79418C91.5913 6.8491 91.5862 6.90685 91.5929 6.96382V11.5858H92.7587Z" fill="#00263A"/>
<path d="M68.1225 26.3874C68.4702 26.3874 68.7463 26.3874 68.9534 26.3874C69.1604 26.3874 69.3419 26.4028 69.4902 26.4155C69.6385 26.4283 69.7765 26.436 69.9044 26.4411C70.0322 26.4462 70.1932 26.4411 70.3875 26.4411C70.5818 26.4411 70.7301 26.4411 70.863 26.4411C70.9959 26.4411 71.1391 26.4258 71.2899 26.4155C71.4408 26.4053 71.6171 26.3951 71.8242 26.3874C72.0313 26.3797 72.3074 26.3874 72.6551 26.3874V26.5587C72.4786 26.5585 72.3025 26.573 72.1284 26.6022C71.9714 26.6259 71.8208 26.6815 71.6862 26.7658C71.5585 26.8507 71.4547 26.9669 71.3845 27.1032C71.3022 27.2852 71.2637 27.4839 71.272 27.6835V36.6514C71.2641 36.8501 71.3026 37.0479 71.3845 37.2291C71.4547 37.3655 71.5585 37.4816 71.6862 37.5666C71.8219 37.6487 71.972 37.7042 72.1284 37.7302C72.3025 37.7594 72.4786 37.7739 72.6551 37.7737V37.9449C72.3074 37.9449 72.0313 37.9449 71.8242 37.9449C71.6171 37.9449 71.4382 37.9449 71.2899 37.9194C71.1417 37.8938 70.9985 37.8989 70.863 37.8938C70.7275 37.8887 70.5741 37.8938 70.3875 37.8938C70.2009 37.8938 70.0322 37.8938 69.9044 37.8938C69.7765 37.8938 69.6487 37.9092 69.4902 37.9194C69.3317 37.9296 69.1604 37.9424 68.9534 37.9449C68.7463 37.9475 68.4702 37.9449 68.1225 37.9449V37.7737C68.299 37.774 68.4752 37.7595 68.6492 37.7302C68.8061 37.7061 68.9566 37.6504 69.0914 37.5666C69.2203 37.4831 69.3245 37.3666 69.3931 37.2291C69.475 37.0479 69.5135 36.8501 69.5056 36.6514V32.1828H64.1141V36.6591C64.1061 36.8578 64.1446 37.0556 64.2266 37.2368C64.2969 37.3739 64.4017 37.4902 64.5308 37.5743C64.6656 37.6563 64.8148 37.7119 64.9705 37.7379C65.1445 37.7669 65.3207 37.7815 65.4971 37.7813V37.9526C65.1494 37.9526 64.8733 37.9526 64.6663 37.9526C64.4592 37.9526 64.2803 37.9526 64.132 37.927C63.9837 37.9015 63.8406 37.9066 63.7076 37.9015C63.5747 37.8964 63.4162 37.9015 63.2296 37.9015C63.043 37.9015 62.8742 37.9015 62.7464 37.9015C62.6186 37.9015 62.4908 37.9168 62.3323 37.927C62.1738 37.9373 62.0025 37.9501 61.7954 37.9526C61.5884 37.9552 61.3123 37.9526 60.9671 37.9526V37.7813C61.1385 37.7809 61.3095 37.7663 61.4784 37.7379C61.6354 37.7138 61.7858 37.6581 61.9207 37.5743C62.0496 37.4908 62.1538 37.3742 62.2223 37.2368C62.3043 37.0556 62.3428 36.8578 62.3348 36.6591V27.681C62.3432 27.4814 62.3047 27.2826 62.2223 27.1007C62.1522 26.9643 62.0484 26.8482 61.9207 26.7632C61.785 26.6811 61.6349 26.6256 61.4784 26.5996C61.3095 26.5712 61.1385 26.5567 60.9671 26.5561V26.3849C61.308 26.3849 61.5841 26.3849 61.7954 26.3849C62.0025 26.3849 62.184 26.4002 62.3323 26.413C62.4805 26.4258 62.6186 26.4334 62.7464 26.4385C62.8742 26.4437 63.0353 26.4385 63.2296 26.4385C63.4239 26.4385 63.5721 26.4385 63.7076 26.4385C63.8431 26.4385 63.9812 26.4232 64.132 26.413C64.2828 26.4028 64.4592 26.3925 64.6663 26.3849C64.8733 26.3772 65.1494 26.3849 65.4971 26.3849V26.5587C65.3207 26.5585 65.1445 26.573 64.9705 26.6022C64.8142 26.6258 64.6645 26.6815 64.5308 26.7658C64.4011 26.8491 64.2961 26.9656 64.2266 27.1032C64.1443 27.2852 64.1057 27.4839 64.1141 27.6835V31.8658H69.5056V27.681C69.5139 27.4814 69.4754 27.2826 69.3931 27.1007C69.3229 26.9643 69.2191 26.8482 69.0914 26.7632C68.9557 26.6811 68.8056 26.6256 68.6492 26.5996C68.4751 26.5704 68.299 26.5559 68.1225 26.5561V26.3874Z" fill="#00263A"/>
<path d="M74.9328 37.7737C75.7645 37.7737 76.3405 37.3416 76.6609 36.4776L80.5313 26.1625H80.8586L84.7648 36.3881C84.895 36.7925 85.1203 37.1598 85.4218 37.4592C85.7011 37.6792 86.0509 37.79 86.406 37.7711V37.9424C86.0609 37.9424 85.7873 37.9424 85.5854 37.9424C85.3834 37.9424 85.2096 37.9424 85.0741 37.927L84.6753 37.9117C84.5551 37.9117 84.4069 37.9117 84.2356 37.9117C84.0643 37.9117 83.9135 37.9117 83.7933 37.9117L83.3945 37.927C83.2514 37.927 83.0699 37.927 82.85 37.9424C82.6302 37.9577 82.3387 37.9424 81.968 37.9424V37.7711C82.1039 37.7705 82.2396 37.7619 82.3745 37.7455C82.5031 37.7278 82.6287 37.6926 82.7478 37.6407C82.8585 37.5923 82.954 37.5145 83.0238 37.4158C83.0953 37.3057 83.131 37.1762 83.1261 37.0451C83.1252 36.9107 83.1045 36.7772 83.0647 36.6488C83.0287 36.5195 82.9852 36.3923 82.9344 36.2679L81.8121 33.3127H78.182L77.0418 36.4571C76.9792 36.6286 76.9438 36.8089 76.937 36.9914C76.931 37.1311 76.9676 37.2692 77.0418 37.3876C77.107 37.4874 77.1946 37.5705 77.2975 37.6305C77.408 37.69 77.5284 37.729 77.6528 37.7455C77.7817 37.7616 77.9115 37.7701 78.0414 37.7711V37.9424C77.7985 37.9424 77.6017 37.9424 77.4534 37.9424C77.3052 37.9424 77.1773 37.9424 77.0751 37.927L76.7888 37.9117C76.7019 37.9117 76.6021 37.9117 76.4871 37.9117C76.3721 37.9117 76.2545 37.9117 76.1676 37.9117L75.8812 37.927C75.7764 37.927 75.6512 37.927 75.5003 37.9424C75.3495 37.9577 75.1629 37.9424 74.9303 37.9424V37.7711L74.9328 37.7737ZM81.715 33.0034L80.0482 28.3226L78.2868 33.0034H81.715Z" fill="#00263A"/>
<path d="M95.4506 27.0163C95.4506 27.2285 95.4506 27.4407 95.4506 27.6452C95.4526 27.8937 95.4671 28.142 95.494 28.3891C95.5212 28.6438 95.5358 28.8998 95.5375 29.156H95.3304C95.2928 28.8175 95.1995 28.4876 95.0543 28.1795C94.9068 27.8622 94.712 27.5691 94.4766 27.3103C94.2407 27.054 93.9589 26.8442 93.6457 26.6916C93.3194 26.536 92.9617 26.4573 92.6002 26.4616C92.3125 26.4585 92.0275 26.5169 91.7642 26.6328C91.5138 26.7399 91.2871 26.8954 91.097 27.0904C90.9063 27.2882 90.7584 27.5232 90.6624 27.7807C90.558 28.0443 90.505 28.3254 90.5065 28.6089C90.4915 28.9887 90.6069 29.3622 90.8337 29.6673C91.0594 29.9604 91.3398 30.2069 91.6594 30.3933C92.0081 30.591 92.3713 30.7619 92.7459 30.9046C93.1379 31.0614 93.5068 31.225 93.8528 31.3954C94.199 31.5744 94.5361 31.7706 94.8626 31.9834C95.1681 32.1806 95.4451 32.4188 95.6857 32.6915C95.9215 32.9651 96.1083 33.2773 96.2379 33.6144C96.3855 34.0151 96.4558 34.4401 96.445 34.867C96.4508 35.3269 96.3502 35.7818 96.151 36.1964C95.9592 36.5969 95.6827 36.951 95.3406 37.2343C94.9765 37.5326 94.5605 37.7614 94.1135 37.9092C93.6132 38.0798 93.0879 38.1662 92.5593 38.1648C92.03 38.1735 91.5043 38.077 91.0126 37.881C90.5381 37.6796 90.0836 37.434 89.6552 37.1473L89.2589 37.8069H89.0876C89.0876 37.449 89.0877 37.1678 89.1055 36.9582C89.1234 36.7485 89.1209 36.5312 89.1209 36.3037C89.1209 36.0762 89.1209 35.7924 89.1055 35.5189C89.0902 35.2454 89.0876 34.9105 89.0876 34.5424H89.2947C89.3183 34.9714 89.4089 35.394 89.5631 35.795C89.711 36.1787 89.9275 36.5321 90.2022 36.838C90.4786 37.14 90.81 37.3864 91.1788 37.564C91.9046 37.8897 92.7271 37.9272 93.4796 37.6689C93.7853 37.5602 94.0667 37.3926 94.3078 37.1755C94.5422 36.9655 94.731 36.7097 94.8626 36.4239C94.9978 36.1253 95.0659 35.8007 95.062 35.4729C95.0693 35.138 94.9806 34.808 94.8063 34.5219C94.6299 34.24 94.4049 33.9916 94.1417 33.7882C93.8587 33.5687 93.5547 33.3777 93.2341 33.2181L92.2678 32.7427C91.8997 32.5722 91.5358 32.3822 91.1762 32.1726C90.8285 31.9704 90.5073 31.7256 90.2201 31.444C89.9374 31.167 89.7055 30.8425 89.535 30.4853C89.357 30.0832 89.2697 29.6468 89.2794 29.2071C89.2776 28.8006 89.3695 28.3991 89.5478 28.0337C89.7228 27.6691 89.9658 27.3411 90.2636 27.0674C90.5671 26.7889 90.9177 26.5665 91.2989 26.4104C91.6872 26.2454 92.1042 26.1586 92.526 26.1548C92.9578 26.1531 93.3861 26.232 93.7889 26.3874C94.2019 26.5531 94.5859 26.7835 94.9265 27.07L95.2895 26.413H95.4633C95.4582 26.5996 95.4557 26.8143 95.4506 27.0163Z" fill="#00263A"/>
<path d="M102.378 37.7302C102.535 37.7061 102.684 37.6504 102.818 37.5666C102.947 37.4831 103.051 37.3666 103.12 37.2291C103.204 37.0478 103.244 36.8487 103.235 36.6488V26.6967L101.816 26.6456L101.305 26.6303C100.627 26.6303 100.134 26.8527 99.8297 27.2643C99.5023 27.739 99.3194 28.2984 99.3031 28.8748H99.1318L99.2187 26.3516C99.4743 26.3516 99.73 26.3337 99.9524 26.3337H100.584C101.044 26.3337 101.448 26.3337 101.793 26.3516L102.718 26.3772C102.989 26.3772 103.23 26.3925 103.452 26.4028C103.675 26.413 103.887 26.4207 104.107 26.4207C104.326 26.4207 104.546 26.4207 104.764 26.4028C104.981 26.3849 105.229 26.3823 105.505 26.3772L106.446 26.3516C106.798 26.3516 107.213 26.3337 107.698 26.3337H108.355C108.583 26.3337 108.833 26.3337 109.097 26.3516L109.201 28.8748H109.03C109.006 28.5892 108.954 28.3066 108.874 28.0312C108.797 27.7682 108.674 27.5208 108.511 27.3001C108.349 27.0843 108.139 26.9093 107.898 26.7888C107.621 26.6545 107.316 26.5887 107.008 26.597C106.952 26.597 106.752 26.597 106.456 26.6226L105.006 26.6993V36.6514C104.997 36.8511 105.035 37.0501 105.119 37.2317C105.189 37.3681 105.293 37.4842 105.421 37.5692C105.556 37.6513 105.706 37.7068 105.863 37.7328C106.037 37.762 106.213 37.7766 106.389 37.7762V37.9475C106.044 37.9475 105.768 37.9475 105.561 37.9475C105.354 37.9475 105.173 37.9475 105.024 37.9219C104.876 37.8964 104.735 37.9015 104.602 37.8964C104.47 37.8913 104.311 37.8964 104.127 37.8964C103.943 37.8964 103.767 37.8964 103.641 37.8964C103.516 37.8964 103.386 37.9117 103.227 37.9219C103.069 37.9322 102.9 37.9449 102.693 37.9475C102.486 37.9501 102.21 37.9475 101.862 37.9475V37.7762C102.035 37.775 102.208 37.7596 102.378 37.7302Z" fill="#00263A"/>
<path d="M111.909 26.3874C112.254 26.3874 112.53 26.3874 112.74 26.3874C112.949 26.3874 113.126 26.4028 113.274 26.4155C113.422 26.4283 113.563 26.436 113.688 26.4411C113.813 26.4462 113.977 26.4411 114.171 26.4411C114.365 26.4411 114.514 26.4411 114.649 26.4411C114.785 26.4411 114.923 26.4258 115.074 26.4155C115.224 26.4053 115.401 26.3951 115.608 26.3874C115.815 26.3797 116.091 26.3874 116.439 26.3874V26.5587C116.262 26.5585 116.086 26.573 115.912 26.6022C115.756 26.6263 115.606 26.6819 115.472 26.7658C115.343 26.8486 115.239 26.9653 115.171 27.1032C115.086 27.2845 115.047 27.4836 115.056 27.6835V36.6514C115.047 36.8505 115.086 37.0487 115.171 37.2291C115.239 37.3666 115.343 37.4831 115.472 37.5666C115.607 37.6483 115.756 37.7038 115.912 37.7302C116.086 37.7593 116.262 37.7738 116.439 37.7737V37.9449C116.091 37.9449 115.815 37.9449 115.608 37.9449C115.401 37.9449 115.222 37.9449 115.074 37.9194C114.925 37.8938 114.782 37.8989 114.649 37.8938C114.516 37.8887 114.358 37.8938 114.171 37.8938C113.985 37.8938 113.816 37.8938 113.688 37.8938C113.56 37.8938 113.432 37.9092 113.274 37.9194C113.115 37.9296 112.947 37.9424 112.74 37.9449C112.532 37.9475 112.254 37.9449 111.909 37.9449V37.7737C112.085 37.7739 112.261 37.7594 112.435 37.7302C112.591 37.7057 112.741 37.65 112.875 37.5666C113.005 37.4838 113.109 37.3671 113.177 37.2291C113.26 37.0484 113.299 36.8502 113.289 36.6514V27.681C113.299 27.4813 113.26 27.2823 113.177 27.1007C113.107 26.9638 113.003 26.8474 112.875 26.7632C112.74 26.6815 112.591 26.626 112.435 26.5996C112.261 26.5705 112.085 26.556 111.909 26.5561V26.3874Z" fill="#00263A"/>
<path d="M120.14 37.7302C120.297 37.7061 120.446 37.6504 120.58 37.5666C120.71 37.4838 120.814 37.3671 120.882 37.2291C120.965 37.0484 121.004 36.8502 120.994 36.6514V27.7679L120.616 27.2847C120.464 27.0907 120.286 26.9186 120.087 26.7734C119.871 26.6276 119.613 26.555 119.353 26.5664V26.3951C119.563 26.3951 119.742 26.3951 119.89 26.3951L120.294 26.413L120.624 26.4283C120.718 26.4283 120.833 26.4283 120.961 26.4283C121.089 26.4283 121.173 26.4283 121.255 26.4283L121.498 26.413L121.753 26.3951C121.845 26.3951 121.963 26.3951 122.101 26.3951L129.29 35.2403V27.681C129.298 27.4814 129.26 27.2826 129.177 27.1007C129.107 26.9643 129.003 26.8482 128.876 26.7632C128.74 26.6811 128.59 26.6256 128.433 26.5996C128.258 26.5703 128.081 26.5558 127.904 26.5561V26.3849C128.137 26.3849 128.321 26.3849 128.459 26.3849L128.822 26.4028L129.118 26.4181C129.21 26.4181 129.318 26.4181 129.446 26.4181C129.573 26.4181 129.681 26.4181 129.773 26.4181L130.067 26.4028L130.44 26.3849C130.583 26.3849 130.77 26.3849 131.003 26.3849V26.5587C130.825 26.5586 130.648 26.5731 130.473 26.6022C130.317 26.6258 130.167 26.6815 130.034 26.7658C129.905 26.8493 129.801 26.9658 129.732 27.1032C129.647 27.2845 129.608 27.4836 129.617 27.6835V38.1648H129.305L121.339 28.1488V36.6514C121.33 36.8502 121.368 37.0484 121.452 37.2291C121.521 37.366 121.625 37.4824 121.753 37.5666C121.888 37.6483 122.038 37.7038 122.193 37.7302C122.368 37.7594 122.545 37.7739 122.722 37.7737V37.9449C122.492 37.9449 122.306 37.9449 122.162 37.9449C122.019 37.9449 121.891 37.9449 121.792 37.9296L121.495 37.9143C121.403 37.9143 121.293 37.9143 121.168 37.9143C121.043 37.9143 120.933 37.9143 120.841 37.9143L120.547 37.9296C120.442 37.9296 120.322 37.9296 120.184 37.9449C120.046 37.9603 119.859 37.9449 119.632 37.9449V37.7737C119.802 37.773 119.972 37.7585 120.14 37.7302Z" fill="#00263A"/>
<path d="M144.347 34.8363C144.347 35.1482 144.347 35.4908 144.347 35.8589C144.347 36.227 144.367 36.5364 144.39 36.769C144 36.7985 143.618 36.8918 143.258 37.0451C142.905 37.1959 142.542 37.3519 142.171 37.5206C141.774 37.695 141.367 37.8453 140.952 37.9705C140.463 38.1101 139.957 38.1773 139.449 38.1699C138.662 38.1795 137.88 38.0353 137.148 37.7455C136.474 37.4746 135.865 37.0652 135.359 36.544C134.848 36.0096 134.451 35.3774 134.19 34.6855C133.906 33.9203 133.766 33.109 133.776 32.2927C133.778 31.4645 133.945 30.645 134.267 29.882C134.559 29.158 134.994 28.4999 135.545 27.9468C136.099 27.3998 136.754 26.9657 137.473 26.6686C138.233 26.3522 139.05 26.1931 139.873 26.2008C140.49 26.1961 141.103 26.2928 141.688 26.4871C142.255 26.6788 142.794 26.9425 143.294 27.2719L143.708 26.6482H143.882C143.869 26.8552 143.856 27.0342 143.838 27.1773C143.82 27.3205 143.808 27.4509 143.795 27.5659C143.782 27.681 143.772 27.7909 143.762 27.8931C143.749 28.0086 143.743 28.1247 143.744 28.2408V28.6038C143.744 28.701 143.744 28.8058 143.744 28.9157C143.744 29.0256 143.744 29.1713 143.744 29.3196V29.9766H143.534C143.533 29.0293 143.158 28.1207 142.491 27.4483C141.854 26.8212 140.973 26.5076 139.848 26.5076C139.342 26.5128 138.845 26.64 138.398 26.8783C137.888 27.1455 137.443 27.5217 137.094 27.9801C136.68 28.53 136.366 29.1488 136.166 29.8079C135.91 30.6353 135.788 31.4983 135.803 32.3643C135.805 32.7478 135.828 33.131 135.87 33.5121C135.923 33.9255 136.008 34.3341 136.126 34.7341C136.242 35.1384 136.395 35.5312 136.583 35.9075C136.768 36.272 137.006 36.6065 137.291 36.8994C137.578 37.189 137.915 37.4238 138.286 37.5922C138.7 37.7699 139.147 37.857 139.597 37.8478C139.96 37.8476 140.321 37.7951 140.668 37.6919C141.02 37.5916 141.349 37.4241 141.637 37.1985C141.929 36.9688 142.169 36.6805 142.343 36.3523C142.537 35.9704 142.632 35.5458 142.619 35.1176C142.619 34.5526 142.504 34.1512 142.274 33.9058C142.044 33.6604 141.617 33.5428 140.996 33.5428V33.3715C141.341 33.3715 141.627 33.3715 141.849 33.3715C142.072 33.3715 142.274 33.3715 142.448 33.3971C142.621 33.4227 142.782 33.4175 142.931 33.4227C143.079 33.4278 143.253 33.4227 143.442 33.4227C143.631 33.4227 143.79 33.4227 143.925 33.4227C144.061 33.4227 144.212 33.4227 144.367 33.3971C144.523 33.3715 144.705 33.3766 144.917 33.3715C145.129 33.3664 145.41 33.3715 145.756 33.3715V33.5428C145.383 33.5128 145.01 33.6024 144.692 33.7984C144.462 33.9723 144.347 34.3174 144.347 34.8363Z" fill="#00263A"/>
<path d="M154.989 27.0163C154.989 27.2285 154.989 27.4407 154.989 27.6452C154.99 27.8937 155.004 28.142 155.03 28.3891C155.057 28.6438 155.072 28.8998 155.074 29.156H154.867C154.822 28.82 154.723 28.4935 154.573 28.1897C154.425 27.8724 154.23 27.5793 153.995 27.3205C153.759 27.0642 153.477 26.8544 153.164 26.7019C152.838 26.5462 152.48 26.4675 152.118 26.4718C151.831 26.4688 151.546 26.5272 151.283 26.6431C151.032 26.7501 150.805 26.9056 150.615 27.1007C150.428 27.2959 150.282 27.5273 150.186 27.7807C150.081 28.0443 150.028 28.3254 150.03 28.6089C150.015 28.9887 150.13 29.3622 150.357 29.6673C150.587 29.9619 150.873 30.2085 151.198 30.3933C151.547 30.591 151.91 30.7619 152.285 30.9046C152.677 31.0614 153.046 31.225 153.392 31.3954C153.742 31.574 154.083 31.7702 154.414 31.9834C154.72 32.1806 154.997 32.4188 155.237 32.6915C155.473 32.9651 155.66 33.2773 155.789 33.6144C155.938 34.0149 156.009 34.44 155.999 34.867C156.004 35.3271 155.903 35.782 155.703 36.1964C155.511 36.5969 155.234 36.951 154.892 37.2343C154.528 37.5326 154.112 37.7614 153.665 37.9092C153.165 38.0798 152.639 38.1662 152.111 38.1648C151.582 38.1735 151.056 38.077 150.564 37.881C150.09 37.6796 149.635 37.434 149.207 37.1473L148.798 37.8069H148.626C148.626 37.449 148.626 37.1678 148.644 36.9582C148.662 36.7485 148.66 36.5312 148.66 36.3037C148.66 36.0762 148.66 35.7924 148.644 35.5189C148.629 35.2454 148.626 34.9105 148.626 34.5424H148.833C148.857 34.9714 148.948 35.394 149.102 35.795C149.25 36.1793 149.467 36.5329 149.744 36.838C150.018 37.1405 150.349 37.387 150.718 37.564C151.443 37.8897 152.266 37.9272 153.018 37.6689C153.324 37.5602 153.605 37.3926 153.847 37.1755C154.081 36.9655 154.27 36.7097 154.401 36.4239C154.537 36.1253 154.605 35.8007 154.601 35.4729C154.608 35.138 154.519 34.808 154.345 34.5219C154.169 34.24 153.944 33.9916 153.68 33.7882C153.398 33.5687 153.094 33.3777 152.773 33.2181L151.807 32.7427C151.438 32.5722 151.075 32.3822 150.715 32.1726C150.367 31.9704 150.046 31.7256 149.759 31.444C149.476 31.167 149.244 30.8425 149.074 30.4853C148.896 30.0832 148.808 29.6468 148.818 29.2071C148.812 28.8016 148.9 28.4001 149.074 28.0337C149.249 27.6691 149.492 27.3411 149.79 27.0674C150.089 26.7902 150.435 26.5678 150.812 26.4104C151.2 26.2454 151.617 26.1586 152.039 26.1548C152.471 26.1531 152.899 26.232 153.302 26.3874C153.724 26.5506 154.117 26.7811 154.465 27.07L154.828 26.4053H155.002C155 26.5996 154.997 26.8143 154.989 27.0163Z" fill="#00263A"/>
<path d="M70.6483 46.3811C70.6483 46.6572 70.6483 46.9231 70.6483 47.1736C70.6483 47.4241 70.6483 47.6849 70.6483 47.9405C70.6483 48.1961 70.6483 48.5055 70.6738 48.802C70.6994 49.0986 70.6994 49.4053 70.6994 49.7172H70.4668C70.4429 48.7692 70.0601 47.8655 69.3956 47.1889C68.7489 46.56 67.8618 46.243 66.7012 46.243C66.2075 46.2522 65.7236 46.383 65.2926 46.624C64.7857 46.9005 64.3438 47.2823 63.9965 47.7437C63.5807 48.2932 63.2617 48.9096 63.0532 49.5664C62.798 50.3756 62.6754 51.2207 62.6902 52.0691C62.6954 52.678 62.7648 53.2847 62.8972 53.879C63.0311 54.5072 63.2614 55.1108 63.5798 55.6685C63.8885 56.2115 64.3126 56.6802 64.8222 57.0413C65.3796 57.4177 66.0417 57.6083 66.714 57.5858C67.2443 57.5911 67.771 57.4993 68.2683 57.3149C68.7245 57.1486 69.1402 56.8872 69.4877 56.5479C69.833 56.1979 70.1066 55.7836 70.2929 55.3285C70.4948 54.8219 70.6056 54.2836 70.6202 53.7384H70.8272C70.8272 54.0733 70.8272 54.4287 70.8017 54.8019C70.7761 55.1751 70.7761 55.4742 70.7761 55.6915V56.0188C70.7761 56.1236 70.7761 56.2386 70.7761 56.3664C70.7761 56.4942 70.7889 56.6425 70.794 56.8164C70.7991 56.9902 70.794 57.2024 70.8196 57.4555H70.6483L70.2316 56.7473C70.1293 56.8291 69.9759 56.9314 69.7817 57.0592C69.5484 57.2069 69.303 57.3344 69.048 57.4401C68.717 57.5779 68.3749 57.6874 68.0254 57.7673C67.589 57.8641 67.143 57.9104 66.6961 57.9054C65.8812 57.9144 65.0709 57.783 64.3007 57.5168C63.5949 57.2736 62.9478 56.8852 62.4013 56.3767C61.8496 55.853 61.4216 55.2128 61.1487 54.5028C60.834 53.6702 60.6813 52.7852 60.6987 51.8953C60.6938 51.1053 60.8495 50.3225 61.1563 49.5945C61.4556 48.8877 61.8897 48.246 62.4345 47.7053C62.9835 47.1611 63.6318 46.7272 64.3442 46.4271C65.101 46.104 65.9166 45.9412 66.7395 45.9491C67.3586 45.945 67.9742 46.0417 68.5622 46.2354C69.1272 46.425 69.6645 46.689 70.16 47.0202L70.4719 46.399H70.6457L70.6483 46.3811Z" fill="#00263A"/>
<path d="M78.3916 51.5604C78.595 51.5898 78.8024 51.5719 78.9977 51.5082C79.193 51.4445 79.371 51.3366 79.5179 51.1929C79.6648 51.0493 79.7765 50.8737 79.8446 50.6798C79.9126 50.486 79.935 50.279 79.9101 50.0751H80.0814C80.0814 50.3307 80.0814 50.5583 80.0814 50.7321C80.0814 50.9059 80.0686 51.0465 80.0635 51.1641C80.0584 51.2817 80.0635 51.3763 80.0482 51.4581C80.0329 51.5399 80.0482 51.6268 80.0482 51.7138C80.0482 51.8007 80.0482 51.8978 80.0482 51.9694C80.0482 52.041 80.0482 52.1356 80.0635 52.2429C80.0789 52.3503 80.0763 52.4986 80.0814 52.6596C80.0865 52.8207 80.0814 53.0405 80.0814 53.309H79.9101C79.9313 52.9195 79.7981 52.5374 79.5395 52.2455C79.3837 52.108 79.2017 52.0035 79.0044 51.9385C78.8071 51.8735 78.5986 51.8492 78.3916 51.8671H77.2157V55.5944C77.2053 55.927 77.2432 56.2594 77.3282 56.5812C77.388 56.8076 77.5302 57.0036 77.727 57.1308C77.9564 57.2648 78.2135 57.3443 78.4785 57.3634C78.8693 57.402 79.2619 57.4191 79.6545 57.4146C80.0686 57.4146 80.4572 57.3992 80.8177 57.3711C81.1514 57.3477 81.4776 57.261 81.7789 57.1155C82.0627 56.9705 82.2988 56.7468 82.4589 56.4712C82.661 56.0988 82.7764 55.6854 82.7963 55.2621H82.9932L82.8551 57.683L81.4721 57.7085C81.0682 57.7085 80.631 57.7085 80.1581 57.7085C79.1782 57.7085 78.3891 57.6941 77.7909 57.6651C77.1927 57.637 76.707 57.6216 76.3388 57.6216C76.1548 57.6216 75.9988 57.6216 75.8659 57.6216L75.4415 57.6395L74.9072 57.6549C74.6976 57.6549 74.4215 57.6549 74.0764 57.6549V57.481C74.2528 57.4821 74.4289 57.4684 74.603 57.4401C74.7596 57.4159 74.9093 57.3593 75.0427 57.2739C75.1734 57.1925 75.278 57.0754 75.3444 56.9365C75.4279 56.7558 75.4665 56.5576 75.4569 56.3588V47.4318C75.4664 47.2321 75.4278 47.0331 75.3444 46.8515C75.275 46.7146 75.171 46.5983 75.0427 46.514C74.9078 46.4323 74.7586 46.3768 74.603 46.3504C74.429 46.3214 74.2529 46.3068 74.0764 46.307V46.1357C74.4173 46.1357 74.6908 46.1357 74.897 46.1357L75.4083 46.1536L75.8122 46.1689C75.94 46.1689 76.096 46.1689 76.28 46.1689C76.6712 46.1689 77.1467 46.151 77.704 46.1178C78.2613 46.0845 78.8901 46.0641 79.5804 46.0641C80.0303 46.0641 80.4368 46.0641 80.7972 46.082L82.032 46.1178L82.1368 48.3623H81.9706C81.9542 47.9981 81.8601 47.6416 81.6945 47.3167C81.5524 47.0638 81.3414 46.8564 81.0861 46.7185C80.8118 46.573 80.5126 46.4802 80.2041 46.445C79.838 46.3969 79.469 46.3738 79.0998 46.376C78.9949 46.376 78.8748 46.376 78.7367 46.376L78.3201 46.3913C78.182 46.3913 78.0491 46.4067 77.9238 46.4169L77.6145 46.4527C77.557 46.4547 77.5006 46.4687 77.4489 46.4937C77.3971 46.5187 77.3512 46.5543 77.3139 46.598C77.2766 46.6418 77.2489 46.6928 77.2324 46.7479C77.2159 46.803 77.2111 46.8609 77.2182 46.9179V51.5604H78.3916Z" fill="#00263A"/>
<path d="M86.4852 57.4912C86.6428 57.4679 86.7935 57.4112 86.9275 57.3251C87.0562 57.2425 87.1604 57.1268 87.2291 56.9902C87.3111 56.809 87.3496 56.6112 87.3416 56.4124V47.5213L86.9633 47.0381C86.8113 46.844 86.6332 46.672 86.4341 46.5268C86.2179 46.3813 85.9608 46.3088 85.7004 46.3197V46.1485C85.9075 46.1485 86.0864 46.1485 86.2347 46.1485L86.6412 46.1664L86.9684 46.1817C87.0655 46.1817 87.178 46.1817 87.3058 46.1817C87.4337 46.1817 87.518 46.1817 87.6024 46.1817L87.858 46.1664L88.1137 46.1485C88.2057 46.1485 88.3207 46.1485 88.4613 46.1485L95.65 54.9936V47.4318C95.6588 47.2319 95.6193 47.0329 95.5349 46.8515C95.4655 46.7146 95.3615 46.5983 95.2333 46.514C95.0983 46.4323 94.9491 46.3768 94.7936 46.3504C94.6187 46.3213 94.4417 46.3067 94.2644 46.307V46.1357C94.4945 46.1357 94.6785 46.1357 94.8191 46.1357L95.1821 46.1536L95.4761 46.1689C95.5681 46.1689 95.6781 46.1689 95.8033 46.1689C95.9286 46.1689 96.0411 46.1689 96.1331 46.1689L96.4271 46.1536L96.8003 46.1357C96.9435 46.1357 97.1301 46.1357 97.3602 46.1357V46.307C97.1837 46.3067 97.0076 46.3213 96.8336 46.3504C96.6765 46.3741 96.526 46.4298 96.3913 46.514C96.263 46.5983 96.159 46.7146 96.0897 46.8515C96.0073 47.0335 95.9688 47.2322 95.9772 47.4318V57.9131H95.6653L87.6714 47.8996V56.4022C87.6634 56.6009 87.702 56.7988 87.7839 56.98C87.8543 57.1162 87.9592 57.2317 88.0881 57.3149C88.2222 57.3988 88.3717 57.4553 88.5278 57.481C88.7025 57.5115 88.8796 57.526 89.057 57.5245V57.6958C88.8243 57.6958 88.6377 57.6958 88.4946 57.6958L88.1239 57.6804L87.8299 57.6625C87.7379 57.6625 87.6279 57.6625 87.5027 57.6625C87.3774 57.6625 87.2675 57.6625 87.1755 57.6625L86.8789 57.6804L86.5159 57.6958C86.3779 57.6958 86.1938 57.6958 85.9637 57.6958V57.5245C86.1382 57.5278 86.3126 57.5167 86.4852 57.4912Z" fill="#00263A"/>
<path d="M103.227 57.4912C103.385 57.4679 103.535 57.4112 103.669 57.3251C103.798 57.2425 103.902 57.1268 103.971 56.9902C104.055 56.8086 104.093 56.6095 104.084 56.4099V46.4476L102.667 46.3964C102.378 46.3964 102.205 46.3811 102.156 46.3811C101.474 46.3913 100.982 46.6026 100.678 47.0151C100.356 47.4915 100.179 48.0507 100.167 48.6256H99.9933L100.08 46.1024C100.336 46.1024 100.591 46.0846 100.814 46.0846H101.448C101.905 46.0846 102.309 46.0845 102.657 46.1024L103.58 46.128C103.853 46.128 104.091 46.128 104.314 46.1536C104.536 46.1791 104.751 46.1689 104.971 46.1689C105.19 46.1689 105.408 46.1689 105.625 46.1536C105.842 46.1382 106.093 46.1331 106.369 46.128L107.31 46.1024C107.663 46.1024 108.077 46.0846 108.562 46.0846H109.217C109.447 46.0846 109.697 46.0845 109.961 46.1024L110.066 48.6256H109.892C109.87 48.3397 109.818 48.0569 109.736 47.782C109.66 47.5182 109.537 47.2704 109.373 47.0509C109.21 46.8355 109 46.6605 108.759 46.5396C108.483 46.4073 108.179 46.3425 107.872 46.3504C107.813 46.3504 107.629 46.3504 107.32 46.376L105.868 46.4527V56.4048C105.859 56.6046 105.899 56.8037 105.983 56.9851C106.052 57.1217 106.156 57.2374 106.285 57.32C106.419 57.4039 106.568 57.4604 106.724 57.4861C106.899 57.5166 107.076 57.5311 107.253 57.5296V57.7009C106.906 57.7009 106.63 57.7009 106.423 57.7009C106.216 57.7009 106.037 57.7009 105.888 57.6753C105.74 57.6497 105.597 57.6549 105.467 57.6497C105.336 57.6446 105.175 57.6497 104.989 57.6497C104.802 57.6497 104.631 57.6497 104.505 57.6497C104.38 57.6497 104.25 57.6651 104.091 57.6753C103.933 57.6855 103.764 57.6958 103.554 57.7009C103.345 57.706 103.071 57.7009 102.726 57.7009V57.5296C102.894 57.5302 103.061 57.5174 103.227 57.4912Z" fill="#00263A"/>
<path d="M117.078 51.5604C117.281 51.5898 117.488 51.5719 117.684 51.5082C117.879 51.4445 118.057 51.3366 118.204 51.1929C118.351 51.0493 118.463 50.8737 118.531 50.6798C118.599 50.486 118.621 50.279 118.596 50.0751H118.768C118.768 50.3307 118.768 50.5583 118.768 50.7321C118.768 50.9059 118.768 51.0465 118.752 51.1641C118.737 51.2817 118.752 51.3763 118.737 51.4581C118.722 51.5399 118.737 51.6268 118.737 51.7138C118.737 51.8007 118.737 51.8978 118.737 51.9694C118.737 52.041 118.737 52.1356 118.752 52.2429C118.768 52.3503 118.765 52.4986 118.768 52.6596C118.77 52.8207 118.768 53.0405 118.768 53.309H118.596C118.617 52.9195 118.484 52.5374 118.226 52.2455C118.071 52.1062 117.889 51.9999 117.692 51.933C117.494 51.8662 117.285 51.8403 117.078 51.8569H115.902V55.5842C115.892 55.9169 115.931 56.2493 116.017 56.5709C116.077 56.7967 116.218 56.9924 116.413 57.1206C116.644 57.2542 116.902 57.3337 117.167 57.3532C117.557 57.3918 117.949 57.4089 118.341 57.4043C118.757 57.4043 119.146 57.389 119.506 57.3609C119.839 57.3375 120.165 57.2508 120.465 57.1052C120.75 56.9604 120.987 56.7368 121.148 56.461C121.349 56.0881 121.464 55.675 121.485 55.2518H121.677L121.536 57.6728L120.156 57.6983C119.752 57.6983 119.312 57.6983 118.842 57.6983C117.862 57.6983 117.072 57.6838 116.472 57.6549C115.874 57.6267 115.391 57.6114 115.022 57.6114C114.838 57.6114 114.68 57.6114 114.549 57.6114L114.125 57.6293L113.588 57.6446C113.381 57.6446 113.105 57.6446 112.757 57.6446V57.4708C112.934 57.472 113.11 57.4583 113.284 57.4299C113.441 57.4061 113.592 57.3495 113.726 57.2637C113.849 57.1963 113.953 57.0986 114.028 56.98C114.11 56.7988 114.148 56.6009 114.14 56.4022V47.4318C114.149 47.2322 114.11 47.0335 114.028 46.8515C113.958 46.7151 113.854 46.599 113.726 46.514C113.591 46.4319 113.441 46.3764 113.284 46.3504C113.11 46.3213 112.934 46.3067 112.757 46.307V46.1357C113.105 46.1357 113.376 46.1357 113.578 46.1357L114.089 46.1536L114.496 46.1689C114.624 46.1689 114.78 46.1689 114.964 46.1689C115.355 46.1689 115.828 46.151 116.388 46.1178C116.947 46.0845 117.571 46.0641 118.261 46.0641C118.714 46.0641 119.118 46.0641 119.481 46.082L120.716 46.1178L120.82 48.3623H120.647C120.63 47.9981 120.536 47.6416 120.37 47.3167C120.23 47.0636 120.02 46.856 119.765 46.7185C119.49 46.5733 119.191 46.4806 118.883 46.445C118.516 46.3969 118.146 46.3739 117.776 46.376C117.673 46.376 117.553 46.376 117.413 46.376L116.999 46.3913C116.86 46.3913 116.728 46.4067 116.602 46.4169L116.29 46.4527C116.233 46.4551 116.177 46.4693 116.125 46.4945C116.074 46.5196 116.028 46.5551 115.991 46.5988C115.954 46.6425 115.926 46.6934 115.909 46.7483C115.893 46.8032 115.887 46.861 115.894 46.9179V51.5604H117.078Z" fill="#00263A"/>
<path d="M124.471 46.1382C124.819 46.1382 125.092 46.1382 125.302 46.1382C125.511 46.1382 125.683 46.1382 125.828 46.1382C125.974 46.1382 126.107 46.1382 126.235 46.1382C126.363 46.1382 126.519 46.1382 126.703 46.1382C127.002 46.1382 127.349 46.1382 127.746 46.0973C128.142 46.0564 128.584 46.0539 129.067 46.0539C129.539 46.0559 130.009 46.091 130.476 46.1587C130.945 46.22 131.401 46.36 131.823 46.5728C132.229 46.7788 132.576 47.085 132.83 47.4625C133.117 47.9209 133.256 48.4563 133.229 48.9963C133.235 49.3969 133.148 49.7935 132.974 50.1544C132.804 50.4936 132.573 50.7979 132.291 51.0517C132.003 51.3099 131.677 51.522 131.325 51.6805C130.971 51.8464 130.596 51.9601 130.21 52.018C130.328 52.1688 130.527 52.4168 130.816 52.7619C131.105 53.107 131.427 53.4956 131.782 53.9276C132.138 54.3596 132.511 54.8019 132.897 55.2569C133.283 55.712 133.631 56.1185 133.942 56.4738C134.172 56.7391 134.423 56.9846 134.694 57.2075C134.914 57.3924 135.192 57.4937 135.479 57.4938V57.6651C135.223 57.6651 135.024 57.6651 134.868 57.6651L134.477 57.6497L134.183 57.6319C134.091 57.6319 133.976 57.6319 133.838 57.6319C133.7 57.6319 133.582 57.6319 133.485 57.6319L133.209 57.6497L132.922 57.6651C132.82 57.6651 132.687 57.6651 132.526 57.6651C132.168 57.2152 131.839 56.7891 131.539 56.3869C131.24 55.9881 130.944 55.5995 130.657 55.2186C130.371 54.8377 130.075 54.4517 129.775 54.0708C129.476 53.6899 129.152 53.2732 128.809 52.8335C128.68 52.6605 128.528 52.5065 128.357 52.3759C128.178 52.2771 127.975 52.2326 127.771 52.2481H127.615V56.3613C127.601 56.5739 127.641 56.7866 127.73 56.98C127.799 57.1166 127.903 57.2323 128.032 57.3149C128.167 57.3988 128.317 57.4553 128.474 57.481C128.647 57.5102 128.823 57.5247 128.998 57.5245V57.6958C128.653 57.6958 128.377 57.6958 128.17 57.6958C127.963 57.6958 127.781 57.6958 127.633 57.6702C127.485 57.6446 127.344 57.6497 127.209 57.6446C127.073 57.6395 126.92 57.6446 126.733 57.6446C126.547 57.6446 126.375 57.6446 126.25 57.6446C126.125 57.6446 125.995 57.66 125.833 57.6702C125.672 57.6804 125.506 57.6906 125.299 57.6958C125.092 57.7009 124.816 57.6958 124.468 57.6958V57.5245C124.645 57.5247 124.821 57.5102 124.995 57.481C125.152 57.4572 125.301 57.4006 125.435 57.3149C125.565 57.2338 125.669 57.1177 125.736 56.98C125.821 56.7994 125.86 56.6012 125.851 56.4022V47.4318C125.86 47.2319 125.821 47.0329 125.736 46.8515C125.667 46.7146 125.563 46.5983 125.435 46.514C125.3 46.4319 125.151 46.3764 124.995 46.3504C124.821 46.3214 124.645 46.3068 124.468 46.307V46.1382H124.471ZM127.618 51.9771H128.479C129.415 51.9771 130.11 51.7214 130.573 51.2101C131.036 50.6989 131.263 49.9601 131.263 48.981C131.266 48.6394 131.208 48.3001 131.092 47.9788C130.978 47.6741 130.804 47.3951 130.581 47.1582C130.352 46.9166 130.077 46.7251 129.77 46.5958C129.425 46.4538 129.055 46.3833 128.681 46.3888C128.589 46.3888 128.479 46.3888 128.354 46.3888C128.233 46.3925 128.113 46.4185 128.001 46.4655C127.895 46.5093 127.8 46.5776 127.725 46.6649C127.645 46.7643 127.605 46.8901 127.613 47.0176V51.9592L127.618 51.9771Z" fill="#00263A"/>
<path d="M27.928 37.6535C28.8362 39.402 29.3908 41.3123 29.5601 43.2753C29.7294 45.2382 29.5101 47.2153 28.9148 49.0935C28.3213 50.9512 27.3704 52.675 26.1155 54.1679C26.0925 54.1935 26.0669 54.2191 26.0439 54.2472C26.3379 54.2472 26.6293 54.2472 26.9208 54.2242C28.0411 52.7234 28.882 51.033 29.403 49.2341C29.9602 47.2974 30.1302 45.2699 29.9034 43.2675C29.6766 41.2651 29.0575 39.3271 28.0814 37.564C27.1114 35.8173 25.8087 34.2775 24.2468 33.0315C25.7635 34.3174 27.0141 35.8875 27.928 37.6535Z" fill="#6FA287"/>
<path d="M28.3907 37.2445C29.4764 38.8885 30.2276 40.7303 30.6013 42.6647C30.975 44.5991 30.9639 46.5881 30.5688 48.5183C30.1752 50.4324 29.4091 52.2504 28.314 53.8688C28.2961 53.8969 28.2731 53.9251 28.2527 53.9532C28.5466 53.92 28.8355 53.8842 29.1244 53.8382C30.0815 52.2274 30.7405 50.4573 31.0698 48.6129C31.422 46.6293 31.3799 44.5959 30.9461 42.6286C30.5123 40.6613 29.6952 38.7988 28.5415 37.1474C27.3937 35.5099 25.9343 34.1147 24.2468 33.0418C25.8879 34.1603 27.2954 35.5878 28.3907 37.2445Z" fill="#6FA287"/>
<path d="M28.7972 36.7843C30.0498 38.3068 30.9897 40.0614 31.5631 41.9477C32.1364 43.834 32.3319 45.8149 32.1384 47.7769C31.9467 49.7212 31.3743 51.6087 30.4537 53.332C30.4384 53.3652 30.4205 53.3933 30.4026 53.424C30.6915 53.3575 30.9752 53.2936 31.2564 53.2169C32.9447 49.602 33.1552 45.4709 31.8431 41.7031C30.531 37.9353 27.7999 34.8286 24.2314 33.0443C25.9825 33.9816 27.5335 35.2521 28.7972 36.7843Z" fill="#6FA287"/>
<path d="M32.4707 41.1456C34.0093 44.7917 34.0396 48.8991 32.5551 52.5676C32.5397 52.5983 32.527 52.6315 32.5116 52.6622C32.7903 52.5702 33.0664 52.4756 33.3399 52.3708C34.302 49.5685 34.4333 46.5479 33.718 43.6727C33.0027 40.7975 31.4714 38.1905 29.3084 36.1657C27.8417 34.8034 26.122 33.742 24.2468 33.0418C26.0826 33.7863 27.7538 34.8851 29.1649 36.2756C30.5759 37.6661 31.6993 39.3209 32.4707 41.1456Z" fill="#6FA287"/>
<path d="M33.2709 40.2432C35.1842 43.7068 35.644 47.7885 34.5491 51.5911C34.5491 51.6243 34.5261 51.6575 34.5184 51.6882C34.7868 51.5681 35.0501 51.4326 35.3109 51.3099C35.9729 48.4217 35.7856 45.4037 34.7714 42.6196C33.7572 39.8355 31.9594 37.4042 29.5948 35.6186C27.9971 34.4187 26.1804 33.5425 24.2468 33.0392C26.1511 33.5868 27.9286 34.505 29.4772 35.7413C31.0258 36.9775 32.315 38.5074 33.2709 40.2432Z" fill="#6FA287"/>
<path d="M33.9739 39.2589C35.0957 40.8657 35.8901 42.6777 36.3116 44.5914C36.7331 46.5052 36.7735 48.4832 36.4306 50.4126C36.4251 50.4471 36.4174 50.4813 36.4076 50.5148C36.6632 50.364 36.9189 50.2132 37.1541 50.0547C37.6258 46.1537 36.5857 42.2201 34.2474 39.0621C31.841 35.8083 28.2412 33.6429 24.2391 33.0418C28.1796 33.7424 31.6809 35.9786 33.9739 39.2589Z" fill="#6FA287"/>
<path d="M34.5721 38.2083C35.8554 39.6957 36.8359 41.4194 37.4583 43.2827C38.074 45.1359 38.3189 47.092 38.1792 49.0398C38.1792 49.073 38.1792 49.1113 38.1792 49.1446C38.4169 48.9707 38.6496 48.7918 38.8745 48.6129C38.9352 44.6831 37.49 40.879 34.8354 37.9807C33.4827 36.5025 31.852 35.3052 30.0365 34.4573C28.221 33.6095 26.2562 33.1276 24.2544 33.0392C26.2311 33.1801 28.1606 33.7091 29.9327 34.596C31.7048 35.483 33.2848 36.7104 34.5823 38.2083H34.5721Z" fill="#6FA287"/>
<path d="M30.0754 34.003C31.9198 34.6953 33.6096 35.7443 35.0484 37.0901C36.4871 38.4358 37.6465 40.052 38.4604 41.846C39.2682 43.6248 39.7165 45.5457 39.7795 47.4983V47.6031C39.9968 47.4062 40.2115 47.2068 40.416 46.9998C40.2455 45.1347 39.7389 43.3159 38.9205 41.6313C37.5988 38.9088 35.4989 36.6399 32.8867 35.1117C30.2745 33.5835 27.2676 32.8649 24.2468 33.0469C26.2334 32.9817 28.2136 33.3065 30.0754 34.003Z" fill="#6FA287"/>
<path d="M30.1342 33.3894C32.9999 34.1302 35.5812 35.7048 37.5513 37.9138C39.5214 40.1228 40.7915 42.8668 41.2009 45.7982C41.2009 45.8315 41.2009 45.8673 41.2009 45.9031C41.3951 45.6832 41.5869 45.4608 41.7709 45.2333C41.2045 42.3231 39.8069 39.6395 37.7471 37.5071C35.6873 35.3747 33.0536 33.885 30.1648 33.2182C28.2173 32.7686 26.2003 32.7069 24.2289 33.0366C26.2014 32.7665 28.2078 32.8864 30.1342 33.3894Z" fill="#6FA287"/>
<path d="M30.1393 32.7708C32.0923 33.0692 33.9681 33.7466 35.6611 34.7648C39.0508 36.8133 41.4892 40.1232 42.4407 43.9679C42.4407 44.0011 42.4407 44.0369 42.4637 44.0701C42.635 43.8298 42.8012 43.5895 42.9571 43.3466C42.0881 40.5126 40.4173 37.9907 38.1464 36.0855C35.8755 34.1802 33.1017 32.973 30.1597 32.6097C28.1764 32.3684 26.165 32.5178 24.2391 33.0494C26.1685 32.5706 28.1733 32.4759 30.1393 32.7708Z" fill="#6FA287"/>
<path d="M30.0754 32.1572C33.0325 32.2853 35.885 33.2886 38.2712 35.0399C40.6574 36.7912 42.4698 39.2116 43.4786 41.9943C43.4914 42.0275 43.5016 42.0633 43.5144 42.094C43.6576 41.8384 43.8007 41.5827 43.9337 41.3271C42.389 37.714 39.522 34.8278 35.9193 33.2591C32.2082 31.645 28.0083 31.5696 24.2416 33.0494C26.1092 32.3737 28.0912 32.0706 30.0754 32.1572Z" fill="#6FA287"/>
<path d="M35.7685 32.3515C37.6206 32.992 39.3283 33.9914 40.7938 35.2924C42.2594 36.5935 43.454 38.1707 44.3095 39.9338C44.3248 39.9645 44.3376 39.9977 44.3529 40.0284C44.4705 39.7574 44.583 39.489 44.6878 39.218C43.2492 36.6264 41.0904 34.5071 38.4726 33.1166C35.8548 31.726 32.8902 31.1237 29.9373 31.3827C27.9474 31.5582 26.0114 32.1227 24.2391 33.0443C27.8387 31.2952 31.9853 31.0461 35.7685 32.3515Z" fill="#6FA287"/>
<path d="M35.633 31.1602C39.4882 32.0569 42.8297 34.4476 44.923 37.8069C44.9409 37.8376 44.9562 37.8683 44.9741 37.8964C45.0636 37.6177 45.1505 37.3365 45.2298 37.0579C44.1484 35.5271 42.799 34.2046 41.2469 33.1542C38.7411 31.4574 35.7882 30.5421 32.7619 30.5244C29.7357 30.5067 26.7723 31.3872 24.2468 33.0545C27.6409 30.9383 31.7366 30.2569 35.633 31.1602Z" fill="#6FA287"/>
<path d="M35.3748 29.9715C37.3245 30.2166 39.2074 30.841 40.9171 31.8096C42.6142 32.7761 44.1047 34.0669 45.3039 35.6084L45.3678 35.6928C45.4266 35.4064 45.4803 35.1176 45.5263 34.8312C42.9451 31.8667 39.3258 30.004 35.4132 29.6264C33.4184 29.4343 31.4054 29.6376 29.4893 30.2245C27.5732 30.8114 25.7917 31.7705 24.2468 33.0469C25.8158 31.8268 27.6082 30.9254 29.5232 30.3933C31.4268 29.8683 33.4155 29.7249 35.3748 29.9715Z" fill="#6FA287"/>
<path d="M34.9913 28.8237C38.9475 28.902 42.7112 30.5457 45.4573 33.3945C45.4823 33.4191 45.5054 33.4456 45.5263 33.4738C45.557 33.1798 45.58 32.8909 45.5979 32.5995C42.7174 29.9277 38.9251 28.4573 34.9965 28.4888C30.95 28.5234 27.0827 30.1628 24.2442 33.0469C25.6774 31.6709 27.3668 30.5896 29.2164 29.8641C31.0541 29.1406 33.0167 28.787 34.9913 28.8237Z" fill="#6FA287"/>
<path d="M28.8534 29.3708C31.4759 28.001 34.4458 27.4399 37.3872 27.7584C40.3287 28.0769 43.1096 29.2608 45.378 31.1602L45.4573 31.2318C45.4573 30.9378 45.4573 30.6464 45.4343 30.355C42.2905 27.9973 38.3642 26.9309 34.4596 27.3742C32.4671 27.5992 30.5384 28.2146 28.7839 29.1854C27.0293 30.1561 25.4832 31.463 24.234 33.0315C25.5198 31.5211 27.0892 30.2774 28.8534 29.3708Z" fill="#6FA287"/>
<path d="M28.4418 28.8953C30.9083 27.2624 33.8038 26.3981 36.7618 26.4118C39.7198 26.4255 42.6072 27.3164 45.0585 28.972C45.0866 28.9899 45.1147 29.0129 45.1428 29.0333C45.1096 28.7393 45.0713 28.4504 45.0278 28.1616C43.4163 27.2042 41.6453 26.5451 39.7999 26.2161C37.8159 25.8651 35.7822 25.9084 33.8149 26.3435C31.8476 26.7786 29.9853 27.5971 28.3345 28.7521C26.7031 29.8991 25.3133 31.3558 24.2442 33.0392C25.3612 31.3986 26.787 29.9911 28.4418 28.8953Z" fill="#6FA287"/>
<path d="M21.6699 30.9506C20.3032 28.3259 19.746 25.3548 20.0686 22.4133C20.3912 19.4717 21.5793 16.692 23.4824 14.426C23.5054 14.4004 23.531 14.3749 23.554 14.3467C23.26 14.3467 22.9686 14.3467 22.6771 14.3697C20.3195 17.5136 19.2531 21.4399 19.6964 25.3444C19.9213 27.3369 20.5368 29.2656 21.5075 31.0202C22.4782 32.7747 23.7852 34.3208 25.3537 35.57C23.8351 34.2863 22.5835 32.7168 21.6699 30.9506Z" fill="#6FA287"/>
<path d="M21.2072 31.3622C19.5744 28.8957 18.7101 26.0002 18.7237 23.0422C18.7374 20.0843 19.6284 17.1969 21.2839 14.7455C21.3018 14.7174 21.3248 14.6893 21.3452 14.6612C21.0512 14.697 20.7624 14.7328 20.4735 14.7762C19.5161 16.3877 18.8571 18.1587 18.5281 20.0041C18.177 21.9881 18.2203 24.0218 18.6554 25.9891C19.0905 27.9564 19.909 29.8187 21.064 31.4696C22.211 33.1009 23.6677 34.4907 25.3511 35.5598C23.7113 34.4419 22.3039 33.0163 21.2072 31.3622Z" fill="#6FA287"/>
<path d="M20.7905 31.8198C19.5383 30.2971 18.5987 28.5424 18.0254 26.6562C17.4521 24.77 17.2563 22.7892 17.4493 20.8272C17.6424 18.8857 18.2147 17.0009 19.1339 15.2798L19.1851 15.1904C18.8962 15.2517 18.6124 15.3182 18.3312 15.3949C16.6435 19.0102 16.4333 23.1415 17.7453 26.9095C19.0573 30.6775 21.788 33.7848 25.3562 35.57C23.6065 34.6264 22.056 33.3529 20.7905 31.8198Z" fill="#6FA287"/>
<path d="M17.1272 27.4586C15.587 23.8131 15.5548 19.7057 17.0377 16.0365C17.053 16.0059 17.0658 15.9726 17.0811 15.9419C16.8025 16.034 16.5264 16.1311 16.2554 16.2359C15.2951 19.0394 15.1664 22.0608 15.8849 24.9358C16.6034 27.8108 18.1384 30.4164 20.3048 32.4384C21.7671 33.8002 23.4825 34.8616 25.3537 35.5624C21.6459 34.0582 18.6869 31.1434 17.1272 27.4586Z" fill="#6FA287"/>
<path d="M16.327 28.3635C14.4139 24.8998 13.9542 20.8182 15.0488 17.0156C15.0488 16.9824 15.0718 16.9466 15.0795 16.9159C14.8111 17.0386 14.5477 17.1716 14.287 17.2943C13.6234 20.1828 13.8108 23.2017 14.8266 25.9859C15.8423 28.7701 17.643 31.2004 20.0108 32.983C21.6077 34.1826 23.4235 35.0588 25.3562 35.5624C21.5114 34.4543 18.2637 31.865 16.327 28.3635Z" fill="#6FA287"/>
<path d="M15.624 29.3452C14.5018 27.7386 13.7072 25.9267 13.2857 24.0129C12.8642 22.0991 12.8239 20.1209 13.1673 18.1916C13.1725 18.1578 13.1802 18.1245 13.1903 18.0919C12.9346 18.2402 12.679 18.3935 12.4438 18.5495C11.9713 22.4505 13.0115 26.3844 15.3505 29.542C16.5409 31.1543 18.0377 32.5159 19.7551 33.5489C21.4724 34.582 23.3767 35.2662 25.3588 35.5624C21.4183 34.8617 17.917 32.6256 15.624 29.3452Z" fill="#6FA287"/>
<path d="M15.0258 30.3933C13.7426 28.9077 12.7622 27.1856 12.1396 25.324C11.5224 23.4703 11.2757 21.5133 11.4136 19.5644C11.4136 19.5311 11.4136 19.4953 11.4136 19.4596C11.1758 19.636 10.9432 19.8123 10.7182 19.9938C10.6576 23.9236 12.1028 27.7277 14.7574 30.626C17.4904 33.6096 21.2962 35.386 25.3383 35.5649C23.3638 35.4231 21.4367 34.8934 19.6671 34.006C17.8976 33.1186 16.3204 31.8909 15.0258 30.3933Z" fill="#6FA287"/>
<path d="M19.5302 34.6037C15.8114 33.2004 12.8007 30.38 11.1579 26.7607C10.3504 24.9809 9.90215 23.0592 9.83884 21.1059V21.0011C9.62154 21.1979 9.40681 21.3973 9.20229 21.6044C9.55251 25.5188 11.3885 29.1505 14.333 31.7533C17.3622 34.4357 21.3329 35.8049 25.3716 35.5598C23.3805 35.628 21.3956 35.3032 19.5302 34.6037Z" fill="#6FA287"/>
<path d="M19.4637 35.2173C16.598 34.4757 14.0167 32.9005 12.0467 30.6912C10.0767 28.4818 8.80653 25.7376 8.39702 22.8059C8.39702 22.7727 8.39702 22.7369 8.39702 22.7036C8.20274 22.9235 8.01101 23.1459 7.82694 23.3709C8.39575 26.28 9.79423 28.9623 11.8536 31.0943C13.913 33.2263 16.5454 34.7168 19.433 35.386C21.3809 35.8335 23.3977 35.8943 25.369 35.5649C23.3969 35.838 21.3902 35.7199 19.4637 35.2173Z" fill="#6FA287"/>
<path d="M19.4586 35.8334C17.5099 35.5401 15.6381 34.8653 13.9506 33.8476C12.263 32.8299 10.7928 31.4892 9.6241 29.9025C8.46588 28.3297 7.62772 26.5448 7.15717 24.6491C7.15717 24.6158 7.15717 24.5826 7.13671 24.5494C6.96288 24.7871 6.79671 25.0274 6.64077 25.2728C7.79716 29.0279 10.3475 32.1975 13.768 34.1308C17.2895 36.1245 21.4585 36.6384 25.3588 35.5598C23.429 36.037 21.4242 36.1299 19.4586 35.8334Z" fill="#6FA287"/>
<path d="M19.52 36.4495C16.5628 36.3214 13.7103 35.3181 11.3242 33.5668C8.93796 31.8155 7.12554 29.3951 6.11671 26.6124C6.11671 26.5792 6.0937 26.5459 6.08092 26.5152C5.93776 26.7709 5.7946 27.0265 5.66167 27.2822C7.20637 30.8952 10.0734 33.7814 13.676 35.3502C15.5135 36.1498 17.4906 36.5797 19.4943 36.6152C21.4979 36.6507 23.489 36.2913 25.3537 35.5573C23.4864 36.2342 21.5042 36.5374 19.52 36.4495Z" fill="#6FA287"/>
<path d="M13.8294 36.2526C11.9762 35.6133 10.2671 34.615 8.79987 33.3149C7.33262 32.0147 6.13593 30.4382 5.2782 28.6754C5.26287 28.6447 5.25008 28.6115 5.23475 28.5783C5.12738 28.8595 5.02256 29.1151 4.91008 29.3912C6.82274 32.8203 9.97163 35.3904 13.7144 36.5773C17.5748 37.791 21.7591 37.4233 25.3486 35.5547C23.5664 36.4216 21.6308 36.9287 19.6526 37.0472C17.6743 37.1656 15.692 36.893 13.8192 36.2449L13.8294 36.2526Z" fill="#6FA287"/>
<path d="M13.97 37.4541C12.0609 37.0106 10.2578 36.1954 8.66381 35.0549C7.06981 33.9145 5.7161 32.4712 4.68 30.8075C4.66211 30.7768 4.64677 30.7461 4.62888 30.718C4.5394 30.9966 4.45248 31.2778 4.37324 31.5565C6.63223 34.7723 10.0371 37.0007 13.8882 37.7839C15.8517 38.1843 17.8749 38.194 19.8422 37.8124C21.8095 37.4308 23.6823 36.6654 25.3537 35.5598C23.6738 36.6082 21.8037 37.3152 19.8504 37.6402C17.8971 37.9653 15.8989 37.902 13.97 37.4541Z" fill="#6FA287"/>
<path d="M14.2256 38.6326C12.2824 38.3932 10.4053 37.7733 8.70161 36.8083C6.99795 35.8433 5.5011 34.5521 4.29654 33.0085L4.23263 32.9242C4.17128 33.2054 4.11759 33.4866 4.07158 33.7754C6.6565 36.7337 10.2744 38.5921 14.1847 38.9701C18.2122 39.3581 22.2288 38.1305 25.3511 35.5573C23.7817 36.7755 21.9893 37.6752 20.0747 38.2057C18.1722 38.7321 16.1844 38.8772 14.2256 38.6326Z" fill="#6FA287"/>
<path d="M14.6065 39.7805C10.651 39.7041 6.88724 38.0621 4.1406 35.2147C4.1162 35.1904 4.09316 35.1648 4.07158 35.138C4.04346 35.432 4.01789 35.7209 4 36.0174C6.87988 38.6898 10.6728 40.1596 14.6014 40.1256C18.6479 40.091 22.5152 38.4516 25.3537 35.5675C22.475 38.3407 18.6133 39.8578 14.6168 39.7856L14.6065 39.7805Z" fill="#6FA287"/>
<path d="M20.7445 39.2487C18.1194 40.6144 15.1482 41.1708 12.2068 40.8478C9.26545 40.5247 6.48594 39.3366 4.21985 37.4337L4.1406 37.3621C4.1406 37.6561 4.1406 37.9501 4.16361 38.2389C7.30743 40.5966 11.2337 41.663 15.1383 41.2197C17.1308 40.9947 19.0595 40.3793 20.814 39.4086C22.5686 38.4378 24.1147 37.1309 25.3639 35.5624C24.0804 37.0818 22.5109 38.3343 20.7445 39.2487Z" fill="#6FA287"/>
<path d="M21.1561 39.7089C18.6893 41.3408 15.7941 42.2047 12.8365 42.1915C9.87883 42.1783 6.99148 41.2886 4.5394 39.6347L4.45504 39.5708C4.48827 39.8648 4.52662 40.1562 4.57008 40.4426C7.11183 41.9644 10.0396 42.7183 13.0002 42.6136C15.9608 42.5088 18.828 41.5497 21.2558 39.852C22.8867 38.7035 24.2763 37.2461 25.346 35.5624C24.2322 37.2038 22.809 38.6122 21.1561 39.7089Z" fill="#6FA287"/>
</svg>
