<svg width="152" height="160" viewBox="0 0 152 160" fill="none" xmlns="http://www.w3.org/2000/svg">
<path d="M62.4163 19.6783C62.9373 19.1574 62.9373 18.2758 62.4163 17.7549L49.0526 4.39118C48.5317 3.87026 47.6501 3.87026 47.1292 4.39118L4.17292 47.3274C3.652 47.8483 3.652 48.7299 4.17292 49.2508L47.1292 92.2071C47.6501 92.728 48.5317 92.728 49.0526 92.2071L62.4163 78.8434C62.9373 78.3224 62.9373 77.4409 62.4163 76.9199L34.7672 49.2709C34.2463 48.7499 34.2463 47.8684 34.7672 47.3474L62.4163 19.6783Z" fill="#F93535"/>
<path d="M104.892 4.39118C104.371 3.87026 103.489 3.87026 102.968 4.39118L60.0722 47.2673C59.5512 47.7882 59.5512 48.6698 60.0722 49.1907L73.4359 62.5745C73.9568 63.0954 74.8384 63.0954 75.3593 62.5745L102.968 34.9655C103.489 34.4445 104.371 34.4445 104.892 34.9655L117.254 47.3274C117.775 47.8483 117.775 48.7299 117.254 49.2508L89.6046 76.8999C89.0837 77.4208 89.0837 78.3024 89.6046 78.8233L102.968 92.187C103.489 92.708 104.371 92.708 104.892 92.187L147.828 49.2508C148.349 48.7299 148.349 47.8483 147.828 47.3274L104.892 4.39118Z" fill="#F93535"/>
<path d="M29.6175 139.812H39.9158V144.04C37.8521 145.803 35.2075 146.684 32.0819 146.684C28.756 146.684 26.0111 145.602 23.707 143.398C21.4631 141.154 20.3811 138.43 20.3811 135.084C20.3811 131.718 21.4831 128.993 23.7671 126.769C26.0712 124.525 28.7961 123.423 32.1019 123.423C35.4278 123.423 38.1126 124.345 40.2965 126.228C42.26 124.124 45.1852 121.58 46.808 119.696C42.7408 115.97 37.792 114.106 32.1019 114.106C25.9711 114.106 20.9021 116.07 16.6345 120.097C12.3469 124.144 10.2832 129.053 10.2832 135.084C10.2832 141.114 12.3669 146.023 16.6545 150.07C20.882 154.017 26.0913 156.001 32.122 156.001C39.0343 156.001 45.4857 152.895 49.3526 147.726L49.4928 147.526V130.696H29.6175V139.812Z" fill="#424242"/>
<path d="M93.2705 114.728L86.4384 136.967L79.9269 114.728H72.0328L65.5413 136.967L58.7092 114.728H48.6513L60.9532 155.4H69.3481L75.9598 133.741L82.5715 155.4H90.9665L103.268 114.728H93.2705Z" fill="#424242"/>
<path d="M106.093 114.728L103.268 124.064H115.33V155.4H126.75V124.064H138.791V114.728H106.093Z" fill="#424242"/>
</svg>
