<svg width="256" height="48" viewBox="0 0 256 48" fill="none" xmlns="http://www.w3.org/2000/svg">
<path d="M33.5586 23.1166C34.6201 23.1222 35.6817 23.1278 36.7433 23.1278C37.8067 23.1278 38.8702 23.1222 39.9317 23.1166H39.9319C42.0494 23.1054 44.1593 23.0942 46.2468 23.1278C47.1315 23.1278 47.4853 22.8751 47.4348 21.9399C47.4011 20.9457 47.4123 19.9516 47.4235 18.9574C47.4292 18.4603 47.4348 17.9632 47.4348 17.4661C47.4685 14.7679 47.4572 12.0359 47.446 9.31521V9.31337C47.4404 7.95695 47.4348 6.60333 47.4348 5.2581C47.4348 5.17507 47.4383 5.08985 47.4418 5.0048C47.4648 4.44264 47.4875 3.88788 46.4996 4.0196C41.6088 4.75891 36.718 5.45557 31.8272 6.15222C30.1969 6.38444 28.5666 6.61666 26.9364 6.85046C26.1023 7.00211 25.799 7.30541 25.799 8.19005C25.8495 12.7144 25.8495 17.2134 25.799 21.7882C25.799 22.9256 26.2034 23.1278 27.1891 23.1278C29.3123 23.0941 31.4354 23.1054 33.5586 23.1166Z" fill="#00AAF2"/>
<path d="M47.4854 42.9185V34.5018C47.4854 33.8066 47.4822 33.113 47.479 32.4198V32.3974C47.4696 30.3004 47.4601 28.207 47.5359 26.0851C47.5359 25.1499 47.2832 24.7455 46.2469 24.7455C39.9027 24.7455 33.5333 24.7455 27.0628 24.6949C26.077 24.6949 25.7737 24.9982 25.7737 25.984L25.774 26.0094C25.8245 30.5251 25.8747 35.0157 25.7737 39.4811C25.7737 40.7196 26.1781 41.124 27.3155 41.2756C28.8953 41.4968 30.4767 41.7164 32.058 41.936C36.8018 42.5947 41.5457 43.2534 46.2469 43.9548C47.1821 44.1065 47.4854 43.9043 47.4854 42.9185Z" fill="#00AAF2"/>
<path d="M15.6635 24.8213H22.7912C23.5495 24.8213 23.878 25.0741 23.878 25.8576V39.9108C23.878 40.7196 23.5242 40.7954 22.7912 40.7196C18.0647 40.0119 13.3382 39.3294 8.63693 38.6722C7.70174 38.5206 7.39844 38.2173 7.39844 37.2316C7.44899 33.4908 7.44899 29.75 7.39844 25.9334C7.39844 24.9982 7.65119 24.7455 8.58638 24.7455C10.9876 24.8213 13.2876 24.8213 15.6635 24.8213Z" fill="#00AAF2"/>
<path d="M8.63697 23.1278H15.6635C16.8067 23.1278 17.9686 23.1153 19.1368 23.1028H19.1387C20.3203 23.0901 21.5084 23.0773 22.6901 23.0773C23.5748 23.0773 23.9792 22.9256 23.9792 21.9399V8.49336C23.9792 7.60872 23.8781 7.25486 22.7912 7.40651C18.09 8.16478 13.3635 8.84721 8.63697 9.45382C7.70178 9.60548 7.44902 9.90878 7.44902 10.7934C7.49957 14.5089 7.49957 18.1991 7.44902 21.8893C7.44902 22.8245 7.75233 23.1278 8.63697 23.1278Z" fill="#00AAF2"/>
<path d="M65.2287 11.8803C65.1782 11.122 65.1276 10.1363 65.1276 9.42855H65.0771C64.9678 9.90202 64.7798 10.4411 64.5887 10.989C64.5146 11.2016 64.44 11.4156 64.3693 11.6275L63.3836 14.3573H62.8275L61.9429 11.6781C61.7477 11.1316 61.5827 10.5399 61.4245 9.97275C61.3779 9.80546 61.3318 9.64031 61.2857 9.4791C61.2593 9.82253 61.2468 10.2557 61.2337 10.7137L61.2332 10.7215C61.2212 11.1375 61.2086 11.5737 61.1846 11.9814L61.033 14.3825H60.3758L60.7802 8.69556H61.7154L62.7012 11.4759C62.9165 12.0359 63.0585 12.6142 63.1896 13.1483C63.2124 13.241 63.2348 13.3324 63.2572 13.4221H63.3078C63.4594 12.866 63.6616 12.1836 63.9144 11.4759L64.9507 8.69556H65.8859L66.2397 14.3825H65.4309L65.2287 11.8803Z" fill="#00AAF2"/>
<path d="M67.7057 9.60548C67.9584 9.60548 68.1606 9.40328 68.1606 9.15052C68.1606 8.89777 67.9584 8.69556 67.6551 8.69556C67.4024 8.69556 67.2002 8.89777 67.2002 9.15052C67.2002 9.40328 67.4024 9.60548 67.6551 9.60548H67.7057Z" fill="#00AAF2"/>
<path d="M67.3518 10.3637V14.4078H68.1101V10.3637H67.3518Z" fill="#00AAF2"/>
<path d="M72.2048 14.2309C71.8509 14.3825 71.4465 14.4836 71.0168 14.4836C69.7783 14.4836 68.9695 13.6748 68.9695 12.3858C68.9189 11.1978 69.7783 10.2374 70.9663 10.1868H71.1685C71.5223 10.1868 71.8762 10.2374 72.2048 10.389L72.0531 10.9451C71.8003 10.844 71.497 10.7429 71.1685 10.7934C70.2333 10.7934 69.7278 11.4506 69.7278 12.3352C69.7278 13.321 70.3344 13.877 71.1685 13.877C71.4718 13.877 71.7751 13.8265 72.0531 13.6748L72.2048 14.2309Z" fill="#00AAF2"/>
<path d="M73.0111 10.8807L73.0111 10.8809C73.0245 11.1008 73.0388 11.3353 73.0388 11.577L73.0893 14.4078H73.797V12.2088C73.797 12.1583 73.8097 12.1077 73.8223 12.0572C73.8349 12.0067 73.8476 11.9561 73.8476 11.9055C73.9487 11.3242 74.3278 10.9198 74.8333 10.9198C74.9344 10.9198 75.0355 10.9198 75.0861 10.9704V10.3132C75.0355 10.2626 74.9344 10.2626 74.8839 10.2626C74.3531 10.2626 73.8981 10.6418 73.7465 11.1473H73.6959L73.6454 10.3385H72.9882C72.9882 10.5038 72.9993 10.6858 73.0111 10.8791V10.8807Z" fill="#00AAF2"/>
<path fill-rule="evenodd" clip-rule="evenodd" d="M79.4588 12.3352C79.5093 13.4221 78.7005 14.3825 77.6137 14.4331H77.462C76.3752 14.4331 75.5158 13.6243 75.5158 12.3352C75.5158 10.9451 76.451 10.1868 77.5631 10.1868C78.5741 10.1868 79.4588 11.0715 79.4588 12.3352ZM76.2235 12.3352C76.2235 13.144 76.6279 13.877 77.462 13.877C78.2708 13.877 78.7005 13.1188 78.7005 12.3352C78.7005 11.6275 78.3972 10.7429 77.462 10.7429C76.4763 10.7934 76.2235 11.6275 76.2235 12.3352Z" fill="#00AAF2"/>
<path d="M81.2534 13.9276C80.8742 13.9276 80.5709 13.8265 80.2676 13.6243L80.1412 14.0792C80.5204 14.2814 80.8742 14.3825 81.2786 14.3825C82.2644 14.3825 82.8204 13.8518 82.8204 13.144C82.8204 12.5122 82.3908 12.1583 81.7336 11.9055C81.2281 11.7033 80.9753 11.5517 80.9753 11.2484C80.9753 10.8945 81.2786 10.6418 81.6325 10.6923C81.8853 10.6923 82.1886 10.7934 82.4413 10.9451L82.593 10.4396C82.2644 10.2879 81.9105 10.1868 81.5567 10.1868C80.672 10.1868 80.1665 10.7176 80.1665 11.3748C80.1665 11.9055 80.5457 12.31 81.2534 12.5627C81.8094 12.8155 82.0116 13.0177 82.0116 13.321C82.0116 13.6748 81.7589 13.9276 81.2534 13.9276Z" fill="#00AAF2"/>
<path fill-rule="evenodd" clip-rule="evenodd" d="M87.3953 12.3352C87.4458 13.4221 86.637 14.3825 85.5502 14.4331H85.3985C84.3117 14.4331 83.4523 13.6243 83.4523 12.3352C83.4523 10.9451 84.3875 10.1868 85.4996 10.1868C86.5359 10.1868 87.3953 11.0715 87.3953 12.3352ZM84.1853 12.3352C84.1853 13.144 84.5897 13.877 85.4238 13.877C86.2579 13.877 86.6623 13.1188 86.6623 12.3352C86.6623 11.6275 86.359 10.7429 85.4238 10.7429C84.4886 10.7429 84.1853 11.6275 84.1853 12.3352Z" fill="#00AAF2"/>
<path d="M88.381 10.8693V14.4078L89.114 14.3067V10.8187H90.0998V10.2626H89.114V10.0099C89.114 9.378 89.2657 8.82194 89.8723 8.82194C90.0239 8.82194 90.1756 8.87249 90.3273 8.92304L90.4284 8.36698C90.2262 8.31643 90.0239 8.26588 89.8217 8.26588C89.4426 8.26588 89.0888 8.41753 88.836 8.67029C88.4821 9.07469 88.3305 9.60548 88.381 10.111V10.3132H87.825V10.8693H88.381Z" fill="#00AAF2"/>
<path d="M91.7679 9.09997V10.2879H92.8547V10.844H91.7679V13.0429C91.7679 13.5485 91.9195 13.8012 92.3239 13.8012C92.4756 13.8012 92.6272 13.8012 92.7283 13.7507L92.7789 14.3067C92.5767 14.4078 92.3745 14.4078 92.1217 14.4078C91.8184 14.4078 91.5657 14.3067 91.3129 14.1045C91.1107 13.8012 91.0096 13.3968 91.0602 13.0177V10.7681H90.4536V10.2121H91.0602V9.22635L91.7679 9.09997Z" fill="#00AAF2"/>
<path fill-rule="evenodd" clip-rule="evenodd" d="M62.8275 35.8667L64.7737 29.8511V29.8258H71.5475L73.5948 35.8414H76.2235L69.7024 16.7584H66.7705L60.2494 35.8667H62.8275ZM69.1969 22.4707L71.042 27.9555H65.3298L67.1749 22.4201C67.554 21.2827 67.8573 20.1201 68.1101 18.9827H68.2112C68.4892 20.0695 68.7925 21.2322 69.1969 22.4707Z" fill="#00AAF2"/>
<path d="M88.3304 35.3864C87.0919 35.9425 85.7523 36.1953 84.3874 36.1953C80.2928 36.1953 77.5631 33.3644 77.5631 29.2192C77.5631 25.0741 80.495 21.9399 84.893 21.9399C86.0809 21.9399 87.2436 22.1421 88.3304 22.6476L87.7744 24.5433C86.8897 24.0883 85.8787 23.8861 84.8424 23.8861C81.7082 23.8861 80.0148 26.2367 80.0148 29.0676C80.0148 32.2523 82.0621 34.1985 84.7919 34.1985C85.8281 34.1985 86.8897 33.9963 87.8249 33.5413L88.3304 35.3864Z" fill="#00AAF2"/>
<path d="M94.6493 22.1927V18.2497L92.1218 18.8563V22.1927H90.0239V24.0378H92.1723V31.5193C92.1723 33.1622 92.4503 34.2996 93.1075 35.1084C93.7899 35.7908 94.7504 36.1953 95.7867 36.1447C96.7977 36.1447 97.5813 36.0436 98.0362 35.7908L97.9351 33.9457C97.4802 34.0468 96.9494 34.0974 96.4944 34.0974C95.1043 34.0974 94.6493 33.1117 94.6493 31.4182V24.0378H98.1879V22.1927H94.6493Z" fill="#00AAF2"/>
<path d="M103.774 18.3508C103.774 19.1596 103.167 19.842 102.333 19.8926H102.232C101.423 19.8926 100.741 19.286 100.741 18.5024V18.4013C100.69 17.5925 101.347 16.8595 102.181 16.8595H102.283C103.117 16.7584 103.774 17.4662 103.774 18.3508Z" fill="#00AAF2"/>
<path d="M101.019 35.8414V22.1927H103.47V35.8414H101.019Z" fill="#00AAF2"/>
<path d="M111.281 29.9017L108.601 22.1927H105.998L111.18 35.8414H113.581L118.964 22.1927H116.336L113.642 29.9426L113.642 29.9431L113.642 29.9442L113.641 29.9448L113.641 29.946L113.641 29.9462L113.641 29.9464C113.217 31.1682 112.819 32.3165 112.519 33.4402H112.418C112.089 32.3028 111.736 31.1402 111.281 29.9017Z" fill="#00AAF2"/>
<path fill-rule="evenodd" clip-rule="evenodd" d="M127.027 34.2491C124.563 34.2491 122.423 32.8727 122.352 29.5225H131.931C131.938 29.4628 131.945 29.4046 131.952 29.3474C131.994 28.9935 132.032 28.6828 132.032 28.3346C132.032 25.807 130.869 21.9146 126.395 21.9146C122.326 21.9146 119.925 25.1499 119.925 29.2951C119.925 33.3897 122.452 36.2205 126.648 36.2205C128.24 36.2711 129.782 35.9425 131.223 35.3359L130.819 33.5413C129.959 33.9457 128.822 34.2491 127.027 34.2491ZM129.631 27.6774C129.681 26.1356 128.973 23.6839 126.193 23.6839C123.691 23.6839 122.553 25.984 122.351 27.6774H129.631Z" fill="#00AAF2"/>
<path fill-rule="evenodd" clip-rule="evenodd" d="M146.464 16.6573C144.669 16.6573 142.925 16.809 141.181 17.0617L141.131 35.8414C142.622 36.0436 144.164 36.0942 145.655 36.0942C149.345 36.0942 152.277 35.1084 154.072 33.3139C155.866 31.5193 156.852 29.017 156.852 25.8829C156.852 22.8498 155.866 20.6003 154.173 19.0585C152.53 17.4661 150.003 16.6573 146.464 16.6573ZM146.161 34.0974C145.352 34.0974 144.518 34.0468 143.709 33.9457L143.684 18.9068C144.669 18.7552 145.63 18.6541 146.616 18.6541C151.822 18.6541 154.375 21.4597 154.325 25.984C154.325 31.1654 151.443 34.0974 146.161 34.0974Z" fill="#00AAF2"/>
<path d="M162.843 18.3508C162.843 19.1596 162.236 19.842 161.402 19.8926H161.301C160.492 19.8926 159.809 19.286 159.809 18.5024V18.4013C159.759 17.5925 160.416 16.8595 161.25 16.8595H161.351C162.135 16.7584 162.843 17.4662 162.843 18.3508Z" fill="#00AAF2"/>
<path d="M160.037 35.8414V22.1927H162.489V35.8414H160.037Z" fill="#00AAF2"/>
<path d="M166.533 22.1927C166.583 23.4817 166.634 24.8719 166.634 26.4642L166.735 35.8414H169.187V28.5115C169.187 28.1324 169.187 27.728 169.288 27.3741C169.642 25.529 170.83 24.1894 172.624 24.1894C172.927 24.1894 173.18 24.24 173.433 24.2905V21.9399C173.231 21.8894 173.029 21.8894 172.776 21.8894C171.133 21.8894 169.591 23.0267 168.934 24.8719H168.833L168.732 22.1927H166.533Z" fill="#00AAF2"/>
<path fill-rule="evenodd" clip-rule="evenodd" d="M181.698 34.2491C179.233 34.2491 177.094 32.8727 177.023 29.5225H186.601C186.608 29.4647 186.615 29.4082 186.622 29.3528L186.622 29.3474C186.665 28.9935 186.702 28.6828 186.702 28.3346C186.702 25.807 185.54 21.9146 181.066 21.9146C176.997 21.9146 174.596 25.1499 174.596 29.2951C174.596 33.3897 177.123 36.2205 181.319 36.2205C182.911 36.2711 184.453 35.9425 185.894 35.3359L185.489 33.5413C184.63 33.9457 183.493 34.2491 181.698 34.2491ZM184.301 27.6774C184.352 26.1356 183.644 23.6839 180.864 23.6839C178.362 23.6839 177.224 25.984 177.022 27.6774H184.301Z" fill="#00AAF2"/>
<path d="M195.599 36.1953C196.964 36.1953 198.304 35.9425 199.542 35.3864L199.037 33.5413C198.102 33.9963 197.04 34.1985 196.004 34.1985C193.274 34.1985 191.227 32.2523 191.227 29.0676C191.227 26.2367 192.92 23.8861 196.054 23.8861C197.091 23.8861 198.102 24.0883 198.986 24.5433L199.542 22.6476C198.456 22.1421 197.293 21.9399 196.105 21.9399C191.707 21.9399 188.775 25.0741 188.775 29.2192C188.775 33.3644 191.505 36.1953 195.599 36.1953Z" fill="#00AAF2"/>
<path d="M205.861 18.2497V22.1927H209.4V24.0378H205.861V31.4182C205.861 33.1117 206.316 34.0974 207.706 34.0974C208.161 34.0974 208.692 34.0468 209.147 33.9457L209.248 35.7908C208.793 36.0436 208.01 36.1447 206.999 36.1447C205.962 36.1953 205.002 35.7908 204.32 35.1084C203.662 34.2996 203.384 33.1622 203.384 31.5193V24.0378H201.286V22.1927H203.384V18.8563L205.861 18.2497Z" fill="#00AAF2"/>
<path fill-rule="evenodd" clip-rule="evenodd" d="M217.564 36.1953C220.749 36.1953 224.439 34.0468 224.439 29.017C224.439 24.6191 221.709 21.8894 217.867 21.8894C214.177 21.8894 211.043 24.4927 211.043 29.0676C211.043 33.5161 213.975 36.1953 217.564 36.1953ZM217.741 34.2996C214.986 34.2996 213.596 31.8479 213.596 29.0676C213.596 26.6159 214.683 23.6839 217.741 23.6839C220.799 23.6839 221.937 26.6159 221.937 29.017C221.937 31.8479 220.471 34.2996 217.741 34.2996Z" fill="#00AAF2"/>
<path d="M227.573 26.4642C227.573 24.8719 227.522 23.4817 227.472 22.1927H229.671L229.772 24.8719H229.873C230.53 23.0267 232.072 21.8894 233.715 21.8894C233.968 21.8894 234.17 21.8894 234.372 21.9399V24.2905C234.119 24.24 233.867 24.1894 233.563 24.1894C231.769 24.1894 230.581 25.529 230.227 27.3741C230.126 27.7279 230.126 28.1322 230.126 28.5113V35.8414H227.674L227.573 26.4642Z" fill="#00AAF2"/>
<path d="M241.424 30.2555L238.441 22.1927V22.2179H235.762L240.792 34.7798C240.893 34.982 240.994 35.1842 240.994 35.437C240.994 35.6392 240.893 35.8414 240.792 36.0436C240.337 37.1305 239.629 38.0656 238.745 38.8239C238.087 39.4052 237.355 39.8096 236.546 40.0624L237.152 42.1603C238.29 41.857 239.301 41.3262 240.185 40.5679C241.879 39.0767 243.067 36.6249 244.861 31.949L248.602 22.1927H245.973L243.244 30.2555C242.985 30.9291 242.785 31.6264 242.603 32.2585C242.519 32.5514 242.439 32.8303 242.359 33.0864H242.309C242.081 32.2017 241.727 31.1402 241.424 30.2555Z" fill="#00AAF2"/>
</svg>
