<svg width="160" height="88" viewBox="0 0 160 88" fill="none" xmlns="http://www.w3.org/2000/svg">
<path d="M109.375 69.2835C108.39 71.9337 106.983 74.2086 105.154 76.1083C103.324 78.008 101.143 79.4856 98.5866 80.5175C96.0302 81.5495 93.2159 82.0889 90.1435 82.0889C85.3591 82.0889 81.2547 80.8928 77.854 78.524C74.4533 76.1552 72.2253 72.9187 71.1699 68.791H78.112C78.7922 70.292 79.6365 71.5115 80.6919 72.4262C81.7238 73.3409 82.8496 74.021 84.0222 74.4901C85.1949 74.9591 86.3206 75.264 87.4229 75.4282C88.5252 75.5924 89.4165 75.6627 90.167 75.6627C92.7234 75.6627 94.881 75.2171 96.6869 74.3025C98.4928 73.3878 99.9469 72.2151 101.049 70.7845C102.175 69.3538 102.972 67.7356 103.465 65.9062C103.957 64.0769 104.215 62.271 104.215 60.4416V56.2201C102.761 58.1901 100.838 59.8787 98.4694 61.2625C96.1006 62.6462 93.4504 63.3264 90.5422 63.3264C87.634 63.3264 84.9369 62.7869 82.4978 61.6846C80.0586 60.5823 77.9244 59.0813 76.142 57.1582C74.3361 55.235 72.9289 52.9835 71.9204 50.4506C70.9119 47.8942 70.3959 45.1736 70.3959 42.242C70.3959 39.3103 70.9119 36.5897 71.9204 34.0099C72.9289 31.43 74.3361 29.202 76.142 27.3023C77.9478 25.4026 80.0586 23.9016 82.4978 22.7758C84.9369 21.6501 87.634 21.0872 90.5422 21.0872C93.5208 21.0872 96.2179 21.8143 98.657 23.2683C101.096 24.7224 103.019 26.4814 104.426 28.4984V22.0957H110.829V60.4416C110.853 63.7016 110.36 66.6333 109.375 69.2835ZM103.137 36.4959C102.41 34.6666 101.424 33.0718 100.158 31.688C98.915 30.3043 97.4609 29.2255 95.8192 28.4515C94.1774 27.6775 92.4184 27.2788 90.5422 27.2788C88.6659 27.2788 86.907 27.6775 85.2418 28.4515C83.5766 29.2255 82.146 30.3043 80.9499 31.688C79.7537 33.0718 78.7922 34.6666 78.0886 36.4959C77.385 38.3253 77.0332 40.2719 77.0332 42.3592C77.0332 44.3997 77.385 46.3228 78.0886 48.1287C78.7922 49.9581 79.7303 51.5294 80.9499 52.8897C82.146 54.25 83.5766 55.3054 85.2418 56.1028C86.907 56.8767 88.6894 57.2754 90.5422 57.2754C92.4184 57.2754 94.1774 56.8767 95.8192 56.1028C97.4609 55.3288 98.915 54.25 100.158 52.8897C101.401 51.5294 102.386 49.9581 103.137 48.1287C103.864 46.2994 104.239 44.3762 104.239 42.3592C104.215 40.2719 103.864 38.3018 103.137 36.4959ZM143.781 22.7758C146.243 23.9016 148.378 25.426 150.184 27.3492C151.99 29.2724 153.397 31.5239 154.429 34.1037C155.461 36.6836 156 39.4276 156 42.3358C156 45.244 155.484 47.9645 154.429 50.4975C153.397 53.0304 151.966 55.235 150.184 57.1347C148.378 59.0344 146.243 60.5354 143.781 61.6143C141.318 62.6931 138.645 63.256 135.783 63.256C132.922 63.256 130.272 62.7166 127.809 61.6143C125.347 60.512 123.236 59.0344 121.407 57.1347C119.577 55.235 118.147 53.0304 117.115 50.4975C116.083 47.9645 115.543 45.244 115.543 42.3358C115.543 39.4276 116.059 36.6836 117.115 34.1037C118.147 31.5239 119.577 29.2724 121.407 27.3492C123.236 25.426 125.37 23.9016 127.809 22.7758C130.248 21.6501 132.922 21.0872 135.783 21.0872C138.645 21.1107 141.295 21.6735 143.781 22.7758ZM141.037 56.009C142.679 55.235 144.133 54.1796 145.376 52.8428C146.619 51.506 147.604 49.9346 148.307 48.1287C149.011 46.2994 149.363 44.3762 149.363 42.3592C149.363 40.2719 149.011 38.3018 148.307 36.4725C147.604 34.6197 146.619 33.0249 145.376 31.6646C144.133 30.3043 142.679 29.2255 141.037 28.428C139.395 27.6306 137.636 27.2085 135.76 27.2085C133.884 27.2085 132.125 27.6072 130.483 28.428C128.841 29.2255 127.411 30.3043 126.191 31.6646C124.971 33.0249 124.01 34.6197 123.306 36.4725C122.603 38.3253 122.251 40.2953 122.251 42.3592C122.251 44.3997 122.603 46.3228 123.306 48.1287C124.01 49.9581 124.971 51.5294 126.191 52.8428C127.411 54.1796 128.841 55.235 130.483 56.009C132.125 56.7829 133.884 57.1816 135.76 57.1816C137.66 57.1816 139.395 56.7829 141.037 56.009ZM10.6607 72.3793C9.58185 72.3793 8.50301 72.1213 7.51798 71.5819C5.36028 70.4327 4 68.1812 4 65.7186V39.1461C4 35.464 6.97855 32.5089 10.6372 32.5089C14.2959 32.5089 17.2745 35.4875 17.2745 39.1461V53.3119L38.5231 39.1461L6.97855 18.0852C3.92964 16.0448 3.10878 11.917 5.12575 8.8681C7.16618 5.81919 11.2939 4.99833 14.3428 7.0153L54.2367 33.6112C56.0895 34.8542 57.1918 36.9181 57.1918 39.1461C57.1918 41.3742 56.0895 43.4381 54.2367 44.6811L14.3663 71.277C13.2405 72.004 11.9506 72.3793 10.6607 72.3793Z" fill="black"/>
</svg>
