<svg width="216" height="48" viewBox="0 0 216 48" fill="none" xmlns="http://www.w3.org/2000/svg">
<path d="M182.787 12.955C182.688 14.0443 182.539 15.1831 182.49 16.3715C182.44 17.6093 182.391 18.8472 182.391 20.0355H187.887L186.352 24.2937H182.391V35.9294C182.391 36.6721 182.44 37.2663 182.49 37.7614C182.539 38.207 182.737 38.6032 182.886 38.9002C183.034 39.1973 183.331 39.3459 183.678 39.4944C184.024 39.5934 184.47 39.6429 185.015 39.6429C185.312 39.6429 185.609 39.5934 185.956 39.5439C186.302 39.4944 186.698 39.3954 187.292 39.1973L188.035 42.9109C186.452 43.5868 184.755 43.9564 183.034 44.0002C181.45 44.0002 180.113 43.7031 178.925 43.0594C177.786 42.4157 176.994 41.6235 176.647 40.5837C176.548 40.3361 176.498 40.1381 176.399 39.8905C176.35 39.742 176.3 39.4944 176.3 39.1973C176.3 38.9002 176.251 38.6032 176.251 38.2566V24.2937H173.924V20.0355H176.251V17.0647C176.251 16.2724 176.3 15.3812 176.498 14.4899L182.787 12.955ZM200.513 19.4413C203.83 19.4413 206.454 20.6297 208.484 23.0063C209.475 24.0956 210.069 25.3335 210.564 26.6703C210.96 28.0072 211.208 29.6412 211.208 31.6217C211.257 33.6023 210.96 35.3352 210.514 36.7711C210.069 38.207 209.326 39.5439 208.286 40.6827C207.445 41.7225 206.355 42.4652 205.117 43.1089C203.929 43.7031 202.345 43.9506 200.513 43.9506C198.928 43.9506 197.492 43.6536 196.205 43.1089C194.868 42.5147 193.779 41.7225 192.887 40.6332C191.947 39.5934 191.303 38.3061 190.758 36.7711C190.263 35.2857 190.016 33.6023 190.016 31.7703C190.016 29.9382 190.263 28.2548 190.758 26.7198C191.254 25.1849 191.947 23.8976 192.887 22.8083C193.828 21.719 194.918 20.9267 196.205 20.2831C197.542 19.6889 198.978 19.4413 200.513 19.4413ZM156 19.3918C156.594 20.3821 156.841 21.3228 156.841 22.3131C157.287 21.9665 157.782 21.6694 158.178 21.3724C158.574 21.0753 159.02 20.7782 159.565 20.5801C160.208 20.2335 160.803 19.986 161.595 19.8374C162.337 19.6889 163.08 19.5899 163.773 19.5899C165.11 19.5899 166.249 19.8869 167.289 20.5306C168.261 21.0883 169.012 21.962 169.418 23.0063C169.715 23.7985 169.864 24.8878 169.864 26.3237V43.406H163.922V28.2548H163.773C163.773 26.9179 163.625 26.0267 163.328 25.581C163.031 25.1354 162.486 24.8878 161.743 24.8878C161.1 24.8878 160.406 25.0364 159.664 25.482C158.921 25.8781 158.178 26.4228 157.485 27.0169V43.505H151.345V26.4228C151.345 24.3432 151.048 22.5112 150.553 20.9267L156 19.3918ZM118.369 11.5686V26.1257L127.43 11.5686H135.352L125.153 26.3237L136.491 43.406H128.074L118.369 26.8189V43.406H111.734V11.5686H118.369ZM144.909 19.3918V43.406H138.719V20.3821L144.909 19.3918ZM200.711 24.0956C199.968 24.0956 199.324 24.3432 198.78 24.7393C198.185 25.1354 197.789 25.7791 197.591 26.4723C197.344 27.116 197.195 27.8092 197.146 28.6509C197.047 29.4926 196.997 30.4829 196.997 31.6712C196.997 34.2955 197.294 36.3255 197.789 37.5634C198.086 38.207 198.483 38.7022 199.126 38.9993C199.684 39.3142 200.318 39.4685 200.958 39.4449C202.345 39.4449 203.285 38.8012 203.88 37.5634C204.474 36.3255 204.721 34.2955 204.721 31.5227C204.573 28.4528 204.127 26.4228 203.335 25.3335C202.701 24.5338 201.731 24.076 200.711 24.0956ZM142.037 9.78613C143.077 9.78613 143.918 10.1327 144.661 10.8754C145.404 11.6181 145.75 12.5589 145.75 13.5492C145.619 14.5454 145.187 15.4779 144.512 16.2229C143.805 16.9328 142.841 17.3258 141.839 17.3122C140.799 17.3122 139.908 16.9656 139.215 16.2229C138.505 15.5157 138.112 14.5511 138.125 13.5492C138.125 12.4599 138.521 11.6181 139.264 10.8754C140.007 10.1327 140.948 9.78613 142.037 9.78613Z" fill="#333333"/>
<path d="M48.3078 43.6533H28.5023C25.4324 43.5543 22.016 43.3067 19.1442 42.762C17.7083 42.5145 16.3714 42.1679 15.084 41.8213C14.4403 41.6232 13.8462 41.4747 13.252 41.2766C12.1689 40.9092 11.0957 40.5129 10.0336 40.0883C9.53848 39.8903 9.09286 39.6427 8.69675 39.4446C7.85501 38.999 7.1123 38.6524 6.56765 38.3058C5.97349 37.9592 5.52786 37.6621 5.23078 37.4641L4.78516 37.167C4.78516 37.167 4.9337 37.266 5.28029 37.4641C5.57738 37.6621 6.023 37.9097 6.61717 38.2563C7.21133 38.6029 7.95404 38.9495 8.79577 39.3456C9.63751 39.7417 10.6278 40.1378 11.7171 40.4844C12.2617 40.6825 12.8064 40.8805 13.4006 41.0291C13.9947 41.2271 14.5889 41.3757 15.2326 41.5242C16.5199 41.8213 17.8568 42.1184 19.2927 42.3659C22.115 42.8611 25.1848 43.1582 28.2547 43.2572C29.6906 43.3562 48.3078 43.6533 48.3078 43.6533Z" fill="url(#paint0_linear_150_178)"/>
<path d="M108.516 27.6606C108.516 19.7384 101.98 12.1133 94.2067 12.1133C88.2156 12.1133 81.4322 12.856 68.4596 29.3441C51.6744 50.536 42.96 40.1876 42.4648 39.4944C43.7027 41.9206 46.1784 43.6536 49.0997 43.6536H94.2067C102.079 43.6536 108.516 35.5828 108.516 27.6606Z" fill="url(#paint1_linear_150_178)"/>
<path d="M49.1485 43.6534C45.0388 43.6534 41.6719 40.336 41.6719 36.2263C41.6719 32.1167 45.0883 28.2051 49.0989 28.2051C56.9716 28.2051 58.0609 35.3351 70.3404 38.8505C78.3121 41.1282 94.1565 43.6534 94.1565 43.6534H49.1485Z" fill="url(#paint2_linear_150_178)"/>
<path d="M94.1573 43.6534C92.5729 43.0097 86.3837 40.9797 85.3439 34.2458C84.3041 27.4129 88.4137 23.7489 87.1264 15.8762C85.9876 8.94424 80.1945 5.52779 74.4013 4.33946C71.4305 3.74529 68.1626 3.89384 64.8452 5.08217C55.5366 8.4491 52.4172 19.0451 54.1502 26.3236C55.5861 32.3147 61.5278 38.2069 75.7877 40.7321C87.9681 42.8612 88.9584 43.0592 94.1573 43.6534Z" fill="url(#paint3_linear_150_178)"/>
<path d="M85.3438 34.2458C84.304 27.4129 88.4136 23.7489 87.1263 15.8762C86.9703 15.0206 86.7553 14.1769 86.4826 13.351C81.9768 15.1335 76.3323 19.2927 68.4596 29.2945C51.6744 50.5359 42.96 40.1875 42.4648 39.4943C43.7027 41.9205 46.2279 43.6534 49.1492 43.6534H94.2067C92.5728 43.0098 86.3836 40.9797 85.3438 34.2458Z" fill="url(#paint4_linear_150_178)"/>
<path d="M56.082 30.6807C58.1121 34.4437 66.6285 40.5339 94.1581 43.6533C72.3721 40.831 62.2217 36.7213 56.082 30.6807Z" fill="url(#paint5_linear_150_178)"/>
<path d="M28.5518 43.6533C27.7101 43.6533 27.0664 42.9601 27.0664 42.1183C27.0664 41.2766 27.7596 40.4844 28.5518 40.4844C30.1363 40.4844 30.3838 42.2174 32.8595 42.9106C34.444 43.3562 37.6128 43.6037 37.6128 43.6037L28.5518 43.6533Z" fill="url(#paint6_linear_150_178)"/>
<path d="M49.1492 43.6534C47.0201 43.6534 44.99 42.6631 43.6037 41.2272C39.6921 39.7418 39.0484 37.4147 36.1271 37.4147C34.4931 37.4147 33.1562 38.9991 33.1562 40.6331C33.1562 42.267 34.4931 43.6534 36.1271 43.6534H54.1501H49.1492Z" fill="url(#paint7_linear_150_178)"/>
<path d="M102.03 14.8365C101.535 14.4404 100.99 14.0938 100.495 13.7968C99.9502 13.4997 99.356 13.2026 98.6629 13.0045C97.3755 12.5094 96.0386 12.2618 94.7513 12.1133H94.2066C91.8795 12.1133 89.4038 12.2123 86.4825 13.3511C86.7795 14.1433 87.0271 14.9851 87.1261 15.8763C88.0174 21.3228 86.2844 24.8383 85.4922 28.7004C89.3047 25.6305 96.6328 25.5315 100.742 25.7791H101.188C101.634 25.7791 102.03 25.7296 102.376 25.6305C106.387 24.5908 106.635 18.5006 102.03 14.8365Z" fill="url(#paint8_linear_150_178)"/>
<path opacity="0.47" d="M85.5429 28.6505C85.1963 30.334 85.0478 32.166 85.3448 34.2455C86.3846 40.9794 92.4748 42.8609 94.1583 43.6532H94.2078C96.9311 43.6532 99.4563 42.6629 101.585 41.128C101.09 40.6823 98.4165 38.3057 97.6243 35.8795C95.0991 28.2049 100.843 25.9272 101.189 25.7787C98.4165 25.7292 89.3555 25.6301 85.5429 28.6505Z" fill="#E35702"/>
<path d="M85.3447 34.246C86.236 40.0886 91.1378 42.7623 94.1582 43.6536C92.4252 42.8118 87.9689 40.0886 88.0185 35.3848C88.167 26.1752 97.8222 25.8286 97.8222 25.8286C93.7621 25.8286 88.5631 26.2742 85.4933 28.6509C85.0971 30.3839 84.9981 32.1664 85.3447 34.246Z" fill="url(#paint9_linear_150_178)"/>
<path d="M50.9819 43.6533C49.2489 43.6038 44.7927 43.0591 42.416 39.4941C43.7034 42.1184 46.2781 43.6533 49.1994 43.6533H50.9819Z" fill="url(#paint10_linear_150_178)"/>
<path d="M84.7994 34.2458C83.7596 27.4129 88.2159 23.7489 86.9285 15.8762C86.78 14.985 86.4334 13.351 86.4334 13.351C86.7304 14.1432 86.978 14.985 87.077 15.8762C88.3644 23.7489 84.2548 27.4129 85.2945 34.2458C86.3343 40.9797 92.5236 43.0098 94.108 43.6534C94.1575 43.6534 85.9382 41.6729 84.7994 34.2458Z" fill="url(#paint11_linear_150_178)"/>
<path d="M48.3068 43.6535H28.5013C27.9071 43.6535 27.5605 43.2574 27.5605 43.2574C28.1052 43.3069 48.3068 43.6535 48.3068 43.6535Z" fill="#EB7808"/>
<path d="M49.0502 43.6533H37.0679C35.6815 43.6533 34.9883 43.4058 34.9883 43.4058L49.0502 43.6533Z" fill="#E35702"/>
<path d="M85.543 28.6509C89.3555 25.5811 96.9806 25.482 101.239 25.7791C101.239 25.7791 95.2972 25.6306 91.1875 26.5218C87.0284 27.4626 85.543 28.6509 85.543 28.6509Z" fill="#E35702"/>
<defs>
<linearGradient id="paint0_linear_150_178" x1="4.3743" y1="39.41" x2="7.97549" y2="53.5445" gradientUnits="userSpaceOnUse">
<stop stop-color="#FEEC7F"/>
<stop offset="1" stop-color="#F3A21B"/>
</linearGradient>
<linearGradient id="paint1_linear_150_178" x1="75.4905" y1="3.75542" x2="75.4905" y2="45.8768" gradientUnits="userSpaceOnUse">
<stop stop-color="#FEEC7F"/>
<stop offset="0.19" stop-color="#FEE97B"/>
<stop offset="0.39" stop-color="#FCDF6E"/>
<stop offset="0.61" stop-color="#FACF58"/>
<stop offset="0.82" stop-color="#F6B93A"/>
<stop offset="1" stop-color="#F3A21B"/>
</linearGradient>
<linearGradient id="paint2_linear_150_178" x1="25.1691" y1="35.9292" x2="66.2651" y2="35.9292" gradientUnits="userSpaceOnUse">
<stop stop-color="#FEEC7F"/>
<stop offset="0.11" stop-color="#FDE373"/>
<stop offset="0.71" stop-color="#F6B434"/>
<stop offset="1" stop-color="#F3A21B"/>
</linearGradient>
<linearGradient id="paint3_linear_150_178" x1="73.9262" y1="0.269408" x2="73.9262" y2="42.9948" gradientUnits="userSpaceOnUse">
<stop stop-color="#FEEC7F"/>
<stop offset="0.61" stop-color="#F7BC3F"/>
<stop offset="1" stop-color="#F3A21B"/>
</linearGradient>
<linearGradient id="paint4_linear_150_178" x1="68.3358" y1="13.648" x2="68.3358" y2="44.1386" gradientUnits="userSpaceOnUse">
<stop stop-color="#F9C32E"/>
<stop offset="0.52" stop-color="#F19819"/>
<stop offset="1" stop-color="#E96C04"/>
</linearGradient>
<linearGradient id="paint5_linear_150_178" x1="46.4465" y1="37.167" x2="84.5226" y2="37.167" gradientUnits="userSpaceOnUse">
<stop stop-color="#F7B425"/>
<stop offset="0.06" stop-color="#F3A620"/>
<stop offset="0.21" stop-color="#EC8816"/>
<stop offset="0.37" stop-color="#E6720E"/>
<stop offset="0.55" stop-color="#E26208"/>
<stop offset="0.74" stop-color="#E05805"/>
<stop offset="1" stop-color="#DF5504"/>
</linearGradient>
<linearGradient id="paint6_linear_150_178" x1="32.3396" y1="39.3951" x2="32.3396" y2="45.0495" gradientUnits="userSpaceOnUse">
<stop stop-color="#FEEC7F"/>
<stop offset="0.61" stop-color="#F7BD40"/>
<stop offset="1" stop-color="#F3A21B"/>
</linearGradient>
<linearGradient id="paint7_linear_150_178" x1="43.7275" y1="30.5669" x2="43.7275" y2="41.7471" gradientUnits="userSpaceOnUse">
<stop stop-color="#FEEC7F"/>
<stop offset="0.23" stop-color="#FEEA7C"/>
<stop offset="0.42" stop-color="#FCE271"/>
<stop offset="0.6" stop-color="#FBD560"/>
<stop offset="0.78" stop-color="#F8C347"/>
<stop offset="0.94" stop-color="#F4AC28"/>
<stop offset="1" stop-color="#F3A21B"/>
</linearGradient>
<linearGradient id="paint8_linear_150_178" x1="95.4643" y1="13.2966" x2="95.4643" y2="34.8005" gradientUnits="userSpaceOnUse">
<stop stop-color="#F9C32E"/>
<stop offset="0.52" stop-color="#F19819"/>
<stop offset="1" stop-color="#E96C04"/>
</linearGradient>
<linearGradient id="paint9_linear_150_178" x1="94.6681" y1="29.1015" x2="86.2092" y2="35.3431" gradientUnits="userSpaceOnUse">
<stop stop-color="#E66A09"/>
<stop offset="1" stop-color="#E66A09"/>
</linearGradient>
<linearGradient id="paint10_linear_150_178" x1="46.699" y1="38.2959" x2="46.699" y2="43.7325" gradientUnits="userSpaceOnUse">
<stop stop-color="#F7B425"/>
<stop offset="0.06" stop-color="#F3A620"/>
<stop offset="0.21" stop-color="#EC8816"/>
<stop offset="0.37" stop-color="#E6720E"/>
<stop offset="0.55" stop-color="#E26208"/>
<stop offset="0.74" stop-color="#E05805"/>
<stop offset="1" stop-color="#DF5504"/>
</linearGradient>
<linearGradient id="paint11_linear_150_178" x1="89.3745" y1="8.8305" x2="89.3745" y2="33.2406" gradientUnits="userSpaceOnUse">
<stop stop-color="#F7B425"/>
<stop offset="0.35" stop-color="#EF961A"/>
<stop offset="1" stop-color="#DF5504"/>
</linearGradient>
</defs>
</svg>
