<svg width="183" height="20" viewBox="0 0 183 20" fill="none" xmlns="http://www.w3.org/2000/svg">
<g clip-path="url(#clip0_3_6916)">
<path d="M103.504 7.36V13.36H97.6206V19.555H109.576V7.36H103.504Z" fill="black"/>
<path d="M103.504 0.971H91.3585V19.555C94.7125 19.555 97.4315 16.781 97.4315 13.36V7.166H103.504C106.857 7.166 109.576 4.392 109.576 0.971H103.504ZM13.4955 16.593C13.4955 17.962 13.6875 18.855 13.8515 19.553H11.6335C11.4425 18.939 11.3055 18.017 11.3055 16.676V14.973C11.3055 12.319 9.90851 11.23 7.39051 11.23H2.27151V19.553H-0.000488281V0.981H8.48651C12.2365 0.981 14.0715 2.881 14.0715 5.868C14.0715 8.354 12.5655 10.086 10.5395 10.56C12.2645 11.063 13.4965 11.9 13.4965 14.637V16.593H13.4955ZM11.6895 6.063C11.6895 3.913 10.6215 2.853 8.23951 2.853H2.27151V9.499H8.21151C10.7585 9.499 11.6895 8.186 11.6895 6.064V6.063ZM27.5395 15.252H29.5395C29.2635 17.375 27.6765 20 23.1315 20C18.4225 20 16.3415 16.76 16.3415 12.544C16.3415 8.382 18.5865 5.143 23.1315 5.143C27.2385 5.143 29.5655 8.02 29.5655 12.097C29.5655 12.46 29.5655 12.739 29.5105 13.075H18.5055C18.6695 16.901 20.4765 18.297 23.2145 18.297C25.8965 18.297 27.1285 17.012 27.5405 15.252H27.5395ZM18.5595 11.398H27.4295C27.3205 8.187 25.7055 6.846 23.1595 6.846C20.5595 6.846 18.8605 8.103 18.5595 11.399V11.398ZM44.9515 0.004V19.554H42.7615V16.872C41.8305 18.855 40.1055 19.999 37.5865 19.999C33.2885 19.999 31.3175 16.844 31.3175 12.571C31.3175 8.271 33.2895 5.142 37.5875 5.142C40.1055 5.142 41.8295 6.259 42.7615 8.242V0.004H44.9515ZM42.7615 12.571C42.7615 8.633 40.9275 6.958 38.0255 6.958C34.9055 6.958 33.5355 8.801 33.5355 12.571C33.5355 16.314 34.9055 18.184 38.0255 18.184C40.9275 18.184 42.7615 16.509 42.7615 12.571ZM59.8165 5.59V19.552H57.6265V16.006C56.8055 18.491 55.1895 20 52.5345 20C49.0845 20 47.5245 18.158 47.5245 14.5V5.59H49.7145V14.248C49.7145 17.348 51.0565 18.158 53.1645 18.158C56.0115 18.158 57.6275 15.56 57.6275 10.925V5.589H59.8175L59.8165 5.59ZM69.1545 5.143C73.2605 5.143 75.3145 7.461 75.5335 10.7H73.4795C73.1505 8.41 71.7815 6.958 69.2355 6.958C66.3345 6.958 64.5265 8.55 64.5265 12.571C64.5265 16.621 66.2795 18.184 69.1535 18.184C71.9185 18.184 73.3415 16.592 73.6155 14.218H75.6955C75.5345 17.43 73.3165 20 69.1555 20C64.6655 20 62.3105 16.845 62.3105 12.572C62.3105 8.299 64.7205 5.144 69.1555 5.144L69.1545 5.143ZM79.4485 16.285V7.348H76.8475V6.092L79.6395 5.394L80.4605 2.489H81.6385V5.589H86.1555V7.349H81.6395V17.738H85.9915V19.553H82.7615C80.1335 19.553 79.4495 18.52 79.4495 16.285H79.4485ZM131.233 0.977L124.663 19.547H121.378L114.781 0.978H117.162L122.254 15.304C122.555 16.1106 122.82 16.9304 123.048 17.761C123.267 16.951 123.541 16.114 123.814 15.304L128.933 0.977H131.233ZM133.178 0.977H135.997V3.295H133.178V0.977ZM133.478 5.585H135.669V19.548H133.478V5.585ZM151.846 0V19.548H149.655V16.868C148.724 18.85 147 19.995 144.482 19.995C140.184 19.995 138.213 16.839 138.213 12.567C138.213 8.266 140.184 5.138 144.482 5.138C147 5.138 148.725 6.256 149.655 8.238V0H151.846ZM149.656 12.567C149.656 8.629 147.822 6.953 144.921 6.953C141.8 6.953 140.431 8.796 140.431 12.567C140.431 16.308 141.8 18.179 144.921 18.179C147.822 18.18 149.656 16.504 149.656 12.567ZM165.48 15.247H167.479C167.205 17.37 165.618 19.994 161.074 19.994C156.366 19.994 154.285 16.754 154.285 12.538C154.285 8.378 156.53 5.138 161.074 5.138C165.18 5.138 167.507 8.014 167.507 12.091C167.507 12.454 167.507 12.733 167.452 13.068H156.447C156.611 16.894 158.418 18.29 161.155 18.29C163.838 18.291 165.069 17.007 165.48 15.247ZM156.502 11.394H165.371C165.261 8.183 163.646 6.842 161.1 6.842C158.5 6.842 156.802 8.098 156.502 11.394ZM169.23 12.539C169.23 8.378 171.502 5.139 176.129 5.139C180.728 5.139 183 8.406 183 12.539C183 16.727 180.728 19.995 176.129 19.995C171.502 19.995 169.23 16.755 169.23 12.539ZM176.129 18.18C179.222 18.18 180.783 16.477 180.783 12.567C180.783 8.629 179.222 6.954 176.129 6.954C173.036 6.954 171.448 8.629 171.448 12.567C171.448 16.477 173.036 18.18 176.129 18.18Z" fill="black"/>
</g>
<defs>
<clipPath id="clip0_3_6916">
<rect width="183" height="20" fill="white" transform="translate(-0.000488281)"/>
</clipPath>
</defs>
</svg>
