<svg width="160" height="76" viewBox="0 0 160 76" fill="none" xmlns="http://www.w3.org/2000/svg">
<path d="M36.6277 9.1587C36.4251 10.3746 37.2357 11.1853 38.4516 11.1853H58.7172C59.6291 11.0839 60.2371 10.3746 60.2371 9.56401C60.3384 8.65206 59.7304 8.14542 59.0211 7.74011H37.8436C37.2357 8.0441 36.729 8.44941 36.6277 9.1587Z" fill="#83BC57"/>
<path d="M58.3113 41.2797H38.3498C37.3365 41.2797 36.7285 41.989 36.6272 42.9009C36.5259 43.9142 37.1338 44.6235 38.1471 44.7248C38.4511 44.8261 38.6537 44.8261 38.9577 44.8261H58.0073C58.3113 44.8261 58.514 44.8261 58.8179 44.7248C59.9326 44.5222 60.5405 43.7115 60.3379 42.6983C60.0339 41.7863 59.3246 41.2797 58.3113 41.2797Z" fill="#624DC5"/>
<path d="M38.4516 27.9044H58.3118C58.7171 27.9044 59.0211 27.9044 59.4264 27.7017C60.1357 27.2964 60.4397 26.4858 60.237 25.7765C60.0344 24.9659 59.3251 24.4592 58.4132 24.4592H38.4516C37.2357 24.4592 36.5264 25.1685 36.5264 26.1818C36.5264 27.2964 37.2357 27.9044 38.4516 27.9044Z" fill="#415494"/>
<path d="M100.337 9.56415V42.901C100.337 43.3063 100.439 43.7116 100.641 44.0156C101.148 44.7249 101.857 44.7249 102.567 44.7249H121.819C122.123 44.7249 122.325 44.7249 122.629 44.6235C123.339 44.5222 123.947 43.9142 124.048 43.2049C124.251 41.989 123.44 41.1784 122.123 41.1784H104.39C103.884 41.1784 103.782 41.0771 103.782 40.5704V28.4111C103.782 27.9045 103.884 27.8031 104.39 27.8031H122.325C123.237 27.8031 123.947 27.1952 124.048 26.2832C124.149 25.1686 123.339 24.358 122.224 24.358H104.39C103.884 24.358 103.782 24.1553 103.782 23.75V11.692C103.782 11.1854 103.884 10.9827 104.492 10.9827C110.267 11.0841 116.144 10.9827 121.92 10.9827H122.629C123.339 10.8814 123.947 10.3748 124.048 9.56415C124.251 8.55087 123.643 7.94291 122.933 7.5376H101.655C100.844 8.14556 100.337 8.6522 100.337 9.56415ZM68.8497 10.1721C71.9909 21.2168 75.132 32.2616 78.3745 43.3063C78.6785 44.2182 79.2865 44.7249 80.0971 44.7249C81.0091 44.7249 81.5157 44.3196 81.8197 43.4076C85.2648 32.3629 88.71 21.4195 92.1551 10.3748C92.6617 8.95618 92.4591 8.44954 91.1418 7.74025H90.0272C89.4193 8.14556 89.0139 8.6522 88.8113 9.3615C86.2781 17.4677 83.7449 25.4726 81.1104 33.5788C80.7051 34.6934 80.4011 35.7067 79.9958 36.9226C79.8945 36.72 79.8945 36.72 79.8945 36.6186C77.4626 27.7018 74.9294 18.6836 72.2949 9.7668C71.9909 8.95618 71.7882 8.14556 70.9776 7.74025H69.863C68.7484 8.44954 68.5457 9.05751 68.8497 10.1721ZM5.01328 10.0708C5.1146 20.9129 5.01328 31.7549 5.01328 42.597V43.3063C5.1146 44.1169 5.72257 44.6235 6.43186 44.7249C6.73585 44.8262 6.9385 44.8262 7.24249 44.8262H26.3934C26.6974 44.8262 26.9001 44.8262 27.204 44.7249C28.3186 44.5222 28.9266 43.5089 28.6226 42.4957C28.3186 41.685 27.7107 41.2797 26.6974 41.2797H9.16771C8.55975 41.2797 8.45842 41.0771 8.45842 40.5704C8.45842 30.539 8.45842 20.4062 8.55975 10.3748C8.55975 9.26017 8.45842 8.34822 7.44514 7.74025H6.22921C5.31726 8.24689 5.01328 9.05751 5.01328 10.0708ZM132.154 10.0708V43.2049C132.256 43.8129 132.458 44.2182 132.965 44.5222C133.471 44.8262 133.978 44.8262 134.485 44.8262H153.636C153.94 44.8262 154.244 44.8262 154.548 44.7249C155.358 44.6235 155.966 43.9142 155.966 43.2049C156.068 42.0903 155.257 41.2797 154.041 41.2797H136.41C135.903 41.2797 135.701 41.1784 135.701 40.5704C135.701 30.3363 135.701 20.1022 135.802 9.96946C135.802 8.95618 135.498 8.24689 134.586 7.74025H133.471C132.357 8.24689 132.154 9.05751 132.154 10.0708ZM4.20266 65.497C5.01328 68.3342 9.06639 69.1448 11.1943 67.2196C11.7009 66.8143 12.1062 66.2063 12.5115 65.6997V67.2196C12.5115 67.5236 12.6129 67.7263 12.8155 67.8276C13.3221 68.1316 13.9301 68.1316 14.4368 67.9289C14.9434 67.7263 14.9434 67.3209 14.9434 66.9156V62.9638C14.9434 61.4439 15.0447 60.0253 14.8421 58.5054C14.5381 56.5802 13.3221 55.0603 11.4983 54.655C9.4717 54.1483 7.54647 54.5537 5.8239 55.5669C5.01328 55.8709 5.01328 56.1749 5.31726 56.8842C5.72257 57.5935 6.02655 57.6948 6.63452 57.3908C7.24249 57.0868 7.74912 56.8842 8.35709 56.6815C10.5863 56.0736 12.0049 57.0868 12.2075 59.2147C12.3089 59.62 12.1062 59.8227 11.7009 59.8227C11.0929 59.8227 10.5863 59.8227 9.97833 59.924C7.44514 60.1267 5.01328 60.532 4 63.3692V65.2944L4.20266 65.497ZM7.44514 62.3559C8.25576 61.7479 9.16771 61.6466 10.181 61.5453C10.485 61.4439 10.789 61.4439 11.0929 61.4439C12.6129 61.4439 12.5115 61.14 12.3089 62.7612C12.1062 63.7745 11.7009 64.6864 10.8903 65.3957C10.181 66.105 9.26904 66.3077 8.35709 66.2063C7.44514 66.0037 6.83718 65.3957 6.63452 64.5851C6.33054 63.6731 6.63452 62.8625 7.44514 62.3559ZM100.236 55.2629C98.2094 53.8444 94.9669 54.047 92.9404 55.8709C90.6099 57.9988 90.2045 60.7346 91.0152 63.6731C92.5351 68.5369 98.3108 69.4488 101.756 66.8143C102.263 66.409 102.263 65.9024 101.655 65.1931C101.249 64.6864 100.945 64.6864 100.439 64.9904C100.337 65.0917 100.135 65.1931 100.033 65.2944C97.0948 67.1183 93.5484 65.5984 93.0417 62.2546C92.9404 61.7479 93.0417 61.5453 93.6497 61.5453C94.359 61.5453 94.9669 61.6466 95.5749 61.5453H101.452C101.959 61.5453 102.364 61.2413 102.364 60.836C102.567 58.7081 102.06 56.6815 100.236 55.2629ZM99.7293 59.924H93.6497C93.447 59.924 93.2444 60.0254 93.2444 59.62C93.447 57.6948 95.5749 56.0736 97.5001 56.4789C99.1214 56.8842 99.8307 58.2015 99.932 59.62C100.135 60.0254 99.932 59.924 99.7293 59.924ZM71.6869 65.0917C70.775 65.801 69.6604 66.2063 68.5457 66.105C66.6205 66.0037 65.1006 64.7877 64.4926 62.9638C63.8847 60.9373 64.4926 58.7081 66.1139 57.4922C67.6338 56.3775 69.6604 56.3775 71.2816 57.4922C72.0922 57.9988 72.2949 57.9988 72.7002 57.3908C73.3082 56.4789 73.3082 56.1749 72.4975 55.6683C70.8763 54.5537 69.0524 54.1483 67.2285 54.5537C63.986 55.1616 62.0608 57.4922 61.7568 60.836C61.3515 64.9904 64.3913 68.2329 68.5457 68.2329C70.167 68.2329 71.5856 67.7263 72.9028 66.713C73.6121 66.2063 73.6121 65.6997 73.1055 64.8891C72.7002 64.4838 72.3962 64.4838 71.6869 65.0917ZM42.9098 65.0917C41.7952 65.9024 40.5793 66.3077 39.262 66.105C36.9315 65.6997 35.3103 63.6731 35.4116 61.3426C35.5129 58.9107 36.8302 57.2895 38.9581 56.8842C40.2753 56.5802 41.4912 56.9855 42.5045 57.6948C42.8085 57.8975 43.2138 58.1001 43.6191 57.8975C44.5311 57.1882 44.5311 56.3776 43.6191 55.7696C41.2886 54.2497 38.8567 54.1483 36.4249 55.3643C33.993 56.6815 32.9797 58.8094 32.9797 60.7346C32.9797 64.2811 34.3983 66.713 36.6275 67.7263C39.262 68.9422 41.7952 68.6382 44.2271 66.9156C44.9364 66.409 44.9364 65.9024 44.3284 65.0917C43.9231 64.4838 43.5178 64.4838 42.9098 65.0917ZM153.838 61.0386C153.028 60.6333 152.217 60.3293 151.508 60.0253C150.9 59.7214 150.393 59.5187 149.887 59.1134C149.076 58.4041 149.279 57.2895 150.191 56.7829C150.596 56.5802 151.001 56.4789 151.406 56.4789C152.42 56.3775 153.332 56.7829 154.142 57.1882C154.75 57.5935 155.054 57.3908 155.46 56.6815C155.865 55.9722 155.764 55.6683 155.156 55.2629C153.534 54.2497 151.812 54.047 149.988 54.4523C148.265 54.8576 147.252 56.0736 147.049 57.5935C146.847 59.3161 147.556 60.532 149.177 61.3426C149.785 61.6466 150.393 61.8493 151.001 62.1532C151.609 62.4572 152.217 62.6599 152.724 62.9638C153.332 63.3692 153.838 63.7745 153.636 64.5851C153.534 65.3957 153.028 65.801 152.116 66.0037C150.697 66.3077 149.583 65.801 148.468 64.9904C147.86 64.5851 147.455 64.6864 147.049 65.3957C146.644 66.0037 146.644 66.409 147.252 66.8143C148.468 67.7263 149.887 68.1316 151.508 68.1316C151.812 68.1316 152.318 68.0302 152.724 67.9289C154.446 67.5236 155.764 66.3077 155.966 64.7878C156.169 63.2678 155.46 61.9506 153.838 61.0386ZM128 61.6466C127.392 61.14 126.683 60.836 125.872 60.532C125.061 60.228 124.251 59.924 123.541 59.5187C122.933 59.1134 122.528 58.7081 122.629 57.9988C122.731 57.1882 123.237 56.7829 123.947 56.6815C125.163 56.3776 126.277 56.7829 127.29 57.2895C127.898 57.6948 128.202 57.4922 128.608 56.7829C129.013 56.0736 129.013 55.7696 128.304 55.3643C126.885 54.4523 125.467 54.2497 123.845 54.4523C121.92 54.7563 120.502 55.9722 120.198 57.5935C119.894 59.4174 120.704 60.7346 122.629 61.6466L124.757 62.5585C125.365 62.7612 125.872 63.0652 126.277 63.3692C127.088 64.0785 126.987 65.2944 125.973 65.801C125.365 66.2063 124.757 66.2063 124.149 66.2063C123.237 66.105 122.325 65.6997 121.616 65.1931C120.907 64.6864 120.603 64.7877 120.096 65.497C119.59 66.2063 119.691 66.5103 120.4 67.017C121.616 67.9289 123.035 68.3342 124.656 68.3342C125.163 68.4355 125.771 68.2329 126.379 68.0302C127.797 67.5236 128.81 66.6116 129.114 65.0917C129.418 63.6731 129.013 62.5585 128 61.6466Z" fill="#050505"/>
</svg>
