<svg width="208" height="48" viewBox="0 0 208 48" fill="none" xmlns="http://www.w3.org/2000/svg">
<path fill-rule="evenodd" clip-rule="evenodd" d="M43.2947 6.73087C44.4267 5.08645 46.1731 4 47.9838 4C49.9206 4.01073 50.9776 5.41104 50.9776 8.07753C50.9776 18.1238 40.0273 32.2047 30.0051 32.2047C27.5479 32.2047 25.9383 31.3061 24.9404 30.0586C22.6119 31.3999 20.1922 32.2047 17.861 32.2047C13.754 32.2047 11.8601 29.6724 11.8252 26.1635C11.7716 20.801 15.6962 14.4621 19.5833 9.96876C17.2313 11.2785 15.1131 10.9802 13.0643 10.6916C11.1687 10.4246 9.33256 10.166 7.42578 11.1974C9.31779 5.07933 12.6203 5.29477 16.8985 5.57387C19.2927 5.73006 21.9925 5.90619 24.9216 5.00329C25.0994 5.91712 24.0113 7.66271 22.6172 9.89936C20.4345 13.4012 17.5016 18.1067 17.5016 22.7084C17.5016 26.3191 19.5108 28.1165 23.5562 26.6786C22.3034 19.0842 29.0689 8.5604 35.4856 8.55503C37.6961 8.55503 38.6404 9.78097 38.6404 11.7124C38.6404 15.4922 34.8606 21.8982 29.6322 26.6088C30.2841 27.2983 31.2713 27.6336 32.4302 27.6336C42.0902 27.6336 48.641 10.2182 43.2947 6.73087ZM34.5682 12.2275C32.6233 12.2275 28.7899 17.9334 28.7041 23.3602C32.5053 19.8192 35.263 14.8537 35.263 12.9974C35.263 12.6004 35.1423 12.2275 34.5682 12.2275Z" fill="#E42B25"/>
<path fill-rule="evenodd" clip-rule="evenodd" d="M192.332 20.5938C192.433 22.9161 192.543 25.4733 190.864 27.5772L190.866 27.5906C191.147 27.6153 191.428 27.6407 191.709 27.6662C195.092 27.9726 198.437 28.2757 200.575 27.156C200.484 30.5146 197.64 32.5427 193.6 32.5427C190.926 32.5427 188.625 31.8769 186.404 31.2344C186.326 31.2117 186.247 31.1891 186.169 31.1665C184.893 31.8261 183.483 32.1857 182.046 32.2181C180.643 32.2181 179.648 31.5716 179.648 30.3886C179.645 28.4571 181.936 27.2875 186.032 27.3841C188.135 25.5475 187.677 23.4932 187.228 21.4775C187.097 20.8935 186.968 20.3127 186.902 19.7414C181.18 26.4022 174.532 32.2181 168.875 32.2181C167.016 32.2181 165.883 31.2711 165.883 29.4416C165.883 27.4672 167.225 24.4198 170.444 20.4147C166.525 22.7646 162.605 26.3352 159.585 31.8506C158.815 32.0907 158.014 32.2145 157.208 32.2181C152.948 32.2181 155.977 27.5504 158.013 24.4547C153.503 28.4625 148.157 32.2181 142.255 32.2181C139.35 32.2181 137.539 31.0726 136.785 29.4631C133.387 30.8768 129.006 32.2181 125.046 32.2181C122.391 32.2181 120.325 31.4374 119.335 29.9191C115.947 31.4133 113.082 32.2181 110.802 32.2181C108.189 32.2181 106.708 31.145 106.708 29.2002C106.708 26.8475 108.331 24.4305 111.848 20.6937C110.756 20.9948 109.628 21.1455 108.495 21.1417C104.385 26.7 99.0549 30.5844 94.4757 32.6392C90.7764 38.2485 84.8748 44 80.0461 44C78.0744 44 76.5078 42.8679 76.5078 40.9901C76.5078 36.5424 83.1364 34.0878 89.5586 31.8184C90.1757 30.5638 90.7229 29.2759 91.1976 27.9608C88.2092 30.7802 85.4971 32.2181 83.6864 32.2181C82.0768 32.2154 81.0038 31.1182 81.0038 29.1009C81.0051 28.4692 81.0753 27.8396 81.213 27.2231C78.5492 30.0318 75.1423 32.2073 72.3793 32.2073C69.7181 32.2073 68.3634 30.8446 67.8403 29.235C64.7017 31.0404 61.7294 32.2073 59.4116 32.2073C56.5601 32.2073 55.7526 30.6219 56.4313 27.1346C52.9144 30.7668 49.5773 32.2073 47.4983 32.2073C45.6822 32.2047 44.8237 30.7963 44.7862 29.0875C44.6494 23.3173 52.6354 14.2957 62.3357 14.2957C69.0234 14.2957 66.542 18.3572 62.9553 20.1974C60.482 23.7787 59.5672 30.5871 67.6365 26.2654C68.6022 16.4981 79.869 5.49952 84.6977 5.49952C86.7392 5.49952 87.6083 6.48939 87.6351 7.94872C87.7129 11.9806 80.6336 20.0767 73.0204 25.8013C74.0183 29.8923 79.6303 26.8824 84.2417 21.4931C87.772 17.3619 93.4268 14.293 98.5238 14.293C104.755 14.293 103.186 18.0084 100.093 19.8326C98.8135 23.5828 97.8907 26.2413 96.7023 28.7093C100.338 26.6248 103.496 23.7998 105.971 20.4174C105.665 20.1784 105.422 19.8687 105.263 19.5149C105.103 19.1612 105.032 18.774 105.056 18.3867C105.056 16.2379 106.848 13.5982 109.2 13.5982C110.797 13.5982 111.347 14.8752 110.826 16.5008C112.86 16.5008 115.655 15.6987 117.533 14.7303C117.816 14.9006 118.049 15.1441 118.206 15.4353C118.363 15.7266 118.439 16.0548 118.426 16.3855C118.426 17.5619 117.234 18.8618 115.922 20.2934C114.314 22.048 112.524 24.0005 112.524 26.1662C112.524 28.551 115.802 28.162 118.694 27.2714C118.949 20.8278 126.616 14.336 132.665 14.336C135.002 14.336 136.667 15.2212 136.667 17.209C136.667 20.4174 131.361 24.7632 125.001 27.3626C126.329 28.8031 130.634 29.1733 136.413 27.0943C136.775 20.7071 144.364 14.3252 150.362 14.3252C152.696 14.3252 154.364 15.2105 154.364 17.1956C154.364 20.404 149.045 24.7524 142.676 27.3545C143.221 27.9903 144.085 28.4276 145.38 28.4276C150.381 28.4276 158.174 22.4642 164.244 14.3923C165.814 14.3628 167.177 14.741 167.177 16.0474C167.177 16.885 166.402 18.2029 165.43 19.8578C164.963 20.6516 164.451 21.523 163.957 22.4561C168.209 18.4484 173.969 14.0596 176.74 14.0596C177.845 14.0596 178.744 14.5828 178.744 15.3661C178.723 15.7513 178.557 16.1144 178.28 16.3828C175.755 19.0654 172.475 22.8907 172.475 25.5036C172.475 26.3513 172.853 26.8449 173.926 26.8449C177.15 26.8449 182.786 21.4502 188.216 14.4459C188.665 13.8543 189.24 13.3698 189.899 13.0274C190.559 12.6851 191.286 12.4934 192.028 12.4662C193.565 12.4662 194.77 13.2334 194.888 14.5157C192.112 15.4911 192.215 17.8823 192.332 20.5938ZM82.3367 9.94062C82.2496 9.91186 82.1568 9.90402 82.0661 9.91774C79.7993 9.91774 74.3429 18.451 73.125 22.719C77.943 18.7998 82.7314 12.5896 82.7314 10.5857C82.7455 10.495 82.738 10.4023 82.7096 10.315C82.6812 10.2277 82.6326 10.1483 82.5678 10.0833C82.5031 10.0183 82.4239 9.96938 82.3367 9.94062ZM58.7383 17.9896C54.5293 17.9896 49.2742 21.9894 49.2742 25.3694C49.2742 29.0768 55.9806 26.4452 61.0775 18.4349C60.3372 18.1255 59.5405 17.9738 58.7383 17.9896ZM80.1293 40.7675C80.1293 41.2664 80.4324 41.5025 80.9018 41.5025H80.9099C82.7314 41.5025 85.5159 38.726 87.9088 34.8148C82.2753 36.8429 80.1293 39.6784 80.1293 40.7675ZM94.9264 18.0031C90.8113 18.0031 85.4891 21.8821 85.4891 25.3694C85.4891 29.2163 92.4638 26.142 97.2871 18.4349C96.535 18.1415 95.7337 17.9949 94.9264 18.0031ZM131.943 18.4752C131.943 17.8582 131.546 17.5899 130.932 17.5899C128.703 17.5899 124.242 22.1235 124.242 25.0583C128.507 22.998 131.943 20.1008 131.943 18.4752ZM148.621 17.5819C146.389 17.5819 141.931 22.1155 141.931 25.0502C146.196 22.99 149.632 20.0928 149.632 18.4671C149.632 17.8501 149.233 17.5819 148.621 17.5819Z" fill="#E42B25"/>
</svg>
