<svg width="200" height="48" viewBox="0 0 200 48" fill="none" xmlns="http://www.w3.org/2000/svg">
<path fill-rule="evenodd" clip-rule="evenodd" d="M6.88257 4H18.6946V42.1208H6.88257V4Z" fill="#DE3D52"/>
<path fill-rule="evenodd" clip-rule="evenodd" d="M9.10203 14.1777L9.63464 14.1602L11.6232 26.8594V22.2554L12.1293 22.1304L13.3802 24.5097L13.8942 18.2656L14.4257 18.2385L15.5682 24.3764L16.7832 20.7047L18.3666 22.6666L17.9488 23.0039L16.9837 21.808L15.7502 25.5357L15.2314 25.5005L14.2648 20.3081L13.8397 25.473C13.8397 25.473 13.8396 25.4734 13.5721 25.4514C13.3345 25.5763 13.3345 25.5763 13.3345 25.5763L12.1601 23.3428V30.3091L11.6264 30.3506L9.44174 16.3989L8.66864 25.0124H6.88257V24.4755H8.17776L9.10203 14.1777ZM13.5721 25.4514L13.3345 25.5763L13.7639 26.3932L13.8397 25.473L13.5721 25.4514Z" fill="white"/>
<path fill-rule="evenodd" clip-rule="evenodd" d="M5.54077 9.6377H6.87354V10.1746H6.07768V43.4632H20.0374V10.1746H19.2822V9.6377H20.5743V44.0001H5.54077V9.6377Z" fill="#979797"/>
<path fill-rule="evenodd" clip-rule="evenodd" d="M24.3218 11.5496H31.9996L32.0108 14.1046C31.8478 14.134 31.7108 14.134 31.5996 14.1046L31.0774 12.1113H28.7663V19.8312L29.8885 19.9413C29.9181 20.0514 29.9181 20.1873 29.8885 20.3488C29.4218 20.3268 28.8589 20.3157 28.1996 20.3157C27.6885 20.3157 27.1218 20.3231 26.4996 20.3378C26.4551 20.2056 26.4551 20.0735 26.4996 19.9413L27.5329 19.8092C27.5626 19.5302 27.5774 19.1007 27.5774 18.5207V12.1113H25.244L24.7218 14.1046C24.6107 14.134 24.4736 14.134 24.3107 14.1046L24.3218 11.5496ZM39.2786 15.5032V12.0342L38.3786 11.9241C38.349 11.8139 38.349 11.6781 38.3786 11.5166C38.786 11.546 39.2934 11.5607 39.9009 11.5607C40.449 11.5607 40.9601 11.5496 41.4342 11.5276C41.4786 11.6598 41.4786 11.7919 41.4342 11.9241L40.512 12.0562C40.4823 12.3352 40.4675 12.7647 40.4675 13.3447V19.8312L41.3675 19.9413C41.3972 20.0514 41.3972 20.1873 41.3675 20.3488C40.9009 20.3268 40.3935 20.3157 39.8453 20.3157C39.4453 20.3157 38.9342 20.3231 38.3119 20.3378C38.2675 20.2056 38.2675 20.0735 38.3119 19.9413L39.2342 19.8092C39.2638 19.5302 39.2786 19.1007 39.2786 18.5207V16.0538H34.9008V19.8312L35.8008 19.9413C35.8304 20.0514 35.8304 20.1873 35.8008 20.3488C35.3341 20.3268 34.8267 20.3157 34.2786 20.3157C33.8786 20.3157 33.3675 20.3231 32.7452 20.3378C32.7008 20.2056 32.7008 20.0735 32.7452 19.9413L33.6675 19.8092C33.6971 19.5302 33.7119 19.1007 33.7119 18.5207V12.0342L32.8119 11.9241C32.7823 11.8139 32.7823 11.6781 32.8119 11.5166C33.2193 11.546 33.7267 11.5607 34.3341 11.5607C34.8749 11.5607 35.386 11.5496 35.8675 11.5276C35.9119 11.6598 35.9119 11.7919 35.8675 11.9241L34.9452 12.0562C34.9156 12.3352 34.9008 12.7647 34.9008 13.3447V15.5032H39.2786ZM43.3576 18.5317V12.0342L42.4576 11.9131C42.4131 11.7809 42.4131 11.6488 42.4576 11.5166L43.9798 11.5496H48.4687L48.4798 14.1046C48.3169 14.134 48.1798 14.134 48.0687 14.1046L47.5465 12.1113H44.5465V15.4151L46.3243 15.3821L46.5798 14.3028C46.6909 14.2734 46.828 14.2734 46.9909 14.3028C46.9613 14.714 46.9465 15.1875 46.9465 15.7235C46.9465 16.2154 46.9576 16.6926 46.9798 17.1551C46.8465 17.1992 46.7132 17.1992 46.5798 17.1551L46.3354 16.0098L44.5465 15.9767V19.7541H47.8798L48.4021 17.7608C48.5132 17.7314 48.6502 17.7314 48.8132 17.7608L48.8021 20.3157H43.9798L42.3909 20.3488C42.3464 20.2166 42.3464 20.0845 42.3909 19.9523L43.3131 19.8312C43.3428 19.4568 43.3576 19.0236 43.3576 18.5317ZM26.2857 31.2963C26.8227 31.6634 27.5774 31.847 28.5496 31.847C29.207 31.847 29.7001 31.6588 30.0288 31.2826C30.3575 30.9063 30.5219 30.4566 30.5219 29.9335C30.5219 29.6582 30.4987 29.4265 30.4524 29.2383C30.4061 29.0502 30.3066 28.8368 30.1538 28.5982C30.001 28.3596 29.758 28.121 29.4246 27.8824C29.0913 27.6438 28.6561 27.3914 28.1191 27.1253C27.4894 26.8132 26.9802 26.5196 26.5913 26.2442C26.2024 25.9689 25.9107 25.6844 25.7162 25.3908C25.5218 25.0971 25.3922 24.8172 25.3274 24.551C25.2625 24.2849 25.2301 23.9545 25.2301 23.5599C25.2301 22.7523 25.5565 22.126 26.2093 21.6809C26.8621 21.2358 27.6329 21.0132 28.5218 21.0132C29.6237 21.0132 30.6885 21.2885 31.7163 21.8392V24.4822C31.4015 24.5373 31.1376 24.5373 30.9246 24.4822L30.4802 22.1007C29.8876 21.7795 29.2255 21.6189 28.4941 21.6189C28.0033 21.6189 27.589 21.7635 27.251 22.0525C26.913 22.3416 26.744 22.7477 26.744 23.2708C26.744 23.5645 26.7626 23.7939 26.7996 23.9591C26.8366 24.1243 26.9292 24.3193 27.0774 24.5442C27.2255 24.769 27.4709 24.9938 27.8135 25.2187C28.1561 25.4435 28.6144 25.6936 29.1885 25.9689C31.17 26.9234 32.1608 28.0613 32.1608 29.3829C32.1608 30.319 31.7996 31.0761 31.0774 31.6542C30.3552 32.2324 29.4107 32.5215 28.2441 32.5215C27.0866 32.5215 26.0218 32.2508 25.0496 31.7093V29.0663C25.3644 29.0112 25.6283 29.0112 25.8412 29.0663L26.2857 31.2963ZM33.3147 23.4801H40.9925L41.0036 26.035C40.8407 26.0644 40.7036 26.0644 40.5925 26.035L40.0703 24.0417H37.7592V31.7616L38.8814 31.8717C38.911 31.9819 38.911 32.1177 38.8814 32.2792C38.4147 32.2572 37.8518 32.2462 37.1925 32.2462C36.6814 32.2462 36.1147 32.2535 35.4925 32.2682C35.448 32.136 35.448 32.0039 35.4925 31.8717L36.5258 31.7396C36.5554 31.4606 36.5703 31.0311 36.5703 30.4511V24.0417H34.2369L33.7147 26.035C33.6036 26.0644 33.4665 26.0644 33.3036 26.035L33.3147 23.4801ZM48.3826 29.4489V23.9646L47.4826 23.8545V23.447C47.89 23.4764 48.2641 23.4911 48.6048 23.4911C48.8863 23.4911 49.2641 23.4801 49.7382 23.458V23.8545L49.0382 23.9866C49.0085 24.2656 48.9937 24.6951 48.9937 25.2751V29.3829C48.9641 30.4254 48.716 31.2 48.2493 31.7065C47.7826 32.2131 46.9641 32.4664 45.7937 32.4664C43.5863 32.4664 42.4826 31.4716 42.4826 29.482V23.9646L41.5825 23.8545C41.5529 23.7444 41.5529 23.6085 41.5825 23.447C41.99 23.4764 42.4974 23.4911 43.1048 23.4911C43.6455 23.4911 44.1566 23.4801 44.6381 23.458C44.6826 23.5902 44.6826 23.7223 44.6381 23.8545L43.7159 23.9866C43.6863 24.2656 43.6715 24.6951 43.6715 25.2751V29.482C43.6715 30.3043 43.864 30.8898 44.2492 31.2385C44.6344 31.5872 45.2715 31.7616 46.1604 31.7616C46.9974 31.7616 47.5771 31.5799 47.8993 31.2165C48.2215 30.8531 48.3826 30.2639 48.3826 29.4489ZM50.4949 23.4801H58.1727L58.1838 26.035C58.0209 26.0644 57.8838 26.0644 57.7727 26.035L57.2505 24.0417H54.9394V31.7616L56.0616 31.8717C56.0912 31.9819 56.0912 32.1177 56.0616 32.2792C55.5949 32.2572 55.032 32.2462 54.3727 32.2462C53.8616 32.2462 53.2949 32.2535 52.6727 32.2682C52.6282 32.136 52.6282 32.0039 52.6727 31.8717L53.706 31.7396C53.7356 31.4606 53.7505 31.0311 53.7505 30.4511V24.0417H51.4171L50.8949 26.035C50.7838 26.0644 50.6467 26.0644 50.4838 26.035L50.4949 23.4801ZM58.7072 23.4801H66.385L66.3962 26.035C66.2332 26.0644 66.0962 26.0644 65.985 26.035L65.4628 24.0417H63.1517V31.7616L64.2739 31.8717C64.3035 31.9819 64.3035 32.1177 64.2739 32.2792C63.8072 32.2572 63.2443 32.2462 62.585 32.2462C62.0739 32.2462 61.5072 32.2535 60.885 32.2682C60.8405 32.136 60.8405 32.0039 60.885 31.8717L61.9183 31.7396C61.948 31.4606 61.9628 31.0311 61.9628 30.4511V24.0417H59.6294L59.1072 26.035C58.9961 26.0644 58.859 26.0644 58.6961 26.035L58.7072 23.4801ZM68.0973 30.4621V23.9646L67.1973 23.8435C67.1528 23.7113 67.1528 23.5792 67.1973 23.447L68.7195 23.4801H73.2085L73.2196 26.035C73.0566 26.0644 72.9196 26.0644 72.8085 26.035L72.2862 24.0417H69.2862V27.3455L71.064 27.3125L71.3196 26.2332C71.4307 26.2039 71.5677 26.2039 71.7307 26.2332C71.701 26.6444 71.6862 27.1179 71.6862 27.6539C71.6862 28.1458 71.6973 28.623 71.7196 29.0855C71.5862 29.1296 71.4529 29.1296 71.3196 29.0855L71.0751 27.9402L69.2862 27.9072V31.6845H72.6196L73.1418 29.6912C73.2529 29.6619 73.3899 29.6619 73.5529 29.6912L73.5418 32.2462H68.7195L67.1306 32.2792C67.0862 32.1471 67.0862 32.0149 67.1306 31.8828L68.0529 31.7616C68.0825 31.3872 68.0973 30.954 68.0973 30.4621ZM74.6652 23.447C74.9689 23.447 75.4522 23.4323 76.1152 23.403C76.7781 23.3736 77.38 23.3589 77.9207 23.3589C79.0467 23.3589 79.8504 23.581 80.3319 24.0252C80.8134 24.4694 81.0541 25.0879 81.0541 25.8808C81.0541 26.358 80.8874 26.7875 80.5541 27.1693C80.2208 27.5511 79.7837 27.8374 79.243 28.0283C79.5615 28.5643 79.8597 29.0672 80.1374 29.537C80.4152 30.0069 80.6171 30.3557 80.743 30.5833C80.8689 30.8109 80.9837 31.0146 81.0874 31.1945C81.1912 31.3743 81.2671 31.4973 81.3152 31.5634C81.3634 31.6295 81.4097 31.6845 81.4541 31.7286L82.2541 31.8387C82.2838 31.9488 82.2838 32.0847 82.2541 32.2462H80.3652L78.6874 29.2287C78.4652 28.8102 78.2541 28.4872 78.0541 28.2596H77.8985C77.5207 28.2596 77.1393 28.2375 76.7541 28.1935V31.7616L77.7652 31.8717C77.7948 31.9819 77.7948 32.1177 77.7652 32.2792C77.2985 32.2572 76.7726 32.2462 76.1874 32.2462C75.7504 32.2462 75.2207 32.2535 74.5985 32.2682C74.554 32.136 74.554 32.0039 74.5985 31.8717L75.5207 31.7396C75.5504 31.4606 75.5652 31.0311 75.5652 30.4511V23.9646L74.6652 23.8545C74.6355 23.7444 74.6355 23.6085 74.6652 23.447ZM76.7541 25.2751V27.742C76.9837 27.7713 77.317 27.786 77.7541 27.786C78.1319 27.786 78.4559 27.7255 78.7263 27.6043C78.9967 27.4832 79.1985 27.3217 79.3319 27.1198C79.4652 26.9179 79.5615 26.7105 79.6208 26.4975C79.68 26.2846 79.7097 26.0607 79.7097 25.8258C79.7097 25.1944 79.5504 24.7025 79.2319 24.3501C78.9133 23.9977 78.3837 23.8215 77.643 23.8215C77.3689 23.8215 77.0948 23.8472 76.8207 23.8985C76.7763 24.317 76.7541 24.7759 76.7541 25.2751ZM84.6775 25.2751V31.7616L85.5775 31.8717C85.6071 31.9819 85.6071 32.1177 85.5775 32.2792C85.1108 32.2572 84.6034 32.2462 84.0553 32.2462C83.6553 32.2462 83.1441 32.2535 82.5219 32.2682C82.4775 32.136 82.4775 32.0039 82.5219 31.8717L83.4441 31.7396C83.4738 31.4606 83.4886 31.0311 83.4886 30.4511V23.9646L82.5886 23.8545C82.559 23.7444 82.559 23.6085 82.5886 23.447C82.996 23.4764 83.5034 23.4911 84.1108 23.4911C84.6516 23.4911 85.1627 23.4801 85.6442 23.458C85.6886 23.5902 85.6886 23.7223 85.6442 23.8545L84.7219 23.9866C84.6923 24.2656 84.6775 24.6951 84.6775 25.2751ZM93.8343 29.2948V25.3082C93.8343 24.7282 93.8195 24.2987 93.7898 24.0197L92.7565 23.8875C92.712 23.7554 92.712 23.6232 92.7565 23.4911C93.2231 23.5131 93.675 23.5241 94.112 23.5241C94.5935 23.5241 95.0417 23.5094 95.4565 23.4801C95.4861 23.6416 95.4861 23.7774 95.4565 23.8875L94.4454 23.9977V32.2462H93.8565L88.9564 25.6716C88.7268 25.3706 88.4564 24.9778 88.1453 24.4932C88.1824 24.831 88.2009 25.2384 88.2009 25.7156V30.4511C88.2009 31.0311 88.2157 31.4606 88.2453 31.7396L89.2787 31.8717C89.3231 32.0039 89.3231 32.136 89.2787 32.2682C88.6416 32.2535 88.1898 32.2462 87.9231 32.2462C87.4861 32.2462 87.0379 32.2572 86.5786 32.2792C86.549 32.1177 86.549 31.9819 86.5786 31.8717L87.5898 31.7616V25.2751C87.5898 24.6951 87.5749 24.2656 87.5453 23.9866L86.6231 23.8545C86.5786 23.7297 86.5786 23.6049 86.6231 23.4801H88.8009L93.2565 29.493C93.3157 29.5738 93.3806 29.6692 93.4509 29.7793C93.5213 29.8895 93.5991 30.0216 93.6843 30.1758C93.7695 30.33 93.838 30.4474 93.8898 30.5282C93.8528 30.0877 93.8343 29.6765 93.8343 29.2948ZM103.335 32.4444L103.047 31.5414C102.187 32.1581 101.358 32.4664 100.558 32.4664C99.8317 32.4664 99.1984 32.3361 98.6577 32.0755C98.1169 31.8148 97.6688 31.4698 97.3132 31.0403C96.9576 30.6108 96.6928 30.1226 96.5187 29.5756C96.3447 29.0286 96.2576 28.4688 96.2576 27.8962C96.2576 27.3162 96.3595 26.749 96.5632 26.1947C96.7669 25.6404 97.0669 25.1467 97.4632 24.7135C97.8595 24.2803 98.3428 23.9297 98.9132 23.6618C99.4836 23.3938 100.135 23.2598 100.869 23.2598C101.891 23.2598 102.832 23.4801 103.691 23.9206V26.035C103.558 26.057 103.439 26.068 103.335 26.068C103.224 26.068 103.132 26.057 103.058 26.035L102.702 24.1959C102.228 23.9022 101.573 23.7554 100.735 23.7554C100.269 23.7554 99.8466 23.86 99.4688 24.0692C99.091 24.2785 98.7651 24.5611 98.491 24.9172C98.2169 25.2733 98.0058 25.6918 97.8577 26.1727C97.7095 26.6536 97.6354 27.1656 97.6354 27.7089C97.6354 28.2889 97.7039 28.8249 97.841 29.3168C97.978 29.8087 98.1725 30.2345 98.4243 30.5943C98.6762 30.954 98.9817 31.2348 99.341 31.4367C99.7003 31.6386 100.102 31.7396 100.547 31.7396C101.265 31.7396 101.973 31.545 102.669 31.1559V28.8102L101.769 28.7001C101.754 28.6634 101.747 28.6046 101.747 28.5239V28.4138C101.747 28.377 101.754 28.3367 101.769 28.2926C101.976 28.3073 102.204 28.3183 102.452 28.3257C102.7 28.333 102.98 28.3367 103.291 28.3367C103.832 28.3367 104.343 28.3256 104.824 28.3036C104.847 28.3697 104.858 28.4358 104.858 28.5019C104.858 28.5679 104.847 28.634 104.824 28.7001L103.902 28.8322C103.887 28.9717 103.876 29.1479 103.869 29.3608C103.861 29.5738 103.858 29.827 103.858 30.1207V31.233L103.747 32.4444C103.717 32.4591 103.687 32.4664 103.658 32.4664H103.447C103.41 32.4664 103.373 32.4591 103.335 32.4444ZM109.507 30.0023V21.8942L108.382 21.7428C108.327 21.5776 108.327 21.4124 108.382 21.2472L110.285 21.2885H115.896L115.91 24.4822C115.706 24.5189 115.535 24.5189 115.396 24.4822L114.743 21.9906H110.993V26.0515L113.216 26.0102L113.535 24.6612C113.674 24.6245 113.845 24.6245 114.049 24.6612C114.012 25.1751 113.993 25.767 113.993 26.437C113.993 27.0519 114.007 27.6484 114.035 28.2265C113.868 28.2816 113.702 28.2816 113.535 28.2265L113.229 26.7949L110.993 26.7536V31.6405L112.257 31.7781C112.294 31.9158 112.294 32.0856 112.257 32.2875C111.674 32.2599 111.017 32.2462 110.285 32.2462C109.739 32.2462 109.077 32.2553 108.299 32.2737C108.243 32.1085 108.243 31.9433 108.299 31.7781L109.452 31.6129C109.489 31.2642 109.507 30.7273 109.507 30.0023ZM121.245 23.2598C121.971 23.2598 122.622 23.3883 123.2 23.6453C123.778 23.9022 124.245 24.2454 124.6 24.6749C124.956 25.1044 125.228 25.5816 125.417 26.1066C125.606 26.6315 125.7 27.1803 125.7 27.753C125.7 29.0745 125.282 30.1905 124.445 31.1008C123.608 32.0112 122.541 32.4664 121.245 32.4664C120.526 32.4664 119.878 32.3379 119.3 32.081C118.722 31.824 118.256 31.4808 117.9 31.0513C117.545 30.6218 117.272 30.1464 117.083 29.6251C116.895 29.1039 116.8 28.5606 116.8 27.9953C116.8 27.151 116.987 26.3691 117.361 25.6496C117.735 24.9301 118.265 24.3519 118.95 23.9151C119.635 23.4782 120.4 23.2598 121.245 23.2598ZM121.233 31.8607C121.93 31.8607 122.521 31.6607 123.006 31.2605C123.491 30.8604 123.839 30.3557 124.05 29.7463C124.261 29.1369 124.367 28.4578 124.367 27.7089C124.367 26.9968 124.261 26.3599 124.05 25.7982C123.839 25.2366 123.493 24.7741 123.011 24.4106C122.53 24.0472 121.937 23.8655 121.233 23.8655C120.219 23.8655 119.448 24.2326 118.922 24.9668C118.396 25.701 118.133 26.6187 118.133 27.72C118.133 28.4762 118.237 29.1571 118.445 29.7628C118.652 30.3685 118.996 30.8696 119.478 31.266C119.959 31.6625 120.545 31.8607 121.233 31.8607ZM133.301 29.4489V23.9646L132.401 23.8545V23.447C132.809 23.4764 133.183 23.4911 133.524 23.4911C133.805 23.4911 134.183 23.4801 134.657 23.458V23.8545L133.957 23.9866C133.927 24.2656 133.913 24.6951 133.913 25.2751V29.3829C133.883 30.4254 133.635 31.2 133.168 31.7065C132.701 32.2131 131.883 32.4664 130.712 32.4664C128.505 32.4664 127.401 31.4716 127.401 29.482V23.9646L126.501 23.8545C126.472 23.7444 126.472 23.6085 126.501 23.447C126.909 23.4764 127.416 23.4911 128.024 23.4911C128.564 23.4911 129.075 23.4801 129.557 23.458C129.601 23.5902 129.601 23.7223 129.557 23.8545L128.635 23.9866C128.605 24.2656 128.59 24.6951 128.59 25.2751V29.482C128.59 30.3043 128.783 30.8898 129.168 31.2385C129.553 31.5872 130.19 31.7616 131.079 31.7616C131.916 31.7616 132.496 31.5799 132.818 31.2165C133.14 30.8531 133.301 30.2639 133.301 29.4489ZM142.858 29.2948V25.3082C142.858 24.7282 142.843 24.2987 142.814 24.0197L141.78 23.8875C141.736 23.7554 141.736 23.6232 141.78 23.4911C142.247 23.5131 142.699 23.5241 143.136 23.5241C143.617 23.5241 144.066 23.5094 144.48 23.4801C144.51 23.6416 144.51 23.7774 144.48 23.8875L143.469 23.9977V32.2462H142.88L137.98 25.6716C137.751 25.3706 137.48 24.9778 137.169 24.4932C137.206 24.831 137.225 25.2384 137.225 25.7156V30.4511C137.225 31.0311 137.24 31.4606 137.269 31.7396L138.303 31.8717C138.347 32.0039 138.347 32.136 138.303 32.2682C137.666 32.2535 137.214 32.2462 136.947 32.2462C136.51 32.2462 136.062 32.2572 135.603 32.2792C135.573 32.1177 135.573 31.9819 135.603 31.8717L136.614 31.7616V25.2751C136.614 24.6951 136.599 24.2656 136.569 23.9866L135.647 23.8545C135.603 23.7297 135.603 23.6049 135.647 23.4801H137.825L142.28 29.493C142.34 29.5738 142.404 29.6692 142.475 29.7793C142.545 29.8895 142.623 30.0216 142.708 30.1758C142.793 30.33 142.862 30.4474 142.914 30.5282C142.877 30.0877 142.858 29.6765 142.858 29.2948ZM145.326 32.2682C145.282 32.136 145.282 32.0039 145.326 31.8717L146.248 31.7396C146.278 31.4606 146.293 31.0311 146.293 30.4511V23.9646L145.393 23.8545C145.363 23.7444 145.363 23.6085 145.393 23.447C145.504 23.4544 145.678 23.458 145.915 23.458C146.389 23.458 147.002 23.4378 147.754 23.3975C148.506 23.3571 148.937 23.3369 149.048 23.3369C150.5 23.3369 151.6 23.726 152.348 24.5042C153.096 25.2825 153.471 26.3287 153.471 27.6429C153.471 28.9791 153.119 30.0877 152.415 30.9687C151.711 31.8497 150.726 32.2902 149.459 32.2902C149.037 32.2902 148.478 32.2847 147.782 32.2737C147.085 32.2627 146.585 32.2572 146.282 32.2572C145.852 32.2572 145.533 32.2609 145.326 32.2682ZM149.037 31.7616C151.126 31.7616 152.171 30.4107 152.171 27.7089C152.171 26.5416 151.898 25.6202 151.354 24.9448C150.809 24.2693 150.026 23.9096 149.004 23.8655C148.915 23.8582 148.778 23.8545 148.593 23.8545C148.2 23.8545 147.845 23.8839 147.526 23.9426C147.496 24.2216 147.482 24.6658 147.482 25.2751V31.7286C147.57 31.7286 147.783 31.7341 148.12 31.7451C148.458 31.7561 148.763 31.7616 149.037 31.7616ZM155.083 31.7616L155.983 31.8717C156.012 31.9819 156.012 32.1177 155.983 32.2792C155.516 32.2572 155.124 32.2462 154.805 32.2462C154.627 32.2462 154.227 32.2535 153.605 32.2682C153.561 32.136 153.561 32.0039 153.605 31.8717L154.338 31.7396C154.457 31.5634 154.605 31.2367 154.783 30.7595L157.649 23.1607H158.038L161.261 31.7616L162.161 31.8717C162.19 31.9819 162.19 32.1177 162.161 32.2792C161.694 32.2572 161.172 32.2462 160.594 32.2462C160.164 32.2462 159.638 32.2535 159.016 32.2682C158.972 32.136 158.972 32.0039 159.016 31.8717L159.938 31.7396L158.961 29.0194H156.072L155.083 31.7616ZM157.549 24.8236H157.538C157.449 25.1687 157.305 25.6202 157.105 26.1782L156.272 28.4688H158.761L157.949 26.1782C157.794 25.7303 157.661 25.2788 157.549 24.8236ZM161.506 23.4801H169.184L169.195 26.035C169.032 26.0644 168.895 26.0644 168.784 26.035L168.262 24.0417H165.951V31.7616L167.073 31.8717C167.103 31.9819 167.103 32.1177 167.073 32.2792C166.606 32.2572 166.043 32.2462 165.384 32.2462C164.873 32.2462 164.306 32.2535 163.684 32.2682C163.64 32.136 163.64 32.0039 163.684 31.8717L164.717 31.7396C164.747 31.4606 164.762 31.0311 164.762 30.4511V24.0417H162.428L161.906 26.035C161.795 26.0644 161.658 26.0644 161.495 26.035L161.506 23.4801ZM172.085 25.2751V31.7616L172.985 31.8717C173.015 31.9819 173.015 32.1177 172.985 32.2792C172.519 32.2572 172.011 32.2462 171.463 32.2462C171.063 32.2462 170.552 32.2535 169.93 32.2682C169.885 32.136 169.885 32.0039 169.93 31.8717L170.852 31.7396C170.881 31.4606 170.896 31.0311 170.896 30.4511V23.9646L169.996 23.8545C169.967 23.7444 169.967 23.6085 169.996 23.447C170.404 23.4764 170.911 23.4911 171.519 23.4911C172.059 23.4911 172.57 23.4801 173.052 23.458C173.096 23.5902 173.096 23.7223 173.052 23.8545L172.13 23.9866C172.1 24.2656 172.085 24.6951 172.085 25.2751ZM178.409 23.2598C179.135 23.2598 179.786 23.3883 180.364 23.6453C180.942 23.9022 181.409 24.2454 181.764 24.6749C182.12 25.1044 182.392 25.5816 182.581 26.1066C182.77 26.6315 182.864 27.1803 182.864 27.753C182.864 29.0745 182.446 30.1905 181.609 31.1008C180.772 32.0112 179.705 32.4664 178.409 32.4664C177.69 32.4664 177.042 32.3379 176.464 32.081C175.886 31.824 175.42 31.4808 175.064 31.0513C174.709 30.6218 174.436 30.1464 174.247 29.6251C174.059 29.1039 173.964 28.5606 173.964 27.9953C173.964 27.151 174.151 26.3691 174.525 25.6496C174.899 24.9301 175.429 24.3519 176.114 23.9151C176.799 23.4782 177.564 23.2598 178.409 23.2598ZM178.397 31.8607C179.094 31.8607 179.685 31.6607 180.17 31.2605C180.655 30.8604 181.003 30.3557 181.214 29.7463C181.425 29.1369 181.531 28.4578 181.531 27.7089C181.531 26.9968 181.425 26.3599 181.214 25.7982C181.003 25.2366 180.657 24.7741 180.175 24.4106C179.694 24.0472 179.101 23.8655 178.397 23.8655C177.383 23.8655 176.612 24.2326 176.086 24.9668C175.56 25.701 175.297 26.6187 175.297 27.72C175.297 28.4762 175.401 29.1571 175.609 29.7628C175.816 30.3685 176.16 30.8696 176.642 31.266C177.123 31.6625 177.709 31.8607 178.397 31.8607ZM191.01 29.2948V25.3082C191.01 24.7282 190.995 24.2987 190.965 24.0197L189.932 23.8875C189.888 23.7554 189.888 23.6232 189.932 23.4911C190.399 23.5131 190.851 23.5241 191.288 23.5241C191.769 23.5241 192.217 23.5094 192.632 23.4801C192.662 23.6416 192.662 23.7774 192.632 23.8875L191.621 23.9977V32.2462H191.032L186.132 25.6716C185.902 25.3706 185.632 24.9778 185.321 24.4932C185.358 24.831 185.376 25.2384 185.376 25.7156V30.4511C185.376 31.0311 185.391 31.4606 185.421 31.7396L186.454 31.8717C186.499 32.0039 186.499 32.136 186.454 32.2682C185.817 32.2535 185.365 32.2462 185.099 32.2462C184.662 32.2462 184.214 32.2572 183.754 32.2792C183.725 32.1177 183.725 31.9819 183.754 31.8717L184.765 31.7616V25.2751C184.765 24.6951 184.751 24.2656 184.721 23.9866L183.799 23.8545C183.754 23.7297 183.754 23.6049 183.799 23.4801H185.976L190.432 29.493C190.491 29.5738 190.556 29.6692 190.627 29.7793C190.697 29.8895 190.775 30.0216 190.86 30.1758C190.945 30.33 191.014 30.4474 191.065 30.5282C191.028 30.0877 191.01 29.6765 191.01 29.2948ZM24.0637 41.9743L24.3992 40.481H24.501C24.4871 40.6255 24.4801 40.7453 24.4801 40.8403C24.4801 41.1114 24.5674 41.3321 24.7422 41.5023C24.9169 41.6725 25.145 41.7576 25.4266 41.7576C25.6882 41.7576 25.8868 41.6779 26.0226 41.5186C26.1584 41.3593 26.2263 41.1757 26.2263 40.9679C26.2263 40.8333 26.1954 40.7106 26.1335 40.5998C26.0396 40.4355 25.789 40.1466 25.3816 39.7329C25.184 39.535 25.0572 39.3876 25.0012 39.2906C24.9094 39.1303 24.8635 38.9621 24.8635 38.7859C24.8635 38.5049 24.9693 38.2644 25.181 38.0645C25.3926 37.8646 25.6642 37.7647 25.9957 37.7647C26.1075 37.7647 26.2133 37.7756 26.3132 37.7973C26.3751 37.8092 26.4879 37.8488 26.6516 37.9161C26.7675 37.9616 26.8314 37.9863 26.8433 37.9903C26.8713 37.9962 26.9022 37.9992 26.9362 37.9992C26.9941 37.9992 27.044 37.9844 27.086 37.9547C27.1279 37.925 27.1768 37.8617 27.2327 37.7647H27.3465L27.035 39.1006H26.9332C26.9412 38.9818 26.9452 38.8859 26.9452 38.8126C26.9452 38.5732 26.8653 38.3772 26.7056 38.2248C26.5458 38.0724 26.3351 37.9962 26.0736 37.9962C25.8659 37.9962 25.6971 38.0566 25.5673 38.1773C25.4376 38.2981 25.3727 38.4376 25.3727 38.5959C25.3727 38.7345 25.4141 38.8666 25.497 38.9922C25.5798 39.1179 25.7705 39.3228 26.0691 39.6068C26.3676 39.8908 26.5608 40.1124 26.6486 40.2718C26.7365 40.4311 26.7804 40.6008 26.7804 40.7809C26.7804 40.9847 26.726 41.1822 26.6172 41.3731C26.5084 41.5641 26.3521 41.7121 26.1484 41.817C25.9448 41.9219 25.7221 41.9743 25.4805 41.9743C25.3607 41.9743 25.2489 41.9634 25.145 41.9417C25.0412 41.9199 24.8754 41.8664 24.6478 41.7813C24.5699 41.7517 24.505 41.7368 24.4531 41.7368C24.3353 41.7368 24.2434 41.816 24.1775 41.9743H24.0637ZM28.3841 38.017C28.468 38.017 28.5389 38.0457 28.5968 38.1031C28.6547 38.1605 28.6837 38.2308 28.6837 38.3139C28.6837 38.395 28.6542 38.4648 28.5953 38.5232C28.5364 38.5816 28.466 38.6108 28.3841 38.6108C28.3023 38.6108 28.2319 38.5816 28.173 38.5232C28.1141 38.4648 28.0846 38.395 28.0846 38.3139C28.0846 38.2308 28.1136 38.1605 28.1715 38.1031C28.2294 38.0457 28.3003 38.017 28.3841 38.017ZM28.4231 39.1956L27.83 41.2767C27.7901 41.4172 27.7701 41.5013 27.7701 41.529C27.7701 41.5607 27.7796 41.5864 27.7986 41.6062C27.8175 41.626 27.84 41.6359 27.8659 41.6359C27.8959 41.6359 27.9318 41.62 27.9738 41.5884C28.0876 41.4993 28.2024 41.3727 28.3182 41.2084L28.4231 41.2767C28.2873 41.4825 28.1275 41.6557 27.9438 41.7962C27.808 41.9011 27.6782 41.9535 27.5544 41.9535C27.4726 41.9535 27.4057 41.9293 27.3538 41.8808C27.3018 41.8323 27.2759 41.7714 27.2759 41.6982C27.2759 41.625 27.3008 41.5033 27.3508 41.3331L27.7401 40.0031C27.804 39.7854 27.836 39.6488 27.836 39.5934C27.836 39.5499 27.8205 39.5142 27.7896 39.4865C27.7586 39.4588 27.7162 39.445 27.6623 39.445C27.6183 39.445 27.5275 39.4559 27.3897 39.4776V39.3618L28.4231 39.1956ZM29.9938 39.1956L29.5954 40.5464C29.9689 39.9942 30.2549 39.631 30.4536 39.4568C30.6523 39.2827 30.8435 39.1956 31.0272 39.1956C31.127 39.1956 31.2094 39.2282 31.2743 39.2936C31.3392 39.3589 31.3716 39.444 31.3716 39.5489C31.3716 39.6676 31.3427 39.826 31.2848 40.0239L30.9194 41.2737C30.8774 41.4182 30.8564 41.5062 30.8564 41.5379C30.8564 41.5656 30.8644 41.5889 30.8804 41.6077C30.8964 41.6265 30.9134 41.6359 30.9313 41.6359C30.9553 41.6359 30.9842 41.623 31.0182 41.5973C31.124 41.5142 31.2398 41.3875 31.3656 41.2173L31.4585 41.2737C31.2728 41.5369 31.0971 41.7249 30.9313 41.8378C30.8155 41.9149 30.7117 41.9535 30.6198 41.9535C30.5459 41.9535 30.487 41.9313 30.4431 41.8867C30.3992 41.8422 30.3772 41.7823 30.3772 41.7071C30.3772 41.6121 30.4112 41.4489 30.479 41.2173L30.8265 40.0239C30.8704 39.8754 30.8924 39.7597 30.8924 39.6765C30.8924 39.6369 30.8794 39.6048 30.8535 39.58C30.8275 39.5553 30.7955 39.5429 30.7576 39.5429C30.7017 39.5429 30.6348 39.5667 30.5569 39.6142C30.4092 39.7032 30.2554 39.8502 30.0957 40.055C29.9359 40.2599 29.7672 40.5216 29.5894 40.8403C29.4956 41.0085 29.4177 41.1926 29.3558 41.3924L29.2061 41.8823H28.7568L29.3019 40.0239C29.3658 39.8002 29.3977 39.6656 29.3977 39.6201C29.3977 39.5766 29.3803 39.5385 29.3453 39.5058C29.3104 39.4732 29.267 39.4568 29.215 39.4568C29.1911 39.4568 29.1491 39.4608 29.0892 39.4687L28.9754 39.4865L28.9574 39.3797L29.9938 39.1956ZM33.9997 41.2351C33.792 41.4825 33.5824 41.6641 33.3707 41.7799C33.159 41.8956 32.9354 41.9535 32.6998 41.9535C32.4162 41.9535 32.1951 41.8744 32.0363 41.716C31.8776 41.5577 31.7982 41.3449 31.7982 41.0778C31.7982 40.7749 31.8836 40.4771 32.0543 40.1842C32.225 39.8913 32.4546 39.6533 32.7432 39.4702C33.0317 39.2871 33.3148 39.1956 33.5924 39.1956C33.81 39.1956 33.9728 39.2406 34.0806 39.3307C34.1884 39.4207 34.2423 39.5311 34.2423 39.6617C34.2423 39.7844 34.2044 39.8893 34.1285 39.9764C34.0726 40.0437 34.0037 40.0773 33.9218 40.0773C33.8599 40.0773 33.8085 40.0575 33.7676 40.0179C33.7266 39.9783 33.7062 39.9289 33.7062 39.8695C33.7062 39.8319 33.7137 39.7973 33.7286 39.7656C33.7436 39.7339 33.7746 39.6958 33.8215 39.6513C33.8684 39.6068 33.8969 39.5746 33.9069 39.5548C33.9168 39.535 33.9218 39.5142 33.9218 39.4925C33.9218 39.4509 33.9029 39.4163 33.8649 39.3886C33.807 39.349 33.7251 39.3292 33.6193 39.3292C33.4236 39.3292 33.2299 39.3975 33.0382 39.534C32.8465 39.6706 32.6828 39.8645 32.547 40.1159C32.3833 40.4207 32.3014 40.7255 32.3014 41.0303C32.3014 41.2321 32.3593 41.3919 32.4751 41.5097C32.5909 41.6275 32.7487 41.6863 32.9484 41.6863C33.1021 41.6863 33.2544 41.6483 33.4052 41.5721C33.5559 41.4959 33.7251 41.3578 33.9129 41.1579L33.9997 41.2351ZM35.0073 40.7631C34.9934 40.862 34.9864 40.9442 34.9864 41.0095C34.9864 41.1856 35.0493 41.3355 35.1751 41.4592C35.3009 41.5829 35.4536 41.6448 35.6334 41.6448C35.7771 41.6448 35.9154 41.6156 36.0482 41.5572C36.181 41.4988 36.3782 41.3697 36.6398 41.1698L36.7027 41.2559C36.2294 41.721 35.7781 41.9535 35.3488 41.9535C35.0573 41.9535 34.8376 41.8625 34.6898 41.6804C34.5421 41.4983 34.4682 41.2974 34.4682 41.0778C34.4682 40.7829 34.5601 40.4811 34.7438 40.1723C34.9275 39.8636 35.1581 39.6236 35.4357 39.4524C35.7132 39.2812 35.9988 39.1956 36.2923 39.1956C36.504 39.1956 36.6607 39.2381 36.7626 39.3233C36.8644 39.4084 36.9153 39.5093 36.9153 39.6261C36.9153 39.7903 36.8494 39.9477 36.7176 40.0981C36.5439 40.294 36.2883 40.4524 35.9509 40.5731C35.7272 40.6542 35.4127 40.7176 35.0073 40.7631ZM35.0283 40.6176C35.3238 40.584 35.5645 40.5266 35.7502 40.4454C35.9958 40.3366 36.18 40.2064 36.3028 40.055C36.4256 39.9036 36.487 39.7597 36.487 39.6231C36.487 39.54 36.4606 39.4727 36.4076 39.4212C36.3547 39.3698 36.2793 39.344 36.1815 39.344C35.9778 39.344 35.7617 39.4514 35.533 39.6661C35.3044 39.8809 35.1361 40.198 35.0283 40.6176ZM40.9404 37.7736L39.976 41.1015C39.92 41.2974 39.8921 41.439 39.8921 41.526C39.8921 41.5993 39.9175 41.6552 39.9685 41.6938C40.0194 41.7324 40.1387 41.7586 40.3264 41.7724L40.2964 41.8823H38.7539L38.7958 41.7724C38.9596 41.7685 39.0674 41.7556 39.1193 41.7338C39.2032 41.6982 39.2661 41.6507 39.308 41.5913C39.3739 41.5003 39.4408 41.337 39.5087 41.1015L40.2036 38.7117C40.2455 38.5672 40.2685 38.4841 40.2725 38.4623C40.2785 38.4227 40.2815 38.3841 40.2815 38.3465C40.2815 38.2773 40.2625 38.2228 40.2246 38.1833C40.1866 38.1437 40.1347 38.1239 40.0688 38.1239C40.0169 38.1239 39.936 38.1358 39.8262 38.1595L39.7873 38.0526L40.7967 37.7736H40.9404ZM41.5467 41.9535V41.8585C41.7524 41.815 41.9311 41.7517 42.0828 41.6685C42.3524 41.5221 42.5945 41.341 42.8092 41.1253C43.0239 40.9095 43.2151 40.6592 43.3828 40.3742C43.261 40.4335 43.1661 40.4721 43.0982 40.49C43.0304 40.5078 42.9545 40.5167 42.8706 40.5167C42.5691 40.5167 42.3384 40.4147 42.1787 40.2109C42.019 40.007 41.9391 39.7695 41.9391 39.4984C41.9391 39.0254 42.0943 38.6197 42.4048 38.2812C42.7154 37.9428 43.0453 37.7736 43.3948 37.7736C43.7123 37.7736 43.9559 37.8918 44.1256 38.1283C44.2954 38.3649 44.3802 38.6414 44.3802 38.9581C44.3802 39.3599 44.2864 39.7567 44.0987 40.1486C43.911 40.5404 43.6564 40.8779 43.3349 41.1609C43.0134 41.4439 42.6759 41.6537 42.3225 41.7903C42.1128 41.8714 41.8542 41.9258 41.5467 41.9535ZM43.5326 40.1278C43.8141 39.5617 43.9549 39.0561 43.9549 38.6108C43.9549 38.395 43.9015 38.2278 43.7946 38.109C43.6878 37.9903 43.5635 37.9309 43.4217 37.9309C43.1861 37.9309 42.971 38.0942 42.7763 38.4208C42.5816 38.7473 42.4842 39.1352 42.4842 39.5845C42.4842 39.822 42.5396 40.0016 42.6505 40.1233C42.7613 40.245 42.9006 40.3059 43.0683 40.3059C43.1442 40.3059 43.2141 40.2945 43.278 40.2718C43.3419 40.249 43.4267 40.201 43.5326 40.1278ZM47.3468 37.8567L46.571 40.5048H47.0562L46.9484 40.8729H46.4572L46.1427 41.9535H45.7024L46.0199 40.8729H44.5522L44.678 40.4573L47.1191 37.8567H47.3468ZM46.6818 38.6226L44.9356 40.5048H46.1367L46.6818 38.6226ZM48.5401 37.8567H50.5619V37.9576L48.2855 41.9535L48.0459 41.8437L50.0377 38.3287H49.0733C48.8077 38.3287 48.6265 38.352 48.5296 38.3985C48.4328 38.445 48.3205 38.5583 48.1927 38.7384H48.0698L48.5401 37.8567ZM52.1776 40.3653L52.0548 40.7601H50.5032L50.626 40.3653H52.1776ZM55.4676 37.7647L55.1591 41.1134C55.1431 41.2697 55.1351 41.3727 55.1351 41.4221C55.1351 41.5013 55.1501 41.5617 55.1801 41.6032C55.218 41.6606 55.2694 41.7032 55.3343 41.7309C55.3992 41.7586 55.5086 41.7724 55.6623 41.7724L55.6294 41.8823H54.0299L54.0628 41.7724H54.1317C54.2615 41.7724 54.3674 41.7447 54.4492 41.6893C54.5071 41.6517 54.5521 41.5894 54.584 41.5023C54.606 41.4409 54.627 41.2965 54.6469 41.0689L54.6948 40.5582H53.5327L53.1193 41.1134C53.0255 41.2381 52.9666 41.3276 52.9426 41.3821C52.9186 41.4365 52.9067 41.4874 52.9067 41.5349C52.9067 41.5983 52.9326 41.6527 52.9845 41.6982C53.0365 41.7437 53.1223 41.7685 53.2421 41.7724L53.2092 41.8823H52.0081L52.041 41.7724C52.1888 41.7665 52.3191 41.7175 52.4319 41.6255C52.5447 41.5335 52.713 41.337 52.9366 41.0362L55.3628 37.7647H55.4676ZM54.8746 38.7533L53.6974 40.3415H54.7188L54.8746 38.7533ZM59.0824 37.8567L60.3374 41.0124L61.0173 38.6553C61.0732 38.4613 61.1012 38.3109 61.1012 38.204C61.1012 38.1308 61.0752 38.0734 61.0233 38.0319C60.9714 37.9903 60.8745 37.9695 60.7328 37.9695C60.7088 37.9695 60.6838 37.9685 60.6579 37.9665L60.6908 37.8567H61.9968L61.9608 37.9665C61.825 37.9646 61.7242 37.9784 61.6583 38.0081C61.5644 38.0497 61.4946 38.1031 61.4486 38.1684C61.3847 38.2614 61.3198 38.4237 61.2539 38.6553L60.2984 41.9743H60.1906L58.8397 38.5781L58.1179 41.0867C58.064 41.2767 58.037 41.4221 58.037 41.5231C58.037 41.5983 58.0615 41.6552 58.1104 41.6938C58.1593 41.7324 58.2756 41.7586 58.4594 41.7724L58.4294 41.8823H57.1534L57.1953 41.7724C57.3551 41.7685 57.4619 41.7546 57.5158 41.7309C57.5977 41.6952 57.6586 41.6487 57.6986 41.5913C57.7565 41.5043 57.8214 41.336 57.8932 41.0867L58.699 38.2872C58.6211 38.1684 58.5377 38.0868 58.4489 38.0422C58.36 37.9977 58.2217 37.9725 58.034 37.9665L58.067 37.8567H59.0824ZM64.1756 40.1248C64.1756 40.4217 64.0962 40.7156 63.9374 41.0065C63.7787 41.2974 63.5575 41.528 63.274 41.6982C62.9904 41.8684 62.7149 41.9535 62.4473 41.9535C62.1737 41.9535 61.9506 41.8669 61.7778 41.6938C61.6051 41.5206 61.5187 41.2965 61.5187 41.0214C61.5187 40.7304 61.6031 40.4385 61.7719 40.1456C61.9406 39.8527 62.1662 39.6211 62.4488 39.4509C62.7313 39.2807 63.0044 39.1956 63.268 39.1956C63.5316 39.1956 63.7487 39.2817 63.9195 39.4539C64.0902 39.6261 64.1756 39.8497 64.1756 40.1248ZM63.6783 39.92C63.6783 39.7359 63.6329 39.5949 63.5421 39.4969C63.4512 39.399 63.3339 39.35 63.1901 39.35C62.8966 39.35 62.6265 39.5583 62.3799 39.9749C62.1333 40.3915 62.01 40.8056 62.01 41.2173C62.01 41.4053 62.0579 41.5503 62.1537 41.6522C62.2496 41.7541 62.3704 41.8051 62.5162 41.8051C62.7977 41.8051 63.0618 41.5978 63.3084 41.1831C63.555 40.7685 63.6783 40.3475 63.6783 39.92ZM65.6834 39.1956L65.285 40.5464C65.6584 39.9942 65.9445 39.631 66.1432 39.4568C66.3419 39.2827 66.5331 39.1956 66.7168 39.1956C66.8166 39.1956 66.899 39.2282 66.9639 39.2936C67.0288 39.3589 67.0612 39.444 67.0612 39.5489C67.0612 39.6676 67.0323 39.826 66.9744 40.0239L66.6089 41.2737C66.567 41.4182 66.546 41.5062 66.546 41.5379C66.546 41.5656 66.554 41.5889 66.57 41.6077C66.586 41.6265 66.6029 41.6359 66.6209 41.6359C66.6449 41.6359 66.6738 41.623 66.7078 41.5973C66.8136 41.5142 66.9294 41.3875 67.0552 41.2173L67.1481 41.2737C66.9624 41.5369 66.7867 41.7249 66.6209 41.8378C66.5051 41.9149 66.4013 41.9535 66.3094 41.9535C66.2355 41.9535 66.1766 41.9313 66.1327 41.8867C66.0888 41.8422 66.0668 41.7823 66.0668 41.7071C66.0668 41.6121 66.1007 41.4489 66.1686 41.2173L66.5161 40.0239C66.56 39.8754 66.582 39.7597 66.582 39.6765C66.582 39.6369 66.569 39.6048 66.543 39.58C66.5171 39.5553 66.4851 39.5429 66.4472 39.5429C66.3913 39.5429 66.3244 39.5667 66.2465 39.6142C66.0987 39.7032 65.945 39.8502 65.7852 40.055C65.6255 40.2599 65.4568 40.5216 65.279 40.8403C65.1852 41.0085 65.1073 41.1926 65.0454 41.3924L64.8956 41.8823H64.4464L64.9915 40.0239C65.0554 39.8002 65.0873 39.6656 65.0873 39.6201C65.0873 39.5766 65.0699 39.5385 65.0349 39.5058C65 39.4732 64.9565 39.4568 64.9046 39.4568C64.8807 39.4568 64.8387 39.4608 64.7788 39.4687L64.665 39.4865L64.647 39.3797L65.6834 39.1956ZM68.6769 39.1956L68.4702 39.8784C68.6879 39.6251 68.8821 39.4479 69.0528 39.347C69.2235 39.2461 69.3978 39.1956 69.5755 39.1956C69.7532 39.1956 69.905 39.2654 70.0308 39.4049C70.1566 39.5444 70.2195 39.726 70.2195 39.9496C70.2195 40.3851 70.0407 40.8279 69.6833 41.2782C69.3259 41.7284 68.9095 41.9535 68.4343 41.9535C68.3344 41.9535 68.2461 41.9426 68.1692 41.9209C68.0923 41.8991 68.006 41.8605 67.9101 41.8051L67.6915 42.571C67.6475 42.7214 67.6256 42.8194 67.6256 42.8649C67.6256 42.9085 67.637 42.9456 67.66 42.9763C67.683 43.0069 67.7204 43.0307 67.7723 43.0475C67.8242 43.0643 67.9271 43.0727 68.0808 43.0727L68.0539 43.1826H66.6431L66.6731 43.0727C66.8588 43.0648 66.9841 43.0332 67.049 42.9777C67.1139 42.9223 67.1823 42.7689 67.2541 42.5176L68.0119 39.917C68.0579 39.7527 68.0808 39.6508 68.0808 39.6112C68.0808 39.5578 68.0654 39.5162 68.0344 39.4865C68.0035 39.4568 67.956 39.442 67.8921 39.442C67.8342 39.442 67.7534 39.4489 67.6495 39.4628V39.347L68.6769 39.1956ZM67.979 41.5706C68.1028 41.717 68.2695 41.7903 68.4792 41.7903C68.583 41.7903 68.6889 41.7616 68.7967 41.7042C68.9045 41.6468 69.0099 41.5617 69.1127 41.4488C69.2155 41.336 69.3079 41.2059 69.3898 41.0585C69.4716 40.911 69.545 40.7373 69.6099 40.5375C69.6748 40.3376 69.7073 40.1396 69.7073 39.9437C69.7073 39.7854 69.6708 39.6642 69.5979 39.58C69.5251 39.4959 69.4397 39.4539 69.3419 39.4539C69.1262 39.4539 68.913 39.5766 68.7024 39.822C68.4917 40.0674 68.3374 40.3544 68.2396 40.6829L67.979 41.5706ZM70.631 39.3618L71.6644 39.1956L71.2331 40.6384C71.5825 40.0466 71.9 39.633 72.1856 39.3975C72.3473 39.2629 72.4791 39.1956 72.581 39.1956C72.6469 39.1956 72.6988 39.2149 72.7367 39.2535C72.7747 39.2921 72.7936 39.348 72.7936 39.4212C72.7936 39.5518 72.7597 39.6765 72.6918 39.7953C72.6439 39.8843 72.575 39.9289 72.4851 39.9289C72.4392 39.9289 72.3997 39.914 72.3668 39.8843C72.3339 39.8546 72.3134 39.8091 72.3054 39.7478C72.3014 39.7102 72.2924 39.6854 72.2784 39.6736C72.2625 39.6577 72.2435 39.6498 72.2215 39.6498C72.1876 39.6498 72.1556 39.6577 72.1257 39.6736C72.0738 39.7013 71.9949 39.7785 71.8891 39.9051C71.7233 40.0991 71.5436 40.3504 71.3499 40.6592C71.266 40.7898 71.1941 40.9372 71.1342 41.1015C71.0504 41.3271 71.0025 41.4627 70.9905 41.5082L70.8946 41.8823H70.4363L70.9905 40.0387C71.0544 39.825 71.0863 39.6726 71.0863 39.5815C71.0863 39.5459 71.0713 39.5162 71.0414 39.4925C71.0015 39.4608 70.9485 39.445 70.8826 39.445C70.8407 39.445 70.7638 39.4539 70.652 39.4717L70.631 39.3618ZM75.23 40.1248C75.23 40.4217 75.1506 40.7156 74.9919 41.0065C74.8331 41.2974 74.612 41.528 74.3284 41.6982C74.0449 41.8684 73.7693 41.9535 73.5017 41.9535C73.2282 41.9535 73.005 41.8669 72.8323 41.6938C72.6596 41.5206 72.5732 41.2965 72.5732 41.0214C72.5732 40.7304 72.6576 40.4385 72.8263 40.1456C72.995 39.8527 73.2207 39.6211 73.5032 39.4509C73.7858 39.2807 74.0589 39.1956 74.3224 39.1956C74.586 39.1956 74.8032 39.2817 74.9739 39.4539C75.1446 39.6261 75.23 39.8497 75.23 40.1248ZM74.7328 39.92C74.7328 39.7359 74.6874 39.5949 74.5965 39.4969C74.5056 39.399 74.3883 39.35 74.2446 39.35C73.951 39.35 73.681 39.5583 73.4343 39.9749C73.1877 40.3915 73.0644 40.8056 73.0644 41.2173C73.0644 41.4053 73.1123 41.5503 73.2082 41.6522C73.304 41.7541 73.4249 41.8051 73.5706 41.8051C73.8522 41.8051 74.1163 41.5978 74.3629 41.1831C74.6095 40.7685 74.7328 40.3475 74.7328 39.92ZM77.2021 39.2668L77.1482 39.4628H76.7109L76.3814 40.7601C76.2356 41.3321 76.0889 41.7744 75.9411 42.0871C75.7314 42.5285 75.5058 42.8333 75.2642 43.0015C75.0805 43.1301 74.8968 43.1945 74.713 43.1945C74.5932 43.1945 74.4914 43.1588 74.4075 43.0876C74.3456 43.0381 74.3147 42.9738 74.3147 42.8946C74.3147 42.8313 74.3401 42.7764 74.3911 42.7298C74.442 42.6833 74.5044 42.6601 74.5783 42.6601C74.6322 42.6601 74.6776 42.6769 74.7145 42.7106C74.7515 42.7442 74.77 42.7828 74.77 42.8263C74.77 42.8699 74.749 42.9104 74.7071 42.9481C74.6751 42.9758 74.6591 42.9965 74.6591 43.0104C74.6591 43.0282 74.6661 43.0421 74.6801 43.052C74.6981 43.0658 74.726 43.0727 74.764 43.0727C74.8498 43.0727 74.9402 43.046 75.035 42.9926C75.1299 42.9391 75.2142 42.8595 75.2881 42.7536C75.362 42.6477 75.4319 42.4948 75.4978 42.2949C75.5258 42.2118 75.6006 41.9377 75.7225 41.4726L76.2436 39.4628H75.7225L75.7644 39.2668C75.9301 39.2668 76.0459 39.2555 76.1118 39.2327C76.1777 39.2099 76.2381 39.1664 76.293 39.1021C76.348 39.0378 76.4194 38.9175 76.5072 38.7414C76.625 38.5039 76.7378 38.3198 76.8457 38.1892C76.9934 38.0131 77.1487 37.8809 77.3114 37.7929C77.4742 37.7048 77.6274 37.6608 77.7712 37.6608C77.923 37.6608 78.0448 37.6989 78.1366 37.7751C78.2285 37.8513 78.2744 37.9339 78.2744 38.023C78.2744 38.0922 78.2515 38.1506 78.2055 38.1981C78.1596 38.2456 78.1007 38.2694 78.0288 38.2694C77.9669 38.2694 77.9165 38.2515 77.8776 38.2159C77.8386 38.1803 77.8191 38.1377 77.8191 38.0883C77.8191 38.0566 77.8321 38.0175 77.8581 37.971C77.884 37.9245 77.897 37.8933 77.897 37.8775C77.897 37.8498 77.888 37.829 77.8701 37.8151C77.8441 37.7954 77.8062 37.7855 77.7562 37.7855C77.6304 37.7855 77.5176 37.825 77.4178 37.9042C77.284 38.0091 77.1642 38.1734 77.0583 38.397C77.0044 38.5138 76.9056 38.8037 76.7618 39.2668H77.2021ZM78.3835 38.017C78.4673 38.017 78.5382 38.0457 78.5961 38.1031C78.654 38.1605 78.683 38.2308 78.683 38.3139C78.683 38.395 78.6535 38.4648 78.5946 38.5232C78.5357 38.5816 78.4653 38.6108 78.3835 38.6108C78.3016 38.6108 78.2312 38.5816 78.1723 38.5232C78.1134 38.4648 78.084 38.395 78.084 38.3139C78.084 38.2308 78.1129 38.1605 78.1708 38.1031C78.2287 38.0457 78.2996 38.017 78.3835 38.017ZM78.4224 39.1956L77.8293 41.2767C77.7894 41.4172 77.7694 41.5013 77.7694 41.529C77.7694 41.5607 77.7789 41.5864 77.7979 41.6062C77.8169 41.626 77.8393 41.6359 77.8653 41.6359C77.8952 41.6359 77.9312 41.62 77.9731 41.5884C78.0869 41.4993 78.2018 41.3727 78.3176 41.2084L78.4224 41.2767C78.2866 41.4825 78.1269 41.6557 77.9432 41.7962C77.8074 41.9011 77.6776 41.9535 77.5538 41.9535C77.4719 41.9535 77.405 41.9293 77.3531 41.8808C77.3012 41.8323 77.2752 41.7714 77.2752 41.6982C77.2752 41.625 77.3002 41.5033 77.3501 41.3331L77.7395 40.0031C77.8034 39.7854 77.8353 39.6488 77.8353 39.5934C77.8353 39.5499 77.8199 39.5142 77.7889 39.4865C77.758 39.4588 77.7155 39.445 77.6616 39.445C77.6177 39.445 77.5268 39.4559 77.389 39.4776V39.3618L78.4224 39.1956ZM80.2328 38.4594L79.9992 39.2668H80.4694L80.4185 39.4539H79.9512L79.436 41.2054C79.3801 41.3934 79.3522 41.5152 79.3522 41.5706C79.3522 41.6042 79.3602 41.6299 79.3761 41.6478C79.3921 41.6656 79.4111 41.6745 79.433 41.6745C79.483 41.6745 79.5489 41.6398 79.6307 41.5706C79.6787 41.531 79.7855 41.4093 79.9512 41.2054L80.0501 41.2796C79.8664 41.5448 79.6926 41.7319 79.5289 41.8407C79.4171 41.9159 79.3042 41.9535 79.1904 41.9535C79.1026 41.9535 79.0307 41.9263 78.9748 41.8719C78.9188 41.8175 78.8909 41.7477 78.8909 41.6626C78.8909 41.5557 78.9228 41.3924 78.9867 41.1728L79.487 39.4539H79.0347L79.0646 39.3381C79.2843 39.2787 79.467 39.1902 79.6128 39.0724C79.7585 38.9546 79.9213 38.7503 80.101 38.4594H80.2328ZM84.7461 37.7647C85.0157 37.7647 85.2543 37.8226 85.462 37.9383C85.6697 38.0541 85.8324 38.2253 85.9502 38.4519C86.068 38.6785 86.1269 38.9136 86.1269 39.157C86.1269 39.5885 86.0006 40.0412 85.748 40.5152C85.4954 40.9892 85.1654 41.3509 84.7581 41.6003C84.3507 41.8496 83.9294 41.9743 83.4941 41.9743C83.1806 41.9743 82.9185 41.9055 82.7078 41.768C82.4972 41.6304 82.3414 41.4489 82.2406 41.2232C82.1397 40.9976 82.0893 40.7789 82.0893 40.5671C82.0893 40.1911 82.1806 39.8195 82.3634 39.4524C82.5461 39.0853 82.7642 38.7785 83.0178 38.5321C83.2714 38.2857 83.542 38.0962 83.8295 37.9636C84.1171 37.831 84.4226 37.7647 84.7461 37.7647ZM84.6443 37.9547C84.4446 37.9547 84.2494 38.0037 84.0587 38.1016C83.868 38.1996 83.6788 38.3599 83.4911 38.5826C83.3034 38.8052 83.1347 39.0966 82.9849 39.4568C82.8012 39.9002 82.7093 40.3188 82.7093 40.7126C82.7093 40.9936 82.7822 41.2425 82.928 41.4592C83.0737 41.676 83.2974 41.7843 83.5989 41.7843C83.7806 41.7843 83.9588 41.7398 84.1336 41.6507C84.3083 41.5617 84.4905 41.4093 84.6802 41.1935C84.9178 40.9224 85.1175 40.5765 85.2793 40.156C85.441 39.7354 85.5219 39.343 85.5219 38.9789C85.5219 38.7097 85.449 38.4717 85.3032 38.2649C85.1575 38.0581 84.9378 37.9547 84.6443 37.9547ZM86.3977 39.3618L87.4311 39.1956L86.9998 40.6384C87.3492 40.0466 87.6667 39.633 87.9523 39.3975C88.114 39.2629 88.2458 39.1956 88.3476 39.1956C88.4135 39.1956 88.4655 39.2149 88.5034 39.2535C88.5413 39.2921 88.5603 39.348 88.5603 39.4212C88.5603 39.5518 88.5264 39.6765 88.4585 39.7953C88.4105 39.8843 88.3417 39.9289 88.2518 39.9289C88.2059 39.9289 88.1664 39.914 88.1335 39.8843C88.1005 39.8546 88.0801 39.8091 88.0721 39.7478C88.0681 39.7102 88.0591 39.6854 88.0451 39.6736C88.0292 39.6577 88.0102 39.6498 87.9882 39.6498C87.9543 39.6498 87.9223 39.6577 87.8924 39.6736C87.8404 39.7013 87.7616 39.7785 87.6557 39.9051C87.49 40.0991 87.3103 40.3504 87.1166 40.6592C87.0327 40.7898 86.9608 40.9372 86.9009 41.1015C86.8171 41.3271 86.7691 41.4627 86.7572 41.5082L86.6613 41.8823H86.203L86.7572 40.0387C86.8211 39.825 86.853 39.6726 86.853 39.5815C86.853 39.5459 86.838 39.5162 86.8081 39.4925C86.7681 39.4608 86.7152 39.445 86.6493 39.445C86.6074 39.445 86.5305 39.4539 86.4187 39.4717L86.3977 39.3618ZM91.3561 39.3797L91.2693 39.6884H90.7691C90.807 39.7953 90.826 39.8952 90.826 39.9882C90.826 40.2495 90.7141 40.482 90.4905 40.6859C90.2648 40.8897 89.9553 41.0026 89.562 41.0243C89.3503 41.0877 89.1915 41.1629 89.0857 41.2499C89.0458 41.2816 89.0258 41.3143 89.0258 41.3479C89.0258 41.3875 89.0438 41.4236 89.0797 41.4563C89.1157 41.4889 89.2065 41.5221 89.3523 41.5557L89.9334 41.6893C90.2549 41.7645 90.4675 41.8536 90.5714 41.9565C90.6732 42.0614 90.7241 42.1821 90.7241 42.3187C90.7241 42.481 90.6637 42.6294 90.5429 42.764C90.4221 42.8986 90.2454 43.004 90.0127 43.0802C89.7801 43.1564 89.523 43.1945 89.2415 43.1945C88.9939 43.1945 88.7682 43.1653 88.5645 43.1069C88.3608 43.0485 88.2151 42.9698 88.1272 42.8709C88.0394 42.7719 87.9954 42.67 87.9954 42.5651C87.9954 42.48 88.0239 42.3914 88.0808 42.2994C88.1377 42.2074 88.2091 42.1317 88.295 42.0723C88.3489 42.0347 88.5016 41.9456 88.7532 41.8051C88.6614 41.7338 88.6154 41.6557 88.6154 41.5706C88.6154 41.4914 88.6559 41.4073 88.7368 41.3182C88.8176 41.2292 88.9889 41.1312 89.2504 41.0243C89.0308 40.9828 88.8566 40.8917 88.7278 40.7512C88.599 40.6107 88.5346 40.4543 88.5346 40.2821C88.5346 40.0011 88.6589 39.7498 88.9075 39.5281C89.1561 39.3064 89.4871 39.1956 89.9004 39.1956C90.0502 39.1956 90.173 39.2104 90.2688 39.2401C90.3647 39.2698 90.4575 39.3163 90.5474 39.3797H91.3561ZM90.3168 39.8457C90.3168 39.6874 90.2723 39.5627 90.1835 39.4717C90.0946 39.3806 89.9783 39.3351 89.8345 39.3351C89.6089 39.3351 89.4227 39.4474 89.2759 39.6721C89.1291 39.8967 89.0558 40.1307 89.0558 40.3742C89.0558 40.5266 89.1027 40.6513 89.1965 40.7482C89.2904 40.8452 89.4042 40.8937 89.538 40.8937C89.6438 40.8937 89.7462 40.865 89.845 40.8076C89.9439 40.7502 90.0272 40.671 90.0951 40.5701C90.163 40.4692 90.2169 40.3405 90.2569 40.1842C90.2968 40.0278 90.3168 39.915 90.3168 39.8457ZM88.882 41.8823C88.7203 41.9555 88.598 42.0495 88.5151 42.1643C88.4322 42.2791 88.3908 42.3919 88.3908 42.5027C88.3908 42.6334 88.4507 42.7412 88.5705 42.8263C88.7422 42.949 88.9939 43.0104 89.3253 43.0104C89.6109 43.0104 89.855 42.9624 90.0577 42.8664C90.2604 42.7704 90.3617 42.6462 90.3617 42.4938C90.3617 42.4166 90.3243 42.3434 90.2494 42.2742C90.1745 42.2049 90.0292 42.1485 89.8136 42.1049C89.6957 42.0812 89.3852 42.007 88.882 41.8823ZM94.0291 39.1956L93.445 41.2084L93.3792 41.4785C93.3732 41.5043 93.3702 41.526 93.3702 41.5438C93.3702 41.5755 93.3801 41.6032 93.4001 41.627C93.4161 41.6448 93.4361 41.6537 93.46 41.6537C93.486 41.6537 93.5199 41.6379 93.5619 41.6062C93.6398 41.5488 93.7436 41.43 93.8734 41.2499L93.9752 41.3212C93.8374 41.527 93.6956 41.6839 93.5499 41.7917C93.4041 41.8996 93.2693 41.9535 93.1455 41.9535C93.0597 41.9535 92.9953 41.9323 92.9523 41.8897C92.9094 41.8472 92.8879 41.7853 92.8879 41.7042C92.8879 41.6072 92.9099 41.4795 92.9538 41.3212L93.0167 41.0985C92.7551 41.437 92.5145 41.6735 92.2949 41.8081C92.1371 41.905 91.9824 41.9535 91.8306 41.9535C91.6848 41.9535 91.559 41.8937 91.4532 41.7739C91.3474 41.6542 91.2944 41.4894 91.2944 41.2796C91.2944 40.9649 91.3898 40.6329 91.5805 40.2836C91.7712 39.9343 92.0133 39.6548 92.3068 39.445C92.5365 39.2787 92.7531 39.1956 92.9568 39.1956C93.0786 39.1956 93.18 39.2273 93.2608 39.2906C93.3417 39.3539 93.4031 39.4588 93.445 39.6053L93.5529 39.2668L94.0291 39.1956ZM92.9628 39.35C92.835 39.35 92.6992 39.4093 92.5555 39.5281C92.3518 39.6963 92.1706 39.9457 92.0118 40.2762C91.8531 40.6067 91.7737 40.9056 91.7737 41.1728C91.7737 41.3073 91.8076 41.4137 91.8755 41.4919C91.9434 41.5701 92.0213 41.6092 92.1092 41.6092C92.3268 41.6092 92.5634 41.4498 92.819 41.1312C93.1605 40.7077 93.3312 40.2732 93.3312 39.8279C93.3312 39.6597 93.2983 39.538 93.2324 39.4628C93.1665 39.3876 93.0766 39.35 92.9628 39.35ZM95.495 39.1956L95.0967 40.5464C95.4701 39.9942 95.7561 39.631 95.9548 39.4568C96.1535 39.2827 96.3447 39.1956 96.5284 39.1956C96.6283 39.1956 96.7106 39.2282 96.7755 39.2936C96.8404 39.3589 96.8729 39.444 96.8729 39.5489C96.8729 39.6676 96.8439 39.826 96.786 40.0239L96.4206 41.2737C96.3786 41.4182 96.3577 41.5062 96.3577 41.5379C96.3577 41.5656 96.3657 41.5889 96.3816 41.6077C96.3976 41.6265 96.4146 41.6359 96.4326 41.6359C96.4565 41.6359 96.4855 41.623 96.5194 41.5973C96.6253 41.5142 96.7411 41.3875 96.8669 41.2173L96.9597 41.2737C96.774 41.5369 96.5983 41.7249 96.4326 41.8378C96.3167 41.9149 96.2129 41.9535 96.1211 41.9535C96.0472 41.9535 95.9883 41.9313 95.9443 41.8867C95.9004 41.8422 95.8784 41.7823 95.8784 41.7071C95.8784 41.6121 95.9124 41.4489 95.9803 41.2173L96.3277 40.0239C96.3717 39.8754 96.3936 39.7597 96.3936 39.6765C96.3936 39.6369 96.3806 39.6048 96.3547 39.58C96.3287 39.5553 96.2968 39.5429 96.2588 39.5429C96.2029 39.5429 96.136 39.5667 96.0582 39.6142C95.9104 39.7032 95.7566 39.8502 95.5969 40.055C95.4371 40.2599 95.2684 40.5216 95.0907 40.8403C94.9968 41.0085 94.919 41.1926 94.857 41.3924L94.7073 41.8823H94.258L94.8031 40.0239C94.867 39.8002 94.899 39.6656 94.899 39.6201C94.899 39.5766 94.8815 39.5385 94.8466 39.5058C94.8116 39.4732 94.7682 39.4568 94.7163 39.4568C94.6923 39.4568 94.6504 39.4608 94.5905 39.4687L94.4766 39.4865L94.4587 39.3797L95.495 39.1956ZM98.5035 38.017C98.5874 38.017 98.6583 38.0457 98.7162 38.1031C98.7741 38.1605 98.803 38.2308 98.803 38.3139C98.803 38.395 98.7736 38.4648 98.7147 38.5232C98.6558 38.5816 98.5854 38.6108 98.5035 38.6108C98.4216 38.6108 98.3513 38.5816 98.2924 38.5232C98.2334 38.4648 98.204 38.395 98.204 38.3139C98.204 38.2308 98.2329 38.1605 98.2908 38.1031C98.3488 38.0457 98.4196 38.017 98.5035 38.017ZM98.5425 39.1956L97.9494 41.2767C97.9095 41.4172 97.8895 41.5013 97.8895 41.529C97.8895 41.5607 97.899 41.5864 97.9179 41.6062C97.9369 41.626 97.9594 41.6359 97.9853 41.6359C98.0153 41.6359 98.0512 41.62 98.0932 41.5884C98.207 41.4993 98.3218 41.3727 98.4376 41.2084L98.5425 41.2767C98.4067 41.4825 98.2469 41.6557 98.0632 41.7962C97.9274 41.9011 97.7976 41.9535 97.6738 41.9535C97.592 41.9535 97.5251 41.9293 97.4731 41.8808C97.4212 41.8323 97.3953 41.7714 97.3953 41.6982C97.3953 41.625 97.4202 41.5033 97.4701 41.3331L97.8595 40.0031C97.9234 39.7854 97.9554 39.6488 97.9554 39.5934C97.9554 39.5499 97.9399 39.5142 97.909 39.4865C97.878 39.4588 97.8356 39.445 97.7817 39.445C97.7377 39.445 97.6469 39.4559 97.5091 39.4776V39.3618L98.5425 39.1956ZM99.2745 39.2668H101.177V39.3411L99.1038 41.4785H99.9814C100.189 41.4785 100.321 41.4706 100.377 41.4548C100.433 41.439 100.484 41.4053 100.531 41.3538C100.578 41.3024 100.63 41.2094 100.688 41.0748H100.799L100.539 41.8823H98.5886V41.7962L100.661 39.6587H99.7987C99.617 39.6587 99.5071 39.6637 99.4692 39.6736C99.4133 39.6854 99.3579 39.7166 99.303 39.7671C99.2481 39.8175 99.1916 39.9012 99.1337 40.0179H99.0199L99.2745 39.2668ZM103.948 39.1956L103.364 41.2084L103.298 41.4785C103.292 41.5043 103.289 41.526 103.289 41.5438C103.289 41.5755 103.299 41.6032 103.319 41.627C103.335 41.6448 103.355 41.6537 103.379 41.6537C103.405 41.6537 103.439 41.6379 103.481 41.6062C103.559 41.5488 103.663 41.43 103.793 41.2499L103.894 41.3212C103.757 41.527 103.615 41.6839 103.469 41.7917C103.323 41.8996 103.189 41.9535 103.065 41.9535C102.979 41.9535 102.914 41.9323 102.872 41.8897C102.829 41.8472 102.807 41.7853 102.807 41.7042C102.807 41.6072 102.829 41.4795 102.873 41.3212L102.936 41.0985C102.674 41.437 102.434 41.6735 102.214 41.8081C102.056 41.905 101.902 41.9535 101.75 41.9535C101.604 41.9535 101.478 41.8937 101.372 41.7739C101.267 41.6542 101.214 41.4894 101.214 41.2796C101.214 40.9649 101.309 40.6329 101.5 40.2836C101.69 39.9343 101.933 39.6548 102.226 39.445C102.456 39.2787 102.672 39.1956 102.876 39.1956C102.998 39.1956 103.099 39.2273 103.18 39.2906C103.261 39.3539 103.322 39.4588 103.364 39.6053L103.472 39.2668L103.948 39.1956ZM102.882 39.35C102.754 39.35 102.618 39.4093 102.475 39.5281C102.271 39.6963 102.09 39.9457 101.931 40.2762C101.772 40.6067 101.693 40.9056 101.693 41.1728C101.693 41.3073 101.727 41.4137 101.795 41.4919C101.863 41.5701 101.941 41.6092 102.028 41.6092C102.246 41.6092 102.483 41.4498 102.738 41.1312C103.08 40.7077 103.25 40.2732 103.25 39.8279C103.25 39.6597 103.218 39.538 103.152 39.4628C103.086 39.3876 102.996 39.35 102.882 39.35ZM105.654 38.4594L105.42 39.2668H105.891L105.84 39.4539H105.372L104.857 41.2054C104.801 41.3934 104.773 41.5152 104.773 41.5706C104.773 41.6042 104.781 41.6299 104.797 41.6478C104.813 41.6656 104.832 41.6745 104.854 41.6745C104.904 41.6745 104.97 41.6398 105.052 41.5706C105.1 41.531 105.207 41.4093 105.372 41.2054L105.471 41.2796C105.287 41.5448 105.114 41.7319 104.95 41.8407C104.838 41.9159 104.725 41.9535 104.612 41.9535C104.524 41.9535 104.452 41.9263 104.396 41.8719C104.34 41.8175 104.312 41.7477 104.312 41.6626C104.312 41.5557 104.344 41.3924 104.408 41.1728L104.908 39.4539H104.456L104.486 39.3381C104.705 39.2787 104.888 39.1902 105.034 39.0724C105.18 38.9546 105.342 38.7503 105.522 38.4594H105.654ZM107.06 38.017C107.144 38.017 107.215 38.0457 107.273 38.1031C107.33 38.1605 107.359 38.2308 107.359 38.3139C107.359 38.395 107.33 38.4648 107.271 38.5232C107.212 38.5816 107.142 38.6108 107.06 38.6108C106.978 38.6108 106.908 38.5816 106.849 38.5232C106.79 38.4648 106.76 38.395 106.76 38.3139C106.76 38.2308 106.789 38.1605 106.847 38.1031C106.905 38.0457 106.976 38.017 107.06 38.017ZM107.099 39.1956L106.506 41.2767C106.466 41.4172 106.446 41.5013 106.446 41.529C106.446 41.5607 106.455 41.5864 106.474 41.6062C106.493 41.626 106.516 41.6359 106.542 41.6359C106.572 41.6359 106.608 41.62 106.65 41.5884C106.763 41.4993 106.878 41.3727 106.994 41.2084L107.099 41.2767C106.963 41.4825 106.803 41.6557 106.62 41.7962C106.484 41.9011 106.354 41.9535 106.23 41.9535C106.148 41.9535 106.081 41.9293 106.03 41.8808C105.978 41.8323 105.952 41.7714 105.952 41.6982C105.952 41.625 105.977 41.5033 106.027 41.3331L106.416 40.0031C106.48 39.7854 106.512 39.6488 106.512 39.5934C106.512 39.5499 106.496 39.5142 106.465 39.4865C106.434 39.4588 106.392 39.445 106.338 39.445C106.294 39.445 106.203 39.4559 106.065 39.4776V39.3618L107.099 39.1956ZM110.152 40.1248C110.152 40.4217 110.073 40.7156 109.914 41.0065C109.755 41.2974 109.534 41.528 109.251 41.6982C108.967 41.8684 108.692 41.9535 108.424 41.9535C108.15 41.9535 107.927 41.8669 107.755 41.6938C107.582 41.5206 107.495 41.2965 107.495 41.0214C107.495 40.7304 107.58 40.4385 107.749 40.1456C107.917 39.8527 108.143 39.6211 108.425 39.4509C108.708 39.2807 108.981 39.1956 109.245 39.1956C109.508 39.1956 109.725 39.2817 109.896 39.4539C110.067 39.6261 110.152 39.8497 110.152 40.1248ZM109.655 39.92C109.655 39.7359 109.61 39.5949 109.519 39.4969C109.428 39.399 109.311 39.35 109.167 39.35C108.873 39.35 108.603 39.5583 108.357 39.9749C108.11 40.3915 107.987 40.8056 107.987 41.2173C107.987 41.4053 108.035 41.5503 108.13 41.6522C108.226 41.7541 108.347 41.8051 108.493 41.8051C108.774 41.8051 109.039 41.5978 109.285 41.1831C109.532 40.7685 109.655 40.3475 109.655 39.92ZM111.66 39.1956L111.262 40.5464C111.635 39.9942 111.921 39.631 112.12 39.4568C112.319 39.2827 112.51 39.1956 112.693 39.1956C112.793 39.1956 112.876 39.2282 112.941 39.2936C113.005 39.3589 113.038 39.444 113.038 39.5489C113.038 39.6676 113.009 39.826 112.951 40.0239L112.586 41.2737C112.544 41.4182 112.523 41.5062 112.523 41.5379C112.523 41.5656 112.531 41.5889 112.547 41.6077C112.563 41.6265 112.58 41.6359 112.598 41.6359C112.622 41.6359 112.651 41.623 112.684 41.5973C112.79 41.5142 112.906 41.3875 113.032 41.2173L113.125 41.2737C112.939 41.5369 112.763 41.7249 112.598 41.8378C112.482 41.9149 112.378 41.9535 112.286 41.9535C112.212 41.9535 112.153 41.9313 112.109 41.8867C112.065 41.8422 112.043 41.7823 112.043 41.7071C112.043 41.6121 112.077 41.4489 112.145 41.2173L112.493 40.0239C112.537 39.8754 112.559 39.7597 112.559 39.6765C112.559 39.6369 112.546 39.6048 112.52 39.58C112.494 39.5553 112.462 39.5429 112.424 39.5429C112.368 39.5429 112.301 39.5667 112.223 39.6142C112.075 39.7032 111.922 39.8502 111.762 40.055C111.602 40.2599 111.433 40.5216 111.256 40.8403C111.162 41.0085 111.084 41.1926 111.022 41.3924L110.872 41.8823H110.423L110.968 40.0239C111.032 39.8002 111.064 39.6656 111.064 39.6201C111.064 39.5766 111.047 39.5385 111.012 39.5058C110.977 39.4732 110.933 39.4568 110.881 39.4568C110.857 39.4568 110.815 39.4608 110.756 39.4687L110.642 39.4865L110.624 39.3797L111.66 39.1956ZM116.266 39.6528H118.141L118.438 38.6583C118.494 38.4643 118.522 38.3139 118.522 38.207C118.522 38.1556 118.509 38.1115 118.484 38.0749C118.459 38.0383 118.421 38.0111 118.369 37.9933C118.317 37.9755 118.215 37.9665 118.063 37.9665L118.093 37.8567H119.729L119.693 37.9665C119.555 37.9646 119.452 37.9784 119.384 38.0081C119.288 38.0497 119.218 38.1031 119.172 38.1684C119.106 38.2614 119.039 38.4247 118.971 38.6583L118.255 41.0896C118.195 41.2915 118.165 41.436 118.165 41.5231C118.165 41.5983 118.192 41.6552 118.245 41.6938C118.298 41.7324 118.424 41.7586 118.624 41.7724L118.591 41.8823H117.009L117.051 41.7724C117.207 41.7685 117.311 41.7546 117.363 41.7309C117.442 41.6952 117.5 41.6497 117.536 41.5943C117.588 41.5171 117.652 41.3489 117.728 41.0896L118.093 39.8576H116.209L115.841 41.0896C115.783 41.2875 115.754 41.432 115.754 41.5231C115.754 41.5983 115.78 41.6552 115.832 41.6938C115.884 41.7324 116.01 41.7586 116.209 41.7724L116.185 41.8823H114.592L114.631 41.7724C114.789 41.7685 114.893 41.7546 114.945 41.7309C115.025 41.6952 115.084 41.6497 115.122 41.5943C115.174 41.5132 115.238 41.3449 115.314 41.0896L116.033 38.6583C116.091 38.4603 116.119 38.3099 116.119 38.207C116.119 38.1556 116.107 38.1115 116.082 38.0749C116.057 38.0383 116.018 38.0111 115.965 37.9933C115.912 37.9755 115.809 37.9665 115.655 37.9665L115.691 37.8567H117.294L117.261 37.9665C117.127 37.9646 117.028 37.9784 116.964 38.0081C116.87 38.0477 116.801 38.1001 116.757 38.1655C116.698 38.2525 116.632 38.4168 116.56 38.6583L116.266 39.6528ZM119.838 40.7631C119.824 40.862 119.817 40.9442 119.817 41.0095C119.817 41.1856 119.88 41.3355 120.006 41.4592C120.131 41.5829 120.284 41.6448 120.464 41.6448C120.608 41.6448 120.746 41.6156 120.879 41.5572C121.012 41.4988 121.209 41.3697 121.47 41.1698L121.533 41.2559C121.06 41.721 120.609 41.9535 120.179 41.9535C119.888 41.9535 119.668 41.8625 119.52 41.6804C119.373 41.4983 119.299 41.2974 119.299 41.0778C119.299 40.7829 119.391 40.4811 119.574 40.1723C119.758 39.8636 119.989 39.6236 120.266 39.4524C120.544 39.2812 120.829 39.1956 121.123 39.1956C121.334 39.1956 121.491 39.2381 121.593 39.3233C121.695 39.4084 121.746 39.5093 121.746 39.6261C121.746 39.7903 121.68 39.9477 121.548 40.0981C121.374 40.294 121.119 40.4524 120.781 40.5731C120.558 40.6542 120.243 40.7176 119.838 40.7631ZM119.859 40.6176C120.154 40.584 120.395 40.5266 120.581 40.4454C120.826 40.3366 121.011 40.2064 121.133 40.055C121.256 39.9036 121.318 39.7597 121.318 39.6231C121.318 39.54 121.291 39.4727 121.238 39.4212C121.185 39.3698 121.11 39.344 121.012 39.344C120.808 39.344 120.592 39.4514 120.364 39.6661C120.135 39.8809 119.967 40.198 119.859 40.6176ZM123.577 37.6608L122.553 41.1935C122.503 41.3697 122.478 41.4775 122.478 41.5171C122.478 41.5468 122.487 41.5716 122.506 41.5913C122.525 41.6111 122.549 41.621 122.577 41.621C122.615 41.621 122.656 41.6042 122.7 41.5706C122.803 41.4894 122.912 41.3637 123.026 41.1935L123.116 41.2856C122.926 41.5508 122.751 41.7358 122.592 41.8407C122.474 41.9159 122.362 41.9535 122.256 41.9535C122.18 41.9535 122.117 41.9278 122.066 41.8763C122.015 41.8249 121.99 41.7655 121.99 41.6982C121.99 41.627 122.022 41.4805 122.086 41.2589L122.897 38.4742C122.963 38.2466 122.996 38.116 122.996 38.0823C122.996 38.0348 122.977 37.9957 122.939 37.9651C122.901 37.9344 122.842 37.919 122.762 37.919C122.717 37.919 122.647 37.926 122.553 37.9398V37.83L123.577 37.6608ZM124.738 39.1956L124.531 39.8784C124.749 39.6251 124.943 39.4479 125.113 39.347C125.284 39.2461 125.458 39.1956 125.636 39.1956C125.814 39.1956 125.966 39.2654 126.091 39.4049C126.217 39.5444 126.28 39.726 126.28 39.9496C126.28 40.3851 126.101 40.8279 125.744 41.2782C125.387 41.7284 124.97 41.9535 124.495 41.9535C124.395 41.9535 124.307 41.9426 124.23 41.9209C124.153 41.8991 124.067 41.8605 123.971 41.8051L123.752 42.571C123.708 42.7214 123.686 42.8194 123.686 42.8649C123.686 42.9085 123.698 42.9456 123.721 42.9763C123.744 43.0069 123.781 43.0307 123.833 43.0475C123.885 43.0643 123.988 43.0727 124.142 43.0727L124.115 43.1826H122.704L122.734 43.0727C122.919 43.0648 123.045 43.0332 123.11 42.9777C123.175 42.9223 123.243 42.7689 123.315 42.5176L124.073 39.917C124.119 39.7527 124.142 39.6508 124.142 39.6112C124.142 39.5578 124.126 39.5162 124.095 39.4865C124.064 39.4568 124.017 39.442 123.953 39.442C123.895 39.442 123.814 39.4489 123.71 39.4628V39.347L124.738 39.1956ZM124.04 41.5706C124.163 41.717 124.33 41.7903 124.54 41.7903C124.644 41.7903 124.75 41.7616 124.857 41.7042C124.965 41.6468 125.071 41.5617 125.173 41.4488C125.276 41.336 125.369 41.2059 125.45 41.0585C125.532 40.911 125.606 40.7373 125.671 40.5375C125.736 40.3376 125.768 40.1396 125.768 39.9437C125.768 39.7854 125.731 39.6642 125.659 39.58C125.586 39.4959 125.5 39.4539 125.403 39.4539C125.187 39.4539 124.974 39.5766 124.763 39.822C124.552 40.0674 124.398 40.3544 124.3 40.6829L124.04 41.5706ZM127.743 38.017C127.827 38.017 127.898 38.0457 127.956 38.1031C128.014 38.1605 128.043 38.2308 128.043 38.3139C128.043 38.395 128.013 38.4648 127.954 38.5232C127.895 38.5816 127.825 38.6108 127.743 38.6108C127.661 38.6108 127.591 38.5816 127.532 38.5232C127.473 38.4648 127.444 38.395 127.444 38.3139C127.444 38.2308 127.472 38.1605 127.53 38.1031C127.588 38.0457 127.659 38.017 127.743 38.017ZM127.782 39.1956L127.189 41.2767C127.149 41.4172 127.129 41.5013 127.129 41.529C127.129 41.5607 127.139 41.5864 127.157 41.6062C127.176 41.626 127.199 41.6359 127.225 41.6359C127.255 41.6359 127.291 41.62 127.333 41.5884C127.447 41.4993 127.561 41.3727 127.677 41.2084L127.782 41.2767C127.646 41.4825 127.486 41.6557 127.303 41.7962C127.167 41.9011 127.037 41.9535 126.913 41.9535C126.831 41.9535 126.765 41.9293 126.713 41.8808C126.661 41.8323 126.635 41.7714 126.635 41.6982C126.635 41.625 126.66 41.5033 126.71 41.3331L127.099 40.0031C127.163 39.7854 127.195 39.6488 127.195 39.5934C127.195 39.5499 127.179 39.5142 127.148 39.4865C127.118 39.4588 127.075 39.445 127.021 39.445C126.977 39.445 126.886 39.4559 126.749 39.4776V39.3618L127.782 39.1956ZM129.353 39.1956L128.954 40.5464C129.328 39.9942 129.614 39.631 129.813 39.4568C130.011 39.2827 130.202 39.1956 130.386 39.1956C130.486 39.1956 130.568 39.2282 130.633 39.2936C130.698 39.3589 130.731 39.444 130.731 39.5489C130.731 39.6676 130.702 39.826 130.644 40.0239L130.278 41.2737C130.236 41.4182 130.215 41.5062 130.215 41.5379C130.215 41.5656 130.223 41.5889 130.239 41.6077C130.255 41.6265 130.272 41.6359 130.29 41.6359C130.314 41.6359 130.343 41.623 130.377 41.5973C130.483 41.5142 130.599 41.3875 130.725 41.2173L130.817 41.2737C130.632 41.5369 130.456 41.7249 130.29 41.8378C130.174 41.9149 130.071 41.9535 129.979 41.9535C129.905 41.9535 129.846 41.9313 129.802 41.8867C129.758 41.8422 129.736 41.7823 129.736 41.7071C129.736 41.6121 129.77 41.4489 129.838 41.2173L130.185 40.0239C130.229 39.8754 130.251 39.7597 130.251 39.6765C130.251 39.6369 130.238 39.6048 130.212 39.58C130.186 39.5553 130.154 39.5429 130.117 39.5429C130.061 39.5429 129.994 39.5667 129.916 39.6142C129.768 39.7032 129.614 39.8502 129.455 40.055C129.295 40.2599 129.126 40.5216 128.948 40.8403C128.855 41.0085 128.777 41.1926 128.715 41.3924L128.565 41.8823H128.116L128.661 40.0239C128.725 39.8002 128.757 39.6656 128.757 39.6201C128.757 39.5766 128.739 39.5385 128.704 39.5058C128.669 39.4732 128.626 39.4568 128.574 39.4568C128.55 39.4568 128.508 39.4608 128.448 39.4687L128.334 39.4865L128.316 39.3797L129.353 39.1956ZM134.185 39.3797L134.098 39.6884H133.598C133.636 39.7953 133.655 39.8952 133.655 39.9882C133.655 40.2495 133.543 40.482 133.32 40.6859C133.094 40.8897 132.785 41.0026 132.391 41.0243C132.179 41.0877 132.021 41.1629 131.915 41.2499C131.875 41.2816 131.855 41.3143 131.855 41.3479C131.855 41.3875 131.873 41.4236 131.909 41.4563C131.945 41.4889 132.036 41.5221 132.181 41.5557L132.763 41.6893C133.084 41.7645 133.297 41.8536 133.401 41.9565C133.502 42.0614 133.553 42.1821 133.553 42.3187C133.553 42.481 133.493 42.6294 133.372 42.764C133.251 42.8986 133.075 43.004 132.842 43.0802C132.609 43.1564 132.352 43.1945 132.071 43.1945C131.823 43.1945 131.597 43.1653 131.394 43.1069C131.19 43.0485 131.044 42.9698 130.956 42.8709C130.869 42.7719 130.825 42.67 130.825 42.5651C130.825 42.48 130.853 42.3914 130.91 42.2994C130.967 42.2074 131.038 42.1317 131.124 42.0723C131.178 42.0347 131.331 41.9456 131.582 41.8051C131.491 41.7338 131.445 41.6557 131.445 41.5706C131.445 41.4914 131.485 41.4073 131.566 41.3182C131.647 41.2292 131.818 41.1312 132.08 41.0243C131.86 40.9828 131.686 40.8917 131.557 40.7512C131.428 40.6107 131.364 40.4543 131.364 40.2821C131.364 40.0011 131.488 39.7498 131.737 39.5281C131.985 39.3064 132.316 39.1956 132.73 39.1956C132.879 39.1956 133.002 39.2104 133.098 39.2401C133.194 39.2698 133.287 39.3163 133.377 39.3797H134.185ZM133.146 39.8457C133.146 39.6874 133.102 39.5627 133.013 39.4717C132.924 39.3806 132.808 39.3351 132.664 39.3351C132.438 39.3351 132.252 39.4474 132.105 39.6721C131.958 39.8967 131.885 40.1307 131.885 40.3742C131.885 40.5266 131.932 40.6513 132.026 40.7482C132.12 40.8452 132.233 40.8937 132.367 40.8937C132.473 40.8937 132.575 40.865 132.674 40.8076C132.773 40.7502 132.856 40.671 132.924 40.5701C132.992 40.4692 133.046 40.3405 133.086 40.1842C133.126 40.0278 133.146 39.915 133.146 39.8457ZM131.711 41.8823C131.549 41.9555 131.427 42.0495 131.344 42.1643C131.261 42.2791 131.22 42.3919 131.22 42.5027C131.22 42.6334 131.28 42.7412 131.4 42.8263C131.571 42.949 131.823 43.0104 132.155 43.0104C132.44 43.0104 132.684 42.9624 132.887 42.8664C133.09 42.7704 133.191 42.6462 133.191 42.4938C133.191 42.4166 133.153 42.3434 133.079 42.2742C133.004 42.2049 132.858 42.1485 132.643 42.1049C132.525 42.0812 132.214 42.007 131.711 41.8823ZM136.335 37.8567H139.421L139.088 38.9254H138.974C139.012 38.7691 139.031 38.6296 139.031 38.5069C139.031 38.3624 138.986 38.2535 138.896 38.1803C138.828 38.1249 138.654 38.0972 138.372 38.0972H138.052L137.249 40.8699C137.147 41.2183 137.096 41.433 137.096 41.5142C137.096 41.5894 137.128 41.6512 137.192 41.6997C137.256 41.7482 137.369 41.7724 137.531 41.7724H137.668L137.632 41.8823H135.865L135.898 41.7724H135.976C136.132 41.7724 136.252 41.7477 136.335 41.6982C136.393 41.6646 136.446 41.6037 136.493 41.5156C136.54 41.4276 136.605 41.241 136.689 40.956L137.531 38.0972H137.288C137.054 38.0972 136.866 38.1269 136.723 38.1862C136.581 38.2456 136.465 38.3317 136.377 38.4445C136.289 38.5573 136.218 38.7176 136.162 38.9254H136.051L136.335 37.8567ZM140.572 37.6608L139.73 40.5434C140.094 40.0011 140.377 39.6409 140.581 39.4628C140.785 39.2847 140.979 39.1956 141.165 39.1956C141.261 39.1956 141.341 39.2282 141.405 39.2936C141.469 39.3589 141.5 39.446 141.5 39.5548C141.5 39.6854 141.473 39.8438 141.417 40.0298L141.051 41.2737C141.005 41.4241 140.982 41.5072 140.982 41.5231C140.982 41.5508 140.991 41.5735 141.008 41.5913C141.025 41.6092 141.044 41.6181 141.066 41.6181C141.092 41.6181 141.122 41.6052 141.156 41.5795C141.27 41.4924 141.383 41.3717 141.494 41.2173L141.587 41.2737C141.519 41.3786 141.425 41.4939 141.304 41.6195C141.183 41.7452 141.08 41.8323 140.993 41.8808C140.906 41.9293 140.829 41.9535 140.761 41.9535C140.687 41.9535 140.626 41.9303 140.579 41.8838C140.533 41.8373 140.509 41.7774 140.509 41.7042C140.509 41.6171 140.544 41.4548 140.614 41.2173L140.958 40.0298C141.002 39.8814 141.024 39.7646 141.024 39.6795C141.024 39.6399 141.012 39.6082 140.987 39.5845C140.962 39.5607 140.929 39.5489 140.889 39.5489C140.832 39.5489 140.766 39.5706 140.692 39.6142C140.556 39.6973 140.399 39.8517 140.221 40.0773C140.174 40.1387 140.014 40.386 139.742 40.8195C139.658 40.958 139.589 41.1094 139.536 41.2737L139.344 41.8823H138.895L139.88 38.4861L139.985 38.118C139.985 38.0665 139.963 38.021 139.92 37.9814C139.878 37.9418 139.825 37.922 139.763 37.922C139.727 37.922 139.672 37.928 139.598 37.9398L139.536 37.9487V37.833L140.572 37.6608ZM144.599 40.1248C144.599 40.4217 144.519 40.7156 144.361 41.0065C144.202 41.2974 143.981 41.528 143.697 41.6982C143.414 41.8684 143.138 41.9535 142.871 41.9535C142.597 41.9535 142.374 41.8669 142.201 41.6938C142.028 41.5206 141.942 41.2965 141.942 41.0214C141.942 40.7304 142.026 40.4385 142.195 40.1456C142.364 39.8527 142.589 39.6211 142.872 39.4509C143.155 39.2807 143.428 39.1956 143.691 39.1956C143.955 39.1956 144.172 39.2817 144.343 39.4539C144.513 39.6261 144.599 39.8497 144.599 40.1248ZM144.102 39.92C144.102 39.7359 144.056 39.5949 143.965 39.4969C143.874 39.399 143.757 39.35 143.613 39.35C143.32 39.35 143.05 39.5583 142.803 39.9749C142.557 40.3915 142.433 40.8056 142.433 41.2173C142.433 41.4053 142.481 41.5503 142.577 41.6522C142.673 41.7541 142.794 41.8051 142.939 41.8051C143.221 41.8051 143.485 41.5978 143.732 41.1831C143.978 40.7685 144.102 40.3475 144.102 39.92ZM146.978 39.1956L146.796 40.107H146.685C146.675 39.8418 146.618 39.6488 146.514 39.5281C146.41 39.4074 146.281 39.347 146.128 39.347C146.004 39.347 145.905 39.3806 145.833 39.4479C145.76 39.5152 145.723 39.5964 145.723 39.6914C145.723 39.7567 145.738 39.819 145.767 39.8784C145.796 39.9378 145.859 40.0209 145.957 40.1278C146.216 40.4088 146.384 40.6206 146.46 40.7631C146.536 40.9056 146.574 41.0402 146.574 41.1668C146.574 41.3727 146.488 41.5552 146.315 41.7145C146.142 41.8739 145.924 41.9535 145.66 41.9535C145.517 41.9535 145.351 41.9199 145.163 41.8526C145.097 41.8288 145.046 41.817 145.01 41.817C144.921 41.817 144.853 41.8625 144.807 41.9535H144.696L144.879 40.9917H144.989C145.001 41.2925 145.064 41.5053 145.178 41.6299C145.292 41.7546 145.448 41.817 145.645 41.817C145.797 41.817 145.917 41.7749 146.006 41.6908C146.095 41.6067 146.14 41.5033 146.14 41.3806C146.14 41.3014 146.124 41.2282 146.092 41.1609C146.036 41.0421 145.918 40.8779 145.74 40.6681C145.561 40.4583 145.446 40.3009 145.395 40.1961C145.344 40.0912 145.319 39.9863 145.319 39.8814C145.319 39.6894 145.389 39.5271 145.53 39.3945C145.671 39.2619 145.852 39.1956 146.074 39.1956C146.138 39.1956 146.196 39.2005 146.247 39.2104C146.275 39.2164 146.341 39.2386 146.444 39.2772C146.546 39.3158 146.615 39.3351 146.649 39.3351C146.735 39.3351 146.807 39.2886 146.864 39.1956H146.978ZM147.794 40.7631C147.78 40.862 147.773 40.9442 147.773 41.0095C147.773 41.1856 147.836 41.3355 147.962 41.4592C148.088 41.5829 148.241 41.6448 148.42 41.6448C148.564 41.6448 148.702 41.6156 148.835 41.5572C148.968 41.4988 149.165 41.3697 149.427 41.1698L149.49 41.2559C149.016 41.721 148.565 41.9535 148.136 41.9535C147.844 41.9535 147.624 41.8625 147.477 41.6804C147.329 41.4983 147.255 41.2974 147.255 41.0778C147.255 40.7829 147.347 40.4811 147.531 40.1723C147.714 39.8636 147.945 39.6236 148.223 39.4524C148.5 39.2812 148.786 39.1956 149.079 39.1956C149.291 39.1956 149.448 39.2381 149.549 39.3233C149.651 39.4084 149.702 39.5093 149.702 39.6261C149.702 39.7903 149.636 39.9477 149.505 40.0981C149.331 40.294 149.075 40.4524 148.738 40.5731C148.514 40.6542 148.2 40.7176 147.794 40.7631ZM147.815 40.6176C148.111 40.584 148.351 40.5266 148.537 40.4454C148.783 40.3366 148.967 40.2064 149.09 40.055C149.212 39.9036 149.274 39.7597 149.274 39.6231C149.274 39.54 149.247 39.4727 149.194 39.4212C149.142 39.3698 149.066 39.344 148.968 39.344C148.765 39.344 148.549 39.4514 148.32 39.6661C148.091 39.8809 147.923 40.198 147.815 40.6176ZM151.996 41.9743L152.346 38.6197C152.36 38.491 152.367 38.3921 152.367 38.3228C152.367 38.208 152.335 38.1209 152.269 38.0615C152.203 38.0022 152.084 37.9705 151.912 37.9665L151.945 37.8567H153.467L153.434 37.9665C153.23 37.9646 153.091 38.0007 153.016 38.0749C152.941 38.1491 152.89 38.3307 152.862 38.6197L152.637 40.7928L154.18 38.4326C154.182 38.3931 154.183 38.3594 154.183 38.3317C154.183 38.2209 154.15 38.1358 154.084 38.0764C154.018 38.017 153.876 37.9804 153.658 37.9665L153.682 37.8567H155.327L155.294 37.9665C155.104 37.9685 154.976 37.9844 154.91 38.014C154.863 38.0358 154.822 38.0709 154.789 38.1194C154.756 38.1679 154.73 38.2506 154.71 38.3673C154.704 38.401 154.679 38.6305 154.636 39.0561C154.593 39.4816 154.529 40.0605 154.443 40.7928L155.728 38.8572C155.868 38.6454 155.956 38.497 155.992 38.4119C156.028 38.3267 156.046 38.2545 156.046 38.1951C156.046 38.1397 156.022 38.0907 155.974 38.0482C155.926 38.0056 155.844 37.9784 155.728 37.9665L155.752 37.8567H156.956L156.926 37.9665C156.82 37.9745 156.727 38.0002 156.645 38.0437C156.563 38.0873 156.466 38.1704 156.354 38.2931C156.29 38.3644 156.158 38.5524 155.959 38.8572L153.919 41.9743H153.808L154.138 38.8572L152.098 41.9743H151.996ZM158 37.6608L157.158 40.5434C157.522 40.0011 157.805 39.6409 158.009 39.4628C158.212 39.2847 158.407 39.1956 158.593 39.1956C158.689 39.1956 158.769 39.2282 158.832 39.2936C158.896 39.3589 158.928 39.446 158.928 39.5548C158.928 39.6854 158.9 39.8438 158.844 40.0298L158.479 41.2737C158.433 41.4241 158.41 41.5072 158.41 41.5231C158.41 41.5508 158.419 41.5735 158.436 41.5913C158.453 41.6092 158.472 41.6181 158.494 41.6181C158.52 41.6181 158.55 41.6052 158.584 41.5795C158.698 41.4924 158.81 41.3717 158.922 41.2173L159.015 41.2737C158.947 41.3786 158.853 41.4939 158.732 41.6195C158.611 41.7452 158.507 41.8323 158.421 41.8808C158.334 41.9293 158.256 41.9535 158.188 41.9535C158.115 41.9535 158.054 41.9303 158.007 41.8838C157.96 41.8373 157.937 41.7774 157.937 41.7042C157.937 41.6171 157.972 41.4548 158.042 41.2173L158.386 40.0298C158.43 39.8814 158.452 39.7646 158.452 39.6795C158.452 39.6399 158.44 39.6082 158.415 39.5845C158.39 39.5607 158.357 39.5489 158.317 39.5489C158.259 39.5489 158.193 39.5706 158.12 39.6142C157.984 39.6973 157.827 39.8517 157.649 40.0773C157.601 40.1387 157.442 40.386 157.17 40.8195C157.086 40.958 157.017 41.1094 156.963 41.2737L156.772 41.8823H156.322L157.308 38.4861L157.413 38.118C157.413 38.0665 157.391 38.021 157.348 37.9814C157.305 37.9418 157.253 37.922 157.191 37.922C157.155 37.922 157.1 37.928 157.026 37.9398L156.963 37.9487V37.833L158 37.6608ZM162.027 40.1248C162.027 40.4217 161.947 40.7156 161.789 41.0065C161.63 41.2974 161.409 41.528 161.125 41.6982C160.842 41.8684 160.566 41.9535 160.298 41.9535C160.025 41.9535 159.802 41.8669 159.629 41.6938C159.456 41.5206 159.37 41.2965 159.37 41.0214C159.37 40.7304 159.454 40.4385 159.623 40.1456C159.792 39.8527 160.017 39.6211 160.3 39.4509C160.582 39.2807 160.855 39.1956 161.119 39.1956C161.383 39.1956 161.6 39.2817 161.771 39.4539C161.941 39.6261 162.027 39.8497 162.027 40.1248ZM161.529 39.92C161.529 39.7359 161.484 39.5949 161.393 39.4969C161.302 39.399 161.185 39.35 161.041 39.35C160.748 39.35 160.478 39.5583 160.231 39.9749C159.984 40.3915 159.861 40.8056 159.861 41.2173C159.861 41.4053 159.909 41.5503 160.005 41.6522C160.101 41.7541 160.221 41.8051 160.367 41.8051C160.649 41.8051 160.913 41.5978 161.16 41.1831C161.406 40.7685 161.529 40.3475 161.529 39.92ZM163.679 41.9743L164.015 40.481H164.117C164.103 40.6255 164.096 40.7453 164.096 40.8403C164.096 41.1114 164.183 41.3321 164.358 41.5023C164.533 41.6725 164.761 41.7576 165.042 41.7576C165.304 41.7576 165.503 41.6779 165.638 41.5186C165.774 41.3593 165.842 41.1757 165.842 40.9679C165.842 40.8333 165.811 40.7106 165.749 40.5998C165.655 40.4355 165.405 40.1466 164.997 39.7329C164.8 39.535 164.673 39.3876 164.617 39.2906C164.525 39.1303 164.479 38.9621 164.479 38.7859C164.479 38.5049 164.585 38.2644 164.797 38.0645C165.008 37.8646 165.28 37.7647 165.611 37.7647C165.723 37.7647 165.829 37.7756 165.929 37.7973C165.991 37.8092 166.104 37.8488 166.267 37.9161C166.383 37.9616 166.447 37.9863 166.459 37.9903C166.487 37.9962 166.518 37.9992 166.552 37.9992C166.61 37.9992 166.66 37.9844 166.702 37.9547C166.744 37.925 166.793 37.8617 166.848 37.7647H166.962L166.651 39.1006H166.549C166.557 38.9818 166.561 38.8859 166.561 38.8126C166.561 38.5732 166.481 38.3772 166.321 38.2248C166.162 38.0724 165.951 37.9962 165.689 37.9962C165.482 37.9962 165.313 38.0566 165.183 38.1773C165.053 38.2981 164.988 38.4376 164.988 38.5959C164.988 38.7345 165.03 38.8666 165.113 38.9922C165.196 39.1179 165.386 39.3228 165.685 39.6068C165.983 39.8908 166.177 40.1124 166.264 40.2718C166.352 40.4311 166.396 40.6008 166.396 40.7809C166.396 40.9847 166.342 41.1822 166.233 41.3731C166.124 41.5641 165.968 41.7121 165.764 41.817C165.561 41.9219 165.338 41.9743 165.096 41.9743C164.976 41.9743 164.865 41.9634 164.761 41.9417C164.657 41.9199 164.491 41.8664 164.264 41.7813C164.186 41.7517 164.121 41.7368 164.069 41.7368C163.951 41.7368 163.859 41.816 163.793 41.9743H163.679ZM168.222 38.4594L167.988 39.2668H168.458L168.407 39.4539H167.94L167.425 41.2054C167.369 41.3934 167.341 41.5152 167.341 41.5706C167.341 41.6042 167.349 41.6299 167.365 41.6478C167.381 41.6656 167.4 41.6745 167.422 41.6745C167.472 41.6745 167.538 41.6398 167.619 41.5706C167.667 41.531 167.774 41.4093 167.94 41.2054L168.039 41.2796C167.855 41.5448 167.681 41.7319 167.518 41.8407C167.406 41.9159 167.293 41.9535 167.179 41.9535C167.091 41.9535 167.019 41.9263 166.964 41.8719C166.908 41.8175 166.88 41.7477 166.88 41.6626C166.88 41.5557 166.912 41.3924 166.975 41.1728L167.476 39.4539H167.023L167.053 39.3381C167.273 39.2787 167.456 39.1902 167.602 39.0724C167.747 38.9546 167.91 38.7503 168.09 38.4594H168.222ZM171.143 39.2668L170.622 41.0362C170.544 41.2994 170.505 41.4657 170.505 41.5349C170.505 41.5706 170.512 41.5968 170.525 41.6136C170.538 41.6304 170.555 41.6388 170.577 41.6388C170.611 41.6388 170.648 41.6235 170.689 41.5928C170.73 41.5622 170.834 41.4399 170.999 41.2262L171.089 41.2945C170.931 41.5419 170.77 41.7239 170.604 41.8407C170.494 41.9159 170.388 41.9535 170.286 41.9535C170.209 41.9535 170.148 41.9318 170.104 41.8882C170.06 41.8447 170.038 41.7883 170.038 41.719C170.038 41.6517 170.051 41.5627 170.077 41.4518C170.109 41.3054 170.2 40.9867 170.349 40.4959C170.01 41.0481 169.726 41.4291 169.497 41.6388C169.269 41.8486 169.056 41.9535 168.861 41.9535C168.769 41.9535 168.691 41.9219 168.627 41.8585C168.563 41.7952 168.531 41.715 168.531 41.6181C168.531 41.4696 168.575 41.242 168.663 40.9353L168.924 40.0179C168.988 39.7982 169.02 39.6617 169.02 39.6082C169.02 39.5845 169.011 39.5642 168.994 39.5474C168.977 39.5306 168.959 39.5222 168.939 39.5222C168.897 39.5222 168.855 39.537 168.813 39.5667C168.771 39.5964 168.676 39.7062 168.528 39.8962L168.435 39.8309C168.585 39.6013 168.744 39.4321 168.912 39.3233C169.039 39.2381 169.157 39.1956 169.265 39.1956C169.339 39.1956 169.399 39.2188 169.446 39.2654C169.493 39.3119 169.517 39.3717 169.517 39.445C169.517 39.5518 169.477 39.7428 169.397 40.0179L169.115 40.9768C169.037 41.2381 168.999 41.4033 168.999 41.4726C168.999 41.5102 169.011 41.5404 169.036 41.5631C169.061 41.5859 169.094 41.5973 169.136 41.5973C169.202 41.5973 169.288 41.5646 169.394 41.4993C169.5 41.434 169.641 41.289 169.818 41.0644C169.994 40.8398 170.14 40.629 170.255 40.4321C170.37 40.2351 170.492 39.9219 170.622 39.4925L170.688 39.2668H171.143ZM172.84 38.4594L172.606 39.2668H173.076L173.025 39.4539H172.558L172.043 41.2054C171.987 41.3934 171.959 41.5152 171.959 41.5706C171.959 41.6042 171.967 41.6299 171.983 41.6478C171.999 41.6656 172.018 41.6745 172.04 41.6745C172.09 41.6745 172.156 41.6398 172.238 41.5706C172.286 41.531 172.392 41.4093 172.558 41.2054L172.657 41.2796C172.473 41.5448 172.3 41.7319 172.136 41.8407C172.024 41.9159 171.911 41.9535 171.797 41.9535C171.709 41.9535 171.638 41.9263 171.582 41.8719C171.526 41.8175 171.498 41.7477 171.498 41.6626C171.498 41.5557 171.53 41.3924 171.594 41.1728L172.094 39.4539H171.642L171.672 39.3381C171.891 39.2787 172.074 39.1902 172.22 39.0724C172.365 38.9546 172.528 38.7503 172.708 38.4594H172.84ZM174.467 38.4594L174.234 39.2668H174.704L174.653 39.4539H174.186L173.671 41.2054C173.615 41.3934 173.587 41.5152 173.587 41.5706C173.587 41.6042 173.595 41.6299 173.611 41.6478C173.627 41.6656 173.646 41.6745 173.668 41.6745C173.718 41.6745 173.783 41.6398 173.865 41.5706C173.913 41.531 174.02 41.4093 174.186 41.2054L174.285 41.2796C174.101 41.5448 173.927 41.7319 173.763 41.8407C173.652 41.9159 173.539 41.9535 173.425 41.9535C173.337 41.9535 173.265 41.9263 173.209 41.8719C173.153 41.8175 173.125 41.7477 173.125 41.6626C173.125 41.5557 173.157 41.3924 173.221 41.1728L173.722 39.4539H173.269L173.299 39.3381C173.519 39.2787 173.702 39.1902 173.847 39.0724C173.993 38.9546 174.156 38.7503 174.336 38.4594H174.467ZM175.232 40.7631C175.218 40.862 175.211 40.9442 175.211 41.0095C175.211 41.1856 175.274 41.3355 175.4 41.4592C175.526 41.5829 175.679 41.6448 175.858 41.6448C176.002 41.6448 176.14 41.6156 176.273 41.5572C176.406 41.4988 176.603 41.3697 176.865 41.1698L176.928 41.2559C176.454 41.721 176.003 41.9535 175.574 41.9535C175.282 41.9535 175.063 41.8625 174.915 41.6804C174.767 41.4983 174.693 41.2974 174.693 41.0778C174.693 40.7829 174.785 40.4811 174.969 40.1723C175.152 39.8636 175.383 39.6236 175.661 39.4524C175.938 39.2812 176.224 39.1956 176.517 39.1956C176.729 39.1956 176.886 39.2381 176.988 39.3233C177.089 39.4084 177.14 39.5093 177.14 39.6261C177.14 39.7903 177.074 39.9477 176.943 40.0981C176.769 40.294 176.513 40.4524 176.176 40.5731C175.952 40.6542 175.638 40.7176 175.232 40.7631ZM175.253 40.6176C175.549 40.584 175.789 40.5266 175.975 40.4454C176.221 40.3366 176.405 40.2064 176.528 40.055C176.651 39.9036 176.712 39.7597 176.712 39.6231C176.712 39.54 176.686 39.4727 176.633 39.4212C176.58 39.3698 176.504 39.344 176.407 39.344C176.203 39.344 175.987 39.4514 175.758 39.6661C175.529 39.8809 175.361 40.198 175.253 40.6176ZM177.468 39.3618L178.501 39.1956L178.07 40.6384C178.42 40.0466 178.737 39.633 179.023 39.3975C179.184 39.2629 179.316 39.1956 179.418 39.1956C179.484 39.1956 179.536 39.2149 179.574 39.2535C179.612 39.2921 179.631 39.348 179.631 39.4212C179.631 39.5518 179.597 39.6765 179.529 39.7953C179.481 39.8843 179.412 39.9289 179.322 39.9289C179.276 39.9289 179.237 39.914 179.204 39.8843C179.171 39.8546 179.15 39.8091 179.142 39.7478C179.138 39.7102 179.129 39.6854 179.115 39.6736C179.099 39.6577 179.081 39.6498 179.059 39.6498C179.025 39.6498 178.993 39.6577 178.963 39.6736C178.911 39.7013 178.832 39.7785 178.726 39.9051C178.56 40.0991 178.381 40.3504 178.187 40.6592C178.103 40.7898 178.031 40.9372 177.971 41.1015C177.887 41.3271 177.839 41.4627 177.827 41.5082L177.732 41.8823H177.273L177.827 40.0387C177.891 39.825 177.923 39.6726 177.923 39.5815C177.923 39.5459 177.908 39.5162 177.878 39.4925C177.838 39.4608 177.786 39.445 177.72 39.445C177.678 39.445 177.601 39.4539 177.489 39.4717L177.468 39.3618Z" fill="black"/>
<path fill-rule="evenodd" clip-rule="evenodd" d="M194.459 35.1316H23.6482V34.5947H194.459V35.1316Z" fill="black"/>
</svg>
