<svg width="160" height="56" viewBox="0 0 160 56" fill="none" xmlns="http://www.w3.org/2000/svg">
<path d="M144.091 43.494H148.453L155.999 24.3705H151.682L148.563 33.8949L145.277 24.3705H140.458L146.196 38.1839L144.091 43.494ZM122.444 28.9102V38.7128H118.044V24.3705H121.135L122.054 25.6234C123.252 24.6212 124.533 24.036 126.009 24.036C127.986 24.036 129.49 24.6212 130.409 26.0699C131.746 24.8438 133.166 24.036 134.977 24.036C138.374 24.036 140.352 25.791 140.352 30.5532V38.7128H135.952V31.0546C135.952 28.8545 135.06 28.2137 133.639 28.2137C132.804 28.2137 132.108 28.4362 131.328 28.9376C131.384 29.4391 131.412 29.968 131.412 30.5532V38.7128H127.012V31.0546C127.012 28.8545 126.12 28.2137 124.672 28.2137C123.864 28.2137 123.196 28.4087 122.444 28.9102ZM107.097 30.1356H112.751C112.445 28.27 111.442 27.3784 109.938 27.3784C108.657 27.3784 107.432 28.1306 107.097 30.1356ZM110.245 38.9916C106.011 38.9916 102.613 36.9028 102.613 31.3885C102.613 26.2361 105.9 24.0085 109.688 24.0085C114.255 24.0085 116.288 27.2108 116.288 32.2519H107.069C107.376 34.7302 108.908 35.4549 110.941 35.4549C112.907 35.4549 114.446 34.9696 115.636 34.1689L115.039 37.6592C113.903 38.5367 112.539 38.9916 110.245 38.9916ZM93.8601 35.2879C94.8623 35.2879 95.6144 35.1203 96.394 34.5358V28.2975C95.6982 27.8791 95.0024 27.6848 93.9995 27.6848C91.8551 27.6848 90.6297 29.1327 90.6297 31.5554C90.6297 33.9231 91.8832 35.2879 93.8601 35.2879ZM97.2574 37.655C96.1158 38.5184 94.8073 39.0473 92.9411 39.0473C89.0141 39.0473 86.1738 36.6246 86.1738 31.6392C86.1738 26.6819 89.4324 24.0085 93.6094 24.0085C94.5841 24.0085 95.5313 24.148 96.394 24.4818V18.3942H100.795V38.7128H98.0096L97.2574 37.655ZM67.5293 30.2187V19.5893H72.0964V30.1356C72.0964 33.9231 73.7951 34.7027 76.1346 34.7027C78.6693 34.7027 79.9778 33.5886 79.9778 30.1356V19.5893H84.573V30.2187C84.573 36.4852 81.8441 39.1029 75.9121 39.1029C70.3977 39.1029 67.5293 36.8472 67.5293 30.2187Z" fill="#645A53"/>
<path d="M55.8905 31.016C55.7053 30.8674 55.4969 30.7674 55.2701 30.7244C53.9306 32.0597 52.296 33.4661 50.8445 34.4112C50.1748 34.8563 49.3325 35.0788 48.7747 35.0788C47.4908 35.0788 46.9331 33.8548 46.7655 31.909C46.5422 29.2955 46.3915 26.165 46.3915 21.3268C46.3915 16.3646 45.2654 12.9912 42.2653 12.7264C42.1385 12.7151 42.0103 12.7074 41.8765 12.7074C40.0349 12.7074 39.1419 13.6525 37.97 16.0441C36.9657 18.1013 35.403 21.1042 32.5014 26.7763C29.99 31.6702 27.1998 36.0078 24.7996 39.0107C24.1313 39.8431 23.6031 40.415 23.1066 40.7404C22.7749 40.9587 22.4566 41.0678 22.1214 41.0678C21.1741 41.0678 20.4825 40.2685 20.2515 38.4072C20.1966 37.9649 20.1677 37.4627 20.1677 36.8972C20.1677 33.0604 21.6192 26.832 24.1299 17.6562C25.9715 10.9833 25.1905 6.42398 21.172 6.42398C21.1657 6.42398 21.1593 6.42398 21.153 6.42398C21.1445 6.42398 21.1361 6.42398 21.1269 6.42398L21.1241 6.42468C20.2142 6.43525 19.46 6.76484 18.7332 7.3367C18.0176 7.90011 17.3014 9.11706 16.6331 10.7531C15.8795 12.5961 11.2976 21.7867 4.00501 26.5214C3.91909 28.3215 4.93816 30.1209 7.00304 30.3159C8.88271 30.4941 10.2173 29.7018 11.9357 28.5475C11.8068 29.1215 11.6878 29.6582 11.5793 30.149C11.4511 30.7286 11.342 31.2287 11.2546 31.6322C11.1237 32.2329 11.0406 32.6196 11.0159 32.7266C10.7772 33.8217 10.6067 34.8619 10.4962 35.8493C9.46795 45.0406 13.728 49.576 18.717 49.576C19.5508 49.576 20.3769 49.4767 21.1974 49.2682C26.6941 47.8745 31.9859 41.5693 38.2496 27.0545C38.1545 28.6335 38.1446 30.1082 38.213 31.4766C38.6256 39.7953 41.9159 42.2911 46.5648 42.2911C50.0804 42.2911 53.3728 40.4566 55.0468 38.1762C56.2751 36.5634 56.7772 34.7838 56.7772 33.3935C56.7772 32.3146 56.4349 31.4533 55.8905 31.016Z" fill="#EA5252"/>
</svg>
