<svg width="160" height="160" viewBox="0 0 160 160" fill="none" xmlns="http://www.w3.org/2000/svg">
<path d="M156 4H4V156H156V4Z" fill="#0081C6"/>
<path d="M82.3806 25.4679C82.6645 25.4242 82.8392 25.1622 82.7956 24.8783C82.7519 24.5943 82.4898 24.4196 82.2059 24.4633C81.922 24.507 81.7473 24.7691 81.791 25.053C81.8346 25.315 82.0967 25.5116 82.3806 25.4679Z" fill="#FEFEFE"/>
<path d="M80.5243 38.0909C79.9783 38.1783 79.5852 38.7024 79.6944 39.2702C79.7818 39.8162 80.3059 40.2093 80.8737 40.1001C81.4415 39.9909 81.8128 39.4886 81.7036 38.9208C81.6163 38.3748 81.0921 37.9817 80.5243 38.0909Z" fill="#FEFEFE"/>
<path d="M77.7944 39.1829C77.2484 39.2702 76.8553 39.7943 76.9645 40.3622C77.0519 40.9081 77.576 41.3012 78.1438 41.1921C78.6898 41.1047 79.0829 40.5806 78.9737 40.0127C78.8645 39.4668 78.3404 39.0737 77.7944 39.1829Z" fill="#FEFEFE"/>
<path d="M80.0438 34.9242C80.5243 34.8369 80.8519 34.3783 80.7864 33.8978C80.699 33.4173 80.2404 33.0898 79.7599 33.1553C79.2795 33.2426 78.9519 33.7012 79.0174 34.1817C79.0829 34.684 79.5634 35.0116 80.0438 34.9242Z" fill="#FEFEFE"/>
<path d="M79.7163 24.2886C80.0002 24.2449 80.1749 23.9829 80.1312 23.6989C80.0875 23.415 79.8254 23.2403 79.5415 23.284C79.2576 23.3277 79.0829 23.5898 79.1266 23.8737C79.1921 24.1576 79.4542 24.3323 79.7163 24.2886Z" fill="#FEFEFE"/>
<path d="M82.3369 37.4139C82.4243 37.938 82.9266 38.3093 83.4507 38.2219C83.9749 38.1346 84.3461 37.6323 84.2588 37.1081C84.1714 36.584 83.6691 36.2127 83.145 36.3001C82.599 36.3656 82.2496 36.8679 82.3369 37.4139Z" fill="#FEFEFE"/>
<path d="M85.8094 31.8449C85.5036 31.8886 85.2852 32.1943 85.3289 32.5001C85.3726 32.8058 85.6783 33.0242 85.9841 32.9806C86.2898 32.9369 86.5082 32.6311 86.4645 32.3254C86.4209 31.9978 86.1151 31.7794 85.8094 31.8449Z" fill="#FEFEFE"/>
<path d="M71.9416 39.6852C71.3956 39.7725 71.0025 40.2966 71.1117 40.8645C71.199 41.4104 71.7232 41.8035 72.291 41.6944C72.837 41.607 73.2301 41.0829 73.1209 40.515C73.0117 39.9691 72.4875 39.5978 71.9416 39.6852Z" fill="#FEFEFE"/>
<path d="M74.868 39.8162C74.322 39.9035 73.9289 40.4277 74.0381 40.9955C74.1255 41.5415 74.6496 41.9346 75.2174 41.8254C75.7634 41.738 76.1565 41.2139 76.0473 40.6461C75.9381 40.1001 75.414 39.7288 74.868 39.8162Z" fill="#FEFEFE"/>
<path d="M84.4553 27.4334C84.7392 27.3898 84.914 27.1277 84.8703 26.8438C84.8266 26.5599 84.5645 26.3852 84.2806 26.4288C83.9967 26.4725 83.822 26.7346 83.8657 27.0185C83.9312 27.3024 84.1933 27.4771 84.4553 27.4334Z" fill="#FEFEFE"/>
<path d="M84.368 35.1426C84.4335 35.5357 84.8048 35.7978 85.1979 35.7323C85.591 35.6668 85.853 35.2955 85.7875 34.9024C85.722 34.5093 85.3508 34.2472 84.9576 34.3127C84.5645 34.3564 84.3025 34.7277 84.368 35.1426Z" fill="#FEFEFE"/>
<path d="M85.7438 30.1415C86.0496 30.0978 86.268 29.7921 86.2243 29.4863C86.1806 29.1806 85.8749 28.9622 85.5691 29.0058C85.2634 29.0495 85.045 29.3553 85.0887 29.661C85.1323 29.9886 85.4381 30.1852 85.7438 30.1415Z" fill="#FEFEFE"/>
<path d="M68.1415 27.6081C68.4473 27.5645 68.6657 27.2587 68.622 26.953C68.5783 26.6472 68.2726 26.4288 67.9668 26.4725C67.6611 26.5162 67.4427 26.8219 67.4864 27.1277C67.5301 27.4553 67.8358 27.6518 68.1415 27.6081Z" fill="#FEFEFE"/>
<path d="M70.6749 24.9875C70.6312 24.7035 70.3691 24.5288 70.0852 24.5725C69.8013 24.6162 69.6266 24.8783 69.6703 25.1622C69.714 25.4461 69.976 25.6208 70.2599 25.5771C70.5438 25.5334 70.7404 25.2714 70.6749 24.9875Z" fill="#FEFEFE"/>
<path d="M76.4404 23.9173C76.7243 23.8737 76.899 23.6116 76.8553 23.3277C76.8117 23.0438 76.5496 22.8691 76.2657 22.9127C75.9818 22.9564 75.8071 23.2185 75.8507 23.5024C75.9163 23.7863 76.1783 23.961 76.4404 23.9173Z" fill="#FEFEFE"/>
<path d="M74.6496 37.0863C74.7369 37.1081 74.8461 37.1081 74.9553 37.0863C75.5013 36.9989 75.8944 36.4748 75.7852 35.907C75.6979 35.3829 75.2174 35.0334 74.6933 35.0553C74.6714 35.0553 74.6278 35.0553 74.6059 35.0553C74.0599 35.1426 73.6668 35.6668 73.776 36.2346C73.8415 36.6932 74.2128 37.0208 74.6496 37.0863Z" fill="#FEFEFE"/>
<path d="M76.6151 35.5576C76.6151 36.1035 77.0519 36.5185 77.5979 36.5185C78.1002 36.5185 78.4933 36.1472 78.5588 35.6668C78.5588 35.6231 78.5806 35.5794 78.5806 35.5357C78.5806 34.9898 78.1438 34.553 77.5979 34.553C77.0519 34.553 76.6151 35.0116 76.6151 35.5576Z" fill="#FEFEFE"/>
<path d="M73.0553 24.3323C73.3392 24.2886 73.514 24.0265 73.4703 23.7426C73.4266 23.4587 73.1645 23.284 72.8806 23.3277C72.5967 23.3714 72.422 23.6334 72.4657 23.9173C72.5312 24.2012 72.7933 24.376 73.0553 24.3323Z" fill="#FEFEFE"/>
<path fill-rule="evenodd" clip-rule="evenodd" d="M87.5783 77.7507C87.5347 81.9001 86.4645 87.7748 80.9392 89.3472L89.2599 87.9058C89.8496 84.8702 90.1117 81.7472 89.8714 78.515C89.6312 74.999 88.7795 72.0507 87.2944 67.7921C86.7703 66.307 86.0933 64.8438 85.4163 63.4242L85.4029 63.3959C84.4897 61.4608 83.5358 59.4394 83.0576 57.3748C82.6427 55.6495 82.9266 55.1035 83.0576 54.9507C83.1232 54.8852 83.2324 54.7978 83.5381 54.8196C84.157 54.8837 84.8176 55.3022 85.4588 55.7085L85.5036 55.7369L85.5961 55.7934C85.9521 56.0114 86.2755 56.2093 86.6174 56.3702C88.3864 57.2001 89.7841 57.3093 90.876 56.676C91.7282 56.186 91.9361 55.2596 92.1282 54.4036L92.1427 54.3392C92.2519 53.8587 92.3611 53.3783 92.5576 53.0288C92.645 52.876 92.8197 52.8104 93.1255 52.7449L93.1687 52.7332C93.3969 52.6713 93.6421 52.6048 93.868 52.461C94.1082 52.3081 94.2611 52.0461 94.3048 51.7403C94.3266 51.653 94.3266 51.5656 94.3266 51.4783C94.3266 51.1288 94.2393 50.7357 94.1082 50.3645C94.7634 50.2553 95.4186 50.0587 95.9427 49.6438C96.0519 49.5783 96.0956 49.4691 96.0956 49.3599C96.0956 49.3162 96.0956 49.2944 96.0737 49.2507L96.0301 49.1196C95.9645 48.9449 95.9427 48.7484 95.9427 48.5518C95.9427 48.2461 96.0082 47.9403 96.1393 47.6783C96.3576 47.2196 96.7507 47.1104 97.3841 46.9576C97.8864 46.8484 98.4542 46.7173 98.8691 46.2587C99.0875 46.0185 99.1749 45.7127 99.1749 45.3633C99.1749 44.4242 98.5415 43.2012 98.0829 42.415L97.8427 42.0219C97.2094 40.9737 96.6197 39.9909 96.1393 38.8989C96.0301 38.6369 95.9645 38.3311 95.9645 38.0254C95.9645 37.7196 96.0519 37.4357 96.2266 37.261C97.0128 36.5185 97.4059 35.5357 97.4059 34.3564V34.0944C97.4059 34.0944 97.2967 33.1553 97.1875 32.1944C97.1657 31.9104 97.1438 31.6265 97.1002 31.3426C97.0783 30.9932 97.0347 30.6219 96.9691 30.338C96.9691 30.2943 96.9473 30.2507 96.9255 30.2288C95.5059 23.6771 89.1289 19.6587 79.2358 19.2875C70.4565 18.9599 61.8956 23.9173 60.8473 29.9012C60.8473 29.9122 60.8418 29.9285 60.8364 29.9449C60.8309 29.9613 60.8255 29.9777 60.8255 29.9886V30.0323C60.8036 30.0541 60.8036 30.076 60.8036 30.0978V30.1852C60.7818 30.207 60.7818 30.2288 60.7818 30.2507V30.338C60.7599 30.3599 60.7599 30.3817 60.7599 30.4035V30.4909C60.7381 30.5127 60.7381 30.5346 60.7381 30.5564V30.6001C60.7163 30.6219 60.7163 30.6438 60.7163 30.6656V30.7311C60.6944 30.753 60.6944 30.7748 60.6944 30.7966V30.884C60.6726 30.9058 60.6726 30.9277 60.6726 30.9495V31.015C60.6507 31.0369 60.6507 31.0587 60.6507 31.0806C60.6289 31.1242 60.6289 31.1461 60.6289 31.1898C60.6289 31.2007 60.6234 31.2171 60.618 31.2334C60.6125 31.2498 60.6071 31.2662 60.6071 31.2771C60.6071 31.3099 60.6016 31.3481 60.5961 31.3863C60.5907 31.4245 60.5852 31.4627 60.5852 31.4955C60.5634 31.5173 60.5634 31.5173 60.5634 31.5392C60.214 33.4392 60.7599 35.361 62.1358 37.0645C63.6209 38.9208 65.8921 40.3403 68.622 41.1921L68.6313 41.1937C68.8925 41.2414 70.1105 41.4637 70.391 40.4714C70.6094 39.6852 70.0852 39.2921 69.7358 39.1173C66.9186 38.3093 64.5599 36.9116 63.0749 35.0553C63.0094 34.9898 62.9438 34.9024 62.8783 34.815C61.8082 33.33 61.3933 31.7357 61.6553 30.1415C62.0921 27.5426 64.2105 24.9219 67.4864 23.0001C70.9369 20.9691 75.1301 19.9426 79.3013 20.0955C84.3898 20.292 88.6703 21.515 91.6622 23.6116C94.2392 25.4461 95.8117 27.8484 96.3358 30.7966C96.374 31.026 96.4122 31.3724 96.4505 31.7188L96.4582 31.7887C96.4611 31.8148 96.4639 31.8408 96.4668 31.8668C96.4887 32.1288 96.4887 32.3909 96.4887 32.6311C96.4887 32.8932 96.4887 33.1334 96.4668 33.33C96.4231 33.7886 96.1393 34.4656 95.8772 34.8806C95.7789 35.028 95.6806 35.1385 95.5823 35.2491C95.5496 35.286 95.5168 35.3228 95.4841 35.361L95.4779 35.3679C95.2829 35.5845 95.0677 35.8235 94.9381 36.1909C94.8726 36.4311 94.8289 36.6932 94.8289 36.9553C94.8289 38.2656 95.6151 39.8162 96.0082 40.515L96.0737 40.6242C96.6852 41.7162 97.2312 42.6553 97.8864 43.7035C97.93 43.7691 97.9956 43.9219 98.0392 44.053C98.0392 44.0857 98.0447 44.113 98.0502 44.1403C98.0556 44.1676 98.0611 44.1949 98.0611 44.2277C98.0611 44.3806 98.0174 44.5334 97.9301 44.6645C97.799 44.8829 97.3841 44.9484 97.0565 44.9921L96.8599 45.0357C96.1393 45.1668 95.5496 45.5599 95.1565 46.1714C94.9381 46.5208 94.8726 46.9139 94.8726 47.2852C94.8726 47.6127 94.9381 47.8967 94.9818 48.0714C94.7197 48.2461 93.8461 48.4645 93.0163 48.5737C92.9726 48.5737 92.9289 48.5955 92.8852 48.6173C92.8415 48.6465 92.8173 48.6756 92.793 48.7047C92.7809 48.7193 92.7688 48.7338 92.7542 48.7484C92.7542 48.7593 92.7487 48.7648 92.7433 48.7702C92.7378 48.7757 92.7323 48.7811 92.7323 48.7921C92.7278 48.8057 92.7232 48.8184 92.7189 48.8306C92.7023 48.8767 92.6887 48.9149 92.6887 48.9668V49.0104C92.7012 49.023 92.7066 49.0283 92.7088 49.0348C92.7105 49.0395 92.7105 49.0448 92.7105 49.0541V49.0978C92.7105 49.0978 92.8852 49.5346 92.9944 49.8403L93.0197 49.9121C93.1314 50.2289 93.1736 50.3485 93.2346 50.43C93.2346 50.43 93.2565 50.4518 93.2783 50.4955C93.2346 50.6921 92.9289 50.8231 92.8634 50.8449C91.837 51.1944 91.5312 51.4564 91.1818 52.5921L91.0289 53.1162C90.6795 54.3829 90.4392 55.038 89.2818 55.1909C87.8175 55.3847 86.0984 54.347 84.8364 53.5852L84.7829 53.553L84.6956 53.4875C83.6036 52.8104 82.9266 52.9415 82.5553 53.1599C82.2278 53.3783 81.8565 53.815 81.8565 54.8415V55.1254C81.961 56.7971 82.5853 58.4088 83.1938 59.9797L83.276 60.1921L83.5599 60.9346C83.8657 61.7208 84.2151 62.507 84.5645 63.2714C84.5998 63.3504 84.6352 63.4295 84.6707 63.5087L84.6718 63.5112C85.0969 64.4607 85.5291 65.4259 85.8312 66.3725C86.3117 67.8357 86.6829 69.3863 86.9887 71.1116C87.2507 72.553 87.4255 74.038 87.5128 75.5668C87.4255 74.3001 87.2726 73.4921 87.2726 73.4921L87.5346 76.0472C87.5565 76.615 87.5783 77.1829 87.5783 77.7507ZM71.0898 40.8645C71.1772 41.4104 71.7232 41.7817 72.2691 41.6944C72.8151 41.607 73.2082 41.0829 73.099 40.515C73.0117 39.9691 72.4657 39.5978 71.9197 39.6852C71.3737 39.7725 71.0025 40.3185 71.0898 40.8645ZM74.0163 40.9955C74.1036 41.5415 74.6496 41.9127 75.1956 41.8254C75.7634 41.738 76.1346 41.2139 76.0255 40.6461C75.9381 40.1001 75.3921 39.7288 74.8461 39.8162C74.3002 39.9035 73.9289 40.4495 74.0163 40.9955ZM85.9841 32.9587C86.3117 32.915 86.5082 32.6093 86.4645 32.3035C86.4209 31.9978 86.1151 31.7794 85.8094 31.8231C85.4818 31.8668 85.2852 32.1725 85.3289 32.4783C85.3726 32.8058 85.6783 33.0024 85.9841 32.9587ZM86.2243 29.4863C86.1806 29.1587 85.8749 28.9622 85.5691 29.0058C85.2415 29.0714 85.045 29.3553 85.0887 29.661C85.1323 29.9886 85.4381 30.1852 85.7438 30.1415C86.0714 30.0978 86.268 29.7921 86.2243 29.4863ZM85.2197 35.7323C85.6128 35.6668 85.8749 35.2955 85.8094 34.9024C85.7439 34.4875 85.3507 34.2254 84.9795 34.3127C84.5864 34.3783 84.3243 34.7495 84.3898 35.1426C84.4553 35.5357 84.8266 35.7978 85.2197 35.7323ZM84.8921 26.8656C84.8266 26.5817 84.5864 26.407 84.3025 26.4507C84.0186 26.4944 83.8438 26.7564 83.8875 27.0403C83.953 27.3242 84.1933 27.4989 84.4772 27.4553C84.7611 27.3898 84.9358 27.1495 84.8921 26.8656ZM83.4507 38.2001C83.9967 38.1127 84.3461 37.6104 84.2588 37.0863C84.1714 36.5622 83.6691 36.1909 83.145 36.2783C82.599 36.3656 82.2496 36.8679 82.3369 37.392C82.4243 37.938 82.9266 38.2875 83.4507 38.2001ZM82.7956 24.8783C82.73 24.5943 82.4898 24.4196 82.2059 24.4633C81.9438 24.507 81.7473 24.7691 81.791 25.053C81.8565 25.3369 82.0967 25.5116 82.3806 25.4679C82.6645 25.4024 82.8392 25.1622 82.7956 24.8783ZM79.6944 39.2702C79.7818 39.8162 80.3278 40.1875 80.8737 40.1001C81.4197 40.0127 81.791 39.4668 81.7036 38.9208C81.6163 38.3748 81.0703 38.0035 80.5243 38.0909C79.9783 38.1783 79.6071 38.7242 79.6944 39.2702ZM80.9611 32.3909C81.3542 32.3254 81.6163 31.9541 81.5507 31.561C81.4852 31.1679 81.114 30.9058 80.7209 30.9714C80.3278 31.0369 80.0657 31.4081 80.1312 31.8012C80.1967 32.1944 80.568 32.4564 80.9611 32.3909ZM80.022 29.8139C80.3496 29.7702 80.5461 29.4645 80.5025 29.1587C80.4369 28.853 80.153 28.6346 79.8473 28.6783C79.5197 28.7219 79.3232 29.0277 79.3668 29.3334C79.4105 29.661 79.7163 29.8576 80.022 29.8139ZM80.153 23.6989C80.0875 23.415 79.8473 23.2403 79.5634 23.284C79.2795 23.3495 79.1048 23.5898 79.1484 23.8737C79.214 24.1576 79.4542 24.3323 79.7381 24.2886C80.022 24.2231 80.1967 23.9829 80.153 23.6989ZM80.7645 33.9196C80.6772 33.4173 80.2186 33.0898 79.7381 33.1771C79.2576 33.2426 78.93 33.7012 78.9956 34.2035C79.0829 34.7058 79.5415 35.0334 80.022 34.9461C80.5243 34.8587 80.8519 34.4001 80.7645 33.9196ZM78.122 41.1921C78.668 41.1047 79.0392 40.5587 78.9519 40.0127C78.8645 39.4668 78.3404 39.0737 77.7726 39.1829C77.2266 39.2702 76.8553 39.8162 76.9427 40.3622C77.0301 40.9081 77.576 41.2794 78.122 41.1921ZM78.1002 28.176C78.0565 27.8484 77.7507 27.6518 77.445 27.6955C77.1174 27.7392 76.9209 28.0449 76.9645 28.3507C77.0082 28.6783 77.314 28.8748 77.6197 28.8311C77.9473 28.7875 78.1438 28.4817 78.1002 28.176ZM78.5588 35.5576C78.5588 35.0116 78.122 34.5748 77.576 34.5748C77.0519 34.5748 76.6151 35.0116 76.5933 35.5794C76.6151 36.1035 77.0301 36.5403 77.576 36.5403C78.0783 36.5403 78.4714 36.1691 78.5369 35.6886C78.5588 35.6449 78.5588 35.6012 78.5588 35.5576ZM76.8772 23.3495C76.8117 23.0656 76.5714 22.8909 76.2875 22.9346C76.0036 22.9783 75.8289 23.2403 75.8726 23.5242C75.9381 23.8081 76.1783 23.9829 76.4622 23.9392C76.7461 23.8737 76.9209 23.6334 76.8772 23.3495ZM75.5668 28.1978C75.5013 27.9139 75.2611 27.7392 74.9772 27.7829C74.6933 27.8265 74.5186 28.0886 74.5622 28.3725C74.6278 28.6564 74.868 28.8311 75.1519 28.7875C75.4358 28.7219 75.6105 28.4817 75.5668 28.1978ZM74.6933 35.0771H74.6059C74.0381 35.1645 73.6668 35.6886 73.776 36.2783C73.8415 36.715 74.2128 37.0426 74.6496 37.1081C74.7588 37.13 74.8461 37.13 74.9553 37.1081C75.5013 37.0208 75.8726 36.4748 75.7852 35.9288C75.6979 35.4047 75.2174 35.0334 74.6933 35.0771ZM73.4921 23.7645C73.4266 23.4806 73.1864 23.3058 72.9025 23.3495C72.6186 23.3932 72.4438 23.6553 72.4875 23.9392C72.553 24.2231 72.7933 24.3978 73.0772 24.3541C73.3611 24.2886 73.5358 24.0484 73.4921 23.7645ZM73.8197 29.7047C73.776 29.4426 73.5358 29.2679 73.2737 29.3116C73.0117 29.3553 72.8369 29.6173 72.8806 29.8576C72.9243 30.1196 73.1645 30.2943 73.4266 30.2507C73.6887 30.207 73.8634 29.9668 73.8197 29.7047ZM72.7278 35.4265C72.6404 34.8806 72.0944 34.5093 71.5484 34.5967C71.0025 34.7058 70.6094 35.23 70.7186 35.776C70.8059 36.3219 71.3519 36.6932 71.8979 36.6058C72.4438 36.5185 72.8151 35.9725 72.7278 35.4265ZM68.622 26.953C68.5783 26.6254 68.2726 26.4288 67.9668 26.4725C67.6392 26.5162 67.4427 26.8219 67.4864 27.1277C67.5301 27.4553 67.8358 27.6518 68.1415 27.6081C68.4691 27.5645 68.6657 27.2587 68.622 26.953ZM66.4599 29.5955C66.4163 29.2898 66.6128 28.984 66.9404 28.9403C66.6347 28.984 66.4163 29.2898 66.4599 29.5955ZM66.9404 28.9403C67.2461 28.8966 67.5519 29.0932 67.5956 29.4208C67.5519 29.115 67.2461 28.8966 66.9404 28.9403ZM67.5956 29.4208C67.6392 29.7265 67.4427 30.0323 67.1151 30.076C67.4209 30.0323 67.6392 29.7265 67.5956 29.4208ZM66.5255 32.1725C66.6128 32.6311 67.0278 32.915 67.4645 32.8495C67.9232 32.7622 68.2071 32.3472 68.1415 31.9104C68.0542 31.4518 67.6392 31.1679 67.2025 31.2334C66.7438 31.3208 66.4599 31.7357 66.5255 32.1725ZM68.8841 33.4173C68.3381 33.5047 67.9887 34.007 68.076 34.5311C68.1197 34.8806 68.3818 35.1645 68.7312 35.2955C68.8841 35.3392 69.0369 35.361 69.2117 35.3392C69.7576 35.2518 70.1071 34.7495 70.0197 34.2254C69.976 33.9196 69.8013 33.7012 69.5611 33.5484C69.3645 33.4392 69.1243 33.3737 68.8841 33.4173ZM69.6703 25.1622C69.7358 25.4461 69.976 25.6208 70.2599 25.5771C70.5438 25.5334 70.7404 25.2714 70.6749 24.9875C70.6094 24.7035 70.3691 24.5288 70.0852 24.5725C69.8013 24.638 69.6266 24.8783 69.6703 25.1622Z" fill="white"/>
<path d="M66.4599 29.5955C66.5036 29.9012 66.8094 30.1196 67.1151 30.076C67.4209 30.0323 67.6392 29.7265 67.5956 29.4208C67.5519 29.115 67.2461 28.8966 66.9404 28.9403C66.6347 28.984 66.4163 29.2898 66.4599 29.5955Z" fill="white"/>
<path d="M22.192 113.327C22.4322 112.671 22.5196 112.54 22.6288 112.54C22.7598 112.54 22.8253 112.65 23.0655 113.261C23.3713 114.025 26.5161 122.302 27.7391 125.36C28.4598 127.151 29.0495 127.456 29.4644 127.587C29.7701 127.697 30.0759 127.718 30.2724 127.718C30.4035 127.718 30.469 127.74 30.469 127.85C30.469 127.959 30.2943 128.002 30.0759 128.002C29.7701 128.002 28.3069 128.002 26.9311 127.959C26.5598 127.937 26.3196 127.937 26.3196 127.828C26.3196 127.74 26.3851 127.697 26.4506 127.697C26.5816 127.653 26.6908 127.478 26.5816 127.151L24.7253 122.215C24.6816 122.128 24.638 122.084 24.5506 122.084H20.2265C20.1173 122.084 20.0736 122.15 20.0299 122.237L18.8288 125.797C18.6541 126.299 18.5449 126.779 18.5449 127.151C18.5449 127.544 18.9598 127.74 19.3092 127.74H19.5058C19.6368 127.74 19.7023 127.784 19.7023 127.871C19.7023 127.981 19.5713 128.024 19.3966 128.024C18.9161 128.024 18.0426 127.959 17.8242 127.959C17.6058 127.959 16.492 128.024 15.5529 128.024C15.2908 128.024 15.1816 127.981 15.1816 127.871C15.1816 127.784 15.269 127.74 15.3564 127.74C15.4874 127.74 15.7713 127.718 15.946 127.697C16.8632 127.566 17.2782 126.823 17.6276 125.818L22.192 113.327ZM24.2885 121.341C24.3977 121.341 24.3977 121.276 24.3759 121.21L22.4759 115.794C22.3667 115.489 22.2793 115.489 22.1701 115.794L20.4012 121.21C20.3575 121.32 20.4012 121.341 20.4667 121.341H24.2885Z" fill="#FEFEFE"/>
<path d="M34.4874 123.067C34.4874 125.578 34.5311 126.605 34.8587 126.889C35.1426 127.173 35.8196 127.282 37.1954 127.282C38.1127 127.282 38.8989 127.26 39.3138 126.758C39.5322 126.495 39.6851 126.146 39.7288 125.797C39.7506 125.666 39.8161 125.578 39.9035 125.578C39.9908 125.578 40.0345 125.666 40.0345 125.84C40.0345 126.015 39.9035 127.041 39.7724 127.544C39.6414 127.937 39.5977 128.002 38.6587 128.002C37.392 128.002 36.4092 127.981 35.6012 127.937C34.7931 127.915 34.2035 127.893 33.6793 127.893C33.592 127.893 33.3081 127.893 32.9587 127.915C32.5874 127.937 32.2161 127.959 31.9322 127.959C31.7575 127.959 31.6483 127.915 31.6483 127.828C31.6483 127.762 31.692 127.697 31.7793 127.697C31.9322 127.697 32.1506 127.653 32.3253 127.609C32.6747 127.522 32.6966 127.216 32.7839 126.714C32.8931 126.015 32.8931 124.661 32.8931 123.023V120.009C32.8931 117.367 32.8931 116.886 32.8495 116.34C32.8058 115.751 32.7184 115.489 32.1288 115.401C31.9977 115.379 31.692 115.358 31.5173 115.358C31.4518 115.358 31.3862 115.27 31.3862 115.227C31.3862 115.117 31.4736 115.095 31.6701 115.095C32.4782 115.095 33.5701 115.139 33.6793 115.139C33.7667 115.139 35.077 115.095 35.623 115.095C35.7977 115.095 35.9069 115.139 35.9069 115.227C35.9069 115.292 35.8196 115.358 35.7759 115.358C35.6449 115.358 35.4046 115.379 35.1862 115.401C34.6621 115.51 34.5747 115.773 34.5311 116.362C34.5092 116.908 34.5092 117.389 34.5092 120.031V123.067H34.4874Z" fill="#FEFEFE"/>
<path d="M48.661 127.194C50.5173 127.194 50.9977 126.889 51.4127 126.408C51.5874 126.19 51.7184 125.731 51.7839 125.491C51.8276 125.338 51.8931 125.229 51.9805 125.229C52.0897 125.229 52.1115 125.294 52.1115 125.6C52.1115 126.146 51.8713 127.151 51.7403 127.566C51.6311 127.981 51.6092 128.002 51.2161 128.002C48.2678 128.002 45.2759 127.915 42.1966 127.915C42 127.915 41.869 127.893 41.869 127.784C41.869 127.697 41.8908 127.587 42.1092 127.26C44.7518 123.438 47.3724 119.638 49.7966 115.838H46.0621C45.1667 115.838 44.1184 115.816 43.5506 116.122C42.9391 116.45 42.6115 117.061 42.546 117.476C42.5023 117.738 42.415 117.782 42.3058 117.782C42.2184 117.782 42.1966 117.694 42.1966 117.563C42.1966 117.367 42.4587 115.816 42.5679 115.292C42.5897 115.052 42.6334 114.964 42.7207 114.964C42.8736 114.964 43.0046 115.074 43.4633 115.095C45.1449 115.161 45.9966 115.139 46.5426 115.139H51.4782C51.7403 115.139 51.8495 115.183 51.8495 115.27C51.8495 115.358 51.8276 115.467 51.7403 115.576C49.1633 119.507 46.6081 123.307 43.9437 127.194H48.661Z" fill="#FEFEFE"/>
<path d="M66.6127 123.045C66.6127 124.683 66.6345 126.037 66.7219 126.736C66.7874 127.238 66.8311 127.566 67.3552 127.631C67.5954 127.675 67.9885 127.718 68.1414 127.718C68.2724 127.718 68.2943 127.806 68.2943 127.85C68.2943 127.937 68.1851 127.981 67.9885 127.981C67.0276 127.981 65.892 127.915 65.8046 127.915C65.7173 127.915 64.5816 127.981 64.0575 127.981C63.861 127.981 63.7736 127.937 63.7736 127.85C63.7736 127.784 63.8173 127.718 63.9046 127.718C64.0575 127.718 64.2759 127.675 64.4288 127.631C64.8 127.544 64.8437 127.216 64.9092 126.714C64.9966 126.015 64.9966 124.727 64.9966 123.089V121.385C64.9966 121.298 64.9529 121.276 64.8874 121.276H57.5276C57.4621 121.276 57.4184 121.298 57.4184 121.385V123.089C57.4184 124.727 57.4184 126.037 57.5058 126.736C57.5713 127.238 57.6368 127.566 58.1391 127.631C58.4012 127.675 58.7724 127.718 58.9472 127.718C59.0564 127.718 59.0782 127.806 59.0782 127.85C59.0782 127.937 58.9908 127.981 58.7943 127.981C57.8115 127.981 56.6977 127.915 56.6104 127.915C56.5012 127.915 55.3874 127.981 54.8414 127.981C54.6667 127.981 54.5575 127.937 54.5575 127.85C54.5575 127.784 54.6012 127.718 54.6885 127.718C54.8414 127.718 55.0598 127.675 55.2345 127.631C55.5839 127.544 55.6058 127.238 55.6931 126.736C55.8023 126.037 55.8023 124.683 55.8023 123.045V120.031C55.8023 117.389 55.8023 116.908 55.7587 116.362C55.715 115.773 55.6276 115.51 55.038 115.423C54.9069 115.401 54.6012 115.379 54.4265 115.379C54.361 115.379 54.2954 115.292 54.2954 115.248C54.2954 115.139 54.3828 115.117 54.5793 115.117C55.3874 115.117 56.5012 115.161 56.6104 115.161C56.6977 115.161 57.8115 115.117 58.3575 115.117C58.5541 115.117 58.6414 115.161 58.6414 115.248C58.6414 115.314 58.5541 115.379 58.5104 115.379C58.3793 115.379 58.2701 115.379 58.0736 115.423C57.5931 115.532 57.4839 115.773 57.4403 116.362C57.4184 116.908 57.4184 117.432 57.4184 120.075V120.446C57.4184 120.555 57.4621 120.555 57.5276 120.555H64.8874C64.9529 120.555 64.9966 120.555 64.9966 120.446V120.075C64.9966 117.432 64.9747 116.908 64.9529 116.362C64.9092 115.773 64.8219 115.51 64.2541 115.423C64.123 115.401 63.8173 115.379 63.6426 115.379C63.5552 115.379 63.5115 115.292 63.5115 115.248C63.5115 115.139 63.5989 115.117 63.7954 115.117C64.5816 115.117 65.7173 115.161 65.8046 115.161C65.9138 115.161 67.0276 115.117 67.5518 115.117C67.7483 115.117 67.8575 115.161 67.8575 115.248C67.8575 115.314 67.7701 115.379 67.7046 115.379C67.5736 115.379 67.4862 115.379 67.2679 115.423C66.8092 115.532 66.7 115.773 66.6564 116.362C66.6127 116.908 66.6127 117.389 66.6127 120.031V123.045Z" fill="#FEFEFE"/>
<path d="M72.4219 120.031C72.4219 117.389 72.4219 116.908 72.3782 116.362C72.3345 115.773 72.2472 115.51 71.6575 115.423C71.5265 115.401 71.2207 115.379 71.046 115.379C70.9805 115.379 70.915 115.292 70.915 115.248C70.915 115.139 71.0023 115.117 71.1989 115.117C72.0069 115.117 73.1426 115.161 73.2518 115.161C73.3828 115.161 77.0518 115.183 77.4667 115.161C77.8161 115.139 78.1219 115.074 78.2747 115.052C78.3621 115.03 78.4276 114.964 78.515 114.964C78.5805 114.964 78.6023 115.052 78.6023 115.117C78.6023 115.248 78.4931 115.445 78.4713 115.925C78.4495 116.078 78.4058 116.843 78.3621 117.039C78.3403 117.127 78.2747 117.214 78.2092 117.214C78.1 117.214 78.0782 117.127 78.0782 116.995C78.0782 116.864 78.0564 116.602 77.969 116.384C77.8598 116.1 77.6633 115.991 76.7023 115.86C76.3966 115.816 74.3656 115.794 74.1472 115.794C74.0598 115.794 74.038 115.86 74.038 115.969V120.621C74.038 120.752 74.038 120.795 74.1472 120.795C74.3656 120.795 76.7023 120.795 77.0954 120.752C77.5104 120.708 77.7724 120.686 77.9472 120.512C78.0782 120.381 78.1437 120.293 78.2092 120.293C78.2747 120.293 78.3184 120.337 78.3184 120.424C78.3184 120.533 78.2092 120.795 78.1874 121.363C78.1437 121.713 78.1 122.346 78.1 122.477C78.1 122.608 78.0564 122.805 77.9472 122.805C77.8598 122.805 77.8161 122.739 77.8161 122.652C77.8161 122.499 77.8161 122.302 77.7288 122.084C77.6633 121.844 77.5104 121.647 76.8334 121.56C76.3529 121.494 74.4747 121.473 74.169 121.473C74.0598 121.473 74.038 121.538 74.038 121.582V123.001C74.038 123.591 74.0161 125.578 74.038 125.906C74.0816 127.041 74.4092 127.26 76.1345 127.26C76.5931 127.26 77.4449 127.26 77.9035 127.085C78.3621 126.889 78.6023 126.583 78.7115 125.906C78.7552 125.709 78.7989 125.644 78.8862 125.644C78.9954 125.644 79.0173 125.775 79.0173 125.906C79.0173 126.037 78.8862 127.194 78.777 127.544C78.6679 127.981 78.4713 127.981 77.7943 127.981C76.4621 127.981 75.4575 127.937 74.7368 127.915C73.9943 127.871 73.5357 127.871 73.2736 127.871C73.2299 127.871 72.9023 127.871 72.5092 127.893C72.1598 127.915 71.7667 127.937 71.4828 127.937C71.3081 127.937 71.1989 127.893 71.1989 127.806C71.1989 127.74 71.2426 127.675 71.3299 127.675C71.4828 127.675 71.7012 127.609 71.8759 127.587C72.2253 127.522 72.2472 127.194 72.3345 126.692C72.4437 125.993 72.4437 124.639 72.4437 123.001V120.031H72.4219Z" fill="#FEFEFE"/>
<path d="M85.0885 123.045C85.0885 124.683 85.0885 126.037 85.1759 126.736C85.2414 127.238 85.3069 127.566 85.8092 127.631C86.0713 127.675 86.4426 127.718 86.6173 127.718C86.7265 127.718 86.7483 127.806 86.7483 127.85C86.7483 127.937 86.6609 127.981 86.4644 127.981C85.4816 127.981 84.346 127.915 84.2587 127.915C84.1495 127.915 83.0575 127.981 82.5115 127.981C82.3368 127.981 82.2276 127.937 82.2276 127.85C82.2276 127.784 82.2713 127.718 82.3587 127.718C82.5115 127.718 82.7299 127.675 82.9046 127.631C83.2541 127.544 83.2977 127.238 83.3632 126.736C83.4506 126.037 83.4724 124.683 83.4724 123.045V120.031C83.4724 117.389 83.4724 116.908 83.4288 116.362C83.3851 115.773 83.2541 115.51 82.861 115.445C82.6644 115.401 82.446 115.379 82.315 115.379C82.2276 115.379 82.1839 115.292 82.1839 115.248C82.1839 115.139 82.2713 115.117 82.4678 115.117C83.0575 115.117 84.1495 115.161 84.2587 115.161C84.346 115.161 85.4816 115.117 86.0276 115.117C86.2242 115.117 86.3115 115.161 86.3115 115.248C86.3115 115.314 86.2242 115.379 86.1805 115.379C86.0495 115.379 85.9403 115.379 85.7437 115.423C85.2632 115.532 85.1541 115.773 85.1322 116.362C85.1104 116.908 85.1104 117.389 85.1104 120.031V123.045H85.0885Z" fill="#FEFEFE"/>
<path d="M104.482 125.775C104.547 126.386 104.656 127.304 105.377 127.544C105.879 127.697 106.338 127.697 106.513 127.697C106.6 127.697 106.644 127.74 106.644 127.828C106.644 127.937 106.491 127.981 106.272 127.981C105.879 127.981 103.914 127.937 103.259 127.871C102.844 127.828 102.756 127.762 102.756 127.697C102.756 127.631 102.8 127.566 102.887 127.566C102.997 127.544 102.997 127.282 102.975 126.954L102.123 118.328H102.079L97.8207 127.041C97.4495 127.784 97.3621 127.937 97.2092 127.937C97.0564 127.937 96.9472 127.784 96.5977 127.151C96.1391 126.299 94.9816 124.115 94.523 123.198C93.9989 122.106 92.5793 119.245 92.2736 118.546H92.1862L91.5092 126.255C91.4874 126.517 91.4874 126.845 91.4874 127.129C91.4874 127.391 91.6403 127.544 91.9023 127.609C92.2081 127.697 92.4701 127.718 92.5793 127.718C92.6449 127.718 92.7104 127.784 92.7104 127.85C92.7104 127.959 92.5793 128.002 92.3828 128.002C91.7276 128.002 90.8759 127.937 90.7449 127.937C90.592 127.937 89.7403 128.002 89.2598 128.002C89.0851 128.002 88.9541 127.959 88.9541 127.85C88.9541 127.784 89.0414 127.718 89.1288 127.718C89.2598 127.718 89.3908 127.697 89.6529 127.653C90.2426 127.544 90.2644 126.932 90.3299 126.299L91.6184 115.161C91.6403 114.986 91.7276 114.855 91.815 114.855C91.946 114.855 92.077 114.921 92.1862 115.117L97.515 125.709L102.647 115.139C102.735 114.986 102.8 114.855 102.931 114.855C103.04 114.855 103.149 114.986 103.193 115.314L104.482 125.775Z" fill="#FEFEFE"/>
<path d="M109.81 120.031C109.81 117.389 109.81 116.908 109.767 116.362C109.723 115.773 109.636 115.51 109.046 115.423C108.915 115.401 108.609 115.379 108.435 115.379C108.369 115.379 108.303 115.292 108.303 115.248C108.303 115.139 108.391 115.117 108.587 115.117C109.395 115.117 110.531 115.161 110.64 115.161C110.771 115.161 114.44 115.183 114.855 115.161C115.205 115.139 115.51 115.074 115.663 115.052C115.751 115.03 115.816 114.964 115.903 114.964C115.969 114.964 115.991 115.052 115.991 115.117C115.991 115.248 115.882 115.445 115.86 115.925C115.838 116.078 115.794 116.843 115.751 117.039C115.729 117.127 115.663 117.214 115.598 117.214C115.489 117.214 115.467 117.127 115.467 116.995C115.467 116.864 115.445 116.602 115.357 116.384C115.226 116.1 115.052 115.991 114.091 115.86C113.785 115.816 111.754 115.794 111.536 115.794C111.448 115.794 111.426 115.86 111.426 115.969V120.621C111.426 120.752 111.426 120.795 111.536 120.795C111.754 120.795 114.091 120.795 114.484 120.752C114.899 120.708 115.161 120.686 115.336 120.512C115.445 120.381 115.532 120.293 115.598 120.293C115.663 120.293 115.707 120.337 115.707 120.424C115.707 120.533 115.598 120.795 115.576 121.363C115.532 121.713 115.489 122.346 115.489 122.477C115.489 122.608 115.445 122.805 115.336 122.805C115.248 122.805 115.205 122.739 115.205 122.652C115.205 122.499 115.205 122.302 115.117 122.084C115.052 121.844 114.899 121.647 114.222 121.56C113.741 121.494 111.863 121.473 111.558 121.473C111.448 121.473 111.426 121.538 111.426 121.582V123.001C111.426 123.591 111.405 125.578 111.426 125.906C111.47 127.041 111.798 127.26 113.523 127.26C113.982 127.26 114.833 127.26 115.292 127.085C115.751 126.889 115.991 126.583 116.1 125.906C116.144 125.709 116.187 125.644 116.275 125.644C116.384 125.644 116.406 125.775 116.406 125.906C116.406 126.037 116.275 127.194 116.166 127.544C116.056 127.981 115.86 127.981 115.183 127.981C113.851 127.981 112.846 127.937 112.103 127.915C111.361 127.871 110.902 127.871 110.64 127.871C110.597 127.871 110.269 127.871 109.876 127.893C109.526 127.915 109.133 127.937 108.849 127.937C108.675 127.937 108.566 127.893 108.566 127.806C108.566 127.74 108.609 127.675 108.697 127.675C108.849 127.675 109.068 127.609 109.243 127.587C109.592 127.522 109.614 127.194 109.701 126.692C109.81 125.993 109.81 124.639 109.81 123.001V120.031Z" fill="#FEFEFE"/>
<path d="M120.861 120.031C120.861 117.389 120.861 116.908 120.817 116.362C120.774 115.773 120.686 115.51 120.097 115.423C119.966 115.401 119.66 115.379 119.485 115.379C119.42 115.379 119.354 115.292 119.354 115.248C119.354 115.139 119.441 115.117 119.638 115.117C120.446 115.117 121.625 115.161 121.735 115.161C121.909 115.161 123.394 115.117 123.94 115.117C125.054 115.117 126.299 115.227 127.238 115.86C127.675 116.187 128.461 116.995 128.461 118.197C128.461 119.463 127.937 120.686 126.299 122.084C127.74 123.897 128.963 125.425 129.99 126.495C130.929 127.456 131.518 127.609 131.955 127.675C132.305 127.74 132.479 127.74 132.567 127.74C132.676 127.74 132.72 127.828 132.72 127.871C132.72 127.981 132.61 128.002 132.305 128.002H131.191C130.186 128.002 129.749 127.893 129.313 127.653C128.548 127.26 127.915 126.43 126.91 125.141C126.168 124.224 125.382 123.11 125.01 122.652C124.923 122.564 124.901 122.543 124.77 122.543L122.521 122.499C122.433 122.499 122.39 122.543 122.39 122.63V123.023C122.39 124.661 122.39 125.993 122.477 126.692C122.543 127.194 122.63 127.522 123.176 127.587C123.416 127.631 123.787 127.675 123.962 127.675C124.071 127.675 124.093 127.762 124.093 127.806C124.093 127.893 124.006 127.937 123.809 127.937C122.848 127.937 121.713 127.871 121.647 127.871C121.625 127.871 120.446 127.937 119.9 127.937C119.725 127.937 119.616 127.893 119.616 127.806C119.616 127.74 119.66 127.675 119.747 127.675C119.9 127.675 120.118 127.631 120.293 127.587C120.643 127.5 120.664 127.194 120.752 126.692C120.861 125.993 120.861 124.639 120.861 123.001V120.031ZM122.39 121.473C122.39 121.582 122.433 121.625 122.521 121.691C122.783 121.822 123.678 121.953 124.464 121.953C124.879 121.953 125.36 121.931 125.797 121.647C126.408 121.254 126.867 120.337 126.867 119.048C126.867 116.93 125.709 115.707 123.809 115.707C123.285 115.707 122.717 115.773 122.543 115.816C122.455 115.86 122.412 115.925 122.412 116.013V121.473H122.39Z" fill="#FEFEFE"/>
<path d="M131.518 115.707C131.366 115.532 131.344 115.467 131.344 115.358C131.344 115.292 131.453 115.248 131.518 115.227C131.846 115.227 132.61 115.467 132.916 115.598C133.156 115.729 133.266 115.816 133.266 116.122C133.266 117.541 132.239 119.223 131.54 120.075C131.453 120.206 131.387 120.228 131.278 120.228C131.235 120.228 131.169 120.184 131.169 120.118C131.169 120.053 131.191 119.987 131.256 119.856C131.562 119.223 131.912 118.131 131.912 116.995C131.933 116.384 131.671 115.86 131.518 115.707Z" fill="#FEFEFE"/>
<path d="M135.864 127.74C135.624 127.631 135.602 127.566 135.602 127.107C135.602 126.255 135.69 125.578 135.712 125.294C135.712 125.12 135.755 125.01 135.843 125.01C135.952 125.01 135.995 125.076 135.995 125.207C135.995 125.338 135.995 125.578 136.061 125.818C136.345 127.063 137.655 127.5 138.856 127.5C140.603 127.5 141.499 126.517 141.499 125.229C141.499 124.006 140.844 123.416 139.271 122.259L138.463 121.647C136.563 120.228 135.93 119.179 135.93 118C135.93 115.991 137.524 114.79 139.839 114.79C140.538 114.79 141.237 114.899 141.674 114.986C142.023 115.074 142.154 115.074 142.285 115.074C142.416 115.074 142.46 115.095 142.46 115.205C142.46 115.292 142.372 115.838 142.372 117.017C142.372 117.279 142.351 117.389 142.241 117.389C142.11 117.389 142.11 117.301 142.089 117.17C142.067 116.974 141.936 116.515 141.826 116.318C141.695 116.122 141.128 115.467 139.533 115.467C138.245 115.467 137.197 116.1 137.197 117.301C137.197 118.393 137.743 119.005 139.49 120.184L139.992 120.533C142.132 121.997 142.875 123.176 142.875 124.639C142.875 125.644 142.503 126.736 141.237 127.544C140.494 128.024 139.402 128.155 138.42 128.155C137.612 128.199 136.585 128.09 135.864 127.74Z" fill="#FEFEFE"/>
<path d="M24.3757 135.035C24.3757 133.724 24.3757 133.506 24.3539 133.222C24.332 132.938 24.2884 132.807 24.0045 132.763C23.9389 132.763 23.7861 132.742 23.6987 132.742C23.6769 132.742 23.6332 132.698 23.6332 132.676C23.6332 132.632 23.6769 132.61 23.7642 132.61C24.1573 132.61 24.747 132.632 24.7907 132.632C24.878 132.632 25.5987 132.61 25.8826 132.61C26.4286 132.61 27.0401 132.654 27.4987 132.982C27.7171 133.135 28.1102 133.55 28.1102 134.117C28.1102 134.729 27.8481 135.34 27.0401 136.039C27.7389 136.935 28.3504 137.677 28.8527 138.201C29.3114 138.682 29.5953 138.747 29.8137 138.791C29.9884 138.813 30.0757 138.813 30.1194 138.813C30.1631 138.813 30.2068 138.856 30.2068 138.878C30.2068 138.922 30.1631 138.944 30.0102 138.944H29.4642C28.9619 138.944 28.7654 138.9 28.547 138.769C28.1757 138.573 27.8481 138.158 27.3677 137.546C26.9964 137.087 26.6251 136.542 26.4286 136.323C26.3849 136.279 26.3631 136.279 26.3194 136.279L25.2056 136.258C25.1619 136.258 25.1401 136.279 25.1401 136.323V136.52C25.1401 137.328 25.1401 137.983 25.1838 138.332C25.2056 138.573 25.2711 138.725 25.5332 138.769C25.6424 138.791 25.8389 138.813 25.9263 138.813C25.9918 138.813 25.9918 138.856 25.9918 138.878C25.9918 138.922 25.9481 138.944 25.8608 138.944C25.3803 138.944 24.8343 138.922 24.7907 138.922C24.7907 138.922 24.201 138.944 23.9389 138.944C23.8516 138.944 23.8079 138.922 23.8079 138.878C23.8079 138.856 23.8297 138.813 23.8734 138.813C23.9608 138.813 24.07 138.791 24.1355 138.769C24.3102 138.725 24.332 138.573 24.3539 138.332C24.3976 137.983 24.3976 137.328 24.3976 136.52V135.035H24.3757ZM25.1183 135.733C25.1183 135.777 25.1401 135.821 25.1838 135.843C25.3148 135.908 25.7516 135.974 26.1447 135.974C26.3412 135.974 26.5815 135.974 26.7999 135.821C27.1056 135.624 27.324 135.187 27.324 134.532C27.324 133.484 26.7562 132.894 25.8171 132.894C25.555 132.894 25.293 132.916 25.2056 132.938C25.1619 132.96 25.1401 132.982 25.1401 133.047V135.733H25.1183Z" fill="#FEFEFE"/>
<path d="M30.993 135.035C30.993 133.724 30.993 133.506 30.9711 133.222C30.9493 132.938 30.9056 132.807 30.6217 132.763C30.5562 132.763 30.4033 132.742 30.316 132.742C30.2941 132.742 30.2504 132.698 30.2504 132.676C30.2504 132.632 30.2941 132.61 30.3815 132.61C30.7746 132.61 31.3424 132.632 31.3861 132.632C31.4516 132.632 33.2642 132.632 33.4608 132.632C33.6355 132.632 33.7884 132.589 33.8539 132.589C33.8976 132.589 33.9412 132.545 33.9631 132.545C33.9849 132.545 34.0068 132.589 34.0068 132.632C34.0068 132.698 33.9631 132.785 33.9412 133.025C33.9412 133.113 33.9194 133.484 33.8976 133.571C33.8976 133.615 33.8539 133.659 33.8102 133.659C33.7665 133.659 33.7447 133.615 33.7447 133.55C33.7447 133.484 33.7447 133.353 33.701 133.244C33.6355 133.113 33.5481 133.047 33.0895 132.982C32.9366 132.96 31.932 132.96 31.8447 132.96C31.801 132.96 31.801 132.982 31.801 133.047V135.319C31.801 135.384 31.801 135.406 31.8447 135.406C31.9539 135.406 33.0895 135.406 33.2861 135.384C33.4826 135.362 33.6137 135.362 33.701 135.275C33.7665 135.209 33.8102 135.166 33.832 135.166C33.8539 135.166 33.8757 135.187 33.8757 135.231C33.8757 135.275 33.832 135.428 33.8102 135.69C33.7884 135.864 33.7665 136.17 33.7665 136.236C33.7665 136.301 33.7447 136.389 33.6792 136.389C33.6355 136.389 33.6137 136.367 33.6137 136.301C33.6137 136.214 33.6137 136.127 33.57 136.017C33.5481 135.908 33.4608 135.799 33.1332 135.755C32.893 135.733 31.9757 135.712 31.8228 135.712C31.7792 135.712 31.7573 135.733 31.7573 135.777V136.476C31.7573 136.76 31.7573 137.743 31.7573 137.896C31.7792 138.463 31.932 138.573 32.7838 138.573C33.0022 138.573 33.4171 138.573 33.6573 138.485C33.8757 138.376 34.0068 138.245 34.0504 137.896C34.0723 137.808 34.0941 137.764 34.1378 137.764C34.1815 137.764 34.2033 137.83 34.2033 137.896C34.2033 137.961 34.1378 138.529 34.0941 138.704C34.0286 138.922 33.9412 138.922 33.6137 138.922C32.9585 138.922 32.4562 138.9 32.1068 138.9C31.7355 138.878 31.5171 138.878 31.3861 138.878C31.3642 138.878 31.1895 138.878 31.0148 138.878C30.8401 138.878 30.6435 138.9 30.5125 138.9C30.4251 138.9 30.3815 138.878 30.3815 138.835C30.3815 138.813 30.4033 138.769 30.447 138.769C30.5343 138.769 30.6435 138.747 30.7091 138.725C30.8838 138.704 30.9056 138.529 30.9274 138.289C30.9711 137.939 30.9711 137.284 30.9711 136.476V135.035H30.993Z" fill="#FEFEFE"/>
<path d="M35.6884 138.813C35.5792 138.747 35.5573 138.725 35.5573 138.507C35.5573 138.092 35.601 137.764 35.601 137.612C35.601 137.524 35.6228 137.481 35.6665 137.481C35.7102 137.481 35.7539 137.502 35.7539 137.59C35.7539 137.655 35.7539 137.786 35.7757 137.896C35.9068 138.507 36.5619 138.725 37.1516 138.725C38.0033 138.725 38.4619 138.245 38.4619 137.612C38.4619 137 38.1343 136.716 37.37 136.148L36.9769 135.864C36.0378 135.166 35.732 134.663 35.732 134.074C35.732 133.091 36.5183 132.501 37.6539 132.501C38.0033 132.501 38.3527 132.545 38.5493 132.61C38.724 132.654 38.7895 132.654 38.855 132.654C38.9206 132.654 38.9424 132.654 38.9424 132.72C38.9424 132.763 38.8987 133.025 38.8987 133.615C38.8987 133.746 38.8987 133.812 38.8332 133.812C38.7677 133.812 38.7677 133.768 38.7458 133.702C38.7458 133.593 38.6585 133.375 38.6148 133.287C38.5493 133.2 38.2654 132.873 37.501 132.873C36.8677 132.873 36.3435 133.178 36.3435 133.79C36.3435 134.314 36.6056 134.62 37.4573 135.209L37.6976 135.384C38.7458 136.105 39.1171 136.694 39.1171 137.393C39.1171 137.896 38.9206 138.42 38.3091 138.813C37.9378 139.053 37.3918 139.119 36.9332 139.119C36.5619 139.053 36.0596 138.987 35.6884 138.813Z" fill="#FEFEFE"/>
<path d="M41.3884 135.035C41.3884 133.724 41.3884 133.506 41.3665 133.222C41.3447 132.938 41.301 132.807 41.0171 132.763C40.9516 132.763 40.7987 132.742 40.7114 132.742C40.6895 132.742 40.6458 132.698 40.6458 132.676C40.6458 132.632 40.6895 132.61 40.7769 132.61C41.17 132.61 41.7378 132.632 41.7815 132.632C41.847 132.632 43.6596 132.632 43.8562 132.632C44.0309 132.632 44.1838 132.589 44.2493 132.589C44.293 132.589 44.3366 132.545 44.3585 132.545C44.3803 132.545 44.4022 132.589 44.4022 132.632C44.4022 132.698 44.3585 132.785 44.3366 133.025C44.3366 133.113 44.3148 133.484 44.293 133.571C44.293 133.615 44.2493 133.659 44.2056 133.659C44.1619 133.659 44.1401 133.615 44.1401 133.55C44.1401 133.484 44.1401 133.353 44.0964 133.244C44.0309 133.113 43.9435 133.047 43.4849 132.982C43.332 132.96 42.3274 132.96 42.2401 132.96C42.1964 132.96 42.1964 132.982 42.1964 133.047V135.319C42.1964 135.384 42.1964 135.406 42.2401 135.406C42.3493 135.406 43.4849 135.406 43.6815 135.384C43.878 135.362 44.0091 135.362 44.0964 135.275C44.1619 135.209 44.2056 135.166 44.2274 135.166C44.2493 135.166 44.2711 135.187 44.2711 135.231C44.2711 135.275 44.2274 135.428 44.2056 135.69C44.1838 135.864 44.1619 136.17 44.1619 136.236C44.1619 136.301 44.1401 136.389 44.0746 136.389C44.0309 136.389 44.0091 136.367 44.0091 136.301C44.0091 136.214 44.0091 136.127 43.9654 136.017C43.9435 135.908 43.8562 135.799 43.5286 135.755C43.2884 135.733 42.3711 135.712 42.2183 135.712C42.1746 135.712 42.1527 135.733 42.1527 135.777V136.476C42.1527 136.76 42.1527 137.743 42.1527 137.896C42.1746 138.463 42.3274 138.573 43.1792 138.573C43.3976 138.573 43.8125 138.573 44.0527 138.485C44.2711 138.376 44.4022 138.245 44.4458 137.896C44.4677 137.808 44.4895 137.764 44.5332 137.764C44.5769 137.764 44.5987 137.83 44.5987 137.896C44.5987 137.961 44.5332 138.529 44.4895 138.704C44.424 138.922 44.3366 138.922 44.0091 138.922C43.3539 138.922 42.8516 138.9 42.5022 138.9C42.1309 138.878 41.9125 138.878 41.7815 138.878C41.7596 138.878 41.5849 138.878 41.4102 138.878C41.2355 138.878 41.0389 138.9 40.9079 138.9C40.8206 138.9 40.7769 138.878 40.7769 138.835C40.7769 138.813 40.7987 138.769 40.8424 138.769C40.9297 138.769 41.0389 138.747 41.1045 138.725C41.2792 138.704 41.301 138.529 41.3228 138.289C41.3665 137.939 41.3665 137.284 41.3665 136.476V135.035H41.3884Z" fill="#FEFEFE"/>
<path d="M48.1366 132.785C48.2458 132.501 48.2895 132.458 48.3332 132.458C48.4206 132.458 48.4424 132.567 48.5297 132.763C48.6826 133.113 50.0803 136.585 50.6045 137.852C50.9102 138.594 51.1504 138.704 51.347 138.769C51.478 138.813 51.6091 138.813 51.6964 138.813C51.7401 138.813 51.8056 138.835 51.8056 138.878C51.8056 138.922 51.6964 138.944 51.6091 138.944C51.478 138.944 50.8447 138.944 50.2332 138.922C50.0585 138.922 49.9274 138.922 49.9274 138.856C49.9274 138.813 49.9493 138.813 49.993 138.791C50.0366 138.769 50.124 138.704 50.0803 138.573L49.2941 136.651C49.2723 136.607 49.2723 136.607 49.2068 136.607H47.2412C47.1976 136.607 47.1757 136.629 47.1539 136.673L46.6516 138.005C46.5642 138.201 46.5206 138.42 46.5206 138.573C46.5206 138.747 46.6734 138.791 46.8263 138.791H46.9137C46.9792 138.791 47.001 138.813 47.001 138.856C47.001 138.9 46.9573 138.922 46.87 138.922C46.6734 138.922 46.193 138.9 46.0838 138.9C45.9964 138.9 45.5596 138.922 45.2102 138.922C45.101 138.922 45.0355 138.9 45.0355 138.856C45.0355 138.813 45.0792 138.791 45.1229 138.791C45.1884 138.791 45.3194 138.791 45.3849 138.769C45.778 138.725 45.9527 138.42 46.1056 138.005L48.1366 132.785ZM49.1194 136.258C49.1631 136.258 49.1631 136.236 49.1412 136.192L48.2895 133.899C48.2458 133.768 48.1803 133.768 48.1366 133.899L47.3286 136.192C47.3286 136.236 47.3286 136.258 47.3504 136.258H49.1194Z" fill="#FEFEFE"/>
<path d="M52.9631 135.035C52.9631 133.724 52.9631 133.506 52.9412 133.222C52.9194 132.938 52.8757 132.807 52.5918 132.763C52.5263 132.763 52.3734 132.742 52.2861 132.742C52.2642 132.742 52.2206 132.698 52.2206 132.676C52.2206 132.632 52.2642 132.61 52.3516 132.61C52.7447 132.61 53.3343 132.632 53.378 132.632C53.4654 132.632 54.1861 132.61 54.47 132.61C55.016 132.61 55.6274 132.654 56.0861 132.982C56.3045 133.135 56.6976 133.55 56.6976 134.117C56.6976 134.729 56.4355 135.34 55.6274 136.039C56.3481 136.935 56.9378 137.677 57.4401 138.201C57.8987 138.682 58.1826 138.747 58.401 138.791C58.5757 138.813 58.6631 138.813 58.7068 138.813C58.7504 138.813 58.7941 138.856 58.7941 138.878C58.7941 138.922 58.7504 138.944 58.5976 138.944H58.0516C57.5493 138.944 57.3527 138.9 57.1343 138.769C56.7631 138.573 56.4355 138.158 55.955 137.546C55.5838 137.087 55.2125 136.542 55.016 136.323C54.9723 136.279 54.9504 136.279 54.9068 136.279L53.793 136.258C53.7493 136.258 53.7274 136.279 53.7274 136.323V136.52C53.7274 137.328 53.7274 137.983 53.7711 138.332C53.793 138.573 53.8585 138.725 54.1205 138.769C54.2297 138.791 54.4263 138.813 54.5137 138.813C54.5792 138.813 54.5792 138.856 54.5792 138.878C54.5792 138.922 54.5355 138.944 54.4481 138.944C53.9677 138.944 53.4217 138.922 53.378 138.922C53.378 138.922 52.7884 138.944 52.5263 138.944C52.4389 138.944 52.3953 138.922 52.3953 138.878C52.3953 138.856 52.4171 138.813 52.4608 138.813C52.5481 138.813 52.6573 138.791 52.7229 138.769C52.8976 138.725 52.9194 138.573 52.9412 138.332C52.9849 137.983 52.9849 137.328 52.9849 136.52L52.9631 135.035ZM53.7274 135.733C53.7274 135.777 53.7493 135.821 53.793 135.843C53.924 135.908 54.3608 135.974 54.7539 135.974C54.9504 135.974 55.1907 135.974 55.4091 135.821C55.7148 135.624 55.9332 135.187 55.9332 134.532C55.9332 133.484 55.3654 132.894 54.4263 132.894C54.1642 132.894 53.9022 132.916 53.8148 132.938C53.7711 132.96 53.7493 132.982 53.7493 133.047V135.733H53.7274Z" fill="#FEFEFE"/>
<path d="M59.7987 138.158C58.947 137.437 58.7504 136.476 58.7504 135.668C58.7504 135.1 58.947 134.139 59.7332 133.375C60.2573 132.873 61.0435 132.479 62.3757 132.479C62.7251 132.479 63.2056 132.501 63.6424 132.567C63.97 132.632 64.2539 132.676 64.5378 132.698C64.6251 132.698 64.647 132.742 64.647 132.785C64.647 132.851 64.6251 132.96 64.6033 133.266C64.6033 133.55 64.6033 134.008 64.5815 134.117C64.5815 134.248 64.5378 134.292 64.4723 134.292C64.4068 134.292 64.4068 134.227 64.4068 134.117C64.4068 133.79 64.2757 133.462 64.0355 133.287C63.7297 133.025 63.0964 132.829 62.332 132.829C61.2183 132.829 60.6941 133.135 60.3884 133.419C59.755 134.008 59.6022 134.751 59.6022 135.602C59.6022 137.197 60.8688 138.638 62.7251 138.638C63.3803 138.638 63.8171 138.594 64.1447 138.245C64.3412 138.048 64.4504 137.699 64.4723 137.546C64.4941 137.459 64.4941 137.437 64.5596 137.437C64.6033 137.437 64.647 137.502 64.647 137.546C64.647 137.612 64.5378 138.332 64.4504 138.616C64.4068 138.769 64.3849 138.813 64.232 138.856C63.8826 138.987 63.2274 139.053 62.6596 139.053C61.3711 139.053 60.4757 138.747 59.7987 138.158Z" fill="#FEFEFE"/>
<path d="M72.0068 136.52C72.0068 137.328 72.0068 137.983 72.0504 138.332C72.0723 138.573 72.0941 138.725 72.3562 138.769C72.4654 138.791 72.6619 138.813 72.7493 138.813C72.8148 138.813 72.8366 138.856 72.8366 138.878C72.8366 138.922 72.793 138.944 72.6838 138.944C72.2033 138.944 71.6573 138.922 71.6137 138.922C71.57 138.922 71.0022 138.944 70.7619 138.944C70.6527 138.944 70.6309 138.922 70.6309 138.878C70.6309 138.856 70.6527 138.813 70.6964 138.813C70.7838 138.813 70.8711 138.791 70.9585 138.769C71.1332 138.725 71.155 138.573 71.1987 138.31C71.2424 137.961 71.2424 137.328 71.2424 136.52V135.69C71.2424 135.646 71.2206 135.646 71.1987 135.646H67.5516C67.5297 135.646 67.5079 135.646 67.5079 135.69V136.52C67.5079 137.328 67.5079 137.961 67.5516 138.31C67.5734 138.551 67.6171 138.704 67.8573 138.747C67.9884 138.769 68.1631 138.791 68.2504 138.791C68.2941 138.791 68.316 138.835 68.316 138.856C68.316 138.9 68.2723 138.922 68.1849 138.922C67.7045 138.922 67.1585 138.9 67.1148 138.9C67.0711 138.9 66.5033 138.922 66.2412 138.922C66.1539 138.922 66.1102 138.9 66.1102 138.856C66.1102 138.835 66.132 138.791 66.1757 138.791C66.2631 138.791 66.3723 138.769 66.4378 138.747C66.6125 138.704 66.6343 138.551 66.6562 138.31C66.6999 137.961 66.6999 137.306 66.6999 136.498V135.035C66.6999 133.724 66.6999 133.506 66.678 133.222C66.6562 132.938 66.6125 132.807 66.3286 132.763C66.2631 132.763 66.1102 132.742 66.0229 132.742C66.001 132.742 65.9573 132.698 65.9573 132.676C65.9573 132.632 66.001 132.61 66.0884 132.61C66.4815 132.61 67.0274 132.632 67.093 132.632C67.1366 132.632 67.6826 132.61 67.9447 132.61C68.0539 132.61 68.0757 132.632 68.0757 132.676C68.0757 132.698 68.032 132.742 68.0102 132.742C67.9447 132.742 67.901 132.742 67.7918 132.763C67.5516 132.807 67.5079 132.938 67.4861 133.222C67.4861 133.484 67.4861 133.746 67.4861 135.035V135.209C67.4861 135.253 67.5079 135.253 67.5297 135.253H71.155C71.1769 135.253 71.1987 135.253 71.1987 135.209V135.035C71.1987 133.724 71.1987 133.484 71.1769 133.222C71.155 132.938 71.1114 132.807 70.8274 132.763C70.7619 132.763 70.6091 132.742 70.5217 132.742C70.478 132.742 70.4562 132.698 70.4562 132.676C70.4562 132.632 70.4999 132.61 70.5872 132.61C70.9803 132.61 71.5263 132.632 71.57 132.632C71.6137 132.632 72.1815 132.61 72.4217 132.61C72.5309 132.61 72.5746 132.632 72.5746 132.676C72.5746 132.698 72.5309 132.742 72.4872 132.742C72.4217 132.742 72.378 132.742 72.2688 132.763C72.0504 132.807 71.9849 132.938 71.9631 133.222C71.9412 133.484 71.9412 133.724 71.9412 135.035V136.52H72.0068Z" fill="#FEFEFE"/>
<path d="M77.7068 135.035C77.7068 133.724 77.7068 133.506 77.6849 133.222C77.6631 132.938 77.6194 132.807 77.3355 132.763C77.27 132.763 77.1171 132.742 77.0297 132.742C77.0079 132.742 76.9642 132.698 76.9642 132.676C76.9642 132.632 77.0079 132.61 77.0953 132.61C77.4884 132.61 78.0343 132.632 78.078 132.632C78.2527 132.632 80.1309 132.632 80.3275 132.632C80.5022 132.632 80.6332 132.632 80.7206 132.589C80.7642 132.589 80.8079 132.545 80.8298 132.545C80.8734 132.545 80.8953 132.589 80.8953 132.632C80.8953 132.698 80.8516 132.785 80.8298 133.025C80.8298 133.113 80.8079 133.484 80.7861 133.571C80.7861 133.615 80.7424 133.659 80.6987 133.659C80.655 133.659 80.6332 133.615 80.6332 133.571C80.6332 133.506 80.6114 133.375 80.5458 133.266C80.4803 133.156 80.2838 133.025 79.9562 133.025L78.5366 133.004C78.493 133.004 78.4711 133.025 78.4711 133.091V135.384C78.4711 135.428 78.4711 135.471 78.5366 135.471H79.716C79.8688 135.471 79.9999 135.471 80.1091 135.471C80.3056 135.45 80.4366 135.428 80.524 135.319C80.5677 135.275 80.6114 135.231 80.6332 135.231C80.6769 135.231 80.6769 135.253 80.6769 135.297C80.6769 135.34 80.6114 135.493 80.5895 135.755C80.5677 135.93 80.5677 136.258 80.5677 136.323C80.5677 136.41 80.5458 136.498 80.4803 136.498C80.4366 136.498 80.4148 136.454 80.4148 136.41C80.4148 136.323 80.393 136.214 80.3493 136.105C80.3056 135.996 80.1746 135.886 79.9125 135.843C79.6941 135.821 78.6677 135.821 78.5148 135.821C78.4711 135.821 78.4493 135.843 78.4493 135.908V136.585C78.4493 137.415 78.4493 138.07 78.493 138.398C78.5148 138.638 78.5803 138.791 78.7987 138.835C78.9297 138.856 79.1045 138.878 79.1918 138.878C79.2355 138.878 79.2573 138.922 79.2573 138.944C79.2573 138.987 79.2137 139.009 79.1263 139.009C78.6458 139.009 78.078 138.987 78.0343 138.987C77.9907 138.987 77.4447 139.009 77.1826 139.009C77.0953 139.009 77.0516 138.987 77.0516 138.944C77.0516 138.922 77.0734 138.878 77.1171 138.878C77.2045 138.878 77.3137 138.856 77.3792 138.835C77.5539 138.813 77.5757 138.638 77.5976 138.398C77.6412 138.048 77.6412 137.393 77.6412 136.585V135.035H77.7068Z" fill="#FEFEFE"/>
<path d="M85.416 132.479C87.3596 132.479 88.8447 133.681 88.8447 135.624C88.8447 137.502 87.447 139.031 85.3723 139.031C82.9918 139.031 81.9872 137.24 81.9872 135.733C81.9872 134.401 83.0355 132.479 85.416 132.479ZM85.6125 138.704C86.3987 138.704 87.9493 138.289 87.9493 135.864C87.9493 133.855 86.7263 132.807 85.3504 132.807C83.9091 132.807 82.8608 133.724 82.8608 135.537C82.8826 137.481 84.0401 138.704 85.6125 138.704Z" fill="#FEFEFE"/>
<path d="M90.4826 135.035C90.4826 133.724 90.4826 133.506 90.4608 133.222C90.4389 132.96 90.3953 132.807 90.1114 132.763C90.0458 132.763 89.893 132.742 89.8056 132.742C89.7838 132.742 89.7401 132.698 89.7401 132.676C89.7401 132.632 89.7838 132.61 89.8711 132.61C90.2642 132.61 90.7884 132.632 90.8757 132.632C90.9631 132.632 91.4872 132.61 91.7493 132.61C91.8585 132.61 91.9022 132.632 91.9022 132.676C91.9022 132.698 91.8585 132.742 91.8148 132.742C91.7493 132.742 91.7056 132.742 91.5964 132.763C91.378 132.807 91.3125 132.96 91.2907 133.222C91.2688 133.484 91.2688 133.724 91.2688 135.035V136.214C91.2688 137.415 91.5309 137.917 91.9022 138.267C92.3171 138.66 92.7102 138.725 93.1907 138.725C93.7148 138.725 94.2389 138.485 94.5229 138.136C94.9378 137.655 95.0251 136.956 95.0251 136.105V135.035C95.0251 133.724 95.0252 133.506 95.0033 133.222C95.0033 132.96 94.9378 132.807 94.6539 132.763C94.5884 132.763 94.4355 132.742 94.3481 132.742C94.3045 132.742 94.2826 132.698 94.2826 132.676C94.2826 132.632 94.3263 132.61 94.4137 132.61C94.8068 132.61 95.3091 132.632 95.3527 132.632C95.4183 132.632 95.8332 132.61 96.0734 132.61C96.1826 132.61 96.2045 132.632 96.2045 132.676C96.2045 132.698 96.1826 132.742 96.1389 132.742C96.0734 132.742 96.0297 132.742 95.9205 132.763C95.6803 132.807 95.6366 132.96 95.6148 133.222C95.593 133.484 95.6148 133.724 95.6148 135.035V135.93C95.6148 136.825 95.5056 137.852 94.8068 138.442C94.1734 138.987 93.4964 139.053 92.9941 139.053C92.7102 139.053 91.793 139.031 91.1815 138.463C90.7665 138.07 90.4171 137.481 90.4171 136.258V135.035H90.4826Z" fill="#FEFEFE"/>
<path d="M98.4976 137.808C98.5194 138.507 98.6068 138.704 98.8251 138.769C98.978 138.813 99.1746 138.813 99.2619 138.813C99.3056 138.813 99.3274 138.835 99.3274 138.878C99.3274 138.922 99.2619 138.944 99.1746 138.944C98.6723 138.944 98.3447 138.922 98.2573 138.922C98.17 138.922 97.8205 138.944 97.4274 138.944C97.3401 138.944 97.2964 138.944 97.2964 138.878C97.2964 138.835 97.3183 138.813 97.3619 138.813C97.4275 138.813 97.5803 138.813 97.7114 138.769C97.9297 138.704 97.9516 138.485 97.9516 137.721V132.916C97.9516 132.589 97.9953 132.501 98.0608 132.501C98.17 132.501 98.301 132.676 98.3884 132.763C98.5194 132.894 99.7861 134.248 101.118 135.624C101.97 136.52 102.909 137.502 103.171 137.786L103.084 133.593C103.084 133.047 103.018 132.873 102.756 132.807C102.603 132.785 102.407 132.763 102.341 132.763C102.276 132.763 102.276 132.72 102.276 132.676C102.276 132.632 102.341 132.61 102.45 132.61C102.844 132.61 103.258 132.632 103.368 132.632C103.477 132.632 103.761 132.61 104.11 132.61C104.198 132.61 104.263 132.61 104.263 132.676C104.263 132.698 104.219 132.763 104.154 132.763C104.11 132.763 104.045 132.763 103.957 132.785C103.673 132.851 103.652 133.004 103.652 133.506L103.63 138.42C103.63 138.966 103.63 139.031 103.564 139.031C103.477 139.031 103.39 138.966 102.909 138.529C102.822 138.442 101.577 137.219 100.66 136.258C99.655 135.209 98.6723 134.183 98.4102 133.877L98.4976 137.808Z" fill="#FEFEFE"/>
<path d="M106.163 135.035C106.163 133.724 106.163 133.506 106.141 133.222C106.119 132.938 106.076 132.807 105.792 132.763C105.726 132.763 105.573 132.742 105.486 132.742C105.464 132.742 105.421 132.698 105.421 132.676C105.421 132.632 105.464 132.61 105.552 132.61C105.945 132.61 106.513 132.632 106.556 132.632C106.665 132.632 107.211 132.61 107.714 132.61C108.587 132.61 110.16 132.523 111.186 133.571C111.623 134.008 112.038 134.707 112.038 135.69C112.038 136.738 111.579 137.546 111.099 138.048C110.727 138.442 109.941 139.009 108.478 139.009C108.107 139.009 107.648 138.987 107.277 138.966C106.906 138.944 106.6 138.922 106.578 138.922C106.556 138.922 106.403 138.922 106.229 138.922C106.054 138.922 105.835 138.944 105.704 138.944C105.617 138.944 105.573 138.922 105.573 138.878C105.573 138.856 105.595 138.813 105.639 138.813C105.726 138.813 105.835 138.791 105.901 138.769C106.076 138.725 106.098 138.573 106.119 138.332C106.163 137.983 106.163 137.328 106.163 136.52V135.035ZM106.949 135.93C106.949 136.825 106.949 137.59 106.949 137.743C106.949 137.939 106.971 138.245 107.058 138.354C107.168 138.507 107.473 138.682 108.5 138.682C109.308 138.682 110.007 138.42 110.531 137.917C110.99 137.502 111.208 136.694 111.208 135.93C111.208 134.86 110.749 134.183 110.4 133.833C109.592 133.004 108.631 132.894 107.583 132.894C107.408 132.894 107.146 132.916 107.058 132.96C106.971 132.982 106.949 133.025 106.949 133.135V135.93Z" fill="#FEFEFE"/>
<path d="M115.357 132.785C115.467 132.501 115.51 132.458 115.554 132.458C115.641 132.458 115.663 132.567 115.75 132.763C115.903 133.113 117.301 136.585 117.825 137.852C118.131 138.594 118.371 138.704 118.568 138.769C118.699 138.813 118.83 138.813 118.917 138.813C118.961 138.813 119.026 138.835 119.026 138.878C119.026 138.922 118.939 138.944 118.83 138.944C118.699 138.944 118.065 138.944 117.454 138.922C117.279 138.922 117.148 138.922 117.148 138.856C117.148 138.813 117.17 138.813 117.214 138.791C117.257 138.769 117.345 138.704 117.301 138.573L116.515 136.651C116.493 136.607 116.493 136.607 116.427 136.607H114.418C114.375 136.607 114.353 136.629 114.331 136.673L113.829 138.005C113.741 138.201 113.698 138.42 113.698 138.573C113.698 138.747 113.85 138.791 114.003 138.791H114.091C114.156 138.791 114.178 138.813 114.178 138.856C114.178 138.9 114.134 138.922 114.047 138.922C113.85 138.922 113.37 138.9 113.261 138.9C113.173 138.9 112.737 138.922 112.387 138.922C112.278 138.922 112.213 138.9 112.213 138.856C112.213 138.813 112.256 138.791 112.3 138.791C112.365 138.791 112.496 138.791 112.562 138.769C112.955 138.725 113.13 138.42 113.283 138.005L115.357 132.785ZM116.318 136.258C116.362 136.258 116.362 136.236 116.34 136.192L115.488 133.899C115.445 133.768 115.379 133.768 115.335 133.899L114.527 136.192C114.527 136.236 114.527 136.258 114.549 136.258H116.318Z" fill="#FEFEFE"/>
<path d="M121.45 136.52C121.45 137.328 121.45 137.983 121.494 138.332C121.516 138.573 121.56 138.725 121.822 138.769C121.931 138.791 122.127 138.813 122.215 138.813C122.28 138.813 122.28 138.856 122.28 138.878C122.28 138.922 122.237 138.944 122.149 138.944C121.669 138.944 121.123 138.922 121.079 138.922C121.035 138.922 120.446 138.944 120.184 138.944C120.096 138.944 120.053 138.922 120.053 138.878C120.053 138.856 120.075 138.813 120.118 138.813C120.206 138.813 120.293 138.791 120.38 138.769C120.555 138.725 120.599 138.573 120.642 138.31C120.686 137.961 120.686 137.306 120.686 136.498V132.982L119.441 133.004C118.895 133.004 118.699 133.069 118.568 133.266C118.458 133.419 118.458 133.462 118.437 133.528C118.415 133.593 118.393 133.615 118.349 133.615C118.327 133.615 118.284 133.593 118.284 133.55C118.284 133.462 118.458 132.72 118.48 132.632C118.502 132.589 118.546 132.479 118.568 132.479C118.633 132.479 118.721 132.545 118.961 132.589C119.201 132.61 119.55 132.632 119.638 132.632H122.914C123.198 132.632 123.394 132.61 123.525 132.589C123.656 132.567 123.722 132.545 123.765 132.545C123.809 132.545 123.809 132.589 123.809 132.632C123.809 132.894 123.787 133.484 123.787 133.593C123.787 133.659 123.744 133.702 123.7 133.702C123.656 133.702 123.634 133.681 123.634 133.55V133.462C123.613 133.2 123.416 133.025 122.586 133.004L121.494 132.982V136.52H121.45Z" fill="#FEFEFE"/>
<path d="M126.342 136.52C126.342 137.328 126.342 137.983 126.386 138.332C126.408 138.573 126.452 138.725 126.692 138.769C126.823 138.791 126.998 138.813 127.085 138.813C127.129 138.813 127.15 138.856 127.15 138.878C127.15 138.922 127.107 138.944 127.019 138.944C126.539 138.944 125.971 138.922 125.927 138.922C125.884 138.922 125.338 138.944 125.076 138.944C124.988 138.944 124.945 138.922 124.945 138.878C124.945 138.856 124.967 138.813 125.01 138.813C125.098 138.813 125.207 138.791 125.272 138.769C125.447 138.725 125.469 138.573 125.491 138.332C125.534 137.983 125.534 137.328 125.534 136.52V135.035C125.534 133.724 125.534 133.506 125.513 133.222C125.491 132.938 125.425 132.807 125.229 132.763C125.141 132.742 125.032 132.742 124.967 132.742C124.923 132.742 124.901 132.698 124.901 132.676C124.901 132.632 124.945 132.61 125.032 132.61C125.316 132.61 125.862 132.632 125.906 132.632C125.949 132.632 126.517 132.61 126.779 132.61C126.888 132.61 126.91 132.632 126.91 132.676C126.91 132.698 126.867 132.742 126.845 132.742C126.779 132.742 126.735 132.742 126.626 132.763C126.386 132.807 126.342 132.938 126.321 133.222C126.321 133.484 126.321 133.724 126.321 135.035V136.52H126.342Z" fill="#FEFEFE"/>
<path d="M131.715 132.479C133.658 132.479 135.144 133.681 135.144 135.624C135.144 137.502 133.746 139.031 131.671 139.031C129.291 139.031 128.286 137.24 128.286 135.733C128.264 134.401 129.313 132.479 131.715 132.479ZM131.911 138.704C132.698 138.704 134.248 138.289 134.248 135.864C134.248 133.855 133.025 132.807 131.649 132.807C130.208 132.807 129.16 133.724 129.16 135.537C129.181 137.481 130.339 138.704 131.911 138.704Z" fill="#FEFEFE"/>
<path d="M137.327 137.808C137.349 138.507 137.415 138.704 137.655 138.769C137.808 138.813 138.004 138.813 138.092 138.813C138.135 138.813 138.157 138.835 138.157 138.878C138.157 138.922 138.092 138.944 138.004 138.944C137.502 138.944 137.175 138.922 137.087 138.922C137 138.922 136.65 138.944 136.257 138.944C136.17 138.944 136.126 138.944 136.126 138.878C136.126 138.835 136.148 138.813 136.192 138.813C136.257 138.813 136.41 138.813 136.541 138.769C136.76 138.704 136.781 138.485 136.781 137.721V132.916C136.781 132.589 136.825 132.501 136.891 132.501C137 132.501 137.131 132.676 137.218 132.763C137.349 132.894 138.616 134.248 139.948 135.624C140.8 136.52 141.739 137.502 142.001 137.786L141.914 133.593C141.914 133.047 141.848 132.873 141.586 132.807C141.433 132.785 141.237 132.763 141.171 132.763C141.106 132.763 141.106 132.72 141.106 132.676C141.106 132.632 141.171 132.61 141.28 132.61C141.673 132.61 142.088 132.632 142.198 132.632C142.285 132.632 142.591 132.61 142.94 132.61C143.027 132.61 143.093 132.61 143.093 132.676C143.093 132.698 143.049 132.763 142.984 132.763C142.94 132.763 142.875 132.763 142.787 132.785C142.503 132.851 142.481 133.004 142.481 133.506L142.46 138.42C142.46 138.966 142.46 139.031 142.394 139.031C142.307 139.031 142.219 138.966 141.739 138.529C141.652 138.442 140.407 137.219 139.49 136.258C138.485 135.209 137.502 134.183 137.24 133.877L137.327 137.808Z" fill="#FEFEFE"/>
<path d="M20.0077 103.958C20.0077 101.97 20.0077 101.599 19.9858 101.206C19.964 100.769 19.8548 100.572 19.4398 100.485C19.3306 100.463 19.1122 100.441 19.0031 100.441C18.9594 100.441 18.8939 100.42 18.8939 100.354C18.8939 100.267 18.9594 100.245 19.0904 100.245C19.3743 100.245 19.7237 100.245 20.0077 100.267L20.5318 100.289C20.7939 100.31 23.3709 100.289 23.6766 100.267C23.9168 100.245 24.1134 100.245 24.2444 100.223C24.3318 100.201 24.3755 100.136 24.4191 100.136C24.4628 100.136 24.5065 100.179 24.5065 100.245C24.5065 100.332 24.441 100.485 24.3973 100.835C24.3755 100.966 24.3536 101.533 24.3318 101.686C24.3099 101.752 24.2881 101.817 24.2226 101.817C24.1571 101.817 24.1352 101.752 24.1352 101.664C24.1352 101.555 24.0916 101.337 24.026 101.184C23.9387 101.009 23.6548 100.791 23.1525 100.769L21.187 100.725C21.0996 100.725 21.0778 100.769 21.0778 100.856V104.372C21.0778 104.438 21.0996 104.482 21.1651 104.482L22.8031 104.46C23.0214 104.46 23.1962 104.46 23.3709 104.438C23.6766 104.416 23.8513 104.372 23.9605 104.198C24.0042 104.132 24.0479 104.067 24.0916 104.067C24.1352 104.067 24.1571 104.11 24.1571 104.176C24.1571 104.241 24.0916 104.46 24.0479 104.897C24.026 105.159 24.0042 105.661 24.0042 105.748C24.0042 105.858 24.0042 105.989 23.9168 105.989C23.8513 105.989 23.8295 105.945 23.8295 105.879C23.8077 105.748 23.8077 105.574 23.7421 105.421C23.6766 105.246 23.4801 105.006 23.087 104.962C22.7594 104.918 21.3835 104.918 21.1651 104.918C21.0996 104.918 21.0778 104.94 21.0778 105.028V106.12C21.0778 107.343 21.0778 108.347 21.1433 108.893C21.187 109.264 21.2525 109.548 21.6456 109.592C21.8203 109.614 22.1042 109.636 22.2134 109.636C22.3008 109.636 22.3226 109.679 22.3226 109.723C22.3226 109.789 22.2571 109.832 22.126 109.832C21.4272 109.832 20.6191 109.789 20.5536 109.789C20.4881 109.789 19.6801 109.832 19.3088 109.832C19.1778 109.832 19.1122 109.81 19.1122 109.723C19.1122 109.679 19.1341 109.636 19.2214 109.636C19.3306 109.636 19.4835 109.614 19.6145 109.592C19.8766 109.548 19.9421 109.264 19.9858 108.893C20.0513 108.347 20.0513 107.343 20.0513 106.12V103.958H20.0077Z" fill="#FEFEFE"/>
<path d="M28.2847 106.753C28.2847 107.801 28.2847 108.653 28.3283 109.112C28.372 109.439 28.4157 109.636 28.7433 109.679C28.918 109.701 29.1582 109.723 29.2456 109.723C29.3111 109.723 29.3329 109.767 29.3329 109.81C29.3329 109.854 29.2893 109.898 29.1582 109.898C28.5249 109.898 27.8042 109.854 27.7605 109.854C27.695 109.854 26.9962 109.898 26.6467 109.898C26.5375 109.898 26.472 109.876 26.472 109.81C26.472 109.767 26.4939 109.723 26.5594 109.723C26.6686 109.723 26.7996 109.701 26.9088 109.679C27.1272 109.636 27.1709 109.417 27.1927 109.112C27.2364 108.675 27.2582 107.801 27.2582 106.753V104.831C27.2582 103.149 27.2582 102.844 27.2364 102.494C27.2145 102.123 27.1272 101.948 26.887 101.905C26.7559 101.883 26.6249 101.861 26.5375 101.861C26.4939 101.861 26.4502 101.817 26.4502 101.774C26.4502 101.708 26.4939 101.686 26.6249 101.686C26.9962 101.686 27.695 101.708 27.7605 101.708C27.8042 101.708 28.5467 101.686 28.8743 101.686C29.0054 101.686 29.049 101.708 29.049 101.774C29.049 101.817 29.0054 101.861 28.9617 101.861C28.8962 101.861 28.8088 101.861 28.6778 101.883C28.372 101.948 28.3065 102.101 28.2847 102.472C28.2628 102.822 28.2628 103.128 28.2628 104.809V106.753H28.2847Z" fill="#FEFEFE"/>
<path d="M31.2985 109.767C31.1456 109.701 31.1237 109.658 31.1237 109.352C31.1237 108.806 31.1674 108.391 31.1893 108.194C31.1893 108.085 31.2111 108.02 31.2766 108.02C31.3421 108.02 31.3858 108.063 31.3858 108.151C31.3858 108.238 31.3858 108.391 31.4295 108.544C31.6042 109.33 32.4559 109.614 33.1985 109.614C34.3122 109.614 34.8801 108.981 34.8801 108.172C34.8801 107.386 34.4651 107.015 33.4605 106.294L32.9582 105.901C31.7352 105.006 31.3421 104.329 31.3421 103.586C31.3421 102.32 32.3467 101.555 33.8318 101.555C34.2686 101.555 34.7272 101.621 34.9893 101.686C35.2077 101.73 35.295 101.73 35.3824 101.73C35.4697 101.73 35.4916 101.752 35.4916 101.795C35.4916 101.839 35.4479 102.21 35.4479 102.953C35.4479 103.128 35.426 103.193 35.3605 103.193C35.295 103.193 35.2732 103.149 35.2513 103.062C35.2295 102.931 35.1421 102.647 35.0766 102.516C34.9893 102.385 34.6398 101.97 33.6134 101.97C32.8054 101.97 32.1283 102.385 32.1283 103.149C32.1283 103.848 32.4778 104.241 33.5916 104.984L33.9191 105.202C35.295 106.141 35.7536 106.884 35.7536 107.823C35.7536 108.456 35.5134 109.155 34.7054 109.679C34.2249 109.985 33.526 110.072 32.9145 110.072C32.3904 110.051 31.7571 109.985 31.2985 109.767Z" fill="#FEFEFE"/>
<path d="M45.5157 106.753C45.5157 107.801 45.5375 108.653 45.5812 109.112C45.6249 109.439 45.6467 109.636 45.9962 109.679C46.149 109.701 46.4111 109.723 46.4985 109.723C46.564 109.723 46.6077 109.767 46.6077 109.81C46.6077 109.854 46.5421 109.898 46.4111 109.898C45.7996 109.898 45.0789 109.854 45.0134 109.854C44.9697 109.854 44.2272 109.898 43.8996 109.898C43.7686 109.898 43.7249 109.876 43.7249 109.81C43.7249 109.767 43.7467 109.723 43.8123 109.723C43.9214 109.723 44.0525 109.701 44.1398 109.679C44.3801 109.636 44.4019 109.417 44.4456 109.09C44.4893 108.653 44.4893 107.823 44.4893 106.775V105.683C44.4893 105.639 44.4674 105.617 44.4237 105.617H39.7502C39.7065 105.617 39.6847 105.639 39.6847 105.683V106.775C39.6847 107.823 39.6847 108.653 39.7283 109.09C39.772 109.417 39.8157 109.614 40.1433 109.658C40.318 109.679 40.5582 109.701 40.6456 109.701C40.7111 109.701 40.7329 109.745 40.7329 109.789C40.7329 109.832 40.6893 109.876 40.5582 109.876C39.9249 109.876 39.226 109.832 39.1605 109.832C39.095 109.832 38.3743 109.876 38.0467 109.876C37.9375 109.876 37.872 109.854 37.872 109.789C37.872 109.745 37.8939 109.701 37.9594 109.701C38.0686 109.701 38.1996 109.679 38.3088 109.658C38.5272 109.614 38.549 109.395 38.5927 109.09C38.6582 108.653 38.6582 107.779 38.6582 106.731V104.809C38.6582 103.128 38.6582 102.822 38.6364 102.472C38.6145 102.101 38.549 101.927 38.1778 101.883C38.0904 101.861 37.8939 101.861 37.7847 101.861C37.741 101.861 37.6973 101.817 37.6973 101.774C37.6973 101.708 37.741 101.686 37.872 101.686C38.3743 101.686 39.095 101.708 39.1605 101.708C39.2042 101.708 39.9249 101.686 40.2743 101.686C40.4054 101.686 40.449 101.708 40.449 101.774C40.449 101.817 40.4054 101.861 40.3617 101.861C40.2962 101.861 40.2088 101.861 40.0778 101.883C39.772 101.948 39.7065 102.101 39.6847 102.472C39.6628 102.822 39.6628 103.149 39.6628 104.831V105.071C39.6628 105.137 39.6847 105.137 39.7283 105.137H44.4019C44.4456 105.137 44.4674 105.137 44.4674 105.071V104.831C44.4674 103.149 44.4456 102.822 44.4456 102.472C44.4237 102.101 44.3582 101.927 44.0088 101.883C43.9214 101.861 43.7249 101.861 43.6157 101.861C43.572 101.861 43.5283 101.817 43.5283 101.774C43.5283 101.708 43.572 101.686 43.7031 101.686C44.2054 101.686 44.926 101.708 44.9697 101.708C45.0352 101.708 45.7559 101.686 46.0835 101.686C46.2145 101.686 46.2801 101.708 46.2801 101.774C46.2801 101.817 46.2364 101.861 46.1709 101.861C46.0835 101.861 46.0398 101.861 45.887 101.883C45.6031 101.948 45.5375 102.101 45.4939 102.472C45.472 102.822 45.472 103.128 45.472 104.809V106.753H45.5157Z" fill="#FEFEFE"/>
<path d="M49.2283 104.853C49.2283 103.171 49.2283 102.866 49.2065 102.516C49.1847 102.145 49.1191 101.97 48.7479 101.927C48.6605 101.905 48.464 101.905 48.3548 101.905C48.3111 101.905 48.2674 101.861 48.2674 101.817C48.2674 101.752 48.3111 101.73 48.4421 101.73C48.9444 101.73 49.687 101.752 49.7525 101.752C49.8398 101.752 52.1766 101.774 52.4387 101.752C52.6571 101.73 52.8536 101.708 52.941 101.686C52.9847 101.664 53.0502 101.643 53.0939 101.643C53.1375 101.643 53.1375 101.686 53.1375 101.752C53.1375 101.817 53.072 101.948 53.0502 102.254C53.0283 102.363 53.0065 102.844 52.9847 102.975C52.9628 103.018 52.941 103.084 52.8755 103.084C52.8099 103.084 52.7881 103.04 52.7881 102.953C52.7881 102.866 52.7663 102.691 52.7226 102.56C52.6352 102.385 52.526 102.298 51.9145 102.232C51.718 102.21 50.4295 102.189 50.2985 102.189C50.2548 102.189 50.2329 102.232 50.2329 102.298V105.246C50.2329 105.333 50.2329 105.355 50.2985 105.355C50.4295 105.355 51.9145 105.355 52.1766 105.333C52.4387 105.312 52.6134 105.29 52.7226 105.181C52.8099 105.093 52.8536 105.049 52.8973 105.049C52.941 105.049 52.9628 105.071 52.9628 105.137C52.9628 105.202 52.8973 105.377 52.8755 105.727C52.8536 105.945 52.8318 106.36 52.8318 106.425C52.8318 106.513 52.8099 106.622 52.7226 106.622C52.6789 106.622 52.6352 106.578 52.6352 106.513C52.6352 106.404 52.6352 106.294 52.5916 106.163C52.5479 106.01 52.4605 105.879 52.0237 105.836C51.718 105.792 50.5168 105.792 50.3203 105.792C50.2548 105.792 50.2548 105.836 50.2548 105.879V106.775C50.2548 107.146 50.2329 108.413 50.2548 108.631C50.2766 109.352 50.495 109.505 51.587 109.505C51.8709 109.505 52.4168 109.505 52.7008 109.395C52.9847 109.264 53.1375 109.068 53.2031 108.653C53.2249 108.522 53.2467 108.478 53.3122 108.478C53.3778 108.478 53.3996 108.566 53.3996 108.653C53.3996 108.74 53.3122 109.461 53.2467 109.701C53.1594 109.985 53.0502 109.985 52.6134 109.985C51.7617 109.985 51.1283 109.963 50.6697 109.941C50.1893 109.92 49.9053 109.92 49.7306 109.92C49.7088 109.92 49.4904 109.92 49.2502 109.941C49.0318 109.963 48.7697 109.963 48.595 109.963C48.4858 109.963 48.4203 109.941 48.4203 109.876C48.4203 109.832 48.4421 109.789 48.5077 109.789C48.6168 109.789 48.7479 109.745 48.8571 109.745C49.0755 109.701 49.0973 109.483 49.141 109.177C49.2065 108.74 49.2065 107.867 49.2065 106.818V104.853H49.2283Z" fill="#FEFEFE"/>
<path d="M56.2605 104.853C56.2605 103.171 56.2605 102.866 56.2387 102.516C56.2168 102.145 56.1513 101.97 55.7801 101.927C55.6927 101.905 55.4962 101.905 55.387 101.905C55.3433 101.905 55.2996 101.861 55.2996 101.817C55.2996 101.752 55.3433 101.73 55.4743 101.73C55.9766 101.73 56.741 101.752 56.8065 101.752C56.9157 101.752 57.8766 101.73 58.2042 101.73C58.9249 101.73 59.7111 101.795 60.3008 102.21C60.5847 102.407 61.087 102.931 61.087 103.695C61.087 104.504 60.7594 105.268 59.7111 106.163C60.6283 107.321 61.4146 108.304 62.0697 108.981C62.6594 109.592 63.0306 109.701 63.3146 109.723C63.5329 109.767 63.6421 109.767 63.7077 109.767C63.7732 109.767 63.8168 109.81 63.8168 109.854C63.8168 109.92 63.7513 109.941 63.5548 109.941H62.8559C62.2226 109.941 61.9387 109.876 61.6548 109.723C61.1743 109.461 60.7594 108.937 60.126 108.129C59.6456 107.539 59.1651 106.84 58.9031 106.556C58.8594 106.513 58.8375 106.491 58.7502 106.491L57.287 106.425C57.2433 106.425 57.1996 106.447 57.1996 106.513V106.775C57.1996 107.823 57.1996 108.653 57.2433 109.112C57.287 109.439 57.3525 109.636 57.6801 109.679C57.8329 109.701 58.0732 109.723 58.1824 109.723C58.2697 109.723 58.2697 109.767 58.2697 109.81C58.2697 109.854 58.226 109.898 58.095 109.898C57.4835 109.898 56.7628 109.854 56.7191 109.854C56.6973 109.854 55.9548 109.898 55.6054 109.898C55.4962 109.898 55.4306 109.876 55.4306 109.81C55.4306 109.767 55.4525 109.723 55.518 109.723C55.6272 109.723 55.7582 109.701 55.8674 109.679C56.0858 109.636 56.1077 109.417 56.1513 109.112C56.2168 108.675 56.2169 107.801 56.2169 106.753V104.853H56.2605ZM57.2214 105.77C57.2214 105.836 57.2433 105.879 57.3088 105.901C57.4835 105.989 58.0513 106.076 58.5536 106.076C58.8157 106.076 59.1214 106.054 59.4053 105.879C59.7985 105.617 60.0824 105.049 60.0824 104.22C60.0824 102.866 59.3398 102.079 58.1387 102.079C57.8111 102.079 57.4398 102.123 57.3306 102.145C57.287 102.167 57.2433 102.21 57.2433 102.276V105.77H57.2214Z" fill="#FEFEFE"/>
<path d="M66.787 108.718C65.5421 107.605 65.2364 106.163 65.2364 104.94C65.2364 104.089 65.5203 102.582 66.6559 101.446C67.4203 100.682 68.5778 100.07 70.5433 100.07C71.0456 100.07 71.7663 100.114 72.3996 100.223C72.8801 100.31 73.295 100.398 73.71 100.42C73.841 100.441 73.8847 100.485 73.8847 100.551C73.8847 100.66 73.841 100.813 73.8191 101.271C73.7973 101.686 73.7973 102.385 73.7755 102.582C73.7536 102.778 73.7318 102.844 73.6663 102.844C73.5789 102.844 73.5571 102.756 73.5571 102.582C73.5571 102.079 73.3605 101.555 73.0111 101.271C72.5743 100.878 71.5916 100.551 70.4559 100.551C68.7525 100.551 67.9663 101.053 67.5295 101.49C66.5904 102.385 66.372 103.521 66.372 104.831C66.372 107.277 68.2502 109.505 70.9801 109.505C71.941 109.505 72.6835 109.395 73.2077 108.871C73.4697 108.587 73.6444 108.02 73.6881 107.801C73.71 107.67 73.7318 107.605 73.8191 107.605C73.8847 107.605 73.9065 107.692 73.9065 107.801C73.9065 107.889 73.7536 109.002 73.6226 109.439C73.5352 109.679 73.5134 109.701 73.295 109.81C72.7927 110.007 71.81 110.094 71.0019 110.094C69.0801 110.094 67.7916 109.614 66.787 108.718Z" fill="#FEFEFE"/>
<path d="M76.6801 104.853C76.6801 103.171 76.6801 102.866 76.6582 102.516C76.6364 102.145 76.5709 101.97 76.1996 101.927C76.1123 101.905 75.9157 101.905 75.8065 101.905C75.7628 101.905 75.7191 101.861 75.7191 101.817C75.7191 101.752 75.7628 101.73 75.8939 101.73C76.3962 101.73 77.1387 101.752 77.2042 101.752C77.2916 101.752 79.6283 101.774 79.8904 101.752C80.1088 101.73 80.3054 101.708 80.3927 101.686C80.4364 101.664 80.5019 101.643 80.5456 101.643C80.5893 101.643 80.5893 101.686 80.5893 101.752C80.5893 101.839 80.5237 101.948 80.5019 102.254C80.4801 102.363 80.4582 102.844 80.4364 102.975C80.4146 103.018 80.3927 103.084 80.3272 103.084C80.2617 103.084 80.2398 103.04 80.2398 102.953C80.2398 102.866 80.218 102.691 80.1743 102.56C80.087 102.385 79.9778 102.298 79.3663 102.232C79.1697 102.21 77.8812 102.189 77.7502 102.189C77.7065 102.189 77.6847 102.232 77.6847 102.298V105.246C77.6847 105.333 77.6847 105.355 77.7502 105.355C77.8812 105.355 79.3663 105.355 79.6283 105.333C79.8904 105.312 80.0651 105.29 80.1743 105.181C80.2617 105.093 80.3054 105.049 80.349 105.049C80.3927 105.049 80.4146 105.071 80.4146 105.137C80.4146 105.202 80.349 105.377 80.3272 105.727C80.3054 105.945 80.2835 106.36 80.2835 106.425C80.2835 106.513 80.2617 106.622 80.1743 106.622C80.1306 106.622 80.087 106.578 80.087 106.513C80.087 106.404 80.087 106.294 80.0433 106.163C79.9996 106.01 79.9123 105.879 79.4755 105.836C79.1697 105.792 77.9686 105.792 77.772 105.792C77.7065 105.792 77.6847 105.836 77.6847 105.879V106.775C77.6847 107.146 77.6628 108.413 77.6847 108.631C77.7065 109.352 77.9249 109.505 79.0168 109.505C79.3008 109.505 79.8467 109.505 80.1306 109.395C80.4146 109.264 80.5674 109.068 80.6329 108.653C80.6548 108.522 80.6766 108.478 80.7421 108.478C80.8076 108.478 80.8077 108.566 80.8077 108.653C80.8077 108.74 80.7203 109.461 80.6548 109.701C80.5674 109.985 80.4582 109.985 80.0215 109.985C79.1697 109.985 78.5364 109.963 78.0778 109.941C77.5973 109.92 77.3134 109.92 77.1387 109.92C77.1168 109.92 76.8985 109.92 76.6582 109.941C76.4398 109.963 76.1778 109.963 76.0031 109.963C75.8939 109.963 75.8283 109.941 75.8283 109.876C75.8283 109.832 75.8502 109.789 75.9157 109.789C76.0249 109.789 76.1559 109.745 76.2651 109.745C76.4835 109.701 76.5054 109.483 76.549 109.177C76.6146 108.74 76.6146 107.867 76.6146 106.818V104.853H76.6801Z" fill="#FEFEFE"/>
<path d="M84.1709 108.435C84.1927 109.33 84.3019 109.592 84.6077 109.679C84.8042 109.723 85.0663 109.745 85.1755 109.745C85.2191 109.745 85.2628 109.789 85.2628 109.832C85.2628 109.898 85.1755 109.92 85.0663 109.92C84.4329 109.92 83.9743 109.876 83.887 109.876C83.7996 109.876 83.3191 109.92 82.795 109.92C82.6858 109.92 82.6203 109.898 82.6203 109.832C82.6203 109.789 82.664 109.745 82.7076 109.745C82.795 109.745 82.9916 109.723 83.1663 109.679C83.4502 109.592 83.4939 109.308 83.4939 108.325V102.101C83.4939 101.664 83.5594 101.555 83.6467 101.555C83.7778 101.555 83.9743 101.774 84.0835 101.883C84.2582 102.058 85.8962 103.805 87.6214 105.574C88.7352 106.731 89.9364 108.02 90.2858 108.369L90.1766 102.931C90.1548 102.232 90.1111 101.992 89.7617 101.927C89.5651 101.883 89.3031 101.883 89.2157 101.883C89.1283 101.883 89.1283 101.817 89.1283 101.774C89.1283 101.708 89.2157 101.686 89.3467 101.686C89.849 101.686 90.395 101.708 90.526 101.708C90.6571 101.708 91.0283 101.686 91.487 101.686C91.5962 101.686 91.6835 101.708 91.6835 101.774C91.6835 101.817 91.6398 101.883 91.5525 101.883C91.5088 101.883 91.4214 101.883 91.2904 101.905C90.9192 101.992 90.8973 102.189 90.8973 102.844L90.8755 109.199C90.8755 109.92 90.8536 109.985 90.7881 109.985C90.6789 109.985 90.5479 109.898 89.9364 109.33C89.8272 109.221 88.2111 107.627 87.0099 106.404C85.6996 105.028 84.4548 103.717 84.1053 103.324L84.1709 108.435Z" fill="#FEFEFE"/>
<path d="M96.772 106.753C96.772 107.801 96.772 108.653 96.8157 109.112C96.8594 109.439 96.9031 109.636 97.2525 109.679C97.4053 109.701 97.6674 109.723 97.7548 109.723C97.8203 109.723 97.8421 109.767 97.8421 109.81C97.8421 109.854 97.7985 109.898 97.6674 109.898C97.0559 109.898 96.3352 109.854 96.2697 109.854C96.226 109.854 95.4398 109.898 95.1123 109.898C94.9812 109.898 94.9375 109.876 94.9375 109.81C94.9375 109.767 94.9594 109.723 95.0249 109.723C95.1341 109.723 95.2651 109.701 95.3525 109.679C95.5709 109.636 95.6364 109.417 95.6801 109.09C95.7237 108.653 95.7237 107.779 95.7237 106.731V102.167L94.1077 102.189C93.4088 102.21 93.1467 102.276 92.972 102.538C92.841 102.735 92.841 102.8 92.7973 102.887C92.7755 102.975 92.7318 102.997 92.6881 102.997C92.6663 102.997 92.6008 102.975 92.6008 102.909C92.6008 102.8 92.841 101.817 92.841 101.73C92.8628 101.664 92.9283 101.533 92.9502 101.533C93.0375 101.533 93.1467 101.621 93.4525 101.664C93.7801 101.708 94.2169 101.708 94.326 101.708H98.5628C98.9341 101.708 99.1962 101.686 99.3709 101.664C99.5456 101.643 99.6329 101.621 99.6985 101.621C99.7421 101.621 99.7421 101.686 99.7421 101.752C99.7421 102.079 99.6985 102.866 99.6985 102.997C99.6985 103.084 99.6548 103.128 99.5893 103.128C99.5456 103.128 99.5019 103.084 99.5019 102.931L99.4801 102.822C99.4364 102.494 99.1962 102.254 98.126 102.232L96.7283 102.21V106.753H96.772Z" fill="#FEFEFE"/>
<path d="M102.123 104.853C102.123 103.171 102.123 102.866 102.101 102.516C102.079 102.145 102.013 101.97 101.642 101.927C101.555 101.905 101.358 101.905 101.249 101.905C101.205 101.905 101.162 101.861 101.162 101.817C101.162 101.752 101.205 101.73 101.336 101.73C101.839 101.73 102.581 101.752 102.647 101.752C102.712 101.752 105.071 101.774 105.333 101.752C105.551 101.73 105.748 101.708 105.835 101.686C105.879 101.664 105.944 101.643 105.988 101.643C106.032 101.643 106.032 101.686 106.032 101.752C106.032 101.839 105.966 101.948 105.944 102.254C105.923 102.363 105.901 102.844 105.879 102.975C105.857 103.018 105.835 103.084 105.77 103.084C105.704 103.084 105.682 103.04 105.682 102.953C105.682 102.866 105.661 102.691 105.617 102.56C105.551 102.385 105.42 102.298 104.809 102.232C104.612 102.21 103.324 102.189 103.193 102.189C103.149 102.189 103.127 102.232 103.127 102.298V105.246C103.127 105.333 103.127 105.355 103.193 105.355C103.324 105.355 104.809 105.355 105.071 105.333C105.333 105.312 105.508 105.29 105.617 105.181C105.704 105.093 105.748 105.049 105.792 105.049C105.835 105.049 105.857 105.071 105.857 105.137C105.857 105.202 105.792 105.377 105.77 105.727C105.748 105.945 105.726 106.36 105.726 106.425C105.726 106.513 105.704 106.622 105.617 106.622C105.573 106.622 105.529 106.578 105.529 106.513C105.529 106.404 105.53 106.294 105.486 106.163C105.442 106.01 105.355 105.879 104.918 105.836C104.612 105.792 103.411 105.792 103.215 105.792C103.149 105.792 103.149 105.836 103.149 105.879V106.775C103.149 107.146 103.127 108.413 103.149 108.631C103.171 109.352 103.389 109.505 104.481 109.505C104.765 109.505 105.311 109.505 105.595 109.395C105.879 109.264 106.032 109.068 106.097 108.653C106.119 108.522 106.141 108.478 106.207 108.478C106.272 108.478 106.272 108.566 106.272 108.653C106.272 108.74 106.185 109.461 106.119 109.701C106.032 109.985 105.923 109.985 105.486 109.985C104.634 109.985 104.001 109.963 103.542 109.941C103.062 109.92 102.778 109.92 102.603 109.92C102.581 109.92 102.363 109.92 102.123 109.941C101.904 109.963 101.642 109.963 101.467 109.963C101.358 109.963 101.293 109.941 101.293 109.876C101.293 109.832 101.315 109.789 101.38 109.789C101.489 109.789 101.62 109.745 101.729 109.745C101.948 109.701 101.97 109.483 102.013 109.177C102.079 108.74 102.079 107.867 102.079 106.818V104.853H102.123Z" fill="#FEFEFE"/>
<path d="M109.155 104.853C109.155 103.171 109.155 102.866 109.133 102.516C109.111 102.145 109.046 101.97 108.674 101.927C108.587 101.905 108.39 101.905 108.281 101.905C108.238 101.905 108.194 101.861 108.194 101.817C108.194 101.752 108.238 101.73 108.369 101.73C108.871 101.73 109.635 101.752 109.701 101.752C109.81 101.752 110.771 101.73 111.098 101.73C111.819 101.73 112.605 101.795 113.195 102.21C113.479 102.407 113.981 102.931 113.981 103.695C113.981 104.504 113.654 105.268 112.605 106.163C113.523 107.321 114.309 108.304 114.964 108.981C115.554 109.592 115.925 109.701 116.209 109.723C116.427 109.767 116.536 109.767 116.602 109.767C116.667 109.767 116.711 109.81 116.711 109.854C116.711 109.92 116.646 109.941 116.449 109.941H115.75C115.117 109.941 114.833 109.876 114.549 109.723C114.069 109.461 113.654 108.937 113.02 108.129C112.54 107.539 112.059 106.84 111.819 106.556C111.775 106.513 111.732 106.491 111.666 106.491L110.247 106.469C110.203 106.469 110.159 106.491 110.159 106.556V106.818C110.159 107.867 110.159 108.697 110.203 109.155C110.247 109.483 110.312 109.679 110.64 109.723C110.793 109.745 111.033 109.767 111.142 109.767C111.229 109.767 111.229 109.81 111.229 109.854C111.229 109.898 111.186 109.941 111.055 109.941C110.443 109.941 109.723 109.898 109.679 109.898C109.657 109.898 108.915 109.941 108.565 109.941C108.456 109.941 108.39 109.92 108.39 109.854C108.39 109.81 108.412 109.767 108.478 109.767C108.587 109.767 108.718 109.745 108.827 109.723C109.046 109.679 109.067 109.461 109.111 109.155C109.177 108.718 109.177 107.845 109.177 106.797V104.853H109.155ZM110.116 105.77C110.116 105.836 110.138 105.879 110.203 105.901C110.378 105.989 110.946 106.076 111.448 106.076C111.71 106.076 112.016 106.054 112.3 105.879C112.693 105.617 112.977 105.049 112.977 104.22C112.977 102.866 112.234 102.079 111.033 102.079C110.705 102.079 110.334 102.123 110.225 102.145C110.181 102.167 110.138 102.21 110.138 102.276V105.77H110.116Z" fill="#FEFEFE"/>
<path d="M120.052 104.853C120.052 103.149 120.052 102.844 120.031 102.494C120.009 102.123 119.943 101.948 119.572 101.883C119.485 101.861 119.288 101.861 119.179 101.861C119.135 101.861 119.092 101.817 119.092 101.774C119.092 101.708 119.135 101.686 119.266 101.686C119.79 101.686 120.489 101.708 120.555 101.708C120.773 101.708 123.241 101.73 123.503 101.708C123.721 101.686 123.918 101.686 124.027 101.664C124.093 101.643 124.136 101.599 124.18 101.599C124.224 101.599 124.267 101.643 124.267 101.708C124.267 101.795 124.224 101.905 124.18 102.232C124.158 102.341 124.158 102.822 124.136 102.953C124.115 102.997 124.093 103.062 124.027 103.062C123.984 103.062 123.94 103.018 123.94 102.931C123.94 102.844 123.896 102.669 123.831 102.516C123.765 102.385 123.503 102.189 123.066 102.189L121.21 102.167C121.144 102.167 121.123 102.189 121.123 102.276V105.268C121.123 105.333 121.123 105.377 121.21 105.377L122.761 105.355C122.957 105.355 123.132 105.355 123.285 105.333C123.547 105.312 123.7 105.268 123.809 105.137C123.852 105.071 123.918 105.028 123.962 105.028C124.005 105.028 124.027 105.071 124.027 105.115C124.027 105.181 123.94 105.355 123.918 105.727C123.896 105.945 123.874 106.382 123.874 106.469C123.874 106.578 123.852 106.687 123.765 106.687C123.7 106.687 123.678 106.644 123.678 106.578C123.656 106.469 123.656 106.316 123.59 106.185C123.547 106.032 123.35 105.879 123.001 105.836C122.717 105.792 121.385 105.814 121.188 105.814C121.123 105.814 121.101 105.836 121.101 105.923V106.797C121.101 107.889 121.101 108.74 121.144 109.177C121.188 109.505 121.254 109.701 121.559 109.767C121.734 109.789 121.974 109.81 122.084 109.81C122.149 109.81 122.171 109.854 122.171 109.898C122.171 109.941 122.127 109.985 121.996 109.985C121.363 109.985 120.62 109.941 120.577 109.941C120.511 109.941 119.812 109.985 119.463 109.985C119.354 109.985 119.288 109.963 119.288 109.898C119.288 109.854 119.31 109.81 119.375 109.81C119.485 109.81 119.616 109.767 119.725 109.767C119.943 109.723 119.965 109.505 120.031 109.177C120.096 108.718 120.096 107.867 120.096 106.797V104.853H120.052Z" fill="#FEFEFE"/>
<path d="M130.142 101.533C132.697 101.533 134.619 103.084 134.619 105.639C134.619 108.085 132.807 110.116 130.077 110.116C126.975 110.116 125.643 107.779 125.643 105.814C125.643 104.045 127.019 101.533 130.142 101.533ZM130.404 109.658C131.431 109.658 133.462 109.112 133.462 105.945C133.462 103.324 131.867 101.927 130.077 101.927C128.177 101.927 126.823 103.106 126.823 105.486C126.823 108.063 128.351 109.658 130.404 109.658Z" fill="#FEFEFE"/>
<path d="M137 104.853C137 103.149 137 102.844 136.978 102.494C136.956 102.123 136.89 101.948 136.519 101.883C136.432 101.861 136.235 101.861 136.126 101.861C136.082 101.861 136.039 101.817 136.039 101.774C136.039 101.708 136.082 101.686 136.213 101.686C136.738 101.686 137.48 101.708 137.546 101.708C137.655 101.708 138.616 101.686 138.965 101.686C139.686 101.686 140.494 101.752 141.084 102.167C141.367 102.363 141.87 102.909 141.87 103.652C141.87 104.46 141.542 105.246 140.472 106.141C141.389 107.299 142.175 108.304 142.852 108.981C143.464 109.592 143.835 109.701 144.119 109.745C144.338 109.789 144.447 109.789 144.512 109.789C144.578 109.789 144.621 109.832 144.621 109.876C144.621 109.941 144.556 109.963 144.359 109.963H143.661C143.027 109.963 142.743 109.898 142.459 109.745C141.979 109.483 141.564 108.959 140.909 108.129C140.428 107.539 139.926 106.818 139.686 106.535C139.642 106.491 139.598 106.469 139.533 106.469L138.092 106.447C138.048 106.447 138.004 106.469 138.004 106.535V106.797C138.004 107.845 138.004 108.697 138.048 109.155C138.092 109.483 138.157 109.679 138.507 109.745C138.659 109.767 138.9 109.789 139.009 109.789C139.096 109.789 139.096 109.832 139.096 109.876C139.096 109.92 139.052 109.963 138.921 109.963C138.31 109.963 137.589 109.92 137.524 109.92C137.502 109.92 136.759 109.963 136.41 109.963C136.301 109.963 136.235 109.941 136.235 109.876C136.235 109.832 136.257 109.789 136.323 109.789C136.432 109.789 136.563 109.767 136.672 109.745C136.89 109.701 136.912 109.483 136.978 109.155C137.043 108.697 137.043 107.845 137.043 106.775V104.853H137ZM137.982 105.77C137.982 105.836 138.004 105.879 138.07 105.901C138.244 105.989 138.812 106.076 139.315 106.076C139.577 106.076 139.904 106.054 140.166 105.879C140.559 105.617 140.843 105.049 140.843 104.198C140.843 102.822 140.101 102.036 138.878 102.036C138.55 102.036 138.179 102.079 138.07 102.101C138.026 102.123 137.982 102.167 137.982 102.232V105.77Z" fill="#FEFEFE"/>
</svg>
