<svg width="160" height="64" viewBox="0 0 160 64" fill="none" xmlns="http://www.w3.org/2000/svg">
<path d="M15.498 42.2721L29.7395 45.3064V18.6729L15.498 21.6954V42.2721ZM33.9794 50.8456L12.084 44.9279V19.0305L33.9469 13.1558L33.9781 50.8469L33.9794 50.8456Z" fill="#00A86B"/>
<path d="M24.998 6.81006L4 14.4263V49.5735L24.998 57.191V6.81006ZM7.7418 47.5094V16.493L20.8049 12.4611V51.54L7.7418 47.5081V47.5094Z" fill="#00A86B"/>
<path d="M24.998 19.6764L27.0699 19.2381V15.0034L24.998 15.5588V19.6764ZM24.998 48.4169L27.0699 48.9761V44.7375L24.998 44.2953V48.4169Z" fill="#038754"/>
<path d="M55.0739 19.9429C59.7027 19.9429 62.6252 21.8547 63.4575 25.5926L59.6 26.6344C59.1526 24.2478 57.7414 23.2204 55.0739 23.2204C52.4025 23.2204 51.0174 24.4988 51.0174 26.3015C51.0174 28.2016 51.8094 29.1524 55.8985 29.7428C61.4377 30.4959 64.3068 32.0683 64.3068 36.7543C64.3068 40.8186 60.8446 43.9986 55.6345 43.9986C49.7519 43.9986 46.9947 41.3337 46.3145 37.493L50.3788 36.3953H50.3918C50.687 38.7546 51.6443 40.7211 55.6345 40.7211C58.2396 40.7211 60.0864 39.2787 60.0864 37.1159C60.0864 34.953 58.9978 34.1336 55.1715 33.5106C49.5334 32.7563 46.8633 31.0525 46.8633 26.6617C46.8633 22.8263 50.1603 19.9429 55.0739 19.9429ZM74.3331 26.1701C78.6198 26.1701 82.4774 28.6932 82.4774 34.8216V35.9687H69.8486C69.98 39.2124 71.6291 41.0489 74.5958 41.0489C77.0045 41.0489 78.257 40.0981 78.5548 38.4269H82.4123C81.8531 42.0308 78.9176 43.9986 74.4982 43.9986C69.4207 43.9986 65.7596 40.6886 65.7596 35.2807V35.018C65.7596 29.7077 69.4207 26.1701 74.3331 26.1701ZM129.42 26.1701C134.465 26.1701 138.257 29.6765 138.257 34.9205V35.1819C138.257 40.5234 134.465 43.9986 129.387 43.9986C124.308 43.9986 120.55 40.4922 120.55 35.2807V35.018C120.55 29.7077 124.341 26.1701 129.42 26.1701ZM92.9328 26.1688C96.7565 26.1688 100.353 27.8726 100.814 32.5911H96.9555C96.6265 30.2982 95.1087 29.3474 92.9978 29.3474C90.2614 29.3474 88.3157 31.4453 88.3157 34.9842V35.2482C88.3157 38.9835 90.1626 40.95 93.098 40.95C95.2088 40.9487 97.0219 39.704 97.2521 37.2784H100.913C100.617 41.2114 97.6149 43.9973 92.9328 43.9973C87.9867 43.9973 84.228 40.7848 84.228 35.3106V35.0505C84.228 29.6102 88.118 26.1688 92.9328 26.1688ZM107.226 21.0211V26.5304H111.019V29.5126H107.226V38.5244C107.226 40.0318 107.952 40.7211 109.204 40.7211C109.995 40.7211 110.591 40.6223 111.15 40.3921V43.5395C110.523 43.7697 109.666 43.9648 108.446 43.9648C105.017 43.9648 103.236 42.1296 103.236 38.886V22.1006L107.226 21.0211ZM118.175 26.5304V43.6708H114.184V26.5304H118.175ZM150.098 26.1701C153.56 26.1701 156 28.1678 156 32.8889V43.6708H152.01V33.2492C152.01 30.6584 150.955 29.4788 148.58 29.4788C146.338 29.4788 144.525 30.8574 144.525 33.5757V43.6708H140.534V26.5317H144.525V29.2499C145.349 27.5786 147.262 26.1701 150.098 26.1701ZM129.42 29.2824C126.452 29.2824 124.639 31.4141 124.639 34.953V35.2144C124.639 38.7208 126.387 40.9175 129.42 40.9175C132.388 40.9175 134.169 38.7208 134.169 35.2144V34.9855C134.169 31.4466 132.388 29.2824 129.42 29.2824ZM74.3331 29.0535C71.9257 29.0535 70.3103 30.6584 69.915 33.3142H78.521C78.3233 30.3645 76.8068 29.0535 74.3331 29.0535ZM118.175 20.2134V24.1789H114.184V20.2134H118.175Z" fill="black"/>
</svg>
