<svg width="184" height="48" viewBox="0 0 184 48" fill="none" xmlns="http://www.w3.org/2000/svg">
<path fill-rule="evenodd" clip-rule="evenodd" d="M165.998 41.5503H163.493C162.915 41.5503 162.611 41.9812 162.611 42.7969C162.611 43.5691 162.912 44 163.493 44H173.116C173.729 44 174.036 43.5691 174.036 42.7969C174.036 41.9812 173.729 41.5503 173.116 41.5503H165.998Z" fill="#28ABE1"/>
<path fill-rule="evenodd" clip-rule="evenodd" d="M151.323 41.5502H148.824C148.254 41.5502 147.916 41.9812 147.916 42.7968C147.916 43.569 148.254 44 148.824 44H158.438C159.04 44 159.343 43.569 159.343 42.7968C159.343 41.9812 159.04 41.5502 158.438 41.5502H151.323Z" fill="#3DB3E3"/>
<path fill-rule="evenodd" clip-rule="evenodd" d="M137.43 41.5503H134.928C134.318 41.5503 134.043 41.9812 134.043 42.7969C134.043 43.5691 134.318 44 134.928 44H144.548C145.161 44 145.47 43.5691 145.47 42.7969C145.47 41.9812 145.161 41.5503 144.548 41.5503H137.43Z" fill="#4AB8E6"/>
<path fill-rule="evenodd" clip-rule="evenodd" d="M122.753 41.5502H120.265C119.652 41.5502 119.346 41.9812 119.346 42.7968C119.346 43.569 119.652 44 120.265 44H129.856C130.469 44 130.773 43.569 130.773 42.7968C130.773 41.9812 130.469 41.5502 129.856 41.5502H122.753Z" fill="#57BDE8"/>
<path fill-rule="evenodd" clip-rule="evenodd" d="M108.064 41.5503H105.571C104.964 41.5503 104.654 41.9812 104.654 42.7969C104.654 43.5691 104.964 44 105.571 44H115.165C115.775 44 116.082 43.5691 116.082 42.7969C116.082 41.9812 115.775 41.5503 115.165 41.5503H108.064Z" fill="#63C2EB"/>
<path fill-rule="evenodd" clip-rule="evenodd" d="M94.1844 41.5502H91.6971C91.0839 41.5502 90.7773 41.9812 90.7773 42.7968C90.7773 43.569 91.0839 44 91.6971 44H101.288C101.901 44 102.205 43.569 102.205 42.7968C102.205 41.9812 101.901 41.5502 101.288 41.5502H94.1844Z" fill="#70C7EB"/>
<path fill-rule="evenodd" clip-rule="evenodd" d="M79.493 41.5503H77.0028C76.3925 41.5503 76.0859 41.9812 76.0859 42.7969C76.0859 43.5691 76.3925 44 77.0028 44H86.5964C87.2356 44 87.5133 43.5691 87.5133 42.7969C87.5133 41.9812 87.2356 41.5503 86.5964 41.5503H79.493Z" fill="#7DCCEE"/>
<path fill-rule="evenodd" clip-rule="evenodd" d="M64.7977 41.5503H62.3104C61.6972 41.5503 61.3906 41.9812 61.3906 42.7969C61.3906 43.5691 61.6972 44 62.3104 44H71.9329C72.5143 44 72.8208 43.5691 72.8208 42.7969C72.8208 41.9812 72.5143 41.5503 71.9329 41.5503H64.7977Z" fill="#8AD1F0"/>
<path fill-rule="evenodd" clip-rule="evenodd" d="M50.9276 41.5503H48.4286C47.8213 41.5503 47.5176 41.9812 47.5176 42.7969C47.5176 43.5691 47.8213 44 48.4286 44H58.0281C58.6354 44 58.9449 43.5691 58.9449 42.7969C58.9449 41.9812 58.6383 41.5503 58.0281 41.5503H50.9276Z" fill="#97D7F0"/>
<path fill-rule="evenodd" clip-rule="evenodd" d="M36.2091 41.5502H33.7391C33.1317 41.5502 32.8223 41.9812 32.8223 42.7968C32.8223 43.569 33.1288 44 33.7391 44H43.3356C43.9459 44 44.2525 43.569 44.2525 42.7968C44.2525 41.9812 43.9459 41.5502 43.3356 41.5502H36.2091Z" fill="#A3DCF3"/>
<path fill-rule="evenodd" clip-rule="evenodd" d="M21.5341 41.5502H19.0468C18.4336 41.5502 18.1328 41.9812 18.1328 42.7968C18.1328 43.569 18.4336 44 19.0439 44H28.6462C29.2536 44 29.5572 43.569 29.5572 42.7968C29.5572 41.9812 29.2565 41.5502 28.6462 41.5502H21.5341Z" fill="#B0E1F5"/>
<path fill-rule="evenodd" clip-rule="evenodd" d="M7.64169 41.5502H5.14277C4.5325 41.5502 4.25195 41.9812 4.25195 42.7968C4.25195 43.569 4.5325 44 5.14277 44H14.7682C15.3756 44 15.6851 43.569 15.6851 42.7968C15.6851 41.9812 15.3756 41.5502 14.7682 41.5502H7.64169Z" fill="#BDE6F5"/>
<path fill-rule="evenodd" clip-rule="evenodd" d="M4.25195 11.8814H6.86656V15.4707C7.76316 14.1316 8.68868 13.1858 9.64313 12.5727C10.8795 11.7845 12.3129 11.3605 13.7791 11.3492C14.7538 11.3492 15.6851 11.543 16.5817 11.9335C17.4493 12.3268 18.1869 12.8503 18.7277 13.5242C19.2773 14.1634 19.7661 15.1063 20.1739 16.3095C21.0415 14.6956 22.1319 13.4635 23.4074 12.6016C24.6533 11.7842 26.1111 11.3488 27.6012 11.3492C29.0155 11.3492 30.2389 11.705 31.3004 12.4309C32.3619 13.1569 33.1514 14.1663 33.6952 15.4707C34.2129 16.7549 34.4559 18.7043 34.4559 21.2668V32.5698H31.8181V21.2668C31.8181 19.0629 31.6533 17.5329 31.3554 16.697C31.0477 15.8756 30.4852 15.1742 29.7501 14.6956C29.0155 14.1837 28.116 13.9436 27.0835 13.9436C25.8388 13.9446 24.6273 14.3451 23.6272 15.086C22.5918 15.8265 21.834 16.859 21.3423 18.1142C20.8796 19.3984 20.6337 21.5098 20.6337 24.4714V32.5698H18.022V21.9928C18.022 19.4823 17.889 17.7874 17.5882 16.8908C17.2919 16.0245 16.7303 15.2736 15.983 14.7448C15.1902 14.2023 14.2478 13.9212 13.2874 13.9407C12.09 13.9407 10.9765 14.2965 9.91211 15.0542C8.87957 15.7773 8.11891 16.778 7.5983 18.0304C7.10951 19.2856 6.86656 21.2061 6.86656 23.7975V32.5698H4.25195V11.8814ZM49.9815 14.0014C47.7892 14.0014 45.9266 14.8171 44.3647 16.4801C42.8058 18.1229 42.0076 20.1244 42.0076 22.4902C42.0076 23.9884 42.3662 25.3999 43.0777 26.7274C43.7892 28.0289 44.7465 29.0412 45.9815 29.744C47.1876 30.4497 48.5007 30.8142 49.9815 30.8142C51.4016 30.8142 52.7465 30.4497 53.9497 29.744C55.1813 29.0315 56.1868 27.9859 56.8507 26.7274C57.565 25.3999 57.9237 23.9884 57.9237 22.4902C57.9237 20.1215 57.1254 18.1229 55.5694 16.4801C54.0076 14.8171 52.1449 14.0014 49.9815 14.0014ZM49.9815 11.3492C53.1023 11.3492 55.6995 12.5351 57.7617 14.8489C59.6504 16.9892 60.5788 19.4996 60.5788 22.4382C60.5788 25.3478 59.5867 27.9046 57.5882 30.0824C55.6157 32.2863 53.0734 33.3883 49.9815 33.3883C46.8579 33.3883 44.3098 32.2892 42.3402 30.0824C40.3906 28.0184 39.3202 25.2771 39.3554 22.4382C39.3554 19.5343 40.2867 17.021 42.1724 14.8778C44.2288 12.5351 46.829 11.3492 49.9815 11.3492ZM75.4219 14.0535C73.9352 14.0535 72.5961 14.4179 71.364 15.1439C70.1146 15.8959 69.1601 16.9082 68.4226 18.2589C67.7082 19.5835 67.3235 20.9776 67.3235 22.4382C67.3235 23.9277 67.7082 25.3362 68.4226 26.6551C69.1601 28.0029 70.1464 29.0441 71.3843 29.7961C72.6453 30.5192 73.9613 30.9212 75.3929 30.9212C76.8188 30.9212 78.1984 30.5221 79.4826 29.7961C80.7494 29.0615 81.7386 28.0492 82.4501 26.7939C83.1355 25.53 83.4624 24.1041 83.4624 22.5221C83.4624 20.1157 82.6988 18.094 81.1254 16.4917C80.4011 15.7052 79.5182 15.0813 78.5351 14.661C77.5519 14.2407 76.4909 14.0337 75.4219 14.0535ZM85.8803 4V32.8561H83.3004V29.2668C82.2984 30.5363 81.0449 31.5849 79.6185 32.3471C78.2191 33.0373 76.6786 33.3937 75.1182 33.3883C72.2404 33.3883 69.7617 32.3153 67.7285 30.1634C65.701 28.0289 64.6598 25.449 64.6598 22.3601C64.6598 19.3782 65.701 16.7983 67.7603 14.6667C69.8196 12.5351 72.2867 11.4707 75.1963 11.4707C76.8738 11.4707 78.3807 11.8294 79.7284 12.5611C81.1052 13.2871 82.2881 14.3861 83.3004 15.8496V4H85.8803ZM109.091 20.2343C108.738 18.7968 108.206 17.6746 107.54 16.7983C106.828 15.8992 105.902 15.1915 104.848 14.739C103.763 14.2055 102.569 13.9322 101.36 13.9407C99.338 13.9407 97.6258 14.5944 96.1536 15.919C95.1066 16.8792 94.2968 18.3196 93.7472 20.2343H109.091ZM109.091 25.8771L111.306 27.0918C110.674 28.4027 109.823 29.596 108.79 30.6204C107.844 31.5017 106.744 32.2016 105.545 32.6855C104.359 33.1309 102.994 33.3883 101.47 33.3883C98.1232 33.3883 95.4913 32.2545 93.6026 30.0333C91.7169 27.7773 90.7769 25.2552 90.7769 22.4382C90.7769 19.757 91.5549 17.3883 93.1659 15.329C95.2049 12.6739 97.9324 11.3492 101.339 11.3492C104.828 11.3492 107.624 12.7057 109.727 15.4071C111.222 17.3275 111.969 19.705 112 22.5799H93.4898C93.5564 25.0094 94.2968 27.0108 95.7863 28.5611C96.48 29.3146 97.325 29.9131 98.266 30.3173C99.207 30.7215 100.223 30.9224 101.247 30.9067C102.308 30.9067 103.298 30.7043 104.295 30.3369C105.296 29.9725 106.123 29.4693 106.82 28.8677C107.543 28.2574 108.287 27.2654 109.091 25.8771ZM116.081 11.8814H118.829V14.9096C119.639 13.718 120.521 12.8272 121.426 12.2343C122.366 11.6558 123.297 11.3492 124.284 11.3492C125.05 11.3492 125.846 11.6067 126.693 12.0434L125.276 14.2965C124.834 14.0865 124.356 13.9656 123.867 13.9407C122.956 13.9407 122.08 14.2965 121.264 15.0224C120.405 15.7455 119.783 16.8908 119.338 18.4208C119 19.5922 118.829 21.9928 118.829 25.5821V32.5698H116.081V11.8814ZM129.961 11.8814H132.478V15.5835C133.478 14.1663 134.624 13.1048 135.833 12.4107C137.052 11.7065 138.436 11.3401 139.844 11.3492C141.322 11.3492 142.621 11.7368 143.763 12.5235C144.894 13.3275 145.75 14.3861 146.285 15.6934C146.835 17.0325 147.098 19.0947 147.098 21.9291V32.5727H144.582V22.71C144.582 20.3153 144.475 18.7187 144.292 17.9147C143.997 16.5495 143.448 15.5199 142.598 14.8257C141.773 14.1605 140.694 13.7961 139.335 13.7961C137.825 13.7961 136.449 14.3254 135.234 15.3868C134.01 16.4685 133.212 17.7845 132.845 19.3348C132.611 20.3673 132.48 22.2646 132.48 24.966V32.5669H129.961V11.8814ZM162.762 13.9436C161.305 13.9436 159.957 14.308 158.702 15.0427C157.459 15.8044 156.444 16.8863 155.763 18.175C155.049 19.4996 154.658 20.9226 154.658 22.3774C154.658 23.8785 155.049 25.2871 155.763 26.6117C156.498 27.9711 157.484 29.0123 158.722 29.7758C159.989 30.5105 161.305 30.9067 162.731 30.9067C164.162 30.9067 165.536 30.5105 166.823 29.7787C168.087 29.0441 169.079 28.0289 169.794 26.7563C170.473 25.4924 170.8 24.0521 170.8 22.47C170.8 20.0405 170.036 18.0101 168.498 16.3991C167.768 15.61 166.88 14.9834 165.892 14.5598C164.904 14.1363 163.837 13.9253 162.762 13.9407V13.9436ZM173.221 11.8901V32.8503H170.638V29.235C169.539 30.6233 168.301 31.6414 166.956 32.3471C165.557 33.0373 164.016 33.3937 162.456 33.3883C159.578 33.3883 157.099 32.3153 155.069 30.1432C153.036 28.0029 151.997 25.3999 151.997 22.2936C151.997 19.3059 153.039 16.7057 155.098 14.5625C157.163 12.4194 159.63 11.3521 162.54 11.3521C164.211 11.3521 165.721 11.7166 167.066 12.4512C168.446 13.1829 169.629 14.2878 170.638 15.7484V11.8843L173.221 11.8901ZM177.689 13.6833H178.016C178.19 13.6833 178.303 13.6833 178.355 13.6226C178.389 13.6042 178.417 13.5766 178.437 13.5428C178.456 13.5091 178.466 13.4706 178.465 13.4317C178.46 13.3798 178.442 13.3301 178.412 13.2871C178.386 13.2414 178.348 13.2035 178.303 13.1772C178.245 13.1772 178.129 13.1569 177.996 13.1569H177.689V13.6833ZM177.406 14.6956V12.9197H177.996C178.219 12.9197 178.355 12.9197 178.465 12.9516C178.546 13.0123 178.638 13.0644 178.69 13.154C178.745 13.2238 178.774 13.3109 178.771 13.3999C178.773 13.4623 178.762 13.5245 178.739 13.5827C178.716 13.6408 178.682 13.6938 178.638 13.7382C178.525 13.8316 178.387 13.8917 178.242 13.9118C178.334 13.9407 178.355 13.9725 178.415 13.9928C178.465 14.0853 178.546 14.1952 178.658 14.3601L178.884 14.6956H178.525L178.381 14.4179C178.242 14.1952 178.158 14.0535 178.08 13.9928C178.016 13.9725 177.935 13.9407 177.851 13.9407H177.689V14.6927L177.406 14.6956ZM178.106 12.3905C177.868 12.3925 177.635 12.4584 177.432 12.5813C177.215 12.6933 177.04 12.873 176.935 13.0933C176.802 13.3031 176.734 13.5478 176.741 13.7961C176.738 14.0349 176.805 14.2693 176.935 14.47C177.039 14.691 177.214 14.871 177.432 14.9819C177.663 15.1265 177.883 15.1757 178.106 15.1757C178.351 15.1823 178.593 15.1147 178.8 14.9819C179.021 14.8728 179.198 14.6924 179.303 14.47C179.418 14.263 179.483 14.0324 179.494 13.7961C179.486 13.5501 179.421 13.3094 179.303 13.0933C179.187 12.8785 179.013 12.7009 178.8 12.5813C178.591 12.4546 178.35 12.3885 178.106 12.3905ZM178.106 12.162C178.384 12.1647 178.659 12.2248 178.913 12.3384C179.177 12.4731 179.391 12.6877 179.526 12.9516C179.7 13.2061 179.749 13.4895 179.749 13.7961C179.749 14.0853 179.702 14.3601 179.558 14.6146C179.402 14.8648 179.193 15.0772 178.945 15.2364C178.687 15.3626 178.404 15.4282 178.117 15.4282C177.831 15.4282 177.548 15.3626 177.29 15.2364C177.044 15.0768 176.837 14.8644 176.683 14.6146C176.547 14.3637 176.479 14.0815 176.486 13.7961C176.486 13.4895 176.538 13.2061 176.68 12.9516C176.831 12.7017 177.039 12.4915 177.287 12.3384C177.547 12.2307 177.825 12.1718 178.106 12.1649V12.162Z" fill="#E11735"/>
</svg>
