<svg width="224" height="48" viewBox="0 0 224 48" fill="none" xmlns="http://www.w3.org/2000/svg">
<path d="M48.648 12.8641V35.3594H43.3966V32.9758C42.2048 34.9125 40.0074 36.0298 36.8044 36.0298C31.4785 36.0298 28.8342 33.2737 28.8342 28.879V12.8641H34.5698V27.352C34.5698 29.6983 35.8361 31.0763 38.2942 31.0763C41.1619 31.0763 42.9124 29.4376 42.9124 26.4209V12.8641H48.648ZM85.8919 19.6425V35.3594H80.1563V21.3557C80.1563 18.6741 79.0763 17.0354 76.5809 17.0354C74.0856 17.0354 72.6331 18.8976 72.6331 21.5047V35.3594H66.8975V21.3557C66.8975 18.4879 65.7057 17.0354 63.3221 17.0354C60.7895 17.0354 59.3742 18.8976 59.3742 21.5047V35.3594H53.6387V12.8641H58.9645V15.3594C60.2681 13.1993 62.4282 12.1192 65.3705 12.1192C68.2383 12.1192 70.3984 13.311 71.6275 15.4339C73.1545 13.2365 75.4264 12.1192 78.3686 12.1192C83.1731 12.1192 85.8919 14.987 85.8919 19.6425ZM131.925 35.3594H126.19V4.07449H131.925V35.3594ZM194.123 35.3594H188.387V12.8641H194.123V35.3594ZM188.276 9.47486H194.197V4H188.276V9.47486ZM215.613 27.6871C213.266 30.1825 211.665 31.1508 209.505 31.1508C206.935 31.1508 205.11 29.6611 204.29 27.352V20.797C205.147 18.4507 206.972 16.9609 209.579 16.9609C211.479 16.9609 213.005 17.6313 215.426 19.9032L219.002 16.365C216.134 13.2365 213.341 12.0819 209.579 12.0819C204.328 12.0819 200.268 14.838 198.667 19.4562V28.6927C200.231 33.311 204.216 36.0298 209.43 36.0298C213.49 36.0298 216.283 34.689 219.411 30.8156L215.613 27.6871ZM16.3947 21.5047C14.8305 21.1695 13.7131 20.8715 13.08 20.7225C12.2979 20.4991 11.702 20.2011 11.404 19.7914V18.0782C11.9254 17.2588 13.1917 16.7374 14.9422 16.7374C17.3631 16.7374 19.039 17.2961 21.6834 19.3818L24.7746 15.6574C21.6461 13.0503 18.9645 12.1192 15.0912 12.1192C10.6219 12.1192 7.53065 13.9441 6.3016 16.5512V22.2123C7.26994 24.1117 9.50458 25.1918 13.9739 26.1601C15.5753 26.5326 16.6554 26.7933 17.2886 26.905C18.1079 27.1657 18.8528 27.5009 19.2625 28.0968V30.0708C18.7038 30.9646 17.3631 31.4488 15.6126 31.4488C14.3463 31.486 13.1172 31.2253 11.9627 30.7412C10.8454 30.2942 9.54182 29.4376 7.90309 28.0968L4.58838 31.784C8.1638 34.9497 11.1806 36.0298 15.4636 36.0298C20.0446 36.0298 23.2848 34.2793 24.5139 31.486V25.7877C23.4711 23.6648 20.9757 22.5475 16.3947 21.5047ZM100.938 12.0819C95.7616 12.0819 91.702 14.8752 90.026 19.3445V28.8045C91.6647 33.2737 95.7616 36.067 100.938 36.067C106.115 36.067 110.138 33.2737 111.776 28.8417V19.3073C110.1 14.8752 106.041 12.0819 100.938 12.0819ZM106.227 27.3892C105.333 29.7728 103.434 31.1881 100.901 31.1881C98.4059 31.1881 96.432 29.7728 95.5381 27.3892V20.7598C96.432 18.3762 98.3314 16.9236 100.901 16.9236C103.434 16.9236 105.296 18.3762 106.19 20.7598L106.227 27.3892ZM147.27 12.0819C142.093 12.0819 138.033 14.8752 136.357 19.3445V28.8045C138.033 33.2737 142.093 36.067 147.27 36.067C152.447 36.067 156.469 33.2737 158.108 28.8417V19.3073C156.469 14.8752 152.41 12.0819 147.27 12.0819ZM152.559 27.3892C151.665 29.7728 149.765 31.1881 147.27 31.1881C144.775 31.1881 142.801 29.7728 141.907 27.3892V20.7598C142.801 18.3762 144.7 16.9236 147.27 16.9236C149.84 16.9236 151.665 18.3762 152.559 20.7598V27.3892ZM178.071 12.8641V15.3594C176.618 13.1993 174.346 12.1192 171.218 12.1192C166.972 12.1192 163.546 14.7263 162.056 18.8603V28.1341C163.508 32.2682 166.935 34.838 171.218 34.838C174.086 34.838 176.246 33.8696 177.773 31.9702V33.7579C177.773 37.4823 175.613 39.2328 172.261 39.2328C169.765 39.2328 167.717 38.4879 164.439 36.5512L161.646 40.6853C164.812 42.8082 168.536 43.9628 172.335 44C178.667 44 183.322 40.6108 183.322 34.2793V12.8641H178.071ZM177.363 26.5326C176.506 28.6555 174.719 29.9963 172.484 29.9963C170.249 29.9963 168.462 28.6927 167.605 26.5326V20.3873C168.462 18.2644 170.212 16.9609 172.484 16.9609C174.756 16.9609 176.506 18.2644 177.363 20.3873V26.5326Z" fill="#000099"/>
</svg>
