<svg width="160" height="64" viewBox="0 0 160 64" fill="none" xmlns="http://www.w3.org/2000/svg">
<path d="M26.8042 29.5029V7.02856C14.4272 7.61123 4.50864 17.2669 4 29.5029H26.8042Z" fill="#F315AE"/>
<path d="M31.9746 7.02856V29.5029C44.4364 28.9202 54.2702 19.2646 54.8636 7.02856H31.9746Z" fill="#1ACEFF"/>
<path d="M30.8734 39.4915C38.9269 39.4915 46.048 44.7355 48.676 51.9772H27.9063C19.8528 51.9772 12.7317 46.7332 10.1037 39.4915H30.8734ZM30.8734 34.4972H4C4.59342 46.9829 15.1902 56.9715 27.9911 56.9715H54.8645C54.2711 44.569 43.6743 34.4972 30.8734 34.4972Z" fill="#1B1B1B"/>
<path d="M80.0427 30.0023C79.1102 28.0046 77.4147 27.0057 75.1258 27.0057C72.0739 27.0057 70.0393 29.4196 70.0393 32.4994C70.0393 35.6625 72.2435 37.9932 75.2953 37.9932C77.4994 37.9932 79.0254 36.9943 80.0427 35.0798H86.7398C85.4682 40.4903 80.7209 43.9863 75.1258 43.9863C68.5982 43.9863 63.5117 38.8255 63.5117 32.4162C63.5117 25.9236 68.6829 20.9294 75.041 20.9294C80.8056 20.9294 85.553 24.5086 86.7398 30.0023H80.0427Z" fill="#1B1B1B"/>
<path d="M89.6221 21.6785H95.8107V24.0092H95.8954C97.0823 21.6785 98.8625 21.0126 101.406 21.0126V27.5052C97.5061 27.5052 96.2345 29.0034 96.2345 31.4174V43.3204H89.6221V21.6785Z" fill="#1B1B1B"/>
<path d="M120.056 43.2372V40.9065H119.971C119.039 42.821 116.411 43.9863 113.528 43.9863C107.001 43.9863 102.508 38.992 102.508 32.4162C102.508 26.0069 107.255 20.9294 113.528 20.9294C116.241 20.9294 118.7 22.0114 119.971 23.9259H120.056V21.5953H126.668V43.1539H120.056V43.2372ZM120.056 32.4162C120.056 29.4196 117.598 26.9225 114.461 26.9225C111.409 26.9225 109.035 29.3364 109.035 32.4994C109.035 35.496 111.494 37.9099 114.546 37.9099C117.682 37.9932 120.056 35.5793 120.056 32.4162Z" fill="#1B1B1B"/>
<path d="M145.912 43.2372V27.4219H138.791V43.2372H132.179V27.4219H129.296V21.6785H132.179V21.1791C132.179 16.7674 134.552 14.52 140.741 14.52H141.165V19.3478C139.215 19.3478 138.706 20.2634 138.706 21.6785H145.827V14.52H152.44V21.6785H156V27.4219H152.44V43.2372H145.912Z" fill="#1B1B1B"/>
</svg>
