<svg width="248" height="48" viewBox="0 0 248 48" fill="none" xmlns="http://www.w3.org/2000/svg">
<path fill-rule="evenodd" clip-rule="evenodd" d="M100.068 15.8389C100.388 16.1729 100.56 16.622 100.545 17.0845V41.0318C100.558 41.5445 100.366 42.0414 100.012 42.412C99.6575 42.7838 99.1619 42.9878 98.6484 42.9731C98.3607 42.9736 98.0747 42.9282 97.8012 42.8385C97.5508 42.7613 97.3259 42.6178 97.1503 42.4233L81.6362 22.2241V41.2394C81.6504 41.7034 81.4723 42.1526 81.144 42.4809C80.8157 42.8092 80.3665 42.9873 79.9025 42.9731C79.443 42.9908 78.9978 42.8111 78.6793 42.4794C78.3624 42.1459 78.1926 41.6992 78.208 41.2394V17.2416C78.1963 16.7304 78.3999 16.2377 78.7691 15.8838C79.1146 15.5293 79.5929 15.3359 80.0876 15.3507C80.399 15.3492 80.7078 15.4083 80.9966 15.5247C81.2594 15.6264 81.49 15.7969 81.6643 16.0184L97.1111 36.2625V17.0845C97.0969 16.6205 97.275 16.1712 97.6033 15.843C97.9316 15.5147 98.3808 15.3366 98.8448 15.3507C99.3031 15.3338 99.7473 15.5111 100.068 15.8389ZM131.938 15.8389C132.273 16.2119 132.45 16.701 132.432 17.2023V32.3517C132.464 34.3098 131.988 36.2429 131.051 37.9626C130.164 39.5851 128.846 40.9307 127.242 41.851C125.579 42.8046 123.693 43.2966 121.777 43.2761C119.843 43.3067 117.936 42.8246 116.25 41.879C114.638 40.9627 113.314 39.6164 112.423 37.9907C111.486 36.2709 111.011 34.3379 111.043 32.3798V17.2304C111.028 16.7169 111.232 16.2214 111.604 15.8669C111.982 15.4967 112.494 15.2945 113.024 15.3059C113.523 15.3062 114 15.5086 114.348 15.8669C114.715 16.2149 114.919 16.7018 114.909 17.208V32.3573C114.888 33.6507 115.216 34.9258 115.857 36.0493C117.066 38.1805 119.326 39.4981 121.777 39.5C123.007 39.5087 124.218 39.1954 125.289 38.591C126.37 37.9937 127.269 37.1155 127.892 36.0493C128.544 34.9293 128.877 33.6528 128.857 32.3573V17.208C128.839 16.7106 129.007 16.2244 129.329 15.8445C129.66 15.4735 130.139 15.2681 130.636 15.2834C131.13 15.2721 131.604 15.4746 131.938 15.8389ZM162.31 40.134C162.546 40.4597 162.67 40.8537 162.663 41.2562C162.684 41.7642 162.478 42.2553 162.102 42.5972C161.755 42.9254 161.295 43.1082 160.817 43.1078C160.203 43.1311 159.621 42.8336 159.28 42.3223L151.61 32.0824L144.113 42.3054C143.776 42.8252 143.196 43.1363 142.576 43.1302C142.123 43.1403 141.686 42.9614 141.37 42.6365C141.056 42.3475 140.877 41.9408 140.876 41.5143C140.885 41.0392 141.053 40.5808 141.353 40.2126L149.444 29.1984L141.314 18.2684C141.06 17.949 140.92 17.5542 140.915 17.1462C140.905 16.6401 141.109 16.1531 141.476 15.8052C141.824 15.4469 142.301 15.2445 142.8 15.2441C143.095 15.2456 143.385 15.3148 143.648 15.4461C143.926 15.578 144.164 15.7813 144.338 16.0353L151.918 26.219L159.426 16.1363C159.757 15.6233 160.314 15.3 160.924 15.2666C161.4 15.2691 161.852 15.473 162.169 15.8277C162.514 16.1357 162.717 16.5719 162.73 17.034C162.717 17.4394 162.58 17.831 162.338 18.1562L154.101 29.1199L162.31 40.134ZM190.785 15.8389C191.156 16.1774 191.361 16.661 191.346 17.1631C191.36 17.6584 191.154 18.1346 190.785 18.4648C190.405 18.7863 189.919 18.9543 189.421 18.9361H182.397V41.0823C182.406 41.5882 182.203 42.0749 181.835 42.4233C181.014 43.1564 179.773 43.1564 178.951 42.4233C178.586 42.0737 178.383 41.5878 178.39 41.0823V18.9361H171.382C170.884 18.955 170.397 18.7801 170.025 18.448C169.664 18.1044 169.469 17.6215 169.491 17.1238C169.476 16.6387 169.67 16.1703 170.025 15.8389C170.397 15.5068 170.884 15.3318 171.382 15.3507H189.421C189.922 15.3327 190.41 15.5074 190.785 15.8389Z" fill="#2F495E"/>
<path fill-rule="evenodd" clip-rule="evenodd" d="M199.426 42.2658C198.148 41.5423 197.085 40.4929 196.345 39.2247C196.126 38.9111 196.001 38.5411 195.986 38.1587C195.986 37.6638 196.204 37.1938 196.581 36.8738C196.902 36.5376 197.34 36.3369 197.804 36.3127C198.509 36.3785 199.154 36.7367 199.583 37.3002C200.46 38.7433 202.035 39.6142 203.724 39.5894C205.094 39.6214 206.419 39.0948 207.393 38.1306C208.377 37.1983 208.923 35.8948 208.897 34.5396V17.2413C208.891 16.7303 209.106 16.2415 209.486 15.9003C209.854 15.5382 210.35 15.3364 210.866 15.3392C211.388 15.3137 211.896 15.5069 212.269 15.8722C212.626 16.2325 212.818 16.7235 212.802 17.2301V34.5677C212.817 36.1217 212.408 37.6504 211.618 38.9891C210.836 40.3232 209.713 41.4251 208.364 42.1817C206.95 42.9824 205.349 43.3929 203.724 43.3712C202.219 43.3871 200.736 43.0058 199.426 42.2658ZM226.56 42.5576C224.996 41.964 223.562 41.0743 222.335 39.9373C221.829 39.5492 221.526 38.9531 221.51 38.3158C221.516 37.8309 221.719 37.3693 222.071 37.0365C222.407 36.6749 222.88 36.4712 223.373 36.4754C223.789 36.4697 224.191 36.6244 224.495 36.9074C225.443 37.8123 226.545 38.5401 227.75 39.0564C228.961 39.5381 230.256 39.7746 231.559 39.7522C233.044 39.7991 234.508 39.3984 235.762 38.6019C236.805 38.0158 237.459 36.9199 237.479 35.7235C237.498 34.4382 236.848 33.2353 235.762 32.5478C234.186 31.6223 232.456 30.9875 230.656 30.6737C227.94 30.1126 225.859 29.2093 224.394 27.9468C222.93 26.6844 222.206 24.9338 222.206 22.7007C222.175 21.2341 222.607 19.795 223.44 18.5879C224.288 17.3896 225.454 16.4527 226.807 15.8834C228.354 15.2307 230.021 14.9078 231.7 14.9352C233.273 14.9252 234.837 15.193 236.317 15.7263C237.623 16.1668 238.821 16.8803 239.83 17.8192C240.369 18.2166 240.702 18.8339 240.739 19.5025C240.739 19.978 240.546 20.4333 240.206 20.7649C239.879 21.1299 239.41 21.3347 238.921 21.326C238.59 21.3387 238.267 21.2243 238.017 21.0062C237.199 20.2384 236.23 19.6481 235.173 19.2724C234.077 18.8308 232.909 18.5986 231.728 18.5879C230.248 18.5118 228.781 18.8918 227.525 19.6764C226.55 20.3229 225.963 21.4153 225.963 22.5856C225.963 23.756 226.55 24.8484 227.525 25.4949C228.962 26.333 230.531 26.9211 232.165 27.2343C233.901 27.5758 235.594 28.1044 237.215 28.8109C238.439 29.352 239.485 30.2271 240.234 31.3358C240.992 32.6103 241.361 34.0791 241.294 35.5608C241.316 37.0173 240.867 38.442 240.015 39.6231C239.118 40.841 237.911 41.7962 236.519 42.3893C234.99 43.0586 233.335 43.3952 231.666 43.3768C229.929 43.4091 228.2 43.1317 226.56 42.5576Z" fill="#01C58E"/>
<path fill-rule="evenodd" clip-rule="evenodd" d="M23.092 42.6478C23.052 42.5771 23.0164 42.504 22.9854 42.429C22.7702 41.9311 22.7039 41.3815 22.7946 40.8467H10.0635L28.9835 7.55169L35.1947 18.4705L36.9958 15.2835L31.5813 5.74499C31.4298 5.47005 30.5152 4 28.9386 4C28.226 4 27.2048 4.3086 26.3744 5.76743L7.20761 39.4664C7.04489 39.7582 6.25376 41.2899 7.03928 42.6478C7.39838 43.265 8.16146 44 9.84472 44H25.8975C24.2254 44 23.4511 43.2762 23.092 42.6478Z" fill="#01C58E"/>
<path fill-rule="evenodd" clip-rule="evenodd" d="M60.0007 39.4664L44.251 11.7206C44.0883 11.4288 43.1793 9.95312 41.597 9.95312C40.8844 9.95312 39.8633 10.2561 39.0328 11.7149L36.9961 15.2835L38.8084 18.4704L41.6139 13.5048L57.1953 40.8467H51.2702C51.346 41.2987 51.3035 41.7626 51.1467 42.1933C51.1137 42.2884 51.0724 42.3804 51.0233 42.4682L50.9728 42.5692C50.1761 43.927 48.4535 44 48.1169 44H57.3861C57.7283 44 59.4452 43.927 60.242 42.5692C60.5955 41.952 60.848 40.914 60.0007 39.4664Z" fill="#108775"/>
<path fill-rule="evenodd" clip-rule="evenodd" d="M50.9723 42.5694L51.0228 42.4684C51.0719 42.3806 51.1132 42.2886 51.1462 42.1935C51.3029 41.7628 51.3455 41.2989 51.2696 40.8469C51.1823 40.3594 51.0074 39.8918 50.7534 39.4666L38.8191 18.4707L36.9956 15.2837L35.1832 18.4707L23.2545 39.4666C23.0229 39.8968 22.8672 40.3638 22.7944 40.8469C22.6984 41.38 22.7588 41.9296 22.9683 42.4292C22.9994 42.5042 23.035 42.5773 23.075 42.648C23.434 43.2652 24.1971 44.0002 25.8804 44.0002H48.0995C48.453 44.0002 50.1755 43.9273 50.9723 42.5694ZM36.9956 21.6577L47.9031 40.8469H26.0936L36.9956 21.6577Z" fill="#2F495E"/>
</svg>
