<svg width="160" height="160" viewBox="0 0 160 160" fill="none" xmlns="http://www.w3.org/2000/svg">
<path d="M71.4906 102.999L63.4587 105.233C64.1571 107.259 64.7158 110.891 64.7158 115.78V139.806H73.7255V114.383C75.4017 112.357 77.2176 111.38 79.1732 111.38C80.151 111.38 80.9193 111.589 81.7574 112.078L84.2019 103.767C82.805 103.138 82.1765 102.999 80.8495 102.999C79.8717 102.999 78.6843 103.208 77.9161 103.557C76.2398 104.395 74.1446 106.281 72.8176 108.097C72.8176 106.072 72.3287 104.465 71.4906 102.999ZM40.4805 91.1253H39.5027V139.736H48.8616V118.224H60.665V110.192H48.8616V99.0175H63.5984L64.1571 94.7571C55.2871 94.1285 47.2552 92.7317 40.4805 91.1253ZM18.6198 146.231L22.95 151.26C27.1406 149.583 32.3787 145.812 33.7756 139.806C34.2645 137.85 34.4042 136.593 34.4042 130.237V91.1951H24.9754V131.285C24.9754 136.523 24.7659 138.479 24.0675 140.294C23.1595 142.32 20.9944 144.694 18.6198 146.231ZM103.618 121.577C103.618 130.097 101.942 133.729 98.1005 133.729C96.3545 133.729 94.3989 132.751 93.5608 130.796C92.8624 128.98 92.4433 125.907 92.4433 121.716C92.4433 118.154 92.7925 115.64 93.3513 113.684C94.0497 111.449 95.7957 110.053 97.9609 110.053C99.5672 110.053 100.964 110.751 101.802 111.938C103.059 113.615 103.618 116.757 103.618 121.577ZM109.136 135.545C112.069 132.053 113.396 127.793 113.396 121.646C113.396 115.85 112.209 111.868 109.485 108.516C106.551 104.884 102.78 103.138 97.891 103.138C88.6718 103.138 82.5257 110.611 82.5257 121.926C82.5257 133.24 88.602 140.504 97.891 140.504C103.129 140.574 106.551 138.618 109.136 135.545ZM134.698 115.43C134.698 118.713 132.742 120.529 129.25 120.529C126.107 120.529 124.012 119.062 124.012 115.43C124.012 112.078 125.968 110.122 129.32 110.122C132.673 110.122 134.698 112.078 134.698 115.43ZM150.552 107.748L146.851 101.811C144.755 103.767 142.241 104.884 139.797 104.884C138.679 104.884 138.05 104.745 135.606 104.116C133.161 103.418 131.415 103.208 129.46 103.208C120.73 103.208 115.072 107.957 115.072 115.361C115.072 120.669 117.447 124.021 122.406 125.348C120.38 125.837 118.215 126.885 117.237 128.072C116.539 128.91 116.19 130.028 116.19 131.355C116.19 132.472 116.469 133.45 116.888 134.288C117.377 135.056 118.006 135.685 118.844 136.034C120.45 136.663 123.034 137.082 127.015 137.151C129.111 137.151 130.368 137.221 130.787 137.221C133.231 137.361 134.489 137.78 135.466 138.269C136.374 138.828 137.073 140.085 137.073 141.482C137.073 142.879 136.235 144.275 134.908 145.114C133.72 145.952 131.765 146.301 129.25 146.301C125.13 146.301 122.825 144.764 122.825 141.901C122.825 140.644 122.964 140.364 123.244 139.596H115.002C114.653 140.294 114.234 141.272 114.234 143.228C114.234 145.672 115.142 147.768 117.028 149.583C120.101 152.587 125.13 153.425 129.949 153.425C135.257 153.425 140.425 152.168 143.428 148.815C145.314 146.72 146.152 144.415 146.152 141.412C146.152 138.199 145.244 135.755 143.219 133.729C140.844 131.424 138.12 130.586 132.882 130.516L128.063 130.447C127.155 130.447 126.596 130.097 126.596 129.608C126.596 128.631 127.853 127.793 130.158 126.675C130.857 126.745 131.066 126.745 131.485 126.745C138.749 126.745 144.057 122.275 144.057 116.059C144.057 113.684 143.359 111.869 142.031 110.192C143.149 110.332 143.498 110.402 144.336 110.402C146.711 110.402 148.597 109.634 150.552 107.748ZM38.1058 48.8705C26.931 51.5944 19.3182 56.9723 19.3182 63.1184C19.3182 66.9598 22.2516 70.4519 27.0707 73.1757C25.604 70.8709 24.8358 68.3566 24.8358 65.8423C24.9056 59.4866 29.8644 53.55 38.1058 48.8705ZM156 72.9662C156 68.9154 153.486 65.2137 149.295 62.1406C149.644 63.3978 149.924 64.655 149.924 65.9121C149.924 77.4361 133.79 87.3538 110.882 91.4745C113.466 91.7539 116.12 91.8935 118.914 91.8935C139.377 91.8237 156 83.3727 156 72.9662ZM142.8 66.6804C142.8 62.42 139.168 58.5088 132.952 55.2961C134.419 57.0421 135.187 58.9279 135.187 60.8835C135.187 71.1503 113.396 79.4616 86.4369 79.4616C59.5475 79.4616 37.6868 71.1503 37.6868 60.8835C37.6868 59.5565 38.036 58.2993 38.7344 57.112C34.4042 59.9755 31.9597 63.2581 31.9597 66.7502C31.9597 77.8552 56.7538 86.8649 87.3448 86.8649C117.936 86.8649 142.8 77.7155 142.8 66.6804ZM118.634 66.1217C107.32 73.3853 72.5382 76.179 57.5919 66.8201C45.8584 59.4866 49.9092 47.8229 16.315 22.2606C11.9149 18.9081 17.1531 15.3461 20.4357 17.6509C23.7183 19.9557 20.715 20.5145 27.3501 27.1495C40.7598 40.5593 40.6202 28.4765 42.7154 33.0861C47.1854 42.6546 56.9633 52.2928 56.9633 52.2928C66.8111 58.7183 74.6335 60.1152 89.1607 50.2674C98.3799 44.0514 94.6084 60.185 117.168 48.5213C125.409 44.2609 125.06 47.1245 133.441 35.4608C136.933 30.6417 143.568 39.1624 136.025 40.3498C133.022 40.8387 127.923 44.1213 125.758 49.2896C122.615 57.0421 123.942 62.7692 118.634 66.1217ZM55.9157 46.4261C53.122 45.1689 50.1886 40.4196 49.0711 38.5339C52.214 35.4608 50.9569 30.3623 49.1409 27.5686C47.3949 24.7749 45.2298 25.5431 42.925 22.959C40.5503 20.3748 43.8329 13.6699 46.8361 18.8383C58.0808 38.1846 65.4841 30.1528 74.6335 28.9654C83.4336 27.848 91.256 32.6671 93.6306 19.0478C94.0497 16.8128 96.2148 16.3239 96.4243 19.9557C96.6339 23.6574 98.0307 32.5972 102.85 33.7147C107.669 34.902 111.58 32.5972 112.698 31.3401C113.815 30.0829 114.444 30.2226 114.933 33.4354C115.421 36.5783 116.679 40.9783 123.453 36.0894C137.352 26.1717 133.371 22.3304 138.819 19.7462C141.892 18.2795 146.781 23.0288 139.727 26.5908C129.669 31.6893 128.622 37.9751 122.266 41.9561C111.58 48.661 114.863 42.2355 97.6815 39.791C91.0465 38.8831 88.9512 46.2165 83.7828 44.1213C71.9795 39.2323 63.6682 40.2101 55.9157 46.4261ZM93.1417 10.5969C93.5608 13.5302 94.0497 13.4604 95.0973 13.6699C96.145 13.9493 97.472 12.2731 97.472 10.7365C97.5418 9.13016 96.7736 8.15236 95.237 8.22221C93.6306 8.29205 93.0719 9.06032 93.1417 10.5969ZM144.825 15.835C146.082 17.0224 149.435 16.2541 150.203 15.3461C152.229 13.1112 152.298 11.7842 151.251 10.2476C150.203 8.78095 148.038 8.99047 145.873 10.5969C143.708 12.2032 144.127 15.2065 144.825 15.835ZM143.917 30.6417C142.87 32.0385 142.8 33.0861 143.568 33.8544C144.406 34.6925 146.082 35.3909 147.27 34.483C148.457 33.5052 148.457 32.1083 147.479 30.921C146.432 29.6639 145.035 29.6639 143.917 30.6417ZM37.8963 13.181C39.5027 13.6699 40.271 15.2065 41.598 13.4604C42.2964 12.6223 42.3662 11.435 41.4583 10.1778C40.8995 9.40953 38.2455 8.85079 37.128 9.96827C36.0106 11.0857 37.0582 12.9017 37.8963 13.181ZM5.14017 12.2032C8.07355 14.0191 9.9593 16.743 12.1943 14.2985C12.9625 13.4604 13.8705 11.9937 12.2641 9.06032C11.0768 6.8952 7.23544 6.05709 5.90843 6.8952C4.51158 7.66347 2.83536 10.8064 5.14017 12.2032ZM32.1692 26.1019C33.0772 27.0797 34.6835 27.0098 35.6613 26.4511C36.5693 25.8924 36.4296 24.4257 35.5217 23.1685C34.9629 22.4002 33.2867 21.9812 32.1692 23.1685C31.0517 24.3558 31.5406 25.4035 32.1692 26.1019Z" fill="#41BF47"/>
</svg>
