<svg width="160" height="88" viewBox="0 0 160 88" fill="none" xmlns="http://www.w3.org/2000/svg">
<path d="M38.5704 21.8783C45.1868 21.9338 49.9812 23.8414 52.9538 27.598C55.9263 31.3545 56.9071 36.4854 55.8977 42.9906C55.5057 45.9632 54.636 48.8785 53.2902 51.7384C52 54.5982 50.2066 57.1772 47.907 59.4768C45.1027 62.3922 42.1032 64.2427 38.9069 65.0282C35.7106 65.8138 32.4016 66.2058 28.9816 66.2058H18.888L15.6917 82.1873H4L16.0282 21.8783H38.5704ZM138.289 21.8783C144.905 21.9338 149.7 23.8414 152.672 27.598C155.645 31.3545 156.625 36.4854 155.616 42.9906C155.224 45.9632 154.354 48.8785 153.009 51.7384C151.718 54.5982 149.925 57.1772 147.625 59.4768C144.821 62.3922 141.822 64.2427 138.625 65.0282C135.429 65.8138 132.12 66.2058 128.7 66.2058H118.606L115.41 82.1873H103.718L115.747 21.8783H138.289ZM80.8237 5.81268L77.5433 21.8783H87.9734C93.693 21.9909 97.9542 23.1685 100.759 25.411C103.618 27.6535 104.46 31.9163 103.282 38.1962L97.6463 66.2058H85.8705L91.2538 39.4579C91.814 36.6536 91.6458 34.6634 90.7491 33.4859C89.8524 32.3083 87.9178 31.7195 84.9453 31.7195L75.6087 31.6354L68.7115 66.2058H57.1039L69.2162 5.81268H80.8237ZM29.4862 31.4672C28.8133 31.5227 28.169 31.5513 27.5516 31.5513L25.8524 31.5512L20.8226 56.7011C21.1591 56.7566 21.4955 56.7852 21.832 56.7852H23.0095C28.3928 56.8407 32.8793 56.3091 36.4676 55.187C40.0559 54.0094 42.4682 49.9165 43.7013 42.9065C44.7107 37.0186 43.7013 33.6255 40.6733 32.7288C37.7008 31.8322 33.9728 31.4116 29.4862 31.4672ZM129.205 31.4672C128.532 31.5227 127.887 31.5513 127.27 31.5513L125.571 31.5512L120.541 56.7011C120.877 56.7566 121.214 56.7852 121.55 56.7852H122.728C128.111 56.8407 132.598 56.3091 136.186 55.187C139.774 54.0094 142.187 49.9165 143.42 42.9065C144.429 37.0186 143.42 33.6255 140.392 32.7288C137.419 31.8322 133.691 31.4116 129.205 31.4672Z" fill="black"/>
</svg>
