<svg width="232" height="48" viewBox="0 0 232 48" fill="none" xmlns="http://www.w3.org/2000/svg">
<path d="M121.675 13.2388C123.17 13.2178 124.656 13.4833 126.051 14.021C127.336 14.5225 128.472 15.345 129.349 16.41V15.0358C129.349 14.1601 130.059 13.4502 130.935 13.4502H134.317V32.2872C134.317 40.0954 130.329 43.9995 122.351 43.9995C120.301 44.0127 118.259 43.7423 116.284 43.1962C114.56 42.7493 112.948 41.9503 111.548 40.8495L113.049 38.3336C113.479 37.6375 114.374 37.4023 115.087 37.7831L115.163 37.8263C115.921 38.2599 116.722 38.6141 117.552 38.8833C119.005 39.3668 120.524 39.6165 122.055 39.6233C123.992 39.7939 125.918 39.2023 127.425 37.9742C128.665 36.5879 129.284 34.7545 129.138 32.9003V31.6952C128.237 32.6402 127.13 33.3638 125.903 33.8094C124.553 34.3207 123.118 34.5717 121.675 34.5493C119.689 34.5763 117.728 34.1114 115.967 33.1963C114.293 32.3276 112.895 31.0098 111.929 29.3908C110.923 27.6976 110.41 25.7572 110.449 23.7884C110.414 21.8266 110.927 19.8941 111.929 18.207C112.915 16.6469 114.312 15.3887 115.967 14.5707C117.733 13.6694 119.692 13.2122 121.675 13.2388ZM21.7604 28.1012C23.5037 28.1804 25.0443 29.2596 25.7142 30.871C26.3661 32.4389 26.0794 34.2358 24.9826 35.5216L24.8893 35.6275L24.8416 35.6812C24.5868 35.994 24.6027 36.4535 24.8893 36.748C26.0731 37.7457 27.4096 38.5455 28.8469 39.1171L29.1176 39.2216L29.1809 39.2398C29.5614 39.3327 29.955 39.1359 30.109 38.7757L30.1324 38.7142L30.1851 38.5809C30.6227 37.5227 31.4481 36.669 32.4953 36.1969C33.5861 35.705 34.8278 35.6675 35.9463 36.0927C37.1837 36.5917 38.1361 37.6138 38.5467 38.8833C38.5734 38.9511 38.6089 39.0151 38.6524 39.0736C27.5743 44.7183 23.5997 42.9425 15.3968 33.2808C14.1945 31.8243 13.2506 30.1725 12.6062 28.3972C15.6051 29.3231 18.8276 29.2189 21.7604 28.1012ZM74.9733 13.1331C76.5105 13.1383 78.0422 13.3156 79.5399 13.6616C80.8621 13.9397 82.1322 14.4249 83.303 15.0992L82.3094 17.002C81.7789 18.0684 80.5337 18.5684 79.413 18.1647C77.9709 17.6366 76.4457 17.3717 74.9099 17.3825C73.7136 17.3162 72.5202 17.5564 71.4427 18.0802C70.7499 18.4185 70.2962 19.1071 70.2588 19.8772C70.2326 20.6875 70.7523 21.415 71.5273 21.6531C72.8078 22.1182 74.1325 22.4512 75.4807 22.6467C76.9549 22.8705 78.4105 23.2027 79.8359 23.6404C80.9627 23.9812 81.9823 24.6075 82.7956 25.4585C83.6679 26.4699 84.1083 27.7832 84.0219 29.116C84.0522 31.1374 83.0266 33.0284 81.3158 34.1054C79.113 35.4692 76.5455 36.1258 73.9585 35.9869C72.1493 35.9777 70.3498 35.7216 68.6098 35.2259C67.1434 34.8656 65.7492 34.2579 64.4872 33.4288L65.3963 31.6318C65.9447 30.5492 67.2282 30.0633 68.3561 30.5113C68.9008 30.741 69.4585 30.9386 70.0262 31.1033C71.4 31.5022 72.824 31.7016 74.2545 31.6952C77.3553 31.6952 78.9056 30.8778 78.9056 29.2428C78.9263 28.4944 78.4402 27.8259 77.7217 27.615C76.4837 27.2057 75.2094 26.9154 73.9163 26.7482C72.3996 26.5292 70.9014 26.1971 69.4343 25.7545C68.2988 25.3888 67.2786 24.7329 66.4745 23.8518C65.5786 22.81 65.1236 21.4602 65.206 20.0886C65.1642 18.0631 66.1612 16.1569 67.8487 15.0358C69.9652 13.67 72.4577 13.0044 74.9733 13.1331ZM173.112 8.5454C173.959 8.5454 174.651 9.21024 174.695 10.0468L174.697 10.131V13.5982H180.617V17.8265H174.697V28.3972C174.632 29.295 174.92 30.1828 175.501 30.8707C176.1 31.4614 176.923 31.7689 177.763 31.7164C178.093 31.7448 178.426 31.7448 178.757 31.7164C179.946 31.4611 181.147 32.093 181.611 33.2174L182.203 34.4436C181.541 34.9674 180.778 35.3489 179.962 35.5641C179.061 35.8195 178.128 35.9476 177.192 35.9447C175.123 36.0773 173.086 35.3856 171.526 34.0208C170.103 32.5246 169.374 30.4993 169.518 28.4395V8.5454H173.112ZM150.49 13.2599C151.844 13.2437 153.188 13.4952 154.444 13.9999C155.636 14.4652 156.712 15.187 157.594 16.114V15.0992C157.594 14.2518 158.259 13.5596 159.095 13.5158L159.18 13.5136L162.816 13.4502V35.7121H157.89V32.7735C157.047 33.8148 155.957 34.6288 154.719 35.1413C153.376 35.6839 151.938 35.9499 150.49 35.9235C148.47 35.9562 146.475 35.4684 144.698 34.507C143.032 33.5901 141.661 32.2191 140.744 30.5536C138.835 26.8009 138.835 22.3615 140.744 18.6087C141.663 16.9083 143.049 15.507 144.74 14.5707C146.516 13.6557 148.494 13.2048 150.49 13.2599ZM201.737 14.6553C203.498 15.577 204.964 16.9765 205.965 18.6933C207.982 22.3445 207.982 26.7755 205.965 30.4268C204.964 32.1435 203.498 33.5431 201.737 34.4648C197.91 36.4048 193.387 36.4048 189.56 34.4648C187.799 33.5431 186.333 32.1435 185.331 30.4268C183.315 26.7755 183.315 22.3445 185.331 18.6933C186.333 16.9765 187.799 15.577 189.56 14.6553C193.387 12.7152 197.91 12.7152 201.737 14.6553ZM54.6776 11.3149C58.0179 15.2472 51.8235 29.2428 43.9377 35.7121C42.6742 34.2437 42.4915 32.1317 43.4839 30.468C44.4543 28.8413 46.3356 27.9997 48.1878 28.3503L48.314 28.376L48.3836 28.3873C48.5695 28.4087 48.7579 28.3628 48.9138 28.2565C49.0892 28.1369 49.2085 27.9511 49.2442 27.7418C49.4678 26.3169 49.4818 24.8674 49.2862 23.4394L49.2442 23.1541L49.2248 23.0918C49.0872 22.7056 48.6761 22.4813 48.2717 22.5833C46.3652 22.9339 44.4483 22.0251 43.513 20.3271C42.599 18.6678 42.8229 16.6188 44.0611 15.1974L44.1492 15.0992L44.1969 15.0456C44.4517 14.7327 44.4357 14.2733 44.1492 13.9787C42.9656 12.9808 41.6291 12.1809 40.1916 11.6096L39.9209 11.5052L39.8576 11.487C39.456 11.3889 39.0397 11.6137 38.9061 12.0126C38.6773 12.6671 38.3012 13.2602 37.8067 13.7462C36.7704 14.7605 35.3075 15.2108 33.8802 14.9547C32.4529 14.6986 31.2377 13.7678 30.6187 12.4566C30.3953 11.0301 29.9531 9.64673 29.3079 8.35513C32.5214 7.74203 51.2315 7.08665 54.6776 11.3149ZM106.389 13.4501L109.666 13.4713L101.041 33.598C100.524 34.8319 99.3412 35.6515 98.0119 35.709L97.8906 35.7121H95.0999L103.557 16.0083L103.979 15.0147C104.395 14.0564 105.345 13.4402 106.389 13.4501ZM225.31 13.1965V18.1225C224.913 18.0434 224.51 18.001 224.105 17.9956C222.359 17.9057 220.653 18.5406 219.39 19.7503C218.168 21.1554 217.552 22.9874 217.678 24.8454V35.7121H212.477V13.4502H215.839C216.686 13.4502 217.378 14.115 217.422 14.9516L217.424 15.0358V16.6848C219.241 14.1974 222.247 12.8678 225.31 13.1965ZM88.8844 13.4291C89.9041 13.4263 90.8278 14.0193 91.2524 14.9395L91.2945 15.0358L96.4319 26.8327L93.8526 32.8157L85.2269 13.4291H88.8844ZM146.389 19.5178C143.919 22.4174 143.919 26.6815 146.389 29.5811C147.623 30.8528 149.332 31.5504 151.104 31.505C152.879 31.5618 154.597 30.8716 155.839 29.6022V29.5811C158.336 26.6914 158.336 22.4075 155.839 19.5178C153.207 16.9642 149.022 16.9642 146.389 19.5178ZM190.913 19.4544C188.443 22.354 188.443 26.618 190.913 29.5177C192.147 30.7893 193.856 31.4869 195.627 31.4415C197.4 31.504 199.117 30.8216 200.363 29.56V29.5177C202.86 26.628 202.86 22.3441 200.363 19.4544C197.73 16.9008 193.545 16.9008 190.913 19.4544ZM117.51 19.3487C116.259 20.5142 115.573 22.1639 115.628 23.8729C115.562 25.6023 116.249 27.2755 117.51 28.4606C120.326 30.8102 124.419 30.8102 127.235 28.4606C128.504 27.2793 129.198 25.6056 129.138 23.8729C129.188 22.1606 128.494 20.5104 127.235 19.3487C124.41 17.0243 120.335 17.0243 117.51 19.3487ZM34.5087 21.1245C36.8672 21.1245 38.7792 23.0365 38.7792 25.3951C38.7792 27.7537 36.8672 29.6657 34.5087 29.6657C32.1501 29.6657 30.2381 27.7537 30.2381 25.3951C30.2381 23.0365 32.1501 21.1245 34.5087 21.1245ZM17.511 4C18.2963 4.02213 18.9268 4.64463 18.9676 5.42027L18.9697 5.50104V7.46719C18.964 7.9735 19.2138 8.44625 19.6298 8.7275L19.7097 8.77796L20.4708 9.22193C20.9079 9.47429 21.4405 9.48913 21.8888 9.26646L21.9718 9.22193L23.642 8.22828L23.7247 8.18071C24.0604 8.00152 24.453 7.95601 24.8227 8.05582C25.1924 8.15563 25.5087 8.39256 25.7086 8.71637L25.7561 8.7991L26.5806 10.1521L26.6286 10.2343C26.8095 10.5676 26.8581 10.9585 26.762 11.3278C26.666 11.6972 26.4332 12.0149 26.1129 12.218L26.031 12.2663L24.3819 13.2599C23.9455 13.5166 23.6698 13.9747 23.6439 14.4762L23.642 14.5707V15.3741C23.6321 15.8763 23.874 16.348 24.2823 16.6335L24.3608 16.6848L26.0098 17.6785L26.031 17.6573C26.3864 17.8634 26.6419 18.2062 26.7378 18.6057C26.8263 18.9745 26.7717 19.3619 26.5872 19.6906L26.5384 19.7715L25.7561 21.1245L25.7078 21.2064C25.5048 21.5268 25.187 21.7596 24.8177 21.8556C24.4483 21.9516 24.0575 21.9031 23.7241 21.7222L23.642 21.6742L22.0141 20.6594C21.577 20.4071 21.0444 20.3922 20.5961 20.6149L20.5131 20.6594L19.752 21.1034C19.3155 21.3601 19.0398 21.8182 19.0139 22.3197L19.012 22.4142V24.1689L19.0098 24.2513C18.9685 25.0147 18.3568 25.6264 17.5933 25.6677L17.511 25.6699H15.9677C15.1663 25.6699 14.5116 25.042 14.4688 24.2513L14.4666 24.1689V22.4564C14.4723 21.9501 14.2226 21.4774 13.8066 21.1961L13.7267 21.1457L12.9656 20.7017C12.5285 20.4494 11.9959 20.4345 11.5476 20.6572L11.4645 20.7017L9.81551 21.6954L9.73341 21.7433C9.40003 21.9242 9.00919 21.9728 8.63982 21.8767C8.27045 21.7807 7.95275 21.548 7.74971 21.2276L7.70137 21.1457L6.91914 19.7926L6.87116 19.7105C6.69025 19.3772 6.64172 18.9863 6.73776 18.6169C6.83379 18.2476 7.06654 17.9299 7.38692 17.7268L7.46881 17.6785L9.11784 16.6848C9.5421 16.4354 9.81537 15.995 9.85343 15.5082L9.85779 15.4164V14.5707C9.8606 14.0755 9.61918 13.613 9.21638 13.3317L9.13899 13.2811L7.48996 12.2874L7.40806 12.2391C7.08768 12.0361 6.85494 11.7183 6.7589 11.349C6.66286 10.9796 6.71139 10.5888 6.8923 10.2554L6.94028 10.1733L7.65909 8.77796L7.70742 8.69607C7.91046 8.37569 8.22817 8.14294 8.59754 8.0469C8.96691 7.95087 9.35775 7.99939 9.69113 8.1803L9.77323 8.22828L11.4434 9.36992C11.8805 9.62228 12.4131 9.63712 12.8614 9.41445L12.9444 9.36992L13.7055 8.92595C14.142 8.66924 14.4177 8.21118 14.4436 7.70968L14.4455 7.61518V5.50104C14.4455 4.69967 15.0735 4.04498 15.8642 4.00222L15.9465 4H17.511ZM14.4428 12.6592C13.5315 13.5766 13.2636 14.9531 13.7644 16.1453C14.25 17.3014 15.3653 18.0627 16.6116 18.1L16.7288 18.1013L16.7076 18.0802L16.8125 18.0785C18.4841 18.0245 19.8325 16.6851 19.8976 15.0138L19.9 14.909L19.8978 14.7918C19.8523 13.5459 19.0836 12.4356 17.9243 11.9576C16.7288 11.4648 15.3541 11.7418 14.4428 12.6592Z" fill="black"/>
</svg>
