<svg width="176" height="48" viewBox="0 0 176 48" fill="none" xmlns="http://www.w3.org/2000/svg">
<path d="M26.2832 7.64109H17.7527V34.065H14.2676V7.64109H5.78906V4.52016H26.2832V7.64109ZM42.356 12.9467L32.6291 37.446C30.9126 41.8153 28.4679 44 25.3469 44C24.4627 44 23.7344 43.896 23.1623 43.7399V40.723C23.8905 40.9831 24.5667 41.0871 25.1389 41.0871C26.8554 41.0871 28.1038 40.0468 28.988 38.0182L30.6525 34.013L22.4341 12.9467H26.1792L31.9009 29.1756C31.9529 29.3836 32.109 29.9038 32.317 30.788H32.4211C32.4731 30.4759 32.6291 29.9558 32.8372 29.2276L38.819 12.9467H42.356ZM47.8697 30.9961H47.7657V43.7399H44.3846V12.9467H47.7657V16.6398H47.8697C49.5342 13.8309 51.9789 12.4265 55.1519 12.4265C57.8567 12.4265 59.9893 13.3628 61.4978 15.2354C63.0062 17.1079 63.7865 19.6567 63.7865 22.8296C63.7865 26.3667 62.9022 29.1756 61.1857 31.3082C59.4692 33.4408 57.1285 34.4811 54.1636 34.4811C51.5108 34.5852 49.3781 33.3888 47.8697 30.9961ZM47.8177 22.5176V25.4824C47.8177 27.251 48.3898 28.7074 49.5342 29.9038C50.6785 31.1001 52.083 31.7243 53.8515 31.7243C55.8801 31.7243 57.4926 30.9441 58.6889 29.3836C59.8333 27.8231 60.4054 25.6385 60.4054 22.8296C60.4054 20.4889 59.8853 18.6164 58.793 17.316C57.7006 15.9636 56.2442 15.3394 54.3716 15.3394C52.395 15.3394 50.8346 16.0156 49.6382 17.368C48.3898 18.7204 47.8177 20.4369 47.8177 22.5176ZM84.4887 24.3381H69.6122C69.6642 26.6788 70.2884 28.4993 71.4848 29.7997C72.6811 31.1001 74.3456 31.7243 76.4783 31.7243C78.871 31.7243 81.0556 30.9441 83.0322 29.3836V32.5566C81.1597 33.909 78.7149 34.5852 75.698 34.5852C72.7331 34.5852 70.3924 33.6489 68.6759 31.7243C66.9594 29.7997 66.1272 27.0949 66.1272 23.6619C66.1272 20.3849 67.0634 17.6801 68.936 15.6515C70.8086 13.5709 73.0973 12.5306 75.8541 12.5306C78.6109 12.5306 80.7435 13.4148 82.252 15.2354C83.7605 17.0039 84.5407 19.5006 84.5407 22.6736L84.4887 24.3381ZM81.0036 21.4772C81.0036 19.5006 80.5355 17.9922 79.5992 16.8999C78.6629 15.8075 77.3625 15.2874 75.75 15.2874C74.1376 15.2874 72.7852 15.8596 71.6928 17.0039C70.6005 18.1482 69.8723 19.6567 69.6122 21.4772H81.0036ZM86.1532 33.0247V30.684C88.2858 32.0364 90.4185 32.7126 92.6031 32.7126C94.8918 32.7126 96.6603 32.2445 97.8567 31.2562C99.053 30.2679 99.6252 28.9675 99.6252 27.251C99.6252 25.7425 99.2091 24.5462 98.4289 23.6099C97.6486 22.7256 95.8801 21.4772 93.2273 19.9168C90.2104 18.1482 88.3378 16.6918 87.5576 15.5475C86.7774 14.3511 86.3612 12.9987 86.3612 11.4902C86.3612 9.40962 87.1935 7.64109 88.806 6.18466C90.4184 4.72822 92.6031 4 95.3079 4C97.0764 4 98.845 4.31209 100.561 4.88427V7.0169C98.845 6.23667 96.9724 5.82055 94.9958 5.82055C92.9672 5.82055 91.4068 6.3407 90.2104 7.329C89.014 8.36931 88.4419 9.61769 88.4419 11.1782C88.4419 12.6866 88.858 13.883 89.6382 14.7672C90.4184 15.6515 92.187 16.8999 94.8398 18.4083C97.5966 19.9688 99.4172 21.3732 100.353 22.5696C101.29 23.7659 101.706 25.1704 101.706 26.7828C101.706 29.0715 100.926 30.8921 99.3651 32.3485C97.8047 33.8049 95.568 34.4811 92.7071 34.4811C91.6668 34.4811 90.5225 34.3251 89.1701 34.013C87.8177 33.7009 86.8294 33.4408 86.1532 33.0247ZM119.287 33.1287C117.727 34.065 115.854 34.5852 113.669 34.5852C110.809 34.5852 108.468 33.5969 106.699 31.6203C104.931 29.6437 104.047 27.0949 104.047 23.87C104.047 20.541 105.035 17.7841 107.011 15.6515C108.988 13.5189 111.537 12.4265 114.658 12.4265C116.27 12.4265 117.831 12.7386 119.339 13.4148V15.5475C117.831 14.6112 116.166 14.143 114.398 14.143C111.901 14.143 109.924 15.0273 108.364 16.7958C106.803 18.5644 106.075 20.9051 106.075 23.7139C106.075 26.4707 106.803 28.6554 108.208 30.3199C109.612 31.9844 111.485 32.8166 113.773 32.8166C115.906 32.8166 117.727 32.2445 119.287 31.1521V33.1287ZM131.875 14.9233C131.251 14.4551 130.522 14.2471 129.638 14.2471C127.974 14.2471 126.569 15.1313 125.477 16.8479C124.333 18.5644 123.812 21.0091 123.812 24.1821V34.117H121.94V12.9467H123.812V17.6281H123.916C124.385 16.0156 125.165 14.7672 126.205 13.883C127.245 12.9987 128.442 12.5306 129.846 12.5306C130.627 12.5306 131.355 12.6346 131.927 12.8947V14.9233H131.875ZM134.892 7.64109C134.476 7.64109 134.112 7.48505 133.799 7.17295C133.487 6.86086 133.331 6.49675 133.331 6.02861C133.331 5.56047 133.487 5.19636 133.799 4.93628C134.112 4.6762 134.476 4.52016 134.892 4.52016C135.308 4.52016 135.672 4.6762 136.036 4.93628C136.348 5.19636 136.504 5.56047 136.504 6.02861C136.504 6.44473 136.348 6.86086 136.036 7.17295C135.672 7.48505 135.308 7.64109 134.892 7.64109ZM133.956 34.065V12.9467H135.828V34.065H133.956ZM142.33 30.3199H142.226V43.7919H140.353V12.9467H142.226V17.316H142.33C143.11 15.7555 144.151 14.5592 145.555 13.7269C146.959 12.8947 148.52 12.4785 150.184 12.4785C152.889 12.4785 154.97 13.4148 156.478 15.2354C157.987 17.1079 158.715 19.6047 158.715 22.7776C158.715 26.3147 157.831 29.1756 156.114 31.3602C154.398 33.5449 152.109 34.6372 149.3 34.6372C146.179 34.5852 143.838 33.1808 142.33 30.3199ZM142.226 22.4655V25.1183C142.226 27.251 142.902 29.0715 144.203 30.58C145.555 32.0884 147.271 32.8687 149.456 32.8687C151.589 32.8687 153.357 31.9324 154.71 30.1118C156.062 28.2393 156.738 25.8466 156.738 22.8296C156.738 20.1769 156.114 18.0962 154.866 16.5358C153.617 14.9753 152.005 14.1951 149.924 14.1951C147.48 14.1951 145.555 15.0273 144.203 16.6918C142.85 18.3563 142.226 20.2289 142.226 22.4655ZM170.21 33.7529C169.222 34.2211 168.286 34.4291 167.454 34.4291C164.333 34.4291 162.772 32.5566 162.772 28.8114V14.7152H158.975V12.9987H162.772V7.48505L163.708 7.17295L164.645 6.86086V12.9987H170.21V14.7152H164.645V28.6554C164.645 30.1118 164.853 31.1521 165.321 31.8283C165.789 32.5046 166.569 32.8166 167.662 32.8166C168.442 32.8166 169.274 32.5566 170.21 32.0364V33.7529Z" fill="#007ACC"/>
</svg>
