<svg width="160" height="64" viewBox="0 0 160 64" fill="none" xmlns="http://www.w3.org/2000/svg">
<path d="M26.6136 5.61743L49.2272 18.8062V45.1938L26.6136 58.3826L4 45.1938V18.8062L26.6136 5.61743ZM26.6136 8.58233L6.51262 20.3075V43.6925L26.6136 55.4164L46.7146 43.6925V20.3075L26.6136 8.58233ZM143.758 25.986L146.698 36.4737L149.794 25.986H156L148.418 47.7001L148.092 48.4916C147.014 50.8974 145.112 52.101 142.384 52.101C141.575 52.0936 140.771 51.9779 139.993 51.7568V47.6134H140.75C141.564 47.6134 142.186 47.4966 142.615 47.2617C143.045 47.0267 143.364 46.6046 143.57 45.9978L144.035 44.7604L137.57 25.986H143.758ZM125.467 18.1806V27.481C126.543 26.2549 127.936 25.6418 129.644 25.6418C131.959 25.6418 133.747 26.4735 135.008 28.1343C136.268 29.7964 136.899 32.1344 136.899 35.1496V35.441H136.9C136.9 38.4901 136.268 40.8344 135.008 42.4739C133.747 44.1121 131.971 44.9312 129.679 44.9312C127.787 44.9312 126.262 44.1812 125.106 42.6799L124.865 44.5882H119.672V18.1806H125.467ZM80.3876 19.5562V30.5929L82.4856 27.4132L87.884 19.5562H95.3465L86.8865 30.6281L95.3465 44.5882H88.1943L82.865 35.2702H82.8638L80.3888 37.9863V44.5882H74.3535V19.5562H80.3876ZM102.721 25.986V44.5882H96.9093V25.986H102.721ZM116.028 25.6418C116.646 25.6418 117.185 25.7109 117.644 25.8478L117.54 31.2299L115.632 31.0917C113.811 31.0917 112.641 31.6646 112.125 32.8116V44.5882H106.332V25.986H111.764L111.952 28.3755C112.927 26.5539 114.285 25.6418 116.028 25.6418ZM36.6641 25.7184V32L30.3826 35.2538V35.7689H36.6641V40.7942H16.5631V35.7689H22.8447V35.2199L16.5631 32V25.7184L26.6136 31.1168L36.6641 25.7184ZM128.183 30.1118C126.876 30.1118 125.972 30.6105 125.467 31.6068V39.0002C125.959 39.9864 126.876 40.4788 128.218 40.4788C129.581 40.4788 130.447 39.8143 130.813 38.4851C130.997 37.8318 131.089 36.6961 131.089 35.0805C131.089 33.2927 130.85 32.0176 130.375 31.255C129.899 30.4937 129.169 30.1118 128.183 30.1118ZM99.7938 18.1806C101.528 18.1806 102.935 19.5867 102.935 21.3213C102.935 23.0559 101.528 24.4621 99.7938 24.4621C98.0592 24.4621 96.653 23.0559 96.653 21.3213C96.653 19.5867 98.0592 18.1806 99.7938 18.1806Z" fill="black"/>
</svg>
