<svg width="160" height="64" viewBox="0 0 160 64" fill="none" xmlns="http://www.w3.org/2000/svg">
<path d="M152.821 36.5642C150.466 40.6664 147.591 42.817 144.722 43.2261C146.463 39.6381 147.387 35.746 147.387 32.5672C147.387 25.8003 143.495 21.8032 136.418 21.8032C124.117 21.8032 118.379 34.6127 118.379 42.4023C118.379 43.016 118.379 43.6296 118.484 44.1438C116.433 46.4989 114.691 47.7318 113.359 47.7318C112.336 47.7318 111.308 47.0131 113.973 40.2517L116.842 33.3854C117.97 30.411 118.583 28.465 118.583 26.8231C118.583 23.8487 116.637 21.8032 112.944 21.8032C107.924 21.8032 103.413 25.3912 101.976 26.8231C101.871 23.8487 100.03 21.8032 96.3367 21.8032C91.5214 21.8032 87.1096 25.6953 86.9051 25.9053L88.1324 23.1356H78.9054L71.4253 41.2745C69.9879 42.5018 68.451 43.016 67.0191 43.3256C68.7606 39.7376 69.6839 35.8455 69.6839 32.6667C69.6839 25.8998 65.7918 21.8032 58.7154 21.8032C52.8718 21.8032 48.5706 25.8003 45.5963 28.465H42.622L47.6418 15.8601C49.3833 11.6584 52.3576 10.5306 52.3576 10.5306L50.7378 5.50525C48.073 5.50525 45.3033 6.52802 43.3572 8.27502C36.9 9.60738 28.9058 5.50525 21.2212 5.50525C11.9942 5.50525 7.89758 11.3489 7.89758 17.1869C7.89758 23.8487 13.227 27.5362 18.5565 27.5362C23.6814 27.5362 26.8603 24.3574 26.8603 24.3574L23.2723 18.7183C23.2723 18.7183 21.6303 20.4598 19.1701 20.4598C17.3236 20.4598 15.4827 19.332 15.4827 17.0764C15.4827 14.9258 17.1246 12.6702 21.4258 12.6702C26.0365 12.6702 32.4938 15.2298 38.5419 15.744L33.417 28.5535H28.2921L26.3461 33.7834H31.471L29.6245 38.1012C26.3461 45.9958 22.5536 51.0157 17.3236 51.0157C14.5539 51.0157 11.8891 48.8651 11.8891 45.5812C11.8891 43.5301 13.3265 40.1467 18.551 40.5613V32.8767C9.32945 32.1525 4 38.4052 4 45.5812C4.10504 51.9334 8.51124 58.4957 18.2469 58.4957C23.5763 58.4957 31.471 56.7542 37.1045 42.8114L40.792 33.7945H42.9426C41.5052 37.7916 40.792 40.0472 40.792 42.7119C40.792 49.3737 44.7891 53.5754 51.9651 53.5754C57.09 53.5754 61.1921 51.1152 64.0614 47.7318C65.8029 47.8368 67.4448 48.655 69.0813 48.1409L66.8256 54.8027H76.0527L83.8423 34.4081C86.3025 31.6384 88.9672 29.7974 90.2996 29.7974C91.1178 29.7974 91.8365 30.0019 91.8365 30.7206C91.8365 31.6439 90.8137 34.9223 89.7854 37.587C87.8394 42.5074 85.0696 49.5783 83.1236 54.8082H92.4501L100.24 34.4137C102.7 31.7489 105.365 29.8029 106.802 29.8029C107.62 29.8029 108.339 30.0075 108.339 30.8257C108.339 31.6439 107.416 33.8 106.288 36.5642L105.47 38.6153C101.268 48.9646 103.828 53.4759 109.876 53.4759C113.563 53.4759 116.947 51.6294 119.921 48.6606C121.663 51.6349 124.941 53.4759 129.557 53.4759C134.682 53.4759 138.784 51.1207 141.654 47.7373C147.597 48.2514 152.827 44.3539 156 38.9249C155.591 37.7916 154.054 36.7688 152.821 36.5642ZM59.6552 36.7688C56.7859 36.6638 54.7349 38.8199 54.7349 41.3795C54.7349 42.6069 55.249 43.7347 55.9622 44.6579C54.7348 46.2999 53.1924 47.5272 51.86 47.5272C50.4226 47.5272 49.6044 46.2999 49.6044 44.4534C49.6044 40.1467 54.1157 27.9509 58.6214 27.9509C59.8487 27.9509 60.877 28.7691 60.877 30.9252C60.888 32.3571 60.4789 34.4081 59.6552 36.7688ZM137.347 36.7688C134.478 36.6638 132.427 38.8199 132.427 41.3795C132.427 42.6069 132.941 43.7347 133.654 44.6579C132.427 46.2999 130.884 47.5272 129.552 47.5272C128.114 47.5272 127.296 46.2999 127.296 44.4534C127.296 40.1467 131.807 27.9509 136.313 27.9509C137.54 27.9509 138.569 28.7691 138.569 30.9252C138.574 32.3571 138.165 34.4081 137.347 36.7688Z" fill="#ECA16C"/>
</svg>
