<svg width="160" height="56" viewBox="0 0 160 56" fill="none" xmlns="http://www.w3.org/2000/svg">
<path fill-rule="evenodd" clip-rule="evenodd" d="M21.8257 8.91924C16.2799 7.80545 3.2406 13.4828 4.03471 19.8533C6.00748 20.4398 7.72542 21.157 7.44466 21.8919H61.71C62.0362 19.7189 60.3312 18.0529 61.4849 16.2395C61.849 15.6669 62.1261 15.0136 62.3188 14.3622V10.8364C62.2901 10.8105 62.2586 10.7882 62.2252 10.7715C48.7504 15.1322 55.2941 14.2102 40.9131 10.7734C38.4177 7.64144 30.1347 5.37308 26.2735 5.12012C24.7909 5.12012 21.8257 8.91924 21.8257 8.91924Z" fill="url(#paint0_linear_3_6891)"/>
<path fill-rule="evenodd" clip-rule="evenodd" d="M39.7094 20.0385V21.7064H7.47434C7.50399 22.1994 6.68949 22.7053 4.49805 23.189C6.44394 25.5982 12.188 27.9138 14.2275 28.1927C13.8624 28.2687 13.4575 28.404 13.0266 28.5884C19.5481 29.4093 27.2585 29.6873 31.0928 29.7679H43.7439C43.6077 29.7374 43.4678 29.7068 43.3232 29.6753C40.5091 29.1453 41.634 29.528 40.2654 28.7487C58.3826 24.3871 47.8859 25.032 62.2253 28.1927C62.6895 27.3587 60.4656 25.3202 61.4849 22.7266C61.8722 21.7397 61.7777 20.8613 61.5831 20.0385H39.7094Z" fill="url(#paint1_linear_3_6891)"/>
<path fill-rule="evenodd" clip-rule="evenodd" d="M27.1069 26.6176V28.2855C24.0778 28.2225 18.8415 28.1873 13.8971 28.2744C10.6308 29.1992 4.86072 34.1287 4.03418 37.0281V38.2086C4.06012 38.2698 4.0907 38.3291 4.12684 38.3856C5.85035 38.898 7.37926 39.5096 7.55161 40.1462H31.8326V38.4783H61.6039C61.2925 37.0976 60.6615 35.88 61.4843 34.5865C62.3303 32.7648 62.7269 31.5148 62.7816 30.691V30.325C62.5444 27.2616 55.8996 32.1384 52.2182 32.1773C48.0484 31.4351 48.8824 30.88 43.3227 29.6754C40.5085 29.1454 41.6335 29.5281 40.2648 28.7488C43.7091 27.9195 46.1192 27.2718 47.8631 26.7872V26.6176H27.1069Z" fill="url(#paint2_linear_3_6891)"/>
<path fill-rule="evenodd" clip-rule="evenodd" d="M24.8833 13.4597H24.976C27.1971 17.3932 25.7822 20.4131 24.6053 24.3011C24.2736 25.0878 25.4708 25.6966 25.8099 24.8571C26.7542 21.2452 28.2497 17.2746 26.4586 13.6451H26.6439C35.2179 13.7109 43.8947 15.2676 51.6625 19.0194C52.1786 19.1362 53.8391 20.4131 54.1644 19.3901C50.4227 14.9646 35.8628 12.4442 29.7017 12.6249C29.4339 12.6758 28.7927 12.5943 28.0598 12.5137C27.4853 12.4497 26.8533 12.3867 26.2983 12.3867C25.267 12.3867 24.5053 12.6073 24.8833 13.4597Z" fill="#974DFF"/>
<path fill-rule="evenodd" clip-rule="evenodd" d="M24.8839 13.4593H24.9765C26.3155 15.9927 26.6593 19.0895 25.3472 21.7062H26.6444C27.319 19.0774 27.5451 16.2605 26.3664 13.7373C35.0423 13.7633 43.8443 15.1838 51.663 19.1117C52.1773 19.2025 53.936 20.5971 54.1649 19.4823C50.2323 14.9734 36.0385 12.4447 29.7023 12.6245C29.3965 12.6828 28.7608 12.5976 28.0473 12.5114C27.4969 12.4456 26.8992 12.3789 26.372 12.3789C25.4028 12.3789 24.667 12.6022 24.8839 13.4593Z" fill="#F1A5FF"/>
<path fill-rule="evenodd" clip-rule="evenodd" d="M21.548 13.9229H21.6407C23.4401 16.372 23.3605 19.3325 22.1966 21.9845C21.8065 22.6294 22.7758 23.2743 23.1232 22.5405C23.7737 21.1681 24.2222 19.617 24.2352 18.0927C24.2481 16.3775 23.4652 14.6086 22.5673 13.1816C22.4496 12.9694 22.2791 12.8823 22.104 12.8823C21.6555 12.8823 21.1857 13.455 21.548 13.9229Z" fill="#974DFF"/>
<path fill-rule="evenodd" clip-rule="evenodd" d="M23.4939 21.7064C24.0314 19.464 24.4298 17.0799 23.2159 14.9422C23.0464 14.591 22.546 13.5772 22.5673 13.1816C22.1809 12.4662 21.1524 13.1779 21.548 13.8302H21.6407C23.2882 16.1829 23.4939 19.1147 22.2893 21.7064H23.4939Z" fill="#F1A5FF"/>
<path fill-rule="evenodd" clip-rule="evenodd" d="M21.5479 13.8303H21.6405C23.2871 16.183 23.4938 19.1157 22.2892 21.7065H23.4938C24.0312 19.4641 24.4296 17.0799 23.2158 14.9422C23.0462 14.5911 22.5449 13.5773 22.5671 13.1817C22.4522 12.9695 22.2817 12.8833 22.1085 12.8833C21.6961 12.8833 21.2699 13.3716 21.5479 13.8303Z" fill="#F1A5FF"/>
<path fill-rule="evenodd" clip-rule="evenodd" d="M31.7407 38.478V40.1459H7.55228C7.69313 40.6676 6.92033 41.2069 4.59082 41.7212C9.07842 46.0818 14.6641 47.4588 19.6011 46.3543C20.3729 49.8337 26.8731 51.825 31.1847 50.4314C31.244 49.5409 31.0855 48.6513 30.7214 47.8368C36.7472 48.8626 51.4525 44.2388 52.2189 43.8524C52.9129 43.7236 55.0478 44.4862 57.1707 45.2497C59.5827 46.117 61.9789 46.9834 62.2254 46.5396C62.6896 45.7056 60.4657 43.6671 61.485 41.0726C61.8575 40.1237 61.7843 39.274 61.6045 38.478H31.7407Z" fill="url(#paint3_linear_3_6891)"/>
<path fill-rule="evenodd" clip-rule="evenodd" d="M24.8833 31.992H24.976C27.2184 35.9486 25.7395 39.0064 24.6053 42.926C24.2736 43.7136 25.4708 44.3215 25.8099 43.482C26.8237 39.9127 28.2108 35.9532 26.4586 32.3617L26.6439 32.27C35.2151 32.3394 43.9021 33.7525 51.6625 37.5517C52.1786 37.6684 53.8391 38.9444 54.1644 37.9223C50.4227 33.4977 35.8628 30.9764 29.7017 31.158C29.4339 31.209 28.7937 31.1274 28.0616 31.0468C27.4862 30.9829 26.8533 30.9189 26.2983 30.9189C25.267 30.9189 24.5053 31.1404 24.8833 31.992Z" fill="#373FFF"/>
<path fill-rule="evenodd" clip-rule="evenodd" d="M24.8836 31.992H24.9763C26.3032 34.4985 26.6581 37.5572 25.3469 40.1462H26.6442C27.3234 37.5183 27.5449 34.7005 26.3662 32.1773C35.0328 32.2069 43.8097 33.7609 51.6628 37.5517C52.1771 37.6684 53.8413 38.9453 54.1647 37.9223C50.4239 33.4977 35.8631 30.9755 29.702 31.158C29.4342 31.209 28.7949 31.1274 28.0619 31.0468C27.4865 30.9829 26.8536 30.9189 26.2986 30.9189C25.2672 30.9189 24.5056 31.1404 24.8836 31.992Z" fill="#F1A5FF"/>
<path fill-rule="evenodd" clip-rule="evenodd" d="M21.5477 32.4551H21.6404C23.4399 34.9042 23.3602 37.8647 22.1963 40.5167C21.8062 41.1616 22.7755 41.8065 23.123 41.0727C23.7734 39.7003 24.2219 38.1501 24.2349 36.6249C24.271 34.8616 23.3907 33.1343 22.567 31.6212C22.1092 30.816 20.9185 31.8176 21.5477 32.4551Z" fill="#373FFF"/>
<path fill-rule="evenodd" clip-rule="evenodd" d="M23.4935 40.1461C23.7326 38.6292 24.3043 37.0883 23.9568 35.513C23.9105 34.5966 21.6134 29.162 21.3623 32.3625H21.6403C23.3036 34.7152 23.4954 37.6424 22.2889 40.2388L23.4935 40.1461Z" fill="#F1A5FF"/>
<path fill-rule="evenodd" clip-rule="evenodd" d="M21.3623 32.3617H21.6403C23.3036 34.7153 23.4954 37.6425 22.2889 40.2389L23.4935 40.1462C23.7326 38.6303 24.3043 37.0884 23.9568 35.5132C23.9207 34.8006 22.5271 31.3638 21.7885 31.3638C21.5764 31.3638 21.4188 31.6473 21.3623 32.3617Z" fill="#F1A5FF"/>
<path fill-rule="evenodd" clip-rule="evenodd" d="M14.0419 14.5713C15.4235 14.5713 16.5438 15.6916 16.5438 17.0732C16.5438 18.4547 15.4235 19.575 14.0419 19.575C12.6603 19.575 11.54 18.4547 11.54 17.0732C11.54 15.6916 12.6603 14.5713 14.0419 14.5713Z" fill="black"/>
<path fill-rule="evenodd" clip-rule="evenodd" d="M11.4473 16.8882C11.4982 15.4047 12.7417 14.2437 14.2253 14.2956C15.7088 14.3465 16.8698 15.591 16.8179 17.0736C16.7688 18.52 15.5818 19.6672 14.1345 19.6681C12.7566 19.7737 11.5538 18.7424 11.4482 17.3654C11.4473 17.3608 11.4473 17.3562 11.4473 17.3516C11.5918 18.3912 12.5342 19.1297 13.5785 19.0195C14.7553 19.0195 15.7097 18.066 15.7097 16.8882C15.7097 15.7114 14.7553 14.757 13.5785 14.757C12.4017 14.757 11.4473 15.7114 11.4473 16.8882Z" fill="white"/>
<path fill-rule="evenodd" clip-rule="evenodd" d="M12.5597 16.8882C12.9683 16.8882 13.3009 17.2199 13.3009 17.6295C13.3009 18.039 12.9683 18.3708 12.5597 18.3708C12.1501 18.3708 11.8184 18.039 11.8184 17.6295C11.8184 17.2199 12.1501 16.8882 12.5597 16.8882Z" fill="white"/>
<path fill-rule="evenodd" clip-rule="evenodd" d="M14.0419 33.1045C15.4235 33.1045 16.5438 34.2238 16.5438 35.6054C16.5438 36.987 15.4235 38.1073 14.0419 38.1073C12.6603 38.1073 11.54 36.987 11.54 35.6054C11.54 34.2238 12.6603 33.1045 14.0419 33.1045Z" fill="black"/>
<path fill-rule="evenodd" clip-rule="evenodd" d="M11.4473 35.3273C11.4982 33.8437 12.7417 32.6827 14.2253 32.7346C15.7088 32.7855 16.8698 34.03 16.8179 35.5126C16.7688 36.9599 15.5818 38.1062 14.1345 38.1071C12.7566 38.2127 11.5538 37.1823 11.4482 35.8045C11.4473 35.7998 11.4473 35.7952 11.4473 35.7906C11.5436 36.8608 12.4906 37.6503 13.5609 37.553C13.5674 37.5521 13.572 37.5511 13.5785 37.5511C14.7553 37.5502 15.7088 36.5949 15.7078 35.4181C15.7069 34.2413 14.7516 33.2878 13.5738 33.2887C12.4341 33.2906 11.4973 34.1884 11.4473 35.3273Z" fill="white"/>
<path fill-rule="evenodd" clip-rule="evenodd" d="M12.5597 35.4209C12.9683 35.4209 13.3009 35.7517 13.3009 36.1622C13.3009 36.5708 12.9683 36.9035 12.5597 36.9035C12.1501 36.9035 11.8184 36.5708 11.8184 36.1622C11.8184 35.7517 12.1501 35.4209 12.5597 35.4209Z" fill="white"/>
<path fill-rule="evenodd" clip-rule="evenodd" d="M81.4078 15.6837C85.5776 15.6837 88.9125 17.3516 90.3024 22.726L85.8556 23.9306C84.929 20.8727 83.539 19.6681 81.4078 19.6681C79.2766 19.6681 76.3115 20.6874 76.3115 26.8957C76.3115 33.105 79.2766 34.5866 81.5932 34.5866C83.9143 34.6478 85.8927 32.9122 86.1327 30.6022H82.2418V26.9884H90.674V38.0151H86.7822V34.9582H86.6895C85.6712 37.1932 83.3982 38.5868 80.9445 38.4784C74.3656 38.4784 71.4004 33.5683 71.4004 26.9884C71.4004 20.1314 75.1995 15.6837 81.4078 15.6837ZM131.723 21.8924C135.243 21.8924 137.653 24.2089 138.58 26.7108L134.596 28.008C133.947 25.9695 133.02 25.3209 131.63 25.3209C130.24 25.3209 128.48 26.9888 128.48 30.1393C128.48 33.2888 129.407 34.9577 131.537 34.9577C133.669 34.9577 133.947 34.309 134.688 32.1778L138.673 33.5677C137.64 36.5894 134.726 38.5576 131.537 38.3852C127.83 38.3852 123.754 36.2549 123.754 30.1393C123.754 23.8383 128.202 21.8924 131.723 21.8924ZM118.009 16.7953V22.2632H122.086V25.6917H118.009V32.5477C118.009 34.2156 118.473 34.7725 120.233 34.7725L121.808 34.5872V38.0157L118.658 38.2937C113.931 38.201 113.284 36.5322 113.284 33.5679V25.6917H110.596V22.2632H113.19V16.7953H118.009ZM99.4766 16.0545V38.0153H94.7509V16.0545H99.4766ZM108.094 22.2628V38.0153H103.368V22.2628H108.094ZM145.9 16.0545V24.672C147.174 22.9254 149.206 21.8922 151.367 21.8922C154.055 21.8922 156.001 23.1895 156.001 26.5253V38.0153H151.181V28.0079C151.181 26.6179 150.626 25.8766 149.328 25.8766C148.033 25.9702 146.815 26.5299 145.9 27.4519V38.0153H141.082V16.0545H145.9ZM108.187 16.2398V20.039H103.368V16.2398H108.187Z" fill="black"/>
<defs>
<linearGradient id="paint0_linear_3_6891" x1="32.3891" y1="5.12012" x2="32.3891" y2="21.7899" gradientUnits="userSpaceOnUse">
<stop stop-color="#E459FF"/>
<stop offset="1" stop-color="#914DFF"/>
</linearGradient>
<linearGradient id="paint1_linear_3_6891" x1="18.1521" y1="24.5768" x2="35.2254" y2="35.9785" gradientUnits="userSpaceOnUse">
<stop stop-color="#F0A5FF"/>
<stop offset="1" stop-color="#FF676B"/>
</linearGradient>
<linearGradient id="paint2_linear_3_6891" x1="33.4079" y1="26.3211" x2="33.4079" y2="40.5632" gradientUnits="userSpaceOnUse">
<stop stop-color="#6E3BFF"/>
<stop offset="1" stop-color="#3633FF"/>
</linearGradient>
<linearGradient id="paint3_linear_3_6891" x1="27.9992" y1="44.3903" x2="32.3948" y2="49.6545" gradientUnits="userSpaceOnUse">
<stop stop-color="#F0A5FF"/>
<stop offset="1" stop-color="#FF676B"/>
</linearGradient>
</defs>
</svg>
