<svg width="160" height="56" viewBox="0 0 160 56" fill="none" xmlns="http://www.w3.org/2000/svg">
<path d="M82.284 21.3095C89.2668 21.3095 94.2371 26.6228 94.2371 33.3703C94.2371 40.2265 89.2139 45.4189 82.284 45.4189C75.3512 45.4189 70.3309 40.2767 70.3309 33.3703C70.3309 26.5739 75.335 21.3095 82.284 21.3095ZM107.382 21.3095C114.365 21.3095 119.336 26.6228 119.336 33.3703C119.336 40.2265 114.31 45.4189 107.382 45.4189C100.45 45.4189 95.4292 40.2767 95.4292 33.3703C95.4292 26.5739 100.433 21.3095 107.382 21.3095ZM147.763 21.3327C151.973 21.3327 155.999 23.8794 155.999 29.9898V44.7589H150.03V31.2408C150.03 28.7865 148.826 26.9353 146.003 26.9353C143.365 26.9353 141.791 28.9726 141.791 31.4269V44.7604H135.685V31.2408C135.685 28.7865 134.436 26.9353 131.658 26.9353C128.974 26.9353 127.4 28.9264 127.4 31.4269V44.7604H121.247V21.9806H127.124V24.7595C128.373 22.5375 131.29 21.3327 133.788 21.3327C136.889 21.3327 139.387 22.676 140.544 25.1289C142.347 22.35 144.756 21.3327 147.763 21.3327ZM68.3766 11.2399V44.7589H62.2227V11.2399H68.3766ZM107.382 26.8075C103.766 26.8075 100.823 29.752 100.823 33.3688C100.823 36.9859 103.766 39.9305 107.382 39.9305C110.999 39.9305 113.941 36.9859 113.941 33.3688C113.94 29.752 110.997 26.8075 107.382 26.8075ZM82.284 26.8849C78.7083 26.8849 75.7997 29.7941 75.7997 33.3717C75.7997 36.9492 78.7083 39.8584 82.284 39.8584C85.8597 39.8584 88.7668 36.9492 88.7668 33.3717C88.7668 29.7941 85.8597 26.8849 82.284 26.8849Z" fill="#222222"/>
<path d="M49.8201 25.4522H36.4217L48.0254 18.7528L45.4771 14.3378L33.8734 21.0372L40.5713 9.43443L36.1563 6.88467L29.4584 18.4874V5.08997H24.3617V18.4887L17.6612 6.88467L13.2476 9.43315L19.9468 21.0359L8.34307 14.3378L5.79466 18.7515L17.3984 25.4509H4V30.5479H17.3971L5.79466 37.2473L8.34307 41.6623L19.9455 34.9641L13.2463 46.5669L17.6612 49.1153L24.3604 37.5114V50.9101H29.4572V37.5126L36.1551 49.1153L40.5699 46.5669L33.8708 34.9629L45.4745 41.6623L48.023 37.2473L36.4205 30.5491H49.8175V25.4522H49.8201ZM26.9101 34.932C23.067 34.932 19.9519 31.8171 19.9519 27.9738C19.9519 24.1305 23.067 21.0154 26.9101 21.0154C30.7532 21.0154 33.8681 24.1305 33.8681 27.9738C33.8681 31.8171 30.7532 34.932 26.9101 34.932Z" fill="#625DF5"/>
</svg>
