<svg width="160" height="76" viewBox="0 0 160 76" fill="none" xmlns="http://www.w3.org/2000/svg">
<path d="M60.9462 11.6547C61.9543 11.6547 63.129 11.8242 64.4245 12.0909L64.9536 6.17188C63.2233 5.89479 61.574 5.79457 60.0442 5.79457C51.6873 5.79457 47.982 8.99875 47.982 15.3437V17.3659H42.5479V22.9813H47.9835V35.8084C46.2532 35.9646 44.4227 36.1768 42.9075 36.4156V41.1482H61.8378V36.4156C60.3286 36.1768 58.4966 35.9646 56.7913 35.8084V22.9813H62.8931V17.3659H56.7913V15.2494C56.7913 12.7114 58.305 11.6547 60.9462 11.6547Z" fill="#BC242A"/>
<path fill-rule="evenodd" clip-rule="evenodd" d="M4 25.3822C4 35.5283 9.91315 41.7731 22.0372 41.7731C32.8951 41.7731 41.4745 35.1156 41.476 24.5112C41.476 13.1698 33.7588 8.24708 23.4226 8.24708C12.7695 8.24708 4 14.8913 4 25.3822ZM13.5963 24.8015C13.5963 18.0159 18.0091 15.0328 22.7313 15.0328C28.7285 15.0328 31.8811 18.4565 31.8826 24.9401C31.8826 32.3138 26.8346 34.9403 22.5899 34.9403C16.3672 34.9403 13.5963 30.9844 13.5963 24.8015Z" fill="#BC242A"/>
<path d="M86.7739 12.0909C85.4312 11.8242 84.2418 11.6547 83.2676 11.6547C80.5984 11.6547 79.1024 12.7114 79.1024 15.2494V17.3659H85.1423V22.9813H79.1024V35.8084C80.8121 35.9646 82.6309 36.1768 84.1504 36.4156V41.1482H65.254V36.4156C66.7942 36.1768 68.5451 35.9646 70.2976 35.8084V22.9813H64.8516V17.3659H70.2946V15.3437C70.2946 8.99875 74.0235 5.79457 82.3567 5.79457C83.8925 5.79457 85.5506 5.89479 87.2691 6.17188L86.7739 12.0909Z" fill="#BC242A"/>
<path d="M87.2187 36.4156V41.1452H105.729V36.4141C104.4 36.1754 102.69 35.9631 101.082 35.8069V17.3482C96.1945 17.1861 91.4059 17.3659 87.2187 17.7786V22.4625C88.8945 22.5185 90.8871 22.7234 92.2298 22.9047V35.8084C90.5216 35.9646 88.7427 36.1768 87.2187 36.4156Z" fill="#BC242A"/>
<path d="M91.2865 10.5847C91.2865 12.9738 93.7228 14.8913 96.6691 14.8913C99.6537 14.8913 102.077 12.9355 102.077 10.5847C102.077 8.16752 99.6537 6.28097 96.6691 6.28097C93.7228 6.28097 91.2865 8.16752 91.2865 10.5847Z" fill="#BC242A"/>
<path d="M119.799 41.6183C110.522 41.6183 105.455 37.7067 105.455 30.0087C105.455 22.8368 110.047 16.9001 121.057 16.9001C123.219 16.9001 125.606 17.1846 127.667 17.6709V25.8185H121.99C121.851 25.2135 121.742 24.6374 121.638 24.0919C121.576 23.7656 121.517 23.4503 121.454 23.1463C121.026 22.9901 120.438 22.9798 119.875 22.9798C116.811 22.9798 114.618 25.226 114.618 29.1332C114.618 33.1981 116.609 35.3175 121.769 35.3175C123.576 35.3175 125.606 34.9844 127.292 34.3683L127.892 40.6765C125.265 41.2867 122.873 41.6183 119.799 41.6183Z" fill="#BC242A"/>
<path fill-rule="evenodd" clip-rule="evenodd" d="M138.573 31.0477H155.746C155.914 29.8967 156.003 28.8738 156 27.873C156 21.6194 152.184 16.7881 143.487 16.7881C134.58 16.7881 129.64 22.206 129.64 29.509C129.64 37.8437 134.841 41.7008 144.33 41.7008C147.866 41.7008 151.745 41.1452 154.984 40.0516L154.184 34.5334C151.503 35.5283 148.554 36.0279 145.703 36.0279C140.944 36.0279 138.655 34.2342 138.573 31.0477ZM138.655 26.2061C138.869 23.7551 140.717 22.1176 143.258 22.1176C145.818 22.1176 147.441 23.5561 147.344 26.2061H138.655Z" fill="#BC242A"/>
<path fill-rule="evenodd" clip-rule="evenodd" d="M23.2234 69.9284C21.0809 69.9284 18.1022 69.8429 15.8986 69.7797L15.8941 69.7796C14.6026 69.7426 13.5781 69.7132 13.1452 69.7132H8.98149V65.4434C10.1974 65.1987 11.6801 65.0116 13.1452 64.9541V50.0872C11.6801 50.0489 10.1974 49.8912 8.98149 49.7128V45.3192H12.9108C14.0364 45.3192 15.4966 45.2986 17.1624 45.275H17.164C19.3762 45.2437 21.9509 45.2072 24.5853 45.2072C33.9296 45.2072 40.4559 48.1314 40.4559 56.9584C40.4559 65.2547 33.5921 69.9284 23.2234 69.9284ZM24.124 50.8787C23.0967 50.8787 22.5735 50.8787 21.922 50.9759V64.0137C22.2802 64.0801 22.9066 64.0933 23.9442 64.0933C27.8588 64.0933 30.976 62.0299 30.976 57.4609C30.9775 53.6761 29.9826 50.8787 24.124 50.8787Z" fill="#BC242A"/>
<path d="M40.2176 65.4434V69.7132H63.7715V62.8759H56.8252C56.7695 63.1507 56.7283 63.3389 56.6899 63.5145C56.6369 63.7571 56.5892 63.9755 56.5156 64.3645H53.1213V59.6201H55.9747L56.0015 59.7282C56.0861 60.0706 56.1195 60.2057 56.2872 60.5678H62.0927V53.9472H56.2872C56.103 54.3982 56.0808 54.4764 55.9747 54.945H53.1213V50.6369H56.495C56.5923 51.1425 56.6424 51.3812 56.806 51.9914H63.627V45.3192H40.2176V49.7128C41.4306 49.8912 42.9001 50.0489 44.3312 50.0872V64.9541C42.9001 65.0115 41.4306 65.1958 40.2176 65.4434Z" fill="#BC242A"/>
<path fill-rule="evenodd" clip-rule="evenodd" d="M80.4477 62.2289C80.2531 62.2289 79.7152 62.2289 79.0976 62.2053V64.954C80.5346 65.0115 81.9849 65.1958 83.2392 65.4434V69.7132H66.219V65.4434C67.4644 65.1958 68.9088 65.0115 70.309 64.954V50.0872C68.9088 50.0488 67.4644 49.8882 66.219 49.7128V45.3192H70.2529C70.8563 45.3192 71.9634 45.2938 73.2967 45.2632C75.3144 45.2168 77.8505 45.1586 79.9421 45.1586C88.5023 45.1586 93.1303 47.9825 93.1303 53.3135C93.1288 58.0254 89.027 62.2289 80.4477 62.2289ZM80.004 50.6369C79.8876 50.6369 79.5073 50.6369 79.0976 50.6915V57.3091C79.4838 57.3872 79.668 57.3872 79.8345 57.3872C82.2266 57.3872 84.3873 56.1698 84.3873 53.8691C84.3873 52.1447 83.2259 50.6369 80.004 50.6369Z" fill="#BC242A"/>
<path fill-rule="evenodd" clip-rule="evenodd" d="M94.352 57.8824C94.352 65.5996 99.2776 70.2054 109.278 70.2054C118.369 70.2054 125.504 65.0587 125.504 57.1013C125.504 48.267 118.884 44.8358 110.59 44.8358C101.612 44.8358 94.352 50.0341 94.352 57.8824ZM103.72 57.3872C103.72 52.7667 106.849 50.9907 109.889 50.9907C114.1 50.9907 116.134 53.1779 116.134 57.4609C116.134 62.6519 112.473 64.0771 109.716 64.0771C105.49 64.0771 103.72 61.5583 103.72 57.3872Z" fill="#BC242A"/>
<path d="M147.606 53.3945C147.577 53.2463 147.546 53.0966 147.514 52.9454C147.379 52.2972 147.239 51.6207 147.167 50.9037H144.694V64.957C146.112 65.0145 147.57 65.1987 148.786 65.4463V69.7161H131.796V65.4463C133.024 65.1987 134.501 65.0115 135.93 64.957V50.9037H133.426C133.373 51.6093 133.225 52.2755 133.082 52.9142C133.046 53.076 133.01 53.2361 132.977 53.3945H126.253V45.3192H154.342V53.3945H147.606Z" fill="#BC242A"/>
<path fill-rule="evenodd" clip-rule="evenodd" d="M151.436 68.7138H151.747V67.8384H151.94C152.189 67.8384 152.336 67.9577 152.383 68.2127C152.388 68.245 152.392 68.2764 152.396 68.3067C152.425 68.5114 152.446 68.6663 152.489 68.7138H152.823C152.802 68.6593 152.758 68.5149 152.688 68.2333C152.659 67.9312 152.55 67.7529 152.395 67.7529V67.7145C152.596 67.6571 152.758 67.52 152.758 67.2459C152.758 67.0498 152.69 66.9098 152.596 66.8346C152.467 66.73 152.267 66.6652 151.988 66.6652C151.789 66.6652 151.654 66.6827 151.517 66.7005C151.49 66.7039 151.463 66.7075 151.436 66.7108V68.7138ZM151.962 67.632H151.75V66.9349C151.775 66.9349 151.863 66.9319 151.962 66.9319C152.31 66.9319 152.442 67.0985 152.442 67.2812C152.442 67.52 152.239 67.632 151.962 67.632Z" fill="#BC242A"/>
<path fill-rule="evenodd" clip-rule="evenodd" d="M153.761 67.6777C153.761 66.6902 153.044 65.8752 152.062 65.8752H152.047C151.11 65.8752 150.321 66.6902 150.321 67.6777C150.321 68.7138 151.11 69.4714 152.047 69.4714C153.044 69.4714 153.761 68.7138 153.761 67.6777ZM150.674 67.6777C150.674 66.8346 151.312 66.167 152.047 66.167H152.061C152.852 66.167 153.453 66.8346 153.453 67.6954C153.453 68.5016 152.855 69.2031 152.061 69.2031C151.312 69.2031 150.674 68.5016 150.674 67.6777Z" fill="#BC242A"/>
</svg>
