<svg width="160" height="48" viewBox="0 0 160 48" fill="none" xmlns="http://www.w3.org/2000/svg">
<path d="M36.2059 34.0152L41.8268 37.2173L29.4574 44.4435L17.3894 37.5573L22.7046 34.1443L29.423 37.979L36.2059 34.0152ZM13.1371 12.8444L13.1586 19.3174L9.61656 21.3833L9.64238 26.8191L14.368 29.5133L35.9219 16.9374L35.9434 23.4104L14.3982 35.9777L4.06025 30.0814L4 18.1812L13.1371 12.8444ZM45.5367 12.7024L54.7427 17.9531L54.747 29.8189L44.4693 35.8228L31.9494 28.6827L37.5186 25.4203L44.4349 29.3584L49.1304 26.6168L49.1003 21.181L45.5582 19.1582L45.5367 12.7024ZM29.2853 3.55664L43.5182 11.6738L43.5655 25.9583L37.9533 22.7562L37.9275 14.9318L29.324 10.0254L20.7593 15.0265L20.7808 22.8466L18.8742 23.9613L15.1944 26.3198L15.1513 11.8201L29.2853 3.55664ZM22.7778 17.0235L26.8235 19.326L22.795 21.676L22.7778 17.0235Z" fill="#3F5DFF"/>
<path d="M104.531 18.4521C107.337 18.4521 108.886 20.5352 108.886 24.2323C108.886 27.8724 107.384 29.9896 104.659 30.0539L104.531 30.0554C103.16 30.1005 101.919 29.2473 101.471 27.9508H101.385V34.0537H98.6645V18.7061H101.385V20.5352H101.471C101.909 19.2336 103.159 18.3824 104.531 18.4521ZM139.844 18.4349C142.078 18.4349 143.545 19.498 144.204 21.2411L141.97 22.2396C141.758 21.2846 140.908 20.613 139.938 20.6186L139.844 20.6213C138.338 20.6213 137.572 21.6844 137.572 23.2381V25.2566C137.572 26.8103 138.338 27.8389 139.844 27.8389C141.135 27.8389 141.781 27.0943 142.185 26.1174L144.286 27.1245C143.563 29.0784 142.009 30.0554 139.861 30.0554C136.573 30.0554 134.722 27.8045 134.722 24.215C134.722 20.6643 136.573 18.4349 139.844 18.4349ZM80.3903 18.4349C83.5579 18.4349 85.5549 20.6643 85.5549 24.215C85.5549 27.7657 83.5794 30.0382 80.3903 30.0382C77.2011 30.0382 75.2471 27.8045 75.2471 24.215C75.2471 20.6643 77.2226 18.4349 80.3903 18.4349ZM91.7396 18.4349C94.9245 18.4349 96.9042 20.6643 96.9042 24.215C96.9042 27.7657 94.9245 30.0382 91.7396 30.0382C88.5547 30.0382 86.5749 27.8045 86.5749 24.215C86.5749 20.6643 88.5547 18.4349 91.7396 18.4349ZM128.215 18.4521C131.228 18.4521 132.807 19.8767 132.807 22.4031V27.6323H133.909V29.7843H132.403C131.232 29.7843 130.509 29.0182 130.341 27.8733H130.212C129.85 29.2979 128.641 30.0253 126.98 30.0253C124.712 30.0554 123.433 28.7599 123.433 26.7974C123.433 24.5206 125.155 23.3973 128.168 23.3973H130.083V22.5753C130.083 21.34 129.467 20.6213 128.021 20.6213C126.99 20.6028 126.027 21.136 125.495 22.0201L123.877 20.5783C124.686 19.2871 125.981 18.4521 128.215 18.4521ZM68.7569 14.966V27.3138H74.6059V29.8101H65.9551V14.966H68.7569ZM148.456 14.0708V23.5393H148.559L150.027 21.5423L152.515 18.6932H155.596L151.77 22.997L156.001 29.8101H152.769L149.919 24.8348L148.456 26.4315V29.8101H145.732V14.0708H148.456ZM117.821 14.966C120.266 14.966 121.751 16.4724 121.751 18.7706C121.751 21.0689 120.459 21.8737 119.095 21.9598V22.0846C120.386 22.0846 122.306 23.0229 122.306 25.5277C122.306 27.9121 120.666 29.78 118.48 29.78H110.935V14.966H117.821ZM130.083 25.0199H128.361C126.898 25.0199 126.209 25.5062 126.209 26.367V26.7285C126.209 27.6194 126.825 28.067 127.888 28.067C129.089 28.0885 130.083 27.529 130.083 26.4875V25.0199ZM80.3903 20.6299C78.9657 20.6299 78.0963 21.5466 78.0963 23.2122V25.2738C78.0963 26.9523 78.9872 27.8561 80.3903 27.8561C81.7933 27.8561 82.7058 26.9523 82.7058 25.2738V23.2122C82.7058 21.5552 81.8149 20.6299 80.3903 20.6299ZM91.7224 20.6299C90.3021 20.6299 89.4241 21.5466 89.4241 23.2122V25.2738C89.4241 26.9523 90.3193 27.8561 91.7224 27.8561C93.1254 27.8561 94.0379 26.9523 94.0379 25.2738V23.2122C94.0379 21.5552 93.1427 20.6299 91.7224 20.6299ZM103.644 20.6816C102.353 20.6816 101.372 21.3831 101.372 22.4677V25.9968C101.372 27.146 102.349 27.8045 103.644 27.8045C105.047 27.8045 106.024 26.7974 106.024 25.2092V23.2983C106.024 21.7231 105.047 20.6816 103.644 20.6816ZM117.64 23.436H113.728V27.4214H117.64C118.703 27.4214 119.34 26.849 119.34 25.8075V25.0758C119.34 24.0343 118.703 23.436 117.64 23.436ZM117.193 17.3461H113.728V21.1507H117.193C117.627 21.1968 118.059 21.0474 118.372 20.7429C118.684 20.4385 118.845 20.0106 118.811 19.5755V18.917C118.811 17.9185 118.213 17.3461 117.193 17.3461Z" fill="#001956"/>
</svg>
