<svg width="216" height="48" viewBox="0 0 216 48" fill="none" xmlns="http://www.w3.org/2000/svg">
<path d="M47.8014 4H37.5887C36.7943 4 36 4.34043 35.4326 4.9078L29.1348 11.2624L33.4468 15.6312L38.8936 10.1844H44.7943V37.8723H38.8369L33.5603 32.766L29.1348 37.0213L35.4894 43.1489C36.0568 43.7163 36.8511 44 37.6454 44H47.8582C49.5603 44 50.922 42.6383 50.922 40.9362V7.06383C50.8653 5.3617 49.5036 4 47.8014 4Z" fill="#512A44"/>
<path d="M29.1328 19.9434L24.8208 15.6313L18.296 22.2129C17.1045 23.4044 17.1045 25.3902 18.296 26.5817L24.6506 32.7094L29.0761 28.454L24.8208 24.3122L29.1328 19.9434Z" fill="#512A44"/>
<path d="M33.3901 24.3122L29.1348 28.454L33.5603 32.7094L39.9149 26.5817C41.1064 25.3902 41.1631 23.4611 39.9716 22.2696C39.9716 22.2696 39.9716 22.2696 39.9149 22.2129L33.4468 15.6313L29.1348 20.0001L33.3901 24.3122Z" fill="#AF272F"/>
<path d="M19.4317 37.8156H12.9636V10.1277H19.3749L24.8218 15.5745L29.1338 11.2057L22.8359 4.9078C22.2686 4.34043 21.4742 4 20.6799 4H9.89977C8.19764 4 6.83594 5.3617 6.83594 7.06383V40.8794C6.83594 42.5816 8.19764 43.9433 9.89977 43.9433H20.6232C21.4175 43.9433 22.2118 43.6596 22.7792 43.0922L29.0771 36.9645L24.6515 32.7092L19.4317 37.8156Z" fill="#AF272F"/>
<path d="M29.1345 28.397L24.709 32.709L29.1345 36.9643L33.56 32.709L29.1345 28.397Z" fill="#231F20"/>
<path d="M29.1343 19.9431L33.4464 15.631L29.1343 11.2622L24.8223 15.631L29.1343 19.9431Z" fill="#231F20"/>
<path d="M112.879 5.70185H117.304L120.936 11.5458L124.51 5.70185H128.936V20.7941H124.794V12.1132L120.936 18.0139H120.822L116.964 12.1132V20.7373H112.879V5.70185Z" fill="#AF272F"/>
<path d="M136.936 5.58838H140.964L147.375 20.7941H142.893L141.815 18.0706H135.971L134.893 20.7941H130.524L136.936 5.58838ZM140.567 14.8366L138.865 10.5245L137.163 14.8366H140.567Z" fill="#AF272F"/>
<path d="M148.907 5.70185H156.056C158.382 5.70185 159.971 6.32597 160.992 7.34724C161.9 8.25505 162.411 9.56001 162.354 10.865V10.9217C162.411 12.9643 161.163 14.8366 159.234 15.5742L162.865 20.8508H158.042L154.978 16.255H153.163V20.8508H148.964V5.70185H148.907ZM155.829 12.9643C157.248 12.9643 158.099 12.2834 158.099 11.2054V11.1487C158.099 9.95717 157.248 9.33306 155.829 9.33306H153.106V12.9643H155.829Z" fill="#AF272F"/>
<path d="M164.624 5.70185H176.709V9.3898H168.822V11.943H175.971V15.404H168.822V20.7941H164.624V5.70185Z" fill="#AF272F"/>
<path d="M182.893 5.58838H186.921L193.333 20.7941H188.851L187.773 18.0706H181.929L180.851 20.7941H176.425L182.893 5.58838ZM186.581 14.8366L184.879 10.5245L183.177 14.8366H186.581Z" fill="#AF272F"/>
<path d="M194.865 5.70185H198.78L205.021 13.7019V5.70185H209.163V20.7941H205.475L199.007 12.5104V20.7941H194.865V5.70185Z" fill="#AF272F"/>
<path d="M69.7586 7.12049V20.7943H68.6806V7.12049H63.5742V6.09922H74.9217V7.12049H69.7586Z" fill="#231F20"/>
<path d="M88.5388 20.7943V13.929H79.1203V20.7943H78.0423V6.04248H79.1203V12.851H88.5388V6.04248H89.6735V20.7375H88.5388V20.7943Z" fill="#231F20"/>
<path d="M94.1558 20.7943V6.09922H104.652V7.12049H95.2905V12.9077H103.744V13.929H95.2905V19.8297H104.766V20.851L94.1558 20.7943Z" fill="#231F20"/>
<path d="M67.0352 28.3971V34.4113H75.3756V35.4326H67.0352V42.1276H65.9572V27.3758H76.3402V28.3971H67.0352Z" fill="#231F20"/>
<path d="M85.9856 42.3545C81.5033 42.3545 78.6097 38.7801 78.6097 34.8084V34.7517C78.6097 30.7233 81.56 27.1489 86.0423 27.1489C90.5246 27.1489 93.4182 30.7233 93.4182 34.695C93.4182 34.695 93.4182 34.695 93.4182 34.7517C93.4182 38.7233 90.4678 42.3545 85.9856 42.3545ZM92.2834 34.7517C92.2834 31.1205 89.6168 28.1134 85.9856 28.1134C82.3544 28.1134 79.7444 31.0638 79.7444 34.695V34.7517C79.7444 38.3829 82.4111 41.39 86.0423 41.39C89.6735 41.39 92.2834 38.3829 92.2834 34.7517Z" fill="#231F20"/>
<path d="M103.007 42.2978C99.4891 42.2978 96.9927 40.085 96.9927 35.9432V27.3758H98.0707V35.8865C98.0707 39.3474 99.943 41.3333 103.064 41.3333C106.071 41.3333 107.943 39.5177 107.943 35.9999V27.3758H109.021V35.8297C109.021 40.085 106.581 42.2978 103.007 42.2978Z" fill="#231F20"/>
<path d="M124.794 42.0709L114.411 29.0212V42.0709H113.333V27.3758H114.354L124.51 40.1985V27.3758H125.588V42.0709H124.794Z" fill="#231F20"/>
<path d="M135.007 42.0709H130.127V27.3758H135.007C139.659 27.3758 142.837 30.5531 142.837 34.695V34.7517C142.837 38.8935 139.659 42.0709 135.007 42.0709ZM141.702 34.695C141.702 31.234 139.149 28.3404 135.007 28.3404H131.205V41.0496H135.007C139.149 41.0496 141.702 38.2694 141.702 34.695Z" fill="#231F20"/>
<path d="M157.815 42.0709L155.943 37.929H147.262L145.39 42.0709H144.255L151.12 27.2623H152.198L159.064 42.0709H157.815ZM151.631 28.4538L147.716 36.9645H155.489L151.631 28.4538Z" fill="#231F20"/>
<path d="M165.078 28.3971V42.1276H164V28.3971H158.893V27.3758H170.241V28.3971H165.078Z" fill="#231F20"/>
<path d="M173.418 42.0709V27.3758H174.496V42.0709H173.418Z" fill="#231F20"/>
<path d="M185.73 42.3545C181.305 42.3545 178.354 38.7801 178.354 34.8084V34.7517C178.354 30.7233 181.305 27.1489 185.787 27.1489C190.269 27.1489 193.163 30.7233 193.163 34.695C193.163 34.695 193.163 34.695 193.163 34.7517C193.163 38.7233 190.156 42.3545 185.73 42.3545ZM192.028 34.7517C192.028 31.1205 189.361 28.1134 185.73 28.1134C182.099 28.1134 179.489 31.0638 179.489 34.695V34.7517C179.489 38.3829 182.156 41.39 185.787 41.39C189.418 41.39 192.028 38.3829 192.028 34.7517Z" fill="#231F20"/>
<path d="M208.312 42.0709L197.929 29.0212V42.0709H196.851V27.3758H197.872L208.028 40.1985V27.3758H209.049V42.0709H208.312Z" fill="#231F20"/>
</svg>
