<svg width="264" height="48" viewBox="0 0 264 48" fill="none" xmlns="http://www.w3.org/2000/svg">
<path d="M46.6884 37.4372C49.1818 39.4154 63.1553 39.1431 73.0837 38.7557C75.7734 38.6512 73.2687 38.1645 73.4056 36.6632C73.5417 35.1627 78.1073 24.3242 78.6533 23.642C79.1994 22.9598 85.886 23.369 86.4321 23.369C86.9781 23.369 81.0738 34.9626 81.7334 36.6978C82.9534 39.905 86.071 39.383 88.1748 38.1984C89.5497 37.4259 94.893 23.369 95.4391 23.2328C95.9851 23.0967 99.5022 22.9937 99.6729 23.4036C99.8895 23.9226 92.3996 38.0525 93.8016 38.8174C94.4184 39.1544 111.459 39.1544 111.811 38.9265C112.72 38.3398 111.307 30.476 117.309 25.9917C122.88 21.8286 135.318 23.5608 135.769 23.6901C136.725 23.9632 134.893 26.4408 133.938 26.8499C132.983 27.2599 126.182 26.3257 123.988 27.5773C119.582 30.0894 118.306 38.2736 120.599 38.8588C122.292 39.2905 144.025 39.0859 144.207 38.8588C144.855 38.0487 148.54 25.1095 150.952 24.1994C153.607 23.1975 164.189 22.5619 165.053 24.4265C165.922 26.3009 164.092 32.1368 161.778 33.7863C160.55 34.6618 151.986 33.8863 151.543 37.016C151.327 38.5399 152.35 38.6767 154.568 38.949C155.976 39.1228 176.501 39.1198 176.877 38.8588C178.749 37.553 181.222 25.9037 183.893 24.2445C185.341 23.3464 199.883 22.0745 201.916 25.4163C204.137 29.0665 197.753 37.1845 199.643 38.7083C200.281 39.2221 217.242 39.1198 217.492 38.8588C218.276 38.0389 221.708 25.1771 224.062 24.2219C226.182 23.3622 236.72 22.5845 237.982 24.0858C239.388 25.7571 237.121 32.4016 234.946 34.1503C233.743 35.1168 225.153 34.1548 224.71 37.4259C224.509 38.9152 226.897 39.0513 228.876 39.0859C230.115 39.107 241.124 39.0746 258.353 39.0746C258.353 39.0746 258.125 41.8155 254.327 43.5093H199.261C196.251 43.5093 193.856 40.439 195.304 37.016C196.729 33.6479 198.739 29.0244 197.905 27.7472C197.131 26.5649 190.455 27.1907 189.944 27.736C188.409 29.3741 185.484 43.5394 182.591 43.5266L44.1266 43.5123L44.1605 43.5003C40.3396 43.5386 34.0343 41.9794 36.0433 36.0495C37.9086 30.5452 39.1827 27.3832 39.1827 27.3832C24.9897 27.8383 13.8443 27.8383 11.4449 26.9063C8.07305 25.5953 6.61162 20.7876 7.89705 21.5157C9.017 22.1497 11.4555 23.551 13.0824 23.7398C15.4366 24.0128 37.3001 21.8278 40.4734 21.6232C42.1981 21.5119 42.5599 19.4345 42.5599 19.4345C29.5041 19.9347 17.2606 20.0084 15.1982 19.0133C12.935 17.9219 11.217 15.6587 11.2065 14.1461C11.1967 12.9103 13.1884 16.3116 16.631 16.4612C22.397 16.7117 39.9845 14.5951 43.4865 14.3447C45.3083 14.2146 45.5053 12.2123 45.5053 12.2123C30.539 12.8043 20.0736 12.6027 18.6663 11.9401C16.3008 10.8254 14.6634 8.20939 14.5837 6.53811C14.5235 5.28127 16.0534 9.1586 20.0428 9.3692C24.6828 9.61516 51.0058 6.40197 52.3747 6.32149C56.2415 6.09434 55.0584 10.0063 54.058 12.2808C52.0761 16.7847 43.0563 34.5557 46.6884 37.4372Z" fill="#C1DA94"/>
<path d="M46.3941 37.8084C48.619 39.5736 58.0264 39.8174 73.1023 39.2292C74.2784 39.1835 74.6701 39.1012 74.7913 38.6181C74.8586 38.3497 74.7664 38.1683 74.5695 37.9339C74.5217 37.877 74.2894 37.6246 74.2291 37.5535C73.9662 37.2433 73.8518 36.9896 73.8776 36.7063C73.99 35.4675 78.4239 24.6871 79.0234 23.9381C79.1137 23.8254 80.5993 23.7053 82.5384 23.7235C83.2556 23.7303 84.0132 23.7505 84.847 23.7817C85.0994 23.7911 86.3311 23.8428 86.4322 23.8428C86.2012 23.8428 86.0427 23.6822 86.0028 23.507C85.9918 23.4587 85.9922 23.4381 85.9939 23.4271C85.9866 23.4757 85.9595 23.5746 85.9136 23.7116C85.8188 23.9942 85.654 24.4136 85.4106 24.9957C85.1459 25.6288 83.8914 28.5231 83.639 29.1155C83.5141 29.4088 83.3959 29.6883 83.2827 29.9584C81.6579 33.837 80.9575 35.9901 81.2906 36.8662C82.4711 39.9697 85.453 40.2749 88.4074 38.6113C89.0961 38.2244 90.1769 36.0835 92.1029 31.6959C92.212 31.4473 92.3244 31.1901 92.4416 30.9208C92.6262 30.4968 94.2678 26.6884 94.6581 25.8073C94.9899 25.0583 95.2441 24.507 95.4361 24.1239C95.5368 23.9229 95.6189 23.7715 95.6801 23.6731C95.7053 23.6326 95.7246 23.605 95.7343 23.5936C95.7016 23.6323 95.6607 23.666 95.5538 23.6926C95.7858 23.6348 96.7968 23.5795 97.6927 23.5873C98.1969 23.5917 98.6369 23.6144 98.9568 23.6549C99.1179 23.6753 99.2426 23.6996 99.3208 23.7245C99.3147 23.7226 99.285 23.7043 99.2356 23.5858C99.1979 23.4953 99.1981 23.4484 99.2056 23.4038C99.2034 23.4168 99.196 23.4456 99.1835 23.486C99.153 23.5846 99.0995 23.7282 99.024 23.9137C98.8812 24.2648 98.6648 24.7542 98.3548 25.4307C98.1297 25.9221 96.6703 29.0509 96.2214 30.0315C96.0802 30.3399 95.9453 30.6365 95.8154 30.9243C93.3796 36.3198 92.562 38.6808 93.5748 39.2334C94.2892 39.6237 111.523 39.6773 112.069 39.3242C112.451 39.0776 112.544 38.6656 112.669 37.4587C113.027 33.9782 113.188 33.0107 113.964 31.1175C114.743 29.2169 115.917 27.623 117.592 26.3713C119.939 24.6177 123.779 23.7914 128.468 23.705C130.159 23.6739 131.856 23.7431 133.437 23.8818C134.494 23.9746 135.503 24.1067 135.639 24.1457C135.594 24.1329 135.57 24.0748 135.555 24.1536C135.518 24.3475 135.383 24.6378 135.173 24.9608C134.744 25.62 134.11 26.2606 133.751 26.4144C133.549 26.5012 132.899 26.5072 130.894 26.4548C129.911 26.429 129.321 26.4185 128.678 26.4201C126.306 26.426 124.702 26.6243 123.754 27.1657C119.444 29.6229 117.314 38.5094 120.481 39.3179C121.306 39.528 126.234 39.6101 132.972 39.5797C140.588 39.5453 144.328 39.4659 144.577 39.1551C144.841 38.8249 147.16 32.2678 147.378 31.6914C147.968 30.1327 148.509 28.82 149.02 27.7355C149.874 25.9251 150.624 24.8295 151.119 24.6427C154.192 23.4831 164.018 23.3205 164.623 24.6258C165.428 26.3622 163.555 31.9377 161.503 33.4004C161.291 33.5513 160.586 33.6681 159.103 33.8033C159.046 33.8085 158.187 33.8851 157.924 33.9097C157.449 33.954 157.051 33.9952 156.669 34.0406C153.216 34.4512 151.32 35.2116 151.074 36.9495C150.942 37.8808 151.214 38.5091 151.927 38.8738C152.432 39.1319 152.949 39.2276 154.51 39.4194C156.23 39.6316 176.659 39.5871 177.147 39.2478C178.052 38.6174 178.279 38.063 180.593 31.6743C182.143 27.3949 183.165 25.2547 184.144 24.647C184.821 24.2265 188.962 23.7258 192.687 23.7143C197.35 23.7 200.732 24.381 201.511 25.6626C202.199 26.794 202.002 28.544 201.063 31.1354C200.88 31.6404 200.677 32.1602 200.401 32.8385C200.312 33.0581 199.997 33.8265 200.007 33.8018C199.852 34.1815 199.739 34.4622 199.634 34.7305C199.365 35.417 199.175 35.9567 199.04 36.434C198.683 37.7048 198.716 38.5693 199.346 39.0772C200.088 39.6745 217.343 39.6984 217.834 39.1869C218.086 38.9238 218.373 38.2077 218.973 36.4943C219.135 36.033 219.808 34.0855 219.757 34.2331C220.103 33.2344 220.378 32.454 220.655 31.695C221.244 30.0767 221.771 28.7488 222.27 27.6568C223.068 25.9094 223.77 24.852 224.24 24.661C226.708 23.66 236.692 23.2869 237.62 24.3907C238.762 25.749 236.748 32.0931 234.649 33.781C234.438 33.9501 233.697 34.0717 232.082 34.2078C231.957 34.2184 231.818 34.2299 231.546 34.2524C231.322 34.2711 231.155 34.2852 230.989 34.2997C230.556 34.3376 230.189 34.3732 229.836 34.4125C226.375 34.7984 224.485 35.5628 224.241 37.3623C224.109 38.3357 224.737 38.9533 225.85 39.2584C226.598 39.4634 227.476 39.5354 228.868 39.5597C229.501 39.5705 228.652 39.5709 241.703 39.5577C247.664 39.5517 252.759 39.5485 258.353 39.5485L257.881 39.0354C257.87 39.1694 257.811 39.437 257.666 39.7937C257.419 40.4057 257.01 41.0218 256.402 41.6018C255.812 42.1645 255.063 42.6625 254.134 43.0765L254.327 43.0355H199.262C196.412 43.0355 194.494 40.1473 195.741 37.2007C195.777 37.1144 196.038 36.4985 196.117 36.3132C196.265 35.9616 196.388 35.6692 196.506 35.3858C196.675 34.9785 196.828 34.6058 196.971 34.2491C198.431 30.6105 198.962 28.4995 198.301 27.488C197.452 26.1887 190.471 26.4818 189.598 27.4118C189.204 27.8329 188.792 28.775 188.205 30.4554C187.897 31.3388 186.724 34.9282 186.564 35.4034C184.936 40.2453 183.679 42.8406 182.685 43.0434C182.653 43.0498 182.623 43.0529 182.593 43.0528L44.1268 43.0385L44.1268 43.5123L44.2855 43.9588L44.3194 43.9468L46.9877 42.998L44.1559 43.0265C41.9726 43.0484 39.69 42.5627 38.1668 41.6111C36.3059 40.4485 35.647 38.6963 36.4922 36.2015C37.3067 33.7981 38.0686 31.6617 38.7566 29.8179C38.9972 29.1731 39.2113 28.611 39.3963 28.1349C39.5071 27.8499 39.5833 27.6573 39.6224 27.5603L39.894 26.8863L39.1677 26.9096C23.5581 27.4101 13.7408 27.2897 11.6166 26.4646C10.2453 25.9315 9.05766 24.6783 8.34995 23.2375C8.07437 22.6764 7.91613 22.1578 7.9088 21.855C7.9074 21.7975 7.90775 21.7963 7.84735 21.8471C7.74537 21.9329 7.66105 21.9265 7.66365 21.928C8.53446 22.421 8.88052 22.6122 9.45366 22.9052C9.92536 23.1464 10.3737 23.359 10.8015 23.5414C11.6566 23.9059 12.4011 24.1378 13.0279 24.2105C14.1257 24.3378 18.8405 24.0054 26.9084 23.298C27.4224 23.2529 27.9509 23.2063 28.498 23.1577C29.7055 23.0504 30.9333 22.9399 32.4828 22.7996C32.4825 22.7996 35.311 22.543 36.0257 22.4785C38.5485 22.2509 39.8759 22.1366 40.5041 22.0961C41.4143 22.0374 42.0889 21.539 42.5449 20.7738C42.8245 20.3045 42.9701 19.8419 43.0269 19.5158L43.1274 18.9386L42.5419 18.961C27.7359 19.5282 17.1637 19.4355 15.4042 18.5865C13.3662 17.6037 11.69 15.5104 11.6805 14.1428C11.6808 14.1825 11.6111 14.3305 11.3664 14.3492C11.2893 14.3551 11.3406 14.3808 11.4252 14.442C11.4381 14.4513 12.4503 15.2617 12.8826 15.561C14.0746 16.3859 15.2732 16.8765 16.6106 16.9346C18.9758 17.0374 23.3379 16.7665 29.4906 16.1996C30.5734 16.0998 31.7046 15.9915 32.9094 15.8728C33.5535 15.8093 42.5273 14.8884 43.5205 14.8173C44.4648 14.7499 45.1408 14.2618 45.563 13.515C45.8278 13.0467 45.9448 12.586 45.977 12.2588L46.0303 11.7174L45.4867 11.7389C31.3276 12.2989 20.2417 12.1581 18.8683 11.5114C16.8291 10.5504 15.1364 8.17772 15.0571 6.51554C15.0552 6.47551 15.0562 6.45902 15.0479 6.48519C14.9968 6.64595 14.8216 6.78646 14.602 6.75862C14.5163 6.74775 14.4908 6.73277 14.4771 6.72121C14.5064 6.74585 14.5514 6.78987 14.6153 6.85697C14.6342 6.87693 15.0048 7.27867 15.1499 7.42893C15.4207 7.70944 15.6849 7.95908 15.9716 8.19741C17.1348 9.16447 18.4525 9.75977 20.0179 9.84241C21.958 9.94525 27.525 9.48619 35.9382 8.60282C36.7905 8.51334 37.6677 8.41991 38.5719 8.32243C42.0761 7.94459 52.0944 6.81267 52.4027 6.79454C53.9023 6.70645 54.5106 7.24648 54.5684 8.38701C54.6176 9.35741 54.2525 10.6619 53.6244 12.09C53.6302 12.0769 50.7752 18.2366 49.6997 20.7214C49.1489 21.994 48.6454 23.2051 48.188 24.3646C45.328 31.6144 44.4393 36.2577 46.3941 37.8084L46.3941 37.8084ZM46.9831 37.066C45.5554 35.9334 46.4153 31.4408 49.0696 24.7124C49.5229 23.5631 50.0225 22.3614 50.5695 21.0979C51.6389 18.627 54.4922 12.4709 54.4919 12.4716C55.1749 10.9186 55.5735 9.49461 55.5149 8.33905C55.4304 6.67076 54.3701 5.72962 52.3471 5.84846C52.009 5.86834 41.9272 7.00744 38.4703 7.38018C37.567 7.47757 36.6907 7.5709 35.8393 7.6603C27.5025 8.53563 21.9331 8.99489 20.068 8.89603C18.7257 8.82516 17.5943 8.31407 16.5774 7.46865C16.3198 7.25448 16.0801 7.02794 15.8317 6.77065C15.6959 6.63005 15.3286 6.23181 15.3019 6.20374C15.0482 5.93714 14.9398 5.84615 14.7212 5.81844C14.1971 5.75198 14.0882 6.09463 14.1105 6.56078C14.207 8.58484 16.1175 11.2628 18.4645 12.3687C20.0556 13.1179 31.0643 13.2577 45.5242 12.6858L45.0339 12.1659C45.0295 12.2104 45.014 12.3042 44.9821 12.4299C44.9281 12.6423 44.8478 12.8544 44.738 13.0486C44.4628 13.5355 44.0564 13.8289 43.4529 13.872C42.4426 13.9443 33.4396 14.8682 32.8164 14.9296C31.6135 15.0482 30.4843 15.1563 29.4037 15.2559C23.2966 15.8186 18.958 16.088 16.6517 15.9878C15.5178 15.9385 14.4794 15.5134 13.4219 14.7817C13.0236 14.506 12.0216 13.7037 11.9802 13.6738C11.7084 13.4775 11.5273 13.3864 11.2942 13.4042C10.8794 13.4359 10.7297 13.7536 10.7328 14.1499C10.7452 15.9258 12.6577 18.3142 14.9925 19.4401C16.9753 20.3968 27.4255 20.4885 42.5782 19.908L42.0932 19.3532C42.0847 19.4022 42.0613 19.5021 42.0194 19.635C41.9489 19.8591 41.8533 20.083 41.7307 20.2886C41.4219 20.8069 41.0062 21.114 40.443 21.1504C39.803 21.1916 38.4744 21.306 35.9405 21.5347C35.2256 21.5992 32.3968 21.8558 32.3973 21.8557C30.8483 21.996 29.621 22.1064 28.4141 22.2137C27.8674 22.2623 27.3392 22.3089 26.8256 22.3539C18.926 23.0465 14.1324 23.3845 13.1371 23.2691C12.6173 23.2088 11.9519 23.0015 11.1731 22.6696C10.7672 22.4965 10.3383 22.2931 9.88503 22.0614C9.328 21.7766 8.98947 21.5896 8.13064 21.1033C7.46104 20.7241 6.94396 21.1591 6.96136 21.8779C6.97254 22.3395 7.16853 22.9818 7.49932 23.6553C8.30364 25.2928 9.65512 26.7188 11.2734 27.348C13.5847 28.2457 23.3378 28.3653 39.1981 27.8568L38.7434 27.2061C38.7028 27.3067 38.6251 27.503 38.513 27.7917C38.3265 28.2717 38.1108 28.8377 37.8687 29.4866C37.1774 31.3392 36.4123 33.4847 35.5946 35.8974C34.6062 38.8149 35.4364 41.0228 37.6647 42.4149C39.3625 43.4755 41.8165 43.9977 44.1654 43.9741L44.1606 43.5003L44.0019 43.0538L43.968 43.0659L41.3804 43.9859L44.1267 43.9862L182.591 44.0005C182.684 44.0009 182.779 43.9913 182.874 43.972C184.405 43.6596 185.656 41.0787 187.462 35.7053C187.625 35.2224 188.796 31.6404 189.1 30.7675C189.633 29.2388 190.026 28.3412 190.29 28.06C190.415 27.9268 192.172 27.6374 193.846 27.5672C195.781 27.4859 197.3 27.6886 197.508 28.0066C197.903 28.6111 197.383 30.6774 196.092 33.8962C195.95 34.2488 195.799 34.6178 195.631 35.0216C195.514 35.3032 195.391 35.5942 195.244 35.9443C195.165 36.1292 194.905 36.7449 194.868 36.8314C193.356 40.4033 195.734 43.9832 199.262 43.9832H254.327H254.428L254.52 43.9421C255.546 43.4844 256.387 42.9261 257.056 42.2877C258.277 41.1232 258.757 39.9387 258.826 39.1139L258.868 38.6008H258.353C252.758 38.6008 247.663 38.6039 241.702 38.61C228.705 38.6232 229.507 38.6227 228.884 38.6121C227.571 38.5892 226.748 38.5217 226.101 38.3444C225.391 38.1498 225.126 37.8895 225.18 37.4895C225.337 36.3327 226.924 35.6908 229.941 35.3544C230.285 35.3161 230.646 35.2811 231.072 35.2438C231.236 35.2295 231.402 35.2155 231.625 35.1969C231.896 35.1744 232.036 35.1628 232.162 35.1522C234.08 34.9905 234.805 34.8717 235.243 34.5197C237.706 32.5394 239.899 25.6287 238.345 23.7808C237.062 22.2543 226.698 22.6416 223.884 23.7828C223.094 24.1036 222.315 25.277 221.408 27.2632C220.897 28.3818 220.362 29.7309 219.764 31.3706C219.486 32.1351 219.209 32.9197 218.861 33.9227C218.912 33.7773 218.24 35.7218 218.079 36.1807C217.572 37.6275 217.253 38.4236 217.15 38.5313C217.256 38.4208 217.161 38.4395 217.206 38.4346C217.08 38.4483 216.894 38.462 216.654 38.4752C216.179 38.5012 215.504 38.5245 214.676 38.5439C213.025 38.5825 210.86 38.6032 208.714 38.6002C204.093 38.5938 200.084 38.4543 199.941 38.3393C199.464 37.9549 199.732 37.0047 201.279 33.1952C201.559 32.5067 201.766 31.9766 201.954 31.4582C202.985 28.6105 203.209 26.6305 202.321 25.17C201.287 23.4711 197.713 22.7512 192.684 22.7666C188.769 22.7786 184.531 23.291 183.644 23.8419C182.389 24.6211 181.358 26.7811 179.702 31.3515C177.604 37.144 177.242 38.0264 176.606 38.4701C176.404 38.6106 156.054 38.6549 154.626 38.4787C153.204 38.3042 152.719 38.2143 152.358 38.03C152.031 37.8627 151.934 37.6368 152.012 37.0825C152.168 35.9838 153.775 35.3391 156.781 34.9817C157.154 34.9373 157.545 34.897 158.012 34.8533C158.273 34.8289 159.13 34.7524 159.189 34.7471C160.931 34.5882 161.632 34.4722 162.053 34.1721C164.457 32.4583 166.491 26.4029 165.483 24.2273C164.571 22.2603 154.298 22.4303 150.784 23.756C149.961 24.067 149.132 25.2786 148.163 27.3311C147.639 28.4417 147.089 29.7759 146.491 31.356C146.127 32.3188 143.984 38.3788 143.837 38.5627C143.961 38.4076 143.741 38.4411 143.892 38.4287C143.732 38.4418 143.495 38.4551 143.19 38.4683C142.589 38.4942 141.73 38.5191 140.67 38.5416C138.558 38.5864 135.766 38.6194 132.968 38.632C126.442 38.6614 121.414 38.5776 120.716 38.3996C119.971 38.2094 119.691 36.3522 120.242 34.0511C120.874 31.4151 122.339 29.0634 124.223 27.9889C124.977 27.5587 126.477 27.3733 128.68 27.3678C129.312 27.3662 129.895 27.3766 130.869 27.4021C133.238 27.4642 133.719 27.4597 134.125 27.2854C134.69 27.0433 135.446 26.2794 135.968 25.4772C136.239 25.0598 136.423 24.6663 136.486 24.3294C136.583 23.8191 136.398 23.3771 135.9 23.2346C135.162 23.0231 131.496 22.7014 128.45 22.7575C123.579 22.8472 119.571 23.7098 117.025 25.6122C115.206 26.9717 113.929 28.7052 113.087 30.7579C112.615 31.9098 112.294 33.1221 112.073 34.4471C111.988 34.9595 111.921 35.4723 111.858 36.0478C111.823 36.3697 111.729 37.3322 111.726 37.3617C111.647 38.1314 111.557 38.5267 111.554 38.5284C111.314 38.6842 94.4503 38.6317 94.029 38.4016C94.0921 38.436 94.11 38.4682 94.1078 38.4543C94.0942 38.3683 94.0993 38.2266 94.1272 38.0392C94.1871 37.6373 94.3444 37.0694 94.5923 36.3536C95.0292 35.0919 95.7221 33.4342 96.6791 31.3143C96.8084 31.028 96.9426 30.7329 97.0831 30.426C97.5302 29.4494 98.9895 26.3208 99.2164 25.8255C100.094 23.9106 100.244 23.5412 100.11 23.2211C99.8263 22.539 96.384 22.509 95.3246 22.7731C94.9498 22.8665 94.7304 23.3042 93.7916 25.4235C93.399 26.3097 91.7556 30.1223 91.5727 30.5425C91.4558 30.811 91.3438 31.0673 91.2351 31.3149C89.5214 35.219 88.3379 37.5633 87.9428 37.7853C85.4254 39.2029 83.103 38.9651 82.1764 36.5294C81.9822 36.0184 82.7138 33.7691 84.1569 30.3246C84.2693 30.0563 84.3867 29.7786 84.5109 29.4869C84.7611 28.8997 86.0174 26.0013 86.285 25.3613C86.5367 24.7594 86.7082 24.3228 86.8121 24.0128C86.8742 23.8276 86.9138 23.6835 86.9311 23.5677C86.9455 23.472 86.9476 23.3877 86.9268 23.2965C86.877 23.0777 86.6968 22.8951 86.4322 22.8951C86.3544 22.8951 85.1677 22.8453 84.8825 22.8346C84.0405 22.8031 83.2745 22.7827 82.5473 22.7758C80.0067 22.7519 78.6726 22.8598 78.2835 23.3459C77.5693 24.2382 73.0632 35.1941 72.9338 36.6204C72.8804 37.2057 73.0948 37.6809 73.5062 38.1662C73.5836 38.2575 73.8139 38.5079 73.8439 38.5435C73.8489 38.5495 73.8372 38.5265 73.8721 38.3875C73.8981 38.2837 73.9577 38.2164 74.0143 38.1845C74.0136 38.1849 73.9848 38.1944 73.9313 38.2057C73.7671 38.2402 73.4857 38.2659 73.0654 38.2822C58.5138 38.85 48.9183 38.6013 46.9831 37.066L46.9831 37.066Z" fill="#CBCBCB"/>
<path d="M155.309 24.8733C154.486 24.8733 152.133 28.7215 152.759 29.3485C153.263 29.8528 154.448 29.712 156.06 29.3097C157.031 29.0664 158.916 25.8051 158.305 25.0922C158.011 24.7497 157.488 24.6979 156.597 24.7534C156.403 24.7655 156.202 24.7832 155.967 24.8076C155.865 24.8181 155.566 24.8507 155.529 24.8546C155.407 24.8673 155.335 24.8733 155.309 24.8733ZM155.309 25.821C155.38 25.821 155.471 25.8136 155.628 25.7971C155.667 25.793 155.966 25.7605 156.064 25.7503C156.288 25.7271 156.477 25.7105 156.656 25.6993C157.185 25.6663 157.582 25.7056 157.585 25.7092C157.519 25.6312 157.514 25.5963 157.513 25.597C157.504 25.671 157.474 25.783 157.424 25.9209C157.319 26.2131 157.136 26.5894 156.915 26.9725C156.481 27.7242 155.964 28.3569 155.831 28.3903C154.751 28.6596 153.553 28.8021 153.429 28.6788C153.552 28.8015 153.553 28.8542 153.547 28.8815C153.567 28.7968 153.615 28.6678 153.686 28.5078C153.832 28.1818 154.064 27.7544 154.333 27.3151C154.598 26.8807 154.879 26.4684 155.113 26.1702C155.228 26.0224 155.329 25.908 155.405 25.8358C155.419 25.8218 155.421 25.821 155.309 25.821ZM228.488 24.8733C227.684 24.8733 225.49 28.4167 225.84 29.206C226.094 29.7789 226.752 29.8044 227.883 29.6095C228.089 29.574 228.306 29.5304 228.534 29.4793C228.76 29.4286 228.857 29.4052 229.239 29.3097C230.21 29.0664 232.095 25.8051 231.484 25.0922C231.19 24.7497 230.667 24.6979 229.777 24.7534C229.582 24.7655 229.381 24.7832 229.146 24.8076C229.044 24.8181 228.745 24.8508 228.709 24.8546C228.587 24.8673 228.514 24.8733 228.488 24.8733ZM228.488 25.821C228.56 25.821 228.65 25.8136 228.807 25.7971C228.846 25.793 229.145 25.7605 229.243 25.7503C229.467 25.7271 229.656 25.7105 229.836 25.6993C230.364 25.6663 230.761 25.7056 230.764 25.7092C230.698 25.6312 230.692 25.5963 230.692 25.597C230.683 25.671 230.653 25.783 230.603 25.9209C230.498 26.2131 230.315 26.5894 230.094 26.9725C229.66 27.7242 229.143 28.3569 229.01 28.3903C228.635 28.4836 228.543 28.5061 228.327 28.5544C228.113 28.6023 227.912 28.643 227.722 28.6756C227.36 28.738 227.059 28.7676 226.842 28.7592C226.706 28.754 226.671 28.7407 226.706 28.8217C226.734 28.8833 226.734 28.8718 226.746 28.8276C226.771 28.7259 226.823 28.5864 226.897 28.4198C227.045 28.0867 227.274 27.6667 227.539 27.2398C227.797 26.8232 228.07 26.43 228.299 26.1463C228.41 26.0077 228.507 25.9006 228.581 25.8336C228.595 25.8203 228.594 25.821 228.488 25.821ZM44.5646 35.9987C46.7892 37.7643 56.1856 38.0078 71.2736 37.4203C72.45 37.3746 72.8417 37.2923 72.9627 36.8089C73.0298 36.5405 72.9376 36.3592 72.7406 36.1248C72.6928 36.068 72.4604 35.8155 72.4001 35.7443C72.1371 35.4341 72.0225 35.1804 72.0482 34.8971C72.1606 33.6581 76.5949 22.8786 77.1947 22.1292C77.2849 22.0165 78.7708 21.8963 80.7098 21.9146C81.4269 21.9213 82.1845 21.9415 83.0183 21.9727C83.2706 21.9822 84.5024 22.0339 84.6035 22.0339C84.3726 22.0339 84.214 21.8733 84.1741 21.698C84.1631 21.6497 84.1636 21.6292 84.1652 21.6181C84.1579 21.6667 84.1308 21.7656 84.0849 21.9026C83.9902 22.1852 83.8254 22.6045 83.582 23.1866C83.3173 23.8195 82.0629 26.7132 81.8103 27.3059C81.6853 27.5993 81.5671 27.8788 81.4539 28.149C79.8288 32.0278 79.1285 34.1808 79.462 35.0568C80.6424 38.1599 83.6228 38.4652 86.5786 36.8025C87.2674 36.4151 88.3483 34.2739 90.2742 29.8866C90.3833 29.638 90.4957 29.3808 90.613 29.1115C90.7982 28.6859 92.4392 24.8788 92.8294 23.998C93.1613 23.2489 93.4155 22.6975 93.6075 22.3144C93.7082 22.1134 93.7903 21.9619 93.8515 21.8635C93.8767 21.823 93.896 21.7954 93.9058 21.7839C93.8732 21.8224 93.8324 21.8561 93.7258 21.8828C93.9566 21.8252 94.9672 21.77 95.8634 21.7779C96.3675 21.7823 96.8075 21.8051 97.1274 21.8456C97.2886 21.866 97.4133 21.8902 97.4916 21.9151C97.4854 21.9132 97.4558 21.8949 97.4063 21.7764C97.3685 21.6856 97.3687 21.6387 97.3762 21.5942C97.374 21.6073 97.3666 21.6361 97.3541 21.6765C97.3235 21.7751 97.2701 21.9187 97.1946 22.1043C97.0518 22.4555 96.8353 22.9449 96.5254 23.6215C96.2997 24.1142 94.8405 27.2427 94.392 28.2225C94.2508 28.5308 94.116 28.8272 93.9861 29.115C91.5502 34.511 90.7325 36.8718 91.7454 37.4244C92.4607 37.8139 109.695 37.8676 110.239 37.5154C110.621 37.2684 110.715 36.8562 110.839 35.6494C111.197 32.1695 111.358 31.2021 112.134 29.3092C112.913 27.4083 114.087 25.8141 115.763 24.5624C118.11 22.8088 121.95 21.9825 126.639 21.896C128.33 21.8648 130.026 21.934 131.607 22.0726C132.664 22.1652 133.673 22.2972 133.81 22.3362C133.765 22.3232 133.741 22.2652 133.726 22.3441C133.689 22.538 133.554 22.8283 133.344 23.1513C132.916 23.8106 132.282 24.4514 131.922 24.6056C131.721 24.692 131.071 24.698 129.066 24.6455C128.083 24.6197 127.492 24.6092 126.849 24.6108C124.477 24.6167 122.873 24.8149 121.924 25.3559C117.615 27.8138 115.485 36.7006 118.652 37.5083C119.476 37.7186 124.405 37.801 131.143 37.7706C138.761 37.7362 142.5 37.6567 142.749 37.3448C143.012 37.0152 145.331 30.4571 145.549 29.8822C146.138 28.3243 146.679 27.0124 147.191 25.9282C148.045 24.1167 148.795 23.0205 149.29 22.8338C152.363 21.6734 162.189 21.5109 162.794 22.8168C163.599 24.5527 161.726 30.1281 159.674 31.5915C159.462 31.7424 158.756 31.8591 157.273 31.9942C157.217 31.9993 156.358 32.076 156.094 32.1006C155.62 32.1449 155.222 32.186 154.84 32.2314C151.387 32.6418 149.491 33.4023 149.245 35.1407C149.113 36.0717 149.385 36.7 150.098 37.0646C150.603 37.3225 151.117 37.4179 152.681 37.6104C154.406 37.8223 174.832 37.7778 175.319 37.4378C176.223 36.8081 176.449 36.2551 178.764 29.8651C180.314 25.5858 181.336 23.4455 182.315 22.8382C182.993 22.4176 187.133 21.9168 190.858 21.9053C195.521 21.8909 198.903 22.5717 199.682 23.8529C200.371 24.9844 200.173 26.7345 199.234 29.3257C199.051 29.8307 198.848 30.3505 198.572 31.0289C198.483 31.2485 198.169 32.0163 198.179 31.9922C198.023 32.3719 197.91 32.6527 197.805 32.921C197.536 33.6075 197.346 34.1473 197.211 34.6246C196.854 35.8955 196.888 36.7601 197.517 37.2682C198.259 37.8659 215.515 37.8894 216.005 37.3767C216.256 37.1144 216.543 36.3983 217.144 34.685C217.306 34.2233 217.981 32.2701 217.928 32.4237C218.274 31.4249 218.549 30.6447 218.826 29.8857C219.415 28.2695 219.941 26.943 220.439 25.8518C221.238 24.1021 221.94 23.0432 222.411 22.8521C224.879 21.8507 234.862 21.4776 235.79 22.5811C236.933 23.9401 234.919 30.2844 232.82 31.972C232.609 32.1412 231.868 32.2627 230.252 32.3988C230.127 32.4093 229.989 32.4208 229.717 32.4433C229.492 32.462 229.325 32.4761 229.16 32.4906C228.727 32.5285 228.359 32.564 228.007 32.6033C224.546 32.9889 222.655 33.7531 222.412 35.5527C222.28 36.5264 222.908 37.1442 224.021 37.4494C224.769 37.6545 225.647 37.7265 227.038 37.7508C227.668 37.7615 226.668 37.7621 239.798 37.7483C245.772 37.7421 250.897 37.7388 256.524 37.7388L256.052 37.2258C256.041 37.3599 255.982 37.6276 255.837 37.9844C255.589 38.5966 255.181 39.213 254.572 39.7933C253.983 40.3558 253.233 40.8536 252.305 41.2677L252.499 41.2265H197.433C194.584 41.2265 192.665 38.3384 193.911 35.3917C193.944 35.314 194.207 34.6931 194.287 34.5055C194.435 34.1548 194.558 33.8625 194.676 33.5793C194.846 33.1712 194.999 32.7977 195.142 32.4402C196.602 28.8023 197.134 26.6905 196.472 25.6789C195.622 24.379 188.642 24.6721 187.769 25.6029C187.374 26.0238 186.962 26.9658 186.376 28.6463C186.068 29.5299 184.894 33.1201 184.735 33.5945C183.106 38.4405 181.847 41.0367 180.854 41.2349C180.823 41.241 180.793 41.244 180.764 41.2438L42.2974 41.2288L42.2973 41.7027L42.4443 42.1532L42.4789 42.1419L45.4064 41.1872L42.3273 41.2175C40.1435 41.239 37.8612 40.7533 36.3382 39.8018C34.4772 38.6392 33.8183 36.887 34.6635 34.3918C35.478 31.9888 36.2398 29.8525 36.9276 28.0089C37.1681 27.364 37.3822 26.802 37.5671 26.3259C37.6777 26.0409 37.7539 25.8483 37.793 25.7513L38.0644 25.0774L37.3383 25.1007C21.7271 25.6012 11.912 25.4806 9.78729 24.655C8.41594 24.1221 7.22846 22.8691 6.52084 21.4281C6.2453 20.867 6.08706 20.3483 6.0797 20.0454C6.0783 19.9878 6.07867 19.9865 6.01832 20.0373C5.91625 20.1233 5.83169 20.1169 5.83413 20.1183C6.69968 20.6086 7.05032 20.8024 7.62351 21.0955C8.0954 21.3367 8.54393 21.5496 8.97199 21.7321C9.82741 22.0968 10.5722 22.3288 11.1992 22.4016C12.2971 22.5285 17.0118 22.1961 25.0793 21.4888C25.5927 21.4438 26.1206 21.3972 26.6671 21.3487C27.8747 21.2414 29.1028 21.1309 30.6525 20.9906C30.6549 20.9904 33.4813 20.7341 34.1958 20.6696C36.7191 20.442 38.0466 20.3277 38.6746 20.2872C39.5852 20.2285 40.26 19.7299 40.7161 18.9644C40.9958 18.495 41.1414 18.0323 41.1982 17.7061L41.2987 17.1288L40.7132 17.1513C25.9111 17.7192 15.3345 17.6266 13.5748 16.7776C11.5371 15.7943 9.86127 13.701 9.85107 12.3329C9.85136 12.3731 9.78153 12.521 9.53702 12.5396C9.46005 12.5454 9.51135 12.5712 9.59606 12.6324C9.6091 12.6418 10.621 13.4524 11.0532 13.7516C12.2452 14.5768 13.4437 15.0676 14.7812 15.1257C17.1464 15.2282 21.5086 14.9572 27.6617 14.3903C28.7438 14.2907 29.8742 14.1824 31.0782 14.0638C31.7192 14.0006 40.6981 13.0795 41.6918 13.0084C42.6362 12.941 43.3122 12.4529 43.7344 11.7061C43.9991 11.2378 44.1162 10.7771 44.1484 10.4498L44.2016 9.90846L43.6581 9.92994C29.4928 10.4895 18.4123 10.3487 17.0399 9.70177C15 8.74121 13.307 6.36833 13.2285 4.70609C13.2265 4.66581 13.2276 4.64931 13.2193 4.67546C13.1682 4.83628 12.9928 4.97685 12.7732 4.94893C12.6875 4.93804 12.662 4.92306 12.6483 4.91149C12.6776 4.93615 12.7226 4.98019 12.7864 5.04732C12.8052 5.06699 13.1759 5.46906 13.321 5.61944C13.5919 5.90001 13.856 6.14972 14.1427 6.38811C15.3056 7.35515 16.6232 7.95056 18.1884 8.03348C20.1286 8.13633 25.6955 7.67727 34.1088 6.7939C34.9611 6.70441 35.8383 6.61099 36.7424 6.51351C40.2467 6.13567 50.2649 5.00374 50.5732 4.98562C52.0729 4.89723 52.6814 5.43724 52.7393 6.57774C52.7886 7.54834 52.4231 8.85374 51.7951 10.2802C51.7993 10.2705 48.9454 16.4282 47.8703 18.9123C47.3196 20.1846 46.8162 21.3953 46.3589 22.5546C43.4986 29.8051 42.6098 34.4483 44.5647 35.9988L44.5646 35.9987ZM45.1536 35.2563C43.726 34.124 44.586 29.6313 47.2405 22.9024C47.6938 21.7534 48.1933 20.552 48.74 19.2887C49.8091 16.8187 52.6614 10.6645 52.6625 10.6619C53.3455 9.11065 53.7445 7.68557 53.6858 6.52971C53.6011 4.8614 52.5406 3.92031 50.5175 4.03955C50.1796 4.05942 40.0978 5.19852 36.6408 5.57126C35.7376 5.66865 34.8612 5.76198 34.0099 5.85137C25.6731 6.72671 20.1037 7.18597 18.2386 7.0871C16.8965 7.016 15.7653 6.50481 14.7486 5.65942C14.491 5.44519 14.2513 5.21859 14.0029 4.96126C13.8671 4.82055 13.4996 4.42201 13.4732 4.39423C13.2196 4.12753 13.1112 4.03657 12.8927 4.00879C12.3684 3.94214 12.2595 4.28482 12.2818 4.75111C12.3774 6.77533 14.2884 9.45364 16.6359 10.5591C18.2259 11.3086 29.2287 11.4484 43.6955 10.8769L43.2052 10.357C43.2008 10.4015 43.1853 10.4953 43.1534 10.621C43.0994 10.8334 43.0192 11.0455 42.9094 11.2397C42.6341 11.7266 42.2277 12.02 41.6243 12.0631C40.6135 12.1354 31.6054 13.0595 30.9852 13.1207C29.7832 13.2391 28.6547 13.3471 27.5748 13.4466C21.4673 14.0093 17.1286 14.2788 14.8222 14.1789C13.6884 14.1296 12.65 13.7044 11.5927 12.9724C11.1945 12.6968 10.1927 11.8943 10.1511 11.8643C9.87944 11.6679 9.69827 11.5768 9.46513 11.5946C9.05048 11.6261 8.90049 11.9437 8.90339 12.3399C8.91664 14.1164 10.8285 16.5046 13.163 17.6311C15.1462 18.588 25.601 18.6795 40.7495 18.0983L40.2645 17.5435C40.256 17.5926 40.2326 17.6925 40.1908 17.8254C40.1202 18.0497 40.0245 18.2736 39.902 18.4793C39.593 18.9979 39.1771 19.3051 38.6136 19.3415C37.9737 19.3827 36.645 19.4971 34.1107 19.7257C33.3959 19.7902 30.5693 20.0466 30.567 20.0468C29.0179 20.1871 27.7903 20.2975 26.5832 20.4047C26.0371 20.4532 25.5095 20.4998 24.9965 20.5448C17.097 21.2372 12.3036 21.5753 11.3083 21.4602C10.7885 21.3998 10.1227 21.1925 9.34369 20.8603C8.93756 20.6871 8.50847 20.4835 8.05496 20.2517C7.49791 19.9668 7.15488 19.7772 6.30131 19.2937C5.63172 18.9142 5.11479 19.3496 5.13227 20.0684C5.14349 20.53 5.33945 21.1724 5.67017 21.8458C6.47442 23.4836 7.82575 24.9095 9.44403 25.5384C11.7558 26.4367 21.5066 26.5565 37.3686 26.0479L36.9139 25.3973C36.8734 25.4979 36.7957 25.6941 36.6836 25.9828C36.4972 26.4628 36.2817 27.0288 36.0396 27.6776C35.3486 29.5301 34.5836 31.6753 33.766 34.0877C32.7775 37.0056 33.6077 39.2135 35.8361 40.6056C37.5337 41.6661 39.9873 42.1883 42.3366 42.1652L42.3319 41.6914L42.185 41.2409L42.1504 41.2521L39.3167 42.1762L42.2973 42.1765L180.762 42.1916C180.853 42.1919 180.946 42.1827 181.039 42.1643C182.573 41.8583 183.825 39.2769 185.633 33.8965C185.795 33.4143 186.966 29.8315 187.271 28.9585C187.804 27.4298 188.197 26.5322 188.46 26.2511C188.586 26.1175 190.343 25.828 192.017 25.7577C193.952 25.6764 195.471 25.8792 195.679 26.1976C196.074 26.8024 195.554 28.8691 194.263 32.0872C194.121 32.4406 193.969 32.8104 193.801 33.215C193.684 33.4964 193.561 33.7872 193.414 34.1365C193.335 34.3237 193.072 34.9443 193.039 35.0224C191.528 38.5945 193.906 42.1743 197.433 42.1743H252.499H252.599L252.692 42.1331C253.717 41.6755 254.557 41.1173 255.226 40.4792C256.448 39.3142 256.928 38.1292 256.996 37.3041L257.039 36.7911H256.524C250.896 36.7911 245.771 36.7944 239.797 36.8006C226.721 36.8143 227.675 36.8137 227.055 36.8032C225.742 36.7803 224.919 36.7128 224.272 36.5354C223.561 36.3406 223.297 36.0802 223.351 35.6798C223.507 34.5231 225.095 33.8813 228.112 33.5452C228.456 33.5069 228.816 33.472 229.242 33.4347C229.406 33.4204 229.572 33.4063 229.795 33.3878C230.067 33.3653 230.206 33.3537 230.332 33.3431C232.251 33.1815 232.975 33.0628 233.413 32.7107C235.877 30.7308 238.07 23.82 236.516 21.9712C235.232 20.4451 224.868 20.8323 222.055 21.9739C221.264 22.2949 220.484 23.4696 219.577 25.4583C219.067 26.576 218.532 27.9236 217.935 29.5612C217.657 30.3257 217.38 31.1102 217.032 32.1134C217.085 31.9619 216.411 33.9121 216.25 34.3713C215.743 35.8178 215.423 36.6139 215.32 36.7215C215.426 36.6113 215.332 36.63 215.377 36.6251C215.25 36.6389 215.064 36.6526 214.824 36.6657C214.349 36.6918 213.675 36.7152 212.847 36.7347C211.196 36.7734 209.031 36.7941 206.885 36.7912C202.265 36.7849 198.255 36.6454 198.112 36.5304C197.635 36.1458 197.903 35.1953 199.45 31.3855C199.73 30.6969 199.937 30.1669 200.125 29.6484C201.156 26.801 201.38 24.8211 200.492 23.3604C199.459 21.6617 195.884 20.942 190.855 20.9576C186.94 20.9697 182.703 21.4821 181.815 22.0329C180.56 22.8118 179.529 24.972 177.873 29.5423C175.775 35.3356 175.413 36.217 174.777 36.6603C174.575 36.8013 154.228 36.8456 152.796 36.6698C151.373 36.4946 150.89 36.4049 150.529 36.2207C150.202 36.0535 150.105 35.8279 150.183 35.2738C150.339 34.1744 151.946 33.5297 154.952 33.1725C155.325 33.1281 155.716 33.0878 156.182 33.0442C156.444 33.0198 157.301 32.9433 157.359 32.938C159.102 32.7793 159.803 32.6633 160.224 32.3632C162.628 30.6488 164.663 24.5933 163.654 22.4183C162.743 20.4506 152.469 20.6206 148.955 21.9471C148.131 22.2579 147.302 23.4701 146.333 25.524C145.81 26.6341 145.26 27.9676 144.662 29.5468C144.299 30.5084 142.156 36.5692 142.009 36.753C142.132 36.5981 141.912 36.6316 142.063 36.6191C141.903 36.6323 141.667 36.6456 141.361 36.6589C140.76 36.6848 139.901 36.7097 138.841 36.7323C136.729 36.7773 133.938 36.8103 131.139 36.8229C124.614 36.8523 119.585 36.7683 118.886 36.59C118.141 36.4 117.862 34.5429 118.413 32.242C119.045 29.6059 120.509 27.254 122.394 26.1792C123.148 25.7493 124.647 25.564 126.851 25.5585C127.483 25.5569 128.066 25.5673 129.041 25.5929C131.409 25.6549 131.89 25.6505 132.296 25.4766C132.862 25.2338 133.618 24.4697 134.139 23.6675C134.41 23.25 134.594 22.8565 134.657 22.5196C134.753 22.0093 134.569 21.5674 134.07 21.4249C133.328 21.2134 129.666 20.8923 126.621 20.9485C121.75 21.0383 117.742 21.9009 115.196 23.8032C113.376 25.1628 112.099 26.8966 111.257 28.9497C110.785 30.1013 110.464 31.3134 110.244 32.6382C110.159 33.1505 110.091 33.6631 110.028 34.2386C109.993 34.5605 109.9 35.5229 109.896 35.5523C109.817 36.3224 109.727 36.7178 109.725 36.7196C109.485 36.8746 92.6211 36.8221 92.1989 36.5923C92.2627 36.6271 92.2805 36.6593 92.2784 36.6454C92.2648 36.5593 92.2698 36.4176 92.2978 36.2303C92.3577 35.8283 92.515 35.2604 92.7629 34.5446C93.1999 33.2828 93.8928 31.625 94.8499 29.5049C94.979 29.2188 95.1132 28.9238 95.2537 28.617C95.7003 27.6412 97.1595 24.5129 97.387 24.0162C98.2638 22.1022 98.4145 21.7318 98.281 21.4116C97.9966 20.73 94.5528 20.6995 93.4958 20.9634C93.121 21.0574 92.9013 21.4958 91.9629 23.6142C91.5704 24.5002 89.9276 28.3115 89.744 28.7332C89.6271 29.0017 89.5151 29.258 89.4064 29.5056C87.6926 33.4098 86.5092 35.7542 86.114 35.9764C83.5955 37.3932 81.2743 37.1554 80.3478 34.7197C80.1533 34.2089 80.8849 31.9596 82.328 28.5152C82.4405 28.2469 82.5579 27.9691 82.6822 27.6774C82.9326 27.0898 84.1888 24.1919 84.4563 23.5522C84.708 22.9504 84.8795 22.5138 84.9834 22.2038C85.0455 22.0187 85.0851 21.8745 85.1025 21.7588C85.1168 21.6631 85.1189 21.5787 85.0981 21.4876C85.0483 21.2688 84.8681 21.0862 84.6035 21.0862C84.5257 21.0862 83.339 21.0364 83.0537 21.0257C82.2118 20.9942 81.4459 20.9738 80.7187 20.9669C78.1773 20.943 76.8435 21.0508 76.4547 21.5372C75.7403 22.4296 71.2338 33.3848 71.1044 34.8115C71.0513 35.3969 71.2658 35.8719 71.6772 36.3572C71.7547 36.4486 71.9852 36.699 72.0151 36.7346C72.0202 36.7407 72.0085 36.7178 72.0433 36.5788C72.0693 36.4749 72.129 36.4075 72.1856 36.3756C72.1849 36.3759 72.1561 36.3855 72.1027 36.3967C71.9385 36.4312 71.657 36.457 71.2367 36.4733C56.674 37.0404 47.0886 36.792 45.1537 35.2564L45.1536 35.2563Z" fill="black"/>
</svg>
