<svg width="168" height="48" viewBox="0 0 168 48" fill="none" xmlns="http://www.w3.org/2000/svg">
<path fill-rule="evenodd" clip-rule="evenodd" d="M55.5366 37.0603V43.8527H54.6293V38.1888L52.3933 42.6607H51.5705L49.3345 38.1888V43.8527H48.4702V37.0603H49.6939L52.003 41.6907L54.313 37.0603H55.5366Z" fill="#6F8F9D"/>
<path fill-rule="evenodd" clip-rule="evenodd" d="M58.2206 40.1191C57.9783 40.3508 57.8214 40.6646 57.7515 41.0573H60.3769C60.3208 40.6435 60.1834 40.3248 59.9655 40.1036C59.7476 39.8816 59.463 39.7711 59.1117 39.7711C58.7605 39.7711 58.4629 39.8873 58.2206 40.1191ZM61.2843 41.659H57.7197C57.7547 42.1436 57.9108 42.5331 58.1889 42.8242C58.467 43.1169 58.8198 43.2616 59.2491 43.2616C59.5296 43.2616 59.7776 43.199 59.9923 43.0721C60.2069 42.9461 60.3631 42.7705 60.4614 42.5453L61.2314 42.7347C61.0981 43.1217 60.8485 43.4291 60.4826 43.6584C60.1167 43.886 59.6849 44.0007 59.1857 44.0007C58.7215 44.0007 58.3133 43.8966 57.962 43.6893C57.61 43.4819 57.3384 43.1917 57.1449 42.8193C56.9514 42.4461 56.8546 42.0176 56.8546 41.5322C56.8546 41.0476 56.9498 40.6183 57.1392 40.2459C57.3295 39.8727 57.5978 39.5832 57.9466 39.3759C58.2946 39.1686 58.6962 39.0645 59.154 39.0645C59.8142 39.0645 60.3346 39.2808 60.7151 39.7133C61.0948 40.1451 61.2843 40.7378 61.2843 41.4907V41.659Z" fill="#6F8F9D"/>
<path fill-rule="evenodd" clip-rule="evenodd" d="M69.3524 39.4816C69.6053 39.7524 69.7321 40.1337 69.7321 40.6256V43.8527H68.8678V40.8573C68.8678 40.5272 68.7832 40.2711 68.6141 40.0874C68.4458 39.9044 68.21 39.8133 67.9076 39.8133C67.5279 39.8133 67.2026 39.9467 66.9319 40.2142C66.6611 40.4809 66.5262 40.8614 66.5262 41.3533V43.8527H65.661V40.8573C65.661 40.5272 65.5765 40.2711 65.4082 40.0874C65.2391 39.9044 65.0041 39.8133 64.7016 39.8133C64.3219 39.8133 63.9967 39.9467 63.7259 40.2142C63.4552 40.4809 63.3194 40.8614 63.3194 41.3533V43.8527H62.4551V39.2125H63.2991V39.993C63.8259 39.3808 64.413 39.0751 65.0602 39.0751C65.4187 39.0751 65.7139 39.1564 65.9456 39.3182C66.1782 39.4792 66.3432 39.7076 66.4416 40.0036C66.7229 39.6873 67.0107 39.4532 67.3067 39.3019C67.6019 39.1507 67.9222 39.0751 68.2661 39.0751C68.7369 39.0751 69.0995 39.2109 69.3524 39.4816Z" fill="#6F8F9D"/>
<path fill-rule="evenodd" clip-rule="evenodd" d="M74.13 43.0616C74.3691 42.9071 74.5553 42.6924 74.6886 42.4184C74.822 42.1436 74.8894 41.8355 74.8894 41.4907C74.8894 40.9842 74.7488 40.5768 74.4674 40.267C74.1861 39.9581 73.817 39.8028 73.36 39.8028C72.9803 39.8028 72.6567 39.919 72.39 40.1508C72.1225 40.3825 71.9884 40.7142 71.9884 41.1427V42.7242C72.1786 42.9071 72.3876 43.0478 72.6169 43.1461C72.8446 43.2445 73.0787 43.2933 73.3178 43.2933C73.6202 43.2933 73.891 43.2169 74.13 43.0616ZM74.7837 39.3548C75.1 39.5483 75.3448 39.8223 75.5171 40.1768C75.6887 40.5321 75.7749 40.9419 75.7749 41.4062C75.7749 41.9054 75.6732 42.3518 75.4692 42.7461C75.2651 43.1396 74.9789 43.447 74.6097 43.6681C74.2406 43.8901 73.817 44.0007 73.3389 44.0007C72.8047 44.0007 72.3055 43.8462 71.8412 43.5364L71.7355 43.8527H71.1241V36.7651L71.9884 36.5757V39.9085C72.4673 39.3458 73.0364 39.0645 73.6975 39.0645C74.1056 39.0645 74.4674 39.1613 74.7837 39.3548Z" fill="#6F8F9D"/>
<path fill-rule="evenodd" clip-rule="evenodd" d="M77.9637 40.1191C77.7214 40.3508 77.5644 40.6646 77.4945 41.0573H80.1199C80.0647 40.6435 79.9272 40.3248 79.7093 40.1036C79.4914 39.8816 79.2069 39.7711 78.8548 39.7711C78.5036 39.7711 78.2068 39.8873 77.9637 40.1191ZM81.0273 41.659H77.4628C77.4978 42.1436 77.6539 42.5331 77.932 42.8242C78.21 43.1169 78.5629 43.2616 78.9922 43.2616C79.2727 43.2616 79.5207 43.199 79.7354 43.0721C79.95 42.9461 80.1061 42.7705 80.2053 42.5453L80.9745 42.7347C80.8411 43.1217 80.5915 43.4291 80.2256 43.6584C79.8606 43.886 79.428 44.0007 78.9288 44.0007C78.4645 44.0007 78.0564 43.8966 77.7051 43.6893C77.3539 43.4819 77.0815 43.1917 76.888 42.8193C76.6945 42.4461 76.5977 42.0176 76.5977 41.5322C76.5977 41.0476 76.6928 40.6183 76.8831 40.2459C77.0725 39.8727 77.3409 39.5832 77.6897 39.3759C78.0377 39.1686 78.4401 39.0645 78.8971 39.0645C79.5581 39.0645 80.0785 39.2808 80.4582 39.7133C80.8379 40.1451 81.0273 40.7378 81.0273 41.4907V41.659Z" fill="#6F8F9D"/>
<path fill-rule="evenodd" clip-rule="evenodd" d="M84.8561 39.1279V39.993C84.7504 39.9857 84.6064 39.9816 84.4235 39.9816C84.0511 39.9816 83.7308 40.1036 83.4641 40.3459C83.1966 40.5882 83.0632 40.9313 83.0632 41.3744V43.8527H82.1981V39.2124H83.0421V40.1507C83.3299 39.7857 83.599 39.5222 83.8487 39.3604C84.0983 39.1978 84.3641 39.1173 84.6447 39.1173C84.7292 39.1173 84.8 39.1214 84.8561 39.1279Z" fill="#6F8F9D"/>
<path fill-rule="evenodd" clip-rule="evenodd" d="M37.7741 12.7695C37.7741 16.9373 35.9731 19.8676 32.2687 21.4108C31.8386 21.232 31.4361 21.0344 31.0573 20.8181C31.1093 20.2815 31.1353 19.7262 31.1353 19.1538V9.32775H26.7626V5.85674H37.7741V12.7695ZM24.9511 4.00049V12.2231C24.9511 15.4372 25.9186 17.9618 27.9074 19.8546C27.9058 19.8514 27.9041 19.8489 27.9033 19.8473V17.6951C27.1407 16.3202 26.7626 14.6737 26.7626 12.7695V11.1742H29.301V19.5139C29.301 20.3173 29.2685 20.7458 29.2555 20.9254C28.9213 25.4811 26.6675 28.5748 22.3899 30.3571C18.1164 28.5781 15.8625 25.4868 15.5251 20.9368C18.4253 18.9659 19.8295 16.0942 19.8295 12.2231V11.1742H23.5575V9.32775H13.6445V19.1538C13.6445 19.179 13.6453 19.2042 13.6453 19.2286C14.4014 18.7001 15.0112 18.0683 15.4787 17.3284V11.1742H18.0164V12.7695C18.0164 15.6063 17.1813 17.8715 15.4787 19.5139C14.7706 20.1977 14.1168 20.5945 13.7217 20.8181C13.2615 21.0775 12.9403 21.232 12.511 21.4108C8.80666 19.8676 7.00489 16.9373 7.00489 12.7695V5.85674H18.0164V7.93414H19.8295V4.00049H5.19336V12.2231C5.19336 17.256 7.56184 20.5978 12.511 22.4719C12.9867 22.2922 13.4379 22.0987 13.8656 21.8906C14.6323 26.4039 17.4228 29.5229 22.3899 31.4019C27.3569 29.5229 30.1482 26.4031 30.915 21.8897C31.3426 22.0971 31.7931 22.2914 32.2687 22.4719C37.2187 20.5978 39.5864 17.256 39.5864 12.2231V4.00049H24.9511Z" fill="#295CA7"/>
<path fill-rule="evenodd" clip-rule="evenodd" d="M52.0164 14.5605C50.9871 14.5362 50.7667 14.328 50.7667 13.1027V7.80878L54.3816 14.9159H54.7126L58.3275 7.80878V13.7889C58.3275 14.4256 58.2413 14.5118 57.1388 14.5605V15.2102H61.1212V14.5605C60.0187 14.5118 59.9325 14.4256 59.9325 13.7889V7.44046C59.9325 6.80382 60.0187 6.71763 61.1212 6.66885V6.0192H58.3763L55.0061 12.6856L51.6489 6.0192H48.6958V6.64446C49.7496 6.75422 49.9455 6.85261 49.9455 8.02912V13.1027C49.9455 14.328 49.7252 14.5362 48.6958 14.5605V15.2102H52.0164V14.5605ZM64.8467 14.5727C63.9523 14.5484 63.6946 14.389 63.6946 13.9475C63.6946 13.8133 63.7564 13.6052 63.854 13.384L64.4174 12.1221H68.008L68.621 13.5434C68.7072 13.7393 68.756 13.9109 68.756 14.0337C68.756 14.4134 68.5104 14.5605 67.7136 14.5727V15.2102H71.5009V14.5605C70.8269 14.524 70.7041 14.3768 70.3854 13.654L66.942 5.92164H66.3168L62.8734 13.654C62.5555 14.3768 62.4327 14.524 61.7587 14.5605V15.2102H64.8467V14.5727ZM64.7361 11.3863L66.2192 8.02912L67.69 11.3863H64.7361ZM77.2721 14.5605C76.12 14.5118 76.0224 14.4256 76.0224 13.7889V11.1538L78.5836 7.51445C79.0495 6.85261 79.1959 6.69324 79.8821 6.66885V6.0192H76.7331V6.65665C77.5413 6.68105 77.738 6.81602 77.738 7.11035C77.738 7.2941 77.6518 7.50225 77.4559 7.77138L75.6793 10.3204L73.8531 7.68601C73.6694 7.44046 73.5954 7.2689 73.5954 7.11035C73.5954 6.81602 73.8035 6.66885 74.6378 6.65665V6.0192H70.5447V6.66885C71.157 6.69324 71.3164 6.85261 71.77 7.50225L74.4044 11.24V13.7889C74.4044 14.4256 74.306 14.5118 73.1547 14.5605V15.2102H77.2721V14.5605ZM80.3114 10.7863C80.3114 13.5312 82.1733 15.394 85.237 15.394C88.3738 15.394 90.5057 13.3352 90.5057 10.4431C90.5057 7.6982 88.643 5.83545 85.5801 5.83545C82.4433 5.83545 80.3114 7.89415 80.3114 10.7863ZM82.027 10.3578C82.027 7.90635 83.2523 6.60787 85.311 6.60787C87.4307 6.60787 88.7909 8.17629 88.7909 10.8716C88.7909 13.3231 87.5656 14.6215 85.5069 14.6215C83.3873 14.6215 82.027 13.0531 82.027 10.3578ZM102.59 8.70316H103.153L103.594 6.43631C102.859 6.06799 101.646 5.83545 100.468 5.83545C97.1607 5.83545 94.9183 7.95595 94.9183 10.7863C94.9183 13.4824 96.8908 15.394 100.065 15.394C101.646 15.394 102.921 14.8915 103.827 14.0703L103.423 13.5678C102.601 14.1808 101.584 14.5118 100.567 14.5118C98.312 14.5118 96.6339 12.9677 96.6339 10.3326C96.6339 7.96814 97.9811 6.62007 100.175 6.62007C101.903 6.62007 102.59 7.13474 102.59 8.42103V8.70316ZM112.871 12.5628H112.344L112.148 12.9799C111.584 14.1808 111.119 14.463 110.076 14.463H108.36C107.784 14.463 107.712 14.2174 107.712 13.3962V7.46566C107.712 6.81602 107.821 6.69324 109.145 6.66885V6.0192H104.904V6.66885C106.009 6.71763 106.093 6.80382 106.093 7.44046V13.2613C106.093 14.328 106.02 14.4134 105.003 14.6093V15.2102H112.355L112.871 12.5628ZM113.667 6.66885C114.819 6.71763 114.917 6.80382 114.917 7.44046V13.7889C114.917 14.4256 114.819 14.5118 113.667 14.5605V15.2102H117.784V14.5605C116.633 14.5118 116.535 14.4256 116.535 13.7889V7.44046C116.535 6.80382 116.633 6.71763 117.784 6.66885V6.0192H113.667V6.66885ZM128.605 8.12669C128.605 6.90139 128.825 6.69324 129.854 6.66885V6.0192H126.534V6.66885C127.564 6.69324 127.784 6.90139 127.784 8.12669V12.7718L121.84 6.0192H119.194V6.62007C120.272 6.79162 120.505 6.90139 120.505 7.85756V13.1027C120.505 14.328 120.284 14.5362 119.255 14.5605V15.2102H122.576V14.5605C121.546 14.5362 121.326 14.328 121.326 13.1027V7.88196L127.943 15.333H128.605V8.12669ZM131.203 6.66885C132.355 6.71763 132.453 6.80382 132.453 7.44046V13.7889C132.453 14.4256 132.355 14.5118 131.203 14.5605V15.2102H135.32V14.5605C134.168 14.5118 134.07 14.4256 134.07 13.7889V7.44046C134.07 6.80382 134.168 6.71763 135.32 6.66885V6.0192H131.203V6.66885ZM144.4 8.70316H144.965L145.405 6.43631C144.67 6.06799 143.456 5.83545 142.281 5.83545C138.971 5.83545 136.729 7.95595 136.729 10.7863C136.729 13.4824 138.702 15.394 141.876 15.394C143.456 15.394 144.731 14.8915 145.638 14.0703L145.234 13.5678C144.413 14.1808 143.395 14.5118 142.379 14.5118C140.124 14.5118 138.444 12.9677 138.444 10.3326C138.444 7.96814 139.793 6.62007 141.986 6.62007C143.714 6.62007 144.4 7.13474 144.4 8.42103V8.70316Z" fill="#1A1919"/>
<path fill-rule="evenodd" clip-rule="evenodd" d="M56.3056 22.7074H56.8691L57.3106 20.4406C56.5748 20.0731 55.3617 19.8405 54.1851 19.8405C50.8767 19.8405 48.6343 21.9602 48.6343 24.7913C48.6343 27.4867 50.6068 29.3982 53.7444 29.3982C55.3251 29.3982 56.5138 28.8966 57.4204 28.0754L57.0163 27.5721C56.2072 28.1851 55.2641 28.516 54.2469 28.516C52.0289 28.516 50.3499 26.972 50.3499 24.3376C50.3499 21.9724 51.6979 20.6243 53.8916 20.6243C55.6194 20.6243 56.3056 21.139 56.3056 22.4261V22.7074ZM60.8767 28.5778C59.9815 28.5534 59.7246 28.3941 59.7246 27.9526C59.7246 27.8176 59.7856 27.6095 59.884 27.3891L60.4474 26.1272H64.038L64.651 27.5477C64.7364 27.7444 64.7852 27.916 64.7852 28.0379C64.7852 28.4177 64.5404 28.5656 63.7436 28.5778V29.2145H67.5301V28.5656C66.8569 28.5282 66.7341 28.3819 66.4154 27.6582L62.972 19.9259H62.3468L58.9034 27.6582C58.5847 28.3819 58.4619 28.5282 57.7887 28.5656V29.2145H60.8767V28.5778ZM60.7662 25.3914L62.2484 22.0334L63.7192 25.3914H60.7662ZM72.1622 28.5656C71.0597 28.516 70.9743 28.4299 70.9743 27.7932V21.6171C70.9743 20.9553 71.0353 20.7593 71.4882 20.7593H72.3704C73.6453 20.7593 74.3559 21.3358 74.3559 22.5237C74.3559 23.7246 73.5347 24.3742 72.2606 24.3742H71.6971L71.5987 24.7296L74.9071 29.2145H77.0033V28.5656C76.439 28.516 76.2804 28.3689 75.9487 27.9404L73.5591 24.7913C75.0909 24.3742 76.0227 23.5408 76.0227 22.2781C76.0227 20.6365 74.8462 20.0243 73.1062 20.0243H68.266V20.6243C69.2823 20.8203 69.3563 20.9065 69.3563 21.9724V27.7932C69.3563 28.4299 69.2709 28.516 68.1676 28.5656V29.2145H72.1622V28.5656ZM85.4584 26.7517H84.9315L84.7844 27.0704C84.2209 28.2835 83.7184 28.4794 82.7013 28.4794H80.9483C80.3726 28.4794 80.2995 28.2347 80.2995 27.4135V24.7417H82.0394C82.7623 24.7417 82.9582 24.9377 83.081 25.8077H83.6079V22.9408H83.081C82.9582 23.8108 82.7623 24.0067 82.0394 24.0067H80.2995V21.8252C80.2995 21.004 80.3726 20.7593 80.9483 20.7593H82.8972C83.816 20.7593 84.0494 20.9918 84.1591 21.6781L84.2087 21.9724H84.7226L84.8584 20.0243H77.5423V20.6487C78.5961 20.7715 78.6822 20.8577 78.6822 21.7155V27.2663C78.6822 28.3323 78.6083 28.4177 77.5911 28.6144V29.2145H84.9811L85.4584 26.7517ZM98.7294 22.1318C98.7294 20.9065 98.9497 20.6983 99.9791 20.6739V20.0243H96.6585V20.6739C97.6879 20.6983 97.9082 20.9065 97.9082 22.1318V26.7761L91.9646 20.0243H89.3181V20.6243C90.3962 20.7959 90.6287 20.9065 90.6287 21.8618V27.107C90.6287 28.3323 90.4084 28.5404 89.3791 28.5656V29.2145H92.7005V28.5656C91.6711 28.5404 91.4516 28.3323 91.4516 27.107V21.8862L98.0676 29.3372H98.7294V22.1318ZM109.231 26.7517H108.704L108.557 27.0704C107.994 28.2835 107.491 28.4794 106.474 28.4794H104.722C104.146 28.4794 104.072 28.2347 104.072 27.4135V24.7417H105.812C106.535 24.7417 106.732 24.9377 106.854 25.8077H107.381V22.9408H106.854C106.732 23.8108 106.535 24.0067 105.812 24.0067H104.072V21.8252C104.072 21.004 104.146 20.7593 104.722 20.7593H106.67C107.589 20.7593 107.822 20.9918 107.933 21.6781L107.982 21.9724H108.496L108.631 20.0243H101.315V20.6487C102.369 20.7715 102.455 20.8577 102.455 21.7155V27.2663C102.455 28.3323 102.381 28.4177 101.364 28.6144V29.2145H108.753L109.231 26.7517ZM112.932 20.7715V27.7322C112.932 28.4177 112.822 28.5404 111.621 28.5656V29.2145H115.861V28.5656C114.66 28.5404 114.549 28.4177 114.549 27.7322V20.7715H115.676C116.645 20.7715 117 21.0284 117.294 22.1318L117.405 22.5481H117.932L118.006 20.0243H109.477L109.55 22.5481H110.077L110.187 22.1318C110.481 21.0284 110.836 20.7715 111.804 20.7715H112.932ZM127.871 29.325H128.654L130.688 22.2424C131.069 20.9065 131.24 20.7471 132.086 20.6739V20.0243H128.863V20.6609C129.929 20.6861 130.211 20.9065 129.869 22.1318L128.556 26.7761L125.922 20.1219H125.261L122.613 26.8004L121.191 21.6903C120.971 20.8943 121.24 20.6739 122.196 20.6609V20.0243H118.496V20.6739C119.12 20.7471 119.268 20.8577 119.501 21.6903L121.682 29.325H122.454L125.162 22.5733L127.871 29.325ZM132.661 24.7913C132.661 27.5363 134.524 29.3982 137.588 29.3982C140.725 29.3982 142.857 27.3395 142.857 24.4482C142.857 21.7033 140.994 19.8405 137.932 19.8405C134.793 19.8405 132.661 21.8984 132.661 24.7913ZM134.377 24.362C134.377 21.9114 135.602 20.6121 137.662 20.6121C139.781 20.6121 141.142 22.1814 141.142 24.8767C141.142 27.3273 139.916 28.6266 137.857 28.6266C135.737 28.6266 134.377 27.0582 134.377 24.362ZM148.26 28.5656C147.158 28.516 147.072 28.4299 147.072 27.7932V21.6171C147.072 20.9553 147.133 20.7593 147.587 20.7593H148.468C149.743 20.7593 150.454 21.3358 150.454 22.5237C150.454 23.7246 149.633 24.3742 148.359 24.3742H147.794L147.697 24.7296L151.006 29.2145H153.1V28.5656C152.537 28.516 152.378 28.3689 152.048 27.9404L149.658 24.7913C151.19 24.3742 152.121 23.5408 152.121 22.2781C152.121 20.6365 150.944 20.0243 149.204 20.0243H144.363V20.6243C145.38 20.8203 145.454 20.9065 145.454 21.9724V27.7932C145.454 28.4299 145.368 28.516 144.266 28.5656V29.2145H148.26V28.5656ZM157.649 28.5656C156.545 28.516 156.458 28.4299 156.458 27.7932V25.5508L157.427 24.6564L159.437 27.5477C159.608 27.8054 159.694 27.9648 159.694 28.1241C159.694 28.4177 159.486 28.5656 158.775 28.5778V29.2145H162.806V28.5656C162.121 28.516 161.973 28.3819 161.52 27.7322L158.59 23.5774L160.772 21.5683C161.532 20.8699 161.851 20.6983 162.536 20.6739V20.0243H159.118V20.6609C159.756 20.6861 159.951 20.7593 159.951 21.0162C159.951 21.2374 159.768 21.4455 159.4 21.7887L156.458 24.5458V21.4455C156.458 20.8081 156.545 20.7227 157.649 20.6739V20.0243H153.653V20.6739C154.755 20.7227 154.841 20.8081 154.841 21.4455V27.7932C154.841 28.4299 154.755 28.516 153.653 28.5656V29.2145H157.649V28.5656Z" fill="#1A1919"/>
</svg>
