<svg width="160" height="64" viewBox="0 0 160 64" fill="none" xmlns="http://www.w3.org/2000/svg">
<path d="M33.3135 20.2855L30.7077 16.4565V20.2855H29.6973V14.7548H30.7077L33.2071 18.371V14.7548H34.2175V20.2855H33.3135Z" fill="#143156"/>
<path d="M37.7274 20.3918C36.132 20.3918 35.1216 19.2219 35.1216 17.5201C35.1216 15.8184 36.132 14.6484 37.7274 14.6484C39.3227 14.6484 40.3331 15.8184 40.3331 17.5201C40.3331 19.2219 39.3227 20.3918 37.7274 20.3918ZM37.7274 15.5525C36.7701 15.5525 36.2383 16.3502 36.2383 17.5201C36.2383 18.6901 36.8233 19.4878 37.7274 19.4878C38.6846 19.4878 39.2696 18.6901 39.2696 17.5201C39.2696 16.3502 38.6846 15.5525 37.7274 15.5525Z" fill="#143156"/>
<path d="M45.332 20.1791L44.2684 20.3918L42.8326 18.2115H42.354V20.3386H41.2904V14.7548H42.9921C44.2152 14.7548 44.9598 15.3398 44.9598 16.4034C44.9598 17.201 44.5343 17.7328 43.843 17.9456L45.332 20.1791ZM42.9389 15.6057H42.354V17.3606H42.8858C43.5239 17.3606 43.9493 17.0415 43.9493 16.4565C43.9493 15.9247 43.5771 15.6057 42.9389 15.6057Z" fill="#143156"/>
<path d="M48.3632 15.712V20.3386H47.2996V15.712H45.6511V14.808H49.9586L50.1182 15.712H48.3632Z" fill="#143156"/>
<path d="M53.0963 20.3918C51.5009 20.3918 50.4905 19.2219 50.4905 17.5201C50.4905 15.8184 51.5009 14.6484 53.0963 14.6484C54.6916 14.6484 55.702 15.8184 55.702 17.5201C55.702 19.2219 54.6916 20.3918 53.0963 20.3918ZM53.0963 15.5525C52.139 15.5525 51.6072 16.3502 51.6072 17.5201C51.6072 18.6901 52.1922 19.4878 53.0963 19.4878C54.0535 19.4878 54.6385 18.6901 54.6385 17.5201C54.6385 16.3502 54.0535 15.5525 53.0963 15.5525Z" fill="#143156"/>
<path d="M60.2223 20.2855L57.6165 16.4565V20.2855H56.6061V14.7548H57.6165L60.1159 18.371V14.7548H61.1263V20.2855H60.2223Z" fill="#143156"/>
<path d="M67.8269 20.3386L67.0824 19.5941C66.657 20.1259 66.072 20.3918 65.3807 20.3918C64.2639 20.3918 63.6258 19.86 63.6258 18.956C63.6258 18.2115 64.1044 17.6797 64.8489 17.3606C64.5298 16.9883 64.3171 16.6693 64.3171 16.1906C64.3171 15.4993 64.8489 14.9143 65.7529 14.9143C66.2316 14.9143 66.7102 15.0207 67.0293 15.2334L66.9229 15.9247C66.4975 15.6588 66.1252 15.4993 65.7529 15.4993C65.2743 15.4993 65.0616 15.7652 65.0616 16.1375C65.0616 16.4565 65.2212 16.7224 65.5934 17.0947L67.0293 18.5305C67.1888 18.1583 67.2952 17.7328 67.4015 17.201L68.0397 17.3606C67.9333 17.9987 67.7738 18.5305 67.5079 19.0091L68.6246 20.1259L67.8269 20.3386ZM65.2212 17.786C64.6362 18.0519 64.3171 18.4242 64.3171 18.9028C64.3171 19.4346 64.7425 19.8068 65.3275 19.8068C65.8061 19.8068 66.2316 19.5941 66.6038 19.1687L65.2212 17.786Z" fill="#143156"/>
<path d="M70.805 20.2855V14.7548H73.9958V15.6588H71.8154V16.9352H73.464L73.6235 17.8392H71.8154V19.3814H74.0489V20.2855H70.805Z" fill="#143156"/>
<path d="M75.0593 20.2855V14.7548H76.1229V19.3282H77.9842L78.1437 20.2855H75.0593Z" fill="#143156"/>
<path d="M82.7704 20.3386L82.2386 18.9028H80.1646L79.686 20.2855H78.6224L80.6964 14.7548H81.8131L83.834 20.1791L82.7704 20.3386ZM81.2282 15.9247L80.4836 18.0519H81.9727L81.2282 15.9247Z" fill="#143156"/>
<path d="M84.5785 20.2855V14.7548H85.642V20.2855H84.5785Z" fill="#143156"/>
<path d="M90.4814 20.2855L87.8756 16.4565V20.2855H86.8652V14.7548H87.8756L90.375 18.371V14.7548H91.3854V20.2855H90.4814Z" fill="#143156"/>
<path d="M92.5554 20.2855V14.7548H95.7461V15.6588H93.619V16.9352H95.2675L95.427 17.8392H93.619V19.3814H95.8525V20.2855H92.5554Z" fill="#143156"/>
<path d="M33.1008 35.1229C31.6118 35.1229 30.3355 34.8038 29.2188 34.272L29.6442 31.8789C30.8141 32.5171 32.0904 32.9425 33.2072 32.9425C34.0049 32.9425 34.5367 32.6235 34.5367 31.9321C34.5367 31.294 34.2176 31.0281 32.6222 30.3899C30.3887 29.5391 29.4315 28.7945 29.4315 26.9333C29.4315 24.7529 31.1332 23.583 33.2604 23.583C34.6962 23.583 35.6535 23.8489 36.6107 24.3275L36.1852 26.6674C35.1748 26.0824 34.1113 25.7633 33.2604 25.7633C32.4095 25.7633 32.0373 26.1356 32.0373 26.6674C32.0373 27.2523 32.3563 27.5182 33.739 28.05C36.1853 28.9541 37.1425 29.805 37.1425 31.6131C37.0893 34.0593 35.2812 35.1229 33.1008 35.1229Z" fill="#EF453E"/>
<path d="M45.3321 35.1229L44.4812 32.6766H40.6523L39.8546 35.0165H37.1425L41.1309 23.6893H44.1622L48.0443 34.6443L45.3321 35.1229ZM42.5668 26.561L41.2905 30.4963H43.7899L42.5668 26.561Z" fill="#EF453E"/>
<path d="M57.6697 34.6443L54.798 35.1229L52.3518 31.1344H51.6073V35.0165H48.8419V23.7425H52.724C55.4362 23.7425 56.9784 24.9656 56.9784 27.3055C56.9784 28.8477 56.2339 29.9113 54.9044 30.4963L57.6697 34.6443ZM52.5113 25.8165H51.6073V29.1136H52.4581C53.6281 29.1136 54.3194 28.5286 54.3194 27.4651C54.3194 26.4015 53.6813 25.8165 52.5113 25.8165Z" fill="#EF453E"/>
<path d="M65.6466 35.0165L61.2327 28.2628V35.0165H58.6801V23.7425H61.3391L65.4339 30.0177V23.7425H67.9865V35.0165H65.6466Z" fill="#EF453E"/>
<path d="M74.634 35.2293C71.4432 35.2293 69.316 32.8894 69.316 29.3795C69.316 25.8697 71.39 23.5298 74.634 23.5298C77.8779 23.5298 79.9519 25.8697 79.9519 29.3795C79.9519 32.8362 77.8779 35.2293 74.634 35.2293ZM74.634 25.7101C73.0386 25.7101 72.0813 27.146 72.0813 29.3795C72.0813 31.6131 73.0386 33.0489 74.634 33.0489C76.2293 33.0489 77.1866 31.6131 77.1866 29.3795C77.1866 27.146 76.2825 25.7101 74.634 25.7101Z" fill="#EF453E"/>
<path d="M83.9935 26.0824V28.3691H86.9184L87.2907 30.709H83.9935V34.9634H81.2282V23.7425H87.8756V26.0824H83.9935Z" fill="#EF453E"/>
<path d="M91.9704 26.0824V28.3691H94.8953L95.2676 30.709H91.9704V34.9634H89.2051V23.7425H95.8525V26.0824H91.9704Z" fill="#EF453E"/>
<path d="M104.893 35.1761C101.543 35.1761 99.4687 32.8894 99.4687 29.3795C99.4687 25.8697 101.649 23.5298 104.787 23.5298C106.063 23.5298 107.073 23.7957 107.871 24.2743L107.499 26.7737C106.807 26.2419 105.957 25.8697 104.999 25.8697C103.298 25.8697 102.234 27.146 102.234 29.3795C102.234 31.6131 103.457 32.8894 105.159 32.8894C106.063 32.8894 106.861 32.5703 107.712 32.0917L108.084 34.3784C107.18 34.857 106.116 35.1761 104.893 35.1761Z" fill="#EF453E"/>
<path d="M109.573 35.0165V23.7425H116.486V25.976H112.232V28.05H115.476L115.848 30.3367H112.285V32.783H116.646V35.0165H109.573Z" fill="#EF453E"/>
<path d="M125.048 35.0165L120.634 28.2628V35.0165H118.082V23.7425H120.74L124.835 30.0177V23.7425H127.388V35.0165H125.048Z" fill="#EF453E"/>
<path d="M134.354 26.0824V35.0165H131.589V26.0824H128.505V23.7425H137.332L137.705 26.0824H134.354Z" fill="#EF453E"/>
<path d="M138.768 35.0165V23.7425H145.735V25.976H141.48V28.05H144.724L145.097 30.3367H141.48V32.783H145.841V35.0165H138.768Z" fill="#EF453E"/>
<path d="M155.998 34.6443L153.18 35.1229L150.734 31.1344H149.989V35.0165H147.224V23.7425H151.106C153.818 23.7425 155.36 24.9656 155.36 27.3055C155.36 28.8477 154.616 29.9113 153.286 30.4963L155.998 34.6443ZM150.84 25.8165H149.989V29.1136H150.84C152.01 29.1136 152.701 28.5286 152.701 27.4651C152.701 26.4015 152.063 25.8165 150.84 25.8165Z" fill="#EF453E"/>
<path d="M37.7273 49.2681C37.2487 49.2681 36.7701 49.2149 36.5042 49.1617L36.2383 47.4068C36.5574 47.5132 36.8764 47.5663 37.4614 47.5663C38.3655 47.5663 38.9504 47.1409 38.9504 46.0241V38.6854H40.9712V46.29C40.9712 48.4172 39.6418 49.2681 37.7273 49.2681Z" fill="#143156"/>
<path d="M42.9389 49.1617V38.6854H49.0013V40.3871H44.9065V42.8334H48.0441L48.31 44.5883H44.9065V47.46H49.1609V49.1617H42.9389Z" fill="#143156"/>
<path d="M61.3921 49.1617H59.4777L57.1378 41.5571L54.7979 49.1617H52.8834L50.0117 38.9513L52.0857 38.579L54.0534 46.0773L56.2337 38.6854H58.2546L60.4349 46.0773L62.3494 38.6854H64.3702L61.3921 49.1617Z" fill="#143156"/>
<path d="M65.6997 49.1617V38.6854H67.7205V49.1617H65.6997Z" fill="#143156"/>
<path d="M72.6662 49.2681C71.3899 49.2681 70.3263 49.0022 69.369 48.5236L69.6881 46.6623C70.5922 47.1941 71.6558 47.5663 72.7193 47.5663C73.6234 47.5663 74.2616 47.1409 74.2616 46.29C74.2616 45.4923 73.8893 45.1733 72.4003 44.5351C70.3795 43.6842 69.5286 43.0461 69.5286 41.3975C69.5286 39.5362 70.9644 38.4727 72.9321 38.4727C74.102 38.4727 74.9529 38.7386 75.6974 39.1108L75.3783 40.9189C74.6338 40.4403 73.7298 40.1212 72.9321 40.1212C71.9217 40.1212 71.4962 40.5998 71.4962 41.238C71.4962 41.9293 71.8153 42.2484 73.3043 42.8334C75.4847 43.7374 76.2292 44.4819 76.2292 46.0773C76.176 48.2045 74.687 49.2681 72.6662 49.2681Z" fill="#143156"/>
<path d="M84.2061 49.1617V44.5883H79.739V49.1617H77.7182V38.6854H79.739V42.8334H84.2061V38.6854H86.2269V49.1617H84.2061Z" fill="#143156"/>
<path d="M95.3738 49.3744C92.0766 49.3744 90.2154 47.1941 90.2154 43.9501C90.2154 40.7062 92.1298 38.5258 95.3206 38.5258C96.6501 38.5258 97.6605 38.8449 98.5114 39.3767L98.2455 41.238C97.4478 40.653 96.4905 40.2276 95.3738 40.2276C93.2998 40.2276 92.2894 41.7166 92.2894 43.9501C92.2894 46.1837 93.353 47.6727 95.4801 47.6727C96.2246 47.6727 96.7033 47.5132 97.2351 47.2473V44.9074H95.1079L94.842 43.312H99.0431V48.3108C98.0327 48.949 96.7564 49.3744 95.3738 49.3744Z" fill="#143156"/>
<path d="M100.904 49.1617V38.6854H106.967V40.3871H102.872V42.8334H106.01L106.276 44.5883H102.872V47.46H107.126V49.1617H100.904Z" fill="#143156"/>
<path d="M115.529 49.1617L110.583 41.9293V49.1085H108.722V38.6854H110.636L115.316 45.5455V38.6854H117.177V49.1617H115.529Z" fill="#143156"/>
<path d="M119.358 49.1617V38.6854H125.42V40.3871H121.325V42.8334H124.463L124.729 44.5883H121.325V47.46H125.58V49.1617H119.358Z" fill="#143156"/>
<path d="M131.589 40.4403V49.1617H129.568V40.4403H126.484V38.6854H134.62L134.886 40.4403H131.589Z" fill="#143156"/>
<path d="M136.056 49.1617V38.6854H138.077V49.1617H136.056Z" fill="#143156"/>
<path d="M144.724 49.3213C141.693 49.3213 139.779 47.1941 139.779 43.897C139.779 40.653 141.746 38.4727 144.724 38.4727C145.947 38.4727 146.851 38.7386 147.649 39.2172L147.383 41.1316C146.692 40.5998 145.841 40.2276 144.831 40.2276C142.969 40.2276 141.853 41.6634 141.853 43.897C141.853 46.1837 143.076 47.5663 144.937 47.5663C145.894 47.5663 146.798 47.1941 147.596 46.6623L147.862 48.4172C146.958 49.0022 145.894 49.3213 144.724 49.3213Z" fill="#143156"/>
<path d="M152.329 49.2681C151.053 49.2681 149.989 49.0022 149.032 48.5236L149.351 46.6623C150.255 47.1941 151.318 47.5663 152.382 47.5663C153.286 47.5663 153.924 47.1409 153.924 46.29C153.924 45.4923 153.552 45.1733 152.063 44.5351C150.042 43.6842 149.191 43.0461 149.191 41.3975C149.191 39.5362 150.627 38.4727 152.595 38.4727C153.765 38.4727 154.616 38.7386 155.36 39.1108L155.041 40.9189C154.297 40.4403 153.392 40.1212 152.595 40.1212C151.584 40.1212 151.159 40.5998 151.159 41.238C151.159 41.9293 151.478 42.2484 152.967 42.8334C155.147 43.7374 155.892 44.4819 155.892 46.0773C155.839 48.2045 154.35 49.2681 152.329 49.2681Z" fill="#143156"/>
<path d="M37.7273 49.2681C37.2487 49.2681 36.7701 49.2149 36.5042 49.1617L36.2383 47.4068C36.5574 47.5132 36.8764 47.5663 37.4614 47.5663C38.3655 47.5663 38.9504 47.1409 38.9504 46.0241V38.6854H40.9712V46.29C40.9712 48.4172 39.6418 49.2681 37.7273 49.2681Z" stroke="#143156" stroke-width="0.1435" stroke-miterlimit="10"/>
<path d="M42.9389 49.1617V38.6854H49.0013V40.3871H44.9065V42.8334H48.0441L48.31 44.5883H44.9065V47.46H49.1609V49.1617H42.9389Z" stroke="#143156" stroke-width="0.1435" stroke-miterlimit="10"/>
<path d="M61.3921 49.1617H59.4777L57.1378 41.5571L54.7979 49.1617H52.8834L50.0117 38.9513L52.0857 38.579L54.0534 46.0773L56.2337 38.6854H58.2546L60.4349 46.0773L62.3494 38.6854H64.3702L61.3921 49.1617Z" stroke="#143156" stroke-width="0.1435" stroke-miterlimit="10"/>
<path d="M65.6997 49.1617V38.6854H67.7205V49.1617H65.6997Z" stroke="#143156" stroke-width="0.1435" stroke-miterlimit="10"/>
<path d="M72.6662 49.2681C71.3899 49.2681 70.3263 49.0022 69.369 48.5236L69.6881 46.6623C70.5922 47.1941 71.6558 47.5663 72.7193 47.5663C73.6234 47.5663 74.2616 47.1409 74.2616 46.29C74.2616 45.4923 73.8893 45.1733 72.4003 44.5351C70.3795 43.6842 69.5286 43.0461 69.5286 41.3975C69.5286 39.5362 70.9644 38.4727 72.9321 38.4727C74.102 38.4727 74.9529 38.7386 75.6974 39.1108L75.3783 40.9189C74.6338 40.4403 73.7298 40.1212 72.9321 40.1212C71.9217 40.1212 71.4962 40.5998 71.4962 41.238C71.4962 41.9293 71.8153 42.2484 73.3043 42.8334C75.4847 43.7374 76.2292 44.4819 76.2292 46.0773C76.176 48.2045 74.687 49.2681 72.6662 49.2681Z" stroke="#143156" stroke-width="0.1435" stroke-miterlimit="10"/>
<path d="M84.2061 49.1617V44.5883H79.739V49.1617H77.7182V38.6854H79.739V42.8334H84.2061V38.6854H86.2269V49.1617H84.2061Z" stroke="#143156" stroke-width="0.1435" stroke-miterlimit="10"/>
<path d="M95.3738 49.3744C92.0766 49.3744 90.2154 47.1941 90.2154 43.9501C90.2154 40.7062 92.1298 38.5258 95.3206 38.5258C96.6501 38.5258 97.6605 38.8449 98.5114 39.3767L98.2455 41.238C97.4478 40.653 96.4905 40.2276 95.3738 40.2276C93.2998 40.2276 92.2894 41.7166 92.2894 43.9501C92.2894 46.1837 93.353 47.6727 95.4801 47.6727C96.2246 47.6727 96.7033 47.5132 97.2351 47.2473V44.9074H95.1079L94.842 43.312H99.0431V48.3108C98.0327 48.949 96.7564 49.3744 95.3738 49.3744Z" stroke="#143156" stroke-width="0.1435" stroke-miterlimit="10"/>
<path d="M100.904 49.1617V38.6854H106.967V40.3871H102.872V42.8334H106.01L106.276 44.5883H102.872V47.46H107.126V49.1617H100.904Z" stroke="#143156" stroke-width="0.1435" stroke-miterlimit="10"/>
<path d="M115.529 49.1617L110.583 41.9293V49.1085H108.722V38.6854H110.636L115.316 45.5455V38.6854H117.177V49.1617H115.529Z" stroke="#143156" stroke-width="0.1435" stroke-miterlimit="10"/>
<path d="M119.358 49.1617V38.6854H125.42V40.3871H121.325V42.8334H124.463L124.729 44.5883H121.325V47.46H125.58V49.1617H119.358Z" stroke="#143156" stroke-width="0.1435" stroke-miterlimit="10"/>
<path d="M131.589 40.4403V49.1617H129.568V40.4403H126.484V38.6854H134.62L134.886 40.4403H131.589Z" stroke="#143156" stroke-width="0.1435" stroke-miterlimit="10"/>
<path d="M136.056 49.1617V38.6854H138.077V49.1617H136.056Z" stroke="#143156" stroke-width="0.1435" stroke-miterlimit="10"/>
<path d="M144.724 49.3213C141.693 49.3213 139.779 47.1941 139.779 43.897C139.779 40.653 141.746 38.4727 144.724 38.4727C145.947 38.4727 146.851 38.7386 147.649 39.2172L147.383 41.1316C146.692 40.5998 145.841 40.2276 144.831 40.2276C142.969 40.2276 141.853 41.6634 141.853 43.897C141.853 46.1837 143.076 47.5663 144.937 47.5663C145.894 47.5663 146.798 47.1941 147.596 46.6623L147.862 48.4172C146.958 49.0022 145.894 49.3213 144.724 49.3213Z" stroke="#143156" stroke-width="0.1435" stroke-miterlimit="10"/>
<path d="M152.329 49.2681C151.053 49.2681 149.989 49.0022 149.032 48.5236L149.351 46.6623C150.255 47.1941 151.318 47.5663 152.382 47.5663C153.286 47.5663 153.924 47.1409 153.924 46.29C153.924 45.4923 153.552 45.1733 152.063 44.5351C150.042 43.6842 149.191 43.0461 149.191 41.3975C149.191 39.5362 150.627 38.4727 152.595 38.4727C153.765 38.4727 154.616 38.7386 155.36 39.1108L155.041 40.9189C154.297 40.4403 153.392 40.1212 152.595 40.1212C151.584 40.1212 151.159 40.5998 151.159 41.238C151.159 41.9293 151.478 42.2484 152.967 42.8334C155.147 43.7374 155.892 44.4819 155.892 46.0773C155.839 48.2045 154.35 49.2681 152.329 49.2681Z" stroke="#143156" stroke-width="0.1435" stroke-miterlimit="10"/>
<path d="M30.4407 48.3643H31.5575V47.1412L32.302 47.0349V48.4175H34.1101V49.2684H29.6962V46.7158H30.4407V48.3643Z" fill="#143156"/>
<path d="M34.1633 44.3227C34.1633 45.599 33.2592 46.3967 31.8766 46.3967C30.4939 46.3967 29.5898 45.599 29.5898 44.3227C29.5898 43.0464 30.4939 42.2487 31.8766 42.2487C33.2592 42.2487 34.1633 43.0464 34.1633 44.3227ZM30.2812 44.3227C30.2812 45.0672 30.9193 45.5458 31.8766 45.5458C32.8338 45.5458 33.4719 45.0672 33.4719 44.3227C33.4719 43.5782 32.8338 43.0996 31.8766 43.0996C30.9193 43.0996 30.2812 43.5782 30.2812 44.3227Z" fill="#143156"/>
<path d="M34.0037 38.2603L34.1633 39.1111L32.4084 40.2811V40.6533H34.1101V41.5042H29.6962V40.1215C29.6962 39.1643 30.1748 38.5262 31.0257 38.5262C31.6638 38.5262 32.0893 38.8452 32.2488 39.4302L34.0037 38.2603ZM30.3875 40.1747V40.6533H31.7702V40.2279C31.7702 39.6961 31.5043 39.377 31.0789 39.377C30.6003 39.377 30.3875 39.6429 30.3875 40.1747Z" fill="#143156"/>
<path d="M18.6905 11.2451C18.6905 10.9261 18.4778 10.7134 18.1587 10.7134H16.1379C15.8189 10.7134 15.6061 10.9261 15.6061 11.2451C15.6061 11.5642 15.8189 11.7769 16.1379 11.7769H18.1587C18.4246 11.7769 18.6905 11.511 18.6905 11.2451Z" fill="#EF453E"/>
<path d="M14.8084 8.74572H19.3287C19.6478 8.74572 19.8605 8.533 19.8605 8.21392C19.8605 7.89485 19.6478 7.68213 19.3287 7.68213H14.8084C14.4894 7.68213 14.2767 7.89485 14.2767 8.21392C14.2767 8.533 14.5425 8.74572 14.8084 8.74572Z" fill="#EF453E"/>
<path d="M11.0859 30.177C11.0859 30.4961 11.2986 30.7088 11.6177 30.7088H23.3171C23.6362 30.7088 23.8489 30.4961 23.8489 30.177C23.8489 29.8579 23.6362 29.6452 23.3171 29.6452H11.6177C11.3518 29.6452 11.0859 29.8579 11.0859 30.177Z" fill="#EF453E"/>
<path d="M9.7564 27.5712H22.7322C23.0513 27.5712 23.264 27.3585 23.264 27.0394C23.264 26.7204 23.0513 26.5076 22.7322 26.5076H9.7564C9.43733 26.5076 9.22461 26.7204 9.22461 27.0394C9.22461 27.3053 9.49051 27.5712 9.7564 27.5712Z" fill="#EF453E"/>
<path d="M22.7854 35.9204H9.7564C9.43733 35.9204 9.22461 36.1331 9.22461 36.4522C9.22461 36.7713 9.43733 36.984 9.7564 36.984H22.7322C23.0513 36.984 23.264 36.7713 23.264 36.4522C23.3172 36.1331 23.0513 35.9204 22.7854 35.9204Z" fill="#EF453E"/>
<path d="M23.3703 32.7828H11.6709C11.3518 32.7828 11.1391 32.9955 11.1391 33.3146C11.1391 33.6337 11.3518 33.8464 11.6709 33.8464H23.3703C23.6894 33.8464 23.9021 33.6337 23.9021 33.3146C23.9021 32.9955 23.6362 32.7828 23.3703 32.7828Z" fill="#EF453E"/>
<path d="M21.7749 39.0048H16.9356C16.6165 39.0048 16.4038 39.2175 16.4038 39.5366C16.4038 39.8557 16.6165 40.0684 16.9356 40.0684H21.7749C22.094 40.0684 22.3067 39.8557 22.3067 39.5366C22.3067 39.2175 22.094 39.0048 21.7749 39.0048Z" fill="#EF453E"/>
<path d="M20.7114 42.0892H18.6905C18.3715 42.0892 18.1587 42.3019 18.1587 42.621C18.1587 42.9401 18.3715 43.1528 18.6905 43.1528H20.7114C21.0304 43.1528 21.2432 42.9401 21.2432 42.621C21.2432 42.3019 20.9773 42.0892 20.7114 42.0892Z" fill="#EF453E"/>
<path d="M16.4038 23.955C16.4038 24.2741 16.6165 24.4868 16.9356 24.4868H21.7749C22.094 24.4868 22.3067 24.2741 22.3067 23.955C22.3067 23.6359 22.094 23.4232 21.7749 23.4232H16.9356C16.6697 23.4232 16.4038 23.6359 16.4038 23.955Z" fill="#EF453E"/>
<path d="M18.1587 20.8706C18.1587 21.1897 18.3715 21.4024 18.6905 21.4024H20.7114C21.0304 21.4024 21.2432 21.1897 21.2432 20.8706C21.2432 20.5515 21.0304 20.3388 20.7114 20.3388H18.6905C18.3715 20.3388 18.1587 20.5515 18.1587 20.8706Z" fill="#EF453E"/>
<path d="M19.3819 54.7459H14.8616C14.5425 54.7459 14.3298 54.9586 14.3298 55.2777C14.3298 55.5968 14.5425 55.8095 14.8616 55.8095H19.3819C19.7009 55.8095 19.9137 55.5968 19.9137 55.2777C19.9137 55.0118 19.6478 54.7459 19.3819 54.7459Z" fill="#EF453E"/>
<path d="M18.1587 52.7783C18.4778 52.7783 18.6905 52.5655 18.6905 52.2465C18.6905 51.9274 18.4778 51.7147 18.1587 51.7147H16.2443C15.9252 51.7147 15.7125 51.9274 15.7125 52.2465C15.7125 52.5655 15.9252 52.7783 16.2443 52.7783H18.1587Z" fill="#EF453E"/>
<path d="M23.5301 57.0859C22.307 52.5656 20.1798 48.6835 19.4353 47.4072C20.4989 45.5459 24.4342 38.4199 24.4342 31.7193C24.4342 25.0187 20.4989 17.8926 19.4353 16.0314C20.1798 14.7551 22.307 10.873 23.5301 6.35271C23.6365 5.92727 23.3706 5.44866 22.9452 5.3423C22.5197 5.23594 22.0411 5.50184 21.9348 5.92727C20.9243 9.49029 19.329 12.6811 18.4249 14.3828C17.5209 12.6811 15.9255 9.49029 14.9683 5.92727C14.8087 5.50184 14.3833 5.23594 13.9047 5.3423C13.4792 5.44866 13.2133 5.92727 13.3197 6.35271C14.5428 10.873 16.7232 14.7551 17.4677 16.0314L13.426 22.9979H4.86417C4.54509 22.9979 4.27919 23.1574 4.11965 23.4233C3.96012 23.6892 3.96012 24.0083 4.11965 24.2742L8.42718 31.6661L4.11965 39.1644C3.96012 39.4303 3.96012 39.7494 4.11965 40.0153C4.27919 40.2812 4.54509 40.4407 4.86417 40.4407H13.426L17.4677 47.4072C16.7232 48.6835 14.596 52.5656 13.3197 57.0859C13.2665 57.2986 13.2133 57.4581 13.1602 57.6708C13.0538 58.0963 13.3197 58.5749 13.7451 58.6812C13.7983 58.6812 13.9047 58.6812 13.9578 58.6812C14.3301 58.6812 14.7024 58.4153 14.7555 58.0431C14.8087 57.8835 14.8619 57.6708 14.9151 57.5113C15.8723 53.9483 17.4677 50.7575 18.3717 49.1089C19.2758 50.8107 20.8712 54.0014 21.8284 57.5113C21.8816 57.6708 21.9348 57.8835 21.9879 58.0431C22.0943 58.4153 22.4134 58.6812 22.7856 58.6812C22.8388 58.6812 22.9452 58.6812 22.9983 58.6812C23.4238 58.5749 23.7429 58.0963 23.6365 57.6708C23.6365 57.4581 23.5833 57.2986 23.5301 57.0859ZM13.9047 38.739H6.30001L10.1289 32.1447C10.2885 31.8788 10.2885 31.5597 10.1289 31.2938L6.30001 24.7528H13.9047C14.2237 24.7528 14.4896 24.5932 14.6492 24.3273L18.4249 17.7331C19.8076 20.2857 22.7324 26.2418 22.7324 31.7193C22.7324 37.1968 19.8076 43.1529 18.4249 45.7055L14.6492 39.1112C14.4896 38.8985 14.2237 38.739 13.9047 38.739Z" fill="#143156"/>
</svg>
