<svg width="416" height="48" viewBox="0 0 416 48" fill="none" xmlns="http://www.w3.org/2000/svg">
<path d="M205.062 4.00049C203.458 4.00049 202.223 4.34521 202.223 5.82813V7.27844C202.223 8.76136 203.458 9.1449 205.062 9.1449C206.67 9.1449 207.903 8.76136 207.903 7.27999V5.82813C207.903 4.34521 206.67 4.00049 205.062 4.00049ZM206.217 12.0471H203.953C203.202 12.0471 202.594 12.6551 202.593 13.4058V32.8561C202.594 33.607 203.202 34.2155 203.953 34.2163H206.217C206.968 34.2155 207.576 33.6067 207.576 32.8561V13.4058C207.576 12.6554 206.967 12.0471 206.217 12.0471ZM140.104 11.8204C136.81 11.8204 134.504 13.2614 132.776 15.5673C131.625 13.2614 129.4 11.8204 126.271 11.8204C122.938 11.8204 121.045 13.6325 119.646 15.5673V13.4042C119.646 13.0437 119.502 12.6981 119.247 12.4435C118.992 12.1889 118.646 12.0462 118.285 12.0471H116.023C115.273 12.0471 114.665 12.6544 114.664 13.4042V32.8561C114.664 33.6067 115.272 34.2155 116.023 34.2163H118.285C118.646 34.2163 118.992 34.073 119.247 33.8178C119.502 33.5627 119.644 33.2167 119.644 32.8561V21.7443C119.644 18.4089 121.538 16.3483 124.296 16.3483C127.054 16.3483 128.702 18.2427 128.702 21.6201V32.8561C128.702 33.6067 129.31 34.2155 130.06 34.2163H132.323C132.683 34.2163 133.029 34.073 133.284 33.8178C133.539 33.5627 133.682 33.2167 133.681 32.8561V21.7443C133.681 18.2427 135.616 16.3483 138.334 16.3483C141.133 16.3483 142.737 18.2039 142.737 21.6589L142.739 32.8545C142.738 33.6052 143.345 34.2146 144.096 34.2163H146.36C147.111 34.2155 147.719 33.6067 147.719 32.8561V20.1356C147.719 14.825 144.838 11.8204 140.104 11.8204ZM350.239 4.00049C348.635 4.00049 347.397 4.34521 347.397 5.82813V7.27844C347.397 8.76136 348.635 9.1449 350.239 9.1449C351.846 9.1449 353.08 8.76136 353.08 7.27999V5.82813C353.08 4.34521 351.846 4.00049 350.239 4.00049ZM351.393 12.0471H349.129C348.378 12.0471 347.77 12.6554 347.77 13.4058V32.8561C347.77 33.6067 348.378 34.2155 349.129 34.2163H351.393C352.142 34.2146 352.749 33.6059 352.748 32.8561V13.4058C352.748 12.6542 352.143 12.0471 351.393 12.0471ZM77.0695 9.77844C79.2113 9.77056 81.2957 10.471 82.9981 11.7707C83.5173 12.1703 84.2527 12.1211 84.7139 11.6558L86.4562 9.91353C86.7192 9.65015 86.8576 9.28727 86.8369 8.91564C86.8161 8.54402 86.6382 8.1988 86.3475 7.96633C83.7192 5.85281 80.4437 4.70799 77.0711 4.72392C68.8692 4.72392 62.1953 11.3965 62.1953 19.6014C62.1953 27.8048 68.8692 34.4789 77.0711 34.4789C80.4436 34.4942 83.7189 33.3495 86.3475 31.2365C86.6394 31.0052 86.8183 30.66 86.8391 30.2881C86.8599 29.9162 86.7205 29.5533 86.4562 29.2909L84.7124 27.5502C84.2498 27.0884 83.5173 27.0387 82.9965 27.4337C81.2948 28.7323 79.2117 29.4321 77.0711 29.4244C71.6487 29.4184 67.2548 25.0238 67.2497 19.6014C67.2565 14.1806 71.6488 9.78769 77.0695 9.77999V9.77844ZM227.049 23.2008C227.049 27.3592 224.194 30.1604 220.942 30.1604C217.647 30.1604 215.062 27.4834 215.062 23.2008V23.1185C215.062 18.9213 217.691 16.1635 220.942 16.1635C224.194 16.1635 227.049 18.9617 227.049 23.1185V23.2008ZM231.124 12.0471H228.861C228.501 12.0467 228.155 12.1896 227.9 12.4445C227.645 12.6993 227.501 13.0451 227.501 13.4058V15.5874C225.897 13.3235 223.632 11.8421 220.091 11.8421C214.987 11.8421 210.007 15.8763 210.007 23.1201V23.2024C210.007 30.4073 214.945 34.4819 220.091 34.4819C223.712 34.4819 225.978 32.8204 227.501 30.8017L227.542 30.7505V32.7614C227.542 36.5083 224.649 39.9384 220.615 39.9384C218.136 39.9384 215.863 38.7893 214.726 36.8592C214.337 36.2201 213.503 36.0167 212.863 36.4042L211.906 37.0393C211.265 37.4288 211.058 38.2639 211.445 38.9073C213.316 41.9663 216.633 44.0005 220.832 44.0005C228.038 44.0005 232.483 38.8561 232.483 32.6806V13.4058C232.483 12.6554 231.874 12.0471 231.124 12.0471ZM336.537 11.8405C333.158 11.8405 331.143 13.5533 329.743 15.5673V13.4042C329.743 12.6544 329.135 12.0471 328.385 12.0471H326.119C325.371 12.0488 324.764 12.6556 324.764 13.4042V32.8561C324.764 33.6055 325.37 34.2138 326.119 34.2163H328.385C329.133 34.2163 329.743 33.6061 329.743 32.6511V20.9399C329.712 19.2132 330.616 17.6042 332.106 16.7318C333.596 15.8593 335.442 15.8593 336.932 16.7318C338.422 17.6042 339.326 19.2132 339.295 20.9399V32.8561C339.295 33.6055 339.901 34.2138 340.65 34.2163H342.916C343.666 34.2155 344.275 33.6067 344.275 32.8561V20.1542C344.275 15.134 341.433 11.8405 336.537 11.8405ZM247.751 11.8405C244.372 11.8405 242.357 13.5533 240.956 15.5673V13.4042C240.955 12.6544 240.347 12.0471 239.597 12.0471H237.334C236.585 12.0479 235.978 12.6553 235.978 13.4042V32.8561C235.977 33.6059 236.584 34.2146 237.334 34.2163H239.597C240.347 34.2163 240.956 33.6061 240.956 32.6511V20.9399C240.956 18.302 243.095 16.1635 245.733 16.1635C248.371 16.1635 250.509 18.302 250.509 20.9399V32.8561C250.509 33.6055 251.115 34.2138 251.865 34.2163H254.13C254.881 34.2155 255.489 33.6067 255.489 32.8561V20.1542C255.489 15.134 252.646 11.8405 247.751 11.8405ZM408.816 12.0968C408.77 12.0751 408.723 12.056 408.675 12.0393C408.148 11.9062 407.607 11.8394 407.063 11.8405C404.55 11.8402 402.259 13.2821 401.172 15.5486V13.4058C401.172 12.6554 400.564 12.0471 399.813 12.0471H397.548C396.798 12.0488 396.191 12.6561 396.189 13.4058V32.8576C396.192 33.607 396.798 34.2138 397.548 34.2163H399.813C400.563 34.2155 401.171 33.6077 401.172 32.8576V24.6232C401.172 17.9756 404.643 16.7784 406.644 16.9415C407.037 16.9725 407.382 17.0269 407.675 17.0657C407.759 17.0745 407.843 17.0813 407.927 17.0859C408.393 17.0859 408.781 16.7551 408.869 16.3157L409.369 13.1169C409.434 12.6915 409.208 12.2747 408.816 12.0968ZM317.214 23.1713V23.2412C317.214 27.0424 314.568 30.1169 310.705 30.1589C306.84 30.1169 304.194 27.0424 304.194 23.2412V23.1014C304.194 19.3017 306.84 16.2256 310.705 16.1853C314.568 16.2272 317.214 19.3017 317.214 23.103V23.1713ZM310.705 11.8405C304.035 11.8405 299.139 16.9027 299.139 23.1185V23.2256C299.139 29.4399 304.035 34.5036 310.705 34.5036C317.374 34.5036 322.27 29.4399 322.27 23.2256V23.1169C322.27 16.9042 317.374 11.8405 310.705 11.8405ZM388.551 23.1713V23.2412C388.551 27.0424 385.905 30.1169 382.042 30.1589C378.177 30.1169 375.531 27.0424 375.531 23.2412V23.1014C375.531 19.3017 378.177 16.2256 382.042 16.1853C385.905 16.2272 388.551 19.3017 388.551 23.103V23.1713ZM382.042 11.8405C375.372 11.8405 370.476 16.9027 370.476 23.1185V23.2256C370.476 29.4399 375.372 34.5036 382.042 34.5036C388.711 34.5036 393.607 29.4399 393.607 23.2256V23.1169C393.607 16.9042 388.711 11.8405 382.042 11.8405ZM295.202 5.02844H292.93C292.501 5.03027 292.099 5.23327 291.843 5.57658L282.483 18.3623L273.124 5.57658C272.867 5.23322 272.464 5.03027 272.035 5.02844H269.764C269.013 5.0293 268.405 5.63805 268.405 6.38869V32.8561C268.405 33.6067 269.013 34.2155 269.764 34.2163H272.029C272.78 34.2155 273.388 33.6067 273.388 32.8561V14.4974L281.655 25.103L281.674 25.1263L281.74 25.2101H281.743C281.931 25.4221 282.2 25.5435 282.483 25.5435C282.765 25.5435 283.035 25.4221 283.222 25.2101H283.225L283.292 25.1263L283.31 25.103L291.577 14.4974V32.8545C291.577 33.6052 292.185 34.2139 292.936 34.2148H295.202C295.952 34.2139 296.56 33.6052 296.56 32.8545V6.38869C296.56 5.63805 295.952 5.0293 295.202 5.02844ZM168.635 23.2008C168.635 27.3592 165.779 30.1604 162.528 30.1604C159.233 30.1604 156.647 27.4834 156.647 23.2008V23.1185C156.647 18.9213 159.275 16.1635 162.528 16.1635C165.779 16.1635 168.635 18.9632 168.635 23.1185V23.2008ZM163.605 11.8405C160.065 11.8405 157.801 13.3017 156.195 15.5673V13.4058C156.196 13.0453 156.053 12.6995 155.798 12.4446C155.543 12.1897 155.197 12.0467 154.837 12.0471H152.574C152.214 12.0467 151.868 12.1897 151.613 12.4446C151.358 12.6995 151.215 13.0453 151.215 13.4058V41.9539C151.215 42.3147 151.358 42.6608 151.613 42.9162C151.868 43.1716 152.213 43.3153 152.574 43.3157H154.837C155.197 43.3153 155.543 43.1716 155.798 42.9162C156.053 42.6608 156.196 42.3147 156.195 41.9539V30.7489C157.72 32.7676 159.984 34.4803 163.605 34.4803C168.751 34.4803 173.691 30.4042 173.691 23.2008V23.1185C173.691 15.8747 168.709 11.8405 163.605 11.8405ZM104.993 23.2008C104.993 27.3592 102.136 30.1604 98.8848 30.1604C95.5913 30.1604 93.0059 27.4834 93.0059 23.2008V23.1185C93.0059 18.9213 95.6332 16.1635 98.8848 16.1635C102.138 16.1635 104.993 18.9632 104.993 23.1185V23.2008ZM111.379 30.6961C110.849 30.6961 110.419 30.2665 110.419 29.7365V13.4058C110.419 12.6554 109.811 12.0471 109.06 12.0471H106.796C106.046 12.0471 105.438 12.6554 105.438 13.4058V15.5673C103.832 13.3033 101.568 11.8405 98.0276 11.8405C92.9236 11.8405 87.9422 15.8747 87.9422 23.1185V23.2008C87.9422 30.4058 92.8816 34.4803 98.0276 34.4803C101.757 34.4803 104.388 32.8079 105.52 30.7489C106.106 32.8008 107.981 34.2158 110.115 34.2163H111.379C111.633 34.2167 111.878 34.1158 112.058 33.9358C112.238 33.7558 112.34 33.5115 112.34 33.2567V31.6573C112.34 31.4023 112.239 31.1576 112.059 30.9772C111.878 30.7969 111.634 30.6957 111.379 30.6961ZM192.868 23.2008C192.868 27.3592 190.011 30.1604 186.759 30.1604C183.465 30.1604 180.88 27.4834 180.88 23.2008V23.1185C180.88 18.9213 183.507 16.1635 186.759 16.1635C190.011 16.1635 192.868 18.9632 192.868 23.1185V23.2008ZM199.253 30.6961C198.723 30.6961 198.293 30.2665 198.293 29.7365V13.4058C198.293 12.6554 197.685 12.0471 196.934 12.0471H194.67C193.92 12.0471 193.312 12.6554 193.312 13.4058V15.5673C191.706 13.3033 189.442 11.8405 185.902 11.8405C180.798 11.8405 175.816 15.8747 175.816 23.1185V23.2008C175.816 30.4058 180.756 34.4803 185.902 34.4803C189.63 34.4803 192.262 32.8079 193.394 30.7489C193.979 32.8015 195.855 34.2169 197.989 34.2163H199.253C199.783 34.2163 200.212 33.7867 200.212 33.2567V31.6573C200.213 31.4025 200.112 31.1581 199.932 30.9778C199.752 30.7975 199.508 30.6961 199.253 30.6961ZM368.011 12.0471H363.281V5.9803C363.279 5.62335 363.078 5.29714 362.761 5.13348C362.444 4.96981 362.062 4.99575 361.77 5.2008L359.403 6.86229C358.711 7.3327 358.297 8.11549 358.298 8.95235V12.0471H356.694C355.944 12.0471 355.335 12.6539 355.332 13.4042V14.8048C355.334 15.5557 355.943 16.1635 356.694 16.1635H358.298V28.1232C358.298 32.898 360.888 34.5036 364.556 34.5036C366.498 34.5036 368.495 33.752 368.495 33.752C368.495 33.752 369.172 33.5502 369 32.7614C368.942 32.4912 368.604 30.6294 368.604 30.6294C368.521 30.1713 368.332 29.8126 367.684 29.9104C367.366 29.9617 366.764 30.0564 365.953 30.0564C364.265 30.0517 363.281 29.2753 363.281 27.339V16.1635H368.011C368.371 16.1639 368.717 16.0209 368.972 15.766C369.227 15.5111 369.37 15.1653 369.369 14.8048V13.4042C369.369 12.6573 368.764 12.0471 368.011 12.0471Z" fill="#002B45"/>
<path d="M46.4037 7.6903C46.172 7.35892 45.818 7.13338 45.4197 7.06346C45.0215 6.99354 44.6117 7.08499 44.281 7.31763L6.89283 33.4931C7.17728 33.9004 7.64295 34.1428 8.13973 34.1422L8.14128 34.1437H45.1568C45.9984 34.1437 46.6801 33.4605 46.6801 32.6189V8.53813C46.6753 8.2332 46.579 7.93674 46.4037 7.6872V7.6903ZM9.01706 7.31608C8.55556 6.99339 7.95368 6.95163 7.45204 7.20749C6.95039 7.46335 6.63083 7.97509 6.62109 8.53813V32.6639L24.4208 18.0832L9.01861 7.31297" fill="#7856FF"/>
</svg>
