<svg width="184" height="48" viewBox="0 0 184 48" fill="none" xmlns="http://www.w3.org/2000/svg">
<path d="M110.714 4.00224C111.313 4.10188 111.513 4.70151 111.214 5.1001C111.18 5.13332 111.158 5.16653 111.14 5.19975L111.088 5.2994C111.07 5.33261 111.048 5.36583 111.014 5.39904L101.032 16.6766L100.735 16.9773C100.333 17.4756 100.735 18.0752 101.432 18.1748H105.424C106.123 18.2745 106.422 18.8741 106.123 19.3724L105.824 19.6713L98.5375 27.956L98.2385 28.2549C97.9396 28.7549 98.3382 29.3528 98.9378 29.3528H101.632C101.998 29.3511 102.339 29.5407 102.53 29.8528C102.63 30.15 102.63 30.4507 102.331 30.65L102.13 30.851L85.1638 43.6251L84.8648 43.9258C84.6638 44.0254 84.4645 44.0254 84.3648 43.9258C84.2596 43.8154 84.1901 43.6759 84.1655 43.5254C84.1655 43.4258 84.2652 43.2265 84.2652 43.2265L88.9556 33.6464L89.0552 33.3457C89.3559 32.746 89.0552 32.1482 88.356 32.0485H84.3666C83.7687 31.9489 83.468 31.4489 83.6673 31.0503C83.7687 30.9507 83.8684 30.7496 83.8684 30.7496L89.6549 21.0699C89.6549 21.0699 89.7563 20.9685 89.7563 20.8688C90.0552 20.2709 89.6566 19.7709 88.9573 19.7709H85.1655C84.7344 19.7917 84.3528 19.4946 84.2669 19.0717C84.2669 18.8741 84.2669 18.6731 84.4662 18.4738L86.2634 15.3795L92.1513 5.1001L92.2509 4.90081C92.5516 4.40082 93.0499 4.10188 93.7491 4.10188L110.217 4.00224H110.714ZM67.1976 4.00224C76.2812 4.00224 81.0712 10.1908 81.0712 17.5752C81.0712 24.3635 77.178 28.0556 74.0855 29.5521L81.0712 43.5254H67.7972V43.6268L62.6068 31.5468H58.2153V43.6233H46.5374V4.00224H67.1976ZM143.351 4.00049V14.4792H125.685V19.7692H142.952V30.2496H125.685V43.6233L113.908 43.6268V4.00049H143.351ZM180.08 4.00224V14.4809H169.602V43.6268H157.924V14.4792H147.543V4.00224H180.08ZM21.2865 4.00049C33.5623 4.00049 42.6459 11.0859 42.6459 23.7621C42.6459 36.4365 33.5623 43.6233 21.3879 43.6233H3.91992V4.00049H21.2865ZM21.3861 14.4809H15.6975V33.1464H21.2865C27.1744 33.1464 30.669 28.7549 30.669 23.7638H30.6673C30.6673 18.3741 27.6744 14.4809 21.3861 14.4809ZM65.4022 14.4809H58.315V22.3653H65.4022C67.3969 22.3653 69.1958 21.1695 69.1958 18.3741C69.1958 15.6802 67.2972 14.4809 65.4022 14.4809Z" fill="#111111"/>
</svg>
