<svg width="160" height="64" viewBox="0 0 160 64" fill="none" xmlns="http://www.w3.org/2000/svg">
<path d="M4 47.2896V4.72949H26.6734V10.0706H9.46779V21.6818H22.6834V27.044H9.4889V47.3107L4 47.2896Z" fill="black"/>
<path d="M39.0489 12.3339C38.3759 13.007 37.463 13.3851 36.5112 13.3851C35.5594 13.3851 34.6465 13.007 33.9735 12.3339C33.3004 11.6609 32.9223 10.748 32.9223 9.79617C32.9223 8.84434 33.3004 7.93149 33.9735 7.25844C34.6465 6.58539 35.5594 6.20727 36.5112 6.20727C37.463 6.20727 38.3759 6.58539 39.0489 7.25844C39.722 7.93149 40.1001 8.84434 40.1001 9.79617C40.1001 10.748 39.722 11.6609 39.0489 12.3339Z" fill="black"/>
<path d="M33.7456 47.3107V18.7262H39.2345V47.3107H33.7456Z" fill="black"/>
<path fill-rule="evenodd" clip-rule="evenodd" d="M47.1934 31.3506C47.1934 24.0462 52.2601 17.9028 59.5223 17.9028V17.9239C62.8579 17.9239 65.6024 19.1906 67.6079 21.3017V18.7473H73.0968V45.1996C73.1026 47.7264 72.4262 50.208 71.1391 52.3825C69.852 54.5571 68.0019 56.3439 65.7839 57.5545C63.5659 58.7651 61.0622 59.3546 58.5371 59.2609C56.0119 59.1671 53.5589 58.3936 51.4368 57.0218L54.1812 52.2718C55.5534 53.2429 57.2846 53.9185 59.0368 53.9185C60.1723 53.9158 61.296 53.688 62.343 53.2484C63.3899 52.8088 64.3393 52.166 65.1364 51.3572C65.9334 50.5484 66.5622 49.5896 66.9864 48.5363C67.4106 47.483 67.6219 46.3561 67.6079 45.2207V41.4207C65.6024 43.5318 62.8579 44.7985 59.5223 44.7985C52.2601 44.7985 47.1934 38.6551 47.1934 31.3506ZM60.1346 23.244C56.1234 23.244 52.6612 26.8117 52.6612 31.3506C52.6612 35.8895 56.1234 39.4362 60.1346 39.4362C64.1246 39.4362 67.5868 35.8895 67.5868 31.3506C67.5868 26.8329 64.1457 23.244 60.1346 23.244Z" fill="black"/>
<path d="M92.8146 23.244C91.2448 23.2718 89.749 23.9163 88.6507 25.0383C87.5524 26.1603 86.9399 27.6696 86.9457 29.2396V47.3108H81.4568V18.7263H86.9457V21.344C87.7669 20.2556 88.8337 19.3766 90.059 18.7787C91.2843 18.1807 92.6336 17.8806 93.9968 17.9029C97.8391 17.9029 100.795 19.8029 102.484 22.7163C103.426 21.2558 104.715 20.0517 106.237 19.2117C107.758 18.3717 109.465 17.922 111.202 17.9029C117.43 17.9029 121.336 22.9274 121.336 29.1552V47.3108H115.889V29.2185C115.895 27.6484 115.282 26.1392 114.184 25.0172C113.086 23.8952 111.59 23.2507 110.02 23.2229C108.45 23.2507 106.955 23.8952 105.856 25.0172C104.758 26.1392 104.146 27.6484 104.151 29.2185V47.2897H98.6624V29.2185C98.6683 27.652 98.0587 26.1459 96.965 25.0245C95.8712 23.9031 94.3808 23.2561 92.8146 23.2229V23.244Z" fill="black"/>
<path fill-rule="evenodd" clip-rule="evenodd" d="M146.128 18.9454C147.778 19.642 149.269 20.666 150.511 21.9554V18.7262H156V47.3107H150.532V44.0596C149.284 45.3563 147.785 46.3861 146.126 47.0864C144.468 47.7868 142.685 48.1432 140.884 48.1341C132.736 48.1341 126.951 41.2518 126.951 33.0185C126.951 24.7851 132.736 17.9029 140.884 17.9029C142.685 17.8901 144.47 18.2448 146.128 18.9454ZM150.511 21.9554C150.518 21.9627 150.525 21.97 150.532 21.9773H150.511V21.9554ZM141.476 23.244C136.599 23.244 132.419 27.5718 132.419 33.0185C132.419 38.4652 136.62 42.7718 141.476 42.7718C146.352 42.7718 150.532 38.4652 150.532 33.0185C150.532 27.5718 146.331 23.244 141.476 23.244Z" fill="black"/>
</svg>
