<svg width="160" height="56" viewBox="0 0 160 56" fill="none" xmlns="http://www.w3.org/2000/svg">
<path d="M92.1188 42.6269C93.6711 42.2687 94.7457 41.3134 95.4621 39.7612C95.8203 38.9254 96.0591 37.8507 96.2979 36.4179C96.5368 34.9851 96.5368 33.791 96.5368 32.7164V31.403H89.3726C89.3726 32 89.3726 32.4776 89.3726 33.0746C89.3726 33.5522 89.3726 34.1493 89.3726 34.6269C89.3726 35.3433 89.2532 36.0597 89.1338 36.7761C89.0144 37.4925 88.4174 37.8507 87.4621 37.8507C86.5069 37.8507 85.9099 37.4925 85.7905 36.7761C85.6711 36.0597 85.5517 35.3433 85.5517 34.6269C85.5517 32.3582 85.5517 29.9702 85.4323 27.5821C85.4323 25.194 85.4323 22.9254 85.5517 20.5373C85.5517 18.7463 86.1487 17.9105 87.3427 17.9105C88.5368 17.9105 89.1338 18.7463 89.1338 20.5373C89.1338 21.0149 89.1338 21.6119 89.1338 22.0896C89.1338 22.5672 89.1338 23.1642 89.1338 23.6418H96.1786C96.0591 22.5672 95.9397 21.4925 95.8203 20.1791C95.7009 18.8657 95.4621 17.9105 95.2233 17.194C94.6263 15.403 93.5517 14.209 91.9994 13.6119C90.4472 13.1343 88.895 12.7761 87.2233 12.7761C85.5517 12.7761 83.88 13.0149 82.4472 13.6119C80.895 14.0896 79.8203 15.2836 79.2233 17.194C78.8651 18.0299 78.6263 19.2239 78.3875 20.6567C78.1487 22.0896 78.0293 23.403 78.0293 24.9552V31.7612C78.0293 33.3134 78.1487 34.7463 78.3875 36.2985C78.6263 37.8507 78.9845 38.9254 79.3427 39.7612C80.0591 41.3134 81.1338 42.2687 82.686 42.5075C84.2383 42.8657 85.6711 42.9851 87.2233 42.9851C89.1338 43.1045 90.5666 42.9851 92.1188 42.6269Z" fill="black"/>
<path d="M105.97 31.2836L107.641 17.9105H107.761L109.432 31.2836H105.97ZM110.149 36.6567L110.985 42.8657H118.149L113.014 13.2537H102.507L97.3726 42.7463H104.537L105.373 36.5373H110.149V36.6567Z" fill="black"/>
<path d="M126.746 42.7463V31.7612H127.94C129.134 31.7612 129.85 32 130.208 32.4776C130.567 32.9552 130.686 33.6716 130.686 34.5075V42.7463H137.85V35.9403C137.85 34.1493 137.492 32.597 136.656 31.403C135.82 30.209 134.626 29.4925 133.074 29.1343V29.0149C134.626 28.7761 135.701 28.1791 136.417 27.2239C137.014 26.5075 137.373 25.5522 137.492 24.597C137.611 23.5224 137.611 22.5672 137.611 21.6119C137.611 20.2985 137.492 19.1045 137.373 17.9105C137.253 16.7164 136.656 15.6418 135.582 14.9254C134.626 14.209 133.432 13.7313 131.999 13.6119C130.686 13.4925 129.373 13.3731 128.179 13.3731H119.343V42.7463H126.746ZM126.746 18.5075H128.417C129.373 18.5075 129.97 18.7463 130.328 19.1045C130.686 19.4627 130.805 20.1791 130.805 21.0149C130.805 21.4925 130.805 21.8507 130.805 22.209C130.805 22.5672 130.805 22.9254 130.805 23.2836C130.805 24 130.686 24.597 130.567 25.0746C130.447 25.5522 130.089 25.9105 129.731 26.1493C129.373 26.3881 128.895 26.5075 128.059 26.5075H126.746V18.5075Z" fill="black"/>
<path d="M144.179 18.9851V42.7463H151.223V18.9851H155.999V13.2537H139.283V18.9851H144.179Z" fill="black"/>
<path d="M67.522 24L65.134 13.2537H57.8504L62.2683 27.3433L57.4922 42.8657H64.8952L67.2832 31.2836H67.4026L69.9101 42.8657H77.3131L72.537 27.4627L76.9549 13.3731H69.6713L67.522 24Z" fill="#F29221"/>
<path d="M10.201 4.86568H44.0677C47.4067 4.86568 50.2687 7.60841 50.2687 11.0666V44.9334C50.2687 48.2724 47.5259 51.1343 44.0677 51.1343H10.201C6.86198 51.1343 4 48.3916 4 44.9334V11.0666C4.11925 7.60841 6.86198 4.86568 10.201 4.86568Z" fill="#F29221"/>
<path d="M40.299 27.9104C39.5826 28.6269 38.2691 29.9403 37.0751 31.1343C38.1497 32.209 39.5826 33.6418 40.1796 34.2388C40.4184 34.4776 40.6572 34.9552 40.6572 35.3134C40.6572 36.9851 40.6572 39.2537 40.6572 40.9254C40.6572 41.5224 40.5378 41.6418 39.9408 41.6418C37.7915 41.6418 37.7915 41.6418 37.3139 41.6418C37.3139 40.5672 37.3139 39.0149 37.3139 37.3433C37.3139 36.7463 37.1945 36.5075 36.8363 36.1493C36.2393 35.5522 34.5676 33.8806 33.9706 33.2836C33.6124 32.9254 33.1348 32.806 32.7766 32.806C30.6273 32.806 24.896 32.806 23.3437 32.806C22.8661 32.806 22.3885 32.9254 22.1497 33.2836C21.5527 33.8806 19.8811 35.5522 19.284 36.1493C18.9258 36.5075 18.8064 36.7463 18.8064 37.3433C18.8064 38.6567 18.8064 39.6119 18.8064 40.806C18.8064 41.403 18.687 41.6418 17.9706 41.6418C17.6124 41.6418 17.493 41.6418 15.3438 41.6418C15.3438 40.3284 15.3438 37.3433 15.3438 35.3134C15.3438 34.9552 15.5826 34.4776 15.8214 34.2388C16.5378 33.5224 17.8512 32.209 19.0452 31.0149C17.9706 29.9403 16.5378 28.5075 15.9408 27.9104C15.702 27.6716 15.4632 27.194 15.4632 26.8358C15.4632 24.806 15.4632 16.806 15.4632 15.4925C18.5676 15.4925 18.3288 15.4925 18.9258 15.4925C18.9258 16.5672 18.9258 23.1343 18.9258 24.806C18.9258 25.403 19.0452 25.6418 19.4035 26C20.0005 26.597 21.6721 28.2687 22.2691 28.8657C22.6273 29.2239 23.1049 29.3433 23.4632 29.3433C25.493 29.3433 31.3438 29.3433 32.896 29.3433C33.3736 29.3433 33.8512 29.2239 34.09 28.8657C34.687 28.2687 36.3587 26.597 36.9557 26C37.3139 25.6418 37.4333 25.403 37.4333 24.806C37.4333 23.2537 37.4333 16.5672 37.4333 15.4925C37.9109 15.4925 37.7915 15.4925 40.896 15.4925C40.896 16.806 40.896 24.806 40.896 26.8358C40.7766 27.3134 40.5378 27.6716 40.299 27.9104Z" fill="white"/>
<path d="M22.3885 22.0597H24.896V24.5672H22.3885V22.0597Z" fill="white"/>
<path d="M31.702 22.0597H34.2094V24.5672H31.702V22.0597Z" fill="white"/>
<path d="M22.3885 17.403H24.896V19.9104H22.3885V17.403Z" fill="white"/>
<path d="M31.702 17.403H34.2094V19.9104H31.702V17.403Z" fill="white"/>
<path d="M27.0452 22.0597H29.5527V24.5672H27.0452V22.0597Z" fill="white"/>
<path d="M27.0452 17.403H29.5527V19.9104H27.0452V17.403Z" fill="white"/>
<path d="M18.9249 44.1493C17.8503 44.1493 16.8951 43.3134 16.6562 42.3582H18.5667C19.0443 42.3582 19.5219 41.8806 19.5219 41.403V39.4925C20.5965 39.7313 21.313 40.6866 21.313 41.7612C21.313 43.0746 20.2383 44.1493 18.9249 44.1493Z" fill="#B14C26"/>
<path d="M40.8951 44.1493C39.8204 44.1493 38.8652 43.4328 38.6264 42.3582H40.5368C41.0145 42.3582 41.4921 41.8806 41.4921 41.403V39.4925C42.5667 39.7313 43.2831 40.6866 43.2831 41.7612C43.2831 43.0746 42.2085 44.1493 40.8951 44.1493Z" fill="#B14C26"/>
</svg>
