<svg width="160" height="48" viewBox="0 0 160 48" fill="none" xmlns="http://www.w3.org/2000/svg">
<path fill-rule="evenodd" clip-rule="evenodd" d="M138.04 24.4089C138.298 23.7705 138.57 23.1247 138.858 22.4715C139.194 21.7063 139.526 20.987 139.852 20.3137C139.975 19.9464 140.113 19.6199 140.266 19.3342C140.419 19.0486 140.577 18.7323 140.74 18.3854C140.781 18.3446 140.924 18.3038 141.169 18.263C141.413 18.2222 141.714 18.1864 142.071 18.1558C142.429 18.1252 142.811 18.115 143.219 18.1252C143.627 18.1354 144.015 18.1711 144.382 18.2324C144.75 18.2936 145.071 18.3803 145.346 18.4925C145.622 18.6047 145.8 18.7527 145.882 18.9363C145.719 19.2424 145.464 19.7015 145.117 20.3137C144.77 20.9258 144.413 21.5992 144.046 22.3337C143.678 23.0683 143.337 23.8284 143.02 24.614C142.704 25.3996 142.505 26.1086 142.423 26.7412C142.281 27.639 142.265 28.2613 142.377 28.6082C142.49 28.9551 142.678 29.1081 142.944 29.0673C143.209 29.0265 143.525 28.8225 143.893 28.4552C144.26 28.0879 144.627 27.639 144.994 27.1085C145.668 25.7413 146.229 24.6038 146.678 23.6958C147.127 22.7877 147.514 22.0175 147.841 21.3849C148.167 20.7524 148.438 20.2269 148.652 19.8086C148.866 19.3903 149.086 18.9873 149.31 18.5996C149.616 18.4976 149.989 18.416 150.427 18.3548C150.866 18.2936 151.31 18.2783 151.759 18.3089C152.208 18.3395 152.631 18.4109 153.029 18.5231C153.427 18.6354 153.717 18.8139 153.901 19.0588L153.197 20.6809C152.911 21.3543 152.6 22.0889 152.264 22.8847C151.927 23.6805 151.58 24.4864 151.223 25.3026C150.866 26.1188 150.524 26.9197 150.198 27.7053C149.871 28.4909 149.575 29.2102 149.31 29.8631C149.514 29.6999 149.723 29.4958 149.937 29.251C150.152 29.0061 150.402 28.6694 150.687 28.2409C150.973 27.8124 151.33 27.2615 151.759 26.5881C152.187 25.9148 152.718 25.0578 153.35 24.0171C153.677 23.4662 154.029 23.1397 154.406 23.0377C154.784 22.9357 155.11 22.9612 155.386 23.1142C155.661 23.2673 155.85 23.5019 155.952 23.8182C156.054 24.1345 155.993 24.4456 155.768 24.7517C155.319 25.5679 154.809 26.4504 154.238 27.3992C153.666 28.3481 153.049 29.2408 152.386 30.0774C151.723 30.914 151.029 31.6383 150.305 32.2505C149.58 32.8626 148.851 33.2401 148.116 33.383C147.933 34.1379 147.673 34.9439 147.336 35.8009C146.999 36.6579 146.627 37.5047 146.219 38.3413C145.811 39.1779 145.387 39.9839 144.949 40.7593C144.51 41.5347 144.097 42.2183 143.709 42.81C143.423 43.2589 143.046 43.5854 142.576 43.7894C142.107 43.9935 141.633 44.0853 141.153 44.0649C140.674 44.0445 140.22 43.917 139.791 43.6823C139.363 43.4477 139.046 43.0957 138.842 42.6264C138.659 42.0958 138.613 41.5602 138.705 41.0195C138.796 40.4787 138.985 39.938 139.271 39.3973C139.557 38.8566 139.909 38.3158 140.327 37.7751C140.745 37.2344 141.179 36.6988 141.628 36.1682C141.954 35.7805 142.265 35.4081 142.561 35.0511C142.857 34.694 143.132 34.3318 143.388 33.9645C143.643 33.5972 143.872 33.2095 144.076 32.8014C144.28 32.3933 144.443 31.9546 144.566 31.4853C144.219 31.8118 143.862 32.1077 143.495 32.3729C143.127 32.6382 142.74 32.8575 142.332 33.031C141.923 33.2044 141.49 33.3115 141.031 33.3524C140.572 33.3932 140.087 33.3422 139.577 33.1993C138.495 32.9136 137.73 32.378 137.281 31.5924C137.154 31.3702 137.049 31.1345 136.967 30.8853C136.652 31.3177 136.303 31.7116 135.919 32.0668C135.501 32.4545 135.037 32.7759 134.527 33.031C134.017 33.286 133.445 33.4136 132.813 33.4136C131.752 33.2707 130.961 32.8626 130.441 32.1893C130.063 31.7005 129.782 31.1499 129.598 30.5375C129.445 30.7273 129.293 30.9106 129.14 31.0874C128.487 31.8424 127.819 32.4341 127.135 32.8626C126.452 33.2911 125.753 33.5054 125.038 33.5054C124.692 33.5054 124.232 33.3779 123.661 33.1228C123.09 32.8677 122.473 32.5362 121.809 32.1281C121.146 31.72 120.493 31.2609 119.851 30.7507C119.208 30.2406 118.652 29.7305 118.182 29.2204C117.958 29.8733 117.785 30.6589 117.662 31.5771C117.54 32.4954 117.621 33.6686 117.907 35.097C117.111 34.9337 116.443 34.7246 115.902 34.4695C115.361 34.2145 114.913 33.9492 114.555 33.6737C114.198 33.3983 113.923 33.133 113.729 32.8779C113.535 32.6229 113.408 32.4137 113.346 32.2505C113.214 31.874 113.121 31.4657 113.068 31.0258C112.799 31.3232 112.525 31.609 112.245 31.8832C111.735 32.3525 111.092 32.7249 110.316 33.0004C109.541 33.2758 108.704 33.4136 107.807 33.4136C107.194 33.4136 106.592 33.3268 106.001 33.1534C105.409 32.98 104.858 32.7351 104.348 32.4188C103.838 32.1026 103.389 31.72 103.001 31.2711C102.784 31.0193 102.598 30.7483 102.445 30.4581C102.326 30.5892 102.205 30.7173 102.083 30.8426C101.328 31.6179 100.507 32.2403 99.6191 32.7096C98.7315 33.1789 97.747 33.4136 96.6655 33.4136C96.1758 33.4136 95.6555 33.3473 95.1046 33.2146C94.5536 33.082 94.0333 32.8881 93.5436 32.6331C93.0539 32.378 92.6152 32.0566 92.2275 31.669C91.9403 31.3818 91.7148 31.0611 91.5508 30.7069C91.3407 30.9712 91.1276 31.2205 90.9114 31.4547C90.1768 32.2505 89.3861 32.8422 88.5393 33.2299C87.6925 33.6176 86.7284 33.7196 85.6469 33.536C85.198 33.4544 84.8256 33.3268 84.5297 33.1534C84.2339 32.98 83.9941 32.7861 83.8105 32.5719C83.6268 32.3576 83.4891 32.123 83.3973 31.8679C83.3054 31.6128 83.2493 31.3527 83.2289 31.0874C83.1881 30.5773 83.2238 30.0213 83.3361 29.4193C83.4483 28.8174 83.5962 28.2103 83.7799 27.5982C83.9635 26.986 84.1675 26.3892 84.392 25.8077C84.6165 25.2261 84.8205 24.7007 85.0041 24.2314C85.1674 23.7621 85.2898 23.3897 85.3714 23.1142C85.4531 22.8388 85.4633 22.65 85.402 22.548C85.3408 22.446 85.1929 22.4205 84.9582 22.4715C84.7236 22.5225 84.3818 22.6398 83.9329 22.8234C83.4228 23.0479 82.9637 23.3948 82.5556 23.8641C82.1475 24.3334 81.7904 24.8894 81.4843 25.5322C81.1782 26.1749 80.9181 26.8585 80.7038 27.5829C80.4896 28.3073 80.3263 29.0316 80.2141 29.756C80.1019 30.4804 80.0356 31.1741 80.0152 31.8373C79.9948 32.5005 80.0152 33.0667 80.0764 33.536C79.2398 33.2911 78.5511 33.0871 78.0104 32.9239C77.4697 32.7606 77.031 32.5923 76.6943 32.4188C76.3576 32.2454 76.1127 32.0566 75.9597 31.8526C75.8067 31.6485 75.6893 31.3833 75.6077 31.0568C75.6443 30.5818 75.7074 30.0751 75.7971 29.5368C75.515 29.8564 75.2172 30.1693 74.9038 30.4753C74.0467 31.3119 73.1081 32.0464 72.0879 32.679C71.0676 33.3115 69.9862 33.8115 68.8435 34.1788C67.7008 34.546 66.548 34.7297 65.3849 34.7297C64.1606 34.7297 62.9261 34.5052 61.6814 34.0563C60.4367 33.6074 59.3196 32.9545 58.3299 32.0975C57.3403 31.2404 56.5394 30.1947 55.9272 28.9602C55.3151 27.7257 55.0294 26.3127 55.0702 24.7211C55.111 23.7621 55.3202 22.7673 55.6977 21.7369C56.0752 20.7064 56.5853 19.6862 57.228 18.6762C57.8708 17.6661 58.6258 16.6765 59.493 15.7073C60.3602 14.738 61.2886 13.83 62.2782 12.9832C63.2679 12.1364 64.3034 11.3712 65.3849 10.6877C66.4663 10.0041 67.558 9.42767 68.6599 8.95835C69.8638 8.48904 71.0625 8.17277 72.2562 8.00953C73.4499 7.84629 74.5161 7.9075 75.4547 8.19317C76.3933 8.47884 77.1483 9.04507 77.7196 9.89187C78.291 10.7387 78.5664 11.9375 78.546 13.4882C78.5256 14.5085 78.245 15.4879 77.7043 16.4265C77.1636 17.3652 76.5004 18.1966 75.7148 18.921C74.9292 19.6454 74.0825 20.2218 73.1744 20.6503C72.2664 21.0788 71.4451 21.2931 70.7106 21.2931C70.3841 21.2931 70.0015 21.1911 69.5628 20.987C69.1241 20.783 68.6803 20.5075 68.2314 20.1606C69.272 19.5485 70.1902 18.8037 70.986 17.9263C71.7818 17.0489 72.3633 16.2021 72.7306 15.3859C73.1999 14.1208 73.3173 13.2587 73.0826 12.7996C72.848 12.3405 72.4093 12.1466 71.7665 12.218C71.1238 12.2894 70.3484 12.57 69.4404 13.0597C68.5323 13.5494 67.6498 14.1157 66.7928 14.7584C65.9358 15.4012 65.1706 16.0643 64.4973 16.7479C63.8239 17.4315 63.3954 17.9977 63.2118 18.4466C62.5996 19.2016 62.0946 20.0229 61.6967 20.9105C61.2988 21.7981 61.0285 22.6857 60.8856 23.5733C60.7428 24.4609 60.7326 25.323 60.855 26.1596C60.9774 26.9962 61.2631 27.741 61.712 28.394C62.1609 29.0469 62.7833 29.5724 63.5791 29.9703C64.3748 30.3681 65.3645 30.5875 66.548 30.6283C67.4254 30.6691 68.3844 30.4294 69.425 29.909C70.4657 29.3887 71.5369 28.7154 72.6388 27.889C73.7407 27.0626 74.8425 26.1341 75.9444 25.1037C76.3987 24.6788 76.8426 24.2583 77.2761 23.8421C77.3555 23.596 77.437 23.3482 77.5207 23.0989C78.0206 21.6094 78.5715 20.1198 79.1735 18.6303C79.7754 17.1407 80.3876 15.7532 81.0099 14.4677C81.6323 13.1822 82.2393 12.0548 82.831 11.0856C83.4228 10.1163 83.9431 9.41746 84.392 8.98896C84.5961 8.80531 84.9837 8.70329 85.5551 8.68289C86.1264 8.66248 86.6927 8.70839 87.2538 8.82062C87.8149 8.93285 88.2944 9.09608 88.6923 9.31034C89.0902 9.52459 89.2178 9.76434 89.0749 10.0296C88.8709 10.3969 88.6005 10.856 88.2638 11.4069C87.9271 11.9579 87.5701 12.5547 87.1926 13.1975C86.8151 13.8402 86.4223 14.5034 86.0142 15.1869C85.6061 15.8705 85.2286 16.5286 84.8817 17.1611C84.5348 17.7937 84.2288 18.3701 83.9635 18.8904C83.6982 19.4107 83.5146 19.8341 83.4126 20.1606C84.4532 19.0996 85.4582 18.4211 86.4274 18.1252C87.3966 17.8294 88.1975 17.8906 88.8301 18.3089C89.4626 18.7272 89.8656 19.4822 90.0391 20.5738C90.2125 21.6655 90.0339 23.0479 89.5034 24.7211C89.1973 25.6597 88.9831 26.3637 88.8607 26.833C88.7382 27.3023 88.6464 27.6798 88.5852 27.9655C88.5036 28.394 88.4934 28.6694 88.5546 28.7919C88.6158 28.9143 88.728 28.9296 88.8913 28.8378C89.0545 28.746 89.2535 28.5776 89.4881 28.3328C89.7228 28.0879 89.9625 27.792 90.2074 27.4451C90.4522 27.1391 90.6971 26.8177 90.942 26.481C91.119 26.2377 91.2879 26.005 91.4489 25.7829C91.4583 25.7554 91.4679 25.728 91.4776 25.7005C91.651 25.2108 91.85 24.7415 92.0744 24.2926C92.5029 23.456 93.0131 22.6755 93.6048 21.9511C94.1965 21.2268 94.8393 20.5942 95.5331 20.0535C96.2268 19.5128 96.941 19.0843 97.6756 18.768C98.4101 18.4517 99.1243 18.2936 99.8181 18.2936C101.042 18.2936 101.925 18.5027 102.466 18.921C103.006 19.3393 103.282 19.8749 103.292 20.5279C103.302 21.1809 103.093 21.9052 102.665 22.701C102.236 23.4968 101.685 24.2824 101.012 25.0578C100.338 25.8332 99.5732 26.5422 98.7162 27.185C97.8592 27.8277 97.0124 28.3226 96.1758 28.6694C96.1962 29.2204 96.2982 29.6285 96.4819 29.8937C96.6655 30.159 96.9053 30.3222 97.2012 30.3834C97.497 30.4447 97.8337 30.4192 98.2112 30.3069C98.5887 30.1947 98.9611 30.0162 99.3284 29.7713C99.6956 29.5673 100.078 29.2459 100.476 28.8072C100.874 28.3685 101.277 27.889 101.685 27.3686C101.742 27.2966 101.798 27.2241 101.854 27.1513C101.946 26.2648 102.175 25.3986 102.542 24.5528C102.909 23.706 103.394 22.9051 103.996 22.1501C104.598 21.3951 105.266 20.732 106.001 20.1606C106.735 19.5893 107.516 19.1353 108.342 18.7986C109.169 18.4619 109.99 18.2936 110.806 18.2936C111.173 18.2936 111.556 18.3395 111.954 18.4313C112.352 18.5231 112.724 18.666 113.071 18.8598C113.418 19.0537 113.709 19.2985 113.943 19.5944C114.178 19.8903 114.316 20.2422 114.357 20.6503C114.377 21.0584 114.316 21.5022 114.173 21.9817C114.03 22.4613 113.852 22.9255 113.637 23.3744C113.423 23.8233 113.204 24.2314 112.979 24.5987C112.755 24.966 112.581 25.2516 112.459 25.4557C112.275 25.6393 111.99 25.8281 111.602 26.0219C111.214 26.2158 110.755 26.3127 110.225 26.3127C109.898 26.3127 109.561 26.2464 109.215 26.1137C108.868 25.9811 108.577 25.7873 108.342 25.5322C108.108 25.2771 107.965 24.966 107.914 24.5987C107.863 24.2314 107.99 23.8233 108.296 23.3744C108.643 22.9255 109.021 22.6347 109.429 22.5021C109.837 22.3694 110.235 22.2521 110.622 22.1501C110.622 22.0685 110.653 21.9664 110.714 21.844C110.775 21.7216 110.821 21.589 110.852 21.4461C110.883 21.3033 110.888 21.1758 110.867 21.0635C110.847 20.9513 110.765 20.8646 110.622 20.8034H110.653C110.306 20.6197 109.918 20.6656 109.49 20.9411C109.061 21.2166 108.648 21.6298 108.25 22.1807C107.852 22.7316 107.495 23.3795 107.179 24.1243C106.863 24.869 106.649 25.6189 106.536 26.3739C106.424 27.1289 106.445 27.843 106.598 28.5164C106.751 29.1898 107.103 29.7407 107.654 30.1692H107.623C108.153 30.4957 108.592 30.6334 108.939 30.5824C109.286 30.5314 109.704 30.363 110.194 30.0774C110.52 29.8733 110.867 29.5673 111.235 29.1592C111.602 28.7511 111.984 28.2869 112.382 27.7665C112.78 27.2462 113.183 26.68 113.591 26.0678C113.601 26.0536 113.61 26.0393 113.62 26.025C113.893 24.9908 114.241 23.9236 114.663 22.8234C115.132 21.5992 115.642 20.3902 116.193 19.1965C116.744 18.0028 117.315 16.855 117.907 15.7532C118.499 14.6513 119.06 13.6464 119.59 12.7384C120.121 11.8303 120.595 11.0448 121.014 10.3816C121.432 9.71843 121.753 9.24402 121.978 8.95835C122.223 8.7543 122.544 8.62677 122.942 8.57576C123.34 8.52475 123.748 8.53495 124.166 8.60637C124.584 8.67779 124.972 8.81042 125.329 9.00426C125.686 9.19811 125.946 9.41746 126.11 9.66232C126.028 9.96839 125.86 10.4122 125.605 10.9937C125.35 11.5753 125.038 12.2231 124.671 12.9373C124.304 13.6515 123.916 14.3911 123.508 15.1563C123.1 15.9215 122.717 16.6408 122.36 17.3141C122.003 17.9875 121.697 18.569 121.442 19.0588C121.187 19.5485 121.029 19.8749 120.968 20.0382C121.559 19.5893 122.197 19.2016 122.881 18.8751C123.564 18.5486 124.283 18.3854 125.038 18.3854C126.059 18.3854 126.89 18.6456 127.533 19.1659C128.176 19.6862 128.548 20.4259 128.65 21.3849C128.711 22.2419 128.543 23.0734 128.145 23.8794C127.747 24.6854 127.186 25.4098 126.462 26.0525C125.737 26.6953 124.891 27.2207 123.921 27.6288C122.952 28.0369 121.917 28.2817 120.815 28.3634L122.651 29.5111C123.222 29.8682 123.835 29.9958 124.488 29.8937C125.222 29.7917 125.88 29.5622 126.462 29.2051C127.043 28.848 127.579 28.4144 128.069 27.9043C128.558 27.3941 129.012 26.8279 129.431 26.2056C129.479 26.1333 129.528 26.061 129.576 25.9887C129.704 25.3428 129.865 24.7366 130.058 24.1702C130.731 22.497 131.384 20.9105 132.017 19.4107C132.649 17.911 133.262 16.5388 133.853 15.2941C134.445 14.0494 134.996 12.9424 135.506 11.9732C136.016 11.0039 136.486 10.1928 136.914 9.53989C137.037 9.39706 137.363 9.27973 137.894 9.18791C138.424 9.09608 138.99 9.05017 139.592 9.05017C140.194 9.05017 140.75 9.09608 141.26 9.18791C141.77 9.27973 142.066 9.43786 142.148 9.66232C142.087 9.90718 141.964 10.2337 141.781 10.6418C141.597 11.0499 141.373 11.5192 141.107 12.0497C140.842 12.5802 140.546 13.1566 140.22 13.779C139.893 14.4014 139.546 15.0492 139.179 15.7226C137.383 19.1506 135.761 22.752 134.312 26.5269C134.149 26.8942 134.027 27.2972 133.945 27.7359C133.864 28.1746 133.853 28.5266 133.915 28.7919C133.976 29.0571 134.119 29.1796 134.343 29.1592C134.568 29.1388 134.914 28.8531 135.384 28.3022C135.629 27.9961 135.899 27.6441 136.195 27.2462C136.491 26.8483 136.771 26.4402 137.037 26.0219C137.302 25.6036 137.552 25.2057 137.786 24.8282C137.88 24.6779 137.964 24.5382 138.04 24.4089ZM96.0228 25.7005C96.3084 25.5373 96.6349 25.3281 97.0022 25.0731C97.3695 24.818 97.7572 24.4864 98.1653 24.0783C98.5734 23.7111 98.9101 23.2928 99.1753 22.8234C99.4406 22.3541 99.614 21.9562 99.6956 21.6298C99.7773 21.3033 99.7416 21.1043 99.5885 21.0329C99.4355 20.9615 99.1549 21.1298 98.7468 21.5379C98.4816 21.8032 98.2112 22.1246 97.9357 22.5021C97.6603 22.8796 97.4001 23.2571 97.1552 23.6345C96.9104 24.012 96.6859 24.3691 96.4819 24.7058C96.2778 25.0425 96.1248 25.3026 96.0228 25.4863V25.7005ZM122.437 22.4868C122.192 22.7112 121.927 22.9918 121.641 23.3285C121.355 23.6652 121.07 24.0324 120.784 24.4303C120.498 24.8282 120.223 25.2465 119.958 25.6852C119.692 26.1239 119.458 26.5575 119.254 26.986C120.111 26.8636 120.83 26.6596 121.412 26.3739C121.993 26.0882 122.462 25.7566 122.819 25.3792C123.177 25.0017 123.426 24.614 123.569 24.2161C123.712 23.8182 123.773 23.456 123.753 23.1295C123.692 22.4766 123.559 22.1093 123.355 22.0277C123.151 21.946 122.845 22.0991 122.437 22.4868Z" fill="#45C8F1"/>
<path fill-rule="evenodd" clip-rule="evenodd" d="M40.6802 11.5819C40.5686 11.3527 40.4059 11.1433 40.1632 11.0096C39.8962 10.8634 39.6044 10.8386 39.331 10.8873L39.3116 10.8769C35.2028 11.587 31.057 14.7177 28.5562 19.5164C25.862 24.6873 25.8231 30.3651 28.0178 34.2506C32.4267 33.8918 37.0299 30.6554 39.7241 25.4845C42.2351 20.6703 42.4368 15.4206 40.6802 11.5819Z" fill="#828D8C"/>
<path d="M40.205 11.8047C40.1312 11.6544 40.0341 11.5425 39.9133 11.4761C39.774 11.3984 39.5938 11.3776 39.4229 11.4098C39.382 11.416 39.341 11.4212 39.3041 11.417C38.1316 11.6311 36.9687 12.0508 35.8523 12.6463C36.8212 12.9198 37.8021 13.313 38.7576 13.8346C39.6603 14.3276 40.4833 14.9019 41.2101 15.5284C41.0607 14.2044 40.7269 12.9454 40.205 11.8047Z" fill="#121716"/>
<path d="M39.9133 11.4761C40.0341 11.5425 40.1312 11.6544 40.205 11.8047C40.7269 12.9454 41.0607 14.2044 41.2101 15.5284C41.4048 15.6963 41.5926 15.8678 41.7732 16.0426C41.6525 14.4379 41.2941 12.9212 40.681 11.5819C40.5693 11.3527 40.4066 11.1433 40.164 11.0096C39.8969 10.8634 39.6051 10.8386 39.3318 10.8873L39.3124 10.8769C37.8957 11.1226 36.479 11.6742 35.1215 12.4619C35.364 12.5159 35.6078 12.5773 35.8523 12.6463C36.9687 12.0508 38.1316 11.6311 39.3041 11.417C39.341 11.4212 39.382 11.416 39.4229 11.4098C39.5938 11.3776 39.774 11.3984 39.9133 11.4761Z" fill="#121716"/>
<path fill-rule="evenodd" clip-rule="evenodd" d="M28.0185 34.7814C27.8313 34.7814 27.6572 34.6798 27.564 34.5139C26.1249 31.9664 25.6305 28.8221 26.0636 25.5857C26.2374 24.2868 26.5605 22.9731 27.032 21.6772C27.3276 20.8647 27.6814 20.0592 28.0933 19.2688C30.6002 14.4576 34.7612 11.1247 39.2243 10.3535C39.2664 10.3451 39.3103 10.3441 39.3534 10.3483C39.7228 10.3036 40.0945 10.3689 40.4128 10.5431C40.728 10.7162 40.9758 10.9868 41.1508 11.3475C43.0384 15.4714 42.6679 20.9792 40.1886 25.7324C37.4832 30.9239 32.8358 34.3915 28.0606 34.7793L28.0578 34.7795C28.0445 34.7804 28.0319 34.7814 28.0185 34.7814ZM40.681 11.5819C41.2941 12.9212 41.6525 14.4379 41.7732 16.0426C41.5926 15.8678 41.4048 15.6963 41.2101 15.5284C41.3664 16.9136 41.3209 18.3699 41.0779 19.836C40.8197 21.3931 40.3388 22.9613 39.6401 24.4673C39.5202 24.7257 39.3939 24.9824 39.2612 25.2368C38.7764 26.1676 38.219 27.0431 37.6037 27.8523C36.5702 26.1177 35.1185 24.5843 33.2494 23.432C31.6316 22.432 29.9085 21.8471 28.1812 21.6188C28.4243 20.9915 28.7042 20.3716 29.0207 19.7642C29.2141 19.3929 29.4191 19.0303 29.6347 18.6771C29.5012 18.6808 29.3685 18.6873 29.2367 18.6965C30.1959 17.3239 31.239 16.0924 32.3322 15.0039C32.4097 15.0148 32.4873 15.0264 32.5648 15.0387C33.5829 14.0736 34.6925 13.2651 35.8523 12.6463C35.6078 12.5773 35.364 12.5159 35.1215 12.4619C36.479 11.6742 37.8957 11.1226 39.3124 10.8769L39.3318 10.8873C39.6051 10.8386 39.8969 10.8634 40.164 11.0096C40.4066 11.1433 40.5693 11.3527 40.681 11.5819ZM28.3113 33.6887C27.1294 31.4203 26.7415 28.5926 27.129 25.6916C28.457 25.8946 29.7889 26.3659 31.024 27.1307C32.6671 28.142 33.483 29.6331 34.2367 31.2041C32.393 32.5723 30.3495 33.4518 28.3113 33.6887Z" fill="#121716"/>
<path d="M32.3322 15.0039C31.239 16.0924 30.1959 17.3239 29.2367 18.6965C29.3685 18.6873 29.5012 18.6808 29.6347 18.6771C30.4696 17.3093 31.4637 16.0825 32.5648 15.0387C32.4873 15.0264 32.4097 15.0148 32.3322 15.0039Z" fill="#121716"/>
<path d="M29.6347 18.6771C31.5518 18.6231 33.6301 19.1304 35.5249 20.2555C37.3371 21.3294 38.7439 22.8323 39.6401 24.4673C40.3388 22.9613 40.8197 21.3931 41.0779 19.836C40.1015 18.6917 38.903 17.6717 37.5005 16.8388C35.9043 15.8899 34.2279 15.3025 32.5648 15.0387C31.4637 16.0825 30.4696 17.3093 29.6347 18.6771Z" fill="#121716"/>
<path fill-rule="evenodd" clip-rule="evenodd" d="M28.0176 6.67216C26.303 8.40751 25.8433 10.7577 26.9919 11.9197C28.1394 13.0818 30.46 12.6174 32.1736 10.881C33.8871 9.14568 34.3467 6.79553 33.1992 5.63346C32.0518 4.4714 29.7311 4.9368 28.0176 6.67216Z" fill="#828D8C"/>
<path fill-rule="evenodd" clip-rule="evenodd" d="M12.2872 30.306C14.005 32.0456 14.3858 34.4838 13.1349 35.7496C11.8839 37.0164 9.47632 36.6338 7.75865 34.8933C6.04099 33.1517 5.66021 30.7155 6.91318 29.4487C8.16204 28.1809 10.5697 28.5655 12.2872 30.306Z" fill="#828D8C"/>
<path fill-rule="evenodd" clip-rule="evenodd" d="M27.9879 30.306C26.2702 32.0456 25.8895 34.4838 27.1404 35.7496C28.3913 37.0164 30.7988 36.6338 32.5166 34.8933C34.2342 33.1517 34.615 30.7155 33.362 29.4487C32.1132 28.1809 29.7056 28.5655 27.9879 30.306Z" fill="#828D8C"/>
<path fill-rule="evenodd" clip-rule="evenodd" d="M20.1376 4.46307C24.8463 4.46307 29.0084 7.2133 31.7108 10.9879C34.9989 15.5781 36.9039 22.0853 34.9477 27.5899C33.2914 32.2529 29.3145 35.7962 24.6385 37.1459C23.1767 37.5689 21.6576 37.7793 20.1376 37.7793C18.6175 37.7793 17.0984 37.5689 15.6366 37.1459C10.9606 35.7962 6.98386 32.2529 5.32751 27.5899C3.39948 22.1642 5.22254 15.7644 8.42376 11.1864C10.0958 12.6683 12.2063 13.0104 13.2833 11.9197C14.3634 10.8269 14.0213 8.68324 12.5506 6.98838C14.763 5.42358 17.3549 4.46307 20.1376 4.46307ZM12.5506 6.98838C12.4574 6.88105 12.3598 6.77551 12.2576 6.67216C10.544 4.9368 8.22346 4.4714 7.07588 5.63346C5.92841 6.79553 6.38808 9.14568 8.10164 10.881C8.20686 10.9877 8.31437 11.0895 8.42376 11.1864C8.47031 11.1199 8.51715 11.0537 8.56428 10.9879C9.66965 9.44396 11.0192 8.07143 12.5506 6.98838Z" fill="#828D8C"/>
<path d="M8.42376 11.1864C10.0958 12.6683 12.2063 13.0104 13.2833 11.9197C14.3634 10.8269 14.0213 8.68324 12.5506 6.98838C11.0192 8.07143 9.66965 9.44396 8.56428 10.9879C8.51715 11.0537 8.47031 11.1199 8.42376 11.1864Z" fill="#828D8C"/>
<path fill-rule="evenodd" clip-rule="evenodd" d="M32.8274 13.0767C32.6402 12.323 32.1642 11.6078 31.7209 10.9879C31.1559 10.1979 30.5233 9.45765 29.8385 8.77348C27.395 7.58551 24.6025 7.5876 22.4734 9.04197C21.3637 9.80084 20.5858 10.8603 20.1374 12.068C19.6891 10.8603 18.9111 9.80084 17.8015 9.04197C15.6722 7.5876 12.8797 7.58551 10.4364 8.77348C9.75153 9.45765 9.11888 10.1979 8.55394 10.9879C8.11059 11.6078 7.63459 12.323 7.44734 13.0767C7.25176 13.8615 6.97032 14.9147 7.00719 15.7088C7.06759 17.0004 7.85678 17.9522 8.89886 18.6353C9.1537 18.8032 11.8798 20.916 11.6258 21.0663C11.8183 20.9522 12.061 20.8133 12.3311 20.6692V20.9108C13.32 20.3271 14.7571 19.6118 15.7194 19.7237L15.7316 19.7258C15.7594 19.7289 15.7818 19.7414 15.8084 19.7466C16.0736 19.817 16.3059 19.9477 16.484 20.1675C16.8955 20.6744 16.9324 21.2601 16.7891 21.8292C16.8955 21.7505 16.9907 21.6509 17.0942 21.567C17.0829 21.9588 16.9948 22.2563 16.9948 22.2563L16.8157 22.5113C17.871 22.7135 18.9797 22.8244 20.1272 22.8244H20.1436C21.2951 22.8244 22.4037 22.7135 23.4591 22.5113L23.28 22.2563C23.28 22.2563 23.192 21.9588 23.1807 21.567C23.284 21.6509 23.3792 21.7505 23.4858 21.8292C23.3425 21.2601 23.3792 20.6744 23.7908 20.1675C23.9688 19.9477 24.2013 19.817 24.4664 19.7466C24.493 19.7414 24.5156 19.7289 24.5432 19.7258L24.5555 19.7237C25.5176 19.6118 26.9549 20.3271 27.9438 20.9108V20.6692C28.2139 20.8133 28.4565 20.9522 28.649 21.0663C28.3951 20.916 31.121 18.8032 31.3759 18.6353C32.418 17.9522 33.2073 17.0004 33.2677 15.7088C33.3045 14.9147 33.023 13.8615 32.8274 13.0767Z" fill="#EDEDEA"/>
<path fill-rule="evenodd" clip-rule="evenodd" d="M20.1374 24.9879C17.0288 24.9879 14.3824 27.4483 13.3814 30.8921L13.3231 36.7676C13.4173 36.7962 13.5114 36.8252 13.6055 36.8543C13.9445 36.9591 14.2837 37.0639 14.6323 37.1459C16.4205 37.5689 18.2785 37.7793 20.1374 37.7793C21.9963 37.7793 23.8543 37.5689 25.6427 37.1459C25.9911 37.0639 26.3302 36.9591 26.6692 36.8544C26.7633 36.8253 26.8575 36.7962 26.9518 36.7676L26.8935 30.8921C25.8925 27.4483 23.2461 24.9879 20.1374 24.9879Z" fill="#EDEDEA"/>
<path fill-rule="evenodd" clip-rule="evenodd" d="M11.7087 32.3234C12.6525 33.2813 12.8081 34.6766 12.0538 35.4416C11.2983 36.2068 9.91834 36.0513 8.97353 35.0934C8.0277 34.1345 7.87219 32.7381 8.62758 31.9729C9.38297 31.2079 10.7629 31.3654 11.7087 32.3234Z" fill="#EDEDEA"/>
<path fill-rule="evenodd" clip-rule="evenodd" d="M28.566 32.3234C27.6223 33.2813 27.4666 34.6766 28.2212 35.4416C28.9766 36.2068 30.3564 36.0513 31.3012 35.0934C32.247 34.1345 32.4027 32.7381 31.6472 31.9729C30.8918 31.2079 29.5118 31.3654 28.566 32.3234Z" fill="#EDEDEA"/>
<path fill-rule="evenodd" clip-rule="evenodd" d="M20.9486 16.8697C20.7716 16.9279 20.5863 16.9569 20.401 16.9724C20.4154 16.9403 20.4418 16.9154 20.4418 16.8791V16.1597C20.4747 16.1338 20.5106 16.1162 20.5391 16.0809L21.096 15.3988C21.3161 15.1293 21.2128 14.9085 20.8667 14.9085H19.4091C19.0631 14.9085 18.9597 15.1293 19.1797 15.3988L19.7366 16.0809C19.7858 16.1421 19.8452 16.1845 19.9056 16.2177V16.8791C19.9056 16.9154 19.9311 16.9403 19.9445 16.9724C19.7591 16.9558 19.5749 16.9268 19.3988 16.8697C19.1715 16.7962 18.7017 16.5204 18.6372 16.9486V17.0263C18.6372 17.8837 19.3211 18.5783 20.1717 18.5804H20.1757C21.0264 18.5783 21.7101 17.8837 21.7101 17.0263C21.7101 17.0004 21.7101 16.9745 21.7101 16.9486C21.6457 16.5204 21.1759 16.7962 20.9486 16.8697Z" fill="#121716"/>
<path fill-rule="evenodd" clip-rule="evenodd" d="M15.9266 10.7224C15.4844 10.4808 14.9911 10.3585 14.4597 10.3585C14.4528 10.3585 14.4459 10.3585 14.439 10.3586C14.0783 10.3614 13.7182 10.4385 13.3695 10.5656C12.5379 10.8686 11.7708 11.4563 11.2136 12.0019C11.0486 12.1635 10.902 12.3214 10.7776 12.4671C10.6604 12.6044 10.5439 12.7552 10.4314 12.9164C9.3757 14.4277 8.65895 16.8547 10.7623 17.7437C11.6038 18.0993 12.5312 18.2071 13.4361 18.2236C14.5918 18.2464 15.8273 18.2196 16.7395 17.3944C17.6647 16.5567 17.8142 15.1884 17.7282 14.0003C17.6167 12.4577 16.9768 11.2925 15.9266 10.7224Z" fill="#121716"/>
<path fill-rule="evenodd" clip-rule="evenodd" d="M8.83791 29.2319C8.20218 29.2319 7.66578 29.4363 7.28398 29.824C7.21396 29.8947 7.15003 29.9708 7.09229 30.0516C6.83364 30.414 6.69917 30.8737 6.69898 31.3936C6.69892 31.5602 6.71265 31.733 6.7405 31.9107C6.88276 32.8282 7.37611 33.7539 8.12956 34.518C9.1223 35.5248 10.4652 36.0323 11.5336 35.9218C12.0142 35.8722 12.4392 35.6975 12.7519 35.387C12.7562 35.3828 12.7604 35.3785 12.7646 35.3742C13.2477 34.8849 13.4402 34.1448 13.3071 33.2884C13.1638 32.37 12.6705 31.4443 11.917 30.6813C11.0213 29.7742 9.87075 29.2319 8.83791 29.2319ZM11.2087 37.0277C9.8841 37.0277 8.49196 36.386 7.38845 35.2684C6.47938 34.3479 5.88167 33.2128 5.70458 32.0756C5.59133 31.35 5.65537 30.6732 5.88449 30.0891C6.03412 29.7076 6.25415 29.3656 6.5412 29.0752C6.54179 29.0746 6.54238 29.074 6.54297 29.0734C7.12436 28.4825 7.91765 28.1705 8.83791 28.1705C10.1614 28.1705 11.5547 28.8121 12.6581 29.9307C13.5672 30.8513 14.1649 31.9844 14.342 33.1226C14.5294 34.3232 14.2325 35.3897 13.5057 36.1249C12.9222 36.7156 12.1279 37.0277 11.2087 37.0277Z" fill="#121716"/>
<path fill-rule="evenodd" clip-rule="evenodd" d="M28.3588 30.6813C27.6054 31.4443 27.112 32.37 26.9686 33.2884C26.8356 34.1448 27.0281 34.8849 27.5112 35.3742C27.5153 35.3785 27.5195 35.3827 27.5237 35.3868C27.8363 35.6974 28.2613 35.8721 28.7419 35.9218C29.8103 36.0323 31.1533 35.5249 32.1462 34.518C32.8996 33.7539 33.393 32.8282 33.5353 31.9107C33.5631 31.733 33.5768 31.5602 33.5768 31.3936C33.5766 30.8737 33.4421 30.4139 33.1834 30.0516C33.1257 29.9707 33.0617 29.8947 32.9917 29.824C32.6099 29.4363 32.0735 29.2319 31.4379 29.2319C30.4051 29.2319 29.2545 29.7742 28.3588 30.6813ZM26.77 36.1249C26.0433 35.3897 25.7465 34.3232 25.9338 33.1226C26.1108 31.9844 26.7087 30.8513 27.6177 29.9307C28.7212 28.8121 30.1144 28.1705 31.4379 28.1705C32.358 28.1705 33.1514 28.4825 33.7328 29.0734C33.7334 29.074 33.734 29.0746 33.7345 29.0751C34.0216 29.3655 34.2417 29.7076 34.3913 30.0891C34.6204 30.6732 34.6845 31.35 34.5712 32.0756C34.3941 33.2128 33.7963 34.3479 32.8874 35.2684C31.7838 36.386 30.3916 37.0277 29.0671 37.0277C28.1479 37.0277 27.3535 36.7156 26.77 36.1249Z" fill="#121716"/>
<path d="M25.816 10.3585C25.2847 10.3585 24.7914 10.4808 24.3492 10.7224C23.2989 11.2925 22.6591 12.4577 22.5475 14.0003C22.4615 15.1884 22.611 16.5567 23.5364 17.3944C24.4485 18.2196 25.684 18.2464 26.8397 18.2236C27.7445 18.2071 28.672 18.0993 29.5135 17.7437C31.6168 16.8547 30.9001 14.4277 29.8444 12.9164C29.7318 12.7552 29.6153 12.6045 29.498 12.4671C29.3737 12.3214 29.2271 12.1635 29.0621 12.0019C28.505 11.4563 27.7378 10.8686 26.9063 10.5656C26.5575 10.4385 26.1974 10.3614 25.8368 10.3586L25.816 10.3585Z" fill="#121716"/>
<path fill-rule="evenodd" clip-rule="evenodd" d="M6.70567 5.25811C5.33294 6.64831 5.78336 9.28348 7.73132 11.2562L7.73606 11.261C4.89804 15.5096 2.74721 21.8961 4.83444 27.7694C5.12058 28.5749 5.4727 29.3501 5.88449 30.0891C6.03412 29.7076 6.25415 29.3656 6.5412 29.0752C6.26477 28.5365 6.02368 27.9806 5.82127 27.4106C5.37266 26.1485 5.1313 24.7749 5.08661 23.3434C4.72868 22.8392 4.43178 22.2794 4.20282 21.6706C4.0995 21.3969 4.23457 21.0901 4.50585 20.9864C4.75491 20.8878 5.0378 21 5.15789 21.2391C5.4594 18.1178 6.61913 14.8538 8.53667 11.9571C8.68318 11.7358 8.83411 11.5166 8.98942 11.2998C9.03963 11.2297 9.0902 11.16 9.14113 11.0909C9.36378 10.7889 9.59332 10.4969 9.82929 10.2152C10.3828 9.55445 10.9718 8.95056 11.59 8.40693C11.8709 8.15994 12.1578 7.92539 12.4503 7.7036C12.7323 7.48968 13.0195 7.28764 13.3113 7.09775C14.2889 6.46149 15.3181 5.96171 16.3799 5.60921L16.3821 5.61575C16.549 5.55666 16.7261 5.51827 16.9155 5.51827C17.2195 5.51827 17.5409 5.64488 17.7917 5.81278C18.7355 6.45544 19.4265 7.32208 19.8932 8.30388C19.9454 8.3795 20.0212 8.43962 20.1287 8.43962C20.2474 8.43962 20.3323 8.36921 20.3836 8.28214H20.3917C20.8596 7.3097 21.5465 6.45139 22.4841 5.81278C22.7348 5.64488 23.0562 5.51827 23.3603 5.51827C23.5497 5.51827 23.7267 5.55666 23.8936 5.61575V5.60844C24.9562 5.96097 25.9862 6.46098 26.9646 7.09767C27.2563 7.28755 27.5435 7.48958 27.8256 7.70348C28.118 7.92525 28.405 8.15977 28.6859 8.40673C29.3042 8.95032 29.8933 9.55417 30.447 10.2149C30.683 10.4965 30.9126 10.7884 31.1353 11.0904C31.1864 11.1597 31.2371 11.2295 31.2874 11.2998C31.4426 11.5165 31.5933 11.7355 31.7397 11.9566C33.6569 14.8534 34.8165 18.1175 35.1179 21.2389C35.2381 20.9999 35.5209 20.8879 35.77 20.9864C36.0411 21.0901 36.1763 21.3969 36.0729 21.6706C35.8439 22.2794 35.5471 22.8392 35.1892 23.3434C35.1444 24.7749 34.9031 26.1485 34.4544 27.4106C34.252 27.9806 34.011 28.5365 33.7345 29.0751C34.0216 29.3655 34.2417 29.7076 34.3913 30.0891C34.8031 29.3501 35.1552 28.5749 35.4414 27.7694C37.5287 21.8958 35.3776 15.509 32.5402 11.2604L32.5444 11.2562C34.4923 9.28348 34.9429 6.64831 33.57 5.25811C33.0562 4.73766 32.3489 4.46305 31.5228 4.46305C30.2338 4.46305 28.7901 5.14419 27.6574 6.28667C25.3579 4.75798 22.7787 3.93231 20.1379 3.93231C17.497 3.93231 14.9177 4.75803 12.6184 6.2868C11.4857 5.14424 10.042 4.46305 8.75296 4.46305C7.9269 4.46305 7.21958 4.73766 6.70567 5.25811ZM7.44679 6.00865C7.84184 5.60858 8.37515 5.52463 8.75296 5.52463C9.72446 5.52463 10.8312 6.03926 11.7473 6.90998C11.4576 7.13244 11.173 7.36657 10.8942 7.6121C10.243 8.1855 9.62303 8.82106 9.04036 9.51534C8.80557 9.7951 8.57684 10.0844 8.35458 10.383C6.96685 8.89523 6.5464 6.9205 7.44679 6.00865ZM31.5228 5.52463C31.9005 5.52463 32.4339 5.60858 32.829 6.00865C33.7293 6.92038 33.309 8.89472 31.9218 10.3824C31.6994 10.0839 31.4707 9.7946 31.2358 9.51488C30.6531 8.82072 30.033 8.18525 29.3818 7.61193C29.103 7.36642 28.8184 7.13231 28.5286 6.90986C29.4447 6.03921 30.5513 5.52463 31.5228 5.52463Z" fill="#121716"/>
<path d="M4.50585 20.9864C4.23457 21.0901 4.0995 21.3969 4.20282 21.6706C4.43178 22.2794 4.72868 22.8392 5.08661 23.3434C5.06506 22.6534 5.08922 21.95 5.15789 21.2391C5.0378 21 4.75491 20.8878 4.50585 20.9864Z" fill="#121716"/>
<path d="M9.35387 22.698C9.4572 22.8089 9.59649 22.8649 9.73567 22.8649C9.86458 22.8649 9.9936 22.8172 10.095 22.7208C10.3866 22.4429 11.2532 21.6696 11.7765 21.4088C11.8024 21.397 11.8275 21.3831 11.8515 21.3669C12.4903 20.9366 14.5161 19.8357 15.4589 20.4059C15.9174 20.6847 16.1621 21.0683 16.1856 21.5462C16.2276 22.4077 15.5459 23.4547 14.3615 24.3483C13.1454 25.2658 10.9988 25.5238 9.14299 24.9775C7.8214 24.5888 6.06184 23.633 5.18143 21.2932C5.17449 21.2745 5.16662 21.2565 5.15789 21.2391C5.08922 21.95 5.06506 22.6534 5.08661 23.3434C5.98975 24.6158 7.28141 25.5348 8.85024 25.9966C9.60152 26.2184 10.3867 26.3262 11.1544 26.3262C12.6161 26.3262 14.0134 25.9355 14.9879 25.2004C16.4753 24.0777 17.2932 22.727 17.2318 21.4934C17.1908 20.664 16.7527 19.9549 15.9973 19.4957C14.5508 18.6146 12.2978 19.8419 11.5178 20.3239C10.8749 20.0047 10.3079 19.5381 9.78888 19.0437C9.16343 18.4487 8.77032 18.0744 8.35278 17.2927C8.25447 17.1476 8.1009 17.0398 7.91354 17.0398C7.30042 17.0398 7.31069 17.6971 7.55423 18.0848C8.30562 19.279 9.16343 20.0524 10.3232 20.8423C10.3879 20.8863 10.4534 20.9296 10.5196 20.9719C9.96404 21.3921 9.45649 21.8711 9.37636 21.9473C9.16548 22.1485 9.1552 22.4844 9.35387 22.698Z" fill="#121716"/>
<path d="M30.5401 22.8649C30.6793 22.8649 30.8186 22.8089 30.9219 22.698C31.1205 22.4844 31.1102 22.1485 30.8994 21.9473C30.8193 21.8711 30.3118 21.3921 29.7562 20.9719C29.8224 20.9296 29.8878 20.8863 29.9526 20.8423C31.1124 20.0524 31.9702 19.279 32.7216 18.0848C32.9652 17.6971 32.9753 17.0398 32.3622 17.0398C32.1749 17.0398 32.0213 17.1476 31.9231 17.2927C31.5054 18.0744 31.1124 18.4487 30.4868 19.0437C29.968 19.5381 29.4009 20.0047 28.758 20.3239C27.978 19.8419 25.7249 18.6146 24.2785 19.4957C23.523 19.9549 23.0849 20.664 23.044 21.4934C22.9826 22.727 23.8004 24.0777 25.2878 25.2004C26.2623 25.9355 27.6596 26.3262 29.1214 26.3262C29.8891 26.3262 30.6742 26.2184 31.4256 25.9966C32.9945 25.5348 34.2861 24.6158 35.1892 23.3434C35.5471 22.8392 35.8439 22.2794 36.0729 21.6706C36.1763 21.3969 36.0411 21.0901 35.77 20.9864C35.5209 20.8879 35.2381 20.9999 35.1179 21.2389C35.1091 21.2563 35.1012 21.2744 35.0943 21.2932C34.214 23.633 32.4544 24.5888 31.1328 24.9775C29.277 25.5238 27.1304 25.2658 25.9143 24.3483C24.7299 23.4547 24.0482 22.4077 24.0901 21.5462C24.1137 21.0683 24.3584 20.6847 24.8169 20.4059C25.7597 19.8357 27.7855 20.9366 28.4242 21.3669C28.4481 21.383 28.473 21.3969 28.4988 21.4085C29.0222 21.6692 29.8891 22.4428 30.1808 22.7208C30.2821 22.8172 30.4111 22.8649 30.5401 22.8649Z" fill="#121716"/>
<path d="M29.3818 7.61193C30.033 8.18525 30.6531 8.82072 31.2358 9.51488C31.9367 8.68099 32.1297 7.68582 31.6519 7.20182C31.1757 6.71972 30.2022 6.911 29.3818 7.61193Z" fill="#121716"/>
<path fill-rule="evenodd" clip-rule="evenodd" d="M9.04036 9.51534C9.62303 8.82106 10.243 8.1855 10.8942 7.6121C10.0737 6.91103 9.10014 6.71968 8.62394 7.20182C8.14604 7.68591 8.33916 8.68135 9.04036 9.51534ZM11.5336 35.9218C12.0142 35.8722 12.4392 35.6975 12.7519 35.387C13.7082 35.909 14.7237 36.331 15.7803 36.636C18.5932 37.4486 21.6836 37.4486 24.4945 36.636C25.5515 36.3309 26.5672 35.9089 27.5237 35.3868C27.8363 35.6974 28.2613 35.8721 28.7419 35.9218C27.5216 36.6621 26.192 37.2492 24.7822 37.6559C23.2836 38.0903 21.7204 38.31 20.1379 38.31C18.5553 38.31 16.9922 38.0903 15.4925 37.6559C14.0831 37.2492 12.7537 36.6621 11.5336 35.9218Z" fill="#121716"/>
<path fill-rule="evenodd" clip-rule="evenodd" d="M15.9823 13.2C15.9658 12.9968 15.7458 12.7729 15.6168 12.6568C15.3292 12.4027 14.9616 12.2618 14.5798 12.2618C14.4591 12.2618 14.3353 12.2752 14.2093 12.3022C13.7221 12.4059 13.3126 12.7034 13.0864 13.119C13.0004 13.2767 12.8541 13.5908 12.8919 13.7702C12.9236 13.9194 13.0629 14.022 13.2052 14.0479C13.3945 14.0832 13.4682 13.993 13.5583 13.8376C13.5757 13.8074 13.594 13.7763 13.6146 13.7432C13.8888 13.313 14.2759 13.0766 14.7047 13.0766C14.9453 13.0766 15.0917 13.147 15.3098 13.2933C15.453 13.3897 15.6097 13.5835 15.8041 13.4798C15.9443 13.4042 15.9905 13.3057 15.9823 13.2Z" fill="#FFFFFE"/>
<path fill-rule="evenodd" clip-rule="evenodd" d="M24.2942 13.2C24.3106 12.9968 24.5307 12.7729 24.6596 12.6568C24.9474 12.4027 25.3148 12.2618 25.6966 12.2618C25.8174 12.2618 25.9413 12.2752 26.0672 12.3022C26.5544 12.4059 26.9639 12.7034 27.1901 13.119C27.2761 13.2767 27.4225 13.5908 27.3847 13.7702C27.3528 13.9194 27.2138 14.022 27.0713 14.0479C26.882 14.0832 26.8083 13.993 26.7182 13.8376C26.7008 13.8074 26.6824 13.7763 26.6619 13.7432C26.3876 13.313 26.0007 13.0766 25.5718 13.0766C25.3311 13.0766 25.1848 13.147 24.9668 13.2933C24.8235 13.3897 24.6668 13.5835 24.4724 13.4798C24.3321 13.4042 24.2861 13.3057 24.2942 13.2Z" fill="#FFFFFE"/>
</svg>
