<svg width="192" height="48" viewBox="0 0 192 48" fill="none" xmlns="http://www.w3.org/2000/svg">
<g opacity="0.9671">
<path d="M77.5533 19.4543C77.393 19.5516 77.2021 19.5853 77.0182 19.5491C76.8343 19.5128 76.6705 19.4091 76.5591 19.2582C76.0115 18.472 75.2766 17.8347 74.4209 17.4036C73.5653 16.9725 72.6157 16.7613 71.658 16.789C67.9237 16.789 65.6318 19.7437 65.6318 23.9634C65.6318 28.183 67.9658 31.1937 71.7 31.1937C72.6704 31.2169 73.6308 30.992 74.4902 30.5403C75.3494 30.0886 76.0793 29.425 76.6104 28.6125C76.7166 28.4597 76.8763 28.3524 77.0578 28.3118C77.2393 28.2712 77.4295 28.3001 77.5907 28.3931L79.3644 29.42C79.4613 29.4691 79.5464 29.5385 79.614 29.6235C79.6817 29.7085 79.7302 29.8071 79.7563 29.9124C79.7825 30.0179 79.7855 30.1277 79.7655 30.2343C79.7454 30.3411 79.7025 30.4423 79.6398 30.5309C78.7727 31.8306 77.5896 32.8889 76.2018 33.6066C74.8139 34.3242 73.2664 34.6776 71.7046 34.6339C65.7346 34.6339 61.6876 30.3022 61.6876 23.9867C61.6876 17.6712 65.7346 13.3956 71.6159 13.3956C73.1518 13.3529 74.6746 13.6872 76.0514 14.369C77.4281 15.0509 78.6169 16.0597 79.5138 17.3072C79.5754 17.3912 79.6192 17.4869 79.6423 17.5886C79.6654 17.6901 79.6673 17.7954 79.648 17.8978C79.6289 18.0002 79.5887 18.0976 79.5303 18.1839C79.4719 18.2702 79.3963 18.3435 79.3084 18.3994L77.5533 19.4543Z" fill="#00D54B"/>
<path d="M90.6042 33.4891V32.6302C89.6706 33.8345 88.3684 34.5813 86.2725 34.5813C83.1731 34.5813 81.0213 32.887 81.0213 29.9135C81.0213 26.212 84.3214 25.5772 86.3565 25.2925C88.5411 24.975 90.4035 24.8257 90.4035 23.3974C90.4035 22.1324 88.9425 21.7916 87.7056 21.7916C86.2856 21.8153 84.8907 22.1684 83.6306 22.8232C83.5431 22.8713 83.4468 22.9011 83.3475 22.9109C83.2482 22.9206 83.148 22.9101 83.0529 22.88C82.9577 22.8499 82.8697 22.8008 82.7941 22.7356C82.7185 22.6705 82.6569 22.5908 82.613 22.5012L81.9735 21.1662C81.888 20.9932 81.8723 20.7941 81.9297 20.6098C81.987 20.4255 82.1131 20.2704 82.2816 20.1766C84.0464 19.2371 86.0143 18.7435 88.0136 18.7389C91.5705 18.7389 94.0817 20.1999 94.0817 23.7335V33.4891C94.0817 33.6871 94.003 33.8771 93.863 34.0172C93.7229 34.1572 93.5329 34.2359 93.3349 34.2359H91.3837C91.2829 34.2403 91.1823 34.2243 91.0879 34.1887C90.9935 34.1532 90.9072 34.0989 90.8344 34.0291C90.7615 33.9592 90.7036 33.8754 90.664 33.7826C90.6245 33.6898 90.6041 33.59 90.6042 33.4891ZM90.4035 26.7442C89.7173 27.2623 88.4524 27.435 87.1034 27.6777C85.7544 27.9204 84.6341 28.2798 84.6341 29.7456C84.6341 31.0945 85.6097 31.7247 87.0194 31.7247C88.7697 31.7247 90.4035 30.7491 90.4035 28.4806V26.7442Z" fill="#00D54B"/>
<path d="M97.2885 30.3726C97.4143 30.226 97.5922 30.1338 97.7845 30.1156C97.9769 30.0973 98.1691 30.1543 98.3201 30.2746C99.5683 31.217 101.098 31.7104 102.661 31.6749C104.272 31.6749 105.462 31.1567 105.462 29.8965C105.462 28.7482 104.369 28.5195 101.728 28.0574C98.9265 27.5906 96.2476 26.6571 96.2476 23.4643C96.2476 20.1362 99.1184 18.7312 102.39 18.7312C104.442 18.7008 106.446 19.3581 108.081 20.5982C108.16 20.6608 108.226 20.7388 108.275 20.8278C108.324 20.9166 108.354 21.0145 108.363 21.1153C108.373 21.2162 108.362 21.318 108.331 21.4145C108.3 21.511 108.249 21.6001 108.183 21.6766L107.25 22.7735C107.126 22.9205 106.951 23.0146 106.76 23.0363C106.569 23.058 106.376 23.0058 106.222 22.8902C105.073 22.0488 103.68 21.6034 102.255 21.6205C100.878 21.6205 99.6736 22.022 99.6736 23.1096C99.6736 24.3185 101.363 24.5472 103.058 24.8366C106.675 25.4668 108.972 26.4984 108.972 29.5044C108.972 32.6598 106.447 34.6109 102.437 34.6109C100.246 34.6779 98.0993 33.9779 96.369 32.6318C96.2913 32.5682 96.2271 32.4899 96.1801 32.4012C96.1331 32.3126 96.1041 32.2154 96.095 32.1156C96.0859 32.0156 96.0968 31.9149 96.127 31.8192C96.1571 31.7235 96.206 31.6348 96.2709 31.5582L97.2885 30.3726Z" fill="#00D54B"/>
<path d="M111.189 33.4907V14.4929C111.189 14.2948 111.268 14.1048 111.408 13.9647C111.549 13.8247 111.738 13.746 111.936 13.746H114.088C114.286 13.746 114.476 13.8247 114.616 13.9647C114.756 14.1048 114.835 14.2948 114.835 14.4929V20.9811C115.371 20.2662 116.069 19.6897 116.873 19.3C117.677 18.9102 118.563 18.7184 119.456 18.7406C122.639 18.7406 124.506 21.0091 124.506 24.2485V33.4907C124.506 33.6887 124.428 33.8788 124.288 34.0188C124.148 34.1589 123.958 34.2375 123.76 34.2375H121.608C121.41 34.2375 121.22 34.1589 121.08 34.0188C120.939 33.8788 120.861 33.6887 120.861 33.4907V25.0887C120.861 23.4783 120.343 22.0173 118.28 22.0173C116.324 22.0173 114.835 23.3943 114.835 25.6908V33.4953C114.835 33.6934 114.756 33.8834 114.616 34.0234C114.476 34.1635 114.286 34.2421 114.088 34.2421H111.936C111.837 34.2428 111.74 34.2238 111.648 34.1862C111.557 34.1485 111.475 34.0932 111.405 34.0231C111.335 33.9532 111.28 33.8701 111.244 33.7786C111.207 33.6872 111.188 33.5893 111.189 33.4907Z" fill="#00D54B"/>
<path d="M148.186 33.7358L146.637 29.1614H138.803L137.25 33.7358C137.199 33.883 137.104 34.0109 136.978 34.1014C136.852 34.1918 136.7 34.2403 136.544 34.2399H134.019C133.899 34.2397 133.781 34.2106 133.674 34.155C133.568 34.0993 133.477 34.0189 133.408 33.9204C133.339 33.8219 133.295 33.7083 133.279 33.5892C133.264 33.4702 133.278 33.3491 133.319 33.2364L140.372 14.2339C140.428 14.0947 140.525 13.9757 140.65 13.8925C140.775 13.8092 140.922 13.7655 141.073 13.7671H144.522C144.675 13.7677 144.825 13.8149 144.95 13.9024C145.076 13.99 145.172 14.1137 145.226 14.2572L152.252 33.255C152.293 33.3682 152.306 33.4897 152.291 33.6091C152.275 33.7285 152.23 33.8424 152.161 33.941C152.092 34.0395 152 34.1199 151.893 34.1753C151.786 34.2306 151.667 34.2591 151.547 34.2585H148.882C148.725 34.255 148.574 34.2027 148.449 34.1089C148.324 34.0151 148.232 33.8846 148.186 33.7358ZM142.761 17.0765L139.746 25.9733H145.66L142.761 17.0765Z" fill="#00D54B"/>
<path d="M157.661 19.8322V21.0085C158.192 20.2744 158.895 19.683 159.711 19.2871C160.525 18.8913 161.425 18.7033 162.329 18.7399C166.46 18.7399 169.13 22.1567 169.13 26.6332C169.13 31.1095 166.46 34.5683 162.329 34.5683C161.422 34.6027 160.52 34.4107 159.705 34.0098C158.891 33.6089 158.188 33.0116 157.661 32.2718V38.4659C157.661 38.6639 157.583 38.854 157.443 38.994C157.303 39.1341 157.113 39.2128 156.915 39.2128H154.763C154.565 39.2128 154.375 39.1341 154.235 38.994C154.094 38.854 154.016 38.6639 154.016 38.4659V19.7948C154.016 19.5968 154.094 19.4068 154.235 19.2667C154.375 19.1267 154.565 19.048 154.763 19.048H156.915C157.016 19.0479 157.116 19.0684 157.209 19.1082C157.303 19.148 157.386 19.2065 157.456 19.2798C157.526 19.3532 157.58 19.4399 157.616 19.5349C157.651 19.6298 157.667 19.731 157.661 19.8322ZM161.564 31.3989C164.089 31.3989 165.298 29.2424 165.298 26.6332C165.298 24.0238 164.065 21.9233 161.564 21.9233C159.062 21.9233 157.661 24.0192 157.661 26.6332C157.661 29.247 158.992 31.3989 161.564 31.3989Z" fill="#00D54B"/>
<path d="M175.026 19.832V21.0083C175.557 20.2748 176.261 19.6839 177.075 19.2881C177.889 18.8923 178.789 18.704 179.694 18.7398C183.83 18.7398 186.499 22.1565 186.499 26.6329C186.499 31.1093 183.83 34.5681 179.694 34.5681C178.786 34.6016 177.885 34.4093 177.07 34.0084C176.255 33.6077 175.553 33.0109 175.026 32.2716V38.4657C175.026 38.6637 174.948 38.8538 174.807 38.9938C174.667 39.1339 174.477 39.2125 174.28 39.2125H172.128C171.929 39.2125 171.739 39.1339 171.6 38.9938C171.459 38.8538 171.381 38.6637 171.381 38.4657V19.7946C171.381 19.5966 171.459 19.4066 171.6 19.2665C171.739 19.1265 171.929 19.0478 172.128 19.0478H174.28C174.381 19.047 174.481 19.067 174.575 19.1067C174.668 19.1463 174.753 19.2046 174.823 19.2781C174.893 19.3516 174.947 19.4387 174.982 19.534C175.016 19.6292 175.031 19.7306 175.026 19.832ZM178.933 31.3987C181.458 31.3987 182.667 29.2422 182.667 26.6329C182.667 24.0237 181.435 21.9232 178.933 21.9232C176.431 21.9232 175.026 24.019 175.026 26.6329C175.026 29.2468 176.375 31.3987 178.933 31.3987Z" fill="#00D54B"/>
<path fill-rule="evenodd" clip-rule="evenodd" d="M14.7202 4C9.62828 4 5.50049 8.1278 5.50049 13.2197V34.7803C5.50049 39.8722 9.62828 44 14.7202 44H36.0665C41.1584 44 45.2862 39.8722 45.2862 34.7803V13.2197C45.2862 8.12779 41.1584 4 36.0665 4H14.7202ZM31.8575 18.8774C30.3388 17.5921 28.4145 16.8855 26.4249 16.8824C24.7857 16.8824 23.1466 17.4257 23.1466 18.9336C23.1466 20.3084 24.606 20.8463 26.4039 21.509C26.5782 21.5732 26.7557 21.6387 26.9354 21.7061C30.49 22.9051 33.4171 24.3756 33.4171 27.86C33.4171 31.6441 30.4806 34.2293 25.6755 34.5243L25.24 36.5522C25.158 36.931 24.822 37.2006 24.4344 37.1985H21.4138C21.1666 37.1925 20.935 37.0772 20.7812 36.8837C20.6275 36.6901 20.5676 36.4383 20.6176 36.1963L21.086 34.056C19.2722 33.5935 17.6048 32.6801 16.2387 31.4006C16.0804 31.2478 15.9911 31.0374 15.9911 30.8175C15.9911 30.5975 16.0804 30.3871 16.2387 30.2344L17.9153 28.5953C18.2324 28.2834 18.7409 28.2834 19.058 28.5953C20.5939 30.0606 22.6445 30.863 24.767 30.8292C26.9541 30.8292 28.4387 29.9019 28.4387 28.4314C28.4387 27.1019 27.2215 26.6566 24.9115 25.8117C24.6664 25.722 24.409 25.6279 24.1394 25.5277C21.1702 24.4693 18.3602 22.9566 18.3602 19.4394C18.3602 15.3697 21.7603 13.3839 25.7692 13.1872L26.1907 11.1219C26.2742 10.7467 26.6072 10.4799 26.9916 10.4803H30.0029C30.2483 10.4795 30.4809 10.5893 30.6363 10.7791C30.7915 10.969 30.8531 11.2188 30.8037 11.4591L30.3355 13.7679C31.8685 14.2691 33.2891 15.0645 34.5177 16.1096C34.687 16.2552 34.7878 16.465 34.7958 16.6882C34.8038 16.9114 34.7182 17.1277 34.5598 17.2851L32.9955 18.8541C32.6824 19.1622 32.1831 19.1725 31.8575 18.8774Z" fill="#00D54B"/>
</g>
</svg>
