<svg width="160" height="64" viewBox="0 0 160 64" fill="none" xmlns="http://www.w3.org/2000/svg">
<path d="M140.888 58.6168C136.801 58.6168 132.949 57.0195 130.052 54.1225L107.486 31.5566C105.215 29.286 103.727 26.4515 103.195 23.3666C102.882 21.5657 102.897 19.7178 103.242 17.9169H96.5709C94.9422 17.9169 94.2532 18.9975 93.987 19.6395C93.7208 20.2816 93.4389 21.5343 94.5977 22.6932L104.354 32.4493C106.624 34.7199 108.112 37.5544 108.645 40.6394C109.146 43.4894 108.801 46.4335 107.689 49.1583C106.562 51.8675 104.714 54.1851 102.349 55.8607C99.7811 57.6616 96.7431 58.6168 93.5329 58.6168H93.2197C89.1324 58.6168 85.2801 57.0195 82.383 54.1225L80.222 51.9614C79.1884 53.4804 77.9043 54.7958 76.401 55.8451C73.8328 57.6459 70.7948 58.6012 67.5845 58.6012C63.4973 58.6012 59.645 57.0039 56.7479 54.1068L21.3567 18.7156C20.8242 18.1831 20.1195 17.9013 19.3835 17.9013C17.7549 17.9013 17.0659 18.9818 16.7996 19.6238C16.5334 20.2659 16.2516 21.5187 17.4104 22.6775L27.1665 32.4336C29.4371 34.7043 30.9248 37.5387 31.4573 40.6237C31.9584 43.4738 31.6139 46.4178 30.502 49.1426C29.3745 51.8518 27.5266 54.1695 25.162 55.8451C22.5938 57.6459 19.5558 58.6012 16.3455 58.6012H11.8825C8.42163 58.6012 5.61852 55.7981 5.61852 52.3372C5.61852 48.8764 8.42163 46.0733 11.8825 46.0733H16.2829C17.9115 46.0733 18.6005 44.9928 18.8667 44.3507C19.133 43.7087 19.4148 42.4559 18.256 41.2971L8.51559 31.5566C6.24492 29.286 4.75723 26.4515 4.2248 23.3666C3.72368 20.5165 4.0682 17.5724 5.18005 14.8476C6.30756 12.1384 8.15542 9.82079 10.5201 8.14519C13.0883 6.34431 16.1419 5.38906 19.3522 5.38906C23.4394 5.38906 27.2917 6.98636 30.1888 9.88343L65.58 45.2747C66.1125 45.8071 66.8172 46.089 67.5532 46.089C69.1818 46.089 69.8708 45.0084 70.1371 44.3664C70.4033 43.7243 70.6851 42.4716 69.542 41.3284L44.2983 16.0847C41.8554 13.6418 41.8554 9.67985 44.2983 7.22126C46.7413 4.76266 50.7032 4.77832 53.1618 7.22126L78.3898 32.4493C78.4054 32.4649 78.4054 32.4649 78.4211 32.4806L91.2152 45.2747C91.7476 45.8071 92.4523 46.089 93.1883 46.089H93.5015C95.1301 46.089 95.8192 45.0084 96.0854 44.3664C96.3516 43.7243 96.6335 42.4715 95.4747 41.3127L85.7343 31.5566C83.4636 29.286 81.9759 26.4515 81.4435 23.3666C80.9423 20.5165 81.2869 17.5724 82.3987 14.8476C83.5262 12.1384 85.3741 9.82079 87.7387 8.14519C90.3069 6.34431 93.3606 5.38906 96.5709 5.38906H122.081C125.542 5.38906 128.345 8.19217 128.345 11.653C128.345 15.1138 125.542 17.9169 122.081 17.9169H118.322C116.694 17.9169 116.005 18.9975 115.739 19.6395C115.472 20.2816 115.19 21.5343 116.349 22.6932L138.915 45.259C139.447 45.7914 140.152 46.0733 140.888 46.0733C142.313 46.0733 143.472 44.9145 143.472 43.4894C143.472 40.0286 146.275 37.2255 149.736 37.2255C153.197 37.2255 156 40.0286 156 43.4894C156.016 51.8361 149.219 58.6168 140.888 58.6168Z" fill="url(#paint0_linear_35_3752)"/>
<path d="M140.889 53.1364C138.258 53.1364 135.783 52.1185 133.92 50.255L111.354 27.6891C108.488 24.8234 107.674 20.7049 109.224 16.9622C110.023 15.0517 111.323 13.5013 112.936 12.4521H96.5712C93.1574 12.4521 90.229 14.4096 88.9136 17.5572C87.5981 20.7049 88.3028 24.1657 90.7145 26.5773L100.471 36.3334C103.336 39.1991 104.151 43.3177 102.6 47.0604C101.05 50.8031 97.5578 53.1364 93.5019 53.1364H93.1887C90.5578 53.1364 88.0836 52.1185 86.2201 50.255L77.2157 41.2506C77.6228 43.1454 77.4349 45.1499 76.6519 47.0604C75.1016 50.8031 71.6094 53.1364 67.5536 53.1364C64.9227 53.1364 62.4484 52.1185 60.5849 50.255L25.1937 14.8637C23.6277 13.2978 21.5449 12.4365 19.3369 12.4365C15.9231 12.4365 12.9947 14.3939 11.6793 17.5416C10.3795 20.6892 11.0685 24.15 13.4801 26.5616L23.2362 36.3177C26.102 39.1835 26.9163 43.302 25.3659 47.0447C23.8156 50.7874 20.3235 53.1207 16.2676 53.1207H11.8828C11.4444 53.1207 11.0998 52.7762 11.0998 52.3377C11.0998 51.8993 11.4444 51.5547 11.8828 51.5547H16.2832C19.6971 51.5547 22.6255 49.5973 23.9409 46.4496C25.2563 43.302 24.5516 39.8412 22.14 37.4296L12.3839 27.6735C9.51819 24.8234 8.70388 20.7049 10.2542 16.9622C11.8045 13.2038 15.281 10.8705 19.3526 10.8705C21.9834 10.8705 24.4577 11.8884 26.3212 13.7519L61.7124 49.1431C63.2784 50.7091 65.3612 51.5704 67.5692 51.5704C70.9831 51.5704 73.9114 49.6129 75.2269 46.4653C76.5266 43.3177 75.8533 39.8725 73.4416 37.4609L48.1823 12.2172C47.8691 11.904 47.8691 11.4186 48.1823 11.1054C48.4955 10.7922 48.981 10.7922 49.2942 11.1054L74.5222 36.3334L74.5378 36.349L87.3319 49.1431C88.8979 50.7091 90.9807 51.5704 93.1887 51.5704H93.5019C96.9157 51.5704 99.8441 49.6129 101.16 46.4653C102.459 43.3177 101.77 39.8568 99.3587 37.4452L89.6026 27.6891C86.7369 24.8234 85.9225 20.7049 87.4729 16.9622C89.0232 13.2195 92.5153 10.8861 96.5712 10.8861H122.081C122.52 10.8861 122.864 11.2307 122.864 11.6691C122.864 12.1076 122.52 12.4521 122.081 12.4521H118.323C114.909 12.4521 111.981 14.4096 110.665 17.5572C109.365 20.7049 110.054 24.1657 112.466 26.5773L135.032 49.1431C136.598 50.7091 138.681 51.5704 140.889 51.5704C145.336 51.5704 148.953 47.953 148.953 43.5056C148.953 43.0671 149.298 42.7226 149.736 42.7226C150.175 42.7226 150.519 43.0671 150.519 43.5056C150.535 48.8143 146.213 53.1364 140.889 53.1364Z" fill="white"/>
<defs>
<linearGradient id="paint0_linear_35_3752" x1="3.99998" y1="32.0079" x2="156.008" y2="32.0079" gradientUnits="userSpaceOnUse">
<stop stop-color="#FFA588"/>
<stop offset="0.271" stop-color="#FCB371"/>
<stop offset="0.8357" stop-color="#F4D837"/>
<stop offset="1" stop-color="#F1E425"/>
</linearGradient>
</defs>
</svg>
