<svg width="256" height="48" viewBox="0 0 256 48" fill="none" xmlns="http://www.w3.org/2000/svg">
<path d="M65.8955 22.9338C65.8955 30.3507 72.1278 36.3871 79.5629 36.3871C83.5446 36.3871 86.5606 35.075 88.9159 32.6422C91.3487 30.214 92.105 26.7789 92.105 24.0455C92.1139 23.2816 92.0483 22.5187 91.9091 21.7676H79.5355V25.3757H88.3282C88.0685 27.4395 87.3761 28.9657 86.3282 30.0135C85.0481 31.2892 83.0481 32.7015 79.5355 32.7015C78.2595 32.698 76.9968 32.4414 75.8206 31.9466C74.6444 31.4519 73.578 30.7287 72.6831 29.819C71.7883 28.9093 71.0828 27.8312 70.6074 26.647C70.132 25.4628 69.8962 24.1961 69.9137 22.9202C69.8968 21.6427 70.1338 20.3746 70.6109 19.1895C71.0879 18.0043 71.7956 16.9257 72.6928 16.0162C73.59 15.1067 74.6589 14.3844 75.8375 13.8913C77.016 13.3981 78.2808 13.1439 79.5583 13.1434C82.0272 13.1112 84.4092 14.0542 86.187 15.7676L88.7792 13.1753C87.5675 11.9745 86.128 11.0279 84.5453 10.391C82.9626 9.7542 81.2687 9.44002 79.5629 9.46693C72.1278 9.46693 65.8955 15.517 65.8955 22.9338Z" fill="#80868B"/>
<path fill-rule="evenodd" clip-rule="evenodd" d="M110.298 31.2267C110.693 30.1045 110.852 28.913 110.766 27.7266C110.852 26.5401 110.693 25.3486 110.298 24.2264C109.903 23.1042 109.281 22.0755 108.471 21.2043C107.661 20.3332 106.68 19.6384 105.589 19.1633C104.499 18.6882 103.322 18.443 102.132 18.443C100.943 18.443 99.7659 18.6882 98.6753 19.1633C97.5847 19.6384 96.6037 20.3332 95.7936 21.2043C94.9835 22.0755 94.3616 23.1042 93.9668 24.2264C93.5721 25.3486 93.4128 26.5401 93.4991 27.7266C93.4128 28.913 93.5721 30.1045 93.9668 31.2267C94.3616 32.3489 94.9835 33.3777 95.7936 34.2488C96.6037 35.1199 97.5847 35.8147 98.6753 36.2898C99.7659 36.7649 100.943 37.0101 102.132 37.0101C103.322 37.0101 104.499 36.7649 105.589 36.2898C106.68 35.8147 107.661 35.1199 108.471 34.2488C109.281 33.3777 109.903 32.3489 110.298 31.2267ZM102.128 22.4783C104.738 22.4783 106.984 24.6104 106.984 27.7266C106.984 30.8063 104.734 32.9748 102.128 32.9748C99.5218 32.9748 97.2758 30.8427 97.2758 27.7266C97.2758 24.6104 99.5173 22.4783 102.128 22.4783Z" fill="#80868B"/>
<path fill-rule="evenodd" clip-rule="evenodd" d="M129.444 27.7266C129.531 28.913 129.371 30.1045 128.976 31.2267C128.582 32.3489 127.96 33.3777 127.15 34.2488C126.34 35.1199 125.359 35.8147 124.268 36.2898C123.177 36.7649 122.001 37.0101 120.811 37.0101C119.621 37.0101 118.445 36.7649 117.354 36.2898C116.263 35.8147 115.282 35.1199 114.472 34.2488C113.662 33.3777 113.04 32.3489 112.646 31.2267C112.251 30.1045 112.092 28.913 112.178 27.7266C112.092 26.5401 112.251 25.3486 112.646 24.2264C113.04 23.1042 113.662 22.0755 114.472 21.2043C115.282 20.3332 116.263 19.6384 117.354 19.1633C118.445 18.6882 119.621 18.443 120.811 18.443C122.001 18.443 123.177 18.6882 124.268 19.1633C125.359 19.6384 126.34 20.3332 127.15 21.2043C127.96 22.0755 128.582 23.1042 128.976 24.2264C129.371 25.3486 129.531 26.5401 129.444 27.7266ZM125.663 27.7266C125.663 24.6104 123.417 22.4783 120.806 22.4783C118.196 22.4783 115.955 24.6104 115.955 27.7266C115.955 30.8427 118.201 32.9748 120.806 32.9748C123.412 32.9748 125.663 30.8063 125.663 27.7266Z" fill="#80868B"/>
<path fill-rule="evenodd" clip-rule="evenodd" d="M147.235 34.9794V19.5899H143.626V21.0022H143.494C142.916 20.374 142.211 19.8763 141.425 19.5424C140.64 19.2085 139.792 19.0461 138.939 19.066C134.611 19.066 130.838 22.902 130.838 27.7584C130.838 32.6149 134.611 36.3871 138.939 36.3871C139.795 36.4081 140.646 36.243 141.433 35.9033C142.219 35.5635 142.922 35.0571 143.494 34.419H143.626V35.5306C143.626 38.8427 141.854 40.6149 139.002 40.6149C136.67 40.6149 135.23 38.9429 134.638 37.5306L131.326 38.8974C131.952 40.4152 133.018 41.7116 134.385 42.6206C135.753 43.5296 137.36 44.0098 139.002 43.9998C143.462 43.9998 147.235 41.3575 147.235 34.9794ZM139.303 22.4783C141.872 22.4783 143.886 24.7061 143.886 27.7584C143.886 30.7744 141.904 32.9748 139.303 32.9748C136.702 32.9748 134.633 30.8063 134.633 27.7584C134.633 24.7106 136.734 22.4783 139.303 22.4783Z" fill="#80868B"/>
<path d="M153.508 10.4055V35.8632H149.722V10.4055H153.508Z" fill="#80868B"/>
<path fill-rule="evenodd" clip-rule="evenodd" d="M170.929 32.5466L167.977 30.5785C166.993 32.0226 165.667 32.9748 163.713 32.9748C162.83 33.0095 161.958 32.7777 161.209 32.3097C160.459 31.8417 159.868 31.1591 159.512 30.3507L171.089 25.5671L170.697 24.583C169.977 22.6468 167.745 19.0705 163.285 19.0705C158.825 19.0705 155.116 22.5739 155.116 27.7265C155.092 28.8648 155.298 29.9963 155.721 31.0534C156.143 32.1106 156.775 33.0717 157.577 33.8795C158.379 34.6874 159.336 35.3253 160.39 35.7554C161.444 36.1854 162.574 36.3987 163.713 36.3825C165.139 36.3909 166.546 36.0448 167.805 35.3753C169.065 34.7057 170.138 33.7337 170.929 32.5466ZM166.633 24.2459L158.888 27.4623C158.85 26.833 158.937 26.2022 159.144 25.6068C159.352 25.0113 159.675 24.4632 160.097 23.9942C160.518 23.5252 161.029 23.1448 161.599 22.8752C162.169 22.6055 162.787 22.452 163.417 22.4236C164.925 22.4236 166.205 23.1616 166.633 24.2459Z" fill="#80868B"/>
<path d="M194.861 35.8632H181.49V12.0501H184.551V32.9384H194.861V35.8632Z" fill="#80868B"/>
<path fill-rule="evenodd" clip-rule="evenodd" d="M201.621 35.8043C202.642 36.2284 203.742 36.4302 204.847 36.3962C206.386 36.42 207.902 36.0163 209.225 35.2299C210.527 34.4627 211.586 33.345 212.282 32.0044L209.549 30.6741C208.437 32.624 206.911 33.6035 204.956 33.6035C204.282 33.6122 203.613 33.487 202.987 33.2352C202.362 32.9834 201.792 32.61 201.312 32.1365C200.799 31.6353 200.394 31.0353 200.12 30.3728C199.846 29.7104 199.709 28.9992 199.717 28.2823H212.519L212.556 27.9498C212.519 25.1586 211.798 22.9749 210.392 21.3985C208.985 19.8222 207.067 19.0341 204.638 19.0341C203.553 19.0064 202.476 19.2154 201.481 19.6466C200.485 20.0777 199.596 20.7207 198.875 21.5307C197.341 23.2175 196.525 25.4346 196.597 27.7129C196.519 30.0136 197.356 32.2513 198.925 33.9361C199.68 34.7432 200.6 35.3801 201.621 35.8043ZM209.294 25.7539H199.95C200.163 24.6466 200.737 23.6409 201.581 22.8929C202.415 22.1851 203.48 21.8061 204.574 21.8268C205.787 21.7628 206.978 22.1691 207.9 22.9612C208.309 23.3077 208.644 23.7341 208.884 24.2142C209.123 24.6943 209.263 25.2182 209.294 25.7539Z" fill="#80868B"/>
<path d="M215.353 19.5671H218.278V21.845H218.41C218.927 20.9996 219.664 20.31 220.542 19.8496C221.465 19.3261 222.506 19.0455 223.567 19.0341C225.562 19.0341 227.092 19.6112 228.155 20.7653C229.218 21.9194 229.761 23.5383 229.786 25.6218V35.8632H226.715V25.8405C226.651 23.1799 225.31 21.8496 222.692 21.8496C222.101 21.8448 221.517 21.9778 220.987 22.2379C220.456 22.4981 219.993 22.8783 219.635 23.3484C218.807 24.3339 218.368 25.588 218.401 26.8746V35.8632H215.344L215.353 19.5671Z" fill="#80868B"/>
<path d="M245.189 33.3579C245.514 32.7327 245.684 32.039 245.685 31.3347C245.688 28.8776 244.075 27.2512 240.847 26.4555L238.387 25.8222C236.637 25.4274 235.763 24.7622 235.763 23.8268C235.774 23.5247 235.864 23.2307 236.023 22.9742C236.183 22.7176 236.408 22.5074 236.674 22.3644C237.323 21.9654 238.072 21.7585 238.833 21.7676C239.645 21.747 240.447 21.9436 241.157 22.337C241.834 22.6802 242.374 23.2444 242.688 23.9361L245.421 22.8017C244.935 21.6376 244.068 20.6736 242.961 20.0683C241.783 19.373 240.437 19.0152 239.07 19.0341C237.41 18.9655 235.774 19.4459 234.414 20.4008C233.847 20.8013 233.389 21.3357 233.079 21.9565C232.769 22.5774 232.617 23.2653 232.637 23.9589C232.637 26.2216 234.217 27.7493 237.375 28.542L240.168 29.2391C241.766 29.7129 242.564 30.4722 242.564 31.517C242.546 31.8321 242.443 32.1366 242.268 32.3991C242.093 32.6617 241.851 32.8729 241.567 33.0113C240.838 33.4575 239.993 33.6779 239.139 33.6445C238.234 33.6459 237.351 33.3674 236.61 32.8473C235.834 32.263 235.236 31.4743 234.883 30.5694L232.15 31.7356C232.668 33.1118 233.597 34.2952 234.811 35.1251C236.088 35.9791 237.597 36.4211 239.134 36.3917C240.818 36.4562 242.473 35.9399 243.822 34.9293C244.396 34.5219 244.865 33.9832 245.189 33.3579Z" fill="#80868B"/>
<path d="M37.9548 9.31661C39.3622 9.32141 40.7105 9.88262 41.7057 10.8778C42.7009 11.8729 43.2621 13.2213 43.2669 14.6287V18.8838H48.5835V14.6287C48.5841 13.2327 48.3096 11.8503 47.7756 10.5605C47.2417 9.27074 46.4588 8.09881 45.4717 7.11173C44.4847 6.12465 43.3127 5.34177 42.0229 4.80784C40.7331 4.27391 39.3508 3.9994 37.9548 4H33.6997V9.31661H37.9548Z" fill="#FBBC05"/>
<path d="M15.6316 14.6287C15.6364 13.2213 16.1976 11.8729 17.1927 10.8778C18.1879 9.88262 19.5362 9.32141 20.9436 9.31661H25.1987V4H20.9436C19.5477 3.9994 18.1653 4.27391 16.8755 4.80784C15.5857 5.34177 14.4138 6.12465 13.4267 7.11173C12.4396 8.09881 11.6567 9.27074 11.1228 10.5605C10.5889 11.8503 10.3143 13.2327 10.3149 14.6287V18.8838H15.6316V14.6287Z" fill="#EA4335"/>
<path d="M20.9436 36.952C19.5362 36.9472 18.1879 36.386 17.1927 35.3908C16.1976 34.3957 15.6364 33.0473 15.6316 31.6399V27.3848H10.3149V31.6399C10.3143 33.0359 10.5889 34.4183 11.1228 35.7081C11.6567 36.9979 12.4396 38.1698 13.4267 39.1569C14.4138 40.1439 15.5857 40.9268 16.8755 41.4608C18.1653 41.9947 19.5477 42.2692 20.9436 42.2686H25.1987V36.952H20.9436Z" fill="#4285F4"/>
<path d="M42.2056 40.1411C43.0463 40.1411 43.8681 39.8918 44.5671 39.4248C45.2661 38.9577 45.8109 38.2939 46.1326 37.5172C46.4543 36.7405 46.5385 35.8859 46.3745 35.0613C46.2105 34.2368 45.8057 33.4794 45.2112 32.885C44.6168 32.2905 43.8594 31.8857 43.0349 31.7217C42.2103 31.5577 41.3557 31.6419 40.579 31.9636C39.8023 32.2853 39.1385 32.8301 38.6714 33.5291C38.2044 34.2281 37.9551 35.0499 37.9551 35.8906C37.9551 36.4488 38.065 37.0015 38.2786 37.5172C38.4922 38.0329 38.8053 38.5015 39.2 38.8962C39.5947 39.2909 40.0633 39.604 40.579 39.8176C41.0947 40.0312 41.6474 40.1411 42.2056 40.1411Z" fill="#34A853"/>
<path d="M29.4494 30.574C30.9208 30.574 32.3592 30.1377 33.5826 29.3202C34.806 28.5027 35.7596 27.3408 36.3227 25.9814C36.8858 24.622 37.0331 23.1261 36.746 21.683C36.459 20.2398 35.7504 18.9142 34.71 17.8738C33.6695 16.8333 32.3439 16.1248 30.9008 15.8377C29.4576 15.5507 27.9618 15.698 26.6024 16.2611C25.2429 16.8242 24.081 17.7777 23.2636 19.0012C22.4461 20.2246 22.0098 21.663 22.0098 23.1344C22.0098 25.1075 22.7936 26.9998 24.1888 28.395C25.584 29.7902 27.4763 30.574 29.4494 30.574Z" fill="#4285F4"/>
</svg>
