<svg width="160" height="72" viewBox="0 0 160 72" fill="none" xmlns="http://www.w3.org/2000/svg">
<path d="M12.5948 63.4998C11.7258 64.1199 10.686 64.4566 9.61785 64.4637C8.47729 64.5514 7.38571 63.9853 6.80181 63.0032C6.26335 61.9144 6.12361 60.6718 6.40684 59.4909C6.61051 58.1148 7.24255 56.8375 8.21349 55.8398C9.12499 54.9023 10.3791 54.3752 11.6878 54.3794C12.5339 54.3432 13.3663 54.6013 14.043 55.1096L13.5822 56.7161C12.8824 56.4448 12.1387 56.3038 11.3879 56.2999C10.6241 56.2344 9.86574 56.4763 9.28139 56.9717C8.75074 57.5438 8.41752 58.2706 8.33052 59.0455C8.11219 59.9069 8.19742 60.817 8.57189 61.6231C8.99921 62.281 9.75763 62.6469 10.5395 62.5724C11.3058 62.5523 12.0569 62.3548 12.7338 61.9955L12.5948 63.4048" fill="#1E4899"/>
<path d="M19.9019 61.7984C20.3331 61.1392 20.6059 60.3895 20.6991 59.6077C20.9259 58.7818 20.8745 57.9043 20.5528 57.1104C20.2282 56.5995 19.6414 56.3166 19.0388 56.3802C18.3773 56.3334 17.7332 56.6047 17.3053 57.1104C16.8585 57.731 16.5766 58.4545 16.486 59.2134C16.2787 60.0697 16.3244 60.9675 16.6177 61.7984C16.8903 62.3716 17.4912 62.7153 18.1245 62.66C18.824 62.6878 19.4912 62.3644 19.9019 61.7984ZM14.972 63.0397C14.4762 61.953 14.3603 60.7316 14.6428 59.5712C14.8429 58.2458 15.399 56.9992 16.252 55.964C17.0922 54.9876 18.32 54.4295 19.6093 54.4378C20.6397 54.3706 21.6294 54.8507 22.2132 55.7011C22.7502 56.7701 22.8801 57.9975 22.5789 59.155C22.38 60.4954 21.8215 61.757 20.9624 62.8061C20.1374 63.8309 18.8999 64.4379 17.5832 64.4637C16.5003 64.5176 15.4813 63.9508 14.9573 63.0032L14.972 63.0397Z" fill="#1E4899"/>
<path d="M27.5454 64.4637C26.4629 64.4637 25.2267 64.4637 24.0857 64.4637L25.8631 54.467H27.7575L26.792 59.8633C26.5945 60.9878 26.4263 61.9079 26.28 62.6381C26.7774 62.6381 27.677 62.6381 28.3938 62.6381H30.4711L30.142 64.4637H27.5454Z" fill="#1E4899"/>
<path d="M37.2442 61.7984C37.6754 61.1392 37.9483 60.3895 38.0415 59.6077C38.2683 58.7818 38.2169 57.9043 37.8952 57.1104C37.5717 56.5982 36.9841 56.3148 36.3811 56.3802C35.7197 56.3334 35.0756 56.6047 34.6476 57.1104C34.2009 57.731 33.919 58.4545 33.8284 59.2134C33.6261 60.0794 33.682 60.9856 33.9893 61.8203C34.2576 62.3764 34.8349 62.7165 35.4522 62.6819C36.1613 62.7111 36.8365 62.3782 37.2442 61.7984ZM32.2997 63.0397C31.8078 61.952 31.692 60.7318 31.9706 59.5712C32.1742 58.2468 32.7299 57.0011 33.5797 55.964C34.415 54.9934 35.6334 54.4359 36.9151 54.4378C37.9582 54.3573 38.965 54.839 39.5556 55.7011C40.0957 56.769 40.2283 57.9967 39.9286 59.155C39.7235 60.4936 39.1656 61.7536 38.3121 62.8061C37.4842 63.8312 36.2444 64.438 34.9256 64.4637C33.8427 64.5176 32.8237 63.9508 32.2997 63.0032V63.0397Z" fill="#1E4899"/>
<path d="M45.4583 56.4313C45.0926 56.4313 44.6171 56.4313 44.2514 56.4313C44.1856 56.8694 44.1051 57.3295 44.0173 57.8114L43.7467 59.3302C44.2075 59.3302 44.5513 59.3302 45.1511 59.3302C45.6907 59.3887 46.2333 59.2513 46.6798 58.9432C46.9597 58.6436 47.1276 58.2567 47.1552 57.8479C47.2576 57.2564 47.1552 56.8986 46.9285 56.6796C46.553 56.4686 46.1203 56.3817 45.6923 56.4313H45.4583ZM48.267 64.4637H45.9045L45.173 62.1051C45.0487 61.7327 44.917 61.2872 44.8146 60.9148C44.3611 60.9148 43.915 60.9148 43.4834 60.9148L42.8324 64.4637H40.9673L42.7666 54.467C43.6809 54.467 44.6318 54.467 45.5022 54.467H46.0946C47.3454 54.467 48.1427 54.6788 48.6547 55.1972C49.1727 55.8237 49.3553 56.6616 49.1447 57.4463C48.9445 58.8743 47.9754 60.0773 46.6213 60.5789C46.7895 60.9513 46.9724 61.3675 47.1333 61.7692L48.267 64.4637Z" fill="#1E4899"/>
<path d="M53.5333 64.4637C52.5093 64.4637 51.2732 64.4637 50.0956 64.4637L51.8584 54.4962C53.0067 54.4962 54.316 54.4962 55.2961 54.4962H57.8561L57.5051 56.4313H55.4278C54.6963 56.4313 53.8186 56.4313 53.3359 56.4313C53.27 56.8913 53.2042 57.2637 53.1091 57.7749L52.9628 58.6219C53.5114 58.6219 54.2355 58.6219 55.0109 58.5708H56.6639L56.2836 60.4621H54.6744L52.6629 60.411L52.4874 61.3748C52.3996 61.886 52.3338 62.273 52.2387 62.7257C52.7288 62.7257 53.5846 62.7257 54.3452 62.7257H56.5396L56.1812 64.4637H53.5333Z" fill="#1E4899"/>
<path d="M64.6293 63.4998C63.7576 64.12 62.7154 64.4566 61.645 64.4637C60.5139 64.5434 59.4348 63.978 58.8582 63.0032C58.3161 61.9155 58.1762 60.6716 58.4632 59.4909C58.6644 58.1155 59.2939 56.8382 60.2626 55.8398C61.1773 54.9026 62.4335 54.3757 63.7442 54.3794C64.5885 54.34 65.4197 54.5985 66.0921 55.1096L65.6313 56.7161C64.9316 56.4442 64.1878 56.3031 63.437 56.2999C62.6753 56.2331 61.9187 56.4752 61.3378 56.9717C60.7595 57.5565 60.4004 58.3224 60.3211 59.1404C60.0953 60.0012 60.1808 60.9139 60.5625 61.7181C60.9861 62.3722 61.7383 62.7379 62.5154 62.6673C63.2819 62.6483 64.0333 62.4507 64.7097 62.0905L64.5781 63.4998" fill="#1E4899"/>
<path d="M67.7817 54.4378H74.745L74.4086 56.4313H73.487C72.8872 56.4313 72.2581 56.4313 71.8485 56.4313L70.4734 64.4637H68.6741L70.0346 56.4313C69.6177 56.4313 68.974 56.4313 68.3815 56.4313H67.4453L67.7817 54.4159" fill="#1E4899"/>
<path d="M79.0605 60.4767L78.885 58.8191C78.7972 57.9867 78.7021 57.052 78.629 56.2195C78.2632 57.0885 77.8975 57.9501 77.5099 58.7899L76.7784 60.4767H79.0605ZM79.4482 64.4637L79.2361 62.2C78.8118 62.2 78.0511 62.2 77.5611 62.2C77.071 62.2 76.3981 62.2 75.9519 62.2L74.9498 64.4637H72.9164L77.9195 54.4378H80.0699L81.5913 64.4637H79.4482Z" fill="#1E4899"/>
<path d="M86.4261 64.4637C85.3362 64.4637 84.1074 64.4637 82.9591 64.4637L84.7438 54.467H86.6528L85.6873 59.8925C85.4898 61.017 85.3289 61.9371 85.1826 62.6673C85.6727 62.6673 86.5797 62.6673 87.2965 62.6673H89.3738L89.0227 64.4637H86.4261Z" fill="#1E4899"/>
<path d="M100.682 63.4998C99.8128 64.1199 98.773 64.4566 97.7048 64.4637C96.5643 64.5514 95.4727 63.9853 94.8888 63.0032C94.3503 61.9144 94.2106 60.6718 94.4938 59.4909C94.7008 58.1158 95.3324 56.8395 96.3005 55.8398C97.213 54.9038 98.4665 54.3768 99.7748 54.3794C100.621 54.3432 101.453 54.6013 102.13 55.1096L101.669 56.7161C100.958 56.4404 100.201 56.2993 99.4384 56.2999C98.6745 56.2344 97.9162 56.4763 97.3318 56.9717C96.8012 57.5438 96.468 58.2706 96.381 59.0455C96.1626 59.9069 96.2478 60.817 96.6223 61.6231C97.0508 62.2797 97.8084 62.6452 98.5899 62.5724C99.3686 62.5579 100.133 62.3603 100.821 61.9955L100.682 63.4048" fill="#1E4899"/>
<path d="M107.813 60.4767L107.638 58.8191C107.55 57.9867 107.455 57.052 107.382 56.2195C107.016 57.0885 106.65 57.9501 106.263 58.7899L105.531 60.4767H107.813ZM108.201 64.4637L107.989 62.2C107.565 62.2 106.804 62.2 106.321 62.2C105.838 62.2 105.151 62.2 104.705 62.2L103.71 64.4637H101.677L106.672 54.4378H108.801L110.344 64.4637H108.201Z" fill="#1E4899"/>
<path d="M112.173 64.4637L113.914 54.4378H116.108C117.073 57.2126 117.914 59.8779 118.397 61.5063C118.492 60.8856 118.704 59.5493 118.858 58.6365L119.589 54.4378H121.323L119.568 64.4637H117.71C116.503 61.4114 115.742 59.3522 115.098 57.4098C115.011 58.0013 114.784 59.4398 114.652 60.3306L113.921 64.5002H112.195" fill="#1E4899"/>
<path d="M128.528 63.4998C127.656 64.12 126.614 64.4566 125.543 64.4637C124.405 64.552 123.315 63.9854 122.735 63.0032C122.193 61.9155 122.053 60.6716 122.34 59.4909C122.541 58.1155 123.17 56.8382 124.139 55.8398C125.054 54.9026 126.31 54.3757 127.621 54.3794C128.465 54.34 129.296 54.5985 129.969 55.1096L129.508 56.7161C128.797 56.4397 128.04 56.2986 127.277 56.2999C126.515 56.2331 125.759 56.4752 125.178 56.9717C124.643 57.5409 124.309 58.2692 124.227 59.0455C124.001 59.9063 124.087 60.819 124.468 61.6231C124.893 62.2798 125.649 62.6457 126.428 62.5724C127.207 62.559 127.972 62.3613 128.659 61.9955L128.528 63.4048" fill="#1E4899"/>
<path d="M133.86 64.4637C132.836 64.4637 131.607 64.4637 130.429 64.4637L132.185 54.4962C133.333 54.4962 134.642 54.4962 135.63 54.4962H138.19L137.853 56.4313H135.783C135.052 56.4313 134.167 56.4313 133.684 56.4313C133.618 56.8913 133.553 57.2637 133.465 57.7749L133.319 58.6C133.86 58.6 134.584 58.6 135.359 58.5489H137.02L136.632 60.4402H135.023L133.011 60.3891L132.843 61.3529C132.748 61.8641 132.682 62.2511 132.587 62.7038C133.077 62.7038 133.933 62.7038 134.694 62.7038H136.888L136.508 64.4637H133.86Z" fill="#1E4899"/>
<path d="M143.134 56.4313C142.761 56.4313 142.286 56.4313 141.92 56.4313C141.854 56.8694 141.774 57.3295 141.693 57.8114L141.423 59.3302C141.884 59.3302 142.227 59.3302 142.82 59.3302C143.362 59.3885 143.907 59.2512 144.356 58.9432C144.635 58.6643 144.811 58.2985 144.853 57.9063C144.963 57.3149 144.853 56.9571 144.627 56.738C144.243 56.5044 143.792 56.4067 143.347 56.4605L143.134 56.4313ZM145.936 64.4637H143.573L142.842 62.1051C142.725 61.7327 142.593 61.2872 142.483 60.9148C142.037 60.9148 141.591 60.9148 141.16 60.9148L140.501 64.4637H138.643L140.413 54.467C141.328 54.467 142.279 54.467 143.149 54.467H143.742C145 54.467 145.79 54.6788 146.309 55.1972C146.828 55.8234 147.008 56.6629 146.792 57.4463C146.594 58.8756 145.624 60.08 144.268 60.5789C144.444 60.9513 144.619 61.3675 144.787 61.7692L145.936 64.4637Z" fill="#1E4899"/>
<path d="M40.5503 33.0206L41.5963 37.9642L46.9065 38.0737L42.2107 41.2282L43.0372 46.2375L39.0948 43.2509L34.2965 46.2375L36.5494 41.2282L32.7532 38.0737L38.0927 37.9642L40.5503 33.0206Z" fill="#1E4899"/>
<path d="M4 46.2081L9.8515 8.06904C11.8776 8.01793 35.0349 7.95951 35.0349 7.95951L33.5135 17.7298H25.0581C22.5346 17.7298 19.5942 17.6787 17.9705 17.6275C17.8607 18.6791 17.6559 20.103 17.495 21.1034L17.0781 23.6883C18.6507 23.6372 20.6987 23.5788 23.5879 23.5277L30.6755 23.4254L29.0517 32.3706L22.9077 32.2683C20.0916 32.2172 17.8973 32.1588 15.703 32.0566L13.399 46.2081H4Z" fill="#DC4405"/>
<path d="M79.7038 42.7104C75.5526 45.2503 70.7919 46.6252 65.9235 46.6901C57.7241 46.6901 51.4703 42.0824 51.4703 32.5458C51.5933 26.0499 53.8872 19.7813 57.9874 14.7359C62.142 9.81426 67.6351 7.50678 73.9693 7.50678C77.5836 7.4137 81.1578 8.28056 84.3265 10.0187L82.2638 18.3505C78.7595 17.6959 75.2076 17.3271 71.6433 17.2478C67.9861 17.2478 65.5943 17.9342 63.912 20.03C61.9664 22.4397 61.1765 26.6822 61.1765 29.9828C61.1765 35.5835 63.283 38.1028 68.8566 38.1028C69.7193 38.1057 70.5806 38.0349 71.4312 37.891L71.7457 35.7953C71.9066 34.8022 72.2212 33.1738 72.3236 32.6554C70.8022 32.7065 69.5368 32.7065 66.5379 32.7065L68.7322 24.2214C75.3151 24.2214 80.7205 24.2214 82.6295 24.3236C82.2638 26.9962 81.8396 29.7199 81.4226 32.356L79.7915 42.725" fill="#DC4405"/>
<path d="M91.1142 7.95951H100.857L98.6041 21.8336C100.125 21.7825 102.378 21.7314 104.265 21.7314C106.153 21.7314 107.828 21.7825 109.385 21.8336L111.521 7.95951H121.271L115.113 46.2081H105.67L107.974 31.2899C106.452 31.341 104.617 31.3921 102.729 31.3921C100.842 31.3921 98.6407 31.341 97.0754 31.2899L94.6982 46.2081H85.2627L91.1142 7.9303" fill="#DC4405"/>
<path d="M130.239 46.2081L134.627 17.5253C132.952 17.6348 130.817 17.686 129.142 17.686H124.497L126.011 7.95951H156L154.369 17.7298H149.775C147.947 17.7298 145.906 17.6787 144.238 17.5691L139.638 46.2081H130.239Z" fill="#DC4405"/>
<path d="M37.7778 32.115L40.7035 7.95951H51.9238C51.9238 7.95951 46.0723 27.1422 44.3534 32.115H37.7705" fill="#DC4405"/>
</svg>
