<svg width="160" height="80" viewBox="0 0 160 80" fill="none" xmlns="http://www.w3.org/2000/svg">
<path d="M61.7104 7.03582L41.8107 54.5111H28.827L19.0335 16.6217C18.4405 14.2934 17.9241 13.4364 16.117 12.4523C13.1637 10.8481 8.28682 9.34762 4 8.41397L4.28922 7.03582H25.1914C27.8517 7.03582 30.2469 8.80703 30.8554 11.8739L36.0303 39.3485L48.8053 7.03582H61.7104ZM79.2624 7.03582L69.1068 54.5111H56.8238L66.9794 7.03582H79.2624ZM112.581 39.0108C112.632 26.4832 95.2586 25.7883 95.3722 20.1903C95.4139 18.489 97.0347 16.677 100.583 16.2141C102.341 15.987 107.196 15.8055 112.696 18.3395L114.848 8.26645C111.892 7.1979 108.09 6.16914 103.36 6.16914C91.2173 6.16914 82.6757 12.6183 82.6078 21.8606C82.5282 28.697 88.7085 32.5073 93.3564 34.7841C98.144 37.1095 99.7492 38.6041 99.7269 40.682C99.693 43.8673 95.904 45.2775 92.381 45.3299C86.2036 45.4279 82.6224 43.6606 79.7661 42.33L77.5368 52.737C80.4105 54.054 85.7067 55.1982 91.1921 55.2564C104.1 55.2564 112.543 48.8811 112.581 39.0108ZM144.644 54.5111H156L146.078 7.03582H135.6C133.237 7.03582 131.252 8.40718 130.37 10.5161L111.94 54.5111H124.838L127.397 47.4194H143.155L144.644 54.5111ZM130.933 37.6909L137.401 19.8623L141.116 37.6909H130.933ZM94.9817 67.579H89.9913V72.224H95.5738V73.6206H88.3094V60.7339H95.2874V62.1305H89.9913V66.2018H94.9817V67.579ZM98.152 60.0464H99.8339V73.6202H98.152V60.0464ZM104.077 69.2991C104.115 71.575 105.549 72.5115 107.249 72.5115C108.455 72.5115 109.2 72.3009 109.813 72.034L110.118 73.2385C109.525 73.5053 108.494 73.8305 107.02 73.8305C104.173 73.8305 102.471 71.938 102.471 69.1467C102.471 66.3555 104.115 64.1757 106.811 64.1757C109.85 64.1757 110.635 66.8145 110.635 68.5159C110.635 68.8594 110.615 69.1079 110.576 69.2991H104.077ZM109.009 68.0947C109.028 67.0436 108.569 65.3801 106.677 65.3801C104.956 65.3801 104.229 66.9291 104.095 68.0947H109.009ZM119.788 73.2951C119.348 73.5057 118.373 73.8309 117.131 73.8309C114.339 73.8309 112.524 71.9383 112.524 69.1083C112.524 66.2598 114.472 64.1761 117.494 64.1761C118.487 64.1761 119.367 64.4235 119.826 64.673L119.444 65.9541C119.042 65.7435 118.411 65.5135 117.494 65.5135C115.371 65.5135 114.225 67.1003 114.225 69.0132C114.225 71.1542 115.601 72.4731 117.436 72.4731C118.392 72.4731 119.023 72.2441 119.501 72.0334L119.788 73.2951ZM124.507 62.1492V64.3669H126.915V65.647H124.507V70.6374C124.507 71.7856 124.832 72.4349 125.769 72.4349C126.227 72.4349 126.496 72.397 126.744 72.3194L126.821 73.6014C126.496 73.716 125.979 73.8305 125.329 73.8305C124.545 73.8305 123.914 73.5626 123.513 73.1239C123.054 72.6066 122.863 71.7856 122.863 70.6957V65.647H121.428V64.3669H122.863V62.6461L124.507 62.1492ZM129.265 67.254C129.265 66.1641 129.245 65.2275 129.188 64.3667H130.661L130.737 66.2019H130.793C131.215 64.9597 132.246 64.1755 133.374 64.1755C133.547 64.1755 133.681 64.1949 133.834 64.2133V65.8011C133.661 65.7623 133.491 65.7623 133.26 65.7623C132.076 65.7623 131.233 66.6416 131.004 67.9042C130.966 68.1333 130.947 68.4196 130.947 68.6884V73.6206H129.265V67.254ZM144.174 68.917C144.174 72.3391 141.784 73.8308 139.566 73.8308C137.081 73.8308 135.132 71.9945 135.132 69.0703C135.132 65.9918 137.177 64.176 139.72 64.176C142.377 64.176 144.174 66.1063 144.174 68.917ZM136.852 69.0131C136.852 71.0395 137.999 72.5691 139.643 72.5691C141.249 72.5691 142.453 71.058 142.453 68.9743C142.453 67.4069 141.669 65.4367 139.681 65.4367C137.713 65.4367 136.852 67.2729 136.852 69.0131ZM146.752 66.871C146.752 65.8966 146.732 65.1318 146.676 64.3671H148.166L148.262 65.8966H148.3C148.759 65.0358 149.83 64.1759 151.359 64.1759C152.64 64.1759 154.628 64.9406 154.628 68.1133V73.6201H152.946V68.2861C152.946 66.7953 152.392 65.5521 150.805 65.5521C149.715 65.5521 148.854 66.3363 148.55 67.2728C148.472 67.4834 148.434 67.7697 148.434 68.057V73.6201H146.752V66.871Z" fill="#1A1F71"/>
</svg>
