<svg width="160" height="56" viewBox="0 0 160 56" fill="none" xmlns="http://www.w3.org/2000/svg">
<path d="M78.2845 37.4694C79.1947 37.4694 80.0349 37.6094 80.735 37.8895C81.4352 38.1695 82.1353 38.5896 82.6254 39.1497C83.1155 39.7098 83.5356 40.3399 83.6756 41.1801C83.9557 41.9503 84.0957 42.7904 84.0957 43.7006C84.0957 44.3639 83.7815 44.7758 83.0936 44.8173L82.9755 44.8208H74.0837C74.1537 45.3109 74.2237 45.801 74.4338 46.2211C74.6438 46.7112 74.9939 47.2013 75.344 47.5514C75.694 47.9714 76.1841 48.2515 76.6742 48.4615C77.2343 48.6716 77.7944 48.8116 78.3546 48.8116C79.1947 48.8116 79.8248 48.6016 80.385 48.3215C80.9451 47.9714 81.3652 47.6214 81.7152 47.2713C82.1106 46.81 82.692 46.7829 83.1093 47.0732L83.1855 47.1313C83.3956 47.2713 83.5356 47.5514 83.5356 47.8314C83.5356 47.9714 83.5356 48.0415 83.4656 48.1815C83.4656 48.2982 83.4169 48.4149 83.3197 48.5315L83.2555 48.6016C82.6254 49.3017 81.9253 49.7918 81.0851 50.1419C80.2449 50.4919 79.4048 50.632 78.4246 50.632C77.5144 50.632 76.6042 50.4919 75.8341 50.1419C75.0639 49.7918 74.3638 49.3017 73.8037 48.7416C73.2435 48.1115 72.8235 47.4113 72.4734 46.6412C72.1233 45.871 71.9833 44.9608 71.9833 44.0507C71.9833 43.1405 72.1233 42.2303 72.4734 41.4602C72.8235 40.62 73.2435 39.9198 73.8037 39.3597C74.4338 38.7296 75.0639 38.3095 75.8341 37.9595C76.6042 37.6094 77.3744 37.4694 78.2845 37.4694ZM129.605 37.6794C129.745 37.6794 129.885 37.7494 129.955 37.8194C130.025 37.8895 130.165 38.0295 130.165 38.2395C130.221 38.4076 130.277 38.5756 130.297 38.7436L130.305 38.8696V49.3717C130.305 49.5818 130.235 49.7918 130.165 49.9318L130.092 50.0693C130.04 50.1574 129.978 50.2352 129.885 50.2819L129.741 50.3614C129.677 50.3967 129.619 50.4219 129.535 50.4219C129.465 50.4919 129.325 50.4919 129.255 50.4919C129.199 50.4919 129.143 50.4471 129.051 50.4292L128.975 50.4219C128.835 50.4219 128.694 50.3519 128.624 50.2819L128.516 50.1688C128.454 50.0999 128.386 50.0158 128.344 49.9318C128.288 49.7638 128.232 49.5958 128.212 49.4277L128.204 49.3017V38.7996C128.204 38.5196 128.274 38.3095 128.344 38.1695L128.417 38.0321C128.469 37.9439 128.531 37.8661 128.624 37.8194L128.768 37.7399C128.832 37.7046 128.891 37.6794 128.975 37.6794C129.255 37.6094 129.395 37.6094 129.605 37.6794ZM105.38 37.4694C106.99 37.4694 108.18 37.9595 108.811 38.9397C109.538 39.7993 109.953 40.9711 109.997 42.3963L110.001 42.6504V49.3017C110.001 49.5117 109.931 49.7218 109.861 49.8618C109.791 50.0018 109.721 50.1419 109.581 50.2119L109.437 50.2914C109.373 50.3267 109.315 50.3519 109.231 50.3519C109.161 50.4219 109.021 50.4219 108.951 50.4219C108.881 50.4219 108.811 50.3519 108.671 50.3519C108.531 50.3519 108.39 50.2819 108.32 50.2119C108.25 50.1419 108.11 50.0018 108.04 49.8618C107.984 49.6938 107.928 49.5257 107.908 49.3577L107.9 49.2317V43.3505C107.9 42.7204 107.83 42.1603 107.76 41.6702C107.69 41.1801 107.48 40.76 107.27 40.4099C107.086 40.1649 106.849 39.9198 106.511 39.7217L106.36 39.6398C106.01 39.4298 105.52 39.3597 104.89 39.3597C104.47 39.3597 104.05 39.4298 103.63 39.6398C103.209 39.8498 102.859 40.1299 102.509 40.48C102.229 40.83 101.949 41.3201 101.739 41.8802C101.552 42.3781 101.476 42.9866 101.462 43.6566L101.459 43.9106V49.3017C101.459 49.5818 101.389 49.7918 101.319 49.9318L101.246 50.0693C101.195 50.1574 101.132 50.2352 101.039 50.2819L100.896 50.3614C100.832 50.3967 100.773 50.4219 100.689 50.4219C100.409 50.4919 100.269 50.4919 100.059 50.4219C99.9188 50.4219 99.8488 50.3519 99.7088 50.2819L99.6001 50.1688C99.5379 50.0999 99.4707 50.0158 99.4287 49.9318C99.3727 49.7638 99.3167 49.5958 99.2965 49.4277L99.2887 49.3017V38.6596C99.2887 38.4496 99.3587 38.2395 99.4287 38.0995C99.4987 37.9595 99.5687 37.8194 99.7088 37.7494C99.8488 37.6794 99.9188 37.6094 100.059 37.6094C100.269 37.5394 100.409 37.5394 100.619 37.6094C100.759 37.6094 100.829 37.6794 100.969 37.7494L101.108 37.8928C101.165 37.9567 101.207 38.0155 101.249 38.0995C101.307 38.2162 101.366 38.3815 101.384 38.5549L101.389 38.6596V39.4298C101.739 38.9397 102.229 38.5196 102.859 38.1695C103.63 37.6794 104.47 37.4694 105.38 37.4694ZM91.4471 37.4694C92.1473 37.4694 92.7774 37.5394 93.3375 37.7494C93.8976 37.9595 94.4577 38.2395 94.8778 38.5896C95.2979 39.0097 95.648 39.4998 95.928 40.0599C96.1147 40.5578 96.2461 41.1663 96.273 41.8363L96.2781 42.0903V48.1815C96.2781 48.339 96.3175 48.5359 96.3372 48.7132L96.3481 48.8816V49.2317C96.3481 49.5818 96.2781 49.7918 96.068 50.0018C95.718 50.2819 95.2979 50.3519 94.8078 50.0719C94.5978 49.9318 94.4577 49.6518 94.3877 49.2317C94.3877 48.9516 94.3177 48.7416 94.3177 48.4615C93.8722 49.0344 93.4266 49.4915 92.8759 49.7803L92.7074 49.8618C92.0072 50.2119 91.0971 50.4219 90.1169 50.4219C89.6268 50.4219 89.1367 50.3519 88.6466 50.2119C88.1565 50.1419 87.6664 49.8618 87.2463 49.5818C86.8262 49.3017 86.4762 48.8816 86.1961 48.3915C85.916 47.9014 85.776 47.2713 85.776 46.5712C85.776 45.591 86.0561 44.8208 86.5462 44.2607C87.0363 43.7006 87.6664 43.2805 88.5066 43.0005C89.3467 42.7904 90.2569 42.5804 91.3071 42.5104L92.2899 42.4429C92.7839 42.4118 93.2837 42.3865 93.7981 42.3758L94.3177 42.3703V42.1603C94.3177 41.1801 94.0376 40.48 93.5476 39.9899C93.0575 39.4998 92.2873 39.2897 91.3071 39.2897C90.1869 39.2897 89.2067 39.6398 88.2965 40.2699C87.7364 40.62 87.3163 40.55 86.9663 40.2699C86.7562 40.0599 86.6862 39.8498 86.6862 39.5698C86.6862 39.2897 86.8262 39.0097 87.1063 38.7996C87.5264 38.3795 88.1565 38.0995 88.9266 37.8194C89.6968 37.6094 90.537 37.4694 91.4471 37.4694ZM124.774 31.3782C125.054 31.3782 125.334 31.4482 125.544 31.6582C125.754 31.8683 125.824 32.1483 125.824 32.4284C125.824 32.5684 125.824 32.7084 125.754 32.8485C125.696 32.9651 125.589 33.1305 125.433 33.2634L125.334 33.3386L117.422 40.0599L125.964 48.2515C126.244 48.5315 126.384 48.8816 126.384 49.1617C126.384 49.5117 126.244 49.7918 126.034 50.0018C125.824 50.2119 125.544 50.3519 125.194 50.3519C124.945 50.3519 124.641 50.2413 124.379 50.02L124.284 49.9318L115.252 40.76V49.1617C115.252 49.4017 115.2 49.5903 115.142 49.7275L115.112 49.7918C115.042 49.9318 114.972 50.0719 114.832 50.1419C114.692 50.2819 114.552 50.3519 114.412 50.3519C114.132 50.4219 113.992 50.4219 113.782 50.3519C113.642 50.2819 113.572 50.2119 113.431 50.1419L113.323 50.0287C113.261 49.9598 113.193 49.8758 113.151 49.7918C113.091 49.6718 113.031 49.5003 113.015 49.2774L113.011 49.1617V32.5684C113.011 32.0783 113.151 31.7282 113.431 31.5882C113.922 31.3081 114.202 31.3081 114.762 31.5882C115.018 31.7166 115.158 32.0214 115.179 32.4488L115.182 32.5684V39.4998L123.864 31.7282C124.004 31.5882 124.214 31.5182 124.354 31.4482C124.564 31.3782 124.634 31.3782 124.774 31.3782ZM135.906 34.1787C136.046 34.1787 136.116 34.2487 136.256 34.3187L136.365 34.4319C136.427 34.5008 136.494 34.5848 136.536 34.6688C136.592 34.8368 136.648 35.0049 136.668 35.1729L136.676 35.2989V37.7494H139.267C139.648 37.7494 139.915 37.8073 140.065 38.0282L140.107 38.0995C140.247 38.3095 140.317 38.5196 140.317 38.6596C140.317 38.7996 140.247 39.0097 140.107 39.2197C139.981 39.4087 139.741 39.5411 139.388 39.5657L139.267 39.5698H136.676V46.4311C136.676 47.2713 136.816 47.7614 137.096 48.0415C137.376 48.3215 137.726 48.4615 138.216 48.4615C138.426 48.4615 138.706 48.3915 138.917 48.3215C139.057 48.2515 139.197 48.2515 139.337 48.2515C139.617 48.2515 139.827 48.3215 139.897 48.4615C140.107 48.6716 140.177 48.8816 140.177 49.1617C140.177 49.3017 140.107 49.5117 140.037 49.6518C139.967 49.7918 139.757 49.9318 139.477 50.0719L139.293 50.1319C139.135 50.1819 138.957 50.2319 138.706 50.2819C138.426 50.3519 138.076 50.3519 137.796 50.3519C137.516 50.3519 137.096 50.2819 136.746 50.2119C136.396 50.0718 136.046 49.9318 135.696 49.6518C135.346 49.3717 135.066 49.0216 134.856 48.6016C134.667 48.2235 134.534 47.732 134.51 47.1271L134.506 46.9212V39.5698H132.825C132.405 39.5698 132.125 39.4298 131.985 39.2197C131.845 39.0097 131.775 38.7996 131.775 38.6596C131.775 38.5196 131.845 38.3095 131.985 38.0995C132.111 37.9105 132.351 37.7781 132.703 37.7536L132.825 37.7494H134.506V35.2989C134.506 35.0589 134.557 34.8703 134.616 34.7331L134.646 34.6688C134.716 34.5288 134.786 34.3888 134.926 34.3187L135.069 34.2392C135.133 34.2039 135.192 34.1787 135.276 34.1787C135.556 34.1087 135.626 34.1087 135.906 34.1787ZM62.9515 31.6582C63.2082 31.7866 63.3473 32.0914 63.3687 32.5188L63.3716 32.6384V48.1815H70.9331C71.1431 48.1815 71.3532 48.2515 71.4932 48.3215C71.6332 48.3915 71.7733 48.4615 71.8433 48.6016C71.9133 48.6716 71.9833 48.8116 72.1233 48.9516C72.1933 49.0216 72.1933 49.1617 72.1933 49.2317C72.1933 49.4067 72.1447 49.5818 72.0475 49.7568L71.9833 49.8618C71.856 50.1164 71.5551 50.2553 71.1858 50.2784L71.0731 50.2819H62.5314C61.6626 50.2819 61.2404 49.8353 61.2038 49.064L61.2012 48.9516V32.6384C61.2012 32.1483 61.3412 31.7982 61.6213 31.6582C62.1113 31.3782 62.3914 31.3782 62.9515 31.6582ZM94.2477 44.1907H93.8976C93.3142 44.1907 92.7307 44.2393 92.1878 44.296L91.8672 44.3307C91.1671 44.4007 90.4669 44.5408 89.9068 44.6808C89.3467 44.8908 88.8566 45.1009 88.5066 45.4509C88.1565 45.731 88.0165 46.1511 88.0165 46.6412C88.0165 47.0613 88.0865 47.3413 88.2265 47.6214C88.3665 47.9014 88.5066 48.1115 88.7866 48.2515C88.9967 48.3915 89.3467 48.5315 89.6268 48.6016C90.537 48.8116 91.4471 48.6716 92.1473 48.3915C92.5674 48.1815 92.9874 47.9014 93.2675 47.5514C93.5476 47.2013 93.8276 46.8512 93.9676 46.3611C94.1514 45.9323 94.228 45.5035 94.2443 45.0746L94.2477 44.8908V44.1907ZM78.2845 39.3597C77.7244 39.3597 77.1643 39.4298 76.7442 39.7098C76.2541 39.9198 75.8341 40.1999 75.484 40.55C75.1339 40.9 74.8539 41.3201 74.6438 41.7402C74.4638 42.0403 74.3866 42.3918 74.3242 42.7506L74.2938 42.9304H82.0653C81.9999 41.9502 81.6906 41.153 81.1374 40.5388L81.0151 40.4099C80.385 39.7098 79.4748 39.3597 78.2845 39.3597ZM150.189 32.8485C150.329 32.8485 150.469 32.9185 150.469 33.1985V37.6794C150.469 37.9595 150.329 37.9595 150.189 37.9595C150.119 37.9595 149.909 37.8895 149.909 37.6794V34.0387L148.298 37.7494C148.228 37.9595 148.088 37.9595 148.018 37.9595C147.948 37.9595 147.808 37.8895 147.738 37.7494L146.128 34.0387V37.6794C146.128 37.8895 145.988 37.9595 145.848 37.9595C145.778 37.9595 145.568 37.8895 145.568 37.6794V33.1985C145.568 32.9185 145.778 32.8485 145.848 32.8485C145.918 32.8485 146.058 32.9185 146.198 33.1285L148.018 37.2593L149.839 33.1285C149.979 32.9185 150.049 32.8485 150.189 32.8485ZM144.798 32.9185C145.008 32.9185 145.078 33.0585 145.078 33.1285L145.075 33.1772C145.067 33.2489 145.022 33.3386 144.798 33.3386H143.327V37.6094C143.327 37.8194 143.187 37.8895 143.047 37.8895C142.977 37.8895 142.767 37.8194 142.767 37.6094V33.3386H141.297C141.087 33.3386 141.017 33.1985 141.017 33.1285C141.017 33.0585 141.087 32.9185 141.297 32.9185H144.798ZM130.235 32.2883C130.515 32.5684 130.655 32.9185 130.655 33.3386C130.655 33.7586 130.515 34.1087 130.235 34.3888C129.955 34.6688 129.605 34.8088 129.255 34.8088C128.905 34.8088 128.554 34.6688 128.274 34.3888C127.994 34.1087 127.854 33.7586 127.854 33.3386C127.854 32.9185 127.994 32.5684 128.274 32.2883C128.905 31.7982 129.675 31.7982 130.235 32.2883ZM85.566 11.9843C86.1961 11.9843 86.8962 12.0544 87.4564 12.2644C88.0165 12.4744 88.5766 12.7545 88.9967 13.1046C89.4167 13.5246 89.7668 14.0147 90.0469 14.5748C90.2336 15.0727 90.365 15.6812 90.3918 16.3512L90.3969 16.6052V22.7665C90.3969 22.9765 90.4669 23.2566 90.4669 23.4666C90.523 23.5226 90.5342 23.6234 90.5364 23.6974L90.537 23.9567C90.537 24.3068 90.4669 24.5168 90.2569 24.7269C90.0469 24.8669 89.8368 24.9369 89.4167 25.0769C89.2767 25.0769 89.0667 25.0069 88.8566 24.8669C88.6466 24.7269 88.5066 24.3768 88.4365 23.9567C88.3665 23.7467 88.3665 23.4666 88.3665 23.2566C87.8764 23.8867 87.3163 24.3768 86.7562 24.6568C86.0561 25.0069 85.1459 25.2169 84.1657 25.2169C83.6756 25.2169 83.1855 25.1469 82.6954 25.0069C82.2053 24.8669 81.7152 24.5868 81.2951 24.3068C80.8751 24.0267 80.525 23.6066 80.2449 23.1165C79.9649 22.6264 79.8248 21.9963 79.8248 21.2962C79.8248 20.316 80.1049 19.4758 80.595 18.9157C81.0851 18.3556 81.7152 17.9355 82.5554 17.6555C83.3955 17.3754 84.3057 17.1654 85.3559 17.0953L86.3387 17.0279C86.8327 16.9968 87.3325 16.9715 87.8469 16.9608L88.3665 16.9553V16.7453C88.3665 15.7651 88.0865 15.0649 87.5964 14.5748C87.1063 14.0848 86.3361 13.8747 85.3559 13.8747C84.3057 13.8747 83.3255 14.2248 82.4154 14.8549C81.8552 15.205 81.3651 15.205 81.0151 14.8549C80.805 14.6449 80.735 14.4348 80.735 14.1548C80.735 13.8747 80.875 13.6647 81.1551 13.3846C81.5907 13.0734 82.137 12.7623 82.7939 12.5003L83.0455 12.4044C83.7456 12.1244 84.6558 11.9843 85.566 11.9843ZM130.935 11.9843C131.845 11.9843 132.685 12.1244 133.385 12.4044C134.086 12.6845 134.716 13.1046 135.276 13.6647C135.766 14.2248 136.186 14.8549 136.466 15.6251C136.746 16.3952 136.886 17.2354 136.886 18.1456C136.886 18.8088 136.509 19.2208 135.815 19.2623L135.696 19.2658H126.804C126.874 19.7559 126.944 20.246 127.154 20.666C127.364 21.1561 127.714 21.6462 128.064 21.9963C128.414 22.4164 128.905 22.6965 129.395 22.9065C129.885 23.1165 130.445 23.2566 131.005 23.2566C131.845 23.2566 132.475 23.0465 133.035 22.7665C133.595 22.4164 134.016 22.0663 134.366 21.7163C134.646 21.4362 134.926 21.2962 135.206 21.2962C135.486 21.2962 135.696 21.4362 135.906 21.5762C136.116 21.7163 136.256 21.9963 136.256 22.2764C136.256 22.4164 136.256 22.4864 136.186 22.6264C136.116 22.7665 136.046 22.9065 135.906 23.0465C135.276 23.7467 134.576 24.2368 133.735 24.5868C132.965 24.9369 132.055 25.0769 131.075 25.0769C130.165 25.0769 129.255 24.9369 128.484 24.5868C127.714 24.2368 127.014 23.7467 126.454 23.1865C125.894 22.6264 125.404 21.9263 125.054 21.1561C124.704 20.386 124.564 19.4758 124.564 18.5656C124.564 17.6555 124.704 16.7453 125.054 15.9751C125.334 15.135 125.824 14.4348 126.384 13.8747C126.944 13.2446 127.644 12.8245 128.414 12.4744C129.185 12.1244 130.025 11.9843 130.935 11.9843ZM66.5922 6.10318C67.5724 6.10318 68.4126 6.17319 69.1827 6.38323C69.8673 6.56994 70.4966 6.81196 71.0214 7.15847L71.2131 7.29341L71.3947 7.43843C71.8061 7.78802 72.1328 8.21291 72.3749 8.6472L72.4734 8.83372C72.8235 9.46384 72.9635 10.234 72.9635 11.0742C72.9635 11.9143 72.7534 12.6845 72.4734 13.3146C72.1233 13.9447 71.7032 14.5048 71.1431 14.9249C70.583 15.345 69.8829 15.6951 69.1127 15.9051C68.4282 16.0918 67.6329 16.2232 66.8254 16.2501L66.5222 16.2552H63.5116V23.7467C63.5116 24.0267 63.4416 24.2368 63.3716 24.3768L63.299 24.5142C63.2471 24.6024 63.1849 24.6802 63.0915 24.7269C62.9515 24.8669 62.8115 24.9369 62.6715 24.9369C62.5314 25.0069 62.3914 25.0069 62.3214 25.0069C62.1814 25.0069 62.1114 24.9369 61.9713 24.9369C61.9013 24.8669 61.7613 24.7969 61.6213 24.7269L61.5126 24.6137C61.4504 24.5448 61.3832 24.4608 61.3412 24.3768C61.2812 24.2568 61.2212 24.0853 61.2053 23.8624L61.2012 23.7467V7.43344C61.2012 6.63328 61.6457 6.15065 62.4138 6.1065L62.5314 6.10318H66.5922ZM99.2887 11.7743C100.899 11.7743 102.089 12.2644 102.929 13.2446C103.654 14.1671 104.069 15.3377 104.115 16.7564L104.12 17.0253V23.6766C104.12 23.9567 104.05 24.1667 103.98 24.3068L103.907 24.4442C103.855 24.5324 103.793 24.6102 103.7 24.6568C103.63 24.7269 103.49 24.7969 103.349 24.7969C103.279 24.8669 103.139 24.8669 103.069 24.8669C103.013 24.8669 102.957 24.8221 102.866 24.8041L102.789 24.7969C102.649 24.7969 102.579 24.7269 102.439 24.6568L102.331 24.5437C102.268 24.4748 102.201 24.3908 102.159 24.3068C102.103 24.1387 102.047 23.9707 102.027 23.8027L102.019 23.6766V17.7955C102.019 17.1654 101.949 16.6052 101.879 16.1152C101.809 15.6251 101.599 15.205 101.389 14.8549C101.179 14.5048 100.829 14.2948 100.479 14.0848C100.129 13.8747 99.6388 13.8047 99.0086 13.8047C98.5886 13.8047 98.1685 13.8747 97.7484 14.0848C97.3283 14.2948 96.9782 14.5748 96.6282 14.9249C96.3481 15.275 96.0681 15.7651 95.858 16.3252C95.6713 16.8231 95.5952 17.4316 95.5806 18.1016L95.5779 18.3556V23.8167C95.5779 24.0967 95.5079 24.3068 95.4379 24.4468L95.3653 24.5842C95.3135 24.6724 95.2512 24.7502 95.1579 24.7969C95.0879 24.8669 94.9478 24.9369 94.8078 24.9369C94.5277 25.0069 94.3877 25.0069 94.1777 24.9369C94.0376 24.9369 93.9676 24.8669 93.8276 24.7969L93.7189 24.6837C93.6568 24.6148 93.5896 24.5308 93.5476 24.4468C93.4915 24.2788 93.4355 24.1107 93.4154 23.9427L93.4075 23.8167V14.1548L93.1975 13.4546V13.0345C93.1975 12.8245 93.2675 12.6145 93.3375 12.4744C93.4075 12.3344 93.4775 12.1944 93.6176 12.1244L93.761 12.0448C93.8248 12.0095 93.8836 11.9843 93.9676 11.9843C94.1777 11.9143 94.3177 11.9143 94.5277 11.9843C94.6678 11.9843 94.7378 12.0544 94.8778 12.1244C94.9478 12.2644 95.0879 12.3344 95.1579 12.4744C95.2162 12.5911 95.2746 12.7564 95.2924 12.9298L95.2979 13.0345V13.7347C95.648 13.2446 96.0681 12.8245 96.6982 12.4744C97.5383 11.9843 98.3785 11.7743 99.2887 11.7743ZM147.598 12.1944C147.847 12.3188 148.041 12.554 148.179 12.8997L148.228 13.0345L151.169 21.5762L153.829 12.8945C153.969 12.5444 154.109 12.3344 154.32 12.1944C154.46 12.1244 154.67 12.0544 154.88 12.0544C155.125 12.0544 155.37 12.108 155.568 12.2621L155.65 12.3344L155.725 12.4162C155.869 12.5852 155.968 12.7838 155.993 12.9528L156 13.0345V13.2446C156 13.3566 156 13.4238 155.964 13.5179L155.93 13.5947L152.569 23.7467C152.442 24.1922 152.199 24.522 151.945 24.6835L151.869 24.7269L151.753 24.7826C151.529 24.8855 151.349 24.9369 151.169 24.9369C151.064 24.9369 150.998 24.8975 150.913 24.8778L150.819 24.8669C150.679 24.8669 150.539 24.7969 150.399 24.7269C150.259 24.6568 150.189 24.5168 150.049 24.3768C149.929 24.1967 149.86 24.0682 149.799 23.8587L149.769 23.7467L146.968 15.345L144.168 23.7467C144.028 24.2368 143.747 24.5868 143.467 24.7269C143.187 24.8669 142.977 24.9369 142.767 24.9369C142.662 24.9369 142.597 24.8975 142.511 24.8778L142.417 24.8669C142.277 24.8669 142.137 24.7969 141.997 24.7269L141.647 24.3768C141.527 24.1967 141.458 24.0682 141.397 23.8587L141.367 23.7467L138.006 13.5947C137.936 13.3846 137.936 13.2446 137.936 13.1046C137.936 12.8245 138.076 12.5444 138.286 12.3344C138.496 12.1244 138.776 12.0544 139.057 12.0544L139.192 12.0576C139.317 12.0658 139.467 12.0944 139.617 12.1944C139.803 12.3188 139.99 12.4986 140.078 12.7829L140.107 12.8945L142.767 21.5762L145.638 13.0345C145.778 12.6145 145.988 12.3344 146.268 12.1944C146.758 11.9843 147.108 11.9843 147.598 12.1944ZM121.483 12.1244C121.623 12.1244 121.693 12.1944 121.833 12.2644C121.973 12.3344 122.043 12.4744 122.043 12.6145C122.099 12.7825 122.155 12.9505 122.175 13.1186L122.183 13.2446V23.7467C122.183 24.0267 122.113 24.2368 122.043 24.3768L121.971 24.5142C121.919 24.6024 121.856 24.6802 121.763 24.7269C121.693 24.7969 121.553 24.8669 121.413 24.8669C121.343 24.9369 121.203 24.9369 121.133 24.9369C121.077 24.9369 121.021 24.8921 120.929 24.8742L120.853 24.8669C120.713 24.8669 120.643 24.7969 120.503 24.7269L120.394 24.6137C120.332 24.5448 120.265 24.4608 120.223 24.3768C120.167 24.2087 120.111 24.0407 120.091 23.8727L120.083 23.7467V13.2446C120.083 13.0045 120.134 12.8159 120.193 12.6788L120.223 12.6145C120.293 12.4744 120.363 12.3344 120.503 12.2644C120.573 12.1944 120.713 12.1244 120.853 12.1244C121.133 12.0544 121.203 12.0544 121.483 12.1244ZM76.6042 4.7029C76.6882 4.7029 76.747 4.72811 76.8109 4.76339L76.9543 4.84293L77.0036 4.89278C77.0775 4.96895 77.1783 5.08098 77.2343 5.193L77.2927 5.36079C77.3295 5.46775 77.3597 5.57144 77.3703 5.71106L77.3744 5.82312V23.7467C77.3744 24.0267 77.3043 24.2368 77.2343 24.3768L77.1617 24.5142C77.1099 24.6024 77.0476 24.6802 76.9543 24.7269L76.8109 24.8064C76.747 24.8417 76.6882 24.8669 76.6042 24.8669C76.5342 24.9369 76.3942 24.9369 76.3242 24.9369C76.2681 24.9369 76.2121 24.8921 76.1203 24.8742L76.0441 24.8669C75.9041 24.8669 75.8341 24.7969 75.694 24.7269L75.5809 24.6182C75.512 24.556 75.428 24.4888 75.344 24.4468L75.2856 24.279C75.2488 24.172 75.2186 24.0684 75.208 23.9287L75.2039 23.8167V5.82312C75.2039 5.58307 75.2554 5.39447 75.3142 5.2573L75.344 5.193C75.414 5.05297 75.484 4.91294 75.624 4.84293L75.7674 4.76339C75.8313 4.72811 75.8901 4.7029 75.9741 4.7029C76.2541 4.63289 76.3242 4.63289 76.6042 4.7029ZM107.06 11.9843C107.27 11.9843 107.41 12.0544 107.62 12.1244C107.804 12.2469 107.988 12.423 108.125 12.6997L108.18 12.8245L111.821 22.0663L115.532 12.8245C115.672 12.5444 115.812 12.3344 116.022 12.1944C116.162 12.1244 116.372 12.0544 116.582 12.0544C116.932 12.0544 117.212 12.1244 117.422 12.3344C117.562 12.5444 117.702 12.8245 117.702 13.1046L117.7 13.2067C117.693 13.3162 117.665 13.443 117.555 13.5456L117.492 13.5947L113.221 23.7467C113.081 24.2368 112.801 24.5168 112.521 24.6568C112.241 24.7969 111.961 24.8669 111.751 24.8669C111.541 24.8669 111.261 24.7969 110.981 24.6568C110.729 24.5308 110.534 24.2914 110.344 23.8875L110.281 23.7467L106.01 13.5947L105.943 13.3872C105.901 13.2524 105.87 13.1279 105.87 13.0345C105.87 12.7545 106.01 12.4744 106.22 12.2644C106.43 12.0544 106.71 11.9843 107.06 11.9843ZM88.2965 18.7057L87.6591 18.7062C87.0811 18.7085 86.4762 18.7197 85.916 18.7757C85.2159 18.8457 84.5158 18.9857 83.9557 19.1257C83.3955 19.3358 82.9054 19.5458 82.5554 19.8959C82.2053 20.176 82.0653 20.596 82.0653 21.0861C82.0653 21.5062 82.1353 21.7863 82.2753 22.0663C82.4154 22.3464 82.5554 22.5564 82.8354 22.6965C83.1155 22.8365 83.3956 22.9765 83.6756 23.0465L84.071 23.1261C84.2609 23.1613 84.4458 23.1865 84.6558 23.1865C85.2159 23.1865 85.776 23.1165 86.1961 22.9065C86.6162 22.6965 87.0363 22.4164 87.3163 22.0663C87.5564 21.7663 87.7964 21.4148 87.9483 21.0559L88.0165 20.8761C88.2002 20.4473 88.2768 20.0184 88.2931 19.5896L88.2965 19.4058V18.7057ZM130.865 13.8747C130.305 13.8747 129.815 13.9447 129.325 14.1548C128.835 14.3648 128.414 14.6449 128.064 14.9949C127.714 15.345 127.434 15.7651 127.224 16.1852C127.044 16.5452 126.967 16.8539 126.905 17.1992L126.874 17.3754H134.646C134.515 16.4606 134.262 15.6677 133.717 15.0537L133.595 14.9249C132.965 14.2248 132.055 13.8747 130.865 13.8747ZM66.3822 8.06356H63.4416V14.2948H66.3822C67.7825 14.2948 68.9027 14.0147 69.6028 13.4546C70.303 12.8945 70.653 12.1244 70.653 11.1442C70.653 10.094 70.303 9.32381 69.5328 8.83372C68.8764 8.37425 67.8508 8.09939 66.6291 8.06683L66.3822 8.06356ZM122.183 6.7333C122.533 7.01336 122.673 7.36343 122.673 7.78351C122.673 8.20359 122.463 8.55366 122.183 8.83372C121.903 9.11377 121.553 9.2538 121.203 9.2538C120.783 9.2538 120.503 9.11377 120.223 8.90373C119.873 8.62367 119.733 8.27361 119.733 7.85352C119.733 7.47163 119.848 7.08974 120.132 6.81305L120.223 6.7333L120.313 6.64952C120.864 6.17474 121.586 6.20267 122.183 6.7333Z" fill="#202433"/>
<path d="M44.1184 13.9448L26.825 5.26308C25.7748 4.77298 24.5845 4.77298 23.5343 5.26308L8.97145 12.4745L6.661 13.6647C7.7112 13.1746 8.90144 13.1746 9.95164 13.6647L18.1433 17.3055L18.5633 17.4455L38.3072 27.7375L18.4933 38.0996L18.2833 38.1696L9.88163 42.5804C8.83142 43.0705 7.64119 43.1405 6.59098 42.5804L6.1709 42.3704L23.4643 50.9821C24.5145 51.4722 25.7048 51.4722 26.755 50.9821L44.1184 42.3004C45.3786 41.6703 46.1488 40.41 46.1488 39.0097V31.7983H46.2188V17.2354C46.1488 15.8352 45.3786 14.5749 44.1184 13.9448Z" fill="#A4A7AD"/>
<path d="M18.1428 17.305L9.95117 13.6643C8.90097 13.1742 7.71073 13.1042 6.66053 13.6643L6.24044 13.8743C6.17043 13.8743 6.17043 13.9443 6.10041 13.9443C4.84017 14.5745 4 15.8347 4 17.235V39.0093C4 40.4096 4.84017 41.7398 6.10041 42.3699L6.5205 42.58C7.5707 43.0701 8.76094 43.0701 9.81115 42.58L18.3528 38.0991L18.5629 17.515L18.1428 17.305Z" fill="#4D515D"/>
</svg>
