<svg width="200" height="48" viewBox="0 0 200 48" fill="none" xmlns="http://www.w3.org/2000/svg">
<path d="M5.08398 29.4788V11.8546C5.08398 11.2961 5.51838 10.8617 6.0769 10.8617H11.2897C11.8482 10.8617 12.2826 11.2961 12.2826 11.8546V29.2927C12.2826 34.5675 14.9511 37.3601 19.295 37.3601C23.639 37.3601 26.3075 34.6916 26.3075 29.5409V11.8546C26.3075 11.2961 26.7419 10.8617 27.3004 10.8617H32.5132C33.0717 10.8617 33.5061 11.2961 33.5061 11.8546V29.2306C33.5061 39.0977 27.983 43.9381 19.233 43.9381C10.4209 43.9381 5.08398 39.0356 5.08398 29.4788ZM41.5115 11.8546C41.5115 11.2961 41.9459 10.8617 42.5044 10.8617H54.8537C62.6109 10.8617 67.3272 15.454 67.3272 22.0941V22.2182C67.3272 29.7271 61.4938 33.6367 54.1711 33.6367H48.7101V42.4488C48.7101 43.0073 48.2757 43.4417 47.7172 43.4417H42.5044C41.9459 43.4417 41.5115 43.0073 41.5115 42.4488V11.8546ZM54.2952 27.3069C57.8945 27.3069 59.9424 25.1969 59.9424 22.4043V22.3423C59.9424 19.1153 57.7083 17.4398 54.109 17.4398H49.5168C48.9583 17.4398 48.5239 17.8742 48.5239 18.4327V26.4381C48.5239 26.9966 48.9583 27.431 49.5168 27.431H54.2952V27.3069ZM72.1056 27.2448V27.1207C72.1056 17.8742 79.056 10.3032 89.1092 10.3032C94.8185 10.3032 97.8592 12.1649 100.962 14.461C101.396 14.7713 101.459 15.3919 101.148 15.8263L98.2316 19.9841C97.9213 20.4185 97.3007 20.4806 96.8663 20.2323C94.384 18.5568 91.9638 16.9433 88.9851 16.9433C83.5241 16.9433 79.5524 21.4735 79.5524 27.0586V27.3069C79.5524 32.892 84.0826 37.6704 89.6677 37.4221C92.7085 37.298 94.6943 36.3672 96.7422 34.3813C97.1146 34.009 97.6731 34.009 98.0454 34.3193L101.521 37.3601C101.893 37.7324 101.955 38.353 101.583 38.7253C98.6039 42.0764 94.6323 44.0002 88.7369 44.0002C79.2421 44.0002 72.1056 36.5533 72.1056 27.2448ZM139.437 37.6704L142.851 34.4434C143.223 34.0711 143.844 34.1331 144.216 34.4434C146.698 36.8016 149.553 37.5463 152.966 37.5463C155.883 37.5463 157.682 36.3672 157.682 34.5055V34.3813C157.682 32.5817 156.565 31.6508 151.104 30.2235C144.526 28.548 140.306 26.7483 140.306 20.2944V20.1703C140.306 14.2749 145.023 10.3653 151.725 10.3653C156.131 10.3653 159.916 11.6685 163.081 13.9025C163.516 14.2128 163.578 14.8334 163.329 15.2678L160.661 19.1153C160.351 19.5497 159.792 19.6118 159.358 19.3635C156.751 17.688 154.207 16.6951 151.663 16.6951C148.932 16.6951 147.505 17.9362 147.505 19.5497V19.6738C147.505 21.7838 148.87 22.5285 154.517 23.9558C161.095 25.6934 164.819 28.0515 164.819 33.6987V33.8228C164.819 40.2768 159.916 43.9381 152.842 43.9381C148.25 43.9381 142.913 42.6349 139.5 39.1597C139.003 38.6633 139.003 38.0427 139.437 37.6704ZM170.094 11.8546C170.094 11.2961 170.528 10.8617 171.087 10.8617H193.675C194.234 10.8617 194.668 11.2961 194.668 11.8546V16.2607C194.668 16.8192 194.234 17.2536 193.675 17.2536H178.161C177.603 17.2536 177.168 17.688 177.168 18.2465V22.9008C177.168 23.4593 177.603 23.8937 178.161 23.8937H191.565C192.124 23.8937 192.558 24.3281 192.558 24.8866V29.2927C192.558 29.8512 192.124 30.2856 191.565 30.2856H178.161C177.603 30.2856 177.168 30.72 177.168 31.2785V36.181C177.168 36.7395 177.603 37.1739 178.161 37.1739H193.924C194.482 37.1739 194.916 37.6083 194.916 38.1668V42.5729C194.916 43.1314 194.482 43.5658 193.924 43.5658H171.087C170.528 43.5658 170.094 43.1314 170.094 42.5729V11.8546Z" fill="#5F5F5F"/>
<path d="M119.105 4.64299C115.512 9.84727 105.289 24.9025 102.005 30.0448C101.572 30.6644 101.757 31.5318 102.315 32.0274C103.12 32.647 104.236 33.5143 105.041 34.1959C105.661 34.6295 106.466 34.6295 107.086 34.1339C112.971 29.0535 114.149 28.1242 117.742 24.8405C119.167 23.5395 121.335 23.5395 122.76 24.8405C127.469 29.0535 129.576 30.6644 133.479 34.1959C134.036 34.6915 134.904 34.7535 135.461 34.2578C136.329 33.5763 137.506 32.7089 138.311 32.0894C138.931 31.5937 139.055 30.7883 138.621 30.1068C135.275 24.9025 125.115 9.90922 121.521 4.70495C121.026 3.77561 119.725 3.77561 119.105 4.64299Z" fill="url(#paint0_linear_121_380)"/>
<defs>
<linearGradient id="paint0_linear_121_380" x1="120.365" y1="3.9714" x2="120.365" y2="29.7227" gradientUnits="userSpaceOnUse">
<stop stop-color="#487BF6"/>
<stop offset="1" stop-color="#0093CB"/>
</linearGradient>
</defs>
</svg>
