<svg width="160" height="56" viewBox="0 0 160 56" fill="none" xmlns="http://www.w3.org/2000/svg">
<path d="M65.4486 24.9789C65.9804 24.9598 66.5108 25.0445 67.0102 25.2284C67.8092 25.5845 68.4616 26.2043 68.8582 26.984V25.2284H71.9352V36.6677C72.0097 37.8928 71.7341 39.1138 71.1405 40.1882C70.2653 41.5069 68.6237 42.1927 66.2156 42.2454L65.9106 42.2487C64.5928 42.2941 63.2881 41.9743 62.1406 41.3247C61.1819 40.7459 60.5753 39.7268 60.5236 38.6081H63.961C64.0128 38.912 64.162 39.1909 64.386 39.4028C64.8933 39.7376 65.4991 39.8907 66.1047 39.837C67.0245 39.9504 67.9231 39.5029 68.387 38.7005C68.6935 37.9444 68.8352 37.1317 68.8028 36.3165V35.5404C68.5574 35.9874 68.2242 36.3802 67.8233 36.6954C67.115 37.2036 66.2544 37.4546 65.3839 37.4069C63.9661 37.4581 62.6034 36.8551 61.6879 35.7714C60.711 34.5099 60.2221 32.9384 60.3111 31.3454C60.2555 29.7323 60.7293 28.1454 61.6602 26.8269C62.5263 25.6065 63.9536 24.9103 65.4486 24.9789ZM142.816 25.099C143.699 25.0741 144.577 25.2208 145.402 25.5299L145.708 25.6534C146.558 26.041 147.279 26.6629 147.787 27.446C148.281 28.1968 148.597 29.0499 148.711 29.9409C148.804 30.735 148.835 31.5351 148.804 32.3341H140.026C139.969 33.3456 140.446 34.313 141.282 34.8843C141.805 35.2 142.409 35.3573 143.019 35.3371C143.649 35.3741 144.27 35.1803 144.766 34.7919C145.038 34.5613 145.261 34.2785 145.422 33.9603H148.637C148.506 34.7193 148.154 35.4208 147.627 35.9782L147.464 36.141C146.274 37.3496 144.62 37.9861 142.927 37.8874C141.378 37.9075 139.871 37.3771 138.677 36.3905C137.445 35.3987 136.829 33.7878 136.829 31.5579C136.716 29.7992 137.32 28.0698 138.501 26.7623C139.645 25.631 141.209 25.0282 142.816 25.099ZM89.1403 24.9327C90.8983 24.8024 92.6135 25.5159 93.7603 26.8547C94.7194 28.0618 95.2535 29.5484 95.285 31.0845V31.3731C95.3173 33.0137 94.771 34.6134 93.7419 35.8915C92.5803 37.2028 90.8673 37.888 89.1218 37.7395C87.3778 37.8777 85.6693 37.1943 84.5017 35.8915C83.5362 34.6812 83.0012 33.187 82.9759 31.6444L82.9771 31.3546C82.9481 29.7117 83.4939 28.1102 84.5202 26.8269C85.6726 25.4985 87.387 24.7956 89.1403 24.9327ZM154.043 22.1699V25.5333H156.002V27.7787H154.043V34.1544C154.003 34.4743 154.068 34.7985 154.228 35.0784C154.587 35.2483 154.988 35.3123 155.383 35.2632H156.002V37.6102L154.514 37.6564C153.017 37.6564 152.001 37.4438 151.456 36.8802C151.067 36.4131 150.875 35.8136 150.92 35.2077V27.8156L149.21 27.7787V25.5333H150.92V22.1699H154.043ZM126.452 25.7551C126.912 26.1449 127.268 26.6436 127.487 27.2058C127.845 26.551 128.379 26.0099 129.03 25.6442C129.705 25.3123 130.449 25.1445 131.201 25.1545C131.729 25.1493 132.252 25.2433 132.744 25.4317C133.3 25.666 133.784 26.042 134.149 26.522C134.506 26.969 134.741 27.5005 134.833 28.0651C134.902 28.5374 134.939 29.0136 134.945 29.4906L134.944 37.4531H131.71V29.7745C131.723 29.3867 131.647 29.001 131.488 28.6472C131.195 28.0767 130.583 27.7432 129.945 27.8064C129.157 27.7189 128.406 28.1584 128.097 28.8875C127.916 29.3236 127.828 29.7924 127.838 30.2643V37.4438H124.659V30.255C124.689 29.728 124.613 29.2004 124.438 28.7027C124.16 28.1049 123.531 27.7515 122.876 27.8249C122.141 27.7169 121.414 28.059 121.028 28.6934C120.828 29.1594 120.739 29.6656 120.769 30.1719V37.4346H117.655V25.4224H120.723V27.1781C121.014 26.6745 121.389 26.2244 121.832 25.8475C123.227 24.9341 125.021 24.8982 126.452 25.7551ZM106.225 25.6442C106.686 26.0335 107.042 26.5323 107.26 27.0949C107.623 26.4464 108.157 25.9096 108.803 25.5426C109.476 25.2048 110.222 25.0367 110.975 25.0528C111.453 25.056 111.928 25.1394 112.378 25.2992L112.601 25.3855C113.691 25.8522 114.475 26.8339 114.689 28.0004C114.75 28.4598 114.784 28.9222 114.792 29.3852L114.791 37.4438H111.557V29.7653C111.571 29.3744 111.495 28.9855 111.335 28.6288C111.04 28.0601 110.43 27.7273 109.792 27.7879C109.009 27.7184 108.267 28.1522 107.944 28.869C107.79 29.2341 107.703 29.6232 107.687 30.0178L107.685 37.4346H104.507V30.255C104.536 29.725 104.46 29.1944 104.285 28.6934C104.008 28.0992 103.384 27.7465 102.732 27.8156C101.998 27.7076 101.27 28.0497 100.884 28.6842C100.689 29.1548 100.601 29.6629 100.626 30.1719V37.4254H97.4287V25.4132H100.496V27.0764C100.784 26.568 101.16 26.1145 101.605 25.7366C103.003 24.832 104.792 24.7962 106.225 25.6442ZM81.4248 24.9882L81.6188 24.9974H81.8868V28.2314C81.6927 28.2314 81.5172 28.2314 81.3601 28.1852H80.9813C79.9606 28.0557 78.9589 28.5367 78.4217 29.4142C78.1424 30.0929 78.0162 30.8248 78.0521 31.5579V37.333H74.8273V25.2654H77.8396V27.3721C78.1773 26.7587 78.6074 26.2008 79.1147 25.7181C79.7711 25.2033 80.5918 24.9439 81.4248 24.9882ZM89.1079 27.6033C88.2851 27.6033 87.5048 27.9688 86.9781 28.601C86.4338 29.4191 86.1711 30.3923 86.2296 31.3731C86.1704 32.3527 86.4297 33.3251 86.9688 34.1451C87.4955 34.7773 88.2758 35.1429 89.0987 35.1429C89.9216 35.1429 90.7019 34.7773 91.2285 34.1451C91.7629 33.323 92.0218 32.3521 91.9678 31.3731C92.0304 30.3945 91.7743 29.4219 91.2378 28.601C90.7111 27.9688 89.9308 27.6033 89.1079 27.6033ZM63.9055 29.2479C63.6673 29.9018 63.5514 30.594 63.5636 31.2899C63.557 31.9231 63.6764 32.5513 63.9147 33.1379C64.2396 34.0438 65.0869 34.6492 66.0376 34.6736L66.2063 34.6718C66.9112 34.694 67.5914 34.4111 68.0728 33.8956V33.8864C68.6422 33.1218 68.9117 32.1751 68.8305 31.2252C68.9009 30.2977 68.6496 29.3743 68.119 28.6103C67.693 28.0601 67.0501 27.7259 66.361 27.6892L66.1878 27.6863C65.1615 27.6309 64.2257 28.2712 63.9055 29.2479ZM140.987 28.37C140.517 28.8813 140.223 29.5285 140.146 30.2181H145.579C145.571 29.4953 145.267 28.8074 144.738 28.3146C144.274 27.9217 143.695 27.6935 143.092 27.6618L142.89 27.6586C142.184 27.6184 141.493 27.8765 140.987 28.37Z" fill="#7D4CDB"/>
<path d="M26.1763 13.2163C34.3414 13.2163 40.9605 19.8354 40.9605 28.0005C40.9605 36.1656 34.3414 42.7847 26.1763 42.7847C18.0112 42.7847 11.3921 36.1656 11.3921 28.0005C11.3921 19.8354 18.0112 13.2163 26.1763 13.2163ZM26.1763 5.82422C13.9287 5.82422 4 15.7529 4 28.0005C4 40.2481 13.9287 50.1768 26.1763 50.1768C38.4239 50.1768 48.3526 40.2481 48.3526 28.0005C48.3526 22.119 46.0162 16.4784 41.8573 12.3195C37.6984 8.16064 32.0578 5.82422 26.1763 5.82422Z" fill="#7D4CDB"/>
</svg>
