<svg width="272" height="48" viewBox="0 0 272 48" fill="none" xmlns="http://www.w3.org/2000/svg">
<path d="M25.6481 21.2715C20.6411 20.0338 15.4653 18.7961 15.6341 14.7455C15.7466 11.595 19.1221 8.78201 25.5919 6.47539C27.2796 5.85655 28.9112 5.35021 30.3739 5.01266C28.4048 4.39381 26.3232 4 24.1854 4C13.1024 4 4.15723 12.9452 4.15723 23.9719C4.15723 28.1351 5.45118 32.017 7.64528 35.2237C15.8028 36.9677 25.3668 35.0549 30.1489 31.3981C39.0378 24.5908 29.8676 22.2842 25.6481 21.2715ZM34.4808 6.86921C30.824 7.26302 27.2796 8.1069 23.9041 9.51338C20.5286 11.0324 17.9407 12.8327 17.8281 14.8017C17.7156 17.0521 21.9913 18.121 26.1545 19.1337C28.5736 19.6962 31.049 20.3151 32.9055 21.2152C35.3247 22.3967 39.6004 24.8721 33.9745 32.6358C29.305 38.3742 22.7227 41.4122 15.7466 42.0873C18.2782 43.2687 21.0912 43.8876 24.1292 43.8876C35.1559 43.9438 44.1011 34.9987 44.1011 23.9719C44.1011 16.7145 40.2755 10.3573 34.4808 6.86921Z" fill="#002856"/>
<path d="M54.2273 28.8663C55.5212 29.5976 57.4903 30.2728 59.5719 30.2728C62.1598 30.2728 63.5663 29.0913 63.5663 27.291C63.5663 25.6033 62.4411 24.6469 59.6281 23.6342C56.0276 22.3402 53.6647 20.4274 53.6647 17.2207C53.6647 13.6201 56.6464 10.8634 61.4284 10.8634C63.7913 10.8634 65.5916 11.3697 66.7168 11.9886L65.7604 15.1954C64.9727 14.7453 63.4538 14.1264 61.3722 14.1264C58.8405 14.1264 57.7153 15.4766 57.7153 16.7706C57.7153 18.4584 59.0093 19.246 61.9348 20.3712C65.7604 21.8339 67.6169 23.7467 67.6169 26.8972C67.6169 30.4415 64.9165 33.4795 59.2906 33.4795C56.984 33.4795 54.5648 32.8044 53.3271 32.1293L54.2273 28.8663Z" fill="black"/>
<path d="M75.3244 12.8887C75.3244 14.0702 74.4242 15.0266 73.0178 15.0266C71.6676 15.0266 70.8237 14.0702 70.8237 12.8887C70.8237 11.651 71.7238 10.6946 73.074 10.6946C74.4242 10.6946 75.2681 11.651 75.3244 12.8887ZM71.0487 33.2545V17.3332H75.0994V33.1982H71.0487V33.2545Z" fill="black"/>
<path d="M93.9461 28.7538C93.9461 30.3853 94.0024 32.1293 94.0586 33.1982H90.458L90.2893 30.6666H90.233C89.2766 32.4106 87.3638 33.5358 85.0572 33.5358C81.2878 33.5358 78.2499 30.329 78.2499 25.4345C78.1936 20.0899 81.5691 16.9394 85.3385 16.9394C87.5326 16.9394 89.1078 17.8395 89.7829 19.021H89.8392V10.0195H93.9461V28.7538ZM89.9517 23.9717C89.9517 23.6342 89.8955 23.2404 89.8392 22.9028C89.5016 21.3276 88.2077 20.0899 86.4074 20.0899C83.8195 20.0899 82.413 22.3965 82.413 25.322C82.413 28.2474 83.8757 30.329 86.4074 30.329C88.0389 30.329 89.5016 29.2038 89.8392 27.5161C89.9517 27.1785 89.9517 26.7847 89.9517 26.3346V23.9717Z" fill="black"/>
<path d="M98.278 22.4528C98.278 20.3149 98.2218 18.7397 98.1655 17.3332H101.654L101.766 20.3712H101.879C102.666 18.1208 104.523 16.9956 106.211 16.9956C106.604 16.9956 106.829 17.0519 107.167 17.1082V20.8775C106.829 20.8212 106.492 20.765 105.986 20.765C104.073 20.765 102.779 22.0027 102.385 23.803C102.329 24.1405 102.272 24.5906 102.272 25.0407V33.2545H98.278V22.4528Z" fill="black"/>
<path d="M118.531 33.2545L118.25 31.5104H118.137C117.181 32.7481 115.493 33.6483 113.412 33.6483C110.205 33.6483 108.405 31.3417 108.405 28.9225C108.405 24.9282 111.949 22.9028 117.856 22.9028V22.6215C117.856 21.5526 117.406 19.8648 114.649 19.8648C113.074 19.8648 111.443 20.3712 110.374 21.0463L109.586 18.4584C110.768 17.727 112.793 17.0519 115.325 17.0519C120.388 17.0519 121.907 20.2587 121.907 23.7467V29.4851C121.907 30.9479 121.963 32.2981 122.132 33.3107H118.531V33.2545ZM117.969 25.4907C115.156 25.4345 112.399 26.0533 112.399 28.4725C112.399 30.0477 113.412 30.7791 114.706 30.7791C116.281 30.7791 117.462 29.7102 117.856 28.585C117.969 28.3037 117.969 27.9661 117.969 27.6848V25.4907Z" fill="black"/>
<path d="M126.126 22.0589C126.126 20.2587 126.07 18.6834 126.014 17.3332H129.558L129.727 19.6961H129.839C130.514 18.4584 132.258 16.9394 134.903 16.9394C137.659 16.9394 140.529 18.7397 140.529 23.7467V33.1982H136.534V24.253C136.534 21.9464 135.69 20.2587 133.496 20.2587C131.921 20.2587 130.796 21.3838 130.346 22.6215C130.233 22.9591 130.177 23.4654 130.177 23.9155V33.2545H126.126V22.0589Z" fill="black"/>
<path d="M155.718 11.2572V33.2545H151.724V11.2572H155.718Z" fill="black"/>
<path d="M160.219 22.0589C160.219 20.2587 160.163 18.6834 160.107 17.3332H163.651L163.82 19.6961H163.932C164.607 18.4584 166.351 16.9394 168.996 16.9394C171.752 16.9394 174.621 18.7397 174.621 23.7467V33.1982H170.627V24.253C170.627 21.9464 169.783 20.2587 167.589 20.2587C166.014 20.2587 164.889 21.3838 164.439 22.6215C164.326 22.9591 164.27 23.4654 164.27 23.9155V33.2545H160.219V22.0589Z" fill="black"/>
<path d="M178.672 29.5414C179.572 30.104 181.316 30.6666 182.723 30.6666C184.467 30.6666 185.254 29.9352 185.254 28.9225C185.254 27.8536 184.579 27.291 182.666 26.6159C179.572 25.547 178.278 23.8592 178.278 22.0027C178.278 19.1897 180.585 16.9956 184.298 16.9956C186.042 16.9956 187.617 17.4457 188.517 17.952L187.73 20.765C187.055 20.3712 185.761 19.8648 184.354 19.8648C182.891 19.8648 182.16 20.54 182.16 21.5526C182.16 22.5653 182.891 23.0716 184.917 23.7467C187.786 24.8156 189.136 26.2784 189.136 28.585C189.136 31.4542 186.886 33.5358 182.666 33.5358C180.754 33.5358 179.01 33.0857 177.828 32.4106L178.672 29.5414Z" fill="black"/>
<path d="M197.069 12.8325V17.3895H200.894V20.3712H197.069V27.4035C197.069 29.3163 197.575 30.329 199.15 30.329C199.825 30.329 200.332 30.2165 200.726 30.1602L200.782 33.2545C200.219 33.4795 199.15 33.6483 197.856 33.6483C196.394 33.6483 195.156 33.142 194.425 32.3543C193.581 31.4542 193.187 29.9915 193.187 27.9099V20.3149H190.88V17.3332H193.187V13.7326L197.069 12.8325Z" fill="black"/>
<path d="M208.264 12.8887C208.264 14.0702 207.364 15.0266 205.958 15.0266C204.607 15.0266 203.764 14.0702 203.764 12.8887C203.764 11.651 204.664 10.6946 206.014 10.6946C207.364 10.6946 208.208 11.651 208.264 12.8887ZM203.989 33.2545V17.3332H208.039V33.1982H203.989V33.2545Z" fill="black"/>
<path d="M217.153 12.8325V17.3895H220.979V20.3712H217.153V27.4035C217.153 29.3163 217.66 30.329 219.235 30.329C219.91 30.329 220.416 30.2165 220.81 30.1602L220.866 33.2545C220.304 33.4795 219.235 33.6483 217.941 33.6483C216.478 33.6483 215.24 33.142 214.509 32.3543C213.665 31.4542 213.271 29.9915 213.271 27.9099V20.3149H210.965V17.3332H213.271V13.7326L217.153 12.8325Z" fill="black"/>
<path d="M238.25 28.4725C238.25 30.3853 238.307 31.9043 238.363 33.2545H234.818L234.65 30.8353H234.593C233.918 31.9605 232.343 33.592 229.53 33.592C226.605 33.592 223.961 31.848 223.961 26.6722V17.3332H227.955V25.9971C227.955 28.6412 228.799 30.329 230.937 30.329C232.512 30.329 233.581 29.2038 234.031 28.1912C234.143 27.8536 234.256 27.4035 234.256 26.9535V17.3332H238.25V28.4725Z" fill="black"/>
<path d="M247.195 12.8325V17.3895H251.021V20.3712H247.195V27.4035C247.195 29.3163 247.702 30.329 249.277 30.329C249.952 30.329 250.458 30.2165 250.852 30.1602L250.909 33.2545C250.346 33.4795 249.277 33.6483 247.983 33.6483C246.52 33.6483 245.283 33.142 244.551 32.3543C243.707 31.4542 243.314 29.9915 243.314 27.9099V20.3149H241.007V17.3332H243.314V13.7326L247.195 12.8325Z" fill="black"/>
<path d="M256.647 26.3909C256.759 29.2601 259.01 30.4978 261.541 30.4978C263.398 30.4978 264.748 30.2165 265.93 29.7664L266.492 32.5231C265.142 33.0857 263.229 33.4795 260.923 33.4795C255.747 33.4795 252.709 30.329 252.709 25.4345C252.709 21.0463 255.409 16.8831 260.473 16.8831C265.648 16.8831 267.336 21.1025 267.336 24.5906C267.336 25.322 267.28 25.9408 267.224 26.2784H256.647V26.3909ZM263.623 23.5779C263.679 22.1152 263.004 19.6961 260.304 19.6961C257.828 19.6961 256.759 21.9464 256.591 23.5779H263.623Z" fill="black"/>
<path d="M54.9594 39.387H53.4404V38.5993H57.4348V39.387H55.9158V43.8877H54.9594V39.387Z" fill="#406CB4"/>
<path d="M59.6852 38.6556C60.0227 38.5993 60.5853 38.5431 61.1479 38.5431C61.9355 38.5431 62.4419 38.6556 62.7794 38.9931C63.0607 39.2182 63.2295 39.612 63.2295 40.0621C63.2295 40.7372 62.7794 41.1872 62.2731 41.4123C62.6669 41.5811 62.8919 41.9186 63.0044 42.4249C63.1732 43.1 63.2857 43.7189 63.3983 43.8877H62.3856C62.3293 43.7189 62.1606 43.2688 62.048 42.65C61.8793 41.9749 61.6542 41.7498 61.0916 41.6936H60.5853V43.8877H59.6289V38.6556H59.6852ZM60.6416 41.0185H61.2042C61.8793 41.0185 62.2731 40.6809 62.2731 40.1183C62.2731 39.5557 61.8793 39.2744 61.2604 39.2744C60.9791 39.2744 60.7541 39.2744 60.6416 39.3307V41.0185Z" fill="#406CB4"/>
<path d="M66.8863 42.3687L66.4362 43.8877H65.4236L67.1114 38.5993H68.349L70.0931 43.8877H69.0804L68.5741 42.3687H66.8863ZM68.4053 41.6373L68.0115 40.3434C67.899 40.0058 67.8427 39.6683 67.7302 39.3307C67.6739 39.612 67.5614 40.0058 67.5052 40.3434L67.1114 41.6373H68.4053Z" fill="#406CB4"/>
<path d="M73.1311 38.5993V41.6936C73.1311 42.7062 73.5811 43.2126 74.2 43.2126C74.8751 43.2126 75.3252 42.7062 75.3252 41.6936V38.5993H76.2816V41.6373C76.2816 43.2688 75.4377 44.0002 74.1437 44.0002C72.906 44.0002 72.1184 43.3251 72.1184 41.6373V38.5993H73.1311Z" fill="#406CB4"/>
<path d="M83.4827 41.7498C83.4264 41.0747 83.4264 40.2308 83.4264 39.4995C83.2577 40.1183 83.0326 40.8497 82.8076 41.5248L82.02 43.8314H81.2323L80.501 41.5811C80.2759 40.906 80.1072 40.1746 79.9384 39.4995C79.9384 40.1746 79.8821 41.0185 79.8259 41.7498L79.7134 43.8877H78.8132L79.1508 38.5993H80.4447L81.1198 40.7372C81.2886 41.356 81.4574 41.9749 81.6262 42.5937C81.7949 42.0311 81.9637 41.356 82.1325 40.7372L82.8639 38.5993H84.1016L84.3829 43.8877H83.4264L83.4827 41.7498Z" fill="#406CB4"/>
<path d="M88.1522 42.3687L87.7021 43.8877H86.6895L88.3772 38.5993H89.6149L91.359 43.8877H90.3463L89.84 42.3687H88.1522ZM89.6712 41.6373L89.2774 40.3434C89.1649 40.0058 89.1086 39.6683 88.9961 39.3307C88.9398 39.612 88.8273 40.0058 88.771 40.3434L88.3772 41.6373H89.6712Z" fill="#406CB4"/>
<path d="M94.0594 39.387H92.5404V38.5993H96.5348V39.387H95.0158V43.8877H94.0594V39.387Z" fill="#406CB4"/>
<path d="M99.7415 38.5993V43.8877H98.7851V38.5993H99.7415Z" fill="#406CB4"/>
<path d="M106.268 43.7189C106.043 43.8314 105.536 43.9439 104.917 43.9439C103.23 43.9439 102.217 42.875 102.217 41.2998C102.217 39.5557 103.455 38.4868 105.03 38.4868C105.649 38.4868 106.099 38.5993 106.324 38.7119L106.099 39.4995C105.874 39.387 105.48 39.2744 105.086 39.2744C104.017 39.2744 103.23 39.9495 103.23 41.2435C103.23 42.4249 103.905 43.1563 105.086 43.1563C105.48 43.1563 105.874 43.1001 106.155 42.9313L106.268 43.7189Z" fill="#406CB4"/>
<path d="M111.893 42.8188C112.231 42.9875 112.681 43.1563 113.187 43.1563C113.806 43.1563 114.144 42.875 114.144 42.4249C114.144 42.0311 113.863 41.8061 113.187 41.5248C112.287 41.1872 111.781 40.7372 111.781 40.0058C111.781 39.1619 112.512 38.4868 113.638 38.4868C114.2 38.4868 114.65 38.5993 114.931 38.7681L114.706 39.5557C114.538 39.4432 114.144 39.3307 113.638 39.3307C113.019 39.3307 112.737 39.6683 112.737 39.9495C112.737 40.3434 113.019 40.5684 113.75 40.8497C114.65 41.1872 115.1 41.6373 115.1 42.4249C115.1 43.2688 114.481 44.0002 113.075 44.0002C112.512 44.0002 111.95 43.8314 111.668 43.6626L111.893 42.8188Z" fill="#406CB4"/>
<path d="M118.588 39.387H117.069V38.5993H121.064V39.387H119.545V43.8877H118.588V39.387Z" fill="#406CB4"/>
<path d="M123.314 38.6556C123.652 38.5993 124.214 38.5431 124.777 38.5431C125.564 38.5431 126.071 38.6556 126.408 38.9931C126.69 39.2182 126.858 39.612 126.858 40.0621C126.858 40.7372 126.408 41.1872 125.902 41.4123C126.296 41.5811 126.521 41.9186 126.633 42.4249C126.802 43.1 126.915 43.7189 127.027 43.8877H126.014C125.958 43.7189 125.789 43.2688 125.677 42.65C125.508 41.9749 125.283 41.7498 124.721 41.6936H124.214V43.8877H123.258V38.6556H123.314ZM124.27 41.0185H124.833C125.508 41.0185 125.902 40.6809 125.902 40.1183C125.902 39.5557 125.508 39.2744 124.889 39.2744C124.608 39.2744 124.383 39.2744 124.27 39.3307V41.0185Z" fill="#406CB4"/>
<path d="M132.372 41.5248H130.346V43.1H132.597V43.8877H129.39V38.5993H132.484V39.387H130.346V40.7372H132.372V41.5248Z" fill="#406CB4"/>
<path d="M135.016 42.8188C135.353 42.9875 135.804 43.1563 136.31 43.1563C136.929 43.1563 137.266 42.875 137.266 42.4249C137.266 42.0311 136.985 41.8061 136.31 41.5248C135.41 41.1872 134.903 40.7372 134.903 40.0058C134.903 39.1619 135.635 38.4868 136.76 38.4868C137.323 38.4868 137.773 38.5993 138.054 38.7681L137.829 39.5557C137.66 39.4432 137.266 39.3307 136.76 39.3307C136.141 39.3307 135.86 39.6683 135.86 39.9495C135.86 40.3434 136.141 40.5684 136.872 40.8497C137.773 41.1872 138.223 41.6373 138.223 42.4249C138.223 43.2688 137.604 44.0002 136.197 44.0002C135.635 44.0002 135.072 43.8314 134.791 43.6626L135.016 42.8188Z" fill="#406CB4"/>
<path d="M140.754 42.8188C141.092 42.9875 141.542 43.1563 142.048 43.1563C142.667 43.1563 143.005 42.875 143.005 42.4249C143.005 42.0311 142.723 41.8061 142.048 41.5248C141.148 41.1872 140.642 40.7372 140.642 40.0058C140.642 39.1619 141.373 38.4868 142.498 38.4868C143.061 38.4868 143.511 38.5993 143.792 38.7681L143.567 39.5557C143.398 39.4432 143.005 39.3307 142.498 39.3307C141.879 39.3307 141.598 39.6683 141.598 39.9495C141.598 40.3434 141.879 40.5684 142.611 40.8497C143.511 41.1872 143.961 41.6373 143.961 42.4249C143.961 43.2688 143.342 44.0002 141.936 44.0002C141.373 44.0002 140.811 43.8314 140.529 43.6626L140.754 42.8188Z" fill="#406CB4"/>
<path d="M152.625 41.5248H150.6V43.1H152.85V43.8877H149.643V38.5993H152.737V39.387H150.6V40.7372H152.625V41.5248Z" fill="#406CB4"/>
<path d="M155.325 38.6556C155.775 38.5993 156.282 38.5431 156.844 38.5431C157.857 38.5431 158.532 38.7681 159.038 39.1619C159.545 39.5557 159.882 40.2308 159.882 41.131C159.882 42.0874 159.545 42.7625 159.038 43.2688C158.532 43.7752 157.688 44.0002 156.619 44.0002C156.057 44.0002 155.607 43.9439 155.325 43.9439V38.6556ZM156.282 43.1563C156.394 43.1563 156.619 43.1563 156.844 43.1563C158.082 43.1563 158.87 42.4812 158.87 41.131C158.87 39.9495 158.195 39.2744 157.013 39.2744C156.732 39.2744 156.507 39.2744 156.338 39.3307V43.1563H156.282Z" fill="#406CB4"/>
<path d="M163.258 38.5993V41.6936C163.258 42.7062 163.708 43.2126 164.327 43.2126C165.002 43.2126 165.452 42.7062 165.452 41.6936V38.5993H166.408V41.6373C166.408 43.2688 165.564 44.0002 164.271 44.0002C163.033 44.0002 162.245 43.3251 162.245 41.6373V38.5993H163.258Z" fill="#406CB4"/>
<path d="M172.934 43.7189C172.709 43.8314 172.203 43.9439 171.584 43.9439C169.896 43.9439 168.884 42.875 168.884 41.2998C168.884 39.5557 170.121 38.4868 171.697 38.4868C172.316 38.4868 172.766 38.5993 172.991 38.7119L172.766 39.4995C172.541 39.387 172.147 39.2744 171.753 39.2744C170.684 39.2744 169.896 39.9495 169.896 41.2435C169.896 42.4249 170.572 43.1563 171.753 43.1563C172.147 43.1563 172.541 43.1001 172.822 42.9313L172.934 43.7189Z" fill="#406CB4"/>
<path d="M176.479 42.3687L176.029 43.8877H175.016L176.704 38.5993H177.941L179.685 43.8877H178.673L178.166 42.3687H176.479ZM177.998 41.6373L177.604 40.3434C177.491 40.0058 177.435 39.6683 177.323 39.3307C177.266 39.612 177.154 40.0058 177.098 40.3434L176.704 41.6373H177.998Z" fill="#406CB4"/>
<path d="M182.442 39.387H180.923V38.5993H184.918V39.387H183.399V43.8877H182.442V39.387Z" fill="#406CB4"/>
<path d="M188.124 38.5993V43.8877H187.168V38.5993H188.124Z" fill="#406CB4"/>
<path d="M195.551 41.1872C195.551 42.9875 194.482 44.0002 193.019 44.0002C191.5 44.0002 190.6 42.875 190.6 41.2998C190.6 39.6683 191.612 38.5431 193.131 38.5431C194.594 38.4868 195.551 39.6683 195.551 41.1872ZM191.556 41.2435C191.556 42.3124 192.119 43.1563 193.019 43.1563C193.975 43.1563 194.482 42.3124 194.482 41.1872C194.482 40.1746 193.975 39.2182 193.019 39.2182C192.062 39.2744 191.556 40.1746 191.556 41.2435Z" fill="#406CB4"/>
<path d="M197.97 43.8877V38.5993H199.095L200.445 40.8497C200.783 41.4685 201.12 42.0311 201.345 42.65C201.289 41.9186 201.233 41.2435 201.233 40.4559V38.5993H202.133V43.8877H201.12L199.714 41.5811C199.376 41.0185 199.039 40.3434 198.757 39.7245C198.814 40.3996 198.814 41.131 198.814 41.9749V43.8877H197.97Z" fill="#406CB4"/>
<path d="M211.472 43.8877C211.359 43.7752 211.19 43.6064 211.078 43.4376C210.684 43.7752 210.178 43.9439 209.559 43.9439C208.378 43.9439 207.815 43.2126 207.815 42.4249C207.815 41.6936 208.209 41.1872 208.828 40.906C208.603 40.6247 208.378 40.2308 208.378 39.837C208.378 39.1619 208.884 38.4868 209.84 38.4868C210.572 38.4868 211.134 38.9369 211.134 39.6683C211.134 40.2308 210.797 40.6809 210.065 41.0747V41.131C210.459 41.5811 210.853 42.0311 211.134 42.3687C211.359 42.0311 211.528 41.5248 211.641 40.9622H212.484C212.316 41.8061 212.091 42.4249 211.641 42.9313C211.922 43.2688 212.203 43.5501 212.541 43.9439H211.472V43.8877ZM210.572 42.9313C210.234 42.5937 209.728 42.0311 209.221 41.4685C208.996 41.6373 208.659 41.9186 208.659 42.3687C208.659 42.875 209.053 43.3251 209.615 43.3251C210.065 43.2688 210.403 43.1001 210.572 42.9313ZM209.278 39.7808C209.278 40.1183 209.446 40.3434 209.671 40.6247C210.122 40.3434 210.403 40.1183 210.403 39.7245C210.403 39.4432 210.234 39.1057 209.897 39.1057C209.559 39.1057 209.278 39.4432 209.278 39.7808Z" fill="#406CB4"/>
<path d="M219.067 42.3687L218.617 43.8877H217.604L219.292 38.5993H220.529L222.274 43.8877H221.261L220.755 42.3687H219.067ZM220.586 41.6373L220.192 40.3434C220.079 40.0058 220.023 39.6683 219.911 39.3307C219.854 39.612 219.742 40.0058 219.686 40.3434L219.292 41.6373H220.586Z" fill="#406CB4"/>
<path d="M224.636 38.6556C225.086 38.5993 225.593 38.5431 226.155 38.5431C227.168 38.5431 227.843 38.7681 228.349 39.1619C228.856 39.5557 229.193 40.2308 229.193 41.131C229.193 42.0874 228.856 42.7625 228.349 43.2688C227.843 43.7752 226.999 44.0002 225.93 44.0002C225.368 44.0002 224.918 43.9439 224.636 43.9439V38.6556ZM225.593 43.1563C225.705 43.1563 225.93 43.1563 226.155 43.1563C227.393 43.1563 228.181 42.4812 228.181 41.131C228.181 39.9495 227.506 39.2744 226.324 39.2744C226.043 39.2744 225.818 39.2744 225.649 39.3307V43.1563H225.593Z" fill="#406CB4"/>
<path d="M232.794 43.8877L231.05 38.5993H232.119L232.85 41.0185C233.075 41.6936 233.244 42.3124 233.357 42.9313C233.525 42.3124 233.694 41.6373 233.919 41.0185L234.707 38.5993H235.719L233.863 43.8877H232.794Z" fill="#406CB4"/>
<path d="M242.583 41.1872C242.583 42.9875 241.514 44.0002 240.051 44.0002C238.532 44.0002 237.632 42.875 237.632 41.2998C237.632 39.6683 238.645 38.5431 240.164 38.5431C241.683 38.4868 242.583 39.6683 242.583 41.1872ZM238.645 41.2435C238.645 42.3124 239.207 43.1563 240.108 43.1563C241.064 43.1563 241.57 42.3124 241.57 41.1872C241.57 40.1746 241.064 39.2182 240.108 39.2182C239.151 39.2744 238.645 40.1746 238.645 41.2435Z" fill="#406CB4"/>
<path d="M248.828 43.7189C248.603 43.8314 248.096 43.9439 247.478 43.9439C245.79 43.9439 244.777 42.875 244.777 41.2998C244.777 39.5557 246.015 38.4868 247.59 38.4868C248.209 38.4868 248.659 38.5993 248.884 38.7119L248.659 39.4995C248.434 39.387 248.04 39.2744 247.646 39.2744C246.577 39.2744 245.79 39.9495 245.79 41.2435C245.79 42.4249 246.465 43.1563 247.646 43.1563C248.04 43.1563 248.434 43.1001 248.715 42.9313L248.828 43.7189Z" fill="#406CB4"/>
<path d="M252.372 42.3687L251.922 43.8877H250.909L252.597 38.5993H253.835L255.579 43.8877H254.51L254.004 42.3687H252.372ZM253.891 41.6373L253.497 40.3434C253.385 40.0058 253.328 39.6683 253.216 39.3307C253.16 39.612 253.047 40.0058 252.991 40.3434L252.597 41.6373H253.891Z" fill="#406CB4"/>
<path d="M261.542 43.7189C261.317 43.8314 260.811 43.9439 260.192 43.9439C258.504 43.9439 257.492 42.875 257.492 41.2998C257.492 39.5557 258.729 38.4868 260.305 38.4868C260.923 38.4868 261.373 38.5993 261.599 38.7119L261.373 39.4995C261.148 39.387 260.755 39.2744 260.361 39.2744C259.292 39.2744 258.504 39.9495 258.504 41.2435C258.504 42.4249 259.179 43.1563 260.361 43.1563C260.755 43.1563 261.148 43.1001 261.43 42.9313L261.542 43.7189Z" fill="#406CB4"/>
<path d="M265.199 41.6936L263.511 38.5993H264.636L265.255 39.9495C265.424 40.3434 265.593 40.6247 265.705 41.0185C265.818 40.6809 265.987 40.3434 266.155 39.9495L266.774 38.5993H267.843L266.099 41.6936V43.9439H265.199V41.6936Z" fill="#406CB4"/>
</svg>
