<svg width="176" height="48" viewBox="0 0 176 48" fill="none" xmlns="http://www.w3.org/2000/svg">
<path fill-rule="evenodd" clip-rule="evenodd" d="M71.4286 5.44448C71.1233 4.79494 70.4683 4.40771 69.6768 4.40771H66.6185C65.7301 4.40771 65.0661 4.76546 64.7164 5.4095L60.1836 12.0323L64.1518 17.4589L71.0798 7.521C71.8403 6.59715 71.577 5.76075 71.4286 5.44448Z" fill="#74BB11"/>
<path fill-rule="evenodd" clip-rule="evenodd" d="M47.5322 5.33407L47.5282 5.32807C46.8372 4.40723 45.9178 4.40723 45.6155 4.40723H42.6242C41.8577 4.40723 41.2301 4.75948 40.9024 5.37254C40.5651 6.00059 40.6366 6.75505 41.1032 7.45406L52.1848 22.8161L39.4419 40.5894C38.9967 41.258 38.9343 42.0009 39.2705 42.6285C39.6003 43.2416 40.2284 43.5928 40.9933 43.5928H44.0511C44.8376 43.5928 45.5291 43.1846 45.8748 42.5416L60.1382 22.8871L47.5322 5.33407Z" fill="#009CD9"/>
<path fill-rule="evenodd" clip-rule="evenodd" d="M72.9498 40.7448L64.0591 28.5435L60.1484 33.9346L67.1794 43.3184L67.3623 43.3984C67.6413 43.5238 67.9433 43.5898 68.2492 43.5922H71.2395C71.962 43.5922 72.5751 43.2715 72.9223 42.7109C73.2781 42.1363 73.2881 41.4203 72.9498 40.7448Z" fill="#EB2084"/>
<path fill-rule="evenodd" clip-rule="evenodd" d="M156.516 4.0005C149.666 4.0005 145.796 5.32306 143.574 8.42235C141.253 11.6595 140.786 16.7694 140.786 23.9663C140.786 38.0942 142.972 44 156.516 44C158.143 44 163.703 43.969 166.95 43.5728C168.213 43.3635 168.778 42.3961 168.778 41.5308V39.9704C168.778 38.7562 167.861 37.8399 166.643 37.8399H156.516C148.874 37.8399 147.496 36.0387 147.3 25.798V22.4828C147.365 12.0033 148.743 10.1606 156.516 10.1606C163.683 10.1606 165.058 11.7959 165.296 21.0219H153.907V27.2504H168.887C171.837 27.2504 171.837 25.1869 171.837 24.5094V22.5208C171.623 8.15454 168.186 4.0005 156.516 4.0005ZM136.792 4.54961L136.629 4.50664C135.234 4.21335 131.422 4.0005 129.532 4.0005C122.843 4.0005 119.308 6.80101 119.308 12.0992V41.5982C119.308 42.8123 120.157 43.6607 121.375 43.6607H123.754C124.972 43.6607 125.822 42.8128 125.822 41.5982V12.6408C125.822 11.3333 126.153 10.1606 130.144 10.1606L136.054 10.1556C136.632 10.2246 137.184 10.0647 137.61 9.70444C138.074 9.31321 138.329 8.74212 138.329 8.09808V6.60564C138.329 5.62634 137.768 4.87688 136.792 4.54961ZM108.226 4.47566H105.847C104.63 4.47566 103.78 5.32356 103.78 6.53819V37.8404H93.8847C87.764 37.8404 85.2808 37.4512 85.2808 27.6961V6.53819C85.2808 5.32406 84.4304 4.47566 83.2133 4.47566H80.9014C79.6843 4.47566 78.7665 5.36203 78.7665 6.53819V27.6961C78.7665 41.5602 83.7949 44 94.3603 44C98.1611 44 103.366 44 108.33 43.301L108.445 43.278C109.671 42.9717 110.293 42.2697 110.293 41.1915V6.53819C110.293 5.32406 109.443 4.47566 108.226 4.47566Z" fill="#272727"/>
<path fill-rule="evenodd" clip-rule="evenodd" d="M27.6799 26.9786V37.3402C24.652 37.8049 20.0368 37.9078 18.4639 37.9078C11.5059 37.9078 10.7434 36.0067 10.7434 31.9691C10.7434 28.1908 12.1574 26.9781 16.5608 26.9781L27.6799 26.9786ZM18.1242 4C15.9742 4 13.0423 4.05596 9.39438 4.49465L9.2295 4.53112C8.16676 4.83341 7.62864 5.53141 7.62864 6.60564V8.09758C7.62864 9.36967 8.42058 10.1601 9.69567 10.1601H18.1247C24.9113 10.1601 27.6799 11.9988 27.6799 16.5061V20.8865H16.5608C7.87047 20.8865 4.16211 24.2006 4.16211 31.9686C4.16211 40.6264 8.00037 44 17.8524 44C21.843 44 29.1888 43.6897 31.9038 42.8618C34.1932 42.2263 34.1932 40.4775 34.1932 39.9029V16.0999C34.1932 7.95818 28.937 4 18.1247 4H18.1242Z" fill="#272727"/>
</svg>
