<svg width="176" height="48" viewBox="0 0 176 48" fill="none" xmlns="http://www.w3.org/2000/svg">
<path fill-rule="evenodd" clip-rule="evenodd" d="M33.0697 24.6581L33.0404 24.9018L32.9625 25.1163L31.1024 28.3432L28.9245 32.1062L28.754 32.3889L28.5412 32.623L28.3054 32.8375L28.0623 33.0033L27.7505 33.1497L27.4728 33.247L27.1304 33.3249L26.8176 33.3542H18.7327L18.5611 33.3249L18.3906 33.2862L18.2483 33.1787L18.1129 33.0812L18.0065 32.974L17.9363 32.7985L17.8711 32.623V32.243L17.9714 32.038L20.0783 28.3432L21.9782 25.0091L22.1556 24.7653L22.3623 24.5216L22.6041 24.3168L22.881 24.112L23.1529 23.9755L23.466 23.8683L23.7789 23.8H32.3871L32.5139 23.8683L32.6894 23.9366L32.7967 24.0341L32.9332 24.1803L33.0014 24.3168L33.0404 24.4923L33.0697 24.6581ZM33.0697 21.8211L33.0404 21.5774L32.9625 21.3629L31.1024 18.1263L28.9245 14.3437L28.754 14.1L28.5412 13.8562L28.3054 13.6418L28.0623 13.4663L27.7505 13.3298L27.4728 13.2226L27.1304 13.1543L26.8176 13.125H18.7327L18.5611 13.1543L18.3906 13.1933L18.2483 13.2615L18.1129 13.3591L18.0065 13.5055L17.9363 13.6807L17.8711 13.8173V14.2365L17.9714 14.4412L20.0783 18.1263L21.9782 21.4702L22.1556 21.7142L22.3623 21.9579L22.6041 22.1624L22.881 22.3382L23.1529 22.4747L23.466 22.5819L23.7789 22.6502L24.121 22.6795H32.2058L32.3871 22.6502L32.5139 22.6112L32.6894 22.5429L32.7967 22.4357L32.9332 22.2992L33.0014 22.1627L33.0404 21.9969L33.0697 21.8211Z" fill="#94C039"/>
<path fill-rule="evenodd" clip-rule="evenodd" d="M45.4698 24.6288L45.4405 24.8726L45.3333 25.087L43.4909 28.3239L41.3069 32.0869L41.1314 32.3696L40.9269 32.6133L40.6829 32.8178L40.4391 32.9936L40.1175 33.1398L39.8154 33.2373L39.5032 33.3153L39.1522 33.3446H31.0618L30.8844 33.3153L30.7117 33.2763L30.5694 33.1691L30.4329 33.0715L30.3325 32.9643L30.2253 32.7888L30.1902 32.6133L30.1543 32.4379L30.1902 32.2234L30.2966 32.0186L32.4162 28.3239L34.3269 24.9801L34.4927 24.736L34.7071 24.4923L34.9509 24.2878L35.2239 24.0827L35.5066 23.9462L35.8183 23.839L36.1306 23.7708H44.7775L44.914 23.839L45.0895 23.9073L45.1968 24.0048L45.2943 24.1513L45.4015 24.2875L45.4402 24.463L45.4698 24.6288ZM30.1543 35.3235L30.1902 35.5379L30.2966 35.7524L32.1363 38.989L34.3269 42.7813L34.4927 43.064L34.7071 43.2688L34.9509 43.4832L35.2239 43.6977L35.5066 43.8342L35.8186 43.9317L36.1303 44H44.7778L44.9143 43.9317L45.0898 43.8635L45.197 43.7562L45.2946 43.6197L45.4018 43.4832L45.4405 43.3077L45.4701 43.1322L45.4408 42.8885L45.3335 42.713L43.2178 38.989L41.3072 35.6744L41.1317 35.4014L40.9269 35.1577L40.6832 34.9432L40.4394 34.7774L40.1178 34.6409L39.8154 34.5337L39.5034 34.4557L39.1525 34.4265H31.0618L30.8844 34.4557L30.7117 34.4944L30.5694 34.6019L30.4329 34.6995L30.3325 34.8457L30.2253 34.9822L30.1902 35.1577L30.1543 35.3235Z" fill="#D4247B"/>
<path fill-rule="evenodd" clip-rule="evenodd" d="M17.027 15.0456L21.0592 22.0942L21.2015 22.3672L21.3029 22.6889L21.3739 23.0398V23.6542L21.3029 23.9758L21.2015 24.2781L21.0592 24.5608L19.1115 27.856L16.991 31.5411L16.8545 31.7069L16.647 31.8434L16.5105 31.9214L16.338 31.9507H16.1606L15.9882 31.9214L15.8458 31.8824L15.6731 31.7849L15.5728 31.6776L15.4656 31.5411L11.4334 24.4926L11.261 24.1709L11.1546 23.8686L11.1242 23.5566L11.0893 23.2446L11.1244 22.9033L11.1897 22.5816L11.2969 22.3086L11.4334 22.0259L13.6248 18.2336L15.5015 15.0456L15.638 14.8312L15.8096 14.6947L15.9882 14.6264L16.1606 14.5877H16.338L16.4754 14.6264L16.647 14.6947L16.7835 14.7726L16.9258 14.9091L17.027 15.0456ZM9.72889 4.09755L9.55645 4.24402L9.41413 4.41922L7.53772 7.64614L5.34601 11.3995L5.20949 11.7118L5.10337 11.9845L5.03815 12.3062L5.00195 12.6185L5.03815 12.9595L5.10337 13.2715L5.20949 13.5835L5.34601 13.9051L9.37792 20.9147L9.48542 21.0902L9.62194 21.1877L9.76426 21.295L9.90658 21.3337L10.0793 21.3632H10.2517L10.4231 21.3339L10.5958 21.2657L10.7743 21.1292L10.9108 20.9537L13.0312 17.2686L14.9789 13.9734L15.1213 13.6517L15.2216 13.3787L15.2929 13.0664V12.4037L15.2216 12.0915L15.1213 11.7798L14.9789 11.4678L10.9462 4.44851L10.8459 4.2827L10.703 4.17548L10.561 4.06826L10.3885 4.03897L10.252 4H10.0796L9.90685 4.03897L9.72889 4.09755Z" fill="#069BB3"/>
<path fill-rule="evenodd" clip-rule="evenodd" d="M84.5724 20.7586L85.1964 20.7293L85.8591 20.7589L86.4734 20.8661L87.0681 21.0029L87.6239 21.2074L88.1793 21.4901L88.6961 21.8021L89.1446 22.1823L89.5638 22.5529L89.9731 23.0111L90.334 23.5375L90.607 24.0444L90.8801 24.6001L91.231 25.8478L91.2993 26.4718L91.3286 27.1544V32.8764L91.2993 33.5397L91.1921 34.1927L91.0553 34.7777L90.8508 35.3724L90.607 35.9574L90.295 36.4839L89.9441 36.9614L89.5345 37.4099L89.1056 37.8388L88.6182 38.2091L88.1111 38.5214L87.5943 38.8041L87.0388 39.0089L86.4441 39.1844L85.8201 39.2916L85.1964 39.3209V37.9071L85.6839 37.8681L86.1711 37.7999L86.6196 37.7023L87.0681 37.5172L87.4484 37.3124L87.8676 37.0394L88.2186 36.7569L88.5596 36.4446L88.8326 36.1036L89.1056 35.6844L89.3593 35.2652L89.5638 34.8556L89.7003 34.3682L89.8369 33.9199L89.9054 33.4032V31.1802L89.4569 31.697L88.9691 32.1455L88.4137 32.5647L87.8676 32.9157L87.2439 33.1887L86.5809 33.4032L86.2396 33.5007L85.8887 33.5397L85.5377 33.569L85.1964 33.6077L84.5724 33.569L83.978 33.4714L83.3927 33.2959L82.8372 33.0815L82.2815 32.8085L81.7551 32.4965L81.3068 32.1162L80.858 31.697L80.4684 31.2485L80.1271 30.7709L79.8151 30.2149L79.5421 29.6595L79.3276 29.0648L79.1911 28.4408L79.0936 27.8171L79.0546 27.1541L79.0936 26.4715L79.1911 25.8475L79.3276 25.2238L79.5421 24.5995L79.7858 24.0441L80.0881 23.5373L80.4391 23.0108L80.829 22.5524L81.2676 22.182L81.7258 21.8021L82.2425 21.4898L82.769 21.2071L83.354 21.0023L83.9487 20.8658L84.5724 20.7586ZM84.7089 32.1455L85.1964 32.1845L85.6839 32.1455L86.1714 32.0869L86.6199 31.9407L87.0684 31.7749L87.4484 31.5605L87.8676 31.3264L88.2186 31.0437L88.5599 30.7317L88.8329 30.3415L89.1059 29.9712L89.3593 29.552L89.5641 29.1424L89.8371 28.1677L89.9054 27.6803V26.608L89.8371 26.0913L89.7006 25.6038L89.5641 25.1553L89.3593 24.7068L89.1059 24.2875L88.8329 23.9073L88.5599 23.5663L88.2186 23.2543L87.8676 22.9812L87.4484 22.7375L87.0684 22.5231L86.6199 22.3476L86.1714 22.25L85.6839 22.1815L85.1964 22.1428L84.7089 22.1818L84.2607 22.25L83.8122 22.3476L83.354 22.5231L82.9445 22.7375L82.5545 22.9812L82.1743 23.254L81.8626 23.5663L81.5503 23.9073L81.2676 24.2875L81.0628 24.7068L80.858 25.1553L80.6826 25.6038L80.5753 26.091L80.5071 26.6078L80.4684 27.1538L80.5071 27.6803L80.5753 28.1677L80.6826 28.6552L80.858 29.1424L81.0631 29.552L81.2676 29.9712L81.5503 30.3418L81.8623 30.7314L82.1743 31.0437L82.5545 31.3264L82.9445 31.5605L83.354 31.7746L83.8122 31.9405L84.2607 32.0869L84.7089 32.1455Z" fill="#575D5F"/>
<path fill-rule="evenodd" clip-rule="evenodd" d="M56.3786 20.7489L56.7588 20.7196L57.4218 20.7486L58.0458 20.8559L58.6308 20.9924L59.1865 21.1971L59.742 21.4798L60.2295 21.7918L60.717 22.1721L61.1362 22.5424L61.5457 23.0006L61.8967 23.527L62.1794 24.0341L62.4524 24.5899L62.6279 25.2136L62.7644 25.8376L62.8716 26.4613L62.9009 27.1439L62.8716 27.8068L62.7644 28.4308L62.6276 29.0548L62.4231 29.6495L62.1794 30.1956L61.8577 30.751L61.5068 31.2385L61.0972 31.687L60.678 32.1063L60.1905 32.4862L59.6737 32.7985L59.1473 33.0715L58.6015 33.286L58.0068 33.4518L57.3828 33.559L56.7588 33.5883L56.2031 33.559L55.6476 33.4908L55.1212 33.3542L54.6044 33.1788L54.1169 32.935L53.6391 32.6913L53.2202 32.3793L52.801 32.038L52.4204 31.6478L52.0308 31.2775L51.7285 30.8293L51.4458 30.3318L51.2017 29.8543L50.9972 29.3375L50.8218 28.7818L50.7145 28.2261L50.6463 27.885L50.578 27.2218L50.5485 26.1496L50.5098 24.5509V17.2197H51.933V23.1761L52.3815 22.6496L52.8692 22.1721L53.4247 21.7529L54.0194 21.4019L54.6434 21.1388L54.9844 20.9926L55.3063 20.8951L55.6766 20.8172L56.0276 20.7876L56.3786 20.7489ZM56.2713 32.1358L56.7588 32.1745L57.2364 32.1356L57.7338 32.0772L58.1823 31.9308L58.6012 31.7553L59.0108 31.5505L59.43 31.3068L59.781 31.034L60.1223 30.7218L60.405 30.3318L60.678 29.9518L60.9217 29.5423L61.1359 29.1231L61.263 28.6456L61.3702 28.1481L61.4482 27.6706L61.4775 27.1442L61.4482 26.5981L61.3702 26.0813L61.263 25.5938L61.1362 25.1456L60.9217 24.6971L60.678 24.2779L60.405 23.8976L60.1223 23.5566L59.781 23.2443L59.43 22.9713L59.0108 22.7276L58.6012 22.5131L58.1823 22.3376L57.7338 22.2401L57.2366 22.1718L56.7588 22.1331L56.2713 22.1718L55.8132 22.2401L55.3354 22.3376L54.9161 22.5131L54.4972 22.7276L54.1169 22.9713L53.7367 23.2443L53.4247 23.5563L53.1127 23.8976L52.83 24.2779L52.5959 24.6971L52.245 25.5938L52.1377 26.0813L52.0695 26.5981L52.0305 27.1442L52.0695 27.6706L52.1377 28.1481L52.245 28.6453L52.4204 29.1231L52.5959 29.5423L52.83 29.9518L53.1127 30.3321L53.4244 30.7218L53.7367 31.0338L54.1169 31.3068L54.4972 31.5508L54.9161 31.7553L55.3354 31.9308L55.8132 32.077L56.2713 32.1358Z" fill="#575D5F"/>
<path d="M76.2372 33.3542H74.843V21.0802H76.2372V33.3542Z" fill="#575D5F"/>
<path d="M125.547 30.2835L125.655 30.1859H125.655L126.659 31.0827L126.6 31.1899L126.006 31.7652L125.45 32.2527L124.855 32.662L124.27 33.013L123.637 33.247L122.974 33.4225L122.281 33.559L121.58 33.5883L120.927 33.559L120.293 33.4615L119.708 33.286L119.152 33.0812L118.587 32.7985L118.07 32.4965L117.582 32.1552L117.124 31.736L116.744 31.2874L116.364 30.7707L116.052 30.2539L115.808 29.6984L115.604 29.1134L115.418 28.4894L115.36 27.8754L115.321 27.2124L115.36 26.5691L115.418 25.9451L115.604 25.3211L115.808 24.7363L116.052 24.1903L116.364 23.6738L116.744 23.157L117.124 22.7085L117.582 22.2893L118.07 21.948L118.587 21.636L119.152 21.363L119.708 21.1582L120.293 20.9827L120.927 20.8851L121.58 20.8465L121.999 20.8851L122.457 20.9144L123.217 21.051L123.568 21.1582L124.27 21.4312L124.543 21.568L125.138 21.919L125.626 22.2893L126.074 22.7085L126.493 23.0885L126.601 23.1957L125.548 24.2486L125.45 24.151L125.06 23.7807L124.651 23.4298L124.231 23.0885L123.773 22.8154L123.295 22.5717L122.769 22.3962L122.175 22.2597L121.862 22.221H121.551L121.063 22.2597L120.605 22.328L120.156 22.4255L119.708 22.601L119.289 22.8154L118.908 23.0495L118.206 23.6735L117.933 24.0148L117.651 24.3948L117.407 24.8043L117.232 25.2528L117.066 25.7013L116.958 26.1789L116.89 26.7053L116.851 27.2124L116.89 27.7389L116.958 28.2164L117.095 28.7039L117.232 29.1817L117.446 29.6009L117.69 30.0104L117.933 30.3807L118.245 30.7707L118.587 31.0827L118.938 31.3557L119.357 31.5898L119.776 31.8042L120.195 31.97L120.673 32.1162L121.131 32.1845L121.648 32.2138L122.174 32.1845L122.701 32.0772L123.217 31.9407L123.705 31.736L124.192 31.4533L124.65 31.112L125.099 30.7317L125.547 30.2835Z" fill="#575D5F"/>
<path fill-rule="evenodd" clip-rule="evenodd" d="M133.99 20.8854L134.653 20.8462L135.277 20.8851L135.949 20.9827L136.534 21.1195L137.129 21.324L137.685 21.6067L138.172 21.919L138.66 22.2893L139.118 22.7085L139.537 23.157L139.888 23.6345L140.2 24.1513L140.444 24.6974L140.658 25.2921L140.824 25.9061L140.902 26.5691L140.931 27.2124L140.902 27.8754L140.824 28.5287L140.658 29.1134L140.444 29.6984L140.2 30.2832L139.888 30.8L139.498 31.2874L139.118 31.736L138.66 32.1552L138.172 32.4965L137.655 32.8378L137.1 33.0815L136.505 33.2863L135.91 33.4617L135.248 33.5593L134.585 33.5886L133.961 33.5593L133.327 33.4617L132.703 33.286L132.099 33.0815L131.582 32.8378L131.056 32.5255L130.568 32.1552L130.12 31.736L129.739 31.2874L129.35 30.8002L129.037 30.2835L128.794 29.7275L128.579 29.1527L128.404 28.5287L128.345 27.8756L128.306 27.2124L128.345 26.5691L128.404 25.9061L128.579 25.2921L128.794 24.6974L129.037 24.1513L129.388 23.6345L129.739 23.157L130.149 22.7085L130.568 22.289L131.056 21.9187L131.582 21.607L132.138 21.3632L132.732 21.1195L133.356 20.983L133.99 20.8854ZM134.166 32.1842L134.653 32.2135L135.141 32.1842L135.599 32.1162L136.086 31.9697L136.505 31.8332L136.924 31.6285L137.685 31.0824L138.007 30.7707L138.319 30.4197L138.592 30.0395L138.845 29.6299L139.02 29.2107L139.186 28.7332L139.293 28.2846L139.362 27.7679L139.4 27.2511V27.2121L139.362 26.7053L139.293 26.1789L139.186 25.7011L139.02 25.2526L138.806 24.8043L138.592 24.3948L138.319 24.0145L138.007 23.6732L137.656 23.3615L137.305 23.0885L136.885 22.8154L136.466 22.601L136.047 22.4645L135.559 22.328L135.111 22.2594L134.585 22.2207L134.097 22.2597L133.61 22.328L133.152 22.4255L132.703 22.601L132.313 22.8154L131.894 23.0495L131.553 23.3322L131.192 23.6343L130.646 24.3948L130.402 24.8043L130.217 25.2136L130.051 25.7011L129.944 26.1789L129.876 26.7053L129.837 27.2121L129.876 27.7386L129.944 28.2164L130.081 28.7039L130.217 29.1814L130.432 29.6006L130.675 30.0102L130.919 30.3805L131.231 30.7707L131.582 31.0824L131.933 31.3554L132.343 31.5895L132.771 31.8039L133.191 31.9697L133.678 32.1159L134.166 32.1842Z" fill="#575D5F"/>
<path d="M141.409 21.0805H143.115L147.55 31.4629L152.045 21.0802H153.683L148.136 33.3542H146.956L141.409 21.0805Z" fill="#575D5F"/>
<path fill-rule="evenodd" clip-rule="evenodd" d="M165.411 25.2528L165.508 25.9061L165.615 26.5688V27.8364H155.72L155.788 28.3239L155.896 28.7721L156.032 29.1817L156.208 29.6009L156.412 29.9811L156.617 30.3514L156.91 30.6634L157.183 30.9754L157.494 31.2485L157.807 31.4922L158.148 31.697L158.528 31.8725L158.957 32.009L159.337 32.1162L159.786 32.1845L160.234 32.2138L160.79 32.1845L161.345 32.0772L161.862 31.9407L162.388 31.7652L162.876 31.4922L163.334 31.1899L163.773 30.8389L164.328 30.2835L165.343 31.1899L165.235 31.2874L164.68 31.8725L164.085 32.321L163.529 32.7303L162.905 33.0423L162.281 33.286L161.619 33.4615L160.926 33.559L160.166 33.5883L159.542 33.559L158.957 33.4615L158.362 33.325L157.807 33.1105L157.29 32.8378L156.763 32.5255L156.315 32.1845L155.896 31.7652L155.516 31.3167L155.165 30.8389L154.892 30.2832L154.609 29.7277L154.433 29.1524L154.297 28.5284L154.199 27.8754L154.16 27.1831L154.199 26.5301L154.297 25.9061L154.433 25.2918L154.609 24.6971L154.852 24.1513L155.165 23.6345L155.476 23.1567L155.867 22.7085L156.276 22.2893L156.724 21.919L157.183 21.6067L157.699 21.324L158.255 21.1192L158.811 20.9827L159.405 20.8851L159.99 20.8465L160.614 20.8851L161.18 20.9827L161.764 21.1195L162.281 21.324L162.769 21.5677L163.227 21.8797L163.675 22.221L164.056 22.6303L164.407 23.0885L164.709 23.5663L164.992 24.083L165.235 24.6678L165.411 25.2528ZM160.439 22.221L159.961 22.1914L159.542 22.221L159.162 22.2893L158.772 22.3965L158.392 22.533L158.051 22.7085L157.7 22.9133L157.388 23.157L157.115 23.43L156.832 23.7031L156.588 24.0441L156.383 24.395L156.208 24.7753L156.032 25.1848L155.896 25.6041L155.789 26.0426L155.72 26.4911H164.056L164.017 26.1109L163.909 25.7406L163.841 25.3603L163.568 24.5998L163.393 24.2489L163.188 23.9076L162.944 23.6055L162.701 23.2935L162.389 23.0202L162.077 22.8157L161.726 22.6013L161.346 22.4258L160.897 22.2893L160.439 22.221Z" fill="#575D5F"/>
<path d="M99.4104 20.7975L100.064 20.7683L100.619 20.7975L101.146 20.8755L101.653 20.973L102.111 21.1485L102.559 21.324L102.94 21.5677L103.32 21.8504L103.671 22.1528L103.983 22.5037L104.226 22.8936L104.46 23.3032L104.636 23.7614L104.811 24.2389L104.909 24.7653L104.987 25.2821L105.016 25.8376V33.3542H103.564V26.0426L103.525 25.6331L103.495 25.1749L103.427 24.7946L103.291 24.4144L103.144 24.0634L103.008 23.7614L102.803 23.4494L102.589 23.1664L102.345 22.9619L102.072 22.7472L101.76 22.5427L101.448 22.3965L101.107 22.2989L100.727 22.1914L100.346 22.1528L99.9272 22.1235L99.4786 22.1528L99.0984 22.2307L98.6792 22.3379L98.3382 22.4355L97.9579 22.6109L97.6459 22.8254L97.3242 23.0302L97.0612 23.3032L96.8174 23.5856L96.5737 23.8979L96.2227 24.5802L96.0862 25.0091L96.0179 25.3893L95.9497 25.7989L95.9497 33.3542H94.4969L94.4969 17.2197H95.9497L95.9497 22.9619L96.3297 22.4744L96.7392 22.0162L97.1974 21.6363L97.6849 21.324L98.2309 21.0802L98.8256 20.9048L99.4104 20.7975Z" fill="#575D5F"/>
<path d="M71.3337 21.0802H71.7427V21.0805H71.9085V22.4747H71.1969L70.7095 22.543L70.2706 22.6795L69.8124 22.855L69.4029 23.0597L68.9936 23.3035L68.6427 23.5862L68.3014 23.8982L67.9894 24.2395L67.7163 24.6194L67.4726 25.0387L67.2678 25.4968L67.1316 25.9454L67.0045 26.4328L66.9265 26.9203V33.3542H65.4837V26.9883L65.552 26.5008L65.6202 25.9744L65.7568 25.5259L65.9322 25.0384L66.137 24.5802L66.3807 24.1709L66.6538 23.7224L66.8586 23.4397L67.1023 23.1374L67.3753 22.8547L67.9214 22.3672L68.2331 22.1528L68.5454 21.9579L68.8474 21.7728L69.1984 21.607L69.5107 21.4605L69.881 21.3533L70.2319 21.2557L70.6122 21.1485L70.9532 21.1192L71.3337 21.0802Z" fill="#575D5F"/>
<path d="M113.907 32.1259V33.4711H113.907L113.176 33.4419L112.503 33.3639L111.869 33.2274L111.275 33.0616L110.748 32.8471L110.251 32.5352L109.802 32.1939L109.384 31.8039L109.101 31.4629L108.886 31.1214L108.672 30.7317L108.506 30.3222L108.36 29.9029L108.252 29.4837L108.223 29.0744L108.184 28.6163V17.2197H109.657V21.0313H113.907V22.4158H109.657V28.6552L109.696 28.9669L109.725 29.3179L109.832 29.6592L109.939 29.9712L110.086 30.2832L110.252 30.5562L110.437 30.8096L110.641 31.0437L110.953 31.3264L111.343 31.5605L111.733 31.736L112.113 31.8725L112.542 31.9797L113 32.0576L113.459 32.1259H113.907Z" fill="#575D5F"/>
<path fill-rule="evenodd" clip-rule="evenodd" d="M169.369 21.5873H168.54V23.3621H168.882V22.7577H169.262L169.72 23.3621H170.129L169.651 22.6894L169.817 22.6212L169.954 22.5236L170.032 22.3578L170.061 22.1627V22.0555L170.032 21.9579L169.993 21.8507L169.925 21.7824L169.818 21.7142L169.681 21.6553L169.545 21.6166L169.369 21.5873ZM169.506 22.4255L169.369 22.4551L168.882 22.4548V21.8894H169.369L169.506 21.9281L169.613 21.9574L169.681 22.0549L169.72 22.1914L169.681 22.289L169.613 22.3868L169.506 22.4255Z" fill="#575D5F"/>
<path fill-rule="evenodd" clip-rule="evenodd" d="M167.536 22.1914L167.497 22.5231L167.536 22.8641L167.634 23.1957L167.809 23.4687L168.014 23.7321L168.258 23.9369L168.579 24.1027L168.882 24.2002L169.262 24.2295L169.613 24.2002L169.954 24.1027L170.237 23.9369L170.519 23.7321L170.724 23.4687L170.861 23.1957L170.968 22.8644L170.997 22.5231L170.968 22.1914L170.861 21.8504L170.724 21.5873L170.519 21.3143L170.237 21.1192L169.954 20.9827L169.613 20.8849L169.262 20.8462L168.921 20.8851L168.579 20.9827L168.258 21.1192L168.014 21.3533L167.809 21.5873L167.634 21.8894L167.536 22.1914ZM170.792 22.221L170.831 22.5231L170.792 22.8254L170.724 23.1374L170.548 23.4005L170.373 23.5956L170.129 23.8003L169.895 23.9369L169.574 24.0344L169.262 24.0637L168.92 24.0344L168.638 23.9369L168.364 23.8003L168.121 23.5956L167.945 23.4005L167.809 23.1374L167.702 22.8644L167.672 22.5231L167.702 22.221L167.809 21.9284L167.945 21.6846L168.121 21.4506L168.364 21.2461L168.638 21.1189L168.959 21.0507L169.262 21.0214L169.574 21.0507L169.895 21.1189L170.129 21.2461L170.373 21.4506L170.587 21.6846L170.724 21.9284L170.792 22.221Z" fill="#575D5F"/>
</svg>
