<svg width="192" height="48" viewBox="0 0 192 48" fill="none" xmlns="http://www.w3.org/2000/svg">
<path d="M160.372 12.8831C161.623 12.8831 162.852 13.1397 164.071 13.6634C165.289 14.1872 166.316 14.8927 167.171 15.7906L164.627 18.8692C164.081 18.1423 163.44 17.5972 162.681 17.191C161.933 16.7848 161.185 16.5817 160.447 16.5817C159.603 16.5817 158.822 16.7955 158.127 17.223C157.433 17.6506 156.887 18.2278 156.481 18.9761C156.086 19.7244 155.883 20.5475 155.883 21.4667C155.883 22.3754 156.086 23.2091 156.481 23.9574C156.877 24.7057 157.433 25.2829 158.127 25.7105C158.822 26.138 159.592 26.3518 160.447 26.3518C161.131 26.3518 161.858 26.1808 162.606 25.8281C163.355 25.4753 164.028 24.9943 164.627 24.385L167.192 27.1429C166.283 28.1049 165.193 28.8639 163.942 29.4411C162.681 30.0076 161.441 30.2963 160.212 30.2963C158.544 30.2963 157.037 29.9114 155.701 29.1418C154.354 28.3721 153.296 27.3246 152.526 25.9991C151.756 24.6736 151.372 23.1771 151.372 21.5309C151.372 19.8954 151.767 18.4202 152.547 17.1161C153.328 15.8013 154.407 14.7751 155.776 14.0162C157.144 13.2679 158.673 12.8831 160.372 12.8831ZM141.452 12.851C143.162 12.851 144.712 13.2252 146.102 13.9841C147.491 14.7324 148.571 15.7693 149.373 17.0841C150.164 18.3989 150.559 19.874 150.559 21.4988C150.559 23.145 150.164 24.6415 149.373 25.967C148.582 27.2925 147.491 28.3401 146.102 29.1097C144.712 29.8794 143.162 30.2642 141.452 30.2642C139.741 30.2642 138.192 29.8794 136.802 29.1204C135.412 28.3615 134.333 27.3139 133.531 25.9777C132.74 24.6415 132.344 23.145 132.344 21.4988C132.344 19.8633 132.74 18.3882 133.531 17.0841C134.322 15.7693 135.412 14.7431 136.802 13.9841C138.192 13.2359 139.731 12.851 141.452 12.851ZM58.4908 12.7441C59.7094 12.7441 60.9066 12.9152 62.0932 13.2572C63.2797 13.5993 64.3166 14.0589 65.2145 14.6362L63.5576 18.1423C62.6383 17.6506 61.687 17.223 60.6715 16.881C59.656 16.5496 58.8008 16.3786 58.1167 16.3786C57.5715 16.3786 57.1439 16.4748 56.8339 16.6779C56.5239 16.881 56.3636 17.1696 56.3636 17.5544C56.3636 17.9178 56.5026 18.2278 56.7698 18.4844C57.037 18.7302 57.3791 18.9333 57.7746 19.083C58.1701 19.2326 58.7687 19.4358 59.5491 19.6709C60.7142 20.0023 61.687 20.3444 62.4459 20.6757C63.2049 21.0071 63.8569 21.5309 64.4021 22.2257C64.9473 22.9205 65.2145 23.8291 65.2145 24.9515C65.2145 26.0739 64.9152 27.0253 64.3273 27.8163C63.7393 28.6073 62.9269 29.2059 61.8901 29.6014C60.8532 29.9969 59.7094 30.2 58.4481 30.2C57.0584 30.2 55.6688 29.9542 54.2792 29.4625C52.8895 28.9708 51.6923 28.308 50.6875 27.4529L52.3978 24.0215C53.2423 24.7698 54.2471 25.3898 55.4122 25.8708C56.5774 26.3518 57.6036 26.587 58.5015 26.587C59.1536 26.587 59.6773 26.4694 60.0515 26.2236C60.4256 25.9884 60.618 25.6356 60.618 25.1653C60.618 24.7805 60.4791 24.4598 60.2011 24.2033C59.9232 23.9467 59.5705 23.7436 59.1429 23.594C58.7153 23.4443 58.1274 23.2626 57.3577 23.0488C56.2033 22.7281 55.2519 22.4074 54.5036 22.076C53.7554 21.7447 53.1033 21.253 52.5688 20.5902C52.0344 19.9275 51.7671 19.0402 51.7671 17.9392C51.7671 16.9023 52.0451 15.9831 52.6009 15.2027C53.1568 14.4224 53.9371 13.8131 54.9526 13.3855C55.9681 12.9579 57.1546 12.7441 58.4908 12.7441ZM110.089 13.1183C112.312 13.1183 114.044 13.6314 115.263 14.6682C116.492 15.7051 117.101 17.1589 117.101 19.0296C117.101 20.2909 116.845 21.3919 116.332 22.3112C115.818 23.2305 115.07 23.9467 114.097 24.4598L117.604 29.9649H112.633V29.9542L110.185 25.2936H106.914V29.9542H102.521V13.1183H110.089ZM124.306 13.1183V26.2129H131.436V29.9649H119.913V13.1183H124.306ZM71.8527 13.1183V19.9916H78.6512V13.1183H83.0445V29.9542H78.6512V23.4977H71.8527V29.9542H67.4593V13.1183H71.8527ZM99.5918 13.1183V16.6244H90.7089V19.7671H98.726V23.2519L90.7089 23.2733V26.448H99.8377V29.9542H86.3048V13.1183H99.5918ZM173.467 13.1183V20.4192L179.784 13.1183H184.872L178.63 20.0557L185.257 29.9542H179.998L175.583 23.4229L173.467 25.7746V29.9542H169.073V13.1183H173.467ZM141.516 16.571C140.671 16.571 139.891 16.7848 139.186 17.223C138.469 17.6506 137.914 18.2492 137.497 19.0082C137.08 19.7671 136.877 20.6009 136.877 21.5202C136.877 22.4502 137.09 23.2947 137.518 24.0536C137.946 24.8126 138.502 25.4112 139.207 25.8601C139.913 26.2984 140.682 26.5229 141.516 26.5229C142.35 26.5229 143.109 26.2984 143.814 25.8601C144.509 25.4219 145.054 24.8232 145.46 24.0536C145.856 23.2947 146.059 22.4502 146.059 21.5202C146.059 20.6116 145.856 19.7671 145.46 19.0082C145.065 18.2492 144.509 17.6506 143.814 17.223C143.119 16.7955 142.35 16.571 141.516 16.571ZM110.11 16.6244H106.914V21.7874H110.11C111.008 21.7874 111.703 21.563 112.184 21.114C112.676 20.665 112.922 20.013 112.922 19.1685C112.922 18.3561 112.676 17.7254 112.184 17.2872C111.692 16.8489 111.008 16.6244 110.11 16.6244Z" fill="black"/>
<path d="M31.5965 37.01C31.4255 37.01 31.2651 36.9137 31.1903 36.7534C31.0834 36.5289 31.1689 36.251 31.3934 36.1441C34.0444 34.8186 36.2571 32.7983 37.7964 30.3077C39.3677 27.7636 40.1908 24.7812 40.1908 21.6813C40.1908 16.0158 37.3154 10.8421 32.4944 7.84908C32.2806 7.7208 32.2165 7.43219 32.3448 7.2184C32.473 7.00461 32.7616 6.94047 32.9754 7.06875C35.4126 8.58665 37.4436 10.7032 38.8653 13.1938C40.3298 15.77 41.0994 18.6989 41.0994 21.6706C41.0994 24.9415 40.2229 28.0842 38.566 30.778C36.9412 33.4183 34.6002 35.5562 31.7996 36.9458C31.7355 36.9993 31.6713 37.01 31.5965 37.01Z" fill="#FFC700"/>
<path d="M16.3841 36.8373C16.32 36.8373 16.2451 36.8266 16.181 36.7838C10.1842 33.7587 6.74219 28.2536 6.74219 21.6796C6.74219 14.7101 10.9004 8.47812 17.3355 5.80575C17.5706 5.70955 17.8379 5.81644 17.9341 6.05161C18.0303 6.28678 17.9234 6.55401 17.6882 6.65022C11.5952 9.18362 7.66148 15.0842 7.66148 21.6796C7.66148 27.8902 10.9218 33.1067 16.5979 35.9821C16.8224 36.0997 16.9079 36.3669 16.801 36.5914C16.7048 36.7518 16.5444 36.8373 16.3841 36.8373Z" fill="#FFC700"/>
<path d="M23.9742 32.6371C24.273 32.991 24.4156 33.501 24.4616 33.9502C25.1164 33.8473 25.8351 33.6165 26.4969 33.1502C26.6893 33.0112 26.9566 33.0647 27.0955 33.2571C27.2345 33.4495 27.181 33.7167 26.9886 33.8557C25.8021 34.6788 24.5087 34.8819 23.5252 34.8819C22.6701 34.8819 22.0715 34.7322 22.018 34.7108C21.7935 34.6467 21.6546 34.4222 21.7187 34.1871C21.7828 33.9626 22.0073 33.8236 22.2425 33.8878C22.2581 33.893 22.8213 34.0325 23.6124 34.0213C23.581 33.7073 23.4855 33.3768 23.3221 33.1823C23.0977 32.915 22.6594 32.7654 22.2211 32.8081C21.9753 32.8295 21.5263 32.9364 21.2804 33.3747C21.1415 33.6312 21.1522 34.2726 21.1522 34.5826L21.1522 35.3369C21.1522 35.383 21.1521 35.4286 21.1521 35.4735L21.1519 36.2166C21.1518 36.2542 21.1518 36.2913 21.1518 36.3277L21.1515 36.5393C21.1506 37.2887 21.148 37.7496 21.1415 37.9391C21.1308 38.2598 21.1308 38.6018 21.1415 38.9653C21.1522 40.5045 21.1735 42.2469 20.1687 43.2517C19.677 43.7435 18.9822 44 18.1057 44C16.8657 44 15.9892 43.6045 15.5081 42.8348C15.134 42.2362 15.0806 41.5735 15.0806 40.9963V38.1956C15.0806 37.9604 15.273 37.768 15.5081 37.768H19.0036C19.2388 37.768 19.4312 37.9604 19.4312 38.1956V40.4618C19.4312 40.697 19.2388 40.8894 19.0036 40.8894C18.7684 40.8894 18.576 40.697 18.576 40.4618V38.6232H15.9357V40.9963C15.9357 42.1187 16.2029 43.1555 18.1057 43.1555C18.7577 43.1555 19.2281 42.9952 19.5701 42.6531C20.3184 41.9049 20.3077 40.3442 20.2863 38.9759C20.2863 38.6018 20.2756 38.2491 20.2863 37.907C20.2926 37.7386 20.2952 37.3084 20.2962 36.6205L20.2965 36.4169C20.2965 36.3818 20.2966 36.3462 20.2966 36.3099L20.2968 35.9679C20.2969 35.9281 20.2969 35.8878 20.2969 35.8469L20.297 34.5933C20.2863 33.9947 20.297 33.3747 20.5322 32.9578C20.8529 32.3912 21.4301 32.0278 22.1356 31.9637C22.8625 31.8995 23.568 32.1561 23.9742 32.6371ZM34.4178 25.1865C34.4819 25.2827 35.925 27.6024 36.406 30.9375C36.4381 31.1299 36.3312 31.3116 36.1602 31.3864C34.4713 32.124 32.5258 35.5553 31.9272 36.806C31.863 36.9663 31.7134 37.0518 31.553 37.0518C31.4889 37.0518 31.4248 37.0412 31.3713 37.0091C31.1575 36.9022 31.072 36.6563 31.1682 36.4425C31.2537 36.2501 33.3275 32.0171 35.5295 30.7664C35.2088 28.7996 34.5354 27.2282 34.0971 26.3624L29.2334 36.7739C29.1586 36.9236 29.0089 37.0198 28.8486 37.0198H22.1784C21.9432 37.0198 21.7508 36.8274 21.7508 36.5922C21.7508 36.357 21.9432 36.1646 22.1784 36.1646H28.5707L33.6695 25.2293C33.7337 25.0903 33.8726 24.9941 34.033 24.9834C34.1933 24.9727 34.3323 25.0476 34.4178 25.1865ZM14.3537 25.1224C14.4926 25.1438 14.6102 25.24 14.6637 25.3683L19.7091 36.4105C19.8053 36.6243 19.7091 36.8808 19.4953 36.977C19.4419 37.0091 19.3777 37.0198 19.3243 37.0198C19.1639 37.0198 19.0036 36.9236 18.9394 36.7739L14.1719 26.3196C13.5306 27.132 12.3547 28.8637 12.2692 30.8306C14.4713 32.2736 16.7909 36.2074 16.8871 36.3784C17.0047 36.5815 16.9405 36.8381 16.7374 36.9663C16.5343 37.0839 16.2778 37.0198 16.1495 36.8167L16.1473 36.8127L16.1253 36.775C15.8657 36.3353 13.5794 32.5724 11.6279 31.4399C11.4996 31.365 11.4141 31.2261 11.4141 31.0657C11.4141 27.891 13.8833 25.3469 13.9795 25.24C14.0757 25.1438 14.2147 25.0903 14.3537 25.1224ZM25.77 4C26.012 4 26.215 4.14985 26.2923 4.36308C26.8763 4.43313 27.8885 4.6093 28.7474 5.02592C28.8894 4.75013 29.2126 4.56746 29.5755 4.72688C31.4568 5.56066 33.4985 7.19615 34.8775 9.63335C34.8775 9.63335 34.8804 9.63806 34.886 9.6473L34.9007 9.67179C35.1373 10.0675 37.0916 13.4553 36.7802 16.8808C36.7447 17.3067 36.4015 17.5035 36.0785 17.4657C36.2122 17.6854 36.2951 17.9054 36.3312 18.1208C36.3633 18.2704 36.5236 19.0828 35.9785 19.7883C35.5166 20.3976 34.6933 20.7268 33.542 20.776C34.0547 22.1297 33.9688 23.4584 33.9688 23.519C33.9582 23.7328 33.7764 23.9038 33.552 23.9038H33.5199C33.2847 23.8824 33.103 23.6793 33.1244 23.4441C33.1244 23.4396 33.1283 23.3751 33.1291 23.2645L33.1291 23.1841C33.1259 22.7351 33.0671 21.7753 32.6647 20.868C32.6522 20.8401 32.6429 20.8116 32.6368 20.7827L31.8096 20.7825C31.0827 20.7825 30.2062 20.7932 29.2655 20.7932C28.3866 20.7932 27.4504 20.7896 26.5149 20.7803C26.3176 21.4019 26.219 22.1623 26.219 23.1021V28.0941C26.2297 28.9065 26.219 29.8044 25.9838 30.2961C25.6524 30.9802 24.9362 31.3971 24.0704 31.4078C24.0597 31.4292 24.049 31.4292 24.0276 31.4292C23.1511 31.4292 22.328 31.0016 21.9859 30.3602C21.6973 29.8258 21.708 29.2165 21.7187 28.4468C21.7187 28.2117 21.7294 27.9765 21.7187 27.7092C21.7187 27.4741 21.9004 27.2817 22.1356 27.271C22.3708 27.2603 22.5632 27.4527 22.5739 27.6879V28.4468C22.5632 29.0989 22.5525 29.612 22.7342 29.954C22.9373 30.3282 23.4718 30.5847 24.049 30.574C24.3056 30.574 24.9362 30.4992 25.2142 29.9327C25.3852 29.5799 25.3745 28.5216 25.3638 28.1154V23.1128C25.3638 22.1961 25.4548 21.4263 25.631 20.7695C25.2487 20.7645 24.8697 20.758 24.498 20.7504C21.9753 20.8038 19.0891 20.7932 17.1757 20.7825H15.754C14.6316 20.7825 13.7764 20.4832 13.242 19.8846C12.6113 19.1897 12.6327 18.3346 12.6434 18.1849C12.6434 17.8925 12.7265 17.6076 12.8907 17.3325C12.5294 17.6156 11.9113 17.4604 11.863 16.8808C11.5316 13.2357 13.7657 9.63335 13.7657 9.63335C15.1447 7.19615 17.1864 5.56066 19.0677 4.72688C19.4073 4.57767 19.7122 4.72814 19.8668 4.97443C20.9631 4.47112 22.2728 4.34579 22.625 4.31708C22.7121 4.13046 22.9039 4 23.1297 4H25.77ZM29.8962 22.6638C30.3625 22.6638 30.7406 23.0371 30.7406 23.4976C30.7406 23.9581 30.3625 24.3314 29.8962 24.3314C29.4298 24.3314 29.0517 23.9581 29.0517 23.4976C29.0517 23.0371 29.4298 22.6638 29.8962 22.6638ZM21.1522 22.9417C21.3873 22.9417 21.5797 23.1342 21.5797 23.3693C21.5797 23.6045 21.3873 23.7969 21.1522 23.7969H17.2184C16.9833 23.7969 16.7909 23.6045 16.7909 23.3693C16.7909 23.1342 16.9833 22.9417 17.2184 22.9417H21.1522ZM13.862 17.3298C13.552 17.6291 13.4023 17.9177 13.4023 18.1956V18.2277C13.4023 18.2277 13.4012 18.241 13.4007 18.2652L13.4005 18.3095C13.403 18.4998 13.4474 18.9851 13.8085 19.3715C14.204 19.799 14.8561 20.0128 15.754 20.0128H17.1757C17.9674 20.0217 18.9258 20.0287 19.956 20.0301L20.7406 20.03C21.8892 20.0282 23.0944 20.0188 24.2358 19.9967L24.498 19.9914C25.8898 20.0209 27.3923 20.0309 28.7792 20.0321L29.2934 20.0322C30.2246 20.0316 31.0878 20.0276 31.8096 20.0235H33.2313C34.2895 20.0235 35.0271 19.7883 35.3799 19.3287C35.7326 18.8691 35.5936 18.3025 35.5936 18.3025L35.583 18.2598C35.4654 17.5436 34.4606 16.7846 32.8892 16.2288C30.8582 15.5232 27.9614 15.1491 24.4873 15.1491H24.4766C20.4574 15.0102 15.6257 15.6301 13.862 17.3298ZM26.415 6.03653L26.4463 6.06474C26.745 6.33454 27.0879 6.70515 27.4376 7.20684C28.9476 9.36259 29.4697 12.3862 29.6304 14.7075C32.1133 15.0535 33.8183 15.6506 34.8899 16.3342C34.4709 14.3404 33.8058 11.997 32.4937 10.0289C31.0208 7.81954 28.9854 6.48144 26.415 6.03653ZM21.9102 6.08032L21.8215 6.09628C20.0467 6.42862 18.5637 7.12655 17.4002 8.17958C16.4595 9.03474 15.6899 10.1571 15.1233 11.504C14.5664 12.8426 14.197 14.4401 14.0152 16.2558C15.1114 15.549 16.7865 15.0131 18.8158 14.6965C18.9832 12.3869 19.51 9.40413 20.9918 7.19615C21.3135 6.72062 21.6295 6.35604 21.9102 6.08032ZM24.4018 5.87066C23.7084 5.87066 23.0476 5.91375 22.4203 5.99953C21.4104 6.85122 19.4897 9.16937 19.0864 14.6555C20.7126 14.4214 22.5532 14.3249 24.498 14.3902C26.3566 14.3902 27.9628 14.4916 29.3395 14.6684C28.9328 8.83984 26.8229 6.65543 25.8574 5.95525C25.3891 5.89884 24.9037 5.87066 24.4018 5.87066ZM26.317 4.65138C26.2906 4.79715 26.2068 4.92189 26.0888 5.00291C27.0552 5.12642 27.9575 5.36081 28.7938 5.70492C28.7 5.58255 28.663 5.44174 28.6703 5.30407C27.871 4.90736 26.9023 4.72812 26.317 4.65138ZM20.0422 5.20613L19.9664 5.24058C19.9841 5.35719 19.9707 5.47857 19.9186 5.59108C20.7901 5.28424 21.7426 5.07915 22.7756 4.97604C22.6519 4.87611 22.5739 4.72446 22.5739 4.55585L22.5778 4.5999C22.1654 4.6373 21.0147 4.77638 20.0422 5.20613Z" fill="#150007"/>
</svg>
