<svg width="160" height="56" viewBox="0 0 160 56" fill="none" xmlns="http://www.w3.org/2000/svg">
<path d="M48.4068 48.785H36.46C36.0049 48.7856 35.5578 48.665 35.1647 48.4357C34.7716 48.2064 34.4466 47.8766 34.2231 47.4801L24.8652 30.9103C24.8021 30.7977 24.769 30.6707 24.769 30.5416C24.769 30.4125 24.8021 30.2856 24.8652 30.173L26.9696 26.4447C27.0347 26.3302 27.129 26.2349 27.2429 26.1686C27.3568 26.1024 27.4862 26.0675 27.6179 26.0675C27.7497 26.0675 27.8791 26.1024 27.993 26.1686C28.1068 26.2349 28.2011 26.3302 28.2662 26.4447L37.7939 43.1057C37.8575 43.2192 37.95 43.3139 38.062 43.3801C38.1741 43.4463 38.3017 43.4817 38.4318 43.4827L42.6405 43.5324C42.7722 43.5339 42.9019 43.5006 43.0164 43.4358C43.131 43.371 43.2264 43.277 43.2929 43.1634C43.3594 43.0498 43.3946 42.9206 43.395 42.7889C43.3954 42.6573 43.3609 42.5279 43.295 42.4139L28.1461 16.043C28.0807 15.9295 27.9865 15.8351 27.8731 15.7695C27.7596 15.7039 27.6309 15.6694 27.4999 15.6694C27.3688 15.6694 27.2401 15.7039 27.1266 15.7695C27.0132 15.8351 26.919 15.9295 26.8536 16.043L8.81737 47.4967C8.59243 47.8888 8.26782 48.2145 7.87643 48.4408C7.48504 48.667 7.0408 48.7858 6.58873 48.785C6.13698 48.7886 5.69228 48.673 5.29949 48.4498C4.90671 48.2266 4.57975 47.9038 4.35159 47.5138C4.12344 47.1239 4.00217 46.6807 4.00003 46.229C3.99788 45.7772 4.11494 45.3329 4.33937 44.9408L25.2671 8.39605C25.4925 8.00363 25.8174 7.67761 26.209 7.45089C26.6007 7.22418 27.0452 7.1048 27.4978 7.1048C27.9503 7.1048 28.3949 7.22418 28.7865 7.45089C29.1782 7.67761 29.5031 8.00363 29.7285 8.39605L50.6396 44.9408C50.8633 45.3317 50.9804 45.7745 50.9789 46.2248C50.9775 46.6751 50.8577 47.1172 50.6315 47.5066C50.4053 47.896 50.0807 48.2192 49.6903 48.4435C49.2998 48.6679 48.8572 48.7857 48.4068 48.785ZM18.3492 43.5779H24.77C24.9018 43.5782 25.0313 43.5434 25.1453 43.4773C25.2593 43.4112 25.3537 43.316 25.419 43.2015C25.4843 43.087 25.518 42.9572 25.5168 42.8254C25.5156 42.6936 25.4794 42.5645 25.4121 42.4512L22.1188 36.8713C22.0534 36.7577 21.9593 36.6634 21.8458 36.5978C21.7324 36.5322 21.6036 36.4977 21.4726 36.4977C21.3415 36.4977 21.2128 36.5322 21.0993 36.5978C20.9859 36.6634 20.8917 36.7577 20.8264 36.8713L17.6988 42.4678C17.6352 42.5812 17.6024 42.7094 17.6036 42.8394C17.6049 42.9695 17.6401 43.097 17.7059 43.2092C17.7716 43.3214 17.8656 43.4145 17.9784 43.4792C18.0913 43.5439 18.2191 43.5779 18.3492 43.5779Z" fill="url(#paint0_linear_3_6797)"/>
<path d="M55.7188 32.0752C55.7188 29.5318 57.4959 28.9311 61.4809 28.9311H61.8496C61.8496 28.1026 61.6259 27.6884 60.0683 27.6884C59.1518 27.6959 58.2538 27.9476 57.4669 28.4174L56.2241 26.5906C57.4722 25.8632 58.8931 25.4854 60.3376 25.497C63.5728 25.497 64.2398 26.5285 64.2398 29.0678V31.7977C64.2398 32.5143 64.2895 32.6262 65.0186 32.6262V34.6601C64.6723 34.7174 64.3211 34.7382 63.9705 34.7223C63.0178 34.7223 62.6077 34.5317 62.2555 33.8358C61.7957 34.453 60.7974 34.8341 59.099 34.8341C56.3236 34.8507 55.7188 33.6452 55.7188 32.0752ZM61.8496 30.9775V30.6668H61.6425C58.4652 30.6668 58.0841 30.9195 58.0841 31.8888C58.0841 32.5558 58.4486 32.8706 59.5919 32.8706C61.1661 32.8499 61.8496 32.2948 61.8496 30.9775Z" fill="#2E294E"/>
<path d="M65.7973 30.5177V25.7207H68.2828V30.5632C68.2828 31.806 68.316 32.6925 70.0931 32.6925C71.8702 32.6925 71.8868 31.8018 71.8868 30.5508V25.7207H74.3391V30.5011C74.3391 33.5831 73.5106 34.8507 70.0848 34.8507C66.659 34.8507 65.7973 33.5955 65.7973 30.5177Z" fill="#2E294E"/>
<path d="M75.0764 25.7207H76.663L77.0773 23.5335L79.0118 23.1192V25.7041H81.141V27.8499H79.0118V31.5491C79.0118 32.2492 79.1071 32.6303 80.1717 32.6303H81.141V34.7015C80.7765 34.7305 80.1095 34.7305 79.6663 34.7305C77.2347 34.7305 76.5346 33.9021 76.5346 31.9054V27.8499H75.0599L75.0764 25.7207Z" fill="#2E294E"/>
<path d="M81.7334 30.1987C81.7334 27.183 83.0507 25.5177 86.4351 25.5177C89.8195 25.5177 91.116 27.1747 91.116 30.1987C91.116 33.2227 89.8153 34.8838 86.4351 34.8838C83.0548 34.8838 81.7334 33.2144 81.7334 30.1987ZM88.6264 30.265C88.6264 28.7405 88.15 27.7795 86.4351 27.7795C84.7201 27.7795 84.2437 28.7323 84.2437 30.265C84.2437 31.7977 84.7035 32.7504 86.4351 32.7504C88.1666 32.7504 88.6264 31.8018 88.6264 30.265Z" fill="#2E294E"/>
<path d="M92.1807 22.6263H94.691V24.8963H92.1807V22.6263ZM92.1807 25.7207H94.6661V34.7098H92.1807V25.7207Z" fill="#2E294E"/>
<path d="M96.1491 25.8657L98.0837 25.7207L98.2908 26.4995C98.705 25.961 99.6412 25.5177 101.451 25.5177C103.419 25.5177 103.784 25.961 104.07 26.5326C104.529 25.9444 105.515 25.5177 107.383 25.5177C110.097 25.5177 110.528 27.0256 110.528 29.2459V34.7098H108.017V29.7389C108.017 28.6411 108.017 27.8499 106.493 27.8499C104.765 27.8499 104.575 28.6577 104.575 29.8507V34.7098H102.089V29.7389C102.089 28.6411 102.056 27.8499 100.548 27.8499C98.821 27.8499 98.6305 28.6577 98.6305 29.8507V34.7098H96.145L96.1491 25.8657Z" fill="#2E294E"/>
<path d="M111.965 25.8657L113.9 25.7207L114.107 26.4995C114.521 25.961 115.457 25.5177 117.267 25.5177C119.235 25.5177 119.6 25.961 119.885 26.5326C120.345 25.9444 121.331 25.5177 123.22 25.5177C125.933 25.5177 126.364 27.0256 126.364 29.2459V34.7098H123.854V29.7389C123.854 28.6411 123.854 27.8499 122.334 27.8499C120.602 27.8499 120.412 28.6577 120.412 29.8507V34.7098H117.926V29.7389C117.926 28.6411 117.893 27.8499 116.385 27.8499C114.658 27.8499 114.467 28.6577 114.467 29.8507V34.7098H111.982L111.965 25.8657Z" fill="#2E294E"/>
<path d="M127.69 30.5177V25.7207H130.175V30.5632C130.175 31.806 130.204 32.6925 131.986 32.6925C133.767 32.6925 133.779 31.8018 133.779 30.5508V25.7207H136.223V30.5011C136.223 33.5831 135.395 34.8507 131.969 34.8507C128.543 34.8507 127.69 33.5955 127.69 30.5177Z" fill="#2E294E"/>
<path d="M137.623 25.8657L139.562 25.7207L139.769 26.4995C140.241 25.9775 141.115 25.5177 143.021 25.5177C145.734 25.5177 146.244 27.0256 146.244 29.2459V34.7098H143.758V29.7389C143.758 28.6411 143.634 27.8499 142.126 27.8499C140.395 27.8499 140.109 28.6577 140.109 29.8507V34.7098H137.623V25.8657Z" fill="#2E294E"/>
<path d="M147.246 30.1987C147.246 27.7132 148.075 25.5177 151.915 25.5177C155.871 25.5177 155.995 28.1523 155.916 31.1515H149.661C149.802 32.2326 150.328 32.8664 151.931 32.8664C152.941 32.9281 153.94 32.6351 154.757 32.0379L155.999 33.6576C154.839 34.5276 153.696 34.9004 151.919 34.9004C148.042 34.8838 147.246 32.738 147.246 30.1987ZM149.661 29.3702H153.646C153.584 28.3387 153.377 27.5931 151.836 27.5931C150.295 27.5931 149.79 28.2766 149.661 29.3702Z" fill="#2E294E"/>
<path d="M56.1123 46.3211C56.1123 43.8357 57.6823 43.177 61.9697 43.177H62.5414C62.5414 41.3378 62.21 40.559 60.002 40.559C59.0629 40.5566 58.1433 40.8272 57.355 41.3378L56.9408 40.704C57.878 40.1274 58.9555 39.8193 60.0559 39.8133C62.9101 39.8133 63.3409 40.8448 63.3409 43.3386V46.8224C63.3409 47.8373 63.403 47.9657 64.2936 47.9657V48.6782C64.1905 48.7099 64.0821 48.7212 63.9747 48.7113C62.9266 48.7113 62.6242 48.235 62.6242 47.249C62.0691 48.3302 61.1495 48.8688 59.1031 48.8688C56.7337 48.8936 56.1123 47.7834 56.1123 46.3211ZM62.5414 44.6642V43.9227H62.0029C58.0012 43.9227 56.9076 44.399 56.9076 46.2714C56.9076 47.4603 57.4296 48.1604 59.1943 48.1604C61.5762 48.1645 62.5414 47.0751 62.5414 44.6642Z" fill="#2E294E"/>
<path d="M65.4452 47.9243L65.8595 47.307C66.7736 47.8738 67.8331 48.1617 68.9083 48.1355C70.6067 48.1355 71.4311 47.771 71.4311 46.3253C71.4311 45.1654 70.7352 44.9458 68.9083 44.5482C66.9407 44.1339 65.7974 43.7694 65.7974 42.0378C65.7974 40.6584 66.6258 39.8009 68.8918 39.8009C69.9496 39.7677 70.9969 40.0195 71.924 40.53L71.5429 41.1969C70.7371 40.7524 69.8284 40.528 68.9083 40.5466C67.1312 40.5466 66.5927 41.1348 66.5927 42.0544C66.5927 43.1812 67.3218 43.438 68.987 43.8025C71.0583 44.2458 72.2264 44.5772 72.2264 46.3087C72.2264 48.2764 71.0997 48.8646 68.8793 48.8646C67.6664 48.9013 66.4703 48.5738 65.4452 47.9243Z" fill="#2E294E"/>
<path d="M73.2165 47.9243L73.6307 47.307C74.5446 47.8743 75.6043 48.1622 76.6796 48.1355C78.378 48.1355 79.2023 47.771 79.2023 46.3253C79.2023 45.1654 78.5064 44.9458 76.6796 44.5482C74.7119 44.1339 73.5686 43.7694 73.5686 42.0378C73.5686 40.6584 74.3971 39.8009 76.663 39.8009C77.7318 39.7662 78.7899 40.0225 79.7243 40.5424L79.31 41.2093C78.5041 40.7652 77.5955 40.5409 76.6754 40.559C74.8983 40.559 74.3557 41.1472 74.3557 42.0668C74.3557 43.1936 75.0889 43.4504 76.7541 43.815C78.8254 44.2582 79.9935 44.5896 79.9935 46.3211C79.9935 48.2888 78.8668 48.877 76.6423 48.877C75.4308 48.9086 74.2377 48.5768 73.2165 47.9243Z" fill="#2E294E"/>
<path d="M81.1824 44.3369C81.1824 41.3378 82.3257 39.8133 85.2462 39.8133C88.1666 39.8133 89.3389 41.3378 89.3389 44.3369C89.3389 47.336 88.1666 48.8936 85.2462 48.8936C82.3257 48.8936 81.1824 47.3526 81.1824 44.3369ZM88.5311 44.3369C88.5311 41.8514 87.6115 40.559 85.2462 40.559C82.8808 40.559 81.9902 41.8514 81.9902 44.3369C81.9902 46.8224 82.8974 48.1148 85.2462 48.1148C87.595 48.1148 88.5311 46.8472 88.5311 44.3369Z" fill="#2E294E"/>
<path d="M90.6687 44.3369C90.6687 41.5117 91.609 39.8133 94.7324 39.8133C95.2884 39.7799 95.845 39.8678 96.3636 40.071C96.8822 40.2741 97.3504 40.5876 97.7357 40.9898L97.164 41.5449C96.8458 41.2267 96.466 40.9766 96.048 40.81C95.6299 40.6433 95.1823 40.5635 94.7324 40.5755C92.2759 40.5755 91.4806 41.9384 91.4806 44.3535C91.4806 46.7685 92.2428 48.1314 94.7324 48.1314C95.6541 48.1539 96.5474 47.8115 97.2179 47.1786L97.7605 47.7047C97.3591 48.0964 96.8832 48.4034 96.3609 48.6076C95.8386 48.8119 95.2806 48.9091 94.72 48.8936C91.5924 48.8936 90.6687 47.1621 90.6687 44.3369Z" fill="#2E294E"/>
<path d="M99.3264 37.2077H100.155V38.7487H99.3264V37.2077ZM99.3264 40.0205H100.155V48.7196H99.3264V40.0205Z" fill="#2E294E"/>
<path d="M101.679 46.3211C101.679 43.8357 103.253 43.177 107.537 43.177H108.108C108.108 41.3378 107.777 40.559 105.569 40.559C104.63 40.5566 103.71 40.8272 102.922 41.3378L102.508 40.704C103.445 40.1279 104.523 39.8199 105.623 39.8133C108.477 39.8133 108.908 40.8448 108.908 43.3386V46.8224C108.908 47.8373 108.97 47.9657 109.861 47.9657V48.6782C109.758 48.7099 109.649 48.7212 109.542 48.7113C108.494 48.7113 108.191 48.235 108.191 47.249C107.636 48.3302 106.717 48.8688 104.67 48.8688C102.284 48.8936 101.679 47.7834 101.679 46.3211ZM108.108 44.6642V43.9227H107.57C103.568 43.9227 102.475 44.399 102.475 46.2714C102.475 47.4603 102.997 48.1604 104.761 48.1604C107.127 48.1645 108.108 47.0751 108.108 44.6642Z" fill="#2E294E"/>
<path d="M110.283 40.0205H111.903L112.031 37.2243L112.682 37.129V40.0287H115.188V40.7578H112.682V46.5573C112.682 47.4147 112.806 47.9698 114.078 47.9698H115.188V48.6989C115.126 48.6989 114.061 48.6989 113.982 48.6989C112.139 48.6989 111.886 47.9036 111.886 46.6028V40.7495H110.283V40.0205Z" fill="#2E294E"/>
<path d="M116.708 37.2077H117.537V38.7487H116.708V37.2077ZM116.708 40.0205H117.537V48.7196H116.708V40.0205Z" fill="#2E294E"/>
<path d="M119.235 44.3369C119.235 41.3378 120.378 39.8133 123.299 39.8133C126.219 39.8133 127.396 41.3378 127.396 44.3369C127.396 47.336 126.219 48.8936 123.299 48.8936C120.378 48.8936 119.235 47.3526 119.235 44.3369ZM126.584 44.3369C126.584 41.8514 125.664 40.559 123.299 40.559C120.933 40.559 120.043 41.8514 120.043 44.3369C120.043 46.8224 120.95 48.1148 123.299 48.1148C125.648 48.1148 126.584 46.8472 126.584 44.3369Z" fill="#2E294E"/>
<path d="M129.098 40.0495L129.736 40.0205L129.831 41.2632C130.179 40.501 131.004 39.8341 133.067 39.8341C135.942 39.8341 136.211 41.2632 136.211 43.4049V48.7238H135.403V43.4794C135.403 41.7644 135.258 40.5797 132.893 40.5797C130.387 40.5797 129.91 41.926 129.91 43.7362V48.7072H129.082L129.098 40.0495Z" fill="#2E294E"/>
<defs>
<linearGradient id="paint0_linear_3_6797" x1="10.4578" y1="16.5401" x2="34.0822" y2="57.4593" gradientUnits="userSpaceOnUse">
<stop stop-color="#D9186A"/>
<stop offset="1" stop-color="#802064"/>
</linearGradient>
</defs>
</svg>
