<svg width="176" height="48" viewBox="0 0 176 48" fill="none" xmlns="http://www.w3.org/2000/svg">
<path d="M9.82227 7.57867H33.2087V9.95989H22.6045V32.4867H20.2233V9.95989H9.82227V7.57867Z" fill="#C50000"/>
<path d="M10.2618 13.4809C12.8647 13.4809 14.9748 11.3708 14.9748 8.76792C14.9748 6.16501 12.8647 4.05493 10.2618 4.05493C7.65891 4.05493 5.54883 6.16501 5.54883 8.76792C5.54883 11.3708 7.65891 13.4809 10.2618 13.4809Z" fill="#FF0000"/>
<path d="M21.4125 13.4809C24.0154 13.4809 26.1255 11.3708 26.1255 8.76792C26.1255 6.16501 24.0154 4.05493 21.4125 4.05493C18.8096 4.05493 16.6995 6.16501 16.6995 8.76792C16.6995 11.3708 18.8096 13.4809 21.4125 13.4809Z" fill="#FF0000"/>
<path d="M37.2764 8.76792C37.2764 11.3708 35.1663 13.4809 32.5634 13.4809C29.9605 13.4809 27.8504 11.3708 27.8504 8.76792C27.8504 6.16501 29.9605 4.05493 32.5634 4.05493C35.1663 4.05493 37.2764 6.16501 37.2764 8.76792Z" fill="#FF0000"/>
<path d="M21.4125 24.7361C24.0154 24.7361 26.1255 22.626 26.1255 20.0231C26.1255 17.4202 24.0154 15.3101 21.4125 15.3101C18.8096 15.3101 16.6995 17.4202 16.6995 20.0231C16.6995 22.626 18.8096 24.7361 21.4125 24.7361Z" fill="#FF0000"/>
<path d="M26.1255 31.2755C26.1255 33.8784 24.0154 35.9885 21.4125 35.9885C18.8096 35.9885 16.6995 33.8784 16.6995 31.2755C16.6995 28.6726 18.8096 26.5625 21.4125 26.5625C24.0154 26.5625 26.1255 28.6726 26.1255 31.2755Z" fill="#FF0000"/>
<path d="M14.9748 20.0231C14.9748 22.626 12.8647 24.7361 10.2618 24.7361C7.65891 24.7361 5.54883 22.626 5.54883 20.0231C5.54883 17.4202 7.65891 15.3101 10.2618 15.3101C12.8647 15.3101 14.9748 17.4202 14.9748 20.0231Z" fill="#CBD7DC"/>
<path d="M37.2764 20.0231C37.2764 22.626 35.1663 24.7361 32.5634 24.7361C29.9605 24.7361 27.8504 22.626 27.8504 20.0231C27.8504 17.4202 29.9605 15.3101 32.5634 15.3101C35.1663 15.3101 37.2764 17.4202 37.2764 20.0231Z" fill="#CBD7DC"/>
<path d="M10.2618 35.9885C12.8647 35.9885 14.9748 33.8784 14.9748 31.2755C14.9748 28.6726 12.8647 26.5625 10.2618 26.5625C7.65891 26.5625 5.54883 28.6726 5.54883 31.2755C5.54883 33.8784 7.65891 35.9885 10.2618 35.9885Z" fill="#CBD7DC"/>
<path d="M37.2764 31.2755C37.2764 33.8784 35.1663 35.9885 32.5634 35.9885C29.9605 35.9885 27.8504 33.8784 27.8504 31.2755C27.8504 28.6726 29.9605 26.5625 32.5634 26.5625C35.1663 26.5625 37.2764 28.6726 37.2764 31.2755Z" fill="#CBD7DC"/>
<path d="M58.2301 11.9786C57.6231 11.7039 57.2057 11.7039 55.209 11.7039L55.22 8.45206L55.2156 8.31881C55.1713 6.93965 55.1101 5.03671 53.1738 4.31858C52.7578 4.16527 52.3181 4.08625 51.8747 4.08513C51.4006 4.067 50.9282 4.1533 50.4911 4.33792C50.054 4.52254 49.6628 4.80098 49.3452 5.15352C48.5605 6.026 48.5133 7.18718 48.4717 8.21068C48.469 8.27618 48.4664 8.34111 48.4636 8.40537V11.7012C47.3018 11.7012 45.9066 11.7012 45.2557 13.0964C45.0827 13.4582 45.0034 13.8577 45.025 14.2582C45.025 15.7847 45.9797 16.3566 46.2517 16.5196L46.2689 16.5299L46.2774 16.535C46.9393 16.8591 47.6836 16.8591 48.4746 16.8591V29.6907C48.4746 32.4784 48.6119 36.1477 54.8849 36.1477C56.6976 36.1477 59.9027 35.961 59.9027 33.1266C59.9027 32.1516 59.532 30.7097 57.6259 30.7097C55.9533 30.7097 55.2117 30.479 55.2117 28.4328V16.8563C57.5792 16.8563 58.5103 16.8563 59.2079 15.5106C59.4117 15.1229 59.5226 14.6933 59.532 14.2554C59.5469 13.7926 59.4331 13.3347 59.2033 12.9327C58.9734 12.5308 58.6365 12.2004 58.2301 11.9786Z" fill="#FF0000"/>
<path fill-rule="evenodd" clip-rule="evenodd" d="M68.4033 29.5479C67.2882 28.3861 67.0547 26.9937 66.9147 25.8786L80.205 25.8868L80.2236 25.8861C81.4766 25.8396 83.1327 25.7781 83.1327 22.6789C83.1327 18.1142 80.6224 11.248 72.0726 11.248C64.4538 11.248 59.76 16.8261 59.76 23.9808C59.76 29.7896 62.9185 36.5268 71.982 36.5268C74.6296 36.5268 77.3239 35.9692 79.4607 34.4339C80.8559 33.4589 81.32 32.4372 81.32 31.4622C81.3159 30.6579 80.9977 29.887 80.4334 29.3139C79.869 28.7408 79.1031 28.4108 78.2989 28.3944C77.5565 28.4018 76.8436 28.6858 76.2994 29.1909C75.9987 29.4298 75.7185 29.6935 75.4618 29.9791C74.9537 30.446 74.0253 31.1409 72.166 31.1409C71.4615 31.1589 70.7613 31.0261 70.1123 30.7513C69.4634 30.4766 68.8807 30.0663 68.4033 29.5479ZM76.603 20.5034C76.6261 20.6067 76.6492 20.7094 76.673 20.8113H66.9256C66.9373 20.7767 66.9491 20.7414 66.9611 20.7055C67.4786 19.1611 68.3575 16.5378 71.9462 16.5378C73.5255 16.5378 74.9646 17.0953 75.849 18.3971C76.2843 19.0835 76.4467 19.8074 76.603 20.5034Z" fill="#FF0000"/>
<path d="M100.537 28.6127L100.564 28.5618L100.564 28.5606C100.975 27.7801 101.511 26.763 103.064 26.763C104.597 26.763 106.409 27.7847 106.409 29.9214C106.409 32.245 103.204 36.6146 96.5219 36.6146C88.3456 36.6146 84.5802 30.9431 84.5802 24.1153C84.5802 15.2387 90.2956 11.2068 96.8488 11.2068C99.4497 11.2068 102.007 11.811 104.33 13.8105C105.723 15.0189 106.28 16.0873 106.28 17.3397C106.28 17.7402 106.201 18.1367 106.046 18.5061C105.892 18.8755 105.665 19.2106 105.38 19.4917C105.095 19.7728 104.756 19.9944 104.385 20.1436C104.013 20.2929 103.616 20.3667 103.215 20.3609C102.813 20.3685 102.414 20.2896 102.044 20.1294C101.675 19.9693 101.345 19.7316 101.076 19.4326C100.878 19.2333 100.717 19.0177 100.56 18.8063L100.559 18.806C100.458 18.6708 100.359 18.5372 100.252 18.4109C99.7408 17.7599 98.7192 16.7382 96.6812 16.7382C95.7721 16.7031 94.876 16.9633 94.127 17.4798C93.1959 18.0291 91.57 19.3392 91.57 23.9862C91.57 27.098 92.361 30.8525 96.9147 30.8525C99.1744 30.8498 99.8897 29.6793 100.448 28.7654C100.468 28.7329 100.488 28.7008 100.507 28.669C100.517 28.6504 100.527 28.6317 100.537 28.6127Z" fill="#FF0000"/>
<path d="M159.936 16.167C162.583 16.167 163.383 17.2354 163.932 18.0236C164.347 18.6278 164.904 19.3721 166.343 19.3721C168.016 19.3721 169.505 18.0703 169.505 16.351C169.505 14.0302 166.159 11.1931 160.304 11.1931C157.189 11.1931 153.937 11.8907 151.894 14.2142C150.717 15.5626 150.087 17.3026 150.128 19.092C150.128 23.7858 154.3 25.0876 156.772 25.8319C157.194 25.9815 158.633 26.3864 159.757 26.7027C160.366 26.8742 160.882 27.0196 161.095 27.0843C162.21 27.4111 163.462 27.8286 163.462 29.2238C163.462 30.663 162.221 31.454 160.024 31.454C156.906 31.454 155.961 30.0941 155.533 29.478L155.517 29.4545C154.822 28.3861 154.078 27.3644 152.452 27.3644C152.044 27.3605 151.64 27.4391 151.263 27.5956C150.886 27.7521 150.546 27.9832 150.261 28.275C149.976 28.5668 149.753 28.9132 149.606 29.2934C149.458 29.6736 149.389 30.0797 149.403 30.4872C149.403 33.2749 153.168 36.4801 160.136 36.4801C168.733 36.4801 170.452 31.5995 170.452 28.7652C170.452 23.7057 166.536 22.5188 163.031 21.4563L162.924 21.4238C162.078 21.1931 161.24 20.9569 160.452 20.6822C158.129 20.0231 156.64 19.5589 156.64 18.2104C156.64 16.9909 157.843 16.167 159.936 16.167Z" fill="#FF0000"/>
<path d="M122.161 18.0236C121.611 17.2354 120.812 16.167 118.164 16.167C116.072 16.167 114.869 16.9909 114.869 18.2104C114.869 19.5589 116.357 20.0231 118.681 20.6822C119.469 20.9569 120.307 21.1931 121.153 21.4238L121.26 21.4563C124.765 22.5188 128.681 23.7057 128.681 28.7652C128.681 31.5995 126.961 36.4801 118.365 36.4801C111.397 36.4801 107.632 33.2749 107.632 30.4872C107.619 30.0787 107.689 29.6719 107.838 29.2914C107.987 28.9109 108.212 28.5645 108.499 28.2734C108.786 27.9822 109.129 27.7523 109.507 27.5975C109.885 27.4426 110.291 27.3662 110.699 27.3727C112.325 27.3727 113.07 28.3944 113.764 29.4628L113.781 29.4863C114.209 30.1023 115.153 31.4622 118.271 31.4622C120.469 31.4622 121.71 30.6712 121.71 29.2321C121.71 27.8368 120.458 27.4194 119.343 27.0925C119.13 27.0279 118.613 26.8824 118.004 26.711C116.88 26.3947 115.442 25.9897 115.02 25.8401C112.548 25.0958 108.376 23.794 108.376 19.1002C108.336 17.3111 108.966 15.5716 110.142 14.2225C112.185 11.8989 115.437 11.2013 118.552 11.2013C124.407 11.2013 127.752 14.0384 127.752 16.3592C127.752 18.0785 126.264 19.3804 124.591 19.3804C123.136 19.3721 122.578 18.6278 122.161 18.0236Z" fill="#FF0000"/>
<path d="M139.164 27.8753C138.837 25.8896 138.747 25.4584 138.326 23.6924L136.003 15.4089L135.978 15.3252C135.517 13.7663 134.889 11.6462 132.38 11.6462C130.938 11.6462 128.942 12.5746 128.942 14.8047C128.988 15.5558 129.145 16.296 129.406 17.0019L136.234 36.1917C135.783 37.1227 135.212 38.2378 133.586 38.2378C133.422 38.2378 132.967 38.1792 132.514 38.1207C132.062 38.0625 131.611 38.0044 131.449 38.0044C129.821 38.0044 128.568 39.0728 128.568 40.7921C128.568 44 132.378 44 133.399 44C139.309 44 140.448 40.8342 142.283 35.7359L142.32 35.6341L148.78 16.9085C149.035 16.2401 149.176 15.5336 149.197 14.8184C149.197 12.5883 147.387 11.66 145.901 11.66C143.671 11.66 143.067 13.4699 142.743 14.585L139.815 25.0876C139.732 25.4306 139.666 25.6965 139.606 25.9357C139.463 26.5065 139.358 26.9249 139.164 27.8753Z" fill="#FF0000"/>
<path d="M55.0517 7.24361C55.0517 9.03501 53.5995 10.4872 51.8081 10.4872C50.0167 10.4872 48.5645 9.03501 48.5645 7.24361C48.5645 5.45222 50.0167 4 51.8081 4C53.5995 4 55.0517 5.45222 55.0517 7.24361Z" fill="#C50000"/>
<path d="M81.3109 31.4018C81.3109 33.1568 79.8882 34.5795 78.1332 34.5795C76.3782 34.5795 74.9555 33.1568 74.9555 31.4018C74.9555 29.6468 76.3782 28.2241 78.1332 28.2241C79.8882 28.2241 81.3109 29.6468 81.3109 31.4018Z" fill="#C50000"/>
<path d="M57.1582 35.8237C58.7296 35.8237 60.0035 34.5498 60.0035 32.9783C60.0035 31.4068 58.7296 30.1329 57.1582 30.1329C55.5867 30.1329 54.3128 31.4068 54.3128 32.9783C54.3128 34.5498 55.5867 35.8237 57.1582 35.8237Z" fill="#C50000"/>
<path d="M106.458 29.8775C106.458 31.6325 105.035 33.0552 103.28 33.0552C101.525 33.0552 100.102 31.6325 100.102 29.8775C100.102 28.1225 101.525 26.6998 103.28 26.6998C105.035 26.6998 106.458 28.1225 106.458 29.8775Z" fill="#C50000"/>
<path d="M103.126 20.3966C104.881 20.3966 106.304 18.9739 106.304 17.2189C106.304 15.4639 104.881 14.0412 103.126 14.0412C101.371 14.0412 99.9486 15.4639 99.9486 17.2189C99.9486 18.9739 101.371 20.3966 103.126 20.3966Z" fill="#C50000"/>
<path d="M169.484 16.3977C169.484 18.1527 168.062 19.5754 166.307 19.5754C164.552 19.5754 163.129 18.1527 163.129 16.3977C163.129 14.6427 164.552 13.22 166.307 13.22C168.062 13.22 169.484 14.6427 169.484 16.3977Z" fill="#C50000"/>
<path d="M152.561 33.6622C154.316 33.6622 155.738 32.2395 155.738 30.4845C155.738 28.7295 154.316 27.3068 152.561 27.3068C150.806 27.3068 149.383 28.7295 149.383 30.4845C149.383 32.2395 150.806 33.6622 152.561 33.6622Z" fill="#C50000"/>
<path d="M127.746 16.4306C127.746 18.1856 126.323 19.6083 124.568 19.6083C122.813 19.6083 121.391 18.1856 121.391 16.4306C121.391 14.6757 122.813 13.253 124.568 13.253C126.323 13.253 127.746 14.6757 127.746 16.4306Z" fill="#C50000"/>
<path d="M110.795 33.61C112.55 33.61 113.972 32.1873 113.972 30.4323C113.972 28.6773 112.55 27.2546 110.795 27.2546C109.04 27.2546 107.617 28.6773 107.617 30.4323C107.617 32.1873 109.04 33.61 110.795 33.61Z" fill="#C50000"/>
<path d="M135.59 14.8322C135.59 16.6585 134.11 18.139 132.283 18.139C130.457 18.139 128.976 16.6585 128.976 14.8322C128.976 13.0059 130.457 11.5254 132.283 11.5254C134.11 11.5254 135.59 13.0059 135.59 14.8322Z" fill="#C50000"/>
<path d="M146.071 17.944C147.826 17.944 149.248 16.5213 149.248 14.7663C149.248 13.0113 147.826 11.5886 146.071 11.5886C144.316 11.5886 142.893 13.0113 142.893 14.7663C142.893 16.5213 144.316 17.944 146.071 17.944Z" fill="#C50000"/>
<path d="M134.346 40.7152C134.346 42.3519 133.019 43.6787 131.382 43.6787C129.746 43.6787 128.419 42.3519 128.419 40.7152C128.419 39.0785 129.746 37.7517 131.382 37.7517C133.019 37.7517 134.346 39.0785 134.346 40.7152Z" fill="#C50000"/>
</svg>
