<svg width="160" height="56" viewBox="0 0 160 56" fill="none" xmlns="http://www.w3.org/2000/svg">
<path d="M32.9046 7.03363C37.2321 8.95992 41.0674 11.9259 41.2191 12.0437L41.2237 12.0474C40.6127 9.63089 40.1702 8.33745 40.1702 8.33745C41.5296 9.07701 43.1537 10.0292 44.7515 11.0232L45.106 11.2447C47.6419 12.8362 50.0564 14.5016 51.1744 15.5512C52.2605 15.5005 53.1295 15.2275 53.6867 14.9943C54.6363 14.5967 55.4346 15.5734 55.7368 16.567C56.0372 17.5553 56.3988 19.0808 56.4153 20.7353C56.434 22.5799 56.0245 24.1737 55.1986 25.4726C53.6343 27.9327 50.5966 29.599 47.318 31.3083L46.9528 31.4985L46.7695 31.5938C43.1328 33.4847 40.0992 35.4036 37.7279 38.9332C36.5032 40.7562 35.5458 42.7888 34.9119 44.8987C34.2355 47.1453 33.7012 48.9664 32.1812 48.9664C30.8057 48.9664 29.9851 47.1944 29.3648 46.1937C28.1716 44.2692 26.6876 41.8756 24.2851 41.6731C22.1511 41.357 20.3996 42.1469 19.1339 43.1905C18.5083 43.7063 17.9901 44.293 17.5929 44.8551C17.2371 45.2807 16.902 45.7172 16.5762 46.1418C15.5806 47.4398 14.7205 48.561 13.5843 48.8861C13.3986 48.9395 13.2158 48.9664 13.0409 48.9664C12.9163 48.9664 12.7755 48.952 12.6274 48.9129L12.5527 48.8912L12.5497 48.8959C8.96886 47.8468 8.78408 41.2985 8.78408 41.2985C7.06244 41.7085 5.28466 42.8407 5.28466 42.8407C6.88783 37.3486 9.96069 33.7595 9.96069 33.7595C9.29053 33.7069 8.53561 33.7204 7.79396 33.7674L7.5825 33.7817C5.71931 33.9158 4 34.244 4 34.244C8.78408 28.0874 12.0124 25.8312 12.0124 25.8312C9.47784 24.724 6.24033 24.1578 6.24033 24.1578C12.0678 20.7928 17.8507 19.1462 17.8507 19.1462C16.5912 17.9571 12.0574 16.3583 12.0574 16.3583C12.9425 16.1036 13.9776 15.87 15.0538 15.6605L15.3483 15.6039C15.5451 15.5666 15.743 15.5301 15.9413 15.4945L16.2389 15.4416C16.4005 15.4132 16.5621 15.3854 16.7233 15.3582L16.965 15.3177C17.0052 15.3111 17.0454 15.3044 17.0855 15.2978L17.326 15.2587C20.4046 14.7616 23.2018 14.4776 23.2018 14.4776C21.695 13.2075 18.2852 11.8248 18.2852 11.8248C20.2052 11.7593 21.9222 11.7357 23.3694 11.7339L23.7693 11.7339C26.6052 11.7383 28.3027 11.8248 28.3027 11.8248C27.2434 10.3692 24.5135 8.46451 24.5135 8.46451C30.1979 8.99923 34.2499 10.4099 34.2499 10.4099C34.2068 10.0645 33.9645 9.41758 33.6971 8.78169L33.6269 8.61626C33.2742 7.79243 32.9046 7.03363 32.9046 7.03363ZM23.7574 42.8338C23.5885 43.2852 23.3988 43.7738 23.1968 44.2626C23.1685 44.331 23.1401 44.3996 23.1114 44.4681L23.0248 44.6736C22.2835 46.4185 21.4158 48.1023 20.4852 48.2492C20.4257 48.2586 20.365 48.2634 20.3051 48.2634C19.5665 48.2634 18.9043 47.5818 18.2852 46.182C19.374 44.6469 21.5344 42.8591 23.7574 42.8338ZM41.0193 37.3486C40.4099 39.6333 40.3286 41.928 40.2637 43.7714L40.2636 43.7732C40.2215 44.9651 40.1853 45.9942 40.0151 46.7433C39.7872 47.7467 39.288 48.2555 38.5308 48.2555L38.505 48.2553C37.7744 48.2435 36.9982 47.6176 36.1474 46.3491C36.6488 43.4772 38.6329 39.8088 41.0193 37.3486ZM74.9246 14.9204C77.357 14.9204 79.7352 15.9913 81.3297 17.7221C82.9219 19.4507 83.907 21.8382 83.907 24.4733C83.907 27.1084 82.9219 29.4954 81.3297 31.224C79.7352 32.9544 77.357 34.0257 74.9246 34.0257C73.1431 34.0257 71.2738 33.4739 69.9714 32.2442L69.975 38.104C69.9784 43.0309 66.1327 42.284 65.242 42.2339C64.9391 42.2168 64.7022 42.1519 64.5377 41.9899C64.3732 41.828 64.2905 41.5956 64.2905 41.2965L64.2784 15.9002C64.2784 15.5946 64.363 15.3539 64.5326 15.1873C64.7018 15.0203 64.9448 14.937 65.2564 14.937H68.6011C68.9129 14.937 69.1559 15.0203 69.325 15.1873C69.4947 15.3539 69.5755 15.5923 69.5793 15.9002L69.5919 16.8708C70.3419 16.2518 71.1747 15.7709 72.0551 15.4414C72.9721 15.099 73.9418 14.9204 74.9246 14.9204ZM140.957 14.896C141.21 14.896 141.426 14.9646 141.592 15.0925C141.758 15.2209 141.879 15.417 141.982 15.6586L146.759 26.8332L150.186 15.6899C150.259 15.423 150.388 15.2401 150.564 15.1057C150.735 14.9741 150.954 14.896 151.211 14.896H155.165C155.501 14.896 155.739 14.9936 155.879 15.1712C156.019 15.3558 156.038 15.6135 155.934 15.9568L150.617 32.6446L148.565 39.1196L147.781 41.6089C147.694 41.8855 147.552 42.0797 147.357 42.1888L147.3 42.2168C147.087 42.3034 146.861 42.2909 146.594 42.2256C145.733 42.013 141.737 41.5638 143.335 36.8969L144.283 34.1283L144.068 33.5904L143.029 31.1209L136.521 16.0019C136.379 15.688 136.43 15.4022 136.558 15.2076C136.691 15.0046 136.925 14.902 137.254 14.896H140.957ZM16.3191 30.4641L11.8624 37.1728L16.0621 33.3329L16.3191 30.4641ZM116.014 14.9227C116.211 14.925 116.37 14.9991 116.487 15.1188C116.659 15.2941 116.74 15.5311 116.74 15.8376V20.2611C116.74 20.5611 116.678 20.7861 116.544 20.9361C116.417 21.0857 116.227 21.1612 115.979 21.1612C115.441 21.1423 114.926 21.1985 114.425 21.3297C113.93 21.4604 113.479 21.6859 113.086 21.9919C112.693 22.3044 112.377 22.724 112.147 23.2353C111.914 23.7544 111.796 24.3849 111.792 25.1351L111.766 29.8526C111.739 34.7795 107.924 34.0331 107.033 33.9825C106.729 33.9654 106.493 33.9014 106.329 33.739C106.164 33.5766 106.081 33.3451 106.081 33.0455V15.8744C106.081 15.5748 106.164 15.3433 106.329 15.1809C106.494 15.0184 106.729 14.9374 107.033 14.9374H110.839C111.145 14.9374 111.379 15.0184 111.544 15.1809C111.71 15.3433 111.792 15.5744 111.792 15.8744V16.8174C112.249 16.0194 113.293 14.8864 116.014 14.9227ZM127.364 14.896C131.664 14.896 135.265 17.5017 136.405 21.2657C136.626 21.881 136.258 22.2795 135.633 22.2795H131.591C131.113 22.2795 130.782 22.0623 130.488 21.6642C129.827 20.7595 128.687 20.2523 127.364 20.2523C124.975 20.2523 123.137 21.9537 123.137 24.4507C123.137 26.9482 124.975 28.6491 127.364 28.6491C128.687 28.6491 129.827 28.1425 130.488 27.2741C130.782 26.8396 131.075 26.6224 131.591 26.6224H135.633C136.258 26.6224 136.626 27.0205 136.405 27.6358C135.265 31.3998 131.664 34.0059 127.364 34.0059C121.778 34.0059 117.624 29.8434 117.624 24.4507C117.624 19.0581 121.778 14.896 127.364 14.896ZM95.2981 14.9048C96.6417 14.9108 97.8749 15.151 98.9988 15.6264C100.122 16.1013 101.093 16.7686 101.924 17.6227C102.748 18.4829 103.389 19.4865 103.841 20.6412C104.293 21.7959 104.525 23.0587 104.531 24.4295C104.531 24.6643 104.525 24.8926 104.506 25.1093C104.494 25.3315 104.476 25.5483 104.458 25.7646C104.421 26.0532 104.311 26.2635 104.14 26.396C103.969 26.5286 103.743 26.5943 103.468 26.5943H91.2314C91.4632 27.304 91.7871 27.8811 92.2142 28.3262C92.6418 28.7652 93.1428 29.0841 93.7041 29.2884C94.2724 29.4927 94.8766 29.5889 95.5182 29.5889C96.0369 29.5829 96.5375 29.5047 97.0141 29.3427C97.4843 29.1802 97.8931 28.9635 98.2291 28.6869C98.4063 28.5428 98.5834 28.4283 98.7544 28.3441C98.9316 28.2603 99.133 28.218 99.3648 28.218L102.882 28.1821C103.218 28.1881 103.462 28.2842 103.609 28.4706C103.749 28.657 103.755 28.8977 103.615 29.1922C103.133 30.2387 102.491 31.1164 101.692 31.82C100.892 32.5296 99.9634 33.0584 98.9068 33.4196C97.8506 33.774 96.6968 33.9548 95.4448 33.9548C93.9181 33.9484 92.5441 33.7021 91.323 33.2209C90.0959 32.7399 89.0513 32.0726 88.1844 31.2065C87.311 30.3469 86.6455 29.3362 86.1815 28.1881C85.7174 27.0334 85.4851 25.7826 85.479 24.4295C85.4851 23.0766 85.7235 21.8257 86.1997 20.6715C86.6759 19.5229 87.3475 18.5127 88.2209 17.6527C89.0883 16.787 90.1262 16.1192 91.323 15.6383C92.5199 15.1574 93.8447 14.9108 95.2981 14.9048ZM29.0848 25.3243L18.9889 30.1459L27.4034 28.0874L29.0848 25.3243ZM20.0532 24.158L12.0574 29.8931L18.5718 27.0255L20.0532 24.158ZM74.8544 20.2146C72.5093 20.2146 70.6087 22.0986 70.6087 24.4226C70.6087 26.7472 72.5093 28.6312 74.8544 28.6312C77.199 28.6312 79.0996 26.7472 79.0996 24.4226C79.0996 22.0986 77.199 20.2146 74.8544 20.2146ZM38.1411 22.4763L29.1727 23.4421L35.729 23.826L38.1411 22.4763ZM95.2617 19.7033C94.2293 19.7093 93.3624 19.944 92.6787 20.4189C91.9885 20.8879 91.5002 21.5796 91.2132 22.4816H99.0596C98.8643 21.8018 98.5712 21.2546 98.1801 20.846C97.796 20.4429 97.344 20.1483 96.837 19.9679C96.33 19.7875 95.8051 19.6973 95.2617 19.7033ZM28.3027 19.8443L19.3342 20.8099L25.9247 21.4377L28.3027 19.8443ZM40.9351 18.7201L34.2499 20.1376L39.4515 19.8443L40.9351 18.7201ZM25.7446 16.3583L32.6971 18.1372L35.7289 17.1307L25.7446 16.3583ZM32.9046 12.9304L38.5308 15.5512L41.2237 14.9943L32.9046 12.9304Z" fill="#5C007B"/>
</svg>
