<svg width="160" height="56" viewBox="0 0 160 56" fill="none" xmlns="http://www.w3.org/2000/svg">
<path d="M99.7887 16.0468C94.9435 16.1912 91.1434 20.2944 91.1434 25.1452V36.2207C91.1434 36.483 91.356 36.6957 91.6184 36.6957H94.3032C94.5655 36.6957 94.7782 36.483 94.7782 36.2207V25.1053C94.7782 22.2552 96.9576 19.8175 99.7943 19.6769C102.71 19.5332 105.19 21.7802 105.334 24.6959C105.334 24.7842 105.341 24.8716 105.341 24.959V36.2264C105.341 36.4887 105.553 36.7014 105.816 36.7014H108.499C108.762 36.7014 108.974 36.4887 108.974 36.2264V24.9619C108.968 20.0306 104.965 16.0382 100.034 16.0439C99.953 16.043 99.8694 16.0439 99.7887 16.0468ZM122.448 16.1475C117.828 15.9393 113.635 18.8319 112.188 23.2244C110.742 27.6168 112.397 32.435 116.236 35.0122C120.076 37.5894 125.162 37.2955 128.679 34.2931V36.214C128.679 36.4764 128.892 36.689 129.154 36.689H131.841C132.103 36.689 132.316 36.4764 132.316 36.214V26.6615C132.31 21.1038 127.999 16.385 122.448 16.1475ZM121.999 33.1321C119.296 33.1333 116.859 31.5061 115.824 29.0093C114.788 26.5126 115.359 23.638 117.27 21.7261C119.18 19.8141 122.054 19.2414 124.552 20.275C127.049 21.3085 128.678 23.7448 128.679 26.4477C128.676 30.1365 125.688 33.1269 121.999 33.1321ZM146.13 16.1484C141.51 15.9403 137.317 18.8329 135.871 23.2253C134.424 27.6178 136.079 32.4359 139.919 35.0132C143.758 37.5904 148.844 37.2964 152.361 34.294V38.3715C152.361 42.1175 149.297 45.3001 145.551 45.2317C143.43 45.1987 141.452 44.1535 140.23 42.4196C140.086 42.2212 139.812 42.1681 139.603 42.298L137.323 43.7117C137.216 43.7784 137.139 43.8855 137.111 44.0089C137.083 44.1323 137.105 44.262 137.172 44.3691C137.176 44.3758 137.18 44.3821 137.185 44.3881C139.06 47.1407 142.156 48.8097 145.486 48.8627C151.267 48.9729 156 44.1259 156 38.343V26.6719C155.997 21.1038 151.686 16.385 146.135 16.1475L146.13 16.1484ZM145.685 33.1321C142.982 33.1325 140.545 31.5046 139.51 29.0076C138.475 26.5105 139.047 23.6361 140.958 21.7247C142.869 19.8133 145.743 19.2414 148.241 20.2757C150.738 21.31 152.366 23.7467 152.366 26.4496C152.362 30.1382 149.373 33.1274 145.685 33.1321ZM59.5682 16.1475C54.9487 15.9405 50.7562 18.8339 49.3108 23.2263C47.8654 27.6187 49.5206 32.4362 53.3602 35.0129C57.1999 37.5896 62.2854 37.2954 65.8023 34.2931V38.3706C65.8023 42.1166 62.7375 45.3011 58.9906 45.2308C56.8697 45.1972 54.8926 44.1522 53.6704 42.4187C53.5257 42.2198 53.2519 42.1667 53.0434 42.2971L50.7633 43.7107C50.6555 43.7773 50.5788 43.8843 50.5503 44.0077C50.5217 44.1312 50.5437 44.2609 50.6113 44.3681C50.6161 44.3748 50.6199 44.3814 50.6246 44.3871C52.4954 47.1377 55.5857 48.8082 58.9117 48.8665C64.6936 48.9767 69.4267 44.1297 69.4267 38.3468V26.6719C69.4333 21.1038 65.1221 16.385 59.5682 16.1475ZM59.1198 33.1321C55.4291 33.1321 52.4373 30.1403 52.4373 26.4496C52.4373 22.759 55.4291 19.7671 59.1198 19.7671C62.8104 19.7671 65.8023 22.759 65.8023 26.4496C65.7976 30.1383 62.8085 33.1274 59.1198 33.1321ZM44.9643 16.2815L42.2776 16.3233C42.0212 16.3278 41.8147 16.5352 41.8112 16.7916V27.507C41.808 30.4261 39.4396 32.7903 36.5205 32.7882C36.435 32.7882 36.3504 32.7882 36.2649 32.7816C33.4281 32.6429 31.2497 30.1937 31.2497 27.3531V16.8078C31.2497 16.5454 31.037 16.3328 30.7747 16.3328H28.0899C27.8276 16.3328 27.6149 16.5454 27.6149 16.8078V27.3227C27.6149 32.1678 31.415 36.2777 36.2602 36.4221C41.1901 36.5615 45.2997 32.6782 45.4393 27.7483C45.4393 27.6695 45.4393 27.5916 45.4393 27.5127V16.7536C45.4393 16.4913 45.2267 16.2786 44.9643 16.2786V16.2815ZM80.98 24.7187C78.3484 23.9871 76.7504 23.4418 76.7504 22.0168C76.7504 19.9552 79.0058 19.2075 80.522 19.2075C82.2511 19.2075 83.298 19.6056 84.6585 20.4426C84.8776 20.5739 85.1613 20.5084 85.3007 20.2944L86.5471 18.3611C86.6879 18.1411 86.6247 17.8487 86.4056 17.7065L86.3913 17.6979C84.5828 16.6047 82.509 16.0283 80.3957 16.0316C76.9756 16.0316 73.4548 18.2832 73.4548 22.05C73.4548 25.8958 76.8749 26.8192 79.8827 27.6343C82.7328 28.4038 84.458 29.0004 84.458 30.796C84.458 32.4453 82.7632 33.6898 80.5173 33.6898C78.355 33.6898 76.5861 32.7132 75.3871 31.7897C75.1855 31.6321 74.8947 31.665 74.7335 31.8638L73.2534 33.6689C73.0899 33.8718 73.1204 34.1685 73.3218 34.3339C75.2674 35.9661 77.8591 36.8591 80.6788 36.8591C84.7734 36.8591 87.7432 34.2579 87.7432 30.6725C87.7527 26.6007 83.9925 25.5556 80.9771 24.7177L80.98 24.7187ZM15.5229 16.2073C12.675 15.871 9.81617 16.7404 7.63766 18.6052V7.60673C7.63766 7.34439 7.42499 7.13171 7.16265 7.13171C7.07684 7.13171 6.99271 7.15547 6.91944 7.20012L4.22611 8.83797C4.08556 8.92444 4 9.07766 4 9.24268V26.2397C4 31.8021 8.31123 36.5171 13.8623 36.7546C19.3968 36.9823 24.1231 32.7982 24.5683 27.277C25.0135 21.7557 21.0186 16.8684 15.5191 16.2064L15.5229 16.2073ZM14.3126 33.1321C10.6219 33.1321 7.63006 30.1403 7.63006 26.4496C7.63006 22.759 10.6219 19.7671 14.3126 19.7671C18.0032 19.7671 20.9951 22.759 20.9951 26.4496C20.9953 28.222 20.2914 29.9219 19.0381 31.1751C17.7848 32.4284 16.085 33.1324 14.3126 33.1321Z" fill="#000D47"/>
</svg>
