<svg width="216" height="48" viewBox="0 0 216 48" fill="none" xmlns="http://www.w3.org/2000/svg">
<path d="M162.293 17.6927C166.243 17.6927 169.215 19.8674 169.215 24.6022V34.0693H165.266L165.382 31.7793C164.207 33.497 162.644 34.4127 160.219 34.4127C156.973 34.4127 154.311 32.9246 154.311 29.336C154.311 26.0127 157.05 24.5646 160.766 24.5255H165.266C165.266 21.967 164.092 20.8984 161.98 20.8984C160.28 20.8984 159.148 21.4722 158.302 22.2017L155.448 20.5941L155.408 20.5546C155.434 20.526 155.458 20.496 155.483 20.4698C156.922 18.837 158.868 17.6927 162.293 17.6927ZM165.266 28.456V27.1965H161.041C159.319 27.1965 158.185 27.8079 158.185 29.2217C158.185 30.5951 159.28 31.3193 161.314 31.3193C163.623 31.3198 165.266 30.2122 165.266 28.456ZM206.981 29.1365L210.143 30.9189C208.588 33.0313 206.054 34.4127 203.186 34.4127C198.455 34.4127 194.621 30.6689 194.621 26.0517C194.621 21.4355 198.455 17.6922 203.186 17.6922C206.05 17.6922 208.576 19.0679 210.133 21.1727L206.97 22.956C206.02 21.8567 204.638 21.2263 203.186 21.2298C200.462 21.2298 198.246 23.3927 198.246 26.0513C198.246 28.7093 200.462 30.8736 203.186 30.8736C204.644 30.8786 206.031 30.2436 206.981 29.1365ZM68.2174 29.1365L71.3798 30.9189C69.8246 33.0313 67.2908 34.4127 64.4222 34.4127C59.6912 34.4127 55.8574 30.6689 55.8574 26.0517C55.8574 21.4355 59.6908 17.6922 64.4222 17.6922C67.2865 17.6922 69.8127 19.0679 71.3698 21.1727L68.2069 22.956C67.2571 21.8567 65.875 21.2263 64.4222 21.2298C61.6984 21.2298 59.4822 23.3927 59.4822 26.0513C59.4822 28.7093 61.6984 30.8736 64.4222 30.8736C65.8807 30.8787 67.268 30.2437 68.2174 29.1365ZM126.049 18.0365H129.999L129.921 20.7851C131.017 18.7622 132.699 17.6927 134.812 17.6927C137.197 17.6927 138.763 18.7984 139.623 20.746C140.914 18.8379 142.869 17.6927 145.255 17.6927C149.127 17.6927 151.434 20.2127 151.434 24.296V34.0689H147.485V24.6784C147.485 22.4636 146.662 21.2422 144.394 21.2422C142.088 21.2422 140.717 22.617 140.717 25.2898V34.0693H136.768V24.6784C136.768 22.4636 135.985 21.2422 133.716 21.2422C131.368 21.2422 130 22.617 130 25.2898V34.0693H126.049V18.0365H126.049ZM74.236 8.76221H78.1855V20.8608C79.2427 18.8765 81.1989 17.6927 83.6646 17.6927C87.2998 17.6927 89.8046 20.2127 89.8046 24.5651V34.0693H85.8522V24.8698C85.8522 22.5789 84.7584 21.2422 82.4489 21.2422C79.8679 21.2422 78.1855 22.7698 78.1855 25.366V34.0689H74.236V8.76221ZM114.348 17.6927C119.081 17.6927 122.914 21.4355 122.914 26.0522C122.914 30.6689 119.081 34.4132 114.348 34.4132C109.618 34.4132 105.783 30.6693 105.783 26.0522C105.783 21.4355 109.618 17.6927 114.348 17.6927ZM114.348 21.2308C111.626 21.2308 109.408 23.3932 109.408 26.0522C109.408 28.7103 111.626 30.8746 114.348 30.8746C117.075 30.8746 119.291 28.7103 119.291 26.0522C119.291 23.3932 117.075 21.2303 114.348 21.2308ZM93.7312 18.0365H97.6836L97.6431 21.0513C98.7408 18.5322 100.617 17.7303 102.416 17.7303C103.258 17.7303 103.921 17.8684 104.486 18.1017C104.708 18.1922 105.173 18.4103 105.625 18.7408C105.625 18.7408 105.077 19.4055 104.596 20.2141C104.112 21.0236 103.786 21.8913 103.786 21.8913C103.16 21.5865 102.533 21.356 101.635 21.356C99.2874 21.356 97.6836 22.6922 97.6836 26.2817V34.0693H93.7312V18.0365ZM187.187 34.0932V18.0365H191.183V34.0932H187.187ZM186.561 11.8055C186.561 10.3532 187.775 9.28173 189.185 9.28173C190.596 9.28173 191.81 10.3532 191.81 11.8055C191.81 13.3341 190.596 14.3665 189.185 14.3665C187.774 14.3665 186.561 13.3346 186.561 11.8055ZM174.783 28.6655V21.286H172.315V18.0365H174.783V8.76221H178.739V18.037H183.127V21.286H178.739V28.7408C178.739 30.5765 179.366 31.1122 180.385 31.1122C181.326 31.1122 181.913 30.6908 182.343 30.347L184.224 32.9465C183.4 33.7117 182.108 34.4765 179.992 34.4765C176.898 34.4765 174.782 32.947 174.783 28.6655Z" fill="#333333"/>
<path d="M25.8574 44.0005C36.9031 44.0005 45.8574 35.0462 45.8574 24.0005C45.8574 12.9548 36.9031 4.00049 25.8574 4.00049C14.8117 4.00049 5.85742 12.9548 5.85742 24.0005C5.85742 35.0462 14.8117 44.0005 25.8574 44.0005Z" fill="#FC521F"/>
<path d="M30.5579 33.1982L27.3798 31.3639L36.9408 25.8491C37.3075 25.6377 37.6527 25.3948 37.9741 25.1244C39.217 26.8939 39.3389 29.2239 38.2313 31.1429C37.2227 32.8789 35.3675 33.9479 33.3598 33.9501C32.3803 33.9501 31.4122 33.6905 30.5579 33.1977V33.1982ZM29.7922 34.5229C30.1589 34.7348 30.5417 34.9129 30.9375 35.0563C30.0246 37.0153 28.0665 38.2858 25.8484 38.2858C22.7522 38.2858 20.2317 35.7682 20.2317 32.6739V21.6434L25.0827 24.4429V31.3644C25.0827 31.6377 25.2289 31.8901 25.4655 32.0267L29.7922 34.5229ZM18.3517 33.9491C16.3452 33.9471 14.4909 32.8788 13.4827 31.1439C12.7343 29.8563 12.5326 28.3226 12.9227 26.8853C13.3043 25.4451 14.2467 24.2176 15.5394 23.4767L18.7165 21.6434L18.717 32.672C18.717 33.0953 18.7532 33.5148 18.827 33.9305C18.6689 33.9429 18.5098 33.9491 18.3517 33.9491ZM30.7151 20.3182L25.8655 23.1158L19.8655 19.6553C19.6287 19.5191 19.3372 19.5191 19.1003 19.6553L14.7736 22.151C14.407 22.362 14.0613 22.6034 13.7394 22.8753C12.4975 21.1063 12.376 18.7758 13.4827 16.8567C14.491 15.1207 16.346 14.0514 18.3536 14.0491C19.3322 14.0491 20.3013 14.3101 21.1555 14.8025L30.7151 20.3182ZM25.8484 9.71436C28.946 9.71436 31.4651 12.232 31.4651 15.3277V18.9944L21.907 13.4801C21.5413 13.2683 21.1576 13.0895 20.7603 12.9458C21.6727 10.9853 23.6317 9.71436 25.8484 9.71436ZM38.2308 16.8586C39.7784 19.5391 38.8565 22.9782 36.1741 24.5258L26.6146 30.0401V24.4439L32.6141 20.9825C32.8513 20.8458 32.9974 20.5934 32.9974 20.3201V15.3277C32.9974 14.9063 32.9594 14.4863 32.887 14.0725C35.0568 13.8916 37.1368 14.9761 38.2308 16.8586Z" fill="white"/>
</svg>
