<svg width="160" height="56" viewBox="0 0 160 56" fill="none" xmlns="http://www.w3.org/2000/svg">
<path d="M103.723 4.72766C103.477 4.72757 103.233 4.77684 103.006 4.87254C102.779 4.96825 102.573 5.10846 102.402 5.28489C102.23 5.46133 102.095 5.67042 102.005 5.89981C101.915 6.12921 101.872 6.37427 101.879 6.62052V23.1224L87.9655 5.47186C87.7224 5.19208 87.4007 4.992 87.0423 4.89772C86.6839 4.80345 86.3054 4.81934 85.9561 4.94332C85.6069 5.06731 85.3031 5.29364 85.0843 5.59281C84.8656 5.89198 84.7421 6.25011 84.7298 6.62052V28.3804C84.7057 28.6382 84.7357 28.8982 84.8178 29.1438C84.8999 29.3893 85.0324 29.615 85.2068 29.8065C85.3811 29.9979 85.5935 30.1508 85.8304 30.2555C86.0672 30.3601 86.3233 30.4142 86.5822 30.4142C86.8412 30.4142 87.0973 30.3601 87.3341 30.2555C87.571 30.1508 87.7834 29.9979 87.9577 29.8065C88.1321 29.615 88.2646 29.3893 88.3467 29.1438C88.4288 28.8982 88.4588 28.6382 88.4347 28.3804V11.7329L102.332 29.529C102.506 29.7439 102.725 29.9176 102.974 30.0379C103.223 30.1582 103.495 30.2219 103.772 30.2247C103.954 30.2226 104.134 30.1898 104.306 30.1276C104.67 30.0027 104.985 29.7671 105.209 29.4538C105.432 29.1405 105.552 28.7652 105.551 28.3804V6.62052C105.556 6.37619 105.512 6.1334 105.422 5.90603C105.333 5.67866 105.199 5.47116 105.029 5.29539C104.86 5.11961 104.657 4.979 104.433 4.88159C104.209 4.78418 103.968 4.73187 103.723 4.72766Z" fill="#0F0F59"/>
<path d="M23.9641 25.7595C23.8084 25.5623 23.6089 25.4041 23.3814 25.2974C23.154 25.1906 22.9048 25.1384 22.6536 25.1447C22.2826 25.1401 21.9179 25.2411 21.602 25.4359C20.1375 26.3121 18.4546 26.7553 16.7485 26.714C15.539 26.7576 14.3339 26.5466 13.2111 26.0946C12.0884 25.6427 11.0732 24.9599 10.2312 24.0905C9.38926 23.221 8.73936 22.1844 8.32366 21.0478C7.90795 19.9111 7.73571 18.6998 7.81808 17.4924C7.81808 12.0564 11.3288 8.25453 16.3764 8.25453C18.0038 8.20607 19.6172 8.56769 21.0681 9.30612C21.372 9.46911 21.7102 9.55781 22.055 9.56498C22.3303 9.55939 22.5995 9.48365 22.8374 9.34493C23.0752 9.2062 23.2736 9.00909 23.414 8.77224C23.5938 8.53726 23.7057 8.25748 23.7376 7.96332C23.7273 7.66237 23.6401 7.36906 23.4843 7.11135C23.3286 6.85364 23.1094 6.6401 22.8477 6.4911C20.869 5.39566 18.6378 4.83785 16.3764 4.87326C9.07999 4.72766 4 10.0018 4 17.4924C4 24.9829 9.04764 30.2085 16.5382 30.2085C18.984 30.2265 21.3791 29.5108 23.414 28.1539C23.653 27.9873 23.8504 27.7678 23.9907 27.5124C24.131 27.257 24.2105 26.9727 24.2229 26.6816C24.2276 26.3505 24.1128 26.0288 23.8993 25.7757" fill="#0F0F59"/>
<path d="M124.059 30.2409C127.068 30.2016 129.995 29.2542 132.456 27.5229C132.754 27.2977 132.997 27.007 133.165 26.6732C133.333 26.3394 133.423 25.9715 133.427 25.5977V18.1071C133.427 17.6223 133.234 17.1573 132.891 16.8144C132.548 16.4716 132.083 16.279 131.598 16.279H123.606C123.17 16.3209 122.765 16.524 122.47 16.8485C122.175 17.1731 122.012 17.5958 122.012 18.0343C122.012 18.4728 122.175 18.8956 122.47 19.2201C122.765 19.5447 123.17 19.7477 123.606 19.7897H129.916V24.8211C128.238 26.0574 126.208 26.7211 124.124 26.714C118.801 26.714 115.355 23.1062 115.355 17.5085C115.355 11.9108 118.866 8.28689 124.027 8.28689C125.607 8.28089 127.166 8.65252 128.573 9.37084C128.903 9.56067 129.277 9.66106 129.657 9.66205C129.95 9.67192 130.241 9.60186 130.497 9.45937C130.754 9.31688 130.967 9.10732 131.113 8.85313C131.279 8.5859 131.369 8.27806 131.372 7.96332C131.36 7.66079 131.27 7.36643 131.112 7.10858C130.953 6.85073 130.731 6.63808 130.466 6.4911C128.418 5.30479 126.086 4.6954 123.72 4.72766C116.666 4.72766 111.537 10.0827 111.537 17.46C111.537 25.1932 116.391 30.1923 124.092 30.1923" fill="#0F0F59"/>
<path d="M154.232 26.4551H143.134V19.4014H152.129C152.378 19.4251 152.629 19.3965 152.866 19.3175C153.104 19.2384 153.322 19.1107 153.507 18.9423C153.692 18.774 153.84 18.5689 153.941 18.3401C154.042 18.1113 154.095 17.8639 154.095 17.6137C154.095 17.3635 154.042 17.1161 153.941 16.8873C153.84 16.6585 153.692 16.4534 153.507 16.285C153.322 16.1167 153.104 15.989 152.866 15.9099C152.629 15.8309 152.378 15.8023 152.129 15.826H143.134V8.62663H154.313C154.774 8.58347 155.203 8.36964 155.515 8.02702C155.827 7.6844 156 7.23765 156 6.77422C156 6.31078 155.827 5.86403 155.515 5.52141C155.203 5.17879 154.774 4.96497 154.313 4.9218H141.37C140.878 4.92602 140.407 5.1234 140.059 5.4714C139.711 5.8194 139.514 6.29017 139.51 6.7823V28.3157C139.514 28.8063 139.712 29.2754 140.06 29.6208C140.409 29.9662 140.879 30.16 141.37 30.16H154.313C154.774 30.1168 155.203 29.903 155.515 29.5604C155.827 29.2178 156 28.771 156 28.3076C156 27.8441 155.827 27.3974 155.515 27.0548C155.203 26.7121 154.774 26.4983 154.313 26.4551" fill="#0F0F59"/>
<path d="M49.2993 28.348V6.60434C49.2993 6.10662 49.1016 5.62927 48.7496 5.27733C48.3977 4.92538 47.9203 4.72766 47.4226 4.72766C46.9249 4.72766 46.4475 4.92538 46.0956 5.27733C45.7437 5.62927 45.5459 6.10662 45.5459 6.60434V15.8422H33.5902V6.60434C33.5902 6.10662 33.3924 5.62927 33.0405 5.27733C32.6885 4.92538 32.2112 4.72766 31.7135 4.72766C31.2157 4.72766 30.7384 4.92538 30.3864 5.27733C30.0345 5.62927 29.8368 6.10662 29.8368 6.60434V28.348C29.8368 28.8457 30.0345 29.3231 30.3864 29.675C30.7384 30.027 31.2157 30.2247 31.7135 30.2247C32.2112 30.2247 32.6885 30.027 33.0405 29.675C33.3924 29.3231 33.5902 28.8457 33.5902 28.348V19.4176H45.5783V28.348C45.5783 28.8457 45.776 29.3231 46.128 29.675C46.4799 30.027 46.9572 30.2247 47.455 30.2247C47.9527 30.2247 48.43 30.027 48.782 29.675C49.1339 29.3231 49.3317 28.8457 49.3317 28.348" fill="#0F0F59"/>
<path d="M68.5838 5.66697C68.4423 5.39181 68.2295 5.15963 67.9677 4.9946C67.706 4.82957 67.4047 4.73772 67.0954 4.72863C66.7656 4.71018 66.4374 4.78739 66.1504 4.95099C65.8634 5.11458 65.6298 5.35759 65.4776 5.65079L54.1528 27.6533C54.021 27.9026 53.9521 28.1803 53.9521 28.4622C53.9521 28.7442 54.021 29.0219 54.1528 29.2711C54.3062 29.5239 54.5224 29.7328 54.7804 29.8773C55.0383 30.0219 55.3293 30.0973 55.625 30.0962H63.9407C64.3688 30.0547 64.7662 29.8552 65.0553 29.5367C65.3444 29.2182 65.5046 28.8034 65.5046 28.3732C65.5046 27.9431 65.3444 27.5283 65.0553 27.2098C64.7662 26.8913 64.3688 26.6918 63.9407 26.6503H58.4562L67.0954 10.1807L75.6376 26.715H70.1046C69.6764 26.7565 69.2791 26.956 68.99 27.2745C68.7008 27.593 68.5407 28.0078 68.5407 28.438C68.5407 28.8681 68.7008 29.2829 68.99 29.6014C69.2791 29.9199 69.6764 30.1194 70.1046 30.161H78.4203C78.716 30.162 79.0069 30.0866 79.2649 29.942C79.5229 29.7975 79.739 29.5886 79.8925 29.3359C80.0242 29.0866 80.0931 28.8089 80.0931 28.5269C80.0931 28.245 80.0242 27.9673 79.8925 27.718L68.5838 5.66697Z" fill="#F42A4D"/>
<path d="M32.3446 39.463C32.0356 39.463 31.7393 39.5857 31.5209 39.8042C31.3025 40.0226 31.1797 40.3189 31.1797 40.6279V44.1062H26.4718V40.6279C26.438 40.3405 26.2999 40.0756 26.0837 39.8833C25.8675 39.691 25.5882 39.5848 25.2989 39.5848C25.0096 39.5848 24.7303 39.691 24.5141 39.8833C24.2979 40.0756 24.1598 40.3405 24.126 40.6279V50.0275C24.1598 50.3148 24.2979 50.5797 24.5141 50.772C24.7303 50.9643 25.0096 51.0705 25.2989 51.0705C25.5882 51.0705 25.8675 50.9643 26.0837 50.772C26.2999 50.5797 26.438 50.3148 26.4718 50.0275V46.3064H31.1797V50.0275C31.1797 50.3364 31.3025 50.6327 31.5209 50.8511C31.7393 51.0696 32.0356 51.1923 32.3446 51.1923C32.6535 51.1923 32.9498 51.0696 33.1682 50.8511C33.3867 50.6327 33.5094 50.3364 33.5094 50.0275V40.6279C33.5094 40.3189 33.3867 40.0226 33.1682 39.8042C32.9498 39.5857 32.6535 39.463 32.3446 39.463Z" fill="#F42A4D"/>
<path d="M43.54 48.8626H39.9646V46.355H42.8281C43.099 46.3222 43.3484 46.1914 43.5294 45.9872C43.7104 45.783 43.8103 45.5196 43.8103 45.2468C43.8103 44.9739 43.7104 44.7105 43.5294 44.5064C43.3484 44.3022 43.099 44.1713 42.8281 44.1385H39.9646V41.7603H43.3782C43.6671 41.7519 43.9411 41.63 44.1409 41.4211C44.3408 41.2122 44.4503 40.9331 44.446 40.644C44.4481 40.5003 44.4216 40.3576 44.3681 40.2243C44.3146 40.0909 44.2351 39.9695 44.1342 39.8671C44.0334 39.7647 43.9132 39.6834 43.7806 39.6279C43.648 39.5725 43.5057 39.5439 43.362 39.5439H38.7026C38.4152 39.5439 38.1395 39.6581 37.9362 39.8614C37.7329 40.0647 37.6187 40.3404 37.6187 40.6279V50.0275C37.6187 50.3149 37.7329 50.5906 37.9362 50.7939C38.1395 50.9972 38.4152 51.1114 38.7026 51.1114H43.5561C43.827 51.0786 44.0765 50.9478 44.2574 50.7436C44.4384 50.5394 44.5383 50.276 44.5383 50.0032C44.5383 49.7304 44.4384 49.467 44.2574 49.2628C44.0765 49.0586 43.827 48.9278 43.5561 48.895" fill="#F42A4D"/>
<path d="M54.1529 40.3205C54.0665 40.0539 53.8978 39.8215 53.6711 39.6567C53.4444 39.4919 53.1713 39.4031 52.891 39.4031C52.6108 39.4031 52.3377 39.4919 52.111 39.6567C51.8843 39.8215 51.7156 40.0539 51.6291 40.3205L47.6654 49.6392C47.6043 49.7769 47.5714 49.9254 47.5684 50.076C47.5684 50.2197 47.5969 50.362 47.6524 50.4946C47.7079 50.6271 47.7892 50.7474 47.8915 50.8482C47.9939 50.9491 48.1153 51.0286 48.2487 51.0821C48.3821 51.1356 48.5248 51.1621 48.6685 51.1599C48.8866 51.171 49.1027 51.1128 49.2857 50.9937C49.4688 50.8745 49.6095 50.7006 49.6877 50.4966L50.4966 48.4096H55.0104L55.884 50.5452C55.9722 50.7702 56.1291 50.9618 56.3324 51.0925C56.5358 51.2232 56.7752 51.2864 57.0165 51.2732C57.3055 51.2732 57.5829 51.1595 57.7887 50.9567C57.9946 50.7539 58.1124 50.4782 58.1166 50.1892C58.1141 50.0334 58.0811 49.8795 58.0196 49.7362L54.1529 40.3205ZM54.1529 46.0961H51.4026L52.7616 42.7796L54.1529 46.0961Z" fill="#F42A4D"/>
<path d="M67.5648 48.8626H63.7143V40.6279C63.6805 40.3405 63.5424 40.0756 63.3262 39.8833C63.11 39.691 62.8307 39.5848 62.5414 39.5848C62.2521 39.5848 61.9728 39.691 61.7566 39.8833C61.5404 40.0756 61.4023 40.3405 61.3685 40.6279V49.9142C61.3685 50.2231 61.4912 50.5194 61.7097 50.7379C61.9281 50.9563 62.2244 51.079 62.5333 51.079H67.5648C67.7215 51.098 67.8806 51.0835 68.0313 51.0365C68.1821 50.9895 68.3211 50.911 68.4393 50.8063C68.5575 50.7015 68.6521 50.5729 68.7169 50.4289C68.7817 50.2849 68.8152 50.1288 68.8152 49.9708C68.8152 49.8129 68.7817 49.6568 68.7169 49.5128C68.6521 49.3688 68.5575 49.2401 68.4393 49.1354C68.3211 49.0307 68.1821 48.9522 68.0313 48.9052C67.8806 48.8581 67.7215 48.8436 67.5648 48.8626Z" fill="#F42A4D"/>
<path d="M78.113 39.5439H70.7034C70.4325 39.5767 70.183 39.7075 70.0021 39.9117C69.8211 40.1159 69.7212 40.3793 69.7212 40.6521C69.7212 40.925 69.8211 41.1883 70.0021 41.3925C70.183 41.5967 70.4325 41.7275 70.7034 41.7603H73.2434V50.0275C73.2434 50.1818 73.274 50.3346 73.3336 50.477C73.3931 50.6194 73.4804 50.7485 73.5902 50.8569C73.7001 50.9653 73.8305 51.0507 73.9737 51.1083C74.1168 51.1659 74.2701 51.1944 74.4244 51.1923C74.5766 51.1923 74.7273 51.1621 74.8677 51.1033C75.0082 51.0446 75.1355 50.9585 75.2424 50.8502C75.3493 50.7418 75.4335 50.6132 75.4903 50.472C75.5471 50.3308 75.5752 50.1797 75.573 50.0275V41.7603H78.113C78.3839 41.7275 78.6334 41.5967 78.8143 41.3925C78.9953 41.1883 79.0952 40.925 79.0952 40.6521C79.0952 40.3793 78.9953 40.1159 78.8143 39.9117C78.6334 39.7075 78.3839 39.5767 78.113 39.5439Z" fill="#F42A4D"/>
<path d="M90.7807 39.463C90.4717 39.463 90.1755 39.5857 89.957 39.8042C89.7386 40.0226 89.6158 40.3189 89.6158 40.6279V44.1062H84.8918V40.6279C84.858 40.3405 84.7198 40.0756 84.5036 39.8833C84.2874 39.691 84.0082 39.5848 83.7188 39.5848C83.4295 39.5848 83.1502 39.691 82.934 39.8833C82.7178 40.0756 82.5797 40.3405 82.5459 40.6279V50.0275C82.5797 50.3148 82.7178 50.5797 82.934 50.772C83.1502 50.9643 83.4295 51.0705 83.7188 51.0705C84.0082 51.0705 84.2874 50.9643 84.5036 50.772C84.7198 50.5797 84.858 50.3148 84.8918 50.0275V46.3064H89.5997V50.0275C89.5997 50.3364 89.7224 50.6327 89.9408 50.8511C90.1593 51.0696 90.4556 51.1923 90.7645 51.1923C91.0734 51.1923 91.3697 51.0696 91.5882 50.8511C91.8066 50.6327 91.9293 50.3364 91.9293 50.0275V40.6279C91.9293 40.3189 91.8066 40.0226 91.5882 39.8042C91.3697 39.5857 91.0734 39.463 90.7645 39.463" fill="#F42A4D"/>
<path d="M103.157 48.6199C102.655 48.8779 102.103 49.0216 101.539 49.0406C101.042 49.0692 100.545 48.9919 100.081 48.8137C99.616 48.6356 99.1945 48.3607 98.8442 48.0073C98.4939 47.6539 98.2227 47.2301 98.0486 46.7639C97.8745 46.2978 97.8015 45.7999 97.8344 45.3034C97.7913 44.8272 97.8487 44.3473 98.0029 43.8947C98.1571 43.4422 98.4047 43.027 98.7296 42.6762C99.0544 42.3254 99.4494 42.0468 99.8888 41.8583C100.328 41.6699 100.802 41.5759 101.28 41.5824C101.839 41.5872 102.39 41.7084 102.898 41.9383C103.088 42.0178 103.292 42.0564 103.497 42.0515C103.692 42.059 103.884 42.0113 104.053 41.914C104.222 41.8167 104.36 41.6737 104.451 41.5015C104.54 41.3371 104.59 41.1544 104.597 40.9676C104.59 40.7491 104.518 40.5375 104.392 40.3592C104.265 40.1809 104.089 40.0436 103.885 39.9645C103.076 39.5618 102.184 39.3566 101.28 39.3659C100.492 39.3233 99.7029 39.4481 98.9659 39.7321C98.2288 40.0161 97.5602 40.4528 97.004 41.0136C96.4478 41.5744 96.0165 42.2466 95.7386 42.9859C95.4607 43.7253 95.3424 44.5151 95.3915 45.3034C95.3446 46.0961 95.4659 46.8897 95.7475 47.6322C96.0291 48.3747 96.4645 49.0493 97.0252 49.6115C97.586 50.1738 98.2593 50.6111 99.0011 50.8947C99.7428 51.1783 100.536 51.3018 101.329 51.257C102.432 51.3218 103.528 51.045 104.468 50.4643C104.626 50.359 104.757 50.2175 104.85 50.0515C104.943 49.8855 104.995 49.6998 105.001 49.5098C105.007 49.2863 104.932 49.0683 104.791 48.895C104.451 48.4258 103.982 48.2964 103.173 48.6199" fill="#F42A4D"/>
<path d="M113.722 40.3205C113.637 40.0599 113.473 39.8323 113.252 39.6698C113.032 39.5073 112.766 39.418 112.492 39.4145C112.211 39.4127 111.936 39.4992 111.707 39.6618C111.478 39.8243 111.305 40.0547 111.214 40.3205L107.25 49.6392C107.189 49.7769 107.156 49.9254 107.153 50.076C107.153 50.2197 107.182 50.362 107.237 50.4946C107.293 50.6271 107.374 50.7474 107.476 50.8482C107.579 50.9491 107.7 51.0286 107.833 51.0821C107.967 51.1356 108.11 51.1621 108.253 51.1599C108.471 51.171 108.687 51.1128 108.871 50.9937C109.054 50.8745 109.194 50.7006 109.272 50.4966L110.162 48.4096H114.66L115.631 50.4805C115.712 50.7101 115.867 50.9062 116.072 51.0379C116.277 51.1697 116.52 51.2297 116.763 51.2085C117.051 51.2085 117.326 51.0943 117.53 50.891C117.733 50.6877 117.847 50.412 117.847 50.1245C117.877 49.975 117.877 49.8211 117.847 49.6715L113.722 40.3205ZM113.722 46.0961H111.068L112.395 42.8281L113.722 46.0961Z" fill="#F42A4D"/>
<path d="M126.422 46.4197C127.04 46.1395 127.562 45.6829 127.921 45.1073C128.281 44.5317 128.463 43.8626 128.444 43.184C128.444 41.5662 127.716 39.5601 124.221 39.5601H121.795C121.486 39.5601 121.189 39.6828 120.971 39.9013C120.752 40.1197 120.63 40.416 120.63 40.7249V50.0275C120.663 50.3148 120.802 50.5797 121.018 50.772C121.234 50.9643 121.513 51.0705 121.803 51.0705C122.092 51.0705 122.371 50.9643 122.587 50.772C122.804 50.5797 122.942 50.3148 122.976 50.0275V46.905H124.059L126.745 50.5613C126.853 50.7515 127.008 50.9109 127.195 51.0242C127.382 51.1375 127.594 51.2009 127.813 51.2085C127.959 51.2128 128.104 51.188 128.24 51.1357C128.376 51.0834 128.501 51.0045 128.606 50.9036C128.711 50.8027 128.796 50.6819 128.854 50.5481C128.912 50.4144 128.943 50.2704 128.945 50.1245C128.944 49.8671 128.859 49.6172 128.703 49.4127L126.422 46.4197ZM122.976 41.7442H124.124C125.386 41.7442 126.001 42.2133 126.001 43.1679C126.001 44.1224 124.949 44.7048 124.059 44.7048H122.976V41.7442Z" fill="#F42A4D"/>
<path d="M138.167 48.8626H134.608V46.355H137.536C137.807 46.3222 138.056 46.1914 138.237 45.9872C138.418 45.783 138.518 45.5196 138.518 45.2468C138.518 44.9739 138.418 44.7105 138.237 44.5064C138.056 44.3022 137.807 44.1713 137.536 44.1385H134.608V41.7603H138.005C138.15 41.7604 138.294 41.7313 138.428 41.6748C138.561 41.6184 138.682 41.5356 138.783 41.4315C138.884 41.3274 138.964 41.2041 139.016 41.0688C139.069 40.9335 139.093 40.7891 139.089 40.644C139.091 40.5003 139.065 40.3576 139.011 40.2243C138.958 40.0909 138.878 39.9695 138.777 39.8671C138.677 39.7647 138.556 39.6834 138.424 39.6279C138.291 39.5725 138.149 39.5439 138.005 39.5439H133.427C133.139 39.5439 132.864 39.6581 132.66 39.8614C132.457 40.0647 132.343 40.3404 132.343 40.6279V50.0275C132.343 50.3149 132.457 50.5906 132.66 50.7939C132.864 50.9972 133.139 51.1114 133.427 51.1114H138.28C138.551 51.0786 138.801 50.9478 138.982 50.7436C139.162 50.5394 139.262 50.276 139.262 50.0032C139.262 49.7304 139.162 49.467 138.982 49.2628C138.801 49.0586 138.551 48.9278 138.28 48.895" fill="#F42A4D"/>
</svg>
