<svg width="160" height="96" viewBox="0 0 160 96" fill="none" xmlns="http://www.w3.org/2000/svg">
<path d="M69.5245 53.6391L68.6342 21.1736C68.6342 20.1646 67.8033 19.3931 66.8537 19.3931C65.8447 19.3931 65.0731 20.1646 65.0731 21.1736L64.2422 53.6391L65.0731 69.2486C65.0731 70.2576 65.904 71.0291 66.8537 71.0291C67.8626 71.0291 68.6342 70.2576 68.6342 69.2486L69.5245 53.6391Z" fill="url(#paint0_linear_3_7043)"/>
<path d="M63.1146 53.6391L62.1056 19.9272C62.1056 18.9776 61.334 18.2654 60.4437 18.2654C59.5534 18.2654 58.7819 18.9776 58.7819 19.9272L57.8916 53.5797L58.7819 69.3079C58.7819 70.2576 59.5534 70.9698 60.4437 70.9698C61.334 70.9698 62.1056 70.2576 62.1056 69.3079L63.1146 53.6391Z" fill="url(#paint1_linear_3_7043)"/>
<path d="M49.2856 20.1644C49.2263 19.3929 48.6327 18.74 47.8612 18.74C47.0896 18.74 46.4961 19.3335 46.4367 20.1644L45.4277 53.5795L46.4367 69.5451C46.4367 70.3167 47.0896 70.9102 47.8612 70.9102C48.6327 70.9102 49.2263 70.3167 49.2856 69.4858L50.4726 53.5202L49.2856 20.1644Z" fill="url(#paint2_linear_3_7043)"/>
<path d="M55.6951 19.0368C55.6951 18.2059 54.9829 17.4937 54.152 17.4937C53.321 17.4937 52.6088 18.1465 52.6088 19.0368L51.6592 53.5796L52.6088 69.4265C52.6088 70.2574 53.321 70.9696 54.152 70.9696C54.9829 70.9696 55.6358 70.3168 55.6951 69.4265L56.7634 53.5796L55.6951 19.0368Z" fill="url(#paint3_linear_3_7043)"/>
<path d="M23.3491 70.554C23.8239 70.554 24.18 70.1979 24.2394 69.6637L25.7825 53.5793L24.2394 36.9608C24.18 36.486 23.8239 36.0706 23.3491 36.0706C22.8743 36.0706 22.5182 36.4267 22.4588 36.9608L21.0938 53.5793L22.4588 69.6637C22.4588 70.1979 22.8743 70.554 23.3491 70.554Z" fill="url(#paint4_linear_3_7043)"/>
<path d="M75.9936 53.6389L75.1626 15.0602C75.1626 14.4073 74.8065 13.8138 74.2724 13.4577C73.9756 13.2796 73.6195 13.1016 73.204 13.1016C72.8479 13.1016 72.4918 13.2203 72.1357 13.3983C71.6015 13.7544 71.2454 14.348 71.2454 15.0008V15.3569L70.5332 53.5795L71.2454 69.0703V69.1297C71.2454 69.5451 71.4235 69.9606 71.7202 70.2574C72.0764 70.6728 72.6105 70.9696 73.204 70.9696C73.7382 70.9696 74.213 70.7322 74.5691 70.4354C74.9252 70.0793 75.1626 69.6045 75.1626 69.0703L75.222 67.5272L75.9936 53.6389Z" fill="url(#paint5_linear_3_7043)"/>
<path d="M30.4118 38.1481C30.3525 37.5546 29.937 37.1392 29.4028 37.1392C28.8687 37.1392 28.3939 37.5546 28.3939 38.1481L27.1475 53.5796L28.3939 69.7827C28.4532 70.3762 28.8687 70.7916 29.4028 70.7916C29.937 70.7916 30.4118 70.3762 30.4118 69.7827L31.8363 53.5796L30.4118 38.1481Z" fill="url(#paint6_linear_3_7043)"/>
<path d="M35.5159 27.3462C34.9224 27.3462 34.3882 27.821 34.3882 28.4739L33.2012 53.5797L34.3882 69.7827C34.4476 70.4356 34.9224 70.9104 35.5159 70.9104C36.1094 70.9104 36.6436 70.4356 36.6436 69.7827L38.0087 53.5797L36.6436 28.4739C36.6436 27.8804 36.1094 27.3462 35.5159 27.3462Z" fill="url(#paint7_linear_3_7043)"/>
<path d="M42.8759 69.7828L44.1223 53.6391L42.8759 22.7762C42.8165 22.064 42.2824 21.5298 41.5701 21.5298C40.8579 21.5298 40.3238 22.064 40.2644 22.7762L39.1367 53.6391L40.2644 69.7828C40.2644 70.495 40.8579 71.0292 41.5701 71.0292C42.2824 71.0886 42.8165 70.495 42.8759 69.7828Z" fill="url(#paint8_linear_3_7043)"/>
<path d="M80.6826 9.77747C80.3859 9.59942 80.0298 9.48071 79.6143 9.48071C79.1395 9.48071 78.6647 9.65877 78.3086 9.95553C77.8337 10.3116 77.537 10.9052 77.537 11.558V11.7954L76.7061 53.6978L77.1215 61.4136L77.537 68.9512C77.537 70.0789 78.4866 70.9692 79.6143 70.9692C80.742 70.9692 81.6323 70.0196 81.6916 68.8919L82.5819 53.6385L81.6916 11.558C81.6323 10.7865 81.2761 10.1336 80.6826 9.77747Z" fill="url(#paint9_linear_3_7043)"/>
<path d="M5.7212 62.4821C6.01796 62.4821 6.25537 62.2447 6.31472 61.8886L7.62046 53.5793L6.31472 45.1514C6.25537 44.7953 6.01796 44.5579 5.7212 44.5579C5.42444 44.5579 5.12768 44.7953 5.12768 45.1514L4 53.5793L5.12768 61.8886C5.12768 62.2447 5.42444 62.4821 5.7212 62.4821Z" fill="url(#paint10_linear_3_7043)"/>
<path d="M11.3593 67.5271C11.6561 67.5271 11.9528 67.2897 12.0122 66.9336L13.7334 53.5794L12.0122 39.9285C11.9528 39.5724 11.7154 39.335 11.3593 39.335C11.0626 39.335 10.7658 39.5724 10.7065 39.9285L9.22266 53.5794L10.7065 66.9336C10.7658 67.2897 11.0032 67.5271 11.3593 67.5271Z" fill="url(#paint11_linear_3_7043)"/>
<path d="M17.2947 69.9605C17.7101 69.9605 18.0069 69.6637 18.0662 69.1889L19.6687 53.5794L18.0662 37.3763C18.0069 36.9608 17.7101 36.6047 17.2947 36.6047C16.8792 36.6047 16.5824 36.9015 16.5231 37.3763L15.0986 53.5794L16.5231 69.1889C16.5824 69.6043 16.8792 69.9605 17.2947 69.9605Z" fill="url(#paint12_linear_3_7043)"/>
<path d="M137.244 33.6967C134.692 33.6967 132.259 34.2309 130.004 35.1211C128.52 18.3246 114.394 5.08911 97.1819 5.08911C92.968 5.08911 88.8727 5.92004 85.2522 7.34448C83.8278 7.87865 83.4717 8.47216 83.4717 9.5405V68.833C83.4717 69.9606 84.362 70.8509 85.4896 70.9696H137.304C147.631 70.9696 156 62.7197 156 52.3925C155.94 42.0653 147.572 33.6967 137.244 33.6967Z" fill="url(#paint13_linear_3_7043)"/>
<path d="M18.898 82.2463C16.7019 81.7122 16.1084 81.4748 16.1084 80.5845C16.1084 79.991 16.5832 79.3381 18.067 79.3381C19.3134 79.3381 20.3224 79.8723 21.2127 80.7625L23.2306 78.8039C21.9249 77.4388 20.3224 76.6079 18.1857 76.6079C15.4556 76.6079 13.2595 78.1511 13.2595 80.6438C13.2595 83.374 15.0401 84.2049 17.5922 84.7391C20.2037 85.3326 20.6785 85.7481 20.6785 86.6384C20.6785 87.7067 19.9069 88.1222 18.2451 88.1222C16.9393 88.1222 15.693 87.6474 14.684 86.5197L12.666 88.3002C13.7343 89.8434 15.7523 90.793 18.0077 90.793C21.8062 90.793 23.4087 89.0124 23.4087 86.401C23.5274 83.4927 21.094 82.7211 18.898 82.2463ZM31.6586 76.6673C27.8601 76.6673 25.6641 79.5755 25.6641 83.7895C25.6641 88.0035 27.9194 90.9117 31.6586 90.9117C35.3978 90.9117 37.6531 88.0035 37.6531 83.7895C37.6531 79.5755 35.3978 76.6673 31.6586 76.6673ZM31.6586 88.1222C29.4032 88.1222 28.513 86.2229 28.513 83.7301C28.513 81.2374 29.4626 79.3381 31.6586 79.3381C33.914 79.3381 34.8042 81.2374 34.8042 83.7301C34.8042 86.2229 33.8546 88.1222 31.6586 88.1222ZM48.8113 84.6204C48.8113 86.8164 47.7429 88.1815 45.9624 88.1815C44.1818 88.1815 43.1135 86.7571 43.1135 84.5611V76.8453H40.324V84.6204C40.324 88.6563 42.5793 90.9117 45.903 90.9117C49.4048 90.9117 51.4821 88.597 51.4821 84.6204V76.9047H48.6926V84.6204H48.8113ZM63.4712 82.7211C63.4712 83.4927 63.5305 85.2139 63.5305 85.7481C63.3525 85.392 62.8777 84.6798 62.5809 84.2049L57.6547 76.9047H54.9839V90.7336H57.714V84.6204C57.714 83.8488 57.6547 82.1276 57.6547 81.5935C57.8327 81.9496 58.3076 82.6618 58.6043 83.1366L63.6492 90.6743H66.142V76.8453H63.4118V82.7211H63.4712ZM74.0951 76.8453H69.7625V90.6743H73.8577C77.4188 90.6743 80.9206 88.597 80.9206 83.7895C80.9206 78.6852 78.0124 76.8453 74.0951 76.8453ZM73.8577 88.0035H72.4926V79.5755H73.9764C76.8847 79.5755 78.1311 80.9999 78.1311 83.7895C78.1311 86.2823 76.766 88.0035 73.8577 88.0035ZM89.4673 79.3974C90.7136 79.3974 91.4852 79.9316 92.0194 80.8812L94.5715 79.6942C93.6812 77.9136 92.1381 76.6079 89.5266 76.6079C85.9062 76.6079 83.4134 79.5161 83.4134 83.7301C83.4134 88.0628 85.8468 90.8523 89.4673 90.8523C91.96 90.8523 93.6219 89.6653 94.5715 87.7067L92.2568 86.3416C91.5446 87.588 90.773 88.1222 89.5266 88.1222C87.4493 88.1222 86.2623 86.2229 86.2623 83.7301C86.2623 81.178 87.4493 79.3974 89.4673 79.3974ZM99.7351 76.8453H96.9456V90.6743H105.255V87.9441H99.7351V76.8453ZM112.555 76.6673C108.757 76.6673 106.561 79.5755 106.561 83.7895C106.561 88.0035 108.816 90.9117 112.555 90.9117C116.354 90.9117 118.55 88.0035 118.55 83.7895C118.55 79.5755 116.354 76.6673 112.555 76.6673ZM112.555 88.1222C110.3 88.1222 109.409 86.2229 109.409 83.7301C109.409 81.2374 110.359 79.3381 112.555 79.3381C114.81 79.3381 115.701 81.2374 115.701 83.7301C115.701 86.2229 114.81 88.1222 112.555 88.1222ZM129.708 84.6204C129.708 86.8164 128.639 88.1815 126.859 88.1815C125.078 88.1815 124.01 86.7571 124.01 84.5611V76.8453H121.22V84.6204C121.22 88.6563 123.476 90.9117 126.8 90.9117C130.301 90.9117 132.379 88.597 132.379 84.6204V76.9047H129.589V84.6204H129.708ZM140.272 76.8453H135.94V90.6743H140.035C143.596 90.6743 147.098 88.597 147.098 83.7895C147.098 78.6852 144.19 76.8453 140.272 76.8453ZM140.035 88.0035H138.729V79.5755H140.213C143.121 79.5755 144.308 80.9999 144.308 83.7895C144.308 86.2823 142.943 88.0035 140.035 88.0035Z" fill="#F04923"/>
<defs>
<linearGradient id="paint0_linear_3_7043" x1="66.8685" y1="5.08927" x2="66.8685" y2="71.0728" gradientUnits="userSpaceOnUse">
<stop stop-color="#F6871F"/>
<stop offset="0.2393" stop-color="#F57E20"/>
<stop offset="0.6262" stop-color="#F36621"/>
<stop offset="1" stop-color="#F04923"/>
</linearGradient>
<linearGradient id="paint1_linear_3_7043" x1="60.5139" y1="5.08926" x2="60.5139" y2="71.0728" gradientUnits="userSpaceOnUse">
<stop stop-color="#F6871F"/>
<stop offset="0.2393" stop-color="#F57E20"/>
<stop offset="0.6262" stop-color="#F36621"/>
<stop offset="1" stop-color="#F04923"/>
</linearGradient>
<linearGradient id="paint2_linear_3_7043" x1="47.9517" y1="5.08905" x2="47.9517" y2="71.0726" gradientUnits="userSpaceOnUse">
<stop stop-color="#F6871F"/>
<stop offset="0.2393" stop-color="#F57E20"/>
<stop offset="0.6262" stop-color="#F36621"/>
<stop offset="1" stop-color="#F04923"/>
</linearGradient>
<linearGradient id="paint3_linear_3_7043" x1="54.208" y1="5.08911" x2="54.208" y2="71.0731" gradientUnits="userSpaceOnUse">
<stop stop-color="#F6871F"/>
<stop offset="0.2393" stop-color="#F57E20"/>
<stop offset="0.6262" stop-color="#F36621"/>
<stop offset="1" stop-color="#F04923"/>
</linearGradient>
<linearGradient id="paint4_linear_3_7043" x1="23.4159" y1="5.08887" x2="23.4159" y2="71.0726" gradientUnits="userSpaceOnUse">
<stop stop-color="#F6871F"/>
<stop offset="0.2393" stop-color="#F57E20"/>
<stop offset="0.6262" stop-color="#F36621"/>
<stop offset="1" stop-color="#F04923"/>
</linearGradient>
<linearGradient id="paint5_linear_3_7043" x1="73.2716" y1="5.08907" x2="73.2716" y2="71.073" gradientUnits="userSpaceOnUse">
<stop stop-color="#F6871F"/>
<stop offset="0.2393" stop-color="#F57E20"/>
<stop offset="0.6262" stop-color="#F36621"/>
<stop offset="1" stop-color="#F04923"/>
</linearGradient>
<linearGradient id="paint6_linear_3_7043" x1="29.4759" y1="5.08918" x2="29.4759" y2="71.073" gradientUnits="userSpaceOnUse">
<stop stop-color="#F6871F"/>
<stop offset="0.2393" stop-color="#F57E20"/>
<stop offset="0.6262" stop-color="#F36621"/>
<stop offset="1" stop-color="#F04923"/>
</linearGradient>
<linearGradient id="paint7_linear_3_7043" x1="35.5855" y1="5.08924" x2="35.5855" y2="71.0729" gradientUnits="userSpaceOnUse">
<stop stop-color="#F6871F"/>
<stop offset="0.2393" stop-color="#F57E20"/>
<stop offset="0.6262" stop-color="#F36621"/>
<stop offset="1" stop-color="#F04923"/>
</linearGradient>
<linearGradient id="paint8_linear_3_7043" x1="41.6501" y1="5.08929" x2="41.6501" y2="71.0731" gradientUnits="userSpaceOnUse">
<stop stop-color="#F6871F"/>
<stop offset="0.2393" stop-color="#F57E20"/>
<stop offset="0.6262" stop-color="#F36621"/>
<stop offset="1" stop-color="#F04923"/>
</linearGradient>
<linearGradient id="paint9_linear_3_7043" x1="79.646" y1="5.08869" x2="79.646" y2="71.0723" gradientUnits="userSpaceOnUse">
<stop stop-color="#F6871F"/>
<stop offset="0.2393" stop-color="#F57E20"/>
<stop offset="0.6262" stop-color="#F36621"/>
<stop offset="1" stop-color="#F04923"/>
</linearGradient>
<linearGradient id="paint10_linear_3_7043" x1="5.82198" y1="5.08888" x2="5.82198" y2="71.0727" gradientUnits="userSpaceOnUse">
<stop stop-color="#F6871F"/>
<stop offset="0.2393" stop-color="#F57E20"/>
<stop offset="0.6262" stop-color="#F36621"/>
<stop offset="1" stop-color="#F04923"/>
</linearGradient>
<linearGradient id="paint11_linear_3_7043" x1="11.4401" y1="5.08892" x2="11.4401" y2="71.0726" gradientUnits="userSpaceOnUse">
<stop stop-color="#F6871F"/>
<stop offset="0.2393" stop-color="#F57E20"/>
<stop offset="0.6262" stop-color="#F36621"/>
<stop offset="1" stop-color="#F04923"/>
</linearGradient>
<linearGradient id="paint12_linear_3_7043" x1="17.403" y1="5.08891" x2="17.403" y2="71.0726" gradientUnits="userSpaceOnUse">
<stop stop-color="#F6871F"/>
<stop offset="0.2393" stop-color="#F57E20"/>
<stop offset="0.6262" stop-color="#F36621"/>
<stop offset="1" stop-color="#F04923"/>
</linearGradient>
<linearGradient id="paint13_linear_3_7043" x1="119.685" y1="5.08911" x2="119.685" y2="70.9809" gradientUnits="userSpaceOnUse">
<stop stop-color="#F6871F"/>
<stop offset="0.2402" stop-color="#F57E20"/>
<stop offset="0.6306" stop-color="#F36621"/>
<stop offset="1" stop-color="#F04923"/>
</linearGradient>
</defs>
</svg>
