<svg width="216" height="48" viewBox="0 0 216 48" fill="none" xmlns="http://www.w3.org/2000/svg">
<path d="M98.9062 30.2222C108.539 30.2222 113.484 27.2 113.484 20.7C113.484 15.0889 109.406 11.3556 100.551 11.3556C89.8173 11.3556 85.5284 16.1444 84.5506 24.7222C82.9839 24.6222 81.2728 24.5889 78.9395 24.5778C78.9395 24.1111 78.9506 23.6444 78.9506 23.1667C78.9506 14.4667 75.3506 11.3222 65.7506 11.3222C61.0617 11.3222 56.9284 12.0222 54.4062 13.0444L54.7839 19.9889C56.9839 18.8222 60.2617 17.7 63.3728 17.7C67.7617 17.7 69.095 19.5111 69.095 23.8556L69.0839 24.5C68.7839 24.4889 68.0062 24.4889 67.5839 24.4889C56.6506 24.4889 51.5839 27.8 51.5839 33.9333C51.5839 40.2556 54.7284 43.9778 63.695 43.9778C68.4173 43.9778 73.0839 43.3111 79.0951 43.3111C78.6506 40.7778 78.6395 37.1333 78.6395 34.6333C78.6395 33.3111 78.7062 31.7333 78.7728 29.9444C81.3395 29.9667 83.2284 30.0333 84.4728 30.0889C85.4062 40.2444 90.6728 44 101.639 44C105.695 44 109.795 43.3111 111.939 42.3111L111.562 35.3667C109.428 36.6 106.462 37.6111 103.206 37.6111C97.8173 37.6111 94.895 34.8 94.895 30.3556V30.1444C95.8617 30.1889 97.7839 30.2222 98.9062 30.2222ZM66.0284 37.9111C62.6951 37.9111 61.2728 36.8 61.2728 34.0111C61.2728 31.3222 63.0839 29.8 67.6395 29.8C68.0617 29.8 68.5728 29.7889 68.9395 29.8222C68.9173 32.4222 68.8617 35.4556 69.0062 37.5667C68.2173 37.7778 67.0506 37.9111 66.0284 37.9111ZM94.8506 24.8556V24.7C94.8506 20.3444 96.2284 17.1444 100.228 17.1444C102.495 17.1444 103.951 18.3333 103.951 20.4889C103.951 23.5222 101.928 24.9333 97.7284 24.9333C96.7173 24.9333 95.6395 24.9222 94.8506 24.8556ZM133.184 37.0444C129.962 37.0444 129.017 35.7667 129.017 31.0889V19.0111H135.373V12.3H129.117C129.117 9.92222 129.306 6.41111 129.506 4H123.617C122.839 9.86667 121.139 12.8889 115.784 13.7778C115.762 15.3556 115.851 17.5111 115.784 19.0111H119.351C119.295 22.3444 119.195 28.4333 119.195 33.9778C119.195 41.0556 122.862 43.9556 129.751 43.9556C133.106 43.9556 135.573 43.4667 136.395 43.2333L135.973 36.3333C135.373 36.7444 134.184 37.0444 133.184 37.0444ZM200.228 23.1667C200.228 14.4667 196.628 11.3222 187.039 11.3222C182.339 11.3222 178.217 12.0222 175.695 13.0444L176.073 19.9889C178.273 18.8222 181.539 17.7 184.662 17.7C189.051 17.7 190.384 19.5111 190.384 23.8556V24.5C190.073 24.4889 189.306 24.4889 188.884 24.4889C177.939 24.4889 172.884 27.8 172.884 33.9333C172.884 40.2556 176.028 43.9778 184.995 43.9778C189.717 43.9778 194.384 43.3111 200.384 43.3111C199.951 40.7778 199.939 37.1333 199.939 34.6333C199.928 31.8 200.228 27.8222 200.228 23.1667ZM187.317 37.9111C183.973 37.9111 182.562 36.8 182.562 34.0111C182.562 31.3222 184.373 29.8 188.928 29.8C189.339 29.8 189.851 29.7889 190.217 29.8222C190.206 32.4222 190.139 35.4556 190.295 37.5667C189.506 37.7778 188.328 37.9111 187.317 37.9111ZM168.873 28.8444C168.873 26.2222 168.928 22.7333 168.928 22.7333C168.928 14.8778 165.484 11.3556 155.74 11.3556C150.273 11.3556 146.373 12.3111 140.273 12.3111C140.617 17.8222 140.628 24.6333 140.606 28.8556C140.628 33.1444 140.462 40.8333 140.273 43.3111H150.74C150.495 40.8222 150.295 33.6778 150.317 28.8556C150.317 26.1111 150.351 22.7889 150.462 18.3333C151.506 17.9778 152.828 17.7111 154.262 17.7111C157.928 17.7111 159.106 19.4333 159.106 24.1556C159.106 24.1556 159.162 27.1222 159.162 28.8667C159.162 33.1556 159.017 40.8444 158.828 43.3222H169.295C169.051 40.8111 168.839 33.6667 168.873 28.8444ZM39.2284 9.94444C38.2506 8.96667 36.9728 8.47778 35.7062 8.47778C34.4284 8.47778 33.1395 8.96667 32.1617 9.95556L26.3617 15.7667L20.5506 9.95556C19.5617 8.95556 18.2839 8.46667 17.0062 8.46667C15.7284 8.46667 14.4506 8.95556 13.4728 9.93333L6.40617 17C4.46172 18.9444 4.46172 22.1111 6.41728 24.0667L26.3506 44L46.2839 24.0667C48.2395 22.1222 48.2284 18.9556 46.2839 17L39.2284 9.94444ZM208.539 13.1333C208.539 12.0778 207.895 11.6333 206.639 11.6333H204.662V16.8333H205.517V14.6111H206.317L207.662 16.8333H208.628L207.173 14.5444C207.962 14.4667 208.539 14.0778 208.539 13.1333ZM205.517 13.8889V12.3667H206.551C207.062 12.3667 207.684 12.4444 207.684 13.0667C207.684 13.8222 207.117 13.8778 206.484 13.8778H205.517V13.8889ZM206.451 9.45556C203.962 9.45556 201.828 11.3333 201.828 14.1556C201.828 16.8333 203.751 18.8556 206.451 18.8556C208.917 18.8556 211.051 16.9889 211.051 14.1556C211.051 11.3222 208.917 9.45556 206.451 9.45556ZM206.451 18.0333C204.217 18.0333 202.828 16.2889 202.828 14.1556C202.828 11.8667 204.406 10.2778 206.451 10.2778C208.462 10.2778 210.039 11.8778 210.039 14.1556C210.039 16.4556 208.462 18.0333 206.451 18.0333Z" fill="#7D3F98"/>
</svg>
