<svg width="264" height="48" viewBox="0 0 264 48" fill="none" xmlns="http://www.w3.org/2000/svg">
<path d="M112.976 25.2747C112.976 23.9108 112.705 22.8384 112.161 22.0574C111.906 21.6793 111.558 21.3731 111.15 21.1681C110.742 20.9631 110.289 20.8662 109.833 20.8867C109.376 20.8677 108.921 20.9651 108.512 21.1699C108.102 21.3747 107.751 21.68 107.492 22.0574C106.939 22.8378 106.662 23.9103 106.662 25.2747C106.602 26.4162 106.892 27.5487 107.492 28.5216C107.746 28.9059 108.095 29.2182 108.505 29.4285C108.916 29.6387 109.373 29.7399 109.833 29.7221C110.292 29.7412 110.748 29.6405 111.156 29.43C111.564 29.2195 111.91 28.9065 112.161 28.5216C112.752 27.5453 113.036 26.4142 112.976 25.2747ZM89.2324 25.3042C89.2253 24.2171 89.4111 23.1373 89.781 22.1151C90.1255 21.1415 90.6684 20.2501 91.3753 19.4973C92.0822 18.7445 92.9378 18.1466 93.8877 17.7416C94.9567 17.2908 96.1082 17.0685 97.2682 17.0892C98.0349 17.0828 98.8 17.1573 99.551 17.3116C100.243 17.4593 100.918 17.6728 101.569 17.9491L100.649 21.4773C100.203 21.3098 99.7474 21.171 99.2842 21.0615C98.7396 20.9378 98.1823 20.8781 97.6238 20.8839C96.3191 20.8839 95.3456 21.2892 94.7032 22.0998C94.0242 23.0251 93.6839 24.1558 93.7392 25.3022C93.7392 26.7057 94.0407 27.7929 94.6438 28.564C95.2469 29.335 96.2996 29.7204 97.8019 29.7201C98.378 29.7166 98.9529 29.6671 99.5212 29.5724C100.102 29.4826 100.669 29.3232 101.211 29.0976L101.834 32.7151C101.212 32.9655 100.566 33.1548 99.9071 33.2802C99.0672 33.4449 98.2129 33.5243 97.357 33.5172C96.1014 33.5473 94.8521 33.3308 93.6798 32.8798C92.7157 32.498 91.8495 31.9048 91.1451 31.1439C90.4742 30.3974 89.9778 29.5111 89.6918 28.549C89.3776 27.4957 89.2227 26.4013 89.2324 25.3022V25.3042ZM73.9578 33.1006V12.553H87.8353V16.4373H78.5836V20.4709H86.7974V24.2655H78.5836V29.2163H88.5175V33.1006H73.9578ZM65.8913 12.5518H70.5168V33.0994H65.8913V24.383H58.12V33.1026H53.4941V12.555H58.12V20.4095H65.8913V12.5518ZM43.1424 29.5724C43.6852 29.5844 44.2275 29.5302 44.7572 29.4109C45.1231 29.3288 45.4702 29.1781 45.7801 28.9669C46.0196 28.8014 46.2051 28.5692 46.3138 28.2992C46.4158 28.0241 46.4661 27.7326 46.4619 27.4393C46.4589 27.1026 46.3702 26.7722 46.2042 26.4792C46.0383 26.1862 45.8005 25.9402 45.5133 25.7644C44.494 25.1433 43.3971 24.6597 42.2511 24.3261C41.5783 24.0887 40.9063 23.8169 40.2351 23.5106C39.5793 23.2148 38.9699 22.8252 38.4262 22.3541C37.8857 21.8807 37.4425 21.3066 37.1215 20.6638C36.7654 19.9093 36.5927 19.0813 36.6177 18.2474C36.6038 17.3634 36.786 16.4874 37.1513 15.6824C37.5014 14.9285 38.0185 14.2642 38.6635 13.7398C39.3666 13.1793 40.1724 12.7615 41.0356 12.5098C42.056 12.21 43.1156 12.065 44.1791 12.0795C46.2928 12.0348 48.3837 12.5243 50.2578 13.5029L48.9232 17.1502C48.308 16.8364 47.6682 16.5735 47.0101 16.3642C46.1879 16.1198 45.3326 16.0047 44.475 16.0231C43.3686 16.0231 42.5731 16.1763 42.0884 16.4829C41.8519 16.6307 41.6596 16.8395 41.5317 17.0873C41.4039 17.3352 41.3451 17.6129 41.3618 17.8913C41.3505 18.2277 41.4439 18.5593 41.629 18.8404C41.832 19.1208 42.0891 19.3577 42.3851 19.5372C42.7421 19.7608 43.1195 19.95 43.5122 20.1023C43.9369 20.2703 44.4062 20.4432 44.9203 20.6211C45.9881 21.0161 46.9173 21.4064 47.7077 21.7917C48.4334 22.132 49.0993 22.5877 49.6793 23.1409C50.1994 23.649 50.5993 24.2669 50.85 24.9494C51.1265 25.7602 51.2571 26.6136 51.2359 27.47C51.2359 29.3875 50.5631 30.8751 49.2175 31.9327C47.8719 32.9904 45.8469 33.518 43.1424 33.5156C42.3188 33.522 41.4957 33.468 40.6799 33.3541C40.0248 33.261 39.376 33.1274 38.7374 32.9541C38.242 32.8193 37.7564 32.6507 37.2841 32.4494C36.9348 32.2994 36.5935 32.1312 36.2616 31.9456L37.5659 28.2685C38.2881 28.6489 39.0484 28.9521 39.8342 29.1731C40.9124 29.4625 42.0263 29.5969 43.1424 29.5724ZM119.455 18.0371C120.411 17.7764 121.381 17.5734 122.361 17.4291C123.597 17.2373 124.847 17.1428 126.097 17.1465C127.222 17.1134 128.343 17.2894 129.404 17.6657C130.217 17.9641 130.937 18.47 131.494 19.1331C132.022 19.7939 132.397 20.5636 132.592 21.3868C132.819 22.3387 132.928 23.3149 132.918 24.2934V33.1006H128.499V24.8279C128.499 23.4045 128.311 22.3963 127.934 21.8035C127.557 21.2106 126.855 20.9145 125.829 20.9153C125.513 20.9153 125.176 20.9303 124.819 20.9602C124.462 20.99 124.146 21.0245 123.871 21.0635V33.1006H119.455V18.0371ZM117.482 25.2747C117.495 26.4188 117.315 27.5568 116.949 28.6407C116.622 29.6084 116.097 30.497 115.406 31.2493C114.73 31.9741 113.906 32.5454 112.99 32.925C110.969 33.7151 108.724 33.7151 106.703 32.925C105.787 32.5454 104.963 31.974 104.287 31.2493C103.594 30.4937 103.059 29.6066 102.716 28.6407C102.329 27.5611 102.137 26.4214 102.15 25.2747C102.136 24.1318 102.332 22.996 102.729 21.9242C103.084 20.9635 103.63 20.0847 104.333 19.3406C105.02 18.6252 105.848 18.0598 106.765 17.6798C108.744 16.8893 110.952 16.8893 112.932 17.6798C113.845 18.0574 114.669 18.6233 115.348 19.3406C116.042 20.0853 116.576 20.963 116.92 21.9205C117.307 22.9958 117.498 24.132 117.482 25.2747ZM30.6855 33.1006C30.4485 32.3642 30.2013 31.6312 29.9439 30.9017L29.3105 29.0872C28.5783 26.7486 27.9784 24.687 27.1468 22.4211C26.8551 21.6105 26.5749 20.8676 26.3063 20.1923C26.0447 19.5195 25.8125 18.9264 25.6096 18.4129C25.4548 18.0083 25.2933 17.6063 25.1251 17.2071C25.021 17.5034 24.8732 17.9135 24.6702 18.423C24.4671 18.9324 24.2451 19.5299 23.9928 20.2069C23.7405 20.8839 23.4547 21.6198 23.1451 22.4308C22.0264 25.2824 21.3688 27.992 20.3528 30.9082C20.104 31.6373 19.8617 32.3687 19.6261 33.1022H14.8223C16.1673 29.2632 17.5451 25.4322 19.061 21.6565C19.723 19.9957 20.377 18.4192 21.0229 16.9269C21.6688 15.4346 22.3375 13.9768 23.0292 12.5534H27.4132C28.0906 13.9752 28.7563 15.4325 29.4103 16.9253C30.0642 18.4181 30.7247 19.9947 31.3915 21.6549C32.0587 23.3151 32.739 25.0843 33.4326 26.9626C34.1261 28.8408 34.861 30.8861 35.6371 33.0986L30.6855 33.1006Z" fill="#AF1515"/>
<path opacity="0.77" d="M22.6423 23.7811C21.8067 26.1491 21.2056 28.4558 20.351 30.9078C20.1022 31.6369 19.86 32.3683 19.6244 33.1018C20.4656 30.6624 19.1912 28.8857 16.8066 27.5455C17.2582 26.3137 17.72 25.0858 18.1921 23.8619L22.6423 23.7811Z" fill="#700404"/>
<path fill-rule="evenodd" clip-rule="evenodd" d="M9.1543 23.6046H32.1607L19.6247 33.1005C21.5261 27.591 17.2708 24.957 9.1543 23.6046Z" fill="#258BDA"/>
<path fill-rule="evenodd" clip-rule="evenodd" d="M27.5673 23.6046H32.1616L28.4909 26.4453C28.197 25.4945 27.889 24.548 27.5673 23.6062V23.6046ZM18.2922 23.6062H22.7049C21.837 26.036 21.2274 28.396 20.3518 30.9081C20.1437 31.5188 19.94 32.1309 19.7406 32.7445C20.6336 29.7976 19.697 27.6984 17.3076 26.1939C17.6306 25.3286 17.9588 24.4655 18.2922 23.6046V23.6062Z" fill="#0E6DB4"/>
<path fill-rule="evenodd" clip-rule="evenodd" d="M7.51855 26.8829H15.7824L11.2615 31.451C11.9409 28.8 10.4202 27.5353 7.51855 26.8829Z" fill="#258BDA"/>
<path d="M169.281 26.5137C168.892 26.4998 168.505 26.5696 168.145 26.7183C167.785 26.8671 167.462 27.0913 167.196 27.3759C166.626 28.0494 166.339 28.9174 166.394 29.798C166.341 30.6532 166.626 31.4949 167.189 32.1414C167.468 32.4243 167.804 32.6451 168.175 32.7892C168.545 32.9334 168.942 32.9976 169.339 32.9779C169.971 33.0035 170.594 32.8189 171.11 32.4531C171.584 32.085 171.919 31.5656 172.057 30.9812L170.97 30.8383C170.855 31.2195 170.631 31.5582 170.324 31.812C170.039 32.0193 169.693 32.1263 169.341 32.1164C169.099 32.1219 168.86 32.0765 168.637 31.9832C168.414 31.8898 168.214 31.7506 168.049 31.5747C167.675 31.1409 167.47 30.5865 167.472 30.0136H172.089C172.093 29.8901 172.096 29.7968 172.096 29.7347C172.149 28.8705 171.868 28.0189 171.309 27.3574C171.051 27.0794 170.737 26.8602 170.387 26.7146C170.037 26.569 169.66 26.5005 169.281 26.5137ZM167.529 29.1542C167.541 28.6691 167.735 28.2062 168.073 27.8579C168.232 27.6994 168.422 27.5748 168.63 27.4915C168.839 27.4083 169.063 27.3681 169.287 27.3735C169.536 27.3672 169.783 27.4189 170.008 27.5243C170.233 27.6297 170.431 27.7861 170.586 27.9811C170.833 28.3232 170.971 28.7319 170.982 29.1538L167.529 29.1542ZM233.575 19.5182L231.221 13.2974H232.345L233.639 16.8781C233.808 17.3302 233.957 17.8066 234.091 18.3095C234.212 17.8378 234.356 17.3725 234.523 16.9136L235.845 13.2978H236.895L234.551 19.6058C234.384 20.0851 234.186 20.5533 233.96 21.0078C233.81 21.3088 233.589 21.5691 233.316 21.7663C233.059 21.9322 232.757 22.0166 232.45 22.0085C232.219 22.0034 231.989 21.961 231.771 21.883L231.652 20.9113C231.848 20.9682 232.05 20.9997 232.253 21.005C232.448 21.0135 232.641 20.9731 232.815 20.8875C232.956 20.8095 233.075 20.697 233.161 20.5605C233.29 20.3083 233.397 20.046 233.482 19.7761C233.502 19.7172 233.531 19.6316 233.575 19.5182ZM220.251 19.4984H219.199V13.2974H220.251V19.4984ZM220.251 12.1384H219.199V10.9439H220.251V12.1384ZM171.671 13.1642C172.055 13.1735 172.429 13.2886 172.752 13.4968L172.378 14.4657C172.146 14.3288 171.882 14.2548 171.613 14.2509C171.39 14.2489 171.174 14.3219 170.998 14.458C170.811 14.6032 170.675 14.8039 170.609 15.0312C170.489 15.4281 170.43 15.8412 170.434 16.256V19.496H169.383V13.2974H170.327V14.2469C170.484 13.9115 170.712 13.6146 170.996 13.3769C171.193 13.2377 171.429 13.1633 171.671 13.1642ZM178.416 30.2457V28.8538C178.424 28.531 178.407 28.2079 178.364 27.8878C178.313 27.6266 178.2 27.3812 178.035 27.1721C177.836 26.9549 177.585 26.793 177.305 26.7022C176.887 26.564 176.449 26.5006 176.01 26.5149C175.531 26.5064 175.054 26.5805 174.6 26.7341C174.237 26.8513 173.914 27.068 173.668 27.3594C173.434 27.6747 173.276 28.04 173.206 28.4267L174.234 28.5696C174.297 28.2112 174.483 27.8857 174.759 27.648C175.088 27.4491 175.471 27.3575 175.855 27.386C176.285 27.3541 176.711 27.48 177.054 27.74C177.165 27.8606 177.249 28.0035 177.301 28.159C177.352 28.3146 177.37 28.4793 177.353 28.6423C177.353 28.6802 177.351 28.7719 177.347 28.9152C176.735 29.0978 176.107 29.2186 175.471 29.2757C175.157 29.3094 174.844 29.3618 174.535 29.4327C174.266 29.5059 174.01 29.6223 173.778 29.7775C173.552 29.9319 173.366 30.1381 173.235 30.3789C173.096 30.6336 173.025 30.9194 173.028 31.2093C173.021 31.4484 173.067 31.686 173.162 31.9055C173.257 32.125 173.398 32.321 173.577 32.4797C174.02 32.8377 174.581 33.0155 175.148 32.9775C175.545 32.9809 175.938 32.9114 176.309 32.7724C176.722 32.6036 177.103 32.3658 177.437 32.0692C177.459 32.3378 177.527 32.6005 177.638 32.8459H178.738C178.611 32.6123 178.524 32.3594 178.481 32.0974C178.421 31.4826 178.4 30.8648 178.416 30.2473V30.2457ZM177.346 30.1206C177.365 30.477 177.307 30.8333 177.177 31.1657C177.027 31.4731 176.784 31.7252 176.482 31.8863C176.151 32.0669 175.778 32.1581 175.401 32.1511C175.067 32.1744 174.736 32.0754 174.469 31.8726C174.367 31.7881 174.286 31.6818 174.23 31.5616C174.175 31.4413 174.148 31.3101 174.15 31.1778C174.149 31.0009 174.2 30.8275 174.298 30.6797C174.399 30.5285 174.543 30.4107 174.712 30.3414C175.009 30.2353 175.318 30.1651 175.632 30.1323C176.219 30.067 176.796 29.9347 177.352 29.7379L177.346 30.1206ZM180.006 24.2897H181.056V32.8459H180.006V24.2897ZM203.841 17.9115C203.998 17.6994 204.083 17.4427 204.083 17.1788C204.087 16.9253 204.005 16.678 203.85 16.4776C203.643 16.2438 203.376 16.0699 203.079 15.9742C202.579 15.81 202.07 15.6711 201.556 15.558C200.988 15.442 200.434 15.263 199.905 15.0244C199.536 14.8435 199.222 14.5678 198.995 14.2255C198.794 13.9069 198.689 13.5369 198.694 13.1601C198.694 12.7288 198.823 12.3073 199.063 11.9491C199.324 11.5597 199.699 11.2606 200.136 11.0929C200.635 10.8922 201.168 10.7927 201.705 10.8002C202.279 10.7886 202.849 10.8928 203.382 11.1066C203.837 11.2867 204.227 11.6016 204.499 12.0092C204.762 12.4105 204.908 12.8771 204.921 13.3567L203.834 13.4403C203.822 13.2073 203.764 12.979 203.662 12.7691C203.56 12.5591 203.418 12.3716 203.242 12.2179C202.808 11.9122 202.281 11.7659 201.751 11.8038C201.224 11.7603 200.697 11.8927 200.253 12.1804C200.109 12.2842 199.991 12.4204 199.91 12.5782C199.828 12.7359 199.785 12.9107 199.783 13.0883C199.78 13.2314 199.808 13.3735 199.865 13.5046C199.923 13.6357 200.008 13.7525 200.116 13.8468C200.335 14.0438 200.902 14.2505 201.822 14.4564C202.468 14.5831 203.102 14.7657 203.716 15.0022C204.156 15.185 204.538 15.4861 204.817 15.8721C205.056 16.2303 205.18 16.6528 205.172 17.0832C205.171 17.5404 205.036 17.9872 204.781 18.3673C204.506 18.7819 204.117 19.1079 203.66 19.3054C203.142 19.5349 202.58 19.649 202.014 19.6397C201.35 19.6593 200.69 19.5442 200.072 19.3014C199.569 19.0935 199.141 18.7388 198.843 18.2837C198.544 17.8274 198.381 17.2953 198.373 16.7497L199.437 16.654C199.468 17.0302 199.589 17.3934 199.789 17.7137C200.006 18.014 200.305 18.246 200.65 18.3826C201.065 18.5574 201.511 18.6441 201.962 18.6373C202.351 18.6449 202.739 18.5794 203.105 18.4444C203.397 18.3426 203.652 18.158 203.841 17.9131V17.9115ZM148.548 10.9439H147.303L144.021 19.4988H145.222L146.151 16.9059H149.753L150.743 19.4988H152.031L148.548 10.9439ZM146.483 15.9859L147.421 13.475C147.617 12.938 147.775 12.3878 147.893 11.8284C148.034 12.2983 148.237 12.8933 148.506 13.6143L149.398 15.9859H146.483ZM174.425 19.498H173.375V13.2974H174.425V19.498ZM147.341 26.5137C146.629 26.4938 145.934 26.7383 145.392 27.1999C144.752 27.7514 144.433 28.5991 144.434 29.7431C144.374 30.6175 144.663 31.48 145.236 32.1426C145.509 32.4207 145.838 32.6385 146.2 32.7819C146.563 32.9252 146.951 32.991 147.341 32.975C147.863 32.9794 148.378 32.8491 148.835 32.5968C149.282 32.3548 149.646 31.9844 149.88 31.5335C150.146 30.9446 150.269 30.301 150.238 29.6555C150.263 29.2364 150.203 28.8166 150.064 28.4204C149.925 28.0243 149.709 27.6597 149.428 27.3477C149.157 27.0713 148.832 26.8544 148.472 26.7108C148.113 26.5672 147.728 26.5001 147.341 26.5137ZM148.647 31.5238C148.484 31.7099 148.282 31.859 148.057 31.9611C147.831 32.0633 147.586 32.1161 147.339 32.1161C147.091 32.1161 146.846 32.0633 146.621 31.9611C146.395 31.859 146.194 31.7099 146.031 31.5238C145.647 31.0139 145.462 30.3815 145.511 29.7452C145.462 29.1103 145.647 28.4795 146.031 27.9714C146.194 27.7864 146.396 27.6383 146.621 27.537C146.846 27.4358 147.091 27.3836 147.338 27.384C147.585 27.3843 147.829 27.4373 148.054 27.5392C148.279 27.6412 148.48 27.7899 148.643 27.9754C149.026 28.4699 149.212 29.0878 149.168 29.7112C149.219 30.3585 149.034 31.0024 148.647 31.5238ZM153.434 24.1481C153.764 24.152 154.093 24.1872 154.416 24.2534L154.259 25.1734C154.054 25.1365 153.847 25.1172 153.639 25.1157C153.396 25.0909 153.152 25.1634 152.962 25.3175C152.806 25.5376 152.736 25.8076 152.765 26.0761V26.6473H153.972V27.4595H152.777V32.8459H151.727V27.4575H150.795V26.6473H151.727V25.9881C151.714 25.6755 151.751 25.3627 151.837 25.062C151.938 24.79 152.125 24.558 152.368 24.4008C152.691 24.2146 153.061 24.1268 153.433 24.1481H153.434ZM159.05 14.0737C158.848 14.0677 158.647 14.1032 158.46 14.1779C158.272 14.2526 158.102 14.365 157.96 14.508C157.638 14.8968 157.482 15.3971 157.528 15.8999V19.4984H156.478V15.4737C156.504 15.1055 156.414 14.7385 156.221 14.4241C156.12 14.3016 155.991 14.2056 155.845 14.1444C155.698 14.0833 155.539 14.0589 155.381 14.0733C155.091 14.0719 154.808 14.1528 154.563 14.3066C154.309 14.4658 154.116 14.7065 154.017 14.9892C153.888 15.4083 153.832 15.846 153.85 16.2839V19.498H152.8V13.2974H153.744V14.1734C153.944 13.8587 154.222 13.6007 154.55 13.424C154.879 13.2473 155.247 13.1579 155.62 13.1642C156.015 13.1475 156.406 13.2456 156.746 13.4468C157.038 13.6349 157.256 13.9167 157.366 14.2456C157.566 13.9144 157.847 13.6405 158.184 13.4507C158.521 13.2608 158.901 13.1614 159.288 13.1622C159.547 13.1448 159.808 13.1812 160.053 13.2689C160.298 13.3566 160.522 13.4938 160.711 13.672C161.078 14.1097 161.258 14.6741 161.211 15.2432V19.4984H160.162V15.5952C160.176 15.2896 160.141 14.9838 160.058 14.6893C159.989 14.5023 159.857 14.3447 159.686 14.2428C159.495 14.126 159.274 14.0672 159.05 14.0737ZM163.847 24.2914H164.982V32.8459H163.847V28.8195H159.425V32.8459H158.29V24.2914H159.425V27.818H163.846L163.847 24.2914ZM174.424 12.1384H173.374V10.9439H174.424V12.1384ZM168.066 17.6342L166.979 17.4909C166.864 17.872 166.64 18.2108 166.333 18.4646C166.048 18.6722 165.702 18.7793 165.349 18.7693C165.108 18.775 164.868 18.7297 164.646 18.6363C164.423 18.543 164.223 18.4037 164.058 18.2276C163.683 17.7938 163.478 17.2395 163.48 16.6665H168.098C168.102 16.543 168.104 16.4498 168.104 16.3876C168.158 15.5234 167.876 14.6718 167.317 14.0103C167.06 13.7325 166.746 13.5133 166.397 13.3676C166.047 13.2218 165.67 13.153 165.292 13.1658C164.903 13.1519 164.516 13.2216 164.156 13.3704C163.796 13.5191 163.473 13.7434 163.207 14.0281C162.637 14.7015 162.349 15.5695 162.405 16.4502C162.352 17.3054 162.637 18.1471 163.199 18.7936C163.479 19.0764 163.815 19.2971 164.185 19.4413C164.556 19.5854 164.953 19.6497 165.35 19.63C165.982 19.6557 166.604 19.4711 167.12 19.1052C167.594 18.7371 167.928 18.2181 168.066 17.6342ZM164.082 14.5101C164.241 14.3515 164.431 14.2269 164.64 14.1437C164.848 14.0604 165.072 14.0203 165.297 14.0256C165.545 14.019 165.792 14.0703 166.017 14.1754C166.242 14.2805 166.44 14.4365 166.595 14.6312C166.842 14.9732 166.98 15.382 166.991 15.8039H163.538C163.55 15.3196 163.745 14.8577 164.082 14.5101ZM230.134 19.5828C229.828 19.5995 229.523 19.5372 229.248 19.4019C229.052 19.296 228.896 19.1289 228.804 18.926C228.693 18.5217 228.65 18.1018 228.677 17.6834V14.1108H227.9V13.2974H228.677V11.7634L229.728 11.1316V13.2974H230.778V14.1096H229.728V17.7428C229.716 17.9376 229.734 18.1332 229.784 18.3221C229.82 18.4078 229.883 18.4797 229.963 18.5271C230.074 18.5835 230.197 18.6097 230.321 18.603C230.475 18.6002 230.628 18.5867 230.78 18.5627L230.923 19.4911C230.664 19.5484 230.399 19.5791 230.134 19.5828ZM180.077 17.2293L181.104 17.3726C181.027 18.012 180.72 18.6015 180.241 19.0313C179.764 19.4357 179.154 19.6492 178.53 19.6308C178.15 19.6467 177.771 19.5807 177.419 19.4375C177.067 19.2942 176.75 19.077 176.489 18.8004C175.935 18.1368 175.658 17.2852 175.716 16.4227C175.704 15.8211 175.817 15.2236 176.049 14.6683C176.249 14.19 176.606 13.7935 177.06 13.5432C177.512 13.2924 178.021 13.1628 178.538 13.167C179.13 13.1411 179.712 13.3213 180.186 13.6769C180.629 14.0426 180.922 14.5586 181.009 15.1265L179.994 15.2819C179.927 14.9207 179.745 14.5908 179.476 14.3417C179.225 14.1313 178.906 14.0195 178.579 14.0273C178.335 14.0197 178.093 14.0668 177.869 14.165C177.646 14.2632 177.447 14.41 177.288 14.5948C176.914 15.1162 176.738 15.7536 176.792 16.3928C176.737 17.0339 176.906 17.6742 177.269 18.205C177.421 18.3878 177.612 18.5336 177.829 18.6316C178.045 18.7295 178.281 18.7769 178.518 18.7702C178.899 18.7828 179.269 18.6472 179.552 18.3919C179.859 18.0779 180.045 17.6658 180.078 17.2281L180.077 17.2293ZM226.223 19.106C226.698 18.7379 227.032 18.2186 227.171 17.6342L226.084 17.4909C225.969 17.872 225.744 18.2108 225.438 18.4646C225.152 18.672 224.806 18.7792 224.454 18.7693C224.213 18.775 223.973 18.7296 223.75 18.6362C223.528 18.5429 223.327 18.4037 223.162 18.2276C222.788 17.7939 222.582 17.2395 222.584 16.6665H227.202C227.206 16.543 227.208 16.4498 227.208 16.3876C227.262 15.5234 226.98 14.6718 226.422 14.0103C226.165 13.7325 225.851 13.5133 225.501 13.3676C225.152 13.2218 224.775 13.153 224.397 13.1658C224.008 13.1519 223.62 13.2216 223.261 13.3704C222.901 13.5192 222.577 13.7434 222.312 14.0281C221.741 14.7014 221.454 15.5694 221.509 16.4502C221.456 17.3053 221.742 18.147 222.304 18.7936C222.583 19.0765 222.919 19.2972 223.29 19.4414C223.661 19.5855 224.057 19.6498 224.455 19.63C225.086 19.6555 225.708 19.4713 226.223 19.106ZM223.186 14.5101C223.346 14.3515 223.535 14.2269 223.744 14.1437C223.953 14.0604 224.176 14.0203 224.401 14.0256C224.649 14.019 224.896 14.0703 225.121 14.1754C225.347 14.2804 225.545 14.4365 225.699 14.6312C225.946 14.9732 226.085 15.382 226.096 15.8039H222.643C222.655 15.3196 222.849 14.8577 223.186 14.5101ZM239.799 26.6473H240.849V32.8479H239.799V26.6473ZM225.715 26.5157C225.002 26.4958 224.308 26.7403 223.765 27.2019C223.126 27.7534 222.807 28.6011 222.808 29.7452C222.748 30.6195 223.036 31.482 223.61 32.1447C223.883 32.4228 224.211 32.6405 224.574 32.7839C224.936 32.9272 225.325 32.9931 225.715 32.9771C226.237 32.9818 226.753 32.8515 227.21 32.5988C227.657 32.3571 228.021 31.9866 228.255 31.5355C228.522 30.9467 228.645 30.3031 228.614 29.6576C228.638 29.2384 228.579 28.8186 228.44 28.4224C228.301 28.0263 228.084 27.6617 227.803 27.3497C227.532 27.0729 227.207 26.8555 226.847 26.7116C226.488 26.5676 226.102 26.5002 225.715 26.5137L225.715 26.5157ZM227.019 31.5258C226.855 31.7119 226.654 31.861 226.429 31.9632C226.203 32.0653 225.958 32.1182 225.711 32.1182C225.463 32.1182 225.218 32.0653 224.992 31.9632C224.767 31.861 224.566 31.7119 224.402 31.5258C224.018 31.0158 223.834 30.3835 223.883 29.7472C223.834 29.1124 224.019 28.4817 224.402 27.9734C224.566 27.7884 224.767 27.6403 224.993 27.539C225.218 27.4378 225.462 27.3856 225.709 27.386C225.956 27.3864 226.201 27.4393 226.426 27.5413C226.651 27.6432 226.852 27.7919 227.015 27.9774C227.397 28.4719 227.584 29.0898 227.54 29.7133C227.59 30.3597 227.406 31.0027 227.02 31.5238L227.019 31.5258ZM237.757 27.0251C238.123 27.463 238.303 28.0275 238.257 28.5967V32.8459H237.207V28.943C237.221 28.6375 237.186 28.3317 237.104 28.0372C237.034 27.8509 236.902 27.6942 236.731 27.5931C236.542 27.477 236.322 27.4183 236.1 27.424C235.898 27.4181 235.698 27.4535 235.51 27.5282C235.323 27.6028 235.153 27.715 235.01 27.8579C234.688 28.2468 234.533 28.7471 234.578 29.2498V32.8479H233.529V28.8215C233.555 28.4534 233.465 28.0864 233.272 27.7719C233.171 27.6494 233.041 27.5535 232.895 27.4924C232.748 27.4313 232.589 27.407 232.431 27.4215C232.142 27.4199 231.858 27.5007 231.613 27.6545C231.359 27.8138 231.166 28.0546 231.067 28.3375C230.939 28.7564 230.882 29.194 230.9 29.6317V32.8455H229.85V26.6473H230.794V27.5233C230.988 27.2196 231.254 26.9687 231.569 26.7926C231.905 26.6042 232.285 26.5086 232.67 26.5157C233.065 26.4989 233.456 26.5971 233.797 26.7983C234.088 26.9864 234.307 27.2682 234.416 27.5971C234.616 27.2659 234.898 26.9919 235.234 26.802C235.571 26.6122 235.951 26.5128 236.338 26.5137C236.597 26.4968 236.857 26.5333 237.101 26.621C237.346 26.7086 237.57 26.8455 237.759 27.0231L237.757 27.0251ZM239.798 24.2934H240.848V25.4879H239.798V24.2934ZM250.708 31.9101L250.852 32.8386C250.592 32.8966 250.327 32.928 250.061 32.9323C249.755 32.9491 249.449 32.8867 249.173 32.751C248.977 32.6453 248.821 32.4781 248.729 32.2751C248.618 31.8708 248.575 31.4509 248.602 31.0325V27.4599H247.832V26.6473H248.609V25.1133L249.661 24.4815V26.6473H250.71V27.4595H249.661V31.0927C249.648 31.2875 249.667 31.4831 249.716 31.6719C249.753 31.7577 249.816 31.8296 249.896 31.877C250.006 31.9335 250.13 31.9597 250.254 31.9529C250.407 31.9486 250.559 31.9336 250.71 31.9081L250.708 31.9101ZM256.477 31.022C256.477 31.374 256.37 31.7175 256.171 32.0078C255.952 32.3277 255.645 32.5768 255.287 32.7248C254.873 32.899 254.427 32.9851 253.978 32.9775C253.326 33.0212 252.677 32.8453 252.136 32.4777C251.691 32.1013 251.403 31.5719 251.329 30.9938L252.368 30.827C252.402 31.1969 252.577 31.5395 252.856 31.7846C253.178 32.0235 253.574 32.1413 253.975 32.1172C254.357 32.1474 254.739 32.0432 255.052 31.8225C255.16 31.7417 255.247 31.6375 255.308 31.5177C255.369 31.3979 255.401 31.2657 255.403 31.1314C255.405 31.0186 255.376 30.9073 255.321 30.809C255.266 30.7107 255.185 30.6288 255.088 30.5719C254.745 30.4107 254.384 30.291 254.013 30.2155C253.467 30.0941 252.932 29.9262 252.414 29.7137C252.141 29.5914 251.91 29.392 251.749 29.1401C251.588 28.8883 251.504 28.5948 251.508 28.2959C251.506 28.0285 251.571 27.7647 251.697 27.5289C251.822 27.2967 251.998 27.0964 252.213 26.9436C252.417 26.8053 252.642 26.7023 252.88 26.6388C253.174 26.5534 253.479 26.5111 253.786 26.5133C254.221 26.5042 254.655 26.5758 255.064 26.7244C255.385 26.831 255.668 27.0289 255.879 27.294C256.071 27.5833 256.195 27.913 256.239 28.2576L255.212 28.4009C255.181 28.1058 255.036 27.8345 254.808 27.6444C254.534 27.4476 254.199 27.3519 253.862 27.3735C253.502 27.3424 253.142 27.4261 252.833 27.6125C252.74 27.6746 252.664 27.7577 252.611 27.855C252.557 27.9523 252.527 28.0609 252.524 28.172C252.523 28.3058 252.568 28.4358 252.651 28.5406C252.759 28.6677 252.898 28.7639 253.055 28.8191C253.161 28.8595 253.468 28.9487 253.981 29.088C254.508 29.217 255.027 29.3788 255.534 29.5724C255.813 29.6859 256.053 29.8765 256.227 30.1218C256.404 30.3879 256.492 30.7029 256.479 31.022H256.477ZM246.931 30.1238C247.107 30.3893 247.196 30.7035 247.184 31.022C247.183 31.374 247.076 31.7175 246.877 32.0078C246.658 32.3277 246.351 32.5768 245.993 32.7248C245.579 32.899 245.134 32.985 244.685 32.9775C244.032 33.0213 243.384 32.8454 242.843 32.4777C242.397 32.1013 242.109 31.5719 242.035 30.9938L243.074 30.827C243.109 31.1969 243.283 31.5395 243.562 31.7846C243.885 32.0235 244.281 32.1413 244.681 32.1172C245.064 32.1475 245.445 32.0432 245.759 31.8225C245.866 31.7417 245.953 31.6375 246.014 31.5177C246.075 31.3979 246.107 31.2657 246.109 31.1314C246.111 31.0187 246.083 30.9074 246.028 30.8091C245.972 30.7108 245.892 30.6289 245.795 30.5719C245.452 30.4108 245.091 30.2911 244.719 30.2155C244.173 30.0945 243.639 29.9272 243.121 29.7153C242.849 29.593 242.618 29.3936 242.457 29.1418C242.296 28.8899 242.212 28.5965 242.215 28.2975C242.213 28.0301 242.278 27.7664 242.405 27.5305C242.529 27.2983 242.706 27.098 242.92 26.9452C243.124 26.8069 243.35 26.7039 243.587 26.6404C243.882 26.5551 244.187 26.5128 244.494 26.5149C244.929 26.5059 245.363 26.5774 245.772 26.726C246.093 26.8327 246.376 27.0306 246.586 27.2956C246.779 27.5847 246.902 27.9145 246.947 28.2592L245.919 28.4025C245.888 28.1074 245.744 27.8361 245.516 27.646C245.241 27.4492 244.907 27.3535 244.57 27.3751C244.21 27.344 243.85 27.4276 243.541 27.6141C243.448 27.6761 243.372 27.7592 243.318 27.8565C243.265 27.9538 243.235 28.0625 243.232 28.1736C243.231 28.3074 243.276 28.4375 243.359 28.5422C243.466 28.6695 243.606 28.7657 243.763 28.8207C243.869 28.8611 244.175 28.9503 244.691 29.0896C245.219 29.2187 245.737 29.3805 246.244 29.574C246.521 29.6885 246.76 29.8791 246.933 30.1238H246.931ZM221.528 28.0174C221.575 28.3556 221.594 28.6973 221.585 29.0387V32.8459H220.536V29.0787C220.551 28.7541 220.51 28.4294 220.415 28.1187C220.331 27.9055 220.178 27.7267 219.98 27.6109C219.759 27.4815 219.506 27.4161 219.25 27.4219C218.825 27.4139 218.412 27.5659 218.095 27.8478C217.77 28.131 217.609 28.6692 217.61 29.4626V32.8459H216.561V26.6473H217.504V27.5273C217.716 27.2016 218.009 26.9369 218.355 26.7595C218.7 26.582 219.086 26.498 219.474 26.5157C219.827 26.5122 220.178 26.5809 220.503 26.7175C220.782 26.8255 221.025 27.0082 221.206 27.2455C221.367 27.4773 221.477 27.7403 221.53 28.0174H221.528ZM193.617 14.6691C193.665 15.0074 193.684 15.349 193.675 15.6904V19.4984H192.626V15.7308C192.641 15.4062 192.6 15.0815 192.505 14.7708C192.421 14.5576 192.268 14.3788 192.07 14.2634C191.849 14.1335 191.596 14.0678 191.339 14.0737C190.915 14.0657 190.502 14.2179 190.185 14.5C189.86 14.7831 189.699 15.3213 189.7 16.1147V19.4984H188.651V13.2974H189.594V14.1774C189.805 13.8523 190.098 13.5878 190.442 13.4101C190.787 13.2324 191.171 13.1476 191.559 13.1642C191.912 13.1607 192.262 13.2294 192.588 13.366C192.866 13.474 193.11 13.6565 193.291 13.8936C193.453 14.1263 193.564 14.3905 193.617 14.6691ZM190.818 27.5354C190.984 27.9782 191.058 28.4504 191.035 28.9228V32.8479H189.984V28.9253C190.02 28.5146 189.899 28.1056 189.646 27.7804C189.52 27.6566 189.37 27.5608 189.204 27.499C189.039 27.4372 188.862 27.411 188.686 27.4219C188.379 27.4217 188.077 27.5054 187.814 27.6642C187.553 27.8136 187.348 28.0446 187.231 28.3218C187.1 28.6873 187.041 29.0747 187.057 29.4626V32.8475H186.008V24.2914H187.057V27.3699C187.28 27.0962 187.562 26.8769 187.882 26.7286C188.202 26.5802 188.552 26.5067 188.905 26.5137C189.318 26.5037 189.728 26.5968 190.096 26.7845C190.414 26.947 190.668 27.2114 190.818 27.5354ZM184.967 31.9081L185.11 32.8366C184.851 32.8946 184.586 32.926 184.32 32.9302C184.014 32.9468 183.709 32.8843 183.434 32.749C183.238 32.6433 183.082 32.4761 182.99 32.273C182.878 31.8688 182.835 31.4489 182.862 31.0305V27.4579H182.085V26.6473H182.862V25.1133L183.912 24.4815V26.6473H184.961V27.4595H183.912V31.0927C183.899 31.2875 183.918 31.4831 183.967 31.6719C184.004 31.7577 184.067 31.8296 184.147 31.877C184.257 31.9335 184.381 31.9597 184.505 31.9529C184.66 31.9488 184.814 31.9339 184.967 31.9081ZM184.087 15.9278C183.772 15.9615 183.459 16.0141 183.151 16.0852C182.881 16.1581 182.626 16.2746 182.394 16.43C182.161 16.5884 181.971 16.8019 181.84 17.0515C181.709 17.3011 181.641 17.5792 181.643 17.8611C181.637 18.1002 181.682 18.3379 181.777 18.5574C181.872 18.777 182.014 18.9731 182.193 19.1319C182.635 19.4897 183.197 19.6674 183.764 19.6296C184.161 19.633 184.554 19.5634 184.925 19.4245C185.338 19.2559 185.719 19.0182 186.052 18.7217C186.074 18.9903 186.142 19.253 186.254 19.4984H187.353C187.226 19.2647 187.139 19.0115 187.096 18.7492C187.036 18.1345 187.014 17.5168 187.03 16.8995V15.5055C187.039 15.1828 187.021 14.8599 186.978 14.5399C186.927 14.2783 186.815 14.0325 186.65 13.823C186.451 13.606 186.199 13.444 185.919 13.3527C185.502 13.2149 185.064 13.1516 184.625 13.1658C184.146 13.157 183.669 13.2312 183.215 13.385C182.852 13.502 182.529 13.7187 182.283 14.0103C182.049 14.3256 181.891 14.6909 181.821 15.0776L182.849 15.221C182.912 14.8624 183.098 14.5367 183.374 14.2989C183.704 14.1006 184.087 14.0094 184.471 14.0382C184.9 14.0062 185.326 14.1323 185.669 14.3926C185.78 14.513 185.864 14.6558 185.916 14.8113C185.967 14.9668 185.985 15.1315 185.968 15.2944C185.968 15.3324 185.968 15.424 185.962 15.5673C185.351 15.7497 184.722 15.8705 184.087 15.9278ZM185.962 16.7755C185.981 17.1321 185.924 17.4886 185.793 17.8211C185.643 18.1284 185.4 18.3807 185.099 18.5421C184.767 18.7226 184.394 18.8139 184.017 18.8069C183.683 18.83 183.352 18.7309 183.085 18.5279C182.984 18.4434 182.902 18.337 182.847 18.2168C182.792 18.0965 182.765 17.9655 182.767 17.8332C182.765 17.6563 182.817 17.4829 182.914 17.3351C183.015 17.1838 183.159 17.0661 183.328 16.9968C183.625 16.8907 183.934 16.8205 184.248 16.7877C184.835 16.7225 185.412 16.5901 185.968 16.3933L185.962 16.7755ZM207.989 30.5759L209.016 30.7192C208.939 31.3595 208.631 31.9496 208.15 32.3796C207.674 32.7838 207.064 32.9974 206.44 32.9791C206.06 32.9949 205.681 32.929 205.329 32.7857C204.977 32.6425 204.66 32.4252 204.399 32.1487C203.845 31.4851 203.568 30.6335 203.626 29.771C203.613 29.1694 203.727 28.5718 203.959 28.0166C204.16 27.5384 204.516 27.1421 204.97 26.8919C205.422 26.6408 205.931 26.511 206.448 26.5153C207.04 26.4897 207.622 26.6697 208.096 27.0247C208.539 27.3908 208.832 27.9069 208.919 28.4748L207.903 28.6302C207.837 28.269 207.655 27.939 207.386 27.69C207.135 27.4796 206.816 27.3677 206.489 27.3755C206.245 27.368 206.003 27.4151 205.779 27.5133C205.556 27.6115 205.357 27.7583 205.198 27.9431C204.824 28.4644 204.648 29.1019 204.702 29.7411C204.647 30.3822 204.816 31.0225 205.179 31.5533C205.331 31.7361 205.522 31.8821 205.739 31.98C205.955 32.0779 206.191 32.1253 206.428 32.1184C206.809 32.1311 207.179 31.9955 207.461 31.7402C207.769 31.4263 207.956 31.014 207.989 30.5759ZM212.425 26.5137C211.713 26.4938 211.019 26.7383 210.476 27.1999C209.837 27.7514 209.517 28.5991 209.518 29.7431C209.458 30.6175 209.747 31.48 210.32 32.1426C210.594 32.4207 210.922 32.6385 211.285 32.7819C211.647 32.9252 212.036 32.991 212.425 32.975C212.948 32.9798 213.463 32.8495 213.921 32.5968C214.368 32.3548 214.732 31.9844 214.966 31.5335C215.232 30.9446 215.355 30.301 215.324 29.6555C215.349 29.2364 215.29 28.8165 215.151 28.4204C215.011 28.0242 214.795 27.6596 214.514 27.3477C214.243 27.0711 213.917 26.8541 213.557 26.7105C213.198 26.5669 212.812 26.4998 212.425 26.5137ZM213.73 31.5238C213.566 31.7099 213.365 31.859 213.139 31.9611C212.914 32.0633 212.669 32.1161 212.421 32.1161C212.174 32.1161 211.929 32.0633 211.703 31.9611C211.478 31.859 211.277 31.7099 211.113 31.5238C210.729 31.0139 210.545 30.3815 210.593 29.7452C210.545 29.1103 210.73 28.4795 211.113 27.9714C211.277 27.7864 211.478 27.6383 211.704 27.537C211.929 27.4358 212.173 27.3836 212.42 27.384C212.668 27.3843 212.912 27.4373 213.137 27.5392C213.362 27.6412 213.563 27.7899 213.726 27.9754C214.108 28.4699 214.295 29.0878 214.251 29.7112C214.302 30.3585 214.116 31.0024 213.73 31.5238ZM197.259 31.8427H202.504V32.8459H196.124V24.2914H202.301V25.2949H197.259V27.9233H201.978V28.9273H197.26L197.259 31.8427ZM211.634 18.188C211.9 17.5992 212.023 16.9556 211.992 16.3101C212.017 15.8909 211.958 15.4711 211.818 15.0749C211.679 14.6787 211.463 14.3141 211.182 14.0022C210.911 13.7251 210.585 13.5076 210.226 13.3635C209.866 13.2195 209.48 13.1521 209.093 13.1658C208.381 13.1462 207.687 13.3906 207.144 13.8521C206.504 14.4035 206.185 15.2512 206.186 16.3953C206.127 17.2696 206.415 18.1321 206.988 18.7948C207.262 19.0729 207.59 19.2906 207.953 19.434C208.315 19.5774 208.704 19.6432 209.093 19.6272C209.615 19.6316 210.13 19.5013 210.587 19.2489C211.034 19.0082 211.399 18.6386 211.634 18.188H211.634ZM209.093 18.7693C208.844 18.7745 208.597 18.7241 208.37 18.6218C208.143 18.5195 207.942 18.3679 207.781 18.1779C207.398 17.6688 207.213 17.0373 207.261 16.4017C207.213 15.7667 207.398 15.1358 207.781 14.6275C207.945 14.4426 208.146 14.2945 208.372 14.1933C208.597 14.092 208.841 14.0398 209.088 14.0402C209.335 14.0405 209.579 14.0934 209.804 14.1953C210.029 14.2972 210.23 14.4457 210.393 14.6312C210.776 15.1256 210.963 15.7436 210.918 16.367C210.969 17.0133 210.784 17.6561 210.399 18.1771C210.239 18.3669 210.039 18.5186 209.813 18.6211C209.587 18.7235 209.342 18.7742 209.094 18.7693H209.093ZM217.439 19.0301C216.962 19.4345 216.353 19.648 215.728 19.6296C215.348 19.6454 214.97 19.5795 214.617 19.4362C214.265 19.293 213.948 19.0757 213.687 18.7992C213.133 18.1355 212.857 17.2839 212.915 16.4215C212.902 15.8199 213.015 15.2224 213.247 14.6671C213.448 14.1888 213.804 13.7923 214.259 13.542C214.711 13.2912 215.22 13.1616 215.736 13.1658C216.328 13.1399 216.911 13.3201 217.385 13.6756C217.828 14.0412 218.121 14.5573 218.207 15.1253L217.192 15.2807C217.126 14.9195 216.944 14.5895 216.674 14.3405C216.424 14.1299 216.105 14.0181 215.778 14.026C215.534 14.0186 215.291 14.0656 215.068 14.1638C214.844 14.262 214.646 14.4089 214.486 14.5936C214.112 15.115 213.937 15.7524 213.99 16.3916C213.936 17.0328 214.104 17.6731 214.468 18.2038C214.62 18.3866 214.811 18.5325 215.027 18.6304C215.244 18.7283 215.48 18.7757 215.717 18.7689C216.097 18.7817 216.468 18.646 216.75 18.3907C217.056 18.0767 217.242 17.665 217.275 17.2277L218.303 17.371C218.226 18.0104 217.919 18.6 217.439 19.0301H217.439Z" fill="#052640"/>
<path fill-rule="evenodd" clip-rule="evenodd" d="M138.22 4.00049C138.348 4.00049 138.452 12.9546 138.452 24.0007C138.452 35.0467 138.348 44.0005 138.22 44.0005C138.092 44.0005 137.988 35.0463 137.988 24.0007C137.988 12.955 138.092 4.00049 138.22 4.00049Z" fill="#052640"/>
</svg>
