<svg width="160" height="72" viewBox="0 0 160 72" fill="none" xmlns="http://www.w3.org/2000/svg">
<path d="M81.5518 33.8477C81.5518 32.4927 80.5154 30.819 78.2835 30.819H73.8203V41.0211H76.2912V36.9562H78.2835C80.5953 36.9562 81.5518 35.2824 81.5518 33.8477ZM77.4867 35.0433H76.3711V32.6522H77.2477C78.6023 32.6522 79.0809 32.971 79.0809 33.8477C79.001 34.6448 78.6023 35.0433 77.4867 35.0433Z" fill="#F58220"/>
<path d="M91.1158 38.0721C91.1158 34.4854 86.0948 34.9636 86.0948 33.4492C86.0948 32.971 86.6527 32.5725 87.5293 32.5725C88.406 32.5725 89.2034 32.8116 90.7178 33.4492V31.4566C89.4424 30.8986 88.4858 30.6595 87.3702 30.6595C85.0584 30.6595 83.5441 31.8551 83.5441 33.6086C83.5441 37.275 88.5657 36.6374 88.5657 38.3112C88.5657 38.9488 88.0871 39.2676 87.1306 39.2676C86.015 39.2676 85.1383 38.9488 83.7038 37.9924V40.2241C84.6604 40.782 85.537 41.1806 87.2903 41.1806C89.5223 41.1806 91.1158 40.0647 91.1158 38.0721Z" fill="#F58220"/>
<path d="M98.6882 30.7392C94.942 30.7392 92.9497 33.5289 92.9497 35.9998C92.9497 38.63 95.0218 41.2602 98.6882 41.2602C102.275 41.2602 104.347 38.63 104.347 35.9998C104.427 33.5289 102.434 30.7392 98.6882 30.7392ZM98.6882 39.0285C96.7751 39.0285 95.4998 37.7532 95.4998 35.92C95.4998 34.0868 96.7751 32.8116 98.6882 32.8116C100.601 32.8116 101.797 34.0868 101.797 35.92C101.876 37.833 100.601 39.0285 98.6882 39.0285Z" fill="#F58220"/>
<path d="M114.151 33.7681C114.151 32.2536 112.955 30.819 110.883 30.819H106.42V41.0211H108.891V36.8765H109.607C110.963 36.8765 111.361 38.8691 112.397 41.0211H115.107C113.673 37.9924 113.434 36.7968 112.397 36.2389C113.593 35.7607 114.151 34.8839 114.151 33.7681ZM110.245 35.0433H108.97V32.7318H110.245C111.202 32.7318 111.68 33.1304 111.68 33.8477C111.6 34.7245 110.963 35.0433 110.245 35.0433Z" fill="#F58220"/>
<path d="M119.571 30.819H117.1V41.0211H119.571V30.819Z" fill="#F58220"/>
<path d="M130.171 41.0211H132.802L128.418 30.819H125.548L121.563 41.0211H124.194L124.911 39.0285H129.375L130.171 41.0211ZM125.548 37.275L126.984 33.2898L128.577 37.275H125.548Z" fill="#F58220"/>
<path d="M138.939 38.3909C138.939 39.0285 138.461 39.3473 137.504 39.3473C136.388 39.3473 135.512 39.0285 134.077 38.0721V40.3038C135.033 40.8617 135.91 41.2602 137.664 41.2602C139.895 41.2602 141.489 40.1444 141.489 38.1517C141.489 34.5651 136.468 35.0433 136.468 33.5289C136.468 33.0507 137.026 32.6522 137.903 32.6522C138.779 32.6522 139.576 32.8913 141.011 33.5289V31.5363C139.736 30.9784 138.779 30.7392 137.664 30.7392C135.352 30.7392 133.838 31.9348 133.838 33.6883C133.918 37.275 138.939 36.7171 138.939 38.3909Z" fill="#F58220"/>
<path d="M146.192 30.819H143.721V41.0211H146.192V30.819Z" fill="#F58220"/>
<path d="M151.054 33.4492C151.054 32.971 151.612 32.5725 152.488 32.5725C153.365 32.5725 154.163 32.8116 155.597 33.4492V31.4566C154.322 30.8986 153.365 30.6595 152.25 30.6595C149.938 30.6595 148.423 31.8551 148.423 33.6086C148.423 37.275 153.445 36.6374 153.445 38.3112C153.445 38.9488 152.967 39.2676 152.011 39.2676C150.894 39.2676 150.018 38.9488 148.583 37.9126V40.1444C149.54 40.7023 150.416 41.1008 152.17 41.1008C154.402 41.1008 155.996 39.985 155.996 37.9924C156.155 34.4854 151.054 34.9636 151.054 33.4492Z" fill="#F58220"/>
<path d="M74.9376 21.6532L78.365 25.8776H79.7203V19.3418H78.1261V23.3271L74.7786 19.3418H73.3438V25.8776H74.9376V21.6532Z" fill="#52B9E9"/>
<path d="M83.3867 24.6023H86.1764L86.7342 25.8776H88.4077L85.6186 19.4215H83.7854L81.2347 25.8776H82.9081L83.3867 24.6023ZM84.6621 20.9359L85.6978 23.4864H83.7854L84.6621 20.9359Z" fill="#52B9E9"/>
<path d="M90.6396 25.8776H92.1539V20.5374H94.4657V19.3418H88.3285V20.5374H90.6396V25.8776Z" fill="#52B9E9"/>
<path d="M97.8133 19.3418H96.2191V25.7979H97.8133V19.3418Z" fill="#52B9E9"/>
<path d="M103.313 25.9573C105.544 25.9573 106.899 24.2835 106.899 22.6097C106.899 21.0156 105.704 19.2621 103.313 19.2621C100.922 19.2621 99.7257 21.0156 99.7257 22.6097C99.6465 24.2835 101.001 25.9573 103.313 25.9573ZM103.313 20.6171C104.508 20.6171 105.305 21.4141 105.305 22.6097C105.305 23.8053 104.508 24.6023 103.313 24.6023C102.117 24.6023 101.32 23.8053 101.32 22.6097C101.32 21.4141 102.117 20.6171 103.313 20.6171Z" fill="#52B9E9"/>
<path d="M110.327 21.6532L113.833 25.8776H115.109V19.3418H113.594V23.3271L110.167 19.3418H108.733V25.8776H110.327V21.6532Z" fill="#52B9E9"/>
<path d="M118.855 24.6023H121.645L122.203 25.8776H123.877L121.087 19.4215H119.254L116.703 25.8776H118.377L118.855 24.6023ZM120.21 20.9359L121.246 23.4864H119.333L120.21 20.9359Z" fill="#52B9E9"/>
<path d="M130.173 24.682H126.985V19.3418H125.391V25.8776H130.173V24.682Z" fill="#52B9E9"/>
<path d="M73.3438 52.8175H74.9376V50.1075H77.8072V48.9119H74.9376V47.4773H77.8072V46.2817H73.3438V52.8175Z" fill="#52B9E9"/>
<path d="M82.749 46.202C80.2781 46.202 79.0027 47.9555 79.0027 49.5496C79.0027 51.2234 80.358 52.8972 82.749 52.8972C85.0601 52.8972 86.4953 51.2234 86.4953 49.5496C86.4154 47.9555 85.14 46.202 82.749 46.202ZM82.749 51.5422C81.4736 51.5422 80.6769 50.7451 80.6769 49.5496C80.6769 48.354 81.4736 47.5569 82.749 47.5569C83.9445 47.5569 84.8212 48.354 84.8212 49.5496C84.7413 50.7451 83.9445 51.5422 82.749 51.5422Z" fill="#52B9E9"/>
<path d="M92.6326 49.9481C92.6326 51.1437 91.8351 51.5422 90.9584 51.5422C90.0019 51.5422 89.3642 50.9843 89.3642 50.0278V46.2817H87.7707V49.9481C87.7707 51.9407 89.1252 52.8175 91.0383 52.8175C92.7916 52.8175 94.306 52.1001 94.306 49.9481V46.2817H92.7117V49.9481H92.6326Z" fill="#52B9E9"/>
<path d="M100.762 50.2669L97.3347 46.2817H95.8203V52.8175H97.4944V48.6728L101.081 52.8175H102.436V46.2817H100.762V50.2669Z" fill="#52B9E9"/>
<path d="M106.899 46.2817H104.03V52.8175H106.74C109.37 52.8175 110.486 51.4625 110.486 49.5496C110.486 47.7961 109.29 46.2817 106.899 46.2817ZM106.74 51.6219H105.704V47.4773H106.74C108.255 47.4773 108.892 48.4337 108.892 49.5496C108.892 50.506 108.334 51.6219 106.74 51.6219Z" fill="#52B9E9"/>
<path d="M113.276 46.2817L110.646 52.7377H112.399L112.877 51.4625H115.746L116.304 52.7377H118.058L115.189 46.2817H113.276ZM113.276 50.3466L114.232 47.7961L115.269 50.3466H113.276Z" fill="#52B9E9"/>
<path d="M117.421 47.4773H119.732V52.8175H121.406V47.4773H123.717V46.2817H117.421V47.4773Z" fill="#52B9E9"/>
<path d="M126.587 46.2817H124.992V52.7377H126.587V46.2817Z" fill="#52B9E9"/>
<path d="M131.687 46.202C129.216 46.202 127.941 47.9555 127.941 49.5496C127.941 51.2234 129.296 52.8972 131.687 52.8972C133.999 52.8972 135.434 51.2234 135.434 49.5496C135.354 47.9555 134.158 46.202 131.687 46.202ZM131.687 51.5422C130.412 51.5422 129.615 50.7451 129.615 49.5496C129.615 48.354 130.412 47.5569 131.687 47.5569C132.883 47.5569 133.76 48.354 133.76 49.5496C133.68 50.7451 132.883 51.5422 131.687 51.5422Z" fill="#52B9E9"/>
<path d="M141.651 50.2669L138.223 46.2817H136.709V52.8175H138.303V48.6728L141.89 52.8175H143.244V46.2817H141.651V50.2669Z" fill="#52B9E9"/>
<path d="M146.114 46.2817C145.237 46.2817 144.6 46.9193 144.6 47.7961C144.6 48.6728 145.317 49.3105 146.114 49.3105C146.991 49.3105 147.628 48.6728 147.628 47.7961C147.628 46.9193 146.991 46.2817 146.114 46.2817ZM146.114 48.9119C145.476 48.9119 144.998 48.4337 144.998 47.7164C144.998 46.9991 145.476 46.5208 146.114 46.5208C146.752 46.5208 147.23 46.9991 147.23 47.7164C147.23 48.4337 146.752 48.9119 146.114 48.9119Z" fill="#52B9E9"/>
<path d="M146.832 47.3976C146.832 46.9991 146.592 46.9193 146.114 46.9193H145.476V48.5932H145.875V47.8758H146.034L146.433 48.5932H146.832L146.353 47.8758C146.672 47.7961 146.832 47.7164 146.832 47.3976ZM146.194 47.6367H145.875V47.2382H146.114C146.273 47.2382 146.433 47.2382 146.433 47.3976C146.513 47.5569 146.353 47.6367 146.194 47.6367Z" fill="#52B9E9"/>
<path d="M33.3312 59.8317C31.6574 54.9698 21.1365 50.0281 22.6508 41.6591C12.6081 45.8834 4 34.964 4 34.964C4.0797 34.8842 4.23911 34.8045 4.31882 34.8842C4.39852 34.964 10.3764 40.3041 16.8324 39.1883C23.2885 38.1521 28.549 32.6525 31.6574 33.051C31.8169 33.051 31.8965 33.2104 31.8965 33.2901C31.8965 33.4495 31.8169 33.4495 31.6574 33.5292C29.5054 34.406 25.5999 39.0289 26.7157 45.4849C27.5925 50.586 32.5342 53.3757 33.5704 59.3535C33.4906 59.6723 33.411 59.752 33.3312 59.8317Z" fill="#F58220"/>
<path d="M15.4773 48.9122C16.1947 50.5063 18.0279 51.2236 19.622 50.5063C21.2161 49.7889 21.9334 47.9557 21.2161 46.3616C20.4987 44.7675 18.6655 44.0502 17.0714 44.7675C15.3977 45.4849 14.76 47.3181 15.4773 48.9122Z" fill="#F58220"/>
<path d="M35.9614 12.1685C37.6352 17.0304 48.0765 21.9721 46.5621 30.3411C56.6048 26.1168 65.2129 37.0362 65.2129 37.0362C65.1332 37.1159 64.9738 37.1957 64.8941 37.1159C64.8144 37.0362 58.8365 31.696 52.3805 32.8119C45.9244 33.8481 40.664 39.3477 37.5555 38.9492C37.396 38.9492 37.3164 38.8694 37.3164 38.71C37.3164 38.5507 37.396 38.5507 37.5555 38.4709C39.7075 37.5942 43.613 32.9713 42.4972 26.5153C41.6204 21.4142 36.6787 18.6245 35.6426 12.6467C35.7223 12.3279 35.8817 12.2482 35.9614 12.1685Z" fill="#F58220"/>
<path d="M53.8152 23.088C53.0979 21.4939 51.2647 20.7766 49.6706 21.4939C48.0765 22.2113 47.3591 24.0445 48.0765 25.6386C48.7939 27.2327 50.627 27.95 52.2211 27.2327C53.8949 26.5153 54.5325 24.6821 53.8152 23.088Z" fill="#F58220"/>
<path d="M10.7734 34.645C15.6354 32.9712 20.5771 22.5299 28.946 24.0443C24.7217 14.0015 35.6412 5.39343 35.6412 5.39343C35.7209 5.47314 35.8007 5.63255 35.7209 5.71225C35.6412 5.79196 30.301 11.7698 31.4169 18.2258C32.4531 24.7616 37.9526 29.9424 37.5541 33.0509C37.5541 33.2103 37.4744 33.29 37.315 33.29C37.1556 33.29 37.1556 33.2103 37.0759 33.0509C36.1992 30.8988 31.5763 26.9933 25.1202 28.1092C20.0192 28.986 17.2295 33.9277 11.2517 34.9638C10.9328 34.8841 10.8531 34.8044 10.7734 34.645Z" fill="#52B9E9"/>
<path d="M21.6931 16.7911C20.099 17.5085 19.3816 19.3417 20.099 20.9358C20.8163 22.5298 22.6495 23.2472 24.2436 22.5298C25.8377 21.8125 26.555 19.9793 25.8377 18.3852C25.1204 16.7911 23.2872 16.0738 21.6931 16.7911Z" fill="#52B9E9"/>
<path d="M58.4368 37.3549C53.5748 39.0287 48.6332 49.47 40.2642 47.9556C44.4885 57.9984 33.569 66.6065 33.569 66.6065C33.4893 66.5267 33.4096 66.3673 33.4893 66.2876C33.569 66.208 38.9092 60.2301 37.7934 53.774C36.7572 47.3179 31.2576 42.0575 31.6561 38.949C31.6561 38.7896 31.7358 38.7099 31.8952 38.7099C32.0546 38.7099 32.0546 38.7896 32.1343 38.949C33.0111 41.101 37.6339 45.0066 44.09 43.8907C49.1911 43.0139 51.9808 38.0722 57.9585 37.0361C58.2774 37.1158 58.4368 37.1955 58.4368 37.3549Z" fill="#52B9E9"/>
<path d="M47.5969 55.2087C49.191 54.4914 49.9084 52.6582 49.191 51.0641C48.4737 49.47 46.6405 48.7526 45.0464 49.47C43.4524 50.1873 42.735 52.0205 43.4523 53.6146C44.09 55.2087 46.0029 55.926 47.5969 55.2087Z" fill="#52B9E9"/>
<path d="M39.1493 66.6064H39.7073V64.853H40.2652V64.4545H38.5117V64.853H39.1493V66.6064Z" fill="#52B9E9"/>
<path d="M40.7434 66.6064H41.2216V65.0921L41.8593 66.6064H42.2578L42.8157 65.0921V66.6064H43.294V64.4545H42.5766L42.0187 65.8094L41.4608 64.4545H40.7434V66.6064Z" fill="#52B9E9"/>
</svg>
