<svg width="136" height="160" viewBox="0 0 136 160" fill="none" xmlns="http://www.w3.org/2000/svg">
<path d="M10.4118 148.004C7.80344 148.004 7.0449 146.486 7.0449 144.21C7.0449 143.452 7.14047 142.597 7.25782 141.695C7.82885 137.76 9.22376 135.508 12.5906 135.508C14.8675 135.508 15.9781 136.527 15.9781 138.377V139.278H18.2368C18.2622 139.278 18.2622 138.448 18.2622 138.259C18.2622 135.557 16.6253 132.993 12.5943 132.993C7.11627 132.993 4.86362 135.969 4.03369 141.803C3.91513 142.586 3.84375 143.316 3.84375 144.097C3.84375 147.535 5.19631 150.662 10.0331 150.662C13.7085 150.662 15.891 148.871 17.171 146.665L15.0127 145.212C13.6141 147.418 12.0958 148.004 10.4118 148.004ZM25.2331 137.144C20.8451 137.144 18.9494 139.395 18.3094 143.877C18.2368 144.4 18.1896 144.945 18.1896 145.442C18.1896 148.335 19.541 150.636 23.2865 150.636C27.6745 150.636 29.5957 148.287 30.2357 143.877C30.307 143.308 30.3542 142.786 30.3542 142.265C30.3554 139.325 28.9569 137.144 25.2331 137.144ZM27.0587 143.878C26.5845 147.127 25.5658 148.123 23.6434 148.123C22.1033 148.123 21.3448 147.483 21.3448 145.562C21.3448 145.088 21.3932 144.519 21.4876 143.878C21.9618 140.654 22.9103 139.658 24.8544 139.658C26.4199 139.658 27.2015 140.298 27.2015 142.242C27.2015 142.716 27.1531 143.262 27.0587 143.878ZM41.384 133.229L40.6497 137.582C40.6025 137.961 40.6267 137.835 40.7694 138.19C40.0823 137.669 38.8483 137.324 38.0183 137.324C34.0816 137.324 31.8774 139.106 31.166 144.086C31.0716 144.679 31.0474 145.178 31.0474 145.676C31.0474 149.305 33.1815 150.658 36.05 150.658C37.261 150.658 38.4454 150.683 39.3697 149.901L39.6056 151.376H41.8825L44.538 133.229H41.384ZM39.1314 147.435C38.0655 148.073 37.0227 148.217 36.3827 148.217C34.6515 148.217 34.1772 147.316 34.1772 145.87C34.1772 145.325 34.2486 144.686 34.3442 143.996C34.8886 140.227 36.0984 139.561 37.6639 139.561C38.6825 139.561 39.4641 139.728 40.2008 140.132L39.1314 147.435ZM51.4629 137.144C47.1221 137.144 45.0848 139.205 44.3964 143.877C44.3239 144.446 44.2767 144.992 44.2767 145.513C44.2767 148.715 45.9135 150.636 49.5163 150.636C52.3146 150.636 54.4027 149.473 55.517 147.339L53.1216 146.366C52.4344 147.409 51.5101 148.121 49.8732 148.121C48.119 148.121 47.4076 147.649 47.4076 146.083C47.4076 145.775 47.4318 145.326 47.479 145.326H56.0384C56.1582 144.116 56.2985 143.261 56.2985 142.552C56.2985 140.182 55.3984 137.144 51.4629 137.144ZM53.0986 142.907H47.8819C48.4045 141.698 49.2804 139.825 51.083 139.825C52.4816 139.825 53.17 140.643 53.17 142.041C53.1687 142.278 53.147 142.907 53.0986 142.907ZM65.4241 136.858L65.7084 134.439H59.0206L58.7375 136.858H60.4917L58.5959 148.957H56.8393L56.5562 151.376H63.2428L63.5283 148.957H61.7729L63.6686 136.858H65.4241ZM79.0126 140.488L79.8667 138.068H77.5669L75.9083 138.411C74.9828 137.819 73.7258 137.375 72.5414 137.375C69.1491 137.375 66.2576 139.013 66.2576 142.737C66.2576 143.781 66.6363 144.624 67.0863 145.194C66.3762 145.573 65.7592 146.207 65.7592 147.062C65.7592 147.441 65.9007 147.829 66.1863 148.183C64.7623 149.039 63.8876 150.455 63.8876 152.114C63.8876 155.316 67.2303 156 69.7915 156C73.0156 156 76.858 155.263 76.858 151.161C76.858 149.762 75.9808 148.67 73.4439 148.196L68.8672 147.34C68.3458 147.245 68.2272 147.079 68.2272 146.842C68.2272 146.486 68.4425 146.297 68.797 146.297L69.1055 146.345C69.7225 146.486 70.4339 146.559 71.1682 146.559C74.465 146.559 77.4048 145.135 77.4048 141.436C77.4048 140.914 77.3104 140.56 77.0733 139.991C77.4762 140.181 77.9988 140.489 78.2105 140.489H79.0126V140.488ZM72.493 150.303C73.3931 150.47 73.7004 150.801 73.7004 151.394C73.7004 153.315 71.6376 153.553 70.1447 153.553C67.8679 153.553 67.015 153.008 67.015 151.797C67.015 150.73 67.3223 150.233 68.0348 149.473L72.493 150.303ZM71.5191 144.092C70.1435 144.092 69.385 143.595 69.385 142.408C69.385 140.654 70.4048 139.634 72.1833 139.634C73.606 139.634 74.2944 140.227 74.2944 141.387C74.2944 143.142 73.2975 144.092 71.5191 144.092ZM87.4365 137.144C86.1081 137.144 84.9237 137.796 83.4526 138.956L83.2397 138.068H80.6301L78.8045 151.376H81.9585L83.334 141.284C84.2595 140.715 85.3968 139.889 86.3694 139.889C87.5538 139.889 87.9821 140.461 87.9821 141.551C87.9821 141.813 87.9567 142.586 87.9095 142.87L86.7493 151.376H89.9033L91.0635 142.801C91.1119 142.399 91.1591 141.739 91.1591 141.36C91.1603 139.105 90.092 137.144 87.4365 137.144ZM97.15 148.042L97.1742 147.716L98.5486 138.068H93.3077L92.9774 140.488H95.276C95.0861 140.488 94.9675 140.7 94.9445 140.891L93.9961 147.316C93.9489 147.626 93.9259 148.269 93.9259 148.528C93.9259 150.188 94.826 151.376 96.6746 151.376H98.2872L98.6429 148.957H97.6243C97.2674 148.957 97.15 148.326 97.15 148.042ZM99.1886 133.229H96.106C95.916 133.229 95.916 132.531 95.893 132.768L95.4648 136.177C95.4406 136.391 95.4406 136.858 95.6305 136.858H98.7143C98.9042 136.858 98.9042 136.03 98.9272 135.814L99.3555 133.183C99.3797 132.946 99.3797 133.229 99.1886 133.229ZM105.62 148.123C104.838 148.123 104.458 147.79 104.458 147.08L104.483 147.032L105.478 140.488H109.082L110.172 138.068H105.81L106.544 132.744L103.226 133.805L102.632 138.068H100.712L100.38 140.488H102.609C102.396 141.698 102.182 140.913 102.159 141.151L101.305 146.889C101.257 147.15 101.257 147.34 101.257 147.576C101.257 149.829 102.917 150.672 104.911 150.672C106.76 150.672 108.254 150.132 109.416 149.159L107.945 147.349C107.208 147.799 106.711 148.123 105.62 148.123ZM117.192 137.144C112.852 137.144 110.814 139.205 110.125 143.877C110.054 144.446 110.007 144.992 110.007 145.513C110.007 148.715 111.642 150.636 115.246 150.636C118.045 150.636 120.133 149.473 121.246 147.339L118.852 146.366C118.164 147.409 117.239 148.121 115.602 148.121C113.849 148.121 113.136 147.649 113.136 146.083C113.136 145.775 113.162 145.326 113.209 145.326H121.768C121.887 144.116 122.03 143.261 122.03 142.552C122.03 140.182 121.128 137.144 117.192 137.144ZM118.829 142.907H113.612C114.133 141.698 115.009 139.825 116.813 139.825C118.212 139.825 118.9 140.643 118.9 142.041C118.899 142.278 118.876 142.907 118.829 142.907ZM130.756 137.144C129.618 137.144 128.551 137.796 127.483 138.814L127.294 138.068H124.686L122.86 151.376H126.038L127.436 141.071C128.266 140.574 129.215 140.149 130.116 140.149C130.686 140.149 131.23 140.058 131.752 140.13L132.157 137.38C131.68 137.286 131.206 137.144 130.756 137.144ZM50.2277 123.697C43.0499 120.595 36.3331 112.71 36.3174 104.641C36.298 95.8448 41.8728 88.3767 48.8062 83.4685C47.9726 86.6176 47.5177 89.4982 49.5829 92.3146C51.5028 94.9338 54.8649 96.2066 58.0394 95.5158C65.458 93.8922 65.7979 85.7369 61.4003 80.986C57.0522 76.2811 52.8457 70.9664 54.5007 64.1431C55.3295 60.723 57.4297 57.5194 60.09 55.2292C58.0455 60.6032 63.8562 65.9033 67.6852 68.5431C74.327 73.1235 81.6137 76.5847 87.7208 81.9538C94.1449 87.5964 98.8885 95.2266 97.9304 104.075C96.8923 113.666 89.2706 120.337 80.7221 123.705C98.7869 119.718 117.453 105.697 117.835 85.6619C118.152 69.1795 106.845 56.4947 92.8383 49.2322L92.1063 48.833C92.4911 49.7657 92.6169 50.5594 92.6024 51.2695C92.7282 50.7457 92.8129 50.2073 92.8371 49.652C92.831 50.3428 92.7427 50.9949 92.5806 51.6071L92.6024 51.2695C92.3919 52.1587 92.0386 52.985 91.5656 53.7412L91.7712 53.5198C88.9766 58.1545 81.4117 59.1611 77.6746 54.3618C71.6667 46.642 77.8004 38.3186 78.6581 30.1439C79.7325 19.8981 73.3072 9.95224 65.3406 4C69.7286 11.0979 63.9481 20.4884 59.323 25.7378C54.8383 30.8274 49.3845 35.0763 44.4339 39.7002C39.1156 44.6664 34.003 49.8976 29.632 55.7265C20.8899 67.3926 15.5377 82.0651 19.4708 96.6203C23.4015 111.165 36.0004 120.423 50.2277 123.697Z" fill="#EE4323"/>
</svg>
