<svg width="160" height="64" viewBox="0 0 160 64" fill="none" xmlns="http://www.w3.org/2000/svg">
<path d="M62.8501 38.4542C62.8501 47.0661 55.9154 54.0719 47.2955 54.0719C43.8236 54.0719 40.5846 52.9214 37.9874 51.0008C40.8914 47.624 42.6203 43.2449 42.6203 38.4542L42.6267 13.6028C42.6267 9.55025 39.3267 6.25317 35.2705 6.25317C31.2143 6.25317 27.9143 9.55025 27.9143 13.6028L27.9079 38.4542C27.9079 43.2449 29.7531 47.624 32.6571 51.0008C30.0599 52.9214 26.8209 54.0719 23.3488 54.0719C14.7291 54.0719 7.6781 47.0661 7.6781 38.4542V8.13764H4V38.4542C4 49.0918 12.7398 57.7466 23.3876 57.7466C27.902 57.7466 32.0885 56.1794 35.3804 53.5765C38.672 56.1794 42.762 57.7466 47.2762 57.7466C57.924 57.7466 66.5282 49.0918 66.5282 38.4542V8.13764H62.8501V38.4542ZM35.2641 48.4973C32.973 45.7797 31.586 42.2774 31.586 38.4542L31.5924 13.6028C31.5924 11.5762 33.2423 9.9281 35.2705 9.9281C37.2985 9.9281 38.9486 11.5762 38.9486 13.6028L38.9422 38.4542C38.9422 42.2774 37.5553 45.7797 35.2641 48.4973ZM77.5687 56.7733H81.2468V8.03802H77.5687V56.7733ZM113.448 7.18835C106.19 7.18835 99.7744 10.8576 95.9592 16.4363V8.03827H92.2811V56.7733H95.9592V28.3394H95.9612C95.9612 18.7068 103.806 10.8701 113.448 10.8701V7.18835ZM122.943 48.9958L138.163 33.7762L156 15.9385C155.601 15.478 155.185 15.028 154.747 14.5906C144.888 4.7312 128.845 4.7312 118.986 14.5906C109.126 24.4501 109.126 40.4927 118.986 50.3521C128.844 60.2102 144.883 60.2116 154.743 50.3565L152.142 47.7556C144.154 55.7385 131.422 56.1511 122.943 48.9958ZM121.587 17.1915C129.574 9.20429 142.309 8.79033 150.79 15.9469L120.342 46.395C113.185 37.9138 113.599 25.1788 121.587 17.1915Z" fill="black"/>
</svg>
