<svg width="200" height="48" viewBox="0 0 200 48" fill="none" xmlns="http://www.w3.org/2000/svg">
<path d="M25.8785 26.855L28.081 30.669L22.586 40.2075H51.1898L53.3795 44.0003H15.9517L25.8785 26.855Z" fill="#F35757"/>
<path d="M25.8978 11.5928L35.7825 28.7631H31.3791L25.8831 19.244L11.5494 44H7.1875L25.8978 11.5928Z" fill="#49C5B1"/>
<path d="M48.9903 36.3981H29.1762L31.3806 32.5725H42.3706L28.0984 7.78125L30.2812 4L48.9903 36.3981Z" fill="#00AFD7"/>
<path d="M84.1 33.4259L74.7781 21.9291L83.4356 13.3403C83.8103 12.9669 83.9925 12.5669 83.9925 12.1184C83.9925 11.2103 83.2125 10.4144 82.3234 10.4144C81.7393 10.4144 81.3459 10.6916 80.9915 11.0069L67.2759 25.0681V12.1544C67.2759 11.195 66.4953 10.4144 65.5359 10.4144C64.6109 10.4144 63.8293 11.2109 63.8293 12.1544V34.6575C63.8293 35.6012 64.6109 36.3981 65.5359 36.3981C66.4953 36.3981 67.2759 35.6175 67.2759 34.6575V29.3578L72.3325 24.3022L81.424 35.6244C81.7834 36.1378 82.2537 36.3984 82.8222 36.3984C83.7662 36.3984 84.5637 35.6012 84.5637 34.6578C84.5637 34.0941 84.3425 33.7347 84.1 33.4259ZM103.816 26.4069C103.816 21.6009 100.764 16.7356 94.9303 16.7356C89.7878 16.7356 85.759 21.0922 85.759 26.6553V26.7272C85.759 32.3834 89.8553 36.6484 95.2872 36.6484C98.1825 36.6484 100.397 35.7622 102.459 33.7853C102.804 33.4831 102.994 33.0828 102.994 32.6575C102.994 31.8353 102.309 31.1666 101.467 31.1666C101.009 31.1666 100.685 31.3912 100.469 31.5706C98.9418 32.9769 97.3178 33.6319 95.3581 33.6319C92.115 33.6319 89.6809 31.3856 89.2097 28.005H102.218C103.099 28.0047 103.816 27.2875 103.816 26.4069ZM94.8593 19.6819C98.4534 19.6819 100.068 22.545 100.407 25.3434H89.2093C89.6737 21.9919 91.9581 19.6819 94.8593 19.6819ZM124.068 26.4069C124.068 21.6009 121.016 16.7356 115.182 16.7356C110.041 16.7356 106.012 21.0922 106.012 26.6553V26.7272C106.012 32.3834 110.108 36.6484 115.539 36.6484C118.434 36.6484 120.649 35.7622 122.711 33.7847C123.056 33.4831 123.246 33.0828 123.246 32.6575C123.246 31.8353 122.56 31.1666 121.718 31.1666C121.26 31.1666 120.936 31.3912 120.72 31.5706C119.193 32.9769 117.569 33.6319 115.61 33.6319C112.368 33.6319 109.934 31.3853 109.461 28.005H122.469C123.351 28.0047 124.068 27.2875 124.068 26.4069ZM115.112 19.6819C118.704 19.6819 120.318 22.545 120.658 25.3434H109.461C109.926 21.9919 112.21 19.6819 115.112 19.6819ZM136.792 16.7356C134.28 16.7356 132.263 17.7128 130.782 19.6447V18.6563C130.782 17.6994 130.033 16.9497 129.077 16.9497C128.157 16.9497 127.407 17.715 127.407 18.6563V34.6934C127.407 35.6494 128.156 36.3981 129.112 36.3981C130.064 36.3981 130.782 35.665 130.782 34.6934V25.3347C130.782 22.1122 132.93 19.8616 136.006 19.8616C139.007 19.8616 140.8 21.8275 140.8 25.1197V34.6931C140.8 35.6491 141.549 36.3978 142.507 36.3978C143.444 36.3978 144.178 35.6491 144.178 34.6931V24.4419C144.178 19.7606 141.279 16.7356 136.792 16.7356ZM160.757 10.4141C159.833 10.4141 159.052 11.2106 159.052 12.1541V34.6572C159.052 35.6009 159.833 36.3978 160.757 36.3978C161.717 36.3978 162.499 35.6172 162.499 34.6572V12.1541C162.499 11.1947 161.717 10.4141 160.757 10.4141ZM179.783 10.1641C172.438 10.1641 166.685 15.9806 166.685 23.4056V23.4772C166.685 30.9866 172.286 36.6488 179.712 36.6488C187.058 36.6488 192.812 30.8322 192.812 23.4059V23.335C192.812 15.8263 187.211 10.1641 179.783 10.1641ZM189.258 23.4056V23.4772C189.258 29.1438 185.185 33.4169 179.783 33.4169C174.342 33.4169 170.239 29.1128 170.239 23.4056V23.3347C170.239 17.6688 174.312 13.3963 179.712 13.3963C185.065 13.3963 189.258 17.7928 189.258 23.4056Z" fill="#546A7E"/>
</svg>
