<svg width="136" height="160" viewBox="0 0 136 160" fill="none" xmlns="http://www.w3.org/2000/svg">
<path d="M68.0004 150.336C69.2589 149.707 101.982 135.548 112.365 127.053C123.063 118.243 128.727 105.657 128.727 90.5539V19.7589L127.783 19.4442C101.667 5.2852 69.2589 6.22913 67.6857 6.22913C66.4271 6.22913 34.0187 5.2852 7.90322 19.4442L7.27393 19.7589V90.8685C7.27393 105.971 12.9375 118.557 23.6354 127.367C34.0187 135.863 66.7418 150.022 68.0004 150.336Z" fill="#341B14"/>
<path d="M68.0001 151.91C68.0001 151.91 33.3892 136.807 22.6913 128.311C11.3641 118.872 6.01514 105.971 6.01514 91.1832V17.5563C33.3892 2.76805 68.0001 4.02663 68.0001 4.02663C68.0001 4.02663 102.611 2.76805 129.985 17.5563V90.8686C129.985 105.657 124.636 118.557 113.309 127.997C102.611 136.807 68.0001 151.91 68.0001 151.91ZM11.0495 91.1832C11.0495 105.028 16.0838 116.355 25.8377 124.221C34.6478 131.458 60.7633 143.1 68.0001 146.246C75.237 143.1 101.667 131.143 110.163 124.221C119.916 116.355 124.951 104.713 124.951 91.1832V18.8149C88.452 15.3538 45.0311 17.2417 11.0495 48.7062V91.1832Z" fill="#FFB406"/>
<path d="M102.926 80.7999C107.645 83.6317 109.533 85.5196 109.848 88.9807C109.848 92.7564 107.331 94.9589 103.24 94.9589C99.7793 94.9589 95.6889 93.0711 92.8571 90.5539V100.623C96.3182 102.51 100.409 104.084 104.814 104.084C115.512 104.084 120.546 96.5322 120.546 89.61C120.86 83.3171 118.973 78.2828 109.848 72.9338C105.758 70.4166 102.611 68.8434 102.611 65.0677C102.611 61.292 106.072 59.7187 108.904 59.7187C112.68 59.7187 116.455 61.9212 118.658 64.1238V54.6844C116.77 53.1112 112.68 50.9087 106.701 51.2233C99.4646 51.538 91.9132 56.5723 91.9132 65.3823C92.2278 71.3606 94.1157 75.7656 102.926 80.7999ZM65.7976 103.454C66.7416 103.769 68.3148 104.084 70.832 104.084C83.1031 104.084 90.0253 93.0711 90.0253 77.3388C90.0253 61.292 82.7885 51.538 69.888 51.538C63.9098 51.538 59.1901 52.7965 55.0997 55.3137V126.423H65.7976V103.454ZM65.7976 60.6627C66.7416 60.348 68.3148 59.7187 69.5734 59.7187C75.8663 59.7187 78.3834 64.753 78.3834 77.0242C78.3834 88.9807 75.237 94.6443 68.9441 94.6443C67.3709 94.6443 66.1123 94.3296 65.483 94.015V60.6627H65.7976ZM32.76 104.084C39.3675 104.084 45.0311 102.51 49.1215 99.6786V52.1673H38.1089V93.3857C36.8503 94.3296 35.2771 94.6443 33.0746 94.6443C28.0403 94.6443 27.411 89.9246 27.411 87.0928V52.1673H16.3984V86.4635C16.3984 98.1054 22.062 104.084 32.76 104.084Z" fill="#FFB406"/>
<path fill-rule="evenodd" clip-rule="evenodd" d="M106.072 146.561V153.797H107.331V150.966H107.645L109.533 153.797H111.106C111.106 153.797 109.219 150.966 108.904 150.651C109.848 150.336 110.477 149.707 110.477 148.763C110.477 147.819 109.848 146.561 107.96 146.561H106.072ZM109.219 148.449C109.219 148.134 108.904 147.505 107.96 147.505H107.331V149.707H107.645C108.904 149.707 109.219 149.078 109.219 148.449Z" fill="#FFB406"/>
<path d="M112.994 150.022C112.994 152.539 110.792 154.741 108.275 154.741C105.757 154.741 103.555 152.539 103.555 150.022C103.555 147.505 105.757 145.302 108.275 145.302C111.106 145.302 112.994 147.505 112.994 150.022ZM108.275 144.044C105.128 144.044 102.296 146.561 102.296 150.022C102.296 153.168 104.814 156 108.275 156C111.421 156 114.253 153.483 114.253 150.022C114.253 146.875 111.421 144.044 108.275 144.044Z" fill="#FFB406"/>
</svg>
