<svg width="160" height="92" viewBox="0 0 160 92" fill="none" xmlns="http://www.w3.org/2000/svg">
<rect x="4" y="4.00012" width="152" height="85" fill="#0081C6"/>
<path d="M51.8555 35.6689C52.0457 35.1503 52.1148 35.0466 52.2012 35.0466C52.3049 35.0466 52.3568 35.133 52.547 35.617C52.789 36.222 55.2782 42.7735 56.2462 45.1936C56.8166 46.611 57.2834 46.853 57.6118 46.9567C57.8538 47.0432 58.0958 47.0605 58.2514 47.0605C58.3551 47.0605 58.407 47.0778 58.407 47.1642C58.407 47.2506 58.2687 47.2852 58.0958 47.2852C57.8538 47.2852 56.6956 47.2852 55.6066 47.2506C55.3127 47.2333 55.1226 47.2333 55.1226 47.1469C55.1226 47.0778 55.1744 47.0432 55.2263 47.0432C55.33 47.0086 55.4165 46.8703 55.33 46.611L53.8607 42.7043C53.8261 42.6352 53.7916 42.6006 53.7224 42.6006H50.2997C50.2133 42.6006 50.1787 42.6525 50.1442 42.7216L49.1934 45.5393C49.0551 45.9369 48.9687 46.3172 48.9687 46.611C48.9687 46.9222 49.2971 47.0778 49.5737 47.0778H49.7293C49.833 47.0778 49.8849 47.1123 49.8849 47.1815C49.8849 47.2679 49.7812 47.3025 49.6429 47.3025C49.2626 47.3025 48.5711 47.2506 48.3983 47.2506C48.2254 47.2506 47.3438 47.3025 46.6005 47.3025C46.3931 47.3025 46.3066 47.2679 46.3066 47.1815C46.3066 47.1123 46.3758 47.0778 46.4449 47.0778C46.5486 47.0778 46.7734 47.0605 46.9117 47.0432C47.6377 46.9395 47.9661 46.3517 48.2427 45.5566L51.8555 35.6689ZM53.515 42.0302C53.6014 42.0302 53.6014 41.9783 53.5841 41.9265L52.0802 37.6395C51.9938 37.3975 51.9246 37.3975 51.8382 37.6395L50.438 41.9265C50.4035 42.0129 50.438 42.0302 50.4899 42.0302H53.515Z" fill="white"/>
<path d="M61.5876 43.3958C61.5876 45.3837 61.6222 46.1962 61.8815 46.4209C62.1062 46.6456 62.6421 46.732 63.7311 46.732C64.4571 46.732 65.0794 46.7147 65.4079 46.3172C65.5807 46.1097 65.7017 45.8331 65.7363 45.5566C65.7536 45.4529 65.8055 45.3837 65.8746 45.3837C65.9437 45.3837 65.9783 45.4529 65.9783 45.5911C65.9783 45.7294 65.8746 46.5419 65.7709 46.9395C65.6672 47.2506 65.6326 47.3025 64.8893 47.3025C63.8867 47.3025 63.1088 47.2852 62.4692 47.2506C61.8296 47.2333 61.3629 47.216 60.948 47.216C60.8789 47.216 60.6542 47.216 60.3776 47.2333C60.0837 47.2506 59.7899 47.2679 59.5651 47.2679C59.4269 47.2679 59.3404 47.2333 59.3404 47.1642C59.3404 47.1123 59.375 47.0605 59.4441 47.0605C59.5651 47.0605 59.738 47.0259 59.8763 46.9913C60.1529 46.9222 60.1702 46.6802 60.2393 46.2826C60.3257 45.7294 60.3257 44.6577 60.3257 43.3612V40.9757C60.3257 38.8841 60.3257 38.5038 60.2912 38.0716C60.2566 37.6049 60.1874 37.3975 59.7207 37.3283C59.617 37.3111 59.375 37.2938 59.2367 37.2938C59.1848 37.2938 59.133 37.2246 59.133 37.1901C59.133 37.1036 59.2021 37.0863 59.3577 37.0863C59.9973 37.0863 60.8616 37.1209 60.948 37.1209C61.0172 37.1209 62.0544 37.0863 62.4865 37.0863C62.6248 37.0863 62.7112 37.1209 62.7112 37.1901C62.7112 37.2419 62.6421 37.2938 62.6075 37.2938C62.5038 37.2938 62.3136 37.3111 62.1408 37.3283C61.7259 37.4148 61.6568 37.6222 61.6222 38.0889C61.6049 38.5211 61.6049 38.9014 61.6049 40.993V43.3958H61.5876Z" fill="white"/>
<path d="M72.7891 46.6456C74.2584 46.6456 74.6387 46.4036 74.9671 46.0233C75.1054 45.8504 75.2091 45.4874 75.261 45.2973C75.2956 45.1763 75.3474 45.0898 75.4166 45.0898C75.503 45.0898 75.5203 45.1417 75.5203 45.3837C75.5203 45.8159 75.3301 46.611 75.2264 46.9395C75.14 47.2679 75.1227 47.2852 74.8116 47.2852C72.4779 47.2852 70.1097 47.216 67.6724 47.216C67.5168 47.216 67.4131 47.1988 67.4131 47.1123C67.4131 47.0432 67.4304 46.9567 67.6032 46.6975C69.6948 43.6724 71.7692 40.6646 73.688 37.6568H70.732C70.0233 37.6568 69.1935 37.6395 68.7441 37.8815C68.2601 38.1408 68.0008 38.6248 67.9489 38.9532C67.9144 39.1607 67.8452 39.1953 67.7588 39.1953C67.6896 39.1953 67.6724 39.1261 67.6724 39.0224C67.6724 38.8668 67.8798 37.6395 67.9662 37.2246C67.9835 37.0345 68.0181 36.9653 68.0872 36.9653C68.2082 36.9653 68.3119 37.0518 68.675 37.069C70.006 37.1209 70.6802 37.1036 71.1123 37.1036H75.019C75.2264 37.1036 75.3129 37.1382 75.3129 37.2073C75.3129 37.2765 75.2956 37.3629 75.2264 37.4493C73.1867 40.5609 71.1642 43.5687 69.0553 46.6456H72.7891Z" fill="white"/>
<path d="M86.9983 43.3612C86.9983 44.6577 87.0156 45.7294 87.0847 46.2826C87.1366 46.6802 87.1712 46.9395 87.586 46.9913C87.7762 47.0259 88.0873 47.0605 88.2083 47.0605C88.3121 47.0605 88.3293 47.1296 88.3293 47.1642C88.3293 47.2333 88.2429 47.2679 88.0873 47.2679C87.3268 47.2679 86.4279 47.216 86.3587 47.216C86.2896 47.216 85.3907 47.2679 84.9758 47.2679C84.8203 47.2679 84.7511 47.2333 84.7511 47.1642C84.7511 47.1123 84.7857 47.0605 84.8548 47.0605C84.9758 47.0605 85.1487 47.0259 85.2697 46.9913C85.5636 46.9222 85.5981 46.6629 85.65 46.2653C85.7191 45.7121 85.7191 44.6923 85.7191 43.3958V42.0475C85.7191 41.9783 85.6846 41.961 85.6327 41.961H79.8073C79.7554 41.961 79.7208 41.9783 79.7208 42.0475V43.3958C79.7208 44.6923 79.7208 45.7294 79.79 46.2826C79.8418 46.6802 79.8937 46.9395 80.2913 46.9913C80.4987 47.0259 80.7926 47.0605 80.9309 47.0605C81.0173 47.0605 81.0346 47.1296 81.0346 47.1642C81.0346 47.2333 80.9654 47.2679 80.8099 47.2679C80.032 47.2679 79.1504 47.216 79.0812 47.216C78.9948 47.216 78.1132 47.2679 77.6811 47.2679C77.5428 47.2679 77.4563 47.2333 77.4563 47.1642C77.4563 47.1123 77.4909 47.0605 77.5601 47.0605C77.6811 47.0605 77.8539 47.0259 77.9922 46.9913C78.2688 46.9222 78.2861 46.6802 78.3552 46.2826C78.4417 45.7294 78.4417 44.6577 78.4417 43.3612V40.9757C78.4417 38.8841 78.4417 38.5038 78.4071 38.0716C78.3725 37.6049 78.3034 37.3975 77.8366 37.3283C77.7329 37.3111 77.4909 37.2938 77.3526 37.2938C77.3008 37.2938 77.2489 37.2246 77.2489 37.1901C77.2489 37.1036 77.3181 37.0863 77.4736 37.0863C78.1132 37.0863 78.9948 37.1209 79.0812 37.1209C79.1504 37.1209 80.032 37.0863 80.4641 37.0863C80.6197 37.0863 80.6889 37.1209 80.6889 37.1901C80.6889 37.2419 80.6197 37.2938 80.5851 37.2938C80.4814 37.2938 80.395 37.2938 80.2394 37.3283C79.8591 37.4148 79.7727 37.6049 79.7381 38.0716C79.7208 38.5038 79.7208 38.9187 79.7208 41.0103V41.3042C79.7208 41.3906 79.7554 41.3906 79.8073 41.3906H85.6327C85.6846 41.3906 85.7191 41.3906 85.7191 41.3042V41.0103C85.7191 38.9187 85.7019 38.5038 85.6846 38.0716C85.65 37.6049 85.5808 37.3975 85.1314 37.3283C85.0277 37.3111 84.7857 37.2938 84.6474 37.2938C84.5782 37.2938 84.5437 37.2246 84.5437 37.1901C84.5437 37.1036 84.6128 37.0863 84.7684 37.0863C85.3907 37.0863 86.2896 37.1209 86.3587 37.1209C86.4452 37.1209 87.3268 37.0863 87.7416 37.0863C87.8972 37.0863 87.9836 37.1209 87.9836 37.1901C87.9836 37.2419 87.9145 37.2938 87.8626 37.2938C87.7589 37.2938 87.6898 37.2938 87.5169 37.3283C87.1539 37.4148 87.0675 37.6049 87.0329 38.0716C86.9983 38.5038 86.9983 38.8841 86.9983 40.9757V43.3612Z" fill="white"/>
<path d="M91.6137 40.9757C91.6137 38.8841 91.6137 38.5038 91.5791 38.0716C91.5446 37.6049 91.4754 37.3975 91.0087 37.3283C90.905 37.3111 90.663 37.2938 90.5247 37.2938C90.4728 37.2938 90.421 37.2246 90.421 37.1901C90.421 37.1036 90.4901 37.0863 90.6457 37.0863C91.2853 37.0863 92.1842 37.1209 92.2706 37.1209C92.3743 37.1209 95.2784 37.1382 95.6068 37.1209C95.8834 37.1036 96.1254 37.0518 96.2464 37.0345C96.3156 37.0172 96.3674 36.9653 96.4366 36.9653C96.4884 36.9653 96.5057 37.0345 96.5057 37.0863C96.5057 37.1901 96.4193 37.3456 96.402 37.7259C96.3847 37.8469 96.3501 38.4519 96.3156 38.6075C96.2983 38.6767 96.2464 38.7458 96.1946 38.7458C96.1081 38.7458 96.0908 38.6767 96.0908 38.5729C96.0908 38.4692 96.0736 38.2618 96.0044 38.0889C95.918 37.8642 95.7624 37.7778 95.0018 37.6741C94.7598 37.6395 93.1522 37.6222 92.9793 37.6222C92.9102 37.6222 92.8929 37.6741 92.8929 37.7605V41.4252C92.8929 41.5289 92.8929 41.5635 92.9793 41.5635C93.1522 41.5635 95.0018 41.5635 95.313 41.5289C95.6414 41.4943 95.8488 41.477 95.9871 41.3387C96.0908 41.235 96.1427 41.1659 96.1946 41.1659C96.2464 41.1659 96.281 41.2004 96.281 41.2696C96.281 41.356 96.1946 41.5635 96.1773 42.0129C96.1427 42.2895 96.1081 42.7908 96.1081 42.8945C96.1081 42.9982 96.0736 43.1538 95.9871 43.1538C95.918 43.1538 95.8834 43.1019 95.8834 43.0328C95.8834 42.9118 95.8834 42.7562 95.8143 42.5833C95.7624 42.3932 95.6414 42.2376 95.1055 42.1685C94.7252 42.1166 93.2386 42.0993 92.9966 42.0993C92.9102 42.0993 92.8929 42.1512 92.8929 42.1858V43.3094C92.8929 43.7761 92.8756 45.3491 92.8929 45.6084C92.9275 46.5073 93.1868 46.6802 94.5524 46.6802C94.9154 46.6802 95.5895 46.6802 95.9526 46.5419C96.3156 46.3863 96.5057 46.1443 96.5921 45.6084C96.6267 45.4529 96.6613 45.401 96.7304 45.401C96.8169 45.401 96.8342 45.5047 96.8342 45.6084C96.8342 45.7121 96.7304 46.6283 96.644 46.9049C96.5576 47.2506 96.402 47.2506 95.8661 47.2506C94.8117 47.2506 94.0165 47.216 93.4461 47.1988C92.8583 47.1642 92.4953 47.1642 92.2879 47.1642C92.2533 47.1642 91.994 47.1642 91.6829 47.1815C91.4063 47.1988 91.0951 47.216 90.8704 47.216C90.7321 47.216 90.6457 47.1815 90.6457 47.1123C90.6457 47.0605 90.6803 47.0086 90.7494 47.0086C90.8704 47.0086 91.0433 46.9567 91.1816 46.9395C91.4581 46.8876 91.4754 46.6283 91.5446 46.2307C91.631 45.6776 91.631 44.6058 91.631 43.3094V40.9757H91.6137Z" fill="white"/>
<path d="M101.622 43.3612C101.622 44.6577 101.622 45.7294 101.692 46.2826C101.743 46.6802 101.795 46.9395 102.193 46.9913C102.4 47.0259 102.694 47.0605 102.832 47.0605C102.919 47.0605 102.936 47.1296 102.936 47.1642C102.936 47.2333 102.867 47.2679 102.711 47.2679C101.934 47.2679 101.035 47.216 100.966 47.216C100.879 47.216 100.015 47.2679 99.5827 47.2679C99.4444 47.2679 99.3579 47.2333 99.3579 47.1642C99.3579 47.1123 99.3925 47.0605 99.4616 47.0605C99.5826 47.0605 99.7555 47.0259 99.8938 46.9913C100.17 46.9222 100.205 46.6802 100.257 46.2826C100.326 45.7294 100.343 44.6577 100.343 43.3612V40.9757C100.343 38.8841 100.343 38.5038 100.309 38.0716C100.274 37.6049 100.17 37.3975 99.8592 37.3456C99.7037 37.3111 99.5308 37.2938 99.4271 37.2938C99.3579 37.2938 99.3234 37.2246 99.3234 37.1901C99.3234 37.1036 99.3925 37.0863 99.5481 37.0863C100.015 37.0863 100.879 37.1209 100.966 37.1209C101.035 37.1209 101.934 37.0863 102.366 37.0863C102.521 37.0863 102.59 37.1209 102.59 37.1901C102.59 37.2419 102.521 37.2938 102.487 37.2938C102.383 37.2938 102.297 37.2938 102.141 37.3283C101.761 37.4148 101.674 37.6049 101.657 38.0716C101.64 38.5038 101.64 38.8841 101.64 40.9757V43.3612H101.622Z" fill="white"/>
<path d="M116.99 45.5393C117.042 46.0233 117.128 46.7493 117.699 46.9395C118.096 47.0605 118.459 47.0605 118.597 47.0605C118.667 47.0605 118.701 47.095 118.701 47.1642C118.701 47.2506 118.58 47.2852 118.407 47.2852C118.096 47.2852 116.54 47.2506 116.022 47.1988C115.693 47.1642 115.624 47.1123 115.624 47.0605C115.624 47.0086 115.659 46.9567 115.728 46.9567C115.814 46.9395 115.814 46.732 115.797 46.4727L115.123 39.6447L111.752 46.5419C111.458 47.1296 111.389 47.2506 111.268 47.2506C111.147 47.2506 111.061 47.1296 110.784 46.6283C110.421 45.9541 109.505 44.2255 109.142 43.4995C108.727 42.6352 107.603 40.3707 107.361 39.8176H107.292L106.756 45.9196C106.739 46.127 106.739 46.3863 106.739 46.611C106.739 46.8185 106.86 46.9395 107.068 46.9913C107.31 47.0605 107.517 47.0778 107.603 47.0778C107.655 47.0778 107.707 47.1296 107.707 47.1815C107.707 47.2679 107.603 47.3025 107.448 47.3025C106.929 47.3025 106.255 47.2506 106.151 47.2506C106.03 47.2506 105.356 47.3025 104.976 47.3025C104.838 47.3025 104.734 47.2679 104.734 47.1815C104.734 47.1296 104.803 47.0778 104.872 47.0778C104.976 47.0778 105.08 47.0605 105.287 47.0259C105.754 46.9395 105.771 46.4555 105.823 45.9542L106.843 37.1382C106.86 36.9999 106.929 36.8962 106.998 36.8962C107.102 36.8962 107.206 36.948 107.292 37.1036L111.51 45.4874L115.572 37.1209C115.642 36.9999 115.693 36.8962 115.797 36.8962C115.884 36.8962 115.97 36.9999 116.005 37.2592L116.99 45.5393Z" fill="white"/>
<path d="M121.19 40.9757C121.19 38.8841 121.19 38.5038 121.156 38.0716C121.121 37.6049 121.052 37.3975 120.585 37.3283C120.482 37.3111 120.24 37.2938 120.101 37.2938C120.049 37.2938 119.998 37.2246 119.998 37.1901C119.998 37.1036 120.067 37.0863 120.222 37.0863C120.862 37.0863 121.761 37.1209 121.847 37.1209C121.951 37.1209 124.855 37.1382 125.183 37.1209C125.46 37.1036 125.702 37.0518 125.823 37.0345C125.892 37.0172 125.944 36.9653 126.013 36.9653C126.065 36.9653 126.082 37.0345 126.082 37.0863C126.082 37.1901 125.996 37.3456 125.979 37.7259C125.961 37.8469 125.927 38.4519 125.892 38.6075C125.875 38.6767 125.823 38.7458 125.771 38.7458C125.685 38.7458 125.667 38.6767 125.667 38.5729C125.667 38.4692 125.65 38.2618 125.581 38.0889C125.477 37.8642 125.339 37.7778 124.578 37.6741C124.336 37.6395 122.729 37.6222 122.556 37.6222C122.487 37.6222 122.47 37.6741 122.47 37.7605V41.4252C122.47 41.5289 122.47 41.5635 122.556 41.5635C122.729 41.5635 124.578 41.5635 124.89 41.5289C125.218 41.4943 125.425 41.477 125.564 41.3387C125.65 41.235 125.719 41.1659 125.771 41.1659C125.823 41.1659 125.858 41.2004 125.858 41.2696C125.858 41.356 125.771 41.5635 125.754 42.0129C125.719 42.2895 125.685 42.7908 125.685 42.8945C125.685 42.9982 125.65 43.1538 125.564 43.1538C125.495 43.1538 125.46 43.1019 125.46 43.0328C125.46 42.9118 125.46 42.7562 125.391 42.5833C125.339 42.3932 125.218 42.2376 124.682 42.1685C124.302 42.1166 122.815 42.0993 122.573 42.0993C122.487 42.0993 122.47 42.1512 122.47 42.1858V43.3094C122.47 43.7761 122.452 45.3491 122.47 45.6084C122.504 46.5073 122.763 46.6802 124.129 46.6802C124.492 46.6802 125.166 46.6802 125.529 46.5419C125.892 46.3863 126.082 46.1443 126.169 45.6084C126.203 45.4529 126.238 45.401 126.307 45.401C126.394 45.401 126.394 45.5047 126.411 45.6084C126.411 45.7121 126.307 46.6283 126.221 46.9049C126.134 47.2506 125.979 47.2506 125.443 47.2506C124.388 47.2506 123.593 47.216 123.005 47.1988C122.418 47.1642 122.055 47.1642 121.847 47.1642C121.813 47.1642 121.553 47.1642 121.242 47.1815C120.966 47.1988 120.655 47.216 120.43 47.216C120.291 47.216 120.205 47.1815 120.205 47.1123C120.205 47.0605 120.24 47.0086 120.309 47.0086C120.43 47.0086 120.603 46.9567 120.741 46.9395C121.018 46.8876 121.035 46.6283 121.104 46.2307C121.19 45.6776 121.19 44.6058 121.19 43.3094V40.9757Z" fill="white"/>
<path d="M129.937 40.9757C129.937 38.8841 129.937 38.5038 129.903 38.0716C129.868 37.6049 129.799 37.3975 129.332 37.3283C129.228 37.3111 128.986 37.2938 128.848 37.2938C128.796 37.2938 128.744 37.2246 128.744 37.1901C128.744 37.1036 128.814 37.0863 128.969 37.0863C129.609 37.0863 130.542 37.1209 130.629 37.1209C130.767 37.1209 131.942 37.0863 132.375 37.0863C133.256 37.0863 134.241 37.1728 134.985 37.6741C135.33 37.9334 135.953 38.5729 135.953 39.5237C135.953 40.5263 135.538 41.4943 134.241 42.6006C135.382 44.0354 136.35 45.2454 137.163 46.0924C137.906 46.853 138.373 46.974 138.719 47.0259C138.995 47.0778 139.133 47.0778 139.203 47.0778C139.289 47.0778 139.324 47.1469 139.324 47.1815C139.324 47.2679 139.237 47.2852 138.995 47.2852H138.114C137.318 47.2852 136.973 47.1988 136.627 47.0086C136.022 46.6975 135.521 46.0406 134.725 45.0207C134.138 44.2947 133.515 43.4131 133.222 43.0501C133.152 42.9809 133.135 42.9636 133.031 42.9636L131.251 42.9291C131.182 42.9291 131.147 42.9636 131.147 43.0328V43.3439C131.147 44.6404 131.147 45.6949 131.216 46.248C131.268 46.6456 131.337 46.9049 131.77 46.9567C131.96 46.9913 132.254 47.0259 132.392 47.0259C132.478 47.0259 132.496 47.095 132.496 47.1296C132.496 47.1988 132.426 47.2333 132.271 47.2333C131.51 47.2333 130.629 47.1815 130.559 47.1815C130.542 47.1815 129.609 47.2333 129.177 47.2333C129.038 47.2333 128.952 47.1988 128.952 47.1296C128.952 47.0778 128.986 47.0259 129.056 47.0259C129.177 47.0259 129.349 46.9913 129.488 46.9567C129.764 46.8876 129.782 46.6456 129.851 46.248C129.937 45.6949 129.937 44.6231 129.937 43.3267V40.9757ZM131.147 42.1166C131.147 42.203 131.182 42.2376 131.251 42.2895C131.458 42.3932 132.167 42.4969 132.789 42.4969C133.118 42.4969 133.498 42.4796 133.844 42.2549C134.328 41.9438 134.691 41.2177 134.691 40.1978C134.691 38.5211 133.775 37.5531 132.271 37.5531C131.856 37.5531 131.407 37.6049 131.268 37.6395C131.199 37.6741 131.164 37.7259 131.164 37.7951V42.1166H131.147Z" fill="white"/>
<path d="M138.39 37.5531C138.269 37.4148 138.252 37.3629 138.252 37.2765C138.252 37.2246 138.338 37.1901 138.39 37.1728C138.649 37.1728 139.254 37.3629 139.496 37.4666C139.687 37.5703 139.773 37.6395 139.773 37.8815C139.773 39.0051 138.961 40.3361 138.407 41.0103C138.338 41.114 138.286 41.1313 138.2 41.1313C138.165 41.1313 138.114 41.0967 138.114 41.0449C138.114 40.993 138.131 40.9412 138.183 40.8374C138.425 40.3361 138.701 39.4718 138.701 38.5729C138.701 38.0889 138.494 37.6741 138.39 37.5531Z" fill="white"/>
<path d="M141.813 47.095C141.623 47.0086 141.605 46.9567 141.605 46.5937C141.605 45.9196 141.675 45.3837 141.692 45.159C141.692 45.0207 141.726 44.9343 141.796 44.9343C141.882 44.9343 141.917 44.9861 141.917 45.0898C141.917 45.1936 141.917 45.3837 141.968 45.5739C142.193 46.5592 143.23 46.9049 144.181 46.9049C145.564 46.9049 146.273 46.127 146.273 45.1071C146.273 44.1391 145.754 43.6724 144.509 42.7562L143.87 42.2722C142.366 41.1486 141.865 40.3189 141.865 39.3854C141.865 37.7951 143.127 36.8443 144.959 36.8443C145.512 36.8443 146.065 36.9308 146.411 36.9999C146.688 37.069 146.791 37.069 146.895 37.069C146.999 37.069 147.033 37.0863 147.033 37.1728C147.033 37.2419 146.964 37.6741 146.964 38.6075C146.964 38.815 146.947 38.9014 146.86 38.9014C146.757 38.9014 146.757 38.8322 146.739 38.7285C146.722 38.5729 146.618 38.2099 146.532 38.0544C146.428 37.8988 145.979 37.3802 144.717 37.3802C143.697 37.3802 142.867 37.8815 142.867 38.8322C142.867 39.6966 143.299 40.1806 144.682 41.114L145.08 41.3906C146.774 42.5488 147.362 43.4822 147.362 44.6404C147.362 45.4356 147.068 46.2999 146.065 46.9395C145.477 47.3198 144.613 47.4235 143.835 47.4235C143.196 47.458 142.383 47.3543 141.813 47.095Z" fill="white"/>
<path d="M53.5841 52.8513C53.5841 51.8142 53.5841 51.6413 53.5668 51.4166C53.5495 51.1919 53.515 51.0881 53.2903 51.0536C53.2384 51.0536 53.1174 51.0363 53.0482 51.0363C53.031 51.0363 52.9964 51.0017 52.9964 50.9844C52.9964 50.9499 53.031 50.9326 53.1001 50.9326C53.4113 50.9326 53.878 50.9499 53.9126 50.9499C53.9817 50.9499 54.5521 50.9326 54.7769 50.9326C55.209 50.9326 55.693 50.9671 56.056 51.2264C56.2289 51.3474 56.5401 51.6759 56.5401 52.1253C56.5401 52.6093 56.3326 53.0933 55.693 53.6465C56.2462 54.3552 56.7302 54.943 57.1278 55.3578C57.4908 55.7381 57.7155 55.79 57.8884 55.8246C58.0267 55.8418 58.0958 55.8418 58.1304 55.8418C58.165 55.8418 58.1995 55.8764 58.1995 55.8937C58.1995 55.9283 58.165 55.9456 58.044 55.9456H57.6118C57.2142 55.9456 57.0586 55.911 56.8858 55.8073C56.5919 55.6517 56.3326 55.3233 55.9523 54.8392C55.6585 54.4762 55.3646 54.0441 55.209 53.8712C55.1744 53.8367 55.1572 53.8366 55.1226 53.8366L54.241 53.8194C54.2064 53.8194 54.1891 53.8367 54.1891 53.8712V54.0268C54.1891 54.6664 54.1891 55.185 54.2237 55.4616C54.241 55.6517 54.2929 55.7727 54.5003 55.8073C54.5867 55.8246 54.7423 55.8418 54.8114 55.8418C54.8633 55.8418 54.8633 55.8764 54.8633 55.8937C54.8633 55.9283 54.8287 55.9456 54.7596 55.9456C54.3793 55.9456 53.9471 55.9283 53.9126 55.9283C53.9126 55.9283 53.4458 55.9456 53.2384 55.9456C53.1693 55.9456 53.1347 55.9283 53.1347 55.8937C53.1347 55.8764 53.152 55.8418 53.1865 55.8418C53.2557 55.8418 53.3421 55.8246 53.394 55.8073C53.5323 55.7727 53.5495 55.6517 53.5668 55.4616C53.6014 55.185 53.6014 54.6664 53.6014 54.0268V52.8513H53.5841ZM54.1718 53.4045C54.1718 53.4391 54.1891 53.4736 54.2237 53.4909C54.3274 53.5428 54.6732 53.5946 54.9843 53.5946C55.1399 53.5946 55.33 53.5946 55.5029 53.4736C55.7449 53.3181 55.9178 52.9723 55.9178 52.4538C55.9178 51.624 55.4683 51.1573 54.725 51.1573C54.5176 51.1573 54.3101 51.1746 54.241 51.1919C54.2064 51.2091 54.1891 51.2264 54.1891 51.2783V53.4045H54.1718Z" fill="white"/>
<path d="M58.8218 52.8513C58.8218 51.8142 58.8218 51.6413 58.8046 51.4166C58.7873 51.1919 58.7527 51.0881 58.528 51.0536C58.4761 51.0536 58.3551 51.0363 58.286 51.0363C58.2687 51.0363 58.2341 51.0017 58.2341 50.9844C58.2341 50.9499 58.2687 50.9326 58.3378 50.9326C58.649 50.9326 59.0984 50.9499 59.133 50.9499C59.1848 50.9499 60.6196 50.9499 60.7752 50.9499C60.9135 50.9499 61.0345 50.9153 61.0863 50.9153C61.1209 50.9153 61.1555 50.8807 61.1728 50.8807C61.19 50.8807 61.2073 50.9153 61.2073 50.9499C61.2073 51.0017 61.1728 51.0709 61.1555 51.261C61.1555 51.3302 61.1382 51.624 61.1209 51.6932C61.1209 51.7277 61.0863 51.7623 61.0518 51.7623C61.0172 51.7623 60.9999 51.7277 60.9999 51.6759C60.9999 51.624 60.9999 51.5203 60.9653 51.4339C60.9135 51.3302 60.8443 51.2783 60.4813 51.2264C60.3603 51.2092 59.5651 51.2091 59.496 51.2091C59.4614 51.2091 59.4614 51.2264 59.4614 51.2783V53.0761C59.4614 53.1279 59.4614 53.1452 59.496 53.1452C59.5824 53.1452 60.4813 53.1452 60.6369 53.1279C60.7925 53.1106 60.8962 53.1106 60.9653 53.0415C61.0172 52.9896 61.0345 52.9551 61.069 52.9551C61.0863 52.9551 61.1036 52.9723 61.1036 53.0069C61.1036 53.0415 61.069 53.1625 61.0518 53.3699C61.0345 53.5082 61.0172 53.7502 61.0172 53.8021C61.0172 53.8539 60.9999 53.9231 60.948 53.9231C60.9135 53.9231 60.8962 53.9058 60.8962 53.8539C60.8962 53.7848 60.8962 53.7156 60.8616 53.6292C60.8443 53.5428 60.7752 53.4564 60.5159 53.4218C60.3257 53.4045 59.5997 53.3872 59.4787 53.3872C59.4441 53.3872 59.4268 53.4045 59.4268 53.4391V53.9922C59.4268 54.2169 59.4268 54.9948 59.4268 55.1158C59.4441 55.5653 59.5651 55.6517 60.2393 55.6517C60.4122 55.6517 60.7406 55.6517 60.9307 55.5826C61.1036 55.4961 61.2073 55.3924 61.2419 55.1158C61.2592 55.0467 61.2765 55.0121 61.311 55.0121C61.3456 55.0121 61.3629 55.064 61.3629 55.1158C61.3629 55.1677 61.311 55.6171 61.2765 55.7554C61.2246 55.9283 61.1555 55.9283 60.8962 55.9283C60.3776 55.9283 59.98 55.911 59.7034 55.911C59.4096 55.8937 59.2367 55.8937 59.133 55.8937C59.1157 55.8937 58.9774 55.8937 58.8391 55.8937C58.7008 55.8937 58.5453 55.911 58.4415 55.911C58.3724 55.911 58.3378 55.8937 58.3378 55.8591C58.3378 55.8418 58.3551 55.8073 58.3897 55.8073C58.4588 55.8073 58.5453 55.79 58.5971 55.7727C58.7354 55.7554 58.7527 55.6171 58.77 55.427C58.8045 55.1504 58.8046 54.6318 58.8046 53.9922V52.8513H58.8218Z" fill="white"/>
<path d="M62.5384 55.8591C62.4519 55.8073 62.4347 55.79 62.4347 55.6171C62.4347 55.2887 62.4692 55.0294 62.4692 54.9084C62.4692 54.8392 62.4865 54.8047 62.5211 54.8047C62.5557 54.8047 62.5902 54.822 62.5902 54.8911C62.5902 54.943 62.5902 55.0467 62.6075 55.1331C62.7112 55.6171 63.2298 55.79 63.6965 55.79C64.3707 55.79 64.7337 55.4097 64.7337 54.9084C64.7337 54.4244 64.4744 54.1997 63.8694 53.7502L63.5583 53.5255C62.8149 52.9723 62.5729 52.5748 62.5729 52.108C62.5729 51.3302 63.1952 50.8634 64.0941 50.8634C64.3707 50.8634 64.6473 50.898 64.8029 50.9499C64.9411 50.9844 64.993 50.9844 65.0449 50.9844C65.0967 50.9844 65.114 50.9844 65.114 51.0363C65.114 51.0709 65.0794 51.2783 65.0794 51.745C65.0794 51.8487 65.0794 51.9006 65.0276 51.9006C64.9757 51.9006 64.9757 51.866 64.9584 51.8142C64.9584 51.7277 64.8893 51.5549 64.8547 51.4857C64.8029 51.3993 64.5781 51.1573 63.9731 51.1573C63.4718 51.1573 63.0569 51.3993 63.0569 51.8833C63.0569 52.2982 63.2644 52.5402 63.9385 53.0069L64.1287 53.1452C64.9584 53.7156 65.2523 54.1824 65.2523 54.7355C65.2523 55.1331 65.0967 55.548 64.6127 55.8591C64.3188 56.0493 63.8867 56.1011 63.5237 56.1011C63.2125 56.032 62.8149 55.9801 62.5384 55.8591Z" fill="white"/>
<path d="M67.0501 52.8513C67.0501 51.8142 67.0501 51.6413 67.0328 51.4166C67.0155 51.1919 66.9809 51.0881 66.7562 51.0536C66.7043 51.0536 66.5833 51.0363 66.5142 51.0363C66.4969 51.0363 66.4623 51.0017 66.4623 50.9844C66.4623 50.9499 66.4969 50.9326 66.566 50.9326C66.8772 50.9326 67.3266 50.9499 67.3612 50.9499C67.4131 50.9499 68.8478 50.9499 69.0034 50.9499C69.1417 50.9499 69.2627 50.9153 69.3145 50.9153C69.3491 50.9153 69.3837 50.8807 69.401 50.8807C69.4183 50.8807 69.4356 50.9153 69.4356 50.9499C69.4356 51.0017 69.401 51.0709 69.3837 51.261C69.3837 51.3302 69.3664 51.624 69.3491 51.6932C69.3491 51.7277 69.3145 51.7623 69.28 51.7623C69.2454 51.7623 69.2281 51.7277 69.2281 51.6759C69.2281 51.624 69.2281 51.5203 69.1935 51.4339C69.1417 51.3302 69.0725 51.2783 68.7095 51.2264C68.5885 51.2092 67.7934 51.2091 67.7242 51.2091C67.6896 51.2091 67.6896 51.2264 67.6896 51.2783V53.0761C67.6896 53.1279 67.6896 53.1452 67.7242 53.1452C67.8106 53.1452 68.7095 53.1452 68.8651 53.1279C69.0207 53.1106 69.1244 53.1106 69.1935 53.0415C69.2454 52.9896 69.28 52.9551 69.2973 52.9551C69.3145 52.9551 69.3318 52.9723 69.3318 53.0069C69.3318 53.0415 69.2973 53.1625 69.28 53.3699C69.2627 53.5082 69.2454 53.7502 69.2454 53.8021C69.2454 53.8539 69.2281 53.9231 69.1763 53.9231C69.1417 53.9231 69.1244 53.9058 69.1244 53.8539C69.1244 53.7848 69.1244 53.7156 69.0898 53.6292C69.0725 53.5428 69.0034 53.4564 68.7441 53.4218C68.554 53.4045 67.8279 53.3872 67.7069 53.3872C67.6724 53.3872 67.6551 53.4045 67.6551 53.4391V53.9922C67.6551 54.2169 67.6551 54.9948 67.6551 55.1158C67.6724 55.5653 67.7934 55.6517 68.4675 55.6517C68.6404 55.6517 68.9688 55.6517 69.159 55.5826C69.3318 55.4961 69.4356 55.3924 69.4701 55.1158C69.4874 55.0467 69.5047 55.0121 69.5393 55.0121C69.5738 55.0121 69.5911 55.064 69.5911 55.1158C69.5911 55.1677 69.5393 55.6171 69.5047 55.7554C69.4528 55.9283 69.3837 55.9283 69.1244 55.9283C68.6058 55.9283 68.2082 55.911 67.9317 55.911C67.6378 55.8937 67.4649 55.8937 67.3612 55.8937C67.3439 55.8937 67.2056 55.8937 67.0673 55.8937C66.9291 55.8937 66.7735 55.911 66.6698 55.911C66.6006 55.911 66.566 55.8937 66.566 55.8591C66.566 55.8418 66.5833 55.8073 66.6179 55.8073C66.687 55.8073 66.7735 55.79 66.8253 55.7727C66.9636 55.7554 66.9809 55.6171 66.9982 55.427C67.0328 55.1504 67.0328 54.6318 67.0328 53.9922V52.8513H67.0501Z" fill="white"/>
<path d="M72.3915 51.0709C72.4779 50.8461 72.5125 50.8116 72.5471 50.8116C72.6162 50.8116 72.6335 50.898 72.7026 51.0536C72.8236 51.3302 73.93 54.0787 74.3448 55.0813C74.5868 55.669 74.777 55.7554 74.9326 55.8073C75.0363 55.8419 75.14 55.8418 75.2091 55.8418C75.2437 55.8418 75.2956 55.8591 75.2956 55.8937C75.2956 55.9283 75.2091 55.9456 75.14 55.9456C75.0363 55.9456 74.535 55.9456 74.051 55.9283C73.9127 55.9283 73.809 55.9283 73.809 55.8764C73.809 55.8418 73.8262 55.8418 73.8608 55.8246C73.8954 55.8073 73.9645 55.7554 73.93 55.6517L73.3077 54.1305C73.2904 54.0959 73.2904 54.0959 73.2385 54.0959H71.6482C71.6136 54.0959 71.5963 54.1132 71.579 54.1478L71.1815 55.2023C71.1123 55.3578 71.0777 55.5307 71.0777 55.6517C71.0777 55.79 71.1987 55.8246 71.3197 55.8246H71.3889C71.4407 55.8246 71.458 55.8418 71.458 55.8764C71.458 55.911 71.4235 55.9283 71.3543 55.9283C71.1987 55.9283 70.8184 55.911 70.732 55.911C70.6629 55.911 70.3171 55.9283 70.0406 55.9283C69.9541 55.9283 69.9023 55.911 69.9023 55.8764C69.9023 55.8418 69.9368 55.8246 69.9714 55.8246C70.0233 55.8246 70.127 55.8246 70.1789 55.8073C70.49 55.7727 70.6283 55.5307 70.7493 55.2023L72.3915 51.0709ZM73.1521 53.8194C73.1867 53.8194 73.1866 53.8021 73.1694 53.7675L72.4952 51.9525C72.4606 51.8487 72.4088 51.8487 72.3742 51.9525L71.7346 53.7675C71.7346 53.8021 71.7346 53.8194 71.7519 53.8194H73.1521Z" fill="white"/>
<path d="M76.2117 52.8513C76.2117 51.8142 76.2117 51.6413 76.1944 51.4166C76.1772 51.1919 76.1426 51.0881 75.9179 51.0536C75.866 51.0536 75.745 51.0363 75.6759 51.0363C75.6586 51.0363 75.624 51.0017 75.624 50.9844C75.624 50.9499 75.6586 50.9326 75.7277 50.9326C76.0389 50.9326 76.5056 50.9499 76.5402 50.9499C76.6093 50.9499 77.1798 50.9326 77.4045 50.9326C77.8366 50.9326 78.3206 50.9671 78.6837 51.2264C78.8565 51.3474 79.1677 51.6759 79.1677 52.1253C79.1677 52.6093 78.9602 53.0933 78.3206 53.6465C78.8911 54.3552 79.3578 54.943 79.7554 55.3578C80.1184 55.7381 80.3431 55.79 80.516 55.8246C80.6543 55.8418 80.7234 55.8418 80.758 55.8418C80.7926 55.8418 80.8271 55.8764 80.8271 55.8937C80.8271 55.9283 80.7926 55.9456 80.6716 55.9456H80.2394C79.8418 55.9456 79.6863 55.911 79.5134 55.8073C79.2195 55.6517 78.9602 55.3233 78.5799 54.8392C78.2861 54.4762 77.9922 54.0441 77.8366 53.8712C77.8021 53.8367 77.7848 53.8366 77.7502 53.8366L76.8686 53.8194C76.834 53.8194 76.8167 53.8367 76.8167 53.8712V54.0268C76.8167 54.6664 76.8167 55.185 76.8513 55.4616C76.8686 55.6517 76.9205 55.7727 77.1279 55.8073C77.2143 55.8246 77.3699 55.8418 77.4391 55.8418C77.4909 55.8418 77.4909 55.8764 77.4909 55.8937C77.4909 55.9283 77.4563 55.9456 77.3872 55.9456C77.0069 55.9456 76.5747 55.9283 76.5402 55.9283C76.5402 55.9283 76.0734 55.9456 75.866 55.9456C75.7969 55.9456 75.7623 55.9283 75.7623 55.8937C75.7623 55.8764 75.7796 55.8418 75.8142 55.8418C75.8833 55.8418 75.9697 55.8246 76.0216 55.8073C76.1599 55.7727 76.1772 55.6517 76.1944 55.4616C76.229 55.185 76.229 54.6664 76.229 54.0268L76.2117 52.8513ZM76.7995 53.4045C76.7995 53.4391 76.8167 53.4736 76.8513 53.4909C76.955 53.5428 77.3008 53.5946 77.6119 53.5946C77.7675 53.5946 77.9576 53.5946 78.1305 53.4736C78.3725 53.3181 78.5454 52.9723 78.5454 52.4538C78.5454 51.624 78.0959 51.1573 77.3526 51.1573C77.1452 51.1573 76.9378 51.1746 76.8686 51.1919C76.834 51.2091 76.8167 51.2264 76.8167 51.2783V53.4045H76.7995Z" fill="white"/>
<path d="M81.6223 55.3233C80.9482 54.7528 80.7926 53.9922 80.7926 53.3526C80.7926 52.9032 80.9482 52.1426 81.5704 51.5376C81.9853 51.14 82.6076 50.8289 83.6621 50.8289C83.9387 50.8289 84.319 50.8461 84.6647 50.898C84.924 50.9499 85.1487 50.9844 85.3734 51.0017C85.4426 51.0017 85.4598 51.0363 85.4598 51.0709C85.4598 51.1227 85.4426 51.2091 85.4253 51.4512C85.4253 51.6759 85.4253 52.0389 85.408 52.1253C85.408 52.229 85.3734 52.2636 85.3216 52.2636C85.2697 52.2636 85.2697 52.2117 85.2697 52.1253C85.2697 51.866 85.166 51.6067 84.9758 51.4684C84.7338 51.261 84.2325 51.1054 83.6275 51.1054C82.7459 51.1054 82.331 51.3474 82.089 51.5722C81.5877 52.0389 81.4667 52.6266 81.4667 53.3008C81.4667 54.5627 82.4693 55.7036 83.9387 55.7036C84.4572 55.7036 84.803 55.669 85.0623 55.3924C85.2178 55.2368 85.3043 54.9603 85.3216 54.8392C85.3388 54.7701 85.3388 54.7528 85.3907 54.7528C85.4253 54.7528 85.4598 54.8047 85.4598 54.8392C85.4598 54.8911 85.3734 55.4616 85.3043 55.6863C85.2697 55.8073 85.2524 55.8418 85.1314 55.8764C84.8548 55.9801 84.3362 56.032 83.8868 56.032C82.8496 56.032 82.1582 55.79 81.6223 55.3233Z" fill="white"/>
<path d="M91.2853 54.0268C91.2853 54.6664 91.2853 55.185 91.3199 55.4616C91.3371 55.6517 91.3544 55.7727 91.5619 55.8073C91.6483 55.8246 91.8039 55.8418 91.873 55.8418C91.9249 55.8418 91.9422 55.8764 91.9422 55.8937C91.9422 55.9283 91.9076 55.9456 91.8212 55.9456C91.4409 55.9456 91.0087 55.9283 90.9741 55.9283C90.9396 55.9283 90.4901 55.9456 90.3 55.9456C90.2135 55.9456 90.1963 55.9283 90.1963 55.8937C90.1963 55.8764 90.2135 55.8418 90.2481 55.8418C90.3173 55.8418 90.3864 55.8246 90.4555 55.8073C90.5938 55.7727 90.6111 55.6517 90.6457 55.4443C90.6803 55.1677 90.6803 54.6664 90.6803 54.0268V53.3699C90.6803 53.3354 90.663 53.3354 90.6457 53.3354H87.7762C87.7589 53.3354 87.7416 53.3354 87.7416 53.3699V54.0268C87.7416 54.6664 87.7416 55.1677 87.7762 55.4443C87.7935 55.6344 87.828 55.7554 88.0182 55.79C88.1219 55.8073 88.2602 55.8246 88.3293 55.8246C88.3639 55.8246 88.3812 55.8591 88.3812 55.8764C88.3812 55.911 88.3466 55.9283 88.2775 55.9283C87.8972 55.9283 87.465 55.911 87.4305 55.911C87.3959 55.911 86.9464 55.9283 86.739 55.9283C86.6699 55.9283 86.6353 55.911 86.6353 55.8764C86.6353 55.8591 86.6526 55.8246 86.6872 55.8246C86.7563 55.8246 86.8427 55.8073 86.8946 55.79C87.0329 55.7554 87.0502 55.6344 87.0675 55.4443C87.102 55.1677 87.102 54.6491 87.102 54.0095V52.834C87.102 51.7969 87.102 51.624 87.0847 51.3993C87.0675 51.1746 87.0329 51.0709 86.8082 51.0363C86.7563 51.0363 86.6353 51.019 86.5662 51.019C86.5489 51.019 86.5143 50.9844 86.5143 50.9671C86.5143 50.9326 86.5489 50.9153 86.618 50.9153C86.9292 50.9153 87.3613 50.9326 87.4132 50.9326C87.4478 50.9326 87.8799 50.9153 88.0873 50.9153C88.1738 50.9153 88.1911 50.9326 88.1911 50.9671C88.1911 50.9844 88.1565 51.019 88.1392 51.019C88.0873 51.019 88.0528 51.019 87.9663 51.0363C87.7762 51.0709 87.7416 51.1746 87.7243 51.3993C87.7243 51.6067 87.7243 51.8142 87.7243 52.834V52.9723C87.7243 53.0069 87.7416 53.0069 87.7589 53.0069H90.6284C90.6457 53.0069 90.663 53.0069 90.663 52.9723V52.834C90.663 51.7969 90.663 51.6067 90.6457 51.3993C90.6284 51.1746 90.5938 51.0709 90.3691 51.0363C90.3173 51.0363 90.1963 51.019 90.1271 51.019C90.0925 51.019 90.0753 50.9844 90.0753 50.9671C90.0753 50.9326 90.1098 50.9153 90.179 50.9153C90.4901 50.9153 90.9223 50.9326 90.9568 50.9326C90.9914 50.9326 91.4409 50.9153 91.631 50.9153C91.7174 50.9153 91.752 50.9326 91.752 50.9671C91.752 50.9844 91.7174 51.019 91.6829 51.019C91.631 51.019 91.5964 51.019 91.51 51.0363C91.3371 51.0709 91.2853 51.1746 91.268 51.3993C91.2507 51.6067 91.2507 51.7969 91.2507 52.834V54.0268H91.2853Z" fill="white"/>
<path d="M95.7797 52.8513C95.7797 51.8142 95.7797 51.6413 95.7624 51.4166C95.7451 51.1919 95.7105 51.0881 95.4858 51.0536C95.434 51.0536 95.313 51.0363 95.2438 51.0363C95.2265 51.0363 95.192 51.0017 95.192 50.9844C95.192 50.9499 95.2265 50.9326 95.2957 50.9326C95.6068 50.9326 96.039 50.9499 96.0736 50.9499C96.2118 50.9499 97.6985 50.9499 97.854 50.9499C97.9923 50.9499 98.096 50.9499 98.1652 50.9153C98.1998 50.9153 98.2343 50.8807 98.2516 50.8807C98.2862 50.8807 98.3035 50.9153 98.3035 50.9499C98.3035 51.0017 98.2689 51.0709 98.2516 51.261C98.2516 51.3302 98.2343 51.624 98.217 51.6932C98.217 51.7277 98.1825 51.7623 98.1479 51.7623C98.1133 51.7623 98.096 51.7277 98.096 51.6932C98.096 51.6413 98.0788 51.5376 98.0269 51.4512C97.9923 51.3647 97.8195 51.261 97.5602 51.261L96.4366 51.2437C96.402 51.2437 96.3847 51.261 96.3847 51.3129V53.1279C96.3847 53.1625 96.3847 53.1971 96.4366 53.1971H97.37C97.491 53.1971 97.5947 53.1971 97.6812 53.1971C97.8368 53.1798 97.9405 53.1625 98.0096 53.0761C98.0442 53.0415 98.0788 53.0069 98.096 53.0069C98.1306 53.0069 98.1306 53.0242 98.1306 53.0588C98.1306 53.0933 98.0788 53.2143 98.0615 53.4218C98.0442 53.5601 98.0442 53.8194 98.0442 53.8712C98.0442 53.9404 98.0269 54.0095 97.975 54.0095C97.9405 54.0095 97.9232 53.9749 97.9232 53.9404C97.9232 53.8712 97.9059 53.7848 97.8713 53.6984C97.8368 53.6119 97.733 53.5255 97.5256 53.4909C97.3527 53.4736 96.5403 53.4736 96.4193 53.4736C96.3847 53.4736 96.3674 53.4909 96.3674 53.5428V54.0787C96.3674 54.7355 96.3674 55.2541 96.402 55.5134C96.4193 55.7036 96.4711 55.8246 96.644 55.8591C96.7477 55.8764 96.886 55.8937 96.9552 55.8937C96.9897 55.8937 97.007 55.9283 97.007 55.9456C97.007 55.9801 96.9724 55.9974 96.9033 55.9974C96.523 55.9974 96.0736 55.9801 96.039 55.9801C96.0044 55.9801 95.5723 55.9974 95.3648 55.9974C95.2957 55.9974 95.2611 55.9801 95.2611 55.9456C95.2611 55.9283 95.2784 55.8937 95.313 55.8937C95.3821 55.8937 95.4685 55.8764 95.5204 55.8591C95.6587 55.8418 95.676 55.7036 95.6933 55.5134C95.7278 55.2368 95.7278 54.7182 95.7278 54.0787V52.8513H95.7797Z" fill="white"/>
<path d="M101.899 50.8461C103.437 50.8461 104.613 51.7969 104.613 53.3354C104.613 54.822 103.507 56.032 101.864 56.032C99.9802 56.032 99.1851 54.6145 99.1851 53.4218C99.1678 52.3673 99.9975 50.8461 101.899 50.8461ZM102.055 55.7554C102.677 55.7554 103.904 55.427 103.904 53.5082C103.904 51.9179 102.936 51.0881 101.847 51.0881C100.706 51.0881 99.8765 51.8142 99.8765 53.2489C99.8765 54.7874 100.81 55.7554 102.055 55.7554Z" fill="white"/>
<path d="M105.909 52.8513C105.909 51.8142 105.909 51.6413 105.892 51.4166C105.875 51.2091 105.84 51.0881 105.616 51.0536C105.564 51.0536 105.443 51.0363 105.374 51.0363C105.356 51.0363 105.322 51.0017 105.322 50.9844C105.322 50.9499 105.356 50.9326 105.425 50.9326C105.737 50.9326 106.151 50.9499 106.221 50.9499C106.29 50.9499 106.705 50.9326 106.912 50.9326C106.998 50.9326 107.033 50.9499 107.033 50.9844C107.033 51.0017 106.998 51.0363 106.964 51.0363C106.912 51.0363 106.877 51.0363 106.791 51.0536C106.618 51.0881 106.566 51.2091 106.549 51.4166C106.532 51.624 106.532 51.8142 106.532 52.8513V53.7848C106.532 54.7355 106.739 55.1331 107.033 55.4097C107.361 55.7208 107.673 55.7727 108.053 55.7727C108.468 55.7727 108.883 55.5826 109.107 55.306C109.436 54.9257 109.505 54.3725 109.505 53.6984V52.8686C109.505 51.8315 109.505 51.6586 109.488 51.4339C109.488 51.2264 109.436 51.1054 109.211 51.0709C109.159 51.0709 109.038 51.0536 108.969 51.0536C108.934 51.0536 108.917 51.019 108.917 51.0017C108.917 50.9671 108.952 50.9499 109.021 50.9499C109.332 50.9499 109.73 50.9671 109.764 50.9671C109.816 50.9671 110.145 50.9499 110.335 50.9499C110.421 50.9499 110.438 50.9671 110.438 51.0017C110.438 51.019 110.421 51.0536 110.387 51.0536C110.335 51.0536 110.3 51.0536 110.214 51.0709C110.023 51.1054 109.989 51.2264 109.972 51.4339C109.954 51.6413 109.972 51.8315 109.972 52.8686V53.5774C109.972 54.2861 109.885 55.0985 109.332 55.5653C108.831 55.9974 108.295 56.0493 107.897 56.0493C107.673 56.0493 106.947 56.032 106.463 55.5826C106.134 55.2714 105.858 54.8047 105.858 53.8366V52.8513H105.909Z" fill="white"/>
<path d="M112.253 55.0467C112.271 55.5998 112.34 55.7554 112.513 55.8073C112.634 55.8419 112.789 55.8418 112.858 55.8418C112.893 55.8418 112.91 55.8591 112.91 55.8937C112.91 55.9283 112.858 55.9456 112.789 55.9456C112.392 55.9456 112.132 55.9283 112.063 55.9283C111.994 55.9283 111.718 55.9456 111.406 55.9456C111.337 55.9456 111.303 55.9456 111.303 55.8937C111.303 55.8591 111.32 55.8418 111.355 55.8418C111.406 55.8418 111.527 55.8419 111.631 55.8073C111.804 55.7554 111.821 55.5826 111.821 54.9775V51.1746C111.821 50.9153 111.856 50.8461 111.908 50.8461C111.994 50.8461 112.098 50.9844 112.167 51.0536C112.271 51.1573 113.273 52.229 114.328 53.3181C115.002 54.0268 115.745 54.8047 115.953 55.0294L115.884 51.7104C115.884 51.2783 115.832 51.14 115.624 51.0881C115.503 51.0709 115.348 51.0536 115.296 51.0536C115.244 51.0536 115.244 51.019 115.244 50.9844C115.244 50.9499 115.296 50.9326 115.382 50.9326C115.693 50.9326 116.022 50.9499 116.108 50.9499C116.195 50.9499 116.419 50.9326 116.696 50.9326C116.765 50.9326 116.817 50.9326 116.817 50.9844C116.817 51.0017 116.782 51.0536 116.731 51.0536C116.696 51.0536 116.644 51.0536 116.575 51.0709C116.35 51.1227 116.333 51.2437 116.333 51.6413L116.316 55.5307C116.316 55.9629 116.316 56.0147 116.264 56.0147C116.195 56.0147 116.126 55.9629 115.745 55.6171C115.676 55.548 114.691 54.58 113.965 53.8194C113.17 52.9896 112.392 52.1772 112.184 51.9352L112.253 55.0467Z" fill="white"/>
<path d="M118.304 52.8513C118.304 51.8142 118.304 51.6413 118.286 51.4166C118.269 51.1919 118.234 51.0881 118.01 51.0536C117.958 51.0536 117.837 51.0363 117.768 51.0363C117.75 51.0363 117.716 51.0017 117.716 50.9844C117.716 50.9499 117.75 50.9326 117.82 50.9326C118.131 50.9326 118.58 50.9499 118.615 50.9499C118.701 50.9499 119.133 50.9326 119.531 50.9326C120.222 50.9326 121.467 50.8634 122.279 51.6932C122.625 52.0389 122.954 52.592 122.954 53.3699C122.954 54.1997 122.591 54.8392 122.21 55.2368C121.916 55.548 121.294 55.9974 120.136 55.9974C119.842 55.9974 119.479 55.9801 119.185 55.9629C118.891 55.9456 118.649 55.9283 118.632 55.9283C118.615 55.9283 118.494 55.9283 118.355 55.9283C118.217 55.9283 118.044 55.9456 117.941 55.9456C117.871 55.9456 117.837 55.9283 117.837 55.8937C117.837 55.8764 117.854 55.8418 117.889 55.8418C117.958 55.8418 118.044 55.8246 118.096 55.8073C118.234 55.7727 118.252 55.6517 118.269 55.4616C118.304 55.185 118.304 54.6664 118.304 54.0268V52.8513ZM118.926 53.5774C118.926 54.2861 118.926 54.8911 118.926 55.0121C118.926 55.1677 118.943 55.4097 119.012 55.4961C119.099 55.6171 119.341 55.7554 120.153 55.7554C120.793 55.7554 121.346 55.548 121.761 55.1504C122.124 54.822 122.297 54.1824 122.297 53.5774C122.297 52.7303 121.934 52.1945 121.657 51.9179C121.018 51.261 120.257 51.1746 119.427 51.1746C119.289 51.1746 119.081 51.1919 119.012 51.2264C118.943 51.2437 118.926 51.2783 118.926 51.3647V53.5774Z" fill="white"/>
<path d="M125.598 51.0709C125.685 50.8461 125.719 50.8116 125.754 50.8116C125.823 50.8116 125.84 50.898 125.91 51.0536C126.031 51.3302 127.137 54.0787 127.552 55.0813C127.794 55.669 127.984 55.7554 128.139 55.8073C128.243 55.8419 128.347 55.8418 128.416 55.8418C128.451 55.8418 128.502 55.8591 128.502 55.8937C128.502 55.9283 128.433 55.9456 128.347 55.9456C128.243 55.9456 127.742 55.9456 127.258 55.9283C127.12 55.9283 127.016 55.9283 127.016 55.8764C127.016 55.8418 127.033 55.8418 127.068 55.8246C127.102 55.8073 127.171 55.7554 127.137 55.6517L126.515 54.1305C126.497 54.0959 126.497 54.0959 126.445 54.0959H124.855C124.82 54.0959 124.803 54.1132 124.786 54.1478L124.388 55.2023C124.319 55.3578 124.285 55.5307 124.285 55.6517C124.285 55.79 124.406 55.8246 124.527 55.8246H124.596C124.648 55.8246 124.665 55.8418 124.665 55.8764C124.665 55.911 124.63 55.9283 124.561 55.9283C124.406 55.9283 124.025 55.911 123.939 55.911C123.87 55.911 123.524 55.9283 123.247 55.9283C123.161 55.9283 123.109 55.911 123.109 55.8764C123.109 55.8418 123.144 55.8246 123.178 55.8246C123.23 55.8246 123.334 55.8246 123.386 55.8073C123.697 55.7727 123.835 55.5307 123.956 55.2023L125.598 51.0709ZM126.359 53.8194C126.394 53.8194 126.394 53.8021 126.376 53.7675L125.702 51.9525C125.667 51.8487 125.616 51.8487 125.581 51.9525L124.941 53.7675C124.941 53.8021 124.941 53.8194 124.959 53.8194H126.359Z" fill="white"/>
<path d="M130.404 54.0268C130.404 54.6664 130.404 55.185 130.438 55.4616C130.456 55.6517 130.49 55.7727 130.698 55.8073C130.784 55.8246 130.94 55.8418 131.009 55.8418C131.061 55.8418 131.061 55.8764 131.061 55.8937C131.061 55.9283 131.026 55.9456 130.957 55.9456C130.577 55.9456 130.145 55.9283 130.11 55.9283C130.075 55.9283 129.609 55.9456 129.401 55.9456C129.315 55.9456 129.298 55.9283 129.298 55.8937C129.298 55.8764 129.315 55.8418 129.349 55.8418C129.419 55.8418 129.488 55.8246 129.557 55.8073C129.695 55.7727 129.73 55.6517 129.764 55.4443C129.799 55.1677 129.799 54.6491 129.799 54.0095V51.2264L128.814 51.2437C128.381 51.2437 128.226 51.2956 128.122 51.4512C128.036 51.5722 128.036 51.6067 128.018 51.6586C128.001 51.7104 127.984 51.7277 127.949 51.7277C127.932 51.7277 127.897 51.7104 127.897 51.6759C127.897 51.6067 128.036 51.019 128.053 50.9499C128.07 50.9153 128.105 50.8289 128.122 50.8289C128.174 50.8289 128.243 50.8807 128.433 50.9153C128.623 50.9326 128.9 50.9499 128.969 50.9499H131.562C131.787 50.9499 131.942 50.9326 132.046 50.9153C132.15 50.898 132.202 50.8807 132.236 50.8807C132.271 50.8807 132.271 50.9153 132.271 50.9671C132.271 51.1746 132.254 51.6413 132.254 51.7277C132.254 51.7796 132.219 51.8142 132.184 51.8142C132.15 51.8142 132.133 51.7969 132.133 51.6932V51.624C132.115 51.4166 131.96 51.2783 131.303 51.261L130.438 51.2437V54.0268H130.404Z" fill="white"/>
<path d="M134.293 54.0268C134.293 54.6664 134.293 55.185 134.328 55.4616C134.345 55.6517 134.38 55.7727 134.57 55.8073C134.674 55.8246 134.812 55.8418 134.881 55.8418C134.916 55.8418 134.933 55.8764 134.933 55.8937C134.933 55.9283 134.898 55.9456 134.829 55.9456C134.449 55.9456 133.999 55.9283 133.965 55.9283C133.93 55.9283 133.498 55.9456 133.291 55.9456C133.222 55.9456 133.187 55.9283 133.187 55.8937C133.187 55.8764 133.204 55.8418 133.239 55.8418C133.308 55.8418 133.394 55.8246 133.446 55.8073C133.585 55.7727 133.602 55.6517 133.619 55.4616C133.654 55.185 133.654 54.6664 133.654 54.0268V52.8513C133.654 51.8142 133.654 51.6413 133.636 51.4166C133.619 51.1919 133.567 51.0881 133.412 51.0536C133.343 51.0363 133.256 51.0363 133.204 51.0363C133.17 51.0363 133.152 51.0017 133.152 50.9844C133.152 50.9499 133.187 50.9326 133.256 50.9326C133.481 50.9326 133.913 50.9499 133.948 50.9499C133.982 50.9499 134.432 50.9326 134.639 50.9326C134.725 50.9326 134.743 50.9499 134.743 50.9844C134.743 51.0017 134.708 51.0363 134.691 51.0363C134.639 51.0363 134.604 51.0363 134.518 51.0536C134.328 51.0881 134.293 51.1919 134.276 51.4166C134.276 51.624 134.276 51.8142 134.276 52.8513V54.0268H134.293Z" fill="white"/>
<path d="M138.546 50.8461C140.084 50.8461 141.26 51.7969 141.26 53.3354C141.26 54.822 140.153 56.032 138.511 56.032C136.627 56.032 135.832 54.6145 135.832 53.4218C135.814 52.3673 136.644 50.8461 138.546 50.8461ZM138.701 55.7554C139.324 55.7554 140.551 55.427 140.551 53.5082C140.551 51.9179 139.583 51.0881 138.494 51.0881C137.353 51.0881 136.523 51.8142 136.523 53.2489C136.523 54.7874 137.457 55.7554 138.701 55.7554Z" fill="white"/>
<path d="M142.971 55.0467C142.988 55.5998 143.057 55.7554 143.23 55.8073C143.351 55.8419 143.507 55.8418 143.576 55.8418C143.611 55.8418 143.628 55.8591 143.628 55.8937C143.628 55.9283 143.576 55.9456 143.507 55.9456C143.109 55.9456 142.85 55.9283 142.781 55.9283C142.712 55.9283 142.435 55.9456 142.124 55.9456C142.055 55.9456 142.02 55.9456 142.02 55.8937C142.02 55.8591 142.038 55.8418 142.072 55.8418C142.124 55.8418 142.245 55.8419 142.349 55.8073C142.522 55.7554 142.539 55.5826 142.539 54.9775V51.1746C142.539 50.9153 142.573 50.8461 142.625 50.8461C142.712 50.8461 142.815 50.9844 142.885 51.0536C142.988 51.1573 143.991 52.229 145.045 53.3181C145.719 54.0268 146.463 54.8047 146.67 55.0294L146.601 51.7104C146.601 51.2783 146.549 51.14 146.342 51.0881C146.221 51.0709 146.065 51.0536 146.013 51.0536C145.961 51.0536 145.961 51.019 145.961 50.9844C145.961 50.9499 146.013 50.9326 146.1 50.9326C146.411 50.9326 146.739 50.9499 146.826 50.9499C146.895 50.9499 147.137 50.9326 147.414 50.9326C147.483 50.9326 147.535 50.9326 147.535 50.9844C147.535 51.0017 147.5 51.0536 147.448 51.0536C147.414 51.0536 147.362 51.0536 147.293 51.0709C147.068 51.1227 147.051 51.2437 147.051 51.6413L147.033 55.5307C147.033 55.9629 147.033 56.0147 146.981 56.0147C146.912 56.0147 146.843 55.9629 146.463 55.6171C146.394 55.548 145.408 54.58 144.682 53.8194C143.887 52.9896 143.109 52.1772 142.902 51.9352L142.971 55.0467Z" fill="white"/>
<path d="M50.1269 28.2531C50.1269 26.6801 50.1269 26.3862 50.1096 26.075C50.0923 25.7293 50.0059 25.5737 49.6774 25.5046C49.591 25.4873 49.4181 25.47 49.3317 25.47C49.2971 25.47 49.2453 25.4527 49.2453 25.4009C49.2453 25.3317 49.2971 25.3144 49.4009 25.3144C49.6256 25.3144 49.9022 25.3144 50.1269 25.3317L50.5418 25.349C50.7492 25.3663 52.789 25.349 53.031 25.3317C53.2211 25.3144 53.3767 25.3144 53.4804 25.2972C53.5495 25.2799 53.5841 25.228 53.6187 25.228C53.6533 25.228 53.6878 25.2626 53.6878 25.3144C53.6878 25.3836 53.636 25.5046 53.6014 25.7812C53.5841 25.8849 53.5668 26.3343 53.5495 26.4553C53.5323 26.5072 53.515 26.559 53.4631 26.559C53.4113 26.559 53.394 26.5072 53.394 26.438C53.394 26.3516 53.3594 26.1788 53.3075 26.0578C53.2384 25.9195 53.0137 25.7466 52.6161 25.7293L51.0603 25.6947C50.9912 25.6947 50.9739 25.7293 50.9739 25.7985V28.5815C50.9739 28.6334 50.9912 28.668 51.0431 28.668L52.3395 28.6507C52.5124 28.6507 52.6507 28.6507 52.789 28.6334C53.031 28.6161 53.1693 28.5815 53.2557 28.4432C53.2903 28.3914 53.3248 28.3395 53.3594 28.3395C53.394 28.3395 53.4113 28.3741 53.4113 28.426C53.4113 28.4778 53.3594 28.6507 53.3248 28.9964C53.3075 29.2038 53.2903 29.6014 53.2903 29.6706C53.2903 29.757 53.2903 29.8607 53.2211 29.8607C53.1693 29.8607 53.152 29.8261 53.152 29.7743C53.1347 29.6706 53.1347 29.5323 53.0828 29.4113C53.031 29.273 52.8754 29.0828 52.5642 29.0483C52.3049 29.0137 51.2159 29.0137 51.0431 29.0137C50.9912 29.0137 50.9739 29.031 50.9739 29.1001V29.9644C50.9739 30.9325 50.9739 31.7276 51.0258 32.1598C51.0603 32.4536 51.1122 32.6784 51.4233 32.7129C51.5616 32.7302 51.7864 32.7475 51.8728 32.7475C51.9419 32.7475 51.9592 32.7821 51.9592 32.8166C51.9592 32.8685 51.9074 32.9031 51.8036 32.9031C51.2505 32.9031 50.6109 32.8685 50.559 32.8685C50.5072 32.8685 49.8676 32.9031 49.5737 32.9031C49.47 32.9031 49.4181 32.8858 49.4181 32.8166C49.4181 32.7821 49.4354 32.7475 49.5046 32.7475C49.591 32.7475 49.712 32.7302 49.8157 32.7129C50.0232 32.6784 50.075 32.4536 50.1096 32.1598C50.1615 31.7276 50.1615 30.9325 50.1615 29.9644V28.2531H50.1269Z" fill="white"/>
<path d="M56.6783 30.4657C56.6783 31.2955 56.6783 31.9696 56.7129 32.3326C56.7475 32.5919 56.7821 32.7475 57.0414 32.7821C57.1796 32.7994 57.3698 32.8166 57.4389 32.8166C57.4908 32.8166 57.5081 32.8512 57.5081 32.8858C57.5081 32.9204 57.4735 32.9549 57.3698 32.9549C56.8685 32.9549 56.298 32.9204 56.2635 32.9204C56.2116 32.9204 55.6585 32.9549 55.3819 32.9549C55.2955 32.9549 55.2436 32.9377 55.2436 32.8858C55.2436 32.8512 55.2609 32.8166 55.3127 32.8166C55.3992 32.8166 55.5029 32.7994 55.5893 32.7821C55.7622 32.7475 55.7968 32.5746 55.814 32.3326C55.8486 31.9869 55.8659 31.2955 55.8659 30.4657V28.9445C55.8659 27.6135 55.8659 27.3715 55.8486 27.0949C55.8313 26.8011 55.7622 26.6628 55.572 26.6282C55.4683 26.6109 55.3646 26.5936 55.2955 26.5936C55.2609 26.5936 55.2263 26.559 55.2263 26.5245C55.2263 26.4726 55.2609 26.4553 55.3646 26.4553C55.6585 26.4553 56.2116 26.4726 56.2635 26.4726C56.298 26.4726 56.8858 26.4553 57.1451 26.4553C57.2488 26.4553 57.2834 26.4726 57.2834 26.5245C57.2834 26.559 57.2488 26.5936 57.2142 26.5936C57.1451 26.5936 57.0932 26.5936 56.9895 26.6109C56.7475 26.6628 56.6956 26.7838 56.6783 27.0776C56.6611 27.3542 56.6611 27.5962 56.6611 28.9273V30.4657H56.6783Z" fill="white"/>
<path d="M59.0466 32.8512C58.9256 32.7994 58.9083 32.7648 58.9083 32.5228C58.9083 32.0906 58.9428 31.7622 58.9601 31.6066C58.9601 31.5202 58.9774 31.4683 59.0293 31.4683C59.0811 31.4683 59.1157 31.5029 59.1157 31.572C59.1157 31.6412 59.1157 31.7622 59.1503 31.8832C59.2886 32.5055 59.9627 32.7302 60.5504 32.7302C61.432 32.7302 61.8815 32.2289 61.8815 31.5893C61.8815 30.967 61.5531 30.6732 60.7579 30.1027L60.3603 29.7916C59.3923 29.0828 59.0811 28.547 59.0811 27.9592C59.0811 26.9566 59.8763 26.3516 61.0518 26.3516C61.3975 26.3516 61.7605 26.4035 61.9679 26.4553C62.1408 26.4899 62.2099 26.4899 62.2791 26.4899C62.3482 26.4899 62.3655 26.5072 62.3655 26.5418C62.3655 26.5763 62.3309 26.8702 62.3309 27.4579C62.3309 27.5962 62.3136 27.6481 62.2618 27.6481C62.1926 27.6481 62.1926 27.6135 62.1754 27.5444C62.1581 27.4406 62.0889 27.2159 62.0371 27.1122C61.9679 27.0085 61.6913 26.6801 60.8789 26.6801C60.2393 26.6801 59.7034 27.0085 59.7034 27.6135C59.7034 28.1667 59.98 28.4778 60.8616 29.0655L61.1209 29.2384C62.2099 29.9817 62.5729 30.5694 62.5729 31.3127C62.5729 31.814 62.3828 32.3672 61.7432 32.7821C61.3629 33.0241 60.8097 33.0932 60.3257 33.0932C59.9282 33.0759 59.4096 33.0241 59.0466 32.8512Z" fill="white"/>
<path d="M70.3171 30.4657C70.3171 31.2955 70.3344 31.9696 70.369 32.3326C70.4036 32.5919 70.4209 32.7475 70.6974 32.7821C70.8184 32.7994 71.0259 32.8166 71.095 32.8166C71.1469 32.8166 71.1815 32.8512 71.1815 32.8858C71.1815 32.9204 71.1296 32.9549 71.0259 32.9549C70.5419 32.9549 69.9714 32.9204 69.9196 32.9204C69.885 32.9204 69.2973 32.9549 69.038 32.9549C68.9342 32.9549 68.8997 32.9377 68.8997 32.8858C68.8997 32.8512 68.917 32.8166 68.9688 32.8166C69.0553 32.8166 69.159 32.7994 69.2281 32.7821C69.4183 32.7475 69.4356 32.5746 69.4701 32.3153C69.5047 31.9696 69.5047 31.3128 69.5047 30.483V29.6187C69.5047 29.5841 69.4874 29.5668 69.4528 29.5668H65.7536C65.719 29.5668 65.7017 29.5841 65.7017 29.6187V30.483C65.7017 31.3128 65.7017 31.9696 65.7363 32.3153C65.7709 32.5746 65.8055 32.7302 66.0647 32.7648C66.203 32.7821 66.3932 32.7994 66.4623 32.7994C66.5142 32.7994 66.5315 32.8339 66.5315 32.8685C66.5315 32.9031 66.4969 32.9377 66.3932 32.9377C65.8919 32.9377 65.3387 32.9031 65.2869 32.9031C65.235 32.9031 64.6646 32.9377 64.4053 32.9377C64.3188 32.9377 64.267 32.9204 64.267 32.8685C64.267 32.8339 64.2843 32.7994 64.3361 32.7994C64.4226 32.7994 64.5263 32.7821 64.6127 32.7648C64.7856 32.7302 64.8029 32.5574 64.8374 32.3153C64.8893 31.9696 64.8893 31.2782 64.8893 30.4484V28.9273C64.8893 27.5962 64.8893 27.3542 64.872 27.0776C64.8547 26.7838 64.8029 26.6455 64.509 26.6109C64.4398 26.5936 64.2843 26.5936 64.1978 26.5936C64.1633 26.5936 64.1287 26.559 64.1287 26.5245C64.1287 26.4726 64.1633 26.4553 64.267 26.4553C64.6646 26.4553 65.235 26.4726 65.2869 26.4726C65.3214 26.4726 65.8919 26.4553 66.1685 26.4553C66.2722 26.4553 66.3068 26.4726 66.3068 26.5245C66.3068 26.559 66.2722 26.5936 66.2376 26.5936C66.1857 26.5936 66.1166 26.5936 66.0129 26.6109C65.7709 26.6628 65.719 26.7838 65.7017 27.0776C65.6844 27.3542 65.6844 27.6135 65.6844 28.9445V29.1347C65.6844 29.1865 65.7017 29.1865 65.7363 29.1865H69.4356C69.4701 29.1865 69.4874 29.1865 69.4874 29.1347V28.9445C69.4874 27.6135 69.4701 27.3542 69.4701 27.0776C69.4528 26.7838 69.401 26.6455 69.1244 26.6109C69.0553 26.5936 68.8997 26.5936 68.8132 26.5936C68.7787 26.5936 68.7441 26.559 68.7441 26.5245C68.7441 26.4726 68.7787 26.4553 68.8824 26.4553C69.28 26.4553 69.8504 26.4726 69.885 26.4726C69.9368 26.4726 70.5073 26.4553 70.7666 26.4553C70.8703 26.4553 70.9222 26.4726 70.9222 26.5245C70.9222 26.559 70.8876 26.5936 70.8357 26.5936C70.7666 26.5936 70.732 26.5936 70.611 26.6109C70.3863 26.6628 70.3344 26.7838 70.2999 27.0776C70.2826 27.3542 70.2826 27.5962 70.2826 28.9273V30.4657H70.3171Z" fill="white"/>
<path d="M73.2385 28.9618C73.2385 27.6308 73.2385 27.3888 73.2212 27.1122C73.2039 26.8183 73.1521 26.6801 72.8582 26.6455C72.7891 26.6282 72.6335 26.6282 72.5471 26.6282C72.5125 26.6282 72.4779 26.5936 72.4779 26.559C72.4779 26.5072 72.5125 26.4899 72.6162 26.4899C73.0138 26.4899 73.6015 26.5072 73.6534 26.5072C73.7225 26.5072 75.5721 26.5245 75.7796 26.5072C75.9524 26.4899 76.108 26.4726 76.1772 26.4553C76.2117 26.438 76.2636 26.4208 76.2982 26.4208C76.3327 26.4208 76.3327 26.4553 76.3327 26.5072C76.3327 26.559 76.2809 26.6628 76.2636 26.9048C76.2463 26.9912 76.229 27.3715 76.2117 27.4752C76.1945 27.5098 76.1772 27.5616 76.1253 27.5616C76.0734 27.5616 76.0562 27.5271 76.0562 27.4579C76.0562 27.3888 76.0389 27.2505 76.0043 27.1468C75.9352 27.0085 75.8487 26.9393 75.3647 26.8875C75.2091 26.8702 74.1893 26.8529 74.0855 26.8529C74.051 26.8529 74.0337 26.8875 74.0337 26.9393V29.273C74.0337 29.3421 74.0337 29.3594 74.0855 29.3594C74.1893 29.3594 75.3647 29.3594 75.5722 29.3421C75.7796 29.3248 75.9179 29.3076 76.0043 29.2211C76.0734 29.152 76.108 29.1174 76.1426 29.1174C76.1772 29.1174 76.1944 29.1347 76.1944 29.1865C76.1944 29.2384 76.1426 29.3767 76.1253 29.6533C76.108 29.8261 76.0907 30.1546 76.0907 30.2064C76.0907 30.2756 76.0734 30.362 76.0043 30.362C75.9697 30.362 75.9352 30.3274 75.9352 30.2756C75.9352 30.1891 75.9352 30.1027 75.9006 29.999C75.866 29.878 75.7969 29.7743 75.4511 29.7397C75.2091 29.7051 74.2584 29.7051 74.1028 29.7051C74.051 29.7051 74.051 29.7397 74.051 29.7743V30.483C74.051 30.7769 74.0337 31.7795 74.051 31.9523C74.0682 32.5228 74.2411 32.6438 75.1054 32.6438C75.3301 32.6438 75.7623 32.6438 75.987 32.5574C76.2117 32.4536 76.3327 32.2981 76.3846 31.9696C76.4019 31.8659 76.4192 31.8313 76.471 31.8313C76.5229 31.8313 76.5402 31.9005 76.5402 31.9696C76.5402 32.0388 76.471 32.6092 76.4192 32.7994C76.35 33.0241 76.2636 33.0241 75.9179 33.0241C75.2437 33.0241 74.7424 33.0068 74.3794 32.9895C73.9991 32.9722 73.7744 32.9722 73.6361 32.9722C73.6188 32.9722 73.4459 32.9722 73.2558 32.9895C73.0829 33.0068 72.8755 33.0068 72.7372 33.0068C72.6508 33.0068 72.5989 32.9895 72.5989 32.9377C72.5989 32.9031 72.6162 32.8685 72.6681 32.8685C72.7545 32.8685 72.8582 32.8339 72.9446 32.8339C73.1175 32.7994 73.1348 32.6265 73.1694 32.3845C73.2212 32.0388 73.2212 31.3473 73.2212 30.5176V28.9618H73.2385Z" fill="white"/>
<path d="M78.8047 28.9618C78.8047 27.6308 78.8047 27.3888 78.7874 27.1122C78.7701 26.8183 78.7182 26.6801 78.4244 26.6455C78.3552 26.6282 78.1996 26.6282 78.1132 26.6282C78.0786 26.6282 78.0441 26.5936 78.0441 26.559C78.0441 26.5072 78.0786 26.4899 78.1824 26.4899C78.5799 26.4899 79.185 26.5072 79.2368 26.5072C79.3232 26.5072 80.0838 26.4899 80.3431 26.4899C80.9136 26.4899 81.5359 26.5418 82.0026 26.8702C82.2273 27.0258 82.6249 27.4406 82.6249 28.0457C82.6249 28.6853 82.3656 29.2903 81.5359 29.999C82.2619 30.9152 82.8842 31.693 83.4028 32.2289C83.8695 32.7129 84.1634 32.7994 84.3881 32.8166C84.561 32.8512 84.6474 32.8512 84.6992 32.8512C84.7511 32.8512 84.7857 32.8858 84.7857 32.9204C84.7857 32.9722 84.7338 32.9895 84.5782 32.9895H84.0078C83.5065 32.9895 83.2818 32.9377 83.0571 32.8166C82.6768 32.6092 82.3483 32.1943 81.847 31.5548C81.4667 31.088 81.0864 30.5349 80.879 30.3102C80.8444 30.2756 80.8271 30.2583 80.758 30.2583L79.6344 30.241C79.5998 30.241 79.5653 30.2583 79.5653 30.3102V30.5176C79.5653 31.3473 79.5653 32.0042 79.5998 32.3672C79.6344 32.6265 79.6863 32.7821 79.9455 32.8166C80.0666 32.8339 80.2567 32.8512 80.3431 32.8512C80.4123 32.8512 80.4123 32.8858 80.4123 32.9204C80.4123 32.9549 80.3777 32.9895 80.274 32.9895C79.79 32.9895 79.2195 32.9549 79.185 32.9549C79.1677 32.9549 78.5799 32.9895 78.3034 32.9895C78.2169 32.9895 78.1651 32.9722 78.1651 32.9204C78.1651 32.8858 78.1824 32.8512 78.2342 32.8512C78.3206 32.8512 78.4244 32.8339 78.5108 32.8166C78.6837 32.7821 78.7009 32.6092 78.7355 32.3672C78.7874 32.0215 78.7874 31.33 78.7874 30.5003V28.9618H78.8047ZM79.5825 29.6878C79.5825 29.7397 79.5998 29.7743 79.6517 29.7916C79.79 29.8607 80.2394 29.9299 80.637 29.9299C80.8444 29.9299 81.0864 29.9126 81.3112 29.7743C81.6223 29.5668 81.847 29.1174 81.847 28.4605C81.847 27.3888 81.2593 26.7665 80.3086 26.7665C80.0493 26.7665 79.7554 26.8011 79.669 26.8183C79.6344 26.8356 79.5998 26.8702 79.5998 26.9221V29.6878H79.5825Z" fill="white"/>
<path d="M87.1366 32.0215C86.1513 31.1399 85.9093 29.999 85.9093 29.031C85.9093 28.3568 86.134 27.1641 87.0329 26.2652C87.6379 25.6602 88.5541 25.1762 90.1098 25.1762C90.5074 25.1762 91.0779 25.2107 91.5791 25.2972C91.9594 25.3663 92.2879 25.4354 92.6163 25.4527C92.72 25.47 92.7546 25.5046 92.7546 25.5565C92.7546 25.6429 92.72 25.7639 92.7028 26.1269C92.6855 26.4553 92.6855 27.0085 92.6682 27.1641C92.6509 27.3196 92.6336 27.3715 92.5817 27.3715C92.5126 27.3715 92.4953 27.3024 92.4953 27.1641C92.4953 26.7665 92.3397 26.3516 92.0632 26.1269C91.7174 25.8157 90.9396 25.5565 90.0407 25.5565C88.6924 25.5565 88.0701 25.954 87.7243 26.2998C86.981 27.0085 86.8082 27.9074 86.8082 28.9445C86.8082 30.8806 88.2948 32.6438 90.4555 32.6438C91.2161 32.6438 91.8039 32.5574 92.2187 32.1425C92.4262 31.9178 92.5645 31.4683 92.599 31.2955C92.6163 31.1917 92.6336 31.1399 92.7028 31.1399C92.7546 31.1399 92.7719 31.209 92.7719 31.2955C92.7719 31.3646 92.6509 32.2462 92.5472 32.5919C92.478 32.7821 92.4607 32.7994 92.2879 32.8858C91.8903 33.0414 91.1124 33.1105 90.4728 33.1105C88.9689 33.1105 87.9491 32.7302 87.1366 32.0215Z" fill="white"/>
<path d="M94.9672 28.9618C94.9672 27.6308 94.9672 27.3888 94.95 27.1122C94.9327 26.8183 94.8808 26.6801 94.587 26.6455C94.5178 26.6282 94.3622 26.6282 94.2758 26.6282C94.2412 26.6282 94.2066 26.5936 94.2066 26.559C94.2066 26.5072 94.2412 26.4899 94.3449 26.4899C94.7425 26.4899 95.3303 26.5072 95.3821 26.5072C95.4513 26.5072 97.3009 26.5245 97.5083 26.5072C97.6812 26.4899 97.8367 26.4726 97.9059 26.4553C97.9405 26.438 97.9923 26.4208 98.0269 26.4208C98.0615 26.4208 98.0615 26.4553 98.0615 26.5072C98.0615 26.5763 98.0096 26.6628 97.9923 26.9048C97.975 26.9912 97.9578 27.3715 97.9405 27.4752C97.9232 27.5098 97.9059 27.5616 97.854 27.5616C97.8022 27.5616 97.7849 27.5271 97.7849 27.4579C97.7849 27.3888 97.7676 27.2505 97.733 27.1468C97.6639 27.0085 97.5775 26.9393 97.0934 26.8875C96.9379 26.8702 95.918 26.8529 95.8143 26.8529C95.7797 26.8529 95.7624 26.8875 95.7624 26.9393V29.273C95.7624 29.3421 95.7624 29.3594 95.8143 29.3594C95.918 29.3594 97.0934 29.3594 97.3009 29.3421C97.5083 29.3248 97.6466 29.3076 97.733 29.2211C97.8022 29.152 97.8368 29.1174 97.8713 29.1174C97.9059 29.1174 97.9232 29.1347 97.9232 29.1865C97.9232 29.2384 97.8713 29.3767 97.854 29.6533C97.8368 29.8261 97.8195 30.1546 97.8195 30.2064C97.8195 30.2756 97.8022 30.362 97.733 30.362C97.6985 30.362 97.6639 30.3274 97.6639 30.2756C97.6639 30.1891 97.6639 30.1027 97.6293 29.999C97.5947 29.878 97.5256 29.7743 97.1799 29.7397C96.9379 29.7051 95.9871 29.7051 95.8316 29.7051C95.7797 29.7051 95.7624 29.7397 95.7624 29.7743V30.483C95.7624 30.7769 95.7451 31.7795 95.7624 31.9523C95.7797 32.5228 95.9526 32.6438 96.8169 32.6438C97.0416 32.6438 97.4737 32.6438 97.6985 32.5574C97.9232 32.4536 98.0442 32.2981 98.096 31.9696C98.1133 31.8659 98.1306 31.8313 98.1825 31.8313C98.2343 31.8313 98.2343 31.9005 98.2343 31.9696C98.2343 32.0388 98.1652 32.6092 98.1133 32.7994C98.0442 33.0241 97.9578 33.0241 97.612 33.0241C96.9379 33.0241 96.4366 33.0068 96.0736 32.9895C95.6933 32.9722 95.4685 32.9722 95.3303 32.9722C95.313 32.9722 95.1401 32.9722 94.95 32.9895C94.7771 33.0068 94.5697 33.0068 94.4314 33.0068C94.3449 33.0068 94.2931 32.9895 94.2931 32.9377C94.2931 32.9031 94.3104 32.8685 94.3622 32.8685C94.4487 32.8685 94.5524 32.8339 94.6388 32.8339C94.8117 32.7994 94.8289 32.6265 94.8635 32.3845C94.9154 32.0388 94.9154 31.3473 94.9154 30.5176V28.9618H94.9672Z" fill="white"/>
<path d="M100.914 31.7968C100.931 32.5055 101.017 32.7129 101.259 32.7821C101.415 32.8166 101.622 32.8339 101.709 32.8339C101.743 32.8339 101.778 32.8685 101.778 32.9031C101.778 32.9549 101.709 32.9722 101.622 32.9722C101.121 32.9722 100.758 32.9377 100.689 32.9377C100.62 32.9377 100.24 32.9722 99.8247 32.9722C99.7382 32.9722 99.6864 32.9549 99.6864 32.9031C99.6864 32.8685 99.7209 32.8339 99.7555 32.8339C99.8247 32.8339 99.9802 32.8166 100.119 32.7821C100.343 32.7129 100.378 32.4882 100.378 31.7103V26.7838C100.378 26.438 100.43 26.3516 100.499 26.3516C100.603 26.3516 100.758 26.5245 100.845 26.6109C100.983 26.7492 102.279 28.1321 103.645 29.5323C104.526 30.4484 105.477 31.4683 105.754 31.7449L105.667 27.4406C105.65 26.8875 105.616 26.6973 105.339 26.6455C105.183 26.6109 104.976 26.6109 104.907 26.6109C104.838 26.6109 104.838 26.559 104.838 26.5245C104.838 26.4726 104.907 26.4553 105.011 26.4553C105.408 26.4553 105.84 26.4726 105.944 26.4726C106.048 26.4726 106.342 26.4553 106.705 26.4553C106.791 26.4553 106.86 26.4726 106.86 26.5245C106.86 26.559 106.826 26.6109 106.756 26.6109C106.722 26.6109 106.653 26.6109 106.549 26.6282C106.255 26.6973 106.238 26.8529 106.238 27.3715L106.221 32.4018C106.221 32.9722 106.203 33.0241 106.151 33.0241C106.065 33.0241 105.961 32.9549 105.477 32.5055C105.391 32.4191 104.112 31.1572 103.161 30.1891C102.124 29.1001 101.138 28.0629 100.862 27.7518L100.914 31.7968Z" fill="white"/>
<path d="M110.888 30.4657C110.888 31.2955 110.888 31.9696 110.922 32.3326C110.957 32.5919 110.992 32.7475 111.268 32.7821C111.389 32.7994 111.597 32.8166 111.666 32.8166C111.718 32.8166 111.735 32.8512 111.735 32.8858C111.735 32.9204 111.7 32.9549 111.597 32.9549C111.113 32.9549 110.542 32.9204 110.49 32.9204C110.456 32.9204 109.833 32.9549 109.574 32.9549C109.47 32.9549 109.436 32.9377 109.436 32.8858C109.436 32.8512 109.453 32.8166 109.505 32.8166C109.591 32.8166 109.695 32.7994 109.764 32.7821C109.937 32.7475 109.989 32.5746 110.024 32.3153C110.058 31.9696 110.058 31.2782 110.058 30.4484V26.8702L108.779 26.8875C108.226 26.9048 108.018 26.9566 107.88 27.1641C107.776 27.3196 107.776 27.3715 107.742 27.4406C107.724 27.5098 107.69 27.5271 107.655 27.5271C107.638 27.5271 107.586 27.5098 107.586 27.4579C107.586 27.3715 107.776 26.5936 107.776 26.5245C107.794 26.4726 107.845 26.3689 107.863 26.3689C107.932 26.3689 108.018 26.438 108.26 26.4726C108.52 26.5072 108.865 26.5072 108.952 26.5072H112.305C112.599 26.5072 112.807 26.4899 112.945 26.4726C113.083 26.4553 113.152 26.438 113.204 26.438C113.239 26.438 113.239 26.4899 113.239 26.5418C113.239 26.8011 113.204 27.4234 113.204 27.5271C113.204 27.5962 113.17 27.6308 113.118 27.6308C113.083 27.6308 113.049 27.5962 113.049 27.4752L113.031 27.3888C112.997 27.1295 112.807 26.9393 111.96 26.9221L110.853 26.9048V30.4657H110.888Z" fill="white"/>
<path d="M115.106 28.9618C115.106 27.6308 115.106 27.3888 115.088 27.1122C115.071 26.8183 115.019 26.6801 114.725 26.6455C114.656 26.6282 114.501 26.6282 114.414 26.6282C114.38 26.6282 114.345 26.5936 114.345 26.559C114.345 26.5072 114.38 26.4899 114.483 26.4899C114.881 26.4899 115.469 26.5072 115.521 26.5072C115.572 26.5072 117.439 26.5245 117.647 26.5072C117.82 26.4899 117.975 26.4726 118.044 26.4553C118.079 26.438 118.131 26.4208 118.165 26.4208C118.2 26.4208 118.2 26.4553 118.2 26.5072C118.2 26.5763 118.148 26.6628 118.131 26.9048C118.113 26.9912 118.096 27.3715 118.079 27.4752C118.062 27.5098 118.044 27.5616 117.992 27.5616C117.941 27.5616 117.923 27.5271 117.923 27.4579C117.923 27.3888 117.906 27.2505 117.871 27.1468C117.82 27.0085 117.716 26.9393 117.232 26.8875C117.076 26.8702 116.056 26.8529 115.953 26.8529C115.918 26.8529 115.901 26.8875 115.901 26.9393V29.273C115.901 29.3421 115.901 29.3594 115.953 29.3594C116.056 29.3594 117.232 29.3594 117.439 29.3421C117.647 29.3248 117.785 29.3076 117.871 29.2211C117.941 29.152 117.975 29.1174 118.01 29.1174C118.044 29.1174 118.062 29.1347 118.062 29.1865C118.062 29.2384 118.01 29.3767 117.992 29.6533C117.975 29.8261 117.958 30.1546 117.958 30.2064C117.958 30.2756 117.941 30.362 117.871 30.362C117.837 30.362 117.802 30.3274 117.802 30.2756C117.802 30.1891 117.802 30.1027 117.768 29.999C117.733 29.878 117.664 29.7743 117.318 29.7397C117.076 29.7051 116.126 29.7051 115.97 29.7051C115.918 29.7051 115.918 29.7397 115.918 29.7743V30.483C115.918 30.7769 115.901 31.7795 115.918 31.9523C115.935 32.5228 116.108 32.6438 116.973 32.6438C117.197 32.6438 117.629 32.6438 117.854 32.5574C118.079 32.4536 118.2 32.2981 118.252 31.9696C118.269 31.8659 118.286 31.8313 118.338 31.8313C118.39 31.8313 118.39 31.9005 118.39 31.9696C118.39 32.0388 118.321 32.6092 118.269 32.7994C118.2 33.0241 118.113 33.0241 117.768 33.0241C117.094 33.0241 116.592 33.0068 116.229 32.9895C115.849 32.9722 115.624 32.9722 115.486 32.9722C115.469 32.9722 115.296 32.9722 115.106 32.9895C114.933 33.0068 114.725 33.0068 114.587 33.0068C114.501 33.0068 114.449 32.9895 114.449 32.9377C114.449 32.9031 114.466 32.8685 114.518 32.8685C114.604 32.8685 114.708 32.8339 114.794 32.8339C114.967 32.7994 114.985 32.6265 115.019 32.3845C115.071 32.0388 115.071 31.3473 115.071 30.5176V28.9618H115.106Z" fill="white"/>
<path d="M120.672 28.9618C120.672 27.6308 120.672 27.3888 120.655 27.1122C120.637 26.8183 120.585 26.6801 120.291 26.6455C120.222 26.6282 120.067 26.6282 119.98 26.6282C119.946 26.6282 119.911 26.5936 119.911 26.559C119.911 26.5072 119.946 26.4899 120.049 26.4899C120.447 26.4899 121.052 26.5072 121.104 26.5072C121.19 26.5072 121.951 26.4899 122.21 26.4899C122.781 26.4899 123.403 26.5418 123.87 26.8702C124.094 27.0258 124.492 27.4406 124.492 28.0457C124.492 28.6853 124.233 29.2903 123.403 29.999C124.129 30.9152 124.751 31.693 125.27 32.2289C125.737 32.7129 126.031 32.7994 126.255 32.8166C126.428 32.8512 126.515 32.8512 126.566 32.8512C126.618 32.8512 126.653 32.8858 126.653 32.9204C126.653 32.9722 126.601 32.9895 126.445 32.9895H125.892C125.391 32.9895 125.166 32.9377 124.941 32.8166C124.561 32.6092 124.233 32.1943 123.731 31.5548C123.351 31.088 122.971 30.5349 122.781 30.3102C122.746 30.2756 122.712 30.2583 122.66 30.2583L121.536 30.241C121.502 30.241 121.467 30.2583 121.467 30.3102V30.5176C121.467 31.3473 121.467 32.0042 121.502 32.3672C121.536 32.6265 121.588 32.7821 121.847 32.8166C121.968 32.8339 122.158 32.8512 122.245 32.8512C122.314 32.8512 122.314 32.8858 122.314 32.9204C122.314 32.9549 122.279 32.9895 122.176 32.9895C121.692 32.9895 121.121 32.9549 121.087 32.9549C121.069 32.9549 120.482 32.9895 120.205 32.9895C120.119 32.9895 120.067 32.9722 120.067 32.9204C120.067 32.8858 120.084 32.8512 120.136 32.8512C120.222 32.8512 120.326 32.8339 120.412 32.8166C120.585 32.7821 120.603 32.6092 120.637 32.3672C120.689 32.0215 120.689 31.33 120.689 30.5003V28.9618H120.672ZM121.45 29.6878C121.45 29.7397 121.467 29.7743 121.519 29.7916C121.657 29.8607 122.107 29.9299 122.504 29.9299C122.712 29.9299 122.954 29.9126 123.178 29.7743C123.489 29.5668 123.714 29.1174 123.714 28.4605C123.714 27.3888 123.126 26.7665 122.176 26.7665C121.916 26.7665 121.623 26.8011 121.536 26.8183C121.502 26.8356 121.467 26.8702 121.467 26.9221V29.6878H121.45Z" fill="white"/>
<path d="M129.298 28.9618C129.298 27.6135 129.298 27.3715 129.28 27.0949C129.263 26.8011 129.211 26.6628 128.917 26.6109C128.848 26.5936 128.693 26.5936 128.606 26.5936C128.572 26.5936 128.537 26.559 128.537 26.5245C128.537 26.4726 128.572 26.4553 128.675 26.4553C129.09 26.4553 129.643 26.4726 129.695 26.4726C129.868 26.4726 131.821 26.4899 132.029 26.4726C132.202 26.4553 132.357 26.4553 132.444 26.438C132.496 26.4208 132.53 26.3862 132.565 26.3862C132.599 26.3862 132.634 26.4208 132.634 26.4726C132.634 26.5418 132.599 26.6282 132.565 26.8875C132.547 26.9739 132.547 27.3542 132.53 27.4579C132.513 27.4925 132.496 27.5444 132.444 27.5444C132.409 27.5444 132.375 27.5098 132.375 27.4406C132.375 27.3715 132.34 27.2332 132.288 27.1122C132.236 27.0085 132.029 26.8529 131.683 26.8529L130.214 26.8356C130.162 26.8356 130.145 26.8529 130.145 26.9221V29.2903C130.145 29.3421 130.145 29.3767 130.214 29.3767L131.441 29.3594C131.597 29.3594 131.735 29.3594 131.856 29.3421C132.063 29.3248 132.184 29.2903 132.271 29.1865C132.305 29.1347 132.357 29.1001 132.392 29.1001C132.426 29.1001 132.444 29.1347 132.444 29.1693C132.444 29.2211 132.375 29.3594 132.357 29.6533C132.34 29.8261 132.323 30.1719 132.323 30.241C132.323 30.3274 132.305 30.4139 132.236 30.4139C132.184 30.4139 132.167 30.3793 132.167 30.3274C132.15 30.241 132.15 30.12 132.098 30.0163C132.063 29.8953 131.908 29.7743 131.631 29.7397C131.407 29.7051 130.352 29.7224 130.196 29.7224C130.145 29.7224 130.127 29.7397 130.127 29.8089V30.5003C130.127 31.3646 130.127 32.0388 130.162 32.3845C130.196 32.6438 130.248 32.7994 130.49 32.8512C130.629 32.8685 130.819 32.8858 130.905 32.8858C130.957 32.8858 130.974 32.9204 130.974 32.9549C130.974 32.9895 130.94 33.0241 130.836 33.0241C130.335 33.0241 129.747 32.9895 129.712 32.9895C129.661 32.9895 129.107 33.0241 128.831 33.0241C128.744 33.0241 128.693 33.0068 128.693 32.9549C128.693 32.9204 128.71 32.8858 128.762 32.8858C128.848 32.8858 128.952 32.8512 129.038 32.8512C129.211 32.8166 129.228 32.6438 129.28 32.3845C129.332 32.0215 129.332 31.3473 129.332 30.5003V28.9618H129.298Z" fill="white"/>
<path d="M137.301 26.3343C139.324 26.3343 140.845 27.5616 140.845 29.5841C140.845 31.5202 139.41 33.1278 137.249 33.1278C134.795 33.1278 133.74 31.2782 133.74 29.7224C133.74 28.3222 134.829 26.3343 137.301 26.3343ZM137.509 32.7648C138.321 32.7648 139.929 32.3326 139.929 29.8261C139.929 27.7518 138.667 26.6455 137.249 26.6455C135.745 26.6455 134.674 27.5789 134.674 29.4631C134.674 31.5029 135.884 32.7648 137.509 32.7648Z" fill="white"/>
<path d="M142.729 28.9618C142.729 27.6135 142.729 27.3715 142.712 27.0949C142.694 26.8011 142.643 26.6628 142.349 26.6109C142.28 26.5936 142.124 26.5936 142.038 26.5936C142.003 26.5936 141.968 26.559 141.968 26.5245C141.968 26.4726 142.003 26.4553 142.107 26.4553C142.522 26.4553 143.109 26.4726 143.161 26.4726C143.248 26.4726 144.008 26.4553 144.285 26.4553C144.855 26.4553 145.495 26.5072 145.961 26.8356C146.186 26.9912 146.584 27.4234 146.584 28.0111C146.584 28.6507 146.324 29.273 145.477 29.9817C146.203 30.8979 146.826 31.693 147.362 32.2289C147.846 32.7129 148.14 32.7994 148.364 32.8339C148.537 32.8685 148.624 32.8685 148.675 32.8685C148.727 32.8685 148.762 32.9031 148.762 32.9377C148.762 32.9895 148.71 33.0068 148.554 33.0068H148.001C147.5 33.0068 147.275 32.9549 147.051 32.8339C146.67 32.6265 146.342 32.2116 145.823 31.5548C145.443 31.088 145.045 30.5176 144.855 30.2929C144.821 30.2583 144.786 30.241 144.734 30.241L143.593 30.2237C143.559 30.2237 143.524 30.241 143.524 30.2929V30.5003C143.524 31.33 143.524 32.0042 143.559 32.3672C143.593 32.6265 143.645 32.7821 143.922 32.8339C144.043 32.8512 144.233 32.8685 144.319 32.8685C144.388 32.8685 144.388 32.9031 144.388 32.9377C144.388 32.9722 144.354 33.0068 144.25 33.0068C143.766 33.0068 143.196 32.9722 143.144 32.9722C143.127 32.9722 142.539 33.0068 142.262 33.0068C142.176 33.0068 142.124 32.9895 142.124 32.9377C142.124 32.9031 142.141 32.8685 142.193 32.8685C142.28 32.8685 142.383 32.8512 142.47 32.8339C142.643 32.7994 142.66 32.6265 142.712 32.3672C142.764 32.0042 142.764 31.33 142.764 30.483V28.9618H142.729ZM143.507 29.7051C143.507 29.757 143.524 29.7916 143.576 29.8089C143.714 29.878 144.164 29.9471 144.561 29.9471C144.769 29.9471 145.028 29.9299 145.235 29.7916C145.547 29.5841 145.771 29.1347 145.771 28.4605C145.771 27.3715 145.184 26.7492 144.216 26.7492C143.956 26.7492 143.662 26.7838 143.576 26.8011C143.541 26.8183 143.507 26.8529 143.507 26.9048V29.7051Z" fill="white"/>
<path d="M28.5537 23.171C28.7784 23.1364 28.9167 22.929 28.8821 22.7043C28.8476 22.4795 28.6401 22.3413 28.4154 22.3758C28.1907 22.4104 28.0524 22.6178 28.087 22.8426C28.1215 23.0673 28.329 23.2056 28.5537 23.171Z" fill="white"/>
<path d="M27.0844 33.1624C26.6522 33.2316 26.3411 33.6464 26.4275 34.0959C26.4966 34.528 26.9115 34.8392 27.361 34.7527C27.7931 34.6836 28.1043 34.2687 28.0178 33.8193C27.9487 33.3871 27.5338 33.0933 27.0844 33.1624Z" fill="white"/>
<path d="M24.9063 34.0267C24.4742 34.0959 24.163 34.5107 24.2494 34.9602C24.3186 35.3923 24.7335 35.7035 25.1829 35.617C25.615 35.5479 25.9262 35.133 25.8398 34.6836C25.7706 34.2514 25.3558 33.9576 24.9063 34.0267Z" fill="white"/>
<path d="M26.7041 30.6732C27.0844 30.6041 27.3437 30.241 27.2918 29.8607C27.2227 29.4804 26.8597 29.2212 26.4794 29.273C26.0991 29.3422 25.8398 29.7052 25.8916 30.0855C25.9435 30.4658 26.3065 30.7251 26.7041 30.6732Z" fill="white"/>
<path d="M26.4448 22.2375C26.6695 22.203 26.8078 21.9955 26.7732 21.7708C26.7387 21.5461 26.5312 21.4078 26.3065 21.4424C26.0818 21.4769 25.9435 21.6844 25.9781 21.9091C26.0299 22.1338 26.2374 22.2721 26.4448 22.2375Z" fill="white"/>
<path d="M28.5191 32.6265C28.5883 33.0414 28.9859 33.3353 29.4007 33.2661C29.8156 33.197 30.1095 32.7994 30.0403 32.3845C29.9712 31.9697 29.5736 31.6758 29.1587 31.7449C28.7266 31.8141 28.45 32.2117 28.5191 32.6265Z" fill="white"/>
<path d="M31.2676 28.2186C31.0256 28.2531 30.8528 28.4951 30.8873 28.7371C30.9219 28.9792 31.1639 29.152 31.4059 29.1174C31.6479 29.0829 31.8208 28.8409 31.7862 28.5989C31.7344 28.3396 31.5096 28.1667 31.2676 28.2186Z" fill="white"/>
<path d="M20.2736 34.4243C19.8415 34.4934 19.5303 34.9083 19.6167 35.3578C19.6859 35.7899 20.1008 36.1011 20.5502 36.0146C20.9824 35.9455 21.2935 35.5306 21.2071 35.0812C21.1379 34.649 20.7231 34.3552 20.2736 34.4243Z" fill="white"/>
<path d="M22.6073 34.528C22.1751 34.5972 21.8639 35.012 21.9504 35.4615C22.0195 35.8936 22.4344 36.2048 22.8838 36.1183C23.316 36.0492 23.6271 35.6343 23.5407 35.1849C23.4543 34.7527 23.0394 34.4589 22.6073 34.528Z" fill="white"/>
<path d="M30.1959 24.744C30.4206 24.7095 30.5589 24.502 30.5243 24.2773C30.4898 24.0526 30.2823 23.9143 30.0576 23.9489C29.8329 23.9834 29.6946 24.1909 29.7292 24.4156C29.781 24.623 29.9885 24.7786 30.1959 24.744Z" fill="white"/>
<path d="M30.1267 30.8288C30.1786 31.1399 30.4725 31.3474 30.7836 31.2955C31.0948 31.2436 31.3022 30.9498 31.2503 30.6386C31.1985 30.3275 30.9046 30.12 30.5935 30.1719C30.2823 30.2238 30.0749 30.5176 30.1267 30.8288Z" fill="white"/>
<path d="M31.2158 26.8702C31.4578 26.8357 31.6306 26.5937 31.5961 26.3517C31.5615 26.1096 31.3195 25.9368 31.0775 25.9714C30.8355 26.0059 30.6626 26.2479 30.6972 26.4899C30.7318 26.7492 30.9738 26.9221 31.2158 26.8702Z" fill="white"/>
<path d="M17.2831 24.865C17.5251 24.8305 17.698 24.5885 17.6634 24.3465C17.6288 24.1044 17.3868 23.9316 17.1448 23.9662C16.9028 24.0007 16.73 24.2427 16.7645 24.4847C16.7991 24.744 17.0411 24.9169 17.2831 24.865Z" fill="white"/>
<path d="M19.2883 22.808C19.2537 22.5833 19.0463 22.445 18.8216 22.4795C18.5969 22.5141 18.4586 22.7216 18.4931 22.9463C18.5277 23.171 18.7351 23.3093 18.9599 23.2747C19.1846 23.2229 19.3229 23.0154 19.2883 22.808Z" fill="white"/>
<path d="M23.8519 21.9437C24.0766 21.9091 24.2149 21.7017 24.1803 21.4769C24.1457 21.2522 23.9383 21.1139 23.7136 21.1485C23.4888 21.1831 23.3506 21.3905 23.3851 21.6152C23.437 21.84 23.6444 21.9955 23.8519 21.9437Z" fill="white"/>
<path d="M22.4171 32.3672C22.4863 32.3845 22.5727 32.3845 22.6591 32.3672C23.0913 32.2981 23.4024 31.8832 23.316 31.4338C23.2468 31.0189 22.8665 30.7423 22.4517 30.7596C22.4344 30.7596 22.3998 30.7596 22.3825 30.7596C21.9504 30.8288 21.6392 31.2436 21.7257 31.6931C21.7948 32.0734 22.0714 32.3327 22.4171 32.3672Z" fill="white"/>
<path d="M23.9901 31.1745C23.9901 31.6067 24.3359 31.9351 24.768 31.9351C25.1656 31.9351 25.4768 31.6412 25.5286 31.2609C25.5286 31.2264 25.5459 31.1918 25.5459 31.1572C25.5459 30.7251 25.2002 30.3793 24.768 30.3793C24.3359 30.3966 23.9901 30.7423 23.9901 31.1745C23.9901 31.1572 23.9901 31.1572 23.9901 31.1745Z" fill="white"/>
<path d="M21.1725 22.2721C21.3972 22.2375 21.5355 22.0301 21.5009 21.8054C21.4664 21.5807 21.2589 21.4424 21.0342 21.4769C20.8095 21.5115 20.6712 21.719 20.7058 21.9437C20.7576 22.1684 20.9651 22.3067 21.1725 22.2721Z" fill="white"/>
<path fill-rule="evenodd" clip-rule="evenodd" d="M32.6678 64.5541C32.6332 67.8385 31.7862 72.4885 27.4128 73.7331L34.0334 72.5922C34.5001 70.1894 34.7076 67.7175 34.5174 65.1591C34.3273 62.3761 33.6531 60.0424 32.4777 56.6716C32.0628 55.4962 31.5269 54.338 30.9911 53.2144L30.9804 53.1919C30.2576 51.6602 29.5026 50.0603 29.1241 48.4261C28.7957 47.0605 29.0204 46.6283 29.1241 46.5073C29.176 46.4555 29.2624 46.3863 29.5044 46.4036C29.9943 46.4543 30.5172 46.7856 31.0247 47.1072L31.0602 47.1296L31.1333 47.1744C31.4151 47.3469 31.6711 47.5036 31.9418 47.6309C33.342 48.2878 34.4483 48.3742 35.3126 47.8729C35.9871 47.4851 36.1517 46.7519 36.3037 46.0743L36.3152 46.0233C36.4016 45.643 36.4881 45.2627 36.6436 44.9862C36.7128 44.8652 36.8511 44.8133 37.0931 44.7614L37.1273 44.7521C37.3079 44.7031 37.502 44.6505 37.6808 44.5367C37.871 44.4157 37.992 44.2083 38.0265 43.9663C38.0438 43.8971 38.0438 43.828 38.0438 43.7588C38.0438 43.4823 37.9747 43.1711 37.871 42.8772C38.3895 42.7908 38.9081 42.6352 39.323 42.3068C39.4094 42.2549 39.444 42.1685 39.444 42.0821C39.444 42.0475 39.444 42.0302 39.4267 41.9956L39.3921 41.8919C39.3403 41.7536 39.323 41.5981 39.323 41.4425C39.323 41.2005 39.3748 40.9585 39.4786 40.751C39.6514 40.388 39.9626 40.3016 40.4639 40.1806C40.8615 40.0942 41.3109 39.9904 41.6393 39.6274C41.8122 39.4373 41.8813 39.1953 41.8813 38.9187C41.8813 38.1754 41.3801 37.2074 41.017 36.5851L40.8269 36.2739C40.3256 35.4442 39.8589 34.6663 39.4786 33.802C39.3921 33.5946 39.3403 33.3526 39.3403 33.1105C39.3403 32.8685 39.4094 32.6438 39.5477 32.5055C40.17 31.9178 40.4812 31.1399 40.4812 30.2065V30.0163V29.999C40.4812 29.999 40.3947 29.2557 40.3083 28.4951C40.291 28.2704 40.2737 28.0457 40.2392 27.821C40.2219 27.5444 40.1873 27.2505 40.1354 27.0258C40.1354 26.9912 40.1182 26.9567 40.1009 26.9394C38.9773 21.7535 33.9297 18.5729 26.0991 18.279C19.15 18.0197 12.3738 21.9437 11.5441 26.6801C11.5441 26.6887 11.5398 26.7017 11.5355 26.7147C11.5311 26.7276 11.5268 26.7406 11.5268 26.7492V26.7838C11.5095 26.8011 11.5095 26.8184 11.5095 26.8357V26.8702V26.9048C11.4922 26.9221 11.4922 26.9394 11.4922 26.9567V26.974V26.9912V27.0258C11.475 27.0431 11.475 27.0604 11.475 27.0777V27.1122V27.1468C11.4577 27.1641 11.4577 27.1814 11.4577 27.1987V27.216V27.2332C11.4404 27.2505 11.4404 27.2678 11.4404 27.2851V27.337C11.4231 27.3542 11.4231 27.3715 11.4231 27.3888V27.4234V27.458C11.4058 27.4753 11.4058 27.4925 11.4058 27.5098V27.5617C11.3885 27.579 11.3885 27.5963 11.3885 27.6135C11.3712 27.6481 11.3712 27.6654 11.3712 27.7C11.3712 27.7086 11.3669 27.7216 11.3626 27.7345C11.3583 27.7475 11.3539 27.7605 11.3539 27.7691C11.3539 27.795 11.3496 27.8253 11.3453 27.8555C11.341 27.8858 11.3367 27.916 11.3367 27.942C11.3194 27.9593 11.3194 27.9593 11.3194 27.9766C11.0428 29.4805 11.475 31.0016 12.564 32.35C13.7222 33.8193 15.5372 34.9429 17.6807 35.6343L17.688 35.6357C17.8948 35.6734 18.8589 35.8493 19.0809 35.0639C19.2537 34.4416 18.8389 34.1304 18.5623 33.9921C16.3324 33.3526 14.4655 32.2462 13.29 30.7769C13.2381 30.7251 13.1863 30.6559 13.1344 30.5868C12.3047 29.4113 11.959 28.1494 12.1664 26.8875C12.5121 24.8305 14.1889 22.7561 16.7818 21.2349C19.4957 19.6273 22.8147 18.8149 26.1336 18.9359C30.1613 19.0915 33.5321 20.0595 35.9003 21.7017C37.9401 23.1537 39.1847 25.0552 39.5996 27.3888C39.6298 27.5703 39.6601 27.8445 39.6903 28.1186L39.6943 28.155L39.7033 28.2358C39.7206 28.4433 39.7206 28.6507 39.7206 28.8409C39.7206 29.0483 39.7206 29.2384 39.7033 29.394C39.6687 29.757 39.444 30.2929 39.2366 30.6213C39.1588 30.738 39.081 30.8255 39.0032 30.9131C38.9773 30.9422 38.9513 30.9714 38.9254 31.0016L38.9205 31.0071C38.7662 31.1785 38.5959 31.3677 38.4933 31.6585C38.4414 31.8487 38.4068 32.0561 38.4068 32.2635C38.4068 33.3007 39.0291 34.528 39.3403 35.0812L39.3921 35.1676C39.8762 36.0319 40.3083 36.7752 40.8269 37.605C40.8615 37.6568 40.9133 37.7778 40.9479 37.8815C40.9479 37.9075 40.9522 37.9291 40.9565 37.9507C40.9609 37.9723 40.9652 37.9939 40.9652 38.0198C40.9652 38.1408 40.9306 38.2618 40.8615 38.3656C40.7577 38.5384 40.4293 38.5903 40.17 38.6248L40.0144 38.6594C39.444 38.7631 38.9773 39.0743 38.6661 39.5583C38.4933 39.8349 38.4414 40.146 38.4414 40.4399C38.4414 40.6992 38.4933 40.9239 38.5278 41.0622C38.3204 41.2005 37.6289 41.3733 36.9721 41.4598C36.9375 41.4598 36.9029 41.4771 36.8684 41.4943C36.8338 41.5174 36.8146 41.5404 36.7954 41.5635C36.7858 41.575 36.7762 41.5865 36.7646 41.5981C36.7646 41.6067 36.7603 41.611 36.756 41.6154C36.7517 41.6197 36.7474 41.624 36.7474 41.6326C36.7438 41.6434 36.7402 41.6534 36.7367 41.663C36.7237 41.6995 36.7128 41.7299 36.7128 41.7709V41.8055C36.7227 41.8154 36.7269 41.8197 36.7287 41.8247C36.7301 41.8285 36.7301 41.8327 36.7301 41.8401V41.8746C36.7301 41.8746 36.8684 42.2204 36.9548 42.4624L36.9748 42.5193C37.0632 42.7701 37.0966 42.8646 37.1449 42.9291C37.1449 42.9291 37.1622 42.9464 37.1795 42.981C37.1449 43.1365 36.9029 43.2403 36.8511 43.2575C36.0386 43.5341 35.7966 43.7416 35.52 44.6404L35.399 45.0553C35.1224 46.0579 34.9323 46.5765 34.0161 46.6975C32.8571 46.8509 31.4964 46.0296 30.4975 45.4266L30.4552 45.401L30.386 45.3492C29.5217 44.8133 28.9859 44.917 28.692 45.0899C28.4327 45.2627 28.1388 45.6085 28.1388 46.4209V46.6456C28.2215 47.9688 28.7157 49.2446 29.1974 50.488C29.2191 50.544 29.2408 50.6001 29.2624 50.656L29.4872 51.2438C29.7292 51.8661 30.0057 52.4884 30.2823 53.0934C30.3105 53.1565 30.3389 53.2198 30.3672 53.2832C30.7037 54.0347 31.0458 54.7987 31.2849 55.548C31.6652 56.7062 31.9591 57.9335 32.2011 59.2991C32.4085 60.44 32.5468 61.6155 32.616 62.8255C32.5468 61.8229 32.4258 61.1833 32.4258 61.1833L32.6332 63.2058C32.6505 63.6552 32.6678 64.1047 32.6678 64.5541ZM19.6167 35.3578C19.6859 35.7899 20.118 36.0838 20.5502 36.0146C20.9824 35.9455 21.2935 35.5306 21.2071 35.0812C21.1379 34.649 20.7058 34.3552 20.2736 34.4243C19.8415 34.4934 19.5476 34.9256 19.6167 35.3578ZM21.9331 35.4788C22.0022 35.9109 22.4344 36.2048 22.8665 36.1356C23.2987 36.0492 23.6099 35.6343 23.5234 35.2022C23.4543 34.77 23.0221 34.4762 22.59 34.5453C22.1578 34.6144 21.8639 35.0466 21.9331 35.4788ZM31.4059 29.1002C31.6652 29.0656 31.8208 28.8236 31.7862 28.5816C31.7344 28.3396 31.5096 28.1667 31.2676 28.2013C31.0083 28.2358 30.8528 28.4779 30.8873 28.7199C30.9219 28.9792 31.1639 29.1347 31.4059 29.1002ZM31.5788 26.3689C31.5442 26.1096 31.3022 25.9541 31.0602 25.9886C30.8182 26.0232 30.6453 26.2479 30.6799 26.5072C30.7145 26.7665 30.9565 26.9221 31.1985 26.8875C31.4578 26.853 31.6134 26.6109 31.5788 26.3689ZM30.7836 31.2955C31.0948 31.2436 31.3022 30.9498 31.2503 30.6386C31.1985 30.3275 30.9046 30.12 30.5935 30.1719C30.2823 30.2238 30.0749 30.5176 30.1267 30.8288C30.1786 31.1399 30.4725 31.3474 30.7836 31.2955ZM30.5416 24.2773C30.4898 24.0526 30.2996 23.9143 30.0749 23.9489C29.8502 23.9834 29.7119 24.1909 29.7464 24.4156C29.7983 24.6403 29.9885 24.7786 30.2132 24.744C30.4379 24.6922 30.5762 24.502 30.5416 24.2773ZM29.4007 33.2488C29.8329 33.1797 30.1095 32.7821 30.0403 32.3672C29.9712 31.9524 29.5736 31.6758 29.1587 31.7277C28.7266 31.7968 28.45 32.1944 28.5191 32.6093C28.5883 33.0414 28.9859 33.318 29.4007 33.2488ZM28.8821 22.7043C28.8303 22.4795 28.6401 22.3413 28.4154 22.3758C28.1907 22.4277 28.0524 22.6178 28.087 22.8426C28.1388 23.0673 28.329 23.2056 28.5537 23.171C28.7784 23.1191 28.9167 22.929 28.8821 22.7043ZM26.4275 34.0959C26.4966 34.528 26.9288 34.8219 27.361 34.7527C27.7931 34.6836 28.087 34.2687 28.0178 33.8193C27.9487 33.3871 27.5165 33.0933 27.0844 33.1624C26.6522 33.2316 26.3584 33.6637 26.4275 34.0959ZM27.4301 28.668C27.7412 28.6161 27.9487 28.3223 27.8968 28.0111C27.845 27.7 27.5511 27.4753 27.24 27.5444C26.9288 27.5963 26.7214 27.8901 26.7732 28.2013C26.8251 28.5124 27.1189 28.7199 27.4301 28.668ZM26.6868 26.6109C26.9461 26.5764 27.1017 26.3344 27.0671 26.0924C27.0152 25.8504 26.7905 25.6775 26.5485 25.7121C26.2892 25.7466 26.1336 25.9886 26.1682 26.2306C26.2028 26.4899 26.4448 26.6455 26.6868 26.6109ZM26.7732 21.7881C26.7214 21.5634 26.5312 21.4251 26.3065 21.4597C26.0991 21.4942 25.9435 21.7017 25.9781 21.9264C26.0299 22.1511 26.2201 22.2894 26.4448 22.2548C26.6695 22.203 26.8078 22.0128 26.7732 21.7881ZM27.2745 29.8607C27.2054 29.4632 26.8424 29.2039 26.4621 29.273C26.0818 29.3422 25.8225 29.7052 25.8743 30.0855C25.9435 30.483 26.3065 30.7423 26.6868 30.6732C27.0844 30.6041 27.3437 30.241 27.2745 29.8607ZM25.1829 35.617C25.615 35.5479 25.9089 35.1157 25.8398 34.6836C25.7706 34.2514 25.3558 33.9576 24.9063 34.0267C24.4742 34.0959 24.1803 34.528 24.2494 34.9602C24.3186 35.3923 24.7507 35.6862 25.1829 35.617ZM25.1656 25.3145C25.131 25.0552 24.889 24.8996 24.647 24.9342C24.3877 24.9688 24.2322 25.2108 24.2667 25.4528C24.3013 25.7121 24.5433 25.8676 24.7853 25.8331C25.0446 25.7985 25.2002 25.5565 25.1656 25.3145ZM25.5286 31.1745C25.5286 30.7423 25.1829 30.3966 24.7507 30.3966C24.3359 30.3966 23.9901 30.7423 23.9729 31.1918C23.9901 31.6067 24.3186 31.9524 24.7507 31.9524C25.1483 31.9524 25.4595 31.6585 25.5113 31.2782C25.5286 31.2436 25.5286 31.2091 25.5286 31.1745ZM24.1976 21.4942C24.1457 21.2695 23.9556 21.1312 23.7309 21.1658C23.5061 21.2004 23.3506 21.4078 23.4024 21.6325C23.4543 21.8572 23.6444 21.9955 23.8691 21.961C24.0939 21.9091 24.2322 21.719 24.1976 21.4942ZM23.1604 25.3318C23.1086 25.107 22.9184 24.9688 22.6937 25.0033C22.469 25.0379 22.3307 25.2453 22.3652 25.4701C22.4171 25.6948 22.6073 25.8331 22.832 25.7985C23.0567 25.7466 23.195 25.5565 23.1604 25.3318ZM22.469 30.7769H22.3998C21.9504 30.8461 21.6565 31.2609 21.7429 31.7277C21.7948 32.0734 22.0887 32.3327 22.4344 32.3845C22.5208 32.4018 22.59 32.4018 22.6764 32.3845C23.1086 32.3154 23.4024 31.8832 23.3333 31.4511C23.2641 31.0362 22.8838 30.7423 22.469 30.7769ZM21.5182 21.8227C21.4664 21.5979 21.2762 21.4597 21.0515 21.4942C20.8268 21.5288 20.6885 21.7362 20.7231 21.961C20.7749 22.1857 20.9651 22.324 21.1898 22.2894C21.4145 22.2375 21.5528 22.0474 21.5182 21.8227ZM21.7775 26.5245C21.7429 26.3171 21.5528 26.1788 21.3454 26.2134C21.1379 26.2479 20.9996 26.4554 21.0342 26.6455C21.0688 26.853 21.2589 26.9912 21.4664 26.9567C21.6738 26.9221 21.8121 26.7319 21.7775 26.5245ZM20.9132 31.0708C20.8441 30.6386 20.4119 30.3448 19.9798 30.4139C19.5303 30.483 19.2537 30.9152 19.3229 31.3474C19.392 31.7795 19.8242 32.0734 20.2563 32.0042C20.6885 31.9351 20.9824 31.5029 20.9132 31.0708ZM17.6461 24.3465C17.6115 24.0872 17.3695 23.9316 17.1275 23.9662C16.8855 24.018 16.73 24.2427 16.7472 24.4847C16.7818 24.744 17.0238 24.8996 17.2658 24.865C17.5251 24.8305 17.6807 24.5885 17.6461 24.3465ZM15.9478 26.3671C15.9465 26.3963 15.9479 26.4258 15.9521 26.4554C15.9866 26.6974 16.2287 26.853 16.4707 26.8357C16.7128 26.8034 16.8645 26.5902 16.8553 26.3651C16.8555 26.3434 16.8541 26.3216 16.851 26.2998C16.8164 26.0578 16.5744 25.8849 16.3324 25.9195C16.1141 25.9507 15.9521 26.1506 15.9478 26.3671ZM15.9478 26.3671C15.9473 26.3906 15.9487 26.4144 15.9521 26.4381C15.9866 26.6974 16.2287 26.853 16.4707 26.8184C16.6908 26.7869 16.8538 26.5838 16.8553 26.3651C16.8547 26.3492 16.8532 26.3331 16.851 26.3171C16.8164 26.0578 16.5744 25.9022 16.3324 25.9368C16.1047 25.9671 15.957 26.1574 15.9478 26.3671ZM16.0039 28.4779C16.0731 28.8409 16.4015 29.0656 16.7472 29.0137C17.093 28.9446 17.335 28.6161 17.2831 28.2704C17.214 27.9074 16.8855 27.6827 16.5398 27.7345C16.1768 27.8037 15.9521 28.1321 16.0039 28.4779ZM17.8536 29.4632C17.4214 29.5323 17.1448 29.9299 17.214 30.3448C17.2658 30.6386 17.4733 30.8461 17.7326 30.9498C17.8536 30.9843 17.9746 31.0016 18.1128 30.9843C18.545 30.9152 18.8216 30.5176 18.7524 30.1028C18.7179 29.8607 18.5796 29.6879 18.3894 29.5669C18.2339 29.4805 18.0437 29.4286 17.8536 29.4632ZM18.4931 22.929C18.545 23.1537 18.7351 23.292 18.9599 23.2574C19.1846 23.2229 19.3229 23.0154 19.2883 22.7907C19.2364 22.566 19.0463 22.4277 18.8216 22.4623C18.5969 22.5141 18.4586 22.7043 18.4931 22.929Z" fill="white"/>
<path d="M16.851 26.3171C16.8164 26.0578 16.5744 25.9022 16.3324 25.9368C16.1047 25.9671 15.957 26.1574 15.9478 26.3671C15.9473 26.3906 15.9487 26.4144 15.9521 26.4381C15.9866 26.6974 16.2287 26.853 16.4707 26.8184C16.6908 26.7869 16.8538 26.5838 16.8553 26.3651C16.8547 26.3492 16.8532 26.3331 16.851 26.3171Z" fill="white"/>
</svg>
