<svg width="240" height="48" viewBox="0 0 240 48" fill="none" xmlns="http://www.w3.org/2000/svg">
<path fill-rule="evenodd" clip-rule="evenodd" d="M35.5526 4.49797C34.0035 4.16251 32.3083 4 30.4312 4H11.9199V43.2635H30.9501C32.7094 43.2635 34.4269 43.0428 36.0818 42.603C37.7547 42.1632 39.2486 41.4878 40.5486 40.5664C41.8383 39.654 42.8849 38.4702 43.6542 37.0105C44.4146 35.5688 44.7963 33.8558 44.7963 31.8639C44.7963 29.4083 44.2133 27.3121 43.0206 25.5617C41.8338 23.8233 40.0447 22.5993 37.6279 21.9045C39.4021 21.0651 40.7305 19.9842 41.634 18.6662C42.5316 17.3468 42.9803 15.6963 42.9803 13.7193C42.9803 11.8915 42.6792 10.3469 42.0813 9.11238C41.4685 7.86 40.6128 6.86556 39.5184 6.1186C38.4077 5.37016 37.0927 4.82448 35.5526 4.49797ZM32.2144 36.3307C31.4525 36.5006 30.6429 36.5767 29.7901 36.5767H20.5643V25.7645H29.9631C31.8238 25.7645 33.337 26.1924 34.4716 27.0527C35.6032 27.9249 36.1728 29.3621 36.1728 31.3853C36.1728 32.4185 36.0058 33.2728 35.6569 33.9303C35.308 34.5953 34.8295 35.1171 34.251 35.4973C33.6725 35.8938 32.9867 36.1607 32.2144 36.3307ZM33.1164 18.7616C32.1115 19.4996 30.8442 19.8634 29.313 19.8634H20.5643V10.6883H28.6526C29.4174 10.6883 30.1644 10.742 30.8755 10.8821C31.6016 11.0059 32.2263 11.2369 32.7794 11.5709C33.337 11.8915 33.7784 12.3507 34.1108 12.9366C34.4329 13.5225 34.5939 14.2784 34.5939 15.1909C34.5939 16.8369 34.1108 18.037 33.1164 18.7616Z" fill="#053EFF"/>
<path fill-rule="evenodd" clip-rule="evenodd" d="M62.17 38.163C59.9799 38.163 58.2892 37.5875 57.1203 36.4455C55.9469 35.3034 55.1865 33.1759 55.1865 30.9291H75.7017C75.8493 28.7225 75.6689 26.6158 75.159 24.5986C74.6431 22.5799 73.8186 20.7789 72.6602 19.203C71.5002 17.6256 70.0257 16.3657 68.2262 15.4369C66.4207 14.4931 64.314 14.0309 61.9091 14.0309C59.7309 14.0309 57.7644 14.4171 55.9797 15.1879C54.1966 15.9602 52.6654 17.0173 51.3728 18.3576C50.0846 19.6905 49.1051 21.2798 48.3954 23.1211C47.7021 24.9564 47.3458 26.9423 47.3458 29.0684C47.3458 31.2675 47.6887 33.2967 48.3671 35.129C49.0529 36.9703 50.0145 38.5387 51.2535 39.8657C52.5252 41.1866 54.037 42.2005 55.8455 42.9236C57.654 43.6362 59.6698 44 61.9091 44C65.1221 44 67.8803 43.2635 70.1405 41.786C72.4291 40.3159 74.1064 37.8723 75.2111 34.4506H68.335C68.0681 35.3303 67.3793 36.1786 66.2477 36.9703C65.1057 37.765 63.7444 38.163 62.17 38.163ZM61.675 19.9261C63.5924 19.9261 65.1638 20.4822 66.0927 21.5094C67.0245 22.5441 67.7058 24.0157 67.8922 26.0075H55.1865C55.2238 25.4529 55.3431 24.8252 55.5429 24.1334C55.7427 23.4238 56.0871 22.7603 56.591 22.1311C57.0964 21.5124 57.7599 20.9861 58.568 20.5642C59.3939 20.1363 60.4271 19.9261 61.675 19.9261Z" fill="#053EFF"/>
<path d="M86.7926 4V18.8049H86.9715C87.963 17.1574 89.2169 15.9602 90.7585 15.2177C92.2971 14.4693 93.7985 14.0995 95.2611 14.0995C97.3469 14.0995 99.0555 14.3738 100.39 14.9389C101.726 15.5144 102.783 16.2927 103.557 17.305C104.315 18.3129 104.852 19.5429 105.167 20.9921C105.475 22.4383 105.635 24.0335 105.635 25.7928V43.2635H97.7882V27.2107C97.7882 24.87 97.4229 23.1107 96.6953 21.9597C95.9663 20.8072 94.6722 20.2287 92.8055 20.2287C90.6944 20.2287 89.1677 20.8683 88.2224 22.1311C87.2593 23.3939 86.7926 25.4723 86.7926 28.3647V43.2635H78.9489V4H86.7926Z" fill="#053EFF"/>
<path fill-rule="evenodd" clip-rule="evenodd" d="M114.275 16.0735C113.028 16.8055 112.004 17.7851 111.209 18.9942C110.389 20.2034 109.936 21.7256 109.823 23.5699H117.656C117.813 22.0253 118.32 20.919 119.201 20.2466C120.058 19.5936 121.267 19.2536 122.795 19.2536C123.483 19.2536 124.127 19.3028 124.735 19.3908C125.333 19.4877 125.852 19.6696 126.313 19.9469C126.761 20.2242 127.128 20.6044 127.399 21.0979C127.669 21.5989 127.818 22.2698 127.818 23.1107C127.853 23.9247 127.61 24.536 127.104 24.9564C126.59 25.3754 125.889 25.7064 125.014 25.924C124.127 26.1477 123.134 26.3072 121.987 26.419C120.844 26.5323 119.699 26.6784 118.522 26.8588C117.364 27.0392 116.195 27.2957 115.044 27.6058C113.883 27.9129 112.857 28.3841 111.964 29.0103C111.056 29.632 110.33 30.4714 109.771 31.515C109.197 32.5586 108.906 33.8915 108.906 35.5107C108.906 36.9777 109.159 38.248 109.651 39.3155C110.146 40.3771 110.825 41.2537 111.707 41.9604C112.586 42.6537 113.616 43.1666 114.776 43.4976C115.954 43.8285 117.212 44 118.563 44C120.325 44 122.041 43.7421 123.724 43.2337C125.421 42.7178 126.878 41.8143 128.12 40.5291C128.155 41.0077 128.219 41.4744 128.312 41.9276C128.403 42.3913 128.597 42.9236 128.831 43.2635L136.807 43.2829C136.428 42.7014 136.027 41.8143 135.872 40.632C135.735 39.4601 135.658 38.2361 135.658 36.9479V22.1311C135.658 20.4017 135.266 19.0062 134.492 17.9759C133.728 16.9189 132.743 16.1093 131.534 15.5174C130.323 14.9285 128.989 14.5334 127.529 14.3321C126.046 14.1293 124.605 14.0309 123.182 14.0309C121.598 14.0309 120.039 14.1815 118.479 14.5021C116.914 14.8137 115.521 15.334 114.275 16.0735ZM125.001 30.4714C125.555 30.3536 126.093 30.2179 126.579 30.0569C127.082 29.8929 127.48 29.6618 127.818 29.3621V32.2828C127.818 32.7256 127.772 33.316 127.669 34.0481C127.59 34.7757 127.347 35.4973 126.945 36.2129C126.55 36.9285 125.917 37.5428 125.078 38.0572C124.234 38.5686 123.05 38.8235 121.515 38.8235C120.896 38.8235 120.292 38.7803 119.708 38.664C119.132 38.5566 118.615 38.3628 118.174 38.087C117.731 37.8112 117.394 37.4384 117.136 36.9613C116.885 36.4798 116.751 35.8938 116.751 35.1991C116.751 34.4715 116.885 33.8558 117.136 33.3816C117.394 32.909 117.731 32.5154 118.154 32.2008C118.563 31.8907 119.059 31.6447 119.626 31.4598C120.182 31.2735 120.766 31.1303 121.351 31.0155C121.964 30.9052 122.596 30.8202 123.21 30.7457C123.83 30.6682 124.428 30.5802 125.001 30.4714Z" fill="#053EFF"/>
<path d="M147.369 14.842V18.8049H147.543C148.532 17.1574 149.807 15.9602 151.39 15.2177C152.96 14.4693 154.586 14.0995 156.235 14.0995C158.33 14.0995 160.049 14.3738 161.378 14.9389C162.73 15.5144 163.781 16.2927 164.543 17.305C165.324 18.3129 165.861 19.5429 166.174 20.9921C166.49 22.4383 166.647 24.0335 166.647 25.7928V43.2635H158.797V27.2107C158.797 24.8699 158.429 23.1107 157.696 21.9597C156.954 20.8072 155.673 20.0677 153.793 20.0677C151.669 20.0677 150.121 20.8683 149.17 22.1311C148.213 23.3939 147.739 25.4723 147.739 28.3647V43.2635H139.974V14.842H147.369Z" fill="#053EFF"/>
<path d="M180.897 20.7789C181.73 20.2034 182.766 19.9261 184.022 19.9261C187.36 19.9261 189.283 21.5452 189.79 24.7894H197.448C197.327 22.966 196.891 21.3708 196.13 20.0394C195.359 18.708 194.352 17.5913 193.124 16.6952C191.898 15.7932 190.501 15.1208 188.948 14.6855C187.382 14.259 185.762 14.0309 184.074 14.0309C181.767 14.0309 179.713 14.4171 177.915 15.1879C176.109 15.9602 174.583 17.0337 173.335 18.4143C172.075 19.7859 171.13 21.4214 170.49 23.309C169.848 25.2039 169.524 27.2539 169.524 29.4545C169.524 31.5791 169.873 33.5367 170.566 35.3198C171.276 37.1 172.245 38.6312 173.494 39.9193C174.744 41.2045 176.26 42.2005 178.046 42.9236C179.835 43.6362 181.775 44 183.91 44C187.688 44 190.791 42.9996 193.213 41.0271C195.627 39.0412 197.094 36.1607 197.612 32.3902H190.07C189.808 34.1495 189.186 35.5539 188.181 36.5991C187.172 37.6382 185.732 38.163 183.852 38.163C182.64 38.163 181.618 37.8872 180.779 37.3341C179.935 36.778 179.267 36.0742 178.765 35.2185C178.27 34.3448 177.919 33.3861 177.691 32.3246C177.478 31.2571 177.359 30.2119 177.359 29.1802C177.359 28.1127 177.478 27.0392 177.691 25.9553C177.919 24.87 178.288 23.8785 178.82 22.9824C179.351 22.0804 180.045 21.3529 180.897 20.7789Z" fill="#053EFF"/>
<path d="M53.5898 6.63446H69.5054V10.5094H53.5898V6.63446Z" fill="#053EFF"/>
<path fill-rule="evenodd" clip-rule="evenodd" d="M214.504 38.163C212.297 38.163 210.526 37.5875 209.353 36.4455C208.176 35.3034 207.426 33.1759 207.426 30.9291H228.031C228.175 28.7225 227.982 26.6158 227.478 24.5986C226.966 22.5799 226.133 20.7789 224.974 19.203C223.823 17.6256 222.341 16.3657 220.537 15.4369C218.75 14.4931 216.634 14.0309 214.232 14.0309C212.066 14.0309 210.083 14.4171 208.297 15.1879C206.518 15.9602 205.001 17.0173 203.702 18.3576C202.421 19.6905 201.421 21.2798 200.717 23.1211C200.022 24.9564 199.673 26.9423 199.673 29.0684C199.673 31.2675 200.01 33.2967 200.689 35.129C201.372 36.9703 202.332 38.5387 203.584 39.8657C204.85 41.1866 206.363 42.2005 208.169 42.9236C209.964 43.6362 211.987 44 214.232 44C217.457 44 220.203 43.2635 222.473 41.786C224.746 40.3159 226.434 37.8723 227.533 34.4506H220.657C220.406 35.3303 219.703 36.1786 218.568 36.9703C217.433 37.765 216.075 38.163 214.504 38.163ZM214.004 19.9261C215.898 19.9261 217.481 20.4822 218.422 21.5094C219.354 22.5441 220.019 24.0157 220.227 26.0075H207.426C207.461 25.4529 207.59 24.8252 207.775 24.1334C207.982 23.4238 208.339 22.7603 208.835 22.1311C209.332 21.5124 210.071 20.9861 210.881 20.5642C211.722 20.1363 212.758 19.9261 214.004 19.9261Z" fill="#053EFF"/>
</svg>
