<svg width="192" height="48" viewBox="0 0 192 48" fill="none" xmlns="http://www.w3.org/2000/svg">
<path d="M136.07 18.6506C139.477 18.6506 141.798 19.8521 141.798 23.4238V29.6454C141.798 30.6165 141.847 32.3447 141.995 33.3816H138.67C138.555 32.9702 138.473 32.0649 138.44 31.6205C137.847 32.7891 136.481 33.6285 134.391 33.6285C130.819 33.6285 129.568 31.3901 129.568 29.2175C129.568 26.6169 131.346 24.4772 136.383 24.4772H138.078V23.4238C138.078 22.2552 137.716 21.3335 136.021 21.3335C134.342 21.3335 133.93 22.2058 133.782 23.2592H130.128C130.276 20.9714 131.642 18.6506 136.07 18.6506ZM166.635 18.6342C171.358 18.6342 172.642 22.0412 172.725 24.0493H168.923C168.791 22.7325 168.198 21.531 166.552 21.531C164.577 21.531 163.754 23.3744 163.754 26.0244C163.754 29.3985 164.758 30.7482 166.487 30.7482C168.1 30.7482 168.643 29.6948 168.939 28.3122H172.708V28.3287C172.297 31.2255 170.453 33.6285 166.404 33.6285C161.96 33.6285 159.903 30.8963 159.903 26.1725C159.903 21.5968 162.438 18.6342 166.635 18.6342ZM180.987 18.6342C185.843 18.6342 187.291 22.0906 187.291 25.8269C187.291 26.0244 187.258 26.7815 187.242 26.9955H178.107V27.0119C178.107 28.7731 178.782 30.6659 180.921 30.6659C182.65 30.6659 183.176 29.5796 183.407 28.9376H187.126C186.435 31.3407 184.723 33.6285 180.823 33.6285C176.214 33.6285 174.288 30.4684 174.288 26.1725C174.288 22.6008 176.082 18.6342 180.987 18.6342ZM66.3979 14.256V17.4656H61.2133V33.3816H57.2795V17.4656H52.1113V14.256H66.3979ZM113.076 13.0874V33.3816H109.274V13.0874H113.076ZM120.17 13.0874V33.3816H116.368V13.0874H120.17ZM76.0924 14.256C80.2731 14.256 82.1494 16.4615 82.1494 19.1115C82.1494 21.5145 80.8327 22.5515 79.8122 22.9629C81.2277 23.5555 82.8243 24.9381 82.8243 27.588C82.8243 31.2749 80.0262 33.3652 75.9608 33.3652H68.6693V14.256H76.0924ZM101.275 14.256L107.414 33.3652H103.332L101.884 28.8224H95.5473L94.2141 33.3652H90.3955C90.6424 32.6081 95.9423 15.079 96.2221 14.256H101.275ZM127.248 18.914V33.3652H123.446V18.914H127.248ZM152.875 18.6342C155.92 18.6342 157.45 20.5928 157.45 23.9011V33.3652H153.648V24.6253C153.648 22.9794 153.237 21.745 151.443 21.745C149.715 21.745 148.875 22.749 148.875 25.2837V33.3487H145.073V23.4403H145.09C145.09 20.4611 145.057 19.5559 145.04 18.914H148.727C148.776 19.1938 148.859 20.1155 148.859 20.7903C149.451 19.6711 150.817 18.6342 152.875 18.6342ZM138.21 26.8967H136.432C133.831 26.8967 133.371 27.9501 133.371 28.9047C133.371 29.9087 133.963 30.7482 135.412 30.7482C137.666 30.7482 138.21 29.2339 138.21 27.2094V26.8967ZM75.3847 24.7241H72.4879V30.4519H75.6645C77.4586 30.4519 78.8247 29.5796 78.8247 27.6044C78.8247 25.7281 77.7384 24.7241 75.3847 24.7241ZM98.6416 17.2187H98.6087C98.1643 19.3419 97.2919 22.321 96.2879 25.6129H101.094C99.9254 21.7285 99.086 18.9963 98.6416 17.2187ZM180.921 21.4816C178.765 21.4816 178.238 23.2428 178.156 24.5266H183.604C183.555 22.9136 182.88 21.4816 180.921 21.4816ZM75.6151 17.2187H72.4879V21.7614H75.4176C77.4256 21.7614 78.3474 21.1195 78.3474 19.5065C78.3474 17.9429 77.294 17.2187 75.6151 17.2187ZM127.248 13.0874V16.5768H123.446V13.0874H127.248Z" fill="#51195D"/>
<path d="M27.3899 4.18308C16.4445 2.70175 6.37144 10.3718 4.89011 21.3171C3.40878 32.2625 11.0788 42.3356 22.0242 43.8169C32.9696 45.2983 43.0426 37.6283 44.524 26.6829C46.0053 15.7375 38.3353 5.66441 27.3899 4.18308Z" fill="#51195D"/>
<path d="M35.8168 18.7164C35.8168 20.9055 34.0886 23.0945 31.8995 23.0945H28.4102V14.2065H31.8995C34.0886 14.223 35.8168 16.5273 35.8168 18.7164Z" fill="#00C0F3"/>
<path d="M38.7795 29.349C38.7795 31.5381 36.9196 33.793 34.6482 33.793H28.4102V24.905H34.6482C36.9196 24.905 38.7795 27.16 38.7795 29.349Z" fill="#00C0F3"/>
<path d="M10.6328 18.7328C10.6328 16.5438 12.6244 14.2065 15.0933 14.2065H25.4461V23.111H15.0933C12.6244 23.111 10.6328 21.1523 10.6328 18.7328Z" fill="white"/>
<path d="M21.0186 33.793C18.8295 33.793 16.5746 31.9331 16.5746 29.6618V24.8886H25.4626V29.6618C25.4626 31.9496 23.2077 33.793 21.0186 33.793Z" fill="white"/>
</svg>
