<svg width="160" height="48" viewBox="0 0 160 48" fill="none" xmlns="http://www.w3.org/2000/svg">
<path d="M15.4154 30.9831C15.4121 30.946 15.3977 30.9108 15.374 30.8821C15.3032 30.7929 15.1866 30.82 15.0738 30.8465C14.9871 30.8701 14.8978 30.8827 14.8079 30.884C14.7126 30.8862 14.6182 30.8648 14.5333 30.8216C14.4483 30.7784 14.3754 30.7148 14.321 30.6365C14.2567 30.5052 14.225 30.3603 14.2287 30.2141C14.2323 30.0679 14.2712 29.9248 14.342 29.7968C14.3612 29.7506 14.384 29.6995 14.4089 29.6438C14.6058 29.3163 14.7245 28.9478 14.756 28.5669C14.7875 28.186 14.7308 27.803 14.5904 27.4476C14.4518 27.1584 14.2436 26.9081 13.9845 26.7191C13.7254 26.5301 13.4235 26.4083 13.1057 26.3646C12.8058 26.3263 12.5011 26.36 12.2168 26.4628C11.9324 26.5656 11.6767 26.7347 11.4706 26.9559C11.2253 27.2186 11.043 27.5337 10.9378 27.8773C10.8325 28.221 10.807 28.5841 10.8632 28.9391C10.908 29.0619 10.9778 29.0958 11.0286 29.1029C11.1361 29.1172 11.2946 29.039 11.3941 28.7707C11.4013 28.7515 11.4107 28.7216 11.4224 28.6835C11.4831 28.4674 11.5712 28.26 11.6844 28.0661C11.7644 27.9402 11.8688 27.8315 11.9915 27.7465C12.1141 27.6615 12.2525 27.6019 12.3985 27.5712C12.5476 27.5387 12.7016 27.5365 12.8516 27.5646C13.0015 27.5926 13.1443 27.6505 13.2715 27.7347C13.4864 27.877 13.6458 28.089 13.7229 28.335C13.8 28.581 13.79 28.846 13.6947 29.0856C13.5438 29.4678 13.4687 29.8759 13.4738 30.2869C13.4621 30.5884 13.5652 30.8832 13.7625 31.1117C13.9597 31.3401 14.2363 31.4851 14.5364 31.5175C14.7048 31.533 14.8741 31.5012 15.0254 31.4256C15.1767 31.3501 15.3038 31.2338 15.3925 31.0898C15.4108 31.0574 15.4188 31.0201 15.4154 30.9831Z" fill="#241C15"/>
<path d="M33.4866 21.6451C33.5677 22.0672 33.7428 22.4656 33.9988 22.8109C34.2634 22.7784 34.5309 22.7784 34.7954 22.8109C34.9501 22.3475 34.9636 21.8487 34.8343 21.3777C34.6432 20.5086 34.3844 19.9826 33.8498 20.0644C33.3153 20.1463 33.2956 20.776 33.4866 21.6451Z" fill="#241C15"/>
<path d="M32.8915 25.5364C32.738 25.5619 32.5806 25.53 32.4491 25.4468C32.1109 25.289 31.9349 24.971 32.0562 24.7368C32.1536 24.6154 32.2922 24.5343 32.4457 24.5087C32.5991 24.4831 32.7566 24.515 32.8881 24.5982C33.2264 24.7561 33.4022 25.0741 33.2811 25.3085C33.1836 25.4298 33.045 25.5109 32.8915 25.5364Z" fill="#241C15"/>
<path d="M34.2134 23.6545C34.3456 23.6074 34.4891 23.6029 34.624 23.6416C34.774 23.667 34.9084 23.7496 34.999 23.8719C35.0896 23.9942 35.1293 24.1468 35.1099 24.2978C35.1076 24.4381 35.0614 24.5741 34.9778 24.6867C34.8942 24.7993 34.7774 24.883 34.6439 24.9258C34.5103 24.9687 34.3667 24.9686 34.2331 24.9256C34.0996 24.8826 33.9829 24.7989 33.8994 24.6861C33.816 24.5734 33.7699 24.4374 33.7677 24.2971C33.7656 24.1568 33.8074 24.0194 33.8873 23.9042C33.9673 23.7889 34.0813 23.7016 34.2134 23.6545Z" fill="#241C15"/>
<path d="M25.7479 23.5639C25.6626 23.5519 25.6263 23.5154 25.6156 23.4671C25.5824 23.3171 25.813 23.0704 26.0561 22.8923C26.4109 22.6329 26.8264 22.4692 27.2627 22.4168C27.699 22.3644 28.1415 22.4251 28.5475 22.5932C28.927 22.7497 29.2532 23.0123 29.4872 23.3494C29.5741 23.4912 29.5909 23.6012 29.5347 23.6588C29.452 23.746 29.2481 23.6564 28.9191 23.5117L28.8605 23.486C28.424 23.2717 27.9416 23.1678 27.4555 23.1833C26.8796 23.2781 26.3095 23.4051 25.7479 23.5639Z" fill="#241C15"/>
<path d="M28.801 23.95C29.0175 24.021 29.213 24.1445 29.3701 24.3096C29.3874 24.3305 29.398 24.3561 29.4004 24.3831C29.4028 24.4101 29.3969 24.4372 29.3835 24.4608C29.3326 24.5404 29.2246 24.5282 28.9987 24.5028L28.9812 24.5008C28.4681 24.4215 27.9432 24.476 27.4573 24.6591C27.3463 24.7054 27.23 24.7376 27.111 24.7551C27.0822 24.7554 27.0544 24.7449 27.0331 24.7255C27.0211 24.7146 27.0117 24.7013 27.0054 24.6864C26.9991 24.6715 26.9962 24.6554 26.9969 24.6392C27.0249 24.494 27.1075 24.3651 27.2277 24.2789C27.4855 24.0687 27.7988 23.9381 28.1296 23.903C28.3538 23.8629 28.5845 23.879 28.801 23.95Z" fill="#241C15"/>
<path fill-rule="evenodd" clip-rule="evenodd" d="M43.184 31.5764C43.1209 32.8714 42.8473 34.1474 42.3739 35.3544C40.0122 41.0309 34.3761 44.1911 27.6619 43.991C21.4028 43.8046 16.0644 40.4916 13.7279 35.0911C12.253 35.0498 10.8419 34.4799 9.75199 33.4853C8.62607 32.5254 7.90267 31.177 7.72566 29.708C7.61141 28.6975 7.73639 27.6742 8.09051 26.7208L6.77837 25.6059C0.774476 20.521 19.5531 -0.415415 25.5593 4.83927C25.5853 4.86205 27.0823 6.33499 27.5001 6.74613L27.6074 6.85165C27.6154 6.84757 28.718 6.37861 28.7236 6.37632C33.9915 4.18823 38.2661 5.24472 38.2715 8.73588C38.2743 10.5515 37.1209 12.6677 35.2733 14.5887C36.0117 15.3402 36.5345 16.2764 36.787 17.2993C36.9907 18.0129 37.1008 18.75 37.1145 19.492C37.1367 20.0029 37.1605 20.9832 37.1742 21.5509L37.1743 21.5546C37.1804 21.8069 37.1846 21.9768 37.1857 21.9862C37.2117 21.9941 37.3882 22.043 37.5676 22.0927C37.7106 22.1324 37.8558 22.1726 37.9275 22.1928C39.0023 22.4285 40.0025 22.9254 40.8396 23.6395C41.2815 24.0716 41.5709 24.6357 41.6642 25.2466C41.7781 26.0394 41.5803 26.8454 41.1123 27.4953C41.2341 27.773 41.3397 28.0575 41.4288 28.3474C41.5657 28.7877 41.6698 29.1621 41.7046 29.2872L41.7148 29.3238C42.2863 29.3238 43.184 29.9838 43.184 31.5764ZM16.6513 28.4615C16.243 25.8108 14.4553 24.8766 13.2423 24.81C12.9378 24.7938 12.6325 24.8156 12.3334 24.8748C10.1684 25.3129 8.94567 27.1602 9.18627 29.5606C9.3615 30.6373 9.89467 31.6234 10.6996 32.3597C11.5046 33.0959 12.5343 33.5393 13.6223 33.618C13.8305 33.6236 14.0388 33.6089 14.2442 33.5742C16.4385 33.1989 17.013 30.8089 16.6513 28.4615ZM20.3518 11.6349C22.1857 10.1272 24.142 8.77483 26.2005 7.59185C26.2005 7.59185 24.566 5.69097 24.0725 5.55089C21.0366 4.72774 14.4786 9.26426 10.2915 15.2577C8.59728 17.6827 6.17196 21.9772 7.33155 24.1859C7.7435 24.6816 8.20819 25.131 8.71743 25.5262C9.49269 24.4334 10.6625 23.6849 11.9795 23.4388C13.6273 18.8069 16.525 14.7214 20.3518 11.6349ZM26.9499 32.611C27.0303 32.9633 27.2044 33.2873 27.4538 33.5488C27.7032 33.8103 28.0186 33.9996 28.3667 34.0966C28.7287 34.2316 29.1023 34.3333 29.4828 34.4007C34.285 35.2292 38.7744 32.4752 39.7852 31.7815C39.8611 31.7294 39.9112 31.7802 39.8503 31.8721C39.8199 31.9211 39.7869 31.9683 39.7514 32.0137C38.5143 33.6143 35.1885 35.4678 30.8616 35.4671C28.9745 35.4668 27.0883 34.7999 26.3958 33.7753C25.3213 32.1853 26.3425 29.8646 28.1328 30.1065C28.135 30.1068 28.7454 30.1762 28.917 30.1953C31.7 30.4629 34.5051 30.0127 37.0645 28.8875C39.5071 27.7502 40.4299 26.4986 40.2914 25.4854C40.2451 25.1707 40.0973 24.8798 39.8703 24.657C39.2023 24.1072 38.4092 23.7304 37.561 23.5599C37.4817 23.5375 37.4075 23.5168 37.3373 23.4972C37.0645 23.4211 36.8518 23.3617 36.6263 23.2872C36.1221 23.1206 35.8728 22.9866 35.8163 22.0356C35.7918 21.6197 35.7195 20.1708 35.6933 19.572C35.6472 18.5228 35.5215 17.0888 34.6343 16.4967C34.4084 16.3481 34.1462 16.264 33.876 16.2536C33.7245 16.2444 33.5725 16.2593 33.4257 16.2978C32.9763 16.4018 32.5667 16.6341 32.2467 16.9664C31.8321 17.3411 31.3445 17.6262 30.8146 17.8036C30.2846 17.9811 29.7237 18.0471 29.167 17.9975C28.8426 17.984 28.5082 17.951 28.1551 17.9162C27.8325 17.8844 27.4944 17.8511 27.1343 17.8297L27.0393 17.824C26.9241 17.8172 26.8086 17.8103 26.6933 17.8044C25.7224 17.8298 24.7929 18.2031 24.074 18.8563C23.3552 19.5095 22.8948 20.399 22.7768 21.3631C22.4306 23.7517 23.7445 25.2149 24.5992 26.1669C24.8107 26.4024 24.9941 26.6066 25.1173 26.7858C25.2132 26.9009 25.2727 27.0419 25.2882 27.1909C25.2718 27.3562 25.1927 27.5089 25.0671 27.6176V27.6186C24.2081 28.5756 23.6043 29.7339 23.3117 30.9862C23.0191 32.2385 23.0471 33.5443 23.3931 34.7829C23.4752 35.0804 23.5804 35.3709 23.7078 35.652C25.2775 39.3312 30.1468 41.0445 34.904 39.486C35.5269 39.2821 36.1315 39.026 36.7114 38.7205C37.7531 38.2041 38.6912 37.5009 39.4791 36.6458C40.7043 35.4144 41.5105 33.8285 41.7833 32.113C41.9265 31.1646 41.7169 30.7978 41.431 30.6213C41.2289 30.5087 40.9953 30.4659 40.7665 30.4995C40.6453 29.7548 40.4328 29.0278 40.1337 28.3351C38.775 29.3603 37.2391 30.1265 35.6029 30.5954C33.6343 31.1516 31.5863 31.3737 29.5442 31.2525C29.2865 31.2316 29.0459 31.2 28.8232 31.1708C27.9104 31.0509 27.2971 30.9704 27.0344 31.827C29.0216 32.4915 31.1316 32.7068 33.2121 32.4573C33.2268 32.4558 33.2415 32.4572 33.2556 32.4614C33.2697 32.4656 33.2829 32.4726 33.2942 32.4819C33.3056 32.4912 33.3151 32.5027 33.322 32.5157C33.329 32.5287 33.3333 32.5429 33.3347 32.5575C33.3369 32.5821 33.3314 32.6068 33.319 32.6282C33.3066 32.6495 33.2878 32.6665 33.2654 32.6767C33.2654 32.6767 30.8252 33.8132 26.9499 32.611ZM19.8033 15.3328C21.4173 14.1997 23.2372 13.3929 25.1606 12.9577C27.3304 12.4549 29.5857 12.4488 31.7582 12.9399C31.8342 12.9574 31.8827 12.8253 31.8147 12.7871C30.6873 12.2001 29.4429 11.8729 28.1726 11.8296C28.1604 11.8294 28.1484 11.8258 28.1381 11.8192C28.1278 11.8126 28.1195 11.8033 28.1141 11.7923C28.1087 11.7814 28.1065 11.7691 28.1076 11.7569C28.1087 11.7447 28.1132 11.7331 28.1205 11.7233C28.3178 11.4643 28.5483 11.2323 28.8061 11.0334C28.8176 11.0244 28.826 11.0119 28.8299 10.9978C28.8339 10.9837 28.8333 10.9687 28.8282 10.955C28.823 10.9413 28.8136 10.9295 28.8014 10.9215C28.7891 10.9135 28.7746 10.9096 28.76 10.9104C27.2044 11.0642 25.7095 11.5936 24.4039 12.4531C24.3927 12.4606 24.3796 12.4646 24.3661 12.4646C24.3526 12.4646 24.3395 12.4605 24.3284 12.4529C24.3172 12.4453 24.3087 12.4345 24.3038 12.4219C24.2989 12.4094 24.2978 12.3956 24.3009 12.3825C24.406 11.9884 24.5609 11.6092 24.7617 11.2542C24.7684 11.242 24.771 11.2281 24.7691 11.2144C24.7672 11.2006 24.761 11.1879 24.7514 11.1779C24.7417 11.168 24.7291 11.1614 24.7155 11.1592C24.7018 11.157 24.6878 11.1592 24.6754 11.1655C22.7872 12.2078 21.1054 13.5864 19.7129 15.2334C19.702 15.2459 19.6961 15.262 19.6963 15.2785C19.6964 15.2951 19.7027 15.3111 19.7138 15.3233C19.725 15.3356 19.7403 15.3434 19.7568 15.3451C19.7733 15.3468 19.7898 15.3425 19.8033 15.3328Z" fill="#241C15"/>
<path fill-rule="evenodd" clip-rule="evenodd" d="M147.365 19.2335C148.025 18.7655 148.809 18.5051 149.617 18.4857L149.616 18.4841C152.498 18.4841 154.39 20.6732 154.39 24.7419C154.39 28.3312 152.809 30.9884 149.67 30.9884C149.065 30.9764 148.474 30.803 147.958 30.486C147.442 30.1691 147.021 29.7202 146.736 29.1857V34.0257H142.394V18.7601H145.576C145.699 19.4457 145.677 20.1497 145.51 20.8261C145.474 20.9793 145.43 21.1267 145.391 21.261C145.276 21.6482 145.193 21.927 145.423 21.927C145.575 21.927 145.612 21.8351 145.724 21.56C145.771 21.445 145.831 21.2981 145.917 21.1125C146.202 20.3558 146.706 19.7015 147.365 19.2335ZM146.696 25.1323C146.696 26.8926 147.429 28.1552 148.425 28.1552C149.639 28.1552 150.114 27.123 150.114 25.1323C150.114 23.2184 149.599 22.1103 148.39 22.1103C147.449 22.1103 146.696 23.4233 146.696 25.1323Z" fill="#241C15"/>
<path d="M117.197 30.7252V18.7769C117.877 19.0926 118.623 19.2392 119.372 19.2042C120.119 19.2403 120.862 19.0936 121.539 18.7769V30.7252H117.197Z" fill="#241C15"/>
<path d="M108.183 21.2148C108.435 20.6567 109.416 18.4881 111.814 18.4881V18.4897C115.276 18.4897 115.785 21.3245 115.785 24.3954V30.7268H111.443V24.1346C111.443 22.7824 111.159 22.1111 110.253 22.1111C109.159 22.1111 108.772 23.8049 108.772 24.7747V30.726H104.43V15.1396H108.179C108.335 15.7195 108.396 16.3211 108.359 16.9207C108.361 18.3375 108.148 19.7464 107.729 21.0997C107.721 21.1238 107.712 21.1489 107.704 21.1747C107.596 21.494 107.451 21.9221 107.705 21.9302C107.85 21.9346 107.943 21.7342 108.106 21.3805C108.121 21.3494 108.136 21.3171 108.151 21.2837C108.16 21.2648 108.171 21.2417 108.183 21.2148Z" fill="#241C15"/>
<path d="M99.0508 22.6903C97.2169 22.6903 96.2176 23.6689 96.2176 24.7443L96.2168 24.7451C96.2168 25.8652 96.9721 26.831 99.0708 26.831C100.484 26.7743 101.853 26.3245 103.025 25.5324V29.4842C101.777 30.4876 100.218 31.0241 98.6171 31.0012C95.0814 31.0012 92.5946 28.7033 92.5946 24.5586C92.5946 20.414 95.335 18.4881 98.6259 18.4881C101.748 18.4881 103.018 19.7107 103.018 19.7107V23.8713C101.823 23.1346 100.454 22.7271 99.0508 22.6903Z" fill="#241C15"/>
<path d="M91.4384 15.1396H87.0962V30.726H91.4384V15.1396Z" fill="#241C15"/>
<path fill-rule="evenodd" clip-rule="evenodd" d="M68.9886 19.7107C70.7827 18.8966 72.7314 18.4795 74.7015 18.4881C78.6429 18.4881 79.9439 21.1629 79.9439 24.8387V30.726H76.6714C76.5134 29.9779 76.4542 29.2123 76.4954 28.4488C76.4978 28.3308 76.5035 28.226 76.5085 28.1342C76.5264 27.8033 76.5351 27.6415 76.3497 27.6415C76.2037 27.6415 76.1393 27.8229 76.0338 28.1198C75.9891 28.2458 75.937 28.3927 75.8681 28.5552C75.5417 29.3068 74.996 29.9424 74.3025 30.3788C73.609 30.8153 72.7999 31.0322 71.9811 31.0012C70.2888 31.0012 68.2813 29.9787 68.2813 27.5319C68.2813 24.9523 70.068 23.344 73.6069 23.344C74.2743 23.3159 74.9428 23.3596 75.6008 23.4745C75.6784 22.7103 75.4688 21.7902 73.7621 21.7902C71.6242 21.7902 68.9886 23.3056 68.9886 23.3056V19.7107ZM72.0683 27.159C72.0683 27.8471 72.606 28.1672 73.6445 27.9271C74.1136 27.7713 74.5384 27.505 74.8831 27.1508C75.2279 26.7966 75.4825 26.3647 75.6256 25.8916C75.6256 25.8916 75.0487 25.8388 74.4351 25.8388C73.0436 25.8388 72.0683 26.2165 72.0683 27.159Z" fill="#241C15"/>
<path d="M134.985 19.2184C135.571 18.7778 136.276 18.5226 137.008 18.4857L137.009 18.4841C139.891 18.4841 140.991 20.5652 140.991 23.6873V30.722H136.709V24.237C136.709 23.156 136.534 22.1071 135.548 22.1071C134.635 22.1071 134.209 23.7257 134.209 24.7707V30.7252H129.849V24.237C129.849 22.8544 129.654 22.1071 128.682 22.1071C127.84 22.1071 127.349 23.5969 127.349 24.7707V30.722H123.006V18.7601H126.188C126.311 19.4457 126.289 20.1497 126.122 20.8261C126.086 20.9794 126.043 21.1267 126.003 21.261C125.888 21.6482 125.805 21.927 126.036 21.927C126.197 21.927 126.238 21.8264 126.366 21.5049C126.409 21.3993 126.461 21.2699 126.529 21.1125C126.937 20.1812 127.796 18.4857 129.803 18.4857C130.503 18.4273 131.201 18.6216 131.771 19.0334C132.341 19.4452 132.744 20.0474 132.908 20.7308C133.001 21.0473 133.018 21.3157 133.031 21.5177C133.047 21.7779 133.057 21.9278 133.213 21.9278C133.347 21.9278 133.421 21.7278 133.532 21.4281C133.583 21.2894 133.643 21.1294 133.719 20.9581C133.958 20.2649 134.399 19.659 134.985 19.2184Z" fill="#241C15"/>
<path d="M61.2825 19.2184C61.8686 18.7778 62.5731 18.5226 63.3054 18.4857L63.3062 18.4841C66.1882 18.4841 67.2884 20.5652 67.2884 23.6873V30.722H63.0069V24.237C63.0069 23.156 62.8317 22.1071 61.8459 22.1071C60.933 22.1071 60.5065 23.7257 60.5065 24.7707V30.7252H56.1467V24.237C56.1467 22.8544 55.9514 22.1071 54.9793 22.1071C54.1375 22.1071 53.6463 23.5969 53.6463 24.7707V30.722H49.304V18.7601H52.4853C52.6089 19.4457 52.5866 20.1497 52.4197 20.8261C52.3838 20.9793 52.3401 21.1267 52.3003 21.261C52.1854 21.6482 52.1028 21.927 52.3333 21.927C52.4947 21.927 52.5351 21.8264 52.6639 21.5049C52.7063 21.3993 52.7581 21.2699 52.8269 21.1125C53.2342 20.1812 54.0935 18.4857 56.1002 18.4857C56.7988 18.4371 57.4923 18.6353 58.0597 19.0456C58.6272 19.4558 59.0327 20.0523 59.2055 20.7308C59.306 21.097 59.3228 21.374 59.3346 21.5688C59.3494 21.8128 59.3564 21.9278 59.5104 21.9278C59.6449 21.9278 59.7189 21.7278 59.8297 21.4281C59.881 21.2894 59.9402 21.1294 60.0168 20.9581C60.2557 20.2649 60.6965 19.659 61.2825 19.2184Z" fill="#241C15"/>
<path d="M119.356 15.0188C117.888 15.0188 116.698 15.7954 116.698 16.7534C116.698 17.7115 117.888 18.4881 119.356 18.4881C120.823 18.4881 122.014 17.7115 122.014 16.7534C122.014 15.7954 120.823 15.0188 119.356 15.0188Z" fill="#241C15"/>
<path d="M85.6904 18.7769C85.0137 19.0936 84.2699 19.2403 83.5236 19.2042L81.3481 18.7769V30.7252H85.6904V18.7769Z" fill="#241C15"/>
<path d="M83.5068 15.0188C82.0389 15.0188 80.8488 15.7954 80.8488 16.7534C80.8488 17.7115 82.0388 18.4881 83.5068 18.4881C84.9748 18.4881 86.1648 17.7115 86.1648 16.7534C86.1648 15.7954 84.9748 15.0188 83.5068 15.0188Z" fill="#241C15"/>
</svg>
