<svg width="160" height="112" viewBox="0 0 160 112" fill="none" xmlns="http://www.w3.org/2000/svg">
<path d="M18.2741 100.894C13.2651 100.894 9.20459 96.7445 9.20459 91.6244C9.20459 86.5051 13.2651 82.3547 18.2741 82.3547C23.2833 82.3547 27.3429 86.5051 27.3429 91.6244C27.3429 96.7445 23.2833 100.894 18.2741 100.894ZM27.372 102.07C27.372 102.919 28.8264 105.304 30.6088 105.304H31.7633C32.2108 105.304 32.5771 104.937 32.5771 104.489V79.1222H32.5723C32.5491 78.6952 32.1954 78.3527 31.7633 78.3527H28.1863C27.7538 78.3527 27.4005 78.6952 27.3762 79.1222H27.372V81.1837C25.1803 78.4841 21.7252 77.3642 18.26 77.3642C10.384 77.3642 4 83.7482 4 91.6244C4 99.5005 10.384 105.886 18.26 105.886C21.7252 105.886 25.5013 104.541 27.3716 102.067L27.372 102.07ZM41.1229 98.4372C43.5106 100.091 46.117 100.894 48.6214 100.894C51.0079 100.894 53.4745 99.6571 53.4745 97.5044C53.4745 94.6299 48.0992 94.1824 44.7222 93.0348C41.3443 91.8871 38.4348 89.5138 38.4348 85.6713C38.4348 79.7919 43.6739 77.3633 48.5634 77.3633C51.6619 77.3633 54.8585 78.3851 56.931 79.8488C57.6451 80.3892 57.21 81.0104 57.21 81.0104L55.2317 83.8359C55.0094 84.154 54.5484 84.4083 54.0627 84.0843C52.7299 83.2034 51.2454 82.3544 48.5634 82.3544C45.2435 82.3544 43.7831 83.7326 43.7831 85.4399C43.7831 87.488 46.1188 88.132 48.8546 88.8303C53.6226 90.1149 58.823 91.66 58.823 97.5044C58.823 102.685 53.9771 105.887 48.6214 105.887C44.5633 105.887 41.1077 104.729 38.2096 102.603C37.6062 101.999 38.0277 101.438 38.0277 101.438L39.9964 98.6268C40.3968 98.1007 40.9018 98.2844 41.1229 98.4372ZM85.6481 102.07C85.6481 102.919 87.1024 105.304 88.8848 105.304H90.0389C90.4868 105.304 90.8533 104.937 90.8533 104.489V79.1222H90.8485C90.8247 78.6952 90.4714 78.3527 90.0389 78.3527H86.4621C86.0294 78.3527 85.6761 78.6952 85.6524 79.1222H85.6481V81.1837C83.4566 78.4841 80.001 77.3642 76.5367 77.3642C68.6605 77.3642 62.2756 83.7482 62.2756 91.6244C62.2756 99.5005 68.6605 105.886 76.5367 105.886C80.001 105.886 83.7773 104.541 85.6476 102.067L85.6481 102.07ZM76.5501 100.894C71.541 100.894 67.4806 96.7445 67.4806 91.6244C67.4806 86.5051 71.541 82.3547 76.5501 82.3547C81.5589 82.3547 85.6192 86.5051 85.6192 91.6244C85.6192 96.7445 81.5589 100.894 76.5501 100.894ZM122.9 102.942L122.899 89.8161H122.899C122.899 82.4165 118.231 77.4249 110.787 77.4249C107.234 77.4249 104.326 79.4796 103.297 81.2445V81.2199L103.291 81.2401C103.289 79.4538 101.841 78.4138 100.055 78.4138H98.9062C98.4581 78.4138 98.092 78.7805 98.092 79.2282V102.134V102.138V104.597H98.0968C98.1198 105.024 98.4739 105.367 98.9062 105.367H102.483C102.538 105.367 102.592 105.36 102.644 105.351C102.668 105.346 102.689 105.336 102.712 105.33C102.739 105.322 102.767 105.315 102.792 105.305C102.824 105.292 102.853 105.274 102.883 105.257C102.897 105.248 102.912 105.242 102.926 105.233C102.961 105.21 102.995 105.182 103.026 105.154C103.031 105.148 103.038 105.145 103.043 105.14C103.079 105.106 103.111 105.069 103.14 105.029L103.14 105.028C103.229 104.905 103.284 104.757 103.293 104.597H103.297V89.6124C103.297 85.6383 106.519 82.4165 110.494 82.4165C114.468 82.4165 117.69 85.6383 117.69 89.6124L117.693 102.138L117.694 102.134C117.694 102.144 117.696 102.156 117.696 102.168V104.597H117.701C117.724 105.024 118.077 105.367 118.51 105.367H122.087C122.142 105.367 122.195 105.36 122.247 105.351C122.269 105.346 122.288 105.337 122.308 105.332C122.338 105.324 122.368 105.316 122.396 105.305C122.425 105.292 122.452 105.276 122.479 105.26C122.496 105.251 122.514 105.244 122.53 105.233C122.564 105.211 122.594 105.185 122.624 105.159C122.631 105.153 122.64 105.147 122.647 105.14C122.681 105.107 122.71 105.072 122.738 105.035C122.74 105.032 122.742 105.029 122.745 105.027C122.833 104.905 122.887 104.758 122.896 104.599C122.896 104.598 122.897 104.597 122.897 104.597H122.901V102.943L122.9 102.942ZM150.795 102.07C150.795 102.919 152.248 105.304 154.031 105.304H155.186C155.633 105.304 156 104.937 156 104.489V79.1222H155.996C155.972 78.6952 155.618 78.3527 155.186 78.3527H151.61C151.175 78.3527 150.824 78.6952 150.8 79.1222H150.795V81.1837C148.602 78.4841 145.148 77.3642 141.682 77.3642C133.807 77.3642 127.422 83.7482 127.422 91.6244C127.422 99.5005 133.807 105.886 141.682 105.886C145.148 105.886 148.924 104.541 150.793 102.067L150.795 102.07ZM141.698 100.894C136.689 100.894 132.628 96.7445 132.628 91.6244C132.628 86.5051 136.689 82.3547 141.698 82.3547C146.705 82.3547 150.765 86.5051 150.765 91.6244C150.765 96.7445 146.705 100.894 141.698 100.894Z" fill="#283343"/>
<path d="M96.4662 34.232C89.5635 34.232 83.9688 39.8269 83.9688 46.7289C83.9688 53.6314 89.5635 59.2268 96.4662 59.2268C103.368 59.2268 108.963 53.6314 108.963 46.7289C108.963 39.8269 103.368 34.232 96.4662 34.232ZM63.9972 34.2328C57.0954 34.2328 51.5 39.8269 51.5 46.7296C51.5 53.6314 57.0954 59.2268 63.9972 59.2268C70.8994 59.2268 76.495 53.6314 76.495 46.7296C76.495 39.8269 70.8994 34.2328 63.9972 34.2328ZM92.7284 18.6102C92.7284 25.5123 87.1337 31.1085 80.2319 31.1085C73.3295 31.1085 67.7345 25.5123 67.7345 18.6102C67.7345 11.7087 73.3295 6.11328 80.2319 6.11328C87.1337 6.11328 92.7284 11.7087 92.7284 18.6102Z" fill="url(#paint0_radial_102_155)"/>
<defs>
<radialGradient id="paint0_radial_102_155" cx="0" cy="0" r="1" gradientUnits="userSpaceOnUse" gradientTransform="translate(80.2316 35.141) scale(38.077 35.1948)">
<stop stop-color="#FFB900"/>
<stop offset="0.6" stop-color="#F95D8F"/>
<stop offset="0.9991" stop-color="#F95353"/>
</radialGradient>
</defs>
</svg>
