<svg width="216" height="48" viewBox="0 0 216 48" fill="none" xmlns="http://www.w3.org/2000/svg">
<path d="M142.561 15.8572C151.47 15.8572 156.522 22.6622 156.068 32.1067H135.055C135.661 36.107 139.299 38.9283 143.324 38.5199C146.079 38.5853 148.745 37.5456 150.727 35.6329L154.398 39.6128C151.517 42.5842 147.5 44.1762 143.366 43.9845C134.395 43.9845 128.601 38.0043 128.601 29.9208C128.516 26.1836 129.957 22.573 132.59 19.92C135.224 17.267 138.824 15.8002 142.561 15.8572ZM46.4048 15.8572C55.3132 15.8572 60.3654 22.6622 59.9117 32.1067H38.9193C39.5251 36.0982 43.1501 38.9166 47.1678 38.5199C49.9221 38.5853 52.5879 37.5456 54.5708 35.6329L58.2414 39.6128C55.3607 42.5842 51.3431 44.1762 47.209 43.9845C38.2388 43.9845 32.4443 38.0043 32.4443 29.9208C32.3598 26.1836 33.8 22.573 36.4336 19.92C39.0671 17.267 42.6671 15.8002 46.4048 15.8572ZM182.072 20.9094L177.267 23.7139C175.92 21.7134 173.635 20.5512 171.225 20.6413C168.152 20.6413 166.585 22.1467 166.585 23.8788C166.585 25.611 169.06 26.3534 172.957 27.2195C173.046 27.2388 173.135 27.2584 173.224 27.2782L173.492 27.3384C173.626 27.3688 173.76 27.3998 173.895 27.4315L174.164 27.4958C174.254 27.5176 174.344 27.5397 174.434 27.5621L174.703 27.6306L174.972 27.7013C178.781 28.7212 182.402 30.4941 182.402 35.2617C182.402 38.9942 179.164 44.0051 171.493 43.9639C166.677 44.3172 162.082 41.8914 159.656 37.7157L164.832 34.9318C166.225 37.4255 168.885 38.942 171.74 38.8704C174.978 38.8704 176.648 37.2001 176.648 35.303C176.648 33.4058 173.514 32.6635 170.111 31.9623C170.019 31.943 169.927 31.9234 169.835 31.9035L169.559 31.8432C169.513 31.8331 169.467 31.8228 169.421 31.8125L169.145 31.7497C164.872 30.7625 160.77 29.0981 160.77 23.9201C160.77 19.6515 164.894 15.6716 171.204 15.6716C175.49 15.4136 179.603 17.3961 182.072 20.9094ZM123.177 4V43.4277H117.445V39.7159C115.247 42.4364 111.93 44.0077 108.433 43.9847C104.767 43.9534 101.269 42.4421 98.7332 39.7938C96.1976 37.1455 94.8396 33.585 94.9677 29.9208C94.8099 26.2434 96.1643 22.6616 98.7159 20.0088C101.267 17.3559 104.794 15.8631 108.475 15.8778C111.929 15.8522 115.216 17.3634 117.445 20.002V4H123.177ZM27.5777 16.5171V21.7961L11.3694 38.293H27.8664V43.4896H3.86328V38.2312L20.0715 21.7342H4.23446V16.5171H27.5777ZM192.774 4V29.8177L204.92 16.3727H211.89L201.352 27.9412L212.137 43.4277H205.683L197.311 31.4468L192.774 36.4165V43.4483H187.041V4H192.774ZM77.9346 15.8778C84.7396 15.8778 90.4723 20.3114 90.4723 27.6525V43.4277H84.5746V28.3743C84.5746 23.9613 82.43 21.3012 78.0996 21.3012C76.2055 21.1612 74.3472 21.8706 73.0283 23.2373C71.7095 24.604 71.0666 26.4863 71.274 28.3743V43.4277H65.4382V27.6525C65.4382 20.3114 71.1296 15.8778 77.9346 15.8778ZM109.217 21.3837C104.502 21.3837 100.68 25.2059 100.68 29.9208C100.68 34.6358 104.502 38.458 109.217 38.458C113.932 38.458 117.754 34.6358 117.754 29.9208C117.754 25.2059 113.932 21.3837 109.217 21.3837ZM135.035 27.5906L149.738 27.6113C149.538 23.893 146.362 21.0404 142.644 21.2393C138.828 21.0153 135.496 23.7966 135.035 27.5906ZM38.9193 27.5906L53.581 27.6113C53.3704 23.9012 50.198 21.0608 46.4873 21.2599C42.6943 21.0575 39.3901 23.8215 38.9193 27.5906Z" fill="#03363D"/>
</svg>
