<svg width="212" height="48" viewBox="0 0 212 48" fill="none" xmlns="http://www.w3.org/2000/svg">
<path d="M45.4687 30.667L43.3147 32.889H51.9297L60.5447 40.666H15.3167L23.9317 32.889H30.3917L28.2387 30.667H21.7777L6.70166 44H69.1577L54.0837 30.667H45.4687Z" fill="#172535"/>
<path d="M64.6268 9.387L59.2698 4L36.7698 26.63L28.1988 18.009L22.8418 23.397L36.7698 37.405L64.6268 9.387ZM93.7198 15.273H74.8988V19.423H81.9648V39.088H86.6878V19.423H93.7188V15.273H93.7198ZM105.434 25.056C105.097 24.2251 104.567 23.4861 103.889 22.9C103.246 22.3658 102.497 21.9745 101.692 21.752C100.865 21.5199 100.01 21.4028 99.1518 21.404C96.5418 21.404 94.5168 22.169 93.0748 23.7C91.6328 25.23 90.9118 27.526 90.9118 30.588C90.9118 33.441 91.5528 35.685 92.8348 37.32C94.1158 38.955 96.1418 39.772 98.9108 39.772C100.187 39.78 101.456 39.5863 102.671 39.198C103.681 38.9016 104.628 38.4242 105.468 37.789L103.997 34.832C102.767 35.7024 101.295 36.1648 99.7888 36.154C98.2838 36.154 97.1948 35.784 96.5218 35.041C95.7781 34.1022 95.3849 32.9335 95.4098 31.736H105.675C105.789 31.133 105.875 30.553 105.931 29.996C105.986 29.476 106.015 28.954 106.017 28.431C106.052 27.2782 105.853 26.1303 105.434 25.056ZM101.864 28.918H95.5118C95.5667 27.8958 95.9161 26.9112 96.5178 26.083C96.8398 25.713 97.2398 25.425 97.6878 25.241C98.1338 25.057 98.6168 24.982 99.0968 25.021C99.5168 24.987 99.9368 25.061 100.322 25.238C100.707 25.414 101.042 25.686 101.299 26.031C101.808 26.9017 102.007 27.9197 101.862 28.918H101.864ZM118.719 30.014C118.135 29.603 117.501 29.2699 116.831 29.023C116.144 28.767 115.515 28.53 114.942 28.309C114.438 28.1229 113.955 27.8839 113.501 27.596C113.324 27.4959 113.177 27.3502 113.075 27.174C112.972 26.9955 112.917 26.7931 112.917 26.587C112.917 25.544 113.581 25.022 114.908 25.022C115.732 25.022 116.552 25.139 117.346 25.37C118.146 25.602 118.81 25.822 119.337 26.03L120.332 22.76C119.552 22.3406 118.721 22.0249 117.86 21.821C116.704 21.5304 115.516 21.3902 114.325 21.404C112.753 21.2959 111.198 21.7796 109.965 22.76C109.443 23.2625 109.039 23.8736 108.78 24.55C108.519 25.2323 108.407 25.9629 108.454 26.692C108.417 27.5811 108.619 28.4639 109.038 29.249C109.404 29.8849 109.895 30.4409 110.48 30.884C111.054 31.3146 111.691 31.6548 112.368 31.893C113.054 32.136 113.684 32.373 114.256 32.606C114.763 32.803 115.247 33.06 115.698 33.371C115.879 33.49 116.028 33.654 116.131 33.849C116.233 34.044 116.285 34.263 116.281 34.484C116.303 34.734 116.259 34.987 116.153 35.214C116.047 35.44 115.884 35.633 115.681 35.772C115.196 36.0484 114.642 36.1809 114.084 36.154C113.174 36.1551 112.27 36.0082 111.407 35.719C110.682 35.4917 109.98 35.1946 109.313 34.832L108.077 38.207C108.89 38.689 109.761 39.057 110.669 39.303C111.78 39.623 112.93 39.781 114.084 39.773C116.304 39.773 117.969 39.268 119.079 38.259C119.64 37.7321 120.079 37.0883 120.365 36.373C120.653 35.652 120.782 34.8774 120.744 34.102C120.779 33.2295 120.578 32.3637 120.16 31.597C119.795 30.9748 119.304 30.4356 118.719 30.014ZM131.814 35.633C131.427 35.733 131.029 35.779 130.63 35.772C130.353 35.8 130.074 35.7398 129.833 35.6C129.588 35.4584 129.393 35.2451 129.274 34.989C128.984 34.1571 128.862 33.2763 128.914 32.397V25.717H133.102V21.891H128.914V17.333L124.451 18.62V21.89H122.082V25.718H124.451V34.484C124.451 36.363 124.823 37.714 125.567 38.537C126.029 38.9798 126.579 39.3196 127.182 39.534C127.782 39.747 128.419 39.828 129.051 39.772C129.895 39.772 130.737 39.667 131.557 39.459C132.301 39.279 133.025 39.023 133.72 38.694L132.93 35.215C132.569 35.3822 132.196 35.522 131.814 35.633Z" fill="#1274CC"/>
<path d="M145.007 19.4249C144.08 20.2775 143.312 21.2882 142.738 22.4099C142.018 23.8351 141.524 25.3632 141.271 26.9399C140.988 28.3306 140.939 29.759 141.126 31.1659C141.272 32.2483 141.666 33.2821 142.279 34.1859C142.839 34.9783 143.603 35.6045 144.489 35.9979C145.456 36.4141 146.499 36.62 147.551 36.6019C148.475 36.6129 149.397 36.5119 150.296 36.2999C151.017 36.1279 151.714 35.8689 152.372 35.5279L152.664 37.7089C151.814 38.2515 150.862 38.6165 149.866 38.7819C148.74 38.9866 147.598 39.0877 146.453 39.0839C145.113 39.1029 143.782 38.8579 142.538 38.3629C141.394 37.9021 140.395 37.1431 139.643 36.1649C138.83 35.0507 138.299 33.7556 138.096 32.3909C137.83 30.5786 137.883 28.7335 138.255 26.9399C138.569 24.9819 139.217 23.0923 140.17 21.3539C140.964 19.9281 142.006 18.6555 143.246 17.5959C144.346 16.6627 145.609 15.9405 146.971 15.4659C148.223 15.0294 149.537 14.8027 150.862 14.7949C151.973 14.7766 153.084 14.8495 154.182 15.0129C154.91 15.1262 155.622 15.3232 156.304 15.5999L155.172 18.0829C153.739 17.4616 152.181 17.1859 150.621 17.2779C149.644 17.2847 148.675 17.4548 147.754 17.7809C146.738 18.1407 145.805 18.6996 145.007 19.4249Z" fill="#172535"/>
<path fill-rule="evenodd" clip-rule="evenodd" d="M168.071 22.1089C168.662 22.3588 169.16 22.7866 169.495 23.3329C169.783 23.8397 169.939 24.4113 169.95 24.9939C169.967 25.6007 169.921 26.2076 169.812 26.8049C169.571 28.1469 169.3 29.4559 169.002 30.7309C168.704 32.0049 168.452 33.2139 168.247 34.3539C168.097 35.1819 167.99 35.9639 167.926 36.7019C167.862 37.3828 167.865 38.0685 167.935 38.7489H165.913L165.616 36.3999H165.444C165.16 36.7349 164.847 37.0429 164.507 37.3229C164.121 37.6399 163.698 37.9099 163.248 38.1279C162.732 38.3775 162.192 38.5742 161.635 38.7149C160.983 38.8776 160.312 38.9566 159.639 38.9499C158.964 38.9593 158.293 38.8454 157.659 38.6139C157.105 38.4139 156.607 38.0859 156.204 37.6579C155.815 37.2339 155.537 36.7209 155.393 36.1659C155.233 35.517 155.22 34.8405 155.355 34.1859C155.496 33.2874 155.861 32.439 156.417 31.7199C156.961 31.0492 157.65 30.5101 158.431 30.1429C159.327 29.7269 160.278 29.4449 161.256 29.3049C162.411 29.1308 163.578 29.0465 164.746 29.0529H165.689C166.001 29.0531 166.311 29.0755 166.619 29.1199C166.791 28.5234 166.935 27.9191 167.048 27.3089C167.27 26.0789 167.173 25.2169 166.759 24.7249C166.345 24.2329 165.476 23.9869 164.151 23.9869C163.727 23.9899 163.304 24.0179 162.884 24.0739C162.41 24.1341 161.937 24.2146 161.469 24.3149C160.994 24.4149 160.525 24.5429 160.064 24.6949C159.65 24.8289 159.248 24.9969 158.86 25.1949L158.372 23.1479C159.39 22.6139 160.481 22.2299 161.611 22.0079C162.823 21.7606 164.057 21.637 165.293 21.6389C166.242 21.5955 167.19 21.7557 168.071 22.1089ZM165.055 34.8569C165.321 34.5831 165.554 34.279 165.749 33.9509L166.25 31.1669C165.604 31.1226 164.957 31.1003 164.309 31.0999C163.609 31.0994 162.909 31.1384 162.213 31.2169C161.577 31.2831 160.952 31.4296 160.353 31.6529C159.834 31.8449 159.36 32.1419 158.962 32.5249C158.584 32.902 158.334 33.3892 158.248 33.9169C158.166 34.2556 158.17 34.6095 158.259 34.9465C158.348 35.2834 158.52 35.5929 158.758 35.8469C159.03 36.1089 159.353 36.3114 159.708 36.4414C160.062 36.5714 160.44 36.6261 160.816 36.6019C161.412 36.6082 162.005 36.5232 162.574 36.3499C163.072 36.1982 163.549 35.9838 163.992 35.7119C164.381 35.4739 164.739 35.1869 165.055 34.8569Z" fill="#172535"/>
<path d="M178.615 21.4369L178.53 21.9069H183.089L182.666 24.2559H178.107L175.508 38.6809H172.766L175.365 24.2559H172.691L173.115 21.9079H175.788L175.957 20.9679C176.111 20.0502 176.359 19.1508 176.697 18.2839C176.963 17.5918 177.362 16.959 177.872 16.4219C178.351 15.9395 178.933 15.5725 179.574 15.3489C180.335 15.098 181.133 14.9786 181.934 14.9959C182.574 14.9893 183.214 15.0342 183.846 15.1299C184.423 15.2296 184.985 15.3989 185.521 15.6339L184.499 17.8819C184.052 17.6699 183.576 17.5229 183.086 17.4449C182.656 17.3799 182.221 17.3465 181.785 17.3449C181.293 17.3247 180.802 17.4163 180.349 17.6129C179.992 17.7867 179.692 18.0608 179.487 18.4019C179.256 18.7992 179.086 19.229 178.983 19.6769C178.858 20.1789 178.735 20.7669 178.615 21.4369Z" fill="#172535"/>
<path fill-rule="evenodd" clip-rule="evenodd" d="M196.414 22.7119C196.986 23.2492 197.386 23.9442 197.562 24.7089C197.797 25.8325 197.787 26.9936 197.532 28.1129C197.374 28.9439 197.158 29.7629 196.885 30.5629H185.882C185.712 31.4238 185.658 32.3035 185.719 33.1789C185.763 33.8626 185.974 34.5252 186.332 35.1089C186.692 35.6512 187.208 36.072 187.811 36.3159C188.601 36.6214 189.444 36.7643 190.289 36.7359C191.107 36.7293 191.918 36.5937 192.692 36.3339C193.381 36.1338 194.03 35.8157 194.609 35.3939L195.287 37.3399C194.423 37.9137 193.472 38.344 192.47 38.6139C191.367 38.928 190.225 39.0862 189.078 39.0839C187.952 39.1185 186.832 38.9066 185.796 38.4629C184.953 38.0864 184.241 37.4674 183.751 36.6849C183.25 35.8419 182.952 34.8949 182.879 33.9179C182.783 32.7061 182.852 31.4867 183.086 30.2939C183.602 27.4319 184.646 25.2509 186.218 23.7529C187.02 23.0026 187.962 22.4179 188.991 22.0321C190.019 21.6464 191.113 21.4672 192.21 21.5049C192.979 21.5038 193.745 21.588 194.495 21.7559C195.206 21.9056 195.867 22.2347 196.414 22.7119ZM186.298 28.4489H194.798C195.104 26.7499 194.987 25.5589 194.448 24.8759C194.12 24.5133 193.711 24.2322 193.256 24.0546C192.8 23.8771 192.309 23.808 191.821 23.8529C190.596 23.815 189.393 24.1804 188.395 24.8929C187.319 25.8113 186.581 27.0629 186.298 28.4489Z" fill="#172535"/>
<path d="M197.271 14.5259L197.145 15.2309L192.909 19.5259H191.298L194.221 14.5259H197.271Z" fill="#172535"/>
<path fill-rule="evenodd" clip-rule="evenodd" d="M202.986 23.2499L203.242 23.3759L203.918 24.3499H203.361L202.703 23.4199L202.264 23.2859V24.3509H201.789V22.0339C201.924 21.9978 202.061 21.9753 202.2 21.9669C202.377 21.9519 202.544 21.9439 202.703 21.9439C202.933 21.9377 203.16 21.9918 203.361 22.1009C203.453 22.1563 203.528 22.2364 203.576 22.3321C203.624 22.4277 203.645 22.5351 203.635 22.6419C203.641 22.7244 203.626 22.807 203.594 22.8831C203.561 22.9592 203.512 23.0266 203.448 23.0799C203.316 23.184 203.155 23.2435 202.986 23.2499ZM202.264 23.0179H202.575C202.717 23.0254 202.858 22.9969 202.986 22.9369C203.035 22.9098 203.075 22.8692 203.101 22.82C203.126 22.7709 203.138 22.7152 203.132 22.6599C203.132 22.4509 202.955 22.3469 202.602 22.3469C202.538 22.3467 202.474 22.3481 202.41 22.3509C202.36 22.3517 202.31 22.3626 202.264 22.3829V23.0179Z" fill="#172535"/>
<path fill-rule="evenodd" clip-rule="evenodd" d="M204.59 21.482C204.816 21.6964 204.992 21.9571 205.107 22.2461C205.24 22.5808 205.304 22.9383 205.297 23.2981C205.304 23.6591 205.237 24.0171 205.102 24.3501C204.982 24.6431 204.8 24.9051 204.57 25.1191C204.342 25.3281 204.076 25.4881 203.787 25.5921C203.483 25.7011 203.163 25.7561 202.841 25.7541C202.513 25.7571 202.187 25.7021 201.878 25.5921C201.585 25.4904 201.317 25.3269 201.092 25.1126C200.868 24.8984 200.692 24.6383 200.576 24.3501C200.444 24.0161 200.379 23.6581 200.386 23.2981C200.379 22.9379 200.445 22.5801 200.58 22.2461C200.699 21.9575 200.878 21.6974 201.105 21.4833C201.331 21.2691 201.601 21.1058 201.896 21.0041C202.199 20.895 202.519 20.8402 202.841 20.8421C203.168 20.8398 203.493 20.8947 203.8 21.0041C204.095 21.1046 204.364 21.2676 204.59 21.482ZM204.176 24.7391C204.349 24.5723 204.484 24.37 204.57 24.1461C204.672 23.8755 204.72 23.588 204.713 23.2991C204.719 23.0111 204.669 22.7261 204.565 22.4591C204.475 22.2341 204.337 22.0321 204.162 21.8661C203.99 21.7081 203.788 21.5861 203.569 21.5091C203.335 21.4281 203.089 21.3871 202.841 21.3891C202.586 21.3863 202.333 21.4269 202.091 21.5091C201.871 21.5848 201.669 21.7065 201.498 21.8661C201.326 22.0321 201.193 22.2341 201.108 22.4601C201.011 22.7281 200.963 23.0121 200.969 23.2981C200.964 23.5848 201.014 23.8699 201.118 24.1371C201.208 24.3618 201.345 24.5643 201.521 24.7301C201.694 24.8894 201.897 25.011 202.119 25.0871C202.351 25.1681 202.595 25.2081 202.841 25.2081C203.093 25.2101 203.343 25.1711 203.583 25.0921C203.803 25.0191 204.005 24.8991 204.176 24.7391Z" fill="#172535"/>
</svg>
