<svg width="248" height="48" viewBox="0 0 248 48" fill="none" xmlns="http://www.w3.org/2000/svg">
<path d="M226.632 4C235.103 4 239.641 11.7003 239.641 23.7143C239.641 31.9611 237.728 37.6802 234.147 40.7447L242.374 40.1396V43.3895H226.398C217.858 43.3895 213.154 36.9775 213.154 23.7143C213.154 10.4511 218.688 4 226.632 4ZM181.191 4.67341L192.005 38.5488H192.122L202.975 4.67341H208.401V43.37H205.336V7.76718L193.879 43.37H190.346L178.732 7.76718V43.37H175.638V4.67341H181.191ZM226.593 7.33776C219.986 7.33776 216.833 12.6958 216.833 23.724C216.833 34.7523 219.332 40.1396 226.427 40.1396C233.522 40.1396 235.923 33.708 235.923 23.724C235.923 13.74 233.2 7.33776 226.593 7.33776Z" fill="#A9B5AF"/>
<path d="M162.346 8.63571V16.6581H169.48V19.3322H162.356V36.509C162.356 37.28 162.171 41.2619 166.396 41.2619C167.442 41.2511 168.481 41.09 169.48 40.7836V43.7408C168.535 43.8715 167.584 43.9529 166.631 43.9848C164.734 44.0996 162.856 43.5586 161.312 42.4525C160.141 41.4766 159.565 39.7589 159.565 37.4068V19.3419H155.29V16.6678H159.565V10.4998L162.346 8.63571ZM101.583 4.66357V21.7233H101.681C102.61 18.3765 105.664 16.0658 109.137 16.0822C111.284 16.0822 118.409 17.4388 118.409 30.3214C118.409 43.204 110.289 43.9848 108.064 43.9848C98.9967 43.9848 98.7685 34.3399 98.763 32.5395L98.7628 4.66357H101.583ZM125.563 4.66357V21.7233H125.68C126.608 18.3765 129.663 16.0658 133.136 16.0822C135.283 16.0822 142.408 17.4388 142.408 30.3214C142.408 43.204 134.288 43.9848 132.062 43.9848C122.995 43.9848 122.767 34.3399 122.762 32.5395L122.762 4.66357H125.563ZM85.8119 16.0627C94.2381 16.0627 94.1629 22.1646 94.1566 24.9714L94.1563 43.3699H91.3749V39.593H91.2578C90.3498 40.9538 89.1237 42.0726 87.6858 42.8527C86.23 43.6163 84.6058 44.0023 82.9621 43.975C81.8496 43.975 76.1305 43.7408 76.1305 36.8408C76.1305 29.9408 83.6063 28.7501 88.1835 28.3988C89.2301 28.2975 90.8316 28.2838 91.2453 28.282L91.3085 28.2817C91.3166 28.2817 91.3234 28.2817 91.3289 28.2817L91.3456 28.2817L91.3456 25.8781C91.3457 25.8574 91.3457 25.8363 91.3458 25.815L91.3461 25.6834C91.3462 25.6609 91.3462 25.6381 91.3463 25.615L91.3463 25.4733C91.3426 23.2275 91.1213 18.7368 85.5484 18.7368C80.9712 18.7368 80.3075 21.5085 79.9952 23.0701H76.5599C76.5599 21.8013 77.2138 16.0627 85.8119 16.0627ZM59.3636 4.74165C69.533 4.74165 71.7484 10.0801 71.7484 14.6476C71.7484 19.625 69.3866 23.275 63.9408 24.3388C63.9408 24.3388 67.259 25.3148 68.4204 27.1203C69.2988 28.4866 69.7282 29.8334 70.3723 32.976L72.5682 43.4187H69.1914L67.2395 34.2643C66.6247 31.7268 66.2343 27.7547 62.8087 26.4566C61.65 26.046 60.4267 25.8477 59.1976 25.8711H54.5521V43.3699H51.1948V4.74165H59.3636ZM149.961 16.6678V43.3699H147.16V16.6678H149.961ZM108.825 18.7271C105.917 18.7271 101.691 21.8989 101.691 30.6825C101.691 41.0598 106.912 41.2674 108.002 41.2715L108.093 41.2715C109.121 41.2661 115.032 40.9391 115.032 30.2433L115.031 29.9989C114.966 21.6636 111.704 18.7271 108.825 18.7271ZM132.824 18.7271C129.915 18.7271 125.689 21.8989 125.689 30.6825C125.689 41.0598 130.91 41.2674 132.001 41.2715L132.092 41.2715C133.119 41.2661 139.031 40.9391 139.031 30.2433L139.021 30.2531C139.021 21.7233 135.732 18.7271 132.824 18.7271ZM91.3358 30.9558L91.2966 30.9562C90.842 30.9615 86.5706 31.0161 85.4899 31.2193C80.0538 32.2636 79.5072 35.5721 79.5072 36.9872C79.5027 38.0097 79.9307 38.9865 80.6855 39.6762C81.4404 40.366 82.4517 40.7044 83.4696 40.608C87.2996 40.6183 90.5611 37.8257 91.1406 34.0398C91.2695 33.0168 91.3347 31.9868 91.3358 30.9558ZM58.9829 7.74759H54.5521V22.787H57.6166C68.03 22.787 68.3521 16.3457 68.3521 14.5793L68.3519 14.5147C68.3409 12.3581 67.7463 7.74759 58.9829 7.74759ZM150.606 4.67333V9.21152H146.467V4.67333H150.606Z" fill="#FF6600"/>
<path d="M43.0153 20.0056H30.5524C30.1375 20.0082 29.7388 19.8446 29.4453 19.5511C29.1519 19.2577 28.9883 18.859 28.9909 18.4441V5.98114C28.9909 5.56789 28.8261 5.17171 28.5329 4.88041C28.2398 4.58912 27.8426 4.42678 27.4293 4.42938H22.7643C22.351 4.42678 21.9538 4.58912 21.6607 4.88041C21.3676 5.17171 21.2027 5.56789 21.2028 5.98114V18.4441C21.2054 18.859 21.0417 19.2577 20.7483 19.5511C20.4549 19.8446 20.0562 20.0082 19.6412 20.0056H14.9762C14.5612 20.0082 14.1625 19.8446 13.8691 19.5511C13.5757 19.2577 13.412 18.859 13.4146 18.4441V5.98114C13.4173 5.5662 13.2536 5.1675 12.9602 4.87409C12.6668 4.58068 12.2681 4.417 11.8531 4.41959H7.17829C6.76504 4.41959 6.36886 4.58444 6.07756 4.87756C5.78627 5.17069 5.62393 5.5679 5.6265 5.98114V41.8182C5.62391 42.2331 5.78758 42.6318 6.081 42.9252C6.37441 43.2187 6.77311 43.3823 7.18805 43.3797H43.0153C43.4303 43.3823 43.829 43.2187 44.1224 42.9252C44.4158 42.6318 44.5795 42.2331 44.5769 41.8182V21.5964C44.5874 21.1764 44.4273 20.7701 44.133 20.4703C43.8387 20.1705 43.4354 20.0028 43.0153 20.0056ZM36.7497 33.2395C36.7523 33.8599 36.5077 34.4557 36.07 34.8952C35.6323 35.3348 35.0375 35.5818 34.4172 35.5818H31.2941C30.6738 35.5818 30.079 35.3348 29.6413 34.8952C29.2036 34.4557 28.959 33.8599 28.9616 33.2395V30.1263C28.959 29.5059 29.2036 28.9101 29.6413 28.4706C30.079 28.031 30.6738 27.784 31.2941 27.784H34.4172C35.0375 27.784 35.6323 28.031 36.07 28.4706C36.5077 28.9101 36.7523 29.5059 36.7497 30.1263V33.2395Z" fill="#FF6600"/>
</svg>
