<svg width="160" height="80" viewBox="0 0 160 80" fill="none" xmlns="http://www.w3.org/2000/svg">
<path d="M155.779 46.5274C155.779 46.5274 154.276 44.4197 153.812 43.8186C153.488 43.4248 153.095 42.9626 152.077 43.6569C149.788 45.1844 147.22 46.5959 144.053 46.5959C141.624 46.5959 139.52 45.972 137.947 44.629C138.618 44.3265 139.311 44.0031 140.005 43.6093C143.752 41.5948 146.872 39.002 148.377 37.4973C155.663 30.204 153.397 19.3229 144.492 19.3229C136.096 19.3229 129.483 27.4951 129.483 36.5956C129.483 37.9596 129.643 39.9284 130.221 41.9886C129.736 42.2207 126.406 43.8414 122.428 46.0405C118.68 43.2384 112.852 44.4901 112.852 44.4901C118.264 36.7802 126.428 24.7635 127.123 23.7686C127.631 23.0495 127.539 22.3552 127.052 21.2442C126.428 19.9012 125.804 19.6692 124.971 19.6692H108.018C107.465 19.6692 107.025 19.9241 106.861 20.5499C106.7 21.1739 106.354 23.3272 106.285 24.0463C106.215 24.7882 106.909 25.2504 107.626 25.2504H119.907L108.806 41.1554C108.735 41.2258 108.667 41.2943 108.596 41.3875C106.979 43.7254 104.503 46.9897 101.543 46.9897C99.6918 46.9897 97.4034 45.6695 97.4034 41.3399C97.4034 37.1035 99.1154 28.1438 100.363 21.151C100.502 20.4091 100.249 19.6692 99.045 19.6692H96.0394C95.3451 19.6692 94.9513 20.0877 94.86 20.6888C94.6736 21.7541 94.4891 22.7946 94.3274 23.8142C92.8474 20.9665 90.4657 19.3439 87.0416 19.3439C83.8496 19.3439 80.7508 20.5271 78.2075 23.0723C71.8691 29.4164 73.0713 39.7667 67.5927 45.2529C65.232 47.6155 62.5707 46.8965 62.5707 42.2435C62.5707 36.9419 64.6061 31.0144 66.9212 25.4121C67.3359 24.4153 66.8965 23.5821 66.4571 22.9582C65.8331 22.0546 65.601 21.5905 64.492 21.5905C62.7571 21.5905 60.0045 22.6805 54.4784 22.6805C53.299 22.6805 52.1881 22.6329 51.1684 22.5644C51.2388 21.7312 51.2388 21.1758 51.2636 20.9665C51.3092 20.179 51.0315 19.692 50.1983 19.692H47.3772C46.3595 19.692 46.1046 20.179 45.9885 20.9893C45.5034 24.3697 44.6018 36.803 38.3566 43.0311C37.6394 43.7482 37.2 43.9803 37.2 43.9803C38.7504 40.9462 39.5836 36.9647 39.5836 33.7936C39.5836 24.9023 34.3333 19.3933 27.719 19.3933C25.7064 19.3933 23.5778 20.0401 21.5671 21.2899C22.4916 15.8722 23.3476 10.8026 23.6482 9.08867C23.9031 7.62962 23.3932 6.88964 23.0014 6.28661C22.3736 5.31645 21.822 4.87512 20.9869 4.87512H11.2263C10.6708 4.87512 10.2561 5.26889 10.1153 5.89474C9.95364 6.6119 9.60743 8.51038 9.56177 9.38923C9.51421 10.1539 10.0469 10.4545 10.6708 10.4545H17.7948C16.663 17.4492 14.4887 30.9934 13.84 34.3947C13.0106 38.7243 9.93272 44.0259 4.75471 45.9263C4.10793 46.1584 3.85303 46.7595 4.0832 47.4558C4.31528 48.1501 5.21696 49.9554 5.4947 50.4176C5.77243 50.9046 6.37355 51.2052 6.92902 51.0206C9.61123 50.0695 12.0842 48.5439 14.0283 46.5978C14.5134 46.1127 14.9776 45.5801 15.417 44.9999C17.7283 50.2331 22.4935 52.1335 27.3253 52.1335C32.8076 52.1335 38.7294 50.2103 42.8916 46.0652C47.75 41.203 49.7607 33.1925 50.6396 27.4989C51.8418 27.6587 53.2077 27.7976 54.526 27.7976C57.855 27.7976 60.6551 27.0804 60.6551 27.0804C60.6551 27.0804 57.3014 36.0173 57.3014 42.5935C57.3014 50.0257 60.8625 52.1316 64.7716 52.1316C68.8178 52.1316 71.6636 49.0993 73.6743 45.3252C74.207 46.5046 74.9945 47.8933 76.0579 48.9586C77.8841 50.7886 80.1516 52.1316 83.4349 52.1316C87.1824 52.1316 90.3973 49.9782 92.6876 46.6454C93.1023 48.0569 93.7281 49.2135 94.5842 50.0695C95.7389 51.2299 97.8675 52.1316 100.504 52.1316C105.06 52.1316 107.719 48.7056 114.821 48.7056C115.722 48.7056 116.533 48.8444 117.273 49.0993C114.01 51.0891 110.911 53.2197 109.017 55.1181C103.163 60.9772 102.886 68.7099 106.726 72.5525C111.397 77.2302 118.013 74.8676 122.175 70.7225C127.031 65.8622 128.443 56.6704 125.645 50.3948C129.044 48.6123 131.89 47.2941 132.559 46.9688C134.688 49.8621 138.203 52.1316 143.984 52.1316C148.124 52.1316 152.311 50.6725 155.571 48.1957C156.035 47.7563 156.15 47.0373 155.781 46.5293L155.779 46.5274ZM30.1711 44.5358C28.8509 45.8559 27.232 46.5731 25.5904 46.5731C24.0648 46.5731 22.7465 45.8788 21.6355 44.7659C17.8881 41.0165 18.2114 31.7791 23.047 26.9397C24.411 25.5738 26.0755 24.7863 27.7647 24.7863C29.2903 24.7863 30.6086 25.4578 31.7195 26.5687C35.2349 30.1108 35.4423 39.2569 30.1692 44.5358H30.1711ZM83.7583 46.5503C79.7103 46.5503 77.0737 41.6652 77.8822 35.6445C78.6925 29.6257 82.6245 24.7406 86.6707 24.7406C90.4182 24.7406 92.9634 28.9314 92.6857 34.3262C92.5697 35.1119 92.4765 35.8538 92.408 36.5937C91.3199 42.175 87.5952 46.5503 83.7583 46.5503ZM117.455 67.7588C112.159 73.0604 105.406 66.2997 113.291 58.4034C115.074 56.6209 118.009 54.654 121.064 52.8487C122.797 57.1536 121.433 63.7754 117.455 67.7588ZM138.709 27.0557C142.687 23.0723 147.106 24.2536 147.106 28.121C147.106 31.8951 142.596 35.9698 137.138 39.1181C136.606 39.4186 135.98 39.7648 135.356 40.0901C135.146 39.1409 135.032 38.0984 135.032 36.919C135.01 33.6775 136.373 29.3936 138.709 27.0557Z" fill="black"/>
</svg>
