<svg width="160" height="56" viewBox="0 0 160 56" fill="none" xmlns="http://www.w3.org/2000/svg">
<path d="M26.2384 5.76318C13.9749 5.76318 4 15.7387 4 28.0003C4 40.2628 13.9749 50.2377 26.2384 50.2377C38.4982 50.2377 48.4739 40.2628 48.4739 28.0003C48.4739 15.7387 38.4982 5.76318 26.2384 5.76318Z" fill="#53A3DA"/>
<path d="M26.2387 7.80322C22.6627 7.80322 19.6298 13.5232 18.5344 21.4735C18.4995 21.7292 18.4655 21.9881 18.4355 22.2486C18.2859 23.4998 18.1846 24.8008 18.1339 26.1401C18.1097 26.753 18.0977 27.3725 18.0977 27.9998C18.0977 28.6266 18.1097 29.2473 18.1339 29.8589C18.1846 31.198 18.2859 32.4999 18.4355 33.7511C20.1123 33.9681 21.9052 34.1154 23.7752 34.1854C24.5836 34.2156 25.404 34.2336 26.2389 34.2336C27.0713 34.2336 27.8942 34.2154 28.7001 34.1854C30.5724 34.1154 32.364 33.9681 34.0423 33.7511C34.2268 33.7275 34.4085 33.7016 34.5925 33.6749C41.5765 32.6942 46.4349 30.5233 46.4349 27.9998C46.4347 16.8449 37.3917 7.80322 26.2387 7.80322Z" fill="#F1606D"/>
<path d="M34.5919 22.3245C34.3894 22.0291 34.1721 21.746 33.9406 21.4741C32.0875 19.2898 29.3271 17.9019 26.2386 17.9019C25.2374 17.9019 24.3458 19.4344 23.7749 21.8143C23.5482 22.7632 23.3721 23.8459 23.2587 25.021C23.1693 25.9626 23.1211 26.9641 23.1211 28.0003C23.1211 29.0365 23.1693 30.0381 23.2587 30.9789C24.201 31.0683 25.2009 31.1163 26.2386 31.1163C27.275 31.1163 28.275 31.0683 29.2173 30.9789C31.2886 30.7824 33.0767 30.3841 34.3434 29.8593C35.5944 29.3419 36.3347 28.6975 36.3347 28.0003C36.3345 25.8964 35.6921 23.9424 34.5919 22.3245Z" fill="white"/>
<path d="M69.4245 17.0454C72.0285 17.0454 74.1454 18.3154 75.4791 19.7481L73.3968 22.0915C72.2892 21.0172 71.0846 20.3338 69.457 20.3338C65.9729 20.3338 63.4664 23.2636 63.4664 28.0497C63.4664 32.9013 65.7773 35.8311 69.326 35.8311C71.2147 35.8311 72.6149 35.05 73.8195 33.7148L75.9024 36.0258C74.1779 38.0117 71.9633 39.1191 69.2609 39.1191C63.8566 39.1191 59.5918 35.2127 59.5918 28.1477C59.592 21.1801 63.9545 17.0454 69.4245 17.0454Z" fill="#231F20"/>
<path d="M84.3365 22.3522C88.3406 22.3522 91.9553 25.413 91.9553 30.7521C91.9553 36.0587 88.3404 39.1193 84.3365 39.1193C80.3644 39.1193 76.7512 36.0587 76.7512 30.7521C76.7512 25.413 80.3644 22.3522 84.3365 22.3522ZM84.3365 36.0587C86.6808 36.0587 88.1126 33.9424 88.1126 30.7521C88.1126 27.5291 86.6808 25.413 84.3365 25.413C81.9922 25.413 80.5927 27.5291 80.5927 30.7521C80.5927 33.9424 81.9922 36.0587 84.3365 36.0587Z" fill="#231F20"/>
<path d="M93.1943 22.7429H96.2861L96.5468 25.575H96.6769C97.8162 23.4915 99.5097 22.352 101.202 22.352C102.017 22.352 102.538 22.4497 103.025 22.6777L102.374 25.9332C101.822 25.771 101.398 25.6731 100.715 25.6731C99.4448 25.6731 97.9136 26.5514 96.9377 28.9615V38.7282H93.1943V22.7429Z" fill="#231F20"/>
<path d="M110.026 22.3522C114.357 22.3522 116.635 25.478 116.635 29.939C116.635 30.6544 116.57 31.3054 116.472 31.6966H106.315C106.64 34.594 108.463 36.2215 111.035 36.2215C112.403 36.2215 113.574 35.7992 114.747 35.05L116.017 37.3935C114.486 38.4028 112.566 39.1193 110.548 39.1193C106.119 39.1193 102.668 36.026 102.668 30.7521C102.669 25.5425 106.282 22.3522 110.026 22.3522ZM113.379 29.3199C113.379 26.7797 112.306 25.2498 110.124 25.2498C108.236 25.2498 106.608 26.6501 106.282 29.3199H113.379Z" fill="#231F20"/>
<path d="M122.334 27.9187C122.334 21.1468 126.014 16.8813 131.189 16.8813C136.334 16.8813 140.012 21.1468 140.012 27.9187C140.012 34.7237 136.334 39.1187 131.189 39.1187C126.014 39.1187 122.334 34.7237 122.334 27.9187ZM138.45 27.9187C138.45 21.993 135.52 18.2496 131.189 18.2496C126.827 18.2496 123.896 21.9932 123.896 27.9187C123.896 33.8769 126.827 37.7512 131.189 37.7512C135.52 37.7512 138.45 33.8769 138.45 27.9187Z" fill="#F1606D"/>
<path d="M142.846 34.8541C144.409 36.6118 146.655 37.7514 149.163 37.7514C152.418 37.7514 154.502 35.9929 154.502 33.4546C154.502 30.7846 152.745 29.9052 150.628 28.9611L147.372 27.4958C145.517 26.6814 143.041 25.347 143.041 22.1559C143.041 19.0632 145.711 16.8813 149.26 16.8813C151.865 16.8813 153.949 18.0535 155.25 19.4543L154.372 20.4636C153.134 19.1286 151.409 18.2496 149.26 18.2496C146.428 18.2496 144.54 19.7475 144.54 22.0909C144.54 24.566 146.688 25.5093 148.251 26.226L151.507 27.658C153.884 28.7329 156 30.0679 156 33.3561C156 36.6443 153.297 39.1187 149.13 39.1187C146.004 39.1187 143.595 37.7839 141.902 35.8959L142.846 34.8541Z" fill="#53A4D9"/>
</svg>
