<svg width="160" height="64" viewBox="0 0 160 64" fill="none" xmlns="http://www.w3.org/2000/svg">
<path d="M18.1295 29.9842C18.1295 29.9842 17.4894 29.8515 17.3014 29.9083C17.1134 29.9651 16.0396 29.7767 15.5684 29.436C15.0973 29.0964 14.6267 29.3421 14.1936 29.0772C13.761 28.8124 13.1013 28.8501 12.6122 28.8315C12.1226 28.813 11.5009 28.8501 11.2749 29.1526C11.0488 29.4545 10.1641 30.3812 9.84406 30.7585C9.52399 31.1363 8.22468 32.4965 7.71604 32.704C7.71604 32.704 7.84753 32.9126 7.77255 33.0633C7.69701 33.2151 7.75353 33.6487 7.75353 33.8005C7.75353 33.9523 7.79102 34.1969 7.66008 34.3487C7.52746 34.5 7.45248 34.7451 7.45248 34.8396C7.45248 34.9341 7.3014 35.2742 7.45248 35.728C7.603 36.1818 7.7345 36.6912 7.11339 36.4837C6.49171 36.2762 6.62377 35.7095 6.11568 35.6898C5.6076 35.6712 4.94843 35.6898 4.75986 34.9914C4.57072 34.2919 4.21372 33.1016 4.13818 32.9126C4.0632 32.7243 3.79964 31.855 4.28926 31.0992C4.77888 30.3435 4.87289 29.7953 4.94843 29.6249C5.02341 29.4551 5.38153 28.3778 5.64453 28.2259C5.90808 28.0747 5.81352 27.6024 5.9646 27.3949C6.11512 27.1868 6.05861 26.8466 6.15261 26.6577C6.24662 26.4688 6.28467 25.9211 6.41617 25.5056C6.54823 25.09 6.98133 24.4468 7.24488 24.1072C7.50844 23.7675 7.65952 23.2575 7.65952 23.0872C7.65952 22.9168 7.56551 22.5586 7.99806 22.2561C8.4306 21.9536 9.2028 20.9713 9.27834 20.82C9.27834 20.7823 9.27834 20.0834 9.24029 19.8377C9.2028 19.592 9.14628 19.3654 9.39081 19.2709C9.63646 19.1759 9.975 18.9678 9.975 18.9678C9.975 18.9678 9.73998 18.6659 9.23134 18.4106C8.72269 18.1559 7.19732 16.4268 7.05631 15.4068C6.91474 14.3863 6.85822 12.7708 8.24259 12.204C9.62695 11.6367 11.1518 11.3252 11.3784 11.2971C11.6045 11.2689 12.3951 11.0986 12.7062 11.3252C12.7062 11.3252 12.3671 11.2689 12.2261 11.3252C12.0846 11.382 12.9032 11.3538 13.1013 11.5805C13.1013 11.5805 12.7062 11.4674 12.4802 11.4955C12.2547 11.5237 12.8758 11.7789 12.9888 11.9774C13.1013 12.1759 13.5254 12.3176 13.4689 12.6297C13.413 12.9412 13.3844 13.4231 13.4404 13.5648C13.4975 13.7065 13.6385 13.9618 13.667 14.3582C13.6955 14.7551 13.8086 15.2938 13.921 15.5485C14.0341 15.8038 14.3167 16.5972 14.2036 17.164C14.2036 17.164 14.3167 17.4474 14.8813 16.7957C15.4464 16.1434 16.0116 16.0304 16.2936 16.0304C16.5762 16.0304 17.0003 15.7465 17.2824 15.86C17.5655 15.9736 17.8766 15.8319 18.2151 15.9168C18.5537 16.0017 19.966 15.9168 20.2771 15.8033C20.5871 15.6897 21.6609 15.548 21.8865 15.548C22.1125 15.548 21.6044 15.1797 22.028 14.8963C22.4522 14.6129 21.5759 14.4712 22.2261 13.6497C22.8752 12.8276 22.2535 12.601 22.1411 12.4312C22.0286 12.2608 22 11.7221 22 11.4106C22 11.0986 21.9155 10.3052 21.9155 10.3052L22.0286 10.1635C22.0286 10.1635 21.9374 10.0128 21.8478 9.95937C21.7589 9.90595 21.6699 9.58432 21.5994 9.37009C21.5272 9.15586 20.7444 7.99473 20.5133 7.81648C20.2816 7.63711 20.2464 7.37002 20.2816 7.1198C20.3174 6.86902 20.4948 6.65535 20.4596 6.38714C20.4237 6.11949 20.4417 5.76244 20.4237 5.63761C20.4064 5.51222 20.4596 4.76268 20.6202 4.69127C20.6202 4.69127 20.7444 4.63729 20.7981 4.81554C20.7981 4.81554 20.7086 4.19083 20.9044 4.19083C20.9044 4.19083 21.1361 4.11942 21.225 4.44105C21.3135 4.76268 21.403 4.94093 21.4209 5.03033C21.4388 5.11974 21.5099 5.262 21.5099 5.262C21.5099 5.262 21.7052 5.17372 21.8657 5.24457C22.0258 5.31598 22.1332 5.38739 22.1332 5.47679C22.1332 5.5662 22.1332 5.40538 22.3291 5.40538C22.5244 5.40538 22.7029 5.3514 22.7566 5.5482C22.8092 5.74444 22.8455 5.88783 22.8629 6.08407C22.8814 6.28031 22.9166 6.44112 22.9877 6.58394C23.0593 6.72676 23.1651 6.97642 23.1651 7.31604C23.1651 7.65567 23.2904 8.28037 23.3436 8.56658C23.3967 8.85222 24.0022 9.95937 24.0022 9.95937C24.0022 9.95937 24.9277 10.1382 25.3546 10.0488C25.7821 9.95937 26.5292 10.1202 26.4407 10.5132C26.3518 10.9057 26.2986 12.0668 26.2628 12.9777C26.227 13.8887 26.0843 15.6565 25.9422 16.2818C25.7995 16.9065 24.9277 18.532 24.5718 18.7997C24.2165 19.0679 23.8242 19.2462 22.8455 19.7106C21.8663 20.1751 20.727 20.6929 20.727 20.6929C20.727 20.6929 21.3325 21.5499 21.4746 21.6038C21.6167 21.6573 21.5994 21.479 21.7768 21.5499C21.8652 21.5853 22.1724 21.7062 21.9771 21.6258C21.9767 21.6332 23.0494 21.9088 23.0494 21.9088C23.1522 21.9068 23.2158 21.8881 23.203 21.8272C23.1492 21.5777 23.3989 21.2563 23.5053 21.1844C23.6122 21.113 23.3452 21.5058 23.5053 21.6839C23.6659 21.8631 25.9667 21.1793 25.9236 21.3018C25.8811 21.4243 26.0485 21.4339 26.1951 21.3187C26.3407 21.204 26.9503 20.8057 27.3847 20.8074C27.8202 20.8096 28.8055 20.8967 29.0697 20.8001C29.334 20.704 30.5353 19.9601 30.9367 19.7634C31.3369 19.5656 32.7202 19.5847 33.3041 19.1903C33.888 18.7953 35.1738 17.871 35.7169 17.5344C36.2593 17.1984 40.2849 14.7284 41.1436 14.5941C42.0024 14.4598 44.0608 13.6451 44.4134 13.3928C44.7661 13.1411 45.8756 12.5281 46.0979 12.3359C46.3207 12.1438 47.4336 12.6321 48.0135 13.4597C48.0135 13.4597 49.1449 12.904 49.389 12.8827C49.6325 12.8613 50.0837 12.5461 50.4297 12.2803C50.7762 12.014 51.8197 11.3088 52.2759 11.0858C52.2759 11.0858 52.5065 10.9841 52.5508 10.8217C52.595 10.6593 52.7792 10.3491 52.9449 10.4132C52.9449 10.4132 53.3082 9.94797 53.4554 10.0879C53.4554 10.0879 53.7745 9.78502 53.9576 9.94965C53.9576 9.94965 54.1384 9.9755 54.1994 10.0733C54.1994 10.0733 54.4289 9.88729 54.5353 10.0283C54.5353 10.0283 54.701 9.84065 54.9803 10.0609C54.9803 10.0609 55.1662 10.2907 54.8241 10.7132C54.8241 10.7132 54.6097 10.8245 54.4597 11.1347C54.3108 11.4448 53.8937 12.0342 53.4369 12.2651C52.979 12.4961 52.4506 12.9018 52.4702 13.7311C52.4903 14.561 52.1382 15.5257 51.2699 15.3088C50.4017 15.092 49.6403 15.3847 48.8801 15.7999C48.8801 15.7999 48.8135 16.2382 48.7402 16.3427C48.6663 16.4466 48.3265 16.4129 47.859 16.7068C47.3922 17.0001 47.1072 17.1102 46.7389 17.3867C46.37 17.6631 46.291 17.8496 45.9809 17.994C45.6708 18.1396 45.3226 18.534 45.1171 18.7526C44.9105 18.9706 44.1509 19.5072 43.253 19.9454C42.3545 20.3843 38.6614 21.7064 37.8077 22.4014C36.9529 23.0965 35.3815 24.3416 32.9968 25.5125C32.8977 25.5608 32.8059 25.608 32.7124 25.6547C32.568 25.7867 30.5174 27.669 29.8154 28.1612C29.0876 28.6714 28.7965 28.7444 28.5782 29.9115C28.4349 30.6807 27.8499 31.9224 27.4457 32.9113C27.3567 33.8738 27.3058 34.8088 27.2839 35.3785C27.256 36.1151 26.316 43.4403 26.0899 44.2326C25.8632 45.0259 25.8072 45.621 25.9203 46.2441C26.0333 46.8661 25.7506 47.6027 25.412 48.2258C25.0722 48.849 24.5073 50.3216 24.5918 51.1712C24.6764 52.0208 24.7615 52.3326 24.5073 52.4455C24.2526 52.5585 23.433 52.5309 23.3205 52.8141C23.2074 53.0973 22.7837 53.0973 22.7837 53.0973C22.7837 53.0973 22.6566 54.361 22.8783 54.5835C23.1005 54.8049 23.8843 55.7359 22.9309 56.4292C21.9764 57.1237 20.9705 57.7395 20.7359 58.2244C20.5002 58.7082 19.9774 58.9841 19.7814 59.1409C19.5855 59.2976 19.2328 59.5207 19.2065 59.6117C19.1808 59.7039 18.8936 59.8741 18.6187 59.796C18.6187 59.796 18.3836 59.8999 18.135 59.6246C18.135 59.6246 17.7309 59.664 17.6519 59.4027C17.6519 59.4027 17.3121 59.428 17.2729 59.1667C17.2729 59.1667 17.1028 58.7869 17.6127 58.6301C18.1216 58.4722 18.9322 57.3327 18.9585 57.1496C18.9843 56.9664 19.3638 55.8263 19.651 55.3555C19.9382 54.8835 20.3172 53.6524 20.3698 52.5264C20.3698 52.5264 20.2528 52.4483 20.2528 52.3309C20.2528 52.2124 20.2595 51.6713 20.316 51.4639C20.3731 51.2555 20.4857 50.652 20.4107 49.7643C20.3351 48.8776 20.5237 47.4235 20.4107 46.4228C20.2976 45.4221 20.5125 38.475 20.8137 37.5687C21.1155 36.6624 21.228 36.4551 21.2095 36.096C21.1905 35.737 21.2095 34.6419 21.3226 34.5857C21.4351 34.529 21.4541 33.1507 21.4166 32.999C21.3786 32.8484 20.5685 32.282 20.456 31.8853C20.456 31.8853 20.4745 32.3006 20.456 32.4517C20.437 32.6028 20.4185 32.4141 20.1168 32.0927C19.8145 31.7713 19.2496 31.092 19.2121 30.6009C19.1447 30.5644 18.31 30.0713 18.31 30.0713C18.2062 30.0759 18.1547 30.0269 18.1295 29.9842Z" fill="#991B21"/>
<path d="M21.9798 21.6128C21.8944 23.1464 18.308 30.1314 18.308 30.1314C18.1827 30.7494 18.2087 31.3263 18.272 31.6694C18.4239 32.492 17.6641 33.7258 17.6641 33.7258L18.4916 34.1613C19.6092 33.5134 19.13 31.5703 19.13 31.5703C19.0374 31.2227 19.0291 30.888 19.0762 30.5736L19.0851 30.5826C19.0851 30.5826 23.1523 22.521 22.9554 21.886C22.9549 21.8872 22.4701 21.8173 21.9798 21.6128Z" fill="black"/>
<path d="M147.142 33.7097C149.128 33.7097 151.24 34.2428 153.476 35.309L153.727 34.0233H155.985L156.001 59.8158H153.398V50.8943C151.402 52.295 149.29 52.9953 147.064 52.9953C144.461 52.9953 142.726 52.0702 141.858 50.2201C141.356 49.1748 141.064 47.8525 140.98 46.2532C140.949 45.5215 140.933 44.7166 140.933 43.8386C140.933 42.9501 140.938 42.0564 140.949 41.1574C140.97 40.2585 141.038 39.4275 141.153 38.6644C141.267 37.9013 141.445 37.2167 141.686 36.6104C141.936 35.9937 142.292 35.471 142.752 35.0425C143.703 34.154 145.166 33.7097 147.142 33.7097ZM45.9347 28.3788C48.6211 28.3788 50.8162 28.7655 52.52 29.539L51.7047 31.938C49.6454 31.0495 47.7482 30.6052 46.0131 30.6052H45.872C43.9591 30.6052 42.642 30.9658 41.9208 31.6871C41.3145 32.2934 41.0114 33.3439 41.0114 34.8386V34.9014C41.0114 36.6052 41.4817 37.7236 42.4225 38.2567C43.0601 38.6017 44.1995 38.9048 45.8406 39.1661C47.4921 39.4275 48.7204 39.6522 49.5252 39.8404C50.3301 40.0181 51.0148 40.316 51.5792 40.7341C52.75 41.6121 53.3353 43.2794 53.3353 45.7358V45.9396C53.3353 49.6922 51.8249 51.9291 48.804 52.6504C47.8737 52.8803 46.9956 52.9953 46.1699 52.9953C45.3441 52.9953 44.5915 52.964 43.912 52.9012C43.243 52.849 42.5584 52.7497 41.858 52.6033C40.2169 52.2688 38.8424 51.7671 37.7344 51.0981L38.7692 48.903C41.142 50.1574 43.4626 50.7845 45.7308 50.7845C48.365 50.7845 49.9068 49.9431 50.3562 48.2602C50.5026 47.7062 50.5757 47.0685 50.5757 46.3473V45.7358C50.5757 45.0041 50.5235 44.4135 50.419 43.964C50.3144 43.5145 50.0949 43.1487 49.7604 42.8665C49.2169 42.3961 47.9312 42.0041 45.9033 41.6905C44.095 41.4083 42.8458 41.1417 42.1559 40.8909C41.4661 40.64 40.8964 40.3682 40.4469 40.0755C40.0079 39.7724 39.6316 39.3961 39.318 38.9466C38.6699 38.0059 38.3459 36.7045 38.3459 35.0425V34.8857C38.3459 31.4362 39.7779 29.3718 42.642 28.6923C43.5514 28.4833 44.581 28.3788 45.7308 28.3788H45.9347ZM83.8468 25.7446V44.1051C83.8468 47.7114 83.9461 50.5284 84.1447 52.5563L81.8085 52.7444L81.4322 50.5964C79.2266 52.1957 76.9845 52.9953 74.7057 52.9953C72.1866 52.9953 70.5089 52.0702 69.6727 50.2201C69.1918 49.1748 68.9201 48.072 68.8573 46.9117C68.8051 45.741 68.7789 44.7166 68.7789 43.8386C68.7789 42.9501 68.7842 42.0564 68.7946 41.1574C68.8155 40.2585 68.8835 39.4275 68.9985 38.6644C69.1134 37.9013 69.2911 37.2167 69.5316 36.6104C69.7824 35.9937 70.1378 35.471 70.5978 35.0425C71.549 34.154 73.1169 33.7097 75.3016 33.7097C77.4967 33.7097 79.4775 34.0913 81.244 34.8543V25.9955L83.8468 25.7446ZM98.4594 33.7097C101.292 33.7097 103.226 34.4101 104.261 35.8108C104.763 36.4902 105.092 37.316 105.249 38.2881C105.416 39.2498 105.499 40.1696 105.499 41.0477C105.499 42.417 105.468 43.478 105.405 44.2306C103.932 44.2933 102.609 44.3246 101.439 44.3246H98.9141C96.28 44.3246 94.2521 44.2097 92.8305 43.9797C92.8305 46.3839 93.1337 48.0615 93.74 49.0128C94.4821 50.173 95.9612 50.7532 98.1772 50.7532C100.393 50.7532 102.515 50.3194 104.543 49.4518L105.311 51.6939C103.148 52.5615 100.759 52.9953 98.1458 52.9953C96.6302 52.9953 95.3445 52.8385 94.2887 52.5249C92.6058 52.0441 91.4874 51.0511 90.9334 49.5459C90.4212 48.1347 90.1651 46.0441 90.1651 43.2741V42.4745C90.1651 39.1609 90.855 36.8351 92.2347 35.4972C93.4786 34.3055 95.5535 33.7097 98.4594 33.7097ZM61.7862 34.0233V52.6817H59.2462L59.2148 34.0233H61.7862ZM114.64 25.776V41.9571C115.058 42.0407 115.56 41.8264 116.145 41.3142C116.741 40.802 117.269 40.316 117.729 39.856C118.189 39.3856 118.664 38.8735 119.156 38.3195C120.922 36.2811 122.082 34.8491 122.636 34.0233H125.741C125.511 34.546 124.983 35.2881 124.157 36.2498L122.056 38.6174C120.917 39.8404 120.002 40.7445 119.312 41.3299C118.633 41.9152 118.184 42.2497 117.964 42.3334V42.4902L118.434 42.7253C119.114 43.0494 120.002 43.9117 121.1 45.3124L126.948 52.6817H123.656L119.673 47.4605C117.833 45.0563 116.427 43.8124 115.455 43.7288L115.11 43.6975C115.006 43.687 114.912 43.687 114.828 43.6975H114.64V52.6817H112.037V26.0582L114.64 25.776ZM133.94 34.0233V52.6817H131.4L131.369 34.0233H133.94ZM75.7876 36.0616C74.5124 36.0616 73.6709 36.1662 73.2632 36.3752C72.8556 36.5843 72.542 36.8561 72.3225 37.1905C72.1134 37.525 71.9409 37.985 71.8051 38.5703C71.5708 39.6397 71.4507 41.384 71.4447 43.803L71.4444 44.3403C71.4444 46.6922 71.7005 48.3176 72.2127 49.2166C72.7667 50.1678 73.7963 50.6434 75.3016 50.6434H75.5367C76.9792 50.6434 78.5158 50.1835 80.1465 49.2636C80.5959 49.0128 80.9827 48.7619 81.3067 48.511V48.4797C81.2545 47.5075 81.2283 46.0076 81.2283 43.9797L81.244 37.0024C79.3625 36.3752 77.5437 36.0616 75.7876 36.0616ZM147.942 36.0616C146.666 36.0616 145.825 36.1662 145.417 36.3752C145.01 36.5843 144.696 36.856 144.477 37.1905C144.267 37.525 144.095 37.985 143.959 38.5703C143.719 39.6679 143.598 41.4762 143.598 43.9954V44.3403C143.598 46.6609 143.886 48.2863 144.461 49.2166C145.036 50.1678 146.086 50.6434 147.612 50.6434H147.848C149.29 50.6434 150.764 50.2462 152.269 49.4518C152.698 49.2323 153.074 49.0075 153.398 48.7776V37.4728C151.517 36.532 149.698 36.0616 147.942 36.0616ZM98.2086 35.9519C96.118 35.9519 94.6912 36.4066 93.9281 37.316C93.1964 38.1836 92.8305 39.7933 92.8305 42.1452H102.85V40.64C102.85 38.9989 102.531 37.8282 101.893 37.1278C101.182 36.3439 99.9542 35.9519 98.2086 35.9519ZM60.2183 25.7446C60.7409 25.7446 61.112 25.7708 61.3315 25.823C61.5615 25.8753 61.7496 25.9746 61.896 26.1209C62.1468 26.3718 62.2723 26.7847 62.2723 27.3596C62.2723 27.9241 62.2409 28.3317 62.1782 28.5826C62.1259 28.823 62.0319 29.0164 61.896 29.1627C61.6347 29.424 61.1643 29.5547 60.4848 29.5547C59.7845 29.5547 59.335 29.4554 59.1364 29.2568C58.8228 28.9328 58.666 28.4885 58.666 27.9241C58.666 27.3492 58.6974 26.9415 58.7601 26.7011C58.8333 26.4502 58.9378 26.2568 59.0737 26.1209C59.3246 25.8701 59.7061 25.7446 60.2183 25.7446ZM132.372 25.7446C132.895 25.7446 133.266 25.7708 133.486 25.823C133.716 25.8753 133.904 25.9746 134.05 26.1209C134.301 26.3718 134.426 26.7847 134.426 27.3596C134.426 27.9241 134.395 28.3317 134.332 28.5826C134.28 28.823 134.186 29.0164 134.05 29.1627C133.789 29.424 133.318 29.5547 132.639 29.5547C131.939 29.5547 131.489 29.4554 131.29 29.2568C130.977 28.9328 130.82 28.4885 130.82 27.9241C130.82 27.3492 130.851 26.9415 130.914 26.7011C130.987 26.4502 131.092 26.2568 131.228 26.1209C131.479 25.8701 131.86 25.7446 132.372 25.7446Z" fill="#991B21"/>
</svg>
