<svg width="160" height="104" viewBox="0 0 160 104" fill="none" xmlns="http://www.w3.org/2000/svg">
<path d="M82.2397 32.432H57.873V8.06506H82.2397V32.432Z" fill="#F1511B"/>
<path d="M109.144 32.432H84.7773V8.06506H109.144V32.432Z" fill="#80CC28"/>
<path d="M82.2393 59.3449H57.873V34.9786H82.2393V59.3449Z" fill="#00ADEF"/>
<path d="M109.144 59.3449H84.7773V34.9786H109.144V59.3449Z" fill="#FBBC09"/>
<path d="M155.999 79.8832V76.1834H151.405V70.4321L151.25 70.4795L146.935 71.7999L146.851 71.8255V76.1834H140.04V73.7564C140.04 72.6262 140.292 71.7609 140.79 71.1842C141.285 70.6142 141.993 70.3247 142.895 70.3247C143.544 70.3247 144.216 70.4781 144.891 70.779L145.061 70.8545V66.9581L144.981 66.9286C144.35 66.7013 143.492 66.5875 142.43 66.5875C141.09 66.5875 139.872 66.8791 138.81 67.4569C137.748 68.0355 136.912 68.862 136.327 69.9118C135.743 70.9614 135.447 72.1726 135.447 73.5138V76.1827H132.248V79.8823H135.447V95.4684H140.04V79.8823H146.851V89.7872C146.851 93.8663 148.774 95.9336 152.569 95.9336C153.193 95.9336 153.849 95.8604 154.52 95.7168C155.202 95.5697 155.667 95.4231 155.939 95.2665L156 95.2307V91.4972L155.812 91.6205C155.564 91.7867 155.253 91.9224 154.889 92.023C154.523 92.1257 154.218 92.177 153.982 92.177C153.093 92.177 152.436 91.9382 152.028 91.4653C151.615 90.9878 151.405 90.1534 151.405 88.9875V79.8818H155.999V79.8832H155.999ZM121.992 92.1791C120.325 92.1791 119.011 91.6261 118.085 90.5373C117.153 89.4436 116.681 87.8833 116.681 85.9015C116.681 83.8565 117.153 82.2563 118.086 81.1428C119.012 80.0359 120.314 79.475 121.954 79.475C123.547 79.475 124.815 80.0115 125.722 81.0692C126.636 82.1329 127.098 83.7213 127.098 85.7898C127.098 87.8838 126.663 89.4926 125.804 90.5687C124.951 91.6368 123.669 92.1791 121.992 92.1791ZM122.196 75.7191C119.016 75.7191 116.49 76.6509 114.689 78.4891C112.89 80.3268 111.977 82.8704 111.977 86.0495C111.977 89.0688 112.867 91.4976 114.624 93.267C116.381 95.0374 118.773 95.934 121.73 95.934C124.813 95.934 127.288 94.99 129.089 93.1262C130.889 91.2648 131.801 88.7454 131.801 85.6406C131.801 82.5746 130.945 80.127 129.256 78.3694C127.568 76.6105 125.192 75.7191 122.196 75.7191ZM104.573 75.7191C102.41 75.7191 100.62 76.2724 99.2533 77.3633C97.8777 78.461 97.1802 79.9002 97.1802 81.6415C97.1802 82.547 97.3305 83.3512 97.6273 84.0336C97.9254 84.7177 98.3871 85.3202 98.9996 85.8262C99.6081 86.3277 100.547 86.8533 101.792 87.3877C102.837 87.8185 103.617 88.1823 104.112 88.4688C104.597 88.7502 104.94 89.0332 105.134 89.3084C105.323 89.5777 105.419 89.9462 105.419 90.4014C105.419 91.6965 104.449 92.3269 102.452 92.3269C101.712 92.3269 100.867 92.1726 99.9413 91.8678C99.0228 91.5671 98.1559 91.1273 97.3707 90.5638L97.1802 90.4276V94.8478L97.2506 94.881C97.9005 95.1814 98.7196 95.4342 99.6852 95.6324C100.649 95.8316 101.525 95.9336 102.285 95.9336C104.633 95.9336 106.523 95.3769 107.902 94.2801C109.29 93.1753 109.994 91.7014 109.994 89.8992C109.994 88.599 109.615 87.4843 108.868 86.5858C108.128 85.694 106.84 84.875 105.046 84.1512C103.616 83.577 102.7 83.1007 102.322 82.7352C101.958 82.3818 101.773 81.882 101.773 81.249C101.773 80.6886 102.001 80.239 102.47 79.8749C102.942 79.5098 103.599 79.3235 104.424 79.3235C105.189 79.3235 105.972 79.4445 106.751 79.6811C107.529 79.9183 108.213 80.2355 108.783 80.6235L108.971 80.7515V76.5582L108.899 76.5266C108.371 76.3007 107.678 76.1074 106.835 75.9508C105.996 75.7977 105.235 75.7191 104.573 75.7191ZM85.2091 92.1791C83.5426 92.1791 82.228 91.6261 81.3025 90.5373C80.3703 89.4436 79.8988 87.8838 79.8988 85.9015C79.8988 83.8565 80.3707 82.2563 81.3032 81.1428C82.2289 80.0359 83.5301 79.475 85.1719 79.475C86.7641 79.475 88.0316 80.0115 88.9396 81.0692C89.8523 82.1329 90.3152 83.7213 90.3152 85.7898C90.3152 87.8838 89.8795 89.4926 89.0209 90.5687C88.168 91.6368 86.886 92.1791 85.2091 92.1791ZM85.4136 75.7191C82.2331 75.7191 79.7069 76.6509 77.9075 78.4891C76.1077 80.3268 75.194 82.8704 75.194 86.0495C75.194 89.0702 76.0858 91.4976 77.842 93.267C79.5991 95.0374 81.99 95.934 84.9479 95.934C88.0302 95.934 90.5071 94.99 92.3067 93.1262C94.1056 91.2648 95.0186 88.7454 95.0186 85.6406C95.0186 82.5746 94.1623 80.127 92.474 78.3694C90.7843 76.6105 88.4085 75.7191 85.4136 75.7191ZM68.2228 79.5235V76.1834H63.687V95.4682H68.2228V85.6039C68.2228 83.926 68.6032 82.5486 69.3532 81.5072C70.0945 80.4788 71.0815 79.9573 72.2877 79.9573C72.6962 79.9573 73.1546 80.025 73.6514 80.1581C74.1431 80.2905 74.4988 80.4341 74.7089 80.5859L74.8996 80.7239V76.1506L74.8264 76.1183C74.404 75.9392 73.8062 75.8486 73.0498 75.8486C71.9101 75.8486 70.8896 76.2145 70.0155 76.9362C69.2489 77.5703 68.6943 78.4398 68.27 79.5235H68.2228ZM55.563 75.7191C53.4818 75.7191 51.6259 76.1653 50.0464 77.0452C48.4643 77.9265 47.2411 79.1861 46.4084 80.7869C45.5802 82.3834 45.159 84.2483 45.159 86.3291C45.159 88.1517 45.567 89.823 46.3735 91.2973C47.1809 92.7735 48.3228 93.9279 49.768 94.7295C51.2112 95.5295 52.8805 95.935 54.7275 95.935C56.883 95.935 58.7238 95.5037 60.1997 94.6535L60.2592 94.6196V90.4634L60.0689 90.6028C59.3898 91.0954 58.6418 91.485 57.849 91.759C57.0471 92.0383 56.3163 92.1803 55.6755 92.1803C53.8956 92.1803 52.4662 91.6236 51.4291 90.5252C50.3893 89.4257 49.8626 87.8821 49.8626 85.9389C49.8626 83.9839 50.4121 82.4008 51.4958 81.2323C52.5754 80.0666 54.0076 79.4757 55.7508 79.4757C57.2416 79.4757 58.6947 79.9806 60.0694 80.9781L60.2592 81.1161V76.7362L60.1974 76.702C59.6802 76.4125 58.9747 76.1734 58.099 75.9919C57.2267 75.8104 56.3735 75.7191 55.563 75.7191ZM42.0342 76.1834H37.4979V95.4682H42.0342V76.1834ZM39.8122 67.9688C39.0656 67.9688 38.4148 68.2228 37.8801 68.7265C37.3427 69.2322 37.0701 69.8679 37.0701 70.6182C37.0701 71.3568 37.3396 71.9814 37.8715 72.4724C38.3999 72.9624 39.0533 73.2113 39.8126 73.2113C40.5727 73.2113 41.2284 72.9634 41.7631 72.4733C42.3014 71.9814 42.5744 71.3561 42.5744 70.6182C42.5744 69.8941 42.3091 69.2652 41.7854 68.747C41.2616 68.2302 40.598 67.9688 39.8122 67.9688ZM28.4942 74.7611V95.4682H33.124V68.5593H26.7165L18.5723 88.5469L10.6684 68.5593H4V95.4684H8.3509V74.7588H8.50031L16.8464 95.4682H20.1294L28.3451 74.7613L28.4942 74.7611Z" fill="#706D6E"/>
</svg>
