<svg width="160" height="56" viewBox="0 0 160 56" fill="none" xmlns="http://www.w3.org/2000/svg">
<path d="M4 14.1805H9.30009V25.9558H20.4783V14.1805H25.7852V43.0852H20.4783V31.0626H9.30009V43.0852H4V14.1805Z" fill="#45535E"/>
<path d="M42.5759 33.6705C42.5759 36.0902 40.6045 38.0592 38.1855 38.0592C35.7655 38.0592 33.7954 36.0902 33.7954 33.6705V21.2261H28.769V33.6705C28.769 38.8622 32.9935 43.0852 38.1855 43.0852C43.3763 43.0852 47.6005 38.8622 47.6005 33.6705V21.2261H42.5759V33.6705Z" fill="#45535E"/>
<path d="M61.6321 21.3718C59.1388 21.3718 57.3985 22.0953 55.7178 23.7452V14.1805H50.6751V31.9064C50.6751 38.5413 55.4722 43.0852 60.8617 43.0852C66.8532 43.0852 72.1029 38.4603 72.1029 32.2288C72.1029 26.0764 67.2621 21.3718 61.6321 21.3718ZM61.7574 38.4202C58.3405 38.4202 55.7276 35.5665 55.7276 32.2288C55.7276 28.8906 58.3405 26.036 61.7574 26.036C64.6527 26.036 67.2671 28.8906 67.2671 32.2288C67.2671 35.5665 64.6527 38.4202 61.7574 38.4202Z" fill="#45535E"/>
<path d="M80.5723 22.6422C80.5723 20.1074 82.2613 19.3037 84.1103 19.3037C85.5989 19.3037 87.5688 20.4295 88.8543 21.797L92.1507 17.9371C90.5032 15.7259 87.1665 14.1975 84.4321 14.1975C78.9631 14.1975 75.0225 17.3742 75.0225 22.6422C75.0225 32.4129 87.0457 29.3157 87.0457 34.7856C87.0457 36.4726 85.3976 37.9618 83.5088 37.9618C80.5322 37.9618 79.5667 36.5141 78.2001 34.9857L74.5403 38.7649C76.8739 41.6201 79.768 43.0683 83.2265 43.0683C88.4131 43.0683 92.5951 39.8515 92.5951 34.8245C92.5951 23.9684 80.5723 27.3465 80.5723 22.6422Z" fill="#45535E"/>
<path d="M105.87 21.0886C100.481 21.0886 95.6837 25.6298 95.6837 32.2662V50.0378H100.726V40.4278C102.407 42.0764 104.147 42.8011 106.641 42.8011C112.27 42.8011 117.112 38.0972 117.112 31.9447C117.112 25.7124 111.861 21.0886 105.87 21.0886ZM106.766 38.1375C103.35 38.1375 100.736 35.28 100.736 31.9447C100.736 28.6065 103.35 25.7519 106.766 25.7519C109.661 25.7519 112.276 28.6065 112.276 31.9447C112.276 35.28 109.661 38.1375 106.766 38.1375Z" fill="#45535E"/>
<path d="M154.229 38.4202C151.255 38.4202 150.411 37.134 150.411 35.163V26.438H155.034V22.0155H150.411V16.1846L145.306 18.476V36.2487C145.306 40.7929 148.441 43.0852 152.741 43.0852C153.385 43.0852 154.27 43.0437 154.753 42.9246L156 38.3412C155.437 38.3801 154.794 38.4202 154.229 38.4202Z" fill="#45535E"/>
<path d="M140.931 26.6948C139.964 25.0317 138.605 23.6983 136.905 22.6945C135.634 21.955 134.317 21.4856 132.833 21.284V15.9993C134.317 15.3691 135.238 13.974 135.238 12.3464C135.238 10.128 133.459 8.33037 131.243 8.33037C129.024 8.33037 127.214 10.128 127.214 12.3464C127.214 13.974 128.082 15.3691 129.567 15.9993V21.2864C128.379 21.458 127.148 21.8282 126.023 22.397C123.726 20.6525 116.194 14.9294 111.788 11.5867C111.892 11.2099 111.973 10.8216 111.973 10.4119C111.973 7.9548 109.983 5.96326 107.525 5.96326C105.067 5.96326 103.078 7.9548 103.078 10.4119C103.078 12.8686 105.069 14.8608 107.527 14.8608C108.365 14.8608 109.141 14.6155 109.81 14.2124L110.74 14.9178L123.517 24.1238C122.842 24.744 122.212 25.4494 121.709 26.2409C120.689 27.8545 120.066 29.6299 120.066 31.5665V31.9706C120.066 33.33 120.324 34.6135 120.764 35.8192C121.152 36.872 121.718 37.8291 122.42 38.6946L118.179 42.9454C117.803 42.8068 117.408 42.7308 116.996 42.7308C116.078 42.7308 115.217 43.0894 114.567 43.7375C113.918 44.3874 113.562 45.2505 113.562 46.1691C113.562 47.0874 113.92 47.9504 114.569 48.5997C115.219 49.2493 116.082 49.6074 117 49.6074C117.919 49.6074 118.782 49.2493 119.432 48.5997C120.08 47.9504 120.439 47.0871 120.439 46.1691C120.439 45.8137 120.384 45.4669 120.28 45.1374L124.663 40.7538C125.264 41.1688 125.913 41.5183 126.611 41.8196C127.987 42.4146 129.506 42.7771 131.168 42.7771H131.473C133.311 42.7771 135.044 42.3454 136.674 41.4625C138.391 40.5293 139.735 39.2533 140.75 37.6243C141.771 35.9908 142.333 34.186 142.333 32.2004V32.1012C142.333 30.148 141.881 28.3458 140.931 26.6948ZM135.576 35.8904C134.386 37.2125 133.019 38.0269 131.473 38.0269H131.218C130.335 38.0269 129.471 37.7828 128.626 37.339C127.673 36.8503 126.948 36.1532 126.356 35.2705C125.743 34.4042 125.41 33.4583 125.41 32.4554V32.1508C125.41 31.1648 125.599 30.2299 126.076 29.347C126.586 28.3818 127.274 27.6312 128.19 27.0345C129.089 26.4419 130.049 26.1512 131.119 26.1512H131.218C132.188 26.1512 133.106 26.3424 133.972 26.7857C134.855 27.2583 135.576 27.9041 136.135 28.7535C136.678 29.6032 137.001 30.5197 137.105 31.5181C137.121 31.7256 137.129 31.9382 137.129 32.1413C137.129 33.4963 136.612 34.7513 135.576 35.8904Z" fill="#F8761F"/>
</svg>
