<svg width="160" height="72" viewBox="0 0 160 72" fill="none" xmlns="http://www.w3.org/2000/svg">
<path d="M8.40777 44.6473L12.4415 53.2957H11.5077L10.1471 50.4497H6.42102L5.07406 53.2957H4.10938L8.19618 44.6473H8.40777ZM8.29875 46.4848L6.81694 49.6148H9.77338L8.29875 46.4848Z" fill="#AB2430"/>
<path d="M12.767 51.6848L13.5022 51.2437C14.0193 52.1962 14.6175 52.6724 15.2952 52.6724C15.585 52.6724 15.8576 52.605 16.1129 52.4694C16.5903 52.2272 16.8921 51.7382 16.8947 51.2028C16.8947 50.913 16.7964 50.6283 16.6006 50.3507C16.3302 49.9663 15.836 49.5037 15.1188 48.9629C14.398 48.4178 13.949 48.024 13.7726 47.7809C13.467 47.3742 13.3142 46.9324 13.3142 46.4583C13.3102 46.0971 13.4036 45.7416 13.5846 45.429C13.7655 45.1189 14.0293 44.8653 14.3463 44.6968C14.6735 44.5182 15.0409 44.4261 15.4136 44.4291C15.821 44.4291 16.2018 44.5304 16.5569 44.7319C16.9119 44.9342 17.287 45.3057 17.6829 45.8465L16.9772 46.3815C16.6515 45.9505 16.3747 45.6665 16.1452 45.5295C15.9191 45.3931 15.6597 45.3218 15.3957 45.3236C15.0471 45.3236 14.7616 45.429 14.5407 45.6414C14.3237 45.8424 14.2029 46.1266 14.2086 46.4224C14.2086 46.6111 14.2481 46.7932 14.3263 46.9697C14.4044 47.1461 14.5479 47.3383 14.7559 47.5463C14.8692 47.6561 15.2415 47.9444 15.8726 48.4106C16.6214 48.9636 17.1342 49.4549 17.4125 49.8859C17.6908 50.3177 17.83 50.7509 17.83 51.1856C17.83 51.8132 17.5918 52.3583 17.1156 52.8202C16.6393 53.2828 16.0598 53.5137 15.3784 53.5137C14.871 53.519 14.3735 53.3727 13.9497 53.0934C13.5208 52.813 13.127 52.3432 12.767 51.6848Z" fill="#AB2430"/>
<path d="M19.4137 44.6473H20.2779V53.2957H19.4137V44.6473Z" fill="#AB2430"/>
<path d="M25.6722 44.6473L29.7052 53.2957H28.772L27.4122 50.4497H23.6868L22.3399 53.2957H21.3759L25.462 44.6473H25.6722ZM25.5624 46.4848L24.0813 49.6148H27.0378L25.5624 46.4848Z" fill="#AB2430"/>
<path d="M30.9311 53.2957V44.6473H31.1197L36.8748 51.2767V44.6473H37.7276V53.2957H37.5333L31.8241 46.7466V53.2957H30.9311Z" fill="#AB2430"/>
<path d="M49.4682 50.0973L50.0541 50.7169C49.6783 51.0505 49.3211 51.3381 48.9826 51.5798C49.2951 51.8715 49.6021 52.169 49.9035 52.472C50.2026 52.769 50.4587 53.0437 50.6738 53.2947H49.4682L48.3213 52.1127C47.6012 52.6936 47.0152 53.0716 46.5648 53.2481C46.1094 53.4251 45.6247 53.5147 45.1361 53.5121C44.4698 53.5121 43.9347 53.3205 43.5316 52.9389C43.1278 52.5567 42.9255 52.079 42.9255 51.5066C42.9255 51.0756 43.0618 50.6431 43.3337 50.2099C43.6055 49.7767 44.1613 49.2287 44.9991 48.566C44.5257 47.9936 44.2216 47.5719 44.086 47.2993C43.9505 47.0268 43.8838 46.7678 43.8838 46.5204C43.8838 46.0893 44.0502 45.7329 44.3837 45.451C44.7674 45.1225 45.2458 44.9575 45.8182 44.9575C46.1782 44.9575 46.5081 45.03 46.8058 45.1749C47.1034 45.3198 47.3308 45.5156 47.4879 45.7594C47.645 46.0047 47.7231 46.2644 47.7231 46.5383C47.7231 46.8288 47.6213 47.1372 47.4169 47.465C47.2125 47.7921 46.8101 48.2102 46.2098 48.7202L47.5209 50.0958L48.3794 50.9665C48.8406 50.6294 49.2035 50.339 49.4682 50.0973ZM45.5686 49.2186C44.8341 49.7716 44.3528 50.212 44.1248 50.5398C43.8974 50.8676 43.7834 51.1702 43.7834 51.4492C43.7834 51.7785 43.9225 52.0697 44.2015 52.3221C44.4805 52.576 44.8219 52.7015 45.2264 52.7015C45.5363 52.7006 45.8428 52.6366 46.1273 52.5136C46.5906 52.3135 47.1221 51.9743 47.721 51.4944L46.3568 50.0894C46.0878 49.8048 45.825 49.5145 45.5686 49.2186ZM45.674 48.0739C46.0936 47.749 46.4099 47.4299 46.6222 47.1157C46.7714 46.8919 46.846 46.694 46.846 46.5218C46.846 46.3224 46.7491 46.1496 46.554 46.0047C46.359 45.8598 46.1015 45.7874 45.7787 45.7874C45.4717 45.7874 45.2229 45.862 45.0299 46.0112C44.837 46.1604 44.7409 46.3368 44.7409 46.5398C44.7409 46.6968 44.7803 46.8446 44.8592 46.9809C45.0521 47.3144 45.324 47.6787 45.674 48.0739Z" fill="#AB2430"/>
<path d="M55.1241 44.6473H56.8469C57.8346 44.6473 58.5009 44.6903 58.8459 44.7764C59.3393 44.8983 59.7431 45.1486 60.0566 45.5266C60.37 45.9046 60.5264 46.3794 60.5264 46.9517C60.5264 47.5277 60.3736 48.0032 60.068 48.3776C59.7625 48.7513 59.3408 49.0037 58.8043 49.1328C58.412 49.2268 57.6797 49.2741 56.6052 49.2741H55.9884V53.295H55.1241V44.6473ZM55.9884 45.4936V48.4278L57.4523 48.445C58.044 48.445 58.4772 48.3912 58.7519 48.2836C59.0178 48.1831 59.2443 47.9998 59.3982 47.7608C59.5552 47.5205 59.6334 47.2515 59.6334 46.9539C59.6334 46.6648 59.5552 46.4002 59.3982 46.1592C59.2508 45.9268 59.0336 45.747 58.7777 45.6457C58.5217 45.5438 58.1007 45.4929 57.5168 45.4929L55.9884 45.4936Z" fill="#AB2430"/>
<path d="M64.7744 44.6473L68.8075 53.2957H67.8736L66.5137 50.4497H62.7884L61.4415 53.2957H60.4775L64.5629 44.6473H64.7744ZM64.6654 46.4848L63.1836 49.6148H66.1408L64.6654 46.4848Z" fill="#AB2430"/>
<path d="M78.0823 46.2516L77.4002 46.7744C77.0236 46.2846 76.5725 45.9138 76.0446 45.6606C75.5167 45.4074 74.9386 45.2812 74.3067 45.2812C73.6358 45.2766 72.9753 45.4477 72.391 45.7775C71.8028 46.1088 71.3474 46.5542 71.0239 47.1123C70.7005 47.6703 70.5391 48.2986 70.5391 48.9964C70.5391 50.0515 70.9006 50.9301 71.6235 51.6366C72.3465 52.3416 73.2588 52.6952 74.3605 52.6952C75.5712 52.6952 76.5854 52.2211 77.4002 51.2729L78.0823 51.7901C77.6534 52.3369 77.1001 52.7733 76.4685 53.0632C75.8237 53.3622 75.1036 53.5121 74.3074 53.5121C72.7955 53.5121 71.602 53.0086 70.7277 52.0016C69.9947 51.151 69.6282 50.1246 69.6282 48.9211C69.6282 47.6552 70.0722 46.5901 70.9601 45.7258C71.848 44.8616 72.9605 44.4291 74.296 44.4291C75.1036 44.4291 75.833 44.589 76.4828 44.9082C77.1191 45.2165 77.6687 45.6781 78.0823 46.2516Z" fill="#AB2430"/>
<path d="M79.5725 44.6473H80.4368V53.2957H79.5725V44.6473Z" fill="#AB2430"/>
<path d="M82.2975 44.6473H86.631V45.4936H83.1618V48.204H86.631V49.0511H83.1618V53.2957H82.2975V44.6473Z" fill="#AB2430"/>
<path d="M87.8925 44.6473H88.756V53.2957H87.8925V44.6473Z" fill="#AB2430"/>
<path d="M98.6709 46.2516L97.9888 46.7744C97.6324 46.3005 97.1679 45.9186 96.634 45.6606C96.0909 45.404 95.4967 45.2743 94.8961 45.2812C94.2249 45.2765 93.5642 45.4476 92.9796 45.7775C92.4113 46.0902 91.9388 46.5516 91.6126 47.1123C91.2898 47.6703 91.1277 48.2986 91.1277 48.9964C91.1277 50.0515 91.4892 50.9301 92.2122 51.6366C92.9359 52.3416 93.8475 52.6952 94.9492 52.6952C96.1599 52.6952 97.1733 52.2211 97.9881 51.2729L98.6702 51.7901C98.2411 52.3367 97.6879 52.7732 97.0564 53.0632C96.4116 53.3622 95.6915 53.5121 94.8954 53.5121C93.3827 53.5121 92.1893 53.0086 91.3157 52.0016C90.5826 51.151 90.2161 50.1246 90.2161 48.9211C90.2161 47.6552 90.6601 46.5901 91.5473 45.7258C92.4353 44.8616 93.547 44.4291 94.8839 44.4291C95.6908 44.4291 96.4202 44.589 97.0708 44.9082C97.7075 45.2161 98.2574 45.6778 98.6709 46.2516Z" fill="#AB2430"/>
<path d="M103.375 44.6473H104.24V53.2957H103.375V44.6473Z" fill="#AB2430"/>
<path d="M105.206 51.6846L105.94 51.2435C106.458 52.196 107.056 52.6723 107.733 52.6723C108.023 52.6723 108.296 52.6048 108.551 52.4693C108.806 52.3344 109 52.1537 109.134 51.9256C109.267 51.699 109.333 51.4573 109.333 51.2026C109.333 50.9129 109.235 50.6281 109.039 50.3506C108.769 49.9661 108.276 49.5035 107.558 48.9627C106.837 48.4176 106.388 48.0239 106.212 47.7807C105.906 47.374 105.753 46.9322 105.753 46.4581C105.749 46.097 105.843 45.7414 106.024 45.4289C106.204 45.1191 106.458 44.8759 106.785 44.6966C107.113 44.5173 107.468 44.4291 107.852 44.4291C108.259 44.4291 108.641 44.5302 108.996 44.7318C109.35 44.934 109.726 45.3055 110.121 45.8463L109.415 46.3814C109.09 45.9503 108.813 45.6663 108.584 45.5293C108.358 45.393 108.099 45.3218 107.835 45.3235C107.486 45.3235 107.201 45.4289 106.98 45.6412C106.757 45.8528 106.647 46.1131 106.647 46.4223C106.647 46.6109 106.686 46.7931 106.764 46.9695C106.843 47.146 106.986 47.3382 107.194 47.5462C107.307 47.6559 107.68 47.9442 108.311 48.4104C109.06 48.9634 109.573 49.4547 109.851 49.8858C110.13 50.3176 110.269 50.7508 110.269 51.1854C110.269 51.813 110.031 52.3581 109.555 52.82C109.078 53.2819 108.499 53.5136 107.817 53.5136C107.31 53.5189 106.812 53.3725 106.389 53.0933C105.96 52.8128 105.567 52.3431 105.206 51.6846Z" fill="#AB2430"/>
<path d="M111.976 44.6473H112.84V52.4608H116.168V53.2957H111.976V44.6473Z" fill="#AB2430"/>
<path d="M120.951 44.6473L124.984 53.2957H124.05L122.69 50.4497H118.965L117.617 53.2957H116.653L120.738 44.6473H120.951ZM120.841 46.4848L119.36 49.6148H122.316L120.841 46.4848Z" fill="#AB2430"/>
<path d="M126.21 53.2957V44.6473H126.397L132.154 51.2767V44.6473H133.006V53.2957H132.812L127.104 46.7466V53.2957H126.21Z" fill="#AB2430"/>
<path d="M134.99 53.2957V44.6473H136.784C138.077 44.6473 139.016 44.7513 139.599 44.9593C140.439 45.2533 141.094 45.7626 141.566 46.4877C142.039 47.2128 142.275 48.0771 142.275 49.0805C142.275 49.9462 142.087 50.7093 141.713 51.367C141.339 52.0255 140.853 52.5117 140.256 52.8245C139.658 53.1386 138.82 53.295 137.742 53.295L134.99 53.2957ZM135.82 52.478H136.819C138.014 52.478 138.843 52.4034 139.306 52.2543C139.957 52.0427 140.468 51.6625 140.841 51.1117C141.213 50.5616 141.4 49.8895 141.4 49.0948C141.4 48.2607 141.197 47.5478 140.794 46.9568C140.39 46.3658 139.827 45.9598 139.106 45.741C138.564 45.5768 137.673 45.4936 136.431 45.4936H135.82V52.478Z" fill="#AB2430"/>
<path d="M143.835 44.6473H148.792V45.4936H144.7V48.204H148.756V49.0511H144.7V52.4486H148.756V53.2957H143.835V44.6473Z" fill="#AB2430"/>
<path d="M150.211 44.6473H151.934C152.894 44.6473 153.545 44.6867 153.886 44.7649C154.377 44.8688 154.818 45.1355 155.138 45.5216C155.459 45.9082 155.62 46.3837 155.62 46.9489C155.62 47.4194 155.51 47.8339 155.288 48.1904C155.066 48.5476 154.75 48.8173 154.339 49.0002C153.927 49.1823 153.359 49.2763 152.633 49.2799L155.744 53.2957H154.674L151.564 49.2799H151.076V53.2957H150.211V44.6473ZM151.077 45.4936V48.4335L152.566 48.4457C153.143 48.4457 153.57 48.3912 153.847 48.2815C154.124 48.1725 154.34 47.9967 154.494 47.7558C154.649 47.5148 154.727 47.2451 154.727 46.9467C154.727 46.6577 154.649 46.3937 154.491 46.1563C154.343 45.9266 154.127 45.7488 153.873 45.6478C153.618 45.546 153.194 45.4943 152.602 45.4943H151.077V45.4936Z" fill="#AB2430"/>
<path d="M8.40777 59.096L12.4415 67.7444H11.5077L10.1478 64.8991H6.42102L5.07406 67.7444H4.10938L8.19546 59.096H8.40777ZM8.29875 60.9335L6.81694 64.0635H9.77338L8.29875 60.9335Z" fill="#AB2430"/>
<path d="M13.2664 67.7437L14.5043 59.096H14.6456L18.1615 66.1916L21.643 59.096H21.7814L23.0258 67.7437H22.1788L21.3245 61.559L18.2662 67.7437H18.0453L14.9512 61.5123L14.1013 67.7437H13.2664Z" fill="#AB2430"/>
<path d="M24.6101 59.096H29.5662V59.9423H25.4744V62.6527H29.5311V63.4991H25.4744V66.8981H29.5311V67.7437H24.6101V59.096Z" fill="#AB2430"/>
<path d="M30.9865 59.096H32.7092C33.6689 59.096 34.3202 59.1354 34.6608 59.2136C35.1516 59.3175 35.5929 59.5842 35.9131 59.9703C36.2345 60.3569 36.3951 60.8324 36.3951 61.3976C36.3951 61.8681 36.2847 62.2827 36.063 62.6398C35.8414 62.997 35.5251 63.2667 35.1134 63.4489C34.7017 63.6311 34.133 63.725 33.4086 63.7293L36.5185 67.7444H35.4491L32.3392 63.7293H31.8507V67.7444H30.9865V59.096ZM31.8514 59.9423V62.8823L33.3411 62.8945C33.9185 62.8945 34.3453 62.8399 34.6221 62.7295C34.8889 62.6284 35.116 62.4441 35.2698 62.2038C35.4249 61.9629 35.506 61.6819 35.5029 61.3954C35.5029 61.1057 35.424 60.8417 35.2669 60.6043C35.1187 60.3746 34.9026 60.1969 34.6487 60.0958C34.3933 59.994 33.9694 59.943 33.377 59.943H31.8514V59.9423Z" fill="#AB2430"/>
<path d="M38.0037 59.096H38.8679V67.7444H38.0037V59.096Z" fill="#AB2430"/>
<path d="M48.7831 60.7013L48.101 61.2242C47.7245 60.7343 47.2726 60.3635 46.7455 60.1103C46.2183 59.8572 45.6395 59.7316 45.0083 59.7316C44.3183 59.7316 43.6793 59.8966 43.0912 60.228C42.5229 60.5402 42.0506 61.0014 41.7248 61.562C41.4014 62.1207 41.24 62.7483 41.24 63.4462C41.24 64.5013 41.6015 65.3806 42.3244 66.0863C43.0474 66.7921 43.9597 67.145 45.0607 67.145C46.2721 67.145 47.2856 66.6709 48.1003 65.7227L48.7824 66.2405C48.3514 66.7892 47.8134 67.2131 47.1686 67.5129C46.5238 67.8127 45.8037 67.9626 45.0083 67.9626C43.4957 67.9626 42.3015 67.4584 41.4279 66.4521C40.6949 65.6008 40.3284 64.5744 40.3284 63.3709C40.3284 62.105 40.7723 61.0399 41.6596 60.1763C42.5475 59.3113 43.6592 58.8788 44.9954 58.8788C45.803 58.8788 46.5317 59.0395 47.183 59.3587C47.8202 59.6655 48.3703 60.1271 48.7831 60.7013Z" fill="#AB2430"/>
<path d="M53.9308 59.096L57.9638 67.7444H57.0307L55.6708 64.8991H51.9455L50.5985 67.7444H49.6346L53.7207 59.096H53.9308ZM53.8211 60.9335L52.34 64.0635H55.2964L53.8211 60.9335Z" fill="#AB2430"/>
<path d="M59.1894 67.7437V59.096H59.3773L65.1331 65.7247V59.096H65.9852V67.7437H65.7916L60.0824 61.1946V67.7437H59.1894Z" fill="#AB2430"/>
<path d="M71.1719 59.096H72.0354V62.723H76.44V59.096H77.3035V67.7437H76.44V63.5701H72.0354V67.7437H71.1719V59.096Z" fill="#1A1919"/>
<path d="M79.294 59.096H84.2501V59.9423H80.1583V62.6528H84.215V63.4991H80.1583V66.8981H84.215V67.7437H79.294V59.096Z" fill="#1A1919"/>
<path d="M89.1566 59.096L93.1896 67.7444H92.2557L90.8958 64.8991H87.1705L85.8236 67.7444H84.8589L88.945 59.096H89.1566ZM89.0468 60.9335L87.5657 64.0636H90.5215L89.0468 60.9335Z" fill="#1A1919"/>
<path d="M94.4088 59.096H95.2731V66.9088H98.6003V67.7437H94.4088V59.096Z" fill="#1A1919"/>
<path d="M98.4398 59.9423V59.096H103.177V59.9423H101.249V67.7437H100.368V59.9423H98.4398Z" fill="#1A1919"/>
<path d="M104.293 59.096H105.156V62.723H109.56V59.096H110.424V67.7437H109.56V63.5701H105.156V67.7437H104.293V59.096Z" fill="#1A1919"/>
<path d="M115.621 59.096H119.955V59.9423H116.485V62.6528H119.955V63.4991H116.485V67.7437H115.621V59.096Z" fill="#1A1919"/>
<path d="M125.457 58.8778C126.768 58.8778 127.863 59.3153 128.747 60.1889C129.628 61.0632 130.07 62.1398 130.07 63.4165C130.07 64.6831 129.629 65.7568 128.749 66.6383C127.869 67.5198 126.795 67.9616 125.528 67.9616C124.246 67.9616 123.164 67.5226 122.281 66.6447C121.399 65.7661 120.957 64.7046 120.957 63.4581C120.957 62.6275 121.158 61.8572 121.561 61.1479C121.963 60.4385 122.51 59.8827 123.204 59.481C123.899 59.0794 124.649 58.8778 125.457 58.8778ZM125.496 59.7184C124.856 59.7184 124.249 59.8855 123.676 60.219C123.116 60.5394 122.652 61.0047 122.334 61.566C122.012 62.1312 121.851 62.7609 121.851 63.4552C121.851 64.483 122.207 65.3509 122.919 66.0588C123.632 66.7674 124.49 67.1203 125.496 67.1203C126.167 67.1203 126.789 66.9575 127.359 66.6318C127.92 66.3182 128.382 65.8561 128.696 65.2963C129.016 64.7319 129.177 64.1043 129.177 63.4136C129.177 62.7272 129.016 62.1068 128.696 61.5517C128.374 60.9939 127.907 60.5335 127.345 60.219C126.784 59.891 126.146 59.7182 125.496 59.7184Z" fill="#1A1919"/>
<path d="M131.73 59.096H133.453C134.413 59.096 135.064 59.1354 135.405 59.2136C135.896 59.3176 136.337 59.5842 136.658 59.9703C136.978 60.3569 137.14 60.8324 137.14 61.3976C137.14 61.8681 137.029 62.2827 136.808 62.6398C136.585 62.997 136.269 63.2667 135.858 63.4489C135.446 63.6311 134.878 63.725 134.152 63.7293L137.263 67.7444H136.194L133.084 63.7293H132.595V67.7444H131.73V59.096ZM132.595 59.9423V62.8823L134.085 62.8945C134.662 62.8945 135.088 62.84 135.365 62.7295C135.643 62.6205 135.859 62.4448 136.013 62.2038C136.168 61.9631 136.249 61.6819 136.245 61.3954C136.245 61.1057 136.167 60.8417 136.01 60.6043C135.862 60.3746 135.646 60.1969 135.392 60.0958C135.137 59.994 134.713 59.943 134.12 59.943H132.595V59.9423Z" fill="#1A1919"/>
<path d="M138.899 59.096H139.764V64.3168C139.764 64.9357 139.776 65.3216 139.8 65.4744C139.843 65.8158 139.942 66.1005 140.099 66.3293C140.256 66.5588 140.497 66.7511 140.822 66.906C141.148 67.0609 141.475 67.1384 141.804 67.1384C142.09 67.1384 142.364 67.0774 142.627 66.9555C142.889 66.8343 143.11 66.6664 143.285 66.4505C143.462 66.2346 143.592 65.9736 143.673 65.668C143.732 65.4486 143.762 64.9981 143.762 64.316V59.0953H144.626V64.316C144.626 65.0878 144.551 65.7118 144.4 66.188C144.249 66.6643 143.947 67.0781 143.494 67.431C143.042 67.7839 142.493 67.9603 141.851 67.9603C141.153 67.9603 140.556 67.7939 140.058 67.4604C139.56 67.1269 139.227 66.6865 139.058 66.1378C138.953 65.8007 138.899 65.1932 138.899 64.3153V59.096" fill="#1A1919"/>
<path d="M146.24 67.7437L147.479 59.096H147.619L151.136 66.1916L154.617 59.096H154.755L156 67.7437H155.152L154.298 61.559L151.24 67.7437H151.019L147.925 61.5124L147.075 67.7437H146.24Z" fill="#1A1919"/>
<path d="M119.619 16.8458H109.326V4.05174H99.6084V40.3596H109.326V25.3802H119.619V40.3596H129.336V4.05174H119.619V16.8458Z" fill="#1A1919"/>
<path d="M155.761 12.6967V4.04895L130.992 4.09987V40.3597H140.71V26.2911H155.576V17.7108H140.71V12.7411L155.761 12.6967Z" fill="#1A1919"/>
<path d="M22.0499 4.03735L38.9889 40.3596H35.0685L29.3557 28.409H13.7078L8.04951 40.3596H4L21.1613 4.03735H22.0499ZM21.5916 11.7548L15.3675 24.9024H27.7857L21.5916 11.7548Z" fill="#AB2430"/>
<path d="M39.0311 4.03735H46.2665C50.415 4.03735 53.2137 4.2181 54.6618 4.5803C56.736 5.09097 58.4308 6.14029 59.7484 7.72896C61.066 9.31764 61.7237 11.3137 61.7237 13.7172C61.7237 16.1371 61.0817 18.1332 59.7979 19.7054C58.5133 21.2775 56.7439 22.3347 54.4889 22.8777C52.8429 23.2729 49.7638 23.4708 45.2538 23.4708H42.661V40.3596H39.0311V4.03735ZM42.661 7.59341V19.9148L48.8091 19.9887C51.2943 19.9887 53.114 19.7635 54.2658 19.3116C55.4177 18.8597 56.3236 18.1289 56.982 17.1183C57.6397 16.1084 57.9697 14.9788 57.9697 13.7294C57.9782 12.5432 57.6345 11.3812 56.982 10.3906C56.3236 9.38004 55.455 8.66137 54.377 8.23461C53.299 7.80714 51.5332 7.59341 49.0802 7.59341H42.661Z" fill="#AB2430"/>
<path d="M62.9022 4.03735H66.5322V40.3596H62.9022V4.03735Z" fill="#AB2430"/>
<path d="M84.1311 4.03735L101.07 40.3596H97.1489L91.4361 28.409H75.7889L70.1299 40.3596H66.0804L83.2417 4.03735H84.1311ZM83.6721 11.7548L77.4486 24.9024H89.8668L83.6721 11.7548Z" fill="#AB2430"/>
</svg>
