<svg width="160" height="56" viewBox="0 0 160 56" fill="none" xmlns="http://www.w3.org/2000/svg">
<path fill-rule="evenodd" clip-rule="evenodd" d="M119.467 16.2924C117.852 16.2686 116.851 14.4102 117.716 11.9091C117.799 11.6669 118.558 10.776 118.575 10.7893C118.612 10.8179 117.936 12.2156 118.254 12.1738C118.284 12.1698 118.715 10.9931 118.976 10.6526C119.189 10.3756 120.572 7.87367 120.35 7.70342C120.277 7.6472 120.272 9.14771 120.287 9.13781C120.474 9.0111 121.361 7.10296 121.302 6.65524C121.278 6.46855 121.296 5.98757 121.37 5.89139C121.385 5.87081 121.312 5.56339 121.326 5.56155C121.383 5.5541 121.415 6.87165 121.417 6.89177C121.549 7.88975 121.494 9.39942 120.879 9.81482C120.626 9.98604 120.332 10.7571 120.307 10.5613C120.285 10.3941 120.688 10.5475 120.791 10.4137C120.861 10.3217 121.497 9.64958 121.528 9.64551C121.615 9.63407 121.467 9.81683 121.478 9.90375C121.556 10.4921 120.011 12.1408 120.062 12.523C120.071 12.5955 121.315 11.8463 121.316 11.8546C121.361 12.1946 120.919 12.8546 120.726 13.1067C120.618 13.2476 120.473 13.7385 120.45 13.5625C120.447 13.5411 120.92 13.5295 120.945 13.4973C120.981 13.4507 121.453 12.9978 121.561 13.0806C121.798 13.2626 121.566 14.2336 121.405 14.4434C121.313 14.5632 121.083 14.5729 121.014 14.6626C120.99 14.6937 120.948 14.7948 120.943 14.7559C120.92 14.5798 122.377 14.4326 121.904 15.0488C121.423 15.6752 120.343 15.9942 119.467 16.2924Z" fill="#5A8CE6"/>
<path fill-rule="evenodd" clip-rule="evenodd" d="M118.92 15.7416C118.84 15.7266 118.667 15.7758 118.682 15.6964C118.697 15.617 118.98 15.7954 118.92 15.7416C118.866 15.6936 118.615 15.6925 118.561 15.6445C118.459 15.554 118.369 15.4177 118.247 15.3091C118.187 15.2559 118.268 15.0288 118.227 14.9568C117.997 14.5566 117.484 13.4149 117.877 12.974C117.965 12.8757 117.887 12.4433 117.964 12.4388C118.017 12.4358 118.187 12.9719 118.233 13.0125C118.239 13.018 118.403 13.0085 118.409 13.0023C118.483 12.9196 118.469 12.622 118.558 12.5225C118.852 12.1925 119.005 11.6459 119.313 11.301C119.672 10.8978 119.67 10.3998 119.95 10.0862C119.976 10.0569 119.904 9.971 119.943 9.96875C119.971 9.96709 119.8 10.4339 119.794 10.4486C119.67 10.7368 119.33 11.6073 119.34 11.7707C119.343 11.8363 119.281 11.9413 119.291 11.9502C119.417 12.0623 119.887 11.268 120.017 11.2605C120.03 11.2596 119.775 11.6902 119.751 11.7471C119.688 11.892 119.033 13.5031 119.213 13.663C119.243 13.6898 120.052 12.8994 120.056 12.9666C120.064 13.1002 119.455 14.38 119.616 14.5235C119.672 14.5733 120.725 13.8413 120.818 13.9242C120.884 13.9824 120.119 14.6938 120.22 14.7833C120.353 14.9023 120.711 14.7203 120.872 14.8636C121.231 15.1834 119.813 15.8081 119.514 15.8253C119.414 15.8311 119.01 15.7544 118.92 15.7416V15.7416Z" fill="#C8DCEB"/>
<path fill-rule="evenodd" clip-rule="evenodd" d="M7.88836 29.461C7.82573 29.4738 7.65795 29.6126 7.61805 29.6325C7.402 29.7405 7.11132 29.8066 6.95268 29.9652C6.7731 30.1448 6.53184 30.2197 6.32889 30.4226C6.19027 30.5613 6.09324 30.7415 5.95462 30.8801C5.90182 30.9329 6.11943 31.376 6.16255 31.4623C6.2455 31.6282 6.24467 31.8345 6.32889 32.0029C6.40668 32.1585 6.44496 32.7428 6.53682 32.8346C6.62384 32.9216 6.57884 32.8341 6.61999 32.793C6.63995 32.7731 6.69716 32.8822 6.74475 32.8346C6.84764 32.7317 7.08184 32.7908 7.24378 32.7099C7.52927 32.5671 8.18447 32.7385 8.49135 32.5851C8.639 32.5113 8.83704 32.462 9.04236 32.4292C9.05555 32.4415 9.06561 32.4533 9.07875 32.4655C9.07725 32.469 9.07504 32.4725 9.07356 32.4759C9.10411 32.4976 9.13246 32.5214 9.16193 32.5435C9.24172 32.6151 9.32033 32.6818 9.36466 32.7047C9.36565 32.7055 9.36885 32.7038 9.36985 32.7047C9.54465 32.8521 9.71142 33.015 9.91046 33.2141C10.1993 33.5029 10.661 35.5553 10.7318 35.6261C11.0297 35.9239 11.0514 36.8866 11.3192 37.1543C11.4727 37.3078 11.542 37.4967 11.6727 37.6274C11.835 37.7897 12.1224 37.8432 12.2601 37.9808C12.434 38.1548 13.3603 37.0573 13.4972 36.9204C13.5564 36.8613 13.6368 36.6516 13.674 36.6293C13.7645 36.575 13.9179 36.6042 13.9651 36.5098C13.9769 36.4861 13.9538 36.4716 13.9183 36.463L12.4368 34.9191C12.1574 34.9191 11.8775 33.6529 11.6155 33.3908C10.8231 32.5984 10.2543 31.9381 9.58297 31.2492C9.46116 31.029 9.36164 30.7939 9.15672 30.589C8.96405 30.3963 8.67361 30.205 8.53294 29.9236C8.50055 29.8589 8.13386 29.4707 8.01311 29.4974C8.00506 29.4991 7.99801 29.5021 7.99232 29.5078C7.98469 29.5154 7.97877 29.5255 7.97153 29.5337C7.95466 29.5131 7.93323 29.4902 7.90915 29.4662C7.90523 29.4622 7.8973 29.4591 7.88836 29.461Z" fill="#E6B35A"/>
<path fill-rule="evenodd" clip-rule="evenodd" d="M20.9463 16.7773C20.9167 16.8184 20.8298 16.9218 20.8163 16.9489C20.7987 16.9841 20.7727 17.0239 20.7487 17.0632C20.7804 17.0249 20.8127 16.9837 20.8475 16.9489C20.878 16.9184 20.9205 16.8267 20.9463 16.7773ZM20.7487 17.0632C20.4471 17.4288 20.2756 17.9314 19.9638 18.2432C19.7254 18.4816 19.5372 18.8099 19.6727 18.9502L19.8754 18.8046C19.8229 18.6995 19.9119 18.581 19.9638 18.4771C19.9954 18.4139 20.0834 18.2297 20.0834 18.3004C20.0834 18.4131 20.4611 18.5413 20.6136 18.3888C20.8154 18.187 20.4025 17.922 20.5512 17.6246C20.5897 17.5476 20.6396 17.4218 20.6396 17.3335C20.6396 17.2486 20.6945 17.1522 20.7487 17.0632ZM18.8774 19.4856C18.4454 19.5619 18.0198 19.699 17.6454 19.8599C17.2702 19.8948 16.8961 19.9302 16.5486 20.0522C15.536 20.4076 14.5801 20.8242 13.6199 21.2083C13.2259 21.366 12.8312 21.5182 12.4316 21.6585C12.1197 21.7679 11.777 22.0267 11.4662 22.262C11.258 22.4196 11.0641 22.5667 10.9033 22.6513C10.0897 23.0798 9.32072 23.5235 8.56413 23.9717C8.47959 24.1686 8.46093 24.3735 8.57452 24.6006C8.67256 24.7967 8.78395 24.9189 8.90201 24.9957C9.62846 24.5762 10.3865 24.222 11.2568 23.7637C11.6699 23.5462 13.4286 22.3718 13.8455 22.1523C14.4017 21.8594 15.248 21.7023 16.0807 21.5337C16.328 21.2733 16.6894 21.172 17.1048 21.175C17.2314 21.1759 17.3652 21.1871 17.4999 21.2062C17.6037 21.1801 17.6885 21.1695 17.7234 21.2062C17.7415 21.2253 17.7593 21.2477 17.7806 21.2634C17.9662 21.3038 18.154 21.3508 18.342 21.4141C18.768 21.4522 19.2713 21.4345 19.5531 21.7312C20.0361 22.2399 21.1371 22.6139 21.7156 23.2231C22.0809 23.6078 22.0636 24.3934 22.2978 24.8865C22.3938 25.0888 22.7481 26.6854 22.7241 26.9554C22.7204 26.9108 22.7155 26.8675 22.6981 26.8307C22.6221 26.6706 22.4803 26.2636 22.4018 26.1809L22.1367 25.9054C22.0898 25.856 21.9978 25.874 21.9391 25.8586C21.9388 25.8585 21.9395 25.8535 21.9391 25.8534C21.9351 25.8419 21.9309 25.8352 21.9235 25.8274C21.8252 25.7239 21.7142 25.7723 21.6116 25.7183C21.5676 25.6951 21.5079 25.7194 21.4661 25.6975C21.0433 25.4749 20.6552 26.1677 20.6552 26.55C20.6552 26.7709 21.0128 27.2295 21.2894 27.2985C21.3481 27.2398 21.5903 27.2546 21.6688 27.2154C21.7768 27.1614 21.9179 27.0386 21.9963 27.0386C22.0151 27.0386 21.8428 27.1609 21.7312 27.2725C21.6804 27.3233 21.5725 27.3908 21.4765 27.4701C21.4927 27.5306 21.5104 27.5903 21.5493 27.6312C21.564 27.6467 21.5346 27.7093 21.5493 27.7248C21.6224 27.8018 21.6463 27.9135 21.648 28.0367C21.7949 28.0331 21.9603 28.0055 22.0535 28.0055C22.2068 28.0055 22.3758 27.913 22.3758 27.9483C22.3758 27.9899 21.9966 28.047 21.9339 28.0679C21.8326 28.1016 21.7367 28.1295 21.6428 28.1614C21.634 28.2808 21.6149 28.4031 21.6065 28.5149C21.6031 28.5152 21.5994 28.5146 21.5961 28.5149C21.5699 28.9007 21.5045 29.2803 21.4141 29.6481C21.4156 29.6933 21.4167 29.7382 21.4193 29.7833C21.3677 29.9238 21.3089 30.0571 21.253 30.1887C20.4253 32.6903 18.3298 34.6096 17.136 34.9139C17.1527 34.9245 17.1711 34.9302 17.188 34.9399C16.6387 35.0797 16.1231 35.2361 15.8416 35.5325C15.7872 35.5898 15.5644 35.4951 15.4933 35.5325C14.045 36.2952 12.0273 36.0862 11.0229 37.1439C10.4036 37.7961 15.0927 36.5254 15.1399 36.5254C15.5443 36.5254 16.4248 36.3394 16.7825 36.1511C16.9568 36.0593 17.4099 36.1511 17.609 36.1511C18.45 36.1511 19.0579 36.3422 19.7091 36.6501C19.86 36.5543 19.9841 36.4942 20.0522 36.4942C20.1664 36.4942 21.1319 36.2142 21.5337 36.1563C21.4059 36.1127 21.2583 36.0201 21.2374 35.9068C20.7403 35.7879 20.32 35.6624 20.0782 35.4077C20.0731 35.4024 20.0704 35.3985 20.0678 35.3922C20.0322 35.3695 19.9997 35.3413 19.969 35.309C19.9568 35.2961 19.7195 35.3193 19.7195 35.309C19.7195 35.2459 20.9439 34.2818 21.1334 34.0822C21.4333 33.7664 21.7397 33.7054 22.0483 33.3804C22.5672 32.834 23.3591 32.0868 23.8781 31.5403C23.8932 31.5562 24.967 30.6581 25.0425 30.5786C25.2479 30.3623 25.4655 30.2005 25.6766 30.0432C25.6771 30.041 25.6813 30.0401 25.6818 30.038C25.7647 29.7238 26.0851 29.3041 26.1237 29.2635C26.1921 29.1915 26.2478 29.0863 26.3004 28.9672C26.2968 28.9211 26.29 28.8484 26.29 28.8268C26.29 28.1024 26.3151 27.415 26.3368 26.7371C26.4031 26.0785 26.4207 25.3801 26.3784 24.7254C26.3879 24.3124 26.4592 22.4352 26.3732 22.3446C26.2485 22.2132 26.0821 22.1277 25.9574 21.9963C25.9129 21.9495 25.8434 21.9303 25.7598 21.9236C25.6142 21.9654 25.4784 22.0023 25.4583 22.0223C25.3505 22.1302 25.1702 22.1857 25.0425 22.3134C24.9471 22.4088 24.8453 22.5938 24.7098 22.7293C24.5789 22.8602 24.4998 22.9809 24.3771 23.1036C24.3753 23.1054 24.2523 23.3158 24.2523 23.2699C24.2523 23.2533 24.3588 23.1218 24.3771 23.1036C24.4712 23.0094 24.4571 22.774 24.5434 22.6877C24.8018 22.4293 25.1844 22.1686 25.3232 21.7624C25.3131 21.7531 25.2991 21.7387 25.292 21.7312C25.1639 21.5964 24.9295 21.461 24.6422 21.3258C24.6423 21.3707 24.6396 21.4142 24.6266 21.4401C24.5301 21.6332 24.2382 22.1612 24.1276 22.2718C24.0979 22.3015 24.073 22.3819 24.0496 22.459C24.0485 22.4809 24.0444 22.5062 24.0444 22.5214C24.0444 22.5385 24.0267 22.5595 24.0081 22.5785C23.9927 22.6179 23.9787 22.6461 23.9613 22.6461C23.9285 22.6461 23.9725 22.6148 24.0081 22.5785C24.0215 22.544 24.0361 22.5036 24.0496 22.459C24.0559 22.3423 24.0794 22.1537 24.1692 22.0639C24.1956 22.0375 24.1519 21.9322 24.1692 21.8976C24.2277 21.7805 24.3833 21.3277 24.3355 21.2322C24.3294 21.2199 24.3258 21.1999 24.32 21.1802C24.318 21.1794 24.3168 21.1758 24.3148 21.175C23.3468 20.774 21.9927 20.3889 21.383 20.0678C21.123 19.9309 20.7966 19.9735 20.6344 19.8027C20.3083 19.4593 19.2833 20.0043 18.8774 19.4856Z" fill="#E6B35A"/>
<path fill-rule="evenodd" clip-rule="evenodd" d="M43.7144 19.3245C44.0153 19.8413 45.1169 20.2028 45.0712 20.5668C44.2733 21.1554 43.1492 21.4673 42.7632 22.5006C42.4223 22.976 42.1203 23.469 41.8535 23.9873C41.7611 24.1013 41.6679 24.2092 41.578 24.2991C41.5005 24.3766 41.4198 24.5532 41.37 24.6526C41.3219 24.749 41.1934 24.8917 41.1361 24.9489C40.9912 25.0938 40.845 25.5052 40.6943 25.6559C40.6911 25.6591 40.6833 25.6807 40.6787 25.6871C40.5419 25.7496 40.3842 25.8109 40.2264 25.8898C40.0814 25.9623 39.925 25.908 39.7846 25.9782C39.7718 25.9846 39.7531 25.9829 39.7326 25.9782C39.8 26.0091 40.3783 26.1549 40.4292 26.1549C40.5733 26.1549 40.7645 26.2143 40.9542 26.2953C40.9559 26.2969 40.9577 26.2988 40.9594 26.3005C40.9651 26.3062 40.999 26.3223 41.0426 26.3368C41.1067 26.3661 41.1634 26.3945 41.2245 26.4252C41.1265 26.4091 40.9466 26.3742 40.7463 26.3316C40.7398 26.3611 40.7312 26.3904 40.7255 26.42C40.825 26.5195 40.9639 26.6013 41.0478 26.6851C41.055 26.6924 41.1673 26.6946 41.1673 26.7111C41.1673 26.7503 41.087 26.7111 41.0478 26.7111C40.9989 26.7111 40.8455 26.6951 40.6891 26.6747C40.6622 26.9131 40.6573 27.1562 40.6839 27.4077C40.6803 28.1623 40.6647 28.9175 40.6579 29.6741C40.6574 29.6758 40.6584 29.6777 40.6579 29.6793C40.6184 29.8233 40.6386 29.9968 40.6527 30.1679C40.6524 30.27 40.6524 30.3725 40.6527 30.4746C40.6519 30.4798 40.6537 30.4851 40.6527 30.4902C40.6442 30.5365 40.6265 30.5842 40.6059 30.6254C40.5785 30.6802 40.6334 30.7732 40.6059 30.8281C40.4796 31.0807 40.3867 31.2976 40.2836 31.5038C40.2435 31.5842 40.0546 31.987 40.1641 32.0964C40.2113 32.1437 40.2713 32.2556 40.3148 32.2992C40.3475 32.3319 40.465 32.3304 40.5176 32.3304C40.587 32.3304 40.6473 32.3126 40.7047 32.294C40.7248 32.6571 40.7501 33.0186 40.7879 33.3804C41.2529 34.2735 42.1386 34.8743 42.8516 35.5481C43.6926 36.3356 44.7393 36.8233 45.5806 37.5962C46.1041 38.2175 46.7167 39.7364 47.6183 38.7606C48.9014 37.8031 50.3517 37.0633 51.4338 35.8288C52.056 35.7436 52.5393 34.9948 53.0972 34.6228C53.485 34.073 52.9013 33.3084 53.2948 32.7306C53.5118 32.0798 53.3125 31.3348 53.3675 30.6513C53.3382 28.6754 53.3174 26.6995 53.2272 24.7254C53.7704 24.9113 53.7889 25.111 53.6223 25.6195C53.6563 26.7376 55.0273 26.7847 55.1089 25.6455C55.2372 24.7264 54.4349 24.299 53.9186 23.7585C53.1924 23.2765 52.4803 22.827 51.6677 22.5213C51.0175 22.2462 50.2619 22.1571 49.7392 21.6168C49.0138 21.3071 48.2893 21.0293 47.5299 20.8319C46.8849 20.4533 46.2576 20.0958 45.539 19.891C44.9519 19.6344 44.3252 19.5013 43.7144 19.3245ZM47.244 21.9288C47.8143 22.1645 48.3498 22.5784 48.9179 22.8592C49.4912 23.3527 50.4963 23.3635 50.6749 24.242C50.7359 24.412 50.7912 24.5829 50.836 24.7566C50.8183 24.7744 50.7934 24.7992 50.784 24.8086C50.6738 24.9188 50.9504 25.2245 50.9504 25.3908C50.9504 25.5606 50.7871 25.5957 50.7008 25.6819C50.5853 25.7974 50.6644 27.1686 50.5345 27.4285C50.4754 27.5468 50.528 27.9755 50.4513 28.0523C50.2185 28.2851 50.3455 29.969 50.1186 30.4226C50.0006 30.6588 50.1602 31.1433 50.1602 31.3791V31.795C50.1602 31.8415 50.112 31.9131 50.1186 31.9197C50.1887 31.9898 50.4228 31.9328 50.4929 32.0029C50.7063 32.2163 50.1293 32.471 50.1602 32.5019C50.1689 32.5106 50.5345 32.7292 50.5345 32.7514C50.5345 32.7724 50.1485 32.8463 50.1186 32.8762C50.05 32.9448 49.958 34.8781 50.0355 34.9555C50.1396 35.0597 50.2827 35.0967 50.4253 35.101C49.5665 35.6248 48.7457 36.2521 47.8262 36.6397C47.8201 36.644 47.8118 36.6459 47.8054 36.6501C47.6291 36.7662 47.3799 36.8369 47.2232 36.9152C47.1364 36.9587 46.8919 37.1543 46.8386 37.1543C46.8288 37.1543 46.9754 37.0747 47.0465 37.0036C47.0856 36.9645 47.3 36.8016 47.452 36.6345C47.4258 36.5147 47.4049 36.3921 47.3844 36.2654C47.1672 36.2855 46.8698 36.4104 46.8698 36.359C46.8698 36.3091 47.1763 36.1079 47.3376 35.9899C47.2906 35.7134 47.2311 35.4408 47.1193 35.205C47.0345 35.243 46.9435 35.282 46.8698 35.3557C46.9193 35.2922 46.9829 35.2167 47.0465 35.153C47.0583 35.1412 47.0667 35.1333 47.0777 35.1218C46.968 34.924 46.8126 34.755 46.5839 34.6436C45.8056 34.1805 44.9968 33.8023 44.1095 33.6559C43.0834 33.7757 42.7415 32.711 42.9243 31.8002C43.0746 30.5701 43.1139 29.3334 43.0751 28.0938C43.1125 27.6501 43.0404 27.17 43.0543 26.7163C43.084 26.7381 43.1682 26.7471 43.1946 26.7735C43.2041 26.783 43.2469 26.8619 43.2518 26.8619C43.2548 26.8619 43.5147 26.4222 43.5481 26.3888C43.9529 25.9841 44.0415 25.3704 44.4318 24.9801C44.503 24.9089 44.5061 24.7862 44.5773 24.715C44.6918 24.6006 45.0192 24.3298 45.0192 24.216C45.0192 24.117 44.832 23.8499 44.7125 23.7118C44.741 23.6625 44.773 23.6159 44.8009 23.5662C44.8043 23.5665 44.8079 23.5662 44.8113 23.5662C44.9452 23.5662 45.0516 23.5669 45.1647 23.6234C45.2103 23.6462 45.6504 22.9236 45.7521 22.7709C45.7849 22.7218 45.9215 22.5413 46.0484 22.3654C46.3931 22.2159 46.7601 22.1024 47.0933 21.96L47.244 21.9288ZM39.5559 25.9262C39.5296 25.9244 39.5059 25.9294 39.4883 25.947C39.4587 25.9766 39.654 25.956 39.717 25.9782C39.668 25.9639 39.6069 25.9296 39.5559 25.9262ZM46.8646 35.3609C46.8524 35.378 46.8064 35.4753 46.7814 35.4753C46.7804 35.4753 46.8145 35.4255 46.8646 35.3609Z" fill="#E6B35A"/>
<path fill-rule="evenodd" clip-rule="evenodd" d="M56.159 17.7962C56.1381 17.8253 56.1165 17.8506 56.0914 17.8742C56.1119 17.9008 56.1321 17.9304 56.1486 17.9469C56.1884 17.9868 56.3149 18.0753 56.3149 18.1549C56.3149 18.2005 56.7004 18.7899 56.7724 18.8618C57.1239 19.2134 57.4102 20.0203 57.4429 20.7072C57.3832 20.6552 57.3201 20.6062 57.2558 20.5564C57.2474 20.5466 57.2384 20.5338 57.2298 20.5252C56.6966 19.992 56.1487 19.3194 55.608 18.7786C55.5134 18.684 55.3513 18.6052 55.2337 18.4875C55.1733 18.4272 54.7432 18.1048 54.7347 18.1133C54.6366 18.2113 54.9842 18.3073 54.9842 18.446C54.9842 18.5156 55.7935 19.6328 55.7743 19.6519C55.7221 19.7042 55.656 19.6168 55.6495 19.6104C55.6437 19.6045 55.5694 19.6003 55.4676 19.6C55.443 19.5947 55.4218 19.5916 55.4104 19.6C55.3789 19.6001 55.3478 19.6047 55.3117 19.6052C55.2574 19.5875 55.2053 19.5688 55.1505 19.5688C54.9765 19.5688 54.8046 19.597 54.6255 19.6207C54.5717 19.6226 54.5143 19.6239 54.4643 19.6259C54.4838 19.6278 54.5019 19.6337 54.5215 19.6363C54.4295 19.6466 54.3369 19.6519 54.2356 19.6519C54.2256 19.6519 54.1957 19.6557 54.1784 19.6571C54.183 19.6549 54.1897 19.6541 54.194 19.6519C54.2087 19.6446 54.2285 19.6409 54.246 19.6363C54.1336 19.6423 54.0322 19.6475 54.0277 19.6519C54.0171 19.6625 54.0056 19.6746 53.9913 19.6831C53.8428 19.7067 53.6828 19.7381 53.6274 19.7767C53.5728 19.7879 53.5229 19.8004 53.4871 19.8183C53.3858 19.8689 53.2376 19.9438 53.2376 19.943C53.2376 19.9336 53.4422 19.8855 53.6742 19.8235C53.8444 19.8296 54.3206 19.7966 54.4435 19.7351C54.686 19.6139 55.0922 19.9958 55.3584 19.8183C55.3787 19.8047 55.3979 19.7829 55.4156 19.7611C55.4589 19.7704 55.5013 19.781 55.5456 19.7923C55.5341 19.8173 55.5248 19.8394 55.5248 19.8598C55.5248 19.9292 55.6634 19.8598 55.7327 19.8598C55.7783 19.8598 55.8867 19.9237 55.9302 19.9066C56.1362 19.983 56.3325 20.0783 56.4916 20.1873C56.4779 20.1937 56.4641 20.196 56.4501 20.2029C56.445 20.2011 56.4394 20.1998 56.4345 20.1977C56.434 20.2011 56.435 20.2048 56.4345 20.2081C56.0991 20.3768 55.7138 20.6636 55.426 20.9515C55.2865 21.0909 55.302 21.429 55.1921 21.5389C54.9962 21.7347 55.1924 22.4419 55.1973 22.5733C55.2365 22.471 55.4631 22.0573 55.4884 22.0067C55.5971 21.7892 55.9475 21.6015 56.3253 21.5129C56.3076 22.5189 56.3952 23.548 56.3097 24.5382C56.1845 25.989 56.1895 27.5293 56.3669 28.9671C56.409 29.3086 56.2894 33.1612 56.4293 33.3232C56.5798 33.4976 56.789 33.7897 56.9543 34.077C57.6734 35.3262 58.6673 36.3303 59.2519 37.6845L59.7197 38.771C59.7379 38.813 59.8851 39.0906 59.9017 39.166C59.9472 39.0878 60.2242 38.7888 60.3071 38.5006C60.5325 37.7176 61.0019 37.1783 61.4248 36.5253C62.0023 35.6335 62.8426 34.7541 63.3689 34.1445C63.4799 34.016 63.5086 33.8444 63.5456 33.6767C64.1393 34.3814 64.7636 35.0836 65.3442 35.834C65.345 35.835 65.3434 35.8381 65.3442 35.8391C65.4098 35.9411 65.5006 36.0554 65.5989 36.1718C65.6025 36.176 65.6057 36.178 65.6093 36.1822C65.7894 36.4263 65.9627 36.6789 66.1291 36.936C66.3318 37.249 66.4436 37.705 66.6594 37.9548C66.7488 38.0584 66.9845 38.8437 67.07 38.8437C67.0822 38.8437 67.7576 37.3506 68.0733 36.8632C68.4872 36.2239 69.0421 35.6931 69.4248 35.0282C69.7524 34.459 69.9881 33.8159 70.2357 33.3908C70.4242 33.4793 70.6624 33.4579 70.8283 33.292C70.9372 33.1831 70.9421 32.6878 70.8699 32.5435C70.7945 32.3926 70.9069 32.2017 70.8283 32.0445C70.6845 31.7568 70.8926 31.3413 70.7452 31.0464C70.6537 30.8635 70.8321 30.26 70.7036 30.1315C70.5445 29.9725 70.6471 29 70.5268 28.5928C70.5223 28.4692 70.5176 28.3471 70.5112 28.2238C70.5121 28.2078 70.5082 28.1915 70.5061 28.177C70.4722 27.5469 70.4138 26.9207 70.3085 26.3108C70.2387 25.9065 70.3321 25.4822 70.2461 25.084C70.1889 24.8188 70.1243 21.4255 70.189 21.201C70.1956 21.1779 70.2101 21.1064 70.2253 21.0242C70.7572 20.5623 71.4426 20.0881 71.8368 19.891C71.9224 19.8482 72.3046 19.7149 72.3046 19.6571C72.3046 19.5885 71.7124 19.8338 71.2494 19.8338C70.7531 19.8338 67.0996 20.2149 67.0129 20.3017C66.986 20.3022 66.9626 20.304 66.9557 20.3121C66.9315 20.34 67.1896 21.8802 67.1896 22.0847C67.1896 22.6416 67.4544 24.068 67.6574 24.5382C67.8331 24.9451 67.8125 25.7525 67.9537 26.2432C67.9679 26.2926 67.9549 26.3886 67.9433 26.4876C67.8225 26.7791 67.7012 27.0208 67.5015 27.2205C67.485 27.237 67.6577 27.3767 67.6678 27.3869C67.7856 27.5046 67.7855 27.8717 67.8758 28.0522C67.9581 28.217 67.8497 28.5667 67.9589 28.676C68.0254 28.7425 67.9771 29.4843 68.0837 29.5909C68.2112 29.7185 67.9627 31.0123 68.0837 31.2543C68.1341 31.3551 68.3471 31.2822 68.4164 31.4207C68.4608 31.5096 68.3231 31.5769 68.3748 31.6286C68.316 31.6256 68.257 31.6217 68.25 31.6286C68.238 31.6406 68.0453 31.715 68.0837 31.7534C68.1627 31.8324 68.9154 32.1999 68.9154 32.2524C68.9154 32.3117 68.1999 32.2694 68.1253 32.4187C68.1088 32.4516 68.2058 32.9152 68.25 32.9593C68.3184 33.0277 68.4743 33.0216 68.6555 33.0633C68.5999 33.1702 68.6183 33.5596 68.5827 33.6663C68.5415 33.7898 68.4977 33.9386 68.458 34.0926C68.3078 34.1923 68.1594 34.2924 68.0057 34.3369C67.6814 34.4308 67.2182 34.4777 67.0077 34.7215C66.9806 34.7528 66.4364 34.3914 66.3423 34.3369C65.7005 33.9652 64.9792 33.7459 64.3566 33.396C64.3552 33.3953 64.3527 33.3967 64.3514 33.396C64.3426 33.3878 64.334 33.3832 64.3254 33.3752C64.2353 32.8945 64.128 31.872 64.0655 31.1244C64.1027 30.8844 64.1442 30.645 64.1902 30.407C64.1388 30.4117 64.0683 30.4174 64.0447 30.4174C64.0298 30.4174 63.7666 30.384 63.712 30.3862C63.6997 30.3951 63.6912 30.3972 63.6912 30.3862C63.6912 30.3851 63.7059 30.3864 63.712 30.3862C63.7243 30.3774 63.7386 30.3651 63.7484 30.3602C63.8448 30.312 63.972 30.3212 64.0707 30.2719C64.1107 30.2518 64.1709 30.2599 64.2214 30.2563C64.2307 30.2112 64.2377 30.1661 64.2474 30.1211C64.2907 29.9204 64.2912 29.7039 64.2994 29.4921C64.2779 29.4356 64.264 29.3727 64.2526 29.305C64.1265 29.3282 63.9953 29.3648 63.9251 29.3882C63.8876 29.4007 63.829 29.3887 63.7796 29.383C63.7415 29.4158 63.6912 29.4545 63.6912 29.4194C63.6912 29.3799 63.7301 29.3773 63.7796 29.383C63.7891 29.3748 63.7994 29.3632 63.8056 29.357C63.8722 29.2903 64.0974 29.2188 64.237 29.1959C64.2046 28.8481 64.268 28.4049 64.3306 27.9847C64.317 27.9827 64.2776 27.9805 64.2786 27.9795C64.2914 27.9667 64.3106 27.9467 64.3358 27.9327C64.3521 27.8234 64.3687 27.7128 64.3826 27.6104C64.2034 27.6334 63.981 27.626 63.8368 27.626C63.8283 27.626 63.8167 27.6182 63.8056 27.6156C63.8163 27.6073 63.8285 27.5989 63.8368 27.5948C63.9126 27.5569 64.0251 27.576 64.1019 27.5376C64.1509 27.5131 64.2768 27.4879 64.3982 27.4648C64.4121 27.3462 64.4221 27.2348 64.4241 27.1374C64.2759 27.1534 64.1065 27.1781 63.9615 27.2049C63.8374 27.2572 63.7033 27.2864 63.7172 27.2725C63.7367 27.253 63.8396 27.2275 63.9615 27.2049C63.9792 27.1975 63.9965 27.1926 64.0135 27.1841C64.1456 27.1181 64.3388 27.0737 64.4605 26.9918C64.4935 26.9163 64.5348 26.8387 64.4865 26.7423C64.2199 26.209 64.6927 25.33 64.4293 24.8034C64.3081 24.5609 64.133 22.8664 64.133 22.5058C64.133 22.1581 63.8714 21.0052 63.8991 20.9775C64.0017 20.8749 65.079 20.1473 65.6041 19.8079C65.6474 19.7065 65.6819 19.6083 65.6613 19.5844C65.6419 19.5618 65.6139 19.5558 65.5781 19.5584C65.4707 19.5662 65.3114 19.6571 65.2506 19.6571C64.5388 19.6571 63.8028 19.7195 63.0726 19.7195C62.9883 19.7195 62.596 19.6574 62.5424 19.7195C62.5407 19.7214 62.549 19.7908 62.5528 19.8183C61.7394 19.6246 61.2907 19.8104 61.1908 20.0418C61.13 20.1827 61.4243 22.0066 61.4871 22.2251C61.5754 22.5316 61.3989 22.9426 61.4871 23.2491C61.5597 23.5011 61.4992 23.9634 61.6015 24.2004C61.9068 24.9076 61.4108 26.2593 61.6015 27.1426C61.7278 27.7276 61.5647 28.2158 61.7211 28.7592C61.7265 28.7781 61.7314 28.7974 61.7366 28.8164C61.7732 29.2549 61.8042 29.8917 61.8042 30.09V30.4226C61.8042 30.4655 61.7316 30.4748 61.7626 30.5058C61.8554 30.5986 62.0043 30.6348 62.1161 30.7085C62.1302 30.7696 62.1471 30.8305 62.1629 30.8905C62.0678 31.0138 61.8229 31.1483 61.8458 31.1712C61.9238 31.2492 62.0846 31.2533 62.2097 31.2803C62.2143 31.3149 62.2205 31.3491 62.2253 31.3843C62.0663 31.4334 61.8042 31.5118 61.8042 31.587C61.8042 31.707 61.9153 32.6403 61.8874 32.6683C61.8468 32.7088 61.7626 33.2209 61.7626 33.2505C61.7626 33.3614 61.9844 33.2505 62.0953 33.2505C62.1359 33.2505 62.2246 33.2562 62.298 33.2609C62.2107 33.3268 62.1254 33.3918 62.0589 33.4688C61.5598 34.0469 60.893 34.4335 60.2707 34.9139C60.2057 34.9641 59.9552 35.2196 59.938 35.1998C59.6914 34.9142 59.3967 34.6935 59.0232 34.4773C58.9067 34.4098 58.8485 34.212 58.7321 34.1446C58.24 33.8596 57.8396 33.3591 57.3805 32.9906C57.3589 32.9505 57.3413 32.911 57.3285 32.8762C57.3731 32.8651 57.4132 32.8565 57.4585 32.845C57.7343 32.8373 58.4767 32.7105 58.5189 32.6683C58.6524 32.5348 58.4625 32.0326 58.5605 31.8366C58.6271 31.7035 58.494 31.4706 58.5605 31.3375C58.5805 31.2975 58.6116 31.088 58.5605 31.088C58.4773 31.088 58.1416 31.0018 58.1031 30.9633C58.0848 30.945 58.6148 30.7137 58.5605 30.7137C58.529 30.7137 58.5051 29.8127 58.6021 29.7157C58.6813 29.6365 58.5033 29.2426 58.4774 29.2167C58.3736 29.1129 58.661 28.8666 58.6853 28.8424C58.727 28.8007 58.5979 28.3059 58.7269 28.177C58.7761 28.1278 58.6853 27.6761 58.6853 27.5532C58.6853 26.7513 58.5605 25.9479 58.5605 25.2244C58.5605 25.1693 58.5638 24.9702 58.5657 24.793C58.5652 24.7915 58.5662 24.7893 58.5657 24.7878C58.5088 24.6291 58.6021 24.3341 58.6021 24.2264C58.6021 24.0667 58.5798 23.7497 58.6437 23.6858C58.6661 23.6633 58.7016 23.6554 58.7425 23.6546C58.8512 23.9103 59.0182 24.1435 59.1011 24.2264C59.1323 24.2576 59.4707 24.6053 59.6417 24.4343C59.7417 24.3344 59.8484 24.2692 59.9328 24.1848C60.0025 24.1151 60.0295 23.8802 60.0992 23.8105C60.1243 23.7854 60.0992 23.6004 60.0992 23.561C60.0992 22.8601 60.0245 21.9476 59.6002 21.5233C59.5961 21.5192 59.5887 21.517 59.5846 21.5129C59.5826 21.5097 59.5813 21.5058 59.5794 21.5025C59.3707 21.1599 59.0411 20.8721 58.8672 20.5824C58.8508 20.5551 58.8346 20.532 58.8152 20.5097C58.8078 20.5495 58.7938 20.5922 58.8101 20.6084C59.1552 20.9536 59.6707 22.2555 59.3923 22.8125C59.221 23.1551 59.3818 23.2283 58.9764 23.2283C58.9265 23.2283 58.8692 23.2874 58.8101 23.2283C58.5637 22.982 58.4569 22.6036 58.2954 22.2459C58.3011 22.2409 58.3057 22.2355 58.311 22.2303C58.4022 22.1391 58.3797 21.619 58.311 21.4817C58.1611 21.1818 58.3826 20.8764 58.2278 20.5668C57.9125 19.9361 57.6676 19.0917 57.1466 18.5707C56.9064 18.3306 56.6269 18.0198 56.3149 17.8638C56.2964 17.8545 56.2169 17.8201 56.159 17.7962ZM54.246 19.6363C54.307 19.6331 54.3689 19.6292 54.4488 19.626C54.4195 19.6235 54.388 19.6206 54.3604 19.6208C54.3169 19.6209 54.2815 19.6271 54.246 19.6363ZM63.7847 27.6156C63.7887 27.6146 63.7942 27.6144 63.8003 27.6156C63.7867 27.6258 63.7795 27.6379 63.7795 27.626C63.7795 27.6211 63.7807 27.6165 63.7847 27.6156ZM59.8965 39.1712C59.8913 39.1813 59.8899 39.1816 59.8965 39.1816C59.9011 39.1816 59.9035 39.1811 59.9017 39.1712C59.9013 39.1717 59.8968 39.1707 59.8965 39.1712Z" fill="#E6B35A"/>
<path fill-rule="evenodd" clip-rule="evenodd" d="M82.4872 22.914C82.4808 23.0113 82.3708 23.1997 82.4681 23.2061C82.5655 23.2124 82.4625 22.8196 82.4872 22.914C82.569 23.2259 82.5135 23.379 82.562 23.5642C82.5934 23.6836 82.8037 23.756 82.8351 23.8754C82.8538 23.9468 83.0756 23.9762 83.1176 24.0405C83.2455 24.2365 83.7228 24.5237 83.7766 24.7289C83.789 24.7761 83.832 24.8936 83.8566 24.8515C83.9341 24.719 84.1071 23.2632 84.1267 22.9624C84.1598 22.4567 84.786 20.9154 84.7175 20.6543C84.6865 20.536 84.569 20.4267 84.4776 20.2867C84.1532 19.7897 82.6474 19.6936 82.852 20.4738C82.933 20.7826 82.8501 21.2207 83.1008 21.6047C83.3013 21.9119 83.9324 21.7117 83.831 21.6524C83.7714 21.6176 83.7709 21.7882 83.7884 21.855C83.8074 21.9275 83.5662 22.2352 83.5242 22.3071C83.3487 22.6073 83.2415 22.9809 83.1844 23.0182C83.1113 23.0659 82.977 23.2002 83.0523 23.2442C83.2407 23.3543 82.6756 23.0241 82.4872 22.914Z" fill="#E6B35A"/>
<path fill-rule="evenodd" clip-rule="evenodd" d="M91.2833 19.9171C91.2008 19.9255 90.8429 20.3054 90.7063 20.4421C90.0806 21.0678 89.3788 21.5897 88.7466 22.2095C88.3744 22.3042 87.9513 22.4485 87.7745 22.6253C87.6066 22.7932 87.4315 22.9995 87.2443 23.1867C87.1158 23.3152 86.9968 24.0528 86.922 24.1276C86.8058 24.2438 86.6799 24.51 86.5373 24.6526C86.4555 24.7345 86.3629 24.8232 86.2774 24.9073C86.2566 24.9152 86.2361 24.9263 86.215 24.9333C85.9582 25.0189 85.6596 25.1828 85.4041 25.1828C85.3558 25.1828 84.9259 25.2181 84.9259 25.2244C84.9259 25.2409 85.1261 25.2518 85.1546 25.266C85.2473 25.3124 85.6004 25.2804 85.8564 25.3232C85.5618 25.6097 85.2683 25.9009 84.9831 26.1861C84.9591 26.2101 84.9172 26.3058 84.8791 26.4148C84.7591 26.4692 84.6549 26.5136 84.614 26.5136C84.614 26.5136 83.907 26.7319 83.8862 26.7423C83.8754 26.7477 83.8606 26.7491 83.8447 26.7475C83.752 26.785 83.6781 26.8256 83.5951 26.8671C83.5696 26.8798 83.512 26.8593 83.512 26.8878C83.512 26.9156 83.8826 26.9086 83.9278 26.9086C84.0748 26.9086 84.2418 26.9096 84.3645 26.971C84.3766 26.9771 84.5389 26.9525 84.7179 26.9242C84.699 27.0291 84.691 27.1874 84.7179 27.2413C84.7766 27.3586 84.8603 27.3948 84.9519 27.3921C84.9334 27.4203 84.9177 27.4471 84.9103 27.4649C84.9116 27.4736 84.909 27.4822 84.9103 27.4908C84.9389 27.5086 85.081 27.4908 85.113 27.4908H85.2794C85.2932 27.4908 85.3209 27.477 85.3209 27.4908C85.3209 27.5068 85.2679 27.5023 85.2586 27.5116C85.1773 27.5929 85.0624 27.67 84.9571 27.756C85.075 28.3456 84.9123 28.9978 85.0298 29.5857C85.2716 30.7947 85.4239 32.7754 85.0298 33.9574C84.9795 34.1085 85.0025 34.6345 84.8947 34.7424C84.892 34.745 84.7054 34.9482 84.7595 35.0023C84.8773 34.8749 85.372 34.6256 85.5185 34.68C85.4269 34.7459 85.3739 34.8328 85.4249 34.9347C85.4312 34.9472 85.4153 34.9875 85.4249 34.9971C85.5181 35.0903 85.5697 35.1942 85.716 35.2674C85.8018 35.3102 86.2249 35.3812 86.2774 35.4337C86.3803 35.5366 86.5237 35.5761 86.6517 35.704C86.6766 35.7289 86.71 35.8039 86.7349 35.8288C86.8101 35.9041 86.9706 35.9469 87.026 36.0575C87.073 36.1517 87.1669 36.277 87.2339 36.411C87.3268 36.5968 87.4085 37.147 87.5458 37.2843C87.7211 37.4596 87.8632 37.7057 88.0032 37.8457C88.0765 37.919 88.2248 37.9426 88.2943 38.012C88.3503 38.0681 88.6526 38.0583 88.8921 38.064C89.0027 38.1657 89.2181 38.2674 89.334 38.3447C89.4584 38.4276 89.5595 38.5349 89.6874 38.6202C89.8431 38.724 90.0336 39.1255 90.1137 39.2856C90.1321 39.3224 90.5025 39.7815 90.5088 39.7846C90.6026 39.8316 90.6989 39.902 90.7739 39.977C90.8402 40.0433 91.1264 40.2607 91.2573 40.1953C91.306 40.1709 91.4043 40.1679 91.434 40.1381C91.5476 40.0245 91.6415 39.8777 91.7303 39.7326C91.9021 39.5761 92.1964 39.3908 92.4009 39.2544C93.0557 38.8179 93.6155 38.2083 94.2307 37.7469C94.7853 37.331 95.4154 37.0247 95.9929 36.6397C96.4831 36.3129 96.9782 35.687 97.4328 35.4597C97.4616 35.4453 97.4983 35.4326 97.5367 35.4181C97.576 35.4519 97.6101 35.4894 97.6407 35.5273C97.7975 35.9115 97.859 36.6396 97.859 36.9724C97.859 37.0468 97.8774 37.1827 97.8382 37.2219C97.8001 37.26 97.8556 37.3917 97.8174 37.4298C97.7863 37.461 97.8278 37.565 97.7967 37.5962C97.7723 37.6206 97.7929 37.995 97.7551 38.0328C97.7036 38.0843 97.4704 37.465 97.1313 37.8041C96.8731 38.0623 96.8588 38.6129 97.1313 38.8853C97.2191 38.9731 97.2948 38.9269 97.4016 38.9269C97.6966 38.9269 97.8354 38.5971 97.963 38.4695C98.0011 38.4314 97.9457 38.2997 97.9838 38.2615C98.0254 38.22 97.9422 38.0536 97.9838 38.012C98.0551 37.9408 98.067 37.6784 98.067 37.5546C98.067 37.3955 98.1084 36.8479 98.1709 36.7229C98.1917 36.6813 98.1899 36.6314 98.1865 36.5773C98.1875 36.5777 98.1907 36.5773 98.1917 36.5773C98.2018 36.5773 98.2541 36.2672 98.2541 36.2238C98.2541 35.8906 98.2881 35.5324 98.2957 35.179C98.4034 34.9702 98.3476 33.709 98.3476 33.5676C98.3476 33.0773 98.5974 32.0551 98.41 31.8677C97.995 31.4527 94.2505 31.9065 93.295 31.9353C93.3127 31.9508 93.3403 31.9752 93.373 32.0029H93.8408C93.8696 32.0029 93.9341 32.0088 94.0175 32.0237C94.0198 32.0254 94.0204 32.0271 94.0227 32.0289C94.3041 32.2384 95.2467 32.6343 95.4055 32.793C95.6569 33.0445 95.8489 33.3197 96.0708 33.5416C96.0908 33.5615 96.1025 33.5838 96.1124 33.6091C96.1085 33.6118 96.1063 33.6168 96.102 33.6195C95.8002 33.6664 95.4204 33.7706 95.3587 33.8015C95.0589 33.9514 94.5726 34.0177 94.1839 34.2121C93.9291 34.3395 93.6507 34.6465 93.3989 34.8723C93.5786 35.3405 93.976 36.0367 93.9915 36.0367C93.9939 36.0367 93.7786 35.8238 93.5757 35.6208C93.4639 35.5091 93.3255 35.2255 93.2014 35.1634C93.1802 35.1528 93.1255 35.1348 93.0611 35.1166C92.9704 35.1649 92.8589 35.2367 92.7336 35.3245C92.7525 35.3554 92.7801 35.402 92.7856 35.4129C92.9365 35.7147 93.2047 35.9186 93.3678 36.2446C93.6651 36.8394 93.7512 36.9861 93.2846 36.2862C93.1989 36.1577 93.1564 36.0748 93.0351 35.9535C92.9332 35.8516 92.8502 35.7271 92.744 35.6208C92.6849 35.5618 92.6264 35.5031 92.5672 35.4441C92.2481 35.6859 91.9151 35.9894 91.8031 36.2134C91.7098 36.4 91.5602 36.6591 91.4184 36.8008C91.2051 37.0141 91.0301 37.2032 90.8934 37.4766C90.8701 37.5233 90.8568 37.586 90.857 37.6585C90.8332 37.6826 90.8073 37.7072 90.7842 37.7313C90.7093 37.6742 90.6366 37.6254 90.5607 37.565C90.5574 37.5443 90.5503 37.5234 90.5659 37.4922C90.6371 37.3497 90.5376 37.0324 90.4515 36.9464C90.439 36.9338 90.3923 36.9008 90.3788 36.8736C90.294 36.704 90.0047 36.6503 89.8901 36.5357C89.8746 36.5202 89.9831 36.3966 89.9941 36.3746C90.0037 36.3555 90.0267 36.3114 90.0409 36.2966C90.0107 36.2927 89.8619 36.2201 89.8485 36.2134C89.8253 36.2018 89.7853 36.2062 89.7602 36.1979C89.6763 36.1699 89.6413 36.0994 89.5679 36.0627C89.4549 36.0062 89.3298 35.9593 89.2144 35.9016C88.8707 35.7297 88.4476 35.4883 88.1851 35.2258C88.1467 35.1873 88.0442 35.1732 88.0084 35.1374C87.9817 35.1108 87.8773 35.0736 87.7641 35.0386C87.4797 34.8087 87.2326 34.6001 87.0623 34.4253C87.0742 34.3941 87.0932 34.3375 87.0987 34.3265C87.2402 34.0436 87.5069 33.8687 87.6289 33.6247C87.6885 33.5055 87.3726 33.2004 87.2754 33.0061C87.238 32.9313 87.2754 32.7382 87.2754 32.6527C87.2754 32.4599 87.3643 31.0657 87.4106 30.7969C87.3274 30.7848 87.2099 30.6482 87.1559 30.5942C87.057 30.4953 86.9195 30.4461 86.8024 30.3291C86.7382 30.2648 86.7123 30.1176 86.6569 30.0068C86.2794 29.2519 86.3041 28.2525 86.7244 27.8911C86.7352 27.8684 86.7516 27.8316 86.7556 27.8235C86.8585 27.6179 87.1391 27.5233 87.2754 27.3869C87.3034 27.3589 87.3899 27.3556 87.421 27.3245C87.4788 27.2667 87.7182 27.3037 87.7121 27.3037C87.4944 27.3037 87.2546 26.9917 87.2546 26.7631C87.2546 26.5256 87.3227 26.3891 87.4626 26.2433C87.5738 26.2521 87.6806 26.2638 87.7173 26.3005C87.725 26.3081 87.8648 26.4493 87.894 26.42C87.9301 26.384 87.9078 26.2555 87.9512 26.2121C88.0637 26.0996 88.1912 25.8577 88.3047 25.7442L89.7758 24.2732C89.931 24.1179 90.9164 24.0422 90.9818 23.9769C91.115 23.8436 90.765 23.1644 91.0078 22.9216C91.2738 22.6555 91.8192 22.4012 92.1826 22.0379C92.1896 22.0309 92.2003 22.0235 92.2085 22.0171C92.3629 22.1142 92.494 22.2298 92.536 22.2718C93.2391 22.9749 94.8777 23.4335 95.6706 24.2264C95.8085 24.3643 96.1623 24.3335 96.3203 24.4915C96.3904 24.5616 96.0049 25.1275 95.9305 25.2764C95.9059 25.3255 95.8892 26.0069 95.8785 26.6175C95.8636 26.6185 95.847 26.6216 95.8317 26.6227C95.7905 26.8114 95.743 27.0224 95.7797 27.0958C95.8717 27.2798 95.8629 27.507 95.8629 27.7196C95.8235 27.6522 95.7797 27.5832 95.7797 27.5116C95.7797 27.3003 95.6985 26.8483 95.5874 26.6383C95.4827 26.6433 95.39 26.6418 95.3327 26.6227C95.2741 26.6032 95.1276 26.5874 94.9428 26.5708C94.9073 26.6606 94.93 27.4155 94.8804 27.8599C94.8924 27.9476 94.8958 28.032 94.8648 28.0938C94.8625 28.0984 94.7746 28.2328 94.8233 28.1354C94.8496 28.0827 94.8671 27.9795 94.8804 27.8599C94.8628 27.7303 94.8233 27.5935 94.8233 27.5116C94.8233 27.2245 94.72 26.817 94.5998 26.5448C93.9842 26.5083 93.2011 26.4981 93.0663 26.5656C92.787 26.7052 92.6154 26.9678 92.3593 27.0958C92.2499 27.1505 91.8953 27.0386 91.7459 27.0386C91.3867 27.0386 90.0652 27.2451 89.6199 27.4805C89.2646 27.4266 88.8718 27.6786 88.5958 27.7404C88.3881 27.6609 88.1686 27.5806 87.9512 27.5844C87.8557 27.5861 87.7625 27.6039 87.6705 27.6468C87.5073 27.6522 87.3623 27.6744 87.2963 27.7404C87.254 27.7827 87.1434 27.8516 87.1091 27.8859C87.0918 27.9032 87.0792 27.9338 87.0675 27.9639L87.0831 27.9795C86.9489 28.0968 86.8274 28.2371 86.7764 28.3901C86.7155 28.5728 86.7141 28.7682 86.7141 28.9775C86.7141 29.3402 87.0044 29.5873 87.1871 29.8612C87.3694 30.1347 87.5503 30.3339 87.8317 30.4746C88.0287 30.5731 88.449 30.4337 88.5958 30.3603C88.775 30.2706 88.9823 30.1956 89.1832 30.0951C89.4495 29.962 89.5307 29.6708 89.6095 29.409C89.7017 29.2701 89.7568 28.9654 89.7758 28.9463C89.825 28.8971 89.8619 28.8403 89.9058 28.78C90.1728 28.7513 90.3921 28.7324 90.4724 28.728C90.3772 29.0287 90.2272 29.3406 90.2436 29.357C90.2821 29.3954 90.6229 29.1285 90.6543 29.0971C90.7808 28.9706 91.2429 28.8766 91.4756 28.7488C91.5128 28.7424 91.548 28.7334 91.5796 28.7176C91.6528 28.681 91.7624 28.6968 91.8499 28.6968C91.9035 28.6968 91.9493 28.6988 91.9954 28.702C91.9971 28.7021 91.999 28.7019 92.0006 28.702C92.1495 28.7373 92.3085 28.7826 92.4529 28.8164C92.5775 28.8726 92.6962 28.9426 92.8583 29.0243C93.6124 28.9498 94.3545 28.8684 94.948 28.8684C95.794 28.8684 96.5772 28.6708 97.4328 28.6708H98.5452C98.614 28.6708 98.7427 28.8072 98.7427 28.7384V26.5084C98.6785 26.4444 98.6196 26.3844 98.5868 26.368C98.5006 26.325 98.5244 26.3443 98.5244 26.2225C98.5244 25.987 98.6203 25.8433 98.7427 25.713V25.6143C98.7595 25.6009 98.7772 25.5866 98.7947 25.5779C98.8493 25.5506 98.9498 25.5476 98.9818 25.5155C99.0007 25.4966 98.8779 25.3808 98.8779 25.3492C98.8779 25.2987 98.8165 25.2254 98.7947 25.2036C98.7879 25.1968 98.6648 24.5486 98.6699 24.5382C98.7642 24.3497 98.7998 23.7846 98.9195 23.665C98.993 23.5914 99.0182 23.4206 99.0858 23.3531C99.1833 23.2555 99.2609 23.1364 99.3561 23.0412C99.3653 23.032 99.4393 22.9872 99.4393 22.9788C99.4393 22.9415 99.1218 23.1479 99.0858 23.1659C98.9041 23.2568 98.7367 23.3978 98.6076 23.5506C98.6069 23.5514 98.6031 23.5498 98.6024 23.5506C98.5398 23.5815 98.4843 23.6166 98.4464 23.6546C98.4419 23.6591 98.2533 23.8981 98.2437 23.8885C98.2278 23.8726 98.3112 23.4881 98.2437 23.4206C97.9925 23.1695 97.639 23.1867 97.2404 23.1867C97.2142 23.1867 97.2845 22.9939 97.2976 22.7553C97.2336 22.7264 97.1677 22.6981 97.1053 22.6669C96.2058 22.2171 95.3322 21.7285 94.3658 21.4869C93.7775 21.3398 93.1516 20.8368 92.6608 20.5096C92.2419 20.2304 91.6198 20.2484 91.2937 19.9222C91.2907 19.9193 91.2888 19.9164 91.2833 19.9171ZM90.0409 36.2966C90.0441 36.2969 90.0513 36.2981 90.0513 36.2966C90.0513 36.2866 90.0476 36.2896 90.0409 36.2966ZM95.8681 27.7352C95.8812 27.7575 95.8942 27.7821 95.9045 27.8027C95.9057 27.805 95.9047 27.8239 95.9045 27.8391C95.9265 27.887 95.9426 27.9275 95.9045 27.9275C95.9023 27.9275 95.904 27.8761 95.9045 27.8391C95.8883 27.8039 95.8733 27.7663 95.8681 27.7352ZM88.2839 28.1614C88.8167 28.1395 89.0557 29.1934 88.7726 29.4766C88.6824 29.5667 88.2732 29.9338 88.128 29.8612C88.0284 29.8115 87.8883 29.7931 87.8057 29.7105C87.5762 29.481 87.2552 29.0752 87.4522 28.6812C87.6405 28.3046 87.8534 28.231 88.0396 28.2446C88.127 28.1922 88.2078 28.1645 88.2839 28.1614Z" fill="#E6B35A"/>
<path fill-rule="evenodd" clip-rule="evenodd" d="M119.416 17.11C118.987 17.329 118.534 17.6039 118.402 17.7754C118.127 18.134 117.417 18.4703 117.228 19.0178C116.149 22.1373 115.404 24.1603 112.539 26.0977C112.1 26.3944 111.425 26.1602 110.979 26.3836C111.399 26.4341 112.964 26.6055 113.23 26.2589C113.423 26.0073 114.311 25.4339 115.013 24.9853C114.932 25.3588 114.981 25.7485 115.299 26.0665C115.328 26.0959 115.446 26.0371 115.476 26.0665C115.516 26.1065 115.562 26.1295 115.616 26.1393C115.558 26.4603 115.507 26.7499 115.471 26.8619C114.591 29.5666 116.516 27.4443 116.115 28.6033C116.007 28.9158 116.187 29.3185 116.084 29.6169C115.654 30.9735 116.009 32.4569 116.042 33.9938C115.803 34.3053 115.727 36.6425 115.538 36.8892C115.45 37.0036 115.275 37.1363 115.169 37.2739C114.974 37.5286 114.627 37.7996 114.254 37.9808C113.989 38.1097 112.341 40.1867 112.003 40.6267C111.927 40.7268 111.532 41.233 111.582 41.2713C111.661 41.3321 112.378 40.542 112.554 40.3876C112.877 40.1052 113.523 39.7579 114.088 39.4C114.256 39.3559 114.423 39.2582 114.462 39.2076C114.513 39.1416 114.692 39.1801 114.743 39.1141C114.854 38.969 115.14 38.934 115.237 38.8074C115.401 38.5928 115.556 38.3503 115.627 38.038C115.669 38.0115 115.721 37.986 115.767 37.9601C115.907 37.7215 116.236 37.4423 116.297 37.3623C116.378 37.2571 116.71 37.2231 116.791 37.1179C116.947 36.914 117.392 36.822 117.56 36.6033C117.572 36.5879 117.976 36.4572 118.486 36.307C118.639 36.3307 118.81 36.2788 119.005 36.1615C119.132 36.1258 119.253 36.0919 119.38 36.0575C119.5 36.0679 119.615 36.0975 119.681 36.0887C119.742 36.0807 120.65 36.2382 120.653 36.2602C120.656 36.2825 120.467 36.0664 120.45 36.0419C120.294 35.8099 120.059 35.5603 119.879 35.2934C119.768 35.129 119.627 34.9713 119.515 34.8047C119.462 34.7268 119.445 34.6295 119.426 34.5292C119.458 34.2492 119.495 33.9174 119.551 33.4584C119.562 33.3668 119.569 33.292 119.577 33.2089C119.06 33.1976 118.179 33.2184 118.179 33.1257C118.179 33.0865 118.259 33.1257 118.298 33.1257C118.459 33.1257 119.101 33.0986 119.593 33.0529C119.639 32.5395 119.64 32.1812 119.634 31.8625C119.024 31.8595 118.122 31.8686 118.122 31.769C118.122 31.7136 119.007 31.7367 119.634 31.7378C119.631 31.5808 119.626 31.4254 119.629 31.2596C119.196 31.2458 118.653 31.244 118.532 31.244C118.122 31.244 118.997 31.048 119.645 30.9269C119.652 30.8278 119.663 30.7241 119.676 30.6098C119.711 30.3073 119.619 29.9946 119.64 29.6897C119.681 29.0669 119.853 28.4342 119.894 27.8132C119.954 26.9158 119.884 26.0143 119.931 25.1049C120.008 25.1185 120.092 25.1185 120.196 25.1049C120.269 25.0953 120.391 25.1931 120.435 25.1361C120.561 24.9711 120.724 24.828 120.851 24.663C120.865 24.645 120.839 23.2921 120.783 23.2491C120.584 23.0961 120.269 22.1614 120.409 21.7572C120.513 21.4553 120.635 19.4398 120.586 19.0646C120.555 18.8301 120.573 18.2108 120.398 18.0769C120.379 18.0622 120.36 18.0569 120.341 18.0457C120.34 18.045 120.342 18.041 120.341 18.0405C120.334 17.9421 120.33 17.8394 120.331 17.7494C120.33 17.7481 120.332 17.7455 120.331 17.7442C120.3 17.7003 120.264 17.6626 120.222 17.6299C119.985 17.4483 119.842 17.2475 119.504 17.1308C119.475 17.1208 119.443 17.1143 119.416 17.11Z" fill="#E6B35A"/>
<path fill-rule="evenodd" clip-rule="evenodd" d="M132.178 6.07421C131.65 6.08088 131.09 6.21871 130.384 6.43809C130.38 6.43942 130.373 6.43676 130.369 6.43809C129.339 6.56319 128.186 6.82934 127.426 7.31139C127.115 7.36438 126.603 7.6842 126.205 8.01834C126.196 8.02566 126.188 8.0318 126.179 8.03914C126.08 8.10927 125.958 8.211 125.763 8.34063C125.669 8.4036 125.642 8.53208 125.555 8.59015C124.553 9.25841 124.201 10.4734 123.933 11.5427C123.885 11.7356 123.954 11.98 123.892 12.1665C123.821 12.3793 123.816 12.8126 123.892 13.0398C123.957 13.2343 124.036 13.4312 124.1 13.622C124.19 13.8937 124.237 14.1042 124.349 14.329C124.364 14.3592 124.558 14.5785 124.515 14.5785C124.481 14.5785 124.675 14.5545 124.723 14.5785C124.773 14.6033 124.851 14.6177 124.89 14.5785C125.006 14.4619 124.903 14.2309 124.848 14.121C124.784 13.9919 124.522 14.1692 124.474 14.121C124.44 14.0868 123.934 12.374 124.141 12.1665C124.245 12.0626 124.12 11.7299 124.224 11.6259C124.398 11.4521 124.495 10.482 124.723 10.2536C124.977 9.99999 125.112 9.69884 125.347 9.46345C125.495 9.31532 125.629 9.2146 125.758 9.11517C125.786 9.23573 125.79 9.36602 125.888 9.46345C126.149 9.72446 126.827 9.44888 127.234 9.25032C127.256 9.24982 127.28 9.25099 127.302 9.25032C127.242 9.35394 127.18 9.45996 127.094 9.54662C127.016 9.62399 126.989 9.98452 126.886 10.0872C126.844 10.129 126.77 10.7017 126.636 10.8358C126.622 10.8498 126.592 10.9807 126.553 11.1165C126.678 11.2288 126.922 11.438 127.083 11.5427C127.154 11.538 127.219 11.5408 127.219 11.5843C127.219 11.6208 127.162 11.5939 127.083 11.5427C127.023 11.5468 126.957 11.5573 126.927 11.5427C126.867 11.5125 126.492 11.3959 126.428 11.4596L126.418 11.47C126.398 11.5388 126.328 11.8526 126.272 12.073C126.438 12.2269 126.661 12.3869 126.72 12.416C126.741 12.427 126.824 12.4739 126.901 12.5148C126.986 12.5369 127.052 12.5591 127.052 12.5824C127.052 12.5904 126.979 12.5557 126.901 12.5148C126.692 12.4603 126.306 12.3915 126.075 12.1821C126.073 12.1804 126.072 12.1786 126.07 12.1769C125.973 12.1298 125.86 12.0733 125.659 11.9742C125.547 12.4747 125.502 12.9842 125.597 13.4557C125.823 14.5883 125.404 15.8727 125.763 16.9489C125.948 17.504 126.035 18.1199 126.179 18.6955C126.418 19.6529 126.88 20.5487 127.177 21.4401C127.356 21.9768 127.407 22.7631 127.375 23.483C127.107 23.7428 126.867 24.0462 126.709 24.3615C126.692 24.3966 126.68 24.4336 126.668 24.4707C125.779 24.4689 124.889 24.4413 124.001 24.3615L123.767 24.6526C123.747 24.6526 123.724 24.6388 123.71 24.6526C123.559 24.8037 123.573 25.6337 123.71 25.7703C123.861 25.921 124.838 25.7131 125.061 25.7131C125.596 25.7131 126.22 25.7311 126.766 25.6351C126.91 25.9997 127.1 26.2572 127.354 26.472C127.373 26.8027 127.361 27.1269 127.26 27.4285C126.98 28.2693 127.125 29.2474 126.844 30.09C126.623 30.7552 126.327 31.3915 126.096 32.0861C125.876 32.7457 125.668 33.6419 125.264 34.2485C124.806 34.9362 124.23 35.651 123.85 36.411C123.586 36.939 123.013 37.3344 122.686 37.8249C122.184 38.5782 121.853 39.1565 121.272 39.7379C120.943 40.0671 119.972 41.3399 119.775 41.734C119.637 42.0098 119.382 42.2463 119.364 42.5345C119.591 42.3152 120.207 41.8761 120.357 41.6508C121.007 40.675 121.817 40.1904 122.603 39.4052C122.871 39.1362 123.408 39.016 123.684 38.7398C124.238 38.1859 124.927 37.4659 125.846 37.1595C126.368 36.9855 126.935 36.9063 127.426 36.6605C127.704 36.5216 128.841 36.5764 129.007 36.411C129.073 36.3445 128.775 36.0598 128.451 35.7092C128.312 35.7194 128.184 35.7411 128.092 35.7872C127.904 35.881 127.353 36.0466 127.343 36.0367C127.249 35.9422 127.9 35.6531 128.253 35.4857C128.036 35.2353 127.841 34.9713 127.764 34.732C127.439 34.8408 127.001 35.0898 126.969 35.1218C126.883 35.2074 126.761 35.2725 126.647 35.3506C126.593 35.4224 126.526 35.4961 126.47 35.4961C126.45 35.4961 126.498 35.4684 126.512 35.4545C126.551 35.415 126.6 35.3825 126.647 35.3506C126.679 35.3067 126.712 35.2544 126.72 35.2466C126.941 35.0255 127.245 34.9286 127.468 34.706L127.733 34.4409C127.734 34.4392 127.733 34.4373 127.733 34.4357C127.749 34.3668 127.786 34.3051 127.842 34.2485C128.111 33.9803 127.897 33.1128 128.175 32.8346C128.459 32.5506 128.478 31.9492 128.757 31.6702C129.526 30.9014 129.759 29.6676 130.337 28.5097C130.501 28.1833 130.34 27.6724 130.504 27.3453C130.607 27.1386 130.588 26.8723 130.592 26.6228C130.748 26.5492 130.956 26.4615 131.06 26.3577C131.366 26.0516 131.503 25.6822 131.512 25.2972C132.405 25.2403 133.597 25.3596 134.236 25.3596C134.38 25.3596 134.68 25.3307 135.016 25.2868C135.031 25.7335 135.075 26.1301 135.161 26.3888C135.249 26.6515 135.286 26.9883 135.286 27.2621C135.286 27.3997 135.355 27.5553 135.375 27.6312C135.386 27.5554 135.453 27.1729 135.453 27.1374C135.453 26.7284 135.577 26.216 135.577 25.7651C135.577 25.5849 135.585 25.3954 135.593 25.2037C135.592 25.2023 135.594 25.1998 135.593 25.1985C135.574 25.1646 135.553 25.1336 135.536 25.0997C135.472 24.9718 135.318 24.9081 135.198 24.845C135.305 24.8314 135.403 24.8164 135.411 24.8086C135.464 24.7556 135.551 24.767 135.66 24.767C135.707 24.767 135.779 24.7188 135.785 24.7254C135.871 24.8111 135.899 25.1303 135.952 25.1829C136.016 25.2471 136.554 24.9856 136.659 24.9334C136.865 24.8302 137.722 24.8682 137.823 24.767C137.886 24.7042 137.625 24.7357 137.615 24.7254C137.51 24.6209 137.232 24.6379 137.074 24.5591C136.921 24.4823 136.225 24.1848 136.159 24.1848C136.021 24.1848 135.842 24.4605 135.785 24.5175C135.775 24.5276 135.549 24.4745 135.359 24.4343C135.408 24.3881 135.474 24.3295 135.494 24.3096C135.545 24.2584 135.603 24.2147 135.66 24.1692C135.648 24.1699 135.637 24.1686 135.624 24.1692C135.631 23.4459 135.572 22.7351 135.245 22.1887C135.173 22.3891 135.067 23.2599 135.026 24.1848C133.793 24.1894 132.541 24.2503 131.284 24.3148C131.134 23.9993 130.92 23.7006 130.665 23.4519C130.41 22.2073 129.964 20.9421 129.672 20.3589C129.499 20.0125 129.515 19.5456 129.339 19.1945C128.416 17.3469 126.967 15.3728 128.092 13.123C128.245 12.8158 128.193 12.2729 128.425 12.0418C128.897 11.5698 129.226 10.9343 130.005 10.5447C130.518 10.2883 131.055 9.71299 131.585 9.71299C131.901 9.71299 132.541 9.44242 132.916 9.62982C133.683 10.0135 134.445 10.4103 134.912 10.8774C135.083 11.048 135.117 11.5368 135.245 11.7923C135.518 12.3387 135.079 14.1229 135.411 14.7864C135.454 14.8726 135.478 14.9709 135.489 15.0723C135.442 15.0775 135.397 15.0798 135.349 15.0827C135.503 15.1897 135.629 15.2959 135.702 15.3686C135.714 15.381 135.753 15.3731 135.785 15.3686C135.771 15.3757 135.758 15.3907 135.744 15.3998C135.63 15.4244 135.543 15.46 135.536 15.4934C135.355 15.3123 135.191 15.2388 135.037 15.2387C134.779 15.2385 134.551 15.4387 134.33 15.6597C134.027 15.962 133.831 16.7818 133.831 17.2816C133.831 17.4227 133.831 18.3214 133.789 18.3628C133.72 18.4321 133.673 19.2276 133.581 19.3193C133.525 19.3758 133.332 19.8397 133.332 19.8599C133.332 19.902 133.525 19.576 133.789 19.444C133.97 19.3535 134.139 19.2064 134.304 19.0438C134.441 18.928 134.557 18.801 134.579 18.7787C135.047 18.311 135.833 17.7746 136.326 17.2816C136.635 16.9729 136.597 16.5733 136.783 16.2004C136.822 16.1227 136.744 15.9869 136.783 15.9093C137.001 15.4743 136.714 15.2963 136.373 15.2699C136.69 14.6199 136.766 13.669 136.908 12.9567C136.958 12.8392 136.897 11.4261 136.575 10.4615C136.218 9.38981 136.169 7.94492 135.078 7.21784C133.835 6.38933 133.046 6.06322 132.178 6.07421ZM135.375 27.6312C135.373 27.6388 135.369 27.678 135.369 27.678C135.385 27.678 135.382 27.6604 135.375 27.6312ZM119.364 42.5345C119.312 42.5851 119.276 42.6275 119.276 42.6488C119.276 42.7043 119.359 42.6211 119.359 42.5657C119.359 42.5548 119.363 42.5452 119.364 42.5345ZM129.028 23.4207C129.044 23.4169 129.054 23.416 129.059 23.4207C129.157 23.5189 129.612 23.7858 129.766 23.8625C129.948 23.9537 130.198 24.2008 130.296 24.2992C130.304 24.3069 130.296 24.3754 130.296 24.3875V25.214C130.296 25.2908 130.392 25.6429 130.322 25.7131C130.168 25.8666 129.721 26.1437 129.469 26.2693C129.41 26.2992 128.752 26.7003 128.705 26.6539C128.549 26.4974 128.355 26.302 128.149 26.0665C128.054 25.9585 127.686 25.6349 127.619 25.5675C127.566 25.5151 127.634 24.3855 127.65 24.242C127.909 23.9188 128.274 23.8559 128.503 23.6858C128.537 23.6514 128.91 23.4467 129.028 23.4207Z" fill="#E6B35A"/>
<path fill-rule="evenodd" clip-rule="evenodd" d="M123.886 22.8177C123.235 23.0769 122.857 23.72 122.712 24.4499C122.59 24.4556 122.471 24.4709 122.353 24.5227C122.319 24.7537 122.284 24.9038 122.353 25.0217C122.363 25.0383 122.484 25.0288 122.644 25.0061C122.638 25.1412 122.646 25.2778 122.655 25.4116C122.527 25.4258 122.4 25.4528 122.27 25.5207C122.27 25.6936 122.291 25.9574 122.395 25.9574C122.399 25.9574 122.576 25.9027 122.706 25.8638C122.787 26.2889 122.945 26.6739 123.164 26.9554C123.281 27.1056 123.65 27.6248 123.855 27.4649C123.619 27.0799 123.399 26.7956 123.237 26.3369C123.195 26.2188 123.175 25.9903 123.169 25.7235C123.269 25.6931 123.433 25.6466 123.434 25.6455C123.541 25.5649 124.224 25.7527 124.224 25.5831C124.224 25.4766 124.266 25.1954 124.266 25.1465C124.266 25.0606 124.157 25.2088 124.1 25.2088C124.027 25.2088 123.689 25.1392 123.642 25.2088C123.556 25.3383 123.359 25.3789 123.169 25.3908C123.173 25.233 123.186 25.0752 123.2 24.9177C123.511 24.8643 123.813 24.8086 123.892 24.8086C123.951 24.8086 124.228 24.8736 124.266 24.8086C124.325 24.7081 124.187 24.7961 124.224 24.6682C124.247 24.5916 124.308 24.5408 124.308 24.4551C124.308 24.3799 124.227 24.5227 124.183 24.5227H123.559C123.458 24.5227 123.349 24.4915 123.252 24.4707C123.291 24.2491 123.344 24.0685 123.408 23.9717C123.449 23.9097 123.398 23.7841 123.439 23.7222C123.648 23.4082 123.725 23.129 123.886 22.8177Z" fill="#E6B35A"/>
<path fill-rule="evenodd" clip-rule="evenodd" d="M127.959 24.9528C127.992 24.7908 128.287 24.0989 128.363 24.1106C128.443 24.1231 128.58 24.1137 128.681 24.0967C128.858 24.0666 129.009 23.9792 129.199 24.0086C129.208 24.01 129.838 24.8818 129.842 24.8866C129.844 24.8896 129.657 25.2749 129.625 25.3369C129.539 25.5047 129.503 25.7181 129.477 25.8822C129.474 25.9035 129.226 25.8433 129.19 25.8377C128.929 25.7973 128.717 25.9538 128.483 25.9176C128.474 25.9161 128.12 25.1732 127.959 24.9528Z" fill="#E6B35A"/>
<path fill-rule="evenodd" clip-rule="evenodd" d="M139.18 11.9534C139.174 11.9534 139.176 12.0056 139.18 12.0678C139.193 12.0006 139.196 11.9534 139.18 11.9534ZM139.18 12.0678C139.163 12.1556 139.128 12.2859 139.102 12.4368C139.125 12.3819 139.152 12.3291 139.18 12.3017C139.192 12.2892 139.185 12.1664 139.18 12.0678ZM139.102 12.4368C138.998 12.6841 138.941 13.1493 138.941 13.3621C138.941 13.82 138.131 16.5358 137.833 16.8761C137.831 16.8604 137.824 16.7721 137.823 16.7721C137.766 16.7721 137.787 16.8602 137.787 16.9333C137.595 17.1348 137.383 17.4321 137.215 17.6766C136.893 17.9869 136.556 18.2783 136.18 18.6539C136.119 18.7156 135.919 18.7387 135.827 18.8306C135.746 18.9114 136.199 20.0293 136.237 20.0678C136.241 20.071 136.248 20.0715 136.253 20.073C136.732 19.8317 137.411 19.4164 137.412 19.418C137.439 19.445 137.15 19.7426 137.121 19.7715C136.943 19.9501 136.88 20.3613 136.705 20.5356C136.683 20.558 136.697 20.829 136.716 21.1334C137.178 22.2009 137.839 23.499 138.374 24.4863C138.788 24.5654 139.216 24.6211 139.325 24.6058C139.264 24.6461 139.123 24.7666 139.117 24.7722C139.076 24.8129 138.867 24.7886 138.826 24.8294C138.804 24.8513 138.726 24.9132 138.639 24.9749C138.957 25.5418 139.197 25.9308 139.258 25.9626C140.563 26.6443 137.955 28.2853 138.613 28.6293C139.182 28.9265 142.354 29.5416 142.532 30.1107C142.682 30.5886 137.53 37.1693 136.799 38.5682C136.494 39.1516 133.733 43.7277 133.872 44.1719C133.88 44.1975 134.743 43.0394 134.938 42.8516C136.087 41.7422 137.095 41.2048 138.26 40.0809C138.944 39.4204 139.98 38.9106 140.469 38.6878C139.991 38.9484 139.529 39.4466 139.382 39.7274C139.018 40.4256 138.07 40.9981 137.49 41.5572C135.752 43.2351 134.653 45.5588 133.67 47.4416C133.553 47.6647 132.432 49.609 133.248 50.0355C135.354 51.1354 137.047 49.9062 138.062 47.296C137.726 47.939 137.116 48.0253 136.924 48.3929C136.564 49.0819 134.094 49.4069 134.241 48.4916C134.766 45.2312 140.728 39.7471 144.056 36.5357C144.405 36.1982 146.356 35.0084 146.468 34.7943C146.515 34.7037 146.478 34.5605 146.473 34.4461C146.046 34.7257 145.113 35.2216 144.669 35.3609C144.213 35.5039 140.221 37.6852 140.167 37.513C140.083 37.2432 140.494 37.0492 140.698 36.8528C142.078 35.5202 143.265 32.7675 145.043 31.0516C147.342 28.8325 149.224 24.1416 150.948 21.097C150.638 21.024 150.312 20.9691 150.382 20.8995C150.429 20.8524 150.78 20.834 151.141 20.7696C151.225 20.6268 151.312 20.4822 151.395 20.3485C151.271 20.353 151.163 20.3589 151.13 20.3589H150.761C150.882 20.3369 151.086 20.2757 151.089 20.2757C151.152 20.2757 151.308 20.2649 151.453 20.2549C151.604 20.0156 151.756 19.7934 151.905 19.5896C151.609 19.3827 151.192 19.6519 150.798 19.6519C150.789 19.6519 150.777 19.6495 150.766 19.6468C150.732 19.6632 150.714 19.6684 150.714 19.6519C150.714 19.6325 150.741 19.6403 150.766 19.6468C150.869 19.5975 151.105 19.444 151.338 19.444C151.471 19.444 151.83 19.3856 152.118 19.3089C152.132 19.2917 152.146 19.2737 152.16 19.2569C152.609 19.0271 153.422 18.608 153.459 18.5707C153.594 18.4362 154.108 17.6234 154.166 17.4479C154.226 17.2684 154.473 17.1119 154.582 16.9489C154.793 16.6328 155.041 16.3222 155.206 15.9924C155.342 15.7199 155.635 14.6486 155.746 14.5369C155.769 14.5143 156.036 13.8703 155.996 13.83C155.869 13.7035 154.181 13.5314 153.917 13.6636C153.789 13.7276 153.124 13.9547 153.043 13.9547C153.002 13.9547 152.586 14.1604 152.586 14.2042C152.586 14.2243 152.789 14.1255 152.794 14.1211C152.875 14.0394 153.1 14.1059 153.168 14.0379C153.32 13.8863 154.44 13.9793 154.54 14.0795C154.582 14.1211 154.665 14.1211 154.707 14.1626C154.865 14.3209 154.629 14.6816 154.447 14.906C154.21 14.9194 153.979 14.9318 153.813 14.984C152.03 15.5432 149.621 15.4638 148.791 17.0528C147.759 19.0284 147.976 22.563 147.408 23.6494C146.986 24.4581 146.057 23.977 145.781 23.7741C145.834 24.1156 145.331 25.4637 145.288 25.5467C145.045 26.0109 144.165 28.6125 144.045 28.6501C143.605 28.7881 140.785 23.6105 139.98 22.7761C139.698 22.4836 139.918 20.8655 139.575 20.6864C139.02 20.3968 139.78 17.9098 139.247 18.0769C138.977 18.1617 138.558 18.2516 138.114 18.3628C138.078 18.2482 138.036 18.1387 138 18.0665C137.98 18.0281 137.939 17.7047 137.901 17.3907C137.965 17.2662 138.025 17.1629 138.062 17.1256C138.089 17.0989 138.13 17.0798 138.156 17.0528C138.154 17.0805 138.159 17.1078 138.176 17.1256C138.225 17.1746 138.304 17.1962 138.353 17.2452C138.61 17.5025 139.422 16.9406 139.471 16.8917C139.636 16.7268 139.221 16.2264 139.18 16.1847C139.14 16.1455 139.219 15.99 139.18 15.9508C138.828 15.5997 139.003 14.7853 139.003 14.1886C139.003 13.6781 139.06 13.2487 139.06 12.8319C139.06 12.6976 139.079 12.5646 139.102 12.4368ZM145.781 23.7741C145.772 23.7138 145.742 23.6806 145.693 23.6962C145.682 23.6996 145.724 23.7319 145.781 23.7741ZM146.473 34.4461C146.709 34.2913 146.796 34.1974 146.551 34.2745C146.481 34.2964 146.469 34.3643 146.473 34.4461ZM138.062 47.296C138.212 47.0095 137.062 47.5245 137.23 47.8003C137.399 48.0761 137.786 47.4648 138.062 47.296ZM150.683 20.3485C150.7 20.3446 150.735 20.3589 150.756 20.3589C150.708 20.3674 150.673 20.3706 150.673 20.3589C150.673 20.352 150.678 20.3498 150.683 20.3485ZM139.346 24.5954C139.352 24.5926 139.356 24.5921 139.356 24.5954C139.356 24.6005 139.348 24.6033 139.336 24.6058C139.34 24.6034 139.343 24.5968 139.346 24.5954Z" fill="#E6B35A"/>
<path fill-rule="evenodd" clip-rule="evenodd" d="M16.9644 5.87148C17.1759 5.80099 17.3992 5.76415 17.6246 5.73633C17.5329 5.94394 17.4431 6.1509 17.3538 6.35838C17.4731 6.31042 17.5833 6.27341 17.6558 6.27694C17.6837 6.2783 17.7084 6.28798 17.7234 6.30295C17.7952 6.37484 17.0453 7.14734 16.9748 7.21784C16.6445 7.54816 16.366 8.00907 16.0839 8.47583C15.7946 8.95463 15.5016 9.43962 15.145 9.79615C14.7063 10.2349 14.1863 9.567 14.4797 9.38029C14.4242 9.38029 14.3634 9.36722 14.3025 9.35415C14.1808 9.32802 14.0591 9.30188 13.9806 9.38029C13.8674 9.49353 13.8208 9.68564 13.7831 9.86892C13.7832 9.86952 13.7832 9.8702 13.7831 9.8709L13.7831 9.87154C13.7831 9.87246 13.783 9.87337 13.7831 9.87411C13.8559 10.584 13.9791 12.1343 14.0222 13.2945C14.3165 13.8769 14.5466 14.4863 14.3965 14.7864C14.3852 14.8091 14.3726 14.8446 14.358 14.8857C14.3026 15.042 14.2184 15.2796 14.0638 15.2023C14.0276 15.1842 13.9773 15.1291 13.9242 15.0711C13.9166 15.0628 13.909 15.0544 13.9013 15.0461C13.8966 15.041 13.8918 15.0358 13.8871 15.0307C13.8521 15.2283 13.8385 15.4673 13.8351 15.7169C13.87 15.8557 13.8975 15.9925 13.8975 16.1172C13.8975 16.1274 13.8958 16.1473 13.8937 16.1718C13.8878 16.2417 13.8789 16.3481 13.8975 16.3667C14.0632 16.5325 14.6232 17.9282 14.3133 18.238C14.2407 18.3107 14.1275 18.2642 14.0066 18.1653L14.005 18.1827C13.9922 18.3168 13.9806 18.4385 13.9806 18.5291C13.9806 18.5383 13.9929 18.5618 14.0096 18.5936C14.0596 18.6891 14.1489 18.8599 14.0638 18.945C14.0574 18.9514 13.9948 18.9451 13.9131 18.9346L13.9117 18.9346L13.9105 18.9346C13.9097 18.9346 13.9088 18.9347 13.9079 18.9346C13.8873 18.9277 13.8708 18.9183 13.8559 18.9034C13.8362 18.8837 13.7978 18.8345 13.7516 18.7754C13.644 18.6377 13.4943 18.446 13.44 18.446C13.4143 18.446 13.5011 18.5895 13.5435 18.6595C13.5546 18.6778 13.5626 18.6911 13.5648 18.6955C13.6587 18.8832 13.778 19.1166 13.9391 19.2777C13.9469 19.2855 13.9698 19.3389 14.0037 19.4176C14.0184 19.4517 14.035 19.4905 14.0534 19.5324C14.0686 19.6562 14.0826 19.8021 14.0969 19.9497C14.1332 20.3269 14.1706 20.7152 14.2302 20.7748C14.2671 20.8117 14.4085 20.7811 14.5525 20.7384C14.5511 20.8323 14.5493 20.9262 14.5471 21.0201C15.0232 20.9138 15.49 20.7816 15.9092 20.572C15.9421 20.5556 16.0075 20.566 16.0737 20.5766C16.1504 20.5888 16.2283 20.6012 16.2575 20.572C16.5389 20.2906 17.0546 20.1433 17.6038 20.0106C17.5965 20.0066 17.5888 20.0031 17.5812 19.9995C17.5713 19.9949 17.5612 19.9903 17.5518 19.9846C18.1792 19.8328 19.0545 19.2556 19.865 18.3992C21.1443 19.0976 20.7759 19.4667 20.4322 19.811C20.2814 19.9621 20.1353 20.1084 20.1353 20.2757C20.1353 20.3022 20.1408 20.3238 20.1509 20.3433C20.1504 20.3441 20.1494 20.3451 20.1483 20.3462C20.1467 20.3478 20.1447 20.3495 20.1428 20.3512C20.139 20.3546 20.1353 20.3578 20.1353 20.3589C20.1353 20.3592 20.1368 20.3593 20.1391 20.3593C20.1418 20.3593 20.1457 20.3592 20.1496 20.3591C20.1544 20.3589 20.1593 20.3588 20.1613 20.3589C20.2158 20.4355 20.3486 20.4631 20.485 20.4915C20.5053 20.4958 20.5258 20.5 20.546 20.5045C20.8387 20.7516 21.3375 20.8605 21.9094 20.9853C22.8983 21.2011 24.1058 21.4647 24.8449 22.5733C25.4983 23.5533 25.7417 24.785 25.9717 25.9489C25.9894 26.0388 26.0071 26.1283 26.0249 26.2173C26.8561 30.3731 24.7175 32.446 22.1793 34.9063L22.1786 34.9069C21.9015 35.1756 21.6195 35.4489 21.3361 35.73C21.3543 35.8389 21.387 35.9265 21.4349 35.9743C21.5432 36.0827 21.8054 36.161 21.9789 36.2128C22.0647 36.2384 22.1288 36.2575 22.1419 36.2706C22.156 36.2847 22.2533 36.3297 22.3602 36.3694C22.2959 36.3669 22.2306 36.3653 22.1768 36.364C22.1079 36.3624 22.0579 36.3612 22.0535 36.359C21.7396 36.2021 20.8125 36.1998 20.494 36.359C20.4899 36.3611 20.4833 36.3645 20.4746 36.3689C20.3956 36.4097 20.1477 36.5377 20.1146 36.5046C20.0835 36.4735 20.0683 36.427 20.0626 36.3694C18.5833 37.0956 17.1297 37.4321 15.5557 37.7469C15.0843 37.8412 14.5928 37.8433 14.1019 37.8454C13.6012 37.8476 13.1013 37.8498 12.6239 37.9497C12.718 38.145 12.9412 38.3066 13.1033 38.4238C13.2094 38.5006 13.2893 38.5584 13.2893 38.5942C13.2893 38.599 13.2459 38.5708 13.2058 38.5447C13.1789 38.5272 13.1534 38.5107 13.1437 38.5059C13.1061 38.4871 13.0664 38.4743 13.0266 38.4616C12.9869 38.4489 12.9473 38.4362 12.9098 38.4175C12.8487 38.3869 12.7761 38.3726 12.7032 38.3582C12.6299 38.3437 12.5563 38.3291 12.494 38.2979C12.4087 38.2553 12.3352 38.2004 12.2632 38.1467C12.1249 38.0435 11.9923 37.9445 11.7922 37.9445C11.4778 37.9445 11.383 38.3288 11.3208 38.5813C11.2903 38.7049 11.2677 38.797 11.2308 38.797C11.2076 38.797 11.2289 38.763 11.2468 38.7342C11.2529 38.7246 11.2585 38.7156 11.262 38.7086C11.2813 38.67 11.2857 38.624 11.2901 38.5777C11.2946 38.5308 11.2991 38.4837 11.3192 38.4435C11.3643 38.3531 11.3764 37.9146 11.3764 37.7989V37.5026C11.3764 37.4959 11.387 37.4802 11.3961 37.467C11.4041 37.4553 11.4108 37.4454 11.4075 37.4454C11.1562 37.4454 10.8031 37.5508 10.6434 37.7105C10.6186 37.7354 10.5987 37.7889 10.5765 37.8483C10.5345 37.9611 10.4845 38.0952 10.3783 38.0952C10.0272 38.0952 9.69304 37.5693 9.93645 37.3259L10.2016 37.066C10.2374 37.0301 10.3009 37.0063 10.3616 36.9835C10.4171 36.9627 10.4704 36.9427 10.4979 36.9152C10.5333 36.8798 10.7324 36.9469 10.8976 37.0027C10.9976 37.0364 11.0852 37.066 11.1164 37.066C11.2453 37.066 11.3623 36.9718 11.4643 36.8898C11.507 36.8554 11.5471 36.8232 11.5843 36.8009C11.8296 36.6537 11.7281 36.7261 11.6569 36.7769C11.6007 36.817 11.5634 36.8436 11.7298 36.7385L11.7685 36.7468C11.5431 35.9136 11.2776 34.9555 11.236 34.9139C11.1526 34.8306 11.0908 34.7277 11.0287 34.6245C10.9966 34.5712 10.9645 34.5178 10.9293 34.4669C11.2161 34.066 11.1373 32.8531 11.0609 31.6775C10.993 30.6322 10.927 29.6163 11.1216 29.2271C11.1998 29.0707 11.3474 28.7325 11.2412 28.5201C11.0536 28.145 11.089 26.3449 11.1112 25.2186C11.1168 24.9311 11.1216 24.6875 11.1216 24.5227C11.1216 24.0835 11.1645 23.3487 11.2145 22.4924C11.3019 20.9951 11.411 19.1263 11.3504 17.817C11.3343 17.661 11.3206 17.4895 11.314 17.3024C11.3116 17.2783 11.3093 17.254 11.307 17.2297C11.2998 17.1537 11.2927 17.0781 11.2828 17.0113C11.2821 17.0066 11.2811 17.0024 11.2802 16.9982C11.2792 16.994 11.2783 16.9898 11.2776 16.9853C11.079 16.1602 10.2588 14.4834 9.99363 14.2094C9.6534 14.2313 9.73469 14.35 9.81381 14.4655C9.89641 14.5861 9.97665 14.7032 9.57258 14.7032C9.51003 14.7032 9.43677 14.5923 9.37231 14.4947C9.33872 14.4438 9.30753 14.3966 9.28148 14.3706C9.2482 14.3373 9.19004 14.3261 9.13416 14.3154C9.0962 14.3081 9.0593 14.3011 9.03196 14.2874C9.01984 14.2813 8.79764 14.229 8.72527 14.2354C8.75997 14.2232 8.88004 14.1762 8.99038 14.121C9.04185 14.0953 9.14386 14.0746 9.23896 14.0553C9.33664 14.0354 9.42703 14.0171 9.44782 13.9963C9.49947 13.9446 9.58547 13.8939 9.67828 13.8391C9.78708 13.7749 9.90525 13.7052 9.98843 13.622C10.0127 13.5977 10.0188 13.5443 10.0252 13.4885C10.0322 13.4272 10.0395 13.363 10.0716 13.3309C10.189 13.2136 10.2759 12.9663 10.3716 12.6941C10.4158 12.5686 10.4618 12.4378 10.5135 12.3121C10.5435 12.2001 10.5731 12.0871 10.6026 11.9744C10.8049 11.2017 11.0031 10.4449 11.3192 10.1288C11.3761 10.0719 11.4235 9.87879 11.4764 9.66301C11.492 9.59944 11.5081 9.53391 11.525 9.4693C11.2617 9.5996 11.0088 9.72145 10.7638 9.8395C9.60584 10.3974 8.62393 10.8705 7.55567 11.7507C7.52501 11.7759 7.2907 11.8867 6.97867 12.0314C6.97518 12.0245 6.97171 12.0188 6.96825 12.0131C6.96478 12.0074 6.96132 12.0018 6.95788 11.995C6.23383 12.2785 5.18279 12.32 4.61348 11.7507C4.44306 11.5802 4.36517 11.3735 4.29069 11.1758C4.22246 10.9947 4.1571 10.8212 4.02608 10.6902C3.98255 10.6467 4.0036 10.3952 4.01737 10.2307C4.02217 10.1734 4.02608 10.1266 4.02608 10.1028L4.02603 10.0324C4.02543 9.56142 4.02477 9.0437 4.26 8.80846C4.52012 8.54835 6.38421 7.05294 6.96827 8.22107C7.11977 8.52406 6.81344 8.81913 6.47493 9.1452C5.97246 9.6292 5.3991 10.1815 6.14696 10.9293C6.22307 11.0055 6.4176 10.9778 6.63039 10.9241C7.10204 10.6623 7.56758 10.3971 8.03394 10.1315C9.0974 9.5258 10.1651 8.91766 11.3192 8.34063C11.4785 8.26099 11.6703 8.12342 11.8764 7.97567C12.1887 7.75171 12.5337 7.50434 12.8475 7.39976C13.5275 7.17306 14.1934 6.91288 14.8657 6.65017C15.5512 6.3823 16.2435 6.1118 16.9644 5.87148ZM8.72527 14.2354C8.72412 14.2358 8.72226 14.2365 8.72004 14.2374C8.71712 14.2386 8.71359 14.2401 8.71028 14.2414C8.70445 14.2438 8.69928 14.246 8.69928 14.2458C8.69928 14.2395 8.71141 14.2366 8.72527 14.2354ZM22.6721 36.4162C22.7004 36.3879 22.5317 36.3761 22.3602 36.3694C22.4888 36.4172 22.6329 36.4553 22.6721 36.4162ZM17.0053 35.9553C16.7747 35.8975 16.5016 35.8148 16.2942 35.752C16.1243 35.7005 15.9985 35.6624 15.9768 35.6624C15.8109 35.6624 15.6163 35.6166 15.4102 35.5429C15.4212 35.5405 15.432 35.5376 15.4428 35.5348C15.4526 35.5322 15.4625 35.5296 15.4725 35.5273C14.7568 35.0478 14.2214 33.8475 14.4121 32.9282C14.1609 31.531 14.2264 29.5598 14.2802 27.9389C14.3002 27.3375 14.3185 26.7842 14.3185 26.3265C14.3185 25.3722 14.3762 24.3952 14.4347 23.4052C14.4669 22.8597 14.4993 22.3101 14.5225 21.7582C14.8451 21.6831 15.1222 21.6162 15.3081 21.5712C15.4587 21.5348 15.5494 21.5129 15.5557 21.5129C15.9602 21.5129 16.8407 21.3383 17.1984 21.1594C17.3205 21.0984 17.5797 21.1229 17.7923 21.143C17.8831 21.1516 17.9653 21.1594 18.0249 21.1594C19.217 21.1594 19.9381 21.5241 20.9828 22.0524C21.0899 22.1065 21.2005 22.1625 21.3153 22.2199C21.5573 22.3409 21.6895 22.5536 21.8106 22.7485C21.8788 22.8583 21.9435 22.9624 22.0223 23.0412C22.1048 23.1237 22.1905 23.2055 22.2776 23.2885C22.6466 23.6405 23.0396 24.0154 23.3167 24.5695C23.3615 24.6591 23.3574 24.8655 23.3531 25.083C23.3476 25.3601 23.3418 25.655 23.4362 25.7494C24.5005 26.8137 22.4927 31.8652 21.7884 32.5695C21.3656 32.9923 20.9144 33.4117 20.4774 33.8179C20.0671 34.1993 19.6692 34.5691 19.3192 34.9191C19.1613 35.0771 18.9555 35.169 18.747 35.2621C18.5328 35.3578 18.3157 35.4548 18.1444 35.6261C18.0506 35.7199 17.8614 35.7413 17.6635 35.7636C17.4975 35.7823 17.3254 35.8017 17.1984 35.8652C17.1339 35.8974 17.0696 35.9273 17.0053 35.9553ZM11.4387 22.1003C11.9641 21.575 12.7666 21.3792 13.6199 21.2083C13.2259 21.366 12.8312 21.5182 12.4316 21.6585C12.1197 21.7679 11.777 22.0267 11.4662 22.262C11.3697 22.2389 11.3512 22.1878 11.4387 22.1003Z" fill="#E6B35A"/>
<path d="M13.6199 21.2083C12.7666 21.3792 11.9641 21.575 11.4387 22.1003C11.3512 22.1878 11.3697 22.2389 11.4662 22.262C11.777 22.0267 12.1197 21.7679 12.4316 21.6585C12.8312 21.5182 13.2259 21.366 13.6199 21.2083Z" fill="#E6B35A"/>
<path fill-rule="evenodd" clip-rule="evenodd" d="M31.0828 18.0093C31.109 17.9831 31.1368 17.9643 31.166 17.9573C31.3555 17.9117 31.5819 18.2375 31.5142 18.4824C31.5369 18.4694 31.5603 18.456 31.5844 18.4422L31.6153 18.4245L31.6156 18.4243C31.9156 18.2522 32.2977 18.0329 32.4343 18.0145C32.4648 18.0104 32.4844 18.016 32.4863 18.0353C32.4897 18.0697 32.4188 18.1869 32.3605 18.2832C32.3266 18.3393 32.2969 18.3882 32.2888 18.4096C32.2142 18.6047 32.2466 18.8558 32.2788 19.1057C32.3064 19.3198 32.3339 19.533 32.294 19.7091C32.2736 19.7988 32.2525 19.8913 32.2315 19.982C31.8616 20.1908 31.5833 20.4334 31.307 20.6741C31.1028 20.8521 30.8998 21.029 30.6617 21.1906C30.7316 20.978 30.8022 20.7703 30.873 20.5619L30.8749 20.5564C30.8551 20.5798 30.8355 20.6034 30.816 20.627C30.7562 20.6991 30.6966 20.7711 30.6305 20.8371C30.5453 20.9224 30.5044 21.0636 30.4902 21.2322C30.476 21.4008 30.4844 21.5935 30.4954 21.7884C30.4968 21.8131 30.4982 21.8379 30.4997 21.8627C30.5096 22.0328 30.5195 22.2014 30.511 22.3446C30.5037 22.4675 30.464 22.5477 30.4226 22.6253C30.9248 22.3867 31.4898 22.1406 32.0276 21.9594C32.0177 22.0223 31.9983 22.0744 31.9769 22.1263C31.9532 22.1406 31.927 22.1555 31.9007 22.1704C31.8712 22.1872 31.8416 22.204 31.8157 22.2199C31.7745 22.6898 31.7681 23.1636 31.7741 23.639C31.7162 23.6596 31.6712 23.6774 31.6546 23.6858C31.5902 23.718 31.4473 23.7347 31.2995 23.7521C31.1137 23.7739 30.92 23.7966 30.8645 23.8521C30.8023 23.9143 31.3894 23.8693 31.7793 23.8365C31.781 23.9279 31.7834 24.019 31.7858 24.1101L31.7859 24.112C31.7872 24.1622 31.7885 24.2124 31.7897 24.2628C31.5645 24.2895 31.2968 24.3221 31.2387 24.3512C31.1934 24.3738 31.1497 24.3968 31.1125 24.4163C31.0681 24.4397 31.0328 24.4583 31.0152 24.4655C31.1163 24.4526 31.4687 24.468 31.6029 24.4738C31.6318 24.4751 31.6506 24.4759 31.6546 24.4759C31.6989 24.4759 31.7388 24.4781 31.7754 24.4801L31.7949 24.4811C31.8134 25.2796 31.8213 26.0782 31.7066 26.8567C31.6876 26.9855 31.6865 27.1188 31.6962 27.2569C31.9475 27.7936 32.1687 28.557 31.9197 28.806C31.9065 28.8192 31.8967 28.8347 31.8885 28.8528C31.8125 28.8892 31.7147 28.9422 31.6028 29.0029L31.6025 29.0031C31.4809 29.069 31.3424 29.1441 31.1971 29.2167C31.164 29.2332 31.1192 29.2488 31.0741 29.2645C31.0046 29.2886 30.9345 29.313 30.906 29.3414C30.9028 29.3446 30.8991 29.3485 30.895 29.3527L30.8919 29.3558C30.8793 29.3687 30.8637 29.3846 30.8489 29.3986C30.9634 29.3639 31.1999 29.3049 31.458 29.2405C31.5916 29.2072 31.7312 29.1723 31.8625 29.1387L31.8632 29.1558C31.8689 29.2996 31.8746 29.4437 31.8053 29.513C31.7311 29.5872 31.7296 29.7394 31.728 29.8908C31.7268 30.0133 31.7255 30.1352 31.6858 30.2147C31.5717 30.4429 31.4413 30.7853 31.3583 31.1036C31.358 31.1044 31.3582 31.1053 31.3583 31.1062L31.3583 31.1066L31.3584 31.1075C31.3584 31.1078 31.3584 31.1081 31.3584 31.1083C31.3584 31.1085 31.3583 31.1087 31.3583 31.1088C31.3063 31.6469 31.2793 32.1155 31.3011 32.3356C31.3659 32.9896 31.3013 34.1087 31.0672 34.7216C30.9369 35.0625 31.0687 35.2349 31.1394 35.3274L31.1452 35.335C31.1781 35.3456 31.2159 35.3515 31.2538 35.3573C31.3225 35.3679 31.3915 35.3786 31.4311 35.4181C31.4321 35.4192 31.4333 35.4202 31.4346 35.4212C31.4368 35.4229 31.4392 35.4245 31.4416 35.4261L31.4457 35.4288C31.4479 35.4304 31.45 35.432 31.4519 35.4337C31.5103 35.5601 31.6893 35.6847 31.8187 35.7748C31.8752 35.8142 31.9222 35.8469 31.9457 35.8704C32.0632 35.9879 32.0975 36.1472 32.1303 36.2992C32.1602 36.4381 32.1888 36.571 32.2784 36.6605C32.2957 36.6778 32.287 36.7211 32.2784 36.7645C32.2697 36.8078 32.261 36.8511 32.2784 36.8684C32.488 37.0781 32.3708 37.5294 32.2524 37.8665C32.1382 38.0234 31.9944 38.092 31.8469 37.9445C31.5581 37.6556 31.6563 37.1231 32.1952 37.1231C32.2559 37.1231 31.9453 36.1611 31.8469 36.0627C31.3394 35.5552 30.9405 35.7298 30.658 35.8536C30.5146 35.9164 30.4011 35.9661 30.3186 35.9068C29.9827 36.1404 29.577 36.4377 29.1537 36.7478C28.1826 37.4594 27.1188 38.2389 26.5915 38.4747C26.2626 38.6217 25.9227 38.9475 25.6558 39.2128C25.9561 38.8298 26.2524 38.4073 26.5354 38.0039C26.8344 37.5777 27.1186 37.1726 27.3765 36.858C27.5006 36.7066 27.6462 36.5249 27.7811 36.3565L27.7816 36.356L27.7819 36.3556C28.0156 36.0639 28.217 35.8126 28.2186 35.8288C28.2205 35.8481 28.3633 34.859 28.2602 33.8171C28.2109 33.3193 28.0948 31.6355 28.0834 30.433C28.1486 30.4793 28.2111 30.5269 28.2645 30.5675C28.3323 30.619 28.3856 30.6595 28.4109 30.6722C28.422 30.6777 28.4407 30.6876 28.4638 30.6998L28.4642 30.7C28.5909 30.767 28.851 30.9044 28.7436 30.7969C28.5948 30.6482 28.4799 30.436 28.3693 30.2147C28.322 30.1201 28.2274 30.0238 28.1319 29.9264C28.1157 29.9099 28.0995 29.8934 28.0834 29.8768C28.0899 29.6634 28.1037 29.4823 28.125 29.357C28.2476 29.4745 28.4051 29.6666 28.5109 29.7957C28.5625 29.8587 28.6019 29.9067 28.6188 29.9236C28.6205 29.9252 28.6227 29.9275 28.6255 29.9304C28.6277 29.9327 28.6303 29.9354 28.6332 29.9384C28.6443 29.9498 28.66 29.9662 28.6787 29.9858C28.7861 30.0979 28.9931 30.314 28.9931 30.2979C28.9931 30.1998 28.9166 30.0942 28.8441 29.9941C28.8053 29.9407 28.7677 29.8888 28.7436 29.8404C28.729 29.8112 28.708 29.7622 28.6817 29.7008C28.5745 29.4504 28.3791 28.9939 28.1666 28.832C28.14 28.6624 28.0881 28.469 28.036 28.275C27.9208 27.846 27.8048 27.4135 27.9587 27.2257C28.2485 26.8722 28.1138 25.8271 27.983 24.8124C27.8833 24.0386 27.7858 23.2826 27.8807 22.8644C27.928 22.6558 28.1764 21.4905 27.9691 21.3206C27.6071 21.0239 27.0975 20.7656 26.5499 20.5824C26.4757 20.5839 26.4009 20.5855 26.3262 20.5871C26.0668 20.5925 25.8089 20.598 25.5831 20.598C25.4877 20.598 25.3865 20.5829 25.2837 20.5676C25.1775 20.5517 25.0696 20.5356 24.9645 20.5356C24.9591 20.5356 24.949 20.5353 24.9355 20.5349C24.9258 20.5345 24.9143 20.5341 24.9015 20.5336C24.8186 20.5305 24.6824 20.5255 24.6318 20.5304C24.6691 20.5255 24.868 20.4669 24.9073 20.4473C24.9957 20.4031 25.2138 20.3943 25.4266 20.3857C25.5302 20.3816 25.6326 20.3774 25.7182 20.3693C25.5926 20.3472 25.4666 20.3295 25.344 20.3173C26.979 20.1255 28.3294 19.6806 29.778 19.1581C29.9214 19.012 30.0551 18.8666 30.1876 18.7225C30.3362 18.5609 30.4834 18.4007 30.6409 18.2432C30.6974 18.1868 30.7666 18.1502 30.8327 18.1152C30.8932 18.0832 30.9511 18.0526 30.9944 18.0093C31.0018 18.002 31.0202 18.0056 31.0386 18.0093C31.057 18.013 31.0754 18.0167 31.0828 18.0093ZM32.0276 21.9594C32.8951 21.6672 33.6919 21.5437 34.0406 21.8924C34.2719 22.1237 34.4404 22.3795 34.6112 22.6387C34.7867 22.9051 34.9645 23.175 35.2153 23.4258C35.2809 23.4914 35.4144 23.5267 35.5581 23.5646C35.5857 23.5719 35.6137 23.5793 35.6416 23.587C35.7409 23.5868 35.833 23.5693 35.9015 23.535C35.92 23.5258 35.9505 23.5261 35.9816 23.5264C36.0204 23.5268 36.06 23.5272 36.0783 23.509C36.1303 23.4569 36.1663 23.4075 36.2032 23.3567C36.2421 23.303 36.2822 23.2479 36.3434 23.1867C36.4328 23.0973 36.5201 22.8536 36.5201 22.7137C36.5201 22.5674 36.4133 22.2846 36.3122 22.1835C36.3012 22.1725 36.272 22.1492 36.237 22.1213C36.1591 22.0591 36.0523 21.9739 36.0523 21.9496C36.0523 21.7745 36.6514 22.2004 36.6656 22.2147C36.6853 22.2343 36.6833 22.2752 36.6812 22.316C36.6792 22.3569 36.6772 22.3978 36.6968 22.4174C36.727 22.4476 36.7225 22.49 36.7177 22.5354C36.7134 22.5756 36.7088 22.6181 36.728 22.6565C36.864 22.9285 36.6236 23.3744 36.4889 23.509C36.3281 23.6698 36.6909 23.5721 36.754 23.509C36.7851 23.4779 36.8165 23.4301 36.8471 23.3835C36.876 23.3394 36.9043 23.2964 36.9308 23.2699C36.9331 23.2676 36.9319 23.2441 36.9309 23.2226C36.93 23.2039 36.9291 23.1867 36.9308 23.1867C36.9838 23.1867 36.982 23.6345 36.9308 23.6858C36.7704 23.8462 36.6193 23.9816 36.359 24.0392C36.6122 24.2264 36.9087 24.4004 37.2006 24.5717C37.611 24.8125 38.0124 25.0481 38.2719 25.3076C38.398 25.4337 39.1341 25.2667 39.2128 25.188C39.4785 24.9223 39.7094 24.5588 39.9519 24.1772C40.2198 23.7555 40.5019 23.3115 40.8606 22.9528C41.0722 22.7412 40.6904 21.7221 40.6267 21.6585C40.5076 21.5393 40.4534 21.3392 40.3944 21.1209C40.3235 20.8587 40.2455 20.5703 40.0393 20.3641C39.3598 19.6846 37.6395 19.0359 36.2342 19.049C35.7658 19.0533 35.3282 19.1355 34.9814 19.3089C34.593 19.5031 34.1394 19.553 33.6861 19.6029C33.2331 19.6527 32.7802 19.7025 32.3927 19.8963C32.337 19.9241 32.2833 19.9527 32.2315 19.982L32.2212 20.0262C32.2024 20.0535 32.1841 20.0809 32.1658 20.1081C32.1155 20.1832 32.0657 20.2574 32.0081 20.3277C31.9316 20.421 31.9016 20.564 31.9041 20.7332C31.9066 20.9024 31.9364 21.0966 31.9665 21.2894L31.9694 21.3079C31.9986 21.4946 32.0278 21.6814 32.0341 21.8404C32.0358 21.8849 32.0332 21.9239 32.0276 21.9594ZM30.7813 29.4246C30.7813 29.4539 30.8111 29.4338 30.8437 29.4038C30.8318 29.4075 30.8211 29.4106 30.812 29.4132C30.7931 29.4186 30.7813 29.422 30.7813 29.4246Z" fill="#E6B35A"/>
<path d="M30.6305 20.8371C30.5453 20.9224 30.5044 21.0636 30.4902 21.2322C30.476 21.4008 30.4844 21.5935 30.4954 21.7884C30.4968 21.8131 30.4982 21.8379 30.4997 21.8627C30.5096 22.0328 30.5195 22.2014 30.511 22.3446C30.5037 22.4675 30.464 22.5477 30.4226 22.6253C30.9248 22.3867 31.4898 22.1406 32.0276 21.9594C32.0332 21.9239 32.0358 21.8849 32.0341 21.8404C32.0278 21.6814 31.9986 21.4946 31.9694 21.3079L31.9665 21.2894C31.9364 21.0966 31.9066 20.9024 31.9041 20.7332C31.9016 20.564 31.9316 20.421 32.0081 20.3277C32.0657 20.2574 32.1155 20.1832 32.1658 20.1081C32.1841 20.0809 32.2024 20.0535 32.2212 20.0262L32.2315 19.982C31.8616 20.1908 31.5833 20.4334 31.307 20.6741C31.1028 20.8521 30.8998 21.029 30.6617 21.1906C30.7316 20.978 30.8022 20.7703 30.873 20.5619L30.8749 20.5564C30.8551 20.5798 30.8355 20.6034 30.816 20.627C30.7562 20.6991 30.6966 20.7711 30.6305 20.8371Z" fill="#E6B35A"/>
<path d="M76.2513 21.1334L76.1369 21.9807C75.9235 22.0925 75.7326 22.0814 75.5431 22.0703C75.4778 22.0665 75.4126 22.0627 75.3468 22.0639C75.3281 22.0642 75.4891 22.1902 75.6283 22.2991C75.7156 22.3674 75.7943 22.429 75.8146 22.4486C75.9217 22.5517 76.0704 22.6456 76.2364 22.7317C76.3694 22.2314 76.5272 21.7655 76.6561 21.3848L76.6562 21.3845L76.6568 21.3829C76.8838 20.7126 77.0371 20.4562 77.5252 19.6403L77.598 19.5185C77.2281 19.6555 76.4121 20.8659 76.2513 21.1334Z" fill="#E6B35A"/>
<path d="M74.1308 33.6162C74.1159 33.6164 74.1037 33.6215 74.0915 33.6275C73.8553 33.7428 73.6406 33.95 73.4258 34.1573C73.2362 34.3403 73.0466 34.5234 72.8421 34.6431C72.9054 34.6476 72.9597 34.6638 73.0007 34.6948C73.0012 34.6952 73.002 34.6959 73.0029 34.6967C73.0034 34.6972 73.004 34.6977 73.0047 34.6983C73.0063 34.6998 73.0084 34.7018 73.0108 34.7041C73.0215 34.7141 73.0392 34.7308 73.0609 34.7485C73.1483 34.7502 73.2379 34.7523 73.3094 34.7584C73.4714 34.6264 74.0009 34.477 74.4324 34.3552C74.746 34.2667 75.0078 34.1928 75.0397 34.1507C75.0717 34.1085 74.8334 33.8628 74.6124 33.663C74.5641 33.6637 74.5216 33.6723 74.4856 33.6899C74.4369 33.7136 74.3619 33.6855 74.287 33.6574C74.2312 33.6364 74.1754 33.6155 74.1308 33.6162Z" fill="#E6B35A"/>
<path fill-rule="evenodd" clip-rule="evenodd" d="M77.686 19.3712C76.3879 19.761 73.3814 23.5591 72.467 26.2589C72.4529 26.3005 72.4298 26.3609 72.4014 26.4353C72.2124 26.93 71.7871 28.0435 72.1967 28.3538C72.3883 28.4989 72.5882 28.7267 72.7959 28.9634C73.0205 29.2192 73.2541 29.4855 73.4962 29.6689C73.8744 29.9554 74.3838 30.0204 74.9517 29.9704C74.9174 29.6671 74.8802 29.2998 74.9465 29.2998C74.9791 29.2998 75.0406 29.484 75.1135 29.7019L75.1136 29.7023C75.1399 29.781 75.1676 29.864 75.1961 29.9444L75.2007 29.9438C75.2679 29.9345 75.3356 29.9251 75.404 29.9132C75.3429 29.7431 75.2944 29.5758 75.3624 29.5078C75.3831 29.4871 75.5034 29.6728 75.6223 29.8664C76.1711 29.7537 76.7371 29.584 77.2852 29.4195L77.2857 29.4194C77.2674 29.1734 77.2539 28.9256 77.3585 28.9256C77.4081 28.9256 77.4357 29.1142 77.4567 29.2585C77.4625 29.298 77.4678 29.3341 77.4729 29.3622C77.5033 29.3532 77.5344 29.3439 77.5655 29.3346L77.6244 29.3172L77.6663 29.3049L77.7016 29.2946C77.7189 29.2114 77.7467 29.0037 77.7625 28.8859L77.7631 28.8814C77.7665 28.8558 77.7693 28.8348 77.7713 28.8206C77.7731 28.808 77.7741 28.8008 77.7744 28.8008C77.7894 28.8008 77.7845 28.8181 77.7788 28.8378C77.774 28.8543 77.7687 28.8727 77.7744 28.884C77.8182 28.9716 77.834 29.1023 77.8501 29.2349L77.8523 29.253C78.6856 29.0205 79.4072 28.8881 79.7861 29.1751C80.0205 29.3526 80.1989 29.7374 80.3386 30.0386C80.4052 30.1822 80.463 30.3068 80.5138 30.3811C81.2597 31.4697 79.6007 36.2637 79.0387 37.0903C78.864 36.8919 78.6505 36.6915 78.4532 36.5063C78.3335 36.3939 78.2197 36.2871 78.1242 36.1898C77.7708 35.8295 75.4098 33.6522 74.6124 33.663C74.462 33.5271 74.3196 33.4124 74.2759 33.3976C74.2738 33.3969 74.2701 33.3955 74.2649 33.3935C74.2256 33.3784 74.1035 33.3317 74.0168 33.3399C73.9841 33.343 73.9574 33.3506 73.9398 33.3739C73.7577 33.6142 73.253 33.8681 72.7435 34.1245C72.4937 34.2501 72.2427 34.3764 72.028 34.5019L72.0271 34.5023C72.0253 34.5032 72.0235 34.5042 72.0217 34.5052C72.0192 34.5066 72.0167 34.5082 72.0142 34.5098C72.0098 34.5125 72.0055 34.5152 72.0009 34.5174C71.4327 34.7821 70.8256 35.3225 70.7648 36.1829C70.7561 36.3059 70.8586 36.4147 70.9319 36.4926C70.9646 36.5273 70.9915 36.5558 71.0002 36.5768C71.1432 36.9216 71.3964 37.1077 71.7249 37.1309C72.9946 37.2206 73.2199 35.2815 72.3975 34.7255C72.5596 34.6699 72.7182 34.6342 72.8421 34.6431C72.8238 34.6538 72.8053 34.6641 72.7867 34.6737C72.7779 34.6783 72.769 34.6828 72.7602 34.6871C72.6503 34.7407 72.8355 34.7443 73.0418 34.7482L73.0609 34.7485C73.1247 34.8008 73.2228 34.8623 73.2767 34.7911C73.28 34.7868 73.2836 34.7825 73.2877 34.7782C73.294 34.7717 73.3012 34.7651 73.3094 34.7584C73.3564 34.7625 73.3955 34.7683 73.4208 34.777C73.6408 34.8527 74.7176 35.4372 74.836 35.6797C74.8896 35.7896 75.0031 35.8876 75.1162 35.9853C75.2284 36.0823 75.3403 36.1788 75.3927 36.2862L75.8399 37.1998C75.9664 37.4591 76.29 38.1625 76.3423 38.5555C76.3488 38.6045 76.3523 38.6574 76.3558 38.7098C76.3629 38.8161 76.3698 38.9203 76.4016 38.9853C76.4119 39.0064 76.4263 39.0193 76.4423 39.0264C76.2259 39.4662 75.95 40.1689 76.9087 40.0367C77.6408 39.9357 78.1022 39.4914 78.4818 38.9956C79.1431 38.5115 79.8406 37.7735 80.3215 37.1387C81.655 35.3784 82.4962 33.3034 83.2325 31.1296C83.334 30.8299 83.3571 30.5029 83.3802 30.1756C83.4033 29.8474 83.4265 29.5187 83.5288 29.2167C83.6076 28.9841 83.5007 28.5328 83.4127 28.1612C83.375 28.0019 83.3408 27.8573 83.3261 27.7508C82.9745 25.2021 80.765 25.8438 78.9726 26.3643C78.0225 26.6403 77.1895 26.8822 76.8127 26.5968C75.6911 25.7471 75.8703 24.1084 76.2364 22.7317C76.255 22.7414 76.2738 22.751 76.2929 22.7605C76.3163 22.6549 76.377 22.5464 76.4852 22.4382C76.5017 22.4217 76.5138 22.3792 76.5266 22.3338C76.5463 22.2646 76.5679 22.1887 76.61 22.1887C76.6182 22.1887 76.6018 22.2235 76.5755 22.2792C76.516 22.4054 76.4057 22.6389 76.4176 22.8177C76.5151 22.8627 76.6167 22.9052 76.7191 22.9476C76.763 22.904 76.8064 22.8469 76.8495 22.79C76.9361 22.6759 77.0219 22.5629 77.109 22.5629C77.133 22.5629 77.1093 22.6283 77.0762 22.7195C77.0397 22.8201 76.9919 22.952 76.9842 23.062C77.0182 23.0757 77.0522 23.0893 77.0859 23.1028C77.2204 23.1568 77.3514 23.2092 77.4677 23.2647L77.4692 23.2655L77.4712 23.2665C77.4728 23.2674 77.4745 23.2683 77.4761 23.2691L77.4781 23.2699C77.4842 23.2801 77.4908 23.2878 77.4989 23.2959C77.5823 23.3793 77.7209 23.3931 77.8533 23.4062C77.9743 23.4182 78.0901 23.4297 78.1538 23.4934C78.1962 23.5358 78.2917 23.5375 78.3894 23.5394L78.4069 23.5397L78.4293 23.5402C78.4404 23.473 78.4535 23.4087 78.4813 23.3531C78.542 23.2316 78.6061 23.092 78.6061 22.9788C78.6061 22.9739 78.6121 22.9637 78.6182 22.9535L78.6217 22.9476C78.6235 22.9701 78.6302 22.9982 78.6372 23.0277C78.6511 23.0859 78.6663 23.1495 78.6477 23.1867C78.6128 23.2564 78.5891 23.4037 78.5853 23.5558C78.6095 23.5632 78.6326 23.5772 78.6477 23.5922C78.6722 23.6167 78.7158 23.6214 78.7594 23.626C78.803 23.6306 78.8466 23.6352 78.8712 23.6598C78.908 23.6966 78.9636 23.7211 79.0323 23.7377L79.0348 23.7292C79.1168 23.4467 79.2284 23.062 79.313 23.062C79.3515 23.062 79.3195 23.2256 79.2785 23.4344L79.2784 23.4352C79.2585 23.5368 79.2365 23.6491 79.2195 23.7585C79.5111 23.7716 79.9217 23.7086 80.3306 23.6458C80.4146 23.6329 80.4986 23.62 80.5814 23.6078C80.7153 23.6388 80.8557 23.6506 80.9941 23.6622C81.2074 23.6801 81.4162 23.6977 81.5898 23.7845C81.6335 23.8063 81.6922 23.7954 81.751 23.7845C81.8097 23.7736 81.8685 23.7627 81.9121 23.7845C81.9595 23.8082 82.0457 23.8298 82.146 23.8469C82.1471 23.8471 82.1478 23.847 82.1486 23.8469L82.1492 23.8468C82.1498 23.8468 82.1504 23.8468 82.1512 23.8469C82.6278 24.102 83.0612 24.3722 83.4248 24.7358C83.4314 24.7423 83.455 24.7749 83.4881 24.8204L83.4883 24.8207C83.5954 24.9683 83.8013 25.2519 83.8459 25.2296C84.0183 25.1434 83.9698 24.8138 83.9328 24.5627C83.9198 24.4743 83.9082 24.3956 83.9082 24.3407C83.9082 24.3087 83.9092 24.2757 83.9102 24.2425C83.9149 24.0845 83.9198 23.9208 83.8199 23.8209C83.7706 23.7716 83.6963 23.7227 83.6119 23.6806L83.6135 23.6591C83.619 23.5806 83.6239 23.5112 83.6483 23.4622C83.7002 23.3585 83.8865 22.7127 83.8822 22.7085C83.8632 22.6894 83.8324 22.682 83.8017 22.6747C83.7709 22.6673 83.7402 22.66 83.7211 22.6409C83.5697 22.4895 83.3404 22.386 83.1009 22.2779C83.0116 22.2376 82.9208 22.1966 82.8322 22.1523C82.7356 22.104 82.5949 22.0916 82.4544 22.0793C82.2766 22.0637 82.0991 22.0482 82.0109 21.9599C81.9789 21.9279 81.8724 21.9195 81.751 21.9184C81.568 21.843 81.4109 21.7936 81.3299 21.7936C81.1633 21.7936 80.4766 21.5952 80.3787 21.4973C80.3245 21.4432 80.1375 21.4071 79.9947 21.3796C79.9065 21.3626 79.8352 21.3489 79.8224 21.3362C79.7945 21.3082 79.7736 21.2655 79.7523 21.2222L79.7445 21.2062C79.1377 20.9123 78.5527 20.589 78.0602 20.1146C77.987 20.044 77.9356 19.9258 77.8854 19.8105C77.8375 19.7006 77.7909 19.5934 77.7276 19.5324C77.7119 19.5173 77.6918 19.5084 77.6704 19.5064C77.6488 19.5044 77.6246 19.5087 77.598 19.5185C77.6263 19.4713 77.6556 19.4222 77.686 19.3712ZM78.6217 22.9476C78.6194 22.919 78.6245 22.8956 78.6477 22.8956C78.6529 22.8956 78.6426 22.9127 78.6309 22.9322C78.6278 22.9373 78.6247 22.9425 78.6217 22.9476ZM77.598 19.5185L77.5252 19.6403C77.0371 20.4562 76.8838 20.7126 76.6568 21.3829L76.6562 21.3845L76.6561 21.3848C76.5272 21.7655 76.3694 22.2314 76.2364 22.7317C76.0704 22.6456 75.9217 22.5517 75.8146 22.4486C75.7943 22.429 75.7156 22.3674 75.6283 22.2991C75.4891 22.1902 75.3281 22.0642 75.3468 22.0639C75.4126 22.0627 75.4778 22.0665 75.5431 22.0703C75.7326 22.0814 75.9235 22.0925 76.1369 21.9807L76.2513 21.1334C76.4121 20.8659 77.2281 19.6555 77.598 19.5185ZM78.4818 38.9956C78.4381 39.0276 78.3946 39.0584 78.3514 39.0881C78.2661 39.1465 78.1275 39.1646 77.9954 39.1818C77.893 39.1952 77.7945 39.208 77.7276 39.2388C77.806 39.1141 77.9756 38.8296 78.1675 38.5077L78.1681 38.5067L78.1684 38.5062C78.5047 37.942 78.9093 37.2633 79.0115 37.1283C79.0203 37.1168 79.0294 37.1041 79.0387 37.0903C79.1635 37.2321 79.2685 37.3728 79.3336 37.5063C79.4104 37.6636 79.1384 37.7868 78.9228 37.8725L78.9231 37.873C78.9464 37.9064 78.9684 37.9378 78.9993 37.9612C78.9998 37.9617 79.0008 37.9623 79.002 37.9631L79.0048 37.965C79.0342 37.9842 79.1535 38.0625 79.0892 38.1474C78.9944 38.2725 78.9016 38.4061 78.807 38.5425C78.8068 38.5428 78.8066 38.5431 78.8064 38.5434C78.7021 38.6935 78.5956 38.8469 78.4818 38.9956ZM73.3094 34.7584C73.2379 34.7523 73.1483 34.7502 73.0609 34.7485C73.0392 34.7308 73.0215 34.7141 73.0108 34.7041L73.0047 34.6983L73.0029 34.6967C73.002 34.6959 73.0012 34.6952 73.0007 34.6948C72.9597 34.6638 72.9054 34.6476 72.8421 34.6431C73.0466 34.5234 73.2362 34.3403 73.4258 34.1573C73.6406 33.95 73.8553 33.7428 74.0915 33.6275C74.1037 33.6215 74.1159 33.6164 74.1308 33.6162C74.1754 33.6155 74.2312 33.6364 74.287 33.6574C74.3619 33.6855 74.4369 33.7136 74.4856 33.6899C74.5216 33.6723 74.5641 33.6637 74.6124 33.663C74.8334 33.8628 75.0717 34.1085 75.0397 34.1507C75.0078 34.1928 74.746 34.2667 74.4324 34.3552C74.0009 34.477 73.4714 34.6264 73.3094 34.7584Z" fill="#E6B35A"/>
<path d="M78.9228 37.8725C79.1384 37.7868 79.4104 37.6636 79.3336 37.5063C79.2685 37.3728 79.1635 37.2321 79.0387 37.0903C79.0294 37.1041 79.0203 37.1168 79.0115 37.1283C78.9093 37.2633 78.5047 37.942 78.1684 38.5062L78.1681 38.5067L78.1675 38.5077C77.9756 38.8296 77.806 39.1141 77.7276 39.2388C77.7945 39.208 77.893 39.1952 77.9954 39.1818C78.1275 39.1646 78.2661 39.1465 78.3514 39.0881C78.3946 39.0584 78.4381 39.0276 78.4818 38.9956C78.5956 38.8469 78.7021 38.6935 78.8064 38.5434L78.807 38.5425C78.9016 38.4061 78.9944 38.2725 79.0892 38.1474C79.1535 38.0625 79.0342 37.9842 79.0048 37.965L79.002 37.9631C79.0008 37.9623 78.9998 37.9617 78.9993 37.9612C78.9684 37.9378 78.9464 37.9064 78.9231 37.873L78.9228 37.8725Z" fill="#E6B35A"/>
<path fill-rule="evenodd" clip-rule="evenodd" d="M104.476 18.3004C104.608 18.1693 105.642 17.8234 105.651 17.8326C105.736 17.9171 105.678 18.039 105.618 18.1661C105.578 18.2516 105.537 18.3396 105.537 18.4199C105.537 18.7557 105.452 19.1349 105.372 19.4917L105.372 19.4924C105.345 19.6094 105.32 19.724 105.298 19.8339C105.296 19.8419 105.294 19.85 105.293 19.8581C104.976 20.0566 104.717 20.2909 104.539 20.5616C104.538 20.5944 104.535 20.6315 104.534 20.6656L105.064 20.7748C104.998 20.7616 104.926 20.7603 104.853 20.7591C104.736 20.7571 104.618 20.7551 104.528 20.702C104.52 20.9409 104.503 21.2054 104.486 21.4538L104.486 21.4544C104.455 21.9421 104.427 22.3679 104.476 22.4174C104.562 22.5028 104.647 22.4308 104.721 22.3686C104.761 22.3343 104.798 22.303 104.83 22.303C104.932 22.303 105.058 22.2767 105.194 22.2374C105.181 22.5765 105.146 22.913 105.064 23.2439C105.021 23.4165 105.046 23.6121 105.071 23.8078C105.098 24.0213 105.125 24.2349 105.064 24.4187C104.887 24.9493 104.797 25.6012 104.752 26.2692C104.439 26.3556 104.07 26.472 104.305 26.472C104.472 26.472 104.566 26.5192 104.698 26.5852L104.721 26.5967C104.724 26.5983 104.728 26.6004 104.731 26.6019C104.729 26.6504 104.728 26.6981 104.728 26.7458C104.728 26.7843 104.727 26.8228 104.726 26.8618C104.475 26.9009 104.168 27.0396 103.972 27.1373C103.961 27.143 103.928 27.147 103.888 27.152C103.801 27.1626 103.681 27.1773 103.681 27.2205C103.681 27.2211 103.691 27.2194 103.708 27.2165C103.772 27.206 103.936 27.1789 104.097 27.1789C104.178 27.1789 104.285 27.1733 104.404 27.167L104.404 27.167C104.503 27.1617 104.609 27.1561 104.715 27.1529C104.707 27.5846 104.708 28.0062 104.709 28.3888C104.71 28.5207 104.71 28.6481 104.71 28.7696C104.71 28.7998 104.704 28.8707 104.698 28.9505L104.698 28.9508C104.696 28.9716 104.694 28.9931 104.693 29.0145C104.692 29.0282 104.691 29.0419 104.689 29.0555C104.668 29.0547 104.64 29.0523 104.637 29.0503C104.462 28.8746 104.144 28.7179 103.85 28.5727L103.849 28.5724C103.806 28.5513 103.764 28.5304 103.723 28.5097C103.629 28.4627 103.533 28.3952 103.469 28.3496C103.421 28.3154 103.39 28.2935 103.39 28.3017C103.39 28.312 103.547 28.4339 103.756 28.5961L103.757 28.5969C104.064 28.8359 104.483 29.1618 104.679 29.3466C104.682 29.4097 104.692 29.4584 104.71 29.4765C104.754 29.5205 105.326 30.2748 105.064 30.537C104.368 31.2323 104.113 32.6115 103.885 33.8383C103.703 34.8207 103.539 35.7054 103.182 36.0627C103.134 36.1105 103.08 36.1633 103.021 36.2134C103.091 36.2529 103.181 36.3063 103.224 36.3278C103.338 36.3852 103.485 36.4434 103.645 36.5045C103.799 36.5059 104.273 36.5314 104.242 36.5617C104.22 36.584 104.059 36.5883 103.893 36.5926L103.884 36.5929C104.413 36.7792 105.041 36.9574 105.428 37.0347C105.762 37.1016 106.123 37.2161 106.426 37.3674C106.437 37.3733 106.536 37.4058 106.623 37.4298C106.24 37.3915 105.096 37.3258 105.012 37.3258C104.743 37.3258 104.44 37.2947 104.18 37.2427C103.88 37.1828 103.53 37.2036 103.194 37.2236C103.031 37.2332 102.872 37.2427 102.725 37.2427C102.486 37.2427 102.246 37.2379 102.007 37.2323C101.461 37.5287 100.901 37.8549 100.521 38.1939C100.117 38.2484 99.8969 38.5047 99.6888 38.7464C99.6285 38.8165 99.5692 38.8853 99.5069 38.9477C99.4563 38.9983 99.4332 39.0605 99.411 39.1204C99.3904 39.1759 99.3706 39.2295 99.3301 39.27C99.2815 39.3186 99.273 39.3967 99.2649 39.472C99.2573 39.5422 99.2499 39.6101 99.2106 39.6494C99.1023 39.7577 98.9195 40.3281 98.9195 40.476C98.9195 40.5131 98.9113 40.6043 98.9013 40.7152C98.8794 40.9592 98.8488 41.2988 98.8779 41.3701C98.8733 41.3666 98.8692 41.3621 98.866 41.3585C98.8646 41.3569 98.8634 41.3556 98.8623 41.3545C98.826 41.3182 98.7999 41.1525 98.7999 41.0946C98.7999 41.0542 98.7997 41.0139 98.7995 40.9737C98.7979 40.6681 98.7963 40.3673 98.8883 40.0913C98.9067 40.0361 98.9096 39.97 98.9125 39.9037C98.916 39.8235 98.9196 39.7428 98.9507 39.6806C99.0135 39.5549 99.0529 39.428 99.0909 39.306C99.1079 39.2513 99.1246 39.1974 99.143 39.1452C99.116 39.1819 99.0888 39.215 99.065 39.2388C99.0643 39.2395 99.1191 39.135 99.2106 38.9737C99.2108 38.9732 99.2107 38.972 99.2106 38.9709C99.2105 38.9701 99.2104 38.969 99.2106 38.9685C99.2128 38.9597 99.2108 38.9455 99.2087 38.9312C99.206 38.9121 99.2032 38.8927 99.2106 38.8853C99.2443 38.8515 99.2644 38.8066 99.2859 38.7586C99.3104 38.7037 99.3367 38.6448 99.3873 38.5942C99.4016 38.5799 99.4189 38.5628 99.4376 38.5443C99.4802 38.5021 99.5302 38.4526 99.5693 38.4123C99.7509 38.1526 99.9706 37.8602 100.24 37.591C100.358 37.473 100.463 37.3408 100.562 37.2011L100.524 37.201L100.479 37.2011L100.437 37.2011C100.355 37.2011 99.7171 37.2337 99.5589 37.2687C99.5725 37.2549 99.5901 37.2351 99.6114 37.2111C99.7037 37.1072 99.8646 36.9261 100.063 36.8268C100.552 36.5822 101.105 35.8627 101.269 35.3713C101.285 35.3235 101.306 35.2787 101.326 35.2362L101.326 35.2355C101.326 35.2349 101.326 35.2342 101.326 35.2336C101.326 35.2327 101.326 35.2318 101.326 35.231C101.45 34.4812 101.438 33.696 101.3 33.0062C101.112 32.0628 100.427 24.6427 100.832 23.8313C100.958 23.5798 101.181 21.5629 101.181 21.2426C101.181 21.2319 101.182 21.2151 101.183 21.1941C101.184 21.1788 101.186 21.1613 101.187 21.1423C101.198 21.0113 101.215 20.8088 101.181 20.7748C101.132 20.726 100.652 20.6711 100.08 20.6058C99.2293 20.5085 98.1738 20.3878 98.0306 20.2289C98.0298 20.2288 98.029 20.2289 98.0281 20.229L98.027 20.2291C98.0265 20.2291 98.0259 20.2291 98.0254 20.2289C97.9955 20.2207 97.9674 20.2074 97.9474 20.1874C97.8689 20.1089 97.706 19.9913 97.5679 19.9223C97.3213 19.7989 97.0856 19.6478 96.9182 19.4804C96.8855 19.4478 96.843 19.4113 96.7969 19.3718C96.6136 19.2147 96.374 19.0093 96.4763 18.8046C96.5384 18.6804 96.7397 18.7665 96.8038 18.8306C96.8664 18.8932 96.9347 18.948 97.0016 19.0016C97.0656 19.0529 97.1283 19.1031 97.1833 19.1581C97.2281 19.203 97.2364 19.2759 97.2452 19.3531C97.2551 19.4396 97.2655 19.5314 97.3288 19.5948C97.3714 19.6374 97.4316 19.6494 97.4892 19.6609C97.5419 19.6715 97.5924 19.6816 97.6251 19.7143C97.7712 19.8604 97.9896 19.9448 98.2039 20.0276C98.3096 20.0684 98.4143 20.1089 98.5088 20.1562C98.548 20.1757 98.5891 20.1788 98.6318 20.182C98.6777 20.1855 98.7253 20.189 98.7739 20.2134C98.8662 20.2595 99.0068 20.2334 99.1352 20.2096C99.2587 20.1867 99.3711 20.1659 99.4185 20.2134C99.4194 20.2132 99.4203 20.2131 99.4212 20.2131C99.4219 20.2131 99.4226 20.2131 99.4233 20.2132C99.4251 20.2132 99.427 20.2134 99.4288 20.2135C99.4306 20.2136 99.4323 20.2136 99.4341 20.2134C101.104 19.9316 103.755 19.0221 104.476 18.3004ZM106.758 37.4506C106.758 37.4461 106.7 37.4375 106.623 37.4298C106.695 37.4497 106.758 37.464 106.758 37.4506ZM109.794 21.5753C109.643 21.6994 109.341 22.1095 109.389 22.1575C109.397 22.166 109.466 22.1487 109.539 22.1302C109.607 22.1132 109.678 22.0951 109.711 22.0951C109.738 22.0951 109.763 22.0986 109.789 22.1003C109.847 22.0858 109.902 22.0778 109.919 22.0951C109.92 22.0959 109.92 22.0969 109.921 22.0979L109.921 22.0989C109.922 22.1009 109.923 22.1033 109.924 22.1055C109.932 22.1046 109.939 22.1036 109.947 22.1025C109.973 22.0989 110.001 22.0951 110.033 22.0951C110.157 22.0951 110.252 22.1094 110.324 22.1783C110.326 22.1796 110.327 22.1809 110.328 22.1822L110.33 22.1835C110.348 22.1846 110.367 22.1835 110.387 22.1835C110.427 22.1835 110.484 22.2019 110.543 22.2251C110.609 22.2279 110.672 22.235 110.709 22.2718C110.721 22.2841 110.737 22.2923 110.753 22.3004C110.769 22.3086 110.785 22.3168 110.797 22.329C110.805 22.3364 110.787 22.3614 110.777 22.3654C110.792 22.3774 110.851 22.4798 110.829 22.4798C110.795 22.4798 110.719 22.4274 110.709 22.4174C110.596 22.3044 110.039 22.505 110.007 22.5369C109.99 22.5544 109.975 22.5719 109.96 22.5889C109.971 22.6089 109.978 22.6349 109.985 22.6617C109.996 22.7021 110.007 22.7444 110.033 22.7709L110.036 22.7739L110.043 22.7809C110.046 22.7834 110.048 22.7856 110.049 22.7865C109.907 22.8334 109.791 22.9118 109.742 23.01C109.703 23.0892 109.68 23.5039 109.742 23.5662C109.745 23.569 110.21 23.6729 110.278 23.6805C110.269 23.7194 110.259 23.7568 110.241 23.7741C110.225 23.7899 110.118 24.0047 110.153 24.0392C110.197 24.0832 110.232 24.1314 110.27 24.1823C110.312 24.2393 110.356 24.2997 110.418 24.3615C110.582 24.5259 111.037 24.5116 111.322 24.5019C111.322 24.5021 111.323 24.5025 111.323 24.5029L111.325 24.5044C111.326 24.5055 111.328 24.5066 111.328 24.5071C111.328 24.6235 110.736 24.5775 110.594 24.5664C110.577 24.5651 110.566 24.5642 110.563 24.5642C110.559 24.5642 110.551 24.5632 110.54 24.5614C110.526 24.5591 110.506 24.5556 110.485 24.5516C110.383 24.533 110.224 24.504 110.241 24.5382C110.337 24.7291 110.491 24.8484 110.688 24.9593L110.704 24.9589C110.861 24.9548 111.007 24.951 111.062 25.0061C111.19 25.1337 111.389 25.1307 111.635 25.127C111.679 25.1263 111.723 25.1256 111.769 25.1256C113.025 25.1256 113.504 24.3596 114.005 23.3582C114.227 22.9135 113.91 22.2277 113.771 21.9495C113.731 21.8699 113.692 21.7921 113.655 21.716L113.654 21.7146C113.339 21.0774 113.083 20.5601 112.591 20.0678C111.873 19.3497 110.298 18.9924 108.708 19.023C107.432 19.0475 106.149 19.3221 105.293 19.8581C105.191 20.3854 105.195 20.9227 105.2 21.4588C105.202 21.719 105.204 21.979 105.194 22.2374C105.364 22.188 105.549 22.1182 105.716 22.0549C105.822 22.015 105.921 21.9776 106.005 21.9496C106.544 21.7699 108.713 21.8184 109.15 22.1627C109.242 21.9857 109.366 21.7996 109.534 21.7156C109.553 21.7061 109.579 21.69 109.608 21.6719C109.666 21.6352 109.737 21.5902 109.794 21.5753ZM109.794 21.5753C109.798 21.5741 109.803 21.5725 109.808 21.5708C109.816 21.5679 109.824 21.5649 109.831 21.5649C109.85 21.5649 109.876 21.5389 109.857 21.5389C109.842 21.5389 109.821 21.5529 109.794 21.5753ZM99.5485 37.2739C99.5367 37.2774 99.5225 37.2808 99.5225 37.2843C99.5225 37.2957 99.5334 37.288 99.5485 37.2739ZM98.8849 41.3795C98.8844 41.3779 98.8839 41.3764 98.8831 41.3753C98.8909 41.3814 98.8952 41.3857 98.8883 41.3857C98.8861 41.3857 98.8857 41.3825 98.8849 41.3795Z" fill="#E6B35A"/>
<path d="M104.539 20.5616C104.538 20.5944 104.535 20.6315 104.534 20.6656L105.064 20.7748C104.998 20.7616 104.926 20.7603 104.853 20.7591C104.736 20.7571 104.618 20.7551 104.528 20.702C104.52 20.9409 104.503 21.2054 104.486 21.4538L104.486 21.4544C104.455 21.9421 104.427 22.3679 104.476 22.4174C104.562 22.5028 104.647 22.4308 104.721 22.3686C104.761 22.3343 104.798 22.303 104.83 22.303C104.932 22.303 105.058 22.2767 105.194 22.2374C105.204 21.979 105.202 21.719 105.2 21.4588C105.195 20.9227 105.191 20.3854 105.293 19.8581C104.976 20.0566 104.717 20.2909 104.539 20.5616Z" fill="#E6B35A"/>
</svg>
