<svg width="160" height="72" viewBox="0 0 160 72" fill="none" xmlns="http://www.w3.org/2000/svg">
<path d="M4.93411 64.7447L32.6793 36.3045C32.765 36.2199 32.8181 36.1078 32.8294 35.988C32.8408 35.8681 32.8096 35.7481 32.7414 35.6489C31.0542 33.2934 27.9407 32.885 26.7871 31.3022C23.3695 26.6138 22.5023 23.96 21.0337 24.1244C20.9312 24.1391 20.837 24.1889 20.767 24.2652L10.7445 34.5396C4.97836 40.4456 4.14962 53.4633 4.00001 64.3647C3.99952 64.4732 4.03146 64.5793 4.09181 64.6694C4.15215 64.7596 4.23813 64.8296 4.33861 64.8705C4.43909 64.9113 4.54945 64.9212 4.65558 64.8988C4.76171 64.8763 4.85874 64.8227 4.93411 64.7447Z" fill="#017CEE"/>
<path d="M61.7163 64.0426L33.2762 36.2953C33.1915 36.2095 33.0793 36.1562 32.9592 36.1449C32.8391 36.1335 32.7189 36.1648 32.6196 36.2333C30.2641 37.9215 29.8556 41.0339 28.2728 42.1876C23.5845 45.6051 20.9307 46.4723 21.0951 47.9409C21.1101 48.0431 21.1597 48.1369 21.2358 48.2067L31.5102 58.2291C37.4162 63.9953 50.4339 64.8241 61.3354 64.9737C61.4433 64.9738 61.5488 64.9418 61.6384 64.8816C61.728 64.8215 61.7977 64.736 61.8386 64.6361C61.8794 64.5362 61.8897 64.4264 61.8679 64.3207C61.8461 64.215 61.7933 64.1182 61.7163 64.0426Z" fill="#00AD46"/>
<path d="M31.5119 58.232C28.2833 55.0822 26.7871 48.8514 32.9746 36.0029C22.9157 40.4984 19.3908 46.4073 21.1242 48.0993L31.5119 58.232Z" fill="#04D659"/>
<path d="M61.0141 7.26063L33.2699 35.7008C33.1841 35.7853 33.1308 35.8974 33.1195 36.0173C33.1081 36.1372 33.1395 36.2573 33.2079 36.3564C34.896 38.7119 38.0074 39.1203 39.162 40.7031C42.5796 45.3915 43.4478 48.0452 44.9154 47.8808C45.018 47.8662 45.1122 47.8165 45.1822 47.7401L55.2046 37.4657C60.9708 31.5597 61.7996 18.542 61.9492 7.64056C61.9494 7.53211 61.9172 7.42606 61.8567 7.33603C61.7962 7.24599 61.7103 7.17607 61.6098 7.13524C61.5093 7.09442 61.399 7.08455 61.2928 7.10689C61.1867 7.12922 61.0896 7.18276 61.0141 7.26063Z" fill="#00C7D4"/>
<path d="M55.2105 37.4657C52.0607 40.6943 45.8299 42.1904 32.9805 36.0029C37.4759 46.0618 43.3847 49.5866 45.0768 47.8532L55.2105 37.4657Z" fill="#11E1EE"/>
<path d="M4.22939 7.96248L32.6695 35.7067C32.7541 35.7923 32.8663 35.8455 32.9861 35.8568C33.106 35.8682 33.2259 35.837 33.3251 35.7688C35.6806 34.0806 36.0891 30.9682 37.6719 29.8146C42.3602 26.397 45.014 25.5297 44.8496 24.0611C44.8346 23.9587 44.785 23.8645 44.7089 23.7944L34.4345 13.772C28.5285 8.00577 15.5107 7.17697 4.60933 7.02735C4.50065 7.02666 4.39424 7.05858 4.30389 7.11897C4.21353 7.17937 4.14341 7.26545 4.1025 7.36614C4.06159 7.46682 4.05176 7.57747 4.07439 7.68377C4.09701 7.79007 4.15103 7.88717 4.22939 7.96248Z" fill="#E43921"/>
<path fill-rule="evenodd" clip-rule="evenodd" d="M34.4413 13.7729C37.6699 16.9228 39.166 23.1536 32.9785 36.003C43.0374 31.5076 46.5623 25.5977 44.8289 23.9066L34.4413 13.7729Z" fill="#FF7557"/>
<path d="M10.7441 34.5401C13.894 31.3115 20.1248 29.8153 32.9742 36.0028C28.4787 25.944 22.5699 22.4191 20.8778 24.1525L10.7441 34.5401Z" fill="#0CB6FF"/>
<path d="M32.9785 37.2383C33.6635 37.2383 34.2188 36.683 34.2188 35.9981C34.2188 35.3131 33.6635 34.7578 32.9785 34.7578C32.2936 34.7578 31.7383 35.3131 31.7383 35.9981C31.7383 36.683 32.2936 37.2383 32.9785 37.2383Z" fill="#4A4848"/>
<path d="M69.679 25.9306C69.6212 25.9291 69.5663 25.9055 69.5254 25.8647C69.4846 25.8239 69.461 25.7689 69.4595 25.7111C69.4576 25.6705 69.4612 25.6297 69.4703 25.59L72.193 18.4891C72.2154 18.4149 72.2624 18.3506 72.3263 18.3068C72.3902 18.2629 72.4671 18.2422 72.5444 18.2479H73.2906C73.3678 18.2425 73.4445 18.2634 73.5083 18.3072C73.5721 18.351 73.6192 18.4151 73.6419 18.4891L76.3528 25.59L76.3744 25.7111C76.3731 25.769 76.3497 25.824 76.3088 25.8649C76.2679 25.9058 76.2127 25.9293 76.1549 25.9306H75.5958C75.5289 25.9349 75.4627 25.9154 75.4088 25.8755C75.3698 25.8389 75.3398 25.7937 75.3212 25.7436L74.7178 24.1854H71.1181L70.5147 25.7436C70.4943 25.7956 70.4603 25.8411 70.4163 25.8755C70.3663 25.9142 70.3042 25.9337 70.2411 25.9306H69.679ZM74.3989 23.2414L72.9175 19.3455L71.436 23.2414H74.3989ZM77.6688 28.0154C77.6342 28.016 77.5998 28.0094 77.5678 27.9962C77.5358 27.983 77.5069 27.9635 77.4827 27.9387C77.4604 27.9155 77.4431 27.8879 77.4318 27.8578C77.4204 27.8277 77.4153 27.7956 77.4167 27.7634V20.4794C77.4153 20.4473 77.4204 20.4152 77.4318 20.3851C77.4431 20.3549 77.4604 20.3274 77.4827 20.3042C77.5069 20.2794 77.5358 20.2598 77.5678 20.2466C77.5998 20.2334 77.6342 20.2269 77.6688 20.2274H78.1737C78.2396 20.2303 78.302 20.2578 78.3487 20.3044C78.3953 20.3511 78.4228 20.4135 78.4257 20.4794V20.9617C78.6316 20.6823 78.904 20.4587 79.2183 20.3112C79.5325 20.1637 79.8785 20.097 80.2251 20.1172C80.5491 20.0934 80.8743 20.1466 81.1738 20.2725C81.4734 20.3984 81.7388 20.5935 81.9486 20.8416C82.3562 21.3798 82.5763 22.0368 82.5747 22.7119C82.582 22.792 82.5855 22.9163 82.5855 23.0849C82.5855 23.2536 82.582 23.378 82.5747 23.458C82.5739 24.1327 82.3541 24.7889 81.9486 25.3282C81.7379 25.5752 81.4723 25.7694 81.173 25.8952C80.8737 26.021 80.549 26.075 80.2251 26.0527C79.8844 26.0686 79.545 26.0021 79.2356 25.8588C78.9261 25.7156 78.6556 25.4998 78.4473 25.2298V27.7762C78.4488 27.8084 78.4438 27.8405 78.4324 27.8706C78.4211 27.9007 78.4038 27.9283 78.3815 27.9515C78.3599 27.9768 78.3327 27.9969 78.3022 28.0102C78.2717 28.0235 78.2385 28.0297 78.2052 28.0282L77.6688 28.0154ZM79.9957 25.151C80.2094 25.1698 80.4245 25.1355 80.6218 25.0512C80.8191 24.9669 80.9926 24.8352 81.1267 24.6678C81.3846 24.2935 81.522 23.8494 81.5205 23.395C81.5277 23.3221 81.5313 23.2162 81.5313 23.0771C81.5313 21.6944 81.0188 21.0031 79.9938 21.0031C79.7769 20.9887 79.5598 21.0272 79.3611 21.1151C79.1624 21.2031 78.9881 21.3379 78.853 21.508C78.5999 21.8509 78.4582 22.2632 78.4473 22.6892L78.4356 23.1066L78.4473 23.5348C78.4549 23.9481 78.6021 24.3466 78.8648 24.6658C79.0027 24.8286 79.1766 24.9572 79.3727 25.0414C79.5688 25.1257 79.7817 25.1632 79.9947 25.151H79.9957ZM85.5355 26.0369C85.1902 26.04 84.8487 25.9649 84.5364 25.8174C84.2458 25.6851 83.993 25.4821 83.8012 25.2268C83.628 24.979 83.5358 24.6836 83.5373 24.3813C83.5341 24.1515 83.5861 23.9243 83.6888 23.7188C83.7916 23.5132 83.9422 23.3354 84.128 23.2001C84.6059 22.856 85.1661 22.6441 85.7521 22.5858L87.387 22.3556V22.0376C87.387 21.2915 86.9606 20.9184 86.1075 20.9184C85.83 20.907 85.5554 20.9798 85.32 21.1271C85.1298 21.2442 84.9715 21.4065 84.8593 21.5996C84.8442 21.6545 84.8138 21.704 84.7717 21.7423C84.7538 21.7582 84.733 21.7703 84.7103 21.7779C84.6876 21.7855 84.6636 21.7885 84.6398 21.7866H84.1673C84.1351 21.7888 84.1027 21.784 84.0725 21.7727C84.0422 21.7613 84.0148 21.7436 83.992 21.7208C83.9691 21.6979 83.9514 21.6705 83.9401 21.6403C83.9287 21.61 83.924 21.5777 83.9261 21.5455C83.9493 21.3298 84.0329 21.1251 84.1673 20.9548C84.36 20.7026 84.6128 20.5026 84.9027 20.3731C85.2832 20.1938 85.7008 20.1075 86.1212 20.1211C86.4407 20.0899 86.7632 20.1255 87.0683 20.2256C87.3733 20.3258 87.6542 20.4883 87.893 20.7029C88.254 21.0888 88.4476 21.6019 88.4314 22.1302V25.6865C88.4322 25.7213 88.4258 25.7559 88.4126 25.788C88.3994 25.8202 88.3796 25.8493 88.3547 25.8735C88.3315 25.8959 88.304 25.9133 88.2739 25.9246C88.2438 25.9359 88.2116 25.941 88.1795 25.9395H87.6744C87.6404 25.9432 87.6059 25.9392 87.5736 25.9279C87.5413 25.9166 87.512 25.8981 87.4877 25.8739C87.4635 25.8498 87.445 25.8205 87.4335 25.7882C87.4221 25.7559 87.4179 25.7215 87.4215 25.6875V25.216C87.2393 25.4675 86.9979 25.6704 86.7187 25.8066C86.3488 25.9792 85.9424 26.0593 85.5346 26.0399L85.5355 26.0369ZM85.7659 25.214C85.9812 25.222 86.1958 25.185 86.3961 25.1055C86.5964 25.026 86.778 24.9058 86.9293 24.7524C87.0915 24.5691 87.2157 24.3554 87.2947 24.1237C87.3738 23.8921 87.4063 23.6471 87.39 23.4029V23.0957L86.1173 23.2828C85.7035 23.3207 85.3028 23.448 84.9429 23.6558C84.8256 23.719 84.7273 23.8124 84.6581 23.9262C84.5889 24.0401 84.5514 24.1703 84.5493 24.3035C84.5448 24.4387 84.5758 24.5727 84.6394 24.6921C84.703 24.8115 84.7967 24.912 84.9114 24.9837C85.1674 25.1422 85.4639 25.2232 85.7649 25.217L85.7659 25.214ZM92.3047 26.0369C91.969 26.0559 91.6329 26.0074 91.3163 25.8943C90.9996 25.7812 90.7088 25.6058 90.4611 25.3784C89.9959 24.8681 89.7443 24.1986 89.7583 23.5082L89.7475 23.0692L89.7583 22.6302C89.7443 21.9442 89.9961 21.2793 90.4611 20.7747C90.7072 20.5442 90.9973 20.366 91.3142 20.251C91.6311 20.1359 91.9681 20.0864 92.3047 20.1054C92.7674 20.0912 93.2268 20.1891 93.6435 20.3908C93.972 20.5485 94.2523 20.7912 94.4555 21.0936C94.6271 21.3403 94.7292 21.6286 94.7509 21.9283C94.7553 21.9607 94.7516 21.9937 94.74 22.0243C94.7285 22.0549 94.7096 22.0821 94.6849 22.1035C94.6328 22.1479 94.5662 22.1714 94.4978 22.1695H93.9713C93.9127 22.1738 93.8544 22.1582 93.8058 22.1252C93.7563 22.0761 93.719 22.016 93.6966 21.95C93.609 21.6496 93.4236 21.387 93.17 21.2039C92.9144 21.0421 92.6158 20.9617 92.3136 20.9735C92.1132 20.9648 91.9132 20.9985 91.7266 21.0722C91.5401 21.146 91.3711 21.2582 91.2309 21.4017C90.9381 21.7624 90.7859 22.2171 90.8026 22.6814L90.7918 23.0751L90.8026 23.4482C90.7836 23.9176 90.9358 24.3779 91.2309 24.7435C91.3719 24.8852 91.5413 24.9957 91.7278 25.0676C91.9144 25.1395 92.1139 25.1713 92.3136 25.1609C92.6143 25.1723 92.9118 25.096 93.17 24.9413C93.4222 24.7521 93.6068 24.4867 93.6966 24.1844C93.719 24.1184 93.7563 24.0584 93.8058 24.0092C93.8283 23.9895 93.8546 23.9744 93.883 23.965C93.9114 23.9555 93.9414 23.9518 93.9713 23.9541H94.4978C94.5326 23.9534 94.5672 23.9599 94.5993 23.9731C94.6315 23.9863 94.6606 24.0059 94.6849 24.0309C94.7096 24.0523 94.7285 24.0795 94.74 24.1101C94.7516 24.1407 94.7553 24.1737 94.7509 24.206C94.7267 24.5049 94.6248 24.7923 94.4555 25.0398C94.2523 25.3422 93.9719 25.5849 93.6435 25.7426C93.2281 25.9501 92.7679 26.0522 92.3037 26.0399L92.3047 26.0369ZM96.3188 25.9267C96.2847 25.9304 96.2504 25.9264 96.2181 25.9151C96.1858 25.9038 96.1563 25.8853 96.1321 25.8612C96.1078 25.837 96.0893 25.8077 96.0779 25.7754C96.0664 25.7432 96.0623 25.7087 96.0659 25.6747V18.3907C96.0644 18.3585 96.0695 18.3264 96.0809 18.2963C96.0922 18.2662 96.1095 18.2386 96.1318 18.2154C96.1561 18.1906 96.1852 18.171 96.2174 18.1578C96.2495 18.1446 96.284 18.1381 96.3188 18.1387H96.8671C96.9332 18.1411 96.9961 18.1684 97.043 18.2151C97.0899 18.2618 97.1174 18.3245 97.1201 18.3907V20.9499C97.3186 20.6908 97.5737 20.4807 97.8662 20.3357C98.1987 20.1791 98.5638 20.1038 98.9312 20.1162C99.2374 20.099 99.5435 20.1513 99.8267 20.2691C100.11 20.3869 100.363 20.5671 100.566 20.7963C100.98 21.298 101.191 21.9365 101.157 22.5858V25.6806C101.158 25.7154 101.151 25.7499 101.138 25.7821C101.125 25.8143 101.105 25.8434 101.08 25.8676C101.057 25.89 101.029 25.9074 100.999 25.9187C100.969 25.93 100.937 25.9351 100.905 25.9335H100.357C100.323 25.9371 100.288 25.9331 100.256 25.9217C100.224 25.9102 100.195 25.8918 100.171 25.8676C100.146 25.8435 100.128 25.8143 100.116 25.7821C100.105 25.7499 100.101 25.7155 100.105 25.6816V22.6361C100.132 22.1996 99.9953 21.7687 99.7207 21.4283C99.5829 21.2815 99.4144 21.167 99.2272 21.093C99.04 21.019 98.8388 20.9873 98.6379 21.0001C98.4327 20.9911 98.2278 21.0255 98.0368 21.1011C97.8458 21.1768 97.673 21.292 97.5296 21.4391C97.2434 21.7695 97.0978 22.1988 97.124 22.6351V25.6747C97.1247 25.7094 97.1183 25.744 97.1051 25.7762C97.0919 25.8084 97.0723 25.8375 97.0473 25.8617C97.0241 25.884 96.9966 25.9014 96.9664 25.9128C96.9363 25.9241 96.9042 25.9292 96.872 25.9277L96.3188 25.9267ZM105.026 26.0369C104.693 26.0526 104.36 25.9995 104.049 25.881C103.737 25.7624 103.453 25.581 103.215 25.3479C102.745 24.8223 102.484 24.1432 102.48 23.4383L102.469 23.0652L102.48 22.703C102.493 22.0045 102.758 21.3343 103.226 20.8151C103.73 20.3515 104.395 20.1007 105.08 20.115C105.765 20.1293 106.418 20.4076 106.902 20.8919C107.375 21.481 107.613 22.2236 107.572 22.9776V23.1646C107.572 23.1993 107.566 23.2336 107.553 23.2656C107.539 23.2976 107.52 23.3266 107.495 23.3507C107.472 23.373 107.444 23.3904 107.414 23.4017C107.384 23.4131 107.352 23.4181 107.32 23.4167H103.522V23.5151C103.532 23.9565 103.682 24.3833 103.95 24.7337C104.077 24.8926 104.24 25.0199 104.424 25.1053C104.609 25.1907 104.811 25.232 105.014 25.2258C105.302 25.2384 105.587 25.1702 105.837 25.029C106.025 24.919 106.189 24.7735 106.321 24.6008C106.359 24.5415 106.407 24.4895 106.463 24.4473C106.522 24.421 106.586 24.4098 106.65 24.4148H107.189C107.248 24.4128 107.307 24.4323 107.353 24.4699C107.375 24.4887 107.393 24.5123 107.404 24.5389C107.415 24.5656 107.421 24.5945 107.419 24.6234C107.389 24.8475 107.28 25.0535 107.112 25.2052C106.875 25.4593 106.587 25.6606 106.266 25.7958C105.875 25.9643 105.452 26.0475 105.026 26.0399V26.0369ZM106.529 22.6567V22.6242C106.549 22.1766 106.4 21.7379 106.112 21.3949C105.973 21.2426 105.803 21.121 105.614 21.0379C105.425 20.9547 105.221 20.9118 105.014 20.9118C104.808 20.9118 104.604 20.9547 104.415 21.0379C104.226 21.121 104.056 21.2426 103.917 21.3949C103.642 21.7442 103.503 22.1805 103.523 22.6242V22.6567H106.529Z" fill="#51504F"/>
<path d="M69.5212 25.8645L69.4612 25.9246L69.5212 25.8645ZM69.4661 25.5899L69.3873 25.5594L69.4661 25.5899ZM72.1888 18.489L72.2675 18.5195L72.1888 18.489ZM73.6376 18.489L73.558 18.5175L73.6376 18.489ZM76.3485 25.5899L76.4312 25.5751C76.4317 25.5702 76.4317 25.5652 76.4312 25.5603L76.3485 25.5899ZM76.3701 25.711H76.4548V25.6962L76.3701 25.711ZM76.3042 25.8645L76.3633 25.9246L76.3042 25.8645ZM75.4045 25.8753L75.3445 25.9354L75.3504 25.9403L75.4045 25.8753ZM75.3169 25.7435L75.3966 25.7169L75.3169 25.7435ZM74.7135 24.1853L74.7923 24.1547C74.7862 24.1388 74.7754 24.1252 74.7613 24.1155C74.7473 24.1059 74.7306 24.1007 74.7135 24.1006V24.1853ZM71.1139 24.1853V24.1006C71.0968 24.1007 71.0802 24.1059 71.0661 24.1155C71.0521 24.1252 71.0413 24.1388 71.0351 24.1547L71.1139 24.1853ZM70.5104 25.7435L70.4317 25.7129L70.5104 25.7435ZM70.412 25.8753L70.4662 25.9403L70.412 25.8753ZM74.3956 23.2413V23.326C74.4092 23.3259 74.4226 23.3225 74.4346 23.3161C74.4467 23.3097 74.4569 23.3006 74.4647 23.2894C74.4724 23.2782 74.4773 23.2653 74.479 23.2518C74.4807 23.2383 74.4792 23.2245 74.4744 23.2118L74.3956 23.2413ZM72.9142 19.3453L72.993 19.3158C72.9868 19.3 72.9759 19.2865 72.9619 19.2769C72.9478 19.2674 72.9312 19.2622 72.9142 19.2622C72.8972 19.2622 72.8806 19.2674 72.8666 19.2769C72.8525 19.2865 72.8417 19.3 72.8355 19.3158L72.9142 19.3453ZM71.4327 23.2413L71.354 23.2118C71.3493 23.2245 71.3477 23.2383 71.3494 23.2518C71.351 23.2653 71.3559 23.2782 71.3637 23.2894C71.3714 23.3006 71.3817 23.3097 71.3937 23.3161C71.4057 23.3225 71.4191 23.3259 71.4327 23.326V23.2413ZM69.6768 25.8458C69.6583 25.8466 69.6399 25.8432 69.6229 25.8361C69.6059 25.829 69.5907 25.8182 69.5784 25.8045L69.4582 25.9236C69.4859 25.9523 69.5191 25.9752 69.5558 25.9907C69.5925 26.0063 69.632 26.0142 69.6718 26.0141L69.6768 25.8458ZM69.5784 25.8045C69.5647 25.7921 69.5539 25.7768 69.5468 25.7598C69.5396 25.7428 69.5362 25.7245 69.5369 25.706H69.3687C69.3686 25.7459 69.3766 25.7854 69.3921 25.8221C69.4077 25.8588 69.4304 25.892 69.4592 25.9197L69.5784 25.8045ZM69.5369 25.706C69.5348 25.6731 69.5372 25.64 69.5439 25.6076L69.3835 25.5545C69.371 25.6026 69.3656 25.6524 69.3676 25.7021L69.5369 25.706ZM69.5418 25.6155L72.2635 18.5146L72.1061 18.4545L69.3844 25.5555L69.5418 25.6155ZM72.2646 18.5126C72.2818 18.4565 72.3162 18.4072 72.363 18.3718C72.4141 18.3396 72.4738 18.3237 72.5342 18.3265V18.1572C72.4398 18.1543 72.3467 18.1805 72.2675 18.2321C72.1909 18.2871 72.1336 18.3649 72.1041 18.4545L72.2646 18.5126ZM72.5362 18.3265H73.2823V18.1572H72.5362V18.3265ZM73.2823 18.3265C73.343 18.3235 73.4032 18.3394 73.4546 18.3718C73.5015 18.4072 73.5359 18.4565 73.553 18.5126L73.7115 18.4545C73.6821 18.3649 73.6248 18.287 73.5481 18.2321C73.4686 18.1803 73.3752 18.1541 73.2804 18.1572L73.2823 18.3265ZM73.555 18.5135L76.2658 25.6145L76.4234 25.5545L73.7125 18.4535L73.555 18.5135ZM76.2619 25.6007L76.2835 25.7218L76.4499 25.6913L76.4283 25.5702L76.2619 25.6007ZM76.2825 25.706C76.2831 25.7245 76.2798 25.7428 76.2727 25.7598C76.2655 25.7768 76.2548 25.792 76.2412 25.8045L76.3603 25.9236C76.389 25.8959 76.4119 25.8628 76.4274 25.8261C76.443 25.7894 76.451 25.7499 76.4509 25.71L76.2825 25.706ZM76.2412 25.8045C76.2287 25.8181 76.2135 25.8288 76.1965 25.8359C76.1795 25.8431 76.1612 25.8464 76.1428 25.8458V26.0141C76.1827 26.0142 76.2221 26.0063 76.2589 25.9907C76.2956 25.9752 76.3288 25.9523 76.3564 25.9236L76.2412 25.8045ZM76.1428 25.8458H75.5837V26.0141H76.1428V25.8458ZM75.5837 25.8458C75.5366 25.8499 75.4896 25.8373 75.4508 25.8104L75.3425 25.9403C75.4116 25.993 75.497 26.0195 75.5837 26.0151V25.8458ZM75.4567 25.8153C75.4267 25.7883 75.4034 25.7546 75.3888 25.7169L75.2294 25.77C75.2521 25.8325 75.2891 25.8888 75.3376 25.9344L75.4567 25.8153ZM75.3878 25.7169L74.7844 24.1577L74.6269 24.2187L75.2303 25.7769L75.3878 25.7169ZM74.7057 24.1046H71.106V24.2729H74.7057V24.1046ZM71.0272 24.1587L70.4228 25.7179L70.5804 25.7789L71.1838 24.2207L71.0272 24.1587ZM70.4219 25.7208C70.4066 25.7597 70.3811 25.7937 70.3481 25.8192L70.4573 25.9472C70.5132 25.903 70.5561 25.8445 70.5813 25.7779L70.4219 25.7208ZM70.3491 25.8192C70.3139 25.8453 70.2706 25.8579 70.227 25.8547V26.023C70.3099 26.0262 70.3912 25.9997 70.4564 25.9482L70.3491 25.8192ZM70.227 25.8547H69.6669V26.023H70.227V25.8547ZM74.4655 23.2196L72.9841 19.3236L72.8266 19.3837L74.308 23.2797L74.4655 23.2196ZM72.8256 19.3236L71.3442 23.2196L71.5017 23.2797L72.9831 19.3837L72.8256 19.3236ZM71.4229 23.3348H74.3857V23.1665H71.4229V23.3348ZM77.4697 27.9483L77.4106 28.0084L77.4697 27.9483ZM77.4697 20.309L77.5298 20.369L77.4697 20.309ZM78.3369 20.309L78.2728 20.3641L78.2827 20.373L78.3369 20.309ZM78.4136 20.9675H78.3289C78.329 20.9853 78.3347 21.0026 78.3451 21.017C78.3556 21.0313 78.3703 21.0421 78.3872 21.0476C78.4041 21.0532 78.4223 21.0533 78.4392 21.0479C78.4562 21.0425 78.4709 21.0319 78.4815 21.0177L78.4136 20.9675ZM81.9365 20.8464L81.8706 20.8986L81.9365 20.8464ZM82.5625 22.7166H82.478H82.5625ZM82.5625 23.4628L82.4789 23.4559L82.5625 23.4628ZM81.9365 25.333L82.0025 25.3861L81.9365 25.333ZM78.4353 25.2345L78.5022 25.1834C78.4914 25.1694 78.4766 25.1592 78.4598 25.1542C78.4429 25.1491 78.4249 25.1494 78.4082 25.155C78.3916 25.1606 78.377 25.1713 78.3667 25.1856C78.3563 25.1998 78.3508 25.2169 78.3507 25.2345H78.4353ZM78.3693 27.9562L78.3093 27.8972L78.3693 27.9562ZM81.1126 24.6853L81.0447 24.6351L81.1126 24.6853ZM81.5064 23.4126L81.4227 23.4047V23.4096L81.5064 23.4126ZM78.8398 21.5246L78.7729 21.4734L78.8398 21.5246ZM78.4333 22.7058H78.3486H78.4333ZM78.4225 23.1222H78.3388H78.4225ZM78.4333 23.5504H78.3486H78.4333ZM78.8506 24.6814L78.9157 24.6282L78.8506 24.6814ZM77.6538 27.9444C77.6301 27.945 77.6067 27.9407 77.5848 27.9317C77.5629 27.9227 77.5431 27.9093 77.5268 27.8922L77.4077 28.0114C77.4399 28.0436 77.4783 28.0689 77.5206 28.0858C77.5629 28.1027 77.6082 28.1109 77.6538 28.1098V27.9444ZM77.5268 27.8922C77.5123 27.8767 77.5011 27.8584 77.494 27.8385C77.4868 27.8185 77.484 27.7973 77.4854 27.7761H77.3161C77.3145 27.8194 77.3217 27.8625 77.3373 27.903C77.3528 27.9434 77.3765 27.9803 77.4067 28.0114L77.5268 27.8922ZM77.4854 27.7761V20.4921H77.3161V27.7761H77.4854ZM77.4854 20.4921C77.484 20.4709 77.4868 20.4497 77.494 20.4297C77.5011 20.4097 77.5123 20.3914 77.5268 20.3759L77.4077 20.2568C77.3774 20.2878 77.3537 20.3247 77.3381 20.3651C77.3225 20.4056 77.3154 20.4487 77.3171 20.4921H77.4854ZM77.5268 20.3759C77.5431 20.3589 77.5629 20.3454 77.5848 20.3365C77.6067 20.3275 77.6301 20.3232 77.6538 20.3238V20.1545C77.6082 20.1534 77.5629 20.1615 77.5206 20.1784C77.4783 20.1954 77.4399 20.2207 77.4077 20.2529L77.5268 20.3759ZM77.6538 20.3238H78.1587V20.1545H77.6538V20.3238ZM78.1587 20.3238C78.1796 20.3225 78.2006 20.326 78.2199 20.3342C78.2393 20.3424 78.2563 20.355 78.2699 20.371L78.3979 20.2617C78.3684 20.2272 78.3314 20.1997 78.2899 20.1813C78.2483 20.1629 78.2031 20.1541 78.1577 20.1554L78.1587 20.3238ZM78.2798 20.3809C78.2958 20.3944 78.3083 20.4116 78.3166 20.4309C78.3248 20.4502 78.3283 20.4711 78.327 20.4921H78.4953C78.4965 20.4468 78.4877 20.4018 78.4693 20.3604C78.4509 20.319 78.4234 20.2823 78.389 20.2529L78.2798 20.3809ZM78.327 20.4921V20.9744H78.4953V20.4921H78.327ZM78.4796 21.0246C78.6777 20.7558 78.9399 20.5409 79.2424 20.3994C79.5448 20.2579 79.8778 20.1944 80.2111 20.2145V20.0462C79.8507 20.0253 79.4908 20.0949 79.1641 20.2486C78.8375 20.4023 78.5545 20.6352 78.3408 20.9262L78.4796 21.0246ZM80.2111 20.2145C80.522 20.1904 80.8342 20.2403 81.1221 20.3601C81.41 20.4798 81.6655 20.6661 81.8677 20.9035L82.0006 20.7992C81.7829 20.5411 81.5073 20.3381 81.1964 20.2067C80.8854 20.0754 80.5478 20.0194 80.2111 20.0432V20.2145ZM81.8677 20.9035C82.2633 21.4262 82.4765 22.0641 82.4749 22.7196L82.6433 22.7127C82.6436 22.0211 82.4174 21.3483 81.9995 20.7972L81.8677 20.9035ZM82.4749 22.7245C82.4818 22.8013 82.4858 22.9214 82.4858 23.0907H82.6541C82.6541 22.9224 82.6541 22.7954 82.6423 22.7097L82.4749 22.7245ZM82.4858 23.0907C82.4858 23.259 82.4858 23.3801 82.4749 23.4569L82.6423 23.4717C82.6502 23.387 82.6541 23.259 82.6541 23.0907H82.4858ZM82.4749 23.4608C82.4742 24.1162 82.2612 24.7537 81.8677 25.2779L81.9995 25.3822C82.4152 24.8303 82.6411 24.1586 82.6433 23.4677L82.4749 23.4608ZM81.8677 25.2769C81.6646 25.5132 81.409 25.6987 81.1213 25.8183C80.8336 25.938 80.5218 25.9886 80.2111 25.9659V26.1342C80.5475 26.1561 80.8843 26.0992 81.1948 25.9679C81.5053 25.8367 81.7808 25.6348 81.9995 25.3782L81.8677 25.2769ZM80.2111 25.9659C79.8834 25.9823 79.5566 25.9193 79.2586 25.7822C78.9605 25.645 78.7001 25.4379 78.4993 25.1784L78.3655 25.2769C78.5815 25.5573 78.8619 25.7815 79.183 25.9305C79.5041 26.0796 79.8563 26.1492 80.21 26.1333L80.2111 25.9659ZM78.3486 25.2277V27.7741H78.5179V25.2277H78.3486ZM78.3486 27.7741C78.3501 27.7953 78.3472 27.8166 78.3401 27.8365C78.333 27.8565 78.3218 27.8748 78.3073 27.8903L78.4264 28.0094C78.4566 27.9784 78.4803 27.9415 78.4958 27.9011C78.5114 27.8606 78.5186 27.8174 78.517 27.7741H78.3486ZM78.3033 27.8952C78.2896 27.9112 78.2723 27.9239 78.2529 27.9321C78.2334 27.9403 78.2123 27.9439 78.1912 27.9425V28.1118C78.2367 28.1132 78.2818 28.1043 78.3234 28.0859C78.365 28.0675 78.4018 28.04 78.4313 28.0054L78.3033 27.8952ZM78.1912 27.9425H77.6538V28.1118H78.1912V27.9425ZM79.9796 25.2464C80.2066 25.2652 80.4349 25.2279 80.644 25.1376C80.8531 25.0473 81.0367 24.9068 81.1786 24.7286L81.0428 24.6302C80.9164 24.7866 80.7532 24.9092 80.5679 24.9874C80.3826 25.0655 80.181 25.0966 79.9807 25.078L79.9796 25.2464ZM81.1776 24.7296C81.4462 24.3418 81.5901 23.8813 81.5901 23.4096L81.4218 23.4027C81.4234 23.8406 81.2912 24.2686 81.0428 24.6292L81.1776 24.7296ZM81.589 23.4145C81.5969 23.3368 81.6009 23.2275 81.6009 23.0878H81.4316C81.4316 23.2256 81.4315 23.3289 81.4207 23.3978L81.589 23.4145ZM81.6009 23.0878C81.6401 22.5234 81.4997 21.9612 81.2002 21.4813C81.0577 21.2961 80.8719 21.1488 80.659 21.0523C80.4462 20.9559 80.2129 20.9132 79.9796 20.9281V21.0964C80.186 21.0819 80.3929 21.1185 80.5818 21.203C80.7706 21.2874 80.9358 21.4172 81.0625 21.5807C81.3401 22.0317 81.4688 22.5585 81.4305 23.0867L81.6009 23.0878ZM79.9796 20.9291C79.7497 20.9148 79.5198 20.9563 79.3093 21.05C79.0988 21.1438 78.9141 21.287 78.771 21.4676L78.9048 21.566C79.0323 21.4063 79.1966 21.28 79.3837 21.1979C79.5707 21.1157 79.7749 21.0803 79.9787 21.0945L79.9796 20.9291ZM78.771 21.4676C78.5067 21.8251 78.3589 22.2554 78.3477 22.6999L78.517 22.7078C78.5278 22.2967 78.6653 21.8989 78.9107 21.5689L78.771 21.4676ZM78.3477 22.7019L78.3369 23.1192H78.5052L78.516 22.7019H78.3477ZM78.3369 23.1232L78.3477 23.5514H78.517L78.5062 23.1232H78.3369ZM78.3477 23.5523C78.3561 23.9839 78.5097 24.4 78.7837 24.7335L78.9147 24.6262C78.6649 24.3202 78.5261 23.9385 78.5209 23.5435L78.3477 23.5523ZM78.7837 24.7335C78.9297 24.9057 79.1135 25.0416 79.3208 25.1308C79.5282 25.2199 79.7533 25.2598 79.9787 25.2473V25.0791C79.7783 25.0916 79.5777 25.0573 79.3928 24.9788C79.2079 24.9004 79.0439 24.78 78.9136 24.6272L78.7837 24.7335ZM84.5204 25.833L84.5568 25.7572L84.5204 25.833ZM83.7851 25.2424L83.7162 25.2907L83.7851 25.2424ZM84.1149 23.2118L84.166 23.2787L84.1149 23.2118ZM85.739 22.5976L85.7508 22.6812L85.739 22.5976ZM87.374 22.3672L87.3858 22.4509C87.4059 22.448 87.4244 22.438 87.4378 22.4226C87.4512 22.4073 87.4585 22.3876 87.4586 22.3672H87.374ZM85.3 21.1378L85.3453 21.2087L85.3 21.1378ZM84.8393 21.6102L84.7655 21.5689C84.7631 21.5736 84.7611 21.5786 84.7596 21.5837L84.8393 21.6102ZM84.7517 21.753L84.6986 21.687L84.6917 21.693L84.7517 21.753ZM83.9721 21.7314L83.9082 21.7864L83.917 21.7953L83.9721 21.7314ZM83.9061 21.5561H83.8215H83.9061ZM84.1473 20.9655L84.0784 20.9173L84.1473 20.9655ZM84.8827 20.3838L84.92 20.4596L84.8827 20.3838ZM87.8681 20.7125L87.8061 20.7697L87.8681 20.7125ZM88.3288 25.8822L88.3878 25.9423L88.3288 25.8822ZM87.4616 25.8822L87.3975 25.9374C87.4 25.9408 87.4031 25.9437 87.4064 25.9462L87.4616 25.8822ZM87.3956 25.2237H87.4802C87.4798 25.2059 87.4739 25.1888 87.4632 25.1746C87.4524 25.1604 87.4375 25.1499 87.4205 25.1447C87.4035 25.1395 87.3853 25.1397 87.3685 25.1454C87.3516 25.1511 87.337 25.162 87.3267 25.1765L87.3956 25.2237ZM86.6928 25.8144L86.6534 25.7395L86.6928 25.8144ZM86.9123 24.7719L86.8513 24.7129L86.9123 24.7719ZM87.373 23.1143H87.4576C87.4576 23.102 87.455 23.0898 87.4498 23.0787C87.4447 23.0675 87.4372 23.0576 87.4278 23.0497C87.4185 23.0417 87.4075 23.0359 87.3956 23.0326C87.3838 23.0293 87.3713 23.0287 87.3592 23.0307L87.373 23.1143ZM86.1002 23.3004L86.1121 23.384L86.1002 23.3004ZM84.9259 23.6734L84.9712 23.7443L84.9259 23.6734ZM84.8935 25.0013L84.8472 25.0712L84.8935 25.0013ZM85.5185 25.9709C85.1858 25.9738 84.8567 25.9015 84.5558 25.7592L84.483 25.9118C84.8063 26.0645 85.16 26.1422 85.5176 26.1391L85.5185 25.9709ZM84.5558 25.7592C84.2775 25.632 84.0356 25.4371 83.8521 25.1922L83.7162 25.2907C83.9159 25.558 84.1796 25.7709 84.483 25.9098L84.5558 25.7592ZM83.854 25.1952C83.6905 24.9616 83.6036 24.683 83.605 24.3979H83.4357C83.4342 24.7171 83.5315 25.0289 83.7142 25.2907L83.854 25.1952ZM83.605 24.3979C83.6015 24.1802 83.6505 23.9649 83.748 23.7702C83.8455 23.5755 83.9886 23.4072 84.1651 23.2797L84.0617 23.1468C83.8649 23.2902 83.7053 23.4787 83.5965 23.6966C83.4877 23.9145 83.4329 24.1553 83.4367 24.3988L83.605 24.3979ZM84.1651 23.2787C84.6313 22.9437 85.1776 22.7376 85.7489 22.6812L85.7252 22.5139C85.1244 22.5742 84.5501 22.7922 84.0607 23.1458L84.1651 23.2787ZM85.7489 22.6812L87.3838 22.4509L87.3602 22.2835L85.7242 22.5139L85.7489 22.6812ZM87.4567 22.3672V22.0493H87.2883V22.3672H87.4567ZM87.4567 22.0493C87.4684 21.8824 87.443 21.7149 87.3826 21.5589C87.3222 21.4029 87.2283 21.2622 87.1072 21.1467C86.8153 20.9263 86.4533 20.8193 86.0884 20.8454V21.0147C86.4123 20.9889 86.7345 21.0808 86.996 21.2736C87.0995 21.373 87.1797 21.4942 87.2308 21.6283C87.2818 21.7624 87.3025 21.9062 87.2913 22.0493H87.4567ZM86.0884 20.8454C85.793 20.8336 85.501 20.9115 85.2508 21.0689L85.3492 21.2087C85.5713 21.0694 85.8305 21.0007 86.0924 21.0118L86.0884 20.8454ZM85.2527 21.0679C85.0494 21.1917 84.8803 21.3642 84.7606 21.5699L84.9083 21.6526C85.0138 21.4717 85.1626 21.3199 85.3413 21.2107L85.2527 21.0679ZM84.7606 21.5837C84.7501 21.6231 84.729 21.6588 84.6995 21.687L84.8049 21.819C84.8599 21.7705 84.8998 21.7073 84.92 21.6369L84.7606 21.5837ZM84.6937 21.6939C84.6731 21.7093 84.6473 21.716 84.6218 21.7126V21.881C84.6566 21.8828 84.6914 21.8776 84.7242 21.8658C84.757 21.8539 84.7871 21.8357 84.8127 21.812L84.6937 21.6939ZM84.6218 21.7126H84.1493V21.881H84.6218V21.7126ZM84.1493 21.7126C84.1051 21.7131 84.0621 21.6969 84.0292 21.6674L83.919 21.7953C83.9827 21.8511 84.0647 21.8815 84.1493 21.881V21.7126ZM84.0381 21.6762C84.0079 21.6431 83.9914 21.5999 83.9918 21.5551H83.8235C83.8229 21.6398 83.8534 21.7218 83.9091 21.7855L84.0381 21.6762ZM83.9918 21.5591C84.0148 21.3588 84.0932 21.169 84.2182 21.0108L84.0804 20.9124C83.936 21.0963 83.8469 21.3175 83.8235 21.5502L83.9918 21.5591ZM84.2182 21.0118C84.4027 20.7708 84.6446 20.5799 84.9219 20.4566L84.8482 20.305C84.5455 20.4405 84.2815 20.6497 84.0804 20.9134L84.2182 21.0118ZM84.923 20.4566C85.2919 20.283 85.6967 20.1997 86.1042 20.2135V20.0452C85.6703 20.0316 85.2395 20.1213 84.8472 20.307L84.923 20.4566ZM86.1042 20.2135C86.4112 20.1831 86.7213 20.2166 87.0147 20.3119C87.3082 20.4073 87.5786 20.5625 87.8091 20.7677L87.9331 20.6535C87.6869 20.431 87.3973 20.2621 87.0825 20.1574C86.7677 20.0527 86.4345 20.0145 86.1042 20.0452V20.2135ZM87.81 20.7687C88.1561 21.1389 88.3412 21.6313 88.3248 22.1378H88.4931C88.5092 21.5884 88.3076 21.0549 87.9321 20.6535L87.81 20.7687ZM88.3248 22.1378V25.6943H88.4931V22.1378H88.3248ZM88.3248 25.6943C88.3255 25.7179 88.3212 25.7414 88.3122 25.7632C88.3032 25.7851 88.2897 25.8049 88.2726 25.8212L88.3917 25.9403C88.4238 25.9081 88.4492 25.8696 88.4661 25.8273C88.483 25.7851 88.4911 25.7398 88.4901 25.6943H88.3248ZM88.2726 25.8212C88.2572 25.8357 88.2388 25.8468 88.2188 25.8539C88.1988 25.8611 88.1776 25.864 88.1565 25.8625V26.0309C88.1998 26.0324 88.2429 26.0252 88.2833 26.0097C88.3238 25.9941 88.3607 25.9705 88.3917 25.9403L88.2726 25.8212ZM88.1565 25.8625H87.6516V26.0309H88.1565V25.8625ZM87.6516 25.8625C87.6035 25.864 87.5566 25.848 87.5196 25.8173L87.4104 25.9453C87.4775 26.0026 87.5633 26.0334 87.6516 26.0318V25.8625ZM87.5295 25.8261C87.4979 25.7896 87.4814 25.7425 87.4832 25.6943H87.3149C87.3129 25.7824 87.3435 25.8682 87.4005 25.9354L87.5295 25.8261ZM87.4832 25.6943V25.2228H87.3149V25.6943H87.4832ZM87.3297 25.1745C87.1552 25.4153 86.9244 25.6097 86.6574 25.7405L86.7351 25.8901C87.0266 25.747 87.2785 25.5344 87.4684 25.271L87.3297 25.1745ZM86.6574 25.7405C86.3032 25.908 85.914 25.9877 85.5225 25.9728V26.1411C85.9414 26.1564 86.3576 26.0703 86.7361 25.8901L86.6574 25.7405ZM85.7527 25.3182C85.9793 25.3262 86.2052 25.2872 86.416 25.2035C86.6267 25.1198 86.8178 24.9933 86.9772 24.832L86.8562 24.7138C86.7126 24.859 86.5404 24.9727 86.3504 25.0476C86.1604 25.1225 85.9568 25.1571 85.7527 25.1489V25.3182ZM86.9772 24.832C87.1469 24.6407 87.2771 24.4178 87.3602 24.1761C87.4433 23.9343 87.4777 23.6785 87.4616 23.4234H87.2932C87.3093 23.6569 87.279 23.8912 87.204 24.1128C87.129 24.3345 87.0108 24.5391 86.8562 24.7149L86.9772 24.832ZM87.4616 23.4234V23.1163H87.2932V23.4234H87.4616ZM87.3632 23.0297L86.0904 23.2157L86.115 23.383L87.3877 23.197L87.3632 23.0297ZM86.0904 23.2157C85.6642 23.2555 85.2518 23.3875 84.8817 23.6026L84.9752 23.7433C85.3247 23.5427 85.7136 23.4201 86.115 23.384L86.0904 23.2157ZM84.8827 23.6015C84.7531 23.6721 84.6446 23.7758 84.5683 23.9021C84.492 24.0283 84.4507 24.1726 84.4485 24.3201H84.6178C84.6201 24.2009 84.6544 24.0844 84.7171 23.9829C84.7798 23.8814 84.8686 23.7987 84.9742 23.7433L84.8827 23.6015ZM84.4485 24.3201C84.444 24.4691 84.4785 24.6167 84.5486 24.7483C84.6187 24.8798 84.722 24.9908 84.8482 25.0702L84.9417 24.9304C84.8385 24.8663 84.7542 24.7761 84.6971 24.669C84.6401 24.5618 84.6124 24.4415 84.6169 24.3201H84.4485ZM84.8501 25.0721C85.1209 25.2385 85.434 25.3229 85.7518 25.3153V25.1469C85.4664 25.1543 85.185 25.0787 84.9417 24.9294L84.8501 25.0721ZM90.447 25.396L90.3869 25.455L90.447 25.396ZM89.7442 23.5258H89.6606H89.7442ZM89.7334 23.0867H89.6498H89.7334ZM89.7442 22.6477H89.6606H89.7442ZM90.447 20.7923L90.5071 20.8523L90.447 20.7923ZM93.6303 20.4084L93.5909 20.4832L93.6303 20.4084ZM94.4424 21.1102L94.3705 21.1555L94.4424 21.1102ZM94.7377 21.9449H94.6531H94.7377ZM94.6717 22.1201L94.7269 22.1841L94.6717 22.1201ZM93.7937 22.1418L93.8469 22.0758L93.7937 22.1418ZM93.6834 21.9666L93.6038 21.9952L93.6834 21.9666ZM93.1569 21.2204L93.1096 21.2904L93.1569 21.2204ZM91.2139 21.4173L91.1528 21.3593L91.2139 21.4173ZM90.7856 22.6969H90.701H90.7856ZM90.7748 23.0907H90.6902H90.7748ZM90.7856 23.4638H90.701H90.7856ZM91.2139 24.7591L91.1528 24.8172L91.2139 24.7591ZM93.1569 24.956L93.2022 25.0268L93.1569 24.956ZM93.6834 24.199L93.6057 24.1666L93.6834 24.199ZM93.7937 24.0238L93.8469 24.0898L93.8538 24.0839L93.7937 24.0238ZM94.6717 24.0455L94.6117 24.1046L94.6717 24.0455ZM94.7377 24.2207L94.6541 24.2118L94.7377 24.2207ZM94.4424 25.0544L94.3716 25.0091L94.4424 25.0544ZM93.6303 25.7572L93.5909 25.6824L93.6303 25.7572ZM92.2917 25.9541C91.9668 25.9733 91.6413 25.927 91.3346 25.8181C91.0279 25.7093 90.7462 25.54 90.5061 25.3202L90.388 25.4403C90.6434 25.6755 90.9434 25.8571 91.2702 25.9745C91.597 26.0918 91.944 26.1424 92.2907 26.1234L92.2917 25.9541ZM90.5071 25.3212C90.0578 24.8267 89.8151 24.1789 89.8289 23.511L89.6606 23.5169C89.6483 24.2267 89.9082 24.9142 90.3869 25.4383L90.5071 25.3212ZM89.8289 23.512L89.818 23.073H89.6498L89.6606 23.512H89.8289ZM89.818 23.0769L89.8289 22.6379H89.6606L89.6498 23.0769H89.818ZM89.8289 22.6389C89.8139 21.9743 90.0569 21.3297 90.5071 20.8405L90.3869 20.7214C89.9069 21.2408 89.6466 21.9258 89.6606 22.633L89.8289 22.6389ZM90.5071 20.8405C90.7454 20.6178 91.0264 20.4458 91.3332 20.335C91.6399 20.2242 91.966 20.1768 92.2917 20.1958V20.0275C91.9439 20.0084 91.596 20.0601 91.2688 20.1794C90.9416 20.2987 90.6419 20.4831 90.388 20.7214L90.5071 20.8405ZM92.2917 20.1958C92.7406 20.1818 93.1863 20.2763 93.5909 20.4714L93.6688 20.3218C93.24 20.1136 92.7672 20.0123 92.2907 20.0265L92.2917 20.1958ZM93.5909 20.4714C93.9061 20.622 94.1752 20.8541 94.3705 21.1437L94.5133 21.0541C94.3022 20.739 94.0106 20.4861 93.6688 20.3218L93.5909 20.4714ZM94.3716 21.1457C94.5343 21.3783 94.6318 21.6501 94.6541 21.9331L94.8224 21.9243C94.7994 21.6098 94.6922 21.3072 94.5123 21.0482L94.3716 21.1457ZM94.6541 21.942C94.6568 21.9601 94.6549 21.9787 94.6485 21.9959C94.6422 22.0131 94.6316 22.0284 94.6177 22.0404L94.7279 22.1684C94.7638 22.1387 94.7917 22.1004 94.809 22.057C94.8262 22.0136 94.8321 21.9666 94.8263 21.9203L94.6541 21.942ZM94.6177 22.0404C94.5807 22.0711 94.5338 22.0872 94.4857 22.0857V22.254C94.5743 22.2557 94.6604 22.2248 94.7279 22.1674L94.6177 22.0404ZM94.4857 22.0857H93.9591V22.254H94.4857V22.0857ZM93.9591 22.0857C93.9199 22.0896 93.8805 22.0806 93.8469 22.0601L93.7416 22.192C93.8048 22.2373 93.8815 22.2595 93.9591 22.255V22.0857ZM93.8469 22.0601C93.8087 22.0196 93.7798 21.9712 93.7623 21.9184L93.6067 21.9833C93.6343 22.0627 93.6806 22.1342 93.7416 22.192L93.8469 22.0601ZM93.7642 21.9223C93.6699 21.6047 93.4725 21.3277 93.2032 21.1348L93.1116 21.2766C93.3494 21.4498 93.5226 21.6975 93.6038 21.9804L93.7642 21.9223ZM93.2051 21.1348C92.9357 20.9634 92.6206 20.8779 92.3015 20.8897V21.0581C92.5868 21.0465 92.8689 21.1216 93.1107 21.2736L93.2051 21.1348ZM92.3015 20.8897C92.089 20.8804 91.8769 20.9162 91.6791 20.9946C91.4813 21.0729 91.3023 21.1922 91.1538 21.3445L91.2759 21.4606C91.4087 21.325 91.5688 21.219 91.7456 21.1498C91.9224 21.0806 92.1119 21.0496 92.3015 21.059V20.8897ZM91.1538 21.3445C90.846 21.7212 90.6858 22.197 90.7029 22.6832L90.8713 22.6891C90.853 22.2438 90.9968 21.8071 91.2759 21.4597L91.1538 21.3445ZM90.7029 22.6841L90.6921 23.0779H90.8605L90.8713 22.6841H90.7029ZM90.6921 23.0838L90.7029 23.4569L90.8713 23.4519L90.8605 23.0789L90.6921 23.0838ZM90.7029 23.4578C90.6846 23.9475 90.8448 24.4271 91.1538 24.8074L91.2759 24.6912C90.9956 24.3402 90.8519 23.8997 90.8713 23.451L90.7029 23.4578ZM91.1538 24.8074C91.3032 24.9579 91.4825 25.0751 91.6803 25.1516C91.8781 25.2281 92.0898 25.2621 92.3015 25.2513V25.082C92.1125 25.0925 91.9233 25.0628 91.7465 24.9949C91.5697 24.9271 91.4094 24.8225 91.2759 24.6882L91.1538 24.8074ZM92.3015 25.2513C92.6183 25.2626 92.9316 25.1815 93.2032 25.018L93.1116 24.8763C92.8672 25.0219 92.5858 25.0934 92.3015 25.082V25.2513ZM93.2051 25.017C93.4726 24.8176 93.6686 24.5374 93.7642 24.2178L93.6047 24.1617C93.5215 24.4467 93.349 24.6976 93.1126 24.8773L93.2051 25.017ZM93.7623 24.2227C93.7799 24.1699 93.8087 24.1215 93.8469 24.0809L93.7416 23.949C93.6805 24.0071 93.6341 24.079 93.6067 24.1587L93.7623 24.2227ZM93.8538 24.0741C93.8685 24.0622 93.8853 24.0534 93.9033 24.0482C93.9214 24.0429 93.9404 24.0414 93.9591 24.0435V23.8752C93.9182 23.8728 93.8774 23.8786 93.8388 23.8923C93.8003 23.906 93.7648 23.9273 93.7346 23.9549L93.8538 24.0741ZM93.9591 24.0435H94.4857V23.8752H93.9591V24.0435ZM94.4857 24.0435C94.5094 24.0429 94.5328 24.0472 94.5547 24.0562C94.5766 24.0652 94.5964 24.0787 94.6127 24.0957L94.7318 23.9766C94.6995 23.9445 94.661 23.9192 94.6187 23.9023C94.5765 23.8854 94.5313 23.8772 94.4857 23.8781V24.0435ZM94.6177 24.0997C94.6316 24.1116 94.6422 24.1269 94.6485 24.1441C94.6549 24.1613 94.6568 24.1799 94.6541 24.1981L94.8213 24.2148C94.8272 24.1685 94.8212 24.1215 94.804 24.0781C94.7868 24.0347 94.7589 23.9964 94.7229 23.9668L94.6177 24.0997ZM94.6541 24.2069C94.6304 24.4915 94.5326 24.7651 94.3705 25.0003L94.5123 25.0908C94.69 24.8311 94.7969 24.5295 94.8224 24.2158L94.6541 24.2069ZM94.3705 25.0003C94.1753 25.2899 93.9061 25.522 93.5909 25.6726L93.6688 25.8222C94.0105 25.6577 94.302 25.4049 94.5133 25.0899L94.3705 25.0003ZM93.59 25.6736C93.1858 25.87 92.7398 25.9646 92.2907 25.9492V26.1175C92.7673 26.1333 93.2405 26.0319 93.6688 25.8222L93.59 25.6736ZM96.1177 25.8576L96.0538 25.9128L96.0636 25.9216L96.1177 25.8576ZM96.1177 18.2074L96.1778 18.2665L96.1177 18.2074ZM97.0292 18.2074L96.9653 18.2625L96.9741 18.2714L97.0292 18.2074ZM97.106 20.9399H97.0224C97.0226 20.9574 97.028 20.9743 97.0382 20.9885C97.0484 21.0026 97.0628 21.0133 97.0793 21.019C97.0958 21.0247 97.1136 21.0252 97.1304 21.0204C97.1472 21.0156 97.162 21.0057 97.1729 20.9921L97.106 20.9399ZM97.8522 20.3257L97.8895 20.4015L97.8522 20.3257ZM100.552 20.7864L100.488 20.8415L100.552 20.7864ZM101.068 25.8567L101.008 25.7976L101.068 25.8567ZM100.157 25.8567L100.093 25.9118L100.102 25.9206L100.157 25.8567ZM99.7075 21.4272L99.6436 21.4823L99.7075 21.4272ZM97.5125 21.438L97.4515 21.38L97.5125 21.438ZM97.0302 25.8606L96.9702 25.8016L97.0302 25.8606ZM96.3058 25.8419C96.2577 25.8434 96.2108 25.8273 96.1738 25.7966L96.0636 25.9246C96.1307 25.982 96.2165 26.0127 96.3048 26.0112L96.3058 25.8419ZM96.1837 25.8055C96.153 25.7685 96.1369 25.7216 96.1384 25.6736H95.9691C95.9672 25.7617 95.9977 25.8475 96.0547 25.9147L96.1837 25.8055ZM96.1384 25.6736V18.3895H95.9691V25.6736H96.1384ZM96.1384 18.3895C96.1369 18.3684 96.1398 18.3471 96.1469 18.3271C96.154 18.3071 96.1652 18.2889 96.1797 18.2734L96.0606 18.1543C96.0304 18.1853 96.0069 18.2222 95.9913 18.2627C95.9757 18.3031 95.9685 18.3463 95.97 18.3895H96.1384ZM96.1797 18.2734C96.1961 18.2563 96.2159 18.2429 96.2377 18.2339C96.2596 18.2249 96.2831 18.2206 96.3067 18.2212V18.0529C96.2612 18.0519 96.2159 18.06 96.1736 18.077C96.1313 18.0939 96.0929 18.1192 96.0606 18.1513L96.1797 18.2734ZM96.3067 18.2212H96.855V18.0529H96.3067V18.2212ZM96.855 18.2212C96.8759 18.2199 96.8968 18.2235 96.9162 18.2317C96.9355 18.2399 96.9527 18.2525 96.9663 18.2685L97.0942 18.1582C97.0647 18.1237 97.0278 18.0961 96.9862 18.0777C96.9446 18.0593 96.8995 18.0505 96.854 18.0519L96.855 18.2212ZM96.975 18.2773C96.991 18.2909 97.0037 18.3081 97.0119 18.3274C97.0201 18.3467 97.0237 18.3676 97.0224 18.3886H97.1917C97.1929 18.3433 97.1839 18.2983 97.1655 18.257C97.1471 18.2156 97.1197 18.1788 97.0853 18.1494L96.975 18.2773ZM97.0224 18.3886V20.9478H97.1917V18.3886H97.0224ZM97.1729 20.998C97.3633 20.7488 97.6085 20.5467 97.8895 20.4074L97.8156 20.2558C97.5115 20.4065 97.2462 20.625 97.04 20.8946L97.1729 20.998ZM97.8915 20.4074C98.2122 20.2569 98.564 20.1847 98.9181 20.1968V20.0284C98.5374 20.0159 98.1592 20.0942 97.8147 20.2568L97.8915 20.4074ZM98.9181 20.1968C99.2127 20.179 99.5077 20.2284 99.7805 20.3411C100.053 20.4538 100.297 20.6269 100.493 20.8474L100.621 20.7372C100.409 20.4985 100.147 20.3108 99.8523 20.1879C99.558 20.065 99.2396 20.0101 98.9211 20.0275L98.9181 20.1968ZM100.493 20.8494C100.894 21.3353 101.098 21.9538 101.065 22.5828H101.233C101.266 21.9128 101.047 21.2547 100.619 20.7381L100.493 20.8494ZM101.065 22.5828V25.6775H101.233V22.5828H101.065ZM101.065 25.6775C101.066 25.7011 101.061 25.7246 101.052 25.7465C101.043 25.7683 101.03 25.7881 101.013 25.8045L101.132 25.9236C101.164 25.8913 101.189 25.8528 101.206 25.8106C101.223 25.7683 101.231 25.723 101.23 25.6775H101.065ZM101.013 25.8045C100.997 25.819 100.979 25.8302 100.959 25.8373C100.939 25.8444 100.918 25.8473 100.897 25.8458V26.0141C100.94 26.0156 100.983 26.0084 101.023 25.9929C101.064 25.9773 101.101 25.9537 101.132 25.9236L101.013 25.8045ZM100.897 25.8458H100.348V26.0141H100.897V25.8458ZM100.348 25.8458C100.3 25.8473 100.253 25.8312 100.217 25.8005L100.106 25.9285C100.173 25.9859 100.259 26.0167 100.347 26.0151L100.348 25.8458ZM100.226 25.8094C100.196 25.7725 100.18 25.7255 100.181 25.6775H100.012C100.01 25.7656 100.04 25.8514 100.097 25.9187L100.226 25.8094ZM100.181 25.6775V22.6349H100.012V25.6746L100.181 25.6775ZM100.181 22.6379C100.209 22.1807 100.064 21.7297 99.7755 21.374L99.6495 21.4862C99.91 21.811 100.039 22.2215 100.012 22.6369L100.181 22.6379ZM99.7765 21.375C99.6304 21.2186 99.4513 21.0964 99.2524 21.0174C99.0534 20.9385 98.8394 20.9046 98.6257 20.9183V21.0866C98.8152 21.0731 99.0053 21.102 99.1822 21.1711C99.3591 21.2402 99.5184 21.3479 99.6485 21.4862L99.7765 21.375ZM98.6257 20.9183C98.409 20.9093 98.1929 20.946 97.9914 21.0263C97.7899 21.1065 97.6076 21.2284 97.4564 21.3839L97.5785 21.5C97.7142 21.3614 97.8776 21.2531 98.0581 21.182C98.2386 21.1109 98.432 21.0788 98.6257 21.0876V20.9183ZM97.4564 21.3839C97.1543 21.7297 97.0003 22.1805 97.0273 22.6389H97.1966C97.17 22.2241 97.3074 21.8154 97.5794 21.501L97.4564 21.3839ZM97.0273 22.6389V25.6785H97.1966V22.6349L97.0273 22.6389ZM97.0273 25.6785C97.028 25.7022 97.0235 25.7256 97.0146 25.7475C97.0056 25.7694 96.9921 25.7891 96.975 25.8055L97.0942 25.9246C97.1263 25.8923 97.1516 25.8538 97.1685 25.8115C97.1854 25.7693 97.1936 25.724 97.1926 25.6785H97.0273ZM96.975 25.8055C96.9596 25.82 96.9413 25.8312 96.9213 25.8383C96.9013 25.8454 96.8801 25.8483 96.859 25.8468V26.0151C96.9022 26.0167 96.9454 26.0094 96.9858 25.9938C97.0263 25.9783 97.0631 25.9547 97.0942 25.9246L96.975 25.8055ZM96.859 25.8468H96.3107V26.0151H96.859V25.8468ZM103.207 25.3497L103.146 25.4078L103.207 25.3497ZM102.472 23.4401H102.387H102.472ZM102.46 23.0671H102.376V23.072L102.46 23.0671ZM102.472 22.7048L102.387 22.6989L102.472 22.7048ZM103.218 20.8169L103.158 20.7578L103.218 20.8169ZM106.894 20.8937L106.83 20.9488L106.894 20.8937ZM107.485 23.3545L107.545 23.4145L107.485 23.3545ZM103.512 23.4205V23.3358C103.49 23.3358 103.468 23.3447 103.452 23.3606C103.436 23.3764 103.427 23.398 103.427 23.4205H103.512ZM103.512 23.5189H103.427H103.512ZM103.94 24.7374L103.873 24.7897L103.94 24.7374ZM105.828 25.0328L105.872 25.1046L105.828 25.0328ZM106.311 24.6046L106.243 24.5544L106.311 24.6046ZM106.454 24.4511L106.493 24.5268H106.498L106.454 24.4511ZM107.34 24.4727L107.286 24.5376L107.34 24.4727ZM107.099 25.208L107.036 25.1519L107.099 25.208ZM106.254 25.7986L106.289 25.8753L106.254 25.7986ZM106.517 22.6596V22.7442C106.54 22.7442 106.561 22.7353 106.577 22.7194C106.593 22.7035 106.602 22.682 106.602 22.6596H106.517ZM106.1 21.3977L106.035 21.4518L106.1 21.3977ZM103.905 21.3977L103.841 21.3435L103.905 21.3977ZM103.511 22.6596H103.426C103.426 22.682 103.435 22.7035 103.451 22.7194C103.467 22.7353 103.489 22.7442 103.511 22.7442V22.6596ZM105.015 25.9561C104.693 25.9715 104.371 25.9203 104.07 25.8056C103.769 25.6909 103.494 25.5153 103.264 25.2897L103.144 25.4078C103.39 25.6492 103.683 25.8374 104.004 25.9607C104.326 26.084 104.67 26.1397 105.014 26.1244L105.015 25.9561ZM103.265 25.2907C102.809 24.7791 102.556 24.1191 102.552 23.4342L102.384 23.4431C102.39 24.1682 102.659 24.8664 103.143 25.4068L103.265 25.2907ZM102.553 23.4362L102.542 23.0631H102.374L102.385 23.4362H102.553ZM102.542 23.068L102.553 22.7058L102.384 22.7009L102.373 23.0631L102.542 23.068ZM102.553 22.7088C102.566 22.0301 102.823 21.3788 103.277 20.874L103.155 20.7578C102.674 21.2913 102.401 21.9799 102.385 22.698L102.553 22.7088ZM103.276 20.874C103.501 20.6471 103.771 20.4697 104.069 20.3533C104.366 20.2368 104.685 20.1838 105.004 20.1977V20.0295C104.662 20.0156 104.321 20.0732 104.003 20.1986C103.684 20.324 103.395 20.5145 103.155 20.7578L103.276 20.874ZM105.004 20.1977C105.345 20.1776 105.686 20.2346 106.002 20.3644C106.318 20.4943 106.6 20.6937 106.828 20.9478L106.956 20.8376C106.712 20.5651 106.41 20.351 106.072 20.2111C105.734 20.0712 105.369 20.0092 105.004 20.0295V20.1977ZM106.829 20.9478C107.288 21.5214 107.519 22.2442 107.478 22.9775H107.647C107.689 22.2034 107.443 21.4411 106.958 20.8366L106.829 20.9478ZM107.478 22.9775V23.1645H107.647V22.9775H107.478ZM107.478 23.1645C107.479 23.1882 107.474 23.2117 107.465 23.2336C107.456 23.2554 107.443 23.2751 107.426 23.2915L107.545 23.4106C107.577 23.3783 107.602 23.3398 107.619 23.2975C107.636 23.2553 107.644 23.2101 107.643 23.1645H107.478ZM107.426 23.2915C107.41 23.306 107.392 23.3172 107.372 23.3243C107.352 23.3315 107.331 23.3343 107.31 23.3328V23.5012C107.353 23.5027 107.396 23.4954 107.436 23.4799C107.477 23.4643 107.514 23.4408 107.545 23.4106L107.426 23.2915ZM107.31 23.3328H103.512V23.5012H107.31V23.3328ZM103.427 23.4175V23.5159H103.597V23.4175H103.427ZM103.427 23.5159C103.438 23.9748 103.594 24.4184 103.873 24.7827L104.006 24.6784C103.748 24.3418 103.605 23.9319 103.596 23.5081L103.427 23.5159ZM103.874 24.7837C104.009 24.9527 104.181 25.0881 104.377 25.1791C104.574 25.2702 104.788 25.3144 105.004 25.3084V25.14C104.813 25.146 104.623 25.1073 104.45 25.027C104.276 24.9467 104.124 24.827 104.005 24.6774L103.874 24.7837ZM105.004 25.3084C105.308 25.3209 105.608 25.2479 105.872 25.0977L105.784 24.954C105.547 25.0871 105.277 25.1512 105.005 25.1391L105.004 25.3084ZM105.872 25.0977C106.069 24.982 106.241 24.8288 106.379 24.6469L106.242 24.5485C106.116 24.7122 105.961 24.8499 105.783 24.954L105.872 25.0977ZM106.377 24.6489C106.402 24.6147 106.429 24.5818 106.457 24.5504C106.465 24.5417 106.474 24.5335 106.483 24.5259L106.491 24.52L106.415 24.3693C106.384 24.387 106.356 24.4096 106.333 24.4363C106.301 24.4719 106.271 24.509 106.243 24.5475L106.377 24.6489ZM106.495 24.517C106.541 24.4992 106.59 24.4922 106.639 24.4963V24.328C106.56 24.323 106.481 24.3385 106.409 24.3733L106.495 24.517ZM106.639 24.4963H107.178V24.328H106.639V24.4963ZM107.178 24.4963C107.218 24.4943 107.257 24.5069 107.288 24.5317L107.396 24.4018C107.335 24.3515 107.257 24.3249 107.178 24.327V24.4963ZM107.288 24.5317C107.3 24.5427 107.31 24.5564 107.316 24.5718C107.322 24.5872 107.325 24.6038 107.323 24.6204H107.492C107.493 24.5788 107.485 24.5375 107.468 24.4997C107.451 24.4618 107.425 24.4283 107.393 24.4018L107.288 24.5317ZM107.323 24.6204C107.292 24.8235 107.19 25.0093 107.037 25.146L107.163 25.2592C107.345 25.0921 107.462 24.8656 107.492 24.6204H107.323ZM107.037 25.1469C106.808 25.3931 106.53 25.588 106.22 25.7188L106.291 25.8724C106.622 25.7314 106.92 25.5222 107.165 25.2582L107.037 25.1469ZM106.221 25.7179C105.84 25.8805 105.43 25.9603 105.016 25.9521V26.1205C105.454 26.1289 105.888 26.044 106.291 25.8714L106.221 25.7179ZM106.604 22.6556V22.6232H106.435V22.6556H106.604ZM106.604 22.6232C106.624 22.1549 106.468 21.6961 106.166 21.3376L106.039 21.4498C106.312 21.7778 106.453 22.1965 106.432 22.6232H106.604ZM106.167 21.3435C106.025 21.175 105.846 21.0412 105.645 20.9523C105.443 20.8634 105.224 20.8218 105.004 20.8307V21C105.2 20.9916 105.394 21.0281 105.573 21.1065C105.752 21.185 105.911 21.3035 106.037 21.4528L106.167 21.3435ZM105.004 20.8307C104.784 20.8219 104.565 20.8636 104.364 20.9525C104.163 21.0414 103.984 21.1751 103.843 21.3435L103.972 21.4518C104.098 21.3025 104.256 21.184 104.435 21.1055C104.614 21.027 104.809 20.9906 105.004 20.999V20.8307ZM103.842 21.3435C103.555 21.7066 103.407 22.1607 103.426 22.6232H103.596C103.576 22.1989 103.709 21.7816 103.972 21.4478L103.842 21.3435ZM103.426 22.6232V22.6556H103.596V22.6232H103.426ZM103.511 22.7403H106.518V22.572H103.511V22.7403Z" fill="#51504F"/>
<path d="M67.3973 51.7078C67.2504 51.7043 67.1103 51.6444 67.0064 51.5405C66.9025 51.4365 66.8426 51.2966 66.8391 51.1496C66.8343 51.0465 66.8435 50.9432 66.8667 50.8426L73.7825 32.8018C73.8396 32.6136 73.959 32.4504 74.121 32.339C74.2831 32.2276 74.4782 32.1746 74.6744 32.1886H76.5702C76.7665 32.1745 76.9617 32.2275 77.1239 32.3389C77.2861 32.4503 77.4057 32.6136 77.463 32.8018L84.3532 50.8426L84.4094 51.1496C84.4054 51.2964 84.3453 51.4361 84.2415 51.5399C84.1377 51.6437 83.998 51.7038 83.8512 51.7078H82.4289C82.2593 51.7184 82.0912 51.6689 81.9544 51.568C81.8556 51.475 81.7796 51.3605 81.732 51.2333L80.1985 47.2734H71.0521L69.5184 51.2333C69.4664 51.3655 69.3797 51.4811 69.2674 51.568C69.1401 51.666 68.982 51.7156 68.8215 51.7078H67.3973ZM79.3873 44.8765L75.6232 34.9782L71.8602 44.8756L79.3873 44.8765ZM87.4431 34.5037C87.3566 34.513 87.2692 34.5028 87.1872 34.4739C87.1051 34.445 87.0306 34.3982 86.9691 34.3367C86.9075 34.2753 86.8605 34.2008 86.8315 34.1188C86.8025 34.0368 86.7922 33.9494 86.8013 33.8629V32.3569C86.7967 32.1835 86.8562 32.0145 86.9686 31.8824C87.03 31.8189 87.1039 31.7687 87.1855 31.7348C87.2671 31.701 87.3547 31.6842 87.4431 31.6856H89.2C89.288 31.6852 89.3753 31.7022 89.4567 31.7357C89.5381 31.7692 89.6121 31.8185 89.6743 31.8808C89.7365 31.943 89.7858 32.0169 89.8193 32.0983C89.8528 32.1797 89.8698 32.2669 89.8694 32.3549V33.861C89.8707 33.9491 89.8539 34.0367 89.82 34.1181C89.7862 34.1995 89.7361 34.2732 89.6726 34.3344C89.5408 34.4467 89.3721 34.5063 89.1991 34.5018L87.4431 34.5037ZM87.6665 51.7088C87.5799 51.7179 87.4925 51.7076 87.4105 51.6786C87.3285 51.6496 87.254 51.6026 87.1924 51.5411C87.1309 51.4795 87.084 51.405 87.055 51.323C87.026 51.241 87.0156 51.1535 87.0247 51.067V37.8494C87.0208 37.7676 87.0335 37.6859 87.0623 37.6092C87.0911 37.5325 87.1353 37.4626 87.1921 37.4035C87.2535 37.34 87.3272 37.2897 87.4088 37.2559C87.4905 37.222 87.5781 37.2053 87.6665 37.2067H89.0042C89.1721 37.2132 89.3315 37.2828 89.4504 37.4016C89.5694 37.5203 89.6391 37.6795 89.6459 37.8475V51.064C89.6474 51.1524 89.6307 51.2401 89.5968 51.3217C89.5629 51.4033 89.5127 51.4771 89.4491 51.5385C89.39 51.5952 89.3201 51.6392 89.2434 51.668C89.1667 51.6968 89.085 51.7096 89.0032 51.7058L87.6665 51.7088ZM94.42 51.7088C94.3335 51.718 94.2461 51.7076 94.1641 51.6786C94.0821 51.6495 94.0077 51.6025 93.9462 51.541C93.8848 51.4795 93.8378 51.4049 93.8089 51.3229C93.78 51.2409 93.7699 51.1534 93.7792 51.067V37.877C93.7749 37.704 93.8344 37.5354 93.9465 37.4035C94.0079 37.34 94.0818 37.2897 94.1634 37.2559C94.245 37.222 94.3326 37.2053 94.421 37.2067H95.7005C95.7885 37.2063 95.8758 37.2233 95.9572 37.2568C96.0386 37.2903 96.1126 37.3396 96.1748 37.4019C96.237 37.4641 96.2863 37.538 96.3198 37.6194C96.3533 37.7008 96.3703 37.788 96.3699 37.876V39.1025C96.7854 38.4601 97.369 37.9437 98.0572 37.6095C98.7454 37.2753 99.5119 37.136 100.274 37.2067H101.357C101.524 37.2135 101.683 37.2831 101.802 37.4019C101.921 37.5206 101.991 37.6797 101.997 37.8475V38.9903C102 39.0747 101.984 39.1586 101.95 39.2359C101.916 39.3131 101.865 39.3816 101.8 39.4362C101.741 39.4929 101.671 39.537 101.595 39.5658C101.518 39.5945 101.436 39.6074 101.355 39.6035H99.6812C99.2459 39.5802 98.8104 39.6475 98.4024 39.8012C97.9944 39.9548 97.6228 40.1915 97.311 40.4963C97.0138 40.8122 96.7837 41.1851 96.635 41.5926C96.4863 42 96.4219 42.4335 96.4457 42.8665V51.064C96.4471 51.1524 96.4303 51.24 96.3965 51.3216C96.3626 51.4033 96.3123 51.4771 96.2488 51.5385C96.1166 51.6507 95.9478 51.7103 95.7744 51.7058L94.42 51.7088ZM106.462 51.7088C106.376 51.7178 106.288 51.7073 106.207 51.6782C106.125 51.6491 106.05 51.6021 105.989 51.5406C105.927 51.4791 105.881 51.4047 105.852 51.3227C105.823 51.2408 105.812 51.1534 105.821 51.067V39.4382H103.451C103.365 39.4473 103.277 39.437 103.196 39.408C103.114 39.379 103.039 39.3322 102.978 39.2707C102.916 39.2093 102.869 39.1349 102.841 39.053C102.812 38.9711 102.801 38.8838 102.81 38.7974V37.8494C102.806 37.7676 102.819 37.6859 102.848 37.6092C102.877 37.5325 102.921 37.4626 102.978 37.4035C103.039 37.34 103.113 37.2898 103.194 37.2559C103.275 37.2221 103.363 37.2053 103.451 37.2067H105.821V35.8119C105.821 32.6515 107.42 31.0717 110.617 31.0723H112.178C112.346 31.0789 112.505 31.1485 112.624 31.2672C112.743 31.386 112.813 31.5452 112.82 31.7131V32.6611C112.821 32.7492 112.804 32.8367 112.771 32.9181C112.737 32.9996 112.687 33.0733 112.623 33.1345C112.564 33.1912 112.494 33.2352 112.417 33.264C112.341 33.2928 112.259 33.3057 112.177 33.3019H110.672C110.347 33.2666 110.019 33.3088 109.713 33.4252C109.408 33.5416 109.134 33.7287 108.915 33.9712C108.536 34.5584 108.36 35.2537 108.413 35.9507V37.2057H114.38V31.7151C114.376 31.6333 114.389 31.5516 114.418 31.4749C114.447 31.3983 114.491 31.3283 114.548 31.2692C114.609 31.2057 114.683 31.1554 114.764 31.1216C114.846 31.0877 114.934 31.071 115.022 31.0723H116.302C116.47 31.0789 116.629 31.1485 116.748 31.2672C116.867 31.386 116.937 31.5452 116.943 31.7131V51.064C116.945 51.1524 116.928 51.2401 116.894 51.3217C116.86 51.4033 116.81 51.4771 116.747 51.5385C116.687 51.5953 116.617 51.6394 116.54 51.6682C116.464 51.697 116.382 51.7097 116.3 51.7058H115.02C114.933 51.7151 114.846 51.7049 114.764 51.676C114.682 51.647 114.607 51.6 114.545 51.5385C114.484 51.4769 114.437 51.4024 114.408 51.3203C114.379 51.2382 114.369 51.1506 114.378 51.064V39.4382H108.411V51.066C108.413 51.1543 108.396 51.242 108.362 51.3236C108.328 51.4052 108.278 51.479 108.214 51.5405C108.155 51.5972 108.085 51.6413 108.008 51.6701C107.931 51.6989 107.849 51.7117 107.767 51.7078L106.462 51.7088ZM127.035 51.9873C126.164 52.04 125.292 51.9138 124.472 51.6163C123.651 51.3189 122.901 50.8566 122.267 50.2579C121.111 49.0056 120.473 47.3614 120.482 45.6571L120.453 44.4582L120.482 43.2593C120.477 41.5588 121.126 39.9215 122.294 38.6861C123.613 37.5526 125.295 36.9294 127.034 36.9294C128.773 36.9294 130.455 37.5526 131.774 38.6861C132.942 39.9217 133.591 41.5589 133.586 43.2593C133.605 43.4634 133.614 43.863 133.614 44.4582C133.614 45.0534 133.605 45.4531 133.586 45.6571C133.594 47.3663 132.946 49.0134 131.774 50.2579C131.146 50.8581 130.4 51.3215 129.583 51.619C128.766 51.9165 127.897 52.0416 127.03 51.9864L127.035 51.9873ZM127.035 49.8405C127.548 49.8666 128.06 49.7802 128.536 49.5876C129.012 49.395 129.44 49.1007 129.791 48.7253C130.536 47.8254 130.933 46.6867 130.906 45.5184C130.924 45.3326 130.934 44.9796 130.934 44.4592C130.934 43.9388 130.924 43.5858 130.906 43.4C130.933 42.2317 130.536 41.093 129.791 40.1931C129.44 39.8177 129.012 39.5234 128.536 39.3308C128.06 39.1382 127.548 39.0518 127.035 39.0779C126.517 39.0529 126 39.1396 125.519 39.3321C125.038 39.5245 124.604 39.8181 124.246 40.1931C123.504 41.0931 123.119 42.2344 123.163 43.4L123.136 44.4592L123.163 45.5184C123.119 46.684 123.504 47.8253 124.246 48.7253C124.603 49.0994 125.037 49.3925 125.517 49.5848C125.997 49.777 126.513 49.8638 127.03 49.8395L127.035 49.8405ZM140.574 51.7107C140.374 51.7237 140.177 51.6643 140.017 51.5434C139.864 51.3968 139.749 51.215 139.682 51.0139L135.722 38.0758L135.667 37.7973C135.665 37.7198 135.679 37.6427 135.707 37.5707C135.736 37.4988 135.78 37.4335 135.835 37.3789C135.949 37.2735 136.098 37.214 136.253 37.2116H137.479C137.561 37.2077 137.643 37.2206 137.72 37.2493C137.796 37.2781 137.866 37.3222 137.925 37.3789C138.04 37.4519 138.128 37.5595 138.176 37.686L141.272 48.1977L144.59 37.7973C144.63 37.6427 144.718 37.5047 144.841 37.4035C144.911 37.3365 144.995 37.2844 145.086 37.2505C145.177 37.2167 145.274 37.2018 145.371 37.2067H146.319C146.416 37.2017 146.513 37.2167 146.604 37.2505C146.695 37.2844 146.779 37.3364 146.849 37.4035C146.973 37.5046 147.061 37.6426 147.1 37.7973L150.418 48.1977L153.513 37.686C153.548 37.5668 153.616 37.4602 153.71 37.3789C153.842 37.2665 154.011 37.2069 154.184 37.2116H155.439C155.513 37.2108 155.586 37.2253 155.654 37.2541C155.722 37.2829 155.783 37.3254 155.833 37.3789C155.888 37.4335 155.931 37.4988 155.96 37.5707C155.989 37.6427 156.003 37.7198 156 37.7973L155.944 38.0758L152.013 51.0139C151.946 51.215 151.831 51.3967 151.678 51.5434C151.508 51.6678 151.298 51.7271 151.088 51.7107H150.005C149.792 51.7326 149.578 51.6728 149.408 51.5435C149.237 51.4142 149.121 51.2249 149.085 51.0139L145.85 41.0317L142.616 51.0139C142.565 51.2231 142.442 51.4077 142.269 51.5352C142.095 51.6627 141.883 51.7249 141.668 51.7107H140.574Z" fill="#51504F"/>
</svg>
