<svg width="72" height="72" viewBox="0 0 72 72" fill="none" xmlns="http://www.w3.org/2000/svg">
<g opacity="0.3">
<path opacity="0.3" d="M36.0001 70.1967C54.8873 70.1967 70.1984 54.8856 70.1984 35.9984C70.1984 17.1112 54.8873 1.80005 36.0001 1.80005C17.1129 1.80005 1.80176 17.1112 1.80176 35.9984C1.80176 54.8856 17.1129 70.1967 36.0001 70.1967Z" fill="white"/>
<path opacity="0.3" d="M36.0002 69.8257C54.6825 69.8257 69.8275 54.6807 69.8275 35.9983C69.8275 17.316 54.6825 2.17102 36.0002 2.17102C17.3179 2.17102 2.17285 17.316 2.17285 35.9983C2.17285 54.6807 17.3179 69.8257 36.0002 69.8257Z" stroke="#0E0D0D"/>
</g>
<path d="M36 70.1999C29.6433 70.2099 23.4125 68.441 18.0098 65.0921L40.9191 2.15112C44.9736 2.73412 48.8923 4.04588 52.4797 6.02344C63.4176 12.029 70.2116 23.5201 70.1983 35.9983C70.1983 38.3138 69.9664 40.6226 69.5027 42.8916C68.6083 47.2675 66.8593 51.4213 64.3584 55.1214C60.6451 60.6202 55.4212 64.9231 49.313 67.5102C47.2426 68.3847 45.0928 69.0538 42.8933 69.5043C40.6243 69.9681 38.3154 70.1999 36 70.1999Z" fill="#6E7BF2"/>
<path d="M24.4001 35.8493C24.41 35.2729 24.3504 34.6998 24.2245 34.14H16.354V37.2505H20.975C20.7994 38.3535 20.18 39.334 19.2657 39.97L19.2491 40.0727L21.7368 42.0006L21.9091 42.0172C23.5753 40.4073 24.4829 38.168 24.4067 35.8526" fill="#4285F4"/>
<path d="M16.3538 44.0478C18.3943 44.1041 20.3818 43.3786 21.9056 42.0172L19.2589 39.9668C18.401 40.5431 17.384 40.8346 16.3538 40.8048C14.1808 40.7916 12.2596 39.3904 11.5838 37.3201L11.4845 37.3267L8.89738 39.3308L8.86426 39.4235C10.2853 42.259 13.1838 44.0478 16.3538 44.0478Z" fill="#34A853"/>
<path d="M11.5838 37.32C11.4016 36.7867 11.3055 36.2268 11.3055 35.6637C11.3088 35.1006 11.4016 34.5408 11.5772 34.0075L11.5738 33.8982L8.95365 31.861L8.86752 31.9007C7.67502 34.2692 7.67502 37.0583 8.86752 39.4267L11.5838 37.32Z" fill="#FBBC05"/>
<path d="M16.3538 30.5228C17.5563 30.5029 18.7157 30.9501 19.5968 31.7716L21.9619 29.4628C20.4448 28.0384 18.4341 27.2566 16.3538 27.2831C13.1838 27.2831 10.2853 29.0686 8.86426 31.9041L11.5739 34.0108C12.2563 31.9405 14.1775 30.5393 16.3538 30.5228Z" fill="#EB4335"/>
<path d="M37.5933 36.5946V42.6863H35.6455V27.6375H40.8097C42.0552 27.611 43.2576 28.0781 44.1553 28.9394C45.9143 30.5592 46.0269 33.3019 44.4038 35.0609C44.3243 35.147 44.2415 35.2298 44.1553 35.3093C43.2543 36.1639 42.0519 36.6244 40.8097 36.5913H37.5933V36.5946ZM37.5933 29.4925V34.7462H40.8594C41.5815 34.7694 42.2805 34.4845 42.784 33.9677C43.8009 32.9906 43.8307 31.3774 42.8535 30.3604C42.8469 30.3538 42.8403 30.3472 42.8336 30.3405C42.8171 30.324 42.8005 30.3041 42.784 30.2909C42.2838 29.7642 41.5848 29.4727 40.8594 29.4925H37.5933ZM50.0384 32.0564C51.2805 31.9869 52.4995 32.3976 53.4469 33.1992C54.3015 34.0141 54.7554 35.1602 54.6957 36.3395V42.6863H52.8374V41.2553H52.7546C52.0656 42.3683 50.8433 43.0374 49.5349 43.0208C48.4881 43.054 47.4645 42.6929 46.6695 42.0105C45.9242 41.3878 45.5002 40.4603 45.5168 39.4897C45.4837 38.4959 45.9375 37.5453 46.7325 36.949C47.6765 36.2766 48.8194 35.942 49.9787 36.0016C50.9692 35.9652 51.953 36.1805 52.8341 36.631V36.1838C52.8374 35.5213 52.5426 34.8919 52.0292 34.4746C51.5124 34.0141 50.8433 33.7624 50.1477 33.769C49.1075 33.7458 48.1303 34.2626 47.5672 35.1337L45.858 34.0605C46.812 32.709 48.392 31.9471 50.0417 32.0465L50.0384 32.0564ZM47.5175 39.5361C47.5142 40.0363 47.756 40.5099 48.1635 40.8014C48.5941 41.1393 49.1307 41.3149 49.6773 41.3049C50.4988 41.3049 51.2839 40.9803 51.8702 40.4006C52.483 39.8673 52.8374 39.0922 52.8374 38.2773C52.0954 37.7573 51.201 37.5022 50.2967 37.5552C49.5945 37.5287 48.8989 37.7274 48.3192 38.1249C47.8256 38.4297 47.5275 38.963 47.5175 39.5361ZM65.3852 32.391L58.8861 47.2277H56.8787L59.2902 42.037L55.0137 32.391H57.1304L60.221 39.7878H60.2641L63.2685 32.391H65.3852Z" fill="white"/>
</svg>
