<svg width="176" height="48" viewBox="0 0 176 48" fill="none" xmlns="http://www.w3.org/2000/svg">
<path d="M62.0707 21.5395L61.083 18.8166H57.0568L56.069 21.5395H55.0039L58.5699 12.1978H59.5841L63.1359 21.5395H62.0707ZM60.7674 17.949L59.3866 14.1183C59.2277 13.6804 59.1279 13.377 59.0831 13.21H59.0567C58.9772 13.5073 58.8774 13.8107 58.7532 14.1183L57.3724 17.947H60.7674V17.949Z" fill="#8A84D6"/>
<path d="M64.8853 14.9614V16.2383C65.0523 15.7638 65.3007 15.4033 65.6347 15.1528C65.9687 14.9023 66.3679 14.7781 66.8322 14.7781C67.3067 14.7781 67.7059 14.9003 68.0297 15.1467C68.3535 15.3931 68.5857 15.7475 68.7262 16.2118C68.9197 15.7373 69.1885 15.3809 69.5347 15.1386C69.8809 14.8983 70.2862 14.7761 70.7526 14.7761C71.3921 14.7761 71.891 14.9919 72.2454 15.4217C72.5997 15.8514 72.779 16.4562 72.779 17.2383V21.5415H71.8584V17.3156C71.8584 16.7536 71.7423 16.3259 71.5102 16.0326C71.278 15.7394 70.9338 15.5927 70.4776 15.5927C69.9767 15.5927 69.5836 15.7658 69.2944 16.112C69.0052 16.4583 68.8606 16.9348 68.8606 17.5397V21.5395H67.9523V17.2627C67.9523 16.7271 67.8342 16.3157 67.598 16.0265C67.3617 15.7373 67.0237 15.5927 66.5858 15.5927C66.0848 15.5927 65.6856 15.7842 65.3883 16.165C65.091 16.5458 64.9403 17.057 64.9403 17.6985V21.5415H64.032V14.9634H64.8853V14.9614Z" fill="#8A84D6"/>
<path d="M79.5037 18.4867H74.7279C74.7361 19.2239 74.9296 19.8064 75.3063 20.2361C75.6831 20.6658 76.1922 20.8817 76.8317 20.8817C77.2879 20.8817 77.6769 20.7595 77.9966 20.513C78.3163 20.2666 78.5465 19.9204 78.687 19.4744L79.4629 19.7901C79.2613 20.4051 78.9273 20.8755 78.463 21.2055C77.9986 21.5354 77.4325 21.6983 76.7665 21.6983C75.8277 21.6983 75.1006 21.405 74.5813 20.8165C74.064 20.2279 73.8054 19.3868 73.8054 18.2912C73.8054 17.2118 74.0661 16.3605 74.5874 15.7394C75.1088 15.1162 75.8216 14.8046 76.7258 14.8046C77.6117 14.8046 78.296 15.0653 78.7786 15.5866C79.2613 16.108 79.5016 16.8656 79.5016 17.8574V18.4867H79.5037ZM78.5689 17.6191C78.5689 16.943 78.4059 16.4277 78.0821 16.0733C77.7583 15.719 77.3021 15.5398 76.7136 15.5398C76.1087 15.5398 75.6301 15.7353 75.2798 16.1263C74.9296 16.5173 74.7442 17.055 74.7279 17.7372H78.5709V17.6191H78.5689Z" fill="#8A84D6"/>
<path d="M82.418 15.2893C82.7723 14.9655 83.1959 14.8025 83.6867 14.8025C83.7926 14.8025 83.8761 14.8066 83.9372 14.8148V15.7088H83.8313C83.2428 15.7088 82.7744 15.8758 82.4241 16.2098C82.143 16.4908 81.9516 16.8269 81.8518 17.2159C81.75 17.6069 81.7011 18.0427 81.7011 18.5254V21.5395H80.7928V14.9614H81.6481V16.5662C81.807 16.0408 82.0636 15.6151 82.418 15.2893Z" fill="#8A84D6"/>
<path d="M84.7539 12.3302H85.7925V13.7782H84.7539V12.3302ZM84.8191 21.5395V14.9614H85.7274V21.5395H84.8191Z" fill="#8A84D6"/>
<path d="M88.3525 21.2767C87.9004 20.9957 87.5542 20.5965 87.3138 20.0793C87.0715 19.562 86.9513 18.953 86.9513 18.2504C86.9513 17.1812 87.2181 16.3381 87.7537 15.7251C88.2893 15.1121 89.0164 14.8046 89.9369 14.8046C90.6904 14.8046 91.3034 15.0143 91.7719 15.4359C92.2403 15.8575 92.5152 16.4399 92.5946 17.1853L91.6598 17.2912C91.5987 16.7474 91.4134 16.33 91.1079 16.0408C90.8025 15.7516 90.3972 15.607 89.8982 15.607C89.2832 15.607 88.8026 15.8391 88.4502 16.3035C88.0999 16.7678 87.9248 17.4134 87.9248 18.2382C87.9248 19.0813 88.102 19.733 88.4584 20.1994C88.8127 20.6637 89.3076 20.8959 89.939 20.8959C90.4298 20.8959 90.8269 20.7513 91.1303 20.4621C91.4338 20.1729 91.6273 19.7554 91.7169 19.2117L92.5987 19.3441C92.4765 20.0894 92.1812 20.6678 91.7169 21.0812C91.2525 21.4926 90.6599 21.7003 89.941 21.7003C89.3321 21.6983 88.8046 21.5578 88.3525 21.2767Z" fill="#8A84D6"/>
<path d="M93.786 21.179C93.3868 20.8328 93.1873 20.3746 93.1873 19.8043C93.1873 19.4887 93.2545 19.2056 93.3909 18.9551C93.5274 18.7046 93.7269 18.4968 93.9897 18.3299C94.454 18.059 95.1729 17.8614 96.1484 17.7372L97.6086 17.5661V17.4602C97.6086 16.7841 97.4844 16.2994 97.2339 16.0061C96.9834 15.7129 96.5781 15.5662 96.016 15.5662C95.515 15.5662 95.124 15.6905 94.8389 15.941C94.5538 16.1915 94.399 16.5479 94.3725 17.0142H93.3848C93.4194 16.3381 93.676 15.8025 94.1546 15.4033C94.6332 15.0042 95.2482 14.8046 96.0038 14.8046C96.8897 14.8046 97.5312 15.0205 97.9304 15.4502C98.3296 15.8799 98.5291 16.5723 98.5291 17.5295V19.2402C98.5291 20.2483 98.5984 21.0161 98.7389 21.5435H97.7777C97.7166 21.1932 97.6758 20.7534 97.6595 20.2279C97.5007 20.6923 97.2217 21.0548 96.8184 21.3134C96.4152 21.572 95.9325 21.7024 95.3704 21.7024C94.7147 21.6983 94.1852 21.5252 93.786 21.179ZM97.0628 20.3094C97.4355 19.8939 97.6229 19.3461 97.6229 18.672V18.2504L95.7554 18.5131C95.1933 18.5926 94.786 18.7331 94.5314 18.9347C94.2768 19.1363 94.1506 19.4174 94.1506 19.7758C94.1506 20.1363 94.2789 20.4194 94.5395 20.625C94.7982 20.8307 95.1464 20.9346 95.5863 20.9346C96.1953 20.9346 96.6901 20.7269 97.0628 20.3094Z" fill="#8A84D6"/>
<path d="M100.201 14.9614H101.069V16.4094C101.464 15.3219 102.213 14.7781 103.319 14.7781C104.056 14.7781 104.612 15.0062 104.991 15.4624C105.368 15.9186 105.557 16.5906 105.557 17.4765V21.5415H104.637V17.5274C104.637 16.888 104.5 16.4053 104.229 16.0795C103.957 15.7556 103.563 15.5927 103.044 15.5927C102.447 15.5927 101.977 15.8147 101.629 16.2566C101.283 16.7006 101.109 17.3075 101.109 18.0794V21.5395H100.201V14.9614Z" fill="#8A84D6"/>
<path d="M110.298 20.9346C109.671 20.3827 109.323 19.6495 109.252 18.7372L110.278 18.5926C110.357 19.2768 110.618 19.8369 111.06 20.2707C111.502 20.7045 112.141 20.9224 112.974 20.9224C113.624 20.9224 114.16 20.7737 114.585 20.4743C115.011 20.177 115.223 19.7371 115.223 19.1587C115.223 18.5885 115.066 18.1751 114.756 17.9144C114.445 17.6558 113.968 17.4643 113.329 17.3421L111.948 17.0652C110.412 16.7678 109.645 15.9328 109.645 14.5643C109.645 14.047 109.773 13.5928 110.034 13.2018C110.292 12.8108 110.661 12.5094 111.139 12.2935C111.618 12.0797 112.176 11.9717 112.818 11.9717C113.783 11.9717 114.567 12.1957 115.172 12.6438C115.777 13.0918 116.119 13.77 116.198 14.6824L115.172 14.8799C115.039 13.4849 114.247 12.7884 112.791 12.7884C112.16 12.7884 111.653 12.9391 111.272 13.2425C110.891 13.546 110.7 13.9553 110.7 14.4726C110.7 14.937 110.834 15.3076 111.101 15.5846C111.368 15.8615 111.787 16.0611 112.357 16.1833L113.738 16.4603C114.536 16.6171 115.16 16.8941 115.606 17.2892C116.054 17.6843 116.278 18.2708 116.278 19.0528C116.278 19.5701 116.151 20.0324 115.897 20.4418C115.642 20.8491 115.264 21.1729 114.758 21.4091C114.253 21.6454 113.646 21.7635 112.936 21.7635C111.805 21.7635 110.926 21.4885 110.298 20.9346Z" fill="#8A84D6"/>
<path d="M118.306 21.2829C117.85 21.0059 117.498 20.6067 117.247 20.0854C116.997 19.564 116.872 18.951 116.872 18.2504C116.872 17.5478 116.997 16.9368 117.247 16.4155C117.498 15.8941 117.85 15.495 118.306 15.218C118.762 14.941 119.294 14.8025 119.899 14.8025C120.504 14.8025 121.033 14.941 121.485 15.218C121.937 15.495 122.288 15.8941 122.538 16.4155C122.789 16.9368 122.913 17.5498 122.913 18.2504C122.913 18.953 122.789 19.564 122.538 20.0854C122.288 20.6067 121.937 21.0059 121.485 21.2829C121.033 21.5598 120.506 21.6983 119.899 21.6983C119.292 21.6983 118.762 21.5598 118.306 21.2829ZM121.398 20.2116C121.758 19.7554 121.937 19.1017 121.937 18.2504C121.937 17.3991 121.758 16.7454 121.398 16.2892C121.037 15.833 120.538 15.6049 119.897 15.6049C119.257 15.6049 118.754 15.833 118.39 16.2892C118.025 16.7454 117.844 17.3991 117.844 18.2504C117.844 19.1017 118.025 19.7554 118.39 20.2116C118.754 20.6678 119.255 20.8959 119.897 20.8959C120.538 20.8959 121.037 20.6678 121.398 20.2116Z" fill="#8A84D6"/>
<path d="M124.917 21.2767C124.465 20.9957 124.118 20.5965 123.878 20.0793C123.636 19.562 123.516 18.953 123.516 18.2504C123.516 17.1812 123.782 16.3381 124.318 15.7251C124.854 15.1121 125.581 14.8046 126.503 14.8046C127.257 14.8046 127.87 15.0143 128.338 15.4359C128.807 15.8575 129.082 16.4399 129.161 17.1853L128.226 17.2912C128.165 16.7474 127.98 16.33 127.674 16.0408C127.367 15.7516 126.964 15.607 126.465 15.607C125.85 15.607 125.369 15.8391 125.017 16.3035C124.666 16.7678 124.491 17.4134 124.491 18.2382C124.491 19.0813 124.668 19.733 125.025 20.1994C125.379 20.6637 125.874 20.8959 126.505 20.8959C126.996 20.8959 127.393 20.7513 127.697 20.4621C128 20.1729 128.194 19.7554 128.283 19.2117L129.165 19.3441C129.043 20.0894 128.748 20.6678 128.283 21.0812C127.819 21.4926 127.226 21.7003 126.507 21.7003C125.896 21.6983 125.369 21.5578 124.917 21.2767Z" fill="#8A84D6"/>
<path d="M130.332 12.3302H131.371V13.7782H130.332V12.3302ZM130.397 21.5395V14.9614H131.305V21.5395H130.397Z" fill="#8A84D6"/>
<path d="M138.226 18.4867H133.45C133.458 19.2239 133.652 19.8064 134.028 20.2361C134.405 20.6658 134.914 20.8817 135.554 20.8817C136.01 20.8817 136.399 20.7595 136.719 20.513C137.038 20.2666 137.268 19.9204 137.409 19.4744L138.185 19.7901C137.983 20.4051 137.649 20.8755 137.185 21.2055C136.721 21.5354 136.154 21.6983 135.489 21.6983C134.55 21.6983 133.823 21.405 133.305 20.8165C132.788 20.2279 132.529 19.3868 132.529 18.2912C132.529 17.2118 132.79 16.3605 133.311 15.7394C133.833 15.1162 134.546 14.8046 135.45 14.8046C136.336 14.8046 137.02 15.0653 137.503 15.5866C137.985 16.108 138.226 16.8656 138.226 17.8574V18.4867ZM137.291 17.6191C137.291 16.943 137.128 16.4277 136.804 16.0733C136.48 15.719 136.024 15.5398 135.436 15.5398C134.831 15.5398 134.352 15.7353 134.002 16.1263C133.652 16.5173 133.466 17.055 133.45 17.7372H137.293V17.6191H137.291Z" fill="#8A84D6"/>
<path d="M139.568 14.9614V13.2242L140.488 12.8291V14.9614H142.185V15.7251H140.488V19.6719C140.488 20.0589 140.574 20.3399 140.745 20.5212C140.916 20.7004 141.173 20.79 141.515 20.79C141.7 20.79 141.922 20.7595 142.185 20.6984V21.5395C141.914 21.6189 141.61 21.6576 141.276 21.6576C140.672 21.6576 140.234 21.4885 139.967 21.1505C139.7 20.8124 139.566 20.3318 139.566 19.7106V15.7251H138.356V14.9614H139.568Z" fill="#8A84D6"/>
<path d="M142.845 24.132V23.3153C143.003 23.3418 143.156 23.354 143.305 23.354C143.716 23.354 144.042 23.242 144.278 23.018C144.515 22.794 144.716 22.4457 144.883 21.9712L145.054 21.4845L142.423 14.9573H143.449L145.213 19.6556C145.327 19.953 145.423 20.2524 145.502 20.5497H145.529C145.59 20.3033 145.681 20.0019 145.806 19.6414L147.411 14.9573H148.398L145.832 21.957C145.543 22.7553 145.207 23.3255 144.826 23.6677C144.445 24.0098 143.977 24.1809 143.425 24.1809C143.213 24.1849 143.02 24.1666 142.845 24.132Z" fill="#8A84D6"/>
<path d="M152.699 21.2829C152.243 21.0059 151.891 20.6067 151.64 20.0854C151.39 19.564 151.266 18.951 151.266 18.2504C151.266 17.5478 151.39 16.9368 151.64 16.4155C151.891 15.8941 152.243 15.495 152.699 15.218C153.156 14.941 153.687 14.8025 154.292 14.8025C154.897 14.8025 155.426 14.941 155.879 15.218C156.331 15.495 156.681 15.8941 156.931 16.4155C157.182 16.9368 157.306 17.5498 157.306 18.2504C157.306 18.953 157.182 19.564 156.931 20.0854C156.681 20.6067 156.331 21.0059 155.879 21.2829C155.426 21.5598 154.899 21.6983 154.292 21.6983C153.685 21.6983 153.156 21.5598 152.699 21.2829ZM155.791 20.2116C156.151 19.7554 156.331 19.1017 156.331 18.2504C156.331 17.3991 156.151 16.7454 155.791 16.2892C155.43 15.833 154.932 15.6049 154.29 15.6049C153.651 15.6049 153.147 15.833 152.783 16.2892C152.418 16.7454 152.237 17.3991 152.237 18.2504C152.237 19.1017 152.418 19.7554 152.783 20.2116C153.147 20.6678 153.648 20.8959 154.29 20.8959C154.932 20.8959 155.43 20.6678 155.791 20.2116Z" fill="#8A84D6"/>
<path d="M161.265 15.7251H159.554V21.5415H158.646V15.7251H157.41V14.9614H158.646V13.8698C158.646 13.2731 158.811 12.8006 159.139 12.4483C159.467 12.098 159.917 11.9229 160.487 11.9229C160.795 11.9229 161.053 11.9534 161.263 12.0145V12.8047C161.017 12.7619 160.799 12.7395 160.605 12.7395C160.237 12.7395 159.97 12.8413 159.803 13.043C159.636 13.2446 159.552 13.5602 159.552 13.99V14.9634H161.263V15.7251H161.265Z" fill="#8A84D6"/>
<path d="M11.534 10.8271C8.98223 13.7394 7.26338 17.3971 6.74609 21.4315L23.9652 15.2729L11.534 10.8271Z" fill="#B6B8DD"/>
<path d="M46.4182 21.4315C45.9009 17.3971 44.182 13.7374 41.6302 10.8271L29.1991 15.2729L46.4182 21.4315Z" fill="#B6B8DD"/>
<path d="M40.288 9.43401C36.7077 6.06555 31.8852 4.00049 26.582 4.00049C21.2788 4.00049 16.4562 6.06555 12.876 9.43605L26.582 14.338L40.288 9.43401Z" fill="#8A84D6"/>
<path d="M6.59319 23.3599C6.58708 23.5717 6.58301 23.7856 6.58301 23.9994C6.58301 31.6202 10.8476 38.2471 17.1181 41.6217L21.2584 18.1138L6.59319 23.3599Z" fill="#8A84D6"/>
<path d="M36.0458 41.6217C42.3184 38.2471 46.5809 31.6202 46.5809 23.9994C46.5809 23.7856 46.5769 23.5717 46.5707 23.3599L31.9055 18.1138L36.0458 41.6217Z" fill="#8A84D6"/>
<path d="M26.5818 16.2095L23.1685 17.4294L18.7695 42.4158C21.1706 43.4362 23.81 44.0003 26.5818 44.0003C29.3535 44.0003 31.9949 43.4362 34.394 42.4158L29.993 17.4294L26.5818 16.2095Z" fill="#1226AA"/>
<path d="M61.977 35.7567L61.2663 33.5715H57.8184L57.1076 35.7567H54.8857L58.2807 26.415H60.8203L64.2152 35.7567H61.977ZM60.7551 32.0074L59.8997 29.4027C59.8285 29.201 59.7653 28.9933 59.7083 28.7774C59.6513 28.5616 59.6004 28.3314 59.5576 28.0871H59.5311C59.4863 28.3335 59.4374 28.5636 59.3804 28.7774C59.3234 28.9933 59.2603 29.201 59.189 29.4027L58.3336 32.0074H60.7551Z" fill="#1226AA"/>
<path d="M65.2681 29.1786H67.2945V30.4413C67.7507 29.4862 68.4777 29.0076 69.4797 29.0076C70.1904 29.0076 70.7261 29.2316 71.0845 29.6776C71.445 30.1256 71.6242 30.7916 71.6242 31.6775V35.7567H69.5184V31.9667C69.5184 31.5105 69.4369 31.1724 69.274 30.9525C69.1111 30.7325 68.8646 30.6226 68.5307 30.6226C68.162 30.6226 67.879 30.759 67.6814 31.0299C67.4839 31.3028 67.3861 31.6918 67.3861 32.2009V35.7526H65.2681V29.1786Z" fill="#1226AA"/>
<path d="M79.3468 32.9402H74.7808C74.789 33.3882 74.9315 33.7426 75.2085 34.0053C75.4855 34.268 75.846 34.4004 76.294 34.4004C76.9437 34.4004 77.4202 34.0929 77.7277 33.4799L79.2796 34.1906C79.0169 34.7344 78.6197 35.158 78.0882 35.4594C77.5567 35.7628 76.9498 35.9135 76.2655 35.9135C75.178 35.9135 74.3247 35.6162 73.7055 35.0195C73.0864 34.4228 72.7769 33.5939 72.7769 32.5329C72.7769 31.8221 72.9133 31.2009 73.1842 30.6714C73.455 30.1399 73.844 29.7326 74.3491 29.4475C74.8542 29.1624 75.4427 29.0198 76.1189 29.0198C77.1534 29.0198 77.9497 29.307 78.5077 29.8813C79.0637 30.4556 79.3427 31.2641 79.3427 32.3088V32.9402H79.3468ZM77.3062 31.704C77.3062 31.2396 77.2003 30.8832 76.9905 30.6389C76.7807 30.3924 76.4773 30.2702 76.0822 30.2702C75.679 30.2702 75.3653 30.4006 75.1413 30.6592C74.9173 30.9179 74.7971 31.2844 74.7788 31.759H77.3041V31.704H77.3062Z" fill="#1226AA"/>
<path d="M81.2612 35.5123C80.695 35.2455 80.2551 34.8525 79.9394 34.3352L81.1634 33.4147C81.6277 34.1254 82.3222 34.4798 83.2427 34.4798C83.5849 34.4798 83.8415 34.4289 84.0125 34.3291C84.1836 34.2293 84.2691 34.0847 84.2691 33.9014C84.2691 33.7079 84.204 33.5654 84.0716 33.4737C83.9392 33.3821 83.6948 33.3088 83.3344 33.2558L82.3874 33.1235C80.9923 32.9137 80.2958 32.2376 80.2958 31.0971C80.2958 30.4576 80.5524 29.9505 81.0656 29.5778C81.5789 29.2051 82.2876 29.0178 83.1898 29.0178C83.8557 29.0178 84.4524 29.1338 84.9799 29.366C85.5053 29.5982 85.9045 29.9159 86.1774 30.3191L85.0858 31.3068C84.5685 30.7183 83.9148 30.425 83.1246 30.425C82.8089 30.425 82.5768 30.4698 82.4281 30.5574C82.2794 30.645 82.2041 30.7814 82.2041 30.9647C82.2041 31.1215 82.2631 31.2478 82.3813 31.3394C82.4994 31.4311 82.699 31.4962 82.98 31.5309L84.151 31.7142C84.8353 31.8099 85.3322 32.0278 85.6438 32.3659C85.9554 32.7039 86.1102 33.1621 86.1102 33.7405C86.1102 34.4167 85.8536 34.9462 85.3404 35.3331C84.8272 35.7201 84.1144 35.9115 83.202 35.9115C82.4729 35.9156 81.8253 35.7812 81.2612 35.5123Z" fill="#1226AA"/>
<path d="M86.6356 29.1786H87.7802V27.6003L89.886 26.7837V29.1786H91.4521V30.5859H89.886V33.152C89.886 33.8179 90.2057 34.1519 90.8472 34.1519C91.0305 34.1519 91.2321 34.1295 91.4521 34.0867V35.7588C90.9877 35.8463 90.5886 35.8911 90.2546 35.8911C89.4033 35.8911 88.7781 35.7017 88.3789 35.325C87.9797 34.9482 87.7802 34.3902 87.7802 33.653V30.5879H86.6356V29.1786Z" fill="#1226AA"/>
<path d="M106.806 32.9402H102.24C102.248 33.3882 102.39 33.7426 102.667 34.0053C102.944 34.268 103.305 34.4004 103.753 34.4004C104.403 34.4004 104.879 34.0929 105.187 33.4799L106.738 34.1906C106.476 34.7344 106.079 35.158 105.547 35.4594C105.016 35.7628 104.409 35.9135 103.724 35.9135C102.637 35.9135 101.784 35.6162 101.164 35.0195C100.545 34.4228 100.238 33.5939 100.238 32.5329C100.238 31.8221 100.374 31.2009 100.645 30.6714C100.916 30.1399 101.305 29.7326 101.81 29.4475C102.315 29.1624 102.904 29.0198 103.58 29.0198C104.614 29.0198 105.411 29.307 105.969 29.8813C106.525 30.4556 106.804 31.2641 106.804 32.3088V32.9402H106.806ZM104.767 31.704C104.767 31.2396 104.661 30.8832 104.451 30.6389C104.242 30.3924 103.938 30.2702 103.543 30.2702C103.14 30.2702 102.826 30.4006 102.602 30.6592C102.378 30.9179 102.258 31.2844 102.24 31.759H104.765V31.704H104.767Z" fill="#1226AA"/>
<path d="M108.72 35.5123C108.154 35.2455 107.714 34.8525 107.398 34.3352L108.622 33.4147C109.087 34.1254 109.781 34.4798 110.702 34.4798C111.044 34.4798 111.3 34.4289 111.471 34.3291C111.642 34.2293 111.728 34.0847 111.728 33.9014C111.728 33.7079 111.663 33.5654 111.53 33.4737C111.398 33.3821 111.154 33.3088 110.793 33.2558L109.846 33.1235C108.451 32.9137 107.755 32.2376 107.755 31.0971C107.755 30.4576 108.011 29.9505 108.525 29.5778C109.038 29.2051 109.746 29.0178 110.649 29.0178C111.315 29.0178 111.911 29.1338 112.439 29.366C112.964 29.5982 113.363 29.9159 113.636 30.3191L112.545 31.3068C112.027 30.7183 111.374 30.425 110.583 30.425C110.268 30.425 110.036 30.4698 109.887 30.5574C109.738 30.645 109.663 30.7814 109.663 30.9647C109.663 31.1215 109.722 31.2478 109.84 31.3394C109.958 31.4311 110.158 31.4962 110.439 31.5309L111.61 31.7142C112.294 31.8099 112.791 32.0278 113.103 32.3659C113.414 32.7039 113.569 33.1621 113.569 33.7405C113.569 34.4167 113.312 34.9462 112.799 35.3331C112.286 35.7201 111.573 35.9115 110.661 35.9115C109.934 35.9156 109.286 35.7812 108.72 35.5123Z" fill="#1226AA"/>
<path d="M119.799 35.5123C119.286 35.2455 118.882 34.8525 118.589 34.3352C118.296 33.8179 118.149 33.1907 118.149 32.4534C118.149 31.7162 118.296 31.091 118.589 30.5778C118.882 30.0645 119.286 29.6756 119.799 29.4129C120.312 29.1501 120.897 29.0178 121.554 29.0178C122.212 29.0178 122.801 29.1501 123.318 29.4129C123.835 29.6756 124.241 30.0645 124.536 30.5778C124.829 31.091 124.976 31.7162 124.976 32.4534C124.976 33.1907 124.829 33.8179 124.536 34.3352C124.243 34.8525 123.835 35.2455 123.318 35.5123C122.801 35.7791 122.212 35.9135 121.554 35.9135C120.897 35.9135 120.312 35.7812 119.799 35.5123ZM122.53 33.9483C122.758 33.6102 122.872 33.1133 122.872 32.4555C122.872 31.7895 122.758 31.2926 122.53 30.9688C122.302 30.645 121.978 30.482 121.556 30.482C121.135 30.482 120.813 30.645 120.589 30.9688C120.365 31.2926 120.253 31.7895 120.253 32.4555C120.253 33.1133 120.367 33.6122 120.595 33.9483C120.823 34.2863 121.143 34.4554 121.556 34.4554C121.976 34.4533 122.302 34.2843 122.53 33.9483Z" fill="#1226AA"/>
<path d="M131.405 35.5123C130.892 35.2455 130.489 34.8525 130.195 34.3352C129.902 33.8179 129.756 33.1907 129.756 32.4534C129.756 31.7162 129.902 31.091 130.195 30.5778C130.489 30.0645 130.892 29.6756 131.405 29.4129C131.918 29.1501 132.503 29.0178 133.161 29.0178C133.819 29.0178 134.407 29.1501 134.924 29.4129C135.442 29.6756 135.847 30.0645 136.142 30.5778C136.435 31.091 136.582 31.7162 136.582 32.4534C136.582 33.1907 136.435 33.8179 136.142 34.3352C135.849 34.8525 135.442 35.2455 134.924 35.5123C134.407 35.7791 133.819 35.9135 133.161 35.9135C132.503 35.9135 131.916 35.7812 131.405 35.5123ZM134.134 33.9483C134.362 33.6102 134.476 33.1133 134.476 32.4555C134.476 31.7895 134.362 31.2926 134.134 30.9688C133.906 30.645 133.582 30.482 133.161 30.482C132.739 30.482 132.417 30.645 132.193 30.9688C131.969 31.2926 131.857 31.7895 131.857 32.4555C131.857 33.1133 131.971 33.6122 132.199 33.9483C132.428 34.2863 132.747 34.4554 133.161 34.4554C133.582 34.4533 133.906 34.2843 134.134 33.9483Z" fill="#1226AA"/>
<path d="M143.635 29.4149C143.274 29.4149 142.989 29.4943 142.779 29.6511C143.288 30.0462 143.543 30.5676 143.543 31.2172C143.543 31.8934 143.274 32.4351 142.735 32.8424C142.195 33.2497 141.464 33.4534 140.543 33.4534C140.034 33.4534 139.582 33.3882 139.189 33.2558C139.057 33.3434 138.991 33.4615 138.991 33.6102C138.991 33.9707 139.295 34.1499 139.9 34.1499H141.743C142.541 34.1499 143.144 34.3128 143.551 34.6366C143.959 34.9604 144.162 35.439 144.162 36.0703C144.162 36.8341 143.834 37.4247 143.183 37.8462C142.529 38.2678 141.592 38.4776 140.374 38.4776C139.313 38.4776 138.509 38.335 137.959 38.0499C137.411 37.7648 137.136 37.3819 137.136 36.8992C137.136 36.6365 137.232 36.4003 137.425 36.1946C137.619 35.9889 137.9 35.828 138.266 35.714C137.67 35.4777 137.372 35.0643 137.372 34.4778C137.372 34.1275 137.476 33.824 137.682 33.5695C137.888 33.3149 138.179 33.1173 138.558 32.9768C138.224 32.7752 137.969 32.5247 137.794 32.2274C137.619 31.93 137.531 31.592 137.531 31.2152C137.531 30.5492 137.802 30.0157 138.348 29.6165C138.892 29.2173 139.625 29.0178 140.545 29.0178C141.115 29.0178 141.621 29.0972 142.058 29.254C142.172 28.8772 142.392 28.584 142.716 28.3722C143.04 28.1604 143.458 28.0565 143.967 28.0565C144.081 28.0565 144.172 28.0606 144.244 28.0687V29.476C143.993 29.4373 143.792 29.4149 143.635 29.4149ZM139.437 35.9013C139.315 35.9013 139.156 35.8932 138.963 35.8748C138.788 36.0418 138.7 36.2475 138.7 36.494C138.7 37.0459 139.287 37.3228 140.464 37.3228C141.753 37.3228 142.399 37.0642 142.399 36.5469C142.399 36.1253 142.105 35.9156 141.517 35.9156L139.437 35.9013ZM141.272 32.0522C141.462 31.8363 141.555 31.5594 141.555 31.2172C141.555 30.8832 141.464 30.6144 141.278 30.4087C141.095 30.203 140.849 30.0992 140.541 30.0992C140.234 30.0992 139.987 30.203 139.798 30.4087C139.608 30.6144 139.515 30.8853 139.515 31.2172C139.515 31.5594 139.608 31.8384 139.798 32.0522C139.987 32.2681 140.234 32.374 140.541 32.374C140.841 32.376 141.083 32.2681 141.272 32.0522Z" fill="#1226AA"/>
<path d="M149.773 35.5123C149.207 35.2455 148.767 34.8525 148.451 34.3352L149.675 33.4147C150.139 34.1254 150.834 34.4798 151.754 34.4798C152.097 34.4798 152.353 34.4289 152.524 34.3291C152.695 34.2293 152.781 34.0847 152.781 33.9014C152.781 33.7079 152.716 33.5654 152.583 33.4737C152.451 33.3821 152.207 33.3088 151.846 33.2558L150.899 33.1235C149.504 32.9137 148.808 32.2376 148.808 31.0971C148.808 30.4576 149.064 29.9505 149.577 29.5778C150.091 29.2051 150.799 29.0178 151.701 29.0178C152.367 29.0178 152.964 29.1338 153.492 29.366C154.017 29.5982 154.416 29.9159 154.689 30.3191L153.598 31.3068C153.08 30.7183 152.426 30.425 151.636 30.425C151.321 30.425 151.088 30.4698 150.94 30.5574C150.791 30.645 150.716 30.7814 150.716 30.9647C150.716 31.1215 150.775 31.2478 150.893 31.3394C151.011 31.4311 151.211 31.4962 151.492 31.5309L152.663 31.7142C153.347 31.8099 153.844 32.0278 154.156 32.3659C154.467 32.7039 154.622 33.1621 154.622 33.7405C154.622 34.4167 154.365 34.9462 153.852 35.3331C153.339 35.7201 152.626 35.9115 151.714 35.9115C150.985 35.9156 150.339 35.7812 149.773 35.5123Z" fill="#1226AA"/>
<path d="M155.147 29.1786H156.292V27.6003L158.398 26.7837V29.1786H159.964V30.5859H158.398V33.152C158.398 33.8179 158.717 34.1519 159.359 34.1519C159.542 34.1519 159.744 34.1295 159.964 34.0867V35.7588C159.499 35.8463 159.1 35.8911 158.766 35.8911C157.915 35.8911 157.29 35.7017 156.891 35.325C156.491 34.9482 156.292 34.3902 156.292 33.653V30.5879H155.147V29.1786Z" fill="#1226AA"/>
<path d="M161.864 35.5123C161.298 35.2455 160.858 34.8525 160.542 34.3352L161.766 33.4147C162.23 34.1254 162.925 34.4798 163.845 34.4798C164.188 34.4798 164.444 34.4289 164.615 34.3291C164.786 34.2293 164.872 34.0847 164.872 33.9014C164.872 33.7079 164.807 33.5654 164.674 33.4737C164.542 33.3821 164.298 33.3088 163.937 33.2558L162.99 33.1235C161.595 32.9137 160.899 32.2376 160.899 31.0971C160.899 30.4576 161.155 29.9505 161.668 29.5778C162.182 29.2051 162.89 29.0178 163.793 29.0178C164.458 29.0178 165.055 29.1338 165.583 29.366C166.108 29.5982 166.507 29.9159 166.78 30.3191L165.689 31.3068C165.171 30.7183 164.518 30.425 163.727 30.425C163.412 30.425 163.18 30.4698 163.031 30.5574C162.882 30.645 162.807 30.7814 162.807 30.9647C162.807 31.1215 162.866 31.2478 162.984 31.3394C163.102 31.4311 163.302 31.4962 163.583 31.5309L164.754 31.7142C165.438 31.8099 165.935 32.0278 166.247 32.3659C166.558 32.7039 166.713 33.1621 166.713 33.7405C166.713 34.4167 166.456 34.9462 165.943 35.3331C165.43 35.7201 164.717 35.9115 163.805 35.9115C163.076 35.9156 162.43 35.7812 161.864 35.5123Z" fill="#1226AA"/>
<path d="M92.727 26.4212H94.845V30.3497C95.2482 29.4454 95.9467 28.9954 96.9365 28.9954C97.6473 28.9954 98.1829 29.2194 98.5413 29.6654C98.9018 30.1134 99.081 30.7794 99.081 31.6653V35.7567H96.9752V31.875C96.9752 31.0339 96.6514 30.6124 96.0017 30.6124C95.625 30.6124 95.3378 30.7509 95.1403 31.0278C94.9427 31.3048 94.845 31.7019 94.845 32.2192V35.7588H92.727V26.4212Z" fill="#1226AA"/>
<path d="M114.74 28.2296V26.4191H116.938V28.2296H114.74ZM114.767 35.7567V29.1786H116.885V35.7567H114.767Z" fill="#1226AA"/>
<path d="M128.424 26.4212V35.7567H126.306V26.4212H128.424Z" fill="#1226AA"/>
<path d="M145.24 28.2296V26.4191H147.437V28.2296H145.24ZM145.266 35.7567V29.1786H147.384V35.7567H145.266Z" fill="#1226AA"/>
<path d="M169.417 27.4659C169.417 28.2154 168.861 28.6838 168.204 28.6838C167.544 28.6838 166.986 28.2154 166.986 27.4659C166.986 26.7144 167.542 26.248 168.204 26.248C168.861 26.2501 169.417 26.7144 169.417 27.4659ZM169.195 27.4659C169.195 26.8305 168.741 26.4415 168.204 26.4415C167.664 26.4415 167.21 26.8305 167.21 27.4659C167.21 28.0972 167.664 28.4903 168.204 28.4903C168.741 28.4903 169.195 28.0972 169.195 27.4659ZM168.511 27.5738L168.815 28.1196H168.448L168.183 27.6125H168.037V28.1196H167.703V26.7877H168.281C168.599 26.7877 168.774 26.9405 168.774 27.2093C168.776 27.3804 168.678 27.5148 168.511 27.5738ZM168.037 27.3844H168.22C168.354 27.3844 168.432 27.3233 168.432 27.2113C168.432 27.0932 168.36 27.0342 168.22 27.0342H168.037V27.3844Z" fill="#1226AA"/>
</svg>
