<svg width="160" height="48" viewBox="0 0 160 48" fill="none" xmlns="http://www.w3.org/2000/svg">
<path d="M48.3181 14.9666C40.2602 14.9666 33.6675 21.5594 33.6675 29.6172C33.6675 37.6751 40.2602 44.2678 48.3181 44.2678C56.3759 44.2678 62.9687 37.6751 62.9687 29.6172C62.9687 21.5594 56.3759 14.9666 48.3181 14.9666ZM55.4602 29.4341C55.4602 33.463 52.347 36.7594 48.5012 36.7594C44.6554 36.7594 41.5422 33.463 41.5422 29.4341C41.5422 25.4052 44.6554 22.1088 48.5012 22.1088C52.347 22.1088 55.4602 25.4052 55.4602 29.4341ZM99.5952 15.516C99.412 15.3329 99.2289 15.3329 99.0458 15.3329H93.1855C92.8193 15.3329 92.453 15.6992 92.453 16.0654V42.6196C92.453 42.8028 92.453 42.9859 92.6361 43.169C92.8193 43.3522 93.0024 43.3522 93.1855 43.3522H99.0458C99.412 43.3522 99.7783 42.9859 99.7783 42.6196V16.0654C99.7783 15.8823 99.7783 15.6992 99.5952 15.516ZM96.1157 11.8534C98.3133 11.8534 100.145 10.0221 100.145 7.82446C100.328 5.62687 98.3133 3.79555 96.1157 3.79555C93.9181 3.79555 92.0867 5.62687 92.0867 7.82446C92.0867 10.2052 93.9181 11.8534 96.1157 11.8534ZM88.241 4.34494H66.8145C66.4482 4.34494 66.0819 4.71121 66.0819 5.07747V42.6196C66.0819 42.8028 66.0819 42.9859 66.2651 43.169C66.4482 43.3522 66.6313 43.3522 66.8145 43.3522H72.6747C73.041 43.3522 73.4072 42.9859 73.4072 42.6196V27.4196H86.5928C86.7759 27.4196 86.959 27.4196 87.1422 27.2365C87.3253 27.0534 87.3253 26.8702 87.3253 26.6871V21.1931C87.3253 20.8269 86.959 20.4606 86.5928 20.4606H73.4072V11.304H88.241C88.4241 11.304 88.6072 11.304 88.7904 11.1208C88.9735 10.9377 88.9735 10.7546 88.9735 10.5715V5.07747C88.9735 4.71121 88.6072 4.34494 88.241 4.34494ZM19.9325 20.6437C14.0723 18.0799 12.241 16.9811 12.241 14.7835C12.241 11.8534 14.988 10.9377 17.5518 10.9377C20.2988 10.9377 23.2289 12.4028 23.2289 16.4317C23.2289 16.798 23.412 16.9811 23.7783 16.9811H30.188C30.3711 16.798 30.5542 16.6148 30.5542 16.4317C30.5542 9.10639 25.2434 3.79555 17.5518 3.79555C9.86024 3.79555 4.91566 8.19073 4.91566 14.7835C4.91566 22.6582 10.7759 25.0389 16.453 27.2365L16.8193 27.4196C22.1301 29.4341 23.9614 30.3498 23.9614 32.9136C23.9614 36.3931 20.2988 36.9425 18.2843 36.9425C14.4386 36.9425 11.5084 34.1955 11.5084 30.5329V30.1666C11.5084 29.8004 11.3253 29.6172 10.959 29.6172H4.5494C4.36627 29.6172 4 29.8004 4 30.1666V30.716C4 38.7739 9.86024 44.2678 18.1012 44.2678C25.9759 44.2678 31.2867 39.6895 31.2867 33.0968C31.4699 26.3208 27.9904 23.9401 19.9325 20.6437ZM156 42.2534C156 43.3522 155.267 44.0847 154.169 44.0847C153.07 44.0847 152.337 43.3522 152.337 42.2534C152.337 41.1546 153.07 40.4221 154.169 40.4221C155.267 40.4221 156 41.1546 156 42.2534ZM152.704 42.2534C152.704 43.169 153.253 43.7184 154.169 43.7184C155.084 43.7184 155.634 43.169 155.634 42.2534C155.634 41.3377 155.084 40.7883 154.169 40.7883C153.253 40.7883 152.704 41.3377 152.704 42.2534ZM154.901 41.8871C154.901 42.0702 154.718 42.2534 154.535 42.4365L154.901 43.169H154.352L153.986 42.4365H153.802V43.169H153.436V41.3377H154.169C154.535 41.3377 154.901 41.5209 154.901 41.8871ZM153.986 41.704V42.2534H154.169C154.352 42.2534 154.535 42.0702 154.535 42.0702C154.535 41.8871 154.352 41.8871 154.169 41.8871H153.986V41.704ZM146.477 5.44374C149.041 5.44374 151.055 7.4582 151.055 10.0221C151.055 12.5859 149.041 14.6004 146.477 14.6004C143.913 14.6004 141.899 12.5859 141.899 10.0221C141.899 7.4582 143.913 5.44374 146.477 5.44374ZM146.477 3.79555C142.998 3.79555 140.067 6.72567 140.067 10.2052C140.067 13.6847 142.998 16.6148 146.477 16.6148C149.957 16.6148 152.887 13.6847 152.887 10.2052C152.887 6.72567 149.957 3.79555 146.477 3.79555Z" fill="#00A2C7"/>
<path d="M149.529 29.5551C152.639 27.8639 153.789 23.9719 152.097 20.862C150.406 17.7522 146.514 16.6021 143.404 18.2933C140.295 19.9845 139.144 23.8765 140.836 26.9863C142.527 30.0962 146.419 31.2462 149.529 29.5551Z" fill="#00A2C7"/>
<path d="M149.52 43.2905C152.629 41.5993 153.779 37.7073 152.088 34.5974C150.397 31.4876 146.505 30.3375 143.395 32.0287C140.285 33.7199 139.135 37.6119 140.826 40.7217C142.518 43.8316 146.41 44.9816 149.52 43.2905Z" fill="#00A2C7"/>
<path d="M132.742 19.3618C134.024 19.3618 135.123 19.9112 136.039 20.6437C136.954 21.5594 137.32 22.6582 137.32 23.9401C137.32 26.504 135.306 28.5184 132.742 28.5184C131.46 28.5184 130.361 27.969 129.446 27.2365C128.53 26.3208 128.164 25.2221 128.164 23.9401C127.981 21.3763 130.178 19.3618 132.742 19.3618ZM132.742 17.5305C129.263 17.5305 126.333 20.4606 126.333 23.9401C126.333 27.4196 129.263 30.3498 132.742 30.3498C136.222 30.3498 139.152 27.4196 139.152 23.9401C139.152 20.4606 136.222 17.5305 132.742 17.5305Z" fill="#00A2C7"/>
<path d="M124.825 26.485C126.259 23.2484 124.797 19.4623 121.56 18.0287C118.324 16.5951 114.538 18.0568 113.104 21.2934C111.67 24.5301 113.132 28.3161 116.369 29.7497C119.605 31.1833 123.391 29.7217 124.825 26.485Z" fill="#00A2C7"/>
<path d="M138.588 12.7559C140.021 9.51926 138.56 5.73326 135.323 4.29964C132.086 2.86603 128.3 4.32769 126.867 7.56435C125.433 10.801 126.895 14.587 130.131 16.0206C133.368 17.4542 137.154 15.9926 138.588 12.7559Z" fill="#00A2C7"/>
<path d="M124.842 12.7392C126.275 9.50252 124.814 5.71651 121.577 4.2829C118.34 2.84929 114.554 4.31094 113.121 7.5476C111.687 10.7843 113.149 14.5703 116.386 16.0039C119.622 17.4375 123.408 15.9758 124.842 12.7392Z" fill="#00A2C7"/>
<path d="M138.554 40.2476C139.988 37.0109 138.526 33.2249 135.289 31.7913C132.053 30.3577 128.267 31.8194 126.833 35.056C125.4 38.2927 126.861 42.0787 130.098 43.5123C133.335 44.9459 137.121 43.4843 138.554 40.2476Z" fill="#00A2C7"/>
<path d="M119.007 33.0968C120.289 33.0968 121.388 33.6461 122.304 34.3787C123.219 35.2943 123.586 36.3931 123.586 37.6751C123.586 40.2389 121.571 42.2534 119.007 42.2534C116.443 42.2534 114.429 40.2389 114.429 37.6751C114.246 35.1112 116.443 33.0968 119.007 33.0968ZM119.007 31.2654C115.528 31.2654 112.598 34.1955 112.598 37.6751C112.598 41.1546 115.528 44.0847 119.007 44.0847C122.487 44.0847 125.417 41.1546 125.417 37.6751C125.417 34.1955 122.487 31.2654 119.007 31.2654Z" fill="#00A2C7"/>
</svg>
