<svg width="160" height="120" viewBox="0 0 160 120" fill="none" xmlns="http://www.w3.org/2000/svg">
<path d="M154.939 112.419C154.939 114.05 153.742 115.144 152.324 115.144V115.134C150.866 115.144 149.691 114.05 149.691 112.419C149.691 110.789 150.866 109.698 152.324 109.698C153.742 109.697 154.939 110.789 154.939 112.419ZM156 112.419C156 110.18 154.261 108.881 152.324 108.881C150.373 108.881 148.634 110.18 148.634 112.419C148.634 114.656 150.373 115.96 152.324 115.96C154.261 115.96 156 114.656 156 112.419ZM151.714 112.718H152.108L153.02 114.319H154.021L153.011 112.651C153.533 112.613 153.962 112.365 153.962 111.662C153.962 110.789 153.36 110.508 152.34 110.508H150.865V114.319H151.713L151.714 112.718ZM151.714 112.073V111.155H152.304C152.625 111.155 153.062 111.181 153.062 111.573C153.062 111.998 152.836 112.073 152.458 112.073H151.714ZM131.244 92.9216L135.827 105.46H126.519L131.244 92.9216ZM126.335 88.0393L115.773 114.801H123.231L124.902 110.072H137.402L138.983 114.801H147.08L136.438 88.0358L126.335 88.0393ZM105.129 114.811H112.696V88.0311L105.128 88.0293L105.129 114.811ZM52.5971 88.0293L46.2837 109.255L40.2359 88.0311L32.0711 88.0293L40.7086 114.811H51.6102L60.3173 88.0293H52.5971ZM83.1844 93.8609H86.437C91.155 93.8609 94.207 95.9792 94.207 101.477C94.207 106.975 91.155 109.093 86.437 109.093H83.1844V93.8609ZM75.6808 88.0293V114.811H87.9481C94.4842 114.811 96.619 113.725 98.9267 111.288C100.557 109.576 101.611 105.82 101.611 101.715C101.611 97.9496 100.719 94.5927 99.1633 92.5012C96.3608 88.7611 92.3231 88.0293 86.2969 88.0293H75.6808ZM4 87.9922V114.811H11.6311V94.4474L17.544 94.4491C19.5019 94.4491 20.8975 94.9374 21.8403 95.9442C23.0361 97.2179 23.5244 99.2739 23.5244 103.035V114.811H30.919V99.9935C30.919 89.418 24.1783 87.9922 17.583 87.9922H4ZM63.5021 88.0293L63.5051 114.811H71.0688V88.0293H63.5021Z" fill="black"/>
<path d="M24.3364 34.7039C24.3364 34.7039 34.069 20.3443 53.5016 18.8587V13.649C31.9775 15.3776 13.3384 33.6076 13.3384 33.6076C13.3384 33.6076 23.8953 64.1252 53.5016 66.9199V61.3824C31.7751 58.6492 24.3364 34.7039 24.3364 34.7039ZM53.5016 50.3697V55.4414C37.0812 52.5135 32.5233 35.4448 32.5233 35.4448C32.5233 35.4448 40.4074 26.7108 53.5016 25.2944V30.8592C53.4917 30.8592 53.4848 30.8562 53.4766 30.8562C46.604 30.0314 41.2352 36.4516 41.2352 36.4516C41.2352 36.4516 44.2444 47.2593 53.5016 50.3697ZM53.5016 4.04013V13.649C54.1335 13.6006 54.7654 13.5595 55.4007 13.5379C79.8713 12.7131 95.8156 33.6076 95.8156 33.6076C95.8156 33.6076 77.5031 55.8752 58.4246 55.8752C56.6761 55.8752 55.0391 55.713 53.5016 55.4406V61.3824C54.8615 61.5572 56.231 61.6456 57.602 61.6471C75.3558 61.6471 88.1949 52.5801 100.627 41.849C102.688 43.4998 111.127 47.5158 112.861 49.2734C101.041 59.1703 73.4922 67.1479 57.874 67.1479C56.3686 67.1479 54.9228 67.0566 53.5016 66.9195V75.269H120.983V4.04013H53.5016ZM53.5016 25.294V18.8591C54.127 18.8154 54.7571 18.7817 55.4007 18.7614C72.9975 18.2087 84.5422 33.8831 84.5422 33.8831C84.5422 33.8831 72.0728 51.2005 58.7031 51.2005C56.779 51.2005 55.0538 50.8913 53.5012 50.3693V30.8588C60.3517 31.6865 61.7305 34.7126 65.849 41.5782L75.0094 33.8545C75.0094 33.8545 68.3228 25.0851 57.051 25.0851C55.8254 25.0847 54.6529 25.1707 53.5016 25.294Z" fill="#77B900"/>
</svg>
