<svg width="160" height="56" viewBox="0 0 160 56" fill="none" xmlns="http://www.w3.org/2000/svg">
<path d="M25.6418 39.7694C24.1841 36.9004 22.4741 34.0025 19.1384 34.0025C18.5008 34.0025 17.8639 34.1081 17.2795 34.3749L16.1463 32.107C17.5272 30.9222 19.7586 29.9828 22.6268 29.9828C27.0888 29.9828 29.3787 32.1321 31.1966 34.8757C32.2758 32.5334 32.7888 29.3703 32.7888 25.4494C32.7888 15.6584 29.7268 10.631 22.5744 10.631C15.5262 10.631 12.4808 15.6584 12.4808 25.4494C12.4808 35.1888 15.5262 40.1646 22.5744 40.1646C23.6946 40.1646 24.7092 40.0414 25.6418 39.7694ZM27.389 43.1863C25.8439 43.6005 24.2023 43.8293 22.5744 43.8293C13.1892 43.8293 4 36.3402 4 25.4494C4 14.4553 13.1892 6.96472 22.5744 6.96472C32.117 6.96472 41.218 14.4013 41.218 25.4494C41.218 31.5948 38.3505 36.5888 34.1826 39.8165C35.5294 41.8343 36.9156 43.1742 38.846 43.1742C40.9527 43.1742 41.8024 41.5462 41.9445 40.2694H44.6881C44.8485 41.9696 43.998 49.0353 36.3304 49.0353C31.686 49.0353 29.2305 46.3434 27.389 43.1863ZM47.2516 33.8436V21.2535C47.2516 19.8194 46.7219 19.1825 45.075 19.1825H43.3216V15.837H54.7771V33.6848C54.7771 36.6936 56.4058 38.0206 58.8857 38.0206C60.921 38.0206 62.957 37.12 64.0552 35.0642V21.2535C64.0552 19.8194 63.524 19.1825 61.8778 19.1825H60.0188V15.837H71.5815V34.5322C71.5815 36.3942 72.2716 37.2431 74.3958 37.2431H74.7682V40.6958L64.4276 42.342V38.7836H64.2148C62.2145 41.2255 59.3994 42.8732 55.3798 42.8732C50.8646 42.8732 47.2516 40.5902 47.2516 33.8436ZM89.8078 39.5277C93.8806 39.5277 95.428 35.9846 95.5093 28.8504C95.5884 21.8721 93.8806 18.4939 89.8078 18.4939C86.2495 18.4939 84.0181 21.8736 84.0181 28.8504C84.0181 35.9861 86.213 39.5277 89.8078 39.5277ZM89.8078 42.8732C82.4426 42.8732 75.801 37.2416 75.801 28.8504C75.801 20.6166 82.2823 15.1454 89.8078 15.1454C97.6518 15.1454 103.938 20.7215 103.938 28.8504C103.938 37.2416 97.6518 42.8732 89.8078 42.8732ZM104.175 42.342V38.9957H105.291C108.053 38.9957 108.318 38.1992 108.318 35.809V21.2535C108.318 19.8194 107.575 19.1825 105.876 19.1825H104.388V15.837H114.887L115.418 21.3082H115.632C116.801 17.376 119.934 15.3042 122.872 15.3042C125.298 15.3042 127.192 16.6859 127.192 19.4842C127.192 21.4313 126.256 23.5038 123.635 23.5038C121.279 23.5038 120.82 21.9094 118.871 21.9094C117.137 21.9094 115.79 23.557 115.79 25.9814V35.809C115.79 38.1992 116.375 38.9957 119.085 38.9957H120.624V42.342H104.175ZM139.126 38.447C142.473 38.447 143.853 35.2778 143.853 32.0926V27.8412C141.41 30.372 135.725 30.4609 135.725 34.976C135.725 37.1892 137.037 38.447 139.126 38.447ZM144.013 38.4287C142.632 41.0842 139.798 42.8732 135.833 42.8732C131.229 42.8732 128.255 40.4283 128.255 36.1267C128.255 27.4703 140.312 29.7708 143.853 24.0351V23.4142C143.853 19.0062 142.118 18.3161 140.206 18.3161C134.841 18.3161 137.283 24.0852 132.343 24.0852C129.972 24.0852 129.05 22.6534 129.05 21.0422C129.05 17.7841 132.946 15.1454 140.26 15.1454C147.181 15.1454 151.432 17.0583 151.432 23.9462V34.9411C151.432 36.6404 152.052 37.5623 153.539 37.5623C154.176 37.5623 154.707 37.3852 155.114 37.1018L156 39.2602C155.273 40.3766 153.343 42.342 149.678 42.342C146.492 42.342 144.491 40.8546 144.225 38.4287H144.013Z" fill="#B92B27"/>
</svg>
