<svg width="232" height="48" viewBox="0 0 232 48" fill="none" xmlns="http://www.w3.org/2000/svg">
<path fill-rule="evenodd" clip-rule="evenodd" d="M72.8237 35.3073C71.1106 35.3073 69.4358 34.7473 67.8 33.6277C66.1637 32.5073 65.093 30.9371 64.5879 28.9166L67.3553 27.7966C67.6846 29.0929 68.36 30.185 69.3809 31.0743C70.4023 31.964 71.5497 32.4087 72.8237 32.4087C74.1413 32.4087 75.2664 32.0626 76.1999 31.371C77.1334 30.6789 77.6004 29.7399 77.6004 28.5538C77.6004 27.2362 77.1334 26.2208 76.1999 25.5069C75.2664 24.7934 73.7897 24.1287 71.7692 23.5138C69.6827 22.8552 68.1014 22.0041 67.0255 20.9608C65.9493 19.9181 65.4116 18.5836 65.4116 16.9581C65.4116 15.2674 66.0809 13.7958 67.4209 12.5441C68.7604 11.2921 70.5065 10.666 72.659 10.666C74.6571 10.666 76.2827 11.166 77.5343 12.1651C78.7859 13.1651 79.5985 14.2572 79.972 15.4432L77.205 16.5962C77.0074 15.8497 76.5181 15.1576 75.739 14.5204C74.959 13.8837 73.9544 13.5651 72.7246 13.5651C71.5604 13.5651 70.5669 13.8897 69.7432 14.5372C68.92 15.1851 68.5083 15.992 68.5083 16.9581C68.5083 17.8367 68.8869 18.5781 69.6446 19.1818C70.4023 19.786 71.5167 20.3297 72.9883 20.8125C74.152 21.1864 75.1236 21.5487 75.9036 21.8994C76.6827 22.2511 77.4739 22.718 78.2757 23.2999C79.0771 23.8818 79.6808 24.6069 80.0873 25.4738C80.4934 26.3417 80.6966 27.3469 80.6966 28.4882C80.6966 29.6306 80.4604 30.6515 79.9887 31.5519C79.5162 32.4529 78.8901 33.1659 78.1111 33.6933C77.3311 34.2203 76.4911 34.6212 75.5906 34.8956C74.6902 35.1701 73.7674 35.3073 72.8237 35.3073Z" fill="#6F6F6F"/>
<path fill-rule="evenodd" clip-rule="evenodd" d="M90.0194 35.0438C88.3283 35.0438 87.038 34.5941 86.1487 33.6936C85.2594 32.7931 84.8148 31.5192 84.8148 29.8722V21.4058H81.9813V18.6383H84.8148V13.697H87.8455V18.6383H91.7985V21.4058H87.8455V29.6415C87.8455 31.3987 88.5701 32.2769 90.0194 32.2769C90.5683 32.2769 91.0292 32.189 91.4031 32.0131L92.4571 34.6155C91.7985 34.9006 90.9855 35.0438 90.0194 35.0438Z" fill="#6F6F6F"/>
<path fill-rule="evenodd" clip-rule="evenodd" d="M99.9678 32.5402C101.219 32.5402 102.356 32.0737 103.378 31.1402C104.399 30.2067 104.909 29.1035 104.909 27.8295C104.053 27.1268 102.768 26.7751 101.055 26.7751C99.5832 26.7751 98.4743 27.0937 97.7278 27.7305C96.9809 28.3677 96.6078 29.1142 96.6078 29.9709C96.6078 30.7616 96.9478 31.3872 97.6288 31.8486C98.3092 32.31 99.0892 32.5402 99.9678 32.5402ZM99.4739 35.3072C97.7604 35.3072 96.3279 34.8137 95.1748 33.8253C94.0218 32.837 93.4451 31.5305 93.4451 29.9049C93.4451 28.1481 94.1255 26.77 95.4879 25.7705C96.8492 24.7714 98.5292 24.2714 100.528 24.2714C102.307 24.2714 103.767 24.6012 104.909 25.2598V24.7984C104.909 23.6128 104.503 22.6631 103.69 21.9491C102.878 21.2356 101.879 20.8784 100.692 20.8784C99.8139 20.8784 99.0176 21.0873 98.3041 21.5045C97.5902 21.9217 97.1018 22.4924 96.8381 23.2175L94.0711 22.0314C94.4446 21.0654 95.1799 20.1701 96.2781 19.3468C97.3762 18.5231 98.8255 18.1115 100.627 18.1115C102.691 18.1115 104.404 18.7156 105.765 19.9231C107.127 21.131 107.808 22.8333 107.808 25.0291V34.7802H104.909V32.5402H104.778C103.569 34.3853 101.801 35.3072 99.4739 35.3072Z" fill="#6F6F6F"/>
<path fill-rule="evenodd" clip-rule="evenodd" d="M118.449 35.3073C116.032 35.3073 114.045 34.4896 112.486 32.8533C110.926 31.2175 110.147 29.1696 110.147 26.7092C110.147 24.2501 110.926 22.2018 112.486 20.5655C114.045 18.9297 116.032 18.1111 118.449 18.1111C120.249 18.1111 121.743 18.5511 122.929 19.4288C124.115 20.3074 124.982 21.4167 125.531 22.7562L122.764 23.9092C121.929 21.8887 120.425 20.8785 118.251 20.8785C116.911 20.8785 115.731 21.4278 114.71 22.5255C113.689 23.6241 113.177 25.0185 113.177 26.7092C113.177 28.4008 113.689 29.7952 114.71 30.8933C115.731 31.9915 116.911 32.5403 118.251 32.5403C120.512 32.5403 122.072 31.5305 122.929 29.5096L125.63 30.6626C125.081 31.9803 124.197 33.084 122.978 33.9733C121.759 34.8626 120.249 35.3073 118.449 35.3073Z" fill="#6F6F6F"/>
<path fill-rule="evenodd" clip-rule="evenodd" d="M131.296 11.1934V25.7207L138.28 18.6384H142.167V18.7701L135.875 25.0621L142.463 34.6486V34.7802H138.807L133.733 27.1705L131.296 29.6081V34.7802H128.265V11.1934H131.296Z" fill="#6F6F6F"/>
<path fill-rule="evenodd" clip-rule="evenodd" d="M150.929 32.5402C152.356 32.5402 153.57 32.0132 154.569 30.9593C155.568 29.9049 156.068 28.4881 156.068 26.7091C156.068 24.9305 155.568 23.5138 154.569 22.4598C153.57 21.4059 152.356 20.8784 150.929 20.8784C149.523 20.8784 148.315 21.411 147.305 22.4761C146.295 23.5417 145.79 24.9528 145.79 26.7091C145.79 28.4668 146.295 29.8774 147.305 30.9426C148.315 32.0077 149.523 32.5402 150.929 32.5402ZM150.435 35.3072C148.348 35.3072 146.548 34.4839 145.032 32.837C143.517 31.19 142.76 29.1472 142.76 26.7091C142.76 24.2714 143.517 22.2291 145.032 20.5821C146.548 18.9352 148.348 18.1115 150.435 18.1115C151.665 18.1115 152.767 18.3747 153.745 18.9017C154.722 19.4291 155.453 20.0877 155.936 20.8784H156.068L155.936 18.6384V11.1934H158.967V34.7802H156.068V32.5402H155.936C155.453 33.3309 154.722 33.9895 153.745 34.5169C152.767 35.0439 151.665 35.3072 150.435 35.3072Z" fill="#6F6F6F"/>
<path fill-rule="evenodd" clip-rule="evenodd" d="M165.687 34.7804H162.656V18.6382H165.556V21.2735H165.687C165.994 20.3958 166.626 19.6712 167.581 19.0995C168.536 18.5289 169.464 18.2428 170.365 18.2428C171.265 18.2428 172.022 18.3749 172.637 18.6382L171.485 21.4716C171.089 21.3181 170.551 21.2409 169.87 21.2409C168.772 21.2409 167.8 21.6749 166.956 22.5423C166.109 23.4098 165.687 24.5465 165.687 25.9516V34.7804Z" fill="#6F6F6F"/>
<path fill-rule="evenodd" clip-rule="evenodd" d="M174.878 34.7805H177.908V18.6383H174.878V34.7805ZM177.908 14.5867C177.491 15.0039 176.985 15.2122 176.393 15.2122C175.8 15.2122 175.295 15.0039 174.878 14.5867C174.46 14.1694 174.252 13.6639 174.252 13.0709C174.252 12.4783 174.46 11.9732 174.878 11.556C175.295 11.1388 175.8 10.9299 176.393 10.9299C176.985 10.9299 177.491 11.1388 177.908 11.556C178.325 11.9732 178.534 12.4783 178.534 13.0709C178.534 13.6639 178.325 14.1694 177.908 14.5867Z" fill="#6F6F6F"/>
<path fill-rule="evenodd" clip-rule="evenodd" d="M186.67 34.7804L180.148 18.6381H183.443L188.186 31.1567H188.251L193.061 18.6381H196.289L189.702 34.7804H186.67Z" fill="#6F6F6F"/>
<path fill-rule="evenodd" clip-rule="evenodd" d="M209.433 24.7658C209.367 23.8434 208.944 22.9653 208.165 22.1304C207.385 21.296 206.226 20.8788 204.69 20.8788C203.57 20.8788 202.598 21.23 201.773 21.9327C200.951 22.6355 200.385 23.5797 200.078 24.7658H209.433ZM205.085 35.3076C202.646 35.3076 200.664 34.495 199.138 32.8694C197.612 31.2448 196.849 29.1913 196.849 26.7095C196.849 24.3597 197.59 22.3393 199.073 20.6476C200.555 18.9569 202.449 18.1114 204.755 18.1114C207.149 18.1114 209.065 18.8914 210.504 20.4504C211.942 22.01 212.661 24.096 212.661 26.7095L212.628 27.2695H199.879C199.967 28.895 200.511 30.1797 201.51 31.1239C202.509 32.0685 203.679 32.5401 205.018 32.5401C207.193 32.5401 208.664 31.6178 209.433 29.7732L212.134 30.8932C211.607 32.1452 210.74 33.1941 209.531 34.0392C208.324 34.8843 206.842 35.3076 205.085 35.3076Z" fill="#6F6F6F"/>
<path fill-rule="evenodd" clip-rule="evenodd" d="M218.459 34.7803H215.428V18.6381H218.328V21.2734H218.459C218.766 20.3958 219.398 19.6711 220.353 19.0995C221.308 18.5288 222.237 18.2428 223.137 18.2428C224.037 18.2428 224.795 18.3748 225.41 18.6381L224.257 21.4716C223.862 21.3181 223.323 21.2409 222.643 21.2409C221.544 21.2409 220.572 21.6748 219.728 22.5423C218.882 23.4097 218.459 24.5464 218.459 25.9515V34.7803Z" fill="#6F6F6F"/>
<path fill-rule="evenodd" clip-rule="evenodd" d="M18.2216 4L6.59375 23.9999L18.2216 43.9998H41.4768L53.1051 23.9999L41.4768 4H18.2216Z" fill="#8CC63F"/>
<path fill-rule="evenodd" clip-rule="evenodd" d="M18.2227 43.9999H41.3235L29.7663 24L18.2227 43.9999Z" fill="#009245"/>
<path fill-rule="evenodd" clip-rule="evenodd" d="M6.5918 24L18.2224 43.9999L29.7721 24H6.5918Z" fill="#006837"/>
<path fill-rule="evenodd" clip-rule="evenodd" d="M18.2196 4L6.5918 23.9999H29.7638L29.7684 23.9906L41.3218 4H18.2196Z" fill="#39B54A"/>
<path fill-rule="evenodd" clip-rule="evenodd" d="M41.3964 4L29.8477 23.9999L41.3964 43.9998L53.0285 23.9999L41.3964 4Z" fill="#8CC63F"/>
</svg>
