<svg width="160" height="64" viewBox="0 0 160 64" fill="none" xmlns="http://www.w3.org/2000/svg">
<path d="M55.8767 6.06067V24.8416H58.5653L63.5632 38.7326L68.6018 24.8416H74.3865L66.1212 45.463H60.9276L55.8767 32.8602V57.9394H4V6.06067H55.8767ZM93.5975 24.3687C99.7756 24.3687 101.902 28.3046 102.058 31.3356H96.6672C96.5489 30.0372 95.5645 28.855 93.5588 28.855C91.7447 28.855 90.7255 29.7212 90.7255 30.8627C90.7255 34.3258 102.138 30.8627 102.138 39.3237C102.138 43.0232 98.9888 45.9339 93.4018 45.9339C86.9465 45.9339 84.7431 42.6298 84.4679 38.7713H90.1344C90.2139 40.1492 91.2371 41.4476 93.5588 41.4476C95.6827 41.4476 96.7854 40.6995 96.7854 39.5601C96.7854 36.097 85.3342 39.3624 85.3342 31.1766C85.3342 27.4383 88.5221 24.3687 93.5975 24.3687ZM123.821 24.3687C130.434 24.3687 134.645 29.2871 134.645 35.1513C134.645 41.0154 130.432 45.9339 123.821 45.9339C117.211 45.9339 113 41.0134 113 35.1513C113 29.2891 117.211 24.3687 123.821 24.3687ZM148.405 24.3687C153.364 24.3687 156 27.6748 156 32.5932V45.4651H150.413V33.2251C150.413 30.826 149.39 29.1729 146.909 29.1729C144.194 29.1729 142.7 30.9014 142.7 33.6572V45.463H137.111V24.8416H142.266V27.3609C143.212 25.5916 145.336 24.3687 148.405 24.3687ZM81.7489 24.8416V45.463H76.1598V24.8416H81.7489ZM110.552 24.8416V45.463H104.963V24.8416H110.552ZM123.821 29.2891C120.868 29.2891 118.589 31.4518 118.589 35.1513C118.589 38.8508 120.872 41.0154 123.821 41.0154C126.779 41.0154 129.056 38.8487 129.056 35.1513C129.056 31.4538 126.775 29.2891 123.821 29.2891Z" fill="#FF0066"/>
<path d="M25.1091 19.3896C25.1217 21.0302 23.8054 22.3722 22.1649 22.3913C21.3697 22.3978 20.6047 22.0871 20.0391 21.5281C19.4735 20.969 19.1541 20.2076 19.1514 19.4124C19.1515 17.7718 20.4782 16.44 22.1189 16.4337C23.7595 16.4275 25.0964 17.749 25.1091 19.3896Z" fill="white"/>
<path d="M15.6244 40.5905C15.6307 39.8359 15.7202 39.0843 15.8913 38.3493L18.1611 29.0887H14.6484L15.7161 25.1501H24.1658L20.8303 38.3819C20.6432 39.0457 20.5385 39.73 20.5186 40.4194C20.5186 41.265 20.9342 41.5136 21.5862 41.6603C21.9734 41.7479 25.1438 41.6867 26.8635 37.8623L29.0558 29.0907H25.4963L26.5639 25.1522H34.1782L33.1981 29.6225C34.5266 27.1326 37.2019 24.765 39.8242 24.765C42.6278 24.765 44.9405 26.7618 44.9405 30.5863C44.936 31.6857 44.7705 32.7785 44.4494 33.83L43.0231 38.9422C42.8948 39.3916 42.8203 39.8546 42.801 40.3216C42.801 41.21 43.1637 41.6541 43.8198 41.6541C44.4759 41.6541 45.3317 41.1651 46.3097 38.4532L48.2657 39.2091C47.1104 43.2556 45.0199 44.9448 42.3956 44.9448C39.327 44.9448 37.86 43.1232 37.86 40.6313C37.8575 39.8792 37.9625 39.1307 38.1718 38.4083L39.6388 33.1454C39.7936 32.6259 39.8685 32.0859 39.8609 31.5439C39.8609 29.8507 38.838 28.8319 37.1937 28.8319C35.1032 28.8319 33.7238 30.3397 33.0168 33.2391L30.1643 44.6493H25.1845L26.077 41.0612C24.614 43.4675 22.5806 44.957 20.0724 44.957C17.0507 44.957 15.6244 43.2149 15.6244 40.5905Z" fill="white"/>
</svg>
