<svg width="160" height="72" viewBox="0 0 160 72" fill="none" xmlns="http://www.w3.org/2000/svg">
<path d="M9.78269 5.4353H150.217C152.955 5.4353 155.174 7.65441 155.174 10.3918V61.6092C155.174 64.3466 152.955 66.5657 150.217 66.5657H9.78269C7.04528 66.5657 4.82617 64.3466 4.82617 61.6092V10.3918C4.82617 7.65441 7.04528 5.4353 9.78269 5.4353Z" fill="white"/>
<path d="M9.78261 4.60913H150.217C153.411 4.60913 156 7.19809 156 10.3917V61.6091C156 64.8028 153.411 67.3917 150.217 67.3917H9.78261C6.58896 67.3917 4 64.8028 4 61.6091V10.3917C4 7.19809 6.58896 4.60913 9.78261 4.60913ZM9.78261 6.2613C7.50143 6.2613 5.65217 8.11056 5.65217 10.3917V61.6091C5.65217 63.8903 7.50143 65.7396 9.78261 65.7396H150.217C152.499 65.7396 154.348 63.8903 154.348 61.6091V10.3917C154.348 8.11056 152.499 6.2613 150.217 6.2613H9.78261Z" fill="#EAEAEA"/>
<path d="M84.9565 16.5447L84.9561 41.748L94.2139 32.4921L98.8868 37.1653L81.7743 54.2765L64.446 36.9483L69.1191 32.2752L78.3474 41.5035L78.3478 16.5447H84.9565Z" fill="black"/>
<path d="M25.4231 52.9938V33.4751L37.3737 45.4265L49.4149 33.3861V52.7967H56.0236V17.4321L37.374 36.0804L18.8145 17.5194V52.9938H25.4231Z" fill="black"/>
<path d="M136.954 15.49L141.627 20.1631L127.63 34.1599L141.196 47.7272L136.523 52.4003L122.956 38.8334L109.389 52.4003L104.716 47.7272L118.282 34.1599L104.285 20.1631L108.958 15.49L122.956 29.4865L136.954 15.49Z" fill="#F9AC00"/>
</svg>
