<svg width="192" height="48" viewBox="0 0 192 48" fill="none" xmlns="http://www.w3.org/2000/svg">
<path d="M40.539 9.69592C32.8903 2.09973 20.4538 2.10429 12.8094 9.69592L6.42716 16.0344C5.85175 16.6058 5.85175 17.5425 6.42716 18.1143C7.00363 18.6868 7.9472 18.6868 8.52261 18.1147L14.9052 11.7766C21.397 5.32955 31.9563 5.33376 38.4435 11.7766C44.9353 18.2232 44.9311 28.7092 38.4435 35.1524L32.061 41.4908C31.4852 42.0623 31.4852 42.9993 32.0624 43.5722C32.6374 44.1433 33.581 44.1433 34.1564 43.5722L40.539 37.2334C48.1834 29.6424 48.1876 17.2921 40.539 9.69592ZM33.1077 17.1811C28.8108 12.9382 21.8249 12.9417 17.5312 17.1829L8.91612 25.69C8.33736 26.2626 8.33736 27.1968 8.91506 27.7669C9.49346 28.3384 10.4402 28.3384 11.0186 27.7669L19.6337 19.2598C22.7702 16.1621 27.8691 16.1614 31.0049 19.2587C34.1414 22.3557 34.14 27.3906 31.0038 30.4879L22.3887 38.9957C21.8103 39.5669 21.8103 40.5015 22.3887 41.073C22.9661 41.6432 23.9125 41.6432 24.4912 41.072L33.1063 32.5645C37.4003 28.3234 37.4046 21.4247 33.1077 17.1811ZM24.4591 25.9334C23.8853 25.3564 22.9466 25.3564 22.3739 25.9319L14.8787 33.4694C14.3057 34.0456 14.3057 34.9892 14.8798 35.5665C15.4535 36.1448 16.3919 36.1448 16.9649 35.5686L24.4608 28.0308C25.0377 27.45 25.0332 26.5106 24.4591 25.9334Z" fill="#373AAF"/>
<path d="M106.407 18.0005C111.362 18.0005 115.394 22.071 115.394 27.0746C115.394 32.097 111.362 36.1833 106.407 36.1833C104.124 36.1833 101.931 35.2726 100.305 33.6946V42.1314C100.305 42.8866 99.6659 43.5005 98.8806 43.5005C98.128 43.5005 97.4921 42.8733 97.4921 42.1314V19.3696C97.4921 18.6273 98.128 18.0005 98.8806 18.0005C99.6659 18.0005 100.305 18.6147 100.305 19.3696V20.4702C101.937 18.9045 104.132 18.0005 106.407 18.0005ZM65.0992 11.0005C65.8604 11.0005 66.5537 11.6519 66.5537 12.3676V18.2375H68.2624C68.9864 18.2375 69.6454 18.8889 69.6454 19.6046C69.6454 20.3204 68.9861 20.9721 68.262 20.9721H66.5533V32.9896C66.5533 33.4995 67.1282 33.7302 67.3025 33.7302C68.0184 33.7302 68.7213 34.4253 68.7213 35.1333C68.7213 35.8361 68.0318 36.5005 67.3025 36.5005C65.2579 36.5005 63.7158 34.9914 63.7158 32.99V20.9721H62.0781C60.7562 20.9721 60.6974 20.0649 60.6948 19.658V19.5512C60.6974 19.1444 60.7562 18.2375 62.0781 18.2375H63.7158V12.3676C63.7158 11.6519 64.3751 11.0005 65.0992 11.0005ZM89.6559 18.0005C90.4251 18.0005 91.0277 18.6087 91.0277 19.3854V35.1156C91.0277 35.8661 90.3995 36.5005 89.6559 36.5005C88.9124 36.5005 88.2841 35.8661 88.2841 35.1156V33.9534C86.6757 35.568 84.5326 36.5005 82.3254 36.5005C77.5272 36.5005 73.6235 32.3511 73.6235 27.2501C73.6235 22.1499 77.5272 18.0005 82.3254 18.0005C84.5428 18.0005 86.6852 18.9209 88.2841 20.5157V19.3854C88.2841 18.6087 88.8864 18.0005 89.6559 18.0005ZM129.38 18.0005C131.395 18.0005 133.372 18.6456 134.987 19.8234L135.268 20.0368C135.529 20.2184 135.721 20.5356 135.769 20.8889C135.821 21.2666 135.707 21.6585 135.457 21.964C134.953 22.5304 134.142 22.6246 133.557 22.1987C132.35 21.2362 130.913 20.7349 129.381 20.7349C125.666 20.7349 122.643 23.6417 122.643 27.2144C122.643 30.8678 125.603 33.7296 129.381 33.7296C130.877 33.7296 132.356 33.2255 133.545 32.3097C134.143 31.8753 134.953 31.9691 135.443 32.52C135.701 32.8347 135.811 33.2018 135.766 33.5707C135.72 33.9516 135.514 34.2971 135.186 34.5428C133.57 35.8034 131.506 36.5005 129.381 36.5005C124.047 36.4998 119.869 32.4208 119.869 27.2144C119.869 22.0476 124.046 18.0005 129.38 18.0005ZM155.295 18.0005C156.064 18.0005 156.666 18.6087 156.666 19.3854V35.1156C156.666 35.8661 156.038 36.5005 155.295 36.5005C154.552 36.5005 153.923 35.8661 153.923 35.1156V33.953C152.314 35.568 150.171 36.5005 147.964 36.5005C143.166 36.5005 139.262 32.3511 139.262 27.2501C139.262 22.1499 143.166 18.0005 147.964 18.0005C150.181 18.0005 152.324 18.9213 153.923 20.5161V19.3854C153.923 18.6087 154.526 18.0005 155.295 18.0005ZM172.674 18.0005C173.457 18.0005 174.071 18.6099 174.071 19.3881C174.071 20.1404 173.431 20.7761 172.674 20.7761C170.89 20.7761 169.406 21.6167 168.002 23.4222C167.199 24.486 166.625 25.6764 166.261 26.5649L166.097 26.9821L165.967 27.337L165.923 27.4388L165.925 35.1129C165.925 35.878 165.315 36.5005 164.564 36.5005C163.76 36.5005 163.131 35.8911 163.131 35.1129V19.3885C163.131 18.6102 163.76 18.0008 164.564 18.0008C165.315 18.0008 165.925 18.6234 165.925 19.3885V21.5004C167.216 19.8879 169.422 18.0005 172.674 18.0005ZM181.458 11.0005C182.219 11.0005 182.912 11.6523 182.912 12.3676V18.2374H184.621C185.345 18.2374 186.005 18.8891 186.005 19.6045C186.005 20.3202 185.345 20.972 184.621 20.972H182.913V32.9897C182.913 33.4571 183.396 33.6898 183.611 33.7254L183.662 33.7302C184.378 33.7302 185.081 34.425 185.081 35.133C185.081 35.8358 184.391 36.5005 183.662 36.5005C181.617 36.5005 180.075 34.9911 180.075 32.99V20.972H178.437C177.404 20.972 177.143 20.4177 177.076 19.9813L177.061 19.8411L177.055 19.7151V19.4941L177.061 19.3682L177.076 19.2281C177.143 18.7918 177.404 18.2374 178.437 18.2374H180.075V12.3676C180.075 11.6523 180.735 11.0005 181.458 11.0005ZM82.5742 20.5005C79.284 20.5005 76.6071 23.424 76.6071 27.0177C76.6071 30.5922 79.284 33.5005 82.5742 33.5005C85.8645 33.4998 88.5414 30.5918 88.5414 27.0177C88.5414 23.424 85.8645 20.5005 82.5742 20.5005ZM106.656 21.0005C103.324 21.0005 100.609 23.6173 100.476 26.9577L100.476 27.2156C100.476 30.6476 103.249 33.4664 106.659 33.5005L106.885 33.4944C110.221 33.3452 112.907 30.574 112.907 27.2156C112.907 23.7885 110.103 21.0005 106.656 21.0005ZM148.213 20.5005C144.923 20.5005 142.246 23.424 142.246 27.0177C142.246 30.5922 144.923 33.5005 148.213 33.5005C151.503 33.4998 154.18 30.5918 154.18 27.0177C154.18 23.424 151.503 20.5005 148.213 20.5005Z" fill="black"/>
</svg>
