<svg width="160" height="64" viewBox="0 0 160 64" fill="none" xmlns="http://www.w3.org/2000/svg">
<path d="M29.6829 6.37792C33.8468 6.37792 37.7676 7.35077 41.4453 9.23519L41.9316 9.47834L41.5061 9.81268C40.4727 10.6333 39.6521 11.6971 39.1354 12.9129L38.9834 13.2472L38.6795 13.0952C35.8528 11.7579 32.8438 11.0588 29.7133 11.0588C18.1332 11.0588 8.74145 20.4809 8.74145 32.0306C8.74145 43.5803 18.1028 53.0024 29.6829 53.0024C41.2629 53.0024 50.6547 43.5803 50.6547 32.0306C50.6547 29.2648 50.138 26.5597 49.0438 24.0066L48.8918 23.6723L49.2262 23.5203C50.4723 23.0644 51.5665 22.3046 52.4479 21.332L52.7822 20.9065L52.995 21.3928C54.5451 24.7665 55.3049 28.353 55.3049 31.9698C55.3049 46.103 43.7856 57.6223 29.6525 57.6223C15.5193 57.6223 4 46.103 4 31.9698C4 17.8367 15.5193 6.31737 29.6829 6.37792ZM29.6829 20.3594C36.096 20.3594 41.3541 25.5871 41.3845 32.061C41.3845 38.5349 36.1568 43.7627 29.6829 43.7627C23.209 43.7627 17.9812 38.5349 17.9812 32.061C17.9812 25.5871 23.2394 20.3594 29.6829 20.3594ZM46.4299 10.6941C49.3843 10.6941 51.7792 13.0891 51.7792 16.0434C51.7792 18.9978 49.3843 21.3928 46.4299 21.3928C43.4756 21.3928 41.0806 18.9978 41.0806 16.0434C41.0806 13.0891 43.4756 10.6941 46.4299 10.6941Z" fill="#3880FF"/>
<path d="M146.669 20.329C148.675 20.329 150.438 20.9976 151.775 21.7879C153.568 22.8517 154.875 23.9155 156 25.6479L152.11 28.2922C152.11 28.2922 149.982 24.9488 146.517 24.9488C142.414 24.9488 139.739 28.1098 139.739 32.061C139.739 36.0122 142.444 39.1732 146.517 39.1732C149.982 39.1732 152.079 35.7691 152.079 35.7995L156 38.4134C154.875 40.1458 153.568 41.1792 151.775 42.2734C150.438 43.0636 148.645 43.7323 146.669 43.7323C139.891 43.7323 134.724 38.6261 134.694 32.0306C134.724 25.4352 139.891 20.329 146.669 20.329ZM88.0392 20.3594C93.6621 20.3594 99.7409 24.341 99.7106 32.061C99.7106 38.8389 94.5131 43.7323 88.1304 43.7323C81.079 43.7323 76.3375 38.2918 76.3375 31.9394C76.3375 25.7087 81.2309 20.3594 88.0392 20.3594ZM73.9364 20.8761V43.2156H68.5263V20.8761H73.9364ZM132.323 20.8761V43.2156H126.913V20.8761H132.323ZM114.421 20.3594C121.26 20.3594 123.813 25.0704 123.904 30.9365V43.1852H118.494V30.3894C118.494 27.4108 116.458 24.8881 113.874 24.8881C111.199 24.8881 107.613 27.046 107.613 29.6903V43.2156H102.203V20.8761H106.701L107.035 23.2772L107.061 23.253C107.749 22.6105 110.671 20.3594 114.421 20.3594ZM88.1 24.9488C84.3311 24.9488 81.4437 27.9578 81.4437 32.0306C81.4437 36.1338 84.3615 39.1428 88.0696 39.1428C91.4737 39.1428 94.6347 36.3466 94.6347 32.061C94.6347 27.6843 91.4433 24.9488 88.1 24.9488Z" fill="#3880FF"/>
</svg>
