<svg width="160" height="80" viewBox="0 0 160 80" fill="none" xmlns="http://www.w3.org/2000/svg">
<path d="M18.7797 11.4948C18.0126 10.7247 16.9484 10.2503 15.762 10.2503C14.5785 10.2503 13.5225 10.7247 12.7651 11.4948H12.7457C11.9808 12.2597 11.5064 13.3269 11.5064 14.5059C11.5064 15.6915 11.9808 16.7521 12.7457 17.5095L12.7651 17.5303C13.5225 18.2937 14.5785 18.7614 15.762 18.7614C16.9484 18.7614 18.0126 18.2937 18.7797 17.5303L18.7887 17.5095C19.5565 16.7521 20.025 15.6915 20.025 14.5059C20.025 13.3269 19.5565 12.2597 18.7887 11.4948H18.7797ZM15.762 69.7498C16.9484 69.7498 18.0126 69.2665 18.7797 68.5105L18.7887 68.4882C19.5565 67.7338 20.025 66.6665 20.025 65.4935C20.025 64.3079 19.5565 63.2458 18.7887 62.4772H18.7797C18.0126 61.6997 16.9484 61.2298 15.762 61.2298C14.5785 61.2298 13.5225 61.6997 12.7651 62.4772H12.7457C11.9808 63.2458 11.5064 64.3079 11.5064 65.4935C11.5064 66.6665 11.9808 67.7338 12.7457 68.4882L12.7651 68.5105C13.5225 69.2665 14.5785 69.7498 15.762 69.7498ZM38.9485 56.8558C40.0024 56.5788 40.9564 55.9025 41.5396 54.8792L41.6178 54.7295C42.1361 53.7606 42.2307 52.6405 41.9536 51.6462C41.6744 50.5849 40.9907 49.6436 39.9696 49.0574L39.9093 49.0172C38.9143 48.4706 37.7822 48.3514 36.7411 48.6352C35.6828 48.8996 34.7317 49.6041 34.1523 50.6185C33.5654 51.6269 33.4433 52.7857 33.7241 53.8522C34.0138 54.9016 34.6922 55.8496 35.7074 56.4425H35.7133C36.7306 57.0271 37.8806 57.1321 38.9485 56.8558ZM20.127 35.6391C19.0099 34.525 17.4682 33.8264 15.762 33.8264C14.058 33.8264 12.5208 34.525 11.4059 35.6391C10.2947 36.7518 9.60952 38.2867 9.60952 39.993C9.60952 41.6992 10.2947 43.2409 11.4059 44.3662C12.5208 45.4737 14.058 46.1655 15.762 46.1655C17.4682 46.1655 19.0099 45.4737 20.127 44.3662C21.2412 43.2409 21.9263 41.6992 21.9263 39.993C21.9263 38.2867 21.2412 36.7518 20.127 35.6391ZM17.6723 28.3859C20.1493 28.7941 22.3732 29.9805 24.0735 31.6927H24.0861C24.3565 31.9623 24.6194 32.2594 24.8644 32.5558L29.1133 30.0981C28.542 28.3718 28.5152 26.5672 28.9747 24.8744C29.5802 22.6081 31.0496 20.5794 33.2526 19.3081L33.3241 19.2626C35.5033 18.0301 37.9796 17.7731 40.2146 18.3786C42.4787 18.9856 44.5208 20.4617 45.7921 22.661V22.6677C47.0575 24.855 47.3137 27.3649 46.7104 29.6245C46.1079 31.89 44.6333 33.9329 42.4325 35.1967L41.8524 35.5393H41.7935C39.7581 36.5083 37.5201 36.6602 35.4646 36.1188C33.7769 35.6719 32.2293 34.729 31.0169 33.3922L26.774 35.8432C27.2618 37.1331 27.5314 38.5236 27.5314 39.993C27.5314 41.4549 27.2618 42.8655 26.774 44.1621L31.0169 46.6064C32.2293 45.2487 33.7769 44.3275 35.4646 43.8791C37.7294 43.2602 40.2392 43.5231 42.4325 44.8019L42.5733 44.8674V44.8741C44.6921 46.1588 46.1146 48.1414 46.7104 50.3809C47.3137 52.6271 47.0575 55.1384 45.7921 57.3302L45.7154 57.4829L45.7065 57.4702C44.4359 59.5831 42.4325 61.0145 40.2213 61.62C37.9535 62.2181 35.443 61.9626 33.2526 60.7025V60.6854C31.0496 59.4118 29.5802 57.3786 28.9747 55.1168C28.5152 53.4314 28.542 51.6269 29.1133 49.9013L24.8644 47.4495C24.6194 47.7459 24.3565 48.0297 24.0861 48.2993L24.0735 48.3127C22.3732 50.0189 20.1493 51.2046 17.6723 51.5993V56.5088C19.4374 56.8774 21.0177 57.7599 22.2555 58.9985L22.2622 59.0111C23.9215 60.663 24.9493 62.9643 24.9493 65.4935C24.9493 68.0153 23.9215 70.3032 22.2622 71.9632L22.2555 71.9893C20.5843 73.6486 18.2919 74.6764 15.762 74.6764C13.2454 74.6764 10.9471 73.6486 9.27959 71.9893H9.27289V71.9632C7.61208 70.3032 6.58208 68.0153 6.58208 65.4935C6.58208 62.9643 7.61208 60.663 9.27289 59.0111V58.9985H9.27959C10.5166 57.7599 12.1 56.8774 13.8584 56.5088V51.5993C11.382 51.2046 9.16192 50.0189 7.46462 48.3127L7.44674 48.2993C5.32716 46.1722 4 43.2409 4 39.993C4 36.7518 5.32716 33.8204 7.44674 31.6927H7.46462C9.16192 29.9805 11.382 28.7941 13.8584 28.3859V23.4973C12.1 23.116 10.5166 22.2335 9.27959 21.0016H9.27289V20.9882C7.61208 19.3215 6.58208 17.0358 6.58208 14.5059C6.58208 11.9893 7.61208 9.68355 9.27289 8.02348L9.27959 8.01678C10.9471 6.35075 13.2454 5.32373 15.762 5.32373C18.2919 5.32373 20.5843 6.35075 22.2555 8.01678V8.02348H22.2622C23.9215 9.68355 24.9493 11.9893 24.9493 14.5059C24.9493 17.0358 23.9215 19.3215 22.2622 20.9882L22.2555 21.0016C21.0177 22.2335 19.4374 23.116 17.6723 23.4973V28.3859ZM41.5396 25.1254L41.5031 25.0717C40.9177 24.0842 39.9823 23.4258 38.9485 23.1421C37.8806 22.8583 36.7306 22.9775 35.7074 23.5644H35.7133C34.6922 24.1438 34.0093 25.0911 33.7241 26.1531C33.4433 27.207 33.5654 28.3718 34.1523 29.3869L34.1724 29.4129C34.76 30.4146 35.6962 31.0864 36.7411 31.3568C37.7912 31.6539 38.9612 31.5281 39.9696 30.9412L40.024 30.9151C41.0167 30.3223 41.6781 29.3869 41.9536 28.3591C42.2352 27.2986 42.1227 26.1397 41.5396 25.1254Z" fill="#1A1919"/>
<path d="M60.3924 26.5613H65.1335V41.0334L71.9704 33.4711H77.6551L69.401 42.2325L77.6894 53.3383H72.2608L65.1335 43.4181V53.3383H60.3924V26.5613ZM83.1626 43.4904C83.1626 45.9548 84.9352 49.5378 89.2056 49.5378C91.848 49.5378 93.587 48.1608 94.4889 46.3562C94.9611 45.4804 95.1786 44.5442 95.2515 43.5701C95.2843 42.6272 95.1063 41.6471 94.7056 40.7765C93.8745 38.8997 92.0297 37.2724 89.1706 37.2724C85.3366 37.2724 83.1626 40.381 83.1626 43.4576V43.4904ZM99.9547 53.3383H95.2113V50.4799C93.949 52.7917 91.3058 53.952 88.5182 53.952C82.1482 53.952 78.4222 48.9912 78.4222 43.3854C78.4222 37.1272 82.9451 32.8582 88.5182 32.8582C92.137 32.8582 94.3437 34.776 95.2113 36.3697V33.4711H99.9547V53.3383ZM105.323 37.1272H102.866V33.4711H105.323V32.3518C105.323 26.4488 109.812 26.0928 113.215 26.0533V29.7027C112.018 29.7027 110.066 29.7027 110.066 32.4955V33.4711H113.215V37.1272H110.066V53.3383H105.323V37.1272ZM116.439 26.5613H121.179V41.0334L128.017 33.4711H133.702L125.448 42.2325L133.735 53.3383H128.306L121.179 43.4181V53.3383H116.439V26.5613ZM139.209 43.4904C139.209 45.9548 140.981 49.5378 145.252 49.5378C147.891 49.5378 149.63 48.1608 150.533 46.3562C151.007 45.4804 151.225 44.5442 151.297 43.5701C151.33 42.6272 151.152 41.6471 150.75 40.7765C149.921 38.8997 148.076 37.2724 145.217 37.2724C141.383 37.2724 139.209 40.381 139.209 43.4576V43.4904ZM156 53.3383H151.258V50.4799C149.992 52.7917 147.351 53.952 144.565 53.952C138.195 53.952 134.472 48.9912 134.472 43.3854C134.472 37.1272 138.993 32.8582 144.565 32.8582C148.182 32.8582 150.39 34.776 151.258 36.3697V33.4711H156V53.3383Z" fill="#1A1919"/>
</svg>
