<svg width="160" height="64" viewBox="0 0 160 64" fill="none" xmlns="http://www.w3.org/2000/svg">
<path fill-rule="evenodd" clip-rule="evenodd" d="M9.62894 39.9162L14.1321 39.1657C15.2579 38.978 15.4455 38.4151 15.4455 37.8522C15.4455 36.5388 14.5073 35.413 12.2558 35.413C10.0042 35.413 8.87841 36.7265 8.69078 38.4151L4.18763 37.477C4.56289 34.4749 7.18973 31.2852 12.2558 31.2852C18.0723 31.2852 20.3239 34.6625 20.3239 38.4151V47.6091C20.3239 48.1043 20.3762 48.7041 20.4256 49.2704C20.4697 49.777 20.5115 50.2568 20.5115 50.6112H16.0084C15.8208 50.0483 15.8208 49.1101 15.8208 48.3596C14.8826 49.8606 13.0063 51.1741 10.3795 51.1741C6.43921 51.1741 4 48.5472 4 45.5451C4 42.1678 6.43921 40.2915 9.62894 39.9162ZM15.6331 43.1059V42.3554L11.5052 42.9183C10.1918 43.1059 9.25367 43.8564 9.25367 45.3575C9.25367 46.4833 10.0042 47.6091 11.6929 47.6091C13.5692 47.4214 15.6331 46.2957 15.6331 43.1059Z" fill="#181D21"/>
<path d="M27.8293 41.2296L21.2622 31.848H27.2664C27.6712 32.5228 29.0466 34.5563 30.0663 36.0639L30.0668 36.0646L30.068 36.0664C30.4654 36.6539 30.8086 37.1613 31.019 37.477L34.7716 31.848H44.9038L48.4688 43.8564L52.409 31.848H57.6627L61.7906 43.8564L65.168 31.848H70.234L64.4174 50.6112H59.3514L55.0359 37.8522L50.7204 50.6112H45.6543L39.8823 32.5736L33.8335 41.042L40.5882 50.6112H34.7716L30.8314 44.7946C30.0809 45.7328 27.6416 49.4854 27.0788 50.6112H21.4498L27.8293 41.2296Z" fill="#181D21"/>
<path fill-rule="evenodd" clip-rule="evenodd" d="M75.3001 39.9162L79.8032 39.1657C80.929 38.978 81.1167 38.4151 81.1167 37.8522C81.1167 36.5388 80.1785 35.413 77.9269 35.413C75.6754 35.413 74.5496 36.7265 74.3619 38.4151L69.8588 37.477C70.2341 34.4749 72.8609 31.2852 77.9269 31.2852C83.7435 31.2852 85.9951 34.6625 85.9951 38.4151V47.6091C85.9951 48.1042 86.0473 48.7039 86.0967 49.2701C86.1409 49.7767 86.1827 50.2568 86.1827 50.6112H81.4919C81.3043 50.0483 81.3043 49.1101 81.3043 48.3596C80.3661 49.8606 78.4898 51.1741 75.863 51.1741C71.9227 51.1741 69.4835 48.5472 69.4835 45.5451C69.6712 42.1678 72.1104 40.2915 75.3001 39.9162ZM81.3043 43.1059V42.3554L77.1764 42.9183C75.863 43.1059 74.9248 43.8564 74.9248 45.3575C74.9248 46.4833 75.6754 47.6091 77.364 47.6091C79.2403 47.4214 81.3043 46.2957 81.3043 43.1059Z" fill="#181D21"/>
<path d="M93.6879 48.172L89.3724 57.9288H94.6261L106.447 31.848H101.006L96.5024 42.9183L91.4364 31.848H85.8074L93.6879 48.172Z" fill="#181D21"/>
<path d="M155.999 25.022V18.6426L146.43 13.9518V23.521L109.842 6.07129V12.4507L151.684 32.3397V22.9581L155.999 25.022Z" fill="#D22630"/>
<path d="M119.204 29.5965V35.9759L125.959 39.1657L115.076 50.6112H122.206L134.965 37.1017L119.204 29.5965Z" fill="#D22630"/>
<path d="M114.889 17.9634L151.665 35.6007L144.159 38.4152L114.889 24.3428V17.9634Z" fill="#D22630"/>
</svg>
