<svg width="160" height="64" viewBox="0 0 160 64" fill="none" xmlns="http://www.w3.org/2000/svg">
<path d="M5.93214 36.6238C6.26812 36.0951 6.70275 36.0458 7.1836 36.2878C8.09909 36.7686 11.1337 38.165 14.1191 38.165C16.0934 38.165 17.2015 37.2988 17.2015 36.2384C17.2015 34.6972 15.5154 34.2164 12.2881 33.2531C7.56737 31.8075 4.62981 29.6405 4.58203 25.6904C4.58203 21.5476 7.71378 18.368 14.0235 18.368C17.8766 18.368 20.2377 19.621 22.2598 20.8247C22.79 21.1145 22.9348 21.4998 22.7422 21.8851L20.623 25.2573C20.3333 25.6904 19.9002 25.7381 19.4671 25.5455C18.2619 24.8227 16.0471 24.0043 13.8787 24.0043C11.3742 24.0043 10.7962 25.1124 10.7962 25.883C10.7962 27.2794 12.6272 27.8095 14.8912 28.4353C20.7186 30.0258 23.801 32.0972 23.801 36.2384C23.801 41.2489 19.37 43.6563 13.9757 43.6563C10.5354 43.6599 7.16938 42.6553 4.29382 40.7665C4.00099 40.5323 3.90852 40.1886 4.10117 39.7617L5.93214 36.6238ZM49.8568 43.271H44.9373C43.7813 43.271 43.1556 42.4526 43.1556 41.3445V29.1103C43.1556 26.3639 41.5173 24.4374 38.5797 24.4374C36.123 24.4374 34.2921 25.8352 33.2333 27.7124V42.4526C33.2333 42.8857 32.9913 43.1755 32.6553 43.2232C32.5987 43.2612 32.5305 43.2781 32.4626 43.271H27.0191C26.861 43.2835 26.7047 43.2312 26.586 43.1262C26.3868 42.9613 26.279 42.7107 26.2962 42.4526V10.8577C26.2962 8.40099 25.8154 7.4855 25.8154 6.52224C25.8154 6.04138 26.0558 5.70386 26.586 5.70386H31.0648C32.5104 5.70386 33.2333 6.37737 33.2333 7.87081V22.4184C34.9193 20.2976 37.4716 18.3711 41.2291 18.3711C46.1425 18.3711 50.0911 21.5029 50.0911 27.5229V38.7953C50.1045 39.9549 50.1848 41.1127 50.3315 42.2631C50.4764 42.7902 50.2837 43.271 49.8507 43.271H49.8568ZM128.578 19.524V42.5004C128.591 42.7003 128.521 42.8966 128.384 43.0427C128.247 43.1888 128.055 43.2715 127.855 43.271H122.411C122.201 43.2902 121.994 43.2152 121.845 43.0663C121.696 42.9174 121.621 42.7101 121.641 42.5004V39.5629C119.954 41.682 117.45 43.6147 113.645 43.6147C108.731 43.6147 104.783 40.4845 104.783 34.463V23.1859C104.779 22.0264 104.681 20.8692 104.488 19.7259C104.393 19.1957 104.585 18.7133 105.019 18.7133H109.883C111.088 18.7133 111.714 19.5317 111.714 20.6398V32.8755C111.714 35.6204 113.352 37.5469 116.289 37.5469C118.746 37.5469 120.528 36.1506 121.636 34.2719V19.524C121.627 19.0869 121.97 18.7231 122.407 18.7056H127.801C128.288 18.7056 128.578 19.0431 128.578 19.524ZM155.493 43.271H150.58C149.424 43.271 148.798 42.4526 148.798 41.3445V29.1103C148.798 26.3639 147.16 24.4374 144.175 24.4374C141.766 24.4374 139.935 25.8352 138.827 27.7124V42.4526C138.827 42.8857 138.538 43.271 138.105 43.271H132.662C132.181 43.271 131.891 42.9335 131.891 42.4526V19.4762C131.881 19.0648 132.203 18.7215 132.614 18.7056H138.105C138.586 18.7056 138.827 18.9953 138.827 19.4762V22.4153C140.513 20.2946 143.067 18.368 146.872 18.368C151.736 18.368 155.734 21.4998 155.734 27.5198V38.7922C155.723 39.9527 155.804 41.1123 155.976 42.26C156.071 42.7902 155.879 43.271 155.493 43.271ZM80.4669 47.2057C80.0261 47.0783 79.5508 47.1958 79.2201 47.514C78.3508 48.3755 77.7698 49.5438 77.7698 51.1158C77.7698 55.8366 83.2612 58.2455 90.004 58.2933C97.0366 58.3904 103.443 55.9814 103.443 49.5746C103.443 45.1914 100.264 43.6024 94.5321 42.7362L87.162 41.6759C84.8502 41.3383 83.3089 41.1457 83.3089 40.0376C83.3089 39.2669 83.984 38.5441 85.9105 39.0743C87.1142 39.5089 88.5599 40.1824 90.8717 40.1824C96.9888 40.2302 101.95 36.2323 101.95 30.1152C101.95 27.2254 100.842 24.7687 98.7226 23.1797C100.216 23.1319 101.662 22.9871 102.143 22.5047L102.331 19.621C102.358 19.4094 102.286 19.1969 102.135 19.046C101.984 18.8951 101.772 18.8228 101.56 18.8504C95.876 19.3313 93.9973 18.4174 90.8193 18.4174C83.7867 18.4174 79.2108 23.1381 79.3064 29.2552C79.4035 33.3487 81.5704 35.5172 82.6308 36.5282C80.077 36.2385 77.6696 37.9723 77.6696 40.7665C77.6696 42.898 79.0567 44.1572 81.0819 44.9278C81.528 45.0931 81.9835 45.232 82.4459 45.344C84.0749 45.7 87.1589 46.3535 89.9562 46.8359L90.545 46.936H90.5557L93.6644 47.4678C95.6402 47.8053 96.1211 48.673 96.1211 49.5869C96.1211 51.6583 93.4717 52.5738 90.7268 52.5738C87.0187 52.5738 84.2244 51.8032 84.2244 49.2987V49.2879C84.2382 48.6908 83.8496 48.1587 83.2766 47.9902L80.4669 47.2057ZM90.5819 24.2416C93.3762 24.2416 95.5909 26.2175 95.5909 29.2999C95.5909 32.1419 93.6644 34.2611 90.679 34.2611C87.7399 34.2611 85.573 32.1897 85.573 29.2028C85.573 26.1234 87.8848 24.2447 90.5819 24.2447V24.2416ZM51.7433 30.8519C51.7433 23.2583 57.4997 18.1307 64.8035 18.1307C72.0581 18.1307 77.8145 23.2583 77.8145 30.8519C77.8145 38.4039 72.0581 43.5238 64.8035 43.5238C57.492 43.5269 51.7356 38.4008 51.7356 30.855L51.7433 30.8519ZM71.4292 30.8519C71.4292 26.9341 68.672 24.032 64.802 24.032C60.8827 24.032 58.127 26.9341 58.127 30.8519C58.127 34.7697 60.8827 37.624 64.802 37.624C68.6643 37.6271 71.4215 34.7728 71.4215 30.855L71.4292 30.8519ZM74.467 14.1066C75.9406 13.8088 76.9053 12.3871 76.6377 10.9077C76.37 9.42831 74.9682 8.43477 73.4837 8.67224C64.7958 10.2443 56.222 8.70307 56.0679 8.67224C54.5863 8.42882 53.1816 9.41371 52.9054 10.8896C52.6293 12.3655 53.5828 13.7917 55.0523 14.1004C55.3097 14.1482 59.4339 14.9034 65.0147 14.9034C68.1828 14.9181 71.346 14.6515 74.467 14.1066Z" fill="#5D50C6"/>
</svg>
