<svg width="240" height="48" viewBox="0 0 240 48" fill="none" xmlns="http://www.w3.org/2000/svg">
<path d="M217.923 6.51855L217.976 6.51945L218.122 6.52639C218.85 6.57639 219.546 6.85563 220.112 7.33472L220.224 7.4332L220.33 7.53501L232.856 20.1188C234.111 21.3791 234.122 23.3479 232.906 24.6443L232.821 24.7316L232.734 24.8152L219.747 36.8519C218.434 38.0698 216.41 38.1068 215.083 36.9554L214.992 36.8731L214.904 36.7882L207.647 29.5028C207.549 29.4039 207.565 29.2397 207.681 29.1619C209.213 28.1333 210.327 26.5976 210.81 24.8352L210.856 24.6582L210.9 24.4721C210.921 24.3843 210.992 24.319 211.078 24.3041L211.116 24.3008H216.53C216.639 24.3008 216.729 24.3794 216.748 24.4829L216.752 24.5228V26.6249C216.752 27.263 217.229 27.7908 217.846 27.8629L217.921 27.8693L217.998 27.8715H220.662C221.3 27.8715 221.828 27.3942 221.9 26.777L221.906 26.7022L221.909 26.6249V24.5228C221.909 24.4139 221.987 24.3232 222.091 24.3044L222.131 24.3008H223.081C223.731 24.3008 224.262 23.82 224.333 23.1919L224.34 23.1158L224.342 23.0398V21.6576C224.342 21.0047 223.858 20.4636 223.232 20.3908L223.157 20.3844L223.081 20.3822H210.828C210.735 20.3822 210.652 20.3242 210.62 20.237C209.981 18.5022 208.714 17.0505 207.072 16.153L206.907 16.0651L206.74 15.9817C206.614 15.9185 206.581 15.7587 206.662 15.651L206.689 15.6204L215.486 7.47122C216.078 6.9228 216.826 6.59576 217.607 6.53442L217.755 6.52385L217.871 6.51899L217.923 6.51855ZM203.227 19.0949C205.354 19.0949 207.08 20.787 207.08 22.8766C207.08 24.9662 205.354 26.6583 203.227 26.6583C201.099 26.6583 199.373 24.9662 199.373 22.8766C199.373 20.787 201.099 19.0949 203.227 19.0949Z" fill="#D40000"/>
<path d="M17.9915 12.4046C21.5451 12.4046 24.3178 13.4506 26.3096 15.5427C28.3013 17.6348 29.2973 20.5507 29.2973 24.2907C29.2973 25.8239 29.0895 27.2353 28.6739 28.5249C28.2584 29.8002 27.6279 30.9681 26.7825 32.0284C25.7794 33.3037 24.5758 34.2208 23.1715 34.7796C21.7672 35.3242 19.9044 35.5964 17.5831 35.5964H12.3171V44.0005H6.19141V12.4046H17.9915ZM150.974 11.9962C154.699 11.9962 157.673 13.0924 159.894 15.2848C162.129 17.4628 163.247 20.3716 163.247 24.0112C163.247 27.6509 162.136 30.5597 159.915 32.7377C157.708 34.9014 154.728 35.9833 150.974 35.9833C147.219 35.9833 144.225 34.8943 141.989 32.7162C139.754 30.5382 138.636 27.6365 138.636 24.0112C138.636 20.3716 139.754 17.4628 141.989 15.2848C144.225 13.0924 147.219 11.9962 150.974 11.9962ZM46.0839 12.4046C49.2507 12.4046 51.6365 13.1354 53.2414 14.5969C54.8462 16.0442 55.6487 18.2008 55.6487 21.0666V35.5964H39.1844C36.8774 35.5964 35.1006 35.0161 33.8539 33.8554C32.6216 32.6947 32.0055 31.0469 32.0055 28.9118C32.0055 26.2753 32.7148 24.3838 34.1334 23.2375C35.5663 22.0911 37.9378 21.518 41.2478 21.518H49.308V20.9376C49.308 19.562 48.8996 18.5948 48.0828 18.036C47.2804 17.4771 45.8403 17.1977 43.7626 17.1977H33.5315V12.4046H46.0839ZM81.5917 12.4046V17.2407H70.7803C69.0178 17.2407 67.8715 17.3983 67.3413 17.7136C66.8111 18.0145 66.546 18.559 66.546 19.3471C66.546 20.0636 66.7753 20.5937 67.2338 20.9376C67.7067 21.2672 68.4447 21.432 69.4477 21.432H74.9931C77.5294 21.432 79.4638 22.0267 80.7964 23.216C82.129 24.391 82.7954 26.0961 82.7954 28.3315C82.7954 30.4809 82.2007 32.229 81.0114 33.576C79.8364 34.9229 78.3175 35.5964 76.4547 35.5964H60.6352V30.7603H73.553C74.6993 30.7603 75.5304 30.5812 76.0463 30.223C76.5765 29.8647 76.8416 29.2916 76.8416 28.5034C76.8416 27.7153 76.5765 27.1422 76.0463 26.7839C75.5161 26.4114 74.685 26.2251 73.553 26.2251H68.2655C65.1274 26.2251 63.0067 25.7451 61.9034 24.785C60.8 23.825 60.2484 22.1198 60.2484 19.6695C60.2484 17.1762 60.9147 15.3421 62.2473 14.1671C63.5799 12.9921 65.6433 12.4046 68.4375 12.4046H81.5917ZM107.728 12.4046V17.2407H96.9168C95.1543 17.2407 94.008 17.3983 93.4778 17.7136C92.9476 18.0145 92.6825 18.559 92.6825 19.3471C92.6825 20.0636 92.9118 20.5937 93.3703 20.9376C93.8432 21.2672 94.5811 21.432 95.5842 21.432H101.13C103.666 21.432 105.6 22.0267 106.933 23.216C108.266 24.391 108.932 26.0961 108.932 28.3315C108.932 30.4809 108.337 32.229 107.148 33.576C105.973 34.9229 104.454 35.5964 102.591 35.5964H86.7717V30.7603H99.6895C100.836 30.7603 101.667 30.5812 102.183 30.223C102.713 29.8647 102.978 29.2916 102.978 28.5034C102.978 27.7153 102.713 27.1422 102.183 26.7839C101.653 26.4114 100.821 26.2251 99.6895 26.2251H94.402C91.2639 26.2251 89.1432 25.7451 88.0399 24.785C86.9365 23.825 86.3848 22.1198 86.3848 19.6695C86.3848 17.1762 87.0511 15.3421 88.3838 14.1671C89.7164 12.9921 91.7798 12.4046 94.574 12.4046H107.728ZM119.442 4.00049V12.4046H124.708C127.03 12.4046 128.892 12.684 130.297 13.2428C131.701 13.7874 132.905 14.6973 133.908 15.9725C134.753 17.0329 135.384 18.2079 135.799 19.4975C136.215 20.7729 136.422 22.1771 136.422 23.7103C136.422 27.4359 135.427 30.3519 133.435 32.4583C131.443 34.5504 128.67 35.5964 125.117 35.5964H113.317V4.00049H119.442ZM173.306 4.00049V35.5964H166.922V4.00049H173.306ZM186.675 4.00049V12.4046H193.145V17.0257H186.675V26.397C186.675 28.1166 186.969 29.3131 187.556 29.9865C188.144 30.6457 189.168 30.9752 190.63 30.9752H193.145V35.5964H187.556C185.292 35.5964 183.558 34.9731 182.355 33.7264C181.151 32.4655 180.549 30.6672 180.549 28.3315V17.0257H176.229V12.4046H180.549V4.00049H186.675ZM150.931 17.0257C149.097 17.0257 147.657 17.6419 146.611 18.8742C145.579 20.1065 145.063 21.8189 145.063 24.0112C145.063 26.2179 145.579 27.9374 146.611 29.1698C147.642 30.4021 149.082 31.0182 150.931 31.0182C152.765 31.0182 154.205 30.4021 155.251 29.1698C156.297 27.9374 156.82 26.2179 156.82 24.0112C156.82 21.8046 156.297 20.0922 155.251 18.8742C154.219 17.6419 152.779 17.0257 150.931 17.0257ZM49.351 26.1391H42.1291C40.6961 26.1391 39.7074 26.3326 39.1629 26.7195C38.6184 27.1063 38.3461 27.7798 38.3461 28.7399C38.3461 29.5567 38.5611 30.1298 38.991 30.4594C39.4352 30.7746 40.3307 30.9322 41.6777 30.9322H49.351V26.1391ZM16.5299 17.4126H12.3171V30.6313H16.0571C18.536 30.6313 20.2913 30.1083 21.323 29.0623C22.3547 28.0163 22.8706 26.2753 22.8706 23.8393C22.8706 21.4893 22.3977 19.8343 21.452 18.8742C20.5063 17.8998 18.8656 17.4126 16.5299 17.4126ZM123.182 17.4126H119.442V30.6313H123.655C125.991 30.6313 127.631 30.1441 128.577 29.1698C129.523 28.181 129.996 26.5117 129.996 24.1617C129.996 21.7401 129.473 20.0134 128.427 18.9817C127.395 17.9357 125.647 17.4126 123.182 17.4126Z" fill="black"/>
</svg>
