<svg width="160" height="56" viewBox="0 0 160 56" fill="none" xmlns="http://www.w3.org/2000/svg">
<path d="M93.0506 29.3076C92.3785 28.2105 93.2641 27.2901 93.2641 27.2901L101.05 19.2558C101.935 18.3354 100.661 18.3354 100.661 18.3354H93.4051C92.1312 18.3354 91.2466 19.2558 91.2466 19.2558L84.0612 26.9009C83.1765 27.8213 83.1765 26.5464 83.1765 26.5464V9.84036C83.1765 8.56651 81.9027 8.56651 81.9027 8.56651H76.4161C75.177 8.56651 75.177 9.80561 75.177 9.80561V44.7388C75.177 46.0136 76.4518 46.0136 76.4518 46.0136H81.9027C83.1408 46.0136 83.1408 44.7745 83.1408 44.7745V38.6515C83.1408 37.3777 84.0612 36.492 84.0612 36.492L86.6446 34.0853L93.0864 44.9165C93.7238 46.0136 94.9977 46.0136 94.9977 46.0136H101.9C103.174 46.0136 102.502 44.9165 102.502 44.9165L93.0506 29.3076ZM69.4441 44.7388V19.5745C69.4441 18.2996 68.1703 18.2996 68.1703 18.2996H62.6489C61.3751 18.2996 61.3751 19.5745 61.3751 19.5745V44.7388C61.3751 46.0136 62.6489 46.0136 62.6489 46.0136H68.1703C69.4441 46.0136 69.4441 44.7388 69.4441 44.7388ZM69.2317 13.3799V9.76987C69.2317 9.76987 69.2317 8.53076 67.9926 8.53076H62.6122C62.6122 8.53076 61.3741 8.53076 61.3741 9.76987V13.3799C61.3741 13.3799 61.3741 14.6191 62.6122 14.6191H68.0273C68.0273 14.6191 69.2317 14.6191 69.2317 13.3799ZM55.4625 44.7388V9.8761C55.4625 8.60225 54.1887 8.60225 54.1887 8.60225H48.5611C47.2872 8.60225 47.2872 9.8761 47.2872 9.8761V44.7388C47.2872 46.0136 48.5611 46.0136 48.5611 46.0136H54.1887C55.4625 46.0136 55.4625 44.7388 55.4625 44.7388ZM42.8272 43.2535C42.8272 43.2535 43.5352 42.4393 42.721 41.7314L38.2263 37.8026C40.2438 34.7942 41.4471 31.2199 41.4471 27.3258C41.4471 16.991 33.0584 8.60324 22.7236 8.60324C12.3878 8.60225 4 16.99 4 27.3248C4 37.6606 12.3888 46.0484 22.7236 46.0484C26.5104 46.0484 30.0142 44.9165 32.9879 42.9695L37.9423 47.2518C37.9423 47.2518 38.7565 47.9597 39.4644 47.1455L42.8272 43.2535ZM33.5191 27.2911C33.5191 33.2721 28.6699 38.1213 22.6878 38.1213C16.7068 38.1213 11.8576 33.2721 11.8576 27.2911C11.8576 21.309 16.7068 16.4608 22.6878 16.4608C28.6699 16.4956 33.5191 21.309 33.5191 27.2911Z" fill="#54565B"/>
<path d="M155.521 43.6414L149.505 38.5808C151.593 35.2537 152.831 31.3249 152.831 27.1131C152.831 15.2552 143.204 5.62836 131.347 5.62836C119.49 5.62836 109.863 15.2552 109.863 27.1131C109.863 38.97 119.49 48.5969 131.347 48.5969C135.948 48.5969 140.231 47.1453 143.735 44.6681L150.141 50.0484C150.141 50.0484 151.097 50.8626 151.911 49.9065L155.734 45.376C155.698 45.376 156.477 44.4208 155.521 43.6414ZM144.549 27.1131C144.549 34.4038 138.639 40.3143 131.347 40.3143C124.056 40.3143 118.145 34.4038 118.145 27.1131C118.145 19.8215 124.056 13.9109 131.347 13.9109C138.639 13.9109 144.549 19.8215 144.549 27.1131Z" fill="#009848"/>
<path d="M122.854 27.113C122.854 22.4411 126.641 18.6537 131.313 18.6537C135.985 18.6537 139.772 22.4411 139.772 27.113C139.772 31.7849 135.985 35.5723 131.313 35.5723C126.641 35.5723 122.854 31.7849 122.854 27.113Z" fill="#54565B"/>
</svg>
