<svg width="184" height="48" viewBox="0 0 184 48" fill="none" xmlns="http://www.w3.org/2000/svg">
<path d="M178.808 25.8611V26.6834C178.808 27.7875 178.583 28.8416 178.141 29.8155C177.711 30.7645 177.123 31.6083 176.397 32.3246C175.67 33.0391 174.816 33.6088 173.857 34.0174C172.891 34.4302 171.856 34.6388 170.781 34.6388H168.839C167.765 34.6388 166.729 34.4302 165.763 34.0174C164.804 33.6088 163.95 33.0391 163.224 32.3246C162.497 31.6083 161.909 30.7636 161.479 29.8147C161.038 28.8416 160.813 27.7875 160.813 26.6834V24.8475H165.655V26.6834C165.655 27.1109 165.741 27.5117 165.908 27.8737C166.089 28.2632 166.334 28.6106 166.639 28.9054C166.944 29.2019 167.304 29.4372 167.708 29.6061C168.106 29.7733 168.53 29.8578 168.972 29.8578H170.668C171.107 29.8578 171.527 29.7742 171.917 29.6078C172.318 29.438 172.676 29.2019 172.981 28.9054C173.287 28.6106 173.532 28.2632 173.713 27.8737C173.88 27.5117 173.965 27.1109 173.965 26.6834V25.8611C173.965 25.144 173.838 24.5631 173.587 24.1321C173.31 23.6555 172.934 23.2435 172.471 22.9056C171.948 22.5246 171.348 22.198 170.685 21.9308C169.931 21.6265 169.156 21.324 168.36 21.0206C167.527 20.7034 166.705 20.3483 165.917 19.9648C165.054 19.545 164.268 19.0124 163.583 18.3814C162.862 17.7178 162.278 16.8998 161.847 15.9491C161.411 14.9881 161.189 13.8185 161.189 12.4731V11.9568C161.189 10.863 161.397 9.81838 161.806 8.85304C162.21 7.89804 162.774 7.0482 163.484 6.32851C164.193 5.60881 165.034 5.03564 165.983 4.62451C166.941 4.21079 167.972 4.00049 169.047 4.00049H170.781C171.858 4.00049 172.888 4.21079 173.838 4.62537C174.779 5.0365 175.617 5.60967 176.325 6.32851C177.035 7.0482 177.6 7.89804 178.003 8.8539C178.413 9.81838 178.62 10.863 178.62 11.9568V13.3884H173.777V11.9568C173.777 11.5155 173.696 11.1035 173.537 10.732C173.373 10.3476 173.147 10.0071 172.867 9.72357C172.587 9.44 172.254 9.21073 171.874 9.04438C171.508 8.88234 171.102 8.80132 170.668 8.80132H169.16C168.726 8.80132 168.321 8.88234 167.953 9.04438C167.572 9.21246 167.232 9.44345 166.944 9.73133C166.661 10.0132 166.435 10.3502 166.272 10.7311C166.113 11.1035 166.033 11.5155 166.033 11.9568V12.4731C166.033 13.1186 166.155 13.6487 166.399 14.0478C166.675 14.5029 167.05 14.8993 167.514 15.2269C168.04 15.5992 168.647 15.9285 169.322 16.206C170.078 16.5171 170.858 16.8352 171.661 17.1593C172.493 17.4963 173.315 17.8721 174.102 18.2746C174.959 18.7124 175.74 19.2606 176.425 19.9044C177.143 20.5802 177.725 21.4102 178.154 22.3721C178.588 23.3452 178.808 24.5182 178.808 25.8611ZM152.581 6.32851C153.291 7.0482 153.854 7.89804 154.258 8.8539C154.667 9.81838 154.874 10.863 154.874 11.9568V26.6834C154.874 27.7771 154.667 28.8218 154.258 29.7862C153.854 30.7421 153.291 31.5902 152.581 32.3108C151.871 33.0313 151.033 33.6036 150.092 34.0139C149.143 34.4285 148.114 34.6388 147.035 34.6388H145.114C144.037 34.6388 143.007 34.4293 142.049 34.0148C141.1 33.6045 140.26 33.0313 139.55 32.3108C138.84 31.5911 138.276 30.7421 137.872 29.7854C137.463 28.8218 137.256 27.7771 137.256 26.6834V11.9568C137.256 10.863 137.463 9.81838 137.872 8.85304C138.276 7.89804 138.84 7.0482 139.55 6.32851C140.26 5.60881 141.1 5.03564 142.049 4.62451C143.007 4.21079 144.037 4.00049 145.114 4.00049H147.035C148.114 4.00049 149.142 4.21079 150.092 4.62537C151.034 5.0365 151.872 5.60967 152.581 6.32851ZM150.03 26.6834V11.9568C150.03 11.5155 149.948 11.1035 149.79 10.732C149.625 10.3476 149.4 10.0071 149.119 9.72357C148.839 9.44 148.506 9.21073 148.127 9.04438C147.761 8.88234 147.354 8.80132 146.921 8.80132H145.225C144.79 8.80132 144.384 8.88234 144.017 9.04438C143.634 9.21246 143.295 9.44345 143.008 9.73133C142.725 10.0132 142.499 10.3502 142.336 10.7311C142.177 11.1035 142.096 11.5155 142.096 11.9568V26.6834C142.096 27.1229 142.177 27.5358 142.336 27.9073C142.501 28.2925 142.729 28.6347 143.014 28.9252C143.301 29.2157 143.638 29.4475 144.017 29.6139C144.384 29.7759 144.79 29.8578 145.225 29.8578H146.921C147.354 29.8578 147.761 29.7759 148.127 29.6147C148.502 29.4492 148.835 29.22 149.113 28.9321C149.397 28.639 149.624 28.2943 149.789 27.9081C149.948 27.5358 150.03 27.1229 150.03 26.6834ZM112.138 8.8539C112.548 9.81838 112.756 10.863 112.756 11.9568V13.3884H107.912V11.9568C107.912 11.5155 107.832 11.1035 107.672 10.732C107.507 10.3476 107.282 10.0071 107.003 9.72357C106.723 9.44 106.389 9.21073 106.009 9.04438C105.643 8.88234 105.238 8.80132 104.803 8.80132H103.107C102.673 8.80132 102.267 8.88234 101.901 9.04438C101.518 9.21246 101.178 9.44345 100.89 9.73133C100.608 10.0132 100.382 10.3502 100.22 10.7311C100.061 11.1035 99.9792 11.5155 99.9792 11.9568V26.6834C99.9792 27.1229 100.061 27.5358 100.219 27.9073C100.383 28.2925 100.612 28.6347 100.898 28.9252C101.184 29.2157 101.521 29.4475 101.901 29.6139C102.267 29.7759 102.673 29.8578 103.107 29.8578H104.803C105.238 29.8578 105.643 29.7759 106.009 29.6147C106.386 29.4492 106.717 29.22 106.996 28.9321C107.28 28.639 107.507 28.2943 107.671 27.9081C107.832 27.5358 107.912 27.1229 107.912 26.6834V24.8475H112.756V26.6834C112.756 27.7771 112.548 28.8218 112.138 29.7862C111.736 30.7421 111.171 31.5902 110.461 32.3108C109.751 33.0313 108.914 33.6036 107.974 34.0139C107.023 34.4285 105.994 34.6388 104.916 34.6388H102.995C101.918 34.6388 100.888 34.4293 99.9308 34.0148C98.9814 33.6045 98.1407 33.0313 97.4308 32.3108C96.7208 31.5902 96.157 30.7421 95.7527 29.7854C95.3443 28.8218 95.1371 27.7771 95.1371 26.6834V11.9568C95.1371 10.863 95.3443 9.81838 95.7527 8.85304C96.157 7.89804 96.7208 7.0482 97.4308 6.32851C98.1407 5.60881 98.9814 5.03564 99.93 4.62451C100.888 4.21079 101.918 4.00049 102.995 4.00049H104.916C105.994 4.00049 107.023 4.21079 107.974 4.62537C108.915 5.0365 109.752 5.60967 110.461 6.32851C111.171 7.0482 111.736 7.89804 112.138 8.8539ZM86.8981 6.71206C87.6072 7.43175 88.1728 8.28504 88.577 9.24779C88.9863 10.22 89.1926 11.2664 89.1926 12.3584V26.2998C89.1926 27.3944 88.9854 28.4391 88.5753 29.4044C88.1728 30.3585 87.6072 31.2075 86.8981 31.9281C86.189 32.6478 85.3475 33.2218 84.3989 33.6321C83.441 34.0475 82.4109 34.257 81.335 34.257H71.5742V4.38318H81.335C82.4109 4.38318 83.441 4.59348 84.398 5.0072C85.3475 5.41833 86.189 5.99236 86.8981 6.71206ZM84.3496 26.2998V12.3584C84.3496 11.918 84.269 11.506 84.1093 11.1337C83.9454 10.7484 83.7161 10.4062 83.4308 10.1157C83.1446 9.82527 82.8066 9.59342 82.4279 9.42621C82.061 9.26503 81.656 9.18315 81.2212 9.18315H76.4164V29.4553H81.2212C81.656 29.4553 82.061 29.3742 82.4279 29.2131C82.8092 29.045 83.1489 28.8131 83.4376 28.5261C83.7212 28.2434 83.9463 27.9064 84.1085 27.5254C84.269 27.1531 84.3496 26.7411 84.3496 26.2998Z" fill="#251C4B"/>
<path d="M128.806 4.00049L115.83 34.6388H119.879L132.851 4.00049H128.806Z" fill="url(#paint0_linear_139_123)"/>
<path d="M13.2405 7.39564L32.6755 18.6512L49.0558 7.39564H13.2405ZM35.9424 20.5425L41.246 23.6152L48.6831 11.7883L35.9424 20.5425ZM12.0396 10.6364L21.7845 26.1344L29.5677 20.7872L12.0396 10.6364ZM44.2128 25.3326L52.8166 30.3152V11.6508L44.2128 25.3326ZM8.63002 11.6508V35.1729L18.9578 28.0763L8.63002 11.6508ZM23.6008 29.0232L30.7233 40.3488L39.4323 26.4998L32.8337 22.6785L23.6008 29.0232ZM30.7225 44.0005C29.6096 44.0005 28.5848 43.3853 27.9095 42.3118V42.3109L20.7742 30.9651L9.9976 38.3706C8.90354 39.1225 7.71203 39.2643 6.73336 38.7588C5.75297 38.2533 5.19141 37.2085 5.19141 35.8911V8.22945C5.19141 6.58546 6.14615 5.15752 7.53767 4.45875C7.96247 4.19206 8.57874 4.00133 9.47109 4.00049H9.47194H9.47536H51.9713H51.9747H51.9756C52.8072 4.00133 53.4013 4.1735 53.8261 4.41739C55.262 5.10098 56.2552 6.55255 56.2552 8.22945V30.7473C56.2552 32.036 55.7039 33.0876 54.7415 33.6327C53.7782 34.1762 52.579 34.1146 51.4542 33.4631L42.3982 28.2181L33.5363 42.3109C32.861 43.3853 31.8362 44.0005 30.7225 44.0005Z" fill="url(#paint1_linear_139_123)"/>
<defs>
<linearGradient id="paint0_linear_139_123" x1="115.83" y1="4.00049" x2="141.844" y2="18.4525" gradientUnits="userSpaceOnUse">
<stop stop-color="#7D58FF"/>
<stop offset="1" stop-color="#FF007D"/>
</linearGradient>
<linearGradient id="paint1_linear_139_123" x1="5.19141" y1="4.00049" x2="44.0277" y2="53.5787" gradientUnits="userSpaceOnUse">
<stop stop-color="#7D58FF"/>
<stop offset="1" stop-color="#FF007D"/>
</linearGradient>
</defs>
</svg>
