<svg width="200" height="48" viewBox="0 0 200 48" fill="none" xmlns="http://www.w3.org/2000/svg">
<path d="M12.614 31.5689C12.2713 30.5296 12.1013 29.2176 12.1013 27.4536C12.1013 25.689 12.2713 24.3743 12.614 23.3377C13.5713 20.3631 16.1072 18.7378 19.4278 18.7378C21.8938 18.7378 23.8464 19.7411 25.1491 21.3324C25.2497 21.4697 25.2837 21.677 25.1144 21.815L22.9578 23.7177C22.7858 23.857 22.6151 23.8223 22.4771 23.6497C21.6545 22.7164 20.7985 22.1964 19.4285 22.1964C17.9565 22.1964 16.8272 22.923 16.3466 24.3757C16.0746 25.2076 16.0046 26.175 16.0046 27.4543C16.0046 28.7336 16.0739 29.7362 16.3466 30.5669C16.8265 31.9835 17.9565 32.7102 19.4285 32.7102C20.7985 32.7102 21.6545 32.1909 22.4771 31.2595C22.6151 31.0842 22.7858 31.0842 22.9578 31.2229L25.1144 33.1255C25.2837 33.2635 25.2497 33.4368 25.1491 33.6102C23.8471 35.1675 21.8945 36.1695 19.4278 36.1695C16.1072 36.1681 13.5713 34.5415 12.614 31.5689Z" fill="#204156"/>
<path d="M87.4394 31.5689C87.0967 30.5296 86.9267 29.2176 86.9267 27.4536C86.9267 25.689 87.0967 24.3743 87.4394 23.3377C88.3987 20.3631 90.932 18.7378 94.2526 18.7378C96.7192 18.7378 98.6725 19.7411 99.9732 21.3324C100.075 21.4697 100.11 21.677 99.9378 21.815L97.7805 23.7177C97.6092 23.857 97.4392 23.8223 97.3019 23.6497C96.4806 22.7164 95.6239 22.1964 94.2526 22.1964C92.7813 22.1964 91.6506 22.923 91.172 24.3757C90.8973 25.2076 90.8307 26.175 90.8307 27.4543C90.8307 28.7336 90.8973 29.7362 91.172 30.5669C91.6506 31.9835 92.7813 32.7102 94.2526 32.7102C95.6239 32.7102 96.4806 32.1909 97.3019 31.2595C97.4392 31.0842 97.6099 31.0842 97.7805 31.2229L99.9378 33.1255C100.11 33.2635 100.075 33.4368 99.9732 33.6102C98.6725 35.1675 96.7192 36.1695 94.2526 36.1695C90.932 36.1681 88.3987 34.5415 87.4394 31.5689Z" fill="#204156"/>
<path d="M173.921 35.7888C173.716 35.7888 173.579 35.6515 173.579 35.4421V25.8283C173.579 23.6837 172.517 22.1957 170.461 22.1957C168.475 22.1957 167.311 23.683 167.311 25.8283V35.4421C167.311 35.6508 167.173 35.7888 166.969 35.7888H163.817C163.612 35.7888 163.474 35.6515 163.474 35.4421V25.8283C163.474 23.6837 162.413 22.1957 160.361 22.1957C158.374 22.1957 157.208 23.683 157.208 25.8283V35.4421C157.208 35.6508 157.072 35.7888 156.866 35.7888H153.715C153.508 35.7888 153.373 35.6515 153.373 35.4421V19.4637C153.373 19.2557 153.508 19.1171 153.715 19.1171H156.866C157.072 19.1171 157.208 19.2557 157.208 19.4637V20.6744H157.243C157.963 19.6364 159.4 18.7378 161.591 18.7378C163.544 18.7378 165.119 19.5317 166.111 20.9504H166.146C167.413 19.5684 169.057 18.7378 171.421 18.7378C175.255 18.7378 177.414 21.3657 177.414 24.9283V35.4415C177.414 35.6508 177.276 35.7888 177.07 35.7888H173.921Z" fill="#204156"/>
<path d="M182.172 42.0134C181.967 42.0134 181.83 41.8747 181.83 41.666V38.9001C181.83 38.6934 181.967 38.5528 182.172 38.5528H182.789C184.09 38.5528 184.742 37.9674 185.255 36.5828L185.735 35.1648L179.707 19.4631C179.638 19.2551 179.776 19.1164 179.982 19.1164H183.372C183.577 19.1164 183.714 19.2551 183.781 19.4631L187.516 30.3576H187.583L191.146 19.4631C191.214 19.2551 191.352 19.1164 191.555 19.1164H194.808C195.015 19.1164 195.152 19.2551 195.082 19.4631L188.782 36.8248C187.345 40.7681 185.973 42.012 183.234 42.012L182.172 42.0134Z" fill="#204156"/>
<path d="M28.2997 31.5702C27.923 30.3922 27.7517 29.2862 27.7517 27.4536C27.7517 25.6236 27.923 24.5163 28.2997 23.343C29.2243 20.4377 31.7563 18.7424 35.1116 18.7424C38.4315 18.7424 40.9648 20.4371 41.8895 23.343C42.2641 24.5163 42.4368 25.6236 42.4368 27.4536C42.4368 29.2862 42.2641 30.3922 41.8895 31.5702C40.9641 34.4735 38.4315 36.1675 35.1116 36.1675C31.7563 36.1681 29.2243 34.4742 28.2997 31.5702ZM38.1922 30.5329C38.4669 29.6696 38.5349 28.8729 38.5349 27.4543C38.5349 26.0396 38.4669 25.2776 38.1922 24.3797C37.7135 22.9977 36.6516 22.2004 35.1116 22.2004C33.5723 22.2004 32.475 22.9977 31.997 24.3797C31.7243 25.2783 31.655 26.0396 31.655 27.4543C31.655 28.8729 31.7243 29.6696 31.997 30.5329C32.475 31.9175 33.5729 32.7102 35.1116 32.7102C36.6516 32.7095 37.7135 31.9169 38.1922 30.5329Z" fill="#204156"/>
<path d="M109.15 18.7378C106.444 18.7378 104.63 19.3944 103.293 20.3631C103.158 20.4684 103.122 20.6391 103.226 20.8117L104.49 23.0957C104.596 23.269 104.799 23.3037 104.972 23.165C105.76 22.5437 106.888 22.023 108.739 22.023C111.437 22.023 112.353 22.8417 112.4 24.641H112.4V24.663C112.402 24.705 112.402 24.7477 112.402 24.7923V30.1882C112.402 32.0902 111.101 33.0222 108.739 33.0222C106.888 33.0222 105.896 32.3322 105.896 30.9496C105.896 29.3922 106.993 28.6989 109.458 28.6989L110.207 28.7003C110.412 28.7003 110.55 28.5616 110.55 28.3556V26.1383C110.55 25.9316 110.412 25.7936 110.207 25.7936L108.842 25.793C104.767 25.793 102.23 27.4556 102.23 31.0849C102.23 34.5788 104.767 36.1688 107.779 36.1688C110.106 36.1688 111.648 35.3741 112.436 34.2328H112.469V35.4435C112.469 35.6515 112.608 35.7901 112.812 35.7901H115.688C115.894 35.7901 116.032 35.6521 116.032 35.4435V24.549C116.032 20.4684 114.184 18.7378 109.15 18.7378Z" fill="#204156"/>
<path d="M68.2364 25.7916C68.147 25.7916 68.0884 25.851 68.0884 25.9403V28.5483C68.0884 28.6376 68.147 28.6976 68.2364 28.6976H76.7162C76.9562 28.6976 77.0935 28.5603 77.0935 28.3543C77.0935 25.6543 76.9209 24.5123 76.5456 23.3377C75.6196 20.5017 73.1549 18.7384 69.7643 18.7384C66.4771 18.7384 63.9438 20.4324 63.0178 23.3377C62.6771 24.4097 62.4698 25.7243 62.4698 27.4536C62.4698 29.1829 62.7098 30.4616 63.0544 31.5349C63.9784 34.4388 66.4431 36.1681 69.9357 36.1681C72.9823 36.1681 75.3129 34.9922 76.7156 33.3322C76.8515 33.1602 76.8515 32.9875 76.6809 32.8475L74.6623 31.0495C74.4896 30.9116 74.3189 30.9476 74.1469 31.1189C73.3263 32.0189 72.1276 32.7102 70.2783 32.7102C68.431 32.7102 67.1284 31.8115 66.5804 30.1869C66.4977 29.9596 66.4291 29.7209 66.3857 29.4616H66.3851C66.2604 28.7576 66.1871 28.0723 66.1871 27.0656C66.2137 26.117 66.2684 25.511 66.4031 24.741C66.4044 24.7303 66.4064 24.721 66.4084 24.711C66.4097 24.703 66.4111 24.697 66.4124 24.689V24.6897C66.4451 24.5083 66.4897 24.3377 66.5451 24.1677C66.9904 22.819 68.223 22.0237 69.7997 22.0237C71.341 22.0237 72.5716 22.819 73.0169 24.1677C73.1549 24.585 73.2223 24.9977 73.2223 25.587C73.2223 25.725 73.1543 25.793 73.0169 25.793H68.5177L68.5184 25.7923L68.2364 25.7916Z" fill="#204156"/>
<path d="M59.2885 12.2719H56.1432C55.9359 12.2719 55.7992 12.4099 55.7992 12.6152V28.3723H55.7819C55.7452 29.3256 55.6419 29.9522 55.4586 30.5396C55.0139 31.9195 53.9519 32.6789 52.3806 32.6789C50.842 32.6789 49.7827 31.9195 49.336 30.5396C49.0973 29.7789 48.996 28.9509 48.996 27.4316C48.996 25.913 49.0973 25.083 49.336 24.325C49.774 22.971 50.7993 22.2064 52.2873 22.1764H53.6299C53.6953 22.1604 53.7379 22.109 53.7379 22.0344L53.7553 18.8771C53.7553 18.7964 53.7046 18.7424 53.6299 18.7331L52.5579 18.7291H51.298V18.7298C48.5414 18.7591 46.5234 20.1031 45.6781 22.733C45.2674 24.0123 45.0967 25.1883 45.0967 27.4316C45.0967 29.6756 45.2674 30.8502 45.6781 32.1269C46.5327 34.7868 48.5847 36.1335 51.388 36.1335C53.6119 36.1335 54.9799 35.3061 55.7646 34.1648H55.7979V35.4081C55.7979 35.6161 55.9352 35.7541 56.1419 35.7541H59.2872C59.4925 35.7541 59.6298 35.6168 59.6298 35.4081V12.6152C59.6312 12.4092 59.4938 12.2719 59.2885 12.2719Z" fill="#204156"/>
<path d="M141.744 25.7916C141.656 25.7916 141.596 25.851 141.596 25.9403V28.5483C141.596 28.6376 141.656 28.6976 141.744 28.6976H150.226C150.465 28.6976 150.602 28.5603 150.602 28.3543C150.602 25.6543 150.43 24.5123 150.055 23.3377C149.129 20.5017 146.664 18.7384 143.274 18.7384C139.986 18.7384 137.453 20.4324 136.527 23.3377C136.186 24.4097 135.979 25.7243 135.979 27.4536C135.979 29.1829 136.219 30.4616 136.564 31.5349C137.487 34.4388 139.952 36.1681 143.445 36.1681C146.492 36.1681 148.822 34.9922 150.226 33.3322C150.362 33.1602 150.362 32.9875 150.19 32.8475L148.172 31.0495C148 30.9116 147.829 30.9476 147.657 31.1189C146.836 32.0189 145.638 32.7102 143.788 32.7102C141.94 32.7102 140.638 31.8115 140.09 30.1869C140.008 29.9596 139.938 29.7209 139.896 29.4616H139.896C139.77 28.7576 139.697 28.0723 139.697 27.0656C139.723 26.117 139.777 25.511 139.912 24.741C139.915 24.7303 139.917 24.721 139.918 24.711C139.919 24.703 139.92 24.697 139.922 24.689V24.6897C139.956 24.5083 140 24.3377 140.055 24.1677C140.5 22.819 141.733 22.0237 143.31 22.0237C144.851 22.0237 146.082 22.819 146.527 24.1677C146.664 24.585 146.733 24.9977 146.733 25.587C146.733 25.725 146.664 25.793 146.527 25.793H142.028V25.7923L141.744 25.7916Z" fill="#204156"/>
<path d="M129.808 12.2719C129.602 12.2719 129.465 12.4105 129.465 12.6159V28.3963C129.411 29.3509 129.307 29.9782 129.123 30.5662C128.678 31.9489 127.614 32.7102 126.041 32.7102C124.501 32.7102 123.44 31.9489 122.993 30.5662C122.755 29.8042 122.651 28.9756 122.651 27.4536C122.651 25.933 122.753 25.101 122.993 24.3423C123.431 22.9864 124.458 22.2277 125.949 22.1977L127.293 22.1984C127.499 22.1984 127.637 22.0604 127.637 21.8544V19.0831C127.637 18.8764 127.499 18.7384 127.293 18.7384L124.958 18.7378C122.198 18.7671 120.177 20.1137 119.331 22.7477C118.92 24.029 118.749 25.2056 118.749 27.4523C118.749 29.6996 118.92 30.8769 119.331 32.1555C120.186 34.8182 122.242 36.1675 125.049 36.1675C127.276 36.1675 128.646 35.3395 129.433 34.1962L129.466 35.4408C129.466 35.6501 129.603 35.7875 129.81 35.7875H132.961C133.166 35.7875 133.304 35.6508 133.304 35.4408V12.6159C133.301 12.4099 133.164 12.2719 132.959 12.2719H129.808Z" fill="#204156"/>
<path d="M87.182 40.5041V43.6553C87.182 43.8627 87.3194 44 87.5254 44H99.2025C99.4112 44 99.5492 43.862 99.5492 43.6553V40.5041C99.5492 40.2994 99.4112 40.1614 99.2025 40.1614H87.5254C87.3194 40.1614 87.182 40.2994 87.182 40.5041Z" fill="#204156"/>
<path d="M84.2174 4.11133C84.2121 4.106 84.2088 4.09933 84.2041 4.09467C84.2034 4.094 84.2028 4.094 84.2028 4.094C84.1428 4.03467 84.0574 4 83.9561 4H5.24341C5.21741 4 5.19274 4.00267 5.16874 4.00667C5.16208 4.008 5.15608 4.01067 5.14874 4.012C5.13341 4.016 5.11674 4.01933 5.10274 4.02533C5.10008 4.026 5.09808 4.02733 5.09608 4.02867C4.97408 4.07867 4.89941 4.19266 4.89941 4.34333V43.6533C4.89941 43.7733 4.94608 43.8673 5.02475 43.9273C5.03075 43.9333 5.03608 43.9387 5.04408 43.9427V43.9433C5.09874 43.978 5.16541 43.9967 5.24341 43.9967H83.9554C84.0714 43.9967 84.1654 43.952 84.2248 43.8753C84.2714 43.818 84.2988 43.7427 84.2988 43.6527V4.34333C84.2988 4.24933 84.2688 4.17 84.2174 4.11133ZM9.07668 40.1601C9.05201 40.1601 9.02801 40.1581 9.00668 40.1547C9.00001 40.1534 8.99268 40.1501 8.98601 40.1481C8.97001 40.1447 8.95401 40.1414 8.93935 40.1354C8.93668 40.1347 8.93535 40.1327 8.93268 40.1321C8.81135 40.0827 8.73735 39.9694 8.73668 39.8201V8.17993C8.73668 8.0286 8.81135 7.91594 8.93268 7.86527C8.93601 7.8646 8.93801 7.8626 8.94001 7.86194C8.95401 7.8566 8.99935 7.84527 9.00668 7.84327C9.02935 7.83994 9.05334 7.83794 9.07801 7.83794H80.1195C80.1448 7.83794 80.1682 7.83994 80.1908 7.84327C80.1982 7.84527 80.2048 7.84794 80.2108 7.84994C80.2268 7.85327 80.2428 7.8566 80.2575 7.8626C80.2608 7.86327 80.2622 7.86527 80.2648 7.86594C80.3868 7.91594 80.4608 8.02927 80.4608 8.1806V39.8207C80.4602 39.9707 80.3855 40.0841 80.2655 40.1334C80.2628 40.1341 80.2615 40.1361 80.2582 40.1367C80.2442 40.1421 80.2275 40.1461 80.2122 40.1494C80.2048 40.1514 80.1988 40.1547 80.1915 40.1561C80.1688 40.1601 80.1468 40.1614 80.1222 40.1614H9.07668V40.1601Z" fill="#204156"/>
</svg>
