<svg width="160" height="160" viewBox="0 0 160 160" fill="none" xmlns="http://www.w3.org/2000/svg">
<path d="M80 156C121.974 156 156 121.974 156 80.0005C156 38.0268 121.974 4.00049 80 4.00049C38.0264 4.00049 4 38.0268 4 80.0005C4 121.974 38.0264 156 80 156Z" fill="white"/>
<path d="M41.2208 109.549C41.3787 109.728 41.4992 109.886 41.6363 110.036C41.7735 110.185 41.9647 110.339 42.1226 110.48C41.6322 111.453 41.0878 112.6 40.6223 113.738L42.8291 115.987C43.9221 115.542 45.0234 115.102 46.1081 114.541C46.2204 114.674 46.2993 114.786 46.4032 114.894C46.5076 114.995 46.6187 115.09 46.7357 115.176L37.763 118.435L37.5635 118.231L41.2208 109.549ZM39.0638 117.421L42.3013 116.174L40.3896 114.225L39.0638 117.421Z" fill="#B50C00"/>
<path d="M28.3705 105.693C30.8018 103.789 33.2122 101.869 35.045 100.323C35.153 100.518 35.2279 100.676 35.3276 100.834C35.4273 100.992 35.5603 101.154 35.6725 101.304C33.6652 102.812 31.5166 104.45 30.569 105.248C33.5281 105.094 35.7889 104.932 37.6342 104.649L37.7048 104.762L36.8736 106.083C35.9094 107.625 35.0034 109.217 34.0891 110.784C36.2918 109.728 38.5609 108.706 39.8576 107.874C39.9324 108.016 39.9864 108.145 40.0571 108.257C40.1421 108.381 40.2337 108.5 40.3314 108.614C38.457 109.408 33.6486 111.544 32.4766 112.134L32.3021 111.864C33.4449 109.977 34.7956 107.708 35.9385 105.443C33.5031 105.58 31.0511 105.772 28.491 105.9L28.3705 105.693Z" fill="#B50C00"/>
<path d="M29.3887 98.9724L28.6739 97.1895C28.5368 96.8445 28.3581 96.5328 28.2084 96.192C28.3155 96.1696 28.421 96.1405 28.5243 96.1048C28.6157 96.0715 28.7113 96.005 28.836 95.9468C28.9607 96.2959 29.0479 96.645 29.1851 96.99L29.8958 98.7729L33.287 97.443C33.0294 96.7323 32.7052 96.0591 32.406 95.365C32.2539 95.0145 32.079 94.6744 31.8823 94.3468C32.0111 94.3094 32.1275 94.2928 32.2439 94.2471C32.3576 94.1946 32.4686 94.1364 32.5764 94.0725L34.2387 98.2285L26.3424 101.329L24.7091 97.2477C24.8313 97.2191 24.952 97.1844 25.0707 97.1438C25.1858 97.0928 25.2981 97.0359 25.4073 96.9734C25.4769 97.3413 25.5728 97.7038 25.6941 98.0581L26.1305 99.2176L26.4837 100.103L29.3887 98.9724Z" fill="#B50C00"/>
<path d="M23.6078 93.8273L23.0176 91.2631C22.6021 89.4054 23.0176 88.4453 24.2644 88.1669C25.6775 87.851 26.6458 88.9482 27.1487 90.116L29.7503 86.916L30.2989 86.1845L30.5524 85.8853C30.5981 86.1388 30.623 86.3632 30.6729 86.5918C30.7228 86.8204 30.8059 87.0573 30.8683 87.2692C30.5524 87.6225 30.2698 87.9383 29.9872 88.2708L28.4536 90.1119L27.531 91.3337L27.6349 91.795L31.6994 90.8724C31.7327 91.0677 31.7493 91.2423 31.7867 91.4127C31.8241 91.5831 31.8948 91.7701 31.9446 91.9363L23.6078 93.8273ZM27.157 91.9114C27.0819 91.3824 26.9424 90.8646 26.7414 90.3696C26.5903 89.9606 26.2974 89.6195 25.9161 89.4083C25.5347 89.197 25.0902 89.1296 24.6634 89.2183C24.4732 89.2457 24.2903 89.3106 24.1254 89.4093C23.9604 89.508 23.8168 89.6384 23.7027 89.7931C23.5886 89.9478 23.5064 90.1236 23.4609 90.3103C23.4153 90.497 23.4074 90.6909 23.4374 90.8807C23.5197 91.4822 23.6517 92.0757 23.8322 92.6553L27.157 91.9114Z" fill="#B50C00"/>
<path d="M21.9163 84.8463C21.9163 84.6717 21.9163 84.4847 21.8955 84.3018C21.8748 84.119 21.8374 83.9611 21.8041 83.7657L30.2947 82.9096C30.2947 83.1091 30.2947 83.2836 30.3155 83.454C30.3363 83.6244 30.3778 83.8198 30.4069 83.9943L21.9163 84.8463Z" fill="#B50C00"/>
<path d="M29.6506 73.6834C30.1245 74.5195 30.3454 75.4753 30.2864 76.4346C30.2116 79.1526 28.4329 80.736 25.7149 80.6654C22.9096 80.5864 21.3677 78.4918 21.4425 75.886C21.4768 74.9705 21.6959 74.0714 22.0867 73.2429C22.3955 73.3685 22.7156 73.4645 23.0426 73.5296V73.6169C22.7062 73.9093 22.432 74.2664 22.2364 74.667C22.0408 75.0675 21.9277 75.5033 21.9039 75.9484C21.8415 78.2217 23.6701 79.3978 25.7897 79.4518C28.1877 79.5183 29.7586 78.2051 29.8126 76.2476C29.8056 75.2847 29.4748 74.3523 28.8734 73.6003L29.6506 73.6834Z" fill="#B50C00"/>
<path d="M31.953 64.6275C31.8906 64.8561 31.8241 65.0431 31.7826 65.2509C31.741 65.4587 31.7161 65.6915 31.6828 65.8993C30.594 66.0406 29.3305 66.2318 28.117 66.4853L27.4687 69.5607C28.4536 70.2048 29.4344 70.8656 30.5108 71.4392C30.4651 71.6096 30.4111 71.7342 30.382 71.8797C30.3529 72.0251 30.3446 72.1748 30.328 72.2953L22.5854 66.7679L22.6478 66.4894L31.953 64.6275ZM24.1564 67.2541L27.0032 69.224L27.5643 66.5601L24.1564 67.2541Z" fill="#B50C00"/>
<path d="M35.4024 56.1868L35.2528 56.5276C35.0408 56.5858 34.6668 56.698 34.3011 56.8268L26.6998 59.4326L26.6541 59.5448L32.8465 62.1506C32.783 62.2486 32.7248 62.3499 32.6719 62.454C32.6262 62.5662 32.6054 62.6784 32.5722 62.7865L24.7133 59.4617L24.9045 59.017L33.1374 56.1078L33.1873 55.9915L27.2692 53.4979C27.3326 53.3992 27.3896 53.2965 27.4396 53.1904C27.4809 53.0817 27.5156 52.9707 27.5435 52.8579L35.4024 56.1868Z" fill="#B50C00"/>
<path d="M37.5593 49.5996C38.4903 49.6993 39.2217 49.5622 39.8202 48.7975C39.9601 48.6116 40.0613 48.3995 40.1177 48.1738C40.1742 47.9481 40.1846 47.7133 40.1486 47.4834C40.1125 47.2536 40.0307 47.0333 39.9079 46.8357C39.7851 46.6381 39.6238 46.4671 39.4337 46.333C37.5926 44.9325 36.0258 48.6188 33.7857 46.919C32.5099 45.9465 32.6636 44.4711 33.5738 43.295C33.96 42.7796 34.5117 42.4127 35.1364 42.256C35.3166 42.5643 35.5195 42.8588 35.7432 43.1371L35.6684 43.2368C35.3471 43.1269 34.9992 43.1219 34.6749 43.2228C34.3507 43.3237 34.0669 43.5251 33.8647 43.7979C33.7315 43.9465 33.6304 44.121 33.5679 44.3106C33.5054 44.5001 33.4828 44.7005 33.5016 44.8992C33.5203 45.0979 33.58 45.2906 33.6768 45.4651C33.7736 45.6396 33.9055 45.7922 34.0642 45.9133C35.8845 47.2972 37.5469 43.6524 39.6539 45.2566C41.0711 46.333 41.067 48.0619 40.0321 49.4126C39.6623 49.8905 38.8435 50.5181 38.2201 50.5721C38.0034 50.2635 37.757 49.9767 37.4845 49.716L37.5593 49.5996Z" fill="#B50C00"/>
<path d="M39.8659 42.468C38.0248 40.4606 38.3739 37.8465 40.2815 36.126C42.0187 34.5633 44.6411 33.9067 46.6526 36.1052C48.5269 38.1458 48.29 40.7931 46.237 42.6467C44.1839 44.5002 41.6613 44.4254 39.8659 42.468ZM43.3902 35.5026C42.9012 35.4291 42.402 35.4656 41.929 35.6093C41.4559 35.7531 41.0209 36.0006 40.6555 36.3338C39.0306 37.7967 39.1677 39.8954 40.8716 41.7365C42.5756 43.5776 44.612 43.5319 45.9835 42.2934C47.9368 40.5438 46.8147 37.9172 45.8214 36.9655C45.2077 36.2077 44.3471 35.6899 43.3902 35.5026Z" fill="#B50C00"/>
<path d="M56.7848 34.4553C56.3215 35.3016 55.6248 35.997 54.7775 36.4585C52.4211 37.8507 50.1187 37.2065 48.7181 34.8834C47.2801 32.4937 48.2443 30.0832 50.5052 28.7492C51.3042 28.288 52.1873 27.9913 53.1026 27.8764C53.1609 28.2018 53.2514 28.5206 53.3728 28.8281L53.3021 28.8822C52.8714 28.7556 52.4197 28.7166 51.9736 28.7673C51.5275 28.8179 51.096 28.9573 50.7046 29.1772C48.7306 30.3409 48.7056 32.502 49.7945 34.3057C51.0413 36.3421 52.9863 36.953 54.6819 35.9681C55.4938 35.4478 56.1105 34.6732 56.4357 33.7654L56.7848 34.4553Z" fill="#B50C00"/>
<path d="M55.9162 26.2597C56.0825 26.2016 56.2653 26.1517 56.4357 26.0769C56.6061 26.0021 56.7474 25.919 56.9261 25.8317L60.3049 33.595C60.1137 33.6615 59.9433 33.7072 59.7854 33.7779C59.6174 33.8518 59.4537 33.935 59.295 34.0272L55.9162 26.2597Z" fill="#B50C00"/>
<path d="M62.5242 27.6769L64.3736 27.1159C64.731 27.0078 65.0635 26.8582 65.4167 26.7377C65.4308 26.8439 65.4502 26.9493 65.4749 27.0535C65.504 27.1491 65.5622 27.2489 65.6162 27.3735C65.2546 27.4733 64.8931 27.5315 64.5357 27.6395L62.6863 28.1964L63.7502 31.65C64.4858 31.4547 65.1882 31.1887 65.8947 30.9477C66.2593 30.8241 66.6159 30.6784 66.9627 30.5113C66.9877 30.6443 67.0002 30.7565 67.0334 30.8729C67.0666 30.9892 67.1331 31.1056 67.1789 31.2178L62.8733 32.5228L60.3797 24.4727L64.6188 23.1885C64.6479 23.3256 64.6562 23.4378 64.6936 23.5542C64.7335 23.6726 64.7821 23.7879 64.8391 23.8992C64.4627 23.9406 64.0893 24.0059 63.7211 24.0945L62.5242 24.4311L61.6016 24.7137L62.5242 27.6769Z" fill="#B50C00"/>
<path d="M72.3156 30.3575C72.1161 30.3783 71.9416 30.3783 71.767 30.4032C71.5925 30.4282 71.4013 30.4864 71.2309 30.5238L70.0465 22.7272C69.1429 22.8604 68.2478 23.0464 67.3659 23.2841C67.3672 23.1591 67.3603 23.0341 67.3451 22.91C67.321 22.788 67.2905 22.6673 67.2537 22.5485L73.6206 21.5885C73.6206 21.7214 73.6206 21.8378 73.6206 21.9583C73.6206 22.0789 73.6829 22.1994 73.7162 22.3199C72.8449 22.3504 71.9762 22.4323 71.1146 22.5651L72.3156 30.3575Z" fill="#B50C00"/>
<path d="M80.054 29.8754C79.8545 29.8754 79.68 29.8339 79.5054 29.8297C79.3309 29.8256 79.1314 29.8505 78.9568 29.8588L79.015 26.2971L76.0394 21.3557C76.2638 21.3557 76.4965 21.4014 76.7376 21.4056C76.9786 21.4097 77.1532 21.4056 77.4233 21.3765C77.8929 22.3365 79.335 24.9548 79.7257 25.5574C80.1413 25.067 81.8037 22.1038 82.1777 21.4555C82.3273 21.4555 82.5019 21.497 82.664 21.5012C82.826 21.5053 82.9757 21.5012 83.1502 21.4679C82.8344 21.8586 82.5268 22.2742 82.2442 22.6898L80.852 24.8592C80.5843 25.2493 80.3441 25.6576 80.133 26.081L80.054 29.8754Z" fill="#B50C00"/>
<path d="M89.1888 26.3595C89.9327 23.7537 92.3557 22.6607 94.8451 23.3547C97.1018 23.9823 99.0509 25.8483 98.2405 28.6951C97.4841 31.3466 95.0903 32.5519 92.4221 31.8038C89.754 31.0557 88.4657 28.9237 89.1888 26.3595ZM97.0228 25.6322C96.8229 25.1806 96.5243 24.7796 96.1488 24.4588C95.7733 24.138 95.3307 23.9056 94.8534 23.7786C92.738 23.1885 91.0133 24.4145 90.3275 26.8333C89.6418 29.252 90.7722 30.9227 92.5593 31.4048C95.0944 32.1155 96.7444 29.7757 97.0353 28.4416C97.3678 27.5339 97.3633 26.5369 97.0228 25.6322Z" fill="#B50C00"/>
<path d="M102.7 26.3304L106.681 28.2588C106.609 28.3605 106.543 28.4659 106.482 28.5746C106.428 28.6868 106.394 28.8073 106.349 28.9237C106.046 28.6999 105.73 28.4959 105.401 28.3128L104.292 27.7476L103.427 27.332L102.047 30.1165L103.785 30.9477C104.121 31.1139 104.466 31.2261 104.807 31.3633C104.744 31.4498 104.685 31.54 104.632 31.6334C104.587 31.7207 104.562 31.8329 104.512 31.9617C104.184 31.7872 103.88 31.5835 103.543 31.4214L101.806 30.5903L99.9278 34.3888C99.7533 34.2891 99.6078 34.1893 99.4499 34.1145C99.2919 34.0397 99.1049 33.9732 98.9428 33.9109L102.7 26.3304Z" fill="#B50C00"/>
<path d="M118.671 36.82C118.796 36.9406 118.921 37.0819 119.062 37.2024C119.203 37.3229 119.344 37.4102 119.507 37.5266L113.95 43.9475C113.805 43.8104 113.688 43.6774 113.555 43.5652C113.422 43.4529 113.256 43.3449 113.115 43.241L115.907 40.0118C115.251 39.4217 114.623 38.8398 113.958 38.2746C113.293 37.7094 112.62 37.1858 111.922 36.6122L109.112 39.858C108.971 39.7209 108.855 39.5879 108.722 39.4757C108.589 39.3635 108.418 39.2513 108.277 39.1474L113.834 32.7306C113.958 32.8511 114.083 32.9924 114.228 33.1129C114.374 33.2334 114.511 33.3166 114.669 33.4371L112.338 36.1301C113.002 36.7286 113.642 37.3188 114.295 37.8757C114.947 38.4325 115.637 38.9645 116.327 39.5172L118.671 36.82Z" fill="#B50C00"/>
<path d="M120.171 43.7937L121.418 45.2691C121.659 45.5559 121.929 45.8011 122.175 46.0795C122.08 46.1327 121.989 46.1909 121.9 46.2541C121.826 46.3206 121.755 46.4078 121.655 46.5034C121.427 46.2125 121.24 45.905 120.999 45.6182L119.752 44.1428L116.942 46.4411C117.408 47.0354 117.923 47.5757 118.422 48.1326C118.681 48.4192 118.959 48.6885 119.253 48.9388C119.137 49.0178 119.033 49.0676 118.937 49.1466C118.845 49.23 118.757 49.3188 118.675 49.4126L115.787 45.9631L122.337 40.602L125.163 43.9849C125.053 44.0479 124.948 44.1173 124.847 44.1927C124.755 44.2747 124.667 44.3621 124.585 44.4545C124.401 44.1275 124.197 43.8125 123.974 43.5111L123.197 42.5428L122.586 41.8072L120.171 43.7937Z" fill="#B50C00"/>
<path d="M131.555 54.3249C129.011 56.0829 126.493 57.8533 124.568 59.2871C124.473 59.0877 124.411 58.9256 124.319 58.7635C124.228 58.6014 124.103 58.4269 124.003 58.2689C126.081 56.885 128.334 55.3805 129.331 54.6366C126.372 54.6158 124.103 54.6366 122.233 54.8195L122.166 54.699L123.072 53.4272C124.128 51.9477 125.125 50.4142 126.135 48.9014C123.87 49.8282 121.564 50.7176 120.201 51.4532C120.134 51.3077 120.088 51.1747 120.022 51.0583C119.955 50.942 119.856 50.809 119.773 50.6843C121.688 50.0027 126.617 48.1575 127.827 47.638L127.985 47.9206C126.738 49.7326 125.254 51.8978 123.966 54.113C126.405 54.113 128.862 54.0756 131.447 54.113L131.555 54.3249Z" fill="#B50C00"/>
<path d="M127.307 68.0645C127.249 67.8359 127.216 67.6489 127.153 67.4411C127.091 67.2333 127 67.0255 126.925 66.8219C127.81 66.1819 128.828 65.4089 129.768 64.6109L128.845 61.6062C127.669 61.5106 126.484 61.3984 125.263 61.4067C125.221 61.2363 125.204 61.0991 125.163 60.9578C125.121 60.8165 125.051 60.6835 125.001 60.5422L134.464 61.7308L134.547 62.001L127.307 68.0645ZM132.868 62.0467L129.414 61.681L130.212 64.2826L132.868 62.0467Z" fill="#B50C00"/>
<path d="M127.814 71.8589C127.814 71.6636 127.814 71.489 127.769 71.3145C127.723 71.1399 127.69 70.9529 127.652 70.7825L135.528 69.623C135.398 68.7274 135.213 67.8405 134.975 66.9674C135.101 66.9668 135.228 66.9598 135.353 66.9466C135.477 66.9225 135.599 66.892 135.719 66.8551L136.666 73.1639C136.542 73.1641 136.417 73.1711 136.292 73.1847C136.169 73.2068 136.046 73.2373 135.927 73.2761C135.9 72.4132 135.821 71.5527 135.69 70.6994L127.814 71.8589Z" fill="#B50C00"/>
<path d="M132.648 75.3416C135.378 75.4164 137.045 77.4778 136.974 80.0378C136.908 82.361 135.569 84.6842 132.577 84.6094C129.793 84.5304 128.026 82.5314 128.105 79.7719C128.184 77.0123 129.98 75.271 132.648 75.3416ZM135.295 82.6852C135.687 82.3875 136.006 82.0046 136.229 81.5654C136.451 81.1263 136.571 80.6423 136.579 80.1501C136.642 77.9765 135.017 76.6175 132.486 76.551C129.955 76.4845 128.587 77.9765 128.537 79.8176C128.463 82.4234 131.156 83.4374 132.531 83.3875C133.507 83.4867 134.485 83.2379 135.295 82.6852Z" fill="#B50C00"/>
<path d="M128.026 87.743C127.843 88.4786 127.739 89.2142 127.611 89.9456C127.54 90.3363 127.511 90.7187 127.478 91.1176C127.345 91.0761 127.241 91.0303 127.12 91.0054C127 90.9805 126.871 90.9763 126.746 90.9639L127.677 86.5627L135.989 88.2874C135.943 88.4537 135.881 88.6324 135.839 88.8111C135.798 88.9898 135.794 89.156 135.765 89.3513L128.026 87.743Z" fill="#B50C00"/>
<path d="M130.366 94.1723C132.897 95.1946 133.724 97.7048 132.747 100.074C131.862 102.227 129.784 103.935 127.008 102.812C124.431 101.774 123.488 99.2841 124.544 96.7323C125.599 94.1806 127.893 93.154 130.366 94.1723ZM130.216 101.961C130.689 101.818 131.124 101.572 131.488 101.239C131.852 100.905 132.136 100.494 132.319 100.036C133.151 98.0207 132.112 96.1879 129.768 95.2362C127.424 94.2845 125.612 95.2154 124.909 96.9193C123.916 99.334 126.073 101.221 127.378 101.657C128.261 102.083 129.267 102.183 130.216 101.94V101.961Z" fill="#B50C00"/>
<path d="M123.421 112.874C123.943 112.805 124.443 112.625 124.89 112.347C125.336 112.069 125.718 111.699 126.011 111.262C127.216 109.533 126.9 107.546 124.822 106.129C122.744 104.712 120.799 104.92 119.419 106.927C119.026 107.466 118.766 108.092 118.663 108.751L121.306 110.551C121.198 110.688 121.069 110.829 120.965 110.966C120.861 111.104 120.787 111.266 120.683 111.436L117.773 109.454C118.082 108.35 118.572 107.305 119.224 106.362C121.015 103.785 123.38 103.66 125.479 105.086C127.881 106.723 127.972 109.296 126.389 111.557C125.801 112.491 124.971 113.248 123.987 113.747C123.791 113.481 123.571 113.227 123.359 112.974L123.421 112.874Z" fill="#B50C00"/>
<path d="M113.368 113.373C113.518 113.244 113.659 113.14 113.784 113.02C113.908 112.899 114.033 112.737 114.145 112.604L116.68 115.127L122.337 116.465C122.166 116.614 121.979 116.76 121.813 116.926C121.647 117.092 121.522 117.25 121.352 117.433C120.329 117.097 117.429 116.294 116.722 116.153C116.772 116.797 117.769 120.035 117.969 120.754C117.852 120.849 117.711 120.953 117.595 121.065C117.478 121.178 117.391 121.302 117.275 121.431C117.217 120.932 117.129 120.425 117.025 119.935L116.444 117.441C116.348 116.978 116.219 116.523 116.057 116.078L113.368 113.373Z" fill="#B50C00"/>
<path d="M52.5914 120.849C52.5914 120.849 52.3462 120.018 51.7603 120.018C51.7603 120.018 50.9748 120.151 51.4444 120.883C51.7335 121.083 52.0826 121.178 52.4335 121.153C52.4173 121.286 52.4347 121.421 52.4839 121.546C52.5332 121.671 52.6128 121.781 52.7155 121.867C52.8183 121.954 52.941 122.013 53.0724 122.04C53.2039 122.067 53.34 122.06 53.4683 122.021L53.6471 122.4C53.6471 122.4 54.1666 122.911 54.4118 122.931C54.4118 122.931 54.7941 123.534 54.9271 123.688C54.9271 123.688 55.7167 123.754 55.8289 123.401C55.8289 123.401 56.2986 122.665 55.1972 122.686L55.1058 122.636C55.1058 122.636 54.6486 121.39 53.9837 121.556C53.9849 121.456 53.9635 121.357 53.921 121.267C53.8786 121.177 53.8162 121.097 53.7386 121.034C53.661 120.972 53.5703 120.927 53.4731 120.904C53.3759 120.882 53.2748 120.881 53.1774 120.903L52.5914 120.849Z" fill="#B50C00"/>
<path d="M49.3872 123.709C49.3872 123.709 49.8028 122.412 48.3274 122.641C48.3274 122.641 47.596 123.251 48.4812 123.887L49.4828 123.908C49.4828 123.908 49.2334 124.739 50.9291 124.881C50.9291 124.881 51.1576 124.881 51.2158 125.014C51.2158 125.014 51.0995 125.758 52.8782 125.625C52.9446 125.666 53.0036 125.718 53.0527 125.778C53.3506 125.926 53.6865 125.979 54.0155 125.931C54.3445 125.883 54.6509 125.735 54.8938 125.508C54.9402 125.463 54.9984 125.432 55.0617 125.419C55.125 125.406 55.1907 125.411 55.2513 125.433C55.3635 125.509 55.4914 125.559 55.6256 125.58C55.7597 125.6 55.8966 125.589 56.0263 125.55C56.1559 125.51 56.2749 125.441 56.3746 125.349C56.4742 125.257 56.5519 125.144 56.6019 125.018C56.6019 125.018 56.6435 124.922 56.7931 124.968C56.7931 124.968 57.6243 125.467 57.8944 124.843C57.9277 124.843 58.1106 124.793 58.202 124.91C58.202 124.91 58.9958 125.516 59.3449 124.802C59.3449 124.802 59.5194 124.673 59.5984 124.802C59.6424 124.902 59.7089 124.99 59.7926 125.06C59.8764 125.13 59.9751 125.18 60.0813 125.206C60.1874 125.231 60.298 125.232 60.4045 125.208C60.5111 125.184 60.6107 125.136 60.6956 125.068C60.6956 125.068 60.8992 125.005 60.9491 125.147C61.0772 125.294 61.2485 125.398 61.4387 125.442C61.6289 125.487 61.8284 125.471 62.0088 125.396C62.0088 125.396 62.1543 125.375 62.1751 125.496C62.2165 125.707 62.3385 125.894 62.5153 126.018C62.6921 126.141 62.9098 126.191 63.1226 126.156C63.1226 126.156 63.2972 126.156 63.2723 126.306C63.2473 126.456 63.7294 127.171 63.958 127.112C63.958 127.112 64.5814 126.614 64.6188 126.364C64.6188 126.364 64.5523 125.849 63.613 125.753C63.613 125.753 63.5549 125.828 63.5465 125.591C63.5382 125.354 63.6546 124.382 62.4992 125.047C62.4992 125.047 62.1543 125.126 62.1335 124.947C62.1335 124.947 61.7179 123.729 61.1735 124.453C61.1735 124.453 60.8826 124.453 60.8826 124.353C60.8826 124.353 60.2052 123.522 59.7189 124.212C59.7189 124.212 59.4654 124.361 59.3573 124.124C59.3573 124.124 58.6924 123.438 58.1729 124.187C58.1729 124.187 57.9069 124.274 57.9069 124.153C57.9069 124.153 57.3085 123.243 56.6851 124.482C56.6851 124.482 56.39 124.623 56.3401 124.482C56.3401 124.482 55.5796 123.738 55.0019 124.798C55.0019 124.798 54.7151 124.926 54.6777 124.798C54.6403 124.669 53.6803 124.49 53.2273 124.955C53.2273 124.955 53.0195 125.076 52.9156 124.955C52.9156 124.955 52.2964 123.829 51.328 124.54C51.328 124.54 51.0621 124.64 51.0371 124.469C51.0371 124.469 51.2615 122.915 49.7114 123.696C49.7238 123.717 49.4121 123.867 49.3872 123.709Z" fill="#B50C00"/>
<path d="M57.5786 127.686C57.5786 127.686 57.8861 126.352 56.3318 126.734C56.3318 126.734 55.6087 127.416 56.6227 127.981L57.695 127.898C57.695 127.898 57.5121 128.758 59.3573 128.729C59.3573 128.729 59.6067 128.704 59.6815 128.833C59.6815 128.833 59.6275 129.585 61.5309 129.249C61.6051 129.282 61.6738 129.327 61.7346 129.382C62.0682 129.499 62.4287 129.518 62.7729 129.437C63.1171 129.355 63.4304 129.175 63.6754 128.92C63.7223 128.87 63.7818 128.834 63.8476 128.815C63.9134 128.796 63.9831 128.795 64.0494 128.812C64.1781 128.88 64.3198 128.919 64.4651 128.928C64.6103 128.936 64.7556 128.912 64.891 128.859C65.0263 128.806 65.1486 128.724 65.2494 128.619C65.3502 128.514 65.4271 128.389 65.4749 128.251C65.4749 128.251 65.5123 128.156 65.6827 128.18C65.6827 128.18 66.6053 128.596 66.8422 127.948C66.8796 127.948 67.0708 127.873 67.183 127.977C67.183 127.977 68.0932 128.5 68.3924 127.752C68.3924 127.752 68.5628 127.607 68.6625 127.752C68.7256 127.849 68.8089 127.93 68.9067 127.991C69.0044 128.052 69.1142 128.091 69.2284 128.105C69.3427 128.119 69.4587 128.109 69.5684 128.074C69.6781 128.038 69.7788 127.98 69.8636 127.902C69.8636 127.902 70.0756 127.819 70.1421 127.952C70.2989 128.089 70.4933 128.176 70.7001 128.201C70.9068 128.226 71.1164 128.189 71.3016 128.093C71.3016 128.093 71.4553 128.056 71.4886 128.176C71.566 128.388 71.7201 128.562 71.9203 128.665C72.1204 128.769 72.352 128.793 72.5691 128.733C72.5691 128.733 72.752 128.712 72.7437 128.866C72.7354 129.02 73.3172 129.697 73.5749 129.598C73.5749 129.598 74.19 129.037 74.2024 128.766C74.2024 128.766 74.0819 128.259 73.072 128.264C73.072 128.264 73.0138 128.343 72.9847 128.11C72.9556 127.877 72.9847 126.892 71.8086 127.694C71.8086 127.694 71.447 127.806 71.393 127.632C71.393 127.632 70.8486 126.464 70.3166 127.241C70.3166 127.241 70.0091 127.279 70.0008 127.171C70.0008 127.171 69.1903 126.406 68.754 127.15C68.754 127.15 68.4963 127.324 68.3591 127.1C68.3591 127.1 67.5778 126.489 67.1124 127.287C67.1124 127.287 66.8381 127.403 66.8256 127.287C66.8256 127.287 66.0942 126.456 65.5497 127.744C65.5497 127.744 65.2505 127.919 65.184 127.794C65.184 127.794 64.2988 127.133 63.7834 128.247C63.7834 128.247 63.4884 128.405 63.4343 128.28C63.3803 128.156 62.3413 128.077 61.9008 128.588C61.9008 128.588 61.6847 128.729 61.5642 128.588C61.5642 128.588 60.7911 127.536 59.8228 128.334C59.8228 128.334 59.5485 128.463 59.507 128.293C59.507 128.293 59.5942 126.726 58.0108 127.661C57.9568 127.657 57.6409 127.836 57.5786 127.686Z" fill="#B50C00"/>
<path d="M67.262 130.258C67.262 130.258 67.3908 128.758 65.849 129.149C65.849 129.149 65.1632 129.901 66.302 130.562C66.676 130.562 67.05 130.516 67.4199 130.483C67.4199 130.483 67.3576 131.48 69.2901 131.405C69.2901 131.405 69.5478 131.376 69.6517 131.518C69.6517 131.518 69.7514 132.395 71.7006 131.933C71.7876 131.968 71.8688 132.016 71.9416 132.075C72.292 132.192 72.6714 132.188 73.0198 132.066C73.3683 131.943 73.6659 131.708 73.8658 131.397C73.9011 131.336 73.9547 131.289 74.0189 131.26C74.0831 131.232 74.1546 131.224 74.2232 131.239C74.2232 131.239 75.3661 131.655 75.5116 130.454C75.5116 130.454 75.5116 130.337 75.7027 130.346C75.7027 130.346 76.7667 130.691 76.8041 129.93C76.8456 129.93 77.0119 129.814 77.1573 129.93C77.1573 129.93 78.242 130.371 78.2919 129.477C78.2919 129.477 78.4124 129.286 78.5579 129.419C78.6341 129.514 78.7317 129.589 78.8426 129.639C78.9534 129.689 79.0746 129.712 79.196 129.706C79.3175 129.701 79.436 129.666 79.5417 129.606C79.6475 129.546 79.7376 129.462 79.8047 129.361C79.8047 129.361 79.9834 129.219 80.0997 129.361C80.2817 129.477 80.4968 129.531 80.7122 129.514C80.9276 129.497 81.1314 129.409 81.2925 129.265C81.3281 129.244 81.3703 129.238 81.4104 129.247C81.4506 129.257 81.4857 129.281 81.5086 129.315C81.5876 129.44 82.1902 130.08 82.7928 129.677C82.8145 129.667 82.8379 129.663 82.8615 129.663C82.8852 129.663 82.9084 129.669 82.9299 129.678C82.9514 129.688 82.9706 129.702 82.9864 129.72C83.0021 129.737 83.014 129.758 83.0214 129.781C83.0754 129.951 83.9357 130.529 84.1435 130.371C84.1435 130.371 84.5009 129.589 84.4012 129.307C84.4012 129.307 84.0604 128.796 83.0796 129.057C83.0796 129.057 83.0796 129.157 82.9299 128.908C82.7803 128.658 82.4354 127.574 81.6167 128.712C81.6167 128.712 81.3091 128.92 81.2011 128.712C81.2011 128.712 80.2369 127.536 80.0083 128.509C80.0083 128.509 79.7215 128.613 79.6717 128.509C79.6717 128.509 78.6244 127.815 78.4249 128.721C78.4015 128.754 78.3704 128.781 78.3343 128.8C78.2981 128.819 78.2579 128.829 78.2171 128.829C78.1763 128.829 78.1361 128.819 78.0999 128.8C78.0637 128.781 78.0327 128.754 78.0093 128.721C78.0093 128.721 77.0576 128.16 76.8248 129.136C76.8248 129.136 76.5838 129.307 76.5339 129.17C76.5339 129.17 75.5697 128.338 75.391 129.855C75.391 129.855 75.1334 130.088 75.0336 129.955C75.0336 129.955 73.9655 129.311 73.7286 130.62C73.7286 130.62 73.4627 130.824 73.3795 130.691C73.1086 130.606 72.8185 130.605 72.547 130.688C72.2756 130.771 72.0356 130.934 71.8585 131.156C71.8585 131.156 71.6673 131.331 71.5135 131.198C71.5135 131.198 70.4912 130.046 69.635 130.982C69.635 130.982 69.3691 131.135 69.2984 130.94C69.2984 130.94 69.1197 129.17 67.636 130.238C67.636 130.229 67.3326 130.433 67.262 130.258Z" fill="#B50C00"/>
<path d="M77.7682 132.095C77.7682 132.095 77.3526 130.574 75.9396 131.322C75.9396 131.322 75.5448 132.233 76.9329 132.627C77.2945 132.515 77.656 132.403 78.0134 132.282C78.0134 132.282 78.3376 133.292 80.2036 132.748C80.2653 132.719 80.3328 132.703 80.401 132.703C80.4693 132.703 80.5367 132.719 80.5984 132.748C80.5984 132.748 81.0431 133.579 82.7637 132.648C82.8622 132.66 82.9587 132.685 83.0505 132.723C83.0505 132.723 84.4136 132.827 84.6671 131.576C84.6771 131.507 84.7115 131.444 84.7642 131.398C84.8168 131.352 84.8841 131.327 84.9539 131.327C84.9539 131.327 86.2007 131.443 85.9181 130.229C85.9181 130.229 85.8848 130.117 86.0594 130.08C86.0594 130.08 87.2023 130.142 86.9737 129.382C87.0069 129.382 87.1316 129.215 87.3062 129.278C87.3062 129.278 88.4989 129.431 88.2412 128.546C88.2412 128.546 88.2911 128.326 88.474 128.417C88.5696 128.489 88.6812 128.537 88.7993 128.557C88.9174 128.577 89.0385 128.568 89.1523 128.53C89.2661 128.493 89.3693 128.429 89.4531 128.344C89.5368 128.258 89.5987 128.154 89.6335 128.039C89.6335 128.039 89.754 127.86 89.9119 127.968C90.1147 128.036 90.3345 128.031 90.5342 127.955C90.734 127.88 90.9017 127.738 91.0091 127.553C91.0386 127.524 91.0781 127.508 91.1192 127.508C91.1604 127.508 91.1999 127.524 91.2294 127.553C91.3457 127.657 92.1312 128.122 92.5551 127.553C92.5741 127.538 92.596 127.527 92.6194 127.521C92.6428 127.515 92.6672 127.514 92.691 127.518C92.7148 127.522 92.7376 127.531 92.7578 127.544C92.7781 127.557 92.7954 127.574 92.8086 127.594C92.9125 127.748 93.9183 128.081 94.0554 127.877C94.0554 127.877 94.1178 127.025 93.9308 126.78C93.9308 126.78 93.4445 126.364 92.6175 126.88C92.6175 126.88 92.6175 126.979 92.4304 126.772C92.2434 126.564 91.5328 125.604 91.1296 126.925C91.1296 126.925 90.9094 127.204 90.7473 127.054C90.7473 127.054 89.4548 126.157 89.5504 127.162C89.5504 127.162 89.3135 127.337 89.2304 127.233C89.2304 127.233 87.9836 126.817 88.1207 127.757C88.1088 127.794 88.088 127.828 88.0602 127.856C88.0324 127.883 87.9983 127.904 87.9608 127.916C87.9233 127.928 87.8836 127.93 87.8448 127.924C87.8061 127.917 87.7696 127.901 87.7384 127.877C87.7384 127.877 86.637 127.574 86.7368 128.584C86.7368 128.584 86.5622 128.808 86.4667 128.687C86.4667 128.687 85.249 128.106 85.5981 129.647C85.5981 129.647 85.4318 129.943 85.2864 129.839C85.2864 129.839 84.0396 129.477 84.2557 130.815C84.2557 130.815 84.0728 131.085 83.944 130.973C83.8152 130.861 82.7429 131.135 82.6307 131.804C82.6035 131.862 82.5551 131.907 82.4956 131.931C82.436 131.954 82.3699 131.953 82.3107 131.929C82.3107 131.929 80.8811 131.052 80.3906 132.183C80.3906 132.183 80.187 132.395 80.0457 132.224C80.0457 132.224 79.2145 130.512 78.1256 131.929C78.1256 131.991 77.9012 132.253 77.7682 132.095Z" fill="#B50C00"/>
<path d="M89.5171 131.185C89.5171 131.185 89.9327 130.632 90.4439 130.977C90.5276 131.025 90.5921 131.101 90.6262 131.191C90.6603 131.281 90.662 131.381 90.6309 131.472C90.552 131.834 89.8787 132.386 89.3592 131.85C89.3592 131.85 89.1223 131.671 88.9769 131.85C88.9769 131.85 88.4075 132.366 88.1249 131.8C88.1249 131.8 87.7633 131.235 87.5763 131.505C87.5763 131.505 86.9612 131.825 86.8532 131.447C86.8532 131.447 86.4708 131.318 86.6371 131.011C86.6371 131.011 87.0194 130.346 87.5597 130.475C87.6874 130.536 87.788 130.643 87.8423 130.774H88.5945C88.809 130.875 89.0023 131.016 89.1639 131.189C89.1639 131.189 89.459 131.264 89.5171 131.185Z" fill="#B50C00"/>
<path d="M92.1188 130.919C92.1188 130.919 92.0107 130.612 91.6117 130.753C91.6117 130.753 90.9343 131.019 90.98 131.451C91.0045 131.566 91.0639 131.671 91.1502 131.752C91.2365 131.832 91.3454 131.884 91.4621 131.9C91.6218 131.945 91.791 131.942 91.9489 131.891C92.1069 131.841 92.2468 131.746 92.3515 131.617C92.3515 131.617 92.6092 131.256 92.8751 131.272C92.8751 131.272 93.7437 131.414 93.7437 130.558C93.7437 130.558 93.7978 130.179 94.0928 130.25C94.0928 130.25 95.2066 130.4 94.8575 129.282C94.8575 129.282 94.8326 128.949 95.0986 128.966C95.0986 128.966 96.4409 128.904 95.6305 127.935C95.6305 127.935 95.5433 127.582 95.7843 127.557C95.7843 127.557 96.549 127.761 96.3537 126.551C96.3537 126.551 96.308 126.314 96.5365 126.306C96.5365 126.306 97.5506 126.402 97.5963 125.766C97.5963 125.766 97.7127 124.665 96.8482 125.088C96.6975 125.116 96.5596 125.191 96.4543 125.303C96.349 125.414 96.2817 125.556 96.2622 125.708C96.2622 125.708 96.2622 126.198 96.2373 126.244C96.2316 126.267 96.2212 126.289 96.2066 126.308C96.1919 126.328 96.1735 126.344 96.1524 126.355C96.1313 126.367 96.108 126.374 96.084 126.376C96.06 126.379 96.0358 126.376 96.0129 126.368C96.0129 126.368 95.0612 126.269 95.269 127.495C95.269 127.495 95.402 127.786 95.1775 127.827C95.1775 127.827 94.4128 127.686 94.5541 128.737C94.5541 128.737 94.6456 128.991 94.4586 129.07C94.2516 129.116 94.0636 129.224 93.9202 129.38C93.7767 129.536 93.6847 129.732 93.6565 129.943C93.6565 129.943 93.5941 130.109 93.5069 130.03C93.3893 129.997 93.2662 129.99 93.1455 130.008C93.0248 130.026 92.9092 130.069 92.8063 130.134C92.7033 130.2 92.6151 130.286 92.5475 130.387C92.4799 130.489 92.4344 130.604 92.4138 130.724C92.3872 130.78 92.3457 130.828 92.2936 130.863C92.2416 130.897 92.1811 130.917 92.1188 130.919Z" fill="#B50C00"/>
<path d="M98.0535 128.505C98.0535 128.505 97.3677 128.089 96.9688 128.646C96.9688 128.646 96.7319 129.531 97.534 129.552C98.3361 129.573 98.1449 129.111 98.0535 128.505Z" fill="#B50C00"/>
<path d="M99.346 128.363C99.346 128.363 98.6893 128.854 99.2545 129.344C99.2545 129.344 99.9611 129.577 100.148 129.203C100.148 129.203 100.481 128.48 99.9153 128.247L99.346 128.363Z" fill="#B50C00"/>
<path d="M100.173 124.212C100.095 124.113 99.9932 124.036 99.8773 123.988C99.7614 123.94 99.6351 123.922 99.5104 123.937C99.3857 123.951 99.2667 123.996 99.1645 124.069C99.0623 124.142 98.9803 124.24 98.9262 124.353C98.9262 124.353 98.6228 125.184 99.612 125.076C99.612 125.076 100.202 124.864 100.273 124.606C100.273 124.606 100.53 124.561 100.626 124.677C100.626 124.677 101.636 125.329 101.707 124.444C101.707 124.444 101.777 123.613 100.697 124.049C100.692 124.049 100.244 124.303 100.173 124.212Z" fill="#B50C00"/>
<path d="M103.398 125.051C103.35 124.986 103.319 124.909 103.307 124.829C103.296 124.749 103.304 124.667 103.332 124.59C103.36 124.514 103.407 124.446 103.468 124.392C103.528 124.339 103.602 124.301 103.681 124.282C103.681 124.282 104.695 124.07 104.512 124.96C104.512 124.96 104.042 125.753 103.855 125.791C103.855 125.791 104.138 126.817 103.901 127.004C103.901 127.004 103.361 127.308 103.169 127.166C103.135 127.204 103.108 127.249 103.093 127.298C103.077 127.346 103.072 127.398 103.078 127.449C103.078 127.449 103.149 128.405 102.322 128.334C102.181 128.299 102.055 128.218 101.966 128.103C101.876 127.989 101.827 127.848 101.827 127.703C101.862 127.534 101.954 127.382 102.087 127.272C102.22 127.163 102.386 127.102 102.559 127.1C102.559 127.1 102.816 127.216 102.866 126.772C102.835 126.685 102.824 126.592 102.832 126.5C102.841 126.408 102.87 126.319 102.918 126.24C102.965 126.16 103.029 126.092 103.106 126.04C103.182 125.989 103.269 125.955 103.361 125.94C103.361 125.94 103.502 125.92 103.502 125.571C103.52 125.391 103.483 125.21 103.398 125.051Z" fill="#B50C00"/>
<path d="M106.98 124.773C106.877 124.773 106.149 124.166 105.825 125.097C105.825 125.097 106.274 126.344 107.005 125.263C107.005 125.263 107.359 125.142 107.45 125.263C107.542 125.383 108.182 125.936 108.439 125.051C108.697 124.166 108.298 124.469 107.758 124.374C107.217 124.278 107.758 124.748 106.98 124.773Z" fill="#B50C00"/>
<path d="M105.189 121.506C105.189 121.506 104.2 121.041 104.129 121.996C104.129 121.996 104.225 122.79 104.836 122.412C105.447 122.034 105.331 121.88 105.189 121.506Z" fill="#B50C00"/>
<path d="M106.793 119.756C106.793 119.756 105.472 119.499 106.203 120.783C106.203 120.783 106.885 121.061 107.122 120.197C107.122 120.197 107.192 119.989 107.45 120.085C107.45 120.085 108.348 120.176 108.348 119.524C108.348 119.524 108.277 118.8 107.758 118.892C107.758 118.892 107.213 118.705 107.122 119.594C107.122 119.594 106.864 119.939 106.793 119.756Z" fill="#B50C00"/>
<path d="M110.775 122.674C110.775 122.674 111.411 122.229 111.606 122.74C111.606 122.74 111.959 123.605 111.016 123.513C110.073 123.422 110.725 122.72 110.775 122.674Z" fill="#B50C00"/>
<path d="M113.102 60.2638C113.122 63.1383 112.288 65.9539 110.705 68.3535C109.122 70.7532 106.863 72.6288 104.213 73.7426C101.563 74.8563 98.6417 75.158 95.8199 74.6093C92.9982 74.0607 90.403 72.6864 88.3634 70.6608C86.3238 68.6352 84.9317 66.0495 84.3636 63.2317C83.7955 60.4138 84.077 57.4907 85.1724 54.8331C86.2678 52.1754 88.1278 49.903 90.5165 48.3038C92.9052 46.7047 95.715 45.851 98.5896 45.8509C100.489 45.8444 102.371 46.212 104.128 46.9327C105.885 47.6535 107.483 48.7133 108.831 50.0517C110.179 51.39 111.249 52.9807 111.982 54.7329C112.715 56.4851 113.096 58.3645 113.102 60.2638Z" fill="#B50C00"/>
<path d="M119.86 83.1548C119.871 84.959 119.347 86.726 118.353 88.2317C117.359 89.7375 115.94 90.9141 114.277 91.6126C112.613 92.311 110.78 92.4997 109.009 92.1548C107.238 91.8099 105.609 90.9469 104.329 89.6752C103.049 88.4035 102.176 86.7804 101.82 85.0117C101.463 83.243 101.64 81.4084 102.328 79.7404C103.016 78.0724 104.183 76.6461 105.683 75.6425C107.182 74.6389 108.946 74.1032 110.75 74.1031C111.943 74.0988 113.124 74.3295 114.228 74.7821C115.331 75.2347 116.335 75.9004 117.181 76.741C118.027 77.5816 118.699 78.5808 119.159 79.6813C119.618 80.7818 119.857 81.9621 119.86 83.1548Z" fill="#B50C00"/>
<path d="M113.987 99.1594C113.995 100.267 113.673 101.353 113.063 102.277C112.453 103.202 111.582 103.925 110.56 104.354C109.539 104.783 108.413 104.899 107.325 104.688C106.238 104.476 105.237 103.946 104.451 103.166C103.665 102.385 103.129 101.388 102.91 100.302C102.691 99.2158 102.8 98.0892 103.222 97.0648C103.644 96.0405 104.361 95.1646 105.282 94.5483C106.203 93.932 107.286 93.6029 108.393 93.6029C109.872 93.5985 111.292 94.1813 112.341 95.2232C113.39 96.2651 113.982 97.6809 113.987 99.1594Z" fill="#B50C00"/>
<path d="M94.8659 42.3308C89.4816 39.8458 83.6083 38.6003 77.6788 38.6861C71.7494 38.7719 65.9146 40.1869 60.6045 42.8268C55.2944 45.4667 50.6442 49.2643 46.9965 53.9397C43.3487 58.6152 40.7963 64.0495 39.5273 69.8422C38.2583 75.635 38.3051 81.6386 39.6641 87.4109C41.0231 93.1832 43.6598 98.577 47.3799 103.195C51.1 107.813 55.8088 111.538 61.1594 114.095C66.5099 116.652 72.3659 117.976 78.296 117.969C79.1522 117.969 79.9958 117.944 80.8395 117.89C80.8395 117.89 104.674 116.087 99.853 92.0984C99.853 92.0984 98.7143 86.3216 87.8007 77.403C87.8007 77.403 78.0342 68.9871 79.9376 58.8175C79.9376 58.8175 82.0946 45.1278 94.3921 42.6093L95.0279 42.5137L95.2233 42.4805L94.8659 42.3308Z" fill="#B50C00"/>
<path d="M121.333 128.153C121.333 127.671 121.444 127.224 121.666 126.812C121.89 126.399 122.199 126.075 122.592 125.839C122.988 125.6 123.415 125.481 123.873 125.481C124.331 125.481 124.757 125.6 125.15 125.839C125.544 126.075 125.851 126.399 126.073 126.812C126.297 127.224 126.41 127.671 126.41 128.153C126.41 128.623 126.302 129.063 126.088 129.473C125.873 129.884 125.568 130.214 125.172 130.464C124.778 130.712 124.345 130.836 123.873 130.836C123.403 130.836 122.97 130.714 122.574 130.468C122.181 130.22 121.876 129.891 121.659 129.481C121.441 129.07 121.333 128.628 121.333 128.153ZM121.744 128.153C121.744 128.563 121.84 128.944 122.031 129.294C122.221 129.643 122.48 129.916 122.807 130.114C123.136 130.312 123.491 130.411 123.873 130.411C124.257 130.411 124.614 130.311 124.943 130.11C125.272 129.907 125.53 129.633 125.716 129.287C125.904 128.941 125.998 128.563 125.998 128.153C125.998 127.745 125.904 127.37 125.716 127.026C125.53 126.68 125.272 126.409 124.943 126.211C124.614 126.01 124.257 125.91 123.873 125.91C123.491 125.91 123.136 126.009 122.807 126.207C122.478 126.403 122.218 126.674 122.027 127.023C121.839 127.371 121.744 127.748 121.744 128.153ZM123.347 128.422V129.631H122.843V126.593H123.83C124.195 126.593 124.478 126.672 124.678 126.83C124.881 126.985 124.982 127.211 124.982 127.509C124.982 127.803 124.829 128.027 124.524 128.182C124.815 128.301 124.962 128.544 124.964 128.912V129.13C124.964 129.335 124.985 129.483 125.025 129.574V129.631H124.506C124.473 129.545 124.456 129.392 124.456 129.173C124.456 128.951 124.453 128.82 124.445 128.779C124.407 128.55 124.251 128.431 123.977 128.422H123.347ZM123.347 127.964H123.905C124.077 127.959 124.215 127.917 124.32 127.838C124.425 127.76 124.478 127.656 124.478 127.527C124.478 127.353 124.431 127.23 124.338 127.159C124.245 127.085 124.079 127.048 123.841 127.048H123.347V127.964Z" fill="#B50C00"/>
</svg>
