<svg width="160" height="48" viewBox="0 0 160 48" fill="none" xmlns="http://www.w3.org/2000/svg">
<path d="M4.00791 29.3976L4.00098 8.38728C4.0007 7.54136 4.58334 7.2199 5.29924 7.66734L20.3776 17.0913V40.6334L6.25196 32.0605C4.29436 30.9947 4.01066 30.3332 4.00791 29.3976Z" fill="url(#paint0_linear_120_356)"/>
<path d="M5.53673 6.85571C4.68802 6.85571 4 7.54194 4 8.39464L4 29.3742C4.04263 30.0953 4.00599 30.8472 6.29565 32.0779C6.29565 32.0779 4.0521 29.898 7.58249 29.886H32.6599V6.85571H5.53673Z" fill="url(#paint1_linear_120_356)"/>
<path d="M45.4549 12.9971V20.1621H53.1317V26.8153H45.4549V40.6335H39.3135V6.85571H54.1552V12.9971H45.4549ZM56.2024 40.6335V6.85571H62.3438V34.4921H71.0441V40.6335H56.2024ZM84.8623 33.9803H80.2562L79.2327 40.6335H72.5795L78.7209 6.85571H86.3977L92.5391 40.6335H85.8859L84.8623 33.9803ZM81.7916 22.2092L81.2798 27.8389H84.3505L83.8387 22.2092L82.8152 15.556L81.7916 22.2092ZM102.263 6.85571C103.62 6.85571 104.849 7.02557 105.845 7.3675C107.088 7.70501 108.052 8.2712 108.916 8.90285C109.669 9.85657 110.298 10.8919 110.963 11.9736C111.2 13.4479 111.426 15.009 111.475 17.0914C111.426 19.1503 111.13 21.0268 110.452 22.721C109.949 23.9387 109.047 25.1035 107.893 25.7917L112.499 40.6335H105.845L102.263 27.3271H100.728V40.6335H94.5862V6.85571H102.263ZM100.728 12.9971V21.1857H101.751C102.231 21.1857 102.683 21.1274 103.287 21.1857C103.524 20.8944 103.903 20.6697 104.31 20.1621C104.582 20.004 104.849 19.563 104.822 19.1385C105.237 18.4645 105.334 17.7405 105.334 17.0914C105.334 15.5103 105.019 14.5366 104.31 14.0207C103.758 13.305 102.942 12.9971 101.751 12.9971H100.728ZM129.899 32.4449C129.899 35.4711 129.207 37.6397 127.852 39.0981C126.439 40.4442 124.394 41.1453 121.711 41.1453C116.244 41.1453 113.522 38.2756 113.522 32.4449V6.85571H119.664V32.4449C119.664 32.4449 119.472 34.9233 121.711 35.0039C123.949 35.0844 123.758 32.4449 123.758 32.4449V6.85571H129.899V32.4449ZM142.182 33.9803L141.159 29.886L139.623 24.7682H139.111V40.6335H132.97V6.85571H139.111L142.182 16.0678L144.229 22.721H144.741L146.788 15.556L149.859 6.85571H156V40.6335H149.859V24.7682H149.347L147.812 29.886L146.788 33.9803H142.182Z" fill="url(#paint2_linear_120_356)"/>
<defs>
<linearGradient id="paint0_linear_120_356" x1="12.1893" y1="40.6334" x2="12.1893" y2="7.46558" gradientUnits="userSpaceOnUse">
<stop stop-color="#D22929"/>
<stop offset="1" stop-color="#B71717"/>
</linearGradient>
<linearGradient id="paint1_linear_120_356" x1="18.33" y1="6.85571" x2="18.33" y2="32.0779" gradientUnits="userSpaceOnUse">
<stop stop-color="#E7762E"/>
<stop offset="1" stop-color="#E7562E"/>
</linearGradient>
<linearGradient id="paint2_linear_120_356" x1="97.6569" y1="6.85571" x2="97.6569" y2="41.1453" gradientUnits="userSpaceOnUse">
<stop stop-color="#E7762E"/>
<stop offset="1" stop-color="#E7562E"/>
</linearGradient>
</defs>
</svg>
