<svg width="160" height="140" viewBox="0 0 160 140" fill="none" xmlns="http://www.w3.org/2000/svg">
<path d="M155.744 102.394C155.702 102.278 155.656 102.162 155.606 102.048C155.657 100.72 155.263 99.4888 154.443 98.445C153.39 97.1037 151.723 96.1715 149.393 95.6294C149.811 95.5006 150.174 95.3931 150.459 95.3117L153.159 93.4788C153.637 93.1541 153.756 92.5793 153.687 91.9339C153.479 89.9733 151.609 88.6196 149.652 88.8541C146.482 89.2335 141.521 89.8516 140.461 90.117L136.697 88.6879C135.435 88.2093 134.059 88.1042 132.743 88.3993C130.873 88.8191 129.079 89.3208 127.374 89.8997C128.982 80.8712 133.151 59.5264 139.074 44.1798L139.115 44.0664C144.692 27.2116 145.36 16.1898 141.157 10.3717C139.046 7.45042 135.854 5.96901 131.668 5.96901C125.686 6.14179 118.746 17.6178 118.746 17.6178L117.509 20.1608L116.753 20.9167L115.997 19.9548L113.613 22.6819C113.596 22.7128 111.848 25.7456 109.518 28.3314C108.48 29.0582 107.796 29.2333 107.397 29.2482C104.995 29.3372 104.828 28.788 104.688 28.3469C104.536 27.8659 104.181 26.7408 102.919 26.2883C102.136 26.0081 101.267 26.1185 100.536 26.5929C100.137 26.8524 99.6983 27.2282 98.889 28.579C98.8391 28.5897 98.791 28.6117 98.7411 28.6253C99.4536 26.8666 100.068 24.9286 100.57 22.8161L100.531 21.7871C100.446 19.5154 97.6213 18.5244 96.1346 20.2439L93.2151 23.6194C92.5228 24.5178 91.9106 25.3116 91.3602 25.9808C90.9286 26.1838 90.4649 26.2907 89.8741 26.3299C89.69 26.3418 89.5166 26.3548 89.3516 26.3679C88.0869 26.4659 87.9818 26.4736 86.8376 25.5877C85.0748 24.2244 82.0823 21.2005 76.4458 15.3514C70.9744 9.67342 66.155 6.99145 61.6965 7.11317C58.5116 7.20936 55.7079 8.71392 53.1287 11.713C53.0925 11.713 53.0806 11.7135 53.045 11.7135C50.9419 9.17823 47.5789 5.93042 43.3858 5.93042C43.3567 5.93042 43.3265 5.93042 43.2974 5.93101C41.224 5.95298 39.0087 7.30554 35.9064 10.4477C33.9595 12.0009 31.9656 14.2109 30.0366 16.3495C29.2973 17.1689 28.5973 17.9449 27.9448 18.6319C26.0869 20.086 24.5414 20.8603 23.4685 20.8727C22.8991 20.8739 21.1612 20.8989 19.5218 15.7095L17.4318 9.09273L15.5603 13.7929L14.8294 11.4802L8.22634 28.0601L8.61702 28.9923C8.90559 29.6798 11.5775 35.7242 16.5388 36.1903C21.6296 36.6635 26.401 32.6195 29.5699 29.4904C32.1539 27.3238 34.5562 24.6549 36.4906 22.5061C36.8178 22.1428 37.1336 21.7913 37.4382 21.457C38.6145 21.9112 40.9384 23.4549 43.1127 26.2313L40.3678 29.5688C33.1223 38.3729 32.3646 39.2932 27.8337 46.7484C22.1474 56.1053 21.0513 62.1039 24.4832 65.0875C25.2331 65.7388 27.126 67.0694 30.0674 67.0694C31.0982 67.0694 32.259 66.9044 33.5432 66.4905C32.31 67.4346 31.0293 68.444 29.6845 69.5412C22.5221 75.3849 14.8045 82.672 17.2935 88.0615C17.2567 89.1611 17.5132 90.1687 18.041 91.0415C11.0377 97.2598 1.89637 109.306 4.43287 116.2C4.50352 118.581 5.53131 120.52 7.36421 121.698C12.3808 124.924 22.9454 119.112 30.2948 114.195C29.9843 115.087 29.7729 115.849 29.7017 116.407L29.4244 118.582L30.1583 118.767C30.1553 118.788 30.1529 118.806 30.1506 118.824L29.8733 121.003L32.0048 121.536C32.7357 121.72 33.3028 121.681 34.1126 121.18C33.3135 123.794 33.2885 125.217 33.2933 125.501L33.4186 133.399L35.1256 130.857L35.1707 134.071L39.587 127.491C39.6167 127.446 40.8107 125.667 42.7458 122.833L46.4531 117.467L44.3916 123.927L50.9989 118.644C54.8001 115.427 58.6416 111.398 61.6989 108.203C61.149 109.704 61.1847 111.133 61.7755 112.31C61.6585 113.955 62.3122 115.415 63.6369 116.361C66.1924 118.184 70.7619 117.593 75.6615 114.977C75.9043 116.383 76.7552 117.135 77.2308 117.454C80.605 119.718 86.4665 115.701 91.1958 111.95L91.9843 111.325C92.3061 113.521 93.4971 115.265 95.3811 116.227C96.4172 116.756 97.6047 117.017 98.9246 117.017C102.097 117.017 106.034 115.505 110.464 112.566C111.055 113.996 112.106 115.16 113.545 115.927C116.623 117.568 120.976 117.109 125.988 114.735L128.698 115.513C132.021 116.467 134.371 116.808 136.641 116.808C138.461 116.808 140.228 116.589 142.404 116.29C147.479 115.593 153.564 111.276 155.425 107.053C155.72 106.383 155.912 105.718 156 105.069L155.744 102.394Z" fill="white"/>
<path d="M115.909 23.9097C115.909 23.9097 110.201 33.9144 105.034 34.1056C98.9782 34.33 100.308 30.4819 99.4306 31.0525C98.5554 31.6213 95.1948 38.738 95.142 39.6067C101.664 50.3714 113.725 32.2097 115.909 23.9097ZM16.919 33.7268C25.235 34.5082 34.4898 18.7637 37.0964 18.8403C39.7035 18.9169 44.9909 23.0529 47.8011 28.826C51.5008 21.5887 56.0038 18.3742 63.4708 23.7375C67.8152 26.8577 76.896 39.2011 82.3312 39.8092C88.2159 40.4676 93.2729 34.8674 95.7102 24.6287C92.3365 28.9987 90.9632 30.9611 87.5829 31.1837C84.0947 31.4135 84.401 32.1041 72.2108 19.4536C60.0205 6.80318 54.2706 12.86 50.6671 18.2269C49.862 17.3452 45.7841 10.7368 40.8703 10.7896C37.3885 10.8276 31.5882 19.0683 28.1195 22.0602C24.5154 25.1685 22.3548 25.7165 21.0444 25.7319C19.0137 25.7563 16.5663 24.7178 14.7096 18.8403L11.0474 28.0357C11.0474 28.0357 13.2906 33.386 16.919 33.7268ZM44.4696 28.6573C35.2896 39.827 34.9221 40.093 30.0967 48.0332C25.2713 55.9734 23.9905 61.2512 26.2551 63.2201C28.5369 65.2038 32.6023 65.3137 37.5833 61.6324C44.5141 56.3207 53.7653 48.7409 56.3048 42.2875C56.965 40.6101 44.9464 51.9876 40.1233 54.8091C37.2294 56.5018 33.3397 56.9471 31.2503 54.9254C26.986 50.7995 46.0739 30.3935 44.4696 28.6573ZM63.5474 37.7007C62.7422 37.9691 58.0849 44.8501 58.1039 45.7508C58.1229 46.6533 62.4934 47.9744 64.2373 53.4179C65.9817 58.8614 65.3108 67.5248 65.3108 67.5248C69.144 65.7614 75.2276 45.5555 63.5474 37.7007ZM145.71 99.9863C128.1 99.1657 149.927 92.9325 149.927 92.9325C140.42 92.3192 123.136 102.943 137.239 101.328C151.438 99.6882 151.603 112.558 136.932 112.541C134.879 112.538 135.513 110.49 135.513 110.49L129.529 113.135C135.194 114.761 137.737 114.454 142.216 113.839C150.113 112.755 161.737 100.736 145.71 99.9863ZM104.365 92.6428C94.9983 95.5884 87.6613 100.987 83.1714 105.814C79.1654 108.237 67.7042 114.194 74.8708 97.9527C78.9498 88.7086 65.4503 97.8458 61.6842 101.377C62.4715 97.8013 65.2995 91.4517 60.7211 93.2098C56.1433 94.9685 51.2069 98.5465 42.756 106.477C47.6087 98.6605 47.8611 97.8417 49.3247 94.047C47.9305 94.4068 46.4082 95.5854 44.8704 97.2438C8.07626 125.385 13.3357 106.165 20.2547 99.2815C25.0908 93.3891 40.593 89.1985 44.7035 80.8616C23.4324 92.2824 22.122 82.5027 39.8443 71.1312C43.1034 69.0442 64.6422 59.1589 48.1603 73.0342C57.9097 68.4956 66.1693 61.4816 59.8002 60.1065C51.5221 58.3199 38.5036 68.441 31.8459 73.8738C27.9301 77.0687 11.9315 90.1324 24.8806 91.9356C16.4849 96.5437 1.95589 115.184 8.85051 119.617C13.5613 122.646 29.7998 112.807 40.0675 103.743C36.1594 110.003 32.99 117.279 32.7531 119.137C34.2868 119.519 66.4407 81.7825 49.5491 116.756C61.7964 106.392 74.1013 87.745 64.6719 111.333C62.6324 116.434 71.595 116.864 81.2928 108.002C75.6284 115.228 77.3841 119.864 89.8071 110.012C82.2428 111.697 84.8089 105.932 104.365 92.6428ZM135.867 92.8215C129.827 93.9508 125.052 95.8235 121.436 98.0079C121.505 97.7431 121.557 97.4937 121.586 97.2723C121.913 94.7423 126.722 65.3398 134.313 45.6742C137.423 36.2751 145.173 10.8282 129.214 10.8282C122.823 10.8282 117.811 23.5113 118.914 28.2031C123.147 22.835 122.881 19.5177 127.582 19.5777C136.798 19.6032 133.482 37.0055 130.756 46.7626C125.559 65.3665 121.233 81.3099 118.825 94.9721C118.399 97.3916 118.198 99.1206 118.158 100.315C115.268 102.698 113.54 105.252 112.862 107.524C105.948 107.973 97.5015 109.897 106.729 95.4762C88.2016 104.737 91.1912 124.986 112.743 107.959C111.173 114.41 118.307 118.262 131.503 108.597C126.047 111.125 108.95 108.717 135.867 92.8215Z" fill="black"/>
<path d="M121.516 25.8174C120.414 21.1262 125.425 8.44312 131.817 8.44312C147.774 8.44312 140.025 33.8901 136.915 43.2885C129.325 62.9541 124.515 92.3572 124.188 94.8866C123.788 97.9753 119.02 106.249 121.428 92.587C123.835 78.9242 128.162 62.9808 133.359 44.3775C136.085 34.6198 139.399 17.2181 130.184 17.1926C125.483 17.1321 125.75 20.4499 121.516 25.8174Z" fill="#C73D27"/>
<path d="M145.261 97.5706C127.651 96.7501 149.478 90.5169 149.478 90.5169C139.971 89.9036 122.687 100.528 136.789 98.9125C150.989 97.2732 151.154 110.142 136.483 110.125C134.43 110.123 135.064 108.074 135.064 108.074L129.079 110.719C134.745 112.346 137.288 112.039 141.766 111.423C149.663 110.339 161.288 98.3206 145.261 97.5706ZM103.916 90.2272C94.5491 93.1727 87.2121 98.5711 82.7222 103.399C78.7162 105.821 67.2544 111.778 74.4216 95.5371C78.5006 86.293 65.0012 95.4302 61.235 98.9612C62.0223 95.3856 64.8497 89.0361 60.2719 90.7948C55.6935 92.5529 50.7577 96.1308 42.3062 104.062C47.1596 96.2448 47.4119 95.4266 48.8755 91.6314C47.4814 91.9912 45.959 93.1698 44.4212 94.8281C7.62709 122.969 12.8865 103.749 19.8055 96.8659C24.6416 90.9735 40.1438 86.7828 44.2543 78.446C22.9832 89.8667 21.6728 80.0871 39.3951 68.7156C42.6536 66.6291 64.1931 56.7432 47.7112 70.6186C57.4605 66.0805 65.7202 59.066 59.351 57.6908C51.073 55.9042 38.0544 66.0253 31.3967 71.4581C27.4809 74.6537 11.4823 87.7168 24.4314 89.5206C16.0352 94.1281 1.50672 112.768 8.40134 117.202C13.1122 120.231 29.3506 110.391 39.6183 101.327C35.7103 107.588 32.5408 114.863 32.3039 116.721C33.8376 117.104 65.9915 79.3669 49.0999 114.34C61.3472 103.976 73.6521 85.3299 64.2221 108.918C62.1832 114.018 71.1459 114.448 80.8436 105.586C75.1792 112.813 76.9349 117.449 89.358 107.597C81.7936 109.282 84.3598 103.516 103.916 90.2272ZM135.418 90.4059C121.197 93.0647 113.985 99.8447 112.413 105.108C105.499 105.557 97.0524 107.482 106.28 93.0605C87.7525 102.321 90.742 122.57 112.293 105.544C110.723 111.995 117.857 115.846 131.054 106.181C125.598 108.709 108.501 106.302 135.418 90.4059Z" fill="#1370C2"/>
<path d="M106.353 63.7976C106.001 62.6593 98.8174 75.7248 98.8174 75.7248C98.8174 75.7248 89.6719 91.5744 88.6797 85.9165C86.4662 73.2976 70.486 110.785 73.2285 112.156C73.5539 112.318 83.8543 86.4859 85.3725 95.4041C86.8747 104.228 108.027 69.206 106.353 63.7976Z" fill="black"/>
<path d="M49.36 100.415C35.7797 117.438 35.9151 125.461 35.9151 125.461C35.9151 125.461 50.877 103.165 61.6696 89.2595C70.9161 77.3459 72.9972 66.9114 72.9972 66.9114C72.9972 66.9114 60.3063 86.6933 49.36 100.415Z" fill="black"/>
<path d="M39.699 16.4544C42.3062 16.531 47.5935 20.6677 50.4037 26.4401C54.1034 19.2035 58.6064 15.9883 66.0734 21.3517C70.4173 24.4724 79.4987 36.8153 84.9338 37.4233C90.8185 38.0818 95.8749 32.4821 98.3122 22.2429C94.9391 26.6135 93.5652 28.5752 90.1856 28.7985C86.6973 29.0283 87.0037 29.7182 74.8134 17.0678C62.6231 4.41734 56.8732 10.4742 53.2698 15.8411C52.4646 14.9594 48.3868 8.35094 43.4729 8.40438C39.9911 8.44238 34.1908 16.683 30.7215 19.6749C27.118 22.7832 24.9574 23.3312 23.647 23.3461C21.6158 23.3704 19.1689 22.3326 17.3117 16.4544L13.6494 25.6504C13.6494 25.6504 15.8926 31.0007 19.521 31.3415C27.8371 32.1229 37.0924 16.3778 39.699 16.4544ZM58.9074 39.9022C59.5677 38.2249 47.549 49.6023 42.7253 52.4232C39.832 54.116 35.9424 54.5613 33.8524 52.5396C29.5886 48.4142 48.6765 28.0082 47.0722 26.2721C37.8922 37.4417 37.5241 37.7077 32.6993 45.6473C27.8739 53.5876 26.5932 58.866 28.8577 60.8349C31.1395 62.8186 35.2049 62.9278 40.1853 59.2466C47.1161 53.9349 56.3679 46.3551 58.9074 39.9022ZM66.15 35.3149C65.3448 35.5833 60.6875 42.4642 60.7065 43.3656C60.7255 44.2681 65.0955 45.5886 66.8399 51.0321C68.5843 56.4756 67.9134 65.1396 67.9134 65.1396C71.7467 63.3761 77.8296 43.1702 66.15 35.3149ZM108.104 62.0319C107.751 60.8937 100.568 73.9591 100.568 73.9591C100.568 73.9591 91.4223 89.8081 90.4302 84.1508C88.2173 71.5313 72.2365 109.018 74.9796 110.39C75.305 110.553 85.6048 84.7196 87.1236 93.6384C88.6258 102.462 109.778 67.4403 108.104 62.0319ZM51.1257 101.066C37.5455 118.088 37.6808 126.112 37.6808 126.112C37.6808 126.112 52.6428 103.816 63.4359 89.9102C72.6818 77.9966 74.7629 67.5615 74.7629 67.5615C74.7629 67.5615 62.0727 87.344 51.1257 101.066ZM102.033 28.6667C101.157 29.2355 97.7974 36.3528 97.7446 37.2208C104.266 47.9855 116.327 29.8245 118.512 21.5245C118.512 21.5245 112.804 31.5286 107.637 31.7203C101.581 31.9442 102.911 28.0967 102.033 28.6667Z" fill="#C73D27"/>
</svg>
