<svg width="208" height="48" viewBox="0 0 208 48" fill="none" xmlns="http://www.w3.org/2000/svg">
<path d="M11.2381 30.3791C11.2381 32.6785 11.7428 34.444 12.4025 35.512C13.2674 36.911 14.5575 37.5037 15.8727 37.5037C17.569 37.5037 19.1208 37.0827 22.1114 32.9466C24.5072 29.6314 27.3303 24.978 29.2297 22.0607L32.4465 17.1183C34.681 13.6859 37.2674 9.87016 40.2329 7.28377C42.6538 5.17277 45.2653 4 47.8936 4C52.3062 4 56.5093 6.55707 59.7261 11.3529C63.2465 16.6052 64.9554 23.2209 64.9554 30.0482C64.9554 34.1068 64.1554 37.089 62.7941 39.445C61.4789 41.7236 58.9156 44 54.6036 44V37.5037C58.2957 37.5037 59.2172 34.111 59.2172 30.2283C59.2172 24.6953 57.9271 18.555 55.0852 14.1675C53.0685 11.0555 50.4549 9.15393 47.5795 9.15393C44.4695 9.15393 41.9669 11.4995 39.1543 15.6817C37.6591 17.9037 36.124 20.6115 34.4004 23.667L32.503 27.0283C28.6915 33.7864 27.7261 35.3257 25.8203 37.866C22.48 42.3141 19.6276 44 15.8727 44C11.4182 44 8.60146 42.0712 6.85696 39.1644C5.43287 36.7958 4.7334 33.688 4.7334 30.1466L11.2381 30.3791Z" fill="#0081FB"/>
<path d="M9.8623 11.8115C12.8445 7.21466 17.1482 4 22.0843 4C24.9429 4 27.7848 4.84607 30.7524 7.26911C33.9984 9.91832 37.4581 14.2806 41.7743 21.4702L43.322 24.0503C47.0581 30.2743 49.1838 33.4764 50.4277 34.9864C52.0278 36.9257 53.1482 37.5037 54.6037 37.5037C58.2958 37.5037 59.2173 34.111 59.2173 30.2283L64.9555 30.0482C64.9555 34.1068 64.1555 37.089 62.7942 39.445C61.4791 41.7236 58.9157 44 54.6037 44C51.923 44 49.5482 43.4178 46.922 40.9403C44.9031 39.0387 42.5429 35.6607 40.7272 32.6241L35.3262 23.6021C32.6162 19.0743 30.1304 15.6984 28.6916 14.1696C27.144 12.5257 25.1545 10.5403 21.9796 10.5403C19.4099 10.5403 17.2277 12.3435 15.4016 15.1016L9.8623 11.8115Z" fill="url(#paint0_linear_121_589)"/>
<path d="M21.9795 10.5403C19.4098 10.5403 17.2276 12.3435 15.4015 15.1016C12.8193 18.999 11.2381 24.8042 11.2381 30.3791C11.2381 32.6785 11.7428 34.444 12.4025 35.512L6.85696 39.1644C5.43287 36.7958 4.7334 33.688 4.7334 30.1466C4.7334 23.7068 6.50094 16.9948 9.86219 11.8115C12.8444 7.21466 17.1481 4 22.0842 4L21.9795 10.5403Z" fill="url(#paint1_linear_121_589)"/>
<path d="M77.6006 5.26492H85.1252L97.9189 28.4105L110.715 5.26492H118.076V43.2963H111.938V14.1487L100.717 34.333H94.9577L83.7388 14.1487V43.2963H77.6006V5.26492ZM137.309 19.445C132.907 19.445 130.256 22.7581 129.622 26.8607H144.562C144.254 22.6346 141.816 19.445 137.309 19.445ZM123.536 29.1979C123.536 20.5654 129.115 14.2827 137.416 14.2827C145.582 14.2827 150.457 20.4859 150.457 29.6586V31.3445H129.622C130.361 35.8073 133.322 38.8147 138.097 38.8147C141.906 38.8147 144.287 37.6524 146.545 35.5267L149.806 39.5204C146.734 42.3456 142.826 43.9749 137.879 43.9749C128.893 43.9749 123.536 37.422 123.536 29.1979ZM157.9 19.9895H152.25V14.9634H157.9V6.65131H163.823V14.9634H172.407V19.9895H163.823V32.7288C163.823 37.0785 165.213 38.6241 168.631 38.6241C170.191 38.6241 171.085 38.4901 172.407 38.2702V43.2419C170.761 43.7068 169.19 43.9204 167.49 43.9204C161.096 43.9204 157.9 40.4272 157.9 33.4346V19.9895ZM197.345 24.8775C196.156 21.8743 193.502 19.6628 189.603 19.6628C184.535 19.6628 181.291 23.2586 181.291 29.1162C181.291 34.8272 184.277 38.5969 189.36 38.5969C193.356 38.5969 196.208 36.2723 197.345 33.3801V24.8775ZM203.268 43.2963H197.454V39.3298C195.829 41.6649 192.872 43.9749 188.082 43.9749C180.38 43.9749 175.232 37.5267 175.232 29.1162C175.232 20.6262 180.503 14.2827 188.409 14.2827C192.317 14.2827 195.383 15.845 197.454 18.6031V14.9634H203.268V43.2963Z" fill="#192830"/>
<defs>
<linearGradient id="paint0_linear_121_589" x1="17.5084" y1="28.5026" x2="58.9743" y2="30.5969" gradientUnits="userSpaceOnUse">
<stop stop-color="#0064E1"/>
<stop offset="0.4" stop-color="#0064E1"/>
<stop offset="0.83" stop-color="#0073EE"/>
<stop offset="1" stop-color="#0082FB"/>
</linearGradient>
<linearGradient id="paint1_linear_121_589" x1="14.1575" y1="33.1099" x2="14.1575" y2="17.822" gradientUnits="userSpaceOnUse">
<stop stop-color="#0082FB"/>
<stop offset="1" stop-color="#0064E0"/>
</linearGradient>
</defs>
</svg>
