<svg width="160" height="64" viewBox="0 0 160 64" fill="none" xmlns="http://www.w3.org/2000/svg">
<path fill-rule="evenodd" clip-rule="evenodd" d="M33.2013 27.2123L32.351 36.7878H29.7991L33.2013 27.2123ZM20.916 43.8985H27.3423L28.4766 40.6749H31.8788L31.6897 43.8985H38.116L38.2101 23.4196H29.611L20.916 43.8985Z" fill="black"/>
<path fill-rule="evenodd" clip-rule="evenodd" d="M43.1247 23.4196H51.2516L52.1019 35.8395H52.1969L54.8428 23.4196H60.1347L55.7881 43.8985H47.7553L46.7159 31.858L44.1641 43.8985H38.7772L43.1247 23.4196Z" fill="black"/>
<path fill-rule="evenodd" clip-rule="evenodd" d="M69.3968 29.1081C69.4909 28.4447 69.5859 27.8757 69.4909 27.4963C69.3968 27.117 69.0187 26.9273 68.3574 26.9273C67.6953 26.9273 67.1281 27.686 66.9391 28.4447C66.0887 32.2374 75.35 30.0556 73.7434 37.4513C72.6099 42.8557 69.0187 44.5619 65.0494 44.5619C60.9859 44.5619 57.0166 43.8985 58.5281 38.0203H64.6712C64.5771 38.779 64.4822 39.4424 64.5771 39.917C64.6712 40.3908 64.8603 40.6749 65.4275 40.6749C66.2778 40.6749 67.034 39.917 67.2231 38.9687C68.1675 34.4173 58.9063 37.3569 60.5128 29.8668C61.5531 24.9361 64.4822 22.8506 69.2078 22.8506C75.1609 22.8506 75.8231 25.6949 75.1609 29.1081H69.3968Z" fill="black"/>
<path fill-rule="evenodd" clip-rule="evenodd" d="M78.5631 23.4196H84.8003L80.4537 43.8985H74.1215L78.5631 23.4196Z" fill="black"/>
<path fill-rule="evenodd" clip-rule="evenodd" d="M9.10283 38.779C9.10283 21.5228 31.8787 7.4903 60.0405 7.4903C75.0667 7.4903 88.5805 11.4726 97.9367 17.8255C88.6746 9.57673 73.0821 4.07788 55.504 4.07788C27.059 4.07788 4 18.2048 4 35.6506C4 45.4159 11.2766 54.1383 22.5225 59.9221C14.2065 54.4233 9.10283 46.9324 9.10283 38.779Z" fill="#006BA8"/>
<path fill-rule="evenodd" clip-rule="evenodd" d="M41.0459 51.2942V53.7591H40.0065L41.0459 51.2942ZM37.9277 55.8455H39.0621L39.6284 54.7075H41.0459V55.8455H42.2743L41.9912 50.2514H40.5737L37.9277 55.8455Z" fill="black"/>
<path fill-rule="evenodd" clip-rule="evenodd" d="M43.5028 51.6735H44.543L44.4481 52.0529C44.8262 51.6735 45.2043 51.5782 45.5824 51.5782C46.1496 51.5782 46.4327 51.7679 46.4327 52.2425C46.7168 51.7679 47.189 51.5782 47.6612 51.5782C48.3233 51.5782 48.6065 51.9576 48.4174 52.8116L47.7561 55.8455H46.7168L47.2839 52.906C47.378 52.6219 47.2839 52.3369 46.9999 52.3369C46.7168 52.3369 46.4327 52.6219 46.3386 53.0956L45.7715 55.8455H44.6371L45.2993 52.906C45.3934 52.6219 45.2993 52.3369 45.0152 52.3369C44.6371 52.3369 44.354 52.6219 44.259 53.0956L43.6927 55.8455H42.6524L43.5028 51.6735Z" fill="black"/>
<path fill-rule="evenodd" clip-rule="evenodd" d="M49.929 53.2853L50.024 53.0956C50.1189 52.7163 50.308 52.3369 50.6852 52.3369C51.1583 52.3369 51.1583 52.6219 51.0634 53.2853H49.929ZM51.9137 53.9488L52.0087 53.6647C52.2927 52.4322 52.1977 51.5782 50.8743 51.5782C49.4568 51.5782 48.9846 52.6219 48.7955 53.7591C48.6065 54.8019 48.4174 55.9399 49.929 55.9399C50.9693 55.9399 51.5364 55.4662 51.7246 54.4234H50.7802C50.5912 54.9915 50.4021 55.2765 50.024 55.2765C49.6459 55.2765 49.6459 54.7075 49.7408 54.2337L49.8349 53.9488H51.9137Z" fill="black"/>
<path fill-rule="evenodd" clip-rule="evenodd" d="M52.9539 51.6735H53.9933L53.8984 52.2425C54.1824 51.8632 54.5605 51.5782 55.0327 51.5782C55.0327 51.5782 55.1277 51.5782 55.2218 51.5782L54.9377 52.6219C54.8437 52.6219 54.7496 52.6219 54.6546 52.6219C54.2765 52.6219 53.8043 52.8116 53.7093 53.3806L53.143 55.8455H52.1027L52.9539 51.6735Z" fill="black"/>
<path fill-rule="evenodd" clip-rule="evenodd" d="M55.5999 51.6735H56.6393L55.7889 55.8455H54.7496L55.5999 51.6735ZM55.883 50.2514H57.0174L56.8283 51.1998H55.694L55.883 50.2514Z" fill="black"/>
<path fill-rule="evenodd" clip-rule="evenodd" d="M59.0962 53.1909C59.1911 52.8116 59.1911 52.3369 58.813 52.3369C58.2458 52.3369 58.0568 52.8116 57.8677 53.7591C57.6787 54.8019 57.6787 55.2765 58.1517 55.2765C58.529 55.2765 58.718 54.8971 58.9071 54.2337H59.9465C59.6633 55.3718 59.0962 55.9399 57.9627 55.9399C56.9224 55.9399 56.4502 55.4662 56.8283 53.7591C57.2064 52.0529 57.9627 51.5782 59.0021 51.5782C59.9465 51.5782 60.3255 52.1473 60.1355 53.1909H59.0962Z" fill="black"/>
<path fill-rule="evenodd" clip-rule="evenodd" d="M62.3093 54.6131C62.2152 55.0868 61.8371 55.2765 61.5539 55.2765C61.2699 55.2765 61.1758 54.9915 61.2699 54.6131C61.3649 54.2337 61.5539 54.044 62.0261 53.9488C62.1202 53.9488 62.4042 53.8544 62.4983 53.7591L62.3093 54.6131ZM61.7421 52.906V52.8116C61.8371 52.5266 62.0261 52.3369 62.3093 52.3369C62.6874 52.3369 62.7824 52.5266 62.6874 52.8116C62.6874 53.0956 62.4983 53.1909 62.2152 53.2853L61.5539 53.475C60.7977 53.6647 60.4196 53.9488 60.2305 54.8019C60.1355 55.3718 60.2305 55.9399 60.9867 55.9399C61.459 55.9399 61.8371 55.8455 62.1202 55.4662H62.2152C62.2152 55.5606 62.2152 55.7502 62.2152 55.8455H63.2546C63.1596 55.6558 63.1596 55.4662 63.2546 55.0868L63.7268 52.8116C63.9158 52.0529 63.8217 51.5782 62.4983 51.5782C61.7421 51.5782 60.9867 51.8632 60.7977 52.8116L60.7027 52.906H61.7421Z" fill="black"/>
<path fill-rule="evenodd" clip-rule="evenodd" d="M64.767 51.6735H65.8064L65.7115 52.1473C65.9955 51.7679 66.4677 51.5782 66.8458 51.5782C67.5071 51.5782 67.8852 51.9576 67.6961 52.7163L67.0349 55.8455H65.9955L66.5618 53.0004C66.6567 52.5266 66.5618 52.3369 66.2786 52.3369C65.9005 52.3369 65.6174 52.6219 65.5224 53.0956L64.9552 55.8455H63.9158L64.767 51.6735Z" fill="black"/>
<path fill-rule="evenodd" clip-rule="evenodd" d="M72.1377 50.2514L72.7049 54.1384L73.4611 50.2514H74.5005L73.367 55.8455H72.0436L71.4764 51.9576L70.7202 55.8455H69.6808L70.8152 50.2514H72.1377Z" fill="black"/>
<path fill-rule="evenodd" clip-rule="evenodd" d="M76.2961 54.6131C76.2011 55.0868 75.8239 55.2765 75.5399 55.2765C75.1618 55.2765 75.1618 54.9915 75.2567 54.6131C75.2567 54.2337 75.5399 54.044 75.918 53.9488C76.107 53.9488 76.2961 53.8544 76.4852 53.7591L76.2961 54.6131ZM75.6348 52.906V52.8116C75.7289 52.5266 75.918 52.3369 76.2961 52.3369C76.6742 52.3369 76.7692 52.5266 76.6742 52.8116C76.5793 53.0956 76.4852 53.1909 76.107 53.2853L75.5399 53.475C74.6895 53.6647 74.3114 53.9488 74.1224 54.8019C74.0283 55.3718 74.2165 55.9399 74.8786 55.9399C75.4458 55.9399 75.7289 55.8455 76.107 55.4662C76.107 55.5606 76.107 55.7502 76.2011 55.8455H77.1464C77.1464 55.6558 77.1464 55.4662 77.2414 55.0868L77.7136 52.8116C77.8086 52.0529 77.7136 51.5782 76.4852 51.5782C75.6348 51.5782 74.8786 51.8632 74.6895 52.8116V52.906H75.6348Z" fill="black"/>
<path fill-rule="evenodd" clip-rule="evenodd" d="M79.2252 50.4411H80.2655L79.9814 51.6735H80.6427L80.4545 52.4322H79.8873L79.3202 54.7075C79.3202 54.9915 79.3202 55.0868 79.6033 55.0868C79.6983 55.0868 79.7932 55.0868 79.8873 55.0868L79.6983 55.8455C79.5092 55.8455 79.3202 55.9399 79.037 55.9399C78.1858 55.9399 78.0917 55.6558 78.2808 54.8019L78.753 52.4322H78.1858L78.3749 51.6735H78.942L79.2252 50.4411Z" fill="black"/>
<path fill-rule="evenodd" clip-rule="evenodd" d="M81.0208 51.6735H82.0611L81.2099 55.8455H80.1705L81.0208 51.6735ZM81.3048 50.2514H82.4392L82.2501 51.1998H81.1158L81.3048 50.2514Z" fill="black"/>
<path fill-rule="evenodd" clip-rule="evenodd" d="M83.3836 53.7591C83.5727 52.906 83.6676 52.3369 84.2348 52.3369C84.707 52.3369 84.707 52.7163 84.518 53.7591C84.2348 54.8019 84.0457 55.2765 83.5727 55.2765C83.1004 55.2765 83.1945 54.6131 83.3836 53.7591ZM82.2501 53.7591C81.9661 55.1812 82.1552 56.0352 83.4786 55.9399C84.707 55.9399 85.2742 55.1812 85.5573 53.7591C85.8414 52.3369 85.6514 51.5782 84.423 51.5782C83.1945 51.5782 82.5333 52.3369 82.2501 53.7591Z" fill="black"/>
<path fill-rule="evenodd" clip-rule="evenodd" d="M86.5967 51.6735H87.6361L87.542 52.1473C87.8252 51.7679 88.2982 51.5782 88.6755 51.5782C89.3376 51.5782 89.7158 51.9576 89.5267 52.7163L88.8654 55.8455H87.8252L88.3923 53.0004C88.4873 52.5266 88.3923 52.3369 88.1092 52.3369C87.7311 52.3369 87.4479 52.6219 87.353 53.0956L86.7858 55.8455H85.7464L86.5967 51.6735Z" fill="black"/>
<path fill-rule="evenodd" clip-rule="evenodd" d="M91.7945 54.6131C91.7004 55.0868 91.3223 55.2765 91.0383 55.2765C90.7551 55.2765 90.6602 54.9915 90.7551 54.6131C90.8501 54.2337 91.0383 54.044 91.5114 53.9488C91.6055 53.9488 91.7945 53.8544 91.9836 53.7591L91.7945 54.6131ZM91.1332 52.906V52.8116C91.2282 52.5266 91.4164 52.3369 91.7945 52.3369C92.1726 52.3369 92.2676 52.5266 92.1726 52.8116C92.0777 53.0956 91.9836 53.1909 91.6055 53.2853L91.0383 53.475C90.188 53.6647 89.8098 53.9488 89.7157 54.8019C89.5267 55.3718 89.7158 55.9399 90.472 55.9399C90.9442 55.9399 91.2282 55.8455 91.6055 55.4662C91.6055 55.5606 91.6055 55.7502 91.7004 55.8455H92.6448C92.6448 55.6558 92.6448 55.4662 92.7398 55.0868L93.212 52.8116C93.4011 52.0529 93.212 51.5782 91.9836 51.5782C91.1332 51.5782 90.377 51.8632 90.188 52.8116V52.906H91.1332Z" fill="black"/>
<path fill-rule="evenodd" clip-rule="evenodd" d="M94.5354 50.2514H95.5748L94.4405 55.8455H93.4011L94.5354 50.2514Z" fill="black"/>
<path fill-rule="evenodd" clip-rule="evenodd" d="M98.3157 54.1384V54.3281C98.2208 54.8019 98.3157 55.1812 98.882 55.1812C99.166 55.1812 99.5442 54.8971 99.6383 54.4234C99.8273 53.9488 99.5442 53.7591 98.882 53.475C97.9376 53.1909 97.5595 52.7163 97.7486 51.8632C98.0317 50.7251 98.7879 50.157 99.8273 50.157C100.867 50.157 101.434 50.6307 101.245 51.6735V51.8632H100.11C100.3 51.2942 100.11 51.0101 99.7332 51.0101C99.166 51.0101 98.977 51.2942 98.977 51.6735C98.882 51.9576 98.882 52.2425 99.3551 52.4322L100.11 52.8116C100.867 53.1909 101.056 53.5694 100.867 54.2337C100.678 55.4662 99.8273 55.9399 98.5989 55.9399C97.3704 55.9399 96.9923 55.3718 97.1814 54.3281V54.1384H98.3157Z" fill="black"/>
<path fill-rule="evenodd" clip-rule="evenodd" d="M102.474 50.4411H103.514L103.229 51.6735H103.891L103.702 52.4322H103.135L102.662 54.7075C102.568 54.9915 102.568 55.0868 102.946 55.0868C103.04 55.0868 103.04 55.0868 103.135 55.0868L103.04 55.8455C102.757 55.8455 102.568 55.9399 102.284 55.9399C101.434 55.9399 101.34 55.6558 101.529 54.8019L102.001 52.4322H101.529L101.623 51.6735H102.19L102.474 50.4411Z" fill="black"/>
<path fill-rule="evenodd" clip-rule="evenodd" d="M105.592 54.6131C105.498 55.0868 105.119 55.2765 104.836 55.2765C104.553 55.2765 104.458 54.9915 104.553 54.6131C104.553 54.2337 104.836 54.044 105.309 53.9488C105.403 53.9488 105.592 53.8544 105.781 53.7591L105.592 54.6131ZM104.931 52.906V52.8116C105.025 52.5266 105.214 52.3369 105.592 52.3369C105.97 52.3369 106.064 52.5266 105.97 52.8116C105.875 53.0956 105.781 53.1909 105.403 53.2853L104.836 53.475C103.986 53.6647 103.608 53.9488 103.419 54.8019C103.324 55.3718 103.514 55.9399 104.175 55.9399C104.742 55.9399 105.025 55.8455 105.403 55.4662C105.403 55.5606 105.403 55.7502 105.498 55.8455H106.443C106.443 55.6558 106.443 55.4662 106.538 55.0868L107.01 52.8116C107.104 52.0529 107.01 51.5782 105.781 51.5782C104.931 51.5782 104.175 51.8632 103.986 52.8116V52.906H104.931Z" fill="black"/>
<path fill-rule="evenodd" clip-rule="evenodd" d="M107.955 51.6735H108.994L108.899 52.1473C109.278 51.7679 109.656 51.5782 110.128 51.5782C110.79 51.5782 111.073 51.9576 110.979 52.7163L110.317 55.8455H109.184L109.845 53.0004C109.939 52.5266 109.845 52.3369 109.467 52.3369C109.089 52.3369 108.899 52.6219 108.805 53.0956L108.144 55.8455H107.104L107.955 51.6735Z" fill="black"/>
<path fill-rule="evenodd" clip-rule="evenodd" d="M112.397 53.7591C112.586 52.8116 112.775 52.3369 113.247 52.3369C113.719 52.3369 113.719 52.8116 113.531 53.7591C113.341 54.7075 113.152 55.1812 112.68 55.1812C112.208 55.1812 112.208 54.7075 112.397 53.7591ZM113.152 55.8455H114.192L115.326 50.2514H114.286L113.908 52.0529C113.719 51.7679 113.531 51.5782 113.058 51.5782C112.208 51.5782 111.64 52.2425 111.357 53.7591C110.979 55.2765 111.262 55.9399 112.113 55.9399C112.586 55.9399 112.869 55.8455 113.247 55.3718L113.152 55.8455Z" fill="black"/>
<path fill-rule="evenodd" clip-rule="evenodd" d="M117.121 54.6131C117.027 55.0868 116.555 55.2765 116.271 55.2765C115.988 55.2765 115.988 54.9915 115.988 54.6131C116.082 54.2337 116.271 54.044 116.743 53.9488C116.933 53.9488 117.121 53.8544 117.31 53.7591L117.121 54.6131ZM116.46 52.906V52.8116C116.555 52.5266 116.743 52.3369 117.121 52.3369C117.405 52.3369 117.499 52.5266 117.499 52.8116C117.405 53.0956 117.31 53.1909 116.933 53.2853L116.271 53.475C115.516 53.6647 115.137 53.9488 114.948 54.8019C114.854 55.3718 114.948 55.9399 115.704 55.9399C116.271 55.9399 116.555 55.8455 116.933 55.4662C116.933 55.5606 116.933 55.7502 116.933 55.8455H117.973C117.878 55.6558 117.973 55.4662 118.067 55.0868L118.445 52.8116C118.634 52.0529 118.54 51.5782 117.216 51.5782C116.46 51.5782 115.704 51.8632 115.516 52.8116V52.906H116.46Z" fill="black"/>
<path fill-rule="evenodd" clip-rule="evenodd" d="M119.484 51.6735H120.524L120.429 52.2425C120.713 51.8632 121.091 51.5782 121.564 51.5782C121.564 51.5782 121.658 51.5782 121.752 51.5782L121.469 52.6219C121.374 52.6219 121.28 52.6219 121.185 52.6219C120.808 52.6219 120.334 52.8116 120.24 53.3806L119.673 55.8455H118.634L119.484 51.6735Z" fill="black"/>
<path fill-rule="evenodd" clip-rule="evenodd" d="M122.603 53.7591C122.792 52.8116 122.981 52.3369 123.453 52.3369C123.926 52.3369 123.926 52.8116 123.737 53.7591C123.548 54.7075 123.359 55.1812 122.886 55.1812C122.414 55.1812 122.414 54.7075 122.603 53.7591ZM123.359 55.8455H124.398L125.532 50.2514H124.493L124.115 52.0529C123.926 51.7679 123.737 51.5782 123.264 51.5782C122.414 51.5782 121.847 52.2425 121.564 53.7591C121.185 55.2765 121.469 55.9399 122.319 55.9399C122.792 55.9399 123.075 55.8455 123.453 55.3718L123.359 55.8455Z" fill="black"/>
<path fill-rule="evenodd" clip-rule="evenodd" d="M126.194 54.5178L126.099 54.6131C126.005 54.9915 126.194 55.2765 126.573 55.2765C126.856 55.2765 127.139 55.0868 127.234 54.7075C127.234 54.4234 127.139 54.3281 126.951 54.2337L126.194 53.9488C125.627 53.7591 125.438 53.3806 125.532 52.8116C125.721 52.1473 126.288 51.5782 127.423 51.5782C128.367 51.5782 128.745 51.9576 128.556 52.7163V52.906H127.517C127.612 52.5266 127.612 52.3369 127.234 52.3369C126.951 52.3369 126.667 52.4322 126.573 52.7163C126.573 52.906 126.667 53.0956 126.951 53.1909L127.612 53.475C128.178 53.6647 128.367 54.044 128.273 54.6131C128.084 55.5606 127.328 55.9399 126.383 55.9399C125.249 55.9399 124.966 55.4662 125.154 54.6131V54.5178H126.194Z" fill="black"/>
<path fill-rule="evenodd" clip-rule="evenodd" d="M130.447 55.8455L131.675 50.2514H132.809L131.581 55.8455H130.447Z" fill="black"/>
<path fill-rule="evenodd" clip-rule="evenodd" d="M133.282 51.6735H134.321L134.227 52.1473C134.51 51.7679 134.983 51.5782 135.361 51.5782C136.117 51.5782 136.4 51.9576 136.211 52.7163L135.55 55.8455H134.51L135.078 53.0004C135.172 52.5266 135.078 52.3369 134.794 52.3369C134.416 52.3369 134.132 52.6219 134.038 53.0956L133.471 55.8455H132.432L133.282 51.6735Z" fill="black"/>
<path fill-rule="evenodd" clip-rule="evenodd" d="M137.345 54.5178V54.6131C137.251 54.9915 137.345 55.2765 137.723 55.2765C138.102 55.2765 138.291 55.0868 138.385 54.7075C138.48 54.4234 138.291 54.3281 138.102 54.2337L137.44 53.9488C136.873 53.7591 136.684 53.3806 136.778 52.8116C136.873 52.1473 137.44 51.5782 138.574 51.5782C139.519 51.5782 139.897 51.9576 139.708 52.7163V52.906H138.763C138.857 52.5266 138.763 52.3369 138.385 52.3369C138.102 52.3369 137.913 52.4322 137.818 52.7163C137.723 52.906 137.818 53.0956 138.196 53.1909L138.763 53.475C139.425 53.6647 139.613 54.044 139.425 54.6131C139.235 55.5606 138.48 55.9399 137.629 55.9399C136.4 55.9399 136.211 55.4662 136.4 54.6131V54.5178H137.345Z" fill="black"/>
<path fill-rule="evenodd" clip-rule="evenodd" d="M141.126 50.4411H142.165L141.882 51.6735H142.543L142.354 52.4322H141.787L141.315 54.7075C141.22 54.9915 141.22 55.0868 141.598 55.0868C141.693 55.0868 141.693 55.0868 141.787 55.0868L141.693 55.8455C141.41 55.8455 141.22 55.9399 140.937 55.9399C140.086 55.9399 139.991 55.6558 140.18 54.8019L140.653 52.4322H140.18L140.275 51.6735H140.842L141.126 50.4411Z" fill="black"/>
<path fill-rule="evenodd" clip-rule="evenodd" d="M142.921 51.6735H144.056L143.11 55.8455H142.071L142.921 51.6735ZM143.299 50.2514H144.339L144.15 51.1998H143.015L143.299 50.2514Z" fill="black"/>
<path fill-rule="evenodd" clip-rule="evenodd" d="M145.284 50.4411H146.323L146.039 51.6735H146.702L146.512 52.4322H145.945L145.473 54.7075C145.378 54.9915 145.378 55.0868 145.756 55.0868C145.85 55.0868 145.85 55.0868 145.945 55.0868L145.85 55.8455C145.567 55.8455 145.378 55.9399 145.095 55.9399C144.244 55.9399 144.15 55.6558 144.339 54.8019L144.811 52.4322H144.339L144.434 51.6735H145L145.284 50.4411Z" fill="black"/>
<path fill-rule="evenodd" clip-rule="evenodd" d="M148.402 55.3718C148.119 55.7502 147.647 55.9399 147.268 55.9399C146.513 55.9399 146.228 55.5606 146.418 54.8019L147.08 51.6735H148.119L147.552 54.5178C147.458 54.9915 147.552 55.1812 147.835 55.1812C148.213 55.1812 148.497 54.8971 148.591 54.4234L149.158 51.6735H150.198L149.348 55.8455H148.308L148.402 55.3718Z" fill="black"/>
<path fill-rule="evenodd" clip-rule="evenodd" d="M151.426 50.4411H152.466L152.277 51.6735H152.844L152.75 52.4322H152.088L151.615 54.7075C151.521 54.9915 151.615 55.0868 151.899 55.0868C151.993 55.0868 152.088 55.0868 152.183 55.0868L151.993 55.8455C151.71 55.8455 151.521 55.9399 151.237 55.9399C150.482 55.9399 150.387 55.6558 150.482 54.8019L151.048 52.4322H150.482L150.671 51.6735H151.143L151.426 50.4411Z" fill="black"/>
<path fill-rule="evenodd" clip-rule="evenodd" d="M153.695 53.9488L153.6 54.2337C153.506 54.7075 153.506 55.2765 153.978 55.2765C154.261 55.2765 154.545 54.9915 154.639 54.4234H155.68C155.396 55.4662 154.828 55.9399 153.789 55.9399C152.277 55.9399 152.466 54.8019 152.656 53.7591C152.939 52.6219 153.317 51.5782 154.828 51.5782C156.057 51.5782 156.152 52.4322 155.868 53.6647L155.774 53.9488H153.695ZM154.923 53.2853C155.018 52.6219 155.018 52.3369 154.545 52.3369C154.167 52.3369 153.978 52.7163 153.883 53.0956L153.789 53.2853H154.923Z" fill="black"/>
</svg>
