<svg width="240" height="48" viewBox="0 0 240 48" fill="none" xmlns="http://www.w3.org/2000/svg">
<path d="M142.883 10.0425C148.915 10.0425 154.191 12.8768 156.089 18.1871L149.667 20.0488C148.089 16.9678 145.491 16.158 142.883 16.158C138.479 16.158 135.129 19.6439 135.129 24.2188C135.129 28.7938 138.558 32.3216 143.082 32.3216C146.637 32.3216 149.221 30.46 150.233 27.4627H141.95V21.7894H156.854C156.96 22.609 157.014 23.4344 157.017 24.2607C157.017 32.4845 151.161 38.3999 143.003 38.3999C134.846 38.3999 128.424 32.1867 128.424 24.2188C128.424 16.251 134.762 10.0425 142.883 10.0425ZM101.107 16.7211C106.132 16.7211 109.459 19.0202 110.271 22.5294L104.402 23.6976C104.202 22.4456 103.009 21.3193 101.023 21.3193C99.2973 21.3193 98.4296 22.0454 98.2718 22.8924C98.1651 23.4463 98.4296 23.907 100.262 24.2887C100.74 24.392 101.606 24.5698 102.468 24.745L102.713 24.7949C103.898 25.0352 105.005 25.2567 105.005 25.2567C108.824 26.0619 110.573 28.361 110.573 31.3443C110.573 35.8215 106.712 38.1625 101.404 38.1625C96.6616 38.1625 92.5875 36.4265 91.9147 32.2751L98.2115 30.9952C98.4899 32.7312 100.068 33.3781 101.789 33.3781C103.511 33.3781 104.828 32.6474 104.866 31.7631C104.926 30.4228 103.877 29.6269 102.392 29.3383C101.367 29.1429 98.2903 28.5332 98.2903 28.5332C94.5503 27.849 92.4205 26.7646 92.4205 23.5766C92.4205 19.4251 95.9981 16.7211 101.107 16.7211ZM168.167 16.3767C173.865 16.386 177.457 19.2622 177.457 24.4469V37.3294H171.239V35.8308C169.547 37.2588 167.389 38.0096 165.179 37.9391C160.659 37.9391 157.629 35.3049 157.629 31.2931C157.629 27.2812 160.659 24.7401 166.056 24.7401H171.225V24.3352C171.267 23.5655 170.981 22.8143 170.437 22.2697C169.893 21.7251 169.143 21.4387 168.376 21.4822C166.436 21.4822 165.304 22.2502 164.984 24.0327L158.887 22.7761C159.773 18.848 163.328 16.3767 168.167 16.3767ZM121.477 10.1868V16.9957H127.454V22.1152H121.51V29.1894C121.51 31.2931 122.517 32.1448 124.215 32.1448C125.247 32.1085 126.256 31.8312 127.162 31.335L128.633 36.4405C126.953 37.42 125.045 37.937 123.102 37.9391C118.053 37.9391 115.014 35.1839 115.014 29.8596V22.1385H111.348V17.019H115.014V11.583L121.477 10.1868ZM188.57 10.1868V16.9957H194.547V22.1152H188.561V29.1894C188.561 31.2931 189.573 32.1448 191.266 32.1448C192.299 32.1091 193.31 31.8318 194.217 31.335L195.712 36.4405C194.033 37.4184 192.127 37.9353 190.185 37.9391C185.137 37.9391 182.111 35.1839 182.111 29.8363V22.1385H178.436V17.019H182.111V11.583L188.57 10.1868ZM80.4348 16.4558C86.4532 16.4698 91.5435 20.7609 91.5435 27.1602C91.5435 33.6015 86.4392 37.8972 80.4348 37.8972C74.2958 37.8972 69.2055 33.6015 69.2055 27.1602C69.2055 20.719 74.3097 16.4558 80.4348 16.4558ZM205.929 16.4558C211.948 16.4698 217.033 20.7609 217.033 27.1602C217.033 33.6015 211.929 37.8972 205.929 37.8972C199.79 37.8972 194.7 33.6015 194.7 27.1602C194.7 20.719 199.804 16.4558 205.929 16.4558ZM49.5403 10.1868V20.7609H60.932V10.1868H67.5536V37.3294H60.932V26.6017H49.5403V37.3294H42.877V10.1868H49.5403ZM232.095 16.6932C232.587 16.6868 233.077 16.7479 233.552 16.8747L233.269 23.3439H232.095C227.576 23.3439 225.112 25.6709 225.112 30.9626V37.3294H218.648V18.3919L225.112 16.9957V20.8819C226.564 18.4524 228.787 16.6932 232.095 16.6932ZM171.239 28.845H166.794C165.179 28.845 164.172 29.6967 164.172 30.9533C164.172 32.2099 165.3 33.057 166.998 33.057C169.221 33.0756 171.239 31.577 171.239 29.3104V28.845ZM80.4302 21.8965C79.0652 21.9118 77.7643 22.4794 76.8225 23.4705C75.8808 24.4615 75.3779 25.792 75.428 27.1602C75.428 30.3622 77.8085 32.4287 80.4348 32.4287C82.9405 32.4287 85.3163 30.3622 85.3163 27.1602C85.3163 24.0001 82.9359 21.8965 80.4302 21.8965ZM205.929 21.8965C204.563 21.9093 203.259 22.4758 202.316 23.4672C201.372 24.4585 200.868 25.7904 200.918 27.1602C200.918 30.3622 203.303 32.4287 205.929 32.4287C208.43 32.4287 210.815 30.3622 210.815 27.1602C210.815 24.0001 208.43 21.8965 205.929 21.8965Z" fill="#1F2044"/>
<path d="M28.3954 33.3037C27.2632 34.4021 26.1356 35.91 24.9941 36.9991C25.537 39.8613 24.4744 41.1179 25.7551 42.1465C26.2192 42.5142 29.0033 43.3007 30.6042 42.3885C30.6366 40.9038 29.8292 40.4617 28.9662 39.9079C28.0892 38.0462 28.4047 35.1607 28.3861 33.3037" fill="#2E93EE"/>
<path d="M29.0435 42.8076C28.8575 41.9573 28.2577 41.2577 27.4473 40.946C28.0902 41.3401 28.4701 42.0524 28.4403 42.8076C28.6444 42.8169 28.844 42.8169 29.0435 42.8076Z" fill="#2E578B"/>
<path d="M30.3938 42.5004C30.2128 41.6506 29.6157 40.9502 28.8068 40.6388C29.6328 41.2764 29.8973 41.9606 29.7813 42.7052C29.9915 42.6567 30.1966 42.5881 30.3938 42.5004Z" fill="#2E578B"/>
<path d="M27.0728 18.4856C26.4881 19.3373 26.2282 21.1245 30.8777 23.7447C30.8777 23.7447 28.9242 27.1283 28.3071 27.7473C27.6899 28.3663 27.3141 30.0138 27.9173 30.8422C28.2295 31.2779 28.5873 31.6789 28.9845 32.0383C28.9845 32.0383 30.5251 32.3269 31.184 31.9546C31.9991 31.0506 32.1829 29.7399 31.648 28.6455C31.648 28.6455 35.569 24.5313 35.3184 23.2933C35.0678 22.0553 28.9242 15.7862 27.0728 18.4856Z" fill="#2E93EE"/>
<path d="M31.6247 28.645C31.6247 28.645 30.0377 29.9575 29.6387 30.1809C29.962 30.0827 30.2733 29.9485 30.5667 29.7806C30.5667 29.7806 31.272 30.6463 30.757 31.377C30.757 31.377 31.685 30.8324 31.0679 29.5805C31.2817 29.3102 31.477 29.0256 31.6525 28.7288L31.6247 28.645Z" fill="#2E578B"/>
<path d="M15.2807 27.8817C15.2694 28.1863 15.1765 28.4821 15.0116 28.7381C14.7425 29.1616 14.5893 29.1151 15.2575 29.4781C15.7551 29.7309 16.2916 29.8976 16.8445 29.9714C17.7725 30.125 17.5637 30.0226 17.1507 29.1383C16.9692 28.7402 16.7534 28.3587 16.5057 27.9981C15.5777 26.7182 15.3178 26.8066 15.2807 27.8724" fill="#2E93EE"/>
<path d="M11.9491 27.4396C11.6057 28.0772 12.13 28.1796 12.8029 28.417C13.055 28.505 13.3167 28.5628 13.5824 28.5892C14.3388 28.6729 14.1439 28.5612 13.8098 27.9469C13.6086 27.568 13.3855 27.2013 13.1416 26.8485C11.8098 24.931 12.4456 26.5088 11.9491 27.4396Z" fill="#2E93EE"/>
<path d="M9.07212 27.1557C9.0834 27.3013 9.0834 27.4476 9.07212 27.5932C9.02572 28.1237 8.9654 28.0353 9.61967 28.0958C9.91108 28.1288 10.2053 28.1288 10.4967 28.0958C11.3319 27.9702 11.0257 27.677 10.5895 27.1883C10.4405 27.018 10.2758 26.8622 10.0976 26.7229C8.4457 25.4476 9.06748 26.3459 9.09069 27.1604" fill="#2E93EE"/>
<path d="M20.139 8.45117C20.139 8.45117 15.4014 10.8992 15.4432 11.6765C15.4849 12.4537 16.7795 12.3466 17.2992 13.3892C17.2992 13.3892 14.3991 15.3997 14.5847 16.3212C14.7703 17.2428 16.6403 16.9077 17.1043 17.6383C17.1043 17.6383 16.6403 19.4721 17.0626 20.1423C17.4848 20.8124 17.4199 20.2353 17.9906 21.0731C18.0324 21.0917 17.6983 14.2502 20.139 8.45117Z" fill="#2E93EE"/>
<path d="M19.1467 10.6758C20.8172 12.2675 22.9239 13.2681 24.8449 14.5015C26.1672 15.2944 27.3328 16.3246 28.2833 17.5406C29.4341 19.0858 28.7473 20.9055 29.035 22.7997C29.1232 23.442 29.165 24.0936 29.1928 24.7451C29.2423 25.9298 29.2082 27.1164 29.0907 28.2962C28.7984 31.1166 28.6545 33.4157 26.6685 35.5287C24.1906 38.1722 21.4622 38.7865 18.3672 36.4874C17.2763 35.7723 16.2827 34.9181 15.4114 33.9463C14.7757 33.2016 13.9868 32.7269 13.3047 32.0334C12.4386 31.1125 11.4055 30.3654 10.2607 29.8321C9.06356 29.3666 8.23761 29.9996 7.6483 30.2695C7.34668 30.4092 6.92907 30.6791 6.59033 30.4092C6.45983 30.3111 6.4121 30.1368 6.47433 29.9856C6.65092 29.5615 6.91869 29.1817 7.25852 28.8733C9.08212 27.1978 12.0287 27.1606 14.2188 28.3381C15.0494 28.8035 15.9543 29.2922 16.9148 29.3527C17.5923 29.4318 18.2733 29.2375 18.808 28.8128C19.2228 28.4307 19.496 27.9188 19.5829 27.3607C19.7377 26.5845 19.6816 25.7808 19.4205 25.0337C19.0632 23.9539 18.4229 22.9766 18.0052 21.9108C16.6132 18.2853 16.1492 14.1524 18.4089 10.7642L18.7245 10.2988L19.1467 10.6758Z" fill="#2E93EE"/>
<path d="M10.6504 29.9903C12.2466 30.7908 13.9449 32.5827 15.5737 34.5141C17.7035 37.0506 22.998 40.7878 27.4108 34.9144C31.5453 29.3853 29.601 21.6362 29.3597 20.7566L29.3319 20.6635C29.1927 20.4867 25.5083 15.7674 22.1303 15.0786C21.2301 15.8605 21.0537 17.2428 22.2509 19.6257C24.2694 23.6328 25.8842 29.4737 22.2973 33.062C21.7632 33.6099 21.1084 34.0243 20.3856 34.2721C17.8381 35.1145 16.4878 33.5647 14.8915 32.066C13.7297 30.9453 12.2461 30.2192 10.6504 29.9903Z" fill="#FFCF00"/>
<path d="M27.9066 34.2069C26.3534 34.0301 24.8792 33.4261 23.6469 32.4616C24.5272 33.7493 25.8804 34.6346 27.4101 34.9236C27.5864 34.6909 27.7767 34.4489 27.9066 34.2069Z" fill="#ECA93F"/>
<path d="M20.7328 34.5653C21.3388 35.8538 22.2158 36.9953 23.3035 37.9116C23.651 37.8297 23.9897 37.7144 24.3151 37.5671C22.8561 36.936 21.6115 35.8931 20.7328 34.5653Z" fill="#ECA93F"/>
<path d="M15.3131 34.2162L15.5729 34.5234L15.6936 34.6676C15.6108 34.2895 15.6515 33.8946 15.8096 33.5414C15.6286 33.7544 15.4627 33.9799 15.3131 34.2162Z" fill="#ECA93F"/>
<path d="M17.1042 36.008C17.2898 36.157 17.48 36.3059 17.6796 36.4734C17.545 35.8312 17.4847 35.161 17.7028 34.7887C17.4589 35.1717 17.2581 35.5806 17.1042 36.008Z" fill="#ECA93F"/>
<path d="M13.6055 32.3592L14.0184 32.7827C14.0116 32.4837 14.0428 32.185 14.1113 31.8938C13.9311 32.0358 13.762 32.1914 13.6055 32.3592Z" fill="#ECA93F"/>
<path d="M24.7884 29.3946C26.4028 28.906 28.1251 28.906 29.7395 29.3946C29.7812 29.1619 29.8184 28.9292 29.8508 28.7058C26.6073 27.9332 24.7884 29.3946 24.7884 29.3946Z" fill="#ECA93F"/>
<path d="M29.9483 24.303C29.9251 24.0237 29.8972 23.7585 29.8694 23.5025C26.431 23.4187 24.6585 25.0942 24.6585 25.0942C26.289 24.2603 28.1461 23.9826 29.9483 24.303Z" fill="#ECA93F"/>
<path d="M28.5933 19.7885C28.4588 19.6349 28.3103 19.4674 28.1293 19.2905C24.4775 19.2905 23.4891 20.9939 23.4891 20.9939C25.0094 20.0337 26.8056 19.6095 28.5933 19.7885Z" fill="#ECA93F"/>
<path d="M29.902 23.7768C29.812 22.9494 29.6773 22.1275 29.4983 21.3147L29.2338 21.1519C28.0691 20.3886 22.937 17.2936 21.4336 16.3628C21.4076 16.5917 21.4076 16.8227 21.4336 17.0516C23.0113 19.2669 26.5517 23.0181 29.902 23.7768Z" fill="#ECA93F"/>
<path d="M18.2655 32.7318C18.737 32.0364 19.546 31.6503 20.3814 31.7218C22.7294 32.029 21.9869 34.8168 21.4255 36.4551C21.0354 37.6328 20.8106 38.8593 20.7573 40.0992C20.7573 41.7188 21.3744 42.2075 20.6227 42.8405C19.4261 43.6813 17.9784 44.0853 16.5208 43.9854C15.2169 43.6875 15.1844 40.9975 17.2632 40.3133C17.8386 39.0567 17.8154 37.7722 17.769 36.4318C17.7365 35.501 17.6576 33.6393 18.2655 32.7085" fill="#2E93EE"/>
<path d="M17.7589 43.9714C17.9445 43.9434 18.1301 43.9109 18.3111 43.869C18.1479 43.0781 18.392 42.258 18.9607 41.6862C18.1069 42.1749 17.8285 43.008 17.7589 43.9714Z" fill="#2E578B"/>
<path d="M16.5014 43.99C16.3075 43.1262 16.5407 42.2217 17.1278 41.5605C16.406 42.0083 15.9617 42.7944 15.9492 43.6456C16.092 43.8164 16.2855 43.9371 16.5014 43.99Z" fill="#2E578B"/>
<path d="M17.7083 29.3247C17.7083 29.3247 17.4392 30.8838 18.4972 31.4051C19.3881 31.8705 20.4832 31.8705 21.0307 31.205C21.7871 30.2741 22.8868 28.4125 19.8753 26.5834C18.0192 25.4525 17.9032 29.2921 17.9032 29.2921L17.7083 29.3247Z" fill="#2E578B"/>
<path d="M17.9688 21.8501C18.3632 22.7111 18.7205 23.3766 18.739 23.4371C18.7576 23.4976 21.1891 20.3887 20.7343 19.8861C20.2796 19.3834 18.3539 21.1752 17.9688 21.8501Z" fill="#2E578B"/>
<path d="M20.3541 17.3915C22.9851 19.9373 17.5236 23.3069 17.5236 23.3069C18.1175 23.6839 18.8692 24.9731 19.4307 25.9132C19.9922 26.8533 20.2149 26.6997 20.9016 27.4816C21.5884 28.2635 19.6302 29.4317 19.6302 29.4317C19.6302 29.4317 13.0597 25.8713 13.0782 23.5908C13.0782 23.3069 14.6049 20.7704 16.1454 19.1973C16.9203 18.4061 19.0966 16.1768 20.3541 17.3915Z" fill="#2E93EE"/>
<path d="M17.801 28.1658C17.801 28.1658 17.337 30.5906 18.7569 31.298C18.7569 31.298 19.9309 31.3725 20.5248 30.9443C20.5248 30.9443 22.005 28.6638 20.9007 27.4817C19.7963 26.2995 17.801 28.1658 17.801 28.1658Z" fill="#2E93EE"/>
<path d="M17.7725 28.3379C17.7725 28.3379 19.6703 29.3571 19.9998 29.4502C19.6694 29.4958 19.3329 29.4458 19.03 29.3059C19.03 29.3059 18.5659 30.2368 19.1088 30.8139C19.1088 30.8139 18.2365 30.6603 18.5474 29.1989L17.7539 28.3798L17.7725 28.3379Z" fill="#2E578B"/>
<path d="M19.4766 9.94503C19.4766 9.94503 20.4649 4.09949 22.8825 4.00176C24.4741 3.93195 25.2768 5.96578 25.2768 5.96578C26.2517 5.97011 27.2049 6.25435 28.0238 6.7849C28.0238 6.7849 28.4879 5.97975 29.2256 6.24038C29.9634 6.501 30.8033 8.19509 30.5017 10.9782C31.2317 11.0907 31.8707 11.5311 32.2371 12.1743C32.0416 12.4558 31.743 12.6482 31.4065 12.7096C30.9054 12.7515 28.7431 11.9603 28.1584 12.4769C27.5629 12.8949 27.2611 13.6199 27.3835 14.3385C27.3835 14.3385 24.9938 14.0965 23.9312 12.7328C22.8686 11.3692 21.9544 8.72566 19.4766 9.94503Z" fill="#2E93EE"/>
<path d="M27.7037 10.3686C27.7037 10.3686 28.2976 8.40454 29.4391 7.85535C29.4796 8.80603 29.5835 9.75292 29.75 10.6897C29.0747 10.5427 28.3914 10.4355 27.7037 10.3686Z" fill="#F1F1F2"/>
<path d="M22.5345 6.34277C22.5345 6.34277 24.0054 7.05485 24.9938 10.1126C23.8929 9.92463 22.7788 9.82503 21.6621 9.81473C22.2095 8.73792 22.5077 7.55116 22.5345 6.34277Z" fill="#F1F1F2"/>
<path d="M23.1379 7.70166C23.4952 7.70166 23.7875 8.10191 23.7875 8.5999C23.7875 9.09789 23.4952 9.49349 23.1379 9.49349C22.7806 9.49349 22.4883 9.09323 22.4883 8.5999C22.4883 8.10657 22.776 7.70166 23.1379 7.70166Z" fill="#2E578B"/>
<path d="M28.6319 10.0846C28.915 10.0846 29.1423 9.78204 29.1423 9.40506C29.1423 9.02808 28.915 8.72556 28.6319 8.72556C28.5776 8.72859 28.5242 8.7412 28.4742 8.76279C28.3182 8.94382 28.1999 9.15427 28.1261 9.38179C28.1238 9.39722 28.1238 9.4129 28.1261 9.42833C28.1215 9.78204 28.3489 10.0846 28.6319 10.0846Z" fill="#2E578B"/>
<path d="M22.6742 11.4017C22.6742 11.4017 20.9109 10.0054 20.0153 11.0014C18.9481 12.2022 20.0153 14.0685 20.0153 14.0685C20.0153 14.0685 20.1453 13.268 20.5443 13.0027C20.5443 13.0027 20.7021 15.5298 24.804 18.3409C28.906 21.152 30.6925 20.8448 31.588 20.6075C32.4836 20.3701 33.3931 19.7278 33.0497 19.0064C32.7063 18.2851 30.3909 16.3257 30.3909 16.3257C30.3909 16.3257 29.5139 16.4327 27.7274 15.8044C25.9409 15.1761 23.5512 13.9428 22.0106 11.8019C22.2386 11.6801 22.46 11.5465 22.6742 11.4017Z" fill="#FF9144"/>
<path d="M21.6426 14.6873C23.9397 14.1346 26.3596 14.7883 28.0693 16.4233L27.6052 16.172C27.6052 16.172 29.7119 16.0696 30.0042 16.3628C31.2543 17.2101 32.0558 18.5784 32.1851 20.0861C32.2455 20.8075 30.5425 21.217 26.7468 19.3228C24.3896 18.1314 21.6426 14.6873 21.6426 14.6873Z" fill="#FF6B17"/>
<path d="M30.2189 16.3118C30.2189 16.3118 29.7085 18.4107 28.9197 18.1734C28.6552 18.0943 28.7619 17.4985 28.6552 17.089C28.5484 16.6794 28.2422 15.8975 28.2422 15.8975L30.2189 16.3118Z" fill="#EBEEF2"/>
<path d="M34.1213 15.5159C34.1213 15.5159 33.9589 17.6707 33.1422 17.5684C32.8685 17.5358 32.8778 16.9307 32.7061 16.5445C32.5344 16.1582 32.1121 15.4321 32.1121 15.4321L34.1213 15.5159Z" fill="#EBEEF2"/>
<path d="M34.9879 13.6263C34.8858 12.1091 32.8905 11.4436 31.4242 12.5094C30.227 12.2441 28.8999 11.4436 27.712 12.6443C27.2264 13.0515 27.0757 13.7361 27.3454 14.3105C27.3454 14.3105 24.8583 13.9102 23.9999 12.6397C23.1414 11.3691 22.0185 9.66571 20.8167 9.5447C20.1763 9.4842 19.0952 9.39112 18.4687 10.6151C17.8423 11.8392 17.5407 14.0499 22.1809 17.5497C26.8211 21.0496 28.8535 21.9944 29.8651 21.9898C31.1504 21.9898 31.2293 21.5243 32.7095 21.3009C33.4659 21.1939 34.0413 19.9047 33.2107 18.7877C32.5167 17.9121 31.6749 17.1654 30.7235 16.5817C30.6771 16.6282 32.5239 18.1129 32.8673 18.8343C33.2107 19.5557 32.1945 20.0118 31.3035 20.2305C30.4126 20.4492 29.2665 20.6959 25.1692 17.9035C21.0719 15.111 20.6311 12.286 20.6311 12.286C20.1114 12.2068 20.051 13.3378 20.051 13.3378C20.051 13.3378 19.4525 12.03 20.2552 11.2481C21.225 10.3173 22.2273 11.4668 22.2273 11.4668H22.167C21.5591 11.1736 21.4756 11.6995 21.4756 11.6995C23.0913 13.7858 25.2262 15.4086 27.6656 16.4048C29.4521 17.0331 30.3894 16.3257 30.3894 16.3257C31.2378 16.3197 32.0846 16.2512 32.923 16.1209C33.5633 15.9487 35.1317 15.6788 34.9879 13.6263Z" fill="#FFCF00"/>
<path d="M29.0436 13.4636C29.4613 13.3332 29.7814 13.8964 29.2339 14.1384C29.155 14.3478 29.2803 14.5759 29.6144 14.655C29.2864 14.8131 28.8927 14.6745 28.7351 14.3455C28.5775 14.0165 28.7156 13.6216 29.0436 13.4636Z" fill="#ECA93F"/>
<path d="M33.7488 13.2914C33.4054 13.1797 33.141 13.6451 33.5957 13.8498C33.656 14.0221 33.5539 14.2082 33.2755 14.2734C34.1572 14.4549 34.2036 13.4543 33.7395 13.2914" fill="#ECA93F"/>
</svg>
