<svg width="304" height="48" viewBox="0 0 304 48" fill="none" xmlns="http://www.w3.org/2000/svg">
<path d="M270.728 8.98753V23.8005H274.619C280.205 23.8005 282.798 20.808 282.798 16.3691C282.798 12.7781 281.053 8.98753 273.671 8.98753H270.728ZM286.19 43.0025C282.146 37.684 278.336 32.1926 274.768 26.5436H270.778V40.2095L276.813 40.808V43.202C274.02 43.1022 272.075 43.0025 269.681 43.0025H265.392C262.998 43.0025 260.654 43.1022 257.91 43.202V40.808L264.344 40.2095V8.93766L257.861 8.4389V5.94513C261.352 6.09476 263.846 6.19451 265.841 6.19451H274.818C282.698 6.19451 289.531 8.93767 289.531 16.0698C289.531 21.0574 285.841 23.9002 281.202 25.2968C284.532 30.6882 288.392 35.734 292.723 40.3591L296.664 40.7581V43.202L286.19 43.0025ZM197.312 8.98753L191.028 8.4389V5.99502L198.359 6.19451H202.649L210.23 5.99502V8.38903L203.746 8.98753V40.2593L210.23 40.7581V43.202C207.437 43.1022 205.043 43.0025 202.649 43.0025H198.359C196.015 43.0025 193.621 43.1022 190.878 43.202V40.7581L197.312 40.2593V8.98753ZM182.299 8.98753L170.28 43.4015H165.442L153.472 8.98753L148.933 8.4389V5.99502L157.063 6.19451L166.29 5.99502V8.38903L160.354 8.98753L169.482 36.4189L178.459 8.98753L172.574 8.4389V5.99502L180.155 6.19451L186.539 5.99502V8.38903L182.299 8.98753ZM13.8706 40.2095V8.93766L7.38679 8.4389V5.94513C10.8781 6.09476 13.3718 6.19451 14.918 6.19451H33.3219L33.8207 4.09975H36.4142V14.6234H33.8207L32.8232 8.93766H20.2546V23.1023H29.5314L30.2297 18.9127H32.6736V29.9352H30.2297L29.5314 25.7955H20.2546V36.9676C20.2546 39.4613 20.4042 39.7606 20.5539 39.9102C20.7035 40.0599 21.2022 40.2095 25.292 40.2095H28.9828C31.9753 40.2095 33.4217 40.01 34.0701 39.3616C34.7683 38.6633 35.5663 36.7681 36.5638 32.6284H39.0576L38.0601 43.0025H17.2621C13.7708 43.0025 10.0302 43.1022 7.33691 43.202V40.7581L13.8207 40.2593L13.8706 40.2095ZM106.439 33.6259C106.439 39.9601 101.252 43.7007 94.4691 43.7007C90.9778 43.7007 87.6362 42.6035 85.292 41.1072L84.6436 44H82.1499V31.6309H84.6436C84.893 33.3267 85.292 35.5212 85.6411 37.0673C87.7858 39.3117 91.2272 40.9077 94.2197 40.9077C98.2097 40.9077 100.454 38.6135 100.454 35.0224C100.454 26.6434 82.9479 26.5436 82.9479 15.0723C82.9479 8.98754 87.9354 5.49626 94.3195 5.49626C96.8132 5.49626 99.307 5.99502 101.202 6.79302L101.95 4H104.394V14.823H101.9C101.661 13.2091 101.327 11.6104 100.903 10.0349C99.1699 8.89593 97.1414 8.28911 95.0676 8.28928C91.4766 8.28928 88.8332 9.93516 88.8332 13.6259C88.8332 21.8055 106.439 21.8554 106.439 33.5761V33.6259ZM53.1723 40.2095V8.93766L46.6885 8.4389V5.94513C50.1798 6.09476 52.6736 6.19451 54.2696 6.19451H58.509L66.09 5.99502V8.38903L59.6062 8.93766V37.2668C59.6062 39.0125 59.6062 39.6608 59.9554 39.9601C60.105 40.1596 62.0501 40.2095 64.3444 40.2095H66.2397C69.6312 40.2095 70.7284 39.8603 71.2272 39.3616C71.9254 38.6135 72.8731 36.6683 73.9703 31.2319H76.4641L75.716 43.0025H56.2646C52.5239 43.0025 49.4816 43.1022 46.6885 43.202V40.808L53.1723 40.2095ZM120.703 40.2095V8.93766L114.22 8.4389V5.94513C117.711 6.09476 120.205 6.19451 122.2 6.19451H140.155L140.654 4.09975H143.247V14.6234H140.703L139.706 8.93766H127.137V23.1023H136.364L137.112 18.9127H139.506V29.9352H137.112L136.364 25.8454H127.137V36.9676C127.137 39.4613 127.237 39.7606 127.387 39.9102C127.586 40.0599 128.035 40.2095 132.125 40.2095H136.564C139.556 40.2095 141.003 40.01 141.601 39.3616C142.349 38.6633 143.147 36.7681 144.095 32.6284H146.639L145.591 43.0025H124.145C120.703 43.0025 116.963 43.1022 114.27 43.202V40.7581L120.703 40.2593V40.2095ZM224.993 40.2095V8.93766L218.509 8.4389V5.94513C222 6.09476 224.494 6.19451 226.489 6.19451H244.444L244.993 4.09975H247.536V14.6234H245.043L244.045 8.93766H231.427V23.1023H240.703L241.402 18.9127H243.846V29.9352H241.402L240.703 25.8454H231.427V36.9676C231.427 39.4613 231.576 39.7606 231.726 39.9102C231.876 40.0599 232.374 40.2095 236.464 40.2095H240.255C243.247 40.2095 244.594 40.01 245.242 39.3616C245.94 38.6633 246.738 36.7681 247.736 32.6284H250.23L249.232 43.0025H228.484C224.993 43.0025 221.252 43.1022 218.509 43.202V40.7581L224.993 40.2593V40.2095Z" fill="#FF6C00"/>
</svg>
