<svg width="184" height="48" viewBox="0 0 184 48" fill="none" xmlns="http://www.w3.org/2000/svg">
<path fill-rule="evenodd" clip-rule="evenodd" d="M140.049 31.5837C144.502 31.5837 148.125 28.0332 148.125 23.6692C148.125 19.305 144.502 15.7546 140.049 15.7546C135.596 15.7546 131.973 19.305 131.973 23.6692C131.973 28.0332 135.596 31.5837 140.049 31.5837ZM148.125 4H148.344H151.951V35.36H148.125V32.2288C145.917 34.2345 143.069 35.3332 140.049 35.3332C133.486 35.3332 128.147 30.1006 128.147 23.6692C128.147 17.2373 133.486 12.005 140.049 12.005C143.069 12.005 145.917 13.1035 148.125 15.1094V4ZM60.702 31.4455C65.155 31.4455 68.7779 27.8951 68.7779 23.531C68.7779 19.167 65.155 15.6166 60.702 15.6166C56.2487 15.6166 52.6258 19.167 52.6258 23.531C52.6258 27.8951 56.2487 31.4455 60.702 31.4455ZM52.6258 14.9716C54.834 12.9658 57.6818 11.867 60.702 11.867C67.2646 11.867 72.6039 17.0995 72.6039 23.531C72.6039 29.9626 67.2646 35.195 60.702 35.195C57.6818 35.195 54.834 34.0966 52.6258 32.0905V43.2H48.7998V11.84H52.6258V14.9716ZM79.904 21.7098C80.7652 18.1655 83.9736 15.6206 87.6334 15.6206C91.2454 15.6206 94.271 18.1112 95.0774 21.7098H79.904ZM87.6334 11.84C81.169 11.84 75.91 17.1158 75.91 23.6C75.91 30.0845 81.169 35.36 87.6334 35.36C91.2534 35.36 94.5758 34.0005 96.7502 31.6301L97.8798 30.3979L98.0254 30.239L97.867 30.0923L95.411 27.8262L95.2526 27.6797L95.1062 27.8387L93.9766 29.071C92.5358 30.6418 90.1646 31.5797 87.6334 31.5797C83.9736 31.5797 80.7653 29.0347 79.904 25.4902H99.0526V23.6C99.0526 17.0056 94.0366 11.84 87.6334 11.84ZM174.573 23.6001C174.573 28 170.951 31.5796 166.497 31.5796C162.045 31.5796 158.421 28 158.421 23.6001C158.421 19.2 162.045 15.6204 166.497 15.6204C170.951 15.6204 174.573 19.2 174.573 23.6001ZM166.497 11.84C159.935 11.84 154.596 17.1155 154.596 23.6001C154.596 30.0845 159.935 35.36 166.497 35.36C173.061 35.36 178.4 30.0845 178.4 23.6001C178.4 17.1155 173.061 11.84 166.497 11.84ZM113.269 11.84C110.61 11.84 108.077 12.8524 106.084 14.7014V11.84H102.359V35.36H106.084V23.3574C106.084 19.0751 109.307 15.591 113.269 15.591C117.231 15.591 120.455 19.0751 120.455 23.3574V35.36H124.179V23.3574C124.179 17.0067 119.285 11.84 113.269 11.84Z" fill="#1A2022"/>
<path fill-rule="evenodd" clip-rule="evenodd" d="M5.59961 26.4H23.5995V44L41.5996 26.4V8.80005H23.5995L5.59961 26.4Z" fill="#FF4876"/>
</svg>
