<svg width="192" height="48" viewBox="0 0 192 48" fill="none" xmlns="http://www.w3.org/2000/svg">
<path d="M110.1 19.7447H103.161V20.4808C105.331 20.4808 105.68 20.9461 105.68 23.6989V28.6615C105.68 31.414 105.332 31.918 103.161 31.918C101.494 31.6856 100.369 30.7937 98.8185 29.0879L97.0353 27.1496C99.4388 26.7226 100.718 25.2111 100.718 23.5049C100.718 21.3731 98.8962 19.7447 95.4843 19.7447H88.6611V20.4808C90.8318 20.4808 91.1808 20.9461 91.1808 23.6989V28.6615C91.1808 31.414 90.8318 31.918 88.6611 31.918V32.6546H96.3759V31.918C94.2052 31.918 93.8562 31.414 93.8562 28.6615V27.2662H94.515L98.8185 32.6546H110.1C115.644 32.6546 118.048 29.7085 118.048 26.18C118.048 22.6522 115.644 19.7447 110.1 19.7447ZM93.8565 26.0635V20.9079H95.4458C97.1901 20.9079 97.9658 22.1096 97.9658 23.5053C97.9658 24.8624 97.1901 26.0638 95.4458 26.0638H93.8565V26.0635ZM110.217 31.4528H109.945C108.55 31.4528 108.356 31.1042 108.356 29.3207V20.9079H110.217C114.249 20.9079 114.985 23.8539 114.985 26.1415C114.985 28.5061 114.248 31.4528 110.217 31.4528ZM67.0677 27.4986L69.7428 19.5893C70.5185 17.302 70.1695 16.6432 67.6884 16.6432V15.8675H74.9768V16.6432C72.5345 16.6432 71.953 17.2246 70.9837 20.0548L66.5637 33.3137H66.0599L62.1051 21.1788L58.0735 33.3137H57.5694L53.2662 20.0548C52.3358 17.2246 51.7155 16.6432 49.4668 16.6432V15.8675H58.0735V16.6432C55.7859 16.6432 55.1653 17.1858 55.9799 19.5893L58.5772 27.4986L62.4929 15.8675H63.2298L67.0677 27.4986ZM80.2486 33.1583C75.9843 33.1583 72.495 30.0183 72.495 26.1797C72.495 22.3806 75.9846 19.2399 80.2486 19.2399C84.5133 19.2399 88.0023 22.3806 88.0023 26.1797C88.0023 30.0183 84.5133 33.1583 80.2486 33.1583ZM80.2486 20.4426C76.6823 20.4426 75.4413 23.66 75.4413 26.18C75.4413 28.7392 76.6823 31.918 80.2486 31.918C83.8545 31.918 85.095 28.7392 85.095 26.18C85.095 23.66 83.8545 20.4426 80.2486 20.4426Z" fill="#00749A"/>
<path d="M127.623 31.8792V32.6546H118.745V31.8792C121.343 31.8792 121.808 31.2204 121.808 27.3429V21.1403C121.808 17.2628 121.343 16.6429 118.745 16.6429V15.8672H126.77C130.763 15.8672 132.974 17.922 132.974 20.6751C132.974 23.3502 130.763 25.4435 126.77 25.4435H124.56V27.3426C124.56 31.2204 125.025 31.8792 127.623 31.8792ZM126.77 17.2628H124.56V24.009H126.77C128.941 24.009 129.949 22.4971 129.949 20.6751C129.949 18.8142 128.941 17.2628 126.77 17.2628ZM159.607 29.0105L159.413 29.7082C159.064 30.9876 158.637 31.4528 155.885 31.4528H155.342C153.326 31.4528 152.977 30.9876 152.977 28.2351V26.452C156.001 26.452 156.234 26.7229 156.234 28.7392H156.971V22.9623H156.234C156.234 24.9783 156.001 25.2496 152.977 25.2496V20.9079H155.109C157.862 20.9079 158.288 21.3731 158.637 22.6525L158.832 23.3887H159.452L159.181 19.7446H147.782V20.4808C149.953 20.4808 150.302 20.9461 150.302 23.6988V28.6615C150.302 31.1796 150.006 31.8139 148.294 31.9043C146.667 31.6559 145.551 30.7685 144.022 29.0879L142.239 27.1496C144.643 26.7226 145.922 25.2111 145.922 23.5049C145.922 21.3731 144.1 19.7446 140.688 19.7446H133.865V20.4808C136.036 20.4808 136.385 20.9461 136.385 23.6988V28.6615C136.385 31.414 136.036 31.918 133.865 31.918V32.6546H141.58V31.918C139.41 31.918 139.06 31.414 139.06 28.6615V27.2662H139.719L144.023 32.6546H159.956L160.189 29.0108H159.607V29.0105ZM139.06 26.0635V20.9079H140.649C142.394 20.9079 143.17 22.1096 143.17 23.5052C143.17 24.8624 142.394 26.0638 140.649 26.0638H139.06V26.0635ZM167.477 33.1583C165.926 33.1583 164.569 32.3444 163.988 31.84C163.794 32.0343 163.445 32.6157 163.368 33.1583H162.631V27.8088H163.406C163.717 30.3673 165.499 31.8792 167.787 31.8792C169.028 31.8792 170.036 31.1815 170.036 30.0186C170.036 29.0108 169.144 28.2351 167.555 27.4986L165.345 26.452C163.794 25.7148 162.631 24.4354 162.631 22.7299C162.631 20.869 164.375 19.2798 166.779 19.2798C168.059 19.2798 169.144 19.745 169.803 20.2876C169.997 20.1325 170.191 19.7058 170.307 19.2403H171.044V23.8154H170.23C169.958 21.993 168.95 20.4812 166.896 20.4812C165.81 20.4812 164.802 21.1015 164.802 22.0711C164.802 23.0789 165.616 23.6215 167.477 24.4745L169.609 25.5212C171.47 26.4128 172.206 27.8479 172.206 29.0108C172.206 31.4528 170.074 33.1583 167.477 33.1583ZM179.417 33.1583C177.866 33.1583 176.509 32.3444 175.928 31.84C175.734 32.0343 175.386 32.6157 175.308 33.1583H174.571V27.8088H175.347C175.657 30.3673 177.44 31.8792 179.728 31.8792C180.968 31.8792 181.976 31.1815 181.976 30.0186C181.976 29.0108 181.085 28.2351 179.495 27.4986L177.285 26.452C175.734 25.7148 174.571 24.4354 174.571 22.7299C174.571 20.869 176.316 19.2798 178.72 19.2798C179.999 19.2798 181.084 19.745 181.744 20.2876C181.937 20.1325 182.131 19.7058 182.247 19.2403H182.984V23.8154H182.17C181.898 21.993 180.891 20.4812 178.836 20.4812C177.751 20.4812 176.742 21.1015 176.742 22.0711C176.742 23.0789 177.556 23.6215 179.417 24.4745L181.549 25.5212C183.411 26.4128 184.147 27.8479 184.147 29.0108C184.147 31.4528 182.015 33.1583 179.417 33.1583Z" fill="#464342"/>
<path d="M10.6964 23.9995C10.6964 30.7907 14.6431 36.6597 20.3661 39.4409L12.1818 17.017C11.2299 19.1508 10.6964 21.5121 10.6964 23.9995ZM39.4362 23.1337C39.4362 21.0133 38.6745 19.5448 38.0212 18.4019C37.1515 16.9886 36.3363 15.7917 36.3363 14.3785C36.3363 12.8013 37.5325 11.3332 39.2174 11.3332C39.2935 11.3332 39.3656 11.3426 39.4398 11.3469C36.3873 8.55033 32.3204 6.84289 27.8537 6.84289C21.8597 6.84289 16.5862 9.91824 13.5184 14.5763C13.9209 14.5884 14.3003 14.5969 14.6225 14.5969C16.4171 14.5969 19.1951 14.3791 19.1951 14.3791C20.1199 14.3246 20.229 15.683 19.3051 15.7924C19.3051 15.7924 18.3756 15.9018 17.3414 15.956L23.5893 34.5402L27.3441 23.2793L24.6709 15.9553C23.747 15.9011 22.8718 15.7917 22.8718 15.7917C21.9472 15.7376 22.0556 14.3239 22.9801 14.3785C22.9801 14.3785 25.8136 14.5962 27.4995 14.5962C29.2937 14.5962 32.072 14.3785 32.072 14.3785C32.9975 14.3239 33.1062 15.6824 32.182 15.7917C32.182 15.7917 31.2506 15.9011 30.2183 15.9553L36.4186 34.3989L38.13 28.6801C38.8717 26.307 39.4362 24.6025 39.4362 23.1337ZM28.1547 25.5003L23.0069 40.4588C24.5439 40.9106 26.1694 41.1578 27.8537 41.1578C29.8517 41.1578 31.7677 40.8124 33.5512 40.1852C33.5052 40.1118 33.4634 40.0337 33.4291 39.9488L28.1547 25.5003ZM42.9085 15.7679C42.9823 16.3144 43.0241 16.9011 43.0241 17.5322C43.0241 19.2732 42.6989 21.2304 41.7195 23.6776L36.4787 38.83C41.5794 35.8556 45.0103 30.3294 45.0103 23.9998C45.0106 21.0169 44.2486 18.2119 42.9085 15.7679ZM27.8537 4C16.8259 4 7.85352 12.9717 7.85352 23.9995C7.85352 35.0286 16.8259 44 27.8537 44C38.8812 44 47.8548 35.0286 47.8548 23.9995C47.8545 12.9717 38.8812 4 27.8537 4ZM27.8537 43.0833C17.3316 43.0833 8.77057 34.5223 8.77057 23.9995C8.77057 13.4774 17.3312 4.91705 27.8537 4.91705C38.3755 4.91705 46.9358 13.4774 46.9358 23.9995C46.9358 34.5223 38.3755 43.0833 27.8537 43.0833Z" fill="#464342"/>
</svg>
