<svg width="160" height="80" viewBox="0 0 160 80" fill="none" xmlns="http://www.w3.org/2000/svg">
<path d="M42.6321 4.59082H49.7728V62.0225H42.6321V56.7218C38.447 60.859 32.7628 63.318 26.7502 63.318C18.8949 63.318 8.5262 58.5179 4.95569 46.737C4.6125 45.6468 4.30226 44.1714 4.2417 43.4381C3.83231 38.4919 4.01994 38.1546 4.2417 36.4286C6.05412 22.3243 17.4666 16.5486 26.7502 16.5486C31.192 16.5486 35.2334 17.7709 38.6468 19.8469L37.6467 26.4144C34.7907 24.0005 31.0777 22.4392 26.7502 22.4392C17.4666 22.4392 9.95447 30.185 9.95447 39.7568C9.95447 48.5918 16.7523 57.4277 26.7502 57.4277C33.3485 57.4277 39.9468 53.2762 42.6321 46.471V4.59082Z" fill="#353535"/>
<path d="M74.303 16.6819C64.9713 16.6819 52.9467 22.2721 51.6782 36.1382C51.522 37.8464 51.3712 39.6808 51.6782 42.9981C51.7447 43.716 52.051 45.16 52.396 46.2269C55.9852 57.7564 66.407 62.4544 74.303 62.4544C86.5054 62.4544 97.2728 52.7122 97.2728 39.3955C97.2728 27.145 87.5683 16.6819 74.303 16.6819ZM74.303 56.6897C64.2535 56.6897 57.4206 48.042 57.4206 39.3955C57.4206 30.0274 64.9713 22.447 74.303 22.447C84.6969 22.447 91.5303 31.0943 91.5303 39.3955C91.5303 49.8301 82.9168 56.6897 74.303 56.6897Z" fill="#353535"/>
<path d="M101.356 6.48726H107.087V15.0975H101.356V6.48726Z" fill="#353535"/>
<path d="M107.087 59.1086C107.488 65.9682 98.6631 75.4091 98.6631 75.4091L94.9233 70.1877C99.7808 66.7434 101.299 61.2886 101.414 58.7497L101.356 17.9674H107.087V59.1086Z" fill="#353535"/>
<path d="M133.03 16.6819C123.699 16.6819 111.674 22.2718 110.405 36.1382C110.249 37.8461 110.098 39.6805 110.405 42.9981C110.472 43.716 110.779 45.16 111.123 46.2266C114.712 57.7564 125.135 62.4547 133.03 62.4547C145.233 62.4547 156 52.7122 156 39.3952C156 27.1447 146.295 16.6819 133.03 16.6819ZM133.03 56.6891C122.981 56.6891 116.148 48.0423 116.148 39.3952C116.148 30.0271 123.699 22.4464 133.03 22.4464C143.424 22.4464 150.258 31.094 150.258 39.3952C150.258 49.8301 141.644 56.6891 133.03 56.6891Z" fill="#353535"/>
<path d="M85.1826 9.65493C85.1826 10.3814 84.7907 10.3814 84.4288 10.6364H64.8464C64.8464 10.3814 64.4551 10.3814 64.4551 9.65493C64.4551 9.1642 64.8464 9.1642 65.2085 8.90918H84.7907C84.7907 9.1642 85.1826 9.1642 85.1826 9.65493Z" fill="#8C8C8C"/>
<path d="M143.046 9.65493C143.046 10.3814 142.655 10.3814 142.293 10.6364H122.71C122.71 10.3814 122.319 10.3814 122.319 9.65493C122.319 9.1642 122.71 9.1642 123.072 8.90918H142.655C142.655 9.1642 143.046 9.1642 143.046 9.65493Z" fill="#8C8C8C"/>
</svg>
