<svg width="160" height="56" viewBox="0 0 160 56" fill="none" xmlns="http://www.w3.org/2000/svg">
<path d="M23.9564 49.3081C34.6776 49.3081 43.3689 39.8153 43.3689 28.1053C43.3689 16.3953 34.6776 6.90254 23.9564 6.90254C13.2352 6.90254 4.54395 16.3953 4.54395 28.1053C4.54395 39.8153 13.2352 49.3081 23.9564 49.3081Z" fill="white"/>
<path d="M23.9746 49.624C13.1099 49.624 4.29883 39.9178 4.29883 28C4.29883 16.0647 13.1275 6.37599 23.9746 6.37599C34.8392 6.37599 43.6854 16.0647 43.6854 28C43.6854 39.9178 34.8392 49.624 23.9746 49.624ZM23.9746 7.07807C13.5136 7.07807 5.00091 16.4684 5.00091 28C5.00091 39.5316 13.5136 48.9219 23.9746 48.9219C34.4531 48.9219 42.9833 39.5316 42.9833 28C42.9658 16.4684 34.4531 7.07807 23.9746 7.07807Z" fill="#004785"/>
<path d="M23.9922 48.9219C13.5136 48.9219 4.9834 39.5316 4.9834 27.9649C4.9834 16.4333 13.5136 7.04297 23.9922 7.04297C34.4707 7.04297 42.9834 16.4333 42.9834 27.9825C42.9834 39.5316 34.4707 48.9219 23.9922 48.9219ZM23.9922 7.3589C13.6716 7.3589 5.28178 16.5912 5.28178 27.9649C5.28178 39.3561 13.6716 48.6236 23.9922 48.6236C34.2952 48.6236 42.685 39.3737 42.685 28C42.685 16.6088 34.2952 7.3589 23.9922 7.3589Z" fill="#FFD100"/>
<path d="M37.7351 27.8069C37.7351 36.7058 31.5393 43.9196 23.9042 43.9196C16.2691 43.9196 10.0732 36.7058 10.0732 27.8069C10.0732 18.9081 16.2691 11.6942 23.9042 11.6942C31.5393 11.6942 37.7351 18.9081 37.7351 27.8069Z" fill="#004785"/>
<path d="M23.904 44.0425C16.2162 44.0425 9.9502 36.7584 9.9502 27.8069C9.9502 18.8554 16.2162 11.5714 23.904 11.5714C31.5918 11.5714 37.8578 18.8554 37.8578 27.8069C37.8578 36.7584 31.5918 44.0425 23.904 44.0425ZM23.904 11.8346C16.3567 11.8346 10.1959 18.9958 10.1959 27.8069C10.1959 36.618 16.3391 43.7792 23.904 43.7792C31.4513 43.7792 37.6121 36.618 37.6121 27.8069C37.5945 18.9958 31.4513 11.8346 23.904 11.8346Z" fill="#004785"/>
<path d="M8.24789 27.0522C8.23034 27.3857 7.96706 27.649 7.63357 27.6314C7.31763 27.6139 7.05436 27.333 7.07191 26.9995C7.08946 26.6661 7.35274 26.4028 7.68623 26.4203C8.01971 26.4379 8.26544 26.7187 8.24789 27.0522Z" fill="#004785"/>
<path d="M6.84373 30.4397C6.61556 30.4748 6.5278 30.5275 6.49269 30.703C6.45759 30.8434 6.51025 30.9838 6.40493 31.0014C6.35228 31.0014 6.33473 30.9838 6.31717 30.9136C6.29962 30.8434 6.29962 30.6854 6.26452 30.4046C6.21186 30.0536 6.17676 29.8781 6.17676 29.8254C6.17676 29.7727 6.19431 29.7376 6.22941 29.7376C6.31717 29.7201 6.29962 29.8605 6.40493 29.9483C6.51025 30.036 6.61556 30.0185 6.77352 30.0009L8.45851 29.7903C8.66914 29.7552 8.792 29.7376 8.8271 29.5621C8.86221 29.4217 8.80955 29.2813 8.89731 29.2813C8.93242 29.2813 8.96752 29.3164 8.98507 29.3691C9.00262 29.4744 9.00262 29.6323 9.02018 29.843C9.05528 30.0536 9.10794 30.2818 9.14304 30.545C9.2308 31.1945 8.96752 31.5982 8.51117 31.6508C8.07237 31.7035 7.66867 31.3875 7.59847 30.861C7.56336 30.6328 7.59847 30.5099 7.66867 30.4924C7.70378 30.4924 7.73888 30.5275 7.73888 30.5626C7.73888 30.6152 7.73888 30.6855 7.75643 30.7732C7.79154 31.0891 8.01971 31.2647 8.37075 31.212C8.80955 31.1594 9.05528 30.861 9.00262 30.4397C8.96752 30.2115 8.87976 30.1589 8.65158 30.1764L6.84373 30.4397Z" fill="#004785"/>
<path d="M8.3181 32.8619L8.66914 34.0905C8.68669 34.1783 8.73934 34.1783 8.8271 34.1607L9.35366 34.0203C9.56429 33.9677 9.6696 33.915 9.68715 33.7395C9.68715 33.5991 9.63449 33.4762 9.72225 33.4587C9.75736 33.4411 9.79246 33.4762 9.81001 33.5289C9.82757 33.5991 9.84512 33.757 9.91532 34.0028C9.98553 34.2836 10.0733 34.4416 10.0908 34.5118C10.1084 34.5644 10.0908 34.5995 10.0557 34.6171C9.96798 34.6346 9.96798 34.4942 9.86267 34.424C9.75736 34.3538 9.65205 34.3714 9.49408 34.424L7.82664 34.8979C7.59847 34.9681 7.52826 35.0383 7.51071 35.2139C7.49315 35.3543 7.56336 35.4947 7.4756 35.5298C7.42295 35.5473 7.40539 35.5122 7.38784 35.4596C7.37029 35.3894 7.33519 35.2314 7.26498 34.9506C7.17722 34.6171 7.10701 34.4416 7.08946 34.3889C7.07191 34.3363 7.08946 34.3187 7.14212 34.3012C7.22988 34.2836 7.22988 34.4065 7.35274 34.4767C7.45805 34.5469 7.58091 34.5293 7.72133 34.4767L8.3883 34.2836C8.49362 34.2485 8.51117 34.2309 8.49362 34.1432L8.14258 32.9145C8.10747 32.8092 8.08992 32.8092 7.98461 32.8268L7.31764 33.0199C7.08946 33.0901 7.01925 33.1603 7.0017 33.3358C6.98415 33.4762 7.05436 33.6166 6.9666 33.6517C6.91394 33.6693 6.89639 33.6342 6.87884 33.5815C6.86128 33.5113 6.82618 33.3533 6.75597 33.0725C6.66821 32.739 6.598 32.5635 6.58045 32.5109C6.5629 32.4582 6.58045 32.4406 6.63311 32.4231C6.72087 32.4055 6.72087 32.5284 6.84373 32.5986C6.94904 32.6688 7.07191 32.6513 7.21232 32.5986L8.86221 32.1423C9.07283 32.0896 9.17814 32.037 9.19569 31.8614C9.19569 31.721 9.14304 31.5982 9.2308 31.563C9.2659 31.5455 9.30101 31.5806 9.31856 31.6333C9.33611 31.7035 9.35366 31.8614 9.42387 32.1072C9.49408 32.388 9.58184 32.546 9.59939 32.6162C9.61694 32.6688 9.59939 32.7039 9.56429 32.7215C9.47653 32.739 9.47653 32.5986 9.37121 32.5284C9.2659 32.4582 9.16059 32.4757 9.00262 32.5284L8.45851 32.6864C8.3181 32.739 8.30054 32.7566 8.3181 32.8619Z" fill="#004785"/>
<path d="M9.02017 36.3021C9.09038 36.267 9.14304 36.2319 9.19569 36.1617L9.88022 35.1612C9.98553 35.0208 10.0382 34.9155 10.0206 34.8102C10.0031 34.6873 9.98553 34.6171 10.0382 34.5995C10.0733 34.582 10.1084 34.5995 10.1259 34.6522C10.1611 34.74 10.2137 34.8979 10.3015 35.091C10.3892 35.2841 10.477 35.4069 10.4945 35.4596C10.5121 35.4947 10.5121 35.5473 10.477 35.5473C10.4243 35.5649 10.4068 35.5298 10.3366 35.4596C10.3015 35.4245 10.2488 35.4245 10.2137 35.442C10.1786 35.4596 10.1259 35.4947 10.0908 35.5649L9.52918 36.3723C9.51163 36.4074 9.49408 36.4249 9.51163 36.4425C9.51163 36.46 9.54673 36.46 9.58184 36.46L10.3892 36.5478C10.4945 36.5654 10.5647 36.5654 10.6525 36.5303C10.7227 36.4951 10.7578 36.4249 10.7403 36.3372C10.7227 36.2319 10.6525 36.1441 10.7227 36.109C10.7578 36.0915 10.7929 36.109 10.828 36.1792C10.8807 36.2845 10.9158 36.4074 10.9684 36.5303C11.0387 36.7058 11.1089 36.8111 11.144 36.8637C11.1791 36.9339 11.1615 36.9691 11.1264 36.9866C11.0738 37.0042 11.0387 36.9515 10.986 36.8988C10.8807 36.8111 10.7578 36.7935 10.5823 36.776L9.49408 36.6531C9.42387 36.6531 9.37121 36.6356 9.28345 36.6882L8.80955 36.8988C8.58138 37.0042 8.44096 37.0744 8.40586 37.2323C8.3883 37.3201 8.42341 37.4079 8.45851 37.4956C8.47606 37.5307 8.45851 37.5834 8.42341 37.5834C8.37075 37.6009 8.3532 37.5834 8.3181 37.5132C8.28299 37.4254 8.23034 37.2323 8.08992 36.9515C7.96706 36.6882 7.8793 36.5303 7.84419 36.4776C7.80909 36.4249 7.82664 36.3723 7.86175 36.3547C7.89685 36.3372 7.93195 36.3547 7.94951 36.3723C8.01971 36.46 8.07237 36.5478 8.16013 36.5829C8.28299 36.6356 8.42341 36.5829 8.63403 36.4776L9.02017 36.3021Z" fill="#004785"/>
<path d="M9.07283 38.5838C9.12549 38.5312 9.19569 38.4961 9.2308 38.4434C9.37121 38.2854 9.47653 38.1801 9.56429 38.1275C9.61694 38.0924 9.6696 38.1099 9.68715 38.145C9.72225 38.2152 9.59939 38.2679 9.51163 38.4083C9.30101 38.7418 9.28345 39.0577 9.44142 39.3035C9.63449 39.6194 9.96798 39.6896 10.2313 39.5316C10.4945 39.3561 10.5121 39.1104 10.4243 38.6716C10.3892 38.4961 10.3366 38.2854 10.3366 38.0748C10.3366 37.8291 10.477 37.6009 10.6701 37.4781C11.0738 37.2323 11.495 37.3376 11.7758 37.7589C11.9514 38.0397 11.9689 38.2854 12.004 38.3732C12.0567 38.4434 12.1444 38.4083 12.162 38.461C12.1795 38.4785 12.162 38.5136 12.1269 38.5487C12.0742 38.5838 12.0216 38.6014 11.9689 38.6365C11.8285 38.7242 11.7407 38.8296 11.6354 38.8822C11.5828 38.9173 11.5477 38.9173 11.5126 38.8822C11.4599 38.812 11.6003 38.7418 11.6705 38.5487C11.7583 38.303 11.7407 38.0397 11.6003 37.8115C11.4423 37.5658 11.1791 37.4956 10.9509 37.636C10.8631 37.6887 10.7929 37.7764 10.7754 37.8818C10.7227 38.0924 10.8105 38.3381 10.8807 38.654C10.986 39.1455 10.8807 39.4614 10.4945 39.7072C10.0557 39.988 9.54673 39.8651 9.2308 39.3386C9.05528 39.0051 9.02017 38.654 9.07283 38.5838Z" fill="#004785"/>
<path d="M10.8982 41.2166C10.9333 41.3395 11.0562 41.4624 10.986 41.515C10.9509 41.5501 10.9158 41.5326 10.8807 41.4799C10.8456 41.4272 10.7403 41.2868 10.5823 41.0587C10.3717 40.7778 10.2313 40.6374 10.2137 40.6199C10.1786 40.5848 10.1786 40.5497 10.2137 40.5145C10.2839 40.4619 10.3366 40.5848 10.477 40.6023C10.5999 40.6199 10.7052 40.5672 10.828 40.4619L12.1795 39.4088C12.355 39.2684 12.4428 39.1982 12.3726 39.0226C12.3199 38.8822 12.2146 38.7945 12.2848 38.7418C12.3199 38.7242 12.355 38.7242 12.4077 38.7769C12.4428 38.8296 12.5306 38.97 12.6885 39.1806C12.8641 39.4088 13.0045 39.5492 13.0396 39.5843C13.0747 39.6369 13.0747 39.6721 13.0571 39.6896C12.9869 39.7423 12.9343 39.6194 12.7938 39.5843C12.6885 39.5492 12.6008 39.6194 12.4955 39.7072C12.4779 39.7072 12.4779 39.7247 12.4604 39.7247L11.0913 40.7778C10.8982 40.9533 10.8456 41.0411 10.8982 41.2166Z" fill="#004785"/>
<path d="M13.1449 43.1824C13.3731 43.2 13.4959 43.1473 13.5486 43.1824C13.5661 43.2 13.5661 43.2351 13.531 43.2702C13.4784 43.3229 13.3555 43.358 13.1624 43.358C12.7587 43.358 12.4077 43.2 12.1093 42.9016C11.5126 42.3048 11.5126 41.515 12.1269 40.9007C12.4604 40.5672 12.8816 40.3917 13.3204 40.4092C13.6539 40.4268 13.9698 40.5672 14.2507 40.8305C14.3735 40.9533 14.4788 41.1113 14.5666 41.2868C14.6192 41.4097 14.6368 41.515 14.6895 41.5677C14.7597 41.6379 14.865 41.5326 14.9176 41.5852C14.9878 41.6554 14.9001 41.7081 14.7772 41.866C14.6368 42.0591 14.5666 42.1995 14.4964 42.2697C14.4613 42.3048 14.4086 42.3048 14.3911 42.2873C14.356 42.2522 14.3911 42.182 14.4262 42.0942C14.5315 41.6379 14.4262 41.2342 14.1278 40.9182C13.7417 40.5321 13.1273 40.5672 12.6183 41.0762C12.0216 41.673 11.9865 42.4102 12.4428 42.8665C12.6008 43.0596 12.829 43.1649 13.1449 43.1824Z" fill="#004785"/>
<path d="M14.3911 44.5339C14.4613 44.6568 14.6017 44.727 14.549 44.7972C14.5139 44.8323 14.4788 44.8323 14.4262 44.7972C14.3735 44.7621 14.2507 44.6393 14.0225 44.4637C13.7417 44.2531 13.5837 44.1478 13.5486 44.1303C13.5135 44.0951 13.4959 44.06 13.531 44.0249C13.5837 43.9547 13.6714 44.06 13.8119 44.0425C13.9523 44.0249 14.0225 43.9547 14.1102 43.8143L15.1458 42.4628C15.2862 42.2873 15.3389 42.1995 15.2336 42.0416C15.1458 41.9187 15.0229 41.8661 15.0932 41.7958C15.1107 41.7607 15.1634 41.7607 15.216 41.7958C15.2687 41.8309 15.374 41.9538 15.5846 42.1118C15.8128 42.2873 15.9708 42.3751 16.0234 42.4102C16.0761 42.4453 16.0761 42.4804 16.0585 42.5155C16.0059 42.5857 15.9181 42.4804 15.7952 42.4804C15.6724 42.4804 15.6197 42.5506 15.532 42.6734C15.532 42.691 15.5144 42.691 15.5144 42.7085L14.4613 44.0776C14.3209 44.2707 14.2858 44.376 14.3911 44.5339Z" fill="#004785"/>
<path d="M17.3047 45.9557C17.2871 46.1487 17.3047 46.2716 17.3925 46.3594C17.4627 46.4471 17.568 46.4822 17.5329 46.5349C17.5153 46.57 17.4627 46.5875 17.41 46.5524C17.3574 46.5173 17.2169 46.412 17.0063 46.3067C16.7255 46.1487 16.5675 46.0961 16.5324 46.0785C16.4973 46.061 16.4798 46.0259 16.4973 45.9908C16.5149 45.9732 16.55 45.9557 16.5851 45.9557C16.7255 45.9732 16.8132 45.9732 16.8659 45.8679C16.8835 45.8328 16.901 45.7801 16.901 45.7099L16.9537 45.2887C16.9712 45.1307 16.9361 45.0956 16.7957 45.0254L16.1638 44.6744C16.0234 44.6042 15.9708 44.6042 15.8479 44.6919L15.6197 44.885C15.5495 44.9376 15.4968 44.9903 15.4617 45.043C15.4091 45.1307 15.4266 45.2185 15.4968 45.3062C15.5846 45.4115 15.7075 45.4466 15.6548 45.5169C15.6373 45.552 15.6022 45.552 15.532 45.5169C15.4617 45.4818 15.3564 45.394 15.1634 45.2887C14.9527 45.1658 14.8123 45.1307 14.7948 45.1132C14.7597 45.0956 14.7421 45.0605 14.7597 45.0254C14.7948 44.9727 14.865 45.0079 14.9703 44.9903C15.0756 44.9727 15.1985 44.9025 15.3389 44.7972L17.4276 43.2702C17.4627 43.2527 17.4802 43.2351 17.5153 43.2527C17.5504 43.2702 17.5504 43.2878 17.5504 43.3404L17.3047 45.9557ZM17.0941 43.8143C17.0765 43.7968 17.0414 43.8143 17.0063 43.8319L16.2867 44.3584C16.2516 44.376 16.234 44.3935 16.2165 44.4286C16.1989 44.4637 16.234 44.4988 16.3218 44.5515L16.8659 44.8499C16.9186 44.885 16.9712 44.885 16.9888 44.8499C17.0063 44.8323 17.0063 44.7972 17.0063 44.7621L17.0941 43.9021C17.1116 43.8494 17.1116 43.8319 17.0941 43.8143Z" fill="#004785"/>
<path d="M19.1652 44.885C19.1301 44.885 19.1126 44.9025 19.095 44.9727L18.744 46.0961C18.7264 46.1312 18.7264 46.1838 18.7089 46.2189C18.6386 46.4822 18.6035 46.6577 18.6913 46.7981C18.7791 46.9035 18.9721 46.921 18.9546 47.0088C18.937 47.0439 18.9019 47.0614 18.8317 47.0439C18.7089 47.0088 18.5684 46.9386 18.3929 46.8859C18.2174 46.8333 18.1121 46.8333 18.077 46.8157C18.0243 46.7981 18.0068 46.7806 18.0068 46.7279C18.0243 46.6402 18.1472 46.6928 18.2525 46.6226C18.3929 46.5524 18.4807 46.3418 18.586 45.9908L18.8844 45.0078C18.8844 44.9903 18.9019 44.9727 18.9019 44.9552C19.0072 44.6217 19.0248 44.4286 18.9019 44.2882C18.7966 44.1654 18.586 44.1478 18.6035 44.06C18.6211 44.0249 18.6562 44.0074 18.7089 44.0249C18.7791 44.0425 18.8844 44.0951 19.0248 44.1302C19.1126 44.1654 19.2003 44.1654 19.253 44.1829C19.3232 44.2005 19.3407 44.2531 19.3758 44.3233L20.4465 46.6226C20.4816 46.6928 20.4992 46.7279 20.5167 46.7279C20.5518 46.7455 20.5694 46.7104 20.6045 46.6226L20.7273 46.2189C20.7624 46.0785 20.7975 45.9557 20.8326 45.8328C20.9731 45.3238 21.0433 45.043 20.938 44.885C20.8677 44.7797 20.6571 44.7621 20.6747 44.6744C20.6922 44.6393 20.7273 44.6217 20.7975 44.6393C20.9204 44.6744 21.0608 44.7446 21.2363 44.7972C21.4119 44.8499 21.5172 44.8499 21.5698 44.8674C21.6225 44.885 21.64 44.9201 21.64 44.9552C21.6225 45.0254 21.5347 45.0079 21.447 45.0254C21.289 45.0605 21.2188 45.2009 21.1486 45.4291C21.1135 45.5695 20.9906 46.0259 20.7449 46.8157L20.5694 47.4125C20.5343 47.5002 20.5167 47.5529 20.4641 47.5353C20.4289 47.5178 20.3938 47.4651 20.3587 47.3774L19.2179 44.9376C19.2003 44.9025 19.1828 44.885 19.1652 44.885Z" fill="#004785"/>
<path d="M24.15 47.6933C24.1324 47.6231 24.1324 47.5529 24.1149 47.4827C24.0447 47.2896 24.0095 47.1316 23.992 47.0439C23.992 46.9912 24.0271 46.9561 24.0622 46.9386C24.1324 46.9386 24.1324 47.0614 24.2026 47.2194C24.3957 47.5529 24.659 47.7284 24.9574 47.7109C25.3259 47.6933 25.5541 47.43 25.5366 47.1316C25.519 46.8157 25.3084 46.6928 24.8696 46.5524C24.6941 46.4998 24.501 46.4471 24.3079 46.3418C24.0798 46.2189 23.9569 45.9908 23.9393 45.7626C23.9042 45.2887 24.2026 44.9552 24.7116 44.9376C25.0451 44.9201 25.2733 45.0254 25.361 45.0254C25.4488 45.0254 25.4664 44.9201 25.519 44.9201C25.5366 44.9201 25.5717 44.9552 25.5717 44.9903C25.5717 45.043 25.5717 45.1132 25.5717 45.1658C25.5892 45.3238 25.6243 45.4642 25.6243 45.5695C25.6243 45.6222 25.6068 45.6748 25.5717 45.6748C25.4839 45.6748 25.4839 45.5344 25.361 45.3764C25.1855 45.1658 24.9398 45.0781 24.6765 45.0781C24.3957 45.0956 24.1851 45.3062 24.2026 45.552C24.2026 45.6573 24.2553 45.745 24.3255 45.8152C24.501 45.9557 24.7467 46.0083 25.0627 46.0961C25.5366 46.2365 25.7647 46.4822 25.7998 46.9386C25.835 47.4651 25.4839 47.8513 24.8696 47.8864C24.501 47.9039 24.1675 47.7811 24.15 47.6933Z" fill="#004785"/>
<path d="M27.1338 46.9386C27.1865 47.1667 27.2567 47.2369 27.4322 47.2721C27.5726 47.2896 27.713 47.237 27.7306 47.3247C27.7481 47.3774 27.713 47.3949 27.6604 47.4125C27.5901 47.43 27.4322 47.4476 27.1513 47.5178C26.8179 47.6055 26.6248 47.6582 26.5897 47.6582C26.537 47.6758 26.5019 47.6582 26.5019 47.6055C26.4844 47.5178 26.6072 47.5178 26.695 47.4125C26.7652 47.3072 26.7477 47.2018 26.7125 47.0439L26.3264 45.394C26.2738 45.1834 26.2386 45.0781 26.0631 45.0605C25.9227 45.043 25.7823 45.0956 25.7647 45.0079C25.7472 44.9727 25.7823 44.9376 25.8525 44.9201C25.9578 44.9025 26.1158 44.885 26.3089 44.8323C26.5195 44.7797 26.7477 44.7095 26.9934 44.6568C27.6253 44.5164 28.0465 44.727 28.1518 45.1834C28.2571 45.6222 27.9763 46.0434 27.4497 46.1663C27.2216 46.2189 27.0987 46.2014 27.0811 46.1312C27.0811 46.0961 27.0987 46.061 27.1513 46.0434C27.204 46.0259 27.2742 46.0259 27.3444 46.0083C27.6604 45.9381 27.8008 45.6924 27.7306 45.3589C27.6253 44.9201 27.3093 44.7095 26.9056 44.7972C26.695 44.8499 26.6248 44.9552 26.6774 45.1834L27.1338 46.9386Z" fill="#004785"/>
<path d="M28.6257 44.7621C28.538 44.569 28.4853 44.4637 28.3098 44.4637C28.1694 44.4813 28.0465 44.5515 28.0114 44.4637C27.9938 44.4286 28.0289 44.3935 28.0816 44.376C28.1167 44.3584 28.2922 44.3058 28.5731 44.2005C29.1698 43.9547 29.5911 43.7441 29.8544 43.6388C29.907 43.6212 29.9246 43.6212 29.9597 43.6915C29.9772 43.709 29.9772 43.7441 29.9948 43.7617C30.0474 43.9021 30.1352 44.0074 30.1703 44.0776C30.2054 44.1478 30.1878 44.1829 30.1527 44.2005C30.0825 44.2356 30.065 44.1303 29.9597 44.0249C29.7841 43.8494 29.5911 43.9021 29.24 44.06C28.9768 44.1654 28.889 44.2356 28.9592 44.3935L29.24 45.0605C29.2927 45.2009 29.3278 45.2009 29.4507 45.1483L29.6613 45.0605C29.8544 44.9727 29.9597 44.9025 29.9772 44.7621C29.9948 44.6393 29.9597 44.5339 30.0123 44.5164C30.0474 44.4988 30.065 44.5339 30.1001 44.5866C30.1176 44.6393 30.1527 44.7621 30.2229 44.9201C30.3107 45.1132 30.3809 45.2185 30.3985 45.2711C30.416 45.3413 30.416 45.3764 30.3809 45.394C30.3107 45.4291 30.3107 45.3413 30.2054 45.236C30.0825 45.0956 29.9772 45.1307 29.7666 45.2185L29.5209 45.3238C29.398 45.3764 29.398 45.4291 29.4507 45.552L29.6964 46.1663C29.8192 46.4647 29.8895 46.4998 30.1703 46.3769C30.574 46.2189 30.8022 45.9732 30.8724 45.7099C30.9075 45.5695 30.8899 45.4818 30.9426 45.4466C30.9601 45.4466 30.9952 45.4466 31.0128 45.4818C31.0479 45.5695 31.0654 45.745 31.0479 45.9381C31.0128 46.1663 30.8899 46.2891 30.6442 46.3769C30.4862 46.4471 30.2229 46.5173 29.8895 46.6577C29.5209 46.8157 29.3453 46.921 29.3102 46.921C29.2576 46.9386 29.2225 46.9386 29.2049 46.8859C29.1698 46.7981 29.2927 46.7806 29.3629 46.6577C29.4156 46.5349 29.3804 46.4296 29.3278 46.2891L28.6257 44.7621Z" fill="#004785"/>
<path d="M33.3998 44.2531C33.4701 44.0249 33.4349 43.9021 33.4876 43.867C33.5052 43.8494 33.5403 43.867 33.5578 43.9021C33.5929 43.9547 33.6105 44.0951 33.5578 44.2882C33.4701 44.6744 33.2419 44.9903 32.8908 45.2185C32.1888 45.6748 31.4165 45.4993 30.9426 44.7797C30.6793 44.376 30.6091 43.9372 30.7144 43.5159C30.8022 43.2 31.0128 42.9192 31.3287 42.7085C31.4691 42.6208 31.6446 42.533 31.8377 42.4979C31.9606 42.4804 32.0659 42.4804 32.1361 42.4277C32.2063 42.3751 32.1361 42.2522 32.2063 42.2171C32.2941 42.1644 32.3116 42.2697 32.452 42.4102C32.61 42.5857 32.7329 42.691 32.7855 42.7612C32.8206 42.8139 32.8031 42.849 32.768 42.8665C32.7153 42.9016 32.6627 42.849 32.5749 42.7963C32.1537 42.5857 31.7324 42.6032 31.3638 42.849C30.9075 43.1473 30.8022 43.7617 31.1883 44.3584C31.6446 45.0605 32.3643 45.2711 32.9084 44.9201C33.1717 44.7621 33.3296 44.534 33.3998 44.2531Z" fill="#004785"/>
<path d="M34.962 43.3229C35.0848 43.2702 35.2077 43.1473 35.2604 43.2175C35.2955 43.2527 35.2779 43.2878 35.2252 43.3229C35.1726 43.3755 35.0322 43.4633 34.8216 43.6563C34.5583 43.8845 34.4179 44.0249 34.4003 44.0425C34.3652 44.0776 34.3301 44.0776 34.295 44.0425C34.2423 43.9723 34.3477 43.9196 34.3652 43.7792C34.3828 43.6388 34.3125 43.551 34.2072 43.4282L33.1015 42.1293C32.961 41.9714 32.8733 41.8836 32.7153 41.9538C32.5749 42.0065 32.5047 42.1118 32.4345 42.0416C32.3994 42.0065 32.4169 41.9714 32.4696 41.9187C32.5222 41.8836 32.6627 41.7958 32.8557 41.6203C33.0839 41.4272 33.2068 41.2868 33.2419 41.2517C33.2945 41.2166 33.3296 41.2166 33.3472 41.2342C33.3998 41.3044 33.277 41.3746 33.2594 41.4975C33.2419 41.6203 33.2945 41.6905 33.3998 41.7958C33.3998 41.7958 33.4174 41.8134 33.4174 41.8309L34.5407 43.1473C34.6987 43.3404 34.804 43.3755 34.962 43.3229Z" fill="#004785"/>
<path d="M36.9629 40.8129C37.1384 40.8656 37.2788 40.8831 37.3841 40.8129C37.4719 40.7603 37.5421 40.6725 37.5948 40.7252C37.6299 40.7603 37.6299 40.7954 37.5772 40.848C37.5246 40.9007 37.4017 41.006 37.2437 41.1815C37.0331 41.4097 36.9453 41.5677 36.9278 41.5852C36.8927 41.6203 36.8576 41.6203 36.84 41.6028C36.8225 41.5852 36.8049 41.5501 36.8225 41.515C36.8751 41.3746 36.8927 41.3044 36.8049 41.2166C36.7698 41.1815 36.7172 41.164 36.647 41.1289L36.2433 40.9884C36.1028 40.9358 36.0502 40.9709 35.9624 41.0762L35.4885 41.6028C35.3832 41.7081 35.3657 41.7783 35.4359 41.9187L35.5587 42.1995C35.5938 42.2697 35.6289 42.34 35.6816 42.3926C35.7518 42.4628 35.8396 42.4628 35.9449 42.4102C36.0502 42.34 36.1204 42.2346 36.1906 42.2873C36.2257 42.3224 36.2257 42.3575 36.1731 42.4102C36.1204 42.4628 35.9975 42.5506 35.8747 42.7085C35.7167 42.8841 35.6465 43.0069 35.6289 43.0245C35.5938 43.0596 35.5587 43.0596 35.5412 43.042C35.4885 42.9894 35.5412 42.9367 35.5587 42.8314C35.5763 42.7261 35.5236 42.6032 35.4534 42.4277L34.4354 40.0582C34.4179 40.0231 34.4179 39.988 34.4354 39.9704C34.453 39.9529 34.4881 39.9529 34.5407 39.9529L36.9629 40.8129ZM34.8391 40.5497C34.8216 40.5672 34.8216 40.6023 34.8391 40.6374L35.1901 41.4448C35.2077 41.4799 35.2253 41.4975 35.2428 41.515C35.2779 41.5501 35.313 41.515 35.3832 41.4448L35.7869 40.9884C35.8396 40.9358 35.8396 40.9007 35.822 40.8656C35.8045 40.848 35.7694 40.8305 35.7343 40.8305L34.9093 40.5497C34.8742 40.5321 34.8391 40.5321 34.8391 40.5497Z" fill="#004785"/>
<path d="M38.2968 39.3386C38.5075 39.0051 38.5601 38.6716 38.4724 38.4434C38.4197 38.303 38.3495 38.2328 38.3846 38.1977C38.4022 38.1801 38.4197 38.1801 38.4548 38.1977C38.525 38.2503 38.6479 38.3732 38.7356 38.5487C38.841 38.7594 38.7883 38.9173 38.6479 39.1455C38.5601 39.2859 38.3846 39.4965 38.1915 39.7949C37.9809 40.1284 37.8756 40.3215 37.858 40.3566C37.8229 40.3917 37.8054 40.4092 37.7527 40.3917C37.6825 40.339 37.7703 40.2513 37.7527 40.1109C37.7352 39.9704 37.6474 39.9178 37.507 39.83L36.0677 38.8998C35.8747 38.7769 35.7869 38.7242 35.6465 38.8296C35.5412 38.9173 35.4885 39.0577 35.4008 39.0051C35.3657 38.9875 35.3657 38.9349 35.4008 38.8822C35.4359 38.8296 35.5412 38.7067 35.6816 38.4961C35.8396 38.2503 35.9098 38.0924 35.9449 38.0397C35.98 37.9871 36.0151 37.9695 36.0502 37.9871C36.1204 38.0397 36.0151 38.1275 36.0326 38.2679C36.0502 38.3908 36.138 38.4434 36.2784 38.5312L37.7352 39.4614C38.0336 39.6369 38.1213 39.637 38.2968 39.3386Z" fill="#004785"/>
<path d="M37.2964 36.4951C37.1911 36.4425 37.1384 36.4776 37.0858 36.6005C37.0858 36.6005 37.0858 36.618 37.0682 36.618L36.9453 36.8988C36.8225 37.1621 36.84 37.2674 36.9804 37.4254C37.0682 37.5307 37.1735 37.5658 37.1384 37.6536C37.1209 37.6711 37.0858 37.6887 37.0507 37.6711C36.998 37.636 36.9453 37.6009 36.8751 37.5483L36.6119 37.3727C36.5416 37.3201 36.5241 37.3025 36.5592 37.1972C36.5943 37.127 36.6996 36.9691 36.84 36.6707L37.3315 35.6527C37.4719 35.3718 37.5421 35.1612 37.5948 35.0559C37.6299 34.9857 37.6474 34.9681 37.7352 35.0032C38.016 35.1085 38.1564 35.1612 38.1564 35.1612C38.2091 35.1788 38.2091 35.2139 38.1915 35.249C38.1564 35.3192 38.0336 35.249 37.9283 35.2665C37.7878 35.2841 37.7001 35.3894 37.6123 35.6L37.4543 35.9159C37.4017 36.0212 37.4192 36.0739 37.5246 36.109L39.2446 36.9339C39.4377 37.0217 39.543 37.0393 39.6834 36.9164C39.8063 36.8111 39.8239 36.6356 39.9292 36.6882C39.9818 36.7058 39.9818 36.7584 39.9467 36.8286C39.9116 36.9164 39.8063 37.0568 39.701 37.285C39.543 37.6185 39.4553 37.8642 39.4202 37.952C39.3851 38.0046 39.3675 38.0222 39.3149 38.0046C39.2271 37.952 39.2973 37.8467 39.3324 37.7062C39.3675 37.5483 39.2798 37.443 39.0691 37.3376L37.2964 36.4951Z" fill="#004785"/>
<path d="M40.4733 34.7751C40.561 34.6697 40.5961 34.5118 40.6839 34.5469C40.7366 34.5644 40.7366 34.5995 40.719 34.6522C40.7015 34.7224 40.6313 34.8628 40.5259 35.1261C40.4031 35.4596 40.368 35.6351 40.3504 35.6702C40.3329 35.7229 40.2978 35.7404 40.2627 35.7229C40.1749 35.6878 40.2451 35.5824 40.1925 35.4596C40.1398 35.3367 40.0345 35.2841 39.8941 35.2314L38.2793 34.6697C38.0687 34.5995 37.9634 34.5644 37.858 34.7048C37.7703 34.8277 37.7527 34.9506 37.665 34.9155C37.6299 34.8979 37.6123 34.8628 37.6299 34.7926C37.6474 34.7224 37.7352 34.582 37.8229 34.3538C37.9283 34.073 37.9634 33.8975 37.9809 33.8448C37.9985 33.7921 38.0336 33.7746 38.0687 33.7746C38.1564 33.8097 38.0687 33.915 38.1213 34.0379C38.1564 34.1432 38.2442 34.1783 38.3846 34.2309C38.4022 34.2309 38.4022 34.2309 38.4197 34.2485L40.052 34.8277C40.2627 34.9155 40.368 34.8979 40.4733 34.7751Z" fill="#004785"/>
<path d="M38.7181 33.3885C38.5075 33.3358 38.4022 33.3182 38.2968 33.4587C38.2266 33.5815 38.2091 33.7219 38.1213 33.7044C38.0862 33.6868 38.0687 33.6517 38.0862 33.5815C38.1038 33.5289 38.1564 33.3709 38.2266 33.0901C38.3846 32.4582 38.4724 32.0018 38.5426 31.721C38.5601 31.6684 38.5777 31.6684 38.6479 31.6859C38.6654 31.6859 38.7005 31.7035 38.7181 31.7035C38.8585 31.7386 38.9814 31.7386 39.0691 31.7561C39.1393 31.7737 39.1569 31.8088 39.1569 31.8439C39.1393 31.9141 39.0516 31.879 38.9112 31.8965C38.6654 31.9316 38.5952 32.1247 38.5075 32.4933C38.4373 32.7741 38.4197 32.8794 38.6128 32.9321L39.3149 33.1076C39.4553 33.1427 39.4728 33.1252 39.5079 32.9848L39.5606 32.7741C39.6132 32.5811 39.6132 32.4406 39.5079 32.3353C39.4202 32.2476 39.3149 32.2125 39.3324 32.1423C39.3324 32.1072 39.3851 32.1072 39.4553 32.1247C39.5255 32.1423 39.6308 32.1774 39.7888 32.23C39.9818 32.2827 40.1222 32.2827 40.1749 32.3002C40.2451 32.3178 40.2627 32.3529 40.2627 32.388C40.2451 32.4582 40.1749 32.4231 40.0345 32.4406C39.8414 32.4582 39.8063 32.546 39.7537 32.7917L39.6834 33.0374C39.6483 33.1778 39.701 33.1954 39.8239 33.2305L40.4557 33.3885C40.7541 33.4587 40.8419 33.4236 40.9121 33.1427C41.0174 32.7215 40.9647 32.388 40.8068 32.1949C40.719 32.0721 40.6313 32.037 40.6313 31.9843C40.6313 31.9667 40.6664 31.9492 40.7015 31.9667C40.7892 31.9843 40.9472 32.0721 41.0876 32.2125C41.2631 32.388 41.2631 32.546 41.2105 32.7917C41.1754 32.9497 41.0701 33.2129 40.9823 33.564C40.877 33.9501 40.8594 34.1607 40.8419 34.1958C40.8243 34.2485 40.8068 34.2661 40.7541 34.2485C40.6664 34.2309 40.719 34.1081 40.6664 33.9852C40.5961 33.8624 40.4908 33.8448 40.3329 33.7921L38.7181 33.3885Z" fill="#004785"/>
<path d="M41.2982 31.4928C41.228 31.5104 41.1578 31.4928 41.0876 31.4928C40.877 31.5279 40.719 31.5455 40.6313 31.5279C40.5786 31.5279 40.5435 31.4753 40.5435 31.4402C40.561 31.37 40.6839 31.4051 40.8419 31.3524C41.2105 31.2296 41.4386 31.0014 41.4737 30.703C41.5264 30.3344 41.3158 30.0536 41.0174 30.0185C40.7015 29.9834 40.5435 30.1589 40.3153 30.5626C40.2276 30.7206 40.1398 30.9136 39.9994 31.0891C39.8414 31.2822 39.5957 31.37 39.3675 31.3349C38.8936 31.2822 38.6303 30.9312 38.7005 30.4222C38.7356 30.0887 38.8936 29.8956 38.9112 29.8079C38.9287 29.7201 38.8234 29.685 38.841 29.6323C38.841 29.6148 38.8761 29.5797 38.9287 29.5972C38.9814 29.5972 39.034 29.6323 39.1042 29.6323C39.2622 29.6499 39.4026 29.6323 39.5079 29.6499C39.5781 29.6674 39.5957 29.685 39.5957 29.7201C39.5781 29.8079 39.4377 29.7727 39.2622 29.8781C39.034 30.0185 38.8761 30.2291 38.841 30.4924C38.8059 30.7732 38.9638 31.0189 39.2271 31.0365C39.3324 31.054 39.4377 31.0189 39.5079 30.9663C39.6834 30.8259 39.7712 30.5801 39.9292 30.2993C40.1573 29.8605 40.4557 29.685 40.8945 29.7376C41.4211 29.8079 41.7195 30.2291 41.6493 30.8259C41.5791 31.1945 41.386 31.4928 41.2982 31.4928Z" fill="#004785"/>
<path d="M39.6308 27.0697C39.6132 26.7363 39.859 26.4554 40.1925 26.4554C40.5084 26.4379 40.7892 26.7012 40.8068 27.0346C40.8243 27.3681 40.561 27.649 40.2451 27.649C39.9292 27.649 39.6483 27.4032 39.6308 27.0697Z" fill="#004785"/>
<path d="M9.35366 22.2079C9.54674 22.1727 9.65205 22.1201 9.72226 22.0148C9.77491 21.927 9.79246 21.8217 9.86267 21.8393C9.91533 21.8568 9.93288 21.8919 9.91533 21.9621C9.89778 22.0323 9.82757 22.1727 9.77491 22.4009C9.7047 22.6993 9.68715 22.8573 9.68715 22.8924C9.6696 22.9275 9.65205 22.9626 9.61694 22.945C9.58184 22.945 9.56429 22.9099 9.56429 22.8748C9.54674 22.7344 9.52918 22.6642 9.40632 22.6291C9.37122 22.6115 9.30101 22.6115 9.2308 22.6291L8.80955 22.6818C8.65159 22.6993 8.63403 22.752 8.59893 22.8924L8.42341 23.5769C8.38831 23.7173 8.40586 23.7875 8.52872 23.8753L8.77445 24.0508C8.84466 24.1035 8.89731 24.1561 8.98507 24.1737C9.09039 24.1912 9.16059 24.1737 9.2308 24.0684C9.30101 23.963 9.30101 23.8402 9.38877 23.8577C9.42387 23.8753 9.44142 23.9104 9.42387 23.963C9.40632 24.0333 9.35366 24.1561 9.30101 24.3667C9.24835 24.5949 9.24835 24.7353 9.2308 24.7529C9.21325 24.788 9.1957 24.8055 9.14304 24.8055C9.07283 24.788 9.09039 24.7002 9.05528 24.6125C9.02018 24.5072 8.91487 24.4194 8.77445 24.3141L6.73842 22.7344C6.70332 22.7169 6.68577 22.6818 6.70332 22.6642C6.70332 22.6291 6.73842 22.6291 6.77353 22.6115L9.35366 22.2079ZM7.35274 22.9275C7.35274 22.945 7.37029 22.9801 7.38785 22.9977L8.08992 23.5418C8.12503 23.5594 8.14258 23.5769 8.16013 23.5945C8.21279 23.612 8.23034 23.5594 8.24789 23.4716L8.38831 22.8924C8.40586 22.8222 8.38831 22.7871 8.3532 22.7695C8.33565 22.7695 8.30055 22.7695 8.24789 22.7695L7.38785 22.8924C7.37029 22.8924 7.35274 22.9099 7.35274 22.9275Z" fill="#004785"/>
<path d="M8.52872 20.8739C8.44096 20.8388 8.3532 20.7861 8.283 20.751C8.05482 20.6633 7.9144 20.5931 7.82664 20.5931C7.70378 20.558 7.63357 20.5755 7.52826 20.6457C7.4054 20.7335 7.37029 20.909 7.28253 20.8739C7.24743 20.8564 7.22988 20.8212 7.26498 20.751C7.30009 20.6808 7.37029 20.558 7.45805 20.3649C7.51071 20.2596 7.52826 20.1718 7.54581 20.1367C7.56337 20.1016 7.59847 20.1016 7.66868 20.1016H9.89778C9.93288 20.1016 9.96798 20.1016 9.96798 20.0841C9.96798 20.0665 9.96798 20.0314 9.93288 20.0139L8.44096 18.2587C8.40586 18.2236 8.40586 18.1885 8.42341 18.1358C8.44096 18.1007 8.45852 18.0656 8.47607 18.0305C8.54627 17.8725 8.56383 17.7672 8.59893 17.7146C8.61648 17.6619 8.65159 17.6443 8.68669 17.6619C8.77445 17.697 8.66914 17.8374 8.70424 17.9603C8.72179 18.048 8.80955 18.1182 8.94997 18.1709C8.96752 18.1709 8.96752 18.1885 8.98507 18.1885L10.6174 18.8203C10.828 18.9081 10.9333 18.9256 11.0562 18.7852C11.144 18.6975 11.1966 18.5395 11.2844 18.5746C11.337 18.5921 11.337 18.6273 11.3195 18.6799C11.3019 18.7326 11.2142 18.8905 11.1089 19.1187C10.986 19.4171 10.9333 19.5751 10.9158 19.6102C10.8982 19.6628 10.8631 19.6804 10.828 19.6453C10.7578 19.6102 10.7929 19.4873 10.7754 19.4171C10.7403 19.3293 10.6701 19.2591 10.5472 19.2065C10.5296 19.1889 10.5121 19.1889 10.477 19.1714L9.28346 18.6975C9.1957 18.6624 9.14304 18.6448 9.14304 18.6799C9.14304 18.6975 9.16059 18.7326 9.21325 18.8028L10.477 20.2771C10.5296 20.3298 10.5472 20.3649 10.5296 20.4C10.5121 20.4351 10.477 20.4351 10.4068 20.4351L8.42341 20.4527C8.37076 20.4527 8.3532 20.4702 8.3532 20.4878C8.3532 20.5053 8.37076 20.5404 8.44096 20.5755L9.37122 21.0143C9.44142 21.0494 9.49408 21.067 9.56429 21.1021C9.77491 21.1898 9.91533 21.2249 10.0382 21.1723C10.1611 21.1021 10.1962 20.9441 10.2839 20.9968C10.319 21.0143 10.319 21.0494 10.3015 21.1021C10.2664 21.1723 10.1962 21.2776 10.126 21.4707C10.0557 21.6111 10.0206 21.7339 10.0031 21.8042C9.98554 21.8568 9.95043 21.8744 9.91533 21.8568C9.82757 21.8217 9.89778 21.6988 9.86267 21.5935C9.81002 21.4707 9.61694 21.3478 9.24835 21.1723L8.52872 20.8739Z" fill="#004785"/>
<path d="M9.61694 17.1353C9.42387 17.0125 9.33611 16.9598 9.1957 17.0651C9.09039 17.1529 9.03773 17.2758 8.96752 17.2231C8.93242 17.2055 8.93242 17.1529 8.96752 17.1002C8.98507 17.0651 9.09039 16.9423 9.24835 16.6965C9.58184 16.17 9.81002 15.7663 9.96798 15.5381C10.0031 15.4855 10.0206 15.4855 10.0733 15.5381C10.0908 15.5557 10.1084 15.5732 10.1435 15.5908C10.2664 15.6785 10.3892 15.7136 10.4594 15.7663C10.5296 15.8014 10.5296 15.8365 10.5121 15.8716C10.477 15.9418 10.3892 15.854 10.2664 15.8365C10.0206 15.7838 9.89778 15.9418 9.7047 16.2577C9.54674 16.4859 9.51163 16.5912 9.6696 16.6965L10.2839 17.0827C10.4068 17.1704 10.4243 17.1529 10.5121 17.03L10.635 16.8545C10.7403 16.679 10.7929 16.5737 10.7227 16.4333C10.6701 16.3279 10.5648 16.2577 10.6174 16.2051C10.635 16.1875 10.6701 16.1875 10.7403 16.2226C10.7929 16.2577 10.8807 16.3279 11.0387 16.4333C11.2142 16.5386 11.337 16.6088 11.3721 16.6263C11.4248 16.6614 11.4423 16.6965 11.4248 16.7316C11.3897 16.7843 11.337 16.7316 11.1791 16.6965C11.0035 16.6439 10.9333 16.7316 10.8105 16.9247L10.6701 17.1353C10.5999 17.2406 10.635 17.2933 10.7403 17.3635L11.3019 17.7146C11.5652 17.8901 11.653 17.8901 11.8109 17.6443C12.0391 17.2933 12.0918 16.9774 12.004 16.7316C11.9514 16.5912 11.8811 16.5386 11.9163 16.4859C11.9338 16.4684 11.9514 16.4684 11.9865 16.4859C12.0567 16.5386 12.1971 16.6614 12.2673 16.837C12.3726 17.0476 12.3375 17.2055 12.1971 17.4162C12.1093 17.5566 11.9338 17.7497 11.7583 18.048C11.5477 18.364 11.4599 18.557 11.4423 18.5922C11.4072 18.6448 11.3897 18.6448 11.337 18.6273C11.2668 18.5746 11.3546 18.4868 11.337 18.364C11.3195 18.2411 11.2317 18.1709 11.0913 18.0831L9.61694 17.1353Z" fill="#004785"/>
<path d="M12.6183 15.854C12.7938 16.012 12.8992 16.0296 13.0571 15.9594C13.18 15.8891 13.2502 15.7663 13.3204 15.8189C13.3555 15.854 13.3555 15.8891 13.3204 15.9418C13.2853 15.9945 13.1624 16.0998 12.9869 16.3104C12.7763 16.5561 12.6534 16.7141 12.6359 16.7492C12.6008 16.7843 12.5657 16.8019 12.5306 16.7667C12.4604 16.7141 12.5657 16.6263 12.5657 16.4859C12.5657 16.3455 12.4779 16.2753 12.3551 16.17L11.0562 15.0291C10.8982 14.8887 10.7929 14.8185 10.6525 14.9062C10.5296 14.9764 10.4594 15.0993 10.3892 15.0291C10.3541 14.994 10.3541 14.9589 10.4068 14.9062C10.477 14.8185 10.5823 14.7132 10.7052 14.5728C10.8631 14.3972 10.986 14.2042 11.1615 14.0111C11.5652 13.5547 11.9865 13.4845 12.3199 13.7829C12.5657 13.9935 12.6183 14.2744 12.4955 14.643C12.7236 14.6079 13.0396 14.7132 13.4784 14.8009C13.7943 14.8711 13.9874 14.8887 14.0751 14.7658C14.1102 14.7132 14.1102 14.6605 14.1453 14.643C14.1629 14.6254 14.198 14.6254 14.2156 14.643C14.2682 14.6956 14.2682 14.8711 14.1278 15.0291C13.9698 15.2046 13.7417 15.2573 13.4082 15.2046C12.9343 15.1344 12.6183 14.994 12.4077 15.0116C12.3199 15.0116 12.2497 15.0818 12.162 15.1871C12.0742 15.2924 12.0567 15.345 12.1444 15.4328L12.6183 15.854ZM12.1093 15.0116C12.4077 14.6781 12.4253 14.4323 12.1269 14.1866C11.8109 13.9058 11.4423 13.9233 11.1791 14.2393C11.0387 14.3972 11.0387 14.485 11.1791 14.6079L11.7934 15.152C11.9163 15.2397 11.9689 15.1695 12.1093 15.0116Z" fill="#004785"/>
<path d="M14.9352 14.0462C15.0581 13.9935 15.1634 13.8707 15.216 13.9409C15.2511 13.976 15.2336 14.0111 15.1985 14.0462C15.1458 14.0813 15.0229 14.1866 14.8123 14.3621C14.5666 14.5903 14.4437 14.7307 14.4086 14.7483C14.3735 14.7834 14.3384 14.7834 14.3033 14.7483C14.2507 14.6781 14.356 14.6254 14.3735 14.485C14.3911 14.3621 14.3209 14.2744 14.2156 14.1515L13.0571 12.8702C12.9167 12.7122 12.829 12.6245 12.671 12.6947C12.5481 12.7473 12.4604 12.8527 12.4077 12.7825C12.3726 12.7473 12.3902 12.7122 12.4253 12.6596C12.4779 12.6245 12.6008 12.5367 12.7938 12.3612C12.9869 12.2032 13.1098 12.0804 13.1624 12.0277C13.1975 11.9926 13.2326 11.9926 13.2678 12.0102C13.3204 12.0804 13.2151 12.1506 13.1975 12.2734C13.18 12.3963 13.2326 12.4665 13.338 12.5718C13.338 12.5894 13.3555 12.5894 13.3555 12.6069L14.5315 13.9058C14.6719 14.0637 14.7597 14.1164 14.9352 14.0462Z" fill="#004785"/>
<path d="M16.8484 12.291C16.901 12.0628 16.8659 11.94 16.9186 11.9049C16.9361 11.8873 16.9712 11.9049 16.9888 11.94C17.0239 11.9926 17.0414 12.133 17.0063 12.3085C16.9361 12.6947 16.7255 13.0106 16.392 13.2388C15.725 13.6952 14.9527 13.5372 14.4613 12.8176C14.198 12.4314 14.0927 11.9751 14.1805 11.5538C14.2507 11.2379 14.4437 10.957 14.7421 10.7464C14.8825 10.6587 15.0581 10.5709 15.2336 10.5358C15.3564 10.5007 15.4617 10.5182 15.5144 10.4656C15.5846 10.4129 15.5144 10.2901 15.5671 10.255C15.6373 10.2023 15.6724 10.3076 15.8128 10.448C15.9708 10.6236 16.1112 10.7289 16.1463 10.7991C16.1814 10.8342 16.1638 10.8868 16.1463 10.9044C16.0936 10.9395 16.041 10.8868 15.9532 10.8342C15.532 10.6236 15.1283 10.6587 14.7772 10.8868C14.3384 11.1852 14.2682 11.7995 14.6719 12.3788C15.1458 13.0808 15.8654 13.2739 16.3744 12.9229C16.6377 12.8 16.7781 12.5718 16.8484 12.291Z" fill="#004785"/>
<path d="M19.5162 11.0448C19.6567 11.1852 19.762 11.2379 19.8848 11.2203C19.9902 11.2028 20.0779 11.1677 20.0955 11.2203C20.113 11.273 20.0955 11.3081 20.0253 11.3256C19.9726 11.3432 19.8146 11.3958 19.5865 11.4836C19.3056 11.6065 19.1652 11.6942 19.1301 11.7118C19.095 11.7293 19.0599 11.7118 19.0423 11.6767C19.0248 11.6591 19.0423 11.624 19.0599 11.5889C19.1652 11.4836 19.2179 11.4309 19.1652 11.3256C19.1477 11.2905 19.1126 11.2379 19.0599 11.1852L18.7791 10.8868C18.6738 10.7815 18.6211 10.7815 18.4807 10.8517L17.8488 11.115C17.7084 11.1677 17.6733 11.2203 17.6733 11.3783V11.6767C17.6733 11.7644 17.6733 11.8346 17.7084 11.9049C17.7435 12.0102 17.8137 12.0453 17.9366 12.0453C18.0594 12.0453 18.1647 11.9751 18.1999 12.0453C18.2174 12.0804 18.1999 12.1155 18.1296 12.1506C18.0594 12.1857 17.919 12.2032 17.7435 12.291C17.5329 12.3788 17.41 12.4665 17.3925 12.4665C17.3574 12.4841 17.3223 12.4665 17.3047 12.4314C17.2696 12.3612 17.3574 12.3261 17.41 12.2383C17.4627 12.1506 17.4802 12.0102 17.4802 11.8346L17.5153 9.25451C17.5153 9.2194 17.5329 9.1843 17.5504 9.1843C17.5855 9.16675 17.6031 9.1843 17.6382 9.2194L19.5162 11.0448ZM17.7259 9.86883C17.7084 9.86883 17.6908 9.90393 17.6908 9.93903L17.6733 10.8342C17.6733 10.8693 17.6733 10.9044 17.6908 10.9219C17.7084 10.9746 17.7611 10.957 17.8488 10.9219L18.3929 10.6938C18.4456 10.6762 18.4807 10.6411 18.4631 10.606C18.4631 10.5885 18.428 10.5534 18.4105 10.5358L17.7962 9.92148C17.7611 9.86883 17.7435 9.86883 17.7259 9.86883Z" fill="#004785"/>
<path d="M20.2183 9.07899C20.1832 9.07899 20.1832 9.11409 20.2008 9.1843L20.4114 10.3427C20.4114 10.3954 20.429 10.4305 20.429 10.4656C20.4816 10.7464 20.5343 10.9219 20.6747 10.9922C20.7975 11.0448 20.9731 10.9746 20.9906 11.0799C20.9906 11.115 20.9731 11.1501 20.9029 11.1677C20.78 11.1852 20.622 11.2028 20.4641 11.2379C20.2885 11.273 20.2008 11.3081 20.1481 11.3256C20.0955 11.3432 20.0604 11.3256 20.0604 11.273C20.0428 11.1852 20.1657 11.1852 20.2359 11.0799C20.3236 10.9395 20.3061 10.7113 20.2359 10.3603L20.0604 9.34227C20.0604 9.32471 20.0604 9.30716 20.0428 9.27206C19.9726 8.92102 19.9024 8.7455 19.7444 8.67529C19.5865 8.60508 19.4109 8.69284 19.3934 8.58753C19.3934 8.53488 19.4109 8.51732 19.4811 8.49977C19.5514 8.48222 19.6742 8.48222 19.7971 8.44712C19.8848 8.42956 19.955 8.41201 20.0077 8.39446C20.0779 8.37691 20.113 8.42956 20.1657 8.46467L22.1139 10.0443C22.1666 10.097 22.2017 10.1146 22.2368 10.1146C22.2719 10.1146 22.2719 10.0619 22.2544 9.97414L22.1666 9.55289C22.1315 9.41247 22.1139 9.27206 22.0964 9.16675C21.9911 8.64019 21.9209 8.35936 21.7629 8.2716C21.6576 8.21894 21.4645 8.28915 21.447 8.18384C21.4294 8.14873 21.4645 8.11363 21.5347 8.09608C21.6576 8.07853 21.8156 8.06097 21.9735 8.02587C22.149 7.99077 22.2544 7.95566 22.2895 7.93811C22.3421 7.92056 22.3772 7.95566 22.3772 7.99077C22.3948 8.06097 22.307 8.07853 22.2368 8.14873C22.1139 8.25404 22.1139 8.41201 22.1666 8.65774C22.2017 8.79816 22.2895 9.27206 22.4474 10.097L22.5703 10.7113C22.5878 10.7991 22.5703 10.8517 22.5352 10.8693C22.5001 10.8693 22.4474 10.8342 22.3597 10.7815L20.2885 9.09654C20.2534 9.07899 20.2359 9.06144 20.2183 9.07899Z" fill="#004785"/>
<path d="M25.7121 8.65774C25.7472 8.42956 25.7472 8.28915 25.6419 8.21894C25.5015 8.13118 25.3435 8.14873 25.3435 8.06097C25.3435 8.00832 25.3962 7.99077 25.4839 8.00832C25.5541 8.02587 25.6945 8.06097 25.9227 8.09608C26.1509 8.13118 26.3966 8.14873 26.6423 8.20139C27.204 8.3067 27.4848 8.64019 27.4322 9.02633C27.3795 9.32471 27.2216 9.48268 26.9232 9.51779V9.53534C27.3269 9.69331 27.4848 9.97414 27.4322 10.3603C27.3444 10.8868 26.9056 11.1677 26.2562 11.0624C26.028 11.0273 25.7647 10.957 25.4839 10.9044C25.2908 10.8693 25.1504 10.8693 25.0802 10.8517C25.0276 10.8517 25.01 10.8166 25.01 10.764C25.0276 10.6762 25.1504 10.7289 25.2557 10.6587C25.3611 10.5885 25.3962 10.4831 25.4137 10.3252L25.7121 8.65774ZM25.8174 10.448C25.7647 10.7289 25.8525 10.8342 26.2211 10.8868C26.6423 10.957 26.9056 10.764 26.9758 10.3778C27.046 9.93903 26.8003 9.64065 26.2386 9.55289C26.0105 9.51779 25.9754 9.53534 25.9403 9.72841L25.8174 10.448ZM26.0456 9.16675C26.0105 9.34227 26.0807 9.35982 26.3966 9.41247C26.7652 9.48268 26.9758 9.39492 27.0285 9.09654C27.0987 8.69284 26.8881 8.37691 26.4668 8.3067C26.2562 8.2716 26.2035 8.3418 26.1684 8.56998L26.0456 9.16675Z" fill="#004785"/>
<path d="M30.732 9.83372C30.8724 10.1672 30.8724 10.5534 30.7144 10.9395C30.574 11.3081 30.3107 11.5889 29.9948 11.7644C29.6086 11.9575 29.1874 11.9751 28.7837 11.8171C28.38 11.6591 28.0816 11.3607 27.9412 11.0273C27.8008 10.6938 27.8008 10.2901 27.9587 9.90393C28.0641 9.6231 28.2571 9.37737 28.5029 9.20185C28.9241 8.90347 29.398 8.85081 29.8895 9.04388C30.2932 9.2194 30.5915 9.46513 30.732 9.83372ZM30.2405 10.957C30.3985 10.5534 30.4336 10.1497 30.3283 9.79862C30.2405 9.50023 30.065 9.27206 29.7666 9.16675C29.2225 8.95612 28.7135 9.20185 28.4326 9.86883C28.2571 10.2901 28.222 10.6938 28.3273 11.0975C28.3975 11.3607 28.5906 11.5889 28.8714 11.6942C29.4331 11.9224 29.9772 11.6416 30.2405 10.957Z" fill="#004785"/>
<path d="M32.5223 13.309C32.4871 13.5021 32.5047 13.6249 32.5749 13.7127C32.6451 13.8005 32.7329 13.8356 32.6802 13.9058C32.6451 13.9409 32.61 13.9409 32.5574 13.9058C32.5047 13.8707 32.3818 13.7654 32.1888 13.6249C31.943 13.467 31.7851 13.3968 31.75 13.3792C31.7149 13.3617 31.6973 13.3266 31.7324 13.2915C31.75 13.2739 31.7851 13.2564 31.8202 13.2564C31.9606 13.2915 32.0308 13.2915 32.101 13.1861C32.1186 13.151 32.1537 13.0984 32.1537 13.0282L32.2414 12.6069C32.2765 12.449 32.2414 12.4139 32.1186 12.3437L31.5393 11.9575C31.4165 11.8697 31.3638 11.8697 31.2234 11.9575L30.9777 12.133C30.9075 12.1857 30.8373 12.2208 30.8022 12.291C30.7495 12.3788 30.7495 12.4665 30.8197 12.5543C30.8899 12.6596 31.0128 12.7122 30.9601 12.7825C30.9426 12.8176 30.8899 12.8176 30.8373 12.7825C30.7846 12.7473 30.6793 12.642 30.5038 12.5367C30.3107 12.3963 30.1878 12.3612 30.1527 12.3437C30.1176 12.3261 30.1001 12.291 30.1352 12.2559C30.1703 12.2032 30.2405 12.2383 30.3458 12.2383C30.4511 12.2383 30.574 12.1681 30.732 12.0804L32.9084 10.6938C32.9435 10.6762 32.9786 10.6587 32.9962 10.6762C33.0313 10.6938 33.0313 10.7289 33.0137 10.764L32.5223 13.309ZM32.5223 11.1677C32.5047 11.1501 32.4696 11.1677 32.4345 11.1852L31.6798 11.6591C31.6447 11.6767 31.6271 11.6942 31.6096 11.7118C31.5744 11.7469 31.6096 11.782 31.6973 11.8522L32.1888 12.1857C32.2414 12.2208 32.2941 12.2208 32.3116 12.2032C32.3292 12.1857 32.3292 12.1506 32.3467 12.1155L32.5223 11.273C32.5398 11.2203 32.5398 11.1852 32.5223 11.1677Z" fill="#004785"/>
<path d="M33.5403 14.0637C33.3823 14.2393 33.3472 14.327 33.4174 14.485C33.4701 14.6079 33.5929 14.6956 33.5403 14.7658C33.5052 14.8009 33.4701 14.8009 33.4174 14.7483C33.3823 14.7132 33.2594 14.5728 33.0664 14.3972C32.8206 14.1691 32.6802 14.0462 32.6627 14.0286C32.6276 13.9935 32.6276 13.9584 32.6451 13.9233C32.7153 13.8531 32.7855 13.976 32.9259 13.976C33.0664 13.976 33.1366 13.9058 33.2594 13.7829L34.453 12.5543C34.6109 12.3963 34.6811 12.3085 34.5934 12.1506C34.5232 12.0277 34.4179 11.9575 34.4705 11.8873C34.5056 11.8522 34.5407 11.8697 34.5934 11.9049C34.6811 11.9926 34.7689 12.0979 34.9093 12.2208C35.0673 12.3788 35.2604 12.5192 35.4534 12.6947C35.8922 13.1159 35.9273 13.5372 35.6114 13.8707C35.3832 14.0988 35.1199 14.1515 34.7514 13.9935C34.7689 14.2217 34.6636 14.5376 34.5407 14.9589C34.453 15.2748 34.4354 15.4679 34.5407 15.5557C34.5758 15.5908 34.646 15.6083 34.6636 15.6259C34.6811 15.6434 34.6811 15.6785 34.6636 15.6961C34.6109 15.7487 34.4354 15.7312 34.2774 15.5908C34.1019 15.4328 34.0668 15.2046 34.137 14.8711C34.2423 14.4148 34.3828 14.0988 34.3828 13.8707C34.3828 13.7829 34.3301 13.7127 34.2248 13.6249C34.1195 13.5196 34.0668 13.5021 33.9791 13.5898L33.5403 14.0637ZM34.4003 13.6074C34.7162 13.9233 34.962 13.9584 35.2253 13.6776C35.5236 13.3617 35.5236 13.0106 35.2253 12.7298C35.0848 12.5894 34.9795 12.5894 34.8567 12.7122L34.2774 13.309C34.1897 13.3968 34.2423 13.4494 34.4003 13.6074Z" fill="#004785"/>
<path d="M36.5416 14.6781C36.7172 14.5552 36.8049 14.4674 36.7523 14.3095C36.6996 14.1515 36.5943 14.0813 36.6821 14.0286C36.7172 13.9935 36.7523 14.0111 36.7874 14.0637C36.84 14.134 36.9102 14.2568 37.0331 14.4323C37.2086 14.6781 37.4017 14.8887 37.5597 15.0993C38.1389 15.8891 38.0511 16.6614 37.3666 17.188C37.0156 17.4513 36.6294 17.5566 36.2433 17.5039C35.8571 17.4513 35.5763 17.2406 35.2955 16.8545C35.1199 16.6263 34.9971 16.3982 34.8567 16.2051C34.6987 15.9945 34.5934 15.8891 34.5583 15.854C34.5232 15.8189 34.5232 15.7838 34.5758 15.7487C34.646 15.6961 34.6987 15.8189 34.8391 15.8365C34.962 15.854 35.0673 15.8014 35.1901 15.6961L36.5416 14.6781ZM35.3832 16.7667C35.7869 17.3109 36.3486 17.3635 36.9453 16.9423C37.665 16.4157 37.8054 15.6785 37.349 15.0467C37.1735 14.8185 37.1033 14.7834 36.9278 14.9062L35.4359 15.9945C35.1199 16.2402 35.1024 16.3982 35.3832 16.7667Z" fill="#004785"/>
<path d="M40.4031 21.5233C40.2451 21.8568 39.9467 22.1025 39.5606 22.243C39.192 22.3834 38.8059 22.3658 38.4724 22.243C38.0687 22.085 37.7703 21.7866 37.6299 21.3829C37.4719 20.9617 37.4895 20.558 37.665 20.2245C37.8229 19.9085 38.1213 19.6277 38.5075 19.4873C38.8059 19.382 39.1042 19.3644 39.4026 19.4346C39.8941 19.5575 40.2627 19.8734 40.4382 20.3649C40.5786 20.7686 40.5786 21.1547 40.4031 21.5233ZM39.2271 21.8919C39.6308 21.7515 39.9467 21.5058 40.1574 21.1898C40.3329 20.9266 40.368 20.6457 40.2627 20.3473C40.052 19.7857 39.5255 19.5926 38.8585 19.8208C38.4197 19.9788 38.1038 20.2245 37.8756 20.5755C37.7352 20.8037 37.7001 21.1021 37.7878 21.3829C37.9809 21.927 38.5426 22.1376 39.2271 21.8919Z" fill="#004785"/>
<path d="M38.5777 23.7875C38.5601 23.9279 38.6128 24.0684 38.525 24.0859C38.4724 24.1035 38.4548 24.0684 38.4373 24.0157C38.4197 23.9455 38.4022 23.7875 38.3495 23.5243C38.2793 23.1908 38.2266 23.0152 38.2091 22.9801C38.1915 22.9275 38.2091 22.8924 38.2617 22.8924C38.3495 22.8748 38.3495 22.9977 38.4548 23.0855C38.5601 23.1557 38.6654 23.1381 38.8234 23.103L40.5084 22.7344C40.719 22.6818 40.8419 22.6642 40.8594 22.4887C40.877 22.3483 40.8243 22.2254 40.9121 22.2079C40.9647 22.1903 40.9823 22.2254 40.9998 22.2956C41.0174 22.3307 41.0174 22.5062 41.0876 22.7871C41.228 23.4014 41.3333 23.8402 41.4035 24.1035C41.4211 24.1561 41.4035 24.1737 41.3333 24.1912C41.3158 24.1912 41.2807 24.1912 41.2456 24.2088C41.1052 24.2439 40.9823 24.2965 40.8945 24.3141C40.8243 24.3316 40.7892 24.3141 40.7717 24.279C40.7541 24.2088 40.8594 24.2088 40.9647 24.121C41.1754 23.9806 41.1403 23.7875 41.0701 23.4189C41.0174 23.1557 40.9823 23.0503 40.7892 23.0855L40.0696 23.2434C39.9292 23.2785 39.9116 23.2961 39.9467 23.4365L39.9994 23.6471C40.0345 23.8402 40.0871 23.963 40.2276 23.9982C40.3504 24.0333 40.4557 24.0157 40.4733 24.0859C40.4733 24.121 40.4557 24.1386 40.3855 24.1561C40.3153 24.1737 40.21 24.1737 40.0345 24.2088C39.8239 24.2439 39.701 24.2965 39.6659 24.3141C39.5957 24.3316 39.5606 24.3141 39.543 24.279C39.5255 24.2088 39.6132 24.2088 39.7361 24.1386C39.8941 24.0333 39.8941 23.963 39.8414 23.7173L39.7888 23.4716C39.7537 23.3487 39.701 23.3312 39.5781 23.3663L38.9287 23.5067C38.683 23.5418 38.5952 23.6296 38.5777 23.7875Z" fill="#004785"/>
<path d="M23.9917 49.9224C12.9691 49.9224 4.00003 40.0933 4.00003 28C3.98247 15.9067 12.9515 6.07761 23.9917 6.07761C35.0143 6.07761 43.9834 15.9067 43.9834 28C43.9834 40.0933 35.0143 49.9224 23.9917 49.9224ZM23.9917 6.37599C13.127 6.37599 4.29841 16.0822 4.29841 28C4.29841 39.9178 13.127 49.624 23.9917 49.624C34.8564 49.624 43.685 39.9178 43.685 28C43.685 16.0822 34.8388 6.37599 23.9917 6.37599Z" fill="#FFD100"/>
<path d="M26.2563 15.2397C26.2563 15.9945 25.3085 16.6088 24.115 16.6088C22.939 16.6088 21.9736 15.9945 21.9736 15.2397C21.9736 14.485 22.9214 13.8707 24.115 13.8707C25.3085 13.8707 26.2563 14.485 26.2563 15.2397Z" fill="#FFD100"/>
<path d="M24.1325 16.679C22.9214 16.679 21.9385 16.0471 21.9385 15.2573C21.9385 14.4674 22.9214 13.8356 24.1325 13.8356C25.3436 13.8356 26.3265 14.4674 26.3265 15.2573C26.3089 16.0296 25.326 16.679 24.1325 16.679ZM24.1325 13.9409C22.9916 13.9409 22.0613 14.5201 22.0613 15.2573C22.0613 15.9769 22.9916 16.5737 24.1325 16.5737C25.2733 16.5737 26.2036 15.9769 26.2036 15.2573C26.2036 14.5201 25.2733 13.9409 24.1325 13.9409Z" fill="#004785"/>
<path d="M26.4316 17.2758C26.4316 17.5215 26.2385 17.7146 25.9928 17.7146H22.2718C22.0261 17.7146 21.833 17.5215 21.833 17.2758C21.833 17.03 22.0261 16.837 22.2718 16.837H25.9928C26.221 16.837 26.4316 17.03 26.4316 17.2758Z" fill="#FFD100"/>
<path d="M25.9927 17.7672H22.2717C21.9909 17.7672 21.7803 17.539 21.7803 17.2758C21.7803 16.9949 22.0084 16.7843 22.2717 16.7843H25.9927C26.2736 16.7843 26.4842 17.0125 26.4842 17.2758C26.4842 17.539 26.256 17.7672 25.9927 17.7672ZM22.2717 16.8896C22.0611 16.8896 21.8856 17.0651 21.8856 17.2758C21.8856 17.4864 22.0611 17.6619 22.2717 17.6619H25.9927C26.2034 17.6619 26.3789 17.4864 26.3789 17.2758C26.3789 17.0651 26.2034 16.8896 25.9927 16.8896H22.2717Z" fill="#004785"/>
<path d="M25.4484 17.9252H22.9385C23.7108 41.4975 23.7108 41.4975 23.7108 41.8309C23.7108 42.3926 24.483 42.4277 24.5182 41.9889C24.9745 31.6859 24.9043 31.7035 25.4484 17.9252Z" fill="#FFD100"/>
<path d="M24.1494 42.3399C23.9037 42.3399 23.6404 42.1644 23.6404 41.8309C23.6404 41.515 23.6404 41.515 22.991 21.9621L22.8506 17.855H25.4834V17.9076C25.2728 23.3663 25.1499 26.6485 25.0621 29.2813C24.9217 33.3182 24.834 35.7404 24.5531 41.9538C24.5531 42.1995 24.3776 42.3399 24.1494 42.3399ZM22.991 17.9778L23.1139 21.9621C23.7633 41.515 23.7633 41.515 23.7633 41.8309C23.7633 42.1118 23.9739 42.2346 24.1494 42.2346C24.2898 42.2346 24.4478 42.1644 24.4478 41.9714C24.7286 35.758 24.8164 33.3182 24.9568 29.2988C25.0446 26.666 25.1674 23.4014 25.3781 17.9778H22.991Z" fill="#004785"/>
<path d="M24.4656 19.891C23.5003 20.4351 21.71 22.1025 21.71 24.0333C21.71 25.5954 22.2716 26.2975 23.1141 27.1751L23.0966 24.2614C23.0966 24.2614 23.1668 22.752 23.7109 22.0323C24.7113 20.7159 25.8698 20.4527 25.8698 20.4527C26.6596 20.2596 26.7825 20.751 27.6425 20.5053C28.5026 20.2596 28.7658 19.8383 28.8536 19.733C29.4153 18.9081 28.4499 18.873 28.4148 18.873C28.0111 18.8379 27.3266 18.4693 26.7474 18.5922C25.5187 18.8379 25.6065 19.2416 24.4656 19.891Z" fill="#FFD100"/>
<path d="M23.2718 27.5612L23.0086 27.2979C22.1661 26.4203 21.5518 25.6832 21.5518 24.0508C21.5518 22.0148 23.4649 20.2947 24.3776 19.7681C24.8164 19.5224 25.0621 19.3118 25.2903 19.1363C25.6414 18.8379 25.9222 18.6097 26.712 18.4517C27.1157 18.364 27.537 18.5044 27.9231 18.6097C28.1162 18.6624 28.2917 18.715 28.4146 18.7326C28.5725 18.7501 28.9762 18.8028 29.1167 19.0836C29.222 19.2767 29.1693 19.54 28.9762 19.8383C28.8709 19.9963 28.5725 20.4351 27.6774 20.6808C27.2035 20.8037 26.9227 20.7335 26.6769 20.6633C26.4488 20.5931 26.2557 20.5404 25.9222 20.6282C25.9046 20.6282 24.7989 20.909 23.8511 22.1552C23.3421 22.8397 23.2543 24.2965 23.2543 24.3141L23.2718 27.5612ZM26.9929 18.715C26.9227 18.715 26.8524 18.715 26.7822 18.7326C26.0626 18.873 25.8344 19.0661 25.4834 19.3644C25.2552 19.54 24.9919 19.7681 24.518 20.0314C23.6404 20.5229 21.8501 22.1377 21.8501 24.0508C21.8501 25.4023 22.2714 26.0868 22.9559 26.8065L22.9384 24.279C22.9384 24.2088 23.0261 22.6993 23.5878 21.9446C24.6058 20.5931 25.7818 20.3123 25.8344 20.2947C26.2557 20.1894 26.519 20.2596 26.7471 20.3298C26.9753 20.4 27.1859 20.4527 27.5896 20.3474C28.3795 20.1367 28.6252 19.7681 28.6954 19.6453C28.8358 19.4347 28.8709 19.2767 28.8358 19.1889C28.7832 19.0661 28.555 19.0134 28.397 18.9959C28.2215 18.9783 28.0284 18.9256 27.8354 18.873C27.5721 18.8028 27.2737 18.715 26.9929 18.715Z" fill="#004785"/>
<path d="M23.2543 33.3358C23.2894 34.266 23.307 34.1432 23.307 34.1432L23.4298 35.951C23.4298 35.951 21.8326 35.0032 21.7448 33.4762C21.6044 31.2471 23.7633 30.2993 23.7633 30.2993C24.2548 29.9834 25.3079 29.4919 25.3079 28.6494C25.3079 28.1755 25.2728 28.1229 25.2552 28L25.343 25.5427C25.8345 25.964 27.1157 26.4379 27.1157 28.6319C27.1157 30.0887 25.0797 31.212 24.8515 31.4226C24.8164 31.4402 23.2017 32.1774 23.2543 33.3358Z" fill="#FFD100"/>
<path d="M23.588 36.2319L23.3423 36.0739C23.272 36.0388 21.6924 35.0559 21.5871 33.4762C21.4291 31.1594 23.6757 30.1589 23.6933 30.1589C23.7459 30.1238 23.8162 30.0887 23.8864 30.036C24.3778 29.7377 25.1326 29.2989 25.1326 28.6494C25.1326 28.2984 25.115 28.1931 25.0974 28.1053C25.0974 28.0702 25.0799 28.0527 25.0799 28.0176L25.1677 25.2092L25.4134 25.4199C25.4836 25.4901 25.5889 25.5603 25.6942 25.6305C26.2734 26.0342 27.2388 26.7187 27.2388 28.6143C27.2388 29.9307 25.7469 30.9487 25.115 31.3875C25.0097 31.4577 24.9395 31.4928 24.9219 31.528L24.8868 31.5455C24.7289 31.6157 23.3774 32.3178 23.4125 33.3007C23.43 33.9677 23.4476 34.073 23.4476 34.0905L23.3423 34.1432H23.4651L23.588 36.2319ZM25.4485 25.8411L25.3783 28L25.3958 28.0527C25.4134 28.1404 25.4309 28.2633 25.4309 28.6494C25.4309 29.4568 24.5884 29.9658 24.0443 30.2993C23.9741 30.352 23.8864 30.3871 23.8337 30.4222C23.7284 30.4748 21.7626 31.37 21.8854 33.4587C21.9556 34.5293 22.8157 35.3016 23.2545 35.6351L23.1492 34.1607C23.1316 34.0379 23.1141 33.7922 23.0965 33.3182C23.0614 32.1598 24.4656 31.4051 24.7464 31.2647C24.764 31.2471 24.8342 31.1945 24.957 31.1243C25.5011 30.7557 26.9404 29.7728 26.9404 28.6143C26.9404 26.8767 26.0804 26.2799 25.5187 25.8762C25.5011 25.8762 25.4836 25.8587 25.4485 25.8411Z" fill="#004785"/>
<path d="M24.9575 34.8628C25.6069 35.1612 25.8175 35.5298 25.7824 36.3372C25.7649 37.1797 24.4485 37.9344 23.606 38.5136C22.6406 39.1806 22.4826 40.8656 22.4826 40.8656C22.4826 40.8656 22.272 39.3561 22.781 38.5663C23.3251 37.7238 24.8697 36.5829 24.8873 36.46C24.9575 36.0388 24.9575 34.8628 24.9575 34.8628Z" fill="#FFD100"/>
<path d="M22.4822 41.0411C22.412 41.0411 22.3418 40.9884 22.3243 40.9182C22.3067 40.848 22.1136 39.3386 22.6402 38.5312C23.0088 37.9695 23.7986 37.285 24.3076 36.8286C24.4831 36.6707 24.6762 36.5127 24.7289 36.46C24.7815 36.0037 24.7991 34.9155 24.7991 34.8979C24.7991 34.8453 24.8342 34.7926 24.8693 34.7751C24.9044 34.7399 24.9746 34.7399 25.0097 34.7575C25.7118 35.0734 25.9575 35.4947 25.94 36.3723C25.9224 37.1972 24.8693 37.8993 24.0092 38.461C23.9039 38.5312 23.7986 38.6014 23.6933 38.6716C22.7982 39.2859 22.6402 40.9007 22.6226 40.9182C22.6402 40.9709 22.57 41.0411 22.4822 41.0411ZM25.115 35.1261C25.115 35.4947 25.0975 36.1792 25.0448 36.5127C25.0273 36.6005 24.9746 36.6531 24.5358 37.0393C24.0268 37.4781 23.2545 38.145 22.921 38.6716C22.7455 38.9524 22.6577 39.321 22.6226 39.6896C22.7982 39.2157 23.079 38.7067 23.5353 38.4083C23.6407 38.3381 23.746 38.2679 23.8513 38.1977C24.6411 37.6711 25.624 37.0217 25.6416 36.3547C25.6591 35.6878 25.5363 35.3718 25.115 35.1261Z" fill="#004785"/>
<path d="M27.4848 19.1714C27.4848 19.2767 27.397 19.382 27.2917 19.382C27.1864 19.382 27.1162 19.2942 27.1162 19.1714C27.1162 19.0661 27.204 18.9607 27.2917 18.9607C27.397 18.9607 27.4848 19.0485 27.4848 19.1714Z" fill="#002D74"/>
<path d="M12.9866 27.7894C12.8637 27.7894 12.7058 27.8245 12.5302 28.3686C12.4776 28.5441 12.3723 28.8249 12.3723 29.0356C12.3723 29.6323 13.1797 29.5095 13.1797 29.7376C13.1797 29.9132 12.9515 29.8605 12.7935 29.8605C12.5478 29.8605 12.3196 29.8254 12.0914 29.8254C11.8633 29.8254 11.6526 29.8605 11.4245 29.8605C11.3192 29.8605 11.1963 29.8781 11.1963 29.7728C11.1963 29.5797 11.5824 29.6323 11.7755 29.1584L13.8115 24.1035C13.8642 23.9631 13.8993 23.8051 14.0046 23.8051C14.0748 23.8051 14.0924 23.8226 14.1801 24.0684L16.2161 29.176C16.4619 29.7728 16.8656 29.4393 16.8656 29.7201C16.8656 29.8605 16.7954 29.843 16.6023 29.843C16.339 29.843 16.1284 29.8079 15.6369 29.8079C15.3034 29.8079 15.0226 29.843 14.812 29.843C14.6716 29.843 14.5838 29.8605 14.5838 29.7376C14.5838 29.4919 15.1104 29.5797 15.1104 29.0707C15.1104 28.8952 15.0577 28.7372 14.97 28.509C14.7242 27.8596 14.6891 27.7718 14.4961 27.7718L12.9866 27.7894ZM14.2328 27.333C14.3732 27.333 14.4785 27.333 14.4785 27.2628C14.4785 27.14 14.4258 27.0522 14.3907 26.9469L13.7764 25.4374C13.7238 25.3672 13.7589 25.3672 13.7238 25.3672C13.7062 25.3672 13.6711 25.3672 13.636 25.4725L13.0568 26.9469C13.0217 27.0522 12.969 27.14 12.969 27.2628C12.969 27.3506 13.0743 27.333 13.2148 27.333H14.2328Z" fill="#FFD100"/>
<path d="M17.7607 25.1566C17.7607 23.9982 16.9709 24.4545 16.9709 24.0508C16.9709 23.9104 17.0586 23.9279 17.0937 23.9279C17.1464 23.9279 17.1991 23.9631 17.5501 23.9631C18.182 23.9631 18.8314 23.9279 19.4633 23.9279C21.3062 23.9279 21.3062 25.1566 21.3062 25.3672C21.3062 25.8938 21.0254 26.3501 20.4813 26.5432V26.5607C21.394 26.824 21.6924 27.2628 21.6924 28.0176C21.6924 29.1233 21.0078 29.843 19.7792 29.843C18.6559 29.843 18.2873 29.8079 17.9011 29.8079C17.7256 29.8079 17.5325 29.843 17.3746 29.843C17.1991 29.843 17.1289 29.8254 17.1289 29.7025C17.1289 29.4217 17.7783 29.6499 17.7783 28.8425L17.7607 25.1566ZM18.691 26.0517C18.691 26.4554 18.7612 26.4905 19.2 26.5256H19.6563C20.218 26.5256 20.4462 26.2097 20.4462 25.5954C20.4462 24.8231 19.8845 24.2965 19.2175 24.2965C18.7085 24.2965 18.691 24.6125 18.691 25.0864V26.0517ZM18.691 28.4915C18.691 29.2813 18.884 29.527 19.6212 29.527C20.3584 29.527 20.7446 28.9829 20.7446 28.1755C20.7446 27.6665 20.5339 26.9293 19.1649 26.9293C18.7261 26.9293 18.7085 27.14 18.7085 27.5788V28.4915H18.691Z" fill="#FFD100"/>
<path d="M28.8009 28.7021C28.8009 29.7552 29.6434 29.4217 29.6434 29.7201C29.6434 29.8605 29.5556 29.843 29.4503 29.843C28.8711 29.843 28.5025 29.8079 28.3095 29.8079C27.976 29.8079 27.3265 29.843 27.2739 29.843C27.2563 29.843 27.0984 29.8605 27.0984 29.7201C27.0984 29.4744 27.7653 29.6674 27.7653 28.6143V24.946C27.7653 24.0684 26.8877 24.4019 26.8877 24.0859C26.8877 24.0333 26.9228 23.9279 27.1159 23.9279C27.1686 23.9279 27.6425 23.9631 28.2743 23.9631C28.3972 23.9631 28.9764 23.9455 29.5732 23.9279C30.6439 23.9104 31.6794 24.3316 31.6794 25.5427C31.6794 26.5958 30.9071 27.2277 29.9067 27.2277C29.0817 27.2277 29.0466 27.0171 29.0466 26.982C29.0466 26.9293 29.0642 26.824 29.1695 26.824C29.2397 26.824 29.3801 26.8767 29.5556 26.8767C30.5737 26.8767 30.6439 25.9289 30.6439 25.7182C30.6439 25.5076 30.5737 24.279 29.2748 24.279C28.9062 24.279 28.7658 24.4545 28.7658 24.8231V28.7021H28.8009Z" fill="#FFD100"/>
<path d="M32.2235 28.1053C32.206 27.9825 32.1182 27.7543 32.3288 27.7543C32.4693 27.7543 32.4868 27.8245 32.5044 27.9298C32.7676 28.7372 33.2942 29.4919 34.2245 29.4919C34.8739 29.4919 35.3829 29.0882 35.3829 28.4213C35.3829 27.7192 34.8563 27.5963 33.5048 27.0171C32.7852 26.7012 32.2937 26.3677 32.2937 25.4901C32.2937 24.5247 32.9607 23.8226 33.9436 23.8226C34.6282 23.8226 34.9792 24.1561 35.2249 24.1561C35.3302 24.1561 35.5409 24.0157 35.6462 24.0157C35.769 24.0157 35.7515 24.1386 35.769 24.3316L35.8568 25.455C35.8743 25.648 35.8568 25.7358 35.6637 25.7358C35.4706 25.7358 35.3478 24.1737 33.9085 24.1737C33.3644 24.1737 32.9783 24.4896 32.9783 25.0513C32.9783 25.6129 33.4346 25.7182 34.5579 26.2097C35.4531 26.5958 35.9972 26.9644 35.9972 28.0176C35.9972 29.1058 35.2249 29.8605 34.1367 29.8605C33.6277 29.8605 33.2064 29.6674 32.715 29.5446C32.5044 29.4919 32.5219 29.4217 32.4693 29.2286L32.2235 28.1053Z" fill="#FFD100"/>
<path d="M54.1639 23.7875H51.3907L50.9344 25.1039H49.4775L51.9875 18.1709H53.6022L56.0946 25.1215H54.6203L54.1639 23.7875ZM52.7949 19.7681L51.7768 22.6818H53.7778L52.7949 19.7681Z" fill="#004785"/>
<path d="M64.4845 22.0674C64.4845 21.1898 63.993 20.7335 63.2558 20.7335C62.5011 20.7335 62.0272 21.1898 62.0272 22.0674V25.1039H60.6406V22.0674C60.6406 21.1898 60.1491 20.7335 59.4119 20.7335C58.6572 20.7335 58.1658 21.1898 58.1658 22.0674V25.1039H56.7792V19.6102H58.1658V20.2771C58.5168 19.8208 59.096 19.5224 59.7805 19.5224C60.6406 19.5224 61.3427 19.891 61.7288 20.5755C62.0798 19.9437 62.817 19.5224 63.6244 19.5224C64.9408 19.5224 65.8886 20.3649 65.8886 21.8744V25.1039H64.502V22.0674H64.4845Z" fill="#004785"/>
<path d="M69.4868 25.2092C67.8895 25.2092 66.7136 24.1035 66.7136 22.3658C66.7136 20.6282 67.8544 19.5224 69.4868 19.5224C71.084 19.5224 72.2073 20.6106 72.2073 22.243C72.2073 22.4185 72.1898 22.594 72.1722 22.7871H68.1353C68.2055 23.5945 68.7671 24.0684 69.4517 24.0684C70.0484 24.0684 70.3819 23.77 70.5574 23.4014H72.0669C71.751 24.4019 70.8383 25.2092 69.4868 25.2092ZM68.1353 21.8393H70.7505C70.733 21.1196 70.1537 20.6633 69.4341 20.6633C68.7671 20.6633 68.2406 21.0845 68.1353 21.8393Z" fill="#004785"/>
<path d="M74.454 25.1215H73.0674V19.6102H74.454V20.4527C74.805 19.891 75.3842 19.5224 76.139 19.5224V20.9792H75.7704C74.9454 20.9792 74.454 21.2952 74.454 22.3658V25.1215Z" fill="#004785"/>
<path d="M76.6655 18.1358C76.6655 17.6795 77.0166 17.3284 77.5256 17.3284C78.017 17.3284 78.3856 17.6795 78.3856 18.1358C78.3856 18.5922 78.017 18.9432 77.5256 18.9432C77.0166 18.9432 76.6655 18.5922 76.6655 18.1358ZM76.8235 19.6102H78.2101V25.1215H76.8235V19.6102Z" fill="#004785"/>
<path d="M81.7731 19.5224C83.1422 19.5224 84.0725 20.242 84.3708 21.4707H82.8614C82.7034 20.9968 82.3348 20.6984 81.7556 20.6984C80.9833 20.6984 80.4567 21.2776 80.4567 22.3658C80.4567 23.4365 80.9658 24.0157 81.7556 24.0157C82.3348 24.0157 82.6858 23.7524 82.8614 23.261H84.3708C84.0725 24.437 83.1422 25.2092 81.7731 25.2092C80.1759 25.2092 79.0526 24.1035 79.0526 22.3658C79.0526 20.6282 80.1759 19.5224 81.7731 19.5224Z" fill="#004785"/>
<path d="M87.4073 19.5224C88.2849 19.5224 88.8992 19.9437 89.2327 20.4V19.6102H90.6369V25.1215H89.2327V24.3141C88.8992 24.788 88.2849 25.2092 87.4073 25.2092C86.0207 25.2092 84.8974 24.0684 84.8974 22.3483C84.8798 20.6282 86.0032 19.5224 87.4073 19.5224ZM87.7584 20.7335C87.0036 20.7335 86.3016 21.2952 86.3016 22.3307C86.3016 23.3838 87.0036 23.9806 87.7584 23.9806C88.5306 23.9806 89.2152 23.4014 89.2152 22.3658C89.2152 21.3127 88.5306 20.7335 87.7584 20.7335Z" fill="#004785"/>
<path d="M95.6918 22.0674C95.6918 21.1898 95.2004 20.6984 94.4632 20.6984C93.7085 20.6984 93.217 21.1723 93.217 22.0674V25.1039H91.8304V19.6102H93.217V20.2947C93.5681 19.8208 94.1648 19.5224 94.8845 19.5224C96.1657 19.5224 97.0784 20.3649 97.0784 21.8744V25.1039H95.6918V22.0674Z" fill="#004785"/>
<path d="M103.766 25.1215H100.764V18.1709H103.625C105.082 18.1709 105.89 18.9256 105.89 19.9612C105.89 20.8037 105.381 21.3303 104.714 21.5584C105.503 21.6989 106.065 22.4185 106.065 23.2434C106.048 24.3316 105.205 25.1215 103.766 25.1215ZM103.432 19.2942H102.151V21.0319H103.432C104.082 21.0319 104.468 20.7335 104.468 20.1718C104.468 19.6102 104.099 19.2942 103.432 19.2942ZM103.538 22.1201H102.169V23.9982H103.573C104.257 23.9982 104.643 23.6647 104.643 23.0855C104.643 22.4711 104.222 22.1201 103.538 22.1201Z" fill="#004785"/>
<path d="M109.488 25.2092C107.89 25.2092 106.697 24.1035 106.697 22.3658C106.697 20.6282 107.943 19.5224 109.54 19.5224C111.138 19.5224 112.384 20.6282 112.384 22.3658C112.349 24.0859 111.085 25.2092 109.488 25.2092ZM109.488 23.9982C110.225 23.9982 110.927 23.454 110.927 22.3658C110.927 21.2601 110.242 20.7335 109.505 20.7335C108.768 20.7335 108.101 21.2601 108.101 22.3658C108.101 23.454 108.733 23.9982 109.488 23.9982Z" fill="#004785"/>
<path d="M115.42 19.5224C116.298 19.5224 116.912 19.9437 117.246 20.4V19.6102H118.65V25.1215H117.246V24.3141C116.912 24.788 116.298 25.2092 115.42 25.2092C114.034 25.2092 112.91 24.0684 112.91 22.3483C112.91 20.6282 114.016 19.5224 115.42 19.5224ZM115.771 20.7335C115.017 20.7335 114.314 21.2952 114.314 22.3307C114.314 23.3838 115.017 23.9806 115.771 23.9806C116.544 23.9806 117.228 23.4014 117.228 22.3658C117.246 21.3127 116.544 20.7335 115.771 20.7335Z" fill="#004785"/>
<path d="M121.247 25.1215H119.861V19.6102H121.247V20.4527C121.599 19.891 122.178 19.5224 122.932 19.5224V20.9792H122.564C121.739 20.9792 121.247 21.2952 121.247 22.3658V25.1215Z" fill="#004785"/>
<path d="M125.846 19.5224C126.566 19.5224 127.268 19.8559 127.654 20.3825V17.7497H129.058V25.1039H127.654V24.2965C127.32 24.8056 126.706 25.2092 125.846 25.2092C124.442 25.2092 123.336 24.0684 123.336 22.3483C123.319 20.6282 124.442 19.5224 125.846 19.5224ZM126.197 20.7335C125.442 20.7335 124.74 21.2952 124.74 22.3307C124.74 23.3838 125.442 23.9806 126.197 23.9806C126.969 23.9806 127.654 23.4014 127.654 22.3658C127.654 21.3127 126.969 20.7335 126.197 20.7335Z" fill="#004785"/>
<path d="M135.236 25.2092C133.639 25.2092 132.446 24.1035 132.446 22.3658C132.446 20.6282 133.692 19.5224 135.289 19.5224C136.886 19.5224 138.132 20.6282 138.132 22.3658C138.115 24.0859 136.834 25.2092 135.236 25.2092ZM135.236 23.9982C135.974 23.9982 136.676 23.454 136.676 22.3658C136.676 21.2601 135.991 20.7335 135.254 20.7335C134.517 20.7335 133.85 21.2601 133.85 22.3658C133.85 23.454 134.499 23.9982 135.236 23.9982Z" fill="#004785"/>
<path d="M139.08 20.751H138.448V19.6102H139.08V19.3293C139.08 17.9778 139.853 17.346 141.397 17.3811V18.5571C140.713 18.5395 140.484 18.7501 140.484 19.3644V19.5926H141.45V20.7335H140.484V25.1039H139.08V20.751Z" fill="#004785"/>
<path d="M52.4614 33.3885H51.3029V36.0564H49.9163V29.1058H52.4789C54.1464 29.1058 54.9889 30.0536 54.9889 31.2471C54.9713 32.3178 54.2517 33.3885 52.4614 33.3885ZM52.4087 32.2651C53.1986 32.2651 53.5496 31.879 53.5496 31.2647C53.5496 30.6328 53.1986 30.2467 52.4087 30.2467H51.3029V32.2651H52.4087Z" fill="#004785"/>
<path d="M55.6734 28.7021H57.06V31.2471C57.411 30.7732 58.0429 30.4748 58.7625 30.4748C60.0087 30.4748 60.9039 31.3173 60.9039 32.8268V36.0564H59.5173V33.0199C59.5173 32.1423 59.0258 31.6508 58.2886 31.6508C57.5339 31.6508 57.0424 32.1247 57.0424 33.0199V36.0564H55.6558L55.6734 28.7021Z" fill="#004785"/>
<path d="M65.6253 30.545H67.0997L63.6946 38.654H62.2203L63.4138 35.9159L61.2023 30.545H62.7644L64.1861 34.3889L65.6253 30.545Z" fill="#004785"/>
<path d="M69.6447 36.1441C68.2581 36.1441 67.2928 35.3367 67.2401 34.3187H68.6443C68.6969 34.74 69.0831 35.0559 69.6447 35.0559C70.1888 35.0559 70.4872 34.8102 70.4872 34.4942C70.4872 33.5113 67.3805 34.1432 67.3805 32.1247C67.3805 31.212 68.1879 30.4748 69.557 30.4748C70.8909 30.4748 71.6983 31.1945 71.7685 32.3002H70.4346C70.3995 31.879 70.0484 31.5806 69.5043 31.5806C68.9953 31.5806 68.7145 31.7912 68.7145 32.1072C68.7145 33.1076 71.7685 32.4933 71.8036 34.5118C71.8212 35.4245 70.9962 36.1441 69.6447 36.1441Z" fill="#004785"/>
<path d="M72.611 29.0707C72.611 28.6143 72.9621 28.2633 73.4711 28.2633C73.9625 28.2633 74.3311 28.6143 74.3311 29.0707C74.3311 29.527 73.9625 29.8781 73.4711 29.8781C72.9796 29.8956 72.611 29.527 72.611 29.0707ZM72.769 30.545H74.1556V36.0564H72.769V30.545Z" fill="#004785"/>
<path d="M77.7186 30.4573C79.0877 30.4573 80.0179 31.1769 80.3163 32.4055H78.8069C78.6489 31.9316 78.2803 31.6333 77.7011 31.6333C76.9288 31.6333 76.4022 32.2125 76.4022 33.3007C76.4022 34.3714 76.9113 34.9506 77.7011 34.9506C78.2803 34.9506 78.6313 34.6873 78.8069 34.1958H80.3163C80.0179 35.3718 79.0877 36.1441 77.7186 36.1441C76.1214 36.1441 74.9981 35.0383 74.9981 33.3007C74.9981 31.5631 76.1214 30.4573 77.7186 30.4573Z" fill="#004785"/>
<path d="M81.0184 29.0707C81.0184 28.6143 81.3694 28.2633 81.8785 28.2633C82.3699 28.2633 82.7385 28.6143 82.7385 29.0707C82.7385 29.527 82.3699 29.8781 81.8785 29.8781C81.3694 29.8956 81.0184 29.527 81.0184 29.0707ZM81.1588 30.545H82.5454V36.0564H81.1588V30.545Z" fill="#004785"/>
<path d="M85.933 30.4573C86.8106 30.4573 87.4249 30.8785 87.7584 31.3349V30.545H89.1625V36.0564H87.7584V35.249C87.4249 35.7229 86.8106 36.1441 85.933 36.1441C84.5464 36.1441 83.423 35.0032 83.423 33.2831C83.423 31.5631 84.5288 30.4573 85.933 30.4573ZM86.284 31.6859C85.5293 31.6859 84.8272 32.2476 84.8272 33.2831C84.8272 34.3363 85.5293 34.933 86.284 34.933C87.0563 34.933 87.7408 34.3538 87.7408 33.3183C87.7584 32.2651 87.0563 31.6859 86.284 31.6859Z" fill="#004785"/>
<path d="M94.2175 33.0199C94.2175 32.1423 93.726 31.6508 92.9888 31.6508C92.2341 31.6508 91.7427 32.1247 91.7427 33.0199V36.0564H90.356V30.545H91.7427V31.2296C92.0937 30.7557 92.6905 30.4573 93.4101 30.4573C94.6914 30.4573 95.6041 31.2998 95.6041 32.8092V36.0388H94.2175V33.0199Z" fill="#004785"/>
<path d="M101.695 36.1266C100.255 36.1266 99.132 35.3718 99.1145 34.0554H100.606C100.642 34.6171 101.01 34.9857 101.66 34.9857C102.309 34.9857 102.713 34.6346 102.713 34.1432C102.713 32.6337 99.132 33.5464 99.1496 31.0365C99.1496 29.7903 100.168 29.0356 101.589 29.0356C103.011 29.0356 103.994 29.7552 104.082 31.0189H102.555C102.52 30.5626 102.151 30.2116 101.554 30.194C101.01 30.1764 100.606 30.4397 100.606 31.0014C100.606 32.388 104.169 31.6157 104.169 34.073C104.152 35.1437 103.274 36.1266 101.695 36.1266Z" fill="#004785"/>
<path d="M108.399 30.4573C109.804 30.4573 110.909 31.5631 110.909 33.2831C110.909 35.0032 109.804 36.1441 108.399 36.1441C107.539 36.1441 106.925 35.7229 106.574 35.2665V38.6716H105.187V30.5275H106.574V31.3173C106.908 30.8785 107.539 30.4573 108.399 30.4573ZM108.031 31.6859C107.276 31.6859 106.574 32.2651 106.574 33.3007C106.574 34.3538 107.276 34.9155 108.031 34.9155C108.786 34.9155 109.488 34.3187 109.488 33.2656C109.488 32.23 108.786 31.6859 108.031 31.6859Z" fill="#004785"/>
<path d="M114.262 36.1441C112.665 36.1441 111.489 35.0383 111.489 33.3007C111.489 31.5631 112.629 30.4573 114.262 30.4573C115.859 30.4573 116.982 31.5455 116.982 33.1778C116.982 33.3534 116.965 33.5289 116.947 33.7219H112.91C112.981 34.5293 113.542 35.0032 114.227 35.0032C114.823 35.0032 115.157 34.7049 115.332 34.3363H116.842C116.526 35.3367 115.613 36.1441 114.262 36.1441ZM112.91 32.7917H115.526C115.508 32.0721 114.929 31.6157 114.209 31.6157C113.542 31.5982 113.016 32.037 112.91 32.7917Z" fill="#004785"/>
<path d="M120.247 30.4573C121.616 30.4573 122.546 31.1769 122.845 32.4055H121.335C121.177 31.9316 120.809 31.6333 120.229 31.6333C119.457 31.6333 118.931 32.2125 118.931 33.3007C118.931 34.3714 119.44 34.9506 120.229 34.9506C120.809 34.9506 121.16 34.6873 121.335 34.1958H122.845C122.546 35.3718 121.616 36.1441 120.247 36.1441C118.65 36.1441 117.526 35.0383 117.526 33.3007C117.509 31.5631 118.65 30.4573 120.247 30.4573Z" fill="#004785"/>
<path d="M123.529 29.0707C123.529 28.6143 123.88 28.2633 124.389 28.2633C124.881 28.2633 125.249 28.6143 125.249 29.0707C125.249 29.527 124.881 29.8781 124.389 29.8781C123.898 29.8956 123.529 29.527 123.529 29.0707ZM123.687 30.545H125.074V36.0564H123.687V30.545Z" fill="#004785"/>
<path d="M128.461 30.4573C129.339 30.4573 129.953 30.8785 130.287 31.3349V30.545H131.691V36.0564H130.287V35.249C129.953 35.7229 129.339 36.1441 128.461 36.1441C127.075 36.1441 125.951 35.0032 125.951 33.2831C125.934 31.5631 127.057 30.4573 128.461 30.4573ZM128.812 31.6859C128.058 31.6859 127.356 32.2476 127.356 33.2831C127.356 34.3363 128.058 34.933 128.812 34.933C129.585 34.933 130.269 34.3538 130.269 33.3183C130.269 32.2651 129.585 31.6859 128.812 31.6859Z" fill="#004785"/>
<path d="M132.884 28.7021H134.271V36.0564H132.884V28.7021Z" fill="#004785"/>
<path d="M135.71 31.6859H135.061V30.545H135.71V29.176H137.114V30.545H138.343V31.6859H137.114V34.3538C137.114 34.7224 137.272 34.8804 137.694 34.8804H138.343V36.0564H137.466C136.412 36.0564 135.71 35.6176 135.71 34.3538V31.6859Z" fill="#004785"/>
<path d="M139.01 29.0707C139.01 28.6143 139.361 28.2633 139.87 28.2633C140.362 28.2633 140.73 28.6143 140.73 29.0707C140.73 29.527 140.362 29.8781 139.87 29.8781C139.379 29.8956 139.01 29.527 139.01 29.0707ZM139.168 30.545H140.555V36.0564H139.168V30.545Z" fill="#004785"/>
<path d="M144.17 36.1441C142.573 36.1441 141.397 35.0383 141.397 33.3007C141.397 31.5631 142.538 30.4573 144.17 30.4573C145.768 30.4573 146.891 31.5455 146.891 33.1778C146.891 33.3534 146.873 33.5289 146.856 33.7219H142.819C142.889 34.5293 143.451 35.0032 144.135 35.0032C144.732 35.0032 145.065 34.7049 145.241 34.3363H146.75C146.435 35.3367 145.522 36.1441 144.17 36.1441ZM142.819 32.7917H145.434C145.417 32.0721 144.837 31.6157 144.118 31.6157C143.451 31.5982 142.924 32.037 142.819 32.7917Z" fill="#004785"/>
<path d="M149.822 36.1441C148.435 36.1441 147.47 35.3367 147.417 34.3187H148.822C148.874 34.74 149.26 35.0559 149.822 35.0559C150.366 35.0559 150.665 34.8102 150.665 34.4942C150.665 33.5113 147.558 34.1432 147.558 32.1247C147.558 31.212 148.365 30.4748 149.734 30.4748C151.068 30.4748 151.876 31.1945 151.946 32.3002H150.612C150.577 31.879 150.226 31.5806 149.682 31.5806C149.173 31.5806 148.892 31.7912 148.892 32.1072C148.892 33.1076 151.946 32.4933 151.981 34.5118C151.999 35.4245 151.174 36.1441 149.822 36.1441Z" fill="#004785"/>
<path d="M152.613 30.1238C152.613 29.1233 153.315 28.4213 154.315 28.4213C155.316 28.4213 156 29.1233 156 30.1238C156 31.1067 155.298 31.8088 154.315 31.8088C153.332 31.8088 152.613 31.1067 152.613 30.1238ZM153.052 30.1238C153.052 30.8961 153.543 31.4051 154.315 31.4051C155.088 31.4051 155.579 30.8961 155.579 30.1238C155.579 29.3515 155.088 28.8425 154.315 28.8425C153.543 28.8425 153.052 29.3515 153.052 30.1238ZM154.737 30.2993L155.158 30.9487H154.544L154.21 30.352H154.157V30.9487H153.631V29.2462H154.473C154.842 29.2462 155.088 29.4744 155.088 29.8079C155.053 30.036 154.947 30.2116 154.737 30.2993ZM154.14 29.7025V29.9483H154.403C154.473 29.9483 154.544 29.9132 154.544 29.8254C154.544 29.7376 154.473 29.7025 154.403 29.7025H154.14Z" fill="#004785"/>
</svg>
