<svg width="216" height="48" viewBox="0 0 216 48" fill="none" xmlns="http://www.w3.org/2000/svg">
<path d="M62.7555 11.5404L62.6837 11.5643V22.2645H52.5341V11.5643L52.4622 11.5404C50.9542 11.2292 49.47 11.2292 47.9859 11.5404L47.9141 11.5643V36.1724L47.9859 36.1963C48.7279 36.3399 49.47 36.4357 50.2121 36.4357C50.9542 36.4357 51.6962 36.3639 52.4622 36.1963L52.5341 36.1724V26.1903H62.6837V36.1724L62.7555 36.1963C64.2396 36.5075 65.7477 36.5075 67.2318 36.1963L67.3037 36.1724V11.5643L67.2318 11.5404C65.7238 11.2531 64.2396 11.2531 62.7555 11.5404ZM78.4826 18.4584C73.1684 18.4584 70.0086 21.8097 70.0086 27.4351C70.0086 30.3555 70.6789 32.6774 72.0194 34.2813C73.4796 36.0287 75.6579 36.9144 78.5544 36.9144C83.4616 36.9144 85.9751 33.994 86.2863 31.0975V31.0257L86.2145 31.0018C84.9697 30.5949 83.8207 30.4991 82.4563 30.6906H82.4084V30.7385C82.1211 32.462 80.6849 33.4913 78.6023 33.4913C75.6819 33.4913 74.2456 31.8875 74.1977 28.5841H86.5496V28.5123C86.9087 25.2567 86.2624 22.6236 84.6825 20.8283C83.2223 19.2962 81.0918 18.4584 78.4826 18.4584ZM78.4347 21.6421C79.6555 21.6421 80.6849 22.0251 81.3791 22.7672C82.0972 23.5332 82.4563 24.6822 82.3844 26.0467H74.1977C74.2695 23.246 75.8255 21.6421 78.4347 21.6421ZM89.5418 11.5404L89.47 11.5643V36.1724L89.5418 36.1963C90.236 36.3399 90.9302 36.4357 91.6484 36.4357C92.3426 36.4357 93.0607 36.3639 93.7549 36.1963L93.8267 36.1724V11.5643L93.7549 11.5404C92.3665 11.2292 90.9542 11.2531 89.5418 11.5404ZM105.939 18.4584C104.096 18.4584 102.157 19.1765 100.314 20.541L100.051 19.2484L100.003 19.2244C98.9494 18.9132 98.0876 18.9132 97.0583 19.2244L97.0104 19.2484V43.7367L97.0822 43.7606C97.7764 43.9043 98.4706 44 99.1888 44C99.9069 44 100.601 43.9282 101.295 43.7606L101.367 43.7367V35.55C102.827 36.4835 104.383 36.9144 106.131 36.9144C110.966 36.9144 113.863 33.4913 113.863 27.7223C113.839 21.8576 110.966 18.4584 105.939 18.4584ZM101.295 23.3178C102.588 22.4321 103.785 22.0251 105.077 22.0251C108.022 22.0251 109.626 24.0598 109.626 27.7941C109.626 31.4566 108.046 33.3956 105.03 33.3956C103.737 33.3956 102.516 32.9886 101.295 32.1269V23.3178ZM132.319 22.9348C131.577 22.6475 130.906 22.4081 130.26 22.1927C126.909 20.9958 124.898 20.2777 124.85 18.4584C124.826 17.6206 125.089 16.9025 125.664 16.304C126.502 15.4423 127.914 14.9874 129.638 14.9874C131.337 14.9874 132.654 15.4423 133.444 16.2801C134.114 16.9982 134.401 17.9797 134.329 19.2005V19.2723L134.401 19.2962C135.861 19.5835 137.322 19.5596 138.902 19.2005L138.973 19.1765V19.1047C139.069 17.0461 138.447 15.2508 137.178 13.9102C135.598 12.2346 133.061 11.3489 129.853 11.325H129.757C123.797 11.325 120.206 13.9821 120.158 18.4345C120.134 22.863 124.204 24.3471 126.645 25.2089L127.004 25.3525C127.818 25.6397 128.584 25.9031 129.255 26.1424C132.558 27.2914 134.545 27.9856 134.617 29.7331C134.641 30.6427 134.377 31.3848 133.827 31.9593C133.037 32.7732 131.648 33.1801 129.805 33.1562C127.77 33.1562 126.214 32.6296 125.329 31.6721C124.682 30.9539 124.419 30.0443 124.515 28.9432V28.8713L124.443 28.8474C122.959 28.5601 121.451 28.5841 119.967 28.9192L119.919 28.9432V29.015C119.799 31.0018 120.398 32.7732 121.69 34.1376C123.414 35.9809 126.238 36.9384 129.877 36.9144C133.444 36.9144 139.308 35.9569 139.356 29.7331C139.285 25.5919 135.742 24.2514 132.319 22.9348ZM150.056 22.0251C153.001 22.0251 153.695 23.9402 153.839 25.0652V25.137H153.91C155.275 25.3525 156.568 25.2567 157.812 24.8977L157.884 24.8737V24.8019C157.764 23.0784 157.022 21.5224 155.802 20.3974C154.413 19.1287 152.426 18.4345 150.08 18.4345C144.479 18.4345 141.391 21.7139 141.391 27.6744C141.391 33.611 144.455 36.8905 150.009 36.8905C152.402 36.8905 154.413 36.1963 155.826 34.8797C156.998 33.7786 157.717 32.2944 157.86 30.6906V30.6188L157.788 30.5949C156.615 30.1879 155.323 30.1161 153.91 30.3555H153.863V30.4034C153.48 33.0844 150.87 33.2759 150.08 33.2759C147.064 33.2759 145.652 31.4806 145.652 27.6266C145.628 23.8205 147.04 22.0251 150.056 22.0251ZM168.489 18.4584C162.983 18.4584 159.943 21.7379 159.943 27.6984C159.943 33.635 162.983 36.9144 168.489 36.9144C173.994 36.9144 177.034 33.635 177.034 27.6984C177.034 21.7379 173.994 18.4584 168.489 18.4584ZM172.869 27.7223C172.869 31.5284 171.433 33.3716 168.489 33.3716C165.544 33.3716 164.108 31.5284 164.108 27.7223C164.108 23.8444 165.496 22.0251 168.489 22.0251C171.433 22.0251 172.869 23.8923 172.869 27.7223ZM190.823 19.2484L190.751 19.2723V31.5284C189.362 32.7253 188.094 33.252 186.633 33.252C184.575 33.252 183.689 32.079 183.689 29.3022V19.2484L183.617 19.2244C182.229 18.8893 180.817 18.8893 179.404 19.2244L179.332 19.2484V30.2837C179.332 34.4728 181.583 36.8905 185.532 36.8905C187.639 36.8905 189.482 36.0766 191.469 34.2573L191.876 36.1724L191.924 36.1963C192.929 36.4596 193.982 36.4596 194.988 36.1963L195.059 36.1724V19.2484L194.988 19.2244C193.647 18.8893 192.235 18.8893 190.823 19.2484ZM208.321 32.8929L208.297 32.8211L208.225 32.845C206.55 33.228 205.568 33.2041 204.994 32.7493C204.515 32.3663 204.299 31.696 204.299 30.6427V22.7911H207.699L207.723 22.7193C207.962 21.5703 207.962 20.3974 207.723 19.2244L207.699 19.1526H204.299V14.5087L204.228 14.4847C202.839 14.1736 201.427 14.1736 200.039 14.4847L199.967 14.5087L199.991 19.1526H197.836L197.812 19.2244C197.549 20.3734 197.549 21.5703 197.812 22.7193L197.836 22.7911H199.991L200.015 30.3315C200.015 32.4381 200.134 34.5685 201.595 35.7894C202.384 36.4357 203.533 36.7708 205.018 36.7708C205.927 36.7708 206.98 36.6511 208.201 36.4117H208.249L208.273 36.3639C208.608 35.2388 208.632 34.0658 208.321 32.8929Z" fill="#2A3B47"/>
<path d="M9.82931 27.2675L21.4631 15.6338C22.9711 14.1496 23.9047 12.067 23.9047 9.79294C23.9047 7.54279 22.9951 5.48414 21.5349 4L9.90112 15.6338C8.39305 17.1179 7.45947 19.2005 7.45947 21.4746C7.45947 23.7487 8.36911 25.7834 9.82931 27.2675ZM38.0041 20.4692L26.3703 32.1029C24.8622 33.5871 23.9287 35.6697 23.9287 37.9437C23.9287 40.1939 24.8383 42.2525 26.2985 43.7367L37.9322 32.1029C39.4403 30.6188 40.3739 28.5362 40.3739 26.2621C40.3739 23.988 39.4643 21.9533 38.0041 20.4692ZM37.9322 15.6577C39.4403 14.1735 40.3739 12.091 40.3739 9.81688C40.3739 7.56673 39.4643 5.50808 38.0041 4.02394L9.90112 32.1029C8.39305 33.611 7.45947 35.6697 7.45947 37.9677C7.45947 40.2178 8.36911 42.2765 9.82931 43.7606L37.9322 15.6577Z" fill="#1292EE"/>
</svg>
