<svg width="160" height="56" viewBox="0 0 160 56" fill="none" xmlns="http://www.w3.org/2000/svg">
<path d="M7.86649 7.37891H27.1993C34.4363 7.37891 40.0879 11.0045 40.0879 18.9786V37.0226C40.0879 45.105 34.4363 48.6223 27.1993 48.6223H7.86649C7.15468 48.6223 6.57764 48.0453 6.57764 47.3335V8.66776C6.57764 7.95595 7.15468 7.37891 7.86649 7.37891Z" fill="#6142D2"/>
<path d="M6.57792 7.37891H18.1776C25.4146 7.37891 31.0662 11.0045 31.0662 18.9786V37.0226C31.0662 45.105 25.4146 48.6223 18.1776 48.6223H6.57792C5.8661 48.6223 5.28906 48.0453 5.28906 47.3335V8.66776C5.28906 7.95595 5.8661 7.37891 6.57792 7.37891Z" fill="#461C7C"/>
<path d="M5.28886 7.37891H9.15543C16.3924 7.37891 22.044 11.0045 22.044 18.9786V37.0226C22.044 45.105 16.3924 48.6223 9.15543 48.6223H5.28886C4.57704 48.6223 4 48.0453 4 47.3335V8.66776C4 7.95595 4.57704 7.37891 5.28886 7.37891Z" fill="#02E2FF"/>
<path d="M54.3374 38.2546L55.9072 37.806C56.1922 37.7338 56.4732 37.6465 56.7489 37.5444C56.861 37.4941 56.9164 37.333 56.9164 37.0585V19.0055C56.9164 18.731 56.861 18.5505 56.7489 18.4642C56.6367 18.3765 56.3686 18.2708 55.9446 18.1458L54.3374 17.6973V16.4265H66.0737C67.9426 16.4265 69.6619 16.6881 71.2317 17.2114C72.8016 17.7347 74.16 18.4874 75.3058 19.4733C76.4533 20.4593 77.3717 21.6839 77.9969 23.0615C78.6452 24.469 78.9687 26.0568 78.9687 27.8264C78.9687 29.3215 78.7071 30.7728 78.1838 32.1815C77.675 33.5653 76.9078 34.8398 75.9232 35.9372C74.9385 37.0327 73.7179 37.9182 72.2602 38.591C70.8025 39.2637 69.1386 39.6001 67.2698 39.6001H54.3374V38.2546ZM65.9242 38.3667C68.0173 38.3667 69.6684 37.4825 70.8773 35.7129C72.0862 33.9433 72.6894 31.3643 72.6894 27.9759C72.6894 26.8546 72.5837 25.6779 72.3724 24.4445C72.1808 23.2729 71.8086 22.1381 71.2691 21.0806C70.7633 20.0912 70.0338 19.2333 69.1386 18.575C68.2416 17.9151 67.0958 17.5852 65.7 17.5852H65.2514C64.8777 17.5852 64.4794 17.629 64.0554 17.7166C63.6911 17.783 63.3385 17.9024 63.0088 18.0711V37.9555C63.3336 38.0806 63.719 38.1798 64.1688 38.2546C64.616 38.3293 65.1277 38.3667 65.7 38.3667H65.9242ZM132.584 40.0487C131.363 40.0487 130.242 39.8489 129.22 39.4506C128.222 39.0677 127.322 38.4677 126.586 37.6939C125.851 36.9206 125.277 35.9746 124.866 34.8533C124.454 33.732 124.237 32.4483 124.211 31.0035C124.187 29.5342 124.398 28.2195 124.847 27.0596C125.295 25.9009 125.913 24.9175 126.698 24.1081C127.487 23.2951 128.443 22.6636 129.501 22.2573C130.615 21.8281 131.801 21.6125 132.995 21.6219C133.921 21.6193 134.844 21.7323 135.743 21.9583C136.584 22.1632 137.382 22.5177 138.098 23.0048C138.783 23.4778 139.337 24.0887 139.76 24.8363C140.186 25.5838 140.396 26.468 140.396 27.49C140.396 27.838 140.371 28.2182 140.321 28.6294C140.276 29.0122 140.213 29.3928 140.134 29.77L129.968 29.5084V30.1438C130.019 31.0653 130.161 31.925 130.398 32.7228C130.607 33.4635 130.949 34.16 131.407 34.7785C131.843 35.3521 132.374 35.8006 132.995 36.1241C133.619 36.4476 134.353 36.61 135.2 36.61C136.297 36.61 137.181 36.4669 137.855 36.1795C138.555 35.8743 139.19 35.4367 139.724 34.8906L140.098 35.2644C139.81 35.8846 139.459 36.4733 139.05 37.0211C138.617 37.604 138.1 38.1203 137.518 38.5536C136.87 39.0273 136.151 39.3933 135.387 39.6375C134.565 39.912 133.63 40.0487 132.584 40.0487ZM134.939 27.8264C135.055 27.5577 135.137 27.2753 135.182 26.9861C135.22 26.7232 135.238 26.419 135.238 26.0697C135.238 24.9987 135.051 24.2266 134.677 23.7523C134.303 23.2793 133.793 23.0422 133.145 23.0422C132.223 23.0422 131.5 23.5152 130.977 24.4625C130.453 25.4098 130.13 26.6549 130.005 28.2002L134.939 27.8264ZM80.5192 38.4041L81.192 38.1798C81.6663 37.98 81.9834 37.837 82.1458 37.7493C82.3082 37.663 82.3881 37.4941 82.3881 37.2454V26.0323C82.3881 25.5593 82.2759 25.2345 82.053 25.0605C81.8274 24.8865 81.5039 24.661 81.0799 24.3878L80.5566 24.0887V22.9674L87.1349 21.6219H88.2562V37.2454C88.2562 37.4941 88.3258 37.663 88.4625 37.7506C88.5991 37.837 88.9174 37.98 89.4162 38.1798L90.0877 38.4041V39.6001H80.5192V38.4041ZM91.3018 24.0823V22.9674L97.8801 21.6219H99.0014V25.3222C99.5349 24.2929 100.288 23.3932 101.207 22.6865C102.129 21.9776 103.337 21.6219 104.832 21.6219C106.054 21.6219 107.119 21.9454 108.029 22.5937C108.939 23.242 109.567 24.139 109.915 25.2848H110.177C110.391 24.8374 110.648 24.4118 110.944 24.014C111.278 23.5672 111.674 23.1705 112.121 22.836C112.595 22.4751 113.149 22.1825 113.783 21.9583C114.42 21.734 115.15 21.6219 115.971 21.6219C116.893 21.6219 117.69 21.7894 118.363 22.1271C119.022 22.4522 119.598 22.925 120.045 23.5088C120.493 24.0952 120.824 24.768 121.036 25.5271C121.247 26.2875 121.353 27.0918 121.353 27.9386V37.2454C121.353 37.4941 121.422 37.663 121.559 37.7506C121.696 37.837 122.014 37.98 122.513 38.1798L123.184 38.4041V39.6001H113.765V38.4041L114.438 38.1798C114.987 37.98 115.324 37.837 115.447 37.7493C115.572 37.663 115.634 37.4941 115.634 37.2454V28.3871C115.634 27.963 115.603 27.5145 115.541 27.0415C115.487 26.5946 115.36 26.1595 115.168 25.7527C114.988 25.375 114.718 25.0474 114.381 24.7989C114.046 24.5502 113.616 24.4251 113.093 24.4251C112.371 24.4251 111.773 24.6185 111.298 25.0051C110.825 25.3918 110.452 25.821 110.177 26.294L110.252 27.9386V37.2454C110.252 37.4941 110.321 37.663 110.458 37.7506C110.595 37.837 110.913 37.98 111.412 38.1798L112.083 38.4041V39.6001H102.627V38.4041L103.3 38.1798C103.849 37.98 104.185 37.837 104.309 37.7493C104.434 37.663 104.496 37.4941 104.496 37.2454V28.3871C104.496 27.963 104.465 27.521 104.403 27.0596C104.347 26.6188 104.221 26.1898 104.029 25.7887C103.849 25.4116 103.579 25.0845 103.243 24.8363C102.908 24.5875 102.477 24.4625 101.954 24.4625C101.606 24.4625 101.276 24.5373 100.964 24.6868C100.658 24.8331 100.369 25.0147 100.105 25.2281C99.6508 25.5913 99.2755 26.043 99.0014 26.5556V37.2454C99.0014 37.4941 99.0581 37.6501 99.169 37.7132C99.2824 37.7751 99.4873 37.8679 99.7876 37.9929L100.833 38.4041V39.6001H91.2644V38.4041L91.9372 38.1798C92.436 37.98 92.7595 37.837 92.909 37.7493C93.0585 37.663 93.1333 37.4941 93.1333 37.2454V26.0323C93.1333 25.5593 93.0276 25.2345 92.8162 25.0605C92.5105 24.8194 92.1922 24.5948 91.8625 24.3878C91.7738 24.3184 91.6721 24.2676 91.5634 24.2382C91.4789 24.1823 91.3916 24.1307 91.3018 24.0836V24.0823ZM142.245 38.4041L142.918 38.1798C143.417 37.98 143.74 37.837 143.89 37.7493C144.039 37.663 144.114 37.4941 144.114 37.2454V26.0323C144.114 25.5593 144.008 25.2345 143.797 25.0605C143.491 24.8194 143.173 24.5948 142.843 24.3878L142.283 24.0887V22.9674L148.861 21.6219H149.982V25.5838C150.132 25.1353 150.343 24.6816 150.618 24.2189C150.891 23.7592 151.217 23.3328 151.589 22.9481C151.963 22.5614 152.363 22.2444 152.785 21.9956C153.167 21.7585 153.607 21.6293 154.056 21.6219C154.256 21.6219 154.474 21.6528 154.711 21.7147C154.948 21.7778 155.159 21.89 155.346 22.0511C155.533 22.2135 155.689 22.457 155.813 22.7806C155.938 23.1041 156 23.5281 156 24.0514C156 24.4754 155.925 24.8865 155.776 25.2848C155.626 25.6843 155.477 26.0323 155.327 26.3314C155.111 26.6933 154.874 27.0427 154.618 27.3779C154.219 26.8546 153.795 26.4937 153.346 26.294C152.898 26.0942 152.374 25.995 151.776 25.995C151.378 25.995 151.016 26.0452 150.694 26.1445C150.369 26.2437 150.132 26.3932 149.982 26.593V36.909C149.982 37.1835 150.021 37.3885 150.094 37.5264C150.169 37.663 150.481 37.7932 151.029 37.9182L152.898 38.4041V39.6001H142.245V38.4041ZM85.4169 17.7953C84.563 17.8031 83.7416 17.4689 83.1356 16.8673C82.5009 16.2794 82.1473 15.4484 82.1638 14.5834C82.1638 13.6774 82.4886 12.9079 83.1356 12.2764C83.7839 11.6423 84.5443 11.3252 85.4169 11.3252C86.3126 11.3252 87.0731 11.6423 87.6956 12.2751C88.3194 12.9092 88.63 13.6774 88.63 14.5821C88.63 15.4882 88.3194 16.2499 87.6956 16.8673C87.0731 17.4859 86.3126 17.7953 85.4156 17.7953H85.4169Z" fill="#110122"/>
</svg>
