<svg width="160" height="80" viewBox="0 0 160 80" fill="none" xmlns="http://www.w3.org/2000/svg">
<path d="M153.587 69.6001C154.901 69.5998 155.973 70.6507 155.999 71.964C155.999 73.2633 154.95 74.3188 153.651 74.3274C152.352 74.3361 151.289 73.2946 151.272 71.9955C151.254 70.6964 152.288 69.6266 153.587 69.6001ZM153.609 70.0746C152.567 70.0716 151.72 70.912 151.714 71.9534C151.708 72.9514 152.477 73.7735 153.458 73.8481L153.584 73.8536L153.73 73.8501C154.131 73.8247 154.514 73.6715 154.822 73.413L154.933 73.3112C155.293 72.9556 155.495 72.47 155.493 71.964C155.493 70.9226 154.65 70.0775 153.609 70.0746ZM152.703 70.7901H153.716C154.226 70.7901 154.561 71.0353 154.604 71.4471L154.608 71.5379C154.635 71.8371 154.469 72.1165 154.201 72.238L154.118 72.2696L154.673 73.0736H154.086L153.595 72.3419H153.201V73.0495H152.703V70.7901H153.716H152.703ZM153.7 71.2323H153.201V71.8997H153.708V71.8836C153.965 71.8836 154.102 71.7952 154.102 71.57C154.102 71.3699 153.975 71.2587 153.777 71.2365L153.7 71.2323Z" fill="#0D2C40"/>
<path d="M67.9394 42.7205V61.5114C67.8521 64.1063 69.1866 66.5424 71.4205 67.8658C73.6544 69.1891 76.4321 69.1891 78.6659 67.8658C80.83 66.5838 82.1501 64.2575 82.1511 61.7541L82.1471 61.5114V42.7205H88.9896V61.0852C89.1112 66.1476 86.4799 70.8784 82.1149 73.4453C77.7499 76.0122 72.3366 76.0122 67.9715 73.4453C63.6921 70.9287 61.0791 66.3323 61.0928 61.3826L61.0968 61.0852V42.7205H67.9394ZM39.6438 42.7314L39.926 42.7366H57.5911V49.2816H39.9019C38.5696 49.2816 37.4897 50.3616 37.4897 51.6938C37.4897 53.1514 38.3719 54.0633 40.1147 54.3933L40.3119 54.4276L51.1989 56.0357C56.8916 56.9202 59.3681 61.2058 59.3681 65.3467C59.3414 67.8042 58.3246 70.1471 56.5479 71.8451C54.8395 73.4779 52.5673 74.3817 50.2115 74.3737L49.9285 74.3682H31.7246V73.7813C31.7246 69.9314 34.3611 67.9316 36.9242 67.782L37.0876 67.775H49.9526C51.2848 67.775 52.3648 66.695 52.3648 65.3628C52.3648 63.8974 51.49 62.9853 49.7405 62.6552L49.5425 62.621L38.6556 61.0128C32.9709 60.1364 30.4863 55.8508 30.4863 51.7179C30.5259 49.2681 31.5481 46.937 33.3231 45.2481C35.0299 43.6242 37.2951 42.7251 39.6438 42.7314ZM100.157 42.7312L100.439 42.7366H118.088V49.2816H100.399C99.067 49.2816 97.987 50.3616 97.987 51.6938C97.987 53.1514 98.8692 54.0633 100.612 54.3933L100.809 54.4276L111.696 56.0357C117.405 56.9202 119.89 61.2058 119.89 65.3467C119.861 67.805 118.842 70.1478 117.064 71.8456C115.355 73.4781 113.082 74.3817 110.725 74.3737L110.442 74.3682H92.833V67.775H110.466C111.798 67.775 112.878 66.695 112.878 65.3628C112.878 63.8974 111.996 62.9853 110.246 62.6552L110.048 62.621L99.169 61.0128C93.4763 60.1364 90.9917 55.8508 90.9917 51.7179C91.0313 49.2667 92.0545 46.9343 93.8313 45.2452C95.5398 43.621 97.807 42.7228 100.157 42.7312ZM130.848 42.7154L131.13 42.7205H150.243V43.2994C150.243 47.1415 147.599 49.1488 145.035 49.2987L144.872 49.3058H131.106C129.822 49.3058 128.771 50.31 128.698 51.5762L128.694 51.7179V57.7082C129.436 56.479 130.747 55.7122 132.173 55.6604L132.369 55.6578H146.705C145.774 59.2959 142.844 62.4615 137.772 62.5775L137.482 62.5807H131.516C130.765 62.5223 130.024 62.7892 129.483 63.3137C128.983 63.7978 128.698 64.4583 128.684 65.1493L128.686 65.3226C128.686 66.6072 129.69 67.6573 130.956 67.7307L131.098 67.7348H144.864C147.43 67.8135 150.12 69.7347 150.231 73.4983L150.235 73.7411V74.328H131.138C128.688 74.4125 126.307 73.5086 124.53 71.8195C122.822 70.1953 121.81 67.9764 121.7 65.629L121.691 65.3467V51.7179C121.726 49.2653 122.746 46.93 124.522 45.2377C126.229 43.6104 128.497 42.7091 130.848 42.7154Z" fill="#0D2C40"/>
<path d="M18.4256 12.8418L18.8277 12.5925C31.9583 4.50978 41.4474 4.4589 48.4877 4.68782L49.4542 4.7208C57.8727 5.0183 66.846 7.91291 68.0762 8.33102L68.1245 5.54094C68.1199 5.50526 68.1339 5.46972 68.1617 5.44685C68.1802 5.43161 68.2031 5.42342 68.2264 5.42303L68.7912 5.50378C71.2677 5.87795 81.4458 7.594 86.0067 10.2527C86.4356 10.5189 86.8259 10.8421 87.167 11.2131L87.3334 11.4025C88.6682 12.7775 90.2602 18.2129 90.7266 19.821C90.8391 20.223 90.3647 20.5366 90.2361 20.6251L89.7697 20.9478C88.4102 21.8684 85.8767 23.3623 82.7503 23.0774C79.5341 22.796 75.3369 20.9628 70.3195 17.6581L71.7669 21.0834L71.8392 21.1638L72.5315 21.5098C74.5451 22.501 80.0783 25.0932 83.0398 25.0313C85.3683 24.8763 87.6331 24.2148 89.6768 23.0949L90.0725 22.8724C90.2049 22.8056 90.6345 22.6276 90.4773 23.2222L90.2595 24.0511C90.2281 24.1658 90.1969 24.2742 90.1671 24.3668L90.1235 24.4926L90.027 24.7418C89.9334 25.0868 89.7535 25.4022 89.5044 25.6585C88.4064 26.4708 87.1955 27.1182 85.9102 27.5802C82.555 28.9298 78.9605 29.5836 75.3449 29.5019C74.0645 29.4737 72.8148 29.3471 71.6821 29.2189L70.5762 29.0948C67.077 28.7149 64.5866 28.6174 64.0399 31.898C63.659 34.1753 64.8034 36.8659 66.4634 39.3088L66.637 39.5606H59.9633L59.7823 39.2315C57.7004 35.3525 56.563 30.1692 48.9959 30.1692C42.0672 30.1692 42.3061 36.8162 43.0689 39.3785L43.1263 39.5606H36.8225C34.2254 30.1049 27.3185 26.0364 22.7595 25.2323L22.4462 25.1811C19.1829 24.6794 13.6075 24.7988 10.6102 30.4587C9.33582 33.1511 9.43785 36.2928 10.8842 38.8969C12.3306 41.501 14.9438 43.2479 17.903 43.589C20.9343 43.9186 23.2098 43.2111 24.4963 41.5547C25.7838 39.8918 26.0204 37.6439 25.1074 35.7494C24.3275 33.908 22.576 32.6636 20.5805 32.5332C19.3962 32.3396 18.1977 32.786 17.4286 33.7071C17.243 34.0009 17.1268 34.3322 17.0878 34.676L17.0748 34.8489L17.0783 34.9791C17.133 35.8838 17.8148 36.6367 18.7231 36.7706C18.9878 36.7654 19.2513 36.7368 19.5106 36.6851L19.7684 36.6258L20.0337 36.5374L20.2187 36.4811H20.3473C21.2539 36.2982 22.1628 36.7843 22.514 37.6398C22.8468 38.4504 22.5905 39.3766 21.9048 39.9029L21.7866 39.9868H21.7303L21.6419 40.0431C21.3912 40.2011 21.1209 40.3255 20.8378 40.4129C20.1297 40.6465 19.3883 40.7632 18.6427 40.7587C15.4798 40.6429 12.9661 38.062 12.9339 34.8971C12.9312 32.7108 14.0517 30.6763 15.9009 29.5099C18.7753 27.8156 22.3425 27.8495 25.1783 29.579L25.4129 29.727C29.2478 32.132 31.0179 36.7921 29.7468 41.1366C28.0743 46.2665 23.4751 49.0244 17.3804 48.4616C13.0848 48.0931 9.16556 45.8632 6.65422 42.3588C5.60985 40.8704 4.84179 39.2063 4.38677 37.446C3.68344 34.1779 3.9432 30.776 5.13455 27.6525C7.41332 21.9949 11.7348 17.0898 17.9863 13.1174L18.8277 12.5925L18.4256 12.8418ZM85.3822 12.1733C83.9521 10.6419 81.7402 10.1233 79.7784 10.8594C77.8167 11.5955 76.492 13.4413 76.4224 15.5354C76.3364 18.3863 78.5654 20.7733 81.4156 20.8824C83.5095 20.956 85.4415 19.7605 86.31 17.8537C87.1785 15.9469 86.8122 13.7047 85.3822 12.1733ZM81.5516 12.0359L81.7211 12.0377C83.0138 12.0808 84.1853 12.8103 84.7943 13.9513C85.4033 15.0923 85.3573 16.4716 84.6737 17.5696C83.99 18.6675 82.7726 19.3173 81.4799 19.2743C80.5186 19.2387 79.611 18.8218 78.9577 18.1157C78.3044 17.4096 77.9592 16.4724 77.9983 15.5113C78.0662 13.5813 79.6404 12.0591 81.5516 12.0359ZM82.2839 13.871L82.3161 13.879C81.4397 13.879 80.6758 14.3534 80.6758 14.9404C80.6758 15.5273 81.3914 16.0098 82.2839 16.0098C83.1764 16.0098 83.8921 15.5354 83.8921 14.9404C83.8921 14.3767 83.2426 13.9213 82.4222 13.8749L82.2839 13.871Z" fill="#02D35F"/>
</svg>
