<svg width="200" height="48" viewBox="0 0 200 48" fill="none" xmlns="http://www.w3.org/2000/svg">
<path d="M134.027 17.7826C134.027 24.5391 129.635 29.313 123.253 29.313C118.288 29.313 112.288 25.4173 112.288 16.8608C112.288 9.72169 117.027 5.33039 123.288 5.33039C129.601 5.33908 134.027 10.3739 134.027 17.7826ZM122.914 30.9478C128.792 31.1739 136.696 26.4782 137.009 17.9652C137.279 9.37387 130.018 4.55648 123.835 4.36517C114.896 4.06082 109.661 11.3565 109.47 17.2347C109.201 25.0608 115.775 30.713 122.914 30.9478Z" fill="#E31D38" stroke="#E31D38" stroke-width="0.3513"/>
<path d="M9.9653 28.7478C10.8088 28.8609 13.1653 29.0522 14.9218 29.0522C19.8523 29.0522 21.2262 29.087 22.5218 26.6435L21.8696 30.3478H6.53052C7.13921 30.0435 7.5653 29.5043 7.5653 28.6261V6.10435C7.5653 5.22609 7.14791 4.73043 6.53052 4.38261H11.0001C10.3914 4.72174 9.9653 5.22609 9.9653 6.10435V28.7478Z" fill="black"/>
<path d="M27.3218 17.9391L19.1044 6.21739C18.5305 5.33913 17.9566 4.92174 16.887 4.38261H23.0783C22.1218 4.76522 21.3566 4.95652 22.3914 6.74783L29.3044 16.2957L35.4262 6.2087C36.0783 4.9913 35.6957 4.75652 34.7392 4.37391H39.0175C37.9131 4.90435 37.4088 5.28696 36.9218 6.2087L29.9218 17.8261V28.6348C29.9218 29.513 30.6436 30.0522 31.261 30.3565H25.9479C26.5566 30.0522 27.3218 29.513 27.3218 28.6348V17.9391Z" fill="black"/>
<path d="M42.7392 9L42.4697 7.96522C42.4697 7.96522 42.5479 8.65217 42.5479 9V28.6261C42.5479 29.5043 42.9653 30.0435 43.5827 30.3478H40.1479C40.8001 30.0435 41.174 29.5043 41.174 28.6261V6.10435C41.174 5.37391 40.6001 4.73043 39.9914 4.38261H43.661L52.7131 26.0348L61.8783 4.38261H65.3131C64.7044 4.72174 64.3218 5.22609 64.3218 6.10435V28.6348C64.3218 29.513 64.7044 30.0522 65.3131 30.3565H60.8783C61.487 30.0522 61.8696 29.513 61.8696 28.6348V8.31304C61.8696 7.85217 61.9479 7.51304 61.9479 7.51304L61.6783 8.31304L52.0523 30.9217L42.7392 9Z" fill="black"/>
<path d="M71.9305 17.5217V5.72174C71.9305 5.72174 73.2001 5.6087 75.4957 5.6087C79.4697 5.6087 81.8001 7.5913 81.8001 11.5652C81.8001 17.2522 76.7566 17.8696 74.6957 17.8696C73.6262 17.8609 72.3914 17.713 71.9305 17.5217ZM75.0349 4.38261H68.4957C69.1044 4.72174 69.5305 5.22609 69.5305 6.10435V28.6348C69.5305 29.513 69.1131 30.0522 68.4957 30.3565H72.9653C72.3566 30.0522 71.9305 29.513 71.9305 28.6348V18.3217C74.8349 19.6609 78.8175 18.8174 80.0436 18.2435C81.2262 17.713 84.5131 15.6435 84.5131 11.487C84.5131 8.61739 82.6349 4.38261 75.0349 4.38261Z" fill="black"/>
<path d="M104.713 15.2696V6.10435C104.713 5.22609 104.296 4.73043 103.687 4.38261H108.157C107.504 4.72174 107.122 5.22609 107.122 6.10435V28.6348C107.122 29.513 107.504 30.0522 108.157 30.3565H103.687C104.296 30.0522 104.713 29.513 104.713 28.6348V16.487H90.1218V28.6348C90.1218 29.513 90.5044 30.0522 91.1131 30.3565H86.6783C87.287 30.0522 87.6697 29.513 87.6697 28.6348V6.10435C87.6697 5.22609 87.287 4.73043 86.6783 4.38261H91.1131C90.5044 4.72174 90.1218 5.22609 90.1218 6.10435V15.2696H104.713Z" fill="black"/>
<path d="M139.435 17.7826C139.435 24.5391 135.044 29.313 128.661 29.313C123.696 29.313 117.696 25.4174 117.696 16.8609C117.696 9.72174 122.435 5.33043 128.696 5.33043C135 5.33913 139.435 10.3739 139.435 17.7826ZM128.322 30.6609C134.2 30.887 142.113 26.1913 142.417 17.6783C142.687 9.08696 135.426 4.26957 129.244 4.07826C120.304 3.77391 115.07 11.0696 114.878 16.9478C114.609 24.7739 121.174 30.4261 128.322 30.6609Z" fill="black"/>
<path d="M146.461 9L146.191 7.96522C146.191 7.96522 146.27 8.65217 146.27 9V28.6261C146.27 29.5043 146.687 30.0435 147.296 30.3478H143.861C144.513 30.0435 144.896 29.5043 144.896 28.6261V6.10435C144.896 5.37391 144.322 4.73043 143.713 4.38261H147.383L156.435 26.0348L165.6 4.38261H169.035C168.426 4.72174 168.044 5.22609 168.044 6.10435V28.6348C168.044 29.513 168.426 30.0522 169.035 30.3565H164.6C165.209 30.0522 165.591 29.513 165.591 28.6348V8.31304C165.591 7.85217 165.67 7.51304 165.67 7.51304L165.4 8.31304L155.774 30.9217L146.461 9Z" fill="black"/>
<path d="M185.644 20.8087H176.096C178.313 15.3826 180.87 8.77391 180.87 8.77391C180.87 8.77391 183.435 15.3826 185.644 20.8087ZM175.6 22.1043H186.139C187.435 25.313 188.548 27.9826 188.774 28.5217C189.157 29.4 188.887 29.9739 187.896 30.3565H193.47C192.131 29.8174 191.904 29.287 191.557 28.5217C190.991 27.0696 181.6 4 181.6 4C181.6 4 171.939 27.0696 171.365 28.5217C171.026 29.287 170.757 29.6261 169.722 30.3565H173.774C172.783 29.9739 172.626 29.4 172.974 28.5217C173.157 27.9826 174.27 25.2696 175.6 22.1043Z" fill="black"/>
<path d="M9.9653 28.7478C10.8088 28.8609 13.1653 29.0522 14.9218 29.0522C19.8523 29.0522 21.2262 29.087 22.5218 26.6435L21.8696 30.3478H6.53052C7.13921 30.0435 7.5653 29.5043 7.5653 28.6261V6.10435C7.5653 5.22609 7.14791 4.73043 6.53052 4.38261H11.0001C10.3914 4.72174 9.9653 5.22609 9.9653 6.10435V28.7478Z" stroke="black" stroke-width="0.3513"/>
<path d="M27.3218 17.9391L19.1044 6.21739C18.5305 5.33913 17.9566 4.92174 16.887 4.38261H23.0783C22.1218 4.76522 21.3566 4.95652 22.3914 6.74783L29.3044 16.2957L35.4262 6.2087C36.0783 4.9913 35.6957 4.75652 34.7392 4.37391H39.0175C37.9131 4.90435 37.4088 5.28696 36.9218 6.2087L29.9218 17.8261V28.6348C29.9218 29.513 30.6436 30.0522 31.261 30.3565H25.9479C26.5566 30.0522 27.3218 29.513 27.3218 28.6348V17.9391Z" stroke="black" stroke-width="0.3513"/>
<path d="M42.7392 9L42.4697 7.96522C42.4697 7.96522 42.5479 8.65217 42.5479 9V28.6261C42.5479 29.5043 42.9653 30.0435 43.5827 30.3478H40.1479C40.8001 30.0435 41.174 29.5043 41.174 28.6261V6.10435C41.174 5.37391 40.6001 4.73043 39.9914 4.38261H43.661L52.7131 26.0348L61.8783 4.38261H65.3131C64.7044 4.72174 64.3218 5.22609 64.3218 6.10435V28.6348C64.3218 29.513 64.7044 30.0522 65.3131 30.3565H60.8783C61.487 30.0522 61.8696 29.513 61.8696 28.6348V8.31304C61.8696 7.85217 61.9479 7.51304 61.9479 7.51304L61.6783 8.31304L52.0523 30.9217L42.7392 9Z" stroke="black" stroke-width="0.3513"/>
<path d="M71.9305 17.5217V5.72174C71.9305 5.72174 73.2001 5.6087 75.4957 5.6087C79.4697 5.6087 81.8001 7.5913 81.8001 11.5652C81.8001 17.2522 76.7566 17.8696 74.6957 17.8696C73.6262 17.8609 72.3914 17.713 71.9305 17.5217ZM75.0349 4.38261H68.4957C69.1044 4.72174 69.5305 5.22609 69.5305 6.10435V28.6348C69.5305 29.513 69.1131 30.0522 68.4957 30.3565H72.9653C72.3566 30.0522 71.9305 29.513 71.9305 28.6348V18.3217C74.8349 19.6609 78.8175 18.8174 80.0436 18.2435C81.2262 17.713 84.5131 15.6435 84.5131 11.487C84.5131 8.61739 82.6349 4.38261 75.0349 4.38261Z" stroke="black" stroke-width="0.3513"/>
<path d="M104.713 15.2696V6.10435C104.713 5.22609 104.296 4.73043 103.687 4.38261H108.157C107.504 4.72174 107.122 5.22609 107.122 6.10435V28.6348C107.122 29.513 107.504 30.0522 108.157 30.3565H103.687C104.296 30.0522 104.713 29.513 104.713 28.6348V16.487H90.1218V28.6348C90.1218 29.513 90.5044 30.0522 91.1131 30.3565H86.6783C87.287 30.0522 87.6697 29.513 87.6697 28.6348V6.10435C87.6697 5.22609 87.287 4.73043 86.6783 4.38261H91.1131C90.5044 4.72174 90.1218 5.22609 90.1218 6.10435V15.2696H104.713Z" stroke="black" stroke-width="0.3513"/>
<path d="M139.435 17.7826C139.435 24.5391 135.044 29.313 128.661 29.313C123.696 29.313 117.696 25.4174 117.696 16.8609C117.696 9.72174 122.435 5.33043 128.696 5.33043C135 5.33913 139.435 10.3739 139.435 17.7826ZM128.322 30.6609C134.2 30.887 142.113 26.1913 142.417 17.6783C142.687 9.08696 135.426 4.26957 129.244 4.07826C120.304 3.77391 115.07 11.0696 114.878 16.9478C114.609 24.7739 121.174 30.4261 128.322 30.6609Z" stroke="black" stroke-width="0.3513"/>
<path d="M146.461 9L146.191 7.96522C146.191 7.96522 146.27 8.65217 146.27 9V28.6261C146.27 29.5043 146.687 30.0435 147.296 30.3478H143.861C144.513 30.0435 144.896 29.5043 144.896 28.6261V6.10435C144.896 5.37391 144.322 4.73043 143.713 4.38261H147.383L156.435 26.0348L165.6 4.38261H169.035C168.426 4.72174 168.044 5.22609 168.044 6.10435V28.6348C168.044 29.513 168.426 30.0522 169.035 30.3565H164.6C165.209 30.0522 165.591 29.513 165.591 28.6348V8.31304C165.591 7.85217 165.67 7.51304 165.67 7.51304L165.4 8.31304L155.774 30.9217L146.461 9Z" stroke="black" stroke-width="0.3513"/>
<path d="M185.644 20.8087H176.096C178.313 15.3826 180.87 8.77391 180.87 8.77391C180.87 8.77391 183.435 15.3826 185.644 20.8087ZM175.6 22.1043H186.139C187.435 25.313 188.548 27.9826 188.774 28.5217C189.157 29.4 188.887 29.9739 187.896 30.3565H193.47C192.131 29.8174 191.904 29.287 191.557 28.5217C190.991 27.0696 181.6 4 181.6 4C181.6 4 171.939 27.0696 171.365 28.5217C171.026 29.287 170.757 29.6261 169.722 30.3565H173.774C172.783 29.9739 172.626 29.4 172.974 28.5217C173.157 27.9826 174.27 25.2696 175.6 22.1043Z" stroke="black" stroke-width="0.3513"/>
<path d="M19.8607 39.4955H20.4347C21.3042 39.4955 21.652 39.7824 21.6607 40.2607C21.6694 40.6868 21.3999 41.0868 20.4347 41.0868H19.8607V39.4955ZM18.9651 38.8694V43.9302H19.8607V41.7302H20.2347C20.6955 41.7302 21.0694 41.852 21.8868 42.8868L22.7129 43.9302H23.7825C23.3564 43.4433 23.1999 43.2781 22.9303 42.9302C22.452 42.2955 22.1042 41.8346 21.539 41.5302C22.2086 41.3128 22.5825 40.8781 22.5825 40.2868C22.5825 39.4085 21.7999 38.8694 20.539 38.8694H18.9651Z" fill="black"/>
<path d="M31.1912 39.5215H28.5477V41.052H31.0955V41.7042H28.5477V43.2781H31.2694V43.9302H27.652V38.8694H31.1912V39.5215Z" fill="black"/>
<path d="M38.3825 39.9824C37.852 39.5737 37.339 39.452 36.9216 39.452C36.3477 39.452 35.939 39.6955 35.939 40.052C35.939 41.0259 38.6347 41.0085 38.6347 42.6259C38.6347 43.4172 37.8955 43.9998 36.8868 43.9998C36.2086 43.9998 35.6607 43.852 35.139 43.5302V42.6085C35.5999 43.0868 36.1738 43.3476 36.7825 43.3476C37.4781 43.3476 37.7999 42.9911 37.7999 42.7128C37.7999 41.6694 35.1042 41.5476 35.1042 40.1563C35.1042 39.3302 35.852 38.8085 36.9912 38.8085C37.4694 38.8085 37.939 38.9302 38.3825 39.165V39.9824Z" fill="black"/>
<path d="M46.339 39.5215H43.6955V41.052H46.2433V41.7042H43.6955V43.2781H46.4173V43.9302H42.7999V38.8694H46.339V39.5215Z" fill="black"/>
<path d="M52.8607 39.9563L53.8694 41.7911H51.9303L52.8607 39.9563ZM53.1912 38.8346H52.5651L49.8868 43.9302H50.7999L51.5825 42.4346H54.2346L55.0694 43.9302H55.9825L53.1912 38.8346Z" fill="black"/>
<path d="M60.7738 39.4955H61.3477C62.2173 39.4955 62.5651 39.7824 62.5738 40.2607C62.5825 40.6868 62.3129 41.0868 61.3477 41.0868H60.7738V39.4955ZM59.8781 38.8694V43.9302H60.7738V41.7302H61.1477C61.6086 41.7302 61.9825 41.852 62.7999 42.8868L63.626 43.9302H64.6955C64.2694 43.4433 64.1129 43.2781 63.8433 42.9302C63.3651 42.2955 63.0173 41.8346 62.452 41.5302C63.1216 41.3128 63.4955 40.8781 63.4955 40.2868C63.4955 39.4085 62.7129 38.8694 61.452 38.8694H59.8781Z" fill="black"/>
<path d="M73.8868 39.9998C73.1216 39.6346 72.4607 39.4694 71.739 39.4694C70.3129 39.4694 69.252 40.2955 69.252 41.4085C69.252 42.5476 70.2781 43.3302 71.7738 43.3302C72.4781 43.3302 73.2433 43.1302 73.9477 42.7563V43.5476C73.339 43.8085 72.6694 43.9911 71.6955 43.9911C69.3564 43.9911 68.3303 42.5302 68.3303 41.4694C68.3303 39.9215 69.7651 38.7998 71.7477 38.7998C72.3912 38.7998 73.0346 38.9302 73.8868 39.2172V39.9998Z" fill="black"/>
<path d="M83.5216 43.9302H82.626V41.7215H79.139V43.9302H78.2433V38.8694H79.139V41.0781H82.626V38.8694H83.5216V43.9302Z" fill="black"/>
<path d="M91.626 41.3998C91.626 41.9042 91.1129 42.3215 90.4955 42.3215C89.8781 42.3215 89.3651 41.9042 89.3651 41.3998C89.3651 40.8955 89.8781 40.4781 90.4955 40.4781C91.1129 40.4781 91.626 40.8955 91.626 41.3998Z" fill="black"/>
<path d="M100.052 39.5215H97.6259V40.9215H100.052V41.5737H97.6259V43.9302H96.7303V38.8694H100.052V39.5215Z" fill="black"/>
<path d="M104.852 41.3998C104.852 40.2868 105.887 39.4694 107.269 39.4694C108.669 39.4694 109.696 40.2868 109.696 41.3998C109.696 42.5042 108.661 43.3302 107.269 43.3302C105.878 43.3302 104.852 42.5042 104.852 41.3998ZM103.93 41.3998C103.93 42.7737 105.217 43.9998 107.252 43.9998C109.365 43.9998 110.626 42.765 110.626 41.3998C110.626 39.9911 109.33 38.7998 107.278 38.7998C105.252 38.7998 103.93 39.9998 103.93 41.3998Z" fill="black"/>
<path d="M120.148 41.9389C120.148 43.1824 119.235 43.9998 117.382 43.9998C116.069 43.9998 114.791 43.3998 114.791 42.0172V38.8694H115.687V41.8607C115.687 42.4346 115.782 42.6694 116.061 42.9042C116.417 43.1911 116.861 43.3389 117.4 43.3389C118.087 43.3389 118.582 43.165 118.861 42.9302C119.182 42.6694 119.252 42.2955 119.252 41.8259V38.8694H120.148V41.9389Z" fill="black"/>
<path d="M130.348 43.9302H129.582L125.417 40.0346V43.9302H124.574V38.8694H125.287L129.504 42.7911V38.8694H130.348V43.9302Z" fill="black"/>
<path d="M135.817 39.5215H137.2C138.948 39.5215 139.739 40.3824 139.739 41.3998C139.739 42.0259 139.269 43.2781 137.243 43.2781H135.817V39.5215ZM134.922 43.9302H137.348C139.4 43.9302 140.652 42.6955 140.652 41.3998C140.652 40.2085 139.635 38.8694 137.339 38.8694H134.922V43.9302Z" fill="black"/>
<path d="M146.756 39.9563L147.765 41.7911H145.826L146.756 39.9563ZM147.078 38.8346H146.443L143.765 43.9302H144.678L145.461 42.4346H148.113L148.948 43.9302H149.861L147.078 38.8346Z" fill="black"/>
<path d="M157.513 39.5215H155.356V43.9302H154.461V39.5215H152.304V38.8694H157.513V39.5215Z" fill="black"/>
<path d="M162.461 43.9302H161.565V38.8694H162.461V43.9302Z" fill="black"/>
<path d="M167.687 41.3998C167.687 40.2868 168.722 39.4694 170.104 39.4694C171.504 39.4694 172.53 40.2868 172.53 41.3998C172.53 42.5042 171.496 43.3302 170.104 43.3302C168.713 43.3302 167.687 42.5042 167.687 41.3998ZM166.756 41.3998C166.756 42.7737 168.043 43.9998 170.078 43.9998C172.191 43.9998 173.452 42.765 173.452 41.3998C173.452 39.9911 172.156 38.7998 170.096 38.7998C168.087 38.7998 166.756 39.9998 166.756 41.3998Z" fill="black"/>
<path d="M183.513 43.9302H182.748L178.582 40.0346V43.9302H177.739V38.8694H178.452L182.669 42.7911V38.8694H183.513V43.9302Z" fill="black"/>
<path d="M19.8607 39.4955H20.4347C21.3042 39.4955 21.652 39.7824 21.6607 40.2607C21.6694 40.6868 21.3999 41.0868 20.4347 41.0868H19.8607V39.4955ZM18.9651 38.8694V43.9302H19.8607V41.7302H20.2347C20.6955 41.7302 21.0694 41.852 21.8868 42.8868L22.7129 43.9302H23.7825C23.3564 43.4433 23.1999 43.2781 22.9303 42.9302C22.452 42.2955 22.1042 41.8346 21.539 41.5302C22.2086 41.3128 22.5825 40.8781 22.5825 40.2868C22.5825 39.4085 21.7999 38.8694 20.539 38.8694H18.9651Z" stroke="black" stroke-width="0.3513"/>
<path d="M31.1912 39.5215H28.5477V41.052H31.0955V41.7042H28.5477V43.2781H31.2694V43.9302H27.652V38.8694H31.1912V39.5215Z" stroke="black" stroke-width="0.3513"/>
<path d="M38.3825 39.9824C37.852 39.5737 37.339 39.452 36.9216 39.452C36.3477 39.452 35.939 39.6955 35.939 40.052C35.939 41.0259 38.6347 41.0085 38.6347 42.6259C38.6347 43.4172 37.8955 43.9998 36.8868 43.9998C36.2086 43.9998 35.6607 43.852 35.139 43.5302V42.6085C35.5999 43.0868 36.1738 43.3476 36.7825 43.3476C37.4781 43.3476 37.7999 42.9911 37.7999 42.7128C37.7999 41.6694 35.1042 41.5476 35.1042 40.1563C35.1042 39.3302 35.852 38.8085 36.9912 38.8085C37.4694 38.8085 37.939 38.9302 38.3825 39.165V39.9824Z" stroke="black" stroke-width="0.3513"/>
<path d="M46.339 39.5215H43.6955V41.052H46.2433V41.7042H43.6955V43.2781H46.4173V43.9302H42.7999V38.8694H46.339V39.5215Z" stroke="black" stroke-width="0.3513"/>
<path d="M52.8607 39.9563L53.8694 41.7911H51.9303L52.8607 39.9563ZM53.1912 38.8346H52.5651L49.8868 43.9302H50.7999L51.5825 42.4346H54.2346L55.0694 43.9302H55.9825L53.1912 38.8346Z" stroke="black" stroke-width="0.3513"/>
<path d="M60.7738 39.4955H61.3477C62.2173 39.4955 62.5651 39.7824 62.5738 40.2607C62.5825 40.6868 62.3129 41.0868 61.3477 41.0868H60.7738V39.4955ZM59.8781 38.8694V43.9302H60.7738V41.7302H61.1477C61.6086 41.7302 61.9825 41.852 62.7999 42.8868L63.626 43.9302H64.6955C64.2694 43.4433 64.1129 43.2781 63.8433 42.9302C63.3651 42.2955 63.0173 41.8346 62.452 41.5302C63.1216 41.3128 63.4955 40.8781 63.4955 40.2868C63.4955 39.4085 62.7129 38.8694 61.452 38.8694H59.8781Z" stroke="black" stroke-width="0.3513"/>
<path d="M73.8868 39.9998C73.1216 39.6346 72.4607 39.4694 71.739 39.4694C70.3129 39.4694 69.252 40.2955 69.252 41.4085C69.252 42.5476 70.2781 43.3302 71.7738 43.3302C72.4781 43.3302 73.2433 43.1302 73.9477 42.7563V43.5476C73.339 43.8085 72.6694 43.9911 71.6955 43.9911C69.3564 43.9911 68.3303 42.5302 68.3303 41.4694C68.3303 39.9215 69.7651 38.7998 71.7477 38.7998C72.3912 38.7998 73.0346 38.9302 73.8868 39.2172V39.9998Z" stroke="black" stroke-width="0.3513"/>
<path d="M83.5216 43.9302H82.626V41.7215H79.139V43.9302H78.2433V38.8694H79.139V41.0781H82.626V38.8694H83.5216V43.9302Z" stroke="black" stroke-width="0.3513"/>
<path d="M91.626 41.3998C91.626 41.9042 91.1129 42.3215 90.4955 42.3215C89.8781 42.3215 89.3651 41.9042 89.3651 41.3998C89.3651 40.8955 89.8781 40.4781 90.4955 40.4781C91.1129 40.4781 91.626 40.8955 91.626 41.3998Z" stroke="black" stroke-width="0.3513"/>
<path d="M100.052 39.5215H97.6259V40.9215H100.052V41.5737H97.6259V43.9302H96.7303V38.8694H100.052V39.5215Z" stroke="black" stroke-width="0.3513"/>
<path d="M104.852 41.3998C104.852 40.2868 105.887 39.4694 107.269 39.4694C108.669 39.4694 109.696 40.2868 109.696 41.3998C109.696 42.5042 108.661 43.3302 107.269 43.3302C105.878 43.3302 104.852 42.5042 104.852 41.3998ZM103.93 41.3998C103.93 42.7737 105.217 43.9998 107.252 43.9998C109.365 43.9998 110.626 42.765 110.626 41.3998C110.626 39.9911 109.33 38.7998 107.278 38.7998C105.252 38.7998 103.93 39.9998 103.93 41.3998Z" stroke="black" stroke-width="0.3513"/>
<path d="M120.148 41.9389C120.148 43.1824 119.235 43.9998 117.382 43.9998C116.069 43.9998 114.791 43.3998 114.791 42.0172V38.8694H115.687V41.8607C115.687 42.4346 115.782 42.6694 116.061 42.9042C116.417 43.1911 116.861 43.3389 117.4 43.3389C118.087 43.3389 118.582 43.165 118.861 42.9302C119.182 42.6694 119.252 42.2955 119.252 41.8259V38.8694H120.148V41.9389Z" stroke="black" stroke-width="0.3513"/>
<path d="M130.348 43.9302H129.582L125.417 40.0346V43.9302H124.574V38.8694H125.287L129.504 42.7911V38.8694H130.348V43.9302Z" stroke="black" stroke-width="0.3513"/>
<path d="M135.817 39.5215H137.2C138.948 39.5215 139.739 40.3824 139.739 41.3998C139.739 42.0259 139.269 43.2781 137.243 43.2781H135.817V39.5215ZM134.922 43.9302H137.348C139.4 43.9302 140.652 42.6955 140.652 41.3998C140.652 40.2085 139.635 38.8694 137.339 38.8694H134.922V43.9302Z" stroke="black" stroke-width="0.3513"/>
<path d="M146.756 39.9563L147.765 41.7911H145.826L146.756 39.9563ZM147.078 38.8346H146.443L143.765 43.9302H144.678L145.461 42.4346H148.113L148.948 43.9302H149.861L147.078 38.8346Z" stroke="black" stroke-width="0.3513"/>
<path d="M157.513 39.5215H155.356V43.9302H154.461V39.5215H152.304V38.8694H157.513V39.5215Z" stroke="black" stroke-width="0.3513"/>
<path d="M162.461 43.9302H161.565V38.8694H162.461V43.9302Z" stroke="black" stroke-width="0.3513"/>
<path d="M167.687 41.3998C167.687 40.2868 168.722 39.4694 170.104 39.4694C171.504 39.4694 172.53 40.2868 172.53 41.3998C172.53 42.5042 171.496 43.3302 170.104 43.3302C168.713 43.3302 167.687 42.5042 167.687 41.3998ZM166.756 41.3998C166.756 42.7737 168.043 43.9998 170.078 43.9998C172.191 43.9998 173.452 42.765 173.452 41.3998C173.452 39.9911 172.156 38.7998 170.096 38.7998C168.087 38.7998 166.756 39.9998 166.756 41.3998Z" stroke="black" stroke-width="0.3513"/>
<path d="M183.513 43.9302H182.748L178.582 40.0346V43.9302H177.739V38.8694H178.452L182.669 42.7911V38.8694H183.513V43.9302Z" stroke="black" stroke-width="0.3513"/>
</svg>
