<svg width="232" height="48" viewBox="0 0 232 48" fill="none" xmlns="http://www.w3.org/2000/svg">
<path d="M34.8355 26.8588C39.4587 26.8588 43.6266 24.0736 45.3953 19.8021C47.164 15.5306 46.1852 10.6143 42.9153 7.34595C39.6454 4.07764 34.7286 3.10115 30.4579 4.8719C26.1873 6.64266 23.404 10.8119 23.4063 15.4351C23.4063 18.4658 24.6106 21.3723 26.7541 23.5148C28.8977 25.6574 31.8048 26.8603 34.8355 26.8588Z" fill="#FFCD00"/>
<path d="M34.9069 32.5712H34.8687C27.029 32.5693 20.1884 27.2521 18.2522 19.6552C17.6783 17.3705 15.8199 15.4355 13.4641 15.4355H6.30371C6.30371 31.2115 19.0927 44.0005 34.8687 44.0005H34.9069V32.5712Z" fill="#00ECBB"/>
<path d="M34.8359 32.5712H34.8687C42.7091 32.5712 49.5507 27.2532 51.4852 19.6552C52.0645 17.3705 53.923 15.4355 56.2788 15.4355H63.4391C63.4361 31.2124 50.6456 44.0005 34.8687 44.0005H34.8359V32.5712Z" fill="#AF64FF"/>
<path d="M55.0706 35.6314C49.7135 40.9889 42.4475 43.9987 34.8712 43.9987C27.2949 43.9987 20.0289 40.9889 14.6719 35.6314L22.7505 27.5527C29.4458 34.2438 40.2966 34.2438 46.9919 27.5527L55.0706 35.6314Z" fill="#7131FF"/>
<path d="M205.734 14.8617H208.877V28.2423H205.734V14.8617ZM207.319 12.6753C206.788 12.6875 206.274 12.4913 205.887 12.1287C205.508 11.7834 205.297 11.2912 205.307 10.7786C205.301 10.2795 205.512 9.80235 205.887 9.47228C206.272 9.10665 206.788 8.90992 207.319 8.92568C207.849 8.91639 208.362 9.11222 208.751 9.47228C209.126 9.79018 209.339 10.2597 209.33 10.7513C209.339 11.2793 209.129 11.7875 208.751 12.156C208.361 12.5106 207.844 12.692 207.319 12.6589V12.6753ZM201.104 28.4172C200.55 28.4295 200.015 28.2133 199.625 27.8194C199.236 27.4255 199.025 26.8885 199.043 26.3347C199.023 25.7755 199.233 25.2325 199.623 24.8315C200.021 24.451 200.554 24.2445 201.104 24.2576C201.657 24.2438 202.192 24.4587 202.582 24.8518C202.972 25.2448 203.183 25.7813 203.165 26.3347C203.184 26.889 202.974 27.4269 202.584 27.8211C202.194 28.2154 201.658 28.4311 201.104 28.4172ZM214.862 27.5426C217.178 28.7065 219.908 28.7065 222.224 27.5426C223.282 26.9849 224.162 26.1424 224.766 25.1103C225.391 24.0298 225.712 22.8002 225.695 21.552C225.715 20.312 225.394 19.0904 224.766 18.021C224.159 16.9855 223.273 16.1424 222.208 15.5887C219.892 14.4248 217.162 14.4248 214.845 15.5887C213.783 16.1471 212.895 16.989 212.282 18.021C211.666 19.0944 211.352 20.3146 211.374 21.552C211.355 22.7977 211.668 24.0259 212.282 25.1103C212.902 26.1426 213.795 26.9841 214.862 27.5426ZM221.393 24.5856C219.79 26.1153 217.268 26.1153 215.665 24.5856C214.912 23.7599 214.519 22.6683 214.572 21.552C214.519 20.4357 214.912 19.344 215.665 18.5184C217.265 16.9802 219.794 16.9802 221.393 18.5184C222.166 19.3346 222.574 20.4293 222.525 21.552C222.574 22.6747 222.166 23.7694 221.393 24.5856ZM132.567 27.5098C132.168 27.8256 131.709 28.0546 131.217 28.1821C130.683 28.3328 130.131 28.4083 129.577 28.4062C128.338 28.4862 127.118 28.0736 126.182 27.2584C125.331 26.3656 124.896 25.1547 124.985 23.9242V12.0139H128.101V15.0475H131.67V17.54H128.101V23.8641C128.066 24.4036 128.236 24.9364 128.577 25.3563C128.943 25.7079 129.442 25.8885 129.949 25.8537C130.577 25.8751 131.193 25.6823 131.698 25.3071L132.567 27.5098ZM87.5329 28.4062C86.2413 28.4268 84.9646 28.1283 83.8161 27.5372C82.7518 26.9864 81.8621 26.1497 81.2471 25.1212C80.6229 24.0485 80.3035 22.8257 80.3233 21.5848C80.3012 20.3522 80.621 19.1376 81.2471 18.0756C81.856 17.052 82.7355 16.216 83.7887 15.6597C84.9462 15.0661 86.2323 14.7676 87.5329 14.7906C88.7294 14.7642 89.9135 15.0386 90.9764 15.5887C91.9491 16.0962 92.7328 16.9029 93.212 17.8898L90.8343 19.3109C90.4904 18.7194 89.9889 18.235 89.3858 17.9117C88.8114 17.5971 88.1659 17.4353 87.511 17.4416C86.4309 17.4075 85.3847 17.8208 84.6196 18.584C83.8334 19.3837 83.4172 20.4756 83.4717 21.5957C83.4113 22.7147 83.8055 23.8107 84.5649 24.6348C85.8719 25.8453 87.7921 26.1197 89.3858 25.3235C89.9816 24.9927 90.4809 24.5123 90.8343 23.9297L93.212 25.3235C92.7068 26.3056 91.916 27.1117 90.9436 27.6356C89.8913 28.1754 88.7208 28.4441 87.5384 28.4172L87.5329 28.4062ZM113.223 27.9854C114.256 28.2649 115.322 28.4062 116.393 28.4062C118.257 28.4062 119.733 28.0346 120.809 27.3131C121.841 26.6739 122.463 25.5419 122.449 24.3287C122.498 23.5295 122.229 22.7434 121.7 22.1423C121.223 21.6342 120.622 21.2578 119.957 21.0491C119.097 20.8035 118.22 20.6208 117.333 20.5025C116.53 20.3581 115.742 20.1423 114.977 19.8575C114.51 19.7032 114.204 19.2557 114.228 18.7644C114.227 18.2958 114.498 17.8692 114.923 17.6712C115.575 17.3547 116.298 17.2098 117.022 17.2503C118.364 17.2294 119.686 17.5732 120.848 18.2451L122.05 15.8783C121.348 15.4904 120.59 15.2138 119.804 15.0585C118.908 14.8474 117.991 14.7392 117.071 14.736C115.556 14.6592 114.056 15.0587 112.78 15.8783C111.775 16.5463 111.182 17.6834 111.211 18.8901C111.162 19.7132 111.427 20.5244 111.955 21.1584C112.456 21.6638 113.073 22.0391 113.753 22.2516C114.637 22.5049 115.537 22.6967 116.448 22.8255C117.221 22.9252 117.982 23.0991 118.721 23.3448C119.156 23.4668 119.452 23.8669 119.443 24.3177C119.443 25.298 118.512 25.7862 116.65 25.7826C115.806 25.7784 114.966 25.6626 114.152 25.4383C113.394 25.2214 112.672 24.8935 112.009 24.4653L110.812 26.8321C111.553 27.3556 112.377 27.7493 113.25 27.9963L113.223 27.9854ZM137.016 27.5372C139.316 28.6959 142.029 28.6959 144.329 27.5372C145.377 26.9816 146.25 26.145 146.849 25.1212C147.471 24.0474 147.79 22.8254 147.773 21.5848C147.792 20.3525 147.473 19.1387 146.849 18.0756C146.25 17.0519 145.377 16.2153 144.329 15.6597C142.029 14.501 139.316 14.501 137.016 15.6597C135.963 16.2186 135.083 17.0539 134.469 18.0756C133.862 19.1441 133.552 20.3559 133.572 21.5848C133.554 22.822 133.863 24.0421 134.469 25.1212C135.088 26.1507 135.979 26.9902 137.043 27.5481L137.016 27.5372ZM143.504 24.5965C141.916 26.1271 139.402 26.1271 137.814 24.5965C137.062 23.7788 136.668 22.6944 136.721 21.5848C136.67 20.4754 137.063 19.3914 137.814 18.573C139.405 17.0509 141.913 17.0509 143.504 18.573C144.27 19.3837 144.675 20.4705 144.625 21.5848C144.686 22.699 144.291 23.7904 143.531 24.6074L143.504 24.5965ZM167.554 14.7906C169.031 14.7142 170.475 15.2455 171.55 16.261C172.528 17.223 173.02 18.6714 173.02 20.6337V28.2423H169.899V21.0218C169.986 20.0936 169.733 19.1653 169.188 18.4091C168.622 17.7904 167.806 17.461 166.969 17.5127C166.015 17.4722 165.093 17.8566 164.449 18.5621C163.76 19.3791 163.414 20.4308 163.482 21.4973V28.2423H160.361V21.0218C160.431 20.0861 160.157 19.1571 159.59 18.4091C159.023 17.7911 158.208 17.4618 157.371 17.5127C156.414 17.4705 155.486 17.843 154.824 18.5348C154.149 19.3691 153.814 20.4268 153.884 21.4973V28.2423H150.763V20.8031C150.763 17.0754 153.589 14.7906 157.278 14.7906C158.458 14.775 159.632 14.9693 160.744 15.3645C161.511 15.712 162.155 16.2837 162.591 17.0043C163.152 16.2915 163.881 15.7282 164.712 15.3645C165.621 14.968 166.606 14.7758 167.598 14.8016L167.554 14.7906ZM189.647 22.5905C189.68 22.1933 189.697 21.8872 189.697 21.6722C189.724 20.4217 189.424 19.1857 188.827 18.0866C188.281 17.0642 187.447 16.2243 186.428 15.6706C185.37 15.0797 184.174 14.7798 182.963 14.8016C181.725 14.782 180.503 15.0813 179.415 15.6706C178.382 16.2399 177.528 17.0861 176.95 18.1139C176.357 19.1772 176.055 20.3783 176.075 21.5957C176.054 22.8333 176.364 24.0541 176.972 25.1322C177.596 26.165 178.497 27.0021 179.574 27.5481C181.758 28.5822 184.266 28.6983 186.537 27.8706C187.419 27.5226 188.199 26.9588 188.806 26.2308L187.133 24.3123C186.181 25.2769 184.869 25.8 183.515 25.7553C182.485 25.7922 181.47 25.495 180.623 24.9081C179.868 24.3461 179.356 23.5172 179.191 22.5905H189.647ZM180.415 18.185C181.126 17.5839 182.032 17.2648 182.963 17.2886C183.892 17.2594 184.799 17.5792 185.504 18.185C186.189 18.7854 186.626 19.6195 186.729 20.5244H179.169C179.279 19.6168 179.724 18.7828 180.415 18.185ZM200.404 14.8016V17.7641C200.167 17.7171 199.925 17.6915 199.683 17.6876C198.622 17.6319 197.587 18.0293 196.835 18.7808C196.105 19.6183 195.738 20.7114 195.813 21.8198V28.2423H192.692V21.541C192.692 16.6818 195.813 14.1948 200.404 14.8016ZM102.018 28.4172C100.236 28.4172 98.339 27.9252 97.3114 26.9468C96.2838 25.9684 95.7864 24.4817 95.7864 22.5413V14.9382H98.9075V22.1204C98.8342 23.0844 99.1182 24.0417 99.7055 24.8097C101.032 25.9673 103.009 25.9673 104.335 24.8097C104.92 24.0405 105.204 23.0842 105.133 22.1204V14.9382H108.254V22.5413C108.254 24.4835 107.746 25.952 106.729 26.9468C105.691 27.9252 103.783 28.4172 102.007 28.4172H102.018Z" fill="#2F326A"/>
</svg>
