<svg width="232" height="48" viewBox="0 0 232 48" fill="none" xmlns="http://www.w3.org/2000/svg">
<path fill-rule="evenodd" clip-rule="evenodd" d="M144.625 30.9035L147.454 32.7893C146.543 34.1409 144.342 36.4677 140.538 36.4677C135.824 36.4677 132.418 32.818 132.418 28.168C132.418 23.2276 135.856 19.8647 140.13 19.8647C144.439 19.8647 146.543 23.2921 147.235 25.1492L147.612 26.0921L136.512 30.6812C137.362 32.3483 138.681 33.198 140.538 33.198C142.392 33.198 143.682 32.2838 144.625 30.9035ZM135.917 27.917L143.338 24.8337C142.93 23.7976 141.703 23.0734 140.259 23.0734C138.401 23.0734 135.824 24.7083 135.917 27.917Z" fill="#63666A"/>
<path d="M126.638 35.9658H130.285V11.5649H126.638V35.9658Z" fill="#63666A"/>
<path fill-rule="evenodd" clip-rule="evenodd" d="M123.892 20.3702V35.2738C123.892 41.4045 120.278 43.9213 116.001 43.9213C111.975 43.9213 109.555 41.2181 108.644 39.0168L111.821 37.6938C112.387 39.0454 113.771 40.648 116.005 40.648C118.74 40.648 120.44 38.9522 120.44 35.7758V34.5819H120.314C119.497 35.5893 117.923 36.4677 115.944 36.4677C111.792 36.4677 107.988 32.8502 107.988 28.1967C107.988 23.5108 111.792 19.8647 115.944 19.8647C117.926 19.8647 119.497 20.743 120.314 21.7182H120.44V20.3666C120.436 20.3702 123.892 20.3702 123.892 20.3702ZM120.687 28.1967C120.687 25.2747 118.737 23.1344 116.252 23.1344C113.739 23.1344 111.631 25.2747 111.631 28.1967C111.631 31.0899 113.739 33.198 116.252 33.198C118.737 33.198 120.687 31.0899 120.687 28.1967Z" fill="#63666A"/>
<path fill-rule="evenodd" clip-rule="evenodd" d="M87.671 28.168C87.671 32.947 83.9961 36.4677 79.4896 36.4677C74.983 36.4677 71.3081 32.947 71.3081 28.168C71.3081 23.3566 74.983 19.8682 79.4896 19.8682C83.9997 19.8682 87.671 23.3566 87.671 28.168ZM84.0929 28.168C84.0929 25.1779 81.9633 23.1379 79.4931 23.1379C77.0229 23.1379 74.8933 25.1815 74.8933 28.168C74.8933 31.1222 77.0229 33.198 79.4931 33.198C81.9598 33.198 84.0929 31.1222 84.0929 28.168Z" fill="#63666A"/>
<path fill-rule="evenodd" clip-rule="evenodd" d="M106.013 28.168C106.013 32.947 102.338 36.4677 97.8314 36.4677C93.3248 36.4677 89.65 32.947 89.65 28.168C89.65 23.3566 93.3248 19.8682 97.8314 19.8682C102.338 19.8682 106.013 23.3566 106.013 28.168ZM102.431 28.168C102.431 25.1779 100.302 23.1379 97.8314 23.1379C95.3612 23.1379 93.2316 25.1815 93.2316 28.168C93.2316 31.1222 95.3612 33.198 97.8314 33.198C100.302 33.198 102.431 31.1222 102.431 28.168Z" fill="#63666A"/>
<path d="M57.2936 36.4677C50.1878 36.4677 44.2148 30.6812 44.2148 23.5753C44.2148 16.4695 50.1914 10.683 57.2972 10.683C61.2302 10.683 64.0266 12.2246 66.1347 14.2395L63.6502 16.724C62.1408 15.3079 60.0972 14.2072 57.2972 14.2072C52.1094 14.2072 48.051 18.3911 48.051 23.5789C48.051 28.7667 52.1094 32.947 57.2972 32.947C60.6601 32.947 62.5782 31.5954 63.8079 30.3693C64.8154 29.3654 65.475 27.917 65.726 25.938H57.2972V22.4173H69.1499C69.2789 23.0447 69.3399 23.8012 69.3399 24.6186C69.3399 27.2609 68.6157 30.5306 66.2925 32.8574C64.023 35.2129 61.1298 36.4677 57.2936 36.4677Z" fill="#63666A"/>
<path d="M156.226 35.7361V14.0752H159.009L166.542 27.2653H166.663L174.196 14.0752H176.979V35.7361H174.196V22.8787L174.317 19.2484H174.196L167.419 31.1377H165.785L159.009 19.2484H158.888L159.009 22.8787V35.7361H156.226Z" fill="#63666A"/>
<path fill-rule="evenodd" clip-rule="evenodd" d="M181.593 34.8587C182.651 35.7663 183.967 36.2201 185.541 36.2201C187.673 36.2201 189.307 35.373 190.411 33.6789H190.532V35.7361H193.194V26.7813C193.194 24.7695 192.574 23.1963 191.319 22.0921C190.063 20.9879 188.49 20.4282 186.599 20.4282C184.951 20.4282 183.62 20.8064 182.606 21.5627C181.593 22.319 180.927 23.1358 180.579 24.0283L183.12 25.1174C183.362 24.4518 183.816 23.9224 184.467 23.5442C185.117 23.1661 185.858 22.9694 186.66 22.9694C187.749 22.9694 188.672 23.3022 189.413 23.9527C190.154 24.6031 190.532 25.4804 190.532 26.5695V26.993C189.489 26.388 188.142 26.0855 186.509 26.0855C184.678 26.0855 183.135 26.5393 181.88 27.462C180.624 28.3847 180.004 29.6401 180.004 31.2587C180.004 32.7562 180.534 33.9511 181.593 34.8587ZM189.125 32.3931C188.188 33.2553 187.144 33.6789 185.994 33.6789C185.193 33.6789 184.467 33.4671 183.846 33.0436C183.226 32.62 182.909 32.0452 182.909 31.3192C182.909 30.5326 183.256 29.8519 183.937 29.262C184.618 28.6721 185.646 28.3847 186.993 28.3847C188.566 28.3847 189.746 28.7023 190.532 29.3528C190.532 30.5175 190.063 31.5309 189.125 32.3931Z" fill="#63666A"/>
<path fill-rule="evenodd" clip-rule="evenodd" d="M204.04 36.2201C202.905 36.2201 201.892 35.9781 201 35.494C200.107 35.01 199.426 34.4049 198.988 33.6789H198.867L198.988 35.7361V42.2706H196.205V20.9123H198.867V22.9694H198.988C199.426 22.2434 200.107 21.6383 201 21.1543C201.892 20.6702 202.905 20.4282 204.04 20.4282C205.961 20.4282 207.61 21.1845 209.001 22.6972C210.393 24.2098 211.089 26.0855 211.089 28.3242C211.089 30.5629 210.393 32.4385 209.001 33.9511C207.61 35.4638 205.961 36.2201 204.04 36.2201ZM203.586 33.6789C204.872 33.6789 205.991 33.1948 206.914 32.2116C207.837 31.2284 208.306 29.9427 208.306 28.3242C208.306 26.7056 207.837 25.4199 206.914 24.4367C205.991 23.4535 204.872 22.9694 203.586 22.9694C202.27 22.9694 201.166 23.4535 200.243 24.4216C199.321 25.3897 198.867 26.6905 198.867 28.3242C198.867 29.9578 199.321 31.2587 200.243 32.2268C201.166 33.1948 202.285 33.6789 203.586 33.6789Z" fill="#63666A"/>
<path d="M215.052 35.01C216.126 35.8117 217.502 36.2201 219.151 36.2201C220.86 36.2201 222.267 35.7663 223.356 34.889C224.445 33.9965 224.99 32.8923 224.99 31.5612C224.99 30.578 224.657 29.6855 223.992 28.899C223.326 28.1124 222.297 27.5527 220.906 27.2351L217.971 26.5393C216.655 26.2367 216.005 25.6619 216.005 24.8149C216.005 24.2249 216.292 23.7711 216.852 23.4232C217.412 23.0753 218.107 22.9089 218.939 22.9089C220.649 22.9089 221.783 23.5594 222.328 24.8754L224.748 23.877C224.309 22.7728 223.568 21.9106 222.539 21.3207C221.511 20.7307 220.346 20.4282 219.03 20.4282C217.442 20.4282 216.065 20.8366 214.901 21.6535C213.736 22.4703 213.161 23.5291 213.161 24.8451C213.161 25.9947 213.585 26.9023 214.432 27.583C215.279 28.2637 216.171 28.7174 217.124 28.9595L220.119 29.6855C221.465 30.0334 222.146 30.6839 222.146 31.652C222.146 32.2721 221.874 32.7864 221.314 33.1646C220.755 33.5427 220.044 33.7394 219.181 33.7394C217.291 33.7394 215.944 32.8167 215.158 30.9561L212.677 31.9847C213.176 33.1948 213.978 34.2083 215.052 35.01Z" fill="#63666A"/>
<path d="M14.6934 33.6388C15.9303 35.184 17.1851 37.12 17.8447 38.2924C18.6478 39.8161 18.9777 40.845 19.5764 42.6807C19.9277 43.6917 20.2576 44 20.9567 44C21.7203 44 22.0681 43.4837 22.337 42.6807C22.8927 40.949 23.3265 39.6332 24.0041 38.3748C25.3414 35.9656 27.0336 33.8216 28.6792 31.7637C29.1309 31.1865 32.017 27.7878 33.3149 25.0917C33.3149 25.0917 34.8995 22.1447 34.8995 18.0253C34.8995 14.1748 33.3328 11.4966 33.3328 11.4966L28.8011 12.712L26.0405 19.9613L25.3593 20.9508L25.2159 21.1372L25.0295 21.3631L24.7211 21.7324L24.2694 22.1841L21.8171 24.1811L15.7008 27.7232L14.6934 33.6388Z" fill="#34A853"/>
<path d="M8.36914 24.5969C9.87134 28.0172 12.7359 31.0037 14.6934 33.6388L25.0546 21.3631C25.0546 21.3631 23.5919 23.2776 20.9568 23.2776C18.0097 23.2776 15.622 20.9293 15.622 17.9643C15.622 15.9243 16.8374 14.5261 16.8374 14.5261L9.81039 16.4012L8.36914 24.5969Z" fill="#FBBC04"/>
<path d="M25.1767 4.63818C28.6149 5.74959 31.562 8.07638 33.333 11.5182L25.0512 21.3846C25.0512 21.3846 26.2666 19.9649 26.2666 17.9464C26.2666 14.9169 23.714 12.6332 20.9534 12.6332C18.3362 12.6332 16.834 14.5297 16.834 14.5297V8.30584L25.1767 4.63818Z" fill="#4285F4"/>
<path d="M10.2617 8.98342C12.3196 6.53115 15.9263 4 20.9097 4C23.319 4 25.151 4.63816 25.151 4.63816L16.8334 14.5261H10.9429L10.2617 8.98342Z" fill="#1A73E8"/>
<path d="M8.36855 24.5969C8.36855 24.5969 7.00977 21.8972 7.00977 18.0073C7.00977 14.3217 8.45101 11.1058 10.283 9.00488L16.8547 14.544L8.36855 24.5969Z" fill="#EA4335"/>
</svg>
