<svg width="280" height="48" viewBox="0 0 280 48" fill="none" xmlns="http://www.w3.org/2000/svg">
<path d="M77.6458 7.97461C81.7234 7.97461 84.9072 9.26109 87.1971 11.834C89.4869 14.407 90.6319 17.9589 90.6319 22.4898C90.6319 26.1017 89.9004 29.1049 88.4375 31.4993C87.0476 33.8322 84.84 35.565 82.2436 36.3608L89.0002 43.3454H84.2078L78.675 36.9779L77.606 37.0176C73.4224 37.0176 70.1961 35.7472 67.9271 33.2063C65.6582 30.6654 64.5223 27.08 64.5195 22.4501C64.5195 17.8578 65.6589 14.2982 67.9376 11.7713C70.2163 9.24435 73.4523 7.97879 77.6458 7.97461ZM272.95 9.53512L271.923 12.3905C269.577 11.4143 267.298 10.9262 265.086 10.9262C263.339 10.9262 261.974 11.2992 260.991 12.0453C260.007 12.7914 259.515 13.8269 259.514 15.1517C259.514 16.1279 259.695 16.9283 260.058 17.5531C260.42 18.1779 261.032 18.7503 261.892 19.2705C262.754 19.7907 264.071 20.3666 265.844 20.9984C268.822 22.0526 270.871 23.1843 271.989 24.3934C273.108 25.6025 273.667 27.1797 273.667 29.1251C273.667 31.6074 272.761 33.5431 270.948 34.932C269.135 36.321 266.675 37.0183 263.568 37.0239C260.203 37.0239 257.614 36.593 255.801 35.7311V32.5599C257.029 33.0683 258.304 33.4557 259.608 33.7167C260.949 33.9953 262.315 34.1355 263.685 34.1351C265.885 34.1351 267.542 33.7167 268.655 32.88C269.768 32.0432 270.326 30.8892 270.329 29.418C270.329 28.4418 270.131 27.6413 269.737 27.0166C269.342 26.3918 268.682 25.8158 267.758 25.2887C266.83 24.7616 265.423 24.1633 263.534 23.4939C260.893 22.5568 259.006 21.4411 257.874 20.147C256.741 18.8528 256.175 17.1745 256.175 15.1119C256.175 12.9392 256.997 11.2093 258.641 9.9221C260.286 8.63493 262.46 7.99227 265.164 7.99344C267.838 7.96412 270.489 8.48904 272.95 9.53512ZM104.748 8.42435V26.8325C104.748 29.1865 105.395 30.9931 106.689 32.2524C107.983 33.5117 109.886 34.1392 112.397 34.1351C114.79 34.1351 116.635 33.5019 117.93 32.2357C119.226 30.9694 119.873 29.1579 119.871 26.8011V8.42435H123.172V26.6756C123.172 29.89 122.196 32.4177 120.244 34.2585C118.291 36.0993 115.603 37.019 112.178 37.0176C108.76 37.0176 106.116 36.0909 104.246 34.2376C102.375 32.3842 101.442 29.8356 101.447 26.5919V8.42435H104.748ZM226.936 8.42435V26.8325C226.936 29.1865 227.583 30.9931 228.877 32.2524C230.171 33.5117 232.074 34.1392 234.585 34.1351C236.98 34.1351 238.825 33.5019 240.12 32.2357C241.416 30.9694 242.063 29.1523 242.062 26.7844V8.42435H245.363V26.6756C245.363 29.89 244.386 32.4177 242.434 34.2585C240.482 36.0993 237.796 37.019 234.376 37.0176C230.96 37.0176 228.316 36.0909 226.444 34.2376C224.573 32.3842 223.636 29.8356 223.635 26.5919V8.42435H226.936ZM145.555 8.3093L156.719 36.6327H153.303L149.768 27.6587H138.39L134.895 36.6327H131.548L142.779 8.3093H145.555ZM173.182 8.42435C176.668 8.42435 179.24 9.08677 180.899 10.4116C182.557 11.7364 183.389 13.7299 183.394 16.3921C183.394 20.1212 181.491 22.6425 177.686 23.9562L185.392 36.6327H181.491L174.617 24.9038L168.697 24.9017V36.6327H165.394V8.42435H173.182ZM214.826 8.42017L203.409 20.6762L215.253 36.6327H211.368L201.02 22.9521L198.049 25.5753V36.6327H194.749V8.42435H198.049V22.4082L210.923 8.42017H214.826ZM77.6458 10.9136C74.4997 10.9136 72.108 11.901 70.4708 13.8757C68.8336 15.8504 68.015 18.7217 68.015 22.4898H68.0108C68.0108 26.3095 68.8294 29.2067 70.4666 31.1814C72.1038 33.1561 74.4822 34.1427 77.6018 34.1413C80.748 34.1413 83.1236 33.1575 84.7287 31.1898C86.3338 29.222 87.1364 26.3221 87.1364 22.4898C87.1364 18.6952 86.3366 15.8176 84.7371 13.8568C83.1375 11.8961 80.7738 10.915 77.6458 10.9136ZM144.116 11.8968C143.788 13.2766 143.38 14.6358 142.892 15.9675L139.545 24.7072L148.739 24.7093L145.438 15.9675C145.01 14.863 144.569 13.5061 144.116 11.8968ZM172.987 11.2985H168.697V22.084H173.219C175.55 22.084 177.259 21.6238 178.347 20.7034C179.434 19.783 179.977 18.4038 179.976 16.5658C179.976 14.7012 179.423 13.3576 178.317 12.5348C177.211 11.712 175.435 11.2999 172.987 11.2985Z" fill="#091313"/>
<path d="M39.6967 4C43.3554 4.01264 46.3175 6.97664 46.3279 10.6353V37.3647C46.3175 41.025 43.3528 43.9897 39.6926 44H35.7181L33.8961 39.5758H39.6967C40.9113 39.56 41.892 38.5793 41.9078 37.3647V10.6353C41.892 9.42075 40.9113 8.44 39.6967 8.42422H12.9673C11.7528 8.44 10.772 9.42075 10.7563 10.6353V37.3647C10.772 38.5793 11.7528 39.56 12.9673 39.5758H22.7487L26.332 31.9992L31.2729 44H12.9673C9.30704 43.9897 6.34237 41.025 6.33203 37.3647V10.6353C6.34237 6.97501 9.30704 4.01034 12.9673 4H39.6967ZM32.8251 25.8304V32.9405L26.6667 29.3865L32.8251 25.8304ZM19.839 18.7202V25.8304L13.6806 22.2742L19.839 18.7202ZM32.4904 11.0286V18.1387L26.332 14.5826L32.4904 11.0286Z" fill="#4695EB"/>
<path d="M19.8398 25.8301L25.9982 29.3862L19.8398 32.9403V25.8301ZM32.8259 18.72L38.9843 22.274L32.8259 25.8301V18.72ZM20.1745 11.0283L26.3329 14.5823L20.1745 18.1385V11.0283Z" fill="#FF004A"/>
<path d="M19.8398 18.7202L25.9982 22.2742V29.3864L19.8398 25.8303V18.7202ZM32.8259 18.7202V25.8303L26.6676 29.3864V22.2742L32.8259 18.7202ZM26.3329 14.5825L32.4912 18.1386L26.3329 21.6947L20.1745 18.1386L26.3329 14.5825Z" fill="#091313"/>
</svg>
