<svg width="184" height="48" viewBox="0 0 184 48" fill="none" xmlns="http://www.w3.org/2000/svg">
<path fill-rule="evenodd" clip-rule="evenodd" d="M38.2278 44L32.8909 35.6853H19.373L28.6107 14.9771L43.2103 43.9722H51.9776C56.1577 43.9722 60.4723 43.7774 64.4668 40.9749C68.4613 38.1724 72.0727 33.4821 73.2768 28.5896C74.48 23.6971 73.2741 18.6005 71.0273 14.606C68.7804 10.6105 65.4909 7.71715 62.1421 6.05199C58.7932 4.38683 55.4453 4.58906 52.1678 4.58906H37.2732L41.8587 13.2034H54.0064C55.7356 13.2034 57.4648 13.6347 59.0038 14.4232C60.5428 15.2127 61.8916 16.3723 62.9389 17.7758C63.9863 19.1794 64.7321 20.8278 64.8935 23.2138C65.0549 25.5998 64.6338 28.7251 62.8155 31.099C60.9964 33.4729 57.7932 35.3857 54.5445 35.3857H48.7484L32.634 4.73749H24.1542L5.40234 44H38.2278ZM76.3725 17.774C75.7723 19.7195 75.4659 21.7437 75.4633 23.7797C75.4615 25.8113 75.7658 27.8456 76.3827 29.7947C77.0044 31.7615 77.9347 33.6171 79.1388 35.292C80.355 36.9783 81.8343 38.4582 83.5201 39.6752C85.1939 40.8805 87.049 41.8115 89.0156 42.4332C90.9656 43.051 92.9981 43.3553 95.0315 43.3553C97.065 43.3553 99.0975 43.051 101.047 42.4332C103.013 41.8113 104.868 40.8803 106.542 39.6752C108.222 38.4646 109.713 36.9729 110.923 35.2929C112.134 33.6129 113.063 31.7455 113.679 29.7947C114.297 27.8447 114.602 25.8113 114.602 23.7778C114.602 21.7444 114.297 19.7109 113.679 17.761C113.063 15.8101 112.134 13.9436 110.923 12.2636C109.713 10.5836 108.222 9.09195 106.542 7.88042C104.867 6.67617 103.013 5.7447 101.047 5.12061C99.1006 4.50733 97.0718 4.19726 95.0315 4.2013H69.8111L74.6535 12.6774H95.1308C96.2718 12.6774 97.4156 12.8462 98.5121 13.1941C100.179 13.7205 101.694 14.6408 102.929 15.8771C104.165 17.1134 105.084 18.6293 105.609 20.2963C105.957 21.3919 106.127 22.5348 106.127 23.6776C106.127 24.8205 105.957 25.9625 105.609 27.059C104.903 29.2918 103.498 31.2381 101.599 32.6092C100.659 33.2858 99.6167 33.809 98.5121 34.1593C97.4181 34.5039 96.2777 34.6785 95.1308 34.677C93.9847 34.6783 92.8453 34.5038 91.7522 34.1593C89.5192 33.4533 87.5733 32.0463 86.2029 30.1472C85.5262 29.2065 85.0035 28.164 84.6546 27.059C84.3077 25.9625 84.137 24.8205 84.137 23.6776C84.137 22.5348 84.3096 21.3919 84.624 20.3965C84.9129 19.4577 85.3779 18.5824 85.9942 17.8176L76.3725 17.774ZM128.835 12.939C130.226 13.6394 130.92 14.7934 130.954 16.0253C130.967 16.6804 130.809 17.3275 130.495 17.9025C130.181 18.4775 129.722 18.9605 129.164 19.3037C127.965 20.0384 126.256 19.7425 124.689 19.7425H117.021L120.855 27.4115H128.119C129.879 27.4115 131.806 27.1879 133.059 27.8698C134.315 28.5525 134.85 29.7269 134.886 30.9069C134.92 32.0869 134.456 33.2762 132.962 34.0016C131.467 34.728 128.979 34.5879 126.711 34.5879H114.418L111.318 43.5844H127.983C132.011 43.5844 136.271 42.9814 139.26 40.7003C142.25 38.4201 143.94 34.9219 144.112 31.8105C144.283 28.6991 142.935 25.9773 141.406 24.1795C139.876 22.3826 138.161 21.5125 136.359 21.3687C137.507 20.6841 138.35 19.5477 138.767 17.7721C139.182 15.9966 139.174 13.5828 138.246 11.2729C137.318 8.96301 135.474 6.75702 132.993 5.43695C130.511 4.11595 127.439 4.20223 124.487 4.20223H108.369L113.617 12.3174L123.477 12.3416C125.39 12.3471 127.445 12.2395 128.835 12.939ZM136.794 4L141.839 12.4761H163.528L159.335 4H136.794ZM144.663 18.9345L149.706 27.4106H170.912L166.721 18.9345H144.663ZM147.084 34.4757L142.039 42.9527H178.597L174.403 34.4757H147.084Z" fill="#FA0F00"/>
</svg>
