<svg width="160" height="56" viewBox="0 0 160 56" fill="none" xmlns="http://www.w3.org/2000/svg">
<path d="M27.4822 4.47961C24.3303 4.47961 21.336 5.10999 18.5781 6.21315L19.8389 6.92232C20.7844 7.63149 21.8088 8.41946 22.5968 9.36503C23.9363 10.941 24.1727 13.0685 24.8031 15.0384C25.2759 16.6931 25.7487 18.0327 27.4034 18.8207C28.2702 19.2147 29.2157 19.5298 29.9249 20.1602C30.0825 20.3178 30.3189 20.4754 30.3977 20.7906C30.4765 21.1058 30.3977 21.4998 30.1613 21.815C30.0037 22.0513 29.6885 22.2877 29.4521 22.6029C28.5853 23.7061 29.2945 24.2577 29.9249 25.1244C30.5553 25.9912 30.3189 26.3064 29.7673 27.0944C29.6097 27.3307 29.4521 27.5671 29.5309 27.8823C29.6097 28.5915 30.7129 28.3551 31.1068 28.9855C31.3432 29.3795 31.1856 29.931 31.0281 30.4038C31.0281 30.5614 30.9493 30.6402 30.9493 30.7978C30.9493 31.0342 31.1068 31.1918 31.2644 31.3494C31.7372 31.9798 32.0524 33.1617 32.1312 34.0285C32.21 34.6589 32.0524 35.2892 31.5796 35.6832C31.3432 35.9196 30.9493 36.0772 30.6341 36.156C29.2157 36.6288 27.6398 36.6288 26.2214 37.1804C22.2028 38.6775 20.7056 43.1689 20.7056 47.03C20.7056 48.2119 20.7056 49.4727 21.1784 50.6546C23.1484 51.2062 25.2759 51.5214 27.4822 51.5214C40.5625 51.5214 51.0425 40.9626 51.0425 27.9611C51.1213 15.0384 40.4837 4.47961 27.4822 4.47961V4.47961Z" fill="#6E6259"/>
<path d="M26.2227 37.3378C27.6411 36.7862 29.217 36.865 30.6354 36.3135C30.9506 36.2347 31.2657 36.0771 31.5809 35.8407C32.0537 35.4467 32.1325 34.8163 32.1325 34.1859C32.0537 33.398 31.7385 32.216 31.2657 31.5068C31.1869 31.3493 31.0293 31.1917 30.9506 30.9553C30.9506 30.7977 30.9506 30.6401 31.0293 30.5613C31.1869 30.0885 31.4233 29.5369 31.1081 29.1429C30.7142 28.5914 29.611 28.8277 29.5322 28.0398C29.5322 27.8034 29.611 27.4882 29.7686 27.2518C30.3202 26.5426 30.5566 26.1486 29.9262 25.2819C29.2958 24.4151 28.5078 23.8635 29.4534 22.7604C29.6898 22.524 29.9262 22.2876 30.1626 21.9724C30.3202 21.736 30.4778 21.342 30.399 20.948C30.3202 20.7117 30.1626 20.4753 29.9262 20.3177C29.217 19.6873 28.2715 19.3721 27.4047 18.9781C25.7499 18.1902 25.2772 16.8506 24.8044 15.1959C24.2528 13.2259 23.9376 11.1772 22.5981 9.52249C21.8101 8.57692 20.7857 7.78895 19.8402 7.07978L18.5794 6.37061C18.5794 6.37061 19.919 7.23737 20.313 8.73452C20.6281 10.2317 20.5493 12.2016 20.6281 14.7231C20.7069 17.7962 25.4348 21.342 25.5136 23.1544C25.5924 25.5183 22.5981 24.4939 22.5981 26.7002C22.5981 27.3306 22.8345 28.2762 22.8345 28.9065C22.8345 29.6157 22.3617 30.6401 21.6525 30.4037C22.2041 30.5613 22.6769 31.2705 22.5981 31.822C22.5193 32.4524 21.8101 32.8464 21.5737 33.398C21.1797 34.1859 21.8889 35.1315 22.1253 35.9195C22.6769 37.8894 22.0465 39.7017 19.9978 40.4109C18.1854 41.0413 16.5307 40.8837 15.5063 43.0112C14.6396 44.6659 15.4275 47.5026 15.6639 48.6058C17.3187 49.5514 19.2098 50.3393 21.1797 50.8909C20.7857 49.7877 20.7069 48.527 20.7069 47.2662C20.7857 43.2476 22.2041 38.835 26.2227 37.3378Z" fill="white"/>
<path d="M43.0833 34.5799C42.5317 34.5799 42.4529 34.2647 42.2165 28.8277C42.2165 28.1185 42.2165 27.4882 42.1377 26.8578C42.0589 24.9667 41.9014 21.4208 41.665 20.0812C41.4286 21.342 41.271 24.3363 41.1922 25.9122C41.1922 26.4638 41.1922 27.0154 41.1134 27.6458C40.9558 32.1372 40.7982 32.6888 40.2466 32.6888C39.695 32.6888 39.5374 31.9796 39.3798 28.7489C39.3798 28.2761 39.3798 27.8034 39.301 27.4094C39.1435 25.0455 38.9859 23.5483 38.8283 22.8391C38.7495 23.3119 38.5919 24.4151 38.3555 26.6214C38.3555 26.8578 38.3555 27.173 38.2767 27.4882C38.0403 30.4824 37.9615 31.1128 37.4099 31.1128C36.8583 31.1128 36.7007 30.3249 36.5432 28.3549C36.5432 28.1185 36.5432 27.8821 36.4644 27.7246C36.3068 25.991 36.1492 25.2031 35.9916 24.8879C35.9128 25.2031 35.6764 25.8334 35.5188 27.0942C35.2036 29.4581 35.046 29.8521 34.652 29.9309C34.1004 29.9309 33.9429 29.2217 33.7065 28.3549C33.6277 27.9609 33.3913 27.0942 33.2337 27.0942C33.1549 27.0942 32.9185 27.4094 32.7609 27.7246C32.6821 27.8821 32.4457 27.9609 32.2881 27.8821C32.1305 27.8034 32.0517 27.567 32.1305 27.4094C32.2093 27.173 32.6821 26.3062 33.3125 26.3062C34.1004 26.3062 34.3368 27.2518 34.5732 28.1185C34.5732 28.1973 34.652 28.3549 34.652 28.5913C34.7308 28.0397 34.8096 27.3306 34.8884 26.9366C35.2824 23.7847 35.834 23.7847 36.1492 23.7847C36.7007 23.7847 37.0159 24.3363 37.4099 27.567C37.4099 27.7246 37.4099 27.9609 37.4887 28.2761C37.4887 28.5125 37.4887 28.7489 37.5675 29.0641C37.5675 28.5125 37.6463 27.8821 37.6463 27.4882C37.6463 27.173 37.6463 26.9366 37.7251 26.6214C38.0403 22.4452 38.3555 21.8148 38.9859 21.8148C39.6162 21.8148 39.8526 22.2876 40.2466 27.4882C40.2466 27.8821 40.2466 28.3549 40.3254 28.8277C40.3254 29.1429 40.3254 29.6157 40.4042 30.0097C40.4042 29.3005 40.483 28.4337 40.483 27.7246C40.483 27.173 40.483 26.5426 40.5618 25.991C40.877 19.5297 41.1134 18.8993 41.8226 18.8993C42.5317 18.8993 42.6893 19.6085 43.0833 27.0154C43.0833 27.6458 43.0833 28.2761 43.1621 28.9853C43.1621 29.7733 43.2409 30.64 43.2409 31.428C43.2409 30.8764 43.2409 30.2461 43.3197 29.7733C43.3197 29.1429 43.3197 28.5913 43.3985 28.0397C43.5561 25.3606 43.6349 23.6271 43.7925 22.524C43.8713 21.6572 44.0289 20.948 44.5804 20.948C45.132 20.948 45.4472 21.4208 45.8412 26.385C45.8412 26.6214 45.8412 26.9366 45.92 27.2518C45.92 27.9609 45.9988 28.9065 46.0776 29.6157C46.0776 29.5369 46.0776 29.3793 46.0776 29.3005C46.0776 29.1429 46.0776 28.9065 46.1564 28.7489C46.3928 26.9366 46.5504 25.8334 47.4171 25.8334C48.0475 25.8334 48.3627 26.385 48.5991 26.7002C48.5991 26.779 48.7567 27.0154 48.8355 27.0154C49.0719 27.0154 49.2295 27.173 49.2295 27.4094C49.2295 27.6458 49.0719 27.8034 48.8355 27.8034C48.3627 27.8034 48.1263 27.4094 47.8899 27.0942C47.7323 26.779 47.5747 26.6214 47.4171 26.6214C47.2595 26.779 47.0232 28.0397 46.9444 28.9065C46.9444 29.0641 46.9444 29.2217 46.8656 29.4581C46.708 30.7188 46.6292 31.5856 45.9988 31.5856C45.4472 31.5856 45.3684 31.1128 45.0532 27.3306C45.0532 27.0154 45.0532 26.779 44.9744 26.4638C44.8168 24.0999 44.6592 22.8391 44.5016 22.2876C44.3441 23.1543 44.1865 25.1243 44.0289 28.1185C44.0289 28.6701 44.0289 29.2217 43.9501 29.8521C43.7925 34.1071 43.7137 34.5799 43.0833 34.5799Z" fill="white"/>
<path d="M20.705 14.5657C20.6262 12.123 20.705 10.1531 20.3898 8.57717C20.0746 7.08002 18.735 6.21326 18.6562 6.21326C10.6977 9.44393 4.86677 16.9296 4 25.7549C4.63038 25.7549 4.86677 26.6217 5.10316 27.3308C5.10316 27.4096 5.18195 27.4884 5.18195 27.5672C5.18195 27.7248 5.26075 27.8824 5.26075 28.04C5.26075 28.1188 5.33955 28.2764 5.33955 28.434C5.41835 28.1976 5.49714 27.9612 5.49714 27.7248C5.49714 27.646 5.57594 27.4884 5.57594 27.4096C6.04872 26.5429 6.28511 25.5185 7.07308 25.5185C7.23068 25.5185 7.70346 25.5185 8.17624 27.646V27.8824C8.17624 28.1188 8.33383 28.5916 8.41263 28.9856C8.57023 28.3552 8.64902 27.3308 8.72782 26.9369C8.96421 24.7305 9.1218 23.5486 9.98857 23.5486C10.6977 23.5486 11.0129 24.4942 11.2493 27.4096V27.9612C11.2493 28.5128 11.3281 30.1675 11.5645 30.9555C11.6433 30.5615 11.8009 29.6948 11.9585 28.04C11.9585 27.9612 11.9585 27.8036 11.9585 27.7248C11.9585 27.4884 12.1161 27.3308 12.3525 27.4096C12.5889 27.4884 12.7465 27.5672 12.6677 27.8036V28.1188C12.4313 31.1131 12.1161 32.1375 11.4857 32.1375C10.8553 32.1375 10.6977 31.3495 10.4614 28.1188C10.4614 27.8824 10.4614 27.7248 10.4614 27.5672C10.3038 25.5185 10.1462 24.8093 9.98857 24.573C9.83098 24.9669 9.67338 26.2277 9.51579 27.1733C9.2006 29.7736 9.04301 30.3251 8.49143 30.3251C7.86105 30.3251 7.62466 29.4584 7.38827 28.1976V28.04C7.23068 27.1733 7.07308 26.7793 6.99429 26.5429C6.83669 26.8581 6.6003 27.5672 6.5215 27.8036C6.5215 27.8824 6.5215 27.9612 6.44271 28.1188C6.28511 28.9068 6.04872 29.616 5.49714 29.616C4.86677 29.616 4.70917 28.9856 4.63038 28.434C4.63038 28.2764 4.55158 28.1188 4.55158 28.04C4.55158 27.9612 4.47278 27.8824 4.47278 27.7248C4.39398 27.4884 4.23639 26.8581 4.0788 26.7005V28.1188C3.9212 36.7865 8.64902 44.351 15.7408 48.4484C15.4256 47.4241 14.6376 44.5874 15.5832 42.8539C16.6863 40.7263 18.3411 40.8839 20.0746 40.2536C22.1233 39.5444 22.7537 37.7321 22.2021 35.7621C21.9657 34.9742 21.2565 34.1074 21.6505 33.2406C21.8869 32.689 22.5961 32.3739 22.6749 31.6647C22.7537 31.1131 22.3597 30.4039 21.7293 30.2463C22.3597 30.4039 22.9113 29.4584 22.9113 28.7492C22.9113 28.1188 22.6749 27.1733 22.6749 26.5429C22.6749 24.4154 25.6692 25.3609 25.5904 22.997C25.4328 21.1059 20.7838 17.6388 20.705 14.5657Z" fill="#6E6259"/>
<path d="M4.474 27.9612C4.474 28.04 4.5528 28.1975 4.5528 28.3551C4.71039 28.9855 4.86799 29.6159 5.49836 29.6159C6.04994 29.6159 6.20753 28.9067 6.44392 28.1187C6.44392 28.04 6.44392 27.9612 6.52272 27.8036C6.60152 27.5672 6.75911 26.858 6.9955 26.5428C7.0743 26.7792 7.23189 27.1732 7.38949 27.8824V28.04C7.62588 29.3007 7.86227 30.1675 8.49265 30.1675C8.96543 30.1675 9.12302 29.6159 9.51701 27.0156C9.5958 26.07 9.8322 24.8093 9.98979 24.4153C10.0686 24.6517 10.305 25.3609 10.4626 27.4096V27.9612C10.8566 31.3494 11.0142 32.0586 11.6445 32.0586C12.3537 32.0586 12.5901 31.113 12.8265 28.04C12.8265 27.9612 12.8265 27.8036 12.8265 27.7248C12.8265 27.4884 12.6689 27.3308 12.5113 27.3308C12.2749 27.3308 12.1173 27.4884 12.1173 27.646V27.9612C12.0385 29.6159 11.8809 30.4827 11.7233 30.8766C11.5657 30.0887 11.4869 28.5127 11.4081 27.8824C11.4081 27.646 11.4081 27.4884 11.4081 27.3308C11.1717 24.4941 10.8566 23.4697 10.1474 23.4697C9.28062 23.4697 9.12302 24.6517 8.88663 26.858C8.88663 27.252 8.72904 28.2763 8.57144 28.9067C8.49265 28.5127 8.33505 28.04 8.33505 27.8036V27.5672C7.94107 25.4397 7.38949 25.4397 7.23189 25.4397C6.52272 25.4397 6.20753 26.464 5.97114 27.4096C5.97114 27.4884 5.97114 27.5672 5.89235 27.7248C5.89235 27.8824 5.81355 28.1975 5.73475 28.4339C5.73475 28.3551 5.65596 28.1975 5.65596 28.04C5.65596 27.8824 5.57716 27.7248 5.57716 27.5672C5.57716 27.4884 5.49836 27.4096 5.49836 27.3308C5.34077 26.6216 5.02558 25.7548 4.3952 25.7548C4.3952 25.9912 4.3952 26.3064 4.31641 26.5428C4.474 26.6216 4.63159 27.252 4.71039 27.5672C4.3952 27.7248 4.474 27.8824 4.474 27.9612Z" fill="white"/>
<path d="M58.4501 29.2217H57.5834L59.8685 23.1543H60.8928L63.178 29.2217H62.3112L61.6808 27.567H59.0805L58.4501 29.2217ZM61.5232 26.8578L60.4989 24.0211L59.4745 26.8578H61.5232Z" fill="#6E6259"/>
<path d="M64.5963 25.5182C64.8327 25.2031 65.2267 25.0455 65.6207 25.0455C66.0935 25.0455 66.4874 25.2031 66.8026 25.6758C67.1178 25.2819 67.5118 25.0455 68.0634 25.0455C68.6937 25.0455 69.2453 25.3607 69.4817 25.8334C69.6393 26.0698 69.7181 26.4638 69.7181 27.0154V29.1429H68.9301V27.0154C68.9301 26.5426 68.9301 26.3062 68.7725 26.0698C68.6938 25.8334 68.3786 25.6758 68.0634 25.6758C67.7482 25.6758 67.433 25.8334 67.2754 26.0698C67.1966 26.3062 67.1178 26.5426 67.1178 27.0154V28.9853H66.3298V26.8578C66.3298 26.385 66.3298 26.1486 66.1722 25.9122C66.0934 25.6758 65.7783 25.5182 65.4631 25.5182C65.1479 25.5182 64.8327 25.6758 64.6751 25.9122C64.5963 26.1486 64.5175 26.385 64.5175 26.8578V28.8277H63.7295V24.8879H64.5175L64.5963 25.5182Z" fill="#6E6259"/>
<path d="M71.3728 27.4882C71.4516 28.1973 71.9244 28.5913 72.6336 28.5913C73.1064 28.5913 73.5004 28.3549 73.7368 28.0398C73.7368 27.961 73.7368 27.961 73.8155 27.961L74.4459 28.1973C74.0519 28.9065 73.4216 29.3005 72.6336 29.3005C71.5304 29.3005 70.5849 28.4337 70.5849 27.173C70.5849 25.991 71.4516 25.0455 72.5548 25.0455C73.658 25.0455 74.5247 25.991 74.5247 27.2518V27.4882H71.3728ZM73.7368 26.8578C73.658 26.1486 73.1852 25.7546 72.5548 25.7546C71.9244 25.7546 71.5304 26.1486 71.3728 26.8578H73.7368Z" fill="#6E6259"/>
<path d="M76.1795 25.2031V25.597C76.5734 25.2819 76.731 25.2031 77.125 25.2031H77.3614V25.9122C77.2826 25.9122 77.2038 25.9122 77.125 25.9122C76.731 25.9122 76.4947 26.0698 76.3371 26.3062C76.2583 26.5426 76.1795 26.779 76.1795 27.2518V29.2217H75.3915V25.2031H76.1795Z" fill="#6E6259"/>
<path d="M78.9374 23.8635C78.9374 24.0999 78.701 24.3363 78.4646 24.3363C78.2282 24.3363 77.9918 24.0999 77.9918 23.8635C77.9918 23.6271 78.2282 23.3907 78.4646 23.3907C78.701 23.3907 78.9374 23.5483 78.9374 23.8635ZM78.7798 29.2217H77.9918V25.2031H78.7798V29.2217Z" fill="#6E6259"/>
<path d="M82.7984 26.3062C82.4832 25.9122 82.168 25.7546 81.774 25.7546C80.9861 25.7546 80.4345 26.3062 80.4345 27.173C80.4345 28.0398 80.9861 28.5913 81.774 28.5913C82.168 28.5913 82.4832 28.4337 82.8772 28.0398L83.35 28.5125C82.8772 29.0641 82.4044 29.2217 81.774 29.2217C80.5921 29.2217 79.6465 28.2761 79.6465 27.0942C79.6465 25.9122 80.5133 24.9667 81.774 24.9667C82.4044 24.9667 82.8772 25.2031 83.35 25.6758L82.7984 26.3062Z" fill="#6E6259"/>
<path d="M87.0534 28.8277C86.5807 29.2217 86.1867 29.3793 85.7927 29.3793C84.6895 29.3793 83.744 28.4337 83.744 27.2518C83.744 26.0698 84.6107 25.1243 85.7927 25.1243C86.2655 25.1243 86.5807 25.2819 87.0534 25.6758V25.2819H87.8414V29.3005H87.0534V28.8277ZM84.4531 27.173C84.4531 27.961 85.0047 28.5913 85.7139 28.5913C86.4231 28.5913 86.9746 28.0398 86.9746 27.173C86.9746 26.385 86.5019 25.7546 85.7139 25.7546C84.9259 25.7546 84.4531 26.3062 84.4531 27.173Z" fill="#6E6259"/>
<path d="M89.6537 25.2031V25.597C89.8901 25.2819 90.2841 25.1243 90.7569 25.1243C91.3085 25.1243 91.8601 25.4395 92.1753 25.9122C92.3328 26.1486 92.4116 26.5426 92.4116 27.0942V29.2217H91.6237V27.0942C91.6237 26.6214 91.6237 26.385 91.4661 26.2274C91.3873 25.991 91.0721 25.8334 90.6781 25.8334C90.2841 25.8334 89.9689 25.991 89.8113 26.2274C89.7325 26.4638 89.6537 26.7002 89.6537 27.173V29.2217H88.8658V25.2031H89.6537Z" fill="#6E6259"/>
<path d="M61.5232 18.0325L60.7353 20.3177H57.8986L61.996 9.20728H65.0691L69.2453 20.3964H66.3298L65.5419 18.1113H61.5232V18.0325ZM63.4931 12.2016L62.39 15.5898H64.6751L63.4931 12.2016Z" fill="#6E6259"/>
<path d="M74.9187 12.6743C74.2883 11.7288 74.0519 11.4924 73.5004 11.4924C72.87 11.4924 72.3972 11.8864 72.3972 12.438C72.3972 12.7531 72.7124 12.9895 73.4216 13.3047L74.4459 13.6987C76.4159 14.4079 77.3614 15.4322 77.3614 17.0082C77.3614 19.1357 75.6279 20.7904 73.3428 20.7904C71.8456 20.7904 70.5061 20.0813 69.7969 18.8205C69.5605 18.4265 69.4817 18.0325 69.2453 17.2446L71.9244 16.5354C72.0032 17.087 72.1608 17.3234 72.2396 17.5598C72.3972 17.9537 72.7912 18.1901 73.264 18.1901C73.9731 18.1901 74.5247 17.6386 74.5247 17.0082C74.5247 16.6142 74.2095 16.299 73.264 15.9838L72.3184 15.6686C70.5849 15.0383 69.7181 13.9351 69.7181 12.5167C69.7181 10.5468 71.3728 9.04968 73.5792 9.04968C75.1551 9.04968 76.2583 9.68006 77.2826 11.3348L74.9187 12.6743Z" fill="#6E6259"/>
<path d="M84.5319 9.28607H87.2898V20.4752H84.5319V16.0626H81.0649V20.4752H78.307V9.28607H81.0649V13.5411H84.5319V9.28607Z" fill="#6E6259"/>
<path d="M91.7025 18.0325L90.9145 20.3177H88.0778L92.254 9.20728H95.3271L99.5034 20.3964H96.5879L95.7999 18.1113H91.7025V18.0325ZM93.7512 12.2016L92.648 15.5898H94.9331L93.7512 12.2016Z" fill="#6E6259"/>
<path d="M60.6565 33.398C60.3413 32.9252 60.0261 32.6888 59.5533 32.6888C59.0017 32.6888 58.5289 33.0828 58.5289 33.6343C58.5289 33.9495 58.7653 34.2647 59.3169 34.5011L59.8685 34.7375C60.8141 35.1315 61.2868 35.6043 61.2868 36.3922C61.2868 37.4166 60.4201 38.2834 59.3169 38.2834C58.2925 38.2834 57.6622 37.7318 57.4258 36.6286L58.2138 36.471C58.2925 36.7862 58.2925 36.865 58.3713 37.0226C58.5289 37.3378 58.9229 37.5742 59.3169 37.5742C59.9473 37.5742 60.4201 37.1014 60.4201 36.471C60.4201 36.077 60.1837 35.7619 59.4745 35.5255L59.0805 35.2103C58.2137 34.8951 57.8198 34.4223 57.8198 33.7131C57.8198 32.7676 58.6077 32.0584 59.6321 32.0584C60.3413 32.0584 60.8928 32.3736 61.2868 33.0828L60.6565 33.398Z" fill="#6E6259"/>
<path d="M63.178 34.5011C63.6507 34.1071 64.0447 33.9495 64.4387 33.9495C65.5419 33.9495 66.4874 34.8951 66.4874 36.077C66.4874 37.259 65.6207 38.2046 64.4387 38.2046C63.9659 38.2046 63.6507 38.047 63.178 37.653V40.1745H62.39V34.0283H63.178V34.5011ZM63.178 36.1558C63.178 36.9438 63.6507 37.5742 64.4387 37.5742C65.2267 37.5742 65.7783 37.0226 65.7783 36.1558C65.7783 35.3679 65.2267 34.7375 64.5175 34.7375C63.6507 34.7375 63.178 35.2891 63.178 36.1558Z" fill="#6E6259"/>
<path d="M67.827 36.471C67.9058 37.1802 68.3786 37.5742 69.0877 37.5742C69.5605 37.5742 69.9545 37.3378 70.1909 37.0226C70.1909 36.9438 70.1909 36.9438 70.2697 36.9438L70.9001 37.1802C70.5061 37.8894 69.8757 38.2834 69.0877 38.2834C67.9846 38.2834 67.039 37.4166 67.039 36.1558C67.039 34.9739 67.9058 34.0283 69.0089 34.0283C70.1121 34.0283 70.9789 34.9739 70.9789 36.2346V36.471H67.827ZM70.1909 35.8407C70.1121 35.1315 69.6393 34.7375 69.0089 34.7375C68.3786 34.7375 67.9846 35.1315 67.827 35.8407H70.1909Z" fill="#6E6259"/>
<path d="M72.3184 36.471C72.3972 37.1802 72.87 37.5742 73.5792 37.5742C74.0519 37.5742 74.4459 37.3378 74.6823 37.0226C74.6823 36.9438 74.6823 36.9438 74.7611 36.9438L75.3915 37.1802C74.9975 37.8894 74.3671 38.2834 73.5792 38.2834C72.476 38.2834 71.5304 37.4166 71.5304 36.1558C71.5304 34.9739 72.3972 34.0283 73.5004 34.0283C74.6035 34.0283 75.4703 34.9739 75.4703 36.2346V36.471H72.3184ZM74.6823 35.8407C74.6035 35.1315 74.1307 34.7375 73.5004 34.7375C72.87 34.7375 72.476 35.1315 72.3184 35.8407H74.6823Z" fill="#6E6259"/>
<path d="M79.2525 35.2103C78.9374 34.8163 78.6222 34.6587 78.2282 34.6587C77.4402 34.6587 76.8886 35.2103 76.8886 36.077C76.8886 36.9438 77.4402 37.4954 78.2282 37.4954C78.6222 37.4954 78.9374 37.3378 79.3313 36.9438L79.8041 37.4166C79.3313 37.9682 78.8586 38.1258 78.2282 38.1258C77.0462 38.1258 76.1007 37.1802 76.1007 35.9983C76.1007 34.8163 76.9674 33.8707 78.2282 33.8707C78.8586 33.8707 79.3313 34.1071 79.8041 34.5799L79.2525 35.2103Z" fill="#6E6259"/>
<path d="M81.2225 32.0584V34.4223C81.4589 34.1071 81.8528 33.9495 82.3256 33.9495C82.8772 33.9495 83.4288 34.2647 83.744 34.7375C83.9016 34.9739 83.9804 35.3679 83.9804 35.9195V38.047H83.1924V35.9983C83.1924 35.5255 83.1924 35.2891 83.0348 35.1315C82.956 34.8951 82.6408 34.7375 82.2468 34.7375C81.8528 34.7375 81.5377 34.8951 81.3801 35.1315C81.3013 35.3679 81.2225 35.6043 81.2225 36.077V38.1258H80.4345V32.0584H81.2225Z" fill="#6E6259"/>
<path d="M86.6595 34.9739V35.6831H84.7683V34.9739H86.6595Z" fill="#6E6259"/>
<path d="M90.7569 37.4166V38.1258H87.605V32.0584H88.393V37.4166H90.7569Z" fill="#6E6259"/>
<path d="M94.3816 37.7318C93.9088 38.1258 93.5148 38.2834 93.1208 38.2834C92.0177 38.2834 91.0721 37.3378 91.0721 36.1558C91.0721 34.9739 91.9389 34.0283 93.1208 34.0283C93.5936 34.0283 93.9088 34.1859 94.3816 34.5799V34.1859H95.1695V38.2046H94.3816V37.7318ZM91.7813 36.1558C91.7813 36.9438 92.3328 37.5742 93.042 37.5742C93.7512 37.5742 94.3028 37.0226 94.3028 36.1558C94.3028 35.3679 93.83 34.7375 93.042 34.7375C92.3328 34.7375 91.7813 35.2891 91.7813 36.1558Z" fill="#6E6259"/>
<path d="M97.0607 34.1071V34.5011C97.2971 34.1859 97.691 34.0283 98.1638 34.0283C98.7154 34.0283 99.267 34.3435 99.5822 34.8163C99.7398 35.0527 99.8186 35.4467 99.8186 35.9983V38.1258H99.0306V35.9983C99.0306 35.5255 99.0306 35.2891 98.873 35.1315C98.7942 34.8951 98.479 34.7375 98.085 34.7375C97.691 34.7375 97.3759 34.8951 97.2183 35.1315C97.1395 35.3679 97.0607 35.6043 97.0607 36.077V38.1258H96.2727V34.1071H97.0607Z" fill="#6E6259"/>
<path d="M104.783 38.2046C104.783 39.4653 103.916 40.3321 102.655 40.3321C102.104 40.3321 101.552 40.1745 101.158 39.7805C101.079 39.7017 101.001 39.6229 100.843 39.3865L101.316 38.9137C101.552 39.2289 101.631 39.2289 101.788 39.3077C102.025 39.4653 102.34 39.5441 102.655 39.5441C103.522 39.5441 103.995 38.9925 103.995 38.1258V37.653C103.601 38.047 103.207 38.2046 102.734 38.2046C101.631 38.2046 100.685 37.259 100.685 36.077C100.685 34.8951 101.552 33.9495 102.734 33.9495C103.207 33.9495 103.601 34.1071 103.995 34.5011V34.1071H104.783V38.2046ZM101.394 36.1558C101.394 36.9438 101.946 37.5742 102.655 37.5742C103.364 37.5742 103.916 37.0226 103.916 36.1558C103.916 35.3679 103.443 34.7375 102.655 34.7375C101.867 34.7375 101.394 35.2891 101.394 36.1558Z" fill="#6E6259"/>
<path d="M108.565 37.7318C108.329 38.047 107.935 38.2046 107.462 38.2046C106.91 38.2046 106.359 37.8894 106.044 37.4166C105.886 37.1802 105.807 36.7862 105.807 36.2346V34.1071H106.595V36.2346C106.595 36.7074 106.595 36.9438 106.753 37.1014C106.831 37.3378 107.147 37.4954 107.541 37.4954C107.935 37.4954 108.25 37.3378 108.407 37.1014C108.486 36.865 108.565 36.6286 108.565 36.1558V34.1859H109.353V38.2046H108.565V37.7318Z" fill="#6E6259"/>
<path d="M113.529 37.7318C113.056 38.1258 112.662 38.2834 112.268 38.2834C111.165 38.2834 110.22 37.3378 110.22 36.1558C110.22 34.9739 111.087 34.0283 112.268 34.0283C112.741 34.0283 113.056 34.1859 113.529 34.5799V34.1859H114.317V38.2046H113.529V37.7318ZM111.008 36.1558C111.008 36.9438 111.559 37.5742 112.268 37.5742C112.978 37.5742 113.529 37.0226 113.529 36.1558C113.529 35.3679 113.056 34.7375 112.268 34.7375C111.559 34.7375 111.008 35.2891 111.008 36.1558Z" fill="#6E6259"/>
<path d="M119.36 38.2046C119.36 39.4653 118.493 40.3321 117.233 40.3321C116.681 40.3321 116.13 40.1745 115.736 39.7805C115.657 39.7017 115.578 39.6229 115.42 39.3865L115.893 38.9137C116.13 39.2289 116.208 39.2289 116.366 39.3077C116.602 39.4653 116.918 39.5441 117.233 39.5441C118.099 39.5441 118.572 38.9925 118.572 38.1258V37.653C118.178 38.047 117.784 38.2046 117.311 38.2046C116.208 38.2046 115.263 37.259 115.263 36.077C115.263 34.8951 116.13 33.9495 117.311 33.9495C117.784 33.9495 118.178 34.1071 118.572 34.5011V34.1071H119.36V38.2046ZM115.972 36.1558C115.972 36.9438 116.524 37.5742 117.233 37.5742C117.942 37.5742 118.493 37.0226 118.493 36.1558C118.493 35.3679 118.021 34.7375 117.233 34.7375C116.445 34.7375 115.972 35.2891 115.972 36.1558Z" fill="#6E6259"/>
<path d="M120.936 36.471C121.015 37.1802 121.488 37.5742 122.197 37.5742C122.67 37.5742 123.064 37.3378 123.3 37.0226C123.3 36.9438 123.3 36.9438 123.379 36.9438L124.009 37.1802C123.615 37.8894 122.985 38.2834 122.197 38.2834C121.094 38.2834 120.148 37.4166 120.148 36.1558C120.148 34.9739 121.015 34.0283 122.118 34.0283C123.221 34.0283 124.088 34.9739 124.088 36.2346V36.471H120.936ZM123.3 35.8407C123.221 35.1315 122.748 34.7375 122.118 34.7375C121.488 34.7375 121.094 35.1315 120.936 35.8407H123.3Z" fill="#6E6259"/>
<path d="M126.767 34.9739V35.6831H124.876V34.9739H126.767Z" fill="#6E6259"/>
<path d="M128.501 32.0584V34.6587H131.416V32.0584H132.204V38.1258H131.416V35.4467H128.501V38.1258H127.713V32.0584H128.501Z" fill="#6E6259"/>
<path d="M134.016 36.471C134.095 37.1802 134.568 37.5742 135.277 37.5742C135.75 37.5742 136.144 37.3378 136.38 37.0226C136.38 36.9438 136.38 36.9438 136.459 36.9438L137.09 37.1802C136.696 37.8894 136.065 38.2834 135.277 38.2834C134.174 38.2834 133.228 37.4166 133.228 36.1558C133.228 34.9739 134.095 34.0283 135.198 34.0283C136.302 34.0283 137.168 34.9739 137.168 36.2346V36.471H134.016ZM136.38 35.8407C136.302 35.1315 135.829 34.7375 135.198 34.7375C134.568 34.7375 134.174 35.1315 134.016 35.8407H136.38Z" fill="#6E6259"/>
<path d="M141.108 37.7318C140.635 38.1258 140.241 38.2834 139.847 38.2834C138.744 38.2834 137.799 37.3378 137.799 36.1558C137.799 34.9739 138.665 34.0283 139.847 34.0283C140.32 34.0283 140.635 34.1859 141.108 34.5799V34.1859H141.896V38.2046H141.108V37.7318ZM138.508 36.1558C138.508 36.9438 139.059 37.5742 139.769 37.5742C140.478 37.5742 141.029 37.0226 141.029 36.1558C141.029 35.3679 140.557 34.7375 139.769 34.7375C139.059 34.7375 138.508 35.2891 138.508 36.1558Z" fill="#6E6259"/>
<path d="M143.708 34.1071V34.5011C144.102 34.1859 144.26 34.1071 144.654 34.1071H144.89V34.8163C144.812 34.8163 144.733 34.8163 144.654 34.8163C144.26 34.8163 144.024 34.9739 143.866 35.2103C143.787 35.4467 143.708 35.6831 143.708 36.1558V38.1258H142.921V34.1071H143.708Z" fill="#6E6259"/>
<path d="M146.466 32.7676C146.466 33.004 146.23 33.2404 145.994 33.2404C145.757 33.2404 145.521 33.004 145.521 32.7676C145.521 32.5312 145.757 32.2948 145.994 32.2948C146.23 32.2948 146.466 32.4524 146.466 32.7676ZM146.388 38.1258H145.6V34.1071H146.388V38.1258Z" fill="#6E6259"/>
<path d="M148.279 34.1071V34.5011C148.515 34.1859 148.909 34.0283 149.382 34.0283C149.933 34.0283 150.485 34.3435 150.8 34.8163C150.958 35.0527 151.037 35.4467 151.037 35.9983V38.1258H150.249V35.9983C150.249 35.5255 150.249 35.2891 150.091 35.1315C150.012 34.8951 149.697 34.7375 149.303 34.7375C148.909 34.7375 148.594 34.8951 148.436 35.1315C148.357 35.3679 148.279 35.6043 148.279 36.077V38.1258H147.491V34.1071H148.279Z" fill="#6E6259"/>
<path d="M156.001 38.2046C156.001 39.4653 155.134 40.3321 153.873 40.3321C153.322 40.3321 152.77 40.1745 152.376 39.7805C152.297 39.7017 152.219 39.6229 152.061 39.3865L152.534 38.9137C152.77 39.2289 152.849 39.2289 153.007 39.3077C153.243 39.4653 153.558 39.5441 153.873 39.5441C154.74 39.5441 155.213 38.9925 155.213 38.1258V37.653C154.819 38.047 154.425 38.2046 153.952 38.2046C152.849 38.2046 151.903 37.259 151.903 36.077C151.903 34.8951 152.77 33.9495 153.952 33.9495C154.425 33.9495 154.819 34.1071 155.213 34.5011V34.1071H156.001V38.2046ZM152.613 36.1558C152.613 36.9438 153.164 37.5742 153.873 37.5742C154.582 37.5742 155.134 37.0226 155.134 36.1558C155.134 35.3679 154.661 34.7375 153.873 34.7375C153.085 34.7375 152.613 35.2891 152.613 36.1558Z" fill="#6E6259"/>
<path d="M58.4501 47.0298H57.5834L59.8685 40.9625H60.8928L63.178 47.0298H62.3112L61.6808 45.3751H59.0805L58.4501 47.0298ZM61.5232 44.6659L60.4989 41.8292L59.3957 44.6659H61.5232Z" fill="#6E6259"/>
<path d="M64.1235 45.7691C64.3599 46.2419 64.5963 46.3995 64.9115 46.3995C65.3055 46.3995 65.5419 46.1631 65.5419 45.8479C65.5419 45.6115 65.4631 45.5327 64.9115 45.2963L64.5175 45.1387C63.9659 44.9023 63.6507 44.5871 63.6507 44.1143C63.6507 43.484 64.2023 42.9324 64.9903 42.9324C65.5419 42.9324 65.9359 43.1688 66.251 43.7204L65.6207 44.0355C65.4631 43.7204 65.2267 43.6416 64.9903 43.6416C64.6751 43.6416 64.4387 43.7992 64.4387 44.1143C64.4387 44.4295 64.5175 44.4295 65.0691 44.6659L65.4631 44.8235C66.0934 45.0599 66.4086 45.3751 66.4086 45.8479C66.4086 46.557 65.7783 47.1874 64.9903 47.1874C64.2811 47.1874 63.8083 46.8722 63.5719 46.0843L64.1235 45.7691Z" fill="#6E6259"/>
<path d="M67.5118 45.7691C67.7482 46.2419 67.9846 46.3995 68.2998 46.3995C68.6937 46.3995 68.9301 46.1631 68.9301 45.8479C68.9301 45.6115 68.8513 45.5327 68.2998 45.2963L67.9058 45.1387C67.3542 44.9023 67.039 44.5871 67.039 44.1143C67.039 43.484 67.5906 42.9324 68.3786 42.9324C68.9301 42.9324 69.3241 43.1688 69.6393 43.7204L69.0089 44.0355C68.8513 43.7204 68.615 43.6416 68.3786 43.6416C68.0634 43.6416 67.827 43.7992 67.827 44.1143C67.827 44.4295 67.9058 44.4295 68.4574 44.6659L68.8513 44.8235C69.4817 45.0599 69.7969 45.3751 69.7969 45.8479C69.7969 46.557 69.1665 47.1874 68.3786 47.1874C67.6694 47.1874 67.1966 46.8722 66.9602 46.0843L67.5118 45.7691Z" fill="#6E6259"/>
<path d="M74.5247 44.9811C74.5247 46.1631 73.658 47.1086 72.3972 47.1086C71.2153 47.1086 70.2697 46.1631 70.2697 44.9811C70.2697 43.7992 71.2153 42.8536 72.3972 42.8536C73.5792 42.9324 74.5247 43.878 74.5247 44.9811ZM71.1365 44.9811C71.1365 45.7691 71.688 46.3995 72.476 46.3995C73.264 46.3995 73.8155 45.8479 73.8155 44.9811C73.8155 44.1931 73.264 43.5628 72.5548 43.5628C71.6092 43.5628 71.1365 44.1931 71.1365 44.9811Z" fill="#6E6259"/>
<path d="M78.307 44.1143C77.9918 43.7204 77.6766 43.5628 77.2826 43.5628C76.4946 43.5628 75.9431 44.1143 75.9431 44.9811C75.9431 45.8479 76.4946 46.3995 77.2826 46.3995C77.6766 46.3995 77.9918 46.2419 78.3858 45.8479L78.8586 46.3207C78.3858 46.8722 77.913 47.0298 77.2826 47.0298C76.1007 47.0298 75.1551 46.0843 75.1551 44.9023C75.1551 43.7204 76.0219 42.7748 77.2826 42.7748C77.913 42.7748 78.3858 43.0112 78.8586 43.484L78.307 44.1143Z" fill="#6E6259"/>
<path d="M80.4345 41.6716C80.4345 41.908 80.1981 42.1444 79.9617 42.1444C79.7253 42.1444 79.4889 41.908 79.4889 41.6716C79.4889 41.4352 79.7253 41.1988 79.9617 41.1988C80.1981 41.1201 80.4345 41.3564 80.4345 41.6716ZM80.3557 47.0298H79.5677V43.0112H80.3557V47.0298Z" fill="#6E6259"/>
<path d="M84.5319 47.0298V46.6358C84.0592 47.0298 83.6652 47.1874 83.2712 47.1874C82.168 47.1874 81.2225 46.2419 81.2225 45.0599C81.2225 43.8779 82.0892 42.9324 83.2712 42.9324C83.744 42.9324 84.0592 43.09 84.5319 43.484V43.09H85.3199V47.0298H84.5319ZM81.9316 44.9811C81.9316 45.7691 82.4832 46.3995 83.1924 46.3995C83.9016 46.3995 84.4531 45.8479 84.4531 44.9811C84.4531 44.1931 83.9804 43.5628 83.1924 43.5628C82.4832 43.5628 81.9316 44.1931 81.9316 44.9811Z" fill="#6E6259"/>
<path d="M87.9202 43.7204H87.2898V45.7691C87.2898 46.1631 87.3686 46.3207 87.605 46.3207C87.6838 46.3207 87.7626 46.3207 87.9202 46.2419V46.951C87.7626 46.951 87.605 47.0298 87.4474 47.0298C86.8171 47.0298 86.4231 46.557 86.4231 45.7691V43.7204H86.0291V43.0112H86.4231V42.0656L87.211 41.7504V42.9324H87.8414L87.9202 43.7204Z" fill="#6E6259"/>
<path d="M89.6537 41.6716C89.6537 41.908 89.4174 42.1444 89.181 42.1444C88.9446 42.1444 88.7082 41.908 88.7082 41.6716C88.7082 41.4352 88.9446 41.1988 89.181 41.1988C89.4174 41.1201 89.6537 41.3564 89.6537 41.6716ZM89.4962 47.0298H88.7082V43.0112H89.4962V47.0298Z" fill="#6E6259"/>
<path d="M94.5392 44.9811C94.5392 46.1631 93.6724 47.1086 92.4116 47.1086C91.2297 47.1086 90.2841 46.1631 90.2841 44.9811C90.2841 43.7992 91.2297 42.8536 92.4116 42.8536C93.5936 42.9324 94.5392 43.878 94.5392 44.9811ZM91.0721 44.9811C91.0721 45.7691 91.6237 46.3995 92.4116 46.3995C93.1996 46.3995 93.7512 45.8479 93.7512 44.9811C93.7512 44.1931 93.1996 43.5628 92.4904 43.5628C91.6237 43.5628 91.0721 44.1931 91.0721 44.9811Z" fill="#6E6259"/>
<path d="M96.1151 43.0112V43.4052C96.3515 43.09 96.7455 42.9324 97.2183 42.9324C97.7698 42.9324 98.3214 43.2476 98.6366 43.7204C98.7942 43.9567 98.873 44.3507 98.873 44.9023V47.0298H98.085V44.9023C98.085 44.4295 98.085 44.1931 97.9274 44.0355C97.8486 43.7992 97.5334 43.6416 97.1395 43.6416C96.7455 43.6416 96.4303 43.7992 96.2727 44.0355C96.1939 44.2719 96.1151 44.5083 96.1151 44.9811V47.0298H95.3271V43.0112H96.1151Z" fill="#6E6259"/>
</svg>
