<svg width="160" height="56" viewBox="0 0 160 56" fill="none" xmlns="http://www.w3.org/2000/svg">
<path d="M91.709 36.3673C94.5771 36.0271 100.85 35.2829 101.969 36.7171C103.099 38.1653 100.714 44.1205 99.6482 46.7827L99.6463 46.7874C99.3221 47.5946 100.017 47.9188 100.745 47.3101C105.489 43.3468 106.706 35.0432 105.74 33.8456C104.774 32.6546 96.4903 31.6291 91.4419 35.1821C90.6612 35.7247 90.7935 36.4789 91.6603 36.3731L91.709 36.3673Z" fill="#FF9900"/>
<path d="M65.6376 50.9028C76.6606 50.9028 89.4635 47.4292 98.2964 40.9186C99.7587 39.8335 98.5082 38.2191 97.0128 38.8543C87.1146 43.0557 76.3496 45.0803 66.5639 45.0803C52.054 45.0803 38.0072 41.1038 26.6468 34.494C25.6543 33.9118 24.9133 34.9307 25.7403 35.6784C36.2671 45.1862 50.1815 50.9028 65.6376 50.9028Z" fill="#FF9900"/>
<path fill-rule="evenodd" clip-rule="evenodd" d="M84.2766 31.5829C83.9656 31.8608 83.5157 31.8806 83.165 31.6953C81.8361 30.5917 81.4321 29.9912 80.8151 29.0741C80.7071 28.9136 80.5926 28.7434 80.4655 28.5591C77.8851 31.1925 76.0523 31.9799 72.711 31.9799C68.7477 31.9799 65.6711 29.5384 65.6711 24.6488C65.6711 20.8311 67.7354 18.2308 70.6864 16.9605C72.8277 16.0174 75.6807 15.7255 78.1533 15.4725C78.6298 15.4238 79.0922 15.3765 79.5326 15.3262V14.7175C79.5326 14.6037 79.5335 14.4877 79.5344 14.3702C79.5424 13.3336 79.5512 12.1777 78.957 11.31C78.3879 10.4433 77.2896 10.086 76.317 10.086C74.5239 10.086 72.9294 11.0057 72.539 12.9112C72.4596 13.3347 72.1486 13.7515 71.7186 13.7714L67.1598 13.2817C66.776 13.1957 66.346 12.8847 66.4585 12.2959C67.5039 6.76452 72.5059 5.09717 76.9786 5.09717C79.2679 5.09717 82.2586 5.70588 84.0649 7.4394C86.1694 9.40404 86.1547 11.9726 86.1386 14.7852C86.1372 15.0321 86.1358 15.2809 86.1358 15.5313V22.8624C86.1358 24.8295 86.8636 25.8103 87.6318 26.8456C87.724 26.9699 87.8168 27.095 87.909 27.2226C88.2068 27.6461 88.2729 28.1555 87.8892 28.4731C86.9298 29.2737 85.2227 30.7624 84.2832 31.5961L84.2766 31.5829ZM79.5326 20.1165C79.5326 20.2004 79.5327 20.2837 79.5328 20.3664C79.5348 22.0894 79.5365 23.5522 78.6526 25.1053C77.9049 26.4286 76.714 27.2425 75.3973 27.2425C73.591 27.2425 72.5324 25.8662 72.5324 23.835C72.5324 19.8254 76.1251 19.0976 79.5326 19.0976V20.1165Z" fill="black"/>
<path d="M30.7494 31.649H35.4537C35.9565 31.649 36.3601 31.2587 36.3601 30.7757V17.9794C36.3601 17.8792 36.36 17.7776 36.3598 17.6749C36.3552 14.9149 36.3491 11.3233 39.6088 11.3233C42.6091 11.3233 42.5579 14.5188 42.5162 17.1208C42.5115 17.4164 42.5068 17.7047 42.5068 17.9794L42.5134 30.7757C42.5134 31.2388 42.884 31.616 43.3604 31.649H48.058C48.5609 31.649 48.9645 31.2587 48.9645 30.7757V17.9794C48.9645 17.8726 48.9642 17.7616 48.9639 17.6473C48.9605 16.2968 48.9559 14.477 49.4012 13.3545C49.8842 12.1371 51.0751 11.3762 52.2132 11.3762C53.5762 11.3762 54.6282 11.8327 54.9789 13.4538C55.1599 14.2313 55.1353 16.0292 55.1187 17.2324C55.1147 17.524 55.1112 17.7807 55.1112 17.9794V30.7757C55.1112 31.2388 55.4883 31.616 55.9581 31.649H60.6558C61.1586 31.649 61.5622 31.2587 61.5622 30.7757L61.5689 15.538C61.5689 15.1664 61.5751 14.7874 61.5815 14.4046L61.5815 14.404C61.6193 12.1218 61.6593 9.7081 60.3845 7.96872C59.0678 6.14258 56.9109 5.32875 54.9392 5.32875C52.1669 5.32875 49.5798 6.75129 48.4418 9.80148C47.1185 6.75129 45.2791 5.32875 42.3348 5.32875C39.4368 5.32875 37.2864 6.75129 36.1418 9.80148H36.0558V6.64543C36.0227 6.20874 35.6588 5.85806 35.2023 5.83822H30.8155C30.3127 5.83822 29.9091 6.22198 29.9091 6.70498V30.8484C29.9422 31.2785 30.2995 31.616 30.7494 31.649Z" fill="black"/>
<path d="M91.859 6.64541V10.0992C91.859 10.6153 92.256 10.966 92.7522 10.966H100.831L91.548 24.2783C90.9856 25.1318 90.979 26.0912 90.979 26.6536V30.1537C90.979 30.6566 91.5414 31.2388 92.0773 30.9477C97.3374 28.1555 103.656 28.4268 108.413 30.9212C108.996 31.2256 109.551 30.6367 109.551 30.1339V26.4485C109.505 25.9522 109.34 25.4494 108.731 25.1053C106.031 23.5835 102.889 23.1403 99.9112 23.213L107.924 11.7732C108.665 10.7476 109.082 10.0992 109.088 9.60297V6.64541C109.088 6.12932 108.691 5.77203 108.195 5.77203H92.7323C92.256 5.77203 91.859 6.12271 91.859 6.64541Z" fill="black"/>
<path fill-rule="evenodd" clip-rule="evenodd" d="M122.401 5.32875C129.381 5.32875 133.159 11.3233 133.159 18.9454C133.159 26.3096 128.984 32.1519 122.401 32.1519C115.546 32.1519 111.814 26.1574 111.814 18.6874C111.814 11.1711 115.592 5.32875 122.401 5.32875ZM122.44 10.258C118.973 10.258 118.755 14.9822 118.755 17.9265L118.755 18.0349C118.754 21.0287 118.753 27.1763 122.401 27.1763C126.046 27.1763 126.218 22.0949 126.218 18.9984C126.218 16.9605 126.132 14.5256 125.517 12.5936C124.988 10.913 123.936 10.258 122.44 10.258Z" fill="black"/>
<path d="M137.526 31.649H142.21C142.713 31.649 143.123 31.2587 143.13 30.7757V17.7743C143.13 16.1467 143.216 14.6778 143.878 13.2023C144.4 12.0378 145.452 11.2703 146.597 11.2703C149.595 11.2703 149.567 14.5618 149.545 17.1446C149.543 17.3602 149.541 17.5709 149.541 17.7743V30.8881C149.588 31.2984 149.945 31.616 150.375 31.649H155.093C155.556 31.649 155.946 31.3116 155.999 30.8881V15.6901C155.999 13.3545 155.999 10.1058 154.768 8.17383C153.445 6.08964 151.387 5.32875 149.277 5.32875C146.028 5.32875 144.182 6.90347 142.865 10.2051H142.779V6.5131C142.687 6.13596 142.349 5.85806 141.939 5.83822H137.579C137.102 5.83822 136.712 6.18227 136.672 6.62558L136.679 30.7757C136.679 31.2388 137.056 31.616 137.526 31.649Z" fill="black"/>
<path fill-rule="evenodd" clip-rule="evenodd" d="M21.4929 31.6954C21.8436 31.8806 22.2935 31.8608 22.6045 31.5829L22.6177 31.5961C23.5573 30.7625 25.2643 29.2738 26.2237 28.4732C26.6075 28.1556 26.5413 27.6461 26.237 27.2227C26.1447 27.095 26.0519 26.9699 25.9597 26.8456C25.1915 25.8104 24.4637 24.8295 24.4637 22.8624V15.5314C24.4637 15.2809 24.4652 15.0321 24.4666 14.7852C24.4826 11.9726 24.4973 9.40408 22.3928 7.43943C20.5865 5.70592 17.5958 5.09721 15.3066 5.09721C10.8338 5.09721 5.8384 6.76456 4.78638 12.2959C4.68052 12.8848 5.10397 13.1958 5.48773 13.2818L10.0531 13.7714C10.4765 13.7515 10.7875 13.3347 10.8669 12.9112C11.2573 11.0057 12.8585 10.086 14.6515 10.086C15.6175 10.086 16.7159 10.4433 17.2915 11.3101C17.8793 12.1769 17.8704 13.3315 17.8623 14.3674C17.8614 14.4859 17.8605 14.6028 17.8605 14.7175V15.3263C17.4201 15.3765 16.9577 15.4238 16.4813 15.4726C14.0086 15.7256 11.1556 16.0175 9.0143 16.9605C6.06998 18.2309 3.99902 20.8312 3.99902 24.6489C3.99902 29.5384 7.08229 31.9799 11.0389 31.9799C14.3869 31.9799 16.213 31.1925 18.7934 28.5592C18.9296 28.755 19.0511 28.935 19.1655 29.1042C19.7737 30.0045 20.1786 30.6038 21.4929 31.6954ZM17.8607 20.3664C17.8606 20.2837 17.8605 20.2005 17.8605 20.1166V19.0976C14.4596 19.0976 10.8669 19.8255 10.8669 23.835C10.8669 25.8663 11.9189 27.2425 13.7252 27.2425C15.0485 27.2425 16.2329 26.4287 16.9805 25.1054C17.8644 23.5522 17.8627 22.0895 17.8607 20.3664Z" fill="black"/>
</svg>
