<svg width="160" height="64" viewBox="0 0 160 64" fill="none" xmlns="http://www.w3.org/2000/svg">
<path d="M25.4435 18.5892C28.4149 18.5892 30.8237 20.998 30.8237 23.9694V45.4125H9.38019C6.40879 45.4125 4 43.0037 4 40.0323V34.028C4 31.0566 6.40879 28.6478 9.38019 28.6478H15.1766V37.1697C15.1766 38.0186 15.8649 38.7069 16.7138 38.7069H19.6471V26.832C19.6471 25.9831 18.9589 25.2952 18.1099 25.2948H4.3843V18.5892H25.4435ZM50.9406 38.7069L50.941 7.4126H62.1176V45.4125H40.6745C37.7031 45.4125 35.2943 43.0037 35.2943 40.0323V23.9694C35.2943 20.998 37.7031 18.5892 40.6745 18.5892H46.4701V37.1697C46.4701 38.0186 47.1584 38.7069 48.0073 38.7069H50.9406ZM82.2349 38.7069V18.5892H93.4119V51.2074C93.4119 54.1788 91.0031 56.5875 88.0317 56.5875H66.9724V48.7655H82.2353V45.4125H71.9683C68.9969 45.4125 66.5881 43.0037 66.5881 40.0323V18.5892H77.7643V37.1697C77.7643 38.0186 78.4526 38.7069 79.3015 38.7069H82.2349ZM119.326 18.5892C122.297 18.5892 124.706 20.998 124.706 23.9694V29.9737C124.706 32.9451 122.297 35.3539 119.326 35.3539H113.529V26.8324C113.529 25.9835 112.841 25.2952 111.992 25.2952H109.059V37.1697C109.059 38.0186 109.747 38.7069 110.596 38.7069H124.321V45.4125H103.263C100.291 45.4125 97.8824 43.0037 97.8824 40.0323V18.5892H119.326ZM150.62 18.5892C153.591 18.5892 156 20.998 156 23.9694V45.4125H144.823V26.832C144.823 25.9866 144.132 25.2948 143.286 25.2948H140.353V45.4125H129.176V18.5892H150.62Z" fill="#32AA52"/>
</svg>
