<svg width="208" height="48" viewBox="0 0 208 48" fill="none" xmlns="http://www.w3.org/2000/svg">
<path d="M18.2083 31.8786C17.1749 30.8357 16.3573 29.5992 15.8025 28.2398C15.2477 26.8805 14.9665 25.425 14.975 23.9568C14.9713 22.4887 15.2603 21.0345 15.8251 19.6794C16.3899 18.3242 17.2192 17.0953 18.2646 16.0644C18.7124 15.6664 19.0742 15.1812 19.3279 14.6385C19.5816 14.0957 19.7219 13.5069 19.7402 12.9081C19.7584 12.3093 19.6543 11.713 19.4341 11.1559C19.2139 10.5987 18.8823 10.0924 18.4595 9.6678C18.0368 9.24326 17.5319 8.90946 16.9757 8.68685C16.4195 8.46423 15.8237 8.35749 15.2248 8.37315C14.6259 8.38881 14.0365 8.52654 13.4927 8.77792C12.9489 9.0293 12.4621 9.38903 12.0621 9.83509C8.3055 13.5696 6.18607 18.6433 6.17001 23.9403C6.15396 29.2374 8.2426 34.3239 11.9765 38.081C12.3752 38.5265 12.8604 38.8861 13.4025 39.1379C13.9447 39.3897 14.5324 39.5285 15.1299 39.5457C15.7275 39.563 16.3222 39.4583 16.878 39.2382C17.4338 39.0181 17.9389 38.6872 18.3626 38.2655C18.7863 37.8438 19.1196 37.3402 19.3424 36.7855C19.5651 36.2308 19.6725 35.6365 19.6581 35.0389C19.6436 34.4413 19.5077 33.8529 19.2584 33.3096C19.0092 32.7662 18.6519 32.2794 18.2083 31.8786Z" fill="#FFDA00"/>
<path d="M18.2647 16.0645C20.3714 13.9789 23.219 12.8137 26.1834 12.8243C29.1478 12.8348 31.9871 14.0203 34.0789 16.1207C34.4761 16.5709 34.9612 16.935 35.5044 17.1907C36.0475 17.4465 36.6373 17.5884 37.2373 17.6078C37.8373 17.6273 38.435 17.5237 38.9935 17.3037C39.5521 17.0836 40.0597 16.7516 40.4853 16.3281C40.9108 15.9046 41.2452 15.3985 41.4679 14.841C41.6906 14.2835 41.7969 13.6863 41.7803 13.0862C41.7638 12.4861 41.6246 11.8957 41.3714 11.3513C41.1183 10.807 40.7564 10.3201 40.3082 9.92077C38.4661 8.05497 36.2736 6.57145 33.8566 5.55542C31.4396 4.53938 28.8457 4.01085 26.2238 4.00017C23.6019 3.98948 21.0037 4.49687 18.5785 5.49318C16.1533 6.48949 13.9488 7.95509 12.0916 9.80582C11.6422 10.2018 11.2783 10.6853 11.0222 11.2268C10.7662 11.7682 10.6233 12.3563 10.6023 12.9548C10.5813 13.5534 10.6828 14.15 10.9003 14.7081C11.1179 15.2661 11.4471 15.7739 11.8677 16.2003C12.2883 16.6268 12.7915 16.9629 13.3465 17.1881C13.9015 17.4134 14.4966 17.523 15.0954 17.5103C15.6943 17.4976 16.2842 17.3628 16.8291 17.1142C17.3741 16.8656 17.8625 16.5084 18.2647 16.0645Z" fill="#67B3FF"/>
<path d="M34.0524 31.9349C33.0099 32.9704 31.7733 33.79 30.4136 34.3469C29.0538 34.9039 27.5975 35.1871 26.1282 35.1804C24.6592 35.1825 23.2045 34.8916 21.8493 34.3247C20.4941 33.7577 19.2656 32.9262 18.2357 31.8786C17.8377 31.4308 17.3525 31.069 16.8098 30.8153C16.2671 30.5615 15.6783 30.4212 15.0794 30.403C14.4806 30.3847 13.8844 30.4889 13.3272 30.7091C12.77 30.9293 12.2637 31.2609 11.8391 31.6836C11.4146 32.1063 11.0808 32.6113 10.8582 33.1675C10.6356 33.7237 10.5288 34.3195 10.5445 34.9184C10.5601 35.5173 10.6979 36.1067 10.9492 36.6505C11.2006 37.1943 11.5604 37.6811 12.0064 38.081C13.8516 39.9467 16.0469 41.4299 18.4664 42.4455C20.8859 43.4612 23.482 43.9894 26.106 43.9998C28.73 44.0103 31.3303 43.5028 33.7578 42.5064C36.1853 41.5101 38.3923 40.0444 40.2524 38.1935C40.6633 37.7864 40.9901 37.3024 41.2139 36.769C41.4378 36.2356 41.5545 35.6634 41.5572 35.0849C41.5599 34.5065 41.4487 33.9332 41.2298 33.3977C41.011 32.8623 40.6888 32.3752 40.2817 31.9642C39.8746 31.5533 39.3906 31.2265 38.8572 31.0026C38.3238 30.7788 37.7516 30.6621 37.1731 30.6594C36.5947 30.6567 36.0214 30.7679 35.4859 30.9867C34.9505 31.2056 34.4633 31.5278 34.0524 31.9349Z" fill="#EB5A68"/>
<path d="M18.2654 16.0644C17.6484 16.6807 16.8622 17.0999 16.0066 17.2687C15.151 17.4375 14.2645 17.3485 13.4596 17.0127C12.6547 16.677 11.9676 16.1098 11.4856 15.383C11.0035 14.6562 10.7482 13.8027 10.752 12.9306C10.7558 12.0585 11.0185 11.2071 11.5068 10.4846C11.9952 9.762 12.6871 9.20076 13.4949 8.87203C14.3027 8.5433 15.1899 8.46189 16.044 8.63814C16.8981 8.81439 17.6806 9.24036 18.2923 9.86199C19.1072 10.6902 19.5616 11.8069 19.5566 12.9687C19.5516 14.1306 19.0874 15.2433 18.2654 16.0644Z" fill="#47A1FF"/>
<path d="M18.1782 38.0813C17.5609 38.6974 16.7746 39.1162 15.9189 39.2847C15.0632 39.4532 14.1768 39.3638 13.372 39.0277C12.5673 38.6917 11.8805 38.1242 11.3987 37.3972C10.9169 36.6703 10.6619 35.8166 10.6661 34.9445C10.6702 34.0724 10.9332 33.2212 11.4219 32.4988C11.9105 31.7764 12.6027 31.2155 13.4106 30.8871C14.2185 30.5586 15.1057 30.4776 15.9598 30.6542C16.8138 30.8308 17.5962 31.257 18.2076 31.8789C19.0221 32.7074 19.4762 33.8243 19.4707 34.9862C19.4652 36.148 19.0006 37.2606 18.1782 38.0813Z" fill="#D5465F"/>
<path d="M59.8977 28.271C61.1671 27.3123 61.3358 27.8479 62.4071 28.9191C62.9427 29.4548 64.4077 30.3866 63.449 31.1741C61.4483 32.8079 59.6434 33.5416 57.09 33.5416C51.3107 33.5147 47.2239 29.2004 47.5516 23.4774C47.691 20.9142 48.706 18.488 50.7091 16.8249C52.5409 15.2743 54.8228 14.5993 57.2196 14.6555C58.3944 14.6521 59.5582 14.8815 60.6437 15.3306C61.3789 15.596 62.0718 15.9668 62.7006 16.4312C63.9699 17.4095 63.378 17.9818 62.3899 18.9674C62.1649 19.1924 61.9399 19.4199 61.7418 19.6449C61.2356 20.1511 60.8956 20.518 60.2206 20.0386C58.9243 19.1361 57.2857 18.6568 55.7375 19.0603C50.7482 20.3272 50.9732 29.2077 57.0925 29.2371C58.1069 29.2237 59.0902 28.8851 59.8977 28.271ZM198.589 33.6517C198.389 33.6526 198.19 33.614 198.005 33.5379C197.82 33.4618 197.652 33.3498 197.51 33.2084C197.368 33.067 197.256 32.8989 197.18 32.7139C197.103 32.5289 197.064 32.3306 197.065 32.1304L197.151 12.4544C197.15 12.2542 197.188 12.0558 197.264 11.8707C197.341 11.6855 197.453 11.5173 197.594 11.3756C197.735 11.234 197.903 11.1218 198.088 11.0454C198.273 10.969 198.472 10.93 198.672 10.9307H200.308C200.509 10.93 200.707 10.9691 200.892 11.0456C201.077 11.1221 201.246 11.2346 201.387 11.3765C201.528 11.5184 201.64 11.687 201.716 11.8724C201.792 12.0578 201.831 12.2564 201.829 12.4568L201.744 32.1329C201.745 32.3329 201.706 32.5312 201.63 32.7162C201.554 32.9012 201.442 33.0693 201.3 33.2107C201.159 33.3522 200.991 33.4642 200.806 33.5403C200.621 33.6164 200.423 33.6551 200.223 33.6541L198.589 33.6517ZM190.029 31.3698C188.253 33.0329 186.561 33.906 184.051 33.906C178.979 33.8767 176.553 29.6773 176.553 24.9693L176.582 16.9643C176.581 16.7643 176.62 16.5661 176.697 16.3812C176.773 16.1963 176.885 16.0284 177.027 15.8872C177.169 15.746 177.337 15.6342 177.522 15.5584C177.707 15.4826 177.906 15.4442 178.106 15.4455H179.742C179.942 15.4445 180.14 15.4832 180.325 15.5593C180.51 15.6354 180.678 15.7475 180.82 15.8889C180.961 16.0304 181.073 16.1985 181.149 16.3835C181.225 16.5685 181.264 16.7667 181.263 16.9668L181.236 24.9717C181.236 27.5935 182.645 29.6504 185.409 29.6504C188.172 29.6504 189.862 27.3392 189.889 24.7589V21.8998C189.867 21.7888 189.858 21.6755 189.862 21.5623L189.889 17.023C189.888 16.823 189.927 16.6247 190.003 16.4397C190.079 16.2547 190.191 16.0866 190.333 15.9452C190.474 15.8037 190.642 15.6917 190.827 15.6156C191.012 15.5395 191.21 15.5008 191.411 15.5018H193.025C193.225 15.5008 193.423 15.5395 193.608 15.6156C193.793 15.6917 193.961 15.8037 194.103 15.9452C194.244 16.0866 194.356 16.2547 194.432 16.4397C194.508 16.6247 194.547 16.823 194.546 17.023L194.492 32.1329C194.488 32.5327 194.326 32.9146 194.041 33.1948C193.755 33.4749 193.371 33.6305 192.971 33.6272H191.589C191.197 33.615 190.824 33.4536 190.546 33.1759C190.268 32.8983 190.107 32.5253 190.095 32.1329L190.029 31.3698ZM170.568 15.5018H173.725C173.925 15.5046 174.123 15.5471 174.307 15.6267C174.491 15.7064 174.657 15.8216 174.796 15.9657C174.934 16.1099 175.043 16.2801 175.116 16.4666C175.189 16.6531 175.224 16.8522 175.22 17.0524V18.0943C175.216 18.4959 175.056 18.8803 174.772 19.1647C174.489 19.4492 174.105 19.611 173.703 19.6155H170.538L170.482 32.0473C170.483 32.2474 170.445 32.4458 170.368 32.6309C170.292 32.8161 170.18 32.9843 170.039 33.126C169.898 33.2676 169.729 33.3799 169.544 33.4562C169.359 33.5326 169.161 33.5716 168.961 33.571H167.327C167.127 33.5716 166.929 33.5326 166.743 33.4563C166.558 33.3799 166.39 33.2677 166.248 33.1261C166.107 32.9845 165.995 32.8163 165.918 32.6311C165.842 32.446 165.803 32.2475 165.804 32.0473L165.86 14.8536C165.86 11.1043 168.002 8.14251 171.837 7.805C171.95 7.805 172.033 7.77809 172.145 7.77809C172.371 7.76342 172.597 7.76342 172.823 7.77809H174.29C174.49 7.78095 174.688 7.82334 174.871 7.90282C175.055 7.9823 175.221 8.0973 175.36 8.2412C175.499 8.3851 175.608 8.55505 175.681 8.74127C175.753 8.92749 175.789 9.1263 175.785 9.32625V10.285C175.782 10.6879 175.621 11.0736 175.336 11.3587C175.052 11.6438 174.666 11.8055 174.263 11.8087H173.08C171.275 11.8087 170.514 13.1881 170.485 14.8805L170.568 15.5018ZM159.237 15.4455H162.697C163.097 15.4494 163.479 15.6118 163.759 15.897C164.04 16.1822 164.195 16.567 164.192 16.9668V18.0087C164.188 18.4085 164.026 18.7904 163.74 19.0706C163.455 19.3507 163.07 19.5063 162.671 19.503H159.207L159.18 27.1093C159.18 28.5767 159.885 29.4205 161.35 29.4205H162.054C162.454 29.425 162.836 29.588 163.116 29.8736C163.396 30.1592 163.552 30.5442 163.549 30.9442V32.0008C163.544 32.4004 163.381 32.7819 163.096 33.062C162.811 33.342 162.427 33.4978 162.027 33.4951H160.702C160.457 33.5 160.212 33.4902 159.968 33.4658C156.219 33.2212 154.556 30.7901 154.556 27.124C154.585 22.1909 154.585 17.2872 154.612 12.3541C154.614 12.1559 154.655 11.9601 154.732 11.7777C154.81 11.5954 154.923 11.4301 155.064 11.2913C155.206 11.1526 155.373 11.043 155.557 10.969C155.741 10.8949 155.937 10.8578 156.135 10.8597H157.742C158.142 10.8636 158.524 11.026 158.804 11.3112C159.084 11.5964 159.24 11.9812 159.237 12.381V15.4455ZM109.099 15.2474H112.56C112.959 15.2513 113.341 15.4137 113.621 15.6989C113.902 15.9841 114.057 16.3689 114.054 16.7687V17.8154C114.049 18.215 113.887 18.5966 113.602 18.8766C113.317 19.1567 112.932 19.3124 112.533 19.3098H109.06V26.9185C109.06 28.386 109.764 29.2298 111.229 29.2298H111.936C112.134 29.2317 112.329 29.2725 112.511 29.35C112.693 29.4275 112.858 29.5401 112.997 29.6814C113.135 29.8226 113.245 29.9898 113.319 30.1733C113.393 30.3569 113.43 30.5532 113.428 30.751V31.7929C113.424 32.1927 113.262 32.5746 112.976 32.8548C112.691 33.135 112.306 33.2905 111.907 33.2873H110.865C106.775 33.2603 104.408 31.5116 104.408 26.9283C104.437 21.9952 104.437 17.0891 104.464 12.156C104.469 11.756 104.632 11.374 104.917 11.0939C105.203 10.8138 105.588 10.6584 105.988 10.6616H107.595C107.995 10.6661 108.376 10.8291 108.656 11.1148C108.936 11.4005 109.091 11.7855 109.087 12.1853L109.099 15.2474ZM88.7478 17.3899C90.4109 15.8393 92.2159 14.8536 94.554 14.8536C99.6289 14.8805 102.251 19.0114 102.221 23.788L102.195 31.7929C102.195 31.9932 102.156 32.1916 102.08 32.3768C102.003 32.5619 101.891 32.7301 101.75 32.8718C101.608 33.0134 101.44 33.1256 101.255 33.2019C101.07 33.2783 100.871 33.3172 100.671 33.3166H99.037C98.8368 33.3172 98.6383 33.2783 98.4532 33.2019C98.268 33.1256 98.0998 33.0134 97.9582 32.8718C97.8166 32.7301 97.7044 32.5619 97.628 32.3768C97.5517 32.1916 97.5127 31.9932 97.5133 31.7929L97.5427 23.8442C97.5427 21.2224 96.1339 19.1655 93.3702 19.1655C90.6066 19.1655 88.9165 21.4498 88.8896 24.0423L88.8603 31.7929C88.8564 32.1927 88.694 32.5746 88.4088 32.8548C88.1236 33.135 87.7388 33.2905 87.339 33.2873H85.7322C85.3324 33.2834 84.9505 33.121 84.6703 32.8358C84.3901 32.5506 84.2346 32.1658 84.2378 31.766C84.2647 26.9454 84.2647 22.0979 84.2941 17.2774V16.6293C84.2954 16.2299 84.4549 15.8473 84.7378 15.5654C85.0206 15.2834 85.4037 15.1251 85.8031 15.1251H87.1849C87.5776 15.1368 87.9509 15.298 88.2287 15.5757C88.5064 15.8535 88.6676 16.2268 88.6793 16.6195L88.7478 17.3899ZM138.981 17.5855C140.644 16.0374 142.447 15.0493 144.787 15.0493C149.862 15.0787 152.482 19.2218 152.455 23.9861L152.425 32.0008C152.426 32.2009 152.388 32.3993 152.312 32.5845C152.235 32.7696 152.123 32.9379 151.982 33.0795C151.841 33.2212 151.673 33.3334 151.488 33.4098C151.302 33.4861 151.104 33.5251 150.904 33.5245H149.27C149.07 33.5251 148.872 33.4862 148.686 33.4098C148.501 33.3335 148.333 33.2213 148.191 33.0796C148.05 32.938 147.938 32.7698 147.861 32.5846C147.785 32.3995 147.746 32.2011 147.747 32.0008L147.776 24.0521C147.776 21.4303 146.365 19.3734 143.603 19.3734C140.842 19.3734 139.15 21.6553 139.12 24.2502L139.081 32.0008C139.077 32.4008 138.914 32.7827 138.628 33.0628C138.343 33.3429 137.958 33.4984 137.558 33.4951H135.951C135.551 33.4906 135.17 33.328 134.89 33.0428C134.611 32.7577 134.456 32.3733 134.459 31.9739L134.515 16.8347C134.516 16.6357 134.556 16.4388 134.633 16.2553C134.71 16.0718 134.822 15.9054 134.964 15.7656C135.106 15.6258 135.273 15.5154 135.458 15.4407C135.642 15.3661 135.84 15.3286 136.039 15.3306H137.421C137.815 15.3436 138.189 15.5069 138.466 15.7871C138.744 16.0673 138.903 16.443 138.913 16.8371L138.981 17.5855ZM73.4007 14.7118C67.9027 14.6824 64.0139 18.6568 63.9846 24.1255C63.9577 29.6504 67.7902 33.571 73.3445 33.5979C78.8988 33.6248 82.7875 29.736 82.8144 24.1744C82.8437 18.7424 78.8694 14.7387 73.4007 14.7118ZM119.038 26.016C119.432 28.5523 121.858 29.5942 124.226 29.6235C125.413 29.6131 126.584 29.354 127.665 28.8629C127.838 28.7921 128.007 28.7104 128.171 28.6183C128.736 28.3077 129.242 28.112 129.751 28.6183C130.032 28.8996 130.286 29.1833 130.568 29.4352C130.833 29.6887 131.079 29.9626 131.301 30.2545C132.062 31.2108 131.526 31.4383 130.653 32.0301C128.792 33.2701 126.368 33.8889 124.14 33.8889C118.165 33.862 114.218 30.2203 114.218 24.194C114.247 18.4978 118.192 14.7216 123.886 14.7485C129.694 14.7778 132.991 18.1896 133.077 23.9959C133.104 25.5734 133.16 26.0821 131.526 26.0821L119.038 26.016ZM73.4007 18.9674C76.2476 18.9674 78.1357 21.4498 78.1357 24.1842C78.1357 27.031 76.3601 29.3202 73.3714 29.3202C70.3827 29.3202 68.6364 27.009 68.6364 24.1622C68.6364 21.3153 70.4414 18.9674 73.4007 18.9674ZM119.163 22.098L128.523 22.1249C128.183 19.7843 126.239 18.8549 124.013 18.8549C121.787 18.8549 119.855 19.8992 119.163 22.098Z" fill="#29303A"/>
</svg>
