<svg width="240" height="48" viewBox="0 0 240 48" fill="none" xmlns="http://www.w3.org/2000/svg">
<path d="M40.916 27.203L46.7266 12.5264H48.2715L54.1264 27.203H52.6848L51.1153 23.2423H43.8189L42.274 27.203H40.916ZM50.6479 22.0222L47.4745 13.7466L44.2469 22.0222H50.6479Z" fill="#0065A4"/>
<path d="M56.306 18.4994L56.3503 18.5388C57.0587 17.2792 58.2199 16.6888 59.5385 16.6888C61.1473 16.6888 62.4019 17.5793 62.8497 18.9225C63.6024 17.722 64.7783 16.6888 66.3626 16.6888C69.6935 16.6888 69.9592 19.6359 69.9592 20.8168V27.1981H68.739V20.62C68.739 18.8487 67.7205 17.8106 66.0576 17.8106C64.0452 17.8106 63.1301 19.4982 63.1301 21.3284V27.203H61.9149V20.62C61.9149 18.8487 60.8964 17.8106 59.2334 17.8106C57.2211 17.8106 56.306 19.4982 56.306 21.3284V27.203H55.0907V19.2965C55.0907 18.5043 55.0268 17.6876 54.9874 16.9988H56.2469L56.306 18.4994Z" fill="#0065A4"/>
<path d="M72.7882 22.3863C72.8276 24.5609 73.8263 26.3863 76.3257 26.3863C77.7673 26.3863 78.9678 25.3481 79.2679 23.9508H80.5471C79.9223 26.3863 78.3922 27.5031 75.9321 27.5031C72.8817 27.5031 71.4647 24.8856 71.4647 22.096C71.4647 19.3309 72.9899 16.6888 76.0207 16.6888C79.4352 16.6888 80.6701 19.1882 80.6701 22.3813H72.7882V22.3863ZM79.3565 21.2645C79.2089 19.2915 78.156 17.8106 76.0453 17.8106C74.0527 17.8106 72.9948 19.4785 72.8325 21.2645H79.3565Z" fill="#0065A4"/>
<path d="M82.5791 27.203V19.2965C82.5988 18.5043 82.5201 17.6876 82.4758 16.9988H83.7353L83.7944 18.4994H83.8387C84.2028 17.4662 85.1179 16.7282 86.1363 16.6888C86.5447 16.6691 86.9481 16.6888 87.3565 16.7085V17.8844C87.1154 17.8647 86.8498 17.8057 86.6087 17.8057C84.7981 17.8057 83.8436 19.1046 83.8042 21.0578V27.203H82.5791Z" fill="#0065A4"/>
<path d="M89.8756 14.0517H88.4537V12.5264H89.8756V14.0517ZM89.7772 16.9988V27.203H88.557V16.9988H89.7772Z" fill="#0065A4"/>
<path d="M98.6874 20.1279C98.5841 18.5634 97.5853 17.8106 95.8977 17.8106C94.0281 17.8106 92.8719 19.7589 92.8719 22.0812C92.8719 24.4182 94.0281 26.3912 95.8977 26.3912C97.482 26.3912 98.5841 25.417 98.6874 24.0148H100.006C99.6813 26.3518 98.3381 27.508 96.0257 27.508C92.9752 27.508 91.5533 24.8906 91.5533 22.1009C91.5533 19.3358 93.0786 16.6937 96.1044 16.6937C98.1954 16.6937 99.9076 17.9533 100.006 20.1329H98.6874V20.1279Z" fill="#0065A4"/>
<path d="M107.657 20.0049C107.534 18.342 106.687 17.8106 105.241 17.8106C103.962 17.8106 102.904 18.1993 102.742 19.5818H101.438C101.743 17.4859 103.312 16.6937 105.261 16.6937C107.514 16.6937 108.916 17.7319 108.877 20.0689V24.9053C108.857 25.7024 108.936 26.5093 108.975 27.203H107.716L107.676 25.7024H107.632L107.568 25.8451C107.12 26.7012 105.762 27.508 104.38 27.508C102.491 27.508 100.99 26.3518 100.99 24.3641C100.99 22.9767 101.822 21.9188 103.042 21.4121C104.4 20.8266 106.171 21.0283 107.647 20.9447V20.0049H107.657ZM104.616 26.3863C107.278 26.3863 107.78 24.1919 107.662 22.0566C105.94 22.1157 102.323 21.7909 102.323 24.3543C102.318 25.7368 103.371 26.3863 104.616 26.3863Z" fill="#0065A4"/>
<path d="M112.464 27.203H111.243V19.2965C111.243 18.5043 111.184 17.6876 111.14 16.9988H112.4L112.464 18.4994L112.503 18.5388C113.207 17.2792 114.378 16.6888 115.691 16.6888C119.027 16.6888 119.288 19.6359 119.288 20.8168V27.1981H118.063V20.62C118.063 18.8487 117.049 17.8106 115.386 17.8106C113.379 17.8106 112.459 19.4982 112.459 21.3284V27.203H112.464Z" fill="#0065A4"/>
<path d="M126.156 27.203V12.5264H127.455L127.475 18.9865L134.038 12.5264H135.701L128.936 19.1489L136.311 27.1981H134.506L127.475 19.5326L127.455 27.1981H126.156V27.203Z" fill="#0065A4"/>
<path d="M138.879 12.5264H137.458V14.0517H138.879V12.5264ZM137.551 16.9988V27.203H138.771V16.9988H137.551Z" fill="#0065A4"/>
<path d="M148.272 25.6975L148.232 25.6138C147.396 26.8291 146.156 27.5031 144.739 27.5031C141.704 27.5031 140.552 24.615 140.552 22.0566C140.552 19.4145 141.704 16.6888 144.739 16.6888C146.097 16.6888 147.524 17.3432 148.232 18.5388L148.272 18.4994V12.5264H149.492V24.9053C149.492 25.7024 149.556 26.5093 149.595 27.203H148.331L148.272 25.6975ZM144.936 17.8106C142.624 17.8106 141.871 19.9656 141.871 21.9139C141.871 23.8082 142.417 26.3863 144.754 26.3863C147.416 26.3863 148.232 24.1722 148.232 21.8549C148.232 19.7835 147.317 17.8106 144.936 17.8106Z" fill="#0065A4"/>
<path d="M151.736 27.203V19.2965C151.736 18.5043 151.677 17.6876 151.637 16.9988H152.897L152.961 18.4994L153 18.5388C153.709 17.2792 154.87 16.6888 156.188 16.6888C159.524 16.6888 159.79 19.6359 159.79 20.8168V27.1981H158.57V20.62C158.57 18.8487 157.551 17.8106 155.888 17.8106C153.876 17.8106 152.961 19.4982 152.961 21.3284V27.203H151.736Z" fill="#0065A4"/>
<path d="M162.648 22.3863C162.688 24.5609 163.686 26.3863 166.186 26.3863C167.632 26.3863 168.828 25.3481 169.133 23.9508H170.417C169.782 26.3863 168.262 27.5031 165.802 27.5031C162.757 27.5031 161.33 24.8856 161.33 22.096C161.33 19.3309 162.855 16.6888 165.876 16.6888C169.29 16.6888 170.53 19.1882 170.53 22.3813H162.648V22.3863ZM169.217 21.2645C169.074 19.2915 168.021 17.8106 165.9 17.8106C163.908 17.8106 162.86 19.4785 162.688 21.2645H169.217Z" fill="#0065A4"/>
<path d="M172.454 16.9988L175.888 25.5351L179.308 16.9988H180.626L174.993 31.0997H173.654L175.194 27.1981L170.968 16.9939H172.454V16.9988Z" fill="#0065A4"/>
<path d="M187.155 27.203V12.5264H195.45V13.7466H188.469V18.9324H195.199V20.1525H188.469V27.203H187.155Z" fill="#0065A4"/>
<path d="M203.588 16.9988H204.808V24.9053C204.808 25.7024 204.867 26.5093 204.912 27.203H203.652L203.588 25.7024L203.549 25.6581C202.835 26.9176 201.679 27.508 200.356 27.508C197.03 27.508 196.759 24.5609 196.759 23.385V16.9988H197.979V23.5818C197.979 25.3481 199.003 26.3863 200.666 26.3863C202.678 26.3863 203.588 24.7036 203.588 22.8684V16.9988Z" fill="#0065A4"/>
<path d="M208.183 27.203H206.968V19.2965C206.968 18.5043 206.904 17.6876 206.865 16.9988H208.124L208.183 18.4994L208.228 18.5388C208.936 17.2792 210.097 16.6888 211.411 16.6888C214.752 16.6888 215.013 19.6359 215.013 20.8168V27.1981H213.792V20.62C213.792 18.8487 212.774 17.8106 211.111 17.8106C209.099 17.8106 208.179 19.4982 208.179 21.3284V27.203H208.183Z" fill="#0065A4"/>
<path d="M224.208 25.6975L224.169 25.6138C223.332 26.8291 222.097 27.5031 220.671 27.5031C217.65 27.5031 216.484 24.615 216.484 22.0566C216.484 19.4145 217.65 16.6888 220.671 16.6888C222.038 16.6888 223.46 17.3432 224.169 18.5388L224.208 18.4994V12.5264H225.428V24.9053C225.428 25.7024 225.487 26.5093 225.527 27.203H224.267L224.208 25.6975ZM220.872 17.8106C218.56 17.8106 217.807 19.9656 217.807 21.9139C217.807 23.8082 218.353 26.3863 220.695 26.3863C223.357 26.3863 224.169 24.1722 224.169 21.8549C224.164 19.7835 223.249 17.8106 220.872 17.8106Z" fill="#0065A4"/>
<path d="M231.77 8.57563C233.153 8.58547 234.22 9.66788 234.211 11.0061C234.201 12.3739 233.123 13.4268 231.721 13.417C230.339 13.4071 229.241 12.3395 229.251 10.9717C229.261 9.63344 230.373 8.56579 231.756 8.57563H231.77ZM231.741 9.0578C230.683 9.04796 229.881 9.91389 229.871 10.9717C229.861 12.0443 230.649 12.9053 231.741 12.9102C232.799 12.9299 233.586 12.0689 233.596 10.9963C233.601 9.93357 232.828 9.06272 231.751 9.05288L231.741 9.0578ZM231.347 12.2362L230.786 12.2312L230.801 9.83025C231.022 9.79089 231.332 9.7466 231.731 9.75152C232.184 9.75644 232.39 9.83025 232.567 9.94833C232.7 10.0516 232.799 10.2435 232.799 10.4649C232.799 10.7454 232.592 10.9471 232.297 11.0357V11.0652C232.533 11.139 232.666 11.3309 232.735 11.6556C232.808 12.0246 232.853 12.1722 232.907 12.246L232.302 12.2411C232.228 12.1525 232.188 11.9459 232.115 11.6654C232.075 11.3997 231.928 11.2817 231.618 11.2767L231.352 11.2718L231.347 12.2362ZM231.372 10.8831H231.637C231.947 10.8831 232.198 10.7847 232.198 10.5338C232.203 10.3124 232.041 10.1648 231.687 10.1599C231.539 10.1599 231.441 10.1697 231.377 10.1894L231.372 10.8831Z" fill="#0065A4"/>
<path d="M26.2896 31.9312C24.0903 31.8623 22.7422 30.6569 22.6832 30.6175C21.8074 29.8303 21.0202 28.9398 20.3461 27.9754L20.3215 27.9361C20.3215 27.9361 20.3117 27.9262 20.3117 27.9213L20.1493 27.6753L20.1542 27.6704C18.5011 25.1661 17.6204 22.2681 17.6204 19.2571C17.6204 16.246 18.4962 13.3481 20.1493 10.8487C20.1444 10.8438 20.1444 10.8388 20.1395 10.8339C19.982 10.6174 19.8197 10.4059 19.6524 10.1943C19.6475 10.1894 19.6426 10.1795 19.6327 10.1746C19.4704 9.9729 19.2982 9.77118 19.121 9.57929C19.0669 9.52025 19.0079 9.46121 18.9537 9.40217C18.8209 9.26441 18.693 9.12173 18.5552 8.98889C18.3584 8.79208 18.1518 8.60512 17.9402 8.42308C17.5466 8.13771 16.5232 7.51779 15.1112 7.63095C14.9095 7.64571 14.7028 7.67523 14.4912 7.71951C14.324 7.74903 14.1518 7.80315 13.9845 7.85727C13.9451 7.87203 13.9058 7.87695 13.8664 7.89171C13.6991 7.95075 13.5269 8.02947 13.3547 8.10327C13.3154 8.12295 13.2711 8.13772 13.2317 8.15248C13.0595 8.23612 12.8824 8.33452 12.7102 8.43784C12.6708 8.45752 12.6364 8.4772 12.597 8.5018C12.4248 8.60512 12.2526 8.72812 12.0853 8.85112C12.0411 8.88064 12.0017 8.90524 11.9574 8.93477C11.7951 9.05777 11.6278 9.19553 11.4654 9.33329C11.4162 9.37265 11.367 9.41201 11.3178 9.45137C11.1554 9.58913 10.998 9.74166 10.8356 9.8991C10.7815 9.9483 10.7274 9.99258 10.6733 10.0467C10.5257 10.1894 10.383 10.3468 10.2403 10.5043C10.1764 10.5781 10.1075 10.642 10.0435 10.7158C8.22308 13.1955 7.26367 16.1427 7.26367 19.2472C7.26367 24.8315 10.4765 29.9188 15.4457 32.1968C16.9857 32.9053 18.6143 33.3088 20.2871 33.3973L20.4347 33.4023H20.5429H20.6167L20.9661 33.4121C22.1075 33.4072 23.249 33.2547 24.356 32.9594C25.0891 32.7626 25.8074 32.5019 26.4913 32.1919C26.6881 32.1034 26.88 31.9951 27.0768 31.8967C26.9685 31.9066 26.8554 31.9164 26.7471 31.9164C26.5848 31.9361 26.4372 31.9361 26.2896 31.9312Z" fill="#74CBC8"/>
<path d="M36.1439 19.2473C36.1439 13.2989 32.6605 7.85733 27.273 5.38254C25.2853 4.47233 23.1648 4.00492 20.9655 4C20.9606 4 20.5079 4.00984 20.5079 4.00984H20.4686C20.4735 4.00984 20.3899 4.00984 20.3899 4.00984L20.1734 4.01476C19.3763 4.06396 18.5645 4.17712 17.7724 4.3444C16.6998 4.57565 15.6518 4.92497 14.658 5.38254C12.3406 6.44527 10.3087 8.0935 8.78343 10.155L8.77359 10.1648L8.76375 10.1845C6.8154 12.8266 5.78711 15.9558 5.78711 19.2473C5.78711 25.1956 9.27052 30.6372 14.6629 33.1071C16.4046 33.9091 18.2644 34.3666 20.1783 34.47L20.3849 34.4798H20.4735L20.5473 34.4847L20.9606 34.4946C22.2841 34.4897 23.5928 34.3174 24.8622 33.978C25.6937 33.7566 26.5055 33.4663 27.273 33.112C28.016 32.7725 28.7441 32.3642 29.4379 31.8968C30.8302 30.9324 32.075 29.7418 33.059 28.433C33.064 28.433 33.0689 28.433 33.0689 28.433L33.2116 28.2313L33.2017 28.2264C33.7872 27.3014 36.1439 23.3359 36.1439 19.2473ZM20.6162 33.4072H20.5424H20.4341L20.2865 33.4023C18.6137 33.3138 16.9852 32.9103 15.4452 32.2018C10.4759 29.9189 7.26313 24.8365 7.26313 19.2473C7.26313 16.1427 8.22746 13.1907 10.043 10.7159C10.1069 10.6421 10.1758 10.5732 10.2398 10.5043C10.3825 10.3469 10.5251 10.1894 10.6727 10.0468C10.7269 9.99264 10.781 9.94836 10.8351 9.89916C10.9925 9.74664 11.1549 9.5892 11.3173 9.45143C11.3615 9.41207 11.4157 9.37271 11.4649 9.33335C11.6272 9.19559 11.7945 9.05783 11.9569 8.93483C11.9962 8.90531 12.0405 8.88071 12.0848 8.85119C12.257 8.72818 12.4292 8.6101 12.5965 8.50186C12.6358 8.47726 12.6703 8.4625 12.7096 8.4379C12.8818 8.33458 13.059 8.23618 13.2312 8.15254C13.2705 8.13286 13.3148 8.12302 13.3542 8.10334C13.5264 8.02461 13.6937 7.95081 13.8659 7.89177C13.9052 7.87701 13.9446 7.87209 13.9839 7.85733C14.1512 7.80321 14.3234 7.74909 14.4907 7.70973C14.6973 7.66545 14.904 7.63593 15.1106 7.62117C16.5227 7.50801 17.5461 8.12794 17.9397 8.4133C18.1512 8.59534 18.353 8.7823 18.5547 8.97911C18.6924 9.11195 18.8204 9.24971 18.9532 9.39239C19.0073 9.45143 19.0664 9.51047 19.1205 9.56951C19.2976 9.76632 19.4649 9.96312 19.6322 10.1648C19.6371 10.1698 19.6469 10.1796 19.6519 10.1845C19.8191 10.3961 19.9815 10.6027 20.1389 10.8241C20.1439 10.8291 20.1439 10.834 20.1488 10.8389C18.4956 13.3383 17.6199 16.2362 17.6199 19.2473C17.6199 22.2584 18.5006 25.1563 20.1537 27.6606L20.1488 27.6655L20.3111 27.9115L20.321 27.9263L20.3456 27.9656C21.0196 28.93 21.8068 29.8205 22.6826 30.6077C22.7417 30.652 24.0898 31.8525 26.289 31.9214C26.4366 31.9263 26.5842 31.9263 26.7417 31.9214C26.8499 31.9165 26.9631 31.9066 27.0713 31.9017C26.8794 32.005 26.6826 32.1083 26.4858 32.1969C25.8069 32.5118 25.0885 32.7676 24.3505 32.9644C23.2435 33.2596 22.102 33.4122 20.9606 33.4171L20.6162 33.4072ZM22.8401 19.2473C22.8401 21.7713 22.1906 24.2067 20.9655 26.3666C19.7404 24.2067 19.091 21.7713 19.091 19.2473C19.091 16.7233 19.7404 14.2879 20.9655 12.123C22.1955 14.2879 22.8401 16.7233 22.8401 19.2473Z" fill="#0065A4"/>
<path d="M42.8794 43.7934H42.043V36.305H45.5165V37.0873H42.8745V39.3604H45.5165V40.1427H42.8794V43.7934Z" fill="#0065A4"/>
<path d="M49.7675 43.7934V36.305H50.6039V43.7934H49.7675Z" fill="#0065A4"/>
<path d="M58.5498 43.941C56.385 43.941 54.7564 42.3223 54.7564 40.0492C54.7564 37.8155 56.3751 36.1574 58.5104 36.1574C59.9028 36.1574 60.9557 36.6839 61.6396 37.6876L61.0147 38.1845C60.4883 37.3973 59.6224 36.9446 58.5547 36.9446C56.8278 36.9446 55.5977 38.2977 55.5977 40.1033C55.5977 41.8106 56.8671 43.1636 58.5547 43.1636C60.0849 43.1636 61.1771 42.1009 61.2755 40.7823H58.9237V40.0098H62.1808C62.1808 42.2534 60.9213 43.941 58.5498 43.941Z" fill="#0065A4"/>
<path d="M70.9926 43.7934V40.1574H67.1205V43.7934H66.2841V36.305H67.1205V39.3752H70.9926V36.305H71.829V43.7934H70.9926Z" fill="#0065A4"/>
<path d="M78.3285 37.0627V43.7934H77.497V37.0627H75.7307V36.31H80.0997V37.0627H78.3285Z" fill="#0065A4"/>
<path d="M83.7946 43.7934V36.305H84.6311V43.7934H83.7946Z" fill="#0065A4"/>
<path d="M90.0284 38.1058V43.7934H89.192V36.0984L94.9927 41.9877V36.305H95.8291V44L90.0284 38.1058Z" fill="#0065A4"/>
<path d="M103.775 43.941C101.61 43.941 99.9817 42.3223 99.9817 40.0492C99.9817 37.8155 101.6 36.1574 103.736 36.1574C105.123 36.1574 106.176 36.6839 106.865 37.6876L106.24 38.1845C105.714 37.3973 104.853 36.9446 103.78 36.9446C102.053 36.9446 100.818 38.2977 100.818 40.1033C100.818 41.8106 102.087 43.1636 103.78 43.1636C105.31 43.1636 106.402 42.1009 106.501 40.7823H104.159V40.0098H107.416C107.411 42.2534 106.151 43.941 103.775 43.941Z" fill="#0065A4"/>
<path d="M121.054 43.941C118.84 43.941 117.133 42.2337 117.133 40.0492C117.133 37.8352 118.821 36.1574 121.054 36.1574C123.288 36.1574 124.976 37.8352 124.976 40.0492C124.981 42.2436 123.258 43.941 121.054 43.941ZM121.054 36.9446C118.85 36.9446 117.974 38.7405 117.974 40.0541C117.974 41.7712 119.258 43.1636 121.054 43.1636C122.83 43.1636 124.144 41.7761 124.144 40.0541C124.144 38.3223 122.835 36.9446 121.054 36.9446Z" fill="#0065A4"/>
<path d="M129.969 38.1058V43.7934H129.138V36.0984L134.939 41.9877V36.305H135.77V44L129.969 38.1058Z" fill="#0065A4"/>
<path d="M151.15 43.7934L150.176 41.5301H147.067L146.102 43.7934H145.177L148.621 36.0984L152.065 43.7934H151.15ZM148.626 37.9237L147.386 40.8118H149.871L148.626 37.9237Z" fill="#0065A4"/>
<path d="M155.893 43.7934V36.305H156.73V43.0308H158.727V43.7934H155.893Z" fill="#0065A4"/>
<path d="M162.59 43.7934V36.305H163.421V43.0308H165.419V43.7934H162.59Z" fill="#0065A4"/>
<path d="M175.662 43.7934H174.831V36.305H178.304V37.0873H175.662V39.3604H178.304V40.1427H175.662V43.7934Z" fill="#0065A4"/>
<path d="M185.93 43.7934L183.638 40.2558H183.392V43.7934H182.555V36.305H184.115C185.911 36.305 186.565 37.2005 186.565 38.3223C186.565 39.4637 185.832 40.1968 184.543 40.2312L186.944 43.7934H185.93ZM184.031 37.0922H183.387V39.5424H184.031C185.251 39.5424 185.729 39.1636 185.729 38.3518C185.729 37.5104 185.232 37.0922 184.031 37.0922Z" fill="#0065A4"/>
<path d="M194.226 43.941C192.012 43.941 190.304 42.2337 190.304 40.0492C190.304 37.8352 191.992 36.1574 194.226 36.1574C196.459 36.1574 198.147 37.8352 198.147 40.0492C198.147 42.2436 196.43 43.941 194.226 43.941ZM194.226 36.9446C192.021 36.9446 191.146 38.7405 191.146 40.0541C191.146 41.7712 192.43 43.1636 194.226 43.1636C196.002 43.1636 197.315 41.7761 197.315 40.0541C197.315 38.3223 196.002 36.9446 194.226 36.9446Z" fill="#0065A4"/>
<path d="M203.136 38.1058V43.7934H202.304V36.0984L208.105 41.9877V36.305H208.937V44L203.136 38.1058Z" fill="#0065A4"/>
<path d="M215.485 37.0627V43.7934H214.654V37.0627H212.887V36.31H217.256V37.0627H215.485Z" fill="#0065A4"/>
<path d="M222.609 43.941C221.625 43.941 220.843 43.4736 220.504 42.6618L221.099 42.155C221.34 42.8094 221.955 43.1587 222.639 43.1587C223.515 43.1587 224.09 42.7011 224.09 41.8303C224.09 41.2153 223.771 40.7479 222.54 40.1427C221.168 39.4686 220.764 38.9323 220.764 38.0074C220.764 36.925 221.556 36.1623 222.821 36.1623C223.574 36.1623 224.14 36.4625 224.528 37.048L223.962 37.5744C223.731 37.166 223.288 36.9496 222.782 36.9496C222.029 36.9496 221.601 37.3678 221.601 37.9729C221.601 38.6076 221.96 38.9176 222.791 39.3653C223.972 40 224.927 40.4969 224.927 41.8057C224.922 43.1193 224.046 43.941 222.609 43.941Z" fill="#0065A4"/>
</svg>
