<svg width="176" height="48" viewBox="0 0 176 48" fill="none" xmlns="http://www.w3.org/2000/svg">
<path d="M11.9875 19.7338H27.2797V24.0315L21.5291 24.473C12.2398 25.169 9.33398 27.6269 9.33398 34.5214V35.9112C9.33398 40.9574 12.8727 44 18.3058 44C22.6035 44 25.0678 42.9885 28.1018 39.8915H28.6064V43.1777H34.7354V13.0349H11.9875V19.7338ZM27.2797 34.2691C25.3874 36.1614 22.5404 37.423 20.2023 37.423C17.6792 37.423 16.6006 36.4747 16.6637 34.3889C16.7267 31.4831 17.8012 30.7871 22.6666 30.3456L27.2797 29.904V34.2691Z" fill="#FF8800"/>
<path fill-rule="evenodd" clip-rule="evenodd" d="M47.6225 13.037H59.4391V19.1661H65.8835V43.1777H58.3647V19.799H47.6225V43.1777H40.1016V4H47.6225V13.037ZM157.579 25.169L153.029 24.7253C150.505 24.473 149.875 23.8422 149.875 21.8196C149.875 19.5446 150.76 18.9748 154.29 18.9748C157.444 18.9748 158.333 19.4815 158.777 21.6303H165.854C165.665 14.4268 163.453 12.5892 154.669 12.5892C145.064 12.5892 142.663 14.4226 142.663 21.8154C142.663 28.5774 144.431 30.4088 151.574 31.1046L155.301 31.4831C158.651 31.7984 159.471 32.4314 159.471 34.454C159.471 36.9184 158.46 37.5491 154.353 37.5491C150.751 37.5491 149.803 36.9815 149.614 34.6433H142.465C142.654 42.0991 144.929 43.9957 154.029 43.9957C164.139 43.9957 166.666 41.9731 166.666 33.7583C166.677 27.6332 164.845 25.8629 157.579 25.169ZM118.866 25.7368C118.866 16.0059 115.519 12.5934 105.912 12.5934C96.4337 12.5934 92.706 17.0088 92.706 28.0117C92.706 40.0197 95.9922 43.9916 106.608 43.9916C114.255 43.9916 117.477 41.6534 118.551 35.0808H111.284C110.462 37.1118 109.579 37.5534 106.493 37.5534C101.816 37.5534 100.616 36.2265 100.364 30.6022H118.372C118.674 28.9971 118.839 27.3695 118.866 25.7368ZM100.416 24.6623C100.479 20.4298 102.184 18.8507 106.23 18.8507C110.084 18.8507 111.663 20.4298 111.791 24.6623H100.416ZM123.244 14.3616V43.1777H130.765V19.4814H139.806V13.0349H130.765V12.2149C130.826 10.4445 131.27 9.93985 132.722 9.93985H140.937V4H132.088C126.087 4 123.244 5.83137 123.244 14.3616ZM78.9171 43.1777H71.3981V13.037H90.1028V20.1144H78.9171V43.1777Z" fill="black"/>
</svg>
