<svg width="208" height="48" viewBox="0 0 208 48" fill="none" xmlns="http://www.w3.org/2000/svg">
<path d="M41.9854 4H12.3364C9.67017 4 7.50879 6.16138 7.50879 8.82759V39.1724C7.50879 41.8386 9.67017 44 12.3364 44H41.9854C44.6516 44 46.813 41.8386 46.813 39.1724V8.82759C46.813 6.16138 44.6516 4 41.9854 4Z" fill="#D64130"/>
<path fill-rule="evenodd" clip-rule="evenodd" d="M16.2711 32.4372C14.0728 30.1693 12.8486 27.1226 12.8486 23.9162C12.8486 20.7078 14.0746 17.6587 16.2761 15.3906C16.4204 15.2416 16.6556 15.2416 16.7996 15.3906L17.3536 15.9615C17.4976 16.1101 17.4976 16.3522 17.3536 16.5009C15.4388 18.4745 14.3726 21.1255 14.3726 23.9162C14.3726 26.7055 15.437 29.3546 17.3489 31.3271C17.4932 31.4758 17.4932 31.7182 17.3489 31.8668L16.7948 32.4374C16.6509 32.5858 16.4156 32.5858 16.2711 32.4372ZM20.6042 28.6169C19.3924 27.3653 18.717 25.6846 18.717 23.9159C18.717 22.1456 19.3943 20.4622 20.6089 19.2106C20.7487 19.0666 20.9765 19.0666 21.1166 19.2106L21.7039 19.816C21.8159 19.9312 21.8159 20.1192 21.7039 20.2345L21.6535 20.2869C20.716 21.2526 20.1944 22.5502 20.1944 23.9159C20.1944 25.2803 20.7141 26.5753 21.649 27.5414C21.7882 27.6851 21.7882 27.9199 21.649 28.0639L21.1121 28.6171C21.0422 28.6889 20.957 28.7253 20.8581 28.7253C20.7592 28.7253 20.6741 28.6892 20.6042 28.6169ZM35.865 30.45C35.7231 30.5962 35.4916 30.5964 35.3494 30.4497L34.8038 29.8878C34.6619 29.7416 34.6619 29.503 34.8038 29.3568C36.2076 27.9079 36.9881 25.9631 36.9881 23.9159C36.9881 21.8665 36.2057 19.9203 34.7991 18.4712L34.7476 18.4182C34.634 18.3011 34.634 18.1103 34.7476 17.9929L35.3447 17.3777C35.4868 17.2313 35.7184 17.2313 35.8605 17.3777C37.5485 19.1174 38.4892 21.4556 38.4892 23.9159C38.4892 26.3745 37.5504 28.7109 35.865 30.45ZM38.0011 32.4372C37.8568 32.5858 37.6219 32.5858 37.4771 32.4374L36.9233 31.8668C36.7788 31.7182 36.7788 31.4758 36.9228 31.3271C38.8352 29.3546 39.8993 26.7055 39.8993 23.9162C39.8993 21.1255 38.8336 18.4745 36.9188 16.5009H36.9185C36.7743 16.3522 36.7743 16.1101 36.9185 15.9615L37.4726 15.3906C37.6166 15.2416 37.8521 15.2416 37.9961 15.3906C40.1978 17.6587 41.4235 20.7078 41.4235 23.9162C41.4235 27.1226 40.1996 30.1693 38.0011 32.4372ZM33.6685 28.6169C33.5984 28.6892 33.5132 28.7253 33.4143 28.7253C33.3154 28.7253 33.2305 28.6889 33.1609 28.6171L32.6237 28.0639C32.4842 27.9199 32.4839 27.6851 32.6237 27.5414C33.5586 26.5753 34.0781 25.2803 34.0781 23.9159C34.0781 22.5502 33.5562 21.2526 32.6189 20.2869L32.5683 20.2345C32.4568 20.1192 32.4568 19.9312 32.5683 19.816L33.1561 19.2106C33.2959 19.0666 33.5237 19.0666 33.6635 19.2106C34.8784 20.4622 35.5554 22.1456 35.5554 23.9159C35.5554 25.6846 34.8803 27.3653 33.6685 28.6169ZM18.4072 30.45C16.7221 28.7109 15.7832 26.3745 15.7832 23.9159C15.7832 21.4559 16.7236 19.1171 18.4119 17.3777C18.5541 17.2313 18.7859 17.2313 18.9278 17.3777L19.5245 17.9929C19.6382 18.1103 19.6382 18.3011 19.5245 18.4182L19.4731 18.4712C18.0667 19.9203 17.2843 21.8665 17.2843 23.9159C17.2843 25.9631 18.0649 27.9079 19.4686 29.3568C19.6105 29.503 19.6105 29.7416 19.4684 29.8878L18.9227 30.4497C18.7809 30.5964 18.5491 30.5962 18.4072 30.45ZM25.7392 12.2607H28.5332C28.8982 12.2607 29.2128 12.4031 29.4599 12.6803C29.707 12.9577 29.8178 13.2925 29.7867 13.6678L28.6598 27.2751C28.6042 27.9484 28.0617 28.4612 27.4059 28.4612H26.866C26.2105 28.4612 25.668 27.9484 25.6124 27.2751L24.4858 13.6678C24.4544 13.2928 24.5654 12.9577 24.8125 12.6803C25.0593 12.4034 25.374 12.2607 25.7392 12.2607ZM27.1361 29.8628C28.6648 29.8628 29.904 31.1394 29.904 32.7146C29.904 34.2898 28.6648 35.5664 27.1361 35.5664C25.6073 35.5664 24.3682 34.2901 24.3682 32.7146C24.3684 31.1394 25.6073 29.8628 27.1361 29.8628Z" fill="white"/>
<path fill-rule="evenodd" clip-rule="evenodd" d="M69.7713 30.5172H63.7798L62.2897 36.0643H57.3848L63.7798 14.4529H69.9886L76.4768 36.0643H71.3856L69.7713 30.5172ZM64.4628 26.8618H69.0883L67.7845 22.2766C67.4119 20.9941 67.0394 19.3908 66.729 18.1083H66.6669C66.3564 19.3908 66.046 21.0261 65.7045 22.2766L64.4628 26.8618Z" fill="#D64130"/>
<path fill-rule="evenodd" clip-rule="evenodd" d="M78.0632 36.0643H82.7818V13.2986H78.0632V36.0643Z" fill="#D64130"/>
<path fill-rule="evenodd" clip-rule="evenodd" d="M99.3553 29.833H89.6594C89.8133 31.8359 91.7217 32.7897 93.9071 32.7897C95.5077 32.7897 96.8005 32.5671 98.0625 32.1538L98.6781 35.4285C97.1391 36.0643 95.2615 36.3823 93.2299 36.3823C88.1203 36.3823 85.1961 33.3302 85.1961 28.4659C85.1961 24.5236 87.5663 20.168 92.799 20.168C97.6624 20.168 99.5092 24.0785 99.5092 27.9254C99.5092 28.752 99.4169 29.4832 99.3553 29.833ZM89.6286 26.5265H95.1691C95.1691 25.3502 94.6766 23.379 92.522 23.379C90.552 23.379 89.7517 25.223 89.6286 26.5265Z" fill="#D64130"/>
<path fill-rule="evenodd" clip-rule="evenodd" d="M101.631 36.0643H106.35V28.1124C106.35 27.7276 106.381 27.3428 106.443 27.0222C106.753 25.5151 107.933 24.5532 109.671 24.5532C110.199 24.5532 110.603 24.6173 110.944 24.6815V20.0962C110.603 20.0321 110.385 20.0321 109.951 20.0321C108.492 20.0321 106.629 20.9941 105.853 23.2706H105.729L105.573 20.3848H101.507C101.569 21.7315 101.631 23.2386 101.631 25.5472V36.0643Z" fill="#D64130"/>
<path fill-rule="evenodd" clip-rule="evenodd" d="M114.474 16.986V20.3848H112.456V23.976H114.474V30.3889C114.474 32.6014 114.909 34.1084 115.778 35.0383C116.523 35.8399 117.796 36.385 119.317 36.385C120.652 36.385 121.769 36.2247 122.39 35.9681L122.359 32.2807C122.018 32.3449 121.552 32.409 120.962 32.409C119.534 32.409 119.1 31.5433 119.1 29.6515V23.976H122.483V20.3848H119.1V15.8958L114.474 16.986Z" fill="#D64130"/>
<path fill-rule="evenodd" clip-rule="evenodd" d="M144.575 36.0643H147.214L145.91 14.4529H142.464L138.739 24.9059C137.807 27.6314 137.062 30.0042 136.535 32.1845H136.441C135.914 29.94 135.2 27.5673 134.33 24.9059L130.76 14.4529H127.315L125.855 36.0643H128.432L128.991 26.7977C129.177 23.5592 129.332 19.9359 129.394 17.2425H129.457C130.046 19.8077 130.885 22.5973 131.878 25.6434L135.262 35.9361H137.311L141.005 25.451C142.06 22.469 142.93 19.7756 143.644 17.2425H143.737C143.706 19.9359 143.892 23.5592 144.047 26.5733L144.575 36.0643Z" fill="#676866"/>
<path fill-rule="evenodd" clip-rule="evenodd" d="M163.28 28.8178H152.725C152.787 32.6334 155.146 34.2046 157.878 34.2046C159.834 34.2046 161.013 33.8519 162.038 33.403L162.504 35.4231C161.541 35.872 159.896 36.385 157.506 36.385C152.88 36.385 150.117 33.2427 150.117 28.5613C150.117 23.8799 152.787 20.1924 157.164 20.1924C162.069 20.1924 163.373 24.6494 163.373 27.5031C163.373 28.0803 163.311 28.5292 163.28 28.8178ZM152.756 26.7977H160.734C160.765 25.0021 160.02 22.2125 156.947 22.2125C154.184 22.2125 152.973 24.8418 152.756 26.7977Z" fill="#676866"/>
<path fill-rule="evenodd" clip-rule="evenodd" d="M176.475 13.2986H179.207V32.0563C179.207 33.4351 179.238 35.0062 179.331 36.0643H176.878L176.754 33.3709H176.692C175.854 35.1024 174.022 36.4171 171.57 36.4171C167.938 36.4171 165.144 33.2427 165.144 28.5292C165.113 23.3668 168.217 20.1924 171.88 20.1924C174.178 20.1924 175.73 21.3147 176.413 22.5652H176.475V13.2986ZM176.475 29.5553V26.8618C176.475 26.5091 176.444 26.0282 176.351 25.6755C175.947 23.8799 174.457 22.4049 172.408 22.4049C169.583 22.4049 167.907 24.97 167.907 28.4009C167.907 31.5433 169.397 34.1405 172.346 34.1405C174.178 34.1405 175.854 32.89 176.351 30.7737C176.444 30.3889 176.475 30.0042 176.475 29.5553Z" fill="#676866"/>
<path fill-rule="evenodd" clip-rule="evenodd" d="M185.945 36.0643V20.5451H183.213V36.0643H185.945Z" fill="#676866"/>
<path fill-rule="evenodd" clip-rule="evenodd" d="M184.579 14.1491C183.586 14.1491 182.872 14.9187 182.872 15.9127C182.872 16.8746 183.554 17.6441 184.517 17.6441C185.603 17.6441 186.286 16.8746 186.255 15.9127C186.255 14.9187 185.603 14.1491 184.579 14.1491Z" fill="#676866"/>
<path fill-rule="evenodd" clip-rule="evenodd" d="M200.491 36.0643H198.008L197.79 34.1084H197.697C196.859 35.3269 195.245 36.4171 193.103 36.4171C190.061 36.4171 188.508 34.2046 188.508 31.9601C188.508 28.2086 191.737 26.1564 197.542 26.1885V25.8678C197.542 24.5853 197.201 22.2766 194.127 22.2766C192.73 22.2766 191.271 22.7255 190.216 23.431L189.595 21.5712C190.837 20.7375 192.637 20.1924 194.531 20.1924C199.125 20.1924 200.243 23.4309 200.243 26.5412V32.3449C200.243 33.6916 200.305 35.0062 200.491 36.0643ZM197.604 30.8378V28.1444C194.624 28.0803 191.24 28.6254 191.24 31.6395C191.24 33.4671 192.42 34.3329 193.817 34.3329C195.773 34.3329 197.014 33.0503 197.449 31.7356C197.542 31.4471 197.604 31.1264 197.604 30.8378Z" fill="#676866"/>
</svg>
