<svg width="344" height="48" viewBox="0 0 344 48" fill="none" xmlns="http://www.w3.org/2000/svg">
<path d="M314.037 8.35146C309.406 8.35146 306.282 11.8103 306.282 16.9428C306.282 22.5216 311.359 27.8773 317.216 34.1255L320.731 37.8633L324.246 34.1255C330.103 27.9331 335.18 22.5774 335.18 16.9428C335.18 11.8103 332.056 8.35146 327.426 8.35146C325.473 8.35146 323.576 9.18827 322.182 10.7503L320.675 12.3682L319.169 10.7503C317.886 9.18827 316.045 8.35146 314.037 8.35146ZM320.787 44L314.371 37.1939C307.844 30.3319 302.209 24.3626 302.209 16.9428C302.209 9.46722 307.23 4 314.092 4C316.547 4 318.834 4.83681 320.787 6.34309C322.739 4.83681 325.083 4 327.481 4C334.343 4 339.364 9.46722 339.364 16.9428C339.364 24.3626 333.73 30.3319 327.202 37.1939L320.787 44Z" fill="#F0AB00"/>
<path d="M280.229 34.1254L282.125 31.4476C283.52 32.6749 285.64 33.5118 287.593 33.5118C289.043 33.5118 290.103 33.0097 290.103 31.9497C290.103 30.8339 289.266 30.4434 287.146 30.0529C284.19 29.495 281.01 28.8256 281.01 25.1436C281.01 21.9637 283.576 20.1784 287.091 20.1784C290.27 20.1784 292.223 21.0153 293.952 22.41L292.111 25.0878C290.549 23.972 288.987 23.3583 287.481 23.3583C286.142 23.3583 285.361 23.9162 285.361 24.753C285.361 25.7014 286.198 26.092 288.15 26.4267C291.219 26.9846 294.51 27.654 294.51 31.2245C294.51 35.018 291.219 36.5243 287.593 36.5243C284.078 36.5801 281.791 35.5201 280.229 34.1254ZM269.35 36.2454V20.5132H274.092V23.1352H274.148C274.984 21.7963 276.491 20.1784 279.448 20.1784H279.615L279.559 24.4183C279.392 24.3625 278.611 24.3068 278.332 24.3068C276.435 24.3068 275.04 25.3109 274.148 26.4825V36.2454H269.35ZM261.874 28.4351C261.874 25.813 260.982 23.6931 258.639 23.6931C256.351 23.6931 255.347 25.5899 255.347 28.4351C255.347 31.0571 256.24 33.2328 258.639 33.2328C260.87 33.2328 261.874 31.2802 261.874 28.4351ZM250.605 28.3793C250.605 22.1868 254.789 20.1784 258.639 20.1784C262.432 20.1784 266.616 22.2426 266.616 28.3793C266.616 34.516 262.432 36.5801 258.639 36.5801C254.845 36.5801 250.605 34.516 250.605 28.3793ZM240.452 31.8381V23.972H237.83V20.5132H240.452V15.1017H245.138V20.5132H249.155V23.972H245.138V30.7782C245.138 32.4518 245.584 33.0097 247.314 33.0097C247.872 33.0097 248.541 32.9539 248.876 32.8423V36.2454C248.541 36.357 246.812 36.4685 245.752 36.4685C241.121 36.4685 240.452 34.7949 240.452 31.8381ZM221.986 28.3793C221.986 22.0752 226.449 20.1784 229.908 20.1784C234.148 20.1784 235.821 22.4657 236.714 24.9762L232.753 26.3151C232.139 24.3068 231.247 23.6373 229.852 23.6373C227.955 23.6373 226.728 25.2551 226.728 28.3793C226.728 31.1687 227.62 33.177 229.796 33.177C231.079 33.177 232.195 32.5076 232.865 30.3876L236.77 31.7265C235.766 34.1812 233.813 36.5243 229.685 36.5243C226.058 36.5801 221.986 34.516 221.986 28.3793ZM214.789 31.5592V28.6582C211.051 29.0487 209.489 29.9971 209.489 31.4476C209.489 32.4518 210.215 32.9539 211.219 32.9539C212.837 32.8981 214.008 32.3402 214.789 31.5592ZM204.859 32.2286C204.859 28.6024 207.927 26.5941 214.789 26.0362V25.6457C214.789 24.4741 214.176 23.7489 212.669 23.7489C210.661 23.7489 208.987 24.5857 207.537 25.7015L205.528 22.9678C207.09 21.5731 209.434 20.1784 213.339 20.1784C217.634 20.1784 219.42 22.2984 219.42 26.3709V32.4518C219.42 34.3486 219.531 35.5201 219.866 36.3012H215.18C214.957 35.6317 214.845 34.9065 214.845 34.0139C213.395 35.6317 211.721 36.5801 209.378 36.5801C206.923 36.4685 204.859 34.9065 204.859 32.2286ZM191.581 36.2454V14.3765H205.975V18.3932H196.379V23.6931H203.185V27.4867H196.379V36.2454H191.581ZM174.454 34.1254L176.351 31.4476C177.746 32.6749 179.866 33.5118 181.763 33.5118C183.213 33.5118 184.273 33.0097 184.273 31.9497C184.273 30.8339 183.436 30.4434 181.316 30.0529C178.36 29.495 175.18 28.8256 175.18 25.1436C175.18 21.9637 177.746 20.1784 181.261 20.1784C184.496 20.1784 186.393 21.0153 188.123 22.41L186.282 25.0878C184.719 23.972 183.157 23.3583 181.651 23.3583C180.312 23.3583 179.531 23.9162 179.531 24.753C179.531 25.7014 180.368 26.092 182.321 26.4267C185.389 26.9846 188.68 27.654 188.68 31.2245C188.68 35.018 185.389 36.5243 181.763 36.5243C178.36 36.5801 176.072 35.5201 174.454 34.1254ZM158.722 34.1254L160.619 31.4476C162.014 32.6749 164.134 33.5118 166.031 33.5118C167.481 33.5118 168.541 33.0097 168.541 31.9497C168.541 30.8339 167.704 30.4434 165.584 30.0529C162.627 29.495 159.448 28.8256 159.448 25.1436C159.448 21.9637 162.014 20.1784 165.528 20.1784C168.764 20.1784 170.661 21.0153 172.39 22.41L170.549 25.0878C168.987 23.972 167.425 23.3583 165.919 23.3583C164.58 23.3583 163.799 23.9162 163.799 24.753C163.799 25.7014 164.636 26.092 166.588 26.4267C169.657 26.9846 172.948 27.654 172.948 31.2245C172.948 35.018 169.657 36.5243 166.031 36.5243C162.627 36.5801 160.34 35.5201 158.722 34.1254ZM153.199 26.873C152.976 24.6415 151.972 23.5815 150.187 23.5815C148.736 23.5815 147.453 24.5299 147.118 26.873H153.199ZM142.376 28.3793C142.376 22.2426 147.007 20.1784 150.242 20.1784C153.478 20.1784 157.439 21.7963 157.439 28.9371V29.6624H147.063C147.286 32.2844 148.736 33.2886 150.689 33.2886C152.53 33.2886 154.259 32.396 155.319 31.3918L157.16 34.237C155.319 35.7991 153.088 36.5801 150.354 36.5801C146.282 36.5801 142.376 34.4602 142.376 28.3793ZM126.533 28.4351C126.533 22.1868 130.94 20.2342 134.399 20.2342C138.639 20.2342 140.312 22.5215 141.205 25.032L137.244 26.3709C136.63 24.3625 135.738 23.6931 134.343 23.6931C132.446 23.6931 131.219 25.3109 131.219 28.4351C131.219 31.2245 132.111 33.2328 134.287 33.2328C135.57 33.2328 136.686 32.5634 137.355 30.4434L141.261 31.7823C140.256 34.237 138.304 36.5801 134.176 36.5801C130.549 36.5801 126.533 34.516 126.533 28.4351ZM110.187 28.3793C110.187 22.0752 114.65 20.1784 118.109 20.1784C122.348 20.1784 124.022 22.4657 124.915 24.9762L120.954 26.3151C120.34 24.3068 119.447 23.6373 118.053 23.6373C116.156 23.6373 114.929 25.2551 114.929 28.3793C114.929 31.1687 115.821 33.177 117.997 33.177C119.28 33.177 120.396 32.5076 121.065 30.3876L124.971 31.7265C123.966 34.1812 122.014 36.5243 117.885 36.5243C114.203 36.5801 110.187 34.516 110.187 28.3793ZM92.9482 32.0055V20.5132H97.6902V30.6108C97.6902 32.0055 98.248 32.7865 99.5312 32.7865C100.814 32.7865 101.874 32.1171 102.934 31.1687V20.4574H107.676V36.2454H102.934V33.7907C101.986 35.018 100.256 36.5801 97.5228 36.5801C94.845 36.5801 92.9482 35.2412 92.9482 32.0055ZM72.6413 31.2803L76.2676 29.1045C77.4391 31.5034 79.6706 32.8423 82.1253 32.8423C84.3568 32.8423 85.9189 32.0055 85.9189 30.3319C85.9189 28.6582 84.3568 27.9888 81.5116 27.1519C77.6065 26.0362 73.5897 25.032 73.5897 20.4574C73.5897 16.3849 76.7697 13.9302 81.4559 13.9302C85.9189 13.9302 88.5967 16.1059 90.103 18.3932L86.7557 20.9595C85.5842 19.1185 83.52 17.8353 81.4001 17.8353C79.3917 17.8353 78.2759 18.7279 78.2759 20.0111C78.2759 21.7405 79.8938 22.3542 82.739 23.191C86.5326 24.251 90.6051 25.4225 90.6051 29.9413C90.6051 33.456 87.983 36.5801 81.9022 36.5801C77.216 36.6359 74.2592 34.4044 72.6413 31.2803ZM50.6609 24.753H53.8966C56.8533 24.753 57.9691 23.5815 57.9691 21.5173C57.9691 19.4532 56.9091 18.3374 53.8966 18.3374H50.6609V24.753ZM45.8631 36.2454V14.3765H53.785C58.4154 14.3765 62.6553 15.6038 62.6553 21.4058C62.6553 27.2635 58.0807 28.4909 53.7292 28.4909H50.6609V36.2454H45.8631ZM30.7445 27.8772H35.877L33.3666 20.4574H33.3108L30.7445 27.8772ZM23.4921 36.2454L31.1908 14.3207H35.7655L43.4642 36.2454H38.6106L36.9928 31.3918H29.573L27.8993 36.2454H23.4921ZM4.63574 31.2803L8.26196 29.1045C9.4893 31.5034 11.665 32.8423 14.1197 32.8423C16.3512 32.8423 17.9133 32.0055 17.9133 30.3319C17.9133 28.6582 16.3512 27.9888 13.506 27.1519C9.60088 26.0362 5.58414 25.032 5.58414 20.4574C5.58414 16.3849 8.76406 13.9302 13.4503 13.9302C17.9133 13.9302 20.5911 16.1059 22.0974 18.3932L18.7501 20.9595C17.5786 19.1185 15.5144 17.8353 13.3945 17.8353C11.3861 17.8353 10.2703 18.7279 10.2703 20.0111C10.2703 21.7405 11.8882 22.3542 14.7334 23.191C18.527 24.251 22.5995 25.4225 22.5995 29.9413C22.5995 33.456 19.9774 36.5801 13.8966 36.5801C9.21036 36.6359 6.25359 34.4044 4.63574 31.2803Z" fill="black"/>
</svg>
