<svg width="176" height="48" viewBox="0 0 176 48" fill="none" xmlns="http://www.w3.org/2000/svg">
<path d="M12.375 4H41.8412C44.7411 4 47.1077 6.35496 47.1077 9.26658V38.7344C47.1077 41.6344 44.7528 43.9993 41.8412 43.9993H12.375C9.47503 43.9993 7.1084 41.646 7.1084 38.7344V9.25325C7.1084 6.35496 9.46169 4 12.375 4Z" fill="#5468FF"/>
<path d="M31.2763 12.9308V11.5592C31.2755 10.6006 30.4982 9.82403 29.5396 9.82422H25.4914C24.5328 9.82403 23.7555 10.6006 23.7547 11.5592V12.9675C23.7547 13.1242 23.8997 13.2342 24.058 13.1975C25.2032 12.8668 26.3894 12.6996 27.5813 12.7008C28.7363 12.7008 29.8796 12.8575 30.9846 13.1608C31.1313 13.1975 31.2763 13.0892 31.2763 12.9308ZM20.1814 14.7258L19.4898 14.0341C19.1643 13.7085 18.7228 13.5255 18.2623 13.5255C17.8019 13.5255 17.3603 13.7085 17.0348 14.0341L16.2082 14.8591C15.8818 15.1836 15.6982 15.6247 15.6982 16.0849C15.6982 16.5451 15.8818 16.9863 16.2082 17.3108L16.8882 17.9907C16.9982 18.0991 17.1565 18.0741 17.2532 17.9657C17.6543 17.4148 18.0973 16.8955 18.5781 16.4124C19.063 15.9259 19.587 15.48 20.1448 15.0791C20.2661 15.0058 20.2781 14.8358 20.1814 14.7258ZM27.5693 19.0807V25.014C27.5693 25.184 27.7527 25.3056 27.9093 25.2206L33.1842 22.4907C33.3042 22.4307 33.3409 22.284 33.2809 22.164C32.1876 20.2457 30.1576 18.9357 27.8127 18.8507C27.691 18.8507 27.5693 18.9474 27.5693 19.0807ZM27.5693 33.3738C23.1711 33.3738 19.5978 29.8056 19.5978 25.414C19.5978 21.0224 23.1711 17.4558 27.5693 17.4558C31.9692 17.4558 35.5412 21.0224 35.5412 25.414C35.5412 29.8056 31.9812 33.3738 27.5693 33.3738ZM27.5693 14.1075C21.3228 14.1075 16.2562 19.1674 16.2562 25.414C16.2562 31.6622 21.3228 36.7104 27.5693 36.7104C33.8159 36.7104 38.8825 31.6505 38.8825 25.4023C38.8825 19.1541 33.8276 14.1075 27.5693 14.1075Z" fill="white"/>
<path d="M86.8453 35.7265C79.0571 35.7628 79.0571 29.4412 79.0571 28.4346L79.0437 4.75332L83.795 4V27.5363C83.795 28.1079 83.795 31.7229 86.8449 31.7345V35.7261L86.8453 35.7265ZM67.5856 31.8562C69.0436 31.8562 70.1255 31.7712 70.8789 31.6262V26.798C70.5027 26.6979 70.1209 26.6206 69.7356 26.5663C69.1886 26.4852 68.6365 26.4445 68.0836 26.4446C67.5603 26.4446 67.0253 26.4813 66.4919 26.5663C65.957 26.6396 65.4703 26.7846 65.0453 26.9913C64.6203 27.1979 64.267 27.4896 64.012 27.8646C63.7453 28.2413 63.6237 28.4596 63.6237 29.0296C63.6237 30.1446 64.012 30.7896 64.717 31.2129C65.422 31.6379 66.3819 31.8562 67.5856 31.8562ZM67.1723 14.6282C68.7389 14.6282 70.0635 14.8232 71.1335 15.2115C72.2022 15.5998 73.0655 16.1448 73.6968 16.8365C74.3418 17.5398 74.7785 18.4748 75.0455 19.4697C75.3255 20.4647 75.4588 21.5564 75.4588 22.7564V34.9628C74.7305 35.1195 73.6235 35.3011 72.1422 35.5195C70.6602 35.7378 68.9956 35.8478 67.1469 35.8478C65.9203 35.8478 64.7903 35.7261 63.782 35.4961C62.7603 35.2661 61.8987 34.8895 61.1687 34.3678C60.452 33.8462 59.8937 33.1778 59.4804 32.3545C59.0787 31.5279 58.8721 30.3646 58.8721 29.1512C58.8721 27.9863 59.1021 27.2463 59.5537 26.4446C60.0137 25.6446 60.6337 24.9897 61.412 24.4797C62.202 23.9697 63.1003 23.6063 64.1336 23.388C65.167 23.1697 66.2486 23.0597 67.3653 23.0597C67.8886 23.0597 68.4352 23.0963 69.0186 23.1563C69.5902 23.218 70.2102 23.328 70.8669 23.4847V22.708C70.8669 22.163 70.8052 21.6414 70.6719 21.1564C70.5437 20.6784 70.3109 20.235 69.9902 19.8581C69.6619 19.4814 69.2386 19.1897 68.7036 18.9847C68.1686 18.7781 67.4869 18.6198 66.6736 18.6198C65.5803 18.6198 64.5836 18.7531 63.672 18.9114C62.7603 19.0681 62.007 19.2514 61.4354 19.4564L60.8654 15.5631C61.4604 15.3565 62.347 15.1498 63.4903 14.9448C64.632 14.7248 65.8603 14.6282 67.1719 14.6282H67.1723ZM161.007 31.7229C162.466 31.7229 163.546 31.6379 164.299 31.4912V26.6646C164.032 26.5913 163.656 26.5063 163.157 26.433C162.61 26.3519 162.057 26.3112 161.504 26.3113C160.982 26.3113 160.447 26.348 159.912 26.433C159.379 26.5063 158.892 26.6513 158.467 26.858C158.041 27.0646 157.689 27.3563 157.434 27.7313C157.166 28.1079 157.046 28.3263 157.046 28.8963C157.046 30.0112 157.434 30.6562 158.139 31.0795C158.856 31.5162 159.804 31.7229 161.007 31.7229ZM160.606 14.5082C162.172 14.5082 163.497 14.7015 164.567 15.0898C165.635 15.4781 166.499 16.0231 167.13 16.7148C167.762 17.4064 168.212 18.3531 168.479 19.3481C168.759 20.3431 168.892 21.4347 168.892 22.6364V34.8412C168.164 34.9978 167.057 35.1795 165.575 35.3995C164.094 35.6178 162.429 35.7261 160.58 35.7261C159.354 35.7261 158.224 35.6045 157.216 35.3745C156.194 35.1445 155.332 34.7678 154.602 34.2462C153.886 33.7245 153.327 33.0562 152.914 32.2329C152.513 31.4079 152.306 30.2429 152.306 29.0296C152.306 27.8646 152.538 27.1246 152.988 26.323C153.447 25.523 154.067 24.868 154.846 24.358C155.636 23.8497 156.534 23.4847 157.567 23.2663C158.601 23.048 159.682 22.9397 160.801 22.9397C161.322 22.9397 161.869 22.9764 162.452 23.0364C163.036 23.0963 163.644 23.2063 164.299 23.3647V22.588C164.299 22.0414 164.239 21.5197 164.106 21.0347C163.978 20.5566 163.745 20.1131 163.424 19.7364C163.096 19.3597 162.672 19.0681 162.137 18.8631C161.602 18.6564 160.921 18.4998 160.107 18.4998C159.014 18.4998 158.017 18.6331 157.106 18.7898C156.194 18.9481 155.441 19.1297 154.869 19.3364L154.299 15.4415C154.894 15.2348 155.781 15.0298 156.924 14.8232C158.066 14.6165 159.292 14.5082 160.606 14.5082ZM146.339 12.2515C147.931 12.2515 149.233 10.9649 149.233 9.37491C149.233 7.7866 147.944 6.49996 146.339 6.49996C144.736 6.49996 143.448 7.7866 143.448 9.37491C143.448 10.9649 144.748 12.2515 146.339 12.2515ZM148.733 35.7261H143.957V15.2465L148.732 14.4948V35.7261H148.733ZM140.361 35.7265C132.573 35.7628 132.573 29.4412 132.573 28.4346L132.559 4.75332L137.311 4V27.5363C137.311 28.1079 137.311 31.7229 140.361 31.7345V35.7265ZM124.916 25.2446C124.916 23.193 124.466 21.483 123.591 20.2947C122.716 19.0931 121.49 18.4998 119.921 18.4998C118.355 18.4998 117.126 19.0931 116.253 20.2947C115.378 21.4947 114.951 23.193 114.951 25.2446C114.951 27.3196 115.39 28.7129 116.265 29.9146C117.14 31.1279 118.366 31.7229 119.935 31.7229C121.501 31.7229 122.73 31.1162 123.605 29.9146C124.479 28.7013 124.916 27.3196 124.916 25.2446ZM129.776 25.233C129.776 26.8346 129.546 28.0463 129.071 29.3696C128.598 30.6912 127.93 31.8195 127.068 32.7545C126.205 33.6878 125.171 34.4162 123.956 34.9262C122.741 35.4345 120.869 35.7261 119.934 35.7261C118.998 35.7145 117.139 35.4478 115.936 34.9262C114.733 34.4045 113.699 33.6878 112.838 32.7545C111.975 31.8195 111.307 30.6912 110.82 29.3696C110.335 28.0463 110.092 26.8346 110.092 25.233C110.092 23.6313 110.31 22.0897 110.796 20.7797C111.283 19.4697 111.963 18.3531 112.838 17.4198C113.713 16.4848 114.758 15.7681 115.948 15.2598C117.151 14.7498 118.476 14.5082 119.909 14.5082C121.344 14.5082 122.668 14.7615 123.883 15.2598C125.099 15.7681 126.145 16.4848 126.995 17.4198C127.856 18.3531 128.525 19.4697 129.011 20.7797C129.521 22.0897 129.776 23.6313 129.776 25.233H129.776ZM94.0152 25.233C94.0152 27.2213 94.4518 29.4296 95.3268 30.3512C96.2018 31.2745 97.3314 31.7345 98.7184 31.7345C99.4717 31.7345 100.188 31.6262 100.856 31.4195C101.525 31.2129 102.058 30.9696 102.485 30.6796V18.8998C102.145 18.8264 100.723 18.5348 99.3484 18.4998C97.6234 18.4498 96.3118 19.1547 95.3885 20.2814C94.4765 21.4114 94.0152 23.388 94.0152 25.233ZM107.223 34.5978C107.223 37.8378 106.397 40.2027 104.731 41.7077C103.068 43.211 100.528 43.9643 97.1014 43.9643C95.8498 43.9643 93.2498 43.721 91.1715 43.261L91.9365 39.4994C93.6748 39.8627 95.9714 39.9611 97.1748 39.9611C99.0814 39.9611 100.443 39.5727 101.256 38.7961C102.071 38.0194 102.471 36.8678 102.471 35.3378V34.5612C101.998 34.7912 101.378 35.0228 100.613 35.2661C99.8481 35.4961 98.9614 35.6178 97.9631 35.6178C96.6514 35.6178 95.4598 35.4111 94.3798 34.9978C93.2982 34.5862 92.3615 33.9795 91.5965 33.1778C90.8315 32.3779 90.2232 31.3712 89.7982 30.1696C89.3732 28.9679 89.1532 26.8213 89.1532 25.2446C89.1532 23.7647 89.3849 21.908 89.8352 20.6697C90.2965 19.4331 90.9519 18.3648 91.8398 17.4798C92.7152 16.5948 93.7848 15.9148 95.0365 15.4165C96.2881 14.9198 97.7564 14.6048 99.3481 14.6048C100.893 14.6048 102.315 14.7982 103.7 15.0298C105.085 15.2598 106.263 15.5015 107.223 15.7681V34.5978H107.223Z" fill="#5468FF"/>
</svg>
