<svg width="232" height="48" viewBox="0 0 232 48" fill="none" xmlns="http://www.w3.org/2000/svg">
<path d="M220.469 39.4339C220.558 40.2114 221.318 41.5161 223.32 41.5161C225.08 41.5161 225.929 40.3544 225.929 39.3088C225.929 38.29 225.25 37.4947 223.945 37.2087L222.9 36.9943C222.471 36.9049 222.203 36.6368 222.203 36.2704C222.203 35.8414 222.614 35.475 223.195 35.475C224.115 35.475 224.41 36.1095 224.473 36.5117L225.858 36.1185C225.742 35.4393 225.125 34.1882 223.195 34.1882C221.765 34.1882 220.657 35.207 220.657 36.4134C220.657 37.3607 221.291 38.156 222.516 38.4241L223.534 38.6475C224.088 38.7637 224.339 39.0407 224.339 39.416C224.339 39.845 223.981 40.2114 223.302 40.2114C222.426 40.2114 221.953 39.6573 221.899 39.0318L220.469 39.4339ZM218.601 38.8977C218.378 39.5769 217.869 40.1042 216.877 40.1042C215.858 40.1042 215.036 39.3535 214.991 38.3079H220.031C220.049 38.2811 220.076 38.0488 220.076 37.7807C220.076 35.6002 218.825 34.1971 216.707 34.1971C214.964 34.1971 213.347 35.6448 213.347 37.8254C213.347 40.1667 215 41.5251 216.877 41.5251C218.53 41.5251 219.629 40.551 219.995 39.3446L218.601 38.8977ZM215.027 37.1015C215.08 36.3687 215.679 35.5733 216.716 35.5733C217.851 35.5733 218.387 36.2972 218.414 37.1015H215.027ZM210.442 31.9898C210.442 32.5885 210.925 33.0532 211.506 33.0532C212.104 33.0532 212.578 32.5885 212.578 31.9898C212.578 31.3911 212.096 30.9174 211.506 30.9174C210.925 30.9085 210.442 31.3911 210.442 31.9898ZM212.328 34.4116H210.701V41.3106H212.328V34.4116ZM208.029 37.8522C208.029 39.1658 207.261 40.0237 206.171 40.0237C205.098 40.0237 204.312 39.1748 204.312 37.8522C204.312 36.5653 205.089 35.7163 206.171 35.7163C207.279 35.7163 208.029 36.5653 208.029 37.8522ZM204.33 44.0005V40.5242C204.687 41.0514 205.438 41.4715 206.43 41.4715C208.414 41.4715 209.674 39.9165 209.674 37.8432C209.674 35.8057 208.53 34.2418 206.483 34.2418C205.42 34.2418 204.625 34.7333 204.285 35.3321V34.3937H202.694V43.9826H204.33V44.0005ZM199.602 40.3186C199.602 40.7833 199.647 41.1587 199.674 41.3106H201.247C201.229 41.1676 201.175 40.6135 201.175 40.0505V34.4116H199.575V35.3142C199.388 34.8495 198.771 34.2061 197.547 34.2061C195.563 34.2061 194.249 35.8236 194.249 37.8164C194.249 39.8808 195.554 41.4893 197.583 41.4893C198.566 41.4893 199.29 40.9799 199.602 40.3186ZM195.894 37.8254C195.894 36.4938 196.662 35.6448 197.761 35.6448C198.852 35.6448 199.584 36.4938 199.584 37.8254C199.584 39.1569 198.834 40.0774 197.761 40.0774C196.609 40.0774 195.894 39.139 195.894 37.8254ZM194.106 34.3669C194.035 34.349 193.865 34.3222 193.668 34.3222C192.766 34.3222 191.997 34.7601 191.667 35.5108V34.4027H190.067V41.3017H191.711V38.022C191.711 36.7351 192.292 35.9934 193.57 35.9934C193.74 35.9934 193.928 36.0112 194.106 36.038V34.3669ZM187.592 38.8977C187.368 39.5769 186.859 40.1042 185.867 40.1042C184.848 40.1042 184.026 39.3535 183.981 38.3079H189.021C189.039 38.2811 189.066 38.0488 189.066 37.7807C189.066 35.6002 187.815 34.1971 185.697 34.1971C183.954 34.1971 182.337 35.6448 182.337 37.8254C182.337 40.1667 183.99 41.5251 185.867 41.5251C187.52 41.5251 188.619 40.551 188.986 39.3446L187.592 38.8977ZM184.017 37.1015C184.071 36.3687 184.669 35.5733 185.706 35.5733C186.841 35.5733 187.377 36.2972 187.404 37.1015H184.017ZM176.948 37.2534C176.975 36.3776 177.475 35.6985 178.378 35.6985C179.415 35.6985 179.799 36.3776 179.799 37.2266V41.3106H181.443V36.9496C181.443 35.4304 180.621 34.215 178.923 34.215C178.199 34.215 177.422 34.4742 176.957 35.0818V31.0604H175.313V41.3195H176.957V37.2534H176.948ZM171.47 32.2936V33.3303C171.47 33.938 171.148 34.4027 170.407 34.4027H170.049V35.8593H171.327V39.3267C171.327 40.6135 172.122 41.3821 173.391 41.3821C173.99 41.3821 174.294 41.2659 174.401 41.2302V39.8718C174.33 39.8897 174.062 39.9254 173.838 39.9254C173.231 39.9254 172.963 39.6663 172.963 39.0586V35.8593H174.392V34.4027H172.963V32.2936H171.47ZM166.314 34.1971C164.258 34.1971 162.748 35.7431 162.748 37.8522C162.748 39.9791 164.267 41.5251 166.314 41.5251C168.378 41.5251 169.897 39.9791 169.897 37.8522C169.897 35.7431 168.378 34.1971 166.314 34.1971ZM166.314 40.0505C165.304 40.0505 164.383 39.282 164.383 37.8522C164.383 36.4223 165.304 35.6806 166.314 35.6806C167.333 35.6806 168.244 36.4134 168.244 37.8522C168.235 39.2999 167.333 40.0505 166.314 40.0505ZM159.835 31.9898C159.835 32.5885 160.317 33.0532 160.898 33.0532C161.497 33.0532 161.971 32.5885 161.971 31.9898C161.971 31.3911 161.488 30.9174 160.898 30.9174C160.317 30.9085 159.835 31.3911 159.835 31.9898ZM161.72 34.4116H160.094V41.3106H161.72V34.4116ZM153.892 39.8629V36.9406H155.679C156.725 36.9406 157.306 37.5483 157.306 38.4152C157.306 39.3088 156.635 39.8629 155.617 39.8629H153.892ZM153.892 35.5108V32.7047H155.393C156.43 32.7047 157.02 33.2588 157.02 34.1078C157.02 34.9478 156.421 35.5108 155.429 35.5108H153.892ZM152.203 41.3106H155.912C157.779 41.3106 159.03 40.1488 159.03 38.5313C159.03 37.3428 158.298 36.4223 157.234 36.1363C158.101 35.8236 158.718 35.0282 158.718 33.9648C158.718 32.3919 157.583 31.257 155.661 31.257H152.203V41.3106ZM142.605 33.5179C142.605 32.7941 143.168 32.4456 143.695 32.4456C144.348 32.4456 144.812 32.9281 144.812 33.5179C144.812 33.9022 144.661 34.2686 144.133 34.6618L143.552 35.0908L143.266 34.778C142.918 34.3937 142.605 34.0005 142.605 33.5179ZM143.49 40.0059C142.668 40.0059 142.158 39.3714 142.158 38.7458C142.158 38.0934 142.498 37.6824 142.98 37.3249L143.32 37.0657L145.179 39.0318L145.161 39.0497C144.652 39.6037 144.151 40.0059 143.49 40.0059ZM147.341 41.3106H149.54L147.27 38.9424L148.646 37.4232V35.2963L146.251 37.879L144.58 36.1363L145.018 35.8146C145.724 35.2784 146.439 34.5367 146.439 33.5448C146.439 32.0434 145.259 31.0515 143.686 31.0515C142.382 31.0515 140.997 31.9541 140.997 33.6162C140.997 34.5546 141.667 35.3321 142.14 35.8236L142.31 36.0112L142.212 36.0827C141.166 36.8602 140.469 37.5662 140.469 38.862C140.469 40.1757 141.515 41.4983 143.454 41.4983C144.544 41.4983 145.42 40.9621 146.207 40.122L147.341 41.3106ZM136.957 31.0515H135.358V35.2159C135.143 34.778 134.535 34.2239 133.329 34.2239C131.39 34.2239 130.04 35.8504 130.04 37.8343C130.04 39.9165 131.372 41.4715 133.356 41.4715C134.33 41.4715 135.054 40.9889 135.384 40.408C135.384 40.694 135.429 41.1408 135.456 41.3017H137.029C137.011 41.1855 136.957 40.6672 136.957 40.0416V31.0515ZM131.685 37.8343C131.685 36.5206 132.48 35.6806 133.552 35.6806C134.625 35.6806 135.367 36.5027 135.367 37.8164C135.367 39.1301 134.616 40.0237 133.543 40.0237C132.417 40.0327 131.685 39.1569 131.685 37.8343ZM125.974 34.1971C123.919 34.1971 122.409 35.7431 122.409 37.8522C122.409 39.9791 123.928 41.5251 125.974 41.5251C128.039 41.5251 129.558 39.9791 129.558 37.8522C129.558 35.7431 128.048 34.1971 125.974 34.1971ZM125.974 40.0505C124.964 40.0505 124.044 39.282 124.044 37.8522C124.044 36.4223 124.964 35.6806 125.974 35.6806C126.993 35.6806 127.905 36.4134 127.905 37.8522C127.905 39.2999 126.993 40.0505 125.974 40.0505ZM118.342 34.1971C116.287 34.1971 114.777 35.7431 114.777 37.8522C114.777 39.9791 116.296 41.5251 118.342 41.5251C120.407 41.5251 121.926 39.9791 121.926 37.8522C121.926 35.7431 120.407 34.1971 118.342 34.1971ZM118.342 40.0505C117.333 40.0505 116.412 39.282 116.412 37.8522C116.412 36.4223 117.333 35.6806 118.342 35.6806C119.361 35.6806 120.273 36.4134 120.273 37.8522C120.264 39.2999 119.361 40.0505 118.342 40.0505ZM113.749 31.0515H112.105V41.3106H113.749V31.0515ZM105.903 39.8629V36.9406H107.69C108.736 36.9406 109.317 37.5483 109.317 38.4152C109.317 39.3088 108.646 39.8629 107.628 39.8629H105.903ZM105.903 35.5108V32.7047H107.404C108.441 32.7047 109.031 33.2588 109.031 34.1078C109.031 34.9478 108.432 35.5108 107.44 35.5108H105.903ZM104.214 41.3106H107.922C109.79 41.3106 111.041 40.1488 111.041 38.5313C111.041 37.3428 110.309 36.4223 109.245 36.1363C110.112 35.8236 110.729 35.0282 110.729 33.9648C110.729 32.3919 109.594 31.257 107.672 31.257H104.214V41.3106Z" fill="#33647E"/>
<path d="M202.221 18.9961C202.533 18.9961 202.712 19.0408 202.819 19.0676V17.6646C202.703 17.6109 202.364 17.5216 201.953 17.5216C200.532 17.5216 199.549 18.4599 199.549 19.997V20.9443H198.342V22.3741H199.549V27.8433H201.202V22.383H202.802V20.9532H201.202V20.0506C201.202 19.1927 201.783 18.9961 202.221 18.9961ZM194.553 20.7387C192.498 20.7387 190.987 22.2847 190.987 24.3938C190.987 26.5206 192.507 28.0667 194.553 28.0667C196.617 28.0667 198.137 26.5206 198.137 24.3938C198.137 22.2847 196.626 20.7387 194.553 20.7387ZM194.553 26.5921C193.543 26.5921 192.623 25.8236 192.623 24.3938C192.623 22.9639 193.543 22.2222 194.553 22.2222C195.572 22.2222 196.483 22.955 196.483 24.3938C196.483 25.8415 195.572 26.5921 194.553 26.5921ZM184.929 18.8442V19.8808C184.929 20.4885 184.607 20.9532 183.865 20.9532H183.508V22.4098H184.786V25.8772C184.786 27.1641 185.581 27.9326 186.85 27.9326C187.449 27.9326 187.752 27.8164 187.86 27.7807V26.4223C187.788 26.4402 187.52 26.476 187.297 26.476C186.689 26.476 186.421 26.2168 186.421 25.6091V22.4098H187.851V20.9532H186.421V18.8442H184.929ZM178.405 23.8665C178.405 22.9639 178.896 22.2401 179.835 22.2401C180.871 22.2401 181.256 22.9192 181.256 23.7682V27.8522H182.9V23.4912C182.9 21.972 182.096 20.7566 180.407 20.7566C179.638 20.7566 178.816 21.0783 178.369 21.8737V20.9532H176.769V27.8522H178.414V23.8665H178.405ZM174.285 25.4393C174.062 26.1185 173.552 26.6458 172.56 26.6458C171.542 26.6458 170.719 25.8951 170.675 24.8495H175.715C175.733 24.8227 175.76 24.5904 175.76 24.3223C175.76 22.1418 174.509 20.7387 172.391 20.7387C170.648 20.7387 169.03 22.1864 169.03 24.3669C169.03 26.7083 170.684 28.0667 172.56 28.0667C174.214 28.0667 175.313 27.0926 175.679 25.8862L174.285 25.4393ZM170.711 23.6431C170.764 22.9103 171.363 22.1149 172.4 22.1149C173.534 22.1149 174.071 22.8388 174.097 23.6431H170.711ZM159.397 27.8522V23.7593C159.397 22.8835 159.951 22.2311 160.827 22.2311C161.765 22.2311 162.158 22.8567 162.158 23.652V27.8611H163.776V23.7682C163.776 22.9192 164.339 22.2401 165.206 22.2401C166.126 22.2401 166.537 22.8477 166.537 23.661V27.8701H168.128V23.3929C168.128 21.5698 166.939 20.7745 165.688 20.7745C164.795 20.7745 163.99 21.0872 163.454 21.9898C163.088 21.1855 162.292 20.7745 161.39 20.7745C160.612 20.7745 159.745 21.1409 159.352 21.8468V20.9532H157.779V27.8522H159.397ZM155.286 25.4393C155.063 26.1185 154.553 26.6458 153.561 26.6458C152.543 26.6458 151.72 25.8951 151.676 24.8495H156.716C156.734 24.8227 156.761 24.5904 156.761 24.3223C156.761 22.1418 155.509 20.7387 153.392 20.7387C151.649 20.7387 150.031 22.1864 150.031 24.3669C150.031 26.7083 151.685 28.0667 153.561 28.0667C155.215 28.0667 156.314 27.0926 156.68 25.8862L155.286 25.4393ZM151.711 23.6431C151.765 22.9103 152.364 22.1149 153.4 22.1149C154.535 22.1149 155.072 22.8388 155.098 23.6431H151.711ZM146.546 22.2579C147.592 22.2579 148.065 22.9371 148.217 23.5448L149.692 23.0086C149.406 21.9005 148.387 20.7387 146.528 20.7387C144.544 20.7387 142.998 22.2669 142.998 24.3938C142.998 26.4938 144.544 28.0667 146.564 28.0667C148.378 28.0667 149.415 26.887 149.736 25.8147L148.289 25.2874C148.137 25.8147 147.636 26.5653 146.564 26.5653C145.527 26.5653 144.634 25.7879 144.634 24.3938C144.643 23.0086 145.536 22.2579 146.546 22.2579ZM137.619 23.8665C137.619 22.9639 138.11 22.2401 139.048 22.2401C140.085 22.2401 140.469 22.9192 140.469 23.7682V27.8522H142.114V23.4912C142.114 21.972 141.309 20.7566 139.62 20.7566C138.852 20.7566 138.03 21.0783 137.583 21.8737V20.9532H135.983V27.8522H137.627V23.8665H137.619ZM132.873 26.8602C132.873 27.3249 132.918 27.7003 132.945 27.8522H134.518C134.5 27.7092 134.446 27.1551 134.446 26.5921V20.9532H132.846V21.8558C132.659 21.3911 132.042 20.7477 130.818 20.7477C128.834 20.7477 127.52 22.3652 127.52 24.358C127.52 26.4223 128.825 28.0309 130.854 28.0309C131.837 28.0309 132.56 27.5215 132.873 26.8602ZM129.165 24.3669C129.165 23.0354 129.933 22.1864 131.032 22.1864C132.123 22.1864 132.855 23.0354 132.855 24.3669C132.855 25.6985 132.105 26.6189 131.032 26.6189C129.888 26.6189 129.165 25.6806 129.165 24.3669ZM127.636 20.9532H125.912L124.124 25.8862L122.301 20.9532H120.487L123.293 27.8522H124.938L127.636 20.9532ZM119.817 17.5931H118.217V21.7575C118.003 21.3196 117.395 20.7655 116.189 20.7655C114.25 20.7655 112.9 22.392 112.9 24.3759C112.9 26.4581 114.232 28.013 116.216 28.013C117.19 28.013 117.914 27.5305 118.244 26.9496C118.244 27.2356 118.289 27.6824 118.316 27.8433H119.888C119.871 27.7271 119.817 27.2088 119.817 26.5832V17.5931ZM114.544 24.3759C114.544 23.0622 115.34 22.2222 116.412 22.2222C117.485 22.2222 118.226 23.0443 118.226 24.358C118.226 25.6717 117.476 26.5653 116.403 26.5653C115.277 26.5743 114.544 25.6985 114.544 24.3759ZM108.012 19.6485L109.54 23.7593H106.484L108.012 19.6485ZM111.086 27.8522H112.945L109.031 17.8075H107.065L103.15 27.8522H104.947L105.885 25.3321H110.139L111.086 27.8522Z" fill="#33647E"/>
<path d="M212.748 11.9809C212.524 12.6601 212.015 13.1874 211.023 13.1874C210.004 13.1874 209.182 12.4367 209.138 11.3911H214.178C214.196 11.3643 214.222 11.132 214.222 10.8639C214.222 8.68335 212.971 7.28031 210.853 7.28031C209.111 7.28031 207.493 8.72803 207.493 10.9085C207.493 13.2499 209.146 14.6083 211.023 14.6083C212.676 14.6083 213.776 13.6342 214.142 12.4278L212.748 11.9809ZM209.182 10.1847C209.236 9.45189 209.835 8.65654 210.871 8.65654C212.006 8.65654 212.542 9.3804 212.569 10.1847H209.182ZM202.113 10.3366C202.14 9.46083 202.641 8.78165 203.543 8.78165C204.58 8.78165 204.964 9.46083 204.964 10.3098V14.3938H206.609V10.0238C206.609 8.50462 205.786 7.28925 204.088 7.28925C203.365 7.28925 202.587 7.54841 202.122 8.15609V4.13466H200.478V14.3938H202.122V10.3366H202.113ZM196.635 5.38577V6.42241C196.635 7.03009 196.314 7.49479 195.572 7.49479H195.214V8.95144H196.492V12.4188C196.492 13.7057 197.288 14.4742 198.557 14.4742C199.155 14.4742 199.459 14.358 199.567 14.3223V12.9639C199.495 12.9818 199.227 13.0176 199.004 13.0176C198.396 13.0176 198.128 12.7584 198.128 12.1507V8.95144H199.558V7.49479H198.128V5.38577H196.635ZM192.659 7.45011C192.587 7.43224 192.417 7.40543 192.221 7.40543C191.318 7.40543 190.55 7.84332 190.219 8.59398V7.49479H188.619V14.3938H190.264V11.1051C190.264 9.81829 190.844 9.07656 192.122 9.07656C192.292 9.07656 192.48 9.09443 192.659 9.12124V7.45011ZM184.017 7.28031C181.962 7.28031 180.451 8.82633 180.451 10.9354C180.451 13.0622 181.971 14.6083 184.017 14.6083C186.081 14.6083 187.601 13.0622 187.601 10.9354C187.601 8.82633 186.081 7.28031 184.017 7.28031ZM184.017 13.1337C183.007 13.1337 182.087 12.3652 182.087 10.9354C182.087 9.50551 183.007 8.76378 184.017 8.76378C185.036 8.76378 185.947 9.49657 185.947 10.9354C185.938 12.3831 185.036 13.1337 184.017 13.1337ZM179.861 5.53769C180.174 5.53769 180.353 5.58237 180.46 5.60918V4.20615C180.344 4.15253 180.004 4.06317 179.593 4.06317C178.172 4.06317 177.189 5.0015 177.189 6.53858V7.48585H175.983V8.9157H177.189V14.3848H178.843V8.92463H180.442V7.49479H178.843V6.58327C178.843 5.7343 179.424 5.53769 179.861 5.53769ZM168.289 10.4081C168.289 9.50551 168.78 8.78165 169.719 8.78165C170.755 8.78165 171.139 9.46083 171.139 10.3098V14.3938H172.784V10.0238C172.784 8.50462 171.979 7.28925 170.29 7.28925C169.522 7.28925 168.7 7.61097 168.253 8.40632V7.49479H166.653V14.3938H168.298V10.4081H168.289ZM162.042 7.28031C159.987 7.28031 158.476 8.82633 158.476 10.9354C158.476 13.0622 159.996 14.6083 162.042 14.6083C164.106 14.6083 165.626 13.0622 165.626 10.9354C165.626 8.82633 164.106 7.28031 162.042 7.28031ZM162.042 13.1337C161.032 13.1337 160.112 12.3652 160.112 10.9354C160.112 9.50551 161.032 8.76378 162.042 8.76378C163.061 8.76378 163.972 9.49657 163.972 10.9354C163.972 12.3831 163.061 13.1337 162.042 13.1337ZM155.572 5.07299C155.572 5.67174 156.055 6.13644 156.635 6.13644C157.234 6.13644 157.708 5.67174 157.708 5.07299C157.708 4.47425 157.225 4.00061 156.635 4.00061C156.046 3.99167 155.572 4.47425 155.572 5.07299ZM157.449 7.49479H155.822V14.3938H157.449V7.49479ZM151.792 5.38577V6.42241C151.792 7.03009 151.47 7.49479 150.728 7.49479H150.371V8.95144H151.649V12.4188C151.649 13.7057 152.444 14.4742 153.713 14.4742C154.312 14.4742 154.616 14.358 154.723 14.3223V12.9639C154.652 12.9818 154.383 13.0176 154.16 13.0176C153.552 13.0176 153.284 12.7584 153.284 12.1507V8.95144H154.714V7.49479H153.284V5.38577H151.792ZM148.092 13.4018C148.092 13.8665 148.137 14.2419 148.164 14.3938H149.736C149.719 14.2508 149.665 13.6967 149.665 13.1337V7.49479H148.065V8.39738C147.878 7.93268 147.261 7.28925 146.037 7.28925C144.053 7.28925 142.739 8.90676 142.739 10.8996C142.739 12.9639 144.044 14.5725 146.073 14.5725C147.056 14.5725 147.779 14.0631 148.092 13.4018ZM144.375 10.9085C144.375 9.577 145.143 8.72803 146.242 8.72803C147.333 8.72803 148.065 9.577 148.065 10.9085C148.065 12.2401 147.315 13.1605 146.242 13.1605C145.098 13.1605 144.375 12.2222 144.375 10.9085ZM139.826 5.07299C139.826 5.67174 140.308 6.13644 140.889 6.13644C141.488 6.13644 141.962 5.67174 141.962 5.07299C141.962 4.47425 141.479 4.00061 140.889 4.00061C140.308 3.99167 139.826 4.47425 139.826 5.07299ZM141.711 7.49479H140.085V14.3938H141.711V7.49479ZM135.992 8.79952C137.038 8.79952 137.511 9.4787 137.663 10.0864L139.138 9.55019C138.852 8.44206 137.833 7.28031 135.974 7.28031C133.99 7.28031 132.444 8.80846 132.444 10.9354C132.444 13.0354 133.99 14.6083 136.01 14.6083C137.824 14.6083 138.861 13.4286 139.182 12.3563L137.735 11.829C137.583 12.3563 137.082 13.1069 136.01 13.1069C134.973 13.1069 134.08 12.3295 134.08 10.9354C134.08 9.54126 134.982 8.79952 135.992 8.79952ZM128.387 7.28031C126.332 7.28031 124.821 8.82633 124.821 10.9354C124.821 13.0622 126.341 14.6083 128.387 14.6083C130.451 14.6083 131.971 13.0622 131.971 10.9354C131.971 8.82633 130.451 7.28031 128.387 7.28031ZM128.387 13.1337C127.377 13.1337 126.457 12.3652 126.457 10.9354C126.457 9.50551 127.377 8.76378 128.387 8.76378C129.406 8.76378 130.317 9.49657 130.317 10.9354C130.308 12.3831 129.406 13.1337 128.387 13.1337ZM118.879 12.5171C118.968 13.2946 119.728 14.5993 121.729 14.5993C123.49 14.5993 124.339 13.4376 124.339 12.392C124.339 11.3732 123.66 10.5779 122.355 10.2919L121.309 10.0774C120.88 9.98808 120.612 9.71999 120.612 9.35359C120.612 8.92463 121.023 8.55824 121.604 8.55824C122.525 8.55824 122.82 9.19273 122.882 9.59487L124.267 9.20167C124.151 8.52249 123.535 7.27138 121.604 7.27138C120.174 7.27138 119.066 8.29014 119.066 9.49657C119.066 10.4438 119.701 11.2392 120.925 11.5073L121.944 11.7307C122.498 11.8469 122.748 12.1239 122.748 12.4992C122.748 12.9282 122.391 13.2946 121.712 13.2946C120.836 13.2946 120.362 12.7405 120.309 12.115L118.879 12.5171ZM112.972 12.5171C113.061 13.2946 113.821 14.5993 115.822 14.5993C117.583 14.5993 118.432 13.4376 118.432 12.392C118.432 11.3732 117.753 10.5779 116.448 10.2919L115.402 10.0774C114.973 9.98808 114.705 9.71999 114.705 9.35359C114.705 8.92463 115.116 8.55824 115.697 8.55824C116.618 8.55824 116.913 9.19273 116.975 9.59487L118.36 9.20167C118.244 8.52249 117.628 7.27138 115.697 7.27138C114.267 7.27138 113.159 8.29014 113.159 9.49657C113.159 10.4438 113.794 11.2392 115.018 11.5073L116.037 11.7307C116.591 11.8469 116.841 12.1239 116.841 12.4992C116.841 12.9282 116.484 13.2946 115.805 13.2946C114.929 13.2946 114.455 12.7405 114.401 12.115L112.972 12.5171ZM108.012 6.19006L109.54 10.3009H106.484L108.012 6.19006ZM111.086 14.3938H112.945L109.031 4.34913H107.065L103.15 14.3938H104.947L105.885 11.8737H110.139L111.086 14.3938Z" fill="#33647E"/>
<path d="M60.4602 39.5055C58.0026 39.5055 55.7506 38.6386 53.9812 37.1998V40.8013C55.9026 41.8826 58.1099 42.4903 60.4602 42.4903C64.285 42.4903 67.7435 40.8638 70.1653 38.2633C69.495 37.4769 68.9141 36.619 68.4405 35.6896C66.5549 38.022 63.6773 39.5055 60.4602 39.5055Z" fill="#00ABC8"/>
<path d="M70.7372 6.25265C70.7372 5.43049 70.067 4.76025 69.2448 4.76025C68.4226 4.76025 67.7524 5.43049 67.7524 6.25265V17.0569C68.8605 17.6825 69.8703 18.4599 70.7461 19.3715V6.25265H70.7372Z" fill="#00ABC8"/>
<path d="M81.0142 15.9488C77.2251 15.9488 73.8114 17.5395 71.3896 20.0953C72.0509 20.8817 72.6228 21.7575 73.0875 22.6869C74.9731 20.4081 77.8239 18.9425 81.0142 18.9425C86.6889 18.9425 91.3001 23.5538 91.3001 29.2285C91.3001 34.8942 86.6889 39.5144 81.0142 39.5144C78.3511 39.5144 75.9293 38.4956 74.0973 36.8334C72.3279 35.2874 70.478 32.2579 70.2457 29.2642C70.0938 27.3518 69.0571 25.073 67.7435 23.4287V29.2285C67.7435 36.5475 73.7041 42.5081 81.0231 42.5081C88.3421 42.5081 94.3028 36.5475 94.3028 29.2285C94.3028 21.9094 88.3421 15.9488 81.0142 15.9488Z" fill="#00ABC8"/>
<path d="M67.5469 21.7843C67.5558 21.7933 67.5647 21.8022 67.5737 21.8111C67.6273 21.8648 67.6809 21.9184 67.7345 21.972C67.7792 22.0167 67.8239 22.0703 67.8775 22.115C67.9043 22.1418 67.9222 22.1597 67.949 22.1865C68.2528 22.5082 68.5388 22.8657 68.8158 23.241C68.8784 23.3304 68.941 23.4197 69.0035 23.5001C69.0303 23.5448 69.0571 23.5806 69.0929 23.6253C70.2367 25.3143 71.0768 27.3697 71.2108 29.1748C71.3449 30.837 72.0151 32.5082 72.8909 33.8844C73.436 32.4277 73.7399 30.8549 73.7399 29.2106C73.7399 21.9005 67.7792 15.9488 60.4602 15.9488C56.3136 15.9488 52.6139 17.8523 50.1743 20.8371L50.1832 20.8281L50.1743 20.8192V6.25265C50.1743 5.43049 49.504 4.76025 48.6819 4.76025C47.8508 4.76025 47.1895 5.43049 47.1895 6.25265V29.2285C47.1895 30.8549 47.4844 32.4099 48.0206 33.8486C48.9142 32.4099 49.5487 30.7655 49.6649 29.291C49.8525 26.8603 51.0858 24.4117 52.4799 22.7495C54.3655 20.426 57.252 18.9336 60.4691 18.9336C63.2037 18.9425 65.7059 20.0238 67.5469 21.7843Z" fill="#00ABC8"/>
<path d="M39.9149 18.9425C42.3724 18.9425 44.6244 19.8093 46.3939 21.2481V17.6377C44.4725 16.5653 42.2652 15.9487 39.9149 15.9487C36.0543 15.9487 32.578 17.602 30.1473 20.2383C30.8175 21.0336 31.3894 21.9005 31.8631 22.8299C33.7487 20.4617 36.653 18.9425 39.9149 18.9425Z" fill="#33647E"/>
<path d="M19.3519 39.5054C13.6862 39.5054 9.066 34.8942 9.066 29.2195C9.066 23.5537 13.6772 18.9335 19.3519 18.9335C22.4797 18.9335 25.2769 20.3366 27.1625 22.5349C28.1365 23.6252 29.8613 25.9755 30.1115 29.1748C30.2813 31.3374 31.3805 33.5179 32.6316 35.0371V29.2105C32.6316 21.9005 26.671 15.9487 19.3519 15.9487C12.0329 15.9487 6.07227 21.9005 6.07227 29.2284C6.07227 36.5474 12.0329 42.5081 19.3519 42.5081C23.1768 42.5081 26.6263 40.8816 29.0481 38.29C28.3778 37.5036 27.8059 36.6368 27.3323 35.7074C25.4466 38.0219 22.5691 39.5054 19.3519 39.5054Z" fill="#33647E"/>
<path d="M50.6208 29.3714C50.4779 31.1676 49.6646 33.1783 48.5208 34.8405C48.2348 35.2784 47.9131 35.6984 47.5645 36.0827C46.3313 37.4589 44.7406 38.4777 42.9801 39.0318C42.006 39.3356 40.9783 39.5054 39.9059 39.5054C37.1446 39.5054 34.6334 38.4062 32.7835 36.6278C31.0856 35.0371 29.3698 32.1238 29.1374 29.2552C28.9855 27.3071 28.2259 25.6985 27.4752 24.5457C26.9301 26.0023 26.6263 27.5751 26.6263 29.2195C26.6263 36.5385 32.5869 42.4991 39.9059 42.4991C41.309 42.4991 42.6584 42.2847 43.9274 41.8736C43.9363 41.8736 43.9363 41.8646 43.9452 41.8646C46.3849 41.0782 48.5654 39.6037 50.1919 37.6287C50.1919 37.6287 50.1919 37.6377 50.2008 37.6377V41.7395C50.2008 42.5617 50.8711 43.2319 51.6932 43.2319C52.5154 43.2319 53.1856 42.5617 53.1856 41.7395V29.2373C53.1856 29.2373 53.1856 29.2284 53.1856 29.2195C53.1856 27.5751 52.8818 26.0023 52.3367 24.5546C51.4519 25.9487 50.7549 27.6645 50.6208 29.3714Z" fill="#33647E"/>
<path d="M32.5244 41.1944C32.3993 41.1229 32.2742 41.0514 32.158 40.971C31.2375 40.3901 30.3885 39.702 29.6379 38.9245V38.9424L29.62 38.9245V41.7306C29.62 42.5528 30.2902 43.223 31.1124 43.223C31.9346 43.223 32.6048 42.5528 32.6048 41.7306V41.2391C32.578 41.2212 32.5422 41.2033 32.5244 41.1944Z" fill="#33647E"/>
<path d="M92.56 43.2406H93.0694V40.8992H93.0783L93.9183 43.2406H94.3562L95.1962 40.8992H95.2052V43.2406H95.7146V40.2111H94.9728L94.1596 42.5882H94.1507L93.3106 40.2111H92.56V43.2406ZM89.7628 40.6579H90.7191V43.2316H91.2463V40.6579H92.2114V40.2021H89.7539V40.6579H89.7628Z" fill="#33647E"/>
</svg>
