<svg width="160" height="88" viewBox="0 0 160 88" fill="none" xmlns="http://www.w3.org/2000/svg">
<path fill-rule="evenodd" clip-rule="evenodd" d="M83.8027 65.7428L84.5974 61.728H71.757V80.8658H83.7824L84.5771 76.8518H76.4619V73.2385H83.0133L83.8073 69.223H76.4619V65.7428H83.8027ZM96.1545 76.9051C92.6051 76.9051 90.7226 73.9873 90.7226 71.1499C90.7226 68.3937 92.4698 65.6894 96.1545 65.6894C98.816 65.6894 100.967 67.6434 100.967 67.6434L103.145 64.1098C103.145 64.1098 100.698 61.4077 95.9387 61.4077C90.1579 61.4077 85.856 65.6894 85.856 71.2567C85.856 76.9322 89.9159 81.1876 95.9387 81.1876C100.967 81.1876 103.683 77.9757 103.683 77.9757L101.262 74.5489C101.262 74.5489 99.0581 76.9051 96.1545 76.9051ZM105.188 80.8658H109.893V61.728H105.188V80.8658ZM137.043 73.2385H143.594L144.389 69.223H137.043V65.7428H144.384L145.177 61.728H132.337V80.8658H144.362L145.158 76.8518H137.043V73.2385ZM120.261 76.8518H118.326V65.7428H120.261C123.434 65.7428 125.504 67.6163 125.504 71.2567C125.504 74.9248 123.515 76.8518 120.261 76.8518ZM120.449 61.728H113.619V80.8658H120.449C126.5 80.8658 130.371 77.2796 130.371 71.2567C130.371 65.2345 126.5 61.728 120.449 61.728ZM59.6804 76.8518H57.7444V65.7428H59.6804C62.8531 65.7428 64.9236 67.6163 64.9236 71.2567C64.9236 74.9248 62.9343 76.8518 59.6804 76.8518ZM59.8683 61.728H53.0387V80.8658H59.8683C65.919 80.8658 69.7902 77.2796 69.7902 71.2567C69.7902 65.2345 65.919 61.728 59.8683 61.728ZM13.9219 69.7124H18.393V80.8613H23.0709V69.7124H27.1435L27.9382 65.0563H14.7166L13.9219 69.7124ZM36.3948 76.9848C34.3295 76.9848 32.6687 75.2165 32.6687 72.8723C32.6687 70.6236 34.3295 68.9313 36.3948 68.9313C38.4608 68.9313 40.1208 70.6236 40.1208 72.8723C40.1208 75.2165 38.4608 76.9848 36.3948 76.9848ZM36.3948 64.7909C31.5988 64.7909 28.0908 68.3275 28.0908 72.8588C28.0908 77.5013 31.5988 81.1259 36.3948 81.1259C41.1922 81.1259 44.7002 77.5013 44.7002 72.8588C44.7002 68.3275 41.1922 64.7909 36.3948 64.7909Z" fill="#250E62"/>
<path fill-rule="evenodd" clip-rule="evenodd" d="M35.1693 25.2946C34.6926 25.575 34.3648 25.787 34.1896 25.9291L33.6588 26.7794C33.5874 26.8486 33.1987 27.1508 32.4913 27.6771C31.8342 28.2485 31.2154 28.9326 30.4237 29.3213C30.7951 29.8213 27.772 31.6355 27.2405 32.0279C26.8074 32.2918 26.227 32.3475 25.8616 32.7181C25.4083 32.3535 25.9677 31.6062 25.9677 31.1776C26.0609 30.8024 26.3323 30.4934 25.7564 30.3318C25.8812 30.0784 26.0376 29.7882 25.9188 29.5018C26.4563 28.1568 26.9315 26.729 27.242 25.7411C27.4796 25.457 27.5081 25.0465 27.5615 24.6961C27.6367 24.4427 27.7126 24.1894 27.7908 23.9368C27.9374 23.7052 28.1307 23.4969 28.4081 23.3308C28.7329 23.006 29.0659 22.8714 29.2561 22.4286C28.1359 22.4286 29.7275 20.9437 29.9448 20.7325C30.0959 20.3212 30.4756 19.6889 30.4756 19.2476L30.4237 18.7168C30.2553 18.7168 30.1313 18.6446 30.0298 18.5341C30.1561 18.2199 30.2643 17.9274 30.3463 17.668C30.3937 17.6071 30.4125 17.547 30.3974 17.4883C30.4831 17.1914 30.5621 16.8929 30.635 16.5937C30.62 16.5997 30.6139 16.6049 30.5997 16.6117C30.6373 16.3651 30.6515 16.1576 30.6493 15.9869C31.1508 15.5885 31.7688 15.1471 32.4785 14.7284C32.8506 14.9449 33.3243 14.4419 33.5528 14.2066C34.3047 13.9096 35.1227 14.0683 35.8858 13.8352C37.3458 13.1698 39.0667 13.4548 40.6042 13.4052C41.0583 13.5442 41.5147 13.7269 41.9741 13.9577C42.0492 16.0779 40.3358 18.81 39.069 20.4648C37.9631 21.5708 37.2323 23.2661 36.2572 24.4961C36.0091 24.7465 35.6467 25.0096 35.1693 25.2946ZM32.8228 34.5939C32.8191 34.5939 32.813 34.5947 32.8093 34.5954C32.8138 34.5947 32.8183 34.5939 32.8236 34.5932L32.8228 34.5939ZM23.1047 29.3274C22.3792 29.8115 22.5762 30.9107 21.8815 31.4798C21.8815 31.0641 21.8927 30.5949 22.1754 30.2566C22.5341 29.898 22.713 29.4747 22.713 28.9853C22.6498 28.4733 22.9889 28.0906 23.2024 27.6643C23.2942 27.9478 23.2287 28.1756 23.007 28.3485C23.1701 28.4146 23.2513 28.5936 23.2513 28.8875C23.2513 29.083 23.2024 29.2296 23.1047 29.3274ZM21.0499 34.9052C21.0176 35.1661 20.8056 35.2961 20.4147 35.2961C20.2553 35.1555 20.2222 34.9924 20.3162 34.8074L20.2673 34.5623C20.2673 34.9804 20.026 35.3803 19.5831 35.4435C19.4899 35.26 19.8365 34.9375 19.5831 34.8074L19.4358 34.8563C19.9568 34.1714 20.2838 33.503 20.4147 32.8504C20.85 33.4301 20.1087 33.8729 20.8056 34.2691C20.8056 33.4797 20.8673 32.7707 21.5883 32.3121C21.6341 32.352 21.6507 32.4008 21.6371 32.4587C21.4341 33.2722 21.2319 34.0864 21.0499 34.9052ZM19.7538 33.0459C19.7696 32.9805 19.8756 32.867 20.0711 32.7038C20.0861 32.9767 19.9884 33.2053 19.7779 33.388C19.7448 33.2256 19.7365 33.1113 19.7538 33.0459ZM20.4628 31.2851C20.5928 31.6761 20.4786 32.0512 20.1199 32.4099C20.1199 31.8558 20.2342 31.4798 20.4628 31.2851ZM21.1966 30.8438C21.3477 31.1761 21.283 31.4693 21.0011 31.7249C21.0327 31.4641 21.0988 31.1708 21.1966 30.8438ZM19.2644 35.4187C19.2155 35.5984 19.0929 35.6878 18.8967 35.6878L19.3862 35.0029C19.3531 35.1006 19.3132 35.2397 19.2644 35.4187ZM17.8697 46.648C17.8697 47.0712 17.8208 47.4299 17.7231 47.7238C17.6615 47.8456 17.4818 48.1712 17.6254 48.311C17.7006 48.6162 17.4983 48.702 17.2337 48.702C17.266 48.6373 17.3637 48.1636 17.5276 47.2833C17.5923 46.6961 17.7066 46.1585 17.8697 45.6691V46.648ZM17.0382 47.0382C16.866 47.5975 17.0803 48.6426 16.5488 48.9959C16.3713 48.2982 16.5713 47.4314 16.6961 46.7457C16.7608 46.5171 16.8262 46.1751 16.8916 45.7172C16.9608 45.8691 16.9856 46.0435 17.0382 46.2066C17.2352 46.4803 17.2352 46.7577 17.0382 47.0382ZM17.0141 45.0082C17.0705 44.8383 17.0946 44.6692 17.0871 44.4947L17.4788 44.5925C17.4352 44.9225 17.2886 45.1992 17.0382 45.424C16.972 45.2939 16.9645 45.1548 17.0141 45.0082ZM37.636 32.6106C37.742 32.3647 38.1134 31.9415 38.1134 31.9415C38.5172 31.5783 38.9352 31.1994 39.3539 30.8167C39.3938 31.0054 39.4186 31.3889 39.6517 31.2851C39.9426 30.6701 41.0568 29.8183 41.7192 29.1665C41.8959 28.9507 41.9846 28.7387 41.9846 28.5274L41.9665 28.3259C42.1522 28.135 42.3019 27.9703 42.4312 27.8214C42.7462 27.853 43.0387 27.6861 43.2574 27.4658C43.1153 27.1508 43.2228 26.8659 43.5755 26.62C43.9138 26.4794 44.1423 25.89 44.2115 25.5577C44.2829 25.4502 44.4258 25.3291 44.637 25.187C44.5904 24.9773 44.5957 24.7803 44.6258 24.5878C44.6746 24.5096 44.7235 24.4315 44.7731 24.3518C45.1475 24.6104 45.5543 23.4624 45.6445 23.3308L45.4618 23.2203C45.5949 22.9947 45.7249 22.7729 45.8437 22.5624C46.0106 22.476 46.1708 22.2482 46.1046 22.203C46.5955 21.8031 46.8376 21.3399 47.0549 20.6678C47.1226 20.6941 47.2045 20.7129 47.3947 20.6242C47.6684 20.3836 47.7015 19.307 47.5105 18.6792C47.5256 18.5386 47.5383 18.4056 47.5549 18.289C48.0639 18.2184 47.9188 17.5349 47.8203 17.232C47.6684 15.1802 45.7776 13.3495 44.4769 11.8759C43.0236 10.2294 41.4921 8.78142 39.5457 7.78825C39.2449 7.61308 38.9449 7.43715 38.6442 7.26197H37.9014C37.6901 7.33114 37.5653 7.26197 37.5308 7.0462C36.8068 6.94545 36.076 6.99131 35.355 6.89057C35.2151 6.85599 35.0723 6.90786 34.9324 7.0462C34.7896 6.80035 34.6475 6.74847 34.5069 6.89057C34.2242 6.89057 33.7994 6.95974 33.2333 7.10259C32.7206 7.17401 32.2131 7.26498 31.6951 7.26197C31.5214 7.54466 31.3628 7.54466 31.2184 7.26197C29.8764 7.23867 28.5705 7.81306 27.3277 8.24611C26.7112 8.46114 23.1663 10.3294 22.9957 10.155C22.6987 10.6768 21.1199 11.1625 20.6109 11.3451C18.8238 12.2113 17.2667 13.2435 15.5203 14.263C15.0977 14.4675 13.5054 15.1419 13.9369 15.7787C13.7677 15.9193 13.5843 16.0764 13.3806 16.2568C12.7911 16.5192 12.4596 16.7027 12.3911 16.8049C12.0821 17.0808 10.4544 18.677 10.4544 19.1484C10.2522 19.3717 10.1236 19.6288 10.0657 19.919C9.97928 20.0445 9.89809 20.1724 9.81614 20.3002C9.58533 20.5573 9.30715 20.8031 9.32369 21.1407C9.17633 21.4174 9.04476 21.6971 8.92898 21.9797C8.60344 22.2384 8.6057 22.6188 8.58916 23.0022C8.5448 23.1812 8.51548 23.3609 8.48916 23.5398C7.20805 24.845 7.91477 28.0402 8.41398 29.5371C8.51698 29.8612 8.68539 30.1318 8.83726 30.4348C8.86658 30.4513 8.90567 30.4807 8.94703 30.5137C9.3891 31.0084 10.1981 31.5618 11.6416 31.8543C12.3994 32.349 12.7693 31.0821 12.5693 30.4145C12.6257 29.3063 12.6152 27.6124 13.1618 26.8035C13.2046 26.7403 13.2287 26.6945 13.249 26.6524C13.673 26.1261 14.1512 24.9089 14.3196 24.5232C14.5978 24.1976 14.9316 23.8029 15.2782 23.3819C15.5654 23.2909 15.7202 23.1 15.7435 22.809C17.6885 20.3851 19.6177 17.6996 22.71 16.6628C22.9227 16.8929 22.9724 17.4673 22.8416 17.7545C22.8558 17.753 22.8731 17.7507 22.8882 17.7485C22.3115 19.8498 21.383 23.2097 20.371 26.7614C20.3613 26.7681 20.356 26.7734 20.3455 26.7794L20.3598 26.8005C20.247 27.1959 20.1335 27.5929 20.0192 27.9914C19.9199 28.0643 19.8966 28.1447 19.95 28.2327C19.8959 28.4214 19.8418 28.6094 19.7876 28.7973C19.5485 29.1214 19.4959 29.8055 19.3869 30.1814C19.226 30.3431 19.1802 30.4822 19.2666 30.5957C19.211 30.7852 19.1561 30.9724 19.1005 31.1603C18.9726 31.3227 18.8734 31.4723 18.8072 31.6046C18.7027 31.9595 18.5967 32.3129 18.49 32.6662C18.4629 32.7008 18.5103 32.7737 18.5982 32.8617C18.2005 34.1977 17.8141 35.469 17.4555 36.6051C15.7067 37.8042 13.9286 38.9816 12.0618 39.9958C10.9491 40.4529 8.938 41.2168 5.88032 42.1535C5.86077 42.1588 5.84874 42.1633 5.8307 42.1693C4.95632 42.3287 4.65033 42.6407 4 43.049C5.58335 44.4729 7.44638 44.7744 9.36053 45.3608C11.8047 46.1089 13.6144 45.4886 16.0307 44.5812C15.5255 47.0712 15.0496 49.532 14.8421 50.9244C14.7895 51.0334 14.7737 51.5033 14.7729 51.507C14.7233 51.6627 14.6955 51.701 14.688 51.8423C14.6466 52.0889 14.6105 52.3739 14.5767 52.6784C14.3692 53.8963 14.4617 53.1843 14.194 54.6218C14.1279 54.9805 13.9512 55.8127 13.8925 56.2217C13.8482 56.6758 13.6723 57.1277 13.5963 57.6622C13.4497 58.6892 12.7528 61.574 14.091 62.1476C14.7256 62.5416 16.6006 62.7175 17.2991 62.5025C17.8968 62.3694 17.8133 61.3439 18.0111 60.7966C18.0689 60.426 18.1261 60.0553 18.1825 59.6847L18.3674 59.3366C18.4095 58.9471 18.3321 58.0637 18.6223 57.7765C18.817 58.2757 18.7509 58.8336 18.8794 59.3471C18.9975 59.6004 18.9636 60.1064 19.235 60.1079C19.3283 60.1064 19.3448 59.735 19.3862 59.5456C19.4388 59.299 19.5335 59.011 19.5335 58.7584C19.5703 58.0554 19.6929 57.5014 19.9027 57.0969C20.1756 56.5743 20.5395 56.0999 20.7868 55.5646C20.9011 55.3158 21.0026 55.0346 20.9687 54.7572C20.9266 54.4068 20.8191 54.0444 20.874 53.7836C20.7906 53.5084 20.6507 53.5708 20.5718 53.3776C20.5395 53.3016 20.4447 52.8197 20.5861 52.7911C20.6613 52.7761 20.8394 52.6295 20.8447 52.5611C20.9522 52.525 21.0567 52.543 21.1567 52.6175C21.601 53.025 20.7891 54.3429 21.5747 54.3828C21.6424 53.0054 22.1303 51.6424 22.304 50.2733C22.3927 50.1808 22.4085 50.0876 22.3431 49.9936C22.3506 49.9184 22.3649 49.8304 22.3747 49.753C22.4604 49.6109 22.4807 49.3824 22.4671 49.2102C22.4596 49.1952 22.4589 49.1839 22.4521 49.1688C22.4634 49.0937 22.4686 49.0275 22.4814 48.9508L22.4972 48.6508C22.5724 48.6471 22.625 48.6546 22.6807 48.5756C22.7017 48.2674 22.5333 47.9569 22.5333 47.9569L22.7656 47.8449C23.4618 47.581 22.6739 46.8066 23.2355 46.4367L23.5137 46.1345L23.7392 45.4668L24.0234 44.3617C24.0798 44.2414 23.9317 44.1459 23.7212 44.0639C23.8437 43.2226 24.0182 42.4107 24.6422 41.7866C24.9098 41.5265 25.1151 41.2957 25.4489 41.1326C25.4835 41.0589 25.685 40.9574 25.8616 40.7807C26.0586 40.6303 26.2714 40.507 26.4984 40.4093L27.2946 39.9304L27.9314 39.6109C28.066 39.5417 28.2073 39.4883 28.3547 39.4515C28.8096 39.2304 29.3719 38.9605 29.6817 38.8169C29.6817 38.8169 29.7448 38.8026 29.7426 38.5124C30.1313 38.1929 30.2448 38.0395 30.635 37.8629C31.0305 37.5591 31.5823 37.5268 31.9086 37.1208C31.9545 37.0486 32.0026 36.9494 32.0499 36.8562C32.4168 36.6299 32.7724 36.4088 33.1055 36.1976L33.2333 36.2705L33.5528 35.951C33.5604 35.9592 33.6047 35.9111 33.6634 35.8404C33.7385 35.7923 33.8175 35.7412 33.8874 35.6953C34.1348 35.6938 34.2881 35.6976 34.6016 35.6096C34.5663 35.7209 34.8242 35.7051 34.8242 35.7397C35.1196 35.7322 35.8376 34.2488 35.9918 34.0947C36.5617 33.618 37.2165 33.2444 37.636 32.6106ZM82.4931 35.4908C82.3803 35.2074 82.3322 34.9134 82.3457 34.6097C82.4758 34.7736 82.5419 34.936 82.5419 35.0991L82.4931 35.4908ZM82.0036 39.8447C82.0036 40.2033 81.9059 40.4649 81.7097 40.6273C81.457 40.1244 81.736 39.4868 81.563 38.9643C81.842 38.8726 82.0262 38.2538 81.8074 38.035C81.5803 37.6914 81.5006 36.1532 81.8074 36.0284C82.1247 36.6629 81.5924 37.3794 82.1013 37.9854C82.1592 38.1636 82.1269 38.326 82.0036 38.4748C81.9059 38.7034 81.9548 38.8666 82.1495 38.9643C82.0517 39.1274 82.0036 39.4214 82.0036 39.8447ZM81.7593 42.34C81.5939 41.8453 81.4555 41.3814 81.7097 40.8724C81.6593 40.9724 81.8292 41.4273 81.857 41.5573L81.7593 42.34ZM81.2691 42.5851C81.2864 42.864 81.2691 43.1414 81.2202 43.4166H81.1225V42.2423C80.8616 42.5031 80.7315 42.7309 80.7315 42.9272C80.7488 43.1632 80.9586 45.103 80.5849 45.227C80.5849 44.2354 80.6503 43.1565 80.1932 42.2423C80.112 42.2513 80.0631 42.2994 80.0466 42.3889C80.0647 42.037 80.0549 41.5859 79.9489 41.2641C80.0707 41.4077 80.1519 41.5709 80.1932 41.7528C80.291 41.7528 80.4052 41.7205 80.536 41.6551V41.5573C80.294 41.3175 80.2481 40.9032 80.291 40.5785C80.3752 39.9026 80.291 39.1583 80.291 38.4748C80.3774 38.038 80.1819 37.5847 80.291 37.1539L80.1932 36.9584C80.1669 37.1441 80.1173 37.323 80.0466 37.496C79.9812 37.4636 79.9489 37.4155 79.9489 37.3494C80.0654 36.7637 79.7549 36.1149 79.9489 35.539C79.9398 35.3999 80.0053 35.3021 80.1436 35.2457C80.2301 35.1811 80.2466 35.0999 80.1932 35.0014C80.2098 34.6217 80.2586 34.2466 80.3406 33.8752L80.4864 34.218C80.4864 33.9436 80.6684 33.6579 80.536 33.3865C80.7315 33.4842 80.8293 33.615 80.8293 33.7782L80.7804 33.8752C80.7142 34.0721 80.7142 34.2842 80.7804 34.512C81.0262 34.9443 80.9939 35.5006 80.927 35.9795C80.8518 36.5005 80.9631 37.0268 80.8781 37.5456C80.8781 37.6764 80.9435 37.8719 81.0736 38.1328C81.2037 38.1328 81.2525 38.1493 81.2202 38.1809C81.1698 38.3861 81.448 39.0304 81.2691 39.2094C81.2691 39.3643 81.3601 39.5364 81.3668 39.6981C81.2691 40.7747 81.2368 41.737 81.2691 42.5851ZM80.291 45.2751C80.2248 45.0135 80.2248 44.7526 80.291 44.4925C80.4541 44.6564 80.4541 44.9165 80.291 45.2751ZM80.536 30.8912C80.5684 31.0866 80.6165 31.446 80.6827 31.9678C80.9067 31.955 80.9556 32.0527 80.8293 32.2617C80.7984 32.4354 80.7165 32.582 80.5849 32.7016C80.3736 32.0024 80.4263 31.2663 80.3406 30.5491C80.4383 30.5822 80.503 30.6957 80.536 30.8912ZM81.1225 35.5886C81.2706 35.8773 81.2548 36.1547 81.0736 36.4201C81.0413 36.257 81.0571 35.9795 81.1225 35.5886ZM82.2239 29.2033C82.272 29.4153 82.3126 29.5537 82.3457 29.6198C82.4434 29.9784 82.3622 30.3371 82.1013 30.6957L81.9547 28.7387C82.0841 28.8364 82.175 28.9913 82.2239 29.2033ZM78.2362 51.0492V51.0003C78.2685 51.0003 78.2858 51.0168 78.2858 51.0492H78.2362ZM72.5599 45.6668C72.4298 45.7976 72.3321 45.7646 72.2674 45.5691C72.2998 45.5037 72.3652 45.5037 72.4629 45.5691C72.5434 45.4293 72.6088 45.2819 72.6591 45.1285C72.7885 45.2924 72.8546 45.3729 72.8546 45.3729C72.8546 45.3729 72.7569 45.4714 72.5599 45.6668ZM71.7291 44.5173C71.5983 44.7301 71.5164 44.8834 71.484 44.9819C71.1615 45.7563 71.172 45.9345 70.7014 46.6457C70.9224 45.6503 71.4104 44.7323 71.8269 43.8076C71.8915 44.0692 71.8585 44.3053 71.7291 44.5173ZM71.2397 47.7704C71.1743 47.575 71.1908 47.3472 71.2886 47.0855C71.4036 47.3171 71.6592 47.6892 71.2397 47.7704ZM71.0442 48.6027C70.7555 48.6027 70.933 48.1982 70.7991 48.0644C70.9946 48.0975 71.0931 48.211 71.0931 48.4072L71.0442 48.6027ZM70.6037 53.2753C70.548 53.4001 70.4661 53.4565 70.3593 53.446C70.2932 53.1851 70.3909 53.0543 70.6525 53.0543C70.6202 53.0874 70.6037 53.1618 70.6037 53.2753ZM70.0172 48.5538C70.0172 48.8155 70.0819 49.0598 70.212 49.2876C70.0902 49.4448 69.4098 49.953 69.1361 49.6793C69.0271 49.5733 69.4759 48.7899 69.5278 48.7005C69.7556 48.3088 69.8864 48.0479 69.9187 47.9178C69.9443 47.6877 70.0744 47.6065 70.3097 47.6727C70.115 47.9667 70.0172 48.2599 70.0172 48.5538ZM69.8203 51.2439C69.7413 51.2078 69.6601 51.192 69.5759 51.1958C69.5436 51.1634 69.5436 51.0822 69.5759 50.9507C69.6812 50.9401 69.7624 50.8913 69.8203 50.8041C69.8864 50.968 69.9676 51.0657 70.0653 51.098C69.9999 51.2289 69.9187 51.277 69.8203 51.2439ZM68.1572 36.8599C68.3279 36.4381 68.1948 35.9713 68.3046 35.539C68.4782 35.8916 68.3737 36.4336 68.5 36.8118C68.4346 36.8441 68.3204 36.8599 68.1572 36.8599ZM67.8399 36.078H67.6678L67.6196 35.3924C67.6196 35.23 67.6347 35.0991 67.6678 35.0014C67.7986 35.3277 67.9294 35.6532 68.0595 35.9795C67.9933 36.0457 67.9204 36.078 67.8399 36.078ZM66.4942 33.0436C66.3385 32.8376 66.3235 32.3429 66.3468 32.0655C66.4851 32.2978 66.5122 32.7437 66.4942 33.0436ZM66.1025 29.4236C66.0401 29.3161 65.9589 29.2672 65.8574 29.277C65.9874 29.1469 66.0536 29.0003 66.0536 28.8364L66.0047 28.4447L66.0536 28.2492L66.3468 29.5702C66.2491 29.5702 66.1679 29.5213 66.1025 29.4236ZM65.613 27.5643C65.5153 27.4019 65.4664 27.32 65.4664 27.32C65.4664 27.32 65.5311 27.2877 65.6626 27.2222C65.7604 27.1899 65.8408 27.2388 65.907 27.3681C66.0386 27.4906 66.0386 27.6057 65.907 27.7117L65.613 27.956C65.7108 27.8575 65.7108 27.7275 65.613 27.5643ZM65.2709 25.363C65.2754 25.1713 65.3567 25.0247 65.5153 24.9224C65.404 24.5931 65.092 24.0247 65.4175 23.6992C65.2416 24.3059 65.6626 24.9059 65.6626 25.5096C65.5213 25.4885 65.3905 25.4397 65.2709 25.363ZM90.6639 30.4995C90.7609 30.4348 90.8421 30.4679 90.9083 30.5979L90.6639 30.8912C90.6211 30.7784 90.5556 30.6807 90.4677 30.5979C90.5 30.5979 90.5654 30.5656 90.6639 30.4995ZM91.6413 33.3384C91.6413 33.0113 91.7232 32.7993 91.8864 32.7016C91.7556 33.0985 91.9751 33.6188 91.5932 33.9248C91.6255 33.7947 91.6413 33.5992 91.6413 33.3384ZM92.7668 27.0749C93.0277 26.6832 93.2893 26.0321 93.5494 25.1179C93.7126 25.2276 93.893 25.2765 94.0877 25.2645C93.8817 25.6742 93.6554 26.6877 93.1585 26.8305C92.9998 26.9328 92.9186 27.0794 92.9141 27.2704L92.9622 27.4666C92.7345 27.3681 92.6698 27.2388 92.7668 27.0749ZM89.9775 40.4326C90.1339 39.6462 90.3113 37.9463 90.8586 37.3982C91.3631 36.6945 91.4353 35.6893 91.6909 34.8789C92.0022 33.8917 92.5089 32.9482 92.6698 31.9189C92.4736 31.9189 92.3435 32.0166 92.2781 32.2121C92.2781 31.3881 92.8164 31.6843 93.0735 31.1475C93.251 30.7761 93.2728 30.301 93.4036 29.9123C93.5224 29.4935 93.6201 29.0695 93.6968 28.6409C93.6968 28.4748 94.0486 27.5343 93.99 27.4177C93.8599 27.32 93.8757 27.1568 94.0389 26.9283C94.1719 26.7854 94.2697 26.6223 94.3328 26.4388C94.408 26.1336 94.4569 25.8231 94.4802 25.5096C94.805 24.9224 95.0005 24.2059 95.0666 23.3571C95.4155 21.6001 95.8891 19.5731 95.4365 17.7763C94.9268 15.7516 92.9239 15.0141 91.3488 13.963C90.8684 13.566 90.2692 13.3413 89.7332 13.0338L89.685 14.6479C89.8144 14.6908 89.8309 15.1862 89.8805 15.1862C90.2587 15.2825 90.3211 15.8042 90.3211 16.1155C90.6075 17.8582 89.8805 19.5716 89.8805 21.3016C89.5497 21.6963 89.5347 22.2391 89.4407 22.7203C89.1505 23.5879 88.9031 24.4698 88.7062 25.363C88.6513 25.7013 88.5535 26.0276 88.4122 26.3411C88.3009 26.5674 88.1348 26.9162 88.2663 27.1726C88.331 27.2057 88.331 27.2546 88.2663 27.32C88.2002 27.3531 88.1197 27.4177 88.022 27.6132C88.2979 27.9034 88.1972 28.1718 87.825 28.347C87.825 29.2454 87.0326 30.0769 87.3363 30.9889C86.365 31.3182 86.3364 33.815 85.6725 34.6097C85.4477 34.8345 85.3365 35.1285 85.3305 35.4412C85.3951 35.6698 85.3132 35.8495 85.0861 35.9795C85.1342 36.1231 85.1515 36.2697 85.135 36.4201L84.5959 38.1328C84.5072 38.3906 84.3441 38.4561 84.1072 38.3282C84.1072 37.9531 84.0275 37.4749 83.814 37.1539C83.6629 37.5501 83.499 37.9418 83.3246 38.3282C83.4201 38.3771 83.0464 38.344 82.9329 38.3771C82.8675 37.8877 82.9652 37.496 83.2268 37.2035C83.2509 37.1531 83.2772 36.4848 83.0066 36.6652C82.9652 36.7464 82.9246 36.8276 82.884 36.9095C82.884 36.9742 82.8351 37.0065 82.7382 37.0065C82.6705 36.675 82.5795 36.2246 83.0306 36.2246C82.7795 36.1404 82.7013 35.8743 82.7382 35.6374C82.8787 35.7149 83.0253 35.7803 83.178 35.8329C83.2712 35.0796 82.884 34.339 82.884 33.5827C82.9705 33.721 83.069 33.8519 83.178 33.9737C83.0494 33.2136 83.5937 32.2535 83.0306 31.5761C83.1494 31.0994 83.0547 30.5446 83.0306 30.0596C83.4238 30.4543 83.1005 31.019 83.3727 31.4295C83.802 30.3611 83.3689 27.6019 82.884 26.6351V26.5862C82.8186 26.1945 82.6073 25.9178 82.248 25.7539C81.4533 25.5427 80.5376 25.3141 79.7038 25.3141C79.0362 25.1795 78.2791 25.0848 77.6002 25.2156C75.6424 25.8787 75.2687 27.1651 74.6154 29.1304C73.5501 31.5889 72.8291 34.1691 71.9494 36.6953C71.5434 37.8614 69.8097 40.8078 70.4074 41.8017C70.115 41.6716 69.9676 41.7205 69.9676 41.949C70.009 42.0746 69.8556 42.443 69.8203 42.5851C69.6308 42.3949 69.6834 42.2445 69.4293 42.1934C69.6548 41.8318 69.6872 41.4566 69.5278 41.0679C69.4293 40.8724 69.4128 40.7424 69.4782 40.6769C69.6413 40.5469 69.7233 40.3025 69.7233 39.9432C69.7977 39.3425 70.0774 37.7636 69.3804 37.5456C69.5436 37.3824 69.6579 37.1539 69.7233 36.8599C69.7233 36.0998 69.5398 35.3172 69.6255 34.5616C69.6255 34.4962 69.6082 34.4466 69.5759 34.4142C69.4782 34.2842 69.4947 34.1203 69.6255 33.9248L69.3804 33.7782C69.6834 33.4752 69.7255 32.7692 69.3316 32.5061C69.6631 32.043 69.185 31.7279 69.185 31.2829L69.2827 31.0866C69.3804 30.9242 69.397 30.713 69.3316 30.4513C69.209 30.0822 69.4 29.4702 69.0383 29.1785V29.1304C69.1639 28.6109 68.6639 28.1628 69.0383 27.6621C69.0383 27.5643 69.0211 27.5155 68.9887 27.5155C68.8015 27.2207 68.7857 26.911 68.9406 26.5862C68.9564 26.5366 68.9729 26.4877 68.9887 26.4388C68.7872 25.6351 68.6286 24.7878 68.2549 24.0413C67.9542 23.2947 67.7828 22.5068 67.2279 21.8888C66.013 20.2934 64.0973 20.3874 62.2862 20.4701C62.2035 21.0595 63.0207 21.1054 63.0207 21.6444C62.3922 21.6444 62.1306 20.7783 61.4547 20.8618C62.2606 22.0437 63.3628 23.6443 63.3628 25.1179L63.3132 25.4118C63.2621 25.5667 63.259 25.8163 63.2651 25.999C64.7356 33.7947 64.2154 41.9829 63.4117 49.8252C63.4117 50.6845 63.2621 51.5642 63.1673 52.419C63.1673 53.6174 62.5802 54.782 62.5802 55.9902C62.514 56.4465 62.4493 56.8217 62.3839 57.1164C62.1268 57.8885 63.5696 57.6329 63.9011 57.8006C64.3071 58.0449 64.8619 58.0975 65.1732 58.4855L65.3687 58.5832C65.716 58.6374 66.0431 58.7516 66.3468 58.9253C66.637 59.0712 68.2549 59.9125 68.2549 59.1704L68.2061 58.9749C68.1407 58.8772 68.1407 58.7622 68.2061 58.6329C68.6301 58.2066 68.4564 57.4209 68.9887 57.0668C69.0218 57.0345 69.0541 57.0014 69.0865 56.9691C69.2323 56.7134 69.3804 56.1849 69.2338 55.8932C69.3601 55.9413 69.4909 55.9571 69.6255 55.9413C69.6902 55.615 69.9187 55.1256 70.3097 54.4737C70.4736 54.2783 70.6037 54.0166 70.7014 53.6911C70.845 53.4046 72.0163 51.1416 71.8757 51.0003C71.7036 50.9875 71.5728 51.0529 71.484 51.1958C71.4186 51.0326 71.3532 50.9507 71.2886 50.9507C71.6141 50.6259 71.8103 50.3319 71.8757 50.0703C72.0742 50.271 71.8201 50.774 72.2178 50.8529C72.0855 49.9928 73.0163 49.6275 72.9516 48.7493C73.0245 48.7343 73.09 48.7508 73.1478 48.7982C73.5636 46.7901 75.0958 45.018 75.3988 42.8783H75.4469C75.5394 42.743 75.6048 42.5971 75.6432 42.4377C76.0198 41.9656 76.0003 41.295 76.3777 40.8228C76.4423 40.7581 76.4258 40.6927 76.3281 40.6273C76.3281 40.2627 76.6521 39.8935 76.0341 39.8935C76.1973 39.6327 76.295 39.4041 76.3281 39.2094C76.3386 39.4146 76.3882 39.6101 76.4754 39.7958C76.7356 39.6657 76.8979 39.5349 76.9641 39.4041C77.3949 38.3651 77.7017 35.2608 78.9204 34.854C78.9008 35.1661 78.9174 35.4758 78.97 35.7833L78.8723 36.2727L78.97 36.6156C79.0346 36.8118 79.0677 36.9426 79.0677 37.0065L79.0189 37.5456C79.2023 38.3681 78.9121 39.2342 79.1166 40.0409C79.3564 40.6446 78.9204 41.3814 78.9204 41.9979L78.97 42.34C79.1264 42.8926 79.3504 47.3855 78.8723 47.6246C78.4888 47.7186 78.5527 49.9568 78.5302 50.1192C78.5302 50.4688 78.6211 50.7439 78.1881 50.8529C78.0618 51.1319 77.9964 51.4251 77.9911 51.7333L78.0407 51.9296C78.2407 52.3446 81.9953 53.0423 82.4931 53.1039C83.3073 53.2678 83.7651 53.3655 83.8629 53.3979C84.3523 53.6437 84.9515 53.4715 85.4282 53.7888C85.6237 53.8866 85.8034 53.8866 85.9672 53.7888L85.771 52.2228C86.7304 52.2228 87.7303 46.0488 88.2175 45.4225C88.3152 45.3247 88.3475 45.2435 88.3152 45.1781C88.0115 44.8759 89.7505 41.116 89.9775 40.4326ZM61.9877 38.932H61.7915C61.8238 38.932 61.7915 38.8831 61.7915 38.8831L61.9877 38.7365V38.932ZM61.8411 38.1486C61.9697 38.2831 62.002 38.4463 61.9388 38.638C61.808 38.4433 61.7749 38.2801 61.8411 38.1486ZM61.7434 39.0793C61.7103 39.0139 61.7103 38.9974 61.7434 39.0297V39.0793ZM61.596 40.0574C61.4321 39.9281 61.4163 39.8123 61.5471 39.7146C61.6449 39.7808 61.6607 39.895 61.596 40.0574ZM48.3368 37.4644C48.4345 37.4975 48.4345 37.5456 48.3368 37.611C48.239 37.5133 48.239 37.4644 48.3368 37.4644ZM52.0425 49.1718C51.3569 50.359 50.5479 51.5544 49.542 52.4934C47.6827 54.2301 46.5602 53.561 45.4994 51.5145V51.4567C45.5686 50.9732 45.552 50.477 45.549 49.9898C45.3874 49.6711 45.4189 49.5628 45.5971 49.2064C45.5971 48.5268 45.4836 48.0862 45.634 47.4208C45.7407 46.951 46.3482 46.0465 45.8911 45.5856C46.043 45.5029 46.0978 44.8676 46.0978 44.8676C45.767 44.5383 45.9956 44.0617 46.0377 43.6294C46.2369 43.8128 46.3053 43.764 46.4316 44.0045C46.4677 43.5249 46.9504 41.1333 46.9181 41.1333C46.8827 41.0995 47.7203 38.2846 48.0924 38.1004C48.33 38.8117 47.7496 40.204 47.7496 40.204C47.3429 40.7153 47.9383 40.8829 48.2759 40.6694C48.6608 40.4251 48.5398 39.8289 48.6307 39.4703C48.6578 39.2086 48.7879 39.0289 49.0224 38.932C49.2878 38.6651 49.3645 38.2132 49.3645 37.8561L49.854 36.3878C50.0239 35.6878 49.9803 34.5157 50.8817 34.333C50.6276 33.891 50.163 33.6737 49.7555 33.4038C49.5525 33.2 49.6916 33.1098 49.3645 33.1098C49.2217 32.991 49.0743 32.8767 48.924 32.767C48.8428 32.7346 48.7608 32.7346 48.6796 32.767C48.5962 32.5956 48.4992 32.4317 48.3864 32.2783C48.203 32.1933 48.0398 32.0791 47.897 31.9355C47.4128 31.455 48.0586 30.8694 48.4345 30.6145C49.5119 29.489 50.5118 28.2244 51.7621 27.2877C52.2801 26.8072 55.9099 24.1247 56.4588 25.0374C56.661 24.8066 56.8407 24.6495 57.0053 24.5465C59.545 25.6464 62.7553 30.2401 52.0425 49.1718ZM54.8935 52.1423C54.8837 52.1423 54.8859 52.1363 54.8792 52.1356L54.913 52.1122C54.9055 52.1228 54.9062 52.1295 54.8935 52.1423ZM51.7621 56.2518C51.6959 56.1225 51.6802 55.9917 51.7125 55.8609C51.8433 55.9917 51.8598 56.1225 51.7621 56.2518ZM50.49 56.5458C50.3592 56.4157 50.3923 56.3503 50.5878 56.3503H50.49L50.6862 56.2518C50.6193 56.3819 50.5547 56.4811 50.49 56.5458ZM45.3528 44.6083C45.5159 44.6737 45.5317 44.7714 45.4016 44.9007C45.2377 44.7383 45.222 44.6406 45.3528 44.6083ZM46.0377 25.9178C46.2001 25.7878 46.282 25.7223 46.282 25.7223C46.282 25.7223 46.3144 25.69 46.3805 25.6246C46.388 25.9171 46.258 26.0968 45.9888 26.1622C46.0211 26.1952 46.0054 26.2764 45.9392 26.4073C45.9242 26.3494 45.8933 26.302 45.8475 26.2652C45.8377 26.1501 45.8926 26.0336 46.0377 25.9178ZM47.6526 24.6457C47.7819 24.7765 47.7992 24.9074 47.7015 25.0374C47.603 24.972 47.5872 24.8412 47.6526 24.6457ZM48.2887 25.5269C48.2887 25.6246 48.2556 25.6411 48.1909 25.575C48.1578 25.4773 48.1413 25.4284 48.1413 25.4284C48.1413 25.4284 48.1909 25.4615 48.2887 25.5269ZM48.9728 25.5269C48.9728 25.5923 48.9405 25.6081 48.8758 25.575C48.8428 25.4773 48.8262 25.4284 48.8262 25.4284C48.8262 25.4284 48.8758 25.4615 48.9728 25.5269ZM51.3704 24.0097C51.305 24.0232 51.0764 24.021 51.0764 23.9119C51.2396 23.8142 51.3373 23.8473 51.3704 24.0097ZM44.7897 45.733C44.7731 45.6683 44.7814 45.6187 44.8145 45.5856C44.913 45.6518 44.9453 45.7495 44.913 45.8796C44.846 45.8473 44.8062 45.7991 44.7897 45.733ZM44.4724 27.9237C44.2431 28.153 44.1296 28.2665 44.1296 28.2665C44.1296 28.2665 44.0972 28.3146 44.0318 28.4124C43.8777 28.7214 43.9423 29.3634 43.5912 29.5379H43.4935C43.4146 29.1605 43.4304 28.7853 43.5424 28.4124C43.7221 28.5936 44.0807 28.4064 44.0807 28.168C44.113 28.0703 44.1942 28.0387 44.3258 28.0703L44.5701 27.5809C44.6679 27.5493 44.7325 27.5004 44.7656 27.435C44.7979 27.5327 44.7002 27.6959 44.4724 27.9237ZM44.3258 29.9784V29.9296C44.3258 29.9296 44.3085 29.9469 44.2762 29.9784C44.2762 29.8484 44.3258 29.8318 44.4235 29.9296L44.3258 29.9784ZM43.1266 37.929C43.0447 38.0756 42.9875 38.1824 42.9552 38.2478C42.971 38.1741 42.9544 38.1418 42.9071 38.1486C42.8514 37.9298 42.9334 37.7997 43.1514 37.7584H43.0529C43.1552 37.7553 43.2041 37.7065 43.2003 37.611C43.2326 37.6772 43.2071 37.7824 43.1266 37.929ZM42.8086 38.7365C42.8086 38.7365 42.792 38.753 42.7597 38.7854C42.7597 38.9162 42.7432 38.9974 42.7109 39.0297C42.7432 39.0297 42.7266 39.047 42.662 39.0793C42.5951 38.8357 42.6439 38.623 42.8086 38.4433C42.8447 38.5425 42.8447 38.6402 42.8086 38.7365ZM42.368 39.9108V39.862L42.3191 40.0574C42.3191 39.6665 42.368 39.4387 42.4658 39.3725C42.5635 39.5033 42.5312 39.6838 42.368 39.9108ZM42.3191 44.5586C42.174 44.5256 42.1575 44.4767 42.2703 44.412C42.3477 44.4429 42.38 44.4917 42.368 44.5586H42.3191ZM42.2214 45.5856C42.1237 45.3902 42.1064 45.2278 42.1725 45.0962C42.368 45.1954 42.3846 45.3578 42.2214 45.5856ZM41.3899 47.396C41.0922 47.693 41.547 48.1569 41.3899 48.4726C41.4696 48.6561 41.3553 48.6892 41.0471 48.5704C41.2786 48.1073 40.9005 46.3773 40.9005 45.8796C40.9207 45.5225 41.0019 45.1804 41.1448 44.8518C41.4598 43.2835 41.417 41.7656 42.1725 40.3018C42.5936 41.0078 41.9237 42.634 41.8305 43.3602C41.7545 43.9226 40.7208 47.2344 41.3899 47.396ZM41.6839 39.6665C41.65 39.7642 41.5523 39.7642 41.3899 39.6665C41.4869 39.5033 41.5854 39.5033 41.6839 39.6665ZM42.0741 31.446C42.0741 31.5122 42.0906 31.561 42.1237 31.5934C42.071 31.6001 42.0387 31.5671 42.0259 31.4956C41.9929 31.4633 41.9763 31.446 41.9763 31.446H42.0741ZM40.3133 33.8436C40.3133 33.7135 40.3621 33.697 40.4599 33.7947C40.3937 33.8932 40.3456 33.9097 40.3133 33.8436ZM40.2155 43.4332C40.1501 43.3031 40.1343 43.2053 40.1667 43.1399C40.3464 43.2084 40.3629 43.3061 40.2155 43.4332ZM40.0201 42.7979C39.987 42.6994 39.987 42.6505 40.0201 42.6505C40.0847 42.6836 40.0847 42.7324 40.0201 42.7979ZM62.2328 37.1223C62.3456 37.2246 62.3614 37.3388 62.2809 37.4644C62.1681 37.3621 62.1524 37.2479 62.2328 37.1223ZM62.4764 32.9143C62.5568 33.0722 62.5411 33.17 62.4275 33.2075C62.3305 33.2075 62.3463 32.9474 62.4764 32.9143ZM62.8192 27.435C62.917 27.6305 62.9658 27.7771 62.9658 27.8748C62.9493 27.7981 62.917 27.7816 62.8681 27.826C62.7606 27.6688 62.6628 27.5057 62.5749 27.3365C62.6065 27.3049 62.6892 27.3365 62.8192 27.435ZM62.8192 32.0828C62.7358 31.9776 62.7516 31.8964 62.8681 31.8377C62.9004 31.9354 62.8839 32.0174 62.8192 32.0828ZM62.7704 32.7189C62.5719 32.9173 62.8192 32.3091 62.8192 32.7189C62.7862 32.7512 62.7704 32.7512 62.7704 32.7189ZM62.4764 39.6169C62.7448 39.2161 62.738 38.6418 62.917 38.1982C62.9846 38.0621 63.4914 36.975 62.9658 36.975L62.7704 37.0238C63.0576 37.3118 62.4869 38.4846 62.3787 38.5899C62.096 38.3049 62.5448 37.4388 62.6238 37.1223C62.5343 36.8968 62.42 36.6847 62.2809 36.4855C62.2478 36.3554 62.2644 36.2246 62.3305 36.0946C62.3621 35.9652 62.4599 35.948 62.6238 36.0457C62.8719 36.0216 63.1004 35.9397 63.3087 35.8006C63.6244 35.245 63.2102 33.7496 63.9447 33.5015C63.2921 33.2842 62.6606 28.1974 63.0147 28.0222C63.1944 28.1688 63.3575 28.3319 63.5041 28.5116C63.2222 26.3434 61.1494 24.9773 59.6037 23.6653C58.2436 22.512 55.8024 20.3054 53.768 20.634C53.2086 20.7753 49.8299 21.7482 49.854 21.9061C48.5826 23.1676 46.8948 23.8172 45.6467 25.1833C45.5054 25.393 44.7513 26.5561 44.4235 26.3088C44.3062 26.6027 44.1273 26.8471 43.8845 27.0433C43.6965 27.4004 43.4852 27.7425 43.2492 28.0703C43.0183 28.2989 42.774 28.5109 42.5154 28.7064C42.3056 29.0913 42.1101 29.4822 41.9282 29.8807L41.6342 29.5875C41.4748 29.8243 41.3771 30.0852 41.341 30.3701C41.1959 30.6604 41.0328 30.8731 41.1448 31.0543C40.9816 31.1671 40.8358 31.2979 40.705 31.446C40.608 31.6317 40.5591 31.8272 40.5576 32.0332C39.7299 33.1406 39.3562 34.4759 38.845 35.7517L38.6006 36.1923C38.5683 36.2246 38.5029 36.2412 38.4051 36.2412C38.2916 36.6284 38.1939 37.0201 38.1119 37.4148C37.9262 37.7065 37.7796 38.017 37.6714 38.3455L37.7202 38.7854C37.5826 38.8884 37.3285 39.1395 37.3285 39.3237C36.2895 40.8777 35.5745 45.5841 36.8391 47.187C37.933 48.5741 42.0628 48.4884 41.6839 50.5274C41.9132 52.1919 41.8282 54.0805 43.0289 55.4053C43.9266 56.3954 45.5031 56.9976 46.7715 57.3773C47.0654 57.4427 47.3421 57.5239 47.603 57.6216L48.1909 58.0133H48.239C48.4443 57.8359 48.6571 57.8194 48.8758 57.9637C49.0698 57.8938 49.2495 57.7961 49.4134 57.6713C49.5111 57.6382 49.6096 57.6382 49.7074 57.6713C50.0968 57.2728 50.2479 56.7901 50.9306 56.7901C50.9231 56.8886 51.9546 56.3879 52.2997 56.1541C52.7402 55.9022 53.056 55.4609 53.3763 55.0775C53.9266 54.5294 54.1552 53.7182 54.6972 53.1693C54.8514 52.8295 55.031 52.5032 55.2363 52.1912C55.3649 52.1386 55.4957 52.0897 55.628 52.0446C55.7566 51.9145 55.9039 51.7183 56.0671 51.4567C56.1656 51.1958 56.264 50.9356 56.361 50.6748C56.4903 50.7078 56.5565 50.6748 56.5565 50.577C56.7249 50.2379 56.431 49.8282 56.8016 49.5493C56.779 49.8011 56.8768 49.9643 57.0948 50.038C57.37 50.038 57.3151 49.6139 57.3392 49.4515C57.0459 49.4846 56.8993 49.3703 56.8993 49.1087C57.1114 49.1508 57.3068 49.2327 57.4865 49.353L57.6812 49.3042C57.7557 49.0974 57.8045 48.8862 57.8286 48.6689C58.0248 48.408 58.2203 48.1471 58.4158 47.8855C58.7503 47.2953 59.0428 46.6818 59.3458 46.0751C59.7781 45.6435 59.3338 44.9564 59.5909 44.706C59.8495 44.7361 60.0284 44.6383 60.1284 44.412C60.2096 44.4932 60.3592 44.2444 60.275 44.1188C60.3592 43.7527 60.5224 43.4264 60.7645 43.1399C60.8291 42.7482 60.8946 42.5039 60.96 42.4062C61.069 42.1212 61.2321 41.8769 61.4494 41.6724C61.5171 41.8137 61.6306 41.8791 61.7915 41.8671C62.0749 41.6799 62.1779 41.0589 62.1832 40.7424C62.0787 40.4341 61.9411 40.1785 61.8892 39.862C61.9216 39.7973 62.0193 39.7477 62.1832 39.7146C62.3463 39.6838 62.4441 39.65 62.4764 39.6169ZM147.724 57.1946C147.577 57.2014 147.43 57.2081 147.283 57.2141C147.176 57.0405 147.07 56.8661 146.967 56.6901C146.798 56.6525 146.653 56.6916 146.531 56.8067L146.428 56.7134C146.16 56.324 146.569 56.2668 146.852 56.3029C147.119 56.5495 147.461 56.7428 147.761 56.948C147.761 56.948 147.748 57.0307 147.724 57.1946ZM133.068 34.9773V35.0555C133.015 35.0991 132.968 35.1397 132.914 35.1841C132.898 35.1796 132.891 35.1773 132.872 35.1728L132.774 35.2224C132.653 35.3127 132.487 35.4713 132.284 35.6863C131.981 35.9299 131.682 36.1712 131.362 36.4216C131.084 36.5487 130.848 36.7314 130.65 36.9689C130.59 37.0156 130.527 37.0629 130.466 37.1095C130.353 37.1817 130.222 37.296 130.184 37.3246C130.152 37.3343 130.118 37.3351 130.084 37.3253C129.24 37.117 128.552 35.781 128.054 35.1134C127.402 34.2413 125.886 32.7091 125.729 31.6016C125.702 31.3408 125.752 31.0957 125.877 30.8671C125.925 30.4107 125.973 29.9544 126.022 29.4973C126.088 29.2695 126.121 28.9101 126.121 28.4214L126.219 27.4425C126.219 26.8854 126.576 26.0186 125.877 25.681C125.935 25.7096 125.188 25.9231 125.533 25.8284C125.054 25.9599 124.261 26.6103 124.163 26.7087L123.87 26.5501C123.738 26.5667 123.759 27.0764 123.772 27.1493C123.618 27.2621 123.455 27.3591 123.282 27.4425C123.162 27.5485 123.081 27.6794 123.038 27.8342C122.565 27.3621 123.282 26.7501 123.282 26.2682V25.2412L123.332 24.8743C125.777 23.6458 128.289 22.3933 130.866 21.4738C131.11 21.3753 131.355 21.2775 131.6 21.1806C131.817 21.1084 132.147 21.1851 132.232 20.9182C132.29 20.8956 132.346 20.8731 132.403 20.8513C132.425 20.9227 132.596 20.8377 132.611 20.7731C132.656 20.755 132.703 20.7385 132.748 20.7212C132.74 20.7595 133.249 20.5776 133.427 20.4686C133.959 20.2746 134.492 20.0889 135.019 19.9145C135.151 19.8949 135.288 19.8686 135.416 19.8596L135.528 19.7476C135.565 19.7355 135.603 19.7243 135.641 19.713H136.053C136.136 19.6416 136.221 19.5731 136.309 19.5077C136.84 19.3499 137.357 19.21 137.858 19.089C137.974 19.0807 138.058 19.0762 138.107 19.0762C139.371 18.8958 140.839 18.7657 142.071 19.1739C142.071 19.1739 144.051 20.2317 143.087 23.3751C143.002 23.4849 142.96 23.6097 142.959 23.7503C142.919 23.8608 142.884 23.9676 142.836 24.0834C142.836 24.0834 142.425 24.4871 142.575 24.6608C142.332 25.1622 142.02 25.7066 141.632 26.2937C141.369 26.4937 141.175 26.7426 141.042 27.0516C140.97 27.1553 140.908 27.2643 140.856 27.3786C139.878 28.6673 138.555 30.1371 136.774 31.8152C136.762 31.8084 136.749 31.8054 136.737 31.7971C136.46 32.0129 136.213 32.2602 135.995 32.5354C135.622 32.8737 135.229 33.2218 134.82 33.5759C134.79 33.5835 134.762 33.603 134.732 33.6068H134.682C134.682 33.6489 134.662 33.6834 134.653 33.7218C134.365 33.9714 134.06 34.227 133.753 34.4841C133.502 34.612 133.273 34.7766 133.068 34.9773ZM124.995 40.5544C124.81 40.6491 124.313 41.1822 123.772 41.0935L123.625 41.1912C123.72 40.9371 123.786 40.6762 123.821 40.4078C123.983 39.9184 124.065 39.4462 124.065 38.9891C124.298 38.8726 124.819 39.4041 125.044 39.4785C124.728 39.8981 125.391 40.1589 124.995 40.5544ZM119.906 50.3891C119.955 50.8304 119.775 51.1401 119.369 51.3183C119.209 51.1664 119.327 50.277 119.418 50.0958H119.466C119.466 50.0958 119.45 50.0793 119.418 50.0462L119.613 50.1936C119.704 50.0131 119.671 49.85 119.516 49.7041C119.894 49.6568 119.958 50.1222 119.906 50.3891ZM110.527 24.0586C110.096 23.9736 109.763 24.3518 109.353 24.3518C109.263 24.0631 110.11 24.0134 110.527 23.7653V24.0586ZM99.2242 30.3213C99.2242 30.5168 99.1754 30.6641 99.0776 30.7618C98.3514 31.2453 98.5491 32.3452 97.8544 32.9143C97.8544 32.4978 97.8657 32.0294 98.1484 31.6911C98.5062 31.3325 98.6859 30.9085 98.6859 30.419C98.6228 29.907 98.9618 29.5251 99.1754 29.0981C99.2671 29.3815 99.2242 30.0273 99.2242 30.3213ZM97.0229 36.3389C96.9905 36.6005 96.7778 36.7306 96.3868 36.7306C96.2274 36.5893 95.9981 36.8148 95.5553 36.8772C95.4628 36.6945 95.8087 36.3712 95.5553 36.2412L95.408 36.29C95.9297 35.6059 96.256 34.9375 96.3868 34.2842C96.8229 34.8638 96.0816 35.3066 96.7778 35.7036C96.7778 34.9134 96.8394 34.2045 97.5604 33.7459C97.607 33.7857 97.6228 33.8353 97.6093 33.8932C97.4063 34.7067 97.2056 35.5202 97.0229 36.3389ZM94.4298 44.6564H94.3321C94.4644 43.97 94.3614 43.2407 94.8215 42.6505C95.2207 41.9836 94.6163 41.4273 95.408 41.4273C95.017 42.537 94.6907 43.6136 94.4298 44.6564ZM94.2343 41.4769C94.2343 41.313 94.3486 41.1995 94.5772 41.1333C94.511 41.2641 94.4945 41.3468 94.5276 41.3784C94.5614 41.4581 94.5614 41.54 94.5276 41.6227C94.3885 41.6889 94.2907 41.6408 94.2343 41.4769ZM93.7449 37.4644C93.4615 38.1012 93.3743 38.7996 93.2058 39.4703C92.8901 39.9236 92.7502 40.4642 93.0111 40.9875C92.5315 40.8288 91.9871 43.7677 91.9345 44.1669C91.8308 44.3707 91.7496 44.5827 91.6902 44.8037C91.4285 43.1302 92.5683 40.7153 93.0111 39.1522C93.3186 38.0681 93.7366 34.5691 94.8215 33.8932C94.808 34.3541 94.6772 34.7781 94.4298 35.1645C94.2659 35.8179 94.0381 36.5832 93.7449 37.4644ZM93.8426 48.0817C93.8426 48.5057 93.7938 48.8644 93.696 49.1583C93.6344 49.2801 93.4547 49.6049 93.5983 49.7447C93.6742 50.0507 93.4712 50.1357 93.2058 50.1357C93.2382 50.071 93.3367 49.5981 93.5006 48.717C93.5652 48.1298 93.6787 47.5923 93.8426 47.1028V48.0817ZM93.0111 46.8585C92.945 46.7284 92.9374 46.5893 92.9863 46.442C93.0435 46.2728 93.0675 46.1036 93.0592 45.9292L93.4517 46.027C93.4081 46.3563 93.2615 46.6337 93.0111 46.8585ZM93.0111 48.4726C92.839 49.032 93.0525 50.0763 92.5217 50.4297C92.3443 49.732 92.5442 48.8659 92.669 48.1794C92.7337 47.9516 92.7984 47.6088 92.8638 47.1517C92.9337 47.3028 92.9577 47.4772 93.0111 47.6404C93.2074 47.9148 93.2074 48.1915 93.0111 48.4726ZM92.2773 54.7354C92.2089 54.9008 92.2089 55.0647 92.2773 55.2241C91.839 54.897 91.7646 54.4158 92.1788 54.0008C92.3367 54.2324 92.3691 54.4767 92.2773 54.7354ZM95.3591 36.4374C95.3508 36.7742 95.1877 37.0028 94.8696 37.1223L95.3591 36.4374ZM96.044 34.1376C96.059 34.4112 95.9613 34.639 95.7508 34.8225C95.6455 34.5225 95.7425 34.2947 96.044 34.1376ZM96.0929 33.8436C96.0929 33.2895 96.2071 32.9143 96.4349 32.7189C96.565 33.1098 96.4515 33.485 96.0929 33.8436ZM96.2402 29.2454L96.7297 27.8748H96.9251C96.3342 29.5988 95.7004 31.3039 95.0659 33.0121H94.9674C95.1305 32.3926 95.5553 31.137 96.2402 29.2454ZM97.2439 32.694C97.2266 32.776 97.1364 32.9316 96.974 33.1587C97.0056 32.8985 97.0717 32.6046 97.1695 32.2783C97.2349 32.4745 97.2589 32.6128 97.2439 32.694ZM97.0477 27.141C97.1612 26.9456 97.2349 26.7982 97.2672 26.7005C97.2996 26.9944 97.1853 27.3049 96.9251 27.6305C96.8921 27.5004 96.9319 27.3365 97.0477 27.141ZM109.89 48.9621L110.379 48.9132C110.371 49.1215 110.256 49.2358 110.037 49.2553C109.862 49.2485 109.813 49.1508 109.89 48.9621ZM90.809 51.3108C90.3707 50.8672 90.797 47.2825 91.3481 47.0051C91.0534 48.2118 90.8752 49.647 90.809 51.3108ZM90.6624 53.6588L90.7113 52.6318C91.2616 53.1791 91.0293 54.0181 91.2496 54.6865C90.8579 54.458 90.6624 54.1159 90.6624 53.6588ZM114.27 19.9491C114.383 19.9821 114.456 19.9979 114.489 19.9979L114.587 19.9491C114.418 20.1851 114.223 20.2505 114.001 20.1445C114.065 19.9821 114.155 19.9167 114.27 19.9491ZM155.889 59.1381C155.547 58.8238 155.046 58.8794 154.645 58.7028L154.151 58.5772C153.623 58.2998 152.878 57.6179 152.642 57.6645C151.325 56.9901 150.042 55.8278 148.849 54.9421C143.597 51.8995 139.666 47.1427 135.065 43.3038L133.528 41.7558C133.331 41.4032 133.053 41.3671 133.264 40.9461C133.371 40.6604 133.55 40.4326 133.802 40.2619C133.963 40.2221 134.127 40.1898 134.292 40.1635C134.377 40.1635 134.753 39.78 134.878 39.7229C135.135 39.8514 136.166 38.647 136.493 38.4508C137.373 37.799 138.352 36.9674 139.428 35.9555C140.079 34.9728 141.197 34.4819 142.021 33.6564V33.3624C142.187 33.1361 142.399 32.9737 142.657 32.873C143.975 32.2602 145 30.5799 145.789 29.3995C146.311 27.7824 147.585 26.8757 147.745 24.9961L147.843 24.8006C147.713 24.769 147.697 24.7029 147.795 24.6051L147.941 24.2623C148.064 24.3209 148.161 24.2886 148.234 24.1646C148.271 23.0511 147.898 20.846 147.012 20.1032C146.522 19.616 145.814 19.4521 145.25 19.0762C144.384 18.386 143.214 17.7643 142.266 17.1681C140.793 16.5388 139.536 16.0756 137.961 15.7005L136.591 15.6516L135.368 15.7005C134.114 15.8809 132.905 15.8914 131.649 16.1411C131.454 16.2065 131.323 16.2553 131.258 16.2869C130.803 16.3741 130.034 16.7117 129.985 16.6057C129.82 16.6613 129.673 16.7515 129.545 16.8741L129.154 17.0703C129.154 16.7478 128.491 17.035 128.419 17.0703C127.899 17.1741 126.87 17.886 126.707 17.9507C126.707 17.9507 126.3 18.0981 126.121 18.0492C125.729 18.0815 125.304 18.2612 124.848 18.5868C124.383 18.8221 124.092 19.0521 123.577 19.2235C123.141 19.2235 121.963 20.0378 121.603 20.0333C121.567 20.0325 119.999 21.1219 119.369 21.376C118.923 21.5978 118.56 21.9745 118.096 22.1579C117.962 22.1737 117.831 22.1579 117.705 22.1098C117.325 22.206 116.516 23.0797 116.032 23.5127C115.978 23.5157 115.929 23.5202 115.859 23.5202C114.832 23.0646 112.886 23.3676 111.847 23.7165C111.781 23.7165 111.75 23.6841 111.75 23.618C112.091 23.5075 112.659 23.4879 112.924 23.227C113.236 23.124 113.748 23.1759 113.951 22.8353C114.104 22.5271 116.072 22.3361 115.811 21.8076C115.778 21.6121 115.811 21.5144 115.909 21.5144C116.074 21.5302 116.237 21.5144 116.397 21.4655C116.7 21.6204 116.862 21.0016 117.18 21.3189C117.5 21.4339 117.745 21.3354 117.915 21.0257C117.62 20.9918 117.327 20.9918 117.034 21.0257C116.952 20.9099 116.855 20.8122 116.74 20.731C116.096 20.8941 115.455 20.6671 114.832 20.9761C114.949 20.9723 115.031 21.0212 115.077 21.1227C114.706 21.3715 113.808 21.4708 113.462 21.1227C113.56 21.1227 110.55 21.5264 108.912 21.6617C111.024 21.1167 115.131 20.4881 115.028 20.5851C115.544 20.4565 115.95 20.7565 116.349 20.2911C116.349 20.2588 116.43 20.243 116.593 20.243C117.14 20.4235 117.749 20.1333 118.306 20.243C118.585 20.2671 118.781 20.1528 118.892 19.8994C118.578 19.716 118.315 19.5844 117.964 19.5574C117.205 19.7769 115.55 19.5092 114.783 19.5092L114.245 19.4596C113.722 19.4596 113.266 19.5904 112.875 19.8513C112.785 19.8964 112.396 19.7386 112.287 19.704C110.771 20.0836 109.251 20.3054 107.738 20.6828C106.922 20.8137 105.732 21.1069 104.167 21.564C104.055 21.6685 103.925 21.7331 103.774 21.7595C103.386 21.4693 102.551 22.0038 102.161 22.1015C101.956 22.0467 100.813 21.1227 100.252 21.1227C100.22 21.0911 100.203 21.0422 100.203 20.9761C99.9264 20.728 99.6167 20.5325 99.2738 20.3889C99.0851 20.3152 98.922 20.3475 98.7844 20.4866C97.8845 22.8834 96.9943 25.5472 95.8485 27.826C95.5019 29.0011 95.0734 30.1807 94.5772 31.2994C94.2712 32.4226 93.9299 33.6406 93.5006 34.7247C93.3968 35.0871 93.2825 35.4457 93.1577 35.8006C92.9615 36.3216 92.775 36.8674 92.669 37.4148C92.3811 38.2696 91.8706 39.0147 91.9345 39.9597L91.8856 40.0574C91.5548 40.1913 91.3962 40.9145 91.3962 41.2318C91.4939 41.4604 91.4939 41.6077 91.3962 41.6724C91.0398 42.2986 90.5609 43.9301 90.7113 44.6083C90.7113 44.706 90.6624 44.8037 90.5647 44.9007C89.2911 45.9615 89.2565 50.7169 89.3903 52.1912C89.3813 52.8648 89.3294 53.6978 89.9279 54.1482C89.8234 54.1595 90.0745 54.3286 90.0745 54.3925L89.9775 54.6865C89.9452 54.8008 89.9452 54.9151 89.9775 55.0293C90.3038 55.4534 90.7767 55.7135 91.3962 55.8112C91.7887 55.9105 93.0562 56.4067 93.2058 55.9586C93.3066 56.1699 93.4051 56.3811 93.5006 56.5946C93.6915 56.9127 94.1276 57.2322 94.5276 57.0352L97.6589 55.8609C98.7025 55.6 99.4851 55.4203 100.007 55.3226C100.235 55.2571 100.708 55.1436 101.426 54.9797C101.948 54.8331 102.471 54.6865 102.992 54.5399C103.155 54.5399 103.237 54.5076 103.237 54.4422C103.08 53.8279 106.443 54.0911 106.71 53.561C106.888 53.0896 107.406 53.3437 107.591 52.9738C107.263 52.646 106.708 52.9979 106.417 52.4844C106.658 52.4228 106.87 52.3085 107.052 52.1423C107.202 52.3483 107.3 52.5761 107.346 52.8272C107.539 52.8317 107.718 52.7829 107.885 52.6806C107.744 52.6115 107.597 52.5626 107.445 52.5333C107.567 51.7348 108.6 51.8521 109.205 51.7506C109.239 51.8499 110.011 51.5033 110.478 51.4085C109.988 51.4085 109.613 51.4251 109.353 51.4567C109.221 51.4567 109.156 51.392 109.156 51.2612C108.995 50.9401 109.89 50.8695 110.037 50.8695C110.33 50.9356 110.575 50.8868 110.772 50.7236C110.529 50.4883 110.269 50.4229 109.988 50.5274C109.644 50.4981 109.334 50.5958 109.058 50.8214C108.809 50.9266 108.647 50.8454 108.569 50.577C108.866 50.1816 109.424 50.3184 109.304 50.2342C109.738 49.9056 110.309 49.8387 110.575 49.3042C110.702 49.353 110.832 49.3696 110.966 49.353C111.032 49.1906 111.016 48.9952 110.918 48.7666C111.023 48.7546 111.105 48.7057 111.163 48.6193C111.032 48.5546 110.966 48.4411 110.966 48.2772L111.847 48.3749C111.938 48.3727 112.232 48.3727 112.141 48.3749C112.87 48.3569 113.495 47.8434 114.195 47.6404C114.995 47.4863 115.81 47.1487 116.544 46.8096C116.116 46.554 115.947 46.7607 115.516 46.7607C114.922 46.8517 112.583 46.7795 112.337 47.5434C112.237 47.4449 112.227 47.0773 112.239 46.9066C112.598 46.9983 113.126 46.9983 113.413 46.7119C113.159 46.648 112.663 46.4765 112.385 46.6134C111.832 46.8359 110.829 46.9066 110.232 46.9066C107.522 47.2464 104.801 47.6321 102.111 48.0817C100.503 48.2283 98.8453 48.6027 97.3161 49.1087C96.962 49.1989 96.238 49.55 95.8485 49.353C95.7839 49.0673 95.8327 48.8065 95.9951 48.5704C96.0816 47.5953 96.2011 46.7322 96.4349 45.7819C96.6635 45.2278 96.7943 44.7225 96.8274 44.2647C96.8274 43.5497 98.0386 43.2347 98.5393 42.9933C99.1205 42.8475 101.916 42.3062 101.916 41.5746C102.007 41.4799 103.728 41.3115 104.155 41.2107C104.795 41.0604 105.434 40.8987 106.074 40.7424C106.752 40.6303 107.374 40.2807 108.08 40.3514C108.209 40.3514 108.34 40.3018 108.472 40.204C108.839 39.8357 109.155 39.7146 109.646 39.9597H109.695C109.609 39.8951 109.593 39.8131 109.646 39.7146C110.351 39.4823 111.014 38.9049 111.799 38.9808C111.799 38.7485 111.851 38.2455 111.505 38.4433C111.346 38.5004 111.199 38.4846 111.064 38.3937C110.985 37.9944 110.034 38.5816 109.939 38.638C109.939 38.2922 109.711 38.1395 109.401 38.1486C109.139 38.4109 108.879 38.5575 108.618 38.5899C108.535 38.2606 108.115 38.4809 107.933 38.2959C107.998 38.035 108.129 37.8396 108.325 37.7095C108.716 37.5456 109.09 37.4644 109.451 37.4644C109.807 37.414 110.149 37.3163 110.478 37.1704L110.674 37.22V37.0727C110.355 36.7622 110.008 37.4599 109.646 36.975C109.802 36.9637 109.933 36.8983 110.037 36.7795C109.909 36.7389 109.795 36.6735 109.695 36.5832C110.541 36.3013 111.456 36.2058 112.337 36.0946C111.802 35.9908 111.217 36.154 110.674 36.1434C111.912 35.7517 113.429 35.4089 115.224 35.1164C114.622 34.8435 113.916 34.8518 113.266 34.8713C113.731 34.8713 114.127 34.5285 114.587 34.5285C114.275 33.5955 115.442 34.4789 115.664 34.0398C116.051 33.6526 116.628 33.9519 117.034 33.6481C117.343 33.4947 117.559 33.4564 117.523 33.0609C117.279 32.9534 117.067 33.0015 116.887 33.2075C116.25 32.7309 113.975 33.2354 113.266 33.4519C112.222 33.6481 111.194 33.7459 110.184 33.7459L111.701 33.5504C111.505 33.485 111.358 33.4519 111.26 33.4519L110.624 33.5015C110.527 33.5015 110.346 33.4692 110.086 33.4038C110.086 33.5804 108.794 33.6128 108.667 33.697C108.339 33.6586 107.708 33.6782 107.445 33.9413C104.634 34.1526 102.067 35.4856 99.322 35.7517L99.861 34.2842C100.349 33.206 100.608 32.0407 101.084 30.9573C101.366 30.104 101.553 29.1499 102.503 28.8041C103.895 28.1086 105.288 27.5711 106.808 27.2388C107.525 27.011 108.145 26.832 108.667 26.7005C110.319 26.4464 112.044 26.0374 113.665 25.6171C113.393 25.8735 113.157 26.1013 112.988 26.2659C112.898 26.2998 112.832 26.3652 112.787 26.4621C112.724 26.5245 112.68 26.5682 112.68 26.5682L112.695 26.5892C112.512 26.8486 111.985 27.4297 112.087 27.8372C112.313 28.147 112.571 28.4267 112.862 28.6778C112.943 28.8808 113.039 29.0778 113.148 29.268C113.428 29.6792 114.615 31.1866 115.095 31.0701C115.332 30.8408 115.57 30.6122 115.808 30.3829C115.942 30.2521 116.089 30.1393 116.252 30.0454C116.288 29.9987 116.294 29.9393 116.28 29.8702C116.364 29.783 116.449 29.6973 116.537 29.6131C116.643 29.6288 116.749 29.6183 116.855 29.5822C117.033 29.3492 117.618 28.5988 117.703 28.5409L117.677 28.5267C117.97 28.2793 120.265 26.4313 120.396 26.5621C120.583 26.299 121.462 25.6351 121.472 25.7306C121.538 25.7306 121.619 25.681 121.717 25.584C121.811 25.6885 122.286 26.4246 122.011 26.5621L122.108 26.9042C122.225 26.808 122.29 26.6772 122.304 26.5125C122.423 26.7659 122.522 27.0268 122.598 27.2959C122.511 27.435 122.413 27.5651 122.304 27.6869L122.45 27.932C122.069 28.3139 122.233 28.7853 121.864 29.1552C121.733 29.0251 121.766 28.8778 121.962 28.7146C121.588 28.5552 121.247 28.4831 121.326 28.7146C121.268 28.9206 121.186 29.1161 121.081 29.3018C121.015 29.3349 120.934 29.3499 120.836 29.3499C120.771 29.5146 120.787 29.6612 120.885 29.7912C120.852 29.9544 120.836 30.1506 120.836 30.3784C120.706 30.607 120.623 30.8844 120.592 31.2099C120.493 31.3077 120.461 31.4385 120.493 31.6016V31.9926C120.278 32.6459 120.141 32.8602 120.078 33.5338C120.045 33.8887 120.181 34.2315 120.005 34.5856C119.736 34.9841 119.523 34.9488 119.466 35.466C119.532 35.5969 119.581 35.9397 119.516 36.1021C119.401 36.5908 119.14 37.799 119.075 37.9621C118.919 38.1561 118.977 39.2846 118.879 39.3312C118.913 39.5883 118.848 39.8169 118.684 40.0168C118.589 40.2041 119.097 40.5965 118.782 40.7499C118.7 40.6604 118.618 40.5709 118.537 40.4815C118.415 40.6845 118.366 40.9048 118.391 41.1416C118.422 41.3701 118.357 41.5333 118.195 41.631C117.998 41.7288 117.982 41.8265 118.145 41.925C117.459 43.2798 116.678 42.7595 115.308 42.5603C114.63 42.337 114.032 41.8799 113.301 42.1205C113.735 42.5498 114.055 43.0467 114.574 43.3926C114.769 43.588 114.98 43.7354 115.21 43.8331L115.846 44.2248L116.433 44.6646C116.709 44.6677 116.97 44.7331 117.216 44.8601C117.579 45.3458 117.003 45.8232 117.461 46.2788C117.118 46.4735 116.94 46.7668 116.921 47.16L116.971 47.6494C116.971 48.2043 116.579 49.4606 116.433 49.9974C116.335 50.2267 116.221 50.6996 116.091 51.4168C115.882 52.0513 115.906 52.6889 115.748 53.3249C115.541 53.9414 114.798 55.5052 115.504 56.0646C115.689 56.2496 116.486 56.2247 116.629 56.2601C116.818 56.3713 117.013 56.4691 117.216 56.5533C117.688 56.7097 119.548 57.1833 119.858 56.7984C119.906 56.4721 119.956 56.1458 120.005 55.8195C120.031 55.6346 120.08 55.4549 120.151 55.2812C120.085 55.1669 120.021 55.0526 119.956 54.9391C120.086 54.8083 120.217 54.6775 120.348 54.5474C120.348 53.973 120.641 53.4475 120.641 52.8836C120.725 51.7739 121.123 50.7462 121.472 49.7041C121.472 49.4207 121.127 49.3154 121.472 48.9704C121.587 48.3854 121.915 47.7795 122.108 47.2088C122.108 46.763 121.838 46.3781 122.353 46.0833C122.455 45.9818 122.7 45.9676 122.842 45.9856C122.924 45.9037 123.005 45.8225 123.087 45.7413C123.217 45.6916 123.347 45.6428 123.478 45.5939C123.609 45.4638 123.707 45.3826 123.772 45.3496C124.032 45.2849 124.293 45.2518 124.555 45.2518C124.636 45.2849 124.946 45.1541 124.946 45.1541L125.289 44.9097C125.873 44.7301 126.589 44.4669 127.099 44.1263C127.357 43.9564 127.634 43.8264 127.931 43.7354C128.159 43.7031 128.55 44.0151 128.888 44.2617C129.255 44.4414 129.474 44.5955 129.545 44.7225C129.655 44.9391 129.746 45.1639 129.82 45.3962C130.024 45.5826 130.228 45.7698 130.431 45.9563C130.568 46.3157 130.73 46.6186 131.104 46.7592L131.597 46.8359C131.719 47.0141 131.939 47.196 131.852 47.069C132.084 47.1547 132.254 47.3111 132.362 47.5366C132.529 47.7652 132.651 47.9915 132.737 48.2546C132.866 48.2494 133.031 48.6508 133.107 48.8756L133.402 48.911C133.629 48.9666 133.829 49.0719 134.004 49.2282C134.241 49.6553 133.938 49.9192 134.095 50.2026C134.199 50.6981 135.01 51.0792 135.458 51.1221C135.616 51.1063 135.8 51.1078 135.949 51.1499C136.154 51.2882 136.325 51.4604 136.462 51.6657C136.595 51.7589 136.716 51.8687 136.819 51.9935C136.919 52.022 136.97 52.1175 136.978 52.2799C137.105 52.3528 137.239 52.4122 137.378 52.4581C137.558 52.7889 137.807 53.3467 138.239 53.1069C138.41 53.2332 138.549 53.3904 138.652 53.5783C138.975 53.6918 140.16 54.6316 140.376 54.9226C140.543 55.0459 140.517 55.1782 140.295 55.318L140.551 55.5511C140.788 55.7533 141.025 55.9548 141.262 56.1563C141.275 56.4495 141.839 56.6706 141.677 56.6773C141.761 56.8021 142.248 57.4186 142.349 57.4803C142.668 57.769 143.077 57.3382 143.104 57.9367C143.25 57.963 143.351 58.0404 143.408 58.1682C143.349 58.3336 143.402 58.4291 143.568 58.4547C143.973 58.6359 144.308 59.1178 144.728 59.2366C144.956 59.2268 145.219 58.5592 145.355 59.0133C145.462 59.2057 145.18 59.9027 145.686 59.8801L145.878 59.7734C146.01 60.0485 146.51 60.4147 146.728 60.1779C146.924 61.2229 148.21 61.174 148.941 61.5003C149.373 61.6229 149.74 62.0319 150.244 62.1777C150.437 62.2251 150.621 62.2988 150.793 62.3988C151.527 62.3589 152.261 62.386 152.995 62.3499C153.228 62.4702 153.356 62.4153 153.379 62.1875C153.372 62.0236 153.451 61.971 153.617 62.0296C153.733 62.0394 154.343 61.8334 154.447 61.9928C154.612 62.0183 154.775 62.0108 154.936 61.9717C154.781 61.7138 154.563 61.5763 154.282 61.559L153.536 61.2981C153.714 61.0996 154.008 61.2936 154.165 61.1237C154.098 61.0936 153.483 60.8432 152.319 60.3726C151.697 60.0358 151.141 59.5501 150.461 59.3268C150.517 59.1486 150.494 58.987 150.391 58.8411C150.683 58.8283 150.915 59.0621 151.233 59.0486C151.385 59.2072 151.538 59.3636 151.694 59.5177L152.085 59.5005C152.122 59.5974 152.207 59.6749 152.341 59.7343C152.643 59.9177 152.942 60.0343 153.238 60.0869C153.469 60.1538 154.979 61.0274 155.119 60.5432C154.762 59.9042 151.887 59.8455 152.735 58.6885C152.602 58.6614 152.336 58.5103 151.932 58.2344C152.254 57.9976 153.157 58.4674 153.42 58.6584L153.44 59.0982L153.684 59.0877C153.79 59.1809 153.908 59.2569 154.037 59.317C154.202 59.3884 154.463 59.3914 154.57 59.196C154.716 59.2275 154.849 59.2869 154.969 59.3742C155.679 59.3426 155.334 59.4268 155.62 59.6884C155.859 59.7072 155.984 59.6486 156 59.4275C156 59.4275 155.963 59.3305 155.889 59.1381Z" fill="#A20067"/>
</svg>
