<svg width="160" height="56" viewBox="0 0 160 56" fill="none" xmlns="http://www.w3.org/2000/svg">
<path d="M27.4147 50.0372H37.7453C40.4838 50.0341 43.1092 48.9449 45.0457 47.0084C46.9821 45.072 48.0713 42.4466 48.0744 39.7081V16.2934C48.0717 13.5546 46.9826 10.9288 45.0462 8.99205C43.1097 7.05533 40.484 5.96589 37.7453 5.9628H27.4147V50.0372ZM4 39.7081C4.00309 42.4466 5.09233 45.072 7.02874 47.0084C8.96515 48.9449 11.5906 50.0341 14.3291 50.0372H24.6596V18.8482H14.3291C11.5903 18.8513 8.96467 19.9407 7.02822 21.8775C5.09177 23.8142 4.00271 26.44 4 29.1788V39.7081Z" fill="black"/>
<path d="M65.6091 24.0076C65.3124 24.0128 65.0167 23.9723 64.7322 23.8878C64.5052 23.8205 64.2943 23.7076 64.1125 23.556C63.9506 23.4196 63.8234 23.2468 63.7412 23.0518C63.6568 22.8477 63.6117 22.6295 63.6082 22.4087C63.2647 22.365 62.9342 22.25 62.6377 22.071C62.3394 21.8883 62.0801 21.6484 61.8748 21.3651C61.6514 21.0521 61.4824 20.7038 61.3749 20.3347C61.2512 19.9073 61.1911 19.4641 61.1966 19.0192C61.1902 18.5327 61.2653 18.0486 61.4187 17.5869C61.5509 17.1913 61.7567 16.8243 62.0253 16.5053C62.2745 16.2157 62.5844 15.9847 62.933 15.8286C63.2848 15.67 63.6667 15.5892 64.0525 15.5918C64.4371 15.5889 64.8176 15.6697 65.1677 15.8286C65.5148 15.9852 65.8231 16.2163 66.071 16.5053C66.3396 16.8234 66.5437 17.1907 66.6717 17.5869C66.9527 18.4852 66.9633 19.4464 66.7024 20.3507C66.5919 20.723 66.4173 21.0732 66.1865 21.3855C65.974 21.6704 65.7054 21.9087 65.3972 22.0856C65.0913 22.2611 64.7524 22.3715 64.4019 22.4101C64.4151 22.5727 64.465 22.7301 64.548 22.8705C64.6196 22.987 64.7204 23.0827 64.8403 23.1482C64.9769 23.2204 65.1255 23.2669 65.2788 23.2856C65.4659 23.3102 65.6544 23.3219 65.843 23.3207H66.2961V24.0076H65.6091ZM64.0496 21.7583C64.3335 21.7611 64.6142 21.6981 64.8696 21.5741C65.1239 21.4482 65.3451 21.2645 65.5156 21.0377C65.7092 20.7794 65.8534 20.4875 65.9409 20.1768C66.1448 19.4235 66.1448 18.6296 65.9409 17.8763C65.8538 17.5681 65.7096 17.279 65.5156 17.0241C65.3442 16.7999 65.1228 16.6188 64.8691 16.4952C64.6153 16.3716 64.3362 16.309 64.054 16.3124C63.7656 16.3091 63.4801 16.3716 63.2194 16.4951C62.9622 16.6188 62.7367 16.7998 62.5603 17.0241C62.3643 17.278 62.2194 17.5673 62.1335 17.8763C61.9332 18.63 61.9332 19.423 62.1335 20.1768C62.2199 20.4882 62.3648 20.7803 62.5603 21.0377C62.7351 21.2655 62.9608 21.4492 63.2194 21.5741C63.48 21.6981 63.7654 21.761 64.054 21.7583" fill="black"/>
<path d="M69.3216 22.413C69.1329 22.4264 68.9435 22.401 68.7651 22.3384C68.5866 22.2758 68.4228 22.1774 68.2839 22.0491C68.1586 21.909 68.0625 21.7453 68.0013 21.5676C67.9401 21.3899 67.9149 21.2018 67.9272 21.0143V17.6176H68.6989V20.8565C68.6776 21.1063 68.7506 21.355 68.9036 21.5536C68.9914 21.6349 69.0954 21.6967 69.2087 21.7352C69.322 21.7738 69.4421 21.7881 69.5613 21.7773C69.8378 21.7795 70.11 21.7089 70.3506 21.5726C70.6151 21.4174 70.8604 21.2315 71.0814 21.0187V17.6176H71.8618V22.3297H71.0814V21.6238C70.9767 21.7294 70.8643 21.8271 70.7452 21.9161C70.6167 22.0142 70.4792 22.0998 70.3345 22.1719C70.1807 22.2468 70.0195 22.3056 69.8536 22.3473C69.6778 22.3918 69.4971 22.4139 69.3157 22.413" fill="black"/>
<path d="M74.2662 22.3984C73.9154 22.4177 73.5697 22.308 73.2942 22.09C73.1727 21.98 73.0774 21.8441 73.0154 21.6923C72.9534 21.5405 72.9263 21.3767 72.9361 21.2131C72.9343 20.9822 72.9916 20.7548 73.1027 20.5524C73.235 20.3278 73.4189 20.1379 73.6391 19.9985C73.9411 19.8067 74.2689 19.6591 74.6126 19.56C75.0963 19.4174 75.5903 19.3124 76.0902 19.2458V19.0324C76.1067 18.9119 76.0948 18.7893 76.0555 18.6743C76.0162 18.5592 75.9505 18.455 75.8638 18.3698C75.777 18.2846 75.6716 18.2209 75.5559 18.1837C75.4402 18.1464 75.3173 18.1368 75.1972 18.1554C74.8703 18.1482 74.5463 18.2183 74.2516 18.36C73.9786 18.4963 73.7237 18.6662 73.493 18.8658L73.0925 18.3864C73.3738 18.1306 73.6928 17.9196 74.0382 17.7608C74.4287 17.5867 74.853 17.5014 75.2805 17.5109C75.5236 17.5055 75.7658 17.5415 75.9967 17.6176C76.1808 17.6792 76.3473 17.7846 76.4819 17.9245C76.6119 18.0661 76.7065 18.2363 76.7582 18.4214C76.82 18.6366 76.8501 18.8597 76.8473 19.0835V21.1634C76.8456 21.3981 76.8558 21.6327 76.878 21.8664C76.8921 22.0225 76.9275 22.176 76.9833 22.3224H76.1969C76.1648 22.2216 76.1399 22.1207 76.118 22.0301C76.0963 21.913 76.086 21.794 76.0873 21.6749C75.5995 22.1487 74.9447 22.4113 74.2647 22.4057L74.2662 22.3984ZM74.4869 21.7992C74.7891 21.8038 75.0886 21.7414 75.3638 21.6165C75.6347 21.4911 75.8819 21.3201 76.0946 21.1108V19.7953C75.7135 19.8537 75.3363 19.9347 74.9648 20.038C74.7071 20.1057 74.4583 20.2038 74.2238 20.3303C74.0625 20.4162 73.9242 20.5395 73.8204 20.6898C73.7415 20.8133 73.6999 20.9569 73.7005 21.1035C73.694 21.2001 73.7095 21.297 73.7457 21.3868C73.7819 21.4767 73.8379 21.5572 73.9095 21.6223C74.0763 21.7508 74.2841 21.8142 74.4942 21.8006" fill="black"/>
<path d="M78.9827 15.7204H78.2154V22.3283H78.9827V15.7204Z" fill="black"/>
<path d="M82.0448 22.3911C81.6787 22.4305 81.3117 22.3257 81.0217 22.0988C80.8082 21.8467 80.7031 21.5204 80.7293 21.1912V18.249H79.9094V17.6176H80.7293V15.9396H81.5011V17.6176H82.7215V18.249H81.5011V21.0114C81.4847 21.2096 81.5363 21.4075 81.6472 21.5726C81.7245 21.6456 81.817 21.7004 81.9182 21.7331C82.0194 21.7657 82.1265 21.7753 82.2319 21.7612C82.3164 21.7609 82.4009 21.755 82.4847 21.7436C82.5612 21.7348 82.637 21.7201 82.7113 21.6998V22.3327C82.6484 22.3444 82.549 22.356 82.4189 22.3677C82.2889 22.3794 82.1617 22.3853 82.0462 22.3853" fill="black"/>
<path d="M83.7592 22.3312V17.6176H84.5266V18.4945H84.5441C84.7227 18.2133 84.9626 17.9759 85.2457 17.8003C85.5865 17.6003 85.9778 17.5029 86.3726 17.5196H86.469L86.4164 18.2343C86.3789 18.2268 86.3406 18.2244 86.3024 18.227H86.1928C85.8452 18.2191 85.5031 18.3153 85.2106 18.5033C84.9187 18.7012 84.6847 18.9731 84.5324 19.2911V22.3312H83.7592Z" fill="black"/>
<path d="M87.3635 15.8563H88.1659V16.6061H87.3635V15.8563ZM87.3811 17.6102H88.1469V22.3224H87.3811V17.6102Z" fill="black"/>
<path d="M91.3873 22.4291C91.1163 22.4296 90.848 22.3759 90.598 22.2713C90.3442 22.1667 90.1159 22.0087 89.9286 21.8079C89.7249 21.5851 89.5669 21.3244 89.4638 21.0406C89.342 20.6968 89.2831 20.3339 89.2899 19.9693C89.2809 19.5928 89.3444 19.2182 89.477 18.8658C89.5869 18.5792 89.7563 18.3192 89.9739 18.1028C90.1737 17.9103 90.4111 17.7611 90.6711 17.6643C90.9204 17.5693 91.1848 17.5197 91.4516 17.5182C91.6879 17.5133 91.9233 17.5494 92.1473 17.6249C92.3356 17.6922 92.511 17.791 92.6662 17.9172C92.8142 18.037 92.9412 18.1808 93.0418 18.3425C93.1415 18.5018 93.228 18.669 93.3005 18.8424L92.6472 19.1128C92.5537 18.8452 92.3943 18.6054 92.1839 18.4156C91.9713 18.2484 91.7057 18.1633 91.4355 18.1759C91.264 18.175 91.0939 18.2068 90.9342 18.2694C90.7663 18.3365 90.6162 18.4415 90.4957 18.5764C90.3535 18.7382 90.2464 18.9278 90.1815 19.1332C90.0962 19.4055 90.0562 19.6899 90.0631 19.9751C90.032 20.453 90.1645 20.9272 90.4387 21.3198C90.5531 21.4695 90.7014 21.59 90.8713 21.6713C91.0413 21.7526 91.2282 21.7924 91.4165 21.7875C91.6806 21.7985 91.9411 21.7236 92.159 21.5741C92.3914 21.3783 92.5704 21.1269 92.6793 20.8433L93.3166 21.0918C93.2306 21.2828 93.1253 21.4645 93.0024 21.634C92.8873 21.7946 92.7489 21.9369 92.5916 22.0564C92.4332 22.1773 92.2559 22.2711 92.0669 22.3341C91.8464 22.4047 91.6159 22.4388 91.3844 22.435" fill="black"/>
<path d="M95.8568 22.416C95.4645 22.4229 95.0753 22.3457 94.7153 22.1894C94.4124 22.0613 94.1436 21.8641 93.9305 21.6136L94.3923 21.1517C94.574 21.3427 94.7877 21.5005 95.0237 21.6179C95.286 21.7444 95.5745 21.807 95.8656 21.8006C96.1587 21.8189 96.4511 21.7541 96.709 21.6136C96.8028 21.5558 96.8794 21.474 96.9309 21.3766C96.9823 21.2791 97.0066 21.1697 97.0013 21.0596C97.0062 20.9522 96.9804 20.8456 96.9268 20.7524C96.8732 20.6592 96.7941 20.5832 96.6987 20.5334C96.4109 20.3898 96.1052 20.2856 95.7896 20.2236C95.5402 20.1622 95.3102 20.0959 95.0997 20.0248C94.9107 19.9634 94.7319 19.8743 94.5692 19.7603C94.4269 19.6592 94.3098 19.5266 94.2272 19.3729C94.139 19.1957 94.0963 18.9993 94.1029 18.8014C94.1019 18.6286 94.1399 18.4577 94.214 18.3016C94.2903 18.1435 94.4012 18.0046 94.5385 17.8953C94.6939 17.7706 94.8714 17.6764 95.0617 17.6176C95.2858 17.547 95.5197 17.513 95.7545 17.5167C96.1125 17.5064 96.4688 17.5681 96.8025 17.6979C97.0809 17.8169 97.3354 17.9852 97.5537 18.1949L97.1533 18.705C96.9733 18.5338 96.7651 18.3949 96.5379 18.2943C96.3021 18.189 96.0464 18.1357 95.7881 18.1379C95.5292 18.1145 95.2704 18.1833 95.0574 18.3323C94.9915 18.3853 94.938 18.4519 94.9004 18.5276C94.8628 18.6033 94.842 18.6863 94.8396 18.7708C94.8345 18.8698 94.8577 18.9682 94.9067 19.0544C94.9556 19.1406 95.0282 19.2111 95.1158 19.2575C95.3817 19.3878 95.6638 19.4817 95.9548 19.5366C96.2208 19.6039 96.4649 19.6726 96.6856 19.7442C96.8869 19.8059 97.078 19.897 97.2527 20.0146C97.4063 20.1173 97.5323 20.2564 97.6195 20.4194C97.7113 20.6086 97.7554 20.8173 97.7482 21.0275C97.7515 21.2364 97.7011 21.4427 97.602 21.6267C97.5077 21.8026 97.3723 21.953 97.2074 22.0652C97.0244 22.1867 96.8216 22.2753 96.6081 22.3268C96.3637 22.3868 96.1129 22.4162 95.8612 22.4145" fill="black"/>
<path d="M152.017 28.9551V26.6546H151.202V26.371H153.151V26.6546H152.328V28.9551H152.017Z" fill="black"/>
<path d="M153.578 28.9551V26.371H153.98L154.793 28.5634L155.591 26.371H156V28.9551H155.697V26.8636C155.678 26.9323 155.654 27.0098 155.626 27.0872C155.598 27.1647 155.569 27.2524 155.538 27.3386L154.921 28.9551H154.645L154.028 27.3386C154.011 27.2962 153.996 27.2568 153.983 27.2202C153.97 27.1837 153.958 27.1457 153.945 27.1077C153.932 27.0697 153.919 27.0317 153.907 26.9908L153.866 26.8519V28.9537L153.578 28.9551Z" fill="black"/>
<path d="M61.9055 40.5324V26.3725H66.2493C67.2649 26.3641 68.2773 26.4864 69.2617 26.7364C70.1396 26.9556 70.9591 27.3636 71.6631 27.932C72.3602 28.5162 72.9049 29.2611 73.2504 30.1025C73.6604 31.144 73.8558 32.2576 73.8248 33.3765C73.8574 34.5249 73.6585 35.6681 73.2401 36.7381C72.8921 37.5947 72.3402 38.3533 71.6324 38.9481C70.9269 39.5181 70.1084 39.9316 69.231 40.1612C68.2587 40.4181 67.2564 40.5439 66.2508 40.5354L61.9055 40.5324ZM64.988 38.0097H66.4496C67.1146 38.0245 67.7777 37.9332 68.4139 37.7393C68.9183 37.5832 69.3742 37.3004 69.7381 36.9179C70.0979 36.5116 70.3514 36.0225 70.4762 35.4943C70.6408 34.8141 70.7179 34.1157 70.7057 33.4159C70.8024 32.2159 70.4503 31.0227 69.7177 30.0674C69.2731 29.6654 68.7492 29.3609 68.1798 29.1736C67.6104 28.9863 67.008 28.9204 66.4116 28.98H64.9894L64.988 38.0097Z" fill="black"/>
<path d="M74.5556 35.4402C74.528 34.5765 74.7006 33.7181 75.0598 32.9321C75.36 32.3012 75.7934 31.7427 76.3299 31.2952C76.821 30.8911 77.3859 30.5864 77.9932 30.3977C78.5372 30.2228 79.1042 30.1302 79.6755 30.123C80.2238 30.1265 80.7689 30.2067 81.295 30.3612C81.862 30.5251 82.3813 30.8228 82.8092 31.2294C83.3049 31.7174 83.6858 32.3095 83.9244 32.9628C84.2462 33.8739 84.3949 34.837 84.3629 35.8027V36.2646H77.6103C77.5968 36.5756 77.6496 36.8858 77.7653 37.1748C77.881 37.4638 78.0569 37.7248 78.2813 37.9405C78.5058 38.1562 78.7735 38.3216 79.0668 38.4258C79.3601 38.53 79.6723 38.5705 79.9825 38.5447C80.5723 38.549 81.156 38.4243 81.6925 38.1793C82.1696 37.969 82.6129 37.6892 83.008 37.3491L84.1948 39.1761C82.9633 40.2349 81.3807 40.7952 79.7574 40.7473C79.1011 40.7488 78.4482 40.6543 77.8193 40.4667C77.2078 40.2877 76.6413 39.9808 76.1575 39.5663C75.6472 39.1188 75.2471 38.5596 74.9882 37.9323C74.6746 37.1424 74.5254 36.297 74.5497 35.4475L74.5556 35.4402ZM77.641 34.4566H81.6019C81.4528 33.0427 80.8019 32.3358 79.6492 32.3358C79.1766 32.3333 78.7209 32.511 78.3747 32.8328C77.953 33.2742 77.6951 33.8468 77.6439 34.4551" fill="black"/>
<path d="M84.8306 39.1775L86.0539 37.4777C86.5412 37.8947 87.1017 38.2173 87.707 38.4292C88.3152 38.6553 88.9583 38.773 89.6071 38.7771C90.0113 38.7935 90.4133 38.7086 90.7763 38.5301C90.9133 38.4642 91.0284 38.3603 91.1078 38.2306C91.1871 38.101 91.2273 37.9512 91.2236 37.7993C91.2312 37.6427 91.1939 37.4872 91.1163 37.351C91.0386 37.2149 90.9237 37.1037 90.7851 37.0305C90.3137 36.8115 89.8113 36.6666 89.2957 36.6007C88.8085 36.515 88.3267 36.4176 87.8502 36.3084C87.3985 36.2063 86.9652 36.0352 86.5655 35.8013C86.1916 35.5805 85.8748 35.2751 85.6403 34.9097C85.3855 34.4773 85.2616 33.9802 85.2837 33.4788C85.2729 32.9907 85.3728 32.5064 85.576 32.0625C85.7707 31.6538 86.0562 31.2948 86.4106 31.0131C86.7852 30.7198 87.2109 30.4983 87.6661 30.3597C88.1795 30.2036 88.7138 30.1272 89.2504 30.1332C90.134 30.1066 91.0148 30.2449 91.8477 30.541C92.5277 30.8101 93.1595 31.1877 93.7185 31.6591L92.5127 33.4247C92.0359 33.1011 91.5246 32.8315 90.9883 32.6208C90.5225 32.4377 90.0271 32.3416 89.5267 32.3373C89.1703 32.3156 88.8151 32.3968 88.5036 32.5711C88.3899 32.6431 88.2976 32.7443 88.2363 32.864C88.1749 32.9838 88.1469 33.1178 88.1549 33.2521C88.163 33.3864 88.2069 33.5161 88.2821 33.6277C88.3573 33.7393 88.461 33.8287 88.5825 33.8866C89.0218 34.0841 89.4876 34.2166 89.9651 34.2797C90.4631 34.3655 90.9605 34.4629 91.4574 34.5721C91.9214 34.6721 92.3681 34.84 92.7831 35.0705C93.162 35.2845 93.485 35.585 93.7258 35.9474C93.9827 36.3621 94.1095 36.8442 94.0898 37.3316C94.1047 37.8763 93.9767 38.4155 93.7185 38.8955C93.4774 39.3247 93.1365 39.6897 92.7246 39.9595C92.286 40.2411 91.8011 40.4429 91.2923 40.5558C90.7387 40.6836 90.1723 40.7474 89.6041 40.7458C88.6385 40.7717 87.6764 40.6176 86.7672 40.2913C86.0654 40.0281 85.4116 39.6513 84.832 39.1761" fill="black"/>
<path d="M95.3102 26.4734H98.4307V28.9391H95.3102V26.4734ZM95.3292 30.332H98.4117V40.5324H95.3307L95.3292 30.332Z" fill="black"/>
<path d="M99.0051 42.0642C98.9997 41.8298 99.0428 41.5969 99.1319 41.3801C99.2209 41.1632 99.3539 40.9672 99.5225 40.8043C99.8721 40.4611 100.287 40.1917 100.743 40.0121C100.526 39.8914 100.346 39.7138 100.223 39.4986C100.099 39.2833 100.036 39.0384 100.041 38.7902C100.044 38.3607 100.199 37.946 100.48 37.6209C100.779 37.2585 101.136 36.9483 101.537 36.7031C101.011 36.4027 100.576 35.9652 100.28 35.4373C99.9981 34.9196 99.8537 34.3385 99.8601 33.7492C99.8568 33.2588 99.9601 32.7736 100.163 32.327C100.365 31.8829 100.664 31.4901 101.04 31.1782C101.465 30.8332 101.952 30.5719 102.475 30.408C103.767 30.0274 105.142 30.032 106.431 30.4211C106.958 30.5917 107.444 30.8699 107.858 31.2382C108.231 30.9267 108.654 30.6797 109.109 30.5074C109.547 30.3269 110.011 30.2164 110.483 30.18V32.4878C110.303 32.4878 110.063 32.5005 109.764 32.5258C109.422 32.5597 109.084 32.6262 108.755 32.7246C108.891 33.0483 108.958 33.3968 108.951 33.7477C108.96 34.2502 108.86 34.7487 108.659 35.2093C108.456 35.6553 108.156 36.0507 107.782 36.3669C107.365 36.7149 106.884 36.9772 106.366 37.1386C105.739 37.3331 105.086 37.4269 104.431 37.4163C104.152 37.4172 103.873 37.4015 103.596 37.3695C103.334 37.3389 103.09 37.2979 102.865 37.2482C102.778 37.3216 102.698 37.4033 102.627 37.4923C102.569 37.5677 102.538 37.6603 102.539 37.7554C102.535 37.8415 102.562 37.9263 102.616 37.9937C102.67 38.061 102.747 38.1062 102.832 38.1208C103.108 38.1882 103.391 38.2278 103.675 38.2392L105.201 38.34C106.503 38.3013 107.796 38.5671 108.978 39.1162C109.348 39.3292 109.652 39.6414 109.855 40.0176C110.058 40.3937 110.152 40.819 110.126 41.2457C110.137 41.7405 109.982 42.2248 109.688 42.6225C109.366 43.0398 108.949 43.3744 108.472 43.5989C107.884 43.8777 107.26 44.0711 106.617 44.1733C105.842 44.3054 105.056 44.3695 104.27 44.3647C103.434 44.3753 102.598 44.324 101.769 44.2113C101.209 44.141 100.663 43.9884 100.148 43.7582C99.7924 43.6027 99.4882 43.3492 99.2711 43.0274C99.0935 42.7383 99.0013 42.4034 99.0051 42.0642ZM101.873 41.5044C101.869 41.7176 101.931 41.9268 102.05 42.1038C102.168 42.2808 102.339 42.417 102.538 42.4939C103.89 42.9051 105.332 42.9183 106.692 42.5319C107.185 42.3448 107.431 42.0861 107.431 41.7558C107.434 41.6138 107.404 41.4731 107.342 41.3451C107.257 41.2042 107.125 41.0973 106.969 41.0425C106.706 40.9396 106.429 40.8723 106.148 40.8423C105.79 40.7916 105.313 40.7512 104.717 40.721L103.109 40.645L102.438 40.5894C102.273 40.6799 102.133 40.8117 102.033 40.972C101.933 41.1323 101.877 41.3157 101.868 41.5044H101.873ZM102.728 33.8646C102.71 34.3459 102.871 34.8167 103.178 35.1874C103.342 35.3673 103.544 35.5081 103.769 35.5992C103.994 35.6903 104.238 35.7294 104.48 35.7136C104.723 35.7299 104.966 35.691 105.191 35.5999C105.416 35.5087 105.618 35.3677 105.781 35.1874C106.082 34.8138 106.238 34.344 106.22 33.8646C106.238 33.3986 106.081 32.9426 105.781 32.5857C105.424 32.2598 104.958 32.079 104.474 32.079C103.991 32.079 103.525 32.2598 103.168 32.5857C102.868 32.9428 102.71 33.3987 102.728 33.8646Z" fill="black"/>
<path d="M111.385 40.5324V30.332H114.467V31.9251C114.635 31.707 114.819 31.5023 115.018 31.3127C115.251 31.0894 115.509 30.8932 115.786 30.7281C116.095 30.543 116.426 30.3958 116.771 30.2896C117.167 30.1707 117.578 30.1131 117.991 30.1186C118.397 30.115 118.8 30.1731 119.188 30.291C119.538 30.3968 119.86 30.5768 120.134 30.8187C120.408 31.0721 120.618 31.3859 120.749 31.7351C120.906 32.1657 120.981 32.6217 120.97 33.0798V40.5324H117.887V34.0532C117.914 33.6827 117.817 33.3139 117.613 33.0038C117.496 32.876 117.352 32.7773 117.19 32.7156C117.029 32.6539 116.855 32.631 116.683 32.6486C116.28 32.6485 115.883 32.7489 115.528 32.9409C115.149 33.1442 114.794 33.3893 114.469 33.6717V40.5412L111.385 40.5324Z" fill="black"/>
<path d="M122.027 40.5324L126.558 33.0505L122.429 26.3725H125.979L128.51 30.6228L130.902 26.3725H134.117L130.082 33.0695L134.669 40.5324H131.213L128.205 35.582L125.301 40.5324H122.027Z" fill="black"/>
<path d="M135.297 40.5324V26.3725H139.389L142.547 36.7908H142.603L145.539 26.374H149.766V40.5339H146.755V30.8742H146.697C146.551 31.4676 146.41 32.0035 146.275 32.482C146.139 32.9604 145.997 33.4666 145.849 34.0006L143.774 40.5324H141.064L138.785 33.28L138.563 32.5755C138.487 32.3329 138.417 32.064 138.351 31.7716C138.285 31.4793 138.218 31.1271 138.145 30.7149H138.107V40.5324H135.297Z" fill="black"/>
</svg>
