<svg width="96" height="48" viewBox="0 0 96 48" fill="none" xmlns="http://www.w3.org/2000/svg">
<path d="M61.5508 5.45379L53.8504 32.7429H53.7529L45.4923 5.45379H27.221L20.9642 16.591L14.3396 5.45379H5.05068L15.853 22.9535L4 42.5574H12.5532L20.156 29.5839L28.0264 42.5574H42.0448V16.8338H42.1424C42.3375 17.9109 42.5232 18.8328 42.6998 19.5992C42.8763 20.3657 43.0435 21.0755 43.2014 21.7285L43.7253 23.5898L44.2995 25.5237L49.8009 42.5462H57.0108L62.5597 25.5237C62.9666 24.1525 63.3456 22.8307 63.6967 21.5582C64.0781 20.1392 64.3842 18.701 64.6137 17.2496H64.7112V42.5574H72.5816V5.44263L61.5508 5.45379ZM25.0694 23.001L34.7374 6.9328V38.7454L25.0694 23.001Z" fill="url(#paint0_linear_3_6905)"/>
<path fill-rule="evenodd" clip-rule="evenodd" d="M83.1477 14.7175C82.9547 15.0117 82.7316 15.2862 82.4814 15.5363C82.007 16.002 81.4406 16.3636 80.8185 16.5981C80.2001 16.8335 79.5438 16.9536 78.8821 16.9523C78.2171 16.9525 77.5575 16.8325 76.9352 16.5981C76.3102 16.3658 75.7413 16.0039 75.2659 15.5363C74.7606 15.0275 74.3651 14.4203 74.104 13.7524C73.7924 12.9418 73.6422 12.0782 73.6619 11.21C73.644 10.3446 73.7941 9.48395 74.104 8.67573C74.3653 8.00267 74.7619 7.39031 75.2691 6.87647C75.743 6.40643 76.3123 6.04352 76.9384 5.81225C77.5612 5.57971 78.2206 5.46084 78.8854 5.46127C79.5468 5.45983 80.2029 5.57876 80.8218 5.81225C81.4438 6.04605 82.0094 6.40872 82.4814 6.87647C82.8452 7.24346 83.1515 7.66165 83.3913 8.11681C83.4392 7.85703 83.5196 7.60346 83.6312 7.36218C83.8218 6.95969 84.1003 6.60511 84.4461 6.32458C84.8184 6.02907 85.2453 5.80974 85.7024 5.67911C86.2326 5.52537 86.7826 5.45061 87.3346 5.45723C87.8516 5.451 88.3671 5.5134 88.8676 5.6428C89.2939 5.75532 89.704 5.92237 90.0876 6.13981C90.4333 6.33777 90.7504 6.58209 91.0299 6.86597C91.2888 7.1286 91.5235 7.41403 91.7311 7.7188L90.044 9.00975C89.755 8.53438 89.3503 8.13994 88.8676 7.86323C88.3993 7.5841 87.8645 7.43611 87.3193 7.4348C86.9004 7.40767 86.484 7.51694 86.1324 7.74624C86.0021 7.83822 85.8964 7.96077 85.8245 8.10313C85.7526 8.24549 85.7168 8.40331 85.7201 8.56276C85.7123 8.76765 85.7637 8.97046 85.8681 9.1469C85.9726 9.32334 86.1257 9.46593 86.3091 9.5576C86.8419 9.82915 87.4031 10.0408 87.9825 10.1885L89.43 10.6363C89.8864 10.7746 90.3211 10.9767 90.7209 11.2366C91.0941 11.479 91.4097 11.8001 91.6456 12.1774C91.894 12.6054 92.0162 13.0949 91.9982 13.5894C91.9999 14.0288 91.9103 14.4637 91.7351 14.8666C91.5533 15.2791 91.2799 15.6447 90.9355 15.9357C90.5312 16.27 90.0652 16.5216 89.5639 16.6764C88.9193 16.8739 88.2474 16.9676 87.5734 16.9539C87.0224 16.9601 86.473 16.8914 85.9404 16.7498C85.4776 16.6243 85.0349 16.4342 84.6252 16.185C84.2453 15.9526 83.9031 15.6637 83.6102 15.3281C83.4424 15.135 83.288 14.931 83.1477 14.7175ZM83.6382 13.7696L84.7043 13.1327C84.9797 13.708 85.4114 14.1942 85.9501 14.5358C86.4732 14.8594 87.0777 15.0273 87.6928 15.0199C88.1765 15.0404 88.6569 14.9318 89.0846 14.7052C89.255 14.6118 89.3956 14.4724 89.4906 14.303C89.5856 14.1335 89.6312 13.9408 89.622 13.7467C89.6267 13.5478 89.5754 13.3516 89.474 13.1804C89.3726 13.0092 89.2251 12.8699 89.0483 12.7785C88.5204 12.4973 87.9593 12.2834 87.3782 12.1419L85.9202 11.7014C85.4623 11.5666 85.0251 11.3692 84.6212 11.1148C84.4163 10.9853 84.2286 10.8315 84.0621 10.6574C84.0127 9.98575 83.8736 9.31915 83.6449 8.67573C83.5713 8.48418 83.4865 8.29758 83.3913 8.11681C83.3531 8.32361 83.3355 8.53433 83.3391 8.74591C83.3189 9.24903 83.4417 9.74757 83.6933 10.1837C83.8003 10.3542 83.9239 10.5128 84.0621 10.6574C84.1389 11.6996 83.9998 12.7539 83.6449 13.7524L83.6382 13.7696ZM76.2954 12.7785C76.1607 12.2668 76.0955 11.7392 76.1017 11.21H76.105C76.0492 10.2451 76.3095 9.28823 76.8465 8.48451C77.0801 8.16549 77.3885 7.90874 77.7445 7.73682C78.1006 7.5649 78.4935 7.48308 78.8886 7.49855C79.2824 7.48484 79.6736 7.56749 80.0282 7.73932C80.3828 7.91114 80.6901 8.16694 80.9234 8.48451C81.4636 9.28688 81.7252 10.2445 81.6682 11.21C81.6744 11.7394 81.6082 12.2671 81.4713 12.7785C81.3587 13.2061 81.1707 13.6102 80.9162 13.9718C80.69 14.2886 80.3905 14.5457 80.0432 14.7214C79.6829 14.8974 79.2862 14.9858 78.8854 14.9796C78.4832 14.9857 78.0852 14.8972 77.7235 14.7214C77.3748 14.5466 77.074 14.2893 76.8473 13.9718C76.5927 13.6107 76.4057 13.2064 76.2954 12.7785Z" fill="black"/>
<path d="M83.3391 8.74591C83.3189 9.24903 83.4417 9.74757 83.6933 10.1837C83.8003 10.3542 83.9239 10.5128 84.0621 10.6574C84.0127 9.98575 83.8736 9.31915 83.6449 8.67573C83.5713 8.48418 83.4865 8.29758 83.3913 8.11681C83.3531 8.32361 83.3355 8.53433 83.3391 8.74591Z" fill="black"/>
<defs>
<linearGradient id="paint0_linear_3_6905" x1="13.1213" y1="5.73955" x2="35.0644" y2="60.0507" gradientUnits="userSpaceOnUse">
<stop offset="0.042" stop-color="#21DBAA"/>
<stop offset="0.358" stop-color="#00B4EF"/>
<stop offset="0.433" stop-color="#01A7EC"/>
<stop offset="0.568" stop-color="#0487E4"/>
<stop offset="0.68" stop-color="#0768DD"/>
<stop offset="0.965" stop-color="#5F1AE5"/>
</linearGradient>
</defs>
</svg>
