<svg width="328" height="48" viewBox="0 0 328 48" fill="none" xmlns="http://www.w3.org/2000/svg">
<path d="M33.9786 22.4437L24.0028 28.3491C23.0854 28.8932 21.9208 28.2369 21.9208 27.1789V15.3657C21.9208 14.3064 23.0854 13.6507 24.0028 14.1952L33.9786 20.1009C34.8722 20.6304 34.8722 21.9141 33.9786 22.4437Z" fill="#1877F2"/>
<path fill-rule="evenodd" clip-rule="evenodd" d="M43.284 38.5458H11.4659C8.20706 38.5458 5.55664 35.8948 5.55664 32.6362V9.90895C5.55664 6.65137 8.20706 4 11.4659 4H43.2833C46.5419 4 49.1923 6.65042 49.1923 9.90895V32.6362C49.1923 35.8941 46.5419 38.5458 43.284 38.5458ZM11.4659 6.72806C9.711 6.72806 8.28375 8.15594 8.28375 9.9099V32.6369C8.28375 34.3908 9.711 35.8187 11.4659 35.8187H43.2833C45.0382 35.8187 46.4652 34.3908 46.4652 32.6369V9.90895C46.4652 8.15499 45.0382 6.72711 43.2833 6.72711H11.4659V6.72806Z" fill="#1877F2"/>
<path d="M18.8638 44H35.8875C36.0233 44 36.1577 43.9733 36.2832 43.9214C36.4086 43.8695 36.5226 43.7933 36.6186 43.6974C36.7147 43.6014 36.7908 43.4874 36.8428 43.362C36.8948 43.2365 36.9215 43.1021 36.9215 42.9663V42.3066C36.9216 42.1708 36.8949 42.0363 36.843 41.9108C36.7911 41.7853 36.715 41.6713 36.619 41.5752C36.523 41.4792 36.409 41.403 36.2835 41.351C36.1581 41.299 36.0236 41.2723 35.8878 41.2723H18.8638C18.728 41.2723 18.5935 41.299 18.4681 41.351C18.3426 41.403 18.2286 41.4792 18.1326 41.5752C18.0366 41.6713 17.9604 41.7853 17.9085 41.9108C17.8565 42.0363 17.8298 42.1708 17.8298 42.3066V42.9663C17.8299 43.2405 17.9389 43.5034 18.1328 43.6973C18.3267 43.8911 18.5897 44 18.8638 44Z" fill="#1877F2"/>
<path d="M59.4406 33.3134H62.8018V23.5388H74.0512V20.6234H62.8018V12.2206H75.7658V9.30557H59.4406V33.3134Z" fill="#1877F2"/>
<path fill-rule="evenodd" clip-rule="evenodd" d="M91.7476 33.3134H94.8686V16.1642H91.7476L91.6792 18.7535C90.9817 17.8393 90.0729 17.1104 88.9527 16.5673C87.8322 16.0242 86.6144 15.7526 85.3 15.7526C83.7108 15.7526 82.2905 16.1414 81.0385 16.9187C79.7868 17.6964 78.8007 18.7624 78.0804 20.117C77.3604 21.4717 77.0001 23.0124 77.0001 24.7385C77.0001 26.4646 77.3604 28.0052 78.0804 29.3599C78.8007 30.7149 79.7868 31.7812 81.0385 32.5579C82.2905 33.3352 83.7108 33.7247 85.3 33.7247C86.6147 33.7247 87.8322 33.4531 88.9527 32.9097C90.0729 32.3672 90.9817 31.6386 91.6792 30.7238L91.7476 33.3134ZM88.9356 30.0894C88.0784 30.6148 87.0948 30.8778 85.986 30.8778C84.8769 30.8778 83.8936 30.6148 83.0365 30.0894C82.1793 29.5634 81.5075 28.8402 81.0217 27.92C80.5356 26.9998 80.2929 25.9388 80.2929 24.7388C80.2929 23.5384 80.5356 22.4781 81.0217 21.5576C81.5072 20.6374 82.179 19.9142 83.0365 19.3882C83.8939 18.8628 84.8769 18.5995 85.986 18.5995C87.0948 18.5995 88.0781 18.8625 88.9356 19.3882C89.7927 19.9142 90.4642 20.6377 90.9503 21.5576C91.4358 22.4781 91.6792 23.5384 91.6792 24.7388C91.6792 25.9388 91.4361 26.9998 90.9503 27.92C90.4645 28.8406 89.7931 29.5634 88.9356 30.0894Z" fill="#1877F2"/>
<path d="M113.457 31.3924L111.948 28.9575C111.23 29.539 110.423 29.9996 109.557 30.3214C108.682 30.6468 107.804 30.8097 106.924 30.8097C105.221 30.8097 103.843 30.2494 102.791 29.1292C101.739 28.0087 101.214 26.5457 101.214 24.7391C101.214 22.9329 101.739 21.4695 102.791 20.349C103.843 19.2288 105.221 18.6686 106.924 18.6686C107.736 18.6686 108.55 18.8058 109.368 19.0802C110.185 19.3546 110.92 19.7317 111.571 20.2121L113.08 17.7768C112.234 17.1596 111.285 16.6681 110.234 16.3021C109.182 15.9364 108.05 15.7532 106.838 15.7532C105.055 15.7532 103.488 16.1363 102.14 16.9022C100.79 17.6682 99.7385 18.7256 98.984 20.0746C98.2295 21.4236 97.8524 22.9785 97.8524 24.7388C97.8524 26.4997 98.2295 28.0544 98.984 29.403C99.7388 30.7523 100.791 31.8101 102.14 32.5757C103.489 33.3413 105.055 33.725 106.838 33.725C108.107 33.725 109.305 33.519 110.431 33.1074C111.557 32.6958 112.566 32.1248 113.457 31.3924Z" fill="#1877F2"/>
<path fill-rule="evenodd" clip-rule="evenodd" d="M131.274 31.4612L129.834 29.0263C128.953 29.621 128.045 30.0777 127.107 30.3977C126.17 30.7184 125.204 30.8781 124.209 30.8781C122.551 30.8781 121.199 30.4576 120.153 29.6179C119.107 28.7775 118.458 27.6199 118.207 26.1451H131.48V24.2245C131.48 21.5836 130.762 19.5118 129.328 18.0082C127.893 16.5052 125.935 15.7532 123.454 15.7532C121.762 15.7532 120.267 16.1335 118.97 16.8937C117.672 17.6542 116.658 18.7088 115.926 20.0575C115.195 21.4064 114.829 22.9668 114.829 24.7388C114.829 26.5457 115.209 28.1231 115.969 29.4718C116.73 30.8208 117.796 31.8668 119.167 32.6096C120.539 33.353 122.14 33.725 123.969 33.725C125.309 33.728 126.641 33.5285 127.922 33.1334C129.196 32.7386 130.314 32.1815 131.274 31.4612ZM119.828 19.8002C120.748 18.9084 121.957 18.4626 123.454 18.4626C124.906 18.4626 126.064 18.9084 126.927 19.8002C127.79 20.6919 128.222 21.8694 128.222 23.3328V23.5042H118.156C118.35 21.9265 118.907 20.6919 119.828 19.8002Z" fill="#1877F2"/>
<path fill-rule="evenodd" clip-rule="evenodd" d="M134.807 33.3134H137.928L137.997 30.7241C138.694 31.6386 139.603 32.3672 140.723 32.91C141.843 33.4534 143.061 33.725 144.375 33.725C145.964 33.725 147.385 33.3356 148.637 32.5582C149.889 31.7816 150.875 30.7149 151.595 29.3602C152.315 28.0056 152.675 26.4649 152.675 24.7388C152.675 23.0127 152.315 21.472 151.595 20.1174C150.875 18.7627 149.889 17.6967 148.637 16.919C147.385 16.1417 145.964 15.7529 144.375 15.7529C143.072 15.7529 141.866 16.0188 140.757 16.5502C139.648 17.0819 138.739 17.7997 138.031 18.7025V7.41884L134.807 7.76203V33.3134ZM146.639 30.0894C145.782 30.6148 144.798 30.8778 143.689 30.8778C142.581 30.8778 141.597 30.6148 140.74 30.0894C139.882 29.5634 139.211 28.8402 138.725 27.92C138.239 26.9998 137.996 25.9388 137.996 24.7388C137.996 23.5384 138.239 22.4781 138.725 21.5576C139.211 20.6374 139.882 19.9142 140.74 19.3882C141.597 18.8628 142.58 18.5995 143.689 18.5995C144.798 18.5995 145.782 18.8625 146.639 19.3882C147.496 19.9142 148.168 20.6377 148.654 21.5576C149.139 22.4781 149.383 23.5384 149.383 24.7388C149.383 25.9388 149.14 26.9998 148.654 27.92C148.168 28.8406 147.496 29.5634 146.639 30.0894Z" fill="#1877F2"/>
<path fill-rule="evenodd" clip-rule="evenodd" d="M159.02 32.5757C160.369 33.3413 161.935 33.725 163.719 33.725C165.502 33.725 167.068 33.3413 168.417 32.5757C169.767 31.8101 170.818 30.7523 171.572 29.403C172.327 28.0544 172.704 26.4997 172.704 24.7388C172.704 22.9785 172.327 21.4236 171.572 20.0746C170.818 18.7256 169.767 17.6682 168.417 16.9022C167.068 16.1363 165.502 15.7532 163.719 15.7532C161.935 15.7532 160.369 16.1363 159.02 16.9022C157.671 17.6682 156.619 18.7256 155.864 20.0746C155.11 21.4236 154.733 22.9785 154.733 24.7388C154.733 26.4997 155.11 28.0544 155.864 29.403C156.619 30.7523 157.671 31.8101 159.02 32.5757ZM166.668 30.0894C165.811 30.6148 164.828 30.8778 163.719 30.8778C162.61 30.8778 161.626 30.6148 160.769 30.0894C159.912 29.5634 159.24 28.8402 158.754 27.92C158.268 26.9998 158.026 25.9388 158.026 24.7388C158.026 23.5384 158.268 22.4781 158.754 21.5576C159.24 20.6374 159.912 19.9142 160.769 19.3882C161.626 18.8628 162.61 18.5995 163.719 18.5995C164.828 18.5995 165.811 18.8625 166.668 19.3882C167.525 19.9142 168.197 20.6377 168.683 21.5576C169.169 22.4781 169.412 23.5384 169.412 24.7388C169.412 25.9388 169.169 26.9998 168.683 27.92C168.197 28.8406 167.525 29.5634 166.668 30.0894Z" fill="#1877F2"/>
<path fill-rule="evenodd" clip-rule="evenodd" d="M179.049 32.5757C180.398 33.3413 181.964 33.725 183.748 33.725C185.531 33.725 187.097 33.3413 188.446 32.5757C189.795 31.8101 190.847 30.7523 191.602 29.403C192.356 28.0544 192.733 26.4997 192.733 24.7388C192.733 22.9785 192.356 21.4236 191.602 20.0746C190.847 18.7256 189.795 17.6682 188.446 16.9022C187.097 16.1363 185.531 15.7532 183.748 15.7532C181.964 15.7532 180.398 16.1363 179.049 16.9022C177.7 17.6682 176.648 18.7256 175.894 20.0746C175.139 21.4236 174.762 22.9785 174.762 24.7388C174.762 26.4997 175.139 28.0544 175.894 29.403C176.648 30.7523 177.7 31.8101 179.049 32.5757ZM186.697 30.0894C185.84 30.6148 184.856 30.8778 183.748 30.8778C182.639 30.8778 181.655 30.6148 180.798 30.0894C179.941 29.5634 179.269 28.8402 178.783 27.92C178.297 26.9998 178.054 25.9388 178.054 24.7388C178.054 23.5384 178.297 22.4781 178.783 21.5576C179.269 20.6374 179.941 19.9142 180.798 19.3882C181.655 18.8628 182.639 18.5995 183.748 18.5995C184.856 18.5995 185.84 18.8625 186.697 19.3882C187.555 19.9142 188.226 20.6377 188.712 21.5576C189.198 22.4781 189.441 23.5384 189.441 24.7388C189.441 25.9388 189.198 26.9995 188.712 27.92C188.226 28.8406 187.555 29.5634 186.697 30.0894Z" fill="#1877F2"/>
<path d="M195.751 33.3134H198.975V25.1679L207.395 33.3134H211.802L202.404 24.2587L210.601 16.1649H206.64L198.975 23.7444V7.41884L195.751 7.76203V33.3134Z" fill="#1877F2"/>
<path d="M243.731 33.3134H247.264L255.118 9.30557H251.672L245.533 28.6834L239.496 10.0601H236.204L230.167 28.6834L224.028 9.30557H220.444L228.298 33.3134H231.831L237.781 15.0329L243.731 33.3134Z" fill="#1877F2"/>
<path fill-rule="evenodd" clip-rule="evenodd" d="M269.933 33.3134H273.055V16.1642H269.933L269.865 18.7535C269.168 17.8393 268.258 17.1104 267.138 16.5673C266.017 16.0242 264.8 15.7526 263.485 15.7526C261.897 15.7526 260.476 16.1414 259.224 16.9187C257.973 17.6964 256.986 18.7624 256.266 20.117C255.546 21.4717 255.186 23.0124 255.186 24.7385C255.186 26.4646 255.546 28.0052 256.266 29.3599C256.986 30.7149 257.973 31.7812 259.224 32.5579C260.476 33.3352 261.897 33.7247 263.485 33.7247C264.8 33.7247 266.017 33.4531 267.138 32.9097C268.259 32.3672 269.168 31.6386 269.865 30.7238L269.933 33.3134ZM267.121 30.0894C266.264 30.6148 265.281 30.8778 264.172 30.8778C263.063 30.8778 262.079 30.6148 261.222 30.0894C260.365 29.5634 259.693 28.8402 259.207 27.92C258.721 26.9998 258.479 25.9388 258.479 24.7388C258.479 23.5384 258.721 22.4781 259.207 21.5576C259.693 20.6374 260.365 19.9142 261.222 19.3882C262.079 18.8628 263.063 18.5995 264.172 18.5995C265.281 18.5995 266.264 18.8625 267.121 19.3882C267.979 19.9142 268.651 20.6377 269.136 21.5576C269.622 22.4781 269.865 23.5384 269.865 24.7388C269.865 25.9388 269.622 26.9995 269.136 27.92C268.651 28.8406 267.979 29.5634 267.121 30.0894Z" fill="#1877F2"/>
<path d="M286.91 33.1759V30.4323C286.298 30.5259 285.678 30.5718 285.058 30.5695C283.79 30.5695 282.86 30.2951 282.271 29.7468C281.683 29.198 281.388 28.2033 281.388 26.7624V18.943H286.567L286.979 16.1649H281.388V10.986H278.165V16.1645H274.975V18.9427H278.165V26.951C278.165 29.1349 278.639 30.758 279.588 31.8212C280.537 32.8843 282.063 33.4161 284.167 33.4161C284.631 33.4158 285.094 33.3928 285.556 33.3473C286.009 33.3035 286.461 33.2464 286.91 33.1759Z" fill="#1877F2"/>
<path d="M303.647 31.3924L302.138 28.9575C301.42 29.539 300.612 29.9997 299.745 30.3214C298.871 30.6468 297.994 30.8097 297.113 30.8097C295.41 30.8097 294.032 30.2494 292.98 29.1292C291.928 28.0087 291.403 26.5457 291.403 24.7391C291.403 22.9329 291.928 21.4695 292.98 20.349C294.032 19.2288 295.41 18.6686 297.113 18.6686C297.925 18.6686 298.74 18.8058 299.557 19.0802C300.374 19.3546 301.109 19.7317 301.76 20.2121L303.269 17.7768C302.424 17.1596 301.475 16.6681 300.423 16.3021C299.371 15.9364 298.239 15.7532 297.028 15.7532C295.244 15.7532 293.678 16.1363 292.329 16.9022C290.98 17.6682 289.928 18.7256 289.174 20.0746C288.419 21.4236 288.042 22.9785 288.042 24.7388C288.042 26.4997 288.419 28.0544 289.174 29.403C289.928 30.7523 290.98 31.8101 292.329 32.5757C293.678 33.3413 295.244 33.725 297.028 33.725C298.296 33.725 299.494 33.519 300.62 33.1074C301.746 32.6958 302.755 32.1248 303.647 31.3924Z" fill="#1877F2"/>
<path d="M319.217 33.3134H322.441L322.441 22.9212C322.441 20.6922 321.847 18.9401 320.658 17.6653C319.469 16.3908 317.834 15.7532 315.753 15.7532C314.462 15.7532 313.273 16.0219 312.186 16.5591C311.1 17.0965 310.22 17.8108 309.546 18.7025V7.41884L306.322 7.76203V33.3131H309.546V24.2584C309.546 22.5894 310.037 21.2293 311.02 20.1772C312.004 19.1255 313.318 18.5995 314.965 18.5995C316.29 18.5995 317.331 19.02 318.086 19.86C318.84 20.7004 319.217 21.858 319.217 23.3328V33.3134Z" fill="#1877F2"/>
</svg>
