<svg width="160" height="56" viewBox="0 0 160 56" fill="none" xmlns="http://www.w3.org/2000/svg">
<path d="M47.4004 26.5181C42.6872 26.5181 39.1523 30.053 39.1523 34.7662V42.6215H41.5089V34.7662C41.5089 31.2313 43.8655 28.8747 47.4004 28.8747C50.9353 28.8747 53.2919 31.2313 53.2919 34.7662V42.6215H55.6485V34.7662C55.6485 31.2313 58.0051 28.8747 61.5399 28.8747C65.0748 28.8747 67.4314 31.2313 67.4314 34.7662V42.6215H69.788V34.7662C69.788 30.053 66.2531 26.5181 61.5399 26.5181C58.4636 26.5181 55.8872 28.0277 54.4702 30.3844C53.0531 28.0277 50.4768 26.5181 47.4004 26.5181Z" fill="#262F45"/>
<path d="M81.7673 26.5181C77.0542 26.5181 73.5193 30.053 73.5193 34.7662C73.5193 39.4793 77.0542 43.0142 81.7673 43.0142C84.1239 43.0142 86.1859 42.1305 87.6588 40.6576V42.6215H90.0154V34.7662C90.0154 30.053 86.4805 26.5181 81.7673 26.5181ZM81.7673 28.8747C85.3022 28.8747 87.6588 31.2313 87.6588 34.7662C87.6588 38.301 85.3022 40.6576 81.7673 40.6576C78.2325 40.6576 75.8759 38.301 75.8759 34.7662C75.8759 31.2313 78.2325 28.8747 81.7673 28.8747Z" fill="#262F45"/>
<path d="M101.798 26.5181C97.0852 26.5181 93.5503 30.053 93.5503 34.7662C93.5503 39.4793 97.0852 43.0142 101.798 43.0142C104.155 43.0142 106.217 42.1305 107.69 40.6576V43.0142C107.69 46.5491 105.333 48.9057 101.798 48.9057V51.2623C106.512 51.2623 110.046 47.7274 110.046 43.0142V34.7662C110.046 30.053 106.512 26.5181 101.798 26.5181ZM101.798 28.8747C105.333 28.8747 107.69 31.2313 107.69 34.7662C107.69 38.301 105.333 40.6576 101.798 40.6576C98.2635 40.6576 95.9069 38.301 95.9069 34.7662C95.9069 31.2313 98.2635 28.8747 101.798 28.8747Z" fill="#262F45"/>
<path d="M121.829 26.5181C117.116 26.5181 113.581 30.053 113.581 34.7662C113.581 39.4793 117.116 43.0142 121.829 43.0142V40.6576C118.705 40.6576 116.506 38.8123 116.036 35.9445H130.004C130.054 35.5603 130.077 35.1691 130.077 34.7662C130.077 30.053 126.543 26.5181 121.829 26.5181ZM121.829 28.8747C124.953 28.8747 127.153 30.7201 127.623 33.5879H116.036C116.506 30.7201 118.705 28.8747 121.829 28.8747Z" fill="#262F45"/>
<path d="M133.612 26.9109H135.969V42.6215H133.612V26.9109Z" fill="#262F45"/>
<path d="M147.752 26.5181C143.039 26.5181 139.504 30.053 139.504 34.7661C139.504 39.4793 143.039 43.0142 147.752 43.0142C150.108 43.0142 152.17 42.1305 153.643 40.6576V42.6214H156V34.7661C156 30.053 152.465 26.5181 147.752 26.5181ZM147.752 28.8747C151.287 28.8747 153.643 31.2312 153.643 34.7661C153.643 38.301 151.287 40.6576 147.752 40.6576C144.217 40.6576 141.86 38.301 141.86 34.7661C141.86 31.2312 144.217 28.8747 147.752 28.8747Z" fill="#262F45"/>
<path d="M134.791 48.7092C133.815 48.7092 133.023 47.9179 133.023 46.9417C133.023 45.9656 133.815 45.1743 134.791 45.1743C135.767 45.1743 136.558 45.9656 136.558 46.9417C136.558 47.9179 135.767 48.7092 134.791 48.7092Z" fill="#2397D4"/>
<path d="M7.7167 23.1334C5.66442 25.7935 4 28.7855 4 32.4101C4 40.2666 9.96186 46.746 17.354 46.746C24.7459 46.746 30.708 40.2667 30.708 32.4101C30.708 28.7848 29.0409 25.8878 26.8726 23.1334C26.0596 22.2802 24.8857 22.407 24.0312 22.953C21.5306 24.2469 20.1809 24.7638 17.354 24.7512C14.62 24.7389 13.1835 24.2924 10.6828 22.9293C9.82829 22.407 8.52977 22.2802 7.7167 23.1334ZM9.49871 25.3403C12.0906 26.7734 14.4022 27.5005 17.354 27.5005C20.3083 27.5005 22.6161 26.7734 25.2093 25.3403C26.6243 27.3355 27.9587 29.8096 27.9587 32.4101C27.9587 38.8517 23.2111 43.9967 17.354 43.9967C11.4967 43.9967 6.55297 38.8517 6.55297 32.4101C6.55297 29.813 8.08059 27.3371 9.49871 25.3403Z" fill="#262F45"/>
<path d="M14.3458 20.9905H14.3439C13.0334 20.9905 11.9662 19.9247 11.9648 18.6152C11.9629 17.3013 13.0302 16.234 14.3419 16.2326C15.6543 16.2326 16.7213 17.2983 16.7229 18.6079C16.7229 19.9218 15.6575 20.9891 14.3458 20.9905Z" fill="#2397D4"/>
<path d="M20.771 19.246C19.5473 19.246 18.5514 18.2511 18.5506 17.0286C18.5486 15.8027 19.5445 14.8062 20.769 14.8052C21.9942 14.8052 22.9902 15.7999 22.9914 17.0225C22.9914 18.2483 21.9973 19.2448 20.773 19.246H20.771Z" fill="#2397D4"/>
<path d="M18.9433 12.9057C18.9433 14.0007 18.0557 14.8883 16.9608 14.8883C15.8659 14.8883 14.9783 14.0007 14.9783 12.9057C14.9783 11.8108 15.8659 10.9232 16.9608 10.9232C18.0557 10.9232 18.9433 11.8108 18.9433 12.9057Z" fill="#2397D4"/>
<path d="M21.9567 9.57512C21.9567 10.5824 21.1402 11.399 20.1328 11.399C19.1255 11.399 18.3089 10.5824 18.3089 9.57512C18.3089 8.5678 19.1255 7.75121 20.1328 7.75121C21.1402 7.75121 21.9567 8.5678 21.9567 9.57512Z" fill="#2397D4"/>
<path d="M17.8331 6.3238C17.8331 7.19973 17.123 7.90981 16.2471 7.90981C15.3712 7.90981 14.6611 7.19973 14.6611 6.3238C14.6611 5.44787 15.3712 4.73779 16.2471 4.73779C17.123 4.73779 17.8331 5.44787 17.8331 6.3238Z" fill="#2397D4"/>
</svg>
