<svg width="200" height="48" viewBox="0 0 200 48" fill="none" xmlns="http://www.w3.org/2000/svg">
<path d="M52.4735 24.0024V34L36.4697 44V34L52.4735 24.0024ZM36.4697 24.0024V34L20.4659 44V34L36.4697 24.0024ZM20.4659 24.0024V34L4.4621 44V34L20.4659 24.0024ZM103.719 22.3973C105.53 25.6027 105.004 29.6195 102.428 32.2505C101.009 33.6264 99.1161 34.4044 97.1397 34.4238C95.7119 34.4577 94.3219 33.9637 93.2358 33.0365V41.1283H89.1236V18.9669H93.1221V20.1316C94.2501 19.1878 95.6761 18.6745 97.1468 18.6828C99.8435 18.6587 102.348 20.0745 103.719 22.3973ZM118.212 20.2476V18.9574H122.114L122.104 34.0758H118.243V32.7855C117.137 33.8721 115.638 34.4633 114.088 34.4238C111.379 34.4452 108.872 32.9948 107.54 30.6359C106.808 29.398 106.437 27.9802 106.47 26.5426C106.47 23.491 108.044 20.9413 110.374 19.6487C111.515 19.0009 112.806 18.6645 114.119 18.6733C115.638 18.6352 117.11 19.2014 118.212 20.2476ZM163.946 18.6709C166.936 18.6709 169.171 19.8049 170.651 22.1037L167.502 24.0545C166.621 22.795 165.456 22.1605 163.977 22.1605C161.586 22.1605 159.981 24.0189 159.981 26.5994C159.981 29.1799 161.522 30.8797 163.946 30.8797C165.414 30.909 166.803 30.2152 167.66 29.0237L170.681 31.0218C169.235 33.1004 166.78 34.3906 163.977 34.3906C161.018 34.3906 158.406 33.0057 156.957 30.6027C155.875 28.771 155.576 26.5808 156.127 24.5259C156.678 22.4709 158.033 20.7242 159.886 19.6795C161.133 19.0079 162.529 18.661 163.946 18.6709ZM187.674 18.6454L187.857 18.6473C192.421 18.6473 195.537 21.8598 195.537 26.8646C195.54 27.0224 195.535 27.1802 195.522 27.3374L195.506 27.4943H183.892C184.206 29.696 185.726 30.8608 187.857 30.8608C189.276 30.8931 190.632 30.2906 191.559 29.2223L191.645 29.1207L194.531 31.0194L194.441 31.1442C192.926 33.206 190.573 34.3551 187.857 34.3551C185.497 34.3551 183.387 33.4792 182.033 32.0587C180.622 30.574 179.843 28.5983 179.862 26.5497C179.862 23.6212 181.214 21.1378 183.671 19.7173C184.837 19.0468 186.15 18.68 187.491 18.6477L187.674 18.6454ZM70.3025 18.6875C72.3811 18.6875 73.8915 19.3812 74.7722 20.7661C76.4405 19.3804 78.2665 18.6875 80.2505 18.6875C83.8087 18.6828 85.7287 20.7685 85.7287 24.6013V34.071H81.6354V24.9162C81.6354 23.0601 80.7547 22.1463 79.0549 22.1463C77.7923 22.1463 76.6875 22.6813 75.7405 23.7514V34.0758H71.6567V24.9162C71.6567 23.0601 70.8068 22.1463 69.107 22.1463C67.8167 22.1463 66.7159 22.7121 65.7713 23.8461V34.0758H61.6472V18.9669H65.4872V20.3873C66.8388 19.2655 68.5462 18.6628 70.3025 18.6875ZM134.382 18.6828V22.5866C134.012 22.4891 133.63 22.4468 133.248 22.4612C131.886 22.4988 130.609 23.1313 129.753 24.1918V34.0758H125.632V18.9669H129.472V20.3518C130.698 19.1231 132.052 18.6828 134.382 18.6828ZM143.409 13.9313V18.9669H146.808V22.3665H143.409V34.0758H139.313V22.3665H136.138V18.9669H139.313V13.9313H143.409ZM153.347 18.9669V34.0758H149.223V18.9669H153.347ZM177.478 11.4432V34.0758H173.387V11.4432H177.478ZM114.675 22.1463C112.471 22.1463 110.584 23.8461 110.584 26.5521C110.584 29.258 112.44 30.9294 114.644 30.9294C115.936 30.9743 117.182 30.4436 118.044 29.4806V23.6259C117.186 22.6715 115.959 22.1324 114.675 22.1463ZM96.6401 22.1463C95.3162 22.1273 94.0507 22.6908 93.179 23.6875V29.4498C94.0174 30.3997 95.2264 30.9394 96.4933 30.9294C98.8087 30.9294 100.665 29.2604 100.665 26.4905C100.665 23.8153 98.7708 22.1463 96.6401 22.1463ZM187.959 22.0161C186.017 22.0161 184.679 22.9504 184.094 24.6748L184.057 24.7884H191.579C191.085 22.9718 189.929 22.0578 188.08 22.0197L187.959 22.0185V22.0161ZM36.4697 4V14L20.4659 24V14L36.4697 4ZM52.4735 4V14L36.4697 24V14L52.4735 4ZM20.4659 4V14L4.4621 24V14L20.4659 4ZM153.442 12.7973V16.9522H149.128V12.7973H153.442Z" fill="black"/>
</svg>
