<svg width="160" height="56" viewBox="0 0 160 56" fill="none" xmlns="http://www.w3.org/2000/svg">
<path d="M156 31.7384C156 33.53 155.433 35.0394 154.298 36.2663C153.163 37.4933 151.721 38.1067 149.972 38.1067L136.158 38.0776V34.3969H147.544C148.307 34.3969 148.949 34.2117 149.47 33.8418C150.065 33.4134 150.363 32.8291 150.363 32.089C150.363 30.3559 149.191 29.4893 146.847 29.4893H141.097C139.442 29.4893 137.99 28.9537 136.744 27.8826C135.497 26.8115 134.874 25.4482 134.874 23.7928C134.874 21.9623 135.479 20.4824 136.688 19.3528C137.916 18.2039 139.525 17.6291 141.516 17.6291H154.717V21.1346H143.079C142.558 21.1346 142.028 21.3683 141.488 21.8358C140.967 22.2835 140.707 22.8191 140.707 23.4422C140.707 24.1434 140.958 24.7375 141.46 25.2244C141.981 25.6917 142.604 25.9253 143.33 25.9253H149.665C151.637 25.9253 153.182 26.4609 154.298 27.532C155.433 28.5835 156 29.9859 156 31.7384ZM128.694 27.7074C128.694 25.7014 128.238 24.1046 127.326 22.9165C126.302 21.5924 124.786 20.9301 122.777 20.9301C120.805 20.9301 119.316 21.6411 118.311 23.0625C117.474 24.2506 117.056 25.7988 117.056 27.7074C117.056 29.9079 117.391 31.5342 118.06 32.5857C118.991 34.0463 120.712 34.7766 123.223 34.7766C125.344 34.7766 126.833 34.0656 127.689 32.6442C128.358 31.5342 128.694 29.8886 128.694 27.7074ZM133.661 27.8241C133.661 31.7969 132.61 34.6404 130.507 36.3539C128.796 37.7368 126.302 38.4282 123.028 38.4282C119.4 38.4282 116.721 37.6296 114.99 36.0327C113.093 34.2799 112.144 31.4659 112.144 27.5905C112.144 24.4163 112.99 21.943 114.683 20.1707C116.525 18.2428 119.279 17.2788 122.944 17.2788C126.982 17.2788 129.828 18.2039 131.484 20.0537C132.936 21.6898 133.661 24.2797 133.661 27.8241ZM110.887 26.1007H107.119V32.9654C107.119 33.5885 107.324 34.1048 107.733 34.5136C108.198 34.9227 108.812 35.1269 109.575 35.1269H110.719V38.0776H107.119C106.04 38.0776 105.119 37.6685 104.356 36.8506C103.909 36.3637 103.621 35.8282 103.491 35.2439C103.361 34.6597 103.296 33.9682 103.296 33.1699V26.1007H100.84V22.9459H103.296V17.6291H107.119V22.9459H110.887V26.1007ZM99.7449 38.0776H95.8657V28.1162C95.8657 27.863 95.8098 27.6392 95.6982 27.4444C95.5866 27.2301 95.4284 27.0258 95.2238 26.8311C94.8518 26.5 94.4237 26.3344 93.9401 26.3344H90.1446V38.0776H86.2653V22.9459H93.689C95.0098 22.9459 95.9681 23.0236 96.5633 23.1795C97.4937 23.4131 98.238 23.9294 98.7961 24.7277C99.4288 25.6626 99.7449 26.685 99.7449 27.795V38.0776ZM83.8303 38.1652H77.0206C75.3647 38.1652 73.9227 37.425 72.6949 35.9451C71.4854 34.4456 70.8807 32.7219 70.8807 30.7744C70.8807 28.6518 71.5412 26.8213 72.8623 25.2829C74.2018 23.7249 75.6903 22.9459 77.3276 22.9459H83.8024V26.0714H79.0578C78.4625 26.0714 77.9507 26.1298 77.5229 26.2468C77.1135 26.3442 76.7324 26.5487 76.3788 26.8602C75.7274 27.4444 75.4021 28.2332 75.4021 29.2262H83.7745V32.3811H75.43C75.43 32.8487 75.4763 33.2477 75.5695 33.5787C75.6811 33.8904 75.8949 34.2117 76.2113 34.543C76.5275 34.8544 76.8998 35.0687 77.3276 35.1854C77.7741 35.2828 78.3138 35.3315 78.9462 35.3315H83.8303V38.1652ZM69.4678 38.0776H60.8442C59.9696 38.0776 59.1045 37.9508 58.2486 37.6979C56.593 37.1721 55.2811 35.9644 54.3135 34.0754C53.4393 32.3618 53.002 30.3657 53.002 28.0871C53.002 25.8864 53.3926 23.9389 54.174 22.2446C55.0299 20.3752 56.2486 19.0995 57.83 18.4179C59.0582 17.8922 60.314 17.6294 61.5977 17.6294H69.412V21.5437H61.2907C59.9696 21.5437 59.0116 22.2933 58.4161 23.7928C57.9512 24.9613 57.7184 26.4902 57.7184 28.3793C57.7184 29.9762 58.0162 31.3296 58.6114 32.4396C59.2999 33.7444 60.2674 34.3969 61.514 34.3969L69.4678 34.3675V38.0776Z" fill="black"/>
<path d="M21.9816 26.4422L23.5256 27.9776L21.9816 29.5128H11.1127V34.6279L4.48438 27.9776L11.1127 21.439V26.4422H21.9816Z" fill="#932279"/>
<path d="M26.9045 24.6374L25.3693 26.1814L23.8342 24.6374V13.7685H18.7188L25.3693 7.14014L31.9077 13.7685H26.9045V24.6374Z" fill="#EFA724"/>
<path d="M28.7084 29.5602L27.1641 28.0251L28.7084 26.49H39.577V21.3745L46.2056 28.0251L39.577 34.5635V29.5602H28.7084Z" fill="#262577"/>
<path d="M23.7861 31.3632L25.3213 29.8188L26.8567 31.3632V42.2321H31.9719L25.3213 48.8604L18.7832 42.2321H23.7861V31.3632Z" fill="#9CCD2A"/>
<path d="M10.7246 13.3794H23.9308V26.5859H10.7246V13.3794Z" fill="#9CCD2A"/>
<path d="M10.252 12.9077H24.4016V27.0574H10.252V12.9077ZM11.1951 26.1142H23.4581V13.8512H11.1951V26.1142Z" fill="white"/>
<path d="M26.7598 13.3794H39.966V26.5859H26.7598V13.3794Z" fill="#932279"/>
<path d="M26.2891 12.9077H40.4387V27.0574H26.2891V12.9077ZM27.2322 26.1142H39.4952V13.8512H27.2322V26.1142Z" fill="white"/>
<path d="M26.7598 29.4155H39.966V42.622H26.7598V29.4155Z" fill="#EFA724"/>
<path d="M26.2891 28.9438H40.4387V43.0938H26.2891V28.9438ZM27.2322 42.15H39.4952V29.887H27.2322V42.15Z" fill="white"/>
<path d="M10.7246 29.4155H23.9308V42.622H10.7246V29.4155Z" fill="#262577"/>
<path d="M10.252 28.9438H24.4016V43.0938H10.252V28.9438ZM11.1951 42.15H23.4581V29.887H11.1951V42.15Z" fill="white"/>
<path d="M14.0056 38.0065L4 28.0009L14.0053 17.9956L24.0109 28.0009L14.0056 38.0065ZM5.33416 28.0009L14.0056 36.6723L22.6767 28.0009L14.0053 19.3298L5.33416 28.0009Z" fill="white"/>
<path d="M25.3451 26.6666L15.3398 16.6613L25.3451 6.65576L35.3504 16.6613L25.3451 26.6666ZM16.674 16.6613L25.3451 25.3325L34.0166 16.6613L25.3451 7.98992L16.674 16.6613Z" fill="white"/>
<path d="M36.685 38.0065L26.6797 28.0009L36.685 17.9956L46.6903 28.0009L36.685 38.0065ZM28.0135 28.0009L36.685 36.6723L45.3561 28.0009L36.685 19.3298L28.0135 28.0009Z" fill="white"/>
<path d="M25.3451 49.345L15.3398 39.3398L25.3451 29.3345L35.3504 39.3398L25.3451 49.345ZM16.674 39.3398L25.3451 48.0109L34.0166 39.3398L25.3451 30.6686L16.674 39.3398Z" fill="white"/>
</svg>
