<svg width="168" height="48" viewBox="0 0 168 48" fill="none" xmlns="http://www.w3.org/2000/svg">
<path d="M42.5349 9.98095C42.5349 11.9959 41.6299 13.7862 40.2508 14.8723L26.8627 26.8289C26.6141 27.042 26.2908 26.6983 26.4702 26.4115L31.3811 16.5791C31.5187 16.3038 31.3402 15.9655 31.0578 15.9655H12.0102C9.06018 15.9655 6.64648 13.2729 6.64648 9.98273C6.64648 6.69165 9.06018 4 12.0102 4H37.1711C40.1212 3.99823 42.5349 6.69076 42.5349 9.98095ZM12.0102 44H37.1711C40.1212 44 42.5349 41.3075 42.5349 38.0173C42.5349 34.7262 40.1212 32.0345 37.1711 32.0345H18.1235C17.8411 32.0345 17.6626 31.6962 17.8003 31.4209L22.7111 21.5885C22.8905 21.3017 22.5673 20.958 22.3186 21.1711L8.93052 33.1259C7.5514 34.2111 6.64648 36.0023 6.64648 38.0173C6.64648 41.3075 9.06018 44 12.0102 44ZM58.4104 32.975L69.4913 17.0258V16.8872H59.4458V12.5376H76.3266V15.5756L65.4871 31.3179V31.4564H76.4997V35.8061H58.4104V32.975ZM88.5131 12.5376V25.9328C88.5131 29.937 90.0317 31.9742 92.7251 31.9742C95.4869 31.9742 97.0055 30.0409 97.0055 25.9328V12.5376H102.253V25.5865C102.253 32.7672 98.6279 36.1844 92.5519 36.1844C86.6829 36.1844 83.2311 32.9395 83.2311 25.5172V12.5376H88.5131ZM110.262 12.5376H115.544V31.3863H124.796V35.8052H110.262V12.5376ZM136.637 12.5376V35.8052H131.355V12.5376H136.637ZM144.645 12.8484C146.268 12.5723 148.546 12.3653 151.757 12.3653C155.002 12.3653 157.315 12.987 158.868 14.2293C160.353 15.4033 161.354 17.3366 161.354 19.6144C161.354 21.8931 160.594 23.8264 159.214 25.138C157.419 26.8297 154.76 27.589 151.654 27.589C150.964 27.589 150.342 27.5544 149.859 27.4851V35.8052H144.646V12.8484H144.645ZM149.858 23.4126C150.307 23.5165 150.859 23.5502 151.619 23.5502C154.415 23.5502 156.141 22.1347 156.141 19.7529C156.141 17.6128 154.656 16.3349 152.033 16.3349C150.963 16.3349 150.238 16.4388 149.858 16.5418V23.4126Z" fill="black"/>
</svg>
