<svg width="160" height="120" viewBox="0 0 160 120" fill="none" xmlns="http://www.w3.org/2000/svg">
<path d="M4 76.663V99.3847H33.5385V104.687H38.8407V99.3847H44.1423V104.687V109.988H49.4445V104.687V99.3847H54.7461V104.687V109.988H60.0477V115.291H65.3499V109.988V104.687H70.6515V109.988H75.9531V104.687V99.3847V76.663H4Z" fill="#5F2688"/>
<path d="M4 71.3608H75.9531V48.6385H4V71.3608ZM89.6733 59.6972C90.4909 59.6972 91.1238 59.4449 91.5727 58.9414C92.0216 58.4367 92.246 57.7159 92.246 56.7783C92.246 54.7857 91.448 53.7888 89.8526 53.7888H86.7117V59.6972H89.6733ZM81.0865 48.7247H91.109C93.383 48.7247 95.0984 49.4515 96.255 50.905C97.4116 52.3591 97.9905 54.3161 97.9905 56.7783C97.9905 58.2782 97.6711 59.6093 97.0328 60.7695C96.3946 61.9303 95.5265 62.8269 94.4304 63.4598C94.6495 63.6706 94.8389 63.917 94.9986 64.1984C95.1578 64.4799 95.3377 64.8902 95.5372 65.4293L97.7507 71.3727H91.8874L89.8526 65.9215C89.6929 65.4993 89.4987 65.2013 89.269 65.0249C89.0404 64.8492 88.7162 64.7607 88.297 64.7607H86.7117V71.3727H81.0865V48.7247ZM104.961 62.8973L99.6958 54.7029H105.798L108.012 58.2197L110.256 54.7029H116.329L111.094 62.8973L116.569 71.3725H110.406L108.012 67.6449L105.619 71.3725H99.4856L104.961 62.8973ZM126.561 66.3085C127.559 66.3085 128.366 66.1386 128.985 65.799C129.603 65.4582 130.077 64.849 130.406 63.9703C130.735 63.0909 130.9 61.8304 130.9 60.1893C130.9 58.525 130.75 57.2294 130.451 56.3032C130.152 55.3775 129.688 54.7262 129.06 54.3515C128.431 53.9763 127.598 53.7886 126.561 53.7886H124.288V66.3085H126.561ZM118.663 48.7245H127.28C130.351 48.7245 132.68 49.633 134.265 51.4504C135.851 53.2667 136.643 56.1797 136.643 60.1893C136.643 64.0112 135.851 66.8304 134.265 68.6466C132.68 70.4641 130.351 71.3726 127.28 71.3726H118.663V48.7245ZM148.042 66.7659C148.8 66.7659 149.359 66.5783 149.717 66.2031C150.077 65.8278 150.256 65.2067 150.256 64.3393C150.256 63.5888 150.072 63.0318 149.702 62.6691C149.334 62.3051 148.741 62.124 147.922 62.124H144.153V66.7659H148.042ZM147.803 57.7629C149.179 57.7629 149.867 57.0355 149.867 55.582C149.867 54.8315 149.692 54.2752 149.343 53.9118C148.995 53.5485 148.431 53.3668 147.653 53.3668H144.153V57.7629H147.803ZM138.738 48.7242H149.328C151.263 48.7242 152.744 49.2634 153.771 50.3422C154.799 51.4205 155.312 52.9684 155.312 54.9841C155.312 56.1099 155.132 57.0825 154.774 57.903C154.415 58.7242 153.926 59.369 153.308 59.8375C154.205 60.2596 154.878 60.8344 155.327 61.5605C155.775 62.2879 156 63.3192 156 64.6557C156 66.7891 155.442 68.4421 154.325 69.6142C153.208 70.7862 151.622 71.3728 149.568 71.3728H138.738V48.7242Z" fill="#8D1F89"/>
<path d="M14.6038 4.70932V10.0115V15.3131H9.30219V10.0115H4V15.3131V20.6147V43.337H75.9531V20.6147H46.4146V15.3131H41.113V20.6147H35.8108V15.3131V10.0115H30.5092V15.3131V20.6147H25.2076V15.3131V10.0115H19.906V4.70932H14.6038Z" fill="#E6008D"/>
</svg>
