<svg width="320" height="48" viewBox="0 0 320 48" fill="none" xmlns="http://www.w3.org/2000/svg">
<path d="M250.553 4.00049H245.121V9.433H250.553V4.00049Z" fill="white"/>
<path d="M267.989 4.00049H257.835V9.433H267.989V4.00049Z" fill="#1955A6"/>
<path d="M257.834 4.00049H250.548V9.433H257.834V4.00049Z" fill="#4CC0AD"/>
<path d="M223.894 13.5487L230.046 29.5076L236.203 13.5487H242.153L231.58 39.3708C228.55 46.6988 219.699 43.1335 219.699 43.1335L221.11 39.0556C225.244 40.1092 226.293 39.399 227.172 36.1771L217.944 13.5487H223.894ZM15.7791 6.20645C22.2639 3.93416 29.4767 6.00706 33.7656 11.3757L28.3754 13.9156C26.4308 12.04 23.8338 10.9927 21.1321 10.9947C16.4225 10.9895 12.2886 14.1281 11.0281 18.6658C9.76758 23.2035 11.6905 28.0246 15.7279 30.4492C19.7654 32.8738 24.9246 32.3057 28.3378 29.0607V25.011H16.9742V20.0442H33.7656V31.5677L33.6034 31.7675C29.2965 36.9875 22.1829 38.9808 15.7791 36.7369C9.2942 34.4646 4.95276 28.3431 4.95276 21.4717C4.95276 14.6002 9.2942 8.47875 15.7791 6.20645ZM305.871 13.036C311.487 13.036 313.472 16.1732 314.337 17.7959L310.104 19.7902C309.2 18.2364 307.517 17.3029 305.72 17.3585C303.157 17.3585 302.48 18.8354 302.428 19.4374C302.357 20.2935 302.348 21.5399 306.421 22.8145C306.616 22.879 306.811 22.9435 307.005 23.0085L307.392 23.1389C311.386 24.4941 315.047 26.0893 315.047 30.3025C315.047 33.8818 312.578 37.6446 306.289 37.6446C299.211 37.6446 297.489 33.7219 297.174 30.5376H301.925C302.47 33.1245 305.302 33.3268 306.445 33.3268C307.588 33.3268 310.104 32.9364 310.104 30.8104C310.104 28.6845 305.749 27.6638 303.952 26.9771C302.155 26.2904 297.489 24.79 297.489 19.8466C297.489 17.4338 299.079 13.036 305.871 13.036ZM49.066 13.036C56.8691 13.036 59.3337 18.0029 59.3196 22.6828V37.1037H53.8871V34.6297C51.5635 36.9344 49.4282 37.6446 45.7971 37.6446C41.0184 37.6446 37.4108 34.418 37.4108 30.2601C37.4108 21.4646 49.8985 22.4383 53.8118 23.4589V23.4166C53.8118 20.7544 52.984 17.8947 49.0378 17.8947C44.1321 17.8947 43.9957 20.8391 43.9957 20.8391H38.8218C38.8218 17.6407 41.2629 13.036 49.066 13.036ZM194.333 13.036C202.136 13.036 204.596 18.0029 204.577 22.6828V37.1037H199.149V34.6297C196.826 36.9344 194.69 37.6446 191.064 37.6446C186.285 37.6446 182.678 34.418 182.678 30.2601C182.678 21.4646 195.161 22.4383 199.088 23.4589V23.4166C199.088 20.7544 198.265 17.8947 194.319 17.8947C189.413 17.8947 189.272 20.8391 189.272 20.8391H184.065C184.065 17.6407 186.511 13.036 194.333 13.036ZM280.996 13.5327C286.214 12.0072 291.815 14.0887 294.771 18.652L290.349 21.474C289.047 19.4787 286.825 18.2757 284.442 18.2757V18.2616C281.092 18.2715 278.211 20.6358 277.547 23.9194C276.884 27.203 278.621 30.5004 281.704 31.8103C284.787 33.1201 288.367 32.0812 290.269 29.3241L294.691 32.1462C291.681 36.6741 286.056 38.6891 280.856 37.1019C275.657 35.5147 272.116 30.7019 272.148 25.2653C272.18 19.8286 275.778 15.0581 280.996 13.5327ZM112.525 13.0689C120.394 13.0689 125.234 20.2323 124.115 27.2875H105.907C106.707 30.4012 109.365 32.6918 112.525 32.6918C114.643 32.6789 116.629 31.6656 117.882 29.9591L122.68 32.3108C122.271 32.8564 118.983 37.6117 112.525 37.6117C105.733 37.6117 100.767 32.118 100.767 25.3403C100.767 18.5626 105.748 13.0689 112.525 13.0689ZM258.065 13.5487L257.279 18.365H250.549V30.3213C250.549 32.7059 252.12 33.0258 253.77 32.7577C254.04 32.7184 254.504 32.6264 254.977 32.5273L255.234 32.4728C255.917 32.327 256.546 32.1838 256.546 32.1838L255.779 36.8873C254.536 37.2999 253.24 37.5327 251.931 37.5787C247.816 37.6446 245.121 35.1 245.121 30.8387V13.5487H258.065ZM169.028 13.036C175.693 12.528 178.985 17.4949 178.985 22.9933V37.1037H173.567V23.981C173.567 20.0254 171.446 18.525 169.258 18.2286C167.288 17.9605 162.617 18.5908 162.617 24.583V37.1037H157.194V13.5487H162.617V17.2691C163.858 14.8265 166.294 13.2181 169.028 13.036ZM74.7799 13.036C77.1063 12.7702 79.4054 13.7232 80.8615 15.5571C82.6098 13.9356 84.9066 13.035 87.2911 13.036C92.5303 13.0386 96.7775 17.2838 96.7827 22.5229V37.1037H91.3549V22.5229C91.4054 21.0372 90.6417 19.6423 89.3628 18.8845C88.0839 18.1266 86.4936 18.1266 85.2147 18.8845C83.9358 19.6423 83.1721 21.0372 83.2226 22.5229V37.1037H77.7807V23.9998C77.7807 21.1918 77.1081 19.2211 75.0292 18.5203C73.3453 17.9558 69.6484 18.6755 69.6484 24.3196V37.1037H64.2206V13.5487H69.6672V16.6624C70.7349 14.7151 72.4281 13.2524 74.7799 13.036ZM142.674 5.81618L154.551 37.1037H148.7L146.061 30.1567H133.145L130.502 37.1037H124.655L136.546 5.81618H142.674ZM214.694 5.81618V37.1037H209.271V5.81618H214.694ZM267.984 13.5487V37.099H262.561V13.5487H267.984ZM53.84 27.8284C49.0519 25.6695 43.0032 27.0712 42.8903 30.2037C42.8151 32.2215 44.8094 34.1029 48.3464 33.4256C50.8251 32.9599 53.4261 30.5659 53.84 28.2988V27.8284ZM199.107 27.8284C194.314 25.6695 188.265 27.0712 188.152 30.2037C188.082 32.2356 190.076 34.0935 193.608 33.4256C196.087 32.9599 198.693 30.5659 199.107 28.2988V27.8284ZM139.613 13.1442L134.975 25.3403H144.25L139.613 13.1442ZM112.535 17.939C109.666 17.939 107.115 19.7621 106.185 22.4759H118.884C117.955 19.7621 115.403 17.939 112.535 17.939Z" fill="white"/>
</svg>
