<svg width="208" height="48" viewBox="0 0 208 48" fill="none" xmlns="http://www.w3.org/2000/svg">
<path fill-rule="evenodd" clip-rule="evenodd" d="M67.0354 11.3603V21.8603H64.5904L59.9554 16.2653V21.8603H57.0454V11.3603H59.4904L64.1254 16.9553V11.3603H67.0354ZM72.4653 13.5953C73.8153 13.5953 74.8453 13.9028 75.5553 14.5178C76.2653 15.1328 76.6203 16.0753 76.6203 17.3453V21.8603H73.9653V20.8103C73.5553 21.6003 72.7553 21.9953 71.5653 21.9953C70.9353 21.9953 70.3904 21.8853 69.9304 21.6653C69.4703 21.4453 69.1229 21.1478 68.8879 20.7728C68.6529 20.3978 68.5354 19.9703 68.5354 19.4903C68.5354 18.7203 68.8304 18.1228 69.4204 17.6978C70.0104 17.2728 70.9203 17.0603 72.1503 17.0603H73.7703C73.7203 16.2003 73.1453 15.7703 72.0453 15.7703C71.6553 15.7703 71.2603 15.8328 70.8603 15.9578C70.4603 16.0828 70.1203 16.2553 69.8403 16.4753L68.8804 14.5403C69.3304 14.2403 69.8778 14.0078 70.5228 13.8428C71.1678 13.6778 71.8153 13.5953 72.4653 13.5953ZM72.3603 20.1953C72.6903 20.1953 72.9803 20.1153 73.2303 19.9553C73.4803 19.7953 73.6603 19.5603 73.7703 19.2503V18.5453H72.5403C71.7103 18.5453 71.2953 18.8203 71.2953 19.3703C71.2953 19.6203 71.3903 19.8203 71.5803 19.9703C71.7703 20.1203 72.0303 20.1953 72.3603 20.1953ZM84.0303 21.5303C83.7903 21.6803 83.4978 21.7953 83.1528 21.8753C82.8078 21.9553 82.4403 21.9953 82.0503 21.9953C80.9903 21.9953 80.1753 21.7353 79.6053 21.2153C79.0353 20.6953 78.7503 19.9203 78.7503 18.8903V16.1603H77.5653V14.0303H78.7503V11.9153H81.6003V14.0303H83.4603V16.1603H81.6003V18.8603C81.6003 19.1503 81.6778 19.3778 81.8328 19.5428C81.9878 19.7078 82.1953 19.7903 82.4553 19.7903C82.7853 19.7903 83.0753 19.7053 83.3253 19.5353L84.0303 21.5303ZM85.1253 13.7303H87.9753V21.8603H85.1253V13.7303ZM86.5503 12.8303C86.0303 12.8303 85.6103 12.6853 85.2903 12.3953C84.9703 12.1053 84.8103 11.7453 84.8103 11.3153C84.8103 10.8853 84.9703 10.5253 85.2903 10.2353C85.6103 9.94529 86.0303 9.80029 86.5503 9.80029C87.0703 9.80029 87.4903 9.93779 87.8103 10.2128C88.1303 10.4878 88.2903 10.8403 88.2903 11.2703C88.2903 11.7203 88.1303 12.0928 87.8103 12.3878C87.4903 12.6828 87.0703 12.8303 86.5503 12.8303ZM93.9003 21.9953C93.0303 21.9953 92.2453 21.8153 91.5453 21.4553C90.8453 21.0953 90.2978 20.5953 89.9028 19.9553C89.5078 19.3153 89.3103 18.5903 89.3103 17.7803C89.3103 16.9803 89.5078 16.2603 89.9028 15.6203C90.2978 14.9803 90.8428 14.4828 91.5378 14.1278C92.2328 13.7728 93.0203 13.5953 93.9003 13.5953C94.7803 13.5953 95.5703 13.7728 96.2703 14.1278C96.9703 14.4828 97.5153 14.9778 97.9053 15.6128C98.2953 16.2478 98.4903 16.9703 98.4903 17.7803C98.4903 18.5903 98.2953 19.3153 97.9053 19.9553C97.5153 20.5953 96.9703 21.0953 96.2703 21.4553C95.5703 21.8153 94.7803 21.9953 93.9003 21.9953ZM93.9003 19.7303C94.4003 19.7303 94.8103 19.5578 95.1303 19.2128C95.4503 18.8678 95.6103 18.3903 95.6103 17.7803C95.6103 17.1803 95.4503 16.7103 95.1303 16.3703C94.8103 16.0303 94.4003 15.8603 93.9003 15.8603C93.4003 15.8603 92.9903 16.0303 92.6703 16.3703C92.3503 16.7103 92.1903 17.1803 92.1903 17.7803C92.1903 18.3903 92.3503 18.8678 92.6703 19.2128C92.9903 19.5578 93.4003 19.7303 93.9003 19.7303ZM105.105 13.5953C106.115 13.5953 106.928 13.8953 107.543 14.4953C108.158 15.0953 108.465 16.0003 108.465 17.2103V21.8603H105.615V17.6753C105.615 16.5653 105.17 16.0103 104.28 16.0103C103.79 16.0103 103.398 16.1703 103.103 16.4903C102.808 16.8103 102.66 17.2903 102.66 17.9303V21.8603H99.8103V13.7303H102.525V14.6153C102.845 14.2853 103.225 14.0328 103.665 13.8578C104.105 13.6828 104.585 13.5953 105.105 13.5953ZM113.715 13.5953C115.065 13.5953 116.095 13.9028 116.805 14.5178C117.515 15.1328 117.87 16.0753 117.87 17.3453V21.8603H115.215V20.8103C114.805 21.6003 114.005 21.9953 112.815 21.9953C112.185 21.9953 111.64 21.8853 111.18 21.6653C110.72 21.4453 110.373 21.1478 110.138 20.7728C109.903 20.3978 109.785 19.9703 109.785 19.4903C109.785 18.7203 110.08 18.1228 110.67 17.6978C111.26 17.2728 112.17 17.0603 113.4 17.0603H115.02C114.97 16.2003 114.395 15.7703 113.295 15.7703C112.905 15.7703 112.51 15.8328 112.11 15.9578C111.71 16.0828 111.37 16.2553 111.09 16.4753L110.13 14.5403C110.58 14.2403 111.128 14.0078 111.773 13.8428C112.418 13.6778 113.065 13.5953 113.715 13.5953ZM113.61 20.1953C113.94 20.1953 114.23 20.1153 114.48 19.9553C114.73 19.7953 114.91 19.5603 115.02 19.2503V18.5453H113.79C112.96 18.5453 112.545 18.8203 112.545 19.3703C112.545 19.6203 112.64 19.8203 112.83 19.9703C113.02 20.1203 113.28 20.1953 113.61 20.1953ZM119.67 10.7303H122.52V21.8603H119.67V10.7303ZM134.1 22.0703C133 22.0703 132.013 21.8378 131.138 21.3728C130.263 20.9078 129.575 20.2603 129.075 19.4303C128.575 18.6003 128.325 17.6603 128.325 16.6103C128.325 15.5603 128.575 14.6203 129.075 13.7903C129.575 12.9603 130.263 12.3128 131.138 11.8478C132.013 11.3828 133 11.1503 134.1 11.1503C135.06 11.1503 135.925 11.3203 136.695 11.6603C137.465 12.0003 138.105 12.4903 138.615 13.1303L136.725 14.8403C136.045 14.0203 135.22 13.6103 134.25 13.6103C133.68 13.6103 133.173 13.7353 132.728 13.9853C132.283 14.2353 131.938 14.5878 131.693 15.0428C131.448 15.4978 131.325 16.0203 131.325 16.6103C131.325 17.2003 131.448 17.7228 131.693 18.1778C131.938 18.6328 132.283 18.9853 132.728 19.2353C133.173 19.4853 133.68 19.6103 134.25 19.6103C135.22 19.6103 136.045 19.2003 136.725 18.3803L138.615 20.0903C138.105 20.7303 137.465 21.2203 136.695 21.5603C135.925 21.9003 135.06 22.0703 134.1 22.0703ZM147.855 17.8103C147.855 17.8303 147.84 18.0653 147.81 18.5153H141.9C142.02 18.9353 142.253 19.2578 142.598 19.4828C142.943 19.7078 143.375 19.8203 143.895 19.8203C144.285 19.8203 144.623 19.7653 144.908 19.6553C145.193 19.5453 145.48 19.3653 145.77 19.1153L147.27 20.6753C146.48 21.5553 145.325 21.9953 143.805 21.9953C142.855 21.9953 142.02 21.8153 141.3 21.4553C140.58 21.0953 140.023 20.5953 139.628 19.9553C139.233 19.3153 139.035 18.5903 139.035 17.7803C139.035 16.9803 139.228 16.2628 139.613 15.6278C139.998 14.9928 140.53 14.4953 141.21 14.1353C141.89 13.7753 142.655 13.5953 143.505 13.5953C144.315 13.5953 145.05 13.7628 145.71 14.0978C146.37 14.4328 146.893 14.9178 147.278 15.5528C147.663 16.1878 147.855 16.9403 147.855 17.8103ZM143.52 15.6203C143.08 15.6203 142.713 15.7453 142.418 15.9953C142.123 16.2453 141.935 16.5853 141.855 17.0153H145.185C145.105 16.5853 144.918 16.2453 144.623 15.9953C144.328 15.7453 143.96 15.6203 143.52 15.6203ZM154.47 13.5953C155.48 13.5953 156.293 13.8953 156.908 14.4953C157.523 15.0953 157.83 16.0003 157.83 17.2103V21.8603H154.98V17.6753C154.98 16.5653 154.535 16.0103 153.645 16.0103C153.155 16.0103 152.763 16.1703 152.468 16.4903C152.173 16.8103 152.025 17.2903 152.025 17.9303V21.8603H149.175V13.7303H151.89V14.6153C152.21 14.2853 152.59 14.0328 153.03 13.8578C153.47 13.6828 153.95 13.5953 154.47 13.5953ZM165.225 21.5303C164.985 21.6803 164.693 21.7953 164.348 21.8753C164.003 21.9553 163.635 21.9953 163.245 21.9953C162.185 21.9953 161.37 21.7353 160.8 21.2153C160.23 20.6953 159.945 19.9203 159.945 18.8903V16.1603H158.76V14.0303H159.945V11.9153H162.795V14.0303H164.655V16.1603H162.795V18.8603C162.795 19.1503 162.873 19.3778 163.028 19.5428C163.183 19.7078 163.39 19.7903 163.65 19.7903C163.98 19.7903 164.27 19.7053 164.52 19.5353L165.225 21.5303ZM174.39 17.8103C174.39 17.8303 174.375 18.0653 174.345 18.5153H168.435C168.555 18.9353 168.788 19.2578 169.133 19.4828C169.478 19.7078 169.91 19.8203 170.43 19.8203C170.82 19.8203 171.158 19.7653 171.443 19.6553C171.728 19.5453 172.015 19.3653 172.305 19.1153L173.805 20.6753C173.015 21.5553 171.86 21.9953 170.34 21.9953C169.39 21.9953 168.555 21.8153 167.835 21.4553C167.115 21.0953 166.558 20.5953 166.163 19.9553C165.768 19.3153 165.57 18.5903 165.57 17.7803C165.57 16.9803 165.763 16.2628 166.148 15.6278C166.533 14.9928 167.065 14.4953 167.745 14.1353C168.425 13.7753 169.19 13.5953 170.04 13.5953C170.85 13.5953 171.585 13.7628 172.245 14.0978C172.905 14.4328 173.428 14.9178 173.813 15.5528C174.198 16.1878 174.39 16.9403 174.39 17.8103ZM170.055 15.6203C169.615 15.6203 169.248 15.7453 168.953 15.9953C168.658 16.2453 168.47 16.5853 168.39 17.0153H171.72C171.64 16.5853 171.453 16.2453 171.158 15.9953C170.863 15.7453 170.495 15.6203 170.055 15.6203ZM178.425 14.7053C178.715 14.3353 179.092 14.0578 179.558 13.8728C180.022 13.6878 180.555 13.5953 181.155 13.5953V16.1603C180.895 16.1303 180.68 16.1153 180.51 16.1153C179.9 16.1153 179.422 16.2803 179.077 16.6103C178.732 16.9403 178.56 17.4453 178.56 18.1253V21.8603H175.71V13.7303H178.425V14.7053ZM60.9904 37.9952C60.1204 37.9952 59.3354 37.8152 58.6354 37.4552C57.9354 37.0952 57.3879 36.5952 56.9929 35.9552C56.5979 35.3152 56.4004 34.5902 56.4004 33.7802C56.4004 32.9802 56.5979 32.2602 56.9929 31.6202C57.3879 30.9802 57.9329 30.4827 58.6279 30.1277C59.3229 29.7727 60.1104 29.5952 60.9904 29.5952C61.8704 29.5952 62.6604 29.7727 63.3604 30.1277C64.0604 30.4827 64.6054 30.9777 64.9954 31.6127C65.3854 32.2477 65.5804 32.9702 65.5804 33.7802C65.5804 34.5902 65.3854 35.3152 64.9954 35.9552C64.6054 36.5952 64.0604 37.0952 63.3604 37.4552C62.6604 37.8152 61.8704 37.9952 60.9904 37.9952ZM60.9904 35.7302C61.4904 35.7302 61.9004 35.5577 62.2204 35.2127C62.5404 34.8677 62.7004 34.3902 62.7004 33.7802C62.7004 33.1802 62.5404 32.7102 62.2204 32.3702C61.9004 32.0302 61.4904 31.8602 60.9904 31.8602C60.4904 31.8602 60.0804 32.0302 59.7604 32.3702C59.4404 32.7102 59.2804 33.1802 59.2804 33.7802C59.2804 34.3902 59.4404 34.8677 59.7604 35.2127C60.0804 35.5577 60.4904 35.7302 60.9904 35.7302ZM72.1953 29.5952C73.2053 29.5952 74.0178 29.8952 74.6328 30.4952C75.2478 31.0952 75.5553 32.0002 75.5553 33.2102V37.8602H72.7053V33.6752C72.7053 32.5652 72.2603 32.0102 71.3703 32.0102C70.8803 32.0102 70.4878 32.1702 70.1928 32.4902C69.8978 32.8102 69.7504 33.2902 69.7504 33.9302V37.8602H66.9004V29.7302H69.6153V30.6152C69.9354 30.2852 70.3153 30.0327 70.7553 29.8577C71.1953 29.6827 71.6753 29.5952 72.1953 29.5952ZM81.8403 27.3602H86.8053C87.9553 27.3602 88.9753 27.5752 89.8653 28.0052C90.7553 28.4352 91.4453 29.0452 91.9353 29.8352C92.4253 30.6252 92.6703 31.5502 92.6703 32.6102C92.6703 33.6702 92.4253 34.5952 91.9353 35.3852C91.4453 36.1752 90.7553 36.7852 89.8653 37.2152C88.9753 37.6452 87.9553 37.8602 86.8053 37.8602H81.8403V27.3602ZM86.6853 35.4902C87.5853 35.4902 88.3078 35.2352 88.8528 34.7252C89.3978 34.2152 89.6703 33.5102 89.6703 32.6102C89.6703 31.7102 89.3978 31.0052 88.8528 30.4952C88.3078 29.9852 87.5853 29.7302 86.6853 29.7302H84.8103V35.4902H86.6853ZM102.405 33.8102C102.405 33.8302 102.39 34.0652 102.36 34.5152H96.4503C96.5703 34.9352 96.8028 35.2577 97.1478 35.4827C97.4928 35.7077 97.9253 35.8202 98.4453 35.8202C98.8353 35.8202 99.1728 35.7652 99.4578 35.6552C99.7428 35.5452 100.03 35.3652 100.32 35.1152L101.82 36.6752C101.03 37.5552 99.8753 37.9952 98.3553 37.9952C97.4053 37.9952 96.5703 37.8152 95.8503 37.4552C95.1303 37.0952 94.5728 36.5952 94.1778 35.9552C93.7828 35.3152 93.5853 34.5902 93.5853 33.7802C93.5853 32.9802 93.7778 32.2627 94.1628 31.6277C94.5478 30.9927 95.0803 30.4952 95.7603 30.1352C96.4403 29.7752 97.2053 29.5952 98.0553 29.5952C98.8653 29.5952 99.6003 29.7627 100.26 30.0977C100.92 30.4327 101.443 30.9177 101.828 31.5527C102.213 32.1877 102.405 32.9402 102.405 33.8102ZM98.0703 31.6202C97.6303 31.6202 97.2628 31.7452 96.9678 31.9952C96.6728 32.2452 96.4853 32.5852 96.4053 33.0152H99.7353C99.6553 32.5852 99.4678 32.2452 99.1728 31.9952C98.8778 31.7452 98.5103 31.6202 98.0703 31.6202ZM106.965 29.5952C108.315 29.5952 109.345 29.9027 110.055 30.5177C110.765 31.1327 111.12 32.0752 111.12 33.3452V37.8602H108.465V36.8102C108.055 37.6002 107.255 37.9952 106.065 37.9952C105.435 37.9952 104.89 37.8852 104.43 37.6652C103.97 37.4452 103.623 37.1477 103.388 36.7727C103.153 36.3977 103.035 35.9702 103.035 35.4902C103.035 34.7202 103.33 34.1227 103.92 33.6977C104.51 33.2727 105.42 33.0602 106.65 33.0602H108.27C108.22 32.2002 107.645 31.7702 106.545 31.7702C106.155 31.7702 105.76 31.8327 105.36 31.9577C104.96 32.0827 104.62 32.2552 104.34 32.4752L103.38 30.5402C103.83 30.2402 104.378 30.0077 105.023 29.8427C105.668 29.6777 106.315 29.5952 106.965 29.5952ZM106.86 36.1952C107.19 36.1952 107.48 36.1152 107.73 35.9552C107.98 35.7952 108.16 35.5602 108.27 35.2502V34.5452H107.04C106.21 34.5452 105.795 34.8202 105.795 35.3702C105.795 35.6202 105.89 35.8202 106.08 35.9702C106.27 36.1202 106.53 36.1952 106.86 36.1952ZM116.025 30.0302H117.96V32.1602H116.1V37.8602H113.25V32.1602H112.065V30.0302H113.25V29.8202C113.25 28.8302 113.548 28.0452 114.143 27.4652C114.738 26.8852 115.57 26.5952 116.64 26.5952C117 26.5952 117.35 26.6302 117.69 26.7002C118.03 26.7702 118.31 26.8752 118.53 27.0152L117.825 29.0252C117.545 28.8652 117.26 28.7852 116.97 28.7852C116.67 28.7852 116.438 28.8752 116.273 29.0552C116.108 29.2352 116.025 29.5002 116.025 29.8502V30.0302ZM118.665 32.4902H123.045V34.6802H118.665V32.4902ZM132.885 32.3852C133.485 32.5952 133.955 32.9227 134.295 33.3677C134.635 33.8127 134.805 34.3502 134.805 34.9802C134.805 35.9002 134.435 36.6102 133.695 37.1102C132.955 37.6102 131.885 37.8602 130.485 37.8602H124.815V27.3602H130.185C131.525 27.3602 132.545 27.6077 133.245 28.1027C133.945 28.5977 134.295 29.2652 134.295 30.1052C134.295 30.6052 134.173 31.0527 133.928 31.4477C133.683 31.8427 133.335 32.1552 132.885 32.3852ZM127.755 29.5052V31.5302H129.795C130.795 31.5302 131.295 31.1902 131.295 30.5102C131.295 29.8402 130.795 29.5052 129.795 29.5052H127.755ZM130.245 35.7152C131.285 35.7152 131.805 35.3602 131.805 34.6502C131.805 33.9402 131.285 33.5852 130.245 33.5852H127.755V35.7152H130.245ZM136.215 26.7302H139.065V37.8602H136.215V26.7302ZM140.91 29.7302H143.76V37.8602H140.91V29.7302ZM142.335 28.8302C141.815 28.8302 141.395 28.6852 141.075 28.3952C140.755 28.1052 140.595 27.7452 140.595 27.3152C140.595 26.8852 140.755 26.5252 141.075 26.2352C141.395 25.9452 141.815 25.8002 142.335 25.8002C142.855 25.8002 143.275 25.9377 143.595 26.2127C143.915 26.4877 144.075 26.8402 144.075 27.2702C144.075 27.7202 143.915 28.0927 143.595 28.3877C143.275 28.6827 142.855 28.8302 142.335 28.8302ZM150.9 29.5952C151.91 29.5952 152.723 29.8952 153.338 30.4952C153.953 31.0952 154.26 32.0002 154.26 33.2102V37.8602H151.41V33.6752C151.41 32.5652 150.965 32.0102 150.075 32.0102C149.585 32.0102 149.193 32.1702 148.898 32.4902C148.603 32.8102 148.455 33.2902 148.455 33.9302V37.8602H145.605V29.7302H148.32V30.6152C148.64 30.2852 149.02 30.0327 149.46 29.8577C149.9 29.6827 150.38 29.5952 150.9 29.5952ZM164.805 26.7302V37.8602H162.09V37.0502C161.56 37.6802 160.765 37.9952 159.705 37.9952C158.965 37.9952 158.29 37.8227 157.68 37.4777C157.07 37.1327 156.588 36.6402 156.233 36.0002C155.878 35.3602 155.7 34.6202 155.7 33.7802C155.7 32.9402 155.878 32.2027 156.233 31.5677C156.588 30.9327 157.07 30.4452 157.68 30.1052C158.29 29.7652 158.965 29.5952 159.705 29.5952C160.675 29.5952 161.425 29.8752 161.955 30.4352V26.7302H164.805ZM160.305 35.7302C160.795 35.7302 161.2 35.5577 161.52 35.2127C161.84 34.8677 162 34.3902 162 33.7802C162 33.1802 161.843 32.7102 161.528 32.3702C161.213 32.0302 160.805 31.8602 160.305 31.8602C159.805 31.8602 159.395 32.0302 159.075 32.3702C158.755 32.7102 158.595 33.1802 158.595 33.7802C158.595 34.3902 158.755 34.8677 159.075 35.2127C159.395 35.5577 159.805 35.7302 160.305 35.7302ZM171.93 29.5952C172.94 29.5952 173.753 29.8952 174.368 30.4952C174.983 31.0952 175.29 32.0002 175.29 33.2102V37.8602H172.44V33.6752C172.44 32.5652 171.995 32.0102 171.105 32.0102C170.615 32.0102 170.223 32.1702 169.928 32.4902C169.633 32.8102 169.485 33.2902 169.485 33.9302V37.8602H166.635V29.7302H169.35V30.6152C169.67 30.2852 170.05 30.0327 170.49 29.8577C170.93 29.6827 171.41 29.5952 171.93 29.5952ZM185.505 33.8102C185.505 33.8302 185.49 34.0652 185.46 34.5152H179.55C179.67 34.9352 179.903 35.2577 180.248 35.4827C180.593 35.7077 181.025 35.8202 181.545 35.8202C181.935 35.8202 182.272 35.7652 182.557 35.6552C182.842 35.5452 183.13 35.3652 183.42 35.1152L184.92 36.6752C184.13 37.5552 182.975 37.9952 181.455 37.9952C180.505 37.9952 179.67 37.8152 178.95 37.4552C178.23 37.0952 177.673 36.5952 177.278 35.9552C176.883 35.3152 176.685 34.5902 176.685 33.7802C176.685 32.9802 176.878 32.2627 177.263 31.6277C177.648 30.9927 178.18 30.4952 178.86 30.1352C179.54 29.7752 180.305 29.5952 181.155 29.5952C181.965 29.5952 182.7 29.7627 183.36 30.0977C184.02 30.4327 184.542 30.9177 184.927 31.5527C185.312 32.1877 185.505 32.9402 185.505 33.8102ZM181.17 31.6202C180.73 31.6202 180.363 31.7452 180.067 31.9952C179.772 32.2452 179.585 32.5852 179.505 33.0152H182.835C182.755 32.5852 182.567 32.2452 182.272 31.9952C181.977 31.7452 181.61 31.6202 181.17 31.6202ZM189.78 37.9952C189.1 37.9952 188.43 37.9177 187.77 37.7627C187.11 37.6077 186.58 37.4052 186.18 37.1552L187.035 35.2052C187.405 35.4352 187.845 35.6177 188.355 35.7527C188.865 35.8877 189.37 35.9552 189.87 35.9552C190.33 35.9552 190.657 35.9077 190.852 35.8127C191.047 35.7177 191.145 35.5802 191.145 35.4002C191.145 35.2202 191.027 35.0927 190.792 35.0177C190.557 34.9427 190.185 34.8702 189.675 34.8002C189.025 34.7202 188.472 34.6152 188.017 34.4852C187.562 34.3552 187.17 34.1152 186.84 33.7652C186.51 33.4152 186.345 32.9252 186.345 32.2952C186.345 31.7752 186.5 31.3127 186.81 30.9077C187.12 30.5027 187.572 30.1827 188.167 29.9477C188.762 29.7127 189.475 29.5952 190.305 29.5952C190.895 29.5952 191.48 29.6552 192.06 29.7752C192.64 29.8952 193.125 30.0652 193.515 30.2852L192.66 32.2202C191.94 31.8202 191.16 31.6202 190.32 31.6202C189.87 31.6202 189.54 31.6727 189.33 31.7777C189.12 31.8827 189.015 32.0202 189.015 32.1902C189.015 32.3802 189.13 32.5127 189.36 32.5877C189.59 32.6627 189.97 32.7402 190.5 32.8202C191.17 32.9202 191.725 33.0352 192.165 33.1652C192.605 33.2952 192.987 33.5327 193.312 33.8777C193.637 34.2227 193.8 34.7052 193.8 35.3252C193.8 35.8352 193.645 36.2927 193.335 36.6977C193.025 37.1027 192.567 37.4202 191.962 37.6502C191.357 37.8802 190.63 37.9952 189.78 37.9952ZM197.985 37.9952C197.305 37.9952 196.635 37.9177 195.975 37.7627C195.315 37.6077 194.785 37.4052 194.385 37.1552L195.24 35.2052C195.61 35.4352 196.05 35.6177 196.56 35.7527C197.07 35.8877 197.575 35.9552 198.075 35.9552C198.535 35.9552 198.862 35.9077 199.057 35.8127C199.252 35.7177 199.35 35.5802 199.35 35.4002C199.35 35.2202 199.232 35.0927 198.997 35.0177C198.762 34.9427 198.39 34.8702 197.88 34.8002C197.23 34.7202 196.677 34.6152 196.222 34.4852C195.767 34.3552 195.375 34.1152 195.045 33.7652C194.715 33.4152 194.55 32.9252 194.55 32.2952C194.55 31.7752 194.705 31.3127 195.015 30.9077C195.325 30.5027 195.777 30.1827 196.372 29.9477C196.967 29.7127 197.68 29.5952 198.51 29.5952C199.1 29.5952 199.685 29.6552 200.265 29.7752C200.845 29.8952 201.33 30.0652 201.72 30.2852L200.865 32.2202C200.145 31.8202 199.365 31.6202 198.525 31.6202C198.075 31.6202 197.745 31.6727 197.535 31.7777C197.325 31.8827 197.22 32.0202 197.22 32.1902C197.22 32.3802 197.335 32.5127 197.565 32.5877C197.795 32.6627 198.175 32.7402 198.705 32.8202C199.375 32.9202 199.93 33.0352 200.37 33.1652C200.81 33.2952 201.192 33.5327 201.517 33.8777C201.842 34.2227 202.005 34.7052 202.005 35.3252C202.005 35.8352 201.85 36.2927 201.54 36.6977C201.23 37.1027 200.772 37.4202 200.167 37.6502C199.562 37.8802 198.835 37.9952 197.985 37.9952Z" fill="#1A1A1A"/>
<path fill-rule="evenodd" clip-rule="evenodd" d="M41.3775 35.3561C41.3853 36.2644 40.877 36.8741 40.0282 36.9746C38.5053 37.155 38.5053 37.155 38.5053 35.6643C38.5053 35.5667 38.5053 35.4702 38.5063 35.3727C38.5063 34.9492 38.5141 34.5268 38.5034 34.1044C38.4975 33.841 38.5902 33.7121 38.8702 33.7248C39.2439 33.7424 39.6195 33.7199 39.9912 33.7492C40.9112 33.8214 41.3678 34.361 41.3775 35.3561ZM42.0809 40.077C41.9414 40.8536 41.3248 41.3199 40.3707 41.3638C40.1765 41.3736 39.9814 41.3746 39.7873 41.3638C38.9121 41.3188 38.5248 40.9268 38.5082 40.0526C38.4965 39.4038 38.5317 38.7541 38.4965 38.1072C38.4956 38.0799 38.4946 38.0516 38.4936 38.0243C38.4917 37.8019 38.5541 37.5502 38.8243 37.5531C39.2087 37.556 39.597 37.5668 39.9804 37.6175C40.3307 37.6653 40.6916 37.7297 41.0224 37.8575C41.8858 38.1911 42.2614 39.0643 42.0809 40.077ZM33.5912 39.4302C33.0692 40.9336 31.2439 41.7385 29.7492 41.1716C29.2488 40.9813 29.0068 40.6194 29.0068 40.0897C29.0058 39.0994 29.0068 38.1102 29.0068 37.12H29.0049C29.0049 36.1453 29.0205 35.1717 28.9961 34.198C28.9873 33.8253 29.1112 33.713 29.4702 33.7385C29.8741 33.7668 30.281 33.7413 30.6868 33.7452C32.0302 33.76 33.0244 34.4164 33.5083 35.6663C33.9863 36.9042 34.0273 38.1764 33.5912 39.4302ZM36.3148 33.3542C36.3159 33.3465 36.317 33.3386 36.3192 33.332C36.317 33.3409 36.3159 33.3486 36.3148 33.3575V33.3542ZM36.3121 33.3725C36.3121 33.3714 36.3132 33.3703 36.3132 33.3692C36.3121 33.3827 36.311 33.3948 36.3121 33.4081C36.311 33.396 36.311 33.3848 36.3121 33.3725ZM43.8097 32.2185C43.8224 31.4546 43.8234 30.6907 43.8087 29.9268C43.8077 29.837 43.6838 29.6721 43.6282 29.676C43.5102 29.6858 43.359 29.757 43.2946 29.8526C43.1892 30.0116 43.1512 30.2126 43.0702 30.3883C42.556 31.5112 41.6399 31.9921 40.4478 31.9659C39.2624 31.9404 38.3795 31.3892 37.9619 30.2633C37.4146 28.7902 37.4331 27.2926 38.0663 25.8479C38.5346 24.7804 39.3951 24.2351 40.5795 24.2692C41.2702 24.2897 41.839 24.4917 42.2848 24.8712C42.6087 25.1473 42.8682 25.518 43.0614 25.9834C43.0917 26.0585 43.0995 26.1541 43.1521 26.2068C43.2204 26.276 43.3277 26.359 43.4077 26.3483C43.4741 26.3404 43.5756 26.2048 43.5746 26.1278C43.5677 25.4282 43.5473 24.7298 43.5131 24.0322C43.5112 23.9981 43.4907 23.9639 43.4614 23.9317C43.3892 23.8478 43.2575 23.8361 43.1765 23.9131C43.159 23.9297 43.1473 23.9473 43.1443 23.9659C43.0663 24.5785 42.7736 24.364 42.437 24.1843C42.2087 24.0624 41.9746 23.9629 41.7375 23.8839C39.717 23.2107 37.4907 24.0741 36.5756 26.0069C36.0478 27.12 35.9824 28.2916 36.2331 29.4829C36.5678 31.077 37.72 32.1932 39.3131 32.4868C40.6907 32.7404 41.9609 32.5033 43.1434 31.5922C43.2273 31.8565 43.2751 32.0809 43.3726 32.283C43.4146 32.3697 43.5521 32.4371 43.6565 32.4555C43.6946 32.4624 43.8077 32.3034 43.8097 32.2185ZM41.6682 41.7394C42.8117 41.5979 43.6165 40.674 43.6419 39.6536C43.6663 38.6732 42.8975 37.7424 41.8195 37.4615C41.5414 37.3883 41.2556 37.3433 40.9034 37.2711C41.3121 37.0663 41.6653 36.9306 41.9726 36.7277C43.1024 35.9825 43.0858 34.4272 41.9238 33.7355C41.5434 33.5103 41.0868 33.318 40.6546 33.2916C39.2624 33.2059 37.8653 33.2009 36.4702 33.1804H36.4653C36.4585 33.1804 36.4507 33.1815 36.4439 33.1843C36.4351 33.1854 36.4273 33.1893 36.4195 33.1932C36.4146 33.195 36.4097 33.198 36.4058 33.2009C36.3951 33.2068 36.3844 33.2146 36.3746 33.2233C36.3726 33.2253 36.3707 33.2264 36.3687 33.2282C36.3639 33.2331 36.359 33.2381 36.3541 33.2438V33.2448H36.3531C36.3522 33.2458 36.3512 33.2477 36.3502 33.2487C36.3483 33.2508 36.3473 33.2526 36.3463 33.2547C36.3444 33.2575 36.3424 33.2594 36.3405 33.2625C36.3385 33.2643 36.3375 33.2664 36.3366 33.2692C36.3297 33.279 36.3248 33.2897 36.32 33.3004C36.318 33.3073 36.3151 33.3151 36.3131 33.3219C36.3122 33.3229 36.3122 33.3248 36.3122 33.3268C36.3102 33.3346 36.3092 33.3414 36.3083 33.3492C36.3073 33.3522 36.3073 33.3561 36.3063 33.3589C36.3063 33.3619 36.3053 33.3648 36.3053 33.3677C36.3053 33.3668 36.3063 33.3658 36.3063 33.3648C36.3053 33.3766 36.3044 33.3872 36.3053 33.399C36.3053 33.4029 36.3053 33.4077 36.3063 33.4127C36.3073 33.4204 36.3083 33.4272 36.3092 33.4341C36.3102 33.4409 36.3122 33.4477 36.3141 33.4555C36.3151 33.4576 36.3151 33.4594 36.3161 33.4615C36.318 33.4672 36.3209 33.4731 36.3229 33.4789C36.3268 33.4887 36.3297 33.4986 36.3356 33.5082C36.3375 33.5111 36.3385 33.5131 36.3405 33.516C36.3434 33.5209 36.3463 33.5269 36.3502 33.5316C36.3512 33.5326 36.3522 33.5336 36.3531 33.5347C36.357 33.5414 36.3619 33.5473 36.3678 33.5531C36.3775 33.5638 36.3863 33.5746 36.3961 33.5834C36.4039 33.5902 36.4117 33.597 36.4205 33.6029H36.4214C36.4292 33.6087 36.437 33.6136 36.4448 33.6175C36.4458 33.6185 36.4478 33.6185 36.4487 33.6194C36.4575 33.6233 36.4653 33.6263 36.4741 33.6283C37.2156 33.8077 37.3141 33.9033 37.318 34.6848C37.3268 36.5209 37.3278 38.357 37.3219 40.194C37.319 41.1571 37.2185 41.2575 36.277 41.4389C36.2761 41.4389 36.2751 41.4399 36.2741 41.4399C36.2624 41.4418 36.2517 41.4459 36.2409 41.4498C36.239 41.4506 36.237 41.4516 36.2361 41.4516C36.08 41.519 36.0731 41.7648 36.24 41.837H36.2409C36.2468 41.84 36.2536 41.8419 36.2595 41.8439C36.2653 41.8467 36.2722 41.8487 36.278 41.8497C36.2907 41.8536 36.3034 41.8555 36.3161 41.8555C37.1112 41.8731 37.9083 41.8789 38.7043 41.8614C39.6936 41.84 40.6897 41.8605 41.6682 41.7394ZM35.6048 24.1541C35.6946 24.0557 35.677 23.8956 35.5668 23.8282C35.558 23.8224 35.5483 23.8175 35.5385 23.8136C35.5307 23.8107 35.5229 23.8087 35.5151 23.8058C35.5102 23.8048 35.5053 23.8039 35.5005 23.8039C35.4946 23.8029 35.4887 23.8019 35.4829 23.8019C34.6702 23.7882 33.8575 23.7863 33.0449 23.8029C33.0361 23.8029 33.0263 23.8039 33.0175 23.8068C33.0156 23.8058 33.0136 23.8068 33.0127 23.8078C33.0097 23.8087 33.0068 23.8087 33.0049 23.8097C33.0019 23.8107 32.999 23.8107 32.997 23.8126C32.9951 23.8117 32.9931 23.8126 32.9912 23.8136C32.9883 23.8146 32.9863 23.8156 32.9834 23.8165C32.9814 23.8175 32.9795 23.8185 32.9785 23.8195C32.9697 23.8224 32.9619 23.8263 32.9551 23.8312C32.8361 23.9053 32.8273 24.0879 32.9385 24.1736C32.9424 24.1765 32.9473 24.1795 32.9522 24.1824C32.9571 24.1863 32.9619 24.1893 32.9678 24.1922C32.9688 24.1932 32.9697 24.1932 32.9707 24.1932C32.9766 24.197 32.9834 24.2 32.9892 24.202C32.9931 24.2039 32.997 24.2059 33.0009 24.2068C33.0097 24.2098 33.0185 24.2117 33.0273 24.2126C33.5785 24.2869 33.8185 24.6009 33.8175 25.1375C33.8156 26.84 33.8166 28.5424 33.8166 30.3365C33.6761 30.158 33.5746 30.036 33.479 29.9082C32.0351 27.9853 30.5961 26.0585 29.1424 24.1434C29.0224 23.9853 28.8039 23.8243 28.6195 23.8097C28.0702 23.7648 27.5151 23.7834 26.9629 23.8029C26.9502 23.8029 26.9376 23.8058 26.9249 23.8097C26.9219 23.8097 26.919 23.8107 26.9161 23.8117C26.9122 23.8126 26.9083 23.8146 26.9054 23.8165C26.8927 23.8214 26.88 23.8282 26.8673 23.8361C26.7522 23.9131 26.7317 24.0829 26.8273 24.1736V24.1746L26.8283 24.1756C26.8371 24.1834 26.8458 24.1902 26.8556 24.1961C26.8634 24.202 26.8732 24.2068 26.8829 24.2117C26.8839 24.2117 26.8839 24.2126 26.8849 24.2126C26.8878 24.2146 26.8917 24.2156 26.8966 24.2165C26.9005 24.2185 26.9044 24.2195 26.9083 24.2204C26.9405 24.2292 26.9717 24.24 27.0029 24.2517C27.0058 24.2526 27.0078 24.2536 27.0107 24.2547C27.0117 24.2547 27.0117 24.2556 27.0127 24.2556C27.4605 24.4302 27.7385 24.9005 27.7512 25.3892C27.7522 25.3931 27.7522 25.396 27.7522 25.4V25.4175C27.7551 25.8458 27.758 26.2741 27.76 26.7024V26.7941C27.761 27.0243 27.7619 27.2536 27.761 27.4829C27.7629 28.1716 27.7629 28.8605 27.76 29.5492V29.6312C27.758 30.0624 27.7551 30.4947 27.7522 30.9258C27.7463 31.7181 27.5961 31.8565 26.8176 32.0204C26.8049 32.0233 26.7922 32.0282 26.7795 32.0341C26.7737 32.037 26.7688 32.0399 26.7629 32.043C26.7512 32.0507 26.7395 32.0595 26.7278 32.0692C26.721 32.0751 26.7151 32.0809 26.7093 32.0868C26.6185 32.1872 26.6361 32.3531 26.7502 32.4293C26.7502 32.4302 26.7512 32.4302 26.7512 32.4302C26.7532 32.4321 26.7551 32.4332 26.758 32.4341C26.761 32.4371 26.7649 32.439 26.7688 32.4409C26.7707 32.4429 26.7737 32.4438 26.7766 32.4448C26.7873 32.4507 26.798 32.4555 26.8088 32.4585C26.8166 32.4615 26.8234 32.4633 26.8302 32.4643C26.839 32.4663 26.8468 32.4672 26.8546 32.4672C27.6507 32.4838 28.4468 32.4829 29.2439 32.4682C29.2507 32.4682 29.2575 32.4682 29.2644 32.4663C29.2683 32.4663 29.2722 32.4663 29.2771 32.4653C29.28 32.4643 29.2829 32.4643 29.2858 32.4624C29.2936 32.4615 29.3005 32.4594 29.3063 32.4565C29.3102 32.4555 29.3141 32.4546 29.318 32.4526C29.4605 32.3941 29.4975 32.1932 29.3873 32.08C29.3805 32.0731 29.3736 32.0673 29.3668 32.0614C29.3541 32.0507 29.3405 32.0419 29.3268 32.0352C29.3229 32.0331 29.319 32.0312 29.3151 32.0302C29.3112 32.0282 29.3073 32.0272 29.3044 32.0263C29.2976 32.0243 29.2917 32.0233 29.2849 32.0225C28.7707 31.9737 28.5171 31.6976 28.5054 31.2009C28.479 30.0477 28.4615 28.8946 28.4488 27.7425C28.441 27.036 28.4468 26.3297 28.4468 25.4907C28.6322 25.7151 28.7356 25.8321 28.8293 25.9551C30.441 28.077 32.0595 30.1941 33.6536 32.3287C33.8673 32.6146 34.1219 32.6341 34.3688 32.557C34.4702 32.5258 34.5346 32.2253 34.5356 32.0469C34.5512 29.8361 34.5414 27.6253 34.559 25.4146C34.5668 24.5191 34.6527 24.4517 35.5014 24.2243C35.5366 24.2146 35.5678 24.1922 35.597 24.1629C35.6 24.16 35.6029 24.1571 35.6048 24.1541ZM33.8351 40.9005C35.1746 39.797 35.5688 38.3375 35.2283 36.6965C34.8663 34.9502 33.7697 33.6994 32.0312 33.4107C30.3512 33.1316 28.6078 33.2331 26.8917 33.1794C26.8234 33.1776 26.6859 33.3131 26.6956 33.357C26.72 33.4565 26.799 33.5922 26.8849 33.6194C27.7658 33.8994 27.8107 33.9258 27.8176 34.8546C27.8302 36.641 27.8322 38.4282 27.8156 40.2155C27.8156 40.2516 27.8146 40.2868 27.8137 40.3199C27.8127 40.3667 27.8117 40.4116 27.8097 40.4537C27.8088 40.4594 27.8088 40.4643 27.8088 40.4692C27.8068 40.4955 27.8058 40.5199 27.8039 40.5443C27.799 40.597 27.7941 40.6467 27.7873 40.6926C27.7844 40.716 27.7805 40.7385 27.7766 40.7599C27.7727 40.7814 27.7678 40.8019 27.7629 40.8214C27.761 40.8311 27.758 40.8419 27.7561 40.8517C27.7502 40.8701 27.7444 40.8877 27.7385 40.9053C27.7346 40.916 27.7317 40.9267 27.7278 40.9365C27.721 40.9531 27.7141 40.9687 27.7073 40.9833C27.7024 40.9931 27.6976 41.0028 27.6917 41.0116C27.6849 41.0262 27.6761 41.0399 27.6673 41.0526C27.6615 41.0614 27.6556 41.0692 27.6488 41.0779C27.64 41.0906 27.6302 41.1023 27.6205 41.114C27.6137 41.1218 27.6068 41.1288 27.599 41.1355C27.5844 41.1492 27.5688 41.1628 27.5522 41.1765C27.5356 41.1893 27.518 41.2019 27.4995 41.2137C27.4868 41.2214 27.4741 41.2292 27.4605 41.237C27.4488 41.2428 27.438 41.2497 27.4254 41.2555C27.4107 41.2624 27.3951 41.2692 27.3795 41.276C27.3746 41.279 27.3698 41.2809 27.3639 41.2829C27.358 41.2858 27.3522 41.2877 27.3473 41.2897C27.3444 41.2916 27.3405 41.2936 27.3366 41.2945C27.321 41.3004 27.3034 41.3062 27.2868 41.3121C27.2702 41.3179 27.2527 41.3239 27.2341 41.3297C27.2176 41.3345 27.2 41.3404 27.1815 41.3453C27.161 41.3511 27.1395 41.357 27.1171 41.3628C27.0995 41.3677 27.0819 41.3727 27.0634 41.3766C27.0371 41.3833 27.0088 41.3901 26.9795 41.396C26.9639 41.3999 26.9483 41.4038 26.9327 41.4067C26.9268 41.4077 26.921 41.4097 26.9151 41.4106C26.8741 41.4194 26.8312 41.4282 26.7863 41.4371C26.7746 41.4399 26.7639 41.4428 26.7522 41.4477C26.7415 41.4516 26.7317 41.4565 26.7229 41.4623C26.7151 41.4662 26.7083 41.4731 26.7005 41.478C26.6937 41.4838 26.6868 41.4897 26.681 41.4955C26.6751 41.5024 26.6693 41.5092 26.6644 41.516C26.6605 41.5219 26.6566 41.5257 26.6546 41.5316C26.6507 41.5384 26.6478 41.5443 26.6449 41.5512C26.641 41.559 26.638 41.5667 26.6361 41.5756C26.6341 41.5823 26.6332 41.5882 26.6322 41.595C26.6302 41.6 26.6293 41.6058 26.6293 41.6116C26.6273 41.6194 26.6273 41.6283 26.6273 41.637C26.6273 41.6488 26.6283 41.6604 26.6302 41.6721C26.6312 41.6819 26.6341 41.6916 26.6371 41.7015C26.638 41.7043 26.638 41.7062 26.64 41.7092C26.6419 41.718 26.6459 41.7267 26.6498 41.7355C26.6556 41.7472 26.6624 41.7589 26.6693 41.7697C26.6761 41.7794 26.6839 41.7882 26.6917 41.796C26.7063 41.8106 26.7249 41.8234 26.7454 41.8331C26.7541 41.837 26.7619 41.8409 26.7707 41.8439C26.7766 41.8467 26.7824 41.8478 26.7893 41.8497C26.7902 41.8506 26.7912 41.8506 26.7922 41.8506H26.7932C26.8078 41.8545 26.8234 41.8565 26.839 41.8565C27.5697 41.8731 28.3015 41.8653 29.0322 41.8653V41.8536C29.2693 41.8536 29.5063 41.8555 29.7434 41.8575C30.0488 41.8605 30.3532 41.8605 30.6575 41.8575C30.7132 41.8575 30.7688 41.8565 30.8244 41.8565C30.88 41.8555 30.9356 41.8555 30.9912 41.8536C31.0527 41.8517 31.1141 41.8506 31.1766 41.8487C32.1571 41.8136 33.0692 41.5316 33.8351 40.9005ZM45.8575 41.554C45.8575 41.717 46.0916 43.9999 44.4331 43.9999H12.043V43.9989C12.0625 43.8605 12.082 43.7219 12.1025 43.5843C12.122 43.4584 12.1405 43.3336 12.16 43.2087C12.1727 43.1267 12.1864 43.0448 12.1991 42.9628C12.2137 42.8722 12.2283 42.7823 12.243 42.6916C12.2576 42.6009 12.2732 42.5111 12.2888 42.4204C12.3044 42.3248 12.322 42.2302 12.3386 42.1345C12.3688 41.9677 12.3981 41.8009 12.4293 41.634C12.4478 41.5365 12.4674 41.4389 12.4859 41.3414C12.5181 41.1765 12.5503 41.0126 12.5835 40.8487C12.603 40.7531 12.6235 40.6575 12.643 40.5619C12.6781 40.394 12.7142 40.2263 12.7513 40.0595C12.7717 39.9706 12.7913 39.8809 12.8117 39.7921C12.8517 39.6155 12.8927 39.4389 12.9347 39.2624C12.9532 39.1843 12.9717 39.1063 12.9913 39.0282C13.0391 38.8331 13.0878 38.638 13.1376 38.4438C13.1532 38.3863 13.1669 38.3287 13.1825 38.2711C13.2449 38.0312 13.3093 37.7912 13.3756 37.5531C13.3786 37.5414 13.3815 37.5297 13.3854 37.518C13.4127 37.4204 13.44 37.3219 13.4683 37.2243C13.4966 37.1258 13.5239 37.0282 13.5532 36.9306C13.5727 36.8633 13.5922 36.7951 13.6127 36.7277C13.6498 36.6009 13.6888 36.4731 13.7278 36.3463C13.7874 36.1521 13.8478 35.9581 13.9103 35.7648C13.9415 35.6682 13.9727 35.5717 14.0039 35.475C14.0352 35.3785 14.0674 35.2819 14.0995 35.1863C14.1015 35.1794 14.1044 35.1736 14.1064 35.1667C14.1298 35.0956 14.1542 35.0253 14.1786 34.9541C14.2371 34.7804 14.2976 34.6078 14.3581 34.435C14.3669 34.4116 14.3756 34.3872 14.3834 34.3639C14.4644 34.1366 14.5474 33.9102 14.6313 33.6838C14.643 33.6536 14.6537 33.6224 14.6654 33.5922C14.7044 33.4877 14.7434 33.3833 14.7834 33.2799C14.8234 33.1755 14.8644 33.0712 14.9044 32.9677C14.92 32.9277 14.9356 32.8888 14.9522 32.8487C14.9971 32.7355 15.042 32.6224 15.0869 32.5092C15.1337 32.3951 15.1795 32.2819 15.2264 32.1677C15.2342 32.1492 15.242 32.1297 15.2498 32.1111C15.3503 31.8683 15.4537 31.6253 15.5581 31.3833C16.9483 28.1843 18.6976 25.1327 20.8137 22.2302C20.9903 21.9892 21.1678 21.7502 21.3473 21.5131C21.4059 21.4361 21.4654 21.359 21.5239 21.2819C21.6459 21.1229 21.7678 20.9639 21.8917 20.8068C21.962 20.717 22.0332 20.6283 22.1044 20.5385C22.2176 20.3961 22.3317 20.2527 22.4468 20.1112C22.522 20.0185 22.5981 19.9268 22.6732 19.8351C22.7863 19.6975 22.9005 19.5609 23.0146 19.4253C23.0917 19.3336 23.1688 19.2429 23.2468 19.1522C23.3629 19.0166 23.48 18.8809 23.5971 18.7463C23.6732 18.6595 23.7493 18.5727 23.8263 18.4858C23.9502 18.3453 24.0761 18.2068 24.202 18.0683C24.2722 17.9902 24.3424 17.9112 24.4137 17.8341C24.559 17.677 24.7044 17.521 24.8507 17.3658C24.9044 17.3092 24.9571 17.2517 25.0107 17.1951C25.2146 16.9814 25.4195 16.7697 25.6263 16.561L25.6273 16.56C25.8312 16.3532 26.038 16.1492 26.2459 15.9463C26.3044 15.8888 26.3639 15.8322 26.4234 15.7756C26.5737 15.6302 26.7239 15.4858 26.8761 15.3434C26.9483 15.2751 27.0224 15.2068 27.0946 15.1395C27.2351 15.0088 27.3766 14.879 27.518 14.7502C27.5971 14.679 27.6751 14.6088 27.7541 14.5385C27.8937 14.4146 28.0332 14.2897 28.1746 14.1668C28.2537 14.0975 28.3337 14.0283 28.4137 13.959C28.558 13.8351 28.7024 13.7122 28.8478 13.5902C28.9249 13.5258 29.0019 13.4605 29.08 13.3961C29.2351 13.2673 29.3912 13.1395 29.5483 13.0127C29.6166 12.958 29.6849 12.9024 29.7532 12.8478C29.9405 12.6976 30.1297 12.5502 30.319 12.4029C30.358 12.3727 30.3961 12.3424 30.4351 12.3122C30.6712 12.1307 30.9083 11.9512 31.1483 11.7746C31.3434 11.6293 31.5405 11.4868 31.7385 11.3444C31.8273 11.2819 31.9161 11.2195 32.0058 11.1571C32.1239 11.0732 32.2429 10.9893 32.3629 10.9063C32.4585 10.84 32.5551 10.7737 32.6527 10.7083C32.7668 10.6302 32.88 10.5532 32.9951 10.4761C33.0936 10.4107 33.1931 10.3444 33.2927 10.279C33.4078 10.2039 33.5229 10.1288 33.638 10.0546C33.7375 9.99024 33.837 9.92683 33.9366 9.86341C34.0556 9.78829 34.1746 9.71317 34.2936 9.63902L34.5863 9.45756C34.7141 9.37951 34.8439 9.30146 34.9727 9.22439C35.0624 9.17073 35.1522 9.1161 35.2429 9.06244C35.4097 8.96293 35.5785 8.86537 35.7473 8.76878C35.8009 8.73854 35.8526 8.70732 35.9063 8.67708C36.1248 8.5522 36.3453 8.42927 36.5668 8.30732C36.6478 8.26244 36.7287 8.21952 36.8097 8.17561C36.9561 8.09659 37.1034 8.01659 37.2507 7.93854C37.3424 7.88976 37.4351 7.84196 37.5287 7.79415C37.6663 7.72196 37.8048 7.64976 37.9434 7.57952C38.039 7.53074 38.1356 7.48196 38.2322 7.43318C38.3707 7.36391 38.5092 7.29562 38.6487 7.22733C38.7443 7.1805 38.8409 7.13367 38.9375 7.08684C39.0809 7.01757 39.2253 6.94928 39.3697 6.88098C39.4624 6.83806 39.5541 6.79416 39.6468 6.75123C39.8058 6.67708 39.9668 6.60489 40.1278 6.53172C40.2058 6.4966 40.2839 6.4605 40.3619 6.42635C40.6019 6.31904 40.8419 6.21465 41.0839 6.11123C41.2604 6.03513 41.438 5.96196 41.6156 5.89074C41.6682 5.86928 41.7209 5.84879 41.7736 5.82831C41.8995 5.77855 42.0253 5.72782 42.1521 5.67904C42.197 5.66245 42.2429 5.64587 42.2878 5.62831C42.4224 5.5766 42.557 5.52587 42.6926 5.47611C42.7258 5.46343 42.758 5.45172 42.7912 5.44001C42.9395 5.38538 43.0887 5.33075 43.238 5.27709C43.239 5.27611 43.2399 5.27611 43.2409 5.27611C43.9521 5.01953 44.6682 4.77367 45.3804 4.51709H45.3814C45.4194 4.55221 45.4546 4.59026 45.4897 4.62831C45.6477 4.80002 45.7716 5.00392 45.8575 5.23416V5.31318C45.8585 14.9873 45.8585 24.6614 45.8575 34.3365V41.554ZM36.3121 33.3725C36.3121 33.3714 36.3132 33.3703 36.3132 33.3692C36.3121 33.3827 36.311 33.3948 36.3121 33.4081C36.311 33.396 36.311 33.3848 36.3121 33.3725Z" fill="#1F3E42"/>
<path fill-rule="evenodd" clip-rule="evenodd" d="M5.99562 36.6721C5.99757 36.7186 6.00538 36.7649 6.01045 36.8113C8.21083 21.8119 20.2152 7.65689 36.9172 4.00012H36.6744C27.1134 4.00012 17.5527 3.99943 7.99181 4.00139C6.81016 4.00158 5.99523 4.83524 5.99504 6.03845C5.99377 16.1847 5.99422 26.3309 5.99422 36.477C5.99422 36.4862 5.99422 36.4953 5.99422 36.5044V36.5907C5.99422 36.6179 5.99422 36.6451 5.99562 36.6721Z" fill="#408087"/>
</svg>
