<svg width="244" height="48" viewBox="0 0 244 48" fill="none" xmlns="http://www.w3.org/2000/svg">
<path d="M176.407 43.984C175.912 43.9855 175.417 43.9349 174.933 43.833C174.533 43.7574 174.143 43.6366 173.771 43.473L174.247 41.9052C174.567 42.0166 174.893 42.1097 175.223 42.1839C175.601 42.2893 175.992 42.3401 176.384 42.3349C176.847 42.3941 177.317 42.3016 177.723 42.0713C178.129 41.841 178.45 41.4853 178.637 41.0575C179.019 40.0092 179.196 38.8976 179.16 37.7826V13.2557H181.111V37.9335C181.214 39.5428 180.807 41.1438 179.949 42.5091C179.522 43.0229 178.977 43.4254 178.36 43.6823C177.743 43.9392 177.073 44.0427 176.407 43.984Z" fill="black"/>
<path d="M180.147 8.21565C179.713 8.21133 179.297 8.04093 178.985 7.73951C178.821 7.59374 178.69 7.41491 178.6 7.21476C178.51 7.01461 178.463 6.79768 178.463 6.5782C178.45 6.33815 178.49 6.09821 178.581 5.87543C178.671 5.65264 178.809 5.45248 178.985 5.28915C179.331 4.99689 179.769 4.83655 180.222 4.83655C180.675 4.83655 181.113 4.99689 181.459 5.28915C181.635 5.45248 181.774 5.65264 181.864 5.87543C181.954 6.09821 181.995 6.33815 181.982 6.5782C181.979 6.79733 181.932 7.01358 181.842 7.21342C181.752 7.41326 181.621 7.59236 181.459 7.73951C181.118 8.05391 180.669 8.22448 180.205 8.21565H180.147Z" fill="black"/>
<path fill-rule="evenodd" clip-rule="evenodd" d="M119.026 5.48639V34.0662H121.024V21.7912H126.401C129.06 21.9521 131.697 21.2294 133.903 19.7357C134.824 18.9848 135.55 18.0225 136.019 16.9306C136.488 15.8387 136.687 14.6496 136.597 13.4646C136.633 12.1843 136.387 10.9117 135.877 9.73679C135.425 8.7506 134.724 7.8984 133.845 7.2632C132.867 6.58933 131.76 6.12658 130.593 5.90447C129.156 5.61479 127.693 5.47468 126.227 5.48639H119.026ZM125.925 20.1305H121.024V7.18191H125.809C128.079 7.0465 130.344 7.51957 132.37 8.55225C133.833 9.44646 134.553 11.0955 134.553 13.4878C134.646 14.4435 134.501 15.4073 134.13 16.293C133.759 17.1786 133.174 17.9585 132.428 18.5627C131.011 19.6079 128.851 20.1305 125.925 20.1305Z" fill="black"/>
<path d="M50.7648 34.0662V8.65676H42.1943V5.66058H62.9934V8.65676H54.4113V34.0662H50.7648Z" fill="black"/>
<path fill-rule="evenodd" clip-rule="evenodd" d="M73.4453 34.5889C72.0847 34.6006 70.7351 34.3441 69.4736 33.834C68.2667 33.3393 67.1753 32.5999 66.2684 31.6624C65.3208 30.6608 64.5895 29.4749 64.12 28.1785C63.5771 26.6911 63.3133 25.1163 63.3419 23.5332C63.3186 21.9485 63.5903 20.3733 64.1432 18.888C64.6263 17.6034 65.3473 16.4215 66.2684 15.4041C67.1109 14.478 68.1347 13.7349 69.2762 13.2208C70.3705 12.7225 71.5578 12.4613 72.7601 12.4543C73.9876 12.4393 75.205 12.6765 76.337 13.1511C77.3675 13.5941 78.2758 14.2794 78.9848 15.1486C79.7209 16.0767 80.2728 17.1371 80.6106 18.2725C81.0044 19.5946 81.1924 20.9694 81.168 22.3487V23.4519C81.1587 23.7646 81.1198 24.0757 81.0519 24.381H66.8607C66.8827 26.3661 67.6304 28.2745 68.9627 29.7462C69.599 30.4023 70.3663 30.9171 71.2146 31.2572C72.0629 31.5974 72.9733 31.7552 73.8866 31.7205C74.8389 31.723 75.785 31.566 76.6854 31.2559C77.537 30.9561 78.3545 30.5668 79.1241 30.0946L80.3899 32.4172C79.4148 33.021 78.3843 33.5304 77.3125 33.9386C76.0742 34.3908 74.7634 34.6112 73.4453 34.5889ZM78.0906 21.8145H66.8167C66.9169 20.8651 67.1628 19.9368 67.5459 19.0622C67.8702 18.3002 68.3306 17.6036 68.9046 17.0067C69.4227 16.4514 70.0466 16.0053 70.7395 15.6944C71.4206 15.4119 72.1505 15.2659 72.8879 15.2647C73.6129 15.2245 74.3373 15.3549 75.0028 15.6453C75.6684 15.9357 76.2566 16.3781 76.7202 16.937C77.7279 18.3552 78.2122 20.079 78.0906 21.8145Z" fill="black"/>
<path d="M87.6244 33.7643C88.9881 34.3206 90.4485 34.6008 91.9212 34.5888C93.0601 34.6135 94.195 34.4446 95.2774 34.0895C96.1677 33.8 96.9924 33.3384 97.7045 32.7307C98.3328 32.1789 98.8345 31.4979 99.1752 30.7342C99.5159 29.9706 99.6877 29.1423 99.6788 28.3062C99.704 27.4303 99.5041 26.5626 99.0981 25.7861C98.748 25.1158 98.2753 24.5171 97.7045 24.0209C97.0716 23.5415 96.3761 23.1508 95.6374 22.8596L93.3148 21.9538L91.5612 21.2802C91.0376 21.0847 90.5356 20.8356 90.0631 20.537C89.657 20.2894 89.3022 19.9661 89.018 19.5847C88.7594 19.2097 88.6253 18.7628 88.6347 18.3073C88.6338 17.908 88.7159 17.5129 88.8759 17.147C89.0358 16.7812 89.2701 16.4526 89.5638 16.1821C90.385 15.5122 91.4342 15.1875 92.4903 15.2763C93.3721 15.2649 94.2465 15.439 95.0568 15.7873C95.8573 16.1476 96.6134 16.5997 97.3097 17.1344L99.0052 14.8814C98.1308 14.1759 97.1562 13.6045 96.1135 13.1859C93.9711 12.3499 91.608 12.268 89.4128 12.9537C88.5644 13.2167 87.7754 13.6427 87.0902 14.2079C86.4771 14.7275 85.9889 15.3784 85.6618 16.1124C85.33 16.8416 85.1597 17.6339 85.1624 18.435C85.1239 19.2408 85.3003 20.0424 85.6734 20.7577C86.0237 21.4147 86.4877 22.0044 87.0437 22.4996C87.6609 22.9713 88.3361 23.3616 89.0528 23.6609C89.8076 23.9977 90.5625 24.288 91.3057 24.5551L93.0477 25.2403C93.5853 25.4578 94.099 25.7302 94.5806 26.0532C95.0308 26.3292 95.4248 26.6878 95.7419 27.11C96.033 27.5285 96.1835 28.0288 96.1716 28.5384C96.1733 28.9777 96.0809 29.4123 95.9006 29.8129C95.7203 30.2136 95.4563 30.5709 95.1264 30.861C94.2439 31.5552 93.134 31.8948 92.0141 31.8133C90.8532 31.8396 89.7015 31.6013 88.6463 31.1165C87.6472 30.6216 86.7082 30.0138 85.8476 29.3049L84.0708 31.6856C85.1405 32.5583 86.3394 33.2596 87.6244 33.7643Z" fill="black"/>
<path d="M110.352 34.5889C109.381 34.6204 108.414 34.4421 107.518 34.0663C106.786 33.7524 106.144 33.2615 105.648 32.6379C105.149 31.9868 104.8 31.2333 104.626 30.4314C104.422 29.4891 104.32 28.5273 104.324 27.563V15.9499H101.201V13.2092L104.499 12.9885L104.905 7.08909H107.925V12.9885H113.603V15.8918H107.925V27.6094C107.862 28.6611 108.113 29.7078 108.645 30.6172C108.941 30.9954 109.329 31.2919 109.772 31.4788C110.215 31.6657 110.698 31.7369 111.176 31.6856C111.569 31.6705 111.958 31.6121 112.338 31.5114C112.734 31.4095 113.122 31.2775 113.499 31.1166L114.196 33.8108C113.579 34.024 112.951 34.2023 112.314 34.345C111.672 34.5029 111.013 34.5848 110.352 34.5889Z" fill="black"/>
<path d="M142.624 34.0664V13.2557H144.274L144.448 17.1113H144.575C145.202 15.8943 146.067 14.8161 147.119 13.9409C148.064 13.1668 149.254 12.755 150.475 12.7796C150.84 12.778 151.205 12.8052 151.567 12.8609C151.913 12.9333 152.249 13.0504 152.565 13.2093L152.124 14.9512C151.834 14.8198 151.53 14.7224 151.218 14.6609C150.888 14.6128 150.553 14.5934 150.219 14.6028C149.139 14.6567 148.107 15.0648 147.281 15.7641C146.033 16.895 145.086 18.3202 144.529 19.91V34.0664H142.624Z" fill="black"/>
<path fill-rule="evenodd" clip-rule="evenodd" d="M159.963 33.8483C161.087 34.3402 162.301 34.5925 163.528 34.589C164.757 34.592 165.975 34.343 167.104 33.8573C168.241 33.3672 169.262 32.6431 170.101 31.7321C170.997 30.7374 171.691 29.5777 172.145 28.3179C172.672 26.827 172.927 25.2537 172.899 23.6727C172.92 22.0921 172.665 20.52 172.145 19.0274C171.696 17.7443 171.002 16.5609 170.101 15.5435C169.262 14.6325 168.241 13.9084 167.104 13.4183C165.975 12.9326 164.757 12.6836 163.528 12.6867C162.301 12.6832 161.087 12.9354 159.963 13.4273C158.84 13.9192 157.831 14.6399 157.001 15.5435C156.102 16.5606 155.412 17.7443 154.969 19.0274C154.439 20.518 154.18 22.091 154.202 23.6727C154.173 25.2548 154.433 26.8291 154.969 28.3179C155.418 29.5771 156.108 30.7367 157.001 31.7321C157.831 32.6357 158.84 33.3565 159.963 33.8483ZM166.454 32.2315C165.544 32.6772 164.541 32.9039 163.528 32.8934C162.514 32.9061 161.511 32.6793 160.601 32.2315C159.699 31.7764 158.906 31.1305 158.278 30.3386C157.597 29.4709 157.078 28.4874 156.746 27.4353C156.354 26.232 156.162 24.9728 156.177 23.7075C156.162 22.427 156.354 21.1525 156.746 19.9332C157.082 18.876 157.601 17.8856 158.278 17.0067C158.904 16.2064 159.697 15.5524 160.601 15.0906C161.505 14.6483 162.498 14.4179 163.504 14.417C164.523 14.4147 165.529 14.6471 166.443 15.0962C167.357 15.5454 168.156 16.1991 168.777 17.0067C169.458 17.885 169.98 18.8754 170.321 19.9332C170.709 21.1531 170.897 22.4276 170.879 23.7075C170.897 24.9722 170.709 26.2313 170.321 27.4353C169.985 28.4879 169.462 29.4713 168.777 30.3386C168.154 31.1354 167.36 31.7822 166.454 32.2315Z" fill="black"/>
<path fill-rule="evenodd" clip-rule="evenodd" d="M193.223 33.8573C194.412 34.349 195.687 34.5978 196.974 34.5889C198.277 34.6083 199.569 34.3593 200.771 33.8573C201.714 33.448 202.633 32.9866 203.524 32.4753L202.734 31.0004C201.961 31.5782 201.109 32.0399 200.202 32.3708C199.22 32.7094 198.187 32.8783 197.148 32.8701C196.04 32.8812 194.942 32.6514 193.931 32.1966C192.991 31.755 192.155 31.1176 191.481 30.3269C190.775 29.4852 190.239 28.5152 189.902 27.4701C189.516 26.3003 189.312 25.0783 189.298 23.8468H204.255C204.312 23.5874 204.339 23.3225 204.337 23.0571V22.279C204.5 19.7321 203.746 17.211 202.211 15.1718C201.498 14.3385 200.605 13.6785 199.599 13.2419C198.593 12.8052 197.501 12.6034 196.405 12.6517C195.244 12.6502 194.097 12.9081 193.049 13.4066C191.941 13.9275 190.95 14.666 190.134 15.5782C189.239 16.5983 188.549 17.7812 188.102 19.0622C187.57 20.5521 187.31 22.1256 187.335 23.7074C187.311 25.2665 187.57 26.8169 188.102 28.283C188.56 29.5465 189.258 30.7097 190.157 31.7088C191.012 32.6382 192.058 33.3711 193.223 33.8573ZM202.56 22.3603H189.298C189.389 21.2105 189.66 20.0821 190.099 19.0157C190.479 18.0908 191.022 17.2413 191.702 16.5073C192.319 15.8347 193.065 15.2935 193.896 14.9163C194.703 14.5652 195.572 14.3834 196.451 14.3821C197.298 14.3464 198.142 14.5059 198.917 14.8482C199.692 15.1906 200.378 15.7065 200.922 16.3563C202.142 18.1099 202.72 20.2302 202.56 22.3603Z" fill="black"/>
<path d="M217.75 34.5887C216.459 34.6024 215.179 34.3535 213.987 33.8571C212.854 33.3665 211.837 32.6423 211.003 31.7319C210.11 30.7426 209.43 29.5805 209.005 28.3177C208.502 26.8217 208.258 25.2506 208.285 23.6724C208.265 22.089 208.532 20.515 209.075 19.0272C209.528 17.7384 210.234 16.5536 211.154 15.5433C211.999 14.6317 213.026 13.9068 214.168 13.4148C215.31 12.9229 216.542 12.6748 217.785 12.6865C219.031 12.6402 220.269 12.9077 221.385 13.4645C222.294 13.952 223.14 14.5487 223.905 15.2413L222.744 16.5885C222.083 15.9597 221.336 15.4279 220.526 15.0091C219.682 14.5765 218.745 14.3572 217.796 14.3704C216.768 14.3727 215.753 14.6027 214.824 15.0439C213.904 15.5082 213.093 16.1611 212.443 16.9601C211.734 17.831 211.187 18.8222 210.829 19.8866C210.433 21.1051 210.237 22.3796 210.248 23.6608C210.231 24.9245 210.415 26.1828 210.794 27.3886C211.11 28.4426 211.622 29.4275 212.303 30.2919C212.95 31.0935 213.767 31.7403 214.696 32.1848C215.667 32.6354 216.726 32.8616 217.796 32.8468C218.854 32.8592 219.9 32.6246 220.851 32.1616C221.762 31.7355 222.607 31.1801 223.359 30.5125L224.358 31.8597C223.454 32.6446 222.445 33.3011 221.362 33.8107C220.233 34.3414 218.997 34.6075 217.75 34.5887Z" fill="black"/>
<path d="M232.232 34.136C233.03 34.4657 233.889 34.6202 234.752 34.5889C235.277 34.579 235.8 34.5049 236.308 34.3683C236.926 34.2177 237.535 34.0316 238.131 33.8108L237.609 32.2431C237.195 32.4266 236.768 32.578 236.331 32.696C235.902 32.8254 235.456 32.8919 235.007 32.8934C234.402 32.9199 233.798 32.8087 233.242 32.5682C232.813 32.3689 232.448 32.0555 232.185 31.6624C231.916 31.2372 231.73 30.7641 231.639 30.2688C231.537 29.6744 231.486 29.0721 231.488 28.4688V14.9512H237.516V13.2557H231.488V7.22847H229.839L229.584 13.2557L226.286 13.4183V14.9512H229.537V28.3062C229.537 29.1637 229.619 30.0192 229.781 30.8611C229.911 31.5818 230.201 32.2643 230.629 32.8586C231.041 33.4188 231.594 33.8596 232.232 34.136Z" fill="black"/>
<path d="M6.71144 11.0236C6.29076 12.0165 6.07183 13.0831 6.06738 14.1615C6.07029 15.2417 6.28848 16.3106 6.7092 17.3056C7.12993 18.3006 7.74475 19.2017 8.51774 19.9564L15.1349 26.6354C15.1228 26.7091 15.1152 26.7838 15.1123 26.8592C15.0953 27.3114 15.2491 27.7534 15.5432 28.0972C15.8802 28.4305 16.335 28.6175 16.809 28.6175C17.283 28.6175 17.7379 28.4305 18.0749 28.0972C18.4117 27.7598 18.6009 27.3024 18.6009 26.8256C18.6009 26.3488 18.4117 25.8914 18.0749 25.554C17.7297 25.2614 17.287 25.1096 16.8349 25.1288C16.6583 25.1362 16.4853 25.1696 16.321 25.2266L9.76035 18.6557C8.57109 17.4647 7.90312 15.8504 7.90312 14.1673C7.90312 12.4841 8.57109 10.8698 9.76035 9.67881L10.2365 9.20267C11.0444 8.39391 12.0555 7.81814 13.1633 7.53609C14.2711 7.25403 15.4345 7.27613 16.5308 7.60006C16.7649 7.6786 17.0205 7.66094 17.2416 7.55095C17.4627 7.44097 17.631 7.24768 17.7095 7.0136C17.788 6.77952 17.7704 6.52383 17.6604 6.30278C17.5504 6.08172 17.3571 5.91341 17.123 5.83487C15.7092 5.40648 14.2053 5.37148 12.773 5.73364C11.3407 6.0958 10.0342 6.84143 8.99388 7.89039L8.51774 8.37814C7.74615 9.13142 7.13213 10.0307 6.71144 11.0236Z" fill="#EF516F"/>
<path d="M23.9924 13.9833C23.947 13.9962 23.901 14.0072 23.8546 14.0165C23.5053 14.0862 23.1432 14.0508 22.8141 13.9147C22.485 13.7785 22.2037 13.5478 22.0057 13.2517C21.8078 12.9556 21.7021 12.6075 21.7021 12.2513C21.7021 11.8952 21.8078 11.547 22.0057 11.2509C22.2037 10.9548 22.485 10.7241 22.8141 10.588C23.1432 10.4519 23.5053 10.4164 23.8546 10.4861C24.2038 10.5559 24.5246 10.7276 24.7762 10.9797C25.1102 11.3186 25.2975 11.7754 25.2975 12.2513C25.2975 12.3811 25.2835 12.5095 25.2565 12.6344L32.0455 19.434C32.8114 20.1938 33.4185 21.0986 33.8312 22.0955C34.2439 23.0924 34.4541 24.1615 34.4494 25.2405C34.4541 26.3195 34.2439 27.3886 33.8312 28.3855C33.4185 29.3824 32.8114 30.2872 32.0455 31.047L31.5693 31.5232C30.5253 32.5667 29.2192 33.3094 27.7886 33.6732C26.358 34.0369 24.8559 34.0083 23.4402 33.5903C23.2464 33.5295 23.0779 33.4069 22.9604 33.2412C22.843 33.0755 22.783 32.8759 22.7898 32.6729C22.7898 32.4285 22.8861 32.1939 23.0578 32.02C23.2295 31.8461 23.4629 31.7469 23.7073 31.7438C23.796 31.7328 23.8857 31.7328 23.9744 31.7438C25.0706 32.0678 26.234 32.0899 27.3418 31.8078C28.4496 31.5257 29.4608 30.95 30.2687 30.1412L30.7448 29.6651C31.3366 29.0757 31.8064 28.3753 32.1272 27.6042C32.448 26.833 32.6136 26.0061 32.6145 25.1708C32.5945 23.5138 31.9277 21.9302 30.7564 20.7579L23.9924 13.9833Z" fill="#F8A266"/>
<path d="M27.4394 24.9398C27.8916 24.9569 28.3336 24.8031 28.6774 24.5089C29.0107 24.172 29.1977 23.7171 29.1977 23.2431C29.1977 22.7691 29.0107 22.3143 28.6774 21.9773C28.5111 21.8091 28.3131 21.6756 28.0948 21.5845C27.8765 21.4933 27.6423 21.4464 27.4058 21.4464C27.1693 21.4464 26.9351 21.4933 26.7168 21.5845C26.4985 21.6756 26.3005 21.8091 26.1342 21.9773C25.8416 22.3225 25.6898 22.7652 25.709 23.2172C25.7147 23.3535 25.7359 23.4876 25.7715 23.6172L19.0152 30.3735C18.4262 30.9637 17.7266 31.432 16.9564 31.7515C16.1862 32.071 15.3606 32.2355 14.5267 32.2355C13.6929 32.2355 12.8673 32.071 12.0971 31.7515C11.3269 31.432 10.6273 30.9637 10.0383 30.3735L9.56215 29.8973C8.75339 29.0894 8.17763 28.0783 7.89557 26.9705C7.61351 25.8627 7.63561 24.6993 7.95954 23.603C8.02884 23.369 8.00232 23.1169 7.8858 22.9024C7.76929 22.6879 7.57232 22.5284 7.33824 22.4592C7.10417 22.3899 6.85214 22.4164 6.63762 22.5329C6.4231 22.6494 6.26365 22.8464 6.19435 23.0805C5.97601 23.8352 5.86651 24.6173 5.86919 25.4031C5.86691 27.5789 6.72717 29.6669 8.26148 31.2096L8.7144 31.6741C9.47606 32.4382 10.381 33.0444 11.3774 33.4581C12.3738 33.8717 13.4421 34.0846 14.5209 34.0846C15.5998 34.0846 16.668 33.8717 17.6644 33.4581C18.6608 33.0444 19.5658 32.4382 20.3275 31.6741L27.1059 24.8958C27.2147 24.9207 27.3264 24.9355 27.4394 24.9398Z" fill="#923B95"/>
<path d="M15.0719 15.4099C15.1053 15.5476 15.1225 15.6898 15.1225 15.8338C15.1225 16.3078 14.9356 16.7627 14.6022 17.0997C14.3513 17.3534 14.0306 17.5268 13.6809 17.5978C13.3312 17.6689 12.9683 17.6344 12.6382 17.4987C12.3081 17.3631 12.0259 17.1324 11.8272 16.8359C11.6285 16.5395 11.5225 16.1907 11.5225 15.8338C11.5225 15.477 11.6285 15.1282 11.8272 14.8317C12.0259 14.5353 12.3081 14.3046 12.6382 14.1689C12.9683 14.0333 13.3312 13.9988 13.6809 14.0698C13.7144 14.0767 13.7476 14.0844 13.7806 14.0931L20.1292 7.70474C20.8917 6.94206 21.7969 6.33706 22.7932 5.92429C23.7895 5.51152 24.8573 5.29907 25.9358 5.29907C27.0142 5.29907 28.082 5.51152 29.0783 5.92429C30.0746 6.33706 30.9799 6.94206 31.7423 7.70474L32.2184 8.19248C33.2694 9.23158 34.0172 10.5375 34.3814 11.9699C34.7457 13.4022 34.7125 14.9067 34.2856 16.3216C34.2528 16.4383 34.1973 16.5474 34.1224 16.6426C34.0475 16.7379 33.9545 16.8174 33.8488 16.8767C33.7431 16.936 33.6268 16.9739 33.5065 16.9883C33.3861 17.0026 33.2642 16.9932 33.1475 16.9604C33.0308 16.9276 32.9218 16.8721 32.8265 16.7972C32.7313 16.7223 32.6517 16.6293 32.5924 16.5236C32.5331 16.4179 32.4952 16.3016 32.4808 16.1813C32.4665 16.0609 32.476 15.939 32.5088 15.8223C32.8424 14.7231 32.8717 13.554 32.5935 12.4395C32.3154 11.325 31.7403 10.3067 30.9294 9.49315L30.4533 9.0054C29.2622 7.81614 27.6479 7.14817 25.9648 7.14817C24.2817 7.14817 22.6674 7.81614 21.4763 9.0054L15.0719 15.4099Z" fill="#05A2D8"/>
<path d="M180.17 4C179.711 4 179.262 4.13622 178.88 4.39143C178.498 4.64664 178.2 5.00939 178.024 5.43379C177.849 5.85819 177.803 6.32519 177.892 6.77574C177.982 7.22628 178.203 7.64013 178.528 7.96496C178.853 8.28978 179.267 8.51099 179.717 8.60061C180.168 8.69023 180.635 8.64423 181.059 8.46844C181.483 8.29264 181.846 7.99495 182.101 7.613C182.357 7.23104 182.493 6.78199 182.493 6.32262C182.493 5.70662 182.248 5.11585 181.813 4.68028C181.377 4.2447 180.786 4 180.17 4Z" fill="#F99C5B"/>
</svg>
