<svg width="192" height="48" viewBox="0 0 192 48" fill="none" xmlns="http://www.w3.org/2000/svg">
<path d="M121.998 31.6847C118.289 31.6847 116.384 28.6307 116.384 24.8796C116.384 21.1287 118.255 18.2407 121.998 18.2407C125.807 18.2407 127.612 21.2614 127.612 24.8796C127.579 28.6971 125.674 31.6847 121.998 31.6847ZM85.7067 18.2407C87.8784 18.2407 88.7809 19.5021 88.7809 20.5975C88.7809 23.2531 86.074 24.4149 80.4268 24.5809C80.4268 21.2946 82.298 18.2407 85.7067 18.2407ZM61.6459 31.6847C58.1371 31.6847 56.6667 28.8299 56.6667 24.8796C56.6667 20.9627 58.1705 18.2407 61.6459 18.2407C65.1882 18.2407 66.8591 21.0623 66.8591 24.8796C66.8591 28.8631 65.1214 31.6847 61.6459 31.6847ZM31.9713 14.3569H26.4908L35.5803 35.2033C33.8427 39.054 32.907 40.0166 31.7039 40.0166C30.4341 40.0166 29.231 38.9876 28.3622 38.0913L25.9561 41.278C27.5936 43.0041 29.8326 44 32.1384 44C35.0123 44 37.2178 42.3402 38.4877 39.3527L48.9808 14.3236H43.6006L38.1201 29.2614L31.9713 14.3569ZM177.137 18.2407C179.81 18.2407 180.345 20.0664 180.345 24.3486V35.6017H185.09V21.3942C185.09 16.2822 181.581 14.0581 178.339 14.0581C175.466 14.0581 172.826 15.8506 171.355 19.1701C170.52 15.9834 167.846 14.0581 164.739 14.0581C162.032 14.0581 159.325 15.7842 157.855 19.0041V14.3569H153.11V35.5684H157.855V26.5063C157.855 21.9253 160.261 18.2407 163.536 18.2407C166.209 18.2407 166.71 20.0664 166.71 24.3486V35.6017H171.456L171.422 26.5063C171.422 21.9253 173.862 18.2407 177.137 18.2407ZM139.272 14.3569H136.869V35.5684H141.614V27.4357C141.614 22.2905 143.886 18.8049 147.262 18.8049C148.13 18.8049 148.865 18.8382 149.667 19.1701L150.403 14.1577C149.801 14.0913 149.267 14.0249 148.731 14.0249C145.39 14.0249 142.984 16.3153 141.58 19.2697V14.3569H139.272ZM121.998 14.0249C115.715 14.0249 111.471 18.8049 111.471 24.8465C111.471 31.1204 115.782 35.8008 121.998 35.8008C128.314 35.8008 132.625 30.9876 132.625 24.8465C132.591 18.7718 128.214 14.0249 121.998 14.0249ZM85.9737 31.6847C83.5009 31.6847 81.6631 30.4233 80.8944 27.8672C87.1766 27.6017 93.3257 26.0747 93.3257 20.5311C93.3257 17.3444 90.1846 14.0581 85.6733 14.0581C79.5911 14.0581 75.4808 19.0041 75.4808 24.8796C75.4808 31.0207 79.5243 35.834 85.5729 35.834C89.7831 35.834 92.4566 34.1411 94.562 31.6847L92.2566 28.5643C89.8166 31.054 88.3133 31.6847 85.9737 31.6847ZM62.5817 14.0249C60.1756 14.0249 57.7696 15.4191 56.8339 17.61V14.3569H52.0886V43.9004H56.8339V33.3444C57.8364 34.8713 60.1422 35.8672 62.1806 35.8672C68.4966 35.8672 71.8383 31.1867 71.8383 24.8796C71.8049 18.639 68.53 14.0249 62.5817 14.0249ZM29.2979 5.85892H6.9082V10.473H15.6635V35.5684H20.6427V10.473H29.2979V5.85892ZM99.842 14.3569H97.0013V18.6058H99.842V35.5684H104.587V18.6058H109.199V14.3569H104.587V11.0373C104.587 8.91287 105.457 8.18257 107.428 8.18257C108.163 8.18257 108.831 8.38175 109.734 8.68049L110.803 4.6971C109.934 4.19917 108.196 4 107.06 4C102.515 4 99.842 6.72199 99.842 11.4357V14.3569Z" fill="#262627"/>
</svg>
