<svg width="176" height="48" viewBox="0 0 176 48" fill="none" xmlns="http://www.w3.org/2000/svg">
<path d="M12.739 22.0321C13.3415 18.0562 14.8274 15.245 17.7591 12.755V25.6064C17.7591 25.7671 17.7993 25.9277 17.7993 25.9277L17.719 25.9679C17.719 25.9679 17.6788 25.7671 17.6386 25.6466C17.0764 23.6385 15.3093 22.1124 12.739 22.0321Z" fill="#0065A4"/>
<path d="M23.4749 9.62957C23.6781 9.55868 23.9557 9.46183 24.1848 9.46183C24.8274 9.46183 25.8314 9.78311 25.7913 12.0723C25.7913 14.3213 24.988 16.6104 23.221 18.5783V9.70279C23.2651 9.70279 23.3576 9.67051 23.4749 9.62957Z" fill="#0065A4"/>
<path d="M23.9037 20.3856C23.7431 20.5864 23.5423 20.747 23.3013 20.9077V38.1767C23.984 38.498 24.6668 38.6587 25.4298 38.6587C27.1969 38.6587 28.8836 36.3695 28.8836 31.3896C28.8836 26.8113 27.2772 22.6346 23.9037 20.3856Z" fill="#0065A4"/>
<path fill-rule="evenodd" clip-rule="evenodd" d="M7.31738 24C7.31738 12.996 16.2732 4 27.3174 4C38.3214 4 47.2772 12.996 47.3174 24C47.3174 35.0442 38.3214 44 27.3174 44C16.2732 44 7.31738 35.004 7.31738 24ZM31.0122 7.85542C30.2893 7.65462 29.2049 7.49398 28.2411 7.45381C28.2411 7.45381 28.723 7.93574 28.7632 9.3012V17.2932C28.7632 18.2972 28.6025 19.2209 28.2411 19.9438C29.2853 20.3855 30.2893 21.3092 30.8917 22.6747C30.9148 22.6516 30.9246 22.6418 30.9364 22.6376C30.9451 22.6345 30.9549 22.6345 30.972 22.6345C30.8917 22.4337 30.6507 20.8273 30.6507 18.8193V9.54217C30.6507 8.53815 30.8515 8.09639 31.0122 7.85542ZM17.7993 32.2329C17.7993 34.3614 17.5985 35.6868 16.8355 36.8514C17.719 37.6145 18.8435 38.3775 20.0081 38.8996C20.0081 38.8996 19.6869 37.0924 19.6869 34.6024V11.0281C19.6869 9.94378 19.968 9.1004 19.968 9.1004C14.466 11.8715 10.6909 17.4137 10.6909 24C10.6909 28.3374 12.4579 32.6747 15.4298 35.6466V31.5502C15.2692 31.6305 15.0282 31.5502 14.8676 31.4297C13.7029 30.747 12.4579 26.4096 12.6587 23.6787C15.8716 24.2008 17.7993 27.7751 17.7993 32.2329ZM20.8917 39.3012C22.2571 39.8635 23.7431 40.4659 25.3094 40.4659C28.2411 40.4659 31.0523 37.7751 31.0122 31.4297C31.0122 24.5221 27.8395 20.7068 25.2692 18.8996C26.233 17.6948 27.7591 15.245 27.7591 12.2731C27.7591 8.65863 26.0724 7.5743 24.3455 7.65462C23.2435 7.73062 22.1774 8.16621 21.1472 8.5871C21.0887 8.61102 21.0303 8.63488 20.972 8.65863C20.972 8.65863 21.3334 8.93976 21.3334 10.0643V37.1727C21.3334 38.2972 20.8917 39.3012 20.8917 39.3012ZM38.5624 31.992V36.3293C41.8154 33.3173 43.8636 28.8193 43.8234 24.0402C43.8234 19.3012 41.9359 15.0843 38.723 12.0723C38.723 12.0723 37.478 18.4578 37.4379 18.6586C37.3977 18.8594 37.3977 18.9799 37.3977 18.9799H37.3174C37.3174 18.9799 37.3174 18.8594 37.2772 18.6586C37.2371 18.4578 34.9881 9.38153 34.9881 9.38153C34.0644 8.93976 32.9399 8.41767 31.9359 8.13655C31.9359 8.13655 32.217 8.49799 32.217 9.42169V35.4056C32.217 38.257 31.2531 40.2249 31.2531 40.2249C32.6186 39.8635 33.8636 39.4217 35.0684 38.8193C35.0684 38.8193 34.1447 37.1325 34.1447 34V14.1606C34.1447 14.0402 34.1045 13.759 34.1045 13.759L34.1849 13.7189L37.5182 26.7309C37.5182 26.7309 39.6467 17.0924 39.8073 16.4096C40.6909 17.5341 41.7752 20.1847 41.7752 24.4016C41.7752 27.9759 40.6106 30.747 39.5262 31.7912C39.2451 32.0723 38.723 32.2329 38.5624 31.992Z" fill="#0065A4"/>
<path fill-rule="evenodd" clip-rule="evenodd" d="M143.02 28.0963C142.86 27.775 142.779 27.3734 142.779 27.012C142.217 27.775 141.615 28.0963 140.731 28.0963C139.085 28.0963 137.96 26.6907 137.96 24.8835C137.96 23.1164 139.085 21.51 140.731 21.51C141.454 21.51 142.137 21.7911 142.578 22.3935V20.1043C142.578 19.2208 142.538 18.779 141.615 18.7389V18.4578L143.703 17.9758V25.2851C143.703 25.6867 143.703 26.4096 143.823 26.771C143.973 27.258 144.298 27.2558 144.667 27.2533C144.693 27.2531 144.72 27.2529 144.747 27.2529V27.5341L143.02 28.0963ZM142.578 23.4778C142.578 22.5541 141.775 21.9919 141.012 21.9919C139.607 21.9919 139.245 23.6385 139.245 24.8835C139.245 26.1686 139.607 27.6947 141.012 27.6947C142.177 27.6947 142.578 26.6505 142.578 25.526V23.4778Z" fill="#231F20"/>
<path fill-rule="evenodd" clip-rule="evenodd" d="M53.7713 25.1603C53.8209 25.0287 53.8665 24.9076 53.9038 24.8031L53.9842 24.4015H57.197L57.7191 25.8875C57.7392 25.9678 57.7643 26.0557 57.7906 26.1479C57.8697 26.4246 57.9601 26.7409 57.9601 27.012C57.9601 27.5742 57.3175 27.5742 56.956 27.5742V27.8955C57.2773 27.8955 57.5886 27.8855 57.8998 27.8754C58.2111 27.8654 58.5223 27.8553 58.8436 27.8553C59.1448 27.8553 59.456 27.8654 59.7673 27.8754C60.0785 27.8855 60.3898 27.8955 60.691 27.8955V27.5742C60.2492 27.5341 59.8476 27.4537 59.5665 27.0521C59.4043 26.8088 59.2239 26.329 59.0743 25.931C59.0017 25.7378 58.9363 25.5638 58.8838 25.4457L56.2733 18.0963H55.8315L53.8235 23.759L52.7392 26.53C52.4982 27.2529 52.1769 27.4939 51.4942 27.5742V27.8955C51.7404 27.8955 51.9761 27.885 52.2067 27.8748H52.2069C52.4276 27.865 52.6437 27.8553 52.8597 27.8553C53.1006 27.8553 53.3416 27.8654 53.5825 27.8754C53.8235 27.8855 54.0645 27.8955 54.3054 27.8955V27.5742C54.2583 27.569 54.2057 27.5651 54.1498 27.561C53.7775 27.5336 53.2613 27.4956 53.2613 26.9718C53.2613 26.5141 53.5541 25.7368 53.7713 25.1603ZM55.6307 19.9035L57.0364 23.9999H54.185L55.6307 19.9035Z" fill="#231F20"/>
<path d="M62.8146 26.5485C62.8169 26.4434 62.8195 26.3302 62.8195 26.2087H62.8596V24.4818C62.8596 23.9597 62.8596 23.3975 63.0203 22.9959C63.2211 22.4336 63.7432 22.032 64.2653 22.032C65.4908 22.032 65.48 23.2684 65.4715 24.2485V24.2501C65.4708 24.3293 65.4701 24.4068 65.4701 24.4818V26.2891C65.4701 26.3614 65.4705 26.43 65.471 26.4953C65.4763 27.2998 65.4781 27.5802 64.5866 27.6545V27.9356C64.8528 27.9356 65.1086 27.9252 65.3593 27.915C65.6002 27.9051 65.8364 27.8955 66.0725 27.8955C66.2886 27.8955 66.5142 27.9051 66.7448 27.9149C66.9857 27.9252 67.2319 27.9356 67.4781 27.9356V27.6545C66.6028 27.6209 66.6024 27.305 66.6014 26.6359V26.6348C66.6013 26.506 66.6011 26.3642 66.5946 26.2087V24.4818C66.5946 23.9597 66.5946 23.3975 66.7552 22.9959C66.956 22.4336 67.4781 22.032 68.0002 22.032C69.2258 22.032 69.215 23.2684 69.2064 24.2485C69.2057 24.3282 69.205 24.4063 69.205 24.4818V26.2891C69.205 26.3614 69.2055 26.43 69.2059 26.4953C69.2112 27.2998 69.213 27.5802 68.3215 27.6545V27.9356C68.5625 27.9356 68.8034 27.9256 69.0444 27.9156C69.2853 27.9055 69.5263 27.8955 69.7673 27.8955C70.0082 27.8955 70.2492 27.9055 70.4902 27.9156C70.7311 27.9256 70.9721 27.9356 71.2131 27.9356V27.6545C70.3118 27.6185 70.3166 27.2588 70.3271 26.4883C70.3283 26.4005 70.3295 26.3074 70.3295 26.2087V24.1605C70.3295 23.5581 70.3295 22.7148 69.9681 22.2328C69.6066 21.7107 69.0042 21.5501 68.442 21.5501C67.6388 21.5501 66.9159 21.9517 66.4741 22.7148C66.2331 21.8714 65.4701 21.5501 64.707 21.5501C63.8637 21.5501 63.2211 21.9919 62.7392 22.7148L62.5785 21.5501C62.3003 21.6023 62.0522 21.677 61.8048 21.7516C61.4809 21.8491 61.1584 21.9463 60.7713 21.9919V22.273C60.8013 22.273 60.8308 22.2728 60.8597 22.2726C61.2558 22.2701 61.5425 22.2683 61.6548 22.7549C61.7351 23.1164 61.7351 24.1203 61.7351 24.522V26.2891C61.7351 26.3271 61.7352 26.3641 61.7353 26.4002C61.7368 27.2779 61.7373 27.5774 60.8115 27.6545V27.9356C61.0524 27.9356 61.3034 27.9256 61.5544 27.9156C61.8054 27.9055 62.0564 27.8955 62.2974 27.8955C62.5383 27.8955 62.7693 27.9055 63.0002 27.9156C63.2311 27.9256 63.4621 27.9356 63.703 27.9356V27.6545C62.7904 27.6194 62.7981 27.2775 62.8146 26.5485Z" fill="#231F20"/>
<path fill-rule="evenodd" clip-rule="evenodd" d="M77.3978 26.8915C76.7954 27.7348 76.0725 28.1364 75.0685 28.1364C73.4621 28.1364 72.1368 26.8915 72.1368 25.0441C72.1368 23.2368 73.3817 21.5903 75.0685 21.5903C76.3536 21.5903 77.5584 22.3935 77.5584 23.9597C77.5584 24.1173 77.4348 24.1018 77.3234 24.0878C77.2928 24.0839 77.2631 24.0802 77.2372 24.0802H73.5022L73.4621 24.7629C73.4621 26.1284 74.1046 27.6545 75.5102 27.6545C76.193 27.6545 76.7552 27.1726 77.1568 26.5702L77.3978 26.8915ZM75.7111 23.6385C75.7393 23.6385 75.7722 23.64 75.8081 23.6418C76.0273 23.6523 76.3536 23.668 76.3536 23.3573C76.3536 22.4738 75.9119 21.8714 75.1086 21.8714C74.1448 21.8714 73.7432 22.7148 73.5825 23.6385H75.7111Z" fill="#231F20"/>
<path d="M79.4059 22.7549C79.4862 23.1164 79.4862 24.1204 79.4862 24.522H79.6067L79.6068 26.4002C79.6083 27.2779 79.6088 27.5774 78.683 27.6545V27.9356C78.944 27.9356 79.195 27.9256 79.446 27.9156C79.697 27.9055 79.948 27.8955 80.2091 27.8955C80.45 27.8955 80.701 27.9055 80.952 27.9156C81.203 27.9256 81.4541 27.9356 81.695 27.9356V27.6545C80.6759 27.6181 80.6793 27.3178 80.6889 26.4846V26.4829C80.6899 26.3972 80.691 26.3059 80.691 26.2087V24.7629C80.691 24.0802 80.691 23.3975 80.9721 22.7951C81.1729 22.4336 81.5745 22.0722 81.9761 22.0722C82.2078 22.0722 82.3003 22.2485 82.3963 22.4317C82.5 22.6295 82.6079 22.8352 82.8998 22.8352C83.1408 22.8352 83.3416 22.5943 83.3416 22.3132C83.3416 21.7509 82.8195 21.5501 82.4179 21.5501C81.5344 21.5501 80.8516 22.1123 80.5304 22.9959H80.4902C80.4902 22.4738 80.45 21.9517 80.3296 21.5501C80.085 21.599 79.8471 21.6744 79.6104 21.7494C79.264 21.8591 78.9203 21.968 78.5625 21.9919V22.273C78.5896 22.273 78.6164 22.2728 78.6428 22.2726C79.0066 22.2701 79.2935 22.2682 79.4059 22.7549Z" fill="#231F20"/>
<path d="M85.7111 21.5501V26.2088C85.7166 26.3416 85.7183 26.4645 85.7199 26.5777C85.7298 27.2867 85.7345 27.6199 86.6348 27.6545V27.9357C86.4187 27.9357 86.193 27.9261 85.9624 27.9162C85.7215 27.906 85.4753 27.8955 85.2291 27.8955C84.9681 27.8955 84.7171 27.9056 84.4661 27.9156C84.2151 27.9256 83.9641 27.9357 83.703 27.9357V27.6545C84.5946 27.5802 84.5927 27.2998 84.5874 26.4953C84.587 26.4301 84.5866 26.3614 84.5866 26.2891V24.2409C84.5866 23.9598 84.5866 22.8353 84.5464 22.6345C84.4728 22.3033 83.9946 22.3093 83.7296 22.3126C83.7054 22.3129 83.683 22.3132 83.6629 22.3132V22.0321L85.7111 21.5501Z" fill="#231F20"/>
<path d="M84.3054 18.9798C84.3054 18.5381 84.6267 18.2168 85.0283 18.2168C85.4299 18.2168 85.7111 18.5782 85.7111 18.9798C85.7111 19.3815 85.4299 19.7429 85.0283 19.7429C84.6267 19.7429 84.3054 19.4216 84.3054 18.9798Z" fill="#231F20"/>
<path d="M90.2893 28.1364C91.1327 28.1364 92.0163 27.775 92.5785 27.0119L92.2974 26.7308C91.8556 27.2931 91.2934 27.6545 90.6508 27.6545C89.1648 27.6545 88.7632 26.2087 88.7632 24.8031C88.7632 23.5581 89.205 21.9517 90.6106 21.9517C91.0926 21.9517 91.1729 22.0722 91.3335 22.514C91.4138 22.7951 91.5745 23.0762 91.8958 23.0762C92.1367 23.0762 92.3375 22.7951 92.3375 22.5541C92.3375 21.7509 91.1729 21.5903 90.6508 21.5903C88.8436 21.5903 87.4781 23.0762 87.4781 25.0842C87.4781 26.8513 88.6829 28.1364 90.2893 28.1364Z" fill="#231F20"/>
<path fill-rule="evenodd" clip-rule="evenodd" d="M96.7552 23.9999C96.8757 23.9196 96.8757 23.7589 96.8757 23.5983C96.8757 22.6344 96.7953 21.9115 95.711 21.9115C95.0684 21.9115 94.5464 21.9517 94.5062 22.7549C94.466 23.0762 94.3054 23.3975 93.9841 23.3975C93.703 23.3975 93.5022 23.1967 93.5022 22.8754C93.5022 21.7911 95.2291 21.5903 95.9118 21.5903C97.3576 21.5903 98.0002 21.9919 98.0002 23.6786V26.0481C98.0002 26.0599 98.0001 26.0725 98.0001 26.0858L97.9998 26.1267C97.9972 26.5451 97.9911 27.4939 98.4419 27.4939C98.6829 27.4939 98.8435 27.2529 98.964 27.0119L99.205 27.1726C99.0042 27.6545 98.5223 28.1364 98.0403 28.1364C97.5182 28.1364 97.0363 27.6947 96.9158 27.0923C96.3134 27.6545 95.5504 28.1364 94.7472 28.1364C94.0644 28.1364 93.3817 27.6545 93.3817 26.8513C93.3817 25.7507 94.4206 25.2198 95.2432 24.7995C95.3211 24.7597 95.3971 24.7208 95.47 24.6826L96.7552 23.9999ZM96.8757 24.3613C96.778 24.4127 96.6685 24.4668 96.5518 24.5244C95.7566 24.9168 94.6267 25.4743 94.6267 26.4899C94.6267 27.0119 94.9078 27.534 95.47 27.534C95.9921 27.534 96.5544 27.0923 96.9158 26.6907V24.3613H96.8757Z" fill="#231F20"/>
<path d="M105.628 26.4796C105.63 26.3943 105.631 26.3041 105.631 26.2087H105.671V23.5581C105.671 22.1525 104.988 21.5501 103.743 21.5501C102.819 21.5501 102.097 21.9919 101.655 22.8754H101.615L101.454 21.5501C101.176 21.6023 100.928 21.677 100.68 21.7516C100.356 21.8491 100.034 21.9463 99.6468 21.9919V22.273C99.6768 22.273 99.7063 22.2728 99.7352 22.2726C100.131 22.2701 100.418 22.2683 100.53 22.7549C100.611 23.1164 100.611 24.1204 100.611 24.522L100.611 26.3289L100.611 26.4002C100.612 27.2779 100.613 27.5774 99.6869 27.6545V27.9356C99.948 27.9356 100.199 27.9256 100.45 27.9156C100.701 27.9055 100.952 27.8955 101.213 27.8955C101.429 27.8955 101.655 27.9051 101.885 27.9149C102.126 27.9252 102.372 27.9356 102.619 27.9356V27.6545C101.678 27.6183 101.683 27.2561 101.693 26.4796C101.694 26.3943 101.695 26.3041 101.695 26.2087V23.9597C101.695 22.9156 102.338 22.032 103.342 22.032C104.549 22.032 104.548 23.3546 104.546 24.3503C104.546 24.3811 104.546 24.4116 104.546 24.4417V26.2891C104.546 26.3251 104.546 26.3602 104.546 26.3944L104.546 26.4002C104.548 27.2779 104.548 27.5774 103.623 27.6545V27.9356C103.884 27.9356 104.135 27.9256 104.386 27.9156C104.637 27.9055 104.888 27.8955 105.149 27.8955C105.365 27.8955 105.591 27.9051 105.821 27.9149C106.062 27.9252 106.308 27.9356 106.554 27.9356V27.6545C105.614 27.6183 105.618 27.2561 105.628 26.4796Z" fill="#231F20"/>
<path fill-rule="evenodd" clip-rule="evenodd" d="M111.976 21.1083C111.976 20.6263 111.976 19.5822 111.856 19.1806C111.706 18.6931 111.24 18.6959 110.82 18.6984C110.79 18.6985 110.76 18.6987 110.731 18.6987V18.3774C111.058 18.3774 111.374 18.3878 111.685 18.398C111.986 18.4079 112.282 18.4176 112.579 18.4176C112.84 18.4176 113.101 18.4076 113.362 18.3975C113.623 18.3875 113.884 18.3774 114.145 18.3774C115.51 18.3373 117.358 18.7389 117.358 20.6666C117.358 21.9919 116.394 22.5541 115.39 22.8754V22.9156C116.113 22.9959 116.795 23.1164 117.277 23.518C117.88 23.9999 118.281 24.6827 118.281 25.526C118.281 26.4899 117.759 27.1726 117.036 27.6144C116.41 27.9831 115.546 27.9794 114.818 27.9764C114.753 27.9761 114.689 27.9758 114.627 27.9758C114.346 27.9758 114.064 27.9658 113.783 27.9557C113.502 27.9457 113.221 27.9357 112.94 27.9357C112.579 27.9357 112.207 27.9457 111.836 27.9557C111.464 27.9658 111.093 27.9758 110.731 27.9758V27.6545C111.133 27.6545 111.695 27.6545 111.856 27.1726C111.976 26.771 111.976 25.7269 111.976 25.245V21.1083ZM113.342 22.7148H113.703C113.755 22.7148 113.806 22.7151 113.856 22.7155C114.354 22.7188 114.795 22.7217 115.269 22.3935C115.832 21.9919 115.952 21.3895 115.952 20.7068C115.952 19.4216 115.309 18.779 114.185 18.779C114.158 18.779 114.122 18.7779 114.079 18.7766C113.863 18.7701 113.489 18.7588 113.422 18.8594C113.342 18.9397 113.342 19.3413 113.342 19.4618V22.7148ZM113.301 25.1245C113.301 25.6064 113.301 26.5301 113.462 26.9317C113.703 27.5341 114.346 27.5341 114.828 27.5341C116.113 27.5341 116.675 26.6907 116.675 25.3252C116.675 24.4819 116.434 23.7991 115.751 23.3975C115.203 23.0687 114.522 23.0723 113.89 23.0756C113.827 23.0759 113.765 23.0762 113.703 23.0762H113.301V25.1245Z" fill="#231F20"/>
<path fill-rule="evenodd" clip-rule="evenodd" d="M122.378 28.0963C124.064 28.0963 125.51 26.771 125.51 24.8031C125.51 22.9557 123.984 21.5501 122.378 21.5099C120.771 21.5099 119.245 22.8754 119.245 24.7228C119.245 26.6505 120.691 28.0963 122.378 28.0963ZM122.418 27.775C120.892 27.775 120.53 26.1686 120.53 24.8031C120.53 23.5581 120.892 21.9115 122.297 21.8714C123.823 21.8714 124.185 23.4778 124.185 24.8834C124.185 26.1686 123.823 27.775 122.418 27.775Z" fill="#231F20"/>
<path fill-rule="evenodd" clip-rule="evenodd" d="M129.807 23.9999C129.928 23.9196 129.928 23.7589 129.928 23.5983C129.928 22.6344 129.848 21.9115 128.763 21.9115C128.121 21.9115 127.599 21.9517 127.558 22.7549C127.518 23.0762 127.358 23.3975 127.036 23.3975C126.755 23.3975 126.554 23.1967 126.554 22.8754C126.554 21.7911 128.281 21.5903 128.964 21.5903C130.41 21.5903 131.052 21.9919 131.052 23.6786V26.0481C131.052 26.0635 131.052 26.0801 131.052 26.098L131.052 26.1267C131.049 26.5451 131.043 27.4939 131.494 27.4939C131.735 27.4939 131.896 27.2529 132.016 27.0119L132.257 27.1726C132.056 27.6545 131.574 28.1364 131.093 28.1364C130.57 28.1364 130.089 27.6947 129.968 27.0923C129.366 27.6545 128.603 28.1364 127.799 28.1364C127.117 28.1364 126.434 27.6545 126.434 26.8513C126.434 25.7507 127.473 25.2198 128.295 24.7995C128.373 24.7597 128.449 24.7208 128.522 24.6826L129.807 23.9999ZM129.928 24.3613C129.83 24.4127 129.721 24.4668 129.604 24.5244C128.809 24.9168 127.679 25.4743 127.679 26.4899C127.679 27.0119 127.96 27.534 128.522 27.534C129.044 27.534 129.607 27.0923 129.968 26.6907V24.3613H129.928Z" fill="#231F20"/>
<path d="M133.542 22.7549C133.623 23.1164 133.623 24.1204 133.623 24.522H133.743L133.743 26.3292L133.743 26.4002C133.745 27.2779 133.745 27.5774 132.819 27.6545V27.9356C133.081 27.9356 133.331 27.9256 133.582 27.9156C133.833 27.9055 134.085 27.8955 134.346 27.8955C134.587 27.8955 134.838 27.9055 135.089 27.9156C135.34 27.9256 135.591 27.9356 135.832 27.9356V27.6545C134.812 27.6181 134.816 27.3178 134.825 26.4846C134.826 26.3984 134.828 26.3066 134.828 26.2087V24.7629C134.828 24.0802 134.828 23.3975 135.109 22.7951C135.309 22.4336 135.711 22.0722 136.113 22.0722C136.344 22.0722 136.437 22.2485 136.533 22.4317C136.637 22.6295 136.744 22.8352 137.036 22.8352C137.277 22.8352 137.478 22.5943 137.478 22.3132C137.478 21.7509 136.956 21.5501 136.554 21.5501C135.671 21.5501 134.988 22.1123 134.667 22.9959H134.627C134.627 22.4738 134.587 21.9517 134.466 21.5501C134.222 21.599 133.984 21.6744 133.747 21.7494C133.401 21.8591 133.057 21.968 132.699 21.9919V22.273C132.726 22.273 132.753 22.2728 132.779 22.2726C133.143 22.2701 133.43 22.2682 133.542 22.7549Z" fill="#231F20"/>
<path fill-rule="evenodd" clip-rule="evenodd" d="M51.0524 41.3493C52.7392 41.3493 54.185 40.024 54.185 38.0561C54.185 36.2087 52.6589 34.8031 51.0524 34.763C49.446 34.763 47.9199 36.1284 47.9199 37.9758C47.9199 39.9035 49.3657 41.3493 51.0524 41.3493ZM51.1328 41.028C49.6067 41.028 49.2452 39.4216 49.2452 38.0561C49.2452 36.8112 49.5665 35.1646 51.0123 35.1244C52.5384 35.1244 52.8998 36.7308 52.8998 38.1365C52.8998 39.4216 52.5384 41.028 51.1328 41.028Z" fill="#231F20"/>
<path d="M54.9079 35.6465V35.2449H55.952V34.4819C55.952 32.6345 56.5544 31.4698 58.3617 31.4698C58.8436 31.4698 59.9681 31.6305 59.9681 32.3935C59.9681 32.6345 59.7271 32.8754 59.5263 32.8754C59.2854 32.8754 59.1649 32.6746 59.0846 32.4738C58.9239 32.0722 58.8034 31.8313 58.3215 31.8313C57.8396 31.8313 57.4781 31.9919 57.2773 32.514C57.0765 33.0361 57.0765 33.7188 57.0765 34.2811V35.2851H58.683V35.6867H57.0765V39.5019C57.0765 39.8634 57.1167 40.2248 57.197 40.3855C57.3773 40.9264 57.9138 40.9169 58.3412 40.9093C58.3898 40.9084 58.437 40.9076 58.4822 40.9076V41.1887C58.1557 41.1887 57.8396 41.1783 57.5286 41.1681L57.5284 41.1681C57.2273 41.1582 56.931 41.1485 56.6348 41.1485C56.3336 41.1485 56.0424 41.1586 55.7512 41.1686C55.4601 41.1786 55.1689 41.1887 54.8677 41.1887V40.9076C55.994 40.8299 55.9935 40.4518 55.9923 39.4099C55.9922 39.3744 55.9922 39.3382 55.9922 39.3011V35.6465H54.9079Z" fill="#231F20"/>
<path d="M63.8235 32.4337C63.944 32.8353 63.944 33.8795 63.944 34.3614V38.4578C63.944 38.9397 63.944 39.9839 63.8235 40.3855C63.6629 40.8674 63.1006 40.8674 62.699 40.8674V41.1887C63.0203 41.1887 63.3516 41.1786 63.6829 41.1686C64.0143 41.1586 64.3456 41.1485 64.6669 41.1485C64.9933 41.1485 65.3198 41.1589 65.641 41.1691L65.6412 41.1691C65.9522 41.179 66.2582 41.1887 66.5544 41.1887V40.8674C66.1528 40.8674 65.5906 40.8674 65.4299 40.3855C65.3095 39.9839 65.3095 38.9398 65.3095 38.4578V34.3614C65.3095 33.8794 65.3095 32.8353 65.4299 32.4337C65.5906 31.9517 66.1528 31.9517 66.5544 31.9517V31.6305C66.238 31.6305 65.9216 31.6402 65.6004 31.6501C65.2693 31.6603 64.933 31.6706 64.5866 31.6706C64.2653 31.6706 63.954 31.6606 63.6428 31.6505C63.3315 31.6405 63.0203 31.6305 62.699 31.6305V31.9517C63.1408 31.9517 63.6629 31.9517 63.8235 32.4337Z" fill="#231F20"/>
<path d="M73.3817 39.4618C73.3817 39.5571 73.3805 39.6474 73.3794 39.7326C73.3693 40.5091 73.3645 40.8714 74.3054 40.9075V41.1887C74.0592 41.1887 73.8131 41.1782 73.5723 41.1679L73.572 41.1679H73.5716C73.3413 41.1581 73.1157 41.1485 72.8998 41.1485C72.6387 41.1485 72.3877 41.1585 72.1367 41.1686C71.8857 41.1786 71.6347 41.1887 71.3737 41.1887V40.9075C72.2995 40.8304 72.299 40.5309 72.2975 39.6532C72.2974 39.6172 72.2974 39.5801 72.2974 39.5421V37.6947C72.2974 37.6646 72.2974 37.6341 72.2975 37.6033C72.2986 36.6076 72.3002 35.285 71.0926 35.285C70.0885 35.285 69.446 36.1686 69.446 37.2128V39.4618C69.446 39.5569 69.4448 39.647 69.4437 39.7321V39.7325C69.4335 40.509 69.4288 40.8714 70.3697 40.9075V41.1887C70.1235 41.1887 69.8773 41.1782 69.6365 41.1679L69.6363 41.1679H69.6354C69.4052 41.1581 69.1798 41.1485 68.964 41.1485C68.703 41.1485 68.452 41.1585 68.201 41.1686C67.95 41.1786 67.699 41.1887 67.4379 41.1887V40.9075C68.3637 40.8304 68.3632 40.5309 68.3618 39.6532C68.3617 39.6172 68.3616 39.5801 68.3616 39.5421V37.775C68.3616 37.3734 68.3616 36.3694 68.2813 36.0079C68.169 35.5213 67.8823 35.5231 67.4862 35.5256C67.4573 35.5258 67.4278 35.526 67.3978 35.526V35.2449C67.7849 35.1993 68.1074 35.1022 68.4313 35.0046C68.6786 34.9301 68.9268 34.8553 69.205 34.8031L69.3657 36.1284H69.4058C69.8476 35.2449 70.5705 34.8031 71.4942 34.8031C72.7391 34.8031 73.4219 35.4055 73.4219 36.8112V39.4618H73.3817Z" fill="#231F20"/>
<path d="M75.3094 35.2047V35.526H75.952V39.9437C75.952 41.028 76.5946 41.4296 77.5183 41.4296C78.1608 41.4296 78.8034 41.1887 79.0444 40.5059L78.8034 40.3051C78.5624 40.6666 78.3215 40.9477 77.8797 40.9477C77.197 40.9477 77.0765 40.265 77.0765 39.6224V35.4858H78.5624V35.0842H77.0765V33.3975H76.8757C76.5946 34.2007 75.952 34.8031 75.3094 35.2047Z" fill="#231F20"/>
<path fill-rule="evenodd" clip-rule="evenodd" d="M84.6669 40.1445C84.0645 40.9879 83.3416 41.3895 82.3375 41.3895C80.7311 41.3895 79.4058 40.1445 79.4058 38.2971C79.4058 36.4899 80.6508 34.8433 82.3375 34.8433C83.6227 34.8433 84.8275 35.6465 84.8275 37.2128C84.8275 37.3703 84.7039 37.3548 84.5924 37.3408C84.5618 37.337 84.5322 37.3332 84.5062 37.3332H80.7713L80.7311 38.016C80.7311 39.3814 81.3737 40.9075 82.7793 40.9075C83.462 40.9075 84.0243 40.4256 84.4259 39.8232L84.6669 40.1445ZM83.0771 36.8948C83.2963 36.9053 83.6227 36.921 83.6227 36.6103C83.6227 35.7268 83.1809 35.1244 82.3777 35.1244C81.4139 35.1244 81.0122 35.9678 80.8516 36.8915H82.9801C83.0083 36.8915 83.0413 36.8931 83.0771 36.8948Z" fill="#231F20"/>
<path d="M86.6749 36.0079C86.7552 36.3694 86.7552 37.3733 86.7552 37.775L86.8757 37.775L86.8758 39.6532C86.8773 40.5309 86.8778 40.8304 85.952 40.9075V41.1887C86.2131 41.1887 86.4641 41.1786 86.7151 41.1686C86.9661 41.1585 87.2171 41.1485 87.4781 41.1485C87.7191 41.1485 87.9701 41.1585 88.2211 41.1686C88.4721 41.1786 88.7231 41.1887 88.9641 41.1887V40.9075C87.945 40.8711 87.9484 40.5709 87.958 39.7376V39.7359C87.959 39.6503 87.9601 39.559 87.9601 39.4618V38.016C87.9601 37.3332 87.9601 36.6505 88.2412 36.0481C88.442 35.6867 88.8436 35.3252 89.2452 35.3252C89.4769 35.3252 89.5693 35.5016 89.6654 35.6847C89.7691 35.8825 89.8769 36.0883 90.1689 36.0883C90.4099 36.0883 90.6107 35.8473 90.6107 35.5662C90.6107 35.0039 90.0886 34.8031 89.687 34.8031C88.8034 34.8031 88.1207 35.3654 87.7994 36.2489H87.7593C87.7593 35.7268 87.7191 35.2047 87.5986 34.8031C87.3541 34.852 87.1161 34.9274 86.8794 35.0024C86.5331 35.1121 86.1894 35.221 85.8315 35.2449V35.526C85.8587 35.526 85.8855 35.5258 85.9119 35.5256C86.2757 35.5231 86.5626 35.5212 86.6749 36.0079Z" fill="#231F20"/>
<path d="M97.0364 39.4618C97.0364 39.5571 97.0352 39.6474 97.0341 39.7326C97.0239 40.5091 97.0192 40.8714 97.9601 40.9075V41.1887C97.7141 41.1887 97.468 41.1782 97.2273 41.1679L97.2271 41.1679H97.2265C96.996 41.1581 96.7704 41.1485 96.5545 41.1485C96.2934 41.1485 96.0424 41.1585 95.7914 41.1686C95.5404 41.1786 95.2894 41.1887 95.0284 41.1887V40.9075C95.9542 40.8304 95.9537 40.5309 95.9522 39.6533C95.9521 39.6172 95.952 39.5801 95.952 39.5421V37.6947C95.952 37.6646 95.9521 37.6341 95.9521 37.6033C95.9533 36.6076 95.9549 35.285 94.7472 35.285C93.7432 35.285 93.1006 36.1686 93.1006 37.2128V39.4618C93.1006 39.5571 93.0995 39.6474 93.0984 39.7326C93.0882 40.5091 93.0835 40.8714 94.0243 40.9075V41.1887C93.7782 41.1887 93.532 41.1782 93.2912 41.1679L93.291 41.1679H93.2908C93.0603 41.1581 92.8347 41.1485 92.6187 41.1485C92.3577 41.1485 92.1067 41.1585 91.8557 41.1686C91.6047 41.1786 91.3537 41.1887 91.0926 41.1887V40.9075C92.0184 40.8304 92.0179 40.5309 92.0164 39.6532C92.0164 39.6172 92.0163 39.5801 92.0163 39.5421V37.775C92.0163 37.3734 92.0163 36.3694 91.936 36.0079C91.8237 35.5213 91.537 35.5231 91.1409 35.5256C91.112 35.5258 91.0824 35.526 91.0525 35.526V35.2449C91.4396 35.1993 91.7621 35.1022 92.086 35.0046C92.3333 34.9301 92.5815 34.8553 92.8597 34.8031L93.0203 36.1284H93.0605C93.5023 35.2449 94.2251 34.8031 95.1488 34.8031C96.3938 34.8031 97.0765 35.4055 97.0765 36.8112V39.4618H97.0364Z" fill="#231F20"/>
<path fill-rule="evenodd" clip-rule="evenodd" d="M102.338 36.8513C102.338 37.012 102.338 37.1726 102.217 37.2529L100.932 37.9356C100.859 37.9739 100.783 38.0127 100.705 38.0525C99.8825 38.4729 98.8436 39.0037 98.8436 40.1043C98.8436 40.9075 99.5263 41.3895 100.209 41.3895C101.012 41.3895 101.775 40.9075 102.378 40.3453C102.498 40.9477 102.98 41.3895 103.502 41.3895C103.984 41.3895 104.466 40.9075 104.667 40.4256L104.426 40.265C104.305 40.5059 104.145 40.7469 103.904 40.7469C103.453 40.7469 103.459 39.7981 103.462 39.3797L103.462 39.3521L103.462 39.3287C103.462 39.3191 103.462 39.3099 103.462 39.3011V36.9316C103.462 35.2449 102.819 34.8433 101.374 34.8433C100.691 34.8433 98.964 35.0441 98.964 36.1284C98.964 36.4497 99.1648 36.6505 99.446 36.6505C99.7673 36.6505 99.9279 36.3292 99.9681 36.0079C100.008 35.2047 100.53 35.1646 101.173 35.1646C102.257 35.1646 102.338 35.8875 102.338 36.8513ZM102.014 37.7774L102.014 37.7772C102.131 37.7197 102.24 37.6657 102.338 37.6144H102.378V39.9437C102.016 40.3453 101.454 40.7871 100.932 40.7871C100.37 40.7871 100.089 40.265 100.089 39.7429C100.089 38.7273 101.218 38.1698 102.014 37.7774Z" fill="#231F20"/>
<path d="M107.036 39.4618C107.042 39.5946 107.044 39.7176 107.045 39.8309C107.055 40.5398 107.06 40.8729 107.96 40.9076V41.1887C107.694 41.1887 107.438 41.1782 107.187 41.168C106.946 41.1582 106.71 41.1485 106.474 41.1485C106.233 41.1485 105.992 41.1586 105.751 41.1686C105.51 41.1786 105.269 41.1887 105.028 41.1887V40.9076C105.954 40.8304 105.954 40.531 105.952 39.6533L105.952 39.6474C105.952 39.6132 105.952 39.5781 105.952 39.5421V33.9999C105.952 33.6385 105.952 32.755 105.831 32.4337C105.699 32.1361 105.404 32.1107 105.146 32.0887C105.091 32.0839 105.038 32.0793 104.988 32.0722V31.7911L107.076 31.3092V39.4618H107.036Z" fill="#231F20"/>
<path d="M122.779 40.8674C121.534 40.7469 121.494 40.6666 121.494 39.3011H121.414V34.1204C121.414 33.5983 121.414 32.8352 121.534 32.514C121.735 32.032 122.257 32.032 122.659 32.032V31.6706C122.433 31.6706 122.207 31.6811 121.986 31.6914C121.775 31.7012 121.57 31.7107 121.374 31.7107C120.972 31.7107 120.571 31.7107 120.169 31.6706L117.398 39.0601L114.546 31.6706C114.346 31.6706 114.145 31.6806 113.944 31.6907C113.743 31.7007 113.542 31.7107 113.342 31.7107C112.9 31.7107 112.458 31.7107 112.016 31.6706V31.9919C112.458 31.9919 112.98 31.9919 113.141 32.4738C113.221 32.6344 113.261 33.036 113.261 33.3975V39.5421C113.261 40.1846 113.101 40.8674 112.097 40.8674V41.1886C112.318 41.1886 112.548 41.1786 112.779 41.1686C113.01 41.1585 113.241 41.1485 113.462 41.1485C113.703 41.1485 113.944 41.1585 114.185 41.1686C114.426 41.1786 114.667 41.1886 114.908 41.1886V40.8674C113.864 40.8272 113.663 40.2248 113.663 39.1003V32.9959H113.703L116.876 41.1886H116.996C117.518 39.783 118.04 38.4176 118.603 37.0119L120.089 32.9959H120.129V39.3011C120.129 40.6666 120.089 40.7469 118.844 40.8674V41.1886C119.165 41.1886 119.496 41.1786 119.828 41.1686C120.159 41.1585 120.49 41.1485 120.811 41.1485C121.128 41.1485 121.444 41.1582 121.766 41.1681C122.097 41.1783 122.433 41.1886 122.779 41.1886V40.8674Z" fill="#231F20"/>
<path fill-rule="evenodd" clip-rule="evenodd" d="M128.924 40.1445C128.321 40.9879 127.599 41.3895 126.595 41.3895C124.988 41.3895 123.663 40.1445 123.663 38.2971C123.663 36.4899 124.908 34.8433 126.595 34.8433C127.88 34.8433 129.085 35.6465 129.085 37.2128C129.085 37.3703 128.961 37.3548 128.849 37.3408C128.819 37.337 128.789 37.3332 128.763 37.3332H125.028L124.988 38.016C124.988 39.3814 125.631 40.9075 127.036 40.9075C127.719 40.9075 128.281 40.4256 128.683 39.8232L128.924 40.1445ZM127.237 36.8915C127.265 36.8915 127.298 36.8931 127.334 36.8948C127.553 36.9053 127.88 36.921 127.88 36.6103C127.88 35.7268 127.438 35.1244 126.635 35.1244C125.671 35.1244 125.269 35.9678 125.109 36.8915H127.237Z" fill="#231F20"/>
<path fill-rule="evenodd" clip-rule="evenodd" d="M134.948 40.265C134.948 40.6264 135.028 41.028 135.189 41.3493L136.916 40.7871V40.506C136.889 40.506 136.862 40.5061 136.835 40.5063C136.467 40.5088 136.142 40.511 135.992 40.024C135.872 39.6626 135.872 38.9397 135.872 38.5381V31.2289L133.783 31.7108V31.9919C134.707 32.0321 134.747 32.4738 134.747 33.3574V35.6465C134.305 35.0441 133.623 34.763 132.9 34.763C131.253 34.763 130.129 36.3694 130.129 38.1365C130.129 39.9437 131.253 41.3493 132.9 41.3493C133.783 41.3493 134.386 41.028 134.948 40.265ZM133.221 35.2449C133.984 35.2449 134.787 35.8072 134.787 36.7309V38.7791C134.787 39.9035 134.386 40.9477 133.221 40.9477C131.815 40.9477 131.454 39.4216 131.454 38.1365C131.454 36.8915 131.815 35.2449 133.221 35.2449Z" fill="#231F20"/>
<path d="M139.566 34.8032V39.4618C139.572 39.5944 139.574 39.7171 139.575 39.8303V39.8309C139.585 40.5398 139.59 40.8729 140.49 40.9076V41.1887C140.274 41.1887 140.048 41.1791 139.818 41.1693C139.577 41.159 139.331 41.1485 139.085 41.1485C138.824 41.1485 138.572 41.1586 138.322 41.1686C138.07 41.1786 137.819 41.1887 137.558 41.1887V40.9076C138.45 40.8333 138.448 40.5528 138.443 39.7483C138.442 39.6831 138.442 39.6144 138.442 39.5421V37.4939C138.442 37.2128 138.442 36.0883 138.402 35.8875C138.328 35.5563 137.85 35.5623 137.585 35.5656C137.561 35.5659 137.538 35.5662 137.518 35.5662V35.2851L139.566 34.8032Z" fill="#231F20"/>
<path d="M138.161 32.2329C138.161 31.7911 138.482 31.4698 138.884 31.4698C139.285 31.4698 139.566 31.8313 139.566 32.2329C139.566 32.6345 139.285 32.9959 138.884 32.9959C138.522 32.9959 138.161 32.6746 138.161 32.2329Z" fill="#231F20"/>
<path d="M144.145 41.3895C144.988 41.3895 145.872 41.028 146.434 40.265L146.153 39.9838C145.711 40.5461 145.149 40.9075 144.506 40.9075C143.02 40.9075 142.619 39.4618 142.619 38.0561C142.619 36.8112 143.06 35.2047 144.466 35.2047C144.948 35.2047 145.028 35.3252 145.189 35.767C145.269 36.0481 145.43 36.3292 145.751 36.3292C145.992 36.3292 146.193 36.0481 146.193 35.8071C146.193 35.0039 145.028 34.8433 144.506 34.8433C142.699 34.8433 141.334 36.3292 141.334 38.3373C141.334 40.1043 142.538 41.3895 144.145 41.3895Z" fill="#231F20"/>
<path d="M149.205 34.8032V39.4618C149.211 39.5944 149.212 39.7171 149.214 39.8303V39.8309C149.224 40.5398 149.228 40.8729 150.129 40.9076V41.1887C149.913 41.1887 149.687 41.1791 149.456 41.1693C149.215 41.159 148.969 41.1485 148.723 41.1485C148.462 41.1485 148.211 41.1586 147.96 41.1686C147.709 41.1786 147.458 41.1887 147.197 41.1887V40.9076C148.089 40.8333 148.087 40.5528 148.081 39.7483C148.081 39.6831 148.08 39.6144 148.08 39.5421V37.4939C148.08 37.2128 148.08 36.0883 148.04 35.8875C147.967 35.5563 147.488 35.5623 147.224 35.5656C147.199 35.5659 147.177 35.5662 147.157 35.5662V35.2851L149.205 34.8032Z" fill="#231F20"/>
<path d="M147.799 32.2329C147.799 31.7911 148.121 31.4698 148.522 31.4698C148.924 31.4698 149.205 31.8313 149.205 32.2329C149.205 32.6345 148.924 32.9959 148.522 32.9959C148.121 32.9959 147.799 32.6746 147.799 32.2329Z" fill="#231F20"/>
<path d="M156.914 39.7326L156.914 39.7307C156.915 39.646 156.916 39.5564 156.916 39.4618H156.956V36.8112C156.956 35.4055 156.273 34.8031 155.028 34.8031C154.105 34.8031 153.382 35.2449 152.94 36.1284H152.9L152.739 34.8031C152.461 34.8553 152.213 34.93 151.965 35.0046C151.642 35.1022 151.319 35.1993 150.932 35.2449V35.526C150.962 35.526 150.991 35.5258 151.02 35.5256C151.416 35.5231 151.703 35.5213 151.815 36.0079C151.896 36.3694 151.896 37.3734 151.896 37.775L151.896 39.5956L151.896 39.6532C151.897 40.5309 151.898 40.8304 150.972 40.9075V41.1887C151.233 41.1887 151.484 41.1786 151.735 41.1686C151.986 41.1585 152.237 41.1485 152.498 41.1485C152.714 41.1485 152.94 41.1581 153.171 41.1679C153.411 41.1782 153.658 41.1887 153.904 41.1887V40.9075C152.963 40.8713 152.968 40.5091 152.978 39.7326L152.978 39.7306C152.979 39.646 152.98 39.5564 152.98 39.4618V37.2128C152.98 36.1686 153.623 35.285 154.627 35.285C155.834 35.285 155.833 36.6076 155.832 37.6033L155.832 39.5421C155.832 39.5646 155.832 39.5868 155.832 39.6086L155.832 39.6532C155.833 40.5309 155.834 40.8304 154.908 40.9075V41.1887C155.169 41.1887 155.42 41.1786 155.671 41.1686C155.922 41.1585 156.173 41.1485 156.434 41.1485C156.65 41.1485 156.876 41.1581 157.106 41.1679C157.347 41.1782 157.593 41.1887 157.84 41.1887V40.9075C156.899 40.8714 156.903 40.5091 156.914 39.7326Z" fill="#231F20"/>
<path fill-rule="evenodd" clip-rule="evenodd" d="M164.064 40.1445C163.462 40.9879 162.739 41.3895 161.735 41.3895C160.129 41.3895 158.803 40.1445 158.803 38.2971C158.803 36.4899 160.048 34.8433 161.735 34.8433C163.02 34.8433 164.225 35.6465 164.225 37.2128C164.225 37.3703 164.101 37.3548 163.99 37.3408C163.959 37.337 163.93 37.3332 163.904 37.3332H160.169L160.129 38.016C160.129 39.3814 160.771 40.9075 162.177 40.9075C162.86 40.9075 163.422 40.4256 163.824 39.8232L164.064 40.1445ZM162.425 36.8926C162.441 36.8932 162.457 36.894 162.475 36.8948C162.694 36.9053 163.02 36.921 163.02 36.6103C163.02 35.7268 162.579 35.1244 161.775 35.1244C160.811 35.1244 160.41 35.9678 160.249 36.8915H162.378C162.392 36.8915 162.408 36.8919 162.425 36.8926Z" fill="#231F20"/>
<path fill-rule="evenodd" clip-rule="evenodd" d="M167.036 33.7589C166.836 33.7589 166.795 33.7589 166.795 33.5983H166.755V32.9959H166.836C166.916 32.9959 167.036 32.9959 167.117 33.0762C167.197 33.1565 167.277 33.3172 167.318 33.4376C167.358 33.5581 167.438 33.7188 167.518 33.7991C167.599 33.8393 167.639 33.8393 167.719 33.8393H167.92V33.7589C167.84 33.7589 167.799 33.7589 167.759 33.7188C167.698 33.6574 167.66 33.5726 167.628 33.5002C167.618 33.4778 167.608 33.4566 167.599 33.4376C167.582 33.4043 167.565 33.3639 167.547 33.321C167.48 33.1573 167.396 32.9557 167.237 32.9557C167.478 32.9156 167.719 32.7549 167.719 32.4738C167.719 32.1123 167.398 32.032 167.117 32.032H166.313V32.1123C166.514 32.1123 166.554 32.1123 166.554 32.2328V33.5983C166.554 33.7589 166.514 33.7589 166.354 33.7589V33.8393H167.036V33.7589ZM167.478 32.514C167.478 32.8352 167.197 32.9156 166.916 32.9156H166.836V32.3131C166.836 32.1927 166.836 32.1123 166.956 32.1123H167.077C167.318 32.1123 167.478 32.2328 167.478 32.514Z" fill="#231F20"/>
<path fill-rule="evenodd" clip-rule="evenodd" d="M167.077 31.3493C166.193 31.3493 165.47 32.0722 165.47 32.9959C165.47 33.8794 166.193 34.6425 167.077 34.6425C167.96 34.6425 168.683 33.9196 168.683 32.9959C168.683 32.0722 167.96 31.3493 167.077 31.3493ZM167.077 31.5501C167.88 31.5501 168.482 32.1927 168.482 32.9959C168.482 33.7991 167.88 34.4015 167.077 34.4417C166.273 34.4417 165.671 33.7991 165.671 32.9959C165.671 32.1927 166.273 31.5501 167.077 31.5501Z" fill="#231F20"/>
</svg>
