<svg width="160" height="96" viewBox="0 0 160 96" fill="none" xmlns="http://www.w3.org/2000/svg">
<path d="M115.239 88.7628C137.751 88.7628 156.001 70.5129 156.001 48.0005C156.001 25.4881 137.751 7.23816 115.239 7.23816C92.7265 7.23816 74.4766 25.4881 74.4766 48.0005C74.4766 70.5129 92.7265 88.7628 115.239 88.7628Z" fill="white"/>
<path d="M150.13 26.9128C153.856 33.0652 156.001 40.2824 156.001 48.0005C156.001 70.5129 137.751 88.7628 115.239 88.7628C112.542 88.7628 109.906 88.5009 107.355 88.001L150.13 26.9128ZM146.786 22.1843C146.789 22.1887 146.793 22.1932 146.796 22.1976L125.119 53.1568L120.736 48.222L125.824 42.7436H122.033L117.875 47.3171V35.8466H114.94V54.3364H117.875V49.2737L122.302 54.3364H124.293L101.78 86.4884C86.4456 81.1264 75.2927 66.8597 74.5195 49.887L76.8354 54.9233L80.504 46.6567L84.2216 54.9233L89.8223 42.7436H86.8385L84.3439 48.6867L81.8981 42.7436H79.4279L76.9088 48.6867L74.7429 43.3161C75.6546 35.3476 78.8641 28.0773 83.6923 22.1843H146.786ZM96.7927 42.4501C95.9285 42.4501 95.1214 42.605 94.3714 42.9148C93.6214 43.2246 92.9651 43.6566 92.4026 44.211C91.84 44.7654 91.3998 45.4135 91.0819 46.1554C90.7639 46.8972 90.6049 47.6921 90.6049 48.54C90.6049 49.3878 90.7639 50.1827 91.0819 50.9246C91.3998 51.6664 91.84 52.3105 92.4026 52.8567C92.9651 53.4029 93.6214 53.835 94.3714 54.1529C95.1214 54.4709 95.9285 54.6298 96.7927 54.6298C97.6568 54.6298 98.4639 54.4709 99.2139 54.1529C99.964 53.835 100.62 53.4029 101.183 52.8567C101.745 52.3105 102.186 51.6664 102.503 50.9246C102.821 50.1827 102.98 49.3878 102.98 48.54C102.98 47.6921 102.821 46.8972 102.503 46.1554C102.186 45.4135 101.745 44.7654 101.183 44.211C100.62 43.6566 99.964 43.2246 99.2139 42.9148C98.4639 42.605 97.6568 42.4501 96.7927 42.4501ZM111.125 42.4501C110.342 42.4501 109.682 42.6539 109.144 43.0615C108.606 43.4691 108.198 43.9257 107.921 44.4311V42.7436H105.133V54.3364H108.068V46.7546C108.296 46.3796 108.622 46.0249 109.046 45.6907C109.47 45.3564 110.024 45.1893 110.709 45.1893C110.97 45.1893 111.218 45.2138 111.455 45.2627C111.691 45.3116 111.891 45.3768 112.054 45.4583L113.081 42.8169C112.739 42.6865 112.396 42.5927 112.054 42.5357C111.712 42.4786 111.402 42.4501 111.125 42.4501ZM96.7927 45.1893C97.2818 45.1893 97.7261 45.279 98.1256 45.4583C98.5251 45.6377 98.8634 45.8823 99.1406 46.1921C99.4178 46.5018 99.6297 46.8565 99.7765 47.2559C99.9232 47.6554 99.9966 48.0834 99.9966 48.54C99.9966 48.9965 99.9232 49.4286 99.7765 49.8362C99.6297 50.2438 99.4178 50.5985 99.1406 50.9001C98.8634 51.2017 98.5251 51.4422 98.1256 51.6216C97.7261 51.8009 97.2818 51.8906 96.7927 51.8906C96.3035 51.8906 95.8592 51.8009 95.4597 51.6216C95.0603 51.4422 94.7219 51.2017 94.4448 50.9001C94.1676 50.5985 93.9556 50.2438 93.8089 49.8362C93.6621 49.4286 93.5887 48.9965 93.5887 48.54C93.5887 48.0834 93.6621 47.6554 93.8089 47.2559C93.9556 46.8565 94.1676 46.5018 94.4448 46.1921C94.7219 45.8823 95.0603 45.6377 95.4597 45.4583C95.8592 45.279 96.3035 45.1893 96.7927 45.1893ZM115.239 7.23816C125.202 7.23816 134.331 10.8127 141.412 16.7494H89.0662C96.1473 10.8127 105.276 7.23816 115.239 7.23816Z" fill="#EE350F"/>
<path d="M30.9765 42.4499C32.5907 42.4499 33.8625 42.8413 34.7919 43.6239C35.7212 44.4065 36.1859 45.4582 36.1859 46.7789V54.3362H33.4712V52.8688C33.0961 53.3743 32.5785 53.7941 31.9181 54.1284C31.2578 54.4626 30.52 54.6297 29.7047 54.6297C29.1504 54.6297 28.6164 54.5441 28.1028 54.3729C27.5892 54.2017 27.1367 53.949 26.7454 53.6147C26.3541 53.2805 26.0443 52.877 25.816 52.4041C25.5877 51.9313 25.4736 51.4014 25.4736 50.8144C25.4736 50.2274 25.5918 49.6934 25.8282 49.2124C26.0646 48.7314 26.3907 48.3197 26.8065 47.9773C27.2223 47.6349 27.7114 47.37 28.274 47.1825C28.8365 46.9949 29.4438 46.9012 30.096 46.9012C30.6341 46.9012 31.1885 46.9705 31.7591 47.1091C32.3298 47.2477 32.8271 47.4556 33.251 47.7327V47.0724C33.251 46.6974 33.1695 46.3794 33.0065 46.1186C32.8434 45.8577 32.6396 45.6498 32.395 45.4949C32.1505 45.34 31.8774 45.2299 31.5757 45.1647C31.2741 45.0995 30.9847 45.0669 30.7075 45.0669C30.3162 45.0669 29.8189 45.1321 29.2156 45.2625C28.6123 45.393 27.9683 45.6131 27.2834 45.9229L26.3296 43.5016C26.9166 43.2244 27.6136 42.9799 28.4207 42.7679C29.2278 42.5559 30.0797 42.4499 30.9765 42.4499ZM64.6054 42.4499C65.4044 42.4499 66.1585 42.5967 66.8677 42.8902C67.577 43.1837 68.1966 43.5954 68.7265 44.1253C69.2564 44.6552 69.6763 45.2911 69.9861 46.033C70.2959 46.7748 70.4507 47.5942 70.4507 48.4909V48.9556C70.4507 49.1513 70.4426 49.3632 70.4263 49.5915H61.7684C61.8336 49.8687 61.9518 50.1459 62.123 50.4231C62.2942 50.7002 62.5225 50.9489 62.8078 51.169C63.0931 51.3891 63.4233 51.5726 63.7983 51.7193C64.1734 51.866 64.5973 51.9394 65.0701 51.9394C65.5593 51.9394 66.0892 51.8497 66.6599 51.6704C67.2305 51.491 67.7441 51.1894 68.2007 50.7655L69.6681 52.9666C69.1953 53.3579 68.5594 53.733 67.7604 54.0917C66.9615 54.4504 66.0484 54.6297 65.0212 54.6297C64.1407 54.6297 63.3214 54.4748 62.5632 54.165C61.8051 53.8552 61.1447 53.4232 60.5822 52.8688C60.0197 52.3144 59.5794 51.6622 59.2615 50.9122C58.9435 50.1622 58.7846 49.3551 58.7846 48.4909C58.7846 47.6594 58.9313 46.8767 59.2248 46.143C59.5183 45.4093 59.9218 44.7693 60.4354 44.2231C60.9491 43.6769 61.5646 43.2448 62.282 42.9269C62.9994 42.6089 63.7739 42.4499 64.6054 42.4499ZM14.1498 37.2161V40.0042H6.93489V44.1864H13.6607V46.9746H6.93489V54.3362H4V37.2161H14.1498ZM22.5387 42.4499C22.8159 42.4499 23.1257 42.4785 23.4681 42.5355C23.8105 42.5926 24.1529 42.6864 24.4953 42.8168L23.4681 45.4582C23.305 45.3767 23.1053 45.3115 22.8689 45.2625C22.6325 45.2136 22.3838 45.1892 22.1229 45.1892C21.4381 45.1892 20.8838 45.3563 20.4598 45.6906C20.0359 46.0248 19.7098 46.3794 19.4815 46.7544V54.3362H16.5466V42.7434H19.3348V44.431C19.612 43.9255 20.0196 43.469 20.5577 43.0614C21.0957 42.6538 21.7561 42.4499 22.5387 42.4499ZM52.5479 42.4499C53.1349 42.4499 53.6811 42.5519 54.1866 42.7557C54.692 42.9595 55.1241 43.2489 55.4828 43.6239C55.8415 43.9989 56.1228 44.4595 56.3266 45.0057C56.5304 45.552 56.6323 46.1756 56.6323 46.8767V54.3362H53.6974V47.6349C53.6974 46.0044 53.0371 45.1892 51.7164 45.1892C51.0642 45.1892 50.5547 45.3522 50.1878 45.6783C49.8209 46.0044 49.5397 46.3387 49.344 46.6811V54.3362H46.4091V47.6349C46.4091 46.0044 45.7488 45.1892 44.4281 45.1892C43.7759 45.1892 43.2664 45.3522 42.8995 45.6783C42.5326 46.0044 42.2514 46.3387 42.0557 46.6811V54.3362H39.1208V42.7434H41.8601V44.431C42.1535 43.9418 42.5856 43.4894 43.1563 43.0736C43.727 42.6578 44.4607 42.4499 45.3575 42.4499C46.1238 42.4499 46.8249 42.6252 47.4608 42.9758C48.0967 43.3263 48.5695 43.8277 48.8793 44.4799C49.0098 44.2353 49.185 43.9908 49.4052 43.7462C49.6253 43.5016 49.8902 43.2856 50.2 43.0981C50.5098 42.9106 50.8604 42.7557 51.2517 42.6334C51.643 42.5111 52.0751 42.4499 52.5479 42.4499ZM30.7075 49.0534C30.4466 49.0534 30.1857 49.082 29.9248 49.139C29.664 49.1961 29.4235 49.2858 29.2033 49.4081C28.9832 49.5304 28.8039 49.6975 28.6653 49.9095C28.5267 50.1214 28.4574 50.3823 28.4574 50.6921C28.4574 51.0019 28.5226 51.2546 28.6531 51.4503C28.7835 51.6459 28.9506 51.7968 29.1544 51.9027C29.3582 52.0087 29.5824 52.0821 29.827 52.1228C30.0716 52.1636 30.2999 52.184 30.5118 52.184C31.1966 52.184 31.7591 52.0413 32.1994 51.756C32.6396 51.4707 32.9902 51.1649 33.251 50.8388V49.6404C32.876 49.4448 32.4521 49.298 31.9793 49.2002C31.5064 49.1024 31.0825 49.0534 30.7075 49.0534ZM64.6054 45.1158C64.1326 45.1158 63.725 45.1892 63.3826 45.3359C63.0402 45.4827 62.7507 45.6702 62.5143 45.8984C62.2779 46.1267 62.0985 46.3794 61.9763 46.6566C61.854 46.9338 61.7847 47.2028 61.7684 47.4637H67.5159C67.4996 47.2191 67.4303 46.9583 67.308 46.6811C67.1857 46.4039 67.0063 46.1471 66.7699 45.9107C66.5335 45.6742 66.2359 45.4827 65.8772 45.3359C65.5185 45.1892 65.0946 45.1158 64.6054 45.1158Z" fill="#EE350F"/>
</svg>
