<svg width="208" height="48" viewBox="0 0 208 48" fill="none" xmlns="http://www.w3.org/2000/svg">
<path d="M26.4891 6.54773C26.8806 6.86216 26.943 7.43435 26.6285 7.82577C26.3141 8.21719 25.7419 8.2796 25.3505 7.96518C22.9807 6.06154 21.0068 5.43304 19.7893 6.05454C18.3724 6.77711 17.8229 9.1019 18.1089 12.346L18.152 12.784C18.176 13.0056 18.2037 13.2312 18.2351 13.4605L18.3029 13.9241C18.387 14.4663 18.4909 15.0278 18.6144 15.6062C20.3209 15.3417 22.1577 15.1689 24.0866 15.0968C24.9233 14.0218 25.774 13.0128 26.6285 12.0785L27.0566 11.6169C28.1276 10.4787 29.2018 9.45991 30.2588 8.57809L30.6806 8.2327C34.5381 5.1344 38.1284 3.90844 40.4503 5.41592C42.4729 6.72811 43.015 9.70058 42.2638 13.6839C42.1708 14.1773 41.6954 14.5018 41.202 14.4088C40.7086 14.3158 40.3841 13.8404 40.4772 13.347C41.1062 10.011 40.6921 7.74003 39.4605 6.94102C37.8598 5.9018 34.8854 7.09818 31.5315 9.89215L31.1573 10.2091C30.9695 10.3709 30.7806 10.5375 30.5909 10.7088L30.2102 11.0578C29.8285 11.4131 29.4437 11.7871 29.0571 12.1789L28.6701 12.5766C28.6055 12.6439 28.5409 12.7116 28.4762 12.7799L28.088 13.195L27.6993 13.6216L27.3106 14.0594C27.1811 14.2072 27.0515 14.3568 26.9221 14.5082L26.5341 14.9678L26.4584 15.0594C27.3629 15.0642 28.2831 15.0904 29.2155 15.1389L29.5775 15.1588L30.2968 15.2049C30.8937 15.2468 31.4839 15.2972 32.0666 15.3559L32.762 15.4303C32.8773 15.4434 32.9923 15.4567 33.1069 15.4704L33.7908 15.5565C34.3574 15.6314 34.9154 15.7142 35.464 15.8046L36.1178 15.9167L36.762 16.036L37.3965 16.1623C39.4949 16.5949 41.424 17.1428 43.1241 17.7849L43.6272 17.9804C48.0922 19.7645 50.8438 22.2204 50.7026 24.9351C50.5855 27.1792 48.574 29.0317 45.2023 30.3592C44.7351 30.5431 44.2073 30.3135 44.0233 29.8464C43.8394 29.3792 44.069 28.8514 44.5362 28.6675C47.3166 27.5728 48.8164 26.1915 48.8869 24.8405C48.9769 23.1108 46.9074 21.322 43.4626 19.8791L43.034 19.7042C42.7437 19.5887 42.4445 19.4757 42.1368 19.3653L41.6688 19.2018C41.5107 19.1479 41.3506 19.0948 41.1884 19.0423L40.6958 18.8872L40.1914 18.7365C40.1064 18.7117 40.0209 18.6872 39.9349 18.6628L39.4134 18.5191C39.3255 18.4956 39.2372 18.4722 39.1485 18.4491L38.6105 18.3127C38.0672 18.1788 37.5081 18.0527 36.9346 17.9349L36.3564 17.82C36.2592 17.8013 36.1617 17.7828 36.0638 17.7646L35.4718 17.6584L34.871 17.5582C34.7701 17.542 34.6689 17.5261 34.5674 17.5104L33.954 17.4196C33.7482 17.3903 33.541 17.3622 33.3326 17.3351L32.7036 17.2573L32.0672 17.1862C31.7472 17.1524 31.4246 17.1212 31.0995 17.0927L30.4462 17.0392C30.2273 17.0226 30.0074 17.0073 29.7866 16.9931L29.1211 16.9545L28.4551 16.9239L27.7943 16.9013C27.0264 16.8796 26.2697 16.8741 25.5264 16.8839L25.0067 16.8936L24.8027 17.1646C24.6757 17.3349 24.5491 17.5067 24.4229 17.6802L24.0457 18.2054C23.6071 18.8235 23.1742 19.4608 22.7492 20.1158C22.6278 20.303 22.5079 20.4901 22.3897 20.6772L22.0397 21.2381C21.6669 21.8436 21.3109 22.4479 20.972 23.0488C21.0036 23.1245 21.0351 23.2007 21.0669 23.277L21.314 23.8607C21.356 23.9582 21.3984 24.0559 21.4412 24.1537L21.7026 24.7417L21.9735 25.3321L22.2539 25.9247L22.5438 26.5189L22.8431 27.1146L23.1495 27.7066L23.4603 28.2903L23.7753 28.8652C23.8281 28.9603 23.8811 29.055 23.9343 29.1494L24.255 29.7109C24.3625 29.8965 24.4706 30.0806 24.5792 30.2631L24.9065 30.8059C25.0161 30.9853 25.1262 31.163 25.2368 31.339L25.5696 31.8622L25.9049 32.3752C26.1851 32.7985 26.4675 33.2109 26.7513 33.612L27.0924 34.0877C27.3203 34.4012 27.5488 34.7073 27.7777 35.0056L28.1213 35.4472L28.4651 35.877C28.5224 35.9477 28.5797 36.0178 28.637 36.0874L28.9806 36.499L29.3237 36.8983C29.6665 37.2912 30.0081 37.6653 30.3474 38.0194L30.6858 38.3668L31.0223 38.7007C31.1901 38.8643 31.357 39.0227 31.523 39.1758L31.8536 39.4749C32.0182 39.6209 32.1817 39.7616 32.344 39.8968L32.6669 40.1597C34.8616 41.9061 36.8064 42.6114 38.0975 41.9529C39.31 41.3346 39.8886 39.5297 39.8459 36.97L39.8348 36.5804C39.8296 36.4487 39.8228 36.3152 39.8145 36.1799L39.7848 35.7686C39.7734 35.6298 39.7604 35.4893 39.7459 35.347L39.6976 34.9154C39.6888 34.8427 39.6796 34.7695 39.67 34.696L39.6079 34.2499L39.5365 33.7947L39.4558 33.3305C39.3848 32.9401 39.3041 32.5407 39.2138 32.1333L39.1009 31.6406L38.9787 31.1404C38.9576 31.0565 38.9361 30.9722 38.9142 30.8877L38.7783 30.3769L38.6332 29.8596C38.6082 29.7729 38.5829 29.6858 38.5572 29.5986L38.3983 29.0719L38.2303 28.5394C38.144 28.2718 38.0543 28.0021 37.9611 27.7305L37.7702 27.1849L37.5702 26.6346C37.4339 26.2662 37.2914 25.895 37.1429 25.5213L36.9156 24.9589L36.6792 24.3931C36.6391 24.2985 36.5985 24.2038 36.5576 24.109L36.3076 23.5388L36.0485 22.9659C36.0046 22.8703 35.9603 22.7745 35.9156 22.6787L35.643 22.1026C35.5968 22.0064 35.5502 21.9102 35.5033 21.8138C35.2833 21.3625 35.4708 20.8184 35.9221 20.5984C36.3734 20.3784 36.9176 20.5659 37.1376 21.0172L37.4391 21.645C37.5379 21.854 37.6352 22.0627 37.7307 22.271L38.0124 22.8949C38.2892 23.5175 38.551 24.1365 38.7975 24.7502L39.0389 25.3621C39.0783 25.4637 39.1172 25.5652 39.1558 25.6666L39.3818 26.2726C39.4186 26.3732 39.455 26.4737 39.491 26.574L39.7015 27.1733C39.8384 27.5713 39.9684 27.9661 40.0913 28.3572L40.2704 28.941C42.4142 36.1058 42.1391 41.933 38.9235 43.5726C36.3225 44.8992 32.6346 43.0566 28.9225 39.1703L28.5384 38.7611C28.2824 38.4834 28.0264 38.1962 27.7708 37.8999L27.3878 37.4486C26.3675 36.2269 25.3565 34.8615 24.3771 33.3761L24.0113 32.8135C23.1009 31.3931 22.2207 29.8698 21.3891 28.263L21.2234 27.9406C21.1134 27.7249 21.0051 27.5093 20.8985 27.294L20.5839 26.6486C20.3363 26.1327 20.0986 25.6183 19.871 25.1062L19.7246 25.3974C19.6793 25.4883 19.6344 25.579 19.59 25.6696L19.3284 26.2112L19.0768 26.7488L18.8354 27.2821C18.796 27.3706 18.757 27.459 18.7185 27.5471L18.4924 28.0733C18.4556 28.1606 18.4192 28.2477 18.3832 28.3345L18.1726 28.8529C18.1383 28.9388 18.1045 29.0245 18.0711 29.1099L17.876 29.6195C17.8443 29.704 17.8131 29.7881 17.7824 29.872L17.6029 30.3721L17.434 30.8655C17.3522 31.1104 17.2743 31.3526 17.2005 31.592L17.0581 32.0668L16.9264 32.5336C16.9054 32.6107 16.8848 32.6875 16.8646 32.7639L16.7491 33.218C16.6574 33.5927 16.577 33.9581 16.5079 34.3134L16.4306 34.7347C15.916 37.718 16.2514 39.9183 17.5264 40.7457C18.8105 41.5788 21.1916 40.945 24.1298 38.8239C24.5368 38.53 25.1051 38.6217 25.3989 39.0288C25.6928 39.4359 25.6011 40.0041 25.194 40.298C21.7117 42.812 18.6336 43.6313 16.5367 42.2709C14.0032 40.6267 13.8251 36.2793 15.5114 30.8709L15.6862 30.3266C15.8068 29.9615 15.9357 29.5919 16.0727 29.2182L16.2841 28.6549C16.5741 27.9 16.896 27.13 17.2487 26.3491L17.5191 25.7613L17.8008 25.1697C18.1598 24.4288 18.5453 23.6799 18.9563 22.9262C18.902 22.7868 18.8479 22.6478 18.7946 22.5092L18.5594 21.8848C18.253 21.0552 17.9757 20.2374 17.7281 19.4352L17.548 18.8366C17.4369 18.4571 17.3325 18.0814 17.2351 17.7099L16.902 17.7789L16.4076 17.8876L15.9252 18.0017C15.8458 18.0212 15.7669 18.0409 15.6886 18.0608L15.2248 18.1827L14.7738 18.3097C14.6256 18.3529 14.4796 18.3969 14.3359 18.4417L13.9115 18.5784C13.7723 18.6248 13.6355 18.6719 13.501 18.7198L13.1046 18.8658C10.38 19.9031 8.72041 21.2642 8.6433 22.7468C8.57282 24.098 9.92126 25.6276 12.5734 27.0047C13.019 27.2361 13.1926 27.7848 12.9613 28.2304C12.7299 28.676 12.1811 28.8496 11.7356 28.6183C8.51921 26.9482 6.71055 24.8966 6.82762 22.6522C6.99036 19.5235 10.9398 17.1353 16.8142 15.9294C15.6253 10.2485 16.2304 5.82858 18.963 4.43502C20.9827 3.40397 23.6215 4.24414 26.4891 6.54773ZM145.706 9.80185C154.495 9.80185 160.258 16.8088 160.258 24.7271V24.811C160.258 32.7299 154.412 39.8195 145.623 39.8195C136.833 39.8195 131.069 32.8131 131.069 24.8936V24.811C131.069 16.892 136.916 9.80185 145.706 9.80185ZM175.099 10.1749C175.555 10.1749 175.888 10.424 176.177 10.7977L187.496 27.4644L198.816 10.7977C199.064 10.424 199.438 10.1749 199.893 10.1749H200.101C200.68 10.1749 201.179 10.6731 201.179 11.2528V38.4092C201.179 38.9901 200.68 39.4883 200.101 39.4883C199.52 39.4883 199.023 38.9901 199.023 38.4092V14.114L188.367 29.6208C188.118 29.9944 187.828 30.1597 187.455 30.1597C187.081 30.1597 186.791 29.9944 186.543 29.6208L175.888 14.114V38.4517C175.888 39.0314 175.431 39.4883 174.851 39.4883C174.27 39.4883 173.814 39.032 173.814 38.4517V11.2528C173.814 10.6731 174.311 10.1749 174.892 10.1749H175.099ZM121.038 10.2989C121.576 10.2989 122.033 10.7546 122.033 11.2941C122.033 11.8337 121.576 12.2894 121.038 12.2894H111.75V38.4104C111.75 38.9901 111.253 39.4883 110.672 39.4883C110.092 39.4883 109.594 38.9901 109.594 38.4104V12.2894H100.306C99.7676 12.2894 99.3113 11.8343 99.3113 11.2941C99.3113 10.7552 99.767 10.2989 100.306 10.2989H121.038ZM78.4169 10.0091C79.163 10.0091 79.578 10.424 79.8673 11.0468L92.2229 37.8296C92.3475 38.0787 92.3888 38.2859 92.3888 38.4937C92.3888 39.032 91.9331 39.4883 91.3516 39.4883C90.8546 39.4883 90.4815 39.1152 90.2743 38.6589L86.8748 31.1957H69.7506L66.3504 38.7009C66.1432 39.1979 65.8121 39.4883 65.3139 39.4883C64.7749 39.4883 64.3186 39.0739 64.3186 38.5757C64.3192 38.4098 64.3611 38.1613 64.4857 37.9128L76.8821 11.0468C77.1725 10.424 77.5869 10.0091 78.3336 10.0091H78.4169ZM145.623 11.7505C138.449 11.7505 133.308 17.5549 133.308 24.7271V24.811C133.308 31.9838 138.532 37.8709 145.706 37.8709C152.878 37.8709 158.019 32.0664 158.019 24.8936V24.811C158.019 17.6382 152.795 11.7505 145.623 11.7505ZM78.333 12.4559L70.6626 29.2471H85.9622L78.333 12.4559ZM31.4711 23.458C31.7727 24.8541 30.8855 26.2295 29.4894 26.5317C28.0933 26.8333 26.7179 25.9461 26.4157 24.55C26.1146 23.154 27.0013 21.7786 28.3973 21.4763C29.7934 21.1747 31.1688 22.0619 31.4711 23.458ZM22.6699 16.9996L22.6309 17.0025C22.4635 17.0142 22.2971 17.0266 22.1316 17.0399L21.5402 17.0908L20.9576 17.1485C20.8613 17.1586 20.7653 17.169 20.6697 17.1797L20.1009 17.247C20.0069 17.2588 19.9133 17.2708 19.8201 17.2831L19.2658 17.3598L19.0458 17.3931L19.1236 17.6835C19.2453 18.1257 19.3771 18.5752 19.519 19.0309L19.6941 19.5807L19.7853 19.8578L19.9749 20.416C20.0271 20.5667 20.0804 20.718 20.1347 20.8698C20.4224 20.3909 20.7202 19.9109 21.0276 19.4308L21.224 19.1262C21.6973 18.3968 22.18 17.6873 22.6699 16.9996Z" fill="#60B57D"/>
</svg>
