<svg width="168" height="48" viewBox="0 0 168 48" fill="none" xmlns="http://www.w3.org/2000/svg">
<path d="M40.2931 40.9143L38.4297 35.8493C38.4297 35.8493 35.4018 39.2263 30.8612 39.2263C26.8434 39.2263 23.9906 35.7329 23.9906 30.1432C23.9906 22.982 27.6 20.4203 31.1521 20.4203C36.2753 20.4203 37.9056 23.739 39.303 27.9892L41.1663 33.8115C43.029 39.4589 46.5224 44 56.5947 44C63.8148 44 68.7054 41.7878 68.7054 35.966C68.7054 31.2498 66.0266 28.8043 61.0196 27.6397L57.2935 26.8247C54.732 26.2425 53.9752 25.1944 53.9752 23.4477C53.9752 21.4682 55.5468 20.3038 58.109 20.3038C60.9036 20.3038 62.4172 21.3519 62.6503 23.8555L68.4724 23.1566C68.0066 17.9168 64.397 15.7625 58.4581 15.7625C53.2184 15.7625 48.0947 17.7421 48.0947 24.0883C48.0947 28.0475 50.0161 30.5512 54.848 31.7155L58.8078 32.647C61.7771 33.3458 62.7663 34.5683 62.7663 36.2568C62.7663 38.4106 60.6705 39.284 56.7114 39.284C50.8309 39.284 48.3858 36.1984 46.9882 31.9482L45.0668 26.1263C42.622 18.5574 38.7208 15.7625 30.977 15.7625C22.4186 15.7625 17.877 21.1771 17.877 30.3761C17.877 39.2263 22.4186 44 30.5699 44C37.1486 44 40.2931 40.9143 40.2931 40.9143Z" fill="#D41107"/>
<path d="M15.3773 38.1777C14.7949 38.3526 14.2128 38.4688 13.456 38.4688C12.0586 38.4688 11.0687 37.8286 11.0687 36.1397V4.40751H4.95508V37.5956C4.95508 41.9622 7.98298 43.7678 11.5344 43.7678C12.6989 43.7678 13.8053 43.5927 15.2027 43.2439L15.3773 38.1777Z" fill="#D41107"/>
<path d="M89.0251 37.2463C87.5112 38.2948 86.2305 38.819 84.4838 38.819C82.2711 38.819 81.0483 37.6544 81.0483 34.8014V21.1762H89.0835V16.4022H81.1066V9.93893L74.935 10.696V16.4022H71.0336V21.1762H74.935V36.0817C74.935 41.4394 78.0207 44 83.0279 44C85.7645 44 88.21 43.4767 90.1314 42.3706L89.0251 37.2463Z" fill="#D41107"/>
<path d="M94.3352 39.342C94.3352 41.7298 96.1986 43.6511 98.5854 43.6511C101.089 43.6511 102.953 41.7298 102.953 39.342C102.953 36.8967 101.089 35.0343 98.5854 35.0343C96.1986 35.0343 94.3352 36.8967 94.3352 39.342Z" fill="#D41107"/>
<path d="M109.282 21.1762V43.3016H115.395V21.1762H122.266V16.4022H115.395V13.9565C115.395 10.2887 116.967 9.12435 119.529 9.12435C121.334 9.12435 122.557 9.53142 123.954 10.2887L124.944 5.16454C123.314 4.40751 121.392 4 119.063 4C113.939 4 109.282 6.4453 109.282 13.7234V16.4022H105.38V21.1762H109.282Z" fill="#D41107"/>
<path d="M146.626 21.7008C145.927 17.3339 143.075 15.7612 139.348 15.7612C135.622 15.7612 132.42 17.4499 131.022 21.5837L130.265 16.4022H125.316V43.3016H131.43V28.1055C131.43 22.9229 134.108 20.9433 136.961 20.9433C139.93 20.9433 141.153 22.9229 141.153 26.1254V43.3016H147.209V28.0472C147.209 22.9229 149.945 20.9433 152.798 20.9433C155.709 20.9433 156.932 22.9229 156.932 26.1254V43.3016H163.046V23.9717C163.046 18.2074 159.669 15.7612 155.185 15.7612C151.401 15.7612 148.024 17.4499 146.626 21.7008Z" fill="#D41107"/>
</svg>
