<svg width="192" height="48" viewBox="0 0 192 48" fill="none" xmlns="http://www.w3.org/2000/svg">
<path fill-rule="evenodd" clip-rule="evenodd" d="M58.6998 36.963C58.6998 34.0607 58.9969 32.5715 60.486 32.5715C61.9996 32.5715 62.2976 34.0607 62.2976 36.963C62.2976 39.8674 61.9996 41.3566 60.486 41.3566C58.9979 41.3566 58.6998 39.8674 58.6998 36.963ZM62.4466 43.6416H65.719V25.9396H62.2986V31.5375H62.25C61.5302 30.4781 60.6614 29.9611 59.3709 29.9611C56.57 29.9611 55.2815 32.0048 55.2815 36.962C55.2815 41.9537 56.57 43.9964 59.3709 43.9964C60.7111 43.9964 61.6539 43.4794 62.399 42.2477H62.4476V43.6416H62.4466ZM70.9509 36.9792C70.9509 34.2492 71.0989 32.2886 72.7858 32.2886C74.1746 32.2886 74.6207 33.6552 74.6207 36.9792C74.6207 40.3053 74.1756 41.6698 72.7858 41.6698C71.0999 41.6688 70.9509 39.7092 70.9509 36.9792ZM67.5316 36.9792C67.5316 41.6202 68.671 44.0714 72.7858 43.9984C76.7019 43.9984 78.041 41.5472 78.041 36.9792C78.041 32.3404 76.9006 29.8871 72.7858 29.9621C68.8697 29.9621 67.5316 32.4133 67.5316 36.9792ZM86.4257 35.1139C86.4257 33.8214 86.1773 32.4316 84.8889 32.4316C83.203 32.4316 82.9303 33.9228 82.9303 37.0015C82.9303 40.3043 83.2273 41.6698 84.7652 41.6698C85.9056 41.6698 86.4257 40.7017 86.4257 38.5414H89.6991C89.6991 42.0419 88.2373 43.9984 84.6162 43.9984C81.1968 43.9984 79.511 42.3389 79.511 36.9752C79.511 31.4929 81.7665 29.9621 84.9142 29.9621C88.0629 29.9621 89.6991 31.9622 89.6991 35.1139H86.4257ZM98.2936 42.1027H98.2439C97.5231 43.4074 96.2813 43.9974 94.8398 43.9974C92.7089 43.9974 91.4437 42.8387 91.4437 40.1918V30.3139H94.8641V39.4994C94.8641 40.8355 95.3112 41.3566 96.331 41.3566C97.4988 41.3566 98.1446 40.6378 98.1446 39.1527V30.3139H101.566V43.6405H98.2926V42.1027H98.2936ZM104.085 30.3179H107.354V31.6601H107.404C108.277 30.4548 109.348 29.9611 110.794 29.9611C112.354 29.9611 113.495 30.7234 113.867 32.0778H113.916C114.439 30.6738 115.684 29.9611 117.304 29.9611C119.558 29.9611 120.624 31.3631 120.624 33.935V43.6446H117.205V34.309C117.205 33.1899 116.831 32.5705 115.859 32.5705C114.762 32.5705 114.064 33.3146 114.064 34.8534V43.6446H110.643V34.309C110.643 33.1899 110.271 32.5705 109.299 32.5705C108.202 32.5705 107.504 33.3146 107.504 34.8534V43.6446H104.085V30.3179ZM126.043 35.4657V34.9447C126.043 33.7028 126.441 32.2876 127.805 32.2876C129.217 32.2876 129.464 33.4301 129.537 35.4657H126.043ZM132.812 37.5054V36.7329C132.812 32.6364 131.918 29.9611 127.927 29.9611C123.316 29.9611 122.623 33.2811 122.623 36.8576C122.623 40.1817 122.823 43.9974 127.779 43.9974C131.003 43.9974 132.489 42.2649 132.615 39.1659H129.538C129.342 40.801 128.871 41.6688 127.729 41.6688C126.465 41.6688 126.044 40.132 126.044 38.5698V37.5044H132.812V37.5054ZM134.839 30.3179H138.11V31.8568H138.16C138.881 30.5521 140.125 29.9621 141.563 29.9621C143.696 29.9621 144.961 31.1188 144.961 33.7677V43.6456H141.542V34.4601C141.542 33.124 141.093 32.6029 140.075 32.6029C138.905 32.6029 138.259 33.3216 138.259 34.8068V43.6456H134.84V30.3179H134.839ZM148.218 26.4971H151.64V30.3149H153.622V32.6414H151.64V39.8542C151.64 40.8953 151.864 41.317 152.853 41.317C153.127 41.317 153.4 41.2937 153.622 41.2674V43.6375C152.88 43.7125 152.184 43.7855 151.392 43.7855C148.715 43.7855 148.218 42.9715 148.218 40.2749V32.6404H146.484V30.3139H148.218V26.4971ZM162.756 42.1027H162.705C161.986 43.4074 160.742 43.9974 159.302 43.9974C157.171 43.9974 155.906 42.8387 155.906 40.1918V30.3139H159.327V39.4994C159.327 40.8355 159.772 41.3566 160.792 41.3566C161.96 41.3566 162.605 40.6378 162.605 39.1527V30.3139H166.027V43.6405H162.755V42.1027H162.756ZM168.543 30.3179H171.814V31.6601H171.864C172.737 30.4548 173.806 29.9611 175.252 29.9611C176.812 29.9611 177.952 30.7234 178.325 32.0778H178.374C178.897 30.6738 180.142 29.9611 181.762 29.9611C184.016 29.9611 185.082 31.3631 185.082 33.935V43.6446H181.663V34.309C181.663 33.1899 181.289 32.5705 180.317 32.5705C179.22 32.5705 178.522 33.3146 178.522 34.8534V43.6446H175.101V34.309C175.101 33.1899 174.729 32.5705 173.757 32.5705C172.66 32.5705 171.962 33.3146 171.962 34.8534V43.6446H168.543V30.3179Z" fill="black"/>
<path fill-rule="evenodd" clip-rule="evenodd" d="M42.6808 25.971H36.9349C36.1421 25.968 34.432 25.7764 33.1628 25.3962C32.738 25.2695 31.6067 24.9309 30.5108 24.2426C29.492 23.6029 28.5522 22.721 27.6196 21.5359C26.3007 19.8582 25.4897 18.2453 25.0265 16.1398C24.8075 15.1382 24.7538 14.2532 24.6919 12.9688C24.6656 12.4011 24.475 11.1673 24.475 11.1673C24.0542 9.0057 22.8435 7.07821 21.0789 5.76066C19.3143 4.44311 17.1223 3.82994 14.9302 4.04068C12.7381 4.25143 10.703 5.27098 9.22176 6.90058C7.74049 8.53018 6.91919 10.653 6.91797 12.8552C6.91797 17.189 10.0312 20.7908 14.1409 21.5582C14.1409 21.5582 15.6199 21.7843 16.3569 21.7944C19.1822 21.8329 21.8737 22.648 24.3493 24.5863C26.1365 25.9862 28.6364 28.1161 28.9273 33.8661V39.7224C28.9273 40.7708 29.3437 41.7763 30.085 42.5177C30.8262 43.2591 31.8315 43.6758 32.8799 43.676H42.6798C43.7283 43.676 44.7339 43.2595 45.4754 42.5181C46.2168 41.7766 46.6334 40.771 46.6334 39.7224V29.9236C46.6335 29.4045 46.5314 28.8905 46.3328 28.4109C46.1342 27.9313 45.843 27.4955 45.476 27.1284C45.1089 26.7614 44.6731 26.4702 44.1935 26.2716C43.7139 26.073 43.1999 25.9709 42.6808 25.971Z" fill="#2360A5"/>
<path d="M22.1171 41.2439C20.4553 42.9057 18.2015 43.8393 15.8514 43.8393C13.5012 43.8393 11.2474 42.9057 9.5856 41.2439C7.92381 39.5821 6.99023 37.3283 6.99023 34.9782C6.99023 32.628 7.92381 30.3742 9.5856 28.7124C11.2474 27.0506 13.5012 26.117 15.8514 26.117C18.2015 26.117 20.4553 27.0506 22.1171 28.7124C23.7789 30.3742 24.7125 32.628 24.7125 34.9782C24.7125 37.3283 23.7789 39.5821 22.1171 41.2439Z" fill="black"/>
<path d="M44.0457 6.70536C45.7077 8.36696 46.6415 10.6207 46.6418 12.9708C46.642 15.3209 45.7087 17.5749 44.0471 19.2369C42.3855 20.8989 40.1318 21.8327 37.7817 21.833C35.4315 21.8332 33.1776 20.8999 31.5156 19.2383C29.8536 17.5767 28.9198 15.323 28.9195 12.9729C28.9192 10.6227 29.8526 8.36877 31.5142 6.7068C33.1758 5.04483 35.4295 4.11099 37.7796 4.11072C40.1297 4.11045 42.3837 5.04377 44.0457 6.70536Z" fill="black"/>
</svg>
