<svg width="208" height="48" viewBox="0 0 208 48" fill="none" xmlns="http://www.w3.org/2000/svg">
<path fill-rule="evenodd" clip-rule="evenodd" d="M4.13867 28.0031C4.13867 32.4191 15.6099 36.0034 29.7624 36.0034V44.0005C15.6099 44.0005 4.13867 40.4194 4.13867 36.0034V28.0031ZM55.3942 28.0031V36.0018C55.3942 37.8872 53.2981 39.6169 49.8078 40.9852L29.7608 36.0018V28.0031L49.8078 32.9848C53.2981 31.6182 55.3959 29.8885 55.3942 28.0031ZM29.7624 4.00049C43.9166 4.00049 55.3942 7.58807 55.3942 12.0008V20.006C55.3942 21.8849 53.2981 23.6211 49.8094 24.9829L29.7624 20.006V28.0031C15.6099 28.0031 4.13867 24.4204 4.13867 20.006V12.0008C4.13867 7.58807 15.6099 4.00049 29.7624 4.00049Z" fill="#D33C44"/>
<path fill-rule="evenodd" clip-rule="evenodd" d="M77.5698 13.2783C81.5789 13.2783 83.9814 14.6173 85.9543 16.5595L82.9779 19.9914C81.3373 18.5032 79.6659 17.5921 77.5406 17.5921C73.9547 17.5921 71.3754 20.5685 71.3754 24.2129V24.2761C71.3754 27.9204 73.8947 30.9584 77.5406 30.9584C79.9707 30.9584 81.4573 29.9874 83.1271 28.4667L86.1035 31.4723C83.9198 33.8132 81.4897 35.2723 77.3899 35.2723C71.1306 35.2723 66.4845 30.4413 66.4845 24.3344V24.2761C66.4845 18.2325 71.0399 13.2783 77.5698 13.2783ZM131.813 18.32C137.25 18.32 139.742 22.5431 139.742 27.1617V27.2217C139.742 27.6772 139.713 27.9512 139.682 28.3776H128.352C128.806 30.4721 130.265 31.5647 132.332 31.5647C133.882 31.5647 135.004 31.0768 136.279 29.8933L138.925 32.2343C137.403 34.118 135.216 35.2723 132.27 35.2723C127.379 35.2723 123.761 31.8403 123.761 26.8586V26.7953C123.761 22.1475 127.075 18.32 131.813 18.32ZM96.0978 18.4416C101.141 18.4416 103.361 21.0533 103.361 25.4611V34.9059H98.891V33.1453C97.7692 34.3904 96.221 35.2107 93.9709 35.2107C90.9053 35.2107 88.3828 33.4485 88.3828 30.2289V30.1657C88.3828 26.6105 91.0853 24.9699 94.9419 24.9699C96.5842 24.9699 97.7692 25.2439 98.9251 25.6378V25.3671C98.9251 23.4558 97.74 22.3907 95.4299 22.3907C93.6693 22.3907 92.4243 22.7263 90.9361 23.271L89.7802 19.7482C91.5732 18.9555 93.3354 18.4416 96.0978 18.4416ZM111.953 12.7287V24.5501L117.362 18.6248H122.889L116.693 25.0315L123.101 34.9059H117.818L113.564 28.2544L111.953 29.9549V34.9059H107.339V12.7287H111.953ZM152.35 13.6414C157.421 13.6414 160.489 16.6486 160.489 20.9965V21.0549C160.488 25.975 156.66 28.5267 151.891 28.5267H148.341V34.9059H143.662V13.6414H152.35ZM168.628 13.6414V22.0567H177.255V13.6414H181.932V34.9059H177.255V26.3657H168.628V34.9059H163.951V13.6414H168.628ZM195.722 13.6414C200.793 13.6414 203.863 16.6486 203.863 20.9965V21.0549C203.865 25.975 200.037 28.5267 195.269 28.5267H191.713V34.9059H187.034V13.6414H195.722ZM96.0395 27.7372C94.0649 27.7372 92.8474 28.5267 92.8474 29.9857V30.0457C92.8474 31.2891 93.8817 32.0186 95.3683 32.0186C97.5244 32.0186 98.9851 30.8385 98.9851 29.1638V28.3451C98.1972 27.9771 97.1613 27.7372 96.0395 27.7372ZM131.815 22.0276C129.902 22.0276 128.654 23.3942 128.29 25.4887H135.248C134.973 23.4217 133.759 22.0276 131.815 22.0276ZM151.953 17.8661H148.339V24.3701H152.045C154.383 24.3701 155.749 22.9678 155.749 21.1489V21.0841C155.749 18.9895 154.294 17.8661 151.953 17.8661ZM195.328 17.8661H191.713V24.3701H195.417C197.758 24.3701 199.124 22.9678 199.124 21.1489V21.0841C199.124 18.9895 197.667 17.8661 195.328 17.8661Z" fill="#D33C44"/>
</svg>
