<svg width="160" height="64" viewBox="0 0 160 64" fill="none" xmlns="http://www.w3.org/2000/svg">
<path d="M10.9619 56.8817C14.6088 56.8817 17.5653 53.9253 17.5653 50.2783C17.5653 46.6313 14.6088 43.6749 10.9619 43.6749C7.31489 43.6749 4.35843 46.6313 4.35843 50.2783C4.35843 53.9253 7.31489 56.8817 10.9619 56.8817Z" fill="#33547D"/>
<path d="M34.7987 55.0211C37.3782 55.0211 39.4693 52.93 39.4693 50.3505C39.4693 47.771 37.3782 45.6799 34.7987 45.6799C32.2192 45.6799 30.1281 47.771 30.1281 50.3505C30.1281 52.93 32.2192 55.0211 34.7987 55.0211Z" fill="#33547D"/>
<path d="M54.4478 52.4709C55.6189 52.4709 56.5683 51.5216 56.5683 50.3505C56.5683 49.1794 55.6189 48.23 54.4478 48.23C53.2767 48.23 52.3273 49.1794 52.3273 50.3505C52.3273 51.5216 53.2767 52.4709 54.4478 52.4709Z" fill="#33547D"/>
<path d="M33.5407 36.443C32.3797 36.443 31.5197 35.5404 31.5197 34.4221V25.8223C31.5197 22.8553 30.1008 20.5764 26.9188 20.5764C23.7369 20.5764 21.8019 23.0273 21.8019 25.8656V34.4221C21.8019 35.5404 21.028 36.443 19.781 36.443C18.577 36.443 17.76 35.5404 17.76 34.4221V25.8223C17.76 22.8553 16.2121 20.5764 13.0301 20.5764C9.76219 20.5764 8.04222 23.0273 8.04222 25.8656V34.4221C8.04222 35.5404 7.22524 36.443 6.02127 36.443C4.85998 36.443 4 35.5404 4 34.4221V19.1574C4 17.9534 4.77398 17.0934 6.02096 17.0934C7.39693 17.0934 8.04192 18.0394 8.04192 19.1574V20.5334C9.20289 18.2544 11.5678 16.9214 14.1048 16.9214C17.2007 16.9214 19.5227 18.4694 20.6837 20.7484C22.3606 18.1684 24.8116 16.9214 27.8645 16.9214C33.0674 16.9214 35.5613 20.4904 35.5613 25.5213V34.4218C35.561 35.5404 34.7447 36.443 33.5407 36.443Z" fill="#33547D"/>
<path d="M41.2375 9.43959C42.5275 9.43959 43.6025 10.5146 43.6025 11.8045C43.6025 13.0945 42.5275 14.1695 41.2375 14.1695C39.9476 14.1695 38.8726 13.0945 38.8726 11.8045C38.8726 10.5146 39.9476 9.43959 41.2375 9.43959ZM41.2375 36.443C40.0336 36.443 39.2166 35.5404 39.2166 34.4221V19.1144C39.2166 17.9964 40.0766 17.0934 41.2375 17.0934C42.3985 17.0934 43.2585 17.9964 43.2585 19.1144V34.4221C43.2579 35.5404 42.4415 36.443 41.2375 36.443Z" fill="#33547D"/>
<path d="M54.6523 24.0593L59.7692 17.6954C60.1132 17.3084 60.5432 17.0934 61.1022 17.0934C62.2202 17.0934 62.9512 17.8244 62.9512 18.8564C62.9512 19.2434 62.8222 19.6304 62.4782 20.0174L56.8453 26.7252L62.5642 33.4758C62.8652 33.8198 63.0372 34.1638 63.0372 34.6798C63.0372 35.6694 62.1772 36.4427 61.2312 36.4427C60.6292 36.4427 60.1562 36.2277 59.8122 35.7971L54.6523 29.3909L49.4924 35.7971C49.1484 36.2268 48.6755 36.4427 48.0735 36.4427C47.1275 36.4427 46.2675 35.6684 46.2675 34.6798C46.2675 34.1638 46.4395 33.8198 46.7405 33.4758L52.4594 26.7252L46.8265 20.0177C46.4825 19.6301 46.3535 19.2434 46.3535 18.8567C46.3535 17.8247 47.0845 17.0937 48.2025 17.0937C48.7615 17.0937 49.1914 17.3087 49.5354 17.6957L54.6523 24.0593Z" fill="#33547D"/>
<path d="M76.7109 36.6153C73.8299 36.6153 71.465 35.111 70.089 32.9177V42.4635C70.089 43.5818 69.272 44.4839 68.0681 44.4839C66.8641 44.4839 66.0471 43.5815 66.0471 42.4635V19.1144C66.0471 17.9964 66.7351 17.0934 67.9821 17.0934C69.229 17.0934 69.96 18.0394 69.96 19.1574V20.62C71.25 18.384 73.8299 16.9221 76.7109 16.9221C81.6558 16.9221 85.6977 21.0494 85.6977 26.7688C85.6977 32.7021 81.6558 36.6153 76.7109 36.6153ZM75.8942 20.2757C72.4113 20.2757 70.0893 23.328 70.0893 26.7685C70.0893 30.2091 72.4113 33.2614 75.8942 33.2614C79.3771 33.2614 81.6558 30.6388 81.6558 26.7685C81.6558 22.8986 79.3768 20.2757 75.8942 20.2757Z" fill="#33547D"/>
<path d="M107.025 34.4221C107.025 35.5404 106.251 36.443 105.004 36.443C103.8 36.443 103.027 35.5404 103.027 34.4221V33.4761C101.823 35.2821 99.544 36.6153 96.7497 36.6153C90.7286 36.6153 87.2466 32.2297 87.2466 26.7682C87.2466 21.3933 91.1171 16.9214 97.1794 16.9214C103.371 16.9214 107.026 20.9634 107.026 26.7682V34.4221H107.025ZM97.1355 20.3614C93.6952 20.3614 91.2873 23.2429 91.2873 26.7682C91.2873 30.4662 93.3082 33.1751 97.1355 33.1751C100.704 33.1751 102.983 30.1222 102.983 26.7682C102.983 22.8123 100.575 20.3614 97.1355 20.3614Z" fill="#33547D"/>
<path d="M119.194 16.9221C124.397 16.9221 128.224 20.878 128.224 25.9089V34.4224C128.224 35.541 127.321 36.4433 126.203 36.4433C125.085 36.4433 124.182 35.541 124.182 34.4224V25.4356C124.182 22.7266 122.032 20.6197 119.194 20.6197C116.356 20.6197 114.249 22.726 114.249 25.4356V34.4224C114.249 35.541 113.346 36.4433 112.228 36.4433C111.11 36.4433 110.207 35.541 110.207 34.4224V25.9086C110.207 20.8777 113.991 16.9221 119.194 16.9221Z" fill="#33547D"/>
<path d="M149.25 26.8112C149.25 27.4992 148.863 28.1872 147.702 28.1872H134.846C135.06 31.1541 137.081 33.3898 140.65 33.3898C142.886 33.3898 144.219 32.6155 145.638 31.2828C145.982 30.9388 146.455 30.6372 146.971 30.6372C147.873 30.6372 148.648 31.2828 148.648 32.3145C148.648 32.7439 148.433 33.1309 148.132 33.4749C146.498 35.3668 143.574 36.6144 140.478 36.6144C134.071 36.6144 130.674 32.1419 130.674 26.767C130.674 21.1341 134.759 16.9202 140.305 16.9202C145.724 16.9221 149.25 21.3073 149.25 26.8112ZM140.306 20.147C137.339 20.147 135.318 22.2533 134.931 24.9199H145.509C145.165 22.3393 143.23 20.147 140.306 20.147Z" fill="#33547D"/>
<path d="M153.98 36.443C152.775 36.443 151.959 35.5404 151.959 34.4221V9.13921C151.959 8.02062 152.776 7.11826 153.98 7.11826C155.184 7.11826 156 8.02062 156 9.13921V34.4221C156.001 35.5404 155.184 36.443 153.98 36.443Z" fill="#33547D"/>
</svg>
