<svg width="160" height="72" viewBox="0 0 160 72" fill="none" xmlns="http://www.w3.org/2000/svg">
<path d="M105.984 6.44585V12.9437H104.685L104.221 10.1597C104.146 9.67986 103.955 9.22565 103.664 8.8372C103.372 8.44875 102.99 8.13802 102.55 7.93242C101.447 7.4178 100.24 7.16377 99.0236 7.18998C98.3571 7.1848 97.6974 7.32306 97.0891 7.59537C96.4808 7.86768 95.9381 8.26767 95.4981 8.76819C94.5668 9.81303 94.0691 11.1737 94.1065 12.5729C94.0565 13.556 94.3892 14.5203 95.0348 15.2635C95.5988 15.9492 96.2926 16.5169 97.0763 16.9341C97.8187 17.3049 99.1178 17.9523 100.973 18.6973C102.269 19.2309 103.511 19.8843 104.685 20.6489C105.671 21.2801 106.522 22.0999 107.19 23.0612C107.872 24.1097 108.226 25.3371 108.209 26.5875C108.195 27.7702 107.942 28.9379 107.466 30.0206C106.98 31.1276 106.251 32.1108 105.332 32.897C104.392 33.7595 103.287 34.4232 102.084 34.8485C100.778 35.335 99.3953 35.5864 98.0011 35.591C96.3195 35.6012 94.641 35.4458 92.9899 35.1268C91.8746 34.9471 90.7851 34.6331 89.7452 34.1918V26.8607H91.0443L91.4151 29.7372C91.4516 30.3965 91.6484 31.0369 91.9885 31.6029C92.3286 32.1689 92.8017 32.6434 93.3666 32.9852C94.8684 33.7048 96.5305 34.0246 98.1921 33.9135C99.3611 33.9468 100.517 33.658 101.533 33.0785C102.468 32.5459 103.214 31.7351 103.667 30.7588C104.14 29.8394 104.394 28.823 104.409 27.789C104.414 27.0679 104.249 26.3557 103.926 25.7107C103.604 25.0657 103.133 24.5061 102.553 24.0777C100.795 22.8358 98.8947 21.8078 96.893 21.0154C95.7338 20.5525 94.6155 19.9931 93.5499 19.343C92.6024 18.7676 91.8069 17.9733 91.2301 17.0266C90.5666 15.9073 90.244 14.6187 90.3019 13.3187C90.2885 11.8275 90.7237 10.3667 91.5511 9.12595C92.3784 7.88523 93.5597 6.92189 94.9415 6.361C96.3389 5.72375 97.8604 5.40495 99.3961 5.42765C100.139 5.42765 100.973 5.52013 101.808 5.52013C102.62 5.59129 103.425 5.71515 104.221 5.89093C104.782 6.15076 105.375 6.33726 105.984 6.44585Z" fill="#5F6062"/>
<path d="M57.8247 33.7293C57.6277 33.7082 57.4392 33.6375 57.2769 33.5238C57.1146 33.4102 56.9837 33.2573 56.8964 33.0794C56.7106 32.7086 56.3398 31.5945 55.6899 29.7389L50.0304 13.037C49.7521 12.2021 49.4738 11.2738 49.1021 10.3464C48.7305 9.41899 48.5455 8.6757 48.3597 8.11909C48.1739 7.56247 47.8955 6.82003 47.6172 5.89178H45.0191L33.7909 31.6862C33.5522 32.262 33.2732 32.8203 32.956 33.3569C32.8581 33.5137 32.7181 33.6398 32.5519 33.7209C32.3858 33.8019 32.2002 33.8346 32.0163 33.8153C31.8325 33.7959 31.6578 33.7252 31.5121 33.6113C31.3665 33.4974 31.2559 33.3448 31.1928 33.171C31.007 32.8002 30.6362 31.6862 29.9863 29.8305L24.3268 13.1295C24.0485 12.2946 23.7702 11.3663 23.3985 10.4389C23.0269 9.51147 22.8419 8.76819 22.6561 8.21157C22.4703 7.65496 22.1919 6.91252 21.9136 5.98426H19.3155L8.08734 31.6862C7.84864 32.262 7.56964 32.8203 7.25242 33.3569C7.06761 33.5945 6.80456 33.759 6.50998 33.821L4.93262 34.0085V35.2151H13.5627V34.0085L11.4287 33.7302C11.1761 33.6909 10.9276 33.6287 10.6863 33.5444C10.5468 33.4749 10.4211 33.3806 10.3155 33.2661C10.223 33.1736 10.223 32.9878 10.223 32.7095C10.2574 32.2263 10.3832 31.7541 10.5938 31.3179L13.4702 24.5443H24.2334C25.0684 26.9566 25.7183 28.8131 26.0891 30.0189C26.3519 30.7715 26.5383 31.5487 26.6457 32.3387C26.6645 32.5042 26.6495 32.6718 26.6017 32.8313C26.5538 32.9908 26.4741 33.139 26.3674 33.2669C26.0499 33.5275 25.6628 33.689 25.2542 33.731L23.2127 34.0094V35.2159H39.3588V34.0085L37.2248 33.7302C36.9722 33.6909 36.7237 33.6287 36.4824 33.5444C36.3429 33.4749 36.2172 33.3806 36.1116 33.2661C36.0191 33.1736 36.0191 32.9878 36.0191 32.7095C36.0535 32.2263 36.1793 31.7541 36.3899 31.3179L39.2663 24.5443H50.0304C50.8653 26.9566 51.5152 28.8131 51.886 30.0189C52.1488 30.7715 52.3353 31.5487 52.4427 32.3387C52.4614 32.5042 52.4464 32.6718 52.3986 32.8313C52.3508 32.9908 52.2711 33.139 52.1643 33.2669C51.8469 33.5275 51.4597 33.689 51.0511 33.731L49.0096 34.0094V35.2159H59.6803V34.0085L57.8247 33.7293ZM14.1193 22.502L19.3155 9.69645C20.8929 13.9652 22.2853 18.2332 23.6768 22.4095H14.1193V22.502ZM39.8229 22.502L44.9266 9.69645C46.504 13.9652 47.8964 18.2332 49.2879 22.4095H39.8229V22.502Z" fill="#5F6062"/>
<path d="M59.0301 13.8718C60.8499 12.2466 63.0478 11.103 65.4232 10.5455C67.7986 9.98796 70.2758 10.0342 72.6287 10.6801C74.9816 11.326 77.1353 12.5509 78.8931 14.243C80.651 15.9351 81.9571 18.0405 82.6922 20.3671C82.6922 20.3917 82.7019 20.4154 82.7194 20.4328C82.7368 20.4502 82.7604 20.46 82.7851 20.46C82.8097 20.46 82.8333 20.4502 82.8508 20.4328C82.8682 20.4154 82.878 20.3917 82.878 20.3671C84.3565 17.0953 84.5551 13.3882 83.4346 9.97721C83.3283 9.67463 83.1713 9.39231 82.9705 9.14228L82.7846 8.95646C80.324 6.74107 77.2081 5.38829 73.9094 5.10319C70.6106 4.81809 67.3089 5.6162 64.5046 7.37656C62.0852 8.97315 60.1321 11.1824 58.8442 13.7793V13.8718C58.9367 13.9652 58.9367 13.9652 59.0301 13.8718Z" fill="#CC0033"/>
<path d="M73.6913 35.6791C70.8652 34.7561 68.3896 32.9895 66.5979 30.6171C64.8061 28.2446 63.7842 25.3802 63.6696 22.4094C63.575 20.5106 63.8631 18.6122 64.5167 16.8269C65.1703 15.0416 66.1761 13.4059 67.4743 12.017V11.9237L67.381 11.8312C63.8024 12.1127 60.4741 13.7768 58.1018 16.4708C57.8431 16.677 57.6763 16.9771 57.6377 17.3057L57.5452 17.584C56.8453 20.8242 57.2289 24.2045 58.6371 27.2055C60.0453 30.2064 62.4001 32.6618 65.3395 34.1942C67.8956 35.5686 70.8032 36.1503 73.6913 35.8649C73.7838 35.8649 73.7838 35.8649 73.7838 35.7724C73.7841 35.7602 73.782 35.7479 73.7774 35.7365C73.7729 35.7251 73.7661 35.7147 73.7575 35.706C73.7489 35.6973 73.7385 35.6904 73.7271 35.6858C73.7158 35.6811 73.7036 35.6789 73.6913 35.6791Z" fill="#CC0033"/>
<path d="M88.0742 20.0896C87.9761 17.1939 87.0413 14.3885 85.3827 12.0128C85.3827 12.0128 85.2903 11.9203 85.2903 12.0128L85.1978 12.1052C85.8267 15.0156 85.5402 18.0493 84.3773 20.7905C83.2145 23.5316 81.2323 25.846 78.7025 27.4164C75.4532 29.4827 71.52 30.184 67.7569 29.368H67.6593V29.4605C69.6859 32.4198 72.7781 34.4811 76.2894 35.2133C76.5904 35.3151 76.9166 35.3151 77.2176 35.2133L77.4959 35.1208C80.6633 34.1217 83.4144 32.1093 85.3258 29.3933C87.2372 26.6773 88.2029 23.4083 88.0742 20.0896Z" fill="#CC0033"/>
<path d="M9.84934 44.3084C9.92666 44.5614 10.0196 44.8093 10.1276 45.0508C10.2357 45.2923 10.3286 45.5403 10.406 45.7933C10.4984 46.0716 10.5918 46.4432 10.6843 46.7215L12.6358 52.3819C12.7222 52.7779 12.8795 53.155 13.0999 53.4951C13.144 53.5517 13.2002 53.5978 13.2643 53.6299C13.3285 53.6621 13.399 53.6795 13.4707 53.6809L14.0274 53.7734V54.1433H10.3135V53.7725L10.9634 53.6801C11.0352 53.6786 11.1057 53.6612 11.1698 53.6291C11.234 53.5969 11.2901 53.5509 11.3342 53.4942C11.4267 53.5867 11.52 53.4942 11.52 53.3084C11.52 53.2159 11.4276 52.9376 11.3342 52.4735C11.2409 52.0094 10.9634 51.4553 10.6843 50.6178H6.97293L6.04806 52.9385C5.98776 53.0858 5.95636 53.2434 5.95558 53.4026V53.5884L6.04806 53.6809C6.09842 53.6745 6.14956 53.6795 6.19772 53.6955C6.24589 53.7115 6.28985 53.7381 6.32637 53.7734L7.06881 53.8659V54.2367H4.09652V53.8659L4.65313 53.7734C4.74562 53.7734 4.83895 53.6809 4.93144 53.5876C5.06182 53.4233 5.1566 53.2338 5.20975 53.031L9.01781 44.2159H9.84934V44.3084ZM9.01781 45.6074L7.25124 49.9687H10.4993C10.036 48.4847 9.57103 47.0923 9.01781 45.6074Z" fill="#CC0033"/>
<path d="M16.8096 48.2055V53.4018C16.8152 53.5303 16.8467 53.6564 16.9021 53.7725C16.9386 53.8078 16.9826 53.8344 17.0307 53.8504C17.0789 53.8664 17.13 53.8714 17.1804 53.865L17.8303 53.9575V54.3283H14.9539V53.9575L15.6039 53.865C15.6964 53.865 15.7897 53.865 15.7897 53.7725C15.8401 53.7224 15.8725 53.6571 15.8822 53.5867C15.8837 53.3669 15.9148 53.1483 15.9747 52.9368C15.9747 52.751 15.9747 52.0085 16.0671 50.8953V47.9255C16.0671 47.833 15.9747 47.833 15.8813 47.833L15.2314 47.7406V47.3706H17.5512L19.5927 52.7526L21.7275 47.3706H24.1398V47.7414H23.6765C23.5754 47.7365 23.4762 47.7695 23.3982 47.8339C23.3057 47.9264 23.3057 48.0197 23.3057 48.2047V53.3101C23.3057 53.4959 23.3057 53.5884 23.3982 53.6809C23.4907 53.7734 23.4907 53.7734 23.6765 53.7734L24.4189 53.8659V54.2367H20.9859V53.8659L21.6358 53.7734C21.7076 53.772 21.7781 53.7546 21.8423 53.7224C21.9064 53.6903 21.9626 53.6442 22.0066 53.5876C22.1145 52.726 22.1455 51.8565 22.0991 50.9895C22.1165 50.1842 22.0856 49.3787 22.0066 48.5772L19.686 54.3283H19.1294C18.4685 52.2465 17.6941 50.2026 16.8096 48.2055Z" fill="#CC0033"/>
<path d="M28.6869 50.9895V53.7734L31.0067 53.6809C31.1925 53.6809 31.285 53.5884 31.3775 53.5884C31.47 53.4959 31.47 53.4026 31.5633 53.1243L31.8416 52.3819L32.2124 52.4743L31.8416 54.33H26.2746V53.9592L26.9245 53.8667C27.1104 53.8667 27.2029 53.7742 27.2953 53.5884C27.2953 53.4026 27.3878 53.0318 27.3878 52.3819V50.7112C27.3948 50.0294 27.3631 49.3478 27.2928 48.6697C27.2848 48.3893 27.2539 48.1101 27.2003 47.8347C27.2003 47.7423 27.1078 47.6489 26.922 47.6489H26.3654V47.2781H31.5616V49.1338H31.1959L31.0101 48.4838C31.0183 48.3973 31.0058 48.31 30.9735 48.2292C30.9411 48.1485 30.89 48.0767 30.8242 48.0197C30.7318 47.9272 30.6384 47.9272 30.4535 47.9272L28.6903 47.8347V50.5253H29.8035C29.9615 50.5141 30.1174 50.483 30.2676 50.4328C30.3601 50.3404 30.3601 50.1545 30.4535 49.9687L30.5459 49.4121H30.9167V52.1994H30.5459L30.4535 51.6428C30.45 51.4707 30.3839 51.3057 30.2676 51.1787C30.1751 51.0862 30.0818 51.0862 29.8035 51.0862L28.6869 50.9895Z" fill="#CC0033"/>
<path d="M36.4812 52.3819V53.5884C36.4908 53.6588 36.5233 53.7241 36.5737 53.7742C36.6662 53.7742 36.6662 53.8667 36.7595 53.8667L37.4095 53.9592V54.33H34.0689V53.9592L34.7189 53.8667C34.9047 53.8667 34.9972 53.7742 35.0897 53.5884C35.1978 52.6646 35.2287 51.7334 35.1821 50.8045C35.1821 50.0621 35.1821 49.1338 35.0897 48.2064C35.0897 48.0206 35.0897 47.9281 34.9972 47.8356C34.9972 47.7431 34.9047 47.7431 34.7189 47.7431L34.0689 47.6506V47.2781H37.317C37.7559 47.2878 38.192 47.3502 38.616 47.464C38.9723 47.5569 39.2945 47.7501 39.5443 48.0206C39.7432 48.2589 39.8716 48.5481 39.9151 48.8555C39.9019 49.2987 39.7382 49.7243 39.4509 50.0621C39.0809 50.3867 38.6335 50.6105 38.1519 50.712L40.2859 53.4959L40.5642 53.7742C40.6567 53.7742 40.75 53.8667 40.8425 53.8667L41.3066 53.9592V54.33H39.4509C39.1726 53.9592 38.8943 53.4951 38.616 53.1234C38.2848 52.7064 37.975 52.2728 37.6878 51.8244C37.317 51.3603 37.0378 51.082 36.8528 50.8062C37.3917 50.7691 37.9079 50.575 38.3377 50.2479C38.4862 50.1032 38.6038 49.93 38.6836 49.7387C38.7633 49.5474 38.8036 49.3419 38.8018 49.1346C38.8027 48.9673 38.7604 48.8026 38.6792 48.6564C38.5979 48.5101 38.4803 48.3873 38.3377 48.2997C37.9841 48.0533 37.5622 47.9236 37.1311 47.9289H36.5745V52.3827L36.4812 52.3819Z" fill="#CC0033"/>
<path d="M42.5132 47.2781H45.8537V47.6489L45.2038 47.7414C45.1113 47.7414 45.0179 47.8339 44.9255 47.8339C44.833 47.9264 44.833 48.0197 44.833 48.2047V53.126C44.833 53.3118 44.833 53.4043 44.9255 53.4968C44.9356 53.567 44.9681 53.6321 45.0183 53.6823C45.0685 53.7324 45.1335 53.765 45.2038 53.7751L45.9462 53.8676V54.2358H42.5132V53.865L43.1631 53.7725C43.2349 53.7711 43.3054 53.7537 43.3695 53.7216C43.4337 53.6894 43.4898 53.6433 43.5339 53.5867C43.5386 53.458 43.5701 53.3317 43.6264 53.2159C43.6204 52.9348 43.6515 52.654 43.7189 52.381V50.9895C43.7292 50.2151 43.6983 49.4407 43.6264 48.6697C43.6185 48.3893 43.5875 48.1101 43.5339 47.8347C43.5339 47.7423 43.4414 47.6489 43.2556 47.6489L42.6057 47.5564V47.2781H42.5132Z" fill="#CC0033"/>
<path d="M53.6489 47.464V49.4155H53.2781L53.0923 48.4872C53.0571 48.3046 52.9585 48.1402 52.814 48.0231C52.3848 47.8035 51.9031 47.7071 51.4224 47.7448C50.9201 47.7419 50.4309 47.9051 50.0309 48.2089C49.6541 48.4948 49.3649 48.8804 49.196 49.3222C49.006 49.8261 48.9116 50.361 48.9177 50.8995C48.9269 51.3081 48.9894 51.7137 49.1035 52.1061C49.2194 52.4619 49.3751 52.8034 49.5676 53.1243C49.7866 53.4388 50.0785 53.6957 50.4183 53.873C50.7582 54.0503 51.1359 54.1428 51.5192 54.1425C51.8979 54.1419 52.274 54.0791 52.6324 53.9567C52.7637 53.9167 52.8832 53.845 52.9803 53.7479C53.0773 53.6508 53.149 53.5314 53.189 53.4001L53.6531 52.2868L54.0239 52.3793L53.7414 54.2358C53.4631 54.3283 53.0914 54.4216 52.7232 54.5141C52.3264 54.5947 51.9211 54.6257 51.5166 54.6066C50.8461 54.6369 50.1778 54.5099 49.5651 54.2358C49.094 54.028 48.6801 53.7096 48.3585 53.3076C48.0813 52.9543 47.8907 52.5411 47.8019 52.101C47.6878 51.7086 47.6253 51.303 47.6161 50.8944C47.6159 50.347 47.7428 49.8071 47.9869 49.3171C48.2563 48.753 48.6732 48.2722 49.1934 47.9255C49.8887 47.4917 50.6937 47.2661 51.5132 47.2756C51.8867 47.2602 52.2606 47.2913 52.6264 47.3681C52.9692 47.297 53.3253 47.3304 53.6489 47.464Z" fill="#CC0033"/>
<path d="M59.4017 47.2781C59.6274 47.8524 59.8134 48.4415 59.9583 49.0413L61.3499 53.0293C61.4424 53.4001 61.6282 53.6792 61.6282 53.7717C61.7207 53.8642 61.814 53.9575 61.9065 53.9575L62.3706 54.05V54.4208H59.3092V54.05L59.9592 53.9575C60.0602 53.9624 60.1595 53.9294 60.2375 53.865C60.2878 53.8149 60.3203 53.7496 60.33 53.6792C60.2014 53.075 60.015 52.4846 59.7734 51.916H57.1753L56.5253 53.3076C56.4608 53.4202 56.4287 53.5486 56.4328 53.6784V53.8642C56.531 53.8755 56.6257 53.907 56.7111 53.9567L57.3611 54.0492V54.42H54.9479V54.0492L55.3187 53.9567C55.3891 53.947 55.4544 53.9145 55.5046 53.8642C55.597 53.7717 55.597 53.6784 55.6904 53.4934L58.4743 47.3689H59.4026L59.4017 47.2781ZM58.5668 48.3914L57.3602 51.1753H59.5875C59.3092 50.3404 58.9359 49.4121 58.5668 48.3914Z" fill="#CC0033"/>
<path d="M64.4121 47.9281C64.3196 47.8356 64.2263 47.8356 64.0413 47.7423L63.3914 47.6498V47.2781H65.7112L69.8866 52.5677V48.6697C69.8866 48.2989 69.8866 48.1131 69.7941 48.0197C69.7941 47.9272 69.7941 47.8339 69.7017 47.8339C69.6515 47.7835 69.5862 47.751 69.5158 47.7414L68.7734 47.6489V47.2781H71.5573V47.6489L70.8149 47.7414C70.7224 47.7414 70.6291 47.8339 70.5366 47.8339C70.5366 47.9264 70.4441 48.0197 70.4441 48.2047V54.2358H69.6092C68.1668 52.1471 66.6182 50.1338 64.9696 48.2038V53.2176C64.9696 53.4034 64.9696 53.4959 65.0621 53.5884C65.1545 53.6809 65.2479 53.6809 65.3404 53.7742L65.9903 53.8667V54.2358H63.1131V53.865L63.763 53.7725C63.8555 53.7725 63.9488 53.7725 63.9488 53.6801C63.9992 53.6299 64.0317 53.5646 64.0413 53.4942C64.0428 53.2744 64.0739 53.0558 64.1338 52.8443C64.1338 52.1019 64.2263 51.4527 64.2263 50.8028C64.3196 49.3196 64.3196 48.3914 64.4121 47.9281Z" fill="#CC0033"/>
<path d="M81.6714 44.3084C81.7488 44.5614 81.8417 44.8093 81.9497 45.0508C82.0578 45.2923 82.1507 45.5403 82.2281 45.7933C82.3205 46.0716 82.4139 46.4432 82.5064 46.7215L84.4579 52.3819C84.5443 52.7779 84.7015 53.155 84.922 53.4951C84.9661 53.5517 85.0223 53.5978 85.0864 53.6299C85.1506 53.6621 85.2211 53.6795 85.2928 53.6809L85.8494 53.7734V54.1442H82.2289V53.7734L82.8788 53.6809C82.9506 53.6795 83.0211 53.6621 83.0853 53.6299C83.1494 53.5978 83.2056 53.5517 83.2496 53.4951C83.2849 53.4586 83.3115 53.4146 83.3275 53.3664C83.3435 53.3183 83.3485 53.2671 83.3421 53.2168C83.3421 53.1243 83.2496 52.846 83.1563 52.3819C83.063 51.9177 82.7855 51.3637 82.5064 50.5262H78.795L77.8702 52.8451C77.8099 52.9925 77.7785 53.1501 77.7777 53.3093V53.4951L77.8702 53.5876C77.9205 53.5812 77.9716 53.5862 78.0198 53.6022C78.068 53.6182 78.1119 53.6448 78.1485 53.6801L78.8909 53.7725V54.1433H75.9186V53.7725L76.4752 53.6801C76.5677 53.6801 76.661 53.5876 76.7535 53.4942C76.8839 53.33 76.9787 53.1405 77.0318 52.9376L80.8399 44.1226H81.6748L81.6714 44.3084ZM80.8399 45.6074L79.0767 49.9687H82.3248C81.8581 48.4838 81.3931 47.0923 80.8399 45.6074Z" fill="#CC0033"/>
<path d="M92.6222 47.464V49.4155H92.2514L92.0656 48.4872C92.0304 48.3046 91.9318 48.1402 91.7872 48.0231C91.397 47.789 90.9401 47.6911 90.4882 47.7448C89.9859 47.7419 89.4967 47.9051 89.0967 48.2089C88.7199 48.4948 88.4307 48.8804 88.2617 49.3222C88.0718 49.8261 87.9774 50.361 87.9834 50.8995C87.9927 51.3081 88.0551 51.7137 88.1693 52.1061C88.2852 52.4619 88.4409 52.8034 88.6334 53.1243C88.8524 53.4388 89.1443 53.6957 89.4841 53.873C89.824 54.0503 90.2016 54.1428 90.5849 54.1425C90.9637 54.1419 91.3398 54.0791 91.6982 53.9567C91.8295 53.9167 91.9489 53.845 92.046 53.7479C92.1431 53.6508 92.2148 53.5314 92.2548 53.4001L92.7189 52.2868L93.0897 52.3793L92.8072 54.2358C92.5288 54.3283 92.1572 54.4216 91.7889 54.5141C91.3921 54.5947 90.9868 54.6257 90.5824 54.6066C89.9118 54.6369 89.2435 54.5099 88.6308 54.2358C88.1598 54.028 87.7459 53.7096 87.4243 53.3076C87.1471 52.9543 86.9565 52.5411 86.8677 52.101C86.754 51.7094 86.6919 51.3046 86.6827 50.897C86.6825 50.3496 86.8094 49.8096 87.0535 49.3196C87.3229 48.7555 87.7398 48.2747 88.26 47.9281C88.9553 47.4942 89.7604 47.2687 90.5798 47.2781C90.9533 47.2628 91.3272 47.2939 91.6931 47.3706C92.0049 47.304 92.3298 47.3366 92.6222 47.464Z" fill="#CC0033"/>
<path d="M98.375 47.2781C98.6007 47.8524 98.7866 48.4415 98.9316 49.0413L100.323 53.0293C100.416 53.4001 100.601 53.6792 100.601 53.7717C100.694 53.8642 100.787 53.9575 100.88 53.9575L101.344 54.05V54.4208H98.2817V54.05L98.9316 53.9575C99.0327 53.9624 99.1319 53.9294 99.2099 53.865C99.2603 53.8149 99.2928 53.7496 99.3024 53.6792C99.1738 53.075 98.9874 52.4846 98.7458 51.916H96.1477L95.5911 53.3076C95.5265 53.4202 95.4945 53.5486 95.4986 53.6784C95.4986 53.7708 95.4986 53.8642 95.5911 53.8642C95.6892 53.8755 95.784 53.907 95.8694 53.9567L96.5193 54.0492V54.42H94.1062V54.0492L94.477 53.9567C94.5474 53.947 94.6127 53.9145 94.6628 53.8642C94.7553 53.7717 94.7553 53.6784 94.8486 53.4934L97.6326 47.3689H98.375V47.2781ZM97.6326 48.3914L96.426 51.1753H98.6533C98.2817 50.3404 98.0033 49.4121 97.6326 48.3914Z" fill="#CC0033"/>
<path d="M105.983 54.33H102.643V53.9592L103.293 53.8667C103.479 53.8667 103.571 53.7742 103.664 53.5884C103.668 53.4597 103.7 53.3334 103.756 53.2176C103.75 52.9365 103.781 52.6557 103.849 52.3827V50.9912C103.859 50.2168 103.828 49.4424 103.756 48.6714C103.748 48.391 103.717 48.1117 103.664 47.8364C103.664 47.744 103.571 47.6506 103.385 47.6506L102.735 47.5581V47.1848H105.983C106.683 47.1554 107.38 47.2821 108.025 47.5556C108.625 47.7615 109.144 48.151 109.51 48.6688C109.899 49.2069 110.096 49.8609 110.066 50.5245C110.064 51.0019 109.969 51.4743 109.788 51.916C109.596 52.3499 109.346 52.7557 109.046 53.1226C108.689 53.5045 108.242 53.7914 107.747 53.9575C107.184 54.1791 106.588 54.305 105.983 54.33ZM104.965 53.6801C105.324 53.8025 105.7 53.8653 106.079 53.8659C106.569 53.8866 107.055 53.7572 107.47 53.4951C107.874 53.2145 108.195 52.8298 108.398 52.3819C108.629 51.8543 108.755 51.2869 108.769 50.7112C108.776 50.2923 108.681 49.8781 108.491 49.5046C108.352 49.1735 108.128 48.8853 107.841 48.6697C107.567 48.4309 107.252 48.2425 106.913 48.113C106.55 48.0062 106.177 47.9438 105.799 47.9272H104.964L104.965 53.6801Z" fill="#CC0033"/>
<path d="M113.871 50.9895V53.7734L116.191 53.6809C116.377 53.6809 116.469 53.5884 116.562 53.5884C116.654 53.4959 116.654 53.4026 116.748 53.1243L117.026 52.3819L117.397 52.4743L117.026 54.33H111.459V53.9592L112.109 53.8667C112.295 53.8667 112.387 53.7742 112.48 53.5884C112.48 53.4026 112.572 53.0318 112.572 52.3819V50.7112C112.58 50.0295 112.549 49.3479 112.48 48.6697C112.472 48.3893 112.441 48.1101 112.387 47.8347C112.387 47.7423 112.295 47.6489 112.109 47.6489L111.459 47.5564V47.1848H116.655V49.0405H116.38L116.288 48.298C116.296 48.2115 116.283 48.1242 116.251 48.0434C116.219 47.9627 116.168 47.8908 116.102 47.8339C116.009 47.7414 115.916 47.7414 115.731 47.7414L113.968 47.6489V50.5253H115.081C115.239 50.5141 115.395 50.483 115.545 50.4328C115.638 50.3404 115.638 50.1545 115.731 49.9687L115.824 49.4121H116.194V52.196H115.824L115.731 51.6394C115.728 51.4673 115.662 51.3023 115.545 51.1753C115.453 51.0828 115.359 51.0828 115.081 51.0828L113.871 50.9895Z" fill="#CC0033"/>
<path d="M120.831 48.2055V53.4018C120.837 53.5303 120.868 53.6564 120.924 53.7725C120.96 53.8078 121.004 53.8344 121.053 53.8504C121.101 53.8664 121.152 53.8714 121.202 53.865L121.852 53.9575V54.3283H119.161V53.9575L119.811 53.865C119.903 53.865 119.996 53.865 119.996 53.7725C120.047 53.7224 120.079 53.6571 120.089 53.5867C120.09 53.3669 120.122 53.1483 120.181 52.9368C120.181 52.751 120.181 52.0085 120.274 50.8953V47.9255C120.274 47.833 120.181 47.833 120.088 47.833L119.438 47.7406V47.3706H121.758L123.799 52.7526L125.933 47.3706H128.346V47.7414L127.696 47.8339C127.595 47.829 127.495 47.862 127.417 47.9264C127.325 48.0189 127.325 48.1122 127.325 48.2972V53.3101C127.325 53.4959 127.325 53.5884 127.417 53.6809C127.51 53.7734 127.51 53.7734 127.696 53.7734L128.438 53.8659V54.2367H125.007V53.8659L125.657 53.7734C125.729 53.772 125.799 53.7546 125.863 53.7224C125.927 53.6903 125.984 53.6442 126.028 53.5876C126.135 52.726 126.166 51.8565 126.12 50.9895C126.137 50.1842 126.107 49.3787 126.028 48.5772L123.708 54.33H123.149C122.53 52.2337 121.755 50.1865 120.831 48.2055Z" fill="#CC0033"/>
<path d="M133.822 51.3603V53.4942C133.832 53.5645 133.865 53.6295 133.915 53.6797C133.965 53.7299 134.03 53.7624 134.1 53.7725L134.843 53.865V54.1425H131.316V53.8642L131.966 53.7717C132.152 53.7717 132.245 53.6792 132.337 53.4934C132.44 52.7557 132.471 52.0098 132.43 51.2661C131.965 50.4312 131.316 49.4104 130.574 48.2963C130.388 48.018 130.203 47.7397 130.11 47.7397C130.073 47.7045 130.029 47.6779 129.981 47.6619C129.933 47.6458 129.882 47.6409 129.831 47.6472L129.461 47.5547V47.1848H132.615V47.5556L132.151 47.6481C131.965 47.6481 131.873 47.6481 131.78 47.7406C131.688 47.7406 131.688 47.833 131.688 47.9264C131.688 48.0197 131.78 48.1122 131.78 48.2972L133.358 50.8028L134.935 48.2047C135.028 48.0189 135.121 47.9264 135.121 47.8339C135.121 47.7414 135.121 47.7414 135.028 47.7414C134.957 47.7348 134.891 47.7018 134.843 47.6489H134.657L134.1 47.5564V47.1848H136.418V47.5556L136.14 47.6481C136.048 47.6481 135.954 47.6481 135.954 47.7406C135.862 47.7406 135.768 47.9264 135.676 48.0189L133.822 51.3603Z" fill="#CC0033"/>
<path d="M145.421 47.1848C145.959 47.1788 146.494 47.2732 146.998 47.4631C147.45 47.6196 147.862 47.873 148.205 48.2055C148.525 48.5227 148.777 48.9014 148.947 49.3188C149.137 49.7905 149.232 50.2952 149.226 50.8036C149.241 51.3129 149.146 51.8194 148.947 52.2885C148.777 52.7059 148.525 53.0846 148.205 53.4017C147.853 53.7224 147.443 53.9742 146.998 54.1442C146.494 54.3341 145.959 54.4285 145.421 54.4225C144.715 54.4119 144.02 54.2538 143.379 53.9584C142.818 53.6757 142.363 53.2203 142.08 52.6593C141.774 52.0543 141.615 51.3857 141.616 50.7078C141.61 50.1993 141.705 49.6946 141.895 49.2229C142.064 48.8055 142.317 48.4268 142.637 48.1097C142.989 47.7891 143.399 47.5373 143.844 47.3672C144.362 47.2554 144.89 47.1943 145.421 47.1848ZM145.421 53.9584C145.767 53.9414 146.109 53.8789 146.439 53.7725C146.727 53.6073 146.98 53.3864 147.182 53.1226C147.408 52.8208 147.566 52.4734 147.646 52.1044C147.893 51.256 147.893 50.3546 147.646 49.5063C147.548 49.1438 147.391 48.7998 147.182 48.4881C146.98 48.2243 146.727 48.0033 146.439 47.8381C146.125 47.6798 145.771 47.6153 145.421 47.6523C144.959 47.6317 144.503 47.7619 144.122 48.0231C143.745 48.309 143.456 48.6946 143.287 49.1363C142.916 50.2189 142.916 51.3943 143.287 52.4769C143.456 52.9186 143.745 53.3042 144.122 53.5901C144.503 53.8505 144.959 53.9797 145.421 53.9584Z" fill="#CC0033"/>
<path d="M153.124 50.9895V53.1234C153.124 53.3093 153.124 53.4018 153.216 53.4942C153.226 53.5645 153.259 53.6295 153.309 53.6797C153.359 53.7299 153.424 53.7624 153.494 53.7725L154.423 53.865V54.2358H150.896V53.865L151.546 53.7725C151.732 53.7725 151.825 53.6801 151.917 53.4942C152.025 52.6327 152.056 51.7632 152.01 50.8961C152.02 50.1218 151.989 49.3474 151.917 48.5763C151.909 48.296 151.878 48.0167 151.825 47.7414C151.825 47.6489 151.732 47.5556 151.546 47.5556L150.896 47.4631V47.0923H156V48.948H155.629L155.537 48.2055C155.545 48.119 155.532 48.0317 155.5 47.9509C155.468 47.8702 155.417 47.7984 155.351 47.7414C155.258 47.6489 155.165 47.6489 154.98 47.6489L153.309 47.5564V50.3404H154.328C154.484 50.3187 154.639 50.2878 154.792 50.2479C154.884 50.1554 154.884 49.9696 154.978 49.7837L155.07 49.2271H155.441V52.0136H155.07L154.978 51.5495C154.978 51.3637 154.885 51.2712 154.885 51.1787C154.885 51.0862 154.793 51.0862 154.699 50.9929C154.607 50.9929 154.513 50.9004 154.328 50.9004L153.124 50.9895Z" fill="#CC0033"/>
<path d="M9.01527 56.5573C9.71484 56.528 10.4122 56.6546 11.0568 56.9281C11.6366 57.1232 12.1507 57.4757 12.5416 57.9463C12.9915 58.4124 13.3115 58.9881 13.4699 59.6162C13.6908 60.3071 13.8156 61.0252 13.8407 61.7501C13.8695 62.4797 13.7432 63.2071 13.4699 63.8841C13.274 64.4969 12.9584 65.0647 12.5416 65.5548C12.0909 65.9983 11.5541 66.3449 10.9643 66.573C10.3172 66.8382 9.62173 66.9645 8.92278 66.9438C8.22383 66.9645 7.52832 66.8382 6.88129 66.573C6.2743 66.3799 5.7298 66.0285 5.30393 65.5548C4.8543 65.0898 4.53401 64.5153 4.37482 63.8884C4.15382 63.1971 4.02905 62.4788 4.00403 61.7535C3.97518 61.024 4.10156 60.2966 4.37482 59.6196C4.62292 58.9896 5.00276 58.42 5.4889 57.9489C5.93966 57.5053 6.47647 57.1588 7.06626 56.9307C7.67798 56.6561 8.34539 56.5282 9.01527 56.5573ZM9.01527 66.3006C9.50731 66.3338 9.99652 66.2035 10.4068 65.9298C10.8385 65.7014 11.2177 65.3852 11.52 65.0016C11.8406 64.5467 12.0909 64.0461 12.2625 63.5167C12.6336 62.3074 12.6336 61.0147 12.2625 59.8054C12.11 59.2684 11.8582 58.7647 11.52 58.3205C11.2395 57.9164 10.8548 57.5956 10.4068 57.3922C9.97009 57.1831 9.49815 57.0573 9.01527 57.0214C8.52323 56.9883 8.03401 57.1186 7.62373 57.3922C7.17573 57.5956 6.79108 57.9164 6.5105 58.3205C6.18993 58.7754 5.93965 59.276 5.76806 59.8054C5.39698 61.0147 5.39698 62.3074 5.76806 63.5167C5.92055 64.0537 6.17238 64.5574 6.5105 65.0016C6.79108 65.4057 7.17573 65.7265 7.62373 65.9298C8.06044 66.139 8.53238 66.2648 9.01527 66.3006Z" fill="#CC0033"/>
<path d="M17.552 64.7233V65.5591C17.552 65.7449 17.552 65.8374 17.6445 65.9298C17.6541 66.0002 17.6866 66.0655 17.737 66.1157C17.8295 66.1157 17.8295 66.2082 17.9228 66.2082L18.5728 66.3006V66.6714H15.2322V66.3006L15.8822 66.2082C16.068 66.2082 16.1605 66.1157 16.253 65.9298C16.3611 65.0061 16.3921 64.0749 16.3455 63.1459C16.3455 62.4035 16.3455 61.4752 16.253 60.5478C16.253 60.362 16.253 60.2695 16.1605 60.177C16.1605 60.0845 16.068 60.0845 15.8822 60.0845L15.2322 59.9903V59.6196H18.4803C18.9192 59.6292 19.3553 59.6916 19.7793 59.8054C20.1356 59.8983 20.4578 60.0915 20.7076 60.362C20.9065 60.6003 21.0349 60.8895 21.0784 61.1969C21.0652 61.6402 20.9016 62.0657 20.6143 62.4035C20.2565 62.7459 19.8038 62.9724 19.3152 63.0534L21.4492 65.8374L21.7275 66.1157C21.82 66.1157 21.9133 66.2082 22.0058 66.2082L22.4699 66.3006V66.6714H20.6143C20.3359 66.3006 20.0576 65.8365 19.7793 65.4649C19.4481 65.0478 19.1383 64.6142 18.8511 64.1658C18.4803 63.7017 18.2011 63.4234 18.0161 63.1476C18.5548 63.111 19.071 62.9175 19.501 62.591C19.6495 62.4463 19.7671 62.2731 19.8469 62.0818C19.9266 61.8905 19.9669 61.685 19.9652 61.4778C19.9669 61.3096 19.9251 61.1438 19.8437 60.9966C19.7624 60.8494 19.6443 60.7258 19.501 60.6378C19.1474 60.3913 18.7255 60.2617 18.2945 60.267H17.7378V64.7207L17.552 64.7233Z" fill="#CC0033"/>
<path d="M26.6454 60.1762V65.6507C26.6454 65.8365 26.7379 65.929 26.7379 66.0215C26.8304 66.114 26.8304 66.114 27.0162 66.114L27.9444 66.2065V66.5772H24.0473V66.2989L24.9755 66.2065C25.0259 66.2128 25.077 66.2078 25.1252 66.1918C25.1734 66.1758 25.2173 66.1492 25.2539 66.114C25.3042 66.0638 25.3367 65.9986 25.3463 65.9281C25.351 65.7995 25.3825 65.6732 25.4388 65.5573C25.4328 65.2762 25.4639 64.9955 25.5313 64.7224V63.3309C25.5577 62.2784 25.5269 61.2253 25.4388 60.1762L23.7681 60.2687C23.5823 60.2687 23.4898 60.2687 23.4898 60.3611C23.4898 60.4536 23.3973 60.547 23.304 60.8253L23.2115 61.4752H22.8407L22.9332 59.6196H29.336L29.4285 61.4752H29.0577L28.9652 60.8253C28.9435 60.6689 28.9126 60.5139 28.8727 60.3611C28.8727 60.2687 28.6869 60.2687 28.5019 60.2687L26.6454 60.1762Z" fill="#CC0033"/>
<path d="M32.9557 62.8676H36.3887C36.4045 62.2784 36.3738 61.6888 36.2971 61.1044C36.2971 60.7336 36.2971 60.5478 36.2046 60.4545C36.2046 60.362 36.2046 60.2687 36.1121 60.2687C36.062 60.2183 35.9967 60.1858 35.9263 60.1762L35.1838 60.0837V59.7129H38.5244V60.0837L37.8744 60.1762C37.8241 60.1698 37.7729 60.1748 37.7248 60.1908C37.6766 60.2068 37.6326 60.2334 37.5961 60.2687C37.5036 60.2687 37.5036 60.3611 37.5036 60.4545V65.929C37.5137 65.9992 37.5463 66.0643 37.5965 66.1145C37.6466 66.1646 37.7117 66.1972 37.7819 66.2073L38.5244 66.2998V66.6706H35.0897V66.2998L35.7396 66.2073C35.8113 66.2059 35.8819 66.1885 35.946 66.1563C36.0102 66.1242 36.0663 66.0781 36.1104 66.0215C36.2239 65.1914 36.2549 64.3521 36.2029 63.5159H32.7699V65.9281C32.78 65.9984 32.8125 66.0634 32.8627 66.1136C32.9129 66.1638 32.9779 66.1964 33.0482 66.2065L33.7906 66.2989V66.6697H30.3576V66.2989L31.0075 66.2065C31.0793 66.205 31.1498 66.1876 31.2139 66.1555C31.2781 66.1233 31.3342 66.0773 31.3783 66.0206C31.383 65.8919 31.4145 65.7656 31.4708 65.6498C31.4648 65.3687 31.4959 65.0879 31.5633 64.8149V63.4234C31.5736 62.649 31.5427 61.8747 31.4708 61.1036C31.4629 60.8232 31.4319 60.544 31.3783 60.2687C31.3783 60.1762 31.2858 60.0828 31.1 60.0828L30.4501 59.9903V59.6196H33.7906V59.9903L33.1407 60.0828C33.0903 60.0765 33.0392 60.0815 32.991 60.0975C32.9428 60.1135 32.8989 60.1401 32.8623 60.1753C32.7699 60.1753 32.7699 60.2678 32.7699 60.3611V62.8668L32.9557 62.8676Z" fill="#CC0033"/>
<path d="M43.6273 59.5262C44.1658 59.5202 44.7007 59.6146 45.2046 59.8045C45.6562 59.961 46.068 60.2144 46.4112 60.547C46.7313 60.8641 46.9838 61.2428 47.1536 61.6602C47.3436 62.1319 47.4382 62.6366 47.4319 63.1451C47.4473 63.6543 47.3524 64.1608 47.1536 64.6299C46.9838 65.0473 46.7313 65.426 46.4112 65.7432C46.0588 66.0637 45.6496 66.3156 45.2046 66.4856C44.7007 66.6756 44.1658 66.7699 43.6273 66.7639C42.9218 66.7533 42.2264 66.5952 41.5858 66.2998C41.0247 66.0171 40.5694 65.5618 40.2867 65.0007C39.9808 64.3957 39.8218 63.7271 39.8226 63.0492C39.8163 62.5407 39.9109 62.036 40.1009 61.5643C40.2707 61.1469 40.5232 60.7682 40.8433 60.4511C41.1957 60.1305 41.6049 59.8787 42.0499 59.7086C42.5694 59.6022 43.0972 59.5412 43.6273 59.5262ZM43.6273 66.2998C43.9733 66.2828 44.3157 66.2203 44.6455 66.114C44.9336 65.9488 45.186 65.7278 45.3879 65.464C45.6144 65.1622 45.7728 64.8148 45.852 64.4458C46.0995 63.5975 46.0995 62.6961 45.852 61.8477C45.7541 61.4852 45.5973 61.1412 45.3879 60.8295C45.186 60.5657 44.9336 60.3448 44.6455 60.1796C44.3309 60.0212 43.9775 59.9567 43.6273 59.9937C43.1655 59.9731 42.7095 60.1033 42.3282 60.3645C41.9511 60.6503 41.6616 61.0359 41.4924 61.4778C41.1213 62.5604 41.1213 63.7357 41.4924 64.8183C41.6613 65.2601 41.9506 65.6457 42.3274 65.9315C42.7145 66.1805 43.167 66.3087 43.6273 66.2998Z" fill="#CC0033"/>
<path d="M51.3282 62.9601C52.5348 62.8676 53.1839 62.3101 53.1839 61.3827C53.1785 61.1538 53.1145 60.93 52.9981 60.7328C52.8365 60.5514 52.6489 60.395 52.4415 60.2687C52.2069 60.1635 51.9555 60.1006 51.699 60.0828H51.0491V65.6507C51.0491 65.8365 51.0491 65.929 51.1416 66.0215C51.2341 66.114 51.2341 66.114 51.4199 66.114L52.3481 66.2065V66.5772H48.6376V66.2989L49.2876 66.2065C49.4734 66.2065 49.5659 66.114 49.6584 65.9281C49.7663 65.0666 49.7972 64.1971 49.7509 63.33C49.7637 62.5559 49.732 61.7816 49.6558 61.0111C49.6558 60.547 49.6558 60.2687 49.5634 60.1762C49.5634 60.0837 49.4709 59.9903 49.2851 59.9903H48.6376V59.6196H51.9782C52.5672 59.6178 53.1452 59.7784 53.6489 60.0837C53.8656 60.2044 54.0477 60.3787 54.1777 60.59C54.3077 60.8013 54.3813 61.0424 54.3913 61.2902C54.4005 61.4761 54.3724 61.6619 54.3088 61.8368C54.2451 62.0117 54.1471 62.172 54.0205 62.3084C53.7212 62.6067 53.3778 62.8571 53.0023 63.0509C52.5306 63.2409 52.0259 63.3355 51.5175 63.3292L51.3282 62.9601Z" fill="#CC0033"/>
<path d="M59.0301 59.6196C59.2557 60.1938 59.4417 60.783 59.5867 61.3827L60.9782 65.3707C61.0707 65.7415 61.2565 66.0206 61.2565 66.1131C61.349 66.2056 61.4424 66.2989 61.5348 66.2989L61.999 66.3914V66.7622H58.9376V66.2981L59.5875 66.2056C59.6886 66.2105 59.7878 66.1775 59.8658 66.1131C59.9162 66.063 59.9487 65.9977 59.9583 65.9273C59.8297 65.3231 59.6433 64.7326 59.4017 64.1641H56.8036L56.1537 65.649C56.0891 65.7616 56.0571 65.89 56.0612 66.0198V66.2056C56.1593 66.2169 56.2541 66.2484 56.3395 66.2981H56.9894V66.6689H54.5763V66.2981L54.9471 66.2056C55.0175 66.196 55.0828 66.1635 55.1329 66.1131C55.2254 66.0206 55.2254 65.9273 55.3187 65.7423L58.1027 59.6196H59.0309H59.0301ZM58.1951 60.7328L56.9886 63.5167H59.2159C58.9376 62.6818 58.5642 61.7535 58.1951 60.7328Z" fill="#CC0033"/>
<path d="M65.0621 63.3309V66.1148L67.3819 66.0223C67.5677 66.0223 67.6602 65.9298 67.7526 65.9298C67.8451 65.9298 67.8451 65.744 67.9385 65.4657L68.2168 64.7233L68.5876 64.8158L68.2168 66.6714H62.6498V66.3006L63.2997 66.2081C63.4855 66.2081 63.578 66.1157 63.6705 65.9298C63.6705 65.744 63.763 65.3732 63.763 64.7233V63.0526C63.77 62.3708 63.7382 61.6892 63.668 61.0111C63.66 60.7307 63.6291 60.4515 63.5755 60.1762C63.5755 60.0837 63.483 59.9903 63.2972 59.9903L62.6472 59.8979V59.5262H67.8434V61.3819H67.4726L67.3802 60.6394C67.3884 60.5529 67.3759 60.4656 67.3435 60.3848C67.3112 60.3041 67.2601 60.2323 67.1943 60.1753C67.1019 60.0828 67.0085 60.0828 66.8235 60.0828L65.0604 59.9903V62.6818H66.1736C66.3316 62.6705 66.4875 62.6395 66.6377 62.5893C66.7302 62.4968 66.7302 62.311 66.8235 62.1252L66.916 61.5686H67.2868V64.3525H66.916L66.8235 63.7959C66.8201 63.6237 66.754 63.4587 66.6377 63.3317C66.5452 63.2393 66.4519 63.2392 66.1736 63.2392L65.0621 63.3309Z" fill="#CC0033"/>
<path d="M73.1347 66.5781H69.7941V66.2998L70.4441 66.2073C70.6299 66.2073 70.7224 66.1148 70.8149 65.929C70.8196 65.8003 70.8511 65.674 70.9074 65.5582C70.9013 65.277 70.9324 64.9963 70.9999 64.7233V63.3317C71.0102 62.5574 70.9793 61.783 70.9074 61.0119C70.8986 60.7312 70.8668 60.4517 70.8123 60.1762C70.8123 60.0837 70.7198 59.9903 70.534 59.9903L69.8841 59.8979V59.5262H73.1321C73.8317 59.4969 74.5291 59.6235 75.1736 59.897C75.7732 60.1029 76.2928 60.4924 76.6585 61.0102C77.0481 61.5483 77.2442 62.2023 77.2151 62.8659C77.2124 63.3433 77.1179 63.8157 76.9368 64.2574C76.7449 64.6913 76.4951 65.0971 76.1944 65.464C75.8375 65.8459 75.391 66.1329 74.8953 66.2989C74.3279 66.4888 73.733 66.5832 73.1347 66.5781ZM72.1165 66.0215C72.4749 66.1439 72.851 66.2067 73.2297 66.2073C73.7205 66.228 74.2059 66.0987 74.6213 65.8365C75.0254 65.5559 75.3461 65.1713 75.5495 64.7233C75.7805 64.1957 75.9064 63.6283 75.9203 63.0526C75.9273 62.6337 75.8318 62.2195 75.642 61.846C75.5033 61.5149 75.279 61.2267 74.9921 61.0111C74.7178 60.7724 74.4036 60.5839 74.0638 60.4545C73.7016 60.3476 73.3278 60.2852 72.9506 60.2687H72.1156L72.1165 66.0215Z" fill="#CC0033"/>
<path d="M78.3317 59.6196H81.6723V59.9903L81.0223 60.0828C80.9298 60.0828 80.8365 60.1753 80.744 60.1753C80.6515 60.2678 80.6515 60.3611 80.6515 60.5461V65.3724C80.6515 65.5582 80.6515 65.6507 80.744 65.7432C80.7541 65.8134 80.7867 65.8785 80.8369 65.9286C80.887 65.9788 80.9521 66.0114 81.0223 66.0215L81.7648 66.114V66.4848H78.3317V66.2989L78.9817 66.2065C79.0534 66.205 79.124 66.1876 79.1881 66.1555C79.2523 66.1233 79.3084 66.0773 79.3525 66.0206V65.6498C79.3465 65.3687 79.3775 65.0879 79.445 64.8149V63.4234C79.4544 62.6493 79.4227 61.8752 79.3499 61.1044C79.342 60.8241 79.3111 60.5448 79.2575 60.2695C79.2575 60.177 79.165 60.0837 78.9791 60.0837L78.3317 59.9903V59.6196Z" fill="#CC0033"/>
<path d="M88.9108 59.8054V61.7569H88.54L88.3542 60.8287C88.3191 60.646 88.2205 60.4816 88.0759 60.3645C87.6857 60.1304 87.2288 60.0325 86.7769 60.0862C86.2745 60.0833 85.7853 60.2465 85.3853 60.5504C85.0086 60.8362 84.7194 61.2219 84.5504 61.6636C84.3605 62.1675 84.2661 62.7024 84.2721 63.2409C84.2813 63.6495 84.3438 64.0551 84.4579 64.4475C84.5738 64.8033 84.7295 65.1449 84.922 65.4657C85.1411 65.7803 85.433 66.0372 85.7728 66.2145C86.1126 66.3918 86.4903 66.4842 86.8736 66.4839C87.2523 66.4833 87.6284 66.4205 87.9868 66.2981C88.1181 66.2581 88.2376 66.1864 88.3347 66.0893C88.4317 65.9923 88.5034 65.8728 88.5434 65.7415L89.0076 64.6282L89.3784 64.7207L89.0958 66.5772C88.8175 66.6697 88.4459 66.7631 88.0776 66.8556C87.6808 66.9361 87.2755 66.9672 86.871 66.948C86.2017 66.9778 85.5346 66.8508 84.9229 66.5772C84.4519 66.3694 84.0379 66.051 83.7163 65.649C83.4391 65.2958 83.2485 64.8825 83.1597 64.4424C83.045 64.051 82.9816 63.6462 82.9713 63.2384C82.9711 62.691 83.0981 62.151 83.3421 61.661C83.6116 61.0969 84.0285 60.6161 84.5487 60.2695C85.244 59.8356 86.049 59.6101 86.8685 59.6195C87.242 59.6042 87.6159 59.6353 87.9817 59.712C88.2932 59.6393 88.62 59.6721 88.9108 59.8054Z" fill="#CC0033"/>
<path d="M99.3957 56.8356V59.0629H98.9316L98.7458 58.1347C98.7231 57.974 98.6602 57.8217 98.5629 57.6919C98.4656 57.5621 98.337 57.459 98.1892 57.3922C97.8196 57.1919 97.4026 57.0958 96.9826 57.1139C96.7537 57.117 96.528 57.1681 96.3202 57.264C96.1123 57.3599 95.9269 57.4984 95.776 57.6706C95.4871 58.0432 95.3246 58.4983 95.3119 58.9696C95.3043 59.3006 95.4018 59.6256 95.5902 59.8979C95.7571 60.1346 95.9806 60.326 96.2402 60.4545C96.5185 60.547 96.8901 60.8253 97.5392 61.1044L98.8383 61.7544C99.2016 61.9322 99.4954 62.226 99.6732 62.5893C99.9332 62.9362 100.064 63.3628 100.044 63.7959C100.041 64.2136 99.9455 64.6254 99.7657 65.0024C99.6044 65.397 99.3496 65.7464 99.0233 66.0206C98.7 66.3104 98.3213 66.5315 97.91 66.6706C97.4683 66.8517 96.9959 66.9462 96.5185 66.9489C95.9567 66.9435 95.397 66.8812 94.8478 66.7631C94.4715 66.6925 94.0998 66.5996 93.7346 66.4848V63.9808H94.1987L94.3845 64.9091C94.3926 65.1339 94.4562 65.3531 94.5696 65.5474C94.683 65.7416 94.8427 65.9048 95.0345 66.0223C95.5548 66.2746 96.127 66.4016 96.7052 66.3931C97.0956 66.4124 97.4829 66.3155 97.8184 66.1148C98.1101 65.9159 98.3619 65.6641 98.5608 65.3724C98.7496 65.0668 98.8462 64.7133 98.8391 64.3542C98.8492 64.1004 98.7949 63.8482 98.6812 63.6211C98.5676 63.3939 98.3983 63.1992 98.1892 63.0551C97.6056 62.6005 96.9444 62.2556 96.2376 62.0369C95.8488 61.8893 95.4758 61.7028 95.1244 61.4803C94.8014 61.2507 94.5191 60.9684 94.2895 60.6454C94.0571 60.2511 93.9294 59.8039 93.9187 59.3463C93.93 58.8175 94.0909 58.3026 94.3828 57.8615C94.6634 57.4573 95.048 57.1366 95.496 56.9332C95.9701 56.7515 96.4732 56.6572 96.9809 56.6549H97.8158C98.0941 56.6549 98.3725 56.7474 98.6508 56.7474C98.9009 56.7581 99.15 56.7876 99.3957 56.8356Z" fill="#CC0033"/>
<path d="M107.376 64.6308V63.0526C107.394 62.3708 107.363 61.6885 107.283 61.0111C107.283 60.6403 107.283 60.4545 107.191 60.3611C107.191 60.2687 107.191 60.1753 107.098 60.1753C107.048 60.125 106.983 60.0925 106.913 60.0828L106.17 59.9903V59.6196H109.047V59.9903L108.49 60.0828C108.389 60.078 108.29 60.1109 108.212 60.1753C108.119 60.2678 108.119 60.3611 108.119 60.5461C108.12 60.8876 108.089 61.2285 108.027 61.5643L107.934 64.5341C107.955 64.8294 107.908 65.1255 107.795 65.3993C107.682 65.673 107.507 65.9168 107.284 66.1114C107.011 66.3599 106.687 66.5465 106.334 66.6587C105.982 66.7708 105.61 66.8059 105.243 66.7614C103.109 66.7614 102.088 66.1114 102.088 64.8098V63.0526C102.099 62.4007 102.069 61.7489 101.996 61.101C101.996 60.7302 101.996 60.5444 101.903 60.4511C101.903 60.3586 101.903 60.2653 101.811 60.2653C101.718 60.2653 101.718 60.1728 101.625 60.1728L100.975 60.0803V59.7095H104.315V60.0803L103.665 60.1728C103.564 60.1679 103.465 60.2009 103.387 60.2653C103.295 60.3577 103.295 60.4511 103.295 60.6361V64.8115C103.312 65.0979 103.375 65.3797 103.48 65.6464C103.656 65.8516 103.879 66.0109 104.13 66.1106C104.489 66.233 104.865 66.2958 105.244 66.2964C106.726 66.2081 107.376 65.6515 107.376 64.6308Z" fill="#CC0033"/>
<path d="M112.386 64.7233V65.5591C112.386 65.7449 112.386 65.8374 112.479 65.9298C112.488 66.0002 112.521 66.0655 112.571 66.1157C112.664 66.1157 112.664 66.2082 112.757 66.2082L113.407 66.3006V66.6714H110.066V66.3006L110.716 66.2082C110.902 66.2082 110.995 66.1157 111.087 65.9298C111.195 65.0061 111.226 64.0749 111.18 63.1459C111.18 62.4035 111.18 61.4752 111.087 60.5478C111.087 60.362 111.087 60.2695 110.995 60.177C110.995 60.0845 110.902 60.0845 110.716 60.0845L110.066 59.992V59.6196H113.315C113.753 59.6292 114.19 59.6916 114.614 59.8054C114.97 59.8983 115.292 60.0915 115.542 60.362C115.741 60.6003 115.869 60.8895 115.913 61.1969C115.899 61.6402 115.736 62.0657 115.449 62.4035C115.078 62.7281 114.631 62.9519 114.149 63.0534L116.283 65.8374L116.562 66.1157C116.654 66.1157 116.748 66.2082 116.84 66.2082L117.304 66.3006V66.6714H115.449C115.17 66.3006 114.892 65.8365 114.614 65.4649C114.282 65.0478 113.973 64.6142 113.685 64.1658C113.315 63.7017 113.035 63.4234 112.85 63.1476C113.389 63.111 113.905 62.9175 114.335 62.591C114.484 62.4463 114.601 62.2731 114.681 62.0818C114.761 61.8905 114.801 61.685 114.799 61.4778C114.8 61.3105 114.758 61.1457 114.677 60.9995C114.595 60.8533 114.478 60.7304 114.335 60.6428C113.982 60.3964 113.56 60.2668 113.129 60.272H112.572V64.7258L112.386 64.7233Z" fill="#CC0033"/>
<path d="M122.686 66.1148V64.445C122.686 64.3525 122.686 64.2591 122.594 64.2591C122.594 64.1667 122.501 64.1667 122.408 64.1667L121.573 64.0742V63.7025H124.728V64.0733L124.264 64.1658C124.078 64.1658 123.985 64.2583 123.985 64.3516C123.984 64.5715 123.953 64.7901 123.893 65.0016L123.8 66.4865C123.012 66.6868 122.201 66.7804 121.388 66.7648C120.716 66.8146 120.043 66.6867 119.436 66.394C118.965 66.1862 118.552 65.8677 118.23 65.4657C117.953 65.1125 117.762 64.6993 117.673 64.2591C117.566 63.8652 117.504 63.4605 117.487 63.0526C117.511 62.6454 117.573 62.2413 117.673 61.846C117.816 61.4082 118.036 60.9995 118.323 60.6395C118.665 60.2585 119.074 59.9438 119.53 59.7112C120.109 59.4374 120.746 59.3101 121.385 59.3404C122.167 59.3358 122.947 59.4293 123.705 59.6187V61.6602H123.241L123.055 60.8253C123.034 60.7122 122.991 60.6046 122.927 60.5089C122.863 60.4132 122.781 60.3315 122.685 60.2687C122.255 60.049 121.774 59.9527 121.293 59.9903C120.764 60.0017 120.249 60.1626 119.808 60.4545C119.408 60.7576 119.116 61.1802 118.973 61.661C118.791 62.1351 118.697 62.6382 118.695 63.1459C118.697 63.6837 118.791 64.2172 118.973 64.7233C119.146 65.1899 119.473 65.583 119.901 65.8365C120.336 66.1411 120.855 66.3032 121.386 66.3006C121.828 66.3227 122.269 66.2596 122.686 66.1148Z" fill="#CC0033"/>
<path d="M127.79 63.3309V66.1148L130.11 66.0223C130.296 66.0223 130.388 65.9298 130.481 65.9298C130.573 65.9298 130.573 65.744 130.666 65.4657L130.945 64.7233L131.315 64.8158L130.945 66.6714H125.378V66.3006L126.028 66.2081C126.213 66.2081 126.306 66.1157 126.398 65.9298C126.398 65.744 126.491 65.3732 126.491 64.7233V63.0526C126.499 62.3709 126.468 61.6893 126.398 61.0111C126.39 60.7307 126.36 60.4515 126.306 60.1762C126.306 60.0837 126.213 59.9903 126.028 59.9903L125.378 59.8979V59.5262H130.574V61.3819H130.299L130.206 60.6394C130.215 60.5529 130.202 60.4656 130.17 60.3848C130.138 60.3041 130.086 60.2323 130.021 60.1753C129.928 60.0828 129.835 60.0828 129.65 60.0828L127.887 59.9903V62.6818H129C129.158 62.6705 129.314 62.6395 129.464 62.5893C129.557 62.4968 129.557 62.311 129.65 62.1252L129.742 61.5686H130.113V64.3525H129.742L129.65 63.7959C129.646 63.6237 129.58 63.4587 129.464 63.3317C129.372 63.2393 129.278 63.2392 129 63.2392L127.79 63.3309Z" fill="#CC0033"/>
<path d="M136.142 59.5262C136.68 59.5202 137.215 59.6146 137.719 59.8045C138.171 59.961 138.582 60.2144 138.926 60.547C139.246 60.8641 139.498 61.2428 139.668 61.6602C139.858 62.1319 139.953 62.6366 139.946 63.1451C139.962 63.6543 139.867 64.1608 139.668 64.6299C139.498 65.0473 139.246 65.426 138.926 65.7432C138.573 66.0637 138.164 66.3156 137.719 66.4856C137.215 66.6756 136.68 66.7699 136.142 66.7639C135.436 66.7533 134.741 66.5952 134.1 66.2998C133.539 66.0171 133.084 65.5618 132.801 65.0007C132.495 64.3957 132.336 63.7271 132.337 63.0492C132.331 62.5407 132.425 62.036 132.615 61.5643C132.785 61.1469 133.038 60.7682 133.358 60.4511C133.71 60.1305 134.119 59.8787 134.564 59.7086C135.084 59.6022 135.612 59.5412 136.142 59.5262ZM136.142 66.2998C136.488 66.2828 136.83 66.2203 137.16 66.114C137.448 65.9488 137.7 65.7278 137.902 65.464C138.129 65.1622 138.287 64.8148 138.366 64.4458C138.614 63.5975 138.614 62.6961 138.366 61.8477C138.269 61.4852 138.112 61.1412 137.902 60.8295C137.7 60.5657 137.448 60.3448 137.16 60.1796C136.845 60.0212 136.492 59.9567 136.142 59.9937C135.68 59.9731 135.224 60.1033 134.843 60.3645C134.466 60.6504 134.177 61.036 134.008 61.4778C133.637 62.5603 133.637 63.7357 134.008 64.8183C134.177 65.26 134.466 65.6457 134.843 65.9315C135.23 66.1804 135.682 66.3086 136.142 66.2998Z" fill="#CC0033"/>
<path d="M142.174 60.2695C142.081 60.177 141.988 60.177 141.803 60.0837L141.153 59.9912V59.6196H143.473L147.648 64.9091V61.0111C147.648 60.6403 147.648 60.4545 147.556 60.3611C147.556 60.2687 147.556 60.1753 147.463 60.1753C147.413 60.125 147.348 60.0925 147.277 60.0828L146.535 59.9903V59.6196H149.319V59.9903L148.669 60.0828C148.576 60.0828 148.483 60.1753 148.391 60.1753C148.298 60.2678 148.298 60.3611 148.298 60.5461V66.5772H147.463C146.021 64.4886 144.472 62.4753 142.824 60.5453V65.5591C142.824 65.7449 142.824 65.8374 142.916 65.9298C143.009 66.0223 143.102 66.0223 143.194 66.1157L143.844 66.2082V66.5772H140.967V66.2989L141.617 66.2065C141.71 66.2065 141.803 66.2065 141.803 66.114C141.853 66.0638 141.886 65.9986 141.895 65.9281C141.897 65.7083 141.928 65.4897 141.988 65.2782C141.988 64.5358 142.08 63.8867 142.08 63.2367C142.174 61.661 142.174 60.7328 142.174 60.2695Z" fill="#CC0033"/>
<path d="M154.886 59.712V61.5694H154.422L154.328 60.6361C154.236 60.1719 153.864 59.9861 153.122 59.9861C152.963 59.9777 152.805 60.007 152.66 60.0714C152.515 60.1358 152.387 60.2337 152.287 60.3569C152.187 60.4705 152.111 60.6029 152.064 60.7463C152.016 60.8896 151.997 61.0411 152.009 61.1918C151.984 61.3526 152.017 61.5168 152.101 61.6559C152.194 61.7484 152.287 61.9343 152.379 62.0267C152.482 62.1245 152.611 62.1893 152.75 62.2126C152.977 62.3531 153.229 62.4476 153.493 62.4909C153.765 62.5572 154.019 62.6839 154.235 62.8617C154.47 62.9494 154.69 63.0746 154.885 63.2325C155.107 63.3494 155.274 63.5495 155.349 63.7891C155.465 64.0198 155.529 64.2733 155.535 64.5315C155.542 64.9628 155.412 65.3852 155.164 65.7381C154.915 66.1109 154.561 66.4015 154.146 66.573C153.71 66.7722 153.234 66.8674 152.754 66.8513C152.29 66.8513 151.92 66.7588 151.548 66.7588C151.177 66.6663 150.898 66.6663 150.62 66.573V64.5392H151.084L151.27 65.3741C151.308 65.7029 151.475 66.0032 151.734 66.209C152.069 66.4097 152.457 66.5065 152.847 66.4873C153.048 66.5047 153.25 66.4808 153.442 66.417C153.633 66.3533 153.81 66.251 153.96 66.1165C154.093 65.9847 154.196 65.8251 154.26 65.649C154.324 65.473 154.348 65.2849 154.331 65.0983C154.346 64.908 154.314 64.717 154.239 64.5417C154.146 64.4492 154.053 64.2634 153.868 64.1709L153.311 63.8926C153.07 63.7845 152.822 63.6916 152.569 63.6143C152.276 63.5263 151.995 63.4017 151.734 63.2435C151.548 63.0577 151.27 62.8727 151.177 62.5935C150.943 62.2126 150.852 61.7611 150.92 61.3194C150.988 60.8777 151.211 60.4744 151.548 60.1813C152.033 59.8348 152.624 59.6705 153.219 59.7171C153.765 59.5758 154.339 59.5741 154.886 59.712Z" fill="#CC0033"/>
</svg>
