<svg width="160" height="56" viewBox="0 0 160 56" fill="none" xmlns="http://www.w3.org/2000/svg">
<path d="M93.2218 47.5946V44.0863H92.457V43.5262H93.2218V43.015C93.2218 42.5324 93.3444 42.1652 93.5896 41.913C93.8351 41.661 94.1744 41.5348 94.608 41.5348C94.8641 41.5348 95.0889 41.5633 95.2826 41.6207V42.1974C95.1813 42.1694 95.0783 42.1489 94.9738 42.1358C94.8823 42.1252 94.7902 42.1196 94.6978 42.1196C94.1444 42.1196 93.8679 42.4031 93.8679 42.97V43.5262H95.2541V44.0863H93.8679V47.5946H93.2218Z" fill="#67788A"/>
<path d="M96.1621 47.5949V43.5262H96.8082V44.2336C96.9364 43.9774 97.0999 43.7806 97.2989 43.6429C97.4979 43.5052 97.7283 43.4363 97.9901 43.4363C98.111 43.4358 98.2316 43.4481 98.3498 43.473V44.1193C98.2871 44.111 98.2196 44.1042 98.1474 44.0986C98.0752 44.0933 98.0049 44.0905 97.9369 44.0905C97.6396 44.0905 97.3991 44.1812 97.2152 44.3626C97.031 44.5437 96.8955 44.7859 96.8082 45.0882V47.5949H96.1621Z" fill="#67788A"/>
<path d="M100.868 47.6848C100.462 47.6848 100.11 47.5935 99.8127 47.4107C99.5171 47.2296 99.2783 46.969 99.1238 46.6586C98.9614 46.3394 98.8805 45.9741 98.8805 45.5627C98.8805 45.1484 98.9614 44.7817 99.1238 44.4625C99.2783 44.1521 99.5171 43.8915 99.8127 43.7104C100.11 43.5276 100.462 43.4363 100.868 43.4363H100.949C101.356 43.4363 101.707 43.5276 102.004 43.7104C102.3 43.8915 102.539 44.1521 102.693 44.4625C102.855 44.7817 102.937 45.1484 102.937 45.5627C102.937 45.9741 102.856 46.3394 102.693 46.6586C102.539 46.969 102.3 47.2296 102.004 47.4107C101.707 47.5935 101.356 47.6848 100.949 47.6848H100.868ZM100.872 47.0877H100.945C101.351 47.0877 101.673 46.9488 101.91 46.6709C102.148 46.3926 102.266 46.0234 102.266 45.5627C102.266 45.0994 102.148 44.7293 101.91 44.4525C101.673 44.1759 101.352 44.0373 100.945 44.0373H100.872C100.465 44.0373 100.144 44.1756 99.9067 44.4525C99.6696 44.729 99.5509 45.0991 99.5509 45.5627C99.5509 46.0234 99.6696 46.3926 99.9067 46.6709C100.144 46.9488 100.466 47.088 100.872 47.088V47.0877Z" fill="#67788A"/>
<path d="M103.872 47.5949V43.5262H104.519V44.2828C104.666 44.0211 104.854 43.8145 105.083 43.6631C105.312 43.5119 105.578 43.4363 105.88 43.4363H105.962C106.638 43.4363 107.073 43.7608 107.266 44.4094C107.422 44.1096 107.624 43.8725 107.874 43.6981C108.123 43.5237 108.41 43.4363 108.734 43.4363H108.82C109.278 43.4363 109.628 43.5897 109.869 43.8962C110.11 44.203 110.231 44.6411 110.231 45.2108V47.5949H109.585V45.3048C109.585 44.46 109.276 44.0373 108.657 44.0373H108.583C108.291 44.0373 108.041 44.1342 107.831 44.3276C107.621 44.5213 107.468 44.7665 107.373 45.0638V47.5949H106.727V45.3048C106.727 44.46 106.419 44.0373 105.803 44.0373H105.725C105.433 44.0373 105.183 44.1342 104.974 44.3276C104.766 44.5213 104.614 44.7665 104.519 45.0638V47.5949H103.872Z" fill="#67788A"/>
<path d="M129.658 40.8718H131.235L133.917 45.7235L136.599 40.8718H138.143V48.8439H136.856V42.7339L134.504 46.9647H133.297L130.945 42.7339V48.8439H129.658V40.8718Z" fill="#4326C4"/>
<path d="M142.294 48.9863C141.698 48.9863 141.174 48.8542 140.722 48.5905C140.275 48.331 139.908 47.9512 139.666 47.4943C139.413 47.0274 139.287 46.4922 139.287 45.8887C139.287 45.2773 139.41 44.7365 139.657 44.2657C139.904 43.7951 140.247 43.4267 140.685 43.1611C141.124 42.8954 141.627 42.7625 142.197 42.7625C142.763 42.7625 143.249 42.8963 143.657 43.1639C144.065 43.4315 144.38 43.8063 144.6 44.2883C144.82 44.7706 144.93 45.3364 144.93 45.9852V46.3382H140.563C140.642 46.8245 140.839 47.2068 141.152 47.4857C141.465 47.7647 141.861 47.9044 142.339 47.9041C142.723 47.9041 143.053 47.8473 143.33 47.7334C143.607 47.6195 143.867 47.4467 144.11 47.2152L144.793 48.0522C144.114 48.6751 143.281 48.9863 142.294 48.9863ZM143.233 44.2573C142.964 43.9818 142.611 43.8444 142.174 43.8444C141.749 43.8444 141.393 43.9849 141.107 44.2657C140.82 44.5467 140.638 44.9243 140.563 45.3988H143.694C143.656 44.9129 143.503 44.5324 143.233 44.2573Z" fill="#4326C4"/>
<path d="M146.491 43.9583H145.306V42.9049H146.491V41.1624H147.732V42.9049H149.531V43.9583H147.732V46.6288C147.732 47.073 147.808 47.3899 147.96 47.5797C148.111 47.7695 148.371 47.8644 148.74 47.8644C148.878 47.8658 149.017 47.8591 149.156 47.8445C149.269 47.8314 149.395 47.8132 149.531 47.7905V48.8324C149.375 48.8774 149.216 48.9119 149.056 48.9351C148.872 48.962 148.686 48.9754 148.5 48.9749C147.16 48.9749 146.49 48.2423 146.491 46.7769V43.9583Z" fill="#4326C4"/>
<path d="M156 48.8439H154.781V48.0125C154.571 48.3184 154.287 48.5662 153.956 48.7327C153.621 48.9015 153.242 48.9861 152.817 48.9863C152.293 48.9863 151.829 48.8523 151.425 48.5846C151.02 48.317 150.702 47.9489 150.471 47.4801C150.239 47.0112 150.124 46.4751 150.124 45.8716C150.124 45.2642 150.241 44.727 150.476 44.2601C150.712 43.7931 151.037 43.4267 151.453 43.1611C151.869 42.8954 152.346 42.7625 152.885 42.7625C153.291 42.7625 153.656 42.8411 153.978 42.9987C154.297 43.1527 154.572 43.3825 154.781 43.6677V42.9047H156V48.8439ZM154.759 44.9831C154.626 44.6452 154.416 44.3785 154.129 44.1831C153.843 43.9877 153.511 43.89 153.136 43.89C152.604 43.89 152.181 44.0683 151.866 44.4252C151.551 44.7818 151.393 45.2642 151.393 45.8716C151.393 46.4827 151.545 46.9667 151.849 47.3236C152.152 47.6805 152.564 47.8588 153.085 47.8588C153.468 47.8588 153.81 47.76 154.109 47.5626C154.404 47.3717 154.631 47.0926 154.759 46.7654V44.9831Z" fill="#4326C4"/>
<path d="M123.44 40.6023C122.405 40.6023 121.597 41.3816 120.864 42.3717C119.858 41.0905 119.016 40.6023 118.01 40.6023C115.956 40.6023 114.383 43.2744 114.383 46.1025C114.383 47.8725 115.239 48.9889 116.673 48.9889C117.706 48.9889 118.448 48.5021 119.768 46.1952C119.768 46.1952 120.318 45.2236 120.696 44.5546C120.829 44.7687 120.969 44.9994 121.115 45.2465L121.734 46.2879C122.94 48.305 123.611 48.9889 124.829 48.9889C126.226 48.9889 127.003 47.8571 127.003 46.0505C127.003 43.0894 125.395 40.6023 123.44 40.6023ZM118.761 45.5707C117.691 47.2477 117.321 47.6237 116.725 47.6237C116.112 47.6237 115.748 47.0856 115.748 46.1258C115.748 44.0725 116.772 41.9731 117.992 41.9731C118.653 41.9731 119.205 42.3546 120.051 43.5658C119.248 44.7978 118.761 45.5707 118.761 45.5707ZM122.8 45.3593L122.06 44.1254C121.859 43.7996 121.667 43.4998 121.482 43.226C122.149 42.1967 122.699 41.6839 123.354 41.6839C124.713 41.6839 125.8 43.6851 125.8 46.1431C125.8 47.08 125.493 47.6237 124.857 47.6237C124.248 47.6237 123.957 47.2214 122.8 45.3593Z" fill="#4326C4"/>
<path d="M113.323 11.527H110.381V27.7894H113.323V11.527ZM139.479 23.5175C139.195 24.7019 138.116 25.4738 136.726 25.4738C134.674 25.4738 133.554 23.9167 133.554 21.8407C133.554 19.7646 134.647 18.2076 136.685 18.2076C138.075 18.2076 139.236 19.0593 139.452 20.2304L142.246 19.5251C141.665 17.1962 139.371 15.7057 136.604 15.7057C132.852 15.7057 130.49 18.4338 130.49 21.8274C130.49 25.2209 132.852 27.9491 136.604 27.9491C139.425 27.9491 141.611 26.4187 142.273 24.2095L139.479 23.5175ZM153.043 23.8236C152.732 24.9548 151.747 25.5669 150.249 25.5669C148.387 25.5669 147.145 24.3426 146.929 22.4396H155.809C155.836 22.2 155.863 21.854 155.863 21.4547C155.863 18.6335 154.041 15.7323 150.006 15.7323C146.065 15.7323 144.108 18.6734 144.108 21.8141C144.108 24.9282 146.308 27.989 150.249 27.989C152.935 27.989 155.027 26.6582 155.742 24.5289L153.043 23.8236ZM150.006 17.8882C151.747 17.8882 152.8 19.0194 152.921 20.5232H146.996C147.307 18.7399 148.359 17.8882 150.006 17.8882ZM95.967 32.1677H98.8821V26.4852C99.5571 27.4034 100.839 27.9757 102.297 27.9757C105.833 27.9757 108.1 25.4738 108.1 21.854C108.1 18.2209 105.968 15.7323 102.513 15.7323C100.907 15.7323 99.5974 16.3977 98.8821 17.4091L98.3287 15.9186H95.967V32.1677ZM101.959 25.4738C99.9753 25.4738 98.6798 24.0365 98.6798 21.8407C98.6798 19.6449 99.9753 18.2076 101.959 18.2076C103.889 18.2076 105.185 19.6449 105.185 21.8407C105.185 24.0365 103.889 25.4738 101.959 25.4738ZM121.664 27.9757C123.175 27.9757 124.552 27.3369 125.132 26.392L125.686 27.7761H128.061V15.9053H125.686L125.132 17.2494C124.444 16.3312 123.122 15.719 121.623 15.719C118.033 15.719 115.941 18.2209 115.941 21.8407C115.941 25.4738 118.033 27.9757 121.664 27.9757ZM122.082 25.4738C120.152 25.4738 118.857 24.0365 118.857 21.8407C118.857 19.6449 120.152 18.2076 122.082 18.2076C124.066 18.2076 125.362 19.6449 125.362 21.8407C125.362 24.0365 124.053 25.4738 122.082 25.4738ZM45.1399 26.8445L47.6637 19.7913L50.147 26.8179C50.687 28.3616 52.9003 28.3749 53.4672 26.8445L57.5026 15.9053H54.5874L51.7801 24.1829L49.3371 16.93C48.7975 15.3198 46.4895 15.3198 45.9498 16.93L43.5068 24.1829L40.7266 15.9053H37.798L41.8875 26.8711C42.4406 28.3616 44.6 28.3483 45.1399 26.8445ZM64.3991 27.9624C68.0567 27.9624 70.6882 25.3673 70.6882 21.8407C70.6882 18.3008 68.0567 15.719 64.3991 15.719C60.7148 15.719 58.0963 18.3141 58.0963 21.8407C58.0963 25.3673 60.7148 27.9624 64.3991 27.9624ZM64.3991 25.4605C62.3882 25.4605 61.0521 23.97 61.0521 21.8274C61.0521 19.6848 62.3882 18.1943 64.3991 18.1943C66.383 18.1943 67.7191 19.6848 67.7191 21.8274C67.7191 23.9833 66.383 25.4605 64.3991 25.4605ZM80.3653 18.5403V15.7855C80.0817 15.7456 79.7847 15.7323 79.488 15.7323C77.8818 15.7323 76.5729 16.3977 75.8574 17.4091L75.3042 15.9186H72.9422V27.7894H75.8574V21.854C75.8574 20.5764 76.2084 19.5118 77.0857 18.8863C77.828 18.3407 78.9077 18.1544 80.3653 18.5403ZM85.4667 11.527H82.5247V27.7894H85.4667V11.527ZM93.6724 15.9053H90.2713L87.0863 20.1239C86.3037 21.1487 86.3305 22.5726 87.1269 23.584L90.474 27.7894H94.0775L89.0433 21.7608L93.6724 15.9053Z" fill="#4326C4"/>
<path d="M31.8633 20.0438C31.8633 12.8409 26.0226 7.01111 18.8306 7.01111C16.8365 7.01111 14.886 7.40339 13.0662 8.18797C11.29 8.93985 9.70997 10.0077 8.34784 11.3699C6.98575 12.7211 5.91786 14.312 5.16598 16.0773C4.3923 17.908 4 19.8476 4 21.8527C4 23.8577 4.3923 25.7973 5.16598 27.628C5.91786 29.3933 6.98575 30.9733 8.34784 32.3355C9.70997 33.6975 11.3009 34.7654 13.0662 35.5174C14.886 36.2911 16.8365 36.6833 18.8416 36.6833C20.7703 36.6833 22.6119 36.3127 24.3009 35.6481L23.1785 32.8149C21.8382 33.3488 20.378 33.6431 18.8416 33.6431C15.6924 33.6431 12.7284 32.4117 10.5055 30.1888C8.28248 27.9658 7.05111 25.0018 7.05111 21.8527C7.05111 18.7035 8.28248 15.7395 10.5055 13.5165C12.7393 11.2936 15.6924 10.0622 18.8416 10.0622C24.3554 10.0622 28.8231 14.53 28.8231 20.0438C28.8231 22.0706 28.2129 23.9666 27.1668 25.5467L24.5733 19.1611C24.1919 18.224 23.7342 16.8183 22.0125 16.8183C20.2908 16.8183 19.8332 18.2349 19.4627 19.1611L17.0763 25.0563L13.8726 16.9709H10.5055L14.4937 26.7998C14.8969 27.7914 15.3437 29.1427 17.0763 29.1427C18.8089 29.1427 19.2447 27.7914 19.6479 26.7998L22.0125 20.9591L24.3881 26.7998C24.8675 28.0094 25.3797 29.1427 26.9597 29.1427C28.0821 29.1427 28.7904 28.4235 29.1827 27.9549C30.8608 25.7646 31.8633 23.0186 31.8633 20.0438Z" fill="#4326C4"/>
</svg>
