<svg width="160" height="56" viewBox="0 0 160 56" fill="none" xmlns="http://www.w3.org/2000/svg">
<path d="M20.2101 32.7671C20.2101 33.7725 19.9975 34.7071 19.5721 35.5705C19.1468 36.4222 18.5442 37.1556 17.788 37.7471C17.02 38.3503 16.1103 38.8116 15.0588 39.1429C14.0073 39.474 12.8494 39.6396 11.597 39.6396C10.0965 39.6396 8.74962 39.4385 7.56813 39.0246C6.38664 38.6224 5.19331 37.9363 4 36.99L5.97311 33.7843C6.9183 34.5769 7.76897 35.1566 8.53694 35.5232C9.2931 35.8899 10.0729 36.0674 10.8763 36.0674C11.857 36.0674 12.6367 35.8189 13.2393 35.3103C13.8419 34.8016 14.1254 34.1274 14.1254 33.2638C14.1254 32.8972 14.0663 32.5542 13.96 32.2348C13.8537 31.9153 13.6528 31.5842 13.3693 31.2411C13.0857 30.91 12.684 30.5314 12.176 30.1411C11.6797 29.7506 11.0299 29.2539 10.2265 28.6742C9.62393 28.2484 9.02135 27.7989 8.44242 27.3494C7.86349 26.8881 7.34364 26.4031 6.85923 25.8826C6.38664 25.3621 6.00854 24.7826 5.71317 24.1319C5.42961 23.4932 5.27602 22.7479 5.27602 21.9318C5.27602 20.9855 5.47688 20.11 5.86677 19.3294C6.25666 18.5487 6.80015 17.8863 7.48541 17.3303C8.17067 16.7743 8.98591 16.3485 9.95474 16.0409C10.9118 15.7334 11.9515 15.5796 13.0857 15.5796C14.279 15.5796 15.4251 15.7334 16.5357 16.0528C17.6462 16.3722 18.6741 16.8335 19.6312 17.4486L17.8471 20.3349C16.6302 19.4831 15.3424 19.0455 13.9955 19.0455C13.1802 19.0455 12.495 19.2584 11.9633 19.6842C11.4316 20.11 11.1599 20.6424 11.1599 21.2929C11.1599 21.9081 11.3962 22.464 11.8688 22.949C12.3413 23.4458 13.1566 24.1202 14.3145 25.019C15.4841 25.8708 16.453 26.6279 17.2091 27.2666C17.9771 27.9053 18.5797 28.5205 19.0286 29.0882C19.4776 29.6561 19.773 30.2239 19.9502 30.8153C20.1274 31.4185 20.2101 32.0573 20.2101 32.7671ZM40.4727 27.3613C40.4727 28.2484 40.3782 29.2066 40.1892 30.2356C40.0119 31.2648 39.6929 32.2111 39.2441 33.0864C38.7951 33.9618 38.2161 34.6834 37.4954 35.2393C36.7747 35.8071 35.8531 36.0909 34.7543 36.0909C32.9112 36.0909 31.4579 35.3576 30.3946 33.879C29.3312 32.4122 28.7996 30.3895 28.7996 27.8226C28.7996 25.1847 29.3312 23.1028 30.4182 21.5532C31.4934 20.0036 32.9584 19.2347 34.8016 19.2347C36.5503 19.2347 37.9325 19.9681 38.9487 21.4113C39.9648 22.8663 40.4727 24.8535 40.4727 27.3613ZM46.8765 27.1365C46.8765 25.4213 46.6283 23.8598 46.144 22.464C45.6477 21.0565 44.9624 19.8499 44.0526 18.8326C43.143 17.8153 42.0796 17.0346 40.839 16.4668C39.5984 15.899 38.2279 15.6151 36.7274 15.6151C35.0733 15.6151 33.6201 15.9345 32.3677 16.5496C31.1154 17.1765 29.9456 18.1583 28.8822 19.5068L28.8469 16.1592H22.9512V50.5696H28.8351V36.0319C29.414 36.7061 29.9692 37.2738 30.5128 37.7353C31.0444 38.1966 31.588 38.5751 32.1433 38.859C32.6985 39.1429 33.2774 39.3558 33.8918 39.4741C34.5062 39.5924 35.1679 39.6515 35.8649 39.6515C37.4245 39.6515 38.8896 39.3321 40.2365 38.717C41.5834 38.0901 42.753 37.2148 43.7337 36.0792C44.7143 34.9435 45.4823 33.6187 46.0376 32.1164C46.6048 30.6024 46.8765 28.9345 46.8765 27.1365ZM49.4994 39.0956H55.5486V5.43039H49.4994V39.0956ZM81.3525 39.1074V16.1356H75.3033V28.4968C75.3033 29.5969 75.256 30.4485 75.1615 31.0519C75.0669 31.6551 74.9133 32.1874 74.7007 32.6843C73.85 34.5769 72.2786 35.535 69.9983 35.535C68.2143 35.535 66.9737 34.8963 66.2648 33.6069C65.9813 33.1219 65.7922 32.5659 65.6859 31.9508C65.5795 31.3358 65.5205 30.4485 65.5205 29.2776V16.1356H59.4712V29.1829C59.4712 30.07 59.483 30.8271 59.4949 31.4304C59.5067 32.0337 59.5539 32.5896 59.613 33.0627C59.6721 33.5359 59.7429 33.9618 59.8257 34.3285C59.8965 34.6951 60.0147 35.05 60.1683 35.3813C60.7236 36.7888 61.6097 37.8535 62.8502 38.5751C64.0908 39.2966 65.615 39.6515 67.4109 39.6515C69.0295 39.6515 70.4591 39.3675 71.6879 38.7998C72.9167 38.232 74.11 37.3093 75.2678 36.02L75.2796 39.0956L81.3525 39.1074ZM107.416 39.0956V26.0719C107.416 25.1847 107.405 24.4276 107.393 23.8007C107.381 23.1737 107.345 22.6297 107.274 22.1684C107.215 21.707 107.133 21.3048 107.05 20.9618C106.956 20.6069 106.849 20.2639 106.731 19.9326C106.176 18.5605 105.29 17.4959 104.049 16.7507C102.808 16.0055 101.284 15.6269 99.4767 15.6269C97.8579 15.6269 96.4284 15.9108 95.1996 16.4786C93.9708 17.0464 92.7775 17.9808 91.6197 19.2584L91.6079 16.1829H85.5232V39.1074H91.6197V26.7343C91.6197 25.6697 91.6552 24.8298 91.7378 24.2384C91.8087 23.6469 91.9624 23.091 92.175 22.5587C92.5649 21.636 93.1793 20.95 93.9945 20.4768C94.8098 20.0036 95.7785 19.7671 96.9128 19.7671C98.6969 19.7671 99.9375 20.4058 100.646 21.6952C100.918 22.1802 101.107 22.7361 101.213 23.3394C101.32 23.9427 101.379 24.8416 101.379 26.001V39.0837L107.416 39.0956ZM132.44 37.5814L123.225 26.1192L131.01 17.768L126.427 15.7925L118.321 25.1965H117.683V5.43039H111.587V39.0956H117.683V26.8998L126.805 39.5569L132.44 37.5814ZM156 29.3485V25.5987L137.675 16.3958V20.5241L151.876 27.444L137.675 34.4585V38.4922L156 29.3485ZM139.446 10.4459C138.324 10.4459 137.414 11.3685 137.414 12.5041C137.414 13.6633 138.324 14.5742 139.446 14.5742C140.581 14.5742 141.479 13.6633 141.479 12.5041C141.479 11.3567 140.581 10.4459 139.446 10.4459ZM139.459 10.7652C140.368 10.7652 141.1 11.5459 141.1 12.5159C141.1 13.4859 140.368 14.2666 139.459 14.2548C138.537 14.2548 137.804 13.4859 137.804 12.5041C137.804 11.5459 138.537 10.7652 139.459 10.7652ZM139.069 12.717H139.316C139.612 12.717 139.754 12.8235 139.813 13.1192C139.86 13.4267 139.919 13.6278 139.967 13.6988H140.357C140.32 13.6278 140.261 13.4859 140.215 13.131C140.167 12.788 140.037 12.6106 139.825 12.5751V12.5514C140.073 12.4804 140.274 12.2912 140.274 11.9954C140.274 11.7825 140.203 11.6169 140.061 11.5223C139.919 11.4158 139.695 11.3449 139.352 11.3449C139.08 11.3449 138.891 11.3685 138.703 11.404V13.6988H139.069V12.717ZM139.069 11.6524C139.128 11.6406 139.211 11.6288 139.329 11.6288C139.742 11.6288 139.884 11.8298 139.884 12.0309C139.884 12.3148 139.623 12.4213 139.329 12.4213H139.069V11.6524Z" fill="#0C1724"/>
</svg>
