<svg width="232" height="48" viewBox="0 0 232 48" fill="none" xmlns="http://www.w3.org/2000/svg">
<path d="M213.784 20.0061L218.506 31.4093H218.561L223.172 20.0061H226.43L216.49 42.8954H213.398L217.098 34.8884L210.554 20.0061H213.784ZM203.071 19.4815C205.28 19.4815 207.019 20.0613 208.289 21.2486C209.56 22.4359 210.195 24.0373 210.195 26.1081V35.9099H207.35V33.701H207.213C205.97 35.5234 204.341 36.4345 202.297 36.4345C200.558 36.4345 199.095 35.9099 197.908 34.8883C196.72 33.8391 196.14 32.5414 196.14 30.9952C196.14 29.3662 196.748 28.0408 198.018 27.0744C199.261 26.1081 200.917 25.6111 202.988 25.6111C204.755 25.6111 206.218 25.9425 207.378 26.5775V25.8872C207.378 24.838 206.964 23.9821 206.135 23.2365C205.308 22.5186 204.341 22.1597 203.236 22.1597C201.58 22.1597 200.255 22.85 199.288 24.2582L196.665 22.6015C198.101 20.5307 200.255 19.4815 203.071 19.4815ZM187.995 12.6617C190.011 12.6617 191.723 13.3244 193.131 14.6773C194.566 16.0302 195.257 17.6592 195.257 19.5644C195.257 21.5248 194.538 23.1814 193.131 24.4791C191.75 25.8045 190.039 26.4672 187.995 26.4672H183.081V35.8823H180.098V12.6617H187.995ZM203.457 27.958C202.243 27.958 201.249 28.2617 200.42 28.8415C199.619 29.449 199.205 30.1669 199.205 31.0228C199.205 31.7959 199.537 32.4585 200.199 32.9555C200.862 33.4801 201.635 33.7287 202.518 33.7287C203.761 33.7287 204.893 33.2593 205.887 32.3481C206.881 31.4093 207.35 30.3325 207.35 29.0625C206.412 28.3169 205.114 27.958 203.457 27.958ZM188.078 15.5609H183.081V23.6508H188.078C189.266 23.6508 190.259 23.2643 191.032 22.4635C191.833 21.6629 192.219 20.7241 192.219 19.6196C192.219 18.5429 191.833 17.604 191.032 16.8034C190.259 15.975 189.266 15.5609 188.078 15.5609Z" fill="#5F6368"/>
<path d="M137.964 19.5092C139.979 19.5092 141.581 20.3927 142.41 21.3867H142.547V20.0062H146.082V35.1921C146.082 41.4321 142.41 43.9999 138.047 43.9999C133.96 43.9999 131.503 41.2389 130.564 39.0024L133.795 37.6494C134.374 39.03 135.783 40.6591 138.047 40.6591C140.836 40.6591 142.547 38.9196 142.547 35.6891V34.4742H142.41C141.581 35.4958 139.979 36.4069 137.964 36.4069C133.739 36.4069 129.874 32.7347 129.874 27.9857C129.874 23.2091 133.739 19.5092 137.964 19.5092ZM162.262 19.5368C166.652 19.5368 168.778 23.0159 169.496 24.9209L169.883 25.8873L158.59 30.5536C159.446 32.2379 160.799 33.1214 162.676 33.1214C164.554 33.0662 165.879 32.155 166.845 30.7469L169.717 32.6796C168.778 34.0601 166.542 36.4347 162.676 36.4347C157.872 36.4347 154.31 32.7348 154.31 27.9858C154.31 22.9606 157.927 19.5368 162.262 19.5368ZM79.5965 10.177C83.6 10.177 86.4439 11.7508 88.57 13.794L86.0298 16.3342C84.4836 14.8985 82.4128 13.7664 79.5688 13.7664C74.2952 13.7664 70.1536 18.0185 70.1536 23.2921C70.1536 28.5657 74.2676 32.8179 79.5688 32.8179C82.9926 32.8179 84.9529 31.4373 86.1954 30.1948C87.217 29.1732 87.8797 27.7098 88.1558 25.6942H79.4861V22.1049H91.6347C91.7728 22.7399 91.828 23.513 91.828 24.3413C91.828 27.0196 91.0825 30.3605 88.7356 32.735C86.4163 35.1371 83.4896 36.4072 79.5965 36.4072C72.3624 36.4072 66.2881 30.5261 66.2881 23.2921C66.2881 16.0581 72.3624 10.177 79.5965 10.177ZM101.548 19.5092C106.214 19.5092 110.025 23.071 110.025 27.9581C110.025 32.8176 106.214 36.4069 101.548 36.4069C96.8819 36.4069 93.0716 32.8176 93.0716 27.9581C93.0716 23.071 96.8819 19.5092 101.548 19.5092ZM119.991 19.5092C124.657 19.5092 128.468 23.071 128.468 27.9581C128.468 32.8176 124.657 36.4069 119.991 36.4069C115.324 36.4069 111.514 32.8176 111.514 27.9581C111.514 23.071 115.324 19.5092 119.991 19.5092ZM152.461 11.0606V35.8827H148.761V11.0606H152.461ZM101.576 22.8501C99.0356 22.8501 96.8267 24.9209 96.8267 27.9581C96.8267 30.9676 99.0356 33.0661 101.576 33.0661C104.116 33.0661 106.325 30.9676 106.325 27.9581C106.325 24.9209 104.116 22.8501 101.576 22.8501ZM119.991 22.8501C117.45 22.8501 115.242 24.9209 115.242 27.9581C115.242 30.9676 117.45 33.0661 119.991 33.0661C122.531 33.0661 124.74 30.9676 124.74 27.9581C124.74 24.9209 122.531 22.8501 119.991 22.8501ZM138.323 22.8225C135.755 22.8225 133.629 25.0037 133.629 27.9857C133.629 30.9401 135.783 33.0661 138.323 33.0661C140.836 33.0661 142.823 30.9401 142.823 27.9857C142.823 25.0037 140.836 22.8225 138.323 22.8225ZM162.372 22.7674C160.495 22.7674 157.872 24.4516 157.982 27.7096L165.52 24.562C165.106 23.5128 163.864 22.7674 162.372 22.7674Z" fill="#5F6368"/>
<path d="M46.7067 11.4609C42.2393 8.88209 36.5267 10.4145 33.945 14.8819L27.4372 26.1553C25.5542 29.4107 27.9784 30.5482 30.6815 32.169L36.9436 35.7832C39.0641 37.0064 41.7727 36.2802 42.9959 34.1625L49.686 22.577C51.9335 18.6839 50.5998 13.7085 46.7067 11.4609Z" fill="#EA4335"/>
<path d="M39.343 16.127L33.0809 12.5128C29.624 10.5938 27.6665 10.4668 26.2472 12.7226L17.0115 28.7176C14.4326 33.1822 15.9678 38.8921 20.4324 41.4654C24.3255 43.7129 29.301 42.3793 31.5485 38.4862L40.961 22.182C42.1897 20.0616 41.4635 17.3502 39.343 16.127Z" fill="#FBBC04"/>
<path d="M40.5484 7.90456L36.15 5.36437C31.285 2.55636 25.0643 4.22128 22.2563 9.0863L13.8819 23.5902C12.645 25.73 13.3794 28.469 15.5193 29.7032L20.4451 32.5471C22.8775 33.9526 25.9865 33.1187 27.3919 30.6862L36.959 14.117C38.9415 10.685 43.3288 9.50874 46.7608 11.4912L40.5484 7.90456Z" fill="#34A853"/>
<path d="M23.4459 13.2358L18.6914 10.4968C16.5708 9.27642 13.8622 9.99981 12.6391 12.1148L6.93472 21.9719C4.1267 26.823 5.79163 33.03 10.6566 35.8297L14.2764 37.9143L18.6665 40.4434L20.5717 41.5395C17.1893 39.2755 16.1153 34.739 18.1833 31.1662L19.6605 28.615L25.0694 19.2687C26.2898 17.1593 25.5637 14.4562 23.4459 13.2358Z" fill="#4285F4"/>
</svg>
