<svg width="184" height="48" viewBox="0 0 184 48" fill="none" xmlns="http://www.w3.org/2000/svg">
<path d="M67.1981 28.9366L67.1656 28.5125H63.6543L63.6735 28.9883C63.8893 34.2937 67.4419 37.8065 73.7596 37.8065C79.7862 37.8065 83.8827 34.6543 83.8827 29.8853C83.8827 27.3051 82.9945 25.48 81.2994 24.2327C79.9975 23.2751 78.4384 22.7342 75.8552 22.1697C75.4788 22.087 75.102 22.0067 74.7246 21.9288C70.0326 20.9386 68.5444 20.0785 68.5444 17.5175C68.5444 14.8692 70.6961 13.1816 74.3049 13.1816C77.8162 13.1816 80.0359 15.3392 80.1394 18.7382L80.1527 19.1815H83.6388L83.6285 18.7145C83.5073 13.4165 79.9753 9.85204 74.268 9.85204C68.6744 9.85204 64.9814 13.2407 64.9814 17.6268C64.9814 20.1982 65.8695 21.9908 67.5676 23.1879C68.8592 24.0982 70.3562 24.5815 72.9971 25.1194C73.2673 25.1745 73.5378 25.2287 73.8084 25.2819C76.3059 25.7785 77.4098 26.0859 78.4162 26.6755C79.665 27.4056 80.2842 28.4489 80.2842 30.0671C80.2842 32.875 77.9389 34.4769 73.832 34.4769C69.901 34.4769 67.4626 32.4922 67.1966 28.9351L67.1981 28.9366ZM91.2422 9.39244V8.93579H87.7546V37.2951H91.2422V31.944L94.9146 28.3425L101.475 37.1119L101.611 37.2937H105.952L105.398 36.5607L97.3885 25.9381L104.775 18.5372L105.555 17.7539H100.813L100.68 17.8899L91.2422 27.4573V9.39392V9.39244ZM123.847 28.7312H124.276L124.301 28.3026C124.321 27.964 124.333 27.625 124.338 27.2859C124.338 21.5445 120.561 17.315 114.979 17.315C109.408 17.315 105.438 21.8179 105.438 27.5046C105.438 33.3567 109.227 37.7311 115.014 37.7311C119.392 37.7311 122.773 35.1183 123.991 31.1533L124.174 30.5607H120.546L120.439 30.8651C119.674 33.0346 117.602 34.4755 115.051 34.4755C111.716 34.4755 109.391 32.1701 108.972 28.7312H123.847ZM109.078 25.6943C109.666 22.6145 111.915 20.5707 114.979 20.5707C118.136 20.5707 120.314 22.548 120.791 25.6943H109.078ZM135.788 20.8633H136.243V17.7539H131.99V12.4486H128.501V17.7539H124.975V20.8662H128.501V31.8242C128.501 35.4183 130.353 37.3661 133.753 37.3661C134.346 37.3661 134.859 37.3321 135.287 37.2715C135.553 37.2345 135.736 37.1961 135.837 37.168L136.169 37.0749V33.8178L135.62 33.9375C135.458 33.9705 135.295 33.999 135.132 34.0232C134.784 34.0771 134.432 34.1067 134.08 34.1119C132.59 34.1119 131.99 33.407 131.99 31.641V20.8647H135.788V20.8633ZM146.638 37.7311C151.468 37.7311 154.879 34.6543 155.736 30.3006L155.842 29.7538H152.323L152.233 30.0937C151.499 32.872 149.508 34.4755 146.638 34.4755C143.057 34.4755 140.587 31.6307 140.587 27.5415C140.587 23.4199 143.053 20.5707 146.638 20.5707C149.508 20.5707 151.5 22.1726 152.233 24.9509L152.322 25.2908H155.842L155.736 24.744C154.879 20.3918 151.468 17.315 146.638 17.315C141.028 17.315 137.061 21.849 137.061 27.5415C137.061 33.2016 141.033 37.7311 146.638 37.7311ZM162.268 9.39392V8.93727H158.779V37.2951H162.268V25.8228C162.268 22.4682 164.297 20.4997 167.375 20.4997C170.316 20.4997 171.792 22.214 171.792 25.4578V37.2951H175.281V24.9435C175.281 20.3608 172.462 17.315 167.811 17.315C165.418 17.315 163.496 18.1973 162.269 19.4638V9.39392H162.268Z" fill="black"/>
<path d="M18.3596 5.31762L30.8152 4.00049L43.2708 5.31762L52.9135 18.2861L30.8152 44.0001L8.7168 18.2861L18.3596 5.31762Z" fill="#FDB300"/>
<path d="M17.6681 18.2865L30.8152 44.0005L8.7168 18.2865H17.6681Z" fill="#EA6C00"/>
<path d="M43.9629 18.2865L30.8145 44.0005L52.9128 18.2865H43.9629Z" fill="#EA6C00"/>
<path d="M17.668 18.2865H43.962L30.815 44.0005L17.668 18.2865Z" fill="#FDAD00"/>
<path d="M30.815 4.00049L18.3594 5.31762L17.668 18.2861L30.815 4.00049Z" fill="#FDD231"/>
<path d="M30.8145 4.00049L43.2701 5.31762L43.9615 18.2861L30.8145 4.00049Z" fill="#FDD231"/>
<path d="M52.9121 18.2863L43.2693 5.31787L43.9622 18.2863H52.9121ZM8.7168 18.2863L18.3596 5.31787L17.6681 18.2863H8.7168Z" fill="#FDAD00"/>
<path d="M30.815 4.00049L17.668 18.2861H43.962L30.815 4.00049Z" fill="#FEEEB7"/>
</svg>
