<svg width="160" height="128" viewBox="0 0 160 128" fill="none" xmlns="http://www.w3.org/2000/svg">
<path d="M52.4197 84.15H47.7994V74.5204H39.2468V84.15H34.6265V60.6654H39.2468V70.4916H47.7994V60.6654H52.4197V84.15Z" fill="#086B92"/>
<path d="M31.5153 84.4106H26.895V60.9261H31.5153V84.4106Z" fill="#086B92"/>
<path d="M4 60.8205H8.5071L19.2636 77.5847V60.8204L23.5308 60.8205V84.597H19.2636L8.5071 68.0679V84.597H4V60.8205Z" fill="#086B92"/>
<path d="M153.879 104.597C148.53 102.984 144.773 97.1108 141.699 91.5828C139.081 86.8609 136.918 81.448 135.097 75.3441C143.407 63.3666 149.327 50.2374 152.856 36.3021C154.335 30.4285 155.701 24.2094 155.701 18.2207C155.701 14.5353 154.905 8.20107 149.896 6.47354C149.782 6.47354 149.668 6.47354 149.668 6.47354C148.644 6.47354 147.05 7.85556 145.684 9.12241C145.457 9.35274 145.342 9.46791 145.229 9.58309C145.229 9.58309 141.358 13.2684 141.471 13.8443V14.0746L141.699 14.1898C149.44 16.8387 146.936 29.5071 145.57 36.3021L145.342 37.4538C143.18 48.3948 139.309 59.3357 133.617 69.7009C133.503 69.2401 133.389 68.6643 133.275 68.2037C132.479 64.8638 131.34 55.1458 131.907 46.7824C132.292 41.1022 132.476 36.3021 133.615 32.3864C135.322 25.4763 141.811 25.5914 140.445 23.7488C138.737 21.4454 133.045 23.1729 130.769 25.4763C128.492 27.7796 126.784 32.3864 126.215 35.2655C125.646 38.1448 125.517 41.1868 125.646 47.3582C125.822 55.7296 126.931 62.4211 127.128 63.4817C127.811 67.6279 128.836 71.6587 130.088 75.4593C124.51 84.4424 117.908 92.7345 110.394 100.22C107.207 103.33 103.678 106.094 100.035 108.513C98.0996 109.779 95.9368 111.046 93.0907 112.428C90.7002 113.695 88.7649 114.501 86.3744 113.35C85.5775 113.004 84.0976 114.156 82.0486 115.998C81.8209 116.114 81.707 116.344 81.5932 116.344C81.5932 116.344 77.7227 119.914 77.8364 120.49V120.72L78.0641 120.836C79.0887 121.296 79.9994 121.526 81.024 121.526C82.5039 121.526 83.8699 121.066 85.3498 120.26C88.0819 118.878 90.4725 117.611 92.6355 116.229C97.4167 113.35 102.539 109.549 108.459 104.482C116.997 97.226 124.738 88.934 131.568 79.9509C132.479 82.5997 133.503 85.1333 134.641 87.5519C138.284 95.4985 142.269 100.796 146.936 104.251C148.757 105.518 150.806 106.555 152.856 107.246C152.856 107.246 153.652 107.476 154.449 107.476C154.79 107.476 155.132 107.476 155.36 107.246C155.588 107.13 155.815 106.9 155.929 106.555C156.156 106.094 155.929 105.288 153.879 104.597Z" fill="#ED403F"/>
<path d="M104.202 55.7256C105.609 55.7256 106.751 54.5849 106.751 53.178C106.751 51.7711 105.609 50.6306 104.202 50.6306C102.794 50.6306 101.653 51.7711 101.653 53.178C101.653 54.5849 102.794 55.7256 104.202 55.7256Z" fill="#2C2C2C"/>
<path d="M23.3805 55.3643H18.9892V45.7346H8.67893V55.3643H4.05859V31.8798H8.67893V41.7059H18.9892V31.8798H23.3805V55.3643Z" fill="#2C2C2C"/>
<path d="M31.4931 55.3643H26.8937V31.8798H31.4931V55.3643Z" fill="#2C2C2C"/>
<path d="M52.8223 31.944L45.4494 53.9546C45.0562 55.0355 44.368 55.4285 43.385 55.4285C42.3037 55.4285 41.6155 54.9371 41.2223 53.9546L33.9477 31.944H38.6664L43.2867 47.1745L47.907 31.944H52.8223Z" fill="#2C2C2C"/>
<path d="M58.044 43.4459V56.6809H54.4218V43.4459H58.044ZM53.9806 39.5334C53.9806 39.1464 54.0891 38.7866 54.3057 38.4537C54.5225 38.1209 54.8088 37.8578 55.1648 37.6643C55.5208 37.463 55.8962 37.3624 56.291 37.3624C56.9256 37.3624 57.4325 37.5481 57.8119 37.9197C58.1911 38.2835 58.3807 38.7555 58.3807 39.336C58.3807 39.723 58.2723 40.0868 58.0557 40.4274C57.8466 40.7602 57.5642 41.0272 57.2082 41.2284C56.8599 41.4219 56.4844 41.5186 56.082 41.5186C55.6873 41.5186 55.3312 41.4335 55.0139 41.2632C54.6966 41.0929 54.4451 40.857 54.2592 40.555C54.0735 40.2533 53.9806 39.9127 53.9806 39.5334ZM65.3697 43.4459L65.4394 44.8622C65.9734 44.4597 66.639 44.0921 67.4362 43.7593C68.2335 43.4265 69.0035 43.2484 69.7466 43.2253C70.6985 43.1944 71.4764 43.3452 72.0801 43.678C72.6838 44.0031 73.1327 44.5487 73.4269 45.315C73.7287 46.0735 73.8796 47.0952 73.8796 48.38V56.6809H70.2574V49.1578C70.2574 48.407 70.1993 47.8265 70.0833 47.4164C69.9672 46.9984 69.7697 46.7004 69.4911 46.5224C69.2125 46.3444 68.8178 46.2631 68.3069 46.2787C67.92 46.2864 67.4827 46.3754 66.9951 46.5457C66.5075 46.716 66.078 46.9635 65.7064 47.2886V56.6809H62.0842V43.4459H65.3697ZM76.7124 45.9536V43.8406L78.5119 43.4459V42.1804C78.5119 40.9653 78.7519 39.9822 79.2317 39.2316C79.7116 38.4808 80.323 37.9468 81.0659 37.6294C81.8167 37.3043 82.6139 37.1419 83.4576 37.1419C83.9142 37.1419 84.3748 37.1728 84.8391 37.2347C85.3113 37.2888 85.6324 37.3431 85.8027 37.3973V39.9745C85.4158 39.7888 84.8121 39.6959 83.9916 39.6959C83.4267 39.6959 82.9738 39.9011 82.6334 40.3112C82.3005 40.7215 82.1341 41.3174 82.1341 42.0991V43.4459H85.2223V45.9536H82.1341V56.6809H78.5119V45.9536H76.7124ZM86.836 49.9357C86.836 48.5192 87.1147 47.3118 87.6719 46.3135C88.2291 45.3072 89.0031 44.5487 89.9939 44.038C90.9845 43.5195 92.1223 43.26 93.407 43.26C94.8698 43.26 96.0734 43.5697 97.0176 44.1888C97.9619 44.8003 98.6469 45.6246 99.0726 46.6617C99.506 47.6911 99.7228 48.8559 99.7228 50.1562C99.7228 51.5804 99.444 52.7955 98.8868 53.8017C98.3296 54.8078 97.5557 55.5702 96.5649 56.0888C95.5743 56.6073 94.4403 56.8666 93.1633 56.8666C91.6928 56.8666 90.4854 56.5571 89.5411 55.9379C88.5968 55.3186 87.908 54.4906 87.4746 53.4534C87.0489 52.4086 86.836 51.236 86.836 49.9357ZM95.9728 50.1679C95.9728 48.9295 95.7523 47.9001 95.3111 47.0797C94.8698 46.2515 94.2004 45.8374 93.3026 45.8374C91.4914 45.8374 90.586 47.1842 90.586 49.8776C90.586 50.6903 90.6788 51.4333 90.8646 52.1067C91.058 52.7723 91.3561 53.3063 91.7585 53.7089C92.1687 54.1112 92.6795 54.3126 93.291 54.3126C95.0789 54.3126 95.9728 52.931 95.9728 50.1679Z" fill="#2C2C2C"/>
<path d="M69.9298 82.1684L70.0989 83.8317C70.0989 83.8317 69.4227 83.8392 69.1595 83.8763C68.2551 84.0043 67.9426 84.1466 67.306 84.5258C66.6518 84.9156 65.9816 85.7103 65.9816 85.7103C65.4079 86.0826 64.3343 86.3442 64.4276 85.594C64.4276 85.594 64.8718 84.3085 66.4444 83.2269C68.0171 82.1452 69.9298 82.1684 69.9298 82.1684Z" fill="#2C2C2C"/>
<path d="M87.1272 66.3363C91.0595 66.3363 94.4018 69.3824 94.4018 74.6885C94.4018 79.8964 91.0595 82.9425 87.1272 82.9425C83.1951 82.9425 79.9509 79.8964 79.9509 74.6885C79.9509 69.3824 83.2933 66.3363 87.1272 66.3363ZM87.1272 81.6651C90.3713 81.6651 92.8289 78.9138 92.8289 74.7868C92.8289 70.5616 90.3713 67.8102 87.1272 67.8102C83.8832 67.8102 81.4256 70.6598 81.4256 74.7868C81.4256 78.9138 83.8832 81.6651 87.1272 81.6651Z" fill="#2C2C2C"/>
<path d="M95.0896 66.7289H96.6624L100.201 76.2604C100.693 77.7342 101.184 79.2082 101.774 80.5839H101.873C102.364 79.2082 102.856 77.7342 103.446 76.2604L106.985 66.7289H108.459L102.757 81.8612C101.873 83.7282 101.086 81.8612 101.086 81.8612L95.0896 66.7289Z" fill="#2C2C2C"/>
<path d="M57.4977 84.5963C58.9054 84.5963 60.0464 83.4557 60.0464 82.0487C60.0464 80.6418 58.9054 79.5012 57.4977 79.5012C56.0903 79.5012 54.9492 80.6418 54.9492 82.0487C54.9492 83.4557 56.0903 84.5963 57.4977 84.5963Z" fill="#2C2C2C"/>
<path d="M73.8644 82.1506H70.1265C70.0281 82.1506 69.9297 82.1506 69.9297 82.1506C69.9297 82.1506 69.5363 83.2315 69.2412 83.7227C69.6347 83.7227 69.9297 83.8209 70.1265 83.8209H73.8644C76.5202 83.8209 77.8974 84.4104 77.8974 86.3755C77.8974 88.5371 75.3399 90.6989 71.4053 90.6989C67.6674 90.6989 65.6017 89.225 65.6017 87.1617C65.6017 86.6703 65.7001 86.179 65.9953 85.6878C65.5033 85.786 64.9131 85.6878 64.4214 85.5896C64.2246 86.0808 64.0279 86.572 64.0279 87.0634C64.0279 89.9128 66.7821 91.7796 71.2085 91.7796C76.2251 91.7796 79.4711 89.0285 79.4711 86.0808C79.6679 83.3297 77.799 82.1506 73.8644 82.1506Z" fill="#2C2C2C"/>
<path fill-rule="evenodd" clip-rule="evenodd" d="M69.0216 78.0449C69.6849 78.2274 70.3448 78.3186 70.9135 78.3186C74.3563 78.3186 77.012 75.8621 77.012 72.3249C77.012 70.4581 76.2252 68.9843 75.1431 68.0017H79.1761V66.8226H73.1759C72.5858 66.6261 71.7988 66.4296 70.9135 66.4296C67.4708 66.4296 64.8149 68.886 64.8149 72.4232C64.8149 74.1918 65.6018 75.6656 66.5854 76.6483C66.9537 77.0161 67.3854 77.314 67.8024 77.5425C66.1545 78.7526 64.6647 81.1043 68.1687 83.5465C68.1687 83.5465 70.3989 82.6153 70.4676 82.6243C68.8656 82.0601 66.2342 80.5859 69.0216 78.0449ZM69.0216 78.0449C69.1684 77.9111 69.3302 77.7743 69.508 77.6345L68.0734 77.3544C67.9831 77.4135 67.8925 77.4763 67.8024 77.5425C68.226 77.7745 68.6345 77.9348 68.9462 78.0237L69.0216 78.0449ZM70.8151 67.707C68.356 67.707 66.2904 69.5738 66.2904 72.4232C66.2904 75.2727 68.356 77.2378 70.8151 77.2378C73.2742 77.2378 75.3399 75.2727 75.3399 72.4232C75.3399 69.5738 73.2742 67.707 70.8151 67.707Z" fill="#2C2C2C"/>
<path d="M69.508 77.6345L68.0734 77.3544C67.9831 77.4135 67.8925 77.4763 67.8024 77.5425C68.226 77.7745 68.6345 77.9348 68.9462 78.0237L69.0216 78.0449C69.1684 77.9111 69.3302 77.7743 69.508 77.6345Z" fill="#2C2C2C"/>
</svg>
