<svg width="160" height="72" viewBox="0 0 160 72" fill="none" xmlns="http://www.w3.org/2000/svg">
<path fill-rule="evenodd" clip-rule="evenodd" d="M28.7332 36.4503L31.2392 34.3945L28.7332 32.3395L31.2392 34.3945L28.7332 36.4503ZM28.7332 19.3745L31.2392 21.4303L28.7332 23.4846L31.2392 21.4303L28.7332 19.3745ZM31.3525 34.2567L28.8465 32.2017L28.7967 32.1611H20.0039V23.663H28.7967L28.8465 23.6232L31.3525 21.5682L31.5209 21.4303L31.3525 21.2925L28.8465 19.2367L28.7975 19.1961H20.0039V7.91795L19.9633 7.86818L17.7712 5.19373L15.5768 7.86818L15.5362 7.91718V19.1961H6.72269L6.67292 19.2367L4.16845 21.2918L4 21.4296L4.16845 21.5682L6.67216 23.6232L6.72193 23.663H15.5362V32.1611H6.72269L6.67292 32.2017L4.16921 34.2567L4.00077 34.3945L4.16921 34.5331L6.67292 36.5881L6.72269 36.6295H15.537V64.083L15.5776 64.1328L17.6334 66.6388L17.7712 66.8073L19.9633 64.1328L20.0039 64.083V36.6295H28.7975L28.8465 36.5881L31.5209 34.3945L31.3525 34.2567Z" fill="#0064FF"/>
<path fill-rule="evenodd" clip-rule="evenodd" d="M39.846 28.1842H42.3796V41.3613H49.0125V43.6085H39.846V28.1842ZM60.2501 32.3272V43.6085H58.1568L57.8919 42.1537C57.1875 43.0358 56.1523 43.741 54.4112 43.741C52.0093 43.741 49.9604 42.4409 49.9604 38.5406V32.3272H52.3401V38.2986C52.3401 40.5014 53.2214 41.6698 54.9625 41.6698C56.7687 41.6698 57.8705 40.2595 57.8705 37.9242V32.3272H60.2501ZM72.7442 37.3952V43.6085H70.3645V37.5498C70.3645 35.3906 69.4381 34.2445 67.6541 34.2445C65.7591 34.2445 64.6351 35.6318 64.6351 37.9242V43.6085H62.2554V32.3272H64.3273L64.5914 33.8256C65.2958 32.9222 66.3984 32.1948 68.2053 32.1948C70.6509 32.1948 72.7442 33.4949 72.7442 37.3952ZM83.2108 37.9679C83.2108 35.7421 81.9107 34.2 79.9276 34.2C77.9446 34.2 76.6445 35.7421 76.6445 37.9242C76.6445 40.127 77.9446 41.6476 79.9276 41.6476C81.9107 41.6476 83.2108 40.127 83.2108 37.9679ZM85.5682 32.3272V43.146C85.5682 46.2087 83.8493 48.1473 79.7952 48.1473C76.7984 48.1473 74.705 46.76 74.4845 44.2256H76.9086C77.195 45.5043 78.2968 46.2087 79.9713 46.2087C82.0424 46.2087 83.21 45.2171 83.21 43.058V41.8237C82.4612 42.9477 81.2714 43.6529 79.531 43.6529C76.4454 43.6529 74.1982 41.4937 74.1982 37.9242C74.1982 34.465 76.4462 32.1948 79.5088 32.1948C81.2928 32.1948 82.5056 32.9666 83.2322 34.112L83.4964 32.3272H85.5682ZM46.9253 17.5132L44.4568 10.7922L42.0113 17.5132H46.9246H46.9253ZM43.025 8.06037H46.044L51.7949 23.4846H49.0845L47.6297 19.6716H41.3077L39.8751 23.4846H37.252L43.025 8.06037ZM70.4143 17.1158V23.4846H68.0124V17.138C68.0124 15.155 67.197 14.1198 65.6549 14.1198C64.0241 14.1198 62.9889 15.3541 62.9889 17.3808V23.4846H60.6092V17.138C60.6092 15.155 59.7724 14.1198 58.2081 14.1198C56.5772 14.1198 55.5635 15.4413 55.5635 17.4466V23.4846H53.1838V12.2026H55.2549L55.5191 13.701C56.1806 12.8412 57.15 12.0931 58.8467 12.0701C60.3229 12.0701 61.6444 12.6658 62.3059 14.1198C63.0547 12.8863 64.3548 12.0709 66.2062 12.0709C68.4756 12.0709 70.4143 13.3488 70.4143 17.1166V17.1158ZM80.4414 16.6312C80.2423 14.9352 79.031 13.9874 77.378 13.9874C75.8581 13.9874 74.558 15.0011 74.3819 16.6312H80.4414ZM77.2899 12.0709C80.5516 12.0709 82.7989 14.142 82.8639 17.4466C82.8639 17.733 82.8433 18.0415 82.7989 18.3501H74.2939V18.4826C74.4041 20.4212 75.5718 21.6777 77.4668 21.6777C78.8986 21.6777 79.9782 20.9725 80.3089 19.6946H82.6886C82.2698 21.9204 80.397 23.6163 77.6207 23.6163C74.0512 23.6163 71.804 21.3255 71.804 17.8654C71.804 14.3618 74.029 12.0709 77.2899 12.0709ZM91.0182 12.2026V14.4284H89.9601C87.8446 14.4284 87.1624 16.0592 87.1624 17.8432V23.4846H84.7819V12.2026H86.8974L87.1624 13.9215C87.7351 12.9522 88.6386 12.2026 90.4892 12.2026H91.0175H91.0182ZM93.0227 23.4846H95.4039V12.2026H93.0227V23.4846ZM95.6681 9.11698C95.6681 9.95461 95.0295 10.5488 94.2141 10.5488C93.3987 10.5488 92.7593 9.95461 92.7593 9.11698C92.7593 8.30232 93.3987 7.7074 94.2141 7.7074C95.0295 7.7074 95.6689 8.30232 95.6689 9.11698H95.6681ZM102.961 23.6163C99.5462 23.6163 97.3196 21.3025 97.3196 17.821C97.3196 14.3618 99.5676 12.0709 103.005 12.0709C105.847 12.0709 107.72 13.6788 108.138 16.2131H105.694C105.385 14.9352 104.372 14.0976 102.961 14.0976C101.022 14.0976 99.7667 15.6182 99.7667 17.821C99.7667 20.0468 101.022 21.5896 102.961 21.5896C104.416 21.5896 105.429 20.752 105.715 19.4304H108.161C107.699 22.0077 105.826 23.6163 102.961 23.6163ZM117.306 18.4611H114.375C112.899 18.4611 112.039 19.0331 112.039 20.1571C112.039 21.1264 112.854 21.7657 114.154 21.7657C116.137 21.7657 117.306 20.5981 117.306 18.857V18.4611ZM120.874 21.4127V23.4846H119.619C118.077 23.4846 117.57 22.7794 117.57 21.6555C116.82 22.8231 115.675 23.6163 113.824 23.6163C111.356 23.6163 109.638 22.4265 109.638 20.3117C109.638 17.9979 111.312 16.6978 114.464 16.6978H117.306V16.0148C117.306 14.7591 116.358 13.9659 114.816 13.9659C113.405 13.9659 112.48 14.6267 112.304 15.6404H109.968C110.21 13.3702 112.084 12.0709 114.926 12.0709C117.923 12.0709 119.685 13.5027 119.685 16.1687V20.6203C119.685 21.193 119.95 21.4127 120.413 21.4127H120.874ZM132.849 17.2713V23.4846H130.469V17.4244C130.469 15.2652 129.544 14.119 127.758 14.119C125.864 14.119 124.74 15.5072 124.74 17.7988V23.4839H122.361V12.2026H124.432L124.697 13.701C125.401 12.7975 126.503 12.0701 128.311 12.0701C130.756 12.0701 132.849 13.3702 132.849 17.2713ZM46.9246 58.0473L44.4568 51.3264L42.0113 58.0473H46.9246ZM43.025 48.5937H46.0433L51.7949 64.018H49.0845L47.6297 60.2065H41.3061L39.8743 64.018H37.252L43.025 48.5945V48.5937ZM54.4257 60.2938C54.5146 61.4614 55.5941 62.3213 57.2242 62.3213C58.679 62.3213 59.6698 61.7485 59.6698 60.8014C59.6698 59.6116 58.6338 59.4791 56.9157 59.2808C54.3813 58.9715 52.3554 58.4432 52.3554 56.1079C52.3554 53.9702 54.2711 52.5598 56.9379 52.582C59.692 52.6042 61.6314 53.8821 61.8075 56.196H59.4936C59.3834 55.1822 58.3919 54.412 56.9823 54.412C55.5941 54.412 54.6685 55.0061 54.6685 55.9088C54.6685 56.967 55.748 57.055 57.3559 57.2533C59.9125 57.5619 62.0058 58.1124 62.0058 60.6246C62.0058 62.7837 59.9783 64.1504 57.2464 64.1504C54.2496 64.1504 52.2007 62.7401 52.1349 60.2946H54.4257V60.2938ZM65.3111 60.2938C65.4 61.4614 66.4795 62.3213 68.1096 62.3213C69.5636 62.3213 70.5552 61.7485 70.5552 60.8014C70.5552 59.6116 69.52 59.4791 67.8011 59.2808C65.2667 58.9715 63.24 58.4432 63.24 56.1079C63.24 53.9702 65.1572 52.5598 67.8233 52.582C70.5774 52.6042 72.5168 53.8821 72.6929 56.196H70.3791C70.2688 55.1822 69.2773 54.412 67.8677 54.412C66.4795 54.412 65.5539 55.0061 65.5539 55.9088C65.5539 56.967 66.6334 57.055 68.2413 57.2533C70.7979 57.5619 72.8912 58.1124 72.8912 60.6246C72.8912 62.7837 70.8637 64.1504 68.1318 64.1504C65.135 64.1504 63.0861 62.7401 63.0203 60.2946H65.3111V60.2938ZM83.2475 58.3773C83.2475 56.1952 81.9252 54.6317 79.92 54.6317C77.9147 54.6317 76.6154 56.196 76.6154 58.3773C76.6154 60.5595 77.9147 62.123 79.92 62.123C81.9252 62.123 83.2475 60.5587 83.2475 58.3773ZM74.1691 58.3773C74.1691 54.9395 76.4829 52.6043 79.92 52.6043C83.3578 52.6043 85.6716 54.9395 85.6716 58.3773C85.6716 61.8366 83.3578 64.1504 79.92 64.1504C76.4829 64.1504 74.1691 61.8366 74.1691 58.3773ZM92.5021 64.1504C89.0872 64.1504 86.8615 61.8366 86.8615 58.3551C86.8615 54.8959 89.1094 52.6043 92.5465 52.6043C95.3894 52.6043 97.2614 54.2129 97.6802 56.7465H95.2355C94.9269 55.4686 93.9132 54.6317 92.5036 54.6317C90.5642 54.6317 89.3085 56.1523 89.3085 58.3551C89.3085 60.5801 90.5642 62.123 92.5036 62.123C93.9576 62.123 94.9713 61.2861 95.2577 59.9638H97.7032C97.24 62.5418 95.368 64.1504 92.5036 64.1504H92.5021ZM99.4658 64.018H101.846V52.7367H99.4658V64.018ZM102.11 49.6519C102.11 50.4887 101.47 51.0836 100.656 51.0836C99.8409 51.0836 99.2016 50.4887 99.2016 49.6519C99.2016 48.8364 99.8409 48.2415 100.656 48.2415C101.47 48.2415 102.11 48.8364 102.11 49.6519ZM111.034 58.9945H108.103C106.627 58.9945 105.768 59.5664 105.768 60.6912C105.768 61.6605 106.583 62.2991 107.883 62.2991C109.866 62.2991 111.034 61.1314 111.034 59.3911V58.9945ZM114.603 61.9469V64.018H113.347C111.804 64.018 111.298 63.3136 111.298 62.1888C110.549 63.3564 109.403 64.1504 107.552 64.1504C105.084 64.1504 103.366 62.9606 103.366 60.8458C103.366 58.5312 105.041 57.2311 108.191 57.2311H111.034V56.5482C111.034 55.2925 110.086 54.4993 108.544 54.4993C107.134 54.4993 106.209 55.16 106.032 56.1738H103.697C103.939 53.9043 105.812 52.6043 108.654 52.6043C111.651 52.6043 113.413 54.036 113.413 56.7028V61.1536C113.413 61.7271 113.677 61.9469 114.14 61.9469H114.603ZM116.521 54.83H114.56V52.7367H116.521V49.586H118.923V52.7367H121.633V54.83H118.923V60.7126C118.923 61.5939 119.231 61.9469 120.09 61.9469H121.875V64.018H119.584C117.446 64.018 116.521 63.005 116.521 60.9553V54.83ZM123.534 64.018H125.914V52.7367H123.534V64.018ZM126.178 49.6519C126.178 50.4887 125.54 51.0836 124.723 51.0836C123.909 51.0836 123.269 50.4887 123.269 49.6519C123.269 48.8364 123.909 48.2415 124.724 48.2415C125.54 48.2415 126.178 48.8364 126.178 49.6519ZM136.474 58.3773C136.474 56.1952 135.152 54.6317 133.146 54.6317C131.141 54.6317 129.842 56.196 129.842 58.3773C129.842 60.5595 131.141 62.123 133.146 62.123C135.152 62.123 136.473 60.5587 136.473 58.3773H136.474ZM127.396 58.3773C127.396 54.9395 129.709 52.6043 133.146 52.6043C136.584 52.6043 138.897 54.9395 138.897 58.3773C138.897 61.8366 136.584 64.1504 133.146 64.1504C129.709 64.1504 127.396 61.8366 127.396 58.3773H127.396ZM150.907 57.8046V64.018H148.527V57.9585C148.527 55.7994 147.601 54.6532 145.817 54.6532C143.922 54.6532 142.798 56.0421 142.798 58.3329V64.018H140.418V52.7367H142.489L142.754 54.2351C143.458 53.3316 144.561 52.6043 146.368 52.6043C148.813 52.6043 150.906 53.9043 150.906 57.8046H150.907ZM154.119 62.5318H154.436C154.524 62.5353 154.61 62.5082 154.68 62.4553C154.712 62.4291 154.737 62.3958 154.754 62.358C154.771 62.3203 154.778 62.2791 154.776 62.2378C154.779 62.1993 154.771 62.1608 154.755 62.1258C154.739 62.0907 154.715 62.06 154.685 62.0364C154.611 61.9874 154.524 61.9633 154.436 61.9675H154.119V62.5318ZM154.452 61.6804C154.658 61.6804 154.824 61.7317 154.947 61.8351C155.071 61.9384 155.133 62.0724 155.133 62.2378C155.133 62.3672 155.097 62.4752 155.024 62.5632C154.946 62.6553 154.84 62.7204 154.723 62.7493L155.141 63.446H154.762L154.39 62.8182H154.119V63.446H153.778V61.6796H154.452V61.6804ZM155.489 61.9047C155.384 61.7118 155.227 61.5524 155.036 61.4446C154.837 61.3318 154.611 61.2742 154.382 61.2777C154.145 61.2777 153.929 61.3336 153.736 61.4446C153.542 61.5548 153.391 61.7087 153.283 61.9047C153.172 62.1091 153.116 62.3386 153.12 62.5709C153.12 62.8136 153.174 63.0318 153.283 63.2255C153.391 63.4185 153.542 63.5701 153.736 63.678C153.929 63.7867 154.145 63.8411 154.382 63.8411C154.625 63.8411 154.843 63.7852 155.036 63.6749C155.226 63.5673 155.383 63.4091 155.489 63.2178C155.598 63.0241 155.652 62.8059 155.652 62.5632C155.652 62.3205 155.598 62.1015 155.489 61.9047ZM152.985 61.7539C153.123 61.5126 153.323 61.3131 153.565 61.1766C153.81 61.0388 154.083 60.9676 154.382 60.9676C154.687 60.9676 154.962 61.038 155.207 61.1766C155.451 61.3159 155.653 61.5179 155.792 61.7618C155.932 62.0056 156.004 62.2823 156 62.5632C156 62.8618 155.929 63.1321 155.787 63.3725C155.645 63.6129 155.452 63.8013 155.207 63.9414C154.962 64.0815 154.686 64.1504 154.382 64.1504C154.083 64.1504 153.81 64.0815 153.565 63.9414C153.322 63.805 153.12 63.6058 152.981 63.3647C152.841 63.1236 152.769 62.8495 152.771 62.5709C152.771 62.2723 152.842 61.9989 152.985 61.7539Z" fill="#002158"/>
</svg>
