<svg width="128" height="160" viewBox="0 0 128 160" fill="none" xmlns="http://www.w3.org/2000/svg">
<path d="M4.6582 135.977C6.66536 135.092 8.79827 134.65 10.8473 134.65C12.8126 134.65 14.0672 135.132 14.7779 136.138C16.283 135.133 18.3321 134.65 19.921 134.65C24.6889 134.65 24.8556 136.58 24.8556 142.25V154.795C24.8556 155.358 24.9394 155.358 22.556 155.358V142.008C22.556 137.907 22.4721 136.66 19.7553 136.66C18.5426 136.66 17.288 136.941 15.9496 137.826V155.076C15.9076 155.237 15.8238 155.277 15.5323 155.317C15.4894 155.317 15.4485 155.357 15.4056 155.357H13.649V142.008C13.649 138.068 13.649 136.62 10.8064 136.62C9.5937 136.62 8.38102 136.861 6.95876 137.545V154.795C6.95876 155.358 7.0426 155.358 4.65916 155.358V135.977H4.6582ZM36.0965 134.65C32.5422 134.65 28.6117 135.655 28.6117 146.391C28.6117 154.675 31.4963 155.961 35.4696 155.961C38.5209 155.961 41.1558 154.956 41.1558 154.473C41.1558 153.87 41.072 152.945 40.8633 152.422C39.5668 153.307 37.7264 153.789 35.6783 153.789C32.8766 153.789 30.9952 152.985 30.9523 146.753C32.7928 146.753 37.4768 146.712 40.9472 146.029C41.2396 144.702 41.3644 142.771 41.3644 141.083C41.3644 137.062 39.7335 134.65 36.0965 134.65ZM35.8869 136.66C38.3961 136.66 39.0648 138.308 39.1067 141.525C39.1067 142.369 39.0648 143.374 38.9391 144.34C36.5975 144.903 32.6242 144.903 30.9514 144.903C31.2457 137.585 33.754 136.66 35.8869 136.66ZM45.0034 136.419C46.9677 135.132 48.7672 134.65 50.6067 134.65C52.6558 134.65 53.6179 135.213 53.6179 135.897C53.6179 136.299 53.4912 136.983 53.2826 137.385C52.6968 137.063 52.029 136.782 50.9401 136.782C49.6027 136.782 48.3481 137.143 47.3449 138.028V154.796C47.3449 155.359 47.3869 155.359 45.0034 155.359V136.419ZM66.1144 135.977C66.1144 135.454 64.3587 134.65 62.6021 134.65C59.2136 134.65 55.0745 135.816 55.0745 145.747C55.0745 155.156 57.5846 156.001 61.9743 156.001C64.1482 156.001 66.1144 154.835 66.1144 154.192C66.1144 153.83 66.0315 153.267 65.821 152.784C64.9426 153.427 63.6052 154.031 62.1839 154.031C59.1736 154.031 57.417 153.187 57.417 145.868C57.417 137.786 60.3015 136.66 62.8107 136.66C64.232 136.66 65.0265 137.062 65.821 137.585C66.0315 137.103 66.1144 136.419 66.1144 135.977ZM82.1326 154.675C80.2922 155.6 77.8678 155.962 75.7768 155.962C70.424 155.962 69.6295 153.711 69.6295 148.362V135.777C69.6295 135.255 69.5886 135.255 71.972 135.255V148.604C71.972 152.625 72.5569 153.993 75.6929 153.993C76.9056 153.993 78.5784 153.751 79.833 153.028V135.778C79.833 135.256 79.7492 135.256 82.1326 135.256V154.675ZM86.9014 136.419C88.8657 135.132 90.6643 134.65 92.5038 134.65C94.5528 134.65 95.515 135.213 95.515 135.897C95.515 136.299 95.3892 136.983 95.1806 137.385C94.5947 137.063 93.926 136.782 92.8381 136.782C91.5006 136.782 90.246 137.143 89.242 138.028V154.796C89.242 155.359 89.2849 155.359 86.9014 155.359V136.419ZM100.884 135.253C99.0435 135.253 98.5005 135.253 98.5005 136.339V155.358C100.842 155.358 100.884 155.358 100.884 154.795V135.253ZM98.4166 128.177C98.4166 129.504 98.8348 129.986 99.6703 130.026C100.632 130.026 101.093 129.343 101.093 128.136C101.134 126.89 100.799 126.327 99.8379 126.327C98.9187 126.327 98.4585 127.011 98.4166 128.177ZM104.851 136.419C104.851 135.977 104.934 135.735 105.102 135.615C105.897 135.173 108.95 134.65 112.42 134.65C115.055 134.65 116.727 135.897 116.727 139.515V142.128C116.727 149.286 116.518 154.634 116.518 154.634C115.556 155.156 113.759 155.961 110.83 155.961C107.82 156.001 104.81 155.72 104.81 149.769C104.81 144.099 107.904 143.214 110.998 143.214C112.169 143.214 113.549 143.335 114.469 143.697V139.957C114.469 137.344 113.132 136.781 111.542 136.781C109.41 136.781 106.441 137.183 105.145 137.786C104.893 137.344 104.851 136.66 104.851 136.419ZM114.468 145.346C113.674 145.064 112.545 144.944 111.75 144.944C109.367 144.944 107.192 145.426 107.192 149.85C107.192 153.991 108.991 154.032 111.123 154.032C112.461 154.032 113.799 153.67 114.259 153.188C114.26 153.187 114.468 148.361 114.468 145.346ZM123.342 154.795C123.342 155.358 123.384 155.358 121.041 155.358V126.89C121.041 125.804 121.501 125.804 123.342 125.804V154.795Z" fill="#010101"/>
<path d="M115.53 92.4534C136.731 57.2036 111.053 0.0335369 64.1012 5.84162C21.6795 11.0859 20.996 55.7363 58.3827 66.3435C90.7363 75.5309 65.0667 96.0523 65.8167 109.718C66.5699 123.382 93.9433 128.339 115.53 92.4534Z" fill="#1B1A1B"/>
<path d="M42.3657 114.678C52.1359 112.108 57.9828 102.069 55.4251 92.2532C52.8674 82.438 42.8736 76.5642 33.1034 79.1337C23.3332 81.7032 17.4863 91.743 20.044 101.558C22.6017 111.373 32.5954 117.247 42.3657 114.678Z" fill="#1B1A1B"/>
<path d="M15.6835 46.091C9.10527 46.7307 4.28989 52.6011 4.92665 59.2096C5.56462 65.8227 11.4078 70.6641 17.9872 70.0241C24.5645 69.376 29.3839 63.507 28.7445 56.8979C28.1052 50.2938 22.2629 45.451 15.6835 46.091Z" fill="#1B1A1B"/>
<path d="M115.62 90.8712C136.688 55.6826 111.172 -1.38771 64.5185 4.41024C22.3657 9.64535 21.6857 54.2193 58.8354 64.808C90.9839 73.9794 65.477 94.465 66.2226 108.108C66.9719 121.746 94.1703 126.694 115.62 90.8712Z" fill="#BFBFBF"/>
<path d="M71.6283 113.492C70.3516 111.411 72.3039 109.1 74.3106 109.276C77.5049 109.557 84.4599 109.239 89.9478 106.114C103.658 98.3055 124.757 60.7357 114.146 37.0397C109.395 26.4324 107.081 23.3953 102.189 18.2066C101.191 17.1484 101.764 17.2059 102.44 17.5641C105.085 18.959 109.735 24.362 114.503 33.156C122.561 48.014 122.143 65.6774 119.146 76.7576C117.059 84.4657 109.869 101.903 99.3396 109.443C88.7866 116.999 76.4384 121.333 71.6283 113.492Z" fill="black"/>
<path d="M62.0753 64.7357C54.8924 62.5936 45.6324 59.6106 40.2763 52.5726C36.3279 47.3833 34.3235 41.7196 33.8116 38.5081C33.6295 37.3622 33.4748 36.4062 33.8034 36.1424C33.9554 36.0198 36.7518 42.3696 40.9322 47.6914C45.1118 53.0146 50.9535 56.1279 55.8201 57.259C60.1486 58.2643 69.1149 60.4733 72.1485 63.0696C75.2672 65.7384 75.5276 71.5047 74.4781 72.1553C73.4197 72.8094 71.2737 67.4774 62.0753 64.7357Z" fill="black"/>
<path d="M76.8861 114.509C76.7474 116.161 78.6358 116.484 81.1776 116.102C84.4357 115.611 87.1909 115.242 90.9408 113.354C96.0232 110.796 101.167 107.135 104.934 102.197C116.173 87.466 120.153 70.0361 119.54 67.5288C119.335 69.5995 116.622 80.4684 110.417 90.2672C102.447 102.854 96.6682 109.558 83.3398 112.808C79.6305 113.713 77.0676 112.335 76.8861 114.509Z" fill="white"/>
<path d="M47.3242 57.2251C48.8423 58.5186 51.9526 60.2423 58.0726 62.2585C65.4642 64.6931 69.0631 66.8044 70.5703 67.8162C72.1673 68.8906 73.1796 71.288 73.2796 69.1587C73.3839 67.027 72.076 65.194 69.1578 64.2219C67.1835 63.5634 63.8622 61.995 60.6784 61.3638C58.6326 60.9581 55.3042 60.153 52.4498 59.275C50.8855 58.7919 49.2915 57.9459 47.3242 57.2251Z" fill="white"/>
<path d="M42.3606 113.25C52.0921 110.681 57.9158 100.641 55.3682 90.8255C52.8207 81.0103 42.8666 75.1364 33.1351 77.7059C23.4037 80.2754 17.58 90.3152 20.1275 100.13C22.6751 109.946 32.6292 115.82 42.3606 113.25Z" fill="#BFBFBF"/>
<path d="M26.9037 108.866C41.0711 122.107 62.396 103.919 53.0058 87.8541C51.9513 86.0505 50.5823 84.6773 51.0325 86.059C54.0335 95.2963 51.2604 102.604 46.0862 106.369C41.013 110.061 34.0399 110.679 28.4573 107.76C26.8179 106.903 26.138 108.152 26.9037 108.866Z" fill="black"/>
<path d="M38.0213 111.585C39.825 111.203 50.316 108.462 52.7805 99.7593C53.5481 97.0458 53.6859 97.5909 53.469 99.0613C52.3619 106.566 45.329 112.101 39.3445 112.307C38.13 112.433 36.5366 111.899 38.0213 111.585Z" fill="white"/>
<path d="M15.7841 44.6628C9.23202 45.3025 4.43574 51.1729 5.06998 57.7814C5.70512 64.3934 11.5255 69.2359 18.0776 68.5962C24.6299 67.9478 29.4299 62.0776 28.7919 55.4689C28.1563 48.8644 22.3374 44.0228 15.7841 44.6628Z" fill="#BFBFBF"/>
<path d="M10.3774 65.7709C10.4501 66.6203 11.6034 67.7115 13.4155 68.2125C14.9722 68.6429 18.9852 69.7431 24.1406 66.4612C29.2961 63.1792 29.8905 54.4008 27.547 51.8188C26.8215 50.511 25.8781 49.5589 26.6288 51.6461C28.5243 56.9163 24.841 61.846 21.664 64.1287C18.4881 66.4112 14.4602 65.331 12.8156 64.8253C11.1709 64.3195 10.3036 64.8935 10.3774 65.7709Z" fill="black"/>
<path d="M17.0307 66.9499C17.5032 66.5208 19.8951 66.6962 22.0548 65.5247C24.2133 64.3536 26.779 61.7862 27.2369 58.1381C27.5066 55.9959 27.5876 56.5339 27.6949 57.7006C27.3599 63.7654 21.8301 67.1154 18.6676 67.5575C17.8142 67.6768 16.3124 67.604 17.0307 66.9499Z" fill="white"/>
<path d="M111.626 68.0122C120.56 42.0395 101.865 2.81604 64.0437 7.53435C29.8697 11.796 29.3187 48.0748 59.4361 56.6942C93.5506 61.9026 73.0083 87.8591 70.0943 100.949C67.4818 112.682 97.6638 114.613 111.626 68.0122Z" fill="#999999"/>
<path d="M88.2502 88.2993C79.0083 87.1458 65.7087 108.191 78.2488 105.727C65.7087 108.191 90.7869 103.264 78.2488 105.727C84.2761 104.825 89.2694 102.679 93.7395 97.5326C99.5678 90.8242 108.274 76.3335 110.792 66.9707C112.914 59.0765 111.847 46.8458 109.661 58.3375C107.418 70.131 97.492 89.4529 88.2502 88.2993Z" fill="#F3F3F3"/>
<path d="M26.1695 105.133C28.3092 105.169 29.6034 105.473 31.7701 107.007C36.0532 108.802 43.926 107.664 47.5615 102.837C51.1969 98.01 51.3163 91.3589 49.9312 87.34C46.5427 77.5039 32.1475 77.6778 25.7166 85.8439C18.7599 94.9631 24.0298 105.097 26.1695 105.133Z" fill="#999999"/>
<path d="M7.06157 59.553C7.48805 60.9075 8.57778 62.884 10.879 63.2135C13.9519 63.6535 14.5801 65.0538 18.2087 64.3274C21.8373 63.6009 24.5877 60.6016 25.6883 57.284C26.9483 52.6935 25.0616 50.3236 22.2222 48.2077C19.3827 46.0918 13.1365 46.3193 9.40885 49.7466C6.75973 52.1807 6.02325 56.255 7.06157 59.553Z" fill="#999999"/>
<path d="M19.1284 62.5884C21.9166 61.8523 25.6039 58.0204 23.7734 55.0948C21.5149 51.49 15.2226 54.5756 15.0098 58.589C14.7962 62.6038 16.1734 63.3687 19.1284 62.5884Z" fill="#F3F3F3"/>
<path d="M40.0644 105.835C42.4433 105.207 49.7312 102.216 48.3623 91.5296C47.6695 86.1168 44.7424 98.2474 39.3221 100.062C31.1102 102.81 32.0327 107.956 40.0644 105.835Z" fill="#F3F3F3"/>
</svg>
