<svg width="176" height="48" viewBox="0 0 176 48" fill="none" xmlns="http://www.w3.org/2000/svg">
<path d="M36.9768 15.3233C35.7217 14.0409 34.3574 13.0587 32.9113 12.3765C31.4652 11.6944 29.6371 11.367 27.5362 11.367C25.8445 11.367 24.2347 11.6671 22.734 12.2674C21.2333 12.8677 19.9236 13.7135 18.8049 14.8049C17.6589 15.8963 16.7585 17.2333 16.1037 18.7885C15.4488 20.3438 15.1214 22.0628 15.1214 23.9727C15.1214 25.8827 15.4488 27.6016 16.1037 29.1569C16.7585 30.7121 17.6589 32.0218 18.8049 33.1132C19.9509 34.2046 21.2879 35.0778 22.7885 35.678C24.2892 36.2783 25.9263 36.5784 27.6453 36.5784C29.4734 36.5784 31.0832 36.3329 32.4475 35.8145C33.8117 35.296 34.985 34.5866 35.9673 33.7135C36.6221 33.1132 37.2224 32.3765 37.7408 31.5034C38.2592 30.603 38.6685 29.6207 38.9686 28.5293H27.427V21.9809H46.2537C46.3629 22.4175 46.4447 22.9359 46.5266 23.5907C46.6085 24.2456 46.6357 24.8458 46.6357 25.4734C46.6357 28.0655 46.2537 30.412 45.4898 32.5675C44.7258 34.7231 43.5525 36.6057 42.0246 38.2701C40.3056 40.0982 38.2592 41.4898 35.8581 42.4993C33.457 43.5089 30.7012 44 27.618 44C24.8349 44 22.2156 43.5089 19.7599 42.4993C17.3042 41.4898 15.1487 40.0982 13.2933 38.3247C11.4652 36.5512 10.0191 34.4502 8.92769 32.0218C7.83629 29.5935 7.31787 26.8922 7.31787 24C7.31787 21.1078 7.86357 18.4338 8.92769 15.9782C9.99181 13.5225 11.4379 11.4216 13.2933 9.64802C15.1214 7.87449 17.2769 6.51023 19.7599 5.50068C22.2428 4.49113 24.8622 4 27.618 4C30.7831 4 33.5935 4.5457 36.0218 5.63711C38.4502 6.72851 40.5512 8.2292 42.3247 10.1392L36.9768 15.3233ZM85.3533 32.895C85.3533 36.251 84.1255 38.9523 81.6699 40.9986C79.1869 42.9904 76.1582 44 72.5839 44C69.4188 44 66.6085 43.0723 64.1801 41.2169C61.7517 39.3615 60.0873 36.824 59.1596 33.6317L63.8527 31.6944C64.1801 32.8404 64.6166 33.8772 65.1896 34.8049C65.7626 35.7326 66.4175 36.5239 67.1814 37.1787C67.9454 37.8336 68.7913 38.352 69.719 38.734C70.6467 39.116 71.6289 39.307 72.6658 39.307C74.9031 39.307 76.7585 38.734 78.1774 37.5607C79.5962 36.4147 80.3056 34.8595 80.3056 32.9495C80.3056 31.3397 79.7053 29.9754 78.5321 28.8295C77.4407 27.7381 75.367 26.6467 72.3383 25.6098C69.2824 24.5184 67.3724 23.7544 66.6085 23.3724C62.543 21.2988 60.5239 18.2701 60.5239 14.2319C60.5239 11.4216 61.6426 9.02046 63.8799 7.02865C66.1719 5.03683 68.955 4.02729 72.2838 4.02729C75.2033 4.02729 77.7408 4.76398 79.869 6.26467C81.9973 7.73806 83.4434 9.56617 84.1528 11.7763L79.5962 13.6589C79.1596 12.2401 78.3138 11.0396 77.0587 10.1119C75.8036 9.15689 74.2483 8.69304 72.4475 8.69304C70.5102 8.69304 68.9004 9.23875 67.5907 10.3029C66.281 11.2851 65.6262 12.5948 65.6262 14.1774C65.6262 15.487 66.1446 16.633 67.1814 17.588C68.3274 18.543 70.8104 19.6889 74.603 20.9986C78.4775 22.3083 81.2606 23.9454 82.925 25.8554C84.5348 27.7653 85.3533 30.1119 85.3533 32.895ZM112.611 43.1269H107.918V39.498H107.7C106.963 40.7804 105.79 41.8445 104.262 42.7176C102.707 43.5634 101.097 44 99.4325 44C96.2128 44 93.7572 43.0723 92.0382 41.2442C90.3192 39.4161 89.4461 36.7967 89.4461 33.4134V16.9332H94.3574V33.0859C94.4666 37.3697 96.6221 39.498 100.824 39.498C102.789 39.498 104.426 38.7067 105.735 37.1241C107.045 35.5416 107.7 33.6317 107.7 31.4216V16.9332H112.611V43.1269ZM123.825 7.90177C123.825 8.85675 123.498 9.67531 122.816 10.3574C122.134 11.0396 121.315 11.367 120.36 11.367C119.405 11.367 118.587 11.0396 117.904 10.3574C117.222 9.67531 116.895 8.85675 116.895 7.90177C116.895 6.94679 117.222 6.12824 117.904 5.44611C118.587 4.76398 119.405 4.43656 120.36 4.43656C121.315 4.43656 122.134 4.76398 122.816 5.44611C123.498 6.12824 123.825 6.94679 123.825 7.90177ZM122.816 16.9332V43.1269H117.904V16.9332H122.816ZM137.904 43.5634C135.776 43.5634 134.003 42.9086 132.584 41.5989C131.165 40.2892 130.456 38.4338 130.428 36.0873V21.4352H125.817V16.9332H130.401V8.91132H135.312V16.9332H141.724V21.4352H135.312V34.4775C135.312 36.2237 135.64 37.397 136.322 38.0246C137.004 38.6521 137.768 38.9523 138.614 38.9523C138.996 38.9523 139.378 38.8977 139.76 38.8158C140.142 38.734 140.469 38.5975 140.797 38.4611L142.352 42.854C141.124 43.3179 139.623 43.5634 137.904 43.5634ZM156.295 43.9727C152.447 43.9727 149.282 42.663 146.772 40.0164C144.289 37.3697 143.034 34.0409 143.034 30.03C143.034 26.0464 144.235 22.7176 146.663 20.0709C149.091 17.4243 152.175 16.0873 155.967 16.0873C159.842 16.0873 162.952 17.3424 165.244 19.8527C167.536 22.3629 168.682 25.8827 168.682 30.412L168.628 30.9577H148.055C148.136 33.5225 148.982 35.5962 150.619 37.1514C152.256 38.7067 154.221 39.498 156.513 39.498C159.651 39.498 162.106 37.9427 163.88 34.8049L168.273 36.9332C167.1 39.1432 165.462 40.8622 163.389 42.1173C161.288 43.3452 158.914 43.9727 156.295 43.9727ZM148.437 26.8649H163.471C163.334 25.0368 162.598 23.5362 161.261 22.3356C159.924 21.1351 158.123 20.5348 155.885 20.5348C154.03 20.5348 152.447 21.1078 151.111 22.2538C149.746 23.427 148.873 24.955 148.437 26.8649Z" fill="#737373"/>
</svg>
