<svg width="160" height="72" viewBox="0 0 160 72" fill="none" xmlns="http://www.w3.org/2000/svg">
<path fill-rule="evenodd" clip-rule="evenodd" d="M35.0961 40.2665L34.8612 40.0769L34.6044 40.2353L16.2687 51.5489L12.7121 49.316L10.8199 48.1276L16.1659 44.873L16.7515 44.5162L16.1701 44.1533L14.283 42.9751L11.9733 41.5337L11.7478 41.3925L11.5236 41.5327C10.6914 42.0522 9.93213 42.5176 9.19849 42.9667C8.24771 43.549 7.35016 44.0992 6.33307 44.7407C4.87794 45.6585 4.07893 46.8777 4.08126 48.1737C4.085 49.4581 4.88495 50.6638 6.33494 51.569L6.55909 51.7083L7.48699 52.2878L8.06325 52.6475L8.17906 52.7201L8.34858 52.8264L8.27526 52.872L6.56283 53.9389C5.1049 54.8487 4.29374 55.9733 4.21809 57.1916C4.14944 58.2943 4.69535 59.35 5.79697 60.2449L6.0328 60.4359L6.29011 60.2756C6.29011 60.2756 9.2508 58.4327 12.8713 56.1783L13.2963 55.9137C20.4827 60.3991 30.3931 66.5831 30.3931 66.5831L30.6504 66.7442L30.8858 66.5532C31.9879 65.6583 32.5338 64.6017 32.4651 63.4995C32.3899 62.2817 31.5793 61.1571 30.1209 60.2467L21.2005 54.6456C23.6442 53.1324 27.3596 50.8539 30.1811 49.1227C32.2457 47.8574 33.8754 46.8576 34.3312 46.5735C35.7891 45.6631 36.5994 44.5385 36.6755 43.3203C36.7441 42.2176 36.1982 41.1614 35.0961 40.2665ZM16.9958 27.7812L16.4172 27.4192L14.2405 26.0607L12.2194 24.7982L11.9939 24.658L11.7697 24.7982L10.6891 25.4718C9.13265 26.4423 7.7882 27.2804 6.25181 28.2498C5.53172 28.7041 4.97087 29.2324 4.58514 29.8193C4.19567 30.4115 3.99861 31.039 4.00001 31.6833C4.00328 32.9677 4.80369 34.1729 6.25321 35.0786C7.897 36.1049 10.2912 37.6306 12.6075 39.106C14.8752 40.5511 17.2199 42.0461 18.7969 43.03C19.9252 43.7349 21.0707 44.0918 22.2008 44.0918C23.3304 44.0918 24.4755 43.7349 25.6042 43.03L28.7559 41.0613L33.4341 38.1412L29.5012 35.6861L28.7129 35.1936L28.4869 35.0529L28.2618 35.1936L22.2662 38.9537L10.7321 31.6372L16.4148 28.1385L16.9958 27.7812ZM36.6755 32.9621C36.7441 34.0648 36.1982 35.1205 35.0961 36.0154L34.8608 36.2064L34.6035 36.0462C34.3504 35.8887 9.25173 20.2485 6.36156 18.4437C4.9111 17.5381 4.11115 16.3329 4.10835 15.0485C4.10508 13.7529 4.90409 12.5332 6.35922 11.6159C7.88767 10.6511 9.22418 9.81813 10.7718 8.85285C11.9593 8.11304 13.1861 7.34808 14.6692 6.41774C15.9166 5.63601 17.0943 5.25586 18.2697 5.25586C19.4423 5.25586 20.621 5.63601 21.8725 6.41774C23.2422 7.27261 25.0139 8.39583 26.8898 9.58426C29.5689 11.2824 32.339 13.0382 34.3578 14.2807C35.8709 15.2087 36.7058 16.4177 36.711 17.6834C36.7161 18.9548 35.8816 20.1782 34.3606 21.1276C33.4173 21.716 32.6958 22.1493 31.9986 22.5685C31.3163 22.979 30.6112 23.4034 29.7076 23.9666L29.4816 24.1082L29.2555 23.9657L25.1423 21.3675L24.5689 21.0051L25.147 20.6496L29.9752 17.6792L18.3295 10.3916L10.8437 15C14.2882 17.1579 32.0271 28.2713 34.3312 29.7099C35.7891 30.6197 36.5994 31.7443 36.6755 32.9621Z" fill="#254665"/>
<path fill-rule="evenodd" clip-rule="evenodd" d="M10.7326 31.6369L5.80078 28.5594C5.94321 28.4527 6.09405 28.3493 6.25236 28.2496C7.78874 27.2801 9.13319 26.442 10.6897 25.4716L11.7703 24.7979L11.9944 24.6577L12.22 24.7979L14.2411 26.0605L16.4177 27.4189L16.9963 27.7809L16.4154 28.1382L10.7326 31.6369Z" fill="#22577F"/>
<path fill-rule="evenodd" clip-rule="evenodd" d="M29.9739 17.6792L18.3282 10.3916L10.8425 15L5.91016 11.9229C6.05165 11.8172 6.20109 11.7147 6.358 11.6159C7.88644 10.6511 9.22295 9.81813 10.7705 8.85285C11.9581 8.11304 13.1849 7.34808 14.668 6.41774C15.9153 5.63601 17.0931 5.25586 18.2685 5.25586C19.4411 5.25586 20.6197 5.63601 21.8713 6.41774C23.2409 7.27261 25.0127 8.39583 26.8886 9.58426C29.5677 11.2824 32.3378 13.0382 34.3566 14.2807C34.5392 14.3925 34.712 14.509 34.8745 14.6287L29.9739 17.6792Z" fill="#22577F"/>
<path fill-rule="evenodd" clip-rule="evenodd" d="M29.4811 24.108L29.255 23.9654L25.1418 21.3672L24.5684 21.0048L25.1465 20.6493L29.9747 17.6789L34.8752 14.6284C36.0595 15.5015 36.7058 16.5702 36.7105 17.6831V17.6906C36.7119 18.9592 35.8778 20.1797 34.3601 21.1273C33.4168 21.7157 32.6953 22.149 31.9981 22.5682C31.3158 22.9787 30.6107 23.4031 29.7071 23.9663L29.4811 24.108Z" fill="#254A66"/>
<path fill-rule="evenodd" clip-rule="evenodd" d="M27.2003 42.0324L22.2656 38.9535L28.2603 35.1939L28.4854 35.0532L28.7114 35.1939L29.4997 35.6863L33.4327 38.1415L28.7544 41.0616L27.2003 42.0324Z" fill="#22577F"/>
<path fill-rule="evenodd" clip-rule="evenodd" d="M10.8254 48.1337L5.88281 45.0501C6.02524 44.9434 6.17515 44.8405 6.33299 44.7408C7.35008 44.0993 8.24763 43.5491 9.19841 42.9668C9.93205 42.5177 10.6914 42.0523 11.5235 41.5328L11.7477 41.3926L11.9732 41.5337L14.283 42.9751L16.17 44.1533L16.7514 44.5162L16.1658 44.8731L10.8198 48.1277L10.8273 48.1323L10.8254 48.1337Z" fill="#22577F"/>
<path fill-rule="evenodd" clip-rule="evenodd" d="M6.03172 60.4357L5.79589 60.2447C4.75684 59.4005 4.21187 58.4134 4.21094 57.3782C4.21094 57.3162 4.21281 57.2538 4.21701 57.1914C4.29266 55.9731 5.10381 54.8485 6.56174 53.9387L8.27418 52.8718L8.3475 52.8262L13.2952 55.9135L12.8703 56.1781C9.24972 58.4325 6.28902 60.2754 6.28902 60.2754L6.03172 60.4357Z" fill="#264E72"/>
<path fill-rule="evenodd" clip-rule="evenodd" d="M21.1994 54.6454L16.2676 51.5487L34.6033 40.2351L34.8602 40.0767L35.095 40.2663C36.1346 41.1104 36.6795 42.0985 36.68 43.1332C36.6805 43.1952 36.6781 43.2576 36.6744 43.3201C36.5983 44.5383 35.7881 45.6629 34.3301 46.5732C33.8743 46.8574 32.2446 47.8572 30.18 49.1225C27.3585 50.8536 23.6432 53.1322 21.1994 54.6454Z" fill="#245378"/>
<path fill-rule="evenodd" clip-rule="evenodd" d="M46.9849 12.8454V17.4421H49.1503C50.7177 17.4421 51.3317 16.5712 51.3317 15.055C51.3317 13.4418 50.6857 12.8454 48.6976 12.8454H46.9849ZM46.9849 18.8132V22.7651H45.369V11.4743H48.9886C51.0895 11.4743 52.9315 11.9581 52.9315 14.9903C52.9315 17.9263 50.9438 18.8132 49.4409 18.8132H46.9849Z" fill="#221F20"/>
<path fill-rule="evenodd" clip-rule="evenodd" d="M58.3598 16.1679H57.859C57.1962 16.1679 56.3236 16.684 56.0491 17.1842V22.7649H54.4977V14.8615H55.6932L55.8713 16.1679C56.8248 15.0872 57.5841 14.571 58.5539 14.571H58.6832L58.3598 16.1679Z" fill="#221F20"/>
<path fill-rule="evenodd" clip-rule="evenodd" d="M60.8158 18.8133C60.8158 20.5875 61.6883 21.6358 63.2558 21.6358C64.8236 21.6358 65.6961 20.5875 65.6961 18.8133C65.6961 17.0391 64.8236 15.9904 63.2558 15.9904C61.6883 15.9904 60.8158 17.0391 60.8158 18.8133ZM59.3292 18.8133C59.3292 16.5229 60.7673 14.7 63.2558 14.7C65.7282 14.7 67.1827 16.5229 67.1827 18.8133C67.1827 21.1036 65.7282 22.9262 63.2558 22.9262C60.7673 22.9262 59.3292 21.1036 59.3292 18.8133Z" fill="#221F20"/>
<path fill-rule="evenodd" clip-rule="evenodd" d="M68.5387 22.2326L68.7164 20.8292C69.0558 21.136 69.9768 21.6358 71.1888 21.6358C72.207 21.6358 72.7726 21.281 72.7726 20.6522C72.7726 19.8296 71.8352 19.5228 71.1888 19.3454C70.1061 19.0549 68.7004 18.6682 68.7004 17.071C68.7004 15.8617 69.5081 14.6999 71.6739 14.6999C72.7242 14.6999 73.3382 14.9744 73.8229 15.2161L73.6452 16.5389C73.1765 16.1517 72.5949 15.8453 71.7059 15.8453C70.8009 15.8453 70.1709 16.1677 70.1709 16.91C70.1709 17.6519 70.7689 17.8456 72.0129 18.2164C72.7886 18.4421 74.2752 18.9259 74.2752 20.5715C74.2752 21.6198 73.6776 22.9262 71.2536 22.9262C69.8475 22.9262 68.9105 22.4907 68.5387 22.2326Z" fill="#221F20"/>
<path fill-rule="evenodd" clip-rule="evenodd" d="M80.059 22.9263H78.7502C77.2476 22.9263 76.682 21.9906 76.682 21.039V15.9904H75.3243L75.4536 14.8614H76.682V12.9098L78.1362 12.7648V14.8614H80.2207V15.9904H78.1362V20.1517C78.1362 21.6682 78.233 21.7649 79.8004 21.7649H80.1723L80.059 22.9263Z" fill="#221F20"/>
<path fill-rule="evenodd" clip-rule="evenodd" d="M85.9244 18.8133C83.6133 18.894 82.6759 19.3778 82.6759 20.5551C82.6759 21.4101 83.177 21.7648 83.9043 21.7648C84.68 21.7648 85.4557 21.3454 85.9244 20.7005V18.8133ZM88.2031 22.9262H88.0898C86.6837 22.9262 86.3771 22.5067 86.0537 21.7648C85.4557 22.4584 84.6476 22.9262 83.6293 22.9262C82.1592 22.9262 81.1894 21.9586 81.1894 20.6358C81.1894 18.4098 83.9043 17.8457 85.9244 17.8133C85.9244 16.3132 85.3104 15.9904 84.1953 15.9904C83.5973 15.9904 82.9509 16.1194 82.1107 16.7003L81.9006 15.5226C82.531 15.0387 83.5329 14.7 84.5828 14.7C86.5868 14.7 87.3786 15.6356 87.3786 18.4905V20.1037C87.3786 21.2327 87.4434 21.7648 88.2839 21.7648H88.4289L88.2031 22.9262Z" fill="#221F20"/>
<path fill-rule="evenodd" clip-rule="evenodd" d="M93.7443 22.9263H92.4354C90.9328 22.9263 90.3673 21.9906 90.3673 21.039V15.9904H89.0096L89.1389 14.8614H90.3673V12.9098L91.8214 12.7648V14.8614H93.906V15.9904H91.8214V20.1517C91.8214 21.6682 91.9183 21.7649 93.4857 21.7649H93.8575L93.7443 22.9263Z" fill="#221F20"/>
<path fill-rule="evenodd" clip-rule="evenodd" d="M96.5394 17.8132H100.709C100.709 16.7001 100.094 15.9906 98.7696 15.9906C97.4768 15.9906 96.8303 16.6682 96.5394 17.8132ZM96.4101 18.8131C96.6202 21.0068 97.881 21.6356 99.3836 21.6356C100.11 21.6356 100.951 21.4906 101.662 21.1682L101.856 22.3132C101.242 22.5873 100.353 22.9264 99.2059 22.9264C96.4101 22.9264 94.9235 21.0232 94.9235 18.7488C94.9235 16.5387 96.3452 14.7002 98.802 14.7002C100.774 14.7002 102.211 15.9099 102.211 18.0389C102.211 18.265 102.195 18.5391 102.147 18.8131H96.4101Z" fill="#221F20"/>
<path fill-rule="evenodd" clip-rule="evenodd" d="M107.607 17.1197C107.607 13.5389 109.998 11.2485 113.263 11.2485C114.41 11.2485 115.622 11.5386 116.398 11.9097L116.236 13.3292C115.347 13.0227 114.426 12.6356 113.263 12.6356C110.661 12.6356 109.287 14.6196 109.287 17.1197C109.287 19.6198 110.661 21.6037 113.295 21.6037C114.426 21.6037 115.347 21.2326 116.236 20.9262L116.398 22.3456C115.574 22.7168 114.41 22.9908 113.279 22.9908C109.998 22.9908 107.607 20.7005 107.607 17.1197Z" fill="#221F20"/>
<path fill-rule="evenodd" clip-rule="evenodd" d="M122.376 18.8133C120.064 18.894 119.127 19.3778 119.127 20.5551C119.127 21.4101 119.628 21.7648 120.355 21.7648C121.131 21.7648 121.907 21.3454 122.376 20.7005V18.8133ZM124.654 22.9262H124.541C123.135 22.9262 122.828 22.5067 122.505 21.7648C121.907 22.4584 121.099 22.9262 120.08 22.9262C118.61 22.9262 117.64 21.9586 117.64 20.6358C117.64 18.4098 120.355 17.8457 122.376 17.8133C122.376 16.3132 121.762 15.9904 120.646 15.9904C120.048 15.9904 119.402 16.1194 118.562 16.7003L118.352 15.5226C118.982 15.0387 119.984 14.7 121.034 14.7C123.038 14.7 123.83 15.6356 123.83 18.4905V20.1037C123.83 21.2327 123.895 21.7648 124.735 21.7648H124.88L124.654 22.9262Z" fill="#221F20"/>
<path fill-rule="evenodd" clip-rule="evenodd" d="M132.005 22.765V18.4099C132.005 16.7324 131.44 15.9905 129.937 15.9905C129.032 15.9905 128.176 16.3129 127.772 17.0228V22.765H126.317V14.8615H127.449L127.61 15.7001C128.515 14.8939 129.388 14.7001 130.228 14.7001C132.539 14.7001 133.46 16.1356 133.46 18.4099V22.765H132.005Z" fill="#221F20"/>
<path fill-rule="evenodd" clip-rule="evenodd" d="M135.22 18.7971C135.22 16.4904 136.513 14.7002 139.147 14.7002C140.343 14.7002 141.118 14.9099 141.587 15.168L141.361 16.4744C140.73 16.1679 140.052 15.9906 139.309 15.9906C137.547 15.9906 136.706 17.0389 136.706 18.7971C136.706 20.523 137.547 21.652 139.309 21.652C140.052 21.652 140.746 21.4746 141.377 21.1682L141.57 22.3295C141.102 22.636 140.44 22.9264 139.163 22.9264C136.529 22.9264 135.22 21.0068 135.22 18.7971Z" fill="#221F20"/>
<path fill-rule="evenodd" clip-rule="evenodd" d="M144.349 17.8132H148.519C148.519 16.7001 147.904 15.9906 146.579 15.9906C145.287 15.9906 144.64 16.6682 144.349 17.8132ZM144.22 18.8131C144.43 21.0068 145.691 21.6356 147.194 21.6356C147.921 21.6356 148.761 21.4906 149.472 21.1682L149.666 22.3132C149.052 22.5873 148.163 22.9264 147.016 22.9264C144.22 22.9264 142.733 21.0232 142.733 18.7488C142.733 16.5387 144.155 14.7002 146.612 14.7002C148.584 14.7002 150.021 15.9099 150.021 18.0389C150.021 18.265 150.005 18.5391 149.957 18.8131H144.22Z" fill="#221F20"/>
<path fill-rule="evenodd" clip-rule="evenodd" d="M155.676 16.1679H155.175C154.513 16.1679 153.64 16.684 153.365 17.1842V22.7649H151.814V14.8615H153.01L153.188 16.1679C154.141 15.0872 154.901 14.571 155.87 14.571H156L155.676 16.1679Z" fill="#221F20"/>
<path fill-rule="evenodd" clip-rule="evenodd" d="M46.904 30.7804V34.0871H51.0411V35.4742H46.904V40.6841H45.369V29.3933H52.2691V30.7804H46.904Z" fill="#221F20"/>
<path fill-rule="evenodd" clip-rule="evenodd" d="M54.1426 36.7321C54.1426 38.5063 55.0151 39.555 56.5826 39.555C58.1504 39.555 59.0229 38.5063 59.0229 36.7321C59.0229 34.9579 58.1504 33.9096 56.5826 33.9096C55.0151 33.9096 54.1426 34.9579 54.1426 36.7321ZM52.656 36.7321C52.656 34.4417 54.0941 32.6192 56.5826 32.6192C59.055 32.6192 60.5095 34.4417 60.5095 36.7321C60.5095 39.0229 59.055 40.8454 56.5826 40.8454C54.0941 40.8454 52.656 39.0229 52.656 36.7321Z" fill="#221F20"/>
<path fill-rule="evenodd" clip-rule="evenodd" d="M67.5376 40.684L67.3759 39.8131C66.8751 40.5066 66.2123 40.8454 65.178 40.8454C63.3196 40.8454 62.2533 39.7484 62.2533 37.3773V32.7805H63.7079V36.9742C63.7079 38.6517 64.241 39.555 65.5499 39.555C66.2771 39.555 66.9884 39.2805 67.3759 38.6517V32.7805H68.8304V40.684H67.5376Z" fill="#221F20"/>
<path fill-rule="evenodd" clip-rule="evenodd" d="M76.812 40.684V36.3293C76.812 34.6514 76.2464 33.9096 74.7434 33.9096C73.8385 33.9096 72.9819 34.2323 72.578 34.9419V40.684H71.1235V32.7805H72.2546L72.4163 33.6191C73.3213 32.8129 74.1939 32.6192 75.0344 32.6192C77.3451 32.6192 78.2661 34.0546 78.2661 36.3293V40.684H76.812Z" fill="#221F20"/>
<path fill-rule="evenodd" clip-rule="evenodd" d="M81.4966 36.7321C81.4966 38.2806 82.3371 39.555 83.7268 39.555C84.89 39.555 86.1992 38.7648 86.1992 36.7805C86.1992 34.8772 84.89 33.9096 83.7268 33.9096C82.3371 33.9096 81.4966 35.1193 81.4966 36.7321ZM86.1992 40.684L86.0375 39.6841C85.4399 40.4583 84.3248 40.8454 83.6139 40.8454C81.5938 40.8454 80.01 39.0389 80.01 36.7321C80.01 34.5708 81.3997 32.6192 83.6139 32.6192C84.3248 32.6192 85.3591 32.7966 86.0375 33.6192V28.587H87.4921V40.684H86.1992Z" fill="#221F20"/>
<path fill-rule="evenodd" clip-rule="evenodd" d="M93.9059 36.7321C91.5949 36.8128 90.6575 37.2966 90.6575 38.474C90.6575 39.3289 91.1586 39.6841 91.8858 39.6841C92.6615 39.6841 93.4372 39.2646 93.9059 38.6194V36.7321ZM96.1846 40.8454H96.0714C94.6652 40.8454 94.3586 40.4259 94.0352 39.6841C93.4372 40.3776 92.6291 40.8454 91.6109 40.8454C90.1407 40.8454 89.1709 39.8774 89.1709 38.5547C89.1709 36.329 91.8858 35.7645 93.9059 35.7321C93.9059 34.2324 93.2919 33.9096 92.1768 33.9096C91.5788 33.9096 90.9324 34.0386 90.0923 34.6191L89.8821 33.4418C90.5125 32.958 91.5144 32.6192 92.5643 32.6192C94.5684 32.6192 95.3601 33.5548 95.3601 36.4093V38.0229C95.3601 39.1515 95.4249 39.6841 96.2655 39.6841H96.4104L96.1846 40.8454Z" fill="#221F20"/>
<path fill-rule="evenodd" clip-rule="evenodd" d="M101.726 40.8453H100.417C98.9148 40.8453 98.3492 39.9097 98.3492 38.958V33.9095H96.9915L97.1208 32.7805H98.3492V30.8289L99.8033 30.6838V32.7805H101.888V33.9095H99.8033V38.0711C99.8033 39.5869 99.9002 39.6839 101.468 39.6839H101.839L101.726 40.8453Z" fill="#221F20"/>
<path fill-rule="evenodd" clip-rule="evenodd" d="M103.454 40.6842H104.909V32.7807H103.454V40.6842ZM103.454 31.0061H104.909V29.3933H103.454V31.0061Z" fill="#221F20"/>
<path fill-rule="evenodd" clip-rule="evenodd" d="M108.221 36.7323C108.221 38.5065 109.094 39.5552 110.661 39.5552C112.228 39.5552 113.101 38.5065 113.101 36.7323C113.101 34.958 112.228 33.9097 110.661 33.9097C109.094 33.9097 108.221 34.958 108.221 36.7323ZM106.734 36.7323C106.734 34.4419 108.172 32.6193 110.661 32.6193C113.133 32.6193 114.588 34.4419 114.588 36.7323C114.588 39.023 113.133 40.8456 110.661 40.8456C108.172 40.8456 106.734 39.023 106.734 36.7323Z" fill="#221F20"/>
<path fill-rule="evenodd" clip-rule="evenodd" d="M122.101 40.6841V36.3295C122.101 34.6516 121.535 33.9097 120.032 33.9097C119.127 33.9097 118.271 34.2325 117.867 34.942V40.6841H116.413V32.7807H117.544L117.705 33.6193C118.61 32.813 119.483 32.6193 120.323 32.6193C122.634 32.6193 123.555 34.0547 123.555 36.3295V40.6841H122.101Z" fill="#221F20"/>
<path fill-rule="evenodd" clip-rule="evenodd" d="M44.4961 54.85C44.4961 52.4633 46.0902 50.9369 48.2659 50.9369C49.0309 50.9369 49.8387 51.1302 50.3558 51.3777L50.2479 52.3236C49.6556 52.1192 49.0416 51.8611 48.2659 51.8611C46.5318 51.8611 45.6166 53.1835 45.6166 54.85C45.6166 56.5164 46.5318 57.8392 48.2877 57.8392C49.0416 57.8392 49.6556 57.5914 50.2479 57.3874L50.3558 58.3333C49.8063 58.5807 49.0309 58.7634 48.277 58.7634C46.0902 58.7634 44.4961 57.237 44.4961 54.85Z" fill="#221F20"/>
<path fill-rule="evenodd" clip-rule="evenodd" d="M54.8906 58.613L54.7831 58.0325C54.449 58.4946 54.0074 58.7203 53.3179 58.7203C52.0792 58.7203 51.3683 57.9895 51.3683 56.409V53.3448H52.3377V56.1403C52.3377 57.2583 52.6932 57.8601 53.5657 57.8601C54.0505 57.8601 54.5245 57.6777 54.7831 57.2583V53.3448H55.7525V58.613H54.8906Z" fill="#221F20"/>
<path fill-rule="evenodd" clip-rule="evenodd" d="M59.8562 54.2158H59.5225C59.0805 54.2158 58.4989 54.5595 58.3159 54.893V58.6131H57.282V53.3449H58.079L58.1973 54.2158C58.833 53.4952 59.3395 53.1515 59.9855 53.1515H60.0717L59.8562 54.2158Z" fill="#221F20"/>
<path fill-rule="evenodd" clip-rule="evenodd" d="M60.9552 58.6132H61.9246V53.345H60.9552V58.6132ZM60.9552 52.1623H61.9246V51.0873H60.9552V52.1623Z" fill="#221F20"/>
<path fill-rule="evenodd" clip-rule="evenodd" d="M67.2454 58.613V55.7102C67.2454 54.5922 66.8686 54.0977 65.8668 54.0977C65.2634 54.0977 64.6929 54.3124 64.4233 54.7855V58.613H63.4538V53.3448H64.2082L64.3157 53.904C64.9187 53.3665 65.5006 53.2374 66.0609 53.2374C67.6008 53.2374 68.2148 54.1944 68.2148 55.7102V58.613H67.2454Z" fill="#221F20"/>
<path fill-rule="evenodd" clip-rule="evenodd" d="M70.3479 55.3232C70.3479 56.1511 70.8647 56.6562 71.6083 56.6562C72.4161 56.6562 72.8577 56.0544 72.8577 55.2908C72.8577 54.4629 72.3299 54.0115 71.5866 54.0115C70.7789 54.0115 70.3479 54.5596 70.3479 55.3232ZM71.0801 58.7635C70.5954 58.9142 70.24 59.312 70.24 59.6881C70.24 60.1719 70.8109 60.5484 71.8238 60.5484C72.9008 60.5484 73.45 60.1182 73.45 59.7094C73.45 59.3333 72.9977 59.0646 72.0389 58.8925C72.0175 58.8925 71.2094 58.7852 71.0801 58.7635ZM69.314 59.7094C69.314 59.4194 69.4216 58.8176 70.251 58.5271C69.7987 58.312 69.7122 58.0216 69.7122 57.8602C69.7122 57.6779 69.8308 57.3121 70.3372 57.0757C69.5833 56.5272 69.4216 55.893 69.4216 55.3555C69.4216 54.1942 70.1755 53.2376 71.5759 53.2376C72.0713 53.2376 72.4916 53.3556 72.9221 53.6243C73.2455 53.4523 73.6765 53.3232 74.2039 53.3232H74.2901L74.1715 53.9684H73.924C73.8485 53.9684 73.5255 53.9901 73.2993 54.0438C73.6868 54.5063 73.784 54.9147 73.784 55.3015C73.784 56.3658 73.0301 57.3981 71.651 57.3981C71.4035 57.3981 71.1236 57.3657 70.8971 57.3014C70.7464 57.3874 70.6389 57.4948 70.6389 57.6238C70.6389 57.8926 71.0264 57.9679 72.2761 58.183C73.1052 58.3227 74.4304 58.6131 74.4304 59.6451C74.4304 60.4943 73.5255 61.3005 71.7803 61.3005C69.9494 61.3005 69.314 60.4083 69.314 59.7094Z" fill="#221F20"/>
<path fill-rule="evenodd" clip-rule="evenodd" d="M80.634 52.0118V58.6131H79.6108V52.0118H77.4138V51.0872H82.8319V52.0118H80.634Z" fill="#221F20"/>
<path fill-rule="evenodd" clip-rule="evenodd" d="M83.6932 55.9789C83.6932 57.1616 84.2748 57.8601 85.3201 57.8601C86.3647 57.8601 86.9463 57.1616 86.9463 55.9789C86.9463 54.7966 86.3647 54.0977 85.3201 54.0977C84.2748 54.0977 83.6932 54.7966 83.6932 55.9789ZM82.7024 55.9789C82.7024 54.4521 83.6612 53.2374 85.3201 53.2374C86.968 53.2374 87.9374 54.4521 87.9374 55.9789C87.9374 57.5057 86.968 58.7203 85.3201 58.7203C83.6612 58.7203 82.7024 57.5057 82.7024 55.9789Z" fill="#221F20"/>
<path fill-rule="evenodd" clip-rule="evenodd" d="M89.8114 55.3232C89.8114 56.1511 90.3286 56.6562 91.0718 56.6562C91.8796 56.6562 92.3212 56.0544 92.3212 55.2908C92.3212 54.4629 91.7934 54.0115 91.0501 54.0115C90.2424 54.0115 89.8114 54.5596 89.8114 55.3232ZM90.544 58.7635C90.0593 58.9142 89.7039 59.312 89.7039 59.6881C89.7039 60.1719 90.2748 60.5484 91.2873 60.5484C92.3643 60.5484 92.9139 60.1182 92.9139 59.7094C92.9139 59.3333 92.4612 59.0646 91.5028 58.8925C91.4811 58.8925 90.6733 58.7852 90.544 58.7635ZM88.7775 59.7094C88.7775 59.4194 88.8851 58.8176 89.7146 58.5271C89.2623 58.312 89.1761 58.0216 89.1761 57.8602C89.1761 57.6779 89.2947 57.3121 89.8011 57.0757C89.0468 56.5272 88.8851 55.893 88.8851 55.3555C88.8851 54.1942 89.6394 53.2376 91.0398 53.2376C91.5352 53.2376 91.9551 53.3556 92.386 53.6243C92.7091 53.4523 93.14 53.3232 93.6674 53.3232H93.754L93.6354 53.9684H93.3879C93.3124 53.9684 92.989 53.9901 92.7628 54.0438C93.1507 54.5063 93.2479 54.9147 93.2479 55.3015C93.2479 56.3658 92.4936 57.3981 91.1149 57.3981C90.8674 57.3981 90.5871 57.3657 90.3606 57.3014C90.2103 57.3874 90.1024 57.4948 90.1024 57.6238C90.1024 57.8926 90.4903 57.9679 91.7396 58.183C92.5687 58.3227 93.894 58.6131 93.894 59.6451C93.894 60.4943 92.989 61.3005 91.2442 61.3005C89.4129 61.3005 88.7775 60.4083 88.7775 59.7094Z" fill="#221F20"/>
<path fill-rule="evenodd" clip-rule="evenodd" d="M95.4884 55.3124H98.2674C98.2674 54.5705 97.8582 54.0978 96.9746 54.0978C96.1131 54.0978 95.6821 54.5492 95.4884 55.3124ZM95.4018 55.9789C95.5422 57.4414 96.3823 57.8601 97.3842 57.8601C97.8685 57.8601 98.4287 57.7634 98.9028 57.5487L99.0321 58.3119C98.6229 58.4946 98.0302 58.7204 97.2656 58.7204C95.4018 58.7204 94.4114 57.4517 94.4114 55.9359C94.4114 54.4632 95.3591 53.2375 96.9963 53.2375C98.3101 53.2375 99.2689 54.0437 99.2689 55.4632C99.2689 55.6135 99.2582 55.7962 99.2262 55.9789H95.4018Z" fill="#221F20"/>
<path fill-rule="evenodd" clip-rule="evenodd" d="M103.158 58.7204H102.285C101.283 58.7204 100.907 58.0969 100.907 57.4624V54.0974H100.002L100.088 53.3449H100.907V52.0442L101.876 51.9471V53.3449H103.265V54.0974H101.876V56.8716C101.876 57.8818 101.941 57.9465 102.985 57.9465H103.233L103.158 58.7204Z" fill="#221F20"/>
<path fill-rule="evenodd" clip-rule="evenodd" d="M107.919 58.613V55.7962C107.919 54.5492 107.595 54.0977 106.658 54.0977C106.012 54.0977 105.581 54.3124 105.28 54.7855V58.613H104.299V50.5497H105.28V53.9146C105.646 53.4521 106.12 53.2374 106.809 53.2374C108.328 53.2374 108.888 54.28 108.888 55.7962V58.613H107.919Z" fill="#221F20"/>
<path fill-rule="evenodd" clip-rule="evenodd" d="M111.118 55.3124H113.897C113.897 54.5705 113.488 54.0978 112.604 54.0978C111.742 54.0978 111.311 54.5492 111.118 55.3124ZM111.031 55.9789C111.172 57.4414 112.012 57.8601 113.014 57.8601C113.498 57.8601 114.058 57.7634 114.532 57.5487L114.661 58.3119C114.252 58.4946 113.66 58.7204 112.895 58.7204C111.031 58.7204 110.041 57.4517 110.041 55.9359C110.041 54.4632 110.988 53.2375 112.626 53.2375C113.939 53.2375 114.898 54.0437 114.898 55.4632C114.898 55.6135 114.888 55.7962 114.856 55.9789H111.031Z" fill="#221F20"/>
<path fill-rule="evenodd" clip-rule="evenodd" d="M118.669 54.2158H118.335C117.893 54.2158 117.311 54.5595 117.128 54.893V58.6131H116.094V53.3449H116.891L117.01 54.2158C117.645 53.4952 118.152 53.1515 118.798 53.1515H118.884L118.669 54.2158Z" fill="#221F20"/>
<path fill-rule="evenodd" clip-rule="evenodd" d="M119.412 58.6132H120.381V57.6886H119.412V58.6132Z" fill="#221F20"/>
</svg>
