<svg width="160" height="128" viewBox="0 0 160 128" fill="none" xmlns="http://www.w3.org/2000/svg">
<path d="M136.757 44.4796H127.968V39.9464C127.968 36.3384 125.008 33.3779 121.4 33.3779C117.792 33.3779 114.831 36.3384 114.831 39.9464V44.4796H106.042V39.9464C106.042 31.4351 112.981 24.5891 121.4 24.5891C129.911 24.5891 136.757 31.5276 136.757 39.9464V44.4796Z" fill="#FFA400"/>
<path d="M98.5488 40.3165H89.3899C87.9097 40.3165 86.707 39.1138 86.707 37.6336C86.707 36.1533 87.9097 34.9507 89.3899 34.9507H98.5488C100.029 34.9507 101.232 36.1533 101.232 37.6336C101.232 39.1138 100.029 40.3165 98.5488 40.3165Z" fill="#FFA400"/>
<path d="M105.025 25.8843C104.47 25.8843 103.822 25.6993 103.36 25.2367L96.1434 19.3158C95.0333 18.3907 94.8482 16.7254 95.7734 15.5228C96.6985 14.4126 98.3638 14.2276 99.5664 15.1527L106.783 21.0736C107.893 21.9987 108.078 23.664 107.153 24.8667C106.505 25.5143 105.765 25.8843 105.025 25.8843Z" fill="#FFA400"/>
<path d="M121.4 19.5934C119.919 19.5934 118.717 18.3907 118.717 16.9105V7.6591C118.717 6.17888 119.919 4.9762 121.4 4.9762C122.88 4.9762 124.083 6.17888 124.083 7.6591V16.9105C124.083 18.3907 122.88 19.5934 121.4 19.5934Z" fill="#FFA400"/>
<path d="M137.682 25.8843C136.942 25.8843 136.109 25.5143 135.647 24.8667C134.722 23.7565 134.907 21.9987 136.017 21.0736L143.233 15.1527C144.343 14.2276 146.101 14.4126 147.026 15.5228C147.951 16.6329 147.766 18.3907 146.656 19.3158L139.44 25.2367C138.885 25.6993 138.33 25.8843 137.682 25.8843Z" fill="#FFA400"/>
<path d="M153.317 40.3165H144.066C142.585 40.3165 141.383 39.1138 141.383 37.6336C141.383 36.1533 142.585 34.9507 144.066 34.9507H153.317C154.797 34.9507 156 36.1533 156 37.6336C156 39.1138 154.797 40.3165 153.317 40.3165Z" fill="#FFA400"/>
<path d="M140.365 44.4796H102.434C100.769 44.4796 99.4736 45.7748 99.4736 47.4401V75.4717C99.4736 77.137 100.769 78.4322 102.434 78.4322H140.365C142.03 78.4322 143.325 77.137 143.325 75.4717V47.4401C143.233 45.7748 141.937 44.4796 140.365 44.4796ZM123.25 62.8899V66.6829C123.25 67.7006 122.417 68.6257 121.307 68.6257C120.289 68.6257 119.364 67.7931 119.364 66.6829V62.8899C118.161 62.2423 117.421 60.9471 117.421 59.4668C117.421 57.339 119.179 55.5813 121.307 55.5813C123.435 55.5813 125.192 57.339 125.192 59.4668C125.285 60.9471 124.452 62.2423 123.25 62.8899Z" fill="#003A70"/>
<path d="M4 78.0622V48.1802H11.2161V71.7712H22.7803V78.0622H4ZM46.6488 67.7931V68.6257V69.4584H31.3841C31.4766 70.0135 31.6616 70.5685 31.9392 71.0311C32.2167 71.4937 32.5868 71.9562 33.0493 72.2338C33.5119 72.6038 34.067 72.8814 34.6221 73.0664C35.1771 73.2514 35.8247 73.344 36.3798 73.344C37.49 73.344 38.4151 73.1589 39.1552 72.6964C39.8953 72.3263 40.5429 71.7712 41.0055 71.1236L45.8162 74.1766C44.7986 75.6568 43.5034 76.6744 41.9306 77.5071C40.3579 78.2472 38.4151 78.7097 36.2873 78.7097C34.7146 78.7097 33.2344 78.4322 31.8466 77.9696C30.4589 77.5071 29.2563 76.767 28.1461 75.8418C27.1284 74.9167 26.2958 73.714 25.6482 72.3263C25.0006 70.9386 24.7231 69.3659 24.7231 67.6081C24.7231 65.8503 25.0006 64.3701 25.6482 62.9824C26.2033 61.5947 27.0359 60.392 28.0536 59.4669C29.0712 58.5417 30.2739 57.7091 31.6616 57.2466C33.0493 56.6915 34.5295 56.4139 36.1023 56.4139C37.675 56.4139 39.0627 56.6915 40.3579 57.154C41.6531 57.7091 42.7633 58.4492 43.6884 59.3744C44.6135 60.392 45.3537 61.5947 45.8162 62.9824C46.3713 64.4626 46.6488 66.0354 46.6488 67.7931ZM40.2654 65.2027C40.2654 64.0926 39.8953 63.1674 39.2477 62.3348C38.6001 61.5022 37.49 61.1321 36.1023 61.1321C35.4547 61.1321 34.8071 61.2246 34.252 61.4097C33.6969 61.5947 33.2344 61.8722 32.7718 62.2423C32.3092 62.6124 32.0317 63.0749 31.7541 63.5375C31.4766 64.0001 31.3841 64.5551 31.2916 65.1102H40.2654V65.2027ZM57.7505 62.2423V70.291C57.7505 71.3086 57.9355 72.0488 58.3056 72.5113C58.6756 72.9739 59.3232 73.2514 60.3409 73.2514C60.7109 73.2514 61.081 73.2514 61.451 73.1589C61.8211 73.0664 62.1912 72.9739 62.3762 72.8814L62.4687 77.9696C62.0061 78.1547 61.3585 78.2472 60.6184 78.4322C59.8783 78.5247 59.1382 78.6172 58.3981 78.6172C57.0104 78.6172 55.8077 78.4322 54.8826 78.0622C53.9574 77.6921 53.1248 77.2295 52.5697 76.5819C52.0146 75.9343 51.5521 75.1017 51.367 74.1766C51.182 73.2514 50.997 72.2338 50.997 71.1236V62.2423H47.574V57.0615H50.9045V51.5107H57.7505V57.0615H62.6537V62.2423H57.7505ZM69.0372 47.6251C67.0019 47.6251 65.3366 49.1053 65.3366 51.0481C65.3366 53.0834 66.7243 54.3786 68.7596 54.3786C68.9447 54.3786 69.1297 54.3786 69.2222 54.2861C68.8521 55.7663 67.4644 56.8765 66.0767 57.0615H65.7992V60.2995H66.1692C67.8345 60.1145 69.4072 59.3744 70.6099 58.2642C72.1826 56.784 73.0153 54.5637 73.0153 51.9733C73.0153 49.4754 71.35 47.6251 69.0372 47.6251ZM85.0421 63.2599C84.487 62.7049 83.8394 62.2423 83.0993 61.8722C82.3592 61.5022 81.5265 61.3172 80.6939 61.3172C80.0463 61.3172 79.4912 61.4097 78.9361 61.6872C78.3811 61.9648 78.1035 62.3348 78.1035 62.9824C78.1035 63.5375 78.3811 64.0001 79.0287 64.2776C79.6763 64.5551 80.6014 64.8327 81.9891 65.1102C82.8217 65.2953 83.5618 65.4803 84.3945 65.8503C85.2271 66.2204 85.8747 66.5904 86.5223 67.053C87.1699 67.5156 87.725 68.1632 88.095 68.9033C88.4651 69.6434 88.6501 70.476 88.6501 71.4937C88.6501 72.7889 88.3726 73.899 87.8175 74.8242C87.2624 75.7493 86.6148 76.4894 85.6897 77.0445C84.857 77.5996 83.8394 77.9696 82.8217 78.2472C81.7116 78.5247 80.6939 78.6172 79.5837 78.6172C77.826 78.6172 76.1607 78.3397 74.588 77.7846C72.9228 77.2295 71.535 76.3969 70.5174 75.3793L74.403 71.3086C75.0506 71.9562 75.7907 72.5113 76.7158 72.9739C77.641 73.4365 78.5661 73.6215 79.5837 73.6215C80.1388 73.6215 80.6939 73.529 81.249 73.2514C81.8041 72.9739 82.0816 72.5113 82.0816 71.8637C82.0816 71.2161 81.7116 70.7536 81.064 70.3835C80.4164 70.106 79.3062 69.7359 77.9185 69.4584C77.1784 69.2733 76.4383 69.0883 75.6982 68.8108C74.9581 68.5332 74.3105 68.1632 73.7554 67.7006C73.2003 67.238 72.7377 66.5904 72.3677 65.9429C71.9976 65.2027 71.8126 64.3701 71.8126 63.445C71.8126 62.1498 72.0901 61.1321 72.6452 60.207C73.2003 59.2819 73.8479 58.6343 74.6805 58.0792C75.5131 57.5241 76.4383 57.0615 77.4559 56.8765C78.4736 56.599 79.4912 56.5064 80.5089 56.5064C82.0816 56.5064 83.6544 56.784 85.1346 57.2466C86.6148 57.7091 87.91 58.4492 88.9276 59.4669L85.0421 63.2599ZM4 112.662V82.7803H24.0755V88.8863H10.9385V94.5296H23.3354V100.265H10.9385V106.464H24.8156V112.662H4ZM43.0408 112.662V101.191C43.0408 100.636 42.9483 100.08 42.8558 99.5254C42.7633 98.9703 42.5782 98.5077 42.3932 98.1376C42.2082 97.7676 41.8381 97.3975 41.4681 97.2125C41.098 96.935 40.5429 96.8424 39.8953 96.8424C39.2477 96.8424 38.6927 96.935 38.2301 97.2125C37.7675 97.49 37.3975 97.7676 37.0274 98.2302C36.7499 98.6927 36.4723 99.1553 36.2873 99.7104C36.1023 100.265 36.0098 100.821 36.0098 101.376V112.755H29.0712V91.7542H35.7322V94.6221H35.8247C36.1023 94.1596 36.3798 93.697 36.8424 93.3269C37.2124 92.8644 37.7675 92.4943 38.2301 92.2168C38.7852 91.9392 39.3403 91.6617 39.9879 91.4766C40.6355 91.2916 41.283 91.1991 42.0232 91.1991C43.4109 91.1991 44.6135 91.4767 45.6312 91.9392C46.6488 92.4018 47.389 93.1419 48.0366 93.882C48.6841 94.7146 49.0542 95.6398 49.3317 96.6574C49.6093 97.6751 49.7018 98.6927 49.7018 99.8029V112.755H43.0408V112.662ZM67.8345 98.4152C67.4644 97.9526 66.9094 97.49 66.2618 97.2125C65.6142 96.935 64.8741 96.7499 64.2265 96.7499C63.4864 96.7499 62.8388 96.935 62.2837 97.2125C61.7286 97.49 61.1735 97.8601 60.8035 98.4152C60.4334 98.9703 60.0633 99.4328 59.7858 100.08C59.5083 100.728 59.4157 101.376 59.4157 102.116C59.4157 102.856 59.5083 103.503 59.7858 104.151C59.9708 104.799 60.3409 105.354 60.8035 105.816C61.266 106.279 61.7286 106.741 62.3762 107.019C63.0238 107.297 63.6714 107.482 64.4115 107.482C65.1516 107.482 65.7992 107.389 66.5393 107.111C67.1869 106.834 67.742 106.464 68.2046 105.909L71.9976 110.627C71.165 111.46 69.9623 112.107 68.6671 112.57C67.2794 113.032 65.7992 113.31 64.319 113.31C62.6537 113.31 61.081 113.032 59.6933 112.57C58.2131 112.107 57.0104 111.367 55.9002 110.349C54.8826 109.424 54.0499 108.222 53.4023 106.834C52.7548 105.446 52.4772 103.873 52.4772 102.116C52.4772 100.358 52.7548 98.8778 53.4023 97.49C54.0499 96.1023 54.8826 94.8997 55.9002 93.9745C56.9179 93.0494 58.2131 92.2168 59.6933 91.7542C61.1735 91.1991 62.6537 91.0141 64.319 91.0141C65.0591 91.0141 65.7992 91.1066 66.5393 91.1991C67.2794 91.3841 68.0195 91.5692 68.6671 91.7542C69.3147 92.0317 69.9623 92.3093 70.6099 92.6793C71.165 93.0494 71.7201 93.4194 72.0901 93.882L67.8345 98.4152ZM88.0025 97.3975C87.725 97.305 87.3549 97.2125 87.0774 97.2125H86.2447C85.3196 97.2125 84.5795 97.3975 83.9319 97.6751C83.2843 98.0451 82.8217 98.4152 82.4517 98.8778C82.0816 99.3403 81.8041 99.8954 81.619 100.45C81.434 101.006 81.3415 101.468 81.3415 101.931V112.662H74.403V91.6617H81.064V94.7146H81.1565C81.7116 93.6045 82.4517 92.7718 83.4693 92.1242C84.487 91.4767 85.5971 91.1066 86.8923 91.1066H87.725C88.0025 91.1066 88.1875 91.1991 88.3726 91.1991L88.0025 97.3975ZM104.285 115.808C103.822 116.918 103.36 117.843 102.897 118.768C102.342 119.601 101.787 120.341 101.047 120.989C100.307 121.636 99.4742 122.006 98.5491 122.376C97.6239 122.654 96.4212 122.839 95.1261 122.839C94.4785 122.839 93.8309 122.839 93.0908 122.746C92.4432 122.654 91.7956 122.561 91.333 122.376L92.0731 116.548C92.4432 116.64 92.8132 116.733 93.1833 116.825C93.5533 116.918 93.9234 116.918 94.2934 116.918C95.4036 116.918 96.1437 116.64 96.6063 116.178C97.0688 115.715 97.5314 114.975 97.809 114.05L98.4566 112.292L89.6677 91.6617H97.3464L102.065 105.169H102.157L106.32 91.6617H113.629L104.285 115.808ZM138.885 102.116C138.885 103.596 138.7 104.984 138.237 106.371C137.775 107.759 137.127 108.869 136.295 109.979C135.462 110.997 134.352 111.83 133.149 112.477C131.947 113.125 130.466 113.402 128.894 113.402C127.598 113.402 126.396 113.125 125.193 112.662C124.083 112.107 123.158 111.46 122.51 110.534H122.418V123.024H115.479V91.9392H122.048V94.5296H122.14C122.788 93.697 123.713 92.9569 124.823 92.3093C125.933 91.6617 127.321 91.3841 128.894 91.3841C130.374 91.3841 131.762 91.6617 133.057 92.3093C134.259 92.8644 135.37 93.697 136.202 94.7146C137.035 95.7323 137.682 96.935 138.145 98.2302C138.608 99.2478 138.885 100.636 138.885 102.116ZM132.132 102.116C132.132 101.468 132.039 100.821 131.854 100.173C131.669 99.5253 131.299 98.9703 130.929 98.5077C130.559 98.0451 130.004 97.5826 129.356 97.305C128.709 97.0275 128.061 96.8424 127.228 96.8424C126.396 96.8424 125.748 97.0275 125.101 97.305C124.453 97.5826 123.99 98.0451 123.528 98.5077C123.065 98.9703 122.788 99.6179 122.51 100.265C122.233 100.913 122.14 101.561 122.14 102.208C122.14 102.856 122.233 103.503 122.51 104.151C122.788 104.799 123.065 105.354 123.528 105.909C123.99 106.371 124.453 106.834 125.101 107.111C125.748 107.389 126.396 107.574 127.228 107.574C128.061 107.574 128.801 107.389 129.356 107.111C130.004 106.834 130.466 106.371 130.929 105.909C131.299 105.446 131.669 104.799 131.854 104.151C132.039 103.411 132.132 102.763 132.132 102.116ZM149.894 96.8424V104.891C149.894 105.909 150.079 106.649 150.449 107.111C150.819 107.574 151.467 107.852 152.485 107.852C152.855 107.852 153.225 107.852 153.595 107.759C153.965 107.667 154.335 107.574 154.52 107.482L154.612 112.57C154.15 112.755 153.502 112.847 152.762 113.032C152.022 113.125 151.282 113.217 150.542 113.217C149.154 113.217 147.951 113.032 147.026 112.662C146.101 112.292 145.269 111.83 144.713 111.182C144.158 110.534 143.696 109.702 143.511 108.777C143.326 107.852 143.141 106.834 143.141 105.724V96.8424H139.81V91.6617H143.141V86.1109H149.894V91.6617H154.797V96.8424H149.894Z" fill="#003A70"/>
</svg>
