<svg width="128" height="160" viewBox="0 0 128 160" fill="none" xmlns="http://www.w3.org/2000/svg">
<path d="M115.8 4H12.201C8.10445 4 4.7832 7.32077 4.7832 11.4173V50.5427L28.0959 44.03L43.6134 50.4649L30.9144 44.03C30.9144 44.03 21.9821 39.1481 20.4099 32.7478C18.8382 26.348 26.802 19.0447 26.802 19.0447L55.6084 22.7298L39.9384 19.7791C39.9384 19.7791 45.4346 16.1185 57.7958 16.5165C71.3615 16.9524 90.4757 20.3813 93.6297 23.5358C96.7846 26.6907 102.663 47.9972 99.284 51.3781C97.6964 52.9652 77.4229 47.99 77.4229 47.99L94.3358 53.3521C94.3358 53.3521 103.716 74.8792 97.782 93.3941C97.782 93.3941 84.8695 86.3868 74.6462 72.5505C83.1175 90.2791 96.9884 95.9641 96.9884 95.9641C96.9884 95.9641 91.7739 110.001 88.754 113.02L39.5544 91.8661L14.5763 122.434H115.8C119.897 122.434 123.218 119.112 123.218 115.016V11.4173C123.218 7.32077 119.897 4 115.8 4Z" fill="#1A1918"/>
<path d="M25.5642 144.212V152.198C25.5642 153.46 25.2741 154.407 24.6946 155.036C24.1145 155.666 23.3485 155.982 22.3981 155.982C21.476 155.982 20.729 155.666 20.1567 155.036C19.5849 154.407 19.2988 153.46 19.2988 152.198V142.628C19.2988 141.117 19.2462 139.944 19.1426 139.108C19.0389 138.272 18.7576 137.587 18.2997 137.051C17.8413 136.516 17.1172 136.248 16.1269 136.248C14.1453 136.248 12.8402 136.923 12.2119 138.272C11.5827 139.622 11.2693 141.558 11.2693 144.08V152.198C11.2693 153.445 10.9832 154.388 10.4109 155.025C9.83861 155.663 9.08384 155.982 8.14805 155.982C7.22587 155.982 6.47111 155.663 5.88374 155.025C5.29637 154.388 5.00391 153.445 5.00391 152.197V135.013C5.00391 133.883 5.26717 133.025 5.79469 132.438C6.3222 131.852 7.01662 131.558 7.87991 131.558C8.71254 131.558 9.40697 131.833 9.96416 132.384C10.5214 132.934 10.8007 133.694 10.8007 134.663V135.235C11.8528 133.988 12.9789 133.07 14.1794 132.483C15.3799 131.895 16.7133 131.601 18.181 131.601C19.7071 131.601 21.019 131.902 22.1159 132.504C23.2128 133.106 24.1164 134.017 24.8284 135.235C25.8493 134.002 26.9433 133.088 28.1122 132.493C29.2801 131.899 30.575 131.601 31.9955 131.601C33.6515 131.601 35.0788 131.924 36.2774 132.57C37.475 133.216 38.3704 134.141 38.9627 135.344C39.4785 136.431 39.7374 138.139 39.7374 140.472V152.198C39.7374 153.46 39.4493 154.406 38.8731 155.036C38.2974 155.666 37.5378 155.982 36.5932 155.982C35.6779 155.982 34.9289 155.663 34.3464 155.025C33.7625 154.388 33.472 153.445 33.472 152.198V142.1C33.472 140.81 33.4155 139.775 33.3046 138.999C33.1931 138.221 32.8938 137.568 32.4053 137.04C31.9167 136.512 31.1765 136.248 30.1843 136.248C29.3838 136.248 28.6256 136.483 27.9068 136.952C27.1881 137.422 26.6294 138.052 26.2304 138.844C25.7856 139.857 25.5642 141.645 25.5642 144.212Z" fill="#1A1918"/>
<path d="M68.2775 143.79C68.2775 145.58 67.9957 147.229 67.4351 148.74C66.8735 150.25 66.0608 151.549 64.9971 152.634C63.9338 153.719 62.6627 154.552 61.1857 155.131C59.7078 155.709 58.0455 156 56.1997 156C54.3675 156 52.7203 155.705 51.2574 155.119C49.7946 154.532 48.5279 153.692 47.4573 152.598C46.3862 151.504 45.5736 150.212 45.0198 148.722C44.4655 147.233 44.1891 145.584 44.1891 143.778C44.1891 141.959 44.4694 140.292 45.031 138.78C45.5916 137.268 46.3969 135.976 47.4461 134.905C48.4953 133.834 49.7664 133.008 51.2584 132.428C52.7504 131.848 54.3977 131.558 56.1997 131.558C58.0314 131.558 59.6937 131.852 61.1857 132.439C62.6782 133.028 63.9557 133.865 65.019 134.952C66.0827 136.039 66.8915 137.332 67.4458 138.831C67.9996 140.33 68.2775 141.983 68.2775 143.79ZM62.1945 143.79C62.1945 141.34 61.6515 139.433 60.5682 138.07C59.4845 136.706 58.0285 136.024 56.1997 136.024C55.0191 136.024 53.9797 136.328 53.0804 136.936C52.1811 137.545 51.4886 138.443 51.002 139.631C50.5153 140.819 50.272 142.205 50.272 143.79C50.272 145.359 50.5114 146.731 50.9903 147.904C51.4696 149.077 52.1558 149.976 53.0483 150.599C53.9398 151.222 54.9909 151.534 56.1997 151.534C58.0285 151.534 59.4845 150.848 60.5682 149.477C61.6515 148.106 62.1945 146.209 62.1945 143.79Z" fill="#1A1918"/>
<path d="M78.5697 134.883V135.609C79.6335 134.215 80.7966 133.19 82.0599 132.537C83.3222 131.884 84.7734 131.558 86.4138 131.558C88.0085 131.558 89.4343 131.902 90.6898 132.593C91.9454 133.283 92.8836 134.259 93.504 135.522C93.9026 136.256 94.161 137.05 94.2788 137.9C94.3965 138.751 94.4564 139.838 94.4564 141.159V152.344C94.4564 153.548 94.179 154.458 93.6257 155.075C93.0729 155.691 92.3532 156 91.4675 156C90.5662 156 89.8363 155.683 89.2757 155.053C88.7151 154.422 88.4343 153.519 88.4343 152.344V142.325C88.4343 140.344 88.1569 138.829 87.6026 137.779C87.0479 136.73 85.9432 136.205 84.2887 136.205C83.2088 136.205 82.2263 136.524 81.3392 137.162C80.4525 137.801 79.8024 138.678 79.3892 139.793C79.0924 140.689 78.9449 142.362 78.9449 144.814V152.344C78.9449 153.563 78.6617 154.476 78.0953 155.086C77.5288 155.695 76.7979 156 75.9011 156C75.0329 156 74.3205 155.683 73.7613 155.053C73.2027 154.422 72.9229 153.519 72.9229 152.344V134.97C72.9229 133.825 73.173 132.971 73.6728 132.405C74.173 131.841 74.8562 131.558 75.7239 131.558C76.2534 131.558 76.7317 131.683 77.1585 131.932C77.5843 132.182 77.9264 132.556 78.1838 133.055C78.4403 133.554 78.5697 134.164 78.5697 134.883Z" fill="#1A1918"/>
<path d="M123.191 143.79C123.191 145.58 122.909 147.229 122.349 148.74C121.787 150.25 120.975 151.549 119.911 152.634C118.847 153.719 117.576 154.552 116.099 155.131C114.622 155.709 112.959 156 111.113 156C109.281 156 107.634 155.705 106.171 155.119C104.708 154.532 103.441 153.692 102.371 152.598C101.3 151.504 100.487 150.212 99.933 148.722C99.3792 147.233 99.1023 145.584 99.1023 143.778C99.1023 141.959 99.3831 140.292 99.9446 138.78C100.505 137.268 101.31 135.976 102.36 134.905C103.409 133.834 104.68 133.008 106.172 132.428C107.664 131.848 109.311 131.558 111.113 131.558C112.945 131.558 114.607 131.852 116.099 132.439C117.591 133.028 118.869 133.865 119.933 134.952C120.996 136.039 121.805 137.332 122.359 138.831C122.913 140.33 123.191 141.983 123.191 143.79ZM117.108 143.79C117.108 141.34 116.565 139.433 115.481 138.07C114.398 136.706 112.942 136.024 111.113 136.024C109.933 136.024 108.893 136.328 107.994 136.936C107.095 137.545 106.402 138.443 105.915 139.631C105.429 140.819 105.185 142.205 105.185 143.79C105.185 145.359 105.425 146.731 105.904 147.904C106.383 149.077 107.069 149.976 107.961 150.599C108.853 151.222 109.905 151.534 111.113 151.534C112.942 151.534 114.398 150.848 115.481 149.477C116.565 148.106 117.108 146.209 117.108 143.79Z" fill="#1A1918"/>
</svg>
