<svg width="160" height="80" viewBox="0 0 160 80" fill="none" xmlns="http://www.w3.org/2000/svg">
<path d="M61.7729 39.5476C59.7471 39.5476 58.0999 40.1473 56.837 41.346C55.5742 42.5459 54.9336 44.1186 54.9336 46.0456C54.9336 47.0442 55.0927 47.9548 55.4062 48.7892C55.7196 49.6252 56.2074 50.3997 56.8633 51.0996C57.5191 51.8 58.8318 52.7515 60.7883 53.9613C63.189 55.4269 64.7601 56.6163 65.5141 57.545C66.2687 58.473 66.6431 59.4454 66.6431 60.4593C66.6431 61.8167 66.1962 62.9003 65.2778 63.7148C64.3579 64.5297 63.1276 64.9356 61.6022 64.9356C59.9933 64.9356 58.5919 64.3685 57.3884 63.2422C56.1849 62.1143 55.5773 60.6225 55.5637 58.7527H54.8154V65.5395H55.5637C55.7921 64.8968 56.1082 64.5681 56.522 64.5681C56.721 64.5681 57.1873 64.7053 57.9135 64.9619C59.6804 65.5906 61.1312 65.8939 62.2717 65.8939C64.2371 65.8939 65.9148 65.2056 67.3125 63.8067C68.7082 62.4084 69.4129 60.7218 69.4129 58.7527C69.4129 57.2259 68.9477 55.8674 68.0345 54.6833C67.1214 53.4977 65.3456 52.1187 62.6918 50.5351C60.4082 49.1631 58.9258 48.0456 58.2416 47.1745C57.5564 46.3047 57.2046 45.3424 57.2046 44.2865C57.2046 43.1445 57.6241 42.2271 58.4517 41.5429C59.2792 40.8582 60.3635 40.519 61.7203 40.519C63.2473 40.519 64.5201 40.9722 65.5272 41.8843C66.5333 42.7979 67.1151 44.064 67.2863 45.6911H68.0345V39.8102H67.3388C67.2537 40.11 67.175 40.3016 67.1025 40.3877C67.0321 40.4733 66.8967 40.519 66.6956 40.519C66.4535 40.519 66.0219 40.4172 65.4091 40.2171C64.0964 39.775 62.886 39.5476 61.7729 39.5476ZM86.2289 39.5476C83.7604 39.5476 81.5193 40.1294 79.4946 41.2935C77.4667 42.4555 75.8615 44.0691 74.6769 46.1243C73.4928 48.1794 72.9047 50.362 72.9047 52.688C72.9047 55.8129 73.9276 58.5968 75.9896 61.0369C78.0527 63.4754 80.5248 64.9949 83.3934 65.5789C84.0492 65.9206 84.9875 66.8027 86.2157 68.2306C87.5999 69.8419 88.7708 71.0041 89.7338 71.6962C90.6958 72.3886 91.7344 72.8961 92.8318 73.232C93.9303 73.5666 95.1181 73.7309 96.4024 73.7309C97.9578 73.7309 99.3503 73.4606 100.577 72.9039L100.301 72.2212C99.5892 72.4781 98.8299 72.6019 98.0302 72.6019C96.9449 72.6019 95.848 72.244 94.7484 71.5255C93.6505 70.8052 92.2773 69.4309 90.6396 67.4036C89.8698 66.4321 89.3384 65.8193 89.0381 65.5789C92.1765 64.966 94.7573 63.4449 96.77 61.0106C98.7821 58.5773 99.7893 55.8003 99.7893 52.688C99.7893 48.9924 98.4744 45.8866 95.8642 43.3545C93.2519 40.8221 90.0394 39.5476 86.2289 39.5476ZM101.496 39.5476L101.535 40.3484C103.179 40.3484 104.099 40.8325 104.305 41.8055C104.382 42.1536 104.417 42.7964 104.423 43.7221L104.41 61.4307C104.396 62.7533 104.208 63.5977 103.846 63.9642C103.483 64.3281 102.869 64.556 101.982 64.6468L101.942 65.4476H118.325L118.745 61.4307H117.997C117.783 62.525 117.293 63.3089 116.513 63.7542C115.731 64.2028 114.349 64.4237 112.352 64.4237H110.803C109.006 64.4237 107.966 63.7741 107.692 62.4677C107.635 62.2093 107.616 61.9322 107.613 61.6276L107.679 43.7221C107.678 42.4016 107.845 41.5167 108.191 41.0835C108.54 40.6519 109.169 40.4103 110.081 40.3484L110.042 39.5476H101.496H101.496ZM86.4914 40.519C89.2754 40.519 91.5485 41.6155 93.3044 43.8271C95.0598 46.0394 95.9299 49.0716 95.9299 52.9111C95.9299 56.5494 95.0472 59.4626 93.2782 61.6538C91.5091 63.8444 89.1546 64.9356 86.2289 64.9356C83.4181 64.9356 81.1386 63.8104 79.3896 61.5488C77.6421 59.2873 76.7773 56.3511 76.7773 52.7405C76.7773 49.0302 77.6526 46.0601 79.4158 43.8402C81.178 41.6227 83.5378 40.519 86.4914 40.519ZM124.166 44.3259C123.767 44.3259 123.462 44.4609 123.234 44.7329C123.001 45.0038 122.93 45.332 123.011 45.7305C123.09 46.1171 123.308 46.456 123.655 46.7413C123.999 47.0264 124.371 47.1745 124.77 47.1745C125.157 47.1745 125.451 47.0264 125.663 46.7413C125.875 46.456 125.939 46.1171 125.86 45.7305C125.779 45.332 125.568 45.0038 125.243 44.7329C124.914 44.4609 124.553 44.3259 124.166 44.3259ZM134.97 47.0432C134.291 49.6551 132.819 51.0686 130.559 51.2965L130.586 52.0447H133.224L133.172 60.8925C133.176 62.4051 133.222 63.4123 133.329 63.9248C133.589 65.152 134.391 65.7758 135.732 65.7758C137.672 65.7758 139.707 64.5939 141.836 62.2314L141.192 61.6801C139.656 63.2359 138.297 64.0167 137.11 64.0167C136.381 64.0167 135.928 63.5973 135.758 62.7696C135.711 62.5686 135.692 62.3338 135.692 62.0608L135.718 52.0447H139.749L139.709 50.8501H135.732V47.0432H134.97H134.97ZM150.552 50.3776C148.298 50.3776 146.464 51.4718 145.039 53.6462C143.62 55.8243 143.182 58.2374 143.739 60.8925C144.067 62.4476 144.721 63.6529 145.721 64.5024C146.72 65.3516 147.987 65.7758 149.502 65.7758C150.912 65.7758 152.876 65.4187 153.703 64.6993C154.531 63.9804 155.295 62.8158 156 61.2206L155.436 60.6299C154.311 62.6993 152.041 63.7411 150.329 63.7411C147.976 63.7411 146.534 62.4499 145.997 59.8817C145.927 59.5538 145.875 59.2017 145.84 58.8315C148.639 58.3882 150.761 57.6032 152.193 56.4686C153.624 55.3333 155.061 54.1299 154.792 52.8586C154.633 52.1032 154.24 51.5092 153.637 51.0602C153.026 50.6114 151.439 50.3776 150.552 50.3776ZM125.912 50.4694L121.055 51.5853V52.4517L122.736 52.2416C123.55 52.2416 124.028 52.6102 124.18 53.3443C124.231 53.59 124.263 53.935 124.272 54.3682L124.219 62.3102C124.205 63.4092 124.084 64.0481 123.838 64.2399C123.591 64.4321 122.939 64.5287 121.882 64.5287L121.856 65.2769H129.562L129.549 64.5287C128.478 64.5287 127.784 64.4442 127.475 64.2793C127.171 64.1154 126.961 63.8171 126.871 63.3604C126.801 63.0312 126.77 62.464 126.766 61.6801L126.792 50.4694H125.912H125.912ZM149.318 51.9397C149.787 51.9397 150.24 52.1208 150.697 52.4779C151.147 52.8338 151.421 53.2295 151.51 53.6594C151.95 55.7708 150.078 57.2305 145.866 58.0438C145.746 56.5042 146.012 55.1066 146.693 53.8431C147.368 52.5809 148.248 51.9397 149.318 51.9397Z" fill="#003B57"/>
<path d="M50.8931 9.22583H9.09357C6.29212 9.22583 4 11.5184 4 14.3197V60.4168C4 63.218 6.29212 65.5102 9.09357 65.5102H36.6239C36.3114 51.812 40.9891 25.2281 50.8931 9.22583Z" fill="#0F80CC"/>
<path d="M49.3745 10.7117H9.09353C7.10434 10.7117 5.4856 12.33 5.4856 14.3196V57.0534C14.6084 53.5521 28.3006 50.531 37.7679 50.6682C39.6703 40.7206 45.2617 21.2253 49.3745 10.7117Z" fill="url(#paint0_linear_3_6977)"/>
<path d="M60.6429 7.71715C57.7801 5.16417 54.314 6.18967 50.8931 9.22573C50.3853 9.67678 49.8786 10.1772 49.3745 10.7117C43.5224 16.9199 38.0904 28.4193 36.4027 37.2014C37.0601 38.5346 37.5737 40.2359 37.9118 41.5355C37.9985 41.8689 38.0767 42.1819 38.1392 42.4481C38.2878 43.0781 38.3676 43.4867 38.3676 43.4867C38.3676 43.4867 38.3151 43.2882 38.0998 42.6639C38.0589 42.5442 38.0132 42.4134 37.9591 42.2596C37.936 42.196 37.904 42.1189 37.8688 42.0364C37.487 41.149 36.4311 39.276 35.9664 38.4606C35.5689 39.6331 35.2176 40.73 34.9236 41.7224C36.2652 44.1771 37.0827 48.3838 37.0827 48.3838C37.0827 48.3838 37.0118 48.1112 36.6747 47.1597C36.3754 46.3181 34.8847 43.7062 34.5316 43.0956C33.9275 45.3255 33.6875 46.8311 33.9039 47.1976C34.3242 47.9079 34.7244 49.1335 35.0758 50.4888C35.8698 53.5422 36.4216 57.2592 36.4216 57.2592C36.4216 57.2592 36.4395 57.5055 36.4694 57.8846C36.3591 60.4487 36.4253 63.1072 36.6238 65.5101C36.8869 68.691 37.382 71.4235 38.0132 72.8859L38.4416 72.6523C37.5149 69.7711 37.1384 65.9952 37.3033 61.6406C37.5527 54.9845 39.0844 46.9576 41.9146 38.5913C46.696 25.9619 53.33 15.8287 59.4016 10.9895C53.8677 15.9873 46.3778 32.1648 44.1357 38.1555C41.6253 44.864 39.8463 51.1594 38.774 57.1909C40.6239 51.5364 46.6052 49.1058 46.6052 49.1058C46.6052 49.1058 49.5389 45.4878 52.9672 40.3189C50.9136 40.7872 47.5414 41.589 46.412 42.0637C44.7459 42.7626 44.2969 43.001 44.2969 43.001C44.2969 43.001 49.6938 39.7145 54.324 38.2264C60.6917 28.1972 67.6292 13.9494 60.6429 7.71715Z" fill="#003B57"/>
<defs>
<linearGradient id="paint0_linear_3_6977" x1="30.7927" y1="11.66" x2="30.7926" y2="54.4762" gradientUnits="userSpaceOnUse">
<stop stop-color="#97D9F6"/>
<stop offset="0.920245" stop-color="#0F80CC"/>
<stop offset="1" stop-color="#0F80CC"/>
</linearGradient>
</defs>
</svg>
