<svg width="192" height="48" viewBox="0 0 192 48" fill="none" xmlns="http://www.w3.org/2000/svg">
<path d="M28.3068 9.35211L24.4335 13.1901C21.8279 9.24648 17.6729 5.58451 16.1237 4C13.8701 6.39437 5.73633 13.2254 5.73633 19C5.73633 25.3732 9.96168 28.9648 14.3631 29.7042C14.5039 39.2113 21.6518 44 28.3068 44C34.9969 44 42.2504 39.1408 42.2504 29.4577C42.2504 21.7465 31.3349 12.5563 28.3068 9.35211Z" fill="#B81D32"/>
<path d="M26.5464 18.9998C26.3976 16.9041 25.6658 14.8917 24.4337 13.1899C20.1027 17.4857 14.3633 23.859 14.3633 29.4576V29.704C15.8986 29.9888 17.4786 29.9213 18.984 29.5067C20.4895 29.0921 21.8812 28.3412 23.0543 27.3105C24.2273 26.2798 25.1511 24.9963 25.756 23.5567C26.361 22.1171 26.6312 20.559 26.5464 18.9998Z" fill="#8F1F1A"/>
<path d="M38.7285 17.3802V8.29569H39.9609L44.7144 15.4084V8.29569H45.8764V17.3802H44.644L39.8553 10.2323V17.3802H38.7285ZM51.7919 16.5703C51.1356 17.1898 50.2647 17.5306 49.3623 17.521C48.6229 17.521 48.0947 17.345 47.7074 16.9929C47.3201 16.6408 47.1088 16.183 47.1088 15.6548C47.1088 15.3379 47.1792 15.0562 47.3201 14.7746C47.4609 14.4929 47.6722 14.2816 47.8834 14.1408C48.1256 13.9676 48.4016 13.8477 48.6933 13.7886L49.6792 13.6126C50.5947 13.507 51.2285 13.3661 51.651 13.2253V12.9436C51.651 12.4858 51.5454 12.1689 51.3342 11.9929C51.0525 11.7464 50.6299 11.6055 50.0665 11.6055C49.5384 11.6055 49.1511 11.7112 48.9046 11.8872C48.6581 12.0633 48.482 12.3802 48.3412 12.8732L47.2496 12.7323C47.3553 12.2746 47.4961 11.8872 47.7426 11.6055C47.9539 11.3239 48.306 11.1126 48.7285 10.9365C49.652 10.6262 50.6497 10.6138 51.5806 10.9013C51.9327 11.0422 52.1792 11.183 52.3553 11.3943C52.5342 11.6198 52.6551 11.8858 52.7074 12.1689L52.7778 13.1901V14.6689C52.7778 15.6901 52.813 16.3591 52.8482 16.6408C52.8834 16.9224 52.9891 17.1689 53.1299 17.4154H51.968L51.7919 16.5703ZM51.7215 14.0703C51.1328 14.2923 50.517 14.4344 49.8905 14.4929C49.5568 14.537 49.2271 14.6076 48.9046 14.7041C48.7285 14.7746 48.5525 14.9154 48.482 15.0562C48.3764 15.2323 48.3412 15.4084 48.3412 15.5844C48.3412 15.8661 48.4468 16.1126 48.6933 16.3239C48.9046 16.5351 49.2567 16.6055 49.6792 16.6055C50.1018 16.6055 50.4891 16.4999 50.8412 16.3239C51.1581 16.1478 51.4046 15.8661 51.5806 15.5492C51.6863 15.3027 51.7567 14.9154 51.7567 14.4224V14.0703H51.7215ZM56.6158 16.3591L56.7919 17.345L55.9468 17.4506C55.5595 17.4506 55.2426 17.3802 54.9961 17.2746C54.7849 17.1337 54.6088 16.9929 54.5384 16.7816C54.4103 16.36 54.3625 15.918 54.3975 15.4788V11.676H53.5877V10.7957H54.3975V9.17597L55.4891 8.50695V10.7957H56.6158V11.676H55.4891V15.514C55.4891 15.8309 55.5243 16.0422 55.5595 16.1126L55.7356 16.3239C55.8412 16.3943 55.9468 16.3943 56.1229 16.3943C56.2285 16.4295 56.4046 16.3943 56.6158 16.3591ZM57.4609 9.56329V8.29569H58.5877V9.56329H57.4609ZM57.4609 17.3802V10.7957H58.5877V17.3802H57.4609ZM59.6088 14.0703C59.6088 12.8379 59.9609 11.9577 60.6299 11.3591C61.2066 10.8633 61.9471 10.5997 62.7074 10.6196C63.6229 10.6196 64.3623 10.9013 64.9257 11.4999C65.4891 12.0985 65.7708 12.9084 65.7708 13.9647C65.7708 14.8098 65.6299 15.4788 65.3834 15.9717C65.1336 16.4431 64.7551 16.8339 64.2919 17.0985C63.8078 17.3668 63.2607 17.5005 62.7074 17.4858C61.7919 17.4858 61.0525 17.2041 60.4891 16.6055C59.9257 16.007 59.6088 15.1971 59.6088 14.0703ZM60.7708 14.0703C60.7708 14.9154 60.9468 15.5492 61.3341 15.9717C61.5016 16.1728 61.7117 16.334 61.9492 16.4436C62.1868 16.5533 62.4458 16.6086 62.7074 16.6055C63.2708 16.6055 63.7285 16.3943 64.0806 15.9717C64.4327 15.5492 64.644 14.9154 64.644 14.0351C64.644 13.2253 64.468 12.5915 64.0806 12.2041C63.9132 12.0031 63.7031 11.8419 63.4655 11.7323C63.228 11.6226 62.969 11.5673 62.7074 11.5703C62.144 11.5703 61.6863 11.7816 61.3341 12.2041C60.9468 12.6267 60.7708 13.2253 60.7708 14.0703ZM66.8271 17.3802V10.7957H67.813V11.7464C68.034 11.399 68.3419 11.1155 68.7064 10.924C69.0709 10.7325 69.4791 10.6397 69.8905 10.6548C70.2778 10.6548 70.6651 10.7253 70.982 10.8661C71.2745 10.9843 71.5299 11.1788 71.7215 11.4295C71.8946 11.6716 72.0146 11.9476 72.0736 12.2393L72.144 13.3309V17.3802H71.0172V13.3661C71.0172 12.9084 70.982 12.5562 70.8764 12.345C70.806 12.1337 70.6299 11.9577 70.4187 11.8168C70.1864 11.6727 69.9173 11.5993 69.644 11.6055C69.1863 11.6055 68.7637 11.7464 68.4116 12.0633C68.0595 12.3802 67.8834 12.9436 67.8834 13.7886V17.3802H66.8271ZM77.8482 16.5703C77.192 17.1898 76.321 17.5306 75.4187 17.521C74.6792 17.521 74.1511 17.345 73.7637 16.9929C73.3764 16.6408 73.1651 16.183 73.1651 15.6548C73.1651 15.3379 73.2356 15.0562 73.3764 14.7746C73.5173 14.4929 73.7285 14.2816 73.9398 14.1408C74.1819 13.9676 74.4579 13.8477 74.7496 13.7886L75.7356 13.6126C76.6511 13.507 77.2849 13.3661 77.7074 13.2253V12.9436C77.7074 12.4858 77.6018 12.1689 77.3905 11.9929C77.1088 11.7464 76.6863 11.6055 76.1229 11.6055C75.5947 11.6055 75.2074 11.7112 74.9609 11.8872C74.7144 12.0633 74.5384 12.3802 74.3975 12.8732L73.306 12.7323C73.4116 12.2746 73.5525 11.8872 73.7989 11.6055C74.0102 11.3239 74.3623 11.1126 74.7849 10.9365C75.7084 10.6262 76.7061 10.6138 77.637 10.9013C77.9891 11.0422 78.2356 11.183 78.4116 11.3943C78.5906 11.6198 78.7115 11.8858 78.7637 12.1689L78.8342 13.1901V14.6689C78.8342 15.6901 78.8694 16.3591 78.9046 16.6408C78.9398 16.9224 79.0454 17.1689 79.1863 17.4154H78.0243L77.8482 16.5703ZM77.7426 14.0703C77.1539 14.2923 76.5381 14.4344 75.9116 14.4929C75.5779 14.537 75.2482 14.6076 74.9257 14.7041C74.7496 14.7746 74.5736 14.9154 74.5032 15.0562C74.3975 15.2323 74.3623 15.4084 74.3623 15.5844C74.3623 15.8661 74.468 16.1126 74.7144 16.3239C74.9257 16.5351 75.2778 16.6055 75.7003 16.6055C76.1229 16.6055 76.5102 16.4999 76.8623 16.3239C77.1792 16.1478 77.4257 15.8661 77.6018 15.5492C77.7074 15.3027 77.7778 14.9154 77.7778 14.4224V14.0703H77.7426ZM80.2778 17.3802V8.29569H81.4046V17.3802H80.2778ZM86.475 17.3802V8.29569H89.8905C90.5947 8.29569 91.1229 8.40132 91.5454 8.57738C91.9546 8.74858 92.2996 9.04424 92.5313 9.42245C92.7524 9.76181 92.873 10.1568 92.8792 10.5617C92.8855 10.9667 92.7771 11.3652 92.5665 11.7112C92.3553 12.0633 92.0384 12.345 91.6158 12.5562C92.1792 12.7323 92.6018 12.9788 92.8834 13.3661C93.1806 13.7623 93.3412 14.2441 93.3412 14.7393C93.3366 15.1543 93.2404 15.5631 93.0595 15.9365C92.9081 16.2703 92.6788 16.5629 92.3908 16.7896C92.1028 17.0163 91.7646 17.1706 91.4046 17.2393C91.0173 17.345 90.5243 17.3802 89.9257 17.3802H86.475ZM87.6722 12.0985H89.644C90.1722 12.0985 90.5595 12.0633 90.806 11.9929C91.1229 11.8872 91.3342 11.7464 91.5102 11.5351C91.6511 11.3239 91.7567 11.0774 91.7567 10.7605C91.7567 10.4436 91.6863 10.1971 91.5454 9.95061C91.4046 9.70414 91.1933 9.56329 90.9116 9.49287C90.6299 9.42245 90.1722 9.35202 89.5384 9.35202H87.7074V12.0985H87.6722ZM87.6722 16.2886H89.9257L90.7356 16.2534C90.9831 16.2137 91.2215 16.1302 91.4398 16.007C91.6158 15.9013 91.7919 15.7253 91.8975 15.514C92.0145 15.2726 92.0747 15.0076 92.0736 14.7393C92.0916 14.4267 92.0049 14.1169 91.8271 13.8591C91.6499 13.6171 91.4048 13.4333 91.1229 13.3309C90.806 13.2253 90.3834 13.1901 89.7849 13.1901H87.6722V16.2886ZM94.5736 17.3802V8.29569H95.7003V17.3802H94.5736ZM96.7567 14.0703C96.7567 12.8379 97.1088 11.9577 97.7778 11.3591C98.3545 10.8633 99.095 10.5997 99.8553 10.6196C100.771 10.6196 101.51 10.9013 102.074 11.4999C102.637 12.0985 102.919 12.9084 102.919 13.9647C102.919 14.8098 102.778 15.4788 102.531 15.9717C102.282 16.4431 101.903 16.8339 101.44 17.0985C100.956 17.3668 100.409 17.5005 99.8553 17.4858C98.9398 17.4858 98.2003 17.2041 97.637 16.6055C97.0736 16.007 96.7567 15.1971 96.7567 14.0703ZM97.8834 14.0703C97.8834 14.9154 98.0595 15.5492 98.4468 15.9717C98.6142 16.1728 98.8244 16.334 99.0619 16.4436C99.2995 16.5533 99.5585 16.6086 99.8201 16.6055C100.383 16.6055 100.841 16.3943 101.193 15.9717C101.545 15.5492 101.757 14.9154 101.757 14.0351C101.757 13.2253 101.581 12.5915 101.193 12.2041C101.026 12.0031 100.816 11.8419 100.578 11.7323C100.341 11.6226 100.082 11.5673 99.8201 11.5703C99.2567 11.5703 98.7989 11.7816 98.4468 12.2041C98.0595 12.6267 97.8834 13.2253 97.8834 14.0703ZM103.588 14.0703C103.588 12.8379 103.94 11.9577 104.609 11.3591C105.185 10.8633 105.926 10.5997 106.686 10.6196C107.602 10.6196 108.341 10.9013 108.905 11.4999C109.468 12.0985 109.75 12.9084 109.75 13.9647C109.75 14.8098 109.609 15.4788 109.362 15.9717C109.113 16.4431 108.734 16.8339 108.271 17.0985C107.787 17.3668 107.24 17.5005 106.686 17.4858C105.771 17.4858 105.031 17.2041 104.468 16.6055C103.869 16.0422 103.588 15.1971 103.588 14.0703ZM104.714 14.0703C104.714 14.9154 104.89 15.5492 105.278 15.9717C105.445 16.1728 105.655 16.334 105.893 16.4436C106.13 16.5533 106.389 16.6086 106.651 16.6055C107.214 16.6055 107.672 16.3943 108.024 15.9717C108.376 15.5492 108.588 14.9154 108.588 14.0351C108.588 13.2253 108.412 12.5915 108.024 12.2041C107.857 12.0031 107.647 11.8419 107.409 11.7323C107.172 11.6226 106.913 11.5673 106.651 11.5703C106.088 11.5703 105.63 11.7816 105.278 12.2041C104.89 12.6267 104.714 13.2253 104.714 14.0703ZM115.067 17.3802V16.5351C114.881 16.851 114.611 17.1099 114.289 17.2837C113.966 17.4575 113.602 17.5396 113.236 17.521C112.707 17.521 112.214 17.3802 111.792 17.0985C111.369 16.8168 111.017 16.3943 110.771 15.9013C110.524 15.3356 110.403 14.7227 110.419 14.1055C110.419 13.4365 110.524 12.8379 110.736 12.3098C110.933 11.8092 111.276 11.3797 111.721 11.0774C112.161 10.7909 112.676 10.6437 113.2 10.6548C113.588 10.6548 113.94 10.7253 114.257 10.9013C114.574 11.0774 114.82 11.2886 114.996 11.5703V8.3309H116.088V17.3802H115.067ZM111.545 14.1055C111.545 14.9506 111.721 15.5844 112.074 16.007C112.426 16.4295 112.848 16.6408 113.341 16.6408C113.834 16.6408 114.257 16.4295 114.574 16.0422C114.926 15.6548 115.102 15.021 115.102 14.2112C115.102 13.2957 114.926 12.6619 114.574 12.2393C114.221 11.8168 113.799 11.6055 113.306 11.6055C112.813 11.6055 112.39 11.8168 112.074 12.2041C111.721 12.5915 111.545 13.2253 111.545 14.1055ZM126.792 14.176L127.989 14.4929C127.829 15.3658 127.36 16.152 126.669 16.7079C125.977 17.2639 125.108 17.5525 124.221 17.521C123.236 17.521 122.461 17.3098 121.827 16.9224C121.197 16.4992 120.707 15.8988 120.419 15.1971C120.088 14.4227 119.92 13.5883 119.926 12.7462C119.932 11.9041 120.112 11.0723 120.454 10.3027C120.806 9.5985 121.334 9.07033 122.003 8.68301C122.672 8.3309 123.412 8.11963 124.186 8.11963C125.102 8.11963 125.841 8.36611 126.475 8.82385C127.109 9.2816 127.531 9.95062 127.778 10.7605L126.581 11.0422C126.426 10.4805 126.107 9.97772 125.665 9.5985C125.228 9.27623 124.693 9.11456 124.151 9.14076C123.529 9.12855 122.916 9.3 122.39 9.63371C121.921 9.95627 121.574 10.4276 121.405 10.9717C121.009 12.1886 121.034 13.5031 121.475 14.7041C121.664 15.2485 122.038 15.7095 122.531 16.007C123.032 16.3085 123.612 16.4529 124.196 16.4215C124.779 16.3901 125.34 16.1844 125.806 15.8309C126.299 15.514 126.616 14.9506 126.792 14.176ZM128.975 17.3802V8.29569H130.102V17.3802H128.975ZM131.158 14.0703C131.158 12.8379 131.51 11.9577 132.179 11.3591C132.756 10.8633 133.496 10.5997 134.257 10.6196C135.172 10.6196 135.912 10.9013 136.475 11.4999C137.038 12.0985 137.32 12.9084 137.32 13.9647C137.32 14.8098 137.179 15.4788 136.933 15.9717C136.683 16.4431 136.304 16.8339 135.841 17.0985C135.357 17.3668 134.81 17.5005 134.257 17.4858C133.341 17.4858 132.602 17.2041 132.038 16.6055C131.44 16.0422 131.158 15.1971 131.158 14.0703ZM132.32 14.0703C132.32 14.9154 132.496 15.5492 132.883 15.9717C133.051 16.1728 133.261 16.334 133.499 16.4436C133.736 16.5533 133.995 16.6086 134.257 16.6055C134.82 16.6055 135.278 16.3943 135.63 15.9717C135.982 15.5492 136.193 14.9154 136.193 14.0351C136.193 13.2253 136.017 12.5915 135.63 12.2041C135.463 12.0031 135.252 11.8419 135.015 11.7323C134.777 11.6226 134.518 11.5673 134.257 11.5703C133.693 11.5703 133.236 11.7816 132.883 12.2041C132.496 12.6267 132.32 13.2253 132.32 14.0703ZM140.665 16.3591L140.841 17.345L139.996 17.4506C139.609 17.4506 139.292 17.3802 139.045 17.2746C138.834 17.1337 138.658 16.9929 138.588 16.7816C138.46 16.36 138.412 15.918 138.447 15.4788V11.676H137.637V10.7957H138.447V9.17597L139.538 8.50695V10.7957H140.665V11.676H139.538V15.514C139.538 15.8309 139.574 16.0422 139.609 16.1126C139.644 16.2182 139.714 16.2886 139.785 16.3239C139.89 16.3943 139.996 16.3943 140.172 16.3943C140.313 16.4295 140.454 16.3943 140.665 16.3591ZM144.186 17.3802L147.672 8.29569H148.975L152.672 17.3802H151.299L150.243 14.6337H146.44L145.454 17.3802H144.186ZM146.792 13.6478H149.855L148.905 11.1478L148.271 9.2816C148.165 9.88019 147.989 10.4436 147.778 11.007L146.792 13.6478ZM153.376 17.3802V8.29569H154.503V17.3802H153.376ZM155.841 17.3802V8.29569H156.968V17.3802H155.841ZM158.341 9.56329V8.29569H159.468V9.56329H158.341ZM158.341 17.3802V10.7957H159.468V17.3802H158.341ZM165.172 16.5703C164.516 17.1898 163.645 17.5306 162.743 17.521C162.003 17.521 161.475 17.345 161.088 16.9929C160.7 16.6408 160.489 16.183 160.489 15.6548C160.489 15.3379 160.56 15.0562 160.7 14.7746C160.841 14.4929 161.052 14.2816 161.264 14.1408C161.506 13.9676 161.782 13.8477 162.074 13.7886L163.059 13.6126C163.975 13.507 164.609 13.3661 165.031 13.2253V12.9436C165.031 12.4858 164.926 12.1689 164.714 11.9929C164.433 11.7464 164.01 11.6055 163.447 11.6055C162.919 11.6055 162.531 11.7112 162.285 11.8872C162.038 12.0633 161.862 12.3802 161.721 12.8732L160.63 12.7323C160.736 12.2746 160.876 11.8872 161.123 11.6055C161.334 11.3239 161.686 11.1126 162.109 10.9365C163.032 10.6262 164.03 10.6138 164.961 10.9013C165.313 11.0422 165.56 11.183 165.736 11.3943C165.915 11.6198 166.035 11.8858 166.088 12.1689L166.158 13.1901V14.6689C166.158 15.6901 166.193 16.3591 166.229 16.6408C166.264 16.9224 166.369 17.1689 166.51 17.4154H165.348L165.172 16.5703ZM165.067 14.0703C164.478 14.2923 163.862 14.4344 163.236 14.4929C162.902 14.537 162.572 14.6076 162.25 14.7041C162.074 14.7746 161.898 14.9154 161.827 15.0562C161.721 15.2323 161.686 15.4084 161.686 15.5844C161.686 15.8661 161.792 16.1126 162.038 16.3239C162.25 16.5351 162.602 16.6055 163.024 16.6055C163.447 16.6055 163.834 16.4999 164.186 16.3239C164.503 16.1478 164.75 15.8661 164.926 15.5492C165.031 15.3027 165.102 14.9154 165.102 14.4224V14.0703H165.067ZM167.602 17.3802V10.7957H168.588V11.7464C168.809 11.399 169.117 11.1155 169.481 10.924C169.846 10.7325 170.254 10.6397 170.665 10.6548C171.052 10.6548 171.44 10.7253 171.757 10.8661C172.049 10.9843 172.305 11.1788 172.496 11.4295C172.669 11.6716 172.789 11.9476 172.848 12.2393L172.919 13.3309V17.3802H171.792V13.3661C171.792 12.9084 171.757 12.5562 171.651 12.345C171.581 12.1337 171.405 11.9577 171.193 11.8168C170.961 11.6727 170.692 11.5993 170.419 11.6055C169.961 11.6055 169.538 11.7464 169.186 12.0633C168.834 12.3802 168.658 12.9436 168.658 13.7886V17.3802H167.602ZM178.623 14.9506L179.714 15.0915C179.636 15.7709 179.31 16.3977 178.799 16.852C178.288 17.2816 177.636 17.5073 176.968 17.4858C176.562 17.5052 176.157 17.4366 175.78 17.2846C175.403 17.1327 175.064 16.901 174.785 16.6055C174.221 16.007 173.975 15.1619 173.975 14.0703C173.975 13.3661 174.081 12.7323 174.327 12.2041C174.574 11.676 174.926 11.2886 175.383 11.007C175.868 10.7386 176.415 10.6049 176.968 10.6196C177.672 10.6196 178.271 10.7957 178.729 11.1478C179.186 11.4999 179.468 12.0281 179.609 12.6971L178.517 12.8732C178.412 12.4154 178.236 12.0985 177.954 11.8872C177.687 11.6686 177.348 11.5558 177.003 11.5703C176.44 11.5703 175.982 11.7816 175.63 12.1689C175.278 12.5562 175.102 13.2253 175.102 14.0703C175.053 14.7521 175.226 15.4315 175.595 16.007C175.947 16.3943 176.369 16.6055 176.933 16.6055C177.355 16.6055 177.743 16.4647 178.024 16.2182C178.376 15.9365 178.552 15.514 178.623 14.9506ZM185.067 15.2675L186.229 15.4084C186.084 16.03 185.722 16.5795 185.207 16.9577C184.667 17.3509 184.009 17.5495 183.341 17.521C182.39 17.521 181.616 17.2393 181.052 16.6408C180.451 15.9523 180.147 15.0531 180.207 14.1408C180.207 13.0492 180.489 12.1689 181.052 11.5703C181.336 11.2694 181.681 11.0322 182.063 10.8744C182.446 10.7166 182.857 10.6417 183.271 10.6548C183.671 10.6405 184.069 10.7117 184.44 10.8635C184.81 11.0152 185.144 11.2442 185.419 11.5351C185.982 12.1337 186.264 12.9788 186.264 14.0703V14.352H181.369C181.405 15.0915 181.616 15.6196 181.968 16.007C182.32 16.3943 182.778 16.5703 183.341 16.5703C183.764 16.5703 184.116 16.4647 184.398 16.2534C184.728 16.0125 184.965 15.6639 185.067 15.2675ZM181.405 13.4365H185.067C185.069 12.9897 184.92 12.5552 184.644 12.2041C184.48 11.9991 184.271 11.8351 184.032 11.7251C183.794 11.615 183.533 11.5621 183.271 11.5703C183.029 11.5642 182.788 11.6079 182.564 11.6987C182.34 11.7896 182.137 11.9257 181.968 12.0985C181.651 12.4154 181.475 12.8731 181.405 13.4365Z" fill="#272525"/>
<path d="M56.334 19.7744H167.954V20.6899H56.334V19.7744Z" fill="#6D6E70"/>
<path d="M51.5103 29.0704C51.5243 29.443 51.4483 29.8134 51.289 30.1505C51.1297 30.4876 50.8916 30.7813 50.5948 31.007C50.3131 31.2183 49.9962 31.3943 49.6441 31.5C48.7895 31.7493 47.8783 31.7247 47.0385 31.4296L46.5807 31.2183L46.299 31.0422C46.2327 30.9772 46.1947 30.8886 46.1934 30.7958L46.1582 30.338V30.0211L46.1934 29.8098L46.2638 29.7042L46.3695 29.669L46.6159 29.7746L47.0385 30.0211L47.6371 30.2676C48.0849 30.3925 48.5567 30.4046 49.0103 30.3028C49.1864 30.2676 49.292 30.1972 49.4328 30.0915C49.5385 29.9859 49.6441 29.8803 49.6793 29.7746L49.785 29.3521C49.785 29.176 49.7498 29 49.6441 28.8591L49.2568 28.507L48.6934 28.2253L48.0596 27.9436L47.4258 27.5915L46.8624 27.1338C46.6864 26.9577 46.5807 26.7465 46.4751 26.5C46.3695 26.2535 46.3343 25.9718 46.3343 25.6197C46.3343 25.2324 46.4047 24.8803 46.5455 24.5634C46.6936 24.2708 46.9019 24.0128 47.1568 23.8065C47.4117 23.6001 47.7074 23.4501 48.0244 23.3662C48.3765 23.2605 48.7286 23.2253 49.0807 23.2253L49.6793 23.2605C50.0226 23.3437 50.3631 23.4376 50.7005 23.5422C50.8413 23.6127 50.9117 23.6479 50.9469 23.7183L51.0174 23.8239L51.0526 23.9296L51.0878 24.1056V24.7042L51.0526 24.9155C51.0526 24.9859 51.0174 25.0211 50.9821 25.0211L50.8765 25.0563L50.6652 24.9507L50.2779 24.7394L49.7498 24.5634C49.5385 24.4929 49.3272 24.4929 49.1159 24.4929L48.623 24.5634L48.2709 24.7394C48.1652 24.8098 48.0948 24.9155 48.0596 25.0211C48.0162 25.1336 47.9924 25.2527 47.9892 25.3732C47.9892 25.5493 48.0244 25.7253 48.13 25.831L48.5174 26.1831L49.0807 26.4648L49.7145 26.7465L50.3483 27.0986L50.9117 27.5563C51.0878 27.7324 51.1934 27.9436 51.299 28.1901C51.4751 28.4366 51.5103 28.7183 51.5103 29.0704ZM56.1582 30.7605L56.123 31.1831L56.0174 31.3944L55.8413 31.5L55.5948 31.5704L55.2779 31.6408L54.9258 31.676C54.6089 31.676 54.3272 31.6408 54.1159 31.5704C53.8695 31.5 53.6934 31.3591 53.5526 31.1831C53.4117 31.007 53.2709 30.7958 53.2005 30.5493C53.13 30.3028 53.0948 29.9859 53.0948 29.6338V26.7465H52.4258C52.3554 26.7465 52.285 26.7112 52.2498 26.6056L52.1793 26.1127V25.7958L52.2145 25.5845L52.285 25.4789L52.3906 25.4436H53.0596V24.176L53.0948 24.0704L53.2357 24L53.4821 23.9648H54.2568L54.5033 24L54.6441 24.0704L54.6793 24.176V25.4436H55.9117L56.0174 25.4789L56.0878 25.5845L56.123 25.7958V26.1127L56.0526 26.6056C56.0174 26.7112 55.9469 26.7465 55.8765 26.7465H54.6793V29.4225C54.6793 29.7394 54.7145 29.9507 54.8202 30.1267C54.9258 30.2676 55.1019 30.3732 55.3483 30.3732L55.5596 30.338L55.7357 30.3028L55.8765 30.2676L55.9821 30.2324L56.0526 30.2676L56.123 30.3732L56.1582 30.5493V30.7605ZM63.1652 28.4366C63.1652 28.9296 63.0948 29.3521 62.9892 29.7746C62.8662 30.1469 62.6752 30.4932 62.4258 30.7958C62.1793 31.0774 61.8272 31.2887 61.4399 31.4648C60.5787 31.7852 59.6332 31.7976 58.7638 31.5C58.4177 31.3715 58.1048 31.167 57.8483 30.9014C57.5994 30.6117 57.4081 30.2771 57.285 29.9155C57.1793 29.5282 57.1089 29.0704 57.1089 28.5774C57.1089 28.0845 57.1793 27.662 57.3202 27.2394C57.443 26.8581 57.6488 26.5088 57.9228 26.2166C58.1968 25.9243 58.5321 25.6964 58.9047 25.5493C59.7764 25.2205 60.7359 25.208 61.6159 25.5141C61.9621 25.6425 62.275 25.8471 62.5314 26.1127C62.7779 26.3943 62.954 26.7112 63.0596 27.0986C63.0948 27.4859 63.1652 27.9084 63.1652 28.4366ZM61.5103 28.4718L61.4399 27.6972C61.4047 27.4507 61.3343 27.2746 61.2286 27.0986C61.123 26.9225 60.9821 26.7817 60.8061 26.676C60.63 26.5704 60.4188 26.5352 60.1371 26.5352C59.8906 26.5352 59.6793 26.5704 59.5033 26.676C59.3272 26.7465 59.1864 26.8873 59.0807 27.0634C58.9751 27.2394 58.8695 27.4155 58.8343 27.662C58.7638 27.9084 58.7638 28.1549 58.7638 28.4718L58.8343 29.2465C58.8695 29.4929 58.9399 29.669 59.0455 29.8451C59.1512 30.0211 59.292 30.162 59.4681 30.2324C59.6441 30.338 59.8554 30.3732 60.1371 30.3732C60.3836 30.3732 60.5948 30.338 60.7709 30.2324C60.9469 30.162 61.0878 30.0211 61.1934 29.8451C61.299 29.669 61.4047 29.4929 61.4399 29.2465L61.5103 28.4718ZM70.2427 28.4014C70.2407 28.8646 70.1816 29.3259 70.0667 29.7746C69.9643 30.1354 69.8101 30.4793 69.6089 30.7958C69.3976 31.0774 69.1512 31.2887 68.8343 31.4648C68.5174 31.6056 68.1652 31.676 67.7779 31.676L67.3202 31.6408L66.9329 31.5L66.5455 31.2535L66.1582 30.9014V33.5774L66.123 33.6831L65.9821 33.7535L65.7357 33.8239L65.3483 33.8591L64.961 33.8239L64.7145 33.7535L64.5737 33.6831L64.5385 33.5774V25.6549L64.5737 25.5493L64.6793 25.4789L64.8906 25.4436H65.5244L65.7357 25.4789L65.8413 25.5493L65.8765 25.6549V26.3239L66.3695 25.8662C66.5455 25.7253 66.6864 25.6197 66.8624 25.5493L67.3906 25.338L67.954 25.2676C68.3022 25.2509 68.6485 25.3269 68.9578 25.4877C69.2671 25.6486 69.5282 25.8885 69.7145 26.1831C69.8906 26.4648 70.0314 26.7817 70.1019 27.169C70.1723 27.5563 70.2427 27.9789 70.2427 28.4014ZM68.5526 28.507L68.4821 27.8028L68.3061 27.2042C68.2281 27.0347 68.1066 26.889 67.954 26.7817C67.8131 26.676 67.6371 26.6408 67.4258 26.6408L67.1089 26.676L66.792 26.8169L66.4751 27.0986L66.123 27.5211V29.3873C66.3069 29.6347 66.5197 29.8593 66.7568 30.0563C66.9681 30.1972 67.1793 30.3028 67.3906 30.3028C67.6019 30.3028 67.7779 30.2324 67.9188 30.1267C68.0714 30.0195 68.1929 29.8737 68.2709 29.7042C68.3765 29.5282 68.4469 29.3521 68.4821 29.1056C68.5526 28.9296 68.5526 28.7183 68.5526 28.507ZM79.2216 23.331V23.6831L79.1864 23.8943L79.1159 24.0352L79.0103 24.0704H76.7568V31.2887L76.7216 31.4296L76.5807 31.5352L76.299 31.6056L75.8765 31.6408L75.454 31.6056L75.1723 31.5352L75.0314 31.4296L74.9962 31.2887V24.0704H72.6371L72.5314 24.0352L72.461 23.8943L72.4258 23.6831V22.9789L72.461 22.7324L72.5314 22.5915L72.6371 22.5563H78.9399L79.0455 22.5915L79.1159 22.7324L79.1512 22.9789C79.2216 23.0845 79.2216 23.1901 79.2216 23.331ZM85.5596 31.3239L85.5244 31.4296L85.3836 31.5L85.1371 31.5352H84.3624L84.116 31.5L83.9751 31.4296L83.9399 31.3239V28.0845L83.8695 27.4507L83.6934 27.0634C83.623 26.9577 83.5174 26.8521 83.4117 26.8169C83.3061 26.7465 83.1652 26.7113 82.9892 26.7113C82.7779 26.7113 82.5667 26.7817 82.3554 26.9225C82.1441 27.0634 81.9328 27.2746 81.7216 27.5563V31.3239L81.6864 31.4296L81.5455 31.5L81.299 31.5352H80.5244L80.2779 31.5L80.1371 31.4296L80.1019 31.3239V22.9436L80.1371 22.838L80.2779 22.7676L80.5244 22.6972L80.9117 22.662L81.299 22.6972L81.5455 22.7676L81.6864 22.838L81.7216 22.9436V26.0774C82.0033 25.7958 82.285 25.6197 82.5667 25.4789C82.8483 25.338 83.1652 25.2676 83.4469 25.2676C83.8343 25.2676 84.1512 25.338 84.4328 25.4436C84.7145 25.5845 84.9258 25.7605 85.0667 25.9718C85.2427 26.1831 85.3483 26.4648 85.4188 26.7465C85.4892 27.0282 85.5244 27.4155 85.5244 27.8028V31.3239H85.5596ZM92.4962 28.2958C92.4962 28.507 92.461 28.6479 92.3554 28.7183C92.285 28.8239 92.1441 28.8591 92.0033 28.8591H88.5526L88.623 29.5282C88.6762 29.7161 88.7747 29.8882 88.9097 30.0293C89.0447 30.1705 89.2122 30.2765 89.3976 30.338C89.6089 30.4084 89.8202 30.4436 90.1019 30.4436C90.5443 30.4391 90.9835 30.3679 91.4047 30.2324L91.792 30.0915L92.0385 30.0211L92.1441 30.0563L92.2145 30.1267L92.2498 30.3028V30.7958L92.2145 30.9718L92.1793 31.0774L92.1089 31.1831L91.8976 31.2887L91.4399 31.4296L90.7709 31.5704C90.0667 31.678 89.3481 31.6421 88.6582 31.4648C88.2709 31.3239 87.954 31.1479 87.7075 30.9014C87.4386 30.6262 87.2447 30.2868 87.1441 29.9155C87.0033 29.5282 86.9681 29.0704 86.9681 28.5422C86.9681 28.0493 87.0385 27.5915 87.1793 27.169C87.3023 26.7967 87.4934 26.4505 87.7427 26.1479C87.9892 25.8662 88.3061 25.6549 88.6582 25.5141C89.0103 25.3732 89.4328 25.3028 89.8554 25.3028C90.3131 25.3028 90.7357 25.3732 91.0878 25.5141C91.4399 25.6549 91.6864 25.831 91.9328 26.1127C92.1441 26.3591 92.3202 26.6408 92.4258 26.9929C92.5314 27.3451 92.5667 27.6972 92.5667 28.0845V28.2958H92.4962ZM90.9469 27.838C90.9469 27.3803 90.8765 27.0282 90.6652 26.7817C90.4892 26.5352 90.1723 26.3943 89.785 26.3943C89.5737 26.3943 89.3976 26.4296 89.2568 26.5C89.1036 26.5736 88.9697 26.6819 88.8658 26.8164C88.7619 26.9509 88.6908 27.1078 88.6582 27.2746C88.5878 27.4507 88.5878 27.6267 88.5526 27.838H90.9469ZM102.602 30.2676V30.5493L102.567 30.7253L102.531 30.8662L102.426 31.007L102.144 31.1831L101.651 31.3944L100.982 31.5704L100.172 31.6408C99.6089 31.6408 99.1159 31.5704 98.6582 31.3944C98.214 31.2338 97.8153 30.968 97.4962 30.6197C97.1793 30.2676 96.9328 29.8451 96.7568 29.3169C96.5807 28.7887 96.5103 28.1901 96.5103 27.5211C96.5103 26.8169 96.616 26.2183 96.792 25.6549C96.9681 25.1267 97.2497 24.669 97.5667 24.2817C97.9188 23.9296 98.3061 23.6479 98.7638 23.4366C99.4722 23.1739 100.237 23.1011 100.982 23.2253L101.581 23.3662L102.074 23.5774L102.391 23.7887L102.496 23.9296L102.531 24.0704L102.567 24.2817V24.8803L102.531 25.0915L102.461 25.1972L102.355 25.2324L102.109 25.1267L101.722 24.8803C101.547 24.7711 101.357 24.688 101.158 24.6338C100.947 24.5634 100.7 24.5282 100.384 24.5282C100.067 24.5282 99.7497 24.5986 99.5033 24.7394C99.2485 24.8858 99.0219 25.0766 98.8343 25.3028C98.6455 25.5835 98.5028 25.8925 98.4117 26.2183C98.3061 26.5704 98.2709 26.9577 98.2709 27.4155C98.2709 27.9084 98.3061 28.331 98.4117 28.6831C98.5174 29.0352 98.6582 29.3169 98.8343 29.5634C99.0249 29.7769 99.2513 29.9557 99.5033 30.0915C99.8626 30.2303 100.248 30.2865 100.632 30.256C101.016 30.2255 101.389 30.1092 101.722 29.9155L102.109 29.7042L102.355 29.5986L102.461 29.6338L102.531 29.7394L102.567 29.9507L102.602 30.2676ZM105.419 31.3239L105.384 31.4296L105.243 31.5L104.996 31.5352H104.222L103.975 31.5L103.834 31.4296L103.799 31.3239V22.9436L103.834 22.838L103.975 22.7676L104.222 22.6972L104.609 22.662L104.996 22.6972L105.243 22.7676L105.384 22.838L105.419 22.9436V31.3239ZM112.848 28.4366C112.848 28.9296 112.778 29.3521 112.672 29.7746C112.549 30.1469 112.358 30.4932 112.109 30.7958C111.862 31.0774 111.51 31.2887 111.123 31.4648C110.262 31.7852 109.316 31.7976 108.447 31.5C108.101 31.3715 107.788 31.167 107.531 30.9014C107.282 30.6117 107.091 30.2771 106.968 29.9155C106.732 29.0391 106.732 28.1158 106.968 27.2394C107.091 26.8581 107.297 26.5088 107.571 26.2166C107.845 25.9243 108.18 25.6964 108.553 25.5493C109.424 25.2205 110.384 25.208 111.264 25.5141C111.61 25.6425 111.923 25.8471 112.179 26.1127C112.426 26.3943 112.602 26.7112 112.707 27.0986C112.778 27.4859 112.848 27.9084 112.848 28.4366ZM111.193 28.4718L111.123 27.6972C111.088 27.4507 111.017 27.2746 110.912 27.0986C110.806 26.9225 110.665 26.7817 110.489 26.676C110.313 26.5704 110.102 26.5352 109.82 26.5352C109.574 26.5352 109.362 26.5704 109.186 26.676C109.01 26.7465 108.869 26.8873 108.764 27.0634C108.658 27.2394 108.553 27.4155 108.517 27.662C108.447 27.9084 108.447 28.1549 108.447 28.4718L108.517 29.2465C108.553 29.4929 108.623 29.669 108.729 29.8451C108.834 30.0211 108.975 30.162 109.151 30.2324C109.327 30.338 109.538 30.3732 109.82 30.3732C110.067 30.3732 110.278 30.338 110.454 30.2324C110.63 30.162 110.771 30.0211 110.877 29.8451C110.982 29.669 111.088 29.4929 111.123 29.2465L111.193 28.4718ZM117.567 30.7605L117.531 31.1831L117.426 31.3944L117.25 31.5L117.003 31.5704L116.686 31.6408L116.334 31.676C116.017 31.676 115.736 31.6408 115.524 31.5704C115.299 31.5073 115.101 31.3711 114.961 31.1831C114.82 31.007 114.679 30.7958 114.609 30.5493C114.538 30.3028 114.503 29.9859 114.503 29.6338V26.7465H113.834C113.764 26.7465 113.693 26.7112 113.658 26.6056L113.588 26.1127V25.7958L113.623 25.5845L113.693 25.4789L113.799 25.4436H114.468V24.176L114.503 24.0704L114.644 24L114.891 23.9648H115.665L115.912 24L116.053 24.0704L116.088 24.176V25.4436H117.32L117.426 25.4789L117.496 25.5845L117.531 25.7958V26.1127L117.461 26.6056C117.426 26.7112 117.355 26.7465 117.285 26.7465H116.053V29.4225C116.053 29.7394 116.088 29.9507 116.193 30.1267C116.299 30.2676 116.475 30.3732 116.722 30.3732L116.968 30.338L117.144 30.3028L117.285 30.2676L117.391 30.2324L117.461 30.2676L117.531 30.3732L117.567 30.5493V30.7605ZM124.292 24.8803C124.289 25.5904 124.012 26.2718 123.517 26.7817C123.201 27.0855 122.816 27.309 122.395 27.4335C121.974 27.5579 121.529 27.5797 121.098 27.4969C120.667 27.4141 120.262 27.2293 119.917 26.9578C119.572 26.6863 119.298 26.3361 119.116 25.9366C118.975 25.6197 118.905 25.2676 118.905 24.8803C118.905 24.4929 118.975 24.1408 119.116 23.8239C119.257 23.507 119.433 23.2253 119.679 22.9789C119.996 22.675 120.381 22.4515 120.802 22.3271C121.223 22.2026 121.667 22.1809 122.098 22.2636C122.53 22.3464 122.934 22.5312 123.279 22.8027C123.624 23.0742 123.899 23.4244 124.081 23.8239C124.222 24.1408 124.292 24.4929 124.292 24.8803ZM123.658 24.9155C123.658 24.5986 123.623 24.2817 123.517 24.0352C123.412 23.7535 123.271 23.5422 123.095 23.3662C122.919 23.1901 122.707 23.0141 122.426 22.9436C122.179 22.838 121.898 22.8028 121.616 22.8028C121.334 22.8021 121.055 22.8578 120.795 22.9666C120.535 23.0755 120.299 23.2353 120.102 23.4366C119.726 23.8359 119.524 24.3675 119.538 24.9155C119.538 25.2324 119.574 25.5141 119.679 25.7958C119.785 26.0774 119.926 26.2887 120.102 26.4648C120.278 26.6408 120.489 26.8169 120.771 26.8873C121.017 26.9929 121.299 27.0282 121.581 27.0282C121.863 27.0289 122.142 26.9732 122.402 26.8643C122.662 26.7555 122.897 26.5957 123.095 26.3943C123.47 25.995 123.673 25.4635 123.658 24.9155ZM122.848 26.1479V26.1831L122.813 26.2183H122.32L122.215 26.1831L122.144 26.1479L122.109 26.0774L121.968 25.6197C121.898 25.4436 121.862 25.338 121.757 25.2676C121.686 25.1972 121.581 25.162 121.405 25.162H121.229V26.1127L121.158 26.2183L120.877 26.2535L120.595 26.2183C120.56 26.1831 120.524 26.1831 120.524 26.1127V23.6479L120.595 23.4014C120.63 23.331 120.736 23.331 120.806 23.331H121.581L122.074 23.3662L122.426 23.507C122.531 23.5774 122.602 23.6479 122.637 23.7535L122.708 24.1056C122.708 24.3169 122.637 24.4929 122.531 24.6338C122.426 24.7394 122.25 24.8451 122.038 24.8803L122.355 25.0563C122.461 25.1267 122.531 25.2676 122.602 25.4436L122.778 25.8662L122.848 26.1479ZM122.003 24.2465L121.968 24.1056L121.898 24C121.858 23.9636 121.809 23.9392 121.757 23.9296L121.51 23.8943H121.193V24.669H121.51C121.686 24.669 121.827 24.6338 121.898 24.5634C121.968 24.4577 122.003 24.3873 122.003 24.2465Z" fill="#B81D32"/>
</svg>
