<svg width="192" height="48" viewBox="0 0 192 48" fill="none" xmlns="http://www.w3.org/2000/svg">
<path d="M12.2663 35.4384C12.2388 35.3914 12.2068 35.3472 12.1709 35.3063C12.0955 35.3293 12.0155 35.3325 11.9384 35.3159C11.8614 35.2992 11.7899 35.263 11.7307 35.2109C11.6411 35.1344 11.5835 35.0271 11.5693 34.9101C11.2978 34.8323 11.0076 34.852 10.749 34.9656C10.4904 35.0792 10.2796 35.2797 10.1533 35.5324C10.0269 35.785 9.99291 36.0739 10.0571 36.349C10.1213 36.6241 10.2797 36.868 10.5048 37.0387C10.7299 37.2093 11.0076 37.2958 11.2898 37.2832C11.572 37.2707 11.8409 37.1598 12.05 36.9699C12.2591 36.78 12.3952 36.5229 12.4347 36.2432C12.4742 35.9635 12.4146 35.6788 12.2663 35.4384Z" fill="#FFB81C"/>
<path d="M36.4336 21.6232C36.5679 21.542 36.675 21.4228 36.7414 21.2806C36.8078 21.1385 36.8305 20.9798 36.8066 20.8247C36.7828 20.6697 36.7134 20.5252 36.6073 20.4096C36.5012 20.2939 36.3632 20.2124 36.2108 20.1754C36.0583 20.1383 35.8983 20.1473 35.7509 20.2012C35.6036 20.2552 35.4756 20.3517 35.3832 20.4785C35.2908 20.6053 35.2381 20.7567 35.2317 20.9134C35.2254 21.0702 35.2658 21.2253 35.3478 21.3591C35.4012 21.4483 35.4719 21.5259 35.5556 21.5876C35.6393 21.6492 35.7345 21.6936 35.8355 21.7182C35.9365 21.7427 36.0414 21.747 36.1441 21.7307C36.2467 21.7144 36.3452 21.6779 36.4336 21.6232Z" fill="#FFB81C"/>
<path d="M34.7241 19.1141C34.8716 18.9645 34.9542 18.7628 34.9542 18.5528C34.9542 18.3428 34.8716 18.1412 34.7241 17.9915C34.6524 17.9159 34.5664 17.8552 34.4711 17.8128C34.3759 17.7703 34.2732 17.7471 34.169 17.7444C34.0647 17.7417 33.961 17.7595 33.8636 17.7969C33.7663 17.8342 33.6773 17.8904 33.6016 17.9622C33.526 18.034 33.4652 18.12 33.4228 18.2152C33.3804 18.3105 33.3572 18.4131 33.3545 18.5174C33.3517 18.6216 33.3696 18.7254 33.4069 18.8227C33.4443 18.9201 33.5005 19.0091 33.5723 19.0847C33.6449 19.1641 33.7328 19.228 33.8307 19.2726C33.9285 19.3172 34.0344 19.3417 34.142 19.3444C34.2495 19.3471 34.3565 19.3281 34.4565 19.2886C34.5566 19.249 34.6476 19.1896 34.7241 19.1141Z" fill="#FFB81C"/>
<path d="M32.6845 17.1185C32.8123 16.9043 32.8538 16.6496 32.8008 16.4059C32.7478 16.1622 32.6042 15.9478 32.399 15.806C32.1938 15.6643 31.9425 15.6058 31.6958 15.6424C31.4491 15.679 31.2256 15.808 31.0704 16.0033C30.9867 16.1087 30.9255 16.2302 30.8906 16.3602C30.8557 16.4903 30.8479 16.6261 30.8677 16.7593C30.8875 16.8924 30.9344 17.0201 31.0056 17.1344C31.0767 17.2487 31.1706 17.3472 31.2813 17.4237C31.3921 17.5002 31.5174 17.5532 31.6495 17.5793C31.7816 17.6054 31.9176 17.6041 32.0492 17.5755C32.1807 17.5469 32.305 17.4916 32.4143 17.413C32.5236 17.3343 32.6156 17.2341 32.6845 17.1185Z" fill="#FFB81C"/>
<path d="M18.62 40.5081C18.3919 40.4117 18.1431 40.3746 17.8968 40.4002C17.6505 40.4259 17.4146 40.5135 17.2113 40.6548C17.2525 40.3216 17.2018 39.9835 17.0647 39.677C16.9277 39.3706 16.7094 39.1074 16.4336 38.916C16.1567 38.7274 15.834 38.617 15.4996 38.5963C15.1652 38.5757 14.8314 38.6455 14.5334 38.7986C14.6058 38.4791 14.5691 38.1445 14.4293 37.8483C14.2895 37.552 14.0546 37.311 13.7619 37.1637C13.4693 37.0165 13.1358 36.9714 12.8145 37.0356C12.4933 37.0998 12.2028 37.2697 11.9893 37.5182C11.7758 37.7667 11.6516 38.0795 11.6365 38.4068C11.6214 38.734 11.7162 39.0569 11.9059 39.324C12.0956 39.5912 12.3692 39.7871 12.6831 39.8807C12.9971 39.9743 13.3333 39.9601 13.6383 39.8404C13.501 40.2232 13.4942 40.6406 13.619 41.0276C13.7438 41.4146 13.9933 41.7495 14.3283 41.9798C14.6634 42.2102 15.0654 42.3232 15.4714 42.3012C15.8775 42.2791 16.2648 42.1233 16.573 41.858C16.5734 42.1228 16.6454 42.3826 16.7814 42.6098C16.9174 42.837 17.1124 43.0232 17.3456 43.1485C17.5788 43.2739 17.8417 43.3338 18.1062 43.322C18.3708 43.3101 18.6271 43.2268 18.8482 43.081C19.0693 42.9352 19.2468 42.7323 19.3619 42.4939C19.4769 42.2554 19.5254 41.9902 19.502 41.7264C19.4786 41.4627 19.3842 41.2101 19.2289 40.9956C19.0737 40.7811 18.8632 40.6127 18.62 40.5081Z" fill="#FFB81C"/>
<path d="M30.3294 15.5631C30.4212 15.3421 30.4453 15.0988 30.3989 14.864C30.3524 14.6293 30.2374 14.4136 30.0684 14.2441C29.8994 14.0747 29.684 13.9592 29.4494 13.9121C29.2147 13.8651 28.9714 13.8886 28.7501 13.9798C28.5289 14.0709 28.3396 14.2256 28.2062 14.4243C28.0729 14.623 28.0014 14.8568 28.0008 15.0961C28.0002 15.3354 28.0705 15.5695 28.2029 15.7688C28.3354 15.9682 28.5239 16.1238 28.7447 16.2161C28.8915 16.2784 29.0492 16.311 29.2087 16.3119C29.3682 16.3128 29.5262 16.2819 29.6737 16.2212C29.8211 16.1604 29.9551 16.0709 30.0676 15.958C30.1802 15.845 30.2692 15.7108 30.3294 15.5631Z" fill="#FFB81C"/>
<path d="M21.1805 41.5866C20.9453 41.5415 20.702 41.5671 20.4814 41.6603C20.2609 41.7535 20.0729 41.91 19.9412 42.1101C19.8096 42.3101 19.7403 42.5447 19.742 42.7842C19.7437 43.0236 19.8164 43.2572 19.9509 43.4553C20.0854 43.6535 20.2756 43.8073 20.4975 43.8973C20.7194 43.9873 20.963 44.0094 21.1975 43.961C21.4321 43.9125 21.6469 43.7956 21.815 43.625C21.983 43.4544 22.0967 43.2378 22.1416 43.0026C22.2018 42.6873 22.1344 42.3611 21.9542 42.0956C21.7739 41.8301 21.4957 41.647 21.1805 41.5866Z" fill="#FFB81C"/>
<path d="M26.5803 12.7751C26.2853 12.7161 25.9793 12.7492 25.7037 12.8699C25.4281 12.9907 25.1963 13.1932 25.0396 13.4501C24.9211 13.0667 24.6807 12.7326 24.3548 12.4984C24.029 12.2643 23.6356 12.1429 23.2345 12.1529C22.8333 12.1629 22.4465 12.3036 22.1326 12.5536C21.8188 12.8037 21.5953 13.1494 21.496 13.5381C21.3275 13.289 21.0865 13.0978 20.8056 12.9901C20.5248 12.8825 20.2177 12.8638 19.9259 12.9365C19.8142 12.9634 19.706 13.0028 19.6031 13.0539C19.6258 13.1753 19.6211 13.3002 19.5894 13.4195C19.5576 13.5388 19.4997 13.6495 19.4197 13.7436C19.3452 13.831 19.2531 13.9017 19.1495 13.951C19.0458 14.0003 18.9328 14.0271 18.8181 14.0297C18.7584 14.2706 18.7584 14.5225 18.8181 14.7634C18.8602 14.9559 18.9406 15.1379 19.0546 15.2987C19.1686 15.4594 19.3139 15.5955 19.4816 15.6989C19.6494 15.8023 19.8362 15.8708 20.031 15.9005C20.2259 15.9301 20.4247 15.9201 20.6156 15.8712C20.8556 15.8119 21.0775 15.6947 21.2617 15.5296C21.4459 15.3646 21.5868 15.1569 21.672 14.9248C21.834 15.2182 22.0739 15.4611 22.3652 15.6268C22.6565 15.7925 22.9879 15.8746 23.3228 15.8639C23.6597 15.855 23.9876 15.7538 24.2709 15.5714C24.5542 15.389 24.782 15.1323 24.9296 14.8294C25.0353 15.055 25.1967 15.2499 25.3986 15.3959C25.6005 15.5418 25.8362 15.6339 26.0836 15.6636C26.3309 15.6932 26.5817 15.6594 26.8124 15.5653C27.0431 15.4713 27.246 15.32 27.402 15.1258C27.5581 14.9316 27.6621 14.7009 27.7043 14.4554C27.7466 14.2099 27.7256 13.9576 27.6434 13.7225C27.5612 13.4873 27.4205 13.2769 27.2345 13.1112C27.0485 12.9455 26.8234 12.8298 26.5803 12.7751Z" fill="#FFB81C"/>
<path d="M23.9831 44.0003C24.522 44.0003 24.9589 43.5635 24.9589 43.0246C24.9589 42.4856 24.522 42.0488 23.9831 42.0488C23.4442 42.0488 23.0073 42.4856 23.0073 43.0246C23.0073 43.5635 23.4442 44.0003 23.9831 44.0003Z" fill="#FFB81C"/>
<path d="M26.8078 41.858C26.6553 41.8942 26.5169 41.9749 26.4102 42.0897C26.3036 42.2046 26.2334 42.3485 26.2085 42.5033C26.1836 42.6581 26.2053 42.8167 26.2706 42.9592C26.3359 43.1017 26.4421 43.2216 26.5756 43.3038C26.7091 43.3859 26.8639 43.4266 27.0206 43.4208C27.1772 43.4149 27.3286 43.3627 27.4556 43.2707C27.5825 43.1788 27.6794 43.0513 27.7339 42.9043C27.7883 42.7573 27.798 42.5974 27.7616 42.445C27.7128 42.2407 27.585 42.0642 27.4061 41.9541C27.2273 41.8441 27.0121 41.8095 26.8078 41.858Z" fill="#FFB81C"/>
<path d="M29.8525 42.4156C30.2901 42.4156 30.6449 42.0609 30.6449 41.6232C30.6449 41.1856 30.2901 40.8309 29.8525 40.8309C29.4149 40.8309 29.0602 41.1856 29.0602 41.6232C29.0602 42.0609 29.4149 42.4156 29.8525 42.4156Z" fill="#FFB81C"/>
<path d="M16.4043 16.0767C16.3589 15.9842 16.3353 15.8825 16.3353 15.7795C16.3353 15.6765 16.3589 15.5749 16.4043 15.4824C16.4457 15.4058 16.5018 15.3381 16.5694 15.2832C16.637 15.2283 16.7147 15.1872 16.7982 15.1623C16.8816 15.1375 16.9692 15.1293 17.0558 15.1383C17.1424 15.1472 17.2264 15.1732 17.303 15.2146C17.3796 15.256 17.4473 15.3121 17.5022 15.3797C17.5571 15.4473 17.5982 15.525 17.623 15.6085C17.6479 15.692 17.6561 15.7795 17.6471 15.8661C17.6382 15.9527 17.6122 16.0367 17.5708 16.1133C17.4938 16.2603 17.3637 16.3724 17.207 16.4269C17.0503 16.4814 16.8787 16.4742 16.7271 16.4068C16.9725 16.5658 17.2672 16.6306 17.5567 16.5892C17.8461 16.5478 18.1109 16.403 18.3019 16.1816C18.4929 15.9602 18.5973 15.6771 18.5958 15.3847C18.5943 15.0922 18.4871 14.8102 18.2938 14.5908C18.1005 14.3713 17.8344 14.2292 17.5445 14.1908C17.2546 14.1523 16.9606 14.2201 16.7168 14.3816C16.473 14.5431 16.2959 14.7873 16.2182 15.0692C16.1405 15.3512 16.1675 15.6517 16.2942 15.9152C16.3279 15.9711 16.3646 16.0249 16.4043 16.0767Z" fill="#FFB81C"/>
<path d="M33.4121 40.1725C33.4835 39.6383 33.1083 39.1474 32.5742 39.0761C32.04 39.0047 31.5491 39.3799 31.4778 39.914C31.4064 40.4482 31.7816 40.9391 32.3157 41.0104C32.8499 41.0818 33.3408 40.7066 33.4121 40.1725Z" fill="#FFB81C"/>
<path d="M15.5647 17.5978C15.9059 17.1807 15.8443 16.5659 15.4272 16.2247C15.01 15.8835 14.3953 15.9451 14.0541 16.3622C13.7129 16.7794 13.7745 17.3942 14.1916 17.7353C14.6088 18.0765 15.2235 18.015 15.5647 17.5978Z" fill="#FFB81C"/>
<path d="M35.4358 37.0378C35.2487 36.8801 35.0184 36.7825 34.775 36.7577C34.5316 36.7328 34.2863 36.7818 34.0712 36.8984C34.2217 36.9745 34.3451 37.095 34.4247 37.2437C34.5044 37.3923 34.5363 37.5618 34.5163 37.7293C34.4963 37.8967 34.4252 38.0539 34.3128 38.1796C34.2003 38.3053 34.0519 38.3933 33.8878 38.4318C33.7742 38.4573 33.6564 38.4573 33.5429 38.4318C33.614 38.6021 33.7246 38.753 33.8657 38.872C34.1113 39.0686 34.4238 39.1619 34.737 39.1322C35.0502 39.1024 35.3395 38.9519 35.5436 38.7124C35.7478 38.473 35.8507 38.1636 35.8305 37.8496C35.8104 37.5356 35.6688 37.2418 35.4358 37.0304V37.0378Z" fill="#FFB81C"/>
<path d="M13.2128 19.5763C13.3499 19.4167 13.4181 19.2092 13.4023 18.9994C13.3865 18.7896 13.288 18.5946 13.1284 18.4574C12.9688 18.3203 12.7613 18.2521 12.5515 18.2679C12.3417 18.2837 12.1467 18.3822 12.0095 18.5418C11.9416 18.6208 11.8899 18.7124 11.8574 18.8114C11.8249 18.9104 11.8122 19.0148 11.82 19.1187C11.8278 19.2226 11.8561 19.3239 11.9031 19.4169C11.9501 19.5099 12.0149 19.5927 12.0939 19.6607C12.1729 19.7286 12.2645 19.7803 12.3635 19.8128C12.4625 19.8453 12.5669 19.858 12.6708 19.8502C12.7747 19.8424 12.876 19.8141 12.969 19.7671C13.062 19.7201 13.1448 19.6553 13.2128 19.5763Z" fill="#FFB81C"/>
<path d="M10.5789 22.1221C10.6909 22.1837 10.8188 22.2107 10.9461 22.1995C11.0735 22.1884 11.1948 22.1397 11.2944 22.0596C11.3941 21.9794 11.4677 21.8715 11.506 21.7495C11.5442 21.6275 11.5454 21.4969 11.5093 21.3742C11.4732 21.2515 11.4015 21.1423 11.3033 21.0604C11.2051 20.9786 11.0847 20.9277 10.9576 20.9143C10.8304 20.9009 10.7021 20.9255 10.589 20.9851C10.4758 21.0447 10.3829 21.1366 10.3221 21.2491C10.2809 21.3231 10.2549 21.4046 10.2455 21.4888C10.2362 21.5729 10.2437 21.6581 10.2676 21.7394C10.2915 21.8207 10.3313 21.8964 10.3847 21.9621C10.4382 22.0278 10.5042 22.0822 10.5789 22.1221Z" fill="#FFB81C"/>
<path d="M9.57374 24.8588C9.6726 24.888 9.77792 24.8873 9.87636 24.8566C9.97481 24.826 10.0619 24.7668 10.1267 24.6866C10.1915 24.6064 10.2311 24.5088 10.2404 24.4061C10.2496 24.3035 10.2282 24.2003 10.1789 24.1098C10.1295 24.0193 10.0544 23.9455 9.96302 23.8977C9.87167 23.8499 9.76818 23.8303 9.66568 23.8414C9.56317 23.8524 9.46625 23.8936 9.3872 23.9598C9.30814 24.026 9.2505 24.1142 9.22157 24.2131C9.1829 24.3454 9.19825 24.4877 9.26426 24.6087C9.33027 24.7297 9.44155 24.8196 9.57374 24.8588Z" fill="#FFB81C"/>
<path d="M39.5664 29.7964C39.5985 29.4072 39.4747 29.0212 39.2222 28.7234C38.9697 28.4255 38.6093 28.2401 38.2201 28.208C37.8309 28.1759 37.445 28.2997 37.1471 28.5522C36.8492 28.8046 36.6638 29.1651 36.6317 29.5543C36.6135 29.801 36.6562 30.0485 36.7559 30.2749C36.8557 30.5013 37.0096 30.6998 37.204 30.8529C36.9124 30.9105 36.6392 31.0381 36.4079 31.2247C36.1765 31.4113 35.994 31.6513 35.876 31.924C36.0052 31.8735 36.1446 31.8541 36.2827 31.8677C36.4208 31.8812 36.5537 31.9271 36.6707 32.0018C36.7876 32.0765 36.8853 32.1777 36.9557 32.2973C37.0261 32.4169 37.0672 32.5514 37.0757 32.6899C37.0842 32.8284 37.0598 32.967 37.0046 33.0943C36.9494 33.2216 36.8649 33.334 36.7579 33.4224C36.651 33.5108 36.5246 33.5727 36.3892 33.603C36.2538 33.6333 36.1132 33.6312 35.9787 33.5968C36.0575 33.7354 36.1564 33.8615 36.2722 33.971C36.0488 33.9902 35.8328 34.0604 35.6407 34.1762C35.4487 34.2919 35.2857 34.4501 35.1643 34.6386C35.1977 34.8067 35.1918 34.9801 35.1473 35.1455C35.1028 35.3109 35.0207 35.4638 34.9076 35.5924C34.9293 35.8402 35.0117 36.0788 35.1473 36.2874C35.2829 36.4959 35.4676 36.6679 35.6853 36.7883L35.9127 36.891C35.8746 36.7836 35.8592 36.6695 35.8675 36.5558C35.8759 36.4422 35.9078 36.3315 35.9612 36.2308C36.0146 36.1301 36.0884 36.0417 36.1779 35.9711C36.2673 35.9004 36.3705 35.8492 36.4808 35.8206C36.5911 35.792 36.7062 35.7867 36.8187 35.8049C36.9312 35.8232 37.0387 35.8646 37.1343 35.9267C37.2299 35.9887 37.3115 36.0699 37.3741 36.1652C37.4366 36.2605 37.4786 36.3678 37.4974 36.4802C37.5782 36.3915 37.6472 36.2929 37.7029 36.1867C37.8505 35.9249 37.9142 35.6241 37.8854 35.3249C37.8565 35.0257 37.7364 34.7427 37.5415 34.5139C37.9421 34.5129 38.3315 34.3813 38.6506 34.139C38.9697 33.8967 39.2011 33.557 39.3096 33.1713C39.4212 32.7865 39.4058 32.3761 39.2657 32.0007C39.1256 31.6254 38.8683 31.3052 38.5319 31.0877C38.8142 31.0014 39.064 30.8321 39.2485 30.6017C39.4331 30.3714 39.5439 30.0907 39.5664 29.7964ZM38.4952 30.6548C38.3963 30.8143 38.24 30.9298 38.0585 30.9776C37.877 31.0253 37.6841 31.0017 37.5194 30.9116C37.4749 30.8866 37.4331 30.8571 37.3947 30.8235C37.2882 30.7321 37.2102 30.6121 37.1698 30.4776C37.1295 30.3432 37.1286 30.2 37.1672 30.0651C37.2057 29.9301 37.2822 29.8091 37.3876 29.7163C37.4929 29.6235 37.6226 29.5629 37.7614 29.5416C37.9001 29.5203 38.042 29.5393 38.1703 29.5963C38.2986 29.6532 38.4078 29.7458 38.4851 29.863C38.5623 29.9802 38.6044 30.117 38.6062 30.2574C38.608 30.3977 38.5695 30.5357 38.4952 30.6548Z" fill="#FFB81C"/>
<path d="M9.11152 27.9842C9.23932 27.9942 9.3672 27.9659 9.47885 27.9029C9.59051 27.8399 9.6809 27.7452 9.7385 27.6307C9.7961 27.5161 9.81831 27.3871 9.8023 27.2599C9.78629 27.1327 9.73277 27.0132 9.64858 26.9165C9.56439 26.8198 9.45333 26.7504 9.32955 26.7171C9.20577 26.6838 9.07487 26.688 8.95353 26.7294C8.83219 26.7707 8.7259 26.8472 8.6482 26.9492C8.5705 27.0512 8.52492 27.1739 8.51724 27.3019C8.51126 27.3858 8.5219 27.47 8.54856 27.5497C8.57522 27.6295 8.61737 27.7031 8.67259 27.7665C8.72782 27.8299 8.79502 27.8818 8.87034 27.9192C8.94567 27.9565 9.02763 27.9786 9.11152 27.9842Z" fill="#FFB81C"/>
<path d="M37.8716 25.4457C37.7146 25.4659 37.563 25.5169 37.4257 25.5957C37.2883 25.6745 37.1679 25.7796 37.0711 25.9049C36.9744 26.0303 36.9033 26.1734 36.8619 26.3263C36.8205 26.4791 36.8096 26.6386 36.8298 26.7957C36.85 26.9527 36.901 27.1042 36.9798 27.2416C37.0586 27.3789 37.1637 27.4994 37.289 27.5962C37.4144 27.6929 37.5575 27.764 37.7104 27.8054C37.8632 27.8468 38.0227 27.8577 38.1798 27.8375C38.3272 27.825 38.4701 27.7799 38.598 27.7054C38.5653 27.6028 38.5653 27.4926 38.598 27.3899C38.6374 27.2747 38.713 27.1754 38.8134 27.1066C38.9139 27.0379 39.0339 27.0034 39.1555 27.0084C39.2105 26.8406 39.2255 26.6622 39.1996 26.4875C39.1592 26.1743 38.9973 25.8896 38.7489 25.6947C38.5005 25.4998 38.1854 25.4104 37.8716 25.4457Z" fill="#FFB81C"/>
<path d="M9.33896 31.161C9.54061 31.1263 9.72101 31.0149 9.8424 30.8502C9.96379 30.6855 10.0168 30.4802 9.99021 30.2773C9.96366 30.0745 9.85966 29.8897 9.69998 29.7618C9.5403 29.6338 9.33732 29.5726 9.13353 29.591C9.023 29.6045 8.91667 29.6417 8.82173 29.6999C8.7268 29.7581 8.64548 29.8361 8.58327 29.9285C8.6118 29.9596 8.63644 29.9941 8.65664 30.0312C8.72338 30.1416 8.74609 30.2731 8.72026 30.3996C8.69443 30.526 8.62195 30.6381 8.51724 30.7135C8.58987 30.8649 8.70833 30.9896 8.85582 31.07C9.00331 31.1503 9.17235 31.1822 9.33896 31.161Z" fill="#FFB81C"/>
<path d="M37.8956 24.483C38.3334 24.1688 38.4336 23.5591 38.1193 23.1213C37.8051 22.6835 37.1954 22.5833 36.7576 22.8976C36.3198 23.2118 36.2196 23.8215 36.5339 24.2593C36.8481 24.6971 37.4578 24.7973 37.8956 24.483Z" fill="#FFB81C"/>
<path d="M10.8577 33.0026C10.8006 32.842 10.7031 32.699 10.5746 32.5872C10.446 32.4753 10.2909 32.3986 10.124 32.3643C10.1589 32.3844 10.191 32.409 10.2194 32.4376C10.29 32.5257 10.3234 32.638 10.3124 32.7504C10.3015 32.8628 10.247 32.9664 10.1607 33.0392C10.118 33.0749 10.0687 33.1017 10.0156 33.1181C9.96242 33.1345 9.90655 33.1401 9.85121 33.1347C9.79588 33.1292 9.74219 33.1128 9.69328 33.0863C9.64438 33.0598 9.60124 33.0239 9.5664 32.9805C9.5136 32.8951 9.49275 32.7937 9.50752 32.6943C9.52229 32.595 9.57173 32.504 9.6471 32.4376H9.7058H9.61042C9.42869 32.5023 9.27021 32.6194 9.155 32.7741C9.03978 32.9288 8.973 33.1142 8.9631 33.3068C8.9532 33.4995 9.00061 33.6907 9.09936 33.8564C9.1981 34.0221 9.34374 34.1549 9.51788 34.2378C9.69202 34.3208 9.88684 34.3503 10.0777 34.3226C10.2686 34.2949 10.447 34.2112 10.5904 34.0822C10.7338 33.9531 10.8357 33.7845 10.8833 33.5976C10.9308 33.4106 10.9219 33.2138 10.8577 33.0319V33.0026Z" fill="#FFB81C"/>
<path d="M23.0518 5.15921C23.3719 5.15921 23.6314 4.89971 23.6314 4.5796C23.6314 4.2595 23.3719 4 23.0518 4C22.7317 4 22.4722 4.2595 22.4722 4.5796C22.4722 4.89971 22.7317 5.15921 23.0518 5.15921Z" fill="#E87722"/>
<path d="M23.8368 38.3067C23.5697 38.1992 23.34 38.0155 23.1765 37.7784H23.0518C22.8138 37.7783 22.5823 37.8558 22.3923 37.9993C22.2024 38.1427 22.0645 38.3442 21.9995 38.5731C21.9345 38.8021 21.9461 39.046 22.0323 39.2678C22.1186 39.4896 22.2749 39.6772 22.4775 39.8021C22.68 39.927 22.9179 39.9824 23.1548 39.9599C23.3917 39.9373 23.6148 39.838 23.7902 39.6772C23.9656 39.5163 24.0836 39.3025 24.1265 39.0684C24.1693 38.8343 24.1346 38.5926 24.0276 38.38L23.8368 38.3067Z" fill="#E87722"/>
<path d="M20.1758 5.40866C20.2508 5.39626 20.3225 5.36906 20.3868 5.32865C20.4512 5.28823 20.5068 5.23541 20.5505 5.17327C20.5942 5.11112 20.6251 5.04089 20.6414 4.96668C20.6577 4.89246 20.659 4.81575 20.6453 4.74101C20.6076 4.60151 20.5191 4.48115 20.3972 4.40353C20.2753 4.32591 20.1288 4.29662 19.9864 4.32142C19.844 4.34623 19.7161 4.42332 19.6276 4.53759C19.5391 4.65186 19.4965 4.79506 19.5081 4.9391C19.5205 5.01407 19.5477 5.08581 19.5882 5.15015C19.6286 5.21448 19.6814 5.27013 19.7435 5.31384C19.8057 5.35755 19.8759 5.38844 19.9501 5.40472C20.0243 5.421 20.1011 5.42234 20.1758 5.40866Z" fill="#E87722"/>
<path d="M26.2139 37.573C26.2331 37.4804 26.2601 37.3896 26.2946 37.3015C26.1753 37.2868 26.0545 37.2868 25.9351 37.3015C25.9351 37.3749 25.8911 37.4483 25.8618 37.5216C25.7611 37.7623 25.6015 37.9738 25.3976 38.1366C25.1938 38.2995 24.9522 38.4084 24.6952 38.4534C24.6733 38.5944 24.6733 38.7379 24.6952 38.8789C24.7579 39.231 24.9576 39.5438 25.2505 39.7487C25.5435 39.9537 25.9058 40.034 26.258 39.9721C26.5024 39.9303 26.7302 39.8208 26.9157 39.6561C27.1011 39.4914 27.2367 39.2781 27.3071 39.0404H27.2117C27.0499 39.0095 26.8957 38.9471 26.7579 38.8567C26.6201 38.7663 26.5016 38.6496 26.4089 38.5134C26.3162 38.3771 26.2513 38.2239 26.2179 38.0626C26.1844 37.9012 26.1831 37.7349 26.2139 37.573Z" fill="#E87722"/>
<path d="M17.1897 6.33309C17.5868 6.33309 17.9087 6.01118 17.9087 5.61409C17.9087 5.21699 17.5868 4.89508 17.1897 4.89508C16.7926 4.89508 16.4707 5.21699 16.4707 5.61409C16.4707 6.01118 16.7926 6.33309 17.1897 6.33309Z" fill="#E87722"/>
<path d="M14.0423 6.11299C13.8915 6.20007 13.77 6.32988 13.693 6.48602C13.616 6.64216 13.5871 6.81762 13.6098 6.99022C13.6325 7.16282 13.7059 7.32481 13.8206 7.45572C13.9354 7.58662 14.0864 7.68057 14.2545 7.72568C14.4227 7.77079 14.6004 7.76504 14.7653 7.70916C14.9301 7.65328 15.0747 7.54977 15.1808 7.41172C15.2869 7.27367 15.3496 7.10728 15.3611 6.93357C15.3726 6.75986 15.3324 6.58664 15.2455 6.4358C15.1884 6.33483 15.1118 6.24623 15.0202 6.17519C14.9285 6.10414 14.8236 6.05207 14.7116 6.02202C14.5996 5.99197 14.4827 5.98453 14.3678 6.00015C14.2529 6.01577 14.1422 6.05413 14.0423 6.11299Z" fill="#E87722"/>
<path d="M30.9535 35.372C30.6883 35.5235 30.4828 35.7609 30.3708 36.045C30.2587 36.3292 30.2469 36.643 30.3372 36.9347C30.1435 36.5996 29.8387 36.3428 29.4756 36.2088C29.1124 36.0748 28.7139 36.072 28.3489 36.201C28.1525 36.2723 27.9709 36.3792 27.8134 36.5165C28.0771 36.5972 28.3068 36.7626 28.4671 36.987C28.6274 37.2114 28.7093 37.4823 28.7001 37.758C28.6909 38.0336 28.5912 38.2985 28.4163 38.5118C28.2414 38.725 28.0012 38.8747 27.7327 38.9376C27.8922 39.097 28.0823 39.2225 28.2916 39.3066C28.5009 39.3906 28.725 39.4314 28.9505 39.4266C29.176 39.4218 29.3982 39.3715 29.6037 39.2786C29.8092 39.1858 29.9938 39.0523 30.1464 38.8863C29.9542 38.7963 29.7951 38.6481 29.6917 38.4627C29.5882 38.2774 29.5456 38.0642 29.57 37.8533C29.5943 37.6424 29.6843 37.4445 29.8273 37.2876C29.9702 37.1306 30.1589 37.0226 30.3666 36.9787H30.5426C30.795 36.9717 31.0407 37.0599 31.231 37.2257C31.4213 37.3915 31.5422 37.6229 31.5698 37.8738C31.8271 37.8864 32.0823 37.8226 32.3035 37.6904C32.4637 37.606 32.6053 37.4901 32.7196 37.3495C32.8339 37.209 32.9186 37.0468 32.9685 36.8727C33.0185 36.6986 33.0327 36.5162 33.0103 36.3364C32.9879 36.1567 32.9294 35.9833 32.8383 35.8268C32.7471 35.6702 32.6252 35.5337 32.4799 35.4255C32.3347 35.3173 32.169 35.2397 31.9929 35.1972C31.8168 35.1547 31.634 35.1483 31.4553 35.1783C31.2767 35.2084 31.106 35.2742 30.9535 35.372Z" fill="#E87722"/>
<path d="M11.335 7.75642C11.1686 7.89515 11.0472 8.08018 10.9862 8.28803C10.9251 8.49588 10.9272 8.71718 10.9922 8.92383C11.0572 9.13049 11.1821 9.31319 11.351 9.44874C11.52 9.58429 11.7254 9.66658 11.9413 9.68517C12.1571 9.70376 12.3736 9.65781 12.5632 9.55314C12.7529 9.44848 12.9072 9.28982 13.0065 9.09732C13.1059 8.90481 13.1458 8.68713 13.1212 8.4719C13.0966 8.25668 13.0086 8.05361 12.8684 7.88848C12.6818 7.66876 12.416 7.53162 12.1289 7.50688C11.8417 7.48215 11.5564 7.57184 11.335 7.75642Z" fill="#E87722"/>
<path d="M34.908 34.1541C34.7693 33.9877 34.5842 33.8663 34.3764 33.8053C34.1685 33.7442 33.9472 33.7463 33.7406 33.8113C33.5339 33.8762 33.3512 34.0011 33.2157 34.1701C33.0801 34.3391 32.9978 34.5445 32.9793 34.7603C32.9607 34.9762 33.0066 35.1926 33.1113 35.3823C33.2159 35.572 33.3746 35.7263 33.5671 35.8256C33.7596 35.9249 33.9773 35.9648 34.1925 35.9402C34.4077 35.9157 34.6108 35.8277 34.7759 35.6875C34.8179 35.6565 34.855 35.6194 34.886 35.5774C35.0009 35.4524 35.0857 35.3029 35.134 35.1401C35.1823 34.9774 35.1929 34.8057 35.1648 34.6383C35.1217 34.4577 35.0333 34.2911 34.908 34.1541Z" fill="#E87722"/>
<path d="M10.7847 9.69332C10.5134 9.48739 10.1742 9.39164 9.83526 9.42529C9.49629 9.45894 9.18256 9.61949 8.957 9.87476C8.73144 10.13 8.61072 10.4611 8.61905 10.8017C8.62738 11.1422 8.76414 11.467 9.00191 11.7109C8.62154 11.5185 8.18188 11.4793 7.77345 11.6013C7.36502 11.7233 7.01892 11.9973 6.80642 12.3668C6.59393 12.7363 6.5312 13.1733 6.63117 13.5877C6.73114 14.002 6.98619 14.3623 7.34381 14.5943C7.02156 14.4988 6.67509 14.529 6.37426 14.6789C6.07343 14.8288 5.84063 15.0872 5.7228 15.4019C5.60497 15.7167 5.61088 16.0644 5.73933 16.375C5.86779 16.6856 6.10923 16.9359 6.41498 17.0755C6.72073 17.2151 7.06803 17.2336 7.38684 17.1272C7.70566 17.0208 7.97227 16.7974 8.13292 16.5022C8.29356 16.207 8.33628 15.8618 8.25247 15.5363C8.16866 15.2109 7.96455 14.9293 7.6813 14.7484C8.05128 14.8852 8.45784 14.8863 8.82856 14.7515C9.19928 14.6166 9.51009 14.3545 9.70562 14.0119C9.90116 13.6692 9.96872 13.2683 9.89628 12.8805C9.82384 12.4928 9.6161 12.1433 9.31006 11.8944C9.59927 12.0219 9.92419 12.0433 10.2276 11.9548C10.5311 11.8663 10.7936 11.6736 10.9689 11.4106C11.1442 11.1476 11.2211 10.8312 11.1861 10.5171C11.1511 10.2029 11.0064 9.91124 10.7774 9.69332H10.7847Z" fill="#E87722"/>
<path d="M35.8544 31.9237C35.7196 31.9751 35.6007 32.0612 35.5096 32.1731C35.3594 32.3534 35.2867 32.5858 35.3073 32.8195C35.3279 33.0532 35.4402 33.2692 35.6197 33.4204C35.7197 33.5004 35.8343 33.5602 35.9572 33.5965C36.0936 33.635 36.2373 33.6403 36.3762 33.6119C36.5151 33.5835 36.6451 33.5222 36.7555 33.4333C36.8659 33.3443 36.9533 33.2302 37.0106 33.1005C37.0678 32.9707 37.0931 32.8292 37.0844 32.6877C37.0757 32.5462 37.0333 32.4088 36.9606 32.2871C36.888 32.1654 36.7872 32.0628 36.6668 31.988C36.5463 31.9132 36.4098 31.8683 36.2684 31.8571C36.1271 31.846 35.9851 31.8688 35.8544 31.9237Z" fill="#E87722"/>
<path d="M38.2609 29.6713C38.1087 29.6071 37.9393 29.596 37.7801 29.64C37.6209 29.684 37.4812 29.7804 37.3836 29.9137C37.286 30.0469 37.2362 30.2092 37.2423 30.3743C37.2484 30.5393 37.31 30.6975 37.4172 30.8232C37.4556 30.8568 37.4974 30.8863 37.5419 30.9112C37.7065 31.0014 37.8994 31.025 38.0809 30.9772C38.2625 30.9294 38.4188 30.8139 38.5177 30.6544C38.61 30.4891 38.6349 30.2945 38.587 30.1112C38.5392 29.928 38.4223 29.7704 38.2609 29.6713Z" fill="#E87722"/>
<path d="M39.3614 27.0374C39.3007 27.0269 39.2387 27.0269 39.178 27.0374C39.0564 27.0324 38.9364 27.0669 38.8359 27.1356C38.7354 27.2044 38.6598 27.3037 38.6204 27.4189C38.5878 27.5216 38.5878 27.6318 38.6204 27.7344C38.6391 27.8312 38.6828 27.9214 38.7472 27.996C38.8115 28.0707 38.8943 28.1272 38.9872 28.1599C39.1303 28.2098 39.2873 28.2016 39.4244 28.1371C39.5615 28.0727 39.668 27.9571 39.7209 27.8151C39.7511 27.7407 39.7657 27.6609 39.7637 27.5806C39.7618 27.5003 39.7434 27.4212 39.7097 27.3483C39.676 27.2754 39.6277 27.2102 39.5678 27.1568C39.5079 27.1033 39.4377 27.0627 39.3614 27.0374Z" fill="#E87722"/>
<path d="M5.97917 19.818C6.12302 19.8499 6.27186 19.8522 6.41662 19.8248C6.56138 19.7973 6.69904 19.7407 6.82122 19.6583C6.94339 19.5759 7.04753 19.4696 7.12728 19.3457C7.20703 19.2218 7.26073 19.083 7.28511 18.9376C7.33426 18.6518 7.26858 18.3581 7.10234 18.1204C6.93609 17.8827 6.68274 17.7203 6.39736 17.6684C6.25255 17.6365 6.10276 17.6344 5.95711 17.6623C5.81146 17.6901 5.673 17.7473 5.55015 17.8303C5.4273 17.9134 5.32263 18.0205 5.24251 18.1453C5.16238 18.2701 5.10848 18.4099 5.08408 18.5561C5.05784 18.698 5.06033 18.8437 5.09139 18.9845C5.12245 19.1254 5.18145 19.2586 5.26491 19.3763C5.34837 19.4939 5.45459 19.5937 5.57727 19.6695C5.69996 19.7454 5.83662 19.7959 5.97917 19.818Z" fill="#E87722"/>
<path d="M40.0364 24.1247C39.884 24.1011 39.7284 24.1376 39.6024 24.2266C39.4765 24.3156 39.3901 24.4501 39.3614 24.6016C39.3488 24.6768 39.3512 24.7537 39.3683 24.8279C39.3855 24.9022 39.4171 24.9723 39.4614 25.0343C39.5057 25.0964 39.5618 25.149 39.6265 25.1893C39.6911 25.2296 39.7631 25.2568 39.8383 25.2693C39.913 25.2829 39.9898 25.2816 40.064 25.2653C40.1382 25.249 40.2084 25.2181 40.2706 25.1744C40.3327 25.1307 40.3855 25.0751 40.4259 25.0107C40.4664 24.9464 40.4936 24.8747 40.5059 24.7997C40.5197 24.7245 40.5184 24.6474 40.5022 24.5727C40.486 24.498 40.4552 24.4273 40.4116 24.3645C40.3679 24.3018 40.3123 24.2483 40.2479 24.2072C40.1836 24.166 40.1117 24.138 40.0364 24.1247Z" fill="#E87722"/>
<path d="M5.91314 22.6134C6.40343 22.6134 6.80089 22.2159 6.80089 21.7256C6.80089 21.2353 6.40343 20.8379 5.91314 20.8379C5.42285 20.8379 5.02539 21.2353 5.02539 21.7256C5.02539 22.2159 5.42285 22.6134 5.91314 22.6134Z" fill="#E87722"/>
<path d="M40.1978 22.4446C40.5949 22.4446 40.9168 22.1227 40.9168 21.7256C40.9168 21.3285 40.5949 21.0066 40.1978 21.0066C39.8007 21.0066 39.4788 21.3285 39.4788 21.7256C39.4788 22.1227 39.8007 22.4446 40.1978 22.4446Z" fill="#E87722"/>
<path d="M6.87425 24.5723C6.85226 24.4273 6.78733 24.2922 6.68782 24.1845C6.58831 24.0767 6.4588 24.0013 6.316 23.9679C6.1732 23.9345 6.02367 23.9446 5.88669 23.997C5.74972 24.0494 5.6316 24.1417 5.54757 24.2619C5.46354 24.3821 5.41746 24.5247 5.41528 24.6713C5.41309 24.818 5.45491 24.9619 5.53532 25.0846C5.61573 25.2072 5.73105 25.3029 5.8664 25.3594C6.00175 25.4159 6.15092 25.4305 6.29465 25.4013C6.47919 25.3639 6.64228 25.257 6.75017 25.1027C6.85806 24.9483 6.90249 24.7584 6.87425 24.5723Z" fill="#E87722"/>
<path d="M39.7796 17.8738C39.6093 17.9046 39.4518 17.985 39.3269 18.1048C39.202 18.2246 39.1152 18.3786 39.0773 18.5475C39.0394 18.7164 39.0522 18.8927 39.114 19.0544C39.1758 19.2161 39.2838 19.356 39.4247 19.4566C39.5655 19.5572 39.7329 19.614 39.9059 19.62C40.0789 19.626 40.2498 19.5809 40.3973 19.4903C40.5447 19.3997 40.6622 19.2676 40.7351 19.1106C40.8079 18.9536 40.8328 18.7786 40.8068 18.6075C40.789 18.4912 40.7482 18.3796 40.6866 18.2793C40.625 18.179 40.5439 18.0921 40.4481 18.0237C40.3524 17.9553 40.2439 17.9068 40.1291 17.8811C40.0142 17.8553 39.8954 17.8529 39.7796 17.8738Z" fill="#E87722"/>
<path d="M6.74953 27.0374C6.60456 27.09 6.48641 27.1979 6.42105 27.3376C6.3557 27.4772 6.3485 27.6371 6.40103 27.7821C6.45357 27.9271 6.56154 28.0452 6.7012 28.1106C6.84085 28.1759 7.00075 28.1831 7.14571 28.1306C7.29068 28.0781 7.40883 27.9701 7.47419 27.8304C7.53955 27.6908 7.54675 27.5309 7.49421 27.3859C7.44167 27.241 7.3337 27.1228 7.19405 27.0574C7.05439 26.9921 6.89449 26.9849 6.74953 27.0374Z" fill="#E87722"/>
<path d="M38.7891 14.8291C38.586 14.9036 38.4095 15.0367 38.2821 15.2117C38.1547 15.3866 38.0821 15.5953 38.0734 15.8116C38.0647 16.0278 38.1204 16.2417 38.2335 16.4263C38.3465 16.6108 38.5117 16.7576 38.7083 16.8482C38.9048 16.9387 39.1238 16.9689 39.3375 16.9349C39.5512 16.9009 39.75 16.8043 39.9087 16.6572C40.0675 16.5101 40.179 16.3192 40.2291 16.1087C40.2793 15.8982 40.2658 15.6775 40.1905 15.4747C40.1414 15.3399 40.0661 15.2161 39.969 15.1105C39.8718 15.005 39.7547 14.9197 39.6244 14.8597C39.4941 14.7997 39.3532 14.766 39.2099 14.7608C39.0665 14.7555 38.9235 14.7787 38.7891 14.8291Z" fill="#E87722"/>
<path d="M8.58372 29.9281C8.50129 29.8462 8.39443 29.7932 8.27929 29.7774C8.16414 29.7615 8.04696 29.7835 7.94542 29.8401C7.88394 29.8749 7.83009 29.9218 7.78705 29.9779C7.74402 30.034 7.71268 30.0981 7.69489 30.1666C7.6771 30.235 7.67323 30.3063 7.68349 30.3762C7.69376 30.4461 7.71796 30.5133 7.75466 30.5737C7.7888 30.636 7.83529 30.6906 7.8913 30.7342C7.9473 30.7779 8.01163 30.8096 8.08034 30.8274C8.14905 30.8453 8.22068 30.8489 8.29084 30.8381C8.361 30.8273 8.42821 30.8022 8.48834 30.7645H8.5397C8.6444 30.6891 8.71688 30.577 8.74271 30.4506C8.76854 30.3241 8.74583 30.1926 8.6791 30.0822C8.65655 30.0256 8.62427 29.9735 8.58372 29.9281Z" fill="#E87722"/>
<path d="M10.1171 32.3639C10.054 32.3299 9.98339 32.3121 9.91167 32.3121C9.83996 32.3121 9.76937 32.3299 9.70624 32.3639H9.64755C9.56279 32.4365 9.50992 32.5394 9.50031 32.6505C9.49071 32.7617 9.52514 32.8722 9.59619 32.9582C9.63103 33.0015 9.67417 33.0375 9.72307 33.0639C9.77198 33.0904 9.82567 33.1068 9.881 33.1123C9.93634 33.1178 9.99221 33.1122 10.0453 33.0958C10.0985 33.0794 10.1478 33.0526 10.1905 33.0169C10.2663 32.9411 10.3112 32.8398 10.3167 32.7327C10.3221 32.6256 10.2876 32.5204 10.2198 32.4373C10.1892 32.4082 10.1546 32.3835 10.1171 32.3639Z" fill="#E87722"/>
<path d="M34.8787 9.69332C34.643 9.99427 34.5181 10.3671 34.5248 10.7493C34.5315 11.1314 34.6694 11.4996 34.9155 11.7921C35.1615 12.0846 35.5007 12.2836 35.876 12.3557C36.2514 12.4277 36.6401 12.3684 36.977 12.1878C36.7221 12.4214 36.5655 12.743 36.5386 13.0876C36.5117 13.4323 36.6166 13.7743 36.8321 14.0445C37.0476 14.3148 37.3577 14.4932 37.6996 14.5438C38.0416 14.5943 38.39 14.5131 38.6745 14.3167C38.9589 14.1203 39.1582 13.8233 39.2322 13.4856C39.3061 13.1479 39.2491 12.7947 39.0727 12.4975C38.8963 12.2002 38.6137 11.9809 38.2819 11.8839C37.9501 11.787 37.5938 11.8195 37.2851 11.9751C37.5641 11.728 37.7526 11.3949 37.8207 11.0286C37.7268 10.7931 37.7268 10.5305 37.8207 10.2949C37.7607 10.0517 37.6452 9.82571 37.4832 9.63463C37.4118 9.54733 37.3306 9.46855 37.2411 9.39985C37.2257 9.46792 37.2036 9.53428 37.1751 9.59795C37.0837 9.82035 36.93 10.0116 36.7324 10.1487C36.5349 10.2857 36.3019 10.3628 36.0616 10.3705C35.8213 10.3783 35.5838 10.3164 35.3779 10.1924C35.1719 10.0683 35.0062 9.88737 34.9007 9.67131L34.8787 9.69332Z" fill="#E87722"/>
<path d="M11.6872 34.5503C11.6069 34.6519 11.57 34.7811 11.5845 34.9098C11.5986 35.0267 11.6562 35.1341 11.7459 35.2106C11.805 35.2627 11.8765 35.2988 11.9536 35.3155C12.0306 35.3322 12.1106 35.3289 12.1861 35.3059C12.2711 35.2774 12.3471 35.2268 12.4062 35.1592C12.487 35.0635 12.527 34.9398 12.5174 34.8149C12.5078 34.6899 12.4494 34.5738 12.3548 34.4916C12.2574 34.4134 12.1336 34.3758 12.0092 34.3867C11.8848 34.3977 11.7694 34.4563 11.6872 34.5503Z" fill="#E87722"/>
<path d="M34.8787 9.69332C34.8022 9.5316 34.7626 9.35495 34.7626 9.17608C34.7626 8.99721 34.8022 8.82056 34.8787 8.65884C34.9763 8.42657 35.1395 8.22774 35.3482 8.08657C35.2661 7.89013 35.1377 7.71645 34.974 7.58034C34.7662 7.40584 34.5104 7.29841 34.2404 7.27219C34.3801 7.44483 34.4808 7.64578 34.5352 7.86113C34.5897 8.07649 34.5967 8.3011 34.5558 8.51944C34.4877 8.81176 34.3365 9.07813 34.1204 9.28642C33.9043 9.49471 33.6326 9.63603 33.3379 9.69332C33.5645 9.84949 33.8331 9.93312 34.1083 9.93312C34.3835 9.93312 34.6521 9.84949 34.8787 9.69332Z" fill="#E87722"/>
<path d="M14.7759 36.0616C14.6422 35.9866 14.4845 35.9668 14.3364 36.0066C14.1883 36.0463 14.0617 36.1425 13.9836 36.2744C13.9151 36.4061 13.8997 36.5591 13.9407 36.7019C13.9817 36.8446 14.076 36.9661 14.2039 37.0414C14.3319 37.1167 14.4839 37.14 14.6286 37.1065C14.7732 37.073 14.8995 36.9852 14.9814 36.8613C15.0574 36.7274 15.0785 36.5692 15.0402 36.42C15.0019 36.2708 14.9071 36.1423 14.7759 36.0616Z" fill="#E87722"/>
<path d="M31.6725 7.39692C31.7811 7.20813 31.929 7.0449 32.1062 6.91831C32.2835 6.79172 32.4858 6.70473 32.6996 6.66324C32.6699 6.51001 32.6073 6.36505 32.5161 6.23838C32.4249 6.11171 32.3073 6.00635 32.1714 5.92957C31.9297 5.78885 31.6435 5.74542 31.371 5.80811C31.0984 5.87079 30.86 6.03489 30.704 6.26706C30.9334 6.38019 31.1375 6.53864 31.304 6.73283C31.4704 6.92702 31.5958 7.15293 31.6725 7.39692Z" fill="#E87722"/>
<path d="M17.4392 37.1548C17.3028 37.1009 17.1533 37.0891 17.0101 37.121C16.8669 37.1529 16.7366 37.227 16.6359 37.3337C16.5353 37.4404 16.4689 37.5748 16.4454 37.7196C16.4219 37.8644 16.4423 38.0129 16.5041 38.146C16.5658 38.279 16.666 38.3905 16.7918 38.4661C16.9175 38.5416 17.063 38.5777 17.2095 38.5698C17.356 38.5618 17.4967 38.5101 17.6135 38.4213C17.7303 38.3326 17.8178 38.2109 17.8647 38.0719C17.9249 37.8936 17.9143 37.699 17.8351 37.5284C17.7559 37.3577 17.6142 37.2239 17.4392 37.1548Z" fill="#E87722"/>
<path d="M28.6131 6.44314H28.6718C28.9592 6.2117 29.3092 6.07121 29.6769 6.03962C29.7057 5.99302 29.7303 5.9439 29.7503 5.89288C29.8108 5.72797 29.821 5.5488 29.7797 5.37806C29.7383 5.20732 29.6473 5.05269 29.518 4.93373C29.3887 4.81478 29.2271 4.73685 29.0535 4.70982C28.8799 4.68278 28.7022 4.70786 28.5429 4.78186C28.3836 4.85587 28.2498 4.97549 28.1585 5.12557C28.0672 5.27565 28.0224 5.44945 28.0299 5.62496C28.0375 5.80047 28.0969 5.96981 28.2007 6.11154C28.3045 6.25326 28.448 6.36101 28.6131 6.42113V6.44314Z" fill="#E87722"/>
<path d="M20.2272 37.7344C20.0557 37.708 19.8803 37.7329 19.7229 37.8058C19.5656 37.8788 19.4333 37.9966 19.3426 38.1444C19.252 38.2923 19.207 38.4637 19.2134 38.637C19.2198 38.8103 19.2773 38.9779 19.3785 39.1187C19.4798 39.2595 19.6205 39.3673 19.7828 39.4284C19.9451 39.4896 20.1218 39.5015 20.2909 39.4625C20.4599 39.4236 20.6137 39.3356 20.7328 39.2096C20.852 39.0836 20.9313 38.9251 20.9608 38.7542C20.9817 38.6389 20.9792 38.5205 20.9534 38.4061C20.9276 38.2917 20.879 38.1837 20.8105 38.0886C20.742 37.9934 20.6551 37.913 20.5549 37.8521C20.4546 37.7913 20.3432 37.7513 20.2272 37.7344Z" fill="#E87722"/>
<path d="M25.9058 5.54806C26.0495 5.5772 26.1987 5.56259 26.334 5.50613C26.4694 5.44967 26.5847 5.35394 26.6651 5.23129C26.7455 5.10865 26.7874 4.96472 26.7852 4.81808C26.783 4.67144 26.7369 4.52882 26.6529 4.40863C26.5688 4.28844 26.4507 4.19618 26.3138 4.14378C26.1768 4.09137 26.0273 4.08121 25.8845 4.11462C25.7417 4.14803 25.6121 4.22347 25.5126 4.3312C25.4131 4.43893 25.3482 4.57401 25.3262 4.719C25.298 4.90517 25.3424 5.09506 25.4503 5.24939C25.5582 5.40371 25.7213 5.51064 25.9058 5.54806Z" fill="#E87722"/>
<path d="M18.4446 30.1775C18.3155 29.9656 18.1264 29.7968 17.9013 29.6924C17.6762 29.5879 17.4252 29.5526 17.18 29.5908C16.9348 29.6291 16.7065 29.7392 16.5239 29.9072C16.3413 30.0752 16.2126 30.2936 16.1541 30.5347C16.0956 30.7759 16.1099 31.0289 16.1953 31.2619C16.2806 31.495 16.4332 31.6974 16.6336 31.8437C16.834 31.99 17.0733 32.0736 17.3212 32.084C17.5691 32.0943 17.8146 32.0308 18.0264 31.9016C18.1678 31.8166 18.2909 31.7043 18.3886 31.5713C18.4863 31.4383 18.5567 31.2873 18.5955 31.1269C18.6344 30.9665 18.6411 30.8 18.6152 30.6371C18.5893 30.4741 18.5313 30.3179 18.4446 30.1775Z" fill="#00B5E2"/>
<path d="M43.0521 15.9882C43.5059 15.9882 43.8738 15.6203 43.8738 15.1665C43.8738 14.7127 43.5059 14.3448 43.0521 14.3448C42.5983 14.3448 42.2304 14.7127 42.2304 15.1665C42.2304 15.6203 42.5983 15.9882 43.0521 15.9882Z" fill="#00B5E2"/>
<path d="M41.7095 13.2663C41.8681 13.1165 41.9606 12.9098 41.9668 12.6917C41.973 12.4736 41.8923 12.262 41.7425 12.1034C41.5927 11.9448 41.386 11.8523 41.1679 11.8461C40.9498 11.8399 40.7382 11.9206 40.5796 12.0704C40.421 12.2202 40.3285 12.4269 40.3223 12.645C40.3161 12.8631 40.3968 13.0747 40.5466 13.2333C40.6964 13.3919 40.9031 13.4844 41.1212 13.4906C41.3393 13.4968 41.5509 13.4161 41.7095 13.2663Z" fill="#00B5E2"/>
<path d="M39.5671 11.1973C39.7199 10.9765 39.7787 10.704 39.7305 10.4398C39.6823 10.1756 39.5312 9.94141 39.3104 9.78866C39.0895 9.63591 38.817 9.57715 38.5528 9.62531C38.2887 9.67347 38.0544 9.82459 37.9017 10.0454C37.85 10.1231 37.8081 10.2069 37.777 10.2949C37.8315 10.5364 37.8315 10.7871 37.777 11.0286C37.8464 11.1968 37.9598 11.3433 38.1055 11.4525C38.2511 11.5617 38.4234 11.6297 38.6044 11.6492C38.7854 11.6687 38.9682 11.6391 39.1338 11.5635C39.2994 11.4878 39.4415 11.3689 39.5451 11.2193L39.5671 11.1973Z" fill="#00B5E2"/>
<path d="M25.0257 35.46C24.7891 35.3581 24.5306 35.3174 24.2742 35.3418C24.0177 35.3662 23.7715 35.4547 23.5583 35.5994C23.5986 35.2553 23.5444 34.9067 23.4016 34.5911C23.2587 34.2755 23.0327 34.0047 22.7476 33.8079C22.4625 33.611 22.1292 33.4956 21.7834 33.4738C21.4377 33.4521 21.0925 33.5249 20.785 33.6845C20.8415 33.4352 20.8363 33.176 20.7698 32.9292C20.7033 32.6824 20.5776 32.4556 20.4035 32.2685C20.2103 32.0632 19.9646 31.9145 19.6931 31.8386C19.4216 31.7627 19.1344 31.7623 18.8627 31.8377C18.591 31.913 18.345 32.0611 18.1513 32.2659C17.9576 32.4708 17.8236 32.7247 17.7636 33.0002C17.7036 33.2757 17.72 33.5624 17.8111 33.8293C17.9021 34.0961 18.0643 34.333 18.2801 34.5145C18.496 34.6959 18.7572 34.8149 19.0358 34.8587C19.3143 34.9025 19.5995 34.8694 19.8606 34.763C19.7269 35.157 19.7257 35.5839 19.8572 35.9786C19.9886 36.3734 20.2455 36.7143 20.5887 36.9495C20.932 37.1847 21.3427 37.3012 21.7582 37.2813C22.1738 37.2614 22.5715 37.1062 22.8907 36.8393C22.8806 37.1729 22.9812 37.5006 23.1768 37.7711C23.3568 37.7918 23.5288 37.857 23.6774 37.9607C23.826 38.0645 23.9464 38.2035 24.0279 38.3653C24.2475 38.4166 24.4759 38.4166 24.6955 38.3653C24.7374 38.0854 24.8661 37.8257 25.0636 37.623C25.2611 37.4202 25.5173 37.2847 25.7961 37.2355H25.9354C26.019 36.8797 25.9734 36.5058 25.8067 36.1806C25.6401 35.8554 25.3633 35.5999 25.0257 35.46Z" fill="#00B5E2"/>
<path d="M37.2194 9.39981C37.2762 9.15589 37.2587 8.90054 37.1692 8.66663C37.0797 8.43273 36.9222 8.23098 36.717 8.08735C36.5118 7.94372 36.2683 7.86479 36.0179 7.86072C35.7675 7.85666 35.5216 7.92763 35.3118 8.06452C35.406 8.28054 35.4421 8.51745 35.4163 8.75171C35.3906 8.98597 35.304 9.20941 35.1651 9.39981C35.4582 9.17015 35.8199 9.04535 36.1922 9.04535C36.5646 9.04535 36.9263 9.17015 37.2194 9.39981Z" fill="#00B5E2"/>
<path d="M34.8863 9.69328C34.9683 9.63466 35.0423 9.56561 35.1064 9.48785L35.1651 9.39981C35.0609 9.48625 34.9673 9.58476 34.8863 9.69328Z" fill="#00B5E2"/>
<path d="M27.3074 39.0403C27.4484 39.0626 27.592 39.0626 27.733 39.0403C27.5767 38.8764 27.4523 38.6848 27.3661 38.4754C27.3916 38.6657 27.3715 38.8593 27.3074 39.0403Z" fill="#00B5E2"/>
<path d="M26.2949 37.2795C26.5099 37.3244 26.7109 37.4206 26.8808 37.5598C27.0507 37.699 27.1845 37.8772 27.2707 38.0792C27.2354 37.8089 27.2664 37.5341 27.361 37.2785C27.4556 37.0228 27.6109 36.794 27.8137 36.6118H27.6743C27.4029 36.5551 27.1204 36.5898 26.8708 36.7106C26.6213 36.8314 26.4188 37.0314 26.2949 37.2795Z" fill="#00B5E2"/>
<path d="M33.2722 6.69988C33.0833 6.66233 32.8888 6.66233 32.6999 6.69988C32.7465 6.95237 32.6996 7.21317 32.5679 7.43356C32.4848 7.58057 32.3686 7.70619 32.2285 7.80044C32.0884 7.89469 31.9283 7.95496 31.7608 7.97648C31.6609 7.98745 31.56 7.98745 31.46 7.97648C31.3257 7.95687 31.1962 7.91206 31.0785 7.84442C30.835 7.699 30.6576 7.46465 30.5837 7.19086C30.5098 6.91707 30.5451 6.62527 30.6823 6.37707C30.6799 6.35512 30.6799 6.33298 30.6823 6.31104C30.4166 6.14536 30.1143 6.04713 29.8019 6.0249H29.6772C29.5777 6.19364 29.4251 6.32472 29.2433 6.39771C29.0615 6.4707 28.8606 6.4815 28.6721 6.42842C28.3336 6.69551 28.0977 7.0713 28.0044 7.49225C27.7975 7.19923 27.4953 6.98713 27.1494 6.89221C26.8035 6.79729 26.4354 6.82544 26.1079 6.97184C25.7805 7.11824 25.514 7.37382 25.3541 7.69489C25.1942 8.01596 25.1507 8.3826 25.2311 8.73217C25.3154 9.0466 25.4967 9.32646 25.7492 9.53195C26.0017 9.73744 26.3125 9.85811 26.6375 9.8768C26.9625 9.89549 27.2851 9.81124 27.5595 9.63605C27.8339 9.46085 28.046 9.20361 28.1658 8.90091C28.3326 9.20578 28.5807 9.45841 28.8825 9.63068C29.1843 9.80295 29.528 9.88812 29.8753 9.8767C30.2275 9.87321 30.5719 9.77188 30.8698 9.58402C31.1678 9.39616 31.4077 9.12917 31.5627 8.81287C31.6612 9.0489 31.8166 9.25687 32.015 9.41818C32.2135 9.5795 32.4488 9.68914 32.6999 9.7373C32.9108 9.77773 33.1274 9.77773 33.3382 9.7373L33.2062 9.63459C32.9855 9.45135 32.8292 9.20223 32.7604 8.92375C32.6916 8.64526 32.7137 8.35205 32.8236 8.08708C32.9336 7.82211 33.1255 7.59931 33.3712 7.45134C33.617 7.30337 33.9037 7.238 34.1893 7.26481C33.9638 6.96974 33.6372 6.76852 33.2722 6.69988Z" fill="#00B5E2"/>
<path d="M30.4916 37.3015C30.587 37.5823 30.6054 37.8836 30.5447 38.174C30.4841 38.4643 30.3466 38.7331 30.1467 38.9523C30.2883 39.0208 30.4445 39.0535 30.6016 39.0476C30.7346 39.0448 30.8657 39.0158 30.9874 38.9622C31.1092 38.9087 31.2192 38.8317 31.3112 38.7356C31.4032 38.6395 31.4753 38.5263 31.5235 38.4023C31.5717 38.2784 31.595 38.1461 31.5921 38.0132C31.596 37.9815 31.596 37.9495 31.5921 37.9178C31.3727 37.9106 31.1583 37.8508 30.9668 37.7436C30.7753 37.6364 30.6123 37.4848 30.4916 37.3015Z" fill="#00B5E2"/>
<path d="M33.507 36.8393C33.3232 36.8788 33.1586 36.9801 33.0405 37.1263C32.9223 37.2724 32.8579 37.4547 32.8579 37.6427C32.8579 37.8306 32.9223 38.0129 33.0405 38.1591C33.1586 38.3053 33.3232 38.4065 33.507 38.446C33.4183 38.2375 33.3892 38.0085 33.4229 37.7844C33.4565 37.5604 33.5517 37.35 33.6977 37.1768C33.7928 37.0665 33.9071 36.9745 34.0352 36.9053C33.8712 36.8258 33.6855 36.8026 33.507 36.8393Z" fill="#00B5E2"/>
<path d="M35.8988 36.876C35.9015 36.8979 35.9015 36.9201 35.8988 36.942C35.9829 37.121 36.1288 37.2636 36.3097 37.3436C36.4905 37.4237 36.6941 37.4358 36.8832 37.3779C37.0723 37.3199 37.2341 37.1957 37.339 37.028C37.4439 36.8604 37.4848 36.6605 37.4542 36.4651C37.2604 36.6738 37.0114 36.8232 36.736 36.896C36.4607 36.9687 36.1703 36.9618 35.8988 36.876Z" fill="#00B5E2"/>
<path d="M23.7638 10.6691C24.4567 10.6691 25.0184 10.1074 25.0184 9.41448C25.0184 8.7216 24.4567 8.1599 23.7638 8.1599C23.0709 8.1599 22.5092 8.7216 22.5092 9.41448C22.5092 10.1074 23.0709 10.6691 23.7638 10.6691Z" fill="#00B5E2"/>
<path d="M39.347 35.9589C39.9062 35.9589 40.3595 35.5056 40.3595 34.9464C40.3595 34.3872 39.9062 33.9339 39.347 33.9339C38.7879 33.9339 38.3346 34.3872 38.3346 34.9464C38.3346 35.5056 38.7879 35.9589 39.347 35.9589Z" fill="#00B5E2"/>
<path d="M21.0859 12.0631C21.645 12.0631 22.0983 11.6098 22.0983 11.0506C22.0983 10.4914 21.645 10.0381 21.0859 10.0381C20.5267 10.0381 20.0734 10.4914 20.0734 11.0506C20.0734 11.6098 20.5267 12.0631 21.0859 12.0631Z" fill="#00B5E2"/>
<path d="M42.4505 31.8356C42.2625 31.6735 42.0307 31.5709 41.7843 31.5406C41.538 31.5103 41.2882 31.5538 41.0665 31.6655C40.8449 31.7772 40.6614 31.9522 40.5392 32.1683C40.417 32.3843 40.3617 32.6317 40.3802 32.8793C40.3987 33.1268 40.4902 33.3632 40.6431 33.5587C40.796 33.7542 41.0035 33.9 41.2392 33.9776C41.475 34.0551 41.7285 34.061 41.9676 33.9945C42.2067 33.9279 42.4207 33.792 42.5826 33.6038C42.7993 33.3517 42.9071 33.0239 42.8824 32.6924C42.8576 32.3608 42.7023 32.0527 42.4505 31.8356Z" fill="#00B5E2"/>
<path d="M18.8188 14.0293C18.8695 13.8188 18.9663 13.6222 19.102 13.4535C19.2377 13.2847 19.4091 13.1482 19.6038 13.0535C19.568 12.8712 19.4725 12.706 19.3324 12.584C19.1643 12.4817 18.9651 12.4432 18.771 12.4753C18.5769 12.5075 18.4008 12.6082 18.2747 12.7592C18.1486 12.9102 18.0808 13.1015 18.0837 13.2982C18.0866 13.4949 18.16 13.684 18.2905 13.8312C18.4367 13.9592 18.6245 14.0296 18.8188 14.0293Z" fill="#00B5E2"/>
<path d="M15.6493 19.2311C15.7523 19.2634 15.8626 19.2642 15.9661 19.2335C16.0696 19.2028 16.1616 19.142 16.2303 19.0587C16.2991 18.9755 16.3414 18.8737 16.352 18.7662C16.3626 18.6588 16.3409 18.5507 16.2897 18.4556C16.2386 18.3606 16.1602 18.2829 16.0647 18.2326C15.9692 18.1823 15.8608 18.1616 15.7535 18.1732C15.6462 18.1848 15.5448 18.2281 15.4622 18.2976C15.3796 18.3671 15.3196 18.4597 15.2898 18.5634C15.2695 18.6309 15.2627 18.7016 15.2698 18.7717C15.2768 18.8418 15.2977 18.9098 15.3311 18.9718C15.3645 19.0338 15.4098 19.0887 15.4644 19.1331C15.519 19.1776 15.5818 19.2109 15.6493 19.2311Z" fill="#00B5E2"/>
<path d="M46.7498 24.3668C46.7782 24.1583 46.7638 23.9463 46.7074 23.7436C46.6511 23.5408 46.554 23.3517 46.4222 23.1878C46.2903 23.0239 46.1264 22.8885 45.9405 22.79C45.7546 22.6916 45.5505 22.632 45.3408 22.615C45.1311 22.5981 44.9202 22.624 44.7208 22.6913C44.5215 22.7586 44.3379 22.8658 44.1814 23.0064C44.0249 23.147 43.8987 23.318 43.8105 23.509C43.7223 23.7 43.6739 23.907 43.6684 24.1173C43.6464 24.3723 43.6886 24.6288 43.7911 24.8633C43.8936 25.0978 44.0532 25.3029 44.2553 25.46C43.9133 25.5275 43.5961 25.6867 43.3376 25.9206C43.0792 26.1545 42.8892 26.4543 42.788 26.7879C42.6861 27.1203 42.6781 27.4744 42.7649 27.811C42.8516 28.1476 43.0297 28.4537 43.2795 28.6955C42.9334 28.7221 42.6062 28.8642 42.3506 29.0991C42.095 29.334 41.9257 29.6481 41.8701 29.9907C41.8144 30.3334 41.8755 30.6849 42.0436 30.9886C42.2117 31.2924 42.4771 31.5308 42.797 31.6656C43.1169 31.8004 43.4729 31.8237 43.8077 31.7319C44.1425 31.64 44.4367 31.4383 44.643 31.1591C44.8494 30.8799 44.9559 30.5395 44.9454 30.1925C44.935 29.8455 44.8082 29.512 44.5855 29.2457C45.0019 29.2529 45.4093 29.1237 45.7454 28.8776C46.0814 28.6316 46.3277 28.2823 46.4466 27.8831C46.5656 27.4839 46.5506 27.0568 46.4039 26.667C46.2573 26.2771 45.9871 25.946 45.6346 25.7241C45.9362 25.6375 46.2043 25.4613 46.4034 25.2189C46.6026 24.9766 46.7234 24.6794 46.7498 24.3668Z" fill="#00B5E2"/>
<path d="M15.2939 22.4562C15.6604 22.4159 15.9248 22.086 15.8845 21.7195C15.8441 21.353 15.5143 21.0886 15.1478 21.1289C14.7813 21.1692 14.5168 21.4991 14.5572 21.8656C14.5975 22.2321 14.9273 22.4965 15.2939 22.4562Z" fill="#00B5E2"/>
<path d="M44.967 19.8253C44.7233 19.8591 44.495 19.9643 44.3109 20.1275C44.1267 20.2908 43.995 20.5048 43.9323 20.7428C43.8696 20.9807 43.8786 21.2319 43.9583 21.4647C44.038 21.6975 44.1847 21.9015 44.3801 22.0511C44.5755 22.2007 44.8107 22.2891 45.0563 22.3053C45.3018 22.3215 45.5466 22.2647 45.76 22.1421C45.9733 22.0194 46.1456 21.8364 46.2551 21.6161C46.3647 21.3958 46.4066 21.148 46.3757 20.9038C46.3549 20.7401 46.3019 20.5822 46.2196 20.4391C46.1374 20.2961 46.0276 20.1708 45.8965 20.0704C45.7655 19.9701 45.6159 19.8968 45.4563 19.8547C45.2968 19.8127 45.1304 19.8027 44.967 19.8253Z" fill="#00B5E2"/>
<path d="M15.4072 25.7461C15.6178 25.7117 15.8068 25.5968 15.9342 25.4256C16.0615 25.2543 16.1173 25.0403 16.0896 24.8287C16.062 24.6171 15.9531 24.4245 15.786 24.2918C15.619 24.159 15.4068 24.0965 15.1944 24.1173C15.0848 24.1281 14.9785 24.1608 14.8818 24.2135C14.7851 24.2661 14.7 24.3377 14.6315 24.4239C14.563 24.5101 14.5125 24.6092 14.4831 24.7153C14.4536 24.8214 14.4458 24.9324 14.46 25.0416C14.4743 25.1507 14.5104 25.256 14.5661 25.3509C14.6218 25.4459 14.6961 25.5287 14.7844 25.5944C14.8728 25.6602 14.9734 25.7074 15.0804 25.7335C15.1874 25.7596 15.2985 25.7638 15.4072 25.7461Z" fill="#00B5E2"/>
<path d="M43.4483 18.3433C43.5184 18.5297 43.6419 18.6912 43.8034 18.8077C43.9648 18.9243 44.157 18.9906 44.356 18.9985C44.5549 19.0063 44.7518 18.9553 44.9219 18.8519C45.092 18.7484 45.2279 18.5971 45.3125 18.4169C45.3971 18.2366 45.4266 18.0355 45.3975 17.8385C45.3683 17.6415 45.2817 17.4575 45.1485 17.3095C45.0154 17.1615 44.8415 17.0561 44.6487 17.0064C44.4559 16.9566 44.2527 16.9649 44.0646 17.03C43.9362 17.0734 43.8179 17.1423 43.7168 17.2326C43.6158 17.3228 43.534 17.4326 43.4764 17.5553C43.4189 17.678 43.3867 17.811 43.3818 17.9464C43.377 18.0818 43.3996 18.2169 43.4483 18.3433Z" fill="#00B5E2"/>
<path d="M16.9846 27.6537C16.9403 27.5279 16.8716 27.4122 16.7826 27.313C16.6935 27.2138 16.5858 27.1331 16.4655 27.0755C16.3453 27.0179 16.2149 26.9846 16.0818 26.9774C15.9486 26.9703 15.8154 26.9894 15.6897 27.0337C15.5639 27.078 15.4482 27.1467 15.349 27.2357C15.2498 27.3248 15.1691 27.4325 15.1115 27.5528C15.0539 27.673 15.0206 27.8034 15.0134 27.9366C15.0063 28.0697 15.0254 28.2029 15.0697 28.3286C15.1592 28.5826 15.3459 28.7905 15.5888 28.9068C15.8316 29.0231 16.1107 29.0381 16.3646 28.9486C16.6186 28.8591 16.8266 28.6724 16.9428 28.4295C17.0591 28.1867 17.0741 27.9076 16.9846 27.6537Z" fill="#00B5E2"/>
<path d="M18.8181 14.0292C18.9329 14.0267 19.0458 13.9998 19.1495 13.9505C19.2532 13.9012 19.3453 13.8305 19.4197 13.7431C19.4997 13.6491 19.5577 13.5383 19.5895 13.419C19.6212 13.2997 19.6259 13.1748 19.6032 13.0535C19.4084 13.1481 19.237 13.2847 19.1013 13.4534C18.9656 13.6221 18.8689 13.8187 18.8181 14.0292Z" fill="white"/>
<path d="M17.3288 15.2105C17.173 15.1271 16.9906 15.1089 16.8215 15.1598C16.6523 15.2107 16.5103 15.3265 16.4263 15.4819C16.381 15.5744 16.3574 15.6761 16.3574 15.7791C16.3574 15.8821 16.381 15.9837 16.4263 16.0762C16.5185 16.2078 16.6357 16.32 16.7712 16.4064C16.9228 16.4738 17.0944 16.481 17.2511 16.4265C17.4078 16.372 17.5379 16.2598 17.6149 16.1129C17.6556 16.0349 17.6805 15.9496 17.6881 15.862C17.6958 15.7743 17.686 15.686 17.6594 15.6022C17.6328 15.5183 17.5899 15.4405 17.5332 15.3733C17.4764 15.3061 17.407 15.2507 17.3288 15.2105Z" fill="white"/>
<path d="M37.7983 10.2948C37.7044 10.5304 37.7044 10.793 37.7983 11.0285C37.8529 10.787 37.8529 10.5364 37.7983 10.2948Z" fill="white"/>
<path d="M37.1527 9.59784C37.1812 9.53417 37.2033 9.46781 37.2187 9.39975C36.9256 9.17009 36.564 9.04529 36.1916 9.04529C35.8192 9.04529 35.4576 9.17009 35.1644 9.39975L35.1204 9.45844C35.0563 9.5362 34.9823 9.60525 34.9003 9.66387C35.0058 9.87992 35.1715 10.0609 35.3775 10.1849C35.5835 10.309 35.8209 10.3709 36.0612 10.3631C36.3016 10.3554 36.5345 10.2783 36.7321 10.1412C36.9296 10.0042 37.0833 9.81291 37.1747 9.5905L37.1527 9.59784Z" fill="white"/>
<path d="M35.1131 9.4291C35.2543 9.24005 35.3436 9.01728 35.3719 8.78298C35.4002 8.54869 35.3666 8.31107 35.2745 8.09381C35.0658 8.23497 34.9026 8.4338 34.8049 8.66607C34.7285 8.82779 34.6889 9.00444 34.6889 9.18331C34.6889 9.36219 34.7285 9.53883 34.8049 9.70056C34.8964 9.59802 34.9998 9.50687 35.1131 9.4291Z" fill="white"/>
<path d="M33.0368 7.72697C32.9234 7.86227 32.8379 8.0186 32.785 8.187C32.7321 8.35541 32.713 8.53259 32.7286 8.7084C32.7443 8.88421 32.7945 9.05521 32.8763 9.21161C32.9581 9.368 33.07 9.50673 33.2055 9.61985L33.3376 9.72257C33.6295 9.65269 33.895 9.49982 34.102 9.28242C34.309 9.06501 34.4486 8.79234 34.5041 8.49733C34.545 8.27899 34.538 8.05437 34.4835 7.83902C34.429 7.62366 34.3284 7.42272 34.1886 7.25008C33.9724 7.2305 33.7546 7.26366 33.554 7.34672C33.3534 7.42978 33.1759 7.56026 33.0368 7.72697Z" fill="white"/>
<path d="M31.6721 7.39681C31.5971 7.15412 31.474 6.92901 31.3101 6.7349C31.1463 6.54079 30.945 6.38165 30.7183 6.26695C30.7159 6.2889 30.7159 6.31104 30.7183 6.33298C30.5812 6.58118 30.5458 6.87299 30.6197 7.14678C30.6936 7.42057 30.8711 7.65491 31.1145 7.80033C31.2323 7.86798 31.3617 7.91278 31.496 7.9324C31.596 7.94336 31.6969 7.94336 31.7969 7.9324C31.9643 7.91088 32.1245 7.8506 32.2646 7.75636C32.4047 7.66211 32.5208 7.53649 32.6039 7.38948C32.7356 7.16909 32.7825 6.90828 32.736 6.6558C32.5149 6.69315 32.3049 6.77897 32.121 6.90708C31.9371 7.0352 31.7838 7.20245 31.6721 7.39681Z" fill="white"/>
<path d="M28.6714 6.46505C28.86 6.51812 29.0608 6.50732 29.2426 6.43433C29.4244 6.36134 29.577 6.23027 29.6765 6.06152C29.3088 6.09311 28.9589 6.2336 28.6714 6.46505Z" fill="white"/>
<path d="M23.1762 37.7783C23.3397 38.0154 23.5693 38.1991 23.8365 38.3066L24.0272 38.3726C23.9457 38.2108 23.8253 38.0717 23.6767 37.968C23.5282 37.8643 23.3562 37.7991 23.1762 37.7783Z" fill="white"/>
<path d="M24.6949 38.4093C24.9519 38.3643 25.1934 38.2553 25.3972 38.0925C25.6011 37.9297 25.7607 37.7182 25.8614 37.4775C25.8614 37.4041 25.9128 37.3308 25.9348 37.2574H25.7954C25.5135 37.3079 25.2549 37.4466 25.0571 37.6537C24.8593 37.8608 24.7324 38.1254 24.6949 38.4093Z" fill="white"/>
<path d="M27.8277 36.5824C27.6249 36.7646 27.4696 36.9934 27.375 37.2491C27.2804 37.5047 27.2494 37.7795 27.2847 38.0498C27.1985 37.8478 27.0647 37.6696 26.8948 37.5304C26.7249 37.3912 26.524 37.295 26.309 37.2501C26.2744 37.3381 26.2474 37.4289 26.2283 37.5215C26.1974 37.6834 26.1987 37.8498 26.2322 38.0111C26.2656 38.1725 26.3305 38.3256 26.4232 38.4619C26.5159 38.5982 26.6344 38.7148 26.7722 38.8053C26.91 38.8957 27.0642 38.9581 27.2261 38.9889H27.3214C27.3891 38.8011 27.4093 38.5994 27.3801 38.4019C27.4663 38.6114 27.5907 38.8029 27.747 38.9669C28.0155 38.9039 28.2557 38.7542 28.4306 38.541C28.6055 38.3278 28.7053 38.0628 28.7144 37.7872C28.7236 37.5116 28.6417 37.2406 28.4814 37.0162C28.3211 36.7918 28.0914 36.6264 27.8277 36.5457V36.5824Z" fill="white"/>
<path d="M30.5569 37.0226H30.3809C30.1732 37.0665 29.9845 37.1745 29.8416 37.3315C29.6986 37.4884 29.6086 37.6863 29.5843 37.8972C29.56 38.1081 29.6025 38.3213 29.706 38.5066C29.8094 38.692 29.9685 38.8402 30.1608 38.9302C30.3606 38.711 30.4981 38.4423 30.5587 38.1519C30.6194 37.8616 30.601 37.5603 30.5056 37.2794C30.6256 37.4617 30.7875 37.6127 30.9776 37.7199C31.1677 37.8271 31.3807 37.8873 31.5988 37.8957C31.5659 37.6462 31.4407 37.418 31.2478 37.2564C31.0549 37.0947 30.8084 37.0113 30.5569 37.0226Z" fill="white"/>
<path d="M34.0712 36.8979C33.9432 36.9671 33.8288 37.0591 33.7338 37.1694C33.5877 37.3426 33.4926 37.553 33.4589 37.777C33.4252 38.0011 33.4543 38.2301 33.543 38.4386C33.6565 38.4642 33.7743 38.4642 33.8878 38.4386C34.052 38.4002 34.2004 38.3121 34.3128 38.1865C34.4253 38.0608 34.4963 37.9036 34.5164 37.7362C34.5364 37.5687 34.5044 37.3992 34.4248 37.2505C34.3452 37.1019 34.2217 36.9813 34.0712 36.9052V36.8979Z" fill="white"/>
<path d="M36.309 35.8414C36.1243 35.9321 35.98 36.0883 35.9041 36.2795C35.8282 36.4706 35.826 36.6832 35.8981 36.8759C36.1737 36.9678 36.47 36.9779 36.7513 36.905C37.0325 36.8321 37.2866 36.6793 37.4828 36.465C37.4615 36.3391 37.4116 36.2198 37.3371 36.1162C37.2625 36.0125 37.1651 35.9273 37.0525 35.8671C36.9399 35.8069 36.815 35.7733 36.6874 35.7689C36.5598 35.7644 36.4328 35.7892 36.3163 35.8414H36.309Z" fill="white"/>
<path d="M115.208 27.1039C113.616 26.6417 112.933 26.1281 112.911 25.3871C112.923 25.1895 112.975 24.9964 113.063 24.8194C113.152 24.6423 113.275 24.485 113.426 24.3568C113.576 24.2286 113.752 24.1323 113.941 24.0736C114.13 24.0148 114.328 23.995 114.525 24.0151C115.912 24.0151 116.169 24.9028 116.191 25.4824H119.287C119.023 22.5477 116.675 21.5133 114.555 21.5133C111.781 21.5133 109.771 23.2961 109.771 25.7612C109.771 27.412 110.864 28.5419 113.043 29.2242L113.227 29.2902C115.567 30.0973 116.536 30.4348 116.536 31.5793C116.542 31.7685 116.508 31.9568 116.437 32.1324C116.367 32.308 116.26 32.4669 116.125 32.5991C115.931 32.7873 115.701 32.9349 115.449 33.0332C115.197 33.1314 114.928 33.1784 114.657 33.1714C114.213 33.1842 113.778 33.0461 113.422 32.7796C113.066 32.5132 112.811 32.134 112.699 31.704H109.551C109.925 34.4626 112.324 35.7026 114.613 35.7026C115.325 35.7252 116.034 35.6072 116.7 35.3554C117.366 35.1036 117.976 34.7229 118.495 34.2352C118.882 33.8397 119.186 33.3701 119.387 32.8545C119.589 32.3389 119.685 31.7879 119.668 31.2345C119.654 28.3144 117.291 27.6688 115.208 27.1039Z" fill="white"/>
<path d="M128.737 35.255H129.25V32.4377H128.737C127.907 32.4377 127.111 32.1086 126.524 31.5227C125.937 30.9368 125.606 30.1418 125.604 29.3122V24.7634H129.272V21.8728H125.604V18.4025H122.75V29.2756C122.754 30.8615 123.386 32.3812 124.508 33.502C125.63 34.6227 127.151 35.2531 128.737 35.255Z" fill="white"/>
<path d="M148.186 21.4839C146.783 21.4839 145.412 21.9 144.245 22.6796C143.078 23.4591 142.169 24.5672 141.632 25.8636C141.095 27.1599 140.954 28.5864 141.228 29.9627C141.502 31.3389 142.178 32.603 143.17 33.5952C144.162 34.5874 145.426 35.2631 146.802 35.5369C148.179 35.8106 149.605 35.6701 150.901 35.1332C152.198 34.5962 153.306 33.6868 154.085 32.5201C154.865 31.3534 155.281 29.9817 155.281 28.5786C155.279 26.6975 154.531 24.8941 153.201 23.564C151.871 22.234 150.067 21.4859 148.186 21.4839ZM148.186 32.8119C147.347 32.8119 146.527 32.563 145.83 32.0967C145.132 31.6304 144.589 30.9677 144.268 30.1923C143.947 29.417 143.864 28.564 144.028 27.7412C144.192 26.9184 144.597 26.1628 145.19 25.57C145.784 24.9773 146.541 24.574 147.364 24.4112C148.187 24.2484 149.04 24.3334 149.814 24.6555C150.589 24.9776 151.251 25.5223 151.716 26.2206C152.181 26.9189 152.429 27.7395 152.427 28.5786C152.425 29.702 151.977 30.7787 151.182 31.5724C150.387 32.3661 149.31 32.8119 148.186 32.8119Z" fill="white"/>
<path d="M138.737 24.3673H139.25V21.4839H138.649C137.083 21.5165 135.593 22.1604 134.496 23.2778C133.399 24.3953 132.783 25.8975 132.779 27.4634V35.277H135.633V27.4634C135.641 26.6433 135.971 25.8592 136.551 25.28C137.132 24.7008 137.917 24.373 138.737 24.3673Z" fill="white"/>
<path d="M179.881 41.0437C181.762 41.0418 183.566 40.2937 184.896 38.9636C186.226 37.6335 186.974 35.8301 186.976 33.9491V21.8728H184.1V22.8999L183.902 22.7605C182.84 22.0219 181.597 21.5875 180.307 21.5041C179.016 21.4208 177.728 21.6917 176.58 22.2876C175.433 22.8835 174.47 23.7817 173.795 24.8852C173.121 25.9886 172.761 27.2553 172.755 28.5484C172.748 29.8415 173.096 31.1118 173.759 32.2219C174.422 33.3321 175.375 34.2399 176.517 34.8473C177.659 35.4547 178.944 35.7385 180.236 35.6682C181.527 35.5978 182.774 35.1758 183.843 34.448L184.085 34.2866L184.041 34.5727C183.891 35.5762 183.387 36.4929 182.62 37.1575C181.853 37.8221 180.874 38.1908 179.859 38.197C178.793 38.1953 177.768 37.7889 176.991 37.0599H173.491C174.077 38.2551 174.986 39.262 176.116 39.9662C177.246 40.6705 178.55 41.0438 179.881 41.0437ZM179.881 32.8119C179.041 32.8162 178.219 32.571 177.519 32.1074C176.818 31.6438 176.271 30.9826 175.947 30.2077C175.623 29.4328 175.536 28.579 175.698 27.7548C175.86 26.9305 176.262 26.1729 176.855 25.5779C177.448 24.9829 178.205 24.5774 179.028 24.4128C179.852 24.2483 180.706 24.332 181.482 24.6534C182.258 24.9749 182.921 25.5195 183.387 26.2183C183.853 26.9171 184.101 27.7386 184.1 28.5786C184.098 29.6982 183.653 30.7716 182.863 31.5647C182.073 32.3577 181.001 32.8061 179.881 32.8119Z" fill="white"/>
<path d="M164.034 24.3673C164.863 24.3673 165.658 24.6965 166.244 25.2827C166.83 25.8688 167.159 26.6638 167.159 27.4927V35.277H170.013V27.4634C170.013 25.8775 169.383 24.3566 168.262 23.2353C167.141 22.1139 165.62 21.4839 164.034 21.4839C162.448 21.4839 160.927 22.1139 159.806 23.2353C158.684 24.3566 158.054 25.8775 158.054 27.4634V35.277H160.908V27.4634C160.916 26.6395 161.249 25.8521 161.834 25.2723C162.419 24.6925 163.21 24.3672 164.034 24.3673Z" fill="white"/>
<path d="M88.5092 21.8728L85.0096 32.0195L81.51 21.8728H78.4872L83.1167 35.2844H86.9025L91.532 21.8728H88.5092Z" fill="white"/>
<path d="M57.6875 15.8126V35.277H68.0617V32.423H60.5415V15.8126H57.6875Z" fill="white"/>
<path d="M73.5789 15.7612C73.2405 15.7612 72.9097 15.8617 72.6284 16.0499C72.3472 16.238 72.1281 16.5054 71.9989 16.8182C71.8697 17.131 71.8363 17.4751 71.9029 17.8069C71.9694 18.1387 72.133 18.4433 72.3728 18.6821C72.6126 18.9209 72.9179 19.0831 73.2499 19.1482C73.582 19.2133 73.926 19.1784 74.2382 19.0479C74.5504 18.9174 74.8169 18.6972 75.0039 18.4151C75.1908 18.133 75.2898 17.8018 75.2884 17.4634C75.2884 17.2392 75.2441 17.0173 75.1581 16.8103C75.0721 16.6033 74.9461 16.4153 74.7873 16.2572C74.6284 16.099 74.4399 15.9738 74.2326 15.8887C74.0252 15.8036 73.8031 15.7603 73.5789 15.7612Z" fill="white"/>
<path d="M75.0096 21.8728H72.1556V35.277H75.0096V21.8728Z" fill="white"/>
<path d="M103.08 31.704C102.284 32.4829 101.215 32.92 100.101 32.9219C99.2 32.9202 98.3219 32.6362 97.5903 32.1098C96.8586 31.5835 96.3102 30.8412 96.0221 29.9872H107.027C107.118 29.5281 107.165 29.0613 107.167 28.5932C107.181 26.8386 106.548 25.1403 105.389 23.8226C104.23 22.5049 102.627 21.6602 100.885 21.4496C99.1429 21.239 97.3843 21.6774 95.945 22.681C94.5057 23.6846 93.4865 25.1832 93.0819 26.8906C92.6773 28.598 92.9157 30.3946 93.7516 31.9374C94.5875 33.4802 95.9623 34.661 97.6136 35.2545C99.2648 35.8481 101.077 35.8126 102.704 35.155C104.33 34.4974 105.658 33.2636 106.433 31.6893L103.08 31.704ZM100.101 24.2939C101.003 24.2956 101.881 24.5796 102.612 25.106C103.344 25.6323 103.892 26.3746 104.181 27.2286H96.0587C96.3399 26.375 96.8806 25.6306 97.6053 25.0992C98.3301 24.5678 99.2027 24.276 100.101 24.2645V24.2939Z" fill="white"/>
</svg>
